<svg xmlns:ns0="http://www.iki.fi/pav/software/textext/" xmlns="http://www.w3.org/2000/svg" xmlns:xlink="http://www.w3.org/1999/xlink" width="210mm" height="297mm"><title>Das Fadenpendel</title><defs><filter id="d" x="-.48" width="1.96" y="-.48" height="1.96" color-interpolation-filters="sRGB"><feGaussianBlur stdDeviation="4.571"/></filter></defs><path fill="#fff" stroke="#fff" stroke-width="4" stroke-linecap="round" d="M25.642 909.387v-763.24h681.175v763.24z"/><path d="M406.131 207.387a7.993 7.993 0 1 1-7.993 7.993" fill="none" stroke="#333" stroke-width="3.4054272" stroke-linecap="round" stroke-linejoin="round"/><path d="M406.131 207.387v-11.124" fill="none" stroke="#333" stroke-width="3.406" stroke-linecap="round"/><rect width="288.556" height="29.494" x="264.013" y="166.868" ry="0" fill="#4d4d4d" stroke="#333" stroke-width="1.558" stroke-linecap="round" stroke-linejoin="round"/><path d="M183.539 610.052l223.27-386.717" fill="none" stroke="#000" stroke-width="3" stroke-linecap="round"/><g transform="translate(-1202.556 78.612) scale(6.04735)" ns0:text="$\\vec{F}_{\\rm{G}}$" ns0:preamble="/home/waldgeist/data/sphinx/test.tex" fill="#d40000" stroke="#d40000" stroke-width="1.063"><defs><symbol overflow="visible" id="a"><path d="M5.36-5.938c-.141.141-.47.422-.47.594 0 .094.094.203.188.203s.14-.078.203-.14c.11-.14.344-.422.782-.64.062-.048.171-.095.171-.204 0-.11-.078-.156-.14-.203a1.034 1.034 0 0 1-.407-.563c-.03-.093-.062-.234-.203-.234-.14 0-.203.14-.203.219 0 .047.078.36.235.578h-3.36c-.156 0-.344 0-.344.203 0 .188.188.188.344.188zm0 0" stroke="none"/></symbol><symbol overflow="visible" id="b"><path d="M3.016-3.234h.968c.75 0 .829.156.829.437 0 .078 0 .188-.063.5-.031.047-.031.078-.031.11 0 .078.062.109.11.109.109 0 .109-.031.155-.203l.547-2.172c.032-.11.032-.125.032-.156a.117.117 0 0 0-.125-.11c-.094 0-.11.047-.141.219-.219.766-.438.953-1.297.953h-.906l.64-2.531c.094-.36.11-.39.547-.39h1.313c1.218 0 1.453.327 1.453 1.093 0 .234 0 .266-.031.547C7-4.703 7-4.688 7-4.656c0 .047.031.125.125.125.11 0 .11-.063.125-.25l.203-1.735c.031-.265-.016-.265-.266-.265h-4.89c-.188 0-.297 0-.297.203 0 .11.094.11.281.11.375 0 .656 0 .656.171 0 .047 0 .063-.062.25L1.562-.78c-.093.39-.109.469-.906.469-.172 0-.281 0-.281.187C.375 0 .5 0 .531 0c.281 0 1.031-.031 1.313-.031C2.172-.031 3 0 3.328 0c.094 0 .203 0 .203-.188 0-.078-.047-.109-.047-.109-.03-.016-.062-.016-.28-.016-.22 0-.267 0-.517-.015-.296-.031-.328-.078-.328-.203 0-.016 0-.078.047-.219zm0 0" stroke="none"/></symbol><symbol overflow="visible" id="c"><path d="M5.188-1.36c0-.312.078-.312.546-.312v-.25c-.062 0-.562.031-.906.031-.375 0-.89 0-1.266-.03v.25h.266c.703 0 .703.093.703.312v.453c0 .156 0 .422-.406.625-.328.172-.719.172-.813.172-.796 0-2.078-.454-2.078-2.282 0-1.843 1.329-2.25 2.016-2.25.672 0 1.516.454 1.688 1.657.015.078.078.078.125.078.125 0 .125-.047.125-.188v-1.625c0-.125 0-.187-.094-.187-.032 0-.063 0-.125.093l-.36.532a1.994 1.994 0 0 0-1.453-.625C1.703-4.906.484-3.781.484-2.391.484-1 1.672.141 3.172.141c.39 0 1.156-.078 1.484-.563.125.188.375.422.453.422.079 0 .079-.078.079-.188zm0 0" stroke="none"/></symbol></defs><use height="1052.362" width="744.094" xlink:href="#a" x="224.901" y="132.247"/><use height="1052.362" width="744.094" xlink:href="#b" x="223.432" y="134.765"/><use height="1052.362" width="744.094" xlink:href="#c" x="229.839" y="136.259"/></g><path d="M89.171 776.895l92.414-161.402" fill="none" stroke="#d40000" stroke-width="3" stroke-linecap="round" stroke-dasharray="2.99999995,8.99999975"/><path d="M691.13 574.97a452.2 452.2 0 0 1-567.338 1.049" style="marker:none" color="#000" fill="none" stroke="green" stroke-width="2.99998146" stroke-linecap="round" stroke-dasharray="2.62702282,7.88106845" overflow="visible" enable-background="accumulate"/><path d="M181.73 615.577h225.08" fill="none" stroke="green" stroke-width="3" stroke-linecap="round" stroke-dasharray="3,9"/><path d="M276.516 669.408l-94.93-53.915" fill="none" stroke="#d40000" stroke-width="3" stroke-linecap="round" stroke-dasharray="3.00000003,9.00000003"/><path d="M210.202 615.494c0 15.804-12.812 28.616-28.617 28.616-15.804 0-28.616-12.812-28.616-28.616 0-15.805 12.812-28.617 28.616-28.617 15.805 0 28.617 12.812 28.617 28.617z" fill="#b3b3b3" stroke="#4d4d4d" stroke-width="1.5574226899999999" stroke-linecap="square"/><path transform="matrix(.21773 0 0 .21773 106.934 528.197)" d="M301.429 350.934c0 6.311-5.117 11.428-11.429 11.428s-11.429-5.117-11.429-11.428c0-6.312 5.117-11.429 11.429-11.429s11.429 5.117 11.429 11.429z" fill="#fff" filter="url(#d)"/><path d="M406.81 669.877V223.335" fill="none" stroke="#000" stroke-width="3" stroke-linecap="round" stroke-dasharray="2.99999999,8.99999992"/><path style="marker:none" d="M406.97 362.459a139.123 139.123 0 0 1-69.94-18.766" color="#000" fill="none" stroke="#333" stroke-width="3.0000922599999997" stroke-linecap="round" overflow="visible" enable-background="accumulate"/><path d="M183.064 830.22l-94.93-53.915" opacity=".5" fill="none" stroke="#d40000" stroke-width="3" stroke-linecap="round" stroke-dasharray="3.00000003,9.00000003"/><path d="M184.102 830.81l92.414-161.402" opacity=".5" fill="none" stroke="#d40000" stroke-width="3" stroke-linecap="round" stroke-dasharray="2.99999995,8.99999975"/><g fill="#d40000" stroke="#d40000"><path d="M183.539 616.28v192.486" stroke-width="9.999804849999999"/><path d="M183.539 818.345l2.52-4.364 2.518-4.363H178.5l2.52 4.364z" stroke-width="14.953776900000001"/></g><g fill="#d40000" stroke="#d40000"><path d="M183.539 616.28l19.634 11.181 19.634 11.182 19.634 11.181 19.635 11.182" stroke-width="9.999804849999999" stroke-linecap="round"/><path d="M267.074 663.984l-2.459-4.398-2.459-4.398-2.58 4.328-2.579 4.329 5.038.07z" stroke-width="14.953776900000001"/></g><path d="M181.711 724.138a108.645 108.645 0 0 1-54.619-14.654M181.711 724.138a108.645 108.645 0 0 1 54.619 14.655" style="marker:none" opacity=".5" color="#000" fill="none" stroke="#d40000" stroke-width="2.99996158" stroke-linecap="round" overflow="visible" enable-background="accumulate"/><g transform="translate(-1090.456 -415.388) scale(6.04735)" ns0:text="$l$" fill="#d40000" stroke="#d40000" stroke-width="1.063"><defs><symbol id="e" overflow="visible"><path d="M2.578-6.813s0-.109-.14-.109c-.22 0-.954.078-1.22.11-.077 0-.187.015-.187.203 0 .109.11.109.25.109.485 0 .5.094.5.172l-.031.203L.484-1.141a.973.973 0 0 0-.046.329.89.89 0 0 0 .906.921c.328 0 .578-.203.75-.562.172-.375.297-.953.297-.969 0-.11-.094-.11-.125-.11-.094 0-.11.048-.125.188-.172.64-.36 1.235-.766 1.235-.297 0-.297-.313-.297-.454 0-.25.016-.296.063-.484zm0 0" stroke="none"/></symbol></defs><use y="134.765" x="223.432" xlink:href="#e" width="744.094" height="1052.362" fill="#000"/></g><g fill="#d40000" stroke="#d40000"><path d="M181.73 615.577l-20.71 36.282-20.712 36.282-20.712 36.282-20.711 36.282" stroke-width="9.999804849999999" stroke-linecap="round"/><path d="M95.9 765.7l4.402-2.454 4.4-2.454-4.325-2.584-4.326-2.584-.075 5.038z" stroke-width="14.953776900000001"/></g><g ns0:text="$\\vec{F}_{\\rm{S}}$" transform="translate(-1301.975 28.902) scale(6.04735)" fill="#d40000" stroke="#d40000" stroke-width="1.063"><defs><symbol overflow="visible" id="f"><path d="M5.36-5.938c-.141.141-.47.422-.47.594 0 .094.094.203.188.203s.14-.078.203-.14c.11-.14.344-.422.782-.64.062-.048.171-.095.171-.204 0-.11-.078-.156-.14-.203a1.034 1.034 0 0 1-.407-.563c-.03-.093-.062-.234-.203-.234-.14 0-.203.14-.203.219 0 .047.078.36.235.578h-3.36c-.156 0-.344 0-.344.203 0 .188.188.188.344.188zm0 0" stroke="none"/></symbol><symbol overflow="visible" id="g"><path d="M3.016-3.234h.968c.75 0 .829.156.829.437 0 .078 0 .188-.063.5-.031.047-.031.078-.031.11 0 .078.062.109.11.109.109 0 .109-.031.155-.203l.547-2.172c.032-.11.032-.125.032-.156a.117.117 0 0 0-.125-.11c-.094 0-.11.047-.141.219-.219.766-.438.953-1.297.953h-.906l.64-2.531c.094-.36.11-.39.547-.39h1.313c1.218 0 1.453.327 1.453 1.093 0 .234 0 .266-.031.547C7-4.703 7-4.688 7-4.656c0 .047.031.125.125.125.11 0 .11-.063.125-.25l.203-1.735c.031-.265-.016-.265-.266-.265h-4.89c-.188 0-.297 0-.297.203 0 .11.094.11.281.11.375 0 .656 0 .656.171 0 .047 0 .063-.062.25L1.562-.78c-.093.39-.109.469-.906.469-.172 0-.281 0-.281.187C.375 0 .5 0 .531 0c.281 0 1.031-.031 1.313-.031C2.172-.031 3 0 3.328 0c.094 0 .203 0 .203-.188 0-.078-.047-.109-.047-.109-.03-.016-.062-.016-.28-.016-.22 0-.267 0-.517-.015-.296-.031-.328-.078-.328-.203 0-.016 0-.078.047-.219zm0 0" stroke="none"/></symbol><symbol overflow="visible" id="h"><path d="M1.734-2.906c-.609-.14-.796-.578-.796-.875 0-.453.421-.89 1.062-.89.938 0 1.344.624 1.453 1.359.016.093.016.14.125.14.11 0 .11-.047.11-.187v-1.36c0-.125 0-.187-.094-.187-.047 0-.063.031-.11.11l-.265.39c-.453-.469-1.031-.5-1.219-.5-.89 0-1.516.64-1.516 1.343 0 .391.172.688.422.922.281.266.516.313 1.266.485.64.14.781.172.984.36.156.171.297.39.297.702 0 .485-.406.985-1.062.985C1.703-.11.78-.375.719-1.422c0-.125 0-.156-.11-.156-.125 0-.125.047-.125.187v1.344c0 .125 0 .188.094.188C.641.14.656.125.703.063c.063-.094.203-.313.25-.407.438.39.985.485 1.438.485.906 0 1.515-.688 1.515-1.438 0-.625-.437-1.219-1.14-1.375zm0 0" stroke="none"/></symbol></defs><use xlink:href="#f" x="224.901" y="132.247" width="744.094" height="1052.362"/><use xlink:href="#g" x="223.432" y="134.765" width="744.094" height="1052.362"/><use xlink:href="#h" x="229.839" y="136.259" width="744.094" height="1052.362"/></g><g ns0:preamble="/home/waldgeist/data/sphinx/test.tex" ns0:text="$\\vec{F}_{\\rm{G}}$" fill="#d40000" stroke="#d40000" stroke-width="1.063"><use y="132.247" x="224.901" xlink:href="#a" width="744.094" height="1052.362" transform="translate(-1202.556 78.612) scale(6.04735)"/><use y="134.765" x="223.432" xlink:href="#b" width="744.094" height="1052.362" transform="translate(-1202.556 78.612) scale(6.04735)"/><use y="136.259" x="229.839" xlink:href="#c" width="744.094" height="1052.362" transform="translate(-1202.556 78.612) scale(6.04735)"/></g><g transform="translate(-1091.656 -85.326) scale(6.04735)" ns0:text="$\\vec{F}_{\\rm{R}}$" fill="#d40000" stroke="#d40000" stroke-width="1.063"><defs><symbol id="i" overflow="visible"><path d="M5.36-5.938c-.141.141-.47.422-.47.594 0 .094.094.203.188.203s.14-.078.203-.14c.11-.14.344-.422.782-.64.062-.048.171-.095.171-.204 0-.11-.078-.156-.14-.203a1.034 1.034 0 0 1-.407-.563c-.03-.093-.062-.234-.203-.234-.14 0-.203.14-.203.219 0 .047.078.36.235.578h-3.36c-.156 0-.344 0-.344.203 0 .188.188.188.344.188zm0 0" stroke="none"/></symbol><symbol id="j" overflow="visible"><path d="M3.016-3.234h.968c.75 0 .829.156.829.437 0 .078 0 .188-.063.5-.031.047-.031.078-.031.11 0 .078.062.109.11.109.109 0 .109-.031.155-.203l.547-2.172c.032-.11.032-.125.032-.156a.117.117 0 0 0-.125-.11c-.094 0-.11.047-.141.219-.219.766-.438.953-1.297.953h-.906l.64-2.531c.094-.36.11-.39.547-.39h1.313c1.218 0 1.453.327 1.453 1.093 0 .234 0 .266-.031.547C7-4.703 7-4.688 7-4.656c0 .047.031.125.125.125.11 0 .11-.063.125-.25l.203-1.735c.031-.265-.016-.265-.266-.265h-4.89c-.188 0-.297 0-.297.203 0 .11.094.11.281.11.375 0 .656 0 .656.171 0 .047 0 .063-.062.25L1.562-.78c-.093.39-.109.469-.906.469-.172 0-.281 0-.281.187C.375 0 .5 0 .531 0c.281 0 1.031-.031 1.313-.031C2.172-.031 3 0 3.328 0c.094 0 .203 0 .203-.188 0-.078-.047-.109-.047-.109-.03-.016-.062-.016-.28-.016-.22 0-.267 0-.517-.015-.296-.031-.328-.078-.328-.203 0-.016 0-.078.047-.219zm0 0" stroke="none"/></symbol><symbol id="k" overflow="visible"><path d="M3.5-2.375c.625-.14 1.25-.563 1.25-1.125 0-.688-.922-1.266-2-1.266H.406v.25h.172c.531 0 .547.079.547.329v3.625c0 .234-.016.312-.547.312H.406V0s.75-.031 1.031-.031c.297 0 .688.015 1.032.031v-.25h-.156c-.547 0-.563-.078-.563-.313V-2.28h.938c.124 0 .484 0 .796.281.235.219.235.39.235.86 0 .452 0 .734.328 1 .297.25.703.28.906.28.594 0 .734-.562.734-.78 0-.047 0-.126-.109-.126-.11 0-.11.063-.125.125-.031.407-.266.579-.484.579-.39 0-.453-.407-.532-1.032-.078-.562-.093-.672-.296-.906-.079-.078-.266-.266-.641-.375zm-.844-.11H1.75v-1.75c0-.202.016-.25.188-.265.062-.016.296-.016.453-.016.656 0 1.609 0 1.609 1.016 0 .781-.594 1.016-1.344 1.016zm0 0" stroke="none"/></symbol></defs><use y="132.247" x="224.901" xlink:href="#i" width="744.094" height="1052.362"/><use y="134.765" x="223.432" xlink:href="#j" width="744.094" height="1052.362"/><use y="136.259" x="229.839" xlink:href="#k" width="744.094" height="1052.362"/></g><use y="134.765" x="223.432" xlink:href="#textext-0e51608b-1" width="744.094" height="1052.362" transform="matrix(4.97472 0 0 4.97472 -966.422 38.387)" ns0:preamble="/home/waldgeist/data/sphinx/inkscape-preamble.tex" ns0:text="$\\alpha$" opacity=".5" fill="#d40000" stroke="#d40000" stroke-width="1.293"/><use height="1052.362" width="744.094" xlink:href="#textext-0e51608b-1" x="223.432" y="134.765" transform="matrix(4.97472 0 0 4.97472 -919.955 87.884)" ns0:text="$\\alpha$" ns0:preamble="/home/waldgeist/data/sphinx/inkscape-preamble.tex" opacity=".5" fill="#d40000" stroke="#d40000" stroke-width="1.293"/><g transform="matrix(3.83282 0 0 3.83282 -559.65 88.643)" ns0:preamble="/home/waldgeist/data/sphinx/inkscape-preamble.tex" ns0:text="$s$" fill="green" stroke="#d40000" stroke-width="1.678"><defs><symbol id="l" overflow="visible"><path d="M3.89-3.734c-.265.015-.468.234-.468.453 0 .14.094.297.312.297.22 0 .454-.172.454-.563 0-.453-.422-.86-1.188-.86-1.313 0-1.688 1.016-1.688 1.454 0 .781.735.922 1.032.984.515.11 1.031.219 1.031.766 0 .25-.219 1.094-1.422 1.094-.14 0-.906 0-1.14-.532.39.047.64-.25.64-.53 0-.22-.172-.345-.375-.345-.266 0-.562.204-.562.657 0 .562.578.968 1.421.968 1.625 0 2.016-1.203 2.016-1.656a.97.97 0 0 0-.312-.719c-.266-.28-.563-.343-1-.421-.36-.079-.75-.157-.75-.61 0-.281.234-.89 1.109-.89.25 0 .75.078.89.453zm0 0" stroke="none"/></symbol></defs><use height="1052.362" width="744.094" y="134.765" x="223.432" xlink:href="#l"/></g><g ns0:text="$s^{*}$" ns0:preamble="/home/waldgeist/data/sphinx/inkscape-preamble.tex" transform="translate(-648.813 90.478) scale(4.20706)" fill="green" stroke="#d40000" stroke-width="1.528"><defs><symbol overflow="visible" id="m"><path d="M3.89-3.734c-.265.015-.468.234-.468.453 0 .14.094.297.312.297.22 0 .454-.172.454-.563 0-.453-.422-.86-1.188-.86-1.313 0-1.688 1.016-1.688 1.454 0 .781.735.922 1.032.984.515.11 1.031.219 1.031.766 0 .25-.219 1.094-1.422 1.094-.14 0-.906 0-1.14-.532.39.047.64-.25.64-.53 0-.22-.172-.345-.375-.345-.266 0-.562.204-.562.657 0 .562.578.968 1.421.968 1.625 0 2.016-1.203 2.016-1.656a.97.97 0 0 0-.312-.719c-.266-.28-.563-.343-1-.421-.36-.079-.75-.157-.75-.61 0-.281.234-.89 1.109-.89.25 0 .75.078.89.453zm0 0" stroke="none"/></symbol><symbol overflow="visible" id="n"><path d="M2.25-1.734c.578-.25.828-.344 1-.438.14-.047.203-.078.203-.219a.223.223 0 0 0-.219-.218c-.046 0-.062 0-.14.062l-.953.64.109-1.03c.016-.126 0-.297-.219-.297-.078 0-.219.046-.219.203 0 .062.032.265.047.344.016.109.063.624.079.78l-.954-.64c-.062-.031-.078-.062-.14-.062-.14 0-.219.109-.219.218 0 .141.078.188.14.204l1.047.453c-.562.25-.828.343-1 .421-.125.063-.187.094-.187.22 0 .124.078.218.219.218.047 0 .062 0 .14-.063l.954-.625-.125 1.11c0 .156.14.219.218.219.094 0 .219-.063.219-.22 0-.062-.031-.265-.031-.327-.016-.125-.063-.625-.078-.781l.828.546c.187.141.203.141.265.141a.214.214 0 0 0 .22-.219c0-.14-.095-.172-.157-.203zm0 0" stroke="none"/></symbol></defs><use height="1052.362" width="744.094" xlink:href="#m" x="223.432" y="134.765"/><use height="1052.362" width="744.094" xlink:href="#n" x="228.102" y="131.149"/></g><g transform="matrix(5.13524 0 0 5.13524 -785.432 -363.273)" ns0:preamble="/home/waldgeist/data/sphinx/inkscape-preamble.tex" ns0:text="$\\varphi$" fill="#d40000" stroke="#d40000" stroke-width="1.252"><defs><symbol id="o" overflow="visible"><path d="M1.688 1.688c-.032.14-.047.156-.047.203 0 .218.187.28.296.28a.413.413 0 0 0 .36-.265c.031-.078.078-.406.36-1.812.077 0 .155.015.327.015 1.657 0 3.188-1.562 3.188-3.14 0-.781-.39-1.375-1.14-1.375-1.438 0-2.048 1.937-2.641 3.875C1.312-.734.75-1.281.75-2c0-.281.234-1.375.828-2.063.094-.093.094-.109.094-.14 0-.031-.031-.094-.125-.094C1.266-4.297.5-2.844.5-1.89c0 .938.656 1.657 1.719 1.907zM3.077-.47c-.094 0-.11 0-.187-.015-.125 0-.125 0-.125-.032 0-.015.171-.937.187-1.078.313-1.281 1.094-2.234 1.985-2.234.687 0 .953.531.953 1.015 0 1.126-1.282 2.344-2.813 2.344zm0 0" stroke="none"/></symbol></defs><use y="134.765" x="223.432" xlink:href="#o" width="744.094" height="1052.362" fill="#000"/></g><use height="1052.362" width="744.094" xlink:href="#o" x="223.432" y="134.765" transform="matrix(3.91908 0 0 3.91908 -683.105 231.848)" ns0:text="$\\varphi$" ns0:preamble="/home/waldgeist/data/sphinx/inkscape-preamble.tex" fill="#e97f7f" stroke="#d40000" stroke-width="1.641"/><g ns0:preamble="/home/waldgeist/data/sphinx/inkscape-preamble.tex" ns0:text="$\\varphi$" fill="#e97f7f" stroke="#e97f7f" stroke-width="1.641"><use y="134.765" x="223.432" xlink:href="#o" width="744.094" height="1052.362" transform="matrix(3.91908 0 0 3.91908 -727.262 173.676)"/></g></svg>