<svg xmlns:ns0="http://www.iki.fi/pav/software/textext/" xmlns="http://www.w3.org/2000/svg" xmlns:xlink="http://www.w3.org/1999/xlink" width="210mm" height="297mm"><title>Das Fadenpendel</title><defs><marker orient="auto" id="b" overflow="visible"><path d="M8.719 4.034L-2.207.016 8.719-4.002c-1.746 2.372-1.736 5.618 0 8.036z" transform="matrix(.3 0 0 .3 -.69 0)" fill-rule="evenodd" stroke-width=".625" stroke-linejoin="round"/></marker><filter color-interpolation-filters="sRGB" height="1.96" y="-.48" width="1.96" x="-.48" id="a"><feGaussianBlur stdDeviation="4.571"/></filter></defs><path fill="#fff" stroke="#fff" stroke-width="4" stroke-linecap="round" d="M31.46 826.363V226h681.175v600.363z"/><path d="M370.717 299.424a7.993 7.993 0 1 1-7.993 7.993" fill="none" stroke="#333" stroke-width="3.4054272" stroke-linecap="round" stroke-linejoin="round"/><path d="M370.717 299.424V288.3" fill="none" stroke="#333" stroke-width="3.406" stroke-linecap="round"/><rect ry="0" y="258.905" x="228.599" height="29.494" width="288.556" fill="#4d4d4d" stroke="#333" stroke-width="1.558" stroke-linecap="round" stroke-linejoin="round"/><path style="marker:none" d="M655.717 667.006a452.2 452.2 0 0 1-567.339 1.05" color="#000" fill="none" stroke="gray" stroke-width="2.99998146" stroke-linecap="round" stroke-dasharray="2.62702282,7.88106845" overflow="visible" enable-background="accumulate"/><path d="M146.317 707.614h225.078" fill="none" stroke="green" stroke-width="3" stroke-linecap="round"/><path d="M174.788 707.53c0 15.805-12.812 28.617-28.617 28.617-15.804 0-28.616-12.812-28.616-28.616 0-15.805 12.812-28.617 28.616-28.617 15.805 0 28.617 12.812 28.617 28.617z" fill="#b3b3b3" stroke="#4d4d4d" stroke-width="1.5574226899999999" stroke-linecap="square"/><path d="M301.429 350.934c0 6.311-5.117 11.428-11.429 11.428s-11.429-5.117-11.429-11.428c0-6.312 5.117-11.429 11.429-11.429s11.429 5.117 11.429 11.429z" transform="matrix(.21773 0 0 .21773 71.52 620.234)" fill="#fff" filter="url(#a)"/><path d="M371.396 701.025V315.372" fill="none" stroke="navy" stroke-width="3" stroke-linecap="round" stroke-dasharray="2.99999996,8.99999981"/><path d="M371.557 454.496a139.123 139.123 0 0 1-69.942-18.766" style="marker:none" color="#000" fill="none" stroke="#333" stroke-width="3.0000922599999997" stroke-linecap="round" overflow="visible" enable-background="accumulate"/><path transform="matrix(.2421 0 0 .2421 69.847 597.504)" d="M779.838 468.494a395.98 395.98 0 0 1-13.493 102.487" style="marker:none" color="#000" fill="green" stroke="green" stroke-width="8.261" stroke-linecap="round" marker-start="url(#b)" overflow="visible" enable-background="accumulate"/><g ns0:text="$l$" transform="matrix(3.82749 0 0 3.82749 -623.52 4.55)" fill="navy" stroke="navy" stroke-width="1.68"><defs><symbol overflow="visible" id="c"><path d="M2.578-6.813s0-.109-.14-.109c-.22 0-.954.078-1.22.11-.077 0-.187.015-.187.203 0 .109.11.109.25.109.485 0 .5.094.5.172l-.031.203L.484-1.141a.973.973 0 0 0-.046.329.89.89 0 0 0 .906.921c.328 0 .578-.203.75-.562.172-.375.297-.953.297-.969 0-.11-.094-.11-.125-.11-.094 0-.11.048-.125.188-.172.64-.36 1.235-.766 1.235-.297 0-.297-.313-.297-.454 0-.25.016-.296.063-.484zm0 0" stroke="none"/></symbol></defs><use height="1052.362" width="744.094" xlink:href="#c" x="223.432" y="134.765"/></g><use height="1052.362" width="744.094" xlink:href="#textext-0e51608b-1" x="223.432" y="134.765" transform="matrix(4.97472 0 0 4.97472 -966.422 38.387)" ns0:text="$\\alpha$" ns0:preamble="/home/waldgeist/data/sphinx/inkscape-preamble.tex" opacity=".5" fill="#d40000" stroke="#d40000" stroke-width="1.293"/><use y="134.765" x="223.432" xlink:href="#textext-0e51608b-1" width="744.094" height="1052.362" transform="matrix(4.97472 0 0 4.97472 -919.955 87.884)" ns0:preamble="/home/waldgeist/data/sphinx/inkscape-preamble.tex" ns0:text="$\\alpha$" opacity=".5" fill="#d40000" stroke="#d40000" stroke-width="1.293"/><g ns0:text="$s$" ns0:preamble="/home/waldgeist/data/sphinx/inkscape-preamble.tex" transform="matrix(3.83282 0 0 3.83282 -593.065 180.68)" fill="green" stroke="#d40000" stroke-width="1.678"><defs><symbol overflow="visible" id="d"><path d="M3.89-3.734c-.265.015-.468.234-.468.453 0 .14.094.297.312.297.22 0 .454-.172.454-.563 0-.453-.422-.86-1.188-.86-1.313 0-1.688 1.016-1.688 1.454 0 .781.735.922 1.032.984.515.11 1.031.219 1.031.766 0 .25-.219 1.094-1.422 1.094-.14 0-.906 0-1.14-.532.39.047.64-.25.64-.53 0-.22-.172-.345-.375-.345-.266 0-.562.204-.562.657 0 .562.578.968 1.421.968 1.625 0 2.016-1.203 2.016-1.656a.97.97 0 0 0-.312-.719c-.266-.28-.563-.343-1-.421-.36-.079-.75-.157-.75-.61 0-.281.234-.89 1.109-.89.25 0 .75.078.89.453zm0 0" stroke="none"/></symbol></defs><use xlink:href="#d" x="223.432" y="134.765" width="744.094" height="1052.362"/></g><g transform="translate(-692.533 226.811) scale(4.20706)" ns0:preamble="/home/waldgeist/data/sphinx/inkscape-preamble.tex" ns0:text="$s^{*}$" fill="gray" stroke="#d40000" stroke-width="1.528"><defs><symbol id="e" overflow="visible"><path d="M3.89-3.734c-.265.015-.468.234-.468.453 0 .14.094.297.312.297.22 0 .454-.172.454-.563 0-.453-.422-.86-1.188-.86-1.313 0-1.688 1.016-1.688 1.454 0 .781.735.922 1.032.984.515.11 1.031.219 1.031.766 0 .25-.219 1.094-1.422 1.094-.14 0-.906 0-1.14-.532.39.047.64-.25.64-.53 0-.22-.172-.345-.375-.345-.266 0-.562.204-.562.657 0 .562.578.968 1.421.968 1.625 0 2.016-1.203 2.016-1.656a.97.97 0 0 0-.312-.719c-.266-.28-.563-.343-1-.421-.36-.079-.75-.157-.75-.61 0-.281.234-.89 1.109-.89.25 0 .75.078.89.453zm0 0" stroke="none"/></symbol><symbol id="f" overflow="visible"><path d="M2.25-1.734c.578-.25.828-.344 1-.438.14-.047.203-.078.203-.219a.223.223 0 0 0-.219-.218c-.046 0-.062 0-.14.062l-.953.64.109-1.03c.016-.126 0-.297-.219-.297-.078 0-.219.046-.219.203 0 .062.032.265.047.344.016.109.063.624.079.78l-.954-.64c-.062-.031-.078-.062-.14-.062-.14 0-.219.109-.219.218 0 .141.078.188.14.204l1.047.453c-.562.25-.828.343-1 .421-.125.063-.187.094-.187.22 0 .124.078.218.219.218.047 0 .062 0 .14-.063l.954-.625-.125 1.11c0 .156.14.219.218.219.094 0 .219-.063.219-.22 0-.062-.031-.265-.031-.327-.016-.125-.063-.625-.078-.781l.828.546c.187.141.203.141.265.141a.214.214 0 0 0 .22-.219c0-.14-.095-.172-.157-.203zm0 0" stroke="none"/></symbol></defs><use y="134.765" x="223.432" xlink:href="#e" width="744.094" height="1052.362"/><use y="131.149" x="228.102" xlink:href="#f" width="744.094" height="1052.362"/></g><g ns0:text="$\\varphi$" ns0:preamble="/home/waldgeist/data/sphinx/inkscape-preamble.tex" transform="matrix(5.13524 0 0 5.13524 -820.846 -271.236)" fill="#d40000" stroke="#d40000" stroke-width="1.252"><defs><symbol overflow="visible" id="g"><path d="M1.688 1.688c-.032.14-.047.156-.047.203 0 .218.187.28.296.28a.413.413 0 0 0 .36-.265c.031-.078.078-.406.36-1.812.077 0 .155.015.327.015 1.657 0 3.188-1.562 3.188-3.14 0-.781-.39-1.375-1.14-1.375-1.438 0-2.048 1.937-2.641 3.875C1.312-.734.75-1.281.75-2c0-.281.234-1.375.828-2.063.094-.093.094-.109.094-.14 0-.031-.031-.094-.125-.094C1.266-4.297.5-2.844.5-1.89c0 .938.656 1.657 1.719 1.907zM3.077-.47c-.094 0-.11 0-.187-.015-.125 0-.125 0-.125-.032 0-.015.171-.937.187-1.078.313-1.281 1.094-2.234 1.985-2.234.687 0 .953.531.953 1.015 0 1.126-1.282 2.344-2.813 2.344zm0 0" stroke="none"/></symbol></defs><use height="1052.362" width="744.094" xlink:href="#g" x="223.432" y="134.765" fill="#000"/></g><path d="M371.396 767.572l-225.08-59.958" fill="green" stroke="green" stroke-width="3" stroke-linecap="round"/><path d="M146.171 707.53l225.225-392.158" fill="none" stroke="navy" stroke-width="3" stroke-linecap="round"/><path d="M174.787 707.33a28.616 28.616 0 0 1-1.027 7.8l-27.589-7.6z" fill="#b3b3b3" stroke="#4d4d4d" stroke-width="1.5574226899999999" stroke-linecap="square"/><g transform="matrix(3.83282 0 0 3.83282 -471.87 233.068)" ns0:text="$h$" fill="green" stroke="#d40000" stroke-width="1.678"><defs><symbol id="h" overflow="visible"><path d="M2.86-6.813s0-.109-.126-.109c-.234 0-.953.078-1.218.11-.079 0-.188.015-.188.187 0 .125.094.125.234.125.485 0 .5.063.5.172l-.03.203L.593-.391C.547-.25.547-.234.547-.17c0 .234.203.28.297.28a.407.407 0 0 0 .36-.265l.187-.75.218-.89c.063-.235.125-.454.172-.673.016-.062.11-.39.11-.453.03-.094.343-.64.687-.922.219-.156.516-.344.953-.344.422 0 .531.344.531.704 0 .53-.375 1.625-.609 2.234-.078.219-.14.344-.14.547 0 .469.359.812.828.812.937 0 1.296-1.453 1.296-1.53 0-.11-.078-.11-.109-.11-.11 0-.11.031-.156.187-.14.532-.469 1.235-1.016 1.235-.172 0-.234-.094-.234-.329 0-.25.078-.484.172-.703.156-.437.61-1.625.61-2.203 0-.64-.391-1.062-1.141-1.062-.626 0-1.11.312-1.485.765zm0 0" stroke="none"/></symbol></defs><use y="134.765" x="223.432" xlink:href="#h" width="744.094" height="1052.362"/></g><g transform="matrix(2.74191 0 0 2.74191 -351.952 362.481)" ns0:preamble="/home/waldgeist/data/homepage/inkscape-preamble.tex" ns0:text="$\\nicefrac{\\varphi}{2}$" fill="green" stroke="#d40000" stroke-width="2.345"><defs><symbol id="i" overflow="visible"><path d="M2.203.063h.235c1.25 0 2.406-1.016 2.406-2.126 0-.609-.375-1.015-.907-1.015-.968 0-1.484 1.234-1.671 1.75-.094.266-.25.75-.282.875C1.22-.547.72-.906.72-1.422c0 0 .047-.781.61-1.406.046-.047.062-.063.062-.094C1.39-3 1.297-3 1.28-3c-.062 0-.093 0-.234.156-.39.469-.563 1.203-.563 1.5C.484-.719.938-.187 1.828 0c-.344 1.094-.39 1.219-.39 1.281 0 .188.171.219.234.219.078 0 .219-.047.281-.14.047-.11.11-.47.25-1.298zm.094-.47c.14-.812.187-1.124.531-1.577.313-.422.672-.61 1.031-.61.47 0 .735.313.735.672 0 .703-.875 1.516-2.078 1.516h-.22zm0 0" stroke="none"/></symbol><symbol id="j" overflow="visible"><path d="M4.375-7.094c.047-.14.047-.172.047-.187 0-.11-.078-.203-.188-.203-.078 0-.14.03-.171.093l-3.47 9.5c-.046.141-.046.172-.046.188 0 .11.094.203.203.203.125 0 .156-.078.219-.25zm0 0" stroke="none"/></symbol><symbol id="k" overflow="visible"><path d="M3.516-1.266H3.28c-.015.157-.094.563-.187.625-.047.047-.578.047-.688.047H1.125c.734-.64.984-.844 1.39-1.172.516-.406 1-.843 1-1.5 0-.843-.734-1.359-1.624-1.359-.86 0-1.454.61-1.454 1.25 0 .344.297.39.376.39.156 0 .359-.124.359-.374 0-.125-.047-.375-.406-.375.218-.485.687-.641 1.015-.641.703 0 1.063.547 1.063 1.11 0 .609-.438 1.078-.656 1.328L.516-.266C.437-.203.437-.187.437 0h2.876zm0 0" stroke="none"/></symbol></defs><use y="132.722" x="223.432" xlink:href="#i" width="744.094" height="1052.362"/><use y="134.765" x="227.565" xlink:href="#j" width="744.094" height="1052.362"/><use y="134.765" x="231.993" xlink:href="#k" width="744.094" height="1052.362"/></g><path d="M371.396 767.572V707.95" fill="green" stroke="green" stroke-width="3" stroke-linecap="round"/><g transform="matrix(3.90915 0 0 3.90915 -488.9 -7.891)" ns0:preamble="/home/waldgeist/data/homepage/inkscape-preamble.tex" ns0:text="$l\\!-\\!h$" fill="navy" stroke="navy" stroke-width="1.645"><defs><symbol id="l" overflow="visible"><path d="M2.578-6.813s0-.109-.14-.109c-.22 0-.954.078-1.22.11-.077 0-.187.015-.187.203 0 .109.11.109.25.109.485 0 .5.094.5.172l-.031.203L.484-1.141a.973.973 0 0 0-.046.329.89.89 0 0 0 .906.921c.328 0 .578-.203.75-.562.172-.375.297-.953.297-.969 0-.11-.094-.11-.125-.11-.094 0-.11.048-.125.188-.172.64-.36 1.235-.766 1.235-.297 0-.297-.313-.297-.454 0-.25.016-.296.063-.484zm0 0" stroke="none"/></symbol><symbol id="n" overflow="visible"><path d="M2.86-6.813s0-.109-.126-.109c-.234 0-.953.078-1.218.11-.079 0-.188.015-.188.187 0 .125.094.125.234.125.485 0 .5.063.5.172l-.03.203L.593-.391C.547-.25.547-.234.547-.17c0 .234.203.28.297.28a.407.407 0 0 0 .36-.265l.187-.75.218-.89c.063-.235.125-.454.172-.673.016-.062.11-.39.11-.453.03-.094.343-.64.687-.922.219-.156.516-.344.953-.344.422 0 .531.344.531.704 0 .53-.375 1.625-.609 2.234-.078.219-.14.344-.14.547 0 .469.359.812.828.812.937 0 1.296-1.453 1.296-1.53 0-.11-.078-.11-.109-.11-.11 0-.11.031-.156.187-.14.532-.469 1.235-1.016 1.235-.172 0-.234-.094-.234-.329 0-.25.078-.484.172-.703.156-.437.61-1.625.61-2.203 0-.64-.391-1.062-1.141-1.062-.626 0-1.11.312-1.485.765zm0 0" stroke="none"/></symbol><symbol id="m" overflow="visible"><path d="M6.563-2.297c.171 0 .359 0 .359-.203 0-.188-.188-.188-.36-.188h-5.39c-.172 0-.344 0-.344.188 0 .203.172.203.344.203zm0 0" stroke="none"/></symbol></defs><g stroke-width="1.645"><use y="134.765" x="223.432" xlink:href="#l" width="744.094" height="1052.362"/><use y="134.765" x="227.154" xlink:href="#m" width="744.094" height="1052.362"/><use y="134.765" x="235.456" xlink:href="#n" width="744.094" height="1052.362"/></g></g><path style="marker:none" d="M371.395 707.614l-225.224-.083 225.225-392.159z" opacity=".1" color="#000" fill="navy" stroke="navy" stroke-width="2" stroke-linecap="round" stroke-linejoin="round" overflow="visible" enable-background="accumulate"/><path style="marker:none" d="M371.396 707.95v59.622l-225.08-59.958z" opacity=".1" color="#000" fill="green" stroke="green" stroke-width="2" stroke-linecap="round" stroke-linejoin="round" overflow="visible" enable-background="accumulate"/></svg>