<svg xmlns:ns0="http://www.iki.fi/pav/software/textext/" xmlns="http://www.w3.org/2000/svg" xmlns:xlink="http://www.w3.org/1999/xlink" width="1052.362" height="744.094"><title>Das Federpendel</title><defs><linearGradient id="a"><stop offset="0" stop-color="#0e0e0e"/><stop offset="1" stop-color="#6a6a6a"/></linearGradient><filter color-interpolation-filters="sRGB" height="1.96" y="-.48" width="1.96" x="-.48" id="d"><feGaussianBlur stdDeviation="4.571"/></filter><marker orient="auto" id="b" overflow="visible"><path d="M2.308 0l-3.46 2v-4l3.46 2z" fill-rule="evenodd" stroke="#000" stroke-width=".4pt"/></marker><radialGradient xlink:href="#a" id="f" gradientUnits="userSpaceOnUse" gradientTransform="matrix(1 0 0 .35658 0 880.821)" cx="1856.591" cy="1368.978" fx="1856.591" fy="1368.978" r="246.82"/><radialGradient xlink:href="#a" id="g" gradientUnits="userSpaceOnUse" gradientTransform="matrix(1 0 0 .35658 0 880.821)" cx="1856.591" cy="1368.978" fx="1856.591" fy="1368.978" r="246.82"/><radialGradient xlink:href="#a" id="h" gradientUnits="userSpaceOnUse" gradientTransform="matrix(1 0 0 .35658 0 880.821)" cx="1856.591" cy="1368.978" fx="1856.591" fy="1368.978" r="246.82"/><radialGradient xlink:href="#a" id="i" gradientUnits="userSpaceOnUse" gradientTransform="matrix(1 0 0 .35658 0 880.821)" cx="1856.591" cy="1368.978" fx="1856.591" fy="1368.978" r="246.82"/><radialGradient xlink:href="#a" id="j" gradientUnits="userSpaceOnUse" gradientTransform="matrix(1 0 0 .35658 0 880.821)" cx="1856.591" cy="1368.978" fx="1856.591" fy="1368.978" r="246.82"/><radialGradient xlink:href="#a" id="k" gradientUnits="userSpaceOnUse" gradientTransform="matrix(1 0 0 .35658 0 880.821)" cx="1856.591" cy="1368.978" fx="1856.591" fy="1368.978" r="246.82"/><radialGradient xlink:href="#a" id="l" gradientUnits="userSpaceOnUse" gradientTransform="matrix(1 0 0 .35658 0 880.821)" cx="1856.591" cy="1368.978" fx="1856.591" fy="1368.978" r="246.82"/><radialGradient xlink:href="#a" id="m" gradientUnits="userSpaceOnUse" gradientTransform="matrix(1 0 0 .35658 0 880.821)" cx="1856.591" cy="1368.978" fx="1856.591" fy="1368.978" r="246.82"/><radialGradient xlink:href="#a" id="n" gradientUnits="userSpaceOnUse" gradientTransform="matrix(1 0 0 .35658 0 880.821)" cx="1856.591" cy="1368.978" fx="1856.591" fy="1368.978" r="246.82"/><radialGradient xlink:href="#a" id="o" gradientUnits="userSpaceOnUse" gradientTransform="matrix(1 0 0 .35658 0 880.821)" cx="1856.591" cy="1368.978" fx="1856.591" fy="1368.978" r="246.82"/><radialGradient xlink:href="#a" id="p" gradientUnits="userSpaceOnUse" gradientTransform="matrix(1 0 0 .35658 0 880.821)" cx="1856.591" cy="1368.978" fx="1856.591" fy="1368.978" r="246.82"/><radialGradient xlink:href="#a" id="q" gradientUnits="userSpaceOnUse" gradientTransform="matrix(1 0 0 .35658 0 880.821)" cx="1856.591" cy="1368.978" fx="1856.591" fy="1368.978" r="246.82"/><radialGradient xlink:href="#a" id="r" gradientUnits="userSpaceOnUse" gradientTransform="matrix(1 0 0 .35658 0 880.821)" cx="1856.591" cy="1368.978" fx="1856.591" fy="1368.978" r="246.82"/><radialGradient xlink:href="#a" id="s" gradientUnits="userSpaceOnUse" gradientTransform="matrix(1 0 0 .35658 0 880.821)" cx="1856.591" cy="1368.978" fx="1856.591" fy="1368.978" r="246.82"/><radialGradient xlink:href="#a" id="t" gradientUnits="userSpaceOnUse" gradientTransform="matrix(1 0 0 .35658 0 880.821)" cx="1856.591" cy="1368.978" fx="1856.591" fy="1368.978" r="246.82"/><radialGradient xlink:href="#a" id="u" gradientUnits="userSpaceOnUse" gradientTransform="matrix(1 0 0 .35658 0 880.821)" cx="1856.591" cy="1368.978" fx="1856.591" fy="1368.978" r="246.82"/><radialGradient xlink:href="#a" id="e" gradientUnits="userSpaceOnUse" gradientTransform="matrix(1 0 0 .35658 0 880.821)" cx="1856.591" cy="1368.978" fx="1856.591" fy="1368.978" r="246.82"/><radialGradient xlink:href="#a" id="w" gradientUnits="userSpaceOnUse" gradientTransform="matrix(1 0 0 .35658 0 880.821)" cx="1856.591" cy="1368.978" fx="1856.591" fy="1368.978" r="246.82"/><radialGradient xlink:href="#a" id="x" gradientUnits="userSpaceOnUse" gradientTransform="matrix(1 0 0 .35658 0 880.821)" cx="1856.591" cy="1368.978" fx="1856.591" fy="1368.978" r="246.82"/><radialGradient xlink:href="#a" id="y" gradientUnits="userSpaceOnUse" gradientTransform="matrix(1 0 0 .35658 0 880.821)" cx="1856.591" cy="1368.978" fx="1856.591" fy="1368.978" r="246.82"/><radialGradient xlink:href="#a" id="z" gradientUnits="userSpaceOnUse" gradientTransform="matrix(1 0 0 .35658 0 880.821)" cx="1856.591" cy="1368.978" fx="1856.591" fy="1368.978" r="246.82"/><radialGradient xlink:href="#a" id="A" gradientUnits="userSpaceOnUse" gradientTransform="matrix(1 0 0 .35658 0 880.821)" cx="1856.591" cy="1368.978" fx="1856.591" fy="1368.978" r="246.82"/><radialGradient xlink:href="#a" id="B" gradientUnits="userSpaceOnUse" gradientTransform="matrix(1 0 0 .35658 0 880.821)" cx="1856.591" cy="1368.978" fx="1856.591" fy="1368.978" r="246.82"/><radialGradient xlink:href="#a" id="C" gradientUnits="userSpaceOnUse" gradientTransform="matrix(1 0 0 .35658 0 880.821)" cx="1856.591" cy="1368.978" fx="1856.591" fy="1368.978" r="246.82"/><radialGradient xlink:href="#a" id="D" gradientUnits="userSpaceOnUse" gradientTransform="matrix(1 0 0 .35658 0 880.821)" cx="1856.591" cy="1368.978" fx="1856.591" fy="1368.978" r="246.82"/><radialGradient xlink:href="#a" id="E" gradientUnits="userSpaceOnUse" gradientTransform="matrix(1 0 0 .35658 0 880.821)" cx="1856.591" cy="1368.978" fx="1856.591" fy="1368.978" r="246.82"/><radialGradient xlink:href="#a" id="F" gradientUnits="userSpaceOnUse" gradientTransform="matrix(1 0 0 .35658 0 880.821)" cx="1856.591" cy="1368.978" fx="1856.591" fy="1368.978" r="246.82"/><radialGradient xlink:href="#a" id="G" gradientUnits="userSpaceOnUse" gradientTransform="matrix(1 0 0 .35658 0 880.821)" cx="1856.591" cy="1368.978" fx="1856.591" fy="1368.978" r="246.82"/><radialGradient xlink:href="#a" id="H" gradientUnits="userSpaceOnUse" gradientTransform="matrix(1 0 0 .35658 0 880.821)" cx="1856.591" cy="1368.978" fx="1856.591" fy="1368.978" r="246.82"/><radialGradient xlink:href="#a" id="I" gradientUnits="userSpaceOnUse" gradientTransform="matrix(1 0 0 .35658 0 880.821)" cx="1856.591" cy="1368.978" fx="1856.591" fy="1368.978" r="246.82"/><radialGradient xlink:href="#a" id="J" gradientUnits="userSpaceOnUse" gradientTransform="matrix(1 0 0 .35658 0 880.821)" cx="1856.591" cy="1368.978" fx="1856.591" fy="1368.978" r="246.82"/><radialGradient xlink:href="#a" id="K" gradientUnits="userSpaceOnUse" gradientTransform="matrix(1 0 0 .35658 0 880.821)" cx="1856.591" cy="1368.978" fx="1856.591" fy="1368.978" r="246.82"/><radialGradient xlink:href="#a" id="L" gradientUnits="userSpaceOnUse" gradientTransform="matrix(1 0 0 .35658 0 880.821)" cx="1856.591" cy="1368.978" fx="1856.591" fy="1368.978" r="246.82"/><radialGradient xlink:href="#a" id="v" gradientUnits="userSpaceOnUse" gradientTransform="matrix(1 0 0 .35658 0 880.821)" cx="1856.591" cy="1368.978" fx="1856.591" fy="1368.978" r="246.82"/><radialGradient xlink:href="#a" id="N" gradientUnits="userSpaceOnUse" gradientTransform="matrix(1 0 0 .35658 0 880.821)" cx="1856.591" cy="1368.978" fx="1856.591" fy="1368.978" r="246.82"/><radialGradient xlink:href="#a" id="O" gradientUnits="userSpaceOnUse" gradientTransform="matrix(1 0 0 .35658 0 880.821)" cx="1856.591" cy="1368.978" fx="1856.591" fy="1368.978" r="246.82"/><radialGradient xlink:href="#a" id="P" gradientUnits="userSpaceOnUse" gradientTransform="matrix(1 0 0 .35658 0 880.821)" cx="1856.591" cy="1368.978" fx="1856.591" fy="1368.978" r="246.82"/><radialGradient xlink:href="#a" id="Q" gradientUnits="userSpaceOnUse" gradientTransform="matrix(1 0 0 .35658 0 880.821)" cx="1856.591" cy="1368.978" fx="1856.591" fy="1368.978" r="246.82"/><radialGradient xlink:href="#a" id="R" gradientUnits="userSpaceOnUse" gradientTransform="matrix(1 0 0 .35658 0 880.821)" cx="1856.591" cy="1368.978" fx="1856.591" fy="1368.978" r="246.82"/><radialGradient xlink:href="#a" id="S" gradientUnits="userSpaceOnUse" gradientTransform="matrix(1 0 0 .35658 0 880.821)" cx="1856.591" cy="1368.978" fx="1856.591" fy="1368.978" r="246.82"/><radialGradient xlink:href="#a" id="T" gradientUnits="userSpaceOnUse" gradientTransform="matrix(1 0 0 .35658 0 880.821)" cx="1856.591" cy="1368.978" fx="1856.591" fy="1368.978" r="246.82"/><radialGradient xlink:href="#a" id="U" gradientUnits="userSpaceOnUse" gradientTransform="matrix(1 0 0 .35658 0 880.821)" cx="1856.591" cy="1368.978" fx="1856.591" fy="1368.978" r="246.82"/><radialGradient xlink:href="#a" id="V" gradientUnits="userSpaceOnUse" gradientTransform="matrix(1 0 0 .35658 0 880.821)" cx="1856.591" cy="1368.978" fx="1856.591" fy="1368.978" r="246.82"/><radialGradient xlink:href="#a" id="W" gradientUnits="userSpaceOnUse" gradientTransform="matrix(1 0 0 .35658 0 880.821)" cx="1856.591" cy="1368.978" fx="1856.591" fy="1368.978" r="246.82"/><radialGradient xlink:href="#a" id="X" gradientUnits="userSpaceOnUse" gradientTransform="matrix(1 0 0 .35658 0 880.821)" cx="1856.591" cy="1368.978" fx="1856.591" fy="1368.978" r="246.82"/><radialGradient xlink:href="#a" id="Y" gradientUnits="userSpaceOnUse" gradientTransform="matrix(1 0 0 .35658 0 880.821)" cx="1856.591" cy="1368.978" fx="1856.591" fy="1368.978" r="246.82"/><radialGradient xlink:href="#a" id="Z" gradientUnits="userSpaceOnUse" gradientTransform="matrix(1 0 0 .35658 0 880.821)" cx="1856.591" cy="1368.978" fx="1856.591" fy="1368.978" r="246.82"/><radialGradient xlink:href="#a" id="aa" gradientUnits="userSpaceOnUse" gradientTransform="matrix(1 0 0 .35658 0 880.821)" cx="1856.591" cy="1368.978" fx="1856.591" fy="1368.978" r="246.82"/><radialGradient xlink:href="#a" id="ab" gradientUnits="userSpaceOnUse" gradientTransform="matrix(1 0 0 .35658 0 880.821)" cx="1856.591" cy="1368.978" fx="1856.591" fy="1368.978" r="246.82"/><radialGradient xlink:href="#a" id="ac" gradientUnits="userSpaceOnUse" gradientTransform="matrix(1 0 0 .35658 0 880.821)" cx="1856.591" cy="1368.978" fx="1856.591" fy="1368.978" r="246.82"/><radialGradient xlink:href="#a" id="M" gradientUnits="userSpaceOnUse" gradientTransform="matrix(1 0 0 .35658 0 880.821)" cx="1856.591" cy="1368.978" fx="1856.591" fy="1368.978" r="246.82"/><radialGradient xlink:href="#a" id="ae" gradientUnits="userSpaceOnUse" gradientTransform="matrix(1 0 0 .35658 0 880.821)" cx="1856.591" cy="1368.978" fx="1856.591" fy="1368.978" r="246.82"/><radialGradient xlink:href="#a" id="af" gradientUnits="userSpaceOnUse" gradientTransform="matrix(1 0 0 .35658 0 880.821)" cx="1856.591" cy="1368.978" fx="1856.591" fy="1368.978" r="246.82"/><radialGradient xlink:href="#a" id="ag" gradientUnits="userSpaceOnUse" gradientTransform="matrix(1 0 0 .35658 0 880.821)" cx="1856.591" cy="1368.978" fx="1856.591" fy="1368.978" r="246.82"/><radialGradient xlink:href="#a" id="ah" gradientUnits="userSpaceOnUse" gradientTransform="matrix(1 0 0 .35658 0 880.821)" cx="1856.591" cy="1368.978" fx="1856.591" fy="1368.978" r="246.82"/><radialGradient xlink:href="#a" id="ai" gradientUnits="userSpaceOnUse" gradientTransform="matrix(1 0 0 .35658 0 880.821)" cx="1856.591" cy="1368.978" fx="1856.591" fy="1368.978" r="246.82"/><radialGradient xlink:href="#a" id="aj" gradientUnits="userSpaceOnUse" gradientTransform="matrix(1 0 0 .35658 0 880.821)" cx="1856.591" cy="1368.978" fx="1856.591" fy="1368.978" r="246.82"/><radialGradient xlink:href="#a" id="ak" gradientUnits="userSpaceOnUse" gradientTransform="matrix(1 0 0 .35658 0 880.821)" cx="1856.591" cy="1368.978" fx="1856.591" fy="1368.978" r="246.82"/><radialGradient xlink:href="#a" id="al" gradientUnits="userSpaceOnUse" gradientTransform="matrix(1 0 0 .35658 0 880.821)" cx="1856.591" cy="1368.978" fx="1856.591" fy="1368.978" r="246.82"/><radialGradient xlink:href="#a" id="am" gradientUnits="userSpaceOnUse" gradientTransform="matrix(1 0 0 .35658 0 880.821)" cx="1856.591" cy="1368.978" fx="1856.591" fy="1368.978" r="246.82"/><radialGradient xlink:href="#a" id="an" gradientUnits="userSpaceOnUse" gradientTransform="matrix(1 0 0 .35658 0 880.821)" cx="1856.591" cy="1368.978" fx="1856.591" fy="1368.978" r="246.82"/><radialGradient xlink:href="#a" id="ao" gradientUnits="userSpaceOnUse" gradientTransform="matrix(1 0 0 .35658 0 880.821)" cx="1856.591" cy="1368.978" fx="1856.591" fy="1368.978" r="246.82"/><radialGradient xlink:href="#a" id="ap" gradientUnits="userSpaceOnUse" gradientTransform="matrix(1 0 0 .35658 0 880.821)" cx="1856.591" cy="1368.978" fx="1856.591" fy="1368.978" r="246.82"/><radialGradient xlink:href="#a" id="aq" gradientUnits="userSpaceOnUse" gradientTransform="matrix(1 0 0 .35658 0 880.821)" cx="1856.591" cy="1368.978" fx="1856.591" fy="1368.978" r="246.82"/><radialGradient xlink:href="#a" id="ar" gradientUnits="userSpaceOnUse" gradientTransform="matrix(1 0 0 .35658 0 880.821)" cx="1856.591" cy="1368.978" fx="1856.591" fy="1368.978" r="246.82"/><radialGradient xlink:href="#a" id="as" gradientUnits="userSpaceOnUse" gradientTransform="matrix(1 0 0 .35658 0 880.821)" cx="1856.591" cy="1368.978" fx="1856.591" fy="1368.978" r="246.82"/><radialGradient xlink:href="#a" id="at" gradientUnits="userSpaceOnUse" gradientTransform="matrix(1 0 0 .35658 0 880.821)" cx="1856.591" cy="1368.978" fx="1856.591" fy="1368.978" r="246.82"/><radialGradient xlink:href="#a" id="ad" gradientUnits="userSpaceOnUse" gradientTransform="matrix(1 0 0 .35658 0 880.821)" cx="1856.591" cy="1368.978" fx="1856.591" fy="1368.978" r="246.82"/><radialGradient xlink:href="#a" id="av" gradientUnits="userSpaceOnUse" gradientTransform="matrix(1 0 0 .35658 0 880.821)" cx="1856.591" cy="1368.978" fx="1856.591" fy="1368.978" r="246.82"/><radialGradient xlink:href="#a" id="aw" gradientUnits="userSpaceOnUse" gradientTransform="matrix(1 0 0 .35658 0 880.821)" cx="1856.591" cy="1368.978" fx="1856.591" fy="1368.978" r="246.82"/><radialGradient xlink:href="#a" id="ax" gradientUnits="userSpaceOnUse" gradientTransform="matrix(1 0 0 .35658 0 880.821)" cx="1856.591" cy="1368.978" fx="1856.591" fy="1368.978" r="246.82"/><radialGradient xlink:href="#a" id="ay" gradientUnits="userSpaceOnUse" gradientTransform="matrix(1 0 0 .35658 0 880.821)" cx="1856.591" cy="1368.978" fx="1856.591" fy="1368.978" r="246.82"/><radialGradient xlink:href="#a" id="az" gradientUnits="userSpaceOnUse" gradientTransform="matrix(1 0 0 .35658 0 880.821)" cx="1856.591" cy="1368.978" fx="1856.591" fy="1368.978" r="246.82"/><radialGradient xlink:href="#a" id="aA" gradientUnits="userSpaceOnUse" gradientTransform="matrix(1 0 0 .35658 0 880.821)" cx="1856.591" cy="1368.978" fx="1856.591" fy="1368.978" r="246.82"/><radialGradient xlink:href="#a" id="aB" gradientUnits="userSpaceOnUse" gradientTransform="matrix(1 0 0 .35658 0 880.821)" cx="1856.591" cy="1368.978" fx="1856.591" fy="1368.978" r="246.82"/><radialGradient xlink:href="#a" id="aC" gradientUnits="userSpaceOnUse" gradientTransform="matrix(1 0 0 .35658 0 880.821)" cx="1856.591" cy="1368.978" fx="1856.591" fy="1368.978" r="246.82"/><radialGradient xlink:href="#a" id="aD" gradientUnits="userSpaceOnUse" gradientTransform="matrix(1 0 0 .35658 0 880.821)" cx="1856.591" cy="1368.978" fx="1856.591" fy="1368.978" r="246.82"/><radialGradient xlink:href="#a" id="aE" gradientUnits="userSpaceOnUse" gradientTransform="matrix(1 0 0 .35658 0 880.821)" cx="1856.591" cy="1368.978" fx="1856.591" fy="1368.978" r="246.82"/><radialGradient xlink:href="#a" id="aF" gradientUnits="userSpaceOnUse" gradientTransform="matrix(1 0 0 .35658 0 880.821)" cx="1856.591" cy="1368.978" fx="1856.591" fy="1368.978" r="246.82"/><radialGradient xlink:href="#a" id="aG" gradientUnits="userSpaceOnUse" gradientTransform="matrix(1 0 0 .35658 0 880.821)" cx="1856.591" cy="1368.978" fx="1856.591" fy="1368.978" r="246.82"/><radialGradient xlink:href="#a" id="aH" gradientUnits="userSpaceOnUse" gradientTransform="matrix(1 0 0 .35658 0 880.821)" cx="1856.591" cy="1368.978" fx="1856.591" fy="1368.978" r="246.82"/><radialGradient xlink:href="#a" id="aI" gradientUnits="userSpaceOnUse" gradientTransform="matrix(1 0 0 .35658 0 880.821)" cx="1856.591" cy="1368.978" fx="1856.591" fy="1368.978" r="246.82"/><radialGradient xlink:href="#a" id="aJ" gradientUnits="userSpaceOnUse" gradientTransform="matrix(1 0 0 .35658 0 880.821)" cx="1856.591" cy="1368.978" fx="1856.591" fy="1368.978" r="246.82"/><radialGradient xlink:href="#a" id="aK" gradientUnits="userSpaceOnUse" gradientTransform="matrix(1 0 0 .35658 0 880.821)" cx="1856.591" cy="1368.978" fx="1856.591" fy="1368.978" r="246.82"/><radialGradient xlink:href="#a" id="au" gradientUnits="userSpaceOnUse" gradientTransform="matrix(1 0 0 .35658 0 880.821)" cx="1856.591" cy="1368.978" fx="1856.591" fy="1368.978" r="246.82"/></defs><g transform="translate(0 -308.268)"><g ns0:text="$E _{\\mathrm{pot.}} = \\mathrm{max.}$" ns0:preamble="/home/waldgeist/data/sphinx/test.tex"><use height="744.094" width="1052.362" xlink:href="#textext-deb4a57a-0" x="223.432" y="134.765" transform="matrix(3.97502 0 0 3.97502 -770.492 356.283)"/><use height="744.094" width="1052.362" xlink:href="#textext-deb4a57a-2" x="230.786" y="136.259" transform="matrix(3.97502 0 0 3.97502 -770.492 356.283)"/><g transform="matrix(3.97502 0 0 3.97502 -770.492 356.283)"><use height="744.094" width="1052.362" xlink:href="#textext-deb4a57a-3" x="235.403" y="136.259"/><use height="744.094" width="1052.362" xlink:href="#textext-deb4a57a-4" x="239.374" y="136.259"/></g><use height="744.094" width="1052.362" xlink:href="#textext-deb4a57a-5" x="242.486" y="136.259" transform="matrix(3.97502 0 0 3.97502 -770.492 356.283)"/><use height="744.094" width="1052.362" xlink:href="#textext-deb4a57a-6" x="248.117" y="134.765" transform="matrix(3.97502 0 0 3.97502 -770.492 356.283)"/><g transform="matrix(3.97502 0 0 3.97502 -770.492 356.283)"><use height="744.094" width="1052.362" xlink:href="#textext-deb4a57a-7" x="258.635" y="134.765"/><use height="744.094" width="1052.362" xlink:href="#textext-deb4a57a-8" x="266.937" y="134.765"/><use height="744.094" width="1052.362" xlink:href="#textext-deb4a57a-9" x="271.919" y="134.765"/></g><use height="744.094" width="1052.362" xlink:href="#textext-deb4a57a-1" x="277.175" y="134.765" transform="matrix(3.97502 0 0 3.97502 -770.492 356.283)"/></g><g ns0:preamble="/home/waldgeist/data/sphinx/test.tex" ns0:text="\\begin{align*}\nE _{\\rm{pot}} &amp;= max. \\\\\nv &amp;= 0 \\\\\na &amp;= max.\n\\end{align*}\n"><use height="744.094" width="1052.362" y="134.765" x="367.633" xlink:href="#textext-2289d23f-0" transform="matrix(3.39125 0 0 3.39125 -521.8 349.011)"/><use height="744.094" width="1052.362" y="136.259" x="374.987" xlink:href="#textext-2289d23f-6" transform="matrix(3.39125 0 0 3.39125 -521.8 349.011)"/><g transform="matrix(3.39125 0 0 3.39125 -521.8 349.011)"><use height="744.094" width="1052.362" y="136.259" x="379.604" xlink:href="#textext-2289d23f-7"/><use height="744.094" width="1052.362" y="136.259" x="383.575" xlink:href="#textext-2289d23f-8"/></g><use height="744.094" width="1052.362" y="134.765" x="389.952" xlink:href="#textext-2289d23f-9" transform="matrix(3.39125 0 0 3.39125 -521.8 349.011)"/><g transform="matrix(3.39125 0 0 3.39125 -521.8 349.011)"><use height="744.094" width="1052.362" y="134.765" x="400.468" xlink:href="#textext-2289d23f-1"/><use height="744.094" width="1052.362" y="134.765" x="409.215" xlink:href="#textext-2289d23f-2"/><use height="744.094" width="1052.362" y="134.765" x="414.481" xlink:href="#textext-2289d23f-3"/><use height="744.094" width="1052.362" y="134.765" x="420.175" xlink:href="#textext-2289d23f-4"/></g><use height="744.094" width="1052.362" y="149.709" x="381.998" xlink:href="#textext-2289d23f-5" transform="matrix(3.39125 0 0 3.39125 -521.8 349.011)"/><use height="744.094" width="1052.362" y="149.709" x="389.952" xlink:href="#textext-2289d23f-9" transform="matrix(3.39125 0 0 3.39125 -521.8 349.011)"/><use height="744.094" width="1052.362" y="149.709" x="400.471" xlink:href="#textext-2289d23f-10" transform="matrix(3.39125 0 0 3.39125 -521.8 349.011)"/><use height="744.094" width="1052.362" y="164.653" x="381.918" xlink:href="#textext-2289d23f-2" transform="matrix(3.39125 0 0 3.39125 -521.8 349.011)"/><use height="744.094" width="1052.362" y="164.653" x="389.952" xlink:href="#textext-2289d23f-9" transform="matrix(3.39125 0 0 3.39125 -521.8 349.011)"/><g transform="matrix(3.39125 0 0 3.39125 -521.8 349.011)"><use height="744.094" width="1052.362" y="164.653" x="400.468" xlink:href="#textext-2289d23f-1"/><use height="744.094" width="1052.362" y="164.653" x="409.215" xlink:href="#textext-2289d23f-2"/><use height="744.094" width="1052.362" y="164.653" x="414.481" xlink:href="#textext-2289d23f-3"/><use height="744.094" width="1052.362" y="164.653" x="420.175" xlink:href="#textext-2289d23f-4"/></g></g><rect transform="scale(1 -1)" ry="8.708" y="-1034.351" x="12.879" height="708.072" width="1026.604" fill="#fff" stroke="#fff" stroke-width="6" stroke-linecap="round" stroke-linejoin="round" stroke-dasharray="6.00000009000000034,18.00000023000000127"/><path d="M964.406 827.086H131.383" fill="none" stroke="#b3b3b3" stroke-width="2" stroke-linecap="round" stroke-dasharray="5.99999996,5.99999996"/><path d="M964.406 956.86H133.552" fill="none" stroke="#b3b3b3" stroke-width="2" stroke-linecap="round" stroke-dasharray="6.00000001,6.00000001"/><path d="M131.034 891.976h872.108" fill="none" stroke="#000" stroke-width="3" marker-end="url(#b)"/><path d="M130.717 891.99c9.626 4.665 19.417 9.31 29.044 13.88 47.92 22.745 95.838 42.032 143.758 48.274 47.919 6.242 95.838-.892 143.757-17.79 47.92-16.897 95.839-42.867 143.758-64.939 47.92-22.072 95.839-39.268 143.758-43.047 47.92-3.78 95.838 6.08 143.758 24.612 28.724 11.108 57.449 25.056 86.173 39" fill="none" stroke="green" stroke-width="3" stroke-linecap="round"/><g transform="matrix(3.92761 0 0 3.92761 -779.612 126.464)" ns0:text="$y$" ns0:preamble="/home/waldgeist/data/sphinx/test.tex"><defs><symbol overflow="visible" id="c"><path d="M4.844-3.797c.047-.14.047-.156.047-.234 0-.172-.141-.266-.297-.266a.455.455 0 0 0-.344.203c-.016.063-.11.36-.14.547-.079.25-.141.531-.204.797L3.453-.953c-.031.14-.469.844-1.125.844-.5 0-.61-.438-.61-.813 0-.453.173-1.078.5-1.953.157-.406.204-.516.204-.719 0-.437-.313-.812-.813-.812-.953 0-1.312 1.453-1.312 1.531 0 .11.094.11.11.11.109 0 .109-.032.156-.188.28-.938.671-1.235 1.015-1.235.078 0 .25 0 .25.313 0 .25-.11.516-.172.703-.406 1.063-.578 1.625-.578 2.094 0 .89.625 1.187 1.219 1.187.39 0 .719-.171 1-.453-.125.516-.25 1.016-.64 1.547-.266.328-.641.625-1.095.625-.14 0-.593-.031-.765-.422.156 0 .297 0 .422-.125a.493.493 0 0 0 .203-.406c0-.313-.266-.344-.36-.344C.829.531.5.687.5 1.171c0 .5.438.876 1.063.876 1.015 0 2.046-.906 2.328-2.031zm0 0"/></symbol></defs><g transform="translate(.01 33.616)"><use height="1052.362" width="1488.189" xlink:href="#c" x="223.432" y="134.765"/><use y="134.765" x="223.432" xlink:href="#c" width="1488.189" height="1052.362"/></g></g><g transform="matrix(.96496 0 0 .96496 39.974 4.915)"><rect width="139.733" height="13.288" x="456.314" y="354.709" ry="5.369" fill="#333" stroke="#000" stroke-width="1.614" stroke-linecap="square" stroke-linejoin="round"/><g stroke="#333" stroke-width="4.859" fill="none" stroke-linecap="round"><path d="M526.181 374.593a8.808 8.808 0 1 1-8.807 8.808" stroke-linejoin="round" stroke-width="3.52952901"/><path d="M526.181 374.593v-12.257" stroke-width="3.52952901"/></g><g stroke="#333" stroke-width="4.859" fill="none" stroke-linecap="round"><path d="M526.181 650.03a8.808 8.808 0 1 0-8.807-8.807" stroke-linejoin="round" stroke-width="3.52952901"/><path d="M526.181 650.03v12.259" stroke-width="3.52952901"/></g><path d="M563.794 696.82c0 20.772-16.84 37.612-37.613 37.612s-37.613-16.84-37.613-37.612c0-20.773 16.84-37.613 37.613-37.613s37.613 16.84 37.613 37.613z" fill="#b3b3b3" stroke="#4d4d4d" stroke-width="1.6140552" stroke-linecap="square"/><path d="M301.429 350.934c0 6.311-5.117 11.428-11.429 11.428s-11.429-5.117-11.429-11.428c0-6.312 5.117-11.429 11.429-11.429s11.429 5.117 11.429 11.429z" transform="matrix(.28618 0 0 .28618 427.234 582.08)" fill="#fff" filter="url(#d)"/><path d="M526.236 390.763l-.002 32.904m-.108 185.628l.109 24.547" fill="#333" stroke="#000" stroke-width="3.228" stroke-linecap="round"/><g stroke="#1a1a1a" stroke-width="6.42" stroke-linecap="round" fill="none"><path d="M526.073 609.295c-17.812-.755-40.24-3.476-42.522-12.3M568.878 590.644c.204 13.318-81.625 10.745-85.464-4.096M568.878 580.198c.204 13.317-81.625 10.745-85.464-4.096M568.878 569.751c.204 13.318-81.625 10.746-85.464-4.095M568.878 559.305c.204 13.318-81.625 10.745-85.464-4.096M568.878 548.859c.204 13.317-81.625 10.745-85.464-4.096M568.878 507.073c.204 13.318-81.625 10.745-85.464-4.095M568.878 442.886c.204 13.318-81.625 10.746-85.464-4.095M568.878 475.734c.204 13.318-81.625 10.745-85.464-4.096M568.878 453.333c.204 13.317-81.625 10.745-85.464-4.096M568.878 496.627c.204 13.317-81.625 10.745-85.464-4.096M568.878 517.52c.204 13.317-81.625 10.745-85.464-4.096M568.878 486.18c.204 13.318-81.625 10.746-85.464-4.095M568.878 465.288c.204 13.317-81.625 10.745-85.464-4.096M568.878 527.966c.204 13.317-81.625 10.745-85.464-4.096M568.878 538.412c.204 13.318-81.625 10.746-85.464-4.095" stroke-width="3.2283611999999997"/></g><g transform="rotate(-90 658.803 821.028) scale(.50286)" stroke="url(#e)" stroke-width="6.42" stroke-linecap="round" fill="none"><path d="M2070.238 1284.092c22.416-1.383 28.66 46.496 30.076 84.888" stroke="url(#f)"/><path d="M1880.273 1284.208c31.832-5.784 41.55 177.749 12.63 169.408" stroke="url(#g)"/><path d="M1901.047 1284.208c31.832-5.784 41.55 177.749 12.63 169.408" stroke="url(#h)"/><path d="M1921.82 1284.208c31.833-5.784 41.55 177.749 12.63 169.408" stroke="url(#i)"/><path d="M1942.594 1284.208c31.833-5.784 41.55 177.749 12.63 169.408" stroke="url(#j)"/><path d="M1963.368 1284.208c31.833-5.784 41.55 177.749 12.63 169.408" stroke="url(#k)"/><path d="M1755.63 1284.208c31.832-5.784 41.55 177.749 12.629 169.408" stroke="url(#l)"/><path d="M1776.403 1284.208c31.832-5.784 41.55 177.749 12.63 169.408" stroke="url(#m)"/><path d="M1797.177 1284.208c31.832-5.784 41.55 177.749 12.63 169.408" stroke="url(#n)"/><path d="M1817.951 1284.208c31.832-5.784 41.55 177.749 12.63 169.408" stroke="url(#o)"/><path d="M1838.725 1284.208c31.832-5.784 41.55 177.749 12.63 169.408" stroke="url(#p)"/><path d="M1859.499 1284.208c31.832-5.784 41.55 177.749 12.63 169.408" stroke="url(#q)"/><path d="M1984.142 1284.208c31.832-5.784 41.55 177.749 12.63 169.408" stroke="url(#r)"/><path d="M2004.916 1284.208c31.832-5.784 41.55 177.749 12.63 169.408" stroke="url(#s)"/><path d="M2025.69 1284.208c31.832-5.784 41.55 177.749 12.63 169.408" stroke="url(#t)"/><path d="M2049.464 1284.208c31.832-5.784 41.55 177.749 12.63 169.408" stroke="url(#u)"/></g></g><g transform="matrix(.96496 0 0 .96496 13.17 4.915)"><rect ry="5.369" y="354.709" x="699.172" height="13.288" width="139.733" fill="#333" stroke="#000" stroke-width="1.614" stroke-linecap="square" stroke-linejoin="round"/><g stroke="#333" stroke-width="4.859" fill="none" stroke-linecap="round"><path d="M769.038 374.593a8.808 8.808 0 1 1-8.807 8.808" stroke-linejoin="round" stroke-width="3.52952901"/><path d="M769.038 374.593v-12.257" stroke-width="3.52952901"/></g><g stroke="#333" stroke-width="4.859" fill="none" stroke-linecap="round"><path d="M769.038 578.602a8.808 8.808 0 1 0-8.807-8.807" stroke-linejoin="round" stroke-width="3.52952901"/><path d="M769.038 578.602v12.258" stroke-width="3.52952901"/></g><path d="M806.65 625.39c0 20.774-16.839 37.614-37.612 37.614-20.773 0-37.612-16.84-37.612-37.613s16.84-37.613 37.612-37.613c20.773 0 37.613 16.84 37.613 37.613z" fill="#b3b3b3" stroke="#4d4d4d" stroke-width="1.6140552" stroke-linecap="square"/><path transform="matrix(.28618 0 0 .28618 670.09 510.65)" d="M301.429 350.934c0 6.311-5.117 11.428-11.429 11.428s-11.429-5.117-11.429-11.428c0-6.312 5.117-11.429 11.429-11.429s11.429 5.117 11.429 11.429z" fill="#fff" filter="url(#d)"/><g stroke-linecap="round"><path d="M769.093 390.763l-.002 32.904m-.107 185.628l.108 24.547" fill="#333" stroke="#000" stroke-width="3.228" transform="matrix(1 0 0 .71277 0 111.791)"/><g stroke="#1a1a1a" stroke-width="6.42" fill="none"><path d="M1731.168 1368.767c1.503-35.42 6.914-80.021 24.461-84.56M1768.259 1453.892c-26.484.405-21.369-162.323 8.144-169.956M1789.033 1453.892c-26.484.405-21.369-162.323 8.144-169.956M1809.807 1453.892c-26.484.405-21.369-162.323 8.144-169.956M1830.58 1453.892c-26.483.405-21.368-162.323 8.145-169.956M1851.354 1453.892c-26.483.405-21.368-162.323 8.145-169.956M1934.45 1453.892c-26.484.405-21.369-162.323 8.145-169.956M2062.093 1453.892c-26.483.405-21.368-162.323 8.145-169.956M1996.772 1453.892c-26.484.405-21.369-162.323 8.144-169.956M2041.32 1453.892c-26.484.405-21.37-162.323 8.144-169.956M1955.224 1453.892c-26.484.405-21.369-162.323 8.144-169.956M1913.676 1453.892c-26.484.405-21.369-162.323 8.145-169.956M1975.998 1453.892c-26.484.405-21.369-162.323 8.144-169.956M2017.546 1453.892c-26.484.405-21.369-162.323 8.144-169.956M1892.902 1453.892c-26.484.405-21.368-162.323 8.145-169.956M1872.128 1453.892c-26.483.405-21.368-162.323 8.145-169.956" transform="matrix(0 -.35842 .50286 0 80.631 1166.57)"/></g><g transform="matrix(0 -.35842 .50286 0 80.631 1166.57)" stroke="url(#v)" stroke-width="6.42" fill="none"><path d="M2070.238 1284.092c22.416-1.383 28.66 46.496 30.076 84.888" stroke="url(#w)"/><path d="M1880.273 1284.208c31.832-5.784 41.55 177.749 12.63 169.408" stroke="url(#x)"/><path d="M1901.047 1284.208c31.832-5.784 41.55 177.749 12.63 169.408" stroke="url(#y)"/><path d="M1921.82 1284.208c31.833-5.784 41.55 177.749 12.63 169.408" stroke="url(#z)"/><path d="M1942.594 1284.208c31.833-5.784 41.55 177.749 12.63 169.408" stroke="url(#A)"/><path d="M1963.368 1284.208c31.833-5.784 41.55 177.749 12.63 169.408" stroke="url(#B)"/><path d="M1755.63 1284.208c31.832-5.784 41.55 177.749 12.629 169.408" stroke="url(#C)"/><path d="M1776.403 1284.208c31.832-5.784 41.55 177.749 12.63 169.408" stroke="url(#D)"/><path d="M1797.177 1284.208c31.832-5.784 41.55 177.749 12.63 169.408" stroke="url(#E)"/><path d="M1817.951 1284.208c31.832-5.784 41.55 177.749 12.63 169.408" stroke="url(#F)"/><path d="M1838.725 1284.208c31.832-5.784 41.55 177.749 12.63 169.408" stroke="url(#G)"/><path d="M1859.499 1284.208c31.832-5.784 41.55 177.749 12.63 169.408" stroke="url(#H)"/><path d="M1984.142 1284.208c31.832-5.784 41.55 177.749 12.63 169.408" stroke="url(#I)"/><path d="M2004.916 1284.208c31.832-5.784 41.55 177.749 12.63 169.408" stroke="url(#J)"/><path d="M2025.69 1284.208c31.832-5.784 41.55 177.749 12.63 169.408" stroke="url(#K)"/><path d="M2049.464 1284.208c31.832-5.784 41.55 177.749 12.63 169.408" stroke="url(#L)"/></g></g></g><g transform="matrix(.96496 0 0 .96496 29.716 6.996)"><rect ry="5.369" y="354.709" x="898.761" height="13.288" width="139.733" fill="#333" stroke="#000" stroke-width="1.614" stroke-linecap="square" stroke-linejoin="round"/><g stroke="#333" stroke-width="4.859" fill="none" stroke-linecap="round"><path d="M968.628 374.593a8.808 8.808 0 1 1-8.808 8.808" stroke-linejoin="round" stroke-width="3.52952901"/><path d="M968.628 374.593v-12.257" stroke-width="3.52952901"/></g><g stroke="#333" stroke-width="4.859" fill="none" stroke-linecap="round"><path d="M967.8 650.03a8.808 8.808 0 1 0-8.807-8.807" stroke-linejoin="round" stroke-width="3.52952901"/><path d="M967.8 650.03v12.259" stroke-width="3.52952901"/></g><path d="M1005.413 696.82c0 20.772-16.84 37.612-37.613 37.612s-37.612-16.84-37.612-37.612c0-20.773 16.84-37.613 37.612-37.613 20.773 0 37.613 16.84 37.613 37.613z" fill="#b3b3b3" stroke="#4d4d4d" stroke-width="1.6140552" stroke-linecap="square"/><path transform="matrix(.28618 0 0 .28618 869.68 582.08)" d="M301.429 350.934c0 6.311-5.117 11.428-11.429 11.428s-11.429-5.117-11.429-11.428c0-6.312 5.117-11.429 11.429-11.429s11.429 5.117 11.429 11.429z" fill="#fff" filter="url(#d)"/><path d="M968.628 390.763l-.002 32.904m-.107 185.628l.108 24.547" fill="#333" stroke="#000" stroke-width="3.228" stroke-linecap="round"/><g stroke="#1a1a1a" stroke-width="6.42" stroke-linecap="round" fill="none"><path d="M968.52 609.295c-17.812-.755-40.24-3.476-42.522-12.3M1011.325 590.644c.204 13.318-81.626 10.745-85.464-4.096M1011.325 580.198c.204 13.317-81.626 10.745-85.464-4.096M1011.325 569.751c.204 13.318-81.626 10.746-85.464-4.095M1011.325 559.305c.204 13.318-81.626 10.745-85.464-4.096M1011.325 548.859c.204 13.317-81.626 10.745-85.464-4.096M1011.325 507.073c.204 13.318-81.626 10.745-85.464-4.095M1011.325 442.886c.204 13.318-81.626 10.746-85.464-4.095M1011.325 475.734c.204 13.318-81.626 10.745-85.464-4.096M1011.325 453.333c.204 13.317-81.626 10.745-85.464-4.096M1011.325 496.627c.204 13.317-81.626 10.745-85.464-4.096M1011.325 517.52c.204 13.317-81.626 10.745-85.464-4.096M1011.325 486.18c.204 13.318-81.626 10.746-85.464-4.095M1011.325 465.288c.204 13.317-81.626 10.745-85.464-4.096M1011.325 527.966c.204 13.317-81.626 10.745-85.464-4.096M1011.325 538.412c.204 13.318-81.626 10.746-85.464-4.095" stroke-width="3.2283611999999997"/></g><g transform="rotate(-90 880.026 599.805) scale(.50286)" stroke="url(#M)" stroke-width="6.42" stroke-linecap="round" fill="none"><path d="M2070.238 1284.092c22.416-1.383 28.66 46.496 30.076 84.888" stroke="url(#N)"/><path d="M1880.273 1284.208c31.832-5.784 41.55 177.749 12.63 169.408" stroke="url(#O)"/><path d="M1901.047 1284.208c31.832-5.784 41.55 177.749 12.63 169.408" stroke="url(#P)"/><path d="M1921.82 1284.208c31.833-5.784 41.55 177.749 12.63 169.408" stroke="url(#Q)"/><path d="M1942.594 1284.208c31.833-5.784 41.55 177.749 12.63 169.408" stroke="url(#R)"/><path d="M1963.368 1284.208c31.833-5.784 41.55 177.749 12.63 169.408" stroke="url(#S)"/><path d="M1755.63 1284.208c31.832-5.784 41.55 177.749 12.629 169.408" stroke="url(#T)"/><path d="M1776.403 1284.208c31.832-5.784 41.55 177.749 12.63 169.408" stroke="url(#U)"/><path d="M1797.177 1284.208c31.832-5.784 41.55 177.749 12.63 169.408" stroke="url(#V)"/><path d="M1817.951 1284.208c31.832-5.784 41.55 177.749 12.63 169.408" stroke="url(#W)"/><path d="M1838.725 1284.208c31.832-5.784 41.55 177.749 12.63 169.408" stroke="url(#X)"/><path d="M1859.499 1284.208c31.832-5.784 41.55 177.749 12.63 169.408" stroke="url(#Y)"/><path d="M1984.142 1284.208c31.832-5.784 41.55 177.749 12.63 169.408" stroke="url(#Z)"/><path d="M2004.916 1284.208c31.832-5.784 41.55 177.749 12.63 169.408" stroke="url(#aa)"/><path d="M2025.69 1284.208c31.832-5.784 41.55 177.749 12.63 169.408" stroke="url(#ab)"/><path d="M2049.464 1284.208c31.832-5.784 41.55 177.749 12.63 169.408" stroke="url(#ac)"/></g></g><g transform="matrix(.96496 0 0 .96496 26.84 4.943)"><rect width="139.733" height="13.288" x="38.111" y="354.709" ry="5.369" fill="#333" stroke="#000" stroke-width="1.614" stroke-linecap="square" stroke-linejoin="round"/><g stroke="#333" stroke-width="4.859" fill="none" stroke-linecap="round"><path d="M107.978 374.593a8.808 8.808 0 1 1-8.808 8.808" stroke-linejoin="round" stroke-width="3.52952901"/><path d="M107.978 374.593v-12.257" stroke-width="3.52952901"/></g><g stroke="#333" stroke-width="4.859" fill="none" stroke-linecap="round"><path d="M107.978 650.03a8.808 8.808 0 1 0-8.808-8.807" stroke-linejoin="round" stroke-width="3.52952901"/><path d="M107.978 650.03v12.259" stroke-width="3.52952901"/></g><path d="M145.59 696.82c0 20.772-16.84 37.612-37.612 37.612-20.773 0-37.613-16.84-37.613-37.612 0-20.773 16.84-37.613 37.613-37.613s37.613 16.84 37.613 37.613z" fill="#b3b3b3" stroke="#4d4d4d" stroke-width="1.6140552" stroke-linecap="square"/><path d="M301.429 350.934c0 6.311-5.117 11.428-11.429 11.428s-11.429-5.117-11.429-11.428c0-6.312 5.117-11.429 11.429-11.429s11.429 5.117 11.429 11.429z" transform="matrix(.28618 0 0 .28618 9.03 582.08)" fill="#fff" filter="url(#d)"/><path d="M108.033 390.763l-.002 32.904m-.108 185.628l.109 24.547" fill="#333" stroke="#000" stroke-width="3.228" stroke-linecap="round"/><g stroke="#1a1a1a" stroke-width="6.42" stroke-linecap="round" fill="none"><path d="M107.87 609.295c-17.812-.755-40.24-3.476-42.522-12.3M150.675 590.644c.204 13.318-81.626 10.745-85.464-4.096M150.675 580.198c.204 13.317-81.626 10.745-85.464-4.096M150.675 569.751c.204 13.318-81.626 10.746-85.464-4.095M150.675 559.305c.204 13.318-81.626 10.745-85.464-4.096M150.675 548.859c.204 13.317-81.626 10.745-85.464-4.096M150.675 507.073c.204 13.318-81.626 10.745-85.464-4.095M150.675 442.886c.204 13.318-81.626 10.746-85.464-4.095M150.675 475.734c.204 13.318-81.626 10.745-85.464-4.096M150.675 453.333c.204 13.317-81.626 10.745-85.464-4.096M150.675 496.627c.204 13.317-81.626 10.745-85.464-4.096M150.675 517.52c.204 13.317-81.626 10.745-85.464-4.096M150.675 486.18c.204 13.318-81.626 10.746-85.464-4.095M150.675 465.288c.204 13.317-81.626 10.745-85.464-4.096M150.675 527.966c.204 13.317-81.626 10.745-85.464-4.096M150.675 538.412c.204 13.318-81.626 10.746-85.464-4.095" stroke-width="3.2283611999999997"/></g><g transform="rotate(-90 449.701 1030.13) scale(.50286)" stroke="url(#ad)" stroke-width="6.42" stroke-linecap="round" fill="none"><path d="M2070.238 1284.092c22.416-1.383 28.66 46.496 30.076 84.888" stroke="url(#ae)"/><path d="M1880.273 1284.208c31.832-5.784 41.55 177.749 12.63 169.408" stroke="url(#af)"/><path d="M1901.047 1284.208c31.832-5.784 41.55 177.749 12.63 169.408" stroke="url(#ag)"/><path d="M1921.82 1284.208c31.833-5.784 41.55 177.749 12.63 169.408" stroke="url(#ah)"/><path d="M1942.594 1284.208c31.833-5.784 41.55 177.749 12.63 169.408" stroke="url(#ai)"/><path d="M1963.368 1284.208c31.833-5.784 41.55 177.749 12.63 169.408" stroke="url(#aj)"/><path d="M1755.63 1284.208c31.832-5.784 41.55 177.749 12.629 169.408" stroke="url(#ak)"/><path d="M1776.403 1284.208c31.832-5.784 41.55 177.749 12.63 169.408" stroke="url(#al)"/><path d="M1797.177 1284.208c31.832-5.784 41.55 177.749 12.63 169.408" stroke="url(#am)"/><path d="M1817.951 1284.208c31.832-5.784 41.55 177.749 12.63 169.408" stroke="url(#an)"/><path d="M1838.725 1284.208c31.832-5.784 41.55 177.749 12.63 169.408" stroke="url(#ao)"/><path d="M1859.499 1284.208c31.832-5.784 41.55 177.749 12.63 169.408" stroke="url(#ap)"/><path d="M1984.142 1284.208c31.832-5.784 41.55 177.749 12.63 169.408" stroke="url(#aq)"/><path d="M2004.916 1284.208c31.832-5.784 41.55 177.749 12.63 169.408" stroke="url(#ar)"/><path d="M2025.69 1284.208c31.832-5.784 41.55 177.749 12.63 169.408" stroke="url(#as)"/><path d="M2049.464 1284.208c31.832-5.784 41.55 177.749 12.63 169.408" stroke="url(#at)"/></g></g><g transform="matrix(.96496 0 0 .96496 41.176 9.078)"><rect ry="5.369" y="354.709" x="239.162" height="13.288" width="139.733" fill="#333" stroke="#000" stroke-width="1.614" stroke-linecap="square" stroke-linejoin="round"/><g stroke="#333" stroke-width="4.859" fill="none" stroke-linecap="round"><path d="M309.028 374.593a8.808 8.808 0 1 1-8.807 8.808" stroke-linejoin="round" stroke-width="3.52952901"/><path d="M309.028 374.593v-12.257" stroke-width="3.52952901"/></g><g stroke="#333" stroke-width="4.859" fill="none" stroke-linecap="round"><path d="M309.028 712.03a8.808 8.808 0 1 0-8.807-8.807" stroke-linejoin="round" stroke-width="3.52952901"/><path d="M309.028 712.03v12.259" stroke-width="3.52952901"/></g><path d="M346.64 758.82c0 20.772-16.839 37.612-37.612 37.612-20.773 0-37.612-16.84-37.612-37.612 0-20.773 16.84-37.613 37.612-37.613 20.773 0 37.613 16.84 37.613 37.613z" fill="#b3b3b3" stroke="#4d4d4d" stroke-width="1.6140552" stroke-linecap="square"/><path transform="matrix(.28618 0 0 .28618 210.08 644.08)" d="M301.429 350.934c0 6.311-5.117 11.428-11.429 11.428s-11.429-5.117-11.429-11.428c0-6.312 5.117-11.429 11.429-11.429s11.429 5.117 11.429 11.429z" fill="#fff" filter="url(#d)"/><path d="M309.083 390.763l-.002 41.103m-.107 231.887l.108 30.663" fill="#333" stroke="#000" stroke-width="3.608" stroke-linecap="round"/><g stroke="#1a1a1a" stroke-width="6.42" stroke-linecap="round" fill="none"><path d="M1731.168 1368.767c1.503-35.42 6.914-80.021 24.461-84.56M1768.259 1453.892c-26.484.405-21.369-162.323 8.144-169.956M1789.033 1453.892c-26.484.405-21.369-162.323 8.144-169.956M1809.807 1453.892c-26.484.405-21.369-162.323 8.144-169.956M1830.58 1453.892c-26.483.405-21.368-162.323 8.145-169.956M1851.354 1453.892c-26.483.405-21.368-162.323 8.145-169.956M1934.45 1453.892c-26.484.405-21.369-162.323 8.145-169.956M2062.093 1453.892c-26.483.405-21.368-162.323 8.145-169.956M1996.772 1453.892c-26.484.405-21.369-162.323 8.144-169.956M2041.32 1453.892c-26.484.405-21.37-162.323 8.144-169.956M1955.224 1453.892c-26.484.405-21.369-162.323 8.144-169.956M1913.676 1453.892c-26.484.405-21.369-162.323 8.145-169.956M1975.998 1453.892c-26.484.405-21.369-162.323 8.144-169.956M2017.546 1453.892c-26.484.405-21.369-162.323 8.144-169.956M1892.902 1453.892c-26.484.405-21.368-162.323 8.145-169.956M1872.128 1453.892c-26.483.405-21.368-162.323 8.145-169.956" transform="matrix(0 -.62817 .50286 0 -379.379 1751.223)"/></g><g transform="matrix(0 -.62817 .50286 0 -379.379 1751.223)" stroke="url(#au)" stroke-width="6.42" stroke-linecap="round" fill="none"><path d="M2070.238 1284.092c22.416-1.383 28.66 46.496 30.076 84.888" stroke="url(#av)"/><path d="M1880.273 1284.208c31.832-5.784 41.55 177.749 12.63 169.408" stroke="url(#aw)"/><path d="M1901.047 1284.208c31.832-5.784 41.55 177.749 12.63 169.408" stroke="url(#ax)"/><path d="M1921.82 1284.208c31.833-5.784 41.55 177.749 12.63 169.408" stroke="url(#ay)"/><path d="M1942.594 1284.208c31.833-5.784 41.55 177.749 12.63 169.408" stroke="url(#az)"/><path d="M1963.368 1284.208c31.833-5.784 41.55 177.749 12.63 169.408" stroke="url(#aA)"/><path d="M1755.63 1284.208c31.832-5.784 41.55 177.749 12.629 169.408" stroke="url(#aB)"/><path d="M1776.403 1284.208c31.832-5.784 41.55 177.749 12.63 169.408" stroke="url(#aC)"/><path d="M1797.177 1284.208c31.832-5.784 41.55 177.749 12.63 169.408" stroke="url(#aD)"/><path d="M1817.951 1284.208c31.832-5.784 41.55 177.749 12.63 169.408" stroke="url(#aE)"/><path d="M1838.725 1284.208c31.832-5.784 41.55 177.749 12.63 169.408" stroke="url(#aF)"/><path d="M1859.499 1284.208c31.832-5.784 41.55 177.749 12.63 169.408" stroke="url(#aG)"/><path d="M1984.142 1284.208c31.832-5.784 41.55 177.749 12.63 169.408" stroke="url(#aH)"/><path d="M2004.916 1284.208c31.832-5.784 41.55 177.749 12.63 169.408" stroke="url(#aI)"/><path d="M2025.69 1284.208c31.832-5.784 41.55 177.749 12.63 169.408" stroke="url(#aJ)"/><path d="M2049.464 1284.208c31.832-5.784 41.55 177.749 12.63 169.408" stroke="url(#aK)"/></g></g><g transform="matrix(3.92761 0 0 3.92761 102.124 405.043)" ns0:preamble="/home/waldgeist/data/sphinx/test.tex" ns0:text="$t$"><defs><symbol id="aL" overflow="visible"><path d="M2.047-3.984h.937c.204 0 .313 0 .313-.204 0-.109-.11-.109-.281-.109H2.14c.359-1.422.406-1.61.406-1.672 0-.172-.125-.265-.297-.265-.031 0-.313 0-.39.359l-.391 1.578H.53c-.203 0-.297 0-.297.188 0 .125.078.125.282.125h.875C.67-1.156.625-.984.625-.813c0 .547.375.922.922.922 1.016 0 1.578-1.453 1.578-1.53 0-.11-.078-.11-.11-.11-.093 0-.109.031-.156.14C2.438-.344 1.906-.109 1.563-.109c-.204 0-.313-.125-.313-.454 0-.25.031-.312.063-.484zm0 0"/></symbol></defs><use y="134.765" x="223.432" xlink:href="#aL" width="1052.362" height="744.094" transform="translate(4.563)"/></g><path d="M131.034 1012.712V777.898" stroke="#000" stroke-width="3" marker-end="url(#b)" fill="none"/><path d="M130.717 677.337c9.626 4.666 19.417 9.31 29.044 13.88 47.92 22.745 95.838 42.033 143.758 48.275 47.919 6.242 95.838-.892 143.757-17.79 47.92-16.897 95.839-42.867 143.758-64.94 47.92-22.071 95.839-39.267 143.758-43.047 47.92-3.78 95.838 6.081 143.758 24.612 28.724 11.108 57.449 25.056 86.173 39.001" opacity=".3" fill="none" stroke="green" stroke-width="3" stroke-linecap="round"/><g ns0:text="$y _{\\rm{max}}$" ns0:preamble="/home/waldgeist/data/sphinx/test.tex" transform="matrix(3.92761 0 0 3.92761 -830.618 302.414)"><defs><symbol overflow="visible" id="aM"><path d="M4.844-3.797c.047-.14.047-.156.047-.234 0-.172-.141-.266-.297-.266a.455.455 0 0 0-.344.203c-.016.063-.11.36-.14.547-.079.25-.141.531-.204.797L3.453-.953c-.031.14-.469.844-1.125.844-.5 0-.61-.438-.61-.813 0-.453.173-1.078.5-1.953.157-.406.204-.516.204-.719 0-.437-.313-.812-.813-.812-.953 0-1.312 1.453-1.312 1.531 0 .11.094.11.11.11.109 0 .109-.032.156-.188.28-.938.671-1.235 1.015-1.235.078 0 .25 0 .25.313 0 .25-.11.516-.172.703-.406 1.063-.578 1.625-.578 2.094 0 .89.625 1.187 1.219 1.187.39 0 .719-.171 1-.453-.125.516-.25 1.016-.64 1.547-.266.328-.641.625-1.095.625-.14 0-.593-.031-.765-.422.156 0 .297 0 .422-.125a.493.493 0 0 0 .203-.406c0-.313-.266-.344-.36-.344C.829.531.5.687.5 1.171c0 .5.438.876 1.063.876 1.015 0 2.046-.906 2.328-2.031zm0 0"/></symbol><symbol overflow="visible" id="aN"><path d="M5.734-2.11c0-.609-.312-.968-1.046-.968-.563 0-.938.297-1.125.656-.141-.5-.516-.656-1.016-.656-.578 0-.938.312-1.14.687v-.687L.374-3v.25c.469 0 .531.047.531.39v1.813c0 .297-.078.297-.531.297V0c.016 0 .5-.031.797-.031.25 0 .734.031.797.031v-.25c-.453 0-.516 0-.516-.297v-1.265c0-.72.578-1.063 1.031-1.063.485 0 .547.375.547.734v1.594c0 .297-.062.297-.515.297V0c.015 0 .5-.031.796-.031.25 0 .735.031.797.031v-.25c-.453 0-.515 0-.515-.297v-1.265c0-.72.578-1.063 1.031-1.063.484 0 .547.375.547.734v1.594c0 .297-.063.297-.516.297V0c.016 0 .5-.031.797-.031.25 0 .734.031.797.031v-.25c-.453 0-.516 0-.516-.297zm0 0"/></symbol><symbol overflow="visible" id="aO"><path d="M3.11-1.875c0-.36 0-.625-.329-.89C2.5-3 2.171-3.11 1.75-3.11c-.656 0-1.125.25-1.125.671 0 .235.156.344.344.344a.32.32 0 0 0 .328-.328.319.319 0 0 0-.25-.312c.25-.172.656-.172.687-.172.391 0 .829.25.829.844v.203c-.391.015-.844.046-1.36.234-.625.219-.812.61-.812.922 0 .594.718.765 1.218.765.547 0 .875-.312 1.032-.578.015.282.203.547.53.547.017 0 .688 0 .688-.656v-.39h-.234v.374c0 .079 0 .407-.266.407-.25 0-.25-.329-.25-.407zm-.547.89c0 .672-.594.86-.907.86-.36 0-.687-.234-.687-.578 0-.39.328-.922 1.594-.969zm0 0"/></symbol><symbol overflow="visible" id="aP"><path d="M2.36-1.563l-.047-.062c0-.031.453-.516.515-.578.25-.281.485-.547 1.047-.547V-3c-.203.016-.406.031-.594.031-.203 0-.484-.015-.687-.031v.25c.11.016.14.094.14.156 0 .016 0 .125-.109.235l-.484.546-.579-.656c-.078-.078-.078-.11-.078-.14 0-.094.094-.141.188-.141V-3c-.25.016-.516.031-.781.031-.204 0-.47-.015-.672-.031v.25c.312 0 .5 0 .687.203l.86 1c.015.016.062.063.062.078 0 .016-.531.594-.594.672-.265.281-.5.531-1.046.547V0C.39-.016.546-.031.765-.031c.203 0 .484.015.687.031v-.25c-.078-.016-.14-.063-.14-.156 0-.14.078-.235.187-.344l.5-.547.594.703c.14.14.14.156.14.203 0 .125-.156.141-.187.141V0c.062 0 .562-.031.781-.031.219 0 .453.015.672.031v-.25c-.469 0-.516-.047-.688-.219zm0 0"/></symbol></defs><use height="744.094" width="1052.362" xlink:href="#aM" x="223.432" y="134.765"/><use height="744.094" width="1052.362" xlink:href="#aN" x="228.317" y="136.259"/><use height="744.094" width="1052.362" xlink:href="#aO" x="234.862" y="136.259"/><use height="744.094" width="1052.362" xlink:href="#aP" x="238.833" y="136.259"/></g><g transform="matrix(3.92761 0 0 3.92761 -861.049 432.188)" ns0:preamble="/home/waldgeist/data/sphinx/test.tex" ns0:text="$-y _{\\rm{max}}$"><defs><symbol id="aQ" overflow="visible"><path d="M6.563-2.297c.171 0 .359 0 .359-.203 0-.188-.188-.188-.36-.188h-5.39c-.172 0-.344 0-.344.188 0 .203.172.203.344.203zm0 0"/></symbol><symbol id="aR" overflow="visible"><path d="M4.844-3.797c.047-.14.047-.156.047-.234 0-.172-.141-.266-.297-.266a.455.455 0 0 0-.344.203c-.016.063-.11.36-.14.547-.079.25-.141.531-.204.797L3.453-.953c-.031.14-.469.844-1.125.844-.5 0-.61-.438-.61-.813 0-.453.173-1.078.5-1.953.157-.406.204-.516.204-.719 0-.437-.313-.812-.813-.812-.953 0-1.312 1.453-1.312 1.531 0 .11.094.11.11.11.109 0 .109-.032.156-.188.28-.938.671-1.235 1.015-1.235.078 0 .25 0 .25.313 0 .25-.11.516-.172.703-.406 1.063-.578 1.625-.578 2.094 0 .89.625 1.187 1.219 1.187.39 0 .719-.171 1-.453-.125.516-.25 1.016-.64 1.547-.266.328-.641.625-1.095.625-.14 0-.593-.031-.765-.422.156 0 .297 0 .422-.125a.493.493 0 0 0 .203-.406c0-.313-.266-.344-.36-.344C.829.531.5.687.5 1.171c0 .5.438.876 1.063.876 1.015 0 2.046-.906 2.328-2.031zm0 0"/></symbol><symbol id="aS" overflow="visible"><path d="M5.734-2.11c0-.609-.312-.968-1.046-.968-.563 0-.938.297-1.125.656-.141-.5-.516-.656-1.016-.656-.578 0-.938.312-1.14.687v-.687L.374-3v.25c.469 0 .531.047.531.39v1.813c0 .297-.078.297-.531.297V0c.016 0 .5-.031.797-.031.25 0 .734.031.797.031v-.25c-.453 0-.516 0-.516-.297v-1.265c0-.72.578-1.063 1.031-1.063.485 0 .547.375.547.734v1.594c0 .297-.062.297-.515.297V0c.015 0 .5-.031.796-.031.25 0 .735.031.797.031v-.25c-.453 0-.515 0-.515-.297v-1.265c0-.72.578-1.063 1.031-1.063.484 0 .547.375.547.734v1.594c0 .297-.063.297-.516.297V0c.016 0 .5-.031.797-.031.25 0 .734.031.797.031v-.25c-.453 0-.516 0-.516-.297zm0 0"/></symbol><symbol id="aT" overflow="visible"><path d="M3.11-1.875c0-.36 0-.625-.329-.89C2.5-3 2.171-3.11 1.75-3.11c-.656 0-1.125.25-1.125.671 0 .235.156.344.344.344a.32.32 0 0 0 .328-.328.319.319 0 0 0-.25-.312c.25-.172.656-.172.687-.172.391 0 .829.25.829.844v.203c-.391.015-.844.046-1.36.234-.625.219-.812.61-.812.922 0 .594.718.765 1.218.765.547 0 .875-.312 1.032-.578.015.282.203.547.53.547.017 0 .688 0 .688-.656v-.39h-.234v.374c0 .079 0 .407-.266.407-.25 0-.25-.329-.25-.407zm-.547.89c0 .672-.594.86-.907.86-.36 0-.687-.234-.687-.578 0-.39.328-.922 1.594-.969zm0 0"/></symbol><symbol id="aU" overflow="visible"><path d="M2.36-1.563l-.047-.062c0-.031.453-.516.515-.578.25-.281.485-.547 1.047-.547V-3c-.203.016-.406.031-.594.031-.203 0-.484-.015-.687-.031v.25c.11.016.14.094.14.156 0 .016 0 .125-.109.235l-.484.546-.579-.656c-.078-.078-.078-.11-.078-.14 0-.094.094-.141.188-.141V-3c-.25.016-.516.031-.781.031-.204 0-.47-.015-.672-.031v.25c.312 0 .5 0 .687.203l.86 1c.015.016.062.063.062.078 0 .016-.531.594-.594.672-.265.281-.5.531-1.046.547V0C.39-.016.546-.031.765-.031c.203 0 .484.015.687.031v-.25c-.078-.016-.14-.063-.14-.156 0-.14.078-.235.187-.344l.5-.547.594.703c.14.14.14.156.14.203 0 .125-.156.141-.187.141V0c.062 0 .562-.031.781-.031.219 0 .453.015.672.031v-.25c-.469 0-.516-.047-.688-.219zm0 0"/></symbol></defs><use y="134.765" x="223.432" xlink:href="#aQ" width="1052.362" height="744.094"/><use y="134.765" x="231.181" xlink:href="#aR" width="1052.362" height="744.094"/><use y="136.259" x="236.065" xlink:href="#aS" width="1052.362" height="744.094"/><use y="136.259" x="242.61" xlink:href="#aT" width="1052.362" height="744.094"/><use y="136.259" x="246.582" xlink:href="#aU" width="1052.362" height="744.094"/></g></g></svg>