<svg xmlns:ns0="http://www.iki.fi/pav/software/textext/" xmlns="http://www.w3.org/2000/svg" xmlns:xlink="http://www.w3.org/1999/xlink" width="1052.362" height="1488.189"><title>Formen mechanischer Wellen</title><defs><marker id="a" orient="auto" overflow="visible"><path d="M2.308 0l-3.46 2v-4l3.46 2z" fill-rule="evenodd" stroke="#000" stroke-width=".4pt"/></marker><marker id="b" orient="auto" overflow="visible"><path d="M-2.308 0l3.46-2v4l-3.46-2z" fill-rule="evenodd" stroke="#000" stroke-width=".4pt"/></marker></defs><path fill="#fff" stroke="#fff" stroke-linecap="round" d="M33.285 404.404h985.792v679.38H33.285z"/><path d="M62.52-97.23h949.222" fill="none" stroke="gray" stroke-width="3" marker-end="url(#a)" transform="translate(0 634.916)"/><g stroke="green" stroke-width="2.936" fill="none" stroke-linecap="round"><path d="M61.986 537.674c15.592-13.917 31.185-27.524 46.778-34.05 15.593-6.525 31.185-5.651 46.778 2.152s31.186 22.229 46.778 36.064c15.593 13.836 31.186 26.477 46.779 31.635 15.592 5.158 31.185 2.574 46.778-6.43 15.593-9.003 31.185-24.064 46.778-37.656 15.593-13.593 31.186-25.119 46.778-28.849 15.593-3.73 31.186.533 46.779 10.63 15.592 10.099 31.185 25.619 46.778 38.809 15.593 13.19 31.185 23.466 46.778 25.725 15.593 2.259 31.186-3.634 46.778-14.708 15.593-11.074 31.186-26.871 46.779-39.504 15.592-12.633 29.76-21.737 46.778-22.3" stroke-width="3.00038648"/><path d="M332.436 537.674c15.593-13.917 31.185-27.524 46.778-34.05 15.593-6.525 31.186-5.651 46.778 2.152 15.593 7.803 31.186 22.229 46.779 36.064 15.592 13.836 31.185 26.477 46.778 31.635 15.593 5.158 31.185 2.574 46.778-6.43 15.593-9.003 31.186-24.064 46.778-37.656 15.593-13.593 31.186-25.119 46.779-28.849 15.592-3.73 31.185.533 46.778 10.63 15.593 10.099 31.185 25.619 46.778 38.809 15.593 13.19 31.186 23.466 46.778 25.725 15.593 2.259 31.186-3.634 46.779-14.708 15.592-11.074 31.185-26.871 46.778-39.504s29.76-21.737 46.778-22.3" stroke-width="3.00038648"/></g><path d="M670.808-101.087v-31.127" fill="none" stroke="#000" stroke-width="2" stroke-linecap="square" marker-start="url(#b)" marker-end="url(#a)" transform="translate(0 634.916)"/><g ns0:text="$A$" ns0:preamble="/home/waldgeist/data/sphinx/test.tex" transform="translate(-122.943 101.326) scale(3.47861)"><defs><symbol overflow="visible" id="c"><path d="M1.781-1.14C1.391-.485 1-.345.563-.314c-.125.016-.22.016-.22.204 0 .062.063.109.141.109.266 0 .579-.031.844-.031.344 0 .688.031 1 .031.063 0 .188 0 .188-.188 0-.109-.079-.124-.157-.124-.218-.016-.468-.094-.468-.344 0-.125.062-.235.14-.375l.766-1.266h2.5c.016.203.156 1.563.156 1.656 0 .297-.516.329-.719.329-.14 0-.234 0-.234.203C4.5 0 4.61 0 4.64 0c.407 0 .829-.031 1.235-.031.25 0 .89.031 1.14.031.048 0 .173 0 .173-.203 0-.11-.094-.11-.235-.11-.61 0-.61-.062-.64-.359l-.61-6.219c-.016-.203-.016-.25-.187-.25-.157 0-.204.079-.266.172zm1.203-1.47l1.954-3.296.328 3.297zm0 0"/></symbol></defs><use height="1052.362" width="1488.189" xlink:href="#c" x="223.432" y="134.765"/></g><path d="M134.058-141.472h262.48" fill="none" stroke="#000" stroke-width="2" stroke-linecap="square" marker-start="url(#b)" marker-end="url(#a)" transform="translate(0 634.916)"/><g transform="translate(-522.371 13.355) scale(3.47861)" ns0:preamble="/home/waldgeist/data/sphinx/test.tex" ns0:text="$\\lambda$"><defs><symbol id="d" overflow="visible"><path d="M3.563-2.906c.406 1.047.89 2.562 1.046 2.797.157.218.25.218.532.218h.218c.094-.015.11-.062.11-.093 0-.032-.032-.063-.063-.094-.093-.11-.156-.266-.218-.453L3.155-6.203c-.219-.578-.75-.719-1.219-.719-.046 0-.187 0-.187.11 0 .078.078.109.094.109.328.047.406.11.656.797l.953 2.703L.703-.47c-.11.125-.172.172-.172.313 0 .172.14.281.297.281.156 0 .25-.11.328-.203zm0 0"/></symbol></defs><use y="134.765" x="223.432" xlink:href="#d" width="1488.189" height="1052.362"/></g><path d="M61.986-16.737V-176.6" fill="none" stroke="gray" stroke-width="3" marker-end="url(#a)" transform="translate(0 634.916)"/><g transform="translate(-745.32 -2.826) scale(3.47861)" ns0:text="$y$" ns0:preamble="/home/waldgeist/data/sphinx/test.tex"><defs><symbol overflow="visible" id="e"><path d="M4.844-3.797c.047-.14.047-.156.047-.234 0-.172-.141-.266-.297-.266a.455.455 0 0 0-.344.203c-.016.063-.11.36-.14.547-.079.25-.141.531-.204.797L3.453-.953c-.031.14-.469.844-1.125.844-.5 0-.61-.438-.61-.813 0-.453.173-1.078.5-1.953.157-.406.204-.516.204-.719 0-.437-.313-.812-.813-.812-.953 0-1.312 1.453-1.312 1.531 0 .11.094.11.11.11.109 0 .109-.032.156-.188.28-.938.671-1.235 1.015-1.235.078 0 .25 0 .25.313 0 .25-.11.516-.172.703-.406 1.063-.578 1.625-.578 2.094 0 .89.625 1.187 1.219 1.187.39 0 .719-.171 1-.453-.125.516-.25 1.016-.64 1.547-.266.328-.641.625-1.095.625-.14 0-.593-.031-.765-.422.156 0 .297 0 .422-.125a.493.493 0 0 0 .203-.406c0-.313-.266-.344-.36-.344C.829.531.5.687.5 1.171c0 .5.438.876 1.063.876 1.015 0 2.046-.906 2.328-2.031zm0 0"/></symbol></defs><use height="1052.362" width="1488.189" xlink:href="#e" x="223.432" y="134.765"/></g><g ns0:preamble="/home/waldgeist/data/sphinx/test.tex" ns0:text="$x$" transform="matrix(3.4978 0 0 3.4978 218.28 98.5)"><defs><symbol id="f" overflow="visible"><path d="M3.328-3.016c.063-.25.297-1.171.985-1.171.046 0 .296 0 .5.125a.578.578 0 0 0-.47.546c0 .157.11.344.376.344a.546.546 0 0 0 .531-.578c0-.516-.578-.656-.922-.656-.578 0-.922.531-1.047.75-.25-.656-.781-.75-1.078-.75-1.031 0-1.61 1.281-1.61 1.531 0 .11.11.11.126.11.078 0 .11-.032.125-.11.344-1.063 1-1.313 1.344-1.313.187 0 .53.094.53.672 0 .313-.171.97-.53 2.375-.157.61-.516 1.032-.954 1.032-.062 0-.28 0-.5-.125.25-.063.47-.266.47-.547 0-.266-.22-.344-.36-.344-.313 0-.547.25-.547.578 0 .453.484.656.922.656.672 0 1.031-.703 1.047-.75.125.36.484.75 1.078.75 1.031 0 1.594-1.28 1.594-1.53 0-.11-.079-.11-.11-.11-.094 0-.11.047-.14.11-.329 1.077-1 1.312-1.313 1.312-.39 0-.547-.313-.547-.657 0-.218.047-.437.156-.875zm0 0"/></symbol></defs><use height="1052.362" width="1488.189" y="134.765" x="223.432" xlink:href="#f"/></g><path d="M62.52 308.268h949.222" fill="none" stroke="gray" stroke-width="3" marker-end="url(#a)" transform="translate(0 435.827)"/><g ns0:preamble="/home/waldgeist/data/sphinx/test.tex" ns0:text="$x$"><use height="1052.362" width="1488.189" y="134.765" x="223.432" xlink:href="#f" transform="matrix(3.4978 0 0 3.4978 215.14 304.907)"/></g><g><path d="M56.063 369.734V209.87" fill="none" stroke="gray" stroke-width="3" marker-end="url(#a)" transform="translate(5.923 457.38)"/><use y="134.765" x="223.432" xlink:href="#e" width="1488.189" height="1052.362" transform="translate(-745.32 206.109) scale(3.47861)" ns0:preamble="/home/waldgeist/data/sphinx/test.tex" ns0:text="$y$"/></g><g stroke="#59f" stroke-width="3" fill="none" stroke-linecap="round"><path d="M133.225 705.78c67.017 102.169 203.9 102.169 270.908.012M404.492 705.78c67.017 102.169 203.9 102.169 270.908.012M675.4 705.792c67.017 102.169 203.9 102.169 270.908.012M61.986 768.303c27.275-12.511 52.106-33.352 71.24-62.522"/></g><g><path d="M62.52 586.113h949.222" fill="none" stroke="gray" stroke-width="3" marker-end="url(#a)" transform="translate(0 366.916)"/><use height="1052.362" width="1488.189" y="134.765" x="223.432" xlink:href="#f" transform="matrix(3.4978 0 0 3.4978 215.14 513.842)" ns0:preamble="/home/waldgeist/data/sphinx/test.tex" ns0:text="$x$"/><path d="M56.063 369.734V209.87" fill="none" stroke="gray" stroke-width="3" marker-end="url(#a)" transform="translate(5.923 666.314)"/><use y="134.765" x="223.432" xlink:href="#e" width="1488.189" height="1052.362" transform="translate(-745.32 415.043) scale(3.47861)" ns0:preamble="/home/waldgeist/data/sphinx/test.tex" ns0:text="$y$"/><g color="#000" fill="#3771c8" stroke="#87aade" stroke-width="4" stroke-linecap="round" stroke-linejoin="round"><path style="marker:none" d="M133.08 916.719a2.776 2.776 0 0 1-2.776 2.776 2.776 2.776 0 0 1-2.776-2.776 2.776 2.776 0 0 1 2.776-2.776 2.776 2.776 0 0 1 2.777 2.776zM133.08 931.243a2.776 2.776 0 0 1-2.776 2.776 2.776 2.776 0 0 1-2.776-2.776 2.776 2.776 0 0 1 2.776-2.776 2.776 2.776 0 0 1 2.777 2.776zM133.08 945.767a2.776 2.776 0 0 1-2.776 2.776 2.776 2.776 0 0 1-2.776-2.776 2.776 2.776 0 0 1 2.776-2.777 2.776 2.776 0 0 1 2.777 2.777zM133.08 974.815a2.776 2.776 0 0 1-2.776 2.776 2.776 2.776 0 0 1-2.776-2.776 2.776 2.776 0 0 1 2.776-2.777 2.776 2.776 0 0 1 2.777 2.777zM133.08 960.29a2.776 2.776 0 0 1-2.776 2.777 2.776 2.776 0 0 1-2.776-2.776 2.776 2.776 0 0 1 2.776-2.777 2.776 2.776 0 0 1 2.777 2.777zM133.08 989.339a2.776 2.776 0 0 1-2.776 2.776 2.776 2.776 0 0 1-2.776-2.776 2.776 2.776 0 0 1 2.776-2.777 2.776 2.776 0 0 1 2.777 2.777zM145.667 916.719a2.776 2.776 0 0 1-2.777 2.776 2.776 2.776 0 0 1-2.776-2.776 2.776 2.776 0 0 1 2.776-2.776 2.776 2.776 0 0 1 2.777 2.776zM145.667 931.243a2.776 2.776 0 0 1-2.777 2.776 2.776 2.776 0 0 1-2.776-2.776 2.776 2.776 0 0 1 2.776-2.776 2.776 2.776 0 0 1 2.777 2.776zM145.667 945.767a2.776 2.776 0 0 1-2.777 2.776 2.776 2.776 0 0 1-2.776-2.776 2.776 2.776 0 0 1 2.776-2.777 2.776 2.776 0 0 1 2.777 2.777zM145.667 974.815a2.776 2.776 0 0 1-2.777 2.776 2.776 2.776 0 0 1-2.776-2.776 2.776 2.776 0 0 1 2.776-2.777 2.776 2.776 0 0 1 2.777 2.777zM145.667 960.29a2.776 2.776 0 0 1-2.777 2.777 2.776 2.776 0 0 1-2.776-2.776 2.776 2.776 0 0 1 2.776-2.777 2.776 2.776 0 0 1 2.777 2.777zM145.667 989.339a2.776 2.776 0 0 1-2.777 2.776 2.776 2.776 0 0 1-2.776-2.776 2.776 2.776 0 0 1 2.776-2.777 2.776 2.776 0 0 1 2.777 2.777zM171.06 916.719a2.776 2.776 0 0 1-2.776 2.776 2.776 2.776 0 0 1-2.776-2.776 2.776 2.776 0 0 1 2.776-2.776 2.776 2.776 0 0 1 2.776 2.776zM171.06 931.243a2.776 2.776 0 0 1-2.776 2.776 2.776 2.776 0 0 1-2.776-2.776 2.776 2.776 0 0 1 2.776-2.776 2.776 2.776 0 0 1 2.776 2.776zM171.06 945.767a2.776 2.776 0 0 1-2.776 2.776 2.776 2.776 0 0 1-2.776-2.776 2.776 2.776 0 0 1 2.776-2.776 2.776 2.776 0 0 1 2.776 2.776zM171.06 974.815a2.776 2.776 0 0 1-2.776 2.776 2.776 2.776 0 0 1-2.776-2.776 2.776 2.776 0 0 1 2.776-2.777 2.776 2.776 0 0 1 2.776 2.777zM171.06 960.29a2.776 2.776 0 0 1-2.776 2.777 2.776 2.776 0 0 1-2.776-2.776 2.776 2.776 0 0 1 2.776-2.777 2.776 2.776 0 0 1 2.776 2.777zM171.06 989.339a2.776 2.776 0 0 1-2.776 2.776 2.776 2.776 0 0 1-2.776-2.776 2.776 2.776 0 0 1 2.776-2.777 2.776 2.776 0 0 1 2.776 2.777zM268.34 916.719a2.776 2.776 0 0 1-2.776 2.776 2.776 2.776 0 0 1-2.776-2.776 2.776 2.776 0 0 1 2.776-2.776 2.776 2.776 0 0 1 2.777 2.776zM268.34 931.243a2.776 2.776 0 0 1-2.776 2.776 2.776 2.776 0 0 1-2.776-2.776 2.776 2.776 0 0 1 2.776-2.776 2.776 2.776 0 0 1 2.777 2.776zM268.34 945.767a2.776 2.776 0 0 1-2.776 2.776 2.776 2.776 0 0 1-2.776-2.776 2.776 2.776 0 0 1 2.776-2.777 2.776 2.776 0 0 1 2.777 2.777zM268.34 974.815a2.776 2.776 0 0 1-2.776 2.776 2.776 2.776 0 0 1-2.776-2.776 2.776 2.776 0 0 1 2.776-2.777 2.776 2.776 0 0 1 2.777 2.777zM268.34 960.29a2.776 2.776 0 0 1-2.776 2.777 2.776 2.776 0 0 1-2.776-2.776 2.776 2.776 0 0 1 2.776-2.777 2.776 2.776 0 0 1 2.777 2.777zM268.34 989.339a2.776 2.776 0 0 1-2.776 2.776 2.776 2.776 0 0 1-2.776-2.776 2.776 2.776 0 0 1 2.776-2.777 2.776 2.776 0 0 1 2.777 2.777zM206.565 916.719a2.776 2.776 0 0 1-2.776 2.776 2.776 2.776 0 0 1-2.776-2.776 2.776 2.776 0 0 1 2.776-2.776 2.776 2.776 0 0 1 2.776 2.776zM206.565 931.243a2.776 2.776 0 0 1-2.776 2.776 2.776 2.776 0 0 1-2.776-2.776 2.776 2.776 0 0 1 2.776-2.776 2.776 2.776 0 0 1 2.776 2.776zM206.565 945.767a2.776 2.776 0 0 1-2.776 2.776 2.776 2.776 0 0 1-2.776-2.776 2.776 2.776 0 0 1 2.776-2.777 2.776 2.776 0 0 1 2.776 2.777zM206.565 974.815a2.776 2.776 0 0 1-2.776 2.776 2.776 2.776 0 0 1-2.776-2.776 2.776 2.776 0 0 1 2.776-2.777 2.776 2.776 0 0 1 2.776 2.777zM206.565 960.29a2.776 2.776 0 0 1-2.776 2.777 2.776 2.776 0 0 1-2.776-2.776 2.776 2.776 0 0 1 2.776-2.777 2.776 2.776 0 0 1 2.776 2.777zM206.565 989.339a2.776 2.776 0 0 1-2.776 2.776 2.776 2.776 0 0 1-2.776-2.776 2.776 2.776 0 0 1 2.776-2.777 2.776 2.776 0 0 1 2.776 2.777z" overflow="visible" stroke-width="3"/></g><path style="marker:none" d="M127.528 916.719a2.776 2.776 0 0 1 2.776 2.776 2.776 2.776 0 0 1 2.777-2.776 2.776 2.776 0 0 1-2.777-2.776 2.776 2.776 0 0 1-2.776 2.776zM127.528 931.243a2.776 2.776 0 0 1 2.776 2.776 2.776 2.776 0 0 1 2.777-2.776 2.776 2.776 0 0 1-2.777-2.776 2.776 2.776 0 0 1-2.776 2.776zM127.528 945.767a2.776 2.776 0 0 1 2.776 2.776 2.776 2.776 0 0 1 2.777-2.776 2.776 2.776 0 0 1-2.777-2.777 2.776 2.776 0 0 1-2.776 2.777zM127.528 974.815a2.776 2.776 0 0 1 2.776 2.776 2.776 2.776 0 0 1 2.777-2.776 2.776 2.776 0 0 1-2.777-2.777 2.776 2.776 0 0 1-2.776 2.777zM127.528 960.29a2.776 2.776 0 0 1 2.776 2.777 2.776 2.776 0 0 1 2.777-2.776 2.776 2.776 0 0 1-2.777-2.777 2.776 2.776 0 0 1-2.776 2.777zM127.528 989.339a2.776 2.776 0 0 1 2.776 2.776 2.776 2.776 0 0 1 2.777-2.776 2.776 2.776 0 0 1-2.777-2.777 2.776 2.776 0 0 1-2.776 2.777zM114.942 916.719a2.776 2.776 0 0 1 2.776 2.776 2.776 2.776 0 0 1 2.776-2.776 2.776 2.776 0 0 1-2.776-2.776 2.776 2.776 0 0 1-2.776 2.776zM114.942 931.243a2.776 2.776 0 0 1 2.776 2.776 2.776 2.776 0 0 1 2.776-2.776 2.776 2.776 0 0 1-2.776-2.776 2.776 2.776 0 0 1-2.776 2.776zM114.942 945.767a2.776 2.776 0 0 1 2.776 2.776 2.776 2.776 0 0 1 2.776-2.776 2.776 2.776 0 0 1-2.776-2.777 2.776 2.776 0 0 1-2.776 2.777zM114.942 974.815a2.776 2.776 0 0 1 2.776 2.776 2.776 2.776 0 0 1 2.776-2.776 2.776 2.776 0 0 1-2.776-2.777 2.776 2.776 0 0 1-2.776 2.777zM114.942 960.29a2.776 2.776 0 0 1 2.776 2.777 2.776 2.776 0 0 1 2.776-2.776 2.776 2.776 0 0 1-2.776-2.777 2.776 2.776 0 0 1-2.776 2.777zM114.942 989.339a2.776 2.776 0 0 1 2.776 2.776 2.776 2.776 0 0 1 2.776-2.776 2.776 2.776 0 0 1-2.776-2.777 2.776 2.776 0 0 1-2.776 2.777zM89.548 916.719a2.776 2.776 0 0 1 2.777 2.776 2.776 2.776 0 0 1 2.776-2.776 2.776 2.776 0 0 1-2.776-2.776 2.776 2.776 0 0 1-2.777 2.776zM89.548 931.243a2.776 2.776 0 0 1 2.777 2.776 2.776 2.776 0 0 1 2.776-2.776 2.776 2.776 0 0 1-2.776-2.776 2.776 2.776 0 0 1-2.777 2.776zM89.548 945.767a2.776 2.776 0 0 1 2.777 2.776 2.776 2.776 0 0 1 2.776-2.776 2.776 2.776 0 0 1-2.776-2.776 2.776 2.776 0 0 1-2.777 2.776zM89.548 974.815a2.776 2.776 0 0 1 2.777 2.776 2.776 2.776 0 0 1 2.776-2.776 2.776 2.776 0 0 1-2.776-2.777 2.776 2.776 0 0 1-2.777 2.777zM89.548 960.29a2.776 2.776 0 0 1 2.777 2.777 2.776 2.776 0 0 1 2.776-2.776 2.776 2.776 0 0 1-2.776-2.777 2.776 2.776 0 0 1-2.777 2.777zM89.548 989.339a2.776 2.776 0 0 1 2.777 2.776 2.776 2.776 0 0 1 2.776-2.776 2.776 2.776 0 0 1-2.776-2.777 2.776 2.776 0 0 1-2.777 2.777z" color="#000" fill="#3771c8" stroke="#87aade" stroke-width="3" stroke-linecap="round" stroke-linejoin="round" overflow="visible"/><g color="#000" fill="#3771c8" stroke="#87aade" stroke-width="4" stroke-linecap="round" stroke-linejoin="round"><path d="M398.048 916.719a2.776 2.776 0 0 1 2.776 2.776 2.776 2.776 0 0 1 2.776-2.776 2.776 2.776 0 0 1-2.776-2.776 2.776 2.776 0 0 1-2.776 2.776zM398.048 931.243a2.776 2.776 0 0 1 2.776 2.776 2.776 2.776 0 0 1 2.776-2.776 2.776 2.776 0 0 1-2.776-2.776 2.776 2.776 0 0 1-2.776 2.776zM398.048 945.767a2.776 2.776 0 0 1 2.776 2.776 2.776 2.776 0 0 1 2.776-2.776 2.776 2.776 0 0 1-2.776-2.777 2.776 2.776 0 0 1-2.776 2.777zM398.048 974.815a2.776 2.776 0 0 1 2.776 2.776 2.776 2.776 0 0 1 2.776-2.776 2.776 2.776 0 0 1-2.776-2.777 2.776 2.776 0 0 1-2.776 2.777zM398.048 960.29a2.776 2.776 0 0 1 2.776 2.777 2.776 2.776 0 0 1 2.776-2.776 2.776 2.776 0 0 1-2.776-2.777 2.776 2.776 0 0 1-2.776 2.777zM398.048 989.339a2.776 2.776 0 0 1 2.776 2.776 2.776 2.776 0 0 1 2.776-2.776 2.776 2.776 0 0 1-2.776-2.777 2.776 2.776 0 0 1-2.776 2.777zM385.461 916.719a2.776 2.776 0 0 1 2.777 2.776 2.776 2.776 0 0 1 2.776-2.776 2.776 2.776 0 0 1-2.776-2.776 2.776 2.776 0 0 1-2.777 2.776zM385.461 931.243a2.776 2.776 0 0 1 2.777 2.776 2.776 2.776 0 0 1 2.776-2.776 2.776 2.776 0 0 1-2.776-2.776 2.776 2.776 0 0 1-2.777 2.776zM385.461 945.767a2.776 2.776 0 0 1 2.777 2.776 2.776 2.776 0 0 1 2.776-2.776 2.776 2.776 0 0 1-2.776-2.777 2.776 2.776 0 0 1-2.777 2.777zM385.461 974.815a2.776 2.776 0 0 1 2.777 2.776 2.776 2.776 0 0 1 2.776-2.776 2.776 2.776 0 0 1-2.776-2.777 2.776 2.776 0 0 1-2.777 2.777zM385.461 960.29a2.776 2.776 0 0 1 2.777 2.777 2.776 2.776 0 0 1 2.776-2.776 2.776 2.776 0 0 1-2.776-2.777 2.776 2.776 0 0 1-2.777 2.777zM385.461 989.339a2.776 2.776 0 0 1 2.777 2.776 2.776 2.776 0 0 1 2.776-2.776 2.776 2.776 0 0 1-2.776-2.777 2.776 2.776 0 0 1-2.777 2.777zM360.068 916.719a2.776 2.776 0 0 1 2.776 2.776 2.776 2.776 0 0 1 2.777-2.776 2.776 2.776 0 0 1-2.777-2.776 2.776 2.776 0 0 1-2.776 2.776zM360.068 931.243a2.776 2.776 0 0 1 2.776 2.776 2.776 2.776 0 0 1 2.777-2.776 2.776 2.776 0 0 1-2.777-2.776 2.776 2.776 0 0 1-2.776 2.776zM360.068 945.767a2.776 2.776 0 0 1 2.776 2.776 2.776 2.776 0 0 1 2.777-2.776 2.776 2.776 0 0 1-2.777-2.776 2.776 2.776 0 0 1-2.776 2.776zM360.068 974.815a2.776 2.776 0 0 1 2.776 2.776 2.776 2.776 0 0 1 2.777-2.776 2.776 2.776 0 0 1-2.777-2.777 2.776 2.776 0 0 1-2.776 2.777zM360.068 960.29a2.776 2.776 0 0 1 2.776 2.777 2.776 2.776 0 0 1 2.777-2.776 2.776 2.776 0 0 1-2.777-2.777 2.776 2.776 0 0 1-2.776 2.777zM360.068 989.339a2.776 2.776 0 0 1 2.776 2.776 2.776 2.776 0 0 1 2.777-2.776 2.776 2.776 0 0 1-2.777-2.777 2.776 2.776 0 0 1-2.776 2.777zM262.788 916.719a2.776 2.776 0 0 1 2.776 2.776 2.776 2.776 0 0 1 2.777-2.776 2.776 2.776 0 0 1-2.777-2.776 2.776 2.776 0 0 1-2.776 2.776zM262.788 931.243a2.776 2.776 0 0 1 2.776 2.776 2.776 2.776 0 0 1 2.777-2.776 2.776 2.776 0 0 1-2.777-2.776 2.776 2.776 0 0 1-2.776 2.776zM262.788 945.767a2.776 2.776 0 0 1 2.776 2.776 2.776 2.776 0 0 1 2.777-2.776 2.776 2.776 0 0 1-2.777-2.777 2.776 2.776 0 0 1-2.776 2.777zM262.788 974.815a2.776 2.776 0 0 1 2.776 2.776 2.776 2.776 0 0 1 2.777-2.776 2.776 2.776 0 0 1-2.777-2.777 2.776 2.776 0 0 1-2.776 2.777zM262.788 960.29a2.776 2.776 0 0 1 2.776 2.777 2.776 2.776 0 0 1 2.777-2.776 2.776 2.776 0 0 1-2.777-2.777 2.776 2.776 0 0 1-2.776 2.777zM262.788 989.339a2.776 2.776 0 0 1 2.776 2.776 2.776 2.776 0 0 1 2.777-2.776 2.776 2.776 0 0 1-2.777-2.777 2.776 2.776 0 0 1-2.776 2.777zM324.563 916.719a2.776 2.776 0 0 1 2.776 2.776 2.776 2.776 0 0 1 2.777-2.776 2.776 2.776 0 0 1-2.777-2.776 2.776 2.776 0 0 1-2.776 2.776zM324.563 931.243a2.776 2.776 0 0 1 2.776 2.776 2.776 2.776 0 0 1 2.777-2.776 2.776 2.776 0 0 1-2.777-2.776 2.776 2.776 0 0 1-2.776 2.776zM324.563 945.767a2.776 2.776 0 0 1 2.776 2.776 2.776 2.776 0 0 1 2.777-2.776 2.776 2.776 0 0 1-2.777-2.777 2.776 2.776 0 0 1-2.776 2.777zM324.563 974.815a2.776 2.776 0 0 1 2.776 2.776 2.776 2.776 0 0 1 2.777-2.776 2.776 2.776 0 0 1-2.777-2.777 2.776 2.776 0 0 1-2.776 2.777zM324.563 960.29a2.776 2.776 0 0 1 2.776 2.777 2.776 2.776 0 0 1 2.777-2.776 2.776 2.776 0 0 1-2.777-2.777 2.776 2.776 0 0 1-2.776 2.777zM324.563 989.339a2.776 2.776 0 0 1 2.776 2.776 2.776 2.776 0 0 1 2.777-2.776 2.776 2.776 0 0 1-2.777-2.777 2.776 2.776 0 0 1-2.776 2.777z" style="marker:none" overflow="visible" stroke-width="3"/></g><g color="#000" fill="#3771c8" stroke="#87aade" stroke-width="4" stroke-linecap="round" stroke-linejoin="round"><path style="marker:none" d="M403.6 916.719a2.776 2.776 0 0 1-2.776 2.776 2.776 2.776 0 0 1-2.776-2.776 2.776 2.776 0 0 1 2.776-2.776 2.776 2.776 0 0 1 2.776 2.776zM403.6 931.243a2.776 2.776 0 0 1-2.776 2.776 2.776 2.776 0 0 1-2.776-2.776 2.776 2.776 0 0 1 2.776-2.776 2.776 2.776 0 0 1 2.776 2.776zM403.6 945.767a2.776 2.776 0 0 1-2.776 2.776 2.776 2.776 0 0 1-2.776-2.776 2.776 2.776 0 0 1 2.776-2.777 2.776 2.776 0 0 1 2.776 2.777zM403.6 974.815a2.776 2.776 0 0 1-2.776 2.776 2.776 2.776 0 0 1-2.776-2.776 2.776 2.776 0 0 1 2.776-2.777 2.776 2.776 0 0 1 2.776 2.777zM403.6 960.29a2.776 2.776 0 0 1-2.776 2.777 2.776 2.776 0 0 1-2.776-2.776 2.776 2.776 0 0 1 2.776-2.777 2.776 2.776 0 0 1 2.776 2.777zM403.6 989.339a2.776 2.776 0 0 1-2.776 2.776 2.776 2.776 0 0 1-2.776-2.776 2.776 2.776 0 0 1 2.776-2.777 2.776 2.776 0 0 1 2.776 2.777zM416.187 916.719a2.776 2.776 0 0 1-2.777 2.776 2.776 2.776 0 0 1-2.776-2.776 2.776 2.776 0 0 1 2.776-2.776 2.776 2.776 0 0 1 2.777 2.776zM416.187 931.243a2.776 2.776 0 0 1-2.777 2.776 2.776 2.776 0 0 1-2.776-2.776 2.776 2.776 0 0 1 2.776-2.776 2.776 2.776 0 0 1 2.777 2.776zM416.187 945.767a2.776 2.776 0 0 1-2.777 2.776 2.776 2.776 0 0 1-2.776-2.776 2.776 2.776 0 0 1 2.776-2.777 2.776 2.776 0 0 1 2.777 2.777zM416.187 974.815a2.776 2.776 0 0 1-2.777 2.776 2.776 2.776 0 0 1-2.776-2.776 2.776 2.776 0 0 1 2.776-2.777 2.776 2.776 0 0 1 2.777 2.777zM416.187 960.29a2.776 2.776 0 0 1-2.777 2.777 2.776 2.776 0 0 1-2.776-2.776 2.776 2.776 0 0 1 2.776-2.777 2.776 2.776 0 0 1 2.777 2.777zM416.187 989.339a2.776 2.776 0 0 1-2.777 2.776 2.776 2.776 0 0 1-2.776-2.776 2.776 2.776 0 0 1 2.776-2.777 2.776 2.776 0 0 1 2.777 2.777zM441.58 916.719a2.776 2.776 0 0 1-2.776 2.776 2.776 2.776 0 0 1-2.777-2.776 2.776 2.776 0 0 1 2.777-2.776 2.776 2.776 0 0 1 2.776 2.776zM441.58 931.243a2.776 2.776 0 0 1-2.776 2.776 2.776 2.776 0 0 1-2.777-2.776 2.776 2.776 0 0 1 2.777-2.776 2.776 2.776 0 0 1 2.776 2.776zM441.58 945.767a2.776 2.776 0 0 1-2.776 2.776 2.776 2.776 0 0 1-2.777-2.776 2.776 2.776 0 0 1 2.777-2.776 2.776 2.776 0 0 1 2.776 2.776zM441.58 974.815a2.776 2.776 0 0 1-2.776 2.776 2.776 2.776 0 0 1-2.777-2.776 2.776 2.776 0 0 1 2.777-2.777 2.776 2.776 0 0 1 2.776 2.777zM441.58 960.29a2.776 2.776 0 0 1-2.776 2.777 2.776 2.776 0 0 1-2.777-2.776 2.776 2.776 0 0 1 2.777-2.777 2.776 2.776 0 0 1 2.776 2.777zM441.58 989.339a2.776 2.776 0 0 1-2.776 2.776 2.776 2.776 0 0 1-2.777-2.776 2.776 2.776 0 0 1 2.777-2.777 2.776 2.776 0 0 1 2.776 2.777zM538.86 916.719a2.776 2.776 0 0 1-2.776 2.776 2.776 2.776 0 0 1-2.776-2.776 2.776 2.776 0 0 1 2.776-2.776 2.776 2.776 0 0 1 2.776 2.776zM538.86 931.243a2.776 2.776 0 0 1-2.776 2.776 2.776 2.776 0 0 1-2.776-2.776 2.776 2.776 0 0 1 2.776-2.776 2.776 2.776 0 0 1 2.776 2.776zM538.86 945.767a2.776 2.776 0 0 1-2.776 2.776 2.776 2.776 0 0 1-2.776-2.776 2.776 2.776 0 0 1 2.776-2.777 2.776 2.776 0 0 1 2.776 2.777zM538.86 974.815a2.776 2.776 0 0 1-2.776 2.776 2.776 2.776 0 0 1-2.776-2.776 2.776 2.776 0 0 1 2.776-2.777 2.776 2.776 0 0 1 2.776 2.777zM538.86 960.29a2.776 2.776 0 0 1-2.776 2.777 2.776 2.776 0 0 1-2.776-2.776 2.776 2.776 0 0 1 2.776-2.777 2.776 2.776 0 0 1 2.776 2.777zM538.86 989.339a2.776 2.776 0 0 1-2.776 2.776 2.776 2.776 0 0 1-2.776-2.776 2.776 2.776 0 0 1 2.776-2.777 2.776 2.776 0 0 1 2.776 2.777zM477.085 916.719a2.776 2.776 0 0 1-2.776 2.776 2.776 2.776 0 0 1-2.776-2.776 2.776 2.776 0 0 1 2.776-2.776 2.776 2.776 0 0 1 2.776 2.776zM477.085 931.243a2.776 2.776 0 0 1-2.776 2.776 2.776 2.776 0 0 1-2.776-2.776 2.776 2.776 0 0 1 2.776-2.776 2.776 2.776 0 0 1 2.776 2.776zM477.085 945.767a2.776 2.776 0 0 1-2.776 2.776 2.776 2.776 0 0 1-2.776-2.776 2.776 2.776 0 0 1 2.776-2.777 2.776 2.776 0 0 1 2.776 2.777zM477.085 974.815a2.776 2.776 0 0 1-2.776 2.776 2.776 2.776 0 0 1-2.776-2.776 2.776 2.776 0 0 1 2.776-2.777 2.776 2.776 0 0 1 2.776 2.777zM477.085 960.29a2.776 2.776 0 0 1-2.776 2.777 2.776 2.776 0 0 1-2.776-2.776 2.776 2.776 0 0 1 2.776-2.777 2.776 2.776 0 0 1 2.776 2.777zM477.085 989.339a2.776 2.776 0 0 1-2.776 2.776 2.776 2.776 0 0 1-2.776-2.776 2.776 2.776 0 0 1 2.776-2.777 2.776 2.776 0 0 1 2.776 2.777z" overflow="visible" stroke-width="3"/></g><g color="#000" fill="#3771c8" stroke="#87aade" stroke-width="4" stroke-linecap="round" stroke-linejoin="round"><path d="M668.567 916.719a2.776 2.776 0 0 1 2.777 2.776 2.776 2.776 0 0 1 2.776-2.776 2.776 2.776 0 0 1-2.776-2.776 2.776 2.776 0 0 1-2.777 2.776zM668.567 931.243a2.776 2.776 0 0 1 2.777 2.776 2.776 2.776 0 0 1 2.776-2.776 2.776 2.776 0 0 1-2.776-2.776 2.776 2.776 0 0 1-2.777 2.776zM668.567 945.767a2.776 2.776 0 0 1 2.777 2.776 2.776 2.776 0 0 1 2.776-2.776 2.776 2.776 0 0 1-2.776-2.777 2.776 2.776 0 0 1-2.777 2.777zM668.567 974.815a2.776 2.776 0 0 1 2.777 2.776 2.776 2.776 0 0 1 2.776-2.776 2.776 2.776 0 0 1-2.776-2.777 2.776 2.776 0 0 1-2.777 2.777zM668.567 960.29a2.776 2.776 0 0 1 2.777 2.777 2.776 2.776 0 0 1 2.776-2.776 2.776 2.776 0 0 1-2.776-2.777 2.776 2.776 0 0 1-2.777 2.777zM668.567 989.339a2.776 2.776 0 0 1 2.777 2.776 2.776 2.776 0 0 1 2.776-2.776 2.776 2.776 0 0 1-2.776-2.777 2.776 2.776 0 0 1-2.777 2.777zM655.981 916.719a2.776 2.776 0 0 1 2.777 2.776 2.776 2.776 0 0 1 2.776-2.776 2.776 2.776 0 0 1-2.776-2.776 2.776 2.776 0 0 1-2.777 2.776zM655.981 931.243a2.776 2.776 0 0 1 2.777 2.776 2.776 2.776 0 0 1 2.776-2.776 2.776 2.776 0 0 1-2.776-2.776 2.776 2.776 0 0 1-2.777 2.776zM655.981 945.767a2.776 2.776 0 0 1 2.777 2.776 2.776 2.776 0 0 1 2.776-2.776 2.776 2.776 0 0 1-2.776-2.777 2.776 2.776 0 0 1-2.777 2.777zM655.981 974.815a2.776 2.776 0 0 1 2.777 2.776 2.776 2.776 0 0 1 2.776-2.776 2.776 2.776 0 0 1-2.776-2.777 2.776 2.776 0 0 1-2.777 2.777zM655.981 960.29a2.776 2.776 0 0 1 2.777 2.777 2.776 2.776 0 0 1 2.776-2.776 2.776 2.776 0 0 1-2.776-2.777 2.776 2.776 0 0 1-2.777 2.777zM655.981 989.339a2.776 2.776 0 0 1 2.777 2.776 2.776 2.776 0 0 1 2.776-2.776 2.776 2.776 0 0 1-2.776-2.777 2.776 2.776 0 0 1-2.777 2.777zM630.588 916.719a2.776 2.776 0 0 1 2.776 2.776 2.776 2.776 0 0 1 2.776-2.776 2.776 2.776 0 0 1-2.776-2.776 2.776 2.776 0 0 1-2.776 2.776zM630.588 931.243a2.776 2.776 0 0 1 2.776 2.776 2.776 2.776 0 0 1 2.776-2.776 2.776 2.776 0 0 1-2.776-2.776 2.776 2.776 0 0 1-2.776 2.776zM630.588 945.767a2.776 2.776 0 0 1 2.776 2.776 2.776 2.776 0 0 1 2.776-2.776 2.776 2.776 0 0 1-2.776-2.776 2.776 2.776 0 0 1-2.776 2.776zM630.588 974.815a2.776 2.776 0 0 1 2.776 2.776 2.776 2.776 0 0 1 2.776-2.776 2.776 2.776 0 0 1-2.776-2.777 2.776 2.776 0 0 1-2.776 2.777zM630.588 960.29a2.776 2.776 0 0 1 2.776 2.777 2.776 2.776 0 0 1 2.776-2.776 2.776 2.776 0 0 1-2.776-2.777 2.776 2.776 0 0 1-2.776 2.777zM630.588 989.339a2.776 2.776 0 0 1 2.776 2.776 2.776 2.776 0 0 1 2.776-2.776 2.776 2.776 0 0 1-2.776-2.777 2.776 2.776 0 0 1-2.776 2.777zM533.308 916.719a2.776 2.776 0 0 1 2.776 2.776 2.776 2.776 0 0 1 2.776-2.776 2.776 2.776 0 0 1-2.776-2.776 2.776 2.776 0 0 1-2.776 2.776zM533.308 931.243a2.776 2.776 0 0 1 2.776 2.776 2.776 2.776 0 0 1 2.776-2.776 2.776 2.776 0 0 1-2.776-2.776 2.776 2.776 0 0 1-2.776 2.776zM533.308 945.767a2.776 2.776 0 0 1 2.776 2.776 2.776 2.776 0 0 1 2.776-2.776 2.776 2.776 0 0 1-2.776-2.777 2.776 2.776 0 0 1-2.776 2.777zM533.308 974.815a2.776 2.776 0 0 1 2.776 2.776 2.776 2.776 0 0 1 2.776-2.776 2.776 2.776 0 0 1-2.776-2.777 2.776 2.776 0 0 1-2.776 2.777zM533.308 960.29a2.776 2.776 0 0 1 2.776 2.777 2.776 2.776 0 0 1 2.776-2.776 2.776 2.776 0 0 1-2.776-2.777 2.776 2.776 0 0 1-2.776 2.777zM533.308 989.339a2.776 2.776 0 0 1 2.776 2.776 2.776 2.776 0 0 1 2.776-2.776 2.776 2.776 0 0 1-2.776-2.777 2.776 2.776 0 0 1-2.776 2.777zM595.083 916.719a2.776 2.776 0 0 1 2.776 2.776 2.776 2.776 0 0 1 2.776-2.776 2.776 2.776 0 0 1-2.776-2.776 2.776 2.776 0 0 1-2.776 2.776zM595.083 931.243a2.776 2.776 0 0 1 2.776 2.776 2.776 2.776 0 0 1 2.776-2.776 2.776 2.776 0 0 1-2.776-2.776 2.776 2.776 0 0 1-2.776 2.776zM595.083 945.767a2.776 2.776 0 0 1 2.776 2.776 2.776 2.776 0 0 1 2.776-2.776 2.776 2.776 0 0 1-2.776-2.777 2.776 2.776 0 0 1-2.776 2.777zM595.083 974.815a2.776 2.776 0 0 1 2.776 2.776 2.776 2.776 0 0 1 2.776-2.776 2.776 2.776 0 0 1-2.776-2.777 2.776 2.776 0 0 1-2.776 2.777zM595.083 960.29a2.776 2.776 0 0 1 2.776 2.777 2.776 2.776 0 0 1 2.776-2.776 2.776 2.776 0 0 1-2.776-2.777 2.776 2.776 0 0 1-2.776 2.777zM595.083 989.339a2.776 2.776 0 0 1 2.776 2.776 2.776 2.776 0 0 1 2.776-2.776 2.776 2.776 0 0 1-2.776-2.777 2.776 2.776 0 0 1-2.776 2.777z" style="marker:none" overflow="visible" stroke-width="3"/></g><g color="#000" fill="#3771c8" stroke="#87aade" stroke-width="4" stroke-linecap="round" stroke-linejoin="round"><path style="marker:none" d="M674.12 916.719a2.776 2.776 0 0 1-2.776 2.776 2.776 2.776 0 0 1-2.777-2.776 2.776 2.776 0 0 1 2.777-2.776 2.776 2.776 0 0 1 2.776 2.776zM674.12 931.243a2.776 2.776 0 0 1-2.776 2.776 2.776 2.776 0 0 1-2.777-2.776 2.776 2.776 0 0 1 2.777-2.776 2.776 2.776 0 0 1 2.776 2.776zM674.12 945.767a2.776 2.776 0 0 1-2.776 2.776 2.776 2.776 0 0 1-2.777-2.776 2.776 2.776 0 0 1 2.777-2.777 2.776 2.776 0 0 1 2.776 2.777zM674.12 974.815a2.776 2.776 0 0 1-2.776 2.776 2.776 2.776 0 0 1-2.777-2.776 2.776 2.776 0 0 1 2.777-2.777 2.776 2.776 0 0 1 2.776 2.777zM674.12 960.29a2.776 2.776 0 0 1-2.776 2.777 2.776 2.776 0 0 1-2.777-2.776 2.776 2.776 0 0 1 2.777-2.777 2.776 2.776 0 0 1 2.776 2.777zM674.12 989.339a2.776 2.776 0 0 1-2.776 2.776 2.776 2.776 0 0 1-2.777-2.776 2.776 2.776 0 0 1 2.777-2.777 2.776 2.776 0 0 1 2.776 2.777zM686.706 916.719a2.776 2.776 0 0 1-2.776 2.776 2.776 2.776 0 0 1-2.776-2.776 2.776 2.776 0 0 1 2.776-2.776 2.776 2.776 0 0 1 2.776 2.776zM686.706 931.243a2.776 2.776 0 0 1-2.776 2.776 2.776 2.776 0 0 1-2.776-2.776 2.776 2.776 0 0 1 2.776-2.776 2.776 2.776 0 0 1 2.776 2.776zM686.706 945.767a2.776 2.776 0 0 1-2.776 2.776 2.776 2.776 0 0 1-2.776-2.776 2.776 2.776 0 0 1 2.776-2.777 2.776 2.776 0 0 1 2.776 2.777zM686.706 974.815a2.776 2.776 0 0 1-2.776 2.776 2.776 2.776 0 0 1-2.776-2.776 2.776 2.776 0 0 1 2.776-2.777 2.776 2.776 0 0 1 2.776 2.777zM686.706 960.29a2.776 2.776 0 0 1-2.776 2.777 2.776 2.776 0 0 1-2.776-2.776 2.776 2.776 0 0 1 2.776-2.777 2.776 2.776 0 0 1 2.776 2.777zM686.706 989.339a2.776 2.776 0 0 1-2.776 2.776 2.776 2.776 0 0 1-2.776-2.776 2.776 2.776 0 0 1 2.776-2.777 2.776 2.776 0 0 1 2.776 2.777zM712.1 916.719a2.776 2.776 0 0 1-2.776 2.776 2.776 2.776 0 0 1-2.777-2.776 2.776 2.776 0 0 1 2.777-2.776 2.776 2.776 0 0 1 2.776 2.776zM712.1 931.243a2.776 2.776 0 0 1-2.776 2.776 2.776 2.776 0 0 1-2.777-2.776 2.776 2.776 0 0 1 2.777-2.776 2.776 2.776 0 0 1 2.776 2.776zM712.1 945.767a2.776 2.776 0 0 1-2.776 2.776 2.776 2.776 0 0 1-2.777-2.776 2.776 2.776 0 0 1 2.777-2.776 2.776 2.776 0 0 1 2.776 2.776zM712.1 974.815a2.776 2.776 0 0 1-2.776 2.776 2.776 2.776 0 0 1-2.777-2.776 2.776 2.776 0 0 1 2.777-2.777 2.776 2.776 0 0 1 2.776 2.777zM712.1 960.29a2.776 2.776 0 0 1-2.776 2.777 2.776 2.776 0 0 1-2.777-2.776 2.776 2.776 0 0 1 2.777-2.777 2.776 2.776 0 0 1 2.776 2.777zM712.1 989.339a2.776 2.776 0 0 1-2.776 2.776 2.776 2.776 0 0 1-2.777-2.776 2.776 2.776 0 0 1 2.777-2.777 2.776 2.776 0 0 1 2.776 2.777zM809.38 916.719a2.776 2.776 0 0 1-2.776 2.776 2.776 2.776 0 0 1-2.777-2.776 2.776 2.776 0 0 1 2.777-2.776 2.776 2.776 0 0 1 2.776 2.776zM809.38 931.243a2.776 2.776 0 0 1-2.776 2.776 2.776 2.776 0 0 1-2.777-2.776 2.776 2.776 0 0 1 2.777-2.776 2.776 2.776 0 0 1 2.776 2.776zM809.38 945.767a2.776 2.776 0 0 1-2.776 2.776 2.776 2.776 0 0 1-2.777-2.776 2.776 2.776 0 0 1 2.777-2.777 2.776 2.776 0 0 1 2.776 2.777zM809.38 974.815a2.776 2.776 0 0 1-2.776 2.776 2.776 2.776 0 0 1-2.777-2.776 2.776 2.776 0 0 1 2.777-2.777 2.776 2.776 0 0 1 2.776 2.777zM809.38 960.29a2.776 2.776 0 0 1-2.776 2.777 2.776 2.776 0 0 1-2.777-2.776 2.776 2.776 0 0 1 2.777-2.777 2.776 2.776 0 0 1 2.776 2.777zM809.38 989.339a2.776 2.776 0 0 1-2.776 2.776 2.776 2.776 0 0 1-2.777-2.776 2.776 2.776 0 0 1 2.777-2.777 2.776 2.776 0 0 1 2.776 2.777zM747.605 916.719a2.776 2.776 0 0 1-2.776 2.776 2.776 2.776 0 0 1-2.777-2.776 2.776 2.776 0 0 1 2.777-2.776 2.776 2.776 0 0 1 2.776 2.776zM747.605 931.243a2.776 2.776 0 0 1-2.776 2.776 2.776 2.776 0 0 1-2.777-2.776 2.776 2.776 0 0 1 2.777-2.776 2.776 2.776 0 0 1 2.776 2.776zM747.605 945.767a2.776 2.776 0 0 1-2.776 2.776 2.776 2.776 0 0 1-2.777-2.776 2.776 2.776 0 0 1 2.777-2.777 2.776 2.776 0 0 1 2.776 2.777zM747.605 974.815a2.776 2.776 0 0 1-2.776 2.776 2.776 2.776 0 0 1-2.777-2.776 2.776 2.776 0 0 1 2.777-2.777 2.776 2.776 0 0 1 2.776 2.777zM747.605 960.29a2.776 2.776 0 0 1-2.776 2.777 2.776 2.776 0 0 1-2.777-2.776 2.776 2.776 0 0 1 2.777-2.777 2.776 2.776 0 0 1 2.776 2.777zM747.605 989.339a2.776 2.776 0 0 1-2.776 2.776 2.776 2.776 0 0 1-2.777-2.776 2.776 2.776 0 0 1 2.777-2.777 2.776 2.776 0 0 1 2.776 2.777z" overflow="visible" stroke-width="3"/></g><g color="#000" fill="#3771c8" stroke="#87aade" stroke-width="4" stroke-linecap="round" stroke-linejoin="round"><path d="M939.087 916.719a2.776 2.776 0 0 1 2.777 2.776 2.776 2.776 0 0 1 2.776-2.776 2.776 2.776 0 0 1-2.776-2.776 2.776 2.776 0 0 1-2.777 2.776zM939.087 931.243a2.776 2.776 0 0 1 2.777 2.776 2.776 2.776 0 0 1 2.776-2.776 2.776 2.776 0 0 1-2.776-2.776 2.776 2.776 0 0 1-2.777 2.776zM939.087 945.767a2.776 2.776 0 0 1 2.777 2.776 2.776 2.776 0 0 1 2.776-2.776 2.776 2.776 0 0 1-2.776-2.777 2.776 2.776 0 0 1-2.777 2.777zM939.087 974.815a2.776 2.776 0 0 1 2.777 2.776 2.776 2.776 0 0 1 2.776-2.776 2.776 2.776 0 0 1-2.776-2.777 2.776 2.776 0 0 1-2.777 2.777zM939.087 960.29a2.776 2.776 0 0 1 2.777 2.777 2.776 2.776 0 0 1 2.776-2.776 2.776 2.776 0 0 1-2.776-2.777 2.776 2.776 0 0 1-2.777 2.777zM939.087 989.339a2.776 2.776 0 0 1 2.777 2.776 2.776 2.776 0 0 1 2.776-2.776 2.776 2.776 0 0 1-2.776-2.777 2.776 2.776 0 0 1-2.777 2.777zM926.501 916.719a2.776 2.776 0 0 1 2.776 2.776 2.776 2.776 0 0 1 2.777-2.776 2.776 2.776 0 0 1-2.777-2.776 2.776 2.776 0 0 1-2.776 2.776zM926.501 931.243a2.776 2.776 0 0 1 2.776 2.776 2.776 2.776 0 0 1 2.777-2.776 2.776 2.776 0 0 1-2.777-2.776 2.776 2.776 0 0 1-2.776 2.776zM926.501 945.767a2.776 2.776 0 0 1 2.776 2.776 2.776 2.776 0 0 1 2.777-2.776 2.776 2.776 0 0 1-2.777-2.777 2.776 2.776 0 0 1-2.776 2.777zM926.501 974.815a2.776 2.776 0 0 1 2.776 2.776 2.776 2.776 0 0 1 2.777-2.776 2.776 2.776 0 0 1-2.777-2.777 2.776 2.776 0 0 1-2.776 2.777zM926.501 960.29a2.776 2.776 0 0 1 2.776 2.777 2.776 2.776 0 0 1 2.777-2.776 2.776 2.776 0 0 1-2.777-2.777 2.776 2.776 0 0 1-2.776 2.777zM926.501 989.339a2.776 2.776 0 0 1 2.776 2.776 2.776 2.776 0 0 1 2.777-2.776 2.776 2.776 0 0 1-2.777-2.777 2.776 2.776 0 0 1-2.776 2.777zM901.107 916.719a2.776 2.776 0 0 1 2.777 2.776 2.776 2.776 0 0 1 2.776-2.776 2.776 2.776 0 0 1-2.776-2.776 2.776 2.776 0 0 1-2.777 2.776zM901.107 931.243a2.776 2.776 0 0 1 2.777 2.776 2.776 2.776 0 0 1 2.776-2.776 2.776 2.776 0 0 1-2.776-2.776 2.776 2.776 0 0 1-2.777 2.776zM901.107 945.767a2.776 2.776 0 0 1 2.777 2.776 2.776 2.776 0 0 1 2.776-2.776 2.776 2.776 0 0 1-2.776-2.776 2.776 2.776 0 0 1-2.777 2.776zM901.107 974.815a2.776 2.776 0 0 1 2.777 2.776 2.776 2.776 0 0 1 2.776-2.776 2.776 2.776 0 0 1-2.776-2.777 2.776 2.776 0 0 1-2.777 2.777zM901.107 960.29a2.776 2.776 0 0 1 2.777 2.777 2.776 2.776 0 0 1 2.776-2.776 2.776 2.776 0 0 1-2.776-2.777 2.776 2.776 0 0 1-2.777 2.777zM901.107 989.339a2.776 2.776 0 0 1 2.777 2.776 2.776 2.776 0 0 1 2.776-2.776 2.776 2.776 0 0 1-2.776-2.777 2.776 2.776 0 0 1-2.777 2.777zM803.827 916.719a2.776 2.776 0 0 1 2.777 2.776 2.776 2.776 0 0 1 2.776-2.776 2.776 2.776 0 0 1-2.776-2.776 2.776 2.776 0 0 1-2.777 2.776zM803.827 931.243a2.776 2.776 0 0 1 2.777 2.776 2.776 2.776 0 0 1 2.776-2.776 2.776 2.776 0 0 1-2.776-2.776 2.776 2.776 0 0 1-2.777 2.776zM803.827 945.767a2.776 2.776 0 0 1 2.777 2.776 2.776 2.776 0 0 1 2.776-2.776 2.776 2.776 0 0 1-2.776-2.777 2.776 2.776 0 0 1-2.777 2.777zM803.827 974.815a2.776 2.776 0 0 1 2.777 2.776 2.776 2.776 0 0 1 2.776-2.776 2.776 2.776 0 0 1-2.776-2.777 2.776 2.776 0 0 1-2.777 2.777zM803.827 960.29a2.776 2.776 0 0 1 2.777 2.777 2.776 2.776 0 0 1 2.776-2.776 2.776 2.776 0 0 1-2.776-2.777 2.776 2.776 0 0 1-2.777 2.777zM803.827 989.339a2.776 2.776 0 0 1 2.777 2.776 2.776 2.776 0 0 1 2.776-2.776 2.776 2.776 0 0 1-2.776-2.777 2.776 2.776 0 0 1-2.777 2.777zM865.602 916.719a2.776 2.776 0 0 1 2.777 2.776 2.776 2.776 0 0 1 2.776-2.776 2.776 2.776 0 0 1-2.776-2.776 2.776 2.776 0 0 1-2.777 2.776zM865.602 931.243a2.776 2.776 0 0 1 2.777 2.776 2.776 2.776 0 0 1 2.776-2.776 2.776 2.776 0 0 1-2.776-2.776 2.776 2.776 0 0 1-2.777 2.776zM865.602 945.767a2.776 2.776 0 0 1 2.777 2.776 2.776 2.776 0 0 1 2.776-2.776 2.776 2.776 0 0 1-2.776-2.777 2.776 2.776 0 0 1-2.777 2.777zM865.602 974.815a2.776 2.776 0 0 1 2.777 2.776 2.776 2.776 0 0 1 2.776-2.776 2.776 2.776 0 0 1-2.776-2.777 2.776 2.776 0 0 1-2.777 2.777zM865.602 960.29a2.776 2.776 0 0 1 2.777 2.777 2.776 2.776 0 0 1 2.776-2.776 2.776 2.776 0 0 1-2.776-2.777 2.776 2.776 0 0 1-2.777 2.777zM865.602 989.339a2.776 2.776 0 0 1 2.777 2.776 2.776 2.776 0 0 1 2.776-2.776 2.776 2.776 0 0 1-2.776-2.777 2.776 2.776 0 0 1-2.777 2.777z" style="marker:none" overflow="visible" stroke-width="3"/></g></g></svg>