<svg xmlns="http://www.w3.org/2000/svg" width="210mm" height="297mm"><title>Das Huygensche Prinzip</title><defs><marker orient="auto" id="a" overflow="visible"><path d="M8.719 4.034L-2.207.016 8.719-4.002c-1.746 2.372-1.736 5.618 0 8.036z" transform="rotate(180) scale(.6)" fill-rule="evenodd" stroke-width=".625" stroke-linejoin="round"/></marker></defs><path style="marker:none" color="#000" fill="#fff" stroke="#fff" stroke-linecap="round" stroke-linejoin="round" stroke-dasharray=".99999994,1.99999988" overflow="visible" d="M20.857 386.198h702.381v279.966H20.857z"/><path style="marker:none" color="#000" fill="#f9f9f9" stroke="#f9f9f9" stroke-width=".427" stroke-linecap="round" stroke-dasharray="1.28196478,2.56392956" overflow="visible" d="M41.713 398.267h660.668v251.087H41.713z"/><path style="marker:none" d="M218.338 564.14a57.036 57.036 0 1 1-80.66-80.66 57.036 57.036 0 1 1 80.66 80.66z" color="#000" fill="none" stroke="#999" stroke-width=".9994599000000001" stroke-linecap="round" stroke-linejoin="round" overflow="visible"/><path style="marker:none" d="M219.85 484.991a2.137 2.137 0 1 1-3.023-3.022 2.137 2.137 0 1 1 3.023 3.022zM139.188 484.991a2.137 2.137 0 1 1-3.022-3.022 2.137 2.137 0 1 1 3.022 3.022zM139.188 565.652a2.137 2.137 0 1 1-3.022-3.022 2.137 2.137 0 1 1 3.022 3.022zM219.85 565.652a2.137 2.137 0 1 1-3.023-3.022 2.137 2.137 0 1 1 3.023 3.022zM180.178 468.29a2.137 2.137 0 1 1-3.022-3.023 2.137 2.137 0 1 1 3.022 3.022zM236.555 525.324a2.137 2.137 0 1 1-3.022-3.022 2.137 2.137 0 1 1 3.022 3.022zM180.047 582.355a2.137 2.137 0 1 1-3.023-3.022 2.137 2.137 0 1 1 3.023 3.022zM122.504 523.754a2.137 2.137 0 1 1-3.022-3.023 2.137 2.137 0 1 1 3.022 3.023z" color="#000" fill="gray" stroke="#999" stroke-linecap="round" stroke-linejoin="round" overflow="visible"/><path d="M123.143 538.633a57.036 57.036 0 1 1 69.598-70.022" style="marker:none" color="#000" fill="none" stroke="#999" stroke-width=".9994599000000001" stroke-linecap="round" stroke-linejoin="round" stroke-dasharray=".6393443,1.91803289" overflow="visible"/><path style="marker:none" d="M148 572.479a57.036 57.036 0 1 1 2.48-99.06" color="#000" fill="none" stroke="#999" stroke-width=".9994599000000001" stroke-linecap="round" stroke-linejoin="round" stroke-dasharray=".6393443,2.55737719" overflow="visible"/><path d="M192.74 579.013a57.036 57.036 0 1 1-70.394-69.809M128.8 494.463a57.036 57.036 0 1 1 98.873 1.497M163.37 468.264a57.036 57.036 0 1 1 70.013 70.232" style="marker:none" color="#000" fill="none" stroke="#999" stroke-width=".9994599000000001" stroke-linecap="round" stroke-linejoin="round" stroke-dasharray=".6393443,1.91803289" overflow="visible"/><path style="marker:none" d="M205.74 473.949a57.036 57.036 0 1 1 1.675 98.838" color="#000" fill="none" stroke="#999" stroke-width=".9994599000000001" stroke-linecap="round" stroke-linejoin="round" stroke-dasharray=".63934422,1.91803266" overflow="visible"/><path d="M233.243 509.087a57.036 57.036 0 1 1-70 69.803M227.689 551.912a57.036 57.036 0 1 1-98.762.787" style="marker:none" color="#000" fill="none" stroke="#999" stroke-width=".9994599000000001" stroke-linecap="round" stroke-linejoin="round" stroke-dasharray=".6393443,1.91803289" overflow="visible"/><path d="M308.51 412.566a171.483 171.483 0 0 1 1.336 220.902" style="marker:none" color="#000" fill="none" stroke="#999" stroke-width="1.00164954" stroke-linecap="round" stroke-linejoin="round" overflow="visible"/><path style="marker:none" d="M258.6 604.403A113.975 113.975 0 1 1 97.415 443.218 113.975 113.975 0 1 1 258.6 604.403z" color="#000" fill="none" stroke="#999" stroke-width="1.0001728" stroke-linecap="round" stroke-linejoin="round" overflow="visible"/><path style="marker:none" d="M374.922 412.538a226.622 226.622 0 0 1 .85 221.023" color="#000" fill="none" stroke="#999" stroke-width="1.00056187" stroke-linecap="round" stroke-linejoin="round" overflow="visible"/><path d="M435.518 411.968a281.216 281.216 0 0 1 .687 222.086" style="marker:none" color="#000" fill="none" stroke="#999" stroke-width="1.002534" stroke-linecap="round" stroke-linejoin="round" overflow="visible"/><path style="marker:none" d="M494.412 412.231a335.981 335.981 0 0 1 .734 221.048" color="#000" fill="none" stroke="#999" stroke-width="1.00428567" stroke-linecap="round" stroke-linejoin="round" overflow="visible"/><path d="M551.883 411.98a391.02 391.02 0 0 1 .564 221.705" style="marker:none" color="#000" fill="none" stroke="#999" stroke-width=".99723714" stroke-linecap="round" stroke-linejoin="round" overflow="visible"/><path style="marker:none" d="M609.48 412.256a460.47 460.47 0 0 1-.196 221.607" color="#000" fill="none" stroke="#999" stroke-width=".99757329" stroke-linecap="round" stroke-linejoin="round" overflow="visible"/><path style="marker:none" d="M569.729 525.324a2.137 2.137 0 1 1-3.023-3.022 2.137 2.137 0 1 1 3.023 3.022z" opacity=".75" color="#000" fill="gray" stroke="#999" stroke-linecap="round" stroke-linejoin="round" overflow="visible"/><g opacity=".75" color="#000" fill="gray" stroke="#999" stroke-linecap="round" stroke-linejoin="round"><path d="M567.164 480.542a2.137 2.137 0 1 1-3.022-3.023 2.137 2.137 0 0 1 3.022 3.023zM567.164 568.252a2.137 2.137 0 1 1-3.022-3.022 2.137 2.137 0 0 1 3.022 3.022z" style="marker:none" overflow="visible"/></g><g color="#000" fill="gray" stroke="#999" stroke-linecap="round" stroke-linejoin="round" opacity=".75"><path d="M559.407 436.012a2.137 2.137 0 1 1-3.022-3.022 2.137 2.137 0 0 1 3.022 3.022zM559.407 612.781a2.137 2.137 0 1 1-3.022-3.022 2.137 2.137 0 0 1 3.022 3.022z" style="marker:none" overflow="visible"/></g><path d="M564.313 469.891a54.063 54.063 0 1 1 .304 107.865" style="marker:none" color="#000" fill="none" stroke="#999" stroke-width="1.0007347500000001" stroke-linecap="round" stroke-linejoin="round" stroke-dasharray=".67450239,2.02350716" overflow="visible"/><path style="marker:none" d="M179.519 525.322a2.137 2.137 0 1 1-3.022-3.023 2.137 2.137 0 1 1 3.022 3.023z" color="#000" fill="gray" stroke="#999" stroke-linecap="round" stroke-linejoin="round" overflow="visible"/><path style="marker:none" d="M568.81 508.456a54.063 54.063 0 1 1-11.067 107.296M566.788 557.943a54.063 54.063 0 0 1 40.314 75.724M556.416 428.13a54.063 54.063 0 1 1 11.016 107.3M607.169 412.252a54.063 54.063 0 0 1-40.557 75.605" color="#000" fill="none" stroke="#999" stroke-width="1.0007347500000001" stroke-linecap="round" stroke-linejoin="round" stroke-dasharray=".67450239,2.02350716" overflow="visible"/><path style="marker:none" d="M299.264 402.554a171.483 171.483 0 0 1 10.582 230.914" color="#000" fill="none" stroke="#999" stroke-width="1.00164954" stroke-linecap="round" stroke-linejoin="round" overflow="visible"/><g fill="none" stroke="#f60" stroke-width="1.615" stroke-linecap="round"><path d="M403.891 523.813c3.149-3.108 6.297-6.148 9.445-7.605 3.149-1.458 6.297-1.263 9.445.48 3.149 1.743 6.297 4.966 9.445 8.056 3.149 3.09 6.297 5.914 9.445 7.066 3.149 1.152 6.297.575 9.446-1.436 2.516-1.607 5.033-4.08 7.55-6.558M349.116 523.813c3.148-3.108 6.297-6.148 9.445-7.605 3.148-1.458 6.297-1.263 9.445.48 3.148 1.743 6.297 4.966 9.445 8.056 3.148 3.09 6.297 5.914 9.445 7.066 3.148 1.152 6.297.575 9.445-1.436 2.517-1.607 5.034-4.08 7.55-6.558M235.044 523.813c3.278-3.108 6.556-6.148 9.835-7.605 3.278-1.458 6.556-1.263 9.835.48 3.278 1.743 6.556 4.966 9.834 8.056 3.279 3.09 6.557 5.914 9.835 7.066 3.279 1.152 6.557.575 9.835-1.436 2.62-1.607 5.241-4.08 7.862-6.558M292.08 523.813c3.278-3.108 6.556-6.148 9.835-7.605 3.278-1.458 6.556-1.263 9.835.48 3.278 1.743 6.556 4.966 9.834 8.056 3.279 3.09 6.557 5.914 9.835 7.066 3.279 1.152 6.557.575 9.835-1.436 2.62-1.607 5.241-4.08 7.862-6.558" transform="matrix(1 0 0 .86294 0 71.716)"/><path d="M178.008 523.81c3.278-3.108 6.556-6.148 9.835-7.605 3.278-1.458 6.556-1.263 9.834.48 3.279 1.743 6.557 4.966 9.835 8.056 3.279 3.09 6.557 5.914 9.835 7.066 3.278 1.152 6.557.575 9.835-1.436 2.62-1.607 5.241-4.08 7.862-6.558M458.667 523.813c3.148-3.108 6.296-6.148 9.445-7.605 3.148-1.458 6.296-1.263 9.445.48 3.148 1.743 6.296 4.966 9.445 8.056 3.148 3.09 6.296 5.914 9.445 7.066 3.148 1.152 6.297.575 9.445-1.436 2.517-1.607 5.033-4.08 7.55-6.558M513.442 523.813c3.148-3.108 6.297-6.148 9.445-7.605 3.148-1.458 6.297-1.263 9.445.48 3.148 1.743 6.297 4.966 9.445 8.056 3.148 3.09 6.297 5.914 9.445 7.066 3.149 1.152 6.297.575 9.445-1.436 2.517-1.607 5.034-4.08 7.55-6.558" transform="matrix(1 0 0 .86294 0 71.716)"/><path d="M622.993 523.813c3.148-3.108 6.296-6.148 9.445-7.605 3.148-1.458 6.296-1.263 9.445.48 3.148 1.743 6.297 4.966 9.445 8.056 3.148 3.09 6.297 5.914 9.445 7.066 3.148 1.152 6.297.575 9.445-1.436 2.517-1.607 5.033-4.08 7.55-6.558" marker-end="url(#a)" transform="matrix(1 0 0 .86294 0 71.716)"/><path d="M568.217 523.813c3.149-3.108 6.297-6.148 9.445-7.605 3.149-1.458 6.297-1.263 9.445.48 3.149 1.743 6.297 4.966 9.446 8.056 3.148 3.09 6.296 5.914 9.445 7.066 3.148 1.152 6.296.575 9.445-1.436 2.516-1.607 5.033-4.08 7.55-6.558" transform="matrix(1 0 0 .86294 0 71.716)"/></g></svg>