<svg xmlns:ns0="http://www.iki.fi/pav/software/textext/" xmlns="http://www.w3.org/2000/svg" xmlns:xlink="http://www.w3.org/1999/xlink" height="1122.52" width="1587.402" viewBox="0 0 1488.189 1052.3622"><title>Interferenz zweier kreisfoermiger Wellen</title><path style="marker:none" color="#000" overflow="visible" fill="#fff" fill-rule="evenodd" stroke="#fff" stroke-width="1.5" d="M56.094 408.181h1376v236h-1376z"/><g transform="translate(60.714 510.297) scale(4.62289)" fill="green"><use y="134.765" x="231.736" xlink:href="#textext-082fa4b4-3" width="744.094" height="1052.362"/><use y="134.765" x="231.736" xlink:href="#textext-082fa4b4-3" width="744.094" height="1052.362"/><g ns0:preamble="/home/waldgeist/data/sphinx/test.tex" ns0:text="$\\Delta \\vec{r} = \\vec{r}_{\\rm{2}} - \\vec{r}_{\\rm{1}} $"><use y="134.765" x="223.432" xlink:href="#textext-082fa4b4-0" width="744.094" height="1052.362"/><use y="134.765" x="231.417" xlink:href="#textext-082fa4b4-2" width="744.094" height="1052.362"/><use y="134.765" x="231.736" xlink:href="#textext-082fa4b4-3" width="744.094" height="1052.362"/><use y="134.765" x="239.273" xlink:href="#textext-082fa4b4-1" width="744.094" height="1052.362"/><use y="134.765" x="249.472" xlink:href="#textext-082fa4b4-2" width="744.094" height="1052.362"/><use y="134.765" x="249.791" xlink:href="#textext-082fa4b4-3" width="744.094" height="1052.362"/><use y="136.259" x="254.284" xlink:href="#textext-082fa4b4-4" width="744.094" height="1052.362"/><use y="134.765" x="260.967" xlink:href="#textext-082fa4b4-6" width="744.094" height="1052.362"/><use y="134.765" x="270.612" xlink:href="#textext-082fa4b4-2" width="744.094" height="1052.362"/><use y="134.765" x="270.931" xlink:href="#textext-082fa4b4-3" width="744.094" height="1052.362"/><use y="136.259" x="275.425" xlink:href="#textext-082fa4b4-5" width="744.094" height="1052.362"/></g><g ns0:preamble="/home/waldgeist/data/sphinx/test.tex" ns0:text="$\\Delta \\vec{r} = \\vec{r}_{\\rm{2}} - \\vec{r}_{\\rm{1}} $"><use y="134.765" x="223.432" xlink:href="#textext-082fa4b4-0" width="744.094" height="1052.362"/><use y="134.765" x="231.417" xlink:href="#textext-082fa4b4-2" width="744.094" height="1052.362"/><use y="134.765" x="231.736" xlink:href="#textext-082fa4b4-3" width="744.094" height="1052.362"/><use y="134.765" x="239.273" xlink:href="#textext-082fa4b4-1" width="744.094" height="1052.362"/><use y="134.765" x="249.472" xlink:href="#textext-082fa4b4-2" width="744.094" height="1052.362"/><use y="134.765" x="249.791" xlink:href="#textext-082fa4b4-3" width="744.094" height="1052.362"/><use y="136.259" x="254.284" xlink:href="#textext-082fa4b4-4" width="744.094" height="1052.362"/><use y="134.765" x="260.967" xlink:href="#textext-082fa4b4-6" width="744.094" height="1052.362"/><use y="134.765" x="270.612" xlink:href="#textext-082fa4b4-2" width="744.094" height="1052.362"/><use y="134.765" x="270.931" xlink:href="#textext-082fa4b4-3" width="744.094" height="1052.362"/><use y="136.259" x="275.425" xlink:href="#textext-082fa4b4-5" width="744.094" height="1052.362"/></g><g ns0:preamble="/home/waldgeist/data/sphinx/test.tex" ns0:text="$\\Delta \\vec{r} = \\vec{r}_{\\rm{2}} - \\vec{r}_{\\rm{1}} $"><use y="134.765" x="223.432" xlink:href="#textext-082fa4b4-0" width="744.094" height="1052.362"/><use y="134.765" x="231.417" xlink:href="#textext-082fa4b4-2" width="744.094" height="1052.362"/><use y="134.765" x="231.736" xlink:href="#textext-082fa4b4-3" width="744.094" height="1052.362"/><use y="134.765" x="239.273" xlink:href="#textext-082fa4b4-1" width="744.094" height="1052.362"/><use y="134.765" x="249.472" xlink:href="#textext-082fa4b4-2" width="744.094" height="1052.362"/><use y="134.765" x="249.791" xlink:href="#textext-082fa4b4-3" width="744.094" height="1052.362"/><use y="136.259" x="254.284" xlink:href="#textext-082fa4b4-4" width="744.094" height="1052.362"/><use y="134.765" x="260.967" xlink:href="#textext-082fa4b4-6" width="744.094" height="1052.362"/><use y="134.765" x="270.612" xlink:href="#textext-082fa4b4-2" width="744.094" height="1052.362"/><use y="134.765" x="270.931" xlink:href="#textext-082fa4b4-3" width="744.094" height="1052.362"/><use y="136.259" x="275.425" xlink:href="#textext-082fa4b4-5" width="744.094" height="1052.362"/></g></g><g stroke-width="4.268" color="#000" fill="none" stroke="#000" stroke-linecap="round" stroke-linejoin="round"><path style="marker:none" d="M-514.774-627.724a127.28 127.28 0 0 1-63.64 110.228 127.28 127.28 0 0 1-127.279 0 127.28 127.28 0 0 1-63.64-110.228" transform="matrix(.0716 0 0 -.06921 549.962 553.3)" overflow="visible" stroke-width="21.307"/><path transform="matrix(1.1032 0 0 -1.10884 1212.296 -99.3)" d="M-514.774-627.724a127.28 127.28 0 0 1-63.64 110.228 127.28 127.28 0 0 1-127.279 0 127.28 127.28 0 0 1-63.64-110.228" style="marker:none" overflow="visible" stroke-width="1.356"/><g stroke-width="3.964"><path style="marker:none" d="M519.354 596.748c0-8.346-6.88-15.111-15.367-15.111-8.486 0-15.366 6.765-15.366 15.11" overflow="visible" stroke-width="1.5000568799999998"/><path style="marker:none" d="M525.606 596.748c0-11.826-9.679-21.412-21.619-21.412s-21.618 9.586-21.618 21.412" overflow="visible" stroke-width="1.5000568799999998"/><path style="marker:none" d="M531.858 596.748c0-15.306-12.478-27.713-27.87-27.713-15.393 0-27.872 12.407-27.872 27.713" overflow="visible" stroke-width="1.5000568799999998"/><path style="marker:none" d="M538.11 596.748c0-18.786-15.277-34.014-34.123-34.014-18.845 0-34.123 15.228-34.123 34.014" overflow="visible" stroke-width="1.5000568799999998"/><path style="marker:none" d="M544.363 596.748c0-22.266-18.077-40.315-40.376-40.315-22.298 0-40.375 18.05-40.375 40.315" overflow="visible" stroke-width="1.5000568799999998"/><path style="marker:none" d="M550.616 596.748c0-25.746-20.877-46.617-46.629-46.617s-46.628 20.871-46.628 46.617" overflow="visible" stroke-width="1.5000568799999998"/><path style="marker:none" d="M556.868 596.748c0-29.226-23.676-52.918-52.88-52.918-29.206 0-52.881 23.692-52.881 52.918" overflow="visible" stroke-width="1.5000568799999998"/><path style="marker:none" d="M563.12 596.748c0-32.706-26.474-59.219-59.133-59.219-32.658 0-59.132 26.513-59.132 59.219" overflow="visible" stroke-width="1.5000568799999998"/><path style="marker:none" d="M569.373 596.748c0-36.186-29.274-65.52-65.386-65.52-36.11 0-65.385 29.334-65.385 65.52" overflow="visible" stroke-width="1.5000568799999998"/><path style="marker:none" d="M575.625 596.748c0-39.666-32.073-71.821-71.638-71.821-39.564 0-71.637 32.155-71.637 71.82" overflow="visible" stroke-width="1.5000568799999998"/><path style="marker:none" d="M581.877 596.748c0-43.146-34.872-78.122-77.89-78.122-43.017 0-77.89 34.976-77.89 78.122" overflow="visible" stroke-width="1.5000568799999998"/><path style="marker:none" d="M588.13 596.748c0-46.626-37.672-84.423-84.143-84.423-46.47 0-84.142 37.797-84.142 84.423" overflow="visible" stroke-width="1.5000568799999998"/><path style="marker:none" d="M594.382 596.748c0-50.106-40.471-90.724-90.395-90.724-49.923 0-90.394 40.618-90.394 90.724" overflow="visible" stroke-width="1.5000568799999998"/><path style="marker:none" d="M600.634 596.748c0-53.586-43.27-97.025-96.647-97.025-53.376 0-96.647 43.44-96.647 97.025" overflow="visible" stroke-width="1.5000568799999998"/><path style="marker:none" d="M606.887 596.748c0-57.066-46.07-103.326-102.9-103.326-56.83 0-102.899 46.26-102.899 103.326" overflow="visible" stroke-width="1.5000568799999998"/><path style="marker:none" d="M613.14 596.748c0-60.546-48.87-109.628-109.153-109.628-60.282 0-109.151 49.082-109.151 109.628" overflow="visible" stroke-width="1.5000568799999998"/><path style="marker:none" d="M619.392 596.748c0-64.026-51.669-115.929-115.405-115.929-63.735 0-115.404 51.903-115.404 115.929" overflow="visible" stroke-width="1.5000568799999998"/><path style="marker:none" d="M625.644 596.748c0-67.506-54.468-122.23-121.657-122.23s-121.656 54.724-121.656 122.23" overflow="visible" stroke-width="1.5000568799999998"/><path style="marker:none" d="M631.896 596.748c0-70.986-57.266-128.53-127.909-128.53-70.642 0-127.908 57.544-127.908 128.53" overflow="visible" stroke-width="1.5000568799999998"/><path style="marker:none" d="M638.149 596.748c0-74.466-60.066-134.832-134.162-134.832-74.095 0-134.16 60.366-134.16 134.832" overflow="visible" stroke-width="1.5000568799999998"/></g><g><path transform="matrix(.0716 0 0 -.06921 238.436 553.3)" d="M-514.774-627.724a127.28 127.28 0 0 1-63.64 110.228 127.28 127.28 0 0 1-127.279 0 127.28 127.28 0 0 1-63.64-110.228" style="marker:none" overflow="visible" stroke-width="21.307"/><path style="marker:none" d="M-514.774-627.724a127.28 127.28 0 0 1-63.64 110.228 127.28 127.28 0 0 1-127.279 0 127.28 127.28 0 0 1-63.64-110.228" transform="matrix(1.1032 0 0 -1.10884 900.77 -99.3)" overflow="visible" stroke-width="1.356"/><g stroke-width="3.964"><path d="M207.827 596.748c0-8.346-6.88-15.111-15.366-15.111s-15.366 6.765-15.366 15.11" style="marker:none" overflow="visible" stroke-width="1.5000568799999998"/><path d="M214.08 596.748c0-11.826-9.68-21.412-21.619-21.412-11.94 0-21.618 9.586-21.618 21.412" style="marker:none" overflow="visible" stroke-width="1.5000568799999998"/><path d="M220.332 596.748c0-15.306-12.478-27.713-27.87-27.713-15.394 0-27.872 12.407-27.872 27.713" style="marker:none" overflow="visible" stroke-width="1.5000568799999998"/><path d="M226.584 596.748c0-18.786-15.277-34.014-34.123-34.014-18.846 0-34.123 15.228-34.123 34.014" style="marker:none" overflow="visible" stroke-width="1.5000568799999998"/><path d="M232.837 596.748c0-22.266-18.077-40.315-40.376-40.315-22.299 0-40.376 18.05-40.376 40.315" style="marker:none" overflow="visible" stroke-width="1.5000568799999998"/><path d="M239.09 596.748c0-25.746-20.877-46.617-46.629-46.617s-46.628 20.871-46.628 46.617" style="marker:none" overflow="visible" stroke-width="1.5000568799999998"/><path d="M245.342 596.748c0-29.226-23.676-52.918-52.88-52.918-29.206 0-52.881 23.692-52.881 52.918" style="marker:none" overflow="visible" stroke-width="1.5000568799999998"/><path d="M251.594 596.748c0-32.706-26.475-59.219-59.133-59.219s-59.133 26.513-59.133 59.219" style="marker:none" overflow="visible" stroke-width="1.5000568799999998"/><path d="M257.846 596.748c0-36.186-29.274-65.52-65.385-65.52-36.111 0-65.385 29.334-65.385 65.52" style="marker:none" overflow="visible" stroke-width="1.5000568799999998"/><path d="M264.099 596.748c0-39.666-32.074-71.821-71.638-71.821-39.564 0-71.637 32.155-71.637 71.82" style="marker:none" overflow="visible" stroke-width="1.5000568799999998"/><path d="M270.351 596.748c0-43.146-34.872-78.122-77.89-78.122-43.017 0-77.89 34.976-77.89 78.122" style="marker:none" overflow="visible" stroke-width="1.5000568799999998"/><path d="M276.603 596.748c0-46.626-37.671-84.423-84.142-84.423-46.47 0-84.142 37.797-84.142 84.423" style="marker:none" overflow="visible" stroke-width="1.5000568799999998"/><path d="M282.856 596.748c0-50.106-40.471-90.724-90.395-90.724-49.923 0-90.394 40.618-90.394 90.724" style="marker:none" overflow="visible" stroke-width="1.5000568799999998"/><path d="M289.108 596.748c0-53.586-43.27-97.025-96.647-97.025-53.376 0-96.647 43.44-96.647 97.025" style="marker:none" overflow="visible" stroke-width="1.5000568799999998"/><path d="M295.36 596.748c0-57.066-46.07-103.326-102.899-103.326-56.83 0-102.9 46.26-102.9 103.326" style="marker:none" overflow="visible" stroke-width="1.5000568799999998"/><path d="M301.613 596.748c0-60.546-48.869-109.628-109.152-109.628S83.31 536.202 83.31 596.748" style="marker:none" overflow="visible" stroke-width="1.5000568799999998"/><path d="M307.865 596.748c0-64.026-51.668-115.929-115.404-115.929S77.057 532.722 77.057 596.748" style="marker:none" overflow="visible" stroke-width="1.5000568799999998"/><path d="M314.118 596.748c0-67.506-54.468-122.23-121.657-122.23S70.805 529.242 70.805 596.748" style="marker:none" overflow="visible" stroke-width="1.5000568799999998"/><path d="M320.37 596.748c0-70.986-57.267-128.53-127.909-128.53S64.552 525.761 64.552 596.747" style="marker:none" overflow="visible" stroke-width="1.5000568799999998"/><path d="M326.622 596.748c0-74.466-60.066-134.832-134.16-134.832-74.096 0-134.162 60.366-134.162 134.832" style="marker:none" overflow="visible" stroke-width="1.5000568799999998"/></g></g></g><g stroke-width="4.268" color="#000" fill="none" stroke="#000" stroke-linecap="round" stroke-linejoin="round"><path transform="matrix(.0716 0 0 -.06921 1218.087 553.3)" d="M-514.774-627.724a127.28 127.28 0 0 1-63.64 110.228 127.28 127.28 0 0 1-127.279 0 127.28 127.28 0 0 1-63.64-110.228" style="marker:none" overflow="visible" stroke-width="21.307"/><path style="marker:none" d="M-514.774-627.724a127.28 127.28 0 0 1-63.64 110.228 127.28 127.28 0 0 1-127.279 0 127.28 127.28 0 0 1-63.64-110.228" transform="matrix(1.1032 0 0 -1.10884 1880.42 -99.3)" overflow="visible" stroke-width="1.356"/><g stroke-width="3.964"><path d="M1187.478 596.748c0-8.346-6.88-15.111-15.366-15.111s-15.366 6.765-15.366 15.11" style="marker:none" overflow="visible" stroke-width="1.5000568799999998"/><path d="M1193.73 596.748c0-11.826-9.678-21.412-21.618-21.412-11.94 0-21.618 9.586-21.618 21.412" style="marker:none" overflow="visible" stroke-width="1.5000568799999998"/><path d="M1199.983 596.748c0-15.306-12.478-27.713-27.87-27.713-15.394 0-27.872 12.407-27.872 27.713" style="marker:none" overflow="visible" stroke-width="1.5000568799999998"/><path d="M1206.235 596.748c0-18.786-15.277-34.014-34.123-34.014-18.846 0-34.123 15.228-34.123 34.014" style="marker:none" overflow="visible" stroke-width="1.5000568799999998"/><path d="M1212.488 596.748c0-22.266-18.077-40.315-40.376-40.315-22.299 0-40.376 18.05-40.376 40.315" style="marker:none" overflow="visible" stroke-width="1.5000568799999998"/><path d="M1218.74 596.748c0-25.746-20.876-46.617-46.628-46.617s-46.628 20.871-46.628 46.617" style="marker:none" overflow="visible" stroke-width="1.5000568799999998"/><path d="M1224.993 596.748c0-29.226-23.676-52.918-52.88-52.918-29.206 0-52.881 23.692-52.881 52.918" style="marker:none" overflow="visible" stroke-width="1.5000568799999998"/><path d="M1231.245 596.748c0-32.706-26.475-59.219-59.133-59.219s-59.133 26.513-59.133 59.219" style="marker:none" overflow="visible" stroke-width="1.5000568799999998"/><path d="M1237.497 596.748c0-36.186-29.274-65.52-65.385-65.52-36.111 0-65.385 29.334-65.385 65.52" style="marker:none" overflow="visible" stroke-width="1.5000568799999998"/><path d="M1243.75 596.748c0-39.666-32.074-71.821-71.638-71.821-39.564 0-71.637 32.155-71.637 71.82" style="marker:none" overflow="visible" stroke-width="1.5000568799999998"/><path d="M1250.002 596.748c0-43.146-34.872-78.122-77.89-78.122-43.017 0-77.89 34.976-77.89 78.122" style="marker:none" overflow="visible" stroke-width="1.5000568799999998"/><path d="M1256.254 596.748c0-46.626-37.671-84.423-84.142-84.423-46.47 0-84.142 37.797-84.142 84.423" style="marker:none" overflow="visible" stroke-width="1.5000568799999998"/><path d="M1262.507 596.748c0-50.106-40.471-90.724-90.395-90.724-49.923 0-90.394 40.618-90.394 90.724" style="marker:none" overflow="visible" stroke-width="1.5000568799999998"/><path d="M1268.76 596.748c0-53.586-43.271-97.025-96.648-97.025-53.377 0-96.647 43.44-96.647 97.025" style="marker:none" overflow="visible" stroke-width="1.5000568799999998"/><path d="M1275.012 596.748c0-57.066-46.07-103.326-102.9-103.326-56.83 0-102.9 46.26-102.9 103.326" style="marker:none" overflow="visible" stroke-width="1.5000568799999998"/><path d="M1281.264 596.748c0-60.546-48.869-109.628-109.152-109.628s-109.152 49.082-109.152 109.628" style="marker:none" overflow="visible" stroke-width="1.5000568799999998"/><path d="M1287.516 596.748c0-64.026-51.668-115.929-115.404-115.929s-115.404 51.903-115.404 115.929" style="marker:none" overflow="visible" stroke-width="1.5000568799999998"/><path d="M1293.769 596.748c0-67.506-54.468-122.23-121.657-122.23s-121.656 54.724-121.656 122.23" style="marker:none" overflow="visible" stroke-width="1.5000568799999998"/><path d="M1300.021 596.748c0-70.986-57.267-128.53-127.909-128.53s-127.909 57.544-127.909 128.53" style="marker:none" overflow="visible" stroke-width="1.5000568799999998"/><path d="M1306.273 596.748c0-74.466-60.066-134.832-134.16-134.832-74.096 0-134.162 60.366-134.162 134.832" style="marker:none" overflow="visible" stroke-width="1.5000568799999998"/></g><g><path style="marker:none" d="M-514.774-627.724a127.28 127.28 0 0 1-63.64 110.228 127.28 127.28 0 0 1-127.279 0 127.28 127.28 0 0 1-63.64-110.228" transform="matrix(.0716 0 0 -.06921 1171.162 553.3)" overflow="visible" stroke-width="21.307"/><path transform="matrix(1.1032 0 0 -1.10884 1833.496 -99.3)" d="M-514.774-627.724a127.28 127.28 0 0 1-63.64 110.228 127.28 127.28 0 0 1-127.279 0 127.28 127.28 0 0 1-63.64-110.228" style="marker:none" overflow="visible" stroke-width="1.356"/><g stroke-width="3.964"><path style="marker:none" d="M1140.554 596.748c0-8.346-6.88-15.111-15.367-15.111-8.486 0-15.366 6.765-15.366 15.11" overflow="visible" stroke-width="1.5000568799999998"/><path style="marker:none" d="M1146.806 596.748c0-11.826-9.679-21.412-21.619-21.412s-21.618 9.586-21.618 21.412" overflow="visible" stroke-width="1.5000568799999998"/><path style="marker:none" d="M1153.058 596.748c0-15.306-12.478-27.713-27.87-27.713-15.393 0-27.872 12.407-27.872 27.713" overflow="visible" stroke-width="1.5000568799999998"/><path style="marker:none" d="M1159.31 596.748c0-18.786-15.277-34.014-34.123-34.014-18.845 0-34.123 15.228-34.123 34.014" overflow="visible" stroke-width="1.5000568799999998"/><path style="marker:none" d="M1165.563 596.748c0-22.266-18.077-40.315-40.376-40.315-22.298 0-40.375 18.05-40.375 40.315" overflow="visible" stroke-width="1.5000568799999998"/><path style="marker:none" d="M1171.816 596.748c0-25.746-20.877-46.617-46.629-46.617s-46.628 20.871-46.628 46.617" overflow="visible" stroke-width="1.5000568799999998"/><path style="marker:none" d="M1178.068 596.748c0-29.226-23.676-52.918-52.88-52.918-29.206 0-52.881 23.692-52.881 52.918" overflow="visible" stroke-width="1.5000568799999998"/><path style="marker:none" d="M1184.32 596.748c0-32.706-26.474-59.219-59.133-59.219-32.658 0-59.132 26.513-59.132 59.219" overflow="visible" stroke-width="1.5000568799999998"/><path style="marker:none" d="M1190.573 596.748c0-36.186-29.274-65.52-65.386-65.52-36.11 0-65.385 29.334-65.385 65.52" overflow="visible" stroke-width="1.5000568799999998"/><path style="marker:none" d="M1196.825 596.748c0-39.666-32.073-71.821-71.638-71.821-39.564 0-71.637 32.155-71.637 71.82" overflow="visible" stroke-width="1.5000568799999998"/><path style="marker:none" d="M1203.077 596.748c0-43.146-34.872-78.122-77.89-78.122-43.017 0-77.89 34.976-77.89 78.122" overflow="visible" stroke-width="1.5000568799999998"/><path style="marker:none" d="M1209.33 596.748c0-46.626-37.672-84.423-84.143-84.423-46.47 0-84.142 37.797-84.142 84.423" overflow="visible" stroke-width="1.5000568799999998"/><path style="marker:none" d="M1215.582 596.748c0-50.106-40.471-90.724-90.395-90.724-49.923 0-90.394 40.618-90.394 90.724" overflow="visible" stroke-width="1.5000568799999998"/><path style="marker:none" d="M1221.834 596.748c0-53.586-43.27-97.025-96.647-97.025-53.376 0-96.647 43.44-96.647 97.025" overflow="visible" stroke-width="1.5000568799999998"/><path style="marker:none" d="M1228.087 596.748c0-57.066-46.07-103.326-102.9-103.326-56.83 0-102.899 46.26-102.899 103.326" overflow="visible" stroke-width="1.5000568799999998"/><path style="marker:none" d="M1234.34 596.748c0-60.546-48.87-109.628-109.153-109.628-60.282 0-109.151 49.082-109.151 109.628" overflow="visible" stroke-width="1.5000568799999998"/><path style="marker:none" d="M1240.592 596.748c0-64.026-51.669-115.929-115.405-115.929-63.735 0-115.404 51.903-115.404 115.929" overflow="visible" stroke-width="1.5000568799999998"/><path style="marker:none" d="M1246.844 596.748c0-67.506-54.468-122.23-121.657-122.23s-121.656 54.724-121.656 122.23" overflow="visible" stroke-width="1.5000568799999998"/><path style="marker:none" d="M1253.096 596.748c0-70.986-57.266-128.53-127.909-128.53-70.642 0-127.908 57.544-127.908 128.53" overflow="visible" stroke-width="1.5000568799999998"/><path style="marker:none" d="M1259.349 596.748c0-74.466-60.066-134.832-134.162-134.832-74.095 0-134.16 60.366-134.16 134.832" overflow="visible" stroke-width="1.5000568799999998"/></g></g></g><path style="marker:none" d="M837.032 489.57v24.026H755.33v25.137h81.702v24.059l36.813-36.61z" color="#000" overflow="visible" fill="#b3b3b3" fill-rule="evenodd" stroke="#000" stroke-width="1.5"/></svg>