<svg xmlns:ns0="http://www.iki.fi/pav/software/textext/" xmlns="http://www.w3.org/2000/svg" xmlns:xlink="http://www.w3.org/1999/xlink" width="1052.362" height="1488.189"><title>Interferenz zweier Wellen</title><defs><marker id="a" orient="auto" overflow="visible"><path d="M2.308 0l-3.46 2v-4l3.46 2z" fill-rule="evenodd" stroke="#000" stroke-width=".4pt"/></marker></defs><path style="marker:none" color="#000" fill="#fff" stroke="#fff" stroke-width="4" stroke-linecap="round" stroke-dasharray="3.99999996,7.99999986" overflow="visible" d="M26.491 7.605h999.379v1472.978H26.491z"/><path d="M289.308-385.375h136.868" fill="#0f0" stroke="#0f0" stroke-width="1.444" stroke-linecap="square" marker-end="url(#a)" transform="translate(0 435.827)"/><g ns0:text="$v_1$" transform="translate(-432.655 -435.522) scale(3.47861)" fill="#0f0"><defs><symbol overflow="visible" id="b"><path d="M4.672-3.703c0-.547-.266-.703-.438-.703-.25 0-.5.265-.5.484 0 .125.047.188.157.297.218.203.343.453.343.813 0 .421-.609 2.703-1.765 2.703-.516 0-.75-.344-.75-.875 0-.547.281-1.282.578-2.11.078-.172.125-.312.125-.5 0-.437-.313-.812-.813-.812-.937 0-1.312 1.453-1.312 1.531 0 .11.094.11.11.11.109 0 .109-.032.156-.188.296-1 .718-1.235 1.015-1.235.078 0 .25 0 .25.313 0 .25-.11.531-.172.703-.437 1.156-.562 1.61-.562 2.047 0 1.078.875 1.234 1.328 1.234 1.672 0 2.25-3.296 2.25-3.812zm0 0"/></symbol><symbol overflow="visible" id="c"><path d="M2.328-4.438c0-.187 0-.187-.203-.187-.453.438-1.078.438-1.36.438v.25c.157 0 .626 0 1-.188v3.547c0 .234 0 .328-.687.328H.812V0c.125 0 .985-.031 1.235-.031.219 0 1.094.031 1.25.031v-.25H3.03c-.703 0-.703-.094-.703-.328zm0 0"/></symbol></defs><use height="1052.362" width="1488.189" xlink:href="#b" x="223.432" y="134.765"/><use height="1052.362" width="1488.189" xlink:href="#c" x="228.261" y="136.259"/></g><path d="M526.41 242.496c21.142-10.968 42.284-21.693 63.426-26.836 21.142-5.143 42.284-4.454 63.425 1.696 21.142 6.15 42.284 17.52 63.426 28.424 21.142 10.904 42.284 20.867 63.426 24.932 21.142 4.065 42.284 2.03 63.426-5.067 16.9-5.672 33.8-14.395 50.7-23.14" fill="none" stroke="green" stroke-width="6" stroke-linecap="round"/><path d="M6.854-238.279h1031.833M6.854-157.787V-317.65" fill="none" stroke="gray" stroke-width="3.75" marker-end="url(#a)" transform="matrix(.8 0 0 .8 105.236 433.119)"/><use y="134.765" x="223.432" xlink:href="#d" width="1488.189" height="1052.362" transform="matrix(2.78289 0 0 2.78289 -535.124 -189.914)" ns0:preamble="/home/waldgeist/data/sphinx/test.tex" ns0:text="$y$"/><use transform="translate(303.024 -108.854) scale(2.79824)" xlink:href="#e" x="223.432" y="134.765" width="1488.189" height="1052.362" ns0:text="$x$" ns0:preamble="/home/waldgeist/data/sphinx/test.tex"/><path d="M158.58 242.506c21.143 10.968 42.284 21.693 63.426 26.835 21.142 5.143 42.284 4.455 63.426-1.695 21.142-6.15 42.284-17.52 63.426-28.424 21.142-10.904 42.283-20.867 63.425-24.933 21.142-4.065 42.284-2.029 63.426 5.067 16.9 5.673 33.8 14.396 50.701 23.14" fill="none" stroke="green" stroke-width="6" stroke-linecap="round"/><path d="M158.58 242.506c21.143 10.968 42.284 21.693 63.426 26.835 21.142 5.143 42.284 4.455 63.426-1.695 21.142-6.15 42.284-17.52 63.426-28.424 21.142-10.904 42.283-20.867 63.425-24.933 21.142-4.065 42.284-2.029 63.426 5.067 16.9 5.673 33.8 14.396 50.701 23.14" fill="none" stroke="#0f0" stroke-width="3" stroke-linecap="round"/><path d="M526.41 242.496c21.142-10.968 42.284-21.693 63.426-26.836 21.142-5.143 42.284-4.454 63.425 1.696 21.142 6.15 42.284 17.52 63.426 28.424 21.142 10.904 42.284 20.867 63.426 24.932 21.142 4.065 42.284 2.03 63.426-5.067 16.9-5.672 33.8-14.395 50.7-23.14" fill="none" stroke="#00d400" stroke-width="4" stroke-linecap="round" stroke-dasharray="5,10"/><path d="M6.854-56.279h1031.833M6.854 24.213V-135.65" fill="none" stroke="gray" stroke-width="3.75" marker-end="url(#a)" transform="matrix(.8 0 0 .8 105.236 431.73)"/><use height="1052.362" width="1488.189" xlink:href="#d" x="223.432" y="134.765" transform="matrix(2.78289 0 0 2.78289 -535.124 -45.703)" ns0:text="$y$" ns0:preamble="/home/waldgeist/data/sphinx/test.tex"/><use height="1052.362" width="1488.189" y="134.765" x="223.432" xlink:href="#e" transform="translate(303.024 35.357) scale(2.79824)" ns0:preamble="/home/waldgeist/data/sphinx/test.tex" ns0:text="$x$"/><path d="M204.418 386.707c21.142 10.968 42.284 21.693 63.426 26.835 21.142 5.143 42.283 4.455 63.425-1.695 21.142-6.15 42.284-17.52 63.426-28.424 21.142-10.905 42.284-20.867 63.426-24.933 8.07-1.552 14.397-2.238 22.467-2.07M480.511 356.476c1.04-.745 2.08-1.49 3.121-2.231 10.56-7.53 21.118-14.41 31.677-17.216 10.56-2.807 21.119-1.401 31.678 3.498 8.44 3.917 16.881 9.94 25.322 15.978" fill="none" stroke="green" stroke-width="6" stroke-linecap="round"/><path d="M204.418 386.707c21.142 10.968 42.284 21.693 63.426 26.835 21.142 5.143 42.283 4.455 63.425-1.695 21.142-6.15 42.284-17.52 63.426-28.424 21.142-10.905 42.284-20.867 63.426-24.933 21.142-4.065 42.283-2.029 63.425 5.067 16.9 5.672 33.801 14.396 50.701 23.14" fill="none" stroke="#0f0" stroke-width="3" stroke-linecap="round"/><path d="M571.281 356.423c12.027-.104 24.055 1.627 36.082 5.125 21.142 6.15 42.284 17.52 63.425 28.424 21.142 10.905 42.284 20.868 63.426 24.933 21.142 4.065 42.284 2.029 63.426-5.067 16.9-5.672 33.8-14.396 50.7-23.14" fill="none" stroke="green" stroke-width="6" stroke-linecap="round"/><path d="M480.511 386.688c21.142-10.968 42.284-21.693 63.426-26.835 21.142-5.143 42.284-4.455 63.426 1.695 21.142 6.15 42.284 17.52 63.425 28.424 21.142 10.905 42.284 20.868 63.426 24.933 21.142 4.065 42.284 2.029 63.426-5.067 16.9-5.672 33.8-14.396 50.7-23.14" fill="none" stroke="#00d400" stroke-width="4" stroke-linecap="round" stroke-dasharray="5,10"/><path d="M6.854 123.721h1031.833M6.854 204.213V44.35" fill="none" stroke="gray" stroke-width="3.75" marker-end="url(#a)" transform="matrix(.8 0 0 .8 105.236 431.94)"/><use y="134.765" x="223.432" xlink:href="#d" width="1488.189" height="1052.362" transform="matrix(2.78289 0 0 2.78289 -535.124 98.508)" ns0:preamble="/home/waldgeist/data/sphinx/test.tex" ns0:text="$y$"/><use transform="translate(303.024 179.568) scale(2.79824)" xlink:href="#e" x="223.432" y="134.765" width="1488.189" height="1052.362" ns0:text="$x$" ns0:preamble="/home/waldgeist/data/sphinx/test.tex"/><path d="M250.255 530.918c21.142 10.968 42.284 21.692 63.426 26.835 21.142 5.143 42.284 4.455 63.426-1.695 19.38-5.638 38.76-15.662 58.14-25.692" fill="none" stroke="green" stroke-width="6" stroke-linecap="round"/><path d="M250.255 530.918c21.142 10.968 42.284 21.692 63.426 26.835 21.142 5.143 42.284 4.455 63.426-1.695 21.141-6.15 42.283-17.52 63.425-28.424 21.142-10.905 42.284-20.868 63.426-24.933 21.142-4.065 42.284-2.03 63.426 5.067 16.9 5.672 33.8 14.395 50.7 23.14" fill="none" stroke="#0f0" stroke-width="3" stroke-linecap="round"/><path d="M434.56 530.822c2.084-2.156 4.167-4.314 6.25-6.462 21.141-21.809 42.283-41.735 63.425-49.865 21.142-8.13 42.284-4.059 63.426 10.133 16.9 11.345 33.8 28.791 50.7 46.28" fill="none" stroke="green" stroke-width="5" stroke-linecap="round"/><path d="M618.003 530.766c2.203 1.14 4.406 2.281 6.61 3.418 21.141 10.904 42.283 20.867 63.425 24.932 21.142 4.066 42.284 2.03 63.426-5.067 16.9-5.672 33.8-14.395 50.701-23.14" fill="none" stroke="green" stroke-width="6" stroke-linecap="round"/><path d="M434.336 530.9c21.141-10.968 42.283-21.693 63.425-26.836 21.142-5.143 42.284-4.454 63.426 1.696 21.142 6.15 42.284 17.52 63.426 28.424 21.141 10.904 42.283 20.867 63.425 24.932 21.142 4.066 42.284 2.03 63.426-5.067 16.9-5.672 33.8-14.395 50.701-23.14" fill="none" stroke="#00d400" stroke-width="4" stroke-linecap="round" stroke-dasharray="5,10"/><g><path d="M296.375 675.128c21.142 10.968 42.284 21.693 63.426 26.836 9.993 2.43 19.985 3.559 29.978 3.423M662.346 705.389c14.4.19 28.799-2.296 43.198-7.129 16.9-5.672 33.8-14.395 50.7-23.14" fill="none" stroke="green" stroke-width="6" stroke-linecap="round"/><path d="M6.854 303.721h1031.833M6.854 384.213V224.35" fill="none" stroke="gray" stroke-width="3.75" marker-end="url(#a)" transform="matrix(.8 0 0 .8 105.236 432.152)"/><use height="1052.362" width="1488.189" xlink:href="#d" x="223.432" y="134.765" transform="matrix(2.78289 0 0 2.78289 -535.124 242.718)" ns0:text="$y$" ns0:preamble="/home/waldgeist/data/sphinx/test.tex"/><use height="1052.362" width="1488.189" y="134.765" x="223.432" xlink:href="#e" transform="translate(303.024 323.779) scale(2.79824)" ns0:preamble="/home/waldgeist/data/sphinx/test.tex" ns0:text="$x$"/><g stroke-width="6.25" fill="none" stroke="green" stroke-linecap="round"><path d="M429.254 675.045c2.202-1.83 4.404-3.66 6.606-5.483 7.974-6.603 15.947-13.002 23.921-18.816 14.377-10.483 28.755-19.063 43.132-23.5 22.35-6.9 44.702-3.445 67.053 8.599 17.867 9.627 35.734 24.433 53.6 39.273M623.566 675.118c2.202 1.83 4.404 3.66 6.606 5.484 7.974 6.602 15.948 13.002 23.922 18.816 3.382 2.465 4.623 3.64 8.288 5.971M389.698 705.388c14.619-9.962 27.828-20.604 39.556-30.343" stroke-width="5"/></g><path d="M296.375 675.128c21.142 10.968 42.284 21.693 63.426 26.836 21.142 5.143 42.284 4.455 63.426-1.696 21.142-6.15 42.283-17.52 63.425-28.424 21.142-10.904 42.284-20.867 63.426-24.932 21.142-4.065 42.284-2.03 63.426 5.067 16.9 5.672 33.8 14.395 50.7 23.14" fill="none" stroke="#0f0" stroke-width="3" stroke-linecap="round"/><path d="M388.415 675.11c21.142-10.967 42.284-21.692 63.426-26.835 21.142-5.143 42.284-4.455 63.426 1.696 21.142 6.15 42.284 17.52 63.426 28.424 21.141 10.904 42.283 20.867 63.425 24.932 21.142 4.065 42.284 2.03 63.426-5.067 16.9-5.672 33.8-14.395 50.7-23.14" fill="none" stroke="#00d400" stroke-width="4" stroke-linecap="round" stroke-dasharray="5,10"/></g><path d="M110.72 383.512h825.466M110.72 447.906v-127.89" fill="none" stroke="gray" stroke-width="3" marker-end="url(#a)" transform="translate(0 435.827)"/><g ns0:text="$y$" ns0:preamble="/home/waldgeist/data/sphinx/test.tex"><use height="1052.362" width="1488.189" xlink:href="#d" x="223.432" y="134.765" transform="matrix(2.78289 0 0 2.78289 -535.124 386.93)"/></g><g ns0:preamble="/home/waldgeist/data/sphinx/test.tex" ns0:text="$x$"><use height="1052.362" width="1488.189" y="134.765" x="223.432" xlink:href="#e" transform="matrix(2.79824 0 0 2.79824 303.024 467.99)"/></g><path d="M342.495 819.333c21.142 10.968 42.284 21.693 63.426 26.836 21.142 5.143 42.284 4.455 63.426-1.696 21.142-6.15 42.284-17.52 63.425-28.424 21.142-10.904 42.284-20.867 63.426-24.932 21.142-4.065 42.284-2.03 63.426 5.067 16.9 5.672 33.8 14.395 50.7 23.14" fill="none" stroke="#0f0" stroke-width="3" stroke-linecap="round"/><path d="M526.41 819.34l91.952-.011" fill="none" stroke="#000"/><path d="M342.495 819.33c21.142-10.968 42.284-21.693 63.426-26.836 21.142-5.142 42.284-4.454 63.426 1.696 21.142 6.15 42.284 17.52 63.425 28.424 21.142 10.904 42.284 20.867 63.426 24.933 21.142 4.065 42.284 2.029 63.426-5.067 16.9-5.673 33.8-14.396 50.7-23.14" fill="none" stroke="#00d400" stroke-width="4" stroke-linecap="round" stroke-dasharray="4,8"/><path d="M342.507 819.34h367.818" fill="none" stroke="green" stroke-width="6" stroke-linecap="round"/><g><path d="M6.854 663.721h1031.833M6.854 744.213V584.35" fill="none" stroke="gray" stroke-width="3.75" marker-end="url(#a)" transform="matrix(.8 0 0 .8 105.236 432.573)"/><use height="1052.362" width="1488.189" xlink:href="#d" x="223.432" y="134.765" transform="matrix(2.78289 0 0 2.78289 -535.124 531.14)" ns0:text="$y$" ns0:preamble="/home/waldgeist/data/sphinx/test.tex"/><use height="1052.362" width="1488.189" y="134.765" x="223.432" xlink:href="#e" transform="translate(303.024 612.2) scale(2.79824)" ns0:preamble="/home/waldgeist/data/sphinx/test.tex" ns0:text="$x$"/><path d="M664.467 933.257c13.738.052 27.477 2.526 41.215 7.138 16.9 5.672 33.801 14.395 50.702 23.14" fill="none" stroke="green" stroke-width="6" stroke-linecap="round"/><g stroke-width="7.5" fill="none" stroke="green" stroke-linecap="round"><path d="M429.254 964.898c2.202 1.83 4.404 3.66 6.606 5.484 7.974 6.602 15.947 13.002 23.921 18.816 14.377 10.482 28.755 19.062 43.132 23.5 22.35 6.9 44.702 3.445 67.053-8.6 17.867-9.627 35.734-24.432 53.6-39.273M623.566 964.825c2.202-1.83 4.404-3.66 6.606-5.483 7.974-6.603 15.948-13.002 23.922-18.816a258.565 258.565 0 0 1 10.145-7.053M388.55 933.402c.629.416 1.257.836 1.886 1.262 12.939 8.757 25.878 19.486 38.818 30.234" stroke-width="6"/></g><path d="M388.554 963.544c21.142 10.968 42.284 21.693 63.426 26.836 21.142 5.143 42.284 4.455 63.425-1.696 21.142-6.15 42.284-17.52 63.426-28.424 21.142-10.904 42.284-20.867 63.426-24.932 21.142-4.065 42.284-2.03 63.425 5.067 16.9 5.672 33.801 14.395 50.702 23.14" fill="none" stroke="#0f0" stroke-width="3" stroke-linecap="round"/><path d="M296.375 963.54c21.142-10.967 42.284-21.692 63.426-26.835 9.594-2.333 19.188-3.466 28.782-3.433" fill="none" stroke="green" stroke-width="6" stroke-linecap="round"/><path d="M296.375 963.54c21.142-10.967 42.284-21.692 63.426-26.835 21.142-5.142 42.284-4.454 63.426 1.696 21.141 6.15 42.283 17.52 63.425 28.424 21.142 10.904 42.284 20.867 63.426 24.932 21.142 4.066 42.284 2.03 63.426-5.066 16.9-5.673 33.8-14.396 50.7-23.14" fill="none" stroke="#00d400" stroke-width="4" stroke-linecap="round" stroke-dasharray="5,10"/></g><g><path d="M6.854-418.279h1060.02M6.854-337.787V-497.65" fill="none" stroke="gray" stroke-width="3.75" marker-end="url(#a)" transform="matrix(.8 0 0 .8 105.236 432.908)"/><g transform="matrix(2.78289 0 0 2.78289 -535.124 -334.125)" ns0:text="$y$" ns0:preamble="/home/waldgeist/data/sphinx/test.tex"><defs><symbol overflow="visible" id="d"><path d="M4.844-3.797c.047-.14.047-.156.047-.234 0-.172-.141-.266-.297-.266a.455.455 0 0 0-.344.203c-.016.063-.11.36-.14.547-.079.25-.141.531-.204.797L3.453-.953c-.031.14-.469.844-1.125.844-.5 0-.61-.438-.61-.813 0-.453.173-1.078.5-1.953.157-.406.204-.516.204-.719 0-.437-.313-.812-.813-.812-.953 0-1.312 1.453-1.312 1.531 0 .11.094.11.11.11.109 0 .109-.032.156-.188.28-.938.671-1.235 1.015-1.235.078 0 .25 0 .25.313 0 .25-.11.516-.172.703-.406 1.063-.578 1.625-.578 2.094 0 .89.625 1.187 1.219 1.187.39 0 .719-.171 1-.453-.125.516-.25 1.016-.64 1.547-.266.328-.641.625-1.095.625-.14 0-.593-.031-.765-.422.156 0 .297 0 .422-.125a.493.493 0 0 0 .203-.406c0-.313-.266-.344-.36-.344C.829.531.5.687.5 1.171c0 .5.438.876 1.063.876 1.015 0 2.046-.906 2.328-2.031zm0 0"/></symbol></defs><use height="1052.362" width="1488.189" xlink:href="#d" x="223.432" y="134.765"/></g><g ns0:preamble="/home/waldgeist/data/sphinx/test.tex" ns0:text="$x$" transform="translate(258.156 -253.065) scale(2.79824)"><defs><symbol id="e" overflow="visible"><path d="M3.328-3.016c.063-.25.297-1.171.985-1.171.046 0 .296 0 .5.125a.578.578 0 0 0-.47.546c0 .157.11.344.376.344a.546.546 0 0 0 .531-.578c0-.516-.578-.656-.922-.656-.578 0-.922.531-1.047.75-.25-.656-.781-.75-1.078-.75-1.031 0-1.61 1.281-1.61 1.531 0 .11.11.11.126.11.078 0 .11-.032.125-.11.344-1.063 1-1.313 1.344-1.313.187 0 .53.094.53.672 0 .313-.171.97-.53 2.375-.157.61-.516 1.032-.954 1.032-.062 0-.28 0-.5-.125.25-.063.47-.266.47-.547 0-.266-.22-.344-.36-.344-.313 0-.547.25-.547.578 0 .453.484.656.922.656.672 0 1.031-.703 1.047-.75.125.36.484.75 1.078.75 1.031 0 1.594-1.28 1.594-1.53 0-.11-.079-.11-.11-.11-.094 0-.11.047-.14.11-.329 1.077-1 1.312-1.313 1.312-.39 0-.547-.313-.547-.657 0-.218.047-.437.156-.875zm0 0"/></symbol></defs><use height="1052.362" width="1488.189" y="134.765" x="223.432" xlink:href="#e" transform="translate(16.035)"/></g><path d="M112.482 98.277c21.142 10.968 42.284 21.693 63.426 26.835 21.141 5.143 42.283 4.455 63.425-1.695 21.142-6.15 42.284-17.52 63.426-28.424 21.142-10.905 42.284-20.868 63.426-24.933 21.141-4.065 42.283-2.03 63.425 5.067 16.9 5.672 33.801 14.396 50.701 23.14M480.476 98.284l91.868.001" fill="none" stroke="green" stroke-width="6" stroke-linecap="round"/><path d="M112.482 98.277c21.142 10.968 42.284 21.693 63.426 26.835 21.141 5.143 42.283 4.455 63.425-1.695 21.142-6.15 42.284-17.52 63.426-28.424 21.142-10.905 42.284-20.868 63.426-24.933 21.141-4.065 42.283-2.03 63.425 5.067 16.9 5.672 33.801 14.396 50.701 23.14" fill="none" stroke="#0f0" stroke-width="3" stroke-linecap="round"/><path d="M572.309 98.303c21.142-10.968 42.284-21.692 63.426-26.835 21.141-5.143 42.283-4.455 63.425 1.695 21.142 6.15 42.284 17.52 63.426 28.424 21.142 10.905 42.284 20.868 63.426 24.933 21.141 4.065 42.283 2.03 63.425-5.067 16.9-5.672 33.801-14.396 50.701-23.14" fill="none" stroke="#00d400" stroke-width="4" stroke-linecap="round" stroke-dasharray="5,10"/><path d="M572.109 98.303c21.142-10.968 42.284-21.692 63.425-26.835 21.142-5.143 42.284-4.455 63.426 1.695 21.142 6.15 42.284 17.52 63.426 28.424 21.142 10.905 42.284 20.868 63.426 24.933 21.141 4.065 42.283 2.03 63.425-5.067 16.9-5.672 33.801-14.396 50.701-23.14" fill="none" stroke="green" stroke-width="6" stroke-linecap="round"/><path d="M572.109 98.303c21.142-10.968 42.284-21.692 63.425-26.835 21.142-5.143 42.284-4.455 63.426 1.695 21.142 6.15 42.284 17.52 63.426 28.424 21.142 10.905 42.284 20.868 63.426 24.933 21.141 4.065 42.283 2.03 63.425-5.067 16.9-5.672 33.801-14.396 50.701-23.14" fill="none" stroke="#00d400" stroke-width="4" stroke-linecap="round" stroke-dasharray="5,10"/></g><g><path d="M6.854 843.721h1031.833M6.854 924.213V764.35" fill="none" stroke="gray" stroke-width="3.75" marker-end="url(#a)" transform="matrix(.8 0 0 .8 105.236 432.784)"/><use y="134.765" x="223.432" xlink:href="#d" width="1488.189" height="1052.362" transform="matrix(2.78289 0 0 2.78289 -535.124 675.351)" ns0:preamble="/home/waldgeist/data/sphinx/test.tex" ns0:text="$y$"/><use transform="translate(303.024 756.411) scale(2.79824)" xlink:href="#e" x="223.432" y="134.765" width="1488.189" height="1052.362" ns0:text="$x$" ns0:preamble="/home/waldgeist/data/sphinx/test.tex"/><path d="M617.548 1108.284c2.447-1.266 4.895-2.535 7.342-3.797 21.142-10.904 42.284-20.867 63.426-24.932 21.141-4.066 42.283-2.03 63.425 5.066 16.9 5.673 33.8 14.396 50.701 23.14M250.255 1107.933c21.142-10.968 42.284-21.693 63.426-26.836 21.142-5.142 42.284-4.454 63.426 1.696 19.161 5.574 38.323 15.436 57.485 25.353 1.98 1.024 3.96 2.05 5.94 3.071" fill="none" stroke="green" stroke-width="6" stroke-linecap="round"/><path d="M434.51 1107.761c2.082 2.156 4.165 4.313 6.248 6.462 21.142 21.809 42.284 41.734 63.426 49.865 21.142 8.13 42.284 4.058 63.426-10.134 16.9-11.345 33.8-28.79 50.7-46.279" fill="none" stroke="green" stroke-width="6" stroke-linecap="round"/><path d="M434.613 1107.771c21.142 10.968 42.284 21.693 63.425 26.836 21.142 5.142 42.284 4.454 63.426-1.696 21.142-6.15 42.284-17.52 63.426-28.424 21.142-10.904 42.284-20.867 63.426-24.932 21.141-4.066 42.283-2.03 63.425 5.066 16.9 5.673 33.8 14.396 50.701 23.14" fill="none" stroke="#0f0" stroke-width="3" stroke-linecap="round"/><path d="M250.255 1107.933c21.142-10.968 42.284-21.693 63.426-26.836 21.142-5.142 42.284-4.454 63.426 1.696 21.141 6.15 42.283 17.52 63.425 28.424 21.142 10.904 42.284 20.867 63.426 24.932 21.142 4.066 42.284 2.03 63.426-5.066 16.9-5.673 33.8-14.396 50.7-23.14" fill="none" stroke="#00d400" stroke-width="4" stroke-linecap="round" stroke-dasharray="5,10"/></g><g><path d="M6.854 1024.093h1031.833M6.854 1104.585V944.722" fill="none" stroke="gray" stroke-width="3.75" marker-end="url(#a)" transform="matrix(.8 0 0 .8 105.236 432.697)"/><use y="134.765" x="223.432" xlink:href="#d" width="1488.189" height="1052.362" transform="matrix(2.78289 0 0 2.78289 -535.124 819.562)" ns0:preamble="/home/waldgeist/data/sphinx/test.tex" ns0:text="$y$"/><use transform="translate(303.024 900.622) scale(2.79824)" xlink:href="#e" x="223.432" y="134.765" width="1488.189" height="1052.362" ns0:text="$x$" ns0:preamble="/home/waldgeist/data/sphinx/test.tex"/><path d="M572.309 1282.319c12.206.161 23.248-1.662 35.454-5.213 21.142-6.15 42.284-17.52 63.425-28.424 21.142-10.904 42.284-20.867 63.426-24.932 21.142-4.066 42.284-2.03 63.426 5.066 16.9 5.673 33.8 14.396 50.7 23.14M480.511 1282.349c1.04.744 2.08 1.489 3.121 2.23 10.56 7.53 21.118 14.41 31.677 17.217 10.56 2.807 21.119 1.4 31.678-3.499 8.44-3.917 16.881-9.94 25.322-15.978" fill="none" stroke="green" stroke-width="6" stroke-linecap="round"/><path d="M480.911 1251.966c21.142 10.968 42.284 21.693 63.426 26.836 21.142 5.142 42.284 4.454 63.426-1.696 21.142-6.15 42.284-17.52 63.425-28.424 21.142-10.904 42.284-20.867 63.426-24.932 21.142-4.066 42.284-2.03 63.426 5.066 16.9 5.673 33.8 14.396 50.7 23.14" fill="none" stroke="#0f0" stroke-width="3" stroke-linecap="round"/><path d="M204.818 1251.963c21.142-10.968 42.284-21.693 63.426-26.836 21.142-5.143 42.283-4.455 63.425 1.696 21.142 6.15 42.284 17.52 63.426 28.424 21.142 10.904 42.284 20.867 63.426 24.932 7.88 1.515 14.11 2.296 21.99 2.17" fill="none" stroke="green" stroke-width="6" stroke-linecap="round"/><path d="M204.818 1251.963c21.142-10.968 42.284-21.693 63.426-26.836 21.142-5.143 42.283-4.455 63.425 1.696 21.142 6.15 42.284 17.52 63.426 28.424 21.142 10.904 42.284 20.867 63.426 24.932 21.142 4.065 42.283 2.03 63.425-5.067 16.9-5.672 33.801-14.395 50.701-23.14" fill="none" stroke="#00d400" stroke-width="4" stroke-linecap="round" stroke-dasharray="5,10"/></g><g><path d="M6.854 1204.093h1031.833M6.854 1284.585v-159.863" fill="none" stroke="gray" stroke-width="3.75" marker-end="url(#a)" transform="matrix(.8 0 0 .8 105.236 432.908)"/><use height="1052.362" width="1488.189" xlink:href="#d" x="223.432" y="134.765" transform="matrix(2.78289 0 0 2.78289 -535.124 963.773)" ns0:text="$y$" ns0:preamble="/home/waldgeist/data/sphinx/test.tex"/><use height="1052.362" width="1488.189" y="134.765" x="223.432" xlink:href="#e" transform="translate(303.024 1044.833) scale(2.79824)" ns0:preamble="/home/waldgeist/data/sphinx/test.tex" ns0:text="$x$"/><path d="M526.81 1396.193c21.142 10.968 42.284 21.693 63.426 26.835 21.142 5.143 42.284 4.455 63.426-1.695 21.141-6.15 42.283-17.52 63.425-28.424 21.142-10.905 42.284-20.867 63.426-24.933 21.142-4.065 42.284-2.029 63.426 5.067 16.9 5.673 33.8 14.396 50.7 23.14" fill="none" stroke="green" stroke-width="6" stroke-linecap="round"/><path d="M526.81 1396.193c21.142 10.968 42.284 21.693 63.426 26.835 21.142 5.143 42.284 4.455 63.426-1.695 21.141-6.15 42.283-17.52 63.425-28.424 21.142-10.905 42.284-20.867 63.426-24.933 21.142-4.065 42.284-2.029 63.426 5.067 16.9 5.673 33.8 14.396 50.7 23.14" fill="none" stroke="#0f0" stroke-width="3" stroke-linecap="round"/><path d="M158.98 1396.355c21.143-10.968 42.284-21.693 63.426-26.836 21.142-5.143 42.284-4.454 63.426 1.696 21.142 6.15 42.284 17.52 63.426 28.424 21.142 10.904 42.283 20.867 63.425 24.932 21.142 4.065 42.284 2.03 63.426-5.067 16.9-5.672 33.8-14.395 50.701-23.14" fill="none" stroke="green" stroke-width="6" stroke-linecap="round"/><path d="M158.98 1396.355c21.143-10.968 42.284-21.693 63.426-26.836 21.142-5.143 42.284-4.454 63.426 1.696 21.142 6.15 42.284 17.52 63.426 28.424 21.142 10.904 42.283 20.867 63.425 24.932 21.142 4.065 42.284 2.03 63.426-5.067 16.9-5.672 33.8-14.395 50.701-23.14" fill="none" stroke="#00d400" stroke-width="4" stroke-linecap="round" stroke-dasharray="5,10"/></g><path d="M763.054-385.375H626.186" fill="#0f0" stroke="#00d400" stroke-width="1.444" stroke-linecap="square" marker-end="url(#a)" transform="translate(0 435.827)"/><g transform="translate(-88.875 -435.522) scale(3.47861)" ns0:preamble="/home/waldgeist/data/sphinx/inkscape-preamble.tex" ns0:text="$v_2$" fill="#00d400"><defs><symbol id="f" overflow="visible"><path d="M4.672-3.703c0-.547-.266-.703-.438-.703-.25 0-.5.265-.5.484 0 .125.047.188.157.297.218.203.343.453.343.813 0 .421-.609 2.703-1.765 2.703-.516 0-.75-.344-.75-.875 0-.547.281-1.282.578-2.11.078-.172.125-.312.125-.5 0-.437-.313-.812-.813-.812-.937 0-1.312 1.453-1.312 1.531 0 .11.094.11.11.11.109 0 .109-.032.156-.188.296-1 .718-1.235 1.015-1.235.078 0 .25 0 .25.313 0 .25-.11.531-.172.703-.437 1.156-.562 1.61-.562 2.047 0 1.078.875 1.234 1.328 1.234 1.672 0 2.25-3.296 2.25-3.812zm0 0"/></symbol><symbol id="g" overflow="visible"><path d="M3.516-1.266H3.28c-.015.157-.094.563-.187.625-.047.047-.578.047-.688.047H1.125c.734-.64.984-.844 1.39-1.172.516-.406 1-.843 1-1.5 0-.843-.734-1.359-1.624-1.359-.86 0-1.454.61-1.454 1.25 0 .344.297.39.376.39.156 0 .359-.124.359-.374 0-.125-.047-.375-.406-.375.218-.485.687-.641 1.015-.641.703 0 1.063.547 1.063 1.11 0 .609-.438 1.078-.656 1.328L.516-.266C.437-.203.437-.187.437 0h2.876zm0 0"/></symbol></defs><use y="134.765" x="223.432" xlink:href="#f" width="1052.362" height="1488.189"/><use y="136.259" x="228.261" xlink:href="#g" width="1052.362" height="1488.189"/></g></svg>