<svg xmlns:ns0="http://www.iki.fi/pav/software/textext/" xmlns="http://www.w3.org/2000/svg" xmlns:xlink="http://www.w3.org/1999/xlink" width="1052.362" height="744.094"><title>Kugel in Half-Pipe</title><defs><filter id="a" x="-.48" width="1.96" y="-.48" height="1.96" color-interpolation-filters="sRGB"><feGaussianBlur stdDeviation="4.571"/></filter></defs><g transform="translate(0 -308.268)"><g ns0:preamble="/home/waldgeist/data/sphinx/test.tex" ns0:text="$E _{\\mathrm{pot.}} = \\mathrm{max.}$"><use y="134.765" x="223.432" xlink:href="#textext-deb4a57a-0" width="1052.362" height="744.094" transform="matrix(3.97502 0 0 3.97502 -770.492 356.283)"/><use y="136.259" x="230.786" xlink:href="#textext-deb4a57a-2" width="1052.362" height="744.094" transform="matrix(3.97502 0 0 3.97502 -770.492 356.283)"/><g transform="matrix(3.97502 0 0 3.97502 -770.492 356.283)"><use y="136.259" x="235.403" xlink:href="#textext-deb4a57a-3" width="1052.362" height="744.094"/><use y="136.259" x="239.374" xlink:href="#textext-deb4a57a-4" width="1052.362" height="744.094"/></g><use y="136.259" x="242.486" xlink:href="#textext-deb4a57a-5" width="1052.362" height="744.094" transform="matrix(3.97502 0 0 3.97502 -770.492 356.283)"/><use y="134.765" x="248.117" xlink:href="#textext-deb4a57a-6" width="1052.362" height="744.094" transform="matrix(3.97502 0 0 3.97502 -770.492 356.283)"/><g transform="matrix(3.97502 0 0 3.97502 -770.492 356.283)"><use y="134.765" x="258.635" xlink:href="#textext-deb4a57a-7" width="1052.362" height="744.094"/><use y="134.765" x="266.937" xlink:href="#textext-deb4a57a-8" width="1052.362" height="744.094"/><use y="134.765" x="271.919" xlink:href="#textext-deb4a57a-9" width="1052.362" height="744.094"/></g><use y="134.765" x="277.175" xlink:href="#textext-deb4a57a-1" width="1052.362" height="744.094" transform="matrix(3.97502 0 0 3.97502 -770.492 356.283)"/></g><g ns0:text="\\begin{align*}\nE _{\\rm{pot}} &amp;= max. \\\\\nv &amp;= 0 \\\\\na &amp;= max.\n\\end{align*}\n" ns0:preamble="/home/waldgeist/data/sphinx/test.tex"><use xlink:href="#textext-2289d23f-0" x="367.633" y="134.765" width="1052.362" height="744.094" transform="matrix(3.39125 0 0 3.39125 -521.8 349.011)"/><use xlink:href="#textext-2289d23f-6" x="374.987" y="136.259" width="1052.362" height="744.094" transform="matrix(3.39125 0 0 3.39125 -521.8 349.011)"/><g transform="matrix(3.39125 0 0 3.39125 -521.8 349.011)"><use xlink:href="#textext-2289d23f-7" x="379.604" y="136.259" width="1052.362" height="744.094"/><use xlink:href="#textext-2289d23f-8" x="383.575" y="136.259" width="1052.362" height="744.094"/></g><use xlink:href="#textext-2289d23f-9" x="389.952" y="134.765" width="1052.362" height="744.094" transform="matrix(3.39125 0 0 3.39125 -521.8 349.011)"/><g transform="matrix(3.39125 0 0 3.39125 -521.8 349.011)"><use xlink:href="#textext-2289d23f-1" x="400.468" y="134.765" width="1052.362" height="744.094"/><use xlink:href="#textext-2289d23f-2" x="409.215" y="134.765" width="1052.362" height="744.094"/><use xlink:href="#textext-2289d23f-3" x="414.481" y="134.765" width="1052.362" height="744.094"/><use xlink:href="#textext-2289d23f-4" x="420.175" y="134.765" width="1052.362" height="744.094"/></g><use xlink:href="#textext-2289d23f-5" x="381.998" y="149.709" width="1052.362" height="744.094" transform="matrix(3.39125 0 0 3.39125 -521.8 349.011)"/><use xlink:href="#textext-2289d23f-9" x="389.952" y="149.709" width="1052.362" height="744.094" transform="matrix(3.39125 0 0 3.39125 -521.8 349.011)"/><use xlink:href="#textext-2289d23f-10" x="400.471" y="149.709" width="1052.362" height="744.094" transform="matrix(3.39125 0 0 3.39125 -521.8 349.011)"/><use xlink:href="#textext-2289d23f-2" x="381.918" y="164.653" width="1052.362" height="744.094" transform="matrix(3.39125 0 0 3.39125 -521.8 349.011)"/><use xlink:href="#textext-2289d23f-9" x="389.952" y="164.653" width="1052.362" height="744.094" transform="matrix(3.39125 0 0 3.39125 -521.8 349.011)"/><g transform="matrix(3.39125 0 0 3.39125 -521.8 349.011)"><use xlink:href="#textext-2289d23f-1" x="400.468" y="164.653" width="1052.362" height="744.094"/><use xlink:href="#textext-2289d23f-2" x="409.215" y="164.653" width="1052.362" height="744.094"/><use xlink:href="#textext-2289d23f-3" x="414.481" y="164.653" width="1052.362" height="744.094"/><use xlink:href="#textext-2289d23f-4" x="420.175" y="164.653" width="1052.362" height="744.094"/></g></g><rect width="1038.406" height="352.459" x="6.978" y="-856.544" ry="4.334" transform="scale(1 -1)" fill="#fff" stroke="#fff" stroke-width="6" stroke-linecap="round" stroke-linejoin="round" stroke-dasharray="5.99999985000000002,17.99999953000000019"/><path d="M366.373 630.431v140.22h319.616V630.43c0 51.45-83.654 89.282-159.808 89.282S366.373 682.89 366.373 630.43z" fill="#666" stroke="#000" stroke-width="3"/><path d="M513.68 715.692c25.766 6.904 52.249-8.386 59.153-34.151 6.903-25.765-8.387-52.248-34.152-59.152-25.765-6.904-52.248 8.386-59.151 34.151-6.904 25.765 8.386 52.248 34.15 59.152z" fill="#b3b3b3" stroke="#4d4d4d" stroke-width="1.99982616" stroke-linecap="square"/><path d="M301.429 350.934c0 6.311-5.117 11.428-11.429 11.428s-11.429-5.117-11.429-11.428c0-6.312 5.117-11.429 11.429-11.429s11.429 5.117 11.429 11.429z" transform="scale(-.36748 .36748) rotate(75 -1469.594 -45.655)" fill="#fff" filter="url(#a)"/><path d="M53.475 681.583c25.765 6.904 52.248-8.386 59.152-34.151 6.904-25.765-8.386-52.248-34.151-59.152-25.765-6.903-52.248 8.387-59.152 34.151-6.904 25.765 8.386 52.249 34.151 59.152z" fill="#b3b3b3" stroke="#4d4d4d" stroke-width="1.99982616" stroke-linecap="square"/><path transform="scale(-.36748 .36748) rotate(75 -782.946 723.972)" d="M301.429 350.934c0 6.311-5.117 11.428-11.429 11.428s-11.429-5.117-11.429-11.428c0-6.312 5.117-11.429 11.429-11.429s11.429 5.117 11.429 11.429z" fill="#fff" filter="url(#a)"/><path d="M15.667 633.289v140.218h319.616V633.29c0 51.448-83.654 89.28-159.808 89.28-76.153 0-159.808-36.821-159.808-89.28z" fill="#666" stroke="#000" stroke-width="3"/><g><path d="M972.887 681.583c25.764 6.904 52.248-8.386 59.151-34.151 6.904-25.765-8.386-52.248-34.151-59.152-25.765-6.903-52.248 8.387-59.152 34.151-6.903 25.765 8.387 52.249 34.152 59.152z" fill="#b3b3b3" stroke="#4d4d4d" stroke-width="1.99982616" stroke-linecap="square"/><path d="M301.429 350.934c0 6.311-5.117 11.428-11.429 11.428s-11.429-5.117-11.429-11.428c0-6.312 5.117-11.429 11.429-11.429s11.429 5.117 11.429 11.429z" transform="matrix(-.09511 .35496 .35496 .09511 875.682 475.1)" fill="#fff" filter="url(#a)"/></g><path d="M717.079 633.289v140.218h319.616V633.29c0 51.448-83.654 89.28-159.808 89.28s-159.808-36.821-159.808-89.28z" fill="#666" stroke="#000" stroke-width="3"/><path d="M985.387 634.932l-55.05 55.05" fill="#d40000" stroke="#d40000" stroke-width="14.945"/><path d="M922.465 697.853l.954-3.559.954-3.56 2.605 2.606 2.606 2.606-3.56.954z" fill="#d40000" stroke="#d40000" stroke-width="14.953728019999998"/><path d="M65.975 634.932l55.05 55.05" fill="#d40000" stroke="#d40000" stroke-width="14.945"/><path d="M128.897 697.853l-.954-3.559-.953-3.56-2.606 2.606-2.605 2.606 3.559.954z" fill="#d40000" stroke="#d40000" stroke-width="14.953728019999998"/></g></svg>