<?xml version="1.0" encoding="UTF-8" standalone="no"?>
<!-- Created with Inkscape (http://www.inkscape.org/) -->

<svg
   xmlns:ns0="http://www.iki.fi/pav/software/textext/"
   xmlns:dc="http://purl.org/dc/elements/1.1/"
   xmlns:cc="http://creativecommons.org/ns#"
   xmlns:rdf="http://www.w3.org/1999/02/22-rdf-syntax-ns#"
   xmlns:svg="http://www.w3.org/2000/svg"
   xmlns="http://www.w3.org/2000/svg"
   xmlns:xlink="http://www.w3.org/1999/xlink"
   xmlns:sodipodi="http://sodipodi.sourceforge.net/DTD/sodipodi-0.dtd"
   xmlns:inkscape="http://www.inkscape.org/namespaces/inkscape"
   width="1052.3622"
   height="744.09448"
   id="svg2"
   version="1.1"
   inkscape:version="0.48.4 r9939"
   sodipodi:docname="kugel-in-half-pipe.svg"
   inkscape:export-filename="/home/waldgeist/data/pics/physik/Own/mechanik/wellen-und-schwingungen/pendel.png"
   inkscape:export-xdpi="90"
   inkscape:export-ydpi="90">
  <title
     id="title50688">Kugel in Half-Pipe</title>
  <sodipodi:namedview
     id="base"
     pagecolor="#ffffff"
     bordercolor="#666666"
     borderopacity="1.0"
     inkscape:pageopacity="0.0"
     inkscape:pageshadow="2"
     inkscape:zoom="0.94547911"
     inkscape:cx="457.83502"
     inkscape:cy="440.30646"
     inkscape:document-units="px"
     inkscape:current-layer="layer1"
     showgrid="false"
     inkscape:object-paths="true"
     inkscape:snap-smooth-nodes="true"
     inkscape:object-nodes="true"
     inkscape:snap-object-midpoints="true"
     showguides="false"
     inkscape:guide-bbox="true"
     inkscape:snap-global="true"
     inkscape:window-width="1600"
     inkscape:window-height="1150"
     inkscape:window-x="0"
     inkscape:window-y="0"
     inkscape:window-maximized="1">
    <sodipodi:guide
       orientation="1,0"
       position="985.3868,417.43048"
       id="guide45410" />
    <sodipodi:guide
       orientation="0,1"
       position="65.975447,417.43048"
       id="guide52200" />
    <sodipodi:guide
       orientation="1,0"
       position="65.975447,417.43048"
       id="guide52202" />
  </sodipodi:namedview>
  <defs
     id="defs4">
    <marker
       inkscape:stockid="TriangleOutS"
       orient="auto"
       refY="0.0"
       refX="0.0"
       id="TriangleOutS"
       style="overflow:visible">
      <path
         id="path50148"
         d="M 5.77,0.0 L -2.88,5.0 L -2.88,-5.0 L 5.77,0.0 z "
         style="fill-rule:evenodd;stroke:#000000;stroke-width:1.0pt"
         transform="scale(0.2)" />
    </marker>
    <linearGradient
       id="linearGradient42045">
      <stop
         style="stop-color:#ffffff;stop-opacity:0"
         offset="0"
         id="stop42047" />
      <stop
         style="stop-color:#000000;stop-opacity:1"
         offset="1"
         id="stop42049" />
    </linearGradient>
    <inkscape:path-effect
       is_visible="true"
       id="path-effect3368"
       effect="spiro" />
    <linearGradient
       id="linearGradient3632">
      <stop
         id="stop3634"
         offset="0"
         style="stop-color:#ebebeb;stop-opacity:1;" />
      <stop
         id="stop3636"
         offset="1"
         style="stop-color:#ffffff;stop-opacity:0" />
    </linearGradient>
    <linearGradient
       id="linearGradient2830">
      <stop
         id="stop2832"
         offset="0"
         style="stop-color:#0e0e0e;stop-opacity:0.74583334;" />
      <stop
         id="stop2834"
         offset="1"
         style="stop-color:#ffffff;stop-opacity:1;" />
    </linearGradient>
    <filter
       inkscape:collect="always"
       id="filter4801-2"
       x="-0.47999999"
       width="1.96"
       y="-0.47999999"
       height="1.96"
       color-interpolation-filters="sRGB">
      <feGaussianBlur
         inkscape:collect="always"
         stdDeviation="4.5714287"
         id="feGaussianBlur4803-3" />
    </filter>
    <linearGradient
       id="linearGradient42045-8">
      <stop
         style="stop-color:#ffffff;stop-opacity:0"
         offset="0"
         id="stop42047-7" />
      <stop
         style="stop-color:#000000;stop-opacity:1"
         offset="1"
         id="stop42049-8" />
    </linearGradient>
    <inkscape:path-effect
       is_visible="true"
       id="path-effect3368-9"
       effect="spiro" />
    <linearGradient
       id="linearGradient3632-5">
      <stop
         id="stop3634-6"
         offset="0"
         style="stop-color:#ebebeb;stop-opacity:1;" />
      <stop
         id="stop3636-1"
         offset="1"
         style="stop-color:#ffffff;stop-opacity:0" />
    </linearGradient>
    <linearGradient
       id="linearGradient2830-0">
      <stop
         id="stop2832-5"
         offset="0"
         style="stop-color:#0e0e0e;stop-opacity:0.74583334;" />
      <stop
         id="stop2834-2"
         offset="1"
         style="stop-color:#ffffff;stop-opacity:1;" />
    </linearGradient>
  </defs>
  <metadata
     id="metadata7">
    <rdf:RDF>
      <cc:Work
         rdf:about="">
        <dc:format>image/svg+xml</dc:format>
        <dc:type
           rdf:resource="http://purl.org/dc/dcmitype/StillImage" />
        <dc:title>Kugel in Half-Pipe</dc:title>
        <dc:date>2012-08-07</dc:date>
        <dc:creator>
          <cc:Agent>
            <dc:title>Bernhard Grotz</dc:title>
          </cc:Agent>
        </dc:creator>
        <dc:rights>
          <cc:Agent>
            <dc:title>Bernhard Grotz</dc:title>
          </cc:Agent>
        </dc:rights>
        <dc:publisher>
          <cc:Agent>
            <dc:title>Bernhard Grotz</dc:title>
          </cc:Agent>
        </dc:publisher>
        <dc:language>de-DE</dc:language>
        <dc:subject>
          <rdf:Bag>
            <rdf:li>Physik</rdf:li>
            <rdf:li>Mechanik</rdf:li>
            <rdf:li>Schwingung</rdf:li>
            <rdf:li>Schwingung</rdf:li>
          </rdf:Bag>
        </dc:subject>
        <cc:license
           rdf:resource="http://creativecommons.org/licenses/by-nc-sa/3.0/" />
      </cc:Work>
      <cc:License
         rdf:about="http://creativecommons.org/licenses/by-nc-sa/3.0/">
        <cc:permits
           rdf:resource="http://creativecommons.org/ns#Reproduction" />
        <cc:permits
           rdf:resource="http://creativecommons.org/ns#Distribution" />
        <cc:requires
           rdf:resource="http://creativecommons.org/ns#Notice" />
        <cc:requires
           rdf:resource="http://creativecommons.org/ns#Attribution" />
        <cc:prohibits
           rdf:resource="http://creativecommons.org/ns#CommercialUse" />
        <cc:permits
           rdf:resource="http://creativecommons.org/ns#DerivativeWorks" />
        <cc:requires
           rdf:resource="http://creativecommons.org/ns#ShareAlike" />
      </cc:License>
    </rdf:RDF>
  </metadata>
  <g
     inkscape:label="Layer 1"
     inkscape:groupmode="layer"
     id="layer1"
     transform="translate(0,-308.2677)">
    <g
       id="g40373"
       transform="matrix(3.9750183,0,0,3.9750183,-770.49222,356.28306)"
       ns0:preamble="/home/waldgeist/data/sphinx/test.tex"
       ns0:text="$E _{\\mathrm{pot.}} = \\mathrm{max.}$">
      <defs
         id="defs40375">
        <g
           id="g40377">
          <symbol
             id="symbol40379"
             overflow="visible"
             style="overflow:visible">
            <path
               id="path40381"
               d="M 7.0625,-2.328125 C 7.078125,-2.375 7.109375,-2.4375 7.109375,-2.46875 c 0,0 0,-0.109375 -0.125,-0.109375 -0.09375,0 -0.109375,0.0625 -0.125,0.125 -0.65625,1.46875 -1.015625,2.140625 -2.71875,2.140625 l -1.453125,0 c -0.140625,0 -0.171875,0 -0.21875,0 -0.109375,-0.015625 -0.140625,-0.03125 -0.140625,-0.109375 0,-0.03125 0,-0.046875 0.046875,-0.21875 L 3.0625,-3.375 l 0.984375,0 c 0.84375,0 0.84375,0.21875 0.84375,0.46875 0,0.0625 0,0.1875 -0.0625,0.484375 C 4.8125,-2.375 4.796875,-2.34375 4.796875,-2.3125 c 0,0.046875 0.03125,0.109375 0.125,0.109375 C 5,-2.203125 5.03125,-2.25 5.078125,-2.40625 l 0.5625,-2.328125 c 0,-0.0625 -0.046875,-0.109375 -0.125,-0.109375 -0.078125,0 -0.109375,0.0625 -0.125,0.171875 -0.21875,0.765625 -0.390625,1 -1.3125,1 l -0.9375,0 0.59375,-2.40625 C 3.828125,-6.4375 3.84375,-6.46875 4.28125,-6.46875 l 1.40625,0 c 1.203125,0 1.515625,0.28125 1.515625,1.109375 0,0.234375 0,0.25 -0.046875,0.53125 0,0.046875 -0.015625,0.125 -0.015625,0.171875 0,0.046875 0.03125,0.125 0.125,0.125 0.109375,0 0.125,-0.0625 0.140625,-0.25 L 7.609375,-6.515625 C 7.640625,-6.78125 7.59375,-6.78125 7.34375,-6.78125 l -5.046875,0 c -0.1875,0 -0.296875,0 -0.296875,0.203125 0,0.109375 0.09375,0.109375 0.28125,0.109375 0.375,0 0.65625,0 0.65625,0.171875 0,0.046875 0,0.0625 -0.0625,0.25 L 1.5625,-0.78125 c -0.09375,0.390625 -0.109375,0.46875 -0.90625,0.46875 -0.171875,0 -0.28125,0 -0.28125,0.1875 C 0.375,0 0.46875,0 0.65625,0 l 5.171875,0 c 0.234375,0 0.25,-0.015625 0.3125,-0.171875 z m 0,0"
               style="stroke:none"
               inkscape:connector-curvature="0" />
          </symbol>
          <symbol
             id="symbol40383"
             overflow="visible"
             style="overflow:visible">
            <path
               id="path40385"
               d="m 1.90625,-0.53125 c 0,-0.28125 -0.234375,-0.53125 -0.515625,-0.53125 -0.296875,0 -0.53125,0.25 -0.53125,0.53125 C 0.859375,-0.234375 1.09375,0 1.390625,0 1.671875,0 1.90625,-0.234375 1.90625,-0.53125 z m 0,0"
               style="stroke:none"
               inkscape:connector-curvature="0" />
          </symbol>
          <symbol
             id="symbol40387"
             overflow="visible"
             style="overflow:visible">
            <path
               id="path40389"
               d="m 1.9375,1.09375 c -0.453125,0 -0.515625,0 -0.515625,-0.296875 l 0,-1.125 C 1.453125,-0.296875 1.78125,0.0625 2.359375,0.0625 3.28125,0.0625 4.0625,-0.625 4.0625,-1.5 c 0,-0.859375 -0.703125,-1.578125 -1.59375,-1.578125 -0.390625,0 -0.796875,0.15625 -1.078125,0.4375 l 0,-0.4375 L 0.34375,-3 l 0,0.25 c 0.484375,0 0.515625,0.046875 0.515625,0.328125 l 0,3.21875 c 0,0.296875 -0.0625,0.296875 -0.515625,0.296875 l 0,0.265625 c 0.015625,0 0.5,-0.03125 0.796875,-0.03125 0.25,0 0.734375,0.015625 0.796875,0.03125 z M 1.421875,-2.328125 C 1.625,-2.671875 2.03125,-2.84375 2.390625,-2.84375 c 0.59375,0 1.046875,0.609375 1.046875,1.34375 0,0.796875 -0.53125,1.375 -1.109375,1.375 -0.625,0 -0.890625,-0.53125 -0.90625,-0.578125 z m 0,0"
               style="stroke:none"
               inkscape:connector-curvature="0" />
          </symbol>
          <symbol
             id="symbol40391"
             overflow="visible"
             style="overflow:visible">
            <path
               id="path40393"
               d="m 3.6875,-1.484375 c 0,-0.875 -0.75,-1.625 -1.703125,-1.625 -0.96875,0 -1.71875,0.75 -1.71875,1.625 0,0.859375 0.765625,1.546875 1.71875,1.546875 0.9375,0 1.703125,-0.6875 1.703125,-1.546875 z M 1.984375,-0.15625 c -0.265625,0 -0.640625,-0.078125 -0.875,-0.421875 -0.1875,-0.28125 -0.203125,-0.640625 -0.203125,-0.96875 0,-0.296875 0,-0.71875 0.25,-1.015625 0.171875,-0.203125 0.46875,-0.34375 0.828125,-0.34375 0.40625,0 0.703125,0.1875 0.859375,0.40625 0.1875,0.265625 0.203125,0.625 0.203125,0.953125 0,0.328125 -0.015625,0.703125 -0.21875,0.984375 -0.1875,0.265625 -0.5,0.40625 -0.84375,0.40625 z m 0,0"
               style="stroke:none"
               inkscape:connector-curvature="0" />
          </symbol>
          <symbol
             id="symbol40395"
             overflow="visible"
             style="overflow:visible">
            <path
               id="path40397"
               d="m 1.40625,-2.75 1.078125,0 0,-0.25 -1.078125,0 0,-1.28125 -0.25,0 c 0,0.625 -0.28125,1.3125 -0.953125,1.328125 l 0,0.203125 0.640625,0 0,1.875 c 0,0.78125 0.59375,0.9375 0.984375,0.9375 0.46875,0 0.78125,-0.390625 0.78125,-0.9375 l 0,-0.390625 -0.234375,0 0,0.375 c 0,0.484375 -0.21875,0.734375 -0.5,0.734375 -0.46875,0 -0.46875,-0.578125 -0.46875,-0.703125 z m 0,0"
               style="stroke:none"
               inkscape:connector-curvature="0" />
          </symbol>
          <symbol
             id="symbol40399"
             overflow="visible"
             style="overflow:visible">
            <path
               id="path40401"
               d="m 1.578125,-0.390625 c 0,-0.25 -0.203125,-0.40625 -0.390625,-0.40625 -0.234375,0 -0.40625,0.1875 -0.40625,0.390625 0,0.25 0.203125,0.40625 0.390625,0.40625 0.234375,0 0.40625,-0.1875 0.40625,-0.390625 z m 0,0"
               style="stroke:none"
               inkscape:connector-curvature="0" />
          </symbol>
          <symbol
             id="symbol40403"
             overflow="visible"
             style="overflow:visible">
            <path
               id="path40405"
               d="m 6.84375,-3.265625 c 0.15625,0 0.34375,0 0.34375,-0.1875 C 7.1875,-3.65625 7,-3.65625 6.859375,-3.65625 l -5.96875,0 c -0.140625,0 -0.328125,0 -0.328125,0.203125 0,0.1875 0.1875,0.1875 0.328125,0.1875 z m 0.015625,1.9375 c 0.140625,0 0.328125,0 0.328125,-0.203125 0,-0.1875 -0.1875,-0.1875 -0.34375,-0.1875 l -5.953125,0 c -0.140625,0 -0.328125,0 -0.328125,0.1875 0,0.203125 0.1875,0.203125 0.328125,0.203125 z m 0,0"
               style="stroke:none"
               inkscape:connector-curvature="0" />
          </symbol>
          <symbol
             id="symbol40407"
             overflow="visible"
             style="overflow:visible">
            <path
               id="path40409"
               d="m 1.09375,-3.421875 0,2.671875 c 0,0.4375 -0.109375,0.4375 -0.78125,0.4375 l 0,0.3125 c 0.359375,-0.015625 0.859375,-0.03125 1.140625,-0.03125 0.25,0 0.765625,0.015625 1.109375,0.03125 l 0,-0.3125 c -0.671875,0 -0.78125,0 -0.78125,-0.4375 l 0,-1.84375 C 1.78125,-3.625 2.5,-4.1875 3.125,-4.1875 c 0.640625,0 0.75,0.53125 0.75,1.109375 l 0,2.328125 c 0,0.4375 -0.109375,0.4375 -0.78125,0.4375 l 0,0.3125 c 0.34375,-0.015625 0.859375,-0.03125 1.125,-0.03125 0.25,0 0.78125,0.015625 1.109375,0.03125 l 0,-0.3125 c -0.65625,0 -0.765625,0 -0.765625,-0.4375 l 0,-1.84375 c 0,-1.03125 0.703125,-1.59375 1.34375,-1.59375 0.625,0 0.734375,0.53125 0.734375,1.109375 l 0,2.328125 c 0,0.4375 -0.109375,0.4375 -0.78125,0.4375 l 0,0.3125 c 0.34375,-0.015625 0.859375,-0.03125 1.125,-0.03125 0.265625,0 0.78125,0.015625 1.125,0.03125 l 0,-0.3125 c -0.515625,0 -0.765625,0 -0.78125,-0.296875 l 0,-1.90625 c 0,-0.859375 0,-1.15625 -0.3125,-1.515625 -0.140625,-0.171875 -0.46875,-0.375 -1.046875,-0.375 -0.828125,0 -1.28125,0.59375 -1.4375,0.984375 C 4.390625,-4.296875 3.65625,-4.40625 3.203125,-4.40625 2.46875,-4.40625 2,-3.984375 1.71875,-3.359375 l 0,-1.046875 -1.40625,0.109375 0,0.3125 c 0.703125,0 0.78125,0.0625 0.78125,0.5625 z m 0,0"
               style="stroke:none"
               inkscape:connector-curvature="0" />
          </symbol>
          <symbol
             id="symbol40411"
             overflow="visible"
             style="overflow:visible">
            <path
               id="path40413"
               d="m 3.3125,-0.75 c 0.046875,0.390625 0.3125,0.8125 0.78125,0.8125 0.21875,0 0.828125,-0.140625 0.828125,-0.953125 l 0,-0.5625 -0.25,0 0,0.5625 c 0,0.578125 -0.25,0.640625 -0.359375,0.640625 -0.328125,0 -0.375,-0.453125 -0.375,-0.5 l 0,-1.984375 c 0,-0.421875 0,-0.8125 -0.359375,-1.1875 C 3.1875,-4.3125 2.6875,-4.46875 2.21875,-4.46875 c -0.828125,0 -1.515625,0.46875 -1.515625,1.125 0,0.296875 0.203125,0.46875 0.46875,0.46875 0.28125,0 0.453125,-0.203125 0.453125,-0.453125 0,-0.125 -0.046875,-0.453125 -0.515625,-0.453125 C 1.390625,-4.140625 1.875,-4.25 2.1875,-4.25 c 0.5,0 1.0625,0.390625 1.0625,1.28125 l 0,0.359375 c -0.515625,0.03125 -1.203125,0.0625 -1.828125,0.359375 -0.75,0.34375 -1,0.859375 -1,1.296875 0,0.8125 0.96875,1.0625 1.59375,1.0625 0.65625,0 1.109375,-0.40625 1.296875,-0.859375 z M 3.25,-2.390625 l 0,1 c 0,0.9375 -0.71875,1.28125 -1.171875,1.28125 -0.484375,0 -0.890625,-0.34375 -0.890625,-0.84375 0,-0.546875 0.421875,-1.375 2.0625,-1.4375 z m 0,0"
               style="stroke:none"
               inkscape:connector-curvature="0" />
          </symbol>
          <symbol
             id="symbol40415"
             overflow="visible"
             style="overflow:visible">
            <path
               id="path40417"
               d="M 2.859375,-2.34375 C 3.15625,-2.71875 3.53125,-3.203125 3.78125,-3.46875 4.09375,-3.828125 4.5,-3.984375 4.96875,-3.984375 l 0,-0.3125 c -0.265625,0.015625 -0.5625,0.03125 -0.828125,0.03125 -0.296875,0 -0.828125,-0.015625 -0.953125,-0.03125 l 0,0.3125 c 0.21875,0.015625 0.296875,0.140625 0.296875,0.3125 0,0.15625 -0.109375,0.28125 -0.15625,0.34375 L 2.71875,-2.546875 1.9375,-3.5625 C 1.84375,-3.65625 1.84375,-3.671875 1.84375,-3.734375 c 0,-0.15625 0.15625,-0.25 0.34375,-0.25 l 0,-0.3125 c -0.25,0.015625 -0.90625,0.03125 -1.078125,0.03125 -0.203125,0 -0.671875,-0.015625 -0.9375,-0.03125 l 0,0.3125 c 0.703125,0 0.703125,0 1.171875,0.609375 l 0.984375,1.28125 -0.9375,1.1875 C 0.921875,-0.328125 0.328125,-0.3125 0.125,-0.3125 L 0.125,0 c 0.25,-0.015625 0.5625,-0.03125 0.828125,-0.03125 0.28125,0 0.703125,0.015625 0.9375,0.03125 l 0,-0.3125 c -0.21875,-0.03125 -0.28125,-0.15625 -0.28125,-0.3125 0,-0.21875 0.28125,-0.546875 0.890625,-1.265625 l 0.765625,1 C 3.34375,-0.78125 3.46875,-0.625 3.46875,-0.5625 c 0,0.09375 -0.09375,0.25 -0.359375,0.25 l 0,0.3125 C 3.40625,-0.015625 3.96875,-0.03125 4.1875,-0.03125 c 0.265625,0 0.65625,0.015625 0.953125,0.03125 l 0,-0.3125 c -0.53125,0 -0.71875,-0.015625 -0.9375,-0.3125 z m 0,0"
               style="stroke:none"
               inkscape:connector-curvature="0" />
          </symbol>
        </g>
      </defs>
      <g
         id="g40419">
        <g
           id="g40421"
           style="fill:#000000;fill-opacity:1">
          <use
             id="use40423"
             y="134.765"
             x="223.43201"
             xlink:href="#textext-deb4a57a-0"
             width="1052.3622"
             height="744.09448" />
        </g>
        <g
           id="g40425"
           style="fill:#000000;fill-opacity:1">
          <use
             id="use40427"
             y="136.259"
             x="230.786"
             xlink:href="#textext-deb4a57a-2"
             width="1052.3622"
             height="744.09448" />
        </g>
        <g
           id="g40429"
           style="fill:#000000;fill-opacity:1">
          <use
             id="use40431"
             y="136.259"
             x="235.40265"
             xlink:href="#textext-deb4a57a-3"
             width="1052.3622"
             height="744.09448" />
          <use
             id="use40433"
             y="136.259"
             x="239.37424"
             xlink:href="#textext-deb4a57a-4"
             width="1052.3622"
             height="744.09448" />
        </g>
        <g
           id="g40435"
           style="fill:#000000;fill-opacity:1">
          <use
             id="use40437"
             y="136.259"
             x="242.48599"
             xlink:href="#textext-deb4a57a-5"
             width="1052.3622"
             height="744.09448" />
        </g>
        <g
           id="g40439"
           style="fill:#000000;fill-opacity:1">
          <use
             id="use40441"
             y="134.765"
             x="248.117"
             xlink:href="#textext-deb4a57a-6"
             width="1052.3622"
             height="744.09448" />
        </g>
        <g
           id="g40443"
           style="fill:#000000;fill-opacity:1">
          <use
             id="use40445"
             y="134.765"
             x="258.6355"
             xlink:href="#textext-deb4a57a-7"
             width="1052.3622"
             height="744.09448" />
          <use
             id="use40447"
             y="134.765"
             x="266.93735"
             xlink:href="#textext-deb4a57a-8"
             width="1052.3622"
             height="744.09448" />
          <use
             id="use40449"
             y="134.765"
             x="271.91864"
             xlink:href="#textext-deb4a57a-9"
             width="1052.3622"
             height="744.09448" />
        </g>
        <g
           id="g40451"
           style="fill:#000000;fill-opacity:1">
          <use
             id="use40453"
             y="134.765"
             x="277.17499"
             xlink:href="#textext-deb4a57a-1"
             width="1052.3622"
             height="744.09448" />
        </g>
      </g>
    </g>
    <g
       ns0:text="\\begin{align*}\nE _{\\rm{pot}} &amp;= max. \\\\\nv &amp;= 0 \\\\\na &amp;= max.\n\\end{align*}\n"
       ns0:preamble="/home/waldgeist/data/sphinx/test.tex"
       transform="matrix(3.3912472,0,0,3.3912472,-521.80063,349.01141)"
       id="g47369">
      <defs
         id="defs47371">
        <g
           id="g47373">
          <symbol
             overflow="visible"
             id="symbol47375"
             style="overflow:visible">
            <path
               style="stroke:none"
               d="M 7.0625,-2.328125 C 7.078125,-2.375 7.109375,-2.4375 7.109375,-2.46875 c 0,0 0,-0.109375 -0.125,-0.109375 -0.09375,0 -0.109375,0.0625 -0.125,0.125 -0.65625,1.46875 -1.015625,2.140625 -2.71875,2.140625 l -1.453125,0 c -0.140625,0 -0.171875,0 -0.21875,0 -0.109375,-0.015625 -0.140625,-0.03125 -0.140625,-0.109375 0,-0.03125 0,-0.046875 0.046875,-0.21875 L 3.0625,-3.375 l 0.984375,0 c 0.84375,0 0.84375,0.21875 0.84375,0.46875 0,0.0625 0,0.1875 -0.0625,0.484375 C 4.8125,-2.375 4.796875,-2.34375 4.796875,-2.3125 c 0,0.046875 0.03125,0.109375 0.125,0.109375 C 5,-2.203125 5.03125,-2.25 5.078125,-2.40625 l 0.5625,-2.328125 c 0,-0.0625 -0.046875,-0.109375 -0.125,-0.109375 -0.078125,0 -0.109375,0.0625 -0.125,0.171875 -0.21875,0.765625 -0.390625,1 -1.3125,1 l -0.9375,0 0.59375,-2.40625 C 3.828125,-6.4375 3.84375,-6.46875 4.28125,-6.46875 l 1.40625,0 c 1.203125,0 1.515625,0.28125 1.515625,1.109375 0,0.234375 0,0.25 -0.046875,0.53125 0,0.046875 -0.015625,0.125 -0.015625,0.171875 0,0.046875 0.03125,0.125 0.125,0.125 0.109375,0 0.125,-0.0625 0.140625,-0.25 L 7.609375,-6.515625 C 7.640625,-6.78125 7.59375,-6.78125 7.34375,-6.78125 l -5.046875,0 c -0.1875,0 -0.296875,0 -0.296875,0.203125 0,0.109375 0.09375,0.109375 0.28125,0.109375 0.375,0 0.65625,0 0.65625,0.171875 0,0.046875 0,0.0625 -0.0625,0.25 L 1.5625,-0.78125 c -0.09375,0.390625 -0.109375,0.46875 -0.90625,0.46875 -0.171875,0 -0.28125,0 -0.28125,0.1875 C 0.375,0 0.46875,0 0.65625,0 l 5.171875,0 c 0.234375,0 0.25,-0.015625 0.3125,-0.171875 z m 0,0"
               id="path47377"
               inkscape:connector-curvature="0" />
          </symbol>
          <symbol
             overflow="visible"
             id="symbol47379"
             style="overflow:visible">
            <path
               style="stroke:none"
               d="m 0.875,-0.59375 c -0.03125,0.15625 -0.09375,0.390625 -0.09375,0.4375 0,0.171875 0.140625,0.265625 0.296875,0.265625 0.125,0 0.296875,-0.078125 0.375,-0.28125 0,-0.015625 0.125,-0.484375 0.1875,-0.734375 l 0.21875,-0.890625 C 1.90625,-2.03125 1.96875,-2.25 2.03125,-2.46875 c 0.03125,-0.171875 0.109375,-0.46875 0.125,-0.5 0.140625,-0.3125 0.671875,-1.21875 1.625,-1.21875 0.453125,0 0.53125,0.375 0.53125,0.703125 0,0.25 -0.0625,0.53125 -0.140625,0.828125 L 3.890625,-1.5 3.6875,-0.75 c -0.03125,0.203125 -0.125,0.546875 -0.125,0.59375 0,0.171875 0.140625,0.265625 0.28125,0.265625 0.3125,0 0.375,-0.25 0.453125,-0.5625 0.140625,-0.5625 0.515625,-2.015625 0.59375,-2.40625 0.03125,-0.125 0.5625,-1.328125 1.65625,-1.328125 0.421875,0 0.53125,0.34375 0.53125,0.703125 0,0.5625 -0.421875,1.703125 -0.625,2.234375 -0.078125,0.234375 -0.125,0.34375 -0.125,0.546875 0,0.46875 0.34375,0.8125 0.8125,0.8125 0.9375,0 1.3125,-1.453125 1.3125,-1.53125 0,-0.109375 -0.09375,-0.109375 -0.125,-0.109375 -0.09375,0 -0.09375,0.03125 -0.140625,0.1875 -0.15625,0.53125 -0.46875,1.234375 -1.015625,1.234375 -0.171875,0 -0.25,-0.09375 -0.25,-0.328125 0,-0.25 0.09375,-0.484375 0.1875,-0.703125 0.1875,-0.53125 0.609375,-1.625 0.609375,-2.203125 0,-0.640625 -0.40625,-1.0625 -1.15625,-1.0625 -0.734375,0 -1.25,0.4375 -1.625,0.96875 0,-0.125 -0.03125,-0.46875 -0.3125,-0.703125 -0.25,-0.21875 -0.5625,-0.265625 -0.8125,-0.265625 -0.90625,0 -1.390625,0.640625 -1.5625,0.875 -0.046875,-0.578125 -0.46875,-0.875 -0.921875,-0.875 -0.453125,0 -0.640625,0.390625 -0.734375,0.5625 -0.171875,0.359375 -0.296875,0.9375 -0.296875,0.96875 0,0.109375 0.09375,0.109375 0.109375,0.109375 0.109375,0 0.109375,-0.015625 0.171875,-0.234375 0.171875,-0.703125 0.375,-1.1875 0.734375,-1.1875 0.15625,0 0.296875,0.078125 0.296875,0.453125 0,0.21875 -0.03125,0.328125 -0.15625,0.84375 z m 0,0"
               id="path47381"
               inkscape:connector-curvature="0" />
          </symbol>
          <symbol
             overflow="visible"
             id="symbol47383"
             style="overflow:visible">
            <path
               style="stroke:none"
               d="M 3.71875,-3.765625 C 3.53125,-4.140625 3.25,-4.40625 2.796875,-4.40625 c -1.15625,0 -2.390625,1.46875 -2.390625,2.921875 0,0.9375 0.546875,1.59375 1.3125,1.59375 0.203125,0 0.703125,-0.046875 1.296875,-0.75 0.078125,0.421875 0.4375,0.75 0.90625,0.75 0.359375,0 0.578125,-0.234375 0.75,-0.546875 0.15625,-0.359375 0.296875,-0.96875 0.296875,-0.984375 0,-0.109375 -0.09375,-0.109375 -0.125,-0.109375 -0.09375,0 -0.109375,0.046875 -0.140625,0.1875 -0.171875,0.640625 -0.34375,1.234375 -0.75,1.234375 -0.28125,0 -0.296875,-0.265625 -0.296875,-0.453125 0,-0.21875 0.015625,-0.3125 0.125,-0.75 C 3.890625,-1.71875 3.90625,-1.828125 4,-2.203125 L 4.359375,-3.59375 c 0.0625,-0.28125 0.0625,-0.296875 0.0625,-0.34375 0,-0.171875 -0.109375,-0.265625 -0.28125,-0.265625 -0.25,0 -0.390625,0.21875 -0.421875,0.4375 z M 3.078125,-1.1875 C 3.015625,-1 3.015625,-0.984375 2.875,-0.8125 2.4375,-0.265625 2.03125,-0.109375 1.75,-0.109375 c -0.5,0 -0.640625,-0.546875 -0.640625,-0.9375 0,-0.5 0.3125,-1.71875 0.546875,-2.1875 0.3125,-0.578125 0.75,-0.953125 1.15625,-0.953125 0.640625,0 0.78125,0.8125 0.78125,0.875 0,0.0625 -0.015625,0.125 -0.03125,0.171875 z m 0,0"
               id="path47385"
               inkscape:connector-curvature="0" />
          </symbol>
          <symbol
             overflow="visible"
             id="symbol47387"
             style="overflow:visible">
            <path
               style="stroke:none"
               d="M 3.328125,-3.015625 C 3.390625,-3.265625 3.625,-4.1875 4.3125,-4.1875 c 0.046875,0 0.296875,0 0.5,0.125 C 4.53125,-4 4.34375,-3.765625 4.34375,-3.515625 c 0,0.15625 0.109375,0.34375 0.375,0.34375 0.21875,0 0.53125,-0.171875 0.53125,-0.578125 0,-0.515625 -0.578125,-0.65625 -0.921875,-0.65625 -0.578125,0 -0.921875,0.53125 -1.046875,0.75 -0.25,-0.65625 -0.78125,-0.75 -1.078125,-0.75 -1.03125,0 -1.609375,1.28125 -1.609375,1.53125 0,0.109375 0.109375,0.109375 0.125,0.109375 0.078125,0 0.109375,-0.03125 0.125,-0.109375 0.34375,-1.0625 1,-1.3125 1.34375,-1.3125 0.1875,0 0.53125,0.09375 0.53125,0.671875 0,0.3125 -0.171875,0.96875 -0.53125,2.375 -0.15625,0.609375 -0.515625,1.03125 -0.953125,1.03125 -0.0625,0 -0.28125,0 -0.5,-0.125 0.25,-0.0625 0.46875,-0.265625 0.46875,-0.546875 0,-0.265625 -0.21875,-0.34375 -0.359375,-0.34375 -0.3125,0 -0.546875,0.25 -0.546875,0.578125 0,0.453125 0.484375,0.65625 0.921875,0.65625 0.671875,0 1.03125,-0.703125 1.046875,-0.75 0.125,0.359375 0.484375,0.75 1.078125,0.75 1.03125,0 1.59375,-1.28125 1.59375,-1.53125 0,-0.109375 -0.078125,-0.109375 -0.109375,-0.109375 -0.09375,0 -0.109375,0.046875 -0.140625,0.109375 -0.328125,1.078125 -1,1.3125 -1.3125,1.3125 -0.390625,0 -0.546875,-0.3125 -0.546875,-0.65625 0,-0.21875 0.046875,-0.4375 0.15625,-0.875 z m 0,0"
               id="path47389"
               inkscape:connector-curvature="0" />
          </symbol>
          <symbol
             overflow="visible"
             id="symbol47391"
             style="overflow:visible">
            <path
               style="stroke:none"
               d="m 1.90625,-0.53125 c 0,-0.28125 -0.234375,-0.53125 -0.515625,-0.53125 -0.296875,0 -0.53125,0.25 -0.53125,0.53125 C 0.859375,-0.234375 1.09375,0 1.390625,0 1.671875,0 1.90625,-0.234375 1.90625,-0.53125 z m 0,0"
               id="path47393"
               inkscape:connector-curvature="0" />
          </symbol>
          <symbol
             overflow="visible"
             id="symbol47395"
             style="overflow:visible">
            <path
               style="stroke:none"
               d="m 4.671875,-3.703125 c 0,-0.546875 -0.265625,-0.703125 -0.4375,-0.703125 -0.25,0 -0.5,0.265625 -0.5,0.484375 0,0.125 0.046875,0.1875 0.15625,0.296875 0.21875,0.203125 0.34375,0.453125 0.34375,0.8125 0,0.421875 -0.609375,2.703125 -1.765625,2.703125 -0.515625,0 -0.75,-0.34375 -0.75,-0.875 0,-0.546875 0.28125,-1.28125 0.578125,-2.109375 0.078125,-0.171875 0.125,-0.3125 0.125,-0.5 0,-0.4375 -0.3125,-0.8125 -0.8125,-0.8125 -0.9375,0 -1.3125,1.453125 -1.3125,1.53125 0,0.109375 0.09375,0.109375 0.109375,0.109375 0.109375,0 0.109375,-0.03125 0.15625,-0.1875 0.296875,-1 0.71875,-1.234375 1.015625,-1.234375 0.078125,0 0.25,0 0.25,0.3125 0,0.25 -0.109375,0.53125 -0.171875,0.703125 -0.4375,1.15625 -0.5625,1.609375 -0.5625,2.046875 0,1.078125 0.875,1.234375 1.328125,1.234375 1.671875,0 2.25,-3.296875 2.25,-3.8125 z m 0,0"
               id="path47397"
               inkscape:connector-curvature="0" />
          </symbol>
          <symbol
             overflow="visible"
             id="symbol47399"
             style="overflow:visible">
            <path
               style="stroke:none"
               d="m 1.9375,1.09375 c -0.453125,0 -0.515625,0 -0.515625,-0.296875 l 0,-1.125 C 1.453125,-0.296875 1.78125,0.0625 2.359375,0.0625 3.28125,0.0625 4.0625,-0.625 4.0625,-1.5 c 0,-0.859375 -0.703125,-1.578125 -1.59375,-1.578125 -0.390625,0 -0.796875,0.15625 -1.078125,0.4375 l 0,-0.4375 L 0.34375,-3 l 0,0.25 c 0.484375,0 0.515625,0.046875 0.515625,0.328125 l 0,3.21875 c 0,0.296875 -0.0625,0.296875 -0.515625,0.296875 l 0,0.265625 c 0.015625,0 0.5,-0.03125 0.796875,-0.03125 0.25,0 0.734375,0.015625 0.796875,0.03125 z M 1.421875,-2.328125 C 1.625,-2.671875 2.03125,-2.84375 2.390625,-2.84375 c 0.59375,0 1.046875,0.609375 1.046875,1.34375 0,0.796875 -0.53125,1.375 -1.109375,1.375 -0.625,0 -0.890625,-0.53125 -0.90625,-0.578125 z m 0,0"
               id="path47401"
               inkscape:connector-curvature="0" />
          </symbol>
          <symbol
             overflow="visible"
             id="symbol47403"
             style="overflow:visible">
            <path
               style="stroke:none"
               d="m 3.6875,-1.484375 c 0,-0.875 -0.75,-1.625 -1.703125,-1.625 -0.96875,0 -1.71875,0.75 -1.71875,1.625 0,0.859375 0.765625,1.546875 1.71875,1.546875 0.9375,0 1.703125,-0.6875 1.703125,-1.546875 z M 1.984375,-0.15625 c -0.265625,0 -0.640625,-0.078125 -0.875,-0.421875 -0.1875,-0.28125 -0.203125,-0.640625 -0.203125,-0.96875 0,-0.296875 0,-0.71875 0.25,-1.015625 0.171875,-0.203125 0.46875,-0.34375 0.828125,-0.34375 0.40625,0 0.703125,0.1875 0.859375,0.40625 0.1875,0.265625 0.203125,0.625 0.203125,0.953125 0,0.328125 -0.015625,0.703125 -0.21875,0.984375 -0.1875,0.265625 -0.5,0.40625 -0.84375,0.40625 z m 0,0"
               id="path47405"
               inkscape:connector-curvature="0" />
          </symbol>
          <symbol
             overflow="visible"
             id="symbol47407"
             style="overflow:visible">
            <path
               style="stroke:none"
               d="m 1.40625,-2.75 1.078125,0 0,-0.25 -1.078125,0 0,-1.28125 -0.25,0 c 0,0.625 -0.28125,1.3125 -0.953125,1.328125 l 0,0.203125 0.640625,0 0,1.875 c 0,0.78125 0.59375,0.9375 0.984375,0.9375 0.46875,0 0.78125,-0.390625 0.78125,-0.9375 l 0,-0.390625 -0.234375,0 0,0.375 c 0,0.484375 -0.21875,0.734375 -0.5,0.734375 -0.46875,0 -0.46875,-0.578125 -0.46875,-0.703125 z m 0,0"
               id="path47409"
               inkscape:connector-curvature="0" />
          </symbol>
          <symbol
             overflow="visible"
             id="symbol47411"
             style="overflow:visible">
            <path
               style="stroke:none"
               d="m 6.84375,-3.265625 c 0.15625,0 0.34375,0 0.34375,-0.1875 C 7.1875,-3.65625 7,-3.65625 6.859375,-3.65625 l -5.96875,0 c -0.140625,0 -0.328125,0 -0.328125,0.203125 0,0.1875 0.1875,0.1875 0.328125,0.1875 z m 0.015625,1.9375 c 0.140625,0 0.328125,0 0.328125,-0.203125 0,-0.1875 -0.1875,-0.1875 -0.34375,-0.1875 l -5.953125,0 c -0.140625,0 -0.328125,0 -0.328125,0.1875 0,0.203125 0.1875,0.203125 0.328125,0.203125 z m 0,0"
               id="path47413"
               inkscape:connector-curvature="0" />
          </symbol>
          <symbol
             overflow="visible"
             id="symbol47415"
             style="overflow:visible">
            <path
               style="stroke:none"
               d="m 4.578125,-3.1875 c 0,-0.796875 -0.046875,-1.59375 -0.390625,-2.328125 -0.453125,-0.96875 -1.28125,-1.125 -1.6875,-1.125 -0.609375,0 -1.328125,0.265625 -1.75,1.1875 -0.3125,0.6875 -0.359375,1.46875 -0.359375,2.265625 0,0.75 0.03125,1.640625 0.453125,2.40625 0.421875,0.796875 1.15625,1 1.640625,1 0.53125,0 1.296875,-0.203125 1.734375,-1.15625 0.3125,-0.6875 0.359375,-1.46875 0.359375,-2.25 z M 2.484375,0 C 2.09375,0 1.5,-0.25 1.328125,-1.203125 1.21875,-1.796875 1.21875,-2.71875 1.21875,-3.3125 c 0,-0.640625 0,-1.296875 0.078125,-1.828125 0.1875,-1.1875 0.9375,-1.28125 1.1875,-1.28125 0.328125,0 0.984375,0.1875 1.171875,1.171875 0.109375,0.5625 0.109375,1.3125 0.109375,1.9375 0,0.75 0,1.421875 -0.109375,2.0625 C 3.5,-0.296875 2.9375,0 2.484375,0 z m 0,0"
               id="path47417"
               inkscape:connector-curvature="0" />
          </symbol>
        </g>
      </defs>
      <g
         id="g47419">
        <g
           style="fill:#000000;fill-opacity:1"
           id="g47421">
          <use
             xlink:href="#textext-2289d23f-0"
             x="367.633"
             y="134.765"
             id="use47423"
             width="1052.3622"
             height="744.09448" />
        </g>
        <g
           style="fill:#000000;fill-opacity:1"
           id="g47425">
          <use
             xlink:href="#textext-2289d23f-6"
             x="374.987"
             y="136.259"
             id="use47427"
             width="1052.3622"
             height="744.09448" />
        </g>
        <g
           style="fill:#000000;fill-opacity:1"
           id="g47429">
          <use
             xlink:href="#textext-2289d23f-7"
             x="379.60367"
             y="136.259"
             id="use47431"
             width="1052.3622"
             height="744.09448" />
          <use
             xlink:href="#textext-2289d23f-8"
             x="383.57523"
             y="136.259"
             id="use47433"
             width="1052.3622"
             height="744.09448" />
        </g>
        <g
           style="fill:#000000;fill-opacity:1"
           id="g47435">
          <use
             xlink:href="#textext-2289d23f-9"
             x="389.952"
             y="134.765"
             id="use47437"
             width="1052.3622"
             height="744.09448" />
        </g>
        <g
           style="fill:#000000;fill-opacity:1"
           id="g47439">
          <use
             xlink:href="#textext-2289d23f-1"
             x="400.46799"
             y="134.765"
             id="use47441"
             width="1052.3622"
             height="744.09448" />
          <use
             xlink:href="#textext-2289d23f-2"
             x="409.21515"
             y="134.765"
             id="use47443"
             width="1052.3622"
             height="744.09448" />
          <use
             xlink:href="#textext-2289d23f-3"
             x="414.48138"
             y="134.765"
             id="use47445"
             width="1052.3622"
             height="744.09448" />
          <use
             xlink:href="#textext-2289d23f-4"
             x="420.17502"
             y="134.765"
             id="use47447"
             width="1052.3622"
             height="744.09448" />
        </g>
        <g
           style="fill:#000000;fill-opacity:1"
           id="g47449">
          <use
             xlink:href="#textext-2289d23f-5"
             x="381.99799"
             y="149.709"
             id="use47451"
             width="1052.3622"
             height="744.09448" />
        </g>
        <g
           style="fill:#000000;fill-opacity:1"
           id="g47453">
          <use
             xlink:href="#textext-2289d23f-9"
             x="389.952"
             y="149.709"
             id="use47455"
             width="1052.3622"
             height="744.09448" />
        </g>
        <g
           style="fill:#000000;fill-opacity:1"
           id="g47457">
          <use
             xlink:href="#textext-2289d23f-10"
             x="400.47052"
             y="149.709"
             id="use47459"
             width="1052.3622"
             height="744.09448" />
        </g>
        <g
           style="fill:#000000;fill-opacity:1"
           id="g47461">
          <use
             xlink:href="#textext-2289d23f-2"
             x="381.918"
             y="164.653"
             id="use47463"
             width="1052.3622"
             height="744.09448" />
        </g>
        <g
           style="fill:#000000;fill-opacity:1"
           id="g47465">
          <use
             xlink:href="#textext-2289d23f-9"
             x="389.952"
             y="164.653"
             id="use47467"
             width="1052.3622"
             height="744.09448" />
        </g>
        <g
           style="fill:#000000;fill-opacity:1"
           id="g47469">
          <use
             xlink:href="#textext-2289d23f-1"
             x="400.46799"
             y="164.653"
             id="use47471"
             width="1052.3622"
             height="744.09448" />
          <use
             xlink:href="#textext-2289d23f-2"
             x="409.21515"
             y="164.653"
             id="use47473"
             width="1052.3622"
             height="744.09448" />
          <use
             xlink:href="#textext-2289d23f-3"
             x="414.48138"
             y="164.653"
             id="use47475"
             width="1052.3622"
             height="744.09448" />
          <use
             xlink:href="#textext-2289d23f-4"
             x="420.17502"
             y="164.653"
             id="use47477"
             width="1052.3622"
             height="744.09448" />
        </g>
      </g>
    </g>
    <rect
       style="fill:#ffffff;stroke:#ffffff;stroke-width:6;stroke-linecap:round;stroke-linejoin:round;stroke-miterlimit:4;stroke-opacity:1;stroke-dasharray:5.99999985000000002, 17.99999953000000019;stroke-dashoffset:0"
       id="rect5787"
       width="1038.4064"
       height="352.45917"
       x="6.9779048"
       y="-856.54449"
       ry="4.3343701"
       transform="scale(1,-1)"
       inkscape:export-filename="/home/waldgeist/data/homepage/pics/physik/mechanik/schwingungen-und-wellen/kugel-in-half-pipe.png"
       inkscape:export-xdpi="150"
       inkscape:export-ydpi="150" />
    <path
       style="fill:#666666;stroke:#000000;stroke-width:3;stroke-linecap:butt;stroke-linejoin:miter;stroke-miterlimit:4;stroke-opacity:1;stroke-dasharray:none;stroke-dashoffset:0"
       d="m 366.37305,630.43147 0,140.21875 319.61608,0 0,-140.21875 c 0,51.44889 -83.65416,89.28125 -159.80804,89.28125 -76.15388,0 -159.80804,-36.82221 -159.80804,-89.28125 z"
       id="rect51119"
       inkscape:connector-curvature="0"
       sodipodi:nodetypes="cccczc"
       inkscape:export-filename="/home/waldgeist/data/homepage/pics/physik/mechanik/schwingungen-und-wellen/kugel-in-half-pipe.png"
       inkscape:export-xdpi="150"
       inkscape:export-ydpi="150" />
    <g
       inkscape:transform-center-y="61.628092"
       transform="matrix(-0.22080889,0.82407,0.82407,0.22080889,-75.093831,163.71306)"
       id="g51172"
       inkscape:transform-center-x="-229.99881"
       inkscape:export-filename="/home/waldgeist/data/homepage/pics/physik/mechanik/schwingungen-und-wellen/kugel-in-half-pipe.png"
       inkscape:export-xdpi="150"
       inkscape:export-ydpi="150">
      <g
         id="g51174"
         transform="matrix(1.0932987,0,0,1.0932987,146.25888,873.23467)">
        <g
           style="stroke:#333333;stroke-width:1.17214048"
           transform="translate(-5.9381697,-48.600505)"
           id="g51176" />
        <g
           transform="matrix(0.39397884,0,0,0.39397884,71.68922,-123.74096)"
           id="g51178">
          <path
             sodipodi:type="arc"
             style="fill:#b3b3b3;fill-opacity:1;fill-rule:nonzero;stroke:#4d4d4d;stroke-width:5.44249392;stroke-linecap:square;stroke-linejoin:miter;stroke-miterlimit:4;stroke-opacity:1;stroke-dasharray:none;stroke-dashoffset:0"
             id="path51180"
             sodipodi:cx="342.85715"
             sodipodi:cy="400.93362"
             sodipodi:rx="131.42857"
             sodipodi:ry="131.42857"
             d="m 474.28572,400.93362 c 0,72.586 -58.84258,131.42858 -131.42857,131.42858 -72.586,0 -131.42858,-58.84258 -131.42858,-131.42858 0,-72.58599 58.84258,-131.42857 131.42858,-131.42857 72.58599,0 131.42857,58.84258 131.42857,131.42857 z"
             transform="translate(40.406102,-177.78685)" />
          <path
             sodipodi:type="arc"
             style="fill:#ffffff;fill-opacity:1;fill-rule:nonzero;stroke:none;filter:url(#filter4801-2)"
             id="path51182"
             sodipodi:cx="290"
             sodipodi:cy="350.93362"
             sodipodi:rx="11.428572"
             sodipodi:ry="11.428572"
             d="m 301.42857,350.93362 c 0,6.31183 -5.11674,11.42858 -11.42857,11.42858 -6.31183,0 -11.42857,-5.11675 -11.42857,-11.42858 0,-6.31182 5.11674,-11.42857 11.42857,-11.42857 6.31183,0 11.42857,5.11675 11.42857,11.42857 z"
             transform="translate(40.406102,-177.78685)" />
        </g>
      </g>
      <g
         id="g51184"
         transform="matrix(0.99845485,-0.05556898,0.05556898,0.99845485,-54.745612,207.36773)"
         inkscape:transform-center-y="287.93546"
         inkscape:transform-center-x="-6.2717741" />
    </g>
    <g
       inkscape:transform-center-x="-229.99881"
       id="g51140"
       transform="matrix(-0.22080889,0.82407,0.82407,0.22080889,-535.29947,129.60415)"
       inkscape:transform-center-y="61.628092"
       inkscape:export-filename="/home/waldgeist/data/homepage/pics/physik/mechanik/schwingungen-und-wellen/kugel-in-half-pipe.png"
       inkscape:export-xdpi="150"
       inkscape:export-ydpi="150">
      <g
         transform="matrix(1.0932987,0,0,1.0932987,146.25888,873.23467)"
         id="g51142">
        <g
           id="g51144"
           transform="translate(-5.9381697,-48.600505)"
           style="stroke:#333333;stroke-width:1.17214048" />
        <g
           id="g51146"
           transform="matrix(0.39397884,0,0,0.39397884,71.68922,-123.74096)">
          <path
             transform="translate(40.406102,-177.78685)"
             d="m 474.28572,400.93362 c 0,72.586 -58.84258,131.42858 -131.42857,131.42858 -72.586,0 -131.42858,-58.84258 -131.42858,-131.42858 0,-72.58599 58.84258,-131.42857 131.42858,-131.42857 72.58599,0 131.42857,58.84258 131.42857,131.42857 z"
             sodipodi:ry="131.42857"
             sodipodi:rx="131.42857"
             sodipodi:cy="400.93362"
             sodipodi:cx="342.85715"
             id="path51148"
             style="fill:#b3b3b3;fill-opacity:1;fill-rule:nonzero;stroke:#4d4d4d;stroke-width:5.44249392;stroke-linecap:square;stroke-linejoin:miter;stroke-miterlimit:4;stroke-opacity:1;stroke-dasharray:none;stroke-dashoffset:0"
             sodipodi:type="arc" />
          <path
             transform="translate(40.406102,-177.78685)"
             d="m 301.42857,350.93362 c 0,6.31183 -5.11674,11.42858 -11.42857,11.42858 -6.31183,0 -11.42857,-5.11675 -11.42857,-11.42858 0,-6.31182 5.11674,-11.42857 11.42857,-11.42857 6.31183,0 11.42857,5.11675 11.42857,11.42857 z"
             sodipodi:ry="11.428572"
             sodipodi:rx="11.428572"
             sodipodi:cy="350.93362"
             sodipodi:cx="290"
             id="path51150"
             style="fill:#ffffff;fill-opacity:1;fill-rule:nonzero;stroke:none;filter:url(#filter4801-2)"
             sodipodi:type="arc" />
        </g>
      </g>
      <g
         inkscape:transform-center-x="-6.2717741"
         inkscape:transform-center-y="287.93546"
         transform="matrix(0.99845485,-0.05556898,0.05556898,0.99845485,-54.745612,207.36773)"
         id="g51152" />
    </g>
    <path
       sodipodi:nodetypes="cccczc"
       inkscape:connector-curvature="0"
       id="path51200"
       d="m 15.667384,633.28861 0,140.21875 319.616086,0 0,-140.21875 c 0,51.44889 -83.65416,89.28125 -159.80804,89.28125 -76.153886,0 -159.808046,-36.82221 -159.808046,-89.28125 z"
       style="fill:#666666;stroke:#000000;stroke-width:3;stroke-linecap:butt;stroke-linejoin:miter;stroke-miterlimit:4;stroke-opacity:1;stroke-dasharray:none;stroke-dashoffset:0"
       inkscape:export-filename="/home/waldgeist/data/homepage/pics/physik/mechanik/schwingungen-und-wellen/kugel-in-half-pipe.png"
       inkscape:export-xdpi="150"
       inkscape:export-ydpi="150" />
    <g
       inkscape:transform-center-y="61.628092"
       transform="matrix(-0.22080889,0.82407,0.82407,0.22080889,384.11188,129.60415)"
       id="g51202"
       inkscape:transform-center-x="-229.99881"
       inkscape:export-filename="/home/waldgeist/data/homepage/pics/physik/mechanik/schwingungen-und-wellen/kugel-in-half-pipe.png"
       inkscape:export-xdpi="150"
       inkscape:export-ydpi="150">
      <g
         id="g51204"
         transform="matrix(1.0932987,0,0,1.0932987,146.25888,873.23467)">
        <g
           style="stroke:#333333;stroke-width:1.17214048"
           transform="translate(-5.9381697,-48.600505)"
           id="g51206" />
        <g
           transform="matrix(0.39397884,0,0,0.39397884,71.68922,-123.74096)"
           id="g51208">
          <path
             sodipodi:type="arc"
             style="fill:#b3b3b3;fill-opacity:1;fill-rule:nonzero;stroke:#4d4d4d;stroke-width:5.44249392;stroke-linecap:square;stroke-linejoin:miter;stroke-miterlimit:4;stroke-opacity:1;stroke-dasharray:none;stroke-dashoffset:0"
             id="path51210"
             sodipodi:cx="342.85715"
             sodipodi:cy="400.93362"
             sodipodi:rx="131.42857"
             sodipodi:ry="131.42857"
             d="m 474.28572,400.93362 c 0,72.586 -58.84258,131.42858 -131.42857,131.42858 -72.586,0 -131.42858,-58.84258 -131.42858,-131.42858 0,-72.58599 58.84258,-131.42857 131.42858,-131.42857 72.58599,0 131.42857,58.84258 131.42857,131.42857 z"
             transform="translate(40.406102,-177.78685)" />
          <path
             sodipodi:type="arc"
             style="fill:#ffffff;fill-opacity:1;fill-rule:nonzero;stroke:none;filter:url(#filter4801-2)"
             id="path51212"
             sodipodi:cx="290"
             sodipodi:cy="350.93362"
             sodipodi:rx="11.428572"
             sodipodi:ry="11.428572"
             d="m 301.42857,350.93362 c 0,6.31183 -5.11674,11.42858 -11.42857,11.42858 -6.31183,0 -11.42857,-5.11675 -11.42857,-11.42858 0,-6.31182 5.11674,-11.42857 11.42857,-11.42857 6.31183,0 11.42857,5.11675 11.42857,11.42857 z"
             transform="translate(40.406102,-177.78685)" />
        </g>
      </g>
      <g
         id="g51214"
         transform="matrix(0.99845485,-0.05556898,0.05556898,0.99845485,-54.745612,207.36773)"
         inkscape:transform-center-y="287.93546"
         inkscape:transform-center-x="-6.2717741" />
    </g>
    <path
       style="fill:#666666;stroke:#000000;stroke-width:3;stroke-linecap:butt;stroke-linejoin:miter;stroke-miterlimit:4;stroke-opacity:1;stroke-dasharray:none;stroke-dashoffset:0"
       d="m 717.07874,633.28861 0,140.21875 319.61606,0 0,-140.21875 c 0,51.44889 -83.65414,89.28125 -159.80802,89.28125 -76.15388,0 -159.80804,-36.82221 -159.80804,-89.28125 z"
       id="path51216"
       inkscape:connector-curvature="0"
       sodipodi:nodetypes="cccczc"
       inkscape:export-filename="/home/waldgeist/data/homepage/pics/physik/mechanik/schwingungen-und-wellen/kugel-in-half-pipe.png"
       inkscape:export-xdpi="150"
       inkscape:export-ydpi="150" />
    <path
       inkscape:connector-curvature="0"
       id="path42816"
       d="m 985.38681,634.93171 -55.05006,55.05005"
       style="fill:#d40000;stroke:#d40000;stroke-width:14.94471359;stroke-linecap:butt;stroke-linejoin:miter;stroke-miterlimit:4;stroke-opacity:1;stroke-dasharray:none"
       sodipodi:nodetypes="cc"
       inkscape:export-filename="/home/waldgeist/data/homepage/pics/physik/mechanik/schwingungen-und-wellen/kugel-in-half-pipe.png"
       inkscape:export-xdpi="150"
       inkscape:export-ydpi="150" />
    <path
       sodipodi:type="star"
       style="fill:#d40000;stroke:#d40000;stroke-width:42.60248947;stroke-miterlimit:4;stroke-dasharray:none"
       id="path42818"
       sodipodi:sides="3"
       sodipodi:cx="-707.10675"
       sodipodi:cy="1607.946"
       sodipodi:r1="12.121831"
       sodipodi:r2="6.060915"
       sodipodi:arg1="1.5707963"
       sodipodi:arg2="2.6179939"
       inkscape:flatsided="false"
       inkscape:rounded="0"
       inkscape:randomized="0"
       d="m -707.10675,1620.0679 -5.24891,-9.0914 -5.2489,-9.0914 10.49781,0 10.49781,0 -5.2489,9.0914 z"
       inkscape:transform-center-y="-0.00017641075"
       transform="matrix(0.2481935,0.24820951,-0.24820951,0.2481935,1500.0806,471.27351)"
       inkscape:transform-center-x="-3.0302635"
       inkscape:export-filename="/home/waldgeist/data/homepage/pics/physik/mechanik/schwingungen-und-wellen/kugel-in-half-pipe.png"
       inkscape:export-xdpi="150"
       inkscape:export-ydpi="150" />
    <path
       sodipodi:nodetypes="cc"
       style="fill:#d40000;stroke:#d40000;stroke-width:14.94471359;stroke-linecap:butt;stroke-linejoin:miter;stroke-miterlimit:4;stroke-opacity:1;stroke-dasharray:none"
       d="M 65.975443,634.93171 121.0255,689.98176"
       id="path52196"
       inkscape:connector-curvature="0"
       inkscape:export-filename="/home/waldgeist/data/homepage/pics/physik/mechanik/schwingungen-und-wellen/kugel-in-half-pipe.png"
       inkscape:export-xdpi="150"
       inkscape:export-ydpi="150" />
    <path
       inkscape:transform-center-x="-3.0302635"
       transform="matrix(-0.2481935,0.24820951,0.24820951,0.2481935,-448.71833,471.27351)"
       inkscape:transform-center-y="-0.00017641075"
       d="m -707.10675,1620.0679 -5.24891,-9.0914 -5.2489,-9.0914 10.49781,0 10.49781,0 -5.2489,9.0914 z"
       inkscape:randomized="0"
       inkscape:rounded="0"
       inkscape:flatsided="false"
       sodipodi:arg2="2.6179939"
       sodipodi:arg1="1.5707963"
       sodipodi:r2="6.060915"
       sodipodi:r1="12.121831"
       sodipodi:cy="1607.946"
       sodipodi:cx="-707.10675"
       sodipodi:sides="3"
       id="path52198"
       style="fill:#d40000;stroke:#d40000;stroke-width:42.60248947;stroke-miterlimit:4;stroke-dasharray:none"
       sodipodi:type="star"
       inkscape:export-filename="/home/waldgeist/data/homepage/pics/physik/mechanik/schwingungen-und-wellen/kugel-in-half-pipe.png"
       inkscape:export-xdpi="150"
       inkscape:export-ydpi="150" />
  </g>
</svg>
