<svg xmlns:ns0="http://www.iki.fi/pav/software/textext/" xmlns="http://www.w3.org/2000/svg" xmlns:xlink="http://www.w3.org/1999/xlink" width="1052.362" height="744.094"><title>Das Pendel</title><defs><marker orient="auto" id="y" overflow="visible"><path d="M1.154 0l-1.73 1v-2l1.73 1z" fill-rule="evenodd" stroke="#000" stroke-width=".2pt"/></marker><filter id="a" x="-.48" width="1.96" y="-.48" height="1.96" color-interpolation-filters="sRGB"><feGaussianBlur stdDeviation="4.571"/></filter><symbol overflow="visible" id="x"><path d="M1.688 1.688c-.032.14-.047.156-.047.203 0 .218.187.28.296.28a.413.413 0 0 0 .36-.265c.031-.078.078-.406.36-1.812.077 0 .155.015.327.015 1.657 0 3.188-1.562 3.188-3.14 0-.781-.39-1.375-1.14-1.375-1.438 0-2.048 1.937-2.641 3.875C1.312-.734.75-1.281.75-2c0-.281.234-1.375.828-2.063.094-.093.094-.109.094-.14 0-.031-.031-.094-.125-.094C1.266-4.297.5-2.844.5-1.89c0 .938.656 1.657 1.719 1.907zM3.077-.47c-.094 0-.11 0-.187-.015-.125 0-.125 0-.125-.032 0-.015.171-.937.187-1.078.313-1.281 1.094-2.234 1.985-2.234.687 0 .953.531.953 1.015 0 1.126-1.282 2.344-2.813 2.344zm0 0"/></symbol><symbol id="m" overflow="visible"><path d="M7.063-2.328c.015-.047.046-.11.046-.14 0 0 0-.11-.125-.11-.093 0-.109.062-.125.125-.656 1.469-1.015 2.14-2.718 2.14H2.469c-.11-.015-.14-.03-.14-.109 0-.031 0-.047.046-.219l.688-2.734h.984c.844 0 .844.219.844.469 0 .062 0 .187-.063.484-.016.047-.031.078-.031.11 0 .046.031.109.125.109.078 0 .11-.047.156-.203l.563-2.328c0-.063-.047-.11-.125-.11-.079 0-.11.063-.125.172-.22.766-.391 1-1.313 1h-.937l.593-2.406c.094-.36.11-.39.547-.39h1.407c1.203 0 1.515.28 1.515 1.109 0 .234 0 .25-.047.53 0 .048-.015.126-.015.173 0 .047.03.125.125.125.109 0 .125-.063.14-.25l.203-1.735c.032-.265-.015-.265-.265-.265H2.297c-.188 0-.297 0-.297.203 0 .11.094.11.281.11.375 0 .656 0 .656.171 0 .047 0 .063-.062.25L1.562-.78c-.093.39-.109.469-.906.469-.172 0-.281 0-.281.187C.375 0 .469 0 .656 0h5.172c.234 0 .25-.016.313-.172zm0 0"/></symbol><symbol id="r" overflow="visible"><path d="M.875-.594c-.031.156-.094.39-.094.438 0 .172.14.265.297.265a.414.414 0 0 0 .375-.28c0-.016.125-.485.188-.735l.218-.89c.047-.235.11-.454.172-.673.031-.172.11-.469.125-.5.14-.312.672-1.219 1.625-1.219.453 0 .531.375.531.704 0 .25-.062.53-.14.828L3.89-1.5l-.204.75c-.03.203-.124.547-.124.594 0 .172.14.265.28.265.313 0 .376-.25.454-.562.14-.563.516-2.016.594-2.406.03-.125.562-1.329 1.656-1.329.422 0 .531.344.531.704 0 .562-.422 1.703-.625 2.234-.078.234-.125.344-.125.547 0 .469.344.812.813.812.937 0 1.312-1.453 1.312-1.53 0-.11-.094-.11-.125-.11-.094 0-.094.031-.14.187-.157.532-.47 1.235-1.016 1.235-.172 0-.25-.094-.25-.329 0-.25.094-.484.187-.703.188-.53.61-1.625.61-2.203 0-.64-.407-1.062-1.157-1.062-.734 0-1.25.437-1.625.968 0-.124-.03-.468-.312-.703-.25-.218-.563-.265-.813-.265-.906 0-1.39.64-1.562.875-.047-.578-.469-.875-.922-.875-.453 0-.64.39-.734.562-.172.36-.297.938-.297.969 0 .11.094.11.11.11.109 0 .109-.016.171-.235.172-.703.375-1.188.735-1.188.156 0 .296.079.296.454 0 .218-.03.328-.156.843zm0 0"/></symbol><symbol id="s" overflow="visible"><path d="M3.719-3.766c-.188-.375-.469-.64-.922-.64-1.156 0-2.39 1.468-2.39 2.922C.406-.547.952.109 1.718.109c.203 0 .703-.046 1.297-.75a.91.91 0 0 0 .906.75c.36 0 .578-.234.75-.546a6.49 6.49 0 0 0 .297-.985c0-.11-.094-.11-.125-.11-.094 0-.11.048-.14.188-.173.64-.345 1.235-.75 1.235-.282 0-.298-.266-.298-.454 0-.218.016-.312.125-.75.11-.406.125-.515.219-.89l.36-1.39c.062-.282.062-.298.062-.345 0-.171-.11-.265-.281-.265-.25 0-.391.219-.422.437zm-.64 2.579c-.063.187-.063.203-.204.375-.438.546-.844.703-1.125.703-.5 0-.64-.547-.64-.938 0-.5.312-1.719.546-2.187.313-.579.75-.954 1.157-.954.64 0 .78.813.78.875a.562.562 0 0 1-.03.172zm0 0"/></symbol><symbol id="t" overflow="visible"><path d="M3.328-3.016c.063-.25.297-1.171.985-1.171.046 0 .296 0 .5.125a.578.578 0 0 0-.47.546c0 .157.11.344.376.344a.546.546 0 0 0 .531-.578c0-.516-.578-.656-.922-.656-.578 0-.922.531-1.047.75-.25-.656-.781-.75-1.078-.75-1.031 0-1.61 1.281-1.61 1.531 0 .11.11.11.126.11.078 0 .11-.032.125-.11.344-1.063 1-1.313 1.344-1.313.187 0 .53.094.53.672 0 .313-.171.97-.53 2.375-.157.61-.516 1.032-.954 1.032-.062 0-.28 0-.5-.125.25-.063.47-.266.47-.547 0-.266-.22-.344-.36-.344-.313 0-.547.25-.547.578 0 .453.484.656.922.656.672 0 1.031-.703 1.047-.75.125.36.484.75 1.078.75 1.031 0 1.594-1.28 1.594-1.53 0-.11-.079-.11-.11-.11-.094 0-.11.047-.14.11-.329 1.077-1 1.312-1.313 1.312-.39 0-.547-.313-.547-.657 0-.218.047-.437.156-.875zm0 0"/></symbol><symbol id="u" overflow="visible"><path d="M1.906-.531a.534.534 0 0 0-.515-.531.537.537 0 0 0-.532.53.524.524 0 1 0 1.047 0zm0 0"/></symbol><symbol id="v" overflow="visible"><path d="M4.672-3.703c0-.547-.266-.703-.438-.703-.25 0-.5.265-.5.484 0 .125.047.188.157.297.218.203.343.453.343.813 0 .421-.609 2.703-1.765 2.703-.516 0-.75-.344-.75-.875 0-.547.281-1.282.578-2.11.078-.172.125-.312.125-.5 0-.437-.313-.812-.813-.812-.937 0-1.312 1.453-1.312 1.531 0 .11.094.11.11.11.109 0 .109-.032.156-.188.296-1 .718-1.235 1.015-1.235.078 0 .25 0 .25.313 0 .25-.11.531-.172.703-.437 1.156-.562 1.61-.562 2.047 0 1.078.875 1.234 1.328 1.234 1.672 0 2.25-3.296 2.25-3.812zm0 0"/></symbol><symbol id="n" overflow="visible"><path d="M1.938 1.094c-.454 0-.516 0-.516-.297V-.328c.031.031.36.39.937.39.922 0 1.704-.687 1.704-1.562 0-.86-.704-1.578-1.594-1.578-.39 0-.797.156-1.078.437v-.437L.344-3v.25c.484 0 .515.047.515.328V.797c0 .297-.062.297-.515.297v.265c.015 0 .5-.03.797-.03.25 0 .734.015.796.03zm-.516-3.422c.203-.344.61-.516.969-.516.593 0 1.046.61 1.046 1.344 0 .797-.53 1.375-1.109 1.375-.625 0-.89-.531-.906-.578zm0 0"/></symbol><symbol id="o" overflow="visible"><path d="M3.688-1.484c0-.875-.75-1.625-1.704-1.625-.968 0-1.718.75-1.718 1.625 0 .859.765 1.546 1.718 1.546.938 0 1.704-.687 1.704-1.546zM1.984-.156c-.265 0-.64-.078-.875-.422-.187-.281-.203-.64-.203-.969 0-.297 0-.719.25-1.016.172-.203.469-.343.828-.343.407 0 .704.187.86.406.187.266.203.625.203.953 0 .328-.016.703-.219.984-.187.266-.5.407-.844.407zm0 0"/></symbol><symbol id="p" overflow="visible"><path d="M1.406-2.75h1.078V-3H1.406v-1.281h-.25c0 .625-.281 1.312-.953 1.328v.203h.64v1.875c0 .781.595.938.985.938.469 0 .781-.391.781-.938v-.39h-.234v.374c0 .485-.219.735-.5.735-.469 0-.469-.578-.469-.703zm0 0"/></symbol><symbol id="q" overflow="visible"><path d="M6.844-3.266c.156 0 .343 0 .343-.187 0-.203-.187-.203-.328-.203H.891c-.141 0-.329 0-.329.203 0 .187.188.187.329.187zm.015 1.938c.141 0 .329 0 .329-.203 0-.188-.188-.188-.344-.188H.89c-.141 0-.329 0-.329.188 0 .203.188.203.329.203zm0 0"/></symbol><symbol id="w" overflow="visible"><path d="M4.578-3.188c0-.796-.047-1.593-.39-2.328C3.733-6.484 2.905-6.64 2.5-6.64c-.61 0-1.328.266-1.75 1.188-.313.687-.36 1.469-.36 2.266 0 .75.032 1.64.454 2.406a1.83 1.83 0 0 0 1.64 1c.532 0 1.297-.203 1.735-1.157.312-.687.36-1.468.36-2.25zM2.484 0c-.39 0-.984-.25-1.156-1.203-.11-.594-.11-1.516-.11-2.11 0-.64 0-1.296.079-1.828.187-1.187.937-1.28 1.187-1.28.329 0 .985.187 1.172 1.171.11.563.11 1.313.11 1.938 0 .75 0 1.421-.11 2.062C3.5-.297 2.937 0 2.484 0zm0 0"/></symbol><symbol id="b" overflow="visible"><path d="M7.063-2.328c.015-.047.046-.11.046-.14 0 0 0-.11-.125-.11-.093 0-.109.062-.125.125-.656 1.469-1.015 2.14-2.718 2.14H2.469c-.11-.015-.14-.03-.14-.109 0-.031 0-.047.046-.219l.688-2.734h.984c.844 0 .844.219.844.469 0 .062 0 .187-.063.484-.016.047-.031.078-.031.11 0 .046.031.109.125.109.078 0 .11-.047.156-.203l.563-2.328c0-.063-.047-.11-.125-.11-.079 0-.11.063-.125.172-.22.766-.391 1-1.313 1h-.937l.593-2.406c.094-.36.11-.39.547-.39h1.407c1.203 0 1.515.28 1.515 1.109 0 .234 0 .25-.047.53 0 .048-.015.126-.015.173 0 .047.03.125.125.125.109 0 .125-.063.14-.25l.203-1.735c.032-.265-.015-.265-.265-.265H2.297c-.188 0-.297 0-.297.203 0 .11.094.11.281.11.375 0 .656 0 .656.171 0 .047 0 .063-.062.25L1.562-.78c-.093.39-.109.469-.906.469-.172 0-.281 0-.281.187C.375 0 .469 0 .656 0h5.172c.234 0 .25-.016.313-.172zm0 0"/></symbol><symbol id="g" overflow="visible"><path d="M.875-.594c-.031.156-.094.39-.094.438 0 .172.14.265.297.265a.414.414 0 0 0 .375-.28c0-.016.125-.485.188-.735l.218-.89c.047-.235.11-.454.172-.673.031-.172.11-.469.125-.5.14-.312.672-1.219 1.625-1.219.453 0 .531.375.531.704 0 .25-.062.53-.14.828L3.89-1.5l-.204.75c-.03.203-.124.547-.124.594 0 .172.14.265.28.265.313 0 .376-.25.454-.562.14-.563.516-2.016.594-2.406.03-.125.562-1.329 1.656-1.329.422 0 .531.344.531.704 0 .562-.422 1.703-.625 2.234-.078.234-.125.344-.125.547 0 .469.344.812.813.812.937 0 1.312-1.453 1.312-1.53 0-.11-.094-.11-.125-.11-.094 0-.094.031-.14.187-.157.532-.47 1.235-1.016 1.235-.172 0-.25-.094-.25-.329 0-.25.094-.484.187-.703.188-.53.61-1.625.61-2.203 0-.64-.407-1.062-1.157-1.062-.734 0-1.25.437-1.625.968 0-.124-.03-.468-.312-.703-.25-.218-.563-.265-.813-.265-.906 0-1.39.64-1.562.875-.047-.578-.469-.875-.922-.875-.453 0-.64.39-.734.562-.172.36-.297.938-.297.969 0 .11.094.11.11.11.109 0 .109-.016.171-.235.172-.703.375-1.188.735-1.188.156 0 .296.079.296.454 0 .218-.03.328-.156.843zm0 0"/></symbol><symbol id="h" overflow="visible"><path d="M3.719-3.766c-.188-.375-.469-.64-.922-.64-1.156 0-2.39 1.468-2.39 2.922C.406-.547.952.109 1.718.109c.203 0 .703-.046 1.297-.75a.91.91 0 0 0 .906.75c.36 0 .578-.234.75-.546a6.49 6.49 0 0 0 .297-.985c0-.11-.094-.11-.125-.11-.094 0-.11.048-.14.188-.173.64-.345 1.235-.75 1.235-.282 0-.298-.266-.298-.454 0-.218.016-.312.125-.75.11-.406.125-.515.219-.89l.36-1.39c.062-.282.062-.298.062-.345 0-.171-.11-.265-.281-.265-.25 0-.391.219-.422.437zm-.64 2.579c-.063.187-.063.203-.204.375-.438.546-.844.703-1.125.703-.5 0-.64-.547-.64-.938 0-.5.312-1.719.546-2.187.313-.579.75-.954 1.157-.954.64 0 .78.813.78.875a.562.562 0 0 1-.03.172zm0 0"/></symbol><symbol id="i" overflow="visible"><path d="M3.328-3.016c.063-.25.297-1.171.985-1.171.046 0 .296 0 .5.125a.578.578 0 0 0-.47.546c0 .157.11.344.376.344a.546.546 0 0 0 .531-.578c0-.516-.578-.656-.922-.656-.578 0-.922.531-1.047.75-.25-.656-.781-.75-1.078-.75-1.031 0-1.61 1.281-1.61 1.531 0 .11.11.11.126.11.078 0 .11-.032.125-.11.344-1.063 1-1.313 1.344-1.313.187 0 .53.094.53.672 0 .313-.171.97-.53 2.375-.157.61-.516 1.032-.954 1.032-.062 0-.28 0-.5-.125.25-.063.47-.266.47-.547 0-.266-.22-.344-.36-.344-.313 0-.547.25-.547.578 0 .453.484.656.922.656.672 0 1.031-.703 1.047-.75.125.36.484.75 1.078.75 1.031 0 1.594-1.28 1.594-1.53 0-.11-.079-.11-.11-.11-.094 0-.11.047-.14.11-.329 1.077-1 1.312-1.313 1.312-.39 0-.547-.313-.547-.657 0-.218.047-.437.156-.875zm0 0"/></symbol><symbol id="j" overflow="visible"><path d="M1.906-.531a.534.534 0 0 0-.515-.531.537.537 0 0 0-.532.53.524.524 0 1 0 1.047 0zm0 0"/></symbol><symbol id="k" overflow="visible"><path d="M4.672-3.703c0-.547-.266-.703-.438-.703-.25 0-.5.265-.5.484 0 .125.047.188.157.297.218.203.343.453.343.813 0 .421-.609 2.703-1.765 2.703-.516 0-.75-.344-.75-.875 0-.547.281-1.282.578-2.11.078-.172.125-.312.125-.5 0-.437-.313-.812-.813-.812-.937 0-1.312 1.453-1.312 1.531 0 .11.094.11.11.11.109 0 .109-.032.156-.188.296-1 .718-1.235 1.015-1.235.078 0 .25 0 .25.313 0 .25-.11.531-.172.703-.437 1.156-.562 1.61-.562 2.047 0 1.078.875 1.234 1.328 1.234 1.672 0 2.25-3.296 2.25-3.812zm0 0"/></symbol><symbol id="c" overflow="visible"><path d="M2.25-1.89c.86-.657 1.094-.844 1.563-.86V-3c-.141.016-.329.031-.47.031-.28 0-.562-.015-.827-.031v.25c.078.016.125.063.125.125 0 .11-.141.234-.22.297l-1.03.797v-3.313l-1.047.078v.25c.469 0 .515.063.515.391v3.578C.86-.25.797-.25.344-.25V0c.25-.016.515-.031.765-.031.266 0 .516.015.782.031v-.25c-.454 0-.532 0-.532-.297v-.672l.516-.39.75.953c.078.078.156.187.156.281 0 .11-.125.125-.187.125V0c.094 0 .578-.031.781-.031.203 0 .406.015.61.031v-.25c-.25 0-.407-.016-.61-.266zm0 0"/></symbol><symbol id="d" overflow="visible"><path d="M1.469-4.297a.413.413 0 0 0-.407-.406.4.4 0 0 0-.39.406.4.4 0 0 0 .39.406.394.394 0 0 0 .407-.406zM.406-3v.25c.438 0 .5.047.5.39v1.813c0 .297-.062.297-.515.297V0c.015 0 .5-.031.78-.031.25 0 .5.015.735.031v-.25c-.406 0-.468 0-.468-.297v-2.531zm0 0"/></symbol><symbol id="e" overflow="visible"><path d="M3.594-2.11c0-.609-.297-.968-1.047-.968-.578 0-.938.312-1.14.687v-.687L.374-3v.25c.469 0 .531.047.531.39v1.813c0 .297-.078.297-.531.297V0c.016 0 .5-.031.797-.031.25 0 .734.031.797.031v-.25c-.453 0-.516 0-.516-.297v-1.265c0-.72.578-1.063 1.031-1.063.485 0 .547.375.547.734v1.594c0 .297-.062.297-.515.297V0c.015 0 .5-.031.796-.031.25 0 .735.031.797.031v-.25c-.453 0-.515 0-.515-.297zm0 0"/></symbol><symbol id="f" overflow="visible"><path d="M6.844-3.266c.156 0 .343 0 .343-.187 0-.203-.187-.203-.328-.203H.891c-.141 0-.329 0-.329.203 0 .187.188.187.329.187zm.015 1.938c.141 0 .329 0 .329-.203 0-.188-.188-.188-.344-.188H.89c-.141 0-.329 0-.329.188 0 .203.188.203.329.203zm0 0"/></symbol><symbol id="l" overflow="visible"><path d="M4.578-3.188c0-.796-.047-1.593-.39-2.328C3.733-6.484 2.905-6.64 2.5-6.64c-.61 0-1.328.266-1.75 1.188-.313.687-.36 1.469-.36 2.266 0 .75.032 1.64.454 2.406a1.83 1.83 0 0 0 1.64 1c.532 0 1.297-.203 1.735-1.157.312-.687.36-1.468.36-2.25zM2.484 0c-.39 0-.984-.25-1.156-1.203-.11-.594-.11-1.516-.11-2.11 0-.64 0-1.296.079-1.828.187-1.187.937-1.28 1.187-1.28.329 0 .985.187 1.172 1.171.11.563.11 1.313.11 1.938 0 .75 0 1.421-.11 2.062C3.5-.297 2.937 0 2.484 0zm0 0"/></symbol></defs><g transform="translate(0 -308.268)"><g ns0:preamble="/home/waldgeist/data/sphinx/test.tex" ns0:text="$E _{\\mathrm{pot.}} = \\mathrm{max.}$"><use y="134.765" x="223.432" xlink:href="#textext-deb4a57a-0" width="1052.362" height="744.094" transform="matrix(3.97502 0 0 3.97502 -770.492 356.283)"/><use y="136.259" x="230.786" xlink:href="#textext-deb4a57a-2" width="1052.362" height="744.094" transform="matrix(3.97502 0 0 3.97502 -770.492 356.283)"/><g transform="matrix(3.97502 0 0 3.97502 -770.492 356.283)"><use y="136.259" x="235.403" xlink:href="#textext-deb4a57a-3" width="1052.362" height="744.094"/><use y="136.259" x="239.374" xlink:href="#textext-deb4a57a-4" width="1052.362" height="744.094"/></g><use y="136.259" x="242.486" xlink:href="#textext-deb4a57a-5" width="1052.362" height="744.094" transform="matrix(3.97502 0 0 3.97502 -770.492 356.283)"/><use y="134.765" x="248.117" xlink:href="#textext-deb4a57a-6" width="1052.362" height="744.094" transform="matrix(3.97502 0 0 3.97502 -770.492 356.283)"/><g transform="matrix(3.97502 0 0 3.97502 -770.492 356.283)"><use y="134.765" x="258.635" xlink:href="#textext-deb4a57a-7" width="1052.362" height="744.094"/><use y="134.765" x="266.937" xlink:href="#textext-deb4a57a-8" width="1052.362" height="744.094"/><use y="134.765" x="271.919" xlink:href="#textext-deb4a57a-9" width="1052.362" height="744.094"/></g><use y="134.765" x="277.175" xlink:href="#textext-deb4a57a-1" width="1052.362" height="744.094" transform="matrix(3.97502 0 0 3.97502 -770.492 356.283)"/></g><g ns0:text="\\begin{align*}\nE _{\\rm{pot}} &amp;= max. \\\\\nv &amp;= 0 \\\\\na &amp;= max.\n\\end{align*}\n" ns0:preamble="/home/waldgeist/data/sphinx/test.tex"><use xlink:href="#textext-2289d23f-0" x="367.633" y="134.765" width="1052.362" height="744.094" transform="matrix(3.39125 0 0 3.39125 -521.8 349.011)"/><use xlink:href="#textext-2289d23f-6" x="374.987" y="136.259" width="1052.362" height="744.094" transform="matrix(3.39125 0 0 3.39125 -521.8 349.011)"/><g transform="matrix(3.39125 0 0 3.39125 -521.8 349.011)"><use xlink:href="#textext-2289d23f-7" x="379.604" y="136.259" width="1052.362" height="744.094"/><use xlink:href="#textext-2289d23f-8" x="383.575" y="136.259" width="1052.362" height="744.094"/></g><use xlink:href="#textext-2289d23f-9" x="389.952" y="134.765" width="1052.362" height="744.094" transform="matrix(3.39125 0 0 3.39125 -521.8 349.011)"/><g transform="matrix(3.39125 0 0 3.39125 -521.8 349.011)"><use xlink:href="#textext-2289d23f-1" x="400.468" y="134.765" width="1052.362" height="744.094"/><use xlink:href="#textext-2289d23f-2" x="409.215" y="134.765" width="1052.362" height="744.094"/><use xlink:href="#textext-2289d23f-3" x="414.481" y="134.765" width="1052.362" height="744.094"/><use xlink:href="#textext-2289d23f-4" x="420.175" y="134.765" width="1052.362" height="744.094"/></g><use xlink:href="#textext-2289d23f-5" x="381.998" y="149.709" width="1052.362" height="744.094" transform="matrix(3.39125 0 0 3.39125 -521.8 349.011)"/><use xlink:href="#textext-2289d23f-9" x="389.952" y="149.709" width="1052.362" height="744.094" transform="matrix(3.39125 0 0 3.39125 -521.8 349.011)"/><use xlink:href="#textext-2289d23f-10" x="400.471" y="149.709" width="1052.362" height="744.094" transform="matrix(3.39125 0 0 3.39125 -521.8 349.011)"/><use xlink:href="#textext-2289d23f-2" x="381.918" y="164.653" width="1052.362" height="744.094" transform="matrix(3.39125 0 0 3.39125 -521.8 349.011)"/><use xlink:href="#textext-2289d23f-9" x="389.952" y="164.653" width="1052.362" height="744.094" transform="matrix(3.39125 0 0 3.39125 -521.8 349.011)"/><g transform="matrix(3.39125 0 0 3.39125 -521.8 349.011)"><use xlink:href="#textext-2289d23f-1" x="400.468" y="164.653" width="1052.362" height="744.094"/><use xlink:href="#textext-2289d23f-2" x="409.215" y="164.653" width="1052.362" height="744.094"/><use xlink:href="#textext-2289d23f-3" x="414.481" y="164.653" width="1052.362" height="744.094"/><use xlink:href="#textext-2289d23f-4" x="420.175" y="164.653" width="1052.362" height="744.094"/></g></g><rect width="832.692" height="718.173" x="109.835" y="-1039.402" ry="8.832" transform="scale(1 -1)" fill="#fff" stroke="#fff" stroke-width="6" stroke-linecap="round" stroke-linejoin="round"/><path d="M863.738 585.374c-71.797 124.356-230.81 166.964-355.167 95.167a260 260 0 0 1-95.166-95.167" transform="matrix(1.30163 0 0 .831 -305.004 224.308)" fill="none" stroke="#999" stroke-width="5.769" stroke-linecap="round" stroke-linejoin="round" stroke-dasharray="5.76908515,17.30725547"/><rect width="426.57" height="17.063" x="312.896" y="355.237" ry="6.894" fill="#333" stroke="#000" stroke-width="2" stroke-linecap="square" stroke-linejoin="round"/><path d="M526.181 380.77c6.246 0 11.31 5.063 11.31 11.31 0 6.246-5.064 11.309-11.31 11.309s-11.31-5.063-11.31-11.31" fill="none" stroke="#333" stroke-width="4.37361786" stroke-linecap="round" stroke-linejoin="round"/><path d="M526.181 380.77v-15.74" fill="none" stroke="#333" stroke-width="4.373" stroke-linecap="round"/><g opacity=".5"><g stroke="#333" stroke-width="4.689" fill="none" stroke-linecap="round"><path d="M526.181 755.853c6.246 0 11.31-5.064 11.31-11.31s-5.064-11.31-11.31-11.31-11.31 5.064-11.31 11.31" stroke-linejoin="round" stroke-width="4.37361786"/><path d="M526.181 755.853v15.74" stroke-width="4.37361786"/></g><path d="M574.478 815.932c0 26.674-21.623 48.298-48.297 48.298-26.674 0-48.297-21.624-48.297-48.298 0-26.673 21.623-48.297 48.297-48.297 26.674 0 48.297 21.624 48.297 48.297z" fill="#b3b3b3" stroke="#4d4d4d" stroke-width="1.99982616" stroke-linecap="square"/><path d="M301.429 350.934c0 6.311-5.117 11.428-11.429 11.428s-11.429-5.117-11.429-11.428c0-6.312 5.117-11.429 11.429-11.429s11.429 5.117 11.429 11.429z" transform="matrix(.36748 0 0 .36748 400.188 668.598)" fill="#fff" filter="url(#a)"/></g><path d="M526.181 401.596v333.27" fill="#999" stroke="#999" stroke-width="6.000133620000001" stroke-linecap="round" opacity=".5"/><g stroke="#333" stroke-width="4.689" fill="none" stroke-linecap="round"><path d="M775.41 652.618c4.417-4.416 4.417-11.577 0-15.994-4.416-4.416-11.577-4.416-15.993 0-4.417 4.417-4.417 11.578 0 15.994" stroke-linejoin="round" stroke-width="4.37361786"/><path d="M775.41 652.618l11.13 11.13" stroke-width="4.37361786"/></g><path d="M852.045 660.95c18.86 18.861 18.86 49.441 0 68.303-18.862 18.86-49.442 18.86-68.303 0-18.861-18.862-18.861-49.442 0-68.303 18.861-18.861 49.441-18.861 68.303 0z" fill="#b3b3b3" stroke="#4d4d4d" stroke-width="1.99982616" stroke-linecap="square"/><path transform="rotate(-45 1133.16 -413.976) scale(.36748)" d="M301.429 350.934c0 6.311-5.117 11.428-11.429 11.428s-11.429-5.117-11.429-11.428c0-6.312 5.117-11.429 11.429-11.429s11.429 5.117 11.429 11.429z" fill="#fff" filter="url(#a)"/><path d="M524.913 402.121L760.571 637.78" fill="#999" stroke="#999" stroke-width="6.000133620000001" stroke-linecap="round"/><g opacity=".5"><g stroke="#333" stroke-width="4.689" fill="none" stroke-linecap="round"><path d="M276.952 652.618c4.416 4.417 11.577 4.417 15.994 0 4.416-4.416 4.416-11.577 0-15.994-4.417-4.416-11.578-4.416-15.994 0" stroke-linejoin="round" stroke-width="4.37361786"/><path d="M276.952 652.618l-11.13 11.13" stroke-width="4.37361786"/></g><path d="M268.62 729.253c-18.861 18.86-49.441 18.86-68.302 0-18.862-18.862-18.862-49.442 0-68.303 18.86-18.861 49.44-18.861 68.302 0 18.861 18.861 18.861 49.441 0 68.303z" fill="#b3b3b3" stroke="#4d4d4d" stroke-width="1.99982616" stroke-linecap="square"/><path transform="rotate(45 -480.98 552.163) scale(.36748)" d="M301.429 350.934c0 6.311-5.117 11.428-11.429 11.428s-11.429-5.117-11.429-11.428c0-6.312 5.117-11.429 11.429-11.429s11.429 5.117 11.429 11.429z" fill="#fff" filter="url(#a)"/></g><path d="M527.449 402.121L291.79 637.78" fill="#999" stroke="#999" stroke-width="6.000133620000001" stroke-linecap="round" opacity=".5"/><use y="134.765" x="368.062" xlink:href="#b" width="1052.362" height="744.094" transform="matrix(3.39125 0 0 3.39125 -813.513 469.426)"/><g transform="matrix(3.39125 0 0 3.39125 -813.513 469.426)"><use y="136.259" x="375.416" xlink:href="#c" width="1052.362" height="744.094"/><use y="136.259" x="379.602" xlink:href="#d" width="1052.362" height="744.094"/><use y="136.259" x="381.857" xlink:href="#e" width="1052.362" height="744.094"/></g><use y="134.765" x="389.523" xlink:href="#f" width="1052.362" height="744.094" transform="matrix(3.39125 0 0 3.39125 -813.513 469.426)"/><g transform="matrix(3.39125 0 0 3.39125 -813.513 469.426)"><use y="134.765" x="400.039" xlink:href="#g" width="1052.362" height="744.094"/><use y="134.765" x="408.786" xlink:href="#h" width="1052.362" height="744.094"/><use y="134.765" x="414.052" xlink:href="#i" width="1052.362" height="744.094"/><use y="134.765" x="419.746" xlink:href="#j" width="1052.362" height="744.094"/></g><use y="149.709" x="381.569" xlink:href="#k" width="1052.362" height="744.094" transform="matrix(3.39125 0 0 3.39125 -813.513 469.426)"/><use y="149.709" x="389.523" xlink:href="#f" width="1052.362" height="744.094" transform="matrix(3.39125 0 0 3.39125 -813.513 469.426)"/><g transform="matrix(3.39125 0 0 3.39125 -813.513 469.426)"><use y="149.709" x="400.039" xlink:href="#g" width="1052.362" height="744.094"/><use y="149.709" x="408.786" xlink:href="#h" width="1052.362" height="744.094"/><use y="149.709" x="414.052" xlink:href="#i" width="1052.362" height="744.094"/><use y="149.709" x="419.746" xlink:href="#j" width="1052.362" height="744.094"/></g><use y="164.653" x="381.489" xlink:href="#h" width="1052.362" height="744.094" transform="matrix(3.39125 0 0 3.39125 -813.513 469.426)"/><use y="164.653" x="389.523" xlink:href="#f" width="1052.362" height="744.094" transform="matrix(3.39125 0 0 3.39125 -813.513 469.426)"/><use y="164.653" x="400.041" xlink:href="#l" width="1052.362" height="744.094" transform="matrix(3.39125 0 0 3.39125 -813.513 469.426)"/><g><use height="744.094" width="1052.362" y="134.765" x="367.633" xlink:href="#m" transform="matrix(3.39125 0 0 3.39125 -1105.225 349.011)"/><use height="744.094" width="1052.362" y="136.259" x="374.987" xlink:href="#n" transform="matrix(3.39125 0 0 3.39125 -1105.225 349.011)"/><g transform="matrix(3.39125 0 0 3.39125 -1105.225 349.011)"><use height="744.094" width="1052.362" y="136.259" x="379.604" xlink:href="#o"/><use height="744.094" width="1052.362" y="136.259" x="383.575" xlink:href="#p"/></g><use height="744.094" width="1052.362" y="134.765" x="389.952" xlink:href="#q" transform="matrix(3.39125 0 0 3.39125 -1105.225 349.011)"/><g transform="matrix(3.39125 0 0 3.39125 -1105.225 349.011)"><use height="744.094" width="1052.362" y="134.765" x="400.468" xlink:href="#r"/><use height="744.094" width="1052.362" y="134.765" x="409.215" xlink:href="#s"/><use height="744.094" width="1052.362" y="134.765" x="414.481" xlink:href="#t"/><use height="744.094" width="1052.362" y="134.765" x="420.175" xlink:href="#u"/></g><use height="744.094" width="1052.362" y="149.709" x="381.918" xlink:href="#s" transform="matrix(3.39125 0 0 3.39125 -1105.225 349.011)"/><use height="744.094" width="1052.362" y="149.709" x="389.952" xlink:href="#q" transform="matrix(3.39125 0 0 3.39125 -1105.225 349.011)"/><g transform="matrix(3.39125 0 0 3.39125 -1105.225 349.011)"><use height="744.094" width="1052.362" y="149.709" x="400.468" xlink:href="#r"/><use height="744.094" width="1052.362" y="149.709" x="409.215" xlink:href="#s"/><use height="744.094" width="1052.362" y="149.709" x="414.481" xlink:href="#t"/><use height="744.094" width="1052.362" y="149.709" x="420.175" xlink:href="#u"/></g><use height="744.094" width="1052.362" y="164.653" x="381.998" xlink:href="#v" transform="matrix(3.39125 0 0 3.39125 -1105.225 349.011)"/><use height="744.094" width="1052.362" y="164.653" x="389.952" xlink:href="#q" transform="matrix(3.39125 0 0 3.39125 -1105.225 349.011)"/><use height="744.094" width="1052.362" y="164.653" x="400.471" xlink:href="#w" transform="matrix(3.39125 0 0 3.39125 -1105.225 349.011)"/></g><g><use xlink:href="#m" x="367.633" y="134.765" width="1052.362" height="744.094" transform="matrix(3.39125 0 0 3.39125 -521.8 349.011)"/><use xlink:href="#n" x="374.987" y="136.259" width="1052.362" height="744.094" transform="matrix(3.39125 0 0 3.39125 -521.8 349.011)"/><g transform="matrix(3.39125 0 0 3.39125 -521.8 349.011)"><use xlink:href="#o" x="379.604" y="136.259" width="1052.362" height="744.094"/><use xlink:href="#p" x="383.575" y="136.259" width="1052.362" height="744.094"/></g><use xlink:href="#q" x="389.952" y="134.765" width="1052.362" height="744.094" transform="matrix(3.39125 0 0 3.39125 -521.8 349.011)"/><g transform="matrix(3.39125 0 0 3.39125 -521.8 349.011)"><use xlink:href="#r" x="400.468" y="134.765" width="1052.362" height="744.094"/><use xlink:href="#s" x="409.215" y="134.765" width="1052.362" height="744.094"/><use xlink:href="#t" x="414.481" y="134.765" width="1052.362" height="744.094"/><use xlink:href="#u" x="420.175" y="134.765" width="1052.362" height="744.094"/></g><use xlink:href="#s" x="381.918" y="149.709" width="1052.362" height="744.094" transform="matrix(3.39125 0 0 3.39125 -521.8 349.011)"/><use xlink:href="#q" x="389.952" y="149.709" width="1052.362" height="744.094" transform="matrix(3.39125 0 0 3.39125 -521.8 349.011)"/><g transform="matrix(3.39125 0 0 3.39125 -521.8 349.011)"><use xlink:href="#r" x="400.468" y="149.709" width="1052.362" height="744.094"/><use xlink:href="#s" x="409.215" y="149.709" width="1052.362" height="744.094"/><use xlink:href="#t" x="414.481" y="149.709" width="1052.362" height="744.094"/><use xlink:href="#u" x="420.175" y="149.709" width="1052.362" height="744.094"/></g><use xlink:href="#v" x="381.998" y="164.653" width="1052.362" height="744.094" transform="matrix(3.39125 0 0 3.39125 -521.8 349.011)"/><use xlink:href="#q" x="389.952" y="164.653" width="1052.362" height="744.094" transform="matrix(3.39125 0 0 3.39125 -521.8 349.011)"/><use xlink:href="#w" x="400.471" y="164.653" width="1052.362" height="744.094" transform="matrix(3.39125 0 0 3.39125 -521.8 349.011)"/></g><g><use height="744.094" width="1052.362" xlink:href="#x" x="392.029" y="134.765" transform="matrix(3.39125 0 0 3.39125 -788.513 15.998)"/></g><path d="M669.133 216.192c-13.957 24.174-42.785 35.472-69.451 27.217" transform="scale(-1 1) rotate(45 -284.65 -1079.169)" fill="none" stroke="#000" stroke-width="3" marker-end="url(#y)"/></g></svg>