<svg xmlns:ns0="http://www.iki.fi/pav/software/textext/" xmlns="http://www.w3.org/2000/svg" xmlns:xlink="http://www.w3.org/1999/xlink" width="210mm" height="297mm"><title>Physikalisches Pendel</title><defs><marker id="e" orient="auto" overflow="visible"><path transform="scale(-.6)" d="M8.719 4.034L-2.207.016 8.719-4.002c-1.746 2.372-1.736 5.618 0 8.036z" fill-rule="evenodd" stroke-width=".625" stroke-linejoin="round"/></marker><marker id="g" orient="auto" overflow="visible"><path transform="scale(.6)" d="M8.719 4.034L-2.207.016 8.719-4.002c-1.746 2.372-1.736 5.618 0 8.036z" fill-rule="evenodd" stroke-width=".625" stroke-linejoin="round"/></marker></defs><path fill="#fff" stroke="#fff" stroke-width="4" stroke-linecap="round" d="M39.567 868.911v-685.46h681.175v685.46z"/><g ns0:text="$\\vec{F}_{\\rm{G}}$" ns0:preamble="/home/waldgeist/data/sphinx/test.tex" fill="#d40000" stroke="#d40000" stroke-width="1.063"><path d="M239.607 763.01c-.85.85-2.835 2.552-2.835 3.591 0 .567.567 1.229 1.134 1.229s.85-.473 1.229-.85c.661-.851 2.078-2.552 4.724-3.875.378-.283 1.04-.567 1.04-1.228 0-.662-.473-.945-.85-1.229-1.324-.945-1.985-1.984-2.458-3.401-.189-.567-.378-1.418-1.228-1.418s-1.228.85-1.228 1.323c0 .284.472 2.173 1.417 3.496h-20.315c-.945 0-2.08 0-2.08 1.229 0 1.134 1.135 1.134 2.08 1.134zm0 0M216.55 794.585h5.859c4.535 0 5.007.944 5.007 2.645 0 .473 0 1.134-.377 3.024-.19.283-.19.472-.19.661 0 .473.378.662.662.662.661 0 .661-.19.945-1.229l3.307-13.134c.189-.661.189-.756.189-.945a.708.708 0 0 0-.756-.661c-.567 0-.661.284-.85 1.323-1.323 4.63-2.646 5.764-7.843 5.764h-5.48l3.874-15.308c.567-2.173.661-2.362 3.307-2.362h7.937c7.37 0 8.788 1.984 8.788 6.614 0 1.418 0 1.607-.19 3.308-.094.756-.094.85-.094 1.039 0 .283.189.756.756.756.661 0 .661-.378.756-1.512l1.228-10.488c.19-1.607-.094-1.607-1.606-1.607h-29.575c-1.134 0-1.796 0-1.796 1.229 0 .661.567.661 1.701.661 2.268 0 3.969 0 3.969 1.04 0 .283 0 .378-.378 1.511l-7.937 31.843c-.567 2.363-.662 2.835-5.48 2.835-1.04 0-1.702 0-1.702 1.134 0 .756.756.756.945.756 1.701 0 6.237-.189 7.937-.189 1.985 0 6.993.189 8.977.189.567 0 1.228 0 1.228-1.134 0-.472-.283-.661-.283-.661-.19-.095-.378-.095-1.701-.095s-1.606 0-3.118-.094c-1.795-.19-1.984-.473-1.984-1.229 0-.094 0-.472.283-1.323zm0 0M268.43 814.958c0-1.89.472-1.89 3.307-1.89v-1.512c-.378 0-3.402.19-5.48.19-2.268 0-5.387 0-7.654-.19v1.512h1.606c4.252 0 4.252.567 4.252 1.89v2.74c0 .945 0 2.552-2.457 3.78-1.984 1.04-4.346 1.04-4.913 1.04-4.82 0-12.567-2.74-12.567-13.796 0-11.15 8.031-13.607 12.189-13.607 4.063 0 9.165 2.74 10.205 10.016.094.473.472.473.756.473.756 0 .756-.284.756-1.134v-9.827c0-.756 0-1.134-.567-1.134-.19 0-.378 0-.756.567l-2.174 3.212c-2.078-2.173-5.102-3.78-8.787-3.78-8.788 0-16.158 6.804-16.158 15.214s7.181 15.307 16.252 15.307c2.363 0 6.993-.472 8.977-3.402.756 1.134 2.268 2.552 2.74 2.552.473 0 .473-.473.473-1.134zm0 0" stroke="none"/></g><g transform="translate(-660.15 27.89) scale(4.20706)" ns0:preamble="/home/waldgeist/data/sphinx/inkscape-preamble.tex" ns0:text="$s^{*}$" fill="green" stroke="#d40000" stroke-width="1.528"><defs><symbol id="a" overflow="visible"><path d="M3.89-3.734c-.265.015-.468.234-.468.453 0 .14.094.297.312.297.22 0 .454-.172.454-.563 0-.453-.422-.86-1.188-.86-1.313 0-1.688 1.016-1.688 1.454 0 .781.735.922 1.032.984.515.11 1.031.219 1.031.766 0 .25-.219 1.094-1.422 1.094-.14 0-.906 0-1.14-.532.39.047.64-.25.64-.53 0-.22-.172-.345-.375-.345-.266 0-.562.204-.562.657 0 .562.578.968 1.421.968 1.625 0 2.016-1.203 2.016-1.656a.97.97 0 0 0-.312-.719c-.266-.28-.563-.343-1-.421-.36-.079-.75-.157-.75-.61 0-.281.234-.89 1.109-.89.25 0 .75.078.89.453zm0 0" stroke="none"/></symbol><symbol id="b" overflow="visible"><path d="M2.25-1.734c.578-.25.828-.344 1-.438.14-.047.203-.078.203-.219a.223.223 0 0 0-.219-.218c-.046 0-.062 0-.14.062l-.953.64.109-1.03c.016-.126 0-.297-.219-.297-.078 0-.219.046-.219.203 0 .062.032.265.047.344.016.109.063.624.079.78l-.954-.64c-.062-.031-.078-.062-.14-.062-.14 0-.219.109-.219.218 0 .141.078.188.14.204l1.047.453c-.562.25-.828.343-1 .421-.125.063-.187.094-.187.22 0 .124.078.218.219.218.047 0 .062 0 .14-.063l.954-.625-.125 1.11c0 .156.14.219.218.219.094 0 .219-.063.219-.22 0-.062-.031-.265-.031-.327-.016-.125-.063-.625-.078-.781l.828.546c.187.141.203.141.265.141a.214.214 0 0 0 .22-.219c0-.14-.095-.172-.157-.203zm0 0" stroke="none"/></symbol></defs><use y="134.765" x="223.432" xlink:href="#a" width="744.094" height="1052.362"/><use y="131.149" x="228.102" xlink:href="#b" width="744.094" height="1052.362"/></g><g ns0:text="$s$" ns0:preamble="/home/waldgeist/data/sphinx/inkscape-preamble.tex" transform="matrix(3.83282 0 0 3.83282 -559.77 3.62)" fill="green" stroke="#d40000" stroke-width="1.678"><defs><symbol overflow="visible" id="c"><path d="M3.89-3.734c-.265.015-.468.234-.468.453 0 .14.094.297.312.297.22 0 .454-.172.454-.563 0-.453-.422-.86-1.188-.86-1.313 0-1.688 1.016-1.688 1.454 0 .781.735.922 1.032.984.515.11 1.031.219 1.031.766 0 .25-.219 1.094-1.422 1.094-.14 0-.906 0-1.14-.532.39.047.64-.25.64-.53 0-.22-.172-.345-.375-.345-.266 0-.562.204-.562.657 0 .562.578.968 1.421.968 1.625 0 2.016-1.203 2.016-1.656a.97.97 0 0 0-.312-.719c-.266-.28-.563-.343-1-.421-.36-.079-.75-.157-.75-.61 0-.281.234-.89 1.109-.89.25 0 .75.078.89.453zm0 0" stroke="none"/></symbol></defs><use xlink:href="#c" x="223.432" y="134.765" width="744.094" height="1052.362"/></g><g transform="rotate(30 164.342 451.747)" color="#000" stroke="#4d4d4d" stroke-width="3" stroke-linecap="round" stroke-linejoin="round"><rect transform="rotate(-90)" ry="11.917" y="211.887" x="-825.78" height="87.462" width="681.565" style="marker:none" fill="#b3b3b3" overflow="visible"/><path d="M264.079 178.215a8.461 8.461 0 1 1-16.923 0 8.461 8.461 0 0 1 16.923 0z" style="marker:none" fill="#fc0" overflow="visible"/></g><g fill="#d40000" stroke="#d40000"><path d="M227.359 525.15V717.636" stroke-width="9.999804849999999"/><path d="M227.36 727.216l2.518-4.364 2.52-4.364H222.32l2.52 4.364z" stroke-width="14.953776900000001"/></g><g ns0:text="S" ns0:preamble="/home/waldgeist/data/sphinx/inkscape-preamble.tex" transform="matrix(3.83282 0 0 3.83282 -655.893 39.718)" fill="green" stroke="#d40000" stroke-width="1.678"><defs><symbol overflow="visible" id="d"><path d="M3.484-3.875l-1.28-.297c-.626-.156-1-.687-1-1.266 0-.703.53-1.312 1.312-1.312 1.656 0 1.875 1.64 1.937 2.078.016.063.016.125.125.125.125 0 .125-.047.125-.234v-2c0-.172 0-.25-.11-.25-.062 0-.077.015-.14.14l-.36.563c-.296-.297-.702-.703-1.593-.703-1.11 0-1.938.875-1.938 1.937 0 .828.532 1.563 1.297 1.828.11.032.625.157 1.329.329.265.062.562.14.843.5.203.265.313.593.313.921 0 .704-.5 1.422-1.344 1.422-.281 0-1.047-.047-1.578-.531-.578-.547-.61-1.172-.61-1.531-.015-.11-.093-.11-.125-.11-.125 0-.125.079-.125.25v2c0 .172 0 .235.11.235.062 0 .078-.016.14-.125 0-.016.032-.047.36-.578.312.343.953.703 1.844.703 1.156 0 1.953-.969 1.953-2.078 0-.985-.657-1.813-1.485-2.016zm0 0" stroke="none"/></symbol></defs><use height="1052.362" width="744.094" xlink:href="#d" x="223.432" y="134.765"/></g><path d="M532.356 526.181a305.592 305.592 0 0 1-305.592 0" style="marker:none" color="#000" fill="none" stroke="green" stroke-width="2.99975338" stroke-linecap="round" stroke-dasharray="3.88733817,11.66201471" overflow="visible"/><path d="M229.259 526.181h148.344" fill="none" stroke="green" stroke-width="3" stroke-linecap="round" marker-end="url(#e)"/><g ns0:text="$l$" transform="translate(-1072.325 -419.063) scale(6.04735)" fill="green" stroke="#d40000" stroke-width="1.063"><defs><symbol overflow="visible" id="f"><path d="M2.578-6.813s0-.109-.14-.109c-.22 0-.954.078-1.22.11-.077 0-.187.015-.187.203 0 .109.11.109.25.109.485 0 .5.094.5.172l-.031.203L.484-1.141a.973.973 0 0 0-.046.329.89.89 0 0 0 .906.921c.328 0 .578-.203.75-.562.172-.375.297-.953.297-.969 0-.11-.094-.11-.125-.11-.094 0-.11.048-.125.188-.172.64-.36 1.235-.766 1.235-.297 0-.297-.313-.297-.454 0-.25.016-.296.063-.484zm0 0" stroke="none"/></symbol></defs><use height="1052.362" width="744.094" xlink:href="#f" x="223.432" y="134.765"/></g><path style="marker:none" d="M380.175 399.623a139.123 139.123 0 0 1-70.92-19.421l70.9-119.702z" opacity=".6" color="#000" fill="#fff" overflow="visible"/><path d="M380.155 567.122V260.5" fill="none" stroke="#000" stroke-width="3" stroke-linecap="round" stroke-dasharray="2.99999998,8.9999999"/><g color="#000" fill="none" stroke="#333" stroke-width="2" stroke-linecap="round" stroke-linejoin="round"><path d="M223.225 520.053l7.077 12.257M230.302 520.053l-7.077 12.257" style="marker:none" overflow="visible"/></g><path d="M228.484 523.201L379.03 262.45" fill="none" stroke="green" stroke-width="3" stroke-linecap="round" marker-start="url(#g)" marker-end="url(#e)"/><path transform="scale(-.35134 .35134) rotate(-30 159.268 3344.877)" d="M382.41 864.471a395.98 395.98 0 0 1-190.62-49.697" style="marker:none" color="#000" fill="none" stroke="#333" stroke-width="8.539" stroke-linecap="round" marker-end="url(#e)" overflow="visible"/><g transform="matrix(5.33227 0 0 5.33227 -856.899 -349.93)" ns0:preamble="/home/waldgeist/data/sphinx/inkscape-preamble.tex" ns0:text="$\\varphi$" fill="#d40000" stroke="#d40000" stroke-width="1.206"><defs><symbol id="h" overflow="visible"><path d="M1.688 1.688c-.032.14-.047.156-.047.203 0 .218.187.28.296.28a.413.413 0 0 0 .36-.265c.031-.078.078-.406.36-1.812.077 0 .155.015.327.015 1.657 0 3.188-1.562 3.188-3.14 0-.781-.39-1.375-1.14-1.375-1.438 0-2.048 1.937-2.641 3.875C1.312-.734.75-1.281.75-2c0-.281.234-1.375.828-2.063.094-.093.094-.109.094-.14 0-.031-.031-.094-.125-.094C1.266-4.297.5-2.844.5-1.89c0 .938.656 1.657 1.719 1.907zM3.077-.47c-.094 0-.11 0-.187-.015-.125 0-.125 0-.125-.032 0-.015.171-.937.187-1.078.313-1.281 1.094-2.234 1.985-2.234.687 0 .953.531.953 1.015 0 1.126-1.282 2.344-2.813 2.344zm0 0" stroke="none"/></symbol></defs><use y="134.765" x="223.432" xlink:href="#h" width="744.094" height="1052.362" fill="#000"/></g></svg>