<svg xmlns:ns0="http://www.iki.fi/pav/software/textext/" xmlns="http://www.w3.org/2000/svg" xmlns:xlink="http://www.w3.org/1999/xlink" width="1052.362" height="744.094"><title>Resonanz</title><defs><marker orient="auto" id="a" overflow="visible"><path d="M8.719 4.034L-2.207.016 8.719-4.002c-1.746 2.372-1.736 5.618 0 8.036z" transform="rotate(180) scale(.6)" fill-rule="evenodd" stroke-width=".625" stroke-linejoin="round"/></marker></defs><path style="marker:none" color="#000" fill="#fff" stroke="#fff" stroke-width="6" stroke-linecap="round" overflow="visible" d="M17.959 124.67h1016.444v494.753H17.959z"/><g transform="translate(-342.71 -87.515) scale(4.62289)" fill="green"><use y="134.765" x="231.736" xlink:href="#textext-082fa4b4-3" width="744.094" height="1052.362"/><use y="134.765" x="231.736" xlink:href="#textext-082fa4b4-3" width="744.094" height="1052.362"/><g ns0:preamble="/home/waldgeist/data/sphinx/test.tex" ns0:text="$\\Delta \\vec{r} = \\vec{r}_{\\rm{2}} - \\vec{r}_{\\rm{1}} $"><use y="134.765" x="223.432" xlink:href="#textext-082fa4b4-0" width="744.094" height="1052.362"/><use y="134.765" x="231.417" xlink:href="#textext-082fa4b4-2" width="744.094" height="1052.362"/><use y="134.765" x="231.736" xlink:href="#textext-082fa4b4-3" width="744.094" height="1052.362"/><use y="134.765" x="239.273" xlink:href="#textext-082fa4b4-1" width="744.094" height="1052.362"/><use y="134.765" x="249.472" xlink:href="#textext-082fa4b4-2" width="744.094" height="1052.362"/><use y="134.765" x="249.791" xlink:href="#textext-082fa4b4-3" width="744.094" height="1052.362"/><use y="136.259" x="254.284" xlink:href="#textext-082fa4b4-4" width="744.094" height="1052.362"/><use y="134.765" x="260.967" xlink:href="#textext-082fa4b4-6" width="744.094" height="1052.362"/><use y="134.765" x="270.612" xlink:href="#textext-082fa4b4-2" width="744.094" height="1052.362"/><use y="134.765" x="270.931" xlink:href="#textext-082fa4b4-3" width="744.094" height="1052.362"/><use y="136.259" x="275.425" xlink:href="#textext-082fa4b4-5" width="744.094" height="1052.362"/></g><g ns0:preamble="/home/waldgeist/data/sphinx/test.tex" ns0:text="$\\Delta \\vec{r} = \\vec{r}_{\\rm{2}} - \\vec{r}_{\\rm{1}} $"><use y="134.765" x="223.432" xlink:href="#textext-082fa4b4-0" width="744.094" height="1052.362"/><use y="134.765" x="231.417" xlink:href="#textext-082fa4b4-2" width="744.094" height="1052.362"/><use y="134.765" x="231.736" xlink:href="#textext-082fa4b4-3" width="744.094" height="1052.362"/><use y="134.765" x="239.273" xlink:href="#textext-082fa4b4-1" width="744.094" height="1052.362"/><use y="134.765" x="249.472" xlink:href="#textext-082fa4b4-2" width="744.094" height="1052.362"/><use y="134.765" x="249.791" xlink:href="#textext-082fa4b4-3" width="744.094" height="1052.362"/><use y="136.259" x="254.284" xlink:href="#textext-082fa4b4-4" width="744.094" height="1052.362"/><use y="134.765" x="260.967" xlink:href="#textext-082fa4b4-6" width="744.094" height="1052.362"/><use y="134.765" x="270.612" xlink:href="#textext-082fa4b4-2" width="744.094" height="1052.362"/><use y="134.765" x="270.931" xlink:href="#textext-082fa4b4-3" width="744.094" height="1052.362"/><use y="136.259" x="275.425" xlink:href="#textext-082fa4b4-5" width="744.094" height="1052.362"/></g><g ns0:preamble="/home/waldgeist/data/sphinx/test.tex" ns0:text="$\\Delta \\vec{r} = \\vec{r}_{\\rm{2}} - \\vec{r}_{\\rm{1}} $"><use y="134.765" x="223.432" xlink:href="#textext-082fa4b4-0" width="744.094" height="1052.362"/><use y="134.765" x="231.417" xlink:href="#textext-082fa4b4-2" width="744.094" height="1052.362"/><use y="134.765" x="231.736" xlink:href="#textext-082fa4b4-3" width="744.094" height="1052.362"/><use y="134.765" x="239.273" xlink:href="#textext-082fa4b4-1" width="744.094" height="1052.362"/><use y="134.765" x="249.472" xlink:href="#textext-082fa4b4-2" width="744.094" height="1052.362"/><use y="134.765" x="249.791" xlink:href="#textext-082fa4b4-3" width="744.094" height="1052.362"/><use y="136.259" x="254.284" xlink:href="#textext-082fa4b4-4" width="744.094" height="1052.362"/><use y="134.765" x="260.967" xlink:href="#textext-082fa4b4-6" width="744.094" height="1052.362"/><use y="134.765" x="270.612" xlink:href="#textext-082fa4b4-2" width="744.094" height="1052.362"/><use y="134.765" x="270.931" xlink:href="#textext-082fa4b4-3" width="744.094" height="1052.362"/><use y="136.259" x="275.425" xlink:href="#textext-082fa4b4-5" width="744.094" height="1052.362"/></g></g><g transform="translate(271.469 1176.547) scale(4.62289)" fill="green"><use y="134.765" x="231.736" xlink:href="#textext-082fa4b4-3" width="744.094" height="1052.362"/><use y="134.765" x="231.736" xlink:href="#textext-082fa4b4-3" width="744.094" height="1052.362"/><g ns0:preamble="/home/waldgeist/data/sphinx/test.tex" ns0:text="$\\Delta \\vec{r} = \\vec{r}_{\\rm{2}} - \\vec{r}_{\\rm{1}} $"><use y="134.765" x="223.432" xlink:href="#textext-082fa4b4-0" width="744.094" height="1052.362"/><use y="134.765" x="231.417" xlink:href="#textext-082fa4b4-2" width="744.094" height="1052.362"/><use y="134.765" x="231.736" xlink:href="#textext-082fa4b4-3" width="744.094" height="1052.362"/><use y="134.765" x="239.273" xlink:href="#textext-082fa4b4-1" width="744.094" height="1052.362"/><use y="134.765" x="249.472" xlink:href="#textext-082fa4b4-2" width="744.094" height="1052.362"/><use y="134.765" x="249.791" xlink:href="#textext-082fa4b4-3" width="744.094" height="1052.362"/><use y="136.259" x="254.284" xlink:href="#textext-082fa4b4-4" width="744.094" height="1052.362"/><use y="134.765" x="260.967" xlink:href="#textext-082fa4b4-6" width="744.094" height="1052.362"/><use y="134.765" x="270.612" xlink:href="#textext-082fa4b4-2" width="744.094" height="1052.362"/><use y="134.765" x="270.931" xlink:href="#textext-082fa4b4-3" width="744.094" height="1052.362"/><use y="136.259" x="275.425" xlink:href="#textext-082fa4b4-5" width="744.094" height="1052.362"/></g><g ns0:preamble="/home/waldgeist/data/sphinx/test.tex" ns0:text="$\\Delta \\vec{r} = \\vec{r}_{\\rm{2}} - \\vec{r}_{\\rm{1}} $"><use y="134.765" x="223.432" xlink:href="#textext-082fa4b4-0" width="744.094" height="1052.362"/><use y="134.765" x="231.417" xlink:href="#textext-082fa4b4-2" width="744.094" height="1052.362"/><use y="134.765" x="231.736" xlink:href="#textext-082fa4b4-3" width="744.094" height="1052.362"/><use y="134.765" x="239.273" xlink:href="#textext-082fa4b4-1" width="744.094" height="1052.362"/><use y="134.765" x="249.472" xlink:href="#textext-082fa4b4-2" width="744.094" height="1052.362"/><use y="134.765" x="249.791" xlink:href="#textext-082fa4b4-3" width="744.094" height="1052.362"/><use y="136.259" x="254.284" xlink:href="#textext-082fa4b4-4" width="744.094" height="1052.362"/><use y="134.765" x="260.967" xlink:href="#textext-082fa4b4-6" width="744.094" height="1052.362"/><use y="134.765" x="270.612" xlink:href="#textext-082fa4b4-2" width="744.094" height="1052.362"/><use y="134.765" x="270.931" xlink:href="#textext-082fa4b4-3" width="744.094" height="1052.362"/><use y="136.259" x="275.425" xlink:href="#textext-082fa4b4-5" width="744.094" height="1052.362"/></g><g ns0:preamble="/home/waldgeist/data/sphinx/test.tex" ns0:text="$\\Delta \\vec{r} = \\vec{r}_{\\rm{2}} - \\vec{r}_{\\rm{1}} $"><use y="134.765" x="223.432" xlink:href="#textext-082fa4b4-0" width="744.094" height="1052.362"/><use y="134.765" x="231.417" xlink:href="#textext-082fa4b4-2" width="744.094" height="1052.362"/><use y="134.765" x="231.736" xlink:href="#textext-082fa4b4-3" width="744.094" height="1052.362"/><use y="134.765" x="239.273" xlink:href="#textext-082fa4b4-1" width="744.094" height="1052.362"/><use y="134.765" x="249.472" xlink:href="#textext-082fa4b4-2" width="744.094" height="1052.362"/><use y="134.765" x="249.791" xlink:href="#textext-082fa4b4-3" width="744.094" height="1052.362"/><use y="136.259" x="254.284" xlink:href="#textext-082fa4b4-4" width="744.094" height="1052.362"/><use y="134.765" x="260.967" xlink:href="#textext-082fa4b4-6" width="744.094" height="1052.362"/><use y="134.765" x="270.612" xlink:href="#textext-082fa4b4-2" width="744.094" height="1052.362"/><use y="134.765" x="270.931" xlink:href="#textext-082fa4b4-3" width="744.094" height="1052.362"/><use y="136.259" x="275.425" xlink:href="#textext-082fa4b4-5" width="744.094" height="1052.362"/></g></g><path d="M165.705 850.17H976.95M165.705 850.17V464.172" fill="none" stroke="#000" stroke-width="2" stroke-linecap="round" marker-end="url(#a)" transform="translate(0 -308.268)"/><g transform="matrix(4.6229 0 0 -4.6229 -342.71 -152.451)" fill="green"><use height="1052.362" width="744.094" xlink:href="#textext-082fa4b4-3" x="231.736" y="134.765"/><use height="1052.362" width="744.094" xlink:href="#textext-082fa4b4-3" x="231.736" y="134.765"/><g ns0:text="$\\Delta \\vec{r} = \\vec{r}_{\\rm{2}} - \\vec{r}_{\\rm{1}} $" ns0:preamble="/home/waldgeist/data/sphinx/test.tex"><use height="1052.362" width="744.094" xlink:href="#textext-082fa4b4-0" x="223.432" y="134.765"/><use height="1052.362" width="744.094" xlink:href="#textext-082fa4b4-2" x="231.417" y="134.765"/><use height="1052.362" width="744.094" xlink:href="#textext-082fa4b4-3" x="231.736" y="134.765"/><use height="1052.362" width="744.094" xlink:href="#textext-082fa4b4-1" x="239.273" y="134.765"/><use height="1052.362" width="744.094" xlink:href="#textext-082fa4b4-2" x="249.472" y="134.765"/><use height="1052.362" width="744.094" xlink:href="#textext-082fa4b4-3" x="249.791" y="134.765"/><use height="1052.362" width="744.094" xlink:href="#textext-082fa4b4-4" x="254.284" y="136.259"/><use height="1052.362" width="744.094" xlink:href="#textext-082fa4b4-6" x="260.967" y="134.765"/><use height="1052.362" width="744.094" xlink:href="#textext-082fa4b4-2" x="270.612" y="134.765"/><use height="1052.362" width="744.094" xlink:href="#textext-082fa4b4-3" x="270.931" y="134.765"/><use height="1052.362" width="744.094" xlink:href="#textext-082fa4b4-5" x="275.425" y="136.259"/></g><g ns0:text="$\\Delta \\vec{r} = \\vec{r}_{\\rm{2}} - \\vec{r}_{\\rm{1}} $" ns0:preamble="/home/waldgeist/data/sphinx/test.tex"><use height="1052.362" width="744.094" xlink:href="#textext-082fa4b4-0" x="223.432" y="134.765"/><use height="1052.362" width="744.094" xlink:href="#textext-082fa4b4-2" x="231.417" y="134.765"/><use height="1052.362" width="744.094" xlink:href="#textext-082fa4b4-3" x="231.736" y="134.765"/><use height="1052.362" width="744.094" xlink:href="#textext-082fa4b4-1" x="239.273" y="134.765"/><use height="1052.362" width="744.094" xlink:href="#textext-082fa4b4-2" x="249.472" y="134.765"/><use height="1052.362" width="744.094" xlink:href="#textext-082fa4b4-3" x="249.791" y="134.765"/><use height="1052.362" width="744.094" xlink:href="#textext-082fa4b4-4" x="254.284" y="136.259"/><use height="1052.362" width="744.094" xlink:href="#textext-082fa4b4-6" x="260.967" y="134.765"/><use height="1052.362" width="744.094" xlink:href="#textext-082fa4b4-2" x="270.612" y="134.765"/><use height="1052.362" width="744.094" xlink:href="#textext-082fa4b4-3" x="270.931" y="134.765"/><use height="1052.362" width="744.094" xlink:href="#textext-082fa4b4-5" x="275.425" y="136.259"/></g><g ns0:text="$\\Delta \\vec{r} = \\vec{r}_{\\rm{2}} - \\vec{r}_{\\rm{1}} $" ns0:preamble="/home/waldgeist/data/sphinx/test.tex"><use height="1052.362" width="744.094" xlink:href="#textext-082fa4b4-0" x="223.432" y="134.765"/><use height="1052.362" width="744.094" xlink:href="#textext-082fa4b4-2" x="231.417" y="134.765"/><use height="1052.362" width="744.094" xlink:href="#textext-082fa4b4-3" x="231.736" y="134.765"/><use height="1052.362" width="744.094" xlink:href="#textext-082fa4b4-1" x="239.273" y="134.765"/><use height="1052.362" width="744.094" xlink:href="#textext-082fa4b4-2" x="249.472" y="134.765"/><use height="1052.362" width="744.094" xlink:href="#textext-082fa4b4-3" x="249.791" y="134.765"/><use height="1052.362" width="744.094" xlink:href="#textext-082fa4b4-4" x="254.284" y="136.259"/><use height="1052.362" width="744.094" xlink:href="#textext-082fa4b4-6" x="260.967" y="134.765"/><use height="1052.362" width="744.094" xlink:href="#textext-082fa4b4-2" x="270.612" y="134.765"/><use height="1052.362" width="744.094" xlink:href="#textext-082fa4b4-3" x="270.931" y="134.765"/><use height="1052.362" width="744.094" xlink:href="#textext-082fa4b4-5" x="275.425" y="136.259"/></g></g><g transform="matrix(4.6229 0 0 -4.6229 271.469 -1416.513)" fill="green"><use height="1052.362" width="744.094" xlink:href="#textext-082fa4b4-3" x="231.736" y="134.765"/><use height="1052.362" width="744.094" xlink:href="#textext-082fa4b4-3" x="231.736" y="134.765"/><g ns0:text="$\\Delta \\vec{r} = \\vec{r}_{\\rm{2}} - \\vec{r}_{\\rm{1}} $" ns0:preamble="/home/waldgeist/data/sphinx/test.tex"><use height="1052.362" width="744.094" xlink:href="#textext-082fa4b4-0" x="223.432" y="134.765"/><use height="1052.362" width="744.094" xlink:href="#textext-082fa4b4-2" x="231.417" y="134.765"/><use height="1052.362" width="744.094" xlink:href="#textext-082fa4b4-3" x="231.736" y="134.765"/><use height="1052.362" width="744.094" xlink:href="#textext-082fa4b4-1" x="239.273" y="134.765"/><use height="1052.362" width="744.094" xlink:href="#textext-082fa4b4-2" x="249.472" y="134.765"/><use height="1052.362" width="744.094" xlink:href="#textext-082fa4b4-3" x="249.791" y="134.765"/><use height="1052.362" width="744.094" xlink:href="#textext-082fa4b4-4" x="254.284" y="136.259"/><use height="1052.362" width="744.094" xlink:href="#textext-082fa4b4-6" x="260.967" y="134.765"/><use height="1052.362" width="744.094" xlink:href="#textext-082fa4b4-2" x="270.612" y="134.765"/><use height="1052.362" width="744.094" xlink:href="#textext-082fa4b4-3" x="270.931" y="134.765"/><use height="1052.362" width="744.094" xlink:href="#textext-082fa4b4-5" x="275.425" y="136.259"/></g><g ns0:text="$\\Delta \\vec{r} = \\vec{r}_{\\rm{2}} - \\vec{r}_{\\rm{1}} $" ns0:preamble="/home/waldgeist/data/sphinx/test.tex"><use height="1052.362" width="744.094" xlink:href="#textext-082fa4b4-0" x="223.432" y="134.765"/><use height="1052.362" width="744.094" xlink:href="#textext-082fa4b4-2" x="231.417" y="134.765"/><use height="1052.362" width="744.094" xlink:href="#textext-082fa4b4-3" x="231.736" y="134.765"/><use height="1052.362" width="744.094" xlink:href="#textext-082fa4b4-1" x="239.273" y="134.765"/><use height="1052.362" width="744.094" xlink:href="#textext-082fa4b4-2" x="249.472" y="134.765"/><use height="1052.362" width="744.094" xlink:href="#textext-082fa4b4-3" x="249.791" y="134.765"/><use height="1052.362" width="744.094" xlink:href="#textext-082fa4b4-4" x="254.284" y="136.259"/><use height="1052.362" width="744.094" xlink:href="#textext-082fa4b4-6" x="260.967" y="134.765"/><use height="1052.362" width="744.094" xlink:href="#textext-082fa4b4-2" x="270.612" y="134.765"/><use height="1052.362" width="744.094" xlink:href="#textext-082fa4b4-3" x="270.931" y="134.765"/><use height="1052.362" width="744.094" xlink:href="#textext-082fa4b4-5" x="275.425" y="136.259"/></g><g ns0:text="$\\Delta \\vec{r} = \\vec{r}_{\\rm{2}} - \\vec{r}_{\\rm{1}} $" ns0:preamble="/home/waldgeist/data/sphinx/test.tex"><use height="1052.362" width="744.094" xlink:href="#textext-082fa4b4-0" x="223.432" y="134.765"/><use height="1052.362" width="744.094" xlink:href="#textext-082fa4b4-2" x="231.417" y="134.765"/><use height="1052.362" width="744.094" xlink:href="#textext-082fa4b4-3" x="231.736" y="134.765"/><use height="1052.362" width="744.094" xlink:href="#textext-082fa4b4-1" x="239.273" y="134.765"/><use height="1052.362" width="744.094" xlink:href="#textext-082fa4b4-2" x="249.472" y="134.765"/><use height="1052.362" width="744.094" xlink:href="#textext-082fa4b4-3" x="249.791" y="134.765"/><use height="1052.362" width="744.094" xlink:href="#textext-082fa4b4-4" x="254.284" y="136.259"/><use height="1052.362" width="744.094" xlink:href="#textext-082fa4b4-6" x="260.967" y="134.765"/><use height="1052.362" width="744.094" xlink:href="#textext-082fa4b4-2" x="270.612" y="134.765"/><use height="1052.362" width="744.094" xlink:href="#textext-082fa4b4-3" x="270.931" y="134.765"/><use height="1052.362" width="744.094" xlink:href="#textext-082fa4b4-5" x="275.425" y="136.259"/></g></g><g ns0:text="$f _{\\rm{a}}$" ns0:preamble="/home/waldgeist/data/sphinx/inkscape-preamble.tex" transform="matrix(4.2169 0 0 4.2169 .565 19.917)" fill="navy" stroke="#000" stroke-width=".8"><defs><symbol overflow="visible" id="b"><path d="M3.656-3.984h.86c.203 0 .296 0 .296-.204 0-.109-.093-.109-.265-.109h-.828l.203-1.14c.047-.204.187-.907.25-1.032.078-.187.25-.343.469-.343.03 0 .296 0 .484.187a.557.557 0 0 0-.547.531c0 .235.188.36.375.36.266 0 .547-.235.547-.61 0-.453-.453-.687-.86-.687-.343 0-.968.187-1.265 1.172-.063.203-.094.312-.328 1.562h-.688c-.203 0-.312 0-.312.188 0 .125.094.125.281.125h.656L2.25-.047c-.188.969-.36 1.875-.875 1.875-.047 0-.281 0-.484-.187.468-.032.562-.391.562-.532 0-.234-.187-.359-.375-.359-.266 0-.547.234-.547.61 0 .437.438.687.844.687.547 0 .953-.594 1.125-.969.328-.625.547-1.828.563-1.906z" stroke="none"/></symbol><symbol overflow="visible" id="c"><path d="M3.11-1.875c0-.36 0-.625-.329-.89C2.5-3 2.171-3.11 1.75-3.11c-.656 0-1.125.25-1.125.671 0 .235.156.344.344.344a.32.32 0 0 0 .328-.328.319.319 0 0 0-.25-.312c.25-.172.656-.172.687-.172.391 0 .829.25.829.844v.203c-.391.015-.844.046-1.36.234-.625.219-.812.61-.812.922 0 .594.718.765 1.218.765.547 0 .875-.312 1.032-.578.015.282.203.547.53.547.017 0 .688 0 .688-.656v-.39h-.234v.374c0 .079 0 .407-.266.407-.25 0-.25-.329-.25-.407zm-.547.89c0 .672-.594.86-.907.86-.36 0-.687-.234-.687-.578 0-.39.328-.922 1.594-.969z" stroke="none"/></symbol></defs><g fill="#000"><use xlink:href="#b" x="223.432" y="134.765" width="1052.362" height="744.094"/><use xlink:href="#c" x="228.31" y="136.259" width="1052.362" height="744.094"/></g></g><g transform="matrix(4.2169 0 0 4.2169 -874.575 -396.453)" ns0:preamble="/home/waldgeist/data/sphinx/inkscape-preamble.tex" ns0:text="$y _{\\rm{max}}$" fill="navy" stroke="#000" stroke-width=".8"><defs><symbol id="d" overflow="visible"><path d="M4.844-3.797c.047-.14.047-.156.047-.234 0-.172-.141-.266-.297-.266a.455.455 0 0 0-.344.203c-.016.063-.11.36-.14.547-.079.25-.141.531-.204.797L3.453-.953c-.031.14-.469.844-1.125.844-.5 0-.61-.438-.61-.813 0-.453.173-1.078.5-1.953.157-.406.204-.516.204-.719 0-.437-.313-.812-.813-.812-.953 0-1.312 1.453-1.312 1.531 0 .11.094.11.11.11.109 0 .109-.032.156-.188.28-.938.671-1.235 1.015-1.235.078 0 .25 0 .25.313 0 .25-.11.516-.172.703-.406 1.063-.578 1.625-.578 2.094 0 .89.625 1.187 1.219 1.187.39 0 .719-.171 1-.453-.125.516-.25 1.016-.64 1.547-.266.328-.641.625-1.095.625-.14 0-.593-.031-.765-.422.156 0 .297 0 .422-.125a.493.493 0 0 0 .203-.406c0-.313-.266-.344-.36-.344C.829.531.5.687.5 1.171c0 .5.438.876 1.063.876 1.015 0 2.046-.906 2.328-2.031z" stroke="none"/></symbol><symbol id="e" overflow="visible"><path d="M5.734-2.11c0-.609-.312-.968-1.046-.968-.563 0-.938.297-1.125.656-.141-.5-.516-.656-1.016-.656-.578 0-.938.312-1.14.687v-.687L.374-3v.25c.469 0 .531.047.531.39v1.813c0 .297-.078.297-.531.297V0c.016 0 .5-.031.797-.031.25 0 .734.031.797.031v-.25c-.453 0-.516 0-.516-.297v-1.265c0-.72.578-1.063 1.031-1.063.485 0 .547.375.547.734v1.594c0 .297-.062.297-.515.297V0c.015 0 .5-.031.796-.031.25 0 .735.031.797.031v-.25c-.453 0-.515 0-.515-.297v-1.265c0-.72.578-1.063 1.031-1.063.484 0 .547.375.547.734v1.594c0 .297-.063.297-.516.297V0c.016 0 .5-.031.797-.031.25 0 .734.031.797.031v-.25c-.453 0-.516 0-.516-.297z" stroke="none"/></symbol><symbol id="f" overflow="visible"><path d="M3.11-1.875c0-.36 0-.625-.329-.89C2.5-3 2.171-3.11 1.75-3.11c-.656 0-1.125.25-1.125.671 0 .235.156.344.344.344a.32.32 0 0 0 .328-.328.319.319 0 0 0-.25-.312c.25-.172.656-.172.687-.172.391 0 .829.25.829.844v.203c-.391.015-.844.046-1.36.234-.625.219-.812.61-.812.922 0 .594.718.765 1.218.765.547 0 .875-.312 1.032-.578.015.282.203.547.53.547.017 0 .688 0 .688-.656v-.39h-.234v.374c0 .079 0 .407-.266.407-.25 0-.25-.329-.25-.407zm-.547.89c0 .672-.594.86-.907.86-.36 0-.687-.234-.687-.578 0-.39.328-.922 1.594-.969z" stroke="none"/></symbol><symbol id="g" overflow="visible"><path d="M2.36-1.563l-.047-.062c0-.031.453-.516.515-.578.25-.281.485-.547 1.047-.547V-3c-.203.016-.406.031-.594.031-.203 0-.484-.015-.687-.031v.25c.11.016.14.094.14.156 0 .016 0 .125-.109.235l-.484.546-.579-.656c-.078-.078-.078-.11-.078-.14 0-.094.094-.141.188-.141V-3c-.25.016-.516.031-.781.031-.204 0-.47-.015-.672-.031v.25c.312 0 .5 0 .687.203l.86 1c.015.016.062.063.062.078 0 .016-.531.594-.594.672-.265.281-.5.531-1.046.547V0C.39-.016.546-.031.765-.031c.203 0 .484.015.687.031v-.25c-.078-.016-.14-.063-.14-.156 0-.14.078-.235.187-.344l.5-.547.594.703c.14.14.14.156.14.203 0 .125-.156.141-.187.141V0c.062 0 .562-.031.781-.031.219 0 .453.015.672.031v-.25c-.469 0-.516-.047-.688-.219z" stroke="none"/></symbol></defs><g fill="#000"><use y="134.765" x="223.432" xlink:href="#d" width="1052.362" height="744.094"/><use y="136.259" x="228.317" xlink:href="#e" width="1052.362" height="744.094"/><use y="136.259" x="234.862" xlink:href="#f" width="1052.362" height="744.094"/><use y="136.259" x="238.833" xlink:href="#g" width="1052.362" height="744.094"/></g></g><g ns0:text="$y _{\\rm{a}}$" ns0:preamble="/home/waldgeist/data/sphinx/inkscape-preamble.tex" transform="matrix(4.2169 0 0 4.2169 -829.635 -101.652)" fill="navy" stroke="#000" stroke-width=".8"><defs><symbol overflow="visible" id="h"><path d="M4.844-3.797c.047-.14.047-.156.047-.234 0-.172-.141-.266-.297-.266a.455.455 0 0 0-.344.203c-.016.063-.11.36-.14.547-.079.25-.141.531-.204.797L3.453-.953c-.031.14-.469.844-1.125.844-.5 0-.61-.438-.61-.813 0-.453.173-1.078.5-1.953.157-.406.204-.516.204-.719 0-.437-.313-.812-.813-.812-.953 0-1.312 1.453-1.312 1.531 0 .11.094.11.11.11.109 0 .109-.032.156-.188.28-.938.671-1.235 1.015-1.235.078 0 .25 0 .25.313 0 .25-.11.516-.172.703-.406 1.063-.578 1.625-.578 2.094 0 .89.625 1.187 1.219 1.187.39 0 .719-.171 1-.453-.125.516-.25 1.016-.64 1.547-.266.328-.641.625-1.095.625-.14 0-.593-.031-.765-.422.156 0 .297 0 .422-.125a.493.493 0 0 0 .203-.406c0-.313-.266-.344-.36-.344C.829.531.5.687.5 1.171c0 .5.438.876 1.063.876 1.015 0 2.046-.906 2.328-2.031z" stroke="none"/></symbol><symbol overflow="visible" id="i"><path d="M3.11-1.875c0-.36 0-.625-.329-.89C2.5-3 2.171-3.11 1.75-3.11c-.656 0-1.125.25-1.125.671 0 .235.156.344.344.344a.32.32 0 0 0 .328-.328.319.319 0 0 0-.25-.312c.25-.172.656-.172.687-.172.391 0 .829.25.829.844v.203c-.391.015-.844.046-1.36.234-.625.219-.812.61-.812.922 0 .594.718.765 1.218.765.547 0 .875-.312 1.032-.578.015.282.203.547.53.547.017 0 .688 0 .688-.656v-.39h-.234v.374c0 .079 0 .407-.266.407-.25 0-.25-.329-.25-.407zm-.547.89c0 .672-.594.86-.907.86-.36 0-.687-.234-.687-.578 0-.39.328-.922 1.594-.969z" stroke="none"/></symbol></defs><g fill="#000"><use height="744.094" width="1052.362" xlink:href="#h" x="223.432" y="134.765"/><use height="744.094" width="1052.362" xlink:href="#i" x="228.317" y="136.259"/></g></g><g transform="matrix(4.2169 0 0 4.2169 -534.048 19.917)" ns0:preamble="/home/waldgeist/data/sphinx/inkscape-preamble.tex" ns0:text="$f _{\\rm{0}}$" fill="navy" stroke="#000" stroke-width=".8"><defs><symbol id="j" overflow="visible"><path d="M3.656-3.984h.86c.203 0 .296 0 .296-.204 0-.109-.093-.109-.265-.109h-.828l.203-1.14c.047-.204.187-.907.25-1.032.078-.187.25-.343.469-.343.03 0 .296 0 .484.187a.557.557 0 0 0-.547.531c0 .235.188.36.375.36.266 0 .547-.235.547-.61 0-.453-.453-.687-.86-.687-.343 0-.968.187-1.265 1.172-.063.203-.094.312-.328 1.562h-.688c-.203 0-.312 0-.312.188 0 .125.094.125.281.125h.656L2.25-.047c-.188.969-.36 1.875-.875 1.875-.047 0-.281 0-.484-.187.468-.032.562-.391.562-.532 0-.234-.187-.359-.375-.359-.266 0-.547.234-.547.61 0 .437.438.687.844.687.547 0 .953-.594 1.125-.969.328-.625.547-1.828.563-1.906z" stroke="none"/></symbol><symbol id="k" overflow="visible"><path d="M3.594-2.219c0-.765-.094-1.328-.406-1.812-.22-.313-.657-.594-1.204-.594C.36-4.625.36-2.719.36-2.219c0 .5 0 2.36 1.625 2.36 1.61 0 1.61-1.86 1.61-2.36zM1.984-.063c-.328 0-.75-.187-.89-.75C1-1.219 1-1.796 1-2.313c0-.515 0-1.046.094-1.421.156-.547.593-.704.89-.704.375 0 .735.235.86.641.11.375.125.875.125 1.485 0 .515 0 1.03-.094 1.468-.14.64-.61.781-.89.781z" stroke="none"/></symbol></defs><g fill="#000"><use y="134.765" x="223.432" xlink:href="#j" width="1052.362" height="744.094"/><use y="136.259" x="228.31" xlink:href="#k" width="1052.362" height="744.094"/></g></g><path d="M165.705 458.949C319.8 459.993 397.55 357.607 410.89 177.344m31.574-.427C461.91 442.96 641.269 510.369 843.857 511.57" fill="none" stroke="#0f0" stroke-width="3" stroke-linecap="round"/><path d="M426.676 541.902v-366.62" fill="none" stroke="#333" stroke-width="1.5" stroke-linecap="round" stroke-dasharray="1,4.00000002"/><path d="M165.705 458.949c85.995-3.292 149.115-3.244 217.003-41.806 32.667-17.59 39.147-48.284 78.351 4.14 58.627 69.829 180.095 108.162 382.683 109.363" fill="none" stroke="green" stroke-width="3" stroke-linecap="round"/><path d="M165.705 458.949c187.316-11.875 205.02-63.473 245.412-140.877 8.338-16.89 14.712-43.016 30.465.594 56.36 163.614 199.687 202.725 402.275 203.926" fill="none" stroke="#00d400" stroke-width="3" stroke-linecap="round"/><path d="M426.676 532.213v19.379" fill="none" stroke="#333" stroke-width="2" stroke-linecap="round"/></svg>