<svg xmlns="http://www.w3.org/2000/svg" width="744.094" height="1052.362"><title>Schaukel-Schwingung</title><rect width="694.286" height="657.143" x="24.904" y="197.61" ry="8.081" fill="#fff" stroke="#fff" stroke-width="6" stroke-linecap="round" stroke-linejoin="round"/><path d="M705.981 623.143a381.429 381.429 0 0 1-660.654 0" fill="none" stroke="#999" stroke-width="6.0001527" stroke-linecap="round" stroke-linejoin="round" stroke-dasharray="4.08988755,12.26966265"/><rect width="500" height="20" x="125.654" y="219.816" ry="8.081" fill="#333" stroke="#000" stroke-width="2" stroke-linecap="square" stroke-linejoin="round"/><g stroke="#333" fill="none" stroke-width="4" stroke-linecap="round"><path d="M375.654 249.744c7.321 0 13.256 5.935 13.256 13.256 0 7.321-5.935 13.256-13.256 13.256-7.321 0-13.256-5.935-13.256-13.256" stroke-linejoin="round" stroke-width="4.3732"/><path d="M375.654 249.744v-18.45" stroke-width="4.3732"/></g><g transform="rotate(-30 722.108 223.482)"><rect ry="5.051" y="602.362" x="334.288" height="14.286" width="78.106" fill="#a05a2c" stroke="#784421" stroke-width="2" stroke-linecap="square" stroke-linejoin="round"/><rect rx="18.595" transform="matrix(.02374 -.99972 -.99974 -.02297 0 0)" width="115.944" height="29.884" x="-677.164" y="-334.967" ry="14.942" stroke="#fff" stroke-width=".644" stroke-linecap="round" stroke-linejoin="round"/><rect transform="scale(-1 1) rotate(-9.961)" ry="20.695" y="394.859" x="-500.017" height="124.173" width="41.391" stroke="#000" stroke-width="6" stroke-linecap="round" stroke-linejoin="round"/><rect transform="scale(-1 1)" ry="14.095" y="570.068" x="-401.729" height="28.191" width="106.05" stroke="#000" stroke-width="6" stroke-linecap="round" stroke-linejoin="round"/><path d="M392.858 426.807c-9.123 9.056-9.178 23.794-.121 32.918 9.057 9.124 23.795 9.178 32.919.122 9.124-9.057 9.178-23.795.121-32.92-9.057-9.123-23.795-9.177-32.919-.12z" stroke="#000" stroke-width="2.4349023599999997" stroke-linecap="round" stroke-linejoin="round"/><path d="M340.288 610.125l33.053-71.336 32.643 70.716" fill="none" stroke="#999" stroke-width="6" stroke-linecap="round"/><path d="M398.563 93.828l-25.222 444.96" fill="#999" stroke="#999" stroke-width="6" stroke-linecap="round"/><path d="M407.775 471.234a11.441 11.441 0 0 1 3.967 4.053l32.985 57.157a11.53 11.53 0 0 1-4.237 15.796 11.653 11.653 0 0 1-4.166 1.46l-49.335 28.482a10.116 10.116 0 0 1-13.853-3.725c-2.812-4.871-1.196-11.071 3.675-13.883l43.09-24.831-28.222-48.846c-3.207-5.555-1.288-12.64 4.267-15.847 3.819-2.205 8.33-1.964 11.83.184z" stroke="#fff" stroke-width=".5" stroke-linecap="round" stroke-linejoin="round"/></g><g transform="rotate(30 26.23 234.57)" opacity=".5"><rect width="78.106" height="14.286" x="334.288" y="602.362" ry="5.051" fill="#a05a2c" stroke="#784421" stroke-width="2" stroke-linecap="square" stroke-linejoin="round"/><rect ry="14.942" y="-334.967" x="-677.164" height="29.884" width="115.944" transform="matrix(.02374 -.99972 -.99974 -.02297 0 0)" rx="18.595" stroke="#fff" stroke-width=".644" stroke-linecap="round" stroke-linejoin="round"/><rect width="41.391" height="124.173" x="-500.017" y="394.859" ry="20.695" transform="scale(-1 1) rotate(-9.961)" stroke="#000" stroke-width="6" stroke-linecap="round" stroke-linejoin="round"/><rect width="106.05" height="28.191" x="-401.729" y="570.068" ry="14.095" transform="scale(-1 1)" stroke="#000" stroke-width="6" stroke-linecap="round" stroke-linejoin="round"/><path d="M392.858 426.807c-9.123 9.056-9.178 23.794-.121 32.918 9.057 9.124 23.795 9.178 32.919.122 9.124-9.057 9.178-23.795.121-32.92-9.057-9.123-23.795-9.177-32.919-.12z" stroke="#000" stroke-width="2.4349023599999997" stroke-linecap="round" stroke-linejoin="round"/><path d="M340.288 610.125l33.053-71.336 32.643 70.716" fill="none" stroke="#999" stroke-width="6" stroke-linecap="round"/><path d="M349.278 92.4l24.063 446.389" fill="#999" stroke="#999" stroke-width="6" stroke-linecap="round"/><path d="M407.775 471.234a11.441 11.441 0 0 1 3.967 4.053l32.985 57.157a11.53 11.53 0 0 1-4.237 15.796 11.653 11.653 0 0 1-4.166 1.46l-49.335 28.482a10.116 10.116 0 0 1-13.853-3.725c-2.812-4.871-1.196-11.071 3.675-13.883l43.09-24.831-28.222-48.846c-3.207-5.555-1.288-12.64 4.267-15.847 3.819-2.205 8.33-1.964 11.83.184z" stroke="#fff" stroke-width=".5" stroke-linecap="round" stroke-linejoin="round"/></g></svg>