<svg xmlns:ns0="http://www.iki.fi/pav/software/textext/" xmlns="http://www.w3.org/2000/svg" xmlns:xlink="http://www.w3.org/1999/xlink" width="1052.362" height="744.094"><title>Gedaempfte Schwingung</title><defs><marker id="b" orient="auto" overflow="visible"><path d="M-2.308 0l3.46-2v4l-3.46-2z" fill-rule="evenodd" stroke="#000" stroke-width=".4pt"/></marker><marker id="c" orient="auto" overflow="visible"><path d="M2.308 0l-3.46 2v-4l3.46 2z" fill-rule="evenodd" stroke="#000" stroke-width=".4pt"/></marker><marker orient="auto" id="a" overflow="visible"><path d="M8.719 4.034L-2.207.016 8.719-4.002c-1.746 2.372-1.736 5.618 0 8.036z" transform="scale(-.6)" fill-rule="evenodd" stroke-width=".625" stroke-linejoin="round"/></marker></defs><path style="marker:none" color="#000" fill="#fff" fill-rule="evenodd" stroke="#fff" stroke-width="1.5" overflow="visible" d="M21.976 169.135h1008.41v405.823H21.976z"/><path style="marker:none" d="M55.483 373.534H434.07M244.777 562.828V184.24" color="#000" fill="none" stroke="gray" stroke-width="2" stroke-linecap="round" stroke-linejoin="round" overflow="visible"/><g transform="translate(-342.71 -87.515) scale(4.62289)" fill="green"><use y="134.765" x="231.736" xlink:href="#textext-082fa4b4-3" width="744.094" height="1052.362"/><use y="134.765" x="231.736" xlink:href="#textext-082fa4b4-3" width="744.094" height="1052.362"/><g ns0:preamble="/home/waldgeist/data/sphinx/test.tex" ns0:text="$\\Delta \\vec{r} = \\vec{r}_{\\rm{2}} - \\vec{r}_{\\rm{1}} $"><use y="134.765" x="223.432" xlink:href="#textext-082fa4b4-0" width="744.094" height="1052.362"/><use y="134.765" x="231.417" xlink:href="#textext-082fa4b4-2" width="744.094" height="1052.362"/><use y="134.765" x="231.736" xlink:href="#textext-082fa4b4-3" width="744.094" height="1052.362"/><use y="134.765" x="239.273" xlink:href="#textext-082fa4b4-1" width="744.094" height="1052.362"/><use y="134.765" x="249.472" xlink:href="#textext-082fa4b4-2" width="744.094" height="1052.362"/><use y="134.765" x="249.791" xlink:href="#textext-082fa4b4-3" width="744.094" height="1052.362"/><use y="136.259" x="254.284" xlink:href="#textext-082fa4b4-4" width="744.094" height="1052.362"/><use y="134.765" x="260.967" xlink:href="#textext-082fa4b4-6" width="744.094" height="1052.362"/><use y="134.765" x="270.612" xlink:href="#textext-082fa4b4-2" width="744.094" height="1052.362"/><use y="134.765" x="270.931" xlink:href="#textext-082fa4b4-3" width="744.094" height="1052.362"/><use y="136.259" x="275.425" xlink:href="#textext-082fa4b4-5" width="744.094" height="1052.362"/></g><g ns0:preamble="/home/waldgeist/data/sphinx/test.tex" ns0:text="$\\Delta \\vec{r} = \\vec{r}_{\\rm{2}} - \\vec{r}_{\\rm{1}} $"><use y="134.765" x="223.432" xlink:href="#textext-082fa4b4-0" width="744.094" height="1052.362"/><use y="134.765" x="231.417" xlink:href="#textext-082fa4b4-2" width="744.094" height="1052.362"/><use y="134.765" x="231.736" xlink:href="#textext-082fa4b4-3" width="744.094" height="1052.362"/><use y="134.765" x="239.273" xlink:href="#textext-082fa4b4-1" width="744.094" height="1052.362"/><use y="134.765" x="249.472" xlink:href="#textext-082fa4b4-2" width="744.094" height="1052.362"/><use y="134.765" x="249.791" xlink:href="#textext-082fa4b4-3" width="744.094" height="1052.362"/><use y="136.259" x="254.284" xlink:href="#textext-082fa4b4-4" width="744.094" height="1052.362"/><use y="134.765" x="260.967" xlink:href="#textext-082fa4b4-6" width="744.094" height="1052.362"/><use y="134.765" x="270.612" xlink:href="#textext-082fa4b4-2" width="744.094" height="1052.362"/><use y="134.765" x="270.931" xlink:href="#textext-082fa4b4-3" width="744.094" height="1052.362"/><use y="136.259" x="275.425" xlink:href="#textext-082fa4b4-5" width="744.094" height="1052.362"/></g><g ns0:preamble="/home/waldgeist/data/sphinx/test.tex" ns0:text="$\\Delta \\vec{r} = \\vec{r}_{\\rm{2}} - \\vec{r}_{\\rm{1}} $"><use y="134.765" x="223.432" xlink:href="#textext-082fa4b4-0" width="744.094" height="1052.362"/><use y="134.765" x="231.417" xlink:href="#textext-082fa4b4-2" width="744.094" height="1052.362"/><use y="134.765" x="231.736" xlink:href="#textext-082fa4b4-3" width="744.094" height="1052.362"/><use y="134.765" x="239.273" xlink:href="#textext-082fa4b4-1" width="744.094" height="1052.362"/><use y="134.765" x="249.472" xlink:href="#textext-082fa4b4-2" width="744.094" height="1052.362"/><use y="134.765" x="249.791" xlink:href="#textext-082fa4b4-3" width="744.094" height="1052.362"/><use y="136.259" x="254.284" xlink:href="#textext-082fa4b4-4" width="744.094" height="1052.362"/><use y="134.765" x="260.967" xlink:href="#textext-082fa4b4-6" width="744.094" height="1052.362"/><use y="134.765" x="270.612" xlink:href="#textext-082fa4b4-2" width="744.094" height="1052.362"/><use y="134.765" x="270.931" xlink:href="#textext-082fa4b4-3" width="744.094" height="1052.362"/><use y="136.259" x="275.425" xlink:href="#textext-082fa4b4-5" width="744.094" height="1052.362"/></g></g><g transform="translate(271.469 1176.547) scale(4.62289)" fill="green"><use y="134.765" x="231.736" xlink:href="#textext-082fa4b4-3" width="744.094" height="1052.362"/><use y="134.765" x="231.736" xlink:href="#textext-082fa4b4-3" width="744.094" height="1052.362"/><g ns0:preamble="/home/waldgeist/data/sphinx/test.tex" ns0:text="$\\Delta \\vec{r} = \\vec{r}_{\\rm{2}} - \\vec{r}_{\\rm{1}} $"><use y="134.765" x="223.432" xlink:href="#textext-082fa4b4-0" width="744.094" height="1052.362"/><use y="134.765" x="231.417" xlink:href="#textext-082fa4b4-2" width="744.094" height="1052.362"/><use y="134.765" x="231.736" xlink:href="#textext-082fa4b4-3" width="744.094" height="1052.362"/><use y="134.765" x="239.273" xlink:href="#textext-082fa4b4-1" width="744.094" height="1052.362"/><use y="134.765" x="249.472" xlink:href="#textext-082fa4b4-2" width="744.094" height="1052.362"/><use y="134.765" x="249.791" xlink:href="#textext-082fa4b4-3" width="744.094" height="1052.362"/><use y="136.259" x="254.284" xlink:href="#textext-082fa4b4-4" width="744.094" height="1052.362"/><use y="134.765" x="260.967" xlink:href="#textext-082fa4b4-6" width="744.094" height="1052.362"/><use y="134.765" x="270.612" xlink:href="#textext-082fa4b4-2" width="744.094" height="1052.362"/><use y="134.765" x="270.931" xlink:href="#textext-082fa4b4-3" width="744.094" height="1052.362"/><use y="136.259" x="275.425" xlink:href="#textext-082fa4b4-5" width="744.094" height="1052.362"/></g><g ns0:preamble="/home/waldgeist/data/sphinx/test.tex" ns0:text="$\\Delta \\vec{r} = \\vec{r}_{\\rm{2}} - \\vec{r}_{\\rm{1}} $"><use y="134.765" x="223.432" xlink:href="#textext-082fa4b4-0" width="744.094" height="1052.362"/><use y="134.765" x="231.417" xlink:href="#textext-082fa4b4-2" width="744.094" height="1052.362"/><use y="134.765" x="231.736" xlink:href="#textext-082fa4b4-3" width="744.094" height="1052.362"/><use y="134.765" x="239.273" xlink:href="#textext-082fa4b4-1" width="744.094" height="1052.362"/><use y="134.765" x="249.472" xlink:href="#textext-082fa4b4-2" width="744.094" height="1052.362"/><use y="134.765" x="249.791" xlink:href="#textext-082fa4b4-3" width="744.094" height="1052.362"/><use y="136.259" x="254.284" xlink:href="#textext-082fa4b4-4" width="744.094" height="1052.362"/><use y="134.765" x="260.967" xlink:href="#textext-082fa4b4-6" width="744.094" height="1052.362"/><use y="134.765" x="270.612" xlink:href="#textext-082fa4b4-2" width="744.094" height="1052.362"/><use y="134.765" x="270.931" xlink:href="#textext-082fa4b4-3" width="744.094" height="1052.362"/><use y="136.259" x="275.425" xlink:href="#textext-082fa4b4-5" width="744.094" height="1052.362"/></g><g ns0:preamble="/home/waldgeist/data/sphinx/test.tex" ns0:text="$\\Delta \\vec{r} = \\vec{r}_{\\rm{2}} - \\vec{r}_{\\rm{1}} $"><use y="134.765" x="223.432" xlink:href="#textext-082fa4b4-0" width="744.094" height="1052.362"/><use y="134.765" x="231.417" xlink:href="#textext-082fa4b4-2" width="744.094" height="1052.362"/><use y="134.765" x="231.736" xlink:href="#textext-082fa4b4-3" width="744.094" height="1052.362"/><use y="134.765" x="239.273" xlink:href="#textext-082fa4b4-1" width="744.094" height="1052.362"/><use y="134.765" x="249.472" xlink:href="#textext-082fa4b4-2" width="744.094" height="1052.362"/><use y="134.765" x="249.791" xlink:href="#textext-082fa4b4-3" width="744.094" height="1052.362"/><use y="136.259" x="254.284" xlink:href="#textext-082fa4b4-4" width="744.094" height="1052.362"/><use y="134.765" x="260.967" xlink:href="#textext-082fa4b4-6" width="744.094" height="1052.362"/><use y="134.765" x="270.612" xlink:href="#textext-082fa4b4-2" width="744.094" height="1052.362"/><use y="134.765" x="270.931" xlink:href="#textext-082fa4b4-3" width="744.094" height="1052.362"/><use y="136.259" x="275.425" xlink:href="#textext-082fa4b4-5" width="744.094" height="1052.362"/></g></g><g transform="matrix(4.6229 0 0 -4.6229 -342.71 -152.451)" fill="green"><use height="1052.362" width="744.094" xlink:href="#textext-082fa4b4-3" x="231.736" y="134.765"/><use height="1052.362" width="744.094" xlink:href="#textext-082fa4b4-3" x="231.736" y="134.765"/><g ns0:text="$\\Delta \\vec{r} = \\vec{r}_{\\rm{2}} - \\vec{r}_{\\rm{1}} $" ns0:preamble="/home/waldgeist/data/sphinx/test.tex"><use height="1052.362" width="744.094" xlink:href="#textext-082fa4b4-0" x="223.432" y="134.765"/><use height="1052.362" width="744.094" xlink:href="#textext-082fa4b4-2" x="231.417" y="134.765"/><use height="1052.362" width="744.094" xlink:href="#textext-082fa4b4-3" x="231.736" y="134.765"/><use height="1052.362" width="744.094" xlink:href="#textext-082fa4b4-1" x="239.273" y="134.765"/><use height="1052.362" width="744.094" xlink:href="#textext-082fa4b4-2" x="249.472" y="134.765"/><use height="1052.362" width="744.094" xlink:href="#textext-082fa4b4-3" x="249.791" y="134.765"/><use height="1052.362" width="744.094" xlink:href="#textext-082fa4b4-4" x="254.284" y="136.259"/><use height="1052.362" width="744.094" xlink:href="#textext-082fa4b4-6" x="260.967" y="134.765"/><use height="1052.362" width="744.094" xlink:href="#textext-082fa4b4-2" x="270.612" y="134.765"/><use height="1052.362" width="744.094" xlink:href="#textext-082fa4b4-3" x="270.931" y="134.765"/><use height="1052.362" width="744.094" xlink:href="#textext-082fa4b4-5" x="275.425" y="136.259"/></g><g ns0:text="$\\Delta \\vec{r} = \\vec{r}_{\\rm{2}} - \\vec{r}_{\\rm{1}} $" ns0:preamble="/home/waldgeist/data/sphinx/test.tex"><use height="1052.362" width="744.094" xlink:href="#textext-082fa4b4-0" x="223.432" y="134.765"/><use height="1052.362" width="744.094" xlink:href="#textext-082fa4b4-2" x="231.417" y="134.765"/><use height="1052.362" width="744.094" xlink:href="#textext-082fa4b4-3" x="231.736" y="134.765"/><use height="1052.362" width="744.094" xlink:href="#textext-082fa4b4-1" x="239.273" y="134.765"/><use height="1052.362" width="744.094" xlink:href="#textext-082fa4b4-2" x="249.472" y="134.765"/><use height="1052.362" width="744.094" xlink:href="#textext-082fa4b4-3" x="249.791" y="134.765"/><use height="1052.362" width="744.094" xlink:href="#textext-082fa4b4-4" x="254.284" y="136.259"/><use height="1052.362" width="744.094" xlink:href="#textext-082fa4b4-6" x="260.967" y="134.765"/><use height="1052.362" width="744.094" xlink:href="#textext-082fa4b4-2" x="270.612" y="134.765"/><use height="1052.362" width="744.094" xlink:href="#textext-082fa4b4-3" x="270.931" y="134.765"/><use height="1052.362" width="744.094" xlink:href="#textext-082fa4b4-5" x="275.425" y="136.259"/></g><g ns0:text="$\\Delta \\vec{r} = \\vec{r}_{\\rm{2}} - \\vec{r}_{\\rm{1}} $" ns0:preamble="/home/waldgeist/data/sphinx/test.tex"><use height="1052.362" width="744.094" xlink:href="#textext-082fa4b4-0" x="223.432" y="134.765"/><use height="1052.362" width="744.094" xlink:href="#textext-082fa4b4-2" x="231.417" y="134.765"/><use height="1052.362" width="744.094" xlink:href="#textext-082fa4b4-3" x="231.736" y="134.765"/><use height="1052.362" width="744.094" xlink:href="#textext-082fa4b4-1" x="239.273" y="134.765"/><use height="1052.362" width="744.094" xlink:href="#textext-082fa4b4-2" x="249.472" y="134.765"/><use height="1052.362" width="744.094" xlink:href="#textext-082fa4b4-3" x="249.791" y="134.765"/><use height="1052.362" width="744.094" xlink:href="#textext-082fa4b4-4" x="254.284" y="136.259"/><use height="1052.362" width="744.094" xlink:href="#textext-082fa4b4-6" x="260.967" y="134.765"/><use height="1052.362" width="744.094" xlink:href="#textext-082fa4b4-2" x="270.612" y="134.765"/><use height="1052.362" width="744.094" xlink:href="#textext-082fa4b4-3" x="270.931" y="134.765"/><use height="1052.362" width="744.094" xlink:href="#textext-082fa4b4-5" x="275.425" y="136.259"/></g></g><g transform="matrix(4.6229 0 0 -4.6229 271.469 -1416.513)" fill="green"><use height="1052.362" width="744.094" xlink:href="#textext-082fa4b4-3" x="231.736" y="134.765"/><use height="1052.362" width="744.094" xlink:href="#textext-082fa4b4-3" x="231.736" y="134.765"/><g ns0:text="$\\Delta \\vec{r} = \\vec{r}_{\\rm{2}} - \\vec{r}_{\\rm{1}} $" ns0:preamble="/home/waldgeist/data/sphinx/test.tex"><use height="1052.362" width="744.094" xlink:href="#textext-082fa4b4-0" x="223.432" y="134.765"/><use height="1052.362" width="744.094" xlink:href="#textext-082fa4b4-2" x="231.417" y="134.765"/><use height="1052.362" width="744.094" xlink:href="#textext-082fa4b4-3" x="231.736" y="134.765"/><use height="1052.362" width="744.094" xlink:href="#textext-082fa4b4-1" x="239.273" y="134.765"/><use height="1052.362" width="744.094" xlink:href="#textext-082fa4b4-2" x="249.472" y="134.765"/><use height="1052.362" width="744.094" xlink:href="#textext-082fa4b4-3" x="249.791" y="134.765"/><use height="1052.362" width="744.094" xlink:href="#textext-082fa4b4-4" x="254.284" y="136.259"/><use height="1052.362" width="744.094" xlink:href="#textext-082fa4b4-6" x="260.967" y="134.765"/><use height="1052.362" width="744.094" xlink:href="#textext-082fa4b4-2" x="270.612" y="134.765"/><use height="1052.362" width="744.094" xlink:href="#textext-082fa4b4-3" x="270.931" y="134.765"/><use height="1052.362" width="744.094" xlink:href="#textext-082fa4b4-5" x="275.425" y="136.259"/></g><g ns0:text="$\\Delta \\vec{r} = \\vec{r}_{\\rm{2}} - \\vec{r}_{\\rm{1}} $" ns0:preamble="/home/waldgeist/data/sphinx/test.tex"><use height="1052.362" width="744.094" xlink:href="#textext-082fa4b4-0" x="223.432" y="134.765"/><use height="1052.362" width="744.094" xlink:href="#textext-082fa4b4-2" x="231.417" y="134.765"/><use height="1052.362" width="744.094" xlink:href="#textext-082fa4b4-3" x="231.736" y="134.765"/><use height="1052.362" width="744.094" xlink:href="#textext-082fa4b4-1" x="239.273" y="134.765"/><use height="1052.362" width="744.094" xlink:href="#textext-082fa4b4-2" x="249.472" y="134.765"/><use height="1052.362" width="744.094" xlink:href="#textext-082fa4b4-3" x="249.791" y="134.765"/><use height="1052.362" width="744.094" xlink:href="#textext-082fa4b4-4" x="254.284" y="136.259"/><use height="1052.362" width="744.094" xlink:href="#textext-082fa4b4-6" x="260.967" y="134.765"/><use height="1052.362" width="744.094" xlink:href="#textext-082fa4b4-2" x="270.612" y="134.765"/><use height="1052.362" width="744.094" xlink:href="#textext-082fa4b4-3" x="270.931" y="134.765"/><use height="1052.362" width="744.094" xlink:href="#textext-082fa4b4-5" x="275.425" y="136.259"/></g><g ns0:text="$\\Delta \\vec{r} = \\vec{r}_{\\rm{2}} - \\vec{r}_{\\rm{1}} $" ns0:preamble="/home/waldgeist/data/sphinx/test.tex"><use height="1052.362" width="744.094" xlink:href="#textext-082fa4b4-0" x="223.432" y="134.765"/><use height="1052.362" width="744.094" xlink:href="#textext-082fa4b4-2" x="231.417" y="134.765"/><use height="1052.362" width="744.094" xlink:href="#textext-082fa4b4-3" x="231.736" y="134.765"/><use height="1052.362" width="744.094" xlink:href="#textext-082fa4b4-1" x="239.273" y="134.765"/><use height="1052.362" width="744.094" xlink:href="#textext-082fa4b4-2" x="249.472" y="134.765"/><use height="1052.362" width="744.094" xlink:href="#textext-082fa4b4-3" x="249.791" y="134.765"/><use height="1052.362" width="744.094" xlink:href="#textext-082fa4b4-4" x="254.284" y="136.259"/><use height="1052.362" width="744.094" xlink:href="#textext-082fa4b4-6" x="260.967" y="134.765"/><use height="1052.362" width="744.094" xlink:href="#textext-082fa4b4-2" x="270.612" y="134.765"/><use height="1052.362" width="744.094" xlink:href="#textext-082fa4b4-3" x="270.931" y="134.765"/><use height="1052.362" width="744.094" xlink:href="#textext-082fa4b4-5" x="275.425" y="136.259"/></g></g><path d="M388.282 373.51a143.473 143.473 0 1 1-286.946 0 143.473 143.473 0 1 1 286.946 0z" style="marker:none" color="#000" fill="none" stroke="#000" stroke-width="1.49977212" stroke-linecap="round" stroke-linejoin="round" overflow="visible"/><path d="M520.66 842.355V492.508" fill="none" stroke="gray" stroke-width="3" marker-end="url(#a)" transform="translate(0 -308.268)"/><path d="M80.363 526.14c23.003-32.799 46.006-64.87 69.01-80.25 23.002-15.379 46.005-13.32 69.009 5.07 23.003 18.393 46.006 52.392 69.009 85 23.003 32.61 46.006 62.403 69.01 74.56 23.002 12.157 46.005 6.068 69.008-15.152 23.003-21.22 46.007-56.717 69.01-88.753" fill="none" stroke-linecap="round" transform="matrix(1.02193 0 0 1.58747 438.533 -462.075)" stroke="green" stroke-width="2.355"/><path style="marker:none" d="M143.17 272.215H674.64" color="#000" fill="none" stroke="purple" stroke-width="2" stroke-linecap="round" stroke-linejoin="round" stroke-dasharray="1.99999999,5.99999999" overflow="visible"/><path style="marker:none" d="M244.621 681.933l-99.543-99.543" color="#000" fill="none" stroke="purple" stroke-width="3" stroke-linecap="round" stroke-linejoin="round" marker-end="url(#a)" overflow="visible" transform="translate(0 -308.268)"/><path d="M521.191 681.483h472.715" fill="none" stroke="gray" stroke-width="3" marker-end="url(#a)" transform="translate(0 -308.268)"/><path d="M587.455 676.115V563.529" fill="none" stroke="#00f" stroke-width="2" stroke-linecap="square" marker-start="url(#b)" marker-end="url(#c)" transform="translate(0 -308.268)"/><g transform="translate(-286.647 -207.297) scale(3.47861)" ns0:text="$y$" ns0:preamble="/home/waldgeist/data/sphinx/test.tex"><defs><symbol overflow="visible" id="d"><path d="M4.844-3.797c.047-.14.047-.156.047-.234 0-.172-.141-.266-.297-.266a.455.455 0 0 0-.344.203c-.016.063-.11.36-.14.547-.079.25-.141.531-.204.797L3.453-.953c-.031.14-.469.844-1.125.844-.5 0-.61-.438-.61-.813 0-.453.173-1.078.5-1.953.157-.406.204-.516.204-.719 0-.437-.313-.812-.813-.812-.953 0-1.312 1.453-1.312 1.531 0 .11.094.11.11.11.109 0 .109-.032.156-.188.28-.938.671-1.235 1.015-1.235.078 0 .25 0 .25.313 0 .25-.11.516-.172.703-.406 1.063-.578 1.625-.578 2.094 0 .89.625 1.187 1.219 1.187.39 0 .719-.171 1-.453-.125.516-.25 1.016-.64 1.547-.266.328-.641.625-1.095.625-.14 0-.593-.031-.765-.422.156 0 .297 0 .422-.125a.493.493 0 0 0 .203-.406c0-.313-.266-.344-.36-.344C.829.531.5.687.5 1.171c0 .5.438.876 1.063.876 1.015 0 2.046-.906 2.328-2.031zm0 0"/></symbol></defs><use height="1052.362" width="1488.189" xlink:href="#d" x="223.432" y="134.765" transform="translate(0 -17.248)"/></g><g transform="matrix(3.4978 0 0 3.4978 200.114 -61.972)" ns0:text="$t$"><defs><symbol id="e" overflow="visible"><path d="M2.047-3.984h.937c.204 0 .313 0 .313-.204 0-.109-.11-.109-.281-.109H2.14c.359-1.422.406-1.61.406-1.672 0-.172-.125-.265-.297-.265-.031 0-.313 0-.39.359l-.391 1.578H.53c-.203 0-.297 0-.297.188 0 .125.078.125.282.125h.875C.67-1.156.625-.984.625-.813c0 .547.375.922.922.922 1.016 0 1.578-1.453 1.578-1.53 0-.11-.078-.11-.11-.11-.093 0-.109.031-.156.14C2.438-.344 1.906-.109 1.563-.109c-.204 0-.313-.125-.313-.454 0-.25.031-.312.063-.484zm0 0"/></symbol></defs><use y="134.765" x="223.432" xlink:href="#e" width="1052.362" height="744.094"/></g><path d="M674.066 675.566V585.73" fill="none" stroke="purple" stroke-width="2" stroke-linecap="square" marker-start="url(#b)" marker-end="url(#c)" transform="translate(0 -308.268)"/><path transform="matrix(1.22642 0 0 -1.22642 -1.559 550.395)" d="M237.072 144.241a36.21 36.21 0 0 1-61.814 25.604" style="marker:none" color="#000" fill="none" stroke="purple" stroke-width="1.223" stroke-linecap="round" stroke-linejoin="round" marker-end="url(#a)" overflow="visible"/><path d="M244.876 681.821l69.642-120.645" style="marker:none" color="#000" fill="#00f" stroke="#00f" stroke-width="3" stroke-linecap="round" stroke-linejoin="round" marker-end="url(#a)" overflow="visible" transform="translate(0 -308.268)"/><path style="marker:none" opacity=".5" color="#000" fill="#fff" fill-rule="evenodd" stroke="#fff" stroke-width="1.5" overflow="visible" d="M314.615 313.052h133.577v32.88H314.615z"/><path style="marker:none" d="M319.857 373.496a75.075 75.075 0 0 1-37.538-65.017l-37.537 65.017z" opacity=".1" color="#000" fill="#00f" stroke="#00f" stroke-width="1.4990248199999998" stroke-linecap="round" stroke-linejoin="round" overflow="visible"/><path d="M318.51 249.21h271.503" style="marker:none" color="#000" fill="none" stroke="#00f" stroke-width="2" stroke-linecap="round" stroke-linejoin="round" stroke-dasharray="2.00000005,6.00000015" overflow="visible"/><path style="marker:none" d="M237.072 144.241a36.21 36.21 0 0 1-18.105 31.359" transform="matrix(2.07334 0 0 -2.07334 -171.674 672.557)" color="#000" fill="none" stroke="#00f" stroke-width=".723" stroke-linecap="round" stroke-linejoin="round" marker-end="url(#a)" overflow="visible"/><path style="marker:none" d="M289.19 373.496a44.408 44.408 0 0 1-75.81-31.401l31.402 31.401z" opacity=".1" color="#000" fill="purple" stroke="purple" stroke-width="1.4999116600000002" stroke-linecap="round" stroke-linejoin="round" overflow="visible"/><g ns0:text="$t_1$" ns0:preamble="/home/waldgeist/data/homepage/inkscape-preamble.tex" transform="matrix(3.4978 0 0 3.4978 -199.593 -61.972)"><defs><symbol overflow="visible" id="f"><path d="M2.047-3.984h.937c.204 0 .313 0 .313-.204 0-.109-.11-.109-.281-.109H2.14c.359-1.422.406-1.61.406-1.672 0-.172-.125-.265-.297-.265-.031 0-.313 0-.39.359l-.391 1.578H.53c-.203 0-.297 0-.297.188 0 .125.078.125.282.125h.875C.67-1.156.625-.984.625-.813c0 .547.375.922.922.922 1.016 0 1.578-1.453 1.578-1.53 0-.11-.078-.11-.11-.11-.093 0-.109.031-.156.14C2.438-.344 1.906-.109 1.563-.109c-.204 0-.313-.125-.313-.454 0-.25.031-.312.063-.484zm0 0"/></symbol><symbol overflow="visible" id="g"><path d="M2.328-4.438c0-.187 0-.187-.203-.187-.453.438-1.078.438-1.36.438v.25c.157 0 .626 0 1-.188v3.547c0 .234 0 .328-.687.328H.812V0c.125 0 .985-.031 1.235-.031.219 0 1.094.031 1.25.031v-.25H3.03c-.703 0-.703-.094-.703-.328zm0 0"/></symbol></defs><use xlink:href="#f" x="223.432" y="134.765" width="1052.362" height="744.094"/><use xlink:href="#g" x="227.03" y="136.259" width="1052.362" height="744.094"/></g><g transform="matrix(3.4978 0 0 3.4978 -117.46 -61.972)" ns0:preamble="/home/waldgeist/data/homepage/inkscape-preamble.tex" ns0:text="$t_2$"><defs><symbol id="h" overflow="visible"><path d="M2.047-3.984h.937c.204 0 .313 0 .313-.204 0-.109-.11-.109-.281-.109H2.14c.359-1.422.406-1.61.406-1.672 0-.172-.125-.265-.297-.265-.031 0-.313 0-.39.359l-.391 1.578H.53c-.203 0-.297 0-.297.188 0 .125.078.125.282.125h.875C.67-1.156.625-.984.625-.813c0 .547.375.922.922.922 1.016 0 1.578-1.453 1.578-1.53 0-.11-.078-.11-.11-.11-.093 0-.109.031-.156.14C2.438-.344 1.906-.109 1.563-.109c-.204 0-.313-.125-.313-.454 0-.25.031-.312.063-.484zm0 0"/></symbol><symbol id="i" overflow="visible"><path d="M3.516-1.266H3.28c-.015.157-.094.563-.187.625-.047.047-.578.047-.688.047H1.125c.734-.64.984-.844 1.39-1.172.516-.406 1-.843 1-1.5 0-.843-.734-1.359-1.624-1.359-.86 0-1.454.61-1.454 1.25 0 .344.297.39.376.39.156 0 .359-.124.359-.374 0-.125-.047-.375-.406-.375.218-.485.687-.641 1.015-.641.703 0 1.063.547 1.063 1.11 0 .609-.438 1.078-.656 1.328L.516-.266C.437-.203.437-.187.437 0h2.876zm0 0"/></symbol></defs><use y="134.765" x="223.432" xlink:href="#h" width="1052.362" height="744.094"/><use y="136.259" x="227.03" xlink:href="#i" width="1052.362" height="744.094"/></g><path transform="matrix(4.75828 -.58473 -.58547 -4.76438 -626.427 1178.21)" d="M219.345 175.378a36.21 36.21 0 0 1-9.883 4.037" style="marker:none" color="#000" fill="none" stroke="#000" stroke-width=".417" stroke-linecap="round" stroke-linejoin="round" marker-end="url(#a)" overflow="visible"/><g transform="matrix(3.4978 0 0 3.4978 -467.935 -134.784)" ns0:preamble="/home/waldgeist/data/homepage/inkscape-preamble.tex" ns0:text="$\\varphi_1 \\! = \\! \\omega \\! \\cdot \\! t_1$" fill="#00f"><defs><symbol id="j" overflow="visible"><path d="M1.688 1.688c-.032.14-.047.156-.047.203 0 .218.187.28.296.28a.413.413 0 0 0 .36-.265c.031-.078.078-.406.36-1.812.077 0 .155.015.327.015 1.657 0 3.188-1.562 3.188-3.14 0-.781-.39-1.375-1.14-1.375-1.438 0-2.048 1.937-2.641 3.875C1.312-.734.75-1.281.75-2c0-.281.234-1.375.828-2.063.094-.093.094-.109.094-.14 0-.031-.031-.094-.125-.094C1.266-4.297.5-2.844.5-1.89c0 .938.656 1.657 1.719 1.907zM3.077-.47c-.094 0-.11 0-.187-.015-.125 0-.125 0-.125-.032 0-.015.171-.937.187-1.078.313-1.281 1.094-2.234 1.985-2.234.687 0 .953.531.953 1.015 0 1.126-1.282 2.344-2.813 2.344zm0 0"/></symbol><symbol id="m" overflow="visible"><path d="M6.031-3.703c0-.453-.172-.703-.406-.703-.25 0-.516.234-.516.468 0 .094.047.204.141.297.172.157.36.422.36.844 0 .39-.204.969-.5 1.422-.298.422-.673.766-1.141.766-.563 0-.875-.36-.969-.891.11-.266.344-.906.344-1.188 0-.109-.047-.218-.188-.218-.078 0-.187.031-.265.172-.11.203-.235.843-.235 1.203-.328.468-.719.922-1.344.922-.671 0-.875-.594-.875-1.141 0-1.25 1.016-2.297 1.016-2.422a.18.18 0 0 0-.187-.187c-.125 0-.204.125-.266.218-.5.735-.875 1.922-.875 2.829C.125-.625.344.109 1.172.109c.703 0 1.172-.5 1.531-1.046.094.578.485 1.046 1.094 1.046.781 0 1.25-.609 1.61-1.359.25-.484.624-1.844.624-2.453zm0 0"/></symbol><symbol id="o" overflow="visible"><path d="M2.047-3.984h.937c.204 0 .313 0 .313-.204 0-.109-.11-.109-.281-.109H2.14c.359-1.422.406-1.61.406-1.672 0-.172-.125-.265-.297-.265-.031 0-.313 0-.39.359l-.391 1.578H.53c-.203 0-.297 0-.297.188 0 .125.078.125.282.125h.875C.67-1.156.625-.984.625-.813c0 .547.375.922.922.922 1.016 0 1.578-1.453 1.578-1.53 0-.11-.078-.11-.11-.11-.093 0-.109.031-.156.14C2.438-.344 1.906-.109 1.563-.109c-.204 0-.313-.125-.313-.454 0-.25.031-.312.063-.484zm0 0"/></symbol><symbol id="k" overflow="visible"><path d="M2.328-4.438c0-.187 0-.187-.203-.187-.453.438-1.078.438-1.36.438v.25c.157 0 .626 0 1-.188v3.547c0 .234 0 .328-.687.328H.812V0c.125 0 .985-.031 1.235-.031.219 0 1.094.031 1.25.031v-.25H3.03c-.703 0-.703-.094-.703-.328zm0 0"/></symbol><symbol id="l" overflow="visible"><path d="M6.844-3.266c.156 0 .343 0 .343-.187 0-.203-.187-.203-.328-.203H.891c-.141 0-.329 0-.329.203 0 .187.188.187.329.187zm.015 1.938c.141 0 .329 0 .329-.203 0-.188-.188-.188-.344-.188H.89c-.141 0-.329 0-.329.188 0 .203.188.203.329.203zm0 0"/></symbol><symbol id="n" overflow="visible"><path d="M1.906-2.5a.524.524 0 1 0-.516.531.524.524 0 0 0 .516-.531zm0 0"/></symbol></defs><use y="134.765" x="223.432" xlink:href="#j" width="1052.362" height="744.094"/><use y="136.259" x="229.949" xlink:href="#k" width="1052.362" height="744.094"/><use y="134.765" x="235.526" xlink:href="#l" width="1052.362" height="744.094"/><use y="134.765" x="244.381" xlink:href="#m" width="1052.362" height="744.094"/><use y="134.765" x="251.494" xlink:href="#n" width="1052.362" height="744.094"/><use y="134.765" x="254.814" xlink:href="#o" width="1052.362" height="744.094"/><use y="136.259" x="258.412" xlink:href="#k" width="1052.362" height="744.094"/></g><g><path style="marker:none" opacity=".5" color="#000" fill="#fff" fill-rule="evenodd" stroke="#fff" stroke-width="1.5" overflow="visible" d="M220.181 294.033h50.341v32.88h-50.34z"/><g ns0:text="$\\varphi_2$" ns0:preamble="/home/waldgeist/data/homepage/inkscape-preamble.tex" transform="matrix(3.4978 0 0 3.4978 -554.59 -157.001)" fill="purple"><defs><symbol overflow="visible" id="p"><path d="M1.688 1.688c-.032.14-.047.156-.047.203 0 .218.187.28.296.28a.413.413 0 0 0 .36-.265c.031-.078.078-.406.36-1.812.077 0 .155.015.327.015 1.657 0 3.188-1.562 3.188-3.14 0-.781-.39-1.375-1.14-1.375-1.438 0-2.048 1.937-2.641 3.875C1.312-.734.75-1.281.75-2c0-.281.234-1.375.828-2.063.094-.093.094-.109.094-.14 0-.031-.031-.094-.125-.094C1.266-4.297.5-2.844.5-1.89c0 .938.656 1.657 1.719 1.907zM3.077-.47c-.094 0-.11 0-.187-.015-.125 0-.125 0-.125-.032 0-.015.171-.937.187-1.078.313-1.281 1.094-2.234 1.985-2.234.687 0 .953.531.953 1.015 0 1.126-1.282 2.344-2.813 2.344zm0 0"/></symbol><symbol overflow="visible" id="q"><path d="M3.516-1.266H3.28c-.015.157-.094.563-.187.625-.047.047-.578.047-.688.047H1.125c.734-.64.984-.844 1.39-1.172.516-.406 1-.843 1-1.5 0-.843-.734-1.359-1.624-1.359-.86 0-1.454.61-1.454 1.25 0 .344.297.39.376.39.156 0 .359-.124.359-.374 0-.125-.047-.375-.406-.375.218-.485.687-.641 1.015-.641.703 0 1.063.547 1.063 1.11 0 .609-.438 1.078-.656 1.328L.516-.266C.437-.203.437-.187.437 0h2.876zm0 0"/></symbol></defs><use height="744.094" width="1052.362" xlink:href="#p" x="223.432" y="134.765"/><use height="744.094" width="1052.362" xlink:href="#q" x="229.949" y="136.259"/></g></g></svg>