<svg xmlns:ns0="http://www.iki.fi/pav/software/textext/" xmlns="http://www.w3.org/2000/svg" xmlns:xlink="http://www.w3.org/1999/xlink" width="793.701" height="1122.52" viewBox="0 0 744.09448 1052.3622"><title>Überlagerung von Wellen -- Schwebung</title><defs><marker id="b" orient="auto" overflow="visible"><path d="M2.308 0l-3.46 2v-4z" fill-rule="evenodd" stroke="#000" stroke-width=".5332"/></marker></defs><g><g transform="translate(-575.239 128.115) scale(4.62289)" fill="green"><use height="1052.362" width="744.094" xlink:href="#textext-082fa4b4-3" x="231.736" y="134.765"/><use height="1052.362" width="744.094" xlink:href="#textext-082fa4b4-3" x="231.736" y="134.765"/><g ns0:text="$\\Delta \\vec{r} = \\vec{r}_{\\rm{2}} - \\vec{r}_{\\rm{1}} $" ns0:preamble="/home/waldgeist/data/sphinx/test.tex"><use height="1052.362" width="744.094" xlink:href="#textext-082fa4b4-0" x="223.432" y="134.765"/><use height="1052.362" width="744.094" xlink:href="#textext-082fa4b4-2" x="231.417" y="134.765"/><use height="1052.362" width="744.094" xlink:href="#textext-082fa4b4-3" x="231.736" y="134.765"/><use height="1052.362" width="744.094" xlink:href="#textext-082fa4b4-1" x="239.273" y="134.765"/><use height="1052.362" width="744.094" xlink:href="#textext-082fa4b4-2" x="249.472" y="134.765"/><use height="1052.362" width="744.094" xlink:href="#textext-082fa4b4-3" x="249.791" y="134.765"/><use height="1052.362" width="744.094" xlink:href="#textext-082fa4b4-4" x="254.284" y="136.259"/><use height="1052.362" width="744.094" xlink:href="#textext-082fa4b4-6" x="260.967" y="134.765"/><use height="1052.362" width="744.094" xlink:href="#textext-082fa4b4-2" x="270.612" y="134.765"/><use height="1052.362" width="744.094" xlink:href="#textext-082fa4b4-3" x="270.931" y="134.765"/><use height="1052.362" width="744.094" xlink:href="#textext-082fa4b4-5" x="275.425" y="136.259"/></g><g ns0:text="$\\Delta \\vec{r} = \\vec{r}_{\\rm{2}} - \\vec{r}_{\\rm{1}} $" ns0:preamble="/home/waldgeist/data/sphinx/test.tex"><use height="1052.362" width="744.094" xlink:href="#textext-082fa4b4-0" x="223.432" y="134.765"/><use height="1052.362" width="744.094" xlink:href="#textext-082fa4b4-2" x="231.417" y="134.765"/><use height="1052.362" width="744.094" xlink:href="#textext-082fa4b4-3" x="231.736" y="134.765"/><use height="1052.362" width="744.094" xlink:href="#textext-082fa4b4-1" x="239.273" y="134.765"/><use height="1052.362" width="744.094" xlink:href="#textext-082fa4b4-2" x="249.472" y="134.765"/><use height="1052.362" width="744.094" xlink:href="#textext-082fa4b4-3" x="249.791" y="134.765"/><use height="1052.362" width="744.094" xlink:href="#textext-082fa4b4-4" x="254.284" y="136.259"/><use height="1052.362" width="744.094" xlink:href="#textext-082fa4b4-6" x="260.967" y="134.765"/><use height="1052.362" width="744.094" xlink:href="#textext-082fa4b4-2" x="270.612" y="134.765"/><use height="1052.362" width="744.094" xlink:href="#textext-082fa4b4-3" x="270.931" y="134.765"/><use height="1052.362" width="744.094" xlink:href="#textext-082fa4b4-5" x="275.425" y="136.259"/></g><g ns0:text="$\\Delta \\vec{r} = \\vec{r}_{\\rm{2}} - \\vec{r}_{\\rm{1}} $" ns0:preamble="/home/waldgeist/data/sphinx/test.tex"><use height="1052.362" width="744.094" xlink:href="#textext-082fa4b4-0" x="223.432" y="134.765"/><use height="1052.362" width="744.094" xlink:href="#textext-082fa4b4-2" x="231.417" y="134.765"/><use height="1052.362" width="744.094" xlink:href="#textext-082fa4b4-3" x="231.736" y="134.765"/><use height="1052.362" width="744.094" xlink:href="#textext-082fa4b4-1" x="239.273" y="134.765"/><use height="1052.362" width="744.094" xlink:href="#textext-082fa4b4-2" x="249.472" y="134.765"/><use height="1052.362" width="744.094" xlink:href="#textext-082fa4b4-3" x="249.791" y="134.765"/><use height="1052.362" width="744.094" xlink:href="#textext-082fa4b4-4" x="254.284" y="136.259"/><use height="1052.362" width="744.094" xlink:href="#textext-082fa4b4-6" x="260.967" y="134.765"/><use height="1052.362" width="744.094" xlink:href="#textext-082fa4b4-2" x="270.612" y="134.765"/><use height="1052.362" width="744.094" xlink:href="#textext-082fa4b4-3" x="270.931" y="134.765"/><use height="1052.362" width="744.094" xlink:href="#textext-082fa4b4-5" x="275.425" y="136.259"/></g></g><path fill="#fff" stroke="#fff" stroke-width="2.949" stroke-linecap="round" d="M3.84 153.566h736.414v745.23H3.84z"/><g stroke="#ccc" stroke-width="1.019" fill="none"><g stroke-width="2.509"><path d="M132.92 227.272V825.09M192.702 227.272V825.09M252.484 227.272V825.09M312.266 227.272V825.09M372.047 227.272V825.09M431.829 227.272V825.09M491.61 227.272V825.09M551.392 227.272V825.09M611.174 227.272V825.09" stroke-width="1.49993038"/></g><g stroke-width="2.509"><path d="M73.139 287.054h597.817M73.139 346.836h597.817M73.139 406.618h597.817M73.139 466.4h597.817M73.139 526.181h597.817M73.139 585.963h597.817M73.139 645.745h597.817M73.139 705.526h597.817M73.139 765.308h597.817" stroke-width="1.49993038"/></g><g stroke-width=".836"><path d="M79.117 227.272V825.09M85.095 227.272V825.09M91.073 227.272V825.09M97.051 227.272V825.09M103.03 227.272V825.09M109.008 227.272V825.09M114.986 227.272V825.09M120.964 227.272V825.09M126.942 227.272V825.09M138.899 227.272V825.09M144.877 227.272V825.09M150.855 227.272V825.09M156.833 227.272V825.09M162.811 227.272V825.09M168.79 227.272V825.09M174.768 227.272V825.09M180.746 227.272V825.09M186.724 227.272V825.09M198.68 227.272V825.09M204.658 227.272V825.09M210.637 227.272V825.09M216.615 227.272V825.09M222.593 227.272V825.09M228.571 227.272V825.09M234.55 227.272V825.09M240.527 227.272V825.09M246.506 227.272V825.09M258.462 227.272V825.09M264.44 227.272V825.09M270.418 227.272V825.09M276.396 227.272V825.09M282.375 227.272V825.09M288.353 227.272V825.09M294.331 227.272V825.09M300.31 227.272V825.09M306.287 227.272V825.09M318.244 227.272V825.09M324.222 227.272V825.09M330.2 227.272V825.09M336.178 227.272V825.09M342.156 227.272V825.09M348.135 227.272V825.09M354.113 227.272V825.09M360.09 227.272V825.09M366.07 227.272V825.09M378.025 227.272V825.09M384.004 227.272V825.09M389.982 227.272V825.09M395.96 227.272V825.09M401.938 227.272V825.09M407.916 227.272V825.09M413.894 227.272V825.09M419.873 227.272V825.09M425.85 227.272V825.09M437.807 227.272V825.09M443.785 227.272V825.09M449.763 227.272V825.09M455.742 227.272V825.09M461.72 227.272V825.09M467.698 227.272V825.09M473.676 227.272V825.09M479.654 227.272V825.09M485.633 227.272V825.09M497.589 227.272V825.09M503.567 227.272V825.09M509.545 227.272V825.09M515.523 227.272V825.09M521.502 227.272V825.09M527.48 227.272V825.09M533.458 227.272V825.09M539.436 227.272V825.09M545.414 227.272V825.09M557.37 227.272V825.09M563.349 227.272V825.09M569.327 227.272V825.09M575.305 227.272V825.09M581.283 227.272V825.09M587.261 227.272V825.09M593.24 227.272V825.09M599.218 227.272V825.09M605.196 227.272V825.09M617.152 227.272V825.09M623.13 227.272V825.09M629.109 227.272V825.09M635.087 227.272V825.09M641.065 227.272V825.09M647.043 227.272V825.09M653.021 227.272V825.09M659 227.272V825.09M664.978 227.272V825.09" stroke-width=".49977752"/></g><g stroke-width=".836"><path d="M73.139 233.25h597.817M73.139 239.229h597.817M73.139 245.207h597.817M73.139 251.185h597.817M73.139 257.163h597.817M73.139 263.141h597.817M73.139 269.12h597.817M73.139 275.098h597.817M73.139 281.076h597.817M73.139 293.032h597.817M73.139 299.01h597.817M73.139 304.989h597.817M73.139 310.967h597.817M73.139 316.945h597.817M73.139 322.923h597.817M73.139 328.901h597.817M73.139 334.88h597.817M73.139 340.858h597.817M73.139 352.814h597.817M73.139 358.792h597.817M73.139 364.77h597.817M73.139 370.749h597.817M73.139 376.727h597.817M73.139 382.705h597.817M73.139 388.683h597.817M73.139 394.661h597.817M73.139 400.64h597.817M73.139 412.596h597.817M73.139 418.574h597.817M73.139 424.552h597.817M73.139 430.53h597.817M73.139 436.508h597.817M73.139 442.487h597.817M73.139 448.465h597.817M73.139 454.443h597.817M73.139 460.421h597.817M73.139 472.378h597.817M73.139 478.356h597.817M73.139 484.334h597.817M73.139 490.312h597.817M73.139 496.29h597.817M73.139 502.268h597.817M73.139 508.247h597.817M73.139 514.225h597.817M73.139 520.203h597.817M73.139 532.16h597.817M73.139 538.137h597.817M73.139 544.116h597.817M73.139 550.094h597.817M73.139 556.072h597.817M73.139 562.05h597.817M73.139 568.028h597.817M73.139 574.006h597.817M73.139 579.985h597.817M73.139 591.941h597.817M73.139 597.92h597.817M73.139 603.897h597.817M73.139 609.875h597.817M73.139 615.854h597.817M73.139 621.832h597.817M73.139 627.81h597.817M73.139 633.788h597.817M73.139 639.766h597.817M73.139 651.723h597.817M73.139 657.7h597.817M73.139 663.679h597.817M73.139 669.657h597.817M73.139 675.635h597.817M73.139 681.614h597.817M73.139 687.592h597.817M73.139 693.57h597.817M73.139 699.548h597.817M73.139 711.504h597.817M73.139 717.483h597.817M73.139 723.46h597.817M73.139 729.439h597.817M73.139 735.417h597.817M73.139 741.395h597.817M73.139 747.373h597.817M73.139 753.352h597.817M73.139 759.33h597.817M73.139 771.286h597.817M73.139 777.264h597.817M73.139 783.242h597.817M73.139 789.22h597.817M73.139 795.199h597.817M73.139 801.177h597.817M73.139 807.155h597.817M73.139 813.133h597.817M73.139 819.112h597.817" stroke-width=".49977752"/></g><path stroke-width="1.49993038" d="M73.139 227.272h597.817V825.09H73.139z"/></g><use height="1052.362" width="744.094" transform="rotate(-90 372.047 526.181)" xlink:href="#a"/><path d="M354.076 182.503c.192-.575.192-.639.192-.958 0-.703-.575-1.086-1.214-1.086-.384 0-1.022.255-1.406.83-.064.256-.447 1.47-.575 2.237-.32 1.022-.575 2.172-.83 3.258l-1.853 7.348c-.128.575-1.917 3.45-4.6 3.45-2.045 0-2.492-1.79-2.492-3.323 0-1.853.703-4.408 2.044-7.986.64-1.661.83-2.108.83-2.939 0-1.789-1.277-3.322-3.321-3.322-3.898 0-5.367 5.941-5.367 6.261 0 .447.383.447.447.447.447 0 .447-.128.639-.767 1.15-3.833 2.747-5.047 4.153-5.047.32 0 1.022 0 1.022 1.278 0 1.022-.447 2.108-.703 2.875-1.66 4.345-2.364 6.645-2.364 8.561 0 3.642 2.556 4.856 4.984 4.856 1.597 0 2.939-.703 4.089-1.853-.511 2.109-1.022 4.153-2.62 6.326-1.086 1.341-2.62 2.555-4.472 2.555-.575 0-2.428-.128-3.13-1.725.638 0 1.213 0 1.724-.511.448-.32.83-.895.83-1.661 0-1.278-1.085-1.406-1.469-1.406-.958 0-2.3.64-2.3 2.62 0 2.044 1.79 3.578 4.345 3.578 4.153 0 8.37-3.706 9.52-8.306zm0 0"/><g fill="none" stroke="#000" stroke-width=".948" stroke-linecap="round"><path d="M384.207 406.674h-24.32M384.207 346.892h-24.32M384.207 287.11h-24.32M384.207 227.329h-24.32M384.207 586.02h-24.32M384.207 645.8h-24.32M384.207 705.583h-24.32M384.207 765.364h-24.32M384.207 825.146h-24.32" stroke-width="1.55896704"/></g><path d="M381.927 466.456h-23.913" fill="none" stroke="#000" stroke-width="2" stroke-linecap="round"/><path d="M713.62 550.09c.256-1.023 1.214-4.793 4.025-4.793.192 0 1.214 0 2.045.511-1.15.256-1.917 1.214-1.917 2.237 0 .638.447 1.405 1.533 1.405.895 0 2.173-.703 2.173-2.364 0-2.108-2.364-2.683-3.77-2.683-2.364 0-3.77 2.172-4.28 3.067-1.023-2.684-3.195-3.067-4.409-3.067-4.217 0-6.58 5.239-6.58 6.261 0 .447.446.447.51.447.32 0 .448-.127.511-.447 1.406-4.345 4.09-5.367 5.495-5.367.767 0 2.172.384 2.172 2.748 0 1.277-.702 3.96-2.172 9.711-.639 2.492-2.108 4.217-3.897 4.217-.256 0-1.15 0-2.045-.511 1.023-.256 1.917-1.086 1.917-2.237 0-1.086-.894-1.405-1.47-1.405-1.277 0-2.236 1.022-2.236 2.364 0 1.853 1.98 2.683 3.77 2.683 2.747 0 4.217-2.875 4.28-3.067.512 1.47 1.981 3.067 4.41 3.067 4.216 0 6.516-5.239 6.516-6.261 0-.447-.32-.447-.447-.447-.384 0-.448.191-.575.447-1.342 4.408-4.09 5.367-5.367 5.367-1.597 0-2.236-1.278-2.236-2.684 0-.894.191-1.789.639-3.578zm0 0"/><path d="M25.933 526.181h686.055" id="a" fill="none" stroke="#000" stroke-width="3" stroke-linecap="round" marker-end="url(#b)"/><path id="c" d="M431.829 513.912v23.912" fill="none" stroke="#000" stroke-width="2" stroke-linecap="round"/><use xlink:href="#c" transform="translate(59.782 -.483)" width="744.094" height="1052.362" stroke-linecap="round"/><use xlink:href="#c" transform="translate(119.563)" width="744.094" height="1052.362" stroke-linecap="round"/><use xlink:href="#c" transform="translate(179.345)" width="744.094" height="1052.362" stroke-linecap="round"/><use xlink:href="#c" transform="translate(-239.127 -.604)" width="744.094" height="1052.362" stroke-linecap="round"/><use xlink:href="#c" transform="translate(-298.909 -.483)" width="744.094" height="1052.362" stroke-linecap="round"/><use xlink:href="#c" transform="translate(-358.69)" width="744.094" height="1052.362" stroke-linecap="round"/><use height="1052.362" width="744.094" transform="translate(-179.345 -.248)" xlink:href="#c" stroke-linecap="round"/><use height="744.094" width="1052.362" transform="translate(-119.563 -.063)" xlink:href="#c" stroke-linecap="round"/><use height="744.094" width="1052.362" transform="translate(239.127 -.667)" xlink:href="#c" stroke-linecap="round"/><g fill="#4d4d4d" stroke="green" stroke-width="1.18"><g ns0:text="$1$" ns0:preamble="/home/waldgeist/data/sphinx/test.tex" transform="matrix(2.5424 0 0 2.5424 -142.737 216.068)"><defs><symbol overflow="visible" id="d"><path d="M2.938-6.375c0-.25 0-.266-.235-.266C2.078-6 1.203-6 .891-6v.313c.203 0 .78 0 1.296-.266v5.172c0 .36-.03.469-.921.469H.953V0c.344-.031 1.203-.031 1.61-.031.39 0 1.265 0 1.609.031v-.313h-.313c-.906 0-.921-.109-.921-.468zm0 0" stroke="none"/></symbol></defs><use xlink:href="#d" x="223.432" y="134.765" width="744.094" height="1052.362"/></g><g transform="matrix(2.5424 0 0 2.5424 -282.255 216.068)" ns0:preamble="/home/waldgeist/data/sphinx/test.tex" ns0:text="$-1$"><defs><symbol id="e" overflow="visible"><path d="M6.563-2.297c.171 0 .359 0 .359-.203 0-.188-.188-.188-.36-.188h-5.39c-.172 0-.344 0-.344.188 0 .203.172.203.344.203zm0 0" stroke="none"/></symbol><symbol id="f" overflow="visible"><path d="M2.938-6.375c0-.25 0-.266-.235-.266C2.078-6 1.203-6 .891-6v.313c.203 0 .78 0 1.296-.266v5.172c0 .36-.03.469-.921.469H.953V0c.344-.031 1.203-.031 1.61-.031.39 0 1.265 0 1.609.031v-.313h-.313c-.906 0-.921-.109-.921-.468zm0 0" stroke="none"/></symbol></defs><use y="134.765" x="223.432" xlink:href="#e" width="744.094" height="1052.362"/><use y="134.765" x="231.181" xlink:href="#f" width="744.094" height="1052.362"/></g><g ns0:text="$-2$" ns0:preamble="/home/waldgeist/data/sphinx/test.tex" transform="matrix(2.5424 0 0 2.5424 -342.048 216.068)"><defs><symbol overflow="visible" id="g"><path d="M6.563-2.297c.171 0 .359 0 .359-.203 0-.188-.188-.188-.36-.188h-5.39c-.172 0-.344 0-.344.188 0 .203.172.203.344.203zm0 0" stroke="none"/></symbol><symbol overflow="visible" id="h"><path d="M1.266-.766l1.062-1.03c1.547-1.376 2.14-1.907 2.14-2.907 0-1.14-.89-1.938-2.109-1.938C1.234-6.64.5-5.719.5-4.828c0 .547.5.547.531.547.172 0 .516-.11.516-.532a.513.513 0 0 0-.531-.515c-.079 0-.094 0-.125.016.218-.657.765-1.016 1.343-1.016.907 0 1.329.812 1.329 1.625 0 .797-.485 1.578-1.047 2.203L.609-.375C.5-.265.5-.235.5 0h3.703l.266-1.734h-.235C4.172-1.438 4.11-1 4-.844c-.063.078-.719.078-.938.078zm0 0" stroke="none"/></symbol></defs><use height="1052.362" width="744.094" xlink:href="#g" x="223.432" y="134.765"/><use height="1052.362" width="744.094" xlink:href="#h" x="231.181" y="134.765"/></g><g transform="matrix(2.5424 0 0 2.5424 -401.359 215.79)" ns0:preamble="/home/waldgeist/data/sphinx/test.tex" ns0:text="$-3$"><defs><symbol id="i" overflow="visible"><path d="M6.563-2.297c.171 0 .359 0 .359-.203 0-.188-.188-.188-.36-.188h-5.39c-.172 0-.344 0-.344.188 0 .203.172.203.344.203zm0 0" stroke="none"/></symbol><symbol id="j" overflow="visible"><path d="M2.89-3.516c.813-.265 1.391-.953 1.391-1.75 0-.812-.875-1.375-1.828-1.375-1 0-1.765.594-1.765 1.36 0 .328.218.515.515.515.297 0 .5-.218.5-.515 0-.485-.469-.485-.61-.485.298-.5.954-.625 1.313-.625.422 0 .969.22.969 1.11 0 .125-.031.703-.281 1.14-.297.485-.64.516-.89.516a3.29 3.29 0 0 1-.392.031c-.078.016-.14.031-.14.125 0 .11.062.11.234.11h.438c.812 0 1.187.671 1.187 1.656 0 1.36-.687 1.64-1.125 1.64-.437 0-1.187-.171-1.531-.75.344.047.656-.171.656-.546a.537.537 0 0 0-.547-.563c-.25 0-.562.14-.562.578C.422-.437 1.344.22 2.437.22c1.22 0 2.126-.906 2.126-1.922 0-.813-.641-1.594-1.672-1.813zm0 0" stroke="none"/></symbol></defs><use y="134.765" x="223.432" xlink:href="#i" width="744.094" height="1052.362"/><use y="134.765" x="231.181" xlink:href="#j" width="744.094" height="1052.362"/></g><g ns0:text="$-4$" ns0:preamble="/home/waldgeist/data/sphinx/test.tex" transform="matrix(2.5424 0 0 2.5424 -463.447 216.207)"><defs><symbol overflow="visible" id="k"><path d="M6.563-2.297c.171 0 .359 0 .359-.203 0-.188-.188-.188-.36-.188h-5.39c-.172 0-.344 0-.344.188 0 .203.172.203.344.203zm0 0" stroke="none"/></symbol><symbol overflow="visible" id="l"><path d="M2.938-1.64v.859c0 .36-.032.469-.766.469h-.203V0c.406-.031.922-.031 1.343-.031.422 0 .938 0 1.36.031v-.313h-.219c-.734 0-.75-.109-.75-.468v-.86h.985v-.312h-.985v-4.531c0-.204 0-.266-.172-.266-.078 0-.11 0-.187.125L.28-1.953v.312zm.046-.313H.563l2.421-3.719zm0 0" stroke="none"/></symbol></defs><use xlink:href="#k" x="223.432" y="134.765" width="744.094" height="1052.362"/><use xlink:href="#l" x="231.181" y="134.765" width="744.094" height="1052.362"/></g><g transform="matrix(2.5424 0 0 2.5424 -520.945 215.79)" ns0:preamble="/home/waldgeist/data/sphinx/test.tex" ns0:text="$-5$"><defs><symbol id="m" overflow="visible"><path d="M6.563-2.297c.171 0 .359 0 .359-.203 0-.188-.188-.188-.36-.188h-5.39c-.172 0-.344 0-.344.188 0 .203.172.203.344.203zm0 0" stroke="none"/></symbol><symbol id="n" overflow="visible"><path d="M4.469-2c0-1.188-.813-2.188-1.89-2.188-.47 0-.907.157-1.267.516v-1.953c.204.063.532.125.844.125 1.235 0 1.938-.906 1.938-1.031 0-.063-.032-.11-.11-.11 0 0-.03 0-.078.032a3.22 3.22 0 0 1-1.36.296c-.39 0-.858-.078-1.327-.28-.078-.032-.094-.032-.11-.032C1-6.625 1-6.547 1-6.391v2.954c0 .171 0 .25.14.25.079 0 .094-.016.141-.079.11-.156.469-.703 1.282-.703.515 0 .765.453.843.64.156.376.188.75.188 1.25 0 .36 0 .954-.25 1.376-.235.39-.61.64-1.063.64-.719 0-1.297-.53-1.469-1.109.032 0 .063.016.172.016.329 0 .5-.25.5-.485 0-.25-.171-.5-.5-.5-.14 0-.484.079-.484.532C.5-.75 1.188.219 2.297.219 3.453.219 4.469-.734 4.469-2zm0 0" stroke="none"/></symbol></defs><use y="134.765" x="223.432" xlink:href="#m" width="744.094" height="1052.362"/><use y="134.765" x="231.181" xlink:href="#n" width="744.094" height="1052.362"/></g><g ns0:text="$2$" ns0:preamble="/home/waldgeist/data/sphinx/test.tex" transform="matrix(2.5424 0 0 2.5424 -82.823 216.068)"><defs><symbol overflow="visible" id="o"><path d="M1.266-.766l1.062-1.03c1.547-1.376 2.14-1.907 2.14-2.907 0-1.14-.89-1.938-2.109-1.938C1.234-6.64.5-5.719.5-4.828c0 .547.5.547.531.547.172 0 .516-.11.516-.532a.513.513 0 0 0-.531-.515c-.079 0-.094 0-.125.016.218-.657.765-1.016 1.343-1.016.907 0 1.329.812 1.329 1.625 0 .797-.485 1.578-1.047 2.203L.609-.375C.5-.265.5-.235.5 0h3.703l.266-1.734h-.235C4.172-1.438 4.11-1 4-.844c-.063.078-.719.078-.938.078zm0 0" stroke="none"/></symbol></defs><use height="1052.362" width="744.094" transform="translate(-.019)" xlink:href="#o" x="223.432" y="134.765"/></g><g transform="matrix(2.5424 0 0 2.5424 -23.574 215.79)" ns0:preamble="/home/waldgeist/data/sphinx/test.tex" ns0:text="$3$"><defs><symbol id="p" overflow="visible"><path d="M2.89-3.516c.813-.265 1.391-.953 1.391-1.75 0-.812-.875-1.375-1.828-1.375-1 0-1.765.594-1.765 1.36 0 .328.218.515.515.515.297 0 .5-.218.5-.515 0-.485-.469-.485-.61-.485.298-.5.954-.625 1.313-.625.422 0 .969.22.969 1.11 0 .125-.031.703-.281 1.14-.297.485-.64.516-.89.516a3.29 3.29 0 0 1-.392.031c-.078.016-.14.031-.14.125 0 .11.062.11.234.11h.438c.812 0 1.187.671 1.187 1.656 0 1.36-.687 1.64-1.125 1.64-.437 0-1.187-.171-1.531-.75.344.047.656-.171.656-.546a.537.537 0 0 0-.547-.563c-.25 0-.562.14-.562.578C.422-.437 1.344.22 2.437.22c1.22 0 2.126-.906 2.126-1.922 0-.813-.641-1.594-1.672-1.813zm0 0" stroke="none"/></symbol></defs><use y="134.765" x="223.432" xlink:href="#p" width="744.094" height="1052.362"/></g><g ns0:text="$4$" ns0:preamble="/home/waldgeist/data/sphinx/test.tex" transform="matrix(2.5424 0 0 2.5424 34.529 216.207)"><defs><symbol overflow="visible" id="q"><path d="M2.938-1.64v.859c0 .36-.032.469-.766.469h-.203V0c.406-.031.922-.031 1.343-.031.422 0 .938 0 1.36.031v-.313h-.219c-.734 0-.75-.109-.75-.468v-.86h.985v-.312h-.985v-4.531c0-.204 0-.266-.172-.266-.078 0-.11 0-.187.125L.28-1.953v.312zm.046-.313H.563l2.421-3.719zm0 0" stroke="none"/></symbol></defs><use height="1052.362" width="744.094" xlink:href="#q" x="223.432" y="134.765"/></g><g transform="matrix(2.5424 0 0 2.5424 96.496 215.79)" ns0:preamble="/home/waldgeist/data/sphinx/test.tex" ns0:text="$5$"><defs><symbol id="r" overflow="visible"><path d="M4.469-2c0-1.188-.813-2.188-1.89-2.188-.47 0-.907.157-1.267.516v-1.953c.204.063.532.125.844.125 1.235 0 1.938-.906 1.938-1.031 0-.063-.032-.11-.11-.11 0 0-.03 0-.078.032a3.22 3.22 0 0 1-1.36.296c-.39 0-.858-.078-1.327-.28-.078-.032-.094-.032-.11-.032C1-6.625 1-6.547 1-6.391v2.954c0 .171 0 .25.14.25.079 0 .094-.016.141-.079.11-.156.469-.703 1.282-.703.515 0 .765.453.843.64.156.376.188.75.188 1.25 0 .36 0 .954-.25 1.376-.235.39-.61.64-1.063.64-.719 0-1.297-.53-1.469-1.109.032 0 .063.016.172.016.329 0 .5-.25.5-.485 0-.25-.171-.5-.5-.5-.14 0-.484.079-.484.532C.5-.75 1.188.219 2.297.219 3.453.219 4.469-.734 4.469-2zm0 0" stroke="none"/></symbol></defs><use y="134.765" x="223.432" xlink:href="#r" width="744.094" height="1052.362"/></g></g><g fill="#4d4d4d" stroke="green" stroke-width="1.18"><g ns0:text="$-1$" ns0:preamble="/home/waldgeist/data/sphinx/test.tex"><use height="1052.362" width="744.094" xlink:href="#e" x="223.432" y="134.765" transform="matrix(2.5424 0 0 2.5424 -244.096 251.833)"/><use height="1052.362" width="744.094" xlink:href="#f" x="231.181" y="134.765" transform="matrix(2.5424 0 0 2.5424 -244.096 251.833)"/></g><g ns0:preamble="/home/waldgeist/data/sphinx/test.tex" ns0:text="$-2$"><use y="134.765" x="223.432" xlink:href="#g" width="744.094" height="1052.362" transform="matrix(2.5424 0 0 2.5424 -244.85 311.615)"/><use y="134.765" x="231.181" xlink:href="#h" width="744.094" height="1052.362" transform="matrix(2.5424 0 0 2.5424 -244.85 311.615)"/></g><g ns0:text="$-3$" ns0:preamble="/home/waldgeist/data/sphinx/test.tex"><use height="1052.362" width="744.094" xlink:href="#i" x="223.432" y="134.765" transform="matrix(2.5424 0 0 2.5424 -245.089 371.118)"/><use height="1052.362" width="744.094" xlink:href="#j" x="231.181" y="134.765" transform="matrix(2.5424 0 0 2.5424 -245.089 371.118)"/></g><g ns0:preamble="/home/waldgeist/data/sphinx/test.tex" ns0:text="$-4$"><use height="1052.362" width="744.094" y="134.765" x="223.432" xlink:href="#k" transform="matrix(2.5424 0 0 2.5424 -245.407 431.317)"/><use height="1052.362" width="744.094" y="134.765" x="231.181" xlink:href="#l" transform="matrix(2.5424 0 0 2.5424 -245.407 431.317)"/></g><g ns0:text="$-5$" ns0:preamble="/home/waldgeist/data/sphinx/test.tex"><use height="1052.362" width="744.094" xlink:href="#m" x="223.432" y="134.765" transform="matrix(2.5424 0 0 2.5424 -244.85 490.682)"/><use height="1052.362" width="744.094" xlink:href="#n" x="231.181" y="134.765" transform="matrix(2.5424 0 0 2.5424 -244.85 490.682)"/></g><use height="1052.362" width="744.094" y="134.765" x="223.432" xlink:href="#d" transform="matrix(2.5424 0 0 2.5424 -224.395 132.27)" ns0:preamble="/home/waldgeist/data/sphinx/test.tex" ns0:text="$1$"/><use y="134.765" x="223.432" xlink:href="#o" transform="matrix(2.5424 0 0 2.5424 -225.15 72.488)" width="744.094" height="1052.362" ns0:preamble="/home/waldgeist/data/sphinx/test.tex" ns0:text="$2$"/><use height="1052.362" width="744.094" xlink:href="#p" x="223.432" y="134.765" transform="matrix(2.5424 0 0 2.5424 -225.388 12.428)" ns0:text="$3$" ns0:preamble="/home/waldgeist/data/sphinx/test.tex"/><use y="134.765" x="223.432" xlink:href="#q" width="744.094" height="1052.362" transform="matrix(2.5424 0 0 2.5424 -225.706 -46.937)" ns0:preamble="/home/waldgeist/data/sphinx/test.tex" ns0:text="$4$"/><use height="1052.362" width="744.094" xlink:href="#r" x="223.432" y="134.765" transform="matrix(2.5424 0 0 2.5424 -225.15 -107.136)" ns0:text="$5$" ns0:preamble="/home/waldgeist/data/sphinx/test.tex"/></g><g transform="matrix(2.5422 0 0 2.5424 -172.863 60.503)" ns0:preamble="/home/waldgeist/data/sphinx/inkscape-preamble.tex" ns0:text="$y = \\text{sin}(9\\!\\cdot\\!x) \\!+\\! \\text{sin}(10\\!\\cdot\\!x)$" fill="green" stroke="green" stroke-width="1.18"><defs><symbol id="s" overflow="visible"><path d="M4.844-3.797c.047-.14.047-.156.047-.234 0-.172-.141-.266-.297-.266a.455.455 0 0 0-.344.203c-.016.063-.11.36-.14.547-.079.25-.141.531-.204.797L3.453-.953c-.031.14-.469.844-1.125.844-.5 0-.61-.438-.61-.813 0-.453.173-1.078.5-1.953.157-.406.204-.516.204-.719 0-.437-.313-.812-.813-.812-.953 0-1.312 1.453-1.312 1.531 0 .11.094.11.11.11.109 0 .109-.032.156-.188.28-.938.671-1.235 1.015-1.235.078 0 .25 0 .25.313 0 .25-.11.516-.172.703-.406 1.063-.578 1.625-.578 2.094 0 .89.625 1.187 1.219 1.187.39 0 .719-.171 1-.453-.125.516-.25 1.016-.64 1.547-.266.328-.641.625-1.095.625-.14 0-.593-.031-.765-.422.156 0 .297 0 .422-.125a.493.493 0 0 0 .203-.406c0-.313-.266-.344-.36-.344C.829.531.5.687.5 1.171c0 .5.438.876 1.063.876 1.015 0 2.046-.906 2.328-2.031zm0 0" stroke="none"/></symbol><symbol id="A" overflow="visible"><path d="M3.328-3.016c.063-.25.297-1.171.985-1.171.046 0 .296 0 .5.125a.578.578 0 0 0-.47.546c0 .157.11.344.376.344a.546.546 0 0 0 .531-.578c0-.516-.578-.656-.922-.656-.578 0-.922.531-1.047.75-.25-.656-.781-.75-1.078-.75-1.031 0-1.61 1.281-1.61 1.531 0 .11.11.11.126.11.078 0 .11-.032.125-.11.344-1.063 1-1.313 1.344-1.313.187 0 .53.094.53.672 0 .313-.171.97-.53 2.375-.157.61-.516 1.032-.954 1.032-.062 0-.28 0-.5-.125.25-.063.47-.266.47-.547 0-.266-.22-.344-.36-.344-.313 0-.547.25-.547.578 0 .453.484.656.922.656.672 0 1.031-.703 1.047-.75.125.36.484.75 1.078.75 1.031 0 1.594-1.28 1.594-1.53 0-.11-.079-.11-.11-.11-.094 0-.11.047-.14.11-.329 1.077-1 1.312-1.313 1.312-.39 0-.547-.313-.547-.657 0-.218.047-.437.156-.875zm0 0" stroke="none"/></symbol><symbol id="t" overflow="visible"><path d="M6.844-3.266c.156 0 .343 0 .343-.187 0-.203-.187-.203-.328-.203H.891c-.141 0-.329 0-.329.203 0 .187.188.187.329.187zm.015 1.938c.141 0 .329 0 .329-.203 0-.188-.188-.188-.344-.188H.89c-.141 0-.329 0-.329.188 0 .203.188.203.329.203zm0 0" stroke="none"/></symbol><symbol id="u" overflow="visible"><path d="M2.078-1.938c.219.047 1.031.204 1.031.922 0 .5-.343.907-1.125.907-.843 0-1.203-.563-1.39-1.422-.031-.125-.031-.157-.14-.157-.126 0-.126.063-.126.235v1.328c0 .172 0 .234.11.234C.483.11.5.094.688-.094.703-.109.703-.125.89-.312c.437.406.89.421 1.093.421 1.141 0 1.61-.671 1.61-1.39 0-.516-.297-.828-.422-.938-.328-.328-.719-.406-1.14-.484-.563-.11-1.22-.235-1.22-.813 0-.359.25-.765 1.11-.765 1.094 0 1.156.906 1.172 1.203 0 .094.094.094.11.094.14 0 .14-.047.14-.235v-1.015c0-.157 0-.235-.11-.235-.046 0-.078 0-.203.125-.031.032-.125.125-.172.157-.375-.282-.78-.282-.937-.282-1.219 0-1.594.672-1.594 1.235 0 .343.156.625.422.843.328.25.61.313 1.328.454zm0 0" stroke="none"/></symbol><symbol id="v" overflow="visible"><path d="M1.766-4.406l-1.391.11v.312c.64 0 .734.062.734.546V-.75c0 .438-.109.438-.78.438V0c.312-.016.859-.031 1.093-.031.36 0 .703.015 1.047.031v-.313c-.672 0-.703-.046-.703-.437zm.03-1.735a.514.514 0 0 0-.515-.53.537.537 0 0 0-.531.53c0 .266.219.532.531.532a.514.514 0 0 0 .516-.532zm0 0" stroke="none"/></symbol><symbol id="w" overflow="visible"><path d="M1.094-3.422V-.75c0 .438-.11.438-.782.438V0c.36-.016.86-.031 1.141-.031.25 0 .766.015 1.11.031v-.313c-.672 0-.782 0-.782-.437v-1.844c0-1.031.719-1.594 1.344-1.594.64 0 .75.532.75 1.11V-.75c0 .438-.11.438-.781.438V0c.344-.016.86-.031 1.125-.031.25 0 .781.015 1.11.031v-.313c-.516 0-.766 0-.766-.296v-1.907c0-.859 0-1.156-.313-1.515-.14-.172-.469-.375-1.047-.375-.734 0-1.203.422-1.484 1.047v-1.047l-1.407.11v.312c.704 0 .782.062.782.562zm0 0" stroke="none"/></symbol><symbol id="x" overflow="visible"><path d="M3.297 2.39c0-.03 0-.046-.172-.218C1.891.922 1.562-.968 1.562-2.5c0-1.734.375-3.469 1.61-4.703.125-.125.125-.14.125-.172 0-.078-.031-.11-.094-.11-.11 0-1 .688-1.594 1.954C1.11-4.438.984-3.328.984-2.5c0 .781.11 1.984.657 3.125C2.25 1.844 3.094 2.5 3.203 2.5c.063 0 .094-.031.094-.11zm0 0" stroke="none"/></symbol><symbol id="y" overflow="visible"><path d="M3.656-3.172v.328c0 2.328-1.031 2.781-1.61 2.781-.171 0-.718-.015-.983-.359.437 0 .515-.281.515-.453 0-.313-.234-.453-.453-.453-.156 0-.453.078-.453.469 0 .671.531 1.078 1.375 1.078 1.297 0 2.515-1.36 2.515-3.5 0-2.688-1.156-3.36-2.046-3.36-.547 0-1.032.188-1.454.625-.421.454-.64.875-.64 1.625 0 1.235.875 2.22 1.984 2.22.61 0 1.016-.423 1.25-1zm-1.234.766c-.156 0-.625 0-.922-.625-.188-.375-.188-.86-.188-1.36 0-.53 0-1 .22-1.375.265-.5.64-.625.984-.625.468 0 .796.344.968.782.11.328.157.953.157 1.406 0 .828-.344 1.797-1.22 1.797zm0 0" stroke="none"/></symbol><symbol id="B" overflow="visible"><path d="M2.875-2.5c0-.766-.11-1.969-.656-3.11C1.625-6.827.766-7.483.672-7.483a.107.107 0 0 0-.11.109c0 .031 0 .047.188.234.984.985 1.547 2.563 1.547 4.641 0 1.719-.36 3.469-1.594 4.719-.14.125-.14.14-.14.172 0 .062.046.109.109.109.094 0 1-.688 1.578-1.953.516-1.094.625-2.203.625-3.047zm0 0" stroke="none"/></symbol><symbol id="C" overflow="visible"><path d="M4.078-2.297H6.86c.141 0 .329 0 .329-.203 0-.188-.188-.188-.329-.188H4.08v-2.796c0-.141 0-.329-.204-.329-.203 0-.203.188-.203.329v2.796H.89c-.141 0-.329 0-.329.188 0 .203.188.203.329.203h2.78V.5c0 .14 0 .328.204.328.203 0 .203-.187.203-.328zm0 0" stroke="none"/></symbol><symbol id="D" overflow="visible"><path d="M2.938-6.375c0-.25 0-.266-.235-.266C2.078-6 1.203-6 .891-6v.313c.203 0 .78 0 1.296-.266v5.172c0 .36-.03.469-.921.469H.953V0c.344-.031 1.203-.031 1.61-.031.39 0 1.265 0 1.609.031v-.313h-.313c-.906 0-.921-.109-.921-.468zm0 0" stroke="none"/></symbol><symbol id="E" overflow="visible"><path d="M4.578-3.188c0-.796-.047-1.593-.39-2.328C3.733-6.484 2.905-6.64 2.5-6.64c-.61 0-1.328.266-1.75 1.188-.313.687-.36 1.469-.36 2.266 0 .75.032 1.64.454 2.406a1.83 1.83 0 0 0 1.64 1c.532 0 1.297-.203 1.735-1.157.312-.687.36-1.468.36-2.25zM2.484 0c-.39 0-.984-.25-1.156-1.203-.11-.594-.11-1.516-.11-2.11 0-.64 0-1.296.079-1.828.187-1.187.937-1.28 1.187-1.28.329 0 .985.187 1.172 1.171.11.563.11 1.313.11 1.938 0 .75 0 1.421-.11 2.062C3.5-.297 2.937 0 2.484 0zm0 0" stroke="none"/></symbol><symbol id="z" overflow="visible"><path d="M1.906-2.5a.524.524 0 1 0-.516.531.524.524 0 0 0 .516-.531zm0 0" stroke="none"/></symbol></defs><use y="134.765" x="223.432" xlink:href="#s" width="744.094" height="1052.362"/><use y="134.765" x="231.441" xlink:href="#t" width="744.094" height="1052.362"/><use y="134.765" x="241.96" xlink:href="#u" width="744.094" height="1052.362"/><use y="134.765" x="245.889" xlink:href="#v" width="744.094" height="1052.362"/><use y="134.765" x="248.656" xlink:href="#w" width="744.094" height="1052.362"/><use y="134.765" x="254.192" xlink:href="#x" width="744.094" height="1052.362"/><use y="134.765" x="258.066" xlink:href="#y" width="744.094" height="1052.362"/><use y="134.765" x="263.599" xlink:href="#z" width="744.094" height="1052.362"/><use y="134.765" x="266.919" xlink:href="#A" width="744.094" height="1052.362"/><use y="134.765" x="272.613" xlink:href="#B" width="744.094" height="1052.362"/><use y="134.765" x="277.045" xlink:href="#C" width="744.094" height="1052.362"/><g><use y="134.765" x="285.342" xlink:href="#u" width="744.094" height="1052.362"/><use y="134.765" x="289.271" xlink:href="#v" width="744.094" height="1052.362"/><use y="134.765" x="292.039" xlink:href="#w" width="744.094" height="1052.362"/><use y="134.765" x="297.574" xlink:href="#x" width="744.094" height="1052.362"/><use y="134.765" x="301.449" xlink:href="#D" width="744.094" height="1052.362"/><use y="134.765" x="306.43" xlink:href="#E" width="744.094" height="1052.362"/></g><g><use y="134.765" x="311.966" xlink:href="#z" width="744.094" height="1052.362"/></g><g><use y="134.765" x="315.287" xlink:href="#A" width="744.094" height="1052.362"/></g><g><use y="134.765" x="320.981" xlink:href="#B" width="744.094" height="1052.362"/></g></g><path d="M669.929 500.205l-1.804 26.006c-8 114.172-11.295 114.936-19.978 0-6.37-97.44-11.755-97.22-19.617 0-7.064 74.747-11.588 74.866-20.075 0-4.905-51.491-11.247-51.463-19.846 0-5.262 26.79-9.434 26.201-19.295 0-2.738-4.926-7.143-4.8-10.168 0-3.851 4.332-7.926 4.22-10.287 0-8.128-26.468-15.821-26.157-19.38 0-9.671 50.987-13.732 50.965-20.05 0-8.192-75.179-13.475-75.046-19.77 0-8.652 96.104-13.429 96.323-19.819 0-8.352-116.003-12.29-116.112-20.148 0-6.443 131.152-14.039 131.302-19.454-.03-6.44-144.087-14.807-143.422-20.16.03-7.207 151.48-12.502 152.02-19.505 0-6.512-157.492-13.628-157.413-19.615 0-8.535 155.923-12.735 156.16-20.14 0-8.348-152.414-12.179-152.905-19.838-.03-8.272 143.414-11.296 143.708-20.084 0-6.315-132.372-12.825-132.105-19.89 0-6.675 115.37-13.177 115.565-19.639 0-6.586-96.699-12.556-96.726-20.103.03-6.934 74.394-11.2 74.278-19.577 0-5.68-51.211-11.689-51.144-19.907-.03-5.245 26.244-8.637 26.398-19.531 0-1.981-4.65-7-4.816-10.012 0-3.358 4.466-7.19 5.204-9.958.03-10.27-26.875-14.42-26.923-19.875 0-8.983 51.646-13.423 51.656-20.016-.03-7.576-74.917-13.472-74.489-19.642.03-7.707 96.008-12.211 96.028-19.925 0-7.851-115.546-12.91-115.136-19.682-.03" fill="none" stroke="green" stroke-width="3" stroke-linecap="round"/></g></svg>