<svg xmlns:ns0="http://www.iki.fi/pav/software/textext/" xmlns="http://www.w3.org/2000/svg" xmlns:xlink="http://www.w3.org/1999/xlink" width="1488.189" height="1052.362"><title>Überlagerung von Wellen gleicher Frequenz</title><defs><marker id="a" orient="auto" overflow="visible"><path d="M2.308 0l-3.46 2v-4l3.46 2z" fill-rule="evenodd" stroke="#000" stroke-width=".4pt"/></marker></defs><g><g transform="translate(-575.239 128.115) scale(4.62289)" fill="green"><use height="1052.362" width="744.094" xlink:href="#textext-082fa4b4-3" x="231.736" y="134.765"/><use height="1052.362" width="744.094" xlink:href="#textext-082fa4b4-3" x="231.736" y="134.765"/><g ns0:text="$\\Delta \\vec{r} = \\vec{r}_{\\rm{2}} - \\vec{r}_{\\rm{1}} $" ns0:preamble="/home/waldgeist/data/sphinx/test.tex"><use height="1052.362" width="744.094" xlink:href="#textext-082fa4b4-0" x="223.432" y="134.765"/><use height="1052.362" width="744.094" xlink:href="#textext-082fa4b4-2" x="231.417" y="134.765"/><use height="1052.362" width="744.094" xlink:href="#textext-082fa4b4-3" x="231.736" y="134.765"/><use height="1052.362" width="744.094" xlink:href="#textext-082fa4b4-1" x="239.273" y="134.765"/><use height="1052.362" width="744.094" xlink:href="#textext-082fa4b4-2" x="249.472" y="134.765"/><use height="1052.362" width="744.094" xlink:href="#textext-082fa4b4-3" x="249.791" y="134.765"/><use height="1052.362" width="744.094" xlink:href="#textext-082fa4b4-4" x="254.284" y="136.259"/><use height="1052.362" width="744.094" xlink:href="#textext-082fa4b4-6" x="260.967" y="134.765"/><use height="1052.362" width="744.094" xlink:href="#textext-082fa4b4-2" x="270.612" y="134.765"/><use height="1052.362" width="744.094" xlink:href="#textext-082fa4b4-3" x="270.931" y="134.765"/><use height="1052.362" width="744.094" xlink:href="#textext-082fa4b4-5" x="275.425" y="136.259"/></g><g ns0:text="$\\Delta \\vec{r} = \\vec{r}_{\\rm{2}} - \\vec{r}_{\\rm{1}} $" ns0:preamble="/home/waldgeist/data/sphinx/test.tex"><use height="1052.362" width="744.094" xlink:href="#textext-082fa4b4-0" x="223.432" y="134.765"/><use height="1052.362" width="744.094" xlink:href="#textext-082fa4b4-2" x="231.417" y="134.765"/><use height="1052.362" width="744.094" xlink:href="#textext-082fa4b4-3" x="231.736" y="134.765"/><use height="1052.362" width="744.094" xlink:href="#textext-082fa4b4-1" x="239.273" y="134.765"/><use height="1052.362" width="744.094" xlink:href="#textext-082fa4b4-2" x="249.472" y="134.765"/><use height="1052.362" width="744.094" xlink:href="#textext-082fa4b4-3" x="249.791" y="134.765"/><use height="1052.362" width="744.094" xlink:href="#textext-082fa4b4-4" x="254.284" y="136.259"/><use height="1052.362" width="744.094" xlink:href="#textext-082fa4b4-6" x="260.967" y="134.765"/><use height="1052.362" width="744.094" xlink:href="#textext-082fa4b4-2" x="270.612" y="134.765"/><use height="1052.362" width="744.094" xlink:href="#textext-082fa4b4-3" x="270.931" y="134.765"/><use height="1052.362" width="744.094" xlink:href="#textext-082fa4b4-5" x="275.425" y="136.259"/></g><g ns0:text="$\\Delta \\vec{r} = \\vec{r}_{\\rm{2}} - \\vec{r}_{\\rm{1}} $" ns0:preamble="/home/waldgeist/data/sphinx/test.tex"><use height="1052.362" width="744.094" xlink:href="#textext-082fa4b4-0" x="223.432" y="134.765"/><use height="1052.362" width="744.094" xlink:href="#textext-082fa4b4-2" x="231.417" y="134.765"/><use height="1052.362" width="744.094" xlink:href="#textext-082fa4b4-3" x="231.736" y="134.765"/><use height="1052.362" width="744.094" xlink:href="#textext-082fa4b4-1" x="239.273" y="134.765"/><use height="1052.362" width="744.094" xlink:href="#textext-082fa4b4-2" x="249.472" y="134.765"/><use height="1052.362" width="744.094" xlink:href="#textext-082fa4b4-3" x="249.791" y="134.765"/><use height="1052.362" width="744.094" xlink:href="#textext-082fa4b4-4" x="254.284" y="136.259"/><use height="1052.362" width="744.094" xlink:href="#textext-082fa4b4-6" x="260.967" y="134.765"/><use height="1052.362" width="744.094" xlink:href="#textext-082fa4b4-2" x="270.612" y="134.765"/><use height="1052.362" width="744.094" xlink:href="#textext-082fa4b4-3" x="270.931" y="134.765"/><use height="1052.362" width="744.094" xlink:href="#textext-082fa4b4-5" x="275.425" y="136.259"/></g></g><path fill="#fff" stroke="#fff" stroke-width="3" stroke-linecap="round" d="M3.822 140.605h736.364v771.152H3.822z"/><g stroke="#ccc" stroke-width="1.019" fill="none"><g stroke-width="2.509"><path d="M132.877 227.272V825.09M192.659 227.272V825.09M252.44 227.272V825.09M312.222 227.272V825.09M372.004 227.272V825.09M431.786 227.272V825.09M491.568 227.272V825.09M551.35 227.272V825.09M611.131 227.272V825.09" stroke-width="1.49993038"/></g><g stroke-width="2.509"><path d="M73.095 287.054h597.818M73.095 346.836h597.818M73.095 406.618h597.818M73.095 466.4h597.818M73.095 526.181h597.818M73.095 585.963h597.818M73.095 645.744h597.818M73.095 705.526h597.818M73.095 765.308h597.818" stroke-width="1.49993038"/></g><g stroke-width=".836"><path d="M79.074 227.272V825.09M85.052 227.272V825.09M91.03 227.272V825.09M97.008 227.272V825.09M102.986 227.272V825.09M108.965 227.272V825.09M114.943 227.272V825.09M120.92 227.272V825.09M126.899 227.272V825.09M138.855 227.272V825.09M144.834 227.272V825.09M150.812 227.272V825.09M156.79 227.272V825.09M162.768 227.272V825.09M168.746 227.272V825.09M174.724 227.272V825.09M180.703 227.272V825.09M186.68 227.272V825.09M198.637 227.272V825.09M204.615 227.272V825.09M210.593 227.272V825.09M216.572 227.272V825.09M222.55 227.272V825.09M228.528 227.272V825.09M234.506 227.272V825.09M240.484 227.272V825.09M246.462 227.272V825.09M258.419 227.272V825.09M264.397 227.272V825.09M270.375 227.272V825.09M276.353 227.272V825.09M282.332 227.272V825.09M288.31 227.272V825.09M294.288 227.272V825.09M300.266 227.272V825.09M306.244 227.272V825.09M318.2 227.272V825.09M324.179 227.272V825.09M330.157 227.272V825.09M336.135 227.272V825.09M342.113 227.272V825.09M348.091 227.272V825.09M354.07 227.272V825.09M360.048 227.272V825.09M366.026 227.272V825.09M377.982 227.272V825.09M383.96 227.272V825.09M389.939 227.272V825.09M395.917 227.272V825.09M401.895 227.272V825.09M407.873 227.272V825.09M413.851 227.272V825.09M419.83 227.272V825.09M425.808 227.272V825.09M437.764 227.272V825.09M443.742 227.272V825.09M449.72 227.272V825.09M455.699 227.272V825.09M461.677 227.272V825.09M467.655 227.272V825.09M473.633 227.272V825.09M479.611 227.272V825.09M485.59 227.272V825.09M497.546 227.272V825.09M503.524 227.272V825.09M509.502 227.272V825.09M515.48 227.272V825.09M521.458 227.272V825.09M527.437 227.272V825.09M533.415 227.272V825.09M539.393 227.272V825.09M545.371 227.272V825.09M557.327 227.272V825.09M563.306 227.272V825.09M569.284 227.272V825.09M575.262 227.272V825.09M581.24 227.272V825.09M587.218 227.272V825.09M593.196 227.272V825.09M599.175 227.272V825.09M605.153 227.272V825.09M617.11 227.272V825.09M623.087 227.272V825.09M629.066 227.272V825.09M635.044 227.272V825.09M641.022 227.272V825.09M647 227.272V825.09M652.978 227.272V825.09M658.956 227.272V825.09M664.935 227.272V825.09" stroke-width=".49977752"/></g><g stroke-width=".836"><path d="M73.095 233.25h597.818M73.095 239.229h597.818M73.095 245.207h597.818M73.095 251.185h597.818M73.095 257.163h597.818M73.095 263.141h597.818M73.095 269.12h597.818M73.095 275.098h597.818M73.095 281.076h597.818M73.095 293.032h597.818M73.095 299.01h597.818M73.095 304.989h597.818M73.095 310.967h597.818M73.095 316.945h597.818M73.095 322.923h597.818M73.095 328.901h597.818M73.095 334.88h597.818M73.095 340.858h597.818M73.095 352.814h597.818M73.095 358.792h597.818M73.095 364.77h597.818M73.095 370.749h597.818M73.095 376.727h597.818M73.095 382.705h597.818M73.095 388.683h597.818M73.095 394.661h597.818M73.095 400.64h597.818M73.095 412.596h597.818M73.095 418.574h597.818M73.095 424.552h597.818M73.095 430.53h597.818M73.095 436.508h597.818M73.095 442.487h597.818M73.095 448.465h597.818M73.095 454.443h597.818M73.095 460.421h597.818M73.095 472.377h597.818M73.095 478.356h597.818M73.095 484.334h597.818M73.095 490.312h597.818M73.095 496.29h597.818M73.095 502.268h597.818M73.095 508.247h597.818M73.095 514.225h597.818M73.095 520.203h597.818M73.095 532.16h597.818M73.095 538.137h597.818M73.095 544.116h597.818M73.095 550.094h597.818M73.095 556.072h597.818M73.095 562.05h597.818M73.095 568.028h597.818M73.095 574.006h597.818M73.095 579.985h597.818M73.095 591.94h597.818M73.095 597.92h597.818M73.095 603.897h597.818M73.095 609.875h597.818M73.095 615.854h597.818M73.095 621.832h597.818M73.095 627.81h597.818M73.095 633.788h597.818M73.095 639.766h597.818M73.095 651.723h597.818M73.095 657.7h597.818M73.095 663.679h597.818M73.095 669.657h597.818M73.095 675.635h597.818M73.095 681.614h597.818M73.095 687.592h597.818M73.095 693.57h597.818M73.095 699.548h597.818M73.095 711.504h597.818M73.095 717.483h597.818M73.095 723.46h597.818M73.095 729.439h597.818M73.095 735.417h597.818M73.095 741.395h597.818M73.095 747.373h597.818M73.095 753.352h597.818M73.095 759.33h597.818M73.095 771.286h597.818M73.095 777.264h597.818M73.095 783.242h597.818M73.095 789.22h597.818M73.095 795.199h597.818M73.095 801.177h597.818M73.095 807.155h597.818M73.095 813.133h597.818M73.095 819.112h597.818" stroke-width=".49977752"/></g><path stroke-width="1.49993038" d="M73.095 227.272h597.818V825.09H73.095z"/></g><path d="M354.033 182.503c.192-.575.192-.639.192-.958 0-.703-.575-1.086-1.214-1.086-.384 0-1.023.255-1.406.83-.064.256-.447 1.47-.575 2.237-.32 1.022-.575 2.172-.83 3.258l-1.853 7.348c-.128.575-1.917 3.45-4.6 3.45-2.045 0-2.492-1.79-2.492-3.323 0-1.853.702-4.408 2.044-7.986.64-1.661.83-2.108.83-2.939 0-1.789-1.277-3.322-3.322-3.322-3.897 0-5.366 5.941-5.366 6.26 0 .448.383.448.447.448.447 0 .447-.128.639-.767 1.15-3.833 2.747-5.047 4.153-5.047.32 0 1.022 0 1.022 1.278 0 1.022-.447 2.108-.703 2.875-1.661 4.345-2.364 6.645-2.364 8.561 0 3.642 2.556 4.856 4.984 4.856 1.597 0 2.939-.703 4.089-1.853-.511 2.109-1.023 4.153-2.62 6.325-1.086 1.342-2.62 2.556-4.472 2.556-.575 0-2.428-.128-3.13-1.725.638 0 1.213 0 1.724-.511.447-.32.83-.895.83-1.661 0-1.278-1.085-1.406-1.469-1.406-.958 0-2.3.64-2.3 2.62 0 2.044 1.79 3.578 4.345 3.578 4.153 0 8.37-3.706 9.52-8.306zm0 0"/><g fill="none" stroke="#000" stroke-width=".948"><path d="M384.164 406.674h-24.32M384.164 346.892h-24.32M384.164 287.11h-24.32M384.164 227.329h-24.32M384.164 586.02h-24.32M384.164 645.8h-24.32M384.164 705.583h-24.32M384.164 765.364h-24.32M384.164 825.146h-24.32" stroke-width="1.55896704"/></g><path d="M381.884 466.456H357.97" fill="none" stroke="#000" stroke-width="2"/><path d="M713.577 550.089c.256-1.022 1.214-4.792 4.025-4.792.192 0 1.214 0 2.045.511-1.15.256-1.917 1.214-1.917 2.237 0 .638.447 1.405 1.533 1.405.895 0 2.173-.703 2.173-2.364 0-2.108-2.364-2.683-3.77-2.683-2.364 0-3.77 2.172-4.28 3.067-1.023-2.684-3.195-3.067-4.41-3.067-4.216 0-6.58 5.239-6.58 6.261 0 .447.447.447.511.447.32 0 .447-.127.511-.447 1.406-4.345 4.09-5.367 5.495-5.367.767 0 2.172.384 2.172 2.748 0 1.277-.703 3.96-2.172 9.711-.639 2.492-2.108 4.217-3.897 4.217-.256 0-1.15 0-2.045-.511 1.022-.256 1.917-1.087 1.917-2.237 0-1.086-.895-1.405-1.47-1.405-1.277 0-2.236 1.022-2.236 2.364 0 1.853 1.98 2.683 3.77 2.683 2.747 0 4.217-2.875 4.28-3.067.512 1.47 1.981 3.067 4.409 3.067 4.217 0 6.517-5.239 6.517-6.261 0-.447-.32-.447-.447-.447-.384 0-.448.191-.575.447-1.342 4.408-4.09 5.367-5.367 5.367-1.598 0-2.236-1.278-2.236-2.684 0-.894.191-1.789.638-3.578zm0 0"/><path d="M25.89 526.181h686.055" id="r" fill="none" stroke="#000" stroke-width="3" marker-end="url(#a)"/><path id="b" d="M431.786 513.912v23.912" fill="none" stroke="#000" stroke-width="2"/><use xlink:href="#b" transform="translate(59.782 -.483)" width="744.094" height="1052.362"/><use xlink:href="#b" transform="translate(119.563)" width="744.094" height="1052.362"/><use xlink:href="#b" transform="translate(179.345)" width="744.094" height="1052.362"/><use xlink:href="#b" transform="translate(-239.127 -.604)" width="744.094" height="1052.362"/><use xlink:href="#b" transform="translate(-298.909 -.483)" width="744.094" height="1052.362"/><use xlink:href="#b" transform="translate(-358.69)" width="744.094" height="1052.362"/><use height="1052.362" width="744.094" transform="translate(-179.345 -.248)" xlink:href="#b"/><use height="744.094" width="1052.362" transform="translate(-119.563 -.063)" xlink:href="#b"/><use height="744.094" width="1052.362" transform="translate(239.127 -.667)" xlink:href="#b"/><g fill="#4d4d4d" stroke="green" stroke-width="1.18"><g ns0:text="$1$" ns0:preamble="/home/waldgeist/data/sphinx/test.tex" transform="matrix(2.5424 0 0 2.5424 -142.78 216.068)"><defs><symbol overflow="visible" id="c"><path d="M2.938-6.375c0-.25 0-.266-.235-.266C2.078-6 1.203-6 .891-6v.313c.203 0 .78 0 1.296-.266v5.172c0 .36-.03.469-.921.469H.953V0c.344-.031 1.203-.031 1.61-.031.39 0 1.265 0 1.609.031v-.313h-.313c-.906 0-.921-.109-.921-.468zm0 0" stroke="none"/></symbol></defs><use xlink:href="#c" x="223.432" y="134.765" width="744.094" height="1052.362"/></g><g transform="matrix(2.5424 0 0 2.5424 -282.298 216.068)" ns0:preamble="/home/waldgeist/data/sphinx/test.tex" ns0:text="$-1$"><defs><symbol id="d" overflow="visible"><path d="M6.563-2.297c.171 0 .359 0 .359-.203 0-.188-.188-.188-.36-.188h-5.39c-.172 0-.344 0-.344.188 0 .203.172.203.344.203zm0 0" stroke="none"/></symbol><symbol id="e" overflow="visible"><path d="M2.938-6.375c0-.25 0-.266-.235-.266C2.078-6 1.203-6 .891-6v.313c.203 0 .78 0 1.296-.266v5.172c0 .36-.03.469-.921.469H.953V0c.344-.031 1.203-.031 1.61-.031.39 0 1.265 0 1.609.031v-.313h-.313c-.906 0-.921-.109-.921-.468zm0 0" stroke="none"/></symbol></defs><use y="134.765" x="223.432" xlink:href="#d" width="744.094" height="1052.362"/><use y="134.765" x="231.181" xlink:href="#e" width="744.094" height="1052.362"/></g><g ns0:text="$-2$" ns0:preamble="/home/waldgeist/data/sphinx/test.tex" transform="matrix(2.5424 0 0 2.5424 -342.092 216.068)"><defs><symbol overflow="visible" id="f"><path d="M6.563-2.297c.171 0 .359 0 .359-.203 0-.188-.188-.188-.36-.188h-5.39c-.172 0-.344 0-.344.188 0 .203.172.203.344.203zm0 0" stroke="none"/></symbol><symbol overflow="visible" id="g"><path d="M1.266-.766l1.062-1.03c1.547-1.376 2.14-1.907 2.14-2.907 0-1.14-.89-1.938-2.109-1.938C1.234-6.64.5-5.719.5-4.828c0 .547.5.547.531.547.172 0 .516-.11.516-.532a.513.513 0 0 0-.531-.515c-.079 0-.094 0-.125.016.218-.657.765-1.016 1.343-1.016.907 0 1.329.812 1.329 1.625 0 .797-.485 1.578-1.047 2.203L.609-.375C.5-.265.5-.235.5 0h3.703l.266-1.734h-.235C4.172-1.438 4.11-1 4-.844c-.063.078-.719.078-.938.078zm0 0" stroke="none"/></symbol></defs><use height="1052.362" width="744.094" xlink:href="#f" x="223.432" y="134.765"/><use height="1052.362" width="744.094" xlink:href="#g" x="231.181" y="134.765"/></g><g transform="matrix(2.5424 0 0 2.5424 -401.402 215.79)" ns0:preamble="/home/waldgeist/data/sphinx/test.tex" ns0:text="$-3$"><defs><symbol id="h" overflow="visible"><path d="M6.563-2.297c.171 0 .359 0 .359-.203 0-.188-.188-.188-.36-.188h-5.39c-.172 0-.344 0-.344.188 0 .203.172.203.344.203zm0 0" stroke="none"/></symbol><symbol id="i" overflow="visible"><path d="M2.89-3.516c.813-.265 1.391-.953 1.391-1.75 0-.812-.875-1.375-1.828-1.375-1 0-1.765.594-1.765 1.36 0 .328.218.515.515.515.297 0 .5-.218.5-.515 0-.485-.469-.485-.61-.485.298-.5.954-.625 1.313-.625.422 0 .969.22.969 1.11 0 .125-.031.703-.281 1.14-.297.485-.64.516-.89.516a3.29 3.29 0 0 1-.392.031c-.078.016-.14.031-.14.125 0 .11.062.11.234.11h.438c.812 0 1.187.671 1.187 1.656 0 1.36-.687 1.64-1.125 1.64-.437 0-1.187-.171-1.531-.75.344.047.656-.171.656-.546a.537.537 0 0 0-.547-.563c-.25 0-.562.14-.562.578C.422-.437 1.344.22 2.437.22c1.22 0 2.126-.906 2.126-1.922 0-.813-.641-1.594-1.672-1.813zm0 0" stroke="none"/></symbol></defs><use y="134.765" x="223.432" xlink:href="#h" width="744.094" height="1052.362"/><use y="134.765" x="231.181" xlink:href="#i" width="744.094" height="1052.362"/></g><g ns0:text="$-4$" ns0:preamble="/home/waldgeist/data/sphinx/test.tex" transform="matrix(2.5424 0 0 2.5424 -463.49 216.207)"><defs><symbol overflow="visible" id="j"><path d="M6.563-2.297c.171 0 .359 0 .359-.203 0-.188-.188-.188-.36-.188h-5.39c-.172 0-.344 0-.344.188 0 .203.172.203.344.203zm0 0" stroke="none"/></symbol><symbol overflow="visible" id="k"><path d="M2.938-1.64v.859c0 .36-.032.469-.766.469h-.203V0c.406-.031.922-.031 1.343-.031.422 0 .938 0 1.36.031v-.313h-.219c-.734 0-.75-.109-.75-.468v-.86h.985v-.312h-.985v-4.531c0-.204 0-.266-.172-.266-.078 0-.11 0-.187.125L.28-1.953v.312zm.046-.313H.563l2.421-3.719zm0 0" stroke="none"/></symbol></defs><use xlink:href="#j" x="223.432" y="134.765" width="744.094" height="1052.362"/><use xlink:href="#k" x="231.181" y="134.765" width="744.094" height="1052.362"/></g><g transform="matrix(2.5424 0 0 2.5424 -520.988 215.79)" ns0:preamble="/home/waldgeist/data/sphinx/test.tex" ns0:text="$-5$"><defs><symbol id="l" overflow="visible"><path d="M6.563-2.297c.171 0 .359 0 .359-.203 0-.188-.188-.188-.36-.188h-5.39c-.172 0-.344 0-.344.188 0 .203.172.203.344.203zm0 0" stroke="none"/></symbol><symbol id="m" overflow="visible"><path d="M4.469-2c0-1.188-.813-2.188-1.89-2.188-.47 0-.907.157-1.267.516v-1.953c.204.063.532.125.844.125 1.235 0 1.938-.906 1.938-1.031 0-.063-.032-.11-.11-.11 0 0-.03 0-.078.032a3.22 3.22 0 0 1-1.36.296c-.39 0-.858-.078-1.327-.28-.078-.032-.094-.032-.11-.032C1-6.625 1-6.547 1-6.391v2.954c0 .171 0 .25.14.25.079 0 .094-.016.141-.079.11-.156.469-.703 1.282-.703.515 0 .765.453.843.64.156.376.188.75.188 1.25 0 .36 0 .954-.25 1.376-.235.39-.61.64-1.063.64-.719 0-1.297-.53-1.469-1.109.032 0 .063.016.172.016.329 0 .5-.25.5-.485 0-.25-.171-.5-.5-.5-.14 0-.484.079-.484.532C.5-.75 1.188.219 2.297.219 3.453.219 4.469-.734 4.469-2zm0 0" stroke="none"/></symbol></defs><use y="134.765" x="223.432" xlink:href="#l" width="744.094" height="1052.362"/><use y="134.765" x="231.181" xlink:href="#m" width="744.094" height="1052.362"/></g><g ns0:text="$2$" ns0:preamble="/home/waldgeist/data/sphinx/test.tex" transform="matrix(2.5424 0 0 2.5424 -82.866 216.068)"><defs><symbol overflow="visible" id="n"><path d="M1.266-.766l1.062-1.03c1.547-1.376 2.14-1.907 2.14-2.907 0-1.14-.89-1.938-2.109-1.938C1.234-6.64.5-5.719.5-4.828c0 .547.5.547.531.547.172 0 .516-.11.516-.532a.513.513 0 0 0-.531-.515c-.079 0-.094 0-.125.016.218-.657.765-1.016 1.343-1.016.907 0 1.329.812 1.329 1.625 0 .797-.485 1.578-1.047 2.203L.609-.375C.5-.265.5-.235.5 0h3.703l.266-1.734h-.235C4.172-1.438 4.11-1 4-.844c-.063.078-.719.078-.938.078zm0 0" stroke="none"/></symbol></defs><use height="1052.362" width="744.094" transform="translate(-.019)" xlink:href="#n" x="223.432" y="134.765"/></g><g transform="matrix(2.5424 0 0 2.5424 -23.617 215.79)" ns0:preamble="/home/waldgeist/data/sphinx/test.tex" ns0:text="$3$"><defs><symbol id="o" overflow="visible"><path d="M2.89-3.516c.813-.265 1.391-.953 1.391-1.75 0-.812-.875-1.375-1.828-1.375-1 0-1.765.594-1.765 1.36 0 .328.218.515.515.515.297 0 .5-.218.5-.515 0-.485-.469-.485-.61-.485.298-.5.954-.625 1.313-.625.422 0 .969.22.969 1.11 0 .125-.031.703-.281 1.14-.297.485-.64.516-.89.516a3.29 3.29 0 0 1-.392.031c-.078.016-.14.031-.14.125 0 .11.062.11.234.11h.438c.812 0 1.187.671 1.187 1.656 0 1.36-.687 1.64-1.125 1.64-.437 0-1.187-.171-1.531-.75.344.047.656-.171.656-.546a.537.537 0 0 0-.547-.563c-.25 0-.562.14-.562.578C.422-.437 1.344.22 2.437.22c1.22 0 2.126-.906 2.126-1.922 0-.813-.641-1.594-1.672-1.813zm0 0" stroke="none"/></symbol></defs><use y="134.765" x="223.432" xlink:href="#o" width="744.094" height="1052.362"/></g><g ns0:text="$4$" ns0:preamble="/home/waldgeist/data/sphinx/test.tex" transform="matrix(2.5424 0 0 2.5424 34.485 216.207)"><defs><symbol overflow="visible" id="p"><path d="M2.938-1.64v.859c0 .36-.032.469-.766.469h-.203V0c.406-.031.922-.031 1.343-.031.422 0 .938 0 1.36.031v-.313h-.219c-.734 0-.75-.109-.75-.468v-.86h.985v-.312h-.985v-4.531c0-.204 0-.266-.172-.266-.078 0-.11 0-.187.125L.28-1.953v.312zm.046-.313H.563l2.421-3.719zm0 0" stroke="none"/></symbol></defs><use height="1052.362" width="744.094" xlink:href="#p" x="223.432" y="134.765"/></g><g transform="matrix(2.5424 0 0 2.5424 96.453 215.79)" ns0:preamble="/home/waldgeist/data/sphinx/test.tex" ns0:text="$5$"><defs><symbol id="q" overflow="visible"><path d="M4.469-2c0-1.188-.813-2.188-1.89-2.188-.47 0-.907.157-1.267.516v-1.953c.204.063.532.125.844.125 1.235 0 1.938-.906 1.938-1.031 0-.063-.032-.11-.11-.11 0 0-.03 0-.078.032a3.22 3.22 0 0 1-1.36.296c-.39 0-.858-.078-1.327-.28-.078-.032-.094-.032-.11-.032C1-6.625 1-6.547 1-6.391v2.954c0 .171 0 .25.14.25.079 0 .094-.016.141-.079.11-.156.469-.703 1.282-.703.515 0 .765.453.843.64.156.376.188.75.188 1.25 0 .36 0 .954-.25 1.376-.235.39-.61.64-1.063.64-.719 0-1.297-.53-1.469-1.109.032 0 .063.016.172.016.329 0 .5-.25.5-.485 0-.25-.171-.5-.5-.5-.14 0-.484.079-.484.532C.5-.75 1.188.219 2.297.219 3.453.219 4.469-.734 4.469-2zm0 0" stroke="none"/></symbol></defs><use y="134.765" x="223.432" xlink:href="#q" width="744.094" height="1052.362"/></g></g><g fill="#4d4d4d" stroke="green" stroke-width="1.18"><g ns0:text="$-1$" ns0:preamble="/home/waldgeist/data/sphinx/test.tex"><use height="1052.362" width="744.094" xlink:href="#d" x="223.432" y="134.765" transform="matrix(2.5424 0 0 2.5424 -244.139 251.833)"/><use height="1052.362" width="744.094" xlink:href="#e" x="231.181" y="134.765" transform="matrix(2.5424 0 0 2.5424 -244.139 251.833)"/></g><g ns0:preamble="/home/waldgeist/data/sphinx/test.tex" ns0:text="$-2$"><use y="134.765" x="223.432" xlink:href="#f" width="744.094" height="1052.362" transform="matrix(2.5424 0 0 2.5424 -244.894 311.615)"/><use y="134.765" x="231.181" xlink:href="#g" width="744.094" height="1052.362" transform="matrix(2.5424 0 0 2.5424 -244.894 311.615)"/></g><g ns0:text="$-3$" ns0:preamble="/home/waldgeist/data/sphinx/test.tex"><use height="1052.362" width="744.094" xlink:href="#h" x="223.432" y="134.765" transform="matrix(2.5424 0 0 2.5424 -245.132 371.118)"/><use height="1052.362" width="744.094" xlink:href="#i" x="231.181" y="134.765" transform="matrix(2.5424 0 0 2.5424 -245.132 371.118)"/></g><g ns0:preamble="/home/waldgeist/data/sphinx/test.tex" ns0:text="$-4$"><use height="1052.362" width="744.094" y="134.765" x="223.432" xlink:href="#j" transform="matrix(2.5424 0 0 2.5424 -245.45 431.317)"/><use height="1052.362" width="744.094" y="134.765" x="231.181" xlink:href="#k" transform="matrix(2.5424 0 0 2.5424 -245.45 431.317)"/></g><g ns0:text="$-5$" ns0:preamble="/home/waldgeist/data/sphinx/test.tex"><use height="1052.362" width="744.094" xlink:href="#l" x="223.432" y="134.765" transform="matrix(2.5424 0 0 2.5424 -244.894 490.682)"/><use height="1052.362" width="744.094" xlink:href="#m" x="231.181" y="134.765" transform="matrix(2.5424 0 0 2.5424 -244.894 490.682)"/></g><use height="1052.362" width="744.094" y="134.765" x="223.432" xlink:href="#c" transform="matrix(2.5424 0 0 2.5424 -224.438 132.27)" ns0:preamble="/home/waldgeist/data/sphinx/test.tex" ns0:text="$1$"/><use y="134.765" x="223.432" xlink:href="#n" transform="matrix(2.5424 0 0 2.5424 -225.192 72.488)" width="744.094" height="1052.362" ns0:preamble="/home/waldgeist/data/sphinx/test.tex" ns0:text="$2$"/><use height="1052.362" width="744.094" xlink:href="#o" x="223.432" y="134.765" transform="matrix(2.5424 0 0 2.5424 -225.43 12.428)" ns0:text="$3$" ns0:preamble="/home/waldgeist/data/sphinx/test.tex"/><use y="134.765" x="223.432" xlink:href="#p" width="744.094" height="1052.362" transform="matrix(2.5424 0 0 2.5424 -225.749 -46.937)" ns0:preamble="/home/waldgeist/data/sphinx/test.tex" ns0:text="$4$"/><use height="1052.362" width="744.094" xlink:href="#q" x="223.432" y="134.765" transform="matrix(2.5424 0 0 2.5424 -225.192 -107.136)" ns0:text="$5$" ns0:preamble="/home/waldgeist/data/sphinx/test.tex"/></g><use height="1052.362" width="744.094" transform="rotate(-90 372.004 526.181)" xlink:href="#r"/><path d="M73.253 468.013c7.764-2.667 10.855-2.362 15.464-2.443 14.117-.247 28.238 5.01 42.357 14.202 21.687 14.119 43.374 37.736 65.061 59.051 21.687 21.315 43.374 39.39 65.061 45.239 21.687 5.85 43.374-.836 65.061-16.67 21.687-15.836 43.374-40.173 65.061-60.856 21.687-20.684 43.374-36.799 65.061-40.34 21.687-3.543 43.374 5.698 65.061 23.063 21.687 17.366 43.374 42.137 65.061 61.948 21.687 19.81 43.355 34.189 65.061 34.969 6.548.235 13.013-.697 19.073-2.818" fill="none" stroke="#0f0" stroke-width="3" stroke-linecap="round"/><g ns0:preamble="/home/waldgeist/data/sphinx/inkscape-preamble.tex" ns0:text="$y = \\text{sin}(x)$" fill="#338000" stroke="green" stroke-width="1.18"><use y="134.765" x="223.432" xlink:href="#s" width="744.094" height="1052.362" transform="matrix(2.5422 0 0 2.5424 -27.347 151.963)"/><use y="134.765" x="231.441" xlink:href="#t" width="744.094" height="1052.362" transform="matrix(2.5422 0 0 2.5424 -27.347 151.963)"/><g transform="matrix(2.5422 0 0 2.5424 -27.347 151.963)"><use y="134.765" x="241.96" xlink:href="#u" width="744.094" height="1052.362"/><use y="134.765" x="245.889" xlink:href="#v" width="744.094" height="1052.362"/><use y="134.765" x="248.656" xlink:href="#w" width="744.094" height="1052.362"/><use y="134.765" x="254.192" xlink:href="#x" width="744.094" height="1052.362"/></g><use y="134.765" x="258.064" xlink:href="#y" width="744.094" height="1052.362" transform="matrix(2.5422 0 0 2.5424 -27.347 151.963)"/><use y="134.765" x="263.758" xlink:href="#z" width="744.094" height="1052.362" transform="matrix(2.5422 0 0 2.5424 -27.347 151.963)"/></g><g ns0:text="$y = \\text{sin}(x)$" ns0:preamble="/home/waldgeist/data/sphinx/inkscape-preamble.tex" transform="matrix(2.5422 0 0 2.5424 -27.87 151.701)" fill="#0f0" stroke="green" stroke-width="1.18"><defs><symbol overflow="visible" id="s"><path d="M4.844-3.797c.047-.14.047-.156.047-.234 0-.172-.141-.266-.297-.266a.455.455 0 0 0-.344.203c-.016.063-.11.36-.14.547-.079.25-.141.531-.204.797L3.453-.953c-.031.14-.469.844-1.125.844-.5 0-.61-.438-.61-.813 0-.453.173-1.078.5-1.953.157-.406.204-.516.204-.719 0-.437-.313-.812-.813-.812-.953 0-1.312 1.453-1.312 1.531 0 .11.094.11.11.11.109 0 .109-.032.156-.188.28-.938.671-1.235 1.015-1.235.078 0 .25 0 .25.313 0 .25-.11.516-.172.703-.406 1.063-.578 1.625-.578 2.094 0 .89.625 1.187 1.219 1.187.39 0 .719-.171 1-.453-.125.516-.25 1.016-.64 1.547-.266.328-.641.625-1.095.625-.14 0-.593-.031-.765-.422.156 0 .297 0 .422-.125a.493.493 0 0 0 .203-.406c0-.313-.266-.344-.36-.344C.829.531.5.687.5 1.171c0 .5.438.876 1.063.876 1.015 0 2.046-.906 2.328-2.031zm0 0" stroke="none"/></symbol><symbol overflow="visible" id="y"><path d="M3.328-3.016c.063-.25.297-1.171.985-1.171.046 0 .296 0 .5.125a.578.578 0 0 0-.47.546c0 .157.11.344.376.344a.546.546 0 0 0 .531-.578c0-.516-.578-.656-.922-.656-.578 0-.922.531-1.047.75-.25-.656-.781-.75-1.078-.75-1.031 0-1.61 1.281-1.61 1.531 0 .11.11.11.126.11.078 0 .11-.032.125-.11.344-1.063 1-1.313 1.344-1.313.187 0 .53.094.53.672 0 .313-.171.97-.53 2.375-.157.61-.516 1.032-.954 1.032-.062 0-.28 0-.5-.125.25-.063.47-.266.47-.547 0-.266-.22-.344-.36-.344-.313 0-.547.25-.547.578 0 .453.484.656.922.656.672 0 1.031-.703 1.047-.75.125.36.484.75 1.078.75 1.031 0 1.594-1.28 1.594-1.53 0-.11-.079-.11-.11-.11-.094 0-.11.047-.14.11-.329 1.077-1 1.312-1.313 1.312-.39 0-.547-.313-.547-.657 0-.218.047-.437.156-.875zm0 0" stroke="none"/></symbol><symbol overflow="visible" id="t"><path d="M6.844-3.266c.156 0 .343 0 .343-.187 0-.203-.187-.203-.328-.203H.891c-.141 0-.329 0-.329.203 0 .187.188.187.329.187zm.015 1.938c.141 0 .329 0 .329-.203 0-.188-.188-.188-.344-.188H.89c-.141 0-.329 0-.329.188 0 .203.188.203.329.203zm0 0" stroke="none"/></symbol><symbol overflow="visible" id="u"><path d="M2.078-1.938c.219.047 1.031.204 1.031.922 0 .5-.343.907-1.125.907-.843 0-1.203-.563-1.39-1.422-.031-.125-.031-.157-.14-.157-.126 0-.126.063-.126.235v1.328c0 .172 0 .234.11.234C.483.11.5.094.688-.094.703-.109.703-.125.89-.312c.437.406.89.421 1.093.421 1.141 0 1.61-.671 1.61-1.39 0-.516-.297-.828-.422-.938-.328-.328-.719-.406-1.14-.484-.563-.11-1.22-.235-1.22-.813 0-.359.25-.765 1.11-.765 1.094 0 1.156.906 1.172 1.203 0 .094.094.094.11.094.14 0 .14-.047.14-.235v-1.015c0-.157 0-.235-.11-.235-.046 0-.078 0-.203.125-.031.032-.125.125-.172.157-.375-.282-.78-.282-.937-.282-1.219 0-1.594.672-1.594 1.235 0 .343.156.625.422.843.328.25.61.313 1.328.454zm0 0" stroke="none"/></symbol><symbol overflow="visible" id="v"><path d="M1.766-4.406l-1.391.11v.312c.64 0 .734.062.734.546V-.75c0 .438-.109.438-.78.438V0c.312-.016.859-.031 1.093-.031.36 0 .703.015 1.047.031v-.313c-.672 0-.703-.046-.703-.437zm.03-1.735a.514.514 0 0 0-.515-.53.537.537 0 0 0-.531.53c0 .266.219.532.531.532a.514.514 0 0 0 .516-.532zm0 0" stroke="none"/></symbol><symbol overflow="visible" id="w"><path d="M1.094-3.422V-.75c0 .438-.11.438-.782.438V0c.36-.016.86-.031 1.141-.031.25 0 .766.015 1.11.031v-.313c-.672 0-.782 0-.782-.437v-1.844c0-1.031.719-1.594 1.344-1.594.64 0 .75.532.75 1.11V-.75c0 .438-.11.438-.781.438V0c.344-.016.86-.031 1.125-.031.25 0 .781.015 1.11.031v-.313c-.516 0-.766 0-.766-.296v-1.907c0-.859 0-1.156-.313-1.515-.14-.172-.469-.375-1.047-.375-.734 0-1.203.422-1.484 1.047v-1.047l-1.407.11v.312c.704 0 .782.062.782.562zm0 0" stroke="none"/></symbol><symbol overflow="visible" id="x"><path d="M3.297 2.39c0-.03 0-.046-.172-.218C1.891.922 1.562-.968 1.562-2.5c0-1.734.375-3.469 1.61-4.703.125-.125.125-.14.125-.172 0-.078-.031-.11-.094-.11-.11 0-1 .688-1.594 1.954C1.11-4.438.984-3.328.984-2.5c0 .781.11 1.984.657 3.125C2.25 1.844 3.094 2.5 3.203 2.5c.063 0 .094-.031.094-.11zm0 0" stroke="none"/></symbol><symbol overflow="visible" id="z"><path d="M2.875-2.5c0-.766-.11-1.969-.656-3.11C1.625-6.827.766-7.483.672-7.483a.107.107 0 0 0-.11.109c0 .031 0 .047.188.234.984.985 1.547 2.563 1.547 4.641 0 1.719-.36 3.469-1.594 4.719-.14.125-.14.14-.14.172 0 .062.046.109.109.109.094 0 1-.688 1.578-1.953.516-1.094.625-2.203.625-3.047zm0 0" stroke="none"/></symbol></defs><use height="1052.362" width="744.094" xlink:href="#s" x="223.432" y="134.765"/><use height="1052.362" width="744.094" xlink:href="#t" x="231.441" y="134.765"/><use height="1052.362" width="744.094" xlink:href="#u" x="241.96" y="134.765"/><use height="1052.362" width="744.094" xlink:href="#v" x="245.889" y="134.765"/><use height="1052.362" width="744.094" xlink:href="#w" x="248.656" y="134.765"/><use height="1052.362" width="744.094" xlink:href="#x" x="254.192" y="134.765"/><g><use height="1052.362" width="744.094" xlink:href="#y" x="258.064" y="134.765"/></g><g><use height="1052.362" width="744.094" xlink:href="#z" x="263.758" y="134.765"/></g></g><path d="M73.09 473.019c3.45 1.754 6.903 3.766 10.354 6.013 21.687 14.118 43.374 37.736 65.061 59.05 21.687 21.315 43.374 39.39 65.061 45.24 21.687 5.849 43.374-.836 65.061-16.671 21.687-15.835 43.374-40.172 65.061-60.856 21.687-20.684 43.374-36.798 65.061-40.34 21.688-3.542 43.375 5.699 65.062 23.064 21.687 17.366 43.374 42.137 65.06 61.947 21.688 19.81 43.356 34.19 65.062 34.97 6.547.235 13.012-.697 19.073-2.818 18.317-5.237 33.73-17.284 48.1-29.691" fill="none" stroke="#00d400" stroke-width="3" stroke-linecap="round"/><path d="M72.774 415.458c12.37 3.378 28.315 14.793 42.472 33.954 21.6 29.236 43.2 74.169 64.801 112.357 21.6 38.188 43.2 67.94 64.801 74.479 21.6 6.54 43.201-10.521 64.802-42.583 21.6-32.061 43.2-77.796 64.8-114.371 21.601-36.576 43.202-62.36 64.802-64.563" fill="none" stroke="green" stroke-width="3" stroke-linecap="round"/><path d="M254.82 637.402c14.062-.158 28.125-9.25 42.188-26.221 21.6-26.067 43.2-69.67 64.8-109.024 21.601-39.352 43.202-72.723 64.802-83.523 21.6-10.8 43.201 1.543 64.801 30.779 21.6 29.235 43.201 74.168 64.802 112.356 21.6 38.188 43.2 67.94 64.8 74.479 16.727 5.064 33.453-4.023 50.18-23.27" fill="none" stroke="green" stroke-width="3" stroke-linecap="round"/><g transform="matrix(2.5422 0 0 2.5424 -158.906 64.503)" ns0:preamble="/home/waldgeist/data/sphinx/inkscape-preamble.tex" ns0:text="$y = \\text{sin}(x) + \\text{sin}(x + \\frac{\\pi}{4})$" fill="green" stroke="green" stroke-width="1.18"><defs><symbol id="A" overflow="visible"><path d="M4.844-3.797c.047-.14.047-.156.047-.234 0-.172-.141-.266-.297-.266a.455.455 0 0 0-.344.203c-.016.063-.11.36-.14.547-.079.25-.141.531-.204.797L3.453-.953c-.031.14-.469.844-1.125.844-.5 0-.61-.438-.61-.813 0-.453.173-1.078.5-1.953.157-.406.204-.516.204-.719 0-.437-.313-.812-.813-.812-.953 0-1.312 1.453-1.312 1.531 0 .11.094.11.11.11.109 0 .109-.032.156-.188.28-.938.671-1.235 1.015-1.235.078 0 .25 0 .25.313 0 .25-.11.516-.172.703-.406 1.063-.578 1.625-.578 2.094 0 .89.625 1.187 1.219 1.187.39 0 .719-.171 1-.453-.125.516-.25 1.016-.64 1.547-.266.328-.641.625-1.095.625-.14 0-.593-.031-.765-.422.156 0 .297 0 .422-.125a.493.493 0 0 0 .203-.406c0-.313-.266-.344-.36-.344C.829.531.5.687.5 1.171c0 .5.438.876 1.063.876 1.015 0 2.046-.906 2.328-2.031zm0 0" stroke="none"/></symbol><symbol id="G" overflow="visible"><path d="M3.328-3.016c.063-.25.297-1.171.985-1.171.046 0 .296 0 .5.125a.578.578 0 0 0-.47.546c0 .157.11.344.376.344a.546.546 0 0 0 .531-.578c0-.516-.578-.656-.922-.656-.578 0-.922.531-1.047.75-.25-.656-.781-.75-1.078-.75-1.031 0-1.61 1.281-1.61 1.531 0 .11.11.11.126.11.078 0 .11-.032.125-.11.344-1.063 1-1.313 1.344-1.313.187 0 .53.094.53.672 0 .313-.171.97-.53 2.375-.157.61-.516 1.032-.954 1.032-.062 0-.28 0-.5-.125.25-.063.47-.266.47-.547 0-.266-.22-.344-.36-.344-.313 0-.547.25-.547.578 0 .453.484.656.922.656.672 0 1.031-.703 1.047-.75.125.36.484.75 1.078.75 1.031 0 1.594-1.28 1.594-1.53 0-.11-.079-.11-.11-.11-.094 0-.11.047-.14.11-.329 1.077-1 1.312-1.313 1.312-.39 0-.547-.313-.547-.657 0-.218.047-.437.156-.875zm0 0" stroke="none"/></symbol><symbol id="B" overflow="visible"><path d="M6.844-3.266c.156 0 .343 0 .343-.187 0-.203-.187-.203-.328-.203H.891c-.141 0-.329 0-.329.203 0 .187.188.187.329.187zm.015 1.938c.141 0 .329 0 .329-.203 0-.188-.188-.188-.344-.188H.89c-.141 0-.329 0-.329.188 0 .203.188.203.329.203zm0 0" stroke="none"/></symbol><symbol id="C" overflow="visible"><path d="M2.078-1.938c.219.047 1.031.204 1.031.922 0 .5-.343.907-1.125.907-.843 0-1.203-.563-1.39-1.422-.031-.125-.031-.157-.14-.157-.126 0-.126.063-.126.235v1.328c0 .172 0 .234.11.234C.483.11.5.094.688-.094.703-.109.703-.125.89-.312c.437.406.89.421 1.093.421 1.141 0 1.61-.671 1.61-1.39 0-.516-.297-.828-.422-.938-.328-.328-.719-.406-1.14-.484-.563-.11-1.22-.235-1.22-.813 0-.359.25-.765 1.11-.765 1.094 0 1.156.906 1.172 1.203 0 .094.094.094.11.094.14 0 .14-.047.14-.235v-1.015c0-.157 0-.235-.11-.235-.046 0-.078 0-.203.125-.031.032-.125.125-.172.157-.375-.282-.78-.282-.937-.282-1.219 0-1.594.672-1.594 1.235 0 .343.156.625.422.843.328.25.61.313 1.328.454zm0 0" stroke="none"/></symbol><symbol id="D" overflow="visible"><path d="M1.766-4.406l-1.391.11v.312c.64 0 .734.062.734.546V-.75c0 .438-.109.438-.78.438V0c.312-.016.859-.031 1.093-.031.36 0 .703.015 1.047.031v-.313c-.672 0-.703-.046-.703-.437zm.03-1.735a.514.514 0 0 0-.515-.53.537.537 0 0 0-.531.53c0 .266.219.532.531.532a.514.514 0 0 0 .516-.532zm0 0" stroke="none"/></symbol><symbol id="E" overflow="visible"><path d="M1.094-3.422V-.75c0 .438-.11.438-.782.438V0c.36-.016.86-.031 1.141-.031.25 0 .766.015 1.11.031v-.313c-.672 0-.782 0-.782-.437v-1.844c0-1.031.719-1.594 1.344-1.594.64 0 .75.532.75 1.11V-.75c0 .438-.11.438-.781.438V0c.344-.016.86-.031 1.125-.031.25 0 .781.015 1.11.031v-.313c-.516 0-.766 0-.766-.296v-1.907c0-.859 0-1.156-.313-1.515-.14-.172-.469-.375-1.047-.375-.734 0-1.203.422-1.484 1.047v-1.047l-1.407.11v.312c.704 0 .782.062.782.562zm0 0" stroke="none"/></symbol><symbol id="F" overflow="visible"><path d="M3.297 2.39c0-.03 0-.046-.172-.218C1.891.922 1.562-.968 1.562-2.5c0-1.734.375-3.469 1.61-4.703.125-.125.125-.14.125-.172 0-.078-.031-.11-.094-.11-.11 0-1 .688-1.594 1.954C1.11-4.438.984-3.328.984-2.5c0 .781.11 1.984.657 3.125C2.25 1.844 3.094 2.5 3.203 2.5c.063 0 .094-.031.094-.11zm0 0" stroke="none"/></symbol><symbol id="H" overflow="visible"><path d="M2.875-2.5c0-.766-.11-1.969-.656-3.11C1.625-6.827.766-7.483.672-7.483a.107.107 0 0 0-.11.109c0 .031 0 .047.188.234.984.985 1.547 2.563 1.547 4.641 0 1.719-.36 3.469-1.594 4.719-.14.125-.14.14-.14.172 0 .062.046.109.109.109.094 0 1-.688 1.578-1.953.516-1.094.625-2.203.625-3.047zm0 0" stroke="none"/></symbol><symbol id="I" overflow="visible"><path d="M4.078-2.297H6.86c.141 0 .329 0 .329-.203 0-.188-.188-.188-.329-.188H4.08v-2.796c0-.141 0-.329-.204-.329-.203 0-.203.188-.203.329v2.796H.89c-.141 0-.329 0-.329.188 0 .203.188.203.329.203h2.78V.5c0 .14 0 .328.204.328.203 0 .203-.187.203-.328zm0 0" stroke="none"/></symbol><symbol id="J" overflow="visible"><path d="M2.172-2.531H3c-.11.422-.266 1.047-.266 1.61 0 .28.047.468.079.609.109.359.203.374.312.374.172 0 .328-.14.328-.312 0-.047-.015-.078-.047-.14-.14-.266-.265-.657-.265-1.235 0-.125 0-.406.093-.906h.875c.125 0 .188 0 .266-.047a.31.31 0 0 0 .11-.219C4.484-3 4.311-3 4.186-3H1.563c-.28 0-.484.063-.796.36-.188.156-.454.53-.454.593 0 .078.094.078.126.078.078 0 .078-.015.124-.078.344-.484.782-.484.938-.484h.422c-.219.765-.594 1.594-.797 2.015-.047.079-.11.235-.14.25 0 .032-.016.063-.016.11 0 .11.078.218.25.218.265 0 .343-.312.515-.937zm0 0" stroke="none"/></symbol><symbol id="K" overflow="visible"><path d="M3.688-1.14v-.25h-.782V-4.5c0-.14 0-.203-.14-.203-.094 0-.125 0-.188.11L.266-1.392v.25h2.062v.563c0 .25 0 .328-.578.328h-.188V0c.36-.016.797-.031 1.047-.031.266 0 .704.015 1.063.031v-.25h-.188c-.578 0-.578-.078-.578-.328v-.563zM2.375-3.939v2.547H.531zm0 0" stroke="none"/></symbol></defs><use y="134.765" x="223.432" xlink:href="#A" width="744.094" height="1052.362"/><use y="134.765" x="231.441" xlink:href="#B" width="744.094" height="1052.362"/><use y="134.765" x="241.96" xlink:href="#C" width="744.094" height="1052.362"/><use y="134.765" x="245.889" xlink:href="#D" width="744.094" height="1052.362"/><use y="134.765" x="248.656" xlink:href="#E" width="744.094" height="1052.362"/><use y="134.765" x="254.192" xlink:href="#F" width="744.094" height="1052.362"/><use y="134.765" x="258.064" xlink:href="#G" width="744.094" height="1052.362"/><use y="134.765" x="263.758" xlink:href="#H" width="744.094" height="1052.362"/><use y="134.765" x="269.844" xlink:href="#I" width="744.094" height="1052.362"/><use y="134.765" x="279.805" xlink:href="#C" width="744.094" height="1052.362"/><use y="134.765" x="283.734" xlink:href="#D" width="744.094" height="1052.362"/><use y="134.765" x="286.502" xlink:href="#E" width="744.094" height="1052.362"/><use y="134.765" x="292.037" xlink:href="#F" width="744.094" height="1052.362"/><g><use y="134.765" x="295.915" xlink:href="#G" width="744.094" height="1052.362"/></g><g><use y="134.765" x="303.823" xlink:href="#I" width="744.094" height="1052.362"/></g><g><use y="130.842" x="314.981" xlink:href="#J" width="744.094" height="1052.362"/></g><path d="M314.98 132.273h4.91" stroke-width=".398" stroke-miterlimit="10"/><g><use y="138.2" x="315.45" xlink:href="#K" width="744.094" height="1052.362"/></g><g><use y="134.765" x="321.085" xlink:href="#H" width="744.094" height="1052.362"/></g></g><path fill="#fff" stroke="#fff" stroke-width="3" stroke-linecap="round" d="M748.003 140.605h736.364v771.152H748.003z"/><g stroke="#ccc" stroke-width="1.019" fill="none"><g stroke-width="2.509"><path d="M877.058 227.272V825.09M936.84 227.272V825.09M996.621 227.272V825.09M1056.403 227.272V825.09M1116.185 227.272V825.09M1175.967 227.272V825.09M1235.748 227.272V825.09M1295.53 227.272V825.09M1355.312 227.272V825.09" stroke-width="1.49993038"/></g><g stroke-width="2.509"><path d="M817.276 287.054h597.818M817.276 346.836h597.818M817.276 406.618h597.818M817.276 466.4h597.818M817.276 526.181h597.818M817.276 585.963h597.818M817.276 645.744h597.818M817.276 705.526h597.818M817.276 765.308h597.818" stroke-width="1.49993038"/></g><g stroke-width=".836"><path d="M823.254 227.272V825.09M829.233 227.272V825.09M835.21 227.272V825.09M841.189 227.272V825.09M847.167 227.272V825.09M853.145 227.272V825.09M859.123 227.272V825.09M865.102 227.272V825.09M871.08 227.272V825.09M883.036 227.272V825.09M889.014 227.272V825.09M894.992 227.272V825.09M900.97 227.272V825.09M906.949 227.272V825.09M912.927 227.272V825.09M918.905 227.272V825.09M924.883 227.272V825.09M930.862 227.272V825.09M942.818 227.272V825.09M948.796 227.272V825.09M954.774 227.272V825.09M960.752 227.272V825.09M966.73 227.272V825.09M972.709 227.272V825.09M978.687 227.272V825.09M984.665 227.272V825.09M990.643 227.272V825.09M1002.6 227.272V825.09M1008.578 227.272V825.09M1014.556 227.272V825.09M1020.534 227.272V825.09M1026.512 227.272V825.09M1032.49 227.272V825.09M1038.469 227.272V825.09M1044.447 227.272V825.09M1050.425 227.272V825.09M1062.381 227.272V825.09M1068.36 227.272V825.09M1074.338 227.272V825.09M1080.316 227.272V825.09M1086.294 227.272V825.09M1092.272 227.272V825.09M1098.25 227.272V825.09M1104.229 227.272V825.09M1110.207 227.272V825.09M1122.163 227.272V825.09M1128.141 227.272V825.09M1134.12 227.272V825.09M1140.098 227.272V825.09M1146.076 227.272V825.09M1152.054 227.272V825.09M1158.032 227.272V825.09M1164.01 227.272V825.09M1169.988 227.272V825.09M1181.945 227.272V825.09M1187.923 227.272V825.09M1193.901 227.272V825.09M1199.88 227.272V825.09M1205.857 227.272V825.09M1211.836 227.272V825.09M1217.814 227.272V825.09M1223.792 227.272V825.09M1229.77 227.272V825.09M1241.726 227.272V825.09M1247.705 227.272V825.09M1253.683 227.272V825.09M1259.661 227.272V825.09M1265.64 227.272V825.09M1271.617 227.272V825.09M1277.596 227.272V825.09M1283.574 227.272V825.09M1289.552 227.272V825.09M1301.508 227.272V825.09M1307.486 227.272V825.09M1313.465 227.272V825.09M1319.443 227.272V825.09M1325.42 227.272V825.09M1331.4 227.272V825.09M1337.377 227.272V825.09M1343.355 227.272V825.09M1349.334 227.272V825.09M1361.29 227.272V825.09M1367.268 227.272V825.09M1373.246 227.272V825.09M1379.224 227.272V825.09M1385.203 227.272V825.09M1391.18 227.272V825.09M1397.159 227.272V825.09M1403.137 227.272V825.09M1409.115 227.272V825.09" stroke-width=".49977752"/></g><g stroke-width=".836"><path d="M817.276 233.25h597.818M817.276 239.229h597.818M817.276 245.207h597.818M817.276 251.185h597.818M817.276 257.163h597.818M817.276 263.141h597.818M817.276 269.12h597.818M817.276 275.098h597.818M817.276 281.076h597.818M817.276 293.032h597.818M817.276 299.01h597.818M817.276 304.989h597.818M817.276 310.967h597.818M817.276 316.945h597.818M817.276 322.923h597.818M817.276 328.901h597.818M817.276 334.88h597.818M817.276 340.858h597.818M817.276 352.814h597.818M817.276 358.792h597.818M817.276 364.77h597.818M817.276 370.749h597.818M817.276 376.727h597.818M817.276 382.705h597.818M817.276 388.683h597.818M817.276 394.661h597.818M817.276 400.64h597.818M817.276 412.596h597.818M817.276 418.574h597.818M817.276 424.552h597.818M817.276 430.53h597.818M817.276 436.508h597.818M817.276 442.487h597.818M817.276 448.465h597.818M817.276 454.443h597.818M817.276 460.421h597.818M817.276 472.377h597.818M817.276 478.356h597.818M817.276 484.334h597.818M817.276 490.312h597.818M817.276 496.29h597.818M817.276 502.268h597.818M817.276 508.247h597.818M817.276 514.225h597.818M817.276 520.203h597.818M817.276 532.16h597.818M817.276 538.137h597.818M817.276 544.116h597.818M817.276 550.094h597.818M817.276 556.072h597.818M817.276 562.05h597.818M817.276 568.028h597.818M817.276 574.006h597.818M817.276 579.985h597.818M817.276 591.94h597.818M817.276 597.92h597.818M817.276 603.897h597.818M817.276 609.875h597.818M817.276 615.854h597.818M817.276 621.832h597.818M817.276 627.81h597.818M817.276 633.788h597.818M817.276 639.766h597.818M817.276 651.723h597.818M817.276 657.7h597.818M817.276 663.679h597.818M817.276 669.657h597.818M817.276 675.635h597.818M817.276 681.614h597.818M817.276 687.592h597.818M817.276 693.57h597.818M817.276 699.548h597.818M817.276 711.504h597.818M817.276 717.483h597.818M817.276 723.46h597.818M817.276 729.439h597.818M817.276 735.417h597.818M817.276 741.395h597.818M817.276 747.373h597.818M817.276 753.352h597.818M817.276 759.33h597.818M817.276 771.286h597.818M817.276 777.264h597.818M817.276 783.242h597.818M817.276 789.22h597.818M817.276 795.199h597.818M817.276 801.177h597.818M817.276 807.155h597.818M817.276 813.133h597.818M817.276 819.112h597.818" stroke-width=".49977752"/></g><path stroke-width="1.49993038" d="M817.276 227.272h597.818V825.09H817.275z"/></g><path d="M1098.214 182.503c.191-.575.191-.639.191-.958 0-.703-.575-1.086-1.214-1.086-.383 0-1.022.255-1.405.83-.064.256-.447 1.47-.575 2.237-.32 1.022-.575 2.172-.83 3.258l-1.854 7.348c-.127.575-1.916 3.45-4.6 3.45-2.044 0-2.492-1.79-2.492-3.323 0-1.853.703-4.408 2.045-7.986.639-1.661.83-2.108.83-2.94 0-1.788-1.277-3.321-3.322-3.321-3.897 0-5.367 5.941-5.367 6.26 0 .448.384.448.448.448.447 0 .447-.128.639-.767 1.15-3.833 2.747-5.047 4.152-5.047.32 0 1.023 0 1.023 1.278 0 1.022-.448 2.108-.703 2.875-1.661 4.345-2.364 6.645-2.364 8.561 0 3.642 2.556 4.856 4.983 4.856 1.598 0 2.94-.703 4.09-1.853-.512 2.109-1.023 4.153-2.62 6.325-1.086 1.342-2.62 2.556-4.472 2.556-.575 0-2.428-.128-3.131-1.725.639 0 1.214 0 1.725-.511.447-.32.83-.895.83-1.661 0-1.278-1.086-1.406-1.469-1.406-.958 0-2.3.64-2.3 2.62 0 2.044 1.789 3.578 4.345 3.578 4.152 0 8.37-3.706 9.52-8.306zm0 0"/><g fill="none" stroke="#000" stroke-width=".948"><path d="M1128.344 406.674h-24.319M1128.344 346.892h-24.319M1128.344 287.11h-24.319M1128.344 227.329h-24.319M1128.344 586.02h-24.319M1128.344 645.8h-24.319M1128.344 705.583h-24.319M1128.344 765.364h-24.319M1128.344 825.146h-24.319" stroke-width="1.55896704"/></g><path d="M1126.065 466.456h-23.913" fill="none" stroke="#000" stroke-width="2"/><path d="M1457.758 550.089c.255-1.022 1.214-4.792 4.025-4.792.192 0 1.214 0 2.044.511-1.15.256-1.916 1.214-1.916 2.237 0 .638.447 1.405 1.533 1.405.895 0 2.172-.703 2.172-2.364 0-2.108-2.364-2.683-3.77-2.683-2.363 0-3.769 2.172-4.28 3.067-1.022-2.684-3.194-3.067-4.408-3.067-4.217 0-6.581 5.239-6.581 6.261 0 .447.447.447.511.447.32 0 .447-.127.511-.447 1.406-4.345 4.09-5.367 5.495-5.367.766 0 2.172.384 2.172 2.748 0 1.277-.703 3.96-2.172 9.711-.64 2.492-2.109 4.217-3.898 4.217-.255 0-1.15 0-2.044-.511 1.022-.256 1.917-1.087 1.917-2.237 0-1.086-.895-1.405-1.47-1.405-1.278 0-2.236 1.022-2.236 2.364 0 1.853 1.98 2.683 3.77 2.683 2.747 0 4.216-2.875 4.28-3.067.511 1.47 1.98 3.067 4.409 3.067 4.216 0 6.517-5.239 6.517-6.261 0-.447-.32-.447-.448-.447-.383 0-.447.191-.575.447-1.341 4.408-4.089 5.367-5.367 5.367-1.597 0-2.236-1.278-2.236-2.684 0-.894.192-1.789.64-3.578zm0 0"/><path d="M770.07 526.181h686.055" fill="none" stroke="#000" stroke-width="3" marker-end="url(#a)"/><path d="M1175.967 513.912v23.912" fill="none" stroke="#000" stroke-width="2"/><use height="1052.362" width="744.094" transform="translate(803.962 -.483)" xlink:href="#b"/><use height="1052.362" width="744.094" transform="translate(863.744)" xlink:href="#b"/><use height="1052.362" width="744.094" transform="translate(923.526)" xlink:href="#b"/><use height="1052.362" width="744.094" transform="translate(505.054 -.604)" xlink:href="#b"/><use height="1052.362" width="744.094" transform="translate(445.272 -.483)" xlink:href="#b"/><use height="1052.362" width="744.094" transform="translate(385.49)" xlink:href="#b"/><use xlink:href="#b" transform="translate(564.836 -.248)" width="744.094" height="1052.362"/><use xlink:href="#b" transform="translate(624.617 -.063)" width="1052.362" height="744.094"/><use xlink:href="#b" transform="translate(983.308 -.667)" width="1052.362" height="744.094"/><g fill="#4d4d4d" stroke="green" stroke-width="1.18"><use height="1052.362" width="744.094" y="134.765" x="223.432" xlink:href="#c" transform="matrix(2.5424 0 0 2.5424 601.4 216.068)" ns0:preamble="/home/waldgeist/data/sphinx/test.tex" ns0:text="$1$"/><g ns0:text="$-1$" ns0:preamble="/home/waldgeist/data/sphinx/test.tex"><use height="1052.362" width="744.094" xlink:href="#d" x="223.432" y="134.765" transform="matrix(2.5424 0 0 2.5424 461.883 216.068)"/><use height="1052.362" width="744.094" xlink:href="#e" x="231.181" y="134.765" transform="matrix(2.5424 0 0 2.5424 461.883 216.068)"/></g><g ns0:preamble="/home/waldgeist/data/sphinx/test.tex" ns0:text="$-2$"><use y="134.765" x="223.432" xlink:href="#f" width="744.094" height="1052.362" transform="matrix(2.5424 0 0 2.5424 402.09 216.068)"/><use y="134.765" x="231.181" xlink:href="#g" width="744.094" height="1052.362" transform="matrix(2.5424 0 0 2.5424 402.09 216.068)"/></g><g ns0:text="$-3$" ns0:preamble="/home/waldgeist/data/sphinx/test.tex"><use height="1052.362" width="744.094" xlink:href="#h" x="223.432" y="134.765" transform="matrix(2.5424 0 0 2.5424 342.78 215.79)"/><use height="1052.362" width="744.094" xlink:href="#i" x="231.181" y="134.765" transform="matrix(2.5424 0 0 2.5424 342.78 215.79)"/></g><g ns0:preamble="/home/waldgeist/data/sphinx/test.tex" ns0:text="$-4$"><use height="1052.362" width="744.094" y="134.765" x="223.432" xlink:href="#j" transform="matrix(2.5424 0 0 2.5424 280.69 216.207)"/><use height="1052.362" width="744.094" y="134.765" x="231.181" xlink:href="#k" transform="matrix(2.5424 0 0 2.5424 280.69 216.207)"/></g><g ns0:text="$-5$" ns0:preamble="/home/waldgeist/data/sphinx/test.tex"><use height="1052.362" width="744.094" xlink:href="#l" x="223.432" y="134.765" transform="matrix(2.5424 0 0 2.5424 223.192 215.79)"/><use height="1052.362" width="744.094" xlink:href="#m" x="231.181" y="134.765" transform="matrix(2.5424 0 0 2.5424 223.192 215.79)"/></g><use y="134.765" x="223.432" xlink:href="#n" transform="matrix(2.5424 0 0 2.5424 661.267 216.068)" width="744.094" height="1052.362" ns0:preamble="/home/waldgeist/data/sphinx/test.tex" ns0:text="$2$"/><use height="1052.362" width="744.094" xlink:href="#o" x="223.432" y="134.765" transform="matrix(2.5424 0 0 2.5424 720.564 215.79)" ns0:text="$3$" ns0:preamble="/home/waldgeist/data/sphinx/test.tex"/><use y="134.765" x="223.432" xlink:href="#p" width="744.094" height="1052.362" transform="matrix(2.5424 0 0 2.5424 778.666 216.207)" ns0:preamble="/home/waldgeist/data/sphinx/test.tex" ns0:text="$4$"/><use height="1052.362" width="744.094" xlink:href="#q" x="223.432" y="134.765" transform="matrix(2.5424 0 0 2.5424 840.634 215.79)" ns0:text="$5$" ns0:preamble="/home/waldgeist/data/sphinx/test.tex"/></g><g fill="#4d4d4d" stroke="green" stroke-width="1.18"><g ns0:preamble="/home/waldgeist/data/sphinx/test.tex" ns0:text="$-1$"><use y="134.765" x="223.432" xlink:href="#d" width="744.094" height="1052.362" transform="matrix(2.5424 0 0 2.5424 500.042 251.833)"/><use y="134.765" x="231.181" xlink:href="#e" width="744.094" height="1052.362" transform="matrix(2.5424 0 0 2.5424 500.042 251.833)"/></g><g ns0:text="$-2$" ns0:preamble="/home/waldgeist/data/sphinx/test.tex"><use height="1052.362" width="744.094" xlink:href="#f" x="223.432" y="134.765" transform="matrix(2.5424 0 0 2.5424 499.287 311.615)"/><use height="1052.362" width="744.094" xlink:href="#g" x="231.181" y="134.765" transform="matrix(2.5424 0 0 2.5424 499.287 311.615)"/></g><g ns0:preamble="/home/waldgeist/data/sphinx/test.tex" ns0:text="$-3$"><use y="134.765" x="223.432" xlink:href="#h" width="744.094" height="1052.362" transform="matrix(2.5424 0 0 2.5424 499.049 371.118)"/><use y="134.765" x="231.181" xlink:href="#i" width="744.094" height="1052.362" transform="matrix(2.5424 0 0 2.5424 499.049 371.118)"/></g><g ns0:text="$-4$" ns0:preamble="/home/waldgeist/data/sphinx/test.tex"><use xlink:href="#j" x="223.432" y="134.765" width="744.094" height="1052.362" transform="matrix(2.5424 0 0 2.5424 498.731 431.317)"/><use xlink:href="#k" x="231.181" y="134.765" width="744.094" height="1052.362" transform="matrix(2.5424 0 0 2.5424 498.731 431.317)"/></g><g ns0:preamble="/home/waldgeist/data/sphinx/test.tex" ns0:text="$-5$"><use y="134.765" x="223.432" xlink:href="#l" width="744.094" height="1052.362" transform="matrix(2.5424 0 0 2.5424 499.287 490.682)"/><use y="134.765" x="231.181" xlink:href="#m" width="744.094" height="1052.362" transform="matrix(2.5424 0 0 2.5424 499.287 490.682)"/></g><use xlink:href="#c" x="223.432" y="134.765" width="744.094" height="1052.362" transform="matrix(2.5424 0 0 2.5424 519.743 132.27)" ns0:text="$1$" ns0:preamble="/home/waldgeist/data/sphinx/test.tex"/><use height="1052.362" width="744.094" transform="matrix(2.5424 0 0 2.5424 518.988 72.488)" xlink:href="#n" x="223.432" y="134.765" ns0:text="$2$" ns0:preamble="/home/waldgeist/data/sphinx/test.tex"/><use y="134.765" x="223.432" xlink:href="#o" width="744.094" height="1052.362" transform="matrix(2.5424 0 0 2.5424 518.75 12.428)" ns0:preamble="/home/waldgeist/data/sphinx/test.tex" ns0:text="$3$"/><use height="1052.362" width="744.094" xlink:href="#p" x="223.432" y="134.765" transform="matrix(2.5424 0 0 2.5424 518.432 -46.937)" ns0:text="$4$" ns0:preamble="/home/waldgeist/data/sphinx/test.tex"/><use y="134.765" x="223.432" xlink:href="#q" width="744.094" height="1052.362" transform="matrix(2.5424 0 0 2.5424 518.988 -107.136)" ns0:preamble="/home/waldgeist/data/sphinx/test.tex" ns0:text="$5$"/></g><use xlink:href="#r" transform="rotate(-90 744.095 154.09)" width="744.094" height="1052.362"/><path d="M817.434 410.197c7.764-5.333 10.855-4.723 15.463-4.885 14.118-.495 28.239 10.02 42.358 28.404 21.687 28.237 43.374 75.472 65.061 118.101 21.687 42.63 43.374 78.778 65.061 90.477 21.687 11.7 43.374-1.67 65.061-33.34 21.687-31.67 43.374-80.344 65.061-121.712 21.687-41.367 43.374-73.596 65.061-80.68 21.687-7.085 43.374 11.397 65.061 46.128 21.687 34.731 43.374 84.274 65.061 123.895 21.687 39.62 43.355 68.378 65.061 69.938 6.547.47 13.013-1.393 19.073-5.635" fill="none" stroke="#0f0" stroke-width="3" stroke-linecap="round"/><path d="M817.27 473.019c3.452 1.754 6.903 3.766 10.355 6.013 21.687 14.118 43.374 37.736 65.061 59.05 21.687 21.315 43.374 39.39 65.061 45.24 21.687 5.849 43.374-.836 65.061-16.671 21.687-15.835 43.374-40.172 65.061-60.856 21.687-20.684 43.374-36.798 65.061-40.34 21.687-3.542 43.374 5.699 65.061 23.064 21.687 17.366 43.374 42.137 65.061 61.947 21.687 19.81 43.355 34.19 65.061 34.97 6.547.235 13.013-.697 19.073-2.818 18.318-5.237 33.73-17.284 48.1-29.691" fill="none" stroke="#00d400" stroke-width="3" stroke-linecap="round"/><g fill="none" stroke="green" stroke-width="2.454" stroke-linecap="round"><path d="M1183.433 414.731c-21.6 2.203-43.201 27.987-64.801 64.563-21.6 36.575-43.201 82.31-64.802 114.371-21.6 32.062-43.2 49.123-64.8 42.583-21.601-6.54-43.202-36.291-64.802-74.48-21.6-38.187-43.201-83.12-64.801-112.356-14.158-19.16-29.328-30.916-41.697-34.294-2.97-.836-6.892-1.359-8.34-1.402" transform="matrix(1 0 0 1.49414 7.752 -260.01)"/><path d="M999 637.402c14.063-.158 28.126-9.25 42.188-26.221 21.6-26.067 43.201-69.67 64.802-109.024 21.6-39.352 43.2-72.723 64.8-83.523 21.601-10.8 43.202 1.543 64.802 30.779 21.6 29.235 43.201 74.168 64.801 112.356 21.6 38.188 43.201 67.94 64.802 74.479 14.05 4.254 28.101-1.478 42.152-14.83" transform="matrix(1 0 0 1.49414 7.752 -260.01)"/></g><g ns0:text="$y = \\text{sin}(x + \\frac{\\pi}{4})$" ns0:preamble="/home/waldgeist/data/sphinx/inkscape-preamble.tex" fill="#00d400" stroke="#00d400" stroke-width="1.18"><use height="1052.362" width="744.094" xlink:href="#textext-d81d5dff-1" x="223.432" y="134.765" transform="matrix(2.5422 0 0 2.5424 362.416 153.26)"/><use height="1052.362" width="744.094" xlink:href="#textext-d81d5dff-4" x="231.441" y="134.765" transform="matrix(2.5422 0 0 2.5424 362.416 153.26)"/><g transform="matrix(2.5422 0 0 2.5424 362.416 153.26)"><use height="1052.362" width="744.094" xlink:href="#textext-d81d5dff-5" x="241.96" y="134.765"/><use height="1052.362" width="744.094" xlink:href="#textext-d81d5dff-6" x="245.889" y="134.765"/><use height="1052.362" width="744.094" xlink:href="#textext-d81d5dff-7" x="248.656" y="134.765"/><use height="1052.362" width="744.094" xlink:href="#textext-d81d5dff-8" x="254.192" y="134.765"/></g><use height="1052.362" width="744.094" xlink:href="#textext-d81d5dff-2" x="258.064" y="134.765" transform="matrix(2.5422 0 0 2.5424 362.416 153.26)"/><use height="1052.362" width="744.094" xlink:href="#textext-d81d5dff-9" x="265.972" y="134.765" transform="matrix(2.5422 0 0 2.5424 362.416 153.26)"/><use height="1052.362" width="744.094" xlink:href="#textext-d81d5dff-12" x="277.13" y="130.842" transform="matrix(2.5422 0 0 2.5424 362.416 153.26)"/><use height="1052.362" width="744.094" xlink:href="#textext-d81d5dff-14" x="277.599" y="138.2" transform="matrix(2.5422 0 0 2.5424 362.416 153.26)"/><use height="1052.362" width="744.094" xlink:href="#textext-d81d5dff-10" x="283.234" y="134.765" transform="matrix(2.5422 0 0 2.5424 362.416 153.26)"/></g><g ns0:text="$y \\!=\\! \\text{sin}(x \\!+\\! \\frac{\\pi}{4})$" ns0:preamble="/home/waldgeist/data/sphinx/inkscape-preamble.tex" transform="matrix(2.5422 0 0 2.5424 -367.765 153.26)" fill="#00d400" stroke="#00d400" stroke-width="1.18"><defs><symbol overflow="visible" id="L"><path d="M4.844-3.797c.047-.14.047-.156.047-.234 0-.172-.141-.266-.297-.266a.455.455 0 0 0-.344.203c-.016.063-.11.36-.14.547-.079.25-.141.531-.204.797L3.453-.953c-.031.14-.469.844-1.125.844-.5 0-.61-.438-.61-.813 0-.453.173-1.078.5-1.953.157-.406.204-.516.204-.719 0-.437-.313-.812-.813-.812-.953 0-1.312 1.453-1.312 1.531 0 .11.094.11.11.11.109 0 .109-.032.156-.188.28-.938.671-1.235 1.015-1.235.078 0 .25 0 .25.313 0 .25-.11.516-.172.703-.406 1.063-.578 1.625-.578 2.094 0 .89.625 1.187 1.219 1.187.39 0 .719-.171 1-.453-.125.516-.25 1.016-.64 1.547-.266.328-.641.625-1.095.625-.14 0-.593-.031-.765-.422.156 0 .297 0 .422-.125a.493.493 0 0 0 .203-.406c0-.313-.266-.344-.36-.344C.829.531.5.687.5 1.171c0 .5.438.876 1.063.876 1.015 0 2.046-.906 2.328-2.031zm0 0" stroke="none"/></symbol><symbol overflow="visible" id="R"><path d="M3.328-3.016c.063-.25.297-1.171.985-1.171.046 0 .296 0 .5.125a.578.578 0 0 0-.47.546c0 .157.11.344.376.344a.546.546 0 0 0 .531-.578c0-.516-.578-.656-.922-.656-.578 0-.922.531-1.047.75-.25-.656-.781-.75-1.078-.75-1.031 0-1.61 1.281-1.61 1.531 0 .11.11.11.126.11.078 0 .11-.032.125-.11.344-1.063 1-1.313 1.344-1.313.187 0 .53.094.53.672 0 .313-.171.97-.53 2.375-.157.61-.516 1.032-.954 1.032-.062 0-.28 0-.5-.125.25-.063.47-.266.47-.547 0-.266-.22-.344-.36-.344-.313 0-.547.25-.547.578 0 .453.484.656.922.656.672 0 1.031-.703 1.047-.75.125.36.484.75 1.078.75 1.031 0 1.594-1.28 1.594-1.53 0-.11-.079-.11-.11-.11-.094 0-.11.047-.14.11-.329 1.077-1 1.312-1.313 1.312-.39 0-.547-.313-.547-.657 0-.218.047-.437.156-.875zm0 0" stroke="none"/></symbol><symbol overflow="visible" id="M"><path d="M6.844-3.266c.156 0 .343 0 .343-.187 0-.203-.187-.203-.328-.203H.891c-.141 0-.329 0-.329.203 0 .187.188.187.329.187zm.015 1.938c.141 0 .329 0 .329-.203 0-.188-.188-.188-.344-.188H.89c-.141 0-.329 0-.329.188 0 .203.188.203.329.203zm0 0" stroke="none"/></symbol><symbol overflow="visible" id="N"><path d="M2.078-1.938c.219.047 1.031.204 1.031.922 0 .5-.343.907-1.125.907-.843 0-1.203-.563-1.39-1.422-.031-.125-.031-.157-.14-.157-.126 0-.126.063-.126.235v1.328c0 .172 0 .234.11.234C.483.11.5.094.688-.094.703-.109.703-.125.89-.312c.437.406.89.421 1.093.421 1.141 0 1.61-.671 1.61-1.39 0-.516-.297-.828-.422-.938-.328-.328-.719-.406-1.14-.484-.563-.11-1.22-.235-1.22-.813 0-.359.25-.765 1.11-.765 1.094 0 1.156.906 1.172 1.203 0 .094.094.094.11.094.14 0 .14-.047.14-.235v-1.015c0-.157 0-.235-.11-.235-.046 0-.078 0-.203.125-.031.032-.125.125-.172.157-.375-.282-.78-.282-.937-.282-1.219 0-1.594.672-1.594 1.235 0 .343.156.625.422.843.328.25.61.313 1.328.454zm0 0" stroke="none"/></symbol><symbol overflow="visible" id="O"><path d="M1.766-4.406l-1.391.11v.312c.64 0 .734.062.734.546V-.75c0 .438-.109.438-.78.438V0c.312-.016.859-.031 1.093-.031.36 0 .703.015 1.047.031v-.313c-.672 0-.703-.046-.703-.437zm.03-1.735a.514.514 0 0 0-.515-.53.537.537 0 0 0-.531.53c0 .266.219.532.531.532a.514.514 0 0 0 .516-.532zm0 0" stroke="none"/></symbol><symbol overflow="visible" id="P"><path d="M1.094-3.422V-.75c0 .438-.11.438-.782.438V0c.36-.016.86-.031 1.141-.031.25 0 .766.015 1.11.031v-.313c-.672 0-.782 0-.782-.437v-1.844c0-1.031.719-1.594 1.344-1.594.64 0 .75.532.75 1.11V-.75c0 .438-.11.438-.781.438V0c.344-.016.86-.031 1.125-.031.25 0 .781.015 1.11.031v-.313c-.516 0-.766 0-.766-.296v-1.907c0-.859 0-1.156-.313-1.515-.14-.172-.469-.375-1.047-.375-.734 0-1.203.422-1.484 1.047v-1.047l-1.407.11v.312c.704 0 .782.062.782.562zm0 0" stroke="none"/></symbol><symbol overflow="visible" id="Q"><path d="M3.297 2.39c0-.03 0-.046-.172-.218C1.891.922 1.562-.968 1.562-2.5c0-1.734.375-3.469 1.61-4.703.125-.125.125-.14.125-.172 0-.078-.031-.11-.094-.11-.11 0-1 .688-1.594 1.954C1.11-4.438.984-3.328.984-2.5c0 .781.11 1.984.657 3.125C2.25 1.844 3.094 2.5 3.203 2.5c.063 0 .094-.031.094-.11zm0 0" stroke="none"/></symbol><symbol overflow="visible" id="S"><path d="M4.078-2.297H6.86c.141 0 .329 0 .329-.203 0-.188-.188-.188-.329-.188H4.08v-2.796c0-.141 0-.329-.204-.329-.203 0-.203.188-.203.329v2.796H.89c-.141 0-.329 0-.329.188 0 .203.188.203.329.203h2.78V.5c0 .14 0 .328.204.328.203 0 .203-.187.203-.328zm0 0" stroke="none"/></symbol><symbol overflow="visible" id="V"><path d="M2.875-2.5c0-.766-.11-1.969-.656-3.11C1.625-6.827.766-7.483.672-7.483a.107.107 0 0 0-.11.109c0 .031 0 .047.188.234.984.985 1.547 2.563 1.547 4.641 0 1.719-.36 3.469-1.594 4.719-.14.125-.14.14-.14.172 0 .062.046.109.109.109.094 0 1-.688 1.578-1.953.516-1.094.625-2.203.625-3.047zm0 0" stroke="none"/></symbol><symbol overflow="visible" id="T"><path d="M2.172-2.531H3c-.11.422-.266 1.047-.266 1.61 0 .28.047.468.079.609.109.359.203.374.312.374.172 0 .328-.14.328-.312 0-.047-.015-.078-.047-.14-.14-.266-.265-.657-.265-1.235 0-.125 0-.406.093-.906h.875c.125 0 .188 0 .266-.047a.31.31 0 0 0 .11-.219C4.484-3 4.311-3 4.186-3H1.563c-.28 0-.484.063-.796.36-.188.156-.454.53-.454.593 0 .078.094.078.126.078.078 0 .078-.015.124-.078.344-.484.782-.484.938-.484h.422c-.219.765-.594 1.594-.797 2.015-.047.079-.11.235-.14.25 0 .032-.016.063-.016.11 0 .11.078.218.25.218.265 0 .343-.312.515-.937zm0 0" stroke="none"/></symbol><symbol overflow="visible" id="U"><path d="M3.688-1.14v-.25h-.782V-4.5c0-.14 0-.203-.14-.203-.094 0-.125 0-.188.11L.266-1.392v.25h2.062v.563c0 .25 0 .328-.578.328h-.188V0c.36-.016.797-.031 1.047-.031.266 0 .704.015 1.063.031v-.25h-.188c-.578 0-.578-.078-.578-.328v-.563zM2.375-3.939v2.547H.531zm0 0" stroke="none"/></symbol></defs><use height="1052.362" width="1488.189" xlink:href="#L" x="223.432" y="134.765"/><use height="1052.362" width="1488.189" xlink:href="#M" x="229.781" y="134.765"/><use height="1052.362" width="1488.189" xlink:href="#N" x="238.636" y="134.765"/><use height="1052.362" width="1488.189" xlink:href="#O" x="242.565" y="134.765"/><use height="1052.362" width="1488.189" xlink:href="#P" x="245.333" y="134.765"/><use height="1052.362" width="1488.189" xlink:href="#Q" x="250.868" y="134.765"/><use height="1052.362" width="1488.189" xlink:href="#R" x="254.743" y="134.765"/><use height="1052.362" width="1488.189" xlink:href="#S" x="260.99" y="134.765"/><use height="1052.362" width="1488.189" xlink:href="#T" x="270.488" y="130.842"/><path d="M270.488 132.273h4.91" stroke-width=".398" stroke-miterlimit="10"/><g><use height="1052.362" width="1488.189" xlink:href="#U" x="270.957" y="138.2"/></g><g><use height="1052.362" width="1488.189" xlink:href="#V" x="276.593" y="134.765"/></g></g><g ns0:preamble="/home/waldgeist/data/sphinx/inkscape-preamble.tex" ns0:text="$y \\!=\\! \\text{sin}(x \\!+\\! \\frac{\\pi}{4})$" fill="#00d400" stroke="#00d400" stroke-width="1.18"><use y="134.765" x="223.432" xlink:href="#L" width="1488.189" height="1052.362" transform="matrix(2.5422 0 0 2.5424 376.759 153.26)"/><use y="134.765" x="229.781" xlink:href="#M" width="1488.189" height="1052.362" transform="matrix(2.5422 0 0 2.5424 376.759 153.26)"/><g transform="matrix(2.5422 0 0 2.5424 376.759 153.26)"><use y="134.765" x="238.636" xlink:href="#N" width="1488.189" height="1052.362"/><use y="134.765" x="242.565" xlink:href="#O" width="1488.189" height="1052.362"/><use y="134.765" x="245.333" xlink:href="#P" width="1488.189" height="1052.362"/><use y="134.765" x="250.868" xlink:href="#Q" width="1488.189" height="1052.362"/></g><use y="134.765" x="254.743" xlink:href="#R" width="1488.189" height="1052.362" transform="matrix(2.5422 0 0 2.5424 376.759 153.26)"/><use y="134.765" x="260.99" xlink:href="#S" width="1488.189" height="1052.362" transform="matrix(2.5422 0 0 2.5424 376.759 153.26)"/><use y="130.842" x="270.488" xlink:href="#T" width="1488.189" height="1052.362" transform="matrix(2.5422 0 0 2.5424 376.759 153.26)"/><path transform="matrix(2.5422 0 0 -2.5424 1064.395 489.554)" d="M0 0h4.91" stroke-width=".398" stroke-miterlimit="10"/><use y="138.2" x="270.957" xlink:href="#U" width="1488.189" height="1052.362" transform="matrix(2.5422 0 0 2.5424 376.759 153.26)"/><use y="134.765" x="276.593" xlink:href="#V" width="1488.189" height="1052.362" transform="matrix(2.5422 0 0 2.5424 376.759 153.26)"/></g><g ns0:preamble="/home/waldgeist/data/sphinx/inkscape-preamble.tex" ns0:text="$y \\!=\\! 2\\!\\cdot\\!\\text{sin}(x)$" fill="green" stroke="green" stroke-width="1.18"><use y="134.765" x="223.432" xlink:href="#W" width="1488.189" height="1052.362" transform="matrix(2.5422 0 0 2.5424 716.595 132.116)"/><use y="134.765" x="229.781" xlink:href="#X" width="1488.189" height="1052.362" transform="matrix(2.5422 0 0 2.5424 716.595 132.116)"/><use y="134.765" x="238.636" xlink:href="#Y" width="1488.189" height="1052.362" transform="matrix(2.5422 0 0 2.5424 716.595 132.116)"/><use y="134.765" x="244.171" xlink:href="#Z" width="1488.189" height="1052.362" transform="matrix(2.5422 0 0 2.5424 716.595 132.116)"/><g transform="matrix(2.5422 0 0 2.5424 716.595 132.116)"><use y="134.765" x="247.492" xlink:href="#aa" width="1488.189" height="1052.362"/><use y="134.765" x="251.421" xlink:href="#ab" width="1488.189" height="1052.362"/><use y="134.765" x="254.189" xlink:href="#ac" width="1488.189" height="1052.362"/><use y="134.765" x="259.724" xlink:href="#ad" width="1488.189" height="1052.362"/></g><use y="134.765" x="263.599" xlink:href="#ae" width="1488.189" height="1052.362" transform="matrix(2.5422 0 0 2.5424 716.595 132.116)"/><use y="134.765" x="269.293" xlink:href="#af" width="1488.189" height="1052.362" transform="matrix(2.5422 0 0 2.5424 716.595 132.116)"/></g><g ns0:text="$y \\!=\\! 2\\!\\cdot\\!\\text{sin}(x)$" ns0:preamble="/home/waldgeist/data/sphinx/inkscape-preamble.tex" transform="matrix(2.5422 0 0 2.5424 716.31 131.934)" fill="#0f0" stroke="green" stroke-width="1.18"><defs><symbol overflow="visible" id="W"><path d="M4.844-3.797c.047-.14.047-.156.047-.234 0-.172-.141-.266-.297-.266a.455.455 0 0 0-.344.203c-.016.063-.11.36-.14.547-.079.25-.141.531-.204.797L3.453-.953c-.031.14-.469.844-1.125.844-.5 0-.61-.438-.61-.813 0-.453.173-1.078.5-1.953.157-.406.204-.516.204-.719 0-.437-.313-.812-.813-.812-.953 0-1.312 1.453-1.312 1.531 0 .11.094.11.11.11.109 0 .109-.032.156-.188.28-.938.671-1.235 1.015-1.235.078 0 .25 0 .25.313 0 .25-.11.516-.172.703-.406 1.063-.578 1.625-.578 2.094 0 .89.625 1.187 1.219 1.187.39 0 .719-.171 1-.453-.125.516-.25 1.016-.64 1.547-.266.328-.641.625-1.095.625-.14 0-.593-.031-.765-.422.156 0 .297 0 .422-.125a.493.493 0 0 0 .203-.406c0-.313-.266-.344-.36-.344C.829.531.5.687.5 1.171c0 .5.438.876 1.063.876 1.015 0 2.046-.906 2.328-2.031zm0 0" stroke="none"/></symbol><symbol overflow="visible" id="ae"><path d="M3.328-3.016c.063-.25.297-1.171.985-1.171.046 0 .296 0 .5.125a.578.578 0 0 0-.47.546c0 .157.11.344.376.344a.546.546 0 0 0 .531-.578c0-.516-.578-.656-.922-.656-.578 0-.922.531-1.047.75-.25-.656-.781-.75-1.078-.75-1.031 0-1.61 1.281-1.61 1.531 0 .11.11.11.126.11.078 0 .11-.032.125-.11.344-1.063 1-1.313 1.344-1.313.187 0 .53.094.53.672 0 .313-.171.97-.53 2.375-.157.61-.516 1.032-.954 1.032-.062 0-.28 0-.5-.125.25-.063.47-.266.47-.547 0-.266-.22-.344-.36-.344-.313 0-.547.25-.547.578 0 .453.484.656.922.656.672 0 1.031-.703 1.047-.75.125.36.484.75 1.078.75 1.031 0 1.594-1.28 1.594-1.53 0-.11-.079-.11-.11-.11-.094 0-.11.047-.14.11-.329 1.077-1 1.312-1.313 1.312-.39 0-.547-.313-.547-.657 0-.218.047-.437.156-.875zm0 0" stroke="none"/></symbol><symbol overflow="visible" id="X"><path d="M6.844-3.266c.156 0 .343 0 .343-.187 0-.203-.187-.203-.328-.203H.891c-.141 0-.329 0-.329.203 0 .187.188.187.329.187zm.015 1.938c.141 0 .329 0 .329-.203 0-.188-.188-.188-.344-.188H.89c-.141 0-.329 0-.329.188 0 .203.188.203.329.203zm0 0" stroke="none"/></symbol><symbol overflow="visible" id="Y"><path d="M1.266-.766l1.062-1.03c1.547-1.376 2.14-1.907 2.14-2.907 0-1.14-.89-1.938-2.109-1.938C1.234-6.64.5-5.719.5-4.828c0 .547.5.547.531.547.172 0 .516-.11.516-.532a.513.513 0 0 0-.531-.515c-.079 0-.094 0-.125.016.218-.657.765-1.016 1.343-1.016.907 0 1.329.812 1.329 1.625 0 .797-.485 1.578-1.047 2.203L.609-.375C.5-.265.5-.235.5 0h3.703l.266-1.734h-.235C4.172-1.438 4.11-1 4-.844c-.063.078-.719.078-.938.078zm0 0" stroke="none"/></symbol><symbol overflow="visible" id="aa"><path d="M2.078-1.938c.219.047 1.031.204 1.031.922 0 .5-.343.907-1.125.907-.843 0-1.203-.563-1.39-1.422-.031-.125-.031-.157-.14-.157-.126 0-.126.063-.126.235v1.328c0 .172 0 .234.11.234C.483.11.5.094.688-.094.703-.109.703-.125.89-.312c.437.406.89.421 1.093.421 1.141 0 1.61-.671 1.61-1.39 0-.516-.297-.828-.422-.938-.328-.328-.719-.406-1.14-.484-.563-.11-1.22-.235-1.22-.813 0-.359.25-.765 1.11-.765 1.094 0 1.156.906 1.172 1.203 0 .094.094.094.11.094.14 0 .14-.047.14-.235v-1.015c0-.157 0-.235-.11-.235-.046 0-.078 0-.203.125-.031.032-.125.125-.172.157-.375-.282-.78-.282-.937-.282-1.219 0-1.594.672-1.594 1.235 0 .343.156.625.422.843.328.25.61.313 1.328.454zm0 0" stroke="none"/></symbol><symbol overflow="visible" id="ab"><path d="M1.766-4.406l-1.391.11v.312c.64 0 .734.062.734.546V-.75c0 .438-.109.438-.78.438V0c.312-.016.859-.031 1.093-.031.36 0 .703.015 1.047.031v-.313c-.672 0-.703-.046-.703-.437zm.03-1.735a.514.514 0 0 0-.515-.53.537.537 0 0 0-.531.53c0 .266.219.532.531.532a.514.514 0 0 0 .516-.532zm0 0" stroke="none"/></symbol><symbol overflow="visible" id="ac"><path d="M1.094-3.422V-.75c0 .438-.11.438-.782.438V0c.36-.016.86-.031 1.141-.031.25 0 .766.015 1.11.031v-.313c-.672 0-.782 0-.782-.437v-1.844c0-1.031.719-1.594 1.344-1.594.64 0 .75.532.75 1.11V-.75c0 .438-.11.438-.781.438V0c.344-.016.86-.031 1.125-.031.25 0 .781.015 1.11.031v-.313c-.516 0-.766 0-.766-.296v-1.907c0-.859 0-1.156-.313-1.515-.14-.172-.469-.375-1.047-.375-.734 0-1.203.422-1.484 1.047v-1.047l-1.407.11v.312c.704 0 .782.062.782.562zm0 0" stroke="none"/></symbol><symbol overflow="visible" id="ad"><path d="M3.297 2.39c0-.03 0-.046-.172-.218C1.891.922 1.562-.968 1.562-2.5c0-1.734.375-3.469 1.61-4.703.125-.125.125-.14.125-.172 0-.078-.031-.11-.094-.11-.11 0-1 .688-1.594 1.954C1.11-4.438.984-3.328.984-2.5c0 .781.11 1.984.657 3.125C2.25 1.844 3.094 2.5 3.203 2.5c.063 0 .094-.031.094-.11zm0 0" stroke="none"/></symbol><symbol overflow="visible" id="af"><path d="M2.875-2.5c0-.766-.11-1.969-.656-3.11C1.625-6.827.766-7.483.672-7.483a.107.107 0 0 0-.11.109c0 .031 0 .047.188.234.984.985 1.547 2.563 1.547 4.641 0 1.719-.36 3.469-1.594 4.719-.14.125-.14.14-.14.172 0 .062.046.109.109.109.094 0 1-.688 1.578-1.953.516-1.094.625-2.203.625-3.047zm0 0" stroke="none"/></symbol><symbol overflow="visible" id="Z"><path d="M1.906-2.5a.524.524 0 1 0-.516.531.524.524 0 0 0 .516-.531zm0 0" stroke="none"/></symbol></defs><use height="1052.362" width="1488.189" xlink:href="#W" x="223.432" y="134.765"/><use height="1052.362" width="1488.189" xlink:href="#X" x="229.781" y="134.765"/><use height="1052.362" width="1488.189" xlink:href="#Y" x="238.636" y="134.765"/><use height="1052.362" width="1488.189" xlink:href="#Z" x="244.171" y="134.765"/><use height="1052.362" width="1488.189" xlink:href="#aa" x="247.492" y="134.765"/><use height="1052.362" width="1488.189" xlink:href="#ab" x="251.421" y="134.765"/><use height="1052.362" width="1488.189" xlink:href="#ac" x="254.189" y="134.765"/><use height="1052.362" width="1488.189" xlink:href="#ad" x="259.724" y="134.765"/><g><use height="1052.362" width="1488.189" xlink:href="#ae" x="263.599" y="134.765"/></g><g><use height="1052.362" width="1488.189" xlink:href="#af" x="269.293" y="134.765"/></g></g><g transform="matrix(2.5422 0 0 2.5424 581.275 6.503)" ns0:preamble="/home/waldgeist/data/sphinx/inkscape-preamble.tex" ns0:text="$y = 2\\!\\cdot\\!\\text{sin}(x) \\!+\\! \\text{sin}(x \\!+\\! \\frac{\\pi}{4})$" fill="green" stroke="green" stroke-width="1.18"><defs><symbol id="ag" overflow="visible"><path d="M4.844-3.797c.047-.14.047-.156.047-.234 0-.172-.141-.266-.297-.266a.455.455 0 0 0-.344.203c-.016.063-.11.36-.14.547-.079.25-.141.531-.204.797L3.453-.953c-.031.14-.469.844-1.125.844-.5 0-.61-.438-.61-.813 0-.453.173-1.078.5-1.953.157-.406.204-.516.204-.719 0-.437-.313-.812-.813-.812-.953 0-1.312 1.453-1.312 1.531 0 .11.094.11.11.11.109 0 .109-.032.156-.188.28-.938.671-1.235 1.015-1.235.078 0 .25 0 .25.313 0 .25-.11.516-.172.703-.406 1.063-.578 1.625-.578 2.094 0 .89.625 1.187 1.219 1.187.39 0 .719-.171 1-.453-.125.516-.25 1.016-.64 1.547-.266.328-.641.625-1.095.625-.14 0-.593-.031-.765-.422.156 0 .297 0 .422-.125a.493.493 0 0 0 .203-.406c0-.313-.266-.344-.36-.344C.829.531.5.687.5 1.171c0 .5.438.876 1.063.876 1.015 0 2.046-.906 2.328-2.031zm0 0" stroke="none"/></symbol><symbol id="ao" overflow="visible"><path d="M3.328-3.016c.063-.25.297-1.171.985-1.171.046 0 .296 0 .5.125a.578.578 0 0 0-.47.546c0 .157.11.344.376.344a.546.546 0 0 0 .531-.578c0-.516-.578-.656-.922-.656-.578 0-.922.531-1.047.75-.25-.656-.781-.75-1.078-.75-1.031 0-1.61 1.281-1.61 1.531 0 .11.11.11.126.11.078 0 .11-.032.125-.11.344-1.063 1-1.313 1.344-1.313.187 0 .53.094.53.672 0 .313-.171.97-.53 2.375-.157.61-.516 1.032-.954 1.032-.062 0-.28 0-.5-.125.25-.063.47-.266.47-.547 0-.266-.22-.344-.36-.344-.313 0-.547.25-.547.578 0 .453.484.656.922.656.672 0 1.031-.703 1.047-.75.125.36.484.75 1.078.75 1.031 0 1.594-1.28 1.594-1.53 0-.11-.079-.11-.11-.11-.094 0-.11.047-.14.11-.329 1.077-1 1.312-1.313 1.312-.39 0-.547-.313-.547-.657 0-.218.047-.437.156-.875zm0 0" stroke="none"/></symbol><symbol id="ah" overflow="visible"><path d="M6.844-3.266c.156 0 .343 0 .343-.187 0-.203-.187-.203-.328-.203H.891c-.141 0-.329 0-.329.203 0 .187.188.187.329.187zm.015 1.938c.141 0 .329 0 .329-.203 0-.188-.188-.188-.344-.188H.89c-.141 0-.329 0-.329.188 0 .203.188.203.329.203zm0 0" stroke="none"/></symbol><symbol id="ai" overflow="visible"><path d="M1.266-.766l1.062-1.03c1.547-1.376 2.14-1.907 2.14-2.907 0-1.14-.89-1.938-2.109-1.938C1.234-6.64.5-5.719.5-4.828c0 .547.5.547.531.547.172 0 .516-.11.516-.532a.513.513 0 0 0-.531-.515c-.079 0-.094 0-.125.016.218-.657.765-1.016 1.343-1.016.907 0 1.329.812 1.329 1.625 0 .797-.485 1.578-1.047 2.203L.609-.375C.5-.265.5-.235.5 0h3.703l.266-1.734h-.235C4.172-1.438 4.11-1 4-.844c-.063.078-.719.078-.938.078zm0 0" stroke="none"/></symbol><symbol id="ak" overflow="visible"><path d="M2.078-1.938c.219.047 1.031.204 1.031.922 0 .5-.343.907-1.125.907-.843 0-1.203-.563-1.39-1.422-.031-.125-.031-.157-.14-.157-.126 0-.126.063-.126.235v1.328c0 .172 0 .234.11.234C.483.11.5.094.688-.094.703-.109.703-.125.89-.312c.437.406.89.421 1.093.421 1.141 0 1.61-.671 1.61-1.39 0-.516-.297-.828-.422-.938-.328-.328-.719-.406-1.14-.484-.563-.11-1.22-.235-1.22-.813 0-.359.25-.765 1.11-.765 1.094 0 1.156.906 1.172 1.203 0 .094.094.094.11.094.14 0 .14-.047.14-.235v-1.015c0-.157 0-.235-.11-.235-.046 0-.078 0-.203.125-.031.032-.125.125-.172.157-.375-.282-.78-.282-.937-.282-1.219 0-1.594.672-1.594 1.235 0 .343.156.625.422.843.328.25.61.313 1.328.454zm0 0" stroke="none"/></symbol><symbol id="al" overflow="visible"><path d="M1.766-4.406l-1.391.11v.312c.64 0 .734.062.734.546V-.75c0 .438-.109.438-.78.438V0c.312-.016.859-.031 1.093-.031.36 0 .703.015 1.047.031v-.313c-.672 0-.703-.046-.703-.437zm.03-1.735a.514.514 0 0 0-.515-.53.537.537 0 0 0-.531.53c0 .266.219.532.531.532a.514.514 0 0 0 .516-.532zm0 0" stroke="none"/></symbol><symbol id="am" overflow="visible"><path d="M1.094-3.422V-.75c0 .438-.11.438-.782.438V0c.36-.016.86-.031 1.141-.031.25 0 .766.015 1.11.031v-.313c-.672 0-.782 0-.782-.437v-1.844c0-1.031.719-1.594 1.344-1.594.64 0 .75.532.75 1.11V-.75c0 .438-.11.438-.781.438V0c.344-.016.86-.031 1.125-.031.25 0 .781.015 1.11.031v-.313c-.516 0-.766 0-.766-.296v-1.907c0-.859 0-1.156-.313-1.515-.14-.172-.469-.375-1.047-.375-.734 0-1.203.422-1.484 1.047v-1.047l-1.407.11v.312c.704 0 .782.062.782.562zm0 0" stroke="none"/></symbol><symbol id="an" overflow="visible"><path d="M3.297 2.39c0-.03 0-.046-.172-.218C1.891.922 1.562-.968 1.562-2.5c0-1.734.375-3.469 1.61-4.703.125-.125.125-.14.125-.172 0-.078-.031-.11-.094-.11-.11 0-1 .688-1.594 1.954C1.11-4.438.984-3.328.984-2.5c0 .781.11 1.984.657 3.125C2.25 1.844 3.094 2.5 3.203 2.5c.063 0 .094-.031.094-.11zm0 0" stroke="none"/></symbol><symbol id="ap" overflow="visible"><path d="M2.875-2.5c0-.766-.11-1.969-.656-3.11C1.625-6.827.766-7.483.672-7.483a.107.107 0 0 0-.11.109c0 .031 0 .047.188.234.984.985 1.547 2.563 1.547 4.641 0 1.719-.36 3.469-1.594 4.719-.14.125-.14.14-.14.172 0 .062.046.109.109.109.094 0 1-.688 1.578-1.953.516-1.094.625-2.203.625-3.047zm0 0" stroke="none"/></symbol><symbol id="aq" overflow="visible"><path d="M4.078-2.297H6.86c.141 0 .329 0 .329-.203 0-.188-.188-.188-.329-.188H4.08v-2.796c0-.141 0-.329-.204-.329-.203 0-.203.188-.203.329v2.796H.89c-.141 0-.329 0-.329.188 0 .203.188.203.329.203h2.78V.5c0 .14 0 .328.204.328.203 0 .203-.187.203-.328zm0 0" stroke="none"/></symbol><symbol id="aj" overflow="visible"><path d="M1.906-2.5a.524.524 0 1 0-.516.531.524.524 0 0 0 .516-.531zm0 0" stroke="none"/></symbol><symbol id="ar" overflow="visible"><path d="M2.172-2.531H3c-.11.422-.266 1.047-.266 1.61 0 .28.047.468.079.609.109.359.203.374.312.374.172 0 .328-.14.328-.312 0-.047-.015-.078-.047-.14-.14-.266-.265-.657-.265-1.235 0-.125 0-.406.093-.906h.875c.125 0 .188 0 .266-.047a.31.31 0 0 0 .11-.219C4.484-3 4.311-3 4.186-3H1.563c-.28 0-.484.063-.796.36-.188.156-.454.53-.454.593 0 .078.094.078.126.078.078 0 .078-.015.124-.078.344-.484.782-.484.938-.484h.422c-.219.765-.594 1.594-.797 2.015-.047.079-.11.235-.14.25 0 .032-.016.063-.016.11 0 .11.078.218.25.218.265 0 .343-.312.515-.937zm0 0" stroke="none"/></symbol><symbol id="as" overflow="visible"><path d="M3.688-1.14v-.25h-.782V-4.5c0-.14 0-.203-.14-.203-.094 0-.125 0-.188.11L.266-1.392v.25h2.062v.563c0 .25 0 .328-.578.328h-.188V0c.36-.016.797-.031 1.047-.031.266 0 .704.015 1.063.031v-.25h-.188c-.578 0-.578-.078-.578-.328v-.563zM2.375-3.939v2.547H.531zm0 0" stroke="none"/></symbol></defs><use y="134.765" x="223.432" xlink:href="#ag" width="1488.189" height="1052.362"/><use y="134.765" x="231.441" xlink:href="#ah" width="1488.189" height="1052.362"/><use y="134.765" x="241.96" xlink:href="#ai" width="1488.189" height="1052.362"/><use y="134.765" x="247.492" xlink:href="#aj" width="1488.189" height="1052.362"/><use y="134.765" x="250.813" xlink:href="#ak" width="1488.189" height="1052.362"/><use y="134.765" x="254.742" xlink:href="#al" width="1488.189" height="1052.362"/><use y="134.765" x="257.51" xlink:href="#am" width="1488.189" height="1052.362"/><use y="134.765" x="263.045" xlink:href="#an" width="1488.189" height="1052.362"/><use y="134.765" x="266.919" xlink:href="#ao" width="1488.189" height="1052.362"/><use y="134.765" x="272.613" xlink:href="#ap" width="1488.189" height="1052.362"/><use y="134.765" x="277.045" xlink:href="#aq" width="1488.189" height="1052.362"/><use y="134.765" x="285.342" xlink:href="#ak" width="1488.189" height="1052.362"/><use y="134.765" x="289.271" xlink:href="#al" width="1488.189" height="1052.362"/><use y="134.765" x="292.039" xlink:href="#am" width="1488.189" height="1052.362"/><use y="134.765" x="297.574" xlink:href="#an" width="1488.189" height="1052.362"/><g><use y="134.765" x="301.45" xlink:href="#ao" width="1488.189" height="1052.362"/></g><g><use y="134.765" x="307.697" xlink:href="#aq" width="1488.189" height="1052.362"/></g><g><use y="130.842" x="317.195" xlink:href="#ar" width="1488.189" height="1052.362"/></g><path d="M317.195 132.273h4.91" stroke-width=".398" stroke-miterlimit="10"/><g><use y="138.2" x="317.664" xlink:href="#as" width="1488.189" height="1052.362"/></g><g><use y="134.765" x="323.299" xlink:href="#ap" width="1488.189" height="1052.362"/></g></g></g></svg>