<svg xmlns="http://www.w3.org/2000/svg" width="1052.362" height="744.094"><title>Wellenfronten und Ausbreitungsrichtungen von Wellen</title><defs><linearGradient id="a"><stop offset="0" stop-color="#2727ff"/><stop offset=".092" stop-color="#00f"/><stop offset=".357" stop-color="#2828ff"/><stop offset=".425" stop-color="#0000b7"/><stop offset=".644" stop-color="#3434ff"/><stop offset=".774" stop-color="#0000b9"/><stop offset=".963" stop-color="#44f"/><stop offset="1" stop-color="#00f"/></linearGradient><linearGradient id="b"><stop offset="0" stop-color="#a8a8ff" stop-opacity=".307"/><stop offset=".09" stop-color="#0000b4"/><stop offset=".226" stop-color="#0101f4"/><stop offset=".327" stop-color="#0202b7"/><stop offset=".564" stop-color="#1313fa"/><stop offset=".682" stop-color="#0909c6"/><stop offset=".757" stop-color="#2828ed"/><stop offset=".895" stop-color="#0000ef" stop-opacity=".49"/><stop offset=".959" stop-color="#00f" stop-opacity=".244"/><stop offset="1" stop-color="#0000ab" stop-opacity="0"/></linearGradient></defs><path style="marker:none" color="#000" fill="#fff" stroke="#fff" stroke-linecap="round" overflow="visible" d="M11.954 119.84h1028.454v504.414H11.954z"/><g stroke="#59f" stroke-width="7.004" fill="none" stroke-linecap="round"><path d="M130.356 244.25c67.017 102.168 203.9 102.168 270.908.011M401.622 244.25c67.017 102.168 203.9 102.168 270.908.011M672.53 244.261c67.017 102.169 203.9 102.169 270.909.012M59.116 306.772c27.275-12.512 52.106-33.352 71.24-62.523" transform="matrix(.43845 0 0 .41844 10.378 256.52)"/></g><g stroke="#59f" stroke-width="7.004" fill="none" stroke-linecap="round"><path d="M130.356 244.25c67.017 102.168 203.9 102.168 270.908.011M401.622 244.25c67.017 102.168 203.9 102.168 270.908.011M672.53 244.261c67.017 102.169 203.9 102.169 270.909.012M59.116 306.772c27.275-12.512 52.106-33.352 71.24-62.523" transform="matrix(.43845 0 0 .41844 5.353 191.845)"/></g><g stroke="#59f" stroke-width="7.004" fill="none" stroke-linecap="round"><path d="M130.356 244.25c67.017 102.168 203.9 102.168 270.908.011M401.622 244.25c67.017 102.168 203.9 102.168 270.908.011M672.53 244.261c67.017 102.169 203.9 102.169 270.909.012M59.116 306.772c27.275-12.512 52.106-33.352 71.24-62.523" transform="matrix(.43845 0 0 .41844 7.866 224.183)"/></g><path d="M188.248 367.806l-3.158-26.8 26.96-1.147-23.802 27.947" fill="#fff" stroke="#fff"/><g stroke="#59f" stroke-width="7.004" fill="none" stroke-linecap="round"><path d="M130.356 244.25c67.017 102.168 203.9 102.168 270.908.011M401.622 244.25c67.017 102.168 203.9 102.168 270.908.011M672.53 244.261c67.017 102.169 203.9 102.169 270.909.012M59.116 306.772c27.275-12.512 52.106-33.352 71.24-62.523" transform="matrix(.43845 0 0 .41844 12.89 288.858)"/></g><g stroke="#59f" stroke-width="7.004" fill="none" stroke-linecap="round"><path d="M130.356 244.25c67.017 102.168 203.9 102.168 270.908.011M401.622 244.25c67.017 102.168 203.9 102.168 270.908.011M672.53 244.261c67.017 102.169 203.9 102.169 270.909.012M59.116 306.772c27.275-12.512 52.106-33.352 71.24-62.523" transform="matrix(.43845 0 0 .41844 15.403 321.196)"/></g><path d="M194.116 445.334l-3.158-26.8 26.961-1.147z" fill="#fff" stroke="#fff"/><g stroke="#59f" stroke-width="7.004" fill="none" stroke-linecap="round"><path d="M130.356 244.25c67.017 102.168 203.9 102.168 270.908.011M401.622 244.25c67.017 102.168 203.9 102.168 270.908.011M672.53 244.261c67.017 102.169 203.9 102.169 270.909.012M59.116 306.772c27.275-12.512 52.106-33.352 71.24-62.523" transform="matrix(.43845 0 0 .41844 17.916 353.534)"/></g><path d="M59.116 306.772c27.275-12.512 52.106-33.352 71.24-62.523" fill="none" stroke-linecap="round" transform="matrix(.4235 -.11348 .1083 .40418 547.834 309.823)" stroke="#59f" stroke-width="7.004"/><g stroke="#59f" stroke-width="7.004" fill="none" stroke-linecap="round"><path transform="matrix(.43179 -.07614 .07266 .41208 558.396 305.314)" d="M130.356 244.25c67.017 102.168 203.9 102.168 270.908.011M401.622 244.25c67.017 102.168 203.9 102.168 270.908.011M672.53 244.261c67.017 102.169 203.9 102.169 270.909.012"/><path d="M59.116 306.772c27.275-12.512 52.106-33.352 71.24-62.523" transform="matrix(.43678 .03821 -.03647 .41685 591.743 297.03)"/></g><path d="M637.486 400.868c29.383 42.751 89.4 42.751 118.779.005M756.422 400.868c29.384 42.751 89.4 42.751 118.78.005M875.201 400.873c29.384 42.751 89.4 42.751 118.779.005" fill="none" stroke="#59f" stroke-width="3" stroke-linecap="round"/><g stroke="#59f" stroke-width="7.004" fill="none" stroke-linecap="round"><path d="M130.356 244.25c67.017 102.168 203.9 102.168 270.908.011M401.622 244.25c67.017 102.168 203.9 102.168 270.908.011M672.53 244.261c67.017 102.169 203.9 102.169 270.909.012M59.116 306.772c27.275-12.512 52.106-33.352 71.24-62.523" transform="matrix(.412 -.14996 .14311 .3932 538.145 315.57)"/></g><g stroke="#59f" stroke-width="7.004" fill="none" stroke-linecap="round"><path d="M130.356 244.25c67.017 102.168 203.9 102.168 270.908.011M401.622 244.25c67.017 102.168 203.9 102.168 270.908.011M672.53 244.261c67.017 102.169 203.9 102.169 270.909.012M59.116 306.772c27.275-12.512 52.106-33.352 71.24-62.523" transform="matrix(.3797 -.21922 .20922 .36238 519.875 329.276)"/></g><g stroke="#59f" stroke-width="7.004" fill="none" stroke-linecap="round"><path d="M130.356 244.25c67.017 102.168 203.9 102.168 270.908.011M401.622 244.25c67.017 102.168 203.9 102.168 270.908.011M672.53 244.261c67.017 102.169 203.9 102.169 270.909.012M59.116 306.772c27.275-12.512 52.106-33.352 71.24-62.523" transform="matrix(.43179 .07614 -.07266 .41208 602.838 296.04)"/></g><g stroke="#59f" stroke-width="7.004" fill="none" stroke-linecap="round"><path d="M130.356 244.25c67.017 102.168 203.9 102.168 270.908.011M401.622 244.25c67.017 102.168 203.9 102.168 270.908.011M672.53 244.261c67.017 102.169 203.9 102.169 270.909.012M59.116 306.772c27.275-12.512 52.106-33.352 71.24-62.523" transform="matrix(.412 .14996 -.14311 .3932 625.803 297.276)"/></g><g stroke="#59f" stroke-width="7.004" fill="none" stroke-linecap="round"><path d="M130.356 244.25c67.017 102.168 203.9 102.168 270.908.011M401.622 244.25c67.017 102.168 203.9 102.168 270.908.011M672.53 244.261c67.017 102.169 203.9 102.169 270.909.012M59.116 306.772c27.275-12.512 52.106-33.352 71.24-62.523" transform="matrix(.33587 -.28183 .26897 .32054 508.24 346.838)"/></g><g stroke="#59f" stroke-width="7.004" fill="none" stroke-linecap="round"><path d="M130.356 244.25c67.017 102.168 203.9 102.168 270.908.011M401.622 244.25c67.017 102.168 203.9 102.168 270.908.011M672.53 244.261c67.017 102.169 203.9 102.169 270.909.012M59.116 306.772c27.275-12.512 52.106-33.352 71.24-62.523" transform="matrix(.43845 0 0 .41844 2.84 159.507)"/></g><path d="M296.328 243.935l19.908 256.224M58.613 243.935L78.522 500.16" fill="#f60" stroke="#008066" stroke-width="4" stroke-linecap="round"/><path style="marker:none" d="M217.92 417.387a26.986 26.986 0 0 1-23.804 27.947M212.05 339.859a26.986 26.986 0 0 1-23.802 27.947" color="#000" fill="#fff" stroke="#00f" stroke-width="3.9993633899999996" stroke-linecap="round" overflow="visible"/><path d="M177.392 243.935L197.3 500.16" fill="#f60" stroke="#008066" stroke-width="4" stroke-linecap="round"/><path d="M450.888 395.356l-4.557 3.263-4.557 3.263-.548-5.578-.547-5.577 5.104 2.314z" style="marker:none" color="#000" fill="#00f" stroke="#00f" stroke-width="5.9997576" stroke-linecap="round" overflow="visible"/><path d="M441.583 396.018L72.557 426.226" fill="#00f" stroke="#00f" stroke-width="4" stroke-linecap="round"/><path style="marker:none" d="M444.994 319.497l-4.557 3.264-4.557 3.263-.548-5.578-.547-5.578 5.104 2.315z" color="#000" fill="#00f" stroke="#00f" stroke-width="5.9997576" stroke-linecap="round" overflow="visible"/><path d="M435.688 320.16L66.663 350.368" fill="#00f" stroke="#00f" stroke-width="4" stroke-linecap="round"/><path d="M203.286 429.145a1.448 1.448 0 1 1-2.896 0 1.448 1.448 0 1 1 2.896 0zM197.605 350.832a1.448 1.448 0 1 1-2.895 0 1.448 1.448 0 1 1 2.895 0z" style="marker:none" color="#000" fill="none" stroke="#00f" stroke-width="3.99986455" stroke-linecap="round" overflow="visible"/><path d="M760.307 441.807l-3.159-26.8 26.962-1.147-23.803 27.947M748.376 360.969l-16.135-21.63 22.775-14.475-6.64 36.105" fill="#fff" stroke="#fff"/><path d="M755.016 324.864a26.986 26.986 0 0 1-8.88 37.607M784.11 413.86a26.986 26.986 0 0 1-23.803 27.948" style="marker:none" color="#000" fill="#fff" stroke="#00f" stroke-width="3.9993633899999996" stroke-linecap="round" overflow="visible"/><path d="M708.711 312.046s10.101 11.59 14.764 17.696c5.338 6.99 10.732 14.004 15.096 21.64 4.366 7.641 8.026 15.719 10.988 24.005a153.434 153.434 0 0 1 6.706 25.486 153.52 153.52 0 0 1 2.24 26.396c-.018 8.776-2.337 26.224-2.337 26.224M799.822 235.596s18.383 22.67 26.52 34.76c8.734 12.975 17.123 26.286 23.847 40.407 6.727 14.127 12.16 28.926 16.345 44.003 4.183 15.069 7.17 30.54 8.667 46.107 1.5 15.604 1.498 31.399.278 47.027-1.216 15.58-7.547 46.272-7.547 46.272M617.718 388.392c19.469 3.035 22.35 18.427 26.836 24.472" fill="none" stroke="#008066" stroke-width="4" stroke-linecap="round"/><path d="M1015.662 393.118l-4.557 3.264-4.557 3.263-.547-5.578-.548-5.578 5.104 2.315z" style="marker:none" color="#000" fill="#00f" stroke="#00f" stroke-width="5.9997576" stroke-linecap="round" overflow="visible"/><path d="M1015.662 393.118L606.25 427.03" fill="#00f" stroke="#00f" stroke-width="4" stroke-linecap="round"/><g><path style="marker:none" d="M947.468 190.653l-2.314 5.105-2.315 5.104-3.263-4.557-3.264-4.556 5.578-.548z" color="#000" fill="#00f" stroke="#00f" stroke-width="5.9997576" stroke-linecap="round" overflow="visible"/><path d="M939.576 196.305L606.29 427.024" fill="#00f" stroke="#00f" stroke-width="4" stroke-linecap="round"/></g><path style="marker:none" d="M769.664 424.834a1.448 1.448 0 1 1-2.896 0 1.448 1.448 0 1 1 2.896 0zM747.993 341.59a1.448 1.448 0 1 1-2.508 1.448 1.448 1.448 0 1 1 2.508-1.448z" color="#000" fill="none" stroke="#00f" stroke-width="3.99986455" stroke-linecap="round" overflow="visible"/></svg>