<svg xmlns:ns0="http://www.iki.fi/pav/software/textext/" xmlns="http://www.w3.org/2000/svg" xmlns:xlink="http://www.w3.org/1999/xlink" width="1052.362" height="744.094"><title>Dichte: Bilderraetsel</title><path fill="#fff" stroke="#fff" stroke-width="3" stroke-linecap="round" stroke-linejoin="round" d="M29.548 46.333h993.267v651.43H29.548z"/><path d="M166.534 201.263l4.313 37.532c-30.35 7.367-51.282 22.906-51.282 40.907v263.13H301.38v-263.13c0-18-20.932-33.54-51.282-40.907l4.313-37.532h-87.877z" fill="none" stroke="#000" stroke-width="3.0000599999999995" stroke-linecap="round" stroke-linejoin="round"/><g fill="#ccc" stroke="#000" stroke-width="3"><path d="M167.73 180.6h85.485l-7.253 63.393h-70.98z" stroke-width="3.0000599999999995"/><path stroke-linecap="round" stroke-linejoin="round" d="M151.722 165.296h117.502v25.714H151.722z" stroke-width="3.0000599999999995"/></g><path d="M166.534 201.263l4.313 37.532c-30.35 7.367-51.282 22.906-51.282 40.907v263.13H301.38v-263.13c0-18-20.932-33.54-51.282-40.907l4.313-37.532h-87.877z" opacity=".2" fill="#87aade"/><path d="M166.534 201.263h87.877" fill="none" stroke="#000" stroke-width="3.0000599999999995"/><path opacity=".2" fill="#87aade" d="M119.565 292.076H301.38v250.755H119.565z"/><path fill="gray" stroke="#333" d="M77.143 544.831h905.714v34.286H77.143z"/><path d="M377.007 201.263l4.312 37.532c-30.35 7.367-51.282 22.906-51.282 40.907v263.13h181.816v-263.13c0-18-20.933-33.54-51.282-40.907l4.312-37.532h-87.876z" fill="none" stroke="#000" stroke-width="3.0000599999999995" stroke-linecap="round" stroke-linejoin="round"/><g fill="#ccc" stroke="#000" stroke-width="3"><path d="M378.202 180.6h85.486l-7.254 63.393h-70.979z" stroke-width="3.0000599999999995"/><path stroke-linecap="round" stroke-linejoin="round" d="M362.194 165.296h117.502v25.714H362.194z" stroke-width="3.0000599999999995"/></g><path d="M377.007 201.263l4.312 37.532c-30.35 7.367-51.282 22.906-51.282 40.907v263.13h181.816v-263.13c0-18-20.933-33.54-51.282-40.907l4.312-37.532h-87.876z" opacity=".2" fill="#87aade"/><path d="M377.007 201.263h87.876" fill="none" stroke="#000" stroke-width="3.0000599999999995"/><path opacity=".2" fill="#87aade" d="M330.037 292.076h181.816v250.755H330.037z"/><g><path d="M587.479 201.263l4.313 37.532c-30.35 7.367-51.283 22.906-51.283 40.907v263.13h181.816v-263.13c0-18-20.932-33.54-51.282-40.907l4.313-37.532h-87.877z" fill="none" stroke="#000" stroke-width="3.0000599999999995" stroke-linecap="round" stroke-linejoin="round"/><g fill="#ccc" stroke="#000" stroke-width="3"><path d="M588.674 180.6h85.486l-7.253 63.393h-70.98z" stroke-width="3.0000599999999995"/><path stroke-linecap="round" stroke-linejoin="round" d="M572.667 165.296h117.502v25.714H572.667z" stroke-width="3.0000599999999995"/></g><path d="M587.479 201.263l4.313 37.532c-30.35 7.367-51.283 22.906-51.283 40.907v263.13h181.816v-263.13c0-18-20.932-33.54-51.282-40.907l4.313-37.532h-87.877z" opacity=".2" fill="#87aade"/><path d="M587.479 201.263h87.877" fill="none" stroke="#000" stroke-width="3.0000599999999995"/><path opacity=".2" fill="#87aade" d="M540.51 292.076h181.816v250.755H540.51z"/></g><g><path d="M797.952 201.263l4.312 37.532c-30.35 7.367-51.282 22.906-51.282 40.907v263.13h181.816v-263.13c0-18-20.933-33.54-51.283-40.907l4.313-37.532h-87.876z" fill="none" stroke="#000" stroke-width="3.0000599999999995" stroke-linecap="round" stroke-linejoin="round"/><g fill="#ccc" stroke="#000" stroke-width="3"><path d="M799.147 180.6h85.486l-7.254 63.393H806.4z" stroke-width="3.0000599999999995"/><path stroke-linecap="round" stroke-linejoin="round" d="M783.139 165.296h117.502v25.714H783.14z" stroke-width="3.0000599999999995"/></g><path d="M797.952 201.263l4.312 37.532c-30.35 7.367-51.282 22.906-51.282 40.907v263.13h181.816v-263.13c0-18-20.933-33.54-51.283-40.907l4.313-37.532h-87.876z" opacity=".2" fill="#87aade"/><path d="M797.952 201.263h87.876" fill="none" stroke="#000" stroke-width="3.0000599999999995"/><path opacity=".2" fill="#87aade" d="M749.972 344.227h181.816v200.604H749.972z"/></g><g><g ns0:preamble="/home/waldgeist/data/sphinx/test.tex" ns0:text="$\\unit[250]{cm^3}$" transform="matrix(3.25325 0 0 3.25325 -570.76 -101.484)"><defs><symbol id="a" overflow="visible"><path d="M1.266-.766l1.062-1.03c1.547-1.376 2.14-1.907 2.14-2.907 0-1.14-.89-1.938-2.109-1.938C1.234-6.64.5-5.719.5-4.828c0 .547.5.547.531.547.172 0 .516-.11.516-.532a.513.513 0 0 0-.531-.515c-.079 0-.094 0-.125.016.218-.657.765-1.016 1.343-1.016.907 0 1.329.812 1.329 1.625 0 .797-.485 1.578-1.047 2.203L.609-.375C.5-.265.5-.235.5 0h3.703l.266-1.734h-.235C4.172-1.438 4.11-1 4-.844c-.063.078-.719.078-.938.078zm0 0"/></symbol><symbol id="b" overflow="visible"><path d="M4.469-2c0-1.188-.813-2.188-1.89-2.188-.47 0-.907.157-1.267.516v-1.953c.204.063.532.125.844.125 1.235 0 1.938-.906 1.938-1.031 0-.063-.032-.11-.11-.11 0 0-.03 0-.078.032a3.22 3.22 0 0 1-1.36.296c-.39 0-.858-.078-1.327-.28-.078-.032-.094-.032-.11-.032C1-6.625 1-6.547 1-6.391v2.954c0 .171 0 .25.14.25.079 0 .094-.016.141-.079.11-.156.469-.703 1.282-.703.515 0 .765.453.843.64.156.376.188.75.188 1.25 0 .36 0 .954-.25 1.376-.235.39-.61.64-1.063.64-.719 0-1.297-.53-1.469-1.109.032 0 .063.016.172.016.329 0 .5-.25.5-.485 0-.25-.171-.5-.5-.5-.14 0-.484.079-.484.532C.5-.75 1.188.219 2.297.219 3.453.219 4.469-.734 4.469-2zm0 0"/></symbol><symbol id="c" overflow="visible"><path d="M4.578-3.188c0-.796-.047-1.593-.39-2.328C3.733-6.484 2.905-6.64 2.5-6.64c-.61 0-1.328.266-1.75 1.188-.313.687-.36 1.469-.36 2.266 0 .75.032 1.64.454 2.406a1.83 1.83 0 0 0 1.64 1c.532 0 1.297-.203 1.735-1.157.312-.687.36-1.468.36-2.25zM2.484 0c-.39 0-.984-.25-1.156-1.203-.11-.594-.11-1.516-.11-2.11 0-.64 0-1.296.079-1.828.187-1.187.937-1.28 1.187-1.28.329 0 .985.187 1.172 1.171.11.563.11 1.313.11 1.938 0 .75 0 1.421-.11 2.062C3.5-.297 2.937 0 2.484 0zm0 0"/></symbol><symbol id="d" overflow="visible"><path d="M1.172-2.172c0-1.625.812-2.047 1.344-2.047.093 0 .718.016 1.062.375-.406.031-.469.328-.469.453 0 .266.188.454.454.454.265 0 .468-.157.468-.47 0-.671-.765-1.062-1.531-1.062C1.25-4.469.344-3.39.344-2.156c0 1.281.984 2.265 2.14 2.265 1.329 0 1.657-1.203 1.657-1.296 0-.094-.11-.094-.141-.094-.078 0-.11.031-.125.093C3.594-.265 2.937-.14 2.578-.14c-.531 0-1.406-.421-1.406-2.03zm0 0"/></symbol><symbol id="e" overflow="visible"><path d="M1.094-3.422V-.75c0 .438-.11.438-.782.438V0c.36-.016.86-.031 1.141-.031.25 0 .766.015 1.11.031v-.313c-.672 0-.782 0-.782-.437v-1.844c0-1.031.719-1.594 1.344-1.594.64 0 .75.532.75 1.11V-.75c0 .438-.11.438-.781.438V0c.344-.016.86-.031 1.125-.031.25 0 .781.015 1.11.031v-.313c-.657 0-.766 0-.766-.437v-1.844c0-1.031.703-1.594 1.343-1.594.625 0 .735.532.735 1.11V-.75c0 .438-.11.438-.782.438V0c.344-.016.86-.031 1.125-.031.266 0 .782.015 1.125.031v-.313c-.515 0-.765 0-.78-.296v-1.907c0-.859 0-1.156-.313-1.515-.141-.172-.47-.375-1.047-.375-.828 0-1.282.593-1.438.984-.14-.875-.875-.984-1.328-.984-.734 0-1.203.422-1.484 1.047v-1.047l-1.407.11v.312c.704 0 .782.062.782.562zm0 0"/></symbol><symbol id="f" overflow="visible"><path d="M1.906-2.328c.547 0 .938.375.938 1.125 0 .86-.516 1.125-.906 1.125-.282 0-.907-.078-1.188-.5.328 0 .406-.235.406-.39 0-.22-.172-.376-.39-.376a.38.38 0 0 0-.391.407C.375-.281 1.094.14 1.938.14c.968 0 1.64-.657 1.64-1.344 0-.547-.437-1.094-1.203-1.25.719-.266.984-.781.984-1.219 0-.547-.625-.953-1.406-.953-.766 0-1.36.375-1.36.938 0 .234.157.359.36.359.219 0 .36-.156.36-.344 0-.203-.141-.36-.36-.375.25-.297.719-.375.985-.375.312 0 .75.156.75.75 0 .297-.094.625-.282.828-.219.266-.422.281-.765.313-.172.015-.188.015-.22.015-.015 0-.077.016-.077.094 0 .094.062.094.187.094zm0 0"/></symbol></defs><use height="1052.362" width="744.094" y="134.765" x="223.432" xlink:href="#a"/><use height="1052.362" width="744.094" y="134.765" x="228.413" xlink:href="#b"/><use height="1052.362" width="744.094" y="134.765" x="233.395" xlink:href="#c"/><g><use height="1052.362" width="744.094" y="134.765" x="240.04" xlink:href="#d"/><use height="1052.362" width="744.094" y="134.765" x="244.467" xlink:href="#e"/></g><g><use height="1052.362" width="744.094" y="131.149" x="252.767" xlink:href="#f"/></g></g><g transform="matrix(3.25325 0 0 3.25325 -552.09 31.61)" ns0:preamble="/home/waldgeist/data/sphinx/test.tex" ns0:text="$\\unit[250]{g}$"><defs><symbol id="g" overflow="visible"><path d="M1.266-.766l1.062-1.03c1.547-1.376 2.14-1.907 2.14-2.907 0-1.14-.89-1.938-2.109-1.938C1.234-6.64.5-5.719.5-4.828c0 .547.5.547.531.547.172 0 .516-.11.516-.532a.513.513 0 0 0-.531-.515c-.079 0-.094 0-.125.016.218-.657.765-1.016 1.343-1.016.907 0 1.329.812 1.329 1.625 0 .797-.485 1.578-1.047 2.203L.609-.375C.5-.265.5-.235.5 0h3.703l.266-1.734h-.235C4.172-1.438 4.11-1 4-.844c-.063.078-.719.078-.938.078zm0 0"/></symbol><symbol id="h" overflow="visible"><path d="M4.469-2c0-1.188-.813-2.188-1.89-2.188-.47 0-.907.157-1.267.516v-1.953c.204.063.532.125.844.125 1.235 0 1.938-.906 1.938-1.031 0-.063-.032-.11-.11-.11 0 0-.03 0-.078.032a3.22 3.22 0 0 1-1.36.296c-.39 0-.858-.078-1.327-.28-.078-.032-.094-.032-.11-.032C1-6.625 1-6.547 1-6.391v2.954c0 .171 0 .25.14.25.079 0 .094-.016.141-.079.11-.156.469-.703 1.282-.703.515 0 .765.453.843.64.156.376.188.75.188 1.25 0 .36 0 .954-.25 1.376-.235.39-.61.64-1.063.64-.719 0-1.297-.53-1.469-1.109.032 0 .063.016.172.016.329 0 .5-.25.5-.485 0-.25-.171-.5-.5-.5-.14 0-.484.079-.484.532C.5-.75 1.188.219 2.297.219 3.453.219 4.469-.734 4.469-2zm0 0"/></symbol><symbol id="i" overflow="visible"><path d="M4.578-3.188c0-.796-.047-1.593-.39-2.328C3.733-6.484 2.905-6.64 2.5-6.64c-.61 0-1.328.266-1.75 1.188-.313.687-.36 1.469-.36 2.266 0 .75.032 1.64.454 2.406a1.83 1.83 0 0 0 1.64 1c.532 0 1.297-.203 1.735-1.157.312-.687.36-1.468.36-2.25zM2.484 0c-.39 0-.984-.25-1.156-1.203-.11-.594-.11-1.516-.11-2.11 0-.64 0-1.296.079-1.828.187-1.187.937-1.28 1.187-1.28.329 0 .985.187 1.172 1.171.11.563.11 1.313.11 1.938 0 .75 0 1.421-.11 2.062C3.5-.297 2.937 0 2.484 0zm0 0"/></symbol><symbol id="j" overflow="visible"><path d="M2.219-1.719c-.875 0-.875-1-.875-1.218 0-.266.015-.594.156-.844.078-.11.313-.39.719-.39.86 0 .86.984.86 1.218 0 .265 0 .594-.157.844-.078.109-.313.39-.703.39zm-1.156.39c0-.03 0-.265.156-.468.39.281.812.313 1 .313.922 0 1.61-.688 1.61-1.454 0-.374-.157-.734-.407-.968.36-.344.719-.39.89-.39.032 0 .079 0 .11.015-.11.031-.172.14-.172.265 0 .172.14.282.297.282a.28.28 0 0 0 .281-.297c0-.172-.11-.485-.5-.485-.203 0-.64.063-1.062.47a1.652 1.652 0 0 0-1.047-.36c-.938 0-1.625.687-1.625 1.453 0 .437.219.812.469 1.031-.125.14-.313.469-.313.828 0 .313.14.688.453.89-.61.157-.922.595-.922.985 0 .719.985 1.266 2.203 1.266 1.172 0 2.204-.5 2.204-1.281 0-.344-.125-.86-.641-1.141-.531-.266-1.11-.266-1.719-.266-.25 0-.672 0-.75-.015-.312-.047-.516-.344-.516-.672zM2.5 1.829C1.484 1.828.797 1.312.797.781c0-.453.375-.828.812-.844h.594c.86 0 1.969 0 1.969.844 0 .547-.703 1.047-1.672 1.047zm0 0"/></symbol></defs><use y="134.765" x="223.432" xlink:href="#g" width="744.094" height="1052.362"/><use y="134.765" x="228.413" xlink:href="#h" width="744.094" height="1052.362"/><use y="134.765" x="233.395" xlink:href="#i" width="744.094" height="1052.362"/><g><use y="134.765" x="240.04" xlink:href="#j" width="744.094" height="1052.362"/></g></g><g ns0:text="Wasser" ns0:preamble="/home/waldgeist/data/sphinx/test.tex" transform="matrix(3.25325 0 0 3.25325 -565.983 -34.115)"><defs><symbol overflow="visible" id="k"><path d="M9.063-5.828c.171-.578.609-.672 1-.672v-.313c-.297.032-.61.032-.907.032-.297 0-.937-.016-1.187-.032v.313c.672.016.86.344.86.531 0 .063-.032.14-.048.203l-1.5 4.594-1.593-4.875c0-.047-.032-.11-.032-.156 0-.297.578-.297.844-.297v-.313c-.36.032-1.031.032-1.422.032-.375 0-.797-.016-1.203-.032v.313c.563 0 .766 0 .89.36l.22.702-1.391 4.266L2-6.078c-.016-.016-.031-.094-.031-.125 0-.297.578-.297.843-.297v-.313c-.359.032-1.03.032-1.421.032-.375 0-.797-.016-1.22-.032v.313c.75 0 .798.047.923.422L3.078.032c.031.093.063.187.188.187.14 0 .156-.063.203-.203l1.64-5.063L6.766.031c.03.094.062.188.187.188.14 0 .172-.063.203-.203zm0 0"/></symbol><symbol overflow="visible" id="l"><path d="M3.313-.75c.046.39.312.813.78.813.22 0 .829-.141.829-.954v-.562h-.25v.562c0 .579-.25.641-.36.641-.328 0-.375-.453-.375-.5v-1.984c0-.422 0-.813-.359-1.188-.39-.39-.89-.547-1.36-.547-.827 0-1.515.469-1.515 1.125 0 .297.203.469.469.469a.435.435 0 0 0 .453-.453c0-.125-.047-.453-.516-.453.282-.36.766-.469 1.079-.469.5 0 1.062.39 1.062 1.281v.36c-.516.03-1.203.062-1.828.359-.75.344-1 .86-1 1.297 0 .812.969 1.062 1.594 1.062.656 0 1.109-.406 1.296-.859zM3.25-2.39v1c0 .937-.719 1.28-1.172 1.28-.484 0-.89-.343-.89-.843 0-.547.421-1.375 2.062-1.438zm0 0"/></symbol><symbol overflow="visible" id="m"><path d="M2.078-1.938c.219.047 1.031.204 1.031.922 0 .5-.343.907-1.125.907-.843 0-1.203-.563-1.39-1.422-.031-.125-.031-.157-.14-.157-.126 0-.126.063-.126.235v1.328c0 .172 0 .234.11.234C.483.11.5.094.688-.094.703-.109.703-.125.89-.312c.437.406.89.421 1.093.421 1.141 0 1.61-.671 1.61-1.39 0-.516-.297-.828-.422-.938-.328-.328-.719-.406-1.14-.484-.563-.11-1.22-.235-1.22-.813 0-.359.25-.765 1.11-.765 1.094 0 1.156.906 1.172 1.203 0 .094.094.094.11.094.14 0 .14-.047.14-.235v-1.015c0-.157 0-.235-.11-.235-.046 0-.078 0-.203.125-.031.032-.125.125-.172.157-.375-.282-.78-.282-.937-.282-1.219 0-1.594.672-1.594 1.235 0 .343.156.625.422.843.328.25.61.313 1.328.454zm0 0"/></symbol><symbol overflow="visible" id="n"><path d="M1.11-2.516C1.171-4 2.015-4.25 2.36-4.25c1.015 0 1.124 1.344 1.124 1.734zm0 .22h2.78c.22 0 .25 0 .25-.22 0-.984-.546-1.953-1.78-1.953C1.202-4.469.28-3.437.28-2.187.281-.86 1.328.108 2.47.108 3.688.11 4.14-1 4.14-1.187c0-.094-.079-.125-.141-.125-.078 0-.11.062-.125.14C3.531-.14 2.625-.14 2.531-.14c-.5 0-.89-.296-1.125-.671-.297-.47-.297-1.125-.297-1.485zm0 0"/></symbol><symbol overflow="visible" id="o"><path d="M1.672-3.313v-1.093l-1.39.11v.312c.702 0 .78.062.78.562V-.75c0 .438-.109.438-.78.438V0c.39-.016.859-.031 1.14-.031.39 0 .86 0 1.266.031v-.313h-.22c-.734 0-.75-.109-.75-.468v-1.531c0-.985.423-1.876 1.173-1.876.062 0 .093 0 .109.016-.031 0-.234.125-.234.39 0 .266.218.423.437.423a.421.421 0 0 0 .422-.438c0-.312-.313-.61-.734-.61-.735 0-1.094.673-1.22 1.095zm0 0"/></symbol></defs><use height="1052.362" width="744.094" xlink:href="#k" x="223.432" y="134.765"/><use height="1052.362" width="744.094" xlink:href="#l" x="232.845" y="134.765"/><use height="1052.362" width="744.094" xlink:href="#m" x="237.826" y="134.765"/><use height="1052.362" width="744.094" xlink:href="#m" x="241.755" y="134.765"/><use height="1052.362" width="744.094" xlink:href="#n" x="245.684" y="134.765"/><use height="1052.362" width="744.094" xlink:href="#o" x="250.112" y="134.765"/></g></g><g><g ns0:text="$\\unit[250]{cm^3}$" ns0:preamble="/home/waldgeist/data/sphinx/test.tex"><g transform="matrix(3.25325 0 0 3.25325 -360.287 -98.79)"><use height="1052.362" width="744.094" xlink:href="#a" x="223.432" y="134.765"/><use height="1052.362" width="744.094" xlink:href="#b" x="228.413" y="134.765"/><use height="1052.362" width="744.094" xlink:href="#c" x="233.395" y="134.765"/></g><g transform="matrix(3.25325 0 0 3.25325 -360.287 -98.79)"><use height="1052.362" width="744.094" xlink:href="#d" x="240.04" y="134.765"/><use height="1052.362" width="744.094" xlink:href="#e" x="244.467" y="134.765"/></g><use height="1052.362" width="744.094" xlink:href="#f" x="252.767" y="131.149" transform="matrix(3.25325 0 0 3.25325 -360.287 -98.79)"/></g><g transform="matrix(3.25325 0 0 3.25325 -354.575 -31.421)" ns0:preamble="/home/waldgeist/data/sphinx/test.tex" ns0:text="Benzin"><defs><symbol id="p" overflow="visible"><path d="M2.219-3.656v-2.438c0-.343.015-.406.484-.406h1.235c.968 0 1.312.844 1.312 1.375 0 .64-.484 1.469-1.594 1.469zm2.344.094c.968-.188 1.656-.829 1.656-1.563 0-.86-.922-1.688-2.219-1.688H.36v.313h.234c.765 0 .797.11.797.469v5.25c0 .36-.032.469-.797.469H.359V0h3.907c1.328 0 2.218-.89 2.218-1.828 0-.86-.812-1.61-1.921-1.734zm-.61 3.25h-1.25c-.469 0-.484-.063-.484-.391v-2.719h1.875c.984 0 1.406.922 1.406 1.594 0 .703-.531 1.516-1.547 1.516zm0 0"/></symbol><symbol id="q" overflow="visible"><path d="M1.11-2.516C1.171-4 2.015-4.25 2.36-4.25c1.015 0 1.124 1.344 1.124 1.734zm0 .22h2.78c.22 0 .25 0 .25-.22 0-.984-.546-1.953-1.78-1.953C1.202-4.469.28-3.437.28-2.187.281-.86 1.328.108 2.47.108 3.688.11 4.14-1 4.14-1.187c0-.094-.079-.125-.141-.125-.078 0-.11.062-.125.14C3.531-.14 2.625-.14 2.531-.14c-.5 0-.89-.296-1.125-.671-.297-.47-.297-1.125-.297-1.485zm0 0"/></symbol><symbol id="r" overflow="visible"><path d="M1.094-3.422V-.75c0 .438-.11.438-.782.438V0c.36-.016.86-.031 1.141-.031.25 0 .766.015 1.11.031v-.313c-.672 0-.782 0-.782-.437v-1.844c0-1.031.719-1.594 1.344-1.594.64 0 .75.532.75 1.11V-.75c0 .438-.11.438-.781.438V0c.344-.016.86-.031 1.125-.031.25 0 .781.015 1.11.031v-.313c-.516 0-.766 0-.766-.296v-1.907c0-.859 0-1.156-.313-1.515-.14-.172-.469-.375-1.047-.375-.734 0-1.203.422-1.484 1.047v-1.047l-1.407.11v.312c.704 0 .782.062.782.562zm0 0"/></symbol><symbol id="s" overflow="visible"><path d="M3.89-4c.094-.11.094-.125.094-.172 0-.125-.093-.125-.265-.125H.53l-.11 1.61h.25c.063-1.016.25-1.391 1.345-1.391h1.14L.375-.312c-.094.109-.094.124-.094.171C.281 0 .344 0 .531 0h3.297L4-1.86h-.25C3.656-.686 3.453-.25 2.297-.25H1.109zm0 0"/></symbol><symbol id="t" overflow="visible"><path d="M1.766-4.406l-1.391.11v.312c.64 0 .734.062.734.546V-.75c0 .438-.109.438-.78.438V0c.312-.016.859-.031 1.093-.031.36 0 .703.015 1.047.031v-.313c-.672 0-.703-.046-.703-.437zm.03-1.735a.514.514 0 0 0-.515-.53.537.537 0 0 0-.531.53c0 .266.219.532.531.532a.514.514 0 0 0 .516-.532zm0 0"/></symbol></defs><use height="1052.362" width="744.094" y="134.765" x="223.432" xlink:href="#p"/><use height="1052.362" width="744.094" y="134.765" x="230.489" xlink:href="#q"/><use height="1052.362" width="744.094" y="134.765" x="234.916" xlink:href="#r"/><use height="1052.362" width="744.094" y="134.765" x="240.451" xlink:href="#s"/><use height="1052.362" width="744.094" y="134.765" x="244.878" xlink:href="#t"/><use height="1052.362" width="744.094" y="134.765" x="247.646" xlink:href="#r"/></g><g ns0:text="?" ns0:preamble="/home/waldgeist/data/sphinx/test.tex" transform="matrix(3.25325 0 0 3.25325 -313.586 35.575)"><defs><symbol overflow="visible" id="u"><path d="M2.344-2.484c0-1.25.969-1.97 1.312-2.22.266-.202.485-.562.485-.984 0-.578-.407-1.343-1.891-1.343-1.078 0-1.688.687-1.688 1.328 0 .344.22.484.454.484.28 0 .453-.203.453-.468 0-.438-.407-.438-.547-.438.297-.531.875-.688 1.297-.688 1.094 0 1.094.688 1.094 1.079 0 .578-.157.765-.344.937-.656.719-.875 1.64-.875 2.25v.438c0 .187 0 .25.125.25s.125-.094.125-.282zm.39 1.953a.534.534 0 0 0-.515-.531.537.537 0 0 0-.531.53c0 .298.234.532.53.532a.524.524 0 0 0 .516-.531zm0 0"/></symbol></defs><use height="1052.362" width="744.094" xlink:href="#u" x="223.432" y="134.765"/></g></g><g><use height="1052.362" width="744.094" xlink:href="#u" x="223.432" y="134.765" transform="matrix(3.74545 0 0 3.25325 -3.771 -103.096)" ns0:text="?" ns0:preamble="/home/waldgeist/data/sphinx/test.tex"/><g transform="matrix(3.25325 0 0 3.25325 54.403 -35.727)" ns0:preamble="/home/waldgeist/data/sphinx/test.tex" ns0:text="Glycerin"><defs><symbol id="v" overflow="visible"><path d="M5.906-.625c.14.219.532.61.64.61.095 0 .095-.079.095-.22v-1.734c0-.39.03-.437.687-.437v-.313c-.375 0-.922.031-1.219.031-.39 0-1.25 0-1.609-.03v.312h.328c.89 0 .922.11.922.469v.64c0 1.125-1.266 1.203-1.547 1.203-.64 0-2.625-.344-2.625-3.312 0-2.985 1.969-3.313 2.563-3.313 1.078 0 1.984.89 2.171 2.36.032.14.032.171.172.171.157 0 .157-.03.157-.234v-2.36c0-.171 0-.25-.11-.25-.047 0-.078 0-.156.126l-.5.734c-.328-.312-.86-.86-1.844-.86-1.86 0-3.468 1.579-3.468 3.626C.563-1.36 2.155.219 4.046.219c.734 0 1.531-.266 1.86-.844zm0 0"/></symbol><symbol id="w" overflow="visible"><path d="M1.766-6.922l-1.438.11v.312c.703 0 .781.063.781.563V-.75c0 .438-.109.438-.78.438V0c.327-.016.859-.031 1.109-.031s.734.015 1.109.031v-.313c-.672 0-.781 0-.781-.437zm0 0"/></symbol><symbol id="x" overflow="visible"><path d="M4.14-3.344c.25-.64.766-.64.923-.64v-.313c-.235.016-.516.031-.75.031-.172 0-.641-.015-.86-.03v.312c.313 0 .469.171.469.421 0 .11-.016.126-.063.25L2.844-.874 1.75-3.547c-.047-.11-.063-.14-.063-.187 0-.25.36-.25.563-.25v-.313c-.266.016-.922.031-1.094.031-.265 0-.672-.015-.968-.03v.312c.484 0 .671 0 .812.343L2.5 0a6.764 6.764 0 0 0-.25.594c-.219.547-.5 1.234-1.14 1.234-.048 0-.282 0-.47-.187.313-.032.391-.25.391-.422C1.031.969.844.812.61.812c-.203 0-.421.125-.421.422 0 .454.421.813.921.813.625 0 1.032-.578 1.266-1.14zm0 0"/></symbol><symbol id="y" overflow="visible"><path d="M1.172-2.172c0-1.625.812-2.047 1.344-2.047.093 0 .718.016 1.062.375-.406.031-.469.328-.469.453 0 .266.188.454.454.454.265 0 .468-.157.468-.47 0-.671-.765-1.062-1.531-1.062C1.25-4.469.344-3.39.344-2.156c0 1.281.984 2.265 2.14 2.265 1.329 0 1.657-1.203 1.657-1.296 0-.094-.11-.094-.141-.094-.078 0-.11.031-.125.093C3.594-.265 2.937-.14 2.578-.14c-.531 0-1.406-.421-1.406-2.03zm0 0"/></symbol><symbol id="z" overflow="visible"><path d="M1.11-2.516C1.171-4 2.015-4.25 2.36-4.25c1.015 0 1.124 1.344 1.124 1.734zm0 .22h2.78c.22 0 .25 0 .25-.22 0-.984-.546-1.953-1.78-1.953C1.202-4.469.28-3.437.28-2.187.281-.86 1.328.108 2.47.108 3.688.11 4.14-1 4.14-1.187c0-.094-.079-.125-.141-.125-.078 0-.11.062-.125.14C3.531-.14 2.625-.14 2.531-.14c-.5 0-.89-.296-1.125-.671-.297-.47-.297-1.125-.297-1.485zm0 0"/></symbol><symbol id="A" overflow="visible"><path d="M1.672-3.313v-1.093l-1.39.11v.312c.702 0 .78.062.78.562V-.75c0 .438-.109.438-.78.438V0c.39-.016.859-.031 1.14-.031.39 0 .86 0 1.266.031v-.313h-.22c-.734 0-.75-.109-.75-.468v-1.531c0-.985.423-1.876 1.173-1.876.062 0 .093 0 .109.016-.031 0-.234.125-.234.39 0 .266.218.423.437.423a.421.421 0 0 0 .422-.438c0-.312-.313-.61-.734-.61-.735 0-1.094.673-1.22 1.095zm0 0"/></symbol><symbol id="B" overflow="visible"><path d="M1.766-4.406l-1.391.11v.312c.64 0 .734.062.734.546V-.75c0 .438-.109.438-.78.438V0c.312-.016.859-.031 1.093-.031.36 0 .703.015 1.047.031v-.313c-.672 0-.703-.046-.703-.437zm.03-1.735a.514.514 0 0 0-.515-.53.537.537 0 0 0-.531.53c0 .266.219.532.531.532a.514.514 0 0 0 .516-.532zm0 0"/></symbol><symbol id="C" overflow="visible"><path d="M1.094-3.422V-.75c0 .438-.11.438-.782.438V0c.36-.016.86-.031 1.141-.031.25 0 .766.015 1.11.031v-.313c-.672 0-.782 0-.782-.437v-1.844c0-1.031.719-1.594 1.344-1.594.64 0 .75.532.75 1.11V-.75c0 .438-.11.438-.781.438V0c.344-.016.86-.031 1.125-.031.25 0 .781.015 1.11.031v-.313c-.516 0-.766 0-.766-.296v-1.907c0-.859 0-1.156-.313-1.515-.14-.172-.469-.375-1.047-.375-.734 0-1.203.422-1.484 1.047v-1.047l-1.407.11v.312c.704 0 .782.062.782.562zm0 0"/></symbol></defs><use height="1052.362" width="744.094" y="134.765" x="223.432" xlink:href="#v"/><use height="1052.362" width="744.094" y="134.765" x="231.25" xlink:href="#w"/><use height="1052.362" width="744.094" y="134.765" x="234.017" xlink:href="#x"/><use height="1052.362" width="744.094" y="134.765" x="239.276" xlink:href="#y"/><use height="1052.362" width="744.094" y="134.765" x="243.703" xlink:href="#z"/><use height="1052.362" width="744.094" y="134.765" x="248.13" xlink:href="#A"/><use height="1052.362" width="744.094" y="134.765" x="252.033" xlink:href="#B"/><use height="1052.362" width="744.094" y="134.765" x="254.8" xlink:href="#C"/></g><g transform="matrix(3.25325 0 0 3.25325 79.328 29.287)" ns0:preamble="/home/waldgeist/data/sphinx/test.tex" ns0:text="$\\unit[252]{g}$"><defs><symbol id="D" overflow="visible"><path d="M1.266-.766l1.062-1.03c1.547-1.376 2.14-1.907 2.14-2.907 0-1.14-.89-1.938-2.109-1.938C1.234-6.64.5-5.719.5-4.828c0 .547.5.547.531.547.172 0 .516-.11.516-.532a.513.513 0 0 0-.531-.515c-.079 0-.094 0-.125.016.218-.657.765-1.016 1.343-1.016.907 0 1.329.812 1.329 1.625 0 .797-.485 1.578-1.047 2.203L.609-.375C.5-.265.5-.235.5 0h3.703l.266-1.734h-.235C4.172-1.438 4.11-1 4-.844c-.063.078-.719.078-.938.078zm0 0"/></symbol><symbol id="E" overflow="visible"><path d="M4.469-2c0-1.188-.813-2.188-1.89-2.188-.47 0-.907.157-1.267.516v-1.953c.204.063.532.125.844.125 1.235 0 1.938-.906 1.938-1.031 0-.063-.032-.11-.11-.11 0 0-.03 0-.078.032a3.22 3.22 0 0 1-1.36.296c-.39 0-.858-.078-1.327-.28-.078-.032-.094-.032-.11-.032C1-6.625 1-6.547 1-6.391v2.954c0 .171 0 .25.14.25.079 0 .094-.016.141-.079.11-.156.469-.703 1.282-.703.515 0 .765.453.843.64.156.376.188.75.188 1.25 0 .36 0 .954-.25 1.376-.235.39-.61.64-1.063.64-.719 0-1.297-.53-1.469-1.109.032 0 .063.016.172.016.329 0 .5-.25.5-.485 0-.25-.171-.5-.5-.5-.14 0-.484.079-.484.532C.5-.75 1.188.219 2.297.219 3.453.219 4.469-.734 4.469-2zm0 0"/></symbol><symbol id="F" overflow="visible"><path d="M2.219-1.719c-.875 0-.875-1-.875-1.218 0-.266.015-.594.156-.844.078-.11.313-.39.719-.39.86 0 .86.984.86 1.218 0 .265 0 .594-.157.844-.078.109-.313.39-.703.39zm-1.156.39c0-.03 0-.265.156-.468.39.281.812.313 1 .313.922 0 1.61-.688 1.61-1.454 0-.374-.157-.734-.407-.968.36-.344.719-.39.89-.39.032 0 .079 0 .11.015-.11.031-.172.14-.172.265 0 .172.14.282.297.282a.28.28 0 0 0 .281-.297c0-.172-.11-.485-.5-.485-.203 0-.64.063-1.062.47a1.652 1.652 0 0 0-1.047-.36c-.938 0-1.625.687-1.625 1.453 0 .437.219.812.469 1.031-.125.14-.313.469-.313.828 0 .313.14.688.453.89-.61.157-.922.595-.922.985 0 .719.985 1.266 2.203 1.266 1.172 0 2.204-.5 2.204-1.281 0-.344-.125-.86-.641-1.141-.531-.266-1.11-.266-1.719-.266-.25 0-.672 0-.75-.015-.312-.047-.516-.344-.516-.672zM2.5 1.829C1.484 1.828.797 1.312.797.781c0-.453.375-.828.812-.844h.594c.86 0 1.969 0 1.969.844 0 .547-.703 1.047-1.672 1.047zm0 0"/></symbol></defs><use height="1052.362" width="744.094" y="134.765" x="223.432" xlink:href="#D"/><use height="1052.362" width="744.094" y="134.765" x="228.413" xlink:href="#E"/><use height="1052.362" width="744.094" y="134.765" x="233.395" xlink:href="#D"/><g><use height="1052.362" width="744.094" y="134.765" x="240.04" xlink:href="#F"/></g></g></g><g><g ns0:preamble="/home/waldgeist/data/sphinx/test.tex" ns0:text="$\\unit[250]{cm^3}$"><g transform="matrix(3.25325 0 0 3.25325 -149.814 -101.636)"><use y="134.765" x="223.432" xlink:href="#a" width="744.094" height="1052.362"/><use y="134.765" x="228.413" xlink:href="#b" width="744.094" height="1052.362"/><use y="134.765" x="233.395" xlink:href="#c" width="744.094" height="1052.362"/></g><g transform="matrix(3.25325 0 0 3.25325 -149.814 -101.636)"><use y="134.765" x="240.04" xlink:href="#d" width="744.094" height="1052.362"/><use y="134.765" x="244.467" xlink:href="#e" width="744.094" height="1052.362"/></g><use y="131.149" x="252.767" xlink:href="#f" width="744.094" height="1052.362" transform="matrix(3.25325 0 0 3.25325 -149.814 -101.636)"/></g><use y="134.765" x="223.432" xlink:href="#u" width="744.094" height="1052.362" transform="matrix(3.25325 0 0 3.25325 -103.114 -33.556)" ns0:preamble="/home/waldgeist/data/sphinx/test.tex" ns0:text="?"/><g ns0:text="$\\unit[197,5]{g}$" ns0:preamble="/home/waldgeist/data/sphinx/test.tex" transform="matrix(3.25325 0 0 3.25325 -147.086 31.763)"><defs><symbol overflow="visible" id="G"><path d="M2.938-6.375c0-.25 0-.266-.235-.266C2.078-6 1.203-6 .891-6v.313c.203 0 .78 0 1.296-.266v5.172c0 .36-.03.469-.921.469H.953V0c.344-.031 1.203-.031 1.61-.031.39 0 1.265 0 1.609.031v-.313h-.313c-.906 0-.921-.109-.921-.468zm0 0"/></symbol><symbol overflow="visible" id="H"><path d="M3.656-3.172v.328c0 2.328-1.031 2.781-1.61 2.781-.171 0-.718-.015-.983-.359.437 0 .515-.281.515-.453 0-.313-.234-.453-.453-.453-.156 0-.453.078-.453.469 0 .671.531 1.078 1.375 1.078 1.297 0 2.515-1.36 2.515-3.5 0-2.688-1.156-3.36-2.046-3.36-.547 0-1.032.188-1.454.625-.421.454-.64.875-.64 1.625 0 1.235.875 2.22 1.984 2.22.61 0 1.016-.423 1.25-1zm-1.234.766c-.156 0-.625 0-.922-.625-.188-.375-.188-.86-.188-1.36 0-.53 0-1 .22-1.375.265-.5.64-.625.984-.625.468 0 .796.344.968.782.11.328.157.953.157 1.406 0 .828-.344 1.797-1.22 1.797zm0 0"/></symbol><symbol overflow="visible" id="I"><path d="M4.75-6.078c.078-.11.078-.125.078-.344H2.406c-1.203 0-1.234-.125-1.265-.312H.89L.562-4.688h.25c.032-.156.11-.78.25-.906.063-.062.844-.062.97-.062h2.062c-.11.156-.89 1.25-1.11 1.578C2.078-2.734 1.75-1.344 1.75-.328c0 .094 0 .547.469.547.453 0 .453-.453.453-.547v-.516c0-.547.031-1.094.11-1.625.046-.234.171-1.094.624-1.703zm0 0"/></symbol><symbol overflow="visible" id="K"><path d="M4.469-2c0-1.188-.813-2.188-1.89-2.188-.47 0-.907.157-1.267.516v-1.953c.204.063.532.125.844.125 1.235 0 1.938-.906 1.938-1.031 0-.063-.032-.11-.11-.11 0 0-.03 0-.078.032a3.22 3.22 0 0 1-1.36.296c-.39 0-.858-.078-1.327-.28-.078-.032-.094-.032-.11-.032C1-6.625 1-6.547 1-6.391v2.954c0 .171 0 .25.14.25.079 0 .094-.016.141-.079.11-.156.469-.703 1.282-.703.515 0 .765.453.843.64.156.376.188.75.188 1.25 0 .36 0 .954-.25 1.376-.235.39-.61.64-1.063.64-.719 0-1.297-.53-1.469-1.109.032 0 .063.016.172.016.329 0 .5-.25.5-.485 0-.25-.171-.5-.5-.5-.14 0-.484.079-.484.532C.5-.75 1.188.219 2.297.219 3.453.219 4.469-.734 4.469-2zm0 0"/></symbol><symbol overflow="visible" id="L"><path d="M2.219-1.719c-.875 0-.875-1-.875-1.218 0-.266.015-.594.156-.844.078-.11.313-.39.719-.39.86 0 .86.984.86 1.218 0 .265 0 .594-.157.844-.078.109-.313.39-.703.39zm-1.156.39c0-.03 0-.265.156-.468.39.281.812.313 1 .313.922 0 1.61-.688 1.61-1.454 0-.374-.157-.734-.407-.968.36-.344.719-.39.89-.39.032 0 .079 0 .11.015-.11.031-.172.14-.172.265 0 .172.14.282.297.282a.28.28 0 0 0 .281-.297c0-.172-.11-.485-.5-.485-.203 0-.64.063-1.062.47a1.652 1.652 0 0 0-1.047-.36c-.938 0-1.625.687-1.625 1.453 0 .437.219.812.469 1.031-.125.14-.313.469-.313.828 0 .313.14.688.453.89-.61.157-.922.595-.922.985 0 .719.985 1.266 2.203 1.266 1.172 0 2.204-.5 2.204-1.281 0-.344-.125-.86-.641-1.141-.531-.266-1.11-.266-1.719-.266-.25 0-.672 0-.75-.015-.312-.047-.516-.344-.516-.672zM2.5 1.829C1.484 1.828.797 1.312.797.781c0-.453.375-.828.812-.844h.594c.86 0 1.969 0 1.969.844 0 .547-.703 1.047-1.672 1.047zm0 0"/></symbol><symbol overflow="visible" id="J"><path d="M2.031-.016c0-.656-.25-1.046-.64-1.046a.517.517 0 0 0-.532.53c0 .266.204.532.532.532a.58.58 0 0 0 .343-.125c.032-.031.047-.031.047-.031.016 0 .016 0 .016.14 0 .75-.344 1.344-.672 1.672-.11.11-.11.125-.11.157 0 .078.048.109.094.109.11 0 .922-.766.922-1.938zm0 0"/></symbol></defs><use height="1052.362" width="744.094" xlink:href="#G" x="223.432" y="134.765"/><use height="1052.362" width="744.094" xlink:href="#H" x="228.413" y="134.765"/><use height="1052.362" width="744.094" xlink:href="#I" x="233.395" y="134.765"/><use height="1052.362" width="744.094" xlink:href="#J" x="238.376" y="134.765"/><g><use height="1052.362" width="744.094" xlink:href="#K" x="242.804" y="134.765"/></g><g><use height="1052.362" width="744.094" xlink:href="#L" x="249.449" y="134.765"/></g></g></g></svg>