<?xml version="1.0" encoding="UTF-8" standalone="no"?>
<!-- Created with Inkscape (http://www.inkscape.org/) -->

<svg
   xmlns:ns0="http://www.iki.fi/pav/software/textext/"
   xmlns:dc="http://purl.org/dc/elements/1.1/"
   xmlns:cc="http://creativecommons.org/ns#"
   xmlns:rdf="http://www.w3.org/1999/02/22-rdf-syntax-ns#"
   xmlns:svg="http://www.w3.org/2000/svg"
   xmlns="http://www.w3.org/2000/svg"
   xmlns:xlink="http://www.w3.org/1999/xlink"
   xmlns:sodipodi="http://sodipodi.sourceforge.net/DTD/sodipodi-0.dtd"
   xmlns:inkscape="http://www.inkscape.org/namespaces/inkscape"
   width="1052.3622"
   height="744.09448"
   id="svg2"
   version="1.1"
   inkscape:version="0.48.3.1 r9886"
   sodipodi:docname="dichte-bilderraetsel.svg">
  <title
     id="title16918">Dichte: Bilderraetsel</title>
  <sodipodi:namedview
     id="base"
     pagecolor="#ffffff"
     bordercolor="#666666"
     borderopacity="1.0"
     inkscape:pageopacity="0.0"
     inkscape:pageshadow="2"
     inkscape:zoom="0.7"
     inkscape:cx="508.19818"
     inkscape:cy="256.62481"
     inkscape:document-units="px"
     inkscape:current-layer="layer1"
     showgrid="false"
     inkscape:object-paths="true"
     inkscape:snap-midpoints="false"
     inkscape:snap-smooth-nodes="true"
     inkscape:object-nodes="true"
     showguides="false"
     inkscape:guide-bbox="true"
     inkscape:window-width="1280"
     inkscape:window-height="974"
     inkscape:window-x="0"
     inkscape:window-y="0"
     inkscape:window-maximized="1"
     inkscape:snap-object-midpoints="true"
     inkscape:snap-global="true">
    <sodipodi:guide
       id="guide15582"
       orientation="744.0945,0"
       position="0.0,0" />
    <sodipodi:guide
       id="guide15584"
       orientation="744.0945,0"
       position="210.4724,0" />
    <sodipodi:guide
       id="guide15586"
       orientation="744.0945,0"
       position="420.9449,0" />
    <sodipodi:guide
       id="guide15588"
       orientation="744.0945,0"
       position="631.4173,0" />
    <sodipodi:guide
       id="guide15590"
       orientation="744.0945,0"
       position="841.8898,0" />
    <sodipodi:guide
       id="guide15592"
       orientation="744.0945,0"
       position="1052.3622,0" />
    <sodipodi:guide
       id="guide15594"
       orientation="0,1052.3622"
       position="0,0.0" />
    <sodipodi:guide
       id="guide15596"
       orientation="0,1052.3622"
       position="0,372.0472" />
    <sodipodi:guide
       id="guide15598"
       orientation="0,1052.3622"
       position="0,744.0945" />
  </sodipodi:namedview>
  <defs
     id="defs4" />
  <metadata
     id="metadata7">
    <rdf:RDF>
      <cc:Work
         rdf:about="">
        <dc:format>image/svg+xml</dc:format>
        <dc:type
           rdf:resource="http://purl.org/dc/dcmitype/StillImage" />
        <dc:title>Dichte: Bilderraetsel</dc:title>
        <dc:date>2012-08-26</dc:date>
        <dc:creator>
          <cc:Agent>
            <dc:title>Bernhard Grotz</dc:title>
          </cc:Agent>
        </dc:creator>
        <dc:rights>
          <cc:Agent>
            <dc:title>Bernhard Grotz</dc:title>
          </cc:Agent>
        </dc:rights>
        <dc:publisher>
          <cc:Agent>
            <dc:title>Bernhard Grotz</dc:title>
          </cc:Agent>
        </dc:publisher>
        <dc:language>de-DE</dc:language>
        <dc:subject>
          <rdf:Bag>
            <rdf:li>Physik</rdf:li>
            <rdf:li>Mechanik</rdf:li>
            <rdf:li>Dichte</rdf:li>
            <rdf:li>Koerpereigenschaften</rdf:li>
            <rdf:li>Laborflasche</rdf:li>
          </rdf:Bag>
        </dc:subject>
        <cc:license
           rdf:resource="http://creativecommons.org/licenses/by-nc-sa/3.0/" />
      </cc:Work>
      <cc:License
         rdf:about="http://creativecommons.org/licenses/by-nc-sa/3.0/">
        <cc:permits
           rdf:resource="http://creativecommons.org/ns#Reproduction" />
        <cc:permits
           rdf:resource="http://creativecommons.org/ns#Distribution" />
        <cc:requires
           rdf:resource="http://creativecommons.org/ns#Notice" />
        <cc:requires
           rdf:resource="http://creativecommons.org/ns#Attribution" />
        <cc:prohibits
           rdf:resource="http://creativecommons.org/ns#CommercialUse" />
        <cc:permits
           rdf:resource="http://creativecommons.org/ns#DerivativeWorks" />
        <cc:requires
           rdf:resource="http://creativecommons.org/ns#ShareAlike" />
      </cc:License>
    </rdf:RDF>
  </metadata>
  <g
     inkscape:label="Layer 1"
     inkscape:groupmode="layer"
     id="layer1"
     transform="translate(0,-308.2677)">
    <rect
       style="fill:#ffffff;fill-opacity:1;fill-rule:nonzero;stroke:#ffffff;stroke-width:3;stroke-linecap:round;stroke-linejoin:round;stroke-miterlimit:4;stroke-opacity:1;stroke-dasharray:none;stroke-dashoffset:0"
       id="rect16641"
       width="993.26685"
       height="651.42859"
       x="29.547668"
       y="354.60065"
       inkscape:export-filename="/home/waldgeist/data/pics/physik/Own/uebungsaufgaben/dichte-bilderraetsel.png"
       inkscape:export-xdpi="150"
       inkscape:export-ydpi="150" />
    <g
       id="g16093"
       transform="translate(14.003642,431.09915)"
       inkscape:export-filename="/home/waldgeist/data/pics/physik/Own/uebungsaufgaben/dichte-bilderraetsel.png"
       inkscape:export-xdpi="150"
       inkscape:export-ydpi="150">
      <g
         transform="matrix(1.0000172,0,0,1.0000172,-0.00337151,-0.00720743)"
         id="g3046">
        <path
           inkscape:connector-curvature="0"
           style="fill:none;stroke:#000000;stroke-width:2.9999485;stroke-linecap:round;stroke-linejoin:round;stroke-miterlimit:4;stroke-opacity:1;stroke-dashoffset:0"
           d="m 152.53125,78.4375 4.3125,37.53125 C 126.49462,123.33566 105.5625,138.8746 105.5625,156.875 l 0,263.125 181.8125,0 0,-263.125 c 0,-18.0004 -20.93212,-33.53934 -51.28125,-40.90625 l 4.3125,-37.53125 -87.875,0 z"
           id="rect2985" />
        <g
           id="g3019"
           transform="translate(0,-2.3912083)">
          <path
             style="fill:#cccccc;fill-opacity:1;fill-rule:nonzero;stroke:#000000;stroke-width:2.9999485"
             d="m 153.72666,60.166279 85.48418,0 -7.2532,63.391801 -70.97778,0 z"
             id="path3014"
             inkscape:connector-curvature="0"
             sodipodi:nodetypes="ccccc" />
          <rect
             y="44.862183"
             x="137.71875"
             height="25.714285"
             width="117.5"
             id="rect3017"
             style="fill:#cccccc;fill-opacity:1;fill-rule:nonzero;stroke:#000000;stroke-width:2.9999485;stroke-linecap:round;stroke-linejoin:round;stroke-miterlimit:4;stroke-opacity:1;stroke-dasharray:none;stroke-dashoffset:0" />
        </g>
        <path
           id="path3042"
           d="m 152.53125,78.4375 4.3125,37.53125 C 126.49462,123.33566 105.5625,138.8746 105.5625,156.875 l 0,263.125 181.8125,0 0,-263.125 c 0,-18.0004 -20.93212,-33.53934 -51.28125,-40.90625 l 4.3125,-37.53125 -87.875,0 z"
           style="opacity:0.2;fill:#87aade;fill-opacity:1;fill-rule:nonzero;stroke:none"
           inkscape:connector-curvature="0" />
        <path
           style="fill:none;stroke:#000000;stroke-width:2.9999485;stroke-linecap:butt;stroke-linejoin:miter;stroke-opacity:1"
           d="m 152.53125,78.4375 87.875,0"
           id="path3044"
           inkscape:connector-curvature="0" />
      </g>
      <rect
         y="169.24507"
         x="105.56094"
         height="250.75493"
         width="181.81561"
         id="rect3054"
         style="opacity:0.2;fill:#87aade;fill-opacity:1;fill-rule:nonzero;stroke:none" />
    </g>
    <rect
       style="fill:#808080;fill-opacity:1;fill-rule:nonzero;stroke:#333333"
       id="rect16105"
       width="905.71429"
       height="34.285713"
       x="77.14286"
       y="853.09918"
       inkscape:export-filename="/home/waldgeist/data/pics/physik/Own/uebungsaufgaben/dichte-bilderraetsel.png"
       inkscape:export-xdpi="150"
       inkscape:export-ydpi="150" />
    <g
       transform="translate(224.47614,431.09915)"
       id="g16107"
       inkscape:export-filename="/home/waldgeist/data/pics/physik/Own/uebungsaufgaben/dichte-bilderraetsel.png"
       inkscape:export-xdpi="150"
       inkscape:export-ydpi="150">
      <g
         id="g16109"
         transform="matrix(1.0000172,0,0,1.0000172,-0.00337151,-0.00720743)">
        <path
           id="path16111"
           d="m 152.53125,78.4375 4.3125,37.53125 C 126.49462,123.33566 105.5625,138.8746 105.5625,156.875 l 0,263.125 181.8125,0 0,-263.125 c 0,-18.0004 -20.93212,-33.53934 -51.28125,-40.90625 l 4.3125,-37.53125 -87.875,0 z"
           style="fill:none;stroke:#000000;stroke-width:2.9999485;stroke-linecap:round;stroke-linejoin:round;stroke-miterlimit:4;stroke-opacity:1;stroke-dashoffset:0"
           inkscape:connector-curvature="0" />
        <g
           transform="translate(0,-2.3912083)"
           id="g16113">
          <path
             sodipodi:nodetypes="ccccc"
             inkscape:connector-curvature="0"
             id="path16115"
             d="m 153.72666,60.166279 85.48418,0 -7.2532,63.391801 -70.97778,0 z"
             style="fill:#cccccc;fill-opacity:1;fill-rule:nonzero;stroke:#000000;stroke-width:2.9999485" />
          <rect
             style="fill:#cccccc;fill-opacity:1;fill-rule:nonzero;stroke:#000000;stroke-width:2.9999485;stroke-linecap:round;stroke-linejoin:round;stroke-miterlimit:4;stroke-opacity:1;stroke-dasharray:none;stroke-dashoffset:0"
             id="rect16117"
             width="117.5"
             height="25.714285"
             x="137.71875"
             y="44.862183" />
        </g>
        <path
           inkscape:connector-curvature="0"
           style="opacity:0.2;fill:#87aade;fill-opacity:1;fill-rule:nonzero;stroke:none"
           d="m 152.53125,78.4375 4.3125,37.53125 C 126.49462,123.33566 105.5625,138.8746 105.5625,156.875 l 0,263.125 181.8125,0 0,-263.125 c 0,-18.0004 -20.93212,-33.53934 -51.28125,-40.90625 l 4.3125,-37.53125 -87.875,0 z"
           id="path16119" />
        <path
           inkscape:connector-curvature="0"
           id="path16121"
           d="m 152.53125,78.4375 87.875,0"
           style="fill:none;stroke:#000000;stroke-width:2.9999485;stroke-linecap:butt;stroke-linejoin:miter;stroke-opacity:1" />
      </g>
      <rect
         style="opacity:0.2;fill:#87aade;fill-opacity:1;fill-rule:nonzero;stroke:none"
         id="rect16123"
         width="181.81561"
         height="250.75493"
         x="105.56094"
         y="169.24507" />
    </g>
    <g
       id="g16125"
       transform="translate(434.94854,431.09915)"
       inkscape:export-filename="/home/waldgeist/data/pics/physik/Own/uebungsaufgaben/dichte-bilderraetsel.png"
       inkscape:export-xdpi="150"
       inkscape:export-ydpi="150">
      <g
         transform="matrix(1.0000172,0,0,1.0000172,-0.00337151,-0.00720743)"
         id="g16127">
        <path
           inkscape:connector-curvature="0"
           style="fill:none;stroke:#000000;stroke-width:2.9999485;stroke-linecap:round;stroke-linejoin:round;stroke-miterlimit:4;stroke-opacity:1;stroke-dashoffset:0"
           d="m 152.53125,78.4375 4.3125,37.53125 C 126.49462,123.33566 105.5625,138.8746 105.5625,156.875 l 0,263.125 181.8125,0 0,-263.125 c 0,-18.0004 -20.93212,-33.53934 -51.28125,-40.90625 l 4.3125,-37.53125 -87.875,0 z"
           id="path16129" />
        <g
           id="g16131"
           transform="translate(0,-2.3912083)">
          <path
             style="fill:#cccccc;fill-opacity:1;fill-rule:nonzero;stroke:#000000;stroke-width:2.9999485"
             d="m 153.72666,60.166279 85.48418,0 -7.2532,63.391801 -70.97778,0 z"
             id="path16133"
             inkscape:connector-curvature="0"
             sodipodi:nodetypes="ccccc" />
          <rect
             y="44.862183"
             x="137.71875"
             height="25.714285"
             width="117.5"
             id="rect16135"
             style="fill:#cccccc;fill-opacity:1;fill-rule:nonzero;stroke:#000000;stroke-width:2.9999485;stroke-linecap:round;stroke-linejoin:round;stroke-miterlimit:4;stroke-opacity:1;stroke-dasharray:none;stroke-dashoffset:0" />
        </g>
        <path
           id="path16137"
           d="m 152.53125,78.4375 4.3125,37.53125 C 126.49462,123.33566 105.5625,138.8746 105.5625,156.875 l 0,263.125 181.8125,0 0,-263.125 c 0,-18.0004 -20.93212,-33.53934 -51.28125,-40.90625 l 4.3125,-37.53125 -87.875,0 z"
           style="opacity:0.2;fill:#87aade;fill-opacity:1;fill-rule:nonzero;stroke:none"
           inkscape:connector-curvature="0" />
        <path
           style="fill:none;stroke:#000000;stroke-width:2.9999485;stroke-linecap:butt;stroke-linejoin:miter;stroke-opacity:1"
           d="m 152.53125,78.4375 87.875,0"
           id="path16139"
           inkscape:connector-curvature="0" />
      </g>
      <rect
         y="169.24507"
         x="105.56094"
         height="250.75493"
         width="181.81561"
         id="rect16141"
         style="opacity:0.2;fill:#87aade;fill-opacity:1;fill-rule:nonzero;stroke:none" />
    </g>
    <g
       transform="translate(645.42104,431.09915)"
       id="g16143"
       inkscape:export-filename="/home/waldgeist/data/pics/physik/Own/uebungsaufgaben/dichte-bilderraetsel.png"
       inkscape:export-xdpi="150"
       inkscape:export-ydpi="150">
      <g
         id="g16145"
         transform="matrix(1.0000172,0,0,1.0000172,-0.00337151,-0.00720743)">
        <path
           id="path16147"
           d="m 152.53125,78.4375 4.3125,37.53125 C 126.49462,123.33566 105.5625,138.8746 105.5625,156.875 l 0,263.125 181.8125,0 0,-263.125 c 0,-18.0004 -20.93212,-33.53934 -51.28125,-40.90625 l 4.3125,-37.53125 -87.875,0 z"
           style="fill:none;stroke:#000000;stroke-width:2.9999485;stroke-linecap:round;stroke-linejoin:round;stroke-miterlimit:4;stroke-opacity:1;stroke-dashoffset:0"
           inkscape:connector-curvature="0" />
        <g
           transform="translate(0,-2.3912083)"
           id="g16149">
          <path
             sodipodi:nodetypes="ccccc"
             inkscape:connector-curvature="0"
             id="path16151"
             d="m 153.72666,60.166279 85.48418,0 -7.2532,63.391801 -70.97778,0 z"
             style="fill:#cccccc;fill-opacity:1;fill-rule:nonzero;stroke:#000000;stroke-width:2.9999485" />
          <rect
             style="fill:#cccccc;fill-opacity:1;fill-rule:nonzero;stroke:#000000;stroke-width:2.9999485;stroke-linecap:round;stroke-linejoin:round;stroke-miterlimit:4;stroke-opacity:1;stroke-dasharray:none;stroke-dashoffset:0"
             id="rect16153"
             width="117.5"
             height="25.714285"
             x="137.71875"
             y="44.862183" />
        </g>
        <path
           inkscape:connector-curvature="0"
           style="opacity:0.2;fill:#87aade;fill-opacity:1;fill-rule:nonzero;stroke:none"
           d="m 152.53125,78.4375 4.3125,37.53125 C 126.49462,123.33566 105.5625,138.8746 105.5625,156.875 l 0,263.125 181.8125,0 0,-263.125 c 0,-18.0004 -20.93212,-33.53934 -51.28125,-40.90625 l 4.3125,-37.53125 -87.875,0 z"
           id="path16155" />
        <path
           inkscape:connector-curvature="0"
           id="path16157"
           d="m 152.53125,78.4375 87.875,0"
           style="fill:none;stroke:#000000;stroke-width:2.9999485;stroke-linecap:butt;stroke-linejoin:miter;stroke-opacity:1" />
      </g>
      <rect
         style="opacity:0.2;fill:#87aade;fill-opacity:1;fill-rule:nonzero;stroke:none"
         id="rect16159"
         width="181.81561"
         height="200.60394"
         x="104.55079"
         y="221.39609" />
    </g>
    <g
       id="g16400"
       transform="translate(-2.5428994,572.89869)"
       inkscape:export-filename="/home/waldgeist/data/pics/physik/Own/uebungsaufgaben/dichte-bilderraetsel.png"
       inkscape:export-xdpi="150"
       inkscape:export-ydpi="150">
      <g
         id="g3069"
         ns0:preamble="/home/waldgeist/data/sphinx/test.tex"
         ns0:text="$\\unit[250]{cm^3}$"
         transform="matrix(3.2532528,0,0,3.2532528,-568.21616,-366.11495)">
        <defs
           id="defs3071">
          <g
             id="g3073">
            <symbol
               style="overflow:visible"
               id="textext-a5d6f4ae-0"
               overflow="visible">
              <path
                 inkscape:connector-curvature="0"
                 id="path3076"
                 d="m 1.265625,-0.765625 1.0625,-1.03125 c 1.546875,-1.375 2.140625,-1.90625 2.140625,-2.90625 0,-1.140625 -0.890625,-1.9375 -2.109375,-1.9375 -1.125,0 -1.859375,0.921875 -1.859375,1.8125 0,0.546875 0.5,0.546875 0.53125,0.546875 0.171875,0 0.515625,-0.109375 0.515625,-0.53125 0,-0.25 -0.1875,-0.515625 -0.53125,-0.515625 -0.078125,0 -0.09375,0 -0.125,0.015625 0.21875,-0.65625 0.765625,-1.015625 1.34375,-1.015625 0.90625,0 1.328125,0.8125 1.328125,1.625 C 3.5625,-3.90625 3.078125,-3.125 2.515625,-2.5 l -1.90625,2.125 C 0.5,-0.265625 0.5,-0.234375 0.5,0 l 3.703125,0 0.265625,-1.734375 -0.234375,0 C 4.171875,-1.4375 4.109375,-1 4,-0.84375 3.9375,-0.765625 3.28125,-0.765625 3.0625,-0.765625 z m 0,0"
                 style="stroke:none" />
            </symbol>
            <symbol
               style="overflow:visible"
               id="textext-a5d6f4ae-1"
               overflow="visible">
              <path
                 inkscape:connector-curvature="0"
                 id="path3079"
                 d="m 4.46875,-2 c 0,-1.1875 -0.8125,-2.1875 -1.890625,-2.1875 -0.46875,0 -0.90625,0.15625 -1.265625,0.515625 l 0,-1.953125 c 0.203125,0.0625 0.53125,0.125 0.84375,0.125 1.234375,0 1.9375,-0.90625 1.9375,-1.03125 0,-0.0625 -0.03125,-0.109375 -0.109375,-0.109375 0,0 -0.03125,0 -0.078125,0.03125 C 3.703125,-6.515625 3.21875,-6.3125 2.546875,-6.3125 2.15625,-6.3125 1.6875,-6.390625 1.21875,-6.59375 1.140625,-6.625 1.125,-6.625 1.109375,-6.625 1,-6.625 1,-6.546875 1,-6.390625 L 1,-3.4375 c 0,0.171875 0,0.25 0.140625,0.25 0.078125,0 0.09375,-0.015625 0.140625,-0.078125 C 1.390625,-3.421875 1.75,-3.96875 2.5625,-3.96875 c 0.515625,0 0.765625,0.453125 0.84375,0.640625 0.15625,0.375 0.1875,0.75 0.1875,1.25 0,0.359375 0,0.953125 -0.25,1.375 C 3.109375,-0.3125 2.734375,-0.0625 2.28125,-0.0625 c -0.71875,0 -1.296875,-0.53125 -1.46875,-1.109375 0.03125,0 0.0625,0.015625 0.171875,0.015625 0.328125,0 0.5,-0.25 0.5,-0.484375 0,-0.25 -0.171875,-0.5 -0.5,-0.5 C 0.84375,-2.140625 0.5,-2.0625 0.5,-1.609375 0.5,-0.75 1.1875,0.21875 2.296875,0.21875 3.453125,0.21875 4.46875,-0.734375 4.46875,-2 z m 0,0"
                 style="stroke:none" />
            </symbol>
            <symbol
               style="overflow:visible"
               id="textext-a5d6f4ae-2"
               overflow="visible">
              <path
                 inkscape:connector-curvature="0"
                 id="path3082"
                 d="m 4.578125,-3.1875 c 0,-0.796875 -0.046875,-1.59375 -0.390625,-2.328125 -0.453125,-0.96875 -1.28125,-1.125 -1.6875,-1.125 -0.609375,0 -1.328125,0.265625 -1.75,1.1875 -0.3125,0.6875 -0.359375,1.46875 -0.359375,2.265625 0,0.75 0.03125,1.640625 0.453125,2.40625 0.421875,0.796875 1.15625,1 1.640625,1 0.53125,0 1.296875,-0.203125 1.734375,-1.15625 0.3125,-0.6875 0.359375,-1.46875 0.359375,-2.25 z M 2.484375,0 C 2.09375,0 1.5,-0.25 1.328125,-1.203125 1.21875,-1.796875 1.21875,-2.71875 1.21875,-3.3125 c 0,-0.640625 0,-1.296875 0.078125,-1.828125 0.1875,-1.1875 0.9375,-1.28125 1.1875,-1.28125 0.328125,0 0.984375,0.1875 1.171875,1.171875 0.109375,0.5625 0.109375,1.3125 0.109375,1.9375 0,0.75 0,1.421875 -0.109375,2.0625 C 3.5,-0.296875 2.9375,0 2.484375,0 z m 0,0"
                 style="stroke:none" />
            </symbol>
            <symbol
               style="overflow:visible"
               id="textext-a5d6f4ae-3"
               overflow="visible">
              <path
                 inkscape:connector-curvature="0"
                 id="path3085"
                 d="m 1.171875,-2.171875 c 0,-1.625 0.8125,-2.046875 1.34375,-2.046875 0.09375,0 0.71875,0.015625 1.0625,0.375 -0.40625,0.03125 -0.46875,0.328125 -0.46875,0.453125 0,0.265625 0.1875,0.453125 0.453125,0.453125 0.265625,0 0.46875,-0.15625 0.46875,-0.46875 0,-0.671875 -0.765625,-1.0625 -1.53125,-1.0625 -1.25,0 -2.15625,1.078125 -2.15625,2.3125 0,1.28125 0.984375,2.265625 2.140625,2.265625 1.328125,0 1.65625,-1.203125 1.65625,-1.296875 0,-0.09375 -0.109375,-0.09375 -0.140625,-0.09375 -0.078125,0 -0.109375,0.03125 -0.125,0.09375 -0.28125,0.921875 -0.9375,1.046875 -1.296875,1.046875 -0.53125,0 -1.40625,-0.421875 -1.40625,-2.03125 z m 0,0"
                 style="stroke:none" />
            </symbol>
            <symbol
               style="overflow:visible"
               id="textext-a5d6f4ae-4"
               overflow="visible">
              <path
                 inkscape:connector-curvature="0"
                 id="path3088"
                 d="m 1.09375,-3.421875 0,2.671875 c 0,0.4375 -0.109375,0.4375 -0.78125,0.4375 l 0,0.3125 c 0.359375,-0.015625 0.859375,-0.03125 1.140625,-0.03125 0.25,0 0.765625,0.015625 1.109375,0.03125 l 0,-0.3125 c -0.671875,0 -0.78125,0 -0.78125,-0.4375 l 0,-1.84375 C 1.78125,-3.625 2.5,-4.1875 3.125,-4.1875 c 0.640625,0 0.75,0.53125 0.75,1.109375 l 0,2.328125 c 0,0.4375 -0.109375,0.4375 -0.78125,0.4375 l 0,0.3125 c 0.34375,-0.015625 0.859375,-0.03125 1.125,-0.03125 0.25,0 0.78125,0.015625 1.109375,0.03125 l 0,-0.3125 c -0.65625,0 -0.765625,0 -0.765625,-0.4375 l 0,-1.84375 c 0,-1.03125 0.703125,-1.59375 1.34375,-1.59375 0.625,0 0.734375,0.53125 0.734375,1.109375 l 0,2.328125 c 0,0.4375 -0.109375,0.4375 -0.78125,0.4375 l 0,0.3125 c 0.34375,-0.015625 0.859375,-0.03125 1.125,-0.03125 0.265625,0 0.78125,0.015625 1.125,0.03125 l 0,-0.3125 c -0.515625,0 -0.765625,0 -0.78125,-0.296875 l 0,-1.90625 c 0,-0.859375 0,-1.15625 -0.3125,-1.515625 -0.140625,-0.171875 -0.46875,-0.375 -1.046875,-0.375 -0.828125,0 -1.28125,0.59375 -1.4375,0.984375 C 4.390625,-4.296875 3.65625,-4.40625 3.203125,-4.40625 2.46875,-4.40625 2,-3.984375 1.71875,-3.359375 l 0,-1.046875 -1.40625,0.109375 0,0.3125 c 0.703125,0 0.78125,0.0625 0.78125,0.5625 z m 0,0"
                 style="stroke:none" />
            </symbol>
            <symbol
               style="overflow:visible"
               id="textext-a5d6f4ae-5"
               overflow="visible">
              <path
                 inkscape:connector-curvature="0"
                 id="path3091"
                 d="m 1.90625,-2.328125 c 0.546875,0 0.9375,0.375 0.9375,1.125 0,0.859375 -0.515625,1.125 -0.90625,1.125 -0.28125,0 -0.90625,-0.078125 -1.1875,-0.5 0.328125,0 0.40625,-0.234375 0.40625,-0.390625 0,-0.21875 -0.171875,-0.375 -0.390625,-0.375 -0.1875,0 -0.390625,0.125 -0.390625,0.40625 0,0.65625 0.71875,1.078125 1.5625,1.078125 0.96875,0 1.640625,-0.65625 1.640625,-1.34375 0,-0.546875 -0.4375,-1.09375 -1.203125,-1.25 0.71875,-0.265625 0.984375,-0.78125 0.984375,-1.21875 0,-0.546875 -0.625,-0.953125 -1.40625,-0.953125 -0.765625,0 -1.359375,0.375 -1.359375,0.9375 0,0.234375 0.15625,0.359375 0.359375,0.359375 0.21875,0 0.359375,-0.15625 0.359375,-0.34375 0,-0.203125 -0.140625,-0.359375 -0.359375,-0.375 0.25,-0.296875 0.71875,-0.375 0.984375,-0.375 0.3125,0 0.75,0.15625 0.75,0.75 0,0.296875 -0.09375,0.625 -0.28125,0.828125 -0.21875,0.265625 -0.421875,0.28125 -0.765625,0.3125 -0.171875,0.015625 -0.1875,0.015625 -0.21875,0.015625 -0.015625,0 -0.078125,0.015625 -0.078125,0.09375 0,0.09375 0.0625,0.09375 0.1875,0.09375 z m 0,0"
                 style="stroke:none" />
            </symbol>
          </g>
        </defs>
        <g
           id="textext-a5d6f4ae-6">
          <g
             id="g3094"
             style="fill:#000000;fill-opacity:1">
            <use
               height="1052.3622"
               width="744.09448"
               id="use3096"
               y="134.765"
               x="223.43201"
               xlink:href="#textext-a5d6f4ae-0" />
            <use
               height="1052.3622"
               width="744.09448"
               id="use3098"
               y="134.765"
               x="228.4133"
               xlink:href="#textext-a5d6f4ae-1" />
            <use
               height="1052.3622"
               width="744.09448"
               id="use3100"
               y="134.765"
               x="233.39461"
               xlink:href="#textext-a5d6f4ae-2" />
          </g>
          <g
             id="g3102"
             style="fill:#000000;fill-opacity:1">
            <use
               height="1052.3622"
               width="744.09448"
               id="use3104"
               y="134.765"
               x="240.03966"
               xlink:href="#textext-a5d6f4ae-3" />
            <use
               height="1052.3622"
               width="744.09448"
               id="use3106"
               y="134.765"
               x="244.46704"
               xlink:href="#textext-a5d6f4ae-4" />
          </g>
          <g
             id="g3108"
             style="fill:#000000;fill-opacity:1">
            <use
               height="1052.3622"
               width="744.09448"
               id="use3110"
               y="131.149"
               x="252.767"
               xlink:href="#textext-a5d6f4ae-5" />
          </g>
        </g>
      </g>
      <g
         id="g3288"
         transform="matrix(3.2532528,0,0,3.2532528,-549.54681,-233.02056)"
         ns0:preamble="/home/waldgeist/data/sphinx/test.tex"
         ns0:text="$\\unit[250]{g}$">
        <defs
           id="defs3290">
          <g
             id="g3292">
            <symbol
               id="textext-a17402fc-0"
               overflow="visible"
               style="overflow:visible">
              <path
                 id="path3295"
                 d="m 1.265625,-0.765625 1.0625,-1.03125 c 1.546875,-1.375 2.140625,-1.90625 2.140625,-2.90625 0,-1.140625 -0.890625,-1.9375 -2.109375,-1.9375 -1.125,0 -1.859375,0.921875 -1.859375,1.8125 0,0.546875 0.5,0.546875 0.53125,0.546875 0.171875,0 0.515625,-0.109375 0.515625,-0.53125 0,-0.25 -0.1875,-0.515625 -0.53125,-0.515625 -0.078125,0 -0.09375,0 -0.125,0.015625 0.21875,-0.65625 0.765625,-1.015625 1.34375,-1.015625 0.90625,0 1.328125,0.8125 1.328125,1.625 C 3.5625,-3.90625 3.078125,-3.125 2.515625,-2.5 l -1.90625,2.125 C 0.5,-0.265625 0.5,-0.234375 0.5,0 l 3.703125,0 0.265625,-1.734375 -0.234375,0 C 4.171875,-1.4375 4.109375,-1 4,-0.84375 3.9375,-0.765625 3.28125,-0.765625 3.0625,-0.765625 z m 0,0"
                 style="stroke:none"
                 inkscape:connector-curvature="0" />
            </symbol>
            <symbol
               id="textext-a17402fc-1"
               overflow="visible"
               style="overflow:visible">
              <path
                 id="path3298"
                 d="m 4.46875,-2 c 0,-1.1875 -0.8125,-2.1875 -1.890625,-2.1875 -0.46875,0 -0.90625,0.15625 -1.265625,0.515625 l 0,-1.953125 c 0.203125,0.0625 0.53125,0.125 0.84375,0.125 1.234375,0 1.9375,-0.90625 1.9375,-1.03125 0,-0.0625 -0.03125,-0.109375 -0.109375,-0.109375 0,0 -0.03125,0 -0.078125,0.03125 C 3.703125,-6.515625 3.21875,-6.3125 2.546875,-6.3125 2.15625,-6.3125 1.6875,-6.390625 1.21875,-6.59375 1.140625,-6.625 1.125,-6.625 1.109375,-6.625 1,-6.625 1,-6.546875 1,-6.390625 L 1,-3.4375 c 0,0.171875 0,0.25 0.140625,0.25 0.078125,0 0.09375,-0.015625 0.140625,-0.078125 C 1.390625,-3.421875 1.75,-3.96875 2.5625,-3.96875 c 0.515625,0 0.765625,0.453125 0.84375,0.640625 0.15625,0.375 0.1875,0.75 0.1875,1.25 0,0.359375 0,0.953125 -0.25,1.375 C 3.109375,-0.3125 2.734375,-0.0625 2.28125,-0.0625 c -0.71875,0 -1.296875,-0.53125 -1.46875,-1.109375 0.03125,0 0.0625,0.015625 0.171875,0.015625 0.328125,0 0.5,-0.25 0.5,-0.484375 0,-0.25 -0.171875,-0.5 -0.5,-0.5 C 0.84375,-2.140625 0.5,-2.0625 0.5,-1.609375 0.5,-0.75 1.1875,0.21875 2.296875,0.21875 3.453125,0.21875 4.46875,-0.734375 4.46875,-2 z m 0,0"
                 style="stroke:none"
                 inkscape:connector-curvature="0" />
            </symbol>
            <symbol
               id="textext-a17402fc-2"
               overflow="visible"
               style="overflow:visible">
              <path
                 id="path3301"
                 d="m 4.578125,-3.1875 c 0,-0.796875 -0.046875,-1.59375 -0.390625,-2.328125 -0.453125,-0.96875 -1.28125,-1.125 -1.6875,-1.125 -0.609375,0 -1.328125,0.265625 -1.75,1.1875 -0.3125,0.6875 -0.359375,1.46875 -0.359375,2.265625 0,0.75 0.03125,1.640625 0.453125,2.40625 0.421875,0.796875 1.15625,1 1.640625,1 0.53125,0 1.296875,-0.203125 1.734375,-1.15625 0.3125,-0.6875 0.359375,-1.46875 0.359375,-2.25 z M 2.484375,0 C 2.09375,0 1.5,-0.25 1.328125,-1.203125 1.21875,-1.796875 1.21875,-2.71875 1.21875,-3.3125 c 0,-0.640625 0,-1.296875 0.078125,-1.828125 0.1875,-1.1875 0.9375,-1.28125 1.1875,-1.28125 0.328125,0 0.984375,0.1875 1.171875,1.171875 0.109375,0.5625 0.109375,1.3125 0.109375,1.9375 0,0.75 0,1.421875 -0.109375,2.0625 C 3.5,-0.296875 2.9375,0 2.484375,0 z m 0,0"
                 style="stroke:none"
                 inkscape:connector-curvature="0" />
            </symbol>
            <symbol
               id="textext-a17402fc-3"
               overflow="visible"
               style="overflow:visible">
              <path
                 id="path3304"
                 d="m 2.21875,-1.71875 c -0.875,0 -0.875,-1 -0.875,-1.21875 0,-0.265625 0.015625,-0.59375 0.15625,-0.84375 0.078125,-0.109375 0.3125,-0.390625 0.71875,-0.390625 0.859375,0 0.859375,0.984375 0.859375,1.21875 0,0.265625 0,0.59375 -0.15625,0.84375 C 2.84375,-2 2.609375,-1.71875 2.21875,-1.71875 z M 1.0625,-1.328125 c 0,-0.03125 0,-0.265625 0.15625,-0.46875 0.390625,0.28125 0.8125,0.3125 1,0.3125 0.921875,0 1.609375,-0.6875 1.609375,-1.453125 0,-0.375 -0.15625,-0.734375 -0.40625,-0.96875 C 3.78125,-4.25 4.140625,-4.296875 4.3125,-4.296875 c 0.03125,0 0.078125,0 0.109375,0.015625 C 4.3125,-4.25 4.25,-4.140625 4.25,-4.015625 c 0,0.171875 0.140625,0.28125 0.296875,0.28125 0.09375,0 0.28125,-0.0625 0.28125,-0.296875 0,-0.171875 -0.109375,-0.484375 -0.5,-0.484375 -0.203125,0 -0.640625,0.0625 -1.0625,0.46875 C 2.84375,-4.375 2.4375,-4.40625 2.21875,-4.40625 c -0.9375,0 -1.625,0.6875 -1.625,1.453125 0,0.4375 0.21875,0.8125 0.46875,1.03125 -0.125,0.140625 -0.3125,0.46875 -0.3125,0.828125 0,0.3125 0.140625,0.6875 0.453125,0.890625 -0.609375,0.15625 -0.921875,0.59375 -0.921875,0.984375 0,0.71875 0.984375,1.265625 2.203125,1.265625 1.171875,0 2.203125,-0.5 2.203125,-1.28125 0,-0.34375 -0.125,-0.859375 -0.640625,-1.140625 -0.53125,-0.265625 -1.109375,-0.265625 -1.71875,-0.265625 -0.25,0 -0.671875,0 -0.75,-0.015625 C 1.265625,-0.703125 1.0625,-1 1.0625,-1.328125 z M 2.5,1.828125 c -1.015625,0 -1.703125,-0.515625 -1.703125,-1.046875 0,-0.453125 0.375,-0.828125 0.8125,-0.84375 l 0.59375,0 c 0.859375,0 1.96875,0 1.96875,0.84375 0,0.546875 -0.703125,1.046875 -1.671875,1.046875 z m 0,0"
                 style="stroke:none"
                 inkscape:connector-curvature="0" />
            </symbol>
          </g>
        </defs>
        <g
           id="textext-a17402fc-4">
          <g
             id="g3307"
             style="fill:#000000;fill-opacity:1">
            <use
               id="use3309"
               y="134.765"
               x="223.43201"
               xlink:href="#textext-a17402fc-0"
               width="744.09448"
               height="1052.3622" />
            <use
               id="use3311"
               y="134.765"
               x="228.4133"
               xlink:href="#textext-a17402fc-1"
               width="744.09448"
               height="1052.3622" />
            <use
               id="use3313"
               y="134.765"
               x="233.39461"
               xlink:href="#textext-a17402fc-2"
               width="744.09448"
               height="1052.3622" />
          </g>
          <g
             id="g3315"
             style="fill:#000000;fill-opacity:1">
            <use
               id="use3317"
               y="134.765"
               x="240.03966"
               xlink:href="#textext-a17402fc-3"
               width="744.09448"
               height="1052.3622" />
          </g>
        </g>
      </g>
      <g
         ns0:text="Wasser"
         ns0:preamble="/home/waldgeist/data/sphinx/test.tex"
         transform="matrix(3.2532528,0,0,3.2532528,-563.43973,-298.74616)"
         id="g3449">
        <defs
           id="defs3451">
          <g
             id="g3453">
            <symbol
               style="overflow:visible"
               overflow="visible"
               id="textext-b3bca8b3-0">
              <path
                 inkscape:connector-curvature="0"
                 style="stroke:none"
                 d="M 9.0625,-5.828125 C 9.234375,-6.40625 9.671875,-6.5 10.0625,-6.5 l 0,-0.3125 c -0.296875,0.03125 -0.609375,0.03125 -0.90625,0.03125 -0.296875,0 -0.9375,-0.015625 -1.1875,-0.03125 l 0,0.3125 c 0.671875,0.015625 0.859375,0.34375 0.859375,0.53125 0,0.0625 -0.03125,0.140625 -0.046875,0.203125 l -1.5,4.59375 -1.59375,-4.875 C 5.6875,-6.09375 5.65625,-6.15625 5.65625,-6.203125 5.65625,-6.5 6.234375,-6.5 6.5,-6.5 l 0,-0.3125 c -0.359375,0.03125 -1.03125,0.03125 -1.421875,0.03125 -0.375,0 -0.796875,-0.015625 -1.203125,-0.03125 l 0,0.3125 c 0.5625,0 0.765625,0 0.890625,0.359375 L 4.984375,-5.4375 3.59375,-1.171875 2,-6.078125 C 1.984375,-6.09375 1.96875,-6.171875 1.96875,-6.203125 1.96875,-6.5 2.546875,-6.5 2.8125,-6.5 l 0,-0.3125 c -0.359375,0.03125 -1.03125,0.03125 -1.421875,0.03125 -0.375,0 -0.796875,-0.015625 -1.21875,-0.03125 l 0,0.3125 c 0.75,0 0.796875,0.046875 0.921875,0.421875 L 3.078125,0.03125 c 0.03125,0.09375 0.0625,0.1875 0.1875,0.1875 0.140625,0 0.15625,-0.0625 0.203125,-0.203125 l 1.640625,-5.0625 1.65625,5.078125 c 0.03125,0.09375 0.0625,0.1875 0.1875,0.1875 0.140625,0 0.171875,-0.0625 0.203125,-0.203125 z m 0,0"
                 id="path3456" />
            </symbol>
            <symbol
               style="overflow:visible"
               overflow="visible"
               id="textext-b3bca8b3-1">
              <path
                 inkscape:connector-curvature="0"
                 style="stroke:none"
                 d="m 3.3125,-0.75 c 0.046875,0.390625 0.3125,0.8125 0.78125,0.8125 0.21875,0 0.828125,-0.140625 0.828125,-0.953125 l 0,-0.5625 -0.25,0 0,0.5625 c 0,0.578125 -0.25,0.640625 -0.359375,0.640625 -0.328125,0 -0.375,-0.453125 -0.375,-0.5 l 0,-1.984375 c 0,-0.421875 0,-0.8125 -0.359375,-1.1875 C 3.1875,-4.3125 2.6875,-4.46875 2.21875,-4.46875 c -0.828125,0 -1.515625,0.46875 -1.515625,1.125 0,0.296875 0.203125,0.46875 0.46875,0.46875 0.28125,0 0.453125,-0.203125 0.453125,-0.453125 0,-0.125 -0.046875,-0.453125 -0.515625,-0.453125 C 1.390625,-4.140625 1.875,-4.25 2.1875,-4.25 c 0.5,0 1.0625,0.390625 1.0625,1.28125 l 0,0.359375 c -0.515625,0.03125 -1.203125,0.0625 -1.828125,0.359375 -0.75,0.34375 -1,0.859375 -1,1.296875 0,0.8125 0.96875,1.0625 1.59375,1.0625 0.65625,0 1.109375,-0.40625 1.296875,-0.859375 z M 3.25,-2.390625 l 0,1 c 0,0.9375 -0.71875,1.28125 -1.171875,1.28125 -0.484375,0 -0.890625,-0.34375 -0.890625,-0.84375 0,-0.546875 0.421875,-1.375 2.0625,-1.4375 z m 0,0"
                 id="path3459" />
            </symbol>
            <symbol
               style="overflow:visible"
               overflow="visible"
               id="textext-b3bca8b3-2">
              <path
                 inkscape:connector-curvature="0"
                 style="stroke:none"
                 d="m 2.078125,-1.9375 c 0.21875,0.046875 1.03125,0.203125 1.03125,0.921875 0,0.5 -0.34375,0.90625 -1.125,0.90625 -0.84375,0 -1.203125,-0.5625 -1.390625,-1.421875 C 0.5625,-1.65625 0.5625,-1.6875 0.453125,-1.6875 c -0.125,0 -0.125,0.0625 -0.125,0.234375 l 0,1.328125 c 0,0.171875 0,0.234375 0.109375,0.234375 0.046875,0 0.0625,-0.015625 0.25,-0.203125 0.015625,-0.015625 0.015625,-0.03125 0.203125,-0.21875 0.4375,0.40625 0.890625,0.421875 1.09375,0.421875 1.140625,0 1.609375,-0.671875 1.609375,-1.390625 0,-0.515625 -0.296875,-0.828125 -0.421875,-0.9375 C 2.84375,-2.546875 2.453125,-2.625 2.03125,-2.703125 1.46875,-2.8125 0.8125,-2.9375 0.8125,-3.515625 c 0,-0.359375 0.25,-0.765625 1.109375,-0.765625 1.09375,0 1.15625,0.90625 1.171875,1.203125 0,0.09375 0.09375,0.09375 0.109375,0.09375 0.140625,0 0.140625,-0.046875 0.140625,-0.234375 l 0,-1.015625 c 0,-0.15625 0,-0.234375 -0.109375,-0.234375 -0.046875,0 -0.078125,0 -0.203125,0.125 -0.03125,0.03125 -0.125,0.125 -0.171875,0.15625 -0.375,-0.28125 -0.78125,-0.28125 -0.9375,-0.28125 -1.21875,0 -1.59375,0.671875 -1.59375,1.234375 0,0.34375 0.15625,0.625 0.421875,0.84375 0.328125,0.25 0.609375,0.3125 1.328125,0.453125 z m 0,0"
                 id="path3462" />
            </symbol>
            <symbol
               style="overflow:visible"
               overflow="visible"
               id="textext-b3bca8b3-3">
              <path
                 inkscape:connector-curvature="0"
                 style="stroke:none"
                 d="M 1.109375,-2.515625 C 1.171875,-4 2.015625,-4.25 2.359375,-4.25 c 1.015625,0 1.125,1.34375 1.125,1.734375 z m 0,0.21875 2.78125,0 c 0.21875,0 0.25,0 0.25,-0.21875 0,-0.984375 -0.546875,-1.953125 -1.78125,-1.953125 -1.15625,0 -2.078125,1.03125 -2.078125,2.28125 0,1.328125 1.046875,2.296875 2.1875,2.296875 C 3.6875,0.109375 4.140625,-1 4.140625,-1.1875 4.140625,-1.28125 4.0625,-1.3125 4,-1.3125 c -0.078125,0 -0.109375,0.0625 -0.125,0.140625 -0.34375,1.03125 -1.25,1.03125 -1.34375,1.03125 -0.5,0 -0.890625,-0.296875 -1.125,-0.671875 -0.296875,-0.46875 -0.296875,-1.125 -0.296875,-1.484375 z m 0,0"
                 id="path3465" />
            </symbol>
            <symbol
               style="overflow:visible"
               overflow="visible"
               id="textext-b3bca8b3-4">
              <path
                 inkscape:connector-curvature="0"
                 style="stroke:none"
                 d="m 1.671875,-3.3125 0,-1.09375 -1.390625,0.109375 0,0.3125 c 0.703125,0 0.78125,0.0625 0.78125,0.5625 l 0,2.671875 c 0,0.4375 -0.109375,0.4375 -0.78125,0.4375 l 0,0.3125 c 0.390625,-0.015625 0.859375,-0.03125 1.140625,-0.03125 0.390625,0 0.859375,0 1.265625,0.03125 l 0,-0.3125 -0.21875,0 c -0.734375,0 -0.75,-0.109375 -0.75,-0.46875 l 0,-1.53125 c 0,-0.984375 0.421875,-1.875 1.171875,-1.875 0.0625,0 0.09375,0 0.109375,0.015625 -0.03125,0 -0.234375,0.125 -0.234375,0.390625 0,0.265625 0.21875,0.421875 0.4375,0.421875 0.171875,0 0.421875,-0.125 0.421875,-0.4375 0,-0.3125 -0.3125,-0.609375 -0.734375,-0.609375 -0.734375,0 -1.09375,0.671875 -1.21875,1.09375 z m 0,0"
                 id="path3468" />
            </symbol>
          </g>
        </defs>
        <g
           id="textext-b3bca8b3-5">
          <g
             style="fill:#000000;fill-opacity:1"
             id="g3471">
            <use
               height="1052.3622"
               width="744.09448"
               xlink:href="#textext-b3bca8b3-0"
               x="223.43201"
               y="134.765"
               id="use3473" />
          </g>
          <g
             style="fill:#000000;fill-opacity:1"
             id="g3475">
            <use
               height="1052.3622"
               width="744.09448"
               xlink:href="#textext-b3bca8b3-1"
               x="232.84467"
               y="134.765"
               id="use3477" />
            <use
               height="1052.3622"
               width="744.09448"
               xlink:href="#textext-b3bca8b3-2"
               x="237.82596"
               y="134.765"
               id="use3479" />
            <use
               height="1052.3622"
               width="744.09448"
               xlink:href="#textext-b3bca8b3-2"
               x="241.75522"
               y="134.765"
               id="use3481" />
            <use
               height="1052.3622"
               width="744.09448"
               xlink:href="#textext-b3bca8b3-3"
               x="245.68446"
               y="134.765"
               id="use3483" />
            <use
               height="1052.3622"
               width="744.09448"
               xlink:href="#textext-b3bca8b3-4"
               x="250.11185"
               y="134.765"
               id="use3485" />
          </g>
        </g>
      </g>
    </g>
    <g
       id="g16467"
       transform="translate(-13.894421,575.59279)"
       inkscape:export-filename="/home/waldgeist/data/pics/physik/Own/uebungsaufgaben/dichte-bilderraetsel.png"
       inkscape:export-xdpi="150"
       inkscape:export-ydpi="150">
      <g
         transform="matrix(3.2532528,0,0,3.2532528,-346.39214,-366.11495)"
         ns0:text="$\\unit[250]{cm^3}$"
         ns0:preamble="/home/waldgeist/data/sphinx/test.tex"
         id="g3555">
        <defs
           id="defs3557">
          <g
             id="g3559">
            <symbol
               style="overflow:visible"
               overflow="visible"
               id="symbol3561">
              <path
                 inkscape:connector-curvature="0"
                 style="stroke:none"
                 d="m 1.265625,-0.765625 1.0625,-1.03125 c 1.546875,-1.375 2.140625,-1.90625 2.140625,-2.90625 0,-1.140625 -0.890625,-1.9375 -2.109375,-1.9375 -1.125,0 -1.859375,0.921875 -1.859375,1.8125 0,0.546875 0.5,0.546875 0.53125,0.546875 0.171875,0 0.515625,-0.109375 0.515625,-0.53125 0,-0.25 -0.1875,-0.515625 -0.53125,-0.515625 -0.078125,0 -0.09375,0 -0.125,0.015625 0.21875,-0.65625 0.765625,-1.015625 1.34375,-1.015625 0.90625,0 1.328125,0.8125 1.328125,1.625 C 3.5625,-3.90625 3.078125,-3.125 2.515625,-2.5 l -1.90625,2.125 C 0.5,-0.265625 0.5,-0.234375 0.5,0 l 3.703125,0 0.265625,-1.734375 -0.234375,0 C 4.171875,-1.4375 4.109375,-1 4,-0.84375 3.9375,-0.765625 3.28125,-0.765625 3.0625,-0.765625 z m 0,0"
                 id="path3563" />
            </symbol>
            <symbol
               style="overflow:visible"
               overflow="visible"
               id="symbol3565">
              <path
                 inkscape:connector-curvature="0"
                 style="stroke:none"
                 d="m 4.46875,-2 c 0,-1.1875 -0.8125,-2.1875 -1.890625,-2.1875 -0.46875,0 -0.90625,0.15625 -1.265625,0.515625 l 0,-1.953125 c 0.203125,0.0625 0.53125,0.125 0.84375,0.125 1.234375,0 1.9375,-0.90625 1.9375,-1.03125 0,-0.0625 -0.03125,-0.109375 -0.109375,-0.109375 0,0 -0.03125,0 -0.078125,0.03125 C 3.703125,-6.515625 3.21875,-6.3125 2.546875,-6.3125 2.15625,-6.3125 1.6875,-6.390625 1.21875,-6.59375 1.140625,-6.625 1.125,-6.625 1.109375,-6.625 1,-6.625 1,-6.546875 1,-6.390625 L 1,-3.4375 c 0,0.171875 0,0.25 0.140625,0.25 0.078125,0 0.09375,-0.015625 0.140625,-0.078125 C 1.390625,-3.421875 1.75,-3.96875 2.5625,-3.96875 c 0.515625,0 0.765625,0.453125 0.84375,0.640625 0.15625,0.375 0.1875,0.75 0.1875,1.25 0,0.359375 0,0.953125 -0.25,1.375 C 3.109375,-0.3125 2.734375,-0.0625 2.28125,-0.0625 c -0.71875,0 -1.296875,-0.53125 -1.46875,-1.109375 0.03125,0 0.0625,0.015625 0.171875,0.015625 0.328125,0 0.5,-0.25 0.5,-0.484375 0,-0.25 -0.171875,-0.5 -0.5,-0.5 C 0.84375,-2.140625 0.5,-2.0625 0.5,-1.609375 0.5,-0.75 1.1875,0.21875 2.296875,0.21875 3.453125,0.21875 4.46875,-0.734375 4.46875,-2 z m 0,0"
                 id="path3567" />
            </symbol>
            <symbol
               style="overflow:visible"
               overflow="visible"
               id="symbol3569">
              <path
                 inkscape:connector-curvature="0"
                 style="stroke:none"
                 d="m 4.578125,-3.1875 c 0,-0.796875 -0.046875,-1.59375 -0.390625,-2.328125 -0.453125,-0.96875 -1.28125,-1.125 -1.6875,-1.125 -0.609375,0 -1.328125,0.265625 -1.75,1.1875 -0.3125,0.6875 -0.359375,1.46875 -0.359375,2.265625 0,0.75 0.03125,1.640625 0.453125,2.40625 0.421875,0.796875 1.15625,1 1.640625,1 0.53125,0 1.296875,-0.203125 1.734375,-1.15625 0.3125,-0.6875 0.359375,-1.46875 0.359375,-2.25 z M 2.484375,0 C 2.09375,0 1.5,-0.25 1.328125,-1.203125 1.21875,-1.796875 1.21875,-2.71875 1.21875,-3.3125 c 0,-0.640625 0,-1.296875 0.078125,-1.828125 0.1875,-1.1875 0.9375,-1.28125 1.1875,-1.28125 0.328125,0 0.984375,0.1875 1.171875,1.171875 0.109375,0.5625 0.109375,1.3125 0.109375,1.9375 0,0.75 0,1.421875 -0.109375,2.0625 C 3.5,-0.296875 2.9375,0 2.484375,0 z m 0,0"
                 id="path3571" />
            </symbol>
            <symbol
               style="overflow:visible"
               overflow="visible"
               id="symbol3573">
              <path
                 inkscape:connector-curvature="0"
                 style="stroke:none"
                 d="m 1.171875,-2.171875 c 0,-1.625 0.8125,-2.046875 1.34375,-2.046875 0.09375,0 0.71875,0.015625 1.0625,0.375 -0.40625,0.03125 -0.46875,0.328125 -0.46875,0.453125 0,0.265625 0.1875,0.453125 0.453125,0.453125 0.265625,0 0.46875,-0.15625 0.46875,-0.46875 0,-0.671875 -0.765625,-1.0625 -1.53125,-1.0625 -1.25,0 -2.15625,1.078125 -2.15625,2.3125 0,1.28125 0.984375,2.265625 2.140625,2.265625 1.328125,0 1.65625,-1.203125 1.65625,-1.296875 0,-0.09375 -0.109375,-0.09375 -0.140625,-0.09375 -0.078125,0 -0.109375,0.03125 -0.125,0.09375 -0.28125,0.921875 -0.9375,1.046875 -1.296875,1.046875 -0.53125,0 -1.40625,-0.421875 -1.40625,-2.03125 z m 0,0"
                 id="path3575" />
            </symbol>
            <symbol
               style="overflow:visible"
               overflow="visible"
               id="symbol3577">
              <path
                 inkscape:connector-curvature="0"
                 style="stroke:none"
                 d="m 1.09375,-3.421875 0,2.671875 c 0,0.4375 -0.109375,0.4375 -0.78125,0.4375 l 0,0.3125 c 0.359375,-0.015625 0.859375,-0.03125 1.140625,-0.03125 0.25,0 0.765625,0.015625 1.109375,0.03125 l 0,-0.3125 c -0.671875,0 -0.78125,0 -0.78125,-0.4375 l 0,-1.84375 C 1.78125,-3.625 2.5,-4.1875 3.125,-4.1875 c 0.640625,0 0.75,0.53125 0.75,1.109375 l 0,2.328125 c 0,0.4375 -0.109375,0.4375 -0.78125,0.4375 l 0,0.3125 c 0.34375,-0.015625 0.859375,-0.03125 1.125,-0.03125 0.25,0 0.78125,0.015625 1.109375,0.03125 l 0,-0.3125 c -0.65625,0 -0.765625,0 -0.765625,-0.4375 l 0,-1.84375 c 0,-1.03125 0.703125,-1.59375 1.34375,-1.59375 0.625,0 0.734375,0.53125 0.734375,1.109375 l 0,2.328125 c 0,0.4375 -0.109375,0.4375 -0.78125,0.4375 l 0,0.3125 c 0.34375,-0.015625 0.859375,-0.03125 1.125,-0.03125 0.265625,0 0.78125,0.015625 1.125,0.03125 l 0,-0.3125 c -0.515625,0 -0.765625,0 -0.78125,-0.296875 l 0,-1.90625 c 0,-0.859375 0,-1.15625 -0.3125,-1.515625 -0.140625,-0.171875 -0.46875,-0.375 -1.046875,-0.375 -0.828125,0 -1.28125,0.59375 -1.4375,0.984375 C 4.390625,-4.296875 3.65625,-4.40625 3.203125,-4.40625 2.46875,-4.40625 2,-3.984375 1.71875,-3.359375 l 0,-1.046875 -1.40625,0.109375 0,0.3125 c 0.703125,0 0.78125,0.0625 0.78125,0.5625 z m 0,0"
                 id="path3579" />
            </symbol>
            <symbol
               style="overflow:visible"
               overflow="visible"
               id="symbol3581">
              <path
                 inkscape:connector-curvature="0"
                 style="stroke:none"
                 d="m 1.90625,-2.328125 c 0.546875,0 0.9375,0.375 0.9375,1.125 0,0.859375 -0.515625,1.125 -0.90625,1.125 -0.28125,0 -0.90625,-0.078125 -1.1875,-0.5 0.328125,0 0.40625,-0.234375 0.40625,-0.390625 0,-0.21875 -0.171875,-0.375 -0.390625,-0.375 -0.1875,0 -0.390625,0.125 -0.390625,0.40625 0,0.65625 0.71875,1.078125 1.5625,1.078125 0.96875,0 1.640625,-0.65625 1.640625,-1.34375 0,-0.546875 -0.4375,-1.09375 -1.203125,-1.25 0.71875,-0.265625 0.984375,-0.78125 0.984375,-1.21875 0,-0.546875 -0.625,-0.953125 -1.40625,-0.953125 -0.765625,0 -1.359375,0.375 -1.359375,0.9375 0,0.234375 0.15625,0.359375 0.359375,0.359375 0.21875,0 0.359375,-0.15625 0.359375,-0.34375 0,-0.203125 -0.140625,-0.359375 -0.359375,-0.375 0.25,-0.296875 0.71875,-0.375 0.984375,-0.375 0.3125,0 0.75,0.15625 0.75,0.75 0,0.296875 -0.09375,0.625 -0.28125,0.828125 -0.21875,0.265625 -0.421875,0.28125 -0.765625,0.3125 -0.171875,0.015625 -0.1875,0.015625 -0.21875,0.015625 -0.015625,0 -0.078125,0.015625 -0.078125,0.09375 0,0.09375 0.0625,0.09375 0.1875,0.09375 z m 0,0"
                 id="path3583" />
            </symbol>
          </g>
        </defs>
        <g
           id="g3585">
          <g
             style="fill:#000000;fill-opacity:1"
             id="g3587">
            <use
               height="1052.3622"
               width="744.09448"
               xlink:href="#textext-a5d6f4ae-0"
               x="223.43201"
               y="134.765"
               id="use3589" />
            <use
               height="1052.3622"
               width="744.09448"
               xlink:href="#textext-a5d6f4ae-1"
               x="228.4133"
               y="134.765"
               id="use3591" />
            <use
               height="1052.3622"
               width="744.09448"
               xlink:href="#textext-a5d6f4ae-2"
               x="233.39461"
               y="134.765"
               id="use3593" />
          </g>
          <g
             style="fill:#000000;fill-opacity:1"
             id="g3595">
            <use
               height="1052.3622"
               width="744.09448"
               xlink:href="#textext-a5d6f4ae-3"
               x="240.03966"
               y="134.765"
               id="use3597" />
            <use
               height="1052.3622"
               width="744.09448"
               xlink:href="#textext-a5d6f4ae-4"
               x="244.46704"
               y="134.765"
               id="use3599" />
          </g>
          <g
             style="fill:#000000;fill-opacity:1"
             id="g3601">
            <use
               height="1052.3622"
               width="744.09448"
               xlink:href="#textext-a5d6f4ae-5"
               x="252.767"
               y="131.149"
               id="use3603" />
          </g>
        </g>
      </g>
      <g
         id="g3744"
         transform="matrix(3.2532528,0,0,3.2532528,-340.68021,-298.74616)"
         ns0:preamble="/home/waldgeist/data/sphinx/test.tex"
         ns0:text="Benzin">
        <defs
           id="defs3746">
          <g
             id="g3748">
            <symbol
               style="overflow:visible"
               id="textext-c304c945-0"
               overflow="visible">
              <path
                 inkscape:connector-curvature="0"
                 id="path3751"
                 d="m 2.21875,-3.65625 0,-2.4375 C 2.21875,-6.4375 2.234375,-6.5 2.703125,-6.5 l 1.234375,0 c 0.96875,0 1.3125,0.84375 1.3125,1.375 0,0.640625 -0.484375,1.46875 -1.59375,1.46875 z M 4.5625,-3.5625 C 5.53125,-3.75 6.21875,-4.390625 6.21875,-5.125 6.21875,-5.984375 5.296875,-6.8125 4,-6.8125 l -3.640625,0 0,0.3125 0.234375,0 c 0.765625,0 0.796875,0.109375 0.796875,0.46875 l 0,5.25 c 0,0.359375 -0.03125,0.46875 -0.796875,0.46875 l -0.234375,0 0,0.3125 3.90625,0 c 1.328125,0 2.21875,-0.890625 2.21875,-1.828125 0,-0.859375 -0.8125,-1.609375 -1.921875,-1.734375 z m -0.609375,3.25 -1.25,0 c -0.46875,0 -0.484375,-0.0625 -0.484375,-0.390625 l 0,-2.71875 1.875,0 C 5.078125,-3.421875 5.5,-2.5 5.5,-1.828125 5.5,-1.125 4.96875,-0.3125 3.953125,-0.3125 z m 0,0"
                 style="stroke:none" />
            </symbol>
            <symbol
               style="overflow:visible"
               id="textext-c304c945-1"
               overflow="visible">
              <path
                 inkscape:connector-curvature="0"
                 id="path3754"
                 d="M 1.109375,-2.515625 C 1.171875,-4 2.015625,-4.25 2.359375,-4.25 c 1.015625,0 1.125,1.34375 1.125,1.734375 z m 0,0.21875 2.78125,0 c 0.21875,0 0.25,0 0.25,-0.21875 0,-0.984375 -0.546875,-1.953125 -1.78125,-1.953125 -1.15625,0 -2.078125,1.03125 -2.078125,2.28125 0,1.328125 1.046875,2.296875 2.1875,2.296875 C 3.6875,0.109375 4.140625,-1 4.140625,-1.1875 4.140625,-1.28125 4.0625,-1.3125 4,-1.3125 c -0.078125,0 -0.109375,0.0625 -0.125,0.140625 -0.34375,1.03125 -1.25,1.03125 -1.34375,1.03125 -0.5,0 -0.890625,-0.296875 -1.125,-0.671875 -0.296875,-0.46875 -0.296875,-1.125 -0.296875,-1.484375 z m 0,0"
                 style="stroke:none" />
            </symbol>
            <symbol
               style="overflow:visible"
               id="textext-c304c945-2"
               overflow="visible">
              <path
                 inkscape:connector-curvature="0"
                 id="path3757"
                 d="m 1.09375,-3.421875 0,2.671875 c 0,0.4375 -0.109375,0.4375 -0.78125,0.4375 l 0,0.3125 c 0.359375,-0.015625 0.859375,-0.03125 1.140625,-0.03125 0.25,0 0.765625,0.015625 1.109375,0.03125 l 0,-0.3125 c -0.671875,0 -0.78125,0 -0.78125,-0.4375 l 0,-1.84375 C 1.78125,-3.625 2.5,-4.1875 3.125,-4.1875 c 0.640625,0 0.75,0.53125 0.75,1.109375 l 0,2.328125 c 0,0.4375 -0.109375,0.4375 -0.78125,0.4375 l 0,0.3125 c 0.34375,-0.015625 0.859375,-0.03125 1.125,-0.03125 0.25,0 0.78125,0.015625 1.109375,0.03125 l 0,-0.3125 c -0.515625,0 -0.765625,0 -0.765625,-0.296875 l 0,-1.90625 c 0,-0.859375 0,-1.15625 -0.3125,-1.515625 -0.140625,-0.171875 -0.46875,-0.375 -1.046875,-0.375 C 2.46875,-4.40625 2,-3.984375 1.71875,-3.359375 l 0,-1.046875 -1.40625,0.109375 0,0.3125 c 0.703125,0 0.78125,0.0625 0.78125,0.5625 z m 0,0"
                 style="stroke:none" />
            </symbol>
            <symbol
               style="overflow:visible"
               id="textext-c304c945-3"
               overflow="visible">
              <path
                 inkscape:connector-curvature="0"
                 id="path3760"
                 d="m 3.890625,-4 c 0.09375,-0.109375 0.09375,-0.125 0.09375,-0.171875 0,-0.125 -0.09375,-0.125 -0.265625,-0.125 l -3.1875,0 -0.109375,1.609375 0.25,0 c 0.0625,-1.015625 0.25,-1.390625 1.34375,-1.390625 l 1.140625,0 L 0.375,-0.3125 C 0.28125,-0.203125 0.28125,-0.1875 0.28125,-0.140625 0.28125,0 0.34375,0 0.53125,0 L 3.828125,0 4,-1.859375 l -0.25,0 C 3.65625,-0.6875 3.453125,-0.25 2.296875,-0.25 l -1.1875,0 z m 0,0"
                 style="stroke:none" />
            </symbol>
            <symbol
               style="overflow:visible"
               id="textext-c304c945-4"
               overflow="visible">
              <path
                 inkscape:connector-curvature="0"
                 id="path3763"
                 d="M 1.765625,-4.40625 0.375,-4.296875 l 0,0.3125 c 0.640625,0 0.734375,0.0625 0.734375,0.546875 l 0,2.6875 c 0,0.4375 -0.109375,0.4375 -0.78125,0.4375 l 0,0.3125 C 0.640625,-0.015625 1.1875,-0.03125 1.421875,-0.03125 1.78125,-0.03125 2.125,-0.015625 2.46875,0 l 0,-0.3125 c -0.671875,0 -0.703125,-0.046875 -0.703125,-0.4375 z m 0.03125,-1.734375 c 0,-0.3125 -0.234375,-0.53125 -0.515625,-0.53125 -0.3125,0 -0.53125,0.265625 -0.53125,0.53125 0,0.265625 0.21875,0.53125 0.53125,0.53125 0.28125,0 0.515625,-0.21875 0.515625,-0.53125 z m 0,0"
                 style="stroke:none" />
            </symbol>
          </g>
        </defs>
        <g
           id="textext-c304c945-5">
          <g
             id="g3766"
             style="fill:#000000;fill-opacity:1">
            <use
               height="1052.3622"
               width="744.09448"
               id="use3768"
               y="134.765"
               x="223.43201"
               xlink:href="#textext-c304c945-0" />
            <use
               height="1052.3622"
               width="744.09448"
               id="use3770"
               y="134.765"
               x="230.48851"
               xlink:href="#textext-c304c945-1" />
            <use
               height="1052.3622"
               width="744.09448"
               id="use3772"
               y="134.765"
               x="234.91589"
               xlink:href="#textext-c304c945-2" />
            <use
               height="1052.3622"
               width="744.09448"
               id="use3774"
               y="134.765"
               x="240.45111"
               xlink:href="#textext-c304c945-3" />
            <use
               height="1052.3622"
               width="744.09448"
               id="use3776"
               y="134.765"
               x="244.87849"
               xlink:href="#textext-c304c945-4" />
            <use
               height="1052.3622"
               width="744.09448"
               id="use3778"
               y="134.765"
               x="247.6461"
               xlink:href="#textext-c304c945-2" />
          </g>
        </g>
      </g>
      <g
         ns0:text="?"
         ns0:preamble="/home/waldgeist/data/sphinx/test.tex"
         transform="matrix(3.2532528,0,0,3.2532528,-299.69171,-231.74976)"
         id="g4052">
        <defs
           id="defs4054">
          <g
             id="g4056">
            <symbol
               style="overflow:visible"
               overflow="visible"
               id="textext-1409d3b0-0">
              <path
                 inkscape:connector-curvature="0"
                 style="stroke:none"
                 d="m 2.34375,-2.484375 c 0,-1.25 0.96875,-1.96875 1.3125,-2.21875 0.265625,-0.203125 0.484375,-0.5625 0.484375,-0.984375 0,-0.578125 -0.40625,-1.34375 -1.890625,-1.34375 -1.078125,0 -1.6875,0.6875 -1.6875,1.328125 0,0.34375 0.21875,0.484375 0.453125,0.484375 0.28125,0 0.453125,-0.203125 0.453125,-0.46875 0,-0.4375 -0.40625,-0.4375 -0.546875,-0.4375 0.296875,-0.53125 0.875,-0.6875 1.296875,-0.6875 1.09375,0 1.09375,0.6875 1.09375,1.078125 0,0.578125 -0.15625,0.765625 -0.34375,0.9375 -0.65625,0.71875 -0.875,1.640625 -0.875,2.25 l 0,0.4375 c 0,0.1875 0,0.25 0.125,0.25 0.125,0 0.125,-0.09375 0.125,-0.28125 z M 2.734375,-0.53125 C 2.734375,-0.8125 2.5,-1.0625 2.21875,-1.0625 c -0.296875,0 -0.53125,0.25 -0.53125,0.53125 C 1.6875,-0.234375 1.921875,0 2.21875,0 2.5,0 2.734375,-0.234375 2.734375,-0.53125 z m 0,0"
                 id="path4059" />
            </symbol>
          </g>
        </defs>
        <g
           id="textext-1409d3b0-1">
          <g
             style="fill:#000000;fill-opacity:1"
             id="g4062">
            <use
               height="1052.3622"
               width="744.09448"
               xlink:href="#textext-1409d3b0-0"
               x="223.43201"
               y="134.765"
               id="use4064" />
          </g>
        </g>
      </g>
    </g>
    <g
       id="g16584"
       transform="translate(6.0540519,570.57506)"
       inkscape:export-filename="/home/waldgeist/data/pics/physik/Own/uebungsaufgaben/dichte-bilderraetsel.png"
       inkscape:export-xdpi="150"
       inkscape:export-ydpi="150">
      <g
         ns0:text="?"
         ns0:preamble="/home/waldgeist/data/sphinx/test.tex"
         transform="matrix(3.7454491,0,0,3.2532528,-9.8251322,-365.4033)"
         id="g4254">
        <defs
           id="defs4256">
          <g
             id="g4258">
            <symbol
               style="overflow:visible"
               overflow="visible"
               id="symbol4260">
              <path
                 inkscape:connector-curvature="0"
                 style="stroke:none"
                 d="m 2.34375,-2.484375 c 0,-1.25 0.96875,-1.96875 1.3125,-2.21875 0.265625,-0.203125 0.484375,-0.5625 0.484375,-0.984375 0,-0.578125 -0.40625,-1.34375 -1.890625,-1.34375 -1.078125,0 -1.6875,0.6875 -1.6875,1.328125 0,0.34375 0.21875,0.484375 0.453125,0.484375 0.28125,0 0.453125,-0.203125 0.453125,-0.46875 0,-0.4375 -0.40625,-0.4375 -0.546875,-0.4375 0.296875,-0.53125 0.875,-0.6875 1.296875,-0.6875 1.09375,0 1.09375,0.6875 1.09375,1.078125 0,0.578125 -0.15625,0.765625 -0.34375,0.9375 -0.65625,0.71875 -0.875,1.640625 -0.875,2.25 l 0,0.4375 c 0,0.1875 0,0.25 0.125,0.25 0.125,0 0.125,-0.09375 0.125,-0.28125 z M 2.734375,-0.53125 C 2.734375,-0.8125 2.5,-1.0625 2.21875,-1.0625 c -0.296875,0 -0.53125,0.25 -0.53125,0.53125 C 1.6875,-0.234375 1.921875,0 2.21875,0 2.5,0 2.734375,-0.234375 2.734375,-0.53125 z m 0,0"
                 id="path4262" />
            </symbol>
          </g>
        </defs>
        <g
           id="g4264">
          <g
             style="fill:#000000;fill-opacity:1"
             id="g4266">
            <use
               height="1052.3622"
               width="744.09448"
               xlink:href="#textext-1409d3b0-0"
               x="223.43201"
               y="134.765"
               id="use4268" />
          </g>
        </g>
      </g>
      <g
         id="g4477"
         transform="matrix(3.2532528,0,0,3.2532528,48.34869,-298.03451)"
         ns0:preamble="/home/waldgeist/data/sphinx/test.tex"
         ns0:text="Glycerin">
        <defs
           id="defs4479">
          <g
             id="g4481">
            <symbol
               style="overflow:visible"
               id="textext-a74e78fb-0"
               overflow="visible">
              <path
                 inkscape:connector-curvature="0"
                 id="path4484"
                 d="m 5.90625,-0.625 c 0.140625,0.21875 0.53125,0.609375 0.640625,0.609375 0.09375,0 0.09375,-0.078125 0.09375,-0.21875 l 0,-1.734375 c 0,-0.390625 0.03125,-0.4375 0.6875,-0.4375 l 0,-0.3125 c -0.375,0 -0.921875,0.03125 -1.21875,0.03125 -0.390625,0 -1.25,0 -1.609375,-0.03125 l 0,0.3125 0.328125,0 C 5.71875,-2.40625 5.75,-2.296875 5.75,-1.9375 l 0,0.640625 c 0,1.125 -1.265625,1.203125 -1.546875,1.203125 -0.640625,0 -2.625,-0.34375 -2.625,-3.3125 0,-2.984375 1.96875,-3.3125 2.5625,-3.3125 1.078125,0 1.984375,0.890625 2.171875,2.359375 0.03125,0.140625 0.03125,0.171875 0.171875,0.171875 0.15625,0 0.15625,-0.03125 0.15625,-0.234375 l 0,-2.359375 c 0,-0.171875 0,-0.25 -0.109375,-0.25 -0.046875,0 -0.078125,0 -0.15625,0.125 l -0.5,0.734375 C 5.546875,-6.484375 5.015625,-7.03125 4.03125,-7.03125 c -1.859375,0 -3.46875,1.578125 -3.46875,3.625 0,2.046875 1.59375,3.625 3.484375,3.625 0.734375,0 1.53125,-0.265625 1.859375,-0.84375 z m 0,0"
                 style="stroke:none" />
            </symbol>
            <symbol
               style="overflow:visible"
               id="textext-a74e78fb-1"
               overflow="visible">
              <path
                 inkscape:connector-curvature="0"
                 id="path4487"
                 d="m 1.765625,-6.921875 -1.4375,0.109375 0,0.3125 c 0.703125,0 0.78125,0.0625 0.78125,0.5625 l 0,5.1875 c 0,0.4375 -0.109375,0.4375 -0.78125,0.4375 l 0,0.3125 C 0.65625,-0.015625 1.1875,-0.03125 1.4375,-0.03125 c 0.25,0 0.734375,0.015625 1.109375,0.03125 l 0,-0.3125 c -0.671875,0 -0.78125,0 -0.78125,-0.4375 z m 0,0"
                 style="stroke:none" />
            </symbol>
            <symbol
               style="overflow:visible"
               id="textext-a74e78fb-2"
               overflow="visible">
              <path
                 inkscape:connector-curvature="0"
                 id="path4490"
                 d="m 4.140625,-3.34375 c 0.25,-0.640625 0.765625,-0.640625 0.921875,-0.640625 l 0,-0.3125 c -0.234375,0.015625 -0.515625,0.03125 -0.75,0.03125 -0.171875,0 -0.640625,-0.015625 -0.859375,-0.03125 l 0,0.3125 c 0.3125,0 0.46875,0.171875 0.46875,0.421875 0,0.109375 -0.015625,0.125 -0.0625,0.25 L 2.84375,-0.875 1.75,-3.546875 C 1.703125,-3.65625 1.6875,-3.6875 1.6875,-3.734375 c 0,-0.25 0.359375,-0.25 0.5625,-0.25 l 0,-0.3125 c -0.265625,0.015625 -0.921875,0.03125 -1.09375,0.03125 -0.265625,0 -0.671875,-0.015625 -0.96875,-0.03125 l 0,0.3125 c 0.484375,0 0.671875,0 0.8125,0.34375 L 2.5,0 C 2.4375,0.125 2.296875,0.453125 2.25,0.59375 2.03125,1.140625 1.75,1.828125 1.109375,1.828125 c -0.046875,0 -0.28125,0 -0.46875,-0.1875 0.3125,-0.03125 0.390625,-0.25 0.390625,-0.421875 0,-0.25 -0.1875,-0.40625 -0.421875,-0.40625 -0.203125,0 -0.421875,0.125 -0.421875,0.421875 0,0.453125 0.421875,0.8125 0.921875,0.8125 0.625,0 1.03125,-0.578125 1.265625,-1.140625 z m 0,0"
                 style="stroke:none" />
            </symbol>
            <symbol
               style="overflow:visible"
               id="textext-a74e78fb-3"
               overflow="visible">
              <path
                 inkscape:connector-curvature="0"
                 id="path4493"
                 d="m 1.171875,-2.171875 c 0,-1.625 0.8125,-2.046875 1.34375,-2.046875 0.09375,0 0.71875,0.015625 1.0625,0.375 -0.40625,0.03125 -0.46875,0.328125 -0.46875,0.453125 0,0.265625 0.1875,0.453125 0.453125,0.453125 0.265625,0 0.46875,-0.15625 0.46875,-0.46875 0,-0.671875 -0.765625,-1.0625 -1.53125,-1.0625 -1.25,0 -2.15625,1.078125 -2.15625,2.3125 0,1.28125 0.984375,2.265625 2.140625,2.265625 1.328125,0 1.65625,-1.203125 1.65625,-1.296875 0,-0.09375 -0.109375,-0.09375 -0.140625,-0.09375 -0.078125,0 -0.109375,0.03125 -0.125,0.09375 -0.28125,0.921875 -0.9375,1.046875 -1.296875,1.046875 -0.53125,0 -1.40625,-0.421875 -1.40625,-2.03125 z m 0,0"
                 style="stroke:none" />
            </symbol>
            <symbol
               style="overflow:visible"
               id="textext-a74e78fb-4"
               overflow="visible">
              <path
                 inkscape:connector-curvature="0"
                 id="path4496"
                 d="M 1.109375,-2.515625 C 1.171875,-4 2.015625,-4.25 2.359375,-4.25 c 1.015625,0 1.125,1.34375 1.125,1.734375 z m 0,0.21875 2.78125,0 c 0.21875,0 0.25,0 0.25,-0.21875 0,-0.984375 -0.546875,-1.953125 -1.78125,-1.953125 -1.15625,0 -2.078125,1.03125 -2.078125,2.28125 0,1.328125 1.046875,2.296875 2.1875,2.296875 C 3.6875,0.109375 4.140625,-1 4.140625,-1.1875 4.140625,-1.28125 4.0625,-1.3125 4,-1.3125 c -0.078125,0 -0.109375,0.0625 -0.125,0.140625 -0.34375,1.03125 -1.25,1.03125 -1.34375,1.03125 -0.5,0 -0.890625,-0.296875 -1.125,-0.671875 -0.296875,-0.46875 -0.296875,-1.125 -0.296875,-1.484375 z m 0,0"
                 style="stroke:none" />
            </symbol>
            <symbol
               style="overflow:visible"
               id="textext-a74e78fb-5"
               overflow="visible">
              <path
                 inkscape:connector-curvature="0"
                 id="path4499"
                 d="m 1.671875,-3.3125 0,-1.09375 -1.390625,0.109375 0,0.3125 c 0.703125,0 0.78125,0.0625 0.78125,0.5625 l 0,2.671875 c 0,0.4375 -0.109375,0.4375 -0.78125,0.4375 l 0,0.3125 c 0.390625,-0.015625 0.859375,-0.03125 1.140625,-0.03125 0.390625,0 0.859375,0 1.265625,0.03125 l 0,-0.3125 -0.21875,0 c -0.734375,0 -0.75,-0.109375 -0.75,-0.46875 l 0,-1.53125 c 0,-0.984375 0.421875,-1.875 1.171875,-1.875 0.0625,0 0.09375,0 0.109375,0.015625 -0.03125,0 -0.234375,0.125 -0.234375,0.390625 0,0.265625 0.21875,0.421875 0.4375,0.421875 0.171875,0 0.421875,-0.125 0.421875,-0.4375 0,-0.3125 -0.3125,-0.609375 -0.734375,-0.609375 -0.734375,0 -1.09375,0.671875 -1.21875,1.09375 z m 0,0"
                 style="stroke:none" />
            </symbol>
            <symbol
               style="overflow:visible"
               id="textext-a74e78fb-6"
               overflow="visible">
              <path
                 inkscape:connector-curvature="0"
                 id="path4502"
                 d="M 1.765625,-4.40625 0.375,-4.296875 l 0,0.3125 c 0.640625,0 0.734375,0.0625 0.734375,0.546875 l 0,2.6875 c 0,0.4375 -0.109375,0.4375 -0.78125,0.4375 l 0,0.3125 C 0.640625,-0.015625 1.1875,-0.03125 1.421875,-0.03125 1.78125,-0.03125 2.125,-0.015625 2.46875,0 l 0,-0.3125 c -0.671875,0 -0.703125,-0.046875 -0.703125,-0.4375 z m 0.03125,-1.734375 c 0,-0.3125 -0.234375,-0.53125 -0.515625,-0.53125 -0.3125,0 -0.53125,0.265625 -0.53125,0.53125 0,0.265625 0.21875,0.53125 0.53125,0.53125 0.28125,0 0.515625,-0.21875 0.515625,-0.53125 z m 0,0"
                 style="stroke:none" />
            </symbol>
            <symbol
               style="overflow:visible"
               id="textext-a74e78fb-7"
               overflow="visible">
              <path
                 inkscape:connector-curvature="0"
                 id="path4505"
                 d="m 1.09375,-3.421875 0,2.671875 c 0,0.4375 -0.109375,0.4375 -0.78125,0.4375 l 0,0.3125 c 0.359375,-0.015625 0.859375,-0.03125 1.140625,-0.03125 0.25,0 0.765625,0.015625 1.109375,0.03125 l 0,-0.3125 c -0.671875,0 -0.78125,0 -0.78125,-0.4375 l 0,-1.84375 C 1.78125,-3.625 2.5,-4.1875 3.125,-4.1875 c 0.640625,0 0.75,0.53125 0.75,1.109375 l 0,2.328125 c 0,0.4375 -0.109375,0.4375 -0.78125,0.4375 l 0,0.3125 c 0.34375,-0.015625 0.859375,-0.03125 1.125,-0.03125 0.25,0 0.78125,0.015625 1.109375,0.03125 l 0,-0.3125 c -0.515625,0 -0.765625,0 -0.765625,-0.296875 l 0,-1.90625 c 0,-0.859375 0,-1.15625 -0.3125,-1.515625 -0.140625,-0.171875 -0.46875,-0.375 -1.046875,-0.375 C 2.46875,-4.40625 2,-3.984375 1.71875,-3.359375 l 0,-1.046875 -1.40625,0.109375 0,0.3125 c 0.703125,0 0.78125,0.0625 0.78125,0.5625 z m 0,0"
                 style="stroke:none" />
            </symbol>
          </g>
        </defs>
        <g
           id="textext-a74e78fb-8">
          <g
             id="g4508"
             style="fill:#000000;fill-opacity:1">
            <use
               height="1052.3622"
               width="744.09448"
               id="use4510"
               y="134.765"
               x="223.43201"
               xlink:href="#textext-a74e78fb-0" />
            <use
               height="1052.3622"
               width="744.09448"
               id="use4512"
               y="134.765"
               x="231.24965"
               xlink:href="#textext-a74e78fb-1" />
            <use
               height="1052.3622"
               width="744.09448"
               id="use4514"
               y="134.765"
               x="234.01726"
               xlink:href="#textext-a74e78fb-2" />
            <use
               height="1052.3622"
               width="744.09448"
               id="use4516"
               y="134.765"
               x="239.27553"
               xlink:href="#textext-a74e78fb-3" />
            <use
               height="1052.3622"
               width="744.09448"
               id="use4518"
               y="134.765"
               x="243.7029"
               xlink:href="#textext-a74e78fb-4" />
            <use
               height="1052.3622"
               width="744.09448"
               id="use4520"
               y="134.765"
               x="248.13028"
               xlink:href="#textext-a74e78fb-5" />
            <use
               height="1052.3622"
               width="744.09448"
               id="use4522"
               y="134.765"
               x="252.03264"
               xlink:href="#textext-a74e78fb-6" />
            <use
               height="1052.3622"
               width="744.09448"
               id="use4524"
               y="134.765"
               x="254.80025"
               xlink:href="#textext-a74e78fb-7" />
          </g>
        </g>
      </g>
      <g
         id="g5378"
         transform="matrix(3.2532528,0,0,3.2532528,73.273616,-233.02056)"
         ns0:preamble="/home/waldgeist/data/sphinx/test.tex"
         ns0:text="$\\unit[252]{g}$">
        <defs
           id="defs5380">
          <g
             id="g5382">
            <symbol
               style="overflow:visible"
               id="textext-66d450b0-0"
               overflow="visible">
              <path
                 inkscape:connector-curvature="0"
                 id="path5385"
                 d="m 1.265625,-0.765625 1.0625,-1.03125 c 1.546875,-1.375 2.140625,-1.90625 2.140625,-2.90625 0,-1.140625 -0.890625,-1.9375 -2.109375,-1.9375 -1.125,0 -1.859375,0.921875 -1.859375,1.8125 0,0.546875 0.5,0.546875 0.53125,0.546875 0.171875,0 0.515625,-0.109375 0.515625,-0.53125 0,-0.25 -0.1875,-0.515625 -0.53125,-0.515625 -0.078125,0 -0.09375,0 -0.125,0.015625 0.21875,-0.65625 0.765625,-1.015625 1.34375,-1.015625 0.90625,0 1.328125,0.8125 1.328125,1.625 C 3.5625,-3.90625 3.078125,-3.125 2.515625,-2.5 l -1.90625,2.125 C 0.5,-0.265625 0.5,-0.234375 0.5,0 l 3.703125,0 0.265625,-1.734375 -0.234375,0 C 4.171875,-1.4375 4.109375,-1 4,-0.84375 3.9375,-0.765625 3.28125,-0.765625 3.0625,-0.765625 z m 0,0"
                 style="stroke:none" />
            </symbol>
            <symbol
               style="overflow:visible"
               id="textext-66d450b0-1"
               overflow="visible">
              <path
                 inkscape:connector-curvature="0"
                 id="path5388"
                 d="m 4.46875,-2 c 0,-1.1875 -0.8125,-2.1875 -1.890625,-2.1875 -0.46875,0 -0.90625,0.15625 -1.265625,0.515625 l 0,-1.953125 c 0.203125,0.0625 0.53125,0.125 0.84375,0.125 1.234375,0 1.9375,-0.90625 1.9375,-1.03125 0,-0.0625 -0.03125,-0.109375 -0.109375,-0.109375 0,0 -0.03125,0 -0.078125,0.03125 C 3.703125,-6.515625 3.21875,-6.3125 2.546875,-6.3125 2.15625,-6.3125 1.6875,-6.390625 1.21875,-6.59375 1.140625,-6.625 1.125,-6.625 1.109375,-6.625 1,-6.625 1,-6.546875 1,-6.390625 L 1,-3.4375 c 0,0.171875 0,0.25 0.140625,0.25 0.078125,0 0.09375,-0.015625 0.140625,-0.078125 C 1.390625,-3.421875 1.75,-3.96875 2.5625,-3.96875 c 0.515625,0 0.765625,0.453125 0.84375,0.640625 0.15625,0.375 0.1875,0.75 0.1875,1.25 0,0.359375 0,0.953125 -0.25,1.375 C 3.109375,-0.3125 2.734375,-0.0625 2.28125,-0.0625 c -0.71875,0 -1.296875,-0.53125 -1.46875,-1.109375 0.03125,0 0.0625,0.015625 0.171875,0.015625 0.328125,0 0.5,-0.25 0.5,-0.484375 0,-0.25 -0.171875,-0.5 -0.5,-0.5 C 0.84375,-2.140625 0.5,-2.0625 0.5,-1.609375 0.5,-0.75 1.1875,0.21875 2.296875,0.21875 3.453125,0.21875 4.46875,-0.734375 4.46875,-2 z m 0,0"
                 style="stroke:none" />
            </symbol>
            <symbol
               style="overflow:visible"
               id="textext-66d450b0-2"
               overflow="visible">
              <path
                 inkscape:connector-curvature="0"
                 id="path5391"
                 d="m 2.21875,-1.71875 c -0.875,0 -0.875,-1 -0.875,-1.21875 0,-0.265625 0.015625,-0.59375 0.15625,-0.84375 0.078125,-0.109375 0.3125,-0.390625 0.71875,-0.390625 0.859375,0 0.859375,0.984375 0.859375,1.21875 0,0.265625 0,0.59375 -0.15625,0.84375 C 2.84375,-2 2.609375,-1.71875 2.21875,-1.71875 z M 1.0625,-1.328125 c 0,-0.03125 0,-0.265625 0.15625,-0.46875 0.390625,0.28125 0.8125,0.3125 1,0.3125 0.921875,0 1.609375,-0.6875 1.609375,-1.453125 0,-0.375 -0.15625,-0.734375 -0.40625,-0.96875 C 3.78125,-4.25 4.140625,-4.296875 4.3125,-4.296875 c 0.03125,0 0.078125,0 0.109375,0.015625 C 4.3125,-4.25 4.25,-4.140625 4.25,-4.015625 c 0,0.171875 0.140625,0.28125 0.296875,0.28125 0.09375,0 0.28125,-0.0625 0.28125,-0.296875 0,-0.171875 -0.109375,-0.484375 -0.5,-0.484375 -0.203125,0 -0.640625,0.0625 -1.0625,0.46875 C 2.84375,-4.375 2.4375,-4.40625 2.21875,-4.40625 c -0.9375,0 -1.625,0.6875 -1.625,1.453125 0,0.4375 0.21875,0.8125 0.46875,1.03125 -0.125,0.140625 -0.3125,0.46875 -0.3125,0.828125 0,0.3125 0.140625,0.6875 0.453125,0.890625 -0.609375,0.15625 -0.921875,0.59375 -0.921875,0.984375 0,0.71875 0.984375,1.265625 2.203125,1.265625 1.171875,0 2.203125,-0.5 2.203125,-1.28125 0,-0.34375 -0.125,-0.859375 -0.640625,-1.140625 -0.53125,-0.265625 -1.109375,-0.265625 -1.71875,-0.265625 -0.25,0 -0.671875,0 -0.75,-0.015625 C 1.265625,-0.703125 1.0625,-1 1.0625,-1.328125 z M 2.5,1.828125 c -1.015625,0 -1.703125,-0.515625 -1.703125,-1.046875 0,-0.453125 0.375,-0.828125 0.8125,-0.84375 l 0.59375,0 c 0.859375,0 1.96875,0 1.96875,0.84375 0,0.546875 -0.703125,1.046875 -1.671875,1.046875 z m 0,0"
                 style="stroke:none" />
            </symbol>
          </g>
        </defs>
        <g
           id="textext-66d450b0-3">
          <g
             id="g5394"
             style="fill:#000000;fill-opacity:1">
            <use
               height="1052.3622"
               width="744.09448"
               id="use5396"
               y="134.765"
               x="223.43201"
               xlink:href="#textext-66d450b0-0" />
            <use
               height="1052.3622"
               width="744.09448"
               id="use5398"
               y="134.765"
               x="228.4133"
               xlink:href="#textext-66d450b0-1" />
            <use
               height="1052.3622"
               width="744.09448"
               id="use5400"
               y="134.765"
               x="233.39461"
               xlink:href="#textext-66d450b0-0" />
          </g>
          <g
             id="g5402"
             style="fill:#000000;fill-opacity:1">
            <use
               height="1052.3622"
               width="744.09448"
               id="use5404"
               y="134.765"
               x="240.03966"
               xlink:href="#textext-66d450b0-2" />
          </g>
        </g>
      </g>
    </g>
    <g
       id="g16523"
       transform="translate(12.546189,572.74619)"
       inkscape:export-filename="/home/waldgeist/data/pics/physik/Own/uebungsaufgaben/dichte-bilderraetsel.png"
       inkscape:export-xdpi="150"
       inkscape:export-ydpi="150">
      <g
         id="g4188"
         ns0:preamble="/home/waldgeist/data/sphinx/test.tex"
         ns0:text="$\\unit[250]{cm^3}$"
         transform="matrix(3.2532528,0,0,3.2532528,-162.36035,-366.11495)">
        <defs
           id="defs4190">
          <g
             id="g4192">
            <symbol
               id="symbol4194"
               overflow="visible"
               style="overflow:visible">
              <path
                 id="path4196"
                 d="m 1.265625,-0.765625 1.0625,-1.03125 c 1.546875,-1.375 2.140625,-1.90625 2.140625,-2.90625 0,-1.140625 -0.890625,-1.9375 -2.109375,-1.9375 -1.125,0 -1.859375,0.921875 -1.859375,1.8125 0,0.546875 0.5,0.546875 0.53125,0.546875 0.171875,0 0.515625,-0.109375 0.515625,-0.53125 0,-0.25 -0.1875,-0.515625 -0.53125,-0.515625 -0.078125,0 -0.09375,0 -0.125,0.015625 0.21875,-0.65625 0.765625,-1.015625 1.34375,-1.015625 0.90625,0 1.328125,0.8125 1.328125,1.625 C 3.5625,-3.90625 3.078125,-3.125 2.515625,-2.5 l -1.90625,2.125 C 0.5,-0.265625 0.5,-0.234375 0.5,0 l 3.703125,0 0.265625,-1.734375 -0.234375,0 C 4.171875,-1.4375 4.109375,-1 4,-0.84375 3.9375,-0.765625 3.28125,-0.765625 3.0625,-0.765625 z m 0,0"
                 style="stroke:none"
                 inkscape:connector-curvature="0" />
            </symbol>
            <symbol
               id="symbol4198"
               overflow="visible"
               style="overflow:visible">
              <path
                 id="path4200"
                 d="m 4.46875,-2 c 0,-1.1875 -0.8125,-2.1875 -1.890625,-2.1875 -0.46875,0 -0.90625,0.15625 -1.265625,0.515625 l 0,-1.953125 c 0.203125,0.0625 0.53125,0.125 0.84375,0.125 1.234375,0 1.9375,-0.90625 1.9375,-1.03125 0,-0.0625 -0.03125,-0.109375 -0.109375,-0.109375 0,0 -0.03125,0 -0.078125,0.03125 C 3.703125,-6.515625 3.21875,-6.3125 2.546875,-6.3125 2.15625,-6.3125 1.6875,-6.390625 1.21875,-6.59375 1.140625,-6.625 1.125,-6.625 1.109375,-6.625 1,-6.625 1,-6.546875 1,-6.390625 L 1,-3.4375 c 0,0.171875 0,0.25 0.140625,0.25 0.078125,0 0.09375,-0.015625 0.140625,-0.078125 C 1.390625,-3.421875 1.75,-3.96875 2.5625,-3.96875 c 0.515625,0 0.765625,0.453125 0.84375,0.640625 0.15625,0.375 0.1875,0.75 0.1875,1.25 0,0.359375 0,0.953125 -0.25,1.375 C 3.109375,-0.3125 2.734375,-0.0625 2.28125,-0.0625 c -0.71875,0 -1.296875,-0.53125 -1.46875,-1.109375 0.03125,0 0.0625,0.015625 0.171875,0.015625 0.328125,0 0.5,-0.25 0.5,-0.484375 0,-0.25 -0.171875,-0.5 -0.5,-0.5 C 0.84375,-2.140625 0.5,-2.0625 0.5,-1.609375 0.5,-0.75 1.1875,0.21875 2.296875,0.21875 3.453125,0.21875 4.46875,-0.734375 4.46875,-2 z m 0,0"
                 style="stroke:none"
                 inkscape:connector-curvature="0" />
            </symbol>
            <symbol
               id="symbol4202"
               overflow="visible"
               style="overflow:visible">
              <path
                 id="path4204"
                 d="m 4.578125,-3.1875 c 0,-0.796875 -0.046875,-1.59375 -0.390625,-2.328125 -0.453125,-0.96875 -1.28125,-1.125 -1.6875,-1.125 -0.609375,0 -1.328125,0.265625 -1.75,1.1875 -0.3125,0.6875 -0.359375,1.46875 -0.359375,2.265625 0,0.75 0.03125,1.640625 0.453125,2.40625 0.421875,0.796875 1.15625,1 1.640625,1 0.53125,0 1.296875,-0.203125 1.734375,-1.15625 0.3125,-0.6875 0.359375,-1.46875 0.359375,-2.25 z M 2.484375,0 C 2.09375,0 1.5,-0.25 1.328125,-1.203125 1.21875,-1.796875 1.21875,-2.71875 1.21875,-3.3125 c 0,-0.640625 0,-1.296875 0.078125,-1.828125 0.1875,-1.1875 0.9375,-1.28125 1.1875,-1.28125 0.328125,0 0.984375,0.1875 1.171875,1.171875 0.109375,0.5625 0.109375,1.3125 0.109375,1.9375 0,0.75 0,1.421875 -0.109375,2.0625 C 3.5,-0.296875 2.9375,0 2.484375,0 z m 0,0"
                 style="stroke:none"
                 inkscape:connector-curvature="0" />
            </symbol>
            <symbol
               id="symbol4206"
               overflow="visible"
               style="overflow:visible">
              <path
                 id="path4208"
                 d="m 1.171875,-2.171875 c 0,-1.625 0.8125,-2.046875 1.34375,-2.046875 0.09375,0 0.71875,0.015625 1.0625,0.375 -0.40625,0.03125 -0.46875,0.328125 -0.46875,0.453125 0,0.265625 0.1875,0.453125 0.453125,0.453125 0.265625,0 0.46875,-0.15625 0.46875,-0.46875 0,-0.671875 -0.765625,-1.0625 -1.53125,-1.0625 -1.25,0 -2.15625,1.078125 -2.15625,2.3125 0,1.28125 0.984375,2.265625 2.140625,2.265625 1.328125,0 1.65625,-1.203125 1.65625,-1.296875 0,-0.09375 -0.109375,-0.09375 -0.140625,-0.09375 -0.078125,0 -0.109375,0.03125 -0.125,0.09375 -0.28125,0.921875 -0.9375,1.046875 -1.296875,1.046875 -0.53125,0 -1.40625,-0.421875 -1.40625,-2.03125 z m 0,0"
                 style="stroke:none"
                 inkscape:connector-curvature="0" />
            </symbol>
            <symbol
               id="symbol4210"
               overflow="visible"
               style="overflow:visible">
              <path
                 id="path4212"
                 d="m 1.09375,-3.421875 0,2.671875 c 0,0.4375 -0.109375,0.4375 -0.78125,0.4375 l 0,0.3125 c 0.359375,-0.015625 0.859375,-0.03125 1.140625,-0.03125 0.25,0 0.765625,0.015625 1.109375,0.03125 l 0,-0.3125 c -0.671875,0 -0.78125,0 -0.78125,-0.4375 l 0,-1.84375 C 1.78125,-3.625 2.5,-4.1875 3.125,-4.1875 c 0.640625,0 0.75,0.53125 0.75,1.109375 l 0,2.328125 c 0,0.4375 -0.109375,0.4375 -0.78125,0.4375 l 0,0.3125 c 0.34375,-0.015625 0.859375,-0.03125 1.125,-0.03125 0.25,0 0.78125,0.015625 1.109375,0.03125 l 0,-0.3125 c -0.65625,0 -0.765625,0 -0.765625,-0.4375 l 0,-1.84375 c 0,-1.03125 0.703125,-1.59375 1.34375,-1.59375 0.625,0 0.734375,0.53125 0.734375,1.109375 l 0,2.328125 c 0,0.4375 -0.109375,0.4375 -0.78125,0.4375 l 0,0.3125 c 0.34375,-0.015625 0.859375,-0.03125 1.125,-0.03125 0.265625,0 0.78125,0.015625 1.125,0.03125 l 0,-0.3125 c -0.515625,0 -0.765625,0 -0.78125,-0.296875 l 0,-1.90625 c 0,-0.859375 0,-1.15625 -0.3125,-1.515625 -0.140625,-0.171875 -0.46875,-0.375 -1.046875,-0.375 -0.828125,0 -1.28125,0.59375 -1.4375,0.984375 C 4.390625,-4.296875 3.65625,-4.40625 3.203125,-4.40625 2.46875,-4.40625 2,-3.984375 1.71875,-3.359375 l 0,-1.046875 -1.40625,0.109375 0,0.3125 c 0.703125,0 0.78125,0.0625 0.78125,0.5625 z m 0,0"
                 style="stroke:none"
                 inkscape:connector-curvature="0" />
            </symbol>
            <symbol
               id="symbol4214"
               overflow="visible"
               style="overflow:visible">
              <path
                 id="path4216"
                 d="m 1.90625,-2.328125 c 0.546875,0 0.9375,0.375 0.9375,1.125 0,0.859375 -0.515625,1.125 -0.90625,1.125 -0.28125,0 -0.90625,-0.078125 -1.1875,-0.5 0.328125,0 0.40625,-0.234375 0.40625,-0.390625 0,-0.21875 -0.171875,-0.375 -0.390625,-0.375 -0.1875,0 -0.390625,0.125 -0.390625,0.40625 0,0.65625 0.71875,1.078125 1.5625,1.078125 0.96875,0 1.640625,-0.65625 1.640625,-1.34375 0,-0.546875 -0.4375,-1.09375 -1.203125,-1.25 0.71875,-0.265625 0.984375,-0.78125 0.984375,-1.21875 0,-0.546875 -0.625,-0.953125 -1.40625,-0.953125 -0.765625,0 -1.359375,0.375 -1.359375,0.9375 0,0.234375 0.15625,0.359375 0.359375,0.359375 0.21875,0 0.359375,-0.15625 0.359375,-0.34375 0,-0.203125 -0.140625,-0.359375 -0.359375,-0.375 0.25,-0.296875 0.71875,-0.375 0.984375,-0.375 0.3125,0 0.75,0.15625 0.75,0.75 0,0.296875 -0.09375,0.625 -0.28125,0.828125 -0.21875,0.265625 -0.421875,0.28125 -0.765625,0.3125 -0.171875,0.015625 -0.1875,0.015625 -0.21875,0.015625 -0.015625,0 -0.078125,0.015625 -0.078125,0.09375 0,0.09375 0.0625,0.09375 0.1875,0.09375 z m 0,0"
                 style="stroke:none"
                 inkscape:connector-curvature="0" />
            </symbol>
          </g>
        </defs>
        <g
           id="g4218">
          <g
             id="g4220"
             style="fill:#000000;fill-opacity:1">
            <use
               id="use4222"
               y="134.765"
               x="223.43201"
               xlink:href="#textext-a5d6f4ae-0"
               width="744.09448"
               height="1052.3622" />
            <use
               id="use4224"
               y="134.765"
               x="228.4133"
               xlink:href="#textext-a5d6f4ae-1"
               width="744.09448"
               height="1052.3622" />
            <use
               id="use4226"
               y="134.765"
               x="233.39461"
               xlink:href="#textext-a5d6f4ae-2"
               width="744.09448"
               height="1052.3622" />
          </g>
          <g
             id="g4228"
             style="fill:#000000;fill-opacity:1">
            <use
               id="use4230"
               y="134.765"
               x="240.03966"
               xlink:href="#textext-a5d6f4ae-3"
               width="744.09448"
               height="1052.3622" />
            <use
               id="use4232"
               y="134.765"
               x="244.46704"
               xlink:href="#textext-a5d6f4ae-4"
               width="744.09448"
               height="1052.3622" />
          </g>
          <g
             id="g4234"
             style="fill:#000000;fill-opacity:1">
            <use
               id="use4236"
               y="131.149"
               x="252.767"
               xlink:href="#textext-a5d6f4ae-5"
               width="744.09448"
               height="1052.3622" />
          </g>
        </g>
      </g>
      <g
         id="g4238"
         transform="matrix(3.2532528,0,0,3.2532528,-115.65995,-298.03451)"
         ns0:preamble="/home/waldgeist/data/sphinx/test.tex"
         ns0:text="?">
        <defs
           id="defs4240">
          <g
             id="g4242">
            <symbol
               id="symbol4244"
               overflow="visible"
               style="overflow:visible">
              <path
                 id="path4246"
                 d="m 2.34375,-2.484375 c 0,-1.25 0.96875,-1.96875 1.3125,-2.21875 0.265625,-0.203125 0.484375,-0.5625 0.484375,-0.984375 0,-0.578125 -0.40625,-1.34375 -1.890625,-1.34375 -1.078125,0 -1.6875,0.6875 -1.6875,1.328125 0,0.34375 0.21875,0.484375 0.453125,0.484375 0.28125,0 0.453125,-0.203125 0.453125,-0.46875 0,-0.4375 -0.40625,-0.4375 -0.546875,-0.4375 0.296875,-0.53125 0.875,-0.6875 1.296875,-0.6875 1.09375,0 1.09375,0.6875 1.09375,1.078125 0,0.578125 -0.15625,0.765625 -0.34375,0.9375 -0.65625,0.71875 -0.875,1.640625 -0.875,2.25 l 0,0.4375 c 0,0.1875 0,0.25 0.125,0.25 0.125,0 0.125,-0.09375 0.125,-0.28125 z M 2.734375,-0.53125 C 2.734375,-0.8125 2.5,-1.0625 2.21875,-1.0625 c -0.296875,0 -0.53125,0.25 -0.53125,0.53125 C 1.6875,-0.234375 1.921875,0 2.21875,0 2.5,0 2.734375,-0.234375 2.734375,-0.53125 z m 0,0"
                 style="stroke:none"
                 inkscape:connector-curvature="0" />
            </symbol>
          </g>
        </defs>
        <g
           id="g4248">
          <g
             id="g4250"
             style="fill:#000000;fill-opacity:1">
            <use
               id="use4252"
               y="134.765"
               x="223.43201"
               xlink:href="#textext-1409d3b0-0"
               width="744.09448"
               height="1052.3622" />
          </g>
        </g>
      </g>
      <g
         ns0:text="$\\unit[197,5]{g}$"
         ns0:preamble="/home/waldgeist/data/sphinx/test.tex"
         transform="matrix(3.2532528,0,0,3.2532528,-159.63198,-232.71557)"
         id="g6340">
        <defs
           id="defs6342">
          <g
             id="g6344">
            <symbol
               style="overflow:visible"
               overflow="visible"
               id="textext-f4084f61-0">
              <path
                 inkscape:connector-curvature="0"
                 style="stroke:none"
                 d="m 2.9375,-6.375 c 0,-0.25 0,-0.265625 -0.234375,-0.265625 C 2.078125,-6 1.203125,-6 0.890625,-6 l 0,0.3125 c 0.203125,0 0.78125,0 1.296875,-0.265625 l 0,5.171875 c 0,0.359375 -0.03125,0.46875 -0.921875,0.46875 l -0.3125,0 0,0.3125 c 0.34375,-0.03125 1.203125,-0.03125 1.609375,-0.03125 0.390625,0 1.265625,0 1.609375,0.03125 l 0,-0.3125 -0.3125,0 c -0.90625,0 -0.921875,-0.109375 -0.921875,-0.46875 z m 0,0"
                 id="path6347" />
            </symbol>
            <symbol
               style="overflow:visible"
               overflow="visible"
               id="textext-f4084f61-1">
              <path
                 inkscape:connector-curvature="0"
                 style="stroke:none"
                 d="m 3.65625,-3.171875 0,0.328125 c 0,2.328125 -1.03125,2.78125 -1.609375,2.78125 -0.171875,0 -0.71875,-0.015625 -0.984375,-0.359375 0.4375,0 0.515625,-0.28125 0.515625,-0.453125 0,-0.3125 -0.234375,-0.453125 -0.453125,-0.453125 -0.15625,0 -0.453125,0.078125 -0.453125,0.46875 0,0.671875 0.53125,1.078125 1.375,1.078125 1.296875,0 2.515625,-1.359375 2.515625,-3.5 0,-2.6875 -1.15625,-3.359375 -2.046875,-3.359375 -0.546875,0 -1.03125,0.1875 -1.453125,0.625 -0.421875,0.453125 -0.640625,0.875 -0.640625,1.625 0,1.234375 0.875,2.21875 1.984375,2.21875 0.609375,0 1.015625,-0.421875 1.25,-1 z M 2.421875,-2.40625 c -0.15625,0 -0.625,0 -0.921875,-0.625 -0.1875,-0.375 -0.1875,-0.859375 -0.1875,-1.359375 0,-0.53125 0,-1 0.21875,-1.375 0.265625,-0.5 0.640625,-0.625 0.984375,-0.625 0.46875,0 0.796875,0.34375 0.96875,0.78125 0.109375,0.328125 0.15625,0.953125 0.15625,1.40625 0,0.828125 -0.34375,1.796875 -1.21875,1.796875 z m 0,0"
                 id="path6350" />
            </symbol>
            <symbol
               style="overflow:visible"
               overflow="visible"
               id="textext-f4084f61-2">
              <path
                 inkscape:connector-curvature="0"
                 style="stroke:none"
                 d="m 4.75,-6.078125 c 0.078125,-0.109375 0.078125,-0.125 0.078125,-0.34375 l -2.421875,0 c -1.203125,0 -1.234375,-0.125 -1.265625,-0.3125 l -0.25,0 -0.328125,2.046875 0.25,0 c 0.03125,-0.15625 0.109375,-0.78125 0.25,-0.90625 0.0625,-0.0625 0.84375,-0.0625 0.96875,-0.0625 l 2.0625,0 C 3.984375,-5.5 3.203125,-4.40625 2.984375,-4.078125 2.078125,-2.734375 1.75,-1.34375 1.75,-0.328125 c 0,0.09375 0,0.546875 0.46875,0.546875 0.453125,0 0.453125,-0.453125 0.453125,-0.546875 l 0,-0.515625 c 0,-0.546875 0.03125,-1.09375 0.109375,-1.625 0.046875,-0.234375 0.171875,-1.09375 0.625,-1.703125 z m 0,0"
                 id="path6353" />
            </symbol>
            <symbol
               style="overflow:visible"
               overflow="visible"
               id="textext-f4084f61-3">
              <path
                 inkscape:connector-curvature="0"
                 style="stroke:none"
                 d="m 4.46875,-2 c 0,-1.1875 -0.8125,-2.1875 -1.890625,-2.1875 -0.46875,0 -0.90625,0.15625 -1.265625,0.515625 l 0,-1.953125 c 0.203125,0.0625 0.53125,0.125 0.84375,0.125 1.234375,0 1.9375,-0.90625 1.9375,-1.03125 0,-0.0625 -0.03125,-0.109375 -0.109375,-0.109375 0,0 -0.03125,0 -0.078125,0.03125 C 3.703125,-6.515625 3.21875,-6.3125 2.546875,-6.3125 2.15625,-6.3125 1.6875,-6.390625 1.21875,-6.59375 1.140625,-6.625 1.125,-6.625 1.109375,-6.625 1,-6.625 1,-6.546875 1,-6.390625 L 1,-3.4375 c 0,0.171875 0,0.25 0.140625,0.25 0.078125,0 0.09375,-0.015625 0.140625,-0.078125 C 1.390625,-3.421875 1.75,-3.96875 2.5625,-3.96875 c 0.515625,0 0.765625,0.453125 0.84375,0.640625 0.15625,0.375 0.1875,0.75 0.1875,1.25 0,0.359375 0,0.953125 -0.25,1.375 C 3.109375,-0.3125 2.734375,-0.0625 2.28125,-0.0625 c -0.71875,0 -1.296875,-0.53125 -1.46875,-1.109375 0.03125,0 0.0625,0.015625 0.171875,0.015625 0.328125,0 0.5,-0.25 0.5,-0.484375 0,-0.25 -0.171875,-0.5 -0.5,-0.5 C 0.84375,-2.140625 0.5,-2.0625 0.5,-1.609375 0.5,-0.75 1.1875,0.21875 2.296875,0.21875 3.453125,0.21875 4.46875,-0.734375 4.46875,-2 z m 0,0"
                 id="path6356" />
            </symbol>
            <symbol
               style="overflow:visible"
               overflow="visible"
               id="textext-f4084f61-4">
              <path
                 inkscape:connector-curvature="0"
                 style="stroke:none"
                 d="m 2.21875,-1.71875 c -0.875,0 -0.875,-1 -0.875,-1.21875 0,-0.265625 0.015625,-0.59375 0.15625,-0.84375 0.078125,-0.109375 0.3125,-0.390625 0.71875,-0.390625 0.859375,0 0.859375,0.984375 0.859375,1.21875 0,0.265625 0,0.59375 -0.15625,0.84375 C 2.84375,-2 2.609375,-1.71875 2.21875,-1.71875 z M 1.0625,-1.328125 c 0,-0.03125 0,-0.265625 0.15625,-0.46875 0.390625,0.28125 0.8125,0.3125 1,0.3125 0.921875,0 1.609375,-0.6875 1.609375,-1.453125 0,-0.375 -0.15625,-0.734375 -0.40625,-0.96875 C 3.78125,-4.25 4.140625,-4.296875 4.3125,-4.296875 c 0.03125,0 0.078125,0 0.109375,0.015625 C 4.3125,-4.25 4.25,-4.140625 4.25,-4.015625 c 0,0.171875 0.140625,0.28125 0.296875,0.28125 0.09375,0 0.28125,-0.0625 0.28125,-0.296875 0,-0.171875 -0.109375,-0.484375 -0.5,-0.484375 -0.203125,0 -0.640625,0.0625 -1.0625,0.46875 C 2.84375,-4.375 2.4375,-4.40625 2.21875,-4.40625 c -0.9375,0 -1.625,0.6875 -1.625,1.453125 0,0.4375 0.21875,0.8125 0.46875,1.03125 -0.125,0.140625 -0.3125,0.46875 -0.3125,0.828125 0,0.3125 0.140625,0.6875 0.453125,0.890625 -0.609375,0.15625 -0.921875,0.59375 -0.921875,0.984375 0,0.71875 0.984375,1.265625 2.203125,1.265625 1.171875,0 2.203125,-0.5 2.203125,-1.28125 0,-0.34375 -0.125,-0.859375 -0.640625,-1.140625 -0.53125,-0.265625 -1.109375,-0.265625 -1.71875,-0.265625 -0.25,0 -0.671875,0 -0.75,-0.015625 C 1.265625,-0.703125 1.0625,-1 1.0625,-1.328125 z M 2.5,1.828125 c -1.015625,0 -1.703125,-0.515625 -1.703125,-1.046875 0,-0.453125 0.375,-0.828125 0.8125,-0.84375 l 0.59375,0 c 0.859375,0 1.96875,0 1.96875,0.84375 0,0.546875 -0.703125,1.046875 -1.671875,1.046875 z m 0,0"
                 id="path6359" />
            </symbol>
            <symbol
               style="overflow:visible"
               overflow="visible"
               id="textext-f4084f61-5">
              <path
                 inkscape:connector-curvature="0"
                 style="stroke:none"
                 d="m 2.03125,-0.015625 c 0,-0.65625 -0.25,-1.046875 -0.640625,-1.046875 -0.328125,0 -0.53125,0.25 -0.53125,0.53125 C 0.859375,-0.265625 1.0625,0 1.390625,0 1.5,0 1.640625,-0.046875 1.734375,-0.125 1.765625,-0.15625 1.78125,-0.15625 1.78125,-0.15625 c 0.015625,0 0.015625,0 0.015625,0.140625 0,0.75 -0.34375,1.34375 -0.671875,1.671875 -0.109375,0.109375 -0.109375,0.125 -0.109375,0.15625 0,0.078125 0.046875,0.109375 0.09375,0.109375 0.109375,0 0.921875,-0.765625 0.921875,-1.9375 z m 0,0"
                 id="path6362" />
            </symbol>
          </g>
        </defs>
        <g
           id="textext-f4084f61-6">
          <g
             style="fill:#000000;fill-opacity:1"
             id="g6365">
            <use
               height="1052.3622"
               width="744.09448"
               xlink:href="#textext-f4084f61-0"
               x="223.43201"
               y="134.765"
               id="use6367" />
            <use
               height="1052.3622"
               width="744.09448"
               xlink:href="#textext-f4084f61-1"
               x="228.4133"
               y="134.765"
               id="use6369" />
            <use
               height="1052.3622"
               width="744.09448"
               xlink:href="#textext-f4084f61-2"
               x="233.39461"
               y="134.765"
               id="use6371" />
          </g>
          <g
             style="fill:#000000;fill-opacity:1"
             id="g6373">
            <use
               height="1052.3622"
               width="744.09448"
               xlink:href="#textext-f4084f61-5"
               x="238.37601"
               y="134.765"
               id="use6375" />
          </g>
          <g
             style="fill:#000000;fill-opacity:1"
             id="g6377">
            <use
               height="1052.3622"
               width="744.09448"
               xlink:href="#textext-f4084f61-3"
               x="242.804"
               y="134.765"
               id="use6379" />
          </g>
          <g
             style="fill:#000000;fill-opacity:1"
             id="g6381">
            <use
               height="1052.3622"
               width="744.09448"
               xlink:href="#textext-f4084f61-4"
               x="249.44905"
               y="134.765"
               id="use6383" />
          </g>
        </g>
      </g>
    </g>
  </g>
</svg>
