<svg xmlns="http://www.w3.org/2000/svg" width="1052.362" height="744.094"><title>Volumenbestimmung(Archimedisches Prinzip)</title><defs><filter height="2.2" y="-.6" width="2.2" x="-.6" id="a" color-interpolation-filters="sRGB"><feGaussianBlur stdDeviation="5.714"/></filter></defs><path fill="#fff" stroke="#fff" stroke-width="1.5" stroke-linecap="round" stroke-linejoin="round" d="M20 14.094h1014v712H20z"/><path fill="#80b3ff" d="M265.906 390.766h134.875v258.536H265.906z"/><g fill="none" stroke="#333" stroke-linecap="round"><path d="M161.044 406.344c-7.1 0-12.856-5.756-12.856-12.856s5.756-12.855 12.856-12.855 12.855 5.756 12.855 12.855" stroke-width="4.37344875" stroke-linejoin="round"/><path d="M161.044 406.344v17.891" stroke-width="4.3735725"/></g><path fill="#b3b3b3" stroke="#333" stroke-width="1.58942025" stroke-linecap="round" stroke-linejoin="round" d="M120.178 415.948h81.73v132.24h-81.73z"/><path d="M301.429 350.934c0 6.311-5.117 11.428-11.429 11.428s-11.429-5.117-11.429-11.428c0-6.312 5.117-11.429 11.429-11.429s11.429 5.117 11.429 11.429z" transform="matrix(.4177 0 0 .4177 23.948 289.303)" opacity=".8" fill="#fff" filter="url(#a)"/><path d="M161.044 384.633V38.323" fill="none" stroke="#000" stroke-width="6" stroke-linecap="round"/><path fill="gray" stroke="#333" stroke-width="1.5" d="M56.181 671.207h940v36.076h-940z"/><path fill="#80b3ff" d="M651.581 309.036h134.875v340.265H651.581z"/><g fill="none" stroke="#333" stroke-linecap="round"><path d="M719.019 406.344c-7.1 0-12.856-5.756-12.856-12.856s5.756-12.855 12.856-12.855 12.855 5.756 12.855 12.855" stroke-width="4.37344875" stroke-linejoin="round"/><path d="M719.019 406.344v17.891" stroke-width="4.3735725"/></g><path fill="#b3b3b3" stroke="#333" stroke-width="1.58942025" stroke-linecap="round" stroke-linejoin="round" d="M678.154 415.948h81.729v132.24h-81.73z"/><path transform="matrix(.4177 0 0 .4177 581.923 289.303)" d="M301.429 350.934c0 6.311-5.117 11.428-11.429 11.428s-11.429-5.117-11.429-11.428c0-6.312 5.117-11.429 11.429-11.429s11.429 5.117 11.429 11.429z" opacity=".8" fill="#fff" filter="url(#a)"/><path d="M719.019 384.633V38.323" fill="none" stroke="#000" stroke-width="6" stroke-linecap="round"/><g><path d="M243.156 124.613c7.999 3.386 15.118 8.71 22.75 16.782v503.093c-.99 7.946-5.053 11.763-11.875 11.875h-21.438a7.43 7.43 0 0 0-7.437 7.438c0 4.113 3.324 7.406 7.437 7.406h201.5c4.114 0 7.438-3.293 7.438-7.406a7.43 7.43 0 0 0-7.438-7.438h-21.437c-6.822-.112-10.886-3.93-11.875-11.875V124.613H243.156z" opacity=".3" fill="#e6e6e6"/><path d="M243.156 124.613c7.999 3.386 15.118 8.71 22.75 16.782v503.093c-.99 7.946-5.053 11.763-11.875 11.875h-21.438a7.43 7.43 0 0 0-7.437 7.438c0 4.113 3.324 7.406 7.437 7.406h201.5c4.114 0 7.438-3.293 7.438-7.406a7.43 7.43 0 0 0-7.438-7.438h-21.437c-6.822-.112-10.886-3.93-11.875-11.875V124.613H243.156z" fill="none" stroke="#000" stroke-width="3" stroke-linecap="round" stroke-linejoin="round"/></g><g><path d="M628.831 124.613c8 3.386 15.118 8.71 22.75 16.782v503.093c-.989 7.946-5.053 11.763-11.875 11.875H618.27a7.43 7.43 0 0 0-7.438 7.438c0 4.113 3.324 7.406 7.438 7.406h201.5c4.113 0 7.437-3.293 7.437-7.406a7.43 7.43 0 0 0-7.437-7.438H798.33c-6.822-.112-10.886-3.93-11.875-11.875V124.613H628.831z" fill="none" stroke="#000" stroke-width="3" stroke-linecap="round" stroke-linejoin="round"/><path d="M628.831 124.613c8 3.386 15.118 8.71 22.75 16.782v503.093c-.989 7.946-5.053 11.763-11.875 11.875H618.27a7.43 7.43 0 0 0-7.438 7.438c0 4.113 3.324 7.406 7.438 7.406h201.5c4.113 0 7.437-3.293 7.437-7.406a7.43 7.43 0 0 0-7.437-7.438H798.33c-6.822-.112-10.886-3.93-11.875-11.875V124.613H628.831z" opacity=".3" fill="#e6e6e6"/></g></svg>