<svg xmlns="http://www.w3.org/2000/svg" height="1052.362" width="744.094"><title>Dichtebestimmung nach Archimedes</title><defs><filter color-interpolation-filters="sRGB" id="a" x="-.6" width="2.2" y="-.6" height="2.2"><feGaussianBlur stdDeviation="5.714"/></filter></defs><path fill="#fff" stroke="#fff" stroke-width="1.5" stroke-linecap="round" stroke-linejoin="round" d="M35.108 210.572H703.43v605.94H35.108z"/><g fill="none" stroke="#333" stroke-linecap="round"><path d="M137.994 469.326c-7.1 0-12.855-5.755-12.855-12.855 0-7.1 5.755-12.855 12.855-12.855 7.1 0 12.855 5.755 12.855 12.855" stroke-width="4.37344875" stroke-linejoin="round"/><path d="M137.994 469.326v17.892" stroke-width="4.3735725"/></g><path fill="#b3b3b3" stroke="#333" stroke-width="1.58942025" stroke-linecap="round" stroke-linejoin="round" d="M97.129 478.93h81.729v132.24h-81.73z"/><path transform="matrix(.4177 0 0 .4177 .898 352.285)" d="M301.429 350.934c0 6.311-5.117 11.428-11.429 11.428s-11.429-5.117-11.429-11.428c0-6.312 5.117-11.429 11.429-11.429s11.429 5.117 11.429 11.429z" opacity=".8" fill="#fff" filter="url(#a)"/><path d="M137.994 447.616V249.305" fill="none" stroke="#000" stroke-width="6" stroke-linecap="round"/><rect rx="6.241" ry="4.036" y="781.167" x="70.492" height="23.891" width="603.111" fill="#666" stroke="#1a1a1a" stroke-width="2" stroke-linecap="round" stroke-linejoin="round"/><rect ry="4.036" rx="9.319" y="755.029" x="171.318" height="26.138" width="234.621" style="marker:none" color="#000" fill="gray" fill-rule="evenodd" stroke="#000" stroke-width="1.5" overflow="visible" enable-background="accumulate"/><rect style="marker:none" width="234.621" height="26.138" x="171.318" y="642.036" rx="9.319" ry="4.036" color="#000" fill="gray" fill-rule="evenodd" stroke="#000" stroke-width="1.5" overflow="visible" enable-background="accumulate"/><g transform="matrix(1.1464 0 0 1 -103.3 -186.363)" fill="gray" color="#000" fill-rule="evenodd" stroke="#000" stroke-width="1.401"><rect style="marker:none" width="166.947" height="15.713" x="794.983" y="387.113" rx="6.241" ry="4.036" transform="rotate(45)" overflow="visible" enable-background="accumulate"/><rect transform="scale(1 -1) rotate(45)" ry="4.036" rx="6.241" y="-886.312" x="-478.443" height="15.713" width="166.947" style="marker:none" overflow="visible" enable-background="accumulate"/></g><g stroke="gray" stroke-width="3"><g stroke-width="4.604"><path d="M-403.875 773.531c8 3.386 15.118 8.71 22.75 16.782v503.093c-.989 7.945-5.053 11.763-11.875 11.875h-21.438a7.43 7.43 0 0 0-7.437 7.438c0 4.113 3.324 7.406 7.438 7.406h201.5c4.113 0 7.437-3.293 7.437-7.406a7.43 7.43 0 0 0-7.438-7.438h-21.437c-6.822-.112-10.886-3.93-11.875-11.875V773.531h-157.625z" opacity=".3" fill="#e6e6e6" transform="matrix(.65559 0 0 .64755 689.793 -73.683)"/><path d="M-403.875 773.531c8 3.386 15.118 8.709 22.75 16.782v503.093c-.989 7.945-5.053 11.763-11.875 11.875h-21.438a7.43 7.43 0 0 0-7.437 7.438c0 4.113 3.324 7.406 7.438 7.406h201.5c4.113 0 7.437-3.293 7.437-7.406a7.43 7.43 0 0 0-7.438-7.438h-21.437c-6.822-.112-10.886-3.93-11.875-11.875V773.531h-157.625z" fill="none" stroke-linecap="round" stroke-linejoin="round" transform="matrix(.65559 0 0 .64755 689.793 -73.683)"/></g><path style="marker:none" d="M527.161 762.688h-11.805M527.161 443.525h-11.805" color="#000" fill="none" stroke-linecap="round" stroke-linejoin="round" overflow="visible" enable-background="accumulate"/><g color="#000" fill="none" stroke-linecap="round" stroke-linejoin="round"><path d="M527.161 752.392h-11.805M527.161 742.097h-11.805M527.161 731.801h-11.805M527.161 721.505h-11.805M527.161 711.21h-11.805M527.161 700.914h-11.805M527.161 690.619h-11.805M527.161 680.323h-11.805M527.161 670.028h-11.805M527.161 659.732h-11.805M527.161 649.437h-11.805M527.161 639.14h-11.805M527.161 628.845h-11.805M527.161 618.55h-11.805M527.161 608.254h-11.805M527.161 597.959h-11.805M527.161 587.663h-11.805M527.161 577.368h-11.805M527.161 567.072h-11.805M527.161 556.776h-11.805M527.161 546.48h-11.805M527.161 536.185h-11.805M527.161 525.89h-11.805M527.161 515.594h-11.805M527.161 505.299h-11.805M527.161 495.003h-11.805M527.161 484.707h-11.805M527.161 474.412h-11.805M527.161 464.116h-11.805M527.161 453.82h-11.805" style="marker:none" overflow="visible" enable-background="accumulate"/></g></g><path fill="#afc6e9" stroke="#87aade" d="M227.834 418.19h176.37v221.069h-176.37z"/><path style="marker:none" d="M404.214 418.312V639.26h-176.38V373.492l-13.193-10.937h189.573V388.3" color="#000" fill="none" stroke="#999" stroke-width="3" stroke-linejoin="round" overflow="visible" enable-background="accumulate"/><path style="marker:none" d="M404.205 388.237h41.19m0 29.953h-41.19" color="#000" fill="#fff" fill-rule="evenodd" stroke="#999" stroke-width="3" stroke-linecap="round" overflow="visible" enable-background="accumulate"/></svg>