<svg xmlns:ns0="http://www.iki.fi/pav/software/textext/" xmlns="http://www.w3.org/2000/svg" xmlns:xlink="http://www.w3.org/1999/xlink" width="1052.362" height="744.094"><title>Kubikzentimeter und Liter</title><defs><marker orient="auto" id="b" overflow="visible"><path d="M2.308 0l-3.46 2v-4l3.46 2z" fill-rule="evenodd" stroke="#000" stroke-width=".4pt"/></marker><marker orient="auto" id="a" overflow="visible"><path d="M-2.308 0l3.46-2v4l-3.46-2z" fill-rule="evenodd" stroke="#000" stroke-width=".4pt"/></marker></defs><path fill="#fff" stroke="#fff" stroke-linecap="round" stroke-linejoin="round" d="M24.046 12.664h1004.269V731.43H24.046z"/><g transform="matrix(.7026 0 0 .7026 125.515 112.748)"><path d="M100.557 376.25l37.685 21.756v43.515l-37.685-21.758z" fill="#ccc" stroke="#000" stroke-width="1.423" stroke-linejoin="bevel"/><path d="M100.557 376.25l37.685-21.758 37.684 21.757-37.684 21.757z" fill="#ccc" stroke="#000" stroke-width="1.423" stroke-linejoin="bevel"/><path d="M175.926 376.25v43.513l-37.684 21.758v-43.515z" fill="#ccc" stroke="#000" stroke-width="1.423" stroke-linejoin="bevel"/><path id="c" d="M138.242 441.408v20.07" fill="none" stroke="#000" stroke-width="1.423" stroke-linecap="round"/><path d="M186.953 373.214v36.87M89.93 429.222l31.93 18.435M141.049 453.354l31.93-18.435" fill="none" stroke="#000" stroke-width="1.423" marker-start="url(#a)" marker-end="url(#b)"/><use height="333" width="514" transform="translate(37.684 -21.645)" xlink:href="#c"/><use height="333" width="514" transform="rotate(-120 150.836 419.707)" xlink:href="#c"/><use height="333" width="514" transform="rotate(-120 138.274 397.95)" xlink:href="#c"/><use height="333" width="514" transform="rotate(60 138.242 441.408)" xlink:href="#c"/><use height="333" width="514" transform="rotate(60 138.144 397.95)" xlink:href="#c"/></g><g transform="translate(-313.382 153.343) scale(2.09198)" ns0:text="$\\unit[1]{cm}$" ns0:preamble="/home/waldgeist/data/sphinx/test.tex"><defs><symbol overflow="visible" id="d"><path d="M2.938-6.375c0-.25 0-.266-.235-.266C2.078-6 1.203-6 .891-6v.313c.203 0 .78 0 1.296-.266v5.172c0 .36-.03.469-.921.469H.953V0c.344-.031 1.203-.031 1.61-.031.39 0 1.265 0 1.609.031v-.313h-.313c-.906 0-.921-.109-.921-.468zm0 0"/></symbol><symbol overflow="visible" id="e"><path d="M1.172-2.172c0-1.625.812-2.047 1.344-2.047.093 0 .718.016 1.062.375-.406.031-.469.328-.469.453 0 .266.188.454.454.454.265 0 .468-.157.468-.47 0-.671-.765-1.062-1.531-1.062C1.25-4.469.344-3.39.344-2.156c0 1.281.984 2.265 2.14 2.265 1.329 0 1.657-1.203 1.657-1.296 0-.094-.11-.094-.141-.094-.078 0-.11.031-.125.093C3.594-.265 2.937-.14 2.578-.14c-.531 0-1.406-.421-1.406-2.03zm0 0"/></symbol><symbol overflow="visible" id="f"><path d="M1.094-3.422V-.75c0 .438-.11.438-.782.438V0c.36-.016.86-.031 1.141-.031.25 0 .766.015 1.11.031v-.313c-.672 0-.782 0-.782-.437v-1.844c0-1.031.719-1.594 1.344-1.594.64 0 .75.532.75 1.11V-.75c0 .438-.11.438-.781.438V0c.344-.016.86-.031 1.125-.031.25 0 .781.015 1.11.031v-.313c-.657 0-.766 0-.766-.437v-1.844c0-1.031.703-1.594 1.343-1.594.625 0 .735.532.735 1.11V-.75c0 .438-.11.438-.782.438V0c.344-.016.86-.031 1.125-.031.266 0 .782.015 1.125.031v-.313c-.515 0-.765 0-.78-.296v-1.907c0-.859 0-1.156-.313-1.515-.141-.172-.47-.375-1.047-.375-.828 0-1.282.593-1.438.984-.14-.875-.875-.984-1.328-.984-.734 0-1.203.422-1.484 1.047v-1.047l-1.407.11v.312c.704 0 .782.062.782.562zm0 0"/></symbol></defs><use height="1052.362" width="744.094" xlink:href="#d" x="223.432" y="134.765"/><use height="1052.362" width="744.094" xlink:href="#e" x="230.077" y="134.765"/><use height="1052.362" width="744.094" xlink:href="#f" x="234.504" y="134.765"/></g><g ns0:preamble="/home/waldgeist/data/sphinx/test.tex" ns0:text="$\\unit[1]{cm}$"><use y="134.765" x="223.432" xlink:href="#d" width="744.094" height="1052.362" transform="translate(-229.929 162.64) scale(2.09198)"/><g transform="translate(-229.929 162.64) scale(2.09198)"><use y="134.765" x="230.077" xlink:href="#e" width="744.094" height="1052.362"/><use y="134.765" x="234.504" xlink:href="#f" width="744.094" height="1052.362"/></g></g><g ns0:text="$\\unit[1]{cm}$" ns0:preamble="/home/waldgeist/data/sphinx/test.tex"><use height="1052.362" width="744.094" xlink:href="#d" x="223.432" y="134.765" transform="translate(-202.923 110.62) scale(2.09198)"/><g transform="translate(-202.923 110.62) scale(2.09198)"><use height="1052.362" width="744.094" xlink:href="#e" x="230.077" y="134.765"/><use height="1052.362" width="744.094" xlink:href="#f" x="234.504" y="134.765"/></g></g><path d="M944.68 488.77v30.573l-26.477 15.286v-30.573zM918.203 504.056v30.573l-26.478 15.287v-30.573zM891.725 519.343v30.573l-26.477 15.287v-30.574zM865.248 534.63v30.573l-26.477 15.287v-30.574zM838.77 549.916v30.574l-26.477 15.286v-30.573zM812.293 565.203v30.573l-26.477 15.287V580.49zM785.816 580.49v30.573l-26.478 15.287v-30.574zM759.338 595.776v30.574l-26.477 15.286v-30.573zM732.861 611.063v30.573l-26.477 15.287V626.35zM415.132 488.77l26.478 15.286v30.573l-26.478-15.286zM441.61 504.056l26.477 15.287v30.573L441.61 534.63zM468.087 519.343l26.478 15.286v30.574l-26.478-15.287zM494.565 534.63l26.477 15.286v30.574l-26.477-15.287zM521.042 549.916l26.477 15.287v30.573l-26.477-15.286zM547.52 565.203l26.477 15.287v30.573l-26.478-15.287zM573.997 580.49l26.477 15.286v30.574l-26.477-15.287zM600.474 595.776l26.478 15.287v30.573l-26.478-15.286zM626.952 611.063l26.477 15.287v30.573l-26.477-15.287z" fill="#fff" stroke="#000" stroke-width=".99981403" stroke-linejoin="bevel"/><g fill="#fff" stroke="#000" stroke-width="1.423" stroke-linejoin="bevel"><path d="M653.429 626.35l26.477 15.286v30.574l-26.477-15.287zM706.384 626.35v30.573l-26.478 15.287v-30.574z" stroke-width=".99981403"/></g><g transform="translate(4.865 338.022) scale(2.09198)" ns0:preamble="/home/waldgeist/data/sphinx/test.tex" ns0:text="$\\unit[10]{cm}$"><defs><symbol id="g" overflow="visible"><path d="M2.938-6.375c0-.25 0-.266-.235-.266C2.078-6 1.203-6 .891-6v.313c.203 0 .78 0 1.296-.266v5.172c0 .36-.03.469-.921.469H.953V0c.344-.031 1.203-.031 1.61-.031.39 0 1.265 0 1.609.031v-.313h-.313c-.906 0-.921-.109-.921-.468zm0 0"/></symbol><symbol id="h" overflow="visible"><path d="M4.578-3.188c0-.796-.047-1.593-.39-2.328C3.733-6.484 2.905-6.64 2.5-6.64c-.61 0-1.328.266-1.75 1.188-.313.687-.36 1.469-.36 2.266 0 .75.032 1.64.454 2.406a1.83 1.83 0 0 0 1.64 1c.532 0 1.297-.203 1.735-1.157.312-.687.36-1.468.36-2.25zM2.484 0c-.39 0-.984-.25-1.156-1.203-.11-.594-.11-1.516-.11-2.11 0-.64 0-1.296.079-1.828.187-1.187.937-1.28 1.187-1.28.329 0 .985.187 1.172 1.171.11.563.11 1.313.11 1.938 0 .75 0 1.421-.11 2.062C3.5-.297 2.937 0 2.484 0zm0 0"/></symbol><symbol id="i" overflow="visible"><path d="M1.172-2.172c0-1.625.812-2.047 1.344-2.047.093 0 .718.016 1.062.375-.406.031-.469.328-.469.453 0 .266.188.454.454.454.265 0 .468-.157.468-.47 0-.671-.765-1.062-1.531-1.062C1.25-4.469.344-3.39.344-2.156c0 1.281.984 2.265 2.14 2.265 1.329 0 1.657-1.203 1.657-1.296 0-.094-.11-.094-.141-.094-.078 0-.11.031-.125.093C3.594-.265 2.937-.14 2.578-.14c-.531 0-1.406-.421-1.406-2.03zm0 0"/></symbol><symbol id="j" overflow="visible"><path d="M1.094-3.422V-.75c0 .438-.11.438-.782.438V0c.36-.016.86-.031 1.141-.031.25 0 .766.015 1.11.031v-.313c-.672 0-.782 0-.782-.437v-1.844c0-1.031.719-1.594 1.344-1.594.64 0 .75.532.75 1.11V-.75c0 .438-.11.438-.781.438V0c.344-.016.86-.031 1.125-.031.25 0 .781.015 1.11.031v-.313c-.657 0-.766 0-.766-.437v-1.844c0-1.031.703-1.594 1.343-1.594.625 0 .735.532.735 1.11V-.75c0 .438-.11.438-.782.438V0c.344-.016.86-.031 1.125-.031.266 0 .782.015 1.125.031v-.313c-.515 0-.765 0-.78-.296v-1.907c0-.859 0-1.156-.313-1.515-.141-.172-.47-.375-1.047-.375-.828 0-1.282.593-1.438.984-.14-.875-.875-.984-1.328-.984-.734 0-1.203.422-1.484 1.047v-1.047l-1.407.11v.312c.704 0 .782.062.782.562zm0 0"/></symbol></defs><use height="1052.362" width="744.094" y="134.765" x="223.432" xlink:href="#g"/><use height="1052.362" width="744.094" y="134.765" x="228.413" xlink:href="#h"/><g><use height="1052.362" width="744.094" y="134.765" x="235.058" xlink:href="#i"/><use height="1052.362" width="744.094" y="134.765" x="239.486" xlink:href="#j"/></g></g><path d="M405.62 528.245l259.003 149.607" fill="none" stroke="#000" marker-start="url(#a)" marker-end="url(#b)"/><use height="333" width="514" transform="rotate(60 74.955 690.139) scale(.70261)" xlink:href="#c"/><use height="333" width="514" transform="rotate(60 74.602 995.67) scale(.70261)" xlink:href="#c"/><use height="333" width="514" transform="matrix(.7026 0 0 .7026 582.423 362.277)" xlink:href="#c"/><use height="333" width="514" transform="matrix(.7026 0 0 .7026 847.55 209.205)" xlink:href="#c"/><use height="333" width="514" transform="rotate(60 351.942 1155.791) scale(.70261)" xlink:href="#c"/><use height="333" width="514" transform="rotate(60 616.183 1003.23) scale(.70261)" xlink:href="#c"/><path d="M941.67 534.605L682.514 685.108" fill="none" stroke="#000" marker-start="url(#a)" marker-end="url(#b)"/><g ns0:text="$\\unit[10]{cm}$" ns0:preamble="/home/waldgeist/data/sphinx/test.tex"><g transform="translate(361.744 348.04) scale(2.09198)"><use xlink:href="#g" x="223.432" y="134.765" width="744.094" height="1052.362"/><use xlink:href="#h" x="228.413" y="134.765" width="744.094" height="1052.362"/></g><g transform="translate(361.744 348.04) scale(2.09198)"><use xlink:href="#i" x="235.058" y="134.765" width="744.094" height="1052.362"/><use xlink:href="#j" x="239.486" y="134.765" width="744.094" height="1052.362"/></g></g><path d="M957.2 210.358l-.57 298.646" fill="none" stroke="#000" marker-start="url(#a)" marker-end="url(#b)"/><g ns0:text="$\\unit[10]{cm}$" ns0:preamble="/home/waldgeist/data/sphinx/test.tex"><g transform="translate(497.65 80.246) scale(2.09198)"><use xlink:href="#g" x="223.432" y="134.765" width="744.094" height="1052.362"/><use xlink:href="#h" x="228.413" y="134.765" width="744.094" height="1052.362"/></g><g transform="translate(497.65 80.246) scale(2.09198)"><use xlink:href="#i" x="235.058" y="134.765" width="744.094" height="1052.362"/><use xlink:href="#j" x="239.486" y="134.765" width="744.094" height="1052.362"/></g></g><g><path d="M944.68 458.196v30.573l-26.477 15.287v-30.574zM918.203 473.482v30.574l-26.478 15.287v-30.574zM891.725 488.77v30.573l-26.477 15.286v-30.573zM865.248 504.056v30.573l-26.477 15.287v-30.573zM838.77 519.343v30.573l-26.477 15.287v-30.574zM812.293 534.63v30.573l-26.477 15.287v-30.574zM785.816 549.916v30.574l-26.478 15.286v-30.573zM759.338 565.203v30.573l-26.477 15.287V580.49zM732.861 580.49v30.573l-26.477 15.287v-30.574zM415.132 458.196l26.478 15.287v30.573l-26.478-15.287zM441.61 473.483l26.477 15.286v30.574l-26.477-15.287zM468.087 488.77l26.478 15.286v30.573l-26.478-15.286zM494.565 504.056l26.477 15.287v30.573l-26.477-15.287zM521.042 519.343l26.477 15.286v30.574l-26.477-15.287zM547.52 534.63l26.477 15.286v30.574l-26.478-15.287zM573.997 549.916l26.477 15.287v30.573l-26.477-15.286zM600.474 565.203l26.478 15.287v30.573l-26.478-15.287zM626.952 580.49l26.477 15.286v30.574l-26.477-15.287z" fill="#fff" stroke="#000" stroke-width=".99981403" stroke-linejoin="bevel"/><g fill="#fff" stroke="#000" stroke-width="1.423" stroke-linejoin="bevel"><path d="M653.429 595.776l26.477 15.287v30.573L653.43 626.35zM706.384 595.776v30.574l-26.478 15.286v-30.573z" stroke-width=".99981403"/></g></g><g><path d="M944.68 427.622v30.574l-26.477 15.286V442.91zM918.203 442.909v30.573l-26.478 15.287v-30.573zM891.725 458.196v30.573l-26.477 15.287v-30.574zM865.248 473.482v30.574l-26.477 15.287v-30.574zM838.77 488.77v30.573l-26.477 15.286v-30.573zM812.293 504.056v30.573l-26.477 15.287v-30.573zM785.816 519.343v30.573l-26.478 15.287v-30.574zM759.338 534.63v30.573l-26.477 15.287v-30.574zM732.861 549.916v30.574l-26.477 15.286v-30.573zM415.132 427.622l26.478 15.287v30.574l-26.478-15.287zM441.61 442.91l26.477 15.286v30.573l-26.477-15.286zM468.087 458.196l26.478 15.287v30.573l-26.478-15.287zM494.565 473.483l26.477 15.286v30.574l-26.477-15.287zM521.042 488.77l26.477 15.286v30.573l-26.477-15.286zM547.52 504.056l26.477 15.287v30.573l-26.478-15.287zM573.997 519.343l26.477 15.286v30.574l-26.477-15.287zM600.474 534.63l26.478 15.286v30.574l-26.478-15.287zM626.952 549.916l26.477 15.287v30.573l-26.477-15.286z" fill="#fff" stroke="#000" stroke-width=".99981403" stroke-linejoin="bevel"/><g fill="#fff" stroke="#000" stroke-width="1.423" stroke-linejoin="bevel"><path d="M653.429 565.203l26.477 15.287v30.573l-26.477-15.287zM706.384 565.203v30.573l-26.478 15.287V580.49z" stroke-width=".99981403"/></g></g><g><path d="M944.68 397.049v30.573l-26.477 15.287v-30.573zM918.203 412.336v30.573l-26.478 15.287v-30.574zM891.725 427.622v30.574l-26.477 15.286V442.91zM865.248 442.909v30.573l-26.477 15.287v-30.573zM838.77 458.196v30.573l-26.477 15.287v-30.574zM812.293 473.482v30.574l-26.477 15.287v-30.574zM785.816 488.77v30.573l-26.478 15.286v-30.573zM759.338 504.056v30.573l-26.477 15.287v-30.573zM732.861 519.343v30.573l-26.477 15.287v-30.574zM415.132 397.049l26.478 15.287v30.573l-26.478-15.287zM441.61 412.336l26.477 15.286v30.574l-26.477-15.287zM468.087 427.622l26.478 15.287v30.574l-26.478-15.287zM494.565 442.91l26.477 15.286v30.573l-26.477-15.286zM521.042 458.196l26.477 15.287v30.573l-26.477-15.287zM547.52 473.482l26.477 15.287v30.574l-26.478-15.287zM573.997 488.77l26.477 15.286v30.573l-26.477-15.286zM600.474 504.056l26.478 15.287v30.573l-26.478-15.287zM626.952 519.343l26.477 15.286v30.574l-26.477-15.287z" fill="#fff" stroke="#000" stroke-width=".99981403" stroke-linejoin="bevel"/><g fill="#fff" stroke="#000" stroke-width="1.423" stroke-linejoin="bevel"><path d="M653.429 534.63l26.477 15.286v30.574l-26.477-15.287zM706.384 534.63v30.573l-26.478 15.287v-30.574z" stroke-width=".99981403"/></g></g><g><path d="M944.68 366.475v30.574l-26.477 15.287v-30.574zM918.203 381.762v30.574l-26.478 15.286V397.05zM891.725 397.049v30.573l-26.477 15.287v-30.573zM865.248 412.336v30.573l-26.477 15.287v-30.574zM838.77 427.622v30.574l-26.477 15.286V442.91zM812.293 442.909v30.573l-26.477 15.287v-30.573zM785.816 458.196v30.573l-26.478 15.287v-30.574zM759.338 473.482v30.574l-26.477 15.287v-30.574zM732.861 488.77v30.573l-26.477 15.286v-30.573zM415.132 366.475l26.478 15.287v30.574l-26.478-15.287zM441.61 381.762l26.477 15.287v30.573l-26.477-15.286zM468.087 397.049l26.478 15.287v30.573l-26.478-15.287zM494.565 412.336l26.477 15.286v30.574l-26.477-15.287zM521.042 427.622l26.477 15.287v30.574l-26.477-15.287zM547.52 442.91l26.477 15.286v30.573l-26.478-15.287zM573.997 458.196l26.477 15.286v30.574l-26.477-15.287zM600.474 473.482l26.478 15.287v30.574l-26.478-15.287zM626.952 488.77l26.477 15.286v30.573l-26.477-15.286z" fill="#fff" stroke="#000" stroke-width=".99981403" stroke-linejoin="bevel"/><g fill="#fff" stroke="#000" stroke-width="1.423" stroke-linejoin="bevel"><path d="M653.429 504.056l26.477 15.287v30.573L653.43 534.63zM706.384 504.056v30.573l-26.478 15.287v-30.573z" stroke-width=".99981403"/></g></g><g><path d="M944.68 335.902v30.573l-26.477 15.287V351.19zM918.203 351.189v30.573l-26.478 15.287v-30.574zM891.725 366.475v30.574l-26.477 15.287v-30.574zM865.248 381.762v30.574l-26.477 15.286V397.05zM838.77 397.049v30.573l-26.477 15.287v-30.573zM812.293 412.336v30.573l-26.477 15.287v-30.574zM785.816 427.622v30.574l-26.478 15.286V442.91zM759.338 442.909v30.573l-26.477 15.287v-30.573zM732.861 458.196v30.573l-26.477 15.287v-30.574zM415.132 335.902l26.478 15.287v30.573l-26.478-15.287zM441.61 351.189l26.477 15.286v30.574l-26.477-15.287zM468.087 366.475l26.478 15.287v30.574l-26.478-15.287zM494.565 381.762l26.477 15.287v30.573l-26.477-15.286zM521.042 397.049l26.477 15.287v30.573l-26.477-15.287zM547.52 412.336l26.477 15.286v30.574l-26.478-15.287zM573.997 427.622l26.477 15.287v30.574l-26.477-15.287zM600.474 442.91l26.478 15.286v30.573l-26.478-15.287zM626.952 458.196l26.477 15.286v30.574l-26.477-15.287z" fill="#fff" stroke="#000" stroke-width=".99981403" stroke-linejoin="bevel"/><g fill="#fff" stroke="#000" stroke-width="1.423" stroke-linejoin="bevel"><path d="M653.429 473.482l26.477 15.287v30.574l-26.477-15.287zM706.384 473.482v30.574l-26.478 15.287v-30.574z" stroke-width=".99981403"/></g></g><g><path d="M944.68 305.329v30.573l-26.477 15.287v-30.574zM918.203 320.615v30.574l-26.478 15.286v-30.573zM891.725 335.902v30.573l-26.477 15.287V351.19zM865.248 351.189v30.573l-26.477 15.287v-30.574zM838.77 366.475v30.574l-26.477 15.287v-30.574zM812.293 381.762v30.574l-26.477 15.286V397.05zM785.816 397.049v30.573l-26.478 15.287v-30.573zM759.338 412.336v30.573l-26.477 15.287v-30.574zM732.861 427.622v30.574l-26.477 15.286V442.91zM415.132 305.329l26.478 15.286v30.574l-26.478-15.287zM441.61 320.615l26.477 15.287v30.573L441.61 351.19zM468.087 335.902l26.478 15.287v30.573l-26.478-15.287zM494.565 351.189l26.477 15.286v30.574l-26.477-15.287zM521.042 366.475l26.477 15.287v30.574l-26.477-15.287zM547.52 381.762l26.477 15.287v30.573l-26.478-15.286zM573.997 397.049l26.477 15.287v30.573l-26.477-15.287zM600.474 412.336l26.478 15.286v30.574l-26.478-15.287zM626.952 427.622l26.477 15.287v30.574l-26.477-15.287z" fill="#fff" stroke="#000" stroke-width=".99981403" stroke-linejoin="bevel"/><g fill="#fff" stroke="#000" stroke-width="1.423" stroke-linejoin="bevel"><path d="M653.429 442.909l26.477 15.287v30.573l-26.477-15.287zM706.384 442.909v30.573l-26.478 15.287v-30.573z" stroke-width=".99981403"/></g></g><g><path d="M944.68 274.755v30.574l-26.477 15.286v-30.573zM918.203 290.042v30.573l-26.478 15.287v-30.573zM891.725 305.329v30.573l-26.477 15.287v-30.574zM865.248 320.615v30.574l-26.477 15.286v-30.573zM838.77 335.902v30.573l-26.477 15.287V351.19zM812.293 351.189v30.573l-26.477 15.287v-30.574zM785.816 366.475v30.574l-26.478 15.287v-30.574zM759.338 381.762v30.574l-26.477 15.286V397.05zM732.861 397.049v30.573l-26.477 15.287v-30.573zM415.132 274.755l26.478 15.287v30.573l-26.478-15.286zM441.61 290.042l26.477 15.287v30.573l-26.477-15.287zM468.087 305.329l26.478 15.286v30.574l-26.478-15.287zM494.565 320.615l26.477 15.287v30.573l-26.477-15.286zM521.042 335.902l26.477 15.287v30.573l-26.477-15.287zM547.52 351.189l26.477 15.286v30.574l-26.478-15.287zM573.997 366.475l26.477 15.287v30.574l-26.477-15.287zM600.474 381.762l26.478 15.287v30.573l-26.478-15.286zM626.952 397.049l26.477 15.287v30.573l-26.477-15.287z" fill="#fff" stroke="#000" stroke-width=".99981403" stroke-linejoin="bevel"/><g fill="#fff" stroke="#000" stroke-width="1.423" stroke-linejoin="bevel"><path d="M653.429 412.336l26.477 15.286v30.574l-26.477-15.287zM706.384 412.336v30.573l-26.478 15.287v-30.574z" stroke-width=".99981403"/></g></g><g><path d="M944.68 244.182v30.573l-26.477 15.287v-30.574zM918.203 259.468v30.574l-26.478 15.287v-30.574zM891.725 274.755v30.574l-26.477 15.286v-30.573zM865.248 290.042v30.573l-26.477 15.287v-30.573zM838.77 305.329v30.573l-26.477 15.287v-30.574zM812.293 320.615v30.574l-26.477 15.286v-30.573zM785.816 335.902v30.573l-26.478 15.287V351.19zM759.338 351.189v30.573l-26.477 15.287v-30.574zM732.861 366.475v30.574l-26.477 15.287v-30.574zM415.132 244.182l26.478 15.286v30.574l-26.478-15.287zM441.61 259.468l26.477 15.287v30.574l-26.477-15.287zM468.087 274.755l26.478 15.287v30.573l-26.478-15.286zM494.565 290.042l26.477 15.287v30.573l-26.477-15.287zM521.042 305.329l26.477 15.286v30.574l-26.477-15.287zM547.52 320.615l26.477 15.287v30.573l-26.478-15.286zM573.997 335.902l26.477 15.287v30.573l-26.477-15.287zM600.474 351.189l26.478 15.286v30.574l-26.478-15.287zM626.952 366.475l26.477 15.287v30.574l-26.477-15.287z" fill="#fff" stroke="#000" stroke-width=".99981403" stroke-linejoin="bevel"/><g fill="#fff" stroke="#000" stroke-width="1.423" stroke-linejoin="bevel"><path d="M653.429 381.762l26.477 15.287v30.573l-26.477-15.286zM706.384 381.762v30.574l-26.478 15.286V397.05z" stroke-width=".99981403"/></g></g><g stroke="#000" stroke-width="1.423" stroke-linejoin="bevel"><g fill="#fff"><path d="M653.429 76.642l26.477 15.287v30.573l-26.477-15.286z" stroke-width=".99981403"/><path d="M653.429 76.642l26.477-15.286 26.478 15.286-26.478 15.287zM706.384 76.642v30.574l-26.478 15.286V91.93z" stroke-width=".99981403"/><path d="M679.906 91.929l26.478 15.287v30.573l-26.478-15.287z" stroke-width=".99981403"/><path d="M679.906 91.929l26.478-15.287L732.86 91.93l-26.477 15.287z" stroke-width=".99981403"/><path d="M732.861 91.929v30.573l-26.477 15.287v-30.573z" stroke-width=".99981403"/><path d="M706.384 107.216l26.477 15.286v30.574l-26.477-15.287z" stroke-width=".99981403"/><path d="M706.384 107.216l26.477-15.287 26.477 15.287-26.477 15.286z" stroke-width=".99981403"/><path d="M759.338 107.216v30.573l-26.477 15.287v-30.574z" stroke-width=".99981403"/><path d="M732.861 122.502l26.477 15.287v30.574l-26.477-15.287z" stroke-width=".99981403"/><path d="M732.861 122.502l26.478-15.286 26.477 15.286-26.478 15.287zM785.816 122.502v30.574l-26.478 15.287v-30.574z" stroke-width=".99981403"/><g><path d="M759.339 137.79l26.477 15.286v30.573l-26.477-15.286z" stroke-width=".99981403"/><path d="M759.339 137.79l26.477-15.288 26.477 15.287-26.477 15.287zM812.293 137.79v30.573l-26.477 15.286v-30.573z" stroke-width=".99981403"/></g><g><path d="M785.816 153.076l26.477 15.287v30.573l-26.477-15.287z" stroke-width=".99981403"/><path d="M785.816 153.076l26.477-15.287 26.478 15.287-26.478 15.287z" stroke-width=".99981403"/><path d="M838.77 153.076v30.573l-26.477 15.287v-30.573z" stroke-width=".99981403"/></g><g><path d="M812.293 168.363l26.478 15.286v30.574l-26.478-15.287z" stroke-width=".99981403"/><path d="M812.293 168.363l26.478-15.287 26.477 15.287-26.477 15.286zM865.248 168.363v30.573l-26.477 15.287v-30.574z" stroke-width=".99981403"/></g><g><path d="M838.77 183.65l26.478 15.286v30.573l-26.477-15.286z" stroke-width=".99981403"/><path d="M838.77 183.65l26.478-15.287 26.477 15.286-26.477 15.287zM891.725 183.65v30.573l-26.477 15.286v-30.573z" stroke-width=".99981403"/></g><g><path d="M865.248 198.936l26.477 15.287v30.573l-26.477-15.287z" stroke-width=".99981403"/><path d="M865.248 198.936l26.477-15.287 26.478 15.287-26.478 15.287z" stroke-width=".99981403"/><path d="M918.203 198.936v30.573l-26.478 15.287v-30.573z" stroke-width=".99981403"/></g><g><path d="M891.725 214.223l26.478 15.286v30.574l-26.478-15.287z" stroke-width=".99981403"/><path d="M891.725 214.223l26.478-15.287 26.477 15.287-26.477 15.286z" stroke-width=".99981403"/><path d="M944.68 214.223v30.573l-26.477 15.287v-30.574z" stroke-width=".99981403"/></g></g><g fill="#fff"><path d="M626.952 91.929l26.477 15.287v30.573l-26.477-15.287z" stroke-width=".99981403"/><path d="M626.952 91.929l26.477-15.287 26.477 15.287-26.477 15.287zM679.906 91.929v30.573L653.43 137.79v-30.573z" stroke-width=".99981403"/><path d="M653.429 107.216l26.477 15.286v30.574l-26.477-15.287z" stroke-width=".99981403"/><path d="M653.429 107.216l26.477-15.287 26.478 15.287-26.478 15.286zM706.384 107.216v30.573l-26.478 15.287v-30.574z" stroke-width=".99981403"/><path d="M679.906 122.502l26.478 15.287v30.574l-26.478-15.287z" stroke-width=".99981403"/><path d="M679.906 122.502l26.478-15.286 26.477 15.286-26.477 15.287zM732.861 122.502v30.574l-26.477 15.287v-30.574z" stroke-width=".99981403"/><path d="M706.384 137.79l26.477 15.286v30.573l-26.477-15.286z" stroke-width=".99981403"/><path d="M706.384 137.79l26.477-15.288 26.477 15.287-26.477 15.287zM759.338 137.79v30.573l-26.477 15.286v-30.573z" stroke-width=".99981403"/><g><path d="M732.861 153.076l26.477 15.287v30.573l-26.477-15.287z" stroke-width=".99981403"/><path d="M732.861 153.076l26.477-15.287 26.478 15.287-26.478 15.287zM785.816 153.076v30.573l-26.478 15.287v-30.573z" stroke-width=".99981403"/></g><g><path d="M759.338 168.363l26.478 15.286v30.574l-26.478-15.287z" stroke-width=".99981403"/><path d="M759.338 168.363l26.478-15.287 26.477 15.287-26.477 15.286zM812.293 168.363v30.573l-26.477 15.287v-30.574z" stroke-width=".99981403"/></g><g><path d="M785.816 183.65l26.477 15.286v30.574l-26.477-15.287z" stroke-width=".99981403"/><path d="M785.816 183.65l26.477-15.287 26.478 15.286-26.478 15.287zM838.77 183.65v30.573l-26.477 15.287v-30.574z" stroke-width=".99981403"/></g><g><path d="M812.293 198.936l26.478 15.287v30.573l-26.478-15.286z" stroke-width=".99981403"/><path d="M812.293 198.936l26.478-15.287 26.477 15.287-26.477 15.287zM865.248 198.936v30.574l-26.477 15.286v-30.573z" stroke-width=".99981403"/></g><g><path d="M838.77 214.223l26.478 15.287v30.573l-26.477-15.287z" stroke-width=".99981403"/><path d="M838.77 214.223l26.478-15.287 26.477 15.287-26.477 15.287zM891.725 214.223v30.573l-26.477 15.287V229.51z" stroke-width=".99981403"/></g><g><path d="M865.248 229.51l26.477 15.286v30.574l-26.477-15.287z" stroke-width=".99981403"/><path d="M865.248 229.51l26.477-15.287 26.478 15.286-26.478 15.287z" stroke-width=".99981403"/><path d="M918.203 229.51v30.573l-26.478 15.287v-30.574z" stroke-width=".99981403"/></g></g><g fill="#fff"><path d="M600.474 107.216l26.478 15.286v30.574l-26.478-15.287z" stroke-width=".99981403"/><path d="M600.474 107.216l26.478-15.287 26.477 15.287-26.477 15.286z" stroke-width=".99981403"/><path d="M653.429 107.216v30.573l-26.477 15.287v-30.574z" stroke-width=".99981403"/><path d="M626.952 122.502l26.477 15.287v30.574l-26.477-15.287z" stroke-width=".99981403"/><path d="M626.952 122.502l26.477-15.286 26.477 15.286-26.477 15.287z" stroke-width=".99981403"/><path d="M679.906 122.502v30.574l-26.477 15.287v-30.574z" stroke-width=".99981403"/><path d="M653.429 137.79l26.477 15.286v30.573l-26.477-15.286z" stroke-width=".99981403"/><path d="M653.429 137.79l26.477-15.288 26.478 15.287-26.478 15.287zM706.384 137.79v30.573l-26.478 15.286v-30.573z" stroke-width=".99981403"/><path d="M679.906 153.076l26.478 15.287v30.573l-26.478-15.287z" stroke-width=".99981403"/><path d="M679.906 153.076l26.478-15.287 26.477 15.287-26.477 15.287zM732.861 153.076v30.573l-26.477 15.287v-30.573z" stroke-width=".99981403"/><g><path d="M706.384 168.363l26.477 15.286v30.574l-26.477-15.287z" stroke-width=".99981403"/><path d="M706.384 168.363l26.477-15.287 26.477 15.287-26.477 15.286z" stroke-width=".99981403"/><path d="M759.338 168.363v30.573l-26.477 15.287v-30.574z" stroke-width=".99981403"/></g><g><path d="M732.861 183.65l26.477 15.286v30.574l-26.477-15.287z" stroke-width=".99981403"/><path d="M732.861 183.65l26.477-15.287 26.478 15.286-26.478 15.287zM785.816 183.65v30.573l-26.478 15.287v-30.574z" stroke-width=".99981403"/></g><g><path d="M759.338 198.936l26.478 15.287v30.573l-26.478-15.286z" stroke-width=".99981403"/><path d="M759.338 198.936l26.478-15.287 26.477 15.287-26.477 15.287zM812.293 198.936v30.574l-26.477 15.286v-30.573z" stroke-width=".99981403"/></g><g><path d="M785.816 214.223l26.477 15.287v30.573l-26.477-15.287z" stroke-width=".99981403"/><path d="M785.816 214.223l26.477-15.287 26.478 15.287-26.478 15.287z" stroke-width=".99981403"/><path d="M838.77 214.223v30.573l-26.477 15.287V229.51z" stroke-width=".99981403"/></g><g><path d="M812.293 229.51l26.478 15.286v30.574l-26.478-15.287z" stroke-width=".99981403"/><path d="M812.293 229.51l26.478-15.287 26.477 15.287-26.477 15.286zM865.248 229.51v30.573l-26.477 15.287v-30.574z" stroke-width=".99981403"/></g><g><path d="M838.77 244.796l26.478 15.287v30.573l-26.477-15.286z" stroke-width=".99981403"/><path d="M838.77 244.796l26.478-15.287 26.477 15.287-26.477 15.287zM891.725 244.796v30.574l-26.477 15.286v-30.573z" stroke-width=".99981403"/></g></g><g fill="#fff"><path d="M573.997 122.502l26.477 15.287v30.574l-26.477-15.287z" stroke-width=".99981403"/><path d="M573.997 122.502l26.477-15.286 26.478 15.286-26.478 15.287zM626.952 122.502v30.574l-26.478 15.287v-30.574z" stroke-width=".99981403"/><path d="M600.474 137.79l26.478 15.286v30.573l-26.478-15.286z" stroke-width=".99981403"/><path d="M600.474 137.79l26.478-15.288 26.477 15.287-26.477 15.287zM653.429 137.79v30.573l-26.477 15.286v-30.573z" stroke-width=".99981403"/><path d="M626.952 153.076l26.477 15.287v30.573l-26.477-15.287z" stroke-width=".99981403"/><path d="M626.952 153.076l26.477-15.287 26.477 15.287-26.477 15.287z" stroke-width=".99981403"/><path d="M679.906 153.076v30.573l-26.477 15.287v-30.573z" stroke-width=".99981403"/><path d="M653.429 168.363l26.477 15.286v30.574l-26.477-15.287z" stroke-width=".99981403"/><path d="M653.429 168.363l26.477-15.287 26.478 15.287-26.478 15.286zM706.384 168.363v30.573l-26.478 15.287v-30.574z" stroke-width=".99981403"/><g><path d="M679.906 183.65l26.478 15.286v30.574l-26.478-15.287z" stroke-width=".99981403"/><path d="M679.906 183.65l26.478-15.287 26.477 15.286-26.477 15.287zM732.861 183.65v30.573l-26.477 15.287v-30.574z" stroke-width=".99981403"/></g><g><path d="M706.384 198.936l26.477 15.287v30.573l-26.477-15.286z" stroke-width=".99981403"/><path d="M706.384 198.936l26.477-15.287 26.477 15.287-26.477 15.287z" stroke-width=".99981403"/><path d="M759.338 198.936v30.574l-26.477 15.286v-30.573z" stroke-width=".99981403"/></g><g><path d="M732.861 214.223l26.477 15.287v30.573l-26.477-15.287z" stroke-width=".99981403"/><path d="M732.861 214.223l26.477-15.287 26.478 15.287-26.478 15.287zM785.816 214.223v30.573l-26.478 15.287V229.51z" stroke-width=".99981403"/></g><g><path d="M759.338 229.51l26.478 15.286v30.574l-26.478-15.287z" stroke-width=".99981403"/><path d="M759.338 229.51l26.478-15.287 26.477 15.287-26.477 15.286zM812.293 229.51v30.573l-26.477 15.287v-30.574z" stroke-width=".99981403"/></g><g><path d="M785.816 244.796l26.477 15.287v30.573l-26.477-15.286z" stroke-width=".99981403"/><path d="M785.816 244.796l26.477-15.286 26.478 15.286-26.478 15.287z" stroke-width=".99981403"/><path d="M838.77 244.796v30.574l-26.477 15.286v-30.573z" stroke-width=".99981403"/></g><g><path d="M812.293 260.083l26.478 15.287v30.573l-26.478-15.287z" stroke-width=".99981403"/><path d="M812.293 260.083l26.478-15.287 26.477 15.287-26.477 15.287zM865.248 260.083v30.573l-26.477 15.287V275.37z" stroke-width=".99981403"/></g></g><g fill="#fff"><path d="M547.52 137.79l26.477 15.286v30.573l-26.478-15.286z" stroke-width=".99981403"/><path d="M547.52 137.79l26.477-15.287 26.477 15.286-26.477 15.287zM600.474 137.79v30.573l-26.477 15.286v-30.573z" stroke-width=".99981403"/><path d="M573.997 153.076l26.477 15.287v30.573l-26.477-15.287z" stroke-width=".99981403"/><path d="M573.997 153.076l26.477-15.287 26.478 15.287-26.478 15.287zM626.952 153.076v30.573l-26.478 15.287v-30.573z" stroke-width=".99981403"/><path d="M600.474 168.363l26.478 15.286v30.574l-26.478-15.287z" stroke-width=".99981403"/><path d="M600.474 168.363l26.478-15.287 26.477 15.287-26.477 15.286z" stroke-width=".99981403"/><path d="M653.429 168.363v30.573l-26.477 15.287v-30.574z" stroke-width=".99981403"/><path d="M626.952 183.65l26.477 15.286v30.574l-26.477-15.287z" stroke-width=".99981403"/><path d="M626.952 183.65l26.477-15.287 26.477 15.286-26.477 15.287zM679.906 183.65v30.573L653.43 229.51v-30.574z" stroke-width=".99981403"/><g><path d="M653.429 198.936l26.477 15.287v30.573L653.43 229.51z" stroke-width=".99981403"/><path d="M653.429 198.936l26.477-15.287 26.478 15.287-26.478 15.287zM706.384 198.936v30.574l-26.478 15.286v-30.573z" stroke-width=".99981403"/></g><g><path d="M679.906 214.223l26.478 15.287v30.573l-26.478-15.287z" stroke-width=".99981403"/><path d="M679.906 214.223l26.478-15.287 26.477 15.287-26.477 15.287zM732.861 214.223v30.573l-26.477 15.287V229.51z" stroke-width=".99981403"/></g><g><path d="M706.384 229.51l26.477 15.286v30.574l-26.477-15.287z" stroke-width=".99981403"/><path d="M706.384 229.51l26.477-15.287 26.477 15.287-26.477 15.286z" stroke-width=".99981403"/><path d="M759.338 229.51v30.573l-26.477 15.287v-30.574z" stroke-width=".99981403"/></g><g><path d="M732.861 244.796l26.477 15.287v30.573l-26.477-15.286z" stroke-width=".99981403"/><path d="M732.861 244.796l26.477-15.286 26.478 15.286-26.478 15.287zM785.816 244.796v30.574l-26.478 15.286v-30.573z" stroke-width=".99981403"/></g><g><path d="M759.338 260.083l26.478 15.287v30.573l-26.478-15.287z" stroke-width=".99981403"/><path d="M759.338 260.083l26.478-15.287 26.477 15.287-26.477 15.287zM812.293 260.083v30.573l-26.477 15.287V275.37z" stroke-width=".99981403"/></g><g><path d="M785.816 275.37l26.477 15.286v30.574l-26.477-15.287z" stroke-width=".99981403"/><path d="M785.816 275.37l26.477-15.287 26.478 15.287-26.478 15.286z" stroke-width=".99981403"/><path d="M838.77 275.37v30.573l-26.477 15.287v-30.574z" stroke-width=".99981403"/></g></g><g fill="#fff"><path d="M521.042 153.076l26.477 15.287v30.573l-26.477-15.287z" stroke-width=".99981403"/><path d="M521.042 153.076l26.477-15.287 26.478 15.287-26.478 15.287z" stroke-width=".99981403"/><path d="M573.997 153.076v30.573l-26.478 15.287v-30.573z" stroke-width=".99981403"/><path d="M547.52 168.363l26.477 15.286v30.574l-26.478-15.287z" stroke-width=".99981403"/><path d="M547.52 168.363l26.477-15.287 26.477 15.287-26.477 15.286zM600.474 168.363v30.573l-26.477 15.287v-30.574z" stroke-width=".99981403"/><path d="M573.997 183.65l26.477 15.286v30.574l-26.477-15.287z" stroke-width=".99981403"/><path d="M573.997 183.65l26.477-15.287 26.478 15.286-26.478 15.287zM626.952 183.65v30.573l-26.478 15.287v-30.574z" stroke-width=".99981403"/><path d="M600.474 198.936l26.478 15.287v30.573l-26.478-15.286z" stroke-width=".99981403"/><path d="M600.474 198.936l26.478-15.287 26.477 15.287-26.477 15.287z" stroke-width=".99981403"/><path d="M653.429 198.936v30.574l-26.477 15.286v-30.573z" stroke-width=".99981403"/><g><path d="M626.952 214.223l26.477 15.287v30.573l-26.477-15.287z" stroke-width=".99981403"/><path d="M626.952 214.223l26.477-15.287 26.477 15.287-26.477 15.287z" stroke-width=".99981403"/><path d="M679.906 214.223v30.573l-26.477 15.287V229.51z" stroke-width=".99981403"/></g><g><path d="M653.429 229.51l26.477 15.286v30.574l-26.477-15.287z" stroke-width=".99981403"/><path d="M653.429 229.51l26.477-15.287 26.478 15.287-26.478 15.286zM706.384 229.51v30.573l-26.478 15.287v-30.574z" stroke-width=".99981403"/></g><g><path d="M679.906 244.796l26.478 15.287v30.573l-26.478-15.286z" stroke-width=".99981403"/><path d="M679.906 244.796l26.478-15.286 26.477 15.286-26.477 15.287zM732.861 244.796v30.574l-26.477 15.286v-30.573z" stroke-width=".99981403"/></g><g><path d="M706.384 260.083l26.477 15.287v30.573l-26.477-15.287z" stroke-width=".99981403"/><path d="M706.384 260.083l26.477-15.287 26.477 15.287-26.477 15.287z" stroke-width=".99981403"/><path d="M759.338 260.083v30.573l-26.477 15.287V275.37z" stroke-width=".99981403"/></g><g><path d="M732.861 275.37l26.477 15.286v30.574l-26.477-15.287z" stroke-width=".99981403"/><path d="M732.861 275.37l26.477-15.287 26.478 15.287-26.478 15.286zM785.816 275.37v30.573l-26.478 15.287v-30.574z" stroke-width=".99981403"/></g><g><path d="M759.338 290.656l26.478 15.287v30.574l-26.478-15.287z" stroke-width=".99981403"/><path d="M759.338 290.656l26.478-15.286 26.477 15.286-26.477 15.287zM812.293 290.656v30.574l-26.477 15.287v-30.574z" stroke-width=".99981403"/></g></g><g fill="#fff"><path d="M494.565 168.363l26.477 15.286v30.574l-26.477-15.287z" stroke-width=".99981403"/><path d="M494.565 168.363l26.477-15.287 26.477 15.287-26.477 15.286zM547.52 168.363v30.573l-26.478 15.287v-30.574z" stroke-width=".99981403"/><path d="M521.042 183.65l26.477 15.286v30.574l-26.477-15.287z" stroke-width=".99981403"/><path d="M521.042 183.65l26.477-15.287 26.478 15.286-26.478 15.287zM573.997 183.65v30.573l-26.478 15.287v-30.574z" stroke-width=".99981403"/><path d="M547.52 198.936l26.477 15.287v30.573l-26.478-15.286z" stroke-width=".99981403"/><path d="M547.52 198.936l26.477-15.287 26.477 15.287-26.477 15.287zM600.474 198.936v30.574l-26.477 15.286v-30.573z" stroke-width=".99981403"/><path d="M573.997 214.223l26.477 15.287v30.573l-26.477-15.287z" stroke-width=".99981403"/><path d="M573.997 214.223l26.477-15.287 26.478 15.287-26.478 15.287zM626.952 214.223v30.573l-26.478 15.287V229.51z" stroke-width=".99981403"/><g><path d="M600.474 229.51l26.478 15.286v30.574l-26.478-15.287z" stroke-width=".99981403"/><path d="M600.474 229.51l26.478-15.287 26.477 15.287-26.477 15.286z" stroke-width=".99981403"/><path d="M653.429 229.51v30.573l-26.477 15.287v-30.574z" stroke-width=".99981403"/></g><g><path d="M626.952 244.796l26.477 15.287v30.573l-26.477-15.286z" stroke-width=".99981403"/><path d="M626.952 244.796l26.477-15.286 26.477 15.286-26.477 15.287zM679.906 244.796v30.574l-26.477 15.286v-30.573z" stroke-width=".99981403"/></g><g><path d="M653.429 260.083l26.477 15.287v30.573l-26.477-15.287z" stroke-width=".99981403"/><path d="M653.429 260.083l26.477-15.287 26.478 15.287-26.478 15.287zM706.384 260.083v30.573l-26.478 15.287V275.37z" stroke-width=".99981403"/></g><g><path d="M679.906 275.37l26.478 15.286v30.574l-26.478-15.287z" stroke-width=".99981403"/><path d="M679.906 275.37l26.478-15.287 26.477 15.287-26.477 15.286zM732.861 275.37v30.573l-26.477 15.287v-30.574z" stroke-width=".99981403"/></g><g><path d="M706.384 290.656l26.477 15.287v30.574l-26.477-15.287z" stroke-width=".99981403"/><path d="M706.384 290.656l26.477-15.286 26.477 15.286-26.477 15.287z" stroke-width=".99981403"/><path d="M759.338 290.656v30.574l-26.477 15.287v-30.574z" stroke-width=".99981403"/></g><g><path d="M732.861 305.943l26.477 15.287v30.573l-26.477-15.286z" stroke-width=".99981403"/><path d="M732.861 305.943l26.477-15.287 26.478 15.287-26.478 15.287zM785.816 305.943v30.574l-26.478 15.286V321.23z" stroke-width=".99981403"/></g></g><g fill="#fff"><path d="M468.087 183.65l26.478 15.286v30.574l-26.478-15.287zM468.087 183.65l26.478-15.287 26.477 15.286-26.477 15.287zM521.042 183.65v30.573l-26.477 15.287v-30.574z" stroke-width=".99981403"/><path d="M494.565 198.936l26.477 15.287v30.573l-26.477-15.286z" stroke-width=".99981403"/><path d="M494.565 198.936l26.477-15.287 26.477 15.287-26.477 15.287zM547.52 198.936v30.574l-26.478 15.286v-30.573z" stroke-width=".99981403"/><path d="M521.042 214.223l26.477 15.287v30.573l-26.477-15.287z" stroke-width=".99981403"/><path d="M521.042 214.223l26.477-15.287 26.478 15.287-26.478 15.287z" stroke-width=".99981403"/><path d="M573.997 214.223v30.573l-26.478 15.287V229.51z" stroke-width=".99981403"/><path d="M547.52 229.51l26.477 15.286v30.574l-26.478-15.287z" stroke-width=".99981403"/><path d="M547.52 229.51l26.477-15.287 26.477 15.287-26.477 15.286zM600.474 229.51v30.573l-26.477 15.287v-30.574z" stroke-width=".99981403"/><g><path d="M573.997 244.796l26.477 15.287v30.573l-26.477-15.286z" stroke-width=".99981403"/><path d="M573.997 244.796l26.477-15.286 26.478 15.286-26.478 15.287zM626.952 244.796v30.574l-26.478 15.286v-30.573z" stroke-width=".99981403"/></g><g><path d="M600.474 260.083l26.478 15.287v30.573l-26.478-15.287z" stroke-width=".99981403"/><path d="M600.474 260.083l26.478-15.287 26.477 15.287-26.477 15.287z" stroke-width=".99981403"/><path d="M653.429 260.083v30.573l-26.477 15.287V275.37z" stroke-width=".99981403"/></g><g><path d="M626.952 275.37l26.477 15.286v30.574l-26.477-15.287z" stroke-width=".99981403"/><path d="M626.952 275.37l26.477-15.287 26.477 15.287-26.477 15.286zM679.906 275.37v30.573L653.43 321.23v-30.574z" stroke-width=".99981403"/></g><g><path d="M653.429 290.656l26.477 15.287v30.574L653.43 321.23z" stroke-width=".99981403"/><path d="M653.429 290.656l26.477-15.286 26.478 15.286-26.478 15.287zM706.384 290.656v30.574l-26.478 15.287v-30.574z" stroke-width=".99981403"/></g><g><path d="M679.906 305.943l26.478 15.287v30.573l-26.478-15.286z" stroke-width=".99981403"/><path d="M679.906 305.943l26.478-15.287 26.477 15.287-26.477 15.287zM732.861 305.943v30.574l-26.477 15.286V321.23z" stroke-width=".99981403"/></g><g><path d="M706.384 321.23l26.477 15.287v30.573l-26.477-15.287z" stroke-width=".99981403"/><path d="M706.384 321.23l26.477-15.287 26.477 15.287-26.477 15.287z" stroke-width=".99981403"/><path d="M759.338 321.23v30.573l-26.477 15.287v-30.573z" stroke-width=".99981403"/></g></g><g fill="#fff"><path d="M441.61 198.936l26.477 15.287v30.573L441.61 229.51z" stroke-width=".99981403"/><path d="M441.61 198.936l26.477-15.287 26.478 15.287-26.478 15.287z" stroke-width=".99981403"/><path d="M494.565 198.936v30.574l-26.478 15.286v-30.573z" stroke-width=".99981403"/><path d="M468.087 214.223l26.478 15.287v30.573l-26.478-15.287zM468.087 214.223l26.478-15.287 26.477 15.287-26.477 15.287z" stroke-width=".99981403"/><path d="M521.042 214.223v30.573l-26.477 15.287V229.51z" stroke-width=".99981403"/><path d="M494.565 229.51l26.477 15.286v30.574l-26.477-15.287z" stroke-width=".99981403"/><path d="M494.565 229.51l26.477-15.287 26.477 15.287-26.477 15.286z" stroke-width=".99981403"/><path d="M547.52 229.51v30.573l-26.478 15.287v-30.574z" stroke-width=".99981403"/><path d="M521.042 244.796l26.477 15.287v30.573l-26.477-15.286z" stroke-width=".99981403"/><path d="M521.042 244.796l26.477-15.286 26.478 15.286-26.478 15.287zM573.997 244.796v30.574l-26.478 15.286v-30.573z" stroke-width=".99981403"/><g><path d="M547.52 260.083l26.477 15.287v30.573l-26.478-15.287z" stroke-width=".99981403"/><path d="M547.52 260.083l26.477-15.287 26.477 15.287-26.477 15.287zM600.474 260.083v30.573l-26.477 15.287V275.37z" stroke-width=".99981403"/></g><g><path d="M573.997 275.37l26.477 15.286v30.574l-26.477-15.287z" stroke-width=".99981403"/><path d="M573.997 275.37l26.477-15.287 26.478 15.287-26.478 15.286zM626.952 275.37v30.573l-26.478 15.287v-30.574z" stroke-width=".99981403"/></g><g><path d="M600.474 290.656l26.478 15.287v30.574l-26.478-15.287z" stroke-width=".99981403"/><path d="M600.474 290.656l26.478-15.286 26.477 15.286-26.477 15.287z" stroke-width=".99981403"/><path d="M653.429 290.656v30.574l-26.477 15.287v-30.574z" stroke-width=".99981403"/></g><g><path d="M626.952 305.943l26.477 15.287v30.573l-26.477-15.286z" stroke-width=".99981403"/><path d="M626.952 305.943l26.477-15.287 26.477 15.287-26.477 15.287zM679.906 305.943v30.574l-26.477 15.286V321.23z" stroke-width=".99981403"/></g><g><path d="M653.429 321.23l26.477 15.287v30.573l-26.477-15.287z" stroke-width=".99981403"/><path d="M653.429 321.23l26.477-15.287 26.478 15.287-26.478 15.287zM706.384 321.23v30.573l-26.478 15.287v-30.573z" stroke-width=".99981403"/></g><g><path d="M679.906 336.517l26.478 15.286v30.574l-26.478-15.287z" stroke-width=".99981403"/><path d="M679.906 336.517l26.478-15.287 26.477 15.287-26.477 15.286zM732.861 336.517v30.573l-26.477 15.287v-30.574z" stroke-width=".99981403"/></g></g><g fill="#fff"><path d="M415.132 214.223l26.478 15.287v30.573l-26.478-15.287z" stroke-width=".99981403"/><path d="M415.132 214.223l26.478-15.287 26.477 15.287-26.477 15.287z" stroke-width=".99981403"/><path d="M468.087 214.223v30.573l-26.477 15.287V229.51z" stroke-width=".99981403"/></g><g fill="#fff"><path d="M441.61 229.51l26.477 15.286v30.574l-26.477-15.287z" stroke-width=".99981403"/><path d="M441.61 229.51l26.477-15.287 26.478 15.287-26.478 15.286z" stroke-width=".99981403"/><path d="M494.565 229.51v30.573l-26.478 15.287v-30.574z" stroke-width=".99981403"/></g><g fill="#fff"><path d="M468.087 244.796l26.478 15.287v30.573l-26.478-15.286zM468.087 244.796l26.478-15.286 26.477 15.286-26.477 15.287zM521.042 244.796v30.574l-26.477 15.286v-30.573z" stroke-width=".99981403"/></g><g fill="#fff"><path d="M494.565 260.083l26.477 15.287v30.573l-26.477-15.287z" stroke-width=".99981403"/><path d="M494.565 260.083l26.477-15.287 26.477 15.287-26.477 15.287zM547.52 260.083v30.573l-26.478 15.287V275.37z" stroke-width=".99981403"/></g><g fill="#fff"><path d="M521.042 275.37l26.477 15.286v30.574l-26.477-15.287z" stroke-width=".99981403"/><path d="M521.042 275.37l26.477-15.287 26.478 15.287-26.478 15.286z" stroke-width=".99981403"/><path d="M573.997 275.37v30.573l-26.478 15.287v-30.574z" stroke-width=".99981403"/></g><g fill="#fff"><path d="M547.52 290.656l26.477 15.287v30.574l-26.478-15.287z" stroke-width=".99981403"/><path d="M547.52 290.656l26.477-15.286 26.477 15.286-26.477 15.287zM600.474 290.656v30.574l-26.477 15.287v-30.574z" stroke-width=".99981403"/></g><g fill="#fff"><path d="M573.997 305.943l26.477 15.287v30.573l-26.477-15.286z" stroke-width=".99981403"/><path d="M573.997 305.943l26.477-15.287 26.478 15.287-26.478 15.287zM626.952 305.943v30.574l-26.478 15.286V321.23z" stroke-width=".99981403"/></g><g fill="#fff"><path d="M600.474 321.23l26.478 15.287v30.573l-26.478-15.287z" stroke-width=".99981403"/><path d="M600.474 321.23l26.478-15.287 26.477 15.287-26.477 15.287z" stroke-width=".99981403"/><path d="M653.429 321.23v30.573l-26.477 15.287v-30.573z" stroke-width=".99981403"/></g><g fill="#fff"><path d="M626.952 336.517l26.477 15.286v30.574l-26.477-15.287z" stroke-width=".99981403"/><path d="M626.952 336.517l26.477-15.287 26.477 15.287-26.477 15.286z" stroke-width=".99981403"/><path d="M679.906 336.517v30.573l-26.477 15.287v-30.574z" stroke-width=".99981403"/></g><g fill="#ccc"><path d="M653.429 351.803l26.477 15.287v30.573l-26.477-15.286z" stroke-width=".99981403"/><path d="M653.429 351.803l26.477-15.286 26.478 15.286-26.478 15.287zM706.384 351.803v30.574l-26.478 15.286V367.09z" stroke-width=".99981403"/></g></g></svg>