<svg xmlns:ns0="http://www.iki.fi/pav/software/textext/" xmlns="http://www.w3.org/2000/svg" xmlns:xlink="http://www.w3.org/1999/xlink" width="1052.362" height="744.094"><title>a-t-Diagramm: Konstante Beschleunigung</title><defs><marker id="a" orient="auto" overflow="visible"><path d="M2.308 0l-3.46 2v-4l3.46 2z" fill-rule="evenodd" stroke="#000" stroke-width=".4pt"/></marker></defs><path fill="#fff" stroke="#fff" stroke-width="6" stroke-linecap="round" stroke-linejoin="round" d="M21.332 139.712h1026.315v464.67H21.332z"/><path style="marker:none" color="#000" fill="#fff" stroke="#fff" stroke-linecap="round" overflow="visible" d="M732.726 168.254h290.071V575.84H732.726z"/><path d="M815.252 490.506h175.193" fill="none" stroke="#d40000" stroke-width="6" stroke-linecap="round" stroke-linejoin="bevel"/><path d="M815.252 870.701V495.22" fill="none" stroke="#000" stroke-width="3" stroke-linecap="round" marker-end="url(#a)" transform="translate(0 -308.268)"/><path d="M815.252 686.763h184.17" fill="none" stroke="#000" stroke-width="3" marker-end="url(#a)" transform="translate(0 -308.268)"/><path d="M824.24 378.495h-17.975" fill="none" stroke="#000" stroke-width="3" stroke-linecap="round"/><path d="M815.252 369.508v17.974" fill="none" stroke="#000" stroke-width="3"/><use y="134.765" x="223.432" xlink:href="#b" width="744.094" height="1052.362" transform="matrix(2.11144 0 0 2.11144 524.062 115.284)" ns0:preamble="/home/waldgeist/data/sphinx/test.tex" ns0:text="$t$\n"/><use transform="matrix(2.1226 0 0 2.1226 318.56 -90.51)" height="1052.362" width="744.094" xlink:href="#textext-395ae106-0" x="223.432" y="134.765" ns0:text="$v$\n" ns0:preamble="/home/waldgeist/data/sphinx/test.tex"/><path d="M824.912 490.506h-17.974" fill="none" stroke="#000" stroke-width="3" stroke-linecap="round"/><path d="M112.469 682.928h184.17" fill="none" stroke="#000" stroke-width="3" stroke-linecap="round" marker-end="url(#a)" transform="translate(0 -308.268)"/><path d="M111.796 262.65h175.192" fill="#d40000" stroke="#d40000" stroke-width="6" stroke-linecap="round" stroke-linejoin="bevel"/><path d="M112.469 682.928v-187.71" fill="none" stroke="#000" stroke-width="3" marker-end="url(#a)" transform="translate(0 -308.268)"/><path d="M121.456 374.66H103.48M112.469 365.673v196.76" fill="none" stroke="#000" stroke-width="3" stroke-linecap="round"/><g transform="matrix(2.11144 0 0 2.11144 -178.722 111.45)" ns0:preamble="/home/waldgeist/data/sphinx/test.tex" ns0:text="$t$\n"><defs><symbol id="b" overflow="visible"><path d="M2.047-3.984h.937c.204 0 .313 0 .313-.204 0-.109-.11-.109-.281-.109H2.14c.359-1.422.406-1.61.406-1.672 0-.172-.125-.265-.297-.265-.031 0-.313 0-.39.359l-.391 1.578H.53c-.203 0-.297 0-.297.188 0 .125.078.125.282.125h.875C.67-1.156.625-.984.625-.813c0 .547.375.922.922.922 1.016 0 1.578-1.453 1.578-1.53 0-.11-.078-.11-.11-.11-.093 0-.109.031-.156.14C2.438-.344 1.906-.109 1.563-.109c-.204 0-.313-.125-.313-.454 0-.25.031-.312.063-.484zm0 0"/></symbol></defs><use y="134.765" x="223.432" xlink:href="#b" width="744.094" height="1052.362"/></g><path d="M121.456 262.65H103.48" fill="none" stroke="#000" stroke-width="3" stroke-linecap="round"/><path d="M463.256 682.928h184.17" fill="none" stroke="#000" stroke-width="3" marker-end="url(#a)" transform="translate(0 -308.268)"/><path d="M463.256 374.782h175.192" fill="none" stroke="#d40000" stroke-width="6" stroke-linecap="round" stroke-linejoin="bevel"/><path d="M463.256 870.701V495.22" fill="none" stroke="#000" stroke-width="3" stroke-linecap="round" marker-end="url(#a)" transform="translate(0 -308.268)"/><path d="M472.243 374.66h-17.974" fill="none" stroke="#000" stroke-width="3" stroke-linecap="round"/><path d="M463.256 365.673v17.974" fill="none" stroke="#000" stroke-width="3"/><use height="1052.362" width="744.094" xlink:href="#b" x="223.432" y="134.765" transform="matrix(2.11144 0 0 2.11144 172.065 111.45)" ns0:text="$t$\n" ns0:preamble="/home/waldgeist/data/sphinx/test.tex"/><use transform="matrix(2.1226 0 0 2.1226 -33.437 -94.345)" y="134.765" x="223.432" xlink:href="#textext-395ae106-0" width="744.094" height="1052.362" ns0:preamble="/home/waldgeist/data/sphinx/test.tex" ns0:text="$v$\n"/><path d="M350.787 530.619V213.476M701.575 530.619V213.476" fill="#4d4d4d" stroke="#4d4d4d" stroke-linecap="round"/><g ns0:text="$a &gt; 0$\n" ns0:preamble="/home/waldgeist/data/sphinx/test.tex" transform="matrix(2.1226 0 0 2.1226 -233.36 -35.469)" fill="#d40000"><defs><symbol overflow="visible" id="c"><path d="M3.719-3.766c-.188-.375-.469-.64-.922-.64-1.156 0-2.39 1.468-2.39 2.922C.406-.547.952.109 1.718.109c.203 0 .703-.046 1.297-.75a.91.91 0 0 0 .906.75c.36 0 .578-.234.75-.546a6.49 6.49 0 0 0 .297-.985c0-.11-.094-.11-.125-.11-.094 0-.11.048-.14.188-.173.64-.345 1.235-.75 1.235-.282 0-.298-.266-.298-.454 0-.218.016-.312.125-.75.11-.406.125-.515.219-.89l.36-1.39c.062-.282.062-.298.062-.345 0-.171-.11-.265-.281-.265-.25 0-.391.219-.422.437zm-.64 2.579c-.063.187-.063.203-.204.375-.438.546-.844.703-1.125.703-.5 0-.64-.547-.64-.938 0-.5.312-1.719.546-2.187.313-.579.75-.954 1.157-.954.64 0 .78.813.78.875a.562.562 0 0 1-.03.172zm0 0"/></symbol><symbol overflow="visible" id="d"><path d="M6.734-2.266c.11-.062.188-.109.188-.234 0-.11-.078-.156-.188-.219l-5.53-2.594c-.126-.078-.141-.078-.173-.078a.207.207 0 0 0-.203.204c0 .093.047.156.188.218L6.25-2.5 1.016-.016C.875.047.828.11.828.204c0 .109.094.202.203.202.032 0 .047 0 .172-.078zm0 0"/></symbol><symbol overflow="visible" id="e"><path d="M4.578-3.188c0-.796-.047-1.593-.39-2.328C3.733-6.484 2.905-6.64 2.5-6.64c-.61 0-1.328.266-1.75 1.188-.313.687-.36 1.469-.36 2.266 0 .75.032 1.64.454 2.406a1.83 1.83 0 0 0 1.64 1c.532 0 1.297-.203 1.735-1.157.312-.687.36-1.468.36-2.25zM2.484 0c-.39 0-.984-.25-1.156-1.203-.11-.594-.11-1.516-.11-2.11 0-.64 0-1.296.079-1.828.187-1.187.937-1.28 1.187-1.28.329 0 .985.187 1.172 1.171.11.563.11 1.313.11 1.938 0 .75 0 1.421-.11 2.062C3.5-.297 2.937 0 2.484 0zm0 0"/></symbol></defs><use xlink:href="#c" x="223.432" y="134.765" width="1052.362" height="744.094"/><use xlink:href="#d" x="231.468" y="134.765" width="1052.362" height="744.094"/><use xlink:href="#e" x="241.982" y="134.765" width="1052.362" height="744.094"/></g><g transform="matrix(2.1226 0 0 2.1226 118.095 76.386)" ns0:preamble="/home/waldgeist/data/sphinx/test.tex" ns0:text="$a =0$\n" fill="#d40000" stroke="#d40000"><defs><symbol id="f" overflow="visible"><path d="M3.719-3.766c-.188-.375-.469-.64-.922-.64-1.156 0-2.39 1.468-2.39 2.922C.406-.547.952.109 1.718.109c.203 0 .703-.046 1.297-.75a.91.91 0 0 0 .906.75c.36 0 .578-.234.75-.546a6.49 6.49 0 0 0 .297-.985c0-.11-.094-.11-.125-.11-.094 0-.11.048-.14.188-.173.64-.345 1.235-.75 1.235-.282 0-.298-.266-.298-.454 0-.218.016-.312.125-.75.11-.406.125-.515.219-.89l.36-1.39c.062-.282.062-.298.062-.345 0-.171-.11-.265-.281-.265-.25 0-.391.219-.422.437zm-.64 2.579c-.063.187-.063.203-.204.375-.438.546-.844.703-1.125.703-.5 0-.64-.547-.64-.938 0-.5.312-1.719.546-2.187.313-.579.75-.954 1.157-.954.64 0 .78.813.78.875a.562.562 0 0 1-.03.172zm0 0" stroke="none"/></symbol><symbol id="g" overflow="visible"><path d="M6.844-3.266c.156 0 .343 0 .343-.187 0-.203-.187-.203-.328-.203H.891c-.141 0-.329 0-.329.203 0 .187.188.187.329.187zm.015 1.938c.141 0 .329 0 .329-.203 0-.188-.188-.188-.344-.188H.89c-.141 0-.329 0-.329.188 0 .203.188.203.329.203zm0 0" stroke="none"/></symbol><symbol id="h" overflow="visible"><path d="M4.578-3.188c0-.796-.047-1.593-.39-2.328C3.733-6.484 2.905-6.64 2.5-6.64c-.61 0-1.328.266-1.75 1.188-.313.687-.36 1.469-.36 2.266 0 .75.032 1.64.454 2.406a1.83 1.83 0 0 0 1.64 1c.532 0 1.297-.203 1.735-1.157.312-.687.36-1.468.36-2.25zM2.484 0c-.39 0-.984-.25-1.156-1.203-.11-.594-.11-1.516-.11-2.11 0-.64 0-1.296.079-1.828.187-1.187.937-1.28 1.187-1.28.329 0 .985.187 1.172 1.171.11.563.11 1.313.11 1.938 0 .75 0 1.421-.11 2.062C3.5-.297 2.937 0 2.484 0zm0 0" stroke="none"/></symbol></defs><use y="134.765" x="223.432" xlink:href="#f" width="1052.362" height="744.094"/><use y="134.765" x="231.466" xlink:href="#g" width="1052.362" height="744.094"/><use y="134.765" x="241.985" xlink:href="#h" width="1052.362" height="744.094"/></g><g ns0:text="$a &lt; 0$\n" ns0:preamble="/home/waldgeist/data/sphinx/test.tex" transform="matrix(2.1226 0 0 2.1226 470.097 191.76)" fill="#d40000" stroke="#d40000"><defs><symbol overflow="visible" id="i"><path d="M3.719-3.766c-.188-.375-.469-.64-.922-.64-1.156 0-2.39 1.468-2.39 2.922C.406-.547.952.109 1.718.109c.203 0 .703-.046 1.297-.75a.91.91 0 0 0 .906.75c.36 0 .578-.234.75-.546a6.49 6.49 0 0 0 .297-.985c0-.11-.094-.11-.125-.11-.094 0-.11.048-.14.188-.173.64-.345 1.235-.75 1.235-.282 0-.298-.266-.298-.454 0-.218.016-.312.125-.75.11-.406.125-.515.219-.89l.36-1.39c.062-.282.062-.298.062-.345 0-.171-.11-.265-.281-.265-.25 0-.391.219-.422.437zm-.64 2.579c-.063.187-.063.203-.204.375-.438.546-.844.703-1.125.703-.5 0-.64-.547-.64-.938 0-.5.312-1.719.546-2.187.313-.579.75-.954 1.157-.954.64 0 .78.813.78.875a.562.562 0 0 1-.03.172zm0 0" stroke="none"/></symbol><symbol overflow="visible" id="j"><path d="M6.734-4.969c.11-.062.188-.11.188-.218a.207.207 0 0 0-.203-.204c-.032 0-.047 0-.172.079L1.016-2.72c-.11.063-.188.11-.188.219 0 .125.078.172.188.234L6.546.328c.126.078.141.078.173.078.11 0 .203-.094.203-.203 0-.11-.078-.156-.188-.219L1.5-2.5zm0 0" stroke="none"/></symbol><symbol overflow="visible" id="k"><path d="M4.578-3.188c0-.796-.047-1.593-.39-2.328C3.733-6.484 2.905-6.64 2.5-6.64c-.61 0-1.328.266-1.75 1.188-.313.687-.36 1.469-.36 2.266 0 .75.032 1.64.454 2.406a1.83 1.83 0 0 0 1.64 1c.532 0 1.297-.203 1.735-1.157.312-.687.36-1.468.36-2.25zM2.484 0c-.39 0-.984-.25-1.156-1.203-.11-.594-.11-1.516-.11-2.11 0-.64 0-1.296.079-1.828.187-1.187.937-1.28 1.187-1.28.329 0 .985.187 1.172 1.171.11.563.11 1.313.11 1.938 0 .75 0 1.421-.11 2.062C3.5-.297 2.937 0 2.484 0zm0 0" stroke="none"/></symbol></defs><use xlink:href="#i" x="223.432" y="134.765" width="1052.362" height="744.094"/><use xlink:href="#j" x="231.468" y="134.765" width="1052.362" height="744.094"/><use xlink:href="#k" x="241.982" y="134.765" width="1052.362" height="744.094"/></g><g transform="matrix(2.1226 0 0 2.1226 -386.225 -94.344)" ns0:text="$a$\n"><defs><symbol id="l" overflow="visible"><path d="M3.719-3.766c-.188-.375-.469-.64-.922-.64-1.156 0-2.39 1.468-2.39 2.922C.406-.547.952.109 1.718.109c.203 0 .703-.046 1.297-.75a.91.91 0 0 0 .906.75c.36 0 .578-.234.75-.546a6.49 6.49 0 0 0 .297-.985c0-.11-.094-.11-.125-.11-.094 0-.11.048-.14.188-.173.64-.345 1.235-.75 1.235-.282 0-.298-.266-.298-.454 0-.218.016-.312.125-.75.11-.406.125-.515.219-.89l.36-1.39c.062-.282.062-.298.062-.345 0-.171-.11-.265-.281-.265-.25 0-.391.219-.422.437zm-.64 2.579c-.063.187-.063.203-.204.375-.438.546-.844.703-1.125.703-.5 0-.64-.547-.64-.938 0-.5.312-1.719.546-2.187.313-.579.75-.954 1.157-.954.64 0 .78.813.78.875a.562.562 0 0 1-.03.172zm0 0"/></symbol></defs><use y="134.765" x="223.432" xlink:href="#l" width="1052.362" height="744.094"/></g><use height="744.094" width="1052.362" xlink:href="#l" x="223.432" y="134.765" transform="matrix(2.1226 0 0 2.1226 -36.972 -94.344)" ns0:text="$a$\n"/><use y="134.765" x="223.432" xlink:href="#l" width="1052.362" height="744.094" transform="matrix(2.1226 0 0 2.1226 317.028 -94.344)" ns0:text="$a$\n"/></svg>