<svg xmlns:ns0="http://www.iki.fi/pav/software/textext/" xmlns="http://www.w3.org/2000/svg" xmlns:xlink="http://www.w3.org/1999/xlink" width="1052.362" height="744.094"><title>s-t-Diagramm: Freier Fall</title><defs><marker orient="auto" id="b" overflow="visible"><path d="M2.308 0l-3.46 2v-4l3.46 2z" fill-rule="evenodd" stroke="#000" stroke-width=".4pt"/></marker></defs><g transform="translate(0 -308.268)"><use y="134.765" x="223.432" xlink:href="#a" width="744.094" height="1052.362" transform="matrix(2.1226 0 0 2.1226 318.56 217.758)" ns0:preamble="/home/waldgeist/data/sphinx/test.tex" ns0:text="$v$\n"/><use height="1052.362" width="744.094" xlink:href="#a" x="223.432" y="134.765" transform="matrix(2.1226 0 0 2.1226 -33.437 213.923)" ns0:text="$v$\n" ns0:preamble="/home/waldgeist/data/sphinx/test.tex"/><use transform="translate(-1422.057 646.215) scale(4.62289)" height="1052.362" width="744.094" xlink:href="#textext-082fa4b4-3" x="231.736" y="134.765" fill="green"/><use transform="translate(-1422.057 646.215) scale(4.62289)" height="1052.362" width="744.094" xlink:href="#textext-082fa4b4-3" x="231.736" y="134.765" fill="green"/><g ns0:text="$\\Delta \\vec{r} = \\vec{r}_{\\rm{2}} - \\vec{r}_{\\rm{1}} $" ns0:preamble="/home/waldgeist/data/sphinx/test.tex" fill="green"><use height="1052.362" width="744.094" xlink:href="#textext-082fa4b4-0" x="223.432" y="134.765" transform="translate(-1422.057 646.215) scale(4.62289)"/><use height="1052.362" width="744.094" xlink:href="#textext-082fa4b4-2" x="231.417" y="134.765" transform="translate(-1422.057 646.215) scale(4.62289)"/><use height="1052.362" width="744.094" xlink:href="#textext-082fa4b4-3" x="231.736" y="134.765" transform="translate(-1422.057 646.215) scale(4.62289)"/><use height="1052.362" width="744.094" xlink:href="#textext-082fa4b4-1" x="239.273" y="134.765" transform="translate(-1422.057 646.215) scale(4.62289)"/><use height="1052.362" width="744.094" xlink:href="#textext-082fa4b4-2" x="249.472" y="134.765" transform="translate(-1422.057 646.215) scale(4.62289)"/><use height="1052.362" width="744.094" xlink:href="#textext-082fa4b4-3" x="249.791" y="134.765" transform="translate(-1422.057 646.215) scale(4.62289)"/><use height="1052.362" width="744.094" xlink:href="#textext-082fa4b4-4" x="254.284" y="136.259" transform="translate(-1422.057 646.215) scale(4.62289)"/><use height="1052.362" width="744.094" xlink:href="#textext-082fa4b4-6" x="260.967" y="134.765" transform="translate(-1422.057 646.215) scale(4.62289)"/><use height="1052.362" width="744.094" xlink:href="#textext-082fa4b4-2" x="270.612" y="134.765" transform="translate(-1422.057 646.215) scale(4.62289)"/><use height="1052.362" width="744.094" xlink:href="#textext-082fa4b4-3" x="270.931" y="134.765" transform="translate(-1422.057 646.215) scale(4.62289)"/><use height="1052.362" width="744.094" xlink:href="#textext-082fa4b4-5" x="275.425" y="136.259" transform="translate(-1422.057 646.215) scale(4.62289)"/></g><g ns0:text="$\\Delta \\vec{r} = \\vec{r}_{\\rm{2}} - \\vec{r}_{\\rm{1}} $" ns0:preamble="/home/waldgeist/data/sphinx/test.tex" fill="green"><use height="1052.362" width="744.094" xlink:href="#textext-082fa4b4-0" x="223.432" y="134.765" transform="translate(-1422.057 646.215) scale(4.62289)"/><use height="1052.362" width="744.094" xlink:href="#textext-082fa4b4-2" x="231.417" y="134.765" transform="translate(-1422.057 646.215) scale(4.62289)"/><use height="1052.362" width="744.094" xlink:href="#textext-082fa4b4-3" x="231.736" y="134.765" transform="translate(-1422.057 646.215) scale(4.62289)"/><use height="1052.362" width="744.094" xlink:href="#textext-082fa4b4-1" x="239.273" y="134.765" transform="translate(-1422.057 646.215) scale(4.62289)"/><use height="1052.362" width="744.094" xlink:href="#textext-082fa4b4-2" x="249.472" y="134.765" transform="translate(-1422.057 646.215) scale(4.62289)"/><use height="1052.362" width="744.094" xlink:href="#textext-082fa4b4-3" x="249.791" y="134.765" transform="translate(-1422.057 646.215) scale(4.62289)"/><use height="1052.362" width="744.094" xlink:href="#textext-082fa4b4-4" x="254.284" y="136.259" transform="translate(-1422.057 646.215) scale(4.62289)"/><use height="1052.362" width="744.094" xlink:href="#textext-082fa4b4-6" x="260.967" y="134.765" transform="translate(-1422.057 646.215) scale(4.62289)"/><use height="1052.362" width="744.094" xlink:href="#textext-082fa4b4-2" x="270.612" y="134.765" transform="translate(-1422.057 646.215) scale(4.62289)"/><use height="1052.362" width="744.094" xlink:href="#textext-082fa4b4-3" x="270.931" y="134.765" transform="translate(-1422.057 646.215) scale(4.62289)"/><use height="1052.362" width="744.094" xlink:href="#textext-082fa4b4-5" x="275.425" y="136.259" transform="translate(-1422.057 646.215) scale(4.62289)"/></g><g ns0:text="$\\Delta \\vec{r} = \\vec{r}_{\\rm{2}} - \\vec{r}_{\\rm{1}} $" ns0:preamble="/home/waldgeist/data/sphinx/test.tex" fill="green"><use height="1052.362" width="744.094" xlink:href="#textext-082fa4b4-0" x="223.432" y="134.765" transform="translate(-1422.057 646.215) scale(4.62289)"/><use height="1052.362" width="744.094" xlink:href="#textext-082fa4b4-2" x="231.417" y="134.765" transform="translate(-1422.057 646.215) scale(4.62289)"/><use height="1052.362" width="744.094" xlink:href="#textext-082fa4b4-3" x="231.736" y="134.765" transform="translate(-1422.057 646.215) scale(4.62289)"/><use height="1052.362" width="744.094" xlink:href="#textext-082fa4b4-1" x="239.273" y="134.765" transform="translate(-1422.057 646.215) scale(4.62289)"/><use height="1052.362" width="744.094" xlink:href="#textext-082fa4b4-2" x="249.472" y="134.765" transform="translate(-1422.057 646.215) scale(4.62289)"/><use height="1052.362" width="744.094" xlink:href="#textext-082fa4b4-3" x="249.791" y="134.765" transform="translate(-1422.057 646.215) scale(4.62289)"/><use height="1052.362" width="744.094" xlink:href="#textext-082fa4b4-4" x="254.284" y="136.259" transform="translate(-1422.057 646.215) scale(4.62289)"/><use height="1052.362" width="744.094" xlink:href="#textext-082fa4b4-6" x="260.967" y="134.765" transform="translate(-1422.057 646.215) scale(4.62289)"/><use height="1052.362" width="744.094" xlink:href="#textext-082fa4b4-2" x="270.612" y="134.765" transform="translate(-1422.057 646.215) scale(4.62289)"/><use height="1052.362" width="744.094" xlink:href="#textext-082fa4b4-3" x="270.931" y="134.765" transform="translate(-1422.057 646.215) scale(4.62289)"/><use height="1052.362" width="744.094" xlink:href="#textext-082fa4b4-5" x="275.425" y="136.259" transform="translate(-1422.057 646.215) scale(4.62289)"/></g><path fill="#fff" stroke="#fff" stroke-width="6" stroke-linecap="round" stroke-linejoin="round" d="M14.539 448.99h1026.315v464.67H14.539z"/><path d="M89.745 680.315h184.17" fill="none" stroke="#000" stroke-width="3" stroke-linecap="round" marker-end="url(#b)"/><path d="M98.732 680.315H80.758" fill="none" stroke="#000" stroke-width="3" stroke-linecap="round"/><g fill="none" stroke="#000" stroke-width="3" stroke-linecap="round"><path d="M90.227 683.37V495.66" marker-end="url(#b)" transform="translate(-.482 -3.055)"/><path d="M89.745 671.328v196.76"/></g><g ns0:text="$t$\n" ns0:preamble="/home/waldgeist/data/sphinx/test.tex" transform="matrix(2.11144 0 0 2.11144 -200.964 420.16)"><defs><symbol overflow="visible" id="c"><path d="M2.047-3.984h.937c.204 0 .313 0 .313-.204 0-.109-.11-.109-.281-.109H2.14c.359-1.422.406-1.61.406-1.672 0-.172-.125-.265-.297-.265-.031 0-.313 0-.39.359l-.391 1.578H.53c-.203 0-.297 0-.297.188 0 .125.078.125.282.125h.875C.67-1.156.625-.984.625-.813c0 .547.375.922.922.922 1.016 0 1.578-1.453 1.578-1.53 0-.11-.078-.11-.11-.11-.093 0-.109.031-.156.14C2.438-.344 1.906-.109 1.563-.109c-.204 0-.313-.125-.313-.454 0-.25.031-.312.063-.484zm0 0"/></symbol></defs><use height="1052.362" width="744.094" xlink:href="#c" x="223.432" y="134.765"/></g><g transform="matrix(2.1226 0 0 2.1226 -406.633 213.608)" ns0:preamble="/home/waldgeist/data/sphinx/test.tex" ns0:text="$s$\n"><defs><symbol id="d" overflow="visible"><path d="M3.89-3.734c-.265.015-.468.234-.468.453 0 .14.094.297.312.297.22 0 .454-.172.454-.563 0-.453-.422-.86-1.188-.86-1.313 0-1.688 1.016-1.688 1.454 0 .781.735.922 1.032.984.515.11 1.031.219 1.031.766 0 .25-.219 1.094-1.422 1.094-.14 0-.906 0-1.14-.532.39.047.64-.25.64-.53 0-.22-.172-.345-.375-.345-.266 0-.562.204-.562.657 0 .562.578.968 1.421.968 1.625 0 2.016-1.203 2.016-1.656a.97.97 0 0 0-.312-.719c-.266-.28-.563-.343-1-.421-.36-.079-.75-.157-.75-.61 0-.281.234-.89 1.109-.89.25 0 .75.078.89.453zm0 0"/></symbol></defs><use y="134.765" x="223.432" xlink:href="#d" width="1052.362" height="744.094"/></g><path d="M791.801 680.315h184.17" fill="none" stroke="#000" stroke-width="2.9" stroke-linecap="round" marker-end="url(#b)"/><g fill="none" stroke="#000" stroke-width="3"><path d="M791.801 683.37V495.66" marker-end="url(#b)" transform="translate(0 -3.055)"/><path d="M791.801 671.328v196.76"/></g><use y="134.765" x="223.432" xlink:href="#c" width="744.094" height="1052.362" transform="matrix(2.11144 0 0 2.11144 500.61 420.16)" ns0:preamble="/home/waldgeist/data/sphinx/test.tex" ns0:text="$t$\n"/><path d="M440.532 680.315h184.17" fill="none" stroke="#000" stroke-width="2.9" marker-end="url(#b)"/><path d="M791.32 773.972h175.192" fill="#d40000" stroke="#d40000" stroke-width="6" stroke-linecap="round" stroke-linejoin="bevel"/><path d="M449.52 680.315h-17.975" fill="none" stroke="#000" stroke-width="3"/><g fill="none" stroke="#000" stroke-width="3"><path d="M441.014 683.37V495.66" stroke-linecap="round" marker-end="url(#b)" transform="translate(-.482 -3.055)"/><path d="M440.532 671.328v196.76"/></g><use height="1052.362" width="744.094" xlink:href="#c" x="223.432" y="134.765" transform="matrix(2.11144 0 0 2.11144 149.823 420.16)" ns0:text="$t$\n" ns0:preamble="/home/waldgeist/data/sphinx/test.tex"/><path d="M350.787 838.886V521.744M701.575 838.886V521.744" fill="#4d4d4d" stroke="#4d4d4d"/><path d="M90.227 550.052c35.916.411 67.407 52.705 96.482 133.318" fill="none" stroke="green" stroke-width="6" stroke-linecap="round"/><path d="M564.894 807.25l-123.88-123.88" fill="#00f" stroke="#00f" stroke-width="6" stroke-linecap="round" stroke-linejoin="bevel"/><path d="M800.788 680.315h-17.974" fill="none" stroke="#000" stroke-width="2.9" stroke-linecap="round"/><g ns0:text="$v$\n" ns0:preamble="/home/waldgeist/data/sphinx/test.tex" transform="matrix(2.1226 0 0 2.1226 -55.846 213.608)"><defs><symbol overflow="visible" id="a"><path d="M4.672-3.703c0-.547-.266-.703-.438-.703-.25 0-.5.265-.5.484 0 .125.047.188.157.297.218.203.343.453.343.813 0 .421-.609 2.703-1.765 2.703-.516 0-.75-.344-.75-.875 0-.547.281-1.282.578-2.11.078-.172.125-.312.125-.5 0-.437-.313-.812-.813-.812-.937 0-1.312 1.453-1.312 1.531 0 .11.094.11.11.11.109 0 .109-.032.156-.188.296-1 .718-1.235 1.015-1.235.078 0 .25 0 .25.313 0 .25-.11.531-.172.703-.437 1.156-.562 1.61-.562 2.047 0 1.078.875 1.234 1.328 1.234 1.672 0 2.25-3.296 2.25-3.812zm0 0"/></symbol></defs><use xlink:href="#a" x="223.432" y="134.765"/></g><g transform="matrix(2.1226 0 0 2.1226 294.941 213.608)" ns0:preamble="/home/waldgeist/data/sphinx/test.tex" ns0:text="$a$\n"><defs><symbol id="e" overflow="visible"><path d="M3.719-3.766c-.188-.375-.469-.64-.922-.64-1.156 0-2.39 1.468-2.39 2.922C.406-.547.952.109 1.718.109c.203 0 .703-.046 1.297-.75a.91.91 0 0 0 .906.75c.36 0 .578-.234.75-.546a6.49 6.49 0 0 0 .297-.985c0-.11-.094-.11-.125-.11-.094 0-.11.048-.14.188-.173.64-.345 1.235-.75 1.235-.282 0-.298-.266-.298-.454 0-.218.016-.312.125-.75.11-.406.125-.515.219-.89l.36-1.39c.062-.282.062-.298.062-.345 0-.171-.11-.265-.281-.265-.25 0-.391.219-.422.437zm-.64 2.579c-.063.187-.063.203-.204.375-.438.546-.844.703-1.125.703-.5 0-.64-.547-.64-.938 0-.5.312-1.719.546-2.187.313-.579.75-.954 1.157-.954.64 0 .78.813.78.875a.562.562 0 0 1-.03.172zm0 0"/></symbol></defs><use y="134.765" x="223.432" xlink:href="#e"/></g></g></svg>