<svg xmlns:ns0="http://www.iki.fi/pav/software/textext/" xmlns="http://www.w3.org/2000/svg" xmlns:xlink="http://www.w3.org/1999/xlink" width="1052.362" height="744.094"><title>Geradlinige Bewegung</title><defs><linearGradient id="a"><stop offset="0" stop-color="#8f5902"/><stop offset="1" stop-color="#c17d11"/></linearGradient><marker orient="auto" id="g" overflow="visible"><path d="M2.308 0l-3.46 2v-4l3.46 2z" fill-rule="evenodd" stroke="#000" stroke-width=".4pt"/></marker><linearGradient xlink:href="#a" id="b" gradientUnits="userSpaceOnUse" x1="469.046" y1="232.347" x2="427.438" y2="60.621"/></defs><g transform="translate(0 -308.268)"><rect ry=".867" y="375.636" x="38.293" height="609.358" width="975.777" fill="#fff" stroke="#fff" stroke-width="8" stroke-linecap="round"/><switch transform="matrix(-.93398 0 0 .93398 718.768 696.719)" overflow="visible"><g><g clip-rule="evenodd" stroke-miterlimit="10" fill-rule="evenodd" stroke="#000" stroke-width=".039"><path d="M74.18 4.915l19.116 26.352 21.168 14.76 41.112-1.548 35.389-4.14 44.711 20.16 36.18 9.036 28.908-7.236 23.004-14.976-17.028 20.124-20.16 10.367-28.691.253-14.725-1.837-10.08 23.005 12.385 4.14 1.295 17.063 14.221 4.393-13.176 6.696-16.273-18.864-17.314-4.393 4.139 7.524-24.299 17.568-16.273-1.296-1.043-9.036 9.828.252 18.072-11.628-11.34-8.028-4.141-9.828h-17.568l-35.424 11.124-1.8 10.872 20.16-1.044-6.444 11.88-18.864.504-13.464-22.464-.504 8.28-19.368 8.496-6.984 8.819-24.3 1.801 3.888-10.332 13.428 1.296 10.332-17.316-5.436-5.688-.252-10.08-15.48-18.864-10.369-15.515-6.696 4.932-5.94-6.732V38.503L9.308 28.459.02 14.995l2.052-6.192h27.396L36.2.019l37.98 4.896z"/><path d="M189.668 42.391l43.668 19.116 38.52 9.576 30.996-8.028 12.672-9.036-10.619 12.132-19.621 9.828-28.691-.252-13.176-1.8-5.184-5.939-14.184-8.532-14.473-.252-17.064 10.332-5.688 10.08 1.547 11.376-19.619.756-32.58 11.376 1.836-17.316-18.864-6.191 16.02 8.531-3.132 28.404 17.064.252-2.844 8.028-16.02.252-16.524-25.056L93.8 84.763l19.404 19.404-18.612-8.28-7.236-8.027L62.3 54.559l13.68-13.212-8.784-26.604 4.644 25.848-18.072 17.064-4.14-5.184-.504-13.428 6.948-25.056-8.784 22.212L10.1 27.415 3.116 15.787l5.94-1.044 1.8-4.896H31.52l5.184-7.776 36.432 4.14 18.36 25.848 21.168 15.516 42.372-.792 34.632-4.392z" fill="#804000"/><path d="M38.504 8.047l7.776.756-5.976 1.296-.504 4.896-3.6-1.8 2.304-5.148z"/><path d="M92.252 97.687l20.952 8.532.504 5.94-20.664 7.487-4.932 8.532-20.916 1.8 2.592-6.191 13.428.252 11.628-18.864-6.192-5.939-.288-5.94 3.888 4.391zM241.867 74.179l-4.391-4.896-9.037-4.932-5.184-3.096-11.375-.504-16.525 8.784-5.939 10.584 1.549 13.176 3.096 8.532 12.672 9.828-18.361 13.176-9.539-.252.504 5.147 12.672 1.801 22.465-16.524-4.645-10.584 12.133-10.332 8.279-1.548 11.626-18.36z" fill="#804000"/><path d="M230.492 94.843l-6.695.792-11.125 8.532 1.297 3.348 19.115 4.393 11.377 17.063 10.08-3.384-8.533-3.348-4.645-18.36-10.367-3.6 4.428-11.88-4.932 6.444z" fill="#804000"/></g></g></switch><path d="M71.77 823.05h908.821" fill="none" stroke="#000" stroke-width="9.978" stroke-linecap="round"/><path d="M171.264 440.44c0 20.33 16.48 36.81 36.81 36.81 20.328 0 36.808-16.48 36.808-36.81 0-20.328-16.48-36.808-36.809-36.808-20.329 0-36.809 16.48-36.809 36.809zM248.661 493.603a7.254 7.254 0 0 1 5.78 2.925l38.382 51.011h62.569a7.324 7.324 0 0 1 7.348 7.349v12.984a7.324 7.324 0 0 1-7.348 7.349H283.62c-2.258 0-4.217-1.05-5.565-2.64-.963-.493-1.872-1.143-2.568-2.069l-23.259-30.892v262.332c0 10.221-8.257 18.407-18.478 18.407h-1.141c-10.221 0-18.478-8.186-18.478-18.407v-156.6h-12.2v156.6a18.336 18.336 0 0 1-18.407 18.407h-1.141c-10.221 0-18.478-8.186-18.478-18.407v-179.93c0-.638.009-1.233.07-1.854v-80.905H156.2v100.381c0 7.125-6.175 12.842-13.84 12.842-7.666 0-13.841-5.717-13.841-12.842V513.651h.071c-.005-.192-.071-.378-.071-.57 0-10.773 8.776-19.478 19.548-19.478h100.595z"/><path d="M33.03 10.76c101.832-.921 201.897 11.029 305.541 7.316 52.01.535 112.256-7.756 158.864 4.633 30.459 8.096 197.334-17.421 198.698 3.317-6.907 34.758 26.96 74.484-8.398 72.989-35.331-1.494-78.742 13.044-145.786 11.386-67.077-1.658-94.167-10.747-152.02-8.224-57.907 2.525-92.426-1.687-115.888.101-23.364 1.78-74.674-3.231-133.623-.275-58.949 2.957-74.314-1.425-103.478-6.97-14.583-2.771 7.585-20.069-1.108-45.225-8.144-23.568-21.28-24.797-2.802-39.048z" fill="url(#b)" fill-rule="evenodd" stroke="#2e3436" stroke-width="4.497" transform="matrix(-.16026 .04294 -.02622 -.09785 975.208 562.456)"/><path d="M41.416 33.313c60.61-11.111 45.277 1.01 116.168 1.01 32.325 0 42.426-9.091 42.426-9.091" transform="matrix(-.16026 .04294 -.02622 -.09785 971.53 562.54)" fill="none" stroke="#2e3436" stroke-width="2.248"/><path d="M260.566 70.712c11.112 1.01-13.794 30.957 54.549 12.122 128.289-35.356 116.167-8.081 116.167-8.081" fill="none" stroke="#2e3436" stroke-width="2.248" transform="matrix(-.16026 .04294 -.02622 -.09785 975.208 562.456)"/><path d="M927.762 569.818c1.533-.233 1.873-.484 2.438-.747 1.22-.569.205-.433-.516-1.865-.518-1.032-.95-1.158-1.797-.699-.96.52-2.401 1.112-2.16 1.272.243.16.325 1.6.414 1.884.05.16 1.602.142 1.62.155z" fill="#8f5902" fill-opacity=".75" fill-rule="evenodd"/><path d="M288.229 62.146c10.101 12.122-17.173 13.132-10.102 0 7.071-13.132 20.203-15.152 20.203 0 0 5.05-9.034 32.003-21.213 16.415-17.483-22.377 1.01-30.557 1.01-30.557M308.153 61.422c29.002 2.193 42.719-19.604 61.168-24.894l18.45-5.29M569.956 80.948c27.42 9.701 46.359-7.75 65.55-8.032l19.19-.281M445.857 92.097c32.518-17.076 60.337-4.452 97.084-21.791 16.619-7.842 17.786-14.745 41.985-23.508 18.996-6.879 43.392-2.702 43.392-2.702" fill="none" stroke="#2e3436" stroke-width="2.248" transform="matrix(-.16026 .04294 -.02622 -.09785 975.208 562.456)"/><path d="M105.056 59.577c29.294-7.07 35.355 7.071 58.589 7.071 23.233 0 38.386 5.051 38.386 5.051" transform="matrix(-.16026 .04294 -.02622 -.09785 971.53 562.54)" fill="none" stroke="#2e3436" stroke-width="2.248"/><g transform="matrix(4.73635 0 0 4.73635 -522.07 306.864)" ns0:preamble="/home/waldgeist/data/sphinx/test.tex" ns0:text="$s(t)$"><defs><symbol id="c" overflow="visible"><path d="M3.89-3.734c-.265.015-.468.234-.468.453 0 .14.094.297.312.297.22 0 .454-.172.454-.563 0-.453-.422-.86-1.188-.86-1.313 0-1.688 1.016-1.688 1.454 0 .781.735.922 1.032.984.515.11 1.031.219 1.031.766 0 .25-.219 1.094-1.422 1.094-.14 0-.906 0-1.14-.532.39.047.64-.25.64-.53 0-.22-.172-.345-.375-.345-.266 0-.562.204-.562.657 0 .562.578.968 1.421.968 1.625 0 2.016-1.203 2.016-1.656a.97.97 0 0 0-.312-.719c-.266-.28-.563-.343-1-.421-.36-.079-.75-.157-.75-.61 0-.281.234-.89 1.109-.89.25 0 .75.078.89.453zm0 0"/></symbol><symbol id="e" overflow="visible"><path d="M2.047-3.984h.937c.204 0 .313 0 .313-.204 0-.109-.11-.109-.281-.109H2.14c.359-1.422.406-1.61.406-1.672 0-.172-.125-.265-.297-.265-.031 0-.313 0-.39.359l-.391 1.578H.53c-.203 0-.297 0-.297.188 0 .125.078.125.282.125h.875C.67-1.156.625-.984.625-.813c0 .547.375.922.922.922 1.016 0 1.578-1.453 1.578-1.53 0-.11-.078-.11-.11-.11-.093 0-.109.031-.156.14C2.438-.344 1.906-.109 1.563-.109c-.204 0-.313-.125-.313-.454 0-.25.031-.312.063-.484zm0 0"/></symbol><symbol id="d" overflow="visible"><path d="M3.297 2.39c0-.03 0-.046-.172-.218C1.891.922 1.562-.968 1.562-2.5c0-1.734.375-3.469 1.61-4.703.125-.125.125-.14.125-.172 0-.078-.031-.11-.094-.11-.11 0-1 .688-1.594 1.954C1.11-4.438.984-3.328.984-2.5c0 .781.11 1.984.657 3.125C2.25 1.844 3.094 2.5 3.203 2.5c.063 0 .094-.031.094-.11zm0 0"/></symbol><symbol id="f" overflow="visible"><path d="M2.875-2.5c0-.766-.11-1.969-.656-3.11C1.625-6.827.766-7.483.672-7.483a.107.107 0 0 0-.11.109c0 .031 0 .047.188.234.984.985 1.547 2.563 1.547 4.641 0 1.719-.36 3.469-1.594 4.719-.14.125-.14.14-.14.172 0 .062.046.109.109.109.094 0 1-.688 1.578-1.953.516-1.094.625-2.203.625-3.047zm0 0"/></symbol></defs><use y="134.765" x="223.432" xlink:href="#c" width="1052.362" height="744.094"/><use y="134.765" x="228.102" xlink:href="#d" width="1052.362" height="744.094"/><use y="134.765" x="231.976" xlink:href="#e" width="1052.362" height="744.094"/><use y="134.765" x="235.574" xlink:href="#f" width="1052.362" height="744.094"/></g><g fill="none" stroke="#000" stroke-width="3"><path d="M206.968 951.231h765.68" marker-end="url(#g)" transform="translate(0 -64.48)"/><path d="M208.073 871.505v32.236"/><path d="M572.965 871.505v32.236" stroke-linecap="round"/></g></g></svg>