<svg xmlns="http://www.w3.org/2000/svg" width="210mm" height="297mm"><title>GPS</title><rect width="658.619" height="378.06" x="42.738" y="337.151" ry=".643" fill="#fff" stroke="#fff" stroke-linecap="round"/><rect width="466.429" height="271.429" x="138.833" y="390.467" ry="12.857" fill="#fff" stroke="#4d4d4d" stroke-width="3" stroke-linecap="round"/><path style="text-indent:0;text-align:start;line-height:normal;text-transform:none;block-progression:tb;marker:none;-inkscape-font-specification:Sans" d="M409.42 389.217l-12.294 1.763s23.648 10.457 32.385 12.436c8.738 1.98 19.182 4.811 24.907 7.532 23.767 11.294 56.834 35.203 83.625 56.187 26.79 20.984 68.54 53.884 68.54 53.884l.491-11.996s-35.855-28.6-62.875-49.763c-27.02-21.163-60.047-45.263-85.469-57.344-7.38-3.507-17.979-6.206-27-8.25-9.02-2.044-22.31-4.449-22.31-4.449z" font-weight="400" color="#000" fill="gray" stroke="#000" stroke-opacity=".851" overflow="visible" font-family="Sans"/><path style="text-indent:0;text-align:start;line-height:normal;text-transform:none;block-progression:tb;marker:none;-inkscape-font-specification:Sans" d="M375.088 507.995l3.066 9.547s13.34 9.457 31.625 32.469c18.286 23.012 41.34 59.455 60.157 113.062l5.656-2c-19.042-54.25-42.416-91.275-61.094-114.78-18.678-23.507-39.41-38.298-39.41-38.298zM178.831 361.845c-1.2-1.779-5.028-.154-3.455 1.723l86.9 103.677-23.218 10.712-25.756.651-38.158-11.122 12.678-25.866c.732-1.493-2.02-2.856-2.796-1.094l-.1.23-12.629 25.75c-4.22-1.711-8.455-3.388-12.676-5.099l9.724-19.927c.722-1.479-1.884-2.987-2.695-1.323l-9.8 20.1c-4.178-1.7-8.352-3.417-12.511-5.164l-15.405-10.415c-.768 1.847-7.465 2.782-8.233 4.63 18.551 7.62 27.216 13.749 45.77 21.361 1.99.782 3.99 1.555 6.015 2.237l37.082 10.853c-9.347 13.082-23.24 24.248-31.522 32.752-1.23 1.265 1.105 3.266 1.973 2.268 8.454-9.721 23.072-20.73 32.705-34.28 1.37.102 2.746.04 4.116.036 6.166-.156 12.321-.341 18.487-.504-2.405 4.041-4.69 8.15-6.967 12.264-2.423 4.321-4.858 8.635-7.354 12.913-2.433 4.237-4.964 8.406-7.295 12.7-1.552 2.751-2.948 5.6-4.271 8.466-1.758 3.74-3.577 7.465-5.226 11.255 0 0-4.886 11.872-7.407 17.533-.545 1.264-2.256 3.805-3.633 3.788l-11.355-.141c-1.354-.017-2.147 2.998-.033 3.024l12.322.149c5.555.067 10.467-14.998 13.15-21.34 1.339-3.193 2.626-6.402 4.208-9.485 1.574-3.195 2.951-6.463 4.635-9.602 2.697-4.869 5.426-9.744 8.297-14.513 2.81-4.701 5.585-9.403 8.229-14.2 2.349-4.196 4.662-8.424 7.235-12.488.75-.789 1.913-.878 2.813-1.426 11.367-5.338 22.805-10.54 34.203-15.814l24.982-11.54-2.467-5.49-33.465 15.456-85.499-100.762s-.684-.896-1.598-2.933z" font-weight="400" color="#000" fill="#ccc" stroke="#000" overflow="visible" font-family="Sans"/><path style="text-indent:0;text-align:start;line-height:normal;text-transform:none;block-progression:tb;marker:none;-inkscape-font-specification:Sans" d="M291.195 390.98H275.32s1.765 19.92 5.375 30.312c17.09 49.2 76.788 67.981 87.656 112.719 3.938 16.211 4.144 43.92 3.062 66.969-1.082 23.047-23.25 60.546-23.25 60.546h15.907s22.233-36.153 23.343-59.796c1.11-23.644 1.299-51.619-3.53-71.5-12.41-51.084-72.797-70.24-88.063-114.188-2.121-6.105-4.625-25.062-4.625-25.062z" font-weight="400" color="#000" fill="gray" stroke="#000" overflow="visible" font-family="Sans"/><rect ry="13.12" y="387.689" x="138.833" height="276.984" width="466.429" fill="none" stroke="#4d4d4d" stroke-width="8" stroke-linecap="round"/><path d="M131.266 360.556c-6.49 0-11.719 5.23-11.719 11.719v307.812c0 6.49 5.23 11.72 11.719 11.72h481.562c6.49 0 11.72-5.23 11.72-11.72V372.275c0-6.49-5.23-11.719-11.72-11.719H131.266zm20.437 29.906h440.72c7.122 0 12.843 5.721 12.843 12.844v245.719c0 7.123-5.72 12.875-12.844 12.875H151.703a12.86 12.86 0 0 1-12.875-12.875V403.306c0-7.123 5.753-12.844 12.875-12.844z" fill="#3b3b3b" stroke="#4d4d4d" stroke-width="3" stroke-linecap="round"/><path style="text-indent:0;text-align:start;line-height:normal;text-transform:none;block-progression:tb;marker:none;-inkscape-font-specification:Sans" d="M305.335 445.794l2.232 8.375 5.303 19.755 2.254 8.353 6.121-6.121 3.69-3.69L360.6 508.13c1.841 1.895 5.253 1.919 7.121.05 1.869-1.867 1.844-5.28-.05-7.12l-35.665-35.665 3.69-3.69 6.122-6.122-8.353-2.253-19.777-5.282z" font-weight="400" color="#000" fill="#ff0" stroke="#000" overflow="visible" font-family="Sans"/><path d="M382.223 589.995l7.962 63.182-19.084-21.679-27.367 9.23z" fill="green" stroke="#000" stroke-width="3" stroke-linecap="round"/></svg>