<?xml version="1.0" encoding="UTF-8" standalone="no"?>
<!-- Created with Inkscape (http://www.inkscape.org/) -->

<svg
   xmlns:dc="http://purl.org/dc/elements/1.1/"
   xmlns:cc="http://creativecommons.org/ns#"
   xmlns:rdf="http://www.w3.org/1999/02/22-rdf-syntax-ns#"
   xmlns:svg="http://www.w3.org/2000/svg"
   xmlns="http://www.w3.org/2000/svg"
   xmlns:sodipodi="http://sodipodi.sourceforge.net/DTD/sodipodi-0.dtd"
   xmlns:inkscape="http://www.inkscape.org/namespaces/inkscape"
   width="210mm"
   height="297mm"
   id="svg2"
   version="1.1"
   inkscape:version="0.48.3.1 r9886"
   sodipodi:docname="gps.svg">
  <title
     id="title3008">GPS</title>
  <defs
     id="defs4">
    <inkscape:path-effect
       effect="spiro"
       id="path-effect4024"
       is_visible="true" />
    <inkscape:path-effect
       effect="spiro"
       id="path-effect4014"
       is_visible="true" />
    <inkscape:path-effect
       effect="spiro"
       id="path-effect4010"
       is_visible="true" />
    <inkscape:path-effect
       effect="spiro"
       id="path-effect4006"
       is_visible="true" />
    <inkscape:path-effect
       effect="spiro"
       id="path-effect4002"
       is_visible="true" />
    <inkscape:path-effect
       effect="spiro"
       id="path-effect3998"
       is_visible="true" />
    <inkscape:path-effect
       effect="spiro"
       id="path-effect3994"
       is_visible="true" />
    <inkscape:path-effect
       effect="spiro"
       id="path-effect3990"
       is_visible="true" />
    <inkscape:path-effect
       effect="spiro"
       id="path-effect3986"
       is_visible="true" />
    <inkscape:path-effect
       effect="spiro"
       id="path-effect3982"
       is_visible="true" />
    <inkscape:path-effect
       effect="spiro"
       id="path-effect3197"
       is_visible="true" />
    <inkscape:path-effect
       effect="spiro"
       id="path-effect3193"
       is_visible="true" />
    <inkscape:path-effect
       effect="spiro"
       id="path-effect3183"
       is_visible="true" />
    <inkscape:path-effect
       effect="spiro"
       id="path-effect3175"
       is_visible="true" />
  </defs>
  <sodipodi:namedview
     id="base"
     pagecolor="#ffffff"
     bordercolor="#666666"
     borderopacity="1.0"
     inkscape:pageopacity="0.0"
     inkscape:pageshadow="2"
     inkscape:zoom="0.49497475"
     inkscape:cx="646.20034"
     inkscape:cy="279.48022"
     inkscape:document-units="px"
     inkscape:current-layer="layer1"
     showgrid="false"
     inkscape:window-width="1280"
     inkscape:window-height="974"
     inkscape:window-x="0"
     inkscape:window-y="0"
     inkscape:window-maximized="1"
     inkscape:object-nodes="true" />
  <metadata
     id="metadata7">
    <rdf:RDF>
      <cc:Work
         rdf:about="">
        <dc:format>image/svg+xml</dc:format>
        <dc:type
           rdf:resource="http://purl.org/dc/dcmitype/StillImage" />
        <dc:title>GPS</dc:title>
        <dc:date>2012-06-15</dc:date>
        <dc:creator>
          <cc:Agent>
            <dc:title>Bernhard Grotz</dc:title>
          </cc:Agent>
        </dc:creator>
        <dc:rights>
          <cc:Agent>
            <dc:title>Bernhard Grotz</dc:title>
          </cc:Agent>
        </dc:rights>
        <dc:publisher>
          <cc:Agent>
            <dc:title>Bernhard Grotz</dc:title>
          </cc:Agent>
        </dc:publisher>
        <dc:language>de-DE</dc:language>
        <dc:subject>
          <rdf:Bag>
            <rdf:li>Physik</rdf:li>
            <rdf:li>Mechanik</rdf:li>
            <rdf:li>Kinematik</rdf:li>
            <rdf:li>Raumkurve</rdf:li>
            <rdf:li>Massenpunkt</rdf:li>
            <rdf:li>GPS</rdf:li>
          </rdf:Bag>
        </dc:subject>
      </cc:Work>
    </rdf:RDF>
  </metadata>
  <g
     inkscape:label="Ebene 1"
     inkscape:groupmode="layer"
     id="layer1">
    <rect
       style="fill:#ffffff;fill-opacity:1;fill-rule:nonzero;stroke:#ffffff;stroke-width:0.99999994;stroke-linecap:round;stroke-linejoin:miter;stroke-miterlimit:4;stroke-opacity:1;stroke-dasharray:none;stroke-dashoffset:0"
       id="rect4090"
       width="658.61945"
       height="378.05957"
       x="42.737518"
       y="337.15131"
       ry="0.6429829"
       inkscape:export-filename="/home/waldgeist/data/pics/physik/Own/mechanik/kinematik/gps.png"
       inkscape:export-xdpi="150"
       inkscape:export-ydpi="150" />
    <rect
       style="fill:#ffffff;stroke:#4d4d4d;stroke-width:3;stroke-linecap:round;stroke-linejoin:miter;stroke-miterlimit:4;stroke-opacity:1;stroke-dasharray:none;stroke-dashoffset:0"
       id="rect3050"
       width="466.42856"
       height="271.42856"
       x="138.83296"
       y="390.46683"
       ry="12.857142"
       inkscape:export-filename="/home/waldgeist/data/pics/physik/Own/mechanik/kinematik/gps.png"
       inkscape:export-xdpi="150"
       inkscape:export-ydpi="150" />
    <path
       style="font-size:medium;font-style:normal;font-variant:normal;font-weight:normal;font-stretch:normal;text-indent:0;text-align:start;text-decoration:none;line-height:normal;letter-spacing:normal;word-spacing:normal;text-transform:none;direction:ltr;block-progression:tb;writing-mode:lr-tb;text-anchor:start;baseline-shift:baseline;color:#000000;fill:#808080;fill-opacity:1;stroke:#000000;stroke-width:1;stroke-opacity:0.85098039;marker:none;visibility:visible;display:inline;overflow:visible;enable-background:accumulate;font-family:Sans;-inkscape-font-specification:Sans"
       d="m 409.42056,389.21741 -12.2941,1.76253 c 0,0 23.64755,10.45673 32.385,12.43639 8.73745,1.97965 19.182,4.81099 24.90625,7.53125 23.76695,11.29444 56.83394,35.20357 83.625,56.1875 26.79106,20.98393 68.54018,53.88393 68.54018,53.88393 l 0.49107,-11.99554 c 0,0 -35.85497,-28.60012 -62.875,-49.76339 -27.02003,-21.16328 -60.04658,-45.26272 -85.46875,-57.34375 -7.37947,-3.50685 -17.97889,-6.20608 -27,-8.25 -9.02111,-2.04393 -22.30965,-4.44892 -22.30965,-4.44892 z"
       id="path3992"
       inkscape:connector-curvature="0"
       sodipodi:nodetypes="ccsssccsssc"
       inkscape:export-filename="/home/waldgeist/data/pics/physik/Own/mechanik/kinematik/gps.png"
       inkscape:export-xdpi="150"
       inkscape:export-ydpi="150" />
    <path
       style="font-size:medium;font-style:normal;font-variant:normal;font-weight:normal;font-stretch:normal;text-indent:0;text-align:start;text-decoration:none;line-height:normal;letter-spacing:normal;word-spacing:normal;text-transform:none;direction:ltr;block-progression:tb;writing-mode:lr-tb;text-anchor:start;baseline-shift:baseline;color:#000000;fill:#cccccc;fill-opacity:1;stroke:#000000;stroke-width:1;marker:none;visibility:visible;display:inline;overflow:visible;enable-background:accumulate;font-family:Sans;-inkscape-font-specification:Sans"
       d="m 375.0884,507.99516 3.06599,9.54696 c 0,0 13.33898,9.45664 31.625,32.46875 18.28602,23.01211 41.34051,59.4554 60.15625,113.0625 l 5.65625,-2 C 456.55049,606.82332 433.17641,569.79786 414.49814,546.29212 395.81987,522.78638 375.0884,507.99516 375.0884,507.99516 z"
       id="path3980"
       inkscape:connector-curvature="0"
       sodipodi:nodetypes="ccsccsc"
       inkscape:export-filename="/home/waldgeist/data/pics/physik/Own/mechanik/kinematik/gps.png"
       inkscape:export-xdpi="150"
       inkscape:export-ydpi="150" />
    <path
       inkscape:connector-curvature="0"
       style="font-size:medium;font-style:normal;font-variant:normal;font-weight:normal;font-stretch:normal;text-indent:0;text-align:start;text-decoration:none;line-height:normal;letter-spacing:normal;word-spacing:normal;text-transform:none;direction:ltr;block-progression:tb;writing-mode:lr-tb;text-anchor:start;baseline-shift:baseline;color:#000000;fill:#cccccc;fill-opacity:1;fill-rule:nonzero;stroke:#000000;stroke-width:1;stroke-opacity:1;marker:none;visibility:visible;display:inline;overflow:visible;enable-background:accumulate;font-family:Sans;-inkscape-font-specification:Sans"
       d="m 178.83147,361.84465 c -1.20036,-1.77858 -5.02834,-0.15364 -3.45531,1.72307 l 86.89996,103.67693 -23.21812,10.71255 -25.75582,0.651 -38.15833,-11.12227 12.67829,-25.8656 c 0.73202,-1.49343 -2.02065,-2.85664 -2.79625,-1.09383 l -0.10072,0.22884 -12.62794,25.75122 c -4.21993,-1.71181 -8.45544,-3.38894 -12.67596,-5.09946 l 9.72411,-19.92755 c 0.72139,-1.47831 -1.88429,-2.98664 -2.69562,-1.32262 l -9.7996,20.09914 c -4.17857,-1.6997 -8.35225,-3.41596 -12.51121,-5.16352 l -15.40531,-10.41492 c -0.76729,1.84741 -7.46485,2.7821 -8.23216,4.62952 18.55077,7.62039 27.21568,13.74974 45.76977,21.36181 1.98895,0.78226 3.98961,1.55463 6.01478,2.2368 l 37.08165,10.85338 c -9.34619,13.08228 -23.24023,24.24819 -31.52127,32.75222 -1.23119,1.26437 1.10445,3.26589 1.97249,2.26766 8.4537,-9.72111 23.07189,-20.72956 32.70551,-34.27962 1.36958,0.10185 2.74541,0.0403 4.11547,0.0354 6.16565,-0.15608 12.32153,-0.34116 18.48706,-0.50342 -2.40456,4.0409 -4.68979,8.15042 -6.96671,12.26403 -2.42281,4.32061 -4.85847,8.63413 -7.35456,12.91289 -2.43302,4.23692 -4.96389,8.40528 -7.29512,12.69996 -1.55175,2.75111 -2.94741,5.5988 -4.27105,8.46552 -1.75732,3.73971 -3.57645,7.46544 -5.22535,11.25493 0,0 -4.88639,11.87263 -7.40721,17.53288 -0.54499,1.26467 -2.25573,3.80528 -3.63275,3.78821 l -11.35558,-0.14075 c -1.35317,-0.0168 -2.14709,2.99845 -0.0331,3.02397 l 12.32238,0.14875 c 5.55559,0.0671 10.46662,-14.99727 13.15099,-21.34054 1.33811,-3.19271 2.62537,-6.40077 4.20688,-9.48386 1.57451,-3.19554 2.95131,-6.46338 4.63495,-9.60275 2.69687,-4.86844 5.42608,-9.74392 8.29734,-14.51233 2.80978,-4.70164 5.58532,-9.40342 8.22871,-14.20111 2.34895,-4.19551 4.6621,-8.42304 7.23557,-12.48715 0.74883,-0.789 1.91264,-0.87763 2.81228,-1.42561 11.3678,-5.33798 22.80568,-10.54004 34.20309,-15.8143 l 24.98236,-11.54093 -2.46677,-5.48963 -33.46506,15.45619 -85.49888,-100.76199 c 0,0 -0.68408,-0.89554 -1.59788,-2.93323 -2e-5,-1e-5 1e-4,6e-5 1e-4,6e-5 z"
       id="path3984"
       sodipodi:nodetypes="csccccsscccsscccccccsscccccccccssssccccccccccccscc"
       inkscape:export-filename="/home/waldgeist/data/pics/physik/Own/mechanik/kinematik/gps.png"
       inkscape:export-xdpi="150"
       inkscape:export-ydpi="150" />
    <path
       style="font-size:medium;font-style:normal;font-variant:normal;font-weight:normal;font-stretch:normal;text-indent:0;text-align:start;text-decoration:none;line-height:normal;letter-spacing:normal;word-spacing:normal;text-transform:none;direction:ltr;block-progression:tb;writing-mode:lr-tb;text-anchor:start;baseline-shift:baseline;color:#000000;fill:#808080;fill-opacity:1;stroke:#000000;stroke-width:1;marker:none;visibility:visible;display:inline;overflow:visible;enable-background:accumulate;font-family:Sans;-inkscape-font-specification:Sans"
       d="m 291.19456,390.97962 -15.875,0 c 0,0 1.76528,19.92084 5.375,30.3125 17.09058,49.20041 76.78866,67.98121 87.65625,112.71875 3.93808,16.21154 4.14448,43.92103 3.0625,66.96875 -1.08198,23.04772 -23.25,60.54687 -23.25,60.54687 l 15.90625,0 c 0,0 22.23381,-36.1536 23.34375,-59.79687 1.10994,-23.64327 1.29838,-51.61834 -3.53125,-71.5 -12.40927,-51.08402 -72.79642,-70.23949 -88.0625,-114.1875 -2.12078,-6.10531 -4.625,-25.0625 -4.625,-25.0625 z"
       id="path3181"
       inkscape:connector-curvature="0"
       sodipodi:nodetypes="ccsssccsssc"
       inkscape:export-filename="/home/waldgeist/data/pics/physik/Own/mechanik/kinematik/gps.png"
       inkscape:export-xdpi="150"
       inkscape:export-ydpi="150" />
    <rect
       ry="13.120314"
       y="387.6889"
       x="138.83296"
       height="276.98441"
       width="466.42856"
       id="rect4020"
       style="fill:none;stroke:#4d4d4d;stroke-width:8;stroke-linecap:round;stroke-linejoin:miter;stroke-miterlimit:4;stroke-opacity:1;stroke-dasharray:none;stroke-dashoffset:0"
       inkscape:export-filename="/home/waldgeist/data/pics/physik/Own/mechanik/kinematik/gps.png"
       inkscape:export-xdpi="150"
       inkscape:export-ydpi="150" />
    <path
       style="fill:#3b3b3b;fill-opacity:1;stroke:#4d4d4d;stroke-width:3;stroke-linecap:round;stroke-linejoin:miter;stroke-miterlimit:4;stroke-opacity:1;stroke-dasharray:none;stroke-dashoffset:0"
       d="m 131.26599,360.5561 c -6.48957,0 -11.71875,5.2292 -11.71875,11.7188 l 0,307.81251 c 0,6.4896 5.22918,11.7187 11.71875,11.7187 l 481.5625,0 c 6.48957,0 11.71875,-5.2291 11.71875,-11.7187 l 0,-307.81251 c 0,-6.4896 -5.22918,-11.7188 -11.71875,-11.7188 l -481.5625,0 z m 20.4375,29.9063 440.71875,0 c 7.12286,0 12.84375,5.7209 12.84375,12.8437 l 0,245.7188 c 0,7.1229 -5.72089,12.875 -12.84375,12.875 l -440.71875,0 c -7.12286,0 -12.875,-5.7521 -12.875,-12.875 l 0,-245.7188 c 0,-7.1228 5.75214,-12.8437 12.875,-12.8437 z"
       id="rect16910"
       inkscape:connector-curvature="0"
       inkscape:export-filename="/home/waldgeist/data/pics/physik/Own/mechanik/kinematik/gps.png"
       inkscape:export-xdpi="150"
       inkscape:export-ydpi="150" />
    <path
       style="font-size:medium;font-style:normal;font-variant:normal;font-weight:normal;font-stretch:normal;text-indent:0;text-align:start;text-decoration:none;line-height:normal;letter-spacing:normal;word-spacing:normal;text-transform:none;direction:ltr;block-progression:tb;writing-mode:lr-tb;text-anchor:start;baseline-shift:baseline;color:#000000;fill:#ffff00;fill-opacity:1;stroke:#000000;stroke-width:1;marker:none;visibility:visible;display:inline;overflow:visible;enable-background:accumulate;font-family:Sans;-inkscape-font-specification:Sans"
       d="m 305.33487,445.79446 2.2318,8.3748 5.30362,19.75472 2.25393,8.35269 6.12089,-6.12089 3.69022,-3.69022 35.66469,35.66469 c 1.84142,1.89432 5.25337,1.91842 7.12142,0.0504 1.86807,-1.86805 1.84394,-5.27998 -0.0503,-7.12143 l -35.66471,-35.66469 3.69022,-3.69022 6.12089,-6.12088 -8.3527,-2.25391 -19.7769,-5.2812 z"
       id="path3195"
       inkscape:connector-curvature="0"
       sodipodi:nodetypes="cccccccsccccccc"
       inkscape:export-filename="/home/waldgeist/data/pics/physik/Own/mechanik/kinematik/gps.png"
       inkscape:export-xdpi="150"
       inkscape:export-ydpi="150" />
    <path
       style="fill:#008000;stroke:#000000;stroke-width:3;stroke-linecap:round;stroke-linejoin:miter;stroke-miterlimit:4;stroke-opacity:1;stroke-dashoffset:0"
       inkscape:transform-center-y="-6.3810749"
       d="m 382.22275,589.99488 7.96222,63.18171 -19.084,-21.67853 -27.36692,9.23089 z"
       id="path3065"
       inkscape:connector-curvature="0"
       sodipodi:nodetypes="ccccc"
       inkscape:transform-center-x="5.087735"
       inkscape:export-filename="/home/waldgeist/data/pics/physik/Own/mechanik/kinematik/gps.png"
       inkscape:export-xdpi="150"
       inkscape:export-ydpi="150" />
  </g>
</svg>
