<svg xmlns:ns0="http://www.iki.fi/pav/software/textext/" xmlns="http://www.w3.org/2000/svg" xmlns:xlink="http://www.w3.org/1999/xlink" width="1052.362" height="744.094"><title>Koordinatensystem (x-y)</title><defs><marker id="a" orient="auto" overflow="visible"><path d="M-4 0l-2 2 7-2-7-2 2 2z" fill-rule="evenodd" stroke="#000" stroke-width=".4pt"/></marker></defs><g transform="translate(0 -308.268)"><rect style="marker:none" width="796" height="541.442" x="128.181" y="409.594" ry="7.08" color="#000" fill="#fff" stroke="#fff" stroke-linecap="round" stroke-linejoin="bevel" stroke-dasharray="1,2" overflow="visible"/><path d="M274.152 870.34V476.38M241.322 870.34V476.38M306.982 870.34V476.38M339.812 870.34V476.38" fill="none" stroke="gray" stroke-linecap="round" stroke-dasharray=".99999999,2"/><path d="M372.642 870.34V471.33" fill="none" stroke="gray" stroke-linecap="round" stroke-dasharray=".99999999,1.99999999"/><path d="M405.472 870.34V476.38M438.302 870.34V476.38M471.132 870.34V476.38M503.962 870.34V476.38M536.792 870.34V476.38M569.622 870.34V476.38M602.452 870.34V476.38M635.282 870.34V476.38M668.112 870.34V476.38M700.942 870.34V476.38M733.772 870.34V476.38M766.602 870.34V476.38M799.432 870.34V476.38M832.261 870.34V476.38" fill="none" stroke="gray" stroke-linecap="round" stroke-dasharray=".99999999,2"/><path d="M208.492 509.21h654.694M208.492 542.04h654.694M208.492 574.87h654.694M208.492 607.7h654.694M208.492 640.53h654.694M208.492 673.36h654.694M208.492 706.19h654.694M208.492 739.02h654.694M208.492 804.68h654.694M208.492 771.85h654.694M205.635 837.51H860.33" fill="none" stroke="gray" stroke-linecap="round" stroke-dasharray="1,2"/><rect style="marker:none" width="32.83" height="32.83" x="356.227" y="558.455" ry="7.344" color="#000" fill="#b7b7b7" stroke="#000" stroke-linecap="round" stroke-linejoin="bevel" overflow="visible"/><rect ry="7.344" y="525.625" x="356.227" height="32.83" width="32.83" style="marker:none" color="#000" fill="#b7b7b7" stroke="#000" stroke-linecap="round" stroke-linejoin="bevel" overflow="visible"/><rect style="marker:none" width="32.83" height="32.83" x="389.057" y="525.625" ry="7.344" color="#000" fill="#b7b7b7" stroke="#000" stroke-linecap="round" stroke-linejoin="bevel" overflow="visible"/><rect ry="7.344" y="525.625" x="421.887" height="32.83" width="32.83" style="marker:none" color="#000" fill="#b7b7b7" stroke="#000" stroke-linecap="round" stroke-linejoin="bevel" overflow="visible"/><rect style="marker:none" width="32.83" height="32.83" x="454.717" y="525.625" ry="7.344" color="#000" fill="#b7b7b7" stroke="#000" stroke-linecap="round" stroke-linejoin="bevel" overflow="visible"/><rect ry="7.344" y="525.625" x="487.547" height="32.83" width="32.83" style="marker:none" color="#000" fill="#b7b7b7" stroke="#000" stroke-linecap="round" stroke-linejoin="bevel" overflow="visible"/><rect style="marker:none" width="32.83" height="32.83" x="487.547" y="558.455" ry="7.344" color="#000" fill="#b7b7b7" stroke="#000" stroke-linecap="round" stroke-linejoin="bevel" overflow="visible"/><rect ry="7.344" y="591.285" x="487.547" height="32.83" width="32.83" style="marker:none" color="#000" fill="#b7b7b7" stroke="#000" stroke-linecap="round" stroke-linejoin="bevel" overflow="visible"/><rect style="marker:none" width="32.83" height="32.83" x="520.377" y="591.285" ry="7.344" color="#000" fill="#b7b7b7" stroke="#000" stroke-linecap="round" stroke-linejoin="bevel" overflow="visible"/><rect ry="7.344" y="624.115" x="520.377" height="32.83" width="32.83" style="marker:none" color="#000" fill="#b7b7b7" stroke="#000" stroke-linecap="round" stroke-linejoin="bevel" overflow="visible"/><rect style="marker:none" width="32.83" height="32.83" x="520.377" y="656.945" ry="7.344" color="#000" fill="#b7b7b7" stroke="#000" stroke-linecap="round" stroke-linejoin="bevel" overflow="visible"/><rect ry="7.344" y="656.945" x="553.207" height="32.83" width="32.83" style="marker:none" color="#000" fill="#b7b7b7" stroke="#000" stroke-linecap="round" stroke-linejoin="bevel" overflow="visible"/><rect style="marker:none" width="32.83" height="32.83" x="586.037" y="656.945" ry="7.344" color="#000" fill="#b7b7b7" stroke="#000" stroke-linecap="round" stroke-linejoin="bevel" overflow="visible"/><rect ry="7.344" y="656.945" x="618.867" height="32.83" width="32.83" style="marker:none" color="#000" fill="#b7b7b7" stroke="#000" stroke-linecap="round" stroke-linejoin="bevel" overflow="visible"/><rect style="marker:none" width="32.83" height="32.83" x="651.697" y="656.945" ry="7.344" color="#000" fill="#b7b7b7" stroke="#000" stroke-linecap="round" stroke-linejoin="bevel" overflow="visible"/><rect ry="7.344" y="624.115" x="651.697" height="32.83" width="32.83" style="marker:none" color="#000" fill="#b7b7b7" stroke="#000" stroke-linecap="round" stroke-linejoin="bevel" overflow="visible"/><rect style="marker:none" width="32.83" height="32.83" x="717.357" y="624.115" ry="7.344" color="#000" fill="#b7b7b7" stroke="#000" stroke-linecap="round" stroke-linejoin="bevel" overflow="visible"/><rect ry="7.344" y="624.115" x="750.187" height="32.83" width="32.83" style="marker:none" color="#000" fill="#b7b7b7" stroke="#000" stroke-linecap="round" stroke-linejoin="bevel" overflow="visible"/><rect style="marker:none" width="32.83" height="32.83" x="783.017" y="624.115" ry="7.344" color="#000" fill="#b7b7b7" stroke="#000" stroke-linecap="round" stroke-linejoin="bevel" overflow="visible"/><rect ry="7.344" y="624.115" x="815.846" height="32.83" width="32.83" style="marker:none" color="#000" fill="#b7b7b7" stroke="#000" stroke-linecap="round" stroke-linejoin="bevel" overflow="visible"/><rect ry="7.344" y="591.285" x="356.227" height="32.83" width="32.83" style="marker:none" color="#000" fill="#b7b7b7" stroke="#000" stroke-linecap="round" stroke-linejoin="bevel" overflow="visible"/><rect style="marker:none" width="32.83" height="32.83" x="323.397" y="591.285" ry="7.344" color="#000" fill="#b7b7b7" stroke="#000" stroke-linecap="round" stroke-linejoin="bevel" overflow="visible"/><rect ry="7.344" y="591.285" x="290.567" height="32.83" width="32.83" style="marker:none" color="#000" fill="#b7b7b7" stroke="#000" stroke-linecap="round" stroke-linejoin="bevel" overflow="visible"/><rect style="marker:none" width="32.83" height="32.83" x="356.227" y="656.945" ry="7.344" color="#000" fill="#b7b7b7" stroke="#000" stroke-linecap="round" stroke-linejoin="bevel" overflow="visible"/><rect ry="7.344" y="689.775" x="356.227" height="32.83" width="32.83" style="marker:none" color="#000" fill="#b7b7b7" stroke="#000" stroke-linecap="round" stroke-linejoin="bevel" overflow="visible"/><rect style="marker:none" width="32.83" height="32.83" x="421.887" y="689.775" ry="7.344" color="#000" fill="#b7b7b7" stroke="#000" stroke-linecap="round" stroke-linejoin="bevel" overflow="visible"/><rect ry="7.344" y="656.945" x="421.887" height="32.83" width="32.83" style="marker:none" color="#000" fill="#b7b7b7" stroke="#000" stroke-linecap="round" stroke-linejoin="bevel" overflow="visible"/><rect style="marker:none" width="32.83" height="32.83" x="454.717" y="656.945" ry="7.344" color="#000" fill="#b7b7b7" stroke="#000" stroke-linecap="round" stroke-linejoin="bevel" overflow="visible"/><rect ry="7.344" y="689.775" x="454.717" height="32.83" width="32.83" style="marker:none" color="#000" fill="#b7b7b7" stroke="#000" stroke-linecap="round" stroke-linejoin="bevel" overflow="visible"/><rect style="marker:none" width="32.83" height="32.83" x="421.887" y="755.435" ry="7.344" color="#000" fill="#b7b7b7" stroke="#000" stroke-linecap="round" stroke-linejoin="bevel" overflow="visible"/><rect ry="7.344" y="755.435" x="454.717" height="32.83" width="32.83" style="marker:none" color="#000" fill="#b7b7b7" stroke="#000" stroke-linecap="round" stroke-linejoin="bevel" overflow="visible"/><rect style="marker:none" width="32.83" height="32.83" x="487.547" y="755.435" ry="7.344" color="#000" fill="#b7b7b7" stroke="#000" stroke-linecap="round" stroke-linejoin="bevel" overflow="visible"/><rect style="marker:none" width="32.83" height="32.83" x="257.737" y="656.945" ry="7.344" color="#000" fill="#b7b7b7" stroke="#000" stroke-linecap="round" stroke-linejoin="bevel" overflow="visible"/><rect style="marker:none" width="32.83" height="32.83" x="290.567" y="656.945" ry="7.344" color="#000" fill="#b7b7b7" stroke="#000" stroke-linecap="round" stroke-linejoin="bevel" overflow="visible"/><rect ry="7.344" y="624.115" x="290.567" height="32.83" width="32.83" style="marker:none" color="#000" fill="#b7b7b7" stroke="#000" stroke-linecap="round" stroke-linejoin="bevel" overflow="visible"/><rect style="marker:none" width="32.83" height="32.83" x="257.737" y="755.435" ry="7.344" color="#000" fill="#b7b7b7" stroke="#000" stroke-linecap="round" stroke-linejoin="bevel" overflow="visible"/><rect ry="7.344" y="755.435" x="290.567" height="32.83" width="32.83" style="marker:none" color="#000" fill="#b7b7b7" stroke="#000" stroke-linecap="round" stroke-linejoin="bevel" overflow="visible"/><rect style="marker:none" width="32.83" height="32.83" x="323.397" y="755.435" ry="7.344" color="#000" fill="#b7b7b7" stroke="#000" stroke-linecap="round" stroke-linejoin="bevel" overflow="visible"/><rect style="marker:none" width="32.83" height="32.83" x="815.846" y="656.945" ry="7.344" color="#000" fill="#b7b7b7" stroke="#000" stroke-linecap="round" stroke-linejoin="bevel" overflow="visible"/><rect ry="7.344" y="689.775" x="815.846" height="32.83" width="32.83" style="marker:none" color="#000" fill="#b7b7b7" stroke="#000" stroke-linecap="round" stroke-linejoin="bevel" overflow="visible"/><rect style="marker:none" width="32.83" height="32.83" x="815.846" y="722.605" ry="7.344" color="#000" fill="#b7b7b7" stroke="#000" stroke-linecap="round" stroke-linejoin="bevel" overflow="visible"/><rect style="marker:none" width="32.83" height="32.83" x="224.907" y="656.945" ry="7.344" color="#000" fill="#b7b7b7" stroke="#000" stroke-linecap="round" stroke-linejoin="bevel" overflow="visible"/><rect style="marker:none" width="32.83" height="32.83" x="224.907" y="689.775" ry="7.344" color="#000" fill="#b7b7b7" stroke="#000" stroke-linecap="round" stroke-linejoin="bevel" overflow="visible"/><rect ry="7.344" y="755.435" x="224.907" height="32.83" width="32.83" style="marker:none" color="#000" fill="#b7b7b7" stroke="#000" stroke-linecap="round" stroke-linejoin="bevel" overflow="visible"/><rect ry="7.344" y="722.605" x="224.907" height="32.83" width="32.83" style="marker:none" color="#000" fill="#b7b7b7" stroke="#000" stroke-linecap="round" stroke-linejoin="bevel" overflow="visible"/><rect style="marker:none" width="32.83" height="32.83" x="389.057" y="821.094" ry="7.344" color="#000" fill="#b7b7b7" stroke="#000" stroke-linecap="round" stroke-linejoin="bevel" overflow="visible"/><rect ry="7.344" y="821.094" x="421.887" height="32.83" width="32.83" style="marker:none" color="#000" fill="#b7b7b7" stroke="#000" stroke-linecap="round" stroke-linejoin="bevel" overflow="visible"/><rect style="marker:none" width="32.83" height="32.83" x="454.717" y="821.094" ry="7.344" color="#000" fill="#b7b7b7" stroke="#000" stroke-linecap="round" stroke-linejoin="bevel" overflow="visible"/><rect ry="7.344" y="821.094" x="487.547" height="32.83" width="32.83" style="marker:none" color="#000" fill="#b7b7b7" stroke="#000" stroke-linecap="round" stroke-linejoin="bevel" overflow="visible"/><rect style="marker:none" width="32.83" height="32.83" x="520.377" y="821.094" ry="7.344" color="#000" fill="#b7b7b7" stroke="#000" stroke-linecap="round" stroke-linejoin="bevel" overflow="visible"/><rect ry="7.344" y="755.435" x="356.227" height="32.83" width="32.83" style="marker:none" color="#000" fill="#b7b7b7" stroke="#000" stroke-linecap="round" stroke-linejoin="bevel" overflow="visible"/><rect ry="7.344" y="788.265" x="356.227" height="32.83" width="32.83" style="marker:none" color="#000" fill="#b7b7b7" stroke="#000" stroke-linecap="round" stroke-linejoin="bevel" overflow="visible"/><rect style="marker:none" width="32.83" height="32.83" x="356.227" y="821.094" ry="7.344" color="#000" fill="#b7b7b7" stroke="#000" stroke-linecap="round" stroke-linejoin="bevel" overflow="visible"/><rect ry="7.344" y="755.435" x="815.846" height="32.83" width="32.83" style="marker:none" color="#000" fill="#b7b7b7" stroke="#000" stroke-linecap="round" stroke-linejoin="bevel" overflow="visible"/><rect style="marker:none" width="32.83" height="32.83" x="783.017" y="755.435" ry="7.344" color="#000" fill="#b7b7b7" stroke="#000" stroke-linecap="round" stroke-linejoin="bevel" overflow="visible"/><g transform="translate(144.843 527.862)" color="#000" stroke="#fff" stroke-linecap="round" stroke-linejoin="bevel"><rect style="marker:none" width="32.83" height="32.83" x="441.194" y="194.743" ry="7.344" fill="#fff" overflow="visible"/><path style="marker:none" d="M469.643 148.076a7.857 7.857 0 1 1-15.714 0 7.857 7.857 0 0 1 15.714 0z" transform="matrix(1.84247 0 0 .98915 -393.22 64.688)" stroke-width=".741" overflow="visible"/><path d="M465.66 211.158a8.05 8.05 0 1 1-16.102 0 8.05 8.05 0 0 1 16.102 0z" style="marker:none" stroke-width="1.00004864" overflow="visible"/></g><rect ry="7.344" y="755.435" x="586.037" height="32.83" width="32.83" style="marker:none" color="#000" fill="#b7b7b7" stroke="#000" stroke-linecap="round" stroke-linejoin="bevel" overflow="visible"/><rect style="marker:none" width="32.83" height="32.83" x="618.867" y="755.435" ry="7.344" color="#000" fill="#b7b7b7" stroke="#000" stroke-linecap="round" stroke-linejoin="bevel" overflow="visible"/><rect ry="7.344" y="755.435" x="651.697" height="32.83" width="32.83" style="marker:none" color="#000" fill="#b7b7b7" stroke="#000" stroke-linecap="round" stroke-linejoin="bevel" overflow="visible"/><rect style="marker:none" width="32.83" height="32.83" x="717.357" y="755.435" ry="7.344" color="#000" fill="#b7b7b7" stroke="#000" stroke-linecap="round" stroke-linejoin="bevel" overflow="visible"/><rect ry="7.344" y="755.435" x="750.187" height="32.83" width="32.83" style="marker:none" color="#000" fill="#b7b7b7" stroke="#000" stroke-linecap="round" stroke-linejoin="bevel" overflow="visible"/><rect style="marker:none" width="32.83" height="32.83" x="553.207" y="788.265" ry="7.344" color="#000" fill="#b7b7b7" stroke="#000" stroke-linecap="round" stroke-linejoin="bevel" overflow="visible"/><rect ry="7.344" y="821.094" x="553.207" height="32.83" width="32.83" style="marker:none" color="#000" fill="#b7b7b7" stroke="#000" stroke-linecap="round" stroke-linejoin="bevel" overflow="visible"/><rect ry="7.344" y="755.435" x="553.207" height="32.83" width="32.83" style="marker:none" color="#000" fill="#b7b7b7" stroke="#000" stroke-linecap="round" stroke-linejoin="bevel" overflow="visible"/><g transform="translate(255.202 501.85)" color="#000"><path style="marker:none" fill="#fff" stroke="#000" stroke-linecap="round" stroke-linejoin="bevel" overflow="visible" d="M534.498 171.509l9.732-9.732 9.732 9.732-9.732 9.732z"/><rect ry="7.344" y="155.094" x="527.815" height="32.83" width="32.83" style="marker:none" fill="none" overflow="visible"/></g><g transform="translate(255.202 534.68)" color="#000"><path style="marker:none" fill="#fff" stroke="#000" stroke-linecap="round" stroke-linejoin="bevel" overflow="visible" d="M534.498 171.509l9.732-9.732 9.732 9.732-9.732 9.732z"/><rect style="marker:none" width="32.83" height="32.83" x="527.815" y="155.094" ry="7.344" fill="none" overflow="visible"/></g><g transform="translate(255.202 567.51)" color="#000"><path style="marker:none" fill="#fff" stroke="#000" stroke-linecap="round" stroke-linejoin="bevel" overflow="visible" d="M534.498 171.509l9.732-9.732 9.732 9.732-9.732 9.732z"/><rect ry="7.344" y="155.094" x="527.815" height="32.83" width="32.83" style="marker:none" fill="none" overflow="visible"/></g><g transform="translate(222.372 501.85)" color="#000"><path style="marker:none" fill="#fff" stroke="#000" stroke-linecap="round" stroke-linejoin="bevel" overflow="visible" d="M534.498 171.509l9.732-9.732 9.732 9.732-9.732 9.732z"/><rect style="marker:none" width="32.83" height="32.83" x="527.815" y="155.094" ry="7.344" fill="none" overflow="visible"/></g><g transform="translate(222.372 534.68)" color="#000"><path style="marker:none" fill="#fff" stroke="#000" stroke-linecap="round" stroke-linejoin="bevel" overflow="visible" d="M534.498 171.509l9.732-9.732 9.732 9.732-9.732 9.732z"/><rect ry="7.344" y="155.094" x="527.815" height="32.83" width="32.83" style="marker:none" fill="none" overflow="visible"/></g><g transform="translate(222.372 567.51)" color="#000"><path style="marker:none" fill="#fff" stroke="#000" stroke-linecap="round" stroke-linejoin="bevel" overflow="visible" d="M534.498 171.509l9.732-9.732 9.732 9.732-9.732 9.732z"/><rect style="marker:none" width="32.83" height="32.83" x="527.815" y="155.094" ry="7.344" fill="none" overflow="visible"/></g><rect style="marker:none" width="32.83" height="32.83" x="684.527" y="624.115" ry="7.344" color="#000" fill="#b7b7b7" stroke="#000" stroke-linecap="round" stroke-linejoin="bevel" overflow="visible"/><rect ry="7.344" y="755.435" x="684.527" height="32.83" width="32.83" style="marker:none" color="#000" fill="#b7b7b7" stroke="#000" stroke-linecap="round" stroke-linejoin="bevel" overflow="visible"/><rect style="marker:none" width="32.83" height="32.83" x="553.207" y="722.605" ry="7.344" color="#000" fill="#b7b7b7" stroke="#000" stroke-linecap="round" stroke-linejoin="bevel" overflow="visible"/><rect ry="7.344" y="722.605" x="618.867" height="32.83" width="32.83" style="marker:none" color="#000" fill="#b7b7b7" stroke="#000" stroke-linecap="round" stroke-linejoin="bevel" overflow="visible"/><rect style="marker:none" width="32.83" height="32.83" x="651.697" y="722.605" ry="7.344" color="#000" fill="#b7b7b7" stroke="#000" stroke-linecap="round" stroke-linejoin="bevel" overflow="visible"/><g transform="translate(-73.098 469.02)" fill="#fff" stroke="#000" color="#000"><rect ry="7.344" y="155.094" x="527.815" height="32.83" width="32.83" style="marker:none" overflow="visible"/><path style="marker:none" stroke-linecap="round" stroke-linejoin="bevel" overflow="visible" d="M534.498 171.509l9.732-9.732 9.732 9.732-9.732 9.732z"/></g><g transform="translate(-138.758 567.51)" fill="#fff" stroke="#000" color="#000"><rect style="marker:none" width="32.83" height="32.83" x="527.815" y="155.094" ry="7.344" overflow="visible"/><path style="marker:none" stroke-linecap="round" stroke-linejoin="bevel" overflow="visible" d="M534.498 171.509l9.732-9.732 9.732 9.732-9.732 9.732z"/></g><g transform="translate(-237.248 567.51)" fill="#fff" stroke="#000" color="#000"><rect ry="7.344" y="155.094" x="527.815" height="32.83" width="32.83" style="marker:none" overflow="visible"/><path style="marker:none" stroke-linecap="round" stroke-linejoin="bevel" overflow="visible" d="M534.498 171.509l9.732-9.732 9.732 9.732-9.732 9.732z"/></g><g transform="translate(-73.098 436.19)" fill="#fff" stroke="#000" color="#000"><rect ry="7.344" y="155.094" x="527.815" height="32.83" width="32.83" style="marker:none" overflow="visible"/><path style="marker:none" stroke-linecap="round" stroke-linejoin="bevel" overflow="visible" d="M534.498 171.509l9.732-9.732 9.732 9.732-9.732 9.732z"/></g><g transform="translate(-138.758 469.02)" fill="#fff" stroke="#000" color="#000"><rect style="marker:none" width="32.83" height="32.83" x="527.815" y="155.094" ry="7.344" overflow="visible"/><path style="marker:none" stroke-linecap="round" stroke-linejoin="bevel" overflow="visible" d="M534.498 171.509l9.732-9.732 9.732 9.732-9.732 9.732z"/></g><rect ry="3.689" y="728.696" x="597.89" height="7.378" width="9.123" style="marker:none" color="#000" overflow="visible"/><path d="M208.492 870.34V476.38M208.492 870.34h654.694" fill="none" stroke="#000" marker-end="url(#a)"/><g ns0:preamble="/home/waldgeist/data/sphinx/inkscape-preamble.tex" ns0:text="$x$" transform="matrix(3.65545 0 0 3.65545 56.114 385.567)"><defs><symbol id="b" overflow="visible"><path d="M3.328-3.016c.063-.25.297-1.171.985-1.171.046 0 .296 0 .5.125a.578.578 0 0 0-.47.546c0 .157.11.344.376.344a.546.546 0 0 0 .531-.578c0-.516-.578-.656-.922-.656-.578 0-.922.531-1.047.75-.25-.656-.781-.75-1.078-.75-1.031 0-1.61 1.281-1.61 1.531 0 .11.11.11.126.11.078 0 .11-.032.125-.11.344-1.063 1-1.313 1.344-1.313.187 0 .53.094.53.672 0 .313-.171.97-.53 2.375-.157.61-.516 1.032-.954 1.032-.062 0-.28 0-.5-.125.25-.063.47-.266.47-.547 0-.266-.22-.344-.36-.344-.313 0-.547.25-.547.578 0 .453.484.656.922.656.672 0 1.031-.703 1.047-.75.125.36.484.75 1.078.75 1.031 0 1.594-1.28 1.594-1.53 0-.11-.079-.11-.11-.11-.094 0-.11.047-.14.11-.329 1.077-1 1.312-1.313 1.312-.39 0-.547-.313-.547-.657 0-.218.047-.437.156-.875zm0 0"/></symbol></defs><use y="134.765" x="223.432" xlink:href="#b" width="744.094" height="1052.362"/></g><g ns0:text="$y$" ns0:preamble="/home/waldgeist/data/sphinx/inkscape-preamble.tex" transform="matrix(3.65545 0 0 3.65545 -617.733 -36.928)"><defs><symbol overflow="visible" id="c"><path d="M4.844-3.797c.047-.14.047-.156.047-.234 0-.172-.141-.266-.297-.266a.455.455 0 0 0-.344.203c-.016.063-.11.36-.14.547-.079.25-.141.531-.204.797L3.453-.953c-.031.14-.469.844-1.125.844-.5 0-.61-.438-.61-.813 0-.453.173-1.078.5-1.953.157-.406.204-.516.204-.719 0-.437-.313-.812-.813-.812-.953 0-1.312 1.453-1.312 1.531 0 .11.094.11.11.11.109 0 .109-.032.156-.188.28-.938.671-1.235 1.015-1.235.078 0 .25 0 .25.313 0 .25-.11.516-.172.703-.406 1.063-.578 1.625-.578 2.094 0 .89.625 1.187 1.219 1.187.39 0 .719-.171 1-.453-.125.516-.25 1.016-.64 1.547-.266.328-.641.625-1.095.625-.14 0-.593-.031-.765-.422.156 0 .297 0 .422-.125a.493.493 0 0 0 .203-.406c0-.313-.266-.344-.36-.344C.829.531.5.687.5 1.171c0 .5.438.876 1.063.876 1.015 0 2.046-.906 2.328-2.031zm0 0"/></symbol></defs><use height="1052.362" width="744.094" xlink:href="#c" x="223.432" y="134.765"/></g><path d="M200.125 837.51h16.735M200.125 739.02h16.735M200.125 706.19h16.735M200.125 673.36h16.735M200.125 640.53h16.735M200.125 607.7h16.735M200.125 574.87h16.735M200.125 542.04h16.735M200.125 509.21h16.735M241.322 861.972v16.735M274.152 861.972v16.735M306.982 861.972v16.735M339.812 861.972v16.735M372.642 861.972v16.735M405.472 861.972v16.735M438.302 861.972v16.735M471.132 861.972v16.735M503.962 861.972v16.735M536.792 861.972v16.735M569.622 861.972v16.735M602.452 861.972v16.735M635.282 861.972v16.735M668.112 861.972v16.735M700.942 861.972v16.735M733.772 861.972v16.735M766.602 861.972v16.735M799.432 861.972v16.735M832.261 861.972v16.735M200.125 804.68h16.735M200.125 771.85h16.735" fill="none" stroke="#000" stroke-linecap="round"/><g transform="translate(-346.5 526.023) scale(2.36971)" ns0:preamble="/home/waldgeist/data/sphinx/inkscape-preamble.tex" ns0:text="$1$" stroke="#333" fill="#333"><defs><symbol id="d" overflow="visible"><path d="M2.938-6.375c0-.25 0-.266-.235-.266C2.078-6 1.203-6 .891-6v.313c.203 0 .78 0 1.296-.266v5.172c0 .36-.03.469-.921.469H.953V0c.344-.031 1.203-.031 1.61-.031.39 0 1.265 0 1.609.031v-.313h-.313c-.906 0-.921-.109-.921-.468zm0 0" stroke="none"/></symbol></defs><use y="134.765" x="223.432" xlink:href="#d" width="744.094" height="1052.362"/></g><g ns0:text="$2$" ns0:preamble="/home/waldgeist/data/sphinx/inkscape-preamble.tex" transform="translate(-347.203 493.193) scale(2.36971)" stroke="#333" fill="#333"><defs><symbol overflow="visible" id="e"><path d="M1.266-.766l1.062-1.03c1.547-1.376 2.14-1.907 2.14-2.907 0-1.14-.89-1.938-2.109-1.938C1.234-6.64.5-5.719.5-4.828c0 .547.5.547.531.547.172 0 .516-.11.516-.532a.513.513 0 0 0-.531-.515c-.079 0-.094 0-.125.016.218-.657.765-1.016 1.343-1.016.907 0 1.329.812 1.329 1.625 0 .797-.485 1.578-1.047 2.203L.609-.375C.5-.265.5-.235.5 0h3.703l.266-1.734h-.235C4.172-1.438 4.11-1 4-.844c-.063.078-.719.078-.938.078zm0 0" stroke="none"/></symbol></defs><use xlink:href="#e" x="223.432" y="134.765" width="744.094" height="1052.362"/></g><g transform="translate(-347.425 460.104) scale(2.36971)" ns0:preamble="/home/waldgeist/data/sphinx/inkscape-preamble.tex" ns0:text="$3$" stroke="#333" fill="#333"><defs><symbol id="f" overflow="visible"><path d="M2.89-3.516c.813-.265 1.391-.953 1.391-1.75 0-.812-.875-1.375-1.828-1.375-1 0-1.765.594-1.765 1.36 0 .328.218.515.515.515.297 0 .5-.218.5-.515 0-.485-.469-.485-.61-.485.298-.5.954-.625 1.313-.625.422 0 .969.22.969 1.11 0 .125-.031.703-.281 1.14-.297.485-.64.516-.89.516a3.29 3.29 0 0 1-.392.031c-.078.016-.14.031-.14.125 0 .11.062.11.234.11h.438c.812 0 1.187.671 1.187 1.656 0 1.36-.687 1.64-1.125 1.64-.437 0-1.187-.171-1.531-.75.344.047.656-.171.656-.546a.537.537 0 0 0-.547-.563c-.25 0-.562.14-.562.578C.422-.437 1.344.22 2.437.22c1.22 0 2.126-.906 2.126-1.922 0-.813-.641-1.594-1.672-1.813zm0 0" stroke="none"/></symbol></defs><use y="134.765" x="223.432" xlink:href="#f" width="744.094" height="1052.362"/></g><g ns0:text="$4$" ns0:preamble="/home/waldgeist/data/sphinx/inkscape-preamble.tex" transform="translate(-347.721 427.663) scale(2.36971)" stroke="#333" fill="#333"><defs><symbol overflow="visible" id="g"><path d="M2.938-1.64v.859c0 .36-.032.469-.766.469h-.203V0c.406-.031.922-.031 1.343-.031.422 0 .938 0 1.36.031v-.313h-.219c-.734 0-.75-.109-.75-.468v-.86h.985v-.312h-.985v-4.531c0-.204 0-.266-.172-.266-.078 0-.11 0-.187.125L.28-1.953v.312zm.046-.313H.563l2.421-3.719zm0 0" stroke="none"/></symbol></defs><use xlink:href="#g" x="223.432" y="134.765" width="744.094" height="1052.362"/></g><g transform="translate(-347.203 394.444) scale(2.36971)" ns0:preamble="/home/waldgeist/data/sphinx/inkscape-preamble.tex" ns0:text="$5$" stroke="#333" fill="#333"><defs><symbol id="h" overflow="visible"><path d="M4.469-2c0-1.188-.813-2.188-1.89-2.188-.47 0-.907.157-1.267.516v-1.953c.204.063.532.125.844.125 1.235 0 1.938-.906 1.938-1.031 0-.063-.032-.11-.11-.11 0 0-.03 0-.078.032a3.22 3.22 0 0 1-1.36.296c-.39 0-.858-.078-1.327-.28-.078-.032-.094-.032-.11-.032C1-6.625 1-6.547 1-6.391v2.954c0 .171 0 .25.14.25.079 0 .094-.016.141-.079.11-.156.469-.703 1.282-.703.515 0 .765.453.843.64.156.376.188.75.188 1.25 0 .36 0 .954-.25 1.376-.235.39-.61.64-1.063.64-.719 0-1.297-.53-1.469-1.109.032 0 .063.016.172.016.329 0 .5-.25.5-.485 0-.25-.171-.5-.5-.5-.14 0-.484.079-.484.532C.5-.75 1.188.219 2.297.219 3.453.219 4.469-.734 4.469-2zm0 0" stroke="none"/></symbol></defs><use y="134.765" x="223.432" xlink:href="#h" width="744.094" height="1052.362"/></g><g ns0:text="$6$" ns0:preamble="/home/waldgeist/data/sphinx/inkscape-preamble.tex" transform="translate(-347.425 361.614) scale(2.36971)" stroke="#333" fill="#333"><defs><symbol overflow="visible" id="i"><path d="M1.313-3.266v-.25c0-2.515 1.234-2.875 1.75-2.875.234 0 .656.063.874.407-.156 0-.546 0-.546.437 0 .313.234.469.453.469.156 0 .469-.094.469-.484 0-.594-.438-1.079-1.266-1.079C1.766-6.64.422-5.359.422-3.156.422-.484 1.578.219 2.5.219c1.11 0 2.063-.938 2.063-2.25 0-1.266-.891-2.219-2-2.219-.672 0-1.047.5-1.25.984zM2.5-.062c-.625 0-.922-.594-.984-.75-.188-.47-.188-1.266-.188-1.438 0-.781.328-1.781 1.219-1.781.172 0 .625 0 .937.625.172.36.172.875.172 1.36 0 .483 0 .983-.172 1.343-.296.594-.75.64-.984.64zm0 0" stroke="none"/></symbol></defs><use xlink:href="#i" x="223.432" y="134.765" width="744.094" height="1052.362"/></g><g transform="translate(-348.054 328.896) scale(2.36971)" ns0:preamble="/home/waldgeist/data/sphinx/inkscape-preamble.tex" ns0:text="$7$" stroke="#333" fill="#333"><defs><symbol id="j" overflow="visible"><path d="M4.75-6.078c.078-.11.078-.125.078-.344H2.406c-1.203 0-1.234-.125-1.265-.312H.89L.562-4.688h.25c.032-.156.11-.78.25-.906.063-.062.844-.062.97-.062h2.062c-.11.156-.89 1.25-1.11 1.578C2.078-2.734 1.75-1.344 1.75-.328c0 .094 0 .547.469.547.453 0 .453-.453.453-.547v-.516c0-.547.031-1.094.11-1.625.046-.234.171-1.094.624-1.703zm0 0" stroke="none"/></symbol></defs><use y="134.765" x="223.432" xlink:href="#j" width="744.094" height="1052.362"/></g><g ns0:text="$8$" ns0:preamble="/home/waldgeist/data/sphinx/inkscape-preamble.tex" transform="translate(-347.425 295.955) scale(2.36971)" stroke="#333" fill="#333"><defs><symbol overflow="visible" id="k"><path d="M1.625-4.563c-.453-.296-.5-.625-.5-.796 0-.61.656-1.032 1.36-1.032.718 0 1.359.516 1.359 1.235 0 .578-.39 1.047-.985 1.39zm1.453.954c.719-.375 1.203-.891 1.203-1.547 0-.922-.875-1.485-1.781-1.485-1 0-1.813.735-1.813 1.672 0 .172.016.625.438 1.094.11.11.484.36.734.531C1.281-3.047.422-2.5.422-1.5.422-.453 1.438.219 2.484.219c1.125 0 2.079-.828 2.079-1.89 0-.36-.11-.813-.5-1.235-.188-.203-.344-.297-.985-.703zm-1 .421l1.235.782c.28.187.75.484.75 1.094 0 .734-.75 1.25-1.563 1.25C1.64-.063.922-.672.922-1.5c0-.578.312-1.219 1.156-1.688zm0 0" stroke="none"/></symbol></defs><use xlink:href="#k" x="223.432" y="134.765" width="744.094" height="1052.362"/></g><g transform="translate(-347.425 263.125) scale(2.36971)" ns0:preamble="/home/waldgeist/data/sphinx/inkscape-preamble.tex" ns0:text="$9$" stroke="#333" fill="#333"><defs><symbol id="l" overflow="visible"><path d="M3.656-3.172v.328c0 2.328-1.031 2.781-1.61 2.781-.171 0-.718-.015-.983-.359.437 0 .515-.281.515-.453 0-.313-.234-.453-.453-.453-.156 0-.453.078-.453.469 0 .671.531 1.078 1.375 1.078 1.297 0 2.515-1.36 2.515-3.5 0-2.688-1.156-3.36-2.046-3.36-.547 0-1.032.188-1.454.625-.421.454-.64.875-.64 1.625 0 1.235.875 2.22 1.984 2.22.61 0 1.016-.423 1.25-1zm-1.234.766c-.156 0-.625 0-.922-.625-.188-.375-.188-.86-.188-1.36 0-.53 0-1 .22-1.375.265-.5.64-.625.984-.625.468 0 .796.344.968.782.11.328.157.953.157 1.406 0 .828-.344 1.797-1.22 1.797zm0 0" stroke="none"/></symbol></defs><use y="134.765" x="223.432" xlink:href="#l" width="744.094" height="1052.362"/></g><g ns0:text="$10$" ns0:preamble="/home/waldgeist/data/sphinx/inkscape-preamble.tex" transform="translate(-359.266 230.295) scale(2.36971)" stroke="#333" fill="#333"><defs><symbol overflow="visible" id="m"><path d="M2.938-6.375c0-.25 0-.266-.235-.266C2.078-6 1.203-6 .891-6v.313c.203 0 .78 0 1.296-.266v5.172c0 .36-.03.469-.921.469H.953V0c.344-.031 1.203-.031 1.61-.031.39 0 1.265 0 1.609.031v-.313h-.313c-.906 0-.921-.109-.921-.468zm0 0" stroke="none"/></symbol><symbol overflow="visible" id="n"><path d="M4.578-3.188c0-.796-.047-1.593-.39-2.328C3.733-6.484 2.905-6.64 2.5-6.64c-.61 0-1.328.266-1.75 1.188-.313.687-.36 1.469-.36 2.266 0 .75.032 1.64.454 2.406a1.83 1.83 0 0 0 1.64 1c.532 0 1.297-.203 1.735-1.157.312-.687.36-1.468.36-2.25zM2.484 0c-.39 0-.984-.25-1.156-1.203-.11-.594-.11-1.516-.11-2.11 0-.64 0-1.296.079-1.828.187-1.187.937-1.28 1.187-1.28.329 0 .985.187 1.172 1.171.11.563.11 1.313.11 1.938 0 .75 0 1.421-.11 2.062C3.5-.297 2.937 0 2.484 0zm0 0" stroke="none"/></symbol></defs><use xlink:href="#m" x="223.432" y="134.765" width="744.094" height="1052.362"/><use xlink:href="#n" x="228.413" y="134.765" width="744.094" height="1052.362"/></g><g transform="translate(-358.304 197.724) scale(2.36971)" ns0:preamble="/home/waldgeist/data/sphinx/inkscape-preamble.tex" ns0:text="$11$" stroke="#333" fill="#333"><defs><symbol id="o" overflow="visible"><path d="M2.938-6.375c0-.25 0-.266-.235-.266C2.078-6 1.203-6 .891-6v.313c.203 0 .78 0 1.296-.266v5.172c0 .36-.03.469-.921.469H.953V0c.344-.031 1.203-.031 1.61-.031.39 0 1.265 0 1.609.031v-.313h-.313c-.906 0-.921-.109-.921-.468zm0 0" stroke="none"/></symbol></defs><use y="134.765" x="223.432" xlink:href="#o" width="744.094" height="1052.362"/><use y="134.765" x="228.413" xlink:href="#o" width="744.094" height="1052.362"/></g><use height="1052.362" width="744.094" xlink:href="#d" x="223.432" y="134.765" transform="translate(-294.146 583.166) scale(2.36971)" ns0:text="$1$" ns0:preamble="/home/waldgeist/data/sphinx/inkscape-preamble.tex" stroke="#333" fill="#333"/><use height="1052.362" width="744.094" y="134.765" x="223.432" xlink:href="#e" transform="translate(-261.204 583.166) scale(2.36971)" ns0:preamble="/home/waldgeist/data/sphinx/inkscape-preamble.tex" ns0:text="$2$" stroke="#333" fill="#333"/><use height="1052.362" width="744.094" xlink:href="#f" x="223.432" y="134.765" transform="translate(-228.393 582.907) scale(2.36971)" ns0:text="$3$" ns0:preamble="/home/waldgeist/data/sphinx/inkscape-preamble.tex" stroke="#333" fill="#333"/><use height="1052.362" width="744.094" y="134.765" x="223.432" xlink:href="#g" transform="translate(-195.545 583.296) scale(2.36971)" ns0:preamble="/home/waldgeist/data/sphinx/inkscape-preamble.tex" ns0:text="$4$" stroke="#333" fill="#333"/><use height="1052.362" width="744.094" xlink:href="#h" x="223.432" y="134.765" transform="translate(-162.715 582.907) scale(2.36971)" ns0:text="$5$" ns0:preamble="/home/waldgeist/data/sphinx/inkscape-preamble.tex" stroke="#333" fill="#333"/><use height="1052.362" width="744.094" y="134.765" x="223.432" xlink:href="#i" transform="translate(-129.903 582.907) scale(2.36971)" ns0:preamble="/home/waldgeist/data/sphinx/inkscape-preamble.tex" ns0:text="$6$" stroke="#333" fill="#333"/><use height="1052.362" width="744.094" xlink:href="#j" x="223.432" y="134.765" transform="translate(-97.555 583.018) scale(2.36971)" ns0:text="$7$" ns0:preamble="/home/waldgeist/data/sphinx/inkscape-preamble.tex" stroke="#333" fill="#333"/><use height="1052.362" width="744.094" y="134.765" x="223.432" xlink:href="#k" transform="translate(-64.243 582.907) scale(2.36971)" ns0:preamble="/home/waldgeist/data/sphinx/inkscape-preamble.tex" ns0:text="$8$" stroke="#333" fill="#333"/><use height="1052.362" width="744.094" xlink:href="#l" x="223.432" y="134.765" transform="translate(-31.413 582.907) scale(2.36971)" ns0:text="$9$" ns0:preamble="/home/waldgeist/data/sphinx/inkscape-preamble.tex" stroke="#333" fill="#333"/><g transform="translate(-5.06 582.907) scale(2.36971)" ns0:preamble="/home/waldgeist/data/sphinx/inkscape-preamble.tex" ns0:text="$10$" stroke="#333" fill="#333"><use height="1052.362" width="744.094" y="134.765" x="223.432" xlink:href="#m"/><use height="1052.362" width="744.094" y="134.765" x="228.413" xlink:href="#n"/></g><g transform="translate(28.252 583.166) scale(2.36971)" ns0:text="$11$" ns0:preamble="/home/waldgeist/data/sphinx/inkscape-preamble.tex" stroke="#333" fill="#333"><use height="1052.362" width="744.094" xlink:href="#o" x="223.432" y="134.765"/><use height="1052.362" width="744.094" xlink:href="#o" x="228.413" y="134.765"/></g><g ns0:text="$12$" ns0:preamble="/home/waldgeist/data/sphinx/inkscape-preamble.tex" transform="translate(60.73 583.166) scale(2.36971)" stroke="#333" fill="#333"><defs><symbol overflow="visible" id="p"><path d="M2.938-6.375c0-.25 0-.266-.235-.266C2.078-6 1.203-6 .891-6v.313c.203 0 .78 0 1.296-.266v5.172c0 .36-.03.469-.921.469H.953V0c.344-.031 1.203-.031 1.61-.031.39 0 1.265 0 1.609.031v-.313h-.313c-.906 0-.921-.109-.921-.468zm0 0" stroke="none"/></symbol><symbol overflow="visible" id="q"><path d="M1.266-.766l1.062-1.03c1.547-1.376 2.14-1.907 2.14-2.907 0-1.14-.89-1.938-2.109-1.938C1.234-6.64.5-5.719.5-4.828c0 .547.5.547.531.547.172 0 .516-.11.516-.532a.513.513 0 0 0-.531-.515c-.079 0-.094 0-.125.016.218-.657.765-1.016 1.343-1.016.907 0 1.329.812 1.329 1.625 0 .797-.485 1.578-1.047 2.203L.609-.375C.5-.265.5-.235.5 0h3.703l.266-1.734h-.235C4.172-1.438 4.11-1 4-.844c-.063.078-.719.078-.938.078zm0 0" stroke="none"/></symbol></defs><use xlink:href="#p" x="223.432" y="134.765" width="744.094" height="1052.362"/><use xlink:href="#q" x="228.413" y="134.765" width="744.094" height="1052.362"/></g><g transform="translate(93.449 583.166) scale(2.36971)" ns0:preamble="/home/waldgeist/data/sphinx/inkscape-preamble.tex" ns0:text="$13$" stroke="#333" fill="#333"><defs><symbol id="r" overflow="visible"><path d="M2.938-6.375c0-.25 0-.266-.235-.266C2.078-6 1.203-6 .891-6v.313c.203 0 .78 0 1.296-.266v5.172c0 .36-.03.469-.921.469H.953V0c.344-.031 1.203-.031 1.61-.031.39 0 1.265 0 1.609.031v-.313h-.313c-.906 0-.921-.109-.921-.468zm0 0" stroke="none"/></symbol><symbol id="s" overflow="visible"><path d="M2.89-3.516c.813-.265 1.391-.953 1.391-1.75 0-.812-.875-1.375-1.828-1.375-1 0-1.765.594-1.765 1.36 0 .328.218.515.515.515.297 0 .5-.218.5-.515 0-.485-.469-.485-.61-.485.298-.5.954-.625 1.313-.625.422 0 .969.22.969 1.11 0 .125-.031.703-.281 1.14-.297.485-.64.516-.89.516a3.29 3.29 0 0 1-.392.031c-.078.016-.14.031-.14.125 0 .11.062.11.234.11h.438c.812 0 1.187.671 1.187 1.656 0 1.36-.687 1.64-1.125 1.64-.437 0-1.187-.171-1.531-.75.344.047.656-.171.656-.546a.537.537 0 0 0-.547-.563c-.25 0-.562.14-.562.578C.422-.437 1.344.22 2.437.22c1.22 0 2.126-.906 2.126-1.922 0-.813-.641-1.594-1.672-1.813zm0 0" stroke="none"/></symbol></defs><use y="134.765" x="223.432" xlink:href="#r" width="744.094" height="1052.362"/><use y="134.765" x="228.413" xlink:href="#s" width="744.094" height="1052.362"/></g><g ns0:text="$14$" ns0:preamble="/home/waldgeist/data/sphinx/inkscape-preamble.tex" transform="translate(126.13 583.166) scale(2.36971)" stroke="#333" fill="#333"><defs><symbol overflow="visible" id="t"><path d="M2.938-6.375c0-.25 0-.266-.235-.266C2.078-6 1.203-6 .891-6v.313c.203 0 .78 0 1.296-.266v5.172c0 .36-.03.469-.921.469H.953V0c.344-.031 1.203-.031 1.61-.031.39 0 1.265 0 1.609.031v-.313h-.313c-.906 0-.921-.109-.921-.468zm0 0" stroke="none"/></symbol><symbol overflow="visible" id="u"><path d="M2.938-1.64v.859c0 .36-.032.469-.766.469h-.203V0c.406-.031.922-.031 1.343-.031.422 0 .938 0 1.36.031v-.313h-.219c-.734 0-.75-.109-.75-.468v-.86h.985v-.312h-.985v-4.531c0-.204 0-.266-.172-.266-.078 0-.11 0-.187.125L.28-1.953v.312zm.046-.313H.563l2.421-3.719zm0 0" stroke="none"/></symbol></defs><use xlink:href="#t" x="223.432" y="134.765" width="744.094" height="1052.362"/><use xlink:href="#u" x="228.413" y="134.765" width="744.094" height="1052.362"/></g><g transform="translate(159.22 583.166) scale(2.36971)" ns0:preamble="/home/waldgeist/data/sphinx/inkscape-preamble.tex" ns0:text="$15$" stroke="#333" fill="#333"><defs><symbol id="v" overflow="visible"><path d="M2.938-6.375c0-.25 0-.266-.235-.266C2.078-6 1.203-6 .891-6v.313c.203 0 .78 0 1.296-.266v5.172c0 .36-.03.469-.921.469H.953V0c.344-.031 1.203-.031 1.61-.031.39 0 1.265 0 1.609.031v-.313h-.313c-.906 0-.921-.109-.921-.468zm0 0" stroke="none"/></symbol><symbol id="w" overflow="visible"><path d="M4.469-2c0-1.188-.813-2.188-1.89-2.188-.47 0-.907.157-1.267.516v-1.953c.204.063.532.125.844.125 1.235 0 1.938-.906 1.938-1.031 0-.063-.032-.11-.11-.11 0 0-.03 0-.078.032a3.22 3.22 0 0 1-1.36.296c-.39 0-.858-.078-1.327-.28-.078-.032-.094-.032-.11-.032C1-6.625 1-6.547 1-6.391v2.954c0 .171 0 .25.14.25.079 0 .094-.016.141-.079.11-.156.469-.703 1.282-.703.515 0 .765.453.843.64.156.376.188.75.188 1.25 0 .36 0 .954-.25 1.376-.235.39-.61.64-1.063.64-.719 0-1.297-.53-1.469-1.109.032 0 .063.016.172.016.329 0 .5-.25.5-.485 0-.25-.171-.5-.5-.5-.14 0-.484.079-.484.532C.5-.75 1.188.219 2.297.219 3.453.219 4.469-.734 4.469-2zm0 0" stroke="none"/></symbol></defs><use y="134.765" x="223.432" xlink:href="#v" width="744.094" height="1052.362"/><use y="134.765" x="228.413" xlink:href="#w" width="744.094" height="1052.362"/></g><g ns0:text="$16$" ns0:preamble="/home/waldgeist/data/sphinx/inkscape-preamble.tex" transform="translate(191.939 583.166) scale(2.36971)" stroke="#333" fill="#333"><defs><symbol overflow="visible" id="x"><path d="M2.938-6.375c0-.25 0-.266-.235-.266C2.078-6 1.203-6 .891-6v.313c.203 0 .78 0 1.296-.266v5.172c0 .36-.03.469-.921.469H.953V0c.344-.031 1.203-.031 1.61-.031.39 0 1.265 0 1.609.031v-.313h-.313c-.906 0-.921-.109-.921-.468zm0 0" stroke="none"/></symbol><symbol overflow="visible" id="y"><path d="M1.313-3.266v-.25c0-2.515 1.234-2.875 1.75-2.875.234 0 .656.063.874.407-.156 0-.546 0-.546.437 0 .313.234.469.453.469.156 0 .469-.094.469-.484 0-.594-.438-1.079-1.266-1.079C1.766-6.64.422-5.359.422-3.156.422-.484 1.578.219 2.5.219c1.11 0 2.063-.938 2.063-2.25 0-1.266-.891-2.219-2-2.219-.672 0-1.047.5-1.25.984zM2.5-.062c-.625 0-.922-.594-.984-.75-.188-.47-.188-1.266-.188-1.438 0-.781.328-1.781 1.219-1.781.172 0 .625 0 .937.625.172.36.172.875.172 1.36 0 .483 0 .983-.172 1.343-.296.594-.75.64-.984.64zm0 0" stroke="none"/></symbol></defs><use xlink:href="#x" x="223.432" y="134.765" width="744.094" height="1052.362"/><use xlink:href="#y" x="228.413" y="134.765" width="744.094" height="1052.362"/></g><g transform="translate(224.454 583.166) scale(2.36971)" ns0:preamble="/home/waldgeist/data/sphinx/inkscape-preamble.tex" ns0:text="$17$" stroke="#333" fill="#333"><defs><symbol id="z" overflow="visible"><path d="M2.938-6.375c0-.25 0-.266-.235-.266C2.078-6 1.203-6 .891-6v.313c.203 0 .78 0 1.296-.266v5.172c0 .36-.03.469-.921.469H.953V0c.344-.031 1.203-.031 1.61-.031.39 0 1.265 0 1.609.031v-.313h-.313c-.906 0-.921-.109-.921-.468zm0 0" stroke="none"/></symbol><symbol id="A" overflow="visible"><path d="M4.75-6.078c.078-.11.078-.125.078-.344H2.406c-1.203 0-1.234-.125-1.265-.312H.89L.562-4.688h.25c.032-.156.11-.78.25-.906.063-.062.844-.062.97-.062h2.062c-.11.156-.89 1.25-1.11 1.578C2.078-2.734 1.75-1.344 1.75-.328c0 .094 0 .547.469.547.453 0 .453-.453.453-.547v-.516c0-.547.031-1.094.11-1.625.046-.234.171-1.094.624-1.703zm0 0" stroke="none"/></symbol></defs><use y="134.765" x="223.432" xlink:href="#z" width="744.094" height="1052.362"/><use y="134.765" x="228.413" xlink:href="#A" width="744.094" height="1052.362"/></g><g ns0:text="$18$" ns0:preamble="/home/waldgeist/data/sphinx/inkscape-preamble.tex" transform="translate(257.599 583.166) scale(2.36971)" stroke="#333" fill="#333"><defs><symbol overflow="visible" id="B"><path d="M2.938-6.375c0-.25 0-.266-.235-.266C2.078-6 1.203-6 .891-6v.313c.203 0 .78 0 1.296-.266v5.172c0 .36-.03.469-.921.469H.953V0c.344-.031 1.203-.031 1.61-.031.39 0 1.265 0 1.609.031v-.313h-.313c-.906 0-.921-.109-.921-.468zm0 0" stroke="none"/></symbol><symbol overflow="visible" id="C"><path d="M1.625-4.563c-.453-.296-.5-.625-.5-.796 0-.61.656-1.032 1.36-1.032.718 0 1.359.516 1.359 1.235 0 .578-.39 1.047-.985 1.39zm1.453.954c.719-.375 1.203-.891 1.203-1.547 0-.922-.875-1.485-1.781-1.485-1 0-1.813.735-1.813 1.672 0 .172.016.625.438 1.094.11.11.484.36.734.531C1.281-3.047.422-2.5.422-1.5.422-.453 1.438.219 2.484.219c1.125 0 2.079-.828 2.079-1.89 0-.36-.11-.813-.5-1.235-.188-.203-.344-.297-.985-.703zm-1 .421l1.235.782c.28.187.75.484.75 1.094 0 .734-.75 1.25-1.563 1.25C1.64-.063.922-.672.922-1.5c0-.578.312-1.219 1.156-1.688zm0 0" stroke="none"/></symbol></defs><use xlink:href="#B" x="223.432" y="134.765" width="744.094" height="1052.362"/><use xlink:href="#C" x="228.413" y="134.765" width="744.094" height="1052.362"/></g><g transform="translate(290.429 583.166) scale(2.36971)" ns0:preamble="/home/waldgeist/data/sphinx/inkscape-preamble.tex" ns0:text="$19$" stroke="#333" fill="#333"><defs><symbol id="D" overflow="visible"><path d="M2.938-6.375c0-.25 0-.266-.235-.266C2.078-6 1.203-6 .891-6v.313c.203 0 .78 0 1.296-.266v5.172c0 .36-.03.469-.921.469H.953V0c.344-.031 1.203-.031 1.61-.031.39 0 1.265 0 1.609.031v-.313h-.313c-.906 0-.921-.109-.921-.468zm0 0" stroke="none"/></symbol><symbol id="E" overflow="visible"><path d="M3.656-3.172v.328c0 2.328-1.031 2.781-1.61 2.781-.171 0-.718-.015-.983-.359.437 0 .515-.281.515-.453 0-.313-.234-.453-.453-.453-.156 0-.453.078-.453.469 0 .671.531 1.078 1.375 1.078 1.297 0 2.515-1.36 2.515-3.5 0-2.688-1.156-3.36-2.046-3.36-.547 0-1.032.188-1.454.625-.421.454-.64.875-.64 1.625 0 1.235.875 2.22 1.984 2.22.61 0 1.016-.423 1.25-1zm-1.234.766c-.156 0-.625 0-.922-.625-.188-.375-.188-.86-.188-1.36 0-.53 0-1 .22-1.375.265-.5.64-.625.984-.625.468 0 .796.344.968.782.11.328.157.953.157 1.406 0 .828-.344 1.797-1.22 1.797zm0 0" stroke="none"/></symbol></defs><use y="134.765" x="223.432" xlink:href="#D" width="744.094" height="1052.362"/><use y="134.765" x="228.413" xlink:href="#E" width="744.094" height="1052.362"/></g><path d="M198.697 870.34h16.734M208.492 862.687v16.734" fill="none" stroke="#000" stroke-linecap="round"/><g ns0:text="$0$" ns0:preamble="/home/waldgeist/data/sphinx/inkscape-preamble.tex" transform="translate(-346.388 582.907) scale(2.36971)" stroke="#333" fill="#333"><defs><symbol overflow="visible" id="F"><path d="M4.578-3.188c0-.796-.047-1.593-.39-2.328C3.733-6.484 2.905-6.64 2.5-6.64c-.61 0-1.328.266-1.75 1.188-.313.687-.36 1.469-.36 2.266 0 .75.032 1.64.454 2.406a1.83 1.83 0 0 0 1.64 1c.532 0 1.297-.203 1.735-1.157.312-.687.36-1.468.36-2.25zM2.484 0c-.39 0-.984-.25-1.156-1.203-.11-.594-.11-1.516-.11-2.11 0-.64 0-1.296.079-1.828.187-1.187.937-1.28 1.187-1.28.329 0 .985.187 1.172 1.171.11.563.11 1.313.11 1.938 0 .75 0 1.421-.11 2.062C3.5-.297 2.937 0 2.484 0zm0 0" stroke="none"/></symbol></defs><use height="1052.362" width="744.094" xlink:href="#F" x="223.432" y="134.765"/></g></g></svg>