<svg xmlns:ns0="http://www.iki.fi/pav/software/textext/" xmlns="http://www.w3.org/2000/svg" xmlns:xlink="http://www.w3.org/1999/xlink" width="1122.52" height="793.701" viewBox="0 0 1052.3622 744.09448"><title>Kreisbewegung eines Uhrenzeigers</title><defs><linearGradient id="b"><stop offset="0" stop-color="#ebebeb" stop-opacity=".697"/><stop offset="1" stop-color="#6c7e7c"/></linearGradient><linearGradient id="a"><stop offset="0" stop-color="#0e0e0e"/><stop offset="1" stop-color="#6a6a6a"/></linearGradient><linearGradient id="c"><stop offset="0" stop-color="#ebebeb" stop-opacity=".697"/><stop offset="1" stop-color="#6c7e7c"/></linearGradient><radialGradient xlink:href="#b" id="d" gradientUnits="userSpaceOnUse" cx="641.447" cy="340.25" fx="641.447" fy="340.25" r="245.202"/></defs><g transform="translate(0 -308.268)"><g ns0:text="$E _{\\mathrm{pot.}} = \\mathrm{max.}$" ns0:preamble="/home/waldgeist/data/sphinx/test.tex"><use height="744.094" width="1052.362" xlink:href="#textext-deb4a57a-0" x="223.432" y="134.765" transform="matrix(3.97502 0 0 3.97502 -770.492 356.283)"/><use height="744.094" width="1052.362" xlink:href="#textext-deb4a57a-2" x="230.786" y="136.259" transform="matrix(3.97502 0 0 3.97502 -770.492 356.283)"/><g transform="matrix(3.97502 0 0 3.97502 -770.492 356.283)"><use height="744.094" width="1052.362" xlink:href="#textext-deb4a57a-3" x="235.403" y="136.259"/><use height="744.094" width="1052.362" xlink:href="#textext-deb4a57a-4" x="239.374" y="136.259"/></g><use height="744.094" width="1052.362" xlink:href="#textext-deb4a57a-5" x="242.486" y="136.259" transform="matrix(3.97502 0 0 3.97502 -770.492 356.283)"/><use height="744.094" width="1052.362" xlink:href="#textext-deb4a57a-6" x="248.117" y="134.765" transform="matrix(3.97502 0 0 3.97502 -770.492 356.283)"/><g transform="matrix(3.97502 0 0 3.97502 -770.492 356.283)"><use height="744.094" width="1052.362" xlink:href="#textext-deb4a57a-7" x="258.635" y="134.765"/><use height="744.094" width="1052.362" xlink:href="#textext-deb4a57a-8" x="266.937" y="134.765"/><use height="744.094" width="1052.362" xlink:href="#textext-deb4a57a-9" x="271.919" y="134.765"/></g><use height="744.094" width="1052.362" xlink:href="#textext-deb4a57a-1" x="277.175" y="134.765" transform="matrix(3.97502 0 0 3.97502 -770.492 356.283)"/></g><g ns0:preamble="/home/waldgeist/data/sphinx/test.tex" ns0:text="\\begin{align*}\nE _{\\rm{pot}} &amp;= max. \\\\\nv &amp;= 0 \\\\\na &amp;= max.\n\\end{align*}\n"><use height="744.094" width="1052.362" y="134.765" x="367.633" xlink:href="#textext-2289d23f-0" transform="matrix(3.39125 0 0 3.39125 -521.8 349.011)"/><use height="744.094" width="1052.362" y="136.259" x="374.987" xlink:href="#textext-2289d23f-6" transform="matrix(3.39125 0 0 3.39125 -521.8 349.011)"/><g transform="matrix(3.39125 0 0 3.39125 -521.8 349.011)"><use height="744.094" width="1052.362" y="136.259" x="379.604" xlink:href="#textext-2289d23f-7"/><use height="744.094" width="1052.362" y="136.259" x="383.575" xlink:href="#textext-2289d23f-8"/></g><use height="744.094" width="1052.362" y="134.765" x="389.952" xlink:href="#textext-2289d23f-9" transform="matrix(3.39125 0 0 3.39125 -521.8 349.011)"/><g transform="matrix(3.39125 0 0 3.39125 -521.8 349.011)"><use height="744.094" width="1052.362" y="134.765" x="400.468" xlink:href="#textext-2289d23f-1"/><use height="744.094" width="1052.362" y="134.765" x="409.215" xlink:href="#textext-2289d23f-2"/><use height="744.094" width="1052.362" y="134.765" x="414.481" xlink:href="#textext-2289d23f-3"/><use height="744.094" width="1052.362" y="134.765" x="420.175" xlink:href="#textext-2289d23f-4"/></g><use height="744.094" width="1052.362" y="149.709" x="381.998" xlink:href="#textext-2289d23f-5" transform="matrix(3.39125 0 0 3.39125 -521.8 349.011)"/><use height="744.094" width="1052.362" y="149.709" x="389.952" xlink:href="#textext-2289d23f-9" transform="matrix(3.39125 0 0 3.39125 -521.8 349.011)"/><use height="744.094" width="1052.362" y="149.709" x="400.471" xlink:href="#textext-2289d23f-10" transform="matrix(3.39125 0 0 3.39125 -521.8 349.011)"/><use height="744.094" width="1052.362" y="164.653" x="381.918" xlink:href="#textext-2289d23f-2" transform="matrix(3.39125 0 0 3.39125 -521.8 349.011)"/><use height="744.094" width="1052.362" y="164.653" x="389.952" xlink:href="#textext-2289d23f-9" transform="matrix(3.39125 0 0 3.39125 -521.8 349.011)"/><g transform="matrix(3.39125 0 0 3.39125 -521.8 349.011)"><use height="744.094" width="1052.362" y="164.653" x="400.468" xlink:href="#textext-2289d23f-1"/><use height="744.094" width="1052.362" y="164.653" x="409.215" xlink:href="#textext-2289d23f-2"/><use height="744.094" width="1052.362" y="164.653" x="414.481" xlink:href="#textext-2289d23f-3"/><use height="744.094" width="1052.362" y="164.653" x="420.175" xlink:href="#textext-2289d23f-4"/></g></g><rect width="723.269" height="705.086" x="164.546" y="327.772" ry="0" rx="0" fill="#fff" stroke="#fff" stroke-width="10" stroke-linecap="round"/><g transform="matrix(.77461 0 0 .77461 118.594 128.703)" stroke="#1a1a1a"><circle transform="matrix(1.61392 0 0 1.61392 -509.065 162.975)" cx="641.447" cy="340.25" r="243.447" opacity=".6" fill="#cbd0cf" stroke-width="2.4"/><circle transform="matrix(1.10355 0 0 1.10355 -181.687 336.63)" cx="641.447" cy="340.25" r="243.447" opacity=".5" fill="url(#d)" stroke="#999" stroke-width="3.509"/><path d="M602.415 844.154c-20.283 11.71-45.719-108.649-68.342-102.587-22.622 6.062 15.529 123.014-7.892 123.014-23.42 0 14.73-116.952-7.892-123.014-22.623-6.062-48.06 114.297-68.342 102.587-20.283-11.71 71.233-93.919 54.672-110.48-16.561-16.56-98.77 74.955-110.48 54.672-11.71-20.282 108.65-45.719 102.587-68.341-6.061-22.623-123.013 15.528-123.013-7.893 0-23.42 116.952 14.73 123.013-7.892 6.062-22.623-114.297-48.06-102.587-68.342 11.71-20.283 93.919 71.233 110.48 54.672 16.56-16.561-74.955-98.77-54.672-110.48 20.283-11.71 45.72 108.65 68.342 102.588 22.622-6.062-15.529-123.014 7.892-123.014 23.42 0-14.73 116.952 7.892 123.014 22.623 6.061 48.06-114.298 68.342-102.587 20.283 11.71-71.233 93.918-54.672 110.479 16.561 16.56 98.77-74.955 110.48-54.672 11.71 20.283-108.649 45.72-102.587 68.342 6.061 22.623 123.014-15.528 123.014 7.892s-116.953-14.73-123.014 7.893c-6.062 22.622 114.297 48.059 102.587 68.342-11.71 20.282-93.919-71.233-110.48-54.672-16.56 16.56 74.955 98.769 54.672 110.479z" fill="#f9f9f9" fill-opacity=".6" stroke="none"/><g transform="translate(-931.43 -492.45) scale(7.12207)" ns0:preamble="/home/waldgeist/data/sphinx/test.tex" ns0:text="1"><defs><symbol id="e" overflow="visible"><path d="M2.938-6.375c0-.25 0-.266-.235-.266C2.078-6 1.203-6 .891-6v.313c.203 0 .78 0 1.296-.266v5.172c0 .36-.03.469-.921.469H.953V0c.344-.031 1.203-.031 1.61-.031.39 0 1.265 0 1.609.031v-.313h-.313c-.906 0-.921-.109-.921-.468zm0 0" stroke="none"/></symbol></defs><use y="134.765" x="223.432" xlink:href="#e" width="1052.362" height="744.094" transform="translate(1.418 -1.277)"/></g><g ns0:text="2" ns0:preamble="/home/waldgeist/data/sphinx/test.tex" transform="translate(-809.201 -392.95) scale(7.12207)"><defs><symbol overflow="visible" id="f"><path d="M1.266-.766l1.062-1.03c1.547-1.376 2.14-1.907 2.14-2.907 0-1.14-.89-1.938-2.109-1.938C1.234-6.64.5-5.719.5-4.828c0 .547.5.547.531.547.172 0 .516-.11.516-.532a.513.513 0 0 0-.531-.515c-.079 0-.094 0-.125.016.218-.657.765-1.016 1.343-1.016.907 0 1.329.812 1.329 1.625 0 .797-.485 1.578-1.047 2.203L.609-.375C.5-.265.5-.235.5 0h3.703l.266-1.734h-.235C4.172-1.438 4.11-1 4-.844c-.063.078-.719.078-.938.078zm0 0" stroke="none"/></symbol></defs><use height="744.094" width="1052.362" xlink:href="#f" x="223.432" y="134.765"/></g><g transform="translate(-774.35 -225.264) scale(7.12207)" ns0:preamble="/home/waldgeist/data/sphinx/test.tex" ns0:text="3"><defs><symbol id="g" overflow="visible"><path d="M2.89-3.516c.813-.265 1.391-.953 1.391-1.75 0-.812-.875-1.375-1.828-1.375-1 0-1.765.594-1.765 1.36 0 .328.218.515.515.515.297 0 .5-.218.5-.515 0-.485-.469-.485-.61-.485.298-.5.954-.625 1.313-.625.422 0 .969.22.969 1.11 0 .125-.031.703-.281 1.14-.297.485-.64.516-.89.516a3.29 3.29 0 0 1-.392.031c-.078.016-.14.031-.14.125 0 .11.062.11.234.11h.438c.812 0 1.187.671 1.187 1.656 0 1.36-.687 1.64-1.125 1.64-.437 0-1.187-.171-1.531-.75.344.047.656-.171.656-.546a.537.537 0 0 0-.547-.563c-.25 0-.562.14-.562.578C.422-.437 1.344.22 2.437.22c1.22 0 2.126-.906 2.126-1.922 0-.813-.641-1.594-1.672-1.813zm0 0" stroke="none"/></symbol></defs><use height="744.094" width="1052.362" y="134.765" x="223.432" xlink:href="#g"/></g><g ns0:text="4" ns0:preamble="/home/waldgeist/data/sphinx/test.tex" transform="translate(-814.252 -76.772) scale(7.12207)"><defs><symbol overflow="visible" id="h"><path d="M2.938-1.64v.859c0 .36-.032.469-.766.469h-.203V0c.406-.031.922-.031 1.343-.031.422 0 .938 0 1.36.031v-.313h-.219c-.734 0-.75-.109-.75-.468v-.86h.985v-.312h-.985v-4.531c0-.204 0-.266-.172-.266-.078 0-.11 0-.187.125L.28-1.953v.312zm.046-.313H.563l2.421-3.719zm0 0" stroke="none"/></symbol></defs><use height="744.094" width="1052.362" xlink:href="#h" x="223.432" y="134.765"/></g><g transform="translate(-1107.196 -542.957) scale(7.12207)" ns0:preamble="/home/waldgeist/data/sphinx/test.tex" ns0:text="12"><defs><symbol id="i" overflow="visible"><path d="M2.938-6.375c0-.25 0-.266-.235-.266C2.078-6 1.203-6 .891-6v.313c.203 0 .78 0 1.296-.266v5.172c0 .36-.03.469-.921.469H.953V0c.344-.031 1.203-.031 1.61-.031.39 0 1.265 0 1.609.031v-.313h-.313c-.906 0-.921-.109-.921-.468zm0 0" stroke="none"/></symbol><symbol id="j" overflow="visible"><path d="M1.266-.766l1.062-1.03c1.547-1.376 2.14-1.907 2.14-2.907 0-1.14-.89-1.938-2.109-1.938C1.234-6.64.5-5.719.5-4.828c0 .547.5.547.531.547.172 0 .516-.11.516-.532a.513.513 0 0 0-.531-.515c-.079 0-.094 0-.125.016.218-.657.765-1.016 1.343-1.016.907 0 1.329.812 1.329 1.625 0 .797-.485 1.578-1.047 2.203L.609-.375C.5-.265.5-.235.5 0h3.703l.266-1.734h-.235C4.172-1.438 4.11-1 4-.844c-.063.078-.719.078-.938.078zm0 0" stroke="none"/></symbol></defs><use y="134.765" x="223.432" xlink:href="#i" width="1052.362" height="744.094"/><use y="134.765" x="228.413" xlink:href="#j" width="1052.362" height="744.094"/></g><g ns0:text="5" ns0:preamble="/home/waldgeist/data/sphinx/test.tex" transform="translate(-931.43 42.931) scale(7.12207)"><defs><symbol overflow="visible" id="k"><path d="M4.469-2c0-1.188-.813-2.188-1.89-2.188-.47 0-.907.157-1.267.516v-1.953c.204.063.532.125.844.125 1.235 0 1.938-.906 1.938-1.031 0-.063-.032-.11-.11-.11 0 0-.03 0-.078.032a3.22 3.22 0 0 1-1.36.296c-.39 0-.858-.078-1.327-.28-.078-.032-.094-.032-.11-.032C1-6.625 1-6.547 1-6.391v2.954c0 .171 0 .25.14.25.079 0 .094-.016.141-.079.11-.156.469-.703 1.282-.703.515 0 .765.453.843.64.156.376.188.75.188 1.25 0 .36 0 .954-.25 1.376-.235.39-.61.64-1.063.64-.719 0-1.297-.53-1.469-1.109.032 0 .063.016.172.016.329 0 .5-.25.5-.485 0-.25-.171-.5-.5-.5-.14 0-.484.079-.484.532C.5-.75 1.188.219 2.297.219 3.453.219 4.469-.734 4.469-2zm0 0" stroke="none"/></symbol></defs><use height="744.094" width="1052.362" xlink:href="#k" x="223.432" y="134.765" transform="translate(1.206 1.631)"/></g><g transform="translate(-1083.79 97.144) scale(7.12207)" ns0:preamble="/home/waldgeist/data/sphinx/test.tex" ns0:text="6"><defs><symbol id="l" overflow="visible"><path d="M1.313-3.266v-.25c0-2.515 1.234-2.875 1.75-2.875.234 0 .656.063.874.407-.156 0-.546 0-.546.437 0 .313.234.469.453.469.156 0 .469-.094.469-.484 0-.594-.438-1.079-1.266-1.079C1.766-6.64.422-5.359.422-3.156.422-.484 1.578.219 2.5.219c1.11 0 2.063-.938 2.063-2.25 0-1.266-.891-2.219-2-2.219-.672 0-1.047.5-1.25.984zM2.5-.062c-.625 0-.922-.594-.984-.75-.188-.47-.188-1.266-.188-1.438 0-.781.328-1.781 1.219-1.781.172 0 .625 0 .937.625.172.36.172.875.172 1.36 0 .483 0 .983-.172 1.343-.296.594-.75.64-.984.64zm0 0" stroke="none"/></symbol></defs><use height="744.094" width="1052.362" y="134.765" x="223.432" xlink:href="#l"/></g><g ns0:text="7" ns0:preamble="/home/waldgeist/data/sphinx/test.tex" transform="translate(-1249.628 54.043) scale(7.12207)"><defs><symbol overflow="visible" id="m"><path d="M4.75-6.078c.078-.11.078-.125.078-.344H2.406c-1.203 0-1.234-.125-1.265-.312H.89L.562-4.688h.25c.032-.156.11-.78.25-.906.063-.062.844-.062.97-.062h2.062c-.11.156-.89 1.25-1.11 1.578C2.078-2.734 1.75-1.344 1.75-.328c0 .094 0 .547.469.547.453 0 .453-.453.453-.547v-.516c0-.547.031-1.094.11-1.625.046-.234.171-1.094.624-1.703zm0 0" stroke="none"/></symbol></defs><use height="744.094" width="1052.362" xlink:href="#m" x="223.432" y="134.765"/></g><g transform="translate(-1357.209 -69.7) scale(7.12207)" ns0:preamble="/home/waldgeist/data/sphinx/test.tex" ns0:text="8"><defs><symbol id="n" overflow="visible"><path d="M1.625-4.563c-.453-.296-.5-.625-.5-.796 0-.61.656-1.032 1.36-1.032.718 0 1.359.516 1.359 1.235 0 .578-.39 1.047-.985 1.39zm1.453.954c.719-.375 1.203-.891 1.203-1.547 0-.922-.875-1.485-1.781-1.485-1 0-1.813.735-1.813 1.672 0 .172.016.625.438 1.094.11.11.484.36.734.531C1.281-3.047.422-2.5.422-1.5.422-.453 1.438.219 2.484.219c1.125 0 2.079-.828 2.079-1.89 0-.36-.11-.813-.5-1.235-.188-.203-.344-.297-.985-.703zm-1 .421l1.235.782c.28.187.75.484.75 1.094 0 .734-.75 1.25-1.563 1.25C1.64-.063.922-.672.922-1.5c0-.578.312-1.219 1.156-1.688zm0 0" stroke="none"/></symbol></defs><use height="744.094" width="1052.362" y="134.765" x="223.432" xlink:href="#n"/></g><g ns0:text="9" ns0:preamble="/home/waldgeist/data/sphinx/test.tex" transform="translate(-1394.584 -220.718) scale(7.12207)"><defs><symbol overflow="visible" id="o"><path d="M3.656-3.172v.328c0 2.328-1.031 2.781-1.61 2.781-.171 0-.718-.015-.983-.359.437 0 .515-.281.515-.453 0-.313-.234-.453-.453-.453-.156 0-.453.078-.453.469 0 .671.531 1.078 1.375 1.078 1.297 0 2.515-1.36 2.515-3.5 0-2.688-1.156-3.36-2.046-3.36-.547 0-1.032.188-1.454.625-.421.454-.64.875-.64 1.625 0 1.235.875 2.22 1.984 2.22.61 0 1.016-.423 1.25-1zm-1.234.766c-.156 0-.625 0-.922-.625-.188-.375-.188-.86-.188-1.36 0-.53 0-1 .22-1.375.265-.5.64-.625.984-.625.468 0 .796.344.968.782.11.328.157.953.157 1.406 0 .828-.344 1.797-1.22 1.797zm0 0" stroke="none"/></symbol></defs><use height="744.094" width="1052.362" xlink:href="#o" x="223.432" y="134.765"/></g><g transform="translate(-1387.008 -388.909) scale(7.12207)" ns0:preamble="/home/waldgeist/data/sphinx/test.tex" ns0:text="10"><defs><symbol id="p" overflow="visible"><path d="M2.938-6.375c0-.25 0-.266-.235-.266C2.078-6 1.203-6 .891-6v.313c.203 0 .78 0 1.296-.266v5.172c0 .36-.03.469-.921.469H.953V0c.344-.031 1.203-.031 1.61-.031.39 0 1.265 0 1.609.031v-.313h-.313c-.906 0-.921-.109-.921-.468zm0 0" stroke="none"/></symbol><symbol id="q" overflow="visible"><path d="M4.578-3.188c0-.796-.047-1.593-.39-2.328C3.733-6.484 2.905-6.64 2.5-6.64c-.61 0-1.328.266-1.75 1.188-.313.687-.36 1.469-.36 2.266 0 .75.032 1.64.454 2.406a1.83 1.83 0 0 0 1.64 1c.532 0 1.297-.203 1.735-1.157.312-.687.36-1.468.36-2.25zM2.484 0c-.39 0-.984-.25-1.156-1.203-.11-.594-.11-1.516-.11-2.11 0-.64 0-1.296.079-1.828.187-1.187.937-1.28 1.187-1.28.329 0 .985.187 1.172 1.171.11.563.11 1.313.11 1.938 0 .75 0 1.421-.11 2.062C3.5-.297 2.937 0 2.484 0zm0 0" stroke="none"/></symbol></defs><use y="134.765" x="223.432" xlink:href="#p" width="1052.362" height="744.094"/><use y="134.765" x="228.413" xlink:href="#q" width="1052.362" height="744.094"/></g><g ns0:text="11" ns0:preamble="/home/waldgeist/data/sphinx/test.tex" transform="translate(-1273.871 -505.581) scale(7.12207)"><defs><symbol overflow="visible" id="r"><path d="M2.938-6.375c0-.25 0-.266-.235-.266C2.078-6 1.203-6 .891-6v.313c.203 0 .78 0 1.296-.266v5.172c0 .36-.03.469-.921.469H.953V0c.344-.031 1.203-.031 1.61-.031.39 0 1.265 0 1.609.031v-.313h-.313c-.906 0-.921-.109-.921-.468zm0 0" stroke="none"/></symbol></defs><use height="744.094" width="1052.362" xlink:href="#r" x="223.432" y="134.765"/><use height="744.094" width="1052.362" xlink:href="#r" x="228.413" y="134.765"/></g></g><g fill="green" stroke="green"><path d="M744.153 467.909c31.179 35.178 55.603 70.844 69.149 111.21" stroke-width="14.945" stroke-linecap="square"/><path d="M815.383 588.217l-3.658-3.978-3.698-3.941 5.275-1.18 5.262-1.23-1.616 5.156z" stroke-width="14.953841"/></g><circle transform="matrix(.8085 0 0 .8085 87.863 380.75)" cx="542.143" cy="370.523" r="17.143" fill="#333" stroke="#fff" stroke-width="3.711"/><g fill="green" stroke="green"><path d="M438.505 491.527l1.556-.708" stroke-width="14.945" stroke-linecap="square"/><path d="M453.33 485.398l-3.522 3.962-3.57 3.919-1.67-5.03-1.609-5.052 5.192 1.068z" stroke-width="14.953841"/></g><g fill="#6f6f91" stroke="#373748"><path d="M525.093 680.423l-77.754-162.807" stroke-width="15.000094719999998" stroke-linecap="round"/><g stroke-linecap="round"><path d="M526.462 680.034l197.306-194.822" stroke-width="10.00040028"/><path d="M140-67.195c11.591 0 53.91 2.494 59.706 12.533 5.796 10.038-13.204 47.934-19 57.973-5.795 10.038-29.115 45.44-40.706 45.44-11.591 0-34.911-35.402-40.707-45.44-5.795-10.039-24.795-47.935-18.999-57.973C86.09-64.701 128.41-67.195 140-67.195z" transform="matrix(-.07915 .29542 -.29108 -.078 728.971 442.278)" stroke-width="32.939"/><path transform="matrix(.26487 .1529 -.15069 .26098 407.214 501.478)" d="M140-67.195c11.591 0 53.91 2.494 59.706 12.533 5.796 10.038-13.204 47.934-19 57.973-5.795 10.038-29.115 45.44-40.706 45.44-11.591 0-34.911-35.402-40.707-45.44-5.795-10.039-24.795-47.935-18.999-57.973C86.09-64.701 128.41-67.195 140-67.195z" stroke-width="32.939"/></g></g></g></svg>