<svg xmlns:ns0="http://www.iki.fi/pav/software/textext/" xmlns="http://www.w3.org/2000/svg" xmlns:xlink="http://www.w3.org/1999/xlink" width="793.701" height="1122.52" viewBox="0 0 744.09448 1052.3622"><title>Kreisbewegung eines Fahrzeugs</title><defs><linearGradient id="b"><stop offset="0" stop-color="#ebebeb" stop-opacity=".697"/><stop offset="1" stop-color="#6c7e7c"/></linearGradient><linearGradient id="a"><stop offset="0" stop-color="#0e0e0e"/><stop offset="1" stop-color="#6a6a6a"/></linearGradient><linearGradient id="c"><stop offset="0" stop-color="#ebebeb" stop-opacity=".697"/><stop offset="1" stop-color="#6c7e7c"/></linearGradient></defs><g ns0:preamble="/home/waldgeist/data/sphinx/test.tex" ns0:text="$E _{\\mathrm{pot.}} = \\mathrm{max.}$"><use y="134.765" x="223.432" xlink:href="#textext-deb4a57a-0" width="1052.362" height="744.094" transform="matrix(3.97502 0 0 3.97502 -770.492 356.283)"/><use y="136.259" x="230.786" xlink:href="#textext-deb4a57a-2" width="1052.362" height="744.094" transform="matrix(3.97502 0 0 3.97502 -770.492 356.283)"/><g transform="matrix(3.97502 0 0 3.97502 -770.492 356.283)"><use y="136.259" x="235.403" xlink:href="#textext-deb4a57a-3" width="1052.362" height="744.094"/><use y="136.259" x="239.374" xlink:href="#textext-deb4a57a-4" width="1052.362" height="744.094"/></g><use y="136.259" x="242.486" xlink:href="#textext-deb4a57a-5" width="1052.362" height="744.094" transform="matrix(3.97502 0 0 3.97502 -770.492 356.283)"/><use y="134.765" x="248.117" xlink:href="#textext-deb4a57a-6" width="1052.362" height="744.094" transform="matrix(3.97502 0 0 3.97502 -770.492 356.283)"/><g transform="matrix(3.97502 0 0 3.97502 -770.492 356.283)"><use y="134.765" x="258.635" xlink:href="#textext-deb4a57a-7" width="1052.362" height="744.094"/><use y="134.765" x="266.937" xlink:href="#textext-deb4a57a-8" width="1052.362" height="744.094"/><use y="134.765" x="271.919" xlink:href="#textext-deb4a57a-9" width="1052.362" height="744.094"/></g><use y="134.765" x="277.175" xlink:href="#textext-deb4a57a-1" width="1052.362" height="744.094" transform="matrix(3.97502 0 0 3.97502 -770.492 356.283)"/></g><g ns0:text="\\begin{align*}\nE _{\\rm{pot}} &amp;= max. \\\\\nv &amp;= 0 \\\\\na &amp;= max.\n\\end{align*}\n" ns0:preamble="/home/waldgeist/data/sphinx/test.tex"><use xlink:href="#textext-2289d23f-0" x="367.633" y="134.765" width="1052.362" height="744.094" transform="matrix(3.39125 0 0 3.39125 -521.8 349.011)"/><use xlink:href="#textext-2289d23f-6" x="374.987" y="136.259" width="1052.362" height="744.094" transform="matrix(3.39125 0 0 3.39125 -521.8 349.011)"/><g transform="matrix(3.39125 0 0 3.39125 -521.8 349.011)"><use xlink:href="#textext-2289d23f-7" x="379.604" y="136.259" width="1052.362" height="744.094"/><use xlink:href="#textext-2289d23f-8" x="383.575" y="136.259" width="1052.362" height="744.094"/></g><use xlink:href="#textext-2289d23f-9" x="389.952" y="134.765" width="1052.362" height="744.094" transform="matrix(3.39125 0 0 3.39125 -521.8 349.011)"/><g transform="matrix(3.39125 0 0 3.39125 -521.8 349.011)"><use xlink:href="#textext-2289d23f-1" x="400.468" y="134.765" width="1052.362" height="744.094"/><use xlink:href="#textext-2289d23f-2" x="409.215" y="134.765" width="1052.362" height="744.094"/><use xlink:href="#textext-2289d23f-3" x="414.481" y="134.765" width="1052.362" height="744.094"/><use xlink:href="#textext-2289d23f-4" x="420.175" y="134.765" width="1052.362" height="744.094"/></g><use xlink:href="#textext-2289d23f-5" x="381.998" y="149.709" width="1052.362" height="744.094" transform="matrix(3.39125 0 0 3.39125 -521.8 349.011)"/><use xlink:href="#textext-2289d23f-9" x="389.952" y="149.709" width="1052.362" height="744.094" transform="matrix(3.39125 0 0 3.39125 -521.8 349.011)"/><use xlink:href="#textext-2289d23f-10" x="400.471" y="149.709" width="1052.362" height="744.094" transform="matrix(3.39125 0 0 3.39125 -521.8 349.011)"/><use xlink:href="#textext-2289d23f-2" x="381.918" y="164.653" width="1052.362" height="744.094" transform="matrix(3.39125 0 0 3.39125 -521.8 349.011)"/><use xlink:href="#textext-2289d23f-9" x="389.952" y="164.653" width="1052.362" height="744.094" transform="matrix(3.39125 0 0 3.39125 -521.8 349.011)"/><g transform="matrix(3.39125 0 0 3.39125 -521.8 349.011)"><use xlink:href="#textext-2289d23f-1" x="400.468" y="164.653" width="1052.362" height="744.094"/><use xlink:href="#textext-2289d23f-2" x="409.215" y="164.653" width="1052.362" height="744.094"/><use xlink:href="#textext-2289d23f-3" x="414.481" y="164.653" width="1052.362" height="744.094"/><use xlink:href="#textext-2289d23f-4" x="420.175" y="164.653" width="1052.362" height="744.094"/></g></g><path fill="#fff" stroke="#fff" stroke-width="3" stroke-linecap="round" stroke-linejoin="round" d="M90.28 298.324h563.534v455.714H90.28z"/><path d="M282.038 539.84A282.211 282.211 0 0 1 527.01 397.743" fill="none" stroke="#999" stroke-width="3.00008724" stroke-linecap="round" stroke-dasharray="2.5879206,10.3516824"/><path d="M222.463 539.473A335.387 335.387 0 0 1 527.01 344.568" fill="none" stroke="#999" stroke-width="3.00054348" stroke-linecap="round" stroke-dasharray="2.17760772,8.71043088"/><g opacity=".5" fill="green" stroke="green" stroke-width="1.175"><path d="M239.415 507.392c19.006-35.202 66.683-85.679 99.989-105.445" opacity=".5" stroke-width="14.9446136" stroke-linecap="square"/><path d="M350.415 396l-1.861 4.008-2.008 3.938-2.54-3.617-2.407-3.707 4.402-.392z" stroke-width="14.95414608"/></g><circle transform="rotate(-120 572.71 423) scale(.68807)" cx="542.143" cy="370.523" r="17.143" fill="#333" stroke="#fff" stroke-width="4.36"/><path d="M332.7 557.55a232.242 232.242 0 0 1 194.31-105.042" fill="none" stroke="#999" stroke-width="3.00023565" stroke-linecap="round" stroke-dasharray="3.14473924,12.57895695"/><g opacity=".5" fill="green" stroke="green" stroke-width="1.175"><path d="M353.86 529.419c14.696-15.27 27.069-24.702 42.482-35.887" opacity=".5" stroke-width="14.9446136" stroke-linecap="square"/><path d="M407.61 486.157l-1.96 3.977-2.09 3.91-2.464-3.686-2.341-3.765 4.424-.291z" stroke-width="14.95414608"/></g><g fill="green" stroke="green" stroke-width="1.175"><path d="M284.738 533.42c19.007-35.202 50.841-61.155 79.147-83.778" stroke-width="14.9446136" stroke-linecap="square"/><path d="M379.783 439.733l-1.887 3.996-2.034 3.924-2.517-3.633-2.382-3.723 4.405-.363z" stroke-width="14.953975260000002"/></g><g transform="matrix(.85106 0 0 .85106 333.223 -69.695)"><rect ry="5.813" y="870.403" x="-135.226" height="38.368" width="12.789" fill="#4d4d4d" stroke="#767676" stroke-width="3.525" stroke-linecap="round"/><rect width="68.067" height="161.298" x="-96.961" y="725.966" ry="7.299" fill="#deaa87" stroke="#502d16" stroke-width="4.7" stroke-linecap="round"/><path d="M-134.176 881.164H6.321" fill="none" stroke="#333" stroke-width="9.4"/><g transform="translate(5 -4.405)"><rect ry="9.994" y="-918.551" x="-8.538" height="65.963" width="21.719" transform="scale(1 -1)" fill="#ababab" stroke="#333" stroke-width="2.35" stroke-linecap="round"/><g stroke="#333"><g stroke-width="1.804"><path d="M8.418 917.027l-2.094-4.187 2.094-4.187M8.418 908.653l-2.094-4.187 2.094-4.186M8.418 900.28l-2.094-4.187 2.094-4.187M8.418 891.906l-2.094-4.186 2.094-4.187" fill="none" stroke-linecap="round" stroke-width="1.76230956"/><path d="M8.418 883.533l-2.094-4.187 2.094-4.186M8.418 875.16l-2.094-4.187 2.094-4.187M8.418 866.786L6.324 862.6l2.094-4.187M8.418 858.413l-2.094-4.187" fill="none" stroke-linecap="round" stroke-width="1.76230956"/></g><g stroke-width="1.804"><path d="M-1.682 916.533l-2.093-4.187 2.093-4.186M-1.682 908.16l-2.093-4.187 2.093-4.187M-1.682 899.786l-2.093-4.186 2.093-4.187" fill="none" stroke-linecap="round" stroke-width="1.76230956"/><path d="M-1.682 891.413l-2.093-4.187 2.093-4.186M-1.682 883.04l-2.093-4.187 2.093-4.187" fill="none" stroke-linecap="round" stroke-width="1.76230956"/><path d="M-1.682 874.666l-2.093-4.186 2.093-4.187M-1.682 866.293l-2.093-4.187 2.093-4.186M-1.682 857.92l-2.093-4.187" fill="none" stroke-linecap="round" stroke-width="1.76230956"/></g><path d="M2.321 918.55v-65.962" fill="none" stroke-width="2.35"/></g></g><g transform="translate(-135.497 -4.405)"><rect transform="scale(1 -1)" width="21.719" height="65.963" x="-8.538" y="-918.551" ry="9.994" fill="#ababab" stroke="#333" stroke-width="2.35" stroke-linecap="round"/><g stroke="#333"><g stroke-width="1.804"><path d="M8.418 917.027l-2.094-4.187 2.094-4.187M8.418 908.653l-2.094-4.187 2.094-4.186M8.418 900.28l-2.094-4.187 2.094-4.187M8.418 891.906l-2.094-4.186 2.094-4.187" fill="none" stroke-linecap="round" stroke-width="1.76230956"/><path d="M8.418 883.533l-2.094-4.187 2.094-4.186M8.418 875.16l-2.094-4.187 2.094-4.187M8.418 866.786L6.324 862.6l2.094-4.187M8.418 858.413l-2.094-4.187" fill="none" stroke-linecap="round" stroke-width="1.76230956"/></g><g stroke-width="1.804"><path d="M-1.682 916.533l-2.093-4.187 2.093-4.186M-1.682 908.16l-2.093-4.187 2.093-4.187M-1.682 899.786l-2.093-4.186 2.093-4.187" fill="none" stroke-linecap="round" stroke-width="1.76230956"/><path d="M-1.682 891.413l-2.093-4.187 2.093-4.186M-1.682 883.04l-2.093-4.187 2.093-4.187" fill="none" stroke-linecap="round" stroke-width="1.76230956"/><path d="M-1.682 874.666l-2.093-4.186 2.093-4.187M-1.682 866.293l-2.093-4.187 2.093-4.186M-1.682 857.92l-2.093-4.187" fill="none" stroke-linecap="round" stroke-width="1.76230956"/></g><path d="M2.321 918.55v-65.962" fill="none" stroke-width="2.35"/></g></g><rect ry="5.813" y="874.772" x="-110.706" height="12.784" width="95.557" fill="#a05a2c" stroke="#502d16" stroke-width="4.7" stroke-linecap="round"/><rect width="95.557" height="12.784" x="-110.706" y="722.241" ry="5.813" fill="#a05a2c" stroke="#502d16" stroke-width="4.7" stroke-linecap="round"/><g transform="scale(-1 1) rotate(-26 -40.724 446.606)"><path d="M-134.176 728.633h28.525l6.374 23.79" fill="none" stroke="#333" stroke-width="9.4" stroke-linecap="round"/><circle transform="matrix(1.29344 0 0 1.29344 -328.193 550.473)" cx="172.055" cy="137.742" r="1.583" fill="#fc0" stroke="#000" stroke-width=".908" stroke-linejoin="round"/></g><g transform="rotate(25.929 315.64 811.445)"><rect ry="9.994" y="-918.551" x="-8.538" height="65.963" width="21.719" transform="scale(1 -1)" fill="#ababab" stroke="#333" stroke-width="2.35" stroke-linecap="round"/><g stroke="#333"><g stroke-width="1.804"><path d="M8.418 917.027l-2.094-4.187 2.094-4.187M8.418 908.653l-2.094-4.187 2.094-4.186M8.418 900.28l-2.094-4.187 2.094-4.187M8.418 891.906l-2.094-4.186 2.094-4.187" fill="none" stroke-linecap="round" stroke-width="1.76230956"/><path d="M8.418 883.533l-2.094-4.187 2.094-4.186M8.418 875.16l-2.094-4.187 2.094-4.187M8.418 866.786L6.324 862.6l2.094-4.187M8.418 858.413l-2.094-4.187" fill="none" stroke-linecap="round" stroke-width="1.76230956"/></g><g stroke-width="1.804"><path d="M-1.682 916.533l-2.093-4.187 2.093-4.186M-1.682 908.16l-2.093-4.187 2.093-4.187M-1.682 899.786l-2.093-4.186 2.093-4.187" fill="none" stroke-linecap="round" stroke-width="1.76230956"/><path d="M-1.682 891.413l-2.093-4.187 2.093-4.186M-1.682 883.04l-2.093-4.187 2.093-4.187" fill="none" stroke-linecap="round" stroke-width="1.76230956"/><path d="M-1.682 874.666l-2.093-4.186 2.093-4.187M-1.682 866.293l-2.093-4.187 2.093-4.186M-1.682 857.92l-2.093-4.187" fill="none" stroke-linecap="round" stroke-width="1.76230956"/></g><path d="M2.321 918.55v-65.962" fill="none" stroke-width="2.35"/></g></g><g><g transform="rotate(24.39 -105.151 730.947)"><path d="M-134.176 728.633h28.525l6.374 23.79" fill="none" stroke="#333" stroke-width="9.4" stroke-linecap="round"/><circle transform="matrix(1.29344 0 0 1.29344 -328.193 550.473)" cx="172.055" cy="137.742" r="1.583" fill="#fc0" stroke="#000" stroke-width=".908" stroke-linejoin="round"/></g><g transform="scale(-1 1) rotate(-24.39 -323.856 504.362)"><rect transform="scale(1 -1)" width="21.719" height="65.963" x="-8.538" y="-918.551" ry="9.994" fill="#ababab" stroke="#333" stroke-width="2.35" stroke-linecap="round"/><g stroke="#333"><g stroke-width="1.804"><path d="M8.418 917.027l-2.094-4.187 2.094-4.187M8.418 908.653l-2.094-4.187 2.094-4.186M8.418 900.28l-2.094-4.187 2.094-4.187M8.418 891.906l-2.094-4.186 2.094-4.187" fill="none" stroke-linecap="round" stroke-width="1.76230956"/><path d="M8.418 883.533l-2.094-4.187 2.094-4.186M8.418 875.16l-2.094-4.187 2.094-4.187M8.418 866.786L6.324 862.6l2.094-4.187M8.418 858.413l-2.094-4.187" fill="none" stroke-linecap="round" stroke-width="1.76230956"/></g><g stroke-width="1.804"><path d="M-1.682 916.533l-2.093-4.187 2.093-4.186M-1.682 908.16l-2.093-4.187 2.093-4.187M-1.682 899.786l-2.093-4.186 2.093-4.187" fill="none" stroke-linecap="round" stroke-width="1.76230956"/><path d="M-1.682 891.413l-2.093-4.187 2.093-4.186M-1.682 883.04l-2.093-4.187 2.093-4.187" fill="none" stroke-linecap="round" stroke-width="1.76230956"/><path d="M-1.682 874.666l-2.093-4.186 2.093-4.187M-1.682 866.293l-2.093-4.187 2.093-4.186M-1.682 857.92l-2.093-4.187" fill="none" stroke-linecap="round" stroke-width="1.76230956"/></g><path d="M2.321 918.55v-65.962" fill="none" stroke-width="2.35"/></g></g></g><g transform="rotate(-4.005 -109.568 889.424)"><path d="M-99.277 752.423h68.699" fill="#6c5d53" stroke="#483e37" stroke-width="4.7" stroke-linecap="round"/><circle transform="matrix(1.29344 0 0 1.29344 -321.819 574.263)" cx="172.055" cy="137.742" r="1.583" fill="#fc0" stroke="#000" stroke-width=".908" stroke-linejoin="round"/><circle transform="scale(1.29344) rotate(38.165 -567.499 76.886)" cx="172.055" cy="137.742" r="1.583" fill="#fc0" stroke="#000" stroke-width=".908" stroke-linejoin="round"/></g></g><path d="M222.049 540.388l304.387 139.14M336.401 557.029l190.409 122.5M279.668 679.946h248.304" fill="none" stroke="#999" stroke-width="1.5" stroke-linecap="round" stroke-dasharray=".99999988,2.99999964"/></svg>