<svg xmlns="http://www.w3.org/2000/svg" width="1052.362" height="744.094"><title>Der Potenz-Flaschenzug</title><g transform="translate(0 -308.268)"><rect ry="18.576" rx="1.231" y="142.83" x="-834.449" height="766.703" width="308.268" transform="rotate(-90)" fill="#fff" stroke="#fff"/><path d="M164.252 777.355H888.11" fill="none" stroke="gray" stroke-width="16" stroke-linecap="round"/><path style="marker:none" color="#000" fill="#d35f5f" stroke="#501616" stroke-linecap="round" stroke-linejoin="round" overflow="visible" d="M186.95 759.19l342.257-91.708 2.724 10.165-342.257 91.708z"/><rect style="marker:none" width="6.039" height="88.872" x="528.888" y="679.983" rx="0" ry="0" color="#000" fill="#b3b3b3" stroke="#4d4d4d" stroke-linecap="round" stroke-linejoin="round" overflow="visible"/><rect ry="0" rx="0" y="586.749" x="868.15" height="182.355" width="6.039" style="marker:none" color="#000" fill="#b3b3b3" stroke="#4d4d4d" stroke-linecap="round" stroke-linejoin="round" overflow="visible"/><path style="marker:none" d="M872.968 570.7a5.315 5.315 0 1 1-10.63 0 5.315 5.315 0 1 1 10.63 0z" color="#000" fill="#00f" stroke="navy" stroke-linecap="round" stroke-linejoin="round" overflow="visible"/><path style="marker:none" color="#000" fill="#d35f5f" stroke="#501616" stroke-linecap="round" stroke-linejoin="round" overflow="visible" d="M529.207 667.483l342.258-91.708 2.724 10.165-342.258 91.708z"/><rect style="marker:none" width="24.492" height="8.164" x="325.946" y="785.536" rx="1.705" ry="8.164" transform="rotate(-15)" color="#000" fill="#b3b3b3" stroke="#4d4d4d" stroke-linecap="round" stroke-linejoin="round" overflow="visible"/><path style="marker:none" d="M186.781 744.861c-2.261 0-4.062.774-4.062 1.72v21.062c0 .428.38.826 1 1.125.212.372.439.593.687.593H205.5c.945 0 1.688-2.994 1.688-6.718 0-3.725-.743-6.72-1.688-6.72h-14.625v-9.343c0-.945-1.832-1.719-4.094-1.719z" opacity=".8" color="#000" fill="#b3b3b3" stroke="#4d4d4d" stroke-linecap="round" stroke-linejoin="round" overflow="visible"/></g></svg>