<svg xmlns:ns0="http://www.iki.fi/pav/software/textext/" xmlns="http://www.w3.org/2000/svg" xmlns:xlink="http://www.w3.org/1999/xlink" width="793.701" height="1122.52" viewBox="0 0 744.09448 1052.3622"><title>Radialbeschleunigung</title><defs><linearGradient id="b"><stop offset="0" stop-color="#ebebeb" stop-opacity=".697"/><stop offset="1" stop-color="#6c7e7c"/></linearGradient><linearGradient id="a"><stop offset="0" stop-color="#0e0e0e"/><stop offset="1" stop-color="#6a6a6a"/></linearGradient><marker id="d" orient="auto" overflow="visible"><path d="M2.308 0l-3.46 2v-4z" fill-rule="evenodd" stroke="#000" stroke-width=".5332"/></marker><linearGradient id="c"><stop offset="0" stop-color="#ebebeb" stop-opacity=".697"/><stop offset="1" stop-color="#6c7e7c"/></linearGradient></defs><g ns0:preamble="/home/waldgeist/data/sphinx/test.tex" ns0:text="$E _{\\mathrm{pot.}} = \\mathrm{max.}$"><use y="134.765" x="223.432" xlink:href="#textext-deb4a57a-0" width="1052.362" height="744.094" transform="matrix(3.97502 0 0 3.97502 -770.492 356.283)"/><use y="136.259" x="230.786" xlink:href="#textext-deb4a57a-2" width="1052.362" height="744.094" transform="matrix(3.97502 0 0 3.97502 -770.492 356.283)"/><g transform="matrix(3.97502 0 0 3.97502 -770.492 356.283)"><use y="136.259" x="235.403" xlink:href="#textext-deb4a57a-3" width="1052.362" height="744.094"/><use y="136.259" x="239.374" xlink:href="#textext-deb4a57a-4" width="1052.362" height="744.094"/></g><use y="136.259" x="242.486" xlink:href="#textext-deb4a57a-5" width="1052.362" height="744.094" transform="matrix(3.97502 0 0 3.97502 -770.492 356.283)"/><use y="134.765" x="248.117" xlink:href="#textext-deb4a57a-6" width="1052.362" height="744.094" transform="matrix(3.97502 0 0 3.97502 -770.492 356.283)"/><g transform="matrix(3.97502 0 0 3.97502 -770.492 356.283)"><use y="134.765" x="258.635" xlink:href="#textext-deb4a57a-7" width="1052.362" height="744.094"/><use y="134.765" x="266.937" xlink:href="#textext-deb4a57a-8" width="1052.362" height="744.094"/><use y="134.765" x="271.919" xlink:href="#textext-deb4a57a-9" width="1052.362" height="744.094"/></g><use y="134.765" x="277.175" xlink:href="#textext-deb4a57a-1" width="1052.362" height="744.094" transform="matrix(3.97502 0 0 3.97502 -770.492 356.283)"/></g><g ns0:text="\\begin{align*}\nE _{\\rm{pot}} &amp;= max. \\\\\nv &amp;= 0 \\\\\na &amp;= max.\n\\end{align*}\n" ns0:preamble="/home/waldgeist/data/sphinx/test.tex"><use xlink:href="#textext-2289d23f-0" x="367.633" y="134.765" width="1052.362" height="744.094" transform="matrix(3.39125 0 0 3.39125 -521.8 349.011)"/><use xlink:href="#textext-2289d23f-6" x="374.987" y="136.259" width="1052.362" height="744.094" transform="matrix(3.39125 0 0 3.39125 -521.8 349.011)"/><g transform="matrix(3.39125 0 0 3.39125 -521.8 349.011)"><use xlink:href="#textext-2289d23f-7" x="379.604" y="136.259" width="1052.362" height="744.094"/><use xlink:href="#textext-2289d23f-8" x="383.575" y="136.259" width="1052.362" height="744.094"/></g><use xlink:href="#textext-2289d23f-9" x="389.952" y="134.765" width="1052.362" height="744.094" transform="matrix(3.39125 0 0 3.39125 -521.8 349.011)"/><g transform="matrix(3.39125 0 0 3.39125 -521.8 349.011)"><use xlink:href="#textext-2289d23f-1" x="400.468" y="134.765" width="1052.362" height="744.094"/><use xlink:href="#textext-2289d23f-2" x="409.215" y="134.765" width="1052.362" height="744.094"/><use xlink:href="#textext-2289d23f-3" x="414.481" y="134.765" width="1052.362" height="744.094"/><use xlink:href="#textext-2289d23f-4" x="420.175" y="134.765" width="1052.362" height="744.094"/></g><use xlink:href="#textext-2289d23f-5" x="381.998" y="149.709" width="1052.362" height="744.094" transform="matrix(3.39125 0 0 3.39125 -521.8 349.011)"/><use xlink:href="#textext-2289d23f-9" x="389.952" y="149.709" width="1052.362" height="744.094" transform="matrix(3.39125 0 0 3.39125 -521.8 349.011)"/><use xlink:href="#textext-2289d23f-10" x="400.471" y="149.709" width="1052.362" height="744.094" transform="matrix(3.39125 0 0 3.39125 -521.8 349.011)"/><use xlink:href="#textext-2289d23f-2" x="381.918" y="164.653" width="1052.362" height="744.094" transform="matrix(3.39125 0 0 3.39125 -521.8 349.011)"/><use xlink:href="#textext-2289d23f-9" x="389.952" y="164.653" width="1052.362" height="744.094" transform="matrix(3.39125 0 0 3.39125 -521.8 349.011)"/><g transform="matrix(3.39125 0 0 3.39125 -521.8 349.011)"><use xlink:href="#textext-2289d23f-1" x="400.468" y="164.653" width="1052.362" height="744.094"/><use xlink:href="#textext-2289d23f-2" x="409.215" y="164.653" width="1052.362" height="744.094"/><use xlink:href="#textext-2289d23f-3" x="414.481" y="164.653" width="1052.362" height="744.094"/><use xlink:href="#textext-2289d23f-4" x="420.175" y="164.653" width="1052.362" height="744.094"/></g></g><path fill="#fff" stroke="#fff" stroke-width="3" stroke-linecap="round" stroke-linejoin="round" d="M90.28 321.009h563.534v410.344H90.28z"/><path d="M516.315 685.453l-275.805.008" opacity=".5" fill="none" stroke="green" stroke-width="2.922" stroke-linecap="round" marker-end="url(#d)"/><path d="M234.336 685.469a282.211 282.211 0 0 1 282.211-282.212" fill="none" stroke="#ccc" stroke-width="3.00008724" stroke-linecap="round"/><g fill="navy" stroke="navy" stroke-width="1.175"><path d="M234.336 685.469V573.336" stroke-width="5.999973" stroke-linecap="square"/><path d="M234.324 562.61l2.286 3.783 2.145 3.865-4.419.088-4.419-.075 2.133-3.87z" stroke-width="6.00024904"/></g><path style="marker:none" d="M234.336 664.182a21.286 21.286 0 0 1 21.286 21.286" color="#000" overflow="visible" fill="#fff" stroke="#4d4d4d" stroke-width="3.0000941099999996" stroke-linecap="round"/><circle style="marker:none" transform="scale(.63927) rotate(30 -828.705 1007.507)" cx="243.321" cy="446.902" r="2.147" color="#000" overflow="visible" fill="#4d4d4d" stroke="#4d4d4d" stroke-width="1.564" stroke-linecap="round"/><path d="M324.962 419.567a58.2 58.2 0 0 1 47.127 23.33" fill="none" stroke="navy" stroke-width="1.50028902"/><g fill="#00080f" fill-opacity=".941" stroke="#8080c0" stroke-width="1.175"><path d="M325.489 477.765V365.632" stroke-width="5.999973" stroke-linecap="square"/><path d="M325.477 354.907l2.286 3.783 2.145 3.864-4.42.088-4.418-.075 2.133-3.87z" stroke-width="6.00024904"/></g><g transform="rotate(48.559 410.728 549.153)" stroke="#4d4d4d" color="#000" stroke-linecap="round"><path style="marker:none" d="M305.85 544.565a21.286 21.286 0 0 1 21.286 21.286" overflow="visible" fill="#fff" stroke-width="3.0000941099999996"/><circle style="marker:none" transform="scale(.63927) rotate(30 -423.61 1122.696)" cx="243.321" cy="446.902" r="2.147" overflow="visible" fill="#4d4d4d" stroke-width="1.564"/></g><g fill="navy" stroke="navy" stroke-width="1.175"><path d="M325.489 477.765l89.785-67.175" stroke-width="5.999973" stroke-linecap="square"/><path d="M423.854 404.156l-1.66 4.096-1.809 4.033-2.717-3.486-2.588-3.583 4.378-.61z" stroke-width="6.00024904"/></g><g opacity=".9" fill="#8080c0" stroke="#8080c0" stroke-width="1.175"><path d="M327.56 354.053l88.549 40.999" stroke-width="5.999973" stroke-linecap="square"/><path d="M414.345 399.06l1.77-4.05 1.918-3.982 2.622 3.558 2.49 3.652-4.393.492z" stroke-width="6.00024904"/></g><g ns0:text="$\\Delta \\vec{v}$" ns0:preamble="/home/waldgeist/data/sphinx/inkscape-preamble.tex" transform="translate(-367.29 -78.257) scale(3.26815)" opacity=".5" fill="navy" stroke="#0a0a84"><defs><symbol overflow="visible" id="e"><path d="M4.406-6.953c-.062-.14-.093-.188-.265-.188-.157 0-.188.047-.25.188L.516-.203c-.047.094-.047.11-.047.125C.469 0 .53 0 .688 0h6.921c.157 0 .22 0 .22-.078 0-.016 0-.031-.048-.125zm-.578.812L6.516-.75H1.14z" stroke="none"/></symbol><symbol overflow="visible" id="f"><path d="M5.36-5.938c-.141.141-.47.422-.47.594 0 .094.094.203.188.203s.14-.078.203-.14c.11-.14.344-.422.782-.64.062-.048.171-.095.171-.204 0-.11-.078-.156-.14-.203a1.034 1.034 0 0 1-.407-.563c-.03-.093-.062-.234-.203-.234-.14 0-.203.14-.203.219 0 .047.078.36.235.578h-3.36c-.156 0-.344 0-.344.203 0 .188.188.188.344.188z" stroke="none"/></symbol><symbol overflow="visible" id="g"><path d="M4.672-3.703c0-.547-.266-.703-.438-.703-.25 0-.5.265-.5.484 0 .125.047.188.157.297.218.203.343.453.343.813 0 .421-.609 2.703-1.765 2.703-.516 0-.75-.344-.75-.875 0-.547.281-1.282.578-2.11.078-.172.125-.312.125-.5 0-.437-.313-.812-.813-.812-.937 0-1.312 1.453-1.312 1.531 0 .11.094.11.11.11.109 0 .109-.032.156-.188.296-1 .718-1.235 1.015-1.235.078 0 .25 0 .25.313 0 .25-.11.531-.172.703-.437 1.156-.562 1.61-.562 2.047 0 1.078.875 1.234 1.328 1.234 1.672 0 2.25-3.296 2.25-3.812z" stroke="none"/></symbol></defs><use height="1052.362" width="744.094" xlink:href="#e" x="223.432" y="134.765"/><use height="1052.362" width="744.094" xlink:href="#f" x="231.347" y="134.765"/><use height="1052.362" width="744.094" xlink:href="#g" x="231.736" y="134.765"/></g><g transform="translate(-440.152 -16.198) scale(3.26815)" ns0:preamble="/home/waldgeist/data/sphinx/inkscape-preamble.tex" ns0:text="$\\vec{v}_{1}$" opacity=".5" fill="navy"><defs><symbol id="h" overflow="visible"><path d="M5.36-5.938c-.141.141-.47.422-.47.594 0 .094.094.203.188.203s.14-.078.203-.14c.11-.14.344-.422.782-.64.062-.048.171-.095.171-.204 0-.11-.078-.156-.14-.203a1.034 1.034 0 0 1-.407-.563c-.03-.093-.062-.234-.203-.234-.14 0-.203.14-.203.219 0 .047.078.36.235.578h-3.36c-.156 0-.344 0-.344.203 0 .188.188.188.344.188z"/></symbol><symbol id="i" overflow="visible"><path d="M4.672-3.703c0-.547-.266-.703-.438-.703-.25 0-.5.265-.5.484 0 .125.047.188.157.297.218.203.343.453.343.813 0 .421-.609 2.703-1.765 2.703-.516 0-.75-.344-.75-.875 0-.547.281-1.282.578-2.11.078-.172.125-.312.125-.5 0-.437-.313-.812-.813-.812-.937 0-1.312 1.453-1.312 1.531 0 .11.094.11.11.11.109 0 .109-.032.156-.188.296-1 .718-1.235 1.015-1.235.078 0 .25 0 .25.313 0 .25-.11.531-.172.703-.437 1.156-.562 1.61-.562 2.047 0 1.078.875 1.234 1.328 1.234 1.672 0 2.25-3.296 2.25-3.812z"/></symbol><symbol id="j" overflow="visible"><path d="M2.328-4.438c0-.187 0-.187-.203-.187-.453.438-1.078.438-1.36.438v.25c.157 0 .626 0 1-.188v3.547c0 .234 0 .328-.687.328H.812V0c.125 0 .985-.031 1.235-.031.219 0 1.094.031 1.25.031v-.25H3.03c-.703 0-.703-.094-.703-.328z"/></symbol></defs><use y="134.765" x="223.045" xlink:href="#h" width="744.094" height="1052.362"/><use y="134.765" x="223.434" xlink:href="#i" width="744.094" height="1052.362"/><use y="136.259" x="228.261" xlink:href="#j" width="744.094" height="1052.362"/></g><g ns0:text="$\\vec{v}_{2}$" ns0:preamble="/home/waldgeist/data/sphinx/inkscape-preamble.tex" transform="translate(-345.617 21.445) scale(3.26815)" fill="navy" stroke="navy"><defs><symbol overflow="visible" id="k"><path d="M5.36-5.938c-.141.141-.47.422-.47.594 0 .094.094.203.188.203s.14-.078.203-.14c.11-.14.344-.422.782-.64.062-.048.171-.095.171-.204 0-.11-.078-.156-.14-.203a1.034 1.034 0 0 1-.407-.563c-.03-.093-.062-.234-.203-.234-.14 0-.203.14-.203.219 0 .047.078.36.235.578h-3.36c-.156 0-.344 0-.344.203 0 .188.188.188.344.188z" stroke="none"/></symbol><symbol overflow="visible" id="l"><path d="M4.672-3.703c0-.547-.266-.703-.438-.703-.25 0-.5.265-.5.484 0 .125.047.188.157.297.218.203.343.453.343.813 0 .421-.609 2.703-1.765 2.703-.516 0-.75-.344-.75-.875 0-.547.281-1.282.578-2.11.078-.172.125-.312.125-.5 0-.437-.313-.812-.813-.812-.937 0-1.312 1.453-1.312 1.531 0 .11.094.11.11.11.109 0 .109-.032.156-.188.296-1 .718-1.235 1.015-1.235.078 0 .25 0 .25.313 0 .25-.11.531-.172.703-.437 1.156-.562 1.61-.562 2.047 0 1.078.875 1.234 1.328 1.234 1.672 0 2.25-3.296 2.25-3.812z" stroke="none"/></symbol><symbol overflow="visible" id="m"><path d="M3.516-1.266H3.28c-.015.157-.094.563-.187.625-.047.047-.578.047-.688.047H1.125c.734-.64.984-.844 1.39-1.172.516-.406 1-.843 1-1.5 0-.843-.734-1.359-1.624-1.359-.86 0-1.454.61-1.454 1.25 0 .344.297.39.376.39.156 0 .359-.124.359-.374 0-.125-.047-.375-.406-.375.218-.485.687-.641 1.015-.641.703 0 1.063.547 1.063 1.11 0 .609-.438 1.078-.656 1.328L.516-.266C.437-.203.437-.187.437 0h2.876z" stroke="none"/></symbol></defs><use height="1052.362" width="744.094" xlink:href="#k" x="223.045" y="134.765"/><use height="1052.362" width="744.094" xlink:href="#l" x="223.434" y="134.765"/><use height="1052.362" width="744.094" xlink:href="#m" x="228.261" y="136.259"/></g><g ns0:text="$\\vec{v}_{1}$" ns0:preamble="/home/waldgeist/data/sphinx/inkscape-preamble.tex" fill="navy"><use height="1052.362" width="744.094" xlink:href="#h" x="223.045" y="134.765" transform="translate(-538.064 193.954) scale(3.26815)"/><use height="1052.362" width="744.094" xlink:href="#i" x="223.434" y="134.765" transform="translate(-538.064 193.954) scale(3.26815)"/><use height="1052.362" width="744.094" xlink:href="#j" x="228.261" y="136.259" transform="translate(-538.064 193.954) scale(3.26815)"/></g><path d="M234.336 685.468l85.226-198.84" fill="none" stroke="green" stroke-width="4" stroke-linecap="round" marker-end="url(#d)"/><use y="134.765" x="223.432" xlink:href="#textext-5b5dd250-1" width="744.094" height="1052.362" transform="translate(-373.87 268.78) scale(3.26815)" ns0:text="$r$" fill="green"/><path d="M465.973 685.582a58.2 58.2 0 0 1 14.58-39.491" fill="none" stroke="green" stroke-width="1.50028902"/><g transform="matrix(2.66008 0 0 2.66008 -120.642 315.693)" ns0:text="$\\varphi$" fill="green"><defs><symbol id="n" overflow="visible"><path d="M1.688 1.688c-.032.14-.047.156-.047.203 0 .218.187.28.296.28a.413.413 0 0 0 .36-.265c.031-.078.078-.406.36-1.812.077 0 .155.015.327.015 1.657 0 3.188-1.562 3.188-3.14 0-.781-.39-1.375-1.14-1.375-1.438 0-2.048 1.937-2.641 3.875C1.312-.734.75-1.281.75-2c0-.281.234-1.375.828-2.063.094-.093.094-.109.094-.14 0-.031-.031-.094-.125-.094C1.266-4.297.5-2.844.5-1.89c0 .938.656 1.657 1.719 1.907zM3.077-.47c-.094 0-.11 0-.187-.015-.125 0-.125 0-.125-.032 0-.015.171-.937.187-1.078.313-1.281 1.094-2.234 1.985-2.234.687 0 .953.531.953 1.015 0 1.126-1.282 2.344-2.813 2.344zm0 0"/></symbol></defs><use y="134.765" x="223.432" xlink:href="#n" width="744.094" height="1052.362"/></g><use height="1052.362" width="744.094" xlink:href="#n" x="223.432" y="134.765" transform="matrix(2.66008 0 0 2.66008 -260.695 87.151)" ns0:text="$\\varphi$" fill="navy" stroke="navy"/><path d="M516.315 685.453L328.032 483.477" opacity=".5" fill="none" stroke="green" stroke-width="2.925" stroke-linecap="round" marker-end="url(#d)"/><circle transform="translate(49.829 41.135)" cx="274.232" cy="438.027" r="2.786" fill="green" stroke="green" stroke-width="3"/><circle transform="translate(-39.896 247.441)" cx="274.232" cy="438.027" r="2.786" fill="green" stroke="green" stroke-width="3"/><g transform="translate(-525.907 265.966) scale(3.26815)" ns0:text="$\\mathrm{P}_1$" fill="green"><defs><symbol id="o" overflow="visible"><path d="M2.266-3.156h1.687c1.188 0 2.266-.797 2.266-1.797 0-.984-.985-1.86-2.344-1.86H.344v.313h.25c.765 0 .781.11.781.469v5.25c0 .36-.016.469-.781.469h-.25V0c.36-.031 1.094-.031 1.469-.031s1.125 0 1.484.031v-.313h-.25c-.766 0-.781-.109-.781-.468zm-.032-.25v-2.688c0-.343.016-.406.485-.406h.89c1.579 0 1.579 1.063 1.579 1.547 0 .469 0 1.547-1.579 1.547zm0 0"/></symbol><symbol id="p" overflow="visible"><path d="M2.328-4.438c0-.187 0-.187-.203-.187-.453.438-1.078.438-1.36.438v.25c.157 0 .626 0 1-.188v3.547c0 .234 0 .328-.687.328H.812V0c.125 0 .985-.031 1.235-.031.219 0 1.094.031 1.25.031v-.25H3.03c-.703 0-.703-.094-.703-.328zm0 0"/></symbol></defs><use y="134.765" x="223.432" xlink:href="#o" width="744.094" height="1052.362"/><use y="136.259" x="230.212" xlink:href="#p" width="744.094" height="1052.362"/></g><g ns0:text="$\\mathrm{P}_2$" transform="translate(-449.449 34.71) scale(3.26815)" fill="green"><defs><symbol overflow="visible" id="q"><path d="M2.266-3.156h1.687c1.188 0 2.266-.797 2.266-1.797 0-.984-.985-1.86-2.344-1.86H.344v.313h.25c.765 0 .781.11.781.469v5.25c0 .36-.016.469-.781.469h-.25V0c.36-.031 1.094-.031 1.469-.031s1.125 0 1.484.031v-.313h-.25c-.766 0-.781-.109-.781-.468zm-.032-.25v-2.688c0-.343.016-.406.485-.406h.89c1.579 0 1.579 1.063 1.579 1.547 0 .469 0 1.547-1.579 1.547zm0 0"/></symbol><symbol overflow="visible" id="r"><path d="M3.516-1.266H3.28c-.015.157-.094.563-.187.625-.047.047-.578.047-.688.047H1.125c.734-.64.984-.844 1.39-1.172.516-.406 1-.843 1-1.5 0-.843-.734-1.359-1.624-1.359-.86 0-1.454.61-1.454 1.25 0 .344.297.39.376.39.156 0 .359-.124.359-.374 0-.125-.047-.375-.406-.375.218-.485.687-.641 1.015-.641.703 0 1.063.547 1.063 1.11 0 .609-.438 1.078-.656 1.328L.516-.266C.437-.203.437-.187.437 0h2.876zm0 0"/></symbol></defs><use xlink:href="#q" x="223.432" y="134.765" width="744.094" height="1052.362"/><use xlink:href="#r" x="230.212" y="136.259" width="744.094" height="1052.362"/></g><g transform="translate(-207.884 273.09) scale(3.26815)" ns0:text="$\\mathrm{M}$" fill="green"><defs><symbol id="s" overflow="visible"><path d="M2.406-6.594c-.094-.218-.125-.218-.36-.218H.376v.312h.234c.766 0 .782.11.782.469v4.984c0 .266 0 .734-1.016.734V0c.344-.016.828-.031 1.156-.031.328 0 .828.015 1.172.031v-.313c-1.031 0-1.031-.468-1.031-.734v-5.375h.016L4.094-.219c.047.125.093.219.187.219.11 0 .14-.078.188-.188L6.922-6.5v5.719c0 .36-.016.469-.781.469h-.235V0c.36-.031 1.047-.031 1.438-.031.375 0 1.047 0 1.422.031v-.313h-.25c-.766 0-.782-.109-.782-.468v-5.25c0-.36.016-.469.782-.469h.25v-.313H7.078c-.266 0-.266.016-.328.188L4.562-1zm0 0"/></symbol></defs><use y="134.765" x="223.432" xlink:href="#s" width="744.094" height="1052.362"/></g><circle transform="translate(242.315 247.441)" cx="274.232" cy="438.027" r="2.786" fill="green" stroke="green" stroke-width="3"/><g transform="translate(-311.972 129.107) scale(3.26815)" ns0:text="$\\vec{r}_2$" fill="green"><defs><symbol id="t" overflow="visible"><path d="M5.36-5.938c-.141.141-.47.422-.47.594 0 .094.094.203.188.203s.14-.078.203-.14c.11-.14.344-.422.782-.64.062-.048.171-.095.171-.204 0-.11-.078-.156-.14-.203a1.034 1.034 0 0 1-.407-.563c-.03-.093-.062-.234-.203-.234-.14 0-.203.14-.203.219 0 .047.078.36.235.578h-3.36c-.156 0-.344 0-.344.203 0 .188.188.188.344.188zm0 0"/></symbol><symbol id="u" overflow="visible"><path d="M.875-.594c-.031.156-.094.39-.094.438 0 .172.14.265.297.265a.414.414 0 0 0 .375-.28c.016-.032.344-1.391.39-1.579.079-.328.266-1.016.313-1.297.047-.125.328-.594.563-.812.078-.063.375-.329.797-.329.265 0 .406.125.421.125-.296.047-.515.282-.515.547 0 .157.11.344.375.344s.547-.234.547-.594c0-.343-.313-.64-.828-.64-.641 0-1.079.484-1.266.765-.094-.453-.453-.765-.922-.765-.453 0-.64.39-.734.562-.172.344-.297.938-.297.969 0 .11.094.11.11.11.109 0 .109-.016.171-.235.172-.703.375-1.188.735-1.188.156 0 .296.079.296.454 0 .218-.03.328-.156.843zm0 0"/></symbol><symbol id="v" overflow="visible"><path d="M3.516-1.266H3.28c-.015.157-.094.563-.187.625-.047.047-.578.047-.688.047H1.125c.734-.64.984-.844 1.39-1.172.516-.406 1-.843 1-1.5 0-.843-.734-1.359-1.624-1.359-.86 0-1.454.61-1.454 1.25 0 .344.297.39.376.39.156 0 .359-.124.359-.374 0-.125-.047-.375-.406-.375.218-.485.687-.641 1.015-.641.703 0 1.063.547 1.063 1.11 0 .609-.438 1.078-.656 1.328L.516-.266C.437-.203.437-.187.437 0h2.876zm0 0"/></symbol></defs><use y="134.765" x="223.114" xlink:href="#t" width="744.094" height="1052.362"/><use y="134.765" x="223.433" xlink:href="#u" width="744.094" height="1052.362"/><use y="136.259" x="227.927" xlink:href="#v" width="744.094" height="1052.362"/></g><g ns0:text="$\\vec{r}_1$" transform="translate(-386.272 276.122) scale(3.26815)" fill="green"><defs><symbol overflow="visible" id="w"><path d="M5.36-5.938c-.141.141-.47.422-.47.594 0 .094.094.203.188.203s.14-.078.203-.14c.11-.14.344-.422.782-.64.062-.048.171-.095.171-.204 0-.11-.078-.156-.14-.203a1.034 1.034 0 0 1-.407-.563c-.03-.093-.062-.234-.203-.234-.14 0-.203.14-.203.219 0 .047.078.36.235.578h-3.36c-.156 0-.344 0-.344.203 0 .188.188.188.344.188zm0 0"/></symbol><symbol overflow="visible" id="x"><path d="M.875-.594c-.031.156-.094.39-.094.438 0 .172.14.265.297.265a.414.414 0 0 0 .375-.28c.016-.032.344-1.391.39-1.579.079-.328.266-1.016.313-1.297.047-.125.328-.594.563-.812.078-.063.375-.329.797-.329.265 0 .406.125.421.125-.296.047-.515.282-.515.547 0 .157.11.344.375.344s.547-.234.547-.594c0-.343-.313-.64-.828-.64-.641 0-1.079.484-1.266.765-.094-.453-.453-.765-.922-.765-.453 0-.64.39-.734.562-.172.344-.297.938-.297.969 0 .11.094.11.11.11.109 0 .109-.016.171-.235.172-.703.375-1.188.735-1.188.156 0 .296.079.296.454 0 .218-.03.328-.156.843zm0 0"/></symbol><symbol overflow="visible" id="y"><path d="M2.328-4.438c0-.187 0-.187-.203-.187-.453.438-1.078.438-1.36.438v.25c.157 0 .626 0 1-.188v3.547c0 .234 0 .328-.687.328H.812V0c.125 0 .985-.031 1.235-.031.219 0 1.094.031 1.25.031v-.25H3.03c-.703 0-.703-.094-.703-.328zm0 0"/></symbol></defs><use xlink:href="#w" x="223.114" y="134.765" width="744.094" height="1052.362"/><use xlink:href="#x" x="223.433" y="134.765" width="744.094" height="1052.362"/><use xlink:href="#y" x="227.927" y="136.259" width="744.094" height="1052.362"/></g><g transform="translate(-442.775 148.15) scale(3.26815)" ns0:text="$\\Delta \\vec{s}$" fill="green"><defs><symbol id="z" overflow="visible"><path d="M4.406-6.953c-.062-.14-.093-.188-.265-.188-.157 0-.188.047-.25.188L.516-.203c-.047.094-.047.11-.047.125C.469 0 .53 0 .688 0h6.921c.157 0 .22 0 .22-.078 0-.016 0-.031-.048-.125zm-.578.812L6.516-.75H1.14zm0 0"/></symbol><symbol id="A" overflow="visible"><path d="M5.36-5.938c-.141.141-.47.422-.47.594 0 .094.094.203.188.203s.14-.078.203-.14c.11-.14.344-.422.782-.64.062-.048.171-.095.171-.204 0-.11-.078-.156-.14-.203a1.034 1.034 0 0 1-.407-.563c-.03-.093-.062-.234-.203-.234-.14 0-.203.14-.203.219 0 .047.078.36.235.578h-3.36c-.156 0-.344 0-.344.203 0 .188.188.188.344.188zm0 0"/></symbol><symbol id="B" overflow="visible"><path d="M3.89-3.734c-.265.015-.468.234-.468.453 0 .14.094.297.312.297.22 0 .454-.172.454-.563 0-.453-.422-.86-1.188-.86-1.313 0-1.688 1.016-1.688 1.454 0 .781.735.922 1.032.984.515.11 1.031.219 1.031.766 0 .25-.219 1.094-1.422 1.094-.14 0-.906 0-1.14-.532.39.047.64-.25.64-.53 0-.22-.172-.345-.375-.345-.266 0-.562.204-.562.657 0 .562.578.968 1.421.968 1.625 0 2.016-1.203 2.016-1.656a.97.97 0 0 0-.312-.719c-.266-.28-.563-.343-1-.421-.36-.079-.75-.157-.75-.61 0-.281.234-.89 1.109-.89.25 0 .75.078.89.453zm0 0"/></symbol></defs><use y="134.765" x="223.432" xlink:href="#z" width="100%" height="100%"/><use y="134.765" x="231.366" xlink:href="#A" width="100%" height="100%"/><use y="134.765" x="231.735" xlink:href="#B" width="100%" height="100%"/></g><path d="M321.45 481.853l.61 4.377.45 4.397-4.096-1.66-4.033-1.81 3.486-2.717z" fill="green" stroke="green" stroke-width="6.00024904"/></svg>