<svg xmlns:ns0="http://www.iki.fi/pav/software/textext/" xmlns="http://www.w3.org/2000/svg" xmlns:xlink="http://www.w3.org/1999/xlink" width="210mm" height="297mm"><title>Raumkurven</title><defs><marker id="b" orient="auto" overflow="visible"><path d="M1.154 0l-1.73 1v-2l1.73 1z" fill-rule="evenodd" stroke="#000" stroke-width=".2pt"/></marker><marker id="a" orient="auto" overflow="visible"><path d="M2.308 0l-3.46 2v-4l3.46 2z" fill-rule="evenodd" stroke="#000" stroke-width=".4pt"/></marker></defs><path style="marker:none" color="#000" fill="#fff" stroke="#fff" stroke-linecap="round" overflow="visible" d="M111.933 322.014h520.229v408.334H111.933z"/><g transform="matrix(.91816 0 0 .91816 -5.246 -167.043)" fill="none" stroke="#000" stroke-width="3.267" marker-end="url(#a)"><path d="M249.773 921.649h359.74M249.773 921.649V554.995"/></g><path d="M224.086 679.18l178.778-76.139" fill="#4d4d4d" stroke="#4d4d4d" stroke-width="3" stroke-dasharray="8.99999972,8.99999972" marker-end="url(#a)"/><path d="M554.64 700.23c.224-.897 1.065-4.205 3.531-4.205.169 0 1.066 0 1.795.449-1.01.224-1.682 1.065-1.682 1.962 0 .56.392 1.233 1.345 1.233.785 0 1.906-.616 1.906-2.074 0-1.85-2.074-2.355-3.307-2.355-2.075 0-3.308 1.906-3.757 2.691-.897-2.354-2.803-2.69-3.868-2.69-3.7 0-5.775 4.597-5.775 5.494 0 .392.392.392.448.392.28 0 .393-.112.449-.392 1.233-3.813 3.588-4.71 4.822-4.71.672 0 1.906.336 1.906 2.41 0 1.122-.617 3.477-1.906 8.523-.561 2.186-1.85 3.7-3.42 3.7-.225 0-1.01 0-1.795-.448.897-.225 1.682-.953 1.682-1.963 0-.953-.785-1.233-1.29-1.233-1.12 0-1.961.897-1.961 2.074 0 1.626 1.738 2.355 3.307 2.355 2.411 0 3.7-2.523 3.757-2.691.448 1.29 1.738 2.691 3.868 2.691 3.7 0 5.72-4.597 5.72-5.494 0-.393-.281-.393-.393-.393-.337 0-.393.168-.505.393-1.177 3.868-3.588 4.71-4.71 4.71-1.401 0-1.962-1.122-1.962-2.356 0-.784.168-1.57.56-3.14zm0 0" ns0:preamble="/home/waldgeist/data/sphinx/test.tex" ns0:text="$x$"/><path d="M208.985 338.784c.168-.505.168-.561.168-.841 0-.617-.505-.953-1.066-.953-.336 0-.897.224-1.233.728-.056.225-.392 1.29-.505 1.963-.28.897-.504 1.906-.728 2.859l-1.626 6.448c-.112.504-1.682 3.027-4.037 3.027-1.794 0-2.187-1.57-2.187-2.915 0-1.626.617-3.869 1.794-7.008.561-1.458.73-1.85.73-2.58 0-1.57-1.122-2.915-2.916-2.915-3.42 0-4.71 5.214-4.71 5.495 0 .392.337.392.393.392.392 0 .392-.112.56-.673 1.01-3.364 2.411-4.429 3.645-4.429.28 0 .897 0 .897 1.121 0 .897-.393 1.85-.617 2.523-1.458 3.813-2.074 5.831-2.074 7.513 0 3.196 2.242 4.261 4.373 4.261 1.401 0 2.579-.617 3.588-1.626-.448 1.85-.897 3.645-2.299 5.55-.953 1.178-2.298 2.243-3.924 2.243-.505 0-2.13-.112-2.748-1.513.561 0 1.066 0 1.514-.449a1.77 1.77 0 0 0 .73-1.458c0-1.12-.954-1.233-1.29-1.233-.841 0-2.019.56-2.019 2.299 0 1.794 1.57 3.14 3.813 3.14 3.644 0 7.344-3.252 8.354-7.29zm0 0" ns0:text="$y$" ns0:preamble="/home/waldgeist/data/sphinx/test.tex"/><path d="M339.66 392.246l69.171 199.249" fill="green" stroke="green" stroke-width="6" marker-end="url(#b)"/><g transform="translate(-746.653 -250.98) scale(4.72989)" ns0:preamble="/home/waldgeist/data/sphinx/test.tex" ns0:text="$A\n$"><defs><symbol id="c" overflow="visible"><path d="M1.781-1.14C1.391-.485 1-.345.563-.314c-.125.016-.22.016-.22.204 0 .062.063.109.141.109.266 0 .579-.031.844-.031.344 0 .688.031 1 .031.063 0 .188 0 .188-.188 0-.109-.079-.124-.157-.124-.218-.016-.468-.094-.468-.344 0-.125.062-.235.14-.375l.766-1.266h2.5c.016.203.156 1.563.156 1.656 0 .297-.516.329-.719.329-.14 0-.234 0-.234.203C4.5 0 4.61 0 4.64 0c.407 0 .829-.031 1.235-.031.25 0 .89.031 1.14.031.048 0 .173 0 .173-.203 0-.11-.094-.11-.235-.11-.61 0-.61-.062-.64-.359l-.61-6.219c-.016-.203-.016-.25-.187-.25-.157 0-.204.079-.266.172zm1.203-1.47l1.954-3.296.328 3.297zm0 0"/></symbol></defs><use height="1052.362" width="744.094" y="134.765" x="223.432" xlink:href="#c" fill="#4d4d4d" stroke="#4d4d4d" stroke-width="1.292"/></g><g ns0:text="$B$" ns0:preamble="/home/waldgeist/data/sphinx/test.tex" transform="translate(-636.536 -1.796) scale(4.72989)"><defs><symbol overflow="visible" id="d"><path d="M1.594-.781c-.094.39-.125.469-.907.469-.171 0-.265 0-.265.203C.422 0 .516 0 .688 0H4.25C5.828 0 7-1.172 7-2.156c0-.719-.578-1.297-1.547-1.406 1.031-.188 2.078-.922 2.078-1.876 0-.734-.656-1.375-1.843-1.375h-3.36c-.187 0-.281 0-.281.204 0 .109.094.109.281.109.016 0 .203 0 .375.016.172.03.266.03.266.171 0 .032-.016.063-.031.188zm1.5-2.875l.625-2.469c.094-.344.11-.375.531-.375h1.297c.875 0 1.078.594 1.078 1.031 0 .875-.86 1.813-2.063 1.813zM2.656-.312h-.219c-.109-.016-.14-.032-.14-.11 0-.031 0-.047.062-.219l.688-2.78h1.875c.953 0 1.156.733 1.156 1.155 0 .985-.89 1.954-2.078 1.954zm0 0"/></symbol></defs><use height="1052.362" width="744.094" xlink:href="#d" x="223.432" y="134.765" fill="#4d4d4d" stroke="#4d4d4d" stroke-width="1.292"/></g><path transform="matrix(2.22042 0 0 2.2179 -390.215 -88.871)" d="M327.956 218.437a49.23 49.23 0 1 1 37.072 90.795" fill="none" stroke="green" stroke-width="2.704" marker-end="url(#b)"/><path d="M338.346 395.413c-42.661 26.855-64.808 46.832-59.022 76.021 5.162 26.045 72.617 21.326 54.51 58.082-96.506 195.909 101.6 163.48 80.78 78.848" fill="none" stroke="green" stroke-width="6" marker-end="url(#b)"/><path d="M224.086 679.18l114.278-275.954" fill="#4d4d4d" stroke="#4d4d4d" stroke-width="3" stroke-linecap="square" stroke-dasharray="8.99999994,8.99999994" marker-end="url(#a)"/><g transform="translate(-676.377 -135.768) scale(4.72989)" ns0:preamble="/home/waldgeist/data/sphinx/test.tex" ns0:text="$1$" fill="navy"><defs><symbol id="e" overflow="visible"><path d="M2.938-6.375c0-.25 0-.266-.235-.266C2.078-6 1.203-6 .891-6v.313c.203 0 .78 0 1.296-.266v5.172c0 .36-.03.469-.921.469H.953V0c.344-.031 1.203-.031 1.61-.031.39 0 1.265 0 1.609.031v-.313h-.313c-.906 0-.921-.109-.921-.468zm0 0"/></symbol></defs><use y="134.765" x="223.432" xlink:href="#e" width="744.094" height="1052.362" fill="green" stroke="green"/></g><g ns0:text="$2$" ns0:preamble="/home/waldgeist/data/sphinx/test.tex" transform="translate(-563.971 -188.3) scale(4.72989)" fill="navy"><defs><symbol overflow="visible" id="f"><path d="M1.266-.766l1.062-1.03c1.547-1.376 2.14-1.907 2.14-2.907 0-1.14-.89-1.938-2.109-1.938C1.234-6.64.5-5.719.5-4.828c0 .547.5.547.531.547.172 0 .516-.11.516-.532a.513.513 0 0 0-.531-.515c-.079 0-.094 0-.125.016.218-.657.765-1.016 1.343-1.016.907 0 1.329.812 1.329 1.625 0 .797-.485 1.578-1.047 2.203L.609-.375C.5-.265.5-.235.5 0h3.703l.266-1.734h-.235C4.172-1.438 4.11-1 4-.844c-.063.078-.719.078-.938.078zm0 0"/></symbol></defs><use xlink:href="#f" x="223.432" y="134.765" width="744.094" height="1052.362" fill="green" stroke="green"/></g><g transform="translate(-807.453 -124.901) scale(4.72989)" ns0:preamble="/home/waldgeist/data/sphinx/test.tex" ns0:text="$3$" fill="navy"><defs><symbol id="g" overflow="visible"><path d="M2.89-3.516c.813-.265 1.391-.953 1.391-1.75 0-.812-.875-1.375-1.828-1.375-1 0-1.765.594-1.765 1.36 0 .328.218.515.515.515.297 0 .5-.218.5-.515 0-.485-.469-.485-.61-.485.298-.5.954-.625 1.313-.625.422 0 .969.22.969 1.11 0 .125-.031.703-.281 1.14-.297.485-.64.516-.89.516a3.29 3.29 0 0 1-.392.031c-.078.016-.14.031-.14.125 0 .11.062.11.234.11h.438c.812 0 1.187.671 1.187 1.656 0 1.36-.687 1.64-1.125 1.64-.437 0-1.187-.171-1.531-.75.344.047.656-.171.656-.546a.537.537 0 0 0-.547-.563c-.25 0-.562.14-.562.578C.422-.437 1.344.22 2.437.22c1.22 0 2.126-.906 2.126-1.922 0-.813-.641-1.594-1.672-1.813zm0 0"/></symbol></defs><use y="134.765" x="223.432" xlink:href="#g" width="744.094" height="1052.362" fill="green" stroke="green"/></g></svg>