<svg xmlns:ns0="http://www.iki.fi/pav/software/textext/" xmlns="http://www.w3.org/2000/svg" xmlns:xlink="http://www.w3.org/1999/xlink" width="1052.362" height="744.094"><title>s-t-Diagramm: Konstante Geschwindigkeit</title><defs><marker id="a" orient="auto" overflow="visible"><path d="M2.308 0l-3.46 2v-4l3.46 2z" fill-rule="evenodd" stroke="#000" stroke-width=".4pt"/></marker></defs><use transform="matrix(2.1226 0 0 2.1226 318.56 -90.51)" height="1052.362" width="744.094" xlink:href="#textext-395ae106-0" x="223.432" y="134.765" ns0:text="$v$\n" ns0:preamble="/home/waldgeist/data/sphinx/test.tex"/><use transform="matrix(2.1226 0 0 2.1226 -33.437 -94.345)" y="134.765" x="223.432" xlink:href="#textext-395ae106-0" width="744.094" height="1052.362" ns0:preamble="/home/waldgeist/data/sphinx/test.tex" ns0:text="$v$\n"/><path fill="#fff" stroke="#fff" stroke-width="6" stroke-linecap="round" stroke-linejoin="round" d="M13.024 139.712h1026.315v464.67H13.024z"/><path d="M112.469 680.315h184.17" fill="none" stroke="#000" stroke-width="3" stroke-linecap="round" marker-end="url(#a)" transform="translate(-22.242 -305.213)"/><path d="M90.227 375.102l123.88-123.88" fill="none" stroke="green" stroke-width="6" stroke-linecap="round" stroke-linejoin="bevel"/><path d="M112.469 680.315v-187.71" fill="none" stroke="#000" stroke-width="3" stroke-linecap="round" marker-end="url(#a)" transform="translate(-22.242 -305.213)"/><path d="M99.214 375.102H81.239" fill="none" stroke="#000" stroke-width="3" stroke-linecap="round"/><path d="M90.227 366.115v196.76" fill="none" stroke="#000" stroke-width="3"/><g ns0:text="$t$\n" ns0:preamble="/home/waldgeist/data/sphinx/test.tex" transform="matrix(2.11144 0 0 2.11144 -200.964 111.892)"><defs><symbol overflow="visible" id="b"><path d="M2.047-3.984h.937c.204 0 .313 0 .313-.204 0-.109-.11-.109-.281-.109H2.14c.359-1.422.406-1.61.406-1.672 0-.172-.125-.265-.297-.265-.031 0-.313 0-.39.359l-.391 1.578H.53c-.203 0-.297 0-.297.188 0 .125.078.125.282.125h.875C.67-1.156.625-.984.625-.813c0 .547.375.922.922.922 1.016 0 1.578-1.453 1.578-1.53 0-.11-.078-.11-.11-.11-.093 0-.109.031-.156.14C2.438-.344 1.906-.109 1.563-.109c-.204 0-.313-.125-.313-.454 0-.25.031-.312.063-.484zm0 0"/></symbol></defs><use height="1052.362" width="744.094" xlink:href="#b" x="223.432" y="134.765"/></g><g transform="matrix(2.1226 0 0 2.1226 -406.633 -94.66)" ns0:preamble="/home/waldgeist/data/sphinx/test.tex" ns0:text="$s$\n"><defs><symbol id="c" overflow="visible"><path d="M3.89-3.734c-.265.015-.468.234-.468.453 0 .14.094.297.312.297.22 0 .454-.172.454-.563 0-.453-.422-.86-1.188-.86-1.313 0-1.688 1.016-1.688 1.454 0 .781.735.922 1.032.984.515.11 1.031.219 1.031.766 0 .25-.219 1.094-1.422 1.094-.14 0-.906 0-1.14-.532.39.047.64-.25.64-.53 0-.22-.172-.345-.375-.345-.266 0-.562.204-.562.657 0 .562.578.968 1.421.968 1.625 0 2.016-1.203 2.016-1.656a.97.97 0 0 0-.312-.719c-.266-.28-.563-.343-1-.421-.36-.079-.75-.157-.75-.61 0-.281.234-.89 1.109-.89.25 0 .75.078.89.453zm0 0"/></symbol></defs><use y="134.765" x="223.432" xlink:href="#c" width="1052.362" height="744.094"/></g><path d="M350.787 531.06V213.919M701.575 531.06V213.919" fill="#4d4d4d" stroke="#4d4d4d" stroke-linecap="round"/><path d="M441.014 683.37h184.17" fill="none" stroke="#000" stroke-width="3" marker-end="url(#a)" transform="translate(0 -308.268)"/><path d="M441.014 366.115v196.76" fill="none" stroke="#000" stroke-width="3"/><use y="134.765" x="223.432" xlink:href="#b" width="744.094" height="1052.362" transform="matrix(2.11144 0 0 2.11144 149.823 111.892)" ns0:preamble="/home/waldgeist/data/sphinx/test.tex" ns0:text="$t$\n"/><use height="744.094" width="1052.362" xlink:href="#c" x="223.432" y="134.765" transform="matrix(2.1226 0 0 2.1226 -55.846 -94.66)" ns0:text="$s$\n" ns0:preamble="/home/waldgeist/data/sphinx/test.tex"/><path d="M441.014 683.37V495.66" fill="none" stroke="#000" stroke-width="3" stroke-linecap="round" marker-end="url(#a)" transform="translate(0 -308.268)"/><path d="M450.001 375.102h-17.974M450.001 250.718h-17.974" fill="none" stroke="#000" stroke-width="3" stroke-linecap="round"/><path d="M441.014 250.718h175.192" opacity=".5" fill="none" stroke="green" stroke-width="6" stroke-linecap="round" stroke-linejoin="bevel" stroke-dasharray="6,18"/><path d="M791.801 683.37h184.17" fill="none" stroke="#000" stroke-width="3" stroke-linecap="round" marker-end="url(#a)" transform="translate(0 -308.268)"/><path d="M791.801 683.37V495.66" fill="none" stroke="#000" stroke-width="3" marker-end="url(#a)" transform="translate(0 -308.268)"/><path d="M800.788 375.102h-17.974" fill="none" stroke="#000" stroke-width="3"/><path d="M800.788 250.718h-17.974" fill="none" stroke="#000" stroke-width="3" stroke-linecap="round"/><path d="M791.801 249.834l123.88 123.88" opacity=".5" fill="none" stroke="green" stroke-width="6" stroke-linecap="round" stroke-linejoin="bevel" stroke-dasharray="6,18"/><path d="M791.801 366.115v196.76" fill="none" stroke="#000" stroke-width="3" stroke-linecap="round"/><use height="1052.362" width="744.094" xlink:href="#b" x="223.432" y="134.765" transform="matrix(2.11144 0 0 2.11144 500.61 111.892)" ns0:text="$t$\n" ns0:preamble="/home/waldgeist/data/sphinx/test.tex"/><use y="134.765" x="223.432" xlink:href="#c" width="1052.362" height="744.094" transform="matrix(2.1226 0 0 2.1226 294.941 -94.66)" ns0:preamble="/home/waldgeist/data/sphinx/test.tex" ns0:text="$s$\n"/><path d="M791.928 375.102l123.88 123.88" fill="none" stroke="green" stroke-width="6" stroke-linecap="round" stroke-linejoin="bevel"/><g ns0:text="\\begin{align*}\nv &amp;&gt; 0, \\\\[-3pt]\ns_0 &amp;= 0\n\\end{align*}\n" ns0:preamble="/home/waldgeist/data/sphinx/inkscape-preamble.tex" transform="matrix(2.1226 0 0 2.1226 -648.15 30.15)" fill="green" stroke="#d40000"><defs><symbol overflow="visible" id="d"><path d="M4.672-3.703c0-.547-.266-.703-.438-.703-.25 0-.5.265-.5.484 0 .125.047.188.157.297.218.203.343.453.343.813 0 .421-.609 2.703-1.765 2.703-.516 0-.75-.344-.75-.875 0-.547.281-1.282.578-2.11.078-.172.125-.312.125-.5 0-.437-.313-.812-.813-.812-.937 0-1.312 1.453-1.312 1.531 0 .11.094.11.11.11.109 0 .109-.032.156-.188.296-1 .718-1.235 1.015-1.235.078 0 .25 0 .25.313 0 .25-.11.531-.172.703-.437 1.156-.562 1.61-.562 2.047 0 1.078.875 1.234 1.328 1.234 1.672 0 2.25-3.296 2.25-3.812zm0 0" stroke="none"/></symbol><symbol overflow="visible" id="e"><path d="M6.734-2.266c.11-.062.188-.109.188-.234 0-.11-.078-.156-.188-.219l-5.53-2.594c-.126-.078-.141-.078-.173-.078a.207.207 0 0 0-.203.204c0 .093.047.156.188.218L6.25-2.5 1.016-.016C.875.047.828.11.828.204c0 .109.094.202.203.202.032 0 .047 0 .172-.078zm0 0" stroke="none"/></symbol><symbol overflow="visible" id="g"><path d="M2.031-.016c0-.656-.25-1.046-.64-1.046a.517.517 0 0 0-.532.53c0 .266.204.532.532.532a.58.58 0 0 0 .343-.125c.032-.031.047-.031.047-.031.016 0 .016 0 .016.14 0 .75-.344 1.344-.672 1.672-.11.11-.11.125-.11.157 0 .078.048.109.094.109.11 0 .922-.766.922-1.938zm0 0" stroke="none"/></symbol><symbol overflow="visible" id="h"><path d="M3.89-3.734c-.265.015-.468.234-.468.453 0 .14.094.297.312.297.22 0 .454-.172.454-.563 0-.453-.422-.86-1.188-.86-1.313 0-1.688 1.016-1.688 1.454 0 .781.735.922 1.032.984.515.11 1.031.219 1.031.766 0 .25-.219 1.094-1.422 1.094-.14 0-.906 0-1.14-.532.39.047.64-.25.64-.53 0-.22-.172-.345-.375-.345-.266 0-.562.204-.562.657 0 .562.578.968 1.421.968 1.625 0 2.016-1.203 2.016-1.656a.97.97 0 0 0-.312-.719c-.266-.28-.563-.343-1-.421-.36-.079-.75-.157-.75-.61 0-.281.234-.89 1.109-.89.25 0 .75.078.89.453zm0 0" stroke="none"/></symbol><symbol overflow="visible" id="f"><path d="M4.578-3.188c0-.796-.047-1.593-.39-2.328C3.733-6.484 2.905-6.64 2.5-6.64c-.61 0-1.328.266-1.75 1.188-.313.687-.36 1.469-.36 2.266 0 .75.032 1.64.454 2.406a1.83 1.83 0 0 0 1.64 1c.532 0 1.297-.203 1.735-1.157.312-.687.36-1.468.36-2.25zM2.484 0c-.39 0-.984-.25-1.156-1.203-.11-.594-.11-1.516-.11-2.11 0-.64 0-1.296.079-1.828.187-1.187.937-1.28 1.187-1.28.329 0 .985.187 1.172 1.171.11.563.11 1.313.11 1.938 0 .75 0 1.421-.11 2.062C3.5-.297 2.937 0 2.484 0zm0 0" stroke="none"/></symbol><symbol overflow="visible" id="j"><path d="M6.844-3.266c.156 0 .343 0 .343-.187 0-.203-.187-.203-.328-.203H.891c-.141 0-.329 0-.329.203 0 .187.188.187.329.187zm.015 1.938c.141 0 .329 0 .329-.203 0-.188-.188-.188-.344-.188H.89c-.141 0-.329 0-.329.188 0 .203.188.203.329.203zm0 0" stroke="none"/></symbol><symbol overflow="visible" id="i"><path d="M3.594-2.219c0-.765-.094-1.328-.406-1.812-.22-.313-.657-.594-1.204-.594C.36-4.625.36-2.719.36-2.219c0 .5 0 2.36 1.625 2.36 1.61 0 1.61-1.86 1.61-2.36zM1.984-.063c-.328 0-.75-.187-.89-.75C1-1.219 1-1.796 1-2.313c0-.515 0-1.046.094-1.421.156-.547.593-.704.89-.704.375 0 .735.235.86.641.11.375.125.875.125 1.485 0 .515 0 1.03-.094 1.468-.14.64-.61.781-.89.781zm0 0" stroke="none"/></symbol></defs><use height="744.094" width="1052.362" xlink:href="#d" x="384.155" y="134.765"/><use height="744.094" width="1052.362" xlink:href="#e" x="392.112" y="134.765"/><use height="744.094" width="1052.362" xlink:href="#f" x="402.625" y="134.765"/><use height="744.094" width="1052.362" xlink:href="#g" x="407.606" y="134.765"/><use height="744.094" width="1052.362" xlink:href="#h" x="380.202" y="146.72"/><use height="744.094" width="1052.362" xlink:href="#i" x="384.872" y="148.214"/><use height="744.094" width="1052.362" xlink:href="#j" x="392.109" y="146.72"/><use height="744.094" width="1052.362" xlink:href="#f" x="402.627" y="146.72"/></g><path d="M98.357 250.718h-16.26" fill="none" stroke="#000" stroke-width="3" stroke-linecap="round"/><path d="M89.205 250.718l73.8-73.8" opacity=".5" fill="none" stroke="green" stroke-width="6" stroke-linecap="round" stroke-linejoin="bevel" stroke-dasharray="5.99999998,17.99999993"/><g transform="matrix(2.1226 0 0 2.1226 -648.15 -96.55)" ns0:preamble="/home/waldgeist/data/sphinx/inkscape-preamble.tex" ns0:text="\\begin{align*}\nv &amp;&gt; 0, \\\\[-3pt]\ns_0 &amp;&gt; 0\n\\end{align*}\n" fill="#7fbf7f" stroke="#d40000"><defs><symbol id="k" overflow="visible"><path d="M4.672-3.703c0-.547-.266-.703-.438-.703-.25 0-.5.265-.5.484 0 .125.047.188.157.297.218.203.343.453.343.813 0 .421-.609 2.703-1.765 2.703-.516 0-.75-.344-.75-.875 0-.547.281-1.282.578-2.11.078-.172.125-.312.125-.5 0-.437-.313-.812-.813-.812-.937 0-1.312 1.453-1.312 1.531 0 .11.094.11.11.11.109 0 .109-.032.156-.188.296-1 .718-1.235 1.015-1.235.078 0 .25 0 .25.313 0 .25-.11.531-.172.703-.437 1.156-.562 1.61-.562 2.047 0 1.078.875 1.234 1.328 1.234 1.672 0 2.25-3.296 2.25-3.812zm0 0" stroke="none"/></symbol><symbol id="l" overflow="visible"><path d="M6.734-2.266c.11-.062.188-.109.188-.234 0-.11-.078-.156-.188-.219l-5.53-2.594c-.126-.078-.141-.078-.173-.078a.207.207 0 0 0-.203.204c0 .093.047.156.188.218L6.25-2.5 1.016-.016C.875.047.828.11.828.204c0 .109.094.202.203.202.032 0 .047 0 .172-.078zm0 0" stroke="none"/></symbol><symbol id="n" overflow="visible"><path d="M2.031-.016c0-.656-.25-1.046-.64-1.046a.517.517 0 0 0-.532.53c0 .266.204.532.532.532a.58.58 0 0 0 .343-.125c.032-.031.047-.031.047-.031.016 0 .016 0 .016.14 0 .75-.344 1.344-.672 1.672-.11.11-.11.125-.11.157 0 .078.048.109.094.109.11 0 .922-.766.922-1.938zm0 0" stroke="none"/></symbol><symbol id="o" overflow="visible"><path d="M3.89-3.734c-.265.015-.468.234-.468.453 0 .14.094.297.312.297.22 0 .454-.172.454-.563 0-.453-.422-.86-1.188-.86-1.313 0-1.688 1.016-1.688 1.454 0 .781.735.922 1.032.984.515.11 1.031.219 1.031.766 0 .25-.219 1.094-1.422 1.094-.14 0-.906 0-1.14-.532.39.047.64-.25.64-.53 0-.22-.172-.345-.375-.345-.266 0-.562.204-.562.657 0 .562.578.968 1.421.968 1.625 0 2.016-1.203 2.016-1.656a.97.97 0 0 0-.312-.719c-.266-.28-.563-.343-1-.421-.36-.079-.75-.157-.75-.61 0-.281.234-.89 1.109-.89.25 0 .75.078.89.453zm0 0" stroke="none"/></symbol><symbol id="m" overflow="visible"><path d="M4.578-3.188c0-.796-.047-1.593-.39-2.328C3.733-6.484 2.905-6.64 2.5-6.64c-.61 0-1.328.266-1.75 1.188-.313.687-.36 1.469-.36 2.266 0 .75.032 1.64.454 2.406a1.83 1.83 0 0 0 1.64 1c.532 0 1.297-.203 1.735-1.157.312-.687.36-1.468.36-2.25zM2.484 0c-.39 0-.984-.25-1.156-1.203-.11-.594-.11-1.516-.11-2.11 0-.64 0-1.296.079-1.828.187-1.187.937-1.28 1.187-1.28.329 0 .985.187 1.172 1.171.11.563.11 1.313.11 1.938 0 .75 0 1.421-.11 2.062C3.5-.297 2.937 0 2.484 0zm0 0" stroke="none"/></symbol><symbol id="p" overflow="visible"><path d="M3.594-2.219c0-.765-.094-1.328-.406-1.812-.22-.313-.657-.594-1.204-.594C.36-4.625.36-2.719.36-2.219c0 .5 0 2.36 1.625 2.36 1.61 0 1.61-1.86 1.61-2.36zM1.984-.063c-.328 0-.75-.187-.89-.75C1-1.219 1-1.796 1-2.313c0-.515 0-1.046.094-1.421.156-.547.593-.704.89-.704.375 0 .735.235.86.641.11.375.125.875.125 1.485 0 .515 0 1.03-.094 1.468-.14.64-.61.781-.89.781zm0 0" stroke="none"/></symbol></defs><use y="134.765" x="384.155" xlink:href="#k" width="1052.362" height="744.094"/><use y="134.765" x="392.112" xlink:href="#l" width="1052.362" height="744.094"/><use y="134.765" x="402.625" xlink:href="#m" width="1052.362" height="744.094"/><use y="134.765" x="407.606" xlink:href="#n" width="1052.362" height="744.094"/><use y="146.72" x="380.202" xlink:href="#o" width="1052.362" height="744.094"/><use y="148.214" x="384.872" xlink:href="#p" width="1052.362" height="744.094"/><use y="146.72" x="392.109" xlink:href="#l" width="1052.362" height="744.094"/><use y="146.72" x="402.625" xlink:href="#m" width="1052.362" height="744.094"/></g><g ns0:text="\\begin{align*}\nv &amp;= 0, \\\\[-3pt]\ns_0 &amp;&gt; 0\n\\end{align*}\n" ns0:preamble="/home/waldgeist/data/sphinx/inkscape-preamble.tex" transform="matrix(2.1226 0 0 2.1226 -259.513 -76.55)" fill="#7fbf7f" stroke="#d40000"><defs><symbol overflow="visible" id="q"><path d="M4.672-3.703c0-.547-.266-.703-.438-.703-.25 0-.5.265-.5.484 0 .125.047.188.157.297.218.203.343.453.343.813 0 .421-.609 2.703-1.765 2.703-.516 0-.75-.344-.75-.875 0-.547.281-1.282.578-2.11.078-.172.125-.312.125-.5 0-.437-.313-.812-.813-.812-.937 0-1.312 1.453-1.312 1.531 0 .11.094.11.11.11.109 0 .109-.032.156-.188.296-1 .718-1.235 1.015-1.235.078 0 .25 0 .25.313 0 .25-.11.531-.172.703-.437 1.156-.562 1.61-.562 2.047 0 1.078.875 1.234 1.328 1.234 1.672 0 2.25-3.296 2.25-3.812zm0 0" stroke="none"/></symbol><symbol overflow="visible" id="t"><path d="M2.031-.016c0-.656-.25-1.046-.64-1.046a.517.517 0 0 0-.532.53c0 .266.204.532.532.532a.58.58 0 0 0 .343-.125c.032-.031.047-.031.047-.031.016 0 .016 0 .016.14 0 .75-.344 1.344-.672 1.672-.11.11-.11.125-.11.157 0 .078.048.109.094.109.11 0 .922-.766.922-1.938zm0 0" stroke="none"/></symbol><symbol overflow="visible" id="u"><path d="M3.89-3.734c-.265.015-.468.234-.468.453 0 .14.094.297.312.297.22 0 .454-.172.454-.563 0-.453-.422-.86-1.188-.86-1.313 0-1.688 1.016-1.688 1.454 0 .781.735.922 1.032.984.515.11 1.031.219 1.031.766 0 .25-.219 1.094-1.422 1.094-.14 0-.906 0-1.14-.532.39.047.64-.25.64-.53 0-.22-.172-.345-.375-.345-.266 0-.562.204-.562.657 0 .562.578.968 1.421.968 1.625 0 2.016-1.203 2.016-1.656a.97.97 0 0 0-.312-.719c-.266-.28-.563-.343-1-.421-.36-.079-.75-.157-.75-.61 0-.281.234-.89 1.109-.89.25 0 .75.078.89.453zm0 0" stroke="none"/></symbol><symbol overflow="visible" id="w"><path d="M6.734-2.266c.11-.062.188-.109.188-.234 0-.11-.078-.156-.188-.219l-5.53-2.594c-.126-.078-.141-.078-.173-.078a.207.207 0 0 0-.203.204c0 .093.047.156.188.218L6.25-2.5 1.016-.016C.875.047.828.11.828.204c0 .109.094.202.203.202.032 0 .047 0 .172-.078zm0 0" stroke="none"/></symbol><symbol overflow="visible" id="r"><path d="M6.844-3.266c.156 0 .343 0 .343-.187 0-.203-.187-.203-.328-.203H.891c-.141 0-.329 0-.329.203 0 .187.188.187.329.187zm.015 1.938c.141 0 .329 0 .329-.203 0-.188-.188-.188-.344-.188H.89c-.141 0-.329 0-.329.188 0 .203.188.203.329.203zm0 0" stroke="none"/></symbol><symbol overflow="visible" id="s"><path d="M4.578-3.188c0-.796-.047-1.593-.39-2.328C3.733-6.484 2.905-6.64 2.5-6.64c-.61 0-1.328.266-1.75 1.188-.313.687-.36 1.469-.36 2.266 0 .75.032 1.64.454 2.406a1.83 1.83 0 0 0 1.64 1c.532 0 1.297-.203 1.735-1.157.312-.687.36-1.468.36-2.25zM2.484 0c-.39 0-.984-.25-1.156-1.203-.11-.594-.11-1.516-.11-2.11 0-.64 0-1.296.079-1.828.187-1.187.937-1.28 1.187-1.28.329 0 .985.187 1.172 1.171.11.563.11 1.313.11 1.938 0 .75 0 1.421-.11 2.062C3.5-.297 2.937 0 2.484 0zm0 0" stroke="none"/></symbol><symbol overflow="visible" id="v"><path d="M3.594-2.219c0-.765-.094-1.328-.406-1.812-.22-.313-.657-.594-1.204-.594C.36-4.625.36-2.719.36-2.219c0 .5 0 2.36 1.625 2.36 1.61 0 1.61-1.86 1.61-2.36zM1.984-.063c-.328 0-.75-.187-.89-.75C1-1.219 1-1.796 1-2.313c0-.515 0-1.046.094-1.421.156-.547.593-.704.89-.704.375 0 .735.235.86.641.11.375.125.875.125 1.485 0 .515 0 1.03-.094 1.468-.14.64-.61.781-.89.781zm0 0" stroke="none"/></symbol></defs><use xlink:href="#q" x="384.155" y="134.765" width="1052.362" height="744.094"/><use xlink:href="#r" x="392.109" y="134.765" width="1052.362" height="744.094"/><use xlink:href="#s" x="402.627" y="134.765" width="1052.362" height="744.094"/><use xlink:href="#t" x="407.606" y="134.765" width="1052.362" height="744.094"/><use xlink:href="#u" x="380.202" y="146.72" width="1052.362" height="744.094"/><use xlink:href="#v" x="384.872" y="148.214" width="1052.362" height="744.094"/><use xlink:href="#w" x="392.109" y="146.72" width="1052.362" height="744.094"/><use xlink:href="#s" x="402.625" y="146.72" width="1052.362" height="744.094"/></g><g transform="matrix(2.1226 0 0 2.1226 -256.77 52.15)" ns0:preamble="/home/waldgeist/data/sphinx/inkscape-preamble.tex" ns0:text="\\begin{align*}\nv &amp;= 0, \\\\[-3pt]\ns_0 &amp;= 0\n\\end{align*}\n" fill="green" stroke="#d40000"><defs><symbol id="x" overflow="visible"><path d="M4.672-3.703c0-.547-.266-.703-.438-.703-.25 0-.5.265-.5.484 0 .125.047.188.157.297.218.203.343.453.343.813 0 .421-.609 2.703-1.765 2.703-.516 0-.75-.344-.75-.875 0-.547.281-1.282.578-2.11.078-.172.125-.312.125-.5 0-.437-.313-.812-.813-.812-.937 0-1.312 1.453-1.312 1.531 0 .11.094.11.11.11.109 0 .109-.032.156-.188.296-1 .718-1.235 1.015-1.235.078 0 .25 0 .25.313 0 .25-.11.531-.172.703-.437 1.156-.562 1.61-.562 2.047 0 1.078.875 1.234 1.328 1.234 1.672 0 2.25-3.296 2.25-3.812zm0 0" stroke="none"/></symbol><symbol id="A" overflow="visible"><path d="M2.031-.016c0-.656-.25-1.046-.64-1.046a.517.517 0 0 0-.532.53c0 .266.204.532.532.532a.58.58 0 0 0 .343-.125c.032-.031.047-.031.047-.031.016 0 .016 0 .016.14 0 .75-.344 1.344-.672 1.672-.11.11-.11.125-.11.157 0 .078.048.109.094.109.11 0 .922-.766.922-1.938zm0 0" stroke="none"/></symbol><symbol id="B" overflow="visible"><path d="M3.89-3.734c-.265.015-.468.234-.468.453 0 .14.094.297.312.297.22 0 .454-.172.454-.563 0-.453-.422-.86-1.188-.86-1.313 0-1.688 1.016-1.688 1.454 0 .781.735.922 1.032.984.515.11 1.031.219 1.031.766 0 .25-.219 1.094-1.422 1.094-.14 0-.906 0-1.14-.532.39.047.64-.25.64-.53 0-.22-.172-.345-.375-.345-.266 0-.562.204-.562.657 0 .562.578.968 1.421.968 1.625 0 2.016-1.203 2.016-1.656a.97.97 0 0 0-.312-.719c-.266-.28-.563-.343-1-.421-.36-.079-.75-.157-.75-.61 0-.281.234-.89 1.109-.89.25 0 .75.078.89.453zm0 0" stroke="none"/></symbol><symbol id="y" overflow="visible"><path d="M6.844-3.266c.156 0 .343 0 .343-.187 0-.203-.187-.203-.328-.203H.891c-.141 0-.329 0-.329.203 0 .187.188.187.329.187zm.015 1.938c.141 0 .329 0 .329-.203 0-.188-.188-.188-.344-.188H.89c-.141 0-.329 0-.329.188 0 .203.188.203.329.203zm0 0" stroke="none"/></symbol><symbol id="z" overflow="visible"><path d="M4.578-3.188c0-.796-.047-1.593-.39-2.328C3.733-6.484 2.905-6.64 2.5-6.64c-.61 0-1.328.266-1.75 1.188-.313.687-.36 1.469-.36 2.266 0 .75.032 1.64.454 2.406a1.83 1.83 0 0 0 1.64 1c.532 0 1.297-.203 1.735-1.157.312-.687.36-1.468.36-2.25zM2.484 0c-.39 0-.984-.25-1.156-1.203-.11-.594-.11-1.516-.11-2.11 0-.64 0-1.296.079-1.828.187-1.187.937-1.28 1.187-1.28.329 0 .985.187 1.172 1.171.11.563.11 1.313.11 1.938 0 .75 0 1.421-.11 2.062C3.5-.297 2.937 0 2.484 0zm0 0" stroke="none"/></symbol><symbol id="C" overflow="visible"><path d="M3.594-2.219c0-.765-.094-1.328-.406-1.812-.22-.313-.657-.594-1.204-.594C.36-4.625.36-2.719.36-2.219c0 .5 0 2.36 1.625 2.36 1.61 0 1.61-1.86 1.61-2.36zM1.984-.063c-.328 0-.75-.187-.89-.75C1-1.219 1-1.796 1-2.313c0-.515 0-1.046.094-1.421.156-.547.593-.704.89-.704.375 0 .735.235.86.641.11.375.125.875.125 1.485 0 .515 0 1.03-.094 1.468-.14.64-.61.781-.89.781zm0 0" stroke="none"/></symbol></defs><use y="134.765" x="384.155" xlink:href="#x" width="1052.362" height="744.094"/><use y="134.765" x="392.109" xlink:href="#y" width="1052.362" height="744.094"/><use y="134.765" x="402.627" xlink:href="#z" width="1052.362" height="744.094"/><use y="134.765" x="407.606" xlink:href="#A" width="1052.362" height="744.094"/><use y="146.72" x="380.202" xlink:href="#B" width="1052.362" height="744.094"/><use y="148.214" x="384.872" xlink:href="#C" width="1052.362" height="744.094"/><use y="146.72" x="392.109" xlink:href="#y" width="1052.362" height="744.094"/><use y="146.72" x="402.627" xlink:href="#z" width="1052.362" height="744.094"/></g><path d="M441.519 375.102h175.192" fill="none" stroke="green" stroke-width="6" stroke-linecap="round" stroke-linejoin="bevel"/><g ns0:text="\\begin{align*}\nv &amp;&lt; 0, \\\\[-3pt]\ns_0 &amp;&gt; 0\n\\end{align*}\n" ns0:preamble="/home/waldgeist/data/sphinx/inkscape-preamble.tex" transform="matrix(2.1226 0 0 2.1226 93.84 34.961)" fill="#7fbf7f" stroke="#d40000"><defs><symbol overflow="visible" id="D"><path d="M4.672-3.703c0-.547-.266-.703-.438-.703-.25 0-.5.265-.5.484 0 .125.047.188.157.297.218.203.343.453.343.813 0 .421-.609 2.703-1.765 2.703-.516 0-.75-.344-.75-.875 0-.547.281-1.282.578-2.11.078-.172.125-.312.125-.5 0-.437-.313-.812-.813-.812-.937 0-1.312 1.453-1.312 1.531 0 .11.094.11.11.11.109 0 .109-.032.156-.188.296-1 .718-1.235 1.015-1.235.078 0 .25 0 .25.313 0 .25-.11.531-.172.703-.437 1.156-.562 1.61-.562 2.047 0 1.078.875 1.234 1.328 1.234 1.672 0 2.25-3.296 2.25-3.812zm0 0" stroke="none"/></symbol><symbol overflow="visible" id="E"><path d="M6.734-4.969c.11-.062.188-.11.188-.218a.207.207 0 0 0-.203-.204c-.032 0-.047 0-.172.079L1.016-2.72c-.11.063-.188.11-.188.219 0 .125.078.172.188.234L6.546.328c.126.078.141.078.173.078.11 0 .203-.094.203-.203 0-.11-.078-.156-.188-.219L1.5-2.5zm0 0" stroke="none"/></symbol><symbol overflow="visible" id="G"><path d="M2.031-.016c0-.656-.25-1.046-.64-1.046a.517.517 0 0 0-.532.53c0 .266.204.532.532.532a.58.58 0 0 0 .343-.125c.032-.031.047-.031.047-.031.016 0 .016 0 .016.14 0 .75-.344 1.344-.672 1.672-.11.11-.11.125-.11.157 0 .078.048.109.094.109.11 0 .922-.766.922-1.938zm0 0" stroke="none"/></symbol><symbol overflow="visible" id="H"><path d="M3.89-3.734c-.265.015-.468.234-.468.453 0 .14.094.297.312.297.22 0 .454-.172.454-.563 0-.453-.422-.86-1.188-.86-1.313 0-1.688 1.016-1.688 1.454 0 .781.735.922 1.032.984.515.11 1.031.219 1.031.766 0 .25-.219 1.094-1.422 1.094-.14 0-.906 0-1.14-.532.39.047.64-.25.64-.53 0-.22-.172-.345-.375-.345-.266 0-.562.204-.562.657 0 .562.578.968 1.421.968 1.625 0 2.016-1.203 2.016-1.656a.97.97 0 0 0-.312-.719c-.266-.28-.563-.343-1-.421-.36-.079-.75-.157-.75-.61 0-.281.234-.89 1.109-.89.25 0 .75.078.89.453zm0 0" stroke="none"/></symbol><symbol overflow="visible" id="J"><path d="M6.734-2.266c.11-.062.188-.109.188-.234 0-.11-.078-.156-.188-.219l-5.53-2.594c-.126-.078-.141-.078-.173-.078a.207.207 0 0 0-.203.204c0 .093.047.156.188.218L6.25-2.5 1.016-.016C.875.047.828.11.828.204c0 .109.094.202.203.202.032 0 .047 0 .172-.078zm0 0" stroke="none"/></symbol><symbol overflow="visible" id="F"><path d="M4.578-3.188c0-.796-.047-1.593-.39-2.328C3.733-6.484 2.905-6.64 2.5-6.64c-.61 0-1.328.266-1.75 1.188-.313.687-.36 1.469-.36 2.266 0 .75.032 1.64.454 2.406a1.83 1.83 0 0 0 1.64 1c.532 0 1.297-.203 1.735-1.157.312-.687.36-1.468.36-2.25zM2.484 0c-.39 0-.984-.25-1.156-1.203-.11-.594-.11-1.516-.11-2.11 0-.64 0-1.296.079-1.828.187-1.187.937-1.28 1.187-1.28.329 0 .985.187 1.172 1.171.11.563.11 1.313.11 1.938 0 .75 0 1.421-.11 2.062C3.5-.297 2.937 0 2.484 0zm0 0" stroke="none"/></symbol><symbol overflow="visible" id="I"><path d="M3.594-2.219c0-.765-.094-1.328-.406-1.812-.22-.313-.657-.594-1.204-.594C.36-4.625.36-2.719.36-2.219c0 .5 0 2.36 1.625 2.36 1.61 0 1.61-1.86 1.61-2.36zM1.984-.063c-.328 0-.75-.187-.89-.75C1-1.219 1-1.796 1-2.313c0-.515 0-1.046.094-1.421.156-.547.593-.704.89-.704.375 0 .735.235.86.641.11.375.125.875.125 1.485 0 .515 0 1.03-.094 1.468-.14.64-.61.781-.89.781zm0 0" stroke="none"/></symbol></defs><use height="744.094" width="1052.362" xlink:href="#D" x="384.155" y="134.765"/><use height="744.094" width="1052.362" xlink:href="#E" x="392.112" y="134.765"/><use height="744.094" width="1052.362" xlink:href="#F" x="402.625" y="134.765"/><use height="744.094" width="1052.362" xlink:href="#G" x="407.606" y="134.765"/><use height="744.094" width="1052.362" xlink:href="#H" x="380.202" y="146.72"/><use height="744.094" width="1052.362" xlink:href="#I" x="384.872" y="148.214"/><use height="744.094" width="1052.362" xlink:href="#J" x="392.109" y="146.72"/><use height="744.094" width="1052.362" xlink:href="#F" x="402.625" y="146.72"/></g><g transform="matrix(2.1226 0 0 2.1226 93.84 161.199)" ns0:preamble="/home/waldgeist/data/sphinx/inkscape-preamble.tex" ns0:text="\\begin{align*}\nv &amp;&lt; 0, \\\\[-3pt]\ns_0 &amp;= 0\n\\end{align*}\n" fill="green" stroke="#d40000"><defs><symbol id="K" overflow="visible"><path d="M4.672-3.703c0-.547-.266-.703-.438-.703-.25 0-.5.265-.5.484 0 .125.047.188.157.297.218.203.343.453.343.813 0 .421-.609 2.703-1.765 2.703-.516 0-.75-.344-.75-.875 0-.547.281-1.282.578-2.11.078-.172.125-.312.125-.5 0-.437-.313-.812-.813-.812-.937 0-1.312 1.453-1.312 1.531 0 .11.094.11.11.11.109 0 .109-.032.156-.188.296-1 .718-1.235 1.015-1.235.078 0 .25 0 .25.313 0 .25-.11.531-.172.703-.437 1.156-.562 1.61-.562 2.047 0 1.078.875 1.234 1.328 1.234 1.672 0 2.25-3.296 2.25-3.812zm0 0" stroke="none"/></symbol><symbol id="L" overflow="visible"><path d="M6.734-4.969c.11-.062.188-.11.188-.218a.207.207 0 0 0-.203-.204c-.032 0-.047 0-.172.079L1.016-2.72c-.11.063-.188.11-.188.219 0 .125.078.172.188.234L6.546.328c.126.078.141.078.173.078.11 0 .203-.094.203-.203 0-.11-.078-.156-.188-.219L1.5-2.5zm0 0" stroke="none"/></symbol><symbol id="N" overflow="visible"><path d="M2.031-.016c0-.656-.25-1.046-.64-1.046a.517.517 0 0 0-.532.53c0 .266.204.532.532.532a.58.58 0 0 0 .343-.125c.032-.031.047-.031.047-.031.016 0 .016 0 .016.14 0 .75-.344 1.344-.672 1.672-.11.11-.11.125-.11.157 0 .078.048.109.094.109.11 0 .922-.766.922-1.938zm0 0" stroke="none"/></symbol><symbol id="O" overflow="visible"><path d="M3.89-3.734c-.265.015-.468.234-.468.453 0 .14.094.297.312.297.22 0 .454-.172.454-.563 0-.453-.422-.86-1.188-.86-1.313 0-1.688 1.016-1.688 1.454 0 .781.735.922 1.032.984.515.11 1.031.219 1.031.766 0 .25-.219 1.094-1.422 1.094-.14 0-.906 0-1.14-.532.39.047.64-.25.64-.53 0-.22-.172-.345-.375-.345-.266 0-.562.204-.562.657 0 .562.578.968 1.421.968 1.625 0 2.016-1.203 2.016-1.656a.97.97 0 0 0-.312-.719c-.266-.28-.563-.343-1-.421-.36-.079-.75-.157-.75-.61 0-.281.234-.89 1.109-.89.25 0 .75.078.89.453zm0 0" stroke="none"/></symbol><symbol id="M" overflow="visible"><path d="M4.578-3.188c0-.796-.047-1.593-.39-2.328C3.733-6.484 2.905-6.64 2.5-6.64c-.61 0-1.328.266-1.75 1.188-.313.687-.36 1.469-.36 2.266 0 .75.032 1.64.454 2.406a1.83 1.83 0 0 0 1.64 1c.532 0 1.297-.203 1.735-1.157.312-.687.36-1.468.36-2.25zM2.484 0c-.39 0-.984-.25-1.156-1.203-.11-.594-.11-1.516-.11-2.11 0-.64 0-1.296.079-1.828.187-1.187.937-1.28 1.187-1.28.329 0 .985.187 1.172 1.171.11.563.11 1.313.11 1.938 0 .75 0 1.421-.11 2.062C3.5-.297 2.937 0 2.484 0zm0 0" stroke="none"/></symbol><symbol id="Q" overflow="visible"><path d="M6.844-3.266c.156 0 .343 0 .343-.187 0-.203-.187-.203-.328-.203H.891c-.141 0-.329 0-.329.203 0 .187.188.187.329.187zm.015 1.938c.141 0 .329 0 .329-.203 0-.188-.188-.188-.344-.188H.89c-.141 0-.329 0-.329.188 0 .203.188.203.329.203zm0 0" stroke="none"/></symbol><symbol id="P" overflow="visible"><path d="M3.594-2.219c0-.765-.094-1.328-.406-1.812-.22-.313-.657-.594-1.204-.594C.36-4.625.36-2.719.36-2.219c0 .5 0 2.36 1.625 2.36 1.61 0 1.61-1.86 1.61-2.36zM1.984-.063c-.328 0-.75-.187-.89-.75C1-1.219 1-1.796 1-2.313c0-.515 0-1.046.094-1.421.156-.547.593-.704.89-.704.375 0 .735.235.86.641.11.375.125.875.125 1.485 0 .515 0 1.03-.094 1.468-.14.64-.61.781-.89.781zm0 0" stroke="none"/></symbol></defs><use y="134.765" x="384.155" xlink:href="#K"/><use y="134.765" x="392.112" xlink:href="#L"/><use y="134.765" x="402.625" xlink:href="#M"/><use y="134.765" x="407.606" xlink:href="#N"/><use y="146.72" x="380.202" xlink:href="#O"/><use y="148.214" x="384.872" xlink:href="#P"/><use y="146.72" x="392.109" xlink:href="#Q"/><use y="146.72" x="402.628" xlink:href="#M"/></g></svg>