<?xml version="1.0" encoding="UTF-8" standalone="no"?>
<!-- Created with Inkscape (http://www.inkscape.org/) -->

<svg
   xmlns:ns0="http://www.iki.fi/pav/software/textext/"
   xmlns:dc="http://purl.org/dc/elements/1.1/"
   xmlns:cc="http://creativecommons.org/ns#"
   xmlns:rdf="http://www.w3.org/1999/02/22-rdf-syntax-ns#"
   xmlns:svg="http://www.w3.org/2000/svg"
   xmlns="http://www.w3.org/2000/svg"
   xmlns:xlink="http://www.w3.org/1999/xlink"
   xmlns:sodipodi="http://sodipodi.sourceforge.net/DTD/sodipodi-0.dtd"
   xmlns:inkscape="http://www.inkscape.org/namespaces/inkscape"
   width="1052.3622"
   height="744.09448"
   id="svg11615"
   version="1.1"
   inkscape:version="0.48.3.1 r9886"
   sodipodi:docname="ueberholvorgang.svg">
  <sodipodi:namedview
     id="base"
     pagecolor="#ffffff"
     bordercolor="#666666"
     borderopacity="1.0"
     inkscape:pageopacity="0.0"
     inkscape:pageshadow="2"
     inkscape:zoom="0.49497475"
     inkscape:cx="687.60597"
     inkscape:cy="350.38852"
     inkscape:document-units="px"
     inkscape:current-layer="layer1"
     showgrid="false"
     inkscape:object-paths="true"
     inkscape:object-nodes="true"
     inkscape:snap-smooth-nodes="true"
     inkscape:window-width="1280"
     inkscape:window-height="974"
     inkscape:window-x="0"
     inkscape:window-y="0"
     inkscape:window-maximized="1"
     showguides="false"
     inkscape:guide-bbox="true"
     inkscape:snap-global="false">
    <sodipodi:guide
       orientation="1,0"
       position="248.26716,363.39108"
       id="guide17415" />
    <sodipodi:guide
       orientation="1,0"
       position="427.8984,382.10087"
       id="guide17417" />
    <sodipodi:guide
       orientation="1,0"
       position="624.45228,363.18058"
       id="guide17419" />
    <sodipodi:guide
       orientation="1,0"
       position="899.03576,325.26912"
       id="guide18022" />
  </sodipodi:namedview>
  <title
     id="title18951">Ueberholvorgang</title>
  <defs
     id="defs11617">
    <marker
       inkscape:stockid="TriangleOutM"
       orient="auto"
       refY="0.0"
       refX="0.0"
       id="TriangleOutM"
       style="overflow:visible">
      <path
         id="path16934"
         d="M 5.77,0.0 L -2.88,5.0 L -2.88,-5.0 L 5.77,0.0 z "
         style="fill-rule:evenodd;stroke:#000000;stroke-width:1.0pt"
         transform="scale(0.4)" />
    </marker>
    <marker
       inkscape:stockid="TriangleInM"
       orient="auto"
       refY="0.0"
       refX="0.0"
       id="TriangleInM"
       style="overflow:visible">
      <path
         id="path16925"
         d="M 5.77,0.0 L -2.88,5.0 L -2.88,-5.0 L 5.77,0.0 z "
         style="fill-rule:evenodd;stroke:#000000;stroke-width:1.0pt"
         transform="scale(-0.4)" />
    </marker>
    <inkscape:perspective
       id="perspective9"
       inkscape:persp3d-origin="372.04724 : 350.78739 : 1"
       inkscape:vp_z="744.09448 : 526.18109 : 1"
       inkscape:vp_y="0 : 1000 : 0"
       inkscape:vp_x="0 : 526.18109 : 1"
       sodipodi:type="inkscape:persp3d" />
  </defs>
  <metadata
     id="metadata11620">
    <rdf:RDF>
      <cc:Work
         rdf:about="">
        <dc:format>image/svg+xml</dc:format>
        <dc:type
           rdf:resource="http://purl.org/dc/dcmitype/StillImage" />
        <dc:title>Ueberholvorgang</dc:title>
        <cc:license
           rdf:resource="http://creativecommons.org/licenses/by-nc-sa/3.0/" />
        <dc:date>2012-08-03</dc:date>
        <dc:creator>
          <cc:Agent>
            <dc:title>Bernhard Grotz</dc:title>
          </cc:Agent>
        </dc:creator>
        <dc:rights>
          <cc:Agent>
            <dc:title>Bernhard Grotz</dc:title>
          </cc:Agent>
        </dc:rights>
        <dc:publisher>
          <cc:Agent>
            <dc:title>Bernhard Grotz</dc:title>
          </cc:Agent>
        </dc:publisher>
        <dc:language>de-DE</dc:language>
        <dc:subject>
          <rdf:Bag>
            <rdf:li>Physik</rdf:li>
            <rdf:li>Mechanik</rdf:li>
            <rdf:li>Kinematik</rdf:li>
            <rdf:li>Ueberholweg</rdf:li>
            <rdf:li>Sicherheitsabstand</rdf:li>
          </rdf:Bag>
        </dc:subject>
      </cc:Work>
      <cc:License
         rdf:about="http://creativecommons.org/licenses/by-nc-sa/3.0/">
        <cc:permits
           rdf:resource="http://creativecommons.org/ns#Reproduction" />
        <cc:permits
           rdf:resource="http://creativecommons.org/ns#Distribution" />
        <cc:requires
           rdf:resource="http://creativecommons.org/ns#Notice" />
        <cc:requires
           rdf:resource="http://creativecommons.org/ns#Attribution" />
        <cc:prohibits
           rdf:resource="http://creativecommons.org/ns#CommercialUse" />
        <cc:permits
           rdf:resource="http://creativecommons.org/ns#DerivativeWorks" />
        <cc:requires
           rdf:resource="http://creativecommons.org/ns#ShareAlike" />
      </cc:License>
    </rdf:RDF>
  </metadata>
  <g
     inkscape:label="Layer 1"
     inkscape:groupmode="layer"
     id="layer1"
     transform="translate(0,-308.2677)">
    <use
       transform="matrix(4.2724423,0,0,4.2724423,-574.94131,-82.30101)"
       style="fill:#000000;fill-opacity:1"
       height="744.09448"
       width="1052.3622"
       xlink:href="#textext-d9743f22-2"
       x="236.16222"
       y="134.765"
       id="use5551" />
    <use
       transform="matrix(4.2724423,0,0,4.2724423,-574.94131,-82.30101)"
       style="fill:#000000;fill-opacity:1"
       height="744.09448"
       width="1052.3622"
       xlink:href="#textext-d9743f22-2"
       x="236.16222"
       y="134.765"
       id="use5551-0" />
    <rect
       ry="0.394793"
       y="493.43671"
       x="44.338318"
       height="373.75644"
       width="963.68555"
       id="rect18949"
       style="fill:#ffffff;fill-opacity:1;fill-rule:nonzero;stroke:#ffffff;stroke-width:1;stroke-linecap:butt;stroke-linejoin:miter;stroke-miterlimit:4;stroke-opacity:1;stroke-dasharray:none;stroke-dashoffset:0"
       inkscape:export-filename="/home/waldgeist/data/pics/physik/Own/mechanik/kinematik/ueberholvorgang.png"
       inkscape:export-xdpi="150"
       inkscape:export-ydpi="150" />
    <path
       inkscape:connector-curvature="0"
       id="path3455"
       style="fill:#010101"
       d="m 613.5455,604.82956 c 3.09324,-1.60879 4.48629,-3.90799 4.48629,-7.40461 0,-2.488 -0.55099,-4.14032 -1.84433,-5.53073 -3.5302,-3.79528 -10.18701,-3.38143 -12.95783,0.80553 -0.89286,1.34922 -1.22532,2.44041 -1.34453,4.413 -0.14381,2.38034 -0.0308,2.81179 1.23485,4.70547 0.91354,1.36709 1.99179,2.35672 3.13211,2.87466 2.13125,0.96801 5.57109,1.03244 7.29344,0.13668 z m -68.78985,0.079 c 1.87343,-0.81765 4.39003,-3.80027 4.72842,-5.60402 0.72457,-3.8623 -0.98172,-7.57772 -4.19421,-9.13288 -7.82973,-3.79029 -15.57642,4.93949 -10.54582,11.88409 2.22874,3.0767 6.62706,4.33 10.01161,2.85281 z m -50.41736,-0.0776 c 2.18461,-1.13389 3.61249,-2.82496 4.34359,-5.1443 0.60779,-1.92811 0.62654,-2.49792 0.13937,-4.23785 -1.05739,-3.77657 -4.18293,-6.19148 -7.9909,-6.17405 -4.62793,0.0212 -7.82179,3.01718 -8.15699,7.65156 -0.19111,2.64216 0.29242,3.96011 2.25234,6.13904 2.10117,2.336 6.66446,3.19193 9.41259,1.7656 z m -43.15388,0 c 2.18461,-1.13389 3.61249,-2.82496 4.34359,-5.1443 0.60778,-1.92811 0.6265,-2.49792 0.13937,-4.23785 -1.0574,-3.77657 -4.18298,-6.19148 -7.9909,-6.17405 -4.62793,0.0212 -7.82179,3.01718 -8.15699,7.65156 -0.19111,2.64216 0.29238,3.96011 2.25234,6.13904 2.10117,2.336 6.66442,3.19193 9.41259,1.7656 z m 172.29502,-8.33848 c 0.95289,-0.36015 0.96144,-0.43979 0.97285,-9.02925 l 0.0115,-8.66589 -3.09525,-8.27077 c -2.34722,-6.27211 -3.30746,-8.35148 -3.97357,-8.60472 -0.95724,-0.36395 -21.16553,-1.6663 -21.68781,-1.39772 -0.17625,0.0907 -0.32045,6.36379 -0.32045,13.9403 0,10.14458 -0.13515,13.91063 -0.51272,14.28821 -0.38544,0.38543 -5.95323,0.51271 -22.43147,0.51271 -12.05531,0 -21.91876,0.11388 -21.91876,0.25303 0,0.1392 0.36352,0.71524 0.80788,1.2801 0.44432,0.56488 1.15417,2.18315 1.57743,3.59616 l 0.76954,2.56909 21.99348,-0.11062 21.99348,-0.11062 0.79455,-2.34994 c 2.35257,-6.95807 9.03573,-10.52532 15.29903,-8.16608 4.1488,1.56277 6.99067,4.77384 7.88464,8.90888 0.35942,1.66248 0.58549,1.82958 1.83566,1.35713 z m -12.3126,-18.28332 c -3.89321,-0.41816 -7.306,-0.90084 -7.58398,-1.07261 -0.35258,-0.21791 -0.50537,-2.24648 -0.50537,-6.70954 0,-5.36796 0.10592,-6.43783 0.65842,-6.64984 0.36215,-0.13899 3.45351,-0.063 6.86966,0.16885 4.4566,0.30247 6.38938,0.59972 6.84186,1.05223 1.0553,1.05527 4.94168,11.90822 4.66254,13.02035 -0.3096,1.23361 -1.10294,1.24745 -10.94313,0.19056 z m -81.9065,18.47899 c 0.11836,-0.20507 0.3389,-1.05999 0.49011,-1.89973 0.15126,-0.83976 0.84523,-2.42598 1.54218,-3.52495 l 1.2671,-1.99812 -7.91532,0 -7.9154,0 0.12719,2.67042 0.12721,2.67042 2.99086,0.99774 c 3.13886,1.04709 8.91816,1.72191 9.28607,1.08422 z m -18.89956,-4.8592 0,-2.5636 -5.38278,0 -5.38279,0 0.92183,1.38862 c 0.50699,0.76374 1.12148,1.91735 1.36554,2.5636 0.44073,1.16699 0.47093,1.17498 4.46096,1.17498 l 4.01724,0 0,-2.5636 z m -30.56743,1.41468 c 0.1586,-0.63192 0.66013,-1.67099 1.11448,-2.30912 0.45436,-0.63812 0.82612,-1.27471 0.82612,-1.41467 0,-0.13997 -5.69084,-0.25449 -12.64631,-0.25449 l -12.64631,0 0.92183,1.38862 c 0.507,0.76374 1.12149,1.91735 1.36554,2.5636 l 0.44372,1.17498 10.16628,0 10.16628,0 0.28837,-1.14892 z m -43.15389,0 c 0.15861,-0.63192 0.6601,-1.67099 1.11449,-2.30912 0.45436,-0.63812 0.82612,-1.27471 0.82612,-1.41467 0,-0.13997 -2.40337,-0.25449 -5.34082,-0.25449 l -5.34084,0 0,2.5636 0,2.5636 4.22635,0 4.22635,0 0.28835,-1.14892 z m 152.33824,-24.70069 0,-16.87702 -36.10399,0 -36.10394,0 0,16.87702 0,16.87702 36.10394,0 36.10399,0 0,-16.87702 z m -83.74411,0 0,-16.87702 -38.66758,0 -38.6676,0 0,16.87702 0,16.87702 38.6676,0 38.66758,0 0,-16.87702 z"
       inkscape:export-filename="/home/waldgeist/data/pics/physik/Own/mechanik/kinematik/ueberholvorgang.png"
       inkscape:export-xdpi="150"
       inkscape:export-ydpi="150" />
    <rect
       style="fill:#4d4d4d;fill-opacity:1;fill-rule:nonzero;stroke:none"
       id="rect16234"
       width="888.34314"
       height="5.7142859"
       x="82.009521"
       y="605.52722"
       ry="0.45454547"
       inkscape:export-filename="/home/waldgeist/data/pics/physik/Own/mechanik/kinematik/ueberholvorgang.png"
       inkscape:export-xdpi="150"
       inkscape:export-ydpi="150" />
    <g
       transform="translate(5.0661281e-6,-101.71837)"
       style="fill:#0000ff"
       id="g18024"
       inkscape:export-filename="/home/waldgeist/data/pics/physik/Own/mechanik/kinematik/ueberholvorgang.png"
       inkscape:export-xdpi="150"
       inkscape:export-ydpi="150">
      <path
         d="m 234.76303,707.09994 c 2.09458,-0.54308 4.05304,-2.19891 4.84414,-4.09562 0.60984,-1.46212 0.56171,-4.3689 -0.096,-5.79667 -1.17247,-2.54536 -3.50347,-3.96581 -6.47209,-3.94389 -1.8183,0.0135 -4.08376,0.90681 -5.0306,1.98384 -0.8384,0.95366 -1.70503,2.97179 -1.86263,4.33746 -0.29894,2.59044 1.70467,6.09491 4.04333,7.07206 1.19162,0.49788 3.49959,0.72133 4.5738,0.44282 z m -65.35508,-0.27661 c 1.69155,-0.59998 3.49433,-2.18078 4.21217,-3.69355 0.34542,-0.72794 0.44039,-1.58498 0.36666,-3.30934 -0.0905,-2.11728 -0.18786,-2.44971 -1.07979,-3.68868 -2.98954,-4.15274 -9.64527,-3.76444 -11.90481,0.69455 -1.04935,2.0708 -1.1665,3.7369 -0.40487,5.75771 1.41295,3.74891 5.13886,5.54167 8.81064,4.23931 z m 78.07325,-7.0989 c 1.01766,-0.3637 1.14321,-0.98536 1.14321,-5.6606 0,-3.23532 -0.10635,-4.75122 -0.35725,-5.09273 -0.27937,-0.38026 -3.28006,-0.98067 -13.76675,-2.75461 l -13.40948,-2.26837 -6.46798,-6.44567 -6.46795,-6.44566 -18.6335,0 -18.6335,0 -8.50343,6.74107 c -4.67689,3.70759 -8.7928,7.05864 -9.14648,7.44678 -0.62648,0.68751 -0.64305,0.86979 -0.64305,7.06569 0,7.65154 -0.0666,7.46954 2.73154,7.46954 l 1.92025,0 0.47935,-1.71481 c 0.67918,-2.4296 1.21056,-3.31085 2.93087,-4.86053 2.19995,-1.98177 3.57606,-2.51256 6.51387,-2.51256 2.90709,0 4.45165,0.58035 6.46495,2.42914 1.40063,1.28615 2.96254,4.11099 2.97065,5.37265 0.01,1.50692 -1.19116,1.43764 23.56324,1.35926 l 23.10284,-0.0732 0.47657,-1.71481 c 0.67438,-2.42658 1.20626,-3.3095 2.92807,-4.86053 2.15417,-1.94053 3.58575,-2.50484 6.37098,-2.51141 2.82686,-0.007 4.29663,0.51391 6.31193,2.23564 1.61066,1.37603 3.26242,4.18776 3.26242,5.55349 0,0.41503 0.15434,0.90893 0.34297,1.09756 0.34219,0.34218 3.66509,0.44861 4.51566,0.14462 z m -56.01713,-14.08521 c -0.34943,-0.22047 -0.44523,-1.22137 -0.51805,-5.41124 -0.0583,-3.35365 0.0198,-5.34452 0.22442,-5.72695 0.30526,-0.5704 0.53739,-0.58622 8.59837,-0.58622 l 8.28465,0 4.99507,4.7827 c 4.0633,3.89053 4.9951,4.92714 4.9951,5.55694 0,1.65795 -0.0537,1.66446 -13.71063,1.65965 -7.32384,-0.003 -12.61654,-0.11563 -12.86893,-0.27488 z m -24.98496,-0.55651 c -0.47877,-0.45 -0.7372,-0.99743 -0.7372,-1.56171 0,-0.73947 0.6504,-1.51924 4.36868,-5.23751 l 4.36868,-4.36868 6.75421,0 c 3.71482,0 6.95764,0.0781 7.20629,0.17348 0.39052,0.14985 0.45208,0.92055 0.45208,5.65887 0,3.97052 -0.0974,5.58283 -0.35282,5.83822 -0.27011,0.2701 -2.81101,0.33376 -10.83777,0.27151 l -10.48493,-0.0813 -0.73722,-0.69287 z"
         style="fill:#0000ff"
         id="path2962"
         inkscape:connector-curvature="0" />
      <path
         inkscape:connector-curvature="0"
         id="path16236"
         style="fill:#0000ff"
         d="m 885.90589,707.09994 c 2.09458,-0.54308 4.05304,-2.19891 4.84414,-4.09562 0.60984,-1.46212 0.56171,-4.3689 -0.096,-5.79667 -1.17247,-2.54536 -3.50347,-3.96581 -6.47209,-3.94389 -1.8183,0.0135 -4.08376,0.90681 -5.0306,1.98384 -0.8384,0.95366 -1.70503,2.97179 -1.86263,4.33746 -0.29894,2.59044 1.70467,6.09491 4.04333,7.07206 1.19162,0.49788 3.49959,0.72133 4.5738,0.44282 z m -65.35508,-0.27661 c 1.69155,-0.59998 3.49433,-2.18078 4.21217,-3.69355 0.34542,-0.72794 0.44039,-1.58498 0.36666,-3.30934 -0.0905,-2.11728 -0.18786,-2.44971 -1.07979,-3.68868 -2.98954,-4.15274 -9.64527,-3.76444 -11.90481,0.69455 -1.04935,2.0708 -1.1665,3.7369 -0.40487,5.75771 1.41295,3.74891 5.13886,5.54167 8.81064,4.23931 z m 78.07325,-7.0989 c 1.01766,-0.3637 1.14321,-0.98536 1.14321,-5.6606 0,-3.23532 -0.10635,-4.75122 -0.35725,-5.09273 -0.27937,-0.38026 -3.28006,-0.98067 -13.76675,-2.75461 l -13.40948,-2.26837 -6.46798,-6.44567 -6.46795,-6.44566 -18.6335,0 -18.6335,0 -8.50343,6.74107 c -4.67689,3.70759 -8.7928,7.05864 -9.14648,7.44678 -0.62648,0.68751 -0.64305,0.86979 -0.64305,7.06569 0,7.65154 -0.0666,7.46954 2.73154,7.46954 l 1.92025,0 0.47935,-1.71481 c 0.67918,-2.4296 1.21056,-3.31085 2.93087,-4.86053 2.19995,-1.98177 3.57606,-2.51256 6.51387,-2.51256 2.90709,0 4.45165,0.58035 6.46495,2.42914 1.40063,1.28615 2.96254,4.11099 2.97065,5.37265 0.01,1.50692 -1.19116,1.43764 23.56324,1.35926 l 23.10284,-0.0732 0.47657,-1.71481 c 0.67438,-2.42658 1.20626,-3.3095 2.92807,-4.86053 2.15417,-1.94053 3.58575,-2.50484 6.37098,-2.51141 2.82686,-0.007 4.29663,0.51391 6.31193,2.23564 1.61066,1.37603 3.26242,4.18776 3.26242,5.55349 0,0.41503 0.15434,0.90893 0.34297,1.09756 0.34219,0.34218 3.66509,0.44861 4.51566,0.14462 z m -56.01713,-14.08521 c -0.34943,-0.22047 -0.44523,-1.22137 -0.51805,-5.41124 -0.0583,-3.35365 0.0198,-5.34452 0.22442,-5.72695 0.30526,-0.5704 0.53739,-0.58622 8.59837,-0.58622 l 8.28465,0 4.99507,4.7827 c 4.0633,3.89053 4.9951,4.92714 4.9951,5.55694 0,1.65795 -0.0537,1.66446 -13.71063,1.65965 -7.32384,-0.003 -12.61654,-0.11563 -12.86893,-0.27488 z m -24.98496,-0.55651 c -0.47877,-0.45 -0.7372,-0.99743 -0.7372,-1.56171 0,-0.73947 0.6504,-1.51924 4.36868,-5.23751 l 4.36868,-4.36868 6.75421,0 c 3.71482,0 6.95764,0.0781 7.20629,0.17348 0.39052,0.14985 0.45208,0.92055 0.45208,5.65887 0,3.97052 -0.0974,5.58283 -0.35282,5.83822 -0.27011,0.2701 -2.81101,0.33376 -10.83777,0.27151 l -10.48493,-0.0813 -0.73722,-0.69287 z" />
    </g>
    <path
       style="fill:none;stroke:#000000;stroke-width:3.00000024;stroke-linecap:butt;stroke-linejoin:miter;stroke-opacity:1;marker-start:url(#TriangleInM);marker-end:url(#TriangleOutM)"
       d="m 243.83553,658.30488 163.02064,0"
       id="path16275"
       inkscape:connector-curvature="0"
       inkscape:export-filename="/home/waldgeist/data/pics/physik/Own/mechanik/kinematik/ueberholvorgang.png"
       inkscape:export-xdpi="150"
       inkscape:export-ydpi="150" />
    <path
       inkscape:connector-curvature="0"
       id="path17421"
       d="m 619.34765,658.30488 163.02064,0"
       style="fill:none;stroke:#000000;stroke-width:3.00000024;stroke-linecap:butt;stroke-linejoin:miter;stroke-opacity:1;marker-start:url(#TriangleInM);marker-end:url(#TriangleOutM)"
       inkscape:export-filename="/home/waldgeist/data/pics/physik/Own/mechanik/kinematik/ueberholvorgang.png"
       inkscape:export-xdpi="150"
       inkscape:export-ydpi="150" />
    <g
       transform="matrix(2.1628814,0,0,2.1628814,-254.45564,418.06116)"
       ns0:text="Sicherheitsabstand 1"
       ns0:preamble="/home/waldgeist/data/sphinx/test.tex"
       id="g17469"
       inkscape:export-filename="/home/waldgeist/data/pics/physik/Own/mechanik/kinematik/ueberholvorgang.png"
       inkscape:export-xdpi="150"
       inkscape:export-ydpi="150">
      <defs
         id="defs17471">
        <g
           id="g17473">
          <symbol
             style="overflow:visible"
             overflow="visible"
             id="textext-f2cc5eff-0">
            <path
               inkscape:connector-curvature="0"
               style="stroke:none"
               d="m 3.484375,-3.875 -1.28125,-0.296875 c -0.625,-0.15625 -1,-0.6875 -1,-1.265625 0,-0.703125 0.53125,-1.3125 1.3125,-1.3125 1.65625,0 1.875,1.640625 1.9375,2.078125 0.015625,0.0625 0.015625,0.125 0.125,0.125 0.125,0 0.125,-0.046875 0.125,-0.234375 l 0,-2 c 0,-0.171875 0,-0.25 -0.109375,-0.25 -0.0625,0 -0.078125,0.015625 -0.140625,0.140625 l -0.359375,0.5625 C 3.796875,-6.625 3.390625,-7.03125 2.5,-7.03125 c -1.109375,0 -1.9375,0.875 -1.9375,1.9375 0,0.828125 0.53125,1.5625 1.296875,1.828125 0.109375,0.03125 0.625,0.15625 1.328125,0.328125 0.265625,0.0625 0.5625,0.140625 0.84375,0.5 0.203125,0.265625 0.3125,0.59375 0.3125,0.921875 0,0.703125 -0.5,1.421875 -1.34375,1.421875 -0.28125,0 -1.046875,-0.046875 -1.578125,-0.53125 C 0.84375,-1.171875 0.8125,-1.796875 0.8125,-2.15625 0.796875,-2.265625 0.71875,-2.265625 0.6875,-2.265625 c -0.125,0 -0.125,0.078125 -0.125,0.25 l 0,2 c 0,0.171875 0,0.234375 0.109375,0.234375 0.0625,0 0.078125,-0.015625 0.140625,-0.125 0,-0.015625 0.03125,-0.046875 0.359375,-0.578125 0.3125,0.34375 0.953125,0.703125 1.84375,0.703125 1.15625,0 1.953125,-0.96875 1.953125,-2.078125 0,-0.984375 -0.65625,-1.8125 -1.484375,-2.015625 z m 0,0"
               id="path17476" />
          </symbol>
          <symbol
             style="overflow:visible"
             overflow="visible"
             id="textext-f2cc5eff-1">
            <path
               inkscape:connector-curvature="0"
               style="stroke:none"
               d="M 1.765625,-4.40625 0.375,-4.296875 l 0,0.3125 c 0.640625,0 0.734375,0.0625 0.734375,0.546875 l 0,2.6875 c 0,0.4375 -0.109375,0.4375 -0.78125,0.4375 l 0,0.3125 C 0.640625,-0.015625 1.1875,-0.03125 1.421875,-0.03125 1.78125,-0.03125 2.125,-0.015625 2.46875,0 l 0,-0.3125 c -0.671875,0 -0.703125,-0.046875 -0.703125,-0.4375 z m 0.03125,-1.734375 c 0,-0.3125 -0.234375,-0.53125 -0.515625,-0.53125 -0.3125,0 -0.53125,0.265625 -0.53125,0.53125 0,0.265625 0.21875,0.53125 0.53125,0.53125 0.28125,0 0.515625,-0.21875 0.515625,-0.53125 z m 0,0"
               id="path17479" />
          </symbol>
          <symbol
             style="overflow:visible"
             overflow="visible"
             id="textext-f2cc5eff-2">
            <path
               inkscape:connector-curvature="0"
               style="stroke:none"
               d="m 1.171875,-2.171875 c 0,-1.625 0.8125,-2.046875 1.34375,-2.046875 0.09375,0 0.71875,0.015625 1.0625,0.375 -0.40625,0.03125 -0.46875,0.328125 -0.46875,0.453125 0,0.265625 0.1875,0.453125 0.453125,0.453125 0.265625,0 0.46875,-0.15625 0.46875,-0.46875 0,-0.671875 -0.765625,-1.0625 -1.53125,-1.0625 -1.25,0 -2.15625,1.078125 -2.15625,2.3125 0,1.28125 0.984375,2.265625 2.140625,2.265625 1.328125,0 1.65625,-1.203125 1.65625,-1.296875 0,-0.09375 -0.109375,-0.09375 -0.140625,-0.09375 -0.078125,0 -0.109375,0.03125 -0.125,0.09375 -0.28125,0.921875 -0.9375,1.046875 -1.296875,1.046875 -0.53125,0 -1.40625,-0.421875 -1.40625,-2.03125 z m 0,0"
               id="path17482" />
          </symbol>
          <symbol
             style="overflow:visible"
             overflow="visible"
             id="textext-f2cc5eff-3">
            <path
               inkscape:connector-curvature="0"
               style="stroke:none"
               d="m 1.09375,-0.75 c 0,0.4375 -0.109375,0.4375 -0.78125,0.4375 l 0,0.3125 c 0.359375,-0.015625 0.859375,-0.03125 1.140625,-0.03125 0.25,0 0.765625,0.015625 1.109375,0.03125 l 0,-0.3125 c -0.671875,0 -0.78125,0 -0.78125,-0.4375 l 0,-1.84375 C 1.78125,-3.625 2.5,-4.1875 3.125,-4.1875 c 0.640625,0 0.75,0.53125 0.75,1.109375 l 0,2.328125 c 0,0.4375 -0.109375,0.4375 -0.78125,0.4375 l 0,0.3125 c 0.34375,-0.015625 0.859375,-0.03125 1.125,-0.03125 0.25,0 0.78125,0.015625 1.109375,0.03125 l 0,-0.3125 c -0.515625,0 -0.765625,0 -0.765625,-0.296875 l 0,-1.90625 c 0,-0.859375 0,-1.15625 -0.3125,-1.515625 -0.140625,-0.171875 -0.46875,-0.375 -1.046875,-0.375 -0.84375,0 -1.28125,0.59375 -1.453125,0.984375 l 0,-3.5 -1.4375,0.109375 0,0.3125 c 0.703125,0 0.78125,0.0625 0.78125,0.5625 z m 0,0"
               id="path17485" />
          </symbol>
          <symbol
             style="overflow:visible"
             overflow="visible"
             id="textext-f2cc5eff-4">
            <path
               inkscape:connector-curvature="0"
               style="stroke:none"
               d="M 1.109375,-2.515625 C 1.171875,-4 2.015625,-4.25 2.359375,-4.25 c 1.015625,0 1.125,1.34375 1.125,1.734375 z m 0,0.21875 2.78125,0 c 0.21875,0 0.25,0 0.25,-0.21875 0,-0.984375 -0.546875,-1.953125 -1.78125,-1.953125 -1.15625,0 -2.078125,1.03125 -2.078125,2.28125 0,1.328125 1.046875,2.296875 2.1875,2.296875 C 3.6875,0.109375 4.140625,-1 4.140625,-1.1875 4.140625,-1.28125 4.0625,-1.3125 4,-1.3125 c -0.078125,0 -0.109375,0.0625 -0.125,0.140625 -0.34375,1.03125 -1.25,1.03125 -1.34375,1.03125 -0.5,0 -0.890625,-0.296875 -1.125,-0.671875 -0.296875,-0.46875 -0.296875,-1.125 -0.296875,-1.484375 z m 0,0"
               id="path17488" />
          </symbol>
          <symbol
             style="overflow:visible"
             overflow="visible"
             id="textext-f2cc5eff-5">
            <path
               inkscape:connector-curvature="0"
               style="stroke:none"
               d="m 1.671875,-3.3125 0,-1.09375 -1.390625,0.109375 0,0.3125 c 0.703125,0 0.78125,0.0625 0.78125,0.5625 l 0,2.671875 c 0,0.4375 -0.109375,0.4375 -0.78125,0.4375 l 0,0.3125 c 0.390625,-0.015625 0.859375,-0.03125 1.140625,-0.03125 0.390625,0 0.859375,0 1.265625,0.03125 l 0,-0.3125 -0.21875,0 c -0.734375,0 -0.75,-0.109375 -0.75,-0.46875 l 0,-1.53125 c 0,-0.984375 0.421875,-1.875 1.171875,-1.875 0.0625,0 0.09375,0 0.109375,0.015625 -0.03125,0 -0.234375,0.125 -0.234375,0.390625 0,0.265625 0.21875,0.421875 0.4375,0.421875 0.171875,0 0.421875,-0.125 0.421875,-0.4375 0,-0.3125 -0.3125,-0.609375 -0.734375,-0.609375 -0.734375,0 -1.09375,0.671875 -1.21875,1.09375 z m 0,0"
               id="path17491" />
          </symbol>
          <symbol
             style="overflow:visible"
             overflow="visible"
             id="textext-f2cc5eff-6">
            <path
               inkscape:connector-curvature="0"
               style="stroke:none"
               d="m 1.71875,-3.984375 1.4375,0 0,-0.3125 -1.4375,0 0,-1.828125 -0.25,0 c 0,0.8125 -0.296875,1.875 -1.28125,1.921875 l 0,0.21875 0.84375,0 0,2.75 c 0,1.21875 0.9375,1.34375 1.296875,1.34375 0.703125,0 0.984375,-0.703125 0.984375,-1.34375 l 0,-0.5625 -0.25,0 0,0.546875 c 0,0.734375 -0.296875,1.109375 -0.671875,1.109375 -0.671875,0 -0.671875,-0.90625 -0.671875,-1.078125 z m 0,0"
               id="path17494" />
          </symbol>
          <symbol
             style="overflow:visible"
             overflow="visible"
             id="textext-f2cc5eff-7">
            <path
               inkscape:connector-curvature="0"
               style="stroke:none"
               d="m 2.078125,-1.9375 c 0.21875,0.046875 1.03125,0.203125 1.03125,0.921875 0,0.5 -0.34375,0.90625 -1.125,0.90625 -0.84375,0 -1.203125,-0.5625 -1.390625,-1.421875 C 0.5625,-1.65625 0.5625,-1.6875 0.453125,-1.6875 c -0.125,0 -0.125,0.0625 -0.125,0.234375 l 0,1.328125 c 0,0.171875 0,0.234375 0.109375,0.234375 0.046875,0 0.0625,-0.015625 0.25,-0.203125 0.015625,-0.015625 0.015625,-0.03125 0.203125,-0.21875 0.4375,0.40625 0.890625,0.421875 1.09375,0.421875 1.140625,0 1.609375,-0.671875 1.609375,-1.390625 0,-0.515625 -0.296875,-0.828125 -0.421875,-0.9375 C 2.84375,-2.546875 2.453125,-2.625 2.03125,-2.703125 1.46875,-2.8125 0.8125,-2.9375 0.8125,-3.515625 c 0,-0.359375 0.25,-0.765625 1.109375,-0.765625 1.09375,0 1.15625,0.90625 1.171875,1.203125 0,0.09375 0.09375,0.09375 0.109375,0.09375 0.140625,0 0.140625,-0.046875 0.140625,-0.234375 l 0,-1.015625 c 0,-0.15625 0,-0.234375 -0.109375,-0.234375 -0.046875,0 -0.078125,0 -0.203125,0.125 -0.03125,0.03125 -0.125,0.125 -0.171875,0.15625 -0.375,-0.28125 -0.78125,-0.28125 -0.9375,-0.28125 -1.21875,0 -1.59375,0.671875 -1.59375,1.234375 0,0.34375 0.15625,0.625 0.421875,0.84375 0.328125,0.25 0.609375,0.3125 1.328125,0.453125 z m 0,0"
               id="path17497" />
          </symbol>
          <symbol
             style="overflow:visible"
             overflow="visible"
             id="textext-f2cc5eff-8">
            <path
               inkscape:connector-curvature="0"
               style="stroke:none"
               d="m 3.3125,-0.75 c 0.046875,0.390625 0.3125,0.8125 0.78125,0.8125 0.21875,0 0.828125,-0.140625 0.828125,-0.953125 l 0,-0.5625 -0.25,0 0,0.5625 c 0,0.578125 -0.25,0.640625 -0.359375,0.640625 -0.328125,0 -0.375,-0.453125 -0.375,-0.5 l 0,-1.984375 c 0,-0.421875 0,-0.8125 -0.359375,-1.1875 C 3.1875,-4.3125 2.6875,-4.46875 2.21875,-4.46875 c -0.828125,0 -1.515625,0.46875 -1.515625,1.125 0,0.296875 0.203125,0.46875 0.46875,0.46875 0.28125,0 0.453125,-0.203125 0.453125,-0.453125 0,-0.125 -0.046875,-0.453125 -0.515625,-0.453125 C 1.390625,-4.140625 1.875,-4.25 2.1875,-4.25 c 0.5,0 1.0625,0.390625 1.0625,1.28125 l 0,0.359375 c -0.515625,0.03125 -1.203125,0.0625 -1.828125,0.359375 -0.75,0.34375 -1,0.859375 -1,1.296875 0,0.8125 0.96875,1.0625 1.59375,1.0625 0.65625,0 1.109375,-0.40625 1.296875,-0.859375 z M 3.25,-2.390625 l 0,1 c 0,0.9375 -0.71875,1.28125 -1.171875,1.28125 -0.484375,0 -0.890625,-0.34375 -0.890625,-0.84375 0,-0.546875 0.421875,-1.375 2.0625,-1.4375 z m 0,0"
               id="path17500" />
          </symbol>
          <symbol
             style="overflow:visible"
             overflow="visible"
             id="textext-f2cc5eff-9">
            <path
               inkscape:connector-curvature="0"
               style="stroke:none"
               d="m 1.71875,-3.765625 0,-3.15625 -1.4375,0.109375 0,0.3125 c 0.703125,0 0.78125,0.0625 0.78125,0.5625 l 0,5.9375 0.25,0 c 0,-0.015625 0.078125,-0.15625 0.359375,-0.625 0.140625,0.234375 0.5625,0.734375 1.296875,0.734375 1.1875,0 2.21875,-0.984375 2.21875,-2.265625 0,-1.265625 -0.96875,-2.25 -2.109375,-2.25 -0.78125,0 -1.203125,0.46875 -1.359375,0.640625 z m 0.03125,2.625 0,-2.046875 c 0,-0.1875 0,-0.203125 0.109375,-0.359375 C 2.25,-4.109375 2.796875,-4.1875 3.03125,-4.1875 c 0.453125,0 0.8125,0.265625 1.046875,0.640625 0.265625,0.40625 0.28125,0.96875 0.28125,1.390625 0,0.359375 -0.015625,0.953125 -0.296875,1.40625 -0.21875,0.3125 -0.59375,0.640625 -1.125,0.640625 -0.453125,0 -0.8125,-0.234375 -1.046875,-0.609375 C 1.75,-0.921875 1.75,-0.953125 1.75,-1.140625 z m 0,0"
               id="path17503" />
          </symbol>
          <symbol
             style="overflow:visible"
             overflow="visible"
             id="textext-f2cc5eff-10">
            <path
               inkscape:connector-curvature="0"
               style="stroke:none"
               d="m 1.09375,-3.421875 0,2.671875 c 0,0.4375 -0.109375,0.4375 -0.78125,0.4375 l 0,0.3125 c 0.359375,-0.015625 0.859375,-0.03125 1.140625,-0.03125 0.25,0 0.765625,0.015625 1.109375,0.03125 l 0,-0.3125 c -0.671875,0 -0.78125,0 -0.78125,-0.4375 l 0,-1.84375 C 1.78125,-3.625 2.5,-4.1875 3.125,-4.1875 c 0.640625,0 0.75,0.53125 0.75,1.109375 l 0,2.328125 c 0,0.4375 -0.109375,0.4375 -0.78125,0.4375 l 0,0.3125 c 0.34375,-0.015625 0.859375,-0.03125 1.125,-0.03125 0.25,0 0.78125,0.015625 1.109375,0.03125 l 0,-0.3125 c -0.515625,0 -0.765625,0 -0.765625,-0.296875 l 0,-1.90625 c 0,-0.859375 0,-1.15625 -0.3125,-1.515625 -0.140625,-0.171875 -0.46875,-0.375 -1.046875,-0.375 C 2.46875,-4.40625 2,-3.984375 1.71875,-3.359375 l 0,-1.046875 -1.40625,0.109375 0,0.3125 c 0.703125,0 0.78125,0.0625 0.78125,0.5625 z m 0,0"
               id="path17506" />
          </symbol>
          <symbol
             style="overflow:visible"
             overflow="visible"
             id="textext-f2cc5eff-11">
            <path
               inkscape:connector-curvature="0"
               style="stroke:none"
               d="m 3.78125,-0.546875 0,0.65625 L 5.25,0 l 0,-0.3125 c -0.6875,0 -0.78125,-0.0625 -0.78125,-0.5625 l 0,-6.046875 -1.421875,0.109375 0,0.3125 c 0.6875,0 0.765625,0.0625 0.765625,0.5625 l 0,2.15625 c -0.28125,-0.359375 -0.71875,-0.625 -1.25,-0.625 -1.171875,0 -2.21875,0.984375 -2.21875,2.265625 0,1.265625 0.96875,2.25 2.109375,2.25 0.640625,0 1.078125,-0.34375 1.328125,-0.65625 z m 0,-2.671875 0,2.046875 c 0,0.171875 0,0.1875 -0.109375,0.359375 C 3.375,-0.328125 2.9375,-0.109375 2.5,-0.109375 2.046875,-0.109375 1.6875,-0.375 1.453125,-0.75 1.203125,-1.15625 1.171875,-1.71875 1.171875,-2.140625 1.171875,-2.5 1.1875,-3.09375 1.46875,-3.546875 1.6875,-3.859375 2.0625,-4.1875 2.609375,-4.1875 c 0.34375,0 0.765625,0.15625 1.0625,0.59375 0.109375,0.171875 0.109375,0.1875 0.109375,0.375 z m 0,0"
               id="path17509" />
          </symbol>
          <symbol
             style="overflow:visible"
             overflow="visible"
             id="textext-f2cc5eff-12">
            <path
               inkscape:connector-curvature="0"
               style="stroke:none"
               d="m 2.9375,-6.375 c 0,-0.25 0,-0.265625 -0.234375,-0.265625 C 2.078125,-6 1.203125,-6 0.890625,-6 l 0,0.3125 c 0.203125,0 0.78125,0 1.296875,-0.265625 l 0,5.171875 c 0,0.359375 -0.03125,0.46875 -0.921875,0.46875 l -0.3125,0 0,0.3125 c 0.34375,-0.03125 1.203125,-0.03125 1.609375,-0.03125 0.390625,0 1.265625,0 1.609375,0.03125 l 0,-0.3125 -0.3125,0 c -0.90625,0 -0.921875,-0.109375 -0.921875,-0.46875 z m 0,0"
               id="path17512" />
          </symbol>
        </g>
      </defs>
      <g
         id="textext-f2cc5eff-13">
        <g
           style="fill:#000000;fill-opacity:1"
           id="g17515">
          <use
             height="744.09448"
             width="1052.3622"
             xlink:href="#textext-f2cc5eff-0"
             x="223.43201"
             y="134.765"
             id="use17517" />
          <use
             height="744.09448"
             width="1052.3622"
             xlink:href="#textext-f2cc5eff-1"
             x="228.96722"
             y="134.765"
             id="use17519" />
          <use
             height="744.09448"
             width="1052.3622"
             xlink:href="#textext-f2cc5eff-2"
             x="231.73483"
             y="134.765"
             id="use17521" />
        </g>
        <g
           style="fill:#000000;fill-opacity:1"
           id="g17523">
          <use
             height="744.09448"
             width="1052.3622"
             xlink:href="#textext-f2cc5eff-3"
             x="235.88326"
             y="134.765"
             id="use17525" />
          <use
             height="744.09448"
             width="1052.3622"
             xlink:href="#textext-f2cc5eff-4"
             x="241.41847"
             y="134.765"
             id="use17527" />
          <use
             height="744.09448"
             width="1052.3622"
             xlink:href="#textext-f2cc5eff-5"
             x="245.84586"
             y="134.765"
             id="use17529" />
          <use
             height="744.09448"
             width="1052.3622"
             xlink:href="#textext-f2cc5eff-3"
             x="249.74821"
             y="134.765"
             id="use17531" />
          <use
             height="744.09448"
             width="1052.3622"
             xlink:href="#textext-f2cc5eff-4"
             x="255.28343"
             y="134.765"
             id="use17533" />
          <use
             height="744.09448"
             width="1052.3622"
             xlink:href="#textext-f2cc5eff-1"
             x="259.71082"
             y="134.765"
             id="use17535" />
          <use
             height="744.09448"
             width="1052.3622"
             xlink:href="#textext-f2cc5eff-6"
             x="262.47842"
             y="134.765"
             id="use17537" />
          <use
             height="744.09448"
             width="1052.3622"
             xlink:href="#textext-f2cc5eff-7"
             x="266.35287"
             y="134.765"
             id="use17539" />
          <use
             height="744.09448"
             width="1052.3622"
             xlink:href="#textext-f2cc5eff-8"
             x="270.28214"
             y="134.765"
             id="use17541" />
          <use
             height="744.09448"
             width="1052.3622"
             xlink:href="#textext-f2cc5eff-9"
             x="275.26343"
             y="134.765"
             id="use17543" />
          <use
             height="744.09448"
             width="1052.3622"
             xlink:href="#textext-f2cc5eff-7"
             x="280.79865"
             y="134.765"
             id="use17545" />
          <use
             height="744.09448"
             width="1052.3622"
             xlink:href="#textext-f2cc5eff-6"
             x="284.72791"
             y="134.765"
             id="use17547" />
          <use
             height="744.09448"
             width="1052.3622"
             xlink:href="#textext-f2cc5eff-8"
             x="288.60236"
             y="134.765"
             id="use17549" />
          <use
             height="744.09448"
             width="1052.3622"
             xlink:href="#textext-f2cc5eff-10"
             x="293.58365"
             y="134.765"
             id="use17551" />
          <use
             height="744.09448"
             width="1052.3622"
             xlink:href="#textext-f2cc5eff-11"
             x="299.11887"
             y="134.765"
             id="use17553" />
        </g>
        <g
           style="fill:#000000;fill-opacity:1"
           id="g17555">
          <use
             height="744.09448"
             width="1052.3622"
             xlink:href="#textext-f2cc5eff-12"
             x="307.97165"
             y="134.765"
             id="use17557" />
        </g>
      </g>
    </g>
    <g
       id="g17807"
       transform="matrix(2.1628814,0,0,2.1628814,117.2805,418.06116)"
       ns0:preamble="/home/waldgeist/data/sphinx/test.tex"
       ns0:text="Sicherheitsabstand 2"
       inkscape:export-filename="/home/waldgeist/data/pics/physik/Own/mechanik/kinematik/ueberholvorgang.png"
       inkscape:export-xdpi="150"
       inkscape:export-ydpi="150">
      <defs
         id="defs17809">
        <g
           id="g17811">
          <symbol
             id="textext-d2fe8808-0"
             overflow="visible"
             style="overflow:visible">
            <path
               id="path17814"
               d="m 3.484375,-3.875 -1.28125,-0.296875 c -0.625,-0.15625 -1,-0.6875 -1,-1.265625 0,-0.703125 0.53125,-1.3125 1.3125,-1.3125 1.65625,0 1.875,1.640625 1.9375,2.078125 0.015625,0.0625 0.015625,0.125 0.125,0.125 0.125,0 0.125,-0.046875 0.125,-0.234375 l 0,-2 c 0,-0.171875 0,-0.25 -0.109375,-0.25 -0.0625,0 -0.078125,0.015625 -0.140625,0.140625 l -0.359375,0.5625 C 3.796875,-6.625 3.390625,-7.03125 2.5,-7.03125 c -1.109375,0 -1.9375,0.875 -1.9375,1.9375 0,0.828125 0.53125,1.5625 1.296875,1.828125 0.109375,0.03125 0.625,0.15625 1.328125,0.328125 0.265625,0.0625 0.5625,0.140625 0.84375,0.5 0.203125,0.265625 0.3125,0.59375 0.3125,0.921875 0,0.703125 -0.5,1.421875 -1.34375,1.421875 -0.28125,0 -1.046875,-0.046875 -1.578125,-0.53125 C 0.84375,-1.171875 0.8125,-1.796875 0.8125,-2.15625 0.796875,-2.265625 0.71875,-2.265625 0.6875,-2.265625 c -0.125,0 -0.125,0.078125 -0.125,0.25 l 0,2 c 0,0.171875 0,0.234375 0.109375,0.234375 0.0625,0 0.078125,-0.015625 0.140625,-0.125 0,-0.015625 0.03125,-0.046875 0.359375,-0.578125 0.3125,0.34375 0.953125,0.703125 1.84375,0.703125 1.15625,0 1.953125,-0.96875 1.953125,-2.078125 0,-0.984375 -0.65625,-1.8125 -1.484375,-2.015625 z m 0,0"
               style="stroke:none"
               inkscape:connector-curvature="0" />
          </symbol>
          <symbol
             id="textext-d2fe8808-1"
             overflow="visible"
             style="overflow:visible">
            <path
               id="path17817"
               d="M 1.765625,-4.40625 0.375,-4.296875 l 0,0.3125 c 0.640625,0 0.734375,0.0625 0.734375,0.546875 l 0,2.6875 c 0,0.4375 -0.109375,0.4375 -0.78125,0.4375 l 0,0.3125 C 0.640625,-0.015625 1.1875,-0.03125 1.421875,-0.03125 1.78125,-0.03125 2.125,-0.015625 2.46875,0 l 0,-0.3125 c -0.671875,0 -0.703125,-0.046875 -0.703125,-0.4375 z m 0.03125,-1.734375 c 0,-0.3125 -0.234375,-0.53125 -0.515625,-0.53125 -0.3125,0 -0.53125,0.265625 -0.53125,0.53125 0,0.265625 0.21875,0.53125 0.53125,0.53125 0.28125,0 0.515625,-0.21875 0.515625,-0.53125 z m 0,0"
               style="stroke:none"
               inkscape:connector-curvature="0" />
          </symbol>
          <symbol
             id="textext-d2fe8808-2"
             overflow="visible"
             style="overflow:visible">
            <path
               id="path17820"
               d="m 1.171875,-2.171875 c 0,-1.625 0.8125,-2.046875 1.34375,-2.046875 0.09375,0 0.71875,0.015625 1.0625,0.375 -0.40625,0.03125 -0.46875,0.328125 -0.46875,0.453125 0,0.265625 0.1875,0.453125 0.453125,0.453125 0.265625,0 0.46875,-0.15625 0.46875,-0.46875 0,-0.671875 -0.765625,-1.0625 -1.53125,-1.0625 -1.25,0 -2.15625,1.078125 -2.15625,2.3125 0,1.28125 0.984375,2.265625 2.140625,2.265625 1.328125,0 1.65625,-1.203125 1.65625,-1.296875 0,-0.09375 -0.109375,-0.09375 -0.140625,-0.09375 -0.078125,0 -0.109375,0.03125 -0.125,0.09375 -0.28125,0.921875 -0.9375,1.046875 -1.296875,1.046875 -0.53125,0 -1.40625,-0.421875 -1.40625,-2.03125 z m 0,0"
               style="stroke:none"
               inkscape:connector-curvature="0" />
          </symbol>
          <symbol
             id="textext-d2fe8808-3"
             overflow="visible"
             style="overflow:visible">
            <path
               id="path17823"
               d="m 1.09375,-0.75 c 0,0.4375 -0.109375,0.4375 -0.78125,0.4375 l 0,0.3125 c 0.359375,-0.015625 0.859375,-0.03125 1.140625,-0.03125 0.25,0 0.765625,0.015625 1.109375,0.03125 l 0,-0.3125 c -0.671875,0 -0.78125,0 -0.78125,-0.4375 l 0,-1.84375 C 1.78125,-3.625 2.5,-4.1875 3.125,-4.1875 c 0.640625,0 0.75,0.53125 0.75,1.109375 l 0,2.328125 c 0,0.4375 -0.109375,0.4375 -0.78125,0.4375 l 0,0.3125 c 0.34375,-0.015625 0.859375,-0.03125 1.125,-0.03125 0.25,0 0.78125,0.015625 1.109375,0.03125 l 0,-0.3125 c -0.515625,0 -0.765625,0 -0.765625,-0.296875 l 0,-1.90625 c 0,-0.859375 0,-1.15625 -0.3125,-1.515625 -0.140625,-0.171875 -0.46875,-0.375 -1.046875,-0.375 -0.84375,0 -1.28125,0.59375 -1.453125,0.984375 l 0,-3.5 -1.4375,0.109375 0,0.3125 c 0.703125,0 0.78125,0.0625 0.78125,0.5625 z m 0,0"
               style="stroke:none"
               inkscape:connector-curvature="0" />
          </symbol>
          <symbol
             id="textext-d2fe8808-4"
             overflow="visible"
             style="overflow:visible">
            <path
               id="path17826"
               d="M 1.109375,-2.515625 C 1.171875,-4 2.015625,-4.25 2.359375,-4.25 c 1.015625,0 1.125,1.34375 1.125,1.734375 z m 0,0.21875 2.78125,0 c 0.21875,0 0.25,0 0.25,-0.21875 0,-0.984375 -0.546875,-1.953125 -1.78125,-1.953125 -1.15625,0 -2.078125,1.03125 -2.078125,2.28125 0,1.328125 1.046875,2.296875 2.1875,2.296875 C 3.6875,0.109375 4.140625,-1 4.140625,-1.1875 4.140625,-1.28125 4.0625,-1.3125 4,-1.3125 c -0.078125,0 -0.109375,0.0625 -0.125,0.140625 -0.34375,1.03125 -1.25,1.03125 -1.34375,1.03125 -0.5,0 -0.890625,-0.296875 -1.125,-0.671875 -0.296875,-0.46875 -0.296875,-1.125 -0.296875,-1.484375 z m 0,0"
               style="stroke:none"
               inkscape:connector-curvature="0" />
          </symbol>
          <symbol
             id="textext-d2fe8808-5"
             overflow="visible"
             style="overflow:visible">
            <path
               id="path17829"
               d="m 1.671875,-3.3125 0,-1.09375 -1.390625,0.109375 0,0.3125 c 0.703125,0 0.78125,0.0625 0.78125,0.5625 l 0,2.671875 c 0,0.4375 -0.109375,0.4375 -0.78125,0.4375 l 0,0.3125 c 0.390625,-0.015625 0.859375,-0.03125 1.140625,-0.03125 0.390625,0 0.859375,0 1.265625,0.03125 l 0,-0.3125 -0.21875,0 c -0.734375,0 -0.75,-0.109375 -0.75,-0.46875 l 0,-1.53125 c 0,-0.984375 0.421875,-1.875 1.171875,-1.875 0.0625,0 0.09375,0 0.109375,0.015625 -0.03125,0 -0.234375,0.125 -0.234375,0.390625 0,0.265625 0.21875,0.421875 0.4375,0.421875 0.171875,0 0.421875,-0.125 0.421875,-0.4375 0,-0.3125 -0.3125,-0.609375 -0.734375,-0.609375 -0.734375,0 -1.09375,0.671875 -1.21875,1.09375 z m 0,0"
               style="stroke:none"
               inkscape:connector-curvature="0" />
          </symbol>
          <symbol
             id="textext-d2fe8808-6"
             overflow="visible"
             style="overflow:visible">
            <path
               id="path17832"
               d="m 1.71875,-3.984375 1.4375,0 0,-0.3125 -1.4375,0 0,-1.828125 -0.25,0 c 0,0.8125 -0.296875,1.875 -1.28125,1.921875 l 0,0.21875 0.84375,0 0,2.75 c 0,1.21875 0.9375,1.34375 1.296875,1.34375 0.703125,0 0.984375,-0.703125 0.984375,-1.34375 l 0,-0.5625 -0.25,0 0,0.546875 c 0,0.734375 -0.296875,1.109375 -0.671875,1.109375 -0.671875,0 -0.671875,-0.90625 -0.671875,-1.078125 z m 0,0"
               style="stroke:none"
               inkscape:connector-curvature="0" />
          </symbol>
          <symbol
             id="textext-d2fe8808-7"
             overflow="visible"
             style="overflow:visible">
            <path
               id="path17835"
               d="m 2.078125,-1.9375 c 0.21875,0.046875 1.03125,0.203125 1.03125,0.921875 0,0.5 -0.34375,0.90625 -1.125,0.90625 -0.84375,0 -1.203125,-0.5625 -1.390625,-1.421875 C 0.5625,-1.65625 0.5625,-1.6875 0.453125,-1.6875 c -0.125,0 -0.125,0.0625 -0.125,0.234375 l 0,1.328125 c 0,0.171875 0,0.234375 0.109375,0.234375 0.046875,0 0.0625,-0.015625 0.25,-0.203125 0.015625,-0.015625 0.015625,-0.03125 0.203125,-0.21875 0.4375,0.40625 0.890625,0.421875 1.09375,0.421875 1.140625,0 1.609375,-0.671875 1.609375,-1.390625 0,-0.515625 -0.296875,-0.828125 -0.421875,-0.9375 C 2.84375,-2.546875 2.453125,-2.625 2.03125,-2.703125 1.46875,-2.8125 0.8125,-2.9375 0.8125,-3.515625 c 0,-0.359375 0.25,-0.765625 1.109375,-0.765625 1.09375,0 1.15625,0.90625 1.171875,1.203125 0,0.09375 0.09375,0.09375 0.109375,0.09375 0.140625,0 0.140625,-0.046875 0.140625,-0.234375 l 0,-1.015625 c 0,-0.15625 0,-0.234375 -0.109375,-0.234375 -0.046875,0 -0.078125,0 -0.203125,0.125 -0.03125,0.03125 -0.125,0.125 -0.171875,0.15625 -0.375,-0.28125 -0.78125,-0.28125 -0.9375,-0.28125 -1.21875,0 -1.59375,0.671875 -1.59375,1.234375 0,0.34375 0.15625,0.625 0.421875,0.84375 0.328125,0.25 0.609375,0.3125 1.328125,0.453125 z m 0,0"
               style="stroke:none"
               inkscape:connector-curvature="0" />
          </symbol>
          <symbol
             id="textext-d2fe8808-8"
             overflow="visible"
             style="overflow:visible">
            <path
               id="path17838"
               d="m 3.3125,-0.75 c 0.046875,0.390625 0.3125,0.8125 0.78125,0.8125 0.21875,0 0.828125,-0.140625 0.828125,-0.953125 l 0,-0.5625 -0.25,0 0,0.5625 c 0,0.578125 -0.25,0.640625 -0.359375,0.640625 -0.328125,0 -0.375,-0.453125 -0.375,-0.5 l 0,-1.984375 c 0,-0.421875 0,-0.8125 -0.359375,-1.1875 C 3.1875,-4.3125 2.6875,-4.46875 2.21875,-4.46875 c -0.828125,0 -1.515625,0.46875 -1.515625,1.125 0,0.296875 0.203125,0.46875 0.46875,0.46875 0.28125,0 0.453125,-0.203125 0.453125,-0.453125 0,-0.125 -0.046875,-0.453125 -0.515625,-0.453125 C 1.390625,-4.140625 1.875,-4.25 2.1875,-4.25 c 0.5,0 1.0625,0.390625 1.0625,1.28125 l 0,0.359375 c -0.515625,0.03125 -1.203125,0.0625 -1.828125,0.359375 -0.75,0.34375 -1,0.859375 -1,1.296875 0,0.8125 0.96875,1.0625 1.59375,1.0625 0.65625,0 1.109375,-0.40625 1.296875,-0.859375 z M 3.25,-2.390625 l 0,1 c 0,0.9375 -0.71875,1.28125 -1.171875,1.28125 -0.484375,0 -0.890625,-0.34375 -0.890625,-0.84375 0,-0.546875 0.421875,-1.375 2.0625,-1.4375 z m 0,0"
               style="stroke:none"
               inkscape:connector-curvature="0" />
          </symbol>
          <symbol
             id="textext-d2fe8808-9"
             overflow="visible"
             style="overflow:visible">
            <path
               id="path17841"
               d="m 1.71875,-3.765625 0,-3.15625 -1.4375,0.109375 0,0.3125 c 0.703125,0 0.78125,0.0625 0.78125,0.5625 l 0,5.9375 0.25,0 c 0,-0.015625 0.078125,-0.15625 0.359375,-0.625 0.140625,0.234375 0.5625,0.734375 1.296875,0.734375 1.1875,0 2.21875,-0.984375 2.21875,-2.265625 0,-1.265625 -0.96875,-2.25 -2.109375,-2.25 -0.78125,0 -1.203125,0.46875 -1.359375,0.640625 z m 0.03125,2.625 0,-2.046875 c 0,-0.1875 0,-0.203125 0.109375,-0.359375 C 2.25,-4.109375 2.796875,-4.1875 3.03125,-4.1875 c 0.453125,0 0.8125,0.265625 1.046875,0.640625 0.265625,0.40625 0.28125,0.96875 0.28125,1.390625 0,0.359375 -0.015625,0.953125 -0.296875,1.40625 -0.21875,0.3125 -0.59375,0.640625 -1.125,0.640625 -0.453125,0 -0.8125,-0.234375 -1.046875,-0.609375 C 1.75,-0.921875 1.75,-0.953125 1.75,-1.140625 z m 0,0"
               style="stroke:none"
               inkscape:connector-curvature="0" />
          </symbol>
          <symbol
             id="textext-d2fe8808-10"
             overflow="visible"
             style="overflow:visible">
            <path
               id="path17844"
               d="m 1.09375,-3.421875 0,2.671875 c 0,0.4375 -0.109375,0.4375 -0.78125,0.4375 l 0,0.3125 c 0.359375,-0.015625 0.859375,-0.03125 1.140625,-0.03125 0.25,0 0.765625,0.015625 1.109375,0.03125 l 0,-0.3125 c -0.671875,0 -0.78125,0 -0.78125,-0.4375 l 0,-1.84375 C 1.78125,-3.625 2.5,-4.1875 3.125,-4.1875 c 0.640625,0 0.75,0.53125 0.75,1.109375 l 0,2.328125 c 0,0.4375 -0.109375,0.4375 -0.78125,0.4375 l 0,0.3125 c 0.34375,-0.015625 0.859375,-0.03125 1.125,-0.03125 0.25,0 0.78125,0.015625 1.109375,0.03125 l 0,-0.3125 c -0.515625,0 -0.765625,0 -0.765625,-0.296875 l 0,-1.90625 c 0,-0.859375 0,-1.15625 -0.3125,-1.515625 -0.140625,-0.171875 -0.46875,-0.375 -1.046875,-0.375 C 2.46875,-4.40625 2,-3.984375 1.71875,-3.359375 l 0,-1.046875 -1.40625,0.109375 0,0.3125 c 0.703125,0 0.78125,0.0625 0.78125,0.5625 z m 0,0"
               style="stroke:none"
               inkscape:connector-curvature="0" />
          </symbol>
          <symbol
             id="textext-d2fe8808-11"
             overflow="visible"
             style="overflow:visible">
            <path
               id="path17847"
               d="m 3.78125,-0.546875 0,0.65625 L 5.25,0 l 0,-0.3125 c -0.6875,0 -0.78125,-0.0625 -0.78125,-0.5625 l 0,-6.046875 -1.421875,0.109375 0,0.3125 c 0.6875,0 0.765625,0.0625 0.765625,0.5625 l 0,2.15625 c -0.28125,-0.359375 -0.71875,-0.625 -1.25,-0.625 -1.171875,0 -2.21875,0.984375 -2.21875,2.265625 0,1.265625 0.96875,2.25 2.109375,2.25 0.640625,0 1.078125,-0.34375 1.328125,-0.65625 z m 0,-2.671875 0,2.046875 c 0,0.171875 0,0.1875 -0.109375,0.359375 C 3.375,-0.328125 2.9375,-0.109375 2.5,-0.109375 2.046875,-0.109375 1.6875,-0.375 1.453125,-0.75 1.203125,-1.15625 1.171875,-1.71875 1.171875,-2.140625 1.171875,-2.5 1.1875,-3.09375 1.46875,-3.546875 1.6875,-3.859375 2.0625,-4.1875 2.609375,-4.1875 c 0.34375,0 0.765625,0.15625 1.0625,0.59375 0.109375,0.171875 0.109375,0.1875 0.109375,0.375 z m 0,0"
               style="stroke:none"
               inkscape:connector-curvature="0" />
          </symbol>
          <symbol
             id="textext-d2fe8808-12"
             overflow="visible"
             style="overflow:visible">
            <path
               id="path17850"
               d="m 1.265625,-0.765625 1.0625,-1.03125 c 1.546875,-1.375 2.140625,-1.90625 2.140625,-2.90625 0,-1.140625 -0.890625,-1.9375 -2.109375,-1.9375 -1.125,0 -1.859375,0.921875 -1.859375,1.8125 0,0.546875 0.5,0.546875 0.53125,0.546875 0.171875,0 0.515625,-0.109375 0.515625,-0.53125 0,-0.25 -0.1875,-0.515625 -0.53125,-0.515625 -0.078125,0 -0.09375,0 -0.125,0.015625 0.21875,-0.65625 0.765625,-1.015625 1.34375,-1.015625 0.90625,0 1.328125,0.8125 1.328125,1.625 C 3.5625,-3.90625 3.078125,-3.125 2.515625,-2.5 l -1.90625,2.125 C 0.5,-0.265625 0.5,-0.234375 0.5,0 l 3.703125,0 0.265625,-1.734375 -0.234375,0 C 4.171875,-1.4375 4.109375,-1 4,-0.84375 3.9375,-0.765625 3.28125,-0.765625 3.0625,-0.765625 z m 0,0"
               style="stroke:none"
               inkscape:connector-curvature="0" />
          </symbol>
        </g>
      </defs>
      <g
         id="textext-d2fe8808-13">
        <g
           id="g17853"
           style="fill:#000000;fill-opacity:1">
          <use
             id="use17855"
             y="134.765"
             x="223.43201"
             xlink:href="#textext-d2fe8808-0"
             width="1052.3622"
             height="744.09448" />
          <use
             id="use17857"
             y="134.765"
             x="228.96722"
             xlink:href="#textext-d2fe8808-1"
             width="1052.3622"
             height="744.09448" />
          <use
             id="use17859"
             y="134.765"
             x="231.73483"
             xlink:href="#textext-d2fe8808-2"
             width="1052.3622"
             height="744.09448" />
        </g>
        <g
           id="g17861"
           style="fill:#000000;fill-opacity:1">
          <use
             id="use17863"
             y="134.765"
             x="235.88326"
             xlink:href="#textext-d2fe8808-3"
             width="1052.3622"
             height="744.09448" />
          <use
             id="use17865"
             y="134.765"
             x="241.41847"
             xlink:href="#textext-d2fe8808-4"
             width="1052.3622"
             height="744.09448" />
          <use
             id="use17867"
             y="134.765"
             x="245.84586"
             xlink:href="#textext-d2fe8808-5"
             width="1052.3622"
             height="744.09448" />
          <use
             id="use17869"
             y="134.765"
             x="249.74821"
             xlink:href="#textext-d2fe8808-3"
             width="1052.3622"
             height="744.09448" />
          <use
             id="use17871"
             y="134.765"
             x="255.28343"
             xlink:href="#textext-d2fe8808-4"
             width="1052.3622"
             height="744.09448" />
          <use
             id="use17873"
             y="134.765"
             x="259.71082"
             xlink:href="#textext-d2fe8808-1"
             width="1052.3622"
             height="744.09448" />
          <use
             id="use17875"
             y="134.765"
             x="262.47842"
             xlink:href="#textext-d2fe8808-6"
             width="1052.3622"
             height="744.09448" />
          <use
             id="use17877"
             y="134.765"
             x="266.35287"
             xlink:href="#textext-d2fe8808-7"
             width="1052.3622"
             height="744.09448" />
          <use
             id="use17879"
             y="134.765"
             x="270.28214"
             xlink:href="#textext-d2fe8808-8"
             width="1052.3622"
             height="744.09448" />
          <use
             id="use17881"
             y="134.765"
             x="275.26343"
             xlink:href="#textext-d2fe8808-9"
             width="1052.3622"
             height="744.09448" />
          <use
             id="use17883"
             y="134.765"
             x="280.79865"
             xlink:href="#textext-d2fe8808-7"
             width="1052.3622"
             height="744.09448" />
          <use
             id="use17885"
             y="134.765"
             x="284.72791"
             xlink:href="#textext-d2fe8808-6"
             width="1052.3622"
             height="744.09448" />
          <use
             id="use17887"
             y="134.765"
             x="288.60236"
             xlink:href="#textext-d2fe8808-8"
             width="1052.3622"
             height="744.09448" />
          <use
             id="use17889"
             y="134.765"
             x="293.58365"
             xlink:href="#textext-d2fe8808-10"
             width="1052.3622"
             height="744.09448" />
          <use
             id="use17891"
             y="134.765"
             x="299.11887"
             xlink:href="#textext-d2fe8808-11"
             width="1052.3622"
             height="744.09448" />
        </g>
        <g
           id="g17893"
           style="fill:#000000;fill-opacity:1">
          <use
             id="use17895"
             y="134.765"
             x="307.97165"
             xlink:href="#textext-d2fe8808-12"
             width="1052.3622"
             height="744.09448" />
        </g>
      </g>
    </g>
    <path
       inkscape:connector-curvature="0"
       id="path18020"
       d="m 210.15062,760.7973 632.06095,0"
       style="fill:none;stroke:#000000;stroke-width:3;stroke-linecap:butt;stroke-linejoin:miter;stroke-opacity:1;marker-start:url(#TriangleInM);marker-end:url(#TriangleOutM)"
       inkscape:export-filename="/home/waldgeist/data/pics/physik/Own/mechanik/kinematik/ueberholvorgang.png"
       inkscape:export-xdpi="150"
       inkscape:export-ydpi="150" />
    <g
       id="g19695"
       transform="matrix(2.1628814,0,0,2.1628814,-328.96775,513.05611)"
       ns0:preamble="/home/waldgeist/data/sphinx/test.tex"
       ns0:text="\\centering \\&quot;Uberholweg \\\\ (gesamt)"
       inkscape:export-filename="/home/waldgeist/data/pics/physik/Own/mechanik/kinematik/ueberholvorgang.png"
       inkscape:export-xdpi="150"
       inkscape:export-ydpi="150">
      <defs
         id="defs19697">
        <g
           id="g19699">
          <symbol
             id="textext-df1c936f-0"
             overflow="visible"
             style="overflow:visible">
            <path
               id="path19702"
               d="m 2.03125,-6.171875 c 0,-0.234375 -0.203125,-0.5 -0.5,-0.5 -0.28125,0 -0.5,0.21875 -0.5,0.5 0,0.28125 0.21875,0.5 0.5,0.5 0.296875,0 0.5,-0.265625 0.5,-0.5 z m 1.921875,0 c 0,-0.28125 -0.21875,-0.5 -0.5,-0.5 -0.296875,0 -0.5,0.265625 -0.5,0.5 0,0.234375 0.203125,0.5 0.5,0.5 0.28125,0 0.5,-0.21875 0.5,-0.5 z m 0,0"
               style="stroke:none"
               inkscape:connector-curvature="0" />
          </symbol>
          <symbol
             id="textext-df1c936f-1"
             overflow="visible"
             style="overflow:visible">
            <path
               id="path19705"
               d="m 5.796875,-2.296875 c 0,1.40625 -0.96875,2.203125 -1.90625,2.203125 -0.46875,0 -1.640625,-0.25 -1.640625,-2.140625 l 0,-3.796875 C 2.25,-6.390625 2.265625,-6.5 3.03125,-6.5 l 0.234375,0 0,-0.3125 c -0.34375,0.03125 -1.078125,0.03125 -1.46875,0.03125 -0.375,0 -1.125,0 -1.46875,-0.03125 l 0,0.3125 0.234375,0 c 0.765625,0 0.796875,0.109375 0.796875,0.46875 l 0,3.765625 c 0,1.390625 1.15625,2.484375 2.515625,2.484375 1.140625,0 2.03125,-0.921875 2.203125,-2.0625 0.03125,-0.203125 0.03125,-0.296875 0.03125,-0.6875 l 0,-3.1875 c 0,-0.328125 0,-0.78125 1.03125,-0.78125 l 0,-0.3125 c -0.359375,0.015625 -0.84375,0.03125 -1.171875,0.03125 -0.359375,0 -0.828125,-0.015625 -1.1875,-0.03125 l 0,0.3125 c 1.015625,0 1.015625,0.46875 1.015625,0.734375 z m 0,0"
               style="stroke:none"
               inkscape:connector-curvature="0" />
          </symbol>
          <symbol
             id="textext-df1c936f-2"
             overflow="visible"
             style="overflow:visible">
            <path
               id="path19708"
               d="m 1.71875,-3.765625 0,-3.15625 -1.4375,0.109375 0,0.3125 c 0.703125,0 0.78125,0.0625 0.78125,0.5625 l 0,5.9375 0.25,0 c 0,-0.015625 0.078125,-0.15625 0.359375,-0.625 0.140625,0.234375 0.5625,0.734375 1.296875,0.734375 1.1875,0 2.21875,-0.984375 2.21875,-2.265625 0,-1.265625 -0.96875,-2.25 -2.109375,-2.25 -0.78125,0 -1.203125,0.46875 -1.359375,0.640625 z m 0.03125,2.625 0,-2.046875 c 0,-0.1875 0,-0.203125 0.109375,-0.359375 C 2.25,-4.109375 2.796875,-4.1875 3.03125,-4.1875 c 0.453125,0 0.8125,0.265625 1.046875,0.640625 0.265625,0.40625 0.28125,0.96875 0.28125,1.390625 0,0.359375 -0.015625,0.953125 -0.296875,1.40625 -0.21875,0.3125 -0.59375,0.640625 -1.125,0.640625 -0.453125,0 -0.8125,-0.234375 -1.046875,-0.609375 C 1.75,-0.921875 1.75,-0.953125 1.75,-1.140625 z m 0,0"
               style="stroke:none"
               inkscape:connector-curvature="0" />
          </symbol>
          <symbol
             id="textext-df1c936f-3"
             overflow="visible"
             style="overflow:visible">
            <path
               id="path19711"
               d="M 1.109375,-2.515625 C 1.171875,-4 2.015625,-4.25 2.359375,-4.25 c 1.015625,0 1.125,1.34375 1.125,1.734375 z m 0,0.21875 2.78125,0 c 0.21875,0 0.25,0 0.25,-0.21875 0,-0.984375 -0.546875,-1.953125 -1.78125,-1.953125 -1.15625,0 -2.078125,1.03125 -2.078125,2.28125 0,1.328125 1.046875,2.296875 2.1875,2.296875 C 3.6875,0.109375 4.140625,-1 4.140625,-1.1875 4.140625,-1.28125 4.0625,-1.3125 4,-1.3125 c -0.078125,0 -0.109375,0.0625 -0.125,0.140625 -0.34375,1.03125 -1.25,1.03125 -1.34375,1.03125 -0.5,0 -0.890625,-0.296875 -1.125,-0.671875 -0.296875,-0.46875 -0.296875,-1.125 -0.296875,-1.484375 z m 0,0"
               style="stroke:none"
               inkscape:connector-curvature="0" />
          </symbol>
          <symbol
             id="textext-df1c936f-4"
             overflow="visible"
             style="overflow:visible">
            <path
               id="path19714"
               d="m 1.671875,-3.3125 0,-1.09375 -1.390625,0.109375 0,0.3125 c 0.703125,0 0.78125,0.0625 0.78125,0.5625 l 0,2.671875 c 0,0.4375 -0.109375,0.4375 -0.78125,0.4375 l 0,0.3125 c 0.390625,-0.015625 0.859375,-0.03125 1.140625,-0.03125 0.390625,0 0.859375,0 1.265625,0.03125 l 0,-0.3125 -0.21875,0 c -0.734375,0 -0.75,-0.109375 -0.75,-0.46875 l 0,-1.53125 c 0,-0.984375 0.421875,-1.875 1.171875,-1.875 0.0625,0 0.09375,0 0.109375,0.015625 -0.03125,0 -0.234375,0.125 -0.234375,0.390625 0,0.265625 0.21875,0.421875 0.4375,0.421875 0.171875,0 0.421875,-0.125 0.421875,-0.4375 0,-0.3125 -0.3125,-0.609375 -0.734375,-0.609375 -0.734375,0 -1.09375,0.671875 -1.21875,1.09375 z m 0,0"
               style="stroke:none"
               inkscape:connector-curvature="0" />
          </symbol>
          <symbol
             id="textext-df1c936f-5"
             overflow="visible"
             style="overflow:visible">
            <path
               id="path19717"
               d="m 1.09375,-0.75 c 0,0.4375 -0.109375,0.4375 -0.78125,0.4375 l 0,0.3125 c 0.359375,-0.015625 0.859375,-0.03125 1.140625,-0.03125 0.25,0 0.765625,0.015625 1.109375,0.03125 l 0,-0.3125 c -0.671875,0 -0.78125,0 -0.78125,-0.4375 l 0,-1.84375 C 1.78125,-3.625 2.5,-4.1875 3.125,-4.1875 c 0.640625,0 0.75,0.53125 0.75,1.109375 l 0,2.328125 c 0,0.4375 -0.109375,0.4375 -0.78125,0.4375 l 0,0.3125 c 0.34375,-0.015625 0.859375,-0.03125 1.125,-0.03125 0.25,0 0.78125,0.015625 1.109375,0.03125 l 0,-0.3125 c -0.515625,0 -0.765625,0 -0.765625,-0.296875 l 0,-1.90625 c 0,-0.859375 0,-1.15625 -0.3125,-1.515625 -0.140625,-0.171875 -0.46875,-0.375 -1.046875,-0.375 -0.84375,0 -1.28125,0.59375 -1.453125,0.984375 l 0,-3.5 -1.4375,0.109375 0,0.3125 c 0.703125,0 0.78125,0.0625 0.78125,0.5625 z m 0,0"
               style="stroke:none"
               inkscape:connector-curvature="0" />
          </symbol>
          <symbol
             id="textext-df1c936f-6"
             overflow="visible"
             style="overflow:visible">
            <path
               id="path19720"
               d="M 4.6875,-2.140625 C 4.6875,-3.40625 3.703125,-4.46875 2.5,-4.46875 c -1.25,0 -2.21875,1.09375 -2.21875,2.328125 0,1.296875 1.03125,2.25 2.203125,2.25 1.203125,0 2.203125,-0.984375 2.203125,-2.25 z m -2.1875,2 c -0.4375,0 -0.875,-0.203125 -1.140625,-0.671875 -0.25,-0.4375 -0.25,-1.046875 -0.25,-1.40625 0,-0.390625 0,-0.921875 0.234375,-1.359375 C 1.609375,-4.03125 2.078125,-4.25 2.484375,-4.25 c 0.4375,0 0.859375,0.21875 1.125,0.65625 0.265625,0.421875 0.265625,1 0.265625,1.375 0,0.359375 0,0.90625 -0.21875,1.34375 C 3.421875,-0.421875 2.984375,-0.140625 2.5,-0.140625 z m 0,0"
               style="stroke:none"
               inkscape:connector-curvature="0" />
          </symbol>
          <symbol
             id="textext-df1c936f-7"
             overflow="visible"
             style="overflow:visible">
            <path
               id="path19723"
               d="m 1.765625,-6.921875 -1.4375,0.109375 0,0.3125 c 0.703125,0 0.78125,0.0625 0.78125,0.5625 l 0,5.1875 c 0,0.4375 -0.109375,0.4375 -0.78125,0.4375 l 0,0.3125 C 0.65625,-0.015625 1.1875,-0.03125 1.4375,-0.03125 c 0.25,0 0.734375,0.015625 1.109375,0.03125 l 0,-0.3125 c -0.671875,0 -0.78125,0 -0.78125,-0.4375 z m 0,0"
               style="stroke:none"
               inkscape:connector-curvature="0" />
          </symbol>
          <symbol
             id="textext-df1c936f-8"
             overflow="visible"
             style="overflow:visible">
            <path
               id="path19726"
               d="m 6.171875,-3.34375 c 0.171875,-0.5 0.484375,-0.640625 0.84375,-0.640625 l 0,-0.3125 C 6.78125,-4.28125 6.5,-4.265625 6.28125,-4.265625 c -0.296875,0 -0.734375,-0.015625 -0.921875,-0.03125 l 0,0.3125 c 0.359375,0 0.578125,0.1875 0.578125,0.46875 0,0.0625 0,0.09375 -0.0625,0.21875 L 4.96875,-0.75 3.984375,-3.53125 C 3.953125,-3.65625 3.9375,-3.671875 3.9375,-3.71875 c 0,-0.265625 0.390625,-0.265625 0.59375,-0.265625 l 0,-0.3125 c -0.296875,0.015625 -0.796875,0.03125 -1.046875,0.03125 -0.296875,0 -0.578125,-0.015625 -0.875,-0.03125 l 0,0.3125 c 0.359375,0 0.515625,0.015625 0.625,0.140625 0.046875,0.0625 0.15625,0.359375 0.21875,0.546875 L 2.609375,-0.875 1.65625,-3.53125 C 1.609375,-3.65625 1.609375,-3.671875 1.609375,-3.71875 1.609375,-3.984375 2,-3.984375 2.1875,-3.984375 l 0,-0.3125 c -0.296875,0.015625 -0.859375,0.03125 -1.078125,0.03125 -0.046875,0 -0.578125,-0.015625 -0.9375,-0.03125 l 0,0.3125 c 0.5,0 0.625,0.03125 0.75,0.34375 l 1.25,3.53125 C 2.21875,0.03125 2.25,0.109375 2.375,0.109375 c 0.140625,0 0.15625,-0.0625 0.203125,-0.203125 l 1.015625,-2.8125 1.015625,2.828125 c 0.03125,0.109375 0.0625,0.1875 0.203125,0.1875 0.125,0 0.15625,-0.09375 0.1875,-0.1875 z m 0,0"
               style="stroke:none"
               inkscape:connector-curvature="0" />
          </symbol>
          <symbol
             id="textext-df1c936f-9"
             overflow="visible"
             style="overflow:visible">
            <path
               id="path19729"
               d="m 2.21875,-1.71875 c -0.875,0 -0.875,-1 -0.875,-1.21875 0,-0.265625 0.015625,-0.59375 0.15625,-0.84375 0.078125,-0.109375 0.3125,-0.390625 0.71875,-0.390625 0.859375,0 0.859375,0.984375 0.859375,1.21875 0,0.265625 0,0.59375 -0.15625,0.84375 C 2.84375,-2 2.609375,-1.71875 2.21875,-1.71875 z M 1.0625,-1.328125 c 0,-0.03125 0,-0.265625 0.15625,-0.46875 0.390625,0.28125 0.8125,0.3125 1,0.3125 0.921875,0 1.609375,-0.6875 1.609375,-1.453125 0,-0.375 -0.15625,-0.734375 -0.40625,-0.96875 C 3.78125,-4.25 4.140625,-4.296875 4.3125,-4.296875 c 0.03125,0 0.078125,0 0.109375,0.015625 C 4.3125,-4.25 4.25,-4.140625 4.25,-4.015625 c 0,0.171875 0.140625,0.28125 0.296875,0.28125 0.09375,0 0.28125,-0.0625 0.28125,-0.296875 0,-0.171875 -0.109375,-0.484375 -0.5,-0.484375 -0.203125,0 -0.640625,0.0625 -1.0625,0.46875 C 2.84375,-4.375 2.4375,-4.40625 2.21875,-4.40625 c -0.9375,0 -1.625,0.6875 -1.625,1.453125 0,0.4375 0.21875,0.8125 0.46875,1.03125 -0.125,0.140625 -0.3125,0.46875 -0.3125,0.828125 0,0.3125 0.140625,0.6875 0.453125,0.890625 -0.609375,0.15625 -0.921875,0.59375 -0.921875,0.984375 0,0.71875 0.984375,1.265625 2.203125,1.265625 1.171875,0 2.203125,-0.5 2.203125,-1.28125 0,-0.34375 -0.125,-0.859375 -0.640625,-1.140625 -0.53125,-0.265625 -1.109375,-0.265625 -1.71875,-0.265625 -0.25,0 -0.671875,0 -0.75,-0.015625 C 1.265625,-0.703125 1.0625,-1 1.0625,-1.328125 z M 2.5,1.828125 c -1.015625,0 -1.703125,-0.515625 -1.703125,-1.046875 0,-0.453125 0.375,-0.828125 0.8125,-0.84375 l 0.59375,0 c 0.859375,0 1.96875,0 1.96875,0.84375 0,0.546875 -0.703125,1.046875 -1.671875,1.046875 z m 0,0"
               style="stroke:none"
               inkscape:connector-curvature="0" />
          </symbol>
          <symbol
             id="textext-df1c936f-10"
             overflow="visible"
             style="overflow:visible">
            <path
               id="path19732"
               d="m 3.296875,2.390625 c 0,-0.03125 0,-0.046875 -0.171875,-0.21875 C 1.890625,0.921875 1.5625,-0.96875 1.5625,-2.5 c 0,-1.734375 0.375,-3.46875 1.609375,-4.703125 0.125,-0.125 0.125,-0.140625 0.125,-0.171875 0,-0.078125 -0.03125,-0.109375 -0.09375,-0.109375 -0.109375,0 -1,0.6875 -1.59375,1.953125 -0.5,1.09375 -0.625,2.203125 -0.625,3.03125 0,0.78125 0.109375,1.984375 0.65625,3.125 C 2.25,1.84375 3.09375,2.5 3.203125,2.5 c 0.0625,0 0.09375,-0.03125 0.09375,-0.109375 z m 0,0"
               style="stroke:none"
               inkscape:connector-curvature="0" />
          </symbol>
          <symbol
             id="textext-df1c936f-11"
             overflow="visible"
             style="overflow:visible">
            <path
               id="path19735"
               d="m 2.078125,-1.9375 c 0.21875,0.046875 1.03125,0.203125 1.03125,0.921875 0,0.5 -0.34375,0.90625 -1.125,0.90625 -0.84375,0 -1.203125,-0.5625 -1.390625,-1.421875 C 0.5625,-1.65625 0.5625,-1.6875 0.453125,-1.6875 c -0.125,0 -0.125,0.0625 -0.125,0.234375 l 0,1.328125 c 0,0.171875 0,0.234375 0.109375,0.234375 0.046875,0 0.0625,-0.015625 0.25,-0.203125 0.015625,-0.015625 0.015625,-0.03125 0.203125,-0.21875 0.4375,0.40625 0.890625,0.421875 1.09375,0.421875 1.140625,0 1.609375,-0.671875 1.609375,-1.390625 0,-0.515625 -0.296875,-0.828125 -0.421875,-0.9375 C 2.84375,-2.546875 2.453125,-2.625 2.03125,-2.703125 1.46875,-2.8125 0.8125,-2.9375 0.8125,-3.515625 c 0,-0.359375 0.25,-0.765625 1.109375,-0.765625 1.09375,0 1.15625,0.90625 1.171875,1.203125 0,0.09375 0.09375,0.09375 0.109375,0.09375 0.140625,0 0.140625,-0.046875 0.140625,-0.234375 l 0,-1.015625 c 0,-0.15625 0,-0.234375 -0.109375,-0.234375 -0.046875,0 -0.078125,0 -0.203125,0.125 -0.03125,0.03125 -0.125,0.125 -0.171875,0.15625 -0.375,-0.28125 -0.78125,-0.28125 -0.9375,-0.28125 -1.21875,0 -1.59375,0.671875 -1.59375,1.234375 0,0.34375 0.15625,0.625 0.421875,0.84375 0.328125,0.25 0.609375,0.3125 1.328125,0.453125 z m 0,0"
               style="stroke:none"
               inkscape:connector-curvature="0" />
          </symbol>
          <symbol
             id="textext-df1c936f-12"
             overflow="visible"
             style="overflow:visible">
            <path
               id="path19738"
               d="m 3.3125,-0.75 c 0.046875,0.390625 0.3125,0.8125 0.78125,0.8125 0.21875,0 0.828125,-0.140625 0.828125,-0.953125 l 0,-0.5625 -0.25,0 0,0.5625 c 0,0.578125 -0.25,0.640625 -0.359375,0.640625 -0.328125,0 -0.375,-0.453125 -0.375,-0.5 l 0,-1.984375 c 0,-0.421875 0,-0.8125 -0.359375,-1.1875 C 3.1875,-4.3125 2.6875,-4.46875 2.21875,-4.46875 c -0.828125,0 -1.515625,0.46875 -1.515625,1.125 0,0.296875 0.203125,0.46875 0.46875,0.46875 0.28125,0 0.453125,-0.203125 0.453125,-0.453125 0,-0.125 -0.046875,-0.453125 -0.515625,-0.453125 C 1.390625,-4.140625 1.875,-4.25 2.1875,-4.25 c 0.5,0 1.0625,0.390625 1.0625,1.28125 l 0,0.359375 c -0.515625,0.03125 -1.203125,0.0625 -1.828125,0.359375 -0.75,0.34375 -1,0.859375 -1,1.296875 0,0.8125 0.96875,1.0625 1.59375,1.0625 0.65625,0 1.109375,-0.40625 1.296875,-0.859375 z M 3.25,-2.390625 l 0,1 c 0,0.9375 -0.71875,1.28125 -1.171875,1.28125 -0.484375,0 -0.890625,-0.34375 -0.890625,-0.84375 0,-0.546875 0.421875,-1.375 2.0625,-1.4375 z m 0,0"
               style="stroke:none"
               inkscape:connector-curvature="0" />
          </symbol>
          <symbol
             id="textext-df1c936f-13"
             overflow="visible"
             style="overflow:visible">
            <path
               id="path19741"
               d="m 1.09375,-3.421875 0,2.671875 c 0,0.4375 -0.109375,0.4375 -0.78125,0.4375 l 0,0.3125 c 0.359375,-0.015625 0.859375,-0.03125 1.140625,-0.03125 0.25,0 0.765625,0.015625 1.109375,0.03125 l 0,-0.3125 c -0.671875,0 -0.78125,0 -0.78125,-0.4375 l 0,-1.84375 C 1.78125,-3.625 2.5,-4.1875 3.125,-4.1875 c 0.640625,0 0.75,0.53125 0.75,1.109375 l 0,2.328125 c 0,0.4375 -0.109375,0.4375 -0.78125,0.4375 l 0,0.3125 c 0.34375,-0.015625 0.859375,-0.03125 1.125,-0.03125 0.25,0 0.78125,0.015625 1.109375,0.03125 l 0,-0.3125 c -0.65625,0 -0.765625,0 -0.765625,-0.4375 l 0,-1.84375 c 0,-1.03125 0.703125,-1.59375 1.34375,-1.59375 0.625,0 0.734375,0.53125 0.734375,1.109375 l 0,2.328125 c 0,0.4375 -0.109375,0.4375 -0.78125,0.4375 l 0,0.3125 c 0.34375,-0.015625 0.859375,-0.03125 1.125,-0.03125 0.265625,0 0.78125,0.015625 1.125,0.03125 l 0,-0.3125 c -0.515625,0 -0.765625,0 -0.78125,-0.296875 l 0,-1.90625 c 0,-0.859375 0,-1.15625 -0.3125,-1.515625 -0.140625,-0.171875 -0.46875,-0.375 -1.046875,-0.375 -0.828125,0 -1.28125,0.59375 -1.4375,0.984375 C 4.390625,-4.296875 3.65625,-4.40625 3.203125,-4.40625 2.46875,-4.40625 2,-3.984375 1.71875,-3.359375 l 0,-1.046875 -1.40625,0.109375 0,0.3125 c 0.703125,0 0.78125,0.0625 0.78125,0.5625 z m 0,0"
               style="stroke:none"
               inkscape:connector-curvature="0" />
          </symbol>
          <symbol
             id="textext-df1c936f-14"
             overflow="visible"
             style="overflow:visible">
            <path
               id="path19744"
               d="m 1.71875,-3.984375 1.4375,0 0,-0.3125 -1.4375,0 0,-1.828125 -0.25,0 c 0,0.8125 -0.296875,1.875 -1.28125,1.921875 l 0,0.21875 0.84375,0 0,2.75 c 0,1.21875 0.9375,1.34375 1.296875,1.34375 0.703125,0 0.984375,-0.703125 0.984375,-1.34375 l 0,-0.5625 -0.25,0 0,0.546875 c 0,0.734375 -0.296875,1.109375 -0.671875,1.109375 -0.671875,0 -0.671875,-0.90625 -0.671875,-1.078125 z m 0,0"
               style="stroke:none"
               inkscape:connector-curvature="0" />
          </symbol>
          <symbol
             id="textext-df1c936f-15"
             overflow="visible"
             style="overflow:visible">
            <path
               id="path19747"
               d="m 2.875,-2.5 c 0,-0.765625 -0.109375,-1.96875 -0.65625,-3.109375 -0.59375,-1.21875 -1.453125,-1.875 -1.546875,-1.875 -0.0625,0 -0.109375,0.046875 -0.109375,0.109375 0,0.03125 0,0.046875 0.1875,0.234375 0.984375,0.984375 1.546875,2.5625 1.546875,4.640625 0,1.71875 -0.359375,3.46875 -1.59375,4.71875 C 0.5625,2.34375 0.5625,2.359375 0.5625,2.390625 0.5625,2.453125 0.609375,2.5 0.671875,2.5 0.765625,2.5 1.671875,1.8125 2.25,0.546875 2.765625,-0.546875 2.875,-1.65625 2.875,-2.5 z m 0,0"
               style="stroke:none"
               inkscape:connector-curvature="0" />
          </symbol>
        </g>
      </defs>
      <g
         id="textext-df1c936f-16">
        <g
           id="g19750"
           style="fill:#000000;fill-opacity:1">
          <use
             id="use19752"
             y="132.246"
             x="370.92099"
             xlink:href="#textext-df1c936f-0"
             width="1052.3622"
             height="744.09448" />
        </g>
        <g
           id="g19754"
           style="fill:#000000;fill-opacity:1">
          <use
             id="use19756"
             y="134.765"
             x="369.67499"
             xlink:href="#textext-df1c936f-1"
             width="1052.3622"
             height="744.09448" />
          <use
             id="use19758"
             y="134.765"
             x="377.14694"
             xlink:href="#textext-df1c936f-2"
             width="1052.3622"
             height="744.09448" />
        </g>
        <g
           id="g19760"
           style="fill:#000000;fill-opacity:1">
          <use
             id="use19762"
             y="134.765"
             x="382.96112"
             xlink:href="#textext-df1c936f-3"
             width="1052.3622"
             height="744.09448" />
          <use
             id="use19764"
             y="134.765"
             x="387.38849"
             xlink:href="#textext-df1c936f-4"
             width="1052.3622"
             height="744.09448" />
          <use
             id="use19766"
             y="134.765"
             x="391.29086"
             xlink:href="#textext-df1c936f-5"
             width="1052.3622"
             height="744.09448" />
          <use
             id="use19768"
             y="134.765"
             x="396.82608"
             xlink:href="#textext-df1c936f-6"
             width="1052.3622"
             height="744.09448" />
          <use
             id="use19770"
             y="134.765"
             x="401.80737"
             xlink:href="#textext-df1c936f-7"
             width="1052.3622"
             height="744.09448" />
          <use
             id="use19772"
             y="134.765"
             x="404.57498"
             xlink:href="#textext-df1c936f-8"
             width="1052.3622"
             height="744.09448" />
        </g>
        <g
           id="g19774"
           style="fill:#000000;fill-opacity:1">
          <use
             id="use19776"
             y="134.765"
             x="411.49103"
             xlink:href="#textext-df1c936f-3"
             width="1052.3622"
             height="744.09448" />
          <use
             id="use19778"
             y="134.765"
             x="415.9184"
             xlink:href="#textext-df1c936f-9"
             width="1052.3622"
             height="744.09448" />
        </g>
        <g
           id="g19780"
           style="fill:#000000;fill-opacity:1">
          <use
             id="use19782"
             y="146.72"
             x="376.30301"
             xlink:href="#textext-df1c936f-10"
             width="1052.3622"
             height="744.09448" />
          <use
             id="use19784"
             y="146.72"
             x="380.17746"
             xlink:href="#textext-df1c936f-9"
             width="1052.3622"
             height="744.09448" />
          <use
             id="use19786"
             y="146.72"
             x="385.15875"
             xlink:href="#textext-df1c936f-3"
             width="1052.3622"
             height="744.09448" />
          <use
             id="use19788"
             y="146.72"
             x="389.58612"
             xlink:href="#textext-df1c936f-11"
             width="1052.3622"
             height="744.09448" />
          <use
             id="use19790"
             y="146.72"
             x="393.51538"
             xlink:href="#textext-df1c936f-12"
             width="1052.3622"
             height="744.09448" />
          <use
             id="use19792"
             y="146.72"
             x="398.49667"
             xlink:href="#textext-df1c936f-13"
             width="1052.3622"
             height="744.09448" />
        </g>
        <g
           id="g19794"
           style="fill:#000000;fill-opacity:1">
          <use
             id="use19796"
             y="146.72"
             x="406.51956"
             xlink:href="#textext-df1c936f-14"
             width="1052.3622"
             height="744.09448" />
          <use
             id="use19798"
             y="146.72"
             x="410.39401"
             xlink:href="#textext-df1c936f-15"
             width="1052.3622"
             height="744.09448" />
        </g>
      </g>
    </g>
  </g>
</svg>
