<svg xmlns:ns0="http://www.iki.fi/pav/software/textext/" xmlns="http://www.w3.org/2000/svg" xmlns:xlink="http://www.w3.org/1999/xlink" width="1052.362" height="744.094"><title>Ueberholvorgang</title><defs><marker orient="auto" id="b" overflow="visible"><path d="M2.308 0l-3.46 2v-4l3.46 2z" fill-rule="evenodd" stroke="#000" stroke-width=".4pt"/></marker><marker orient="auto" id="a" overflow="visible"><path d="M-2.308 0l3.46-2v4l-3.46-2z" fill-rule="evenodd" stroke="#000" stroke-width=".4pt"/></marker></defs><g transform="translate(0 -308.268)"><use transform="translate(-574.941 -82.301) scale(4.27244)" height="744.094" width="1052.362" xlink:href="#textext-d9743f22-2" x="236.162" y="134.765"/><use transform="translate(-574.941 -82.301) scale(4.27244)" height="744.094" width="1052.362" xlink:href="#textext-d9743f22-2" x="236.162" y="134.765"/><rect ry=".395" y="493.437" x="44.338" height="373.756" width="963.686" fill="#fff" stroke="#fff"/><path d="M613.545 604.83c3.094-1.61 4.487-3.908 4.487-7.405 0-2.488-.551-4.14-1.845-5.53-3.53-3.796-10.187-3.382-12.957.805-.893 1.349-1.226 2.44-1.345 4.413-.144 2.38-.03 2.812 1.235 4.705.913 1.367 1.992 2.357 3.132 2.875 2.131.968 5.571 1.032 7.294.137zm-68.79.079c1.874-.818 4.39-3.8 4.73-5.604.724-3.863-.983-7.578-4.195-9.133-7.83-3.79-15.577 4.94-10.546 11.884 2.229 3.076 6.627 4.33 10.012 2.853zm-50.417-.078c2.185-1.134 3.613-2.825 4.344-5.144.608-1.928.626-2.498.14-4.238-1.058-3.777-4.184-6.192-7.992-6.174-4.628.021-7.821 3.017-8.157 7.651-.19 2.642.293 3.96 2.253 6.14 2.1 2.335 6.664 3.191 9.412 1.765zm-43.154 0c2.185-1.134 3.613-2.825 4.344-5.144.608-1.928.626-2.498.14-4.238-1.058-3.777-4.184-6.192-7.992-6.174-4.627.021-7.821 3.017-8.157 7.651-.19 2.642.293 3.96 2.253 6.14 2.101 2.335 6.664 3.191 9.412 1.765zm172.295-8.339c.953-.36.962-.44.973-9.029l.012-8.666-3.095-8.27c-2.348-6.273-3.308-8.352-3.974-8.605-.957-.364-21.166-1.666-21.688-1.398-.176.09-.32 6.364-.32 13.94 0 10.145-.135 13.911-.513 14.289-.385.385-5.953.512-22.431.512-12.056 0-21.92.114-21.92.253 0 .14.364.716.809 1.28.444.565 1.154 2.184 1.577 3.597l.77 2.569 21.993-.11 21.994-.112.794-2.35c2.353-6.958 9.036-10.525 15.3-8.166 4.148 1.563 6.99 4.774 7.884 8.91.36 1.662.585 1.829 1.835 1.356zm-12.312-18.283c-3.893-.418-7.306-.9-7.584-1.072-.353-.218-.506-2.247-.506-6.71 0-5.368.106-6.438.659-6.65.362-.139 3.453-.063 6.87.169 4.456.302 6.389.6 6.841 1.052 1.056 1.056 4.942 11.908 4.663 13.02-.31 1.234-1.103 1.248-10.943.191zm-81.907 18.48c.119-.206.34-1.06.49-1.9.152-.84.846-2.427 1.543-3.526l1.267-1.998h-15.831l.127 2.67.127 2.671 2.991.998c3.14 1.047 8.918 1.722 9.286 1.084zm-18.9-4.86v-2.564h-10.765l.922 1.389c.507.764 1.122 1.917 1.366 2.564.44 1.167.47 1.175 4.46 1.175h4.018v-2.564zm-30.567 1.415c.159-.632.66-1.671 1.115-2.31.454-.638.826-1.274.826-1.414 0-.14-5.69-.255-12.646-.255H456.44l.922 1.389c.507.764 1.122 1.917 1.366 2.564l.443 1.175h20.333l.288-1.15zm-43.154 0c.16-.632.66-1.671 1.115-2.31.454-.638.826-1.274.826-1.414 0-.14-2.403-.255-5.34-.255h-5.342v5.128h8.453l.288-1.15zm152.339-24.701v-16.877H516.77v33.754h72.208v-16.877zm-83.744 0v-16.877h-77.336v33.754h77.336v-16.877z" fill="#010101"/><rect width="888.343" height="5.714" x="82.01" y="605.527" ry=".455" fill="#4d4d4d"/><g fill="#00f"><path d="M234.763 605.382c2.095-.544 4.053-2.2 4.844-4.096.61-1.462.562-4.369-.096-5.797-1.172-2.545-3.503-3.966-6.472-3.944-1.818.014-4.084.907-5.03 1.984-.839.954-1.706 2.972-1.863 4.338-.3 2.59 1.705 6.095 4.043 7.072 1.192.498 3.5.721 4.574.443zm-65.355-.277c1.692-.6 3.494-2.18 4.212-3.694.346-.728.44-1.585.367-3.309-.09-2.117-.188-2.45-1.08-3.689-2.99-4.152-9.645-3.764-11.905.695-1.05 2.07-1.166 3.737-.405 5.758 1.413 3.749 5.14 5.541 8.811 4.239zm78.073-7.099c1.018-.364 1.143-.985 1.143-5.66 0-3.236-.106-4.752-.357-5.093-.28-.38-3.28-.98-13.767-2.755l-13.41-2.268-6.467-6.446-6.468-6.446H170.888l-8.503 6.741c-4.677 3.708-8.793 7.06-9.147 7.447-.626.688-.643.87-.643 7.066 0 7.652-.067 7.47 2.732 7.47h1.92l.48-1.715c.678-2.43 1.21-3.311 2.93-4.86 2.2-1.983 3.576-2.513 6.514-2.513 2.907 0 4.452.58 6.465 2.429 1.4 1.286 2.962 4.11 2.97 5.372.01 1.507-1.19 1.438 23.564 1.36l23.103-.074.476-1.714c.675-2.427 1.206-3.31 2.928-4.86 2.154-1.941 3.586-2.506 6.371-2.512 2.827-.007 4.297.514 6.312 2.235 1.61 1.376 3.263 4.188 3.263 5.554 0 .415.154.909.343 1.097.342.343 3.665.449 4.515.145zm-56.017-14.085c-.35-.22-.445-1.222-.518-5.411-.058-3.354.02-5.345.224-5.727.306-.57.538-.587 8.599-.587h8.284l4.996 4.783c4.063 3.89 4.995 4.927 4.995 5.557 0 1.658-.054 1.665-13.711 1.66-7.324-.003-12.617-.116-12.869-.275zm-24.985-.557c-.479-.45-.737-.997-.737-1.561 0-.74.65-1.52 4.369-5.238l4.368-4.369h6.754c3.715 0 6.958.079 7.207.174.39.15.452.92.452 5.659 0 3.97-.098 5.583-.353 5.838-.27.27-2.811.334-10.838.272l-10.485-.082-.737-.693zM885.906 605.382c2.094-.544 4.053-2.2 4.844-4.096.61-1.462.562-4.369-.096-5.797-1.172-2.545-3.503-3.966-6.472-3.944-1.818.014-4.084.907-5.03 1.984-.84.954-1.706 2.972-1.863 4.338-.3 2.59 1.704 6.095 4.043 7.072 1.192.498 3.5.721 4.574.443zm-65.355-.277c1.691-.6 3.494-2.18 4.212-3.694.345-.728.44-1.585.367-3.309-.09-2.117-.188-2.45-1.08-3.689-2.99-4.152-9.645-3.764-11.905.695-1.05 2.07-1.166 3.737-.405 5.758 1.413 3.749 5.139 5.541 8.81 4.239zm78.073-7.099c1.018-.364 1.143-.985 1.143-5.66 0-3.236-.106-4.752-.357-5.093-.28-.38-3.28-.98-13.767-2.755l-13.41-2.268-6.467-6.446-6.468-6.446H822.03l-8.504 6.741c-4.676 3.708-8.792 7.06-9.146 7.447-.627.688-.643.87-.643 7.066 0 7.652-.067 7.47 2.731 7.47h1.92l.48-1.715c.68-2.43 1.21-3.311 2.93-4.86 2.2-1.983 3.577-2.513 6.515-2.513 2.907 0 4.451.58 6.465 2.429 1.4 1.286 2.962 4.11 2.97 5.372.01 1.507-1.19 1.438 23.564 1.36l23.102-.074.477-1.714c.674-2.427 1.206-3.31 2.928-4.86 2.154-1.941 3.586-2.506 6.371-2.512 2.827-.007 4.297.514 6.312 2.235 1.61 1.376 3.262 4.188 3.262 5.554 0 .415.155.909.343 1.097.343.343 3.665.449 4.516.145zm-56.017-14.085c-.35-.22-.445-1.222-.518-5.411-.058-3.354.02-5.345.224-5.727.306-.57.538-.587 8.599-.587h8.284l4.995 4.783c4.064 3.89 4.995 4.927 4.995 5.557 0 1.658-.053 1.665-13.71 1.66-7.324-.003-12.617-.116-12.87-.275zm-24.985-.557c-.479-.45-.737-.997-.737-1.561 0-.74.65-1.52 4.368-5.238l4.37-4.369h6.753c3.715 0 6.958.079 7.207.174.39.15.452.92.452 5.659 0 3.97-.098 5.583-.353 5.838-.27.27-2.811.334-10.838.272l-10.485-.082-.737-.693z"/></g><path d="M243.836 658.305h163.02M619.348 658.305h163.02" fill="none" stroke="#000" stroke-width="3" marker-start="url(#a)" marker-end="url(#b)"/><g transform="translate(-254.456 418.061) scale(2.16288)" ns0:text="Sicherheitsabstand 1" ns0:preamble="/home/waldgeist/data/sphinx/test.tex"><defs><symbol overflow="visible" id="c"><path d="M3.484-3.875l-1.28-.297c-.626-.156-1-.687-1-1.266 0-.703.53-1.312 1.312-1.312 1.656 0 1.875 1.64 1.937 2.078.016.063.016.125.125.125.125 0 .125-.047.125-.234v-2c0-.172 0-.25-.11-.25-.062 0-.077.015-.14.14l-.36.563c-.296-.297-.702-.703-1.593-.703-1.11 0-1.938.875-1.938 1.937 0 .828.532 1.563 1.297 1.828.11.032.625.157 1.329.329.265.062.562.14.843.5.203.265.313.593.313.921 0 .704-.5 1.422-1.344 1.422-.281 0-1.047-.047-1.578-.531-.578-.547-.61-1.172-.61-1.531-.015-.11-.093-.11-.125-.11-.125 0-.125.079-.125.25v2c0 .172 0 .235.11.235.062 0 .078-.016.14-.125 0-.016.032-.047.36-.578.312.343.953.703 1.844.703 1.156 0 1.953-.969 1.953-2.078 0-.985-.657-1.813-1.485-2.016zm0 0"/></symbol><symbol overflow="visible" id="d"><path d="M1.766-4.406l-1.391.11v.312c.64 0 .734.062.734.546V-.75c0 .438-.109.438-.78.438V0c.312-.016.859-.031 1.093-.031.36 0 .703.015 1.047.031v-.313c-.672 0-.703-.046-.703-.437zm.03-1.735a.514.514 0 0 0-.515-.53.537.537 0 0 0-.531.53c0 .266.219.532.531.532a.514.514 0 0 0 .516-.532zm0 0"/></symbol><symbol overflow="visible" id="e"><path d="M1.172-2.172c0-1.625.812-2.047 1.344-2.047.093 0 .718.016 1.062.375-.406.031-.469.328-.469.453 0 .266.188.454.454.454.265 0 .468-.157.468-.47 0-.671-.765-1.062-1.531-1.062C1.25-4.469.344-3.39.344-2.156c0 1.281.984 2.265 2.14 2.265 1.329 0 1.657-1.203 1.657-1.296 0-.094-.11-.094-.141-.094-.078 0-.11.031-.125.093C3.594-.265 2.937-.14 2.578-.14c-.531 0-1.406-.421-1.406-2.03zm0 0"/></symbol><symbol overflow="visible" id="f"><path d="M1.094-.75c0 .438-.11.438-.782.438V0c.36-.016.86-.031 1.141-.031.25 0 .766.015 1.11.031v-.313c-.672 0-.782 0-.782-.437v-1.844c0-1.031.719-1.594 1.344-1.594.64 0 .75.532.75 1.11V-.75c0 .438-.11.438-.781.438V0c.344-.016.86-.031 1.125-.031.25 0 .781.015 1.11.031v-.313c-.516 0-.766 0-.766-.296v-1.907c0-.859 0-1.156-.313-1.515-.14-.172-.469-.375-1.047-.375-.844 0-1.281.593-1.453.984v-3.5l-1.438.11v.312c.704 0 .782.063.782.563zm0 0"/></symbol><symbol overflow="visible" id="g"><path d="M1.11-2.516C1.171-4 2.015-4.25 2.36-4.25c1.015 0 1.124 1.344 1.124 1.734zm0 .22h2.78c.22 0 .25 0 .25-.22 0-.984-.546-1.953-1.78-1.953C1.202-4.469.28-3.437.28-2.187.281-.86 1.328.108 2.47.108 3.688.11 4.14-1 4.14-1.187c0-.094-.079-.125-.141-.125-.078 0-.11.062-.125.14C3.531-.14 2.625-.14 2.531-.14c-.5 0-.89-.296-1.125-.671-.297-.47-.297-1.125-.297-1.485zm0 0"/></symbol><symbol overflow="visible" id="h"><path d="M1.672-3.313v-1.093l-1.39.11v.312c.702 0 .78.062.78.562V-.75c0 .438-.109.438-.78.438V0c.39-.016.859-.031 1.14-.031.39 0 .86 0 1.266.031v-.313h-.22c-.734 0-.75-.109-.75-.468v-1.531c0-.985.423-1.876 1.173-1.876.062 0 .093 0 .109.016-.031 0-.234.125-.234.39 0 .266.218.423.437.423a.421.421 0 0 0 .422-.438c0-.312-.313-.61-.734-.61-.735 0-1.094.673-1.22 1.095zm0 0"/></symbol><symbol overflow="visible" id="i"><path d="M1.719-3.984h1.437v-.313H1.72v-1.828h-.25c0 .813-.297 1.875-1.282 1.922v.219h.844v2.75c0 1.218.938 1.343 1.297 1.343.703 0 .985-.703.985-1.343v-.563h-.25v.547c0 .734-.297 1.11-.672 1.11-.672 0-.672-.907-.672-1.079zm0 0"/></symbol><symbol overflow="visible" id="j"><path d="M2.078-1.938c.219.047 1.031.204 1.031.922 0 .5-.343.907-1.125.907-.843 0-1.203-.563-1.39-1.422-.031-.125-.031-.157-.14-.157-.126 0-.126.063-.126.235v1.328c0 .172 0 .234.11.234C.483.11.5.094.688-.094.703-.109.703-.125.89-.312c.437.406.89.421 1.093.421 1.141 0 1.61-.671 1.61-1.39 0-.516-.297-.828-.422-.938-.328-.328-.719-.406-1.14-.484-.563-.11-1.22-.235-1.22-.813 0-.359.25-.765 1.11-.765 1.094 0 1.156.906 1.172 1.203 0 .094.094.094.11.094.14 0 .14-.047.14-.235v-1.015c0-.157 0-.235-.11-.235-.046 0-.078 0-.203.125-.031.032-.125.125-.172.157-.375-.282-.78-.282-.937-.282-1.219 0-1.594.672-1.594 1.235 0 .343.156.625.422.843.328.25.61.313 1.328.454zm0 0"/></symbol><symbol overflow="visible" id="k"><path d="M3.313-.75c.046.39.312.813.78.813.22 0 .829-.141.829-.954v-.562h-.25v.562c0 .579-.25.641-.36.641-.328 0-.375-.453-.375-.5v-1.984c0-.422 0-.813-.359-1.188-.39-.39-.89-.547-1.36-.547-.827 0-1.515.469-1.515 1.125 0 .297.203.469.469.469a.435.435 0 0 0 .453-.453c0-.125-.047-.453-.516-.453.282-.36.766-.469 1.079-.469.5 0 1.062.39 1.062 1.281v.36c-.516.03-1.203.062-1.828.359-.75.344-1 .86-1 1.297 0 .812.969 1.062 1.594 1.062.656 0 1.109-.406 1.296-.859zM3.25-2.39v1c0 .937-.719 1.28-1.172 1.28-.484 0-.89-.343-.89-.843 0-.547.421-1.375 2.062-1.438zm0 0"/></symbol><symbol overflow="visible" id="l"><path d="M1.719-3.766v-3.156l-1.438.11v.312c.703 0 .781.063.781.563V0h.25c0-.016.079-.156.36-.625.14.234.562.734 1.297.734 1.187 0 2.219-.984 2.219-2.265 0-1.266-.97-2.25-2.11-2.25-.781 0-1.203.468-1.36.64zM1.75-1.14v-2.046c0-.188 0-.204.11-.36.39-.562.937-.64 1.171-.64.453 0 .813.265 1.047.64.266.406.281.969.281 1.39 0 .36-.015.954-.296 1.407-.22.313-.594.64-1.125.64-.454 0-.813-.234-1.047-.609-.141-.203-.141-.234-.141-.422zm0 0"/></symbol><symbol overflow="visible" id="m"><path d="M1.094-3.422V-.75c0 .438-.11.438-.782.438V0c.36-.016.86-.031 1.141-.031.25 0 .766.015 1.11.031v-.313c-.672 0-.782 0-.782-.437v-1.844c0-1.031.719-1.594 1.344-1.594.64 0 .75.532.75 1.11V-.75c0 .438-.11.438-.781.438V0c.344-.016.86-.031 1.125-.031.25 0 .781.015 1.11.031v-.313c-.516 0-.766 0-.766-.296v-1.907c0-.859 0-1.156-.313-1.515-.14-.172-.469-.375-1.047-.375-.734 0-1.203.422-1.484 1.047v-1.047l-1.407.11v.312c.704 0 .782.062.782.562zm0 0"/></symbol><symbol overflow="visible" id="n"><path d="M3.781-.547V.11L5.25 0v-.313c-.688 0-.781-.062-.781-.562v-6.047l-1.422.11v.312c.687 0 .765.063.765.563v2.156a1.582 1.582 0 0 0-1.25-.625c-1.171 0-2.218.984-2.218 2.265 0 1.266.969 2.25 2.11 2.25.64 0 1.077-.343 1.327-.656zm0-2.672v2.047c0 .172 0 .188-.11.36-.296.484-.733.703-1.171.703-.453 0-.813-.266-1.047-.641-.25-.406-.281-.969-.281-1.39 0-.36.016-.954.297-1.407.218-.312.593-.64 1.14-.64.344 0 .766.156 1.063.593.11.172.11.188.11.375zm0 0"/></symbol><symbol overflow="visible" id="o"><path d="M2.938-6.375c0-.25 0-.266-.235-.266C2.078-6 1.203-6 .891-6v.313c.203 0 .78 0 1.296-.266v5.172c0 .36-.03.469-.921.469H.953V0c.344-.031 1.203-.031 1.61-.031.39 0 1.265 0 1.609.031v-.313h-.313c-.906 0-.921-.109-.921-.468zm0 0"/></symbol></defs><use height="744.094" width="1052.362" xlink:href="#c" x="223.432" y="134.765"/><use height="744.094" width="1052.362" xlink:href="#d" x="228.967" y="134.765"/><use height="744.094" width="1052.362" xlink:href="#e" x="231.735" y="134.765"/><g><use height="744.094" width="1052.362" xlink:href="#f" x="235.883" y="134.765"/><use height="744.094" width="1052.362" xlink:href="#g" x="241.418" y="134.765"/><use height="744.094" width="1052.362" xlink:href="#h" x="245.846" y="134.765"/><use height="744.094" width="1052.362" xlink:href="#f" x="249.748" y="134.765"/><use height="744.094" width="1052.362" xlink:href="#g" x="255.283" y="134.765"/><use height="744.094" width="1052.362" xlink:href="#d" x="259.711" y="134.765"/><use height="744.094" width="1052.362" xlink:href="#i" x="262.478" y="134.765"/><use height="744.094" width="1052.362" xlink:href="#j" x="266.353" y="134.765"/><use height="744.094" width="1052.362" xlink:href="#k" x="270.282" y="134.765"/><use height="744.094" width="1052.362" xlink:href="#l" x="275.263" y="134.765"/><use height="744.094" width="1052.362" xlink:href="#j" x="280.799" y="134.765"/><use height="744.094" width="1052.362" xlink:href="#i" x="284.728" y="134.765"/><use height="744.094" width="1052.362" xlink:href="#k" x="288.602" y="134.765"/><use height="744.094" width="1052.362" xlink:href="#m" x="293.584" y="134.765"/><use height="744.094" width="1052.362" xlink:href="#n" x="299.119" y="134.765"/></g><g><use height="744.094" width="1052.362" xlink:href="#o" x="307.972" y="134.765"/></g></g><g transform="translate(117.28 418.061) scale(2.16288)" ns0:preamble="/home/waldgeist/data/sphinx/test.tex" ns0:text="Sicherheitsabstand 2"><defs><symbol id="p" overflow="visible"><path d="M3.484-3.875l-1.28-.297c-.626-.156-1-.687-1-1.266 0-.703.53-1.312 1.312-1.312 1.656 0 1.875 1.64 1.937 2.078.016.063.016.125.125.125.125 0 .125-.047.125-.234v-2c0-.172 0-.25-.11-.25-.062 0-.077.015-.14.14l-.36.563c-.296-.297-.702-.703-1.593-.703-1.11 0-1.938.875-1.938 1.937 0 .828.532 1.563 1.297 1.828.11.032.625.157 1.329.329.265.062.562.14.843.5.203.265.313.593.313.921 0 .704-.5 1.422-1.344 1.422-.281 0-1.047-.047-1.578-.531-.578-.547-.61-1.172-.61-1.531-.015-.11-.093-.11-.125-.11-.125 0-.125.079-.125.25v2c0 .172 0 .235.11.235.062 0 .078-.016.14-.125 0-.016.032-.047.36-.578.312.343.953.703 1.844.703 1.156 0 1.953-.969 1.953-2.078 0-.985-.657-1.813-1.485-2.016zm0 0"/></symbol><symbol id="q" overflow="visible"><path d="M1.766-4.406l-1.391.11v.312c.64 0 .734.062.734.546V-.75c0 .438-.109.438-.78.438V0c.312-.016.859-.031 1.093-.031.36 0 .703.015 1.047.031v-.313c-.672 0-.703-.046-.703-.437zm.03-1.735a.514.514 0 0 0-.515-.53.537.537 0 0 0-.531.53c0 .266.219.532.531.532a.514.514 0 0 0 .516-.532zm0 0"/></symbol><symbol id="r" overflow="visible"><path d="M1.172-2.172c0-1.625.812-2.047 1.344-2.047.093 0 .718.016 1.062.375-.406.031-.469.328-.469.453 0 .266.188.454.454.454.265 0 .468-.157.468-.47 0-.671-.765-1.062-1.531-1.062C1.25-4.469.344-3.39.344-2.156c0 1.281.984 2.265 2.14 2.265 1.329 0 1.657-1.203 1.657-1.296 0-.094-.11-.094-.141-.094-.078 0-.11.031-.125.093C3.594-.265 2.937-.14 2.578-.14c-.531 0-1.406-.421-1.406-2.03zm0 0"/></symbol><symbol id="s" overflow="visible"><path d="M1.094-.75c0 .438-.11.438-.782.438V0c.36-.016.86-.031 1.141-.031.25 0 .766.015 1.11.031v-.313c-.672 0-.782 0-.782-.437v-1.844c0-1.031.719-1.594 1.344-1.594.64 0 .75.532.75 1.11V-.75c0 .438-.11.438-.781.438V0c.344-.016.86-.031 1.125-.031.25 0 .781.015 1.11.031v-.313c-.516 0-.766 0-.766-.296v-1.907c0-.859 0-1.156-.313-1.515-.14-.172-.469-.375-1.047-.375-.844 0-1.281.593-1.453.984v-3.5l-1.438.11v.312c.704 0 .782.063.782.563zm0 0"/></symbol><symbol id="t" overflow="visible"><path d="M1.11-2.516C1.171-4 2.015-4.25 2.36-4.25c1.015 0 1.124 1.344 1.124 1.734zm0 .22h2.78c.22 0 .25 0 .25-.22 0-.984-.546-1.953-1.78-1.953C1.202-4.469.28-3.437.28-2.187.281-.86 1.328.108 2.47.108 3.688.11 4.14-1 4.14-1.187c0-.094-.079-.125-.141-.125-.078 0-.11.062-.125.14C3.531-.14 2.625-.14 2.531-.14c-.5 0-.89-.296-1.125-.671-.297-.47-.297-1.125-.297-1.485zm0 0"/></symbol><symbol id="u" overflow="visible"><path d="M1.672-3.313v-1.093l-1.39.11v.312c.702 0 .78.062.78.562V-.75c0 .438-.109.438-.78.438V0c.39-.016.859-.031 1.14-.031.39 0 .86 0 1.266.031v-.313h-.22c-.734 0-.75-.109-.75-.468v-1.531c0-.985.423-1.876 1.173-1.876.062 0 .093 0 .109.016-.031 0-.234.125-.234.39 0 .266.218.423.437.423a.421.421 0 0 0 .422-.438c0-.312-.313-.61-.734-.61-.735 0-1.094.673-1.22 1.095zm0 0"/></symbol><symbol id="v" overflow="visible"><path d="M1.719-3.984h1.437v-.313H1.72v-1.828h-.25c0 .813-.297 1.875-1.282 1.922v.219h.844v2.75c0 1.218.938 1.343 1.297 1.343.703 0 .985-.703.985-1.343v-.563h-.25v.547c0 .734-.297 1.11-.672 1.11-.672 0-.672-.907-.672-1.079zm0 0"/></symbol><symbol id="w" overflow="visible"><path d="M2.078-1.938c.219.047 1.031.204 1.031.922 0 .5-.343.907-1.125.907-.843 0-1.203-.563-1.39-1.422-.031-.125-.031-.157-.14-.157-.126 0-.126.063-.126.235v1.328c0 .172 0 .234.11.234C.483.11.5.094.688-.094.703-.109.703-.125.89-.312c.437.406.89.421 1.093.421 1.141 0 1.61-.671 1.61-1.39 0-.516-.297-.828-.422-.938-.328-.328-.719-.406-1.14-.484-.563-.11-1.22-.235-1.22-.813 0-.359.25-.765 1.11-.765 1.094 0 1.156.906 1.172 1.203 0 .094.094.094.11.094.14 0 .14-.047.14-.235v-1.015c0-.157 0-.235-.11-.235-.046 0-.078 0-.203.125-.031.032-.125.125-.172.157-.375-.282-.78-.282-.937-.282-1.219 0-1.594.672-1.594 1.235 0 .343.156.625.422.843.328.25.61.313 1.328.454zm0 0"/></symbol><symbol id="x" overflow="visible"><path d="M3.313-.75c.046.39.312.813.78.813.22 0 .829-.141.829-.954v-.562h-.25v.562c0 .579-.25.641-.36.641-.328 0-.375-.453-.375-.5v-1.984c0-.422 0-.813-.359-1.188-.39-.39-.89-.547-1.36-.547-.827 0-1.515.469-1.515 1.125 0 .297.203.469.469.469a.435.435 0 0 0 .453-.453c0-.125-.047-.453-.516-.453.282-.36.766-.469 1.079-.469.5 0 1.062.39 1.062 1.281v.36c-.516.03-1.203.062-1.828.359-.75.344-1 .86-1 1.297 0 .812.969 1.062 1.594 1.062.656 0 1.109-.406 1.296-.859zM3.25-2.39v1c0 .937-.719 1.28-1.172 1.28-.484 0-.89-.343-.89-.843 0-.547.421-1.375 2.062-1.438zm0 0"/></symbol><symbol id="y" overflow="visible"><path d="M1.719-3.766v-3.156l-1.438.11v.312c.703 0 .781.063.781.563V0h.25c0-.016.079-.156.36-.625.14.234.562.734 1.297.734 1.187 0 2.219-.984 2.219-2.265 0-1.266-.97-2.25-2.11-2.25-.781 0-1.203.468-1.36.64zM1.75-1.14v-2.046c0-.188 0-.204.11-.36.39-.562.937-.64 1.171-.64.453 0 .813.265 1.047.64.266.406.281.969.281 1.39 0 .36-.015.954-.296 1.407-.22.313-.594.64-1.125.64-.454 0-.813-.234-1.047-.609-.141-.203-.141-.234-.141-.422zm0 0"/></symbol><symbol id="z" overflow="visible"><path d="M1.094-3.422V-.75c0 .438-.11.438-.782.438V0c.36-.016.86-.031 1.141-.031.25 0 .766.015 1.11.031v-.313c-.672 0-.782 0-.782-.437v-1.844c0-1.031.719-1.594 1.344-1.594.64 0 .75.532.75 1.11V-.75c0 .438-.11.438-.781.438V0c.344-.016.86-.031 1.125-.031.25 0 .781.015 1.11.031v-.313c-.516 0-.766 0-.766-.296v-1.907c0-.859 0-1.156-.313-1.515-.14-.172-.469-.375-1.047-.375-.734 0-1.203.422-1.484 1.047v-1.047l-1.407.11v.312c.704 0 .782.062.782.562zm0 0"/></symbol><symbol id="A" overflow="visible"><path d="M3.781-.547V.11L5.25 0v-.313c-.688 0-.781-.062-.781-.562v-6.047l-1.422.11v.312c.687 0 .765.063.765.563v2.156a1.582 1.582 0 0 0-1.25-.625c-1.171 0-2.218.984-2.218 2.265 0 1.266.969 2.25 2.11 2.25.64 0 1.077-.343 1.327-.656zm0-2.672v2.047c0 .172 0 .188-.11.36-.296.484-.733.703-1.171.703-.453 0-.813-.266-1.047-.641-.25-.406-.281-.969-.281-1.39 0-.36.016-.954.297-1.407.218-.312.593-.64 1.14-.64.344 0 .766.156 1.063.593.11.172.11.188.11.375zm0 0"/></symbol><symbol id="B" overflow="visible"><path d="M1.266-.766l1.062-1.03c1.547-1.376 2.14-1.907 2.14-2.907 0-1.14-.89-1.938-2.109-1.938C1.234-6.64.5-5.719.5-4.828c0 .547.5.547.531.547.172 0 .516-.11.516-.532a.513.513 0 0 0-.531-.515c-.079 0-.094 0-.125.016.218-.657.765-1.016 1.343-1.016.907 0 1.329.812 1.329 1.625 0 .797-.485 1.578-1.047 2.203L.609-.375C.5-.265.5-.235.5 0h3.703l.266-1.734h-.235C4.172-1.438 4.11-1 4-.844c-.063.078-.719.078-.938.078zm0 0"/></symbol></defs><use y="134.765" x="223.432" xlink:href="#p" width="1052.362" height="744.094"/><use y="134.765" x="228.967" xlink:href="#q" width="1052.362" height="744.094"/><use y="134.765" x="231.735" xlink:href="#r" width="1052.362" height="744.094"/><g><use y="134.765" x="235.883" xlink:href="#s" width="1052.362" height="744.094"/><use y="134.765" x="241.418" xlink:href="#t" width="1052.362" height="744.094"/><use y="134.765" x="245.846" xlink:href="#u" width="1052.362" height="744.094"/><use y="134.765" x="249.748" xlink:href="#s" width="1052.362" height="744.094"/><use y="134.765" x="255.283" xlink:href="#t" width="1052.362" height="744.094"/><use y="134.765" x="259.711" xlink:href="#q" width="1052.362" height="744.094"/><use y="134.765" x="262.478" xlink:href="#v" width="1052.362" height="744.094"/><use y="134.765" x="266.353" xlink:href="#w" width="1052.362" height="744.094"/><use y="134.765" x="270.282" xlink:href="#x" width="1052.362" height="744.094"/><use y="134.765" x="275.263" xlink:href="#y" width="1052.362" height="744.094"/><use y="134.765" x="280.799" xlink:href="#w" width="1052.362" height="744.094"/><use y="134.765" x="284.728" xlink:href="#v" width="1052.362" height="744.094"/><use y="134.765" x="288.602" xlink:href="#x" width="1052.362" height="744.094"/><use y="134.765" x="293.584" xlink:href="#z" width="1052.362" height="744.094"/><use y="134.765" x="299.119" xlink:href="#A" width="1052.362" height="744.094"/></g><g><use y="134.765" x="307.972" xlink:href="#B" width="1052.362" height="744.094"/></g></g><path d="M210.15 760.797h632.062" fill="none" stroke="#000" stroke-width="3" marker-start="url(#a)" marker-end="url(#b)"/><g transform="translate(-328.968 513.056) scale(2.16288)" ns0:preamble="/home/waldgeist/data/sphinx/test.tex" ns0:text="\\centering \\&quot;Uberholweg \\\\ (gesamt)"><defs><symbol id="C" overflow="visible"><path d="M2.031-6.172c0-.234-.203-.5-.5-.5-.281 0-.5.219-.5.5s.219.5.5.5c.297 0 .5-.266.5-.5zm1.922 0c0-.281-.219-.5-.5-.5-.297 0-.5.266-.5.5 0 .234.203.5.5.5.281 0 .5-.219.5-.5zm0 0"/></symbol><symbol id="D" overflow="visible"><path d="M5.797-2.297c0 1.406-.969 2.203-1.906 2.203-.47 0-1.641-.25-1.641-2.14v-3.797c0-.36.016-.469.781-.469h.235v-.313c-.344.032-1.079.032-1.47.032-.374 0-1.124 0-1.468-.032v.313h.234c.766 0 .797.11.797.469v3.765C1.36-.875 2.516.22 3.875.22c1.14 0 2.031-.922 2.203-2.063.031-.203.031-.297.031-.687V-5.72c0-.328 0-.781 1.032-.781v-.313c-.36.016-.844.032-1.172.032-.36 0-.828-.016-1.188-.032v.313c1.016 0 1.016.469 1.016.734zm0 0"/></symbol><symbol id="E" overflow="visible"><path d="M1.719-3.766v-3.156l-1.438.11v.312c.703 0 .781.063.781.563V0h.25c0-.016.079-.156.36-.625.14.234.562.734 1.297.734 1.187 0 2.219-.984 2.219-2.265 0-1.266-.97-2.25-2.11-2.25-.781 0-1.203.468-1.36.64zM1.75-1.14v-2.046c0-.188 0-.204.11-.36.39-.562.937-.64 1.171-.64.453 0 .813.265 1.047.64.266.406.281.969.281 1.39 0 .36-.015.954-.296 1.407-.22.313-.594.64-1.125.64-.454 0-.813-.234-1.047-.609-.141-.203-.141-.234-.141-.422zm0 0"/></symbol><symbol id="F" overflow="visible"><path d="M1.11-2.516C1.171-4 2.015-4.25 2.36-4.25c1.015 0 1.124 1.344 1.124 1.734zm0 .22h2.78c.22 0 .25 0 .25-.22 0-.984-.546-1.953-1.78-1.953C1.202-4.469.28-3.437.28-2.187.281-.86 1.328.108 2.47.108 3.688.11 4.14-1 4.14-1.187c0-.094-.079-.125-.141-.125-.078 0-.11.062-.125.14C3.531-.14 2.625-.14 2.531-.14c-.5 0-.89-.296-1.125-.671-.297-.47-.297-1.125-.297-1.485zm0 0"/></symbol><symbol id="G" overflow="visible"><path d="M1.672-3.313v-1.093l-1.39.11v.312c.702 0 .78.062.78.562V-.75c0 .438-.109.438-.78.438V0c.39-.016.859-.031 1.14-.031.39 0 .86 0 1.266.031v-.313h-.22c-.734 0-.75-.109-.75-.468v-1.531c0-.985.423-1.876 1.173-1.876.062 0 .093 0 .109.016-.031 0-.234.125-.234.39 0 .266.218.423.437.423a.421.421 0 0 0 .422-.438c0-.312-.313-.61-.734-.61-.735 0-1.094.673-1.22 1.095zm0 0"/></symbol><symbol id="H" overflow="visible"><path d="M1.094-.75c0 .438-.11.438-.782.438V0c.36-.016.86-.031 1.141-.031.25 0 .766.015 1.11.031v-.313c-.672 0-.782 0-.782-.437v-1.844c0-1.031.719-1.594 1.344-1.594.64 0 .75.532.75 1.11V-.75c0 .438-.11.438-.781.438V0c.344-.016.86-.031 1.125-.031.25 0 .781.015 1.11.031v-.313c-.516 0-.766 0-.766-.296v-1.907c0-.859 0-1.156-.313-1.515-.14-.172-.469-.375-1.047-.375-.844 0-1.281.593-1.453.984v-3.5l-1.438.11v.312c.704 0 .782.063.782.563zm0 0"/></symbol><symbol id="I" overflow="visible"><path d="M4.688-2.14c0-1.266-.985-2.329-2.188-2.329C1.25-4.469.281-3.375.281-2.14A2.22 2.22 0 0 0 2.484.11c1.204 0 2.204-.984 2.204-2.25zM2.5-.14c-.438 0-.875-.204-1.14-.672-.25-.438-.25-1.047-.25-1.407 0-.39 0-.922.234-1.36a1.347 1.347 0 0 1 1.14-.671c.438 0 .86.219 1.125.656.266.422.266 1 .266 1.375 0 .36 0 .906-.219 1.344-.234.453-.672.734-1.156.734zm0 0"/></symbol><symbol id="J" overflow="visible"><path d="M1.766-6.922l-1.438.11v.312c.703 0 .781.063.781.563V-.75c0 .438-.109.438-.78.438V0c.327-.016.859-.031 1.109-.031s.734.015 1.109.031v-.313c-.672 0-.781 0-.781-.437zm0 0"/></symbol><symbol id="K" overflow="visible"><path d="M6.172-3.344c.172-.5.484-.64.844-.64v-.313c-.235.016-.516.031-.735.031-.297 0-.734-.015-.922-.03v.312c.36 0 .579.187.579.468 0 .063 0 .094-.063.22L4.969-.75l-.985-2.781c-.03-.125-.046-.14-.046-.188 0-.265.39-.265.593-.265v-.313c-.297.016-.797.031-1.047.031-.296 0-.578-.015-.875-.03v.312c.36 0 .516.015.625.14.047.063.157.36.22.547L2.608-.875l-.953-2.656c-.047-.125-.047-.14-.047-.188 0-.265.391-.265.579-.265v-.313c-.297.016-.86.031-1.079.031-.046 0-.578-.015-.937-.03v.312c.5 0 .625.03.75.343l1.25 3.532c.047.14.078.218.203.218.14 0 .156-.062.203-.203l1.016-2.812L4.609-.078c.032.11.063.187.204.187.125 0 .156-.093.187-.187zm0 0"/></symbol><symbol id="L" overflow="visible"><path d="M2.219-1.719c-.875 0-.875-1-.875-1.218 0-.266.015-.594.156-.844.078-.11.313-.39.719-.39.86 0 .86.984.86 1.218 0 .265 0 .594-.157.844-.078.109-.313.39-.703.39zm-1.156.39c0-.03 0-.265.156-.468.39.281.812.313 1 .313.922 0 1.61-.688 1.61-1.454 0-.374-.157-.734-.407-.968.36-.344.719-.39.89-.39.032 0 .079 0 .11.015-.11.031-.172.14-.172.265 0 .172.14.282.297.282a.28.28 0 0 0 .281-.297c0-.172-.11-.485-.5-.485-.203 0-.64.063-1.062.47a1.652 1.652 0 0 0-1.047-.36c-.938 0-1.625.687-1.625 1.453 0 .437.219.812.469 1.031-.125.14-.313.469-.313.828 0 .313.14.688.453.89-.61.157-.922.595-.922.985 0 .719.985 1.266 2.203 1.266 1.172 0 2.204-.5 2.204-1.281 0-.344-.125-.86-.641-1.141-.531-.266-1.11-.266-1.719-.266-.25 0-.672 0-.75-.015-.312-.047-.516-.344-.516-.672zM2.5 1.829C1.484 1.828.797 1.312.797.781c0-.453.375-.828.812-.844h.594c.86 0 1.969 0 1.969.844 0 .547-.703 1.047-1.672 1.047zm0 0"/></symbol><symbol id="M" overflow="visible"><path d="M3.297 2.39c0-.03 0-.046-.172-.218C1.891.922 1.562-.968 1.562-2.5c0-1.734.375-3.469 1.61-4.703.125-.125.125-.14.125-.172 0-.078-.031-.11-.094-.11-.11 0-1 .688-1.594 1.954C1.11-4.438.984-3.328.984-2.5c0 .781.11 1.984.657 3.125C2.25 1.844 3.094 2.5 3.203 2.5c.063 0 .094-.031.094-.11zm0 0"/></symbol><symbol id="N" overflow="visible"><path d="M2.078-1.938c.219.047 1.031.204 1.031.922 0 .5-.343.907-1.125.907-.843 0-1.203-.563-1.39-1.422-.031-.125-.031-.157-.14-.157-.126 0-.126.063-.126.235v1.328c0 .172 0 .234.11.234C.483.11.5.094.688-.094.703-.109.703-.125.89-.312c.437.406.89.421 1.093.421 1.141 0 1.61-.671 1.61-1.39 0-.516-.297-.828-.422-.938-.328-.328-.719-.406-1.14-.484-.563-.11-1.22-.235-1.22-.813 0-.359.25-.765 1.11-.765 1.094 0 1.156.906 1.172 1.203 0 .094.094.094.11.094.14 0 .14-.047.14-.235v-1.015c0-.157 0-.235-.11-.235-.046 0-.078 0-.203.125-.031.032-.125.125-.172.157-.375-.282-.78-.282-.937-.282-1.219 0-1.594.672-1.594 1.235 0 .343.156.625.422.843.328.25.61.313 1.328.454zm0 0"/></symbol><symbol id="O" overflow="visible"><path d="M3.313-.75c.046.39.312.813.78.813.22 0 .829-.141.829-.954v-.562h-.25v.562c0 .579-.25.641-.36.641-.328 0-.375-.453-.375-.5v-1.984c0-.422 0-.813-.359-1.188-.39-.39-.89-.547-1.36-.547-.827 0-1.515.469-1.515 1.125 0 .297.203.469.469.469a.435.435 0 0 0 .453-.453c0-.125-.047-.453-.516-.453.282-.36.766-.469 1.079-.469.5 0 1.062.39 1.062 1.281v.36c-.516.03-1.203.062-1.828.359-.75.344-1 .86-1 1.297 0 .812.969 1.062 1.594 1.062.656 0 1.109-.406 1.296-.859zM3.25-2.39v1c0 .937-.719 1.28-1.172 1.28-.484 0-.89-.343-.89-.843 0-.547.421-1.375 2.062-1.438zm0 0"/></symbol><symbol id="P" overflow="visible"><path d="M1.094-3.422V-.75c0 .438-.11.438-.782.438V0c.36-.016.86-.031 1.141-.031.25 0 .766.015 1.11.031v-.313c-.672 0-.782 0-.782-.437v-1.844c0-1.031.719-1.594 1.344-1.594.64 0 .75.532.75 1.11V-.75c0 .438-.11.438-.781.438V0c.344-.016.86-.031 1.125-.031.25 0 .781.015 1.11.031v-.313c-.657 0-.766 0-.766-.437v-1.844c0-1.031.703-1.594 1.343-1.594.625 0 .735.532.735 1.11V-.75c0 .438-.11.438-.782.438V0c.344-.016.86-.031 1.125-.031.266 0 .782.015 1.125.031v-.313c-.515 0-.765 0-.78-.296v-1.907c0-.859 0-1.156-.313-1.515-.141-.172-.47-.375-1.047-.375-.828 0-1.282.593-1.438.984-.14-.875-.875-.984-1.328-.984-.734 0-1.203.422-1.484 1.047v-1.047l-1.407.11v.312c.704 0 .782.062.782.562zm0 0"/></symbol><symbol id="Q" overflow="visible"><path d="M1.719-3.984h1.437v-.313H1.72v-1.828h-.25c0 .813-.297 1.875-1.282 1.922v.219h.844v2.75c0 1.218.938 1.343 1.297 1.343.703 0 .985-.703.985-1.343v-.563h-.25v.547c0 .734-.297 1.11-.672 1.11-.672 0-.672-.907-.672-1.079zm0 0"/></symbol><symbol id="R" overflow="visible"><path d="M2.875-2.5c0-.766-.11-1.969-.656-3.11C1.625-6.827.766-7.483.672-7.483a.107.107 0 0 0-.11.109c0 .031 0 .047.188.234.984.985 1.547 2.563 1.547 4.641 0 1.719-.36 3.469-1.594 4.719-.14.125-.14.14-.14.172 0 .062.046.109.109.109.094 0 1-.688 1.578-1.953.516-1.094.625-2.203.625-3.047zm0 0"/></symbol></defs><use y="132.246" x="370.921" xlink:href="#C" width="1052.362" height="744.094"/><use y="134.765" x="369.675" xlink:href="#D" width="1052.362" height="744.094"/><use y="134.765" x="377.147" xlink:href="#E" width="1052.362" height="744.094"/><use y="134.765" x="382.961" xlink:href="#F" width="1052.362" height="744.094"/><use y="134.765" x="387.388" xlink:href="#G" width="1052.362" height="744.094"/><use y="134.765" x="391.291" xlink:href="#H" width="1052.362" height="744.094"/><use y="134.765" x="396.826" xlink:href="#I" width="1052.362" height="744.094"/><use y="134.765" x="401.807" xlink:href="#J" width="1052.362" height="744.094"/><use y="134.765" x="404.575" xlink:href="#K" width="1052.362" height="744.094"/><g><use y="134.765" x="411.491" xlink:href="#F" width="1052.362" height="744.094"/><use y="134.765" x="415.918" xlink:href="#L" width="1052.362" height="744.094"/></g><g><use y="146.72" x="376.303" xlink:href="#M" width="1052.362" height="744.094"/><use y="146.72" x="380.177" xlink:href="#L" width="1052.362" height="744.094"/><use y="146.72" x="385.159" xlink:href="#F" width="1052.362" height="744.094"/><use y="146.72" x="389.586" xlink:href="#N" width="1052.362" height="744.094"/><use y="146.72" x="393.515" xlink:href="#O" width="1052.362" height="744.094"/><use y="146.72" x="398.497" xlink:href="#P" width="1052.362" height="744.094"/></g><g><use y="146.72" x="406.52" xlink:href="#Q" width="1052.362" height="744.094"/><use y="146.72" x="410.394" xlink:href="#R" width="1052.362" height="744.094"/></g></g></g></svg>