<svg xmlns:ns0="http://www.iki.fi/pav/software/textext/" xmlns="http://www.w3.org/2000/svg" xmlns:xlink="http://www.w3.org/1999/xlink" width="1052.362" height="744.094"><title>Winkelgeschwindigkeit</title><defs><marker orient="auto" id="a" overflow="visible"><path d="M8.719 4.034L-2.207.016 8.719-4.002c-1.746 2.372-1.736 5.618 0 8.036z" transform="scale(-.6)" fill-rule="evenodd" stroke-width=".625" stroke-linejoin="round"/></marker></defs><path style="marker:none" color="#000" fill="#fff" stroke="#fff" stroke-width="2" stroke-linecap="round" stroke-linejoin="round" overflow="visible" d="M99.091 112.547h854.181v519H99.091z"/><path d="M302.234 443.585v162.366" fill="none" stroke="gray" stroke-width="2" stroke-linecap="round" stroke-linejoin="round" stroke-dasharray="2,6"/><path d="M450.234 415.585c0 40.87-66.262 74-148 74s-148-33.13-148-74c0-40.869 66.262-74 148-74s148 33.131 148 74z" style="marker:none" color="#000" fill="#b3b3b3" stroke="#333" stroke-width="2" stroke-linejoin="round" overflow="visible"/><path d="M154.234 415.585s-.42-48.236 0-48h296v48" fill="#b3b3b3" stroke="#333" stroke-width="2"/><path style="marker:none" d="M450.234 367.585c0 40.87-66.262 74-148 74s-148-33.13-148-74c0-40.869 66.262-74 148-74s148 33.131 148 74z" color="#000" fill="#b3b3b3" stroke="#333" stroke-width="2" stroke-linejoin="round" overflow="visible"/><path d="M302.234 177.219v190.366" fill="none" stroke="gray" stroke-width="2" stroke-linecap="round" stroke-linejoin="round" stroke-dasharray="2,6"/><path d="M302.311 679.15V503.186" fill="none" stroke="#00f" stroke-width="4" stroke-linecap="round" stroke-linejoin="round" marker-end="url(#a)" transform="translate(0 -308.268)"/><path transform="matrix(.52409 0 0 -.52409 114.533 580.404)" d="M441.241 343.176c67.584 22.987 85.104 69.015 39.131 102.807-8.709 6.401-19.373 12.08-31.602 16.828" style="marker:none" color="#000" fill="#b3b3b3" stroke="#00f" stroke-width="3.816" stroke-linejoin="round" marker-end="url(#a)" overflow="visible"/><g transform="matrix(4.65875 0 0 4.65875 -649.678 -250.4)" ns0:preamble="/home/waldgeist/data/sphinx/inkscape-preamble.tex" ns0:text="$\\vec{v}$" fill="#00f" stroke="#00f"><defs><symbol id="b" overflow="visible"><path d="M5.36-5.938c-.141.141-.47.422-.47.594 0 .094.094.203.188.203s.14-.078.203-.14c.11-.14.344-.422.782-.64.062-.048.171-.095.171-.204 0-.11-.078-.156-.14-.203a1.034 1.034 0 0 1-.407-.563c-.03-.093-.062-.234-.203-.234-.14 0-.203.14-.203.219 0 .047.078.36.235.578h-3.36c-.156 0-.344 0-.344.203 0 .188.188.188.344.188zm0 0" stroke="none"/></symbol><symbol id="c" overflow="visible"><path d="M4.672-3.703c0-.547-.266-.703-.438-.703-.25 0-.5.265-.5.484 0 .125.047.188.157.297.218.203.343.453.343.813 0 .421-.609 2.703-1.765 2.703-.516 0-.75-.344-.75-.875 0-.547.281-1.282.578-2.11.078-.172.125-.312.125-.5 0-.437-.313-.812-.813-.812-.937 0-1.312 1.453-1.312 1.531 0 .11.094.11.11.11.109 0 .109-.032.156-.188.296-1 .718-1.235 1.015-1.235.078 0 .25 0 .25.313 0 .25-.11.531-.172.703-.437 1.156-.562 1.61-.562 2.047 0 1.078.875 1.234 1.328 1.234 1.672 0 2.25-3.296 2.25-3.812zm0 0" stroke="none"/></symbol></defs><use y="134.765" x="223.045" xlink:href="#b" width="744.094" height="1052.362"/><use y="134.765" x="223.434" xlink:href="#c" width="744.094" height="1052.362"/></g><path d="M751.243 443.585v162.366" fill="none" stroke="gray" stroke-width="2" stroke-linecap="round" stroke-linejoin="round" stroke-dasharray="2,6"/><path d="M751.243 717.853V893.82" fill="none" stroke="#00f" stroke-width="4" stroke-linecap="round" stroke-linejoin="round" marker-end="url(#a)" transform="translate(0 -308.268)"/><path style="marker:none" d="M899.243 415.585c0 40.87-66.261 74-148 74-81.738 0-148-33.13-148-74 0-40.869 66.262-74 148-74 81.739 0 148 33.131 148 74z" color="#000" fill="#b3b3b3" stroke="#333" stroke-width="2" stroke-linejoin="round" overflow="visible"/><path d="M603.243 415.585s-.42-48.236 0-48h296v48" fill="#b3b3b3" stroke="#333" stroke-width="2"/><path d="M899.243 367.585c0 40.87-66.261 74-148 74-81.738 0-148-33.13-148-74 0-40.869 66.262-74 148-74 81.739 0 148 33.131 148 74z" style="marker:none" color="#000" fill="#b3b3b3" stroke="#333" stroke-width="2" stroke-linejoin="round" overflow="visible"/><path d="M751.243 177.219v190.366" fill="none" stroke="gray" stroke-width="2" stroke-linecap="round" stroke-linejoin="round" stroke-dasharray="2,6"/><path style="marker:none" d="M441.241 343.176c67.584 22.987 85.104 69.015 39.131 102.807-8.709 6.401-19.373 12.08-31.602 16.828" transform="translate(563.543 157.994) scale(.52409)" color="#000" fill="#b3b3b3" stroke="#00f" stroke-width="3.816" stroke-linejoin="round" marker-end="url(#a)" overflow="visible"/><g ns0:text="$\\vec{v}$" ns0:preamble="/home/waldgeist/data/sphinx/inkscape-preamble.tex" fill="#00f" stroke="#00f"><use height="1052.362" width="744.094" xlink:href="#b" x="223.045" y="134.765" transform="matrix(4.65875 0 0 4.65875 -200.669 -250.4)"/><use height="1052.362" width="744.094" xlink:href="#c" x="223.434" y="134.765" transform="matrix(4.65875 0 0 4.65875 -200.669 -250.4)"/></g><g ns0:text="$\\vec{\\omega} &lt; 0$" ns0:preamble="/home/waldgeist/data/sphinx/inkscape-preamble.tex" transform="matrix(4.65875 0 0 4.65875 -346.852 16.713)" fill="#00f"><defs><symbol overflow="visible" id="d"><path d="M5.36-5.938c-.141.141-.47.422-.47.594 0 .094.094.203.188.203s.14-.078.203-.14c.11-.14.344-.422.782-.64.062-.048.171-.095.171-.204 0-.11-.078-.156-.14-.203a1.034 1.034 0 0 1-.407-.563c-.03-.093-.062-.234-.203-.234-.14 0-.203.14-.203.219 0 .047.078.36.235.578h-3.36c-.156 0-.344 0-.344.203 0 .188.188.188.344.188zm0 0"/></symbol><symbol overflow="visible" id="e"><path d="M6.031-3.703c0-.453-.172-.703-.406-.703-.25 0-.516.234-.516.468 0 .094.047.204.141.297.172.157.36.422.36.844 0 .39-.204.969-.5 1.422-.298.422-.673.766-1.141.766-.563 0-.875-.36-.969-.891.11-.266.344-.906.344-1.188 0-.109-.047-.218-.188-.218-.078 0-.187.031-.265.172-.11.203-.235.843-.235 1.203-.328.468-.719.922-1.344.922-.671 0-.875-.594-.875-1.141 0-1.25 1.016-2.297 1.016-2.422a.18.18 0 0 0-.187-.187c-.125 0-.204.125-.266.218-.5.735-.875 1.922-.875 2.829C.125-.625.344.109 1.172.109c.703 0 1.172-.5 1.531-1.046.094.578.485 1.046 1.094 1.046.781 0 1.25-.609 1.61-1.359.25-.484.624-1.844.624-2.453zm0 0"/></symbol><symbol overflow="visible" id="f"><path d="M6.734-4.969c.11-.062.188-.11.188-.218a.207.207 0 0 0-.203-.204c-.032 0-.047 0-.172.079L1.016-2.72c-.11.063-.188.11-.188.219 0 .125.078.172.188.234L6.546.328c.126.078.141.078.173.078.11 0 .203-.094.203-.203 0-.11-.078-.156-.188-.219L1.5-2.5zm0 0"/></symbol><symbol overflow="visible" id="g"><path d="M4.578-3.188c0-.796-.047-1.593-.39-2.328C3.733-6.484 2.905-6.64 2.5-6.64c-.61 0-1.328.266-1.75 1.188-.313.687-.36 1.469-.36 2.266 0 .75.032 1.64.454 2.406a1.83 1.83 0 0 0 1.64 1c.532 0 1.297-.203 1.735-1.157.312-.687.36-1.468.36-2.25zM2.484 0c-.39 0-.984-.25-1.156-1.203-.11-.594-.11-1.516-.11-2.11 0-.64 0-1.296.079-1.828.187-1.187.937-1.28 1.187-1.28.329 0 .985.187 1.172 1.171.11.563.11 1.313.11 1.938 0 .75 0 1.421-.11 2.062C3.5-.297 2.937 0 2.484 0zm0 0"/></symbol></defs><use height="744.094" width="1052.362" xlink:href="#d" x="223.455" y="134.765"/><use height="744.094" width="1052.362" xlink:href="#e" x="223.435" y="134.765"/><use height="744.094" width="1052.362" xlink:href="#f" x="232.755" y="134.765"/><use height="744.094" width="1052.362" xlink:href="#g" x="243.274" y="134.765"/></g><g transform="matrix(4.65875 0 0 4.65875 -795.861 -457.5)" ns0:preamble="/home/waldgeist/data/sphinx/inkscape-preamble.tex" ns0:text="$\\vec{\\omega} &gt; 0$" fill="#00f"><defs><symbol id="h" overflow="visible"><path d="M5.36-5.938c-.141.141-.47.422-.47.594 0 .094.094.203.188.203s.14-.078.203-.14c.11-.14.344-.422.782-.64.062-.048.171-.095.171-.204 0-.11-.078-.156-.14-.203a1.034 1.034 0 0 1-.407-.563c-.03-.093-.062-.234-.203-.234-.14 0-.203.14-.203.219 0 .047.078.36.235.578h-3.36c-.156 0-.344 0-.344.203 0 .188.188.188.344.188zm0 0"/></symbol><symbol id="i" overflow="visible"><path d="M6.031-3.703c0-.453-.172-.703-.406-.703-.25 0-.516.234-.516.468 0 .094.047.204.141.297.172.157.36.422.36.844 0 .39-.204.969-.5 1.422-.298.422-.673.766-1.141.766-.563 0-.875-.36-.969-.891.11-.266.344-.906.344-1.188 0-.109-.047-.218-.188-.218-.078 0-.187.031-.265.172-.11.203-.235.843-.235 1.203-.328.468-.719.922-1.344.922-.671 0-.875-.594-.875-1.141 0-1.25 1.016-2.297 1.016-2.422a.18.18 0 0 0-.187-.187c-.125 0-.204.125-.266.218-.5.735-.875 1.922-.875 2.829C.125-.625.344.109 1.172.109c.703 0 1.172-.5 1.531-1.046.094.578.485 1.046 1.094 1.046.781 0 1.25-.609 1.61-1.359.25-.484.624-1.844.624-2.453zm0 0"/></symbol><symbol id="j" overflow="visible"><path d="M6.734-2.266c.11-.062.188-.109.188-.234 0-.11-.078-.156-.188-.219l-5.53-2.594c-.126-.078-.141-.078-.173-.078a.207.207 0 0 0-.203.204c0 .093.047.156.188.218L6.25-2.5 1.016-.016C.875.047.828.11.828.204c0 .109.094.202.203.202.032 0 .047 0 .172-.078zm0 0"/></symbol><symbol id="k" overflow="visible"><path d="M4.578-3.188c0-.796-.047-1.593-.39-2.328C3.733-6.484 2.905-6.64 2.5-6.64c-.61 0-1.328.266-1.75 1.188-.313.687-.36 1.469-.36 2.266 0 .75.032 1.64.454 2.406a1.83 1.83 0 0 0 1.64 1c.532 0 1.297-.203 1.735-1.157.312-.687.36-1.468.36-2.25zM2.484 0c-.39 0-.984-.25-1.156-1.203-.11-.594-.11-1.516-.11-2.11 0-.64 0-1.296.079-1.828.187-1.187.937-1.28 1.187-1.28.329 0 .985.187 1.172 1.171.11.563.11 1.313.11 1.938 0 .75 0 1.421-.11 2.062C3.5-.297 2.937 0 2.484 0zm0 0"/></symbol></defs><use y="134.765" x="223.455" xlink:href="#h" width="1052.362" height="744.094"/><use y="134.765" x="223.435" xlink:href="#i" width="1052.362" height="744.094"/><use y="134.765" x="232.755" xlink:href="#j" width="1052.362" height="744.094"/><use y="134.765" x="243.274" xlink:href="#k" width="1052.362" height="744.094"/></g></svg>