<svg xmlns:ns0="http://www.iki.fi/pav/software/textext/" xmlns="http://www.w3.org/2000/svg" xmlns:xlink="http://www.w3.org/1999/xlink" width="1052.362" height="744.094"><title>Winkelbeschleunigung</title><defs><marker orient="auto" id="a" overflow="visible"><path d="M8.719 4.034L-2.207.016 8.719-4.002c-1.746 2.372-1.736 5.618 0 8.036z" transform="scale(-.6)" fill-rule="evenodd" stroke-width=".625" stroke-linejoin="round"/></marker></defs><path style="marker:none" color="#000" fill="#fff" stroke="#fff" stroke-width="2" stroke-linecap="round" stroke-linejoin="round" overflow="visible" d="M98.091 89.92h856.181v564.255H98.091z"/><path d="M302.14 424.048v162.366" fill="none" stroke="gray" stroke-width="2" stroke-linecap="round" stroke-linejoin="round" stroke-dasharray="2,6"/><path d="M450.14 396.048c0 40.869-66.261 74-148 74-81.737 0-148-33.131-148-74 0-40.87 66.263-74 148-74 81.739 0 148 33.13 148 74z" style="marker:none" color="#000" fill="#b3b3b3" stroke="#333" stroke-width="2" stroke-linejoin="round" overflow="visible"/><path d="M154.14 396.048s-.42-48.236 0-48h296v48" fill="#b3b3b3" stroke="#333" stroke-width="2"/><path style="marker:none" d="M450.14 348.048c0 40.869-66.261 74-148 74-81.737 0-148-33.131-148-74 0-40.87 66.263-74 148-74 81.739 0 148 33.13 148 74z" color="#000" fill="#b3b3b3" stroke="#333" stroke-width="2" stroke-linejoin="round" overflow="visible"/><path d="M302.14 157.681v190.367" fill="none" stroke="gray" stroke-width="2" stroke-linecap="round" stroke-linejoin="round" stroke-dasharray="2,6"/><path d="M302.218 659.613V483.647" fill="none" stroke="#d40000" stroke-width="4" stroke-linecap="round" stroke-linejoin="round" marker-end="url(#a)" transform="translate(0 -308.268)"/><path transform="matrix(.52409 0 0 -.52409 114.44 560.866)" d="M441.241 343.176c67.584 22.987 85.104 69.015 39.131 102.807-8.709 6.401-19.373 12.08-31.602 16.828" style="marker:none" color="#000" fill="#b3b3b3" stroke="#d40000" stroke-width="3.816" stroke-linejoin="round" marker-end="url(#a)" overflow="visible"/><path d="M751.15 424.048v162.366" fill="none" stroke="gray" stroke-width="2" stroke-linecap="round" stroke-linejoin="round" stroke-dasharray="2,6"/><path d="M751.15 698.315v175.966" fill="none" stroke="#d40000" stroke-width="4" stroke-linecap="round" stroke-linejoin="round" marker-end="url(#a)" transform="translate(0 -308.268)"/><path style="marker:none" d="M899.15 396.048c0 40.869-66.262 74-148 74s-148-33.131-148-74c0-40.87 66.262-74 148-74s148 33.13 148 74z" color="#000" fill="#b3b3b3" stroke="#333" stroke-width="2" stroke-linejoin="round" overflow="visible"/><path d="M603.15 396.048s-.42-48.236 0-48h296v48" fill="#b3b3b3" stroke="#333" stroke-width="2"/><path d="M899.15 348.048c0 40.869-66.262 74-148 74s-148-33.131-148-74c0-40.87 66.262-74 148-74s148 33.13 148 74z" style="marker:none" color="#000" fill="#b3b3b3" stroke="#333" stroke-width="2" stroke-linejoin="round" overflow="visible"/><path d="M751.15 157.681v190.367" fill="none" stroke="gray" stroke-width="2" stroke-linecap="round" stroke-linejoin="round" stroke-dasharray="2,6"/><g ns0:preamble="/home/waldgeist/data/sphinx/inkscape-preamble.tex" ns0:text="$\\vec{\\omega}$" fill="#00f"><use y="134.765" x="223.455" xlink:href="#textext-db156235-1" width="744.094" height="1052.362" transform="matrix(4.65875 0 0 4.65875 -302.81 -457.5)"/><use y="134.765" x="223.435" xlink:href="#textext-db156235-2" width="744.094" height="1052.362" transform="matrix(4.65875 0 0 4.65875 -302.81 -457.5)"/></g><g transform="matrix(4.65875 0 0 4.65875 -796.248 -485.5)" ns0:preamble="/home/waldgeist/data/sphinx/inkscape-preamble.tex" ns0:text="$\\vec{\\alpha} &gt; 0$" fill="#d40000" stroke="#d40000"><defs><symbol id="b" overflow="visible"><path d="M5.36-5.938c-.141.141-.47.422-.47.594 0 .094.094.203.188.203s.14-.078.203-.14c.11-.14.344-.422.782-.64.062-.048.171-.095.171-.204 0-.11-.078-.156-.14-.203a1.034 1.034 0 0 1-.407-.563c-.03-.093-.062-.234-.203-.234-.14 0-.203.14-.203.219 0 .047.078.36.235.578h-3.36c-.156 0-.344 0-.344.203 0 .188.188.188.344.188zm0 0" stroke="none"/></symbol><symbol id="c" overflow="visible"><path d="M4.75-2.36c0-1.562-.922-2.046-1.656-2.046-1.375 0-2.688 1.422-2.688 2.828C.406-.641 1 .109 2.031.109c.625 0 1.344-.234 2.094-.843.125.53.453.843.906.843.532 0 .844-.546.844-.703 0-.078-.063-.11-.125-.11-.063 0-.094.032-.125.11-.188.485-.547.485-.563.485-.312 0-.312-.782-.312-1.016 0-.203 0-.234.11-.344C5.796-2.656 6-3.812 6-3.812c0-.032-.016-.11-.125-.11-.094 0-.094.031-.14.219-.188.625-.516 1.375-.985 1.969zM4.094-.983c-.89.765-1.657.875-2.047.875-.594 0-.906-.454-.906-1.094 0-.484.265-1.563.578-2.063.468-.734 1.015-.921 1.36-.921.983 0 .983 1.312.983 2.078 0 .375 0 .953.032 1.125zm0 0" stroke="none"/></symbol><symbol id="d" overflow="visible"><path d="M6.734-2.266c.11-.062.188-.109.188-.234 0-.11-.078-.156-.188-.219l-5.53-2.594c-.126-.078-.141-.078-.173-.078a.207.207 0 0 0-.203.204c0 .093.047.156.188.218L6.25-2.5 1.016-.016C.875.047.828.11.828.204c0 .109.094.202.203.202.032 0 .047 0 .172-.078zm0 0" stroke="none"/></symbol><symbol id="e" overflow="visible"><path d="M4.578-3.188c0-.796-.047-1.593-.39-2.328C3.733-6.484 2.905-6.64 2.5-6.64c-.61 0-1.328.266-1.75 1.188-.313.687-.36 1.469-.36 2.266 0 .75.032 1.64.454 2.406a1.83 1.83 0 0 0 1.64 1c.532 0 1.297-.203 1.735-1.157.312-.687.36-1.468.36-2.25zM2.484 0c-.39 0-.984-.25-1.156-1.203-.11-.594-.11-1.516-.11-2.11 0-.64 0-1.296.079-1.828.187-1.187.937-1.28 1.187-1.28.329 0 .985.187 1.172 1.171.11.563.11 1.313.11 1.938 0 .75 0 1.421-.11 2.062C3.5-.297 2.937 0 2.484 0zm0 0" stroke="none"/></symbol></defs><use y="134.765" x="223.657" xlink:href="#b" width="1052.362" height="744.094"/><use y="134.765" x="223.428" xlink:href="#c" width="1052.362" height="744.094"/><use y="134.765" x="232.61" xlink:href="#d" width="1052.362" height="744.094"/><use y="134.765" x="243.126" xlink:href="#e" width="1052.362" height="744.094"/></g><g ns0:text="$\\vec{\\alpha} &lt; 0$" ns0:preamble="/home/waldgeist/data/sphinx/inkscape-preamble.tex" transform="matrix(4.65875 0 0 4.65875 -347.239 4.89)" fill="#d40000" stroke="#d40000"><defs><symbol overflow="visible" id="f"><path d="M5.36-5.938c-.141.141-.47.422-.47.594 0 .094.094.203.188.203s.14-.078.203-.14c.11-.14.344-.422.782-.64.062-.048.171-.095.171-.204 0-.11-.078-.156-.14-.203a1.034 1.034 0 0 1-.407-.563c-.03-.093-.062-.234-.203-.234-.14 0-.203.14-.203.219 0 .047.078.36.235.578h-3.36c-.156 0-.344 0-.344.203 0 .188.188.188.344.188zm0 0" stroke="none"/></symbol><symbol overflow="visible" id="g"><path d="M4.75-2.36c0-1.562-.922-2.046-1.656-2.046-1.375 0-2.688 1.422-2.688 2.828C.406-.641 1 .109 2.031.109c.625 0 1.344-.234 2.094-.843.125.53.453.843.906.843.532 0 .844-.546.844-.703 0-.078-.063-.11-.125-.11-.063 0-.094.032-.125.11-.188.485-.547.485-.563.485-.312 0-.312-.782-.312-1.016 0-.203 0-.234.11-.344C5.796-2.656 6-3.812 6-3.812c0-.032-.016-.11-.125-.11-.094 0-.094.031-.14.219-.188.625-.516 1.375-.985 1.969zM4.094-.983c-.89.765-1.657.875-2.047.875-.594 0-.906-.454-.906-1.094 0-.484.265-1.563.578-2.063.468-.734 1.015-.921 1.36-.921.983 0 .983 1.312.983 2.078 0 .375 0 .953.032 1.125zm0 0" stroke="none"/></symbol><symbol overflow="visible" id="h"><path d="M6.734-4.969c.11-.062.188-.11.188-.218a.207.207 0 0 0-.203-.204c-.032 0-.047 0-.172.079L1.016-2.72c-.11.063-.188.11-.188.219 0 .125.078.172.188.234L6.546.328c.126.078.141.078.173.078.11 0 .203-.094.203-.203 0-.11-.078-.156-.188-.219L1.5-2.5zm0 0" stroke="none"/></symbol><symbol overflow="visible" id="i"><path d="M4.578-3.188c0-.796-.047-1.593-.39-2.328C3.733-6.484 2.905-6.64 2.5-6.64c-.61 0-1.328.266-1.75 1.188-.313.687-.36 1.469-.36 2.266 0 .75.032 1.64.454 2.406a1.83 1.83 0 0 0 1.64 1c.532 0 1.297-.203 1.735-1.157.312-.687.36-1.468.36-2.25zM2.484 0c-.39 0-.984-.25-1.156-1.203-.11-.594-.11-1.516-.11-2.11 0-.64 0-1.296.079-1.828.187-1.187.937-1.28 1.187-1.28.329 0 .985.187 1.172 1.171.11.563.11 1.313.11 1.938 0 .75 0 1.421-.11 2.062C3.5-.297 2.937 0 2.484 0zm0 0" stroke="none"/></symbol></defs><use height="744.094" width="1052.362" xlink:href="#f" x="223.657" y="134.765"/><use height="744.094" width="1052.362" xlink:href="#g" x="223.428" y="134.765"/><use height="744.094" width="1052.362" xlink:href="#h" x="232.61" y="134.765"/><use height="744.094" width="1052.362" xlink:href="#i" x="243.126" y="134.765"/></g><path style="marker:none" d="M441.241 343.176c67.584 22.987 85.104 69.015 39.131 102.807-8.709 6.401-19.373 12.08-31.602 16.828" transform="translate(563.45 138.456) scale(.52409)" color="#000" fill="#b3b3b3" stroke="#d40000" stroke-width="3.816" stroke-linejoin="round" marker-end="url(#a)" overflow="visible"/><g transform="matrix(4.65875 0 0 4.65875 -653.105 -269.246)" ns0:preamble="/home/waldgeist/data/sphinx/inkscape-preamble.tex" ns0:text="$\\vec{a}$" fill="#d40000" stroke="#d40000"><defs><symbol id="j" overflow="visible"><path d="M5.36-5.938c-.141.141-.47.422-.47.594 0 .094.094.203.188.203s.14-.078.203-.14c.11-.14.344-.422.782-.64.062-.048.171-.095.171-.204 0-.11-.078-.156-.14-.203a1.034 1.034 0 0 1-.407-.563c-.03-.093-.062-.234-.203-.234-.14 0-.203.14-.203.219 0 .047.078.36.235.578h-3.36c-.156 0-.344 0-.344.203 0 .188.188.188.344.188zm0 0" stroke="none"/></symbol><symbol id="k" overflow="visible"><path d="M3.719-3.766c-.188-.375-.469-.64-.922-.64-1.156 0-2.39 1.468-2.39 2.922C.406-.547.952.109 1.718.109c.203 0 .703-.046 1.297-.75a.91.91 0 0 0 .906.75c.36 0 .578-.234.75-.546a6.49 6.49 0 0 0 .297-.985c0-.11-.094-.11-.125-.11-.094 0-.11.048-.14.188-.173.64-.345 1.235-.75 1.235-.282 0-.298-.266-.298-.454 0-.218.016-.312.125-.75.11-.406.125-.515.219-.89l.36-1.39c.062-.282.062-.298.062-.345 0-.171-.11-.265-.281-.265-.25 0-.391.219-.422.437zm-.64 2.579c-.063.187-.063.203-.204.375-.438.546-.844.703-1.125.703-.5 0-.64-.547-.64-.938 0-.5.312-1.719.546-2.187.313-.579.75-.954 1.157-.954.64 0 .78.813.78.875a.562.562 0 0 1-.03.172zm0 0" stroke="none"/></symbol></defs><use y="134.765" x="222.808" xlink:href="#j" width="1052.362" height="744.094"/><use y="134.765" x="223.436" xlink:href="#k" width="1052.362" height="744.094"/></g><g ns0:text="$\\vec{a}$" ns0:preamble="/home/waldgeist/data/sphinx/inkscape-preamble.tex" fill="#d40000" stroke="#d40000"><use height="744.094" width="1052.362" xlink:href="#j" x="222.808" y="134.765" transform="matrix(4.65875 0 0 4.65875 -203.691 -269.246)"/><use height="744.094" width="1052.362" xlink:href="#k" x="223.436" y="134.765" transform="matrix(4.65875 0 0 4.65875 -203.691 -269.246)"/></g></svg>