<svg xmlns:ns0="http://www.iki.fi/pav/software/textext/" xmlns="http://www.w3.org/2000/svg" xmlns:xlink="http://www.w3.org/1999/xlink" width="744.094" height="1052.362"><title>Radialbeschleunigung</title><defs><linearGradient id="b"><stop offset="0" stop-color="#ebebeb" stop-opacity=".697"/><stop offset="1" stop-color="#6c7e7c"/></linearGradient><linearGradient id="a"><stop offset="0" stop-color="#0e0e0e"/><stop offset="1" stop-color="#6a6a6a"/></linearGradient><marker orient="auto" id="g" overflow="visible"><path d="M2.308 0l-3.46 2v-4l3.46 2z" fill-rule="evenodd" stroke="#000" stroke-width=".4pt"/></marker><linearGradient id="c"><stop offset="0" stop-color="#ebebeb" stop-opacity=".697"/><stop offset="1" stop-color="#6c7e7c"/></linearGradient></defs><g ns0:text="$E _{\\mathrm{pot.}} = \\mathrm{max.}$" ns0:preamble="/home/waldgeist/data/sphinx/test.tex"><use height="744.094" width="1052.362" xlink:href="#textext-deb4a57a-0" x="223.432" y="134.765" transform="matrix(3.97502 0 0 3.97502 -770.492 356.283)"/><use height="744.094" width="1052.362" xlink:href="#textext-deb4a57a-2" x="230.786" y="136.259" transform="matrix(3.97502 0 0 3.97502 -770.492 356.283)"/><g transform="matrix(3.97502 0 0 3.97502 -770.492 356.283)"><use height="744.094" width="1052.362" xlink:href="#textext-deb4a57a-3" x="235.403" y="136.259"/><use height="744.094" width="1052.362" xlink:href="#textext-deb4a57a-4" x="239.374" y="136.259"/></g><use height="744.094" width="1052.362" xlink:href="#textext-deb4a57a-5" x="242.486" y="136.259" transform="matrix(3.97502 0 0 3.97502 -770.492 356.283)"/><use height="744.094" width="1052.362" xlink:href="#textext-deb4a57a-6" x="248.117" y="134.765" transform="matrix(3.97502 0 0 3.97502 -770.492 356.283)"/><g transform="matrix(3.97502 0 0 3.97502 -770.492 356.283)"><use height="744.094" width="1052.362" xlink:href="#textext-deb4a57a-7" x="258.635" y="134.765"/><use height="744.094" width="1052.362" xlink:href="#textext-deb4a57a-8" x="266.937" y="134.765"/><use height="744.094" width="1052.362" xlink:href="#textext-deb4a57a-9" x="271.919" y="134.765"/></g><use height="744.094" width="1052.362" xlink:href="#textext-deb4a57a-1" x="277.175" y="134.765" transform="matrix(3.97502 0 0 3.97502 -770.492 356.283)"/></g><g ns0:preamble="/home/waldgeist/data/sphinx/test.tex" ns0:text="\\begin{align*}\nE _{\\rm{pot}} &amp;= max. \\\\\nv &amp;= 0 \\\\\na &amp;= max.\n\\end{align*}\n"><use height="744.094" width="1052.362" y="134.765" x="367.633" xlink:href="#textext-2289d23f-0" transform="matrix(3.39125 0 0 3.39125 -521.8 349.011)"/><use height="744.094" width="1052.362" y="136.259" x="374.987" xlink:href="#textext-2289d23f-6" transform="matrix(3.39125 0 0 3.39125 -521.8 349.011)"/><g transform="matrix(3.39125 0 0 3.39125 -521.8 349.011)"><use height="744.094" width="1052.362" y="136.259" x="379.604" xlink:href="#textext-2289d23f-7"/><use height="744.094" width="1052.362" y="136.259" x="383.575" xlink:href="#textext-2289d23f-8"/></g><use height="744.094" width="1052.362" y="134.765" x="389.952" xlink:href="#textext-2289d23f-9" transform="matrix(3.39125 0 0 3.39125 -521.8 349.011)"/><g transform="matrix(3.39125 0 0 3.39125 -521.8 349.011)"><use height="744.094" width="1052.362" y="134.765" x="400.468" xlink:href="#textext-2289d23f-1"/><use height="744.094" width="1052.362" y="134.765" x="409.215" xlink:href="#textext-2289d23f-2"/><use height="744.094" width="1052.362" y="134.765" x="414.481" xlink:href="#textext-2289d23f-3"/><use height="744.094" width="1052.362" y="134.765" x="420.175" xlink:href="#textext-2289d23f-4"/></g><use height="744.094" width="1052.362" y="149.709" x="381.998" xlink:href="#textext-2289d23f-5" transform="matrix(3.39125 0 0 3.39125 -521.8 349.011)"/><use height="744.094" width="1052.362" y="149.709" x="389.952" xlink:href="#textext-2289d23f-9" transform="matrix(3.39125 0 0 3.39125 -521.8 349.011)"/><use height="744.094" width="1052.362" y="149.709" x="400.471" xlink:href="#textext-2289d23f-10" transform="matrix(3.39125 0 0 3.39125 -521.8 349.011)"/><use height="744.094" width="1052.362" y="164.653" x="381.918" xlink:href="#textext-2289d23f-2" transform="matrix(3.39125 0 0 3.39125 -521.8 349.011)"/><use height="744.094" width="1052.362" y="164.653" x="389.952" xlink:href="#textext-2289d23f-9" transform="matrix(3.39125 0 0 3.39125 -521.8 349.011)"/><g transform="matrix(3.39125 0 0 3.39125 -521.8 349.011)"><use height="744.094" width="1052.362" y="164.653" x="400.468" xlink:href="#textext-2289d23f-1"/><use height="744.094" width="1052.362" y="164.653" x="409.215" xlink:href="#textext-2289d23f-2"/><use height="744.094" width="1052.362" y="164.653" x="414.481" xlink:href="#textext-2289d23f-3"/><use height="744.094" width="1052.362" y="164.653" x="420.175" xlink:href="#textext-2289d23f-4"/></g></g><rect transform="scale(1 -1)" ry="6.77" y="-1304.062" x="1075.559" height="550.488" width="1026.604" fill="#fff" stroke="#fff" stroke-width="6" stroke-linecap="round" stroke-linejoin="round" stroke-dasharray="6.0000001,18.00000027"/><path fill="#fff" stroke="#fff" stroke-width="3" stroke-linecap="round" stroke-linejoin="round" d="M31.374 191.233H712.72v669.896H31.374z"/><path d="M231.726 282.326A282.211 282.211 0 1 1 513.937 771.13a282.211 282.211 0 1 1-282.21-488.804z" fill="none" stroke="#ccc" stroke-width="3.00008724" stroke-linecap="round"/><g fill="navy" stroke="navy" stroke-width="1.175" opacity=".5"><path d="M90.62 526.728V384.595" stroke-width="5.999973" stroke-linecap="square"/><path d="M90.609 373.87l2.286 3.783 2.144 3.864-4.418.088-4.42-.075 2.134-3.87z" stroke-width="6.00024904"/></g><path d="M366.934 516.513a11.796 11.796 0 1 1 11.795 20.43 11.796 11.796 0 1 1-11.795-20.43z" fill="#333" stroke="#fff" stroke-width="2.9999852000000002"/><path d="M90.62 526.728l283.174-.008" fill="none" stroke="green" stroke-width="2" stroke-linecap="round" stroke-dasharray=".99999987999999995,2.99999963999999997"/><path d="M90.62 505.442a21.286 21.286 0 0 1 21.287 21.286" style="marker:none" color="#000" fill="#fff" stroke="#4d4d4d" stroke-width="3.0000941099999996" stroke-linecap="round" overflow="visible"/><path d="M100.396 518.31a1.372 1.372 0 1 1-2.376-1.371 1.372 1.372 0 1 1 2.376 1.372z" style="marker:none" color="#000" fill="#4d4d4d" stroke="#4d4d4d" stroke-width=".9998182800000001" stroke-linecap="round" overflow="visible"/><g opacity=".5"><path d="M372.07 244.6l1.087 281.333" fill="none" stroke="green" stroke-width="2" stroke-linecap="round" stroke-dasharray=".99999987999999995,2.99999963000000003"/><g fill="navy" stroke="navy" stroke-width="1.175"><path d="M372.07 244.6l142.132-.467" stroke-width="5.999973" stroke-linecap="square"/><path d="M524.926 244.086l-3.775 2.298-3.857 2.157-.103-4.418.06-4.42 3.878 2.121z" stroke-width="6.00024904"/></g><g color="#000" stroke="#4d4d4d" stroke-linecap="round"><path d="M393.355 244.53c.039 11.755-9.46 21.317-21.216 21.355" style="marker:none" fill="#fff" stroke-width="3.0000941099999996" overflow="visible"/><path d="M380.518 254.347a1.372 1.372 0 1 1 1.365-2.381 1.372 1.372 0 0 1-1.365 2.381z" style="marker:none" fill="#4d4d4d" stroke-width=".9998182800000001" overflow="visible"/></g></g><g opacity=".5"><path d="M571.921 326.778L373.757 526.48" fill="none" stroke="green" stroke-width="2" stroke-linecap="round" stroke-dasharray=".99999987999999995,2.99999963000000003"/><g fill="navy" stroke="navy" stroke-width="1.175"><path d="M571.921 326.778L672.754 426.95" stroke-width="5.999973" stroke-linecap="square"/><path d="M680.37 434.5l-4.294-1.044-4.253-1.202 3.052-3.196 3.167-3.083 1.243 4.242z" stroke-width="6.00024904"/></g><g color="#000" stroke="#4d4d4d" stroke-linecap="round"><path style="marker:none" d="M587.022 341.78c-8.285 8.34-21.763 8.384-30.103.098" fill="#fff" stroke-width="3.0000941099999996" overflow="visible"/><path style="marker:none" d="M571.003 339.645a1.372 1.372 0 1 1 2.648-.719 1.372 1.372 0 0 1-2.648.719z" fill="#4d4d4d" stroke-width=".9998182800000001" overflow="visible"/></g></g><g opacity=".5"><path d="M655.13 526.203l-281.335 1.088" fill="none" stroke="green" stroke-width="2" stroke-linecap="round" stroke-dasharray=".99999987999999995,2.99999963000000003"/><g fill="navy" stroke="navy" stroke-width="1.175"><path d="M655.13 526.203l.466 142.132" stroke-width="5.999973" stroke-linecap="square"/><path d="M655.642 679.06l-2.298-3.775-2.157-3.857 4.418-.103 4.42.06-2.12 3.878z" stroke-width="6.00024904"/></g><g color="#000" stroke="#4d4d4d" stroke-linecap="round"><path d="M655.2 547.49c-11.757.038-21.318-9.46-21.357-21.217" style="marker:none" fill="#fff" stroke-width="3.0000941099999996" overflow="visible"/><path d="M645.381 534.652a1.372 1.372 0 1 1 2.381 1.365 1.372 1.372 0 0 1-2.381-1.365z" style="marker:none" fill="#4d4d4d" stroke-width=".9998182800000001" overflow="visible"/></g></g><g opacity=".5"><path d="M572.95 726.055L373.25 527.891" fill="none" stroke="green" stroke-width="2" stroke-linecap="round" stroke-dasharray=".99999987999999995,2.99999963000000003"/><g fill="navy" stroke="navy" stroke-width="1.175"><path d="M572.95 726.055L472.779 826.888" stroke-width="5.999973" stroke-linecap="square"/><path d="M465.227 834.504l1.045-4.294 1.202-4.253 3.197 3.052 3.082 3.167-4.241 1.243z" stroke-width="6.00024904"/></g><g color="#000" stroke="#4d4d4d" stroke-linecap="round"><path style="marker:none" d="M557.949 741.156c-8.34-8.285-8.385-21.763-.1-30.103" fill="#fff" stroke-width="3.0000941099999996" overflow="visible"/><path style="marker:none" d="M560.083 725.137a1.372 1.372 0 1 1 .72 2.648 1.372 1.372 0 0 1-.72-2.648z" fill="#4d4d4d" stroke-width=".9998182800000001" overflow="visible"/></g></g><g opacity=".5"><path d="M373.525 809.263l-1.087-281.334" fill="none" stroke="green" stroke-width="2" stroke-linecap="round" stroke-dasharray=".99999987999999995,2.99999963000000003"/><g fill="navy" stroke="navy" stroke-width="1.175"><path d="M373.525 809.263l-142.132.466" stroke-width="5.999973" stroke-linecap="square"/><path d="M220.668 809.776l3.775-2.298 3.858-2.157.102 4.418-.06 4.42-3.878-2.121z" stroke-width="6.00024904"/></g><g color="#000" stroke="#4d4d4d" stroke-linecap="round"><path d="M352.239 809.333c-.039-11.756 9.46-21.317 21.216-21.356" style="marker:none" fill="#fff" stroke-width="3.0000941099999996" overflow="visible"/><path d="M365.076 799.515a1.372 1.372 0 1 1-1.364 2.381 1.372 1.372 0 0 1 1.364-2.381z" style="marker:none" fill="#4d4d4d" stroke-width=".9998182800000001" overflow="visible"/></g></g><g opacity=".5"><path d="M173.673 727.085l198.164-199.703" fill="none" stroke="green" stroke-width="2" stroke-linecap="round" stroke-dasharray=".99999987999999995,2.99999963000000003"/><g fill="navy" stroke="navy" stroke-width="1.175"><path d="M173.673 727.085L72.841 626.912" stroke-width="5.999973" stroke-linecap="square"/><path d="M65.224 619.361l4.294 1.045 4.253 1.202-3.051 3.197-3.168 3.082-1.242-4.242z" stroke-width="6.00024904"/></g><g color="#000" stroke="#4d4d4d" stroke-linecap="round"><path style="marker:none" d="M158.572 712.082c8.286-8.34 21.763-8.384 30.103-.098" fill="#fff" stroke-width="3.0000941099999996" overflow="visible"/><path style="marker:none" d="M174.592 714.217a1.372 1.372 0 1 1-2.649.72 1.372 1.372 0 0 1 2.649-.72z" fill="#4d4d4d" stroke-width=".9998182800000001" overflow="visible"/></g></g><path d="M172.644 327.807L372.346 525.97" fill="none" stroke="#999" stroke-width="1.5" stroke-linecap="round" stroke-dasharray=".99999988,2.99999963"/><g fill="navy" stroke="navy" stroke-width="1.175"><path d="M172.644 327.807l100.173-100.833" stroke-width="5.999973" stroke-linecap="square"/><path d="M280.367 219.358l-1.045 4.294-1.201 4.253-3.197-3.051-3.083-3.168 4.242-1.242z" stroke-width="6.00024904"/></g><g color="#000" stroke="#4d4d4d" stroke-linecap="round"><path d="M187.646 312.706c8.34 8.285 8.384 21.763.099 30.103" style="marker:none" fill="#fff" stroke-width="3.0000941099999996" overflow="visible"/><path d="M185.511 328.726a1.372 1.372 0 1 1-.719-2.65 1.372 1.372 0 0 1 .72 2.65z" style="marker:none" fill="#4d4d4d" stroke-width=".9998182800000001" overflow="visible"/></g><path d="M172.644 327.807L372.346 525.97" fill="none" stroke="green" stroke-width="3" stroke-linecap="round"/><g transform="translate(-531.302 -178.35) scale(3.26815)" ns0:preamble="/home/waldgeist/data/sphinx/inkscape-preamble.tex" ns0:text="$\\vec{v}_{}$" fill="navy" stroke="navy"><defs><symbol id="d" overflow="visible"><path d="M5.36-5.938c-.141.141-.47.422-.47.594 0 .094.094.203.188.203s.14-.078.203-.14c.11-.14.344-.422.782-.64.062-.048.171-.095.171-.204 0-.11-.078-.156-.14-.203a1.034 1.034 0 0 1-.407-.563c-.03-.093-.062-.234-.203-.234-.14 0-.203.14-.203.219 0 .047.078.36.235.578h-3.36c-.156 0-.344 0-.344.203 0 .188.188.188.344.188z" stroke="none"/></symbol><symbol id="e" overflow="visible"><path d="M4.672-3.703c0-.547-.266-.703-.438-.703-.25 0-.5.265-.5.484 0 .125.047.188.157.297.218.203.343.453.343.813 0 .421-.609 2.703-1.765 2.703-.516 0-.75-.344-.75-.875 0-.547.281-1.282.578-2.11.078-.172.125-.312.125-.5 0-.437-.313-.812-.813-.812-.937 0-1.312 1.453-1.312 1.531 0 .11.094.11.11.11.109 0 .109-.032.156-.188.296-1 .718-1.235 1.015-1.235.078 0 .25 0 .25.313 0 .25-.11.531-.172.703-.437 1.156-.562 1.61-.562 2.047 0 1.078.875 1.234 1.328 1.234 1.672 0 2.25-3.296 2.25-3.812z" stroke="none"/></symbol></defs><use y="134.765" x="223.045" xlink:href="#d" width="744.094" height="1052.362"/><use y="134.765" x="223.434" xlink:href="#e" width="744.094" height="1052.362"/></g><g ns0:text="$r_{}$" ns0:preamble="/home/waldgeist/data/sphinx/inkscape-preamble.tex" transform="translate(-489.662 -8.802) scale(3.26815)" fill="green" stroke="navy"><defs><symbol overflow="visible" id="f"><path d="M.875-.594c-.031.156-.094.39-.094.438 0 .172.14.265.297.265a.414.414 0 0 0 .375-.28c.016-.032.344-1.391.39-1.579.079-.328.266-1.016.313-1.297.047-.125.328-.594.563-.812.078-.063.375-.329.797-.329.265 0 .406.125.421.125-.296.047-.515.282-.515.547 0 .157.11.344.375.344s.547-.234.547-.594c0-.343-.313-.64-.828-.64-.641 0-1.079.484-1.266.765-.094-.453-.453-.765-.922-.765-.453 0-.64.39-.734.562-.172.344-.297.938-.297.969 0 .11.094.11.11.11.109 0 .109-.016.171-.235.172-.703.375-1.188.735-1.188.156 0 .296.079.296.454 0 .218-.03.328-.156.843z" stroke="none"/></symbol></defs><use height="1052.362" width="744.094" xlink:href="#f" x="223.432" y="134.765"/></g><path transform="rotate(-165.188 414.923 708.632) scale(2.45244)" d="M233.294 373.083a33.297 33.297 0 0 1-16.286 14.113" style="marker:none" color="#000" fill="none" stroke="green" stroke-width="1.223" stroke-linecap="round" marker-end="url(#g)" overflow="visible" opacity=".5"/><g transform="translate(-415.407 2.558) scale(3.26815)" ns0:preamble="/home/waldgeist/data/sphinx/inkscape-preamble.tex" ns0:text="$\\vec{\\omega}$" fill="#00f" stroke="#00f"><defs><symbol id="h" overflow="visible"><path d="M5.36-5.938c-.141.141-.47.422-.47.594 0 .094.094.203.188.203s.14-.078.203-.14c.11-.14.344-.422.782-.64.062-.048.171-.095.171-.204 0-.11-.078-.156-.14-.203a1.034 1.034 0 0 1-.407-.563c-.03-.093-.062-.234-.203-.234-.14 0-.203.14-.203.219 0 .047.078.36.235.578h-3.36c-.156 0-.344 0-.344.203 0 .188.188.188.344.188z" stroke="none"/></symbol><symbol id="i" overflow="visible"><path d="M6.031-3.703c0-.453-.172-.703-.406-.703-.25 0-.516.234-.516.468 0 .094.047.204.141.297.172.157.36.422.36.844 0 .39-.204.969-.5 1.422-.298.422-.673.766-1.141.766-.563 0-.875-.36-.969-.891.11-.266.344-.906.344-1.188 0-.109-.047-.218-.188-.218-.078 0-.187.031-.265.172-.11.203-.235.843-.235 1.203-.328.468-.719.922-1.344.922-.671 0-.875-.594-.875-1.141 0-1.25 1.016-2.297 1.016-2.422a.18.18 0 0 0-.187-.187c-.125 0-.204.125-.266.218-.5.735-.875 1.922-.875 2.829C.125-.625.344.109 1.172.109c.703 0 1.172-.5 1.531-1.046.094.578.485 1.046 1.094 1.046.781 0 1.25-.609 1.61-1.359.25-.484.624-1.844.624-2.453z" stroke="none"/></symbol></defs><use y="134.765" x="223.455" xlink:href="#h" width="744.094" height="1052.362"/><use y="134.765" x="223.435" xlink:href="#i" width="744.094" height="1052.362"/></g><path style="marker:none" d="M233.294 373.083a33.297 33.297 0 0 1-16.286 14.113" transform="rotate(-120.188 337.893 737.305) scale(2.45244)" color="#000" fill="none" stroke="green" stroke-width="1.223" stroke-linecap="round" marker-end="url(#g)" overflow="visible" opacity=".5"/><path transform="rotate(-75.188 212.681 783.913) scale(2.45244)" d="M233.294 373.083a33.297 33.297 0 0 1-16.286 14.113" style="marker:none" color="#000" fill="none" stroke="green" stroke-width="1.223" stroke-linecap="round" marker-end="url(#g)" overflow="visible" opacity=".5"/><path style="marker:none" d="M233.294 373.083a33.297 33.297 0 0 1-16.286 14.113" transform="rotate(-30.028 -207.712 940.398) scale(2.45244)" color="#000" fill="none" stroke="green" stroke-width="1.223" stroke-linecap="round" marker-end="url(#g)" overflow="visible" opacity=".5"/><path transform="rotate(14.812 1768.59 204.76) scale(2.45244)" d="M233.294 373.083a33.297 33.297 0 0 1-16.286 14.113" style="marker:none" color="#000" fill="none" stroke="green" stroke-width="1.223" stroke-linecap="round" marker-end="url(#g)" overflow="visible" opacity=".5"/><path style="marker:none" d="M233.294 373.083a33.297 33.297 0 0 1-16.286 14.113" transform="rotate(60.291 735.36 589.356) scale(2.45244)" color="#000" fill="none" stroke="green" stroke-width="1.223" stroke-linecap="round" marker-end="url(#g)" overflow="visible" opacity=".5"/><path transform="rotate(105.423 569.174 651.215) scale(2.45244)" d="M233.294 373.083a33.297 33.297 0 0 1-16.286 14.113" style="marker:none" color="#000" fill="none" stroke="green" stroke-width="1.223" stroke-linecap="round" marker-end="url(#g)" overflow="visible" opacity=".5"/><path style="marker:none" d="M233.294 373.083a33.297 33.297 0 0 1-16.286 14.113" transform="rotate(150.451 483.049 683.274) scale(2.45244)" color="#000" fill="none" stroke="green" stroke-width="1.223" stroke-linecap="round" marker-end="url(#g)" overflow="visible" opacity=".5"/><path d="M168.746 321.055a7.796 7.796 0 1 1 7.796 13.504 7.796 7.796 0 1 1-7.796-13.504z" fill="#333"/><path d="M368.171 237.847a7.796 7.796 0 1 1 7.797 13.504 7.796 7.796 0 1 1-7.797-13.504zM568.023 320.026a7.796 7.796 0 1 1 7.797 13.503 7.796 7.796 0 1 1-7.797-13.503zM651.231 519.452a7.796 7.796 0 1 1 7.796 13.503 7.796 7.796 0 1 1-7.796-13.503zM569.053 719.304a7.796 7.796 0 1 1 7.796 13.503 7.796 7.796 0 1 1-7.796-13.503zM369.627 802.511a7.796 7.796 0 1 1 7.796 13.504 7.796 7.796 0 1 1-7.796-13.504zM169.775 720.333a7.796 7.796 0 1 1 7.796 13.503 7.796 7.796 0 1 1-7.796-13.503zM86.722 519.976a7.796 7.796 0 1 1 7.797 13.504 7.796 7.796 0 1 1-7.797-13.504z" opacity=".5" fill="#333"/><path d="M315.68 468.965l40.086-40.087" fill="navy" stroke="#00f" stroke-width="3" stroke-linecap="round" marker-end="url(#g)"/><g transform="matrix(2.26852 0 0 2.26852 -172.052 175.675)" ns0:preamble="/home/waldgeist/data/sphinx/inkscape-preamble.tex" ns0:text="$\\Delta \\varphi$" opacity=".5" fill="green" stroke="green" stroke-width="1.441"><defs><symbol id="j" overflow="visible"><path d="M4.406-6.953c-.062-.14-.093-.188-.265-.188-.157 0-.188.047-.25.188L.516-.203c-.047.094-.047.11-.047.125C.469 0 .53 0 .688 0h6.921c.157 0 .22 0 .22-.078 0-.016 0-.031-.048-.125zm-.578.812L6.516-.75H1.14z" stroke="none"/></symbol><symbol id="k" overflow="visible"><path d="M1.688 1.688c-.032.14-.047.156-.047.203 0 .218.187.28.296.28a.413.413 0 0 0 .36-.265c.031-.078.078-.406.36-1.812.077 0 .155.015.327.015 1.657 0 3.188-1.562 3.188-3.14 0-.781-.39-1.375-1.14-1.375-1.438 0-2.048 1.937-2.641 3.875C1.312-.734.75-1.281.75-2c0-.281.234-1.375.828-2.063.094-.093.094-.109.094-.14 0-.031-.031-.094-.125-.094C1.266-4.297.5-2.844.5-1.89c0 .938.656 1.657 1.719 1.907zM3.077-.47c-.094 0-.11 0-.187-.015-.125 0-.125 0-.125-.032 0-.015.171-.937.187-1.078.313-1.281 1.094-2.234 1.985-2.234.687 0 .953.531.953 1.015 0 1.126-1.282 2.344-2.813 2.344z" stroke="none"/></symbol></defs><use y="134.765" x="223.432" xlink:href="#j" width="744.094" height="1052.362"/><use y="134.765" x="231.734" xlink:href="#k" width="744.094" height="1052.362" transform="translate(0 -2.273)"/></g></svg>