<?xml version="1.0" encoding="UTF-8" standalone="no"?>
<!-- Created with Inkscape (http://www.inkscape.org/) -->

<svg
   xmlns:ns0="http://www.iki.fi/pav/software/textext/"
   xmlns:dc="http://purl.org/dc/elements/1.1/"
   xmlns:cc="http://creativecommons.org/ns#"
   xmlns:rdf="http://www.w3.org/1999/02/22-rdf-syntax-ns#"
   xmlns:svg="http://www.w3.org/2000/svg"
   xmlns="http://www.w3.org/2000/svg"
   xmlns:xlink="http://www.w3.org/1999/xlink"
   xmlns:sodipodi="http://sodipodi.sourceforge.net/DTD/sodipodi-0.dtd"
   xmlns:inkscape="http://www.inkscape.org/namespaces/inkscape"
   width="1052.3622"
   height="744.09448"
   id="svg2"
   version="1.1"
   inkscape:version="0.48.4 r9939"
   sodipodi:docname="winkelbeschleunigung.svg">
  <sodipodi:namedview
     id="base"
     pagecolor="#ffffff"
     bordercolor="#666666"
     borderopacity="1.0"
     inkscape:pageopacity="0.0"
     inkscape:pageshadow="2"
     inkscape:zoom="0.25"
     inkscape:cx="-421.30751"
     inkscape:cy="-48.780285"
     inkscape:document-units="px"
     inkscape:current-layer="layer1"
     showgrid="false"
     inkscape:object-paths="true"
     inkscape:object-nodes="true"
     inkscape:snap-smooth-nodes="true"
     inkscape:snap-midpoints="true"
     inkscape:snap-object-midpoints="true"
     inkscape:window-width="1600"
     inkscape:window-height="1150"
     inkscape:window-x="0"
     inkscape:window-y="0"
     inkscape:window-maximized="1"
     showguides="false"
     inkscape:guide-bbox="true"
     inkscape:snap-global="true">
    <sodipodi:guide
       id="guide5052"
       position="751.14993,511.94531"
       orientation="1,0" />
  </sodipodi:namedview>
  <title
     id="title4619">Winkelbeschleunigung</title>
  <defs
     id="defs4">
    <marker
       inkscape:stockid="Arrow2Mend"
       orient="auto"
       refY="0"
       refX="0"
       id="Arrow2Mend"
       style="overflow:visible">
      <path
         inkscape:connector-curvature="0"
         id="path3943"
         style="fill-rule:evenodd;stroke-width:0.625;stroke-linejoin:round"
         d="M 8.7185878,4.0337352 -2.2072895,0.01601326 8.7185884,-4.0017078 c -1.7454984,2.3720609 -1.7354408,5.6174519 -6e-7,8.035443 z"
         transform="scale(-0.6,-0.6)" />
    </marker>
  </defs>
  <metadata
     id="metadata7">
    <rdf:RDF>
      <cc:Work
         rdf:about="">
        <dc:format>image/svg+xml</dc:format>
        <dc:type
           rdf:resource="http://purl.org/dc/dcmitype/StillImage" />
        <dc:title>Winkelbeschleunigung</dc:title>
        <dc:creator>
          <cc:Agent>
            <dc:title>Bernhard Grotz</dc:title>
          </cc:Agent>
        </dc:creator>
        <dc:rights>
          <cc:Agent>
            <dc:title>Bernhard Grotz</dc:title>
          </cc:Agent>
        </dc:rights>
        <dc:publisher>
          <cc:Agent>
            <dc:title>Bernhard Grotz</dc:title>
          </cc:Agent>
        </dc:publisher>
        <dc:language>de-DE</dc:language>
        <cc:license
           rdf:resource="http://creativecommons.org/licenses/by-nc-sa/3.0/" />
        <dc:date>2015-01-29</dc:date>
        <dc:subject>
          <rdf:Bag>
            <rdf:li>Physik</rdf:li>
            <rdf:li>Mechanik</rdf:li>
            <rdf:li>Kinematik</rdf:li>
            <rdf:li>Kreisbewegung</rdf:li>
            <rdf:li>Rotation</rdf:li>
            <rdf:li>Winkelbeschleunigung</rdf:li>
          </rdf:Bag>
        </dc:subject>
      </cc:Work>
      <cc:License
         rdf:about="http://creativecommons.org/licenses/by-nc-sa/3.0/">
        <cc:permits
           rdf:resource="http://creativecommons.org/ns#Reproduction" />
        <cc:permits
           rdf:resource="http://creativecommons.org/ns#Distribution" />
        <cc:requires
           rdf:resource="http://creativecommons.org/ns#Notice" />
        <cc:requires
           rdf:resource="http://creativecommons.org/ns#Attribution" />
        <cc:prohibits
           rdf:resource="http://creativecommons.org/ns#CommercialUse" />
        <cc:permits
           rdf:resource="http://creativecommons.org/ns#DerivativeWorks" />
        <cc:requires
           rdf:resource="http://creativecommons.org/ns#ShareAlike" />
      </cc:License>
    </rdf:RDF>
  </metadata>
  <g
     transform="translate(0,-308.2677)"
     inkscape:label="Ebene 1"
     inkscape:groupmode="layer"
     id="layer1">
    <rect
       inkscape:export-ydpi="150"
       inkscape:export-xdpi="150"
       inkscape:export-filename="/home/waldgeist/data/homepage/pics/physik/mechanik/kinematik/winkelbeschleunigung.png"
       y="398.18753"
       x="98.090698"
       height="564.25482"
       width="856.18079"
       id="rect4617"
       style="color:#000000;fill:#ffffff;fill-opacity:1;fill-rule:nonzero;stroke:#ffffff;stroke-width:2;stroke-linecap:round;stroke-linejoin:round;stroke-miterlimit:4;stroke-opacity:1;stroke-dasharray:none;stroke-dashoffset:0;marker:none;visibility:visible;display:inline;overflow:visible;enable-background:accumulate" />
    <path
       inkscape:export-ydpi="150"
       inkscape:export-xdpi="150"
       inkscape:export-filename="/home/waldgeist/data/homepage/pics/physik/mechanik/kinematik/winkelbeschleunigung.png"
       inkscape:connector-curvature="0"
       id="path3896"
       d="m 302.1407,732.31537 0,162.36583"
       style="fill:none;stroke:#808080;stroke-width:2;stroke-linecap:round;stroke-linejoin:round;stroke-miterlimit:4;stroke-opacity:1;stroke-dasharray:2, 6;stroke-dashoffset:0" />
    <path
       inkscape:export-ydpi="150"
       inkscape:export-xdpi="150"
       inkscape:export-filename="/home/waldgeist/data/homepage/pics/physik/mechanik/kinematik/winkelbeschleunigung.png"
       d="m 506,404.36218 c 0,40.86907 -66.26186,74 -148,74 -81.73814,0 -148,-33.13093 -148,-74 0,-40.86907 66.26186,-74 148,-74 81.73814,0 148,33.13093 148,74 z"
       sodipodi:ry="74"
       sodipodi:rx="148"
       sodipodi:cy="404.36218"
       sodipodi:cx="358"
       id="path3114"
       style="color:#000000;fill:#b3b3b3;fill-opacity:1;fill-rule:nonzero;stroke:#333333;stroke-width:2;stroke-linecap:butt;stroke-linejoin:round;stroke-miterlimit:4;stroke-opacity:1;stroke-dasharray:none;stroke-dashoffset:0;marker:none;visibility:visible;display:inline;overflow:visible;enable-background:accumulate"
       sodipodi:type="arc"
       transform="translate(-55.859303,299.95319)" />
    <path
       inkscape:export-ydpi="150"
       inkscape:export-xdpi="150"
       inkscape:export-filename="/home/waldgeist/data/homepage/pics/physik/mechanik/kinematik/winkelbeschleunigung.png"
       style="fill:#b3b3b3;fill-opacity:1;stroke:#333333;stroke-width:2;stroke-linecap:butt;stroke-linejoin:miter;stroke-opacity:1"
       d="m 154.1407,704.31537 c 0,0 -0.42055,-48.23592 0,-48 l 296,0 0,48"
       id="path3122"
       inkscape:connector-curvature="0"
       sodipodi:nodetypes="cccc" />
    <path
       inkscape:export-ydpi="150"
       inkscape:export-xdpi="150"
       inkscape:export-filename="/home/waldgeist/data/homepage/pics/physik/mechanik/kinematik/winkelbeschleunigung.png"
       sodipodi:type="arc"
       style="color:#000000;fill:#b3b3b3;fill-opacity:1;fill-rule:nonzero;stroke:#333333;stroke-width:2;stroke-linecap:butt;stroke-linejoin:round;stroke-miterlimit:4;stroke-opacity:1;stroke-dasharray:none;stroke-dashoffset:0;marker:none;visibility:visible;display:inline;overflow:visible;enable-background:accumulate"
       id="path3112"
       sodipodi:cx="358"
       sodipodi:cy="404.36218"
       sodipodi:rx="148"
       sodipodi:ry="74"
       d="m 506,404.36218 c 0,40.86907 -66.26186,74 -148,74 -81.73814,0 -148,-33.13093 -148,-74 0,-40.86907 66.26186,-74 148,-74 81.73814,0 148,33.13093 148,74 z"
       transform="translate(-55.859303,251.95319)" />
    <path
       inkscape:export-ydpi="150"
       inkscape:export-xdpi="150"
       inkscape:export-filename="/home/waldgeist/data/homepage/pics/physik/mechanik/kinematik/winkelbeschleunigung.png"
       style="fill:none;stroke:#808080;stroke-width:2;stroke-linecap:round;stroke-linejoin:round;stroke-miterlimit:4;stroke-opacity:1;stroke-dasharray:2, 6;stroke-dashoffset:0"
       d="m 302.1407,465.94868 0,190.36669"
       id="path3124"
       inkscape:connector-curvature="0" />
    <path
       inkscape:export-ydpi="150"
       inkscape:export-xdpi="150"
       inkscape:export-filename="/home/waldgeist/data/homepage/pics/physik/mechanik/kinematik/winkelbeschleunigung.png"
       inkscape:connector-curvature="0"
       id="path3910"
       d="m 302.21757,659.61285 0,-175.96552"
       style="fill:none;stroke:#d40000;stroke-width:4;stroke-linecap:round;stroke-linejoin:round;stroke-miterlimit:4;stroke-opacity:1;stroke-dasharray:none;marker-end:url(#Arrow2Mend)" />
    <path
       inkscape:export-ydpi="150"
       inkscape:export-xdpi="150"
       inkscape:export-filename="/home/waldgeist/data/homepage/pics/physik/mechanik/kinematik/winkelbeschleunigung.png"
       transform="matrix(0.52409012,0,0,-0.52409012,114.43994,869.13362)"
       d="m 441.24118,343.17618 c 67.58419,22.98642 85.10365,69.0145 39.13082,102.80659 -8.70873,6.40131 -19.37257,12.07966 -31.60238,16.82784"
       sodipodi:ry="74"
       sodipodi:rx="148"
       sodipodi:cy="404.36218"
       sodipodi:cx="358"
       id="path4358"
       style="color:#000000;fill:#b3b3b3;fill-opacity:1;fill-rule:nonzero;stroke:#d40000;stroke-width:3.81613707999999985;stroke-linecap:butt;stroke-linejoin:round;stroke-miterlimit:4;stroke-opacity:1;stroke-dasharray:none;stroke-dashoffset:0;marker:none;marker-end:url(#Arrow2Mend);visibility:visible;display:inline;overflow:visible;enable-background:accumulate"
       sodipodi:type="arc"
       sodipodi:start="5.3097233"
       sodipodi:end="7.1937393"
       sodipodi:open="true" />
    <path
       style="fill:none;stroke:#808080;stroke-width:2;stroke-linecap:round;stroke-linejoin:round;stroke-miterlimit:4;stroke-opacity:1;stroke-dasharray:2, 6;stroke-dashoffset:0"
       d="m 751.14993,732.31537 0,162.36583"
       id="path4640"
       inkscape:connector-curvature="0"
       inkscape:export-filename="/home/waldgeist/data/homepage/pics/physik/mechanik/kinematik/winkelbeschleunigung.png"
       inkscape:export-xdpi="150"
       inkscape:export-ydpi="150" />
    <path
       style="fill:none;stroke:#d40000;stroke-width:4;stroke-linecap:round;stroke-linejoin:round;stroke-miterlimit:4;stroke-opacity:1;stroke-dasharray:none;marker-end:url(#Arrow2Mend)"
       d="m 751.14993,698.31537 0,175.96552"
       id="path4650"
       inkscape:connector-curvature="0"
       inkscape:export-filename="/home/waldgeist/data/homepage/pics/physik/mechanik/kinematik/winkelbeschleunigung.png"
       inkscape:export-xdpi="150"
       inkscape:export-ydpi="150" />
    <path
       transform="translate(393.14993,299.95319)"
       sodipodi:type="arc"
       style="color:#000000;fill:#b3b3b3;fill-opacity:1;fill-rule:nonzero;stroke:#333333;stroke-width:2;stroke-linecap:butt;stroke-linejoin:round;stroke-miterlimit:4;stroke-opacity:1;stroke-dasharray:none;stroke-dashoffset:0;marker:none;visibility:visible;display:inline;overflow:visible;enable-background:accumulate"
       id="path4642"
       sodipodi:cx="358"
       sodipodi:cy="404.36218"
       sodipodi:rx="148"
       sodipodi:ry="74"
       d="m 506,404.36218 c 0,40.86907 -66.26186,74 -148,74 -81.73814,0 -148,-33.13093 -148,-74 0,-40.86907 66.26186,-74 148,-74 81.73814,0 148,33.13093 148,74 z"
       inkscape:export-filename="/home/waldgeist/data/homepage/pics/physik/mechanik/kinematik/winkelbeschleunigung.png"
       inkscape:export-xdpi="150"
       inkscape:export-ydpi="150" />
    <path
       sodipodi:nodetypes="cccc"
       inkscape:connector-curvature="0"
       id="path4644"
       d="m 603.14993,704.31537 c 0,0 -0.42055,-48.23592 0,-48 l 296,0 0,48"
       style="fill:#b3b3b3;fill-opacity:1;stroke:#333333;stroke-width:2;stroke-linecap:butt;stroke-linejoin:miter;stroke-opacity:1"
       inkscape:export-filename="/home/waldgeist/data/homepage/pics/physik/mechanik/kinematik/winkelbeschleunigung.png"
       inkscape:export-xdpi="150"
       inkscape:export-ydpi="150" />
    <path
       transform="translate(393.14993,251.95319)"
       d="m 506,404.36218 c 0,40.86907 -66.26186,74 -148,74 -81.73814,0 -148,-33.13093 -148,-74 0,-40.86907 66.26186,-74 148,-74 81.73814,0 148,33.13093 148,74 z"
       sodipodi:ry="74"
       sodipodi:rx="148"
       sodipodi:cy="404.36218"
       sodipodi:cx="358"
       id="path4646"
       style="color:#000000;fill:#b3b3b3;fill-opacity:1;fill-rule:nonzero;stroke:#333333;stroke-width:2;stroke-linecap:butt;stroke-linejoin:round;stroke-miterlimit:4;stroke-opacity:1;stroke-dasharray:none;stroke-dashoffset:0;marker:none;visibility:visible;display:inline;overflow:visible;enable-background:accumulate"
       sodipodi:type="arc"
       inkscape:export-filename="/home/waldgeist/data/homepage/pics/physik/mechanik/kinematik/winkelbeschleunigung.png"
       inkscape:export-xdpi="150"
       inkscape:export-ydpi="150" />
    <path
       inkscape:connector-curvature="0"
       id="path4648"
       d="m 751.14993,465.94868 0,190.36669"
       style="fill:none;stroke:#808080;stroke-width:2;stroke-linecap:round;stroke-linejoin:round;stroke-miterlimit:4;stroke-opacity:1;stroke-dasharray:2, 6;stroke-dashoffset:0"
       inkscape:export-filename="/home/waldgeist/data/homepage/pics/physik/mechanik/kinematik/winkelbeschleunigung.png"
       inkscape:export-xdpi="150"
       inkscape:export-ydpi="150" />
    <g
       id="g4654"
       ns0:preamble="/home/waldgeist/data/sphinx/inkscape-preamble.tex"
       ns0:text="$\\vec{\\omega}$"
       transform="matrix(4.6587474,0,0,4.6587474,-302.81045,-149.23156)"
       style="fill:#0000ff"
       inkscape:export-filename="/home/waldgeist/data/homepage/pics/physik/mechanik/kinematik/winkelgeschwindigkeit.png"
       inkscape:export-xdpi="150"
       inkscape:export-ydpi="150">
      <defs
         id="defs4656">
        <g
           id="g4658">
          <symbol
             id="symbol4660"
             overflow="visible"
             style="overflow:visible">
            <path
               id="path4662"
               d=""
               style="stroke:none"
               inkscape:connector-curvature="0" />
          </symbol>
          <symbol
             id="symbol4664"
             overflow="visible"
             style="overflow:visible">
            <path
               id="path4666"
               d="m 5.359375,-5.9375 c -0.140625,0.140625 -0.46875,0.421875 -0.46875,0.59375 0,0.09375 0.09375,0.203125 0.1875,0.203125 0.09375,0 0.140625,-0.078125 0.203125,-0.140625 C 5.390625,-5.421875 5.625,-5.703125 6.0625,-5.921875 6.125,-5.96875 6.234375,-6.015625 6.234375,-6.125 6.234375,-6.234375 6.15625,-6.28125 6.09375,-6.328125 5.875,-6.484375 5.765625,-6.65625 5.6875,-6.890625 5.65625,-6.984375 5.625,-7.125 5.484375,-7.125 c -0.140625,0 -0.203125,0.140625 -0.203125,0.21875 0,0.046875 0.078125,0.359375 0.234375,0.578125 l -3.359375,0 c -0.15625,0 -0.34375,0 -0.34375,0.203125 0,0.1875 0.1875,0.1875 0.34375,0.1875 z m 0,0"
               style="stroke:none"
               inkscape:connector-curvature="0" />
          </symbol>
          <symbol
             id="symbol4668"
             overflow="visible"
             style="overflow:visible">
            <path
               id="path4670"
               d="m 6.03125,-3.703125 c 0,-0.453125 -0.171875,-0.703125 -0.40625,-0.703125 -0.25,0 -0.515625,0.234375 -0.515625,0.46875 0,0.09375 0.046875,0.203125 0.140625,0.296875 0.171875,0.15625 0.359375,0.421875 0.359375,0.84375 0,0.390625 -0.203125,0.96875 -0.5,1.421875 C 4.8125,-0.953125 4.4375,-0.609375 3.96875,-0.609375 3.40625,-0.609375 3.09375,-0.96875 3,-1.5 c 0.109375,-0.265625 0.34375,-0.90625 0.34375,-1.1875 0,-0.109375 -0.046875,-0.21875 -0.1875,-0.21875 -0.078125,0 -0.1875,0.03125 -0.265625,0.171875 C 2.78125,-2.53125 2.65625,-1.890625 2.65625,-1.53125 2.328125,-1.0625 1.9375,-0.609375 1.3125,-0.609375 c -0.671875,0 -0.875,-0.59375 -0.875,-1.140625 0,-1.25 1.015625,-2.296875 1.015625,-2.421875 0,-0.109375 -0.078125,-0.1875 -0.1875,-0.1875 -0.125,0 -0.203125,0.125 -0.265625,0.21875 -0.5,0.734375 -0.875,1.921875 -0.875,2.828125 0,0.6875 0.21875,1.421875 1.046875,1.421875 0.703125,0 1.171875,-0.5 1.53125,-1.046875 0.09375,0.578125 0.484375,1.046875 1.09375,1.046875 0.78125,0 1.25,-0.609375 1.609375,-1.359375 0.25,-0.484375 0.625,-1.84375 0.625,-2.453125 z m 0,0"
               style="stroke:none"
               inkscape:connector-curvature="0" />
          </symbol>
        </g>
      </defs>
      <g
         id="g4672"
         style="fill:#0000ff">
        <g
           id="g4674"
           style="fill:#0000ff;fill-opacity:1">
          <use
             id="use4676"
             y="134.765"
             x="223.455"
             xlink:href="#textext-db156235-1"
             width="744.09448"
             height="1052.3622"
             style="fill:#0000ff" />
        </g>
        <g
           id="g4678"
           style="fill:#0000ff;fill-opacity:1">
          <use
             id="use4680"
             y="134.765"
             x="223.43507"
             xlink:href="#textext-db156235-2"
             width="744.09448"
             height="1052.3622"
             style="fill:#0000ff" />
        </g>
      </g>
    </g>
    <g
       inkscape:export-ydpi="150"
       inkscape:export-xdpi="150"
       inkscape:export-filename="/home/waldgeist/data/homepage/pics/physik/mechanik/kinematik/winkelbeschleunigung.png"
       id="g4719"
       style="fill:#d40000;stroke:#d40000"
       transform="matrix(4.6587474,0,0,4.6587474,-796.24807,-177.23156)"
       ns0:preamble="/home/waldgeist/data/sphinx/inkscape-preamble.tex"
       ns0:text="$\\vec{\\alpha} &gt; 0$">
      <defs
         id="defs4721">
        <g
           id="g4723">
          <symbol
             id="textext-e6978f1c-0"
             overflow="visible"
             style="overflow:visible">
            <path
               id="path4726"
               d=""
               style="stroke:none"
               inkscape:connector-curvature="0" />
          </symbol>
          <symbol
             id="textext-e6978f1c-1"
             overflow="visible"
             style="overflow:visible">
            <path
               id="path4729"
               d="m 5.359375,-5.9375 c -0.140625,0.140625 -0.46875,0.421875 -0.46875,0.59375 0,0.09375 0.09375,0.203125 0.1875,0.203125 0.09375,0 0.140625,-0.078125 0.203125,-0.140625 C 5.390625,-5.421875 5.625,-5.703125 6.0625,-5.921875 6.125,-5.96875 6.234375,-6.015625 6.234375,-6.125 6.234375,-6.234375 6.15625,-6.28125 6.09375,-6.328125 5.875,-6.484375 5.765625,-6.65625 5.6875,-6.890625 5.65625,-6.984375 5.625,-7.125 5.484375,-7.125 c -0.140625,0 -0.203125,0.140625 -0.203125,0.21875 0,0.046875 0.078125,0.359375 0.234375,0.578125 l -3.359375,0 c -0.15625,0 -0.34375,0 -0.34375,0.203125 0,0.1875 0.1875,0.1875 0.34375,0.1875 z m 0,0"
               style="stroke:none"
               inkscape:connector-curvature="0" />
          </symbol>
          <symbol
             id="textext-e6978f1c-2"
             overflow="visible"
             style="overflow:visible">
            <path
               id="path4732"
               d="m 4.75,-2.359375 c 0,-1.5625 -0.921875,-2.046875 -1.65625,-2.046875 -1.375,0 -2.6875,1.421875 -2.6875,2.828125 0,0.9375 0.59375,1.6875 1.625,1.6875 0.625,0 1.34375,-0.234375 2.09375,-0.84375 0.125,0.53125 0.453125,0.84375 0.90625,0.84375 0.53125,0 0.84375,-0.546875 0.84375,-0.703125 0,-0.078125 -0.0625,-0.109375 -0.125,-0.109375 -0.0625,0 -0.09375,0.03125 -0.125,0.109375 -0.1875,0.484375 -0.546875,0.484375 -0.5625,0.484375 -0.3125,0 -0.3125,-0.78125 -0.3125,-1.015625 0,-0.203125 0,-0.234375 0.109375,-0.34375 C 5.796875,-2.65625 6,-3.8125 6,-3.8125 6,-3.84375 5.984375,-3.921875 5.875,-3.921875 c -0.09375,0 -0.09375,0.03125 -0.140625,0.21875 -0.1875,0.625 -0.515625,1.375 -0.984375,1.96875 z m -0.65625,1.375 c -0.890625,0.765625 -1.65625,0.875 -2.046875,0.875 -0.59375,0 -0.90625,-0.453125 -0.90625,-1.09375 0,-0.484375 0.265625,-1.5625 0.578125,-2.0625 C 2.1875,-4 2.734375,-4.1875 3.078125,-4.1875 c 0.984375,0 0.984375,1.3125 0.984375,2.078125 0,0.375 0,0.953125 0.03125,1.125 z m 0,0"
               style="stroke:none"
               inkscape:connector-curvature="0" />
          </symbol>
          <symbol
             id="textext-e6978f1c-3"
             overflow="visible"
             style="overflow:visible">
            <path
               id="path4735"
               d="M 6.734375,-2.265625 C 6.84375,-2.328125 6.921875,-2.375 6.921875,-2.5 c 0,-0.109375 -0.078125,-0.15625 -0.1875,-0.21875 L 1.203125,-5.3125 C 1.078125,-5.390625 1.0625,-5.390625 1.03125,-5.390625 c -0.109375,0 -0.203125,0.09375 -0.203125,0.203125 0,0.09375 0.046875,0.15625 0.1875,0.21875 L 6.25,-2.5 1.015625,-0.015625 c -0.140625,0.0625 -0.1875,0.125 -0.1875,0.21875 0,0.109375 0.09375,0.203125 0.203125,0.203125 0.03125,0 0.046875,0 0.171875,-0.078125 z m 0,0"
               style="stroke:none"
               inkscape:connector-curvature="0" />
          </symbol>
          <symbol
             id="textext-e6978f1c-4"
             overflow="visible"
             style="overflow:visible">
            <path
               id="path4738"
               d=""
               style="stroke:none"
               inkscape:connector-curvature="0" />
          </symbol>
          <symbol
             id="textext-e6978f1c-5"
             overflow="visible"
             style="overflow:visible">
            <path
               id="path4741"
               d="m 4.578125,-3.1875 c 0,-0.796875 -0.046875,-1.59375 -0.390625,-2.328125 -0.453125,-0.96875 -1.28125,-1.125 -1.6875,-1.125 -0.609375,0 -1.328125,0.265625 -1.75,1.1875 -0.3125,0.6875 -0.359375,1.46875 -0.359375,2.265625 0,0.75 0.03125,1.640625 0.453125,2.40625 0.421875,0.796875 1.15625,1 1.640625,1 0.53125,0 1.296875,-0.203125 1.734375,-1.15625 0.3125,-0.6875 0.359375,-1.46875 0.359375,-2.25 z M 2.484375,0 C 2.09375,0 1.5,-0.25 1.328125,-1.203125 1.21875,-1.796875 1.21875,-2.71875 1.21875,-3.3125 c 0,-0.640625 0,-1.296875 0.078125,-1.828125 0.1875,-1.1875 0.9375,-1.28125 1.1875,-1.28125 0.328125,0 0.984375,0.1875 1.171875,1.171875 0.109375,0.5625 0.109375,1.3125 0.109375,1.9375 0,0.75 0,1.421875 -0.109375,2.0625 C 3.5,-0.296875 2.9375,0 2.484375,0 z m 0,0"
               style="stroke:none"
               inkscape:connector-curvature="0" />
          </symbol>
        </g>
      </defs>
      <g
         id="textext-e6978f1c-6"
         style="fill:#d40000;stroke:#d40000">
        <g
           id="g4744"
           style="fill:#d40000;fill-opacity:1;stroke:#d40000">
          <use
             id="use4746"
             y="134.765"
             x="223.657"
             xlink:href="#textext-e6978f1c-1"
             width="1052.3622"
             height="744.09448"
             style="fill:#d40000;stroke:#d40000" />
        </g>
        <g
           id="g4748"
           style="fill:#d40000;fill-opacity:1;stroke:#d40000">
          <use
             id="use4750"
             y="134.765"
             x="223.42786"
             xlink:href="#textext-e6978f1c-2"
             width="1052.3622"
             height="744.09448"
             style="fill:#d40000;stroke:#d40000" />
        </g>
        <g
           id="g4752"
           style="fill:#d40000;fill-opacity:1;stroke:#d40000">
          <use
             id="use4754"
             y="134.765"
             x="232.61038"
             xlink:href="#textext-e6978f1c-3"
             width="1052.3622"
             height="744.09448"
             style="fill:#d40000;stroke:#d40000" />
        </g>
        <g
           id="g4756"
           style="fill:#d40000;fill-opacity:1;stroke:#d40000">
          <use
             id="use4758"
             y="134.765"
             x="243.12601"
             xlink:href="#textext-e6978f1c-5"
             width="1052.3622"
             height="744.09448"
             style="fill:#d40000;stroke:#d40000" />
        </g>
      </g>
    </g>
    <g
       inkscape:export-ydpi="150"
       inkscape:export-xdpi="150"
       inkscape:export-filename="/home/waldgeist/data/homepage/pics/physik/mechanik/kinematik/winkelbeschleunigung.png"
       ns0:text="$\\vec{\\alpha} &lt; 0$"
       ns0:preamble="/home/waldgeist/data/sphinx/inkscape-preamble.tex"
       transform="matrix(4.6587474,0,0,4.6587474,-347.23884,313.1574)"
       style="fill:#d40000;stroke:#d40000"
       id="g4928">
      <defs
         id="defs4930">
        <g
           id="g4932">
          <symbol
             style="overflow:visible"
             overflow="visible"
             id="textext-270718d6-0">
            <path
               inkscape:connector-curvature="0"
               style="stroke:none"
               d=""
               id="path4935" />
          </symbol>
          <symbol
             style="overflow:visible"
             overflow="visible"
             id="textext-270718d6-1">
            <path
               inkscape:connector-curvature="0"
               style="stroke:none"
               d="m 5.359375,-5.9375 c -0.140625,0.140625 -0.46875,0.421875 -0.46875,0.59375 0,0.09375 0.09375,0.203125 0.1875,0.203125 0.09375,0 0.140625,-0.078125 0.203125,-0.140625 C 5.390625,-5.421875 5.625,-5.703125 6.0625,-5.921875 6.125,-5.96875 6.234375,-6.015625 6.234375,-6.125 6.234375,-6.234375 6.15625,-6.28125 6.09375,-6.328125 5.875,-6.484375 5.765625,-6.65625 5.6875,-6.890625 5.65625,-6.984375 5.625,-7.125 5.484375,-7.125 c -0.140625,0 -0.203125,0.140625 -0.203125,0.21875 0,0.046875 0.078125,0.359375 0.234375,0.578125 l -3.359375,0 c -0.15625,0 -0.34375,0 -0.34375,0.203125 0,0.1875 0.1875,0.1875 0.34375,0.1875 z m 0,0"
               id="path4938" />
          </symbol>
          <symbol
             style="overflow:visible"
             overflow="visible"
             id="textext-270718d6-2">
            <path
               inkscape:connector-curvature="0"
               style="stroke:none"
               d="m 4.75,-2.359375 c 0,-1.5625 -0.921875,-2.046875 -1.65625,-2.046875 -1.375,0 -2.6875,1.421875 -2.6875,2.828125 0,0.9375 0.59375,1.6875 1.625,1.6875 0.625,0 1.34375,-0.234375 2.09375,-0.84375 0.125,0.53125 0.453125,0.84375 0.90625,0.84375 0.53125,0 0.84375,-0.546875 0.84375,-0.703125 0,-0.078125 -0.0625,-0.109375 -0.125,-0.109375 -0.0625,0 -0.09375,0.03125 -0.125,0.109375 -0.1875,0.484375 -0.546875,0.484375 -0.5625,0.484375 -0.3125,0 -0.3125,-0.78125 -0.3125,-1.015625 0,-0.203125 0,-0.234375 0.109375,-0.34375 C 5.796875,-2.65625 6,-3.8125 6,-3.8125 6,-3.84375 5.984375,-3.921875 5.875,-3.921875 c -0.09375,0 -0.09375,0.03125 -0.140625,0.21875 -0.1875,0.625 -0.515625,1.375 -0.984375,1.96875 z m -0.65625,1.375 c -0.890625,0.765625 -1.65625,0.875 -2.046875,0.875 -0.59375,0 -0.90625,-0.453125 -0.90625,-1.09375 0,-0.484375 0.265625,-1.5625 0.578125,-2.0625 C 2.1875,-4 2.734375,-4.1875 3.078125,-4.1875 c 0.984375,0 0.984375,1.3125 0.984375,2.078125 0,0.375 0,0.953125 0.03125,1.125 z m 0,0"
               id="path4941" />
          </symbol>
          <symbol
             style="overflow:visible"
             overflow="visible"
             id="textext-270718d6-3">
            <path
               inkscape:connector-curvature="0"
               style="stroke:none"
               d="m 6.734375,-4.96875 c 0.109375,-0.0625 0.1875,-0.109375 0.1875,-0.21875 0,-0.109375 -0.09375,-0.203125 -0.203125,-0.203125 -0.03125,0 -0.046875,0 -0.171875,0.078125 l -5.53125,2.59375 c -0.109375,0.0625 -0.1875,0.109375 -0.1875,0.21875 0,0.125 0.078125,0.171875 0.1875,0.234375 l 5.53125,2.59375 C 6.671875,0.40625 6.6875,0.40625 6.71875,0.40625 c 0.109375,0 0.203125,-0.09375 0.203125,-0.203125 0,-0.109375 -0.078125,-0.15625 -0.1875,-0.21875 L 1.5,-2.5 z m 0,0"
               id="path4944" />
          </symbol>
          <symbol
             style="overflow:visible"
             overflow="visible"
             id="textext-270718d6-4">
            <path
               inkscape:connector-curvature="0"
               style="stroke:none"
               d=""
               id="path4947" />
          </symbol>
          <symbol
             style="overflow:visible"
             overflow="visible"
             id="textext-270718d6-5">
            <path
               inkscape:connector-curvature="0"
               style="stroke:none"
               d="m 4.578125,-3.1875 c 0,-0.796875 -0.046875,-1.59375 -0.390625,-2.328125 -0.453125,-0.96875 -1.28125,-1.125 -1.6875,-1.125 -0.609375,0 -1.328125,0.265625 -1.75,1.1875 -0.3125,0.6875 -0.359375,1.46875 -0.359375,2.265625 0,0.75 0.03125,1.640625 0.453125,2.40625 0.421875,0.796875 1.15625,1 1.640625,1 0.53125,0 1.296875,-0.203125 1.734375,-1.15625 0.3125,-0.6875 0.359375,-1.46875 0.359375,-2.25 z M 2.484375,0 C 2.09375,0 1.5,-0.25 1.328125,-1.203125 1.21875,-1.796875 1.21875,-2.71875 1.21875,-3.3125 c 0,-0.640625 0,-1.296875 0.078125,-1.828125 0.1875,-1.1875 0.9375,-1.28125 1.1875,-1.28125 0.328125,0 0.984375,0.1875 1.171875,1.171875 0.109375,0.5625 0.109375,1.3125 0.109375,1.9375 0,0.75 0,1.421875 -0.109375,2.0625 C 3.5,-0.296875 2.9375,0 2.484375,0 z m 0,0"
               id="path4950" />
          </symbol>
        </g>
      </defs>
      <g
         style="fill:#d40000;stroke:#d40000"
         id="textext-270718d6-6">
        <g
           style="fill:#d40000;fill-opacity:1;stroke:#d40000"
           id="g4953">
          <use
             height="744.09448"
             width="1052.3622"
             style="fill:#d40000;stroke:#d40000"
             xlink:href="#textext-270718d6-1"
             x="223.657"
             y="134.765"
             id="use4955" />
        </g>
        <g
           style="fill:#d40000;fill-opacity:1;stroke:#d40000"
           id="g4957">
          <use
             height="744.09448"
             width="1052.3622"
             style="fill:#d40000;stroke:#d40000"
             xlink:href="#textext-270718d6-2"
             x="223.42786"
             y="134.765"
             id="use4959" />
        </g>
        <g
           style="fill:#d40000;fill-opacity:1;stroke:#d40000"
           id="g4961">
          <use
             height="744.09448"
             width="1052.3622"
             style="fill:#d40000;stroke:#d40000"
             xlink:href="#textext-270718d6-3"
             x="232.61038"
             y="134.765"
             id="use4963" />
        </g>
        <g
           style="fill:#d40000;fill-opacity:1;stroke:#d40000"
           id="g4965">
          <use
             height="744.09448"
             width="1052.3622"
             style="fill:#d40000;stroke:#d40000"
             xlink:href="#textext-270718d6-5"
             x="243.12601"
             y="134.765"
             id="use4967" />
        </g>
      </g>
    </g>
    <path
       sodipodi:open="true"
       sodipodi:end="7.1937393"
       sodipodi:start="5.3097233"
       sodipodi:type="arc"
       style="color:#000000;fill:#b3b3b3;fill-opacity:1;fill-rule:nonzero;stroke:#d40000;stroke-width:3.81613707999999985;stroke-linecap:butt;stroke-linejoin:round;stroke-miterlimit:4;stroke-opacity:1;stroke-dasharray:none;stroke-dashoffset:0;marker:none;marker-end:url(#Arrow2Mend);visibility:visible;display:inline;overflow:visible;enable-background:accumulate"
       id="path4652"
       sodipodi:cx="358"
       sodipodi:cy="404.36218"
       sodipodi:rx="148"
       sodipodi:ry="74"
       d="m 441.24118,343.17618 c 67.58419,22.98642 85.10365,69.0145 39.13082,102.80659 -8.70873,6.40131 -19.37257,12.07966 -31.60238,16.82784"
       transform="matrix(0.52409012,0,0,0.52409012,563.44917,446.7239)"
       inkscape:export-filename="/home/waldgeist/data/homepage/pics/physik/mechanik/kinematik/winkelbeschleunigung.png"
       inkscape:export-xdpi="150"
       inkscape:export-ydpi="150" />
    <g
       id="g5188"
       style="fill:#d40000;stroke:#d40000"
       transform="matrix(4.6587474,0,0,4.6587474,-653.10543,39.021795)"
       ns0:preamble="/home/waldgeist/data/sphinx/inkscape-preamble.tex"
       ns0:text="$\\vec{a}$"
       inkscape:export-filename="/home/waldgeist/data/homepage/pics/physik/mechanik/kinematik/winkelbeschleunigung.png"
       inkscape:export-xdpi="150"
       inkscape:export-ydpi="150">
      <defs
         id="defs5190">
        <g
           id="g5192">
          <symbol
             id="textext-36383fa2-0"
             overflow="visible"
             style="overflow:visible">
            <path
               id="path5195"
               d=""
               style="stroke:none"
               inkscape:connector-curvature="0" />
          </symbol>
          <symbol
             id="textext-36383fa2-1"
             overflow="visible"
             style="overflow:visible">
            <path
               id="path5198"
               d="m 5.359375,-5.9375 c -0.140625,0.140625 -0.46875,0.421875 -0.46875,0.59375 0,0.09375 0.09375,0.203125 0.1875,0.203125 0.09375,0 0.140625,-0.078125 0.203125,-0.140625 C 5.390625,-5.421875 5.625,-5.703125 6.0625,-5.921875 6.125,-5.96875 6.234375,-6.015625 6.234375,-6.125 6.234375,-6.234375 6.15625,-6.28125 6.09375,-6.328125 5.875,-6.484375 5.765625,-6.65625 5.6875,-6.890625 5.65625,-6.984375 5.625,-7.125 5.484375,-7.125 c -0.140625,0 -0.203125,0.140625 -0.203125,0.21875 0,0.046875 0.078125,0.359375 0.234375,0.578125 l -3.359375,0 c -0.15625,0 -0.34375,0 -0.34375,0.203125 0,0.1875 0.1875,0.1875 0.34375,0.1875 z m 0,0"
               style="stroke:none"
               inkscape:connector-curvature="0" />
          </symbol>
          <symbol
             id="textext-36383fa2-2"
             overflow="visible"
             style="overflow:visible">
            <path
               id="path5201"
               d="M 3.71875,-3.765625 C 3.53125,-4.140625 3.25,-4.40625 2.796875,-4.40625 c -1.15625,0 -2.390625,1.46875 -2.390625,2.921875 0,0.9375 0.546875,1.59375 1.3125,1.59375 0.203125,0 0.703125,-0.046875 1.296875,-0.75 0.078125,0.421875 0.4375,0.75 0.90625,0.75 0.359375,0 0.578125,-0.234375 0.75,-0.546875 0.15625,-0.359375 0.296875,-0.96875 0.296875,-0.984375 0,-0.109375 -0.09375,-0.109375 -0.125,-0.109375 -0.09375,0 -0.109375,0.046875 -0.140625,0.1875 -0.171875,0.640625 -0.34375,1.234375 -0.75,1.234375 -0.28125,0 -0.296875,-0.265625 -0.296875,-0.453125 0,-0.21875 0.015625,-0.3125 0.125,-0.75 C 3.890625,-1.71875 3.90625,-1.828125 4,-2.203125 L 4.359375,-3.59375 c 0.0625,-0.28125 0.0625,-0.296875 0.0625,-0.34375 0,-0.171875 -0.109375,-0.265625 -0.28125,-0.265625 -0.25,0 -0.390625,0.21875 -0.421875,0.4375 z M 3.078125,-1.1875 C 3.015625,-1 3.015625,-0.984375 2.875,-0.8125 2.4375,-0.265625 2.03125,-0.109375 1.75,-0.109375 c -0.5,0 -0.640625,-0.546875 -0.640625,-0.9375 0,-0.5 0.3125,-1.71875 0.546875,-2.1875 0.3125,-0.578125 0.75,-0.953125 1.15625,-0.953125 0.640625,0 0.78125,0.8125 0.78125,0.875 0,0.0625 -0.015625,0.125 -0.03125,0.171875 z m 0,0"
               style="stroke:none"
               inkscape:connector-curvature="0" />
          </symbol>
        </g>
      </defs>
      <g
         id="textext-36383fa2-3"
         style="fill:#d40000;stroke:#d40000">
        <g
           id="g5204"
           style="fill:#d40000;fill-opacity:1;stroke:#d40000">
          <use
             id="use5206"
             y="134.765"
             x="222.808"
             xlink:href="#textext-36383fa2-1"
             width="1052.3622"
             height="744.09448"
             style="fill:#d40000;stroke:#d40000" />
        </g>
        <g
           id="g5208"
           style="fill:#d40000;fill-opacity:1;stroke:#d40000">
          <use
             id="use5210"
             y="134.765"
             x="223.43564"
             xlink:href="#textext-36383fa2-2"
             width="1052.3622"
             height="744.09448"
             style="fill:#d40000;stroke:#d40000" />
        </g>
      </g>
    </g>
    <g
       ns0:text="$\\vec{a}$"
       ns0:preamble="/home/waldgeist/data/sphinx/inkscape-preamble.tex"
       transform="matrix(4.6587474,0,0,4.6587474,-203.69122,39.021795)"
       style="fill:#d40000;stroke:#d40000"
       id="g5310"
       inkscape:export-filename="/home/waldgeist/data/homepage/pics/physik/mechanik/kinematik/winkelbeschleunigung.png"
       inkscape:export-xdpi="150"
       inkscape:export-ydpi="150">
      <defs
         id="defs5312">
        <g
           id="g5314">
          <symbol
             style="overflow:visible"
             overflow="visible"
             id="symbol5316">
            <path
               inkscape:connector-curvature="0"
               style="stroke:none"
               d=""
               id="path5318" />
          </symbol>
          <symbol
             style="overflow:visible"
             overflow="visible"
             id="symbol5320">
            <path
               inkscape:connector-curvature="0"
               style="stroke:none"
               d="m 5.359375,-5.9375 c -0.140625,0.140625 -0.46875,0.421875 -0.46875,0.59375 0,0.09375 0.09375,0.203125 0.1875,0.203125 0.09375,0 0.140625,-0.078125 0.203125,-0.140625 C 5.390625,-5.421875 5.625,-5.703125 6.0625,-5.921875 6.125,-5.96875 6.234375,-6.015625 6.234375,-6.125 6.234375,-6.234375 6.15625,-6.28125 6.09375,-6.328125 5.875,-6.484375 5.765625,-6.65625 5.6875,-6.890625 5.65625,-6.984375 5.625,-7.125 5.484375,-7.125 c -0.140625,0 -0.203125,0.140625 -0.203125,0.21875 0,0.046875 0.078125,0.359375 0.234375,0.578125 l -3.359375,0 c -0.15625,0 -0.34375,0 -0.34375,0.203125 0,0.1875 0.1875,0.1875 0.34375,0.1875 z m 0,0"
               id="path5322" />
          </symbol>
          <symbol
             style="overflow:visible"
             overflow="visible"
             id="symbol5324">
            <path
               inkscape:connector-curvature="0"
               style="stroke:none"
               d="M 3.71875,-3.765625 C 3.53125,-4.140625 3.25,-4.40625 2.796875,-4.40625 c -1.15625,0 -2.390625,1.46875 -2.390625,2.921875 0,0.9375 0.546875,1.59375 1.3125,1.59375 0.203125,0 0.703125,-0.046875 1.296875,-0.75 0.078125,0.421875 0.4375,0.75 0.90625,0.75 0.359375,0 0.578125,-0.234375 0.75,-0.546875 0.15625,-0.359375 0.296875,-0.96875 0.296875,-0.984375 0,-0.109375 -0.09375,-0.109375 -0.125,-0.109375 -0.09375,0 -0.109375,0.046875 -0.140625,0.1875 -0.171875,0.640625 -0.34375,1.234375 -0.75,1.234375 -0.28125,0 -0.296875,-0.265625 -0.296875,-0.453125 0,-0.21875 0.015625,-0.3125 0.125,-0.75 C 3.890625,-1.71875 3.90625,-1.828125 4,-2.203125 L 4.359375,-3.59375 c 0.0625,-0.28125 0.0625,-0.296875 0.0625,-0.34375 0,-0.171875 -0.109375,-0.265625 -0.28125,-0.265625 -0.25,0 -0.390625,0.21875 -0.421875,0.4375 z M 3.078125,-1.1875 C 3.015625,-1 3.015625,-0.984375 2.875,-0.8125 2.4375,-0.265625 2.03125,-0.109375 1.75,-0.109375 c -0.5,0 -0.640625,-0.546875 -0.640625,-0.9375 0,-0.5 0.3125,-1.71875 0.546875,-2.1875 0.3125,-0.578125 0.75,-0.953125 1.15625,-0.953125 0.640625,0 0.78125,0.8125 0.78125,0.875 0,0.0625 -0.015625,0.125 -0.03125,0.171875 z m 0,0"
               id="path5326" />
          </symbol>
        </g>
      </defs>
      <g
         style="fill:#d40000;stroke:#d40000"
         id="g5328">
        <g
           style="fill:#d40000;fill-opacity:1;stroke:#d40000"
           id="g5330">
          <use
             style="fill:#d40000;stroke:#d40000"
             height="744.09448"
             width="1052.3622"
             xlink:href="#textext-36383fa2-1"
             x="222.808"
             y="134.765"
             id="use5332" />
        </g>
        <g
           style="fill:#d40000;fill-opacity:1;stroke:#d40000"
           id="g5334">
          <use
             style="fill:#d40000;stroke:#d40000"
             height="744.09448"
             width="1052.3622"
             xlink:href="#textext-36383fa2-2"
             x="223.43564"
             y="134.765"
             id="use5336" />
        </g>
      </g>
    </g>
  </g>
</svg>
