<svg xmlns="http://www.w3.org/2000/svg" xmlns:xlink="http://www.w3.org/1999/xlink" width="744.094" height="1052.362"><title>Feste Rolle</title><defs><pattern xlink:href="#a" id="b" patternTransform="translate(.25)"/><pattern id="a" height="5.181" width="30.066" patternUnits="userSpaceOnUse"><path d="M7.597.061C5.079-.187 2.656.302-.01 1.788v1.273c2.783-1.63 5.183-2.009 7.482-1.781 2.298.228 4.497 1.081 6.781 1.938 4.567 1.713 9.551 3.458 15.813-.157l-.004-1.273c-6.44 3.709-10.816 1.982-15.371.273-2.278-.854-4.576-1.75-7.094-2z"/></pattern><linearGradient id="c"><stop offset="0" stop-color="#0e0e0e" stop-opacity=".746"/><stop offset="1" stop-color="#fff"/></linearGradient><linearGradient id="d"><stop offset="0" stop-color="#ebebeb"/><stop offset="1" stop-color="#fff" stop-opacity="0"/></linearGradient><linearGradient id="e"><stop offset="0" stop-opacity="0"/><stop offset="1" stop-color="#fff"/></linearGradient><linearGradient id="f"><stop offset="0" stop-color="#1a1a1a" stop-opacity=".828"/><stop offset="1" stop-color="#fff"/></linearGradient><linearGradient id="g"><stop offset="0" stop-color="#fff"/><stop offset="1" stop-color="#fff" stop-opacity="0"/></linearGradient><linearGradient id="h"><stop offset="0" stop-opacity="0"/><stop offset="1" stop-color="#fff"/></linearGradient><filter id="i" x="-.36" width="1.72" y="-.36" height="1.72"><feGaussianBlur stdDeviation="3.429"/></filter></defs><path fill="#fff" stroke="#fff" stroke-width="1.138" d="M58.044 106.323h628.007V946.04H58.044z"/><path fill="#4d4d4d" fill-rule="evenodd" stroke="#333" stroke-width="4" d="M124.02 187.734h496.054v32.017H124.02z"/><path transform="matrix(-2.29664 0 0 2.2972 5859.213 27.434)" d="M2412.868 130.116a23.65 23.65 0 1 1-47.298 0 23.65 23.65 0 1 1 47.298 0z" fill="maroon" fill-rule="evenodd" stroke="#333" stroke-width="1.306"/><path d="M428.658 326.04c0-31.273-25.345-56.625-56.61-56.625-31.266 0-56.612 25.352-56.612 56.625" fill="none" stroke="#000" stroke-width="6"/><path fill="#4d4d4d" fill-rule="evenodd" stroke="#333" stroke-width="2" d="M386.896 220.54h-29.698v106.081h29.698z"/><path d="M2330.115 104.527a4.288 4.288 0 1 1-8.576 0 4.288 4.288 0 1 1 8.576 0z" transform="matrix(-3.16771 0 0 3.1685 7739.6 -4.856)" fill="#fc0" fill-rule="evenodd" stroke="#000" stroke-width=".947"/><path d="M315.436 326.04v300.952M428.658 326.04v186.952" fill="none" stroke="#000" stroke-width="6" stroke-linecap="round"/><g fill="none" stroke="#333" stroke-linecap="round"><path d="M315.436 651.737c-7.321 0-13.256-5.935-13.256-13.257 0-7.32 5.935-13.256 13.256-13.256 7.321 0 13.256 5.935 13.256 13.256" stroke-width="4.0003847" stroke-linejoin="round"/><path d="M315.436 651.737v18.45" stroke-width="4"/></g><path fill="#b3b3b3" stroke="#333" stroke-width="1.5" stroke-linecap="round" stroke-linejoin="round" d="M273.297 661.64h84.278v136.365h-84.278z"/><path transform="matrix(.43074 0 0 .43074 169.453 531.045)" d="M301.429 350.934c0 6.311-5.117 11.428-11.429 11.428s-11.429-5.117-11.429-11.428c0-6.312 5.117-11.429 11.429-11.429s11.429 5.117 11.429 11.429z" opacity=".5" fill="#fff" filter="url(#i)"/><path d="M410.455 284.44L542.65 416.635M386.896 271.383h186.952" fill="none" stroke="#000" stroke-width="6" stroke-linecap="round"/><g fill="#d40000" stroke="#d40000"><path d="M315.436 729.823v113.199" stroke-width="14.945"/><path d="M315.436 859.208l-2.679-4.64-2.679-4.64h10.716l-2.679 4.64z" stroke-width="14.953841"/></g><g opacity=".5" fill="#d40000" stroke="#d40000"><path d="M428.658 456.393V569.59" stroke-width="14.945"/><path d="M428.658 585.777l-2.679-4.64-2.679-4.64h10.716l-2.679 4.64z" stroke-width="14.953841"/></g><g opacity=".5" fill="#d40000" stroke="#d40000"><path d="M476.552 350.538l80.044 80.043" stroke-width="14.945"/><path d="M568.04 442.027l-5.174-1.387-5.175-1.387 3.788-3.788 3.789-3.789 1.386 5.176z" stroke-width="14.953841"/></g><g opacity=".5" fill="#d40000" stroke="#d40000"><path d="M480.372 271.383h113.199" stroke-width="14.945"/><path d="M609.757 271.384l-4.64 2.678-4.64 2.679v-10.716l4.64 2.68z" stroke-width="14.953841"/></g><g fill="#d40000" stroke="#d40000"><path d="M315.436 585.782V472.584" stroke-width="14.945"/><path d="M315.436 456.397l-2.679 4.64-2.679 4.64h10.716l-2.679-4.64z" stroke-width="14.953841"/></g></svg>