<svg xmlns:ns0="http://www.iki.fi/pav/software/textext/" xmlns="http://www.w3.org/2000/svg" xmlns:xlink="http://www.w3.org/1999/xlink" width="744.094" height="1052.362"><title>Flaschenzug (Seilspannung)</title><defs><pattern xlink:href="#a" id="b" patternTransform="translate(.25)"/><pattern id="a" height="5.181" width="30.066" patternUnits="userSpaceOnUse"><path d="M7.597.061C5.079-.187 2.656.302-.01 1.788v1.273c2.783-1.63 5.183-2.009 7.482-1.781 2.298.228 4.497 1.081 6.781 1.938 4.567 1.713 9.551 3.458 15.813-.157l-.004-1.273c-6.44 3.709-10.816 1.982-15.371.273-2.278-.854-4.576-1.75-7.094-2z"/></pattern><linearGradient id="c"><stop offset="0" stop-color="#0e0e0e" stop-opacity=".746"/><stop offset="1" stop-color="#fff"/></linearGradient><linearGradient id="d"><stop offset="0" stop-color="#ebebeb"/><stop offset="1" stop-color="#fff" stop-opacity="0"/></linearGradient><linearGradient id="e"><stop offset="0" stop-opacity="0"/><stop offset="1" stop-color="#fff"/></linearGradient><linearGradient id="f"><stop offset="0" stop-color="#1a1a1a" stop-opacity=".828"/><stop offset="1" stop-color="#fff"/></linearGradient><linearGradient id="g"><stop offset="0" stop-color="#fff"/><stop offset="1" stop-color="#fff" stop-opacity="0"/></linearGradient><linearGradient id="h"><stop offset="0" stop-opacity="0"/><stop offset="1" stop-color="#fff"/></linearGradient><filter id="i" x="-.36" width="1.72" y="-.36" height="1.72"><feGaussianBlur stdDeviation="3.429"/></filter></defs><path fill="#fff" stroke="#fff" stroke-width="1.138" stroke-dasharray="1.13784443,1.13784443" d="M28.167 161.285h687.76v729.792H28.167z"/><path fill="#4d4d4d" fill-rule="evenodd" stroke="#333" stroke-width="4.112" d="M55.322 180.584h633.45v32.017H55.322z"/><g fill="none" stroke="#333" stroke-linecap="round"><path d="M284.047 726.77c-7.321 0-13.256-5.934-13.256-13.255 0-7.322 5.935-13.257 13.256-13.257 7.321 0 13.256 5.935 13.256 13.257" stroke-width="4.3732" stroke-linejoin="round"/><path d="M284.047 726.77v18.45" stroke-width="4.373"/></g><path fill="#b3b3b3" stroke="#333" stroke-width="1.589" stroke-linecap="round" stroke-linejoin="round" d="M241.908 736.674h84.278V873.04h-84.278z"/><path transform="matrix(.43074 0 0 .43074 138.064 606.08)" d="M301.429 350.934c0 6.311-5.117 11.428-11.429 11.428s-11.429-5.117-11.429-11.428c0-6.312 5.117-11.429 11.429-11.429s11.429 5.117 11.429 11.429z" opacity=".5" fill="#fff" filter="url(#i)"/><path d="M284.047 702.258v-66.963" fill="none" stroke="#000" stroke-width="6" stroke-linecap="round"/><path d="M340.658 535.217c0 31.273-25.345 56.625-56.61 56.625-31.266 0-56.612-25.352-56.612-56.625" fill="none" stroke="#000" stroke-width="6"/><path d="M340.658 535.217V348.265" fill="none" stroke="#000" stroke-width="6" stroke-linecap="round"/><path transform="matrix(-2.29664 0 0 2.2972 5771.213 236.284)" d="M2412.868 130.116a23.65 23.65 0 1 1-47.298 0 23.65 23.65 0 1 1 47.298 0z" fill="maroon" fill-rule="evenodd" stroke="#333" stroke-width="1.379"/><path fill="#4d4d4d" fill-rule="evenodd" stroke="#333" stroke-width="2.611" d="M298.896 536.466h-29.698v106.081h29.698z"/><path d="M2330.115 104.527a4.288 4.288 0 1 1-8.576 0 4.288 4.288 0 1 1 8.576 0z" transform="matrix(-3.16771 0 0 3.1685 7651.6 203.994)" fill="#fc0" fill-rule="evenodd" stroke="#000"/><path d="M453.88 314.854c0-31.273-25.345-56.624-56.61-56.624-31.266 0-56.612 25.351-56.612 56.624" fill="none" stroke="#000" stroke-width="6"/><path d="M340.658 314.854v88.952M227.436 535.217V320.681" fill="none" stroke="#000" stroke-width="6" stroke-linecap="round"/><path transform="matrix(-2.29664 0 0 2.2972 5884.435 16.249)" d="M2412.868 130.116a23.65 23.65 0 1 1-47.298 0 23.65 23.65 0 1 1 47.298 0z" fill="maroon" fill-rule="evenodd" stroke="#333" stroke-width="1.379"/><path fill="#4d4d4d" fill-rule="evenodd" stroke="#333" stroke-width="2.611" d="M412.118 209.354H382.42v106.081h29.698z"/><path d="M2330.115 104.527a4.288 4.288 0 1 1-8.576 0 4.288 4.288 0 1 1 8.576 0z" transform="matrix(-3.16771 0 0 3.1685 7764.821 -16.042)" fill="#fc0" fill-rule="evenodd" stroke="#000"/><path d="M227.436 320.697c0-31.273-25.345-56.625-56.61-56.625-31.266 0-56.612 25.352-56.612 56.625" fill="none" stroke="#000" stroke-width="6"/><path transform="matrix(-2.29664 0 0 2.2972 5657.99 19.495)" d="M2412.868 130.116a23.65 23.65 0 1 1-47.298 0 23.65 23.65 0 1 1 47.298 0z" fill="maroon" fill-rule="evenodd" stroke="#333" stroke-width="1.379"/><path fill="#4d4d4d" fill-rule="evenodd" stroke="#333" stroke-width="2.611" d="M185.674 212.6h-29.698v106.081h29.698z"/><path d="M2330.115 104.527a4.288 4.288 0 1 1-8.576 0 4.288 4.288 0 1 1 8.576 0z" transform="matrix(-3.16771 0 0 3.1685 7538.377 -13.732)" fill="#fc0" fill-rule="evenodd" stroke="#000"/><g fill="none" stroke="#333" stroke-linecap="round"><path d="M114.214 559.745c-7.321 0-13.256-5.935-13.256-13.256 0-7.321 5.935-13.256 13.256-13.256 7.321 0 13.256 5.935 13.256 13.256" stroke-width="4.3732" stroke-linejoin="round"/><path d="M114.214 559.745v18.45" stroke-width="4.373"/></g><path fill="#b3b3b3" stroke="#333" stroke-width="1.589" stroke-linecap="round" stroke-linejoin="round" d="M80.503 570.359h67.423V679.45H80.503z"/><path d="M301.429 350.934c0 6.311-5.117 11.428-11.429 11.428s-11.429-5.117-11.429-11.428c0-6.312 5.117-11.429 11.429-11.429s11.429 5.117 11.429 11.429z" transform="matrix(.43074 0 0 .43074 -29.769 435.054)" opacity=".5" fill="#fff" filter="url(#i)"/><path d="M114.214 535.233V320.697" fill="none" stroke="#000" stroke-width="6" stroke-linecap="round"/><g fill="none" stroke="#333" stroke-linecap="round"><path d="M453.88 553.903c-7.32 0-13.256-5.935-13.256-13.256 0-7.321 5.935-13.256 13.256-13.256 7.322 0 13.257 5.935 13.257 13.256" stroke-width="4.3732" stroke-linejoin="round"/><path d="M453.88 553.903v18.45" stroke-width="4.373"/></g><path fill="#b3b3b3" stroke="#333" stroke-width="1.589" stroke-linecap="round" stroke-linejoin="round" d="M420.169 564.517h67.423v109.092h-67.423z"/><path transform="matrix(.43074 0 0 .43074 309.897 429.212)" d="M301.429 350.934c0 6.311-5.117 11.428-11.429 11.428s-11.429-5.117-11.429-11.428c0-6.312 5.117-11.429 11.429-11.429s11.429 5.117 11.429 11.429z" opacity=".5" fill="#fff" filter="url(#i)"/><path d="M453.88 529.39V314.855" fill="none" stroke="#000" stroke-width="6" stroke-linecap="round"/><path d="M601.576 231.05a13.256 13.256 0 1 1 13.256 13.256" fill="none" stroke="#333" stroke-width="4.3732" stroke-linecap="round" stroke-linejoin="round"/><path d="M601.576 231.05V212.6" fill="none" stroke="#333" stroke-width="4.373" stroke-linecap="round"/><g><g fill="none" stroke="#333" stroke-linecap="round"><path d="M601.576 553.903c-7.321 0-13.256-5.935-13.256-13.256 0-7.321 5.935-13.256 13.256-13.256 7.321 0 13.256 5.935 13.256 13.256" stroke-width="4.3732" stroke-linejoin="round"/><path d="M601.576 553.903v18.45" stroke-width="4.373"/></g><path fill="#b3b3b3" stroke="#333" stroke-width="1.589" stroke-linecap="round" stroke-linejoin="round" d="M567.865 564.517h67.423v109.092h-67.423z"/><path d="M301.429 350.934c0 6.311-5.117 11.428-11.429 11.428s-11.429-5.117-11.429-11.428c0-6.312 5.117-11.429 11.429-11.429s11.429 5.117 11.429 11.429z" transform="matrix(.43074 0 0 .43074 457.593 429.212)" opacity=".5" fill="#fff" filter="url(#i)"/></g><path d="M601.576 254.44v276.917" fill="none" stroke="#000" stroke-width="6" stroke-linecap="round"/><g transform="matrix(3 0 0 3 -95.153 222.08)" ns0:text="$\\unit[1]{kg}$" ns0:preamble="/home/waldgeist/sandbox/homepage/inkscape-preamble.tex"><defs><symbol overflow="visible" id="j"><path d="M2.938-6.375c0-.25 0-.266-.235-.266C2.078-6 1.203-6 .891-6v.313c.203 0 .78 0 1.296-.266v5.172c0 .36-.03.469-.921.469H.953V0c.344-.031 1.203-.031 1.61-.031.39 0 1.265 0 1.609.031v-.313h-.313c-.906 0-.921-.109-.921-.468z"/></symbol><symbol overflow="visible" id="k"><path d="M1.063-.75c0 .438-.11.438-.782.438V0c.328-.016.797-.031 1.078-.031.313 0 .704.015 1.11.031v-.313c-.672 0-.781 0-.781-.437v-1.031l.64-.547c.766 1.047 1.188 1.61 1.188 1.797 0 .187-.172.219-.36.219V0c.266-.016.86-.031 1.078-.031.282 0 .579.015.86.031v-.313c-.375 0-.594 0-.969-.53L2.859-2.626c-.015-.016-.062-.078-.062-.11 0-.03.719-.64.812-.718.625-.5 1.047-.531 1.25-.531v-.313c-.28.031-.406.031-.687.031-.36 0-.984-.015-1.125-.03v.312c.187 0 .297.109.297.25 0 .203-.14.312-.219.39L1.719-2.14v-4.78L.28-6.813v.312c.703 0 .781.063.781.563z"/></symbol><symbol overflow="visible" id="l"><path d="M2.219-1.719c-.875 0-.875-1-.875-1.218 0-.266.015-.594.156-.844.078-.11.313-.39.719-.39.86 0 .86.984.86 1.218 0 .265 0 .594-.157.844-.078.109-.313.39-.703.39zm-1.156.39c0-.03 0-.265.156-.468.39.281.812.313 1 .313.922 0 1.61-.688 1.61-1.454 0-.374-.157-.734-.407-.968.36-.344.719-.39.89-.39.032 0 .079 0 .11.015-.11.031-.172.14-.172.265 0 .172.14.282.297.282a.28.28 0 0 0 .281-.297c0-.172-.11-.485-.5-.485-.203 0-.64.063-1.062.47a1.652 1.652 0 0 0-1.047-.36c-.938 0-1.625.687-1.625 1.453 0 .437.219.812.469 1.031-.125.14-.313.469-.313.828 0 .313.14.688.453.89-.61.157-.922.595-.922.985 0 .719.985 1.266 2.203 1.266 1.172 0 2.204-.5 2.204-1.281 0-.344-.125-.86-.641-1.141-.531-.266-1.11-.266-1.719-.266-.25 0-.672 0-.75-.015-.312-.047-.516-.344-.516-.672zM2.5 1.829C1.484 1.828.797 1.312.797.781c0-.453.375-.828.812-.844h.594c.86 0 1.969 0 1.969.844 0 .547-.703 1.047-1.672 1.047z"/></symbol></defs><use height="1052.362" width="744.094" xlink:href="#j" x="223.432" y="134.765"/><use height="1052.362" width="744.094" xlink:href="#k" x="230.077" y="134.765"/><use height="1052.362" width="744.094" xlink:href="#l" x="235.335" y="134.765"/></g><g ns0:preamble="/home/waldgeist/sandbox/homepage/inkscape-preamble.tex" ns0:text="$\\unit[1]{kg}$"><use y="134.765" x="223.432" xlink:href="#j" width="744.094" height="1052.362" transform="matrix(3 0 0 3 -242.849 222.08)"/><g transform="matrix(3 0 0 3 -242.849 222.08)"><use y="134.765" x="230.077" xlink:href="#k" width="744.094" height="1052.362"/><use y="134.765" x="235.335" xlink:href="#l" width="744.094" height="1052.362"/></g></g><g ns0:text="$\\unit[1]{kg}$" ns0:preamble="/home/waldgeist/sandbox/homepage/inkscape-preamble.tex"><use height="1052.362" width="744.094" xlink:href="#j" x="223.432" y="134.765" transform="matrix(3 0 0 3 -582.515 227.923)"/><g transform="matrix(3 0 0 3 -582.515 227.923)"><use height="1052.362" width="744.094" xlink:href="#k" x="230.077" y="134.765"/><use height="1052.362" width="744.094" xlink:href="#l" x="235.335" y="134.765"/></g></g><g transform="matrix(3 0 0 3 -412.096 407.875)" ns0:preamble="/home/waldgeist/sandbox/homepage/inkscape-preamble.tex" ns0:text="$\\unit[2]{kg}$"><defs><symbol id="m" overflow="visible"><path d="M1.266-.766l1.062-1.03c1.547-1.376 2.14-1.907 2.14-2.907 0-1.14-.89-1.938-2.109-1.938C1.234-6.64.5-5.719.5-4.828c0 .547.5.547.531.547.172 0 .516-.11.516-.532a.513.513 0 0 0-.531-.515c-.079 0-.094 0-.125.016.218-.657.765-1.016 1.343-1.016.907 0 1.329.812 1.329 1.625 0 .797-.485 1.578-1.047 2.203L.609-.375C.5-.265.5-.235.5 0h3.703l.266-1.734h-.235C4.172-1.438 4.11-1 4-.844c-.063.078-.719.078-.938.078z"/></symbol><symbol id="n" overflow="visible"><path d="M1.063-.75c0 .438-.11.438-.782.438V0c.328-.016.797-.031 1.078-.031.313 0 .704.015 1.11.031v-.313c-.672 0-.781 0-.781-.437v-1.031l.64-.547c.766 1.047 1.188 1.61 1.188 1.797 0 .187-.172.219-.36.219V0c.266-.016.86-.031 1.078-.031.282 0 .579.015.86.031v-.313c-.375 0-.594 0-.969-.53L2.859-2.626c-.015-.016-.062-.078-.062-.11 0-.03.719-.64.812-.718.625-.5 1.047-.531 1.25-.531v-.313c-.28.031-.406.031-.687.031-.36 0-.984-.015-1.125-.03v.312c.187 0 .297.109.297.25 0 .203-.14.312-.219.39L1.719-2.14v-4.78L.28-6.813v.312c.703 0 .781.063.781.563z"/></symbol><symbol id="o" overflow="visible"><path d="M2.219-1.719c-.875 0-.875-1-.875-1.218 0-.266.015-.594.156-.844.078-.11.313-.39.719-.39.86 0 .86.984.86 1.218 0 .265 0 .594-.157.844-.078.109-.313.39-.703.39zm-1.156.39c0-.03 0-.265.156-.468.39.281.812.313 1 .313.922 0 1.61-.688 1.61-1.454 0-.374-.157-.734-.407-.968.36-.344.719-.39.89-.39.032 0 .079 0 .11.015-.11.031-.172.14-.172.265 0 .172.14.282.297.282a.28.28 0 0 0 .281-.297c0-.172-.11-.485-.5-.485-.203 0-.64.063-1.062.47a1.652 1.652 0 0 0-1.047-.36c-.938 0-1.625.687-1.625 1.453 0 .437.219.812.469 1.031-.125.14-.313.469-.313.828 0 .313.14.688.453.89-.61.157-.922.595-.922.985 0 .719.985 1.266 2.203 1.266 1.172 0 2.204-.5 2.204-1.281 0-.344-.125-.86-.641-1.141-.531-.266-1.11-.266-1.719-.266-.25 0-.672 0-.75-.015-.312-.047-.516-.344-.516-.672zM2.5 1.829C1.484 1.828.797 1.312.797.781c0-.453.375-.828.812-.844h.594c.86 0 1.969 0 1.969.844 0 .547-.703 1.047-1.672 1.047z"/></symbol></defs><use y="134.765" x="223.432" xlink:href="#m" width="744.094" height="1052.362"/><use y="134.765" x="230.077" xlink:href="#n" width="744.094" height="1052.362"/><use y="134.765" x="235.335" xlink:href="#o" width="744.094" height="1052.362"/></g></svg>