<svg xmlns="http://www.w3.org/2000/svg" xmlns:xlink="http://www.w3.org/1999/xlink" width="744.094" height="1052.362"><title>Flaschenzug (einfach)</title><defs><pattern xlink:href="#a" id="b" patternTransform="translate(.25)"/><pattern id="a" height="5.181" width="30.066" patternUnits="userSpaceOnUse"><path d="M7.597.061C5.079-.187 2.656.302-.01 1.788v1.273c2.783-1.63 5.183-2.009 7.482-1.781 2.298.228 4.497 1.081 6.781 1.938 4.567 1.713 9.551 3.458 15.813-.157l-.004-1.273c-6.44 3.709-10.816 1.982-15.371.273-2.278-.854-4.576-1.75-7.094-2z"/></pattern><linearGradient id="c"><stop offset="0" stop-color="#0e0e0e" stop-opacity=".746"/><stop offset="1" stop-color="#fff"/></linearGradient><linearGradient id="d"><stop offset="0" stop-color="#ebebeb"/><stop offset="1" stop-color="#fff" stop-opacity="0"/></linearGradient><linearGradient id="e"><stop offset="0" stop-opacity="0"/><stop offset="1" stop-color="#fff"/></linearGradient><linearGradient id="f"><stop offset="0" stop-color="#1a1a1a" stop-opacity=".828"/><stop offset="1" stop-color="#fff"/></linearGradient><linearGradient id="g"><stop offset="0" stop-color="#fff"/><stop offset="1" stop-color="#fff" stop-opacity="0"/></linearGradient><linearGradient id="h"><stop offset="0" stop-opacity="0"/><stop offset="1" stop-color="#fff"/></linearGradient><filter id="i" x="-.36" width="1.72" y="-.36" height="1.72"><feGaussianBlur stdDeviation="3.429"/></filter></defs><path fill="#fff" stroke="#fff" stroke-width="1.138" stroke-dasharray="1.13784456,1.13784456" d="M58.044 106.323h628.007V946.04H58.044z"/><path d="M258.996 190.895v-18.45" fill="none" stroke="#333" stroke-width="4.373" stroke-linecap="round"/><path fill="#4d4d4d" fill-rule="evenodd" stroke="#333" stroke-width="4.112" d="M124.191 146.099h496.054v32.017H124.191z"/><g fill="none" stroke="#333" stroke-linecap="round"><path d="M315.03 691.663c-7.32 0-13.255-5.935-13.255-13.257 0-7.32 5.935-13.256 13.256-13.256 7.321 0 13.256 5.935 13.256 13.256" stroke-width="4.3732" stroke-linejoin="round"/><path d="M315.03 691.663v18.449" stroke-width="4.373"/></g><path fill="#b3b3b3" stroke="#333" stroke-width="1.589" stroke-linecap="round" stroke-linejoin="round" d="M272.891 701.566h84.278V837.93h-84.278z"/><path d="M301.429 350.934c0 6.311-5.117 11.428-11.429 11.428s-11.429-5.117-11.429-11.428c0-6.312 5.117-11.429 11.429-11.429s11.429 5.117 11.429 11.429z" transform="matrix(.43074 0 0 .43074 169.048 570.971)" opacity=".5" fill="#fff" filter="url(#i)"/><g fill="#d40000" stroke="#d40000"><path d="M315.03 769.75v113.197" stroke-width="14.945"/><path d="M315.03 899.134l-2.678-4.64-2.679-4.64h10.716l-2.68 4.64z" stroke-width="14.953841"/></g><path d="M315.607 667.774v-66.963" fill="none" stroke="#000" stroke-width="6" stroke-linecap="round"/><path d="M372.218 500.733c0 31.273-25.346 56.625-56.611 56.625-31.265 0-56.611-25.352-56.611-56.625" fill="none" stroke="#000" stroke-width="6"/><path d="M372.218 500.733V313.78" fill="none" stroke="#000" stroke-width="6" stroke-linecap="round"/><path transform="matrix(-2.29664 0 0 2.2972 5802.773 201.8)" d="M2412.868 130.116a23.65 23.65 0 1 1-47.298 0 23.65 23.65 0 1 1 47.298 0z" fill="maroon" fill-rule="evenodd" stroke="#333" stroke-width="1.379"/><path fill="#4d4d4d" fill-rule="evenodd" stroke="#333" stroke-width="2.611" d="M330.456 501.982h-29.698v106.081h29.698z"/><path d="M2330.115 104.527a4.288 4.288 0 1 1-8.576 0 4.288 4.288 0 1 1 8.576 0z" transform="matrix(-3.16771 0 0 3.1685 7683.16 169.51)" fill="#fc0" fill-rule="evenodd" stroke="#000"/><path d="M485.44 280.37c0-31.273-25.346-56.625-56.611-56.625-31.265 0-56.61 25.352-56.61 56.625" fill="none" stroke="#000" stroke-width="6"/><path d="M372.218 280.37v88.952" fill="none" stroke="#000" stroke-width="6" stroke-linecap="round"/><path d="M258.996 361.471l-2.679 4.64-2.679 4.64h10.716l-2.68-4.64z" fill="#d40000" stroke="#d40000" stroke-width="14.953841"/><path d="M258.996 190.895a13.256 13.256 0 1 1 13.256 13.256" fill="none" stroke="#333" stroke-width="4.3732" stroke-linecap="round" stroke-linejoin="round"/><path d="M258.996 500.733V214.719" fill="none" stroke="#000" stroke-width="6" stroke-linecap="round"/><path d="M258.996 414.856v-37.198" fill="#d40000" stroke="#d40000" stroke-width="14.945" stroke-linecap="square"/><g fill="#d40000" stroke="#d40000"><path d="M372.218 414.373v-37.198" stroke-width="14.945" stroke-linecap="square"/><path d="M372.218 360.988l-2.679 4.64-2.679 4.64h10.716l-2.68-4.64z" stroke-width="14.953841"/></g><path d="M485.44 280.37v120.952" fill="none" stroke="#000" stroke-width="6" stroke-linecap="round"/><path transform="matrix(-2.29664 0 0 2.2972 5915.995 -18.236)" d="M2412.868 130.116a23.65 23.65 0 1 1-47.298 0 23.65 23.65 0 1 1 47.298 0z" fill="maroon" fill-rule="evenodd" stroke="#333" stroke-width="1.379"/><path fill="#4d4d4d" fill-rule="evenodd" stroke="#333" stroke-width="2.611" d="M443.678 174.87H413.98v106.081h29.698z"/><path d="M2330.115 104.527a4.288 4.288 0 1 1-8.576 0 4.288 4.288 0 1 1 8.576 0z" transform="matrix(-3.16771 0 0 3.1685 7796.381 -50.526)" fill="#fc0" fill-rule="evenodd" stroke="#000"/><g opacity=".5" fill="#d40000" stroke="#d40000"><path d="M485.44 407.44l-2.679-4.64-2.679-4.64h5.358l5.358.001-2.68 4.64z" stroke-width="14.953841"/><path d="M485.44 354.056v37.199" stroke-width="14.945" stroke-linecap="square"/></g></svg>