<svg xmlns="http://www.w3.org/2000/svg" xmlns:xlink="http://www.w3.org/1999/xlink" width="744.094" height="1052.362"><title>Flaschenzug (einfach)</title><defs><pattern xlink:href="#a" id="b" patternTransform="translate(.25)"/><pattern id="a" height="5.181" width="30.066" patternUnits="userSpaceOnUse"><path d="M7.597.061C5.079-.187 2.656.302-.01 1.788v1.273c2.783-1.63 5.183-2.009 7.482-1.781 2.298.228 4.497 1.081 6.781 1.938 4.567 1.713 9.551 3.458 15.813-.157l-.004-1.273c-6.44 3.709-10.816 1.982-15.371.273-2.278-.854-4.576-1.75-7.094-2z"/></pattern><linearGradient id="c"><stop offset="0" stop-color="#0e0e0e" stop-opacity=".746"/><stop offset="1" stop-color="#fff"/></linearGradient><linearGradient id="d"><stop offset="0" stop-color="#ebebeb"/><stop offset="1" stop-color="#fff" stop-opacity="0"/></linearGradient><linearGradient id="e"><stop offset="0" stop-opacity="0"/><stop offset="1" stop-color="#fff"/></linearGradient><linearGradient id="f"><stop offset="0" stop-color="#1a1a1a" stop-opacity=".828"/><stop offset="1" stop-color="#fff"/></linearGradient><linearGradient id="g"><stop offset="0" stop-color="#fff"/><stop offset="1" stop-color="#fff" stop-opacity="0"/></linearGradient><linearGradient id="h"><stop offset="0" stop-opacity="0"/><stop offset="1" stop-color="#fff"/></linearGradient><filter id="i" x="-.36" width="1.72" y="-.36" height="1.72"><feGaussianBlur stdDeviation="3.429"/></filter></defs><path fill="#fff" stroke="#fff" stroke-linecap="round" stroke-linejoin="round" d="M25.358 12.053h693.879v1028.256H25.358z"/><path fill="#fff" stroke="#fff" stroke-width="1.138" stroke-dasharray="1.13784457,1.13784457" d="M58.044 12.053h628.007v1028.256H58.044z"/><path d="M122.41 107.812a13.256 13.256 0 1 1 13.256 13.256" fill="none" stroke="#333" stroke-width="6.0000304" stroke-linecap="round" stroke-linejoin="round"/><g fill="none" stroke="#333" stroke-linecap="round"><path d="M310.077 796.517c-7.321 0-13.256-5.935-13.256-13.256 0-7.322 5.935-13.257 13.256-13.257 7.321 0 13.256 5.935 13.256 13.257" stroke-width="4.0003847" stroke-linejoin="round"/><path d="M310.077 796.517v18.45" stroke-width="4"/></g><path fill="#b3b3b3" stroke="#333" stroke-width="1.5" stroke-linecap="round" stroke-linejoin="round" d="M267.937 806.42h84.278v136.365h-84.278z"/><path d="M301.429 350.934c0 6.311-5.117 11.428-11.429 11.428s-11.429-5.117-11.429-11.428c0-6.312 5.117-11.429 11.429-11.429s11.429 5.117 11.429 11.429z" transform="matrix(.43074 0 0 .43074 164.094 675.825)" opacity=".5" fill="#fff" filter="url(#i)"/><g fill="#d40000" stroke="#d40000"><path d="M310.077 874.603v113.199" stroke-width="14.945"/><path d="M310.076 1003.988l-2.678-4.64-2.679-4.64h10.716l-2.68 4.64z" stroke-width="14.953841"/></g><path d="M310.077 772.628v-66.963" fill="none" stroke="#000" stroke-width="6" stroke-linecap="round"/><path d="M501.572 603.658c0 34.914-28.293 63.218-63.194 63.218-34.9 0-63.193-28.304-63.193-63.218" fill="none" stroke="#000" stroke-width="6"/><path d="M248.797 603.658V171.306" fill="none" stroke="#000" stroke-width="6" stroke-linecap="round"/><path d="M332.23 156.146h186.952" fill="none" stroke="#000" stroke-width="5.898" stroke-linecap="round" transform="matrix(-.1662 -1.55653 -.62029 .41707 811.05 914.305)"/><path d="M375.185 171.306c0-34.914-28.293-63.218-63.194-63.218s-63.194 28.304-63.194 63.218" fill="none" stroke="#000" stroke-width="6"/><path transform="matrix(-2.56369 0 0 2.56465 6437.208 -162.42)" d="M2412.868 130.116a23.65 23.65 0 1 1-47.298 0 23.65 23.65 0 1 1 47.298 0z" fill="maroon" fill-rule="evenodd" stroke="#333" stroke-width="1.17"/><path d="M332.23 156.146h186.952" fill="none" stroke="#000" stroke-width="3.945" stroke-linecap="round" transform="matrix(0 -2.31264 -1 0 531.33 1371.989)"/><g opacity=".5" fill="#d40000" stroke="#d40000"><path d="M658.976 462.302l-3.142-4.34-3.142-4.34 5.33-.55 5.329-.552-2.188 4.891z" stroke-width="14.953841"/><path d="M653.485 409.2l3.826 37.002" stroke-width="14.945" stroke-linecap="square"/></g><path fill="#4d4d4d" fill-rule="evenodd" stroke="#333" stroke-width="2" d="M324.926 606.836h-29.698v106.081h29.698z"/><g fill="#d40000" stroke="#d40000"><path d="M248.797 361.988l-2.679 4.64-2.679 4.64h10.716l-2.68-4.64z" stroke-width="14.953841"/><path d="M248.797 415.373v-37.198" stroke-width="14.945" stroke-linecap="square"/></g><g fill="#d40000" stroke="#d40000"><path d="M375.184 361.988l-2.678 4.64-2.68 4.64H380.543l-2.679-4.64z" stroke-width="14.953841"/><path d="M375.185 415.373v-37.198" stroke-width="14.945" stroke-linecap="square"/></g><path fill="#4d4d4d" fill-rule="evenodd" stroke="#333" stroke-width="2" d="M452.958 51.746h-27.167v117.772h27.167z"/><path d="M122.41 106.505v-35.2" fill="none" stroke="#333" stroke-width="6" stroke-linecap="round"/><path fill="#4d4d4d" fill-rule="evenodd" stroke="#333" stroke-width="2" d="M74.266 42.954h595.137v32.017H74.266z"/><path d="M2412.868 130.116a23.65 23.65 0 1 1-47.298 0 23.65 23.65 0 1 1 47.298 0z" transform="matrix(-2.56369 0 0 2.56465 6563.595 271.855)" fill="maroon" fill-rule="evenodd" stroke="#333" stroke-width="1.17"/><path d="M2412.868 130.116a23.65 23.65 0 1 1-47.298 0 23.65 23.65 0 1 1 47.298 0z" transform="matrix(-2.56369 0 0 2.56465 6689.926 -162.42)" fill="maroon" fill-rule="evenodd" stroke="#333" stroke-width="1.17"/><path fill="#4d4d4d" fill-rule="evenodd" stroke="#333" stroke-width="2" d="M313.734 157.7v27.167h251.28V157.7z"/><path d="M2330.115 104.527a4.288 4.288 0 1 1-8.576 0 4.288 4.288 0 1 1 8.576 0z" transform="matrix(-3.16771 0 0 3.1685 7679.543 -159.91)" fill="#fc0" fill-rule="evenodd" stroke="#000" stroke-width=".947"/><path d="M332.23 156.146h186.952" fill="none" stroke="#000" stroke-width="3.932" stroke-linecap="round" transform="matrix(0 -2.32868 -1 0 657.662 1380.015)"/><path transform="matrix(-3.16771 0 0 3.1685 7932.262 -159.91)" d="M2330.115 104.527a4.288 4.288 0 1 1-8.576 0 4.288 4.288 0 1 1 8.576 0z" fill="#fc0" fill-rule="evenodd" stroke="#000" stroke-width=".947"/><path d="M248.797 603.658c0 34.914-28.293 63.218-63.194 63.218-34.9 0-63.194-28.304-63.194-63.218" fill="none" stroke="#000" stroke-width="6"/><path d="M122.41 605.317V130.325" fill="none" stroke="#000" stroke-width="6" stroke-linecap="round"/><path transform="matrix(-2.56369 0 0 2.56465 6310.82 271.855)" d="M2412.868 130.116a23.65 23.65 0 1 1-47.298 0 23.65 23.65 0 1 1 47.298 0z" fill="maroon" fill-rule="evenodd" stroke="#333" stroke-width="1.17"/><path fill="#4d4d4d" fill-rule="evenodd" stroke="#333" stroke-width="2" d="M186.916 592.034v27.049h252.776v-27.049z"/><path transform="matrix(-3.16771 0 0 3.1685 7553.155 274.364)" d="M2330.115 104.527a4.288 4.288 0 1 1-8.576 0 4.288 4.288 0 1 1 8.576 0z" fill="#fc0" fill-rule="evenodd" stroke="#000" stroke-width=".947"/><path d="M627.903 171.306c0-34.914-28.292-63.218-63.193-63.218-34.901 0-63.194 28.304-63.194 63.218" fill="none" stroke="#000" stroke-width="6"/><path d="M2330.115 104.527a4.288 4.288 0 1 1-8.576 0 4.288 4.288 0 1 1 8.576 0z" transform="matrix(-3.16771 0 0 3.1685 7805.93 274.364)" fill="#fc0" fill-rule="evenodd" stroke="#000" stroke-width=".947"/><g fill="#d40000" stroke="#d40000"><path d="M122.41 415.373v-37.198" stroke-width="14.945" stroke-linecap="square"/><path d="M122.41 361.989l-2.68 4.64-2.678 4.64h10.715l-2.679-4.64z" stroke-width="14.953841"/></g><g fill="#d40000" stroke="#d40000"><path d="M501.516 361.988l-2.68 4.64-2.678 4.64h10.716l-2.68-4.64z" stroke-width="14.953841"/><path d="M501.516 415.373v-37.198" stroke-width="14.945" stroke-linecap="square"/></g></svg>