<svg xmlns="http://www.w3.org/2000/svg" xmlns:xlink="http://www.w3.org/1999/xlink" width="744.094" height="1052.362"><title>Flaschenzug (einfach)</title><defs><pattern xlink:href="#a" id="b" patternTransform="translate(.25)"/><pattern id="a" height="5.181" width="30.066" patternUnits="userSpaceOnUse"><path d="M7.597.061C5.079-.187 2.656.302-.01 1.788v1.273c2.783-1.63 5.183-2.009 7.482-1.781 2.298.228 4.497 1.081 6.781 1.938 4.567 1.713 9.551 3.458 15.813-.157l-.004-1.273c-6.44 3.709-10.816 1.982-15.371.273-2.278-.854-4.576-1.75-7.094-2z"/></pattern><linearGradient id="c"><stop offset="0" stop-color="#0e0e0e" stop-opacity=".746"/><stop offset="1" stop-color="#fff"/></linearGradient><linearGradient id="d"><stop offset="0" stop-color="#ebebeb"/><stop offset="1" stop-color="#fff" stop-opacity="0"/></linearGradient><linearGradient id="e"><stop offset="0" stop-opacity="0"/><stop offset="1" stop-color="#fff"/></linearGradient><linearGradient id="f"><stop offset="0" stop-color="#1a1a1a" stop-opacity=".828"/><stop offset="1" stop-color="#fff"/></linearGradient><linearGradient id="g"><stop offset="0" stop-color="#fff"/><stop offset="1" stop-color="#fff" stop-opacity="0"/></linearGradient><linearGradient id="h"><stop offset="0" stop-opacity="0"/><stop offset="1" stop-color="#fff"/></linearGradient><filter id="i" x="-.36" width="1.72" y="-.36" height="1.72"><feGaussianBlur stdDeviation="3.429"/></filter></defs><path fill="#fff" stroke="#fff" stroke-linecap="round" stroke-linejoin="round" d="M25.108 12.053h693.879v1028.256H25.108z"/><path fill="#fff" stroke="#fff" stroke-width="1.138" stroke-dasharray="1.13784456,1.13784456" d="M58.044 121.177h628.007v839.717H58.044z"/><g fill="none" stroke="#333" stroke-linecap="round"><path d="M372.218 796.517c-7.321 0-13.256-5.935-13.256-13.256 0-7.322 5.935-13.257 13.256-13.257 7.321 0 13.256 5.935 13.256 13.257" stroke-width="4.0003847" stroke-linejoin="round"/><path d="M372.218 796.517v18.45" stroke-width="4"/></g><path fill="#b3b3b3" stroke="#333" stroke-width="1.5" stroke-linecap="round" stroke-linejoin="round" d="M330.079 806.42h84.278v136.365h-84.278z"/><path d="M301.429 350.934c0 6.311-5.117 11.428-11.429 11.428s-11.429-5.117-11.429-11.428c0-6.312 5.117-11.429 11.429-11.429s11.429 5.117 11.429 11.429z" transform="matrix(.43074 0 0 .43074 226.235 675.825)" opacity=".5" fill="#fff" filter="url(#i)"/><g fill="#d40000" stroke="#d40000"><path d="M372.218 874.603v113.199" stroke-width="14.945"/><path d="M372.218 1003.988l-2.679-4.64-2.679-4.64h10.716l-2.68 4.64z" stroke-width="14.953841"/></g><path d="M372.218 772.628v-66.963" fill="none" stroke="#000" stroke-width="6" stroke-linecap="round"/><path d="M435.412 603.304c0 34.914-28.293 63.217-63.194 63.217-34.9 0-63.194-28.303-63.194-63.217" fill="none" stroke="#000" stroke-width="6"/><path d="M309.024 603.304V170.95M476.784 322.556l-48.387-180.581" fill="none" stroke="#000" stroke-width="6" stroke-linecap="round"/><path d="M332.23 156.146l318.925 14.614" fill="none" stroke="#000" stroke-width="5" stroke-linecap="round" transform="matrix(0 -.99284 -1.45046 0 661.895 933.156)"/><path d="M414.216 493.236c0 22.871-18.803 41.412-41.998 41.412-23.195 0-41.998-18.54-41.998-41.412" fill="none" stroke="#000" stroke-width="6" stroke-linecap="round"/><path d="M435.412 170.951c0-34.914-28.293-63.217-63.194-63.217-34.9 0-63.194 28.303-63.194 63.217" fill="none" stroke="#000" stroke-width="6"/><path d="M414.216 286.662c0-22.87-18.803-41.411-41.998-41.411-23.195 0-41.998 18.54-41.998 41.411M372.218 177.224v88.952" fill="none" stroke="#000" stroke-width="6" stroke-linecap="round"/><g fill="#d40000" stroke="#d40000"><path d="M309.025 445.698V408.5" stroke-width="14.945" stroke-linecap="square"/><path d="M309.024 392.313l-2.678 4.64-2.68 4.64H314.383l-2.679-4.64z" stroke-width="14.953841"/></g><path d="M476.784 322.556l31.305 116.83" fill="none" stroke="#000" stroke-width="6" stroke-linecap="round"/><path transform="matrix(-2.56369 0 0 2.56465 6497.435 -162.42)" d="M2412.868 130.116a23.65 23.65 0 1 1-47.298 0 23.65 23.65 0 1 1 47.298 0z" fill="maroon" fill-rule="evenodd" stroke="#333" stroke-width="1.17"/><path d="M332.23 156.146h186.952" fill="none" stroke="#000" stroke-width="5.708" stroke-linecap="round" transform="matrix(0 -1.10496 -1 0 486.367 860.337)"/><path d="M2412.868 130.116a23.65 23.65 0 1 1-47.298 0 23.65 23.65 0 1 1 47.298 0z" transform="matrix(-1.68998 0 0 1.6904 4409.943 69.107)" fill="maroon" fill-rule="evenodd" stroke="#333" stroke-width="1.775"/><g opacity=".5" fill="#d40000" stroke="#d40000"><path d="M510.534 448.338l-3.807-3.77-3.807-3.77 5.169-1.411 5.168-1.413-1.361 5.182z" stroke-width="14.953841"/><path d="M496.463 396.842l9.805 35.883" stroke-width="14.945" stroke-linecap="square"/></g><path d="M372.218 339.15a13.256 13.256 0 1 1 13.256 13.256" fill="none" stroke="#333" stroke-width="6.0000304" stroke-linecap="round" stroke-linejoin="round"/><path d="M372.218 337.843v-35.2" fill="none" stroke="#333" stroke-width="6" stroke-linecap="round"/><path d="M414.216 493.236c.12-21.917-27.739-84.83-41.998-127.574" fill="none" stroke="#000" stroke-width="6" stroke-linecap="round"/><path transform="matrix(-1.68998 0 0 1.6904 4409.943 272.812)" d="M2412.868 130.116a23.65 23.65 0 1 1-47.298 0 23.65 23.65 0 1 1 47.298 0z" fill="maroon" fill-rule="evenodd" stroke="#333" stroke-width="1.775"/><path d="M2412.868 130.116a23.65 23.65 0 1 1-47.298 0 23.65 23.65 0 1 1 47.298 0z" transform="matrix(-2.56369 0 0 2.56465 6497.435 270.53)" fill="maroon" fill-rule="evenodd" stroke="#333" stroke-width="1.17"/><path fill="#4d4d4d" fill-rule="evenodd" stroke="#333" stroke-width="2" d="M387.067 606.836h-29.698v106.081h29.698z"/><g fill="#d40000" stroke="#d40000"><path d="M424.948 392.313l-2.679 4.64-2.678 4.64h10.715l-2.679-4.64z" stroke-width="14.953841"/><path d="M424.948 445.698V408.5" stroke-width="14.945" stroke-linecap="square"/></g><g fill="#d40000" stroke="#d40000"><path d="M330.22 392.313l-2.679 4.64-2.678 4.64h10.715l-2.679-4.64z" stroke-width="14.953841"/><path d="M330.22 445.698V408.5" stroke-width="14.945" stroke-linecap="square"/></g><g fill="#d40000" stroke="#d40000"><path d="M393.937 392.313l-2.679 4.64-2.678 4.64h10.715l-2.679-4.64z" stroke-width="14.953841"/><path d="M393.937 445.698V408.5" stroke-width="14.945" stroke-linecap="square"/></g><path fill="#4d4d4d" fill-rule="evenodd" stroke="#333" stroke-width="2" d="M385.801 51.746h-27.167v117.772h27.167z"/><path fill="#4d4d4d" fill-rule="evenodd" stroke="#333" stroke-width="2" d="M124.191 42.954h496.054v32.017H124.191zM385.802 171.284h-27.167v117.772h27.167z"/><path transform="matrix(-3.16771 0 0 3.1685 7739.77 -42.138)" d="M2330.115 104.527a4.288 4.288 0 1 1-8.576 0 4.288 4.288 0 1 1 8.576 0z" fill="#fc0" fill-rule="evenodd" stroke="#000" stroke-width=".947"/><path d="M2330.115 104.527a4.288 4.288 0 1 1-8.576 0 4.288 4.288 0 1 1 8.576 0z" transform="matrix(-3.16771 0 0 3.1685 7739.77 -159.91)" fill="#fc0" fill-rule="evenodd" stroke="#000" stroke-width=".947"/><path fill="#4d4d4d" fill-rule="evenodd" stroke="#333" stroke-width="2" d="M385.742 492.76h-27.049v114.076h27.049z"/><path d="M2330.115 104.527a4.288 4.288 0 1 1-8.576 0 4.288 4.288 0 1 1 8.576 0z" transform="matrix(-3.16771 0 0 3.1685 7739.77 161.566)" fill="#fc0" fill-rule="evenodd" stroke="#000" stroke-width=".947"/><path d="M2330.115 104.527a4.288 4.288 0 1 1-8.576 0 4.288 4.288 0 1 1 8.576 0z" transform="matrix(-3.16771 0 0 3.1685 7739.77 274.364)" fill="#fc0" fill-rule="evenodd" stroke="#000" stroke-width=".947"/></svg>