<svg xmlns:ns0="http://www.iki.fi/pav/software/textext/" xmlns="http://www.w3.org/2000/svg" xmlns:xlink="http://www.w3.org/1999/xlink" width="210mm" height="297mm"><title>Hebel-Aufgabe 03</title><defs><filter color-interpolation-filters="sRGB" id="a" x="-.36" width="1.72" y="-.36" height="1.72"><feGaussianBlur stdDeviation="3.429"/></filter></defs><path fill="#fff" stroke="#fff" stroke-width="1.581" stroke-linejoin="round" d="M121.094 684.107H623V452.406H121.094z"/><rect y="521.498" x="186.925" height="11.757" width="370.245" rx="5.39" ry="4.166" fill="#b3b3b3" fill-rule="evenodd" stroke="#000" stroke-width="1.089"/><g fill="none" stroke="#333" stroke-linecap="round"><path d="M283.465 577.354a2.229 2.229 0 1 1 2.228-2.228" stroke-width=".7352" stroke-linejoin="round"/><path d="M283.465 577.354v3.102" stroke-width=".7351450300000001"/></g><path fill="#999" stroke="#333" stroke-width=".57123778" stroke-linecap="round" stroke-linejoin="round" d="M276.38 579.02h14.169v22.924H276.38z"/><path d="M301.429 350.934c0 6.311-5.117 11.428-11.429 11.428s-11.429-5.117-11.429-11.428c0-6.312 5.117-11.429 11.429-11.429s11.429 5.117 11.429 11.429z" transform="translate(258.923 557.065) scale(.07241)" opacity=".5" fill="#fff" filter="url(#a)"/><g stroke="green"><g fill="green"><path d="M287.008 511.378l78.805.018" stroke-width="1.49991072"/><path d="M371.462 511.397l-2.825-1.631-2.824-1.631v6.523l2.824-1.63z" stroke-width="1.00007892"/></g><path d="M284.422 511.397l2.824-1.631 2.825-1.631v6.523l-2.824-1.63z" fill="green" stroke-width="1.00007892"/></g><path style="marker:none" d="M377.362 527.377a5.315 5.315 0 1 1-10.63 0 5.315 5.315 0 1 1 10.63 0z" color="#000" fill="#fc0" stroke="#000" overflow="visible" enable-background="accumulate"/><path d="M283.465 527.377v46.063M318.898 527.377v46.063M416.495 527.377v46.063M505.13 527.377v46.063" fill="none" stroke="#000" stroke-linecap="round"/><g fill="none" stroke="#333" stroke-linecap="round"><path d="M318.898 577.354a2.229 2.229 0 1 1 2.228-2.228" stroke-width=".7352" stroke-linejoin="round"/><path d="M318.898 577.354v3.102" stroke-width=".7351450300000001"/></g><path fill="#999" stroke="#333" stroke-width=".57123778" stroke-linecap="round" stroke-linejoin="round" d="M311.814 579.02h14.168v28.655h-14.168z"/><path d="M301.429 350.934c0 6.311-5.117 11.428-11.429 11.428s-11.429-5.117-11.429-11.428c0-6.312 5.117-11.429 11.429-11.429s11.429 5.117 11.429 11.429z" transform="translate(294.356 557.065) scale(.07241)" opacity=".5" fill="#fff" filter="url(#a)"/><g fill="none" stroke="#333" stroke-linecap="round"><path d="M505.13 577.354a2.229 2.229 0 1 1 2.228-2.228" stroke-width=".7352" stroke-linejoin="round"/><path d="M505.13 577.354v3.102" stroke-width=".7351450300000001"/></g><path fill="#999" stroke="#333" stroke-width=".57123778" stroke-linecap="round" stroke-linejoin="round" d="M498.045 579.02h14.168v11.461h-14.168z"/><path d="M301.429 350.934c0 6.311-5.117 11.428-11.429 11.428s-11.429-5.117-11.429-11.428c0-6.312 5.117-11.429 11.429-11.429s11.429 5.117 11.429 11.429z" transform="translate(480.588 557.065) scale(.07241)" opacity=".5" fill="#fff" filter="url(#a)"/><g stroke="green"><g fill="green"><path d="M321.589 489.255l44.224.018" stroke-width="1.49991072"/><path d="M371.462 489.274l-2.825-1.631-2.824-1.631v6.523l2.824-1.63z" stroke-width="1.00007892"/></g><path d="M319.606 489.274l2.824-1.631 2.824-1.631v3.261l.001 3.262-2.825-1.63z" fill="green" stroke-width="1.00007892"/></g><g ns0:text="$\\vec{s}_{\\rm{1}} = \\unit[0,5]{m}$" ns0:preamble="/home/waldgeist/data/sphinx/inkscape-preamble.tex" transform="translate(61.079 359.664) scale(1.08049)" fill="green" stroke="green" stroke-width="4"><defs><symbol overflow="visible" id="b"><path d="M5.36-5.938c-.141.141-.47.422-.47.594 0 .094.094.203.188.203s.14-.078.203-.14c.11-.14.344-.422.782-.64.062-.048.171-.095.171-.204 0-.11-.078-.156-.14-.203a1.034 1.034 0 0 1-.407-.563c-.03-.093-.062-.234-.203-.234-.14 0-.203.14-.203.219 0 .047.078.36.235.578h-3.36c-.156 0-.344 0-.344.203 0 .188.188.188.344.188z" stroke="none"/></symbol><symbol overflow="visible" id="c"><path d="M3.89-3.734c-.265.015-.468.234-.468.453 0 .14.094.297.312.297.22 0 .454-.172.454-.563 0-.453-.422-.86-1.188-.86-1.313 0-1.688 1.016-1.688 1.454 0 .781.735.922 1.032.984.515.11 1.031.219 1.031.766 0 .25-.219 1.094-1.422 1.094-.14 0-.906 0-1.14-.532.39.047.64-.25.64-.53 0-.22-.172-.345-.375-.345-.266 0-.562.204-.562.657 0 .562.578.968 1.421.968 1.625 0 2.016-1.203 2.016-1.656a.97.97 0 0 0-.312-.719c-.266-.28-.563-.343-1-.421-.36-.079-.75-.157-.75-.61 0-.281.234-.89 1.109-.89.25 0 .75.078.89.453z" stroke="none"/></symbol><symbol overflow="visible" id="g"><path d="M2.031-.016c0-.656-.25-1.046-.64-1.046a.517.517 0 0 0-.532.53c0 .266.204.532.532.532a.58.58 0 0 0 .343-.125c.032-.031.047-.031.047-.031.016 0 .016 0 .016.14 0 .75-.344 1.344-.672 1.672-.11.11-.11.125-.11.157 0 .078.048.109.094.109.11 0 .922-.766.922-1.938z" stroke="none"/></symbol><symbol overflow="visible" id="d"><path d="M2.328-4.438c0-.187 0-.187-.203-.187-.453.438-1.078.438-1.36.438v.25c.157 0 .626 0 1-.188v3.547c0 .234 0 .328-.687.328H.812V0c.125 0 .985-.031 1.235-.031.219 0 1.094.031 1.25.031v-.25H3.03c-.703 0-.703-.094-.703-.328z" stroke="none"/></symbol><symbol overflow="visible" id="e"><path d="M6.844-3.266c.156 0 .343 0 .343-.187 0-.203-.187-.203-.328-.203H.891c-.141 0-.329 0-.329.203 0 .187.188.187.329.187zm.015 1.938c.141 0 .329 0 .329-.203 0-.188-.188-.188-.344-.188H.89c-.141 0-.329 0-.329.188 0 .203.188.203.329.203z" stroke="none"/></symbol><symbol overflow="visible" id="f"><path d="M4.578-3.188c0-.796-.047-1.593-.39-2.328C3.733-6.484 2.905-6.64 2.5-6.64c-.61 0-1.328.266-1.75 1.188-.313.687-.36 1.469-.36 2.266 0 .75.032 1.64.454 2.406a1.83 1.83 0 0 0 1.64 1c.532 0 1.297-.203 1.735-1.157.312-.687.36-1.468.36-2.25zM2.484 0c-.39 0-.984-.25-1.156-1.203-.11-.594-.11-1.516-.11-2.11 0-.64 0-1.296.079-1.828.187-1.187.937-1.28 1.187-1.28.329 0 .985.187 1.172 1.171.11.563.11 1.313.11 1.938 0 .75 0 1.421-.11 2.062C3.5-.297 2.937 0 2.484 0z" stroke="none"/></symbol><symbol overflow="visible" id="h"><path d="M4.469-2c0-1.188-.813-2.188-1.89-2.188-.47 0-.907.157-1.267.516v-1.953c.204.063.532.125.844.125 1.235 0 1.938-.906 1.938-1.031 0-.063-.032-.11-.11-.11 0 0-.03 0-.078.032a3.22 3.22 0 0 1-1.36.296c-.39 0-.858-.078-1.327-.28-.078-.032-.094-.032-.11-.032C1-6.625 1-6.547 1-6.391v2.954c0 .171 0 .25.14.25.079 0 .094-.016.141-.079.11-.156.469-.703 1.282-.703.515 0 .765.453.843.64.156.376.188.75.188 1.25 0 .36 0 .954-.25 1.376-.235.39-.61.64-1.063.64-.719 0-1.297-.53-1.469-1.109.032 0 .063.016.172.016.329 0 .5-.25.5-.485 0-.25-.171-.5-.5-.5-.14 0-.484.079-.484.532C.5-.75 1.188.219 2.297.219 3.453.219 4.469-.734 4.469-2z" stroke="none"/></symbol><symbol overflow="visible" id="i"><path d="M1.094-3.422V-.75c0 .438-.11.438-.782.438V0c.36-.016.86-.031 1.141-.031.25 0 .766.015 1.11.031v-.313c-.672 0-.782 0-.782-.437v-1.844c0-1.031.719-1.594 1.344-1.594.64 0 .75.532.75 1.11V-.75c0 .438-.11.438-.781.438V0c.344-.016.86-.031 1.125-.031.25 0 .781.015 1.11.031v-.313c-.657 0-.766 0-.766-.437v-1.844c0-1.031.703-1.594 1.343-1.594.625 0 .735.532.735 1.11V-.75c0 .438-.11.438-.782.438V0c.344-.016.86-.031 1.125-.031.266 0 .782.015 1.125.031v-.313c-.515 0-.765 0-.78-.296v-1.907c0-.859 0-1.156-.313-1.515-.141-.172-.47-.375-1.047-.375-.828 0-1.282.593-1.438.984-.14-.875-.875-.984-1.328-.984-.734 0-1.203.422-1.484 1.047v-1.047l-1.407.11v.312c.704 0 .782.062.782.562z" stroke="none"/></symbol></defs><use height="1052.362" width="744.094" xlink:href="#b" x="223.064" y="134.765"/><use height="1052.362" width="744.094" xlink:href="#c" x="223.433" y="134.765"/><use height="1052.362" width="744.094" xlink:href="#d" x="228.102" y="136.259"/><use height="1052.362" width="744.094" xlink:href="#e" x="235.339" y="134.765"/><use height="1052.362" width="744.094" xlink:href="#f" x="245.858" y="134.765"/><use height="1052.362" width="744.094" xlink:href="#g" x="250.836" y="134.765"/><use height="1052.362" width="744.094" xlink:href="#h" x="255.264" y="134.765"/><use height="1052.362" width="744.094" xlink:href="#i" x="261.909" y="134.765"/></g><g transform="translate(78.542 335.95) scale(1.08049)" ns0:preamble="/home/waldgeist/data/sphinx/inkscape-preamble.tex" ns0:text="$\\vec{s}_{\\rm{2}} = \\unit[0,3]{m}$" fill="green" stroke="green" stroke-width="4"><defs><symbol id="j" overflow="visible"><path d="M5.36-5.938c-.141.141-.47.422-.47.594 0 .094.094.203.188.203s.14-.078.203-.14c.11-.14.344-.422.782-.64.062-.048.171-.095.171-.204 0-.11-.078-.156-.14-.203a1.034 1.034 0 0 1-.407-.563c-.03-.093-.062-.234-.203-.234-.14 0-.203.14-.203.219 0 .047.078.36.235.578h-3.36c-.156 0-.344 0-.344.203 0 .188.188.188.344.188z" stroke="none"/></symbol><symbol id="k" overflow="visible"><path d="M3.89-3.734c-.265.015-.468.234-.468.453 0 .14.094.297.312.297.22 0 .454-.172.454-.563 0-.453-.422-.86-1.188-.86-1.313 0-1.688 1.016-1.688 1.454 0 .781.735.922 1.032.984.515.11 1.031.219 1.031.766 0 .25-.219 1.094-1.422 1.094-.14 0-.906 0-1.14-.532.39.047.64-.25.64-.53 0-.22-.172-.345-.375-.345-.266 0-.562.204-.562.657 0 .562.578.968 1.421.968 1.625 0 2.016-1.203 2.016-1.656a.97.97 0 0 0-.312-.719c-.266-.28-.563-.343-1-.421-.36-.079-.75-.157-.75-.61 0-.281.234-.89 1.109-.89.25 0 .75.078.89.453z" stroke="none"/></symbol><symbol id="o" overflow="visible"><path d="M2.031-.016c0-.656-.25-1.046-.64-1.046a.517.517 0 0 0-.532.53c0 .266.204.532.532.532a.58.58 0 0 0 .343-.125c.032-.031.047-.031.047-.031.016 0 .016 0 .016.14 0 .75-.344 1.344-.672 1.672-.11.11-.11.125-.11.157 0 .078.048.109.094.109.11 0 .922-.766.922-1.938z" stroke="none"/></symbol><symbol id="l" overflow="visible"><path d="M3.516-1.266H3.28c-.015.157-.094.563-.187.625-.047.047-.578.047-.688.047H1.125c.734-.64.984-.844 1.39-1.172.516-.406 1-.843 1-1.5 0-.843-.734-1.359-1.624-1.359-.86 0-1.454.61-1.454 1.25 0 .344.297.39.376.39.156 0 .359-.124.359-.374 0-.125-.047-.375-.406-.375.218-.485.687-.641 1.015-.641.703 0 1.063.547 1.063 1.11 0 .609-.438 1.078-.656 1.328L.516-.266C.437-.203.437-.187.437 0h2.876z" stroke="none"/></symbol><symbol id="m" overflow="visible"><path d="M6.844-3.266c.156 0 .343 0 .343-.187 0-.203-.187-.203-.328-.203H.891c-.141 0-.329 0-.329.203 0 .187.188.187.329.187zm.015 1.938c.141 0 .329 0 .329-.203 0-.188-.188-.188-.344-.188H.89c-.141 0-.329 0-.329.188 0 .203.188.203.329.203z" stroke="none"/></symbol><symbol id="n" overflow="visible"><path d="M4.578-3.188c0-.796-.047-1.593-.39-2.328C3.733-6.484 2.905-6.64 2.5-6.64c-.61 0-1.328.266-1.75 1.188-.313.687-.36 1.469-.36 2.266 0 .75.032 1.64.454 2.406a1.83 1.83 0 0 0 1.64 1c.532 0 1.297-.203 1.735-1.157.312-.687.36-1.468.36-2.25zM2.484 0c-.39 0-.984-.25-1.156-1.203-.11-.594-.11-1.516-.11-2.11 0-.64 0-1.296.079-1.828.187-1.187.937-1.28 1.187-1.28.329 0 .985.187 1.172 1.171.11.563.11 1.313.11 1.938 0 .75 0 1.421-.11 2.062C3.5-.297 2.937 0 2.484 0z" stroke="none"/></symbol><symbol id="p" overflow="visible"><path d="M2.89-3.516c.813-.265 1.391-.953 1.391-1.75 0-.812-.875-1.375-1.828-1.375-1 0-1.765.594-1.765 1.36 0 .328.218.515.515.515.297 0 .5-.218.5-.515 0-.485-.469-.485-.61-.485.298-.5.954-.625 1.313-.625.422 0 .969.22.969 1.11 0 .125-.031.703-.281 1.14-.297.485-.64.516-.89.516a3.29 3.29 0 0 1-.392.031c-.078.016-.14.031-.14.125 0 .11.062.11.234.11h.438c.812 0 1.187.671 1.187 1.656 0 1.36-.687 1.64-1.125 1.64-.437 0-1.187-.171-1.531-.75.344.047.656-.171.656-.546a.537.537 0 0 0-.547-.563c-.25 0-.562.14-.562.578C.422-.437 1.344.22 2.437.22c1.22 0 2.126-.906 2.126-1.922 0-.813-.641-1.594-1.672-1.813z" stroke="none"/></symbol><symbol id="q" overflow="visible"><path d="M1.094-3.422V-.75c0 .438-.11.438-.782.438V0c.36-.016.86-.031 1.141-.031.25 0 .766.015 1.11.031v-.313c-.672 0-.782 0-.782-.437v-1.844c0-1.031.719-1.594 1.344-1.594.64 0 .75.532.75 1.11V-.75c0 .438-.11.438-.781.438V0c.344-.016.86-.031 1.125-.031.25 0 .781.015 1.11.031v-.313c-.657 0-.766 0-.766-.437v-1.844c0-1.031.703-1.594 1.343-1.594.625 0 .735.532.735 1.11V-.75c0 .438-.11.438-.782.438V0c.344-.016.86-.031 1.125-.031.266 0 .782.015 1.125.031v-.313c-.515 0-.765 0-.78-.296v-1.907c0-.859 0-1.156-.313-1.515-.141-.172-.47-.375-1.047-.375-.828 0-1.282.593-1.438.984-.14-.875-.875-.984-1.328-.984-.734 0-1.203.422-1.484 1.047v-1.047l-1.407.11v.312c.704 0 .782.062.782.562z" stroke="none"/></symbol></defs><use y="134.765" x="223.064" xlink:href="#j" width="744.094" height="1052.362"/><use y="134.765" x="223.433" xlink:href="#k" width="744.094" height="1052.362"/><use y="136.259" x="228.102" xlink:href="#l" width="744.094" height="1052.362"/><use y="134.765" x="235.339" xlink:href="#m" width="744.094" height="1052.362"/><use y="134.765" x="245.858" xlink:href="#n" width="744.094" height="1052.362"/><use y="134.765" x="250.836" xlink:href="#o" width="744.094" height="1052.362"/><use y="134.765" x="255.264" xlink:href="#p" width="744.094" height="1052.362"/><use y="134.765" x="261.909" xlink:href="#q" width="744.094" height="1052.362"/></g><g stroke="green" stroke-width=".978"><g fill="green"><path d="M378.506 511.377l120.289.02" stroke-width="1.4999156699999998"/><path d="M504.573 511.397l-2.889-1.668-2.889-1.669v6.672l2.889-1.668z" stroke-width="1.00002219"/></g><path d="M372.728 511.397l2.89-1.668 2.888-1.669v6.672l-2.888-1.668z" fill="green" stroke-width="1.00002219"/></g><g ns0:text="$\\vec{s}_{\\rm{3}} = \\unit[0,75]{m}$" ns0:preamble="/home/waldgeist/data/sphinx/inkscape-preamble.tex" transform="translate(169.096 359.664) scale(1.08049)" fill="green" stroke="green" stroke-width="4"><defs><symbol overflow="visible" id="r"><path d="M5.36-5.938c-.141.141-.47.422-.47.594 0 .094.094.203.188.203s.14-.078.203-.14c.11-.14.344-.422.782-.64.062-.048.171-.095.171-.204 0-.11-.078-.156-.14-.203a1.034 1.034 0 0 1-.407-.563c-.03-.093-.062-.234-.203-.234-.14 0-.203.14-.203.219 0 .047.078.36.235.578h-3.36c-.156 0-.344 0-.344.203 0 .188.188.188.344.188z" stroke="none"/></symbol><symbol overflow="visible" id="s"><path d="M3.89-3.734c-.265.015-.468.234-.468.453 0 .14.094.297.312.297.22 0 .454-.172.454-.563 0-.453-.422-.86-1.188-.86-1.313 0-1.688 1.016-1.688 1.454 0 .781.735.922 1.032.984.515.11 1.031.219 1.031.766 0 .25-.219 1.094-1.422 1.094-.14 0-.906 0-1.14-.532.39.047.64-.25.64-.53 0-.22-.172-.345-.375-.345-.266 0-.562.204-.562.657 0 .562.578.968 1.421.968 1.625 0 2.016-1.203 2.016-1.656a.97.97 0 0 0-.312-.719c-.266-.28-.563-.343-1-.421-.36-.079-.75-.157-.75-.61 0-.281.234-.89 1.109-.89.25 0 .75.078.89.453z" stroke="none"/></symbol><symbol overflow="visible" id="w"><path d="M2.031-.016c0-.656-.25-1.046-.64-1.046a.517.517 0 0 0-.532.53c0 .266.204.532.532.532a.58.58 0 0 0 .343-.125c.032-.031.047-.031.047-.031.016 0 .016 0 .016.14 0 .75-.344 1.344-.672 1.672-.11.11-.11.125-.11.157 0 .078.048.109.094.109.11 0 .922-.766.922-1.938z" stroke="none"/></symbol><symbol overflow="visible" id="t"><path d="M1.906-2.328c.547 0 .938.375.938 1.125 0 .86-.516 1.125-.906 1.125-.282 0-.907-.078-1.188-.5.328 0 .406-.235.406-.39 0-.22-.172-.376-.39-.376a.38.38 0 0 0-.391.407C.375-.281 1.094.14 1.938.14c.968 0 1.64-.657 1.64-1.344 0-.547-.437-1.094-1.203-1.25.719-.266.984-.781.984-1.219 0-.547-.625-.953-1.406-.953-.766 0-1.36.375-1.36.938 0 .234.157.359.36.359.219 0 .36-.156.36-.344 0-.203-.141-.36-.36-.375.25-.297.719-.375.985-.375.312 0 .75.156.75.75 0 .297-.094.625-.282.828-.219.266-.422.281-.765.313-.172.015-.188.015-.22.015-.015 0-.077.016-.077.094 0 .094.062.094.187.094z" stroke="none"/></symbol><symbol overflow="visible" id="u"><path d="M6.844-3.266c.156 0 .343 0 .343-.187 0-.203-.187-.203-.328-.203H.891c-.141 0-.329 0-.329.203 0 .187.188.187.329.187zm.015 1.938c.141 0 .329 0 .329-.203 0-.188-.188-.188-.344-.188H.89c-.141 0-.329 0-.329.188 0 .203.188.203.329.203z" stroke="none"/></symbol><symbol overflow="visible" id="v"><path d="M4.578-3.188c0-.796-.047-1.593-.39-2.328C3.733-6.484 2.905-6.64 2.5-6.64c-.61 0-1.328.266-1.75 1.188-.313.687-.36 1.469-.36 2.266 0 .75.032 1.64.454 2.406a1.83 1.83 0 0 0 1.64 1c.532 0 1.297-.203 1.735-1.157.312-.687.36-1.468.36-2.25zM2.484 0c-.39 0-.984-.25-1.156-1.203-.11-.594-.11-1.516-.11-2.11 0-.64 0-1.296.079-1.828.187-1.187.937-1.28 1.187-1.28.329 0 .985.187 1.172 1.171.11.563.11 1.313.11 1.938 0 .75 0 1.421-.11 2.062C3.5-.297 2.937 0 2.484 0z" stroke="none"/></symbol><symbol overflow="visible" id="x"><path d="M4.75-6.078c.078-.11.078-.125.078-.344H2.406c-1.203 0-1.234-.125-1.265-.312H.89L.562-4.688h.25c.032-.156.11-.78.25-.906.063-.062.844-.062.97-.062h2.062c-.11.156-.89 1.25-1.11 1.578C2.078-2.734 1.75-1.344 1.75-.328c0 .094 0 .547.469.547.453 0 .453-.453.453-.547v-.516c0-.547.031-1.094.11-1.625.046-.234.171-1.094.624-1.703z" stroke="none"/></symbol><symbol overflow="visible" id="y"><path d="M4.469-2c0-1.188-.813-2.188-1.89-2.188-.47 0-.907.157-1.267.516v-1.953c.204.063.532.125.844.125 1.235 0 1.938-.906 1.938-1.031 0-.063-.032-.11-.11-.11 0 0-.03 0-.078.032a3.22 3.22 0 0 1-1.36.296c-.39 0-.858-.078-1.327-.28-.078-.032-.094-.032-.11-.032C1-6.625 1-6.547 1-6.391v2.954c0 .171 0 .25.14.25.079 0 .094-.016.141-.079.11-.156.469-.703 1.282-.703.515 0 .765.453.843.64.156.376.188.75.188 1.25 0 .36 0 .954-.25 1.376-.235.39-.61.64-1.063.64-.719 0-1.297-.53-1.469-1.109.032 0 .063.016.172.016.329 0 .5-.25.5-.485 0-.25-.171-.5-.5-.5-.14 0-.484.079-.484.532C.5-.75 1.188.219 2.297.219 3.453.219 4.469-.734 4.469-2z" stroke="none"/></symbol><symbol overflow="visible" id="z"><path d="M1.094-3.422V-.75c0 .438-.11.438-.782.438V0c.36-.016.86-.031 1.141-.031.25 0 .766.015 1.11.031v-.313c-.672 0-.782 0-.782-.437v-1.844c0-1.031.719-1.594 1.344-1.594.64 0 .75.532.75 1.11V-.75c0 .438-.11.438-.781.438V0c.344-.016.86-.031 1.125-.031.25 0 .781.015 1.11.031v-.313c-.657 0-.766 0-.766-.437v-1.844c0-1.031.703-1.594 1.343-1.594.625 0 .735.532.735 1.11V-.75c0 .438-.11.438-.782.438V0c.344-.016.86-.031 1.125-.031.266 0 .782.015 1.125.031v-.313c-.515 0-.765 0-.78-.296v-1.907c0-.859 0-1.156-.313-1.515-.141-.172-.47-.375-1.047-.375-.828 0-1.282.593-1.438.984-.14-.875-.875-.984-1.328-.984-.734 0-1.203.422-1.484 1.047v-1.047l-1.407.11v.312c.704 0 .782.062.782.562z" stroke="none"/></symbol></defs><use height="1052.362" width="744.094" xlink:href="#r" x="223.064" y="134.765"/><use height="1052.362" width="744.094" xlink:href="#s" x="223.433" y="134.765"/><use height="1052.362" width="744.094" xlink:href="#t" x="228.102" y="136.259"/><use height="1052.362" width="744.094" xlink:href="#u" x="235.339" y="134.765"/><use height="1052.362" width="744.094" xlink:href="#v" x="245.858" y="134.765"/><use height="1052.362" width="744.094" xlink:href="#w" x="250.836" y="134.765"/><use height="1052.362" width="744.094" xlink:href="#x" x="255.264" y="134.765"/><use height="1052.362" width="744.094" xlink:href="#y" x="260.245" y="134.765"/><g><use height="1052.362" width="744.094" xlink:href="#z" x="266.89" y="134.765"/></g></g><g stroke="green"><g fill="green"><path d="M378.136 489.255l31.962.018" stroke-width="1.49991072"/><path d="M415.747 489.274l-2.824-1.631-2.824-1.631v3.261l-.001 3.262 2.825-1.63z" stroke-width="1.00007892"/></g><path d="M372.728 489.274l2.825-1.631 2.824-1.631v6.523l-2.824-1.63z" fill="green" stroke-width="1.00007892"/></g><g transform="translate(133.746 335.95) scale(1.08049)" ns0:preamble="/home/waldgeist/data/sphinx/inkscape-preamble.tex" ns0:text="$\\vec{s}_{\\rm{4}} = \\unit[0,25]{m}$" fill="green" stroke="green" stroke-width="4"><defs><symbol id="A" overflow="visible"><path d="M5.36-5.938c-.141.141-.47.422-.47.594 0 .094.094.203.188.203s.14-.078.203-.14c.11-.14.344-.422.782-.64.062-.048.171-.095.171-.204 0-.11-.078-.156-.14-.203a1.034 1.034 0 0 1-.407-.563c-.03-.093-.062-.234-.203-.234-.14 0-.203.14-.203.219 0 .047.078.36.235.578h-3.36c-.156 0-.344 0-.344.203 0 .188.188.188.344.188z" stroke="none"/></symbol><symbol id="B" overflow="visible"><path d="M3.89-3.734c-.265.015-.468.234-.468.453 0 .14.094.297.312.297.22 0 .454-.172.454-.563 0-.453-.422-.86-1.188-.86-1.313 0-1.688 1.016-1.688 1.454 0 .781.735.922 1.032.984.515.11 1.031.219 1.031.766 0 .25-.219 1.094-1.422 1.094-.14 0-.906 0-1.14-.532.39.047.64-.25.64-.53 0-.22-.172-.345-.375-.345-.266 0-.562.204-.562.657 0 .562.578.968 1.421.968 1.625 0 2.016-1.203 2.016-1.656a.97.97 0 0 0-.312-.719c-.266-.28-.563-.343-1-.421-.36-.079-.75-.157-.75-.61 0-.281.234-.89 1.109-.89.25 0 .75.078.89.453z" stroke="none"/></symbol><symbol id="F" overflow="visible"><path d="M2.031-.016c0-.656-.25-1.046-.64-1.046a.517.517 0 0 0-.532.53c0 .266.204.532.532.532a.58.58 0 0 0 .343-.125c.032-.031.047-.031.047-.031.016 0 .016 0 .016.14 0 .75-.344 1.344-.672 1.672-.11.11-.11.125-.11.157 0 .078.048.109.094.109.11 0 .922-.766.922-1.938z" stroke="none"/></symbol><symbol id="C" overflow="visible"><path d="M3.688-1.14v-.25h-.782V-4.5c0-.14 0-.203-.14-.203-.094 0-.125 0-.188.11L.266-1.392v.25h2.062v.563c0 .25 0 .328-.578.328h-.188V0c.36-.016.797-.031 1.047-.031.266 0 .704.015 1.063.031v-.25h-.188c-.578 0-.578-.078-.578-.328v-.563zM2.375-3.939v2.547H.531z" stroke="none"/></symbol><symbol id="D" overflow="visible"><path d="M6.844-3.266c.156 0 .343 0 .343-.187 0-.203-.187-.203-.328-.203H.891c-.141 0-.329 0-.329.203 0 .187.188.187.329.187zm.015 1.938c.141 0 .329 0 .329-.203 0-.188-.188-.188-.344-.188H.89c-.141 0-.329 0-.329.188 0 .203.188.203.329.203z" stroke="none"/></symbol><symbol id="E" overflow="visible"><path d="M4.578-3.188c0-.796-.047-1.593-.39-2.328C3.733-6.484 2.905-6.64 2.5-6.64c-.61 0-1.328.266-1.75 1.188-.313.687-.36 1.469-.36 2.266 0 .75.032 1.64.454 2.406a1.83 1.83 0 0 0 1.64 1c.532 0 1.297-.203 1.735-1.157.312-.687.36-1.468.36-2.25zM2.484 0c-.39 0-.984-.25-1.156-1.203-.11-.594-.11-1.516-.11-2.11 0-.64 0-1.296.079-1.828.187-1.187.937-1.28 1.187-1.28.329 0 .985.187 1.172 1.171.11.563.11 1.313.11 1.938 0 .75 0 1.421-.11 2.062C3.5-.297 2.937 0 2.484 0z" stroke="none"/></symbol><symbol id="G" overflow="visible"><path d="M1.266-.766l1.062-1.03c1.547-1.376 2.14-1.907 2.14-2.907 0-1.14-.89-1.938-2.109-1.938C1.234-6.64.5-5.719.5-4.828c0 .547.5.547.531.547.172 0 .516-.11.516-.532a.513.513 0 0 0-.531-.515c-.079 0-.094 0-.125.016.218-.657.765-1.016 1.343-1.016.907 0 1.329.812 1.329 1.625 0 .797-.485 1.578-1.047 2.203L.609-.375C.5-.265.5-.235.5 0h3.703l.266-1.734h-.235C4.172-1.438 4.11-1 4-.844c-.063.078-.719.078-.938.078z" stroke="none"/></symbol><symbol id="H" overflow="visible"><path d="M4.469-2c0-1.188-.813-2.188-1.89-2.188-.47 0-.907.157-1.267.516v-1.953c.204.063.532.125.844.125 1.235 0 1.938-.906 1.938-1.031 0-.063-.032-.11-.11-.11 0 0-.03 0-.078.032a3.22 3.22 0 0 1-1.36.296c-.39 0-.858-.078-1.327-.28-.078-.032-.094-.032-.11-.032C1-6.625 1-6.547 1-6.391v2.954c0 .171 0 .25.14.25.079 0 .094-.016.141-.079.11-.156.469-.703 1.282-.703.515 0 .765.453.843.64.156.376.188.75.188 1.25 0 .36 0 .954-.25 1.376-.235.39-.61.64-1.063.64-.719 0-1.297-.53-1.469-1.109.032 0 .063.016.172.016.329 0 .5-.25.5-.485 0-.25-.171-.5-.5-.5-.14 0-.484.079-.484.532C.5-.75 1.188.219 2.297.219 3.453.219 4.469-.734 4.469-2z" stroke="none"/></symbol><symbol id="I" overflow="visible"><path d="M1.094-3.422V-.75c0 .438-.11.438-.782.438V0c.36-.016.86-.031 1.141-.031.25 0 .766.015 1.11.031v-.313c-.672 0-.782 0-.782-.437v-1.844c0-1.031.719-1.594 1.344-1.594.64 0 .75.532.75 1.11V-.75c0 .438-.11.438-.781.438V0c.344-.016.86-.031 1.125-.031.25 0 .781.015 1.11.031v-.313c-.657 0-.766 0-.766-.437v-1.844c0-1.031.703-1.594 1.343-1.594.625 0 .735.532.735 1.11V-.75c0 .438-.11.438-.782.438V0c.344-.016.86-.031 1.125-.031.266 0 .782.015 1.125.031v-.313c-.515 0-.765 0-.78-.296v-1.907c0-.859 0-1.156-.313-1.515-.141-.172-.47-.375-1.047-.375-.828 0-1.282.593-1.438.984-.14-.875-.875-.984-1.328-.984-.734 0-1.203.422-1.484 1.047v-1.047l-1.407.11v.312c.704 0 .782.062.782.562z" stroke="none"/></symbol></defs><use y="134.765" x="223.064" xlink:href="#A" width="744.094" height="1052.362"/><use y="134.765" x="223.433" xlink:href="#B" width="744.094" height="1052.362"/><use y="136.259" x="228.102" xlink:href="#C" width="744.094" height="1052.362"/><use y="134.765" x="235.339" xlink:href="#D" width="744.094" height="1052.362"/><use y="134.765" x="245.858" xlink:href="#E" width="744.094" height="1052.362"/><use y="134.765" x="250.836" xlink:href="#F" width="744.094" height="1052.362"/><use y="134.765" x="255.264" xlink:href="#G" width="744.094" height="1052.362"/><use y="134.765" x="260.245" xlink:href="#H" width="744.094" height="1052.362"/><g><use y="134.765" x="266.89" xlink:href="#I" width="744.094" height="1052.362"/></g></g><g transform="translate(22.56 466.534) scale(1.08049)" ns0:preamble="/home/waldgeist/data/sphinx/inkscape-preamble.tex" ns0:text="$\\vec{F}_{\\rm{1}} = \\unit[4]{N}$" fill="#d40000" stroke="#d40000" stroke-width="4"><defs><symbol id="J" overflow="visible"><path d="M5.36-5.938c-.141.141-.47.422-.47.594 0 .094.094.203.188.203s.14-.078.203-.14c.11-.14.344-.422.782-.64.062-.048.171-.095.171-.204 0-.11-.078-.156-.14-.203a1.034 1.034 0 0 1-.407-.563c-.03-.093-.062-.234-.203-.234-.14 0-.203.14-.203.219 0 .047.078.36.235.578h-3.36c-.156 0-.344 0-.344.203 0 .188.188.188.344.188z" stroke="none"/></symbol><symbol id="K" overflow="visible"><path d="M3.016-3.234h.968c.75 0 .829.156.829.437 0 .078 0 .188-.063.5-.031.047-.031.078-.031.11 0 .078.062.109.11.109.109 0 .109-.031.155-.203l.547-2.172c.032-.11.032-.125.032-.156a.117.117 0 0 0-.125-.11c-.094 0-.11.047-.141.219-.219.766-.438.953-1.297.953h-.906l.64-2.531c.094-.36.11-.39.547-.39h1.313c1.218 0 1.453.327 1.453 1.093 0 .234 0 .266-.031.547C7-4.703 7-4.688 7-4.656c0 .047.031.125.125.125.11 0 .11-.063.125-.25l.203-1.735c.031-.265-.016-.265-.266-.265h-4.89c-.188 0-.297 0-.297.203 0 .11.094.11.281.11.375 0 .656 0 .656.171 0 .047 0 .063-.062.25L1.562-.78c-.093.39-.109.469-.906.469-.172 0-.281 0-.281.187C.375 0 .5 0 .531 0c.281 0 1.031-.031 1.313-.031C2.172-.031 3 0 3.328 0c.094 0 .203 0 .203-.188 0-.078-.047-.109-.047-.109-.03-.016-.062-.016-.28-.016-.22 0-.267 0-.517-.015-.296-.031-.328-.078-.328-.203 0-.016 0-.078.047-.219z" stroke="none"/></symbol><symbol id="L" overflow="visible"><path d="M2.328-4.438c0-.187 0-.187-.203-.187-.453.438-1.078.438-1.36.438v.25c.157 0 .626 0 1-.188v3.547c0 .234 0 .328-.687.328H.812V0c.125 0 .985-.031 1.235-.031.219 0 1.094.031 1.25.031v-.25H3.03c-.703 0-.703-.094-.703-.328z" stroke="none"/></symbol><symbol id="M" overflow="visible"><path d="M6.844-3.266c.156 0 .343 0 .343-.187 0-.203-.187-.203-.328-.203H.891c-.141 0-.329 0-.329.203 0 .187.188.187.329.187zm.015 1.938c.141 0 .329 0 .329-.203 0-.188-.188-.188-.344-.188H.89c-.141 0-.329 0-.329.188 0 .203.188.203.329.203z" stroke="none"/></symbol><symbol id="N" overflow="visible"><path d="M2.938-1.64v.859c0 .36-.032.469-.766.469h-.203V0c.406-.031.922-.031 1.343-.031.422 0 .938 0 1.36.031v-.313h-.219c-.734 0-.75-.109-.75-.468v-.86h.985v-.312h-.985v-4.531c0-.204 0-.266-.172-.266-.078 0-.11 0-.187.125L.28-1.953v.312zm.046-.313H.563l2.421-3.719z" stroke="none"/></symbol><symbol id="O" overflow="visible"><path d="M2.313-6.672c-.094-.125-.094-.14-.282-.14H.328v.312h.297c.14 0 .344.016.484.016.235.03.25.046.25.234v5.203c0 .266 0 .734-1.03.734V0c.343-.016.843-.031 1.171-.031.328 0 .813.015 1.156.031v-.313c-1.015 0-1.015-.468-1.015-.734v-5.187c.046.046.046.062.093.125L5.797-.125c.094.11.11.125.172.125.14 0 .14-.063.14-.266v-5.5c0-.265 0-.734 1.032-.734v-.313c-.36.016-.844.032-1.172.032-.328 0-.813-.016-1.157-.032v.313c1.016 0 1.016.469 1.016.734V-1.5z" stroke="none"/></symbol></defs><use y="132.246" x="224.901" xlink:href="#J" width="744.094" height="1052.362"/><use y="134.765" x="223.432" xlink:href="#K" width="744.094" height="1052.362"/><use y="136.259" x="229.839" xlink:href="#L" width="744.094" height="1052.362"/><use y="134.765" x="237.075" xlink:href="#M" width="744.094" height="1052.362"/><use y="134.765" x="247.594" xlink:href="#N" width="744.094" height="1052.362"/><use y="134.765" x="254.229" xlink:href="#O" width="744.094" height="1052.362"/></g><g ns0:text="$\\vec{F}_{\\rm{2}} = \\unit[5]{N}$" ns0:preamble="/home/waldgeist/data/sphinx/inkscape-preamble.tex" transform="translate(58.925 477.667) scale(1.08049)" fill="#d40000" stroke="#d40000" stroke-width="4"><defs><symbol overflow="visible" id="P"><path d="M5.36-5.938c-.141.141-.47.422-.47.594 0 .094.094.203.188.203s.14-.078.203-.14c.11-.14.344-.422.782-.64.062-.048.171-.095.171-.204 0-.11-.078-.156-.14-.203a1.034 1.034 0 0 1-.407-.563c-.03-.093-.062-.234-.203-.234-.14 0-.203.14-.203.219 0 .047.078.36.235.578h-3.36c-.156 0-.344 0-.344.203 0 .188.188.188.344.188z" stroke="none"/></symbol><symbol overflow="visible" id="Q"><path d="M3.016-3.234h.968c.75 0 .829.156.829.437 0 .078 0 .188-.063.5-.031.047-.031.078-.031.11 0 .078.062.109.11.109.109 0 .109-.031.155-.203l.547-2.172c.032-.11.032-.125.032-.156a.117.117 0 0 0-.125-.11c-.094 0-.11.047-.141.219-.219.766-.438.953-1.297.953h-.906l.64-2.531c.094-.36.11-.39.547-.39h1.313c1.218 0 1.453.327 1.453 1.093 0 .234 0 .266-.031.547C7-4.703 7-4.688 7-4.656c0 .047.031.125.125.125.11 0 .11-.063.125-.25l.203-1.735c.031-.265-.016-.265-.266-.265h-4.89c-.188 0-.297 0-.297.203 0 .11.094.11.281.11.375 0 .656 0 .656.171 0 .047 0 .063-.062.25L1.562-.78c-.093.39-.109.469-.906.469-.172 0-.281 0-.281.187C.375 0 .5 0 .531 0c.281 0 1.031-.031 1.313-.031C2.172-.031 3 0 3.328 0c.094 0 .203 0 .203-.188 0-.078-.047-.109-.047-.109-.03-.016-.062-.016-.28-.016-.22 0-.267 0-.517-.015-.296-.031-.328-.078-.328-.203 0-.016 0-.078.047-.219z" stroke="none"/></symbol><symbol overflow="visible" id="R"><path d="M3.516-1.266H3.28c-.015.157-.094.563-.187.625-.047.047-.578.047-.688.047H1.125c.734-.64.984-.844 1.39-1.172.516-.406 1-.843 1-1.5 0-.843-.734-1.359-1.624-1.359-.86 0-1.454.61-1.454 1.25 0 .344.297.39.376.39.156 0 .359-.124.359-.374 0-.125-.047-.375-.406-.375.218-.485.687-.641 1.015-.641.703 0 1.063.547 1.063 1.11 0 .609-.438 1.078-.656 1.328L.516-.266C.437-.203.437-.187.437 0h2.876z" stroke="none"/></symbol><symbol overflow="visible" id="S"><path d="M6.844-3.266c.156 0 .343 0 .343-.187 0-.203-.187-.203-.328-.203H.891c-.141 0-.329 0-.329.203 0 .187.188.187.329.187zm.015 1.938c.141 0 .329 0 .329-.203 0-.188-.188-.188-.344-.188H.89c-.141 0-.329 0-.329.188 0 .203.188.203.329.203z" stroke="none"/></symbol><symbol overflow="visible" id="T"><path d="M4.469-2c0-1.188-.813-2.188-1.89-2.188-.47 0-.907.157-1.267.516v-1.953c.204.063.532.125.844.125 1.235 0 1.938-.906 1.938-1.031 0-.063-.032-.11-.11-.11 0 0-.03 0-.078.032a3.22 3.22 0 0 1-1.36.296c-.39 0-.858-.078-1.327-.28-.078-.032-.094-.032-.11-.032C1-6.625 1-6.547 1-6.391v2.954c0 .171 0 .25.14.25.079 0 .094-.016.141-.079.11-.156.469-.703 1.282-.703.515 0 .765.453.843.64.156.376.188.75.188 1.25 0 .36 0 .954-.25 1.376-.235.39-.61.64-1.063.64-.719 0-1.297-.53-1.469-1.109.032 0 .063.016.172.016.329 0 .5-.25.5-.485 0-.25-.171-.5-.5-.5-.14 0-.484.079-.484.532C.5-.75 1.188.219 2.297.219 3.453.219 4.469-.734 4.469-2z" stroke="none"/></symbol><symbol overflow="visible" id="U"><path d="M2.313-6.672c-.094-.125-.094-.14-.282-.14H.328v.312h.297c.14 0 .344.016.484.016.235.03.25.046.25.234v5.203c0 .266 0 .734-1.03.734V0c.343-.016.843-.031 1.171-.031.328 0 .813.015 1.156.031v-.313c-1.015 0-1.015-.468-1.015-.734v-5.187c.046.046.046.062.093.125L5.797-.125c.094.11.11.125.172.125.14 0 .14-.063.14-.266v-5.5c0-.265 0-.734 1.032-.734v-.313c-.36.016-.844.032-1.172.032-.328 0-.813-.016-1.157-.032v.313c1.016 0 1.016.469 1.016.734V-1.5z" stroke="none"/></symbol></defs><use xlink:href="#P" x="224.901" y="132.246" width="744.094" height="1052.362"/><use xlink:href="#Q" x="223.432" y="134.765" width="744.094" height="1052.362"/><use xlink:href="#R" x="229.839" y="136.259" width="744.094" height="1052.362"/><use xlink:href="#S" x="237.075" y="134.765" width="744.094" height="1052.362"/><use xlink:href="#T" x="247.594" y="134.765" width="744.094" height="1052.362"/><use xlink:href="#U" x="254.229" y="134.765" width="744.094" height="1052.362"/></g><g transform="translate(245.226 458.143) scale(1.08049)" ns0:preamble="/home/waldgeist/data/sphinx/inkscape-preamble.tex" ns0:text="$\\vec{F}_{\\rm{3}} = \\unit[2]{N}$" fill="#d40000" stroke="#d40000" stroke-width="4"><defs><symbol id="V" overflow="visible"><path d="M5.36-5.938c-.141.141-.47.422-.47.594 0 .094.094.203.188.203s.14-.078.203-.14c.11-.14.344-.422.782-.64.062-.048.171-.095.171-.204 0-.11-.078-.156-.14-.203a1.034 1.034 0 0 1-.407-.563c-.03-.093-.062-.234-.203-.234-.14 0-.203.14-.203.219 0 .047.078.36.235.578h-3.36c-.156 0-.344 0-.344.203 0 .188.188.188.344.188z" stroke="none"/></symbol><symbol id="W" overflow="visible"><path d="M3.016-3.234h.968c.75 0 .829.156.829.437 0 .078 0 .188-.063.5-.031.047-.031.078-.031.11 0 .078.062.109.11.109.109 0 .109-.031.155-.203l.547-2.172c.032-.11.032-.125.032-.156a.117.117 0 0 0-.125-.11c-.094 0-.11.047-.141.219-.219.766-.438.953-1.297.953h-.906l.64-2.531c.094-.36.11-.39.547-.39h1.313c1.218 0 1.453.327 1.453 1.093 0 .234 0 .266-.031.547C7-4.703 7-4.688 7-4.656c0 .047.031.125.125.125.11 0 .11-.063.125-.25l.203-1.735c.031-.265-.016-.265-.266-.265h-4.89c-.188 0-.297 0-.297.203 0 .11.094.11.281.11.375 0 .656 0 .656.171 0 .047 0 .063-.062.25L1.562-.78c-.093.39-.109.469-.906.469-.172 0-.281 0-.281.187C.375 0 .5 0 .531 0c.281 0 1.031-.031 1.313-.031C2.172-.031 3 0 3.328 0c.094 0 .203 0 .203-.188 0-.078-.047-.109-.047-.109-.03-.016-.062-.016-.28-.016-.22 0-.267 0-.517-.015-.296-.031-.328-.078-.328-.203 0-.016 0-.078.047-.219z" stroke="none"/></symbol><symbol id="X" overflow="visible"><path d="M1.906-2.328c.547 0 .938.375.938 1.125 0 .86-.516 1.125-.906 1.125-.282 0-.907-.078-1.188-.5.328 0 .406-.235.406-.39 0-.22-.172-.376-.39-.376a.38.38 0 0 0-.391.407C.375-.281 1.094.14 1.938.14c.968 0 1.64-.657 1.64-1.344 0-.547-.437-1.094-1.203-1.25.719-.266.984-.781.984-1.219 0-.547-.625-.953-1.406-.953-.766 0-1.36.375-1.36.938 0 .234.157.359.36.359.219 0 .36-.156.36-.344 0-.203-.141-.36-.36-.375.25-.297.719-.375.985-.375.312 0 .75.156.75.75 0 .297-.094.625-.282.828-.219.266-.422.281-.765.313-.172.015-.188.015-.22.015-.015 0-.077.016-.077.094 0 .094.062.094.187.094z" stroke="none"/></symbol><symbol id="Y" overflow="visible"><path d="M6.844-3.266c.156 0 .343 0 .343-.187 0-.203-.187-.203-.328-.203H.891c-.141 0-.329 0-.329.203 0 .187.188.187.329.187zm.015 1.938c.141 0 .329 0 .329-.203 0-.188-.188-.188-.344-.188H.89c-.141 0-.329 0-.329.188 0 .203.188.203.329.203z" stroke="none"/></symbol><symbol id="Z" overflow="visible"><path d="M1.266-.766l1.062-1.03c1.547-1.376 2.14-1.907 2.14-2.907 0-1.14-.89-1.938-2.109-1.938C1.234-6.64.5-5.719.5-4.828c0 .547.5.547.531.547.172 0 .516-.11.516-.532a.513.513 0 0 0-.531-.515c-.079 0-.094 0-.125.016.218-.657.765-1.016 1.343-1.016.907 0 1.329.812 1.329 1.625 0 .797-.485 1.578-1.047 2.203L.609-.375C.5-.265.5-.235.5 0h3.703l.266-1.734h-.235C4.172-1.438 4.11-1 4-.844c-.063.078-.719.078-.938.078z" stroke="none"/></symbol><symbol id="aa" overflow="visible"><path d="M2.313-6.672c-.094-.125-.094-.14-.282-.14H.328v.312h.297c.14 0 .344.016.484.016.235.03.25.046.25.234v5.203c0 .266 0 .734-1.03.734V0c.343-.016.843-.031 1.171-.031.328 0 .813.015 1.156.031v-.313c-1.015 0-1.015-.468-1.015-.734v-5.187c.046.046.046.062.093.125L5.797-.125c.094.11.11.125.172.125.14 0 .14-.063.14-.266v-5.5c0-.265 0-.734 1.032-.734v-.313c-.36.016-.844.032-1.172.032-.328 0-.813-.016-1.157-.032v.313c1.016 0 1.016.469 1.016.734V-1.5z" stroke="none"/></symbol></defs><use y="132.246" x="224.901" xlink:href="#V" width="744.094" height="1052.362"/><use y="134.765" x="223.432" xlink:href="#W" width="744.094" height="1052.362"/><use y="136.259" x="229.839" xlink:href="#X" width="744.094" height="1052.362"/><use y="134.765" x="237.075" xlink:href="#Y" width="744.094" height="1052.362"/><use y="134.765" x="247.594" xlink:href="#Z" width="744.094" height="1052.362"/><use y="134.765" x="254.229" xlink:href="#aa" width="744.094" height="1052.362"/></g><g transform="translate(155.556 468.213) scale(1.08049)" ns0:preamble="/home/waldgeist/data/sphinx/inkscape-preamble.tex" ns0:text="$\\vec{F}_{\\rm{4}} = \\unit[]{?}$" fill="#d40000" stroke="#d40000" stroke-width="4"><defs><symbol id="ab" overflow="visible"><path d="M5.36-5.938c-.141.141-.47.422-.47.594 0 .094.094.203.188.203s.14-.078.203-.14c.11-.14.344-.422.782-.64.062-.048.171-.095.171-.204 0-.11-.078-.156-.14-.203a1.034 1.034 0 0 1-.407-.563c-.03-.093-.062-.234-.203-.234-.14 0-.203.14-.203.219 0 .047.078.36.235.578h-3.36c-.156 0-.344 0-.344.203 0 .188.188.188.344.188z" stroke="none"/></symbol><symbol id="ac" overflow="visible"><path d="M3.016-3.234h.968c.75 0 .829.156.829.437 0 .078 0 .188-.063.5-.031.047-.031.078-.031.11 0 .078.062.109.11.109.109 0 .109-.031.155-.203l.547-2.172c.032-.11.032-.125.032-.156a.117.117 0 0 0-.125-.11c-.094 0-.11.047-.141.219-.219.766-.438.953-1.297.953h-.906l.64-2.531c.094-.36.11-.39.547-.39h1.313c1.218 0 1.453.327 1.453 1.093 0 .234 0 .266-.031.547C7-4.703 7-4.688 7-4.656c0 .047.031.125.125.125.11 0 .11-.063.125-.25l.203-1.735c.031-.265-.016-.265-.266-.265h-4.89c-.188 0-.297 0-.297.203 0 .11.094.11.281.11.375 0 .656 0 .656.171 0 .047 0 .063-.062.25L1.562-.78c-.093.39-.109.469-.906.469-.172 0-.281 0-.281.187C.375 0 .5 0 .531 0c.281 0 1.031-.031 1.313-.031C2.172-.031 3 0 3.328 0c.094 0 .203 0 .203-.188 0-.078-.047-.109-.047-.109-.03-.016-.062-.016-.28-.016-.22 0-.267 0-.517-.015-.296-.031-.328-.078-.328-.203 0-.016 0-.078.047-.219z" stroke="none"/></symbol><symbol id="ad" overflow="visible"><path d="M3.688-1.14v-.25h-.782V-4.5c0-.14 0-.203-.14-.203-.094 0-.125 0-.188.11L.266-1.392v.25h2.062v.563c0 .25 0 .328-.578.328h-.188V0c.36-.016.797-.031 1.047-.031.266 0 .704.015 1.063.031v-.25h-.188c-.578 0-.578-.078-.578-.328v-.563zM2.375-3.939v2.547H.531z" stroke="none"/></symbol><symbol id="ae" overflow="visible"><path d="M6.844-3.266c.156 0 .343 0 .343-.187 0-.203-.187-.203-.328-.203H.891c-.141 0-.329 0-.329.203 0 .187.188.187.329.187zm.015 1.938c.141 0 .329 0 .329-.203 0-.188-.188-.188-.344-.188H.89c-.141 0-.329 0-.329.188 0 .203.188.203.329.203z" stroke="none"/></symbol><symbol id="af" overflow="visible"><path d="M2.344-2.484c0-1.25.969-1.97 1.312-2.22.266-.202.485-.562.485-.984 0-.578-.407-1.343-1.891-1.343-1.078 0-1.688.687-1.688 1.328 0 .344.22.484.454.484.28 0 .453-.203.453-.468 0-.438-.407-.438-.547-.438.297-.531.875-.688 1.297-.688 1.094 0 1.094.688 1.094 1.079 0 .578-.157.765-.344.937-.656.719-.875 1.64-.875 2.25v.438c0 .187 0 .25.125.25s.125-.094.125-.282zm.39 1.953a.534.534 0 0 0-.515-.531.537.537 0 0 0-.531.53c0 .298.234.532.53.532a.524.524 0 0 0 .516-.531z" stroke="none"/></symbol></defs><use y="132.246" x="224.901" xlink:href="#ab" width="744.094" height="1052.362"/><use y="134.765" x="223.432" xlink:href="#ac" width="744.094" height="1052.362"/><use y="136.259" x="229.839" xlink:href="#ad" width="744.094" height="1052.362"/><use y="134.765" x="237.075" xlink:href="#ae" width="744.094" height="1052.362"/><use y="134.765" x="247.594" xlink:href="#af" width="744.094" height="1052.362"/></g><g ns0:text="?" ns0:preamble="/home/waldgeist/data/sphinx/inkscape-preamble.tex" transform="translate(-315.376 162.51) scale(3.24147)" fill="#d40000" stroke="#d40000" stroke-width="1.333"><defs><symbol overflow="visible" id="ag"><path d="M2.344-2.484c0-1.25.969-1.97 1.312-2.22.266-.202.485-.562.485-.984 0-.578-.407-1.343-1.891-1.343-1.078 0-1.688.687-1.688 1.328 0 .344.22.484.454.484.28 0 .453-.203.453-.468 0-.438-.407-.438-.547-.438.297-.531.875-.688 1.297-.688 1.094 0 1.094.688 1.094 1.079 0 .578-.157.765-.344.937-.656.719-.875 1.64-.875 2.25v.438c0 .187 0 .25.125.25s.125-.094.125-.282zm.39 1.953a.534.534 0 0 0-.515-.531.537.537 0 0 0-.531.53c0 .298.234.532.53.532a.524.524 0 0 0 .516-.531z" stroke="none"/></symbol></defs><use height="1052.362" width="744.094" xlink:href="#ag" x="223.432" y="134.765" fill="#000"/></g></svg>