<svg xmlns:ns0="http://www.iki.fi/pav/software/textext/" xmlns="http://www.w3.org/2000/svg" xmlns:xlink="http://www.w3.org/1999/xlink" width="210mm" height="297mm"><title>Balkenwaage</title><defs><filter color-interpolation-filters="sRGB" id="a" x="-.36" width="1.72" y="-.36" height="1.72"><feGaussianBlur stdDeviation="3.429"/></filter><filter color-interpolation-filters="sRGB" id="b" x="-.36" width="1.72" y="-.36" height="1.72"><feGaussianBlur stdDeviation="3.429"/></filter></defs><path fill="#fff" stroke="#fff" stroke-width="1.359" stroke-linejoin="round" d="M121.094 741.678H623V310.684H121.094z"/><path d="M383.69 355.809v297.519h-23.286v-297.52s.06-8 11.643-8 11.643 8 11.643 8z" fill="#4d4d4d" fill-rule="evenodd" stroke="#333" stroke-width="1.968"/><rect y="371.345" x="226.268" height="11.757" width="286.212" rx="4.166" ry="4.166" fill="#b3b3b3" fill-rule="evenodd" stroke="#000" stroke-width="1.089"/><path d="M366.404 377.103l5.643-52.15 5.643 52.15" fill="maroon" stroke="#000"/><path transform="matrix(-1.1547 0 0 1.155 3057.695 256.495)" d="M2330.115 104.527a4.288 4.288 0 1 1-8.576 0 4.288 4.288 0 1 1 8.576 0z" fill="#fc0" fill-rule="evenodd" stroke="#000" stroke-width=".866"/><path fill="#4d4d4d" fill-rule="evenodd" stroke="#333" stroke-width="2.332" d="M163.266 630.042h417.562v23.286H163.266z"/><g fill="#d40000" stroke="#d40000"><path d="M266.73 689.854l-2.678-4.64-2.679-4.64h10.716l-2.68 4.64z" stroke-width="8.00004975"/><path d="M266.73 560.47v113.198" stroke-width="8" stroke-linecap="square"/></g><g fill="#d40000" stroke="#d40000"><path d="M476.437 689.854l-2.678-4.64-2.68-4.64H481.796l-2.679 4.64z" stroke-width="8.00004975"/><path d="M476.438 560.47v113.198" stroke-width="8" stroke-linecap="square"/></g><path d="M213.318 552.553h108.677v1.405s-24.372 4-54.338 4c-29.967 0-54.339-4-54.339-4z" fill="#999" stroke="#333" stroke-width="1.33" stroke-linejoin="round"/><path d="M213.318 553.958l54.339-170.855 54.338 169.45" fill="none" stroke="#000"/><path d="M422.1 552.553h108.676v1.405s-24.372 4-54.338 4c-29.967 0-54.339-4-54.339-4z" fill="#999" stroke="#333" stroke-width="1.33" stroke-linejoin="round"/><path d="M422.1 553.958l54.338-170.855 54.338 169.45" fill="none" stroke="#000"/><g fill="none" stroke="#333" stroke-linecap="round"><path d="M267.657 509.508a3.901 3.901 0 1 1 3.9-3.901" stroke-width="1.28696" stroke-linejoin="round"/><path d="M267.657 509.508v5.43" stroke-width="1.28693017"/></g><path fill="#b3b3b3" stroke="#333" stroke-width=".99999742" stroke-linecap="round" stroke-linejoin="round" d="M255.256 512.422h24.802v40.13h-24.802z"/><path transform="translate(224.696 473.99) scale(.12676)" d="M301.429 350.934c0 6.311-5.117 11.428-11.429 11.428s-11.429-5.117-11.429-11.428c0-6.312 5.117-11.429 11.429-11.429s11.429 5.117 11.429 11.429z" opacity=".5" fill="#fff" filter="url(#a)"/><g id="c"><g fill="none" stroke="#333" stroke-linecap="round"><path d="M476.438 527.963a2.229 2.229 0 1 1 2.228-2.228" stroke-width=".7352" stroke-linejoin="round"/><path d="M476.438 527.963v3.102" stroke-width=".7351450300000001"/></g><path fill="#b3b3b3" stroke="#333" stroke-width=".57123778" stroke-linecap="round" stroke-linejoin="round" d="M469.354 529.628h14.168v22.925h-14.168z"/><path transform="translate(451.896 507.674) scale(.07241)" d="M301.429 350.934c0 6.311-5.117 11.428-11.429 11.428s-11.429-5.117-11.429-11.428c0-6.312 5.117-11.429 11.429-11.429s11.429 5.117 11.429 11.429z" opacity=".5" fill="#fff" filter="url(#b)"/></g><use xlink:href="#c" id="d" transform="translate(-24.333)" width="744.094" height="1052.362"/><use xlink:href="#d" transform="translate(48.667)" width="744.094" height="1052.362"/><g transform="translate(-483.158 139.003) scale(4.32196)" ns0:preamble="/home/waldgeist/data/sphinx/test.tex" ns0:text="$\\vec{F}_{\\rm{2}}$" fill="#d40000"><defs><symbol id="e" overflow="visible"><path d="M5.36-5.938c-.141.141-.47.422-.47.594 0 .094.094.203.188.203s.14-.078.203-.14c.11-.14.344-.422.782-.64.062-.048.171-.095.171-.204 0-.11-.078-.156-.14-.203a1.034 1.034 0 0 1-.407-.563c-.03-.093-.062-.234-.203-.234-.14 0-.203.14-.203.219 0 .047.078.36.235.578h-3.36c-.156 0-.344 0-.344.203 0 .188.188.188.344.188zm0 0"/></symbol><symbol id="f" overflow="visible"><path d="M3.016-3.234h.968c.75 0 .829.156.829.437 0 .078 0 .188-.063.5-.031.047-.031.078-.031.11 0 .078.062.109.11.109.109 0 .109-.031.155-.203l.547-2.172c.032-.11.032-.125.032-.156a.117.117 0 0 0-.125-.11c-.094 0-.11.047-.141.219-.219.766-.438.953-1.297.953h-.906l.64-2.531c.094-.36.11-.39.547-.39h1.313c1.218 0 1.453.327 1.453 1.093 0 .234 0 .266-.031.547C7-4.703 7-4.688 7-4.656c0 .047.031.125.125.125.11 0 .11-.063.125-.25l.203-1.735c.031-.265-.016-.265-.266-.265h-4.89c-.188 0-.297 0-.297.203 0 .11.094.11.281.11.375 0 .656 0 .656.171 0 .047 0 .063-.062.25L1.562-.78c-.093.39-.109.469-.906.469-.172 0-.281 0-.281.187C.375 0 .5 0 .531 0c.281 0 1.031-.031 1.313-.031C2.172-.031 3 0 3.328 0c.094 0 .203 0 .203-.188 0-.078-.047-.109-.047-.109-.03-.016-.062-.016-.28-.016-.22 0-.267 0-.517-.015-.296-.031-.328-.078-.328-.203 0-.016 0-.078.047-.219zm0 0"/></symbol><symbol id="g" overflow="visible"><path d="M3.516-1.266H3.28c-.015.157-.094.563-.187.625-.047.047-.578.047-.688.047H1.125c.734-.64.984-.844 1.39-1.172.516-.406 1-.843 1-1.5 0-.843-.734-1.359-1.624-1.359-.86 0-1.454.61-1.454 1.25 0 .344.297.39.376.39.156 0 .359-.124.359-.374 0-.125-.047-.375-.406-.375.218-.485.687-.641 1.015-.641.703 0 1.063.547 1.063 1.11 0 .609-.438 1.078-.656 1.328L.516-.266C.437-.203.437-.187.437 0h2.876zm0 0"/></symbol></defs><use y="132.246" x="224.901" xlink:href="#e" width="744.094" height="1052.362"/><use y="134.765" x="223.432" xlink:href="#f" width="744.094" height="1052.362"/><use y="136.259" x="229.839" xlink:href="#g" width="744.094" height="1052.362"/></g><g transform="translate(-691.852 139.003) scale(4.32196)" ns0:text="$\\vec{F}_{\\rm{1}}$" ns0:preamble="/home/waldgeist/data/sphinx/test.tex" fill="#d40000"><defs><symbol overflow="visible" id="h"><path d="M5.36-5.938c-.141.141-.47.422-.47.594 0 .094.094.203.188.203s.14-.078.203-.14c.11-.14.344-.422.782-.64.062-.048.171-.095.171-.204 0-.11-.078-.156-.14-.203a1.034 1.034 0 0 1-.407-.563c-.03-.093-.062-.234-.203-.234-.14 0-.203.14-.203.219 0 .047.078.36.235.578h-3.36c-.156 0-.344 0-.344.203 0 .188.188.188.344.188zm0 0"/></symbol><symbol overflow="visible" id="i"><path d="M3.016-3.234h.968c.75 0 .829.156.829.437 0 .078 0 .188-.063.5-.031.047-.031.078-.031.11 0 .078.062.109.11.109.109 0 .109-.031.155-.203l.547-2.172c.032-.11.032-.125.032-.156a.117.117 0 0 0-.125-.11c-.094 0-.11.047-.141.219-.219.766-.438.953-1.297.953h-.906l.64-2.531c.094-.36.11-.39.547-.39h1.313c1.218 0 1.453.327 1.453 1.093 0 .234 0 .266-.031.547C7-4.703 7-4.688 7-4.656c0 .047.031.125.125.125.11 0 .11-.063.125-.25l.203-1.735c.031-.265-.016-.265-.266-.265h-4.89c-.188 0-.297 0-.297.203 0 .11.094.11.281.11.375 0 .656 0 .656.171 0 .047 0 .063-.062.25L1.562-.78c-.093.39-.109.469-.906.469-.172 0-.281 0-.281.187C.375 0 .5 0 .531 0c.281 0 1.031-.031 1.313-.031C2.172-.031 3 0 3.328 0c.094 0 .203 0 .203-.188 0-.078-.047-.109-.047-.109-.03-.016-.062-.016-.28-.016-.22 0-.267 0-.517-.015-.296-.031-.328-.078-.328-.203 0-.016 0-.078.047-.219zm0 0"/></symbol><symbol overflow="visible" id="j"><path d="M2.328-4.438c0-.187 0-.187-.203-.187-.453.438-1.078.438-1.36.438v.25c.157 0 .626 0 1-.188v3.547c0 .234 0 .328-.687.328H.812V0c.125 0 .985-.031 1.235-.031.219 0 1.094.031 1.25.031v-.25H3.03c-.703 0-.703-.094-.703-.328zm0 0"/></symbol></defs><use height="1052.362" width="744.094" xlink:href="#h" x="224.901" y="132.246"/><use height="1052.362" width="744.094" xlink:href="#i" x="223.432" y="134.765"/><use height="1052.362" width="744.094" xlink:href="#j" x="229.839" y="136.259"/></g><g transform="translate(-664.082 -224.76) scale(4.32196)" ns0:text="$\\vec{s}_{\\rm{1}}$" fill="green" stroke="green"><defs><symbol id="k" overflow="visible"><path d="M5.36-5.938c-.141.141-.47.422-.47.594 0 .094.094.203.188.203s.14-.078.203-.14c.11-.14.344-.422.782-.64.062-.048.171-.095.171-.204 0-.11-.078-.156-.14-.203a1.034 1.034 0 0 1-.407-.563c-.03-.093-.062-.234-.203-.234-.14 0-.203.14-.203.219 0 .047.078.36.235.578h-3.36c-.156 0-.344 0-.344.203 0 .188.188.188.344.188z" stroke="none"/></symbol><symbol id="l" overflow="visible"><path d="M3.89-3.734c-.265.015-.468.234-.468.453 0 .14.094.297.312.297.22 0 .454-.172.454-.563 0-.453-.422-.86-1.188-.86-1.313 0-1.688 1.016-1.688 1.454 0 .781.735.922 1.032.984.515.11 1.031.219 1.031.766 0 .25-.219 1.094-1.422 1.094-.14 0-.906 0-1.14-.532.39.047.64-.25.64-.53 0-.22-.172-.345-.375-.345-.266 0-.562.204-.562.657 0 .562.578.968 1.421.968 1.625 0 2.016-1.203 2.016-1.656a.97.97 0 0 0-.312-.719c-.266-.28-.563-.343-1-.421-.36-.079-.75-.157-.75-.61 0-.281.234-.89 1.109-.89.25 0 .75.078.89.453z" stroke="none"/></symbol><symbol id="m" overflow="visible"><path d="M2.328-4.438c0-.187 0-.187-.203-.187-.453.438-1.078.438-1.36.438v.25c.157 0 .626 0 1-.188v3.547c0 .234 0 .328-.687.328H.812V0c.125 0 .985-.031 1.235-.031.219 0 1.094.031 1.25.031v-.25H3.03c-.703 0-.703-.094-.703-.328z" stroke="none"/></symbol></defs><use y="134.765" x="223.064" xlink:href="#k" width="744.094" height="1052.362"/><use y="134.765" x="223.433" xlink:href="#l" width="744.094" height="1052.362"/><use y="136.259" x="228.102" xlink:href="#m" width="744.094" height="1052.362"/></g><g stroke="green"><g fill="#d40000"><path d="M310.773 377.206l48.255.018" stroke-width="6.000251609999999"/><path d="M365.229 377.225l-2.825-1.631-2.824-1.631v6.523l2.824-1.63z" stroke-width="7.8623787599999995"/></g><g fill="#d40000"><path d="M316.105 377.206l-35.305.018" stroke-width="6.000251609999999"/><path d="M274.6 377.225l2.824-1.631 2.824-1.631v6.523l-2.824-1.63z" stroke-width="7.8623787599999995"/></g></g><g stroke="green"><g fill="#d40000"><path d="M415.58 377.206l48.254.018" stroke-width="6.000251609999999"/><path d="M470.035 377.225l-2.824-1.631-2.825-1.631v6.523l2.824-1.63z" stroke-width="7.8623787599999995"/></g><g fill="#d40000"><path d="M420.912 377.206l-35.305.018" stroke-width="6.000251609999999"/><path d="M379.406 377.225l2.824-1.631 2.824-1.631v3.261l.001 3.262-2.824-1.63z" stroke-width="7.8623787599999995"/></g></g><g ns0:text="$\\vec{s}_{\\rm{2}}$" transform="translate(-559.748 -224.76) scale(4.32196)" fill="green" stroke="green"><defs><symbol overflow="visible" id="n"><path d="M5.36-5.938c-.141.141-.47.422-.47.594 0 .094.094.203.188.203s.14-.078.203-.14c.11-.14.344-.422.782-.64.062-.048.171-.095.171-.204 0-.11-.078-.156-.14-.203a1.034 1.034 0 0 1-.407-.563c-.03-.093-.062-.234-.203-.234-.14 0-.203.14-.203.219 0 .047.078.36.235.578h-3.36c-.156 0-.344 0-.344.203 0 .188.188.188.344.188z" stroke="none"/></symbol><symbol overflow="visible" id="o"><path d="M3.89-3.734c-.265.015-.468.234-.468.453 0 .14.094.297.312.297.22 0 .454-.172.454-.563 0-.453-.422-.86-1.188-.86-1.313 0-1.688 1.016-1.688 1.454 0 .781.735.922 1.032.984.515.11 1.031.219 1.031.766 0 .25-.219 1.094-1.422 1.094-.14 0-.906 0-1.14-.532.39.047.64-.25.64-.53 0-.22-.172-.345-.375-.345-.266 0-.562.204-.562.657 0 .562.578.968 1.421.968 1.625 0 2.016-1.203 2.016-1.656a.97.97 0 0 0-.312-.719c-.266-.28-.563-.343-1-.421-.36-.079-.75-.157-.75-.61 0-.281.234-.89 1.109-.89.25 0 .75.078.89.453z" stroke="none"/></symbol><symbol overflow="visible" id="p"><path d="M3.516-1.266H3.28c-.015.157-.094.563-.187.625-.047.047-.578.047-.688.047H1.125c.734-.64.984-.844 1.39-1.172.516-.406 1-.843 1-1.5 0-.843-.734-1.359-1.624-1.359-.86 0-1.454.61-1.454 1.25 0 .344.297.39.376.39.156 0 .359-.124.359-.374 0-.125-.047-.375-.406-.375.218-.485.687-.641 1.015-.641.703 0 1.063.547 1.063 1.11 0 .609-.438 1.078-.656 1.328L.516-.266C.437-.203.437-.187.437 0h2.876z" stroke="none"/></symbol></defs><use height="1052.362" width="744.094" xlink:href="#n" x="223.064" y="134.765"/><use height="1052.362" width="744.094" xlink:href="#o" x="223.433" y="134.765"/><use height="1052.362" width="744.094" xlink:href="#p" x="228.102" y="136.259"/></g></svg>