<svg xmlns:ns0="http://www.iki.fi/pav/software/textext/" xmlns="http://www.w3.org/2000/svg" xmlns:xlink="http://www.w3.org/1999/xlink" width="210mm" height="297mm"><title>Hebel Unterarm</title><defs><linearGradient id="e"><stop offset="0" stop-color="#4e9a06"/><stop offset=".79" stop-color="#fbfdfc" stop-opacity=".996"/><stop offset="1" stop-color="#4e9a06"/></linearGradient><linearGradient id="a"><stop offset="0" stop-color="#2d2d2d" stop-opacity=".954"/><stop offset=".236" stop-color="#fff" stop-opacity=".55"/><stop offset="1" stop-color="#484847"/></linearGradient><linearGradient id="b"><stop offset="0" stop-color="#fff"/><stop offset="1" stop-color="#fff" stop-opacity="0"/></linearGradient><filter height="1.337" y="-.169" width="1.257" x="-.128" id="q"><feGaussianBlur stdDeviation="2.248"/></filter><linearGradient id="d"><stop offset="0" stop-color="#62a5d6"/><stop offset="1" stop-color="#62a523" stop-opacity="0"/></linearGradient><linearGradient id="c"><stop offset="0" stop-color="#eeeeec"/><stop offset="1" stop-color="#eeeeec" stop-opacity="0"/></linearGradient><linearGradient id="f"><stop offset="0" stop-color="#0000d9"/><stop offset="1" stop-color="#0000cf" stop-opacity="0"/></linearGradient><filter height="1.667" y="-.333" width="1.667" x="-.333" id="k"><feGaussianBlur stdDeviation="2.455"/></filter><linearGradient id="g"><stop offset="0" stop-color="#4e9aff"/><stop offset="1" stop-color="#4e9a06" stop-opacity="0"/></linearGradient><linearGradient id="h"><stop offset="0" stop-color="#4e9afc"/><stop offset=".741" stop-color="#fbfdfc" stop-opacity=".874"/><stop offset="1" stop-color="#4e9aff"/></linearGradient><linearGradient xlink:href="#h" id="i" gradientUnits="userSpaceOnUse" gradientTransform="matrix(.53164 0 0 .55018 348.13 268.597)" spreadMethod="reflect" x1="800.206" y1="618.822" x2="975.834" y2="618.822"/><linearGradient xlink:href="#g" id="j" gradientUnits="userSpaceOnUse" gradientTransform="matrix(.53164 0 0 .55018 348.067 276.756)" x1="800.445" y1="857.908" x2="957.423" y2="857.908"/><linearGradient xlink:href="#f" id="l" gradientUnits="userSpaceOnUse" gradientTransform="matrix(.53164 0 0 .55018 348.131 267.497)" x1="878.813" y1="918.564" x2="878.813" y2="894.469"/><linearGradient xlink:href="#e" id="m" gradientUnits="userSpaceOnUse" gradientTransform="matrix(.53164 0 0 .55018 348.563 268.117)" x1="837" y1="117.068" x2="919" y2="117.068"/><linearGradient xlink:href="#d" id="n" gradientUnits="userSpaceOnUse" gradientTransform="matrix(.53164 0 0 .55018 348.33 268.597)" x1="878.437" y1="189.719" x2="959.444" y2="351.719"/><radialGradient xlink:href="#c" id="o" gradientUnits="userSpaceOnUse" gradientTransform="matrix(.49686 -.19574 .10064 .27359 340.638 546.419)" cx="912.767" cy="378.658" fx="912.767" fy="378.658" r="97.006"/><linearGradient xlink:href="#b" id="p" gradientUnits="userSpaceOnUse" gradientTransform="matrix(.49841 0 0 .55018 335.758 268.047)" x1="905.536" y1="237.827" x2="913.536" y2="237.827"/><linearGradient xlink:href="#a" id="r" gradientUnits="userSpaceOnUse" gradientTransform="matrix(.51092 0 0 .55018 366.25 267.637)" x1="874.5" y1="130.612" x2="875" y2="157.362"/></defs><rect width="672.045" height="557.307" x="36.025" y="247.528" ry="3.175" fill="#fff" stroke="#fff" stroke-width="2" stroke-linejoin="round"/><path d="M527.524 624.4s.154-4.263 5.66-9.09c2.479-2.174 3.287-3.488 6.885-5.942 7.574-5.167 18.416-12.525 24.653-17.558 1.585-1.28 2.312-1.425 5.392-3.457 5.728-3.778 8.478-5.85 18.546-12.89 1.474-1.031 3.147-1.174 4.472-2.226 24.48-19.451 20.954 4.279 7.482 13.212 0 0-2.228 1.738-5.238 2.931-2.336.926-11.232 8.33-16.333 13.684-5.412 3.339-5.075 4.185-8.059 5.969-10.821 7.864-18.576 14.449-18.576 14.449" fill="#ffb380" stroke="#d45500"/><g stroke-width=".587" opacity=".5" fill="#b3b3b3" stroke="#333"><path d="M547.053 622.712c2.42-.742 4.691-5.299 4.691-5.299s3.362-5.345 5.772-7.169c2.07-1.566 4.738-2.91 7.31-3.228 1.087-.134 1.863-.124 2.937-.4 1.536-.395 2.469-1.068 3.458-2.353 1.042-1.355 1.619-3.231 1.248-4.855-.43-1.885-2.107-3.274-3.667-4.084-1.002-.52-2.234-.648-3.303-.314-1.78.555-3.013 2.431-4.517 3.65-4.446 3.605-8.315 8.369-13.324 10.834-1.662.819-3.71.438-5.173 1.653-1.356 1.126-1.917 2.743-1.914 4.64.002 2.065.63 3.87 1.993 5.294 1.337 1.4 2.586 2.216 4.489 1.631zM575.575 600.885c.756.719.809 1.212 1.754.581 1.404-.937 2.536-3.982 2.536-3.982s2.505-5.001 4.436-6.714c1.662-1.474 3.732-2.459 5.8-2.751 1.007-.143 1.453-.083 2.386-.556 1.265-.64 1.894-1.75 2.239-3.01.217-.793.044-1.704-.214-2.475-.577-1.72-.824-2.816-2.319-3.45-.829-.35-2.343-.245-3.069.093-1.753.818-2.09 2.547-3.345 3.706-2.478 2.287-5.336 4.009-8.228 5.493-1.96 1.084-6.3 2.883-6.22 3.236.472 2.078 1.45 3.509 2.476 4.964 1.027 1.456.938 4.01 1.768 4.865zM596.451 582.439c.485.85.375 1.83 1.152 2.312.654.405 1.448.298 1.855-.431 2.182-3.915 1.521-3.346 2.585-4.759 1.07-1.421 2.624-2.263 3.74-3.637.71-.876 1.852-2.899 1.852-2.899s.75-2.492.247-3.498c-.4-.797-1.375-1.3-2.166-1.16-1.33.234-1.97 2.147-3.023 3.125-1.345 1.247-4.2 3.485-4.2 3.485s-3.187 1.123-4.954 1.934c-.651.3.977 1.22 1.366 1.915.631 1.127.794 2.294 1.546 3.613z"/></g><g transform="matrix(.85085 0 0 .85085 -76.329 121.35)"><path d="M815.345 325.975l-16.48.275s-4.52 1.411-5.317 5.347c-.562 2.775.001 5.994 0 7.307-1.86.678-3.19 2.514-3.19 4.676v6.052c0 2.157 1.321 3.977 3.173 4.66-.018 29.598-.042 76.28.017 88.595-27.858 15.922-29.657 40.673-29.772 43.704-.008.203 0 .31 0 .31v270.136s1.575 13.24 21.266 17.056c2.967.179 7.66.296 13.324.36h.35c4.003.027 8.1.041 12.144.052 2.373.004 4.646.022 7.11.017.63 0 1.24-.016 1.861-.017 4.045-.01 8.141-.025 12.145-.051h.349c5.663-.065 10.357-.182 13.324-.361 19.691-3.816 21.266-17.056 21.266-17.056V486.901s.008-.107 0-.31c-.115-3.031-1.914-27.782-29.772-43.704.059-12.315.035-58.997.017-88.596 1.852-.682 3.173-2.502 3.173-4.659v-6.052c0-2.162-1.33-3.998-3.19-4.676 0-1.313.562-4.532 0-7.307-.797-3.936-5.316-5.347-5.316-5.347l-16.481-.275z" opacity=".74" fill="#62a5d7" fill-opacity=".741"/><path d="M816.79 326.366l-16.48.275s-4.52 1.411-5.317 5.347c-.562 2.775 0 5.994 0 7.307-1.86.678-3.19 2.514-3.19 4.676v6.052c0 2.157 1.321 3.977 3.173 4.66-.018 29.598-.042 76.28.017 88.595-.75.429-1.463.883-2.176 1.324.453.767.91 1.474 1.362 2.149a48.677 48.677 0 0 1-3.422-2.184c-25.194 15.927-26.87 39.093-26.981 42.02-.008.202 0 .31 0 .31v270.136s1.574 13.24 21.265 17.055c2.967.18 7.661.297 13.325.361h.349c4.004.026 8.1.04 12.144.052 2.374.004 4.647.022 7.111.017.629 0 1.24-.016 1.86-.017 4.045-.011 8.142-.026 12.146-.052h.348c5.664-.064 10.358-.182 13.325-.36 19.69-3.816 21.265-17.056 21.265-17.056V486.897s.01-.108 0-.31c-.112-2.962-1.836-26.65-27.894-42.587.073-.115.145-.226.216-.344-.215-.125-.43-.254-.648-.378.059-12.314.035-58.997.017-88.595 1.852-.683 3.173-2.503 3.173-4.66v-6.052c0-2.162-1.33-3.998-3.19-4.676-.001-1.313.562-4.532 0-7.307-.797-3.936-5.317-5.347-5.317-5.347l-16.48-.275z" opacity=".74" fill="url(#i)"/><path d="M857.073 755.114c0 11.845-18.318 19.124-41.352 19.124-23.033 0-42.104-7.28-42.104-19.125 0-11.845 19.719-34.175 42.752-34.175 23.034 0 40.704 22.33 40.704 34.176z" opacity=".74" fill="url(#j)"/><path transform="matrix(.48911 0 0 .55018 344.073 279.99)" d="M912.875 820.078a8.839 8.839 0 1 1-17.678 0 8.839 8.839 0 0 1 17.678 0z" opacity=".74" fill="#eeeeec" filter="url(#k)"/><path d="M763.776 746.356v9.026s1.575 13.24 21.266 17.056c2.967.179 7.66.296 13.324.36h.349c4.004.027 8.1.041 12.145.052 2.373.004 4.646.022 7.11.017.63 0 1.24-.016 1.861-.017 4.044-.01 8.14-.025 12.145-.051h.349c5.663-.065 10.357-.182 13.324-.361 19.691-3.816 21.266-17.056 21.266-17.056v-9.026H763.776z" opacity=".74" fill="url(#l)"/><path d="M797.801 324.992c.84 2.528-1.057-.566-1.057 4.401l-3.196 9.439a3.708 3.708 0 0 1 1.33-.086c15.976 1.75 23.954 1.75 41.999 0 .091-.01.176-.015.266-.017l-1.692-8.363c0-2.439-.957-4.402-3.313-4.402l-34.337-.972z" opacity=".74" fill="url(#m)"/><path d="M815.661 325.265l-16.48.275s-4.52 1.412-5.317 5.347c-.562 2.775 0 5.994 0 7.307-1.86.678-3.19 2.514-3.19 4.677v6.052c0 2.157 1.32 3.977 3.173 4.66-.019 29.598-.042 76.28.017 88.595-.715.408-1.398.834-2.077 1.255-.342-.228-.69-.45-1.03-.688-25.193 15.926-26.87 39.092-26.98 42.02-.009.202 0 .31 0 .31v48.26c11.565 22.4 30.472 37 51.818 37 21.048 0 39.715-14.198 51.32-36.072v-49.189s.008-.107 0-.31c-.114-2.986-1.867-27.044-28.543-42.982-.236.178-.476.344-.714.516-.067-.04-.132-.082-.2-.12.06-12.315.036-58.997.017-88.596 1.853-.682 3.173-2.502 3.173-4.66v-6.051c0-2.163-1.33-3.999-3.19-4.677 0-1.313.563-4.532 0-7.307-.797-3.935-5.316-5.347-5.316-5.347l-16.48-.275z" opacity=".74" fill="url(#n)"/><path d="M838.372 444.808c-7.471 5.6-15.753 8.717-24.472 8.717-8.206 0-16.023-2.761-23.143-7.754-25.193 15.926-26.87 39.093-26.98 42.02-.009.202 0 .31 0 .31v48.26c11.564 22.4 30.472 37 51.818 37 21.048 0 39.715-14.198 51.32-36.071V488.1s.008-.107 0-.31c-.114-2.985-1.867-27.044-28.543-42.982z" opacity=".74" fill="url(#o)"/><rect ry="4.401" y="355.98" x="783.103" height="85.827" width="7.975" opacity=".74" fill="url(#p)"/><path transform="matrix(.53164 0 0 .55018 299.909 236.814)" d="M940 384.362c0 8.837-9.402 16-21 16s-21-7.163-21-16c0-8.836 9.402-16 21-16s21 7.164 21 16z" opacity=".74" fill="#fdfffe" filter="url(#q)"/><path d="M795.164 338.259c15.354 1.75 23.022 1.75 40.363 0 2.536-.251 4.598 2.208 4.598 4.951v6.052c0 2.743-2.072 4.596-4.598 4.952-17.16 2.334-23.925 2.334-40.363 0-2.525-.361-4.598-2.209-4.598-4.952v-6.052c0-2.743 2.065-5.24 4.598-4.951z" opacity=".74" fill="url(#r)"/></g><path d="M96.096 281.13c21.182.451 36.372.15 57.558.237h28.388c1.234 21.948 2.063 43.933 3.944 65.835 1.237 6.151 2.019 12.424 3.78 18.45 5.245 13.538 9.16 27.53 13.459 41.384 3.981 12.641 7.684 25.384 10.535 38.332 6.184 28.7-3.042 52.235-8.244 78.747-3.892 19.84-4.771 16.711-8.751 36.53-4.168 20.756 7.318 48.916 9.19 52.62 6.886 6.545 22.938 5.8 33.624 6.392 22.386 1.238 44.675 5.435 66.067 7.617 44.052 4.494 68.358 6.384 99.698 6.836 13.915.201 41.182-.593 55.099-.728 32.163-.31 32.445-.135 48.318-3.07 6.01-1.112 23.339-13.173 29.307-12.863 7.96.414 17.948.724 24.27-.76 11.792-2.768 21.007-9.298 32.083-12.749 5.862-1.826 23.46-6.523 33.756-8.913 10.76-2.498 12.48-2.6 23.943-3.2 23.36-1.223 15.781 9.351 2.419 12.487-6.755 1.586-12.664 3.782-18.959 5.357-4.335 1.086-27.862 10.173-33.543 11.731-18.181 4.988-23.098 5.65-36.685 11.297 9.938-.545 20.1-3.178 29.195-5.636 3.186-.862 8.38-3.284 10.45-3.138 8.63.61 20.856-.612 29.228-1.667 2.937-.37 5.4-.72 7.067-.962.729-.106 15.127.029 21.26.099 10.721.122 14.852-.136 15.313 5.06.555 6.253-6.412 7.222-12.135 7.34-2.909.06-3.301.602-4.53.942-3.19.884-12.149.63-17.228 1.913-2.24.567-2.205 1.06-5.695 1.488-6.57.803-17.37 1.969-29.056 4.287-2.898.575-.87.176-6.421 1.1-6.417 1.068-23.05 2.538-32.28 2.573 22.678.179.189.082 23.269-.23 3.33-.044 5.297-.405 7.132-.072 3.96.719 14.775 2.352 28.488 4.78 2.144.38 3.727.195 5.583.744 9.6 2.838 11.51 2.918 16.731 4.296 1.295.342 3.921 1.1 5.01 1.38 22.544 5.779 11.553 14.281-1.082 11.118-1.237-.31-3.734-.913-4.563-.962-2.602-.153-6.627-.283-17.014-1.287-1.917-.186-4.496-.811-7.707-1.265-8.315-1.176-18.842-1.532-25.774-2.623-1.356-.214-5.634-.875-6.69-1.13-7.187-1.745-19.882-2.115-25.015-2.204 6.712 1.806 12.898 1.934 21.602 4.153 2.14.545 8.06 1.448 10.105 2.973 6.712 5.004 13.42 8.395 20.017 13.098 1.372.978 3.107 1.653 4.427 2.5 4.64 2.982 8.573 4.907 9.529 5.431.862.473 3.67 1.838 4.468 2.212 15.837 7.427 7.082 13.399-3.236 9.753-1.203-.425-2.865-1.53-4.274-1.993-4.22-1.384-7.746-2.793-12.511-5.005-1.698-.789-2.618-1.351-4.379-2.28-5.045-2.665-12.047-5.647-21.843-10.315-2.325-1.108-4.355-1.535-7.529-2.55-6.514-2.086-15.193-4.565-20.746-6.083-5.47-.536-9.262 1.113-11.78 1.276-14.651.947-24.9-2.224-26.02-2.592-10.487-3.453-11.747-1.794-29.967-.252-77.31 6.541-157.48 16.91-229.474 20.245-24.338 1.128-59.243.561-84.426-5.025-47.785-10.6-66.91-15.566-71.995-59.1-3.028-30-5.84-60.02-8.608-90.044-2.509-29.085-7.052-57.731-8.874-86.868-1.978-31.245-.347-63.015-1.422-94.3-.701-22.463-1.384-44.926-2.079-67.39.352-3.002 2.93-6.119 6.223-5.356z" fill="#ffb380" stroke="#d45500"/><g fill="#b3b3b3" stroke="#333" stroke-width="1.175" opacity=".5"><path d="M155.203 390.453c-4.798 8.641-1.407 222.914 1.367 222.24 0 0 8.096 5.048 9.809 8.268 3.293 6.19-.507 10.966-3.585 15.47-3.078 4.503-9.56 8.482-15.299 9.16-3.767.444-7.496-.67-10.274-3.252-6.23-5.79-10.21-9.28-12.242-17.539-.89-3.613 2.212-13.415 2.314-17.136 1.409-45.036-.535-172.57-.062-217.02l-.63-33.366s.522-20.806-2.228-30.687c-2.163-7.775-10.973-21.582-10.973-21.582-9.022-17.746 20.732-34.185 48.204-13.237 18.841 14.224 2.751 28.876-5.103 44.691z" stroke-width=".5871005"/><path d="M523.47 656.897c-.774-2.22.782-4.44-3.197-4.494-3.205-.043-5.069 2.852-10.386 3.054-60.66 2.31-248.036 16.118-296.544 6.363-19.83-1.929-25.144-14.022-37.439-21.502-2.665-1.622-7.87-5.065-7.87-5.065s-4.405 6.034-8.357 9.172c-2.658 2.11-6.143 3.106-9.484 3.701-3.872.69-7.763.13-11.276-1.272-2.85-1.137-5.662-3.358-7.344-5.551-1.773-2.313-3.177-5.246-4.973-5.858l-1.573.493c-6.245 1.958 3.355 22.167 10.33 28.027 6.327 5.317 16.52 3.957 24.053 5.971 7.533 2.015 13.82 4.145 21.153 6.066 13.175 3.452 19.513 3.844 39.963 5.656 21.828 1.934 48.768.733 100.781-2.089 32.308-3.137 100.45-8.643 150.469-13.968 11.54-1.228 27.13-2.306 35.756-3.247 12.676-1.383 18.513-.371 17.624-3.182-.215-.679-1.425-1.528-1.686-2.275z" stroke-width=".5871005"/><path d="M526.326 640.092c9.255-13.543-7.758-7.052-17.464-1.488-4.406 2.526-9.17 2.235-52.558 3.654-14.692.163-24.983 1.145-46.07.497-29.792-.915-62.273.205-93.644-3.36-31.565-3.588-58.32-8.575-74.335-9.754-9.933-2.105-22.575-4.164-33.44-2.486-6.933 1.07-12.787 1.97-19.157 1.454-4-.325-14.18-5.593-17.752-2.831-2.188 1.691-1.865 4.648-2.926 7.362-1.033 2.641 7.208 5.469 9.256 6.715 4.97 3.021 9.506 6.5 14.858 7.536 18.593-1.09 36.048 1.989 53.717 2.426 7.945.196 48.148 1.474 72.425 2.851 30.907 1.753 67.458-.842 103.195-1.188 22.604-.219 46.228-2.363 63.685-2.53 8.679-.083 15.827-.539 21.998-.2 5.587.306 8.639 1.293 13.294 1.388 1.882.038 1.628-.968 1.742-2.061.204-1.957 1.088-4.93 3.176-7.985z" stroke-width=".5871005"/></g><path d="M552.903 650.823s-3.03-2.028-4.684-2.249c-1.795-.24-4.478.746-5.24 1.058-.764.313-3.735 3.48-3.735 3.48l-1.754 1.254" fill="#b3b3b3" stroke="#333" stroke-width="2"/><g fill="#b3b3b3" stroke="#333" stroke-width=".587"><path d="M599.405 613.908c-.909-1.8-1.983-3.633-3.702-4.246-1.459-.521-3.054-.224-4.484.194-3.771 1.101-6.734 4.301-10.32 5.952-5.759 2.65-17.87 6.292-17.87 6.292s-3.55 1.573-6.055 1.35c-1.712-.153-5.634-2.385-7.33-.023-.732 1.02 1.733 2.91 1.325 7.621-.537 2.53-2.452 4.667 1.068 5.494 3.234.591 7.16-4.035 7.16-4.035s6.398-4.319 10.444-6.24c3.818-1.814 7.953-2.78 12.03-3.796 2.611-.65 6.134-1.25 6.134-1.25s4.678-.253 6.068-.55c2.187-.468 4.525-.607 5.618-2.517.657-1.15.656-2.776-.086-4.245zM594.6 630.93c-2.298.44-4.068 2.5-6.292 3.235-6.194 2.047-12.73 3.462-19.3 3.163-3.583-.164-8.752-1.964-12.19-1.061-2.623.688-4.526 1.321-4.55 4.154-.04 5 2.744 5.088 3.849 5.28 5.917-.21 7.498-.801 10.785-1.737 7.909-2.251 16.468-1.889 24.713-2.267 2.735-.126 4.946 1.151 7.514.22 3.811-2.473 6.077-2.212 4.834-7.374-.664-3.778-5.104-4.33-9.362-3.612zM596.757 649.243c-1.182-.689-2.364-.822-3.868-.668-1.575.162-3.093 1.195-4.611 1.637-3.225.938-10.138-.036-10.138-.036l-11.224-.617-4.052-1.564s-3.487-1.473-5.652.097c-.64.463-2.34.93-2.63 2.128-.305 1.26.15 3.253 1.303 3.797l2.953 1.396c1.699.248 2.076-.112 5.168-.7 2.856-.403 8.073.45 8.073.45l9.695.274s4.311.499 6.767 1.335c.891.303 2.4.817 3.306 1.026 2.022.465 4.034.219 5.614-1.08 1.683-2.388.871-6.41-.704-7.475zM592.944 667.398c-1.433-1.1-2.347-1.649-4.023-1.847-1.414-.166-4.198.406-4.198.406l-13.41-2.884s-4.085-.874-5.93-1.964c-1.24-.731-3.303-2.98-3.303-2.98l-3.062-1.927s-3.57-.178-4.93.85c-1.386 1.045-2.02 2.364-1.866 4.32.16 2.04 1.263 4.243 2.76 5.454 1.683 1.362 3.942.84 5.913.846 1.589.004 2.854-.77 4.693-.657 5.977.364 11.908 2.557 17.665 4.815 1.606.63 2.522 2.28 4.36 2.583.976.16 3.632-.489 3.632-.489 1.568-.278 4.97-3.707 1.699-6.526z" opacity=".5"/><path d="M531.644 663.58s1.568 2.185 2.625 2.82c2.3 1.383 4.411 1.66 6.682 1.416 2.9-.31 5.809-1.516 7.877-3.7.947-.998.38-3.713.933-5.055.673-1.63 2.622-2.938 2.902-4.594.258-1.515-1.277-2.998-1.05-4.307.194-1.128.923-1.452 1.175-2.38.285-1.048-1.434-1.548-1.763-2.482-.707-2.008-1.582-4.739-2.24-6.487-.414-1.102-1.136-2.152-1.195-3.327-.075-1.526 1.006-4.065.973-5.59-.056-2.51-.617-4.524-2.013-5.971-1.56-1.617-5.51-1.59-5.51-1.59s-3.598-1.405-4.97-.442c-1.857 1.303-1.65 4.407-3.04 6.312-.934 1.278-2.246 2.95-3.056 4.233-.81 1.283-1.23 3.941-1.23 3.941l-1.494 5.572s-.893 4.565-.874 6.89c.027 3.15 1.297 9.404 1.297 9.404.204 1.637 2.66 4.588 3.97 5.337zM605.168 618.203s1.42-.223 1.99-.649c.996-.742 1.314-2.325 2.262-3.143 2.19-1.892 7.592-3.808 7.592-3.808s6.02-1.979 8.301-2.189c2.595-.407 3.654 0 5.458-2.165.246-.718.223-2.011-.03-3.336-.226-1.191.074-2.866-.721-3.715-.793-.846-2.089-.74-3.132-.667-1.716.12-2.217.408-3.665 1.381-.453.305-2.318 1.644-2.318 1.644s-8.301 4.13-12.953 4.275c-1.367.042-2.722-.524-4.222-.743-.995-.145-2.428-.666-3.313-.235-.885.432-1.465.48-1.733 1.615-.28 1.189 1.097 2.84 1.097 2.84s2.77 3.465 2.353 5.306c-.426 1.879.278 4.013 3.035 3.589zM633.605 605.99c-1.19-.833-.26-2.476-.69-3.888-.534-1.75-2.21-3.336-1.362-4.848.98-1.745 4.117-.165 6.162-.366 2.053-.203 3.577-.006 5.618-.29 1.268-.176 2.962-2.12 4.308-1.089 1.046.802.931 3.035.931 3.035s.617 3.044.176 3.468c-.873.84-1.458 1.302-2.785 1.304-.907.001-2.096-.161-3.003-.16-1.743.004-3.32 1-4.979 1.502-1.46.442-2.58 2.59-4.376 1.332zM651.58 601.732c-1.234-.71-1.423-1.82-1.608-3.357-.158-1.315-.322-2.524.607-3.236.888-.68 2.115.098 3.217.15 1.096.052 3.232-.46 3.232-.46s1.724-.46 2.665-.486c1.218-.035 1.902.014 2.708 1.122.838 1.152-.062 2.988-.454 3.355-.393.366-1.795.46-2.763.848-1.174.471-2.98 1.018-3.97 1.348-1.472.492-2.202 1.54-3.634.716zM642.936 633.582c1.281.678 5.398-.71 8.196-.903 1.474-.102 2.878-.841 4.364-.72 1.188.096 2.482.404 3.668.407 1.37.003 1.932-.592 2.648-1.711.876-1.369-.562-2.446-.274-3.81.479-2.255-.91-2.74-2.502-2.608-1.498.18-3.006 1.468-4.48 1.783-1.485.317-6.083-.547-6.083-.547s-4.19-2.553-6.883-.917c-1.952 1.872.076 7.696 1.346 9.026zM665.052 630.684l4.235-.013 4.036-.736c3.1-.565 3.604-3.914-1.092-5.531-1.992-.686-5.537-.808-6.817.012-1.66 1.063-1.41 6.272-.362 6.268zM639.048 633.97c-1.015 1.994-1.948 1.4-3.947 1.537-.957.066-2.338-.344-3.501-.314-6.019.156-17.805 2.555-17.805 2.555-2.074 1.055-6.51 3.611-7.43 2.135-.725-1.245.127-1.335.38-2.738.259-1.427-.12-3.028-.65-4.414-.512-1.343-2.56-2.205-2.345-3.525.598-3.692 3.15-2.66 4.597-2.055l3.348 1.397 13.286-.268 6.38-.766s1.671-1.52 2.705-1.724c1.334-.264 2.027.365 4.018 1.698 1.858 1.244 1.399 5.502.964 6.481zM630.077 661.317s-2.575 1.392-4.236.76c-.526-.2-1.182-.584-1.79-.814-5.248-1.987-10.42-3.365-15.577-2.458-2.01.354-3.802.973-5.908 1.003-.899.013-2.735.268-2.966-.982-.295-1.6.527-3.087.6-4.423.114-2.13-.663-3.269-.16-4.872.371-1.184 1.185-1.112 2.002-1.149 1.65-.075 3.44 1.496 4.013 1.918.573.423 6.724 1.784 6.724 1.784l11.034 1.351s3.237-.222 4.863.298c.4.128 1.449.978 1.449.978 2.163 1.569 1.47 6.174-.048 6.606zM634.614 654.679c3.736-.019 6.017 3.089 10.036 3.177 1.644.231 3.162.23 4.774.334 1.136.096 2.055.249 2.797 1.586.79 1.42.859 2.373.064 3.775-.569 1.004-.714 1.03-2.022 1.114-1.09.07-1.936-.306-3.021-.58-4.55-1.148-9.38.397-12.605-.597-1.344-.414-2.004-1.851-2.01-3.354-.007-2.222-.004-5.445 1.987-5.455zM654.572 663.143c-.184 1.457.534 1.64 1.134 2.091 1.225.924 2.743.333 4.267.685 1.892.438 2.26.634 4.122.304 3.159-.56 3.022-3.543 1.345-3.764 0 0-3.353-.341-4.366-.594-2.282-.568-4.116-2.99-5.803-1.924-.832.526-.502 1.648-.699 3.202zM640.808 697.14c.475.09 1.536.266 2.276.095 2.265-.456 2.699-1.125 1.064-2.41-.75-.645-1.755-1.188-2.623-1.574-1.205-.536-2.327-2.01-3.652-1.77-1.245.223-1.486 1.942-1.486 1.942s-.567 1.013-.11 2.047c.94 2.125 2.885 1.353 4.53 1.669zM633.91 693.91c1.4-.888 1.376-1.917.64-3.51-.313-.68-1.158-1.1-1.81-1.514-1.025-.651-1.907-.918-3.247-1.49-1.344-.572-1.497-1.238-3.06-2.347-1.176-.835-2.73-2.163-3.929-1.55-1.543.788-2.032 2.796-1.844 4.567.104.985 1.116 1.676 1.869 2.307.749.628 2.047.988 2.908 1.36 1.468.632 3.18.679 4.504 1.672 2.029.74 2.35 1.482 3.97.505zM618.273 687.503c.905-.482 1.714-1.466 2.008-2.564.242-.904.222-1.628-.11-2.537-.236-.649-.882-1.213-1.487-1.75-1.08-.957-2.028-.783-3.128-1.271-1.323-.588-3.832-2.167-3.832-2.167l-4.381-3.01-5.038-3.274s-2.036-3.063-3.607-3.39c-1.12-.232-1.732.337-2.2 1.471-.326.788-.079 1.583-.18 2.318-.222 1.604-1.94 2.564-2.022 4.195-.022.435.225.578.421 1.253.29.993 1.745 1.444 2.732 1.857 1.277.534 2.656.26 3.98.743 2.773 1.01 5.772 2.683 8.596 4.202 2.31 1.243 4.135 3.42 6.817 4.015.35.078.935.174 1.43-.09z" opacity=".5"/></g><g opacity=".8" stroke="#916f6f" fill="none" stroke-linecap="round"><path d="M547.268 665.476s.113-3.792-.73-5.229c-1.155-1.965-3.458-2.212-5.219-3.241-1.403-.82-3.565-3.754-4.258-2.336-1.755 3.59-5.417 8.91-5.417 8.91M536.853 654.862s-.95-2.788-1.663-4.094c-.786-1.44-2.57-2.62-2.7-4.271-.149-1.876.82-3.74 1.954-5.01 1.816-2.032 5.678-.99 7.086-3.415.544-.937.515-2.409.043-3.467-.632-1.415-2.261-1.875-3.386-2.822-1.286-1.083-5.158-3.58-5.158-3.58"/><path d="M547.537 637.85s-1.858.48-3.615.782c-1.227.21-2.392-.56-2.392-.56"/></g><path d="M194.406 628.19s-6.904-15.5-9.453-22.942c-4.593-13.411-7.373-27.713-10.59-41.751-3.223-14.07-8.72-42.54-8.72-42.54s-3.597-30.844-3.737-46.477c-.167-18.761 2.66-37.271 3.737-55.932.667-11.558 2.445-20.532 1.687-34.701-.814-15.209-6.67-52.74-6.67-52.74l4.36-11.817s3.737 28.722 8.538 41.982c4.151 11.462 11.96 25.027 17.22 35.736 9.857 20.067 13.375 30.407 16.323 45.706 2.949 15.298 2.898 33.15 1.945 42.794-1.42 14.352-5.538 27.774-7.998 41.752-2.117 12.03-5.298 21.667-5.818 36.237-.322 9.015.289 24.385 2.18 33.086 2.024 9.31 9.381 29.848 9.381 29.848zM123.797 647.924c-6.534-1.377-6.252-15.925-8.053-24.413-2.78-13.1-2.877-27.463-4.111-40.27-.613-6.365-1.555-19.462-2.21-25.82-.751-7.29-1.139-12.576-2.073-19.834-1.458-11.333-3.234-22.61-4.438-33.986-1.102-10.404-1.975-20.85-2.548-31.317-.934-17.05-1.71-34.146-1.45-51.23.18-11.78.778-22.224.928-34.981.085-7.295 1.064-16.494 1.063-24.88 0-11.275-1.307-25.236 1.489-37.168 1.931-8.242 8.223-21.943 10.259-22.495 2.435-.66 3.248 9.494 3.248 9.494s-1.955 2.122-3.204 7.683c-1.374 6.114-2.876 13.767-3.127 18.949-.548 11.281 1.622 23.218 2.798 34.429.929 8.854 3.226 17.42 4.614 26.185 1.467 9.264 2.998 18.53 3.925 27.896a305.137 305.137 0 0 1 1.404 24.337c.244 13.08-.63 26.155-.797 39.237-.139 10.907-.17 32.726-.17 32.726s-.615 19.67-.91 29.779c-.487 16.64-2.373 36.911-1.565 50.462.437 7.336 1.325 13.136 2.5 23.376.765 6.665 2.28 10.997 2.28 10.997s3.087 11.463.148 10.844z" fill="#d35f5f" stroke="#000" opacity=".5"/><g fill="#d40000" stroke="#d40000"><path d="M617.405 702.886l-2.279-3.948-2.279-3.948h9.117l-2.28 3.949z" stroke-width="14.953833000000001"/><path d="M617.406 657.464v31.65" stroke-width="14.945" stroke-linecap="square"/></g><path d="M197.941 629.31V331.127" fill="#d40000" stroke="#d40000" stroke-width="14.945"/><path d="M197.941 319.355l-2.28 3.948-2.278 3.948h9.117l-2.28-3.948z" fill="#d40000" stroke="#d40000" stroke-width="14.953833000000001"/><g transform="translate(-754.155 -264.757) scale(4.32196)" ns0:text="$\\vec{F}_{\\rm{1}}$" ns0:preamble="/home/waldgeist/data/sphinx/test.tex" fill="#d40000"><defs><symbol overflow="visible" id="s"><path d="M5.36-5.938c-.141.141-.47.422-.47.594 0 .094.094.203.188.203s.14-.078.203-.14c.11-.14.344-.422.782-.64.062-.048.171-.095.171-.204 0-.11-.078-.156-.14-.203a1.034 1.034 0 0 1-.407-.563c-.03-.093-.062-.234-.203-.234-.14 0-.203.14-.203.219 0 .047.078.36.235.578h-3.36c-.156 0-.344 0-.344.203 0 .188.188.188.344.188zm0 0"/></symbol><symbol overflow="visible" id="t"><path d="M3.016-3.234h.968c.75 0 .829.156.829.437 0 .078 0 .188-.063.5-.031.047-.031.078-.031.11 0 .078.062.109.11.109.109 0 .109-.031.155-.203l.547-2.172c.032-.11.032-.125.032-.156a.117.117 0 0 0-.125-.11c-.094 0-.11.047-.141.219-.219.766-.438.953-1.297.953h-.906l.64-2.531c.094-.36.11-.39.547-.39h1.313c1.218 0 1.453.327 1.453 1.093 0 .234 0 .266-.031.547C7-4.703 7-4.688 7-4.656c0 .047.031.125.125.125.11 0 .11-.063.125-.25l.203-1.735c.031-.265-.016-.265-.266-.265h-4.89c-.188 0-.297 0-.297.203 0 .11.094.11.281.11.375 0 .656 0 .656.171 0 .047 0 .063-.062.25L1.562-.78c-.093.39-.109.469-.906.469-.172 0-.281 0-.281.187C.375 0 .5 0 .531 0c.281 0 1.031-.031 1.313-.031C2.172-.031 3 0 3.328 0c.094 0 .203 0 .203-.188 0-.078-.047-.109-.047-.109-.03-.016-.062-.016-.28-.016-.22 0-.267 0-.517-.015-.296-.031-.328-.078-.328-.203 0-.016 0-.078.047-.219zm0 0"/></symbol><symbol overflow="visible" id="u"><path d="M2.328-4.438c0-.187 0-.187-.203-.187-.453.438-1.078.438-1.36.438v.25c.157 0 .626 0 1-.188v3.547c0 .234 0 .328-.687.328H.812V0c.125 0 .985-.031 1.235-.031.219 0 1.094.031 1.25.031v-.25H3.03c-.703 0-.703-.094-.703-.328zm0 0"/></symbol></defs><use height="1052.362" width="744.094" xlink:href="#s" x="224.901" y="132.246"/><use height="1052.362" width="744.094" xlink:href="#t" x="223.432" y="134.765"/><use height="1052.362" width="744.094" xlink:href="#u" x="229.839" y="136.259"/></g><g transform="translate(-352.797 169.353) scale(4.32196)" ns0:preamble="/home/waldgeist/data/sphinx/test.tex" ns0:text="$\\vec{F}_{\\rm{2}}$" fill="#d40000"><defs><symbol id="v" overflow="visible"><path d="M5.36-5.938c-.141.141-.47.422-.47.594 0 .094.094.203.188.203s.14-.078.203-.14c.11-.14.344-.422.782-.64.062-.048.171-.095.171-.204 0-.11-.078-.156-.14-.203a1.034 1.034 0 0 1-.407-.563c-.03-.093-.062-.234-.203-.234-.14 0-.203.14-.203.219 0 .047.078.36.235.578h-3.36c-.156 0-.344 0-.344.203 0 .188.188.188.344.188zm0 0"/></symbol><symbol id="w" overflow="visible"><path d="M3.016-3.234h.968c.75 0 .829.156.829.437 0 .078 0 .188-.063.5-.031.047-.031.078-.031.11 0 .078.062.109.11.109.109 0 .109-.031.155-.203l.547-2.172c.032-.11.032-.125.032-.156a.117.117 0 0 0-.125-.11c-.094 0-.11.047-.141.219-.219.766-.438.953-1.297.953h-.906l.64-2.531c.094-.36.11-.39.547-.39h1.313c1.218 0 1.453.327 1.453 1.093 0 .234 0 .266-.031.547C7-4.703 7-4.688 7-4.656c0 .047.031.125.125.125.11 0 .11-.063.125-.25l.203-1.735c.031-.265-.016-.265-.266-.265h-4.89c-.188 0-.297 0-.297.203 0 .11.094.11.281.11.375 0 .656 0 .656.171 0 .047 0 .063-.062.25L1.562-.78c-.093.39-.109.469-.906.469-.172 0-.281 0-.281.187C.375 0 .5 0 .531 0c.281 0 1.031-.031 1.313-.031C2.172-.031 3 0 3.328 0c.094 0 .203 0 .203-.188 0-.078-.047-.109-.047-.109-.03-.016-.062-.016-.28-.016-.22 0-.267 0-.517-.015-.296-.031-.328-.078-.328-.203 0-.016 0-.078.047-.219zm0 0"/></symbol><symbol id="x" overflow="visible"><path d="M3.516-1.266H3.28c-.015.157-.094.563-.187.625-.047.047-.578.047-.688.047H1.125c.734-.64.984-.844 1.39-1.172.516-.406 1-.843 1-1.5 0-.843-.734-1.359-1.624-1.359-.86 0-1.454.61-1.454 1.25 0 .344.297.39.376.39.156 0 .359-.124.359-.374 0-.125-.047-.375-.406-.375.218-.485.687-.641 1.015-.641.703 0 1.063.547 1.063 1.11 0 .609-.438 1.078-.656 1.328L.516-.266C.437-.203.437-.187.437 0h2.876zm0 0"/></symbol></defs><use y="132.246" x="224.901" xlink:href="#v" width="744.094" height="1052.362"/><use y="134.765" x="223.432" xlink:href="#w" width="744.094" height="1052.362"/><use y="136.259" x="229.839" xlink:href="#x" width="744.094" height="1052.362"/></g><g stroke="green"><path d="M144.577 628.86l48.255.018" fill="#d40000" stroke-width="6.000251609999999"/><path d="M191.032 628.879l-2.824-1.631-2.824-1.632v3.262l-.001 3.261 2.825-1.63z" fill="green" stroke-width="8.00001"/><g><path d="M177.91 628.86l-27.941.018" fill="#d40000" stroke-width="6.000251609999999"/><path d="M147.058 628.879l2.824-1.631 2.824-1.632v3.262l.001 3.261-2.824-1.63z" fill="green" stroke-width="8.00001"/></g></g><g transform="translate(-815.292 133.88) scale(4.32196)" ns0:text="$\\vec{s}_{\\rm{1}}$" fill="green" stroke="green" stroke-width="1.388"><defs><symbol id="y" overflow="visible"><path d="M5.36-5.938c-.141.141-.47.422-.47.594 0 .094.094.203.188.203s.14-.078.203-.14c.11-.14.344-.422.782-.64.062-.048.171-.095.171-.204 0-.11-.078-.156-.14-.203a1.034 1.034 0 0 1-.407-.563c-.03-.093-.062-.234-.203-.234-.14 0-.203.14-.203.219 0 .047.078.36.235.578h-3.36c-.156 0-.344 0-.344.203 0 .188.188.188.344.188z" stroke="none"/></symbol><symbol id="z" overflow="visible"><path d="M3.89-3.734c-.265.015-.468.234-.468.453 0 .14.094.297.312.297.22 0 .454-.172.454-.563 0-.453-.422-.86-1.188-.86-1.313 0-1.688 1.016-1.688 1.454 0 .781.735.922 1.032.984.515.11 1.031.219 1.031.766 0 .25-.219 1.094-1.422 1.094-.14 0-.906 0-1.14-.532.39.047.64-.25.64-.53 0-.22-.172-.345-.375-.345-.266 0-.562.204-.562.657 0 .562.578.968 1.421.968 1.625 0 2.016-1.203 2.016-1.656a.97.97 0 0 0-.312-.719c-.266-.28-.563-.343-1-.421-.36-.079-.75-.157-.75-.61 0-.281.234-.89 1.109-.89.25 0 .75.078.89.453z" stroke="none"/></symbol><symbol id="A" overflow="visible"><path d="M2.328-4.438c0-.187 0-.187-.203-.187-.453.438-1.078.438-1.36.438v.25c.157 0 .626 0 1-.188v3.547c0 .234 0 .328-.687.328H.812V0c.125 0 .985-.031 1.235-.031.219 0 1.094.031 1.25.031v-.25H3.03c-.703 0-.703-.094-.703-.328z" stroke="none"/></symbol></defs><use y="134.765" x="223.064" xlink:href="#y" width="744.094" height="1052.362"/><use y="134.765" x="223.433" xlink:href="#z" width="744.094" height="1052.362"/><use y="136.259" x="228.102" xlink:href="#A" width="744.094" height="1052.362"/></g><g fill="none" stroke="green" stroke-width="6.575"><path d="M377.077 156.659h372.02" transform="matrix(-1.2144 0 0 1.21919 1061.58 460.535)"/><path d="M-707.107 1620.068l-5.249-9.091-5.249-9.092h20.996l-5.249 9.091z" transform="matrix(-.00001 -.36806 -.36662 .00001 741.89 391.254)" stroke-width="21.778"/><path transform="matrix(.00001 -.36806 .36662 .00001 17.135 391.254)" d="M-707.107 1620.068l-5.249-9.091-5.249-9.092h20.996l-5.249 9.091z" stroke-width="21.778"/></g><g ns0:text="$\\vec{s}_{\\rm{2}}$" transform="translate(-604.956 133.88) scale(4.32196)" fill="green" stroke="green"><defs><symbol overflow="visible" id="B"><path d="M5.36-5.938c-.141.141-.47.422-.47.594 0 .094.094.203.188.203s.14-.078.203-.14c.11-.14.344-.422.782-.64.062-.048.171-.095.171-.204 0-.11-.078-.156-.14-.203a1.034 1.034 0 0 1-.407-.563c-.03-.093-.062-.234-.203-.234-.14 0-.203.14-.203.219 0 .047.078.36.235.578h-3.36c-.156 0-.344 0-.344.203 0 .188.188.188.344.188z" stroke="none"/></symbol><symbol overflow="visible" id="C"><path d="M3.89-3.734c-.265.015-.468.234-.468.453 0 .14.094.297.312.297.22 0 .454-.172.454-.563 0-.453-.422-.86-1.188-.86-1.313 0-1.688 1.016-1.688 1.454 0 .781.735.922 1.032.984.515.11 1.031.219 1.031.766 0 .25-.219 1.094-1.422 1.094-.14 0-.906 0-1.14-.532.39.047.64-.25.64-.53 0-.22-.172-.345-.375-.345-.266 0-.562.204-.562.657 0 .562.578.968 1.421.968 1.625 0 2.016-1.203 2.016-1.656a.97.97 0 0 0-.312-.719c-.266-.28-.563-.343-1-.421-.36-.079-.75-.157-.75-.61 0-.281.234-.89 1.109-.89.25 0 .75.078.89.453z" stroke="none"/></symbol><symbol overflow="visible" id="D"><path d="M3.516-1.266H3.28c-.015.157-.094.563-.187.625-.047.047-.578.047-.688.047H1.125c.734-.64.984-.844 1.39-1.172.516-.406 1-.843 1-1.5 0-.843-.734-1.359-1.624-1.359-.86 0-1.454.61-1.454 1.25 0 .344.297.39.376.39.156 0 .359-.124.359-.374 0-.125-.047-.375-.406-.375.218-.485.687-.641 1.015-.641.703 0 1.063.547 1.063 1.11 0 .609-.438 1.078-.656 1.328L.516-.266C.437-.203.437-.187.437 0h2.876z" stroke="none"/></symbol></defs><use height="1052.362" width="744.094" xlink:href="#B" x="223.064" y="134.765"/><use height="1052.362" width="744.094" xlink:href="#C" x="223.433" y="134.765"/><use height="1052.362" width="744.094" xlink:href="#D" x="228.102" y="136.259"/></g></svg>