<svg xmlns="http://www.w3.org/2000/svg" width="1052.362" height="744.094"><title>Hebel-Aufgabe Kiste</title><g transform="translate(0 -308.268)"><path fill="#fff" stroke="#fff" stroke-width="1.581" stroke-linejoin="round" d="M50.758 805.474h950.846V555.155H50.758z"/><path fill="#4d4d4d" fill-rule="evenodd" stroke="#333" stroke-width="2" d="M84.819 750.089h408.825v26.387H84.819zM558.718 750.089h408.825v26.387H558.718z"/><rect ry="1.711" rx="3.075" width="211.231" height="4.829" x="-195.545" y="760.467" transform="rotate(-32.556)" fill="#b3b3b3" fill-rule="evenodd" stroke="#000" stroke-width="1.089"/><g stroke-linecap="round"><path style="marker:none" color="#000" fill="#a05a2c" stroke="#502d16" stroke-width="2" stroke-linejoin="round" overflow="visible" d="M87.196 668.614h176.666v63.046H87.196z"/><path style="marker:none" color="#000" fill="#a05a2c" stroke="#502d16" stroke-width="2" stroke-linejoin="round" overflow="visible" d="M108.486 731.66h16.43v16.428h-16.43zM226.143 731.66h16.43v16.428h-16.43z"/><path d="M87.197 699.394h176.666M87.197 684.004h176.666M87.197 714.784h176.666" fill="none" stroke="#784421"/></g><g transform="translate(-31.375 -84.009)"><rect ry="1.711" rx="3.075" width="211.231" height="4.829" x="190.923" y="1102.503" transform="rotate(-32.276)" fill="#b3b3b3" fill-rule="evenodd" stroke="#000" stroke-width="1.089"/><path style="marker:none" color="#000" fill="#a05a2c" stroke="#502d16" stroke-width="2" stroke-linecap="round" stroke-linejoin="round" overflow="visible" d="M592.934 752.623H769.6v63.046H592.934z"/><path style="marker:none" color="#000" fill="#a05a2c" stroke="#502d16" stroke-width="2" stroke-linecap="round" stroke-linejoin="round" overflow="visible" d="M614.224 815.668h16.429v16.429h-16.429zM731.881 815.668h16.429v16.429h-16.429z"/><path d="M592.934 783.403H769.6M592.934 768.013H769.6M592.934 798.793H769.6" fill="none" stroke="#784421" stroke-linecap="round"/><path d="M798.768 807.129s13.581 24.91 13.336 24.941h-26.673z" style="marker:none" color="#000" fill="#a05a2c" stroke="#784421" stroke-width="2" stroke-linecap="round" stroke-linejoin="round" overflow="visible"/></g><g transform="translate(0 -84.009)" stroke-linecap="round" stroke-linejoin="round"><rect transform="scale(-1 1) rotate(-.55)" ry="10.736" y="692.571" x="-489.309" height="64.419" width="21.473" stroke="#000" stroke-width="6"/><rect transform="matrix(-.00052 1 1 .00098 0 0)" ry="7.312" y="465.829" x="753.831" height="14.625" width="75.802" stroke="#000" stroke-width="6"/><path d="M460.71 675.225c-2.89 6.01-.361 13.226 5.649 16.117 6.01 2.89 13.226.361 16.117-5.649 2.89-6.01.361-13.226-5.649-16.117-6.01-2.89-13.226-.361-16.117 5.649z" stroke="#000" stroke-width="2.43473724"/><g transform="scale(.97499 -.97499) rotate(62.463 1153.475 -92.317)" stroke-width=".513"><rect transform="rotate(90)" ry="6.161" y="-292.567" x="203.662" height="47.411" width="12.321" stroke="#fff"/><rect width="10.804" height="43.214" x="245.484" y="206.89" ry="5.402" stroke="#000"/></g></g><g transform="translate(475.153 -84.009)" stroke-linecap="round" stroke-linejoin="round"><rect width="21.473" height="64.419" x="-489.309" y="692.571" ry="10.736" transform="scale(-1 1) rotate(-.55)" stroke="#000" stroke-width="6"/><rect width="75.802" height="14.625" x="753.831" y="465.829" ry="7.312" transform="matrix(-.00052 1 1 .00098 0 0)" stroke="#000" stroke-width="6"/><path d="M460.71 675.225c-2.89 6.01-.361 13.226 5.649 16.117 6.01 2.89 13.226.361 16.117-5.649 2.89-6.01.361-13.226-5.649-16.117-6.01-2.89-13.226-.361-16.117 5.649z" stroke="#000" stroke-width="2.43473724"/><g transform="scale(.97499 -.97499) rotate(62.463 1153.475 -92.317)" stroke-width=".513"><rect width="12.321" height="47.411" x="203.662" y="-292.567" ry="6.161" transform="rotate(90)" stroke="#fff"/><rect ry="5.402" y="206.89" x="245.484" height="43.214" width="10.804" stroke="#000"/></g></g></g></svg>