<svg xmlns="http://www.w3.org/2000/svg" width="210mm" height="297mm"><title>Lose Rolle</title><defs><filter color-interpolation-filters="sRGB" id="a" x="-.36" width="1.72" y="-.36" height="1.72"><feGaussianBlur stdDeviation="3.429"/></filter></defs><path fill="#fff" stroke="#fff" stroke-width="1.138" stroke-dasharray="1.13784456,1.13784456" d="M58.044 106.323h628.007V946.04H58.044z"/><path d="M315.436 195.085a13.256 13.256 0 1 1 13.256 13.256" fill="none" stroke="#333" stroke-width="4.0003847" stroke-linecap="round" stroke-linejoin="round"/><path d="M315.436 195.085v-18.45" fill="none" stroke="#333" stroke-width="4" stroke-linecap="round"/><g fill="none" stroke="#333" stroke-linecap="round"><path d="M371.471 692.517c-7.321 0-13.256-5.935-13.256-13.256 0-7.322 5.935-13.257 13.256-13.257 7.321 0 13.256 5.935 13.256 13.257" stroke-width="4.0003847" stroke-linejoin="round"/><path d="M371.471 692.517v18.45" stroke-width="4"/></g><path fill="#b3b3b3" stroke="#333" stroke-width="1.5" stroke-linecap="round" stroke-linejoin="round" d="M329.332 702.42h84.278v136.365h-84.278z"/><path d="M301.429 350.934c0 6.311-5.117 11.428-11.429 11.428s-11.429-5.117-11.429-11.428c0-6.312 5.117-11.429 11.429-11.429s11.429 5.117 11.429 11.429z" transform="matrix(.43074 0 0 .43074 225.488 571.825)" opacity=".5" fill="#fff" filter="url(#a)"/><g fill="#d40000" stroke="#d40000"><path d="M371.471 770.603v113.199" stroke-width="14.945"/><path d="M371.47 899.988l-2.678-4.64-2.679-4.64h10.716l-2.68 4.64z" stroke-width="14.953841"/></g><path d="M372.047 668.628v-66.963" fill="none" stroke="#000" stroke-width="6" stroke-linecap="round"/><path d="M428.658 501.587c0 31.273-25.345 56.625-56.61 56.625-31.266 0-56.612-25.352-56.612-56.625" fill="none" stroke="#000" stroke-width="6"/><path d="M428.658 501.587V314.635" fill="none" stroke="#000" stroke-width="6" stroke-linecap="round"/><path fill="#4d4d4d" fill-rule="evenodd" stroke="#333" stroke-width="3" d="M124.02 146.954h496.054v32.017H124.02z"/><path d="M315.436 501.587V219.864" fill="none" stroke="#000" stroke-width="6" stroke-linecap="round"/><path transform="matrix(-2.29664 0 0 2.2972 5859.213 202.654)" d="M2412.868 130.116a23.65 23.65 0 1 1-47.298 0 23.65 23.65 0 1 1 47.298 0z" fill="maroon" fill-rule="evenodd" stroke="#333" stroke-width="1.306"/><path fill="#4d4d4d" fill-rule="evenodd" stroke="#333" stroke-width="2" stroke-linejoin="round" d="M386.896 502.836h-29.698v106.081h29.698z"/><path d="M2330.115 104.527a4.288 4.288 0 1 1-8.576 0 4.288 4.288 0 1 1 8.576 0z" transform="matrix(-3.16771 0 0 3.1685 7739.6 170.364)" fill="#fc0" fill-rule="evenodd" stroke="#000" stroke-width=".947"/><g fill="#d40000" stroke="#d40000"><path d="M428.658 304.326l-2.679 4.64-2.679 4.64h10.716l-2.679-4.64z" stroke-width="14.953841"/><path d="M428.658 357.71v-37.198" stroke-width="14.945" stroke-linecap="square"/></g><g fill="#d40000" stroke="#d40000"><path d="M315.436 304.326l-2.679 4.64-2.679 4.64h10.716l-2.679-4.64z" stroke-width="14.953841"/><path d="M315.436 357.71v-37.198" stroke-width="14.945" stroke-linecap="square"/></g></svg>