<svg xmlns:ns0="http://www.iki.fi/pav/software/textext/" xmlns="http://www.w3.org/2000/svg" xmlns:xlink="http://www.w3.org/1999/xlink" width="744.094" height="1052.362"><title>Der Potenz-Flaschenzug (Loesung)</title><defs><filter height="1.72" y="-.36" width="1.72" x="-.36" id="a" color-interpolation-filters="sRGB"><feGaussianBlur stdDeviation="3.429"/></filter></defs><rect ry="0" rx="0" y="9.474" x="-104.922" height="1033.413" width="954.929" fill="#fff" stroke="#fff"/><path fill="#4d4d4d" fill-rule="evenodd" stroke="#333" stroke-width="3" d="M184.71 36.405h374.674v24.183H184.71z"/><g fill="none" stroke="#333" stroke-linecap="round"><path d="M273.191 853.574c-5.53 0-10.012-4.483-10.012-10.012 0-5.53 4.483-10.013 10.012-10.013 5.53 0 10.013 4.483 10.013 10.013" stroke-width="4.37333088" stroke-linejoin="round"/><path d="M273.191 853.574v13.935" stroke-width="4.3732449"/></g><path fill="#b3b3b3" stroke="#333" stroke-width="1.5891722400000001" stroke-linecap="round" stroke-linejoin="round" d="M241.363 861.054h63.656v102.998h-63.656z"/><path d="M301.429 350.934c0 6.311-5.117 11.428-11.429 11.428s-11.429-5.117-11.429-11.428c0-6.312 5.117-11.429 11.429-11.429s11.429 5.117 11.429 11.429z" transform="matrix(.32534 0 0 .32534 162.929 762.415)" opacity=".5" fill="#fff" filter="url(#a)"/><g fill="#d40000" stroke="#d40000"><path d="M273.191 912.554v85.5" stroke-width="14.944563660000002"/><path d="M273.191 1010.279l-2.023-3.505-2.023-3.505h8.093l-2.023 3.505z" stroke-width="14.95392808"/></g><g fill="none" stroke="#333" stroke-linecap="round"><path d="M273.627 767.387v-13.935" stroke-width="4.3732449"/><path d="M273.627 767.387c-5.53 0-10.013 4.483-10.013 10.013s4.483 10.012 10.013 10.012 10.012-4.482 10.012-10.012" stroke-width="4.37333088" stroke-linejoin="round"/></g><path d="M273.627 835.53v-50.577" fill="none" stroke="#000" stroke-width="6" stroke-linecap="round"/><path fill="#4d4d4d" fill-rule="evenodd" stroke="#333" stroke-width="2" d="M284.842 680.094h-22.431v80.124h22.431z"/><path d="M316.385 512.709v67.186" fill="none" stroke="#000" stroke-width="6" stroke-linecap="round"/><g fill="none" stroke="#333" stroke-linecap="round"><path d="M232.008 74.523V60.588" stroke-width="4.3732449"/><path d="M232.008 74.523c-5.53 0-10.012 4.482-10.012 10.012s4.483 10.013 10.012 10.013c5.53 0 10.013-4.483 10.013-10.013" stroke-width="4.37333088" stroke-linejoin="round"/></g><path d="M316.386 677.393c0 23.621-19.144 42.77-42.76 42.77-23.614 0-42.758-19.149-42.758-42.77" fill="none" stroke="#000" stroke-width="6"/><g stroke="#333"><g fill="none" stroke-linecap="round"><path d="M316.385 614.73v-13.935" stroke-width="4.3732449"/><path d="M316.385 614.73c-5.53 0-10.012 4.483-10.012 10.013s4.483 10.012 10.012 10.012c5.53 0 10.013-4.483 10.013-10.012" stroke-width="4.37333088" stroke-linejoin="round"/></g><path fill="#4d4d4d" fill-rule="evenodd" stroke-width="2.0000608800000004" d="M327.6 527.437h-22.43v80.124h22.43z"/></g><path d="M332.23 156.146h195.28" fill="none" stroke="#000" stroke-width="14.454" stroke-linecap="round" transform="matrix(0 -.22815 -.7553 0 434.324 753.205)"/><g fill="none" stroke="#333" stroke-linecap="round"><path d="M230.868 74.523V60.588" stroke-width="4.3732449"/><path d="M230.868 74.523c-5.53 0-10.013 4.482-10.013 10.012s4.483 10.013 10.013 10.013 10.012-4.483 10.012-10.013" stroke-width="4.37333088" stroke-linejoin="round"/></g><path d="M230.868 680.155V92.648" fill="none" stroke="#000" stroke-width="6" stroke-linecap="round"/><g fill-rule="evenodd"><path transform="matrix(-1.73467 0 0 1.7351 4418.133 453.364)" d="M2412.868 130.116c0 13.061-10.588 23.65-23.65 23.65-13.06 0-23.648-10.589-23.648-23.65 0-13.06 10.588-23.649 23.649-23.649 13.06 0 23.649 10.588 23.649 23.65z" fill="maroon" stroke="#333" stroke-width="1.826"/><path d="M2330.115 104.527a4.288 4.288 0 1 1-8.576 0 4.288 4.288 0 0 1 8.576 0z" transform="matrix(-2.3926 0 0 2.3932 5838.406 428.975)" fill="#fc0" stroke="#000" stroke-width="1.324"/></g><path d="M359.144 525.97c0 23.622-19.143 42.77-42.759 42.77-23.614 0-42.758-19.148-42.758-42.77" fill="none" stroke="#000" stroke-width="6"/><g fill="none" stroke="#333" stroke-linecap="round"><path d="M273.632 74.523V60.588" stroke-width="4.3732449"/><path d="M273.632 74.523c-5.53 0-10.012 4.482-10.012 10.012s4.482 10.013 10.012 10.013 10.013-4.483 10.013-10.013" stroke-width="4.37333088" stroke-linejoin="round"/></g><path d="M273.632 526.662V92.648" fill="none" stroke="#000" stroke-width="6" stroke-linecap="round"/><g fill="none" stroke="#333" stroke-linecap="round"><path d="M317.341 74.523V60.588" stroke-width="4.3732449"/><path d="M317.341 74.523c-5.53 0-10.012 4.482-10.012 10.012s4.483 10.013 10.012 10.013c5.53 0 10.013-4.483 10.013-10.013" stroke-width="4.37333088" stroke-linejoin="round"/></g><path d="M317.341 327.048V91.734" fill="none" stroke="#000" stroke-width="6" stroke-linecap="round"/><g stroke="#333"><g fill="none" stroke-linecap="round"><path d="M359.144 416.077v-13.935" stroke-width="4.3732449"/><path d="M359.144 416.077c-5.53 0-10.012 4.483-10.012 10.013s4.482 10.012 10.012 10.012 10.013-4.483 10.013-10.012" stroke-width="4.37333088" stroke-linejoin="round"/></g><path fill="#4d4d4d" fill-rule="evenodd" stroke-width="2.0000608800000004" d="M370.36 328.784h-22.431v80.124h22.43z"/></g><path d="M402.859 327.048c0 23.621-19.144 42.77-42.759 42.77-23.615 0-42.759-19.149-42.759-42.77" fill="none" stroke="#000" stroke-width="6"/><path d="M332.23 156.146h186.952" fill="none" stroke="#000" stroke-width="11.703" stroke-linecap="round" transform="matrix(0 -.34802 -.7553 0 520.605 446.76)"/><path transform="matrix(-2.3926 0 0 2.3932 5924.88 84.33)" d="M2330.115 104.527a4.288 4.288 0 1 1-8.576 0 4.288 4.288 0 0 1 8.576 0z" fill="#fc0" fill-rule="evenodd" stroke="#000" stroke-width="1.324"/><g fill-rule="evenodd"><path transform="matrix(-1.73467 0 0 1.7351 4504.606 103.02)" d="M2412.868 130.116c0 13.061-10.588 23.65-23.65 23.65-13.06 0-23.648-10.589-23.648-23.65 0-13.06 10.588-23.649 23.649-23.649 13.06 0 23.649 10.588 23.649 23.65z" fill="maroon" stroke="#333" stroke-width="1.826"/><path d="M2330.115 104.527a4.288 4.288 0 1 1-8.576 0 4.288 4.288 0 0 1 8.576 0z" transform="matrix(-2.3926 0 0 2.3932 5924.88 78.63)" fill="#fc0" stroke="#000" stroke-width="1.324"/></g><path d="M332.23 156.146h191.783" fill="none" stroke="#000" stroke-width="9.957" stroke-linecap="round" transform="matrix(0 -.4808 -.7553 0 477.083 685.722)"/><path d="M402.859 137.297v134.517" fill="none" stroke="#000" stroke-width="6" stroke-linecap="round"/><path d="M332.23 156.146h512.582" fill="none" stroke="#000" stroke-width="18.457" stroke-linecap="round" transform="matrix(0 .1399 -.7553 0 606.315 90.817)"/><path fill="#4d4d4d" fill-rule="evenodd" stroke="#333" stroke-width="2" d="M456.833 61.779h-22.431v80.124h22.431z"/><path d="M488.377 137.297c0-23.62-19.144-42.769-42.76-42.769-23.614 0-42.758 19.148-42.758 42.77" fill="none" stroke="#000" stroke-width="6"/><g fill-rule="evenodd"><path transform="matrix(-1.73467 0 0 1.7351 4590.124 -90.203)" d="M2412.868 130.116c0 13.061-10.588 23.65-23.65 23.65-13.06 0-23.648-10.589-23.648-23.65 0-13.06 10.588-23.649 23.649-23.649 13.06 0 23.649 10.588 23.649 23.65z" fill="maroon" stroke="#333" stroke-width="1.826"/><path d="M2330.115 104.527a4.288 4.288 0 1 1-8.576 0 4.288 4.288 0 0 1 8.576 0z" transform="matrix(-2.3926 0 0 2.3932 6010.397 -114.593)" fill="#fc0" stroke="#000" stroke-width="1.324"/></g><g fill-rule="evenodd"><path d="M2412.868 130.116c0 13.061-10.588 23.65-23.65 23.65-13.06 0-23.648-10.589-23.648-23.65 0-13.06 10.588-23.649 23.649-23.649 13.06 0 23.649 10.588 23.649 23.65z" transform="matrix(-1.73467 0 0 1.7351 4459.936 301.672)" fill="maroon" stroke="#333" stroke-width="1.826"/><path transform="matrix(-2.3926 0 0 2.3932 5880.209 277.283)" d="M2330.115 104.527a4.288 4.288 0 1 1-8.576 0 4.288 4.288 0 0 1 8.576 0z" fill="#fc0" stroke="#000" stroke-width="1.324"/></g><g fill="#d40000" stroke="#d40000"><path d="M488.377 194.615v65.181" stroke-width="8.000243520000001"/><path d="M488.376 266.022l-2.023-3.505-2.023-3.505h8.093l-2.023 3.505z" stroke-width="8.00007397"/></g><g ns0:text="$F _{\\rm{G}} = \\unit[800]{N}$" ns0:preamble="/home/waldgeist/data/sphinx/inkscape-preamble.tex" transform="translate(-1013.799 214.901) scale(5.88959)" fill="#d40000"><defs><symbol overflow="visible" id="b"><path d="M3.016-3.234h.968c.75 0 .829.156.829.437 0 .078 0 .188-.063.5-.031.047-.031.078-.031.11 0 .078.062.109.11.109.109 0 .109-.031.155-.203l.547-2.172c.032-.11.032-.125.032-.156a.117.117 0 0 0-.125-.11c-.094 0-.11.047-.141.219-.219.766-.438.953-1.297.953h-.906l.64-2.531c.094-.36.11-.39.547-.39h1.313c1.218 0 1.453.327 1.453 1.093 0 .234 0 .266-.031.547C7-4.703 7-4.688 7-4.656c0 .047.031.125.125.125.11 0 .11-.063.125-.25l.203-1.735c.031-.265-.016-.265-.266-.265h-4.89c-.188 0-.297 0-.297.203 0 .11.094.11.281.11.375 0 .656 0 .656.171 0 .047 0 .063-.062.25L1.562-.78c-.093.39-.109.469-.906.469-.172 0-.281 0-.281.187C.375 0 .5 0 .531 0c.281 0 1.031-.031 1.313-.031C2.172-.031 3 0 3.328 0c.094 0 .203 0 .203-.188 0-.078-.047-.109-.047-.109-.03-.016-.062-.016-.28-.016-.22 0-.267 0-.517-.015-.296-.031-.328-.078-.328-.203 0-.016 0-.078.047-.219z"/></symbol><symbol overflow="visible" id="c"><path d="M5.188-1.36c0-.312.078-.312.546-.312v-.25c-.062 0-.562.031-.906.031-.375 0-.89 0-1.266-.03v.25h.266c.703 0 .703.093.703.312v.453c0 .156 0 .422-.406.625-.328.172-.719.172-.813.172-.796 0-2.078-.454-2.078-2.282 0-1.843 1.329-2.25 2.016-2.25.672 0 1.516.454 1.688 1.657.015.078.078.078.125.078.125 0 .125-.047.125-.188v-1.625c0-.125 0-.187-.094-.187-.032 0-.063 0-.125.093l-.36.532a1.994 1.994 0 0 0-1.453-.625C1.703-4.906.484-3.781.484-2.391.484-1 1.672.141 3.172.141c.39 0 1.156-.078 1.484-.563.125.188.375.422.453.422.079 0 .079-.078.079-.188z"/></symbol><symbol overflow="visible" id="d"><path d="M6.844-3.266c.156 0 .343 0 .343-.187 0-.203-.187-.203-.328-.203H.891c-.141 0-.329 0-.329.203 0 .187.188.187.329.187zm.015 1.938c.141 0 .329 0 .329-.203 0-.188-.188-.188-.344-.188H.89c-.141 0-.329 0-.329.188 0 .203.188.203.329.203z"/></symbol><symbol overflow="visible" id="e"><path d="M1.625-4.563c-.453-.296-.5-.625-.5-.796 0-.61.656-1.032 1.36-1.032.718 0 1.359.516 1.359 1.235 0 .578-.39 1.047-.985 1.39zm1.453.954c.719-.375 1.203-.891 1.203-1.547 0-.922-.875-1.485-1.781-1.485-1 0-1.813.735-1.813 1.672 0 .172.016.625.438 1.094.11.11.484.36.734.531C1.281-3.047.422-2.5.422-1.5.422-.453 1.438.219 2.484.219c1.125 0 2.079-.828 2.079-1.89 0-.36-.11-.813-.5-1.235-.188-.203-.344-.297-.985-.703zm-1 .421l1.235.782c.28.187.75.484.75 1.094 0 .734-.75 1.25-1.563 1.25C1.64-.063.922-.672.922-1.5c0-.578.312-1.219 1.156-1.688z"/></symbol><symbol overflow="visible" id="f"><path d="M4.578-3.188c0-.796-.047-1.593-.39-2.328C3.733-6.484 2.905-6.64 2.5-6.64c-.61 0-1.328.266-1.75 1.188-.313.687-.36 1.469-.36 2.266 0 .75.032 1.64.454 2.406a1.83 1.83 0 0 0 1.64 1c.532 0 1.297-.203 1.735-1.157.312-.687.36-1.468.36-2.25zM2.484 0c-.39 0-.984-.25-1.156-1.203-.11-.594-.11-1.516-.11-2.11 0-.64 0-1.296.079-1.828.187-1.187.937-1.28 1.187-1.28.329 0 .985.187 1.172 1.171.11.563.11 1.313.11 1.938 0 .75 0 1.421-.11 2.062C3.5-.297 2.937 0 2.484 0z"/></symbol><symbol overflow="visible" id="g"><path d="M2.313-6.672c-.094-.125-.094-.14-.282-.14H.328v.312h.297c.14 0 .344.016.484.016.235.03.25.046.25.234v5.203c0 .266 0 .734-1.03.734V0c.343-.016.843-.031 1.171-.031.328 0 .813.015 1.156.031v-.313c-1.015 0-1.015-.468-1.015-.734v-5.187c.046.046.046.062.093.125L5.797-.125c.094.11.11.125.172.125.14 0 .14-.063.14-.266v-5.5c0-.265 0-.734 1.032-.734v-.313c-.36.016-.844.032-1.172.032-.328 0-.813-.016-1.157-.032v.313c1.016 0 1.016.469 1.016.734V-1.5z"/></symbol></defs><use height="1052.362" width="744.094" xlink:href="#b" x="223.432" y="134.765"/><use height="1052.362" width="744.094" xlink:href="#c" x="229.839" y="136.259"/><use height="1052.362" width="744.094" xlink:href="#d" x="239.269" y="134.765"/><use height="1052.362" width="744.094" xlink:href="#e" x="249.788" y="134.765"/><use height="1052.362" width="744.094" xlink:href="#f" x="254.769" y="134.765"/><use height="1052.362" width="744.094" xlink:href="#f" x="259.75" y="134.765"/><g><use height="1052.362" width="744.094" xlink:href="#g" x="266.385" y="134.765"/></g></g><g fill="#d40000" stroke="#d40000"><path d="M273.627 720.156v31.111" stroke-width="8.000243520000001"/><path d="M273.626 757.493l-2.023-3.505-2.023-3.505h8.093l-2.023 3.505z" stroke-width="8.00007397"/></g><g transform="translate(-634.401 190.341) scale(4.13084)" ns0:preamble="/home/waldgeist/data/sphinx/inkscape-preamble.tex" ns0:text="$F _{\\rm{G,R1}} = \\unit[20]{N}$" fill="#d40000"><defs><symbol id="h" overflow="visible"><path d="M3.016-3.234h.968c.75 0 .829.156.829.437 0 .078 0 .188-.063.5-.031.047-.031.078-.031.11 0 .078.062.109.11.109.109 0 .109-.031.155-.203l.547-2.172c.032-.11.032-.125.032-.156a.117.117 0 0 0-.125-.11c-.094 0-.11.047-.141.219-.219.766-.438.953-1.297.953h-.906l.64-2.531c.094-.36.11-.39.547-.39h1.313c1.218 0 1.453.327 1.453 1.093 0 .234 0 .266-.031.547C7-4.703 7-4.688 7-4.656c0 .047.031.125.125.125.11 0 .11-.063.125-.25l.203-1.735c.031-.265-.016-.265-.266-.265h-4.89c-.188 0-.297 0-.297.203 0 .11.094.11.281.11.375 0 .656 0 .656.171 0 .047 0 .063-.062.25L1.562-.78c-.093.39-.109.469-.906.469-.172 0-.281 0-.281.187C.375 0 .5 0 .531 0c.281 0 1.031-.031 1.313-.031C2.172-.031 3 0 3.328 0c.094 0 .203 0 .203-.188 0-.078-.047-.109-.047-.109-.03-.016-.062-.016-.28-.016-.22 0-.267 0-.517-.015-.296-.031-.328-.078-.328-.203 0-.016 0-.078.047-.219z"/></symbol><symbol id="i" overflow="visible"><path d="M5.188-1.36c0-.312.078-.312.546-.312v-.25c-.062 0-.562.031-.906.031-.375 0-.89 0-1.266-.03v.25h.266c.703 0 .703.093.703.312v.453c0 .156 0 .422-.406.625-.328.172-.719.172-.813.172-.796 0-2.078-.454-2.078-2.282 0-1.843 1.329-2.25 2.016-2.25.672 0 1.516.454 1.688 1.657.015.078.078.078.125.078.125 0 .125-.047.125-.188v-1.625c0-.125 0-.187-.094-.187-.032 0-.063 0-.125.093l-.36.532a1.994 1.994 0 0 0-1.453-.625C1.703-4.906.484-3.781.484-2.391.484-1 1.672.141 3.172.141c.39 0 1.156-.078 1.484-.563.125.188.375.422.453.422.079 0 .079-.078.079-.188z"/></symbol><symbol id="k" overflow="visible"><path d="M3.5-2.375c.625-.14 1.25-.563 1.25-1.125 0-.688-.922-1.266-2-1.266H.406v.25h.172c.531 0 .547.079.547.329v3.625c0 .234-.016.312-.547.312H.406V0s.75-.031 1.031-.031c.297 0 .688.015 1.032.031v-.25h-.156c-.547 0-.563-.078-.563-.313V-2.28h.938c.124 0 .484 0 .796.281.235.219.235.39.235.86 0 .452 0 .734.328 1 .297.25.703.28.906.28.594 0 .734-.562.734-.78 0-.047 0-.126-.109-.126-.11 0-.11.063-.125.125-.031.407-.266.579-.484.579-.39 0-.453-.407-.532-1.032-.078-.562-.093-.672-.296-.906-.079-.078-.266-.266-.641-.375zm-.844-.11H1.75v-1.75c0-.202.016-.25.188-.265.062-.016.296-.016.453-.016.656 0 1.609 0 1.609 1.016 0 .781-.594 1.016-1.344 1.016z"/></symbol><symbol id="l" overflow="visible"><path d="M2.328-4.438c0-.187 0-.187-.203-.187-.453.438-1.078.438-1.36.438v.25c.157 0 .626 0 1-.188v3.547c0 .234 0 .328-.687.328H.812V0c.125 0 .985-.031 1.235-.031.219 0 1.094.031 1.25.031v-.25H3.03c-.703 0-.703-.094-.703-.328z"/></symbol><symbol id="j" overflow="visible"><path d="M1.469-.11c0 .376-.063.829-.547 1.266-.016.032-.047.063-.047.094 0 .047.063.094.094.094.11 0 .703-.563.703-1.39 0-.423-.172-.75-.5-.75a.387.387 0 0 0-.39.39c0 .219.155.406.405.406.172 0 .282-.11.282-.11z"/></symbol><symbol id="m" overflow="visible"><path d="M6.844-3.266c.156 0 .343 0 .343-.187 0-.203-.187-.203-.328-.203H.891c-.141 0-.329 0-.329.203 0 .187.188.187.329.187zm.015 1.938c.141 0 .329 0 .329-.203 0-.188-.188-.188-.344-.188H.89c-.141 0-.329 0-.329.188 0 .203.188.203.329.203z"/></symbol><symbol id="n" overflow="visible"><path d="M1.266-.766l1.062-1.03c1.547-1.376 2.14-1.907 2.14-2.907 0-1.14-.89-1.938-2.109-1.938C1.234-6.64.5-5.719.5-4.828c0 .547.5.547.531.547.172 0 .516-.11.516-.532a.513.513 0 0 0-.531-.515c-.079 0-.094 0-.125.016.218-.657.765-1.016 1.343-1.016.907 0 1.329.812 1.329 1.625 0 .797-.485 1.578-1.047 2.203L.609-.375C.5-.265.5-.235.5 0h3.703l.266-1.734h-.235C4.172-1.438 4.11-1 4-.844c-.063.078-.719.078-.938.078z"/></symbol><symbol id="o" overflow="visible"><path d="M4.578-3.188c0-.796-.047-1.593-.39-2.328C3.733-6.484 2.905-6.64 2.5-6.64c-.61 0-1.328.266-1.75 1.188-.313.687-.36 1.469-.36 2.266 0 .75.032 1.64.454 2.406a1.83 1.83 0 0 0 1.64 1c.532 0 1.297-.203 1.735-1.157.312-.687.36-1.468.36-2.25zM2.484 0c-.39 0-.984-.25-1.156-1.203-.11-.594-.11-1.516-.11-2.11 0-.64 0-1.296.079-1.828.187-1.187.937-1.28 1.187-1.28.329 0 .985.187 1.172 1.171.11.563.11 1.313.11 1.938 0 .75 0 1.421-.11 2.062C3.5-.297 2.937 0 2.484 0z"/></symbol><symbol id="p" overflow="visible"><path d="M2.313-6.672c-.094-.125-.094-.14-.282-.14H.328v.312h.297c.14 0 .344.016.484.016.235.03.25.046.25.234v5.203c0 .266 0 .734-1.03.734V0c.343-.016.843-.031 1.171-.031.328 0 .813.015 1.156.031v-.313c-1.015 0-1.015-.468-1.015-.734v-5.187c.046.046.046.062.093.125L5.797-.125c.094.11.11.125.172.125.14 0 .14-.063.14-.266v-5.5c0-.265 0-.734 1.032-.734v-.313c-.36.016-.844.032-1.172.032-.328 0-.813-.016-1.157-.032v.313c1.016 0 1.016.469 1.016.734V-1.5z"/></symbol></defs><use y="134.765" x="223.432" xlink:href="#h" width="744.094" height="1052.362"/><use y="136.259" x="229.839" xlink:href="#i" width="744.094" height="1052.362"/><use y="136.259" x="236.003" xlink:href="#j" width="744.094" height="1052.362"/><use y="136.259" x="238.369" xlink:href="#k" width="744.094" height="1052.362"/><use y="136.259" x="244.153" xlink:href="#l" width="744.094" height="1052.362"/><use y="134.765" x="251.39" xlink:href="#m" width="744.094" height="1052.362"/><use y="134.765" x="261.909" xlink:href="#n" width="744.094" height="1052.362"/><use y="134.765" x="266.89" xlink:href="#o" width="744.094" height="1052.362"/><g><use y="134.765" x="273.525" xlink:href="#p" width="744.094" height="1052.362"/></g></g><g fill="#d40000" stroke="#d40000"><path d="M316.385 628.855v65.181" stroke-width="8.000243520000001"/><path d="M316.385 700.262l-2.023-3.505-2.023-3.505h8.093l-2.023 3.505z" stroke-width="8.00007397"/></g><g ns0:text="$F _{\\rm{}} = \\unit[410]{N}$" ns0:preamble="/home/waldgeist/data/sphinx/inkscape-preamble.tex" transform="translate(-579.441 121.485) scale(4.13084)" fill="#d40000"><defs><symbol overflow="visible" id="q"><path d="M3.016-3.234h.968c.75 0 .829.156.829.437 0 .078 0 .188-.063.5-.031.047-.031.078-.031.11 0 .078.062.109.11.109.109 0 .109-.031.155-.203l.547-2.172c.032-.11.032-.125.032-.156a.117.117 0 0 0-.125-.11c-.094 0-.11.047-.141.219-.219.766-.438.953-1.297.953h-.906l.64-2.531c.094-.36.11-.39.547-.39h1.313c1.218 0 1.453.327 1.453 1.093 0 .234 0 .266-.031.547C7-4.703 7-4.688 7-4.656c0 .047.031.125.125.125.11 0 .11-.063.125-.25l.203-1.735c.031-.265-.016-.265-.266-.265h-4.89c-.188 0-.297 0-.297.203 0 .11.094.11.281.11.375 0 .656 0 .656.171 0 .047 0 .063-.062.25L1.562-.78c-.093.39-.109.469-.906.469-.172 0-.281 0-.281.187C.375 0 .5 0 .531 0c.281 0 1.031-.031 1.313-.031C2.172-.031 3 0 3.328 0c.094 0 .203 0 .203-.188 0-.078-.047-.109-.047-.109-.03-.016-.062-.016-.28-.016-.22 0-.267 0-.517-.015-.296-.031-.328-.078-.328-.203 0-.016 0-.078.047-.219z"/></symbol><symbol overflow="visible" id="r"><path d="M6.844-3.266c.156 0 .343 0 .343-.187 0-.203-.187-.203-.328-.203H.891c-.141 0-.329 0-.329.203 0 .187.188.187.329.187zm.015 1.938c.141 0 .329 0 .329-.203 0-.188-.188-.188-.344-.188H.89c-.141 0-.329 0-.329.188 0 .203.188.203.329.203z"/></symbol><symbol overflow="visible" id="s"><path d="M2.938-1.64v.859c0 .36-.032.469-.766.469h-.203V0c.406-.031.922-.031 1.343-.031.422 0 .938 0 1.36.031v-.313h-.219c-.734 0-.75-.109-.75-.468v-.86h.985v-.312h-.985v-4.531c0-.204 0-.266-.172-.266-.078 0-.11 0-.187.125L.28-1.953v.312zm.046-.313H.563l2.421-3.719z"/></symbol><symbol overflow="visible" id="t"><path d="M2.938-6.375c0-.25 0-.266-.235-.266C2.078-6 1.203-6 .891-6v.313c.203 0 .78 0 1.296-.266v5.172c0 .36-.03.469-.921.469H.953V0c.344-.031 1.203-.031 1.61-.031.39 0 1.265 0 1.609.031v-.313h-.313c-.906 0-.921-.109-.921-.468z"/></symbol><symbol overflow="visible" id="u"><path d="M4.578-3.188c0-.796-.047-1.593-.39-2.328C3.733-6.484 2.905-6.64 2.5-6.64c-.61 0-1.328.266-1.75 1.188-.313.687-.36 1.469-.36 2.266 0 .75.032 1.64.454 2.406a1.83 1.83 0 0 0 1.64 1c.532 0 1.297-.203 1.735-1.157.312-.687.36-1.468.36-2.25zM2.484 0c-.39 0-.984-.25-1.156-1.203-.11-.594-.11-1.516-.11-2.11 0-.64 0-1.296.079-1.828.187-1.187.937-1.28 1.187-1.28.329 0 .985.187 1.172 1.171.11.563.11 1.313.11 1.938 0 .75 0 1.421-.11 2.062C3.5-.297 2.937 0 2.484 0z"/></symbol><symbol overflow="visible" id="v"><path d="M2.313-6.672c-.094-.125-.094-.14-.282-.14H.328v.312h.297c.14 0 .344.016.484.016.235.03.25.046.25.234v5.203c0 .266 0 .734-1.03.734V0c.343-.016.843-.031 1.171-.031.328 0 .813.015 1.156.031v-.313c-1.015 0-1.015-.468-1.015-.734v-5.187c.046.046.046.062.093.125L5.797-.125c.094.11.11.125.172.125.14 0 .14-.063.14-.266v-5.5c0-.265 0-.734 1.032-.734v-.313c-.36.016-.844.032-1.172.032-.328 0-.813-.016-1.157-.032v.313c1.016 0 1.016.469 1.016.734V-1.5z"/></symbol></defs><use height="1052.362" width="744.094" xlink:href="#q" x="223.432" y="134.765"/><use height="1052.362" width="744.094" xlink:href="#r" x="233.104" y="134.765"/><use height="1052.362" width="744.094" xlink:href="#s" x="243.623" y="134.765"/><use height="1052.362" width="744.094" xlink:href="#t" x="248.604" y="134.765"/><use height="1052.362" width="744.094" xlink:href="#u" x="253.585" y="134.765"/><g><use height="1052.362" width="744.094" xlink:href="#v" x="260.22" y="134.765"/></g></g><g fill="#d40000" stroke="#d40000"><path d="M316.385 564.34v31.11" stroke-width="8.000243520000001"/><path d="M316.385 601.676l-2.023-3.505-2.023-3.504h8.093l-2.023 3.505z" stroke-width="8.00007397"/></g><g transform="translate(-581.136 34.525) scale(4.13084)" ns0:preamble="/home/waldgeist/data/sphinx/inkscape-preamble.tex" ns0:text="$F _{\\rm{G,R2}} = \\unit[20]{N}$" fill="#d40000"><defs><symbol id="w" overflow="visible"><path d="M3.016-3.234h.968c.75 0 .829.156.829.437 0 .078 0 .188-.063.5-.031.047-.031.078-.031.11 0 .078.062.109.11.109.109 0 .109-.031.155-.203l.547-2.172c.032-.11.032-.125.032-.156a.117.117 0 0 0-.125-.11c-.094 0-.11.047-.141.219-.219.766-.438.953-1.297.953h-.906l.64-2.531c.094-.36.11-.39.547-.39h1.313c1.218 0 1.453.327 1.453 1.093 0 .234 0 .266-.031.547C7-4.703 7-4.688 7-4.656c0 .047.031.125.125.125.11 0 .11-.063.125-.25l.203-1.735c.031-.265-.016-.265-.266-.265h-4.89c-.188 0-.297 0-.297.203 0 .11.094.11.281.11.375 0 .656 0 .656.171 0 .047 0 .063-.062.25L1.562-.78c-.093.39-.109.469-.906.469-.172 0-.281 0-.281.187C.375 0 .5 0 .531 0c.281 0 1.031-.031 1.313-.031C2.172-.031 3 0 3.328 0c.094 0 .203 0 .203-.188 0-.078-.047-.109-.047-.109-.03-.016-.062-.016-.28-.016-.22 0-.267 0-.517-.015-.296-.031-.328-.078-.328-.203 0-.016 0-.078.047-.219z"/></symbol><symbol id="x" overflow="visible"><path d="M5.188-1.36c0-.312.078-.312.546-.312v-.25c-.062 0-.562.031-.906.031-.375 0-.89 0-1.266-.03v.25h.266c.703 0 .703.093.703.312v.453c0 .156 0 .422-.406.625-.328.172-.719.172-.813.172-.796 0-2.078-.454-2.078-2.282 0-1.843 1.329-2.25 2.016-2.25.672 0 1.516.454 1.688 1.657.015.078.078.078.125.078.125 0 .125-.047.125-.188v-1.625c0-.125 0-.187-.094-.187-.032 0-.063 0-.125.093l-.36.532a1.994 1.994 0 0 0-1.453-.625C1.703-4.906.484-3.781.484-2.391.484-1 1.672.141 3.172.141c.39 0 1.156-.078 1.484-.563.125.188.375.422.453.422.079 0 .079-.078.079-.188z"/></symbol><symbol id="z" overflow="visible"><path d="M3.5-2.375c.625-.14 1.25-.563 1.25-1.125 0-.688-.922-1.266-2-1.266H.406v.25h.172c.531 0 .547.079.547.329v3.625c0 .234-.016.312-.547.312H.406V0s.75-.031 1.031-.031c.297 0 .688.015 1.032.031v-.25h-.156c-.547 0-.563-.078-.563-.313V-2.28h.938c.124 0 .484 0 .796.281.235.219.235.39.235.86 0 .452 0 .734.328 1 .297.25.703.28.906.28.594 0 .734-.562.734-.78 0-.047 0-.126-.109-.126-.11 0-.11.063-.125.125-.031.407-.266.579-.484.579-.39 0-.453-.407-.532-1.032-.078-.562-.093-.672-.296-.906-.079-.078-.266-.266-.641-.375zm-.844-.11H1.75v-1.75c0-.202.016-.25.188-.265.062-.016.296-.016.453-.016.656 0 1.609 0 1.609 1.016 0 .781-.594 1.016-1.344 1.016z"/></symbol><symbol id="A" overflow="visible"><path d="M3.516-1.266H3.28c-.015.157-.094.563-.187.625-.047.047-.578.047-.688.047H1.125c.734-.64.984-.844 1.39-1.172.516-.406 1-.843 1-1.5 0-.843-.734-1.359-1.624-1.359-.86 0-1.454.61-1.454 1.25 0 .344.297.39.376.39.156 0 .359-.124.359-.374 0-.125-.047-.375-.406-.375.218-.485.687-.641 1.015-.641.703 0 1.063.547 1.063 1.11 0 .609-.438 1.078-.656 1.328L.516-.266C.437-.203.437-.187.437 0h2.876z"/></symbol><symbol id="y" overflow="visible"><path d="M1.469-.11c0 .376-.063.829-.547 1.266-.016.032-.047.063-.047.094 0 .047.063.094.094.094.11 0 .703-.563.703-1.39 0-.423-.172-.75-.5-.75a.387.387 0 0 0-.39.39c0 .219.155.406.405.406.172 0 .282-.11.282-.11z"/></symbol><symbol id="B" overflow="visible"><path d="M6.844-3.266c.156 0 .343 0 .343-.187 0-.203-.187-.203-.328-.203H.891c-.141 0-.329 0-.329.203 0 .187.188.187.329.187zm.015 1.938c.141 0 .329 0 .329-.203 0-.188-.188-.188-.344-.188H.89c-.141 0-.329 0-.329.188 0 .203.188.203.329.203z"/></symbol><symbol id="C" overflow="visible"><path d="M1.266-.766l1.062-1.03c1.547-1.376 2.14-1.907 2.14-2.907 0-1.14-.89-1.938-2.109-1.938C1.234-6.64.5-5.719.5-4.828c0 .547.5.547.531.547.172 0 .516-.11.516-.532a.513.513 0 0 0-.531-.515c-.079 0-.094 0-.125.016.218-.657.765-1.016 1.343-1.016.907 0 1.329.812 1.329 1.625 0 .797-.485 1.578-1.047 2.203L.609-.375C.5-.265.5-.235.5 0h3.703l.266-1.734h-.235C4.172-1.438 4.11-1 4-.844c-.063.078-.719.078-.938.078z"/></symbol><symbol id="D" overflow="visible"><path d="M4.578-3.188c0-.796-.047-1.593-.39-2.328C3.733-6.484 2.905-6.64 2.5-6.64c-.61 0-1.328.266-1.75 1.188-.313.687-.36 1.469-.36 2.266 0 .75.032 1.64.454 2.406a1.83 1.83 0 0 0 1.64 1c.532 0 1.297-.203 1.735-1.157.312-.687.36-1.468.36-2.25zM2.484 0c-.39 0-.984-.25-1.156-1.203-.11-.594-.11-1.516-.11-2.11 0-.64 0-1.296.079-1.828.187-1.187.937-1.28 1.187-1.28.329 0 .985.187 1.172 1.171.11.563.11 1.313.11 1.938 0 .75 0 1.421-.11 2.062C3.5-.297 2.937 0 2.484 0z"/></symbol><symbol id="E" overflow="visible"><path d="M2.313-6.672c-.094-.125-.094-.14-.282-.14H.328v.312h.297c.14 0 .344.016.484.016.235.03.25.046.25.234v5.203c0 .266 0 .734-1.03.734V0c.343-.016.843-.031 1.171-.031.328 0 .813.015 1.156.031v-.313c-1.015 0-1.015-.468-1.015-.734v-5.187c.046.046.046.062.093.125L5.797-.125c.094.11.11.125.172.125.14 0 .14-.063.14-.266v-5.5c0-.265 0-.734 1.032-.734v-.313c-.36.016-.844.032-1.172.032-.328 0-.813-.016-1.157-.032v.313c1.016 0 1.016.469 1.016.734V-1.5z"/></symbol></defs><use y="134.765" x="223.432" xlink:href="#w" width="744.094" height="1052.362"/><use y="136.259" x="229.839" xlink:href="#x" width="744.094" height="1052.362"/><use y="136.259" x="236.003" xlink:href="#y" width="744.094" height="1052.362"/><use y="136.259" x="238.369" xlink:href="#z" width="744.094" height="1052.362"/><use y="136.259" x="244.153" xlink:href="#A" width="744.094" height="1052.362"/><use y="134.765" x="251.39" xlink:href="#B" width="744.094" height="1052.362"/><use y="134.765" x="261.909" xlink:href="#C" width="744.094" height="1052.362"/><use y="134.765" x="266.89" xlink:href="#D" width="744.094" height="1052.362"/><g><use y="134.765" x="273.525" xlink:href="#E" width="744.094" height="1052.362"/></g></g><g ns0:text="$F _{\\rm{}} = \\unit[215]{N}$" ns0:preamble="/home/waldgeist/data/sphinx/inkscape-preamble.tex" transform="translate(-526.177 -80.287) scale(4.13084)" fill="#d40000"><defs><symbol overflow="visible" id="F"><path d="M3.016-3.234h.968c.75 0 .829.156.829.437 0 .078 0 .188-.063.5-.031.047-.031.078-.031.11 0 .078.062.109.11.109.109 0 .109-.031.155-.203l.547-2.172c.032-.11.032-.125.032-.156a.117.117 0 0 0-.125-.11c-.094 0-.11.047-.141.219-.219.766-.438.953-1.297.953h-.906l.64-2.531c.094-.36.11-.39.547-.39h1.313c1.218 0 1.453.327 1.453 1.093 0 .234 0 .266-.031.547C7-4.703 7-4.688 7-4.656c0 .047.031.125.125.125.11 0 .11-.063.125-.25l.203-1.735c.031-.265-.016-.265-.266-.265h-4.89c-.188 0-.297 0-.297.203 0 .11.094.11.281.11.375 0 .656 0 .656.171 0 .047 0 .063-.062.25L1.562-.78c-.093.39-.109.469-.906.469-.172 0-.281 0-.281.187C.375 0 .5 0 .531 0c.281 0 1.031-.031 1.313-.031C2.172-.031 3 0 3.328 0c.094 0 .203 0 .203-.188 0-.078-.047-.109-.047-.109-.03-.016-.062-.016-.28-.016-.22 0-.267 0-.517-.015-.296-.031-.328-.078-.328-.203 0-.016 0-.078.047-.219z"/></symbol><symbol overflow="visible" id="G"><path d="M6.844-3.266c.156 0 .343 0 .343-.187 0-.203-.187-.203-.328-.203H.891c-.141 0-.329 0-.329.203 0 .187.188.187.329.187zm.015 1.938c.141 0 .329 0 .329-.203 0-.188-.188-.188-.344-.188H.89c-.141 0-.329 0-.329.188 0 .203.188.203.329.203z"/></symbol><symbol overflow="visible" id="H"><path d="M1.266-.766l1.062-1.03c1.547-1.376 2.14-1.907 2.14-2.907 0-1.14-.89-1.938-2.109-1.938C1.234-6.64.5-5.719.5-4.828c0 .547.5.547.531.547.172 0 .516-.11.516-.532a.513.513 0 0 0-.531-.515c-.079 0-.094 0-.125.016.218-.657.765-1.016 1.343-1.016.907 0 1.329.812 1.329 1.625 0 .797-.485 1.578-1.047 2.203L.609-.375C.5-.265.5-.235.5 0h3.703l.266-1.734h-.235C4.172-1.438 4.11-1 4-.844c-.063.078-.719.078-.938.078z"/></symbol><symbol overflow="visible" id="I"><path d="M2.938-6.375c0-.25 0-.266-.235-.266C2.078-6 1.203-6 .891-6v.313c.203 0 .78 0 1.296-.266v5.172c0 .36-.03.469-.921.469H.953V0c.344-.031 1.203-.031 1.61-.031.39 0 1.265 0 1.609.031v-.313h-.313c-.906 0-.921-.109-.921-.468z"/></symbol><symbol overflow="visible" id="J"><path d="M4.469-2c0-1.188-.813-2.188-1.89-2.188-.47 0-.907.157-1.267.516v-1.953c.204.063.532.125.844.125 1.235 0 1.938-.906 1.938-1.031 0-.063-.032-.11-.11-.11 0 0-.03 0-.078.032a3.22 3.22 0 0 1-1.36.296c-.39 0-.858-.078-1.327-.28-.078-.032-.094-.032-.11-.032C1-6.625 1-6.547 1-6.391v2.954c0 .171 0 .25.14.25.079 0 .094-.016.141-.079.11-.156.469-.703 1.282-.703.515 0 .765.453.843.64.156.376.188.75.188 1.25 0 .36 0 .954-.25 1.376-.235.39-.61.64-1.063.64-.719 0-1.297-.53-1.469-1.109.032 0 .063.016.172.016.329 0 .5-.25.5-.485 0-.25-.171-.5-.5-.5-.14 0-.484.079-.484.532C.5-.75 1.188.219 2.297.219 3.453.219 4.469-.734 4.469-2z"/></symbol><symbol overflow="visible" id="K"><path d="M2.313-6.672c-.094-.125-.094-.14-.282-.14H.328v.312h.297c.14 0 .344.016.484.016.235.03.25.046.25.234v5.203c0 .266 0 .734-1.03.734V0c.343-.016.843-.031 1.171-.031.328 0 .813.015 1.156.031v-.313c-1.015 0-1.015-.468-1.015-.734v-5.187c.046.046.046.062.093.125L5.797-.125c.094.11.11.125.172.125.14 0 .14-.063.14-.266v-5.5c0-.265 0-.734 1.032-.734v-.313c-.36.016-.844.032-1.172.032-.328 0-.813-.016-1.157-.032v.313c1.016 0 1.016.469 1.016.734V-1.5z"/></symbol></defs><use height="1052.362" width="744.094" xlink:href="#F" x="223.432" y="134.765"/><use height="1052.362" width="744.094" xlink:href="#G" x="233.104" y="134.765"/><use height="1052.362" width="744.094" xlink:href="#H" x="243.623" y="134.765"/><use height="1052.362" width="744.094" xlink:href="#I" x="248.604" y="134.765"/><use height="1052.362" width="744.094" xlink:href="#J" x="253.585" y="134.765"/><g><use height="1052.362" width="744.094" xlink:href="#K" x="260.22" y="134.765"/></g></g><g ns0:text="$F _{\\rm{G,R2}} = \\unit[20]{N}$" ns0:preamble="/home/waldgeist/data/sphinx/inkscape-preamble.tex" fill="#d40000"><use height="1052.362" width="744.094" xlink:href="#w" x="223.432" y="134.765" transform="translate(-539.513 -160.969) scale(4.13084)"/><use height="1052.362" width="744.094" xlink:href="#x" x="229.839" y="136.259" transform="translate(-539.513 -160.969) scale(4.13084)"/><use height="1052.362" width="744.094" xlink:href="#y" x="236.003" y="136.259" transform="translate(-539.513 -160.969) scale(4.13084)"/><g transform="translate(-539.513 -160.969) scale(4.13084)"><use height="1052.362" width="744.094" xlink:href="#z" x="238.369" y="136.259"/><use height="1052.362" width="744.094" xlink:href="#A" x="244.153" y="136.259"/></g><use height="1052.362" width="744.094" xlink:href="#B" x="251.39" y="134.765" transform="translate(-539.513 -160.969) scale(4.13084)"/><g transform="translate(-539.513 -160.969) scale(4.13084)"><use height="1052.362" width="744.094" xlink:href="#C" x="261.909" y="134.765"/><use height="1052.362" width="744.094" xlink:href="#D" x="266.89" y="134.765"/></g><use height="1052.362" width="744.094" xlink:href="#E" x="273.525" y="134.765" transform="translate(-539.513 -160.969) scale(4.13084)"/></g><g fill="#d40000" stroke="#d40000"><path d="M359.144 368.846v31.111" stroke-width="8.000243520000001"/><path d="M359.144 406.183l-2.023-3.505-2.024-3.505h8.094l-2.023 3.505z" stroke-width="8.00007397"/></g><g fill="#d40000" stroke="#d40000"><path d="M359.144 429.293v65.181" stroke-width="8.000243520000001"/><path d="M359.144 500.7l-2.023-3.505-2.024-3.505h8.094l-2.023 3.505z" stroke-width="8.00007397"/></g><g transform="translate(-807.912 -533.435) scale(5.88959)" ns0:preamble="/home/waldgeist/data/sphinx/inkscape-preamble.tex" ns0:text="$F _{\\rm{}}=\\unit[117,5]{N}$" fill="#d40000"><defs><symbol id="L" overflow="visible"><path d="M3.016-3.234h.968c.75 0 .829.156.829.437 0 .078 0 .188-.063.5-.031.047-.031.078-.031.11 0 .078.062.109.11.109.109 0 .109-.031.155-.203l.547-2.172c.032-.11.032-.125.032-.156a.117.117 0 0 0-.125-.11c-.094 0-.11.047-.141.219-.219.766-.438.953-1.297.953h-.906l.64-2.531c.094-.36.11-.39.547-.39h1.313c1.218 0 1.453.327 1.453 1.093 0 .234 0 .266-.031.547C7-4.703 7-4.688 7-4.656c0 .047.031.125.125.125.11 0 .11-.063.125-.25l.203-1.735c.031-.265-.016-.265-.266-.265h-4.89c-.188 0-.297 0-.297.203 0 .11.094.11.281.11.375 0 .656 0 .656.171 0 .047 0 .063-.062.25L1.562-.78c-.093.39-.109.469-.906.469-.172 0-.281 0-.281.187C.375 0 .5 0 .531 0c.281 0 1.031-.031 1.313-.031C2.172-.031 3 0 3.328 0c.094 0 .203 0 .203-.188 0-.078-.047-.109-.047-.109-.03-.016-.062-.016-.28-.016-.22 0-.267 0-.517-.015-.296-.031-.328-.078-.328-.203 0-.016 0-.078.047-.219z"/></symbol><symbol id="P" overflow="visible"><path d="M2.031-.016c0-.656-.25-1.046-.64-1.046a.517.517 0 0 0-.532.53c0 .266.204.532.532.532a.58.58 0 0 0 .343-.125c.032-.031.047-.031.047-.031.016 0 .016 0 .016.14 0 .75-.344 1.344-.672 1.672-.11.11-.11.125-.11.157 0 .078.048.109.094.109.11 0 .922-.766.922-1.938z"/></symbol><symbol id="M" overflow="visible"><path d="M6.844-3.266c.156 0 .343 0 .343-.187 0-.203-.187-.203-.328-.203H.891c-.141 0-.329 0-.329.203 0 .187.188.187.329.187zm.015 1.938c.141 0 .329 0 .329-.203 0-.188-.188-.188-.344-.188H.89c-.141 0-.329 0-.329.188 0 .203.188.203.329.203z"/></symbol><symbol id="N" overflow="visible"><path d="M2.938-6.375c0-.25 0-.266-.235-.266C2.078-6 1.203-6 .891-6v.313c.203 0 .78 0 1.296-.266v5.172c0 .36-.03.469-.921.469H.953V0c.344-.031 1.203-.031 1.61-.031.39 0 1.265 0 1.609.031v-.313h-.313c-.906 0-.921-.109-.921-.468z"/></symbol><symbol id="O" overflow="visible"><path d="M4.75-6.078c.078-.11.078-.125.078-.344H2.406c-1.203 0-1.234-.125-1.265-.312H.89L.562-4.688h.25c.032-.156.11-.78.25-.906.063-.062.844-.062.97-.062h2.062c-.11.156-.89 1.25-1.11 1.578C2.078-2.734 1.75-1.344 1.75-.328c0 .094 0 .547.469.547.453 0 .453-.453.453-.547v-.516c0-.547.031-1.094.11-1.625.046-.234.171-1.094.624-1.703z"/></symbol><symbol id="Q" overflow="visible"><path d="M4.469-2c0-1.188-.813-2.188-1.89-2.188-.47 0-.907.157-1.267.516v-1.953c.204.063.532.125.844.125 1.235 0 1.938-.906 1.938-1.031 0-.063-.032-.11-.11-.11 0 0-.03 0-.078.032a3.22 3.22 0 0 1-1.36.296c-.39 0-.858-.078-1.327-.28-.078-.032-.094-.032-.11-.032C1-6.625 1-6.547 1-6.391v2.954c0 .171 0 .25.14.25.079 0 .094-.016.141-.079.11-.156.469-.703 1.282-.703.515 0 .765.453.843.64.156.376.188.75.188 1.25 0 .36 0 .954-.25 1.376-.235.39-.61.64-1.063.64-.719 0-1.297-.53-1.469-1.109.032 0 .063.016.172.016.329 0 .5-.25.5-.485 0-.25-.171-.5-.5-.5-.14 0-.484.079-.484.532C.5-.75 1.188.219 2.297.219 3.453.219 4.469-.734 4.469-2z"/></symbol><symbol id="R" overflow="visible"><path d="M2.313-6.672c-.094-.125-.094-.14-.282-.14H.328v.312h.297c.14 0 .344.016.484.016.235.03.25.046.25.234v5.203c0 .266 0 .734-1.03.734V0c.343-.016.843-.031 1.171-.031.328 0 .813.015 1.156.031v-.313c-1.015 0-1.015-.468-1.015-.734v-5.187c.046.046.046.062.093.125L5.797-.125c.094.11.11.125.172.125.14 0 .14-.063.14-.266v-5.5c0-.265 0-.734 1.032-.734v-.313c-.36.016-.844.032-1.172.032-.328 0-.813-.016-1.157-.032v.313c1.016 0 1.016.469 1.016.734V-1.5z"/></symbol></defs><use y="134.765" x="223.432" xlink:href="#L"/><use y="134.765" x="233.104" xlink:href="#M"/><use y="134.765" x="243.623" xlink:href="#N"/><use y="134.765" x="248.604" xlink:href="#N"/><use y="134.765" x="253.585" xlink:href="#O"/><use y="134.765" x="258.564" xlink:href="#P"/><g><use y="134.765" x="262.992" xlink:href="#Q"/></g><g><use y="134.765" x="269.637" xlink:href="#R"/></g></g></svg>