<svg xmlns:ns0="http://www.iki.fi/pav/software/textext/" xmlns="http://www.w3.org/2000/svg" xmlns:xlink="http://www.w3.org/1999/xlink" width="744.094" height="1052.362"><title>Der Potenz-Flaschenzug</title><defs><filter height="1.72" y="-.36" width="1.72" x="-.36" id="a" color-interpolation-filters="sRGB"><feGaussianBlur stdDeviation="3.429"/></filter></defs><rect ry="0" rx="0" y="9.474" x="33.235" height="1033.413" width="677.624" fill="#fff" stroke="#fff"/><path fill="#4d4d4d" fill-rule="evenodd" stroke="#333" stroke-width="3" d="M184.71 36.405h374.674v24.183H184.71z"/><g fill="none" stroke="#333" stroke-linecap="round"><path d="M273.191 853.574c-5.53 0-10.012-4.483-10.012-10.012 0-5.53 4.483-10.013 10.012-10.013 5.53 0 10.013 4.483 10.013 10.013" stroke-width="4.37333088" stroke-linejoin="round"/><path d="M273.191 853.574v13.935" stroke-width="4.3732449"/></g><path fill="#b3b3b3" stroke="#333" stroke-width="1.5891722400000001" stroke-linecap="round" stroke-linejoin="round" d="M241.363 861.054h63.656v102.998h-63.656z"/><path d="M301.429 350.934c0 6.311-5.117 11.428-11.429 11.428s-11.429-5.117-11.429-11.428c0-6.312 5.117-11.429 11.429-11.429s11.429 5.117 11.429 11.429z" transform="matrix(.32534 0 0 .32534 162.929 762.415)" opacity=".5" fill="#fff" filter="url(#a)"/><g fill="#d40000" stroke="#d40000"><path d="M273.191 912.554v85.5" stroke-width="14.944563660000002"/><path d="M273.191 1010.279l-2.023-3.505-2.023-3.505h8.093l-2.023 3.505z" stroke-width="14.95392808"/></g><g fill="none" stroke="#333" stroke-linecap="round"><path d="M273.627 767.387v-13.935" stroke-width="4.3732449"/><path d="M273.627 767.387c-5.53 0-10.013 4.483-10.013 10.013s4.483 10.012 10.013 10.012 10.012-4.482 10.012-10.012" stroke-width="4.37333088" stroke-linejoin="round"/></g><path d="M273.627 835.53v-50.577" fill="none" stroke="#000" stroke-width="6" stroke-linecap="round"/><path fill="#4d4d4d" fill-rule="evenodd" stroke="#333" stroke-width="2" d="M284.842 680.094h-22.431v80.124h22.431z"/><path d="M316.385 512.709v67.186" fill="none" stroke="#000" stroke-width="6" stroke-linecap="round"/><g fill="none" stroke="#333" stroke-linecap="round"><path d="M232.008 74.523V60.588" stroke-width="4.3732449"/><path d="M232.008 74.523c-5.53 0-10.012 4.482-10.012 10.012s4.483 10.013 10.012 10.013c5.53 0 10.013-4.483 10.013-10.013" stroke-width="4.37333088" stroke-linejoin="round"/></g><path d="M316.386 677.393c0 23.621-19.144 42.77-42.76 42.77-23.614 0-42.758-19.149-42.758-42.77" fill="none" stroke="#000" stroke-width="6"/><g stroke="#333"><g fill="none" stroke-linecap="round"><path d="M316.385 614.73v-13.935" stroke-width="4.3732449"/><path d="M316.385 614.73c-5.53 0-10.012 4.483-10.012 10.013s4.483 10.012 10.012 10.012c5.53 0 10.013-4.483 10.013-10.012" stroke-width="4.37333088" stroke-linejoin="round"/></g><path fill="#4d4d4d" fill-rule="evenodd" stroke-width="2.0000608800000004" d="M327.6 527.437h-22.43v80.124h22.43z"/></g><path d="M332.23 156.146h195.28" fill="none" stroke="#000" stroke-width="14.454" stroke-linecap="round" transform="matrix(0 -.22815 -.7553 0 434.324 753.205)"/><g fill="none" stroke="#333" stroke-linecap="round"><path d="M230.868 74.523V60.588" stroke-width="4.3732449"/><path d="M230.868 74.523c-5.53 0-10.013 4.482-10.013 10.012s4.483 10.013 10.013 10.013 10.012-4.483 10.012-10.013" stroke-width="4.37333088" stroke-linejoin="round"/></g><path d="M230.868 680.155V92.648" fill="none" stroke="#000" stroke-width="6" stroke-linecap="round"/><g fill-rule="evenodd"><path transform="matrix(-1.73467 0 0 1.7351 4418.133 453.364)" d="M2412.868 130.116c0 13.061-10.588 23.65-23.65 23.65-13.06 0-23.648-10.589-23.648-23.65 0-13.06 10.588-23.649 23.649-23.649 13.06 0 23.649 10.588 23.649 23.65z" fill="maroon" stroke="#333" stroke-width="1.826"/><path d="M2330.115 104.527a4.288 4.288 0 1 1-8.576 0 4.288 4.288 0 0 1 8.576 0z" transform="matrix(-2.3926 0 0 2.3932 5838.406 428.975)" fill="#fc0" stroke="#000" stroke-width="1.324"/></g><path d="M359.144 525.97c0 23.622-19.143 42.77-42.759 42.77-23.614 0-42.758-19.148-42.758-42.77" fill="none" stroke="#000" stroke-width="6"/><g fill="none" stroke="#333" stroke-linecap="round"><path d="M273.632 74.523V60.588" stroke-width="4.3732449"/><path d="M273.632 74.523c-5.53 0-10.012 4.482-10.012 10.012s4.482 10.013 10.012 10.013 10.013-4.483 10.013-10.013" stroke-width="4.37333088" stroke-linejoin="round"/></g><path d="M273.632 526.662V92.648" fill="none" stroke="#000" stroke-width="6" stroke-linecap="round"/><g fill="none" stroke="#333" stroke-linecap="round"><path d="M317.341 74.523V60.588" stroke-width="4.3732449"/><path d="M317.341 74.523c-5.53 0-10.012 4.482-10.012 10.012s4.483 10.013 10.012 10.013c5.53 0 10.013-4.483 10.013-10.013" stroke-width="4.37333088" stroke-linejoin="round"/></g><path d="M317.341 327.048V91.734" fill="none" stroke="#000" stroke-width="6" stroke-linecap="round"/><g stroke="#333"><g fill="none" stroke-linecap="round"><path d="M359.144 416.077v-13.935" stroke-width="4.3732449"/><path d="M359.144 416.077c-5.53 0-10.012 4.483-10.012 10.013s4.482 10.012 10.012 10.012 10.013-4.483 10.013-10.012" stroke-width="4.37333088" stroke-linejoin="round"/></g><path fill="#4d4d4d" fill-rule="evenodd" stroke-width="2.0000608800000004" d="M370.36 328.784h-22.431v80.124h22.43z"/></g><path d="M402.859 327.048c0 23.621-19.144 42.77-42.759 42.77-23.615 0-42.759-19.149-42.759-42.77" fill="none" stroke="#000" stroke-width="6"/><path d="M332.23 156.146h186.952" fill="none" stroke="#000" stroke-width="11.703" stroke-linecap="round" transform="matrix(0 -.34802 -.7553 0 520.605 446.76)"/><path transform="matrix(-2.3926 0 0 2.3932 5924.88 84.33)" d="M2330.115 104.527a4.288 4.288 0 1 1-8.576 0 4.288 4.288 0 0 1 8.576 0z" fill="#fc0" fill-rule="evenodd" stroke="#000" stroke-width="1.324"/><g fill-rule="evenodd"><path transform="matrix(-1.73467 0 0 1.7351 4504.606 103.02)" d="M2412.868 130.116c0 13.061-10.588 23.65-23.65 23.65-13.06 0-23.648-10.589-23.648-23.65 0-13.06 10.588-23.649 23.649-23.649 13.06 0 23.649 10.588 23.649 23.65z" fill="maroon" stroke="#333" stroke-width="1.826"/><path d="M2330.115 104.527a4.288 4.288 0 1 1-8.576 0 4.288 4.288 0 0 1 8.576 0z" transform="matrix(-2.3926 0 0 2.3932 5924.88 78.63)" fill="#fc0" stroke="#000" stroke-width="1.324"/></g><path d="M332.23 156.146h191.783" fill="none" stroke="#000" stroke-width="9.957" stroke-linecap="round" transform="matrix(0 -.4808 -.7553 0 477.083 685.722)"/><path d="M402.859 137.297v134.517" fill="none" stroke="#000" stroke-width="6" stroke-linecap="round"/><path d="M332.23 156.146h512.582" fill="none" stroke="#000" stroke-width="11.188" stroke-linecap="round" transform="matrix(0 .3808 -.7553 0 606.315 10.784)"/><path fill="#4d4d4d" fill-rule="evenodd" stroke="#333" stroke-width="2" d="M456.833 61.779h-22.431v80.124h22.431z"/><path d="M488.377 137.297c0-23.62-19.144-42.769-42.76-42.769-23.614 0-42.758 19.148-42.758 42.77" fill="none" stroke="#000" stroke-width="6"/><g fill-rule="evenodd"><path transform="matrix(-1.73467 0 0 1.7351 4590.124 -90.203)" d="M2412.868 130.116c0 13.061-10.588 23.65-23.65 23.65-13.06 0-23.648-10.589-23.648-23.65 0-13.06 10.588-23.649 23.649-23.649 13.06 0 23.649 10.588 23.649 23.65z" fill="maroon" stroke="#333" stroke-width="1.826"/><path d="M2330.115 104.527a4.288 4.288 0 1 1-8.576 0 4.288 4.288 0 0 1 8.576 0z" transform="matrix(-2.3926 0 0 2.3932 6010.397 -114.593)" fill="#fc0" stroke="#000" stroke-width="1.324"/></g><g fill-rule="evenodd"><path d="M2412.868 130.116c0 13.061-10.588 23.65-23.65 23.65-13.06 0-23.648-10.589-23.648-23.65 0-13.06 10.588-23.649 23.649-23.649 13.06 0 23.649 10.588 23.649 23.65z" transform="matrix(-1.73467 0 0 1.7351 4459.936 301.672)" fill="maroon" stroke="#333" stroke-width="1.826"/><path transform="matrix(-2.3926 0 0 2.3932 5880.209 277.283)" d="M2330.115 104.527a4.288 4.288 0 1 1-8.576 0 4.288 4.288 0 0 1 8.576 0z" fill="#fc0" stroke="#000" stroke-width="1.324"/></g><g fill="#d40000" stroke="#d40000"><path d="M488.377 313.66v65.181" stroke-width="8.000243520000001"/><path d="M488.376 385.067l-2.023-3.505-2.023-3.504h8.093l-2.023 3.504z" stroke-width="8.00007397"/></g><g transform="translate(-1019.799 222.901) scale(5.88959)" ns0:text="$F _{\\rm{G}}$" ns0:preamble="/home/waldgeist/data/sphinx/inkscape-preamble.tex" fill="#d40000"><defs><symbol overflow="visible" id="b"><path d="M3.016-3.234h.968c.75 0 .829.156.829.437 0 .078 0 .188-.063.5-.031.047-.031.078-.031.11 0 .078.062.109.11.109.109 0 .109-.031.155-.203l.547-2.172c.032-.11.032-.125.032-.156a.117.117 0 0 0-.125-.11c-.094 0-.11.047-.141.219-.219.766-.438.953-1.297.953h-.906l.64-2.531c.094-.36.11-.39.547-.39h1.313c1.218 0 1.453.327 1.453 1.093 0 .234 0 .266-.031.547C7-4.703 7-4.688 7-4.656c0 .047.031.125.125.125.11 0 .11-.063.125-.25l.203-1.735c.031-.265-.016-.265-.266-.265h-4.89c-.188 0-.297 0-.297.203 0 .11.094.11.281.11.375 0 .656 0 .656.171 0 .047 0 .063-.062.25L1.562-.78c-.093.39-.109.469-.906.469-.172 0-.281 0-.281.187C.375 0 .5 0 .531 0c.281 0 1.031-.031 1.313-.031C2.172-.031 3 0 3.328 0c.094 0 .203 0 .203-.188 0-.078-.047-.109-.047-.109-.03-.016-.062-.016-.28-.016-.22 0-.267 0-.517-.015-.296-.031-.328-.078-.328-.203 0-.016 0-.078.047-.219z"/></symbol><symbol overflow="visible" id="c"><path d="M5.188-1.36c0-.312.078-.312.546-.312v-.25c-.062 0-.562.031-.906.031-.375 0-.89 0-1.266-.03v.25h.266c.703 0 .703.093.703.312v.453c0 .156 0 .422-.406.625-.328.172-.719.172-.813.172-.796 0-2.078-.454-2.078-2.282 0-1.843 1.329-2.25 2.016-2.25.672 0 1.516.454 1.688 1.657.015.078.078.078.125.078.125 0 .125-.047.125-.188v-1.625c0-.125 0-.187-.094-.187-.032 0-.063 0-.125.093l-.36.532a1.994 1.994 0 0 0-1.453-.625C1.703-4.906.484-3.781.484-2.391.484-1 1.672.141 3.172.141c.39 0 1.156-.078 1.484-.563.125.188.375.422.453.422.079 0 .079-.078.079-.188z"/></symbol></defs><use height="1052.362" width="744.094" xlink:href="#b" x="223.432" y="134.765"/><use height="1052.362" width="744.094" xlink:href="#c" x="229.839" y="136.259"/></g><g transform="translate(-807.912 -414.39) scale(5.88959)" ns0:preamble="/home/waldgeist/data/sphinx/inkscape-preamble.tex" ns0:text="$F _{\\rm{}}$" fill="#d40000"><defs><symbol id="d" overflow="visible"><path d="M3.016-3.234h.968c.75 0 .829.156.829.437 0 .078 0 .188-.063.5-.031.047-.031.078-.031.11 0 .078.062.109.11.109.109 0 .109-.031.155-.203l.547-2.172c.032-.11.032-.125.032-.156a.117.117 0 0 0-.125-.11c-.094 0-.11.047-.141.219-.219.766-.438.953-1.297.953h-.906l.64-2.531c.094-.36.11-.39.547-.39h1.313c1.218 0 1.453.327 1.453 1.093 0 .234 0 .266-.031.547C7-4.703 7-4.688 7-4.656c0 .047.031.125.125.125.11 0 .11-.063.125-.25l.203-1.735c.031-.265-.016-.265-.266-.265h-4.89c-.188 0-.297 0-.297.203 0 .11.094.11.281.11.375 0 .656 0 .656.171 0 .047 0 .063-.062.25L1.562-.78c-.093.39-.109.469-.906.469-.172 0-.281 0-.281.187C.375 0 .5 0 .531 0c.281 0 1.031-.031 1.313-.031C2.172-.031 3 0 3.328 0c.094 0 .203 0 .203-.188 0-.078-.047-.109-.047-.109-.03-.016-.062-.016-.28-.016-.22 0-.267 0-.517-.015-.296-.031-.328-.078-.328-.203 0-.016 0-.078.047-.219z"/></symbol></defs><use y="134.765" x="223.432" xlink:href="#d" width="744.094" height="1052.362"/></g></svg>