<svg xmlns:ns0="http://www.iki.fi/pav/software/textext/" xmlns="http://www.w3.org/2000/svg" xmlns:xlink="http://www.w3.org/1999/xlink" width="1052.362" height="744.094"><title>Riemen- und Kettengetriebe</title><defs><marker orient="auto" id="i" overflow="visible"><path d="M8.719 4.034L-2.207.016 8.719-4.002c-1.746 2.372-1.736 5.618 0 8.036z" transform="matrix(.3 0 0 .3 -.69 0)" fill-rule="evenodd" stroke-width=".625" stroke-linejoin="round"/></marker></defs><path style="marker:none" d="M765.12 624.643a203.769 203.769 0 0 1 203.768-203.769" color="#000" fill="none" stroke="#000" stroke-width="7.998704640000001" stroke-linecap="round" overflow="visible"/><path style="marker:none" color="#000" fill="#fff" stroke="#fff" stroke-linecap="round" overflow="visible" d="M1037.936 88.492v567.11H14.426V88.491z"/><path d="M743.044 208.031l-589.569 107.36" fill="none" stroke="gray" stroke-width="8" stroke-linecap="round"/><path style="marker:none" d="M763.806 512.6a101.884 101.884 0 1 1 34.847-197.624V416.86z" color="#000" fill="none" stroke="#000" stroke-width="3.9993523200000003" stroke-linecap="round" overflow="visible"/><path d="M743.044 208.031a209.653 209.653 0 1 1 0 417.711" style="marker:none" color="#000" fill="none" stroke="gray" stroke-width="8.15348025" stroke-linecap="round" overflow="visible"/><g fill="gray" stroke="gray"><path d="M81.304 412.874c0-56.269 45.615-101.884 101.884-101.884" style="marker:none" color="#000" stroke-width="8.00007616" stroke-linecap="round" overflow="visible"/><path d="M81.304 420.874v-8" stroke-width="8"/><path style="marker:none" d="M81.304 420.874c0 56.27 45.615 101.885 101.884 101.885" color="#000" stroke-width="8.00007616" stroke-linecap="round" overflow="visible"/></g><path d="M743.044 625.742L154.442 518.647" fill="none" stroke="gray" stroke-width="8" stroke-linecap="round"/><path style="marker:none" d="M964.888 416.874a203.769 203.769 0 1 1-407.537 0 203.769 203.769 0 1 1 407.537 0z" color="#000" fill="#e7e7e7" stroke="#333" stroke-width="5.99902848" stroke-linecap="round" overflow="visible"/><g stroke="#d40000"><g fill="#d40000"><path d="M847.844 189.51l52.957-9.401" stroke-width="9.4753092"/><path d="M908.7 178.707l-3.23 2.716-3.23 2.716-.737-4.155-.737-4.155 3.967 1.439z" stroke-width="12.416265130000001"/></g><path d="M724.282 211.448l176.519-31.339" fill="#d40000" stroke-width="12" stroke-linecap="round"/></g><path d="M289.072 416.874a101.884 101.884 0 1 1-203.768 0 101.884 101.884 0 1 1 203.768 0z" style="marker:none" color="#000" fill="#e7e7e7" stroke="#333" stroke-width="6.0004" stroke-linecap="round" overflow="visible"/><path style="marker:none" d="M197.683 416.874a10.496 10.496 0 1 1-20.99 0 10.496 10.496 0 1 1 20.99 0zM771.615 416.874a10.496 10.496 0 1 1-20.99 0 10.496 10.496 0 1 1 20.99 0z" color="#000" fill="#fc0" stroke="#1a1a1a" stroke-width="3" stroke-linecap="round" overflow="visible"/><g transform="matrix(5.29276 0 0 5.29276 -502.772 -423.788)" ns0:preamble="/home/waldgeist/data/sphinx/inkscape-preamble.tex" ns0:text="$\\vec{s}_{\\rm{2}}$" fill="green" stroke="green"><defs><symbol id="a" overflow="visible"><path d="M5.36-5.938c-.141.141-.47.422-.47.594 0 .094.094.203.188.203s.14-.078.203-.14c.11-.14.344-.422.782-.64.062-.048.171-.095.171-.204 0-.11-.078-.156-.14-.203a1.034 1.034 0 0 1-.407-.563c-.03-.093-.062-.234-.203-.234-.14 0-.203.14-.203.219 0 .047.078.36.235.578h-3.36c-.156 0-.344 0-.344.203 0 .188.188.188.344.188z" stroke="none"/></symbol><symbol id="b" overflow="visible"><path d="M3.89-3.734c-.265.015-.468.234-.468.453 0 .14.094.297.312.297.22 0 .454-.172.454-.563 0-.453-.422-.86-1.188-.86-1.313 0-1.688 1.016-1.688 1.454 0 .781.735.922 1.032.984.515.11 1.031.219 1.031.766 0 .25-.219 1.094-1.422 1.094-.14 0-.906 0-1.14-.532.39.047.64-.25.64-.53 0-.22-.172-.345-.375-.345-.266 0-.562.204-.562.657 0 .562.578.968 1.421.968 1.625 0 2.016-1.203 2.016-1.656a.97.97 0 0 0-.312-.719c-.266-.28-.563-.343-1-.421-.36-.079-.75-.157-.75-.61 0-.281.234-.89 1.109-.89.25 0 .75.078.89.453z" stroke="none"/></symbol><symbol id="c" overflow="visible"><path d="M3.516-1.266H3.28c-.015.157-.094.563-.187.625-.047.047-.578.047-.688.047H1.125c.734-.64.984-.844 1.39-1.172.516-.406 1-.843 1-1.5 0-.843-.734-1.359-1.624-1.359-.86 0-1.454.61-1.454 1.25 0 .344.297.39.376.39.156 0 .359-.124.359-.374 0-.125-.047-.375-.406-.375.218-.485.687-.641 1.015-.641.703 0 1.063.547 1.063 1.11 0 .609-.438 1.078-.656 1.328L.516-.266C.437-.203.437-.187.437 0h2.876z" stroke="none"/></symbol></defs><use height="1052.362" width="744.094" y="134.765" x="223.064" xlink:href="#a"/><use height="1052.362" width="744.094" y="134.765" x="223.433" xlink:href="#b"/><use height="1052.362" width="744.094" y="136.259" x="228.102" xlink:href="#c"/></g><g stroke="#d40000"><g fill="#d40000"><path d="M292.282 290.072l52.956-9.402" stroke-width="9.4753092"/><path d="M353.138 279.268l-3.23 2.716-3.23 2.717-.737-4.155-.737-4.155 3.967 1.438z" stroke-width="12.416265130000001"/></g><path d="M168.72 312.01l176.518-31.34" fill="#d40000" stroke-width="12" stroke-linecap="round"/></g><g stroke="green"><g fill="#d40000"><path d="M176.6 355.985l8.27 47.54" stroke-width="6.000251609999999"/><path d="M185.932 409.635l-2.09-2.504-2.09-2.504 3.213-.558 3.214-.558-1.124 3.062z" stroke-width="7.8623787599999995"/></g><g fill="#d40000"><path d="M178.196 365.18l-6.02-34.789" stroke-width="6.000251609999999"/><path d="M171.116 324.282l-1.124 3.062-1.124 3.061 3.214-.557 3.213-.557-2.09-2.505z" stroke-width="7.8623787599999995"/></g></g><g ns0:text="$\\vec{s}_{\\rm{1}}$" ns0:preamble="/home/waldgeist/data/sphinx/inkscape-preamble.tex" transform="matrix(5.29276 0 0 5.29276 -1054.73 -340.763)" fill="green" stroke="green"><defs><symbol overflow="visible" id="d"><path d="M5.36-5.938c-.141.141-.47.422-.47.594 0 .094.094.203.188.203s.14-.078.203-.14c.11-.14.344-.422.782-.64.062-.048.171-.095.171-.204 0-.11-.078-.156-.14-.203a1.034 1.034 0 0 1-.407-.563c-.03-.093-.062-.234-.203-.234-.14 0-.203.14-.203.219 0 .047.078.36.235.578h-3.36c-.156 0-.344 0-.344.203 0 .188.188.188.344.188z" stroke="none"/></symbol><symbol overflow="visible" id="e"><path d="M3.89-3.734c-.265.015-.468.234-.468.453 0 .14.094.297.312.297.22 0 .454-.172.454-.563 0-.453-.422-.86-1.188-.86-1.313 0-1.688 1.016-1.688 1.454 0 .781.735.922 1.032.984.515.11 1.031.219 1.031.766 0 .25-.219 1.094-1.422 1.094-.14 0-.906 0-1.14-.532.39.047.64-.25.64-.53 0-.22-.172-.345-.375-.345-.266 0-.562.204-.562.657 0 .562.578.968 1.421.968 1.625 0 2.016-1.203 2.016-1.656a.97.97 0 0 0-.312-.719c-.266-.28-.563-.343-1-.421-.36-.079-.75-.157-.75-.61 0-.281.234-.89 1.109-.89.25 0 .75.078.89.453z" stroke="none"/></symbol><symbol overflow="visible" id="f"><path d="M2.328-4.438c0-.187 0-.187-.203-.187-.453.438-1.078.438-1.36.438v.25c.157 0 .626 0 1-.188v3.547c0 .234 0 .328-.687.328H.812V0c.125 0 .985-.031 1.235-.031.219 0 1.094.031 1.25.031v-.25H3.03c-.703 0-.703-.094-.703-.328z" stroke="none"/></symbol></defs><use height="1052.362" width="744.094" xlink:href="#d" x="223.064" y="134.765"/><use height="1052.362" width="744.094" xlink:href="#e" x="223.433" y="134.765"/><use height="1052.362" width="744.094" xlink:href="#f" x="228.102" y="136.259"/></g><g transform="matrix(5.29276 0 0 5.29276 -876.834 -448.196)" ns0:preamble="/home/waldgeist/data/sphinx/inkscape-preamble.tex" ns0:text="$\\vec{F}_{\\rm{}}$" fill="#d40000" stroke="#d40000"><defs><symbol id="g" overflow="visible"><path d="M5.36-5.938c-.141.141-.47.422-.47.594 0 .094.094.203.188.203s.14-.078.203-.14c.11-.14.344-.422.782-.64.062-.048.171-.095.171-.204 0-.11-.078-.156-.14-.203a1.034 1.034 0 0 1-.407-.563c-.03-.093-.062-.234-.203-.234-.14 0-.203.14-.203.219 0 .047.078.36.235.578h-3.36c-.156 0-.344 0-.344.203 0 .188.188.188.344.188z" stroke="none"/></symbol><symbol id="h" overflow="visible"><path d="M3.016-3.234h.968c.75 0 .829.156.829.437 0 .078 0 .188-.063.5-.031.047-.031.078-.031.11 0 .078.062.109.11.109.109 0 .109-.031.155-.203l.547-2.172c.032-.11.032-.125.032-.156a.117.117 0 0 0-.125-.11c-.094 0-.11.047-.141.219-.219.766-.438.953-1.297.953h-.906l.64-2.531c.094-.36.11-.39.547-.39h1.313c1.218 0 1.453.327 1.453 1.093 0 .234 0 .266-.031.547C7-4.703 7-4.688 7-4.656c0 .047.031.125.125.125.11 0 .11-.063.125-.25l.203-1.735c.031-.265-.016-.265-.266-.265h-4.89c-.188 0-.297 0-.297.203 0 .11.094.11.281.11.375 0 .656 0 .656.171 0 .047 0 .063-.062.25L1.562-.78c-.093.39-.109.469-.906.469-.172 0-.281 0-.281.187C.375 0 .5 0 .531 0c.281 0 1.031-.031 1.313-.031C2.172-.031 3 0 3.328 0c.094 0 .203 0 .203-.188 0-.078-.047-.109-.047-.109-.03-.016-.062-.016-.28-.016-.22 0-.267 0-.517-.015-.296-.031-.328-.078-.328-.203 0-.016 0-.078.047-.219z" stroke="none"/></symbol></defs><use y="132.246" x="224.901" xlink:href="#g" width="1052.362" height="744.094"/><use y="134.765" x="223.432" xlink:href="#h" width="1052.362" height="744.094"/></g><path d="M280 483.79a74.286 74.286 0 0 1 61.386-73.156" style="marker:none" transform="matrix(-1.20325 .4637 .46447 1.20525 962.904 -330.507)" color="#000" fill="none" stroke="#00f" stroke-width="4.649" stroke-linecap="round" stroke-dasharray="4.64907045,13.94721137" marker-start="url(#i)" overflow="visible"/><g stroke="green"><g fill="#d40000"><path d="M740.084 295.595l18.814 108.481" stroke-width="6.000251609999999"/><path d="M759.958 410.186l1.124-3.062 1.124-3.062-3.214.558-3.213.557 2.09 2.505z" stroke-width="7.8623787599999995"/></g><g fill="#d40000"><path d="M758.347 400.792l-29.934-172.317" stroke-width="6.000251609999999"/><path d="M727.351 222.366l2.09 2.504 2.09 2.503-3.213.559-3.213.558 1.123-3.062z" stroke-width="7.8623787599999995"/></g></g><path transform="matrix(-.67875 .39734 .398 .67988 235.83 -53.012)" style="marker:none" d="M316.248 547.6a74.286 74.286 0 0 1 10.21-132.686" color="#000" fill="none" stroke="#00f" stroke-width="7.622" stroke-linecap="round" stroke-dasharray="7.62242456,22.86727371" marker-start="url(#i)" overflow="visible"/><g ns0:text="$\\vec{F}_{\\rm{}}$" ns0:preamble="/home/waldgeist/data/sphinx/inkscape-preamble.tex" fill="#d40000" stroke="#d40000"><use height="744.094" width="1052.362" xlink:href="#g" x="224.901" y="132.246" transform="matrix(5.29276 0 0 5.29276 -321.272 -548.758)"/><use height="744.094" width="1052.362" xlink:href="#h" x="223.432" y="134.765" transform="matrix(5.29276 0 0 5.29276 -321.272 -548.758)"/></g></svg>