<svg xmlns:ns0="http://www.iki.fi/pav/software/textext/" xmlns="http://www.w3.org/2000/svg" xmlns:xlink="http://www.w3.org/1999/xlink" height="744.094" width="1052.362"><title>Schiefe Ebene -- Keilwirkung</title><defs><marker orient="auto" id="e" overflow="visible"><path d="M8.719 4.034L-2.207.016 8.719-4.002c-1.746 2.372-1.736 5.618 0 8.036z" transform="matrix(-.3 0 0 -.3 .69 0)" fill-rule="evenodd" stroke-width=".625" stroke-linejoin="round"/></marker><marker orient="auto" id="b" overflow="visible"><path d="M4 0l2-2-7 2 7 2-2-2z" fill-rule="evenodd" stroke="#000" stroke-width=".4pt"/></marker><marker orient="auto" id="c" overflow="visible"><path d="M-4 0l-2 2 7-2-7-2 2 2z" fill-rule="evenodd" stroke="#000" stroke-width=".4pt"/></marker><filter id="a"><feGaussianBlur stdDeviation="1.221"/></filter></defs><g transform="translate(0 -308.268)"><rect transform="scale(-1 1)" ry="0" rx="0" y="500.77" x="-914.08" height="359.089" width="775.797" style="marker:none" color="#000" fill="#fff" stroke="#fff" stroke-linecap="round" stroke-linejoin="bevel" overflow="visible" enable-background="accumulate"/><path style="marker:none" color="#000" fill="#f2f2f2" stroke="#ccc" stroke-width="3" stroke-linecap="round" stroke-linejoin="round" overflow="visible" enable-background="accumulate" d="M189.89 664.434h672.582v163.682H189.89z"/><g fill="#e6e6e6" stroke="#164450"><path d="M451.639 585.966h74.466V794.28zM600.571 585.966h-74.466V794.28z"/></g><g color="#000" fill="none" stroke="#333" stroke-linecap="round" stroke-linejoin="round"><path d="M540.434 586.372c0 8.218-6.362 14.88-14.21 14.88" style="marker:none" opacity=".5" stroke-width="2.00006536" overflow="visible" enable-background="accumulate"/><path style="marker:none" d="M881.73 495.779c0 34.479-26.694 62.43-59.623 62.43-32.93 0-59.624-27.951-59.624-62.43s26.695-62.43 59.624-62.43c32.93 0 59.624 27.951 59.624 62.43z" transform="matrix(.01274 0 0 .01274 521.202 586.32)" opacity=".5" stroke-width="235.535" overflow="visible" filter="url(#a)" enable-background="accumulate"/></g><path d="M397.898 692.472l128.207 47.955" fill="#f60" stroke="#f60" stroke-width="3" stroke-linecap="round" stroke-dasharray="3,9"/><path d="M451.715 571.966h148.932" fill="none" stroke="#000" stroke-width="2" marker-start="url(#b)" marker-end="url(#c)"/><g transform="matrix(3.82095 0 0 3.82095 -333.805 42.533)" ns0:preamble="/home/waldgeist/data/sphinx/inkscape-preamble.tex" ns0:text="$b$" fill="#d40000" stroke="#a00" stroke-width="1.372"><defs><symbol id="d" overflow="visible"><path d="M2.375-6.813s0-.109-.125-.109c-.219 0-.953.078-1.219.11-.078 0-.187.015-.187.187 0 .125.094.125.25.125.468 0 .484.063.484.172 0 .062-.078.406-.125.61l-.828 3.25c-.11.5-.156.671-.156 1.015C.469-.516 1 .109 1.734.109c1.172 0 2.407-1.484 2.407-2.921 0-.907-.532-1.594-1.329-1.594-.453 0-.874.297-1.171.593zm-.922 3.766c.047-.219.047-.234.14-.344.485-.64.938-.796 1.204-.796.36 0 .625.296.625.937 0 .594-.328 1.734-.516 2.11-.328.671-.781 1.03-1.172 1.03-.343 0-.671-.265-.671-1 0-.202 0-.39.156-1.015zm0 0" stroke="none"/></symbol></defs><use y="134.765" x="223.432" xlink:href="#d" width="1052.362" height="744.094" fill="#000" transform="translate(.381)"/></g><path d="M401.283 692.702l246.41.23" fill="none" stroke="#999" stroke-dasharray="1,1"/><g fill="#f60" stroke="#f60"><path d="M526.257 646.799L405.826 689.81" stroke-width="3" stroke-linecap="round"/><path transform="matrix(-.1571 -.46786 -.654 .2196 1346.337 5.888)" d="M-707.107 1620.068l-5.249-9.091-5.249-9.092h20.996l-5.249 9.091z" stroke-width="5.141"/></g><path transform="matrix(.00028 .17259 .17356 .00028 447.414 638.059)" d="M651.255 535.258a42.857 50.058 0 0 1-8.658-72.879" style="marker:none" color="#000" fill="none" stroke="#000" stroke-width="8.667" stroke-linecap="round" stroke-linejoin="bevel" marker-end="url(#e)" overflow="visible" enable-background="accumulate"/><path d="M562.448 769.236c0-4.282-2.527-5.61-4.54-5.61-3.767 0-7.364 3.897-7.364 7.75 0 2.57 1.627 4.625 4.453 4.625 1.713 0 3.683-.642 5.738-2.312.343 1.456 1.242 2.312 2.483 2.312 1.456 0 2.313-1.498 2.313-1.927 0-.214-.172-.3-.343-.3-.171 0-.257.086-.342.3-.514 1.328-1.5 1.328-1.542 1.328-.856 0-.856-2.141-.856-2.783 0-.557 0-.643.3-.942 2.569-3.255 3.125-6.423 3.125-6.423 0-.086-.043-.3-.342-.3-.257 0-.257.086-.386.6-.514 1.712-1.413 3.768-2.697 5.395zm-1.799 3.768c-2.44 2.098-4.538 2.398-5.609 2.398-1.627 0-2.483-1.242-2.483-2.998 0-1.327.728-4.281 1.584-5.652 1.284-2.012 2.783-2.526 3.725-2.526 2.698 0 2.698 3.597 2.698 5.695 0 1.028 0 2.612.085 3.083zm0 0" stroke="none" fill="#000" ns0:preamble="/home/waldgeist/data/sphinx/inkscape-preamble.tex" ns0:text="$\\alpha$" stroke-width="1.913"/><g fill="#f60" stroke="#f60"><path d="M526.105 646.799l120.431 43.011" stroke-width="3" stroke-linecap="round"/><path d="M-707.107 1620.068l-5.249-9.091-5.249-9.092h20.996l-5.249 9.091z" transform="matrix(.1571 -.46786 .654 .2196 -293.974 5.888)" stroke-width="5.141"/></g><g transform="translate(-321.333 191.912) scale(3.79149)" ns0:preamble="/home/waldgeist/data/sphinx/inkscape-preamble.tex" ns0:text="$\\vec{F}$" fill="#d40000" stroke="#a00" stroke-width="1.383"><defs><symbol id="f" overflow="visible"><path d="M5.36-5.938c-.141.141-.47.422-.47.594 0 .094.094.203.188.203s.14-.078.203-.14c.11-.14.344-.422.782-.64.062-.048.171-.095.171-.204 0-.11-.078-.156-.14-.203a1.034 1.034 0 0 1-.407-.563c-.03-.093-.062-.234-.203-.234-.14 0-.203.14-.203.219 0 .047.078.36.235.578h-3.36c-.156 0-.344 0-.344.203 0 .188.188.188.344.188zm0 0" stroke="none"/></symbol><symbol id="g" overflow="visible"><path d="M3.016-3.234h.968c.75 0 .829.156.829.437 0 .078 0 .188-.063.5-.031.047-.031.078-.031.11 0 .078.062.109.11.109.109 0 .109-.031.155-.203l.547-2.172c.032-.11.032-.125.032-.156a.117.117 0 0 0-.125-.11c-.094 0-.11.047-.141.219-.219.766-.438.953-1.297.953h-.906l.64-2.531c.094-.36.11-.39.547-.39h1.313c1.218 0 1.453.327 1.453 1.093 0 .234 0 .266-.031.547C7-4.703 7-4.688 7-4.656c0 .047.031.125.125.125.11 0 .11-.063.125-.25l.203-1.735c.031-.265-.016-.265-.266-.265h-4.89c-.188 0-.297 0-.297.203 0 .11.094.11.281.11.375 0 .656 0 .656.171 0 .047 0 .063-.062.25L1.562-.78c-.093.39-.109.469-.906.469-.172 0-.281 0-.281.187C.375 0 .5 0 .531 0c.281 0 1.031-.031 1.313-.031C2.172-.031 3 0 3.328 0c.094 0 .203 0 .203-.188 0-.078-.047-.109-.047-.109-.03-.016-.062-.016-.28-.016-.22 0-.267 0-.517-.015-.296-.031-.328-.078-.328-.203 0-.016 0-.078.047-.219zm0 0" stroke="none"/></symbol></defs><use y="132.246" x="224.901" xlink:href="#f" width="1052.362" height="744.094"/><use y="134.765" x="223.432" xlink:href="#g" width="1052.362" height="744.094"/></g><g ns0:text="$\\vec{F}_{\\rm{N,2}}$" ns0:preamble="/home/waldgeist/data/sphinx/inkscape-preamble.tex" transform="matrix(3.5278 0 0 3.5278 -136.595 248.786)" fill="#f60" stroke="#a00" stroke-width="1.486"><defs><symbol overflow="visible" id="h"><path d="M5.36-5.938c-.141.141-.47.422-.47.594 0 .094.094.203.188.203s.14-.078.203-.14c.11-.14.344-.422.782-.64.062-.048.171-.095.171-.204 0-.11-.078-.156-.14-.203a1.034 1.034 0 0 1-.407-.563c-.03-.093-.062-.234-.203-.234-.14 0-.203.14-.203.219 0 .047.078.36.235.578h-3.36c-.156 0-.344 0-.344.203 0 .188.188.188.344.188zm0 0" stroke="none"/></symbol><symbol overflow="visible" id="i"><path d="M3.016-3.234h.968c.75 0 .829.156.829.437 0 .078 0 .188-.063.5-.031.047-.031.078-.031.11 0 .078.062.109.11.109.109 0 .109-.031.155-.203l.547-2.172c.032-.11.032-.125.032-.156a.117.117 0 0 0-.125-.11c-.094 0-.11.047-.141.219-.219.766-.438.953-1.297.953h-.906l.64-2.531c.094-.36.11-.39.547-.39h1.313c1.218 0 1.453.327 1.453 1.093 0 .234 0 .266-.031.547C7-4.703 7-4.688 7-4.656c0 .047.031.125.125.125.11 0 .11-.063.125-.25l.203-1.735c.031-.265-.016-.265-.266-.265h-4.89c-.188 0-.297 0-.297.203 0 .11.094.11.281.11.375 0 .656 0 .656.171 0 .047 0 .063-.062.25L1.562-.78c-.093.39-.109.469-.906.469-.172 0-.281 0-.281.187C.375 0 .5 0 .531 0c.281 0 1.031-.031 1.313-.031C2.172-.031 3 0 3.328 0c.094 0 .203 0 .203-.188 0-.078-.047-.109-.047-.109-.03-.016-.062-.016-.28-.016-.22 0-.267 0-.517-.015-.296-.031-.328-.078-.328-.203 0-.016 0-.078.047-.219zm0 0" stroke="none"/></symbol><symbol overflow="visible" id="j"><path d="M1.813-4.656c-.079-.094-.079-.11-.22-.11H.392v.25h.203c.312 0 .484.047.515.047V-.75c0 .188 0 .5-.718.5V0c.28-.016.562-.031.843-.031.297 0 .579.015.86.031v-.25c-.719 0-.719-.313-.719-.5v-3.516L4.469-.109C4.53 0 4.547 0 4.625 0c.14 0 .14-.063.14-.188V-4c0-.188 0-.516.72-.516v-.25c-.298.032-.579.032-.86.032s-.563 0-.844-.032v.25c.719 0 .719.329.719.516v2.953zm0 0" stroke="none"/></symbol><symbol overflow="visible" id="l"><path d="M3.516-1.266H3.28c-.015.157-.094.563-.187.625-.047.047-.578.047-.688.047H1.125c.734-.64.984-.844 1.39-1.172.516-.406 1-.843 1-1.5 0-.843-.734-1.359-1.624-1.359-.86 0-1.454.61-1.454 1.25 0 .344.297.39.376.39.156 0 .359-.124.359-.374 0-.125-.047-.375-.406-.375.218-.485.687-.641 1.015-.641.703 0 1.063.547 1.063 1.11 0 .609-.438 1.078-.656 1.328L.516-.266C.437-.203.437-.187.437 0h2.876zm0 0" stroke="none"/></symbol><symbol overflow="visible" id="k"><path d="M1.469-.11c0 .376-.063.829-.547 1.266-.016.032-.047.063-.047.094 0 .047.063.094.094.094.11 0 .703-.563.703-1.39 0-.423-.172-.75-.5-.75a.387.387 0 0 0-.39.39c0 .219.155.406.405.406.172 0 .282-.11.282-.11zm0 0" stroke="none"/></symbol></defs><use xlink:href="#h" x="224.901" y="132.246" width="1052.362" height="744.094"/><use xlink:href="#i" x="223.432" y="134.765" width="1052.362" height="744.094"/><use xlink:href="#j" x="229.839" y="136.259" width="1052.362" height="744.094"/><use xlink:href="#k" x="235.719" y="136.259" width="1052.362" height="744.094"/><use xlink:href="#l" x="238.086" y="136.259" width="1052.362" height="744.094"/></g><g transform="matrix(3.5208 0 0 3.5208 -447.345 245.705)" ns0:preamble="/home/waldgeist/data/sphinx/inkscape-preamble.tex" ns0:text="$\\vec{F}_{\\rm{N,1}}$" fill="#f60" stroke="#a00" stroke-width="1.489"><defs><symbol id="m" overflow="visible"><path d="M5.36-5.938c-.141.141-.47.422-.47.594 0 .094.094.203.188.203s.14-.078.203-.14c.11-.14.344-.422.782-.64.062-.048.171-.095.171-.204 0-.11-.078-.156-.14-.203a1.034 1.034 0 0 1-.407-.563c-.03-.093-.062-.234-.203-.234-.14 0-.203.14-.203.219 0 .047.078.36.235.578h-3.36c-.156 0-.344 0-.344.203 0 .188.188.188.344.188zm0 0" stroke="none"/></symbol><symbol id="n" overflow="visible"><path d="M3.016-3.234h.968c.75 0 .829.156.829.437 0 .078 0 .188-.063.5-.031.047-.031.078-.031.11 0 .078.062.109.11.109.109 0 .109-.031.155-.203l.547-2.172c.032-.11.032-.125.032-.156a.117.117 0 0 0-.125-.11c-.094 0-.11.047-.141.219-.219.766-.438.953-1.297.953h-.906l.64-2.531c.094-.36.11-.39.547-.39h1.313c1.218 0 1.453.327 1.453 1.093 0 .234 0 .266-.031.547C7-4.703 7-4.688 7-4.656c0 .047.031.125.125.125.11 0 .11-.063.125-.25l.203-1.735c.031-.265-.016-.265-.266-.265h-4.89c-.188 0-.297 0-.297.203 0 .11.094.11.281.11.375 0 .656 0 .656.171 0 .047 0 .063-.062.25L1.562-.78c-.093.39-.109.469-.906.469-.172 0-.281 0-.281.187C.375 0 .5 0 .531 0c.281 0 1.031-.031 1.313-.031C2.172-.031 3 0 3.328 0c.094 0 .203 0 .203-.188 0-.078-.047-.109-.047-.109-.03-.016-.062-.016-.28-.016-.22 0-.267 0-.517-.015-.296-.031-.328-.078-.328-.203 0-.016 0-.078.047-.219zm0 0" stroke="none"/></symbol><symbol id="o" overflow="visible"><path d="M1.813-4.656c-.079-.094-.079-.11-.22-.11H.392v.25h.203c.312 0 .484.047.515.047V-.75c0 .188 0 .5-.718.5V0c.28-.016.562-.031.843-.031.297 0 .579.015.86.031v-.25c-.719 0-.719-.313-.719-.5v-3.516L4.469-.109C4.53 0 4.547 0 4.625 0c.14 0 .14-.063.14-.188V-4c0-.188 0-.516.72-.516v-.25c-.298.032-.579.032-.86.032s-.563 0-.844-.032v.25c.719 0 .719.329.719.516v2.953zm0 0" stroke="none"/></symbol><symbol id="q" overflow="visible"><path d="M2.328-4.438c0-.187 0-.187-.203-.187-.453.438-1.078.438-1.36.438v.25c.157 0 .626 0 1-.188v3.547c0 .234 0 .328-.687.328H.812V0c.125 0 .985-.031 1.235-.031.219 0 1.094.031 1.25.031v-.25H3.03c-.703 0-.703-.094-.703-.328zm0 0" stroke="none"/></symbol><symbol id="p" overflow="visible"><path d="M1.469-.11c0 .376-.063.829-.547 1.266-.016.032-.047.063-.047.094 0 .047.063.094.094.094.11 0 .703-.563.703-1.39 0-.423-.172-.75-.5-.75a.387.387 0 0 0-.39.39c0 .219.155.406.405.406.172 0 .282-.11.282-.11zm0 0" stroke="none"/></symbol></defs><use y="132.246" x="224.901" xlink:href="#m" width="1052.362" height="744.094" transform="translate(1.704)"/><use y="134.765" x="223.432" xlink:href="#n" width="1052.362" height="744.094" transform="translate(1.704)"/><use y="136.259" x="229.839" xlink:href="#o" width="1052.362" height="744.094" transform="translate(1.704)"/><use y="136.259" x="235.719" xlink:href="#p" width="1052.362" height="744.094" transform="translate(1.704)"/><use y="136.259" x="238.086" xlink:href="#q" width="1052.362" height="744.094" transform="translate(1.704)"/></g><path d="M532.811 756.422l14.998 8.997" fill="none" stroke="gray" stroke-linecap="round"/><path d="M653.72 692.472l-128.207 47.955" fill="#f60" stroke="#f60" stroke-width="3" stroke-linecap="round" stroke-dasharray="3,9"/><g fill="#d40000" stroke="#d40000"><path transform="matrix(-.51034 .00588 .00836 .72616 151.805 -435.58)" d="M-707.107 1620.068l-5.249-9.091-5.249-9.092h20.996l-5.249 9.091z" stroke-width="4.928"/><path d="M525.712 646.799l.393 81.083" stroke-width="3" stroke-linecap="round"/></g></g></svg>