<?xml version="1.0" encoding="UTF-8" standalone="no"?>
<!-- Created with Inkscape (http://www.inkscape.org/) -->

<svg
   xmlns:ns0="http://www.iki.fi/pav/software/textext/"
   xmlns:dc="http://purl.org/dc/elements/1.1/"
   xmlns:cc="http://creativecommons.org/ns#"
   xmlns:rdf="http://www.w3.org/1999/02/22-rdf-syntax-ns#"
   xmlns:svg="http://www.w3.org/2000/svg"
   xmlns="http://www.w3.org/2000/svg"
   xmlns:xlink="http://www.w3.org/1999/xlink"
   xmlns:sodipodi="http://sodipodi.sourceforge.net/DTD/sodipodi-0.dtd"
   xmlns:inkscape="http://www.inkscape.org/namespaces/inkscape"
   sodipodi:docname="schiefe-ebene-schlittenfahren.svg"
   inkscape:version="0.48.4 r9939"
   version="1.1"
   id="svg2"
   height="744.09448"
   width="1052.3622">
  <sodipodi:namedview
     id="base"
     pagecolor="#ffffff"
     bordercolor="#666666"
     borderopacity="1.0"
     inkscape:pageopacity="0.0"
     inkscape:pageshadow="2"
     inkscape:zoom="0.71280261"
     inkscape:cx="514.2934"
     inkscape:cy="445.86044"
     inkscape:document-units="px"
     inkscape:current-layer="layer1"
     showgrid="false"
     inkscape:object-paths="true"
     inkscape:object-nodes="true"
     inkscape:snap-smooth-nodes="true"
     inkscape:snap-midpoints="true"
     inkscape:snap-object-midpoints="true"
     inkscape:snap-grids="false"
     showguides="true"
     inkscape:guide-bbox="true"
     inkscape:snap-global="false"
     inkscape:window-width="1600"
     inkscape:window-height="1150"
     inkscape:window-x="0"
     inkscape:window-y="0"
     inkscape:window-maximized="1">
    <inkscape:grid
       snapvisiblegridlinesonly="true"
       enabled="true"
       visible="true"
       empspacing="10"
       units="cm"
       id="grid2990"
       type="xygrid" />
    <sodipodi:guide
       id="guide3786"
       position="401.03101,1141.739"
       orientation="0,1" />
  </sodipodi:namedview>
  <title
     id="title5369">Schiefe Ebene -- Schlittenfahren</title>
  <defs
     id="defs4">
    <marker
       inkscape:stockid="Arrow2Send"
       orient="auto"
       refY="0.0"
       refX="0.0"
       id="Arrow2Send"
       style="overflow:visible;">
      <path
         id="path6142"
         style="fill-rule:evenodd;stroke-width:0.62500000;stroke-linejoin:round;"
         d="M 8.7185878,4.0337352 L -2.2072895,0.016013256 L 8.7185884,-4.0017078 C 6.9730900,-1.6296469 6.9831476,1.6157441 8.7185878,4.0337352 z "
         transform="scale(0.3) rotate(180) translate(-2.3,0)" />
    </marker>
    <marker
       inkscape:stockid="Arrow1Mstart"
       orient="auto"
       refY="0.0"
       refX="0.0"
       id="Arrow1Mstart"
       style="overflow:visible">
      <path
         id="path6115"
         d="M 0.0,0.0 L 5.0,-5.0 L -12.5,0.0 L 5.0,5.0 L 0.0,0.0 z "
         style="fill-rule:evenodd;stroke:#000000;stroke-width:1.0pt"
         transform="scale(0.4) translate(10,0)" />
    </marker>
    <marker
       inkscape:stockid="Arrow1Mend"
       orient="auto"
       refY="0.0"
       refX="0.0"
       id="Arrow1Mend"
       style="overflow:visible;">
      <path
         id="path6118"
         d="M 0.0,0.0 L 5.0,-5.0 L -12.5,0.0 L 5.0,5.0 L 0.0,0.0 z "
         style="fill-rule:evenodd;stroke:#000000;stroke-width:1.0pt;"
         transform="scale(0.4) rotate(180) translate(10,0)" />
    </marker>
  </defs>
  <metadata
     id="metadata7">
    <rdf:RDF>
      <cc:Work
         rdf:about="">
        <dc:format>image/svg+xml</dc:format>
        <dc:type
           rdf:resource="http://purl.org/dc/dcmitype/StillImage" />
        <dc:title>Schiefe Ebene -- Schlittenfahren</dc:title>
        <dc:date>2013-01-31</dc:date>
        <dc:creator>
          <cc:Agent>
            <dc:title>Bernhard Grotz</dc:title>
          </cc:Agent>
        </dc:creator>
        <dc:rights>
          <cc:Agent>
            <dc:title>Bernhard Grotz</dc:title>
          </cc:Agent>
        </dc:rights>
        <dc:publisher>
          <cc:Agent>
            <dc:title>Bernhard Grotz</dc:title>
          </cc:Agent>
        </dc:publisher>
        <dc:language>de_DE</dc:language>
        <dc:subject>
          <rdf:Bag>
            <rdf:li>Physik</rdf:li>
            <rdf:li>Mechanik</rdf:li>
            <rdf:li>Dynamik</rdf:li>
            <rdf:li>Kraftwandler</rdf:li>
            <rdf:li>Schiefe Ebene</rdf:li>
            <rdf:li>Hangabtriebskraft</rdf:li>
          </rdf:Bag>
        </dc:subject>
        <cc:license
           rdf:resource="http://creativecommons.org/licenses/by-nc-sa/3.0/" />
      </cc:Work>
      <cc:License
         rdf:about="http://creativecommons.org/licenses/by-nc-sa/3.0/">
        <cc:permits
           rdf:resource="http://creativecommons.org/ns#Reproduction" />
        <cc:permits
           rdf:resource="http://creativecommons.org/ns#Distribution" />
        <cc:requires
           rdf:resource="http://creativecommons.org/ns#Notice" />
        <cc:requires
           rdf:resource="http://creativecommons.org/ns#Attribution" />
        <cc:prohibits
           rdf:resource="http://creativecommons.org/ns#CommercialUse" />
        <cc:permits
           rdf:resource="http://creativecommons.org/ns#DerivativeWorks" />
        <cc:requires
           rdf:resource="http://creativecommons.org/ns#ShareAlike" />
      </cc:License>
    </rdf:RDF>
  </metadata>
  <g
     transform="translate(0,-308.2677)"
     id="layer1"
     inkscape:groupmode="layer"
     inkscape:label="Ebene 1">
    <rect
       inkscape:export-ydpi="150"
       inkscape:export-xdpi="150"
       inkscape:export-filename="/home/waldgeist/data/homepage/pics/physik/mechanik/kraftwandler-und-getriebe/schiefe-ebene-schlittenfahren.png"
       transform="scale(-1,1)"
       ry="0"
       rx="0"
       y="451.01031"
       x="-914.07971"
       height="458.60925"
       width="775.79718"
       id="rect5395"
       style="color:#000000;fill:#ffffff;fill-opacity:1;fill-rule:nonzero;stroke:#ffffff;stroke-width:10;stroke-linecap:round;stroke-linejoin:bevel;stroke-miterlimit:4;stroke-opacity:1;stroke-dasharray:none;stroke-dashoffset:0;marker:none;visibility:visible;display:inline;overflow:visible;enable-background:accumulate" />
    <path
       inkscape:export-ydpi="150"
       inkscape:export-xdpi="150"
       inkscape:export-filename="/home/waldgeist/data/homepage/pics/physik/mechanik/kraftwandler-und-getriebe/schiefe-ebene-schlittenfahren.png"
       sodipodi:nodetypes="cccc"
       inkscape:connector-curvature="0"
       id="path2992"
       d="m 824.6194,572.35291 10e-6,237.77451 -665.15628,0 z"
       style="fill:#afdde9;stroke:#164450;stroke-width:1px;stroke-linecap:butt;stroke-linejoin:miter;stroke-opacity:1" />
    <path
       inkscape:export-ydpi="150"
       inkscape:export-xdpi="150"
       inkscape:export-filename="/home/waldgeist/data/homepage/pics/physik/mechanik/kraftwandler-und-getriebe/schiefe-ebene-schlittenfahren.png"
       sodipodi:open="true"
       transform="matrix(-1.3249284,0.072197,-0.04934182,1.1758271,1085.7138,295.33452)"
       sodipodi:end="8.0110613"
       sodipodi:start="6.2831853"
       d="m 473.76155,243.23 c 0,30.12615 -24.42207,54.54823 -54.54823,54.54823 -2.85761,0 -5.7108,-0.22455 -8.53323,-0.67158"
       sodipodi:ry="54.548237"
       sodipodi:rx="54.548237"
       sodipodi:cy="243.23"
       sodipodi:cx="419.21332"
       id="path4714"
       style="color:#000000;fill:none;stroke:#502d16;stroke-width:4.81260681;stroke-linecap:round;marker:none;visibility:visible;display:inline;overflow:visible;enable-background:accumulate"
       sodipodi:type="arc" />
    <path
       inkscape:export-ydpi="150"
       inkscape:export-xdpi="150"
       inkscape:export-filename="/home/waldgeist/data/homepage/pics/physik/mechanik/kraftwandler-und-getriebe/schiefe-ebene-schlittenfahren.png"
       inkscape:connector-curvature="0"
       id="path4716"
       d="m 643.52394,571.23151 -192.5803,69.61932"
       style="fill:none;stroke:#502d16;stroke-width:6.00000048;stroke-linecap:round;stroke-linejoin:miter;stroke-opacity:1"
       sodipodi:nodetypes="cc" />
    <path
       inkscape:export-ydpi="150"
       inkscape:export-xdpi="150"
       inkscape:export-filename="/home/waldgeist/data/homepage/pics/physik/mechanik/kraftwandler-und-getriebe/schiefe-ebene-schlittenfahren.png"
       style="fill:none;stroke:#502d16;stroke-width:6.00000048;stroke-linecap:round;stroke-linejoin:miter;stroke-opacity:1"
       d="m 661.86958,625.54951 -134.9373,48.78092"
       id="path4718"
       inkscape:connector-curvature="0"
       sodipodi:nodetypes="cc" />
    <path
       inkscape:export-ydpi="150"
       inkscape:export-xdpi="150"
       inkscape:export-filename="/home/waldgeist/data/homepage/pics/physik/mechanik/kraftwandler-und-getriebe/schiefe-ebene-schlittenfahren.png"
       sodipodi:nodetypes="cc"
       style="fill:none;stroke:#502d16;stroke-width:6.00000048;stroke-linecap:round;stroke-linejoin:miter;stroke-opacity:1"
       d="m 614.21256,581.8278 19.00709,52.63768"
       id="path4720"
       inkscape:connector-curvature="0" />
    <path
       inkscape:export-ydpi="150"
       inkscape:export-xdpi="150"
       inkscape:export-filename="/home/waldgeist/data/homepage/pics/physik/mechanik/kraftwandler-und-getriebe/schiefe-ebene-schlittenfahren.png"
       inkscape:connector-curvature="0"
       id="path4722"
       d="m 507.46487,620.41794 19.46741,53.91249"
       style="fill:none;stroke:#502d16;stroke-width:6.00000048;stroke-linecap:round;stroke-linejoin:miter;stroke-opacity:1"
       sodipodi:nodetypes="cc" />
    <g
       inkscape:export-ydpi="150"
       inkscape:export-xdpi="150"
       inkscape:export-filename="/home/waldgeist/data/homepage/pics/physik/mechanik/kraftwandler-und-getriebe/schiefe-ebene-schlittenfahren.png"
       transform="matrix(-0.99593438,-0.09008187,-0.09008187,0.99593438,968.75082,488.91305)"
       id="g4747">
      <rect
         inkscape:transform-center-x="-13.568343"
         inkscape:transform-center-y="23.496056"
         ry="10.63647"
         y="385.48022"
         x="-315.13818"
         height="21.27294"
         width="82.527473"
         id="rect4724"
         style="fill:#000000;fill-opacity:1;fill-rule:nonzero;stroke:#000000;stroke-width:0.64443767;stroke-linecap:round;stroke-linejoin:round;stroke-miterlimit:4;stroke-opacity:1;stroke-dasharray:none;stroke-dashoffset:0"
         transform="matrix(-0.18266417,-0.98317537,0.98335051,-0.18171893,0,0)"
         rx="13.235891" />
      <rect
         inkscape:transform-center-y="-34.5906"
         inkscape:transform-center-x="11.819506"
         style="fill:#000000;fill-opacity:1;fill-rule:nonzero;stroke:#000000;stroke-width:6.00000048;stroke-linecap:round;stroke-linejoin:round;stroke-miterlimit:4;stroke-opacity:1;stroke-dasharray:none;stroke-dashoffset:0"
         id="rect4726"
         width="29.465017"
         height="88.38295"
         x="358.74936"
         y="82.913147"
         ry="14.730492"
         transform="matrix(0.99603735,-0.08893596,0.08909798,0.99602287,0,0)" />
      <rect
         style="fill:#000000;fill-opacity:1;fill-rule:nonzero;stroke:#000000;stroke-width:6;stroke-linecap:round;stroke-linejoin:round;stroke-miterlimit:4;stroke-opacity:1;stroke-dasharray:none;stroke-dashoffset:0"
         id="rect4728"
         width="75.495934"
         height="20.064842"
         x="379.65274"
         y="-122.13078"
         ry="10.032421"
         transform="matrix(0.82063848,0.57144771,-0.57153493,0.82057774,0,0)" />
      <path
         sodipodi:type="arc"
         style="fill:#000000;stroke:#000000;stroke-width:0.89036864;stroke-linecap:round;stroke-linejoin:round;stroke-miterlimit:4;stroke-opacity:1;stroke-dasharray:none;stroke-dashoffset:0"
         id="path4730"
         sodipodi:cx="219.20311"
         sodipodi:cy="156.86195"
         sodipodi:rx="6.0609155"
         sodipodi:ry="6.0609155"
         d="m 225.26403,156.86195 c 0,3.34735 -2.71357,6.06092 -6.06092,6.06092 -3.34735,0 -6.06092,-2.71357 -6.06092,-6.06092 0,-3.34735 2.71357,-6.06091 6.06092,-6.06091 3.34735,0 6.06092,2.71356 6.06092,6.06091 z"
         transform="matrix(2.6894327,-0.49126085,0.49170652,2.6890597,-280.46148,-285.04049)" />
      <path
         inkscape:connector-curvature="0"
         id="path4732"
         d="m 379.38929,49.367422 a 8.0008001,8.0008001 0 0 0 -6.01232,0.208378 l -42.20084,17.985328 a 8.0008001,8.0008001 0 1 0 6.27234,14.71744 L 379.6493,64.29324 a 8.0008001,8.0008001 0 0 0 -0.26001,-14.925818 z"
         style="font-size:medium;font-style:normal;font-variant:normal;font-weight:normal;font-stretch:normal;text-indent:0;text-align:start;text-decoration:none;line-height:normal;letter-spacing:normal;word-spacing:normal;text-transform:none;direction:ltr;block-progression:tb;writing-mode:lr-tb;text-anchor:start;baseline-shift:baseline;color:#000000;fill:#000000;fill-opacity:1;fill-rule:nonzero;stroke:#ffffff;stroke-width:0.1;marker:none;visibility:visible;display:inline;overflow:visible;enable-background:accumulate;font-family:Sans;-inkscape-font-specification:Sans" />
      <path
         inkscape:connector-curvature="0"
         id="path4734"
         d="m 335.35874,68.700205 a 7.0007001,7.0007001 0 0 0 -9.27702,7.652827 l 6.36282,44.632048 a 7.0007001,7.0007001 0 1 0 13.86154,-1.96825 l -6.36284,-44.632047 a 7.0007001,7.0007001 0 0 0 -4.5845,-5.684578 z"
         style="font-size:medium;font-style:normal;font-variant:normal;font-weight:normal;font-stretch:normal;text-indent:0;text-align:start;text-decoration:none;line-height:normal;letter-spacing:normal;word-spacing:normal;text-transform:none;direction:ltr;block-progression:tb;writing-mode:lr-tb;text-anchor:start;baseline-shift:baseline;color:#000000;fill:#000000;fill-opacity:1;fill-rule:nonzero;stroke:#000000;stroke-width:0.1;marker:none;visibility:visible;display:inline;overflow:visible;enable-background:accumulate;font-family:Sans;-inkscape-font-specification:Sans" />
    </g>
    <g
       inkscape:export-ydpi="150"
       inkscape:export-xdpi="150"
       inkscape:export-filename="/home/waldgeist/data/homepage/pics/physik/mechanik/kraftwandler-und-getriebe/schiefe-ebene-schlittenfahren.png"
       inkscape:transform-center-x="27.585759"
       inkscape:transform-center-y="75.944402"
       transform="matrix(0.45675022,1.2722211,0.91013748,-0.3267557,236.11584,98.403564)"
       id="g5355">
      <path
         inkscape:connector-curvature="0"
         id="path5357"
         d="m 431.18232,156.14605 113.19836,0"
         style="fill:#ff6600;stroke:#ff6600;stroke-width:8.74658775;stroke-linecap:round;stroke-linejoin:miter;stroke-miterlimit:4;stroke-opacity:1;stroke-dasharray:none"
         sodipodi:nodetypes="cc" />
      <path
         sodipodi:type="star"
         style="fill:#d40000;stroke:#ff6600;stroke-width:25.62750435;stroke-miterlimit:4;stroke-dasharray:none"
         id="path5359"
         sodipodi:sides="3"
         sodipodi:cx="-707.10675"
         sodipodi:cy="1607.946"
         sodipodi:r1="12.121831"
         sodipodi:r2="6.060915"
         sodipodi:arg1="1.5707963"
         sodipodi:arg2="2.6179939"
         inkscape:flatsided="false"
         inkscape:rounded="0"
         inkscape:randomized="0"
         d="m -707.10675,1620.0679 -5.24891,-9.0914 -5.2489,-9.0914 10.49781,0 10.49781,0 -5.2489,9.0914 z"
         inkscape:transform-center-y="-0.00017641075"
         transform="matrix(1.645499e-5,-0.5103719,0.5103719,1.645499e-5,-276.25816,-204.76782)"
         inkscape:transform-center-x="-3.0302635" />
    </g>
    <g
       inkscape:export-ydpi="150"
       inkscape:export-xdpi="150"
       inkscape:export-filename="/home/waldgeist/data/homepage/pics/physik/mechanik/kraftwandler-und-getriebe/schiefe-ebene-schlittenfahren.png"
       style="fill:#ff6600;stroke:#ff6600"
       id="g5361"
       transform="matrix(-0.33841342,0.12753894,0.09124038,0.2420985,705.32762,502.85129)"
       inkscape:transform-center-y="7.6722389"
       inkscape:transform-center-x="-20.203002">
      <path
         sodipodi:nodetypes="cc"
         style="fill:#ff6600;stroke:#ff6600;stroke-width:32.69194794;stroke-linecap:round;stroke-linejoin:miter;stroke-miterlimit:4;stroke-opacity:1;stroke-dasharray:none"
         d="m 431.18232,156.14605 113.19836,0"
         id="path5363"
         inkscape:connector-curvature="0" />
      <path
         inkscape:transform-center-x="-3.0302635"
         transform="matrix(1.645499e-5,-0.5103719,0.5103719,1.645499e-5,-276.25816,-204.76782)"
         inkscape:transform-center-y="-0.00017641075"
         d="m -707.10675,1620.0679 -5.24891,-9.0914 -5.2489,-9.0914 10.49781,0 10.49781,0 -5.2489,9.0914 z"
         inkscape:randomized="0"
         inkscape:rounded="0"
         inkscape:flatsided="false"
         sodipodi:arg2="2.6179939"
         sodipodi:arg1="1.5707963"
         sodipodi:r2="6.060915"
         sodipodi:r1="12.121831"
         sodipodi:cy="1607.946"
         sodipodi:cx="-707.10675"
         sodipodi:sides="3"
         id="path5365"
         style="fill:#ff6600;stroke:#ff6600;stroke-width:95.78738403;stroke-miterlimit:4;stroke-dasharray:none"
         sodipodi:type="star" />
    </g>
    <g
       inkscape:export-ydpi="150"
       inkscape:export-xdpi="150"
       inkscape:export-filename="/home/waldgeist/data/homepage/pics/physik/mechanik/kraftwandler-und-getriebe/schiefe-ebene-schlittenfahren.png"
       id="g5331"
       transform="matrix(0.01634032,1.422801,0.99993405,-0.01148385,411.01601,-13.133976)">
      <path
         sodipodi:nodetypes="cc"
         style="fill:#d40000;stroke:#d40000;stroke-width:12.52856255;stroke-linecap:round;stroke-linejoin:miter;stroke-miterlimit:4;stroke-opacity:1;stroke-dasharray:none"
         d="m 431.18232,156.14605 113.19836,0"
         id="path5333"
         inkscape:connector-curvature="0" />
      <path
         inkscape:transform-center-x="-3.0302635"
         transform="matrix(1.645499e-5,-0.5103719,0.5103719,1.645499e-5,-276.25816,-204.76782)"
         inkscape:transform-center-y="-0.00017641075"
         d="m -707.10675,1620.0679 -5.24891,-9.0914 -5.2489,-9.0914 10.49781,0 10.49781,0 -5.2489,9.0914 z"
         inkscape:randomized="0"
         inkscape:rounded="0"
         inkscape:flatsided="false"
         sodipodi:arg2="2.6179939"
         sodipodi:arg1="1.5707963"
         sodipodi:r2="6.060915"
         sodipodi:r1="12.121831"
         sodipodi:cy="1607.946"
         sodipodi:cx="-707.10675"
         sodipodi:sides="3"
         id="path5335"
         style="fill:#d40000;stroke:#d40000;stroke-width:24.56299019;stroke-miterlimit:4;stroke-dasharray:none"
         sodipodi:type="star" />
    </g>
    <g
       inkscape:export-ydpi="150"
       inkscape:export-xdpi="150"
       inkscape:export-filename="/home/waldgeist/data/homepage/pics/physik/mechanik/kraftwandler-und-getriebe/schiefe-ebene-schlittenfahren.png"
       id="g5460"
       ns0:preamble="/home/waldgeist/data/sphinx/inkscape-preamble.tex"
       ns0:text="$\\vec{F}_{\\rm{G}}$"
       transform="matrix(5.2431716,0,0,5.2431716,-679.4227,60.730898)"
       style="fill:#d40000;stroke:#aa0000">
      <defs
         id="defs5462">
        <g
           id="g5464">
          <symbol
             id="textext-580004a0-0"
             overflow="visible"
             style="overflow:visible">
            <path
               id="path5467"
               d="m 5.359375,-5.9375 c -0.140625,0.140625 -0.46875,0.421875 -0.46875,0.59375 0,0.09375 0.09375,0.203125 0.1875,0.203125 0.09375,0 0.140625,-0.078125 0.203125,-0.140625 C 5.390625,-5.421875 5.625,-5.703125 6.0625,-5.921875 6.125,-5.96875 6.234375,-6.015625 6.234375,-6.125 6.234375,-6.234375 6.15625,-6.28125 6.09375,-6.328125 5.875,-6.484375 5.765625,-6.65625 5.6875,-6.890625 5.65625,-6.984375 5.625,-7.125 5.484375,-7.125 c -0.140625,0 -0.203125,0.140625 -0.203125,0.21875 0,0.046875 0.078125,0.359375 0.234375,0.578125 l -3.359375,0 c -0.15625,0 -0.34375,0 -0.34375,0.203125 0,0.1875 0.1875,0.1875 0.34375,0.1875 z m 0,0"
               style="stroke:none"
               inkscape:connector-curvature="0" />
          </symbol>
          <symbol
             id="textext-580004a0-1"
             overflow="visible"
             style="overflow:visible">
            <path
               id="path5470"
               d="m 3.015625,-3.234375 0.96875,0 c 0.75,0 0.828125,0.15625 0.828125,0.4375 0,0.078125 0,0.1875 -0.0625,0.5 C 4.71875,-2.25 4.71875,-2.21875 4.71875,-2.1875 c 0,0.078125 0.0625,0.109375 0.109375,0.109375 0.109375,0 0.109375,-0.03125 0.15625,-0.203125 L 5.53125,-4.453125 C 5.5625,-4.5625 5.5625,-4.578125 5.5625,-4.609375 5.5625,-4.625 5.546875,-4.71875 5.4375,-4.71875 5.34375,-4.71875 5.328125,-4.671875 5.296875,-4.5 5.078125,-3.734375 4.859375,-3.546875 4,-3.546875 l -0.90625,0 0.640625,-2.53125 C 3.828125,-6.4375 3.84375,-6.46875 4.28125,-6.46875 l 1.3125,0 c 1.21875,0 1.453125,0.328125 1.453125,1.09375 0,0.234375 0,0.265625 -0.03125,0.546875 C 7,-4.703125 7,-4.6875 7,-4.65625 c 0,0.046875 0.03125,0.125 0.125,0.125 0.109375,0 0.109375,-0.0625 0.125,-0.25 L 7.453125,-6.515625 C 7.484375,-6.78125 7.4375,-6.78125 7.1875,-6.78125 l -4.890625,0 c -0.1875,0 -0.296875,0 -0.296875,0.203125 0,0.109375 0.09375,0.109375 0.28125,0.109375 0.375,0 0.65625,0 0.65625,0.171875 0,0.046875 0,0.0625 -0.0625,0.25 L 1.5625,-0.78125 c -0.09375,0.390625 -0.109375,0.46875 -0.90625,0.46875 -0.171875,0 -0.28125,0 -0.28125,0.1875 C 0.375,0 0.5,0 0.53125,0 0.8125,0 1.5625,-0.03125 1.84375,-0.03125 2.171875,-0.03125 3,0 3.328125,0 3.421875,0 3.53125,0 3.53125,-0.1875 3.53125,-0.265625 3.484375,-0.296875 3.484375,-0.296875 3.453125,-0.3125 3.421875,-0.3125 3.203125,-0.3125 c -0.21875,0 -0.265625,0 -0.515625,-0.015625 -0.296875,-0.03125 -0.328125,-0.078125 -0.328125,-0.203125 0,-0.015625 0,-0.078125 0.046875,-0.21875 z m 0,0"
               style="stroke:none"
               inkscape:connector-curvature="0" />
          </symbol>
          <symbol
             id="textext-580004a0-2"
             overflow="visible"
             style="overflow:visible">
            <path
               id="path5473"
               d="m 5.1875,-1.359375 c 0,-0.3125 0.078125,-0.3125 0.546875,-0.3125 l 0,-0.25 c -0.0625,0 -0.5625,0.03125 -0.90625,0.03125 -0.375,0 -0.890625,0 -1.265625,-0.03125 l 0,0.25 0.265625,0 c 0.703125,0 0.703125,0.09375 0.703125,0.3125 l 0,0.453125 c 0,0.15625 0,0.421875 -0.40625,0.625 -0.328125,0.171875 -0.71875,0.171875 -0.8125,0.171875 -0.796875,0 -2.078125,-0.453125 -2.078125,-2.28125 0,-1.84375 1.328125,-2.25 2.015625,-2.25 0.671875,0 1.515625,0.453125 1.6875,1.65625 0.015625,0.078125 0.078125,0.078125 0.125,0.078125 0.125,0 0.125,-0.046875 0.125,-0.1875 l 0,-1.625 c 0,-0.125 0,-0.1875 -0.09375,-0.1875 -0.03125,0 -0.0625,0 -0.125,0.09375 l -0.359375,0.53125 c -0.34375,-0.359375 -0.84375,-0.625 -1.453125,-0.625 -1.453125,0 -2.671875,1.125 -2.671875,2.515625 0,1.390625 1.1875,2.53125 2.6875,2.53125 0.390625,0 1.15625,-0.078125 1.484375,-0.5625 C 4.78125,-0.234375 5.03125,0 5.109375,0 5.1875,0 5.1875,-0.078125 5.1875,-0.1875 z m 0,0"
               style="stroke:none"
               inkscape:connector-curvature="0" />
          </symbol>
        </g>
      </defs>
      <g
         id="textext-580004a0-3"
         style="fill:#d40000;stroke:#aa0000">
        <g
           id="g5476"
           style="fill:#d40000;fill-opacity:1;stroke:#aa0000">
          <use
             id="use5478"
             y="132.246"
             x="224.901"
             xlink:href="#textext-580004a0-0"
             width="1052.3622"
             height="744.09448"
             style="fill:#d40000;stroke:#aa0000" />
        </g>
        <g
           id="g5480"
           style="fill:#d40000;fill-opacity:1;stroke:#aa0000">
          <use
             id="use5482"
             y="134.765"
             x="223.43201"
             xlink:href="#textext-580004a0-1"
             width="1052.3622"
             height="744.09448"
             style="fill:#d40000;stroke:#aa0000" />
        </g>
        <g
           id="g5484"
           style="fill:#d40000;fill-opacity:1;stroke:#aa0000">
          <use
             id="use5486"
             y="136.259"
             x="229.839"
             xlink:href="#textext-580004a0-2"
             width="1052.3622"
             height="744.09448"
             style="fill:#d40000;stroke:#aa0000" />
        </g>
      </g>
    </g>
    <g
       inkscape:export-ydpi="150"
       inkscape:export-xdpi="150"
       inkscape:export-filename="/home/waldgeist/data/homepage/pics/physik/mechanik/kraftwandler-und-getriebe/schiefe-ebene-schlittenfahren.png"
       ns0:text="$\\vec{F}_{\\rm{N}}$"
       ns0:preamble="/home/waldgeist/data/sphinx/inkscape-preamble.tex"
       transform="matrix(5.2431716,0,0,5.2431716,-529.0941,43.982161)"
       style="fill:#ff6600;stroke:#aa0000"
       id="g5624">
      <defs
         id="defs5626">
        <g
           id="g5628">
          <symbol
             style="overflow:visible"
             overflow="visible"
             id="textext-cc505b98-0">
            <path
               inkscape:connector-curvature="0"
               style="stroke:none"
               d="m 5.359375,-5.9375 c -0.140625,0.140625 -0.46875,0.421875 -0.46875,0.59375 0,0.09375 0.09375,0.203125 0.1875,0.203125 0.09375,0 0.140625,-0.078125 0.203125,-0.140625 C 5.390625,-5.421875 5.625,-5.703125 6.0625,-5.921875 6.125,-5.96875 6.234375,-6.015625 6.234375,-6.125 6.234375,-6.234375 6.15625,-6.28125 6.09375,-6.328125 5.875,-6.484375 5.765625,-6.65625 5.6875,-6.890625 5.65625,-6.984375 5.625,-7.125 5.484375,-7.125 c -0.140625,0 -0.203125,0.140625 -0.203125,0.21875 0,0.046875 0.078125,0.359375 0.234375,0.578125 l -3.359375,0 c -0.15625,0 -0.34375,0 -0.34375,0.203125 0,0.1875 0.1875,0.1875 0.34375,0.1875 z m 0,0"
               id="path5631" />
          </symbol>
          <symbol
             style="overflow:visible"
             overflow="visible"
             id="textext-cc505b98-1">
            <path
               inkscape:connector-curvature="0"
               style="stroke:none"
               d="m 3.015625,-3.234375 0.96875,0 c 0.75,0 0.828125,0.15625 0.828125,0.4375 0,0.078125 0,0.1875 -0.0625,0.5 C 4.71875,-2.25 4.71875,-2.21875 4.71875,-2.1875 c 0,0.078125 0.0625,0.109375 0.109375,0.109375 0.109375,0 0.109375,-0.03125 0.15625,-0.203125 L 5.53125,-4.453125 C 5.5625,-4.5625 5.5625,-4.578125 5.5625,-4.609375 5.5625,-4.625 5.546875,-4.71875 5.4375,-4.71875 5.34375,-4.71875 5.328125,-4.671875 5.296875,-4.5 5.078125,-3.734375 4.859375,-3.546875 4,-3.546875 l -0.90625,0 0.640625,-2.53125 C 3.828125,-6.4375 3.84375,-6.46875 4.28125,-6.46875 l 1.3125,0 c 1.21875,0 1.453125,0.328125 1.453125,1.09375 0,0.234375 0,0.265625 -0.03125,0.546875 C 7,-4.703125 7,-4.6875 7,-4.65625 c 0,0.046875 0.03125,0.125 0.125,0.125 0.109375,0 0.109375,-0.0625 0.125,-0.25 L 7.453125,-6.515625 C 7.484375,-6.78125 7.4375,-6.78125 7.1875,-6.78125 l -4.890625,0 c -0.1875,0 -0.296875,0 -0.296875,0.203125 0,0.109375 0.09375,0.109375 0.28125,0.109375 0.375,0 0.65625,0 0.65625,0.171875 0,0.046875 0,0.0625 -0.0625,0.25 L 1.5625,-0.78125 c -0.09375,0.390625 -0.109375,0.46875 -0.90625,0.46875 -0.171875,0 -0.28125,0 -0.28125,0.1875 C 0.375,0 0.5,0 0.53125,0 0.8125,0 1.5625,-0.03125 1.84375,-0.03125 2.171875,-0.03125 3,0 3.328125,0 3.421875,0 3.53125,0 3.53125,-0.1875 3.53125,-0.265625 3.484375,-0.296875 3.484375,-0.296875 3.453125,-0.3125 3.421875,-0.3125 3.203125,-0.3125 c -0.21875,0 -0.265625,0 -0.515625,-0.015625 -0.296875,-0.03125 -0.328125,-0.078125 -0.328125,-0.203125 0,-0.015625 0,-0.078125 0.046875,-0.21875 z m 0,0"
               id="path5634" />
          </symbol>
          <symbol
             style="overflow:visible"
             overflow="visible"
             id="textext-cc505b98-2">
            <path
               inkscape:connector-curvature="0"
               style="stroke:none"
               d="M 1.8125,-4.65625 C 1.734375,-4.75 1.734375,-4.765625 1.59375,-4.765625 l -1.203125,0 0,0.25 0.203125,0 c 0.3125,0 0.484375,0.046875 0.515625,0.046875 l 0,3.71875 c 0,0.1875 0,0.5 -0.71875,0.5 l 0,0.25 c 0.28125,-0.015625 0.5625,-0.03125 0.84375,-0.03125 0.296875,0 0.578125,0.015625 0.859375,0.03125 l 0,-0.25 C 1.375,-0.25 1.375,-0.5625 1.375,-0.75 l 0,-3.515625 3.09375,4.15625 C 4.53125,0 4.546875,0 4.625,0 4.765625,0 4.765625,-0.0625 4.765625,-0.1875 l 0,-3.8125 c 0,-0.1875 0,-0.515625 0.71875,-0.515625 l 0,-0.25 C 5.1875,-4.734375 4.90625,-4.734375 4.625,-4.734375 c -0.28125,0 -0.5625,0 -0.84375,-0.03125 l 0,0.25 C 4.5,-4.515625 4.5,-4.1875 4.5,-4 l 0,2.953125 z m 0,0"
               id="path5637" />
          </symbol>
        </g>
      </defs>
      <g
         style="fill:#ff6600"
         id="textext-cc505b98-3">
        <g
           style="fill:#ff6600;fill-opacity:1"
           id="g5640">
          <use
             height="744.09448"
             width="1052.3622"
             style="fill:#ff6600"
             xlink:href="#textext-cc505b98-0"
             x="224.901"
             y="132.246"
             id="use5642" />
        </g>
        <g
           style="fill:#ff6600;fill-opacity:1"
           id="g5644">
          <use
             height="744.09448"
             width="1052.3622"
             style="fill:#ff6600"
             xlink:href="#textext-cc505b98-1"
             x="223.43201"
             y="134.765"
             id="use5646" />
        </g>
        <g
           style="fill:#ff6600;fill-opacity:1"
           id="g5648">
          <use
             height="744.09448"
             width="1052.3622"
             style="fill:#ff6600"
             xlink:href="#textext-cc505b98-2"
             x="229.839"
             y="136.259"
             id="use5650" />
        </g>
      </g>
    </g>
    <g
       inkscape:export-ydpi="150"
       inkscape:export-xdpi="150"
       inkscape:export-filename="/home/waldgeist/data/homepage/pics/physik/mechanik/kraftwandler-und-getriebe/schiefe-ebene-schlittenfahren.png"
       id="g5820"
       style="fill:#ff6600;stroke:#aa0000"
       transform="matrix(5.2431716,0,0,5.2431716,-746.20618,-112.48996)"
       ns0:preamble="/home/waldgeist/data/sphinx/inkscape-preamble.tex"
       ns0:text="$\\vec{F}_{\\rm{HA}}$">
      <defs
         id="defs5822">
        <g
           id="g5824">
          <symbol
             id="textext-02febc12-0"
             overflow="visible"
             style="overflow:visible">
            <path
               id="path5827"
               d="m 5.359375,-5.9375 c -0.140625,0.140625 -0.46875,0.421875 -0.46875,0.59375 0,0.09375 0.09375,0.203125 0.1875,0.203125 0.09375,0 0.140625,-0.078125 0.203125,-0.140625 C 5.390625,-5.421875 5.625,-5.703125 6.0625,-5.921875 6.125,-5.96875 6.234375,-6.015625 6.234375,-6.125 6.234375,-6.234375 6.15625,-6.28125 6.09375,-6.328125 5.875,-6.484375 5.765625,-6.65625 5.6875,-6.890625 5.65625,-6.984375 5.625,-7.125 5.484375,-7.125 c -0.140625,0 -0.203125,0.140625 -0.203125,0.21875 0,0.046875 0.078125,0.359375 0.234375,0.578125 l -3.359375,0 c -0.15625,0 -0.34375,0 -0.34375,0.203125 0,0.1875 0.1875,0.1875 0.34375,0.1875 z m 0,0"
               style="stroke:none"
               inkscape:connector-curvature="0" />
          </symbol>
          <symbol
             id="textext-02febc12-1"
             overflow="visible"
             style="overflow:visible">
            <path
               id="path5830"
               d="m 3.015625,-3.234375 0.96875,0 c 0.75,0 0.828125,0.15625 0.828125,0.4375 0,0.078125 0,0.1875 -0.0625,0.5 C 4.71875,-2.25 4.71875,-2.21875 4.71875,-2.1875 c 0,0.078125 0.0625,0.109375 0.109375,0.109375 0.109375,0 0.109375,-0.03125 0.15625,-0.203125 L 5.53125,-4.453125 C 5.5625,-4.5625 5.5625,-4.578125 5.5625,-4.609375 5.5625,-4.625 5.546875,-4.71875 5.4375,-4.71875 5.34375,-4.71875 5.328125,-4.671875 5.296875,-4.5 5.078125,-3.734375 4.859375,-3.546875 4,-3.546875 l -0.90625,0 0.640625,-2.53125 C 3.828125,-6.4375 3.84375,-6.46875 4.28125,-6.46875 l 1.3125,0 c 1.21875,0 1.453125,0.328125 1.453125,1.09375 0,0.234375 0,0.265625 -0.03125,0.546875 C 7,-4.703125 7,-4.6875 7,-4.65625 c 0,0.046875 0.03125,0.125 0.125,0.125 0.109375,0 0.109375,-0.0625 0.125,-0.25 L 7.453125,-6.515625 C 7.484375,-6.78125 7.4375,-6.78125 7.1875,-6.78125 l -4.890625,0 c -0.1875,0 -0.296875,0 -0.296875,0.203125 0,0.109375 0.09375,0.109375 0.28125,0.109375 0.375,0 0.65625,0 0.65625,0.171875 0,0.046875 0,0.0625 -0.0625,0.25 L 1.5625,-0.78125 c -0.09375,0.390625 -0.109375,0.46875 -0.90625,0.46875 -0.171875,0 -0.28125,0 -0.28125,0.1875 C 0.375,0 0.5,0 0.53125,0 0.8125,0 1.5625,-0.03125 1.84375,-0.03125 2.171875,-0.03125 3,0 3.328125,0 3.421875,0 3.53125,0 3.53125,-0.1875 3.53125,-0.265625 3.484375,-0.296875 3.484375,-0.296875 3.453125,-0.3125 3.421875,-0.3125 3.203125,-0.3125 c -0.21875,0 -0.265625,0 -0.515625,-0.015625 -0.296875,-0.03125 -0.328125,-0.078125 -0.328125,-0.203125 0,-0.015625 0,-0.078125 0.046875,-0.21875 z m 0,0"
               style="stroke:none"
               inkscape:connector-curvature="0" />
          </symbol>
          <symbol
             id="textext-02febc12-2"
             overflow="visible"
             style="overflow:visible">
            <path
               id="path5833"
               d="m 4.765625,-4.1875 c 0,-0.25 0.015625,-0.328125 0.546875,-0.328125 l 0.171875,0 0,-0.25 C 5.125,-4.75 4.6875,-4.734375 4.4375,-4.734375 4.171875,-4.734375 3.734375,-4.75 3.375,-4.765625 l 0,0.25 0.171875,0 c 0.53125,0 0.546875,0.078125 0.546875,0.328125 l 0,1.59375 -2.328125,0 0,-1.59375 c 0,-0.25 0.015625,-0.328125 0.5625,-0.328125 l 0.15625,0 0,-0.25 C 2.140625,-4.75 1.6875,-4.734375 1.4375,-4.734375 c -0.25,0 -0.703125,-0.015625 -1.046875,-0.03125 l 0,0.25 0.171875,0 c 0.53125,0 0.546875,0.078125 0.546875,0.328125 l 0,3.625 c 0,0.234375 -0.015625,0.3125 -0.546875,0.3125 l -0.171875,0 0,0.25 C 0.734375,-0.015625 1.1875,-0.03125 1.4375,-0.03125 c 0.25,0 0.703125,0.015625 1.046875,0.03125 l 0,-0.25 -0.15625,0 c -0.546875,0 -0.5625,-0.078125 -0.5625,-0.3125 l 0,-1.78125 2.328125,0 0,1.78125 c 0,0.234375 -0.015625,0.3125 -0.546875,0.3125 l -0.171875,0 0,0.25 C 3.734375,-0.015625 4.171875,-0.03125 4.421875,-0.03125 4.6875,-0.03125 5.125,-0.015625 5.484375,0 l 0,-0.25 -0.171875,0 c -0.53125,0 -0.546875,-0.078125 -0.546875,-0.3125 z m 0,0"
               style="stroke:none"
               inkscape:connector-curvature="0" />
          </symbol>
          <symbol
             id="textext-02febc12-3"
             overflow="visible"
             style="overflow:visible">
            <path
               id="path5836"
               d="M 3.125,-4.8125 C 3.09375,-4.921875 3.0625,-4.96875 2.9375,-4.96875 c -0.140625,0 -0.15625,0.046875 -0.203125,0.15625 L 1.125,-0.734375 C 1.0625,-0.5625 0.9375,-0.25 0.3125,-0.25 l 0,0.25 C 0.546875,-0.015625 0.796875,-0.03125 1.03125,-0.03125 1.3125,-0.03125 1.828125,0 1.875,0 l 0,-0.25 c -0.3125,0 -0.515625,-0.140625 -0.515625,-0.328125 0,-0.0625 0.015625,-0.078125 0.046875,-0.140625 l 0.328125,-0.859375 1.984375,0 L 4.125,-0.5625 c 0,0.03125 0.03125,0.078125 0.03125,0.109375 0,0.203125 -0.375,0.203125 -0.5625,0.203125 l 0,0.25 C 3.9375,-0.015625 4.390625,-0.03125 4.625,-0.03125 4.953125,-0.03125 5.484375,0 5.546875,0 l 0,-0.25 -0.125,0 c -0.46875,0 -0.515625,-0.078125 -0.59375,-0.265625 z m -0.40625,0.71875 0.890625,2.265625 -1.78125,0 z m 0,0"
               style="stroke:none"
               inkscape:connector-curvature="0" />
          </symbol>
        </g>
      </defs>
      <g
         id="textext-02febc12-4"
         style="fill:#ff6600">
        <g
           id="g5839"
           style="fill:#ff6600;fill-opacity:1">
          <use
             id="use5841"
             y="132.246"
             x="224.901"
             xlink:href="#textext-02febc12-0"
             style="fill:#ff6600"
             width="1052.3622"
             height="744.09448" />
        </g>
        <g
           id="g5843"
           style="fill:#ff6600;fill-opacity:1">
          <use
             id="use5845"
             y="134.765"
             x="223.43201"
             xlink:href="#textext-02febc12-1"
             style="fill:#ff6600"
             width="1052.3622"
             height="744.09448" />
        </g>
        <g
           id="g5847"
           style="fill:#ff6600;fill-opacity:1">
          <use
             id="use5849"
             y="136.259"
             x="229.839"
             xlink:href="#textext-02febc12-2"
             style="fill:#ff6600"
             width="1052.3622"
             height="744.09448" />
          <use
             id="use5851"
             y="136.259"
             x="235.72"
             xlink:href="#textext-02febc12-3"
             style="fill:#ff6600"
             width="1052.3622"
             height="744.09448" />
        </g>
      </g>
    </g>
    <path
       inkscape:export-ydpi="150"
       inkscape:export-xdpi="150"
       inkscape:export-filename="/home/waldgeist/data/homepage/pics/physik/mechanik/kraftwandler-und-getriebe/schiefe-ebene-schlittenfahren.png"
       style="fill:none;stroke:#000000;stroke-width:2;stroke-linecap:butt;stroke-linejoin:miter;stroke-opacity:1;marker-start:url(#Arrow1Mstart);marker-mid:none;marker-end:url(#Arrow1Mend)"
       d="m 854.07258,572.35291 0,237.77451"
       id="path6103"
       inkscape:connector-curvature="0" />
    <path
       inkscape:export-ydpi="150"
       inkscape:export-xdpi="150"
       inkscape:export-filename="/home/waldgeist/data/homepage/pics/physik/mechanik/kraftwandler-und-getriebe/schiefe-ebene-schlittenfahren.png"
       inkscape:connector-curvature="0"
       id="path7287"
       d="m 159.46311,845.79351 665.15629,0"
       style="fill:none;stroke:#000000;stroke-width:2;stroke-linecap:butt;stroke-linejoin:miter;stroke-opacity:1;marker-start:url(#Arrow1Mstart);marker-mid:none;marker-end:url(#Arrow1Mend)" />
    <path
       inkscape:export-ydpi="150"
       inkscape:export-xdpi="150"
       inkscape:export-filename="/home/waldgeist/data/homepage/pics/physik/mechanik/kraftwandler-und-getriebe/schiefe-ebene-schlittenfahren.png"
       sodipodi:type="arc"
       style="color:#000000;fill:none;stroke:#000000;stroke-width:3.25200891;stroke-linecap:round;stroke-linejoin:bevel;stroke-miterlimit:4;stroke-opacity:1;stroke-dasharray:none;stroke-dashoffset:0;marker:none;marker-end:url(#Arrow2Send);visibility:visible;display:inline;overflow:visible;enable-background:accumulate"
       id="path7289"
       sodipodi:cx="675.71429"
       sodipodi:cy="494.1525"
       sodipodi:rx="42.857143"
       sodipodi:ry="50.058002"
       d="m 651.25514,535.25759 c -19.43606,-15.77811 -24.24137,-46.97216 -10.73296,-69.67387 0.65466,-1.1002 1.34687,-2.16924 2.07496,-3.20457"
       transform="matrix(-0.88818122,0.23953969,0.23798744,0.89397429,820.81522,174.86183)"
       sodipodi:start="2.1781709"
       sodipodi:end="3.8292524"
       sodipodi:open="true" />
    <g
       inkscape:export-ydpi="150"
       inkscape:export-xdpi="150"
       inkscape:export-filename="/home/waldgeist/data/homepage/pics/physik/mechanik/kraftwandler-und-getriebe/schiefe-ebene-schlittenfahren.png"
       ns0:text="$\\alpha$"
       ns0:preamble="/home/waldgeist/data/sphinx/inkscape-preamble.tex"
       transform="matrix(5.2431716,0,0,5.2431716,-859.67207,85.873754)"
       style="fill:#d40000;stroke:#aa0000"
       id="g7797">
      <defs
         id="defs7799">
        <g
           id="g7801">
          <symbol
             style="overflow:visible"
             overflow="visible"
             id="textext-0e51608b-0">
            <path
               inkscape:connector-curvature="0"
               style="stroke:none"
               d="m 4.75,-2.359375 c 0,-1.5625 -0.921875,-2.046875 -1.65625,-2.046875 -1.375,0 -2.6875,1.421875 -2.6875,2.828125 0,0.9375 0.59375,1.6875 1.625,1.6875 0.625,0 1.34375,-0.234375 2.09375,-0.84375 0.125,0.53125 0.453125,0.84375 0.90625,0.84375 0.53125,0 0.84375,-0.546875 0.84375,-0.703125 0,-0.078125 -0.0625,-0.109375 -0.125,-0.109375 -0.0625,0 -0.09375,0.03125 -0.125,0.109375 -0.1875,0.484375 -0.546875,0.484375 -0.5625,0.484375 -0.3125,0 -0.3125,-0.78125 -0.3125,-1.015625 0,-0.203125 0,-0.234375 0.109375,-0.34375 C 5.796875,-2.65625 6,-3.8125 6,-3.8125 6,-3.84375 5.984375,-3.921875 5.875,-3.921875 c -0.09375,0 -0.09375,0.03125 -0.140625,0.21875 -0.1875,0.625 -0.515625,1.375 -0.984375,1.96875 z m -0.65625,1.375 c -0.890625,0.765625 -1.65625,0.875 -2.046875,0.875 -0.59375,0 -0.90625,-0.453125 -0.90625,-1.09375 0,-0.484375 0.265625,-1.5625 0.578125,-2.0625 C 2.1875,-4 2.734375,-4.1875 3.078125,-4.1875 c 0.984375,0 0.984375,1.3125 0.984375,2.078125 0,0.375 0,0.953125 0.03125,1.125 z m 0,0"
               id="path7804" />
          </symbol>
        </g>
      </defs>
      <g
         id="textext-0e51608b-1">
        <g
           style="fill:#000000;fill-opacity:1"
           id="g7807">
          <use
             height="744.09448"
             width="1052.3622"
             xlink:href="#textext-0e51608b-0"
             x="223.43201"
             y="134.765"
             id="use7809" />
        </g>
      </g>
    </g>
    <g
       inkscape:export-ydpi="150"
       inkscape:export-xdpi="150"
       inkscape:export-filename="/home/waldgeist/data/homepage/pics/physik/mechanik/kraftwandler-und-getriebe/schiefe-ebene-schlittenfahren.png"
       ns0:text="$h$"
       ns0:preamble="/home/waldgeist/data/sphinx/inkscape-preamble.tex"
       transform="matrix(5.2431716,0,0,5.2431716,-304.60291,2.503709)"
       style="fill:#d40000;stroke:#aa0000"
       id="g8309">
      <defs
         id="defs8311">
        <g
           id="g8313">
          <symbol
             style="overflow:visible"
             overflow="visible"
             id="textext-0346dcff-0">
            <path
               inkscape:connector-curvature="0"
               style="stroke:none"
               d="m 2.859375,-6.8125 c 0,0 0,-0.109375 -0.125,-0.109375 -0.234375,0 -0.953125,0.078125 -1.21875,0.109375 -0.078125,0 -0.1875,0.015625 -0.1875,0.1875 0,0.125 0.09375,0.125 0.234375,0.125 0.484375,0 0.5,0.0625 0.5,0.171875 L 2.03125,-6.125 0.59375,-0.390625 c -0.046875,0.140625 -0.046875,0.15625 -0.046875,0.21875 0,0.234375 0.203125,0.28125 0.296875,0.28125 0.15625,0 0.3125,-0.125 0.359375,-0.265625 l 0.1875,-0.75 0.21875,-0.890625 C 1.671875,-2.03125 1.734375,-2.25 1.78125,-2.46875 1.796875,-2.53125 1.890625,-2.859375 1.890625,-2.921875 1.921875,-3.015625 2.234375,-3.5625 2.578125,-3.84375 2.796875,-4 3.09375,-4.1875 3.53125,-4.1875 c 0.421875,0 0.53125,0.34375 0.53125,0.703125 0,0.53125 -0.375,1.625 -0.609375,2.234375 C 3.375,-1.03125 3.3125,-0.90625 3.3125,-0.703125 c 0,0.46875 0.359375,0.8125 0.828125,0.8125 0.9375,0 1.296875,-1.453125 1.296875,-1.53125 0,-0.109375 -0.078125,-0.109375 -0.109375,-0.109375 -0.109375,0 -0.109375,0.03125 -0.15625,0.1875 -0.140625,0.53125 -0.46875,1.234375 -1.015625,1.234375 -0.171875,0 -0.234375,-0.09375 -0.234375,-0.328125 0,-0.25 0.078125,-0.484375 0.171875,-0.703125 0.15625,-0.4375 0.609375,-1.625 0.609375,-2.203125 0,-0.640625 -0.390625,-1.0625 -1.140625,-1.0625 -0.625,0 -1.109375,0.3125 -1.484375,0.765625 z m 0,0"
               id="path8316" />
          </symbol>
        </g>
      </defs>
      <g
         id="textext-0346dcff-1">
        <g
           style="fill:#000000;fill-opacity:1"
           id="g8319">
          <use
             height="744.09448"
             width="1052.3622"
             xlink:href="#textext-0346dcff-0"
             x="223.43201"
             y="134.765"
             id="use8321" />
        </g>
      </g>
    </g>
    <g
       id="g5373"
       style="fill:#d40000;stroke:#aa0000"
       transform="matrix(5.2431716,0,0,5.2431716,-681.35684,188.15946)"
       ns0:preamble="/home/waldgeist/data/sphinx/inkscape-preamble.tex"
       ns0:text="$b$"
       inkscape:export-filename="/home/waldgeist/data/homepage/pics/physik/mechanik/kraftwandler-und-getriebe/schiefe-ebene-schlittenfahren.png"
       inkscape:export-xdpi="150"
       inkscape:export-ydpi="150">
      <defs
         id="defs5375">
        <g
           id="g5377">
          <symbol
             id="textext-36ee59ee-0"
             overflow="visible"
             style="overflow:visible">
            <path
               id="path5380"
               d=""
               style="stroke:none"
               inkscape:connector-curvature="0" />
          </symbol>
          <symbol
             id="textext-36ee59ee-1"
             overflow="visible"
             style="overflow:visible">
            <path
               id="path5383"
               d="m 2.375,-6.8125 c 0,0 0,-0.109375 -0.125,-0.109375 -0.21875,0 -0.953125,0.078125 -1.21875,0.109375 -0.078125,0 -0.1875,0.015625 -0.1875,0.1875 0,0.125 0.09375,0.125 0.25,0.125 0.46875,0 0.484375,0.0625 0.484375,0.171875 0,0.0625 -0.078125,0.40625 -0.125,0.609375 l -0.828125,3.25 c -0.109375,0.5 -0.15625,0.671875 -0.15625,1.015625 0,0.9375 0.53125,1.5625 1.265625,1.5625 1.171875,0 2.40625,-1.484375 2.40625,-2.921875 0,-0.90625 -0.53125,-1.59375 -1.328125,-1.59375 -0.453125,0 -0.875,0.296875 -1.171875,0.59375 z M 1.453125,-3.046875 C 1.5,-3.265625 1.5,-3.28125 1.59375,-3.390625 2.078125,-4.03125 2.53125,-4.1875 2.796875,-4.1875 c 0.359375,0 0.625,0.296875 0.625,0.9375 0,0.59375 -0.328125,1.734375 -0.515625,2.109375 -0.328125,0.671875 -0.78125,1.03125 -1.171875,1.03125 -0.34375,0 -0.671875,-0.265625 -0.671875,-1 0,-0.203125 0,-0.390625 0.15625,-1.015625 z m 0,0"
               style="stroke:none"
               inkscape:connector-curvature="0" />
          </symbol>
        </g>
      </defs>
      <g
         id="textext-36ee59ee-2">
        <g
           id="g5386"
           style="fill:#000000;fill-opacity:1">
          <use
             id="use5388"
             y="134.765"
             x="223.43201"
             xlink:href="#textext-36ee59ee-1"
             width="1052.3622"
             height="744.09448" />
        </g>
      </g>
    </g>
  </g>
</svg>
