<?xml version="1.0" encoding="UTF-8" standalone="no"?>
<!-- Created with Inkscape (http://www.inkscape.org/) -->

<svg
   xmlns:ns0="http://www.iki.fi/pav/software/textext/"
   xmlns:dc="http://purl.org/dc/elements/1.1/"
   xmlns:cc="http://creativecommons.org/ns#"
   xmlns:rdf="http://www.w3.org/1999/02/22-rdf-syntax-ns#"
   xmlns:svg="http://www.w3.org/2000/svg"
   xmlns="http://www.w3.org/2000/svg"
   xmlns:xlink="http://www.w3.org/1999/xlink"
   xmlns:sodipodi="http://sodipodi.sourceforge.net/DTD/sodipodi-0.dtd"
   xmlns:inkscape="http://www.inkscape.org/namespaces/inkscape"
   sodipodi:docname="schiefe-ebene-keilwirkung.svg"
   inkscape:version="0.48.4 r9939"
   version="1.1"
   id="svg2"
   height="744.09448"
   width="1052.3622">
  <sodipodi:namedview
     id="base"
     pagecolor="#ffffff"
     bordercolor="#666666"
     borderopacity="1.0"
     inkscape:pageopacity="0.0"
     inkscape:pageshadow="2"
     inkscape:zoom="0.71280261"
     inkscape:cx="557.96466"
     inkscape:cy="156.75219"
     inkscape:document-units="px"
     inkscape:current-layer="layer1"
     showgrid="false"
     inkscape:object-paths="true"
     inkscape:object-nodes="true"
     inkscape:snap-smooth-nodes="true"
     inkscape:snap-midpoints="true"
     inkscape:snap-object-midpoints="true"
     inkscape:snap-grids="false"
     showguides="false"
     inkscape:guide-bbox="true"
     inkscape:snap-global="true"
     inkscape:window-width="1600"
     inkscape:window-height="1150"
     inkscape:window-x="0"
     inkscape:window-y="0"
     inkscape:window-maximized="1">
    <inkscape:grid
       snapvisiblegridlinesonly="true"
       enabled="true"
       visible="true"
       empspacing="10"
       units="cm"
       id="grid2990"
       type="xygrid" />
    <sodipodi:guide
       id="guide3786"
       position="401.03101,1141.739"
       orientation="0,1" />
    <sodipodi:guide
       id="guide6859"
       position="558.75296,340.90784"
       orientation="1,0" />
    <sodipodi:guide
       id="guide6861"
       position="558.75296,273.12961"
       orientation="0,1" />
    <sodipodi:guide
       id="guide6863"
       position="558.3595,366.75805"
       orientation="0,1" />
    <sodipodi:guide
       id="guide6867"
       position="533.89605,319.94383"
       orientation="0,1" />
  </sodipodi:namedview>
  <title
     id="title5369">Schiefe Ebene -- Keilwirkung</title>
  <defs
     id="defs4">
    <marker
       inkscape:stockid="Arrow2Send"
       orient="auto"
       refY="0.0"
       refX="0.0"
       id="Arrow2Send"
       style="overflow:visible;">
      <path
         id="path6142"
         style="fill-rule:evenodd;stroke-width:0.62500000;stroke-linejoin:round;"
         d="M 8.7185878,4.0337352 L -2.2072895,0.016013256 L 8.7185884,-4.0017078 C 6.9730900,-1.6296469 6.9831476,1.6157441 8.7185878,4.0337352 z "
         transform="scale(0.3) rotate(180) translate(-2.3,0)" />
    </marker>
    <marker
       inkscape:stockid="Arrow1Mstart"
       orient="auto"
       refY="0.0"
       refX="0.0"
       id="Arrow1Mstart"
       style="overflow:visible">
      <path
         id="path6115"
         d="M 0.0,0.0 L 5.0,-5.0 L -12.5,0.0 L 5.0,5.0 L 0.0,0.0 z "
         style="fill-rule:evenodd;stroke:#000000;stroke-width:1.0pt"
         transform="scale(0.4) translate(10,0)" />
    </marker>
    <marker
       inkscape:stockid="Arrow1Mend"
       orient="auto"
       refY="0.0"
       refX="0.0"
       id="Arrow1Mend"
       style="overflow:visible;">
      <path
         id="path6118"
         d="M 0.0,0.0 L 5.0,-5.0 L -12.5,0.0 L 5.0,5.0 L 0.0,0.0 z "
         style="fill-rule:evenodd;stroke:#000000;stroke-width:1.0pt;"
         transform="scale(0.4) rotate(180) translate(10,0)" />
    </marker>
    <filter
       inkscape:collect="always"
       id="filter6495">
      <feGaussianBlur
         inkscape:collect="always"
         stdDeviation="1.2209172"
         id="feGaussianBlur6497" />
    </filter>
  </defs>
  <metadata
     id="metadata7">
    <rdf:RDF>
      <cc:Work
         rdf:about="">
        <dc:format>image/svg+xml</dc:format>
        <dc:type
           rdf:resource="http://purl.org/dc/dcmitype/StillImage" />
        <dc:title>Schiefe Ebene -- Keilwirkung</dc:title>
        <dc:date>2014-10-26</dc:date>
        <dc:creator>
          <cc:Agent>
            <dc:title>Bernhard Grotz</dc:title>
          </cc:Agent>
        </dc:creator>
        <dc:rights>
          <cc:Agent>
            <dc:title>Bernhard Grotz</dc:title>
          </cc:Agent>
        </dc:rights>
        <dc:publisher>
          <cc:Agent>
            <dc:title>Bernhard Grotz</dc:title>
          </cc:Agent>
        </dc:publisher>
        <dc:language>de_DE</dc:language>
        <dc:subject>
          <rdf:Bag>
            <rdf:li>Physik</rdf:li>
            <rdf:li>Mechanik</rdf:li>
            <rdf:li>Dynamik</rdf:li>
            <rdf:li>Kraftwandler</rdf:li>
            <rdf:li>Schiefe Ebene</rdf:li>
            <rdf:li>Keil</rdf:li>
          </rdf:Bag>
        </dc:subject>
        <cc:license
           rdf:resource="http://creativecommons.org/licenses/by-nc-sa/3.0/" />
      </cc:Work>
      <cc:License
         rdf:about="http://creativecommons.org/licenses/by-nc-sa/3.0/">
        <cc:permits
           rdf:resource="http://creativecommons.org/ns#Reproduction" />
        <cc:permits
           rdf:resource="http://creativecommons.org/ns#Distribution" />
        <cc:requires
           rdf:resource="http://creativecommons.org/ns#Notice" />
        <cc:requires
           rdf:resource="http://creativecommons.org/ns#Attribution" />
        <cc:prohibits
           rdf:resource="http://creativecommons.org/ns#CommercialUse" />
        <cc:permits
           rdf:resource="http://creativecommons.org/ns#DerivativeWorks" />
        <cc:requires
           rdf:resource="http://creativecommons.org/ns#ShareAlike" />
      </cc:License>
    </rdf:RDF>
  </metadata>
  <g
     transform="translate(0,-308.2677)"
     id="layer1"
     inkscape:groupmode="layer"
     inkscape:label="Ebene 1">
    <rect
       inkscape:export-ydpi="150"
       inkscape:export-xdpi="150"
       inkscape:export-filename="/home/waldgeist/data/homepage/pics/physik/mechanik/kraftwandler-und-getriebe/schiefe-ebene-keilwirkung.png"
       transform="scale(-1,1)"
       ry="0"
       rx="0"
       y="500.77048"
       x="-914.07971"
       height="359.0889"
       width="775.79718"
       id="rect5395"
       style="color:#000000;fill:#ffffff;fill-opacity:1;fill-rule:nonzero;stroke:#ffffff;stroke-width:1;stroke-linecap:round;stroke-linejoin:bevel;stroke-miterlimit:4;stroke-opacity:1;stroke-dasharray:none;stroke-dashoffset:0;marker:none;visibility:visible;display:inline;overflow:visible;enable-background:accumulate" />
    <rect
       y="664.43359"
       x="189.88995"
       height="163.68152"
       width="672.58228"
       id="rect6851"
       style="color:#000000;fill:#f2f2f2;fill-opacity:1;fill-rule:nonzero;stroke:#cccccc;stroke-width:3;stroke-linecap:round;stroke-linejoin:round;stroke-miterlimit:4;stroke-opacity:1;stroke-dasharray:none;stroke-dashoffset:0;marker:none;visibility:visible;display:inline;overflow:visible;enable-background:accumulate"
       inkscape:export-filename="/home/waldgeist/data/homepage/pics/physik/mechanik/kraftwandler-und-getriebe/schiefe-ebene-keilwirkung.png"
       inkscape:export-xdpi="150"
       inkscape:export-ydpi="150" />
    <g
       id="g6855"
       style="fill:#e6e6e6"
       transform="translate(-32.647942,-30.805216)"
       inkscape:export-filename="/home/waldgeist/data/homepage/pics/physik/mechanik/kraftwandler-und-getriebe/schiefe-ebene-keilwirkung.png"
       inkscape:export-xdpi="150"
       inkscape:export-ydpi="150">
      <path
         style="fill:#e6e6e6;stroke:#164450;stroke-width:0.99999988px;stroke-linecap:butt;stroke-linejoin:miter;stroke-opacity:1"
         d="m 484.28667,616.77136 74.46629,0 0,208.31361 z"
         id="path2992"
         inkscape:connector-curvature="0"
         sodipodi:nodetypes="cccc"
         inkscape:export-filename="/home/waldgeist/data/homepage/pics/physik/mechanik/kraftwandler-und-getriebe/schiefe-ebene-kraftzerlegung.png"
         inkscape:export-xdpi="150"
         inkscape:export-ydpi="150" />
      <path
         inkscape:export-ydpi="150"
         inkscape:export-xdpi="150"
         inkscape:export-filename="/home/waldgeist/data/homepage/pics/physik/mechanik/kraftwandler-und-getriebe/schiefe-ebene-kraftzerlegung.png"
         sodipodi:nodetypes="cccc"
         inkscape:connector-curvature="0"
         id="path6853"
         d="m 633.21925,616.77136 -74.46629,0 0,208.31361 z"
         style="fill:#e6e6e6;stroke:#164450;stroke-width:0.99999988px;stroke-linecap:butt;stroke-linejoin:miter;stroke-opacity:1" />
    </g>
    <g
       inkscape:export-ydpi="150"
       inkscape:export-xdpi="150"
       inkscape:export-filename="/home/waldgeist/data/homepage/pics/physik/mechanik/kraftwandler-und-getriebe/schiefe-ebene-keilwirkung.png"
       id="g6491"
       transform="matrix(-0.53731273,0,0,-0.53731273,969.01466,1021.132)">
      <path
         sodipodi:open="true"
         sodipodi:end="1.5707963"
         sodipodi:start="0"
         transform="matrix(-0.44356405,0,0,-0.44356405,1188.7419,1029.0465)"
         d="m 881.73079,495.7789 c 0,34.47893 -26.69448,62.42963 -59.62379,62.42963"
         sodipodi:ry="62.429626"
         sodipodi:rx="59.623798"
         sodipodi:cy="495.7789"
         sodipodi:cx="822.10699"
         id="path6487"
         style="opacity:0.5;color:#000000;fill:none;stroke:#333333;stroke-width:8.39163208;stroke-linecap:round;stroke-linejoin:round;stroke-miterlimit:4;stroke-opacity:1;stroke-dasharray:none;stroke-dashoffset:0;marker:none;visibility:visible;display:inline;overflow:visible;enable-background:accumulate"
         sodipodi:type="arc" />
      <path
         sodipodi:type="arc"
         style="opacity:0.5;color:#000000;fill:none;stroke:#333333;stroke-width:235.53521729;stroke-linecap:round;stroke-linejoin:round;stroke-miterlimit:4;stroke-opacity:1;stroke-dasharray:none;stroke-dashoffset:0;marker:none;visibility:visible;display:inline;overflow:visible;filter:url(#filter6495);enable-background:accumulate"
         id="path6489"
         sodipodi:cx="822.10699"
         sodipodi:cy="495.7789"
         sodipodi:rx="59.623798"
         sodipodi:ry="62.429626"
         d="m 881.73079,495.7789 c 0,34.47893 -26.69448,62.42963 -59.6238,62.42963 -32.92931,0 -59.62379,-27.9507 -59.62379,-62.42963 0,-34.47893 26.69448,-62.42963 59.62379,-62.42963 32.92932,0 59.6238,27.9507 59.6238,62.42963 z"
         transform="matrix(-0.02370491,0,0,-0.02370491,833.43024,809.23445)" />
    </g>
    <g
       inkscape:export-ydpi="150"
       inkscape:export-xdpi="150"
       inkscape:export-filename="/home/waldgeist/data/homepage/pics/physik/mechanik/kraftwandler-und-getriebe/schiefe-ebene-keilwirkung.png"
       id="g5649"
       transform="translate(-3.9647717,-45.830557)">
      <path
         sodipodi:nodetypes="cc"
         style="fill:#ff6600;stroke:#ff6600;stroke-width:3;stroke-linecap:round;stroke-linejoin:miter;stroke-miterlimit:4;stroke-opacity:1;stroke-dasharray:3, 9;stroke-dashoffset:0"
         d="m 401.86292,738.30264 128.20687,47.95527"
         id="path5599"
         inkscape:connector-curvature="0" />
    </g>
    <g
       id="g5565"
       transform="matrix(0.45675022,1.2722211,0.91013748,-0.3267557,181.55533,118.22777)"
       inkscape:transform-center-y="75.944402"
       inkscape:transform-center-x="27.585759"
       inkscape:export-filename="/home/waldgeist/data/homepage/pics/physik/mechanik/kraftwandler-und-getriebe/schiefe-ebene-schlittenfahren.png"
       inkscape:export-xdpi="150"
       inkscape:export-ydpi="150" />
    <path
       inkscape:export-ydpi="150"
       inkscape:export-xdpi="150"
       inkscape:export-filename="/home/waldgeist/data/homepage/pics/physik/mechanik/kraftwandler-und-getriebe/schiefe-ebene-keilwirkung.png"
       inkscape:connector-curvature="0"
       id="path7287"
       d="m 451.7148,571.96614 148.93258,0"
       style="fill:none;stroke:#000000;stroke-width:1.99999988;stroke-linecap:butt;stroke-linejoin:miter;stroke-opacity:1;marker-start:url(#Arrow1Mstart);marker-mid:none;marker-end:url(#Arrow1Mend)"
       sodipodi:nodetypes="cc" />
    <g
       id="g5373"
       style="fill:#d40000;stroke:#aa0000;stroke-width:1.37221694"
       transform="matrix(3.8209496,0,0,3.8209496,-333.80494,42.532635)"
       ns0:preamble="/home/waldgeist/data/sphinx/inkscape-preamble.tex"
       ns0:text="$b$"
       inkscape:export-filename="/home/waldgeist/data/homepage/pics/physik/mechanik/kraftwandler-und-getriebe/schiefe-ebene-keilwirkung.png"
       inkscape:export-xdpi="150"
       inkscape:export-ydpi="150">
      <defs
         id="defs5375">
        <g
           id="g5377">
          <symbol
             id="textext-36ee59ee-0"
             overflow="visible"
             style="overflow:visible">
            <path
               id="path5380"
               d=""
               style="stroke:none"
               inkscape:connector-curvature="0" />
          </symbol>
          <symbol
             id="textext-36ee59ee-1"
             overflow="visible"
             style="overflow:visible">
            <path
               id="path5383"
               d="m 2.375,-6.8125 c 0,0 0,-0.109375 -0.125,-0.109375 -0.21875,0 -0.953125,0.078125 -1.21875,0.109375 -0.078125,0 -0.1875,0.015625 -0.1875,0.1875 0,0.125 0.09375,0.125 0.25,0.125 0.46875,0 0.484375,0.0625 0.484375,0.171875 0,0.0625 -0.078125,0.40625 -0.125,0.609375 l -0.828125,3.25 c -0.109375,0.5 -0.15625,0.671875 -0.15625,1.015625 0,0.9375 0.53125,1.5625 1.265625,1.5625 1.171875,0 2.40625,-1.484375 2.40625,-2.921875 0,-0.90625 -0.53125,-1.59375 -1.328125,-1.59375 -0.453125,0 -0.875,0.296875 -1.171875,0.59375 z M 1.453125,-3.046875 C 1.5,-3.265625 1.5,-3.28125 1.59375,-3.390625 2.078125,-4.03125 2.53125,-4.1875 2.796875,-4.1875 c 0.359375,0 0.625,0.296875 0.625,0.9375 0,0.59375 -0.328125,1.734375 -0.515625,2.109375 -0.328125,0.671875 -0.78125,1.03125 -1.171875,1.03125 -0.34375,0 -0.671875,-0.265625 -0.671875,-1 0,-0.203125 0,-0.390625 0.15625,-1.015625 z m 0,0"
               style="stroke:none"
               inkscape:connector-curvature="0" />
          </symbol>
        </g>
      </defs>
      <g
         id="textext-36ee59ee-2"
         transform="translate(0.38144851,0)"
         style="stroke-width:1.37221694">
        <g
           id="g5386"
           style="fill:#000000;fill-opacity:1;stroke-width:1.37221694">
          <use
             id="use5388"
             y="134.765"
             x="223.43201"
             xlink:href="#textext-36ee59ee-1"
             width="1052.3622"
             height="744.09448"
             style="stroke-width:1.37221694" />
        </g>
      </g>
    </g>
    <g
       id="g5645" />
    <path
       style="fill:none;stroke:#999999;stroke-width:1;stroke-linecap:butt;stroke-linejoin:miter;stroke-opacity:1;stroke-miterlimit:4;stroke-dasharray:1,1;stroke-dashoffset:0"
       d="m 401.28329,384.43407 246.41038,0.2297"
       id="path23213"
       inkscape:connector-curvature="0"
       transform="translate(0,308.2677)"
       inkscape:export-filename="/home/waldgeist/data/homepage/pics/physik/mechanik/kraftwandler-und-getriebe/schiefe-ebene-keilwirkung.png"
       inkscape:export-xdpi="150"
       inkscape:export-ydpi="150" />
    <g
       inkscape:export-ydpi="150"
       inkscape:export-xdpi="150"
       inkscape:export-filename="/home/waldgeist/data/homepage/pics/physik/mechanik/kraftwandler-und-getriebe/schiefe-ebene-keilwirkung.png"
       transform="matrix(-0.02076918,0.9997843,-0.9997843,-0.02076918,1197.798,137.5992)"
       id="g5653">
      <path
         inkscape:connector-curvature="0"
         id="path5655"
         d="M 523.03723,660.82033 568.54052,780.3324"
         style="fill:#ff6600;stroke:#ff6600;stroke-width:3.00000024;stroke-linecap:round;stroke-linejoin:miter;stroke-miterlimit:4;stroke-opacity:1;stroke-dasharray:none"
         sodipodi:nodetypes="cc" />
      <path
         inkscape:transform-center-x="-3.0302635"
         transform="matrix(-0.46450108,0.16678786,0.23312745,0.64930052,-134.76769,-145.77098)"
         inkscape:transform-center-y="-0.00017641075"
         d="m -707.10675,1620.0679 -5.24891,-9.0914 -5.2489,-9.0914 10.49781,0 10.49781,0 -5.2489,9.0914 z"
         inkscape:randomized="0"
         inkscape:rounded="0"
         inkscape:flatsided="false"
         sodipodi:arg2="2.6179939"
         sodipodi:arg1="1.5707963"
         sodipodi:r2="6.060915"
         sodipodi:r1="12.121831"
         sodipodi:cy="1607.946"
         sodipodi:cx="-707.10675"
         sodipodi:sides="3"
         id="path5657"
         style="fill:#ff6600;stroke:#ff6600;stroke-width:5.14130211;stroke-miterlimit:4;stroke-dasharray:none"
         sodipodi:type="star" />
    </g>
    <path
       sodipodi:open="true"
       sodipodi:end="3.8292524"
       sodipodi:start="2.1781709"
       transform="matrix(2.8129584e-4,0.17258726,0.17356169,2.8129944e-4,447.41432,638.05893)"
       d="m 651.25514,535.25759 a 42.857143,50.058002 0 0 1 -8.658,-72.87844"
       sodipodi:ry="50.058002"
       sodipodi:rx="42.857143"
       sodipodi:cy="494.1525"
       sodipodi:cx="675.71429"
       id="path6451"
       style="color:#000000;fill:none;stroke:#000000;stroke-width:8.66683483;stroke-linecap:round;stroke-linejoin:bevel;stroke-miterlimit:4;stroke-opacity:1;stroke-dasharray:none;stroke-dashoffset:0;marker:none;marker-end:url(#Arrow2Send);visibility:visible;display:inline;overflow:visible;enable-background:accumulate"
       sodipodi:type="arc"
       inkscape:export-filename="/home/waldgeist/data/homepage/pics/physik/mechanik/kraftwandler-und-getriebe/schiefe-ebene-keilwirkung.png"
       inkscape:export-xdpi="150"
       inkscape:export-ydpi="150" />
    <g
       id="g6453"
       style="fill:#d40000;stroke:#aa0000;stroke-width:1.91330194"
       transform="matrix(2.7403783,0,0,2.7403783,-68.857331,410.39443)"
       ns0:preamble="/home/waldgeist/data/sphinx/inkscape-preamble.tex"
       ns0:text="$\\alpha$"
       inkscape:export-filename="/home/waldgeist/data/homepage/pics/physik/mechanik/kraftwandler-und-getriebe/schiefe-ebene-keilwirkung.png"
       inkscape:export-xdpi="150"
       inkscape:export-ydpi="150">
      <defs
         id="defs6455">
        <g
           id="g6457">
          <symbol
             id="symbol6459"
             overflow="visible"
             style="overflow:visible">
            <path
               id="path6461"
               d="m 4.75,-2.359375 c 0,-1.5625 -0.921875,-2.046875 -1.65625,-2.046875 -1.375,0 -2.6875,1.421875 -2.6875,2.828125 0,0.9375 0.59375,1.6875 1.625,1.6875 0.625,0 1.34375,-0.234375 2.09375,-0.84375 0.125,0.53125 0.453125,0.84375 0.90625,0.84375 0.53125,0 0.84375,-0.546875 0.84375,-0.703125 0,-0.078125 -0.0625,-0.109375 -0.125,-0.109375 -0.0625,0 -0.09375,0.03125 -0.125,0.109375 -0.1875,0.484375 -0.546875,0.484375 -0.5625,0.484375 -0.3125,0 -0.3125,-0.78125 -0.3125,-1.015625 0,-0.203125 0,-0.234375 0.109375,-0.34375 C 5.796875,-2.65625 6,-3.8125 6,-3.8125 6,-3.84375 5.984375,-3.921875 5.875,-3.921875 c -0.09375,0 -0.09375,0.03125 -0.140625,0.21875 -0.1875,0.625 -0.515625,1.375 -0.984375,1.96875 z m -0.65625,1.375 c -0.890625,0.765625 -1.65625,0.875 -2.046875,0.875 -0.59375,0 -0.90625,-0.453125 -0.90625,-1.09375 0,-0.484375 0.265625,-1.5625 0.578125,-2.0625 C 2.1875,-4 2.734375,-4.1875 3.078125,-4.1875 c 0.984375,0 0.984375,1.3125 0.984375,2.078125 0,0.375 0,0.953125 0.03125,1.125 z m 0,0"
               style="stroke:none"
               inkscape:connector-curvature="0" />
          </symbol>
        </g>
      </defs>
      <g
         id="g6463"
         style="stroke-width:1.91330194"
         transform="translate(2.1894787,-1.4596525)">
        <g
           id="g6465"
           style="fill:#000000;fill-opacity:1;stroke-width:1.91330194">
          <g
             id="use6467"
             style="stroke-width:1.91330194"
             transform="translate(223.43201,134.765)">
            <path
               id="path7984"
               d="m 4.75,-2.359375 c 0,-1.5625 -0.921875,-2.046875 -1.65625,-2.046875 -1.375,0 -2.6875,1.421875 -2.6875,2.828125 0,0.9375 0.59375,1.6875 1.625,1.6875 0.625,0 1.34375,-0.234375 2.09375,-0.84375 0.125,0.53125 0.453125,0.84375 0.90625,0.84375 0.53125,0 0.84375,-0.546875 0.84375,-0.703125 0,-0.078125 -0.0625,-0.109375 -0.125,-0.109375 -0.0625,0 -0.09375,0.03125 -0.125,0.109375 -0.1875,0.484375 -0.546875,0.484375 -0.5625,0.484375 -0.3125,0 -0.3125,-0.78125 -0.3125,-1.015625 0,-0.203125 0,-0.234375 0.109375,-0.34375 C 5.796875,-2.65625 6,-3.8125 6,-3.8125 6,-3.84375 5.984375,-3.921875 5.875,-3.921875 c -0.09375,0 -0.09375,0.03125 -0.140625,0.21875 -0.1875,0.625 -0.515625,1.375 -0.984375,1.96875 z m -0.65625,1.375 c -0.890625,0.765625 -1.65625,0.875 -2.046875,0.875 -0.59375,0 -0.90625,-0.453125 -0.90625,-1.09375 0,-0.484375 0.265625,-1.5625 0.578125,-2.0625 C 2.1875,-4 2.734375,-4.1875 3.078125,-4.1875 c 0.984375,0 0.984375,1.3125 0.984375,2.078125 0,0.375 0,0.953125 0.03125,1.125 z m 0,0"
               style="stroke:none"
               inkscape:connector-curvature="0" />
          </g>
        </g>
      </g>
    </g>
    <g
       id="g6869"
       transform="matrix(0.02076918,0.9997843,0.9997843,-0.02076918,-145.43583,137.5992)"
       inkscape:export-filename="/home/waldgeist/data/homepage/pics/physik/mechanik/kraftwandler-und-getriebe/schiefe-ebene-keilwirkung.png"
       inkscape:export-xdpi="150"
       inkscape:export-ydpi="150">
      <path
         sodipodi:nodetypes="cc"
         style="fill:#ff6600;stroke:#ff6600;stroke-width:3.00000024;stroke-linecap:round;stroke-linejoin:miter;stroke-miterlimit:4;stroke-opacity:1;stroke-dasharray:none"
         d="M 523.03723,660.82033 568.54052,780.3324"
         id="path6871"
         inkscape:connector-curvature="0" />
      <path
         sodipodi:type="star"
         style="fill:#ff6600;stroke:#ff6600;stroke-width:5.14130211;stroke-miterlimit:4;stroke-dasharray:none"
         id="path6873"
         sodipodi:sides="3"
         sodipodi:cx="-707.10675"
         sodipodi:cy="1607.946"
         sodipodi:r1="12.121831"
         sodipodi:r2="6.060915"
         sodipodi:arg1="1.5707963"
         sodipodi:arg2="2.6179939"
         inkscape:flatsided="false"
         inkscape:rounded="0"
         inkscape:randomized="0"
         d="m -707.10675,1620.0679 -5.24891,-9.0914 -5.2489,-9.0914 10.49781,0 10.49781,0 -5.2489,9.0914 z"
         inkscape:transform-center-y="-0.00017641075"
         transform="matrix(-0.46450108,0.16678786,0.23312745,0.64930052,-134.76769,-145.77098)"
         inkscape:transform-center-x="-3.0302635" />
    </g>
    <g
       id="g6999"
       style="fill:#d40000;stroke:#aa0000;stroke-width:1.38287854"
       transform="matrix(3.7914913,0,0,3.7914913,-321.33296,191.91209)"
       ns0:preamble="/home/waldgeist/data/sphinx/inkscape-preamble.tex"
       ns0:text="$\\vec{F}$"
       inkscape:export-filename="/home/waldgeist/data/homepage/pics/physik/mechanik/kraftwandler-und-getriebe/schiefe-ebene-keilwirkung.png"
       inkscape:export-xdpi="150"
       inkscape:export-ydpi="150">
      <defs
         id="defs7001">
        <g
           id="g7003">
          <symbol
             id="textext-7cd6b627-0"
             overflow="visible"
             style="overflow:visible">
            <path
               id="path7006"
               d=""
               style="stroke:none"
               inkscape:connector-curvature="0" />
          </symbol>
          <symbol
             id="textext-7cd6b627-1"
             overflow="visible"
             style="overflow:visible">
            <path
               id="path7009"
               d="m 5.359375,-5.9375 c -0.140625,0.140625 -0.46875,0.421875 -0.46875,0.59375 0,0.09375 0.09375,0.203125 0.1875,0.203125 0.09375,0 0.140625,-0.078125 0.203125,-0.140625 C 5.390625,-5.421875 5.625,-5.703125 6.0625,-5.921875 6.125,-5.96875 6.234375,-6.015625 6.234375,-6.125 6.234375,-6.234375 6.15625,-6.28125 6.09375,-6.328125 5.875,-6.484375 5.765625,-6.65625 5.6875,-6.890625 5.65625,-6.984375 5.625,-7.125 5.484375,-7.125 c -0.140625,0 -0.203125,0.140625 -0.203125,0.21875 0,0.046875 0.078125,0.359375 0.234375,0.578125 l -3.359375,0 c -0.15625,0 -0.34375,0 -0.34375,0.203125 0,0.1875 0.1875,0.1875 0.34375,0.1875 z m 0,0"
               style="stroke:none"
               inkscape:connector-curvature="0" />
          </symbol>
          <symbol
             id="textext-7cd6b627-2"
             overflow="visible"
             style="overflow:visible">
            <path
               id="path7012"
               d="m 3.015625,-3.234375 0.96875,0 c 0.75,0 0.828125,0.15625 0.828125,0.4375 0,0.078125 0,0.1875 -0.0625,0.5 C 4.71875,-2.25 4.71875,-2.21875 4.71875,-2.1875 c 0,0.078125 0.0625,0.109375 0.109375,0.109375 0.109375,0 0.109375,-0.03125 0.15625,-0.203125 L 5.53125,-4.453125 C 5.5625,-4.5625 5.5625,-4.578125 5.5625,-4.609375 5.5625,-4.625 5.546875,-4.71875 5.4375,-4.71875 5.34375,-4.71875 5.328125,-4.671875 5.296875,-4.5 5.078125,-3.734375 4.859375,-3.546875 4,-3.546875 l -0.90625,0 0.640625,-2.53125 C 3.828125,-6.4375 3.84375,-6.46875 4.28125,-6.46875 l 1.3125,0 c 1.21875,0 1.453125,0.328125 1.453125,1.09375 0,0.234375 0,0.265625 -0.03125,0.546875 C 7,-4.703125 7,-4.6875 7,-4.65625 c 0,0.046875 0.03125,0.125 0.125,0.125 0.109375,0 0.109375,-0.0625 0.125,-0.25 L 7.453125,-6.515625 C 7.484375,-6.78125 7.4375,-6.78125 7.1875,-6.78125 l -4.890625,0 c -0.1875,0 -0.296875,0 -0.296875,0.203125 0,0.109375 0.09375,0.109375 0.28125,0.109375 0.375,0 0.65625,0 0.65625,0.171875 0,0.046875 0,0.0625 -0.0625,0.25 L 1.5625,-0.78125 c -0.09375,0.390625 -0.109375,0.46875 -0.90625,0.46875 -0.171875,0 -0.28125,0 -0.28125,0.1875 C 0.375,0 0.5,0 0.53125,0 0.8125,0 1.5625,-0.03125 1.84375,-0.03125 2.171875,-0.03125 3,0 3.328125,0 3.421875,0 3.53125,0 3.53125,-0.1875 3.53125,-0.265625 3.484375,-0.296875 3.484375,-0.296875 3.453125,-0.3125 3.421875,-0.3125 3.203125,-0.3125 c -0.21875,0 -0.265625,0 -0.515625,-0.015625 -0.296875,-0.03125 -0.328125,-0.078125 -0.328125,-0.203125 0,-0.015625 0,-0.078125 0.046875,-0.21875 z m 0,0"
               style="stroke:none"
               inkscape:connector-curvature="0" />
          </symbol>
        </g>
      </defs>
      <g
         id="textext-7cd6b627-3"
         style="fill:#d40000;stroke-width:1.38287854">
        <g
           id="g7015"
           style="fill:#d40000;fill-opacity:1;stroke-width:1.38287854">
          <use
             id="use7017"
             y="132.246"
             x="224.901"
             xlink:href="#textext-7cd6b627-1"
             style="fill:#d40000;stroke-width:1.38287854"
             width="1052.3622"
             height="744.09448" />
        </g>
        <g
           id="g7019"
           style="fill:#d40000;fill-opacity:1;stroke-width:1.38287854">
          <use
             id="use7021"
             y="134.765"
             x="223.43201"
             xlink:href="#textext-7cd6b627-2"
             style="fill:#d40000;stroke-width:1.38287854"
             width="1052.3622"
             height="744.09448" />
        </g>
      </g>
    </g>
    <g
       ns0:text="$\\vec{F}_{\\rm{N,2}}$"
       ns0:preamble="/home/waldgeist/data/sphinx/inkscape-preamble.tex"
       transform="matrix(3.5277993,0,0,3.5277993,-136.59548,248.78582)"
       style="fill:#ff6600;stroke:#aa0000;stroke-width:1.4862448"
       id="g7281"
       inkscape:export-filename="/home/waldgeist/data/homepage/pics/physik/mechanik/kraftwandler-und-getriebe/schiefe-ebene-keilwirkung.png"
       inkscape:export-xdpi="150"
       inkscape:export-ydpi="150">
      <defs
         id="defs7283">
        <g
           id="g7285">
          <symbol
             overflow="visible"
             id="textext-6439ccca-0"
             style="overflow:visible">
            <path
               style="stroke:none"
               d=""
               id="path7288"
               inkscape:connector-curvature="0" />
          </symbol>
          <symbol
             overflow="visible"
             id="textext-6439ccca-1"
             style="overflow:visible">
            <path
               style="stroke:none"
               d="m 5.359375,-5.9375 c -0.140625,0.140625 -0.46875,0.421875 -0.46875,0.59375 0,0.09375 0.09375,0.203125 0.1875,0.203125 0.09375,0 0.140625,-0.078125 0.203125,-0.140625 C 5.390625,-5.421875 5.625,-5.703125 6.0625,-5.921875 6.125,-5.96875 6.234375,-6.015625 6.234375,-6.125 6.234375,-6.234375 6.15625,-6.28125 6.09375,-6.328125 5.875,-6.484375 5.765625,-6.65625 5.6875,-6.890625 5.65625,-6.984375 5.625,-7.125 5.484375,-7.125 c -0.140625,0 -0.203125,0.140625 -0.203125,0.21875 0,0.046875 0.078125,0.359375 0.234375,0.578125 l -3.359375,0 c -0.15625,0 -0.34375,0 -0.34375,0.203125 0,0.1875 0.1875,0.1875 0.34375,0.1875 z m 0,0"
               id="path7291"
               inkscape:connector-curvature="0" />
          </symbol>
          <symbol
             overflow="visible"
             id="textext-6439ccca-2"
             style="overflow:visible">
            <path
               style="stroke:none"
               d="m 3.015625,-3.234375 0.96875,0 c 0.75,0 0.828125,0.15625 0.828125,0.4375 0,0.078125 0,0.1875 -0.0625,0.5 C 4.71875,-2.25 4.71875,-2.21875 4.71875,-2.1875 c 0,0.078125 0.0625,0.109375 0.109375,0.109375 0.109375,0 0.109375,-0.03125 0.15625,-0.203125 L 5.53125,-4.453125 C 5.5625,-4.5625 5.5625,-4.578125 5.5625,-4.609375 5.5625,-4.625 5.546875,-4.71875 5.4375,-4.71875 5.34375,-4.71875 5.328125,-4.671875 5.296875,-4.5 5.078125,-3.734375 4.859375,-3.546875 4,-3.546875 l -0.90625,0 0.640625,-2.53125 C 3.828125,-6.4375 3.84375,-6.46875 4.28125,-6.46875 l 1.3125,0 c 1.21875,0 1.453125,0.328125 1.453125,1.09375 0,0.234375 0,0.265625 -0.03125,0.546875 C 7,-4.703125 7,-4.6875 7,-4.65625 c 0,0.046875 0.03125,0.125 0.125,0.125 0.109375,0 0.109375,-0.0625 0.125,-0.25 L 7.453125,-6.515625 C 7.484375,-6.78125 7.4375,-6.78125 7.1875,-6.78125 l -4.890625,0 c -0.1875,0 -0.296875,0 -0.296875,0.203125 0,0.109375 0.09375,0.109375 0.28125,0.109375 0.375,0 0.65625,0 0.65625,0.171875 0,0.046875 0,0.0625 -0.0625,0.25 L 1.5625,-0.78125 c -0.09375,0.390625 -0.109375,0.46875 -0.90625,0.46875 -0.171875,0 -0.28125,0 -0.28125,0.1875 C 0.375,0 0.5,0 0.53125,0 0.8125,0 1.5625,-0.03125 1.84375,-0.03125 2.171875,-0.03125 3,0 3.328125,0 3.421875,0 3.53125,0 3.53125,-0.1875 3.53125,-0.265625 3.484375,-0.296875 3.484375,-0.296875 3.453125,-0.3125 3.421875,-0.3125 3.203125,-0.3125 c -0.21875,0 -0.265625,0 -0.515625,-0.015625 -0.296875,-0.03125 -0.328125,-0.078125 -0.328125,-0.203125 0,-0.015625 0,-0.078125 0.046875,-0.21875 z m 0,0"
               id="path7294"
               inkscape:connector-curvature="0" />
          </symbol>
          <symbol
             overflow="visible"
             id="textext-6439ccca-3"
             style="overflow:visible">
            <path
               style="stroke:none"
               d=""
               id="path7297"
               inkscape:connector-curvature="0" />
          </symbol>
          <symbol
             overflow="visible"
             id="textext-6439ccca-4"
             style="overflow:visible">
            <path
               style="stroke:none"
               d="M 1.8125,-4.65625 C 1.734375,-4.75 1.734375,-4.765625 1.59375,-4.765625 l -1.203125,0 0,0.25 0.203125,0 c 0.3125,0 0.484375,0.046875 0.515625,0.046875 l 0,3.71875 c 0,0.1875 0,0.5 -0.71875,0.5 l 0,0.25 c 0.28125,-0.015625 0.5625,-0.03125 0.84375,-0.03125 0.296875,0 0.578125,0.015625 0.859375,0.03125 l 0,-0.25 C 1.375,-0.25 1.375,-0.5625 1.375,-0.75 l 0,-3.515625 3.09375,4.15625 C 4.53125,0 4.546875,0 4.625,0 4.765625,0 4.765625,-0.0625 4.765625,-0.1875 l 0,-3.8125 c 0,-0.1875 0,-0.515625 0.71875,-0.515625 l 0,-0.25 C 5.1875,-4.734375 4.90625,-4.734375 4.625,-4.734375 c -0.28125,0 -0.5625,0 -0.84375,-0.03125 l 0,0.25 C 4.5,-4.515625 4.5,-4.1875 4.5,-4 l 0,2.953125 z m 0,0"
               id="path7300"
               inkscape:connector-curvature="0" />
          </symbol>
          <symbol
             overflow="visible"
             id="textext-6439ccca-5"
             style="overflow:visible">
            <path
               style="stroke:none"
               d="m 3.515625,-1.265625 -0.234375,0 c -0.015625,0.15625 -0.09375,0.5625 -0.1875,0.625 -0.046875,0.046875 -0.578125,0.046875 -0.6875,0.046875 l -1.28125,0 c 0.734375,-0.640625 0.984375,-0.84375 1.390625,-1.171875 0.515625,-0.40625 1,-0.84375 1,-1.5 0,-0.84375 -0.734375,-1.359375 -1.625,-1.359375 -0.859375,0 -1.453125,0.609375 -1.453125,1.25 0,0.34375 0.296875,0.390625 0.375,0.390625 0.15625,0 0.359375,-0.125 0.359375,-0.375 0,-0.125 -0.046875,-0.375 -0.40625,-0.375 C 0.984375,-4.21875 1.453125,-4.375 1.78125,-4.375 c 0.703125,0 1.0625,0.546875 1.0625,1.109375 0,0.609375 -0.4375,1.078125 -0.65625,1.328125 L 0.515625,-0.265625 C 0.4375,-0.203125 0.4375,-0.1875 0.4375,0 l 2.875,0 z m 0,0"
               id="path7303"
               inkscape:connector-curvature="0" />
          </symbol>
          <symbol
             overflow="visible"
             id="textext-6439ccca-6"
             style="overflow:visible">
            <path
               style="stroke:none"
               d=""
               id="path7306"
               inkscape:connector-curvature="0" />
          </symbol>
          <symbol
             overflow="visible"
             id="textext-6439ccca-7"
             style="overflow:visible">
            <path
               style="stroke:none"
               d="m 1.46875,-0.109375 c 0,0.375 -0.0625,0.828125 -0.546875,1.265625 C 0.90625,1.1875 0.875,1.21875 0.875,1.25 c 0,0.046875 0.0625,0.09375 0.09375,0.09375 0.109375,0 0.703125,-0.5625 0.703125,-1.390625 0,-0.421875 -0.171875,-0.75 -0.5,-0.75 -0.21875,0 -0.390625,0.171875 -0.390625,0.390625 C 0.78125,-0.1875 0.9375,0 1.1875,0 1.359375,0 1.46875,-0.109375 1.46875,-0.109375 z m 0,0"
               id="path7309"
               inkscape:connector-curvature="0" />
          </symbol>
        </g>
      </defs>
      <g
         id="textext-6439ccca-8"
         style="fill:#ff6600;stroke-width:1.4862448">
        <g
           style="fill:#ff6600;fill-opacity:1;stroke-width:1.4862448"
           id="g7312">
          <use
             xlink:href="#textext-6439ccca-1"
             x="224.901"
             y="132.246"
             id="use7314"
             width="1052.3622"
             height="744.09448"
             style="fill:#ff6600;stroke-width:1.4862448" />
        </g>
        <g
           style="fill:#ff6600;fill-opacity:1;stroke-width:1.4862448"
           id="g7316">
          <use
             xlink:href="#textext-6439ccca-2"
             x="223.43201"
             y="134.765"
             id="use7318"
             width="1052.3622"
             height="744.09448"
             style="fill:#ff6600;stroke-width:1.4862448" />
        </g>
        <g
           style="fill:#ff6600;fill-opacity:1;stroke-width:1.4862448"
           id="g7320">
          <use
             xlink:href="#textext-6439ccca-4"
             x="229.839"
             y="136.259"
             id="use7322"
             width="1052.3622"
             height="744.09448"
             style="fill:#ff6600;stroke-width:1.4862448" />
        </g>
        <g
           style="fill:#ff6600;fill-opacity:1;stroke-width:1.4862448"
           id="g7324">
          <use
             xlink:href="#textext-6439ccca-7"
             x="235.71899"
             y="136.259"
             id="use7326"
             width="1052.3622"
             height="744.09448"
             style="fill:#ff6600;stroke-width:1.4862448" />
        </g>
        <g
           style="fill:#ff6600;fill-opacity:1;stroke-width:1.4862448"
           id="g7328">
          <use
             xlink:href="#textext-6439ccca-5"
             x="238.086"
             y="136.259"
             id="use7330"
             width="1052.3622"
             height="744.09448"
             style="fill:#ff6600;stroke-width:1.4862448" />
        </g>
      </g>
    </g>
    <g
       id="g7694"
       style="fill:#ff6600;stroke:#aa0000;stroke-width:1.48919702"
       transform="matrix(3.5208048,0,0,3.5208048,-447.34515,245.70457)"
       ns0:preamble="/home/waldgeist/data/sphinx/inkscape-preamble.tex"
       ns0:text="$\\vec{F}_{\\rm{N,1}}$"
       inkscape:export-filename="/home/waldgeist/data/homepage/pics/physik/mechanik/kraftwandler-und-getriebe/schiefe-ebene-keilwirkung.png"
       inkscape:export-xdpi="150"
       inkscape:export-ydpi="150">
      <defs
         id="defs7696">
        <g
           id="g7698">
          <symbol
             id="textext-a2fa5dba-0"
             overflow="visible"
             style="overflow:visible">
            <path
               id="path7701"
               d=""
               style="stroke:none"
               inkscape:connector-curvature="0" />
          </symbol>
          <symbol
             id="textext-a2fa5dba-1"
             overflow="visible"
             style="overflow:visible">
            <path
               id="path7704"
               d="m 5.359375,-5.9375 c -0.140625,0.140625 -0.46875,0.421875 -0.46875,0.59375 0,0.09375 0.09375,0.203125 0.1875,0.203125 0.09375,0 0.140625,-0.078125 0.203125,-0.140625 C 5.390625,-5.421875 5.625,-5.703125 6.0625,-5.921875 6.125,-5.96875 6.234375,-6.015625 6.234375,-6.125 6.234375,-6.234375 6.15625,-6.28125 6.09375,-6.328125 5.875,-6.484375 5.765625,-6.65625 5.6875,-6.890625 5.65625,-6.984375 5.625,-7.125 5.484375,-7.125 c -0.140625,0 -0.203125,0.140625 -0.203125,0.21875 0,0.046875 0.078125,0.359375 0.234375,0.578125 l -3.359375,0 c -0.15625,0 -0.34375,0 -0.34375,0.203125 0,0.1875 0.1875,0.1875 0.34375,0.1875 z m 0,0"
               style="stroke:none"
               inkscape:connector-curvature="0" />
          </symbol>
          <symbol
             id="textext-a2fa5dba-2"
             overflow="visible"
             style="overflow:visible">
            <path
               id="path7707"
               d="m 3.015625,-3.234375 0.96875,0 c 0.75,0 0.828125,0.15625 0.828125,0.4375 0,0.078125 0,0.1875 -0.0625,0.5 C 4.71875,-2.25 4.71875,-2.21875 4.71875,-2.1875 c 0,0.078125 0.0625,0.109375 0.109375,0.109375 0.109375,0 0.109375,-0.03125 0.15625,-0.203125 L 5.53125,-4.453125 C 5.5625,-4.5625 5.5625,-4.578125 5.5625,-4.609375 5.5625,-4.625 5.546875,-4.71875 5.4375,-4.71875 5.34375,-4.71875 5.328125,-4.671875 5.296875,-4.5 5.078125,-3.734375 4.859375,-3.546875 4,-3.546875 l -0.90625,0 0.640625,-2.53125 C 3.828125,-6.4375 3.84375,-6.46875 4.28125,-6.46875 l 1.3125,0 c 1.21875,0 1.453125,0.328125 1.453125,1.09375 0,0.234375 0,0.265625 -0.03125,0.546875 C 7,-4.703125 7,-4.6875 7,-4.65625 c 0,0.046875 0.03125,0.125 0.125,0.125 0.109375,0 0.109375,-0.0625 0.125,-0.25 L 7.453125,-6.515625 C 7.484375,-6.78125 7.4375,-6.78125 7.1875,-6.78125 l -4.890625,0 c -0.1875,0 -0.296875,0 -0.296875,0.203125 0,0.109375 0.09375,0.109375 0.28125,0.109375 0.375,0 0.65625,0 0.65625,0.171875 0,0.046875 0,0.0625 -0.0625,0.25 L 1.5625,-0.78125 c -0.09375,0.390625 -0.109375,0.46875 -0.90625,0.46875 -0.171875,0 -0.28125,0 -0.28125,0.1875 C 0.375,0 0.5,0 0.53125,0 0.8125,0 1.5625,-0.03125 1.84375,-0.03125 2.171875,-0.03125 3,0 3.328125,0 3.421875,0 3.53125,0 3.53125,-0.1875 3.53125,-0.265625 3.484375,-0.296875 3.484375,-0.296875 3.453125,-0.3125 3.421875,-0.3125 3.203125,-0.3125 c -0.21875,0 -0.265625,0 -0.515625,-0.015625 -0.296875,-0.03125 -0.328125,-0.078125 -0.328125,-0.203125 0,-0.015625 0,-0.078125 0.046875,-0.21875 z m 0,0"
               style="stroke:none"
               inkscape:connector-curvature="0" />
          </symbol>
          <symbol
             id="textext-a2fa5dba-3"
             overflow="visible"
             style="overflow:visible">
            <path
               id="path7710"
               d=""
               style="stroke:none"
               inkscape:connector-curvature="0" />
          </symbol>
          <symbol
             id="textext-a2fa5dba-4"
             overflow="visible"
             style="overflow:visible">
            <path
               id="path7713"
               d="M 1.8125,-4.65625 C 1.734375,-4.75 1.734375,-4.765625 1.59375,-4.765625 l -1.203125,0 0,0.25 0.203125,0 c 0.3125,0 0.484375,0.046875 0.515625,0.046875 l 0,3.71875 c 0,0.1875 0,0.5 -0.71875,0.5 l 0,0.25 c 0.28125,-0.015625 0.5625,-0.03125 0.84375,-0.03125 0.296875,0 0.578125,0.015625 0.859375,0.03125 l 0,-0.25 C 1.375,-0.25 1.375,-0.5625 1.375,-0.75 l 0,-3.515625 3.09375,4.15625 C 4.53125,0 4.546875,0 4.625,0 4.765625,0 4.765625,-0.0625 4.765625,-0.1875 l 0,-3.8125 c 0,-0.1875 0,-0.515625 0.71875,-0.515625 l 0,-0.25 C 5.1875,-4.734375 4.90625,-4.734375 4.625,-4.734375 c -0.28125,0 -0.5625,0 -0.84375,-0.03125 l 0,0.25 C 4.5,-4.515625 4.5,-4.1875 4.5,-4 l 0,2.953125 z m 0,0"
               style="stroke:none"
               inkscape:connector-curvature="0" />
          </symbol>
          <symbol
             id="textext-a2fa5dba-5"
             overflow="visible"
             style="overflow:visible">
            <path
               id="path7716"
               d="m 2.328125,-4.4375 c 0,-0.1875 0,-0.1875 -0.203125,-0.1875 -0.453125,0.4375 -1.078125,0.4375 -1.359375,0.4375 l 0,0.25 c 0.15625,0 0.625,0 1,-0.1875 l 0,3.546875 c 0,0.234375 0,0.328125 -0.6875,0.328125 l -0.265625,0 0,0.25 c 0.125,0 0.984375,-0.03125 1.234375,-0.03125 0.21875,0 1.09375,0.03125 1.25,0.03125 l 0,-0.25 -0.265625,0 c -0.703125,0 -0.703125,-0.09375 -0.703125,-0.328125 z m 0,0"
               style="stroke:none"
               inkscape:connector-curvature="0" />
          </symbol>
          <symbol
             id="textext-a2fa5dba-6"
             overflow="visible"
             style="overflow:visible">
            <path
               id="path7719"
               d=""
               style="stroke:none"
               inkscape:connector-curvature="0" />
          </symbol>
          <symbol
             id="textext-a2fa5dba-7"
             overflow="visible"
             style="overflow:visible">
            <path
               id="path7722"
               d="m 1.46875,-0.109375 c 0,0.375 -0.0625,0.828125 -0.546875,1.265625 C 0.90625,1.1875 0.875,1.21875 0.875,1.25 c 0,0.046875 0.0625,0.09375 0.09375,0.09375 0.109375,0 0.703125,-0.5625 0.703125,-1.390625 0,-0.421875 -0.171875,-0.75 -0.5,-0.75 -0.21875,0 -0.390625,0.171875 -0.390625,0.390625 C 0.78125,-0.1875 0.9375,0 1.1875,0 1.359375,0 1.46875,-0.109375 1.46875,-0.109375 z m 0,0"
               style="stroke:none"
               inkscape:connector-curvature="0" />
          </symbol>
        </g>
      </defs>
      <g
         id="textext-a2fa5dba-8"
         style="fill:#ff6600;stroke-width:1.48919702"
         transform="translate(1.7041558,0)">
        <g
           id="g7725"
           style="fill:#ff6600;fill-opacity:1;stroke-width:1.48919702">
          <use
             id="use7727"
             y="132.246"
             x="224.901"
             xlink:href="#textext-a2fa5dba-1"
             width="1052.3622"
             height="744.09448"
             style="fill:#ff6600;stroke-width:1.48919702" />
        </g>
        <g
           id="g7729"
           style="fill:#ff6600;fill-opacity:1;stroke-width:1.48919702">
          <use
             id="use7731"
             y="134.765"
             x="223.43201"
             xlink:href="#textext-a2fa5dba-2"
             width="1052.3622"
             height="744.09448"
             style="fill:#ff6600;stroke-width:1.48919702" />
        </g>
        <g
           id="g7733"
           style="fill:#ff6600;fill-opacity:1;stroke-width:1.48919702">
          <use
             id="use7735"
             y="136.259"
             x="229.839"
             xlink:href="#textext-a2fa5dba-4"
             width="1052.3622"
             height="744.09448"
             style="fill:#ff6600;stroke-width:1.48919702" />
        </g>
        <g
           id="g7737"
           style="fill:#ff6600;fill-opacity:1;stroke-width:1.48919702">
          <use
             id="use7739"
             y="136.259"
             x="235.71899"
             xlink:href="#textext-a2fa5dba-7"
             width="1052.3622"
             height="744.09448"
             style="fill:#ff6600;stroke-width:1.48919702" />
        </g>
        <g
           id="g7741"
           style="fill:#ff6600;fill-opacity:1;stroke-width:1.48919702">
          <use
             id="use7743"
             y="136.259"
             x="238.086"
             xlink:href="#textext-a2fa5dba-5"
             width="1052.3622"
             height="744.09448"
             style="fill:#ff6600;stroke-width:1.48919702" />
        </g>
      </g>
    </g>
    <path
       style="fill:none;stroke:#808080;stroke-width:1px;stroke-linecap:round;stroke-linejoin:miter;stroke-opacity:1"
       d="m 532.81143,756.42192 14.99746,8.99746"
       id="path7925"
       inkscape:connector-curvature="0"
       sodipodi:nodetypes="cc"
       inkscape:export-filename="/home/waldgeist/data/homepage/pics/physik/mechanik/kraftwandler-und-getriebe/schiefe-ebene-keilwirkung.png"
       inkscape:export-xdpi="150"
       inkscape:export-ydpi="150" />
    <g
       transform="matrix(-1,0,0,1,1055.5829,-45.83056)"
       id="g7990"
       inkscape:export-filename="/home/waldgeist/data/homepage/pics/physik/mechanik/kraftwandler-und-getriebe/schiefe-ebene-keilwirkung.png"
       inkscape:export-xdpi="150"
       inkscape:export-ydpi="150">
      <path
         inkscape:connector-curvature="0"
         id="path7992"
         d="m 401.86292,738.30264 128.20687,47.95527"
         style="fill:#ff6600;stroke:#ff6600;stroke-width:3;stroke-linecap:round;stroke-linejoin:miter;stroke-miterlimit:4;stroke-opacity:1;stroke-dasharray:3, 9;stroke-dashoffset:0"
         sodipodi:nodetypes="cc" />
    </g>
    <g
       inkscape:export-ydpi="150"
       inkscape:export-xdpi="150"
       inkscape:export-filename="/home/waldgeist/data/homepage/pics/physik/mechanik/kraftwandler-und-getriebe/schiefe-ebene-keilwirkung.png"
       id="g5623"
       transform="translate(-50.490632,-27.090695)">
      <path
         inkscape:transform-center-x="-3.0302635"
         transform="matrix(-0.51033797,0.00588445,0.00835609,0.72615746,202.29608,-408.48879)"
         inkscape:transform-center-y="-0.00017641075"
         d="m -707.10675,1620.0679 -5.24891,-9.0914 -5.2489,-9.0914 10.49781,0 10.49781,0 -5.2489,9.0914 z"
         inkscape:randomized="0"
         inkscape:rounded="0"
         inkscape:flatsided="false"
         sodipodi:arg2="2.6179939"
         sodipodi:arg1="1.5707963"
         sodipodi:r2="6.060915"
         sodipodi:r1="12.121831"
         sodipodi:cy="1607.946"
         sodipodi:cx="-707.10675"
         sodipodi:sides="3"
         id="path5335"
         style="fill:#d40000;stroke:#d40000;stroke-width:4.92774343;stroke-miterlimit:4;stroke-dasharray:none"
         sodipodi:type="star" />
      <path
         sodipodi:nodetypes="cc"
         style="fill:#d40000;stroke:#d40000;stroke-width:2.99999976;stroke-linecap:round;stroke-linejoin:miter;stroke-miterlimit:4;stroke-opacity:1;stroke-dasharray:none"
         d="m 576.20216,673.88961 0.39349,81.08268"
         id="path5333"
         inkscape:connector-curvature="0" />
    </g>
  </g>
</svg>
