<svg xmlns:ns0="http://www.iki.fi/pav/software/textext/" xmlns="http://www.w3.org/2000/svg" xmlns:xlink="http://www.w3.org/1999/xlink" height="744.094" width="1052.362"><title>Schiefe Ebene -- Kraftzerlegung</title><defs><marker id="n" orient="auto" overflow="visible"><path transform="matrix(-.3 0 0 -.3 .69 0)" d="M8.719 4.034L-2.207.016 8.719-4.002c-1.746 2.372-1.736 5.618 0 8.036z" fill-rule="evenodd" stroke-width=".625" stroke-linejoin="round"/></marker><marker id="l" orient="auto" overflow="visible"><path d="M4 0l2-2-7 2 7 2-2-2z" fill-rule="evenodd" stroke="#000" stroke-width=".4pt"/></marker><marker id="m" orient="auto" overflow="visible"><path d="M-4 0l-2 2 7-2-7-2 2 2z" fill-rule="evenodd" stroke="#000" stroke-width=".4pt"/></marker><filter id="a"><feGaussianBlur stdDeviation="1.221"/></filter></defs><g transform="translate(0 -308.268)"><rect style="marker:none" width="775.797" height="530.034" x="-914.08" y="415.298" rx="0" ry="0" transform="scale(-1 1)" color="#000" fill="#fff" stroke="#fff" stroke-width="10" stroke-linecap="round" stroke-linejoin="bevel" overflow="visible" enable-background="accumulate"/><g color="#000" fill="none" stroke="#333" stroke-linecap="round" stroke-linejoin="round"><path style="marker:none" d="M571.187 617.953c3.958 14.773-4.27 29.813-18.379 33.593" opacity=".5" stroke-width="2.00001204" overflow="visible" enable-background="accumulate"/><path transform="matrix(.0229 -.00614 .00614 .0229 536.589 627.122)" d="M881.73 495.779c0 34.479-26.694 62.43-59.623 62.43-32.93 0-59.624-27.951-59.624-62.43s26.695-62.43 59.624-62.43c32.93 0 59.624 27.951 59.624 62.43z" style="marker:none" opacity=".5" stroke-width="126.556" overflow="visible" filter="url(#a)" enable-background="accumulate"/></g><path d="M853.838 602.041v237.775H188.682z" fill="#f2f2f2" stroke="#164450"/><g color="#000" fill="none" stroke="#333" stroke-linecap="round" stroke-linejoin="round"><path d="M650.307 738.023c-14.772 3.958-23.683 18.605-19.903 32.713" style="marker:none" opacity=".5" stroke-width="2.00001204" overflow="visible" enable-background="accumulate"/><path style="marker:none" d="M881.73 495.779c0 34.479-26.694 62.43-59.623 62.43-32.93 0-59.624-27.951-59.624-62.43s26.695-62.43 59.624-62.43c32.93 0 59.624 27.951 59.624 62.43z" transform="scale(-.0237 .0237) rotate(-75 7322.71 34428.805)" opacity=".5" stroke-width="126.556" overflow="visible" filter="url(#a)" enable-background="accumulate"/></g><path d="M542.19 628.765l59.454 153.181" fill="#f60" stroke="#f60" stroke-width="3" stroke-linecap="round" stroke-dasharray="3,9"/><path d="M659.388 761.141l-57.744 20.805" fill="#f60" stroke="#f60" stroke-width="3" stroke-linecap="round" stroke-dasharray="3,9.00000001"/><g transform="translate(-649.944 86.912) scale(5.24317)" ns0:text="$\\vec{F}_{\\rm{G}}$" ns0:preamble="/home/waldgeist/data/sphinx/inkscape-preamble.tex" fill="#d40000" stroke="#a00"><defs><symbol overflow="visible" id="b"><path d="M5.36-5.938c-.141.141-.47.422-.47.594 0 .094.094.203.188.203s.14-.078.203-.14c.11-.14.344-.422.782-.64.062-.048.171-.095.171-.204 0-.11-.078-.156-.14-.203a1.034 1.034 0 0 1-.407-.563c-.03-.093-.062-.234-.203-.234-.14 0-.203.14-.203.219 0 .047.078.36.235.578h-3.36c-.156 0-.344 0-.344.203 0 .188.188.188.344.188zm0 0" stroke="none"/></symbol><symbol overflow="visible" id="c"><path d="M3.016-3.234h.968c.75 0 .829.156.829.437 0 .078 0 .188-.063.5-.031.047-.031.078-.031.11 0 .078.062.109.11.109.109 0 .109-.031.155-.203l.547-2.172c.032-.11.032-.125.032-.156a.117.117 0 0 0-.125-.11c-.094 0-.11.047-.141.219-.219.766-.438.953-1.297.953h-.906l.64-2.531c.094-.36.11-.39.547-.39h1.313c1.218 0 1.453.327 1.453 1.093 0 .234 0 .266-.031.547C7-4.703 7-4.688 7-4.656c0 .047.031.125.125.125.11 0 .11-.063.125-.25l.203-1.735c.031-.265-.016-.265-.266-.265h-4.89c-.188 0-.297 0-.297.203 0 .11.094.11.281.11.375 0 .656 0 .656.171 0 .047 0 .063-.062.25L1.562-.78c-.093.39-.109.469-.906.469-.172 0-.281 0-.281.187C.375 0 .5 0 .531 0c.281 0 1.031-.031 1.313-.031C2.172-.031 3 0 3.328 0c.094 0 .203 0 .203-.188 0-.078-.047-.109-.047-.109-.03-.016-.062-.016-.28-.016-.22 0-.267 0-.517-.015-.296-.031-.328-.078-.328-.203 0-.016 0-.078.047-.219zm0 0" stroke="none"/></symbol><symbol overflow="visible" id="d"><path d="M5.188-1.36c0-.312.078-.312.546-.312v-.25c-.062 0-.562.031-.906.031-.375 0-.89 0-1.266-.03v.25h.266c.703 0 .703.093.703.312v.453c0 .156 0 .422-.406.625-.328.172-.719.172-.813.172-.796 0-2.078-.454-2.078-2.282 0-1.843 1.329-2.25 2.016-2.25.672 0 1.516.454 1.688 1.657.015.078.078.078.125.078.125 0 .125-.047.125-.188v-1.625c0-.125 0-.187-.094-.187-.032 0-.063 0-.125.093l-.36.532a1.994 1.994 0 0 0-1.453-.625C1.703-4.906.484-3.781.484-2.391.484-1 1.672.141 3.172.141c.39 0 1.156-.078 1.484-.563.125.188.375.422.453.422.079 0 .079-.078.079-.188zm0 0" stroke="none"/></symbol></defs><g stroke-width="1.193"><use height="744.094" width="1052.362" xlink:href="#b" x="224.901" y="132.246" transform="matrix(.8379 0 0 .8379 42.571 25.773)"/><use height="744.094" width="1052.362" xlink:href="#c" x="223.432" y="134.765" transform="matrix(.8379 0 0 .8379 42.571 25.773)"/><use height="744.094" width="1052.362" xlink:href="#d" x="229.839" y="136.259" transform="matrix(.8379 0 0 .8379 42.571 25.773)"/></g></g><g transform="matrix(4.20118 0 0 4.20118 -302.33 116.613)" ns0:preamble="/home/waldgeist/data/sphinx/inkscape-preamble.tex" ns0:text="$\\vec{F}_{\\rm{N}}$" fill="#f60" stroke="#a00" stroke-width="1.248"><defs><symbol id="e" overflow="visible"><path d="M5.36-5.938c-.141.141-.47.422-.47.594 0 .094.094.203.188.203s.14-.078.203-.14c.11-.14.344-.422.782-.64.062-.048.171-.095.171-.204 0-.11-.078-.156-.14-.203a1.034 1.034 0 0 1-.407-.563c-.03-.093-.062-.234-.203-.234-.14 0-.203.14-.203.219 0 .047.078.36.235.578h-3.36c-.156 0-.344 0-.344.203 0 .188.188.188.344.188zm0 0" stroke="none"/></symbol><symbol id="f" overflow="visible"><path d="M3.016-3.234h.968c.75 0 .829.156.829.437 0 .078 0 .188-.063.5-.031.047-.031.078-.031.11 0 .078.062.109.11.109.109 0 .109-.031.155-.203l.547-2.172c.032-.11.032-.125.032-.156a.117.117 0 0 0-.125-.11c-.094 0-.11.047-.141.219-.219.766-.438.953-1.297.953h-.906l.64-2.531c.094-.36.11-.39.547-.39h1.313c1.218 0 1.453.327 1.453 1.093 0 .234 0 .266-.031.547C7-4.703 7-4.688 7-4.656c0 .047.031.125.125.125.11 0 .11-.063.125-.25l.203-1.735c.031-.265-.016-.265-.266-.265h-4.89c-.188 0-.297 0-.297.203 0 .11.094.11.281.11.375 0 .656 0 .656.171 0 .047 0 .063-.062.25L1.562-.78c-.093.39-.109.469-.906.469-.172 0-.281 0-.281.187C.375 0 .5 0 .531 0c.281 0 1.031-.031 1.313-.031C2.172-.031 3 0 3.328 0c.094 0 .203 0 .203-.188 0-.078-.047-.109-.047-.109-.03-.016-.062-.016-.28-.016-.22 0-.267 0-.517-.015-.296-.031-.328-.078-.328-.203 0-.016 0-.078.047-.219zm0 0" stroke="none"/></symbol><symbol id="g" overflow="visible"><path d="M1.813-4.656c-.079-.094-.079-.11-.22-.11H.392v.25h.203c.312 0 .484.047.515.047V-.75c0 .188 0 .5-.718.5V0c.28-.016.562-.031.843-.031.297 0 .579.015.86.031v-.25c-.719 0-.719-.313-.719-.5v-3.516L4.469-.109C4.53 0 4.547 0 4.625 0c.14 0 .14-.063.14-.188V-4c0-.188 0-.516.72-.516v-.25c-.298.032-.579.032-.86.032s-.563 0-.844-.032v.25c.719 0 .719.329.719.516v2.953zm0 0" stroke="none"/></symbol></defs><use y="132.246" x="224.901" xlink:href="#e" width="1052.362" height="744.094" transform="translate(.476 .952)"/><use y="134.765" x="223.432" xlink:href="#f" width="1052.362" height="744.094" transform="translate(.476 .952)"/><use y="136.259" x="229.839" xlink:href="#g" width="1052.362" height="744.094" transform="translate(.476 .952)"/></g><g ns0:text="$\\vec{F}_{\\rm{HA}}$" ns0:preamble="/home/waldgeist/data/sphinx/inkscape-preamble.tex" transform="matrix(3.98314 0 0 3.98314 -367.724 56.365)" fill="#f60" stroke="#a00" stroke-width="1.316"><defs><symbol overflow="visible" id="h"><path d="M5.36-5.938c-.141.141-.47.422-.47.594 0 .094.094.203.188.203s.14-.078.203-.14c.11-.14.344-.422.782-.64.062-.048.171-.095.171-.204 0-.11-.078-.156-.14-.203a1.034 1.034 0 0 1-.407-.563c-.03-.093-.062-.234-.203-.234-.14 0-.203.14-.203.219 0 .047.078.36.235.578h-3.36c-.156 0-.344 0-.344.203 0 .188.188.188.344.188zm0 0" stroke="none"/></symbol><symbol overflow="visible" id="i"><path d="M3.016-3.234h.968c.75 0 .829.156.829.437 0 .078 0 .188-.063.5-.031.047-.031.078-.031.11 0 .078.062.109.11.109.109 0 .109-.031.155-.203l.547-2.172c.032-.11.032-.125.032-.156a.117.117 0 0 0-.125-.11c-.094 0-.11.047-.141.219-.219.766-.438.953-1.297.953h-.906l.64-2.531c.094-.36.11-.39.547-.39h1.313c1.218 0 1.453.327 1.453 1.093 0 .234 0 .266-.031.547C7-4.703 7-4.688 7-4.656c0 .047.031.125.125.125.11 0 .11-.063.125-.25l.203-1.735c.031-.265-.016-.265-.266-.265h-4.89c-.188 0-.297 0-.297.203 0 .11.094.11.281.11.375 0 .656 0 .656.171 0 .047 0 .063-.062.25L1.562-.78c-.093.39-.109.469-.906.469-.172 0-.281 0-.281.187C.375 0 .5 0 .531 0c.281 0 1.031-.031 1.313-.031C2.172-.031 3 0 3.328 0c.094 0 .203 0 .203-.188 0-.078-.047-.109-.047-.109-.03-.016-.062-.016-.28-.016-.22 0-.267 0-.517-.015-.296-.031-.328-.078-.328-.203 0-.016 0-.078.047-.219zm0 0" stroke="none"/></symbol><symbol overflow="visible" id="j"><path d="M4.766-4.188c0-.25.015-.328.546-.328h.172v-.25c-.359.016-.796.032-1.046.032-.266 0-.704-.016-1.063-.032v.25h.172c.531 0 .547.079.547.329v1.593H1.766v-1.594c0-.25.015-.328.562-.328h.156v-.25c-.343.016-.796.032-1.046.032S.734-4.75.39-4.766v.25h.171c.532 0 .547.079.547.329v3.625c0 .234-.015.312-.546.312H.39V0c.343-.016.796-.031 1.046-.031s.704.015 1.047.031v-.25h-.156c-.547 0-.562-.078-.562-.313v-1.78h2.328v1.78c0 .235-.016.313-.547.313h-.172V0c.36-.016.797-.031 1.047-.031.266 0 .703.015 1.062.031v-.25h-.171c-.532 0-.547-.078-.547-.313zm0 0" stroke="none"/></symbol><symbol overflow="visible" id="k"><path d="M3.125-4.813c-.031-.109-.063-.156-.188-.156-.14 0-.156.047-.203.157L1.125-.734C1.062-.563.937-.25.312-.25V0c.235-.016.485-.031.72-.031.28 0 .796.031.843.031v-.25c-.313 0-.516-.14-.516-.328 0-.063.016-.078.047-.14l.328-.86H3.72l.406 1.016c0 .03.031.078.031.109 0 .203-.375.203-.562.203V0c.344-.016.797-.031 1.031-.031.328 0 .86.031.922.031v-.25h-.125c-.469 0-.516-.078-.594-.266zm-.406.72l.89 2.265H1.83zm0 0" stroke="none"/></symbol></defs><use height="744.094" width="1052.362" xlink:href="#h" x="224.901" y="132.246"/><use height="744.094" width="1052.362" xlink:href="#i" x="223.432" y="134.765"/><use height="744.094" width="1052.362" xlink:href="#j" x="229.839" y="136.259"/><use height="744.094" width="1052.362" xlink:href="#k" x="235.72" y="136.259"/></g><path d="M883.551 602.041v237.775M188.942 875.482h665.156" fill="none" stroke="#000" stroke-width="2" marker-start="url(#l)" marker-end="url(#m)"/><path transform="matrix(-.88818 .23954 .23799 .89397 850.294 204.55)" d="M651.255 535.258c-19.436-15.779-24.241-46.973-10.733-69.674.655-1.1 1.347-2.17 2.075-3.205" style="marker:none" color="#000" fill="none" stroke="#000" stroke-width="3.252" stroke-linecap="round" stroke-linejoin="bevel" marker-end="url(#n)" overflow="visible" enable-background="accumulate"/><g transform="translate(-830.193 115.562) scale(5.24317)" ns0:preamble="/home/waldgeist/data/sphinx/inkscape-preamble.tex" ns0:text="$\\alpha$" fill="#d40000" stroke="#a00"><defs><symbol id="o" overflow="visible"><path d="M4.75-2.36c0-1.562-.922-2.046-1.656-2.046-1.375 0-2.688 1.422-2.688 2.828C.406-.641 1 .109 2.031.109c.625 0 1.344-.234 2.094-.843.125.53.453.843.906.843.532 0 .844-.546.844-.703 0-.078-.063-.11-.125-.11-.063 0-.094.032-.125.11-.188.485-.547.485-.563.485-.312 0-.312-.782-.312-1.016 0-.203 0-.234.11-.344C5.796-2.656 6-3.812 6-3.812c0-.032-.016-.11-.125-.11-.094 0-.094.031-.14.219-.188.625-.516 1.375-.985 1.969zM4.094-.983c-.89.765-1.657.875-2.047.875-.594 0-.906-.454-.906-1.094 0-.484.265-1.563.578-2.063.468-.734 1.015-.921 1.36-.921.983 0 .983 1.312.983 2.078 0 .375 0 .953.032 1.125zm0 0" stroke="none"/></symbol></defs><use y="134.765" x="223.432" xlink:href="#o" width="1052.362" height="744.094" fill="#000"/></g><g transform="translate(-275.124 32.192) scale(5.24317)" ns0:preamble="/home/waldgeist/data/sphinx/inkscape-preamble.tex" ns0:text="$h$" fill="#d40000" stroke="#a00"><defs><symbol id="p" overflow="visible"><path d="M2.86-6.813s0-.109-.126-.109c-.234 0-.953.078-1.218.11-.079 0-.188.015-.188.187 0 .125.094.125.234.125.485 0 .5.063.5.172l-.03.203L.593-.391C.547-.25.547-.234.547-.17c0 .234.203.28.297.28a.407.407 0 0 0 .36-.265l.187-.75.218-.89c.063-.235.125-.454.172-.673.016-.062.11-.39.11-.453.03-.094.343-.64.687-.922.219-.156.516-.344.953-.344.422 0 .531.344.531.704 0 .53-.375 1.625-.609 2.234-.078.219-.14.344-.14.547 0 .469.359.812.828.812.937 0 1.296-1.453 1.296-1.53 0-.11-.078-.11-.109-.11-.11 0-.11.031-.156.187-.14.532-.469 1.235-1.016 1.235-.172 0-.234-.094-.234-.329 0-.25.078-.484.172-.703.156-.437.61-1.625.61-2.203 0-.64-.391-1.062-1.141-1.062-.626 0-1.11.312-1.485.765zm0 0" stroke="none"/></symbol></defs><use y="134.765" x="223.432" xlink:href="#p" width="1052.362" height="744.094" fill="#000"/></g><g ns0:text="$b$" ns0:preamble="/home/waldgeist/data/sphinx/inkscape-preamble.tex" transform="translate(-651.878 217.848) scale(5.24317)" fill="#d40000" stroke="#a00"><defs><symbol overflow="visible" id="q"><path d="M2.375-6.813s0-.109-.125-.109c-.219 0-.953.078-1.219.11-.078 0-.187.015-.187.187 0 .125.094.125.25.125.468 0 .484.063.484.172 0 .062-.078.406-.125.61l-.828 3.25c-.11.5-.156.671-.156 1.015C.469-.516 1 .109 1.734.109c1.172 0 2.407-1.484 2.407-2.921 0-.907-.532-1.594-1.329-1.594-.453 0-.874.297-1.171.593zm-.922 3.766c.047-.219.047-.234.14-.344.485-.64.938-.796 1.204-.796.36 0 .625.296.625.937 0 .594-.328 1.734-.516 2.11-.328.671-.781 1.03-1.172 1.03-.343 0-.671-.265-.671-1 0-.202 0-.39.156-1.015zm0 0" stroke="none"/></symbol></defs><use height="744.094" width="1052.362" xlink:href="#q" x="223.432" y="134.765" fill="#000" transform="translate(.381)"/></g><g fill="#f60" stroke="#f60"><path d="M559.814 70.722l35.25-.373" stroke-width="2.624" stroke-linecap="round" transform="matrix(-1.27222 .45675 .32676 .91014 1290.675 286.748)"/><path transform="matrix(-.16679 -.4645 -.6493 .23313 1478.777 -79.325)" d="M-707.107 1620.068l-5.249-9.091-5.249-9.092h20.996l-5.249 9.091z" stroke-width="5.141"/></g><g fill="#d40000" stroke="#d40000"><path d="M-707.107 1620.068l-5.249-9.091-5.249-9.092h20.996l-5.249 9.091z" transform="matrix(-.51034 .00588 .00836 .72616 227.015 -391.43)" stroke-width="4.928"/><path d="M601.577 607.81l.257 168.857" stroke-width="3" stroke-linecap="round"/></g><g fill="#f60" stroke="#f60"><path d="M602.802 607.054l55.033 144.542" stroke-width="3" stroke-linecap="round"/><path d="M-707.107 1620.068l-5.249-9.091-5.249-9.092h20.996l-5.249 9.091z" transform="matrix(-.4645 .16679 .23313 .6493 -45.863 -175.806)" stroke-width="5.141"/></g><path d="M129.868 674.56l665.156-237.774" fill="none" stroke="#000" stroke-width="2" marker-start="url(#l)" marker-end="url(#m)"/><path style="marker:none" d="M651.255 535.258c-19.436-15.779-24.241-46.973-10.733-69.674.655-1.1 1.347-2.17 2.075-3.205" transform="matrix(.18426 .31795 .32034 -.18426 308.8 592.275)" color="#000" fill="none" stroke="#000" stroke-width="5.427" stroke-linecap="round" stroke-linejoin="bevel" marker-end="url(#n)" overflow="visible" enable-background="accumulate"/><use height="744.094" width="1052.362" xlink:href="#o" x="223.432" y="134.765" fill="#000" transform="matrix(2.74038 0 0 2.74038 -31.489 352.986)" ns0:text="$\\alpha$" ns0:preamble="/home/waldgeist/data/sphinx/inkscape-preamble.tex" stroke="#a00" stroke-width="1.913"/><path transform="matrix(-.1857 -.32043 -.32284 .1857 894.57 794.316)" d="M651.255 535.258c-19.436-15.779-24.241-46.973-10.733-69.674.655-1.1 1.347-2.17 2.075-3.205" style="marker:none" color="#000" fill="none" stroke="#000" stroke-width="5.385" stroke-linecap="round" stroke-linejoin="bevel" marker-end="url(#n)" overflow="visible" enable-background="accumulate"/><use y="134.765" x="223.432" xlink:href="#o" width="1052.362" height="744.094" fill="#000" transform="matrix(2.74038 0 0 2.74038 -9.29 304.691)" ns0:preamble="/home/waldgeist/data/sphinx/inkscape-preamble.tex" ns0:text="$\\alpha$" stroke="#a00" stroke-width="1.913"/><g transform="translate(-711.655 -176.844) scale(5.24317)" ns0:preamble="/home/waldgeist/data/sphinx/inkscape-preamble.tex" ns0:text="$l$" fill="#d40000" stroke="#a00"><defs><symbol id="r" overflow="visible"><path d="M2.578-6.813s0-.109-.14-.109c-.22 0-.954.078-1.22.11-.077 0-.187.015-.187.203 0 .109.11.109.25.109.485 0 .5.094.5.172l-.031.203L.484-1.141a.973.973 0 0 0-.046.329.89.89 0 0 0 .906.921c.328 0 .578-.203.75-.562.172-.375.297-.953.297-.969 0-.11-.094-.11-.125-.11-.094 0-.11.048-.125.188-.172.64-.36 1.235-.766 1.235-.297 0-.297-.313-.297-.454 0-.25.016-.296.063-.484zm0 0" stroke="none"/></symbol></defs><use y="134.765" x="223.432" xlink:href="#r" width="1052.362" height="744.094" fill="#000"/></g></g></svg>