<svg xmlns="http://www.w3.org/2000/svg" width="1052.362" height="744.094"><title>Stangen-Flaschenzug</title><defs><filter id="a" color-interpolation-filters="sRGB"><feGaussianBlur stdDeviation=".247"/></filter></defs><g transform="translate(0 -308.268)"><rect width="975.807" height="737.411" x="38.277" y="311.609" rx="3.897" ry="17.866" fill="#fff" stroke="#fff"/><rect width="16.346" height="570.678" x="408.217" y="-906.853" rx="3.897" ry="17.866" transform="scale(1 -1)" fill="#a05a2c" stroke="#000" stroke-width="3"/><path d="M408.217 406.526l421.505 91.775-421.505 91.775 421.505 91.775-421.505 91.775L829.722 865.4l-421.505 91.775" fill="none" stroke="#000" stroke-width="6" stroke-linecap="round"/><rect transform="scale(-1)" ry="17.866" rx="3.897" y="-906.853" x="-829.722" height="570.678" width="16.346" fill="#a05a2c" stroke="#000" stroke-width="3"/><g stroke="#000" stroke-width="10.179"><path d="M797.16 418.922c.133 3.407 6.631 4.772 2.215 7.775-2.434 4.31.751 9.098 2.408 12.358-4.65 3.233-3.063 10.477 1.327 13.193 4.734 2.693-5.223 5.98-1.153 10.525 2.386 2.661 7.823 8.339 10.795 6.46-1.24-4.886 5.318-5.432 8.718-6.008 3.58-.607 10.931-5.813 9.315 1.25 1.055 4.532-2.71 11.158 4.766 11.33 6.804.158 12.94-1.187 19.633-.884 4.858.22 7.175 3.451 10.985 5.148l33.78 16.98c.02-17.231.042-34.462.064-51.694-6.46-1.813-13.478-2.248-19.38-5.44-5.873-3.176-7.188-9.863-9.207-16.21-2.856-8.975-7.912-17.097-11.858-25.65-4.105-5.075-11.319-5.654-16.397-9.498-4.03-4.535-11.71-4.608-14.862.871-1.25 5.72-11.317 2.836-10.847 8.84 2.336 6.196 10.465 4.683 15.76 5.164 3.963-2.117 9.088 2.359 4.232 5.213-3.015 5.159-8.964 1.825-13.359 1.467-5.04.143-9.722-.16-14.19-1.51-5.078-.878-11.216 1.643-12.495 6.97-.29 1.089-.22 2.234-.25 3.35z" fill="#fca" stroke-width=".9999849599999999"/><path d="M804.958 454.473c6.867-1.817 13.706-3.903 20.83-4.394 3.507-.436 8.346-1.692 10.134 2.446 1.312 3.68-2.147 6.816-5.21 8.123" fill="none" stroke-linecap="round" stroke-width=".9999849599999999"/><path d="M804.642 451.789c4.937-.079 9.932.426 14.737-.983 5.12-.559 10.218-1.438 15.38-1.17 5.343.422 10.294-7.392 5.432-11.111-4.885-2.748-10.86.897-16.26-.204a590.49 590.49 0 0 0-21.71.275" fill="none" stroke-linecap="round" stroke-width=".9999849599999999"/><path d="M838.15 437.368c6.816-2.223 5.59-12.31-1.23-13.306-5.878.1-11.702-.382-17.57.086-6.026.462-12.705-3.472-18.216.273M834.5 423.93c5.824-2.637 3.623-11.217-2.269-11.997l-.397-.143" fill="none" stroke-width=".9999849599999999"/><path d="M839.904 406c.446 2.15 2.333 4.34 4.737 3.404M840.01 405.86c1.742 1.239 5.117 1.251 5.824-1.157M837.553 402.808c1.777-.467 4.166-2.99 4.702-5.438" fill="none" stroke-width=".49994336" stroke-linecap="round"/><path d="M819.46 395.04c3.137 1.123 12.316 2.016 10.262-3.32-3.43-.467-7.175 2.184-10.261 3.32z" fill="#ccc" stroke-width=".9999849599999999"/><path d="M857.553 446.526c-5.109-.531-10.148-1.504-14.737-3.93" fill="none" stroke-width=".74996416" stroke-linecap="round"/><path d="M834.697 442.755c-.122 6.905 10.655 2.74 6.45-2.373-1.976-2.508-7.072-1.225-6.45 2.373zM827.302 453.273c.719 6.575 12.988 2.219 6.236-2.572-1.956-.073-6.094-.107-6.236 2.572zM835.526 431.764c1.146 7.342 11.142.649 5.722-4.002-2.948-1.627-6.202.592-5.722 4.002zM828.25 419.097c1.698 7.055 14.116 1.524 7.41-3.997-2.757-1.24-8.161-.04-7.41 3.997z" fill="#ccc" stroke-width=".9999849599999999"/><path d="M861.973 476.209c6.556-2.399 6.375-9.847 7.773-15.49.784-6.475 5.583-11.689 6.683-16.79" fill="none" stroke-linecap="round" stroke-width=".9999849599999999"/><path d="M835.518 411.264c5.257 2.286 11.624-.354 14.386-5.228M871.938 443.508c-1.204 4.562-6.396 7.108-10.807 7.158" fill="none" stroke-width=".74996416" stroke-linecap="round"/></g><path d="M803.985 687.455l25.737-5.604M803.985 503.905l25.737-5.604M433.954 779.23l-25.737-5.604M433.954 595.68l-25.737-5.604M433.954 412.13l-25.737-5.604" fill="none" stroke="#000" stroke-width="6" stroke-linecap="round"/><g fill="none" stroke="#000" stroke-width="6" stroke-linecap="round"><path d="M803.985 871.004l25.737-5.604M408.217 410.804l16.346-3.88"/></g><path d="M118.264 1020.307l289.953-63.132" fill="none" stroke="#000" stroke-width="6" stroke-linecap="round"/><g stroke="#000" stroke-width="18.594"><path d="M365.396 836.137c6.655-3.41 12.063-8.738 18.078-13.116 4.668-3.64 10.17-5.982 14.85-9.611 1.622-1.171 3.124-3.061 5.137-3.041 2.169.021 5.59.112 5.072 3.227 4.537-.752 9.03.05 13.496.824 4.594-.045 8.686 1.984 12.158 4.872 3.185 2.942 7.214 5.799 8.652 9.978 1.618 3.641-.312 7.09-3.468 8.971 1.992 3.61 3.902 8.217 1.66 12.256-1.135 2.175-4.298 2.553-1.798 5.09 1.916 4.271.207 10.47-5.154 10.674 4.064 2.32 3.516 10.038-1.25 11.356-4.303 1.363-7.343 5.129-11.8 6.14-5.104 2.233-10.077 5.584-15.92 5.16-8.054.011-16.2-1.834-23.274-5.734-4.513-2.736-10.344-3.935-15.233-1.463-4.477 1.19-9.085 1.634-13.694 1.903l-3.994-42.677c5.52-1.498 11.227-2.464 16.482-4.809z" fill="#fca" stroke-width=".9999853200000001"/><path d="M425.917 814.93s3.06 3.384 4.237 5.323c.37.61.87 1.956.87 1.956M439.553 838.018s-2.837-2.314-4.453-3.144c-1.382-.71-4.403-1.528-4.403-1.528M437.868 853.392s-2.683-1.314-4.128-1.63c-1.294-.283-3.966-.217-3.966-.217M433.74 866.104s-1.533.067-2.282.217a16.317 16.317 0 0 0-3.314 1.032c-.632.277-1.793 1.033-1.793 1.033M410.162 879.903s7.268.162 10.214-1.63c1.615-.983 2.952-2.72 3.368-4.563.292-1.296.07-2.875-.76-3.912-.396-.494-1.74-.76-1.74-.76M419.832 863.062s3.562.825 5.107.108c2.453-1.137 4.257-4.1 4.722-6.762.139-1.718-.957-2.851-2.114-4.103M421.462 845.352s4.698.834 6.736-.11c2.143-.99 3.99-3.063 4.672-5.323.391-1.295.114-2.838-.543-4.02-1.05-1.889-4.998-4.129-4.998-4.129M407.99 813.19l-4.262.645-3.888 1.529" fill="none" stroke-width=".75001588" stroke-linecap="round"/></g><path d="M531.009 556.251c0 2.44-2.47 4.42-5.517 4.42-3.046 0-5.516-1.98-5.516-4.42s2.47-4.42 5.516-4.42c3.047 0 5.517 1.98 5.517 4.42z" transform="matrix(-.74283 0 0 1.03996 816.286 260.1)" opacity=".5" fill="#ffe6d5" stroke="#e9c6af" stroke-width="1.138" stroke-linecap="round" stroke-linejoin="bevel" filter="url(#a)"/><path transform="matrix(-.6073 -.16273 -.22782 .85023 869.074 469.678)" d="M531.009 556.251c0 2.44-2.47 4.42-5.517 4.42-3.046 0-5.516-1.98-5.516-4.42s2.47-4.42 5.516-4.42c3.047 0 5.517 1.98 5.517 4.42z" opacity=".5" fill="#ffe6d5" stroke="#e9c6af" stroke-width="1.344" stroke-linecap="round" stroke-linejoin="bevel" filter="url(#a)"/><path d="M531.009 556.251c0 2.44-2.47 4.42-5.517 4.42-3.046 0-5.516-1.98-5.516-4.42s2.47-4.42 5.516-4.42c3.047 0 5.517 1.98 5.517 4.42z" transform="matrix(-.5445 -.31436 -.44011 .7623 948.81 614.784)" opacity=".5" fill="#ffe6d5" stroke="#e9c6af" stroke-width="1.344" stroke-linecap="round" stroke-linejoin="bevel" filter="url(#a)"/><path d="M531.009 556.251c0 2.44-2.47 4.42-5.517 4.42-3.046 0-5.516-1.98-5.516-4.42s2.47-4.42 5.516-4.42c3.047 0 5.517 1.98 5.517 4.42z" transform="matrix(.6073 -.16273 .22782 .85023 -21.705 433.098)" opacity=".5" fill="#ffe6d5" stroke="#e9c6af" stroke-width="1.344" stroke-linecap="round" stroke-linejoin="bevel" filter="url(#a)"/><g><g stroke="#000" stroke-width="18.594"><path d="M871.802 764.964c-6.655-3.41-12.064-8.738-18.078-13.116-4.669-3.64-10.17-5.982-14.85-9.611-1.623-1.171-3.124-3.061-5.138-3.041-2.169.021-5.59.112-5.072 3.226-4.536-.75-9.03.05-13.496.825-4.593-.045-8.686 1.984-12.158 4.872-3.185 2.942-7.214 5.799-8.652 9.978-1.618 3.641.313 7.09 3.468 8.971-1.992 3.61-3.902 8.217-1.66 12.256 1.135 2.175 4.299 2.553 1.798 5.09-1.915 4.271-.207 10.47 5.155 10.674-4.064 2.32-3.517 10.038 1.25 11.356 4.303 1.363 7.342 5.129 11.799 6.14 5.104 2.233 10.078 5.584 15.92 5.16 8.054.011 16.2-1.834 23.275-5.734 4.513-2.736 10.343-3.935 15.233-1.463 4.476 1.19 9.084 1.634 13.693 1.903l3.995-42.677c-5.521-1.498-11.227-2.464-16.482-4.809z" fill="#fca" stroke-width=".9999853200000001"/><path d="M811.28 743.756s-3.06 3.385-4.237 5.324c-.37.61-.869 1.956-.869 1.956M797.645 766.845s2.836-2.314 4.452-3.144c1.382-.71 4.403-1.528 4.403-1.528M799.329 782.219s2.683-1.314 4.129-1.63c1.293-.283 3.965-.217 3.965-.217M803.458 794.93s1.532.068 2.281.218c1.135.228 2.254.569 3.314 1.032.632.277 1.793 1.033 1.793 1.033M827.035 808.73s-7.268.162-10.213-1.63c-1.615-.983-2.952-2.72-3.368-4.563-.293-1.296-.07-2.875.76-3.912.396-.494 1.739-.76 1.739-.76M817.365 791.889s-3.562.825-5.107.108c-2.452-1.137-4.256-4.1-4.722-6.762-.138-1.718.958-2.851 2.115-4.103M815.735 774.179s-4.698.834-6.736-.11c-2.143-.99-3.99-3.063-4.672-5.323-.39-1.295-.114-2.838.543-4.02 1.05-1.889 4.998-4.129 4.998-4.129M829.208 742.018l4.262.644 3.887 1.529" fill="none" stroke-width=".75001588" stroke-linecap="round"/></g><path transform="matrix(.74283 0 0 1.03996 420.911 188.928)" d="M531.009 556.251c0 2.44-2.47 4.42-5.517 4.42-3.046 0-5.516-1.98-5.516-4.42s2.47-4.42 5.516-4.42c3.047 0 5.517 1.98 5.517 4.42z" opacity=".5" fill="#ffe6d5" stroke="#e9c6af" stroke-width="1.138" stroke-linecap="round" stroke-linejoin="bevel" filter="url(#a)"/><path d="M531.009 556.251c0 2.44-2.47 4.42-5.517 4.42-3.046 0-5.516-1.98-5.516-4.42s2.47-4.42 5.516-4.42c3.047 0 5.517 1.98 5.517 4.42z" transform="matrix(.6073 -.16273 .22782 .85023 368.123 398.505)" opacity=".5" fill="#ffe6d5" stroke="#e9c6af" stroke-width="1.344" stroke-linecap="round" stroke-linejoin="bevel" filter="url(#a)"/><path transform="matrix(.5445 -.31436 .44011 .7623 288.388 543.611)" d="M531.009 556.251c0 2.44-2.47 4.42-5.517 4.42-3.046 0-5.516-1.98-5.516-4.42s2.47-4.42 5.516-4.42c3.047 0 5.517 1.98 5.517 4.42z" opacity=".5" fill="#ffe6d5" stroke="#e9c6af" stroke-width="1.344" stroke-linecap="round" stroke-linejoin="bevel" filter="url(#a)"/><path transform="matrix(-.6073 -.16273 -.22782 .85023 1258.903 361.925)" d="M531.009 556.251c0 2.44-2.47 4.42-5.517 4.42-3.046 0-5.516-1.98-5.516-4.42s2.47-4.42 5.516-4.42c3.047 0 5.517 1.98 5.517 4.42z" opacity=".5" fill="#ffe6d5" stroke="#e9c6af" stroke-width="1.344" stroke-linecap="round" stroke-linejoin="bevel" filter="url(#a)"/></g><g stroke="#000" stroke-width="10.179"><path d="M439.835 488.06c-.132 3.406-6.631 4.77-2.215 7.774 2.435 4.31-.75 9.098-2.408 12.358 4.65 3.233 3.063 10.477-1.327 13.193-4.734 2.693 5.223 5.98 1.153 10.525-2.386 2.661-7.823 8.34-10.795 6.46 1.24-4.886-5.318-5.432-8.718-6.008-3.58-.606-10.93-5.813-9.315 1.25-1.055 4.532 2.71 11.158-4.766 11.33-6.804.158-12.94-1.187-19.633-.884-4.858.22-7.175 3.451-10.985 5.148l-33.779 16.98-.065-51.694c6.46-1.813 13.478-2.248 19.38-5.44 5.873-3.176 7.189-9.863 9.207-16.21 2.856-8.975 7.913-17.097 11.858-25.65 4.105-5.075 11.319-5.654 16.397-9.498 4.03-4.535 11.71-4.608 14.862.871 1.25 5.72 11.318 2.837 10.847 8.84-2.336 6.196-10.465 4.683-15.76 5.164-3.963-2.116-9.088 2.359-4.231 5.213 3.014 5.159 8.963 1.825 13.358 1.467 5.04.143 9.722-.16 14.19-1.51 5.078-.878 11.217 1.643 12.495 6.97.29 1.09.22 2.234.25 3.35z" fill="#fca" stroke-width=".9999849599999999"/><path d="M432.037 523.61c-6.867-1.816-13.706-3.903-20.83-4.394-3.507-.436-8.346-1.692-10.134 2.446-1.312 3.68 2.147 6.816 5.21 8.123" fill="none" stroke-linecap="round" stroke-width=".9999849599999999"/><path d="M432.353 520.926c-4.937-.079-9.932.426-14.736-.983-5.122-.558-10.219-1.438-15.382-1.17-5.342.422-10.293-7.392-5.43-11.111 4.884-2.747 10.858.897 16.26-.204a590.49 590.49 0 0 1 21.709.275" fill="none" stroke-linecap="round" stroke-width=".9999849599999999"/><path d="M398.845 506.505c-6.816-2.223-5.59-12.31 1.231-13.306 5.877.1 11.7-.382 17.57.086 6.025.462 12.704-3.472 18.215.273M402.494 493.067c-5.823-2.637-3.622-11.217 2.27-11.997l.397-.143" fill="none" stroke-width=".9999849599999999"/><path d="M397.091 475.138c-.446 2.15-2.332 4.339-4.737 3.403M396.986 474.998c-1.743 1.238-5.117 1.25-5.825-1.158M399.442 471.945c-1.777-.467-4.166-2.99-4.702-5.438" fill="none" stroke-width=".49994336" stroke-linecap="round"/><path d="M417.535 464.177c-3.137 1.123-12.316 2.016-10.262-3.32 3.43-.467 7.175 2.184 10.262 3.32z" fill="#ccc" stroke-width=".9999849599999999"/><path d="M379.443 515.663c5.108-.531 10.148-1.504 14.736-3.93" fill="none" stroke-width=".74996416" stroke-linecap="round"/><path d="M402.298 511.892c.122 6.905-10.655 2.74-6.45-2.373 1.976-2.508 7.072-1.225 6.45 2.373zM409.694 522.41c-.72 6.575-12.99 2.219-6.237-2.572 1.956-.072 6.094-.107 6.237 2.572zM401.469 500.901c-1.146 7.342-11.142.649-5.722-4.001 2.948-1.628 6.202.59 5.722 4.001zM408.745 488.234c-1.698 7.056-14.115 1.524-7.41-3.997 2.757-1.24 8.161-.04 7.41 3.997z" fill="#ccc" stroke-width=".9999849599999999"/><path d="M375.022 545.346c-6.556-2.399-6.375-9.847-7.773-15.49-.784-6.474-5.583-11.689-6.683-16.79" fill="none" stroke-linecap="round" stroke-width=".9999849599999999"/><path d="M401.477 480.4c-5.257 2.287-11.624-.353-14.386-5.227M365.057 512.645c1.205 4.562 6.396 7.108 10.807 7.158" fill="none" stroke-width=".74996416" stroke-linecap="round"/></g></g></svg>