<?xml version="1.0" encoding="UTF-8" standalone="no"?>
<!-- Created with Inkscape (http://www.inkscape.org/) -->

<svg
   xmlns:dc="http://purl.org/dc/elements/1.1/"
   xmlns:cc="http://creativecommons.org/ns#"
   xmlns:rdf="http://www.w3.org/1999/02/22-rdf-syntax-ns#"
   xmlns:svg="http://www.w3.org/2000/svg"
   xmlns="http://www.w3.org/2000/svg"
   xmlns:sodipodi="http://sodipodi.sourceforge.net/DTD/sodipodi-0.dtd"
   xmlns:inkscape="http://www.inkscape.org/namespaces/inkscape"
   width="1052.3622"
   height="744.09448"
   id="svg2"
   version="1.1"
   inkscape:version="0.48.3.1 r9886"
   sodipodi:docname="stangen-flaschenzug.svg"
   inkscape:export-filename="/home/waldgeist/data/pics/physik/Own/versuche/flaschenzug-besen.png"
   inkscape:export-xdpi="90"
   inkscape:export-ydpi="90">
  <title
     id="title3943">Stangen-Flaschenzug</title>
  <defs
     id="defs4">
    <inkscape:perspective
       id="perspective121"
       inkscape:persp3d-origin="372.04724 : 350.78739 : 1"
       inkscape:vp_z="744.09448 : 526.18109 : 1"
       inkscape:vp_y="0 : 1000 : 0"
       inkscape:vp_x="0 : 526.18109 : 1"
       sodipodi:type="inkscape:persp3d" />
    <marker
       inkscape:stockid="Arrow2Mend"
       orient="auto"
       refY="0"
       refX="0"
       id="Arrow2Mend"
       style="overflow:visible">
      <path
         id="path33774"
         style="font-size:12px;fill-rule:evenodd;stroke-width:0.625;stroke-linejoin:round"
         d="M 8.7185878,4.0337352 -2.2072895,0.01601326 8.7185884,-4.0017078 c -1.7454984,2.3720609 -1.7354408,5.6174519 -6e-7,8.035443 z"
         transform="scale(-0.6,-0.6)"
         inkscape:connector-curvature="0" />
    </marker>
    <marker
       inkscape:stockid="TriangleOutM"
       orient="auto"
       refY="0"
       refX="0"
       id="TriangleOutM"
       style="overflow:visible">
      <path
         id="path33893"
         d="m 5.77,0 -8.65,5 0,-10 8.65,5 z"
         style="fill-rule:evenodd;stroke:#000000;stroke-width:1pt;marker-start:none"
         transform="scale(0.4,0.4)"
         inkscape:connector-curvature="0" />
    </marker>
    <filter
       inkscape:collect="always"
       id="filter7290"
       color-interpolation-filters="sRGB">
      <feGaussianBlur
         inkscape:collect="always"
         stdDeviation="0.24728137"
         id="feGaussianBlur7292" />
    </filter>
  </defs>
  <sodipodi:namedview
     id="base"
     pagecolor="#ffffff"
     bordercolor="#666666"
     borderopacity="1.0"
     inkscape:pageopacity="0.0"
     inkscape:pageshadow="2"
     inkscape:zoom="0.26386719"
     inkscape:cx="270.64812"
     inkscape:cy="949.25144"
     inkscape:document-units="px"
     inkscape:current-layer="layer1"
     showgrid="false"
     inkscape:window-width="1280"
     inkscape:window-height="974"
     inkscape:window-x="0"
     inkscape:window-y="0"
     inkscape:window-maximized="1"
     showguides="true"
     inkscape:guide-bbox="true"
     inkscape:object-paths="true"
     inkscape:object-nodes="true"
     inkscape:snap-global="true" />
  <metadata
     id="metadata7">
    <rdf:RDF>
      <cc:Work
         rdf:about="">
        <dc:format>image/svg+xml</dc:format>
        <dc:type
           rdf:resource="http://purl.org/dc/dcmitype/StillImage" />
        <dc:title>Stangen-Flaschenzug</dc:title>
        <dc:date>2012-06-22</dc:date>
        <dc:creator>
          <cc:Agent>
            <dc:title>Bernhard Grotz</dc:title>
          </cc:Agent>
        </dc:creator>
        <dc:rights>
          <cc:Agent>
            <dc:title>Bernhard Grotz</dc:title>
          </cc:Agent>
        </dc:rights>
        <dc:publisher>
          <cc:Agent>
            <dc:title>Bernhard Grotz</dc:title>
          </cc:Agent>
        </dc:publisher>
        <dc:language>de-DE</dc:language>
        <dc:subject>
          <rdf:Bag>
            <rdf:li>Physik</rdf:li>
            <rdf:li>Mechanik</rdf:li>
            <rdf:li>Kraftwandler</rdf:li>
            <rdf:li>Versuch</rdf:li>
            <rdf:li>Flaschenzug</rdf:li>
          </rdf:Bag>
        </dc:subject>
        <cc:license
           rdf:resource="http://creativecommons.org/licenses/by-nc-sa/3.0/" />
      </cc:Work>
      <cc:License
         rdf:about="http://creativecommons.org/licenses/by-nc-sa/3.0/">
        <cc:permits
           rdf:resource="http://creativecommons.org/ns#Reproduction" />
        <cc:permits
           rdf:resource="http://creativecommons.org/ns#Distribution" />
        <cc:requires
           rdf:resource="http://creativecommons.org/ns#Notice" />
        <cc:requires
           rdf:resource="http://creativecommons.org/ns#Attribution" />
        <cc:prohibits
           rdf:resource="http://creativecommons.org/ns#CommercialUse" />
        <cc:permits
           rdf:resource="http://creativecommons.org/ns#DerivativeWorks" />
        <cc:requires
           rdf:resource="http://creativecommons.org/ns#ShareAlike" />
      </cc:License>
    </rdf:RDF>
  </metadata>
  <g
     inkscape:label="Ebene 1"
     inkscape:groupmode="layer"
     id="layer1"
     transform="translate(0,-308.2677)">
    <rect
       style="fill:#ffffff;fill-opacity:1;fill-rule:nonzero;stroke:#ffffff;stroke-width:1;stroke-linecap:butt;stroke-linejoin:miter;stroke-miterlimit:4;stroke-opacity:1;stroke-dasharray:none;stroke-dashoffset:0"
       id="rect3073"
       width="975.80737"
       height="737.41138"
       x="38.277405"
       y="311.60925"
       rx="3.8969095"
       ry="17.866243"
       inkscape:export-filename="/home/waldgeist/data/pics/physik/Own/versuche/mechanik/stangen-flaschenzug.png"
       inkscape:export-xdpi="150"
       inkscape:export-ydpi="150" />
    <rect
       style="fill:#a05a2c;fill-opacity:1;stroke:#000000;stroke-width:3;stroke-miterlimit:4;stroke-opacity:1;stroke-dasharray:none"
       id="rect7302"
       width="16.345877"
       height="570.67773"
       x="408.21664"
       y="-906.85254"
       rx="3.8969095"
       ry="17.866243"
       transform="scale(1,-1)"
       inkscape:export-filename="/home/waldgeist/data/pics/physik/Own/versuche/mechanik/stangen-flaschenzug.png"
       inkscape:export-xdpi="150"
       inkscape:export-ydpi="150" />
    <path
       style="fill:none;stroke:#000000;stroke-width:6;stroke-linecap:round;stroke-linejoin:miter;stroke-opacity:1"
       d="m 408.21664,406.52649 421.50583,91.77476 -421.50583,91.77476 421.50583,91.77477 -421.50583,91.77477 421.50583,91.77476 -421.50583,91.77476"
       id="path4590"
       inkscape:connector-curvature="0"
       sodipodi:nodetypes="ccccccc"
       inkscape:export-filename="/home/waldgeist/data/pics/physik/Own/versuche/mechanik/stangen-flaschenzug.png"
       inkscape:export-xdpi="150"
       inkscape:export-ydpi="150" />
    <rect
       transform="scale(-1,-1)"
       ry="17.866243"
       rx="3.8969095"
       y="-906.85254"
       x="-829.72247"
       height="570.67773"
       width="16.345877"
       id="rect4356"
       style="fill:#a05a2c;fill-opacity:1;stroke:#000000;stroke-width:3;stroke-miterlimit:4;stroke-opacity:1;stroke-dasharray:none"
       inkscape:export-filename="/home/waldgeist/data/pics/physik/Own/versuche/mechanik/stangen-flaschenzug.png"
       inkscape:export-xdpi="150"
       inkscape:export-ydpi="150" />
    <g
       id="g5379"
       transform="matrix(0,-0.09824168,0.09824168,0,750.72826,528.13635)"
       style="stroke:#000000;stroke-width:10.17897987"
       inkscape:export-filename="/home/waldgeist/data/pics/physik/Own/versuche/mechanik/stangen-flaschenzug.png"
       inkscape:export-xdpi="150"
       inkscape:export-ydpi="150">
      <path
         style="fill:#ffccaa;fill-opacity:1;stroke:#000000;stroke-width:10.17897987;stroke-linecap:butt;stroke-linejoin:miter;stroke-opacity:1"
         d="m 1111.6875,472.625 c -34.6786,1.35201 -48.5677,67.50246 -79.1413,22.55143 -43.86107,-24.78193 -92.60683,7.64164 -125.7888,24.51034 -32.90639,-47.32922 -106.64131,-31.17548 -134.28928,13.50828 -27.41398,48.18436 -60.8688,-53.1635 -107.13807,-11.74115 -27.08441,24.29153 -84.88013,79.63346 -65.75039,109.88574 49.73102,-12.61926 55.28878,54.1331 61.15114,88.73618 6.1746,36.4461 59.16777,111.26941 -12.72927,94.81853 -46.12038,10.74508 -113.56936,-27.58793 -115.32834,48.51584 -1.60083,69.26078 12.09026,131.70879 9.00237,199.84171 -2.24115,49.45 -35.12909,73.0352 -52.39929,111.8214 -57.61261,114.611 -115.22522,229.2219 -172.83783,343.8329 175.39583,0.2189 350.79167,0.4377 526.1875,0.6566 18.45876,-65.7552 22.88736,-137.1911 55.37627,-197.2656 32.33086,-59.7822 100.39277,-73.1707 164.99379,-93.7206 91.3648,-29.0635 174.0346,-80.5373 261.0978,-120.7013 51.664,-41.7818 57.5531,-115.21175 96.68,-166.90113 46.1677,-41.02028 46.9077,-119.18898 -8.8671,-151.27974 -58.2161,-12.72219 -28.8693,-115.20198 -89.9783,-110.4151 -63.0688,23.77712 -47.673,106.52632 -52.5625,160.42089 21.5413,40.34167 -24.0116,92.51065 -53.0659,43.07519 -52.5113,-30.68721 -18.5785,-91.23985 -14.9329,-135.97429 -1.4525,-51.30724 1.6261,-98.96601 15.364,-144.44102 8.9479,-51.6879 -16.7132,-114.17375 -70.9326,-127.18372 -11.0933,-2.94822 -22.7495,-2.24426 -34.111,-2.55138 z"
         id="path5064"
         inkscape:connector-curvature="0"
         sodipodi:nodetypes="ccccccscsscccsscccccccccc" />
      <path
         style="fill:none;stroke:#000000;stroke-width:10.17897986999999915;stroke-linecap:round;stroke-linejoin:miter;stroke-opacity:1"
         d="m 749.82143,552.00504 c 18.48717,69.89759 39.72718,139.51058 44.72721,212.02312 4.4337,35.7051 17.22185,84.95895 -24.90578,103.15545 -37.45449,13.35761 -69.37318,-21.85556 -82.67857,-53.03571"
         id="path5066"
         inkscape:connector-curvature="0" />
      <path
         style="fill:none;stroke:#000000;stroke-width:10.17897986999999915;stroke-linecap:round;stroke-linejoin:miter;stroke-opacity:1"
         d="m 777.14286,548.79075 c 0.79518,50.25133 -4.34344,101.09022 10,150 5.68677,52.12859 14.64321,104.01016 11.9056,156.56375 -4.28682,54.37911 75.25196,104.77506 113.10498,55.28219 27.96567,-49.72446 -9.12885,-110.53168 2.07224,-165.51363 0.49194,-73.74705 -0.5807,-147.2701 -2.79711,-220.97516"
         id="path5068"
         inkscape:connector-curvature="0" />
      <path
         style="fill:none;stroke:#000000;stroke-width:10.17897987;stroke-linecap:butt;stroke-linejoin:miter;stroke-opacity:1"
         d="m 923.92857,889.86219 c 22.62658,69.38362 125.30433,56.8953 135.44653,-12.52696 -1.0179,-59.82105 3.8886,-119.10366 -0.8828,-178.84443 -4.7001,-61.32769 35.3453,-129.31686 -2.7781,-185.41433"
         id="path5070"
         inkscape:connector-curvature="0" />
      <path
         style="fill:none;stroke:#000000;stroke-width:10.17897987;stroke-linecap:butt;stroke-linejoin:miter;stroke-opacity:1"
         d="m 1060.7143,852.71933 c 26.8391,59.27275 114.1798,36.86888 122.1193,-23.1003 l 1.4521,-4.04256"
         id="path5072"
         inkscape:connector-curvature="0" />
      <path
         style="fill:none;stroke:#000000;stroke-width:5.08948951;stroke-linecap:round;stroke-linejoin:miter;stroke-opacity:1"
         d="m 1243.2143,907.71932 c -21.8786,4.54243 -44.1672,23.74245 -34.6429,48.21429"
         id="path5074"
         inkscape:connector-curvature="0" />
      <path
         style="fill:none;stroke:#000000;stroke-width:5.08948951;stroke-linecap:round;stroke-linejoin:miter;stroke-opacity:1"
         d="m 1244.6428,908.79075 c -12.6039,17.74068 -12.732,52.08703 11.7858,59.28572"
         id="path5076"
         inkscape:connector-curvature="0" />
      <path
         style="fill:none;stroke:#000000;stroke-width:5.08948951;stroke-linecap:round;stroke-linejoin:miter;stroke-opacity:1"
         d="m 1275.7143,883.79075 c 4.7519,18.08874 30.4411,42.40079 55.3572,47.85715"
         id="path5078"
         inkscape:connector-curvature="0" />
      <path
         style="fill:#cccccc;fill-opacity:1;stroke:#000000;stroke-width:10.17897987;stroke-linecap:butt;stroke-linejoin:miter;stroke-opacity:1"
         d="m 1354.7812,699.625 c -11.4252,31.92234 -20.5188,125.3609 33.8032,104.45544 4.7533,-34.91245 -22.237,-73.03537 -33.8032,-104.45544 z"
         id="path5080"
         inkscape:connector-curvature="0"
         sodipodi:nodetypes="ccc" />
      <path
         style="fill:none;stroke:#000000;stroke-width:7.63423427;stroke-linecap:round;stroke-linejoin:miter;stroke-opacity:1"
         d="m 830.71429,1087.3622 c 5.40303,-51.9952 15.30834,-103.29572 40,-150.00002"
         id="path5082"
         inkscape:connector-curvature="0" />
      <path
         style="fill:#cccccc;fill-opacity:1;stroke:#000000;stroke-width:10.17897987;stroke-linecap:butt;stroke-linejoin:miter;stroke-opacity:1"
         d="m 869.09375,854.71875 c -70.28739,-1.24632 -27.8849,108.45435 24.15721,65.64901 25.52969,-20.11197 12.46586,-71.98348 -24.15721,-65.64901 z"
         id="path5084"
         inkscape:connector-curvature="0" />
      <path
         style="fill:#cccccc;fill-opacity:1;stroke:#000000;stroke-width:10.17897987;stroke-linecap:butt;stroke-linejoin:miter;stroke-opacity:1"
         d="m 762.03125,779.4375 c -66.92158,7.32376 -22.5817,132.21392 26.18333,63.48041 0.73669,-19.9054 1.09166,-62.03363 -26.18333,-63.48041 z"
         id="path5086"
         inkscape:connector-curvature="0" />
      <path
         style="fill:#cccccc;fill-opacity:1;stroke:#000000;stroke-width:10.17897987;stroke-linecap:butt;stroke-linejoin:miter;stroke-opacity:1"
         d="m 980.96875,863.15625 c -74.72925,11.66629 -6.60156,113.412 40.73525,58.2449 16.5704,-30.00837 -6.0196,-63.13479 -40.73525,-58.2449 z"
         id="path5088"
         inkscape:connector-curvature="0" />
      <path
         style="fill:#cccccc;fill-opacity:1;stroke:#000000;stroke-width:10.17897987;stroke-linecap:butt;stroke-linejoin:miter;stroke-opacity:1"
         d="m 1109.9062,789.09375 c -71.8145,17.2843 -15.5123,143.68093 40.6896,75.42759 12.6229,-28.0676 0.4068,-83.07372 -40.6896,-75.42759 z"
         id="path5090"
         inkscape:connector-curvature="0" />
      <path
         style="fill:none;stroke:#000000;stroke-width:10.17897987;stroke-linecap:round;stroke-linejoin:miter;stroke-opacity:1"
         d="m 528.57143,1132.3622 c 24.41249,66.7262 100.22822,64.8869 157.66059,79.1142 65.91224,7.9841 118.98699,56.8343 170.91084,68.0286"
         id="path5092"
         inkscape:connector-curvature="0"
         sodipodi:nodetypes="ccc" />
      <path
         style="fill:none;stroke:#000000;stroke-width:7.63423427;stroke-linecap:round;stroke-linejoin:miter;stroke-opacity:1"
         d="m 1189.6429,863.07647 c -23.2705,53.50663 3.604,118.31889 53.2142,146.42853"
         id="path5096"
         inkscape:connector-curvature="0" />
      <path
         style="fill:none;stroke:#000000;stroke-width:7.63423427;stroke-linecap:round;stroke-linejoin:miter;stroke-opacity:1"
         d="m 861.42857,1233.7908 c -46.43406,-12.2596 -72.35188,-65.1011 -72.85714,-110"
         id="path5104"
         inkscape:connector-curvature="0" />
    </g>
    <path
       inkscape:connector-curvature="0"
       id="path7910"
       d="m 803.98539,687.45453 25.73708,-5.60375"
       style="fill:none;stroke:#000000;stroke-width:6;stroke-linecap:round;stroke-linejoin:miter;stroke-opacity:1"
       sodipodi:nodetypes="cc"
       inkscape:export-filename="/home/waldgeist/data/pics/physik/Own/versuche/mechanik/stangen-flaschenzug.png"
       inkscape:export-xdpi="150"
       inkscape:export-ydpi="150" />
    <path
       style="fill:none;stroke:#000000;stroke-width:6;stroke-linecap:round;stroke-linejoin:miter;stroke-opacity:1"
       d="m 803.98539,503.90501 c 8.57903,-1.86792 17.15805,-3.73584 25.73708,-5.60376"
       id="path7912"
       inkscape:connector-curvature="0"
       inkscape:export-filename="/home/waldgeist/data/pics/physik/Own/versuche/mechanik/stangen-flaschenzug.png"
       inkscape:export-xdpi="150"
       inkscape:export-ydpi="150" />
    <path
       inkscape:connector-curvature="0"
       id="path7916"
       d="m 433.95373,779.2293 -25.73709,-5.60375"
       style="fill:none;stroke:#000000;stroke-width:6;stroke-linecap:round;stroke-linejoin:miter;stroke-opacity:1"
       sodipodi:nodetypes="cc"
       inkscape:export-filename="/home/waldgeist/data/pics/physik/Own/versuche/mechanik/stangen-flaschenzug.png"
       inkscape:export-xdpi="150"
       inkscape:export-ydpi="150" />
    <path
       sodipodi:nodetypes="cc"
       style="fill:none;stroke:#000000;stroke-width:6;stroke-linecap:round;stroke-linejoin:miter;stroke-opacity:1"
       d="m 433.95373,595.67976 -25.73709,-5.60375"
       id="path7918"
       inkscape:connector-curvature="0"
       inkscape:export-filename="/home/waldgeist/data/pics/physik/Own/versuche/mechanik/stangen-flaschenzug.png"
       inkscape:export-xdpi="150"
       inkscape:export-ydpi="150" />
    <path
       inkscape:connector-curvature="0"
       id="path7920"
       d="m 433.95373,412.13025 -25.73709,-5.60376"
       style="fill:none;stroke:#000000;stroke-width:6;stroke-linecap:round;stroke-linejoin:miter;stroke-miterlimit:4;stroke-opacity:1;stroke-dasharray:none"
       sodipodi:nodetypes="cc"
       inkscape:export-filename="/home/waldgeist/data/pics/physik/Own/versuche/mechanik/stangen-flaschenzug.png"
       inkscape:export-xdpi="150"
       inkscape:export-ydpi="150" />
    <g
       id="g4982"
       inkscape:export-filename="/home/waldgeist/data/pics/physik/Own/versuche/mechanik/stangen-flaschenzug.png"
       inkscape:export-xdpi="150"
       inkscape:export-ydpi="150">
      <path
         inkscape:connector-curvature="0"
         id="path7914"
         d="m 803.98539,871.00406 25.73708,-5.60375"
         style="fill:none;stroke:#000000;stroke-width:6;stroke-linecap:round;stroke-linejoin:miter;stroke-opacity:1"
         sodipodi:nodetypes="cc" />
      <path
         inkscape:connector-curvature="0"
         id="path7922"
         d="m 408.21664,410.80376 16.34588,-3.87933"
         style="fill:none;stroke:#000000;stroke-width:6;stroke-linecap:round;stroke-linejoin:miter;stroke-opacity:1"
         sodipodi:nodetypes="cc" />
    </g>
    <path
       inkscape:connector-curvature="0"
       id="path7924"
       d="M 118.26366,1020.3067 408.21664,957.17507"
       style="fill:none;stroke:#000000;stroke-width:6;stroke-linecap:round;stroke-linejoin:miter;stroke-opacity:1"
       sodipodi:nodetypes="cc"
       inkscape:export-filename="/home/waldgeist/data/pics/physik/Own/versuche/mechanik/stangen-flaschenzug.png"
       inkscape:export-xdpi="150"
       inkscape:export-ydpi="150" />
    <g
       transform="matrix(-0.74282861,0,0,0.74282861,816.47385,426.22456)"
       id="g18070"
       inkscape:export-filename="/home/waldgeist/data/pics/physik/Own/versuche/mechanik/stangen-flaschenzug.png"
       inkscape:export-xdpi="150"
       inkscape:export-ydpi="150">
      <g
         id="g18072"
         transform="matrix(0,0.07239844,-0.07239844,0,625.36217,505.13924)"
         style="stroke:#000000;stroke-width:18.59440041">
        <path
           inkscape:connector-curvature="0"
           id="path18074"
           d="M 644.87151,250.25761 C 581.45643,374.00473 482.38142,474.57416 400.98159,586.40856 333.31227,673.20957 289.74583,775.52269 222.26184,862.54403 c -21.77532,30.15689 -56.91014,58.07916 -56.54309,95.51847 0.39537,40.32869 2.09521,103.9412 60,94.3125 -13.96693,84.3498 0.9245,167.9161 15.32246,250.9481 -0.82365,85.4155 36.90281,161.5136 90.60505,226.069 54.70072,59.2228 107.82435,134.1384 185.53249,160.8789 67.70079,30.091 131.84666,-5.809 166.8111,-64.4813 67.14004,37.0409 152.79059,72.5498 227.89142,30.877 40.44098,-21.1135 47.46867,-79.938 94.64723,-33.4407 79.4166,35.6112 194.6692,3.848 198.4715,-95.851 43.1489,75.5657 186.6607,65.391 211.1649,-23.2341 25.332,-80.0209 95.3574,-136.5319 114.1779,-219.4018 41.507,-94.9193 103.8189,-187.3963 95.9324,-296.01941 0.2121,-149.77517 -34.1076,-301.23276 -106.6209,-432.7861 -50.8641,-83.9184 -73.1678,-192.32896 -27.2091,-283.25345 22.1523,-83.232 30.3828,-168.91774 35.3986,-254.61764 C 1263.323,-6.6979167 998.8021,-31.458333 734.28125,-56.21875 706.42783,46.443196 688.47339,152.5444 644.87151,250.25761 z"
           style="fill:#ffccaa;fill-opacity:1;stroke:#000000;stroke-width:18.59440041;stroke-linecap:butt;stroke-linejoin:miter;stroke-opacity:1"
           sodipodi:nodetypes="cccscccccccccccccccc" />
        <path
           sodipodi:nodetypes="csc"
           inkscape:connector-curvature="0"
           id="path18088"
           d="m 250.51783,1375.611 c 0,0 62.93557,56.9194 98.99495,78.7919 11.34175,6.8796 36.36549,16.1624 36.36549,16.1624"
           style="fill:none;stroke:#000000;stroke-width:13.94580001;stroke-linecap:round;stroke-linejoin:miter;stroke-opacity:1" />
        <path
           sodipodi:nodetypes="csc"
           inkscape:connector-curvature="0"
           id="path18076"
           d="m 679.83266,1629.1593 c 0,0 -43.0122,-52.7415 -58.44527,-82.7905 -13.19721,-25.6957 -28.42785,-81.8644 -28.42785,-81.8644"
           style="fill:none;stroke:#000000;stroke-width:13.94580001;stroke-linecap:round;stroke-linejoin:miter;stroke-opacity:1" />
        <path
           sodipodi:nodetypes="cac"
           inkscape:connector-curvature="0"
           id="path18078"
           d="m 965.70583,1597.8446 c 0,0 -24.42552,-49.895 -30.30457,-76.7716 -5.26046,-24.0487 -4.04061,-73.7412 -4.04061,-73.7412"
           style="fill:none;stroke:#000000;stroke-width:13.94580001;stroke-linecap:round;stroke-linejoin:miter;stroke-opacity:1" />
        <path
           sodipodi:nodetypes="cssc"
           inkscape:connector-curvature="0"
           id="path18080"
           d="m 1202.0815,1521.073 c 0,0 1.2398,-28.4991 4.0406,-42.4264 4.2413,-21.0908 10.5747,-41.9079 19.1929,-61.6193 5.1365,-11.748 19.1929,-33.3351 19.1929,-33.3351"
           style="fill:none;stroke:#000000;stroke-width:13.94580001;stroke-linecap:round;stroke-linejoin:miter;stroke-opacity:1" />
        <path
           sodipodi:nodetypes="csssc"
           inkscape:connector-curvature="0"
           id="path18082"
           d="m 1458.6603,1082.6668 c 0,0 3.0156,135.1449 -30.3046,189.9086 -18.2727,30.0323 -50.5604,54.8928 -84.8528,62.6295 -24.0922,5.4355 -53.4527,1.2956 -72.731,-14.1421 -9.1803,-7.3514 -14.1421,-32.3249 -14.1421,-32.3249"
           style="fill:none;stroke:#000000;stroke-width:13.94580001;stroke-linecap:round;stroke-linejoin:miter;stroke-opacity:1" />
        <path
           sodipodi:nodetypes="cscc"
           inkscape:connector-curvature="0"
           id="path18084"
           d="m 1145.513,1262.4739 c 0,0 15.3401,66.2342 2.0203,94.9544 -21.1518,45.6075 -76.2272,79.1505 -125.7491,87.8114 -31.93165,2.569 -53.01297,-17.8097 -76.28142,-39.3241"
           style="fill:none;stroke:#000000;stroke-width:13.94580001;stroke-linecap:round;stroke-linejoin:miter;stroke-opacity:1" />
        <path
           sodipodi:nodetypes="csssc"
           inkscape:connector-curvature="0"
           id="path18086"
           d="m 816.20326,1292.7785 c 0,0 15.51368,87.36 -2.02031,125.2589 -18.43432,39.8449 -56.96311,74.1939 -98.99495,86.8731 -24.07218,7.2615 -52.77474,2.1145 -74.75129,-10.1015 -35.11988,-19.5219 -76.77159,-92.934 -76.77159,-92.934"
           style="fill:none;stroke:#000000;stroke-width:13.94580001;stroke-linecap:round;stroke-linejoin:miter;stroke-opacity:1" />
        <path
           sodipodi:nodetypes="ccc"
           inkscape:connector-curvature="0"
           id="path18090"
           d="m 218.19295,1042.2607 11.97826,-79.24009 28.42784,-72.28283"
           style="fill:none;stroke:#000000;stroke-width:13.94580001;stroke-linecap:round;stroke-linejoin:miter;stroke-opacity:1" />
      </g>
      <path
         sodipodi:type="arc"
         style="opacity:0.50000000000000000;fill:#ffe6d5;fill-opacity:1;fill-rule:nonzero;stroke:#e9c6af;stroke-width:1.13775134000000011;stroke-linecap:round;stroke-linejoin:bevel;stroke-miterlimit:4;stroke-opacity:1;stroke-dasharray:none;stroke-dashoffset:0;filter:url(#filter7290)"
         id="path18092"
         sodipodi:cx="525.49231"
         sodipodi:cy="556.25104"
         sodipodi:rx="5.5163064"
         sodipodi:ry="4.4194174"
         d="m 531.00862,556.25104 c 0,2.44077 -2.46974,4.41941 -5.51631,4.41941 -3.04657,0 -5.51631,-1.97864 -5.51631,-4.41941 0,-2.44078 2.46974,-4.41942 5.51631,-4.41942 3.04657,0 5.51631,1.97864 5.51631,4.41942 z"
         transform="matrix(1,0,0,1.4,0.25253814,-223.63683)" />
      <path
         transform="matrix(0.81755882,-0.21906422,0.30668991,1.1445823,-70.810797,58.497556)"
         d="m 531.00862,556.25104 c 0,2.44077 -2.46974,4.41941 -5.51631,4.41941 -3.04657,0 -5.51631,-1.97864 -5.51631,-4.41941 0,-2.44078 2.46974,-4.41942 5.51631,-4.41942 3.04657,0 5.51631,1.97864 5.51631,4.41942 z"
         sodipodi:ry="4.4194174"
         sodipodi:rx="5.5163064"
         sodipodi:cy="556.25104"
         sodipodi:cx="525.49231"
         id="path18094"
         style="opacity:0.5;fill:#ffe6d5;fill-opacity:1;fill-rule:nonzero;stroke:#e9c6af;stroke-width:1.34422553;stroke-linecap:round;stroke-linejoin:bevel;stroke-miterlimit:4;stroke-opacity:1;stroke-dasharray:none;stroke-dashoffset:0;filter:url(#filter7290)"
         sodipodi:type="arc" />
      <path
         sodipodi:type="arc"
         style="opacity:0.50000000000000000;fill:#ffe6d5;fill-opacity:1;fill-rule:nonzero;stroke:#e9c6af;stroke-width:1.34422552999999989;stroke-linecap:round;stroke-linejoin:bevel;stroke-miterlimit:4;stroke-opacity:1;stroke-dasharray:none;stroke-dashoffset:0;filter:url(#filter7290)"
         id="path18096"
         sodipodi:cx="525.49231"
         sodipodi:cy="556.25104"
         sodipodi:rx="5.5163064"
         sodipodi:ry="4.4194174"
         d="m 531.00862,556.25104 c 0,2.44077 -2.46974,4.41941 -5.51631,4.41941 -3.04657,0 -5.51631,-1.97864 -5.51631,-4.41941 0,-2.44078 2.46974,-4.41942 5.51631,-4.41942 3.04657,0 5.51631,1.97864 5.51631,4.41942 z"
         transform="matrix(0.73300319,-0.42319958,0.5924794,1.0262044,-178.15083,253.8403)" />
      <path
         sodipodi:type="arc"
         style="opacity:0.50000000000000000;fill:#ffe6d5;fill-opacity:1;fill-rule:nonzero;stroke:#e9c6af;stroke-width:1.34422552999999989;stroke-linecap:round;stroke-linejoin:bevel;stroke-miterlimit:4;stroke-opacity:1;stroke-dasharray:none;stroke-dashoffset:0;filter:url(#filter7290)"
         id="path18098"
         sodipodi:cx="525.49231"
         sodipodi:cy="556.25104"
         sodipodi:rx="5.5163064"
         sodipodi:ry="4.4194174"
         d="m 531.00862,556.25104 c 0,2.44077 -2.46974,4.41941 -5.51631,4.41941 -3.04657,0 -5.51631,-1.97864 -5.51631,-4.41941 0,-2.44078 2.46974,-4.41942 5.51631,-4.41942 3.04657,0 5.51631,1.97864 5.51631,4.41942 z"
         transform="matrix(-0.81755882,-0.21906422,-0.30668991,1.1445823,1128.3615,9.2526193)" />
    </g>
    <g
       inkscape:export-ydpi="150"
       inkscape:export-xdpi="150"
       inkscape:export-filename="/home/waldgeist/data/pics/physik/Own/versuche/mechanik/stangen-flaschenzug.png"
       id="g15491"
       transform="matrix(0.74282861,0,0,0.74282861,420.72355,355.05154)">
      <g
         style="stroke:#000000;stroke-width:18.59440041"
         transform="matrix(0,0.07239844,-0.07239844,0,625.36217,505.13924)"
         id="g15493">
        <path
           sodipodi:nodetypes="cccscccccccccccccccc"
           style="fill:#ffccaa;fill-opacity:1;stroke:#000000;stroke-width:18.59440041;stroke-linecap:butt;stroke-linejoin:miter;stroke-opacity:1"
           d="M 644.87151,250.25761 C 581.45643,374.00473 482.38142,474.57416 400.98159,586.40856 333.31227,673.20957 289.74583,775.52269 222.26184,862.54403 c -21.77532,30.15689 -56.91014,58.07916 -56.54309,95.51847 0.39537,40.32869 2.09521,103.9412 60,94.3125 -13.96693,84.3498 0.9245,167.9161 15.32246,250.9481 -0.82365,85.4155 36.90281,161.5136 90.60505,226.069 54.70072,59.2228 107.82435,134.1384 185.53249,160.8789 67.70079,30.091 131.84666,-5.809 166.8111,-64.4813 67.14004,37.0409 152.79059,72.5498 227.89142,30.877 40.44098,-21.1135 47.46867,-79.938 94.64723,-33.4407 79.4166,35.6112 194.6692,3.848 198.4715,-95.851 43.1489,75.5657 186.6607,65.391 211.1649,-23.2341 25.332,-80.0209 95.3574,-136.5319 114.1779,-219.4018 41.507,-94.9193 103.8189,-187.3963 95.9324,-296.01941 0.2121,-149.77517 -34.1076,-301.23276 -106.6209,-432.7861 -50.8641,-83.9184 -73.1678,-192.32896 -27.2091,-283.25345 22.1523,-83.232 30.3828,-168.91774 35.3986,-254.61764 C 1263.323,-6.6979167 998.8021,-31.458333 734.28125,-56.21875 706.42783,46.443196 688.47339,152.5444 644.87151,250.25761 z"
           id="path15495"
           inkscape:connector-curvature="0" />
        <path
           style="fill:none;stroke:#000000;stroke-width:13.94579983;stroke-linecap:round;stroke-linejoin:miter;stroke-opacity:1"
           d="m 250.51783,1375.611 c 0,0 62.93557,56.9194 98.99495,78.7919 11.34175,6.8796 36.36549,16.1624 36.36549,16.1624"
           id="path15497"
           inkscape:connector-curvature="0"
           sodipodi:nodetypes="csc" />
        <path
           style="fill:none;stroke:#000000;stroke-width:13.94579983;stroke-linecap:round;stroke-linejoin:miter;stroke-opacity:1"
           d="m 679.83266,1629.1593 c 0,0 -43.0122,-52.7415 -58.44527,-82.7905 -13.19721,-25.6957 -28.42785,-81.8644 -28.42785,-81.8644"
           id="path15499"
           inkscape:connector-curvature="0"
           sodipodi:nodetypes="csc" />
        <path
           style="fill:none;stroke:#000000;stroke-width:13.94579983;stroke-linecap:round;stroke-linejoin:miter;stroke-opacity:1"
           d="m 965.70583,1597.8446 c 0,0 -24.42552,-49.895 -30.30457,-76.7716 -5.26046,-24.0487 -4.04061,-73.7412 -4.04061,-73.7412"
           id="path15501"
           inkscape:connector-curvature="0"
           sodipodi:nodetypes="cac" />
        <path
           style="fill:none;stroke:#000000;stroke-width:13.94579983;stroke-linecap:round;stroke-linejoin:miter;stroke-opacity:1"
           d="m 1202.0815,1521.073 c 0,0 1.2398,-28.4991 4.0406,-42.4264 4.2413,-21.0908 10.5747,-41.9079 19.1929,-61.6193 5.1365,-11.748 19.1929,-33.3351 19.1929,-33.3351"
           id="path15503"
           inkscape:connector-curvature="0"
           sodipodi:nodetypes="cssc" />
        <path
           style="fill:none;stroke:#000000;stroke-width:13.94579983;stroke-linecap:round;stroke-linejoin:miter;stroke-opacity:1"
           d="m 1458.6603,1082.6668 c 0,0 3.0156,135.1449 -30.3046,189.9086 -18.2727,30.0323 -50.5604,54.8928 -84.8528,62.6295 -24.0922,5.4355 -53.4527,1.2956 -72.731,-14.1421 -9.1803,-7.3514 -14.1421,-32.3249 -14.1421,-32.3249"
           id="path15505"
           inkscape:connector-curvature="0"
           sodipodi:nodetypes="csssc" />
        <path
           style="fill:none;stroke:#000000;stroke-width:13.94579983;stroke-linecap:round;stroke-linejoin:miter;stroke-opacity:1"
           d="m 1145.513,1262.4739 c 0,0 15.3401,66.2342 2.0203,94.9544 -21.1518,45.6075 -76.2272,79.1505 -125.7491,87.8114 -31.93165,2.569 -53.01297,-17.8097 -76.28142,-39.3241"
           id="path15507"
           inkscape:connector-curvature="0"
           sodipodi:nodetypes="cscc" />
        <path
           style="fill:none;stroke:#000000;stroke-width:13.94579983;stroke-linecap:round;stroke-linejoin:miter;stroke-opacity:1"
           d="m 816.20326,1292.7785 c 0,0 15.51368,87.36 -2.02031,125.2589 -18.43432,39.8449 -56.96311,74.1939 -98.99495,86.8731 -24.07218,7.2615 -52.77474,2.1145 -74.75129,-10.1015 -35.11988,-19.5219 -76.77159,-92.934 -76.77159,-92.934"
           id="path15509"
           inkscape:connector-curvature="0"
           sodipodi:nodetypes="csssc" />
        <path
           style="fill:none;stroke:#000000;stroke-width:13.94579983;stroke-linecap:round;stroke-linejoin:miter;stroke-opacity:1"
           d="m 218.19295,1042.2607 11.97826,-79.24009 28.42784,-72.28283"
           id="path15511"
           inkscape:connector-curvature="0"
           sodipodi:nodetypes="ccc" />
      </g>
      <path
         transform="matrix(1,0,0,1.4,0.25253814,-223.63683)"
         d="m 531.00862,556.25104 c 0,2.44077 -2.46974,4.41941 -5.51631,4.41941 -3.04657,0 -5.51631,-1.97864 -5.51631,-4.41941 0,-2.44078 2.46974,-4.41942 5.51631,-4.41942 3.04657,0 5.51631,1.97864 5.51631,4.41942 z"
         sodipodi:ry="4.4194174"
         sodipodi:rx="5.5163064"
         sodipodi:cy="556.25104"
         sodipodi:cx="525.49231"
         id="path15513"
         style="opacity:0.5;fill:#ffe6d5;fill-opacity:1;fill-rule:nonzero;stroke:#e9c6af;stroke-width:1.13775134;stroke-linecap:round;stroke-linejoin:bevel;stroke-miterlimit:4;stroke-opacity:1;stroke-dasharray:none;stroke-dashoffset:0;filter:url(#filter7290)"
         sodipodi:type="arc" />
      <path
         sodipodi:type="arc"
         style="opacity:0.5;fill:#ffe6d5;fill-opacity:1;fill-rule:nonzero;stroke:#e9c6af;stroke-width:1.34422553;stroke-linecap:round;stroke-linejoin:bevel;stroke-miterlimit:4;stroke-opacity:1;stroke-dasharray:none;stroke-dashoffset:0;filter:url(#filter7290)"
         id="path15515"
         sodipodi:cx="525.49231"
         sodipodi:cy="556.25104"
         sodipodi:rx="5.5163064"
         sodipodi:ry="4.4194174"
         d="m 531.00862,556.25104 c 0,2.44077 -2.46974,4.41941 -5.51631,4.41941 -3.04657,0 -5.51631,-1.97864 -5.51631,-4.41941 0,-2.44078 2.46974,-4.41942 5.51631,-4.41942 3.04657,0 5.51631,1.97864 5.51631,4.41942 z"
         transform="matrix(0.81755882,-0.21906422,0.30668991,1.1445823,-70.810797,58.497556)" />
      <path
         transform="matrix(0.73300319,-0.42319958,0.5924794,1.0262044,-178.15083,253.8403)"
         d="m 531.00862,556.25104 c 0,2.44077 -2.46974,4.41941 -5.51631,4.41941 -3.04657,0 -5.51631,-1.97864 -5.51631,-4.41941 0,-2.44078 2.46974,-4.41942 5.51631,-4.41942 3.04657,0 5.51631,1.97864 5.51631,4.41942 z"
         sodipodi:ry="4.4194174"
         sodipodi:rx="5.5163064"
         sodipodi:cy="556.25104"
         sodipodi:cx="525.49231"
         id="path15517"
         style="opacity:0.5;fill:#ffe6d5;fill-opacity:1;fill-rule:nonzero;stroke:#e9c6af;stroke-width:1.34422553;stroke-linecap:round;stroke-linejoin:bevel;stroke-miterlimit:4;stroke-opacity:1;stroke-dasharray:none;stroke-dashoffset:0;filter:url(#filter7290)"
         sodipodi:type="arc" />
      <path
         transform="matrix(-0.81755882,-0.21906422,-0.30668991,1.1445823,1128.3615,9.2526193)"
         d="m 531.00862,556.25104 c 0,2.44077 -2.46974,4.41941 -5.51631,4.41941 -3.04657,0 -5.51631,-1.97864 -5.51631,-4.41941 0,-2.44078 2.46974,-4.41942 5.51631,-4.41942 3.04657,0 5.51631,1.97864 5.51631,4.41942 z"
         sodipodi:ry="4.4194174"
         sodipodi:rx="5.5163064"
         sodipodi:cy="556.25104"
         sodipodi:cx="525.49231"
         id="path15519"
         style="opacity:0.5;fill:#ffe6d5;fill-opacity:1;fill-rule:nonzero;stroke:#e9c6af;stroke-width:1.34422553;stroke-linecap:round;stroke-linejoin:bevel;stroke-miterlimit:4;stroke-opacity:1;stroke-dasharray:none;stroke-dashoffset:0;filter:url(#filter7290)"
         sodipodi:type="arc" />
    </g>
    <g
       style="stroke:#000000;stroke-width:10.17897987"
       transform="matrix(0,-0.09824168,-0.09824168,0,486.26688,597.27343)"
       id="g15523"
       inkscape:export-filename="/home/waldgeist/data/pics/physik/Own/versuche/mechanik/stangen-flaschenzug.png"
       inkscape:export-xdpi="150"
       inkscape:export-ydpi="150">
      <path
         sodipodi:nodetypes="ccccccscsscccsscccccccccc"
         inkscape:connector-curvature="0"
         id="path15525"
         d="m 1111.6875,472.625 c -34.6786,1.35201 -48.5677,67.50246 -79.1413,22.55143 -43.86107,-24.78193 -92.60683,7.64164 -125.7888,24.51034 -32.90639,-47.32922 -106.64131,-31.17548 -134.28928,13.50828 -27.41398,48.18436 -60.8688,-53.1635 -107.13807,-11.74115 -27.08441,24.29153 -84.88013,79.63346 -65.75039,109.88574 49.73102,-12.61926 55.28878,54.1331 61.15114,88.73618 6.1746,36.4461 59.16777,111.26941 -12.72927,94.81853 -46.12038,10.74508 -113.56936,-27.58793 -115.32834,48.51584 -1.60083,69.26078 12.09026,131.70879 9.00237,199.84171 -2.24115,49.45 -35.12909,73.0352 -52.39929,111.8214 -57.61261,114.611 -115.22522,229.2219 -172.83783,343.8329 175.39583,0.2189 350.79167,0.4377 526.1875,0.6566 18.45876,-65.7552 22.88736,-137.1911 55.37627,-197.2656 32.33086,-59.7822 100.39277,-73.1707 164.99379,-93.7206 91.3648,-29.0635 174.0346,-80.5373 261.0978,-120.7013 51.664,-41.7818 57.5531,-115.21175 96.68,-166.90113 46.1677,-41.02028 46.9077,-119.18898 -8.8671,-151.27974 -58.2161,-12.72219 -28.8693,-115.20198 -89.9783,-110.4151 -63.0688,23.77712 -47.673,106.52632 -52.5625,160.42089 21.5413,40.34167 -24.0116,92.51065 -53.0659,43.07519 -52.5113,-30.68721 -18.5785,-91.23985 -14.9329,-135.97429 -1.4525,-51.30724 1.6261,-98.96601 15.364,-144.44102 8.9479,-51.6879 -16.7132,-114.17375 -70.9326,-127.18372 -11.0933,-2.94822 -22.7495,-2.24426 -34.111,-2.55138 z"
         style="fill:#ffccaa;fill-opacity:1;stroke:#000000;stroke-width:10.17897987;stroke-linecap:butt;stroke-linejoin:miter;stroke-opacity:1" />
      <path
         inkscape:connector-curvature="0"
         id="path15527"
         d="m 749.82143,552.00504 c 18.48717,69.89759 39.72718,139.51058 44.72721,212.02312 4.4337,35.7051 17.22185,84.95895 -24.90578,103.15545 -37.45449,13.35761 -69.37318,-21.85556 -82.67857,-53.03571"
         style="fill:none;stroke:#000000;stroke-width:10.17897987;stroke-linecap:round;stroke-linejoin:miter;stroke-opacity:1" />
      <path
         inkscape:connector-curvature="0"
         id="path15529"
         d="m 777.14286,548.79075 c 0.79518,50.25133 -4.34344,101.09022 10,150 5.68677,52.12859 14.64321,104.01016 11.9056,156.56375 -4.28682,54.37911 75.25196,104.77506 113.10498,55.28219 27.96567,-49.72446 -9.12885,-110.53168 2.07224,-165.51363 0.49194,-73.74705 -0.5807,-147.2701 -2.79711,-220.97516"
         style="fill:none;stroke:#000000;stroke-width:10.17897987;stroke-linecap:round;stroke-linejoin:miter;stroke-opacity:1" />
      <path
         inkscape:connector-curvature="0"
         id="path15531"
         d="m 923.92857,889.86219 c 22.62658,69.38362 125.30433,56.8953 135.44653,-12.52696 -1.0179,-59.82105 3.8886,-119.10366 -0.8828,-178.84443 -4.7001,-61.32769 35.3453,-129.31686 -2.7781,-185.41433"
         style="fill:none;stroke:#000000;stroke-width:10.17897987;stroke-linecap:butt;stroke-linejoin:miter;stroke-opacity:1" />
      <path
         inkscape:connector-curvature="0"
         id="path15533"
         d="m 1060.7143,852.71933 c 26.8391,59.27275 114.1798,36.86888 122.1193,-23.1003 l 1.4521,-4.04256"
         style="fill:none;stroke:#000000;stroke-width:10.17897987;stroke-linecap:butt;stroke-linejoin:miter;stroke-opacity:1" />
      <path
         inkscape:connector-curvature="0"
         id="path15535"
         d="m 1243.2143,907.71932 c -21.8786,4.54243 -44.1672,23.74245 -34.6429,48.21429"
         style="fill:none;stroke:#000000;stroke-width:5.08948946;stroke-linecap:round;stroke-linejoin:miter;stroke-opacity:1" />
      <path
         inkscape:connector-curvature="0"
         id="path15537"
         d="m 1244.6428,908.79075 c -12.6039,17.74068 -12.732,52.08703 11.7858,59.28572"
         style="fill:none;stroke:#000000;stroke-width:5.08948946;stroke-linecap:round;stroke-linejoin:miter;stroke-opacity:1" />
      <path
         inkscape:connector-curvature="0"
         id="path15539"
         d="m 1275.7143,883.79075 c 4.7519,18.08874 30.4411,42.40079 55.3572,47.85715"
         style="fill:none;stroke:#000000;stroke-width:5.08948946;stroke-linecap:round;stroke-linejoin:miter;stroke-opacity:1" />
      <path
         sodipodi:nodetypes="ccc"
         inkscape:connector-curvature="0"
         id="path15541"
         d="m 1354.7812,699.625 c -11.4252,31.92234 -20.5188,125.3609 33.8032,104.45544 4.7533,-34.91245 -22.237,-73.03537 -33.8032,-104.45544 z"
         style="fill:#cccccc;fill-opacity:1;stroke:#000000;stroke-width:10.17897987;stroke-linecap:butt;stroke-linejoin:miter;stroke-opacity:1" />
      <path
         inkscape:connector-curvature="0"
         id="path15543"
         d="m 830.71429,1087.3622 c 5.40303,-51.9952 15.30834,-103.29572 40,-150.00002"
         style="fill:none;stroke:#000000;stroke-width:7.63423443;stroke-linecap:round;stroke-linejoin:miter;stroke-opacity:1" />
      <path
         inkscape:connector-curvature="0"
         id="path15545"
         d="m 869.09375,854.71875 c -70.28739,-1.24632 -27.8849,108.45435 24.15721,65.64901 25.52969,-20.11197 12.46586,-71.98348 -24.15721,-65.64901 z"
         style="fill:#cccccc;fill-opacity:1;stroke:#000000;stroke-width:10.17897987;stroke-linecap:butt;stroke-linejoin:miter;stroke-opacity:1" />
      <path
         inkscape:connector-curvature="0"
         id="path15547"
         d="m 762.03125,779.4375 c -66.92158,7.32376 -22.5817,132.21392 26.18333,63.48041 0.73669,-19.9054 1.09166,-62.03363 -26.18333,-63.48041 z"
         style="fill:#cccccc;fill-opacity:1;stroke:#000000;stroke-width:10.17897987;stroke-linecap:butt;stroke-linejoin:miter;stroke-opacity:1" />
      <path
         inkscape:connector-curvature="0"
         id="path15549"
         d="m 980.96875,863.15625 c -74.72925,11.66629 -6.60156,113.412 40.73525,58.2449 16.5704,-30.00837 -6.0196,-63.13479 -40.73525,-58.2449 z"
         style="fill:#cccccc;fill-opacity:1;stroke:#000000;stroke-width:10.17897987;stroke-linecap:butt;stroke-linejoin:miter;stroke-opacity:1" />
      <path
         inkscape:connector-curvature="0"
         id="path15551"
         d="m 1109.9062,789.09375 c -71.8145,17.2843 -15.5123,143.68093 40.6896,75.42759 12.6229,-28.0676 0.4068,-83.07372 -40.6896,-75.42759 z"
         style="fill:#cccccc;fill-opacity:1;stroke:#000000;stroke-width:10.17897987;stroke-linecap:butt;stroke-linejoin:miter;stroke-opacity:1" />
      <path
         sodipodi:nodetypes="ccc"
         inkscape:connector-curvature="0"
         id="path15553"
         d="m 528.57143,1132.3622 c 24.41249,66.7262 100.22822,64.8869 157.66059,79.1142 65.91224,7.9841 118.98699,56.8343 170.91084,68.0286"
         style="fill:none;stroke:#000000;stroke-width:10.17897987;stroke-linecap:round;stroke-linejoin:miter;stroke-opacity:1" />
      <path
         inkscape:connector-curvature="0"
         id="path15555"
         d="m 1189.6429,863.07647 c -23.2705,53.50663 3.604,118.31889 53.2142,146.42853"
         style="fill:none;stroke:#000000;stroke-width:7.63423443;stroke-linecap:round;stroke-linejoin:miter;stroke-opacity:1" />
      <path
         inkscape:connector-curvature="0"
         id="path15557"
         d="m 861.42857,1233.7908 c -46.43406,-12.2596 -72.35188,-65.1011 -72.85714,-110"
         style="fill:none;stroke:#000000;stroke-width:7.63423443;stroke-linecap:round;stroke-linejoin:miter;stroke-opacity:1" />
    </g>
  </g>
</svg>
