<svg xmlns:ns0="http://www.iki.fi/pav/software/textext/" xmlns="http://www.w3.org/2000/svg" xmlns:xlink="http://www.w3.org/1999/xlink" width="210mm" height="297mm"><title>Das Wellrad</title><path style="marker:none" color="#000" fill="#fff" stroke="#fff" stroke-linecap="round" overflow="visible" d="M23.749 136.303h696.597v779.756H23.749z"/><path d="M671.99 494.566a305.656 305.656 0 1 1-611.313 0 305.656 305.656 0 1 1 611.312 0z" style="marker:none" color="#000" fill="#e6e6e6" stroke="#333" stroke-width="5.999086800000001" stroke-linecap="round" overflow="visible"/><path style="marker:none" d="M468.217 494.566a101.884 101.884 0 1 1-203.768 0 101.884 101.884 0 1 1 203.768 0z" color="#000" fill="#b3b3b3" stroke="#333" stroke-width="6.0004" stroke-linecap="round" overflow="visible"/><path style="marker:none" d="M373.33 494.566a6.997 6.997 0 1 1-13.994 0 6.997 6.997 0 1 1 13.994 0z" color="#000" stroke="#1a1a1a" stroke-width="6" stroke-linecap="round" overflow="visible"/><g stroke="green"><g fill="#d40000"><path d="M548.592 495.011l110.1.019" stroke-width="6.000251609999999"/><path d="M664.894 495.03l-2.825-1.63-2.824-1.631v3.261l-.001 3.261 2.825-1.63z" stroke-width="7.8623787599999995"/></g><g fill="#d40000"><path d="M555.362 495.011l-174.897.019" stroke-width="6.000251609999999"/><path d="M374.264 495.03l2.825-1.63 2.824-1.631v6.522l-2.824-1.63z" stroke-width="7.8623787599999995"/></g></g><g stroke="green"><g fill="#d40000"><path d="M303.947 495.011l48.254.019" stroke-width="6.000251609999999"/><path d="M358.402 495.03l-2.824-1.63-2.825-1.631v6.522l2.824-1.63z" stroke-width="7.8623787599999995"/></g><g fill="#d40000"><path d="M313.279 495.011l-35.306.019" stroke-width="6.000251609999999"/><path d="M271.773 495.03l2.824-1.63 2.824-1.631v3.261l.001 3.261-2.824-1.63z" stroke-width="7.8623787599999995"/></g></g><path d="M260.449 490.566A101.884 101.884 0 0 1 362.333 388.68" style="marker:none" color="#000" fill="none" stroke="#000" stroke-width="8.00007616" stroke-linecap="round" overflow="visible"/><path d="M260.449 490.566v372.652M675.99 490.566v372.652" fill="none" stroke="#000" stroke-width="8" stroke-linecap="round"/><path style="marker:none" d="M370.333 184.91A305.656 305.656 0 0 1 675.99 490.566" color="#000" fill="none" stroke="#000" stroke-width="7.9987824000000005" stroke-linecap="round" overflow="visible"/><path d="M373.33 392.681a6.997 6.997 0 1 1-13.994 0 6.997 6.997 0 1 1 13.994 0zM377.33 184.91a6.997 6.997 0 1 1-13.994 0 6.997 6.997 0 1 1 13.994 0z" style="marker:none" color="#000" stroke="#1a1a1a" stroke-width="6" stroke-linecap="round" overflow="visible"/><g ns0:text="$\\vec{F}_{\\rm{1}}$" ns0:preamble="/home/waldgeist/data/sphinx/inkscape-preamble.tex" transform="matrix(5.29276 0 0 5.29276 -999.29 150.759)" fill="#d40000" stroke="#d40000"><defs><symbol overflow="visible" id="a"><path d="M5.36-5.938c-.141.141-.47.422-.47.594 0 .094.094.203.188.203s.14-.078.203-.14c.11-.14.344-.422.782-.64.062-.048.171-.095.171-.204 0-.11-.078-.156-.14-.203a1.034 1.034 0 0 1-.407-.563c-.03-.093-.062-.234-.203-.234-.14 0-.203.14-.203.219 0 .047.078.36.235.578h-3.36c-.156 0-.344 0-.344.203 0 .188.188.188.344.188z" stroke="none"/></symbol><symbol overflow="visible" id="b"><path d="M3.016-3.234h.968c.75 0 .829.156.829.437 0 .078 0 .188-.063.5-.031.047-.031.078-.031.11 0 .078.062.109.11.109.109 0 .109-.031.155-.203l.547-2.172c.032-.11.032-.125.032-.156a.117.117 0 0 0-.125-.11c-.094 0-.11.047-.141.219-.219.766-.438.953-1.297.953h-.906l.64-2.531c.094-.36.11-.39.547-.39h1.313c1.218 0 1.453.327 1.453 1.093 0 .234 0 .266-.031.547C7-4.703 7-4.688 7-4.656c0 .047.031.125.125.125.11 0 .11-.063.125-.25l.203-1.735c.031-.265-.016-.265-.266-.265h-4.89c-.188 0-.297 0-.297.203 0 .11.094.11.281.11.375 0 .656 0 .656.171 0 .047 0 .063-.062.25L1.562-.78c-.093.39-.109.469-.906.469-.172 0-.281 0-.281.187C.375 0 .5 0 .531 0c.281 0 1.031-.031 1.313-.031C2.172-.031 3 0 3.328 0c.094 0 .203 0 .203-.188 0-.078-.047-.109-.047-.109-.03-.016-.062-.016-.28-.016-.22 0-.267 0-.517-.015-.296-.031-.328-.078-.328-.203 0-.016 0-.078.047-.219z" stroke="none"/></symbol><symbol overflow="visible" id="c"><path d="M2.328-4.438c0-.187 0-.187-.203-.187-.453.438-1.078.438-1.36.438v.25c.157 0 .626 0 1-.188v3.547c0 .234 0 .328-.687.328H.812V0c.125 0 .985-.031 1.235-.031.219 0 1.094.031 1.25.031v-.25H3.03c-.703 0-.703-.094-.703-.328z" stroke="none"/></symbol></defs><use xlink:href="#a" x="224.901" y="132.246" width="744.094" height="1052.362"/><use xlink:href="#b" x="223.432" y="134.765" width="744.094" height="1052.362"/><use xlink:href="#c" x="229.839" y="136.259" width="744.094" height="1052.362"/></g><g ns0:text="$\\vec{F}_{\\rm{2}}$" ns0:preamble="/home/waldgeist/data/sphinx/inkscape-preamble.tex" fill="#d40000" stroke="#d40000"><path d="M635.327 819.28c-.744.744-2.48 2.233-2.48 3.142 0 .497.496 1.075.992 1.075s.744-.413 1.075-.744c.579-.744 1.82-2.233 4.135-3.39.33-.249.91-.497.91-1.076 0-.578-.414-.827-.745-1.075-1.157-.827-1.736-1.736-2.15-2.977-.165-.496-.33-1.24-1.075-1.24-.744 0-1.075.744-1.075 1.157 0 .249.413 1.903 1.24 3.06h-17.78c-.827 0-1.82 0-1.82 1.075 0 .993.993.993 1.82.993zM615.148 846.92h5.127c3.97 0 4.383.826 4.383 2.315 0 .413 0 .992-.33 2.646-.166.248-.166.414-.166.58 0 .413.33.578.579.578.579 0 .579-.165.827-1.075l2.894-11.495c.166-.58.166-.662.166-.827a.62.62 0 0 0-.662-.58c-.496 0-.579.249-.744 1.159-1.158 4.052-2.316 5.044-6.864 5.044h-4.797l3.39-13.397c.497-1.902.58-2.068 2.895-2.068h6.947c6.45 0 7.691 1.737 7.691 5.79 0 1.24 0 1.405-.165 2.894-.083.662-.083.744-.083.91 0 .248.165.661.661.661.58 0 .58-.33.662-1.323l1.075-9.18c.166-1.406-.083-1.406-1.406-1.406h-25.885c-.992 0-1.57 0-1.57 1.076 0 .578.495.578 1.488.578 1.984 0 3.473 0 3.473.91 0 .248 0 .331-.33 1.323l-6.947 27.87c-.497 2.068-.58 2.481-4.797 2.481-.91 0-1.489 0-1.489.992 0 .662.662.662.827.662 1.489 0 5.459-.165 6.947-.165 1.737 0 6.12.165 7.857.165.496 0 1.075 0 1.075-.992 0-.414-.248-.58-.248-.58-.166-.082-.331-.082-1.49-.082-1.157 0-1.405 0-2.728-.083-1.571-.165-1.737-.413-1.737-1.075 0-.082 0-.413.248-1.158zM651.705 865.247h-1.24c-.084.827-.497 2.977-.993 3.308-.248.248-3.06.248-3.639.248h-6.781c3.886-3.39 5.21-4.466 7.36-6.203 2.729-2.15 5.293-4.465 5.293-7.939 0-4.466-3.887-7.195-8.601-7.195-4.549 0-7.691 3.226-7.691 6.616 0 1.82 1.571 2.068 1.985 2.068.827 0 1.902-.662 1.902-1.985 0-.662-.248-1.985-2.15-1.985 1.157-2.563 3.638-3.39 5.375-3.39 3.721 0 5.624 2.894 5.624 5.871 0 3.226-2.316 5.707-3.474 7.03l-8.849 8.849c-.413.33-.413.413-.413 1.405h15.217z" stroke="none"/></g><g fill="#d40000" stroke="#d40000"><path d="M675.99 809.434v53.784" stroke-width="11.9996954" stroke-linecap="round"/><path d="M675.99 871.241l2.11-3.654 2.11-3.655h-8.44l2.11 3.655z" stroke-width="12.416265130000001"/></g><g stroke="#d40000"><g fill="#d40000"><path d="M260.449 809.434v53.784" stroke-width="9.4753092"/><path d="M260.45 871.241l2.109-3.654 2.11-3.655h-8.44l2.11 3.655z" stroke-width="12.416265130000001"/></g><path d="M260.449 594.297v268.921" fill="#d40000" stroke-width="12" stroke-linecap="round"/></g><g ns0:text="$\\vec{s}_{\\rm{2}}$" ns0:preamble="/home/waldgeist/data/sphinx/inkscape-preamble.tex" transform="matrix(5.29276 0 0 5.29276 -686.022 -167.95)" fill="green" stroke="green"><defs><symbol overflow="visible" id="d"><path d="M5.36-5.938c-.141.141-.47.422-.47.594 0 .094.094.203.188.203s.14-.078.203-.14c.11-.14.344-.422.782-.64.062-.048.171-.095.171-.204 0-.11-.078-.156-.14-.203a1.034 1.034 0 0 1-.407-.563c-.03-.093-.062-.234-.203-.234-.14 0-.203.14-.203.219 0 .047.078.36.235.578h-3.36c-.156 0-.344 0-.344.203 0 .188.188.188.344.188z" stroke="none"/></symbol><symbol overflow="visible" id="e"><path d="M3.89-3.734c-.265.015-.468.234-.468.453 0 .14.094.297.312.297.22 0 .454-.172.454-.563 0-.453-.422-.86-1.188-.86-1.313 0-1.688 1.016-1.688 1.454 0 .781.735.922 1.032.984.515.11 1.031.219 1.031.766 0 .25-.219 1.094-1.422 1.094-.14 0-.906 0-1.14-.532.39.047.64-.25.64-.53 0-.22-.172-.345-.375-.345-.266 0-.562.204-.562.657 0 .562.578.968 1.421.968 1.625 0 2.016-1.203 2.016-1.656a.97.97 0 0 0-.312-.719c-.266-.28-.563-.343-1-.421-.36-.079-.75-.157-.75-.61 0-.281.234-.89 1.109-.89.25 0 .75.078.89.453z" stroke="none"/></symbol><symbol overflow="visible" id="f"><path d="M3.516-1.266H3.28c-.015.157-.094.563-.187.625-.047.047-.578.047-.688.047H1.125c.734-.64.984-.844 1.39-1.172.516-.406 1-.843 1-1.5 0-.843-.734-1.359-1.624-1.359-.86 0-1.454.61-1.454 1.25 0 .344.297.39.376.39.156 0 .359-.124.359-.374 0-.125-.047-.375-.406-.375.218-.485.687-.641 1.015-.641.703 0 1.063.547 1.063 1.11 0 .609-.438 1.078-.656 1.328L.516-.266C.437-.203.437-.187.437 0h2.876z" stroke="none"/></symbol></defs><use xlink:href="#d" x="223.064" y="134.765" width="744.094" height="1052.362"/><use xlink:href="#e" x="223.433" y="134.765" width="744.094" height="1052.362"/><use xlink:href="#f" x="228.102" y="136.259" width="744.094" height="1052.362"/></g><g transform="matrix(5.29276 0 0 5.29276 -889.935 -167.95)" ns0:preamble="/home/waldgeist/data/sphinx/inkscape-preamble.tex" ns0:text="$\\vec{s}_{\\rm{1}}$" fill="green" stroke="green"><defs><symbol id="g" overflow="visible"><path d="M5.36-5.938c-.141.141-.47.422-.47.594 0 .094.094.203.188.203s.14-.078.203-.14c.11-.14.344-.422.782-.64.062-.048.171-.095.171-.204 0-.11-.078-.156-.14-.203a1.034 1.034 0 0 1-.407-.563c-.03-.093-.062-.234-.203-.234-.14 0-.203.14-.203.219 0 .047.078.36.235.578h-3.36c-.156 0-.344 0-.344.203 0 .188.188.188.344.188z" stroke="none"/></symbol><symbol id="h" overflow="visible"><path d="M3.89-3.734c-.265.015-.468.234-.468.453 0 .14.094.297.312.297.22 0 .454-.172.454-.563 0-.453-.422-.86-1.188-.86-1.313 0-1.688 1.016-1.688 1.454 0 .781.735.922 1.032.984.515.11 1.031.219 1.031.766 0 .25-.219 1.094-1.422 1.094-.14 0-.906 0-1.14-.532.39.047.64-.25.64-.53 0-.22-.172-.345-.375-.345-.266 0-.562.204-.562.657 0 .562.578.968 1.421.968 1.625 0 2.016-1.203 2.016-1.656a.97.97 0 0 0-.312-.719c-.266-.28-.563-.343-1-.421-.36-.079-.75-.157-.75-.61 0-.281.234-.89 1.109-.89.25 0 .75.078.89.453z" stroke="none"/></symbol><symbol id="i" overflow="visible"><path d="M2.328-4.438c0-.187 0-.187-.203-.187-.453.438-1.078.438-1.36.438v.25c.157 0 .626 0 1-.188v3.547c0 .234 0 .328-.687.328H.812V0c.125 0 .985-.031 1.235-.031.219 0 1.094.031 1.25.031v-.25H3.03c-.703 0-.703-.094-.703-.328z" stroke="none"/></symbol></defs><use y="134.765" x="223.064" xlink:href="#g" width="744.094" height="1052.362"/><use y="134.765" x="223.433" xlink:href="#h" width="744.094" height="1052.362"/><use y="136.259" x="228.102" xlink:href="#i" width="744.094" height="1052.362"/></g></svg>