<svg xmlns:ns0="http://www.iki.fi/pav/software/textext/" xmlns="http://www.w3.org/2000/svg" xmlns:xlink="http://www.w3.org/1999/xlink" width="210mm" height="297mm"><title>Winkelhebel (Nageleisen)</title><defs><marker orient="auto" id="m" overflow="visible"><path d="M8.719 4.034L-2.207.016 8.719-4.002c-1.746 2.372-1.736 5.618 0 8.036z" transform="scale(.6)" fill-rule="evenodd" stroke-width=".625" stroke-linejoin="round"/></marker><marker orient="auto" id="n" overflow="visible"><path d="M8.719 4.034L-2.207.016 8.719-4.002c-1.746 2.372-1.736 5.618 0 8.036z" transform="scale(-.6)" fill-rule="evenodd" stroke-width=".625" stroke-linejoin="round"/></marker></defs><path fill="#fff" stroke="#fff" stroke-linecap="round" stroke-linejoin="round" d="M151.43 240.51h441.235v571.342H151.43z"/><g stroke="#333" fill="#666" stroke-width="3" stroke-linecap="round" stroke-linejoin="round"><path d="M379.395 653.104h9.115l-4.211 87.368h-.693z"/><path d="M367.552 646.812h32.801v7.86h-32.801z"/></g><path style="text-indent:0;text-align:start;line-height:normal;text-transform:none;block-progression:tb;marker:none;-inkscape-font-specification:Sans" d="M271.595 283.125c-3.68.054-7.115 2.976-7.759 6.6-.644 3.623 1.573 7.549 5.009 8.868 8.762 3.462 25.981 13.954 32.468 19.407 6.487 5.453 9.805 11.135 9.805 18.78v326.917c0 3.025 1.55 5.993 5.078 5.993 39.58 0 78.085-.867 95.586-10.972v-1.78h-84.375V336.78c0-13.127-7.057-23.671-15.812-31.031-8.756-7.36-27.363-18.274-36.875-22.032a8.027 8.027 0 0 0-3.125-.593z" font-weight="400" color="#000" fill="#999" stroke="#4d4d4d" stroke-width="1.5" overflow="visible" font-family="Sans"/><path transform="matrix(-1.10574 0 0 1.10607 2891.407 545.816)" d="M2330.115 104.527a4.288 4.288 0 1 1-8.576 0 4.288 4.288 0 1 1 8.576 0z" fill="#fc0" fill-rule="evenodd" stroke="#000" stroke-width="1.808"/><path fill="#fff" stroke="#fff" stroke-width="3" stroke-linecap="round" stroke-linejoin="round" d="M234.934 720.477h299.018v23.06H234.934z"/><g transform="translate(-707.49 -206.591) scale(4.32196)" ns0:text="$\\vec{F}_{\\rm{1}}$" ns0:preamble="/home/waldgeist/data/sphinx/test.tex" fill="#d40000"><defs><symbol overflow="visible" id="a"><path d="M5.36-5.938c-.141.141-.47.422-.47.594 0 .094.094.203.188.203s.14-.078.203-.14c.11-.14.344-.422.782-.64.062-.048.171-.095.171-.204 0-.11-.078-.156-.14-.203a1.034 1.034 0 0 1-.407-.563c-.03-.093-.062-.234-.203-.234-.14 0-.203.14-.203.219 0 .047.078.36.235.578h-3.36c-.156 0-.344 0-.344.203 0 .188.188.188.344.188zm0 0"/></symbol><symbol overflow="visible" id="b"><path d="M3.016-3.234h.968c.75 0 .829.156.829.437 0 .078 0 .188-.063.5-.031.047-.031.078-.031.11 0 .078.062.109.11.109.109 0 .109-.031.155-.203l.547-2.172c.032-.11.032-.125.032-.156a.117.117 0 0 0-.125-.11c-.094 0-.11.047-.141.219-.219.766-.438.953-1.297.953h-.906l.64-2.531c.094-.36.11-.39.547-.39h1.313c1.218 0 1.453.327 1.453 1.093 0 .234 0 .266-.031.547C7-4.703 7-4.688 7-4.656c0 .047.031.125.125.125.11 0 .11-.063.125-.25l.203-1.735c.031-.265-.016-.265-.266-.265h-4.89c-.188 0-.297 0-.297.203 0 .11.094.11.281.11.375 0 .656 0 .656.171 0 .047 0 .063-.062.25L1.562-.78c-.093.39-.109.469-.906.469-.172 0-.281 0-.281.187C.375 0 .5 0 .531 0c.281 0 1.031-.031 1.313-.031C2.172-.031 3 0 3.328 0c.094 0 .203 0 .203-.188 0-.078-.047-.109-.047-.109-.03-.016-.062-.016-.28-.016-.22 0-.267 0-.517-.015-.296-.031-.328-.078-.328-.203 0-.016 0-.078.047-.219zm0 0"/></symbol><symbol overflow="visible" id="c"><path d="M2.328-4.438c0-.187 0-.187-.203-.187-.453.438-1.078.438-1.36.438v.25c.157 0 .626 0 1-.188v3.547c0 .234 0 .328-.687.328H.812V0c.125 0 .985-.031 1.235-.031.219 0 1.094.031 1.25.031v-.25H3.03c-.703 0-.703-.094-.703-.328zm0 0"/></symbol></defs><use height="1052.362" width="744.094" xlink:href="#a" x="224.901" y="132.246"/><use height="1052.362" width="744.094" xlink:href="#b" x="223.432" y="134.765"/><use height="1052.362" width="744.094" xlink:href="#c" x="229.839" y="136.259"/></g><g transform="translate(-570.554 -66.61) scale(4.32196)" ns0:preamble="/home/waldgeist/data/sphinx/test.tex" ns0:text="$\\vec{F}_{\\rm{2}}$" fill="#d40000"><defs><symbol id="d" overflow="visible"><path d="M5.36-5.938c-.141.141-.47.422-.47.594 0 .094.094.203.188.203s.14-.078.203-.14c.11-.14.344-.422.782-.64.062-.048.171-.095.171-.204 0-.11-.078-.156-.14-.203a1.034 1.034 0 0 1-.407-.563c-.03-.093-.062-.234-.203-.234-.14 0-.203.14-.203.219 0 .047.078.36.235.578h-3.36c-.156 0-.344 0-.344.203 0 .188.188.188.344.188zm0 0"/></symbol><symbol id="e" overflow="visible"><path d="M3.016-3.234h.968c.75 0 .829.156.829.437 0 .078 0 .188-.063.5-.031.047-.031.078-.031.11 0 .078.062.109.11.109.109 0 .109-.031.155-.203l.547-2.172c.032-.11.032-.125.032-.156a.117.117 0 0 0-.125-.11c-.094 0-.11.047-.141.219-.219.766-.438.953-1.297.953h-.906l.64-2.531c.094-.36.11-.39.547-.39h1.313c1.218 0 1.453.327 1.453 1.093 0 .234 0 .266-.031.547C7-4.703 7-4.688 7-4.656c0 .047.031.125.125.125.11 0 .11-.063.125-.25l.203-1.735c.031-.265-.016-.265-.266-.265h-4.89c-.188 0-.297 0-.297.203 0 .11.094.11.281.11.375 0 .656 0 .656.171 0 .047 0 .063-.062.25L1.562-.78c-.093.39-.109.469-.906.469-.172 0-.281 0-.281.187C.375 0 .5 0 .531 0c.281 0 1.031-.031 1.313-.031C2.172-.031 3 0 3.328 0c.094 0 .203 0 .203-.188 0-.078-.047-.109-.047-.109-.03-.016-.062-.016-.28-.016-.22 0-.267 0-.517-.015-.296-.031-.328-.078-.328-.203 0-.016 0-.078.047-.219zm0 0"/></symbol><symbol id="f" overflow="visible"><path d="M3.516-1.266H3.28c-.015.157-.094.563-.187.625-.047.047-.578.047-.688.047H1.125c.734-.64.984-.844 1.39-1.172.516-.406 1-.843 1-1.5 0-.843-.734-1.359-1.624-1.359-.86 0-1.454.61-1.454 1.25 0 .344.297.39.376.39.156 0 .359-.124.359-.374 0-.125-.047-.375-.406-.375.218-.485.687-.641 1.015-.641.703 0 1.063.547 1.063 1.11 0 .609-.438 1.078-.656 1.328L.516-.266C.437-.203.437-.187.437 0h2.876zm0 0"/></symbol></defs><use y="132.246" x="224.901" xlink:href="#d" width="744.094" height="1052.362"/><use y="134.765" x="223.432" xlink:href="#e" width="744.094" height="1052.362"/><use y="136.259" x="229.839" xlink:href="#f" width="744.094" height="1052.362"/></g><g ns0:text="$\\vec{s}_{\\rm{2}}$" transform="translate(-628.902 195.264) scale(4.32196)" fill="green" stroke="green"><defs><symbol overflow="visible" id="g"><path d="M5.36-5.938c-.141.141-.47.422-.47.594 0 .094.094.203.188.203s.14-.078.203-.14c.11-.14.344-.422.782-.64.062-.048.171-.095.171-.204 0-.11-.078-.156-.14-.203a1.034 1.034 0 0 1-.407-.563c-.03-.093-.062-.234-.203-.234-.14 0-.203.14-.203.219 0 .047.078.36.235.578h-3.36c-.156 0-.344 0-.344.203 0 .188.188.188.344.188z" stroke="none"/></symbol><symbol overflow="visible" id="h"><path d="M3.89-3.734c-.265.015-.468.234-.468.453 0 .14.094.297.312.297.22 0 .454-.172.454-.563 0-.453-.422-.86-1.188-.86-1.313 0-1.688 1.016-1.688 1.454 0 .781.735.922 1.032.984.515.11 1.031.219 1.031.766 0 .25-.219 1.094-1.422 1.094-.14 0-.906 0-1.14-.532.39.047.64-.25.64-.53 0-.22-.172-.345-.375-.345-.266 0-.562.204-.562.657 0 .562.578.968 1.421.968 1.625 0 2.016-1.203 2.016-1.656a.97.97 0 0 0-.312-.719c-.266-.28-.563-.343-1-.421-.36-.079-.75-.157-.75-.61 0-.281.234-.89 1.109-.89.25 0 .75.078.89.453z" stroke="none"/></symbol><symbol overflow="visible" id="i"><path d="M3.516-1.266H3.28c-.015.157-.094.563-.187.625-.047.047-.578.047-.688.047H1.125c.734-.64.984-.844 1.39-1.172.516-.406 1-.843 1-1.5 0-.843-.734-1.359-1.624-1.359-.86 0-1.454.61-1.454 1.25 0 .344.297.39.376.39.156 0 .359-.124.359-.374 0-.125-.047-.375-.406-.375.218-.485.687-.641 1.015-.641.703 0 1.063.547 1.063 1.11 0 .609-.438 1.078-.656 1.328L.516-.266C.437-.203.437-.187.437 0h2.876z" stroke="none"/></symbol></defs><use height="1052.362" width="744.094" xlink:href="#g" x="223.064" y="134.765"/><use height="1052.362" width="744.094" xlink:href="#h" x="223.433" y="134.765"/><use height="1052.362" width="744.094" xlink:href="#i" x="228.102" y="136.259"/></g><g transform="translate(-697.93 -78.013) scale(4.32196)" ns0:text="$\\vec{s}_{\\rm{1}}$" fill="green" stroke="green"><defs><symbol id="j" overflow="visible"><path d="M5.36-5.938c-.141.141-.47.422-.47.594 0 .094.094.203.188.203s.14-.078.203-.14c.11-.14.344-.422.782-.64.062-.048.171-.095.171-.204 0-.11-.078-.156-.14-.203a1.034 1.034 0 0 1-.407-.563c-.03-.093-.062-.234-.203-.234-.14 0-.203.14-.203.219 0 .047.078.36.235.578h-3.36c-.156 0-.344 0-.344.203 0 .188.188.188.344.188z" stroke="none"/></symbol><symbol id="k" overflow="visible"><path d="M3.89-3.734c-.265.015-.468.234-.468.453 0 .14.094.297.312.297.22 0 .454-.172.454-.563 0-.453-.422-.86-1.188-.86-1.313 0-1.688 1.016-1.688 1.454 0 .781.735.922 1.032.984.515.11 1.031.219 1.031.766 0 .25-.219 1.094-1.422 1.094-.14 0-.906 0-1.14-.532.39.047.64-.25.64-.53 0-.22-.172-.345-.375-.345-.266 0-.562.204-.562.657 0 .562.578.968 1.421.968 1.625 0 2.016-1.203 2.016-1.656a.97.97 0 0 0-.312-.719c-.266-.28-.563-.343-1-.421-.36-.079-.75-.157-.75-.61 0-.281.234-.89 1.109-.89.25 0 .75.078.89.453z" stroke="none"/></symbol><symbol id="l" overflow="visible"><path d="M2.328-4.438c0-.187 0-.187-.203-.187-.453.438-1.078.438-1.36.438v.25c.157 0 .626 0 1-.188v3.547c0 .234 0 .328-.687.328H.812V0c.125 0 .985-.031 1.235-.031.219 0 1.094.031 1.25.031v-.25H3.03c-.703 0-.703-.094-.703-.328z" stroke="none"/></symbol></defs><use y="134.765" x="223.064" xlink:href="#j" width="744.094" height="1052.362"/><use y="134.765" x="223.433" xlink:href="#k" width="744.094" height="1052.362"/><use y="136.259" x="228.102" xlink:href="#l" width="744.094" height="1052.362"/></g><path d="M322.787 736.78h58.557" fill="green" stroke="green" stroke-width="3" stroke-linecap="round" marker-start="url(#m)" marker-end="url(#n)"/><path d="M318.997 320.731h-54.54" fill="#d40000" stroke="#d40000" stroke-width="3" stroke-linecap="round" marker-end="url(#n)"/><path style="marker:none" color="#000" fill="#c87137" stroke="#502d16" stroke-width="2" stroke-linecap="round" stroke-linejoin="round" overflow="visible" d="M221.075 671.38h301.944v52.569H221.075z"/><path d="M384.916 657.629v-316.33" fill="#d40000" stroke="#d40000" stroke-width="3" stroke-linecap="round" marker-end="url(#n)"/><path d="M319.44 658.494V326.042" fill="green" stroke="green" stroke-width="3" stroke-linecap="round" marker-start="url(#m)" marker-end="url(#n)"/></svg>