<?xml version="1.0" encoding="UTF-8" standalone="no"?>
<!-- Created with Inkscape (http://www.inkscape.org/) -->

<svg
   xmlns:ns0="http://www.iki.fi/pav/software/textext/"
   xmlns:dc="http://purl.org/dc/elements/1.1/"
   xmlns:cc="http://creativecommons.org/ns#"
   xmlns:rdf="http://www.w3.org/1999/02/22-rdf-syntax-ns#"
   xmlns:svg="http://www.w3.org/2000/svg"
   xmlns="http://www.w3.org/2000/svg"
   xmlns:xlink="http://www.w3.org/1999/xlink"
   xmlns:sodipodi="http://sodipodi.sourceforge.net/DTD/sodipodi-0.dtd"
   xmlns:inkscape="http://www.inkscape.org/namespaces/inkscape"
   width="210mm"
   height="297mm"
   id="svg3961"
   version="1.1"
   inkscape:version="0.48.4 r9939"
   sodipodi:docname="winkelhebel-nageleisen.svg">
  <title
     id="title4758">Winkelhebel (Nageleisen)</title>
  <defs
     id="defs3963">
    <marker
       inkscape:stockid="Arrow2Mstart"
       orient="auto"
       refY="0"
       refX="0"
       id="Arrow2Mstart"
       style="overflow:visible">
      <path
         inkscape:connector-curvature="0"
         id="path10310"
         style="fill-rule:evenodd;stroke-width:0.625;stroke-linejoin:round"
         d="M 8.7185878,4.0337352 -2.2072895,0.01601326 8.7185884,-4.0017078 c -1.7454984,2.3720609 -1.7354408,5.6174519 -6e-7,8.035443 z"
         transform="scale(0.6,0.6)" />
    </marker>
    <marker
       inkscape:stockid="Arrow2Mend"
       orient="auto"
       refY="0"
       refX="0"
       id="Arrow2Mend"
       style="overflow:visible">
      <path
         inkscape:connector-curvature="0"
         id="path10313"
         style="fill-rule:evenodd;stroke-width:0.625;stroke-linejoin:round"
         d="M 8.7185878,4.0337352 -2.2072895,0.01601326 8.7185884,-4.0017078 c -1.7454984,2.3720609 -1.7354408,5.6174519 -6e-7,8.035443 z"
         transform="scale(-0.6,-0.6)" />
    </marker>
    <marker
       inkscape:stockid="Arrow2Mend"
       orient="auto"
       refY="0"
       refX="0"
       id="marker3861"
       style="overflow:visible">
      <path
         inkscape:connector-curvature="0"
         id="path3863"
         style="fill-rule:evenodd;stroke-width:0.625;stroke-linejoin:round"
         d="M 8.7185878,4.0337352 -2.2072895,0.01601326 8.7185884,-4.0017078 c -1.7454984,2.3720609 -1.7354408,5.6174519 -6e-7,8.035443 z"
         transform="scale(-0.6,-0.6)" />
    </marker>
    <marker
       inkscape:stockid="Arrow2Mend"
       orient="auto"
       refY="0"
       refX="0"
       id="marker3865"
       style="overflow:visible">
      <path
         inkscape:connector-curvature="0"
         id="path3867"
         style="fill-rule:evenodd;stroke-width:0.625;stroke-linejoin:round"
         d="M 8.7185878,4.0337352 -2.2072895,0.01601326 8.7185884,-4.0017078 c -1.7454984,2.3720609 -1.7354408,5.6174519 -6e-7,8.035443 z"
         transform="scale(-0.6,-0.6)" />
    </marker>
    <marker
       inkscape:stockid="Arrow2Mstart"
       orient="auto"
       refY="0"
       refX="0"
       id="marker3869"
       style="overflow:visible">
      <path
         inkscape:connector-curvature="0"
         id="path3871"
         style="fill-rule:evenodd;stroke-width:0.625;stroke-linejoin:round"
         d="M 8.7185878,4.0337352 -2.2072895,0.01601326 8.7185884,-4.0017078 c -1.7454984,2.3720609 -1.7354408,5.6174519 -6e-7,8.035443 z"
         transform="scale(0.6,0.6)" />
    </marker>
    <marker
       inkscape:stockid="Arrow2Mend"
       orient="auto"
       refY="0"
       refX="0"
       id="marker3873"
       style="overflow:visible">
      <path
         inkscape:connector-curvature="0"
         id="path3875"
         style="fill-rule:evenodd;stroke-width:0.625;stroke-linejoin:round"
         d="M 8.7185878,4.0337352 -2.2072895,0.01601326 8.7185884,-4.0017078 c -1.7454984,2.3720609 -1.7354408,5.6174519 -6e-7,8.035443 z"
         transform="scale(-0.6,-0.6)" />
    </marker>
  </defs>
  <sodipodi:namedview
     id="base"
     pagecolor="#ffffff"
     bordercolor="#666666"
     borderopacity="1.0"
     inkscape:pageopacity="0.0"
     inkscape:pageshadow="2"
     inkscape:zoom="0.66855469"
     inkscape:cx="413.04508"
     inkscape:cy="427.53743"
     inkscape:document-units="px"
     inkscape:current-layer="layer1"
     showgrid="false"
     inkscape:window-width="1600"
     inkscape:window-height="1150"
     inkscape:window-x="0"
     inkscape:window-y="0"
     inkscape:window-maximized="1" />
  <metadata
     id="metadata3966">
    <rdf:RDF>
      <cc:Work
         rdf:about="">
        <dc:format>image/svg+xml</dc:format>
        <dc:type
           rdf:resource="http://purl.org/dc/dcmitype/StillImage" />
        <dc:title>Winkelhebel (Nageleisen)</dc:title>
        <cc:license
           rdf:resource="http://creativecommons.org/licenses/by-nc-sa/3.0/" />
        <dc:creator>
          <cc:Agent>
            <dc:title>Bernhard Grotz</dc:title>
          </cc:Agent>
        </dc:creator>
        <dc:rights>
          <cc:Agent>
            <dc:title>Bernhard Grotz</dc:title>
          </cc:Agent>
        </dc:rights>
        <dc:publisher>
          <cc:Agent>
            <dc:title>Bernhard Grotz</dc:title>
          </cc:Agent>
        </dc:publisher>
        <dc:date>2012-06-23</dc:date>
        <dc:subject>
          <rdf:Bag>
            <rdf:li>Physik</rdf:li>
            <rdf:li>Dynamik</rdf:li>
            <rdf:li>Kraftwandler</rdf:li>
            <rdf:li>Winkelhebel</rdf:li>
            <rdf:li>Nageleisen</rdf:li>
          </rdf:Bag>
        </dc:subject>
        <dc:language>de-DE</dc:language>
      </cc:Work>
      <cc:License
         rdf:about="http://creativecommons.org/licenses/by-nc-sa/3.0/">
        <cc:permits
           rdf:resource="http://creativecommons.org/ns#Reproduction" />
        <cc:permits
           rdf:resource="http://creativecommons.org/ns#Distribution" />
        <cc:requires
           rdf:resource="http://creativecommons.org/ns#Notice" />
        <cc:requires
           rdf:resource="http://creativecommons.org/ns#Attribution" />
        <cc:prohibits
           rdf:resource="http://creativecommons.org/ns#CommercialUse" />
        <cc:permits
           rdf:resource="http://creativecommons.org/ns#DerivativeWorks" />
        <cc:requires
           rdf:resource="http://creativecommons.org/ns#ShareAlike" />
      </cc:License>
    </rdf:RDF>
  </metadata>
  <g
     inkscape:label="Ebene 1"
     inkscape:groupmode="layer"
     id="layer1">
    <rect
       style="fill:#ffffff;fill-opacity:1;fill-rule:nonzero;stroke:#ffffff;stroke-width:1;stroke-linecap:round;stroke-linejoin:round;stroke-miterlimit:4;stroke-opacity:1;stroke-dasharray:none;stroke-dashoffset:0"
       id="rect8401"
       width="441.23465"
       height="571.34229"
       x="151.42992"
       y="240.50995"
       inkscape:export-filename="/home/waldgeist/data/pics/physik/Own/mechanik/dynamik/kraftwandler/winkelhebel-nageleisen.png"
       inkscape:export-xdpi="149.92613"
       inkscape:export-ydpi="149.92613" />
    <g
       id="g3705"
       transform="translate(99.051956,-83.648682)"
       inkscape:export-filename="/home/waldgeist/data/pics/physik/Own/mechanik/dynamik/kraftwandler/winkelhebel-nageleisen.png"
       inkscape:export-xdpi="149.92613"
       inkscape:export-ydpi="149.92613"
       style="stroke:#333333">
      <path
         sodipodi:nodetypes="ccccc"
         inkscape:connector-curvature="0"
         id="rect3700"
         d="m 280.34322,736.7526 9.1146,-2e-5 -4.21123,87.36819 -0.69213,10e-6 z"
         style="fill:#666666;fill-opacity:1;fill-rule:nonzero;stroke:#333333;stroke-width:3;stroke-linecap:round;stroke-linejoin:round;stroke-miterlimit:4;stroke-opacity:1;stroke-dashoffset:0" />
      <rect
         y="730.4613"
         x="268.50006"
         height="7.8585486"
         width="32.8009"
         id="rect3703"
         style="fill:#666666;fill-opacity:1;fill-rule:nonzero;stroke:#333333;stroke-width:3;stroke-linecap:round;stroke-linejoin:round;stroke-miterlimit:4;stroke-opacity:1;stroke-dasharray:none;stroke-dashoffset:0" />
    </g>
    <path
       style="font-size:medium;font-style:normal;font-variant:normal;font-weight:normal;font-stretch:normal;text-indent:0;text-align:start;text-decoration:none;line-height:normal;letter-spacing:normal;word-spacing:normal;text-transform:none;direction:ltr;block-progression:tb;writing-mode:lr-tb;text-anchor:start;baseline-shift:baseline;color:#000000;fill:#999999;fill-opacity:1;stroke:#4d4d4d;stroke-width:1.5;marker:none;visibility:visible;display:inline;overflow:visible;enable-background:accumulate;font-family:Sans;-inkscape-font-specification:Sans"
       d="m 271.59461,283.12468 c -3.68002,0.0546 -7.1144,2.9759 -7.7586,6.59951 -0.6442,3.62361 1.57288,7.54962 5.0086,8.86924 8.762,3.46147 25.98189,13.95334 32.46875,19.40625 6.48686,5.45291 9.80484,11.13507 9.80484,18.78125 l 0,326.91612 c 0,3.02486 1.54972,5.99299 5.07754,5.99299 39.57986,0 78.08537,-0.86742 95.58632,-10.9716 l 0,-1.7813 -84.375,0 0,-320.15621 c 0,-13.12711 -7.05665,-23.67101 -15.8125,-31.03125 -8.75585,-7.36024 -27.36256,-18.27332 -36.875,-22.03125 -0.98812,-0.40373 -2.05767,-0.60694 -3.125,-0.59375 z"
       id="path4497"
       inkscape:connector-curvature="0"
       sodipodi:nodetypes="cscsssccccssccc"
       inkscape:export-filename="/home/waldgeist/data/pics/physik/Own/mechanik/dynamik/kraftwandler/winkelhebel-nageleisen.png"
       inkscape:export-xdpi="149.92613"
       inkscape:export-ydpi="149.92613" />
    <path
       transform="matrix(-1.1057449,0,0,1.1060689,2891.4074,545.81571)"
       d="m 2330.1155,104.52731 a 4.2881513,4.2881513 0 1 1 -8.5763,0 4.2881513,4.2881513 0 1 1 8.5763,0 z"
       sodipodi:ry="4.2881513"
       sodipodi:rx="4.2881513"
       sodipodi:cy="104.52731"
       sodipodi:cx="2325.8274"
       id="path10746-8-7"
       style="fill:#ffcc00;fill-rule:evenodd;stroke:#000000;stroke-width:1.80847037;stroke-linecap:butt;stroke-linejoin:miter;stroke-opacity:1"
       sodipodi:type="arc"
       inkscape:export-filename="/home/waldgeist/data/pics/physik/Own/mechanik/dynamik/kraftwandler/winkelhebel-nageleisen.png"
       inkscape:export-xdpi="149.92613"
       inkscape:export-ydpi="149.92613" />
    <rect
       style="fill:#ffffff;fill-opacity:1;fill-rule:nonzero;stroke:#ffffff;stroke-width:3;stroke-linecap:round;stroke-linejoin:round;stroke-miterlimit:4;stroke-opacity:1;stroke-dasharray:none;stroke-dashoffset:0"
       id="rect5178"
       width="299.0184"
       height="23.060389"
       x="234.93407"
       y="720.47699"
       inkscape:export-filename="/home/waldgeist/data/pics/physik/Own/mechanik/dynamik/kraftwandler/winkelhebel-nageleisen.png"
       inkscape:export-xdpi="149.92613"
       inkscape:export-ydpi="149.92613" />
    <g
       style="fill:#d40000;fill-opacity:1"
       transform="matrix(4.3219607,0,0,4.3219607,-707.49076,-206.59137)"
       ns0:text="$\\vec{F}_{\\rm{1}}$"
       ns0:preamble="/home/waldgeist/data/sphinx/test.tex"
       id="g5647"
       inkscape:export-filename="/home/waldgeist/data/pics/physik/Own/mechanik/dynamik/kraftwandler/winkelhebel-nageleisen.png"
       inkscape:export-xdpi="149.92613"
       inkscape:export-ydpi="149.92613">
      <defs
         id="defs5649">
        <g
           id="g5651">
          <symbol
             style="overflow:visible"
             overflow="visible"
             id="textext-4266f9fb-0">
            <path
               inkscape:connector-curvature="0"
               style="stroke:none"
               d="m 5.359375,-5.9375 c -0.140625,0.140625 -0.46875,0.421875 -0.46875,0.59375 0,0.09375 0.09375,0.203125 0.1875,0.203125 0.09375,0 0.140625,-0.078125 0.203125,-0.140625 C 5.390625,-5.421875 5.625,-5.703125 6.0625,-5.921875 6.125,-5.96875 6.234375,-6.015625 6.234375,-6.125 6.234375,-6.234375 6.15625,-6.28125 6.09375,-6.328125 5.875,-6.484375 5.765625,-6.65625 5.6875,-6.890625 5.65625,-6.984375 5.625,-7.125 5.484375,-7.125 c -0.140625,0 -0.203125,0.140625 -0.203125,0.21875 0,0.046875 0.078125,0.359375 0.234375,0.578125 l -3.359375,0 c -0.15625,0 -0.34375,0 -0.34375,0.203125 0,0.1875 0.1875,0.1875 0.34375,0.1875 z m 0,0"
               id="path5654" />
          </symbol>
          <symbol
             style="overflow:visible"
             overflow="visible"
             id="textext-4266f9fb-1">
            <path
               inkscape:connector-curvature="0"
               style="stroke:none"
               d="m 3.015625,-3.234375 0.96875,0 c 0.75,0 0.828125,0.15625 0.828125,0.4375 0,0.078125 0,0.1875 -0.0625,0.5 C 4.71875,-2.25 4.71875,-2.21875 4.71875,-2.1875 c 0,0.078125 0.0625,0.109375 0.109375,0.109375 0.109375,0 0.109375,-0.03125 0.15625,-0.203125 L 5.53125,-4.453125 C 5.5625,-4.5625 5.5625,-4.578125 5.5625,-4.609375 5.5625,-4.625 5.546875,-4.71875 5.4375,-4.71875 5.34375,-4.71875 5.328125,-4.671875 5.296875,-4.5 5.078125,-3.734375 4.859375,-3.546875 4,-3.546875 l -0.90625,0 0.640625,-2.53125 C 3.828125,-6.4375 3.84375,-6.46875 4.28125,-6.46875 l 1.3125,0 c 1.21875,0 1.453125,0.328125 1.453125,1.09375 0,0.234375 0,0.265625 -0.03125,0.546875 C 7,-4.703125 7,-4.6875 7,-4.65625 c 0,0.046875 0.03125,0.125 0.125,0.125 0.109375,0 0.109375,-0.0625 0.125,-0.25 L 7.453125,-6.515625 C 7.484375,-6.78125 7.4375,-6.78125 7.1875,-6.78125 l -4.890625,0 c -0.1875,0 -0.296875,0 -0.296875,0.203125 0,0.109375 0.09375,0.109375 0.28125,0.109375 0.375,0 0.65625,0 0.65625,0.171875 0,0.046875 0,0.0625 -0.0625,0.25 L 1.5625,-0.78125 c -0.09375,0.390625 -0.109375,0.46875 -0.90625,0.46875 -0.171875,0 -0.28125,0 -0.28125,0.1875 C 0.375,0 0.5,0 0.53125,0 0.8125,0 1.5625,-0.03125 1.84375,-0.03125 2.171875,-0.03125 3,0 3.328125,0 3.421875,0 3.53125,0 3.53125,-0.1875 3.53125,-0.265625 3.484375,-0.296875 3.484375,-0.296875 3.453125,-0.3125 3.421875,-0.3125 3.203125,-0.3125 c -0.21875,0 -0.265625,0 -0.515625,-0.015625 -0.296875,-0.03125 -0.328125,-0.078125 -0.328125,-0.203125 0,-0.015625 0,-0.078125 0.046875,-0.21875 z m 0,0"
               id="path5657" />
          </symbol>
          <symbol
             style="overflow:visible"
             overflow="visible"
             id="textext-4266f9fb-2">
            <path
               inkscape:connector-curvature="0"
               style="stroke:none"
               d="m 2.328125,-4.4375 c 0,-0.1875 0,-0.1875 -0.203125,-0.1875 -0.453125,0.4375 -1.078125,0.4375 -1.359375,0.4375 l 0,0.25 c 0.15625,0 0.625,0 1,-0.1875 l 0,3.546875 c 0,0.234375 0,0.328125 -0.6875,0.328125 l -0.265625,0 0,0.25 c 0.125,0 0.984375,-0.03125 1.234375,-0.03125 0.21875,0 1.09375,0.03125 1.25,0.03125 l 0,-0.25 -0.265625,0 c -0.703125,0 -0.703125,-0.09375 -0.703125,-0.328125 z m 0,0"
               id="path5660" />
          </symbol>
        </g>
      </defs>
      <g
         style="fill:#d40000;fill-opacity:1"
         id="textext-4266f9fb-3">
        <g
           style="fill:#d40000;fill-opacity:1"
           id="g5663">
          <use
             style="fill:#d40000;fill-opacity:1"
             height="1052.3622"
             width="744.09448"
             xlink:href="#textext-4266f9fb-0"
             x="224.901"
             y="132.246"
             id="use5665" />
        </g>
        <g
           style="fill:#d40000;fill-opacity:1"
           id="g5667">
          <use
             style="fill:#d40000;fill-opacity:1"
             height="1052.3622"
             width="744.09448"
             xlink:href="#textext-4266f9fb-1"
             x="223.43201"
             y="134.765"
             id="use5669" />
        </g>
        <g
           style="fill:#d40000;fill-opacity:1"
           id="g5671">
          <use
             style="fill:#d40000;fill-opacity:1"
             height="1052.3622"
             width="744.09448"
             xlink:href="#textext-4266f9fb-2"
             x="229.839"
             y="136.259"
             id="use5673" />
        </g>
      </g>
    </g>
    <g
       id="g6371"
       style="fill:#d40000;fill-opacity:1"
       transform="matrix(4.3219607,0,0,4.3219607,-570.5545,-66.609692)"
       ns0:preamble="/home/waldgeist/data/sphinx/test.tex"
       ns0:text="$\\vec{F}_{\\rm{2}}$"
       inkscape:export-filename="/home/waldgeist/data/pics/physik/Own/mechanik/dynamik/kraftwandler/winkelhebel-nageleisen.png"
       inkscape:export-xdpi="149.92613"
       inkscape:export-ydpi="149.92613">
      <defs
         id="defs6373">
        <g
           id="g6375">
          <symbol
             id="textext-25d3bfb5-0"
             overflow="visible"
             style="overflow:visible">
            <path
               id="path6378"
               d="m 5.359375,-5.9375 c -0.140625,0.140625 -0.46875,0.421875 -0.46875,0.59375 0,0.09375 0.09375,0.203125 0.1875,0.203125 0.09375,0 0.140625,-0.078125 0.203125,-0.140625 C 5.390625,-5.421875 5.625,-5.703125 6.0625,-5.921875 6.125,-5.96875 6.234375,-6.015625 6.234375,-6.125 6.234375,-6.234375 6.15625,-6.28125 6.09375,-6.328125 5.875,-6.484375 5.765625,-6.65625 5.6875,-6.890625 5.65625,-6.984375 5.625,-7.125 5.484375,-7.125 c -0.140625,0 -0.203125,0.140625 -0.203125,0.21875 0,0.046875 0.078125,0.359375 0.234375,0.578125 l -3.359375,0 c -0.15625,0 -0.34375,0 -0.34375,0.203125 0,0.1875 0.1875,0.1875 0.34375,0.1875 z m 0,0"
               style="stroke:none"
               inkscape:connector-curvature="0" />
          </symbol>
          <symbol
             id="textext-25d3bfb5-1"
             overflow="visible"
             style="overflow:visible">
            <path
               id="path6381"
               d="m 3.015625,-3.234375 0.96875,0 c 0.75,0 0.828125,0.15625 0.828125,0.4375 0,0.078125 0,0.1875 -0.0625,0.5 C 4.71875,-2.25 4.71875,-2.21875 4.71875,-2.1875 c 0,0.078125 0.0625,0.109375 0.109375,0.109375 0.109375,0 0.109375,-0.03125 0.15625,-0.203125 L 5.53125,-4.453125 C 5.5625,-4.5625 5.5625,-4.578125 5.5625,-4.609375 5.5625,-4.625 5.546875,-4.71875 5.4375,-4.71875 5.34375,-4.71875 5.328125,-4.671875 5.296875,-4.5 5.078125,-3.734375 4.859375,-3.546875 4,-3.546875 l -0.90625,0 0.640625,-2.53125 C 3.828125,-6.4375 3.84375,-6.46875 4.28125,-6.46875 l 1.3125,0 c 1.21875,0 1.453125,0.328125 1.453125,1.09375 0,0.234375 0,0.265625 -0.03125,0.546875 C 7,-4.703125 7,-4.6875 7,-4.65625 c 0,0.046875 0.03125,0.125 0.125,0.125 0.109375,0 0.109375,-0.0625 0.125,-0.25 L 7.453125,-6.515625 C 7.484375,-6.78125 7.4375,-6.78125 7.1875,-6.78125 l -4.890625,0 c -0.1875,0 -0.296875,0 -0.296875,0.203125 0,0.109375 0.09375,0.109375 0.28125,0.109375 0.375,0 0.65625,0 0.65625,0.171875 0,0.046875 0,0.0625 -0.0625,0.25 L 1.5625,-0.78125 c -0.09375,0.390625 -0.109375,0.46875 -0.90625,0.46875 -0.171875,0 -0.28125,0 -0.28125,0.1875 C 0.375,0 0.5,0 0.53125,0 0.8125,0 1.5625,-0.03125 1.84375,-0.03125 2.171875,-0.03125 3,0 3.328125,0 3.421875,0 3.53125,0 3.53125,-0.1875 3.53125,-0.265625 3.484375,-0.296875 3.484375,-0.296875 3.453125,-0.3125 3.421875,-0.3125 3.203125,-0.3125 c -0.21875,0 -0.265625,0 -0.515625,-0.015625 -0.296875,-0.03125 -0.328125,-0.078125 -0.328125,-0.203125 0,-0.015625 0,-0.078125 0.046875,-0.21875 z m 0,0"
               style="stroke:none"
               inkscape:connector-curvature="0" />
          </symbol>
          <symbol
             id="textext-25d3bfb5-2"
             overflow="visible"
             style="overflow:visible">
            <path
               id="path6384"
               d="m 3.515625,-1.265625 -0.234375,0 c -0.015625,0.15625 -0.09375,0.5625 -0.1875,0.625 -0.046875,0.046875 -0.578125,0.046875 -0.6875,0.046875 l -1.28125,0 c 0.734375,-0.640625 0.984375,-0.84375 1.390625,-1.171875 0.515625,-0.40625 1,-0.84375 1,-1.5 0,-0.84375 -0.734375,-1.359375 -1.625,-1.359375 -0.859375,0 -1.453125,0.609375 -1.453125,1.25 0,0.34375 0.296875,0.390625 0.375,0.390625 0.15625,0 0.359375,-0.125 0.359375,-0.375 0,-0.125 -0.046875,-0.375 -0.40625,-0.375 C 0.984375,-4.21875 1.453125,-4.375 1.78125,-4.375 c 0.703125,0 1.0625,0.546875 1.0625,1.109375 0,0.609375 -0.4375,1.078125 -0.65625,1.328125 L 0.515625,-0.265625 C 0.4375,-0.203125 0.4375,-0.1875 0.4375,0 l 2.875,0 z m 0,0"
               style="stroke:none"
               inkscape:connector-curvature="0" />
          </symbol>
        </g>
      </defs>
      <g
         id="textext-25d3bfb5-3"
         style="fill:#d40000;fill-opacity:1">
        <g
           id="g6387"
           style="fill:#d40000;fill-opacity:1">
          <use
             id="use6389"
             y="132.246"
             x="224.901"
             xlink:href="#textext-25d3bfb5-0"
             style="fill:#d40000;fill-opacity:1"
             width="744.09448"
             height="1052.3622" />
        </g>
        <g
           id="g6391"
           style="fill:#d40000;fill-opacity:1">
          <use
             id="use6393"
             y="134.765"
             x="223.43201"
             xlink:href="#textext-25d3bfb5-1"
             style="fill:#d40000;fill-opacity:1"
             width="744.09448"
             height="1052.3622" />
        </g>
        <g
           id="g6395"
           style="fill:#d40000;fill-opacity:1">
          <use
             id="use6397"
             y="136.259"
             x="229.839"
             xlink:href="#textext-25d3bfb5-2"
             style="fill:#d40000;fill-opacity:1"
             width="744.09448"
             height="1052.3622" />
        </g>
      </g>
    </g>
    <g
       ns0:text="$\\vec{s}_{\\rm{2}}$"
       ns0:preamble=""
       transform="matrix(4.3219607,0,0,4.3219607,-628.90187,195.26353)"
       style="fill:#008000;fill-opacity:1;stroke:#008000"
       id="g12383"
       inkscape:export-filename="/home/waldgeist/data/pics/physik/Own/mechanik/dynamik/kraftwandler/winkelhebel-nageleisen.png"
       inkscape:export-xdpi="149.92613"
       inkscape:export-ydpi="149.92613">
      <defs
         id="defs12385">
        <g
           id="g12387">
          <symbol
             style="overflow:visible"
             overflow="visible"
             id="textext-90662a00-0">
            <path
               inkscape:connector-curvature="0"
               style="stroke:none"
               d=""
               id="path12390" />
          </symbol>
          <symbol
             style="overflow:visible"
             overflow="visible"
             id="textext-90662a00-1">
            <path
               inkscape:connector-curvature="0"
               style="stroke:none"
               d="m 5.359375,-5.9375 c -0.140625,0.140625 -0.46875,0.421875 -0.46875,0.59375 0,0.09375 0.09375,0.203125 0.1875,0.203125 0.09375,0 0.140625,-0.078125 0.203125,-0.140625 C 5.390625,-5.421875 5.625,-5.703125 6.0625,-5.921875 6.125,-5.96875 6.234375,-6.015625 6.234375,-6.125 6.234375,-6.234375 6.15625,-6.28125 6.09375,-6.328125 5.875,-6.484375 5.765625,-6.65625 5.6875,-6.890625 5.65625,-6.984375 5.625,-7.125 5.484375,-7.125 c -0.140625,0 -0.203125,0.140625 -0.203125,0.21875 0,0.046875 0.078125,0.359375 0.234375,0.578125 l -3.359375,0 c -0.15625,0 -0.34375,0 -0.34375,0.203125 0,0.1875 0.1875,0.1875 0.34375,0.1875 z"
               id="path12393" />
          </symbol>
          <symbol
             style="overflow:visible"
             overflow="visible"
             id="textext-90662a00-2">
            <path
               inkscape:connector-curvature="0"
               style="stroke:none"
               d="M 3.890625,-3.734375 C 3.625,-3.71875 3.421875,-3.5 3.421875,-3.28125 c 0,0.140625 0.09375,0.296875 0.3125,0.296875 0.21875,0 0.453125,-0.171875 0.453125,-0.5625 C 4.1875,-4 3.765625,-4.40625 3,-4.40625 c -1.3125,0 -1.6875,1.015625 -1.6875,1.453125 0,0.78125 0.734375,0.921875 1.03125,0.984375 0.515625,0.109375 1.03125,0.21875 1.03125,0.765625 0,0.25 -0.21875,1.09375 -1.421875,1.09375 -0.140625,0 -0.90625,0 -1.140625,-0.53125 0.390625,0.046875 0.640625,-0.25 0.640625,-0.53125 0,-0.21875 -0.171875,-0.34375 -0.375,-0.34375 -0.265625,0 -0.5625,0.203125 -0.5625,0.65625 0,0.5625 0.578125,0.96875 1.421875,0.96875 1.625,0 2.015625,-1.203125 2.015625,-1.65625 0,-0.359375 -0.1875,-0.609375 -0.3125,-0.71875 -0.265625,-0.28125 -0.5625,-0.34375 -1,-0.421875 -0.359375,-0.078125 -0.75,-0.15625 -0.75,-0.609375 C 1.890625,-3.578125 2.125,-4.1875 3,-4.1875 c 0.25,0 0.75,0.078125 0.890625,0.453125 z"
               id="path12396" />
          </symbol>
          <symbol
             style="overflow:visible"
             overflow="visible"
             id="textext-90662a00-3">
            <path
               inkscape:connector-curvature="0"
               style="stroke:none"
               d=""
               id="path12399" />
          </symbol>
          <symbol
             style="overflow:visible"
             overflow="visible"
             id="textext-90662a00-4">
            <path
               inkscape:connector-curvature="0"
               style="stroke:none"
               d="m 3.515625,-1.265625 -0.234375,0 c -0.015625,0.15625 -0.09375,0.5625 -0.1875,0.625 -0.046875,0.046875 -0.578125,0.046875 -0.6875,0.046875 l -1.28125,0 c 0.734375,-0.640625 0.984375,-0.84375 1.390625,-1.171875 0.515625,-0.40625 1,-0.84375 1,-1.5 0,-0.84375 -0.734375,-1.359375 -1.625,-1.359375 -0.859375,0 -1.453125,0.609375 -1.453125,1.25 0,0.34375 0.296875,0.390625 0.375,0.390625 0.15625,0 0.359375,-0.125 0.359375,-0.375 0,-0.125 -0.046875,-0.375 -0.40625,-0.375 C 0.984375,-4.21875 1.453125,-4.375 1.78125,-4.375 c 0.703125,0 1.0625,0.546875 1.0625,1.109375 0,0.609375 -0.4375,1.078125 -0.65625,1.328125 L 0.515625,-0.265625 C 0.4375,-0.203125 0.4375,-0.1875 0.4375,0 l 2.875,0 z"
               id="path12402" />
          </symbol>
        </g>
      </defs>
      <g
         style="fill:#008000"
         id="textext-90662a00-5">
        <g
           style="fill:#008000;fill-opacity:1"
           id="g12405">
          <use
             style="fill:#008000"
             height="1052.3622"
             width="744.09448"
             xlink:href="#textext-90662a00-1"
             x="223.064"
             y="134.765"
             id="use12407" />
        </g>
        <g
           style="fill:#008000;fill-opacity:1"
           id="g12409">
          <use
             style="fill:#008000"
             height="1052.3622"
             width="744.09448"
             xlink:href="#textext-90662a00-2"
             x="223.43262"
             y="134.765"
             id="use12411" />
        </g>
        <g
           style="fill:#008000;fill-opacity:1"
           id="g12413">
          <use
             style="fill:#008000"
             height="1052.3622"
             width="744.09448"
             xlink:href="#textext-90662a00-4"
             x="228.10201"
             y="136.259"
             id="use12415" />
        </g>
      </g>
    </g>
    <g
       id="g13163"
       style="fill:#008000;fill-opacity:1;stroke:#008000"
       transform="matrix(4.3219607,0,0,4.3219607,-697.93082,-78.012522)"
       ns0:preamble=""
       ns0:text="$\\vec{s}_{\\rm{1}}$"
       inkscape:export-filename="/home/waldgeist/data/pics/physik/Own/mechanik/dynamik/kraftwandler/winkelhebel-nageleisen.png"
       inkscape:export-xdpi="149.92613"
       inkscape:export-ydpi="149.92613">
      <defs
         id="defs13165">
        <g
           id="g13167">
          <symbol
             id="textext-409a9754-0"
             overflow="visible"
             style="overflow:visible">
            <path
               id="path13170"
               d=""
               style="stroke:none"
               inkscape:connector-curvature="0" />
          </symbol>
          <symbol
             id="textext-409a9754-1"
             overflow="visible"
             style="overflow:visible">
            <path
               id="path13173"
               d="m 5.359375,-5.9375 c -0.140625,0.140625 -0.46875,0.421875 -0.46875,0.59375 0,0.09375 0.09375,0.203125 0.1875,0.203125 0.09375,0 0.140625,-0.078125 0.203125,-0.140625 C 5.390625,-5.421875 5.625,-5.703125 6.0625,-5.921875 6.125,-5.96875 6.234375,-6.015625 6.234375,-6.125 6.234375,-6.234375 6.15625,-6.28125 6.09375,-6.328125 5.875,-6.484375 5.765625,-6.65625 5.6875,-6.890625 5.65625,-6.984375 5.625,-7.125 5.484375,-7.125 c -0.140625,0 -0.203125,0.140625 -0.203125,0.21875 0,0.046875 0.078125,0.359375 0.234375,0.578125 l -3.359375,0 c -0.15625,0 -0.34375,0 -0.34375,0.203125 0,0.1875 0.1875,0.1875 0.34375,0.1875 z"
               style="stroke:none"
               inkscape:connector-curvature="0" />
          </symbol>
          <symbol
             id="textext-409a9754-2"
             overflow="visible"
             style="overflow:visible">
            <path
               id="path13176"
               d="M 3.890625,-3.734375 C 3.625,-3.71875 3.421875,-3.5 3.421875,-3.28125 c 0,0.140625 0.09375,0.296875 0.3125,0.296875 0.21875,0 0.453125,-0.171875 0.453125,-0.5625 C 4.1875,-4 3.765625,-4.40625 3,-4.40625 c -1.3125,0 -1.6875,1.015625 -1.6875,1.453125 0,0.78125 0.734375,0.921875 1.03125,0.984375 0.515625,0.109375 1.03125,0.21875 1.03125,0.765625 0,0.25 -0.21875,1.09375 -1.421875,1.09375 -0.140625,0 -0.90625,0 -1.140625,-0.53125 0.390625,0.046875 0.640625,-0.25 0.640625,-0.53125 0,-0.21875 -0.171875,-0.34375 -0.375,-0.34375 -0.265625,0 -0.5625,0.203125 -0.5625,0.65625 0,0.5625 0.578125,0.96875 1.421875,0.96875 1.625,0 2.015625,-1.203125 2.015625,-1.65625 0,-0.359375 -0.1875,-0.609375 -0.3125,-0.71875 -0.265625,-0.28125 -0.5625,-0.34375 -1,-0.421875 -0.359375,-0.078125 -0.75,-0.15625 -0.75,-0.609375 C 1.890625,-3.578125 2.125,-4.1875 3,-4.1875 c 0.25,0 0.75,0.078125 0.890625,0.453125 z"
               style="stroke:none"
               inkscape:connector-curvature="0" />
          </symbol>
          <symbol
             id="textext-409a9754-3"
             overflow="visible"
             style="overflow:visible">
            <path
               id="path13179"
               d=""
               style="stroke:none"
               inkscape:connector-curvature="0" />
          </symbol>
          <symbol
             id="textext-409a9754-4"
             overflow="visible"
             style="overflow:visible">
            <path
               id="path13182"
               d="m 2.328125,-4.4375 c 0,-0.1875 0,-0.1875 -0.203125,-0.1875 -0.453125,0.4375 -1.078125,0.4375 -1.359375,0.4375 l 0,0.25 c 0.15625,0 0.625,0 1,-0.1875 l 0,3.546875 c 0,0.234375 0,0.328125 -0.6875,0.328125 l -0.265625,0 0,0.25 c 0.125,0 0.984375,-0.03125 1.234375,-0.03125 0.21875,0 1.09375,0.03125 1.25,0.03125 l 0,-0.25 -0.265625,0 c -0.703125,0 -0.703125,-0.09375 -0.703125,-0.328125 z"
               style="stroke:none"
               inkscape:connector-curvature="0" />
          </symbol>
        </g>
      </defs>
      <g
         id="textext-409a9754-5"
         style="fill:#008000;stroke:#008000">
        <g
           id="g13185"
           style="fill:#008000;fill-opacity:1;stroke:#008000">
          <use
             id="use13187"
             y="134.765"
             x="223.064"
             xlink:href="#textext-409a9754-1"
             style="fill:#008000;stroke:#008000"
             width="744.09448"
             height="1052.3622" />
        </g>
        <g
           id="g13189"
           style="fill:#008000;fill-opacity:1;stroke:#008000">
          <use
             id="use13191"
             y="134.765"
             x="223.43262"
             xlink:href="#textext-409a9754-2"
             style="fill:#008000;stroke:#008000"
             width="744.09448"
             height="1052.3622" />
        </g>
        <g
           id="g13193"
           style="fill:#008000;fill-opacity:1;stroke:#008000">
          <use
             id="use13195"
             y="136.259"
             x="228.10201"
             xlink:href="#textext-409a9754-4"
             style="fill:#008000;stroke:#008000"
             width="744.09448"
             height="1052.3622" />
        </g>
      </g>
    </g>
    <path
       style="fill:#008000;stroke:#008000;stroke-width:3;stroke-linecap:round;stroke-linejoin:miter;stroke-opacity:1;marker-start:url(#Arrow2Mstart);marker-end:url(#Arrow2Mend)"
       d="m 322.7873,736.77937 58.5563,0"
       id="path9500"
       inkscape:connector-curvature="0" />
    <path
       inkscape:connector-curvature="0"
       id="path10920"
       d="m 318.997,320.73123 -54.53967,0"
       style="fill:#d40000;stroke:#d40000;stroke-width:3;stroke-linecap:round;stroke-linejoin:miter;stroke-opacity:1;marker-start:none;marker-end:url(#Arrow2Mend)" />
    <rect
       style="color:#000000;fill:#c87137;fill-opacity:1;fill-rule:nonzero;stroke:#502d16;stroke-width:2;stroke-linecap:round;stroke-linejoin:round;stroke-miterlimit:4;stroke-opacity:1;stroke-dasharray:none;stroke-dashoffset:0;marker:none;visibility:visible;display:inline;overflow:visible;enable-background:accumulate"
       id="rect11298"
       width="301.94431"
       height="52.568588"
       x="221.07512"
       y="671.38043" />
    <path
       style="fill:#d40000;stroke:#d40000;stroke-width:3;stroke-linecap:round;stroke-linejoin:miter;stroke-opacity:1;marker-start:none;marker-end:url(#Arrow2Mend)"
       d="m 384.91601,657.6286 0,-316.32935"
       id="path11323"
       inkscape:connector-curvature="0" />
    <path
       inkscape:connector-curvature="0"
       id="path11325"
       d="m 319.43953,658.49398 0,-332.45189"
       style="fill:#008000;stroke:#008000;stroke-width:3;stroke-linecap:round;stroke-linejoin:miter;stroke-opacity:1;marker-start:url(#Arrow2Mstart);marker-end:url(#Arrow2Mend)" />
  </g>
</svg>
