<svg xmlns="http://www.w3.org/2000/svg" width="1052.362" height="744.094"><title>Wippe</title><path fill="#fff" stroke="#fff" stroke-width=".875" stroke-linejoin="round" d="M8.262 255.556h1035.839v232.982H8.262z"/><path fill="#803300" fill-rule="evenodd" stroke="#000" d="M406.632 364.237h241.35v11.757h-241.35z"/><g fill="#4d4d4d" stroke="#333" stroke-width="1.268" fill-rule="evenodd"><path d="M529.313 247.906c-10.553 0-19.134 8.506-19.25 19.031H510v45.72h38.563v-45.72h-.032c-.116-10.525-8.666-19.03-19.218-19.03z" transform="matrix(.77854 0 0 .79877 115.238 157.063)" fill="#b3b3b3"/><path d="M424.286 271.952a4.643 4.643 0 1 1-9.286 0 4.643 4.643 0 0 1 9.286 0z" transform="matrix(.74877 0 0 .76822 212.899 161.323)" stroke-width="1.319"/></g><path d="M527.306 407.078v.058" fill="none" stroke="#000" stroke-width=".779"/><g fill="#231f20"><path d="M479.3 348.753c-.816.459-1.922.521-3.128-.157l-6.774-3.784-3.563 11.611 9.038-.074c3.644-.17 4.58 2.615 4.58 2.615l8.566 15.96a3.716 3.716 0 0 1-1.508 5.034c-1.807.97-4.055.279-5.025-1.527l-6.86-12.782-15.87-.228a5.391 5.391 0 0 1-4.666-2.83c-.66-1.228-.81-2.59-.488-3.84l5.54-18.45c.586-2.483 2.809-3.331 2.809-3.331 2.513-1.35 5.008.135 5.008.135l11.474 6.418 9.45-5.093c3.403-1.827 5.785 2.61 2.382 4.437l-10.965 5.886z"/><path d="M472.19 335.34c3.13-1.68 4.317-5.577 2.637-8.706-1.68-3.13-5.594-4.314-8.724-2.634-3.13 1.68-4.311 5.6-2.631 8.73 1.68 3.129 5.589 4.29 8.718 2.61z"/></g><g fill="#231f20"><path d="M632.044 352.07c.515.366 1.252.489 2.11.121l4.818-2.046 1.546 8.046-6.056-.706c-2.432-.378-3.26 1.422-3.26 1.422l-6.905 10.081a2.507 2.507 0 0 0 .646 3.486c1.141.782 2.7.481 3.48-.66l5.53-8.073 10.66.999a3.637 3.637 0 0 0 3.335-1.56 3.57 3.57 0 0 0 .605-2.54l-2.375-12.776c-.213-1.707-1.642-2.438-1.642-2.438-1.588-1.087-3.369-.273-3.369-.273l-8.161 3.472-5.968-4.102c-2.15-1.473-4.07 1.33-1.92 2.803l6.926 4.744z"/><path d="M637.787 343.59a4.34 4.34 0 0 1-1.136-6.03 4.353 4.353 0 0 1 6.042-1.134 4.357 4.357 0 0 1 1.13 6.046c-1.353 1.977-4.06 2.471-6.036 1.118z"/></g><path fill="#4d4d4d" fill-rule="evenodd" stroke="#333" stroke-width="2" d="M372.626 407.3h307.11v23.286h-307.11z"/><path transform="matrix(-.99583 0 0 .99608 2843.434 266.6)" d="M2330.115 104.527a4.288 4.288 0 1 1-8.576 0 4.288 4.288 0 0 1 8.576 0z" fill="#fc0" fill-rule="evenodd" stroke="#000" stroke-width="1.004"/><g><path fill="#803300" fill-rule="evenodd" stroke="#000" d="M749.459 338.285l233.125 62.466-3.043 11.356-233.125-62.465z"/><g fill="#4d4d4d" stroke="#333" stroke-width="1.268" fill-rule="evenodd"><path transform="matrix(.77854 0 0 .79877 452.431 162.144)" d="M529.313 247.906c-10.553 0-19.134 8.506-19.25 19.031H510v45.72h38.563v-45.72h-.032c-.116-10.525-8.666-19.03-19.218-19.03z" fill="#b3b3b3"/><path transform="matrix(.74877 0 0 .76822 550.092 166.404)" d="M424.286 271.952a4.643 4.643 0 1 1-9.286 0 4.643 4.643 0 0 1 9.286 0z" stroke-width="1.319"/></g><path d="M864.5 412.159v.057" fill="none" stroke="#000" stroke-width=".779"/><g fill="#231f20"><path d="M857.061 349.652c-.908.232-1.992.006-2.981-.961l-5.564-5.409-6.446 10.294 8.748 2.267c3.564.78 3.747 3.711 3.747 3.711l4.145 17.634a3.716 3.716 0 0 1-2.76 4.472c-1.996.469-3.99-.78-4.458-2.776l-3.32-14.122-15.268-4.327a5.391 5.391 0 0 1-3.776-3.942c-.319-1.356-.112-2.71.523-3.835l10.126-16.388c1.209-2.246 3.576-2.49 3.576-2.49 2.777-.653 4.802 1.426 4.802 1.426l9.422 9.17 10.447-2.474c3.76-.884 4.912 4.019 1.152 4.903l-12.115 2.847z"/><path d="M853.665 334.855c3.457-.812 5.613-4.269 4.8-7.726-.813-3.458-4.287-5.615-7.745-4.803-3.458.813-5.614 4.294-4.801 7.752.813 3.457 4.288 5.59 7.746 4.777z"/></g><g fill="#231f20"><path d="M970.04 385.633c.403.487 1.083.796 2.007.663l5.183-.73-.588 8.173-5.667-2.25c-2.251-.994-3.518.53-3.518.53l-9.279 7.95a2.507 2.507 0 0 0-.278 3.535 2.506 2.506 0 0 0 3.533.264l7.43-6.368 10.038 3.724c1.2.441 2.595.24 3.626-.643a3.57 3.57 0 0 0 1.242-2.297l1.013-12.955c.236-1.705-.956-2.78-.956-2.78-1.252-1.461-3.183-1.136-3.183-1.136l-8.782 1.241-4.703-5.507c-1.695-1.978-4.275.232-2.58 2.21l5.463 6.376z"/><path d="M977.783 378.928a4.34 4.34 0 0 1 .463-6.119 4.353 4.353 0 0 1 6.13.47 4.357 4.357 0 0 1-.473 6.132c-1.82 1.56-4.561 1.336-6.12-.483z"/></g><path fill="#4d4d4d" fill-rule="evenodd" stroke="#333" stroke-width="2" d="M709.82 412.381h307.109v23.286H709.82z"/><path d="M2330.115 104.527a4.288 4.288 0 1 1-8.576 0 4.288 4.288 0 0 1 8.576 0z" transform="matrix(-.99583 0 0 .99608 3180.627 271.68)" fill="#fc0" fill-rule="evenodd" stroke="#000" stroke-width="1.004"/></g><g><path fill="#803300" fill-rule="evenodd" stroke="#000" d="M72.029 395.67l233.125-62.466 3.043 11.357-233.125 62.465z"/><g fill="#4d4d4d" stroke="#333" stroke-width="1.268" fill-rule="evenodd"><path d="M529.313 247.906c-10.553 0-19.134 8.506-19.25 19.031H510v45.72h38.563v-45.72h-.032c-.116-10.525-8.666-19.03-19.218-19.03z" transform="matrix(.77854 0 0 .79877 -221.956 157.064)" fill="#b3b3b3"/><path d="M424.286 271.952a4.643 4.643 0 1 1-9.286 0 4.643 4.643 0 0 1 9.286 0z" transform="matrix(.74877 0 0 .76822 -124.295 161.323)" stroke-width="1.319"/></g><path d="M190.113 407.078v.058" fill="none" stroke="#000" stroke-width=".779"/><g fill="#231f20"><path d="M90.517 373.494c-.67.655-1.722 1.001-3.063.658l-7.522-1.902-.436 12.138 8.71-2.411c3.476-1.107 5.1 1.34 5.1 1.34l12.406 13.2a3.716 3.716 0 0 1-.154 5.253c-1.494 1.404-3.845 1.318-5.249-.176l-9.935-10.57-15.387 3.887a5.391 5.391 0 0 1-5.24-1.526c-.954-1.015-1.453-2.291-1.465-3.583l.575-19.255c-.076-2.55 1.852-3.944 1.852-3.944 2.078-1.954 4.872-1.166 4.872-1.166l12.744 3.23 7.81-7.366c2.815-2.645 6.264 1.024 3.45 3.67l-9.068 8.523z"/><path d="M80.177 362.378c2.588-2.433 2.727-6.504.294-9.092-2.432-2.588-6.52-2.72-9.109-.286-2.588 2.433-2.714 6.525-.282 9.113 2.433 2.588 6.509 2.697 9.097.265z"/></g><g fill="#231f20"><path d="M287.018 325.54c.592.222 1.335.15 2.069-.428l4.124-3.223 3.576 7.371-6.032.886c-2.447.264-2.782 2.217-2.782 2.217l-4.06 11.525a2.507 2.507 0 0 0 1.526 3.2 2.506 2.506 0 0 0 3.192-1.538l3.251-9.23 10.555-1.794a3.637 3.637 0 0 0 2.818-2.37 3.57 3.57 0 0 0-.072-2.61l-5.601-11.726c-.648-1.594-2.218-1.93-2.218-1.93-1.815-.639-3.325.609-3.325.609l-6.984 5.465-6.827-2.417c-2.457-.866-3.586 2.339-1.129 3.204l7.919 2.79z"/><path d="M290.37 315.863a4.34 4.34 0 0 1-2.659-5.53 4.353 4.353 0 0 1 5.544-2.659 4.357 4.357 0 0 1 2.657 5.548c-.796 2.26-3.282 3.437-5.542 2.641z"/></g><path fill="#4d4d4d" fill-rule="evenodd" stroke="#333" stroke-width="2" d="M35.433 407.3h307.109v23.286H35.432z"/><path transform="matrix(-.99583 0 0 .99608 2506.24 266.6)" d="M2330.115 104.527a4.288 4.288 0 1 1-8.576 0 4.288 4.288 0 0 1 8.576 0z" fill="#fc0" fill-rule="evenodd" stroke="#000" stroke-width="1.004"/></g></svg>