<?xml version="1.0" encoding="UTF-8" standalone="no"?>
<!-- Created with Inkscape (http://www.inkscape.org/) -->

<svg
   xmlns:dc="http://purl.org/dc/elements/1.1/"
   xmlns:cc="http://creativecommons.org/ns#"
   xmlns:rdf="http://www.w3.org/1999/02/22-rdf-syntax-ns#"
   xmlns:svg="http://www.w3.org/2000/svg"
   xmlns="http://www.w3.org/2000/svg"
   xmlns:sodipodi="http://sodipodi.sourceforge.net/DTD/sodipodi-0.dtd"
   xmlns:inkscape="http://www.inkscape.org/namespaces/inkscape"
   width="1052.3622"
   height="744.09448"
   id="svg49578"
   version="1.1"
   inkscape:version="0.48.2 r9819"
   sodipodi:docname="wippe.svg">
  <title
     id="title15497">Wippe</title>
  <sodipodi:namedview
     id="base"
     pagecolor="#ffffff"
     bordercolor="#666666"
     borderopacity="1.0"
     inkscape:pageopacity="0.0"
     inkscape:pageshadow="2"
     inkscape:zoom="0.7"
     inkscape:cx="358.01224"
     inkscape:cy="484.74536"
     inkscape:document-units="px"
     inkscape:current-layer="layer1"
     showgrid="false"
     inkscape:window-width="1280"
     inkscape:window-height="974"
     inkscape:window-x="0"
     inkscape:window-y="0"
     inkscape:window-maximized="1"
     showguides="false"
     inkscape:guide-bbox="true">
    <sodipodi:guide
       id="guide49752"
       orientation="744.0945,0"
       position="0.0,0" />
    <sodipodi:guide
       id="guide49754"
       orientation="744.0945,0"
       position="350.7874,0" />
    <sodipodi:guide
       id="guide49756"
       orientation="744.0945,0"
       position="701.5748,0" />
    <sodipodi:guide
       id="guide49758"
       orientation="1,0"
       position="1052.3622,0" />
    <sodipodi:guide
       id="guide49760"
       orientation="0,1052.3622"
       position="0,0.0" />
    <sodipodi:guide
       id="guide49762"
       orientation="0,1052.3622"
       position="437.14286,372.0472" />
    <sodipodi:guide
       id="guide49764"
       orientation="0,1052.3622"
       position="0,744.0945" />
    <sodipodi:guide
       orientation="1,0"
       position="35.433071,927.32004"
       id="guide49957" />
    <sodipodi:guide
       orientation="1,0"
       position="1016.9291,670.74129"
       id="guide49959" />
    <sodipodi:guide
       orientation="1,0"
       position="-575.78695,-52.527932"
       id="guide49961" />
  </sodipodi:namedview>
  <defs
     id="defs49580" />
  <metadata
     id="metadata49583">
    <rdf:RDF>
      <cc:Work
         rdf:about="">
        <dc:format>image/svg+xml</dc:format>
        <dc:type
           rdf:resource="http://purl.org/dc/dcmitype/StillImage" />
        <dc:title>Wippe</dc:title>
        <cc:license
           rdf:resource="http://creativecommons.org/licenses/by-nc-sa/3.0/" />
        <dc:date>2012-26-22</dc:date>
        <dc:creator>
          <cc:Agent>
            <dc:title>Bernhard Grotz</dc:title>
          </cc:Agent>
        </dc:creator>
        <dc:rights>
          <cc:Agent>
            <dc:title>Bernhard Grotz</dc:title>
          </cc:Agent>
        </dc:rights>
        <dc:publisher>
          <cc:Agent>
            <dc:title>Bernhard Grotz</dc:title>
          </cc:Agent>
        </dc:publisher>
        <dc:subject>
          <rdf:Bag>
            <rdf:li>Physik</rdf:li>
            <rdf:li>Dynamik</rdf:li>
            <rdf:li>Kraftwandler</rdf:li>
            <rdf:li>Hebel</rdf:li>
            <rdf:li>Wippe</rdf:li>
          </rdf:Bag>
        </dc:subject>
        <dc:language>de-DE</dc:language>
      </cc:Work>
      <cc:License
         rdf:about="http://creativecommons.org/licenses/by-nc-sa/3.0/">
        <cc:permits
           rdf:resource="http://creativecommons.org/ns#Reproduction" />
        <cc:permits
           rdf:resource="http://creativecommons.org/ns#Distribution" />
        <cc:requires
           rdf:resource="http://creativecommons.org/ns#Notice" />
        <cc:requires
           rdf:resource="http://creativecommons.org/ns#Attribution" />
        <cc:prohibits
           rdf:resource="http://creativecommons.org/ns#CommercialUse" />
        <cc:permits
           rdf:resource="http://creativecommons.org/ns#DerivativeWorks" />
        <cc:requires
           rdf:resource="http://creativecommons.org/ns#ShareAlike" />
      </cc:License>
    </rdf:RDF>
  </metadata>
  <g
     transform="translate(0,-308.2677)"
     id="layer1"
     inkscape:groupmode="layer"
     inkscape:label="Ebene 1">
    <g
       id="g50115"
       inkscape:export-filename="/home/waldgeist/data/pics/physik/Own/mechanik/kraftwandler/wippe.png"
       inkscape:export-xdpi="90"
       inkscape:export-ydpi="90">
      <rect
         y="563.82385"
         x="8.2615137"
         height="232.98206"
         width="1035.8391"
         id="rect50113"
         style="fill:#ffffff;fill-opacity:1;fill-rule:nonzero;stroke:#ffffff;stroke-width:0.87507778;stroke-linecap:butt;stroke-linejoin:round;stroke-miterlimit:4;stroke-opacity:1;stroke-dasharray:none;stroke-dashoffset:0" />
      <g
         transform="translate(2.1268997e-6,7.3637325)"
         id="g50051">
        <g
           id="g49978"
           transform="translate(21.839203,0)">
          <rect
             y="665.14062"
             x="384.793"
             height="11.757369"
             width="241.34856"
             id="rect3695"
             style="fill:#803300;fill-rule:evenodd;stroke:#000000;stroke-width:1;stroke-linecap:butt;stroke-linejoin:miter;stroke-opacity:1" />
          <g
             transform="matrix(0.77854372,0,0,0.79876826,93.398683,211.73301)"
             id="g3709"
             style="fill:#4d4d4d;fill-opacity:1;stroke:#333333;stroke-width:1.26808417;stroke-opacity:1">
            <path
               inkscape:connector-curvature="0"
               style="fill:#b3b3b3;fill-opacity:1;fill-rule:evenodd;stroke:#333333;stroke-width:1.26808417;stroke-linecap:butt;stroke-linejoin:miter;stroke-opacity:1"
               d="m 529.3125,247.90625 c -10.55287,0 -19.13346,8.50598 -19.25,19.03125 l -0.0625,0 0,45.71875 38.5625,0 0,-45.71875 -0.0312,0 c -0.1167,-10.52517 -8.666,-19.03125 -19.2188,-19.03125 z"
               id="rect3697"
               transform="translate(0,308.2677)" />
            <path
               sodipodi:type="arc"
               style="fill:#4d4d4d;fill-opacity:1;fill-rule:evenodd;stroke:#333333;stroke-width:1.31850338;stroke-linecap:butt;stroke-linejoin:miter;stroke-opacity:1"
               id="path3704"
               sodipodi:cx="419.64285"
               sodipodi:cy="271.95163"
               sodipodi:rx="4.6428571"
               sodipodi:ry="4.6428571"
               d="m 424.28571,271.95163 c 0,2.56418 -2.07868,4.64286 -4.64286,4.64286 -2.56418,0 -4.64285,-2.07868 -4.64285,-4.64286 0,-2.56418 2.07867,-4.64286 4.64285,-4.64286 2.56418,0 4.64286,2.07868 4.64286,4.64286 z"
               transform="matrix(0.96176028,0,0,0.96176028,125.4405,313.60084)" />
          </g>
          <path
             inkscape:connector-curvature="0"
             id="path3715"
             d="m 505.46728,707.98229 0,0.0574"
             style="fill:none;stroke:#000000;stroke-width:0.77854371px;stroke-linecap:butt;stroke-linejoin:miter;stroke-opacity:1" />
          <g
             transform="matrix(0.68596099,-0.36822255,0.36822255,0.68596099,154.08752,505.17182)"
             id="g4117">
            <path
               inkscape:connector-curvature="0"
               style="fill:#231f20"
               d="m 255.555,347.81348 c -1.203,0.023 -2.492,-0.578 -3.445,-2.078 l -5.367,-8.398 -11.086,10.976 10.273,5.406 c 4.227,2.023 3.594,5.742 3.594,5.742 v 23.266 c 0,2.633 -2.125,4.781 -4.766,4.781 -2.633,0 -4.758,-2.148 -4.758,-4.781 v -18.633 l -17.82,-9.898 c -2.125,-1.188 -3.562,-3.453 -3.562,-6.039 0,-1.789 0.656,-3.422 1.781,-4.641 l 17.477,-17.516 c 2.172,-2.453 5.203,-2.062 5.203,-2.062 3.664,0 5.586,3.195 5.586,3.195 l 9.086,14.234 13.789,-0.023 c 4.961,0 4.961,6.469 0,6.469 h -15.985 z"
               id="path4119" />
            <path
               inkscape:connector-curvature="0"
               style="fill:#231f20"
               d="m 255.657,328.31348 c 4.562,0 8.273,-3.688 8.273,-8.25 0,-4.562 -3.71,-8.281 -8.273,-8.281 -4.563,0 -8.281,3.719 -8.281,8.281 0,4.562 3.719,8.25 8.281,8.25 z"
               id="path4121" />
          </g>
          <g
             id="g4123"
             transform="matrix(-0.43331829,-0.29676143,-0.29676143,0.43331829,824.15952,578.09842)">
            <path
               inkscape:connector-curvature="0"
               id="path4125"
               d="m 255.555,347.81348 c -1.203,0.023 -2.492,-0.578 -3.445,-2.078 l -5.367,-8.398 -11.086,10.976 10.273,5.406 c 4.227,2.023 3.594,5.742 3.594,5.742 v 23.266 c 0,2.633 -2.125,4.781 -4.766,4.781 -2.633,0 -4.758,-2.148 -4.758,-4.781 v -18.633 l -17.82,-9.898 c -2.125,-1.188 -3.562,-3.453 -3.562,-6.039 0,-1.789 0.656,-3.422 1.781,-4.641 l 17.477,-17.516 c 2.172,-2.453 5.203,-2.062 5.203,-2.062 3.664,0 5.586,3.195 5.586,3.195 l 9.086,14.234 13.789,-0.023 c 4.961,0 4.961,6.469 0,6.469 h -15.985 z"
               style="fill:#231f20" />
            <path
               inkscape:connector-curvature="0"
               id="path4127"
               d="m 255.657,328.31348 c 4.562,0 8.273,-3.688 8.273,-8.25 0,-4.562 -3.71,-8.281 -8.273,-8.281 -4.563,0 -8.281,3.719 -8.281,8.281 0,4.562 3.719,8.25 8.281,8.25 z"
               style="fill:#231f20" />
          </g>
          <rect
             style="fill:#4d4d4d;fill-rule:evenodd;stroke:#333333;stroke-width:2;stroke-linecap:butt;stroke-linejoin:miter;stroke-opacity:1"
             id="rect11033-0"
             width="307.10892"
             height="23.285912"
             x="350.78741"
             y="708.20422" />
          <path
             transform="matrix(-0.99582928,0,0,0.99607545,2821.5943,567.50388)"
             d="m 2330.1155,104.52731 c 0,2.36828 -1.9198,4.28815 -4.2881,4.28815 -2.3683,0 -4.2882,-1.91987 -4.2882,-4.28815 0,-2.36828 1.9199,-4.28815 4.2882,-4.28815 2.3683,0 4.2881,1.91987 4.2881,4.28815 z"
             sodipodi:ry="4.2881513"
             sodipodi:rx="4.2881513"
             sodipodi:cy="104.52731"
             sodipodi:cx="2325.8274"
             id="path10746-8-1"
             style="fill:#ffcc00;fill-rule:evenodd;stroke:#000000;stroke-width:1.00406408;stroke-linecap:butt;stroke-linejoin:miter;stroke-opacity:1"
             sodipodi:type="arc" />
        </g>
        <g
           id="g50036">
          <rect
             transform="matrix(0.96592583,0.25881905,-0.25881905,0.96592583,0,0)"
             style="fill:#803300;fill-rule:evenodd;stroke:#000000;stroke-width:1;stroke-linecap:butt;stroke-linejoin:miter;stroke-opacity:1"
             id="rect49821"
             width="241.34856"
             height="11.757369"
             x="889.3562"
             y="423.43466" />
          <g
             style="fill:#4d4d4d;fill-opacity:1;stroke:#333333;stroke-width:1.26808417;stroke-opacity:1"
             id="g49823"
             transform="matrix(0.77854372,0,0,0.79876826,452.43148,216.81368)">
            <path
               transform="translate(0,308.2677)"
               id="path49825"
               d="m 529.3125,247.90625 c -10.55287,0 -19.13346,8.50598 -19.25,19.03125 l -0.0625,0 0,45.71875 38.5625,0 0,-45.71875 -0.0312,0 c -0.1167,-10.52517 -8.666,-19.03125 -19.2188,-19.03125 z"
               style="fill:#b3b3b3;fill-opacity:1;fill-rule:evenodd;stroke:#333333;stroke-width:1.26808417;stroke-linecap:butt;stroke-linejoin:miter;stroke-opacity:1"
               inkscape:connector-curvature="0" />
            <path
               transform="matrix(0.96176028,0,0,0.96176028,125.4405,313.60084)"
               d="m 424.28571,271.95163 c 0,2.56418 -2.07868,4.64286 -4.64286,4.64286 -2.56418,0 -4.64285,-2.07868 -4.64285,-4.64286 0,-2.56418 2.07867,-4.64286 4.64285,-4.64286 2.56418,0 4.64286,2.07868 4.64286,4.64286 z"
               sodipodi:ry="4.6428571"
               sodipodi:rx="4.6428571"
               sodipodi:cy="271.95163"
               sodipodi:cx="419.64285"
               id="path49827"
               style="fill:#4d4d4d;fill-opacity:1;fill-rule:evenodd;stroke:#333333;stroke-width:1.31850338;stroke-linecap:butt;stroke-linejoin:miter;stroke-opacity:1"
               sodipodi:type="arc" />
          </g>
          <path
             style="fill:none;stroke:#000000;stroke-width:0.77854371px;stroke-linecap:butt;stroke-linejoin:miter;stroke-opacity:1"
             d="m 864.50008,713.06296 0,0.0574"
             id="path49829"
             inkscape:connector-curvature="0" />
          <g
             id="g49831"
             transform="matrix(0.75789044,-0.1781359,0.1781359,0.75789044,601.4203,432.47517)">
            <path
               id="path49833"
               d="m 255.555,347.81348 c -1.203,0.023 -2.492,-0.578 -3.445,-2.078 l -5.367,-8.398 -11.086,10.976 10.273,5.406 c 4.227,2.023 3.594,5.742 3.594,5.742 v 23.266 c 0,2.633 -2.125,4.781 -4.766,4.781 -2.633,0 -4.758,-2.148 -4.758,-4.781 v -18.633 l -17.82,-9.898 c -2.125,-1.188 -3.562,-3.453 -3.562,-6.039 0,-1.789 0.656,-3.422 1.781,-4.641 l 17.477,-17.516 c 2.172,-2.453 5.203,-2.062 5.203,-2.062 3.664,0 5.586,3.195 5.586,3.195 l 9.086,14.234 13.789,-0.023 c 4.961,0 4.961,6.469 0,6.469 h -15.985 z"
               style="fill:#231f20"
               inkscape:connector-curvature="0" />
            <path
               id="path49835"
               d="m 255.657,328.31348 c 4.562,0 8.273,-3.688 8.273,-8.25 0,-4.562 -3.71,-8.281 -8.273,-8.281 -4.563,0 -8.281,3.719 -8.281,8.281 0,4.562 3.719,8.25 8.281,8.25 z"
               style="fill:#231f20"
               inkscape:connector-curvature="0" />
          </g>
          <g
             transform="matrix(-0.34174582,-0.39880056,-0.39880056,0.34174582,1196.084,669.58831)"
             id="g49837">
            <path
               style="fill:#231f20"
               d="m 255.555,347.81348 c -1.203,0.023 -2.492,-0.578 -3.445,-2.078 l -5.367,-8.398 -11.086,10.976 10.273,5.406 c 4.227,2.023 3.594,5.742 3.594,5.742 v 23.266 c 0,2.633 -2.125,4.781 -4.766,4.781 -2.633,0 -4.758,-2.148 -4.758,-4.781 v -18.633 l -17.82,-9.898 c -2.125,-1.188 -3.562,-3.453 -3.562,-6.039 0,-1.789 0.656,-3.422 1.781,-4.641 l 17.477,-17.516 c 2.172,-2.453 5.203,-2.062 5.203,-2.062 3.664,0 5.586,3.195 5.586,3.195 l 9.086,14.234 13.789,-0.023 c 4.961,0 4.961,6.469 0,6.469 h -15.985 z"
               id="path49839"
               inkscape:connector-curvature="0" />
            <path
               style="fill:#231f20"
               d="m 255.657,328.31348 c 4.562,0 8.273,-3.688 8.273,-8.25 0,-4.562 -3.71,-8.281 -8.273,-8.281 -4.563,0 -8.281,3.719 -8.281,8.281 0,4.562 3.719,8.25 8.281,8.25 z"
               id="path49841"
               inkscape:connector-curvature="0" />
          </g>
          <rect
             y="713.28491"
             x="709.82019"
             height="23.285912"
             width="307.10892"
             id="rect49843"
             style="fill:#4d4d4d;fill-rule:evenodd;stroke:#333333;stroke-width:2;stroke-linecap:butt;stroke-linejoin:miter;stroke-opacity:1" />
          <path
             sodipodi:type="arc"
             style="fill:#ffcc00;fill-rule:evenodd;stroke:#000000;stroke-width:1.00406408;stroke-linecap:butt;stroke-linejoin:miter;stroke-opacity:1"
             id="path49845"
             sodipodi:cx="2325.8274"
             sodipodi:cy="104.52731"
             sodipodi:rx="4.2881513"
             sodipodi:ry="4.2881513"
             d="m 2330.1155,104.52731 c 0,2.36828 -1.9198,4.28815 -4.2881,4.28815 -2.3683,0 -4.2882,-1.91987 -4.2882,-4.28815 0,-2.36828 1.9199,-4.28815 4.2882,-4.28815 2.3683,0 4.2881,1.91987 4.2881,4.28815 z"
             transform="matrix(-0.99582928,0,0,0.99607545,3180.6271,572.58455)" />
        </g>
        <g
           id="g49963"
           transform="translate(37.934593,0)">
          <rect
             transform="matrix(0.96592583,-0.25881905,0.25881905,0.96592583,0,0)"
             y="681.66284"
             x="-147.35385"
             height="11.757369"
             width="241.34856"
             id="rect49849"
             style="fill:#803300;fill-rule:evenodd;stroke:#000000;stroke-width:1;stroke-linecap:butt;stroke-linejoin:miter;stroke-opacity:1" />
          <g
             transform="matrix(0.77854372,0,0,0.79876826,-259.89024,211.73302)"
             id="g49851"
             style="fill:#4d4d4d;fill-opacity:1;stroke:#333333;stroke-width:1.26808417;stroke-opacity:1">
            <path
               inkscape:connector-curvature="0"
               style="fill:#b3b3b3;fill-opacity:1;fill-rule:evenodd;stroke:#333333;stroke-width:1.26808417;stroke-linecap:butt;stroke-linejoin:miter;stroke-opacity:1"
               d="m 529.3125,247.90625 c -10.55287,0 -19.13346,8.50598 -19.25,19.03125 l -0.0625,0 0,45.71875 38.5625,0 0,-45.71875 -0.0312,0 c -0.1167,-10.52517 -8.666,-19.03125 -19.2188,-19.03125 z"
               id="path49853"
               transform="translate(0,308.2677)" />
            <path
               sodipodi:type="arc"
               style="fill:#4d4d4d;fill-opacity:1;fill-rule:evenodd;stroke:#333333;stroke-width:1.31850338;stroke-linecap:butt;stroke-linejoin:miter;stroke-opacity:1"
               id="path49855"
               sodipodi:cx="419.64285"
               sodipodi:cy="271.95163"
               sodipodi:rx="4.6428571"
               sodipodi:ry="4.6428571"
               d="m 424.28571,271.95163 c 0,2.56418 -2.07868,4.64286 -4.64286,4.64286 -2.56418,0 -4.64285,-2.07868 -4.64285,-4.64286 0,-2.56418 2.07867,-4.64286 4.64285,-4.64286 2.56418,0 4.64286,2.07868 4.64286,4.64286 z"
               transform="matrix(0.96176028,0,0,0.96176028,125.4405,313.60084)" />
          </g>
          <path
             inkscape:connector-curvature="0"
             id="path49857"
             d="m 152.17836,707.9823 0,0.0574"
             style="fill:none;stroke:#000000;stroke-width:0.77854371px;stroke-linecap:butt;stroke-linejoin:miter;stroke-opacity:1" />
          <g
             transform="matrix(0.56728443,-0.53321544,0.53321544,0.56728443,-277.84969,613.35476)"
             id="g49859">
            <path
               inkscape:connector-curvature="0"
               style="fill:#231f20"
               d="m 255.555,347.81348 c -1.203,0.023 -2.492,-0.578 -3.445,-2.078 l -5.367,-8.398 -11.086,10.976 10.273,5.406 c 4.227,2.023 3.594,5.742 3.594,5.742 v 23.266 c 0,2.633 -2.125,4.781 -4.766,4.781 -2.633,0 -4.758,-2.148 -4.758,-4.781 v -18.633 l -17.82,-9.898 c -2.125,-1.188 -3.562,-3.453 -3.562,-6.039 0,-1.789 0.656,-3.422 1.781,-4.641 l 17.477,-17.516 c 2.172,-2.453 5.203,-2.062 5.203,-2.062 3.664,0 5.586,3.195 5.586,3.195 l 9.086,14.234 13.789,-0.023 c 4.961,0 4.961,6.469 0,6.469 h -15.985 z"
               id="path49861" />
            <path
               inkscape:connector-curvature="0"
               style="fill:#231f20"
               d="m 255.657,328.31348 c 4.562,0 8.273,-3.688 8.273,-8.25 0,-4.562 -3.71,-8.281 -8.273,-8.281 -4.563,0 -8.281,3.719 -8.281,8.281 0,4.562 3.719,8.25 8.281,8.25 z"
               id="path49863" />
          </g>
          <g
             id="g49865"
             transform="matrix(-0.49536084,-0.1744985,-0.1744985,0.49536084,436.36805,498.74531)">
            <path
               inkscape:connector-curvature="0"
               id="path49867"
               d="m 255.555,347.81348 c -1.203,0.023 -2.492,-0.578 -3.445,-2.078 l -5.367,-8.398 -11.086,10.976 10.273,5.406 c 4.227,2.023 3.594,5.742 3.594,5.742 v 23.266 c 0,2.633 -2.125,4.781 -4.766,4.781 -2.633,0 -4.758,-2.148 -4.758,-4.781 v -18.633 l -17.82,-9.898 c -2.125,-1.188 -3.562,-3.453 -3.562,-6.039 0,-1.789 0.656,-3.422 1.781,-4.641 l 17.477,-17.516 c 2.172,-2.453 5.203,-2.062 5.203,-2.062 3.664,0 5.586,3.195 5.586,3.195 l 9.086,14.234 13.789,-0.023 c 4.961,0 4.961,6.469 0,6.469 h -15.985 z"
               style="fill:#231f20" />
            <path
               inkscape:connector-curvature="0"
               id="path49869"
               d="m 255.657,328.31348 c 4.562,0 8.273,-3.688 8.273,-8.25 0,-4.562 -3.71,-8.281 -8.273,-8.281 -4.563,0 -8.281,3.719 -8.281,8.281 0,4.562 3.719,8.25 8.281,8.25 z"
               style="fill:#231f20" />
          </g>
          <rect
             style="fill:#4d4d4d;fill-rule:evenodd;stroke:#333333;stroke-width:2;stroke-linecap:butt;stroke-linejoin:miter;stroke-opacity:1"
             id="rect49871"
             width="307.10892"
             height="23.285912"
             x="-2.5015223"
             y="708.20422" />
          <path
             transform="matrix(-0.99582928,0,0,0.99607545,2468.3054,567.50389)"
             d="m 2330.1155,104.52731 c 0,2.36828 -1.9198,4.28815 -4.2881,4.28815 -2.3683,0 -4.2882,-1.91987 -4.2882,-4.28815 0,-2.36828 1.9199,-4.28815 4.2882,-4.28815 2.3683,0 4.2881,1.91987 4.2881,4.28815 z"
             sodipodi:ry="4.2881513"
             sodipodi:rx="4.2881513"
             sodipodi:cy="104.52731"
             sodipodi:cx="2325.8274"
             id="path49873"
             style="fill:#ffcc00;fill-rule:evenodd;stroke:#000000;stroke-width:1.00406408;stroke-linecap:butt;stroke-linejoin:miter;stroke-opacity:1"
             sodipodi:type="arc" />
        </g>
      </g>
    </g>
  </g>
</svg>
