<svg xmlns="http://www.w3.org/2000/svg" height="744.094" width="1052.362"><title>Zahnrad und Zahnstange</title><defs><marker orient="auto" id="a" overflow="visible"><path d="M8.719 4.034L-2.207.016 8.719-4.002c-1.746 2.372-1.736 5.618 0 8.036z" transform="matrix(.3 0 0 .3 -.69 0)" fill-rule="evenodd" stroke-width=".625" stroke-linejoin="round"/></marker></defs><rect style="marker:none" width="779.155" height="484.992" x="136.604" y="-614.543" ry="2.703" transform="scale(1 -1)" color="#000" fill="#fff" stroke="#fff" stroke-linecap="round" overflow="visible"/><g fill="#e6e6e6" stroke-width="3"><path d="M268.059 256.14h26.219l-1.868 14.544.725 7.462 9.528 21.05h12.51l9.529-21.05.725-7.462-1.868-14.544h22.53m422.867 0h26.22l-1.868 14.544.724 7.462 9.529 21.05h12.51l9.528-21.05.725-7.462-1.867-14.544h22.529l.132-58.068H205.302l-.057 58.068h26.218l-1.867 14.544.725 7.462 9.528 21.05h12.51l9.529-21.05.724-7.462-1.867-14.544h22.53m422.867 0h26.219l-1.868 14.544.725 7.462 9.528 21.05h12.51l9.53-21.05.724-7.462-1.868-14.544h22.53m-140.44 0h26.219l-1.868 14.544.725 7.462 9.528 21.05h12.51l9.529-21.05.725-7.462-1.868-14.544h22.53m-140.844 0h26.219l-1.868 14.544.725 7.462 9.528 21.05h12.51l9.529-21.05.725-7.462-1.868-14.544h22.53m-265.665 0h26.219l-1.868 14.544.725 7.462 9.529 21.05h12.51l9.528-21.05.725-7.462-1.868-14.544h22.53m-140.844 0h26.219l-1.868 14.544.725 7.462 9.528 21.05h12.51l9.529-21.05.725-7.462-1.868-14.544h22.53m110.009 0h26.218l-1.867 14.544.725 7.462 9.528 21.05h12.51l9.529-21.05.724-7.462-1.867-14.544h22.529m-140.844 0h26.22l-1.868 14.544.724 7.462 9.529 21.05h12.51l9.528-21.05.725-7.462-1.867-14.544h22.529" stroke="#000" stroke-width="1.4999886"/></g><path d="M627.976 418.98l12.738 1.777 7.456-.778 20.983-9.678-.09-12.51-21.118-9.378-7.466-.671-12.712 1.958-6.197-22.486 11.92-4.827 6.071-4.402 13.33-18.874-6.333-10.787-22.975 2.436-6.805 3.151-10.026 8.052-16.61-16.375 7.91-10.138 3.053-6.85 2.108-23.007-10.876-6.178-18.682 13.596-4.315 6.134-4.657 11.987-22.572-5.876 1.777-12.739-.778-7.455-9.678-20.983-12.51.09-9.378 21.117-.672 7.467 1.959 12.712-22.486 6.197-4.827-11.92-4.402-6.071-18.874-13.33-10.788 6.333 2.437 22.974 3.15 6.806 8.053 10.025-16.375 16.61-10.139-7.908-6.85-3.054-23.007-2.109-6.177 10.877 13.596 18.682 6.134 4.315 11.987 4.657-5.876 22.572-12.739-1.777-7.456.778-20.982 9.678.089 12.51 21.118 9.378 7.466.671 12.712-1.958 6.197 22.486-11.919 4.827-6.072 4.402-13.329 18.874 6.333 10.787 22.974-2.436 6.806-3.151 10.025-8.052 16.61 16.375-7.908 10.138-3.054 6.85-2.109 23.008 10.877 6.177 18.682-13.596 4.315-6.134 4.657-11.987 22.571 5.876-1.777 12.739.778 7.455 9.678 20.983 12.51-.09 9.378-21.118.672-7.466-1.958-12.712 22.485-6.197 4.827 11.92 4.403 6.071 18.873 13.33 10.788-6.333-2.437-22.975-3.15-6.805-8.053-10.026 16.375-16.61 10.139 7.91 6.85 3.053 23.007 2.109 6.178-10.877-13.597-18.682-6.134-4.315-11.987-4.657z" fill="#f2f2f2" stroke="#000" stroke-width="1.5"/><path d="M538.254 406.318a10.152 10.152 0 1 1-20.145-2.535 10.152 10.152 0 1 1 20.145 2.535z" style="marker:none" color="#000" fill="#fc0" stroke="#000" stroke-width="1.00031" stroke-linecap="round" overflow="visible"/><path d="M428.571 483.79a74.286 74.286 0 0 1-83.338 73.733" style="marker:none" transform="matrix(-.01171 -.78367 -.78658 .01475 913.017 675.665)" color="#000" fill="none" stroke="#00f" stroke-width="3.821" stroke-linecap="round" stroke-dasharray="7.64105679,15.28211358" marker-start="url(#a)" overflow="visible"/><path d="M622.142 227.12H529.73" fill="none" stroke="#00f" stroke-width="3" stroke-linecap="round" stroke-dasharray="6.00000002,12.00000003" marker-start="url(#a)"/></svg>