<svg xmlns:ns0="http://www.iki.fi/pav/software/textext/" xmlns="http://www.w3.org/2000/svg" xmlns:xlink="http://www.w3.org/1999/xlink" height="744.094" width="1052.362"><title>Zahnrad-Getriebe</title><defs><marker orient="auto" id="m" overflow="visible"><path d="M8.719 4.034L-2.207.016 8.719-4.002c-1.746 2.372-1.736 5.618 0 8.036z" transform="matrix(.3 0 0 .3 -.69 0)" fill-rule="evenodd" stroke-width=".625" stroke-linejoin="round"/></marker></defs><rect style="marker:none" width="967.726" height="553.564" x="42.318" y="95.265" ry="3.085" color="#000" fill="#fff" stroke="#fff" stroke-linecap="round" overflow="visible"/><path d="M918.122 498.174a95.418 95.418 0 1 1-190.836 0 95.418 95.418 0 1 1 190.836 0z" style="marker:none" color="#000" fill="none" stroke="#999" stroke-width="1.4987454999999998" stroke-linecap="round" stroke-dasharray=".15879947,.63519793000000002" overflow="visible"/><path style="marker:none" d="M385.997 437.86a127.203 127.203 0 1 1-254.406 0 127.203 127.203 0 1 1 254.406 0z" color="#000" fill="none" stroke="#999" stroke-width="1.502705" stroke-linecap="round" stroke-dasharray=".11911852000000001,.47647410000000001" overflow="visible"/><path d="M760.83 352.712a191.083 191.083 0 1 1-382.165 0 191.083 191.083 0 1 1 382.166 0z" style="marker:none" color="#000" fill="none" stroke="#999" stroke-width="1.50068877" stroke-linecap="round" stroke-dasharray=".07929692000000001,.31718771000000001" overflow="visible"/><path d="M884.167 481.586l29.33-7.916 1.446-.212 34.562 13.185v23.058l-34.561 13.187-1.445-.212-29.332-7.916-16.365 28.348 21.52 21.443.907 1.146 5.862 36.524-19.97 11.53-28.7-23.338-.539-1.358-7.81-29.36-32.734.001-7.81 29.36-.538 1.357-28.7 23.339-19.97-11.53 5.861-36.523.907-1.146 21.52-21.444-16.367-28.347-29.33 7.916-1.445.212-34.563-13.185v-23.058l34.562-13.187 1.445.212 29.331 7.916 16.366-28.349-21.52-21.442-.908-1.146-5.861-36.524 19.969-11.53 28.701 23.338.538 1.358 7.81 29.36 32.734-.001 7.81-29.36.538-1.357 28.7-23.339 19.97 11.529-5.86 36.524-.908 1.146-21.52 21.443z" stroke="#000" fill="#f2f2f2"/><path d="M830.28 498.174a7.576 7.576 0 1 1-15.152 0 7.576 7.576 0 1 1 15.152 0z" style="marker:none" color="#000" fill="#fc0" stroke="#000" stroke-width="1" stroke-linecap="round" overflow="visible"/><path d="M343.519 393.807l26.524-13.792 1.821-.69 35.811 2.28 7.056 24.414-29.073 21.033-1.908.388-29.793 2.484-4.103 36.695 28.508 9.004 1.776.8 23.71 26.935-12.274 22.251-35.43-5.685-1.624-1.076-22.823-19.309-28.849 23.046 13.792 26.525.69 1.82-2.281 35.812-24.413 7.056-21.033-29.073-.388-1.909-2.485-29.792-36.695-4.103-9.004 28.508-.799 1.775-26.935 23.71-22.252-12.273 5.686-35.43 1.075-1.624 19.31-22.824-23.047-28.848-26.524 13.791-1.821.69-35.811-2.28-7.056-24.413 29.073-21.034 1.908-.388 29.793-2.484 4.103-36.695-28.508-9.004-1.776-.8-23.71-26.934 12.274-22.252 35.43 5.685 1.624 1.076 22.823 19.309 28.849-23.046-13.792-26.525-.69-1.82 2.281-35.812 24.413-7.056 21.033 29.074.388 1.908 2.485 29.792 36.695 4.103 9.004-28.507.799-1.776 26.935-23.71 22.252 12.273-5.686 35.431-1.075 1.623-19.31 22.824z" stroke="#000" fill="#f2f2f2"/><path d="M268.946 437.86a10.152 10.152 0 1 1-20.304 0 10.152 10.152 0 1 1 20.304 0z" style="marker:none" color="#000" fill="#fc0" stroke="#000" stroke-width="1.00031" stroke-linecap="round" overflow="visible"/><path d="M727.504 331.655l28.675-3.827 2.92-.045 33.018 10.81v28.237L759.1 377.64l-2.921-.044-28.675-3.827-10.607 39.585 26.747 11.023 2.552 1.422 23.189 25.87-14.12 24.454-33.998-7.146-2.507-1.5-22.92-17.651-28.978 28.978 17.652 22.92 1.499 2.507 7.146 33.999-24.453 14.119-25.871-23.19-1.422-2.551-11.023-26.747-39.585 10.607 3.827 28.675.045 2.92-10.811 33.018H555.63l-10.811-33.017.045-2.921 3.827-28.675-39.585-10.607-11.023 26.747-1.422 2.552-25.871 23.189-24.453-14.12 7.146-33.998 1.499-2.507 17.652-22.92-28.978-28.978-22.92 17.652-2.507 1.499-34 7.146-14.118-24.453 23.189-25.871 2.552-1.422 26.747-11.023-10.607-39.585-28.675 3.827-2.921.045-33.017-10.811v-28.236l33.017-10.811 2.92.045 28.676 3.827 10.607-39.585-26.747-11.023-2.552-1.422-23.19-25.871 14.12-24.453 33.999 7.146 2.507 1.499 22.92 17.652 28.978-28.978-17.652-22.92-1.5-2.507-7.145-34 24.453-14.118 25.87 23.189 1.423 2.552 11.023 26.747 39.585-10.607-3.827-28.675-.045-2.921 10.81-33.017h28.237l10.81 33.017-.044 2.92-3.827 28.676 39.585 10.607 11.023-26.747 1.422-2.552 25.87-23.19 24.454 14.12-7.146 33.999-1.5 2.507-17.651 22.92 28.978 28.978 22.92-17.652 2.507-1.5 33.999-7.145 14.119 24.453-23.19 25.87-2.551 1.423-26.747 11.023z" stroke="#000" fill="#ececec"/><path style="marker:none" d="M584.9 352.712a15.152 15.152 0 1 1-30.305 0 15.152 15.152 0 1 1 30.305 0z" color="#000" fill="#fc0" stroke="#000" stroke-linecap="round" overflow="visible"/><g stroke="green" stroke-width="1.019"><path d="M-707.107 1620.068l-5.249-9.091-5.249-9.092h20.996l-5.249 9.091z" transform="matrix(-.14819 .26657 .2666 .14824 196.219 394.184)" fill="#d40000" stroke-width="25.776"/><g fill="#d40000"><path d="M232.449 152.335l282.838 3.811" stroke-width="10.039" transform="matrix(-.52246 -.2903 .2902 -.5224 805.314 590.219)"/><path transform="matrix(-.14811 .26661 -.26665 -.14817 903.81 784.936)" d="M-707.107 1620.068l-5.249-9.091-5.249-9.092h20.996l-5.249 9.091z" stroke-width="25.776"/></g></g><g stroke="#d40000"><g fill="#d40000"><path d="M796.789 340.921l24.772-47.74" stroke-width="9.4753092"/><path d="M825.256 286.06l.19 4.216.19 4.216-3.746-1.944-3.746-1.944 3.556-2.272z" stroke-width="12.416265130000001"/></g><path d="M751.206 428.768l70.355-135.587" fill="#d40000" stroke-width="12" stroke-linecap="round"/></g><g stroke="green" stroke-width=".981"><g fill="#d40000"><path d="M52.565 153.862l172.577-.29" stroke-width="9.667" transform="matrix(.5991 -.16988 -.1712 -.5945 264.738 536.676)"/><path d="M-707.107 1620.068l-5.249-9.091-5.249-9.092h20.996l-5.249 9.091z" transform="matrix(.08738 .30342 .30576 -.08671 -58.94 761.348)" stroke-width="24.819"/></g><g fill="#d40000"><path d="M364.845 153.63l151.842 3.046" stroke-width="9.667" transform="matrix(-.59904 .17008 -.1714 -.59445 607.259 439.487)"/><path transform="matrix(.08747 .3034 -.30574 .0868 823.42 509.802)" d="M-707.107 1620.068l-5.249-9.091-5.249-9.092h20.996l-5.249 9.091z" stroke-width="24.819"/></g></g><g stroke="green" stroke-width="1.019"><path transform="matrix(.08393 .29332 .29289 -.08406 147.3 698.297)" d="M-707.107 1620.068l-5.249-9.091-5.249-9.092h20.996l-5.249 9.091z" fill="#d40000" stroke-width="25.786"/><g fill="#d40000"><path d="M232.449 152.335l282.838 3.811" stroke-width="10.043" transform="matrix(-.57382 .16487 -.16462 -.57468 715.582 405.46)"/><path d="M-707.107 1620.068l-5.249-9.091-5.249-9.092h20.996l-5.249 9.091z" transform="matrix(.084 .2933 -.29286 .08413 922.732 473.302)" stroke-width="25.786"/></g></g><g stroke="green" stroke-width="1.329"><g fill="#d40000"><path d="M52.565 153.862l172.577-.29" stroke-width="13.097" transform="matrix(-.39267 -.23642 .23689 -.39188 798.57 567.563)"/><path transform="matrix(-.1209 .2 -.2004 -.12067 984.954 790.24)" d="M-707.107 1620.068l-5.249-9.091-5.249-9.092h20.996l-5.249 9.091z" stroke-width="33.626"/></g><g fill="#d40000"><path d="M364.845 153.63l151.842 3.046" stroke-width="13.097" transform="matrix(.39259 .23655 .23702 -.3918 574.084 432.351)"/><path d="M-707.107 1620.068l-5.249-9.091-5.249-9.092h20.996l-5.249 9.091z" transform="matrix(-.12096 .19997 .20037 .12072 406.887 441.08)" stroke-width="33.626"/></g></g><g stroke="#d40000"><g fill="#d40000"><path d="M419.322 522.988l16.933 51.05" stroke-width="9.4753092"/><path d="M438.78 581.652l.853-4.133.852-4.133-4.006 1.329-4.005 1.328 3.154 2.805z" stroke-width="12.416265130000001"/></g><path d="M388.163 429.052l48.092 144.985" fill="#d40000" stroke-width="12" stroke-linecap="round"/></g><g transform="matrix(5.29276 0 0 5.29276 -890.865 -308.11)" ns0:preamble="/home/waldgeist/data/sphinx/inkscape-preamble.tex" ns0:text="$\\vec{s}_{\\rm{1}}$" fill="green" stroke="green"><defs><symbol id="a" overflow="visible"><path d="M5.36-5.938c-.141.141-.47.422-.47.594 0 .094.094.203.188.203s.14-.078.203-.14c.11-.14.344-.422.782-.64.062-.048.171-.095.171-.204 0-.11-.078-.156-.14-.203a1.034 1.034 0 0 1-.407-.563c-.03-.093-.062-.234-.203-.234-.14 0-.203.14-.203.219 0 .047.078.36.235.578h-3.36c-.156 0-.344 0-.344.203 0 .188.188.188.344.188z" stroke="none"/></symbol><symbol id="b" overflow="visible"><path d="M3.89-3.734c-.265.015-.468.234-.468.453 0 .14.094.297.312.297.22 0 .454-.172.454-.563 0-.453-.422-.86-1.188-.86-1.313 0-1.688 1.016-1.688 1.454 0 .781.735.922 1.032.984.515.11 1.031.219 1.031.766 0 .25-.219 1.094-1.422 1.094-.14 0-.906 0-1.14-.532.39.047.64-.25.64-.53 0-.22-.172-.345-.375-.345-.266 0-.562.204-.562.657 0 .562.578.968 1.421.968 1.625 0 2.016-1.203 2.016-1.656a.97.97 0 0 0-.312-.719c-.266-.28-.563-.343-1-.421-.36-.079-.75-.157-.75-.61 0-.281.234-.89 1.109-.89.25 0 .75.078.89.453z" stroke="none"/></symbol><symbol id="c" overflow="visible"><path d="M2.328-4.438c0-.187 0-.187-.203-.187-.453.438-1.078.438-1.36.438v.25c.157 0 .626 0 1-.188v3.547c0 .234 0 .328-.687.328H.812V0c.125 0 .985-.031 1.235-.031.219 0 1.094.031 1.25.031v-.25H3.03c-.703 0-.703-.094-.703-.328z" stroke="none"/></symbol></defs><use y="134.765" x="223.064" xlink:href="#a" width="744.094" height="1052.362"/><use y="134.765" x="223.433" xlink:href="#b" width="744.094" height="1052.362"/><use y="136.259" x="228.102" xlink:href="#c" width="744.094" height="1052.362"/></g><g ns0:text="$\\vec{s}_{\\rm{2}}$" ns0:preamble="/home/waldgeist/data/sphinx/inkscape-preamble.tex" transform="matrix(5.29276 0 0 5.29276 -733.677 -353.354)" fill="green" stroke="green"><defs><symbol overflow="visible" id="d"><path d="M5.36-5.938c-.141.141-.47.422-.47.594 0 .094.094.203.188.203s.14-.078.203-.14c.11-.14.344-.422.782-.64.062-.048.171-.095.171-.204 0-.11-.078-.156-.14-.203a1.034 1.034 0 0 1-.407-.563c-.03-.093-.062-.234-.203-.234-.14 0-.203.14-.203.219 0 .047.078.36.235.578h-3.36c-.156 0-.344 0-.344.203 0 .188.188.188.344.188z" stroke="none"/></symbol><symbol overflow="visible" id="e"><path d="M3.89-3.734c-.265.015-.468.234-.468.453 0 .14.094.297.312.297.22 0 .454-.172.454-.563 0-.453-.422-.86-1.188-.86-1.313 0-1.688 1.016-1.688 1.454 0 .781.735.922 1.032.984.515.11 1.031.219 1.031.766 0 .25-.219 1.094-1.422 1.094-.14 0-.906 0-1.14-.532.39.047.64-.25.64-.53 0-.22-.172-.345-.375-.345-.266 0-.562.204-.562.657 0 .562.578.968 1.421.968 1.625 0 2.016-1.203 2.016-1.656a.97.97 0 0 0-.312-.719c-.266-.28-.563-.343-1-.421-.36-.079-.75-.157-.75-.61 0-.281.234-.89 1.109-.89.25 0 .75.078.89.453z" stroke="none"/></symbol><symbol overflow="visible" id="f"><path d="M3.516-1.266H3.28c-.015.157-.094.563-.187.625-.047.047-.578.047-.688.047H1.125c.734-.64.984-.844 1.39-1.172.516-.406 1-.843 1-1.5 0-.843-.734-1.359-1.624-1.359-.86 0-1.454.61-1.454 1.25 0 .344.297.39.376.39.156 0 .359-.124.359-.374 0-.125-.047-.375-.406-.375.218-.485.687-.641 1.015-.641.703 0 1.063.547 1.063 1.11 0 .609-.438 1.078-.656 1.328L.516-.266C.437-.203.437-.187.437 0h2.876z" stroke="none"/></symbol></defs><use xlink:href="#d" x="223.064" y="134.765" width="744.094" height="1052.362"/><use xlink:href="#e" x="223.433" y="134.765" width="744.094" height="1052.362"/><use xlink:href="#f" x="228.102" y="136.259" width="744.094" height="1052.362"/></g><g ns0:preamble="/home/waldgeist/data/sphinx/inkscape-preamble.tex" ns0:text="$\\vec{s}_{\\rm{2}}$" fill="green" stroke="green"><use height="1052.362" width="744.094" y="134.765" x="223.064" xlink:href="#d" transform="matrix(5.29276 0 0 5.29276 -534.677 -328.1)"/><use height="1052.362" width="744.094" y="134.765" x="223.433" xlink:href="#e" transform="matrix(5.29276 0 0 5.29276 -534.677 -328.1)"/><use height="1052.362" width="744.094" y="136.259" x="228.102" xlink:href="#f" transform="matrix(5.29276 0 0 5.29276 -534.677 -328.1)"/></g><g ns0:text="$\\vec{s}_{\\rm{2}}$" ns0:preamble="/home/waldgeist/data/sphinx/inkscape-preamble.tex" fill="green" stroke="green"><use xlink:href="#d" x="223.064" y="134.765" width="744.094" height="1052.362" transform="matrix(5.29276 0 0 5.29276 -534.677 -328.1)"/><use xlink:href="#e" x="223.433" y="134.765" width="744.094" height="1052.362" transform="matrix(5.29276 0 0 5.29276 -534.677 -328.1)"/><use xlink:href="#f" x="228.102" y="136.259" width="744.094" height="1052.362" transform="matrix(5.29276 0 0 5.29276 -534.677 -328.1)"/></g><g ns0:text="$\\vec{s}_{\\rm{3}}$" ns0:preamble="/home/waldgeist/data/sphinx/inkscape-preamble.tex" transform="matrix(5.29276 0 0 5.29276 -409.145 -249.563)" fill="green" stroke="green"><defs><symbol overflow="visible" id="g"><path d="M5.36-5.938c-.141.141-.47.422-.47.594 0 .094.094.203.188.203s.14-.078.203-.14c.11-.14.344-.422.782-.64.062-.048.171-.095.171-.204 0-.11-.078-.156-.14-.203a1.034 1.034 0 0 1-.407-.563c-.03-.093-.062-.234-.203-.234-.14 0-.203.14-.203.219 0 .047.078.36.235.578h-3.36c-.156 0-.344 0-.344.203 0 .188.188.188.344.188z" stroke="none"/></symbol><symbol overflow="visible" id="h"><path d="M3.89-3.734c-.265.015-.468.234-.468.453 0 .14.094.297.312.297.22 0 .454-.172.454-.563 0-.453-.422-.86-1.188-.86-1.313 0-1.688 1.016-1.688 1.454 0 .781.735.922 1.032.984.515.11 1.031.219 1.031.766 0 .25-.219 1.094-1.422 1.094-.14 0-.906 0-1.14-.532.39.047.64-.25.64-.53 0-.22-.172-.345-.375-.345-.266 0-.562.204-.562.657 0 .562.578.968 1.421.968 1.625 0 2.016-1.203 2.016-1.656a.97.97 0 0 0-.312-.719c-.266-.28-.563-.343-1-.421-.36-.079-.75-.157-.75-.61 0-.281.234-.89 1.109-.89.25 0 .75.078.89.453z" stroke="none"/></symbol><symbol overflow="visible" id="i"><path d="M1.906-2.328c.547 0 .938.375.938 1.125 0 .86-.516 1.125-.906 1.125-.282 0-.907-.078-1.188-.5.328 0 .406-.235.406-.39 0-.22-.172-.376-.39-.376a.38.38 0 0 0-.391.407C.375-.281 1.094.14 1.938.14c.968 0 1.64-.657 1.64-1.344 0-.547-.437-1.094-1.203-1.25.719-.266.984-.781.984-1.219 0-.547-.625-.953-1.406-.953-.766 0-1.36.375-1.36.938 0 .234.157.359.36.359.219 0 .36-.156.36-.344 0-.203-.141-.36-.36-.375.25-.297.719-.375.985-.375.312 0 .75.156.75.75 0 .297-.094.625-.282.828-.219.266-.422.281-.765.313-.172.015-.188.015-.22.015-.015 0-.077.016-.077.094 0 .094.062.094.187.094z" stroke="none"/></symbol></defs><use height="744.094" width="1052.362" xlink:href="#g" x="223.064" y="134.765"/><use height="744.094" width="1052.362" xlink:href="#h" x="223.433" y="134.765"/><use height="744.094" width="1052.362" xlink:href="#i" x="228.102" y="136.259"/></g><g ns0:text="$\\vec{F}_{\\rm{2}}$" ns0:preamble="/home/waldgeist/data/sphinx/inkscape-preamble.tex" fill="#d40000" stroke="#d40000"><path d="M860.318 302.333c-.744.744-2.48 2.233-2.48 3.142 0 .497.495 1.075.991 1.075.497 0 .745-.413 1.076-.744.578-.744 1.819-2.233 4.135-3.39.33-.249.91-.497.91-1.076 0-.578-.414-.827-.745-1.075-1.158-.827-1.737-1.736-2.15-2.977-.166-.496-.331-1.24-1.075-1.24-.745 0-1.075.744-1.075 1.157 0 .249.413 1.903 1.24 3.06h-17.78c-.827 0-1.82 0-1.82 1.075 0 .993.993.993 1.82.993zM840.138 329.972h5.128c3.97 0 4.383.827 4.383 2.316 0 .413 0 .992-.331 2.646-.166.248-.166.414-.166.58 0 .413.331.578.58.578.578 0 .578-.165.826-1.075l2.895-11.495c.165-.58.165-.662.165-.827a.62.62 0 0 0-.661-.58c-.497 0-.58.249-.745 1.159-1.158 4.052-2.315 5.044-6.864 5.044h-4.796l3.39-13.397c.497-1.902.58-2.067 2.895-2.067h6.947c6.45 0 7.69 1.736 7.69 5.788 0 1.241 0 1.406-.165 2.895-.083.662-.083.744-.083.91 0 .248.166.661.662.661.579 0 .579-.33.662-1.323l1.075-9.18c.165-1.405-.083-1.405-1.406-1.405h-25.885c-.992 0-1.571 0-1.571 1.075 0 .579.496.579 1.488.579 1.985 0 3.474 0 3.474.91 0 .247 0 .33-.331 1.322l-6.947 27.87c-.496 2.068-.579 2.481-4.796 2.481-.91 0-1.49 0-1.49.992 0 .662.663.662.828.662 1.489 0 5.458-.165 6.947-.165 1.736 0 6.12.165 7.856.165.496 0 1.075 0 1.075-.992 0-.414-.248-.58-.248-.58-.165-.082-.33-.082-1.488-.082s-1.406 0-2.73-.083c-1.57-.165-1.736-.413-1.736-1.075 0-.082 0-.413.248-1.158zM876.695 348.3h-1.24c-.083.827-.496 2.977-.993 3.308-.248.248-3.06.248-3.638.248h-6.782c3.887-3.39 5.21-4.466 7.36-6.203 2.73-2.15 5.293-4.465 5.293-7.939 0-4.465-3.887-7.195-8.6-7.195-4.549 0-7.692 3.226-7.692 6.616 0 1.82 1.572 2.068 1.985 2.068.827 0 1.902-.662 1.902-1.985 0-.662-.248-1.985-2.15-1.985 1.158-2.563 3.639-3.39 5.376-3.39 3.721 0 5.623 2.894 5.623 5.871 0 3.226-2.315 5.707-3.473 7.03l-8.85 8.849c-.413.33-.413.413-.413 1.405h15.217z" stroke="none"/></g><g ns0:text="$\\vec{F}_{\\rm{1}}$" ns0:preamble="/home/waldgeist/data/sphinx/inkscape-preamble.tex" transform="matrix(5.29276 0 0 5.29276 -808.53 -97.617)" fill="#d40000" stroke="#d40000"><defs><symbol overflow="visible" id="j"><path d="M5.36-5.938c-.141.141-.47.422-.47.594 0 .094.094.203.188.203s.14-.078.203-.14c.11-.14.344-.422.782-.64.062-.048.171-.095.171-.204 0-.11-.078-.156-.14-.203a1.034 1.034 0 0 1-.407-.563c-.03-.093-.062-.234-.203-.234-.14 0-.203.14-.203.219 0 .047.078.36.235.578h-3.36c-.156 0-.344 0-.344.203 0 .188.188.188.344.188z" stroke="none"/></symbol><symbol overflow="visible" id="k"><path d="M3.016-3.234h.968c.75 0 .829.156.829.437 0 .078 0 .188-.063.5-.031.047-.031.078-.031.11 0 .078.062.109.11.109.109 0 .109-.031.155-.203l.547-2.172c.032-.11.032-.125.032-.156a.117.117 0 0 0-.125-.11c-.094 0-.11.047-.141.219-.219.766-.438.953-1.297.953h-.906l.64-2.531c.094-.36.11-.39.547-.39h1.313c1.218 0 1.453.327 1.453 1.093 0 .234 0 .266-.031.547C7-4.703 7-4.688 7-4.656c0 .047.031.125.125.125.11 0 .11-.063.125-.25l.203-1.735c.031-.265-.016-.265-.266-.265h-4.89c-.188 0-.297 0-.297.203 0 .11.094.11.281.11.375 0 .656 0 .656.171 0 .047 0 .063-.062.25L1.562-.78c-.093.39-.109.469-.906.469-.172 0-.281 0-.281.187C.375 0 .5 0 .531 0c.281 0 1.031-.031 1.313-.031C2.172-.031 3 0 3.328 0c.094 0 .203 0 .203-.188 0-.078-.047-.109-.047-.109-.03-.016-.062-.016-.28-.016-.22 0-.267 0-.517-.015-.296-.031-.328-.078-.328-.203 0-.016 0-.078.047-.219z" stroke="none"/></symbol><symbol overflow="visible" id="l"><path d="M2.328-4.438c0-.187 0-.187-.203-.187-.453.438-1.078.438-1.36.438v.25c.157 0 .626 0 1-.188v3.547c0 .234 0 .328-.687.328H.812V0c.125 0 .985-.031 1.235-.031.219 0 1.094.031 1.25.031v-.25H3.03c-.703 0-.703-.094-.703-.328z" stroke="none"/></symbol></defs><use xlink:href="#j" x="224.901" y="132.246" width="744.094" height="1052.362"/><use xlink:href="#k" x="223.432" y="134.765" width="744.094" height="1052.362"/><use xlink:href="#l" x="229.839" y="136.259" width="744.094" height="1052.362"/></g><path transform="matrix(0 .39334 .394 0 632.806 357.053)" style="marker:none" d="M426.55 466.575a74.286 74.286 0 1 1-100.092-51.66" color="#000" fill="none" stroke="#00f" stroke-width="7.621" stroke-linecap="round" stroke-dasharray="15.24112522,45.72337573" marker-start="url(#m)" overflow="visible"/><path d="M316.248 547.6a74.286 74.286 0 0 1 10.21-132.686" style="marker:none" transform="matrix(-.6081 -.61041 -.61045 .61277 770.13 355.619)" color="#000" fill="none" stroke="#00f" stroke-width="3.475" stroke-linecap="round" stroke-dasharray="6.95028346,20.8508504" marker-start="url(#m)" overflow="visible"/><path transform="matrix(-.00651 -1.46975 1.46242 .00656 -127.411 866.92)" style="marker:none" d="M280.283 477.316a74.286 74.286 0 0 1 52.408-64.603" color="#000" fill="none" stroke="#00f" stroke-width="2.046" stroke-linecap="round" stroke-dasharray="4.09258305,12.27774915" marker-start="url(#m)" overflow="visible"/></svg>