<svg xmlns:ns0="http://www.iki.fi/pav/software/textext/" xmlns="http://www.w3.org/2000/svg" xmlns:xlink="http://www.w3.org/1999/xlink" width="927.213" height="351.052"><title>Doppler-Effekt</title><path fill="#fff" stroke="#fff" stroke-linecap="round" d="M.5.5h926.213v350.052H.5z"/><g transform="translate(-637.813 -376.674) scale(4.62289)" fill="green"><use y="134.765" x="231.736" xlink:href="#textext-082fa4b4-3" width="744.094" height="1052.362"/><use y="134.765" x="231.736" xlink:href="#textext-082fa4b4-3" width="744.094" height="1052.362"/><g ns0:preamble="/home/waldgeist/data/sphinx/test.tex" ns0:text="$\\Delta \\vec{r} = \\vec{r}_{\\rm{2}} - \\vec{r}_{\\rm{1}} $"><use y="134.765" x="223.432" xlink:href="#textext-082fa4b4-0" width="744.094" height="1052.362"/><use y="134.765" x="231.417" xlink:href="#textext-082fa4b4-2" width="744.094" height="1052.362"/><use y="134.765" x="231.736" xlink:href="#textext-082fa4b4-3" width="744.094" height="1052.362"/><use y="134.765" x="239.273" xlink:href="#textext-082fa4b4-1" width="744.094" height="1052.362"/><use y="134.765" x="249.472" xlink:href="#textext-082fa4b4-2" width="744.094" height="1052.362"/><use y="134.765" x="249.791" xlink:href="#textext-082fa4b4-3" width="744.094" height="1052.362"/><use y="136.259" x="254.284" xlink:href="#textext-082fa4b4-4" width="744.094" height="1052.362"/><use y="134.765" x="260.967" xlink:href="#textext-082fa4b4-6" width="744.094" height="1052.362"/><use y="134.765" x="270.612" xlink:href="#textext-082fa4b4-2" width="744.094" height="1052.362"/><use y="134.765" x="270.931" xlink:href="#textext-082fa4b4-3" width="744.094" height="1052.362"/><use y="136.259" x="275.425" xlink:href="#textext-082fa4b4-5" width="744.094" height="1052.362"/></g><g ns0:preamble="/home/waldgeist/data/sphinx/test.tex" ns0:text="$\\Delta \\vec{r} = \\vec{r}_{\\rm{2}} - \\vec{r}_{\\rm{1}} $"><use y="134.765" x="223.432" xlink:href="#textext-082fa4b4-0" width="744.094" height="1052.362"/><use y="134.765" x="231.417" xlink:href="#textext-082fa4b4-2" width="744.094" height="1052.362"/><use y="134.765" x="231.736" xlink:href="#textext-082fa4b4-3" width="744.094" height="1052.362"/><use y="134.765" x="239.273" xlink:href="#textext-082fa4b4-1" width="744.094" height="1052.362"/><use y="134.765" x="249.472" xlink:href="#textext-082fa4b4-2" width="744.094" height="1052.362"/><use y="134.765" x="249.791" xlink:href="#textext-082fa4b4-3" width="744.094" height="1052.362"/><use y="136.259" x="254.284" xlink:href="#textext-082fa4b4-4" width="744.094" height="1052.362"/><use y="134.765" x="260.967" xlink:href="#textext-082fa4b4-6" width="744.094" height="1052.362"/><use y="134.765" x="270.612" xlink:href="#textext-082fa4b4-2" width="744.094" height="1052.362"/><use y="134.765" x="270.931" xlink:href="#textext-082fa4b4-3" width="744.094" height="1052.362"/><use y="136.259" x="275.425" xlink:href="#textext-082fa4b4-5" width="744.094" height="1052.362"/></g><g ns0:preamble="/home/waldgeist/data/sphinx/test.tex" ns0:text="$\\Delta \\vec{r} = \\vec{r}_{\\rm{2}} - \\vec{r}_{\\rm{1}} $"><use y="134.765" x="223.432" xlink:href="#textext-082fa4b4-0" width="744.094" height="1052.362"/><use y="134.765" x="231.417" xlink:href="#textext-082fa4b4-2" width="744.094" height="1052.362"/><use y="134.765" x="231.736" xlink:href="#textext-082fa4b4-3" width="744.094" height="1052.362"/><use y="134.765" x="239.273" xlink:href="#textext-082fa4b4-1" width="744.094" height="1052.362"/><use y="134.765" x="249.472" xlink:href="#textext-082fa4b4-2" width="744.094" height="1052.362"/><use y="134.765" x="249.791" xlink:href="#textext-082fa4b4-3" width="744.094" height="1052.362"/><use y="136.259" x="254.284" xlink:href="#textext-082fa4b4-4" width="744.094" height="1052.362"/><use y="134.765" x="260.967" xlink:href="#textext-082fa4b4-6" width="744.094" height="1052.362"/><use y="134.765" x="270.612" xlink:href="#textext-082fa4b4-2" width="744.094" height="1052.362"/><use y="134.765" x="270.931" xlink:href="#textext-082fa4b4-3" width="744.094" height="1052.362"/><use y="136.259" x="275.425" xlink:href="#textext-082fa4b4-5" width="744.094" height="1052.362"/></g></g><g transform="matrix(.30805 0 0 .3077 -468.031 -81.782)" stroke="green" stroke-width="3.248" color="#000" fill="none" stroke-linecap="round" stroke-linejoin="round"><circle transform="matrix(6.88525 0 0 6.88525 1448.179 -2363.125)" style="marker:none" cx="342.058" cy="464.665" r="71.166" overflow="visible" stroke-width=".708"/><circle transform="matrix(.17188 0 0 .17188 3989.536 756.342)" style="marker:none" cx="342.058" cy="464.665" r="71.166" overflow="visible" stroke-width="28.345"/><g stroke-width="4.872"><path style="marker:none" d="M4099.357 836.21a91.86 91.86 0 1 1-183.72 0 91.86 91.86 0 0 1 183.72 0" overflow="visible"/><path style="marker:none" d="M4138.151 836.21c0 61.267-32.685 117.88-85.743 148.513-53.059 30.633-118.43 30.633-171.488 0-53.058-30.633-85.744-87.246-85.744-148.513 0-61.266 32.686-117.879 85.744-148.512 53.058-30.633 118.43-30.633 171.488 0 53.058 30.633 85.743 87.246 85.743 148.512" overflow="visible"/><path style="marker:none" d="M4176.946 836.21c0 89.715-47.862 172.615-125.558 217.473-77.695 44.857-173.42 44.857-251.115 0-77.695-44.858-125.558-127.758-125.558-217.473 0-89.714 47.863-172.614 125.558-217.472 77.695-44.857 173.42-44.857 251.115 0 77.696 44.858 125.558 127.758 125.558 217.472" overflow="visible"/><path style="marker:none" d="M4215.74 836.21c0 118.164-63.039 227.35-165.371 286.432-102.332 59.082-228.41 59.082-330.743 0-102.332-59.081-165.371-168.268-165.371-286.431 0-118.164 63.039-227.35 165.371-286.432 102.332-59.082 228.41-59.082 330.743 0C4152.7 608.86 4215.74 718.048 4215.74 836.21" overflow="visible"/><path style="marker:none" d="M4254.535 836.21c0 146.612-78.216 282.086-205.186 355.392-126.969 73.305-283.4 73.305-410.37 0-126.97-73.306-205.185-208.78-205.185-355.391 0-146.612 78.216-282.086 205.185-355.392 126.97-73.305 283.401-73.305 410.37 0 126.97 73.306 205.186 208.78 205.186 355.392" overflow="visible"/></g></g><g transform="matrix(.30805 0 0 .3077 -468.031 -81.782)" stroke="green" stroke-width="3.248" color="#000" fill="none" stroke-linecap="round" stroke-linejoin="round"><circle transform="matrix(.17188 0 0 .17188 2186.54 756.342)" style="marker:none" cx="342.058" cy="464.665" r="71.166" overflow="visible" stroke-width="28.345"/><circle style="marker:none" transform="matrix(6.88525 0 0 6.88525 -109.817 -2363.125)" cx="342.058" cy="464.665" r="71.166" overflow="visible" stroke-width=".708"/><g stroke-width="4.872"><path d="M2655.705 836.21c0 226.642-183.729 410.371-410.37 410.371s-410.37-183.73-410.37-410.37c0-226.642 183.729-410.37 410.37-410.37s410.37 183.728 410.37 410.37" style="marker:none" overflow="visible"/><path d="M2576.078 836.21c0 182.665-148.079 330.743-330.743 330.743s-330.743-148.078-330.743-330.742c0-182.665 148.079-330.743 330.743-330.743s330.743 148.078 330.743 330.743" style="marker:none" overflow="visible"/><path d="M2496.45 836.21c0 138.688-112.428 251.116-251.115 251.116S1994.22 974.898 1994.22 836.21c0-138.688 112.428-251.116 251.115-251.116s251.115 112.428 251.115 251.116" style="marker:none" overflow="visible"/><path d="M2416.823 836.21c0 94.71-76.778 171.488-171.488 171.488s-171.488-76.777-171.488-171.487 76.778-171.488 171.488-171.488 171.488 76.778 171.488 171.488" style="marker:none" overflow="visible"/><path d="M2337.195 836.21c0 50.733-41.127 91.86-91.86 91.86s-91.86-41.127-91.86-91.86c0-50.732 41.127-91.86 91.86-91.86s91.86 41.128 91.86 91.86" style="marker:none" overflow="visible"/></g></g><path transform="matrix(.30805 0 0 .3077 -358.37 -63.124)" d="M2726 692.344v53.812h-198.531V805H2726v53.813l83.219-83.25z" style="marker:none" color="#000" overflow="visible" fill="#fff" fill-rule="evenodd" stroke-width="4.872" stroke="#00f"/></svg>