<svg xmlns:ns0="http://www.iki.fi/pav/software/textext/" xmlns="http://www.w3.org/2000/svg" xmlns:xlink="http://www.w3.org/1999/xlink" width="1052.362" height="744.094"><title>Doppler-Effekt</title><g transform="translate(-575.239 -180.152) scale(4.62289)" fill="green"><use y="134.765" x="231.736" xlink:href="#textext-082fa4b4-3" width="744.094" height="1052.362"/><use y="134.765" x="231.736" xlink:href="#textext-082fa4b4-3" width="744.094" height="1052.362"/><g ns0:preamble="/home/waldgeist/data/sphinx/test.tex" ns0:text="$\\Delta \\vec{r} = \\vec{r}_{\\rm{2}} - \\vec{r}_{\\rm{1}} $"><use y="134.765" x="223.432" xlink:href="#textext-082fa4b4-0" width="744.094" height="1052.362"/><use y="134.765" x="231.417" xlink:href="#textext-082fa4b4-2" width="744.094" height="1052.362"/><use y="134.765" x="231.736" xlink:href="#textext-082fa4b4-3" width="744.094" height="1052.362"/><use y="134.765" x="239.273" xlink:href="#textext-082fa4b4-1" width="744.094" height="1052.362"/><use y="134.765" x="249.472" xlink:href="#textext-082fa4b4-2" width="744.094" height="1052.362"/><use y="134.765" x="249.791" xlink:href="#textext-082fa4b4-3" width="744.094" height="1052.362"/><use y="136.259" x="254.284" xlink:href="#textext-082fa4b4-4" width="744.094" height="1052.362"/><use y="134.765" x="260.967" xlink:href="#textext-082fa4b4-6" width="744.094" height="1052.362"/><use y="134.765" x="270.612" xlink:href="#textext-082fa4b4-2" width="744.094" height="1052.362"/><use y="134.765" x="270.931" xlink:href="#textext-082fa4b4-3" width="744.094" height="1052.362"/><use y="136.259" x="275.425" xlink:href="#textext-082fa4b4-5" width="744.094" height="1052.362"/></g><g ns0:preamble="/home/waldgeist/data/sphinx/test.tex" ns0:text="$\\Delta \\vec{r} = \\vec{r}_{\\rm{2}} - \\vec{r}_{\\rm{1}} $"><use y="134.765" x="223.432" xlink:href="#textext-082fa4b4-0" width="744.094" height="1052.362"/><use y="134.765" x="231.417" xlink:href="#textext-082fa4b4-2" width="744.094" height="1052.362"/><use y="134.765" x="231.736" xlink:href="#textext-082fa4b4-3" width="744.094" height="1052.362"/><use y="134.765" x="239.273" xlink:href="#textext-082fa4b4-1" width="744.094" height="1052.362"/><use y="134.765" x="249.472" xlink:href="#textext-082fa4b4-2" width="744.094" height="1052.362"/><use y="134.765" x="249.791" xlink:href="#textext-082fa4b4-3" width="744.094" height="1052.362"/><use y="136.259" x="254.284" xlink:href="#textext-082fa4b4-4" width="744.094" height="1052.362"/><use y="134.765" x="260.967" xlink:href="#textext-082fa4b4-6" width="744.094" height="1052.362"/><use y="134.765" x="270.612" xlink:href="#textext-082fa4b4-2" width="744.094" height="1052.362"/><use y="134.765" x="270.931" xlink:href="#textext-082fa4b4-3" width="744.094" height="1052.362"/><use y="136.259" x="275.425" xlink:href="#textext-082fa4b4-5" width="744.094" height="1052.362"/></g><g ns0:preamble="/home/waldgeist/data/sphinx/test.tex" ns0:text="$\\Delta \\vec{r} = \\vec{r}_{\\rm{2}} - \\vec{r}_{\\rm{1}} $"><use y="134.765" x="223.432" xlink:href="#textext-082fa4b4-0" width="744.094" height="1052.362"/><use y="134.765" x="231.417" xlink:href="#textext-082fa4b4-2" width="744.094" height="1052.362"/><use y="134.765" x="231.736" xlink:href="#textext-082fa4b4-3" width="744.094" height="1052.362"/><use y="134.765" x="239.273" xlink:href="#textext-082fa4b4-1" width="744.094" height="1052.362"/><use y="134.765" x="249.472" xlink:href="#textext-082fa4b4-2" width="744.094" height="1052.362"/><use y="134.765" x="249.791" xlink:href="#textext-082fa4b4-3" width="744.094" height="1052.362"/><use y="136.259" x="254.284" xlink:href="#textext-082fa4b4-4" width="744.094" height="1052.362"/><use y="134.765" x="260.967" xlink:href="#textext-082fa4b4-6" width="744.094" height="1052.362"/><use y="134.765" x="270.612" xlink:href="#textext-082fa4b4-2" width="744.094" height="1052.362"/><use y="134.765" x="270.931" xlink:href="#textext-082fa4b4-3" width="744.094" height="1052.362"/><use y="136.259" x="275.425" xlink:href="#textext-082fa4b4-5" width="744.094" height="1052.362"/></g></g><path fill="#fff" stroke="#fff" stroke-linecap="round" d="M63.074 171.222h926.213v401.65H63.074z"/><path style="marker:none" d="M952.074 371.639l-59.036-61.192-59.036-60.495-59.012-60.156" color="#000" fill="none" stroke="#37c871" stroke-width="3" stroke-linecap="round" stroke-linejoin="round" stroke-dasharray="3,9" overflow="visible"/><g stroke="green" stroke-width="1.25" color="#000" fill="none" stroke-linecap="round" stroke-linejoin="round"><path d="M940.798 372.047a3.793 3.793 0 1 1-7.586 0 3.793 3.793 0 0 1 7.586 0z" style="marker:none" stroke-width="1.5000752" overflow="visible"/><path style="marker:none" d="M892.974 372.047c0 83.913-68.025 151.937-151.937 151.937-83.913 0-151.937-68.024-151.937-151.937 0-83.912 68.024-151.937 151.937-151.937 83.912 0 151.937 68.025 151.937 151.937z" stroke-width="1.50086985" overflow="visible"/><g stroke-width="4.838"><path style="marker:none" d="M943.163 372.047a28.484 28.484 0 1 1-56.967 0 28.484 28.484 0 0 1 56.967 0" overflow="visible" stroke-width="1.5001670400000002"/><path style="marker:none" d="M933.125 372.047a53.174 53.174 0 1 1-106.349 0 53.174 53.174 0 0 1 106.35 0" overflow="visible" stroke-width="1.5001670400000002"/><path style="marker:none" d="M923.087 372.047a77.865 77.865 0 1 1-155.73 0 77.865 77.865 0 0 1 155.73 0" overflow="visible" stroke-width="1.5001670400000002"/><path style="marker:none" d="M913.05 372.047a102.555 102.555 0 1 1-205.112 0 102.555 102.555 0 0 1 205.111 0" overflow="visible" stroke-width="1.5001670400000002"/><path style="marker:none" d="M903.011 372.047c0 45.46-24.253 87.468-63.623 110.199-39.37 22.73-87.876 22.73-127.246 0-39.37-22.73-63.623-64.738-63.623-110.199 0-45.46 24.253-87.468 63.623-110.198 39.37-22.73 87.876-22.73 127.246 0 39.37 22.73 63.623 64.738 63.623 110.198" overflow="visible" stroke-width="1.5001670400000002"/></g></g><g stroke="green" stroke-width="1.25" color="#000" fill="none" stroke-linecap="round" stroke-linejoin="round"><path d="M394.54 372.047a3.793 3.793 0 1 1-7.585 0 3.793 3.793 0 0 1 7.586 0z" style="marker:none" stroke-width="1.5000752" overflow="visible"/><path style="marker:none" d="M413.073 372.047c0 83.913-68.025 151.937-151.937 151.937S109.199 455.96 109.199 372.047c0-83.912 68.025-151.937 151.937-151.937s151.937 68.025 151.937 151.937z" stroke-width="1.50086985" overflow="visible"/><g stroke-width="4.838"><path d="M397.63 372.047a28.484 28.484 0 1 1-56.968 0 28.484 28.484 0 0 1 56.967 0" style="marker:none" overflow="visible" stroke-width="1.5001670400000002"/><path d="M400.718 372.047a53.174 53.174 0 1 1-106.348 0 53.174 53.174 0 0 1 106.348 0" style="marker:none" overflow="visible" stroke-width="1.5001670400000002"/><path d="M403.807 372.047a77.865 77.865 0 1 1-155.73 0 77.865 77.865 0 0 1 155.73 0" style="marker:none" overflow="visible" stroke-width="1.5001670400000002"/><path d="M406.895 372.047a102.556 102.556 0 1 1-205.11 0 102.556 102.556 0 0 1 205.11 0" style="marker:none" overflow="visible" stroke-width="1.5001670400000002"/><path d="M409.984 372.047c0 45.46-24.253 87.468-63.623 110.199-39.37 22.73-87.876 22.73-127.246 0-39.37-22.73-63.623-64.738-63.623-110.199 0-45.46 24.253-87.468 63.623-110.198 39.37-22.73 87.876-22.73 127.246 0 39.37 22.73 63.623 64.738 63.623 110.198" style="marker:none" overflow="visible" stroke-width="1.5001670400000002"/></g></g><path transform="matrix(.30805 0 0 .3077 -321.902 119.524)" d="M2726 692.344v53.812h-198.531V805H2726v53.813l83.219-83.25-83.219-83.22z" style="marker:none" color="#000" fill="#fff" fill-rule="evenodd" stroke-width="4.872" overflow="visible" stroke="#00f"/><path d="M952.299 371.406l-59.64 61.814-59.64 61.11-59.615 60.769" style="marker:none" color="#000" fill="none" stroke="#37c871" stroke-width="3" stroke-linecap="round" stroke-linejoin="round" stroke-dasharray="3,9" overflow="visible"/></svg>