<svg xmlns:ns0="http://www.iki.fi/pav/software/textext/" xmlns:osb="http://www.openswatchbook.org/uri/2009/osb" xmlns="http://www.w3.org/2000/svg" xmlns:xlink="http://www.w3.org/1999/xlink" width="744.094" height="1052.362"><title>Frequenz und Wellenlaenge</title><defs><linearGradient id="a" osb:paint="solid"><stop offset="0"/></linearGradient><symbol id="c" overflow="visible"><path d="M2.89-3.516c.813-.265 1.391-.953 1.391-1.75 0-.812-.875-1.375-1.828-1.375-1 0-1.765.594-1.765 1.36 0 .328.218.515.515.515.297 0 .5-.218.5-.515 0-.485-.469-.485-.61-.485.298-.5.954-.625 1.313-.625.422 0 .969.22.969 1.11 0 .125-.031.703-.281 1.14-.297.485-.64.516-.89.516a3.29 3.29 0 0 1-.392.031c-.078.016-.14.031-.14.125 0 .11.062.11.234.11h.438c.812 0 1.187.671 1.187 1.656 0 1.36-.687 1.64-1.125 1.64-.437 0-1.187-.171-1.531-.75.344.047.656-.171.656-.546a.537.537 0 0 0-.547-.563c-.25 0-.562.14-.562.578C.422-.437 1.344.22 2.437.22c1.22 0 2.126-.906 2.126-1.922 0-.813-.641-1.594-1.672-1.813z"/></symbol><symbol id="d" overflow="visible"><path d="M1.313-3.266v-.25c0-2.515 1.234-2.875 1.75-2.875.234 0 .656.063.874.407-.156 0-.546 0-.546.437 0 .313.234.469.453.469.156 0 .469-.094.469-.484 0-.594-.438-1.079-1.266-1.079C1.766-6.64.422-5.359.422-3.156.422-.484 1.578.219 2.5.219c1.11 0 2.063-.938 2.063-2.25 0-1.266-.891-2.219-2-2.219-.672 0-1.047.5-1.25.984zM2.5-.062c-.625 0-.922-.594-.984-.75-.188-.47-.188-1.266-.188-1.438 0-.781.328-1.781 1.219-1.781.172 0 .625 0 .937.625.172.36.172.875.172 1.36 0 .483 0 .983-.172 1.343-.296.594-.75.64-.984.64z"/></symbol></defs><path style="marker:none" color="#000" fill="#fff" stroke="#fff" stroke-width="6" stroke-linecap="round" overflow="visible" d="M34.788 346.522h674.518v327.319H34.788z"/><g transform="translate(-342.71 220.752) scale(4.62289)" fill="green"><use height="1052.362" width="744.094" xlink:href="#textext-082fa4b4-3" x="231.736" y="134.765"/><use height="1052.362" width="744.094" xlink:href="#textext-082fa4b4-3" x="231.736" y="134.765"/><g ns0:text="$\\Delta \\vec{r} = \\vec{r}_{\\rm{2}} - \\vec{r}_{\\rm{1}} $" ns0:preamble="/home/waldgeist/data/sphinx/test.tex"><use height="1052.362" width="744.094" xlink:href="#textext-082fa4b4-0" x="223.432" y="134.765"/><use height="1052.362" width="744.094" xlink:href="#textext-082fa4b4-2" x="231.417" y="134.765"/><use height="1052.362" width="744.094" xlink:href="#textext-082fa4b4-3" x="231.736" y="134.765"/><use height="1052.362" width="744.094" xlink:href="#textext-082fa4b4-1" x="239.273" y="134.765"/><use height="1052.362" width="744.094" xlink:href="#textext-082fa4b4-2" x="249.472" y="134.765"/><use height="1052.362" width="744.094" xlink:href="#textext-082fa4b4-3" x="249.791" y="134.765"/><use height="1052.362" width="744.094" xlink:href="#textext-082fa4b4-4" x="254.284" y="136.259"/><use height="1052.362" width="744.094" xlink:href="#textext-082fa4b4-6" x="260.967" y="134.765"/><use height="1052.362" width="744.094" xlink:href="#textext-082fa4b4-2" x="270.612" y="134.765"/><use height="1052.362" width="744.094" xlink:href="#textext-082fa4b4-3" x="270.931" y="134.765"/><use height="1052.362" width="744.094" xlink:href="#textext-082fa4b4-5" x="275.425" y="136.259"/></g><g ns0:text="$\\Delta \\vec{r} = \\vec{r}_{\\rm{2}} - \\vec{r}_{\\rm{1}} $" ns0:preamble="/home/waldgeist/data/sphinx/test.tex"><use height="1052.362" width="744.094" xlink:href="#textext-082fa4b4-0" x="223.432" y="134.765"/><use height="1052.362" width="744.094" xlink:href="#textext-082fa4b4-2" x="231.417" y="134.765"/><use height="1052.362" width="744.094" xlink:href="#textext-082fa4b4-3" x="231.736" y="134.765"/><use height="1052.362" width="744.094" xlink:href="#textext-082fa4b4-1" x="239.273" y="134.765"/><use height="1052.362" width="744.094" xlink:href="#textext-082fa4b4-2" x="249.472" y="134.765"/><use height="1052.362" width="744.094" xlink:href="#textext-082fa4b4-3" x="249.791" y="134.765"/><use height="1052.362" width="744.094" xlink:href="#textext-082fa4b4-4" x="254.284" y="136.259"/><use height="1052.362" width="744.094" xlink:href="#textext-082fa4b4-6" x="260.967" y="134.765"/><use height="1052.362" width="744.094" xlink:href="#textext-082fa4b4-2" x="270.612" y="134.765"/><use height="1052.362" width="744.094" xlink:href="#textext-082fa4b4-3" x="270.931" y="134.765"/><use height="1052.362" width="744.094" xlink:href="#textext-082fa4b4-5" x="275.425" y="136.259"/></g><g ns0:text="$\\Delta \\vec{r} = \\vec{r}_{\\rm{2}} - \\vec{r}_{\\rm{1}} $" ns0:preamble="/home/waldgeist/data/sphinx/test.tex"><use height="1052.362" width="744.094" xlink:href="#textext-082fa4b4-0" x="223.432" y="134.765"/><use height="1052.362" width="744.094" xlink:href="#textext-082fa4b4-2" x="231.417" y="134.765"/><use height="1052.362" width="744.094" xlink:href="#textext-082fa4b4-3" x="231.736" y="134.765"/><use height="1052.362" width="744.094" xlink:href="#textext-082fa4b4-1" x="239.273" y="134.765"/><use height="1052.362" width="744.094" xlink:href="#textext-082fa4b4-2" x="249.472" y="134.765"/><use height="1052.362" width="744.094" xlink:href="#textext-082fa4b4-3" x="249.791" y="134.765"/><use height="1052.362" width="744.094" xlink:href="#textext-082fa4b4-4" x="254.284" y="136.259"/><use height="1052.362" width="744.094" xlink:href="#textext-082fa4b4-6" x="260.967" y="134.765"/><use height="1052.362" width="744.094" xlink:href="#textext-082fa4b4-2" x="270.612" y="134.765"/><use height="1052.362" width="744.094" xlink:href="#textext-082fa4b4-3" x="270.931" y="134.765"/><use height="1052.362" width="744.094" xlink:href="#textext-082fa4b4-5" x="275.425" y="136.259"/></g></g><g transform="translate(271.469 1484.814) scale(4.62289)" fill="green"><use height="1052.362" width="744.094" xlink:href="#textext-082fa4b4-3" x="231.736" y="134.765"/><use height="1052.362" width="744.094" xlink:href="#textext-082fa4b4-3" x="231.736" y="134.765"/><g ns0:text="$\\Delta \\vec{r} = \\vec{r}_{\\rm{2}} - \\vec{r}_{\\rm{1}} $" ns0:preamble="/home/waldgeist/data/sphinx/test.tex"><use height="1052.362" width="744.094" xlink:href="#textext-082fa4b4-0" x="223.432" y="134.765"/><use height="1052.362" width="744.094" xlink:href="#textext-082fa4b4-2" x="231.417" y="134.765"/><use height="1052.362" width="744.094" xlink:href="#textext-082fa4b4-3" x="231.736" y="134.765"/><use height="1052.362" width="744.094" xlink:href="#textext-082fa4b4-1" x="239.273" y="134.765"/><use height="1052.362" width="744.094" xlink:href="#textext-082fa4b4-2" x="249.472" y="134.765"/><use height="1052.362" width="744.094" xlink:href="#textext-082fa4b4-3" x="249.791" y="134.765"/><use height="1052.362" width="744.094" xlink:href="#textext-082fa4b4-4" x="254.284" y="136.259"/><use height="1052.362" width="744.094" xlink:href="#textext-082fa4b4-6" x="260.967" y="134.765"/><use height="1052.362" width="744.094" xlink:href="#textext-082fa4b4-2" x="270.612" y="134.765"/><use height="1052.362" width="744.094" xlink:href="#textext-082fa4b4-3" x="270.931" y="134.765"/><use height="1052.362" width="744.094" xlink:href="#textext-082fa4b4-5" x="275.425" y="136.259"/></g><g ns0:text="$\\Delta \\vec{r} = \\vec{r}_{\\rm{2}} - \\vec{r}_{\\rm{1}} $" ns0:preamble="/home/waldgeist/data/sphinx/test.tex"><use height="1052.362" width="744.094" xlink:href="#textext-082fa4b4-0" x="223.432" y="134.765"/><use height="1052.362" width="744.094" xlink:href="#textext-082fa4b4-2" x="231.417" y="134.765"/><use height="1052.362" width="744.094" xlink:href="#textext-082fa4b4-3" x="231.736" y="134.765"/><use height="1052.362" width="744.094" xlink:href="#textext-082fa4b4-1" x="239.273" y="134.765"/><use height="1052.362" width="744.094" xlink:href="#textext-082fa4b4-2" x="249.472" y="134.765"/><use height="1052.362" width="744.094" xlink:href="#textext-082fa4b4-3" x="249.791" y="134.765"/><use height="1052.362" width="744.094" xlink:href="#textext-082fa4b4-4" x="254.284" y="136.259"/><use height="1052.362" width="744.094" xlink:href="#textext-082fa4b4-6" x="260.967" y="134.765"/><use height="1052.362" width="744.094" xlink:href="#textext-082fa4b4-2" x="270.612" y="134.765"/><use height="1052.362" width="744.094" xlink:href="#textext-082fa4b4-3" x="270.931" y="134.765"/><use height="1052.362" width="744.094" xlink:href="#textext-082fa4b4-5" x="275.425" y="136.259"/></g><g ns0:text="$\\Delta \\vec{r} = \\vec{r}_{\\rm{2}} - \\vec{r}_{\\rm{1}} $" ns0:preamble="/home/waldgeist/data/sphinx/test.tex"><use height="1052.362" width="744.094" xlink:href="#textext-082fa4b4-0" x="223.432" y="134.765"/><use height="1052.362" width="744.094" xlink:href="#textext-082fa4b4-2" x="231.417" y="134.765"/><use height="1052.362" width="744.094" xlink:href="#textext-082fa4b4-3" x="231.736" y="134.765"/><use height="1052.362" width="744.094" xlink:href="#textext-082fa4b4-1" x="239.273" y="134.765"/><use height="1052.362" width="744.094" xlink:href="#textext-082fa4b4-2" x="249.472" y="134.765"/><use height="1052.362" width="744.094" xlink:href="#textext-082fa4b4-3" x="249.791" y="134.765"/><use height="1052.362" width="744.094" xlink:href="#textext-082fa4b4-4" x="254.284" y="136.259"/><use height="1052.362" width="744.094" xlink:href="#textext-082fa4b4-6" x="260.967" y="134.765"/><use height="1052.362" width="744.094" xlink:href="#textext-082fa4b4-2" x="270.612" y="134.765"/><use height="1052.362" width="744.094" xlink:href="#textext-082fa4b4-3" x="270.931" y="134.765"/><use height="1052.362" width="744.094" xlink:href="#textext-082fa4b4-5" x="275.425" y="136.259"/></g></g><path style="marker:none" color="#000" fill="#ccc" stroke="#4d4d4d" stroke-width="2" stroke-linecap="round" stroke-linejoin="round" overflow="visible" d="M148.146 559.714h452.147v86.062H148.146z"/><path transform="matrix(3.19816 0 0 -3.90356 -862.04 2061.442)" d="M342.825 382.85c0-14.694 19.274-26.606 43.05-26.606 23.775 0 43.049 11.912 43.049 26.606" style="marker:none" color="#000" fill="none" stroke="navy" stroke-width=".566" stroke-linecap="round" stroke-linejoin="round" overflow="visible"/><path style="marker:none" d="M85.922 557.226v116.125h572.25V557.226zm49.281-2.45l478.032 2.169-1.309 88.83H135.203z" color="#000" fill="#fff" stroke="#fff" stroke-width="2" stroke-linecap="round" stroke-linejoin="round" overflow="visible"/><g color="#000" fill="none" stroke="navy" stroke-linecap="round" stroke-linejoin="round"><path style="marker:none" d="M342.825 382.85c0-14.694 19.274-26.606 43.05-26.606 23.775 0 43.049 11.912 43.049 26.606" transform="matrix(.20156 .11637 -.14204 .24602 395.602 265.532)" stroke-width="7.778" overflow="visible"/><path transform="rotate(30 80.843 698.077) scale(.5882 .71793)" d="M342.825 382.85c0-14.694 19.274-26.606 43.05-26.606 23.775 0 43.049 11.912 43.049 26.606" style="marker:none" stroke-width="3.078" overflow="visible"/><path style="marker:none" d="M342.825 382.85c0-14.694 19.274-26.606 43.05-26.606 23.775 0 43.049 11.912 43.049 26.606" transform="matrix(.82044 .47368 -.57816 1.0014 323.798 -161.606)" stroke-width="1.911" overflow="visible"/><g><path style="marker:none" d="M342.825 382.85c0-14.694 19.274-26.606 43.05-26.606 23.775 0 43.049 11.912 43.049 26.606" transform="matrix(.20156 -.11637 .14204 .24602 192.936 355.343)" stroke-width="7.778" overflow="visible"/><path transform="rotate(-30 518.18 156.646) scale(.5882 .71793)" d="M342.825 382.85c0-14.694 19.274-26.606 43.05-26.606 23.775 0 43.049 11.912 43.049 26.606" style="marker:none" stroke-width="3.078" overflow="visible"/><path style="marker:none" d="M342.825 382.85c0-14.694 19.274-26.606 43.05-26.606 23.775 0 43.049 11.912 43.049 26.606" transform="matrix(.82044 -.47368 .57816 1.0014 -212.879 203.958)" stroke-width="1.911" overflow="visible"/></g></g><g fill="gray" stroke="#4d4d4d" color="#000" stroke-width="2" stroke-linecap="round" stroke-linejoin="round"><path style="marker:none" overflow="visible" d="M365.912 415.817h12.245v5.369h-12.245z"/><path style="marker:none" fill="#ccc" overflow="visible" d="M370.826 421.88h2.417v5.928h-2.417z"/></g><path d="M372.034 435.657v4.838M347.925 442.117l2.419 4.19M330.277 459.766l4.19 2.418M323.817 483.874h4.837M330.277 507.983l4.19-2.42M347.925 525.631l2.419-4.19M372.034 532.091v-4.837M396.142 525.631l-2.419-4.19M413.791 507.983l-4.19-2.42M420.25 483.874h-4.837M413.791 459.766l-4.19 2.418M396.142 442.117l-2.419 4.19" fill="none" stroke="#000" stroke-width="3" stroke-linecap="round"/><g stroke="gray" fill="none" stroke-linecap="round"><path d="M366.994 435.921l.505 4.811M362.009 436.71l1.006 4.733M357.134 438.017l1.495 4.6M352.422 439.826l1.968 4.42M343.692 444.866l2.844 3.913M339.77 448.042l3.237 3.595M336.201 451.61l3.596 3.238M333.025 455.533l3.914 2.843M327.985 464.263l4.42 1.967M326.177 468.974l4.6 1.495M324.87 473.85l4.732 1.005M324.08 478.834l4.812.506M324.08 488.914l4.812-.505M324.87 493.9l4.732-1.007M326.177 498.774l4.6-1.495M327.985 503.486l4.42-1.968M333.025 512.215l3.914-2.843M336.202 516.138l3.595-3.237M339.77 519.706l3.237-3.595M343.693 522.883l2.843-3.914M352.422 527.923l1.968-4.42M357.134 529.731l1.495-4.6M362.009 531.038l1.006-4.732M366.994 531.827l.505-4.811M377.074 531.827l-.506-4.811M382.059 531.038l-1.006-4.732M386.934 529.731l-1.495-4.6M391.645 527.923l-1.967-4.42M400.375 522.883l-2.843-3.914M404.297 519.706l-3.237-3.595M407.866 516.138l-3.595-3.237M411.042 512.215l-3.914-2.843M416.082 503.486l-4.42-1.968M417.891 498.774l-4.6-1.495M419.197 493.899l-4.732-1.006M419.987 488.914l-4.811-.505M419.987 478.834l-4.811.506M419.197 473.85l-4.732 1.005M417.891 468.974l-4.6 1.495M416.082 464.262l-4.42 1.968M411.042 455.533l-3.913 2.843M407.866 451.61l-3.595 3.238M404.297 448.042l-3.237 3.595M400.375 444.866l-2.843 3.913M391.645 439.826l-1.967 4.42M386.934 438.017l-1.495 4.6M382.059 436.71l-1.006 4.733M377.074 435.921l-.506 4.811"/></g><path d="M348.348 483.874h23.686" fill="#4d4d4d" stroke="#4d4d4d" stroke-width="4"/><path style="marker:none" d="M372.034 427.807c-30.966 0-56.045 25.08-56.045 56.044 0 30.965 25.08 56.076 56.045 56.076 30.965 0 56.075-25.11 56.075-56.076 0-30.965-25.11-56.044-56.075-56.044zm0 6.966c27.104 0 49.078 21.974 49.078 49.078 0 27.105-21.974 49.079-49.078 49.079-27.105 0-49.079-21.974-49.079-49.079 0-27.104 21.974-49.078 49.079-49.078z" color="#000" fill="#ccc" stroke="#4d4d4d" stroke-width="2" stroke-linecap="round" stroke-linejoin="round" overflow="visible"/><g transform="matrix(1.502 0 0 1.502 -2.397 286.28)" ns0:text="9" ns0:preamble="/home/waldgeist/sandbox/homepage/inkscape-preamble.tex"><defs><symbol overflow="visible" id="b"><path d="M3.656-3.172v.328c0 2.328-1.031 2.781-1.61 2.781-.171 0-.718-.015-.983-.359.437 0 .515-.281.515-.453 0-.313-.234-.453-.453-.453-.156 0-.453.078-.453.469 0 .671.531 1.078 1.375 1.078 1.297 0 2.515-1.36 2.515-3.5 0-2.688-1.156-3.36-2.046-3.36-.547 0-1.032.188-1.454.625-.421.454-.64.875-.64 1.625 0 1.235.875 2.22 1.984 2.22.61 0 1.016-.423 1.25-1zm-1.234.766c-.156 0-.625 0-.922-.625-.188-.375-.188-.86-.188-1.36 0-.53 0-1 .22-1.375.265-.5.64-.625.984-.625.468 0 .796.344.968.782.11.328.157.953.157 1.406 0 .828-.344 1.797-1.22 1.797z"/></symbol></defs><use height="1052.362" width="744.094" xlink:href="#b" x="223.432" y="134.765"/></g><use height="1052.362" width="744.094" y="134.765" x="223.432" xlink:href="#c" transform="matrix(1.502 0 0 1.502 67.791 286.28)"/><use height="1052.362" width="744.094" xlink:href="#d" x="223.432" y="134.765" transform="matrix(1.502 0 0 1.502 32.697 319.063)"/><g transform="matrix(1.502 0 0 1.502 62 269.221)" ns0:preamble="/home/waldgeist/sandbox/homepage/inkscape-preamble.tex" ns0:text="2"><defs><symbol id="e" overflow="visible"><path d="M1.266-.766l1.062-1.03c1.547-1.376 2.14-1.907 2.14-2.907 0-1.14-.89-1.938-2.109-1.938C1.234-6.64.5-5.719.5-4.828c0 .547.5.547.531.547.172 0 .516-.11.516-.532a.513.513 0 0 0-.531-.515c-.079 0-.094 0-.125.016.218-.657.765-1.016 1.343-1.016.907 0 1.329.812 1.329 1.625 0 .797-.485 1.578-1.047 2.203L.609-.375C.5-.265.5-.235.5 0h3.703l.266-1.734h-.235C4.172-1.438 4.11-1 4-.844c-.063.078-.719.078-.938.078z"/></symbol></defs><use height="1052.362" width="744.094" y="134.765" x="223.432" xlink:href="#e"/></g><g transform="matrix(1.502 0 0 1.502 62 303.669)" ns0:preamble="/home/waldgeist/sandbox/homepage/inkscape-preamble.tex" ns0:text="4"><defs><symbol id="f" overflow="visible"><path d="M2.938-1.64v.859c0 .36-.032.469-.766.469h-.203V0c.406-.031.922-.031 1.343-.031.422 0 .938 0 1.36.031v-.313h-.219c-.734 0-.75-.109-.75-.468v-.86h.985v-.312h-.985v-4.531c0-.204 0-.266-.172-.266-.078 0-.11 0-.187.125L.28-1.953v.312zm.046-.313H.563l2.421-3.719z"/></symbol></defs><use height="1052.362" width="744.094" y="134.765" x="223.432" xlink:href="#f"/></g><g transform="matrix(1.502 0 0 1.502 3.207 303.423)" ns0:preamble="/home/waldgeist/sandbox/homepage/inkscape-preamble.tex" ns0:text="8"><defs><symbol id="g" overflow="visible"><path d="M1.625-4.563c-.453-.296-.5-.625-.5-.796 0-.61.656-1.032 1.36-1.032.718 0 1.359.516 1.359 1.235 0 .578-.39 1.047-.985 1.39zm1.453.954c.719-.375 1.203-.891 1.203-1.547 0-.922-.875-1.485-1.781-1.485-1 0-1.813.735-1.813 1.672 0 .172.016.625.438 1.094.11.11.484.36.734.531C1.281-3.047.422-2.5.422-1.5.422-.453 1.438.219 2.484.219c1.125 0 2.079-.828 2.079-1.89 0-.36-.11-.813-.5-1.235-.188-.203-.344-.297-.985-.703zm-1 .421l1.235.782c.28.187.75.484.75 1.094 0 .734-.75 1.25-1.563 1.25C1.64-.063.922-.672.922-1.5c0-.578.312-1.219 1.156-1.688z"/></symbol></defs><use height="1052.362" width="744.094" y="134.765" x="223.432" xlink:href="#g"/></g><g ns0:text="10" ns0:preamble="/home/waldgeist/sandbox/homepage/inkscape-preamble.tex" transform="matrix(1.502 0 0 1.502 -.897 269.886)"><defs><symbol overflow="visible" id="h"><path d="M2.938-6.375c0-.25 0-.266-.235-.266C2.078-6 1.203-6 .891-6v.313c.203 0 .78 0 1.296-.266v5.172c0 .36-.03.469-.921.469H.953V0c.344-.031 1.203-.031 1.61-.031.39 0 1.265 0 1.609.031v-.313h-.313c-.906 0-.921-.109-.921-.468z"/></symbol><symbol overflow="visible" id="i"><path d="M4.578-3.188c0-.796-.047-1.593-.39-2.328C3.733-6.484 2.905-6.64 2.5-6.64c-.61 0-1.328.266-1.75 1.188-.313.687-.36 1.469-.36 2.266 0 .75.032 1.64.454 2.406a1.83 1.83 0 0 0 1.64 1c.532 0 1.297-.203 1.735-1.157.312-.687.36-1.468.36-2.25zM2.484 0c-.39 0-.984-.25-1.156-1.203-.11-.594-.11-1.516-.11-2.11 0-.64 0-1.296.079-1.828.187-1.187.937-1.28 1.187-1.28.329 0 .985.187 1.172 1.171.11.563.11 1.313.11 1.938 0 .75 0 1.421-.11 2.062C3.5-.297 2.937 0 2.484 0z"/></symbol></defs><use height="1052.362" width="744.094" xlink:href="#h" x="223.432" y="134.765"/><use height="1052.362" width="744.094" xlink:href="#i" x="228.413" y="134.765"/></g><g ns0:text="5" ns0:preamble="/home/waldgeist/sandbox/homepage/inkscape-preamble.tex" transform="matrix(1.502 0 0 1.502 50.625 315.064)"><defs><symbol overflow="visible" id="j"><path d="M4.469-2c0-1.188-.813-2.188-1.89-2.188-.47 0-.907.157-1.267.516v-1.953c.204.063.532.125.844.125 1.235 0 1.938-.906 1.938-1.031 0-.063-.032-.11-.11-.11 0 0-.03 0-.078.032a3.22 3.22 0 0 1-1.36.296c-.39 0-.858-.078-1.327-.28-.078-.032-.094-.032-.11-.032C1-6.625 1-6.547 1-6.391v2.954c0 .171 0 .25.14.25.079 0 .094-.016.141-.079.11-.156.469-.703 1.282-.703.515 0 .765.453.843.64.156.376.188.75.188 1.25 0 .36 0 .954-.25 1.376-.235.39-.61.64-1.063.64-.719 0-1.297-.53-1.469-1.109.032 0 .063.016.172.016.329 0 .5-.25.5-.485 0-.25-.171-.5-.5-.5-.14 0-.484.079-.484.532C.5-.75 1.188.219 2.297.219 3.453.219 4.469-.734 4.469-2z"/></symbol></defs><use height="1052.362" width="744.094" xlink:href="#j" x="223.432" y="134.765"/></g><g ns0:text="1" ns0:preamble="/home/waldgeist/sandbox/homepage/inkscape-preamble.tex" transform="matrix(1.502 0 0 1.502 50.555 257.498)"><defs><symbol overflow="visible" id="k"><path d="M2.938-6.375c0-.25 0-.266-.235-.266C2.078-6 1.203-6 .891-6v.313c.203 0 .78 0 1.296-.266v5.172c0 .36-.03.469-.921.469H.953V0c.344-.031 1.203-.031 1.61-.031.39 0 1.265 0 1.609.031v-.313h-.313c-.906 0-.921-.109-.921-.468z"/></symbol></defs><use height="1052.362" width="744.094" xlink:href="#k" x="223.432" y="134.765"/></g><g ns0:text="7" ns0:preamble="/home/waldgeist/sandbox/homepage/inkscape-preamble.tex" transform="matrix(1.502 0 0 1.502 14.878 314.508)"><defs><symbol overflow="visible" id="l"><path d="M4.75-6.078c.078-.11.078-.125.078-.344H2.406c-1.203 0-1.234-.125-1.265-.312H.89L.562-4.688h.25c.032-.156.11-.78.25-.906.063-.062.844-.062.97-.062h2.062c-.11.156-.89 1.25-1.11 1.578C2.078-2.734 1.75-1.344 1.75-.328c0 .094 0 .547.469.547.453 0 .453-.453.453-.547v-.516c0-.547.031-1.094.11-1.625.046-.234.171-1.094.624-1.703z"/></symbol></defs><use height="1052.362" width="744.094" xlink:href="#l" x="223.432" y="134.765"/></g><g transform="matrix(1.502 0 0 1.502 11.384 257.498)" ns0:preamble="/home/waldgeist/sandbox/homepage/inkscape-preamble.tex" ns0:text="11"><defs><symbol id="m" overflow="visible"><path d="M2.938-6.375c0-.25 0-.266-.235-.266C2.078-6 1.203-6 .891-6v.313c.203 0 .78 0 1.296-.266v5.172c0 .36-.03.469-.921.469H.953V0c.344-.031 1.203-.031 1.61-.031.39 0 1.265 0 1.609.031v-.313h-.313c-.906 0-.921-.109-.921-.468z"/></symbol></defs><use height="1052.362" width="744.094" y="134.765" x="223.432" xlink:href="#m"/><use height="1052.362" width="744.094" y="134.765" x="228.413" xlink:href="#m"/></g><g color="#000" fill="#ccc" stroke="#4d4d4d" stroke-linecap="round" stroke-linejoin="round"><path style="marker:none" d="M357.945 499.317c9.153-13.225 45.169-50.07 45.169-50.07l.115.103s-32.888 39.671-45.08 50.151c-.385.33-.493.233-.204-.184z" overflow="visible"/><path d="M361.447 492.844c-2.523 2.827-4.388 5.358-4.076 6.423l-.02.023.027.025.416.374.416.375.027.025.021-.024c2.496.456 11.485-11.251 14.663-15.392l-.887-.799-.887-.799c-2.13 2.021-6.456 6.135-9.7 9.77z" style="marker:none" overflow="visible"/></g><g ns0:text="12" ns0:preamble="/home/waldgeist/sandbox/homepage/inkscape-preamble.tex" transform="matrix(1.502 0 0 1.502 28.675 250.472)"><defs><symbol overflow="visible" id="n"><path d="M2.938-6.375c0-.25 0-.266-.235-.266C2.078-6 1.203-6 .891-6v.313c.203 0 .78 0 1.296-.266v5.172c0 .36-.03.469-.921.469H.953V0c.344-.031 1.203-.031 1.61-.031.39 0 1.265 0 1.609.031v-.313h-.313c-.906 0-.921-.109-.921-.468z"/></symbol><symbol overflow="visible" id="o"><path d="M1.266-.766l1.062-1.03c1.547-1.376 2.14-1.907 2.14-2.907 0-1.14-.89-1.938-2.109-1.938C1.234-6.64.5-5.719.5-4.828c0 .547.5.547.531.547.172 0 .516-.11.516-.532a.513.513 0 0 0-.531-.515c-.079 0-.094 0-.125.016.218-.657.765-1.016 1.343-1.016.907 0 1.329.812 1.329 1.625 0 .797-.485 1.578-1.047 2.203L.609-.375C.5-.265.5-.235.5 0h3.703l.266-1.734h-.235C4.172-1.438 4.11-1 4-.844c-.063.078-.719.078-.938.078z"/></symbol></defs><use height="1052.362" width="744.094" xlink:href="#n" x="223.432" y="134.765"/><use height="1052.362" width="744.094" xlink:href="#o" x="228.413" y="134.765"/></g><g fill="#4d4d4d" stroke="#4d4d4d" stroke-linecap="round" stroke-linejoin="round"><path d="M341.67 483.874h10.959v-1.507c-1.43.012-2.783-.846-4.144-1.395-2.066 1.481-4.472 2.112-6.815 2.902M341.67 483.874h10.959v1.508c-1.43-.012-2.783.846-4.144 1.394-2.066-1.48-4.472-2.112-6.815-2.902"/></g><g fill="#4d4d4d" stroke="#4d4d4d"><g stroke-width="1.009" stroke-linecap="round" stroke-linejoin="round"><path d="M440.254 705.57h10.959v-1.508c-1.43.012-2.783-.846-4.144-1.395-2.066 1.481-4.472 2.112-6.815 2.902" transform="matrix(0 1.4706 -.66831 0 843.575 -206.902)"/><path d="M440.254 705.57h10.959v1.507c-1.43-.012-2.783.846-4.144 1.394-2.066-1.48-4.472-2.112-6.815-2.902" transform="matrix(0 1.4706 -.66831 0 843.575 -206.902)"/></g><path d="M372.034 451.453v32.421" stroke-width="3"/></g><g fill="#b3b3b3" color="#000" stroke="#4d4d4d" stroke-width="2" stroke-linecap="round" stroke-linejoin="round"><path d="M396.772 534.288s1.375 5.2 2.758 7.464c1.647 2.696 6.411 6.98 6.411 6.98 1.676 1.734.848 4.5 1.635 6.02 1.131 1.99 3.696 2.665 5.678 1.521 1.982-1.144 2.89-3.843 1.521-5.677-1.645-1.972-3.072-2.572-4.222-4.563 0 0-1.347-6.235-2.85-9-1.267-2.328-5.059-6.136-5.059-6.136l-5.872 3.39zM347.296 534.288s-1.375 5.2-2.758 7.464c-1.647 2.696-6.411 6.98-6.411 6.98-1.676 1.734-.849 4.5-1.636 6.02-1.13 1.99-3.695 2.665-5.677 1.521-1.982-1.144-2.89-3.843-1.522-5.677 1.645-1.972 3.073-2.572 4.222-4.563 0 0 1.347-6.235 2.85-9 1.267-2.328 5.06-6.136 5.06-6.136l5.872 3.39z" style="marker:none" overflow="visible"/></g><g fill="#b3b3b3" color="#000" stroke="#4d4d4d" stroke-width="2" stroke-linecap="round" stroke-linejoin="round"><path style="marker:none" overflow="visible" d="M402.908 426.79l3.222 1.86-4.413 7.642-3.222-1.86z"/><path d="M414.12 410.465c-1.686-.696-3.849 0-4.744 1.591-4.3-2.626-9.137-3.697-14.1-3.702-5.047-.006-9.92 1.99-14.094 9.472 5.918 5.116 13.625 9.625 21.13 13.715.141.086.291.163.433.25 7.294 4.454 15.026 8.859 22.415 11.426 4.393-7.357 3.686-12.574 1.157-16.942-2.486-4.295-5.806-7.934-10.23-10.344.978-1.652.356-4.016-1.264-5.06-.132-.096-.29-.176-.433-.25-.089-.047-.178-.118-.27-.156z" style="marker:none" overflow="visible"/></g><g fill="#b3b3b3" color="#000" stroke="#4d4d4d" stroke-width="2" stroke-linecap="round" stroke-linejoin="round"><path style="marker:none" overflow="visible" d="M341.187 426.79l-3.222 1.86 4.412 7.642 3.222-1.86z"/><path style="marker:none" d="M329.975 410.465c1.685-.696 3.848 0 4.744 1.591 4.299-2.626 9.137-3.697 14.1-3.702 5.047-.006 9.919 1.99 14.093 9.472-5.918 5.116-13.625 9.625-21.13 13.715-.141.086-.291.163-.433.25-7.294 4.454-15.026 8.859-22.415 11.426-4.392-7.357-3.685-12.574-1.157-16.942 2.487-4.295 5.806-7.934 10.23-10.344-.978-1.652-.356-4.016 1.264-5.06.133-.096.29-.176.433-.25.09-.047.178-.118.27-.156z" overflow="visible"/></g><path d="M376.12 483.874a4.086 4.086 0 1 1-8.173 0 4.086 4.086 0 0 1 8.173 0z" style="marker:none" color="#000" fill="#fff" stroke="#4d4d4d" stroke-width=".9999295599999999" stroke-linecap="round" stroke-linejoin="round" overflow="visible"/><path style="marker:none" d="M372.805 483.874a.771.771 0 1 1-1.542 0 .771.771 0 0 1 1.542 0z" color="#000" fill="#4d4d4d" stroke="#4d4d4d" stroke-width="1.0000200000000001" stroke-linecap="round" stroke-linejoin="round" overflow="visible"/><path style="marker:none" d="M342.825 382.85a43.05 26.606 0 0 1 86.099 0" transform="matrix(.52381 0 0 -.63934 169.922 811.736)" color="#000" fill="none" stroke="navy" stroke-width="3.456" stroke-linecap="round" stroke-linejoin="round" overflow="visible"/><path transform="matrix(1.32378 0 0 -1.61576 -138.764 1185.555)" d="M342.825 382.85a43.05 26.606 0 0 1 86.099 0" style="marker:none" color="#000" fill="none" stroke="navy" stroke-width="1.368" stroke-linecap="round" stroke-linejoin="round" overflow="visible"/><path style="marker:none" d="M342.825 382.85a43.05 26.606 0 0 1 86.099 0" transform="matrix(2.1321 0 0 -2.60237 -450.678 1563.447)" color="#000" fill="none" stroke="navy" stroke-width=".849" stroke-linecap="round" stroke-linejoin="round" overflow="visible"/><path d="M600.293 644.611H148.146" fill="none" stroke="#4d4d4d" stroke-width="2" stroke-linecap="round" stroke-linejoin="round"/></svg>