<svg xmlns:ns0="http://www.iki.fi/pav/software/textext/" xmlns="http://www.w3.org/2000/svg" xmlns:xlink="http://www.w3.org/1999/xlink" width="210mm" height="297mm"><title>Schweredruck und Auftriebskraft</title><defs><marker orient="auto" id="n" overflow="visible"><path d="M8.719 4.034L-2.207.016 8.719-4.002c-1.746 2.372-1.736 5.618 0 8.036z" transform="scale(.6)" fill-rule="evenodd" stroke-width=".625" stroke-linejoin="round"/></marker><marker id="i" orient="auto" overflow="visible"><path transform="scale(-.6)" d="M8.719 4.034L-2.207.016 8.719-4.002c-1.746 2.372-1.736 5.618 0 8.036z" fill-rule="evenodd" stroke-width=".625" stroke-linejoin="round"/></marker><linearGradient id="d"><stop offset="0" stop-opacity="0"/><stop offset="1" stop-color="#fff"/></linearGradient><linearGradient id="e"><stop offset="0" stop-color="#fff"/><stop offset="1" stop-color="#fff" stop-opacity="0"/></linearGradient><linearGradient id="f"><stop offset="0" stop-color="#1a1a1a" stop-opacity=".828"/><stop offset="1" stop-color="#fff"/></linearGradient><linearGradient id="a"><stop offset="0" stop-opacity="0"/><stop offset="1" stop-color="#fff"/></linearGradient><linearGradient id="b"><stop offset="0" stop-color="#ebebeb"/><stop offset="1" stop-color="#fff" stop-opacity="0"/></linearGradient><linearGradient id="c"><stop offset="0" stop-color="#0e0e0e" stop-opacity=".746"/><stop offset="1" stop-color="#fff"/></linearGradient><pattern patternUnits="userSpaceOnUse" width="30.066" height="5.181" id="g"><path d="M7.597.061C5.079-.187 2.656.302-.01 1.788v1.273c2.783-1.63 5.183-2.009 7.482-1.781 2.298.228 4.497 1.081 6.781 1.938 4.567 1.713 9.551 3.458 15.813-.157l-.004-1.273c-6.44 3.709-10.816 1.982-15.371.273-2.278-.854-4.576-1.75-7.094-2z"/></pattern><pattern patternTransform="translate(.25)" id="h" xlink:href="#g"/></defs><path style="marker:none" color="#000" fill="#fff" stroke="#fff" stroke-width="3.399" stroke-linecap="round" stroke-linejoin="bevel" overflow="visible" d="M60.933 264.403h622.228V787.96H60.933z"/><path style="marker:none" d="M543.169 371.123H683.16" color="#000" fill="none" stroke="#ccc" stroke-width="1.5" stroke-linecap="round" stroke-linejoin="round" overflow="visible"/><path style="marker:none" color="#000" fill="#afc6e9" stroke="#87aade" stroke-width="3" stroke-linecap="round" stroke-linejoin="bevel" overflow="visible" d="M200.926 371.123h342.243v377.07H200.926z"/><path d="M543.169 462.967H683.16" style="marker:none" color="#000" fill="none" stroke="#ccc" stroke-width="1.5" stroke-linecap="round" stroke-linejoin="round" overflow="visible"/><path d="M200.866 748.308V303.166M543.228 749.196V304.054" fill="none" stroke="#9b9c9f" stroke-width="3" stroke-linecap="round"/><path style="marker:none" d="M543.169 613.03H683.16" color="#000" fill="none" stroke="#ccc" stroke-width="1.5" stroke-linecap="round" stroke-linejoin="round" overflow="visible"/><path style="marker:none" color="#000" fill="#d38d5f" stroke="#a05a2c" stroke-width="3" stroke-linecap="round" stroke-linejoin="bevel" overflow="visible" d="M317.846 462.967h107.25V613.03h-107.25z"/><path d="M200.926 748.194l342.243.942" fill="none" stroke="#9b9c9f" stroke-width="3" stroke-linecap="round"/><path style="marker:none" d="M371.442 423.064v31.59M371.5 698.596v-76.13" color="#000" fill="none" stroke="#a00" stroke-width="3" stroke-linecap="round" stroke-linejoin="round" marker-end="url(#i)" overflow="visible"/><g transform="translate(-1.606)" color="#000" fill="none" stroke="#a00" stroke-width="3" stroke-linecap="round" stroke-linejoin="round" marker-end="url(#i)"><path style="marker:none" d="M244.935 581.336h64.353M253.967 537.568h55.321M270.52 493.958h38.768" overflow="visible"/><g><path d="M501.219 581.336h-64.353M492.187 537.568h-55.321M475.634 493.958h-38.768" style="marker:none" overflow="visible"/></g></g><g transform="matrix(3 0 0 3 29.511 193.59)" ns0:text="$p_1$" ns0:preamble="/home/waldgeist/data/homepage/inkscape-preamble.tex" fill="#a00"><defs><symbol overflow="visible" id="j"><path d="M.453 1.219c-.078.343-.11.406-.547.406-.11 0-.218 0-.218.188 0 .078.046.125.124.125.266 0 .563-.032.829-.032.343 0 .671.032 1 .032.046 0 .171 0 .171-.204 0-.109-.093-.109-.234-.109-.5 0-.5-.063-.5-.156 0-.125.422-1.75.484-2 .125.297.407.64.922.64 1.157 0 2.407-1.453 2.407-2.921 0-.938-.579-1.594-1.329-1.594-.5 0-.984.36-1.312.75-.094-.547-.531-.75-.89-.75-.47 0-.657.39-.735.562-.188.344-.313.938-.313.969 0 .11.094.11.11.11.11 0 .11-.016.172-.235.172-.703.375-1.188.734-1.188.172 0 .313.079.313.454 0 .234-.032.343-.079.515zm1.75-4.328c.063-.266.344-.547.516-.704.36-.296.64-.374.812-.374.39 0 .64.343.64.937 0 .594-.327 1.734-.515 2.11-.344.702-.812 1.03-1.187 1.03-.656 0-.781-.828-.781-.89 0-.016 0-.031.03-.156zm0 0"/></symbol><symbol overflow="visible" id="k"><path d="M2.328-4.438c0-.187 0-.187-.203-.187-.453.438-1.078.438-1.36.438v.25c.157 0 .626 0 1-.188v3.547c0 .234 0 .328-.687.328H.812V0c.125 0 .985-.031 1.235-.031.219 0 1.094.031 1.25.031v-.25H3.03c-.703 0-.703-.094-.703-.328zm0 0"/></symbol></defs><use height="1052.362" width="744.094" xlink:href="#j" x="118.801" y="83.403"/><use height="1052.362" width="744.094" xlink:href="#k" x="123.814" y="84.898"/></g><g transform="matrix(3 0 0 3 29.511 412.789)" ns0:preamble="/home/waldgeist/data/homepage/inkscape-preamble.tex" ns0:text="$p_2$" fill="#a00"><defs><symbol id="l" overflow="visible"><path d="M.453 1.219c-.078.343-.11.406-.547.406-.11 0-.218 0-.218.188 0 .078.046.125.124.125.266 0 .563-.032.829-.032.343 0 .671.032 1 .032.046 0 .171 0 .171-.204 0-.109-.093-.109-.234-.109-.5 0-.5-.063-.5-.156 0-.125.422-1.75.484-2 .125.297.407.64.922.64 1.157 0 2.407-1.453 2.407-2.921 0-.938-.579-1.594-1.329-1.594-.5 0-.984.36-1.312.75-.094-.547-.531-.75-.89-.75-.47 0-.657.39-.735.562-.188.344-.313.938-.313.969 0 .11.094.11.11.11.11 0 .11-.016.172-.235.172-.703.375-1.188.734-1.188.172 0 .313.079.313.454 0 .234-.032.343-.079.515zm1.75-4.328c.063-.266.344-.547.516-.704.36-.296.64-.374.812-.374.39 0 .64.343.64.937 0 .594-.327 1.734-.515 2.11-.344.702-.812 1.03-1.187 1.03-.656 0-.781-.828-.781-.89 0-.016 0-.031.03-.156zm0 0"/></symbol><symbol id="m" overflow="visible"><path d="M3.516-1.266H3.28c-.015.157-.094.563-.187.625-.047.047-.578.047-.688.047H1.125c.734-.64.984-.844 1.39-1.172.516-.406 1-.843 1-1.5 0-.843-.734-1.359-1.624-1.359-.86 0-1.454.61-1.454 1.25 0 .344.297.39.376.39.156 0 .359-.124.359-.374 0-.125-.047-.375-.406-.375.218-.485.687-.641 1.015-.641.703 0 1.063.547 1.063 1.11 0 .609-.438 1.078-.656 1.328L.516-.266C.437-.203.437-.187.437 0h2.876zm0 0"/></symbol></defs><use y="83.403" x="118.801" xlink:href="#l" width="744.094" height="1052.362"/><use y="84.898" x="123.814" xlink:href="#m" width="744.094" height="1052.362"/></g><path style="marker:none" d="M579.364 459.464v-84.499" color="#000" fill="none" stroke="green" stroke-width="3" stroke-linecap="round" stroke-linejoin="round" stroke-dasharray="3.00000002,6.00000004" marker-start="url(#n)" marker-end="url(#i)" overflow="visible"/><g transform="matrix(2.87525 0 0 2.87525 248.605 185.212)" ns0:preamble="/home/waldgeist/data/homepage/inkscape-preamble.tex" ns0:text="$h_1$" fill="green"><defs><symbol id="o" overflow="visible"><path d="M2.86-6.813s0-.109-.126-.109c-.234 0-.953.078-1.218.11-.079 0-.188.015-.188.187 0 .125.094.125.234.125.485 0 .5.063.5.172l-.03.203L.593-.391C.547-.25.547-.234.547-.17c0 .234.203.28.297.28a.407.407 0 0 0 .36-.265l.187-.75.218-.89c.063-.235.125-.454.172-.673.016-.062.11-.39.11-.453.03-.094.343-.64.687-.922.219-.156.516-.344.953-.344.422 0 .531.344.531.704 0 .53-.375 1.625-.609 2.234-.078.219-.14.344-.14.547 0 .469.359.812.828.812.937 0 1.296-1.453 1.296-1.53 0-.11-.078-.11-.109-.11-.11 0-.11.031-.156.187-.14.532-.469 1.235-1.016 1.235-.172 0-.234-.094-.234-.329 0-.25.078-.484.172-.703.156-.437.61-1.625.61-2.203 0-.64-.391-1.062-1.141-1.062-.626 0-1.11.312-1.485.765zm0 0"/></symbol><symbol id="p" overflow="visible"><path d="M2.328-4.438c0-.187 0-.187-.203-.187-.453.438-1.078.438-1.36.438v.25c.157 0 .626 0 1-.188v3.547c0 .234 0 .328-.687.328H.812V0c.125 0 .985-.031 1.235-.031.219 0 1.094.031 1.25.031v-.25H3.03c-.703 0-.703-.094-.703-.328zm0 0"/></symbol></defs><use y="83.403" x="118.801" xlink:href="#o" width="744.094" height="1052.362"/><use y="84.898" x="124.541" xlink:href="#p" width="744.094" height="1052.362"/></g><path d="M644.83 609.158V374.995" style="marker:none" color="#000" fill="none" stroke="green" stroke-width="3" stroke-linecap="round" stroke-linejoin="round" stroke-dasharray="3.00000003,6.00000006" marker-start="url(#n)" marker-end="url(#i)" overflow="visible"/><g ns0:text="$h_2$" ns0:preamble="/home/waldgeist/data/homepage/inkscape-preamble.tex" transform="matrix(3 0 0 3 298.552 250.008)" fill="green"><defs><symbol overflow="visible" id="q"><path d="M2.86-6.813s0-.109-.126-.109c-.234 0-.953.078-1.218.11-.079 0-.188.015-.188.187 0 .125.094.125.234.125.485 0 .5.063.5.172l-.03.203L.593-.391C.547-.25.547-.234.547-.17c0 .234.203.28.297.28a.407.407 0 0 0 .36-.265l.187-.75.218-.89c.063-.235.125-.454.172-.673.016-.062.11-.39.11-.453.03-.094.343-.64.687-.922.219-.156.516-.344.953-.344.422 0 .531.344.531.704 0 .53-.375 1.625-.609 2.234-.078.219-.14.344-.14.547 0 .469.359.812.828.812.937 0 1.296-1.453 1.296-1.53 0-.11-.078-.11-.109-.11-.11 0-.11.031-.156.187-.14.532-.469 1.235-1.016 1.235-.172 0-.234-.094-.234-.329 0-.25.078-.484.172-.703.156-.437.61-1.625.61-2.203 0-.64-.391-1.062-1.141-1.062-.626 0-1.11.312-1.485.765zm0 0"/></symbol><symbol overflow="visible" id="r"><path d="M3.516-1.266H3.28c-.015.157-.094.563-.187.625-.047.047-.578.047-.688.047H1.125c.734-.64.984-.844 1.39-1.172.516-.406 1-.843 1-1.5 0-.843-.734-1.359-1.624-1.359-.86 0-1.454.61-1.454 1.25 0 .344.297.39.376.39.156 0 .359-.124.359-.374 0-.125-.047-.375-.406-.375.218-.485.687-.641 1.015-.641.703 0 1.063.547 1.063 1.11 0 .609-.438 1.078-.656 1.328L.516-.266C.437-.203.437-.187.437 0h2.876zm0 0"/></symbol></defs><use height="1052.362" width="744.094" xlink:href="#q" x="118.801" y="83.403"/><use height="1052.362" width="744.094" xlink:href="#r" x="124.541" y="84.898"/></g></svg>