<svg xmlns:ns0="http://www.iki.fi/pav/software/textext/" xmlns="http://www.w3.org/2000/svg" xmlns:xlink="http://www.w3.org/1999/xlink" width="1052.362" height="744.094"><title>Benetzende und nicht-benetzende Systeme</title><use height="744.094" width="1052.362" xlink:href="#a" x="223.432" y="134.765" transform="matrix(3.72535 0 0 3.72535 -.247 -144.998)" ns0:text="$\\alpha$" ns0:preamble="/home/waldgeist/data/sphinx/inkscape-preamble.tex" fill="#87aade"/><path style="marker:none" d="M913.017 402.163a53.041 53.041 0 0 1-38.278-90.227" color="#000" fill="none" stroke="#87aade" stroke-width="2.0001681500000004" stroke-linecap="round" overflow="visible"/><path style="marker:none" color="#000" fill="#fff" stroke="#fff" stroke-width="3.399" stroke-linecap="round" stroke-linejoin="bevel" overflow="visible" d="M44.168 242.875h964.026v258.343H44.168z"/><path style="marker:none" d="M912.746 410.856l-1.299 50.309H575.56l-.268-111.8c18.884-18.676 17.35-17.729 47.17-18.65h194.083M160.837 357.95l.471 103.215h335.888V307.769c-10.523 18.283-36.563 22.946-46.903 22.946H208.21" color="#000" fill="#afc6e9" stroke="#87aade" stroke-width="3" stroke-linecap="square" stroke-linejoin="bevel" overflow="visible"/><path d="M124.518 342.3l-16.35-34.438" opacity=".5" fill="none" stroke="#d40000" stroke-width="2" stroke-linecap="round" stroke-dasharray="2,4"/><path style="marker:none" d="M497.196 357.95l-.472 103.215H160.837V307.769c10.522 18.283 36.563 22.946 46.902 22.946h242.082" color="#000" fill="#afc6e9" stroke="#87aade" stroke-width="3" stroke-linecap="square" stroke-linejoin="bevel" overflow="visible"/><path d="M178.132 323.682l94.085 86.325" fill="#3771c8" stroke="#87aade" stroke-width="3" stroke-linecap="round" stroke-dasharray="2.99999954,5.99999908"/><path d="M253.743 393.162a126.188 126.188 0 0 1-92.344 40.794" style="marker:none" color="#000" fill="none" stroke="#87aade" stroke-width="2.9998554399999997" stroke-linecap="round" overflow="visible"/><path d="M160.85 459.645V282.62M497.196 459.11V282.084" fill="none" stroke="#9b9c9f" stroke-width="3.881" stroke-linecap="round"/><path d="M163.188 460.918l332.808 1.032" fill="none" stroke="#9b9c9f" stroke-width="4" stroke-linecap="round"/><g ns0:text="$\\vec{F}_{\\rm{K}}$" ns0:preamble="/home/waldgeist/data/sphinx/inkscape-preamble.tex" transform="matrix(3.72535 0 0 3.72535 -664.449 -124.202)" fill="#d40000"><defs><symbol overflow="visible" id="b"><path d="M5.36-5.938c-.141.141-.47.422-.47.594 0 .094.094.203.188.203s.14-.078.203-.14c.11-.14.344-.422.782-.64.062-.048.171-.095.171-.204 0-.11-.078-.156-.14-.203a1.034 1.034 0 0 1-.407-.563c-.03-.093-.062-.234-.203-.234-.14 0-.203.14-.203.219 0 .047.078.36.235.578h-3.36c-.156 0-.344 0-.344.203 0 .188.188.188.344.188zm0 0"/></symbol><symbol overflow="visible" id="c"><path d="M3.016-3.234h.968c.75 0 .829.156.829.437 0 .078 0 .188-.063.5-.031.047-.031.078-.031.11 0 .078.062.109.11.109.109 0 .109-.031.155-.203l.547-2.172c.032-.11.032-.125.032-.156a.117.117 0 0 0-.125-.11c-.094 0-.11.047-.141.219-.219.766-.438.953-1.297.953h-.906l.64-2.531c.094-.36.11-.39.547-.39h1.313c1.218 0 1.453.327 1.453 1.093 0 .234 0 .266-.031.547C7-4.703 7-4.688 7-4.656c0 .047.031.125.125.125.11 0 .11-.063.125-.25l.203-1.735c.031-.265-.016-.265-.266-.265h-4.89c-.188 0-.297 0-.297.203 0 .11.094.11.281.11.375 0 .656 0 .656.171 0 .047 0 .063-.062.25L1.562-.78c-.093.39-.109.469-.906.469-.172 0-.281 0-.281.187C.375 0 .5 0 .531 0c.281 0 1.031-.031 1.313-.031C2.172-.031 3 0 3.328 0c.094 0 .203 0 .203-.188 0-.078-.047-.109-.047-.109-.03-.016-.062-.016-.28-.016-.22 0-.267 0-.517-.015-.296-.031-.328-.078-.328-.203 0-.016 0-.078.047-.219zm0 0"/></symbol><symbol overflow="visible" id="d"><path d="M3.156-2.906L4.578-4.11c.328-.282.688-.391 1.031-.407v-.25c-.203.016-.406.032-.593.032-.235 0-.938-.032-.97-.032v.25c.095 0 .266.047.266.204a.384.384 0 0 1-.062.171L1.766-2.03v-2.156c0-.25.015-.329.562-.329h.156v-.25c-.343.016-.796.032-1.046.032S.734-4.75.39-4.766v.25h.171c.532 0 .547.079.547.329v3.625c0 .234-.015.312-.546.312H.39V0c.343-.016.796-.031 1.046-.031s.704.015 1.047.031v-.25h-.156c-.547 0-.562-.078-.562-.313v-1.156l.937-.797 1.422 1.86c.047.047.11.125.11.219 0 .187-.235.187-.36.187V0a27.64 27.64 0 0 1 1.031-.031c.25 0 .703.031.797.031v-.25c-.375 0-.531-.016-.797-.36zm0 0"/></symbol></defs><use height="744.094" width="1052.362" xlink:href="#b" x="224.901" y="132.246"/><use height="744.094" width="1052.362" xlink:href="#c" x="223.432" y="134.765"/><use height="744.094" width="1052.362" xlink:href="#d" x="229.839" y="136.259"/></g><g transform="matrix(3.72535 0 0 3.72535 -773.88 -184.063)" ns0:preamble="/home/waldgeist/data/sphinx/inkscape-preamble.tex" ns0:text="$\\vec{F}_{\\rm{A}}$" fill="#d40000"><defs><symbol id="e" overflow="visible"><path d="M5.36-5.938c-.141.141-.47.422-.47.594 0 .094.094.203.188.203s.14-.078.203-.14c.11-.14.344-.422.782-.64.062-.048.171-.095.171-.204 0-.11-.078-.156-.14-.203a1.034 1.034 0 0 1-.407-.563c-.03-.093-.062-.234-.203-.234-.14 0-.203.14-.203.219 0 .047.078.36.235.578h-3.36c-.156 0-.344 0-.344.203 0 .188.188.188.344.188zm0 0"/></symbol><symbol id="f" overflow="visible"><path d="M3.016-3.234h.968c.75 0 .829.156.829.437 0 .078 0 .188-.063.5-.031.047-.031.078-.031.11 0 .078.062.109.11.109.109 0 .109-.031.155-.203l.547-2.172c.032-.11.032-.125.032-.156a.117.117 0 0 0-.125-.11c-.094 0-.11.047-.141.219-.219.766-.438.953-1.297.953h-.906l.64-2.531c.094-.36.11-.39.547-.39h1.313c1.218 0 1.453.327 1.453 1.093 0 .234 0 .266-.031.547C7-4.703 7-4.688 7-4.656c0 .047.031.125.125.125.11 0 .11-.063.125-.25l.203-1.735c.031-.265-.016-.265-.266-.265h-4.89c-.188 0-.297 0-.297.203 0 .11.094.11.281.11.375 0 .656 0 .656.171 0 .047 0 .063-.062.25L1.562-.78c-.093.39-.109.469-.906.469-.172 0-.281 0-.281.187C.375 0 .5 0 .531 0c.281 0 1.031-.031 1.313-.031C2.172-.031 3 0 3.328 0c.094 0 .203 0 .203-.188 0-.078-.047-.109-.047-.109-.03-.016-.062-.016-.28-.016-.22 0-.267 0-.517-.015-.296-.031-.328-.078-.328-.203 0-.016 0-.078.047-.219zm0 0"/></symbol><symbol id="g" overflow="visible"><path d="M3.125-4.813c-.031-.109-.063-.156-.188-.156-.14 0-.156.047-.203.157L1.125-.734C1.062-.563.937-.25.312-.25V0c.235-.016.485-.031.72-.031.28 0 .796.031.843.031v-.25c-.313 0-.516-.14-.516-.328 0-.063.016-.078.047-.14l.328-.86H3.72l.406 1.016c0 .03.031.078.031.109 0 .203-.375.203-.562.203V0c.344-.016.797-.031 1.031-.031.328 0 .86.031.922.031v-.25h-.125c-.469 0-.516-.078-.594-.266zm-.406.72l.89 2.265H1.83zm0 0"/></symbol></defs><use height="744.094" width="1052.362" y="132.246" x="224.901" xlink:href="#e"/><use height="744.094" width="1052.362" y="134.765" x="223.432" xlink:href="#f"/><use height="744.094" width="1052.362" y="136.259" x="229.839" xlink:href="#g"/></g><g ns0:text="$\\vec{F}_{\\rm{Ges}}$" ns0:preamble="/home/waldgeist/data/sphinx/inkscape-preamble.tex" transform="matrix(3.72535 0 0 3.72535 -750.373 -131.85)" fill="#d40000"><defs><symbol overflow="visible" id="h"><path d="M5.36-5.938c-.141.141-.47.422-.47.594 0 .094.094.203.188.203s.14-.078.203-.14c.11-.14.344-.422.782-.64.062-.048.171-.095.171-.204 0-.11-.078-.156-.14-.203a1.034 1.034 0 0 1-.407-.563c-.03-.093-.062-.234-.203-.234-.14 0-.203.14-.203.219 0 .047.078.36.235.578h-3.36c-.156 0-.344 0-.344.203 0 .188.188.188.344.188zm0 0"/></symbol><symbol overflow="visible" id="i"><path d="M3.016-3.234h.968c.75 0 .829.156.829.437 0 .078 0 .188-.063.5-.031.047-.031.078-.031.11 0 .078.062.109.11.109.109 0 .109-.031.155-.203l.547-2.172c.032-.11.032-.125.032-.156a.117.117 0 0 0-.125-.11c-.094 0-.11.047-.141.219-.219.766-.438.953-1.297.953h-.906l.64-2.531c.094-.36.11-.39.547-.39h1.313c1.218 0 1.453.327 1.453 1.093 0 .234 0 .266-.031.547C7-4.703 7-4.688 7-4.656c0 .047.031.125.125.125.11 0 .11-.063.125-.25l.203-1.735c.031-.265-.016-.265-.266-.265h-4.89c-.188 0-.297 0-.297.203 0 .11.094.11.281.11.375 0 .656 0 .656.171 0 .047 0 .063-.062.25L1.562-.78c-.093.39-.109.469-.906.469-.172 0-.281 0-.281.187C.375 0 .5 0 .531 0c.281 0 1.031-.031 1.313-.031C2.172-.031 3 0 3.328 0c.094 0 .203 0 .203-.188 0-.078-.047-.109-.047-.109-.03-.016-.062-.016-.28-.016-.22 0-.267 0-.517-.015-.296-.031-.328-.078-.328-.203 0-.016 0-.078.047-.219zm0 0"/></symbol><symbol overflow="visible" id="j"><path d="M5.188-1.36c0-.312.078-.312.546-.312v-.25c-.062 0-.562.031-.906.031-.375 0-.89 0-1.266-.03v.25h.266c.703 0 .703.093.703.312v.453c0 .156 0 .422-.406.625-.328.172-.719.172-.813.172-.796 0-2.078-.454-2.078-2.282 0-1.843 1.329-2.25 2.016-2.25.672 0 1.516.454 1.688 1.657.015.078.078.078.125.078.125 0 .125-.047.125-.188v-1.625c0-.125 0-.187-.094-.187-.032 0-.063 0-.125.093l-.36.532a1.994 1.994 0 0 0-1.453-.625C1.703-4.906.484-3.781.484-2.391.484-1 1.672.141 3.172.141c.39 0 1.156-.078 1.484-.563.125.188.375.422.453.422.079 0 .079-.078.079-.188zm0 0"/></symbol><symbol overflow="visible" id="k"><path d="M3.063-1.594c.156 0 .203 0 .203-.14 0-.625-.344-1.375-1.391-1.375a1.59 1.59 0 0 0-1.61 1.578c0 .89.782 1.593 1.704 1.593.937 0 1.297-.75 1.297-.906 0-.015-.016-.094-.125-.094-.094 0-.11.047-.125.11-.22.562-.75.672-1 .672-.329 0-.641-.14-.844-.406-.266-.329-.266-.75-.266-1.032zM.905-1.766c.078-.984.703-1.14.969-1.14.86 0 .89.969.906 1.14zm0 0"/></symbol><symbol overflow="visible" id="l"><path d="M2.64-2.922c0-.125 0-.187-.093-.187-.031 0-.047 0-.14.078-.016.015-.079.078-.126.11-.219-.142-.469-.188-.734-.188-1 0-1.234.53-1.234.875 0 .218.093.406.265.546.266.22.531.266.969.344.344.063.906.157.906.625 0 .266-.187.594-.86.594-.671 0-.905-.438-1.03-.906C.53-1.125.53-1.156.438-1.156c-.126 0-.126.047-.126.187v.86c0 .109 0 .171.094.171.063 0 .203-.14.344-.296.297.296.672.296.844.296.906 0 1.25-.484 1.25-.968a.823.823 0 0 0-.313-.64c-.265-.25-.578-.313-.828-.345-.547-.109-1-.187-1-.562 0-.219.188-.485.844-.485.812 0 .844.563.86.766 0 .078.093.078.109.078.125 0 .125-.047.125-.187zm0 0"/></symbol></defs><use height="744.094" width="1052.362" xlink:href="#h" x="224.901" y="132.246"/><use height="744.094" width="1052.362" xlink:href="#i" x="223.432" y="134.765"/><use height="744.094" width="1052.362" xlink:href="#j" x="229.839" y="136.259"/><use height="744.094" width="1052.362" xlink:href="#k" x="236.003" y="136.259"/><use height="744.094" width="1052.362" xlink:href="#l" x="239.545" y="136.259"/></g><path d="M130.296 337.868l30.54-30.099" fill="none" stroke="#d40000" stroke-width="4" stroke-linecap="round"/><path d="M575.292 410.856l1.298 50.309h335.888l.268-111.8c-18.885-18.676-17.35-17.729-47.17-18.65H671.492" style="marker:none" color="#000" fill="#afc6e9" stroke="#87aade" stroke-width="3" stroke-linecap="square" stroke-linejoin="bevel" overflow="visible"/><path d="M912.746 349.364l-73.763-73.762" fill="#3771c8" stroke="#87aade" stroke-width="3" stroke-linecap="round" stroke-dasharray="2.99999978,5.99999953"/><path d="M910.127 460.918l-332.81 1.032" fill="none" stroke="#9b9c9f" stroke-width="4" stroke-linecap="round"/><g ns0:preamble="/home/waldgeist/data/sphinx/inkscape-preamble.tex" ns0:text="$\\vec{F}_{\\rm{K}}$" fill="#d40000"><use y="132.246" x="224.901" xlink:href="#b" width="1052.362" height="744.094" transform="matrix(3.72535 0 0 3.72535 -26.296 -98.236)"/><use y="134.765" x="223.432" xlink:href="#c" width="1052.362" height="744.094" transform="matrix(3.72535 0 0 3.72535 -26.296 -98.236)"/><use y="136.259" x="229.839" xlink:href="#d" width="1052.362" height="744.094" transform="matrix(3.72535 0 0 3.72535 -26.296 -98.236)"/></g><g ns0:text="$\\vec{F}_{\\rm{A}}$" ns0:preamble="/home/waldgeist/data/sphinx/inkscape-preamble.tex" fill="#d40000"><use xlink:href="#e" x="224.901" y="132.246" width="1052.362" height="744.094" transform="matrix(3.72535 0 0 3.72535 115.59 -135.463)"/><use xlink:href="#f" x="223.432" y="134.765" width="1052.362" height="744.094" transform="matrix(3.72535 0 0 3.72535 115.59 -135.463)"/><use xlink:href="#g" x="229.839" y="136.259" width="1052.362" height="744.094" transform="matrix(3.72535 0 0 3.72535 115.59 -135.463)"/></g><path d="M576.119 459.11V282.084" fill="none" stroke="#9b9c9f" stroke-width="3.881" stroke-linecap="round"/><g transform="matrix(3.72535 0 0 3.72535 -629.495 -57.319)" ns0:preamble="/home/waldgeist/data/sphinx/inkscape-preamble.tex" ns0:text="$\\alpha$" fill="#87aade"><defs><symbol id="a" overflow="visible"><path d="M4.75-2.36c0-1.562-.922-2.046-1.656-2.046-1.375 0-2.688 1.422-2.688 2.828C.406-.641 1 .109 2.031.109c.625 0 1.344-.234 2.094-.843.125.53.453.843.906.843.532 0 .844-.546.844-.703 0-.078-.063-.11-.125-.11-.063 0-.094.032-.125.11-.188.485-.547.485-.563.485-.312 0-.312-.782-.312-1.016 0-.203 0-.234.11-.344C5.796-2.656 6-3.812 6-3.812c0-.032-.016-.11-.125-.11-.094 0-.094.031-.14.219-.188.625-.516 1.375-.985 1.969zM4.094-.983c-.89.765-1.657.875-2.047.875-.594 0-.906-.454-.906-1.094 0-.484.265-1.563.578-2.063.468-.734 1.015-.921 1.36-.921.983 0 .983 1.312.983 2.078 0 .375 0 .953.032 1.125zm0 0"/></symbol></defs><use y="134.765" x="223.432" xlink:href="#a" width="1052.362" height="744.094"/></g><g fill="#d40000"><path d="M-707.107 1620.068l-5.249-9.091-5.249-9.092h20.996l-5.249 9.091z" transform="matrix(0 .00343 -.00351 0 119.75 310.211)" stroke="#d40000" stroke-width="2048.44" stroke-linecap="square"/><path d="M113.351 307.77h47.486" stroke="#d40000" stroke-width="4" stroke-linecap="round"/></g><path transform="matrix(.00307 -.00154 .00157 .00314 174.047 330.633)" d="M-707.107 1620.068l-5.249-9.091-5.249-9.092h20.996l-5.249 9.091z" stroke="#d40000" stroke-width="2048.44" stroke-linecap="square" fill="#d40000"/><path d="M174.429 336.73l-13.592-28.96" fill="none" stroke="#d40000" stroke-width="4" stroke-linecap="round"/><path d="M126.851 342.816l49.521.109" opacity=".5" fill="none" stroke="#d40000" stroke-width="2.0004908" stroke-linecap="round" stroke-dasharray="1.53962103,3.07924206"/><path transform="matrix(.00234 .0025 -.00256 .0024 136.084 335.826)" d="M-707.107 1620.068l-5.249-9.091-5.249-9.092h20.996l-5.249 9.091z" stroke="#d40000" stroke-width="2048.44" stroke-linecap="square" fill="#d40000"/><path d="M130.296 337.868l30.54-30.099" fill="none" stroke="#d40000" stroke-width="4" stroke-linecap="round"/><path d="M912.464 459.645V282.62" fill="none" stroke="#9b9c9f" stroke-width="3.881" stroke-linecap="round"/><g fill="#d40000"><path transform="matrix(0 .00343 .00351 0 939.067 351.601)" d="M-707.107 1620.068l-5.249-9.091-5.249-9.092h20.996l-5.249 9.091z" stroke="#d40000" stroke-width="2048.44" stroke-linecap="square"/><path d="M942.682 349.124H912.56" stroke="#d40000" stroke-width="4" stroke-linecap="round"/></g><path d="M-707.107 1620.068l-5.249-9.091-5.249-9.092h20.996l-5.249 9.091z" transform="matrix(.00235 .0025 -.00256 .0024 895.792 370.122)" stroke="#d40000" stroke-width="2048.44" stroke-linecap="square" fill="#d40000"/><path d="M890.94 371.088l21.874-21.708" fill="none" stroke="#d40000" stroke-width="4" stroke-linecap="round"/><g><path transform="matrix(.00143 .00312 -.00319 .00146 857.908 375.016)" d="M-707.107 1620.068l-5.249-9.091-5.249-9.092h20.996l-5.249 9.091z" stroke="#d40000" stroke-width="2048.44" stroke-linecap="square" fill="#d40000"/><path d="M853.734 374.096l58.826-24.972" fill="none" stroke="#d40000" stroke-width="4" stroke-linecap="round"/></g><g ns0:preamble="/home/waldgeist/data/sphinx/inkscape-preamble.tex" ns0:text="$\\vec{F}_{\\rm{Ges}}$" fill="#d40000"><use y="132.246" x="224.901" xlink:href="#h" width="1052.362" height="744.094" transform="matrix(3.72535 0 0 3.72535 36.371 -86.258)"/><use y="134.765" x="223.432" xlink:href="#i" width="1052.362" height="744.094" transform="matrix(3.72535 0 0 3.72535 36.371 -86.258)"/><g transform="matrix(3.72535 0 0 3.72535 36.371 -86.258)"><use y="136.259" x="229.839" xlink:href="#j" width="1052.362" height="744.094"/><use y="136.259" x="236.003" xlink:href="#k" width="1052.362" height="744.094"/><use y="136.259" x="239.545" xlink:href="#l" width="1052.362" height="744.094"/></g></g><g><path d="M165.565 661.768l-16.35-34.438" opacity=".5" fill="none" stroke="#d40000" stroke-width="1.77" stroke-linecap="round" stroke-dasharray="1.76963947,3.53927894" transform="matrix(-.42366 1.17226 -.88732 -.5597 1505.073 553.493)"/></g><g><path d="M148.612 625.807l-47.649-50.064" opacity=".5" fill="none" stroke="#d40000" stroke-width="1.77" stroke-linecap="round" stroke-dasharray="1.76963946,3.53927894" transform="matrix(-.42366 1.17226 -.88732 -.5597 1505.073 553.2)"/></g></svg>