<svg xmlns:ns0="http://www.iki.fi/pav/software/textext/" xmlns="http://www.w3.org/2000/svg" xmlns:xlink="http://www.w3.org/1999/xlink" width="1122.52" height="793.701"><title>Benetzbarkeit</title><defs><pattern patternTransform="translate(.25)" id="b" xlink:href="#a"/><pattern patternUnits="userSpaceOnUse" width="30.066" height="5.181" id="a"><path d="M7.597.061C5.079-.187 2.656.302-.01 1.788v1.273c2.783-1.63 5.183-2.009 7.482-1.781 2.298.228 4.497 1.081 6.781 1.938 4.567 1.713 9.551 3.458 15.813-.157l-.004-1.273c-6.44 3.709-10.816 1.982-15.371.273-2.278-.854-4.576-1.75-7.094-2z"/></pattern><linearGradient id="c"><stop offset="0" stop-color="#0e0e0e" stop-opacity=".746"/><stop offset="1" stop-color="#fff"/></linearGradient><linearGradient id="d"><stop offset="0" stop-color="#ebebeb"/><stop offset="1" stop-color="#fff" stop-opacity="0"/></linearGradient><linearGradient id="e"><stop offset="0" stop-opacity="0"/><stop offset="1" stop-color="#fff"/></linearGradient><linearGradient id="f"><stop offset="0" stop-color="#1a1a1a" stop-opacity=".828"/><stop offset="1" stop-color="#fff"/></linearGradient><linearGradient id="g"><stop offset="0" stop-color="#fff"/><stop offset="1" stop-color="#fff" stop-opacity="0"/></linearGradient><linearGradient id="h"><stop offset="0" stop-opacity="0"/><stop offset="1" stop-color="#fff"/></linearGradient></defs><path style="marker:none" color="#000" overflow="visible" fill="#fff" stroke="#fff" stroke-width="3.625" stroke-linecap="round" stroke-linejoin="bevel" d="M13.974 284.841h1094.571v208.487H13.974z"/><path d="M105.115 432.384l-62.968-120.77" fill="#3771c8" stroke="#87aade" stroke-width="3.2" stroke-linecap="round" stroke-dasharray="3.19999951,6.39999902"/><g ns0:text="$\\vec{F}$" ns0:preamble="/home/waldgeist/data/sphinx/inkscape-preamble.tex" fill="#d40000"><use height="1052.362" width="744.094" xlink:href="#textext-ecb1a24e-1" x="224.901" y="132.246" transform="matrix(3.72535 0 0 3.72535 -69.408 -167.06)"/><use height="1052.362" width="744.094" xlink:href="#textext-ecb1a24e-2" x="223.432" y="134.765" transform="matrix(3.72535 0 0 3.72535 -69.408 -167.06)"/></g><path fill="#999" stroke="#4d4d4d" stroke-width="1.333" stroke-linecap="round" stroke-linejoin="round" d="M62.72 434.411h291.801v46.025H62.72zM415.36 437.015h291.801v46.025H415.36zM768 437.015h291.801v46.025H768z"/><path d="M312.124 432.384c36.013-60.195-243.021-60.195-207.009 0zM662.994 435.015H460.162c50.366-64.278 151.615-64.278 202.832 0z" style="marker:none" color="#000" overflow="visible" fill="#afc6e9" stroke="#87aade" stroke-width="3.2" stroke-linecap="square" stroke-linejoin="bevel"/><path d="M-683.576-111.986A80.713 80.672 0 0 1-706.7-37.121a80.713 80.672 0 0 1-75.812 19.933" style="marker:none" transform="rotate(-104.992 -126.175 -164.41) skewX(.017)" color="#000" overflow="visible" fill="none" stroke="#87aade" stroke-width="3.2" stroke-linecap="round"/><g fill="#afc6e9"><path d="M768 408.708h291.8v26.997H768"/><path d="M768 408.708h291.8m0 26.997H768" stroke="#87aade" stroke-width="1.333" stroke-linecap="round" stroke-linejoin="round"/></g><path d="M662.994 435.015l-62.968-120.77" fill="#3771c8" stroke="#87aade" stroke-width="3.2" stroke-linecap="round" stroke-dasharray="3.19999951,6.39999902"/><path transform="matrix(.25868 -.96596 -.96589 -.25896 0 -328.819)" style="marker:none" d="M-506.762-783.314a80.713 80.672 0 0 1-79.28 23.467" color="#000" overflow="visible" fill="none" stroke="#87aade" stroke-width="3.2" stroke-linecap="round"/><path opacity=".7" fill="#fff" stroke="#fff" stroke-width="1.333" stroke-linecap="round" stroke-linejoin="round" d="M112.382 381.111h29.29v24.734h-29.29z"/><g transform="matrix(3.72535 0 0 3.72535 -718.063 -100.031)" ns0:preamble="/home/waldgeist/data/sphinx/inkscape-preamble.tex" ns0:text="$\\alpha$" fill="#87aade"><defs><symbol id="i" overflow="visible"><path d="M5.067-2.517C5.067-4.183 4.083-4.7 3.3-4.7 1.833-4.7.433-3.183.433-1.683c0 1 .634 1.8 1.734 1.8.666 0 1.433-.25 2.233-.9.133.566.483.9.967.9.566 0 .9-.584.9-.75 0-.084-.067-.117-.134-.117-.066 0-.1.033-.133.117-.2.516-.583.516-.6.516-.333 0-.333-.833-.333-1.083 0-.217 0-.25.116-.367 1-1.266 1.217-2.5 1.217-2.5 0-.033-.017-.116-.133-.116-.1 0-.1.033-.15.233-.2.667-.55 1.467-1.05 2.1zm-.7 1.467c-.95.817-1.767.933-2.184.933-.633 0-.966-.483-.966-1.166 0-.517.283-1.667.616-2.2.5-.784 1.084-.984 1.45-.984 1.05 0 1.05 1.4 1.05 2.217 0 .4 0 1.017.034 1.2zm0 0" stroke-width="1.067"/></symbol></defs><use y="134.765" x="223.432" xlink:href="#i" width="1052.362" height="744.094"/></g><path opacity=".7" fill="#fff" stroke="#fff" stroke-width="1.333" stroke-linecap="round" stroke-linejoin="round" d="M604.198 394.435h29.29v24.734h-29.29z"/><use height="744.094" width="1052.362" xlink:href="#i" x="223.432" y="134.765" transform="matrix(3.72535 0 0 3.72535 -226.247 -86.707)" ns0:text="$\\alpha$" ns0:preamble="/home/waldgeist/data/sphinx/inkscape-preamble.tex" fill="#87aade"/></svg>