<svg xmlns:ns0="http://www.iki.fi/pav/software/textext/" xmlns="http://www.w3.org/2000/svg" xmlns:xlink="http://www.w3.org/1999/xlink" width="1122.52" height="793.701"><title>Benetzbarkeit und Randwinkel</title><defs><marker orient="auto" id="v" overflow="visible"><path d="M-4 0l-2 2 7-2-7-2 2 2z" fill-rule="evenodd" stroke="#87aade" stroke-width=".4pt" fill="#87aade"/></marker><pattern patternTransform="translate(.25)" id="b" xlink:href="#a"/><pattern patternUnits="userSpaceOnUse" width="30.066" height="5.181" id="a"><path d="M7.597.061C5.079-.187 2.656.302-.01 1.788v1.273c2.783-1.63 5.183-2.009 7.482-1.781 2.298.228 4.497 1.081 6.781 1.938 4.567 1.713 9.551 3.458 15.813-.157l-.004-1.273c-6.44 3.709-10.816 1.982-15.371.273-2.278-.854-4.576-1.75-7.094-2z"/></pattern><linearGradient id="c"><stop offset="0" stop-color="#0e0e0e" stop-opacity=".746"/><stop offset="1" stop-color="#fff"/></linearGradient><linearGradient id="d"><stop offset="0" stop-color="#ebebeb"/><stop offset="1" stop-color="#fff" stop-opacity="0"/></linearGradient><linearGradient id="e"><stop offset="0" stop-opacity="0"/><stop offset="1" stop-color="#fff"/></linearGradient><linearGradient id="f"><stop offset="0" stop-color="#1a1a1a" stop-opacity=".828"/><stop offset="1" stop-color="#fff"/></linearGradient><linearGradient id="g"><stop offset="0" stop-color="#fff"/><stop offset="1" stop-color="#fff" stop-opacity="0"/></linearGradient><linearGradient id="h"><stop offset="0" stop-opacity="0"/><stop offset="1" stop-color="#fff"/></linearGradient><symbol id="u" overflow="visible"><path d="M5.067-2.517C5.067-4.183 4.083-4.7 3.3-4.7 1.833-4.7.433-3.183.433-1.683c0 1 .634 1.8 1.734 1.8.666 0 1.433-.25 2.233-.9.133.566.483.9.967.9.566 0 .9-.584.9-.75 0-.084-.067-.117-.134-.117-.066 0-.1.033-.133.117-.2.516-.583.516-.6.516-.333 0-.333-.833-.333-1.083 0-.217 0-.25.116-.367 1-1.266 1.217-2.5 1.217-2.5 0-.033-.017-.116-.133-.116-.1 0-.1.033-.15.233-.2.667-.55 1.467-1.05 2.1zm-.7 1.467c-.95.817-1.767.933-2.184.933-.633 0-.966-.483-.966-1.166 0-.517.283-1.667.616-2.2.5-.784 1.084-.984 1.45-.984 1.05 0 1.05 1.4 1.05 2.217 0 .4 0 1.017.034 1.2zm0 0" stroke-width="1.067"/></symbol><marker orient="auto" id="w" overflow="visible"><path d="M-4 0l-2 2 7-2-7-2z" fill="#87aade" fill-rule="evenodd" stroke="#87aade" stroke-width=".5332"/></marker></defs><path style="marker:none" color="#000" overflow="visible" fill="#fff" stroke="#fff" stroke-width="3.625" stroke-linecap="round" stroke-linejoin="bevel" d="M28.633 281.481h1065.255V512.22H28.633z"/><path style="marker:none" d="M168.887 438.247l1.385 53.662h358.28l.286-119.254c-20.143-19.92-18.507-18.91-50.315-19.893H271.502" color="#000" overflow="visible" fill="#afc6e9" stroke="#87aade" stroke-width="3.2" stroke-linecap="square" stroke-linejoin="bevel"/><path d="M528.838 438.247l-1.385 53.662h-358.28l-.286-119.254c20.143-19.92 18.507-18.91 50.316-19.893h207.02" style="marker:none" color="#000" overflow="visible" fill="#afc6e9" stroke="#87aade" stroke-width="3.2" stroke-linecap="square" stroke-linejoin="bevel"/><path d="M168.887 372.655l93.078-93.077" fill="#3771c8" stroke="#87aade" stroke-width="3.2" stroke-linecap="round" stroke-dasharray="3.19999972,6.39999941"/><path d="M171.68 491.645l354.997 1.102" fill="none" stroke="#9b9c9f" stroke-width="4.267" stroke-linecap="round"/><path d="M527.956 489.717V300.89M169.188 490.288V301.462" fill="none" stroke="#9b9c9f" stroke-width="4.14" stroke-linecap="round"/><g fill="#d40000"><path transform="matrix(-.00001 .00366 -.00374 -.00001 140.811 375.041)" d="M-707.107 1620.068l-5.249-9.091-5.249-9.092h20.996l-5.249 9.091z" stroke="#d40000" stroke-width="2048.44" stroke-linecap="square"/><path d="M136.955 372.398h32.13" stroke="#d40000" stroke-width="4.267" stroke-linecap="round"/></g><path d="M-707.107 1620.068l-5.249-9.091-5.249-9.092h20.996l-5.249 9.091z" transform="matrix(-.0025 .00266 .00273 .00257 186.971 394.798)" stroke="#d40000" stroke-width="2048.44" stroke-linecap="square" fill="#d40000"/><path d="M192.146 395.828l-23.331-23.156" fill="none" stroke="#d40000" stroke-width="4.267" stroke-linecap="round"/><path transform="matrix(-.00153 .00333 .0034 .00156 227.38 400.017)" d="M-707.107 1620.068l-5.249-9.091-5.249-9.092h20.996l-5.249 9.091z" stroke="#d40000" stroke-width="2048.44" stroke-linecap="square" fill="#d40000"/><path d="M231.833 399.036L169.085 372.4" fill="none" stroke="#d40000" stroke-width="4.267" stroke-linecap="round"/><path d="M176.602 705.886l-17.44-36.734" opacity=".5" fill="none" stroke="#d40000" stroke-width="1.888" stroke-linecap="round" stroke-dasharray="1.88761543,3.77523087" transform="matrix(.42366 1.17226 .88732 -.5597 -462.928 590.392)"/><path d="M158.52 667.527l-50.826-53.401" opacity=".5" fill="none" stroke="#d40000" stroke-width="1.888" stroke-linecap="round" stroke-dasharray="1.88761542,3.77523087" transform="matrix(.42366 1.17226 .88732 -.5597 -462.928 590.08)"/><path style="marker:none" d="M974.744 381.814l-.503 110.095H615.96V328.287c11.223 19.502 39 24.475 50.03 24.475h258.22" color="#000" overflow="visible" fill="#afc6e9" stroke="#87aade" stroke-width="3.2" stroke-linecap="square" stroke-linejoin="bevel"/><path d="M1013.483 365.12l17.44-36.734" opacity=".5" fill="none" stroke="#d40000" stroke-width="2.133" stroke-linecap="round" stroke-dasharray="2.13333333,4.26666667"/><path d="M615.96 381.814l.504 110.095h358.28V328.287c-11.224 19.502-39 24.475-50.03 24.475h-258.22" style="marker:none" color="#000" overflow="visible" fill="#afc6e9" stroke="#87aade" stroke-width="3.2" stroke-linecap="square" stroke-linejoin="bevel"/><path d="M956.295 345.261l-100.357 92.08" fill="#3771c8" stroke="#87aade" stroke-width="3.2" stroke-linecap="round" stroke-dasharray="3.19999951,6.39999902"/><path style="marker:none" d="M875.644 419.373a134.6 134.6 0 0 1 98.5 43.514" color="#000" overflow="visible" fill="none" stroke="#87aade" stroke-width="3.2" stroke-linecap="round"/><path d="M974.729 490.288V301.462M615.96 489.717V300.89" fill="none" stroke="#9b9c9f" stroke-width="4.14" stroke-linecap="round"/><path d="M972.236 491.645l-354.996 1.102" fill="none" stroke="#9b9c9f" stroke-width="4.267" stroke-linecap="round"/><path d="M1007.32 360.392l-32.576-32.105" fill="none" stroke="#d40000" stroke-width="4.267" stroke-linecap="round"/><g fill="#d40000"><path transform="matrix(.00001 .00366 .00374 -.00001 1018.569 330.892)" d="M-707.107 1620.068l-5.249-9.091-5.249-9.092h20.996l-5.249 9.091z" stroke="#d40000" stroke-width="2048.44" stroke-linecap="square"/><path d="M1025.394 328.287h-50.65" stroke="#d40000" stroke-width="4.267" stroke-linecap="round"/></g><path d="M-707.107 1620.068l-5.249-9.091-5.249-9.092h20.996l-5.249 9.091z" transform="matrix(-.00327 -.00164 -.00168 .00335 960.652 352.675)" stroke="#d40000" stroke-width="2048.44" stroke-linecap="square" fill="#d40000"/><path d="M960.246 359.18l14.498-30.893" fill="none" stroke="#d40000" stroke-width="4.267" stroke-linecap="round"/><g><path d="M1013.483 365.12l-52.822.116" opacity=".5" fill="none" stroke="#d40000" stroke-width="2.13299084" stroke-linecap="round" stroke-dasharray="1.64226243,3.28452486"/></g><g><path d="M-707.107 1620.068l-5.249-9.091-5.249-9.092h20.996l-5.249 9.091z" transform="matrix(-.0025 .00267 .00273 .00256 1001.147 358.214)" stroke="#d40000" stroke-width="2048.44" stroke-linecap="square" fill="#d40000"/><path d="M1007.32 360.392l-32.576-32.105" fill="none" stroke="#d40000" stroke-width="4.267" stroke-linecap="round"/></g><g ns0:text="$\\vec{F}$" ns0:preamble="/home/waldgeist/data/sphinx/inkscape-preamble.tex" fill="#d40000"><use height="1052.362" width="744.094" xlink:href="#textext-ecb1a24e-1" x="224.901" y="132.246" transform="matrix(3.72535 0 0 3.72535 -69.408 -167.06)"/><use height="1052.362" width="744.094" xlink:href="#textext-ecb1a24e-2" x="223.432" y="134.765" transform="matrix(3.72535 0 0 3.72535 -69.408 -167.06)"/></g><g ns0:text="$\\vec{F}_{\\rm{K}}$" ns0:preamble="/home/waldgeist/data/sphinx/inkscape-preamble.tex" transform="matrix(3.72535 0 0 3.72535 97.288 -93.889)" fill="#d40000"><defs><symbol overflow="visible" id="i"><path d="M5.717-6.333c-.15.15-.5.45-.5.633 0 .1.1.217.2.217s.15-.084.216-.15c.117-.15.367-.45.834-.684.066-.05.183-.1.183-.216 0-.117-.083-.167-.15-.217a1.103 1.103 0 0 1-.433-.6C6.033-7.45 6-7.6 5.85-7.6s-.217.15-.217.233c0 .05.084.384.25.617H2.3c-.167 0-.367 0-.367.217 0 .2.2.2.367.2zm0 0" stroke-width="1.067"/></symbol><symbol overflow="visible" id="j"><path d="M3.217-3.45H4.25c.8 0 .883.167.883.467 0 .083 0 .2-.066.533-.034.05-.034.083-.034.117 0 .083.067.116.117.116.117 0 .117-.033.167-.216L5.9-4.75c.033-.117.033-.133.033-.167a.125.125 0 0 0-.133-.116c-.1 0-.117.05-.15.233-.233.817-.467 1.017-1.383 1.017H3.3l.683-2.7c.1-.384.117-.417.584-.417h1.4c1.3 0 1.55.35 1.55 1.167 0 .25 0 .283-.034.583-.016.133-.016.15-.016.183 0 .05.033.134.133.134.117 0 .117-.067.133-.267l.217-1.85c.033-.283-.017-.283-.283-.283H2.45c-.2 0-.317 0-.317.216 0 .117.1.117.3.117.4 0 .7 0 .7.183 0 .05 0 .067-.066.267l-1.4 5.617c-.1.416-.117.5-.967.5-.183 0-.3 0-.3.2C.4 0 .533 0 .567 0c.3 0 1.1-.033 1.4-.033C2.317-.033 3.2 0 3.55 0c.1 0 .217 0 .217-.2 0-.083-.05-.117-.05-.117-.034-.016-.067-.016-.3-.016-.234 0-.284 0-.55-.017-.317-.033-.35-.083-.35-.217 0-.016 0-.083.05-.233zm0 0" stroke-width="1.067"/></symbol><symbol overflow="visible" id="k"><path d="M3.367-3.1l1.516-1.283c.35-.3.734-.417 1.1-.434v-.266c-.216.016-.433.033-.633.033-.25 0-1-.033-1.033-.033v.266c.1 0 .283.05.283.217a.41.41 0 0 1-.067.183l-2.65 2.25v-2.3c0-.266.017-.35.6-.35h.167v-.266c-.367.016-.85.033-1.117.033-.266 0-.75-.017-1.116-.033v.266H.6c.567 0 .583.084.583.35V-.6c0 .25-.016.333-.583.333H.417V0c.366-.017.85-.033 1.116-.033.267 0 .75.016 1.117.033v-.267h-.167c-.583 0-.6-.083-.6-.333v-1.233l1-.85L4.4-.7c.05.05.117.133.117.233 0 .2-.25.2-.384.2V0c.367-.017.834-.033 1.1-.033.267 0 .75.033.85.033v-.267c-.4 0-.566-.016-.85-.383zm0 0" stroke-width="1.067"/></symbol></defs><use height="744.094" width="1052.362" xlink:href="#i" x="224.901" y="132.246"/><use height="744.094" width="1052.362" xlink:href="#j" x="223.432" y="134.765"/><use height="744.094" width="1052.362" xlink:href="#k" x="229.839" y="136.259"/></g><g transform="matrix(3.72535 0 0 3.72535 196.933 -159.424)" ns0:preamble="/home/waldgeist/data/sphinx/inkscape-preamble.tex" ns0:text="$\\vec{F}_{\\rm{A}}$" fill="#d40000"><defs><symbol id="l" overflow="visible"><path d="M5.717-6.333c-.15.15-.5.45-.5.633 0 .1.1.217.2.217s.15-.084.216-.15c.117-.15.367-.45.834-.684.066-.05.183-.1.183-.216 0-.117-.083-.167-.15-.217a1.103 1.103 0 0 1-.433-.6C6.033-7.45 6-7.6 5.85-7.6s-.217.15-.217.233c0 .05.084.384.25.617H2.3c-.167 0-.367 0-.367.217 0 .2.2.2.367.2zm0 0" stroke-width="1.067"/></symbol><symbol id="m" overflow="visible"><path d="M3.217-3.45H4.25c.8 0 .883.167.883.467 0 .083 0 .2-.066.533-.034.05-.034.083-.034.117 0 .083.067.116.117.116.117 0 .117-.033.167-.216L5.9-4.75c.033-.117.033-.133.033-.167a.125.125 0 0 0-.133-.116c-.1 0-.117.05-.15.233-.233.817-.467 1.017-1.383 1.017H3.3l.683-2.7c.1-.384.117-.417.584-.417h1.4c1.3 0 1.55.35 1.55 1.167 0 .25 0 .283-.034.583-.016.133-.016.15-.016.183 0 .05.033.134.133.134.117 0 .117-.067.133-.267l.217-1.85c.033-.283-.017-.283-.283-.283H2.45c-.2 0-.317 0-.317.216 0 .117.1.117.3.117.4 0 .7 0 .7.183 0 .05 0 .067-.066.267l-1.4 5.617c-.1.416-.117.5-.967.5-.183 0-.3 0-.3.2C.4 0 .533 0 .567 0c.3 0 1.1-.033 1.4-.033C2.317-.033 3.2 0 3.55 0c.1 0 .217 0 .217-.2 0-.083-.05-.117-.05-.117-.034-.016-.067-.016-.3-.016-.234 0-.284 0-.55-.017-.317-.033-.35-.083-.35-.217 0-.016 0-.083.05-.233zm0 0" stroke-width="1.067"/></symbol><symbol id="n" overflow="visible"><path d="M3.333-5.133c-.033-.117-.066-.167-.2-.167-.15 0-.166.05-.216.167L1.2-.783C1.133-.6 1-.267.333-.267V0c.25-.017.517-.033.767-.033.3 0 .85.033.9.033v-.267c-.333 0-.55-.15-.55-.35 0-.066.017-.083.05-.15l.35-.916h2.117L4.4-.6c0 .033.033.083.033.117 0 .216-.4.216-.6.216V0c.367-.017.85-.033 1.1-.033.35 0 .917.033.984.033v-.267h-.134c-.5 0-.55-.083-.633-.283zm-.433.766l.95 2.417h-1.9zm0 0" stroke-width="1.067"/></symbol></defs><use height="744.094" width="1052.362" y="132.246" x="224.901" xlink:href="#l"/><use height="744.094" width="1052.362" y="134.765" x="223.432" xlink:href="#m"/><use height="744.094" width="1052.362" y="136.259" x="229.839" xlink:href="#n"/></g><g ns0:text="$\\vec{F}_{\\rm{Ges}}$" ns0:preamble="/home/waldgeist/data/sphinx/inkscape-preamble.tex" transform="matrix(3.72535 0 0 3.72535 172.954 -99.656)" fill="#d40000"><defs><symbol overflow="visible" id="o"><path d="M5.717-6.333c-.15.15-.5.45-.5.633 0 .1.1.217.2.217s.15-.084.216-.15c.117-.15.367-.45.834-.684.066-.05.183-.1.183-.216 0-.117-.083-.167-.15-.217a1.103 1.103 0 0 1-.433-.6C6.033-7.45 6-7.6 5.85-7.6s-.217.15-.217.233c0 .05.084.384.25.617H2.3c-.167 0-.367 0-.367.217 0 .2.2.2.367.2zm0 0" stroke-width="1.067"/></symbol><symbol overflow="visible" id="p"><path d="M3.217-3.45H4.25c.8 0 .883.167.883.467 0 .083 0 .2-.066.533-.034.05-.034.083-.034.117 0 .083.067.116.117.116.117 0 .117-.033.167-.216L5.9-4.75c.033-.117.033-.133.033-.167a.125.125 0 0 0-.133-.116c-.1 0-.117.05-.15.233-.233.817-.467 1.017-1.383 1.017H3.3l.683-2.7c.1-.384.117-.417.584-.417h1.4c1.3 0 1.55.35 1.55 1.167 0 .25 0 .283-.034.583-.016.133-.016.15-.016.183 0 .05.033.134.133.134.117 0 .117-.067.133-.267l.217-1.85c.033-.283-.017-.283-.283-.283H2.45c-.2 0-.317 0-.317.216 0 .117.1.117.3.117.4 0 .7 0 .7.183 0 .05 0 .067-.066.267l-1.4 5.617c-.1.416-.117.5-.967.5-.183 0-.3 0-.3.2C.4 0 .533 0 .567 0c.3 0 1.1-.033 1.4-.033C2.317-.033 3.2 0 3.55 0c.1 0 .217 0 .217-.2 0-.083-.05-.117-.05-.117-.034-.016-.067-.016-.3-.016-.234 0-.284 0-.55-.017-.317-.033-.35-.083-.35-.217 0-.016 0-.083.05-.233zm0 0" stroke-width="1.067"/></symbol><symbol overflow="visible" id="q"><path d="M5.533-1.45c0-.333.084-.333.584-.333v-.267c-.067 0-.6.033-.967.033-.4 0-.95 0-1.35-.033v.267h.283c.75 0 .75.1.75.333v.483c0 .167 0 .45-.433.667-.35.183-.767.183-.867.183-.85 0-2.216-.483-2.216-2.433 0-1.967 1.416-2.4 2.15-2.4.716 0 1.616.483 1.8 1.767.016.083.083.083.133.083.133 0 .133-.05.133-.2v-1.733c0-.134 0-.2-.1-.2-.033 0-.066 0-.133.1l-.383.566a2.127 2.127 0 0 0-1.55-.666c-1.55 0-2.85 1.2-2.85 2.683 0 1.483 1.266 2.7 2.866 2.7.417 0 1.234-.083 1.584-.6.133.2.4.45.483.45.083 0 .083-.083.083-.2zm0 0" stroke-width="1.067"/></symbol><symbol overflow="visible" id="r"><path d="M3.267-1.7c.166 0 .216 0 .216-.15 0-.667-.366-1.467-1.483-1.467-.967 0-1.717.767-1.717 1.684 0 .95.834 1.7 1.817 1.7 1 0 1.383-.8 1.383-.967 0-.017-.016-.1-.133-.1-.1 0-.117.05-.133.117-.234.6-.8.716-1.067.716-.35 0-.683-.15-.9-.433C.967-.95.967-1.4.967-1.7zm-2.3-.183C1.05-2.933 1.717-3.1 2-3.1c.917 0 .95 1.033.967 1.217zm0 0" stroke-width="1.067"/></symbol><symbol overflow="visible" id="s"><path d="M2.817-3.117c0-.133 0-.2-.1-.2-.034 0-.05 0-.15.084a1.088 1.088 0 0 1-.134.116c-.233-.15-.5-.2-.783-.2-1.067 0-1.317.567-1.317.934 0 .233.1.433.284.583.283.233.566.283 1.033.367.367.066.967.166.967.666 0 .284-.2.634-.917.634C.983-.133.733-.6.6-1.1c-.033-.1-.033-.133-.133-.133-.134 0-.134.05-.134.2v.916c0 .117 0 .184.1.184C.5.067.65-.083.8-.25c.317.317.717.317.9.317.967 0 1.333-.517 1.333-1.034A.878.878 0 0 0 2.7-1.65c-.283-.267-.617-.333-.883-.367-.584-.116-1.067-.2-1.067-.6 0-.233.2-.516.9-.516.867 0 .9.6.917.816 0 .084.1.084.116.084.134 0 .134-.05.134-.2zm0 0" stroke-width="1.067"/></symbol></defs><use height="744.094" width="1052.362" xlink:href="#o" x="224.901" y="132.246"/><use height="744.094" width="1052.362" xlink:href="#p" x="223.432" y="134.765"/><use height="744.094" width="1052.362" xlink:href="#q" x="229.839" y="136.259"/><use height="744.094" width="1052.362" xlink:href="#r" x="236.003" y="136.259"/><use height="744.094" width="1052.362" xlink:href="#s" x="239.545" y="136.259"/></g><g ns0:text="$\\vec{F}_{\\rm{A}}$" ns0:preamble="/home/waldgeist/data/sphinx/inkscape-preamble.tex" fill="#d40000"><use xlink:href="#l" x="224.901" y="132.246" width="1052.362" height="744.094" transform="matrix(3.72535 0 0 3.72535 -750.782 -115.546)"/><use xlink:href="#m" x="223.432" y="134.765" width="1052.362" height="744.094" transform="matrix(3.72535 0 0 3.72535 -750.782 -115.546)"/><use xlink:href="#n" x="229.839" y="136.259" width="1052.362" height="744.094" transform="matrix(3.72535 0 0 3.72535 -750.782 -115.546)"/></g><g ns0:preamble="/home/waldgeist/data/sphinx/inkscape-preamble.tex" ns0:text="$\\vec{F}_{\\rm{Ges}}$" fill="#d40000"><use y="132.246" x="224.901" xlink:href="#o" width="1052.362" height="744.094" transform="matrix(3.72535 0 0 3.72535 -657.557 -60.466)"/><use y="134.765" x="223.432" xlink:href="#p" width="1052.362" height="744.094" transform="matrix(3.72535 0 0 3.72535 -657.557 -60.466)"/><g transform="matrix(3.72535 0 0 3.72535 -657.557 -60.466)"><use y="136.259" x="229.839" xlink:href="#q" width="1052.362" height="744.094"/><use y="136.259" x="236.003" xlink:href="#r" width="1052.362" height="744.094"/><use y="136.259" x="239.545" xlink:href="#s" width="1052.362" height="744.094"/></g></g><path opacity=".6" fill="#fff" stroke="#fff" stroke-width="1.333" stroke-linecap="round" stroke-linejoin="round" d="M857.159 459.41h30.082v25.414h-30.082z"/><g transform="matrix(3.72535 0 0 3.72535 27.11 -21.392)" ns0:preamble="/home/waldgeist/data/sphinx/inkscape-preamble.tex" ns0:text="$\\alpha$" fill="#87aade"><defs><symbol id="t" overflow="visible"><path d="M5.067-2.517C5.067-4.183 4.083-4.7 3.3-4.7 1.833-4.7.433-3.183.433-1.683c0 1 .634 1.8 1.734 1.8.666 0 1.433-.25 2.233-.9.133.566.483.9.967.9.566 0 .9-.584.9-.75 0-.084-.067-.117-.134-.117-.066 0-.1.033-.133.117-.2.516-.583.516-.6.516-.333 0-.333-.833-.333-1.083 0-.217 0-.25.116-.367 1-1.266 1.217-2.5 1.217-2.5 0-.033-.017-.116-.133-.116-.1 0-.1.033-.15.233-.2.667-.55 1.467-1.05 2.1zm-.7 1.467c-.95.817-1.767.933-2.184.933-.633 0-.966-.483-.966-1.166 0-.517.283-1.667.616-2.2.5-.784 1.084-.984 1.45-.984 1.05 0 1.05 1.4 1.05 2.217 0 .4 0 1.017.034 1.2zm0 0" stroke-width="1.067"/></symbol></defs><use y="134.765" x="223.432" xlink:href="#t" width="1052.362" height="744.094"/></g><path style="marker:none" d="M168.12 484.3a111.906 111.978 90 0 1 104.05-68.196 111.906 111.978 90 0 1-23.238-122.164" color="#000" overflow="visible" fill="none" stroke="#87aade" stroke-width="2.133" stroke-linecap="round"/><g ns0:preamble="/home/waldgeist/data/sphinx/inkscape-preamble.tex" ns0:text="$\\vec{F}_{\\rm{K}}$" fill="#d40000"><use y="132.246" x="224.901" xlink:href="#i" width="1052.362" height="744.094" transform="matrix(3.72535 0 0 3.72535 -596.769 -82.046)"/><use y="134.765" x="223.432" xlink:href="#j" width="1052.362" height="744.094" transform="matrix(3.72535 0 0 3.72535 -596.769 -82.046)"/><use y="136.259" x="229.839" xlink:href="#k" width="1052.362" height="744.094" transform="matrix(3.72535 0 0 3.72535 -596.769 -82.046)"/></g><path opacity=".6" fill="#fff" stroke="#fff" stroke-width="1.333" stroke-linecap="round" stroke-linejoin="round" d="M300.188 412.47h30.082v25.414h-30.082z"/><g ns0:preamble="/home/waldgeist/data/sphinx/inkscape-preamble.tex" ns0:text="$\\alpha$" fill="#87aade"><use y="134.765" x="223.432" xlink:href="#u" width="1052.362" height="744.094" transform="matrix(3.72535 0 0 3.72535 -529.861 -68.333)"/></g><path style="isolation:auto;mix-blend-mode:normal" d="M300.188 741.288c-6.423-8.82-10.31-11.477-18.863-14.973" color="#000" overflow="visible" fill="none" stroke="#87aade" stroke-linecap="round" stroke-linejoin="round" marker-end="url(#v)" transform="translate(0 -328.819)"/><path style="isolation:auto;mix-blend-mode:normal" d="M881.017 787.19c6.423-8.82 10.31-11.476 18.863-14.972" color="#000" overflow="visible" fill="none" stroke="#87aade" stroke-linecap="round" stroke-linejoin="round" marker-end="url(#w)" transform="translate(0 -328.819)"/></svg>