<svg xmlns:ns0="http://www.iki.fi/pav/software/textext/" xmlns="http://www.w3.org/2000/svg" width="744.094" height="1052.362"><title>Dehnung</title><defs><marker id="a" orient="auto" overflow="visible"><path transform="rotate(180) scale(.6)" d="M8.719 4.034L-2.207.016 8.719-4.002c-1.746 2.372-1.736 5.618 0 8.036z" fill-rule="evenodd" stroke-width=".625" stroke-linejoin="round"/></marker></defs><path style="marker:none" color="#000" fill="#fff" stroke="#fff" stroke-linecap="round" stroke-linejoin="round" stroke-dasharray="1.00000005,3.00000006" overflow="visible" d="M68.885 412.806h606.324v226.75H68.885z"/><path d="M372.047 465.646v111.015" fill="none" stroke="#d40000" stroke-width="3" stroke-linecap="round" marker-end="url(#a)"/><g ns0:text="$\\vec{F}$" ns0:preamble="/home/waldgeist/data/sphinx/inkscape-preamble.tex" fill="#d40000"><path d="M382.834 429.64c-.421.422-1.406 1.266-1.406 1.781 0 .282.281.61.563.61.28 0 .422-.235.609-.422a6.655 6.655 0 0 1 2.344-1.922c.187-.14.515-.281.515-.61 0-.328-.234-.468-.421-.609-.657-.469-.985-.984-1.22-1.687-.093-.282-.187-.703-.609-.703-.421 0-.609.421-.609.656 0 .14.234 1.078.703 1.734h-10.078c-.469 0-1.031 0-1.031.61 0 .562.562.562 1.031.562zm0 0M371.396 445.306h2.906c2.25 0 2.485.47 2.485 1.313 0 .234 0 .562-.188 1.5-.093.14-.093.234-.093.328 0 .234.187.328.328.328.328 0 .328-.094.468-.61l1.641-6.515c.094-.328.094-.375.094-.469a.351.351 0 0 0-.375-.328c-.281 0-.328.14-.422.657-.656 2.296-1.313 2.859-3.89 2.859h-2.72l1.922-7.594c.282-1.078.329-1.172 1.641-1.172h3.938c3.656 0 4.359.985 4.359 3.282 0 .703 0 .796-.094 1.64-.047.375-.047.422-.047.516 0 .14.094.375.375.375.328 0 .328-.188.375-.75l.61-5.203c.093-.797-.047-.797-.797-.797H369.24c-.563 0-.89 0-.89.61 0 .327.28.327.843.327 1.125 0 1.969 0 1.969.516 0 .14 0 .187-.188.75l-3.937 15.797c-.281 1.172-.328 1.406-2.719 1.406-.516 0-.844 0-.844.563 0 .375.375.375.469.375.844 0 3.094-.094 3.938-.094.984 0 3.468.094 4.453.094.28 0 .609 0 .609-.563 0-.234-.14-.328-.14-.328-.094-.047-.188-.047-.844-.047-.657 0-.797 0-1.547-.047-.89-.094-.985-.234-.985-.61 0-.046 0-.234.141-.655zm0 0"/></g><path style="marker:none" d="M282.274 625.535h-61.61l30.805-30.805zM526.634 625.535h-61.609l30.805-30.805z" color="#000" fill="#4d4d4d" fill-rule="evenodd" stroke="#1a1a1a" stroke-width="1.5" overflow="visible"/><path style="marker:none" d="M535.322 580.846c-109.262 39.176-218.11 38.987-326.55 0v-29.682c108.44 38.987 217.288 39.176 326.55 0z" color="#000" fill="#b3b3b3" stroke="#333" stroke-linecap="round" stroke-linejoin="round" overflow="visible"/><path d="M495.83 592.73v-55.507M251.498 592.73v-55.507" fill="none" stroke="#d40000" stroke-width="3" stroke-linecap="round" marker-end="url(#a)"/><path style="marker:none" d="M208.772 550.625v16c108.44 38.986 217.288 39.175 326.55 0" color="#000" fill="none" stroke="#333" stroke-linecap="round" stroke-linejoin="round" stroke-dasharray="1,2" overflow="visible"/><path style="marker:none" d="M295.482 582.277c19.086 3.875 32.604 5.242 51.925 5.867M438.53 582.277c-19.086 3.875-32.605 5.242-51.925 5.867M347.055 602.33c-19.473-.342-32.968-1.929-51.966-5.495M386.961 602.33c19.473-.342 32.968-1.929 51.966-5.495" color="#000" fill="none" stroke="purple" stroke-width="2" stroke-linecap="round" stroke-linejoin="round" marker-end="url(#a)" overflow="visible"/></svg>