<svg xmlns:ns0="http://www.iki.fi/pav/software/textext/" xmlns="http://www.w3.org/2000/svg" xmlns:xlink="http://www.w3.org/1999/xlink" width="744.094" height="1052.362"><title>Dehnung</title><defs><marker id="a" orient="auto" overflow="visible"><path transform="rotate(180) scale(.6)" d="M8.719 4.034L-2.207.016 8.719-4.002c-1.746 2.372-1.736 5.618 0 8.036z" fill-rule="evenodd" stroke-width=".625" stroke-linejoin="round"/></marker></defs><path style="marker:none" color="#000" fill="#fff" stroke="#fff" stroke-linecap="round" stroke-linejoin="round" stroke-dasharray="1.00000003,3.00000001" overflow="visible" d="M68.885 438.986h606.324v174.39H68.885z"/><path style="marker:none" color="#000" fill="#b3b3b3" stroke="#333" overflow="visible" d="M248.265 495.369H495.83v71.643H248.265z"/><path d="M248.265 531.19H137.25M495.83 531.19h111.014" fill="none" stroke="#d40000" stroke-width="3" stroke-linecap="round" marker-end="url(#a)"/><g ns0:preamble="/home/waldgeist/data/sphinx/inkscape-preamble.tex" ns0:text="$\\vec{F}$" transform="matrix(3 0 0 3 -82.589 109.488)" fill="#d40000"><defs><symbol id="b" overflow="visible"><path d="M5.36-5.938c-.141.141-.47.422-.47.594 0 .094.094.203.188.203s.14-.078.203-.14c.11-.14.344-.422.782-.64.062-.048.171-.095.171-.204 0-.11-.078-.156-.14-.203a1.034 1.034 0 0 1-.407-.563c-.03-.093-.062-.234-.203-.234-.14 0-.203.14-.203.219 0 .047.078.36.235.578h-3.36c-.156 0-.344 0-.344.203 0 .188.188.188.344.188zm0 0"/></symbol><symbol id="c" overflow="visible"><path d="M3.016-3.234h.968c.75 0 .829.156.829.437 0 .078 0 .188-.063.5-.031.047-.031.078-.031.11 0 .078.062.109.11.109.109 0 .109-.031.155-.203l.547-2.172c.032-.11.032-.125.032-.156a.117.117 0 0 0-.125-.11c-.094 0-.11.047-.141.219-.219.766-.438.953-1.297.953h-.906l.64-2.531c.094-.36.11-.39.547-.39h1.313c1.218 0 1.453.327 1.453 1.093 0 .234 0 .266-.031.547C7-4.703 7-4.688 7-4.656c0 .047.031.125.125.125.11 0 .11-.063.125-.25l.203-1.735c.031-.265-.016-.265-.266-.265h-4.89c-.188 0-.297 0-.297.203 0 .11.094.11.281.11.375 0 .656 0 .656.171 0 .047 0 .063-.062.25L1.562-.78c-.093.39-.109.469-.906.469-.172 0-.281 0-.281.187C.375 0 .5 0 .531 0c.281 0 1.031-.031 1.313-.031C2.172-.031 3 0 3.328 0c.094 0 .203 0 .203-.188 0-.078-.047-.109-.047-.109-.03-.016-.062-.016-.28-.016-.22 0-.267 0-.517-.015-.296-.031-.328-.078-.328-.203 0-.016 0-.078.047-.219zm0 0"/></symbol></defs><use y="132.246" x="224.901" xlink:href="#b" width="744.094" height="1052.362"/><use y="134.765" x="223.432" xlink:href="#c" width="744.094" height="1052.362"/></g><g ns0:text="$\\vec{F}$" ns0:preamble="/home/waldgeist/data/sphinx/inkscape-preamble.tex" fill="#d40000"><use height="1052.362" width="744.094" xlink:href="#b" x="224.901" y="132.246" transform="matrix(3 0 0 3 -538.144 109.488)"/><use height="1052.362" width="744.094" xlink:href="#c" x="223.432" y="134.765" transform="matrix(3 0 0 3 -538.144 109.488)"/></g></svg>