<svg xmlns="http://www.w3.org/2000/svg" xmlns:xlink="http://www.w3.org/1999/xlink" width="210mm" height="297mm"><title>Bernhard Grotz</title><path style="marker:none" color="#000" fill="#fff" fill-rule="evenodd" stroke="#fff" stroke-width="1.5" overflow="visible" d="M45.223 265.814h653.649v520.734H45.223z"/><g stroke-linecap="round"><path style="marker:none" color="#000" fill="#afc6e9" stroke="#87aade" stroke-linejoin="bevel" overflow="visible" d="M200.926 387.421h342.243v377.07H200.926z"/><path d="M200.866 764.607V319.465M543.228 765.494V320.352M200.926 764.492l342.243.943" fill="none" stroke="#9b9c9f" stroke-width="3"/></g><path style="marker:none" d="M378.385 657.6l-14.639-23.96.278-130.334 7.574-14.027-.599-198.712c4.924-5.433 9.847-5.783 14.77 0l-.598 198.712 7.574 14.027.278 130.333z" opacity=".4" color="#000" fill="#fff" overflow="visible"/><use height="1052.362" width="744.094" transform="matrix(.94897 .23627 -.24764 .94897 190.739 -59.878)" xlink:href="#a"/><use height="1052.362" width="744.094" transform="matrix(1.07802 .1363 -.14287 1.07802 78.988 -106.21)" xlink:href="#a"/><use height="1052.362" width="744.094" transform="matrix(.94042 -.02494 .02614 .94042 22.672 42.175)" xlink:href="#a"/><use height="1052.362" width="744.094" transform="matrix(1.03114 -.19181 .20104 1.03114 -121.82 46.527)" xlink:href="#a"/><path style="marker:none" id="a" d="M340.832 467.4a.041.041 0 1 1-.082 0 .041.041 0 1 1 .082 0z" transform="matrix(12.62827 0 0 12.33486 -3933.343 -5126.32)" color="#000" fill="#1a1a1a" stroke="gray" stroke-width=".008" stroke-linecap="round" stroke-linejoin="round" overflow="visible"/><use xlink:href="#a" transform="matrix(.91988 .18662 -.1956 .91988 159.122 -12.729)" width="744.094" height="1052.362"/><use xlink:href="#a" transform="matrix(.85856 -.60334 .63238 .85856 -343.814 312.306)" width="744.094" height="1052.362"/><use xlink:href="#a" transform="matrix(.97688 .26075 -.2733 .97688 194.552 -80.493)" width="744.094" height="1052.362"/><use xlink:href="#a" transform="matrix(1.08024 .06921 -.07255 1.08024 26.76 -74.773)" width="744.094" height="1052.362"/><use xlink:href="#a" transform="matrix(1.01426 .14932 -.15651 1.01426 105.08 -63.18)" width="744.094" height="1052.362"/><use xlink:href="#a" transform="matrix(.8758 -.59208 .62059 .8758 -342.048 301.993)" width="744.094" height="1052.362"/><use xlink:href="#a" transform="matrix(1.00325 .00337 -.00353 1.00325 8.334 .91)" width="744.094" height="1052.362"/><use xlink:href="#a" transform="matrix(.93784 -.42004 .44026 .93784 -252.235 197.151)" width="744.094" height="1052.362"/><use xlink:href="#a" transform="matrix(.86054 .40353 -.42295 .86054 326.508 -62.135)" width="744.094" height="1052.362"/><use xlink:href="#a" transform="matrix(.80877 .51857 -.54353 .80877 424.597 -71.405)" width="744.094" height="1052.362"/><use xlink:href="#a" transform="matrix(.8226 -.53144 .55702 .8226 -281.933 309.168)" width="744.094" height="1052.362"/><use xlink:href="#a" transform="matrix(.94984 .0659 -.06908 .94984 72.473 7.061)" width="744.094" height="1052.362"/><use xlink:href="#a" transform="matrix(1.0258 .28138 -.29492 1.0258 190.309 -121.492)" width="744.094" height="1052.362"/><use xlink:href="#a" transform="matrix(.92408 -.49066 .51428 .92408 -289.155 228.322)" width="744.094" height="1052.362"/><use xlink:href="#a" transform="matrix(.94471 -.07236 .07584 .94471 -15.889 61.83)" width="744.094" height="1052.362"/><use xlink:href="#a" transform="matrix(.85725 .53674 -.56258 .85725 425.847 -109.213)" width="744.094" height="1052.362"/><use xlink:href="#a" transform="matrix(.89292 -.19519 .20459 .89292 -74.63 138.472)" width="744.094" height="1052.362"/><use xlink:href="#a" transform="matrix(.90678 .3684 -.38614 .90678 296.127 -78.91)" width="744.094" height="1052.362"/><use xlink:href="#a" transform="matrix(.93575 .46881 -.49138 .93575 354.205 -135.571)" width="744.094" height="1052.362"/><use xlink:href="#a" transform="matrix(1.0926 -.07193 .0754 1.0926 -65.154 -35.152)" width="744.094" height="1052.362"/><use xlink:href="#a" transform="matrix(.84234 -.51998 .54501 .84234 -272.325 291.355)" width="744.094" height="1052.362"/><use xlink:href="#a" transform="matrix(.94124 -.05177 .05426 .94124 5.63 53.137)" width="744.094" height="1052.362"/><use xlink:href="#a" transform="matrix(.93315 -.12416 .13013 .93315 -39.066 85.187)" width="744.094" height="1052.362"/><use xlink:href="#a" transform="matrix(1.0771 .1832 -.19201 1.0771 113.97 -121.273)" width="744.094" height="1052.362"/><use xlink:href="#a" transform="matrix(.85338 -.54723 .57357 .85338 -306.085 291.14)" width="744.094" height="1052.362"/><use xlink:href="#a" transform="matrix(.97545 .17228 -.18057 .97545 128.9 -54.218)" width="744.094" height="1052.362"/><use xlink:href="#a" transform="matrix(.94992 -.3397 .35604 .94992 -204.887 152.463)" width="744.094" height="1052.362"/><use xlink:href="#a" transform="matrix(.78866 -.49198 .51567 .78866 -245.555 313.944)" width="744.094" height="1052.362"/><use xlink:href="#a" transform="matrix(.82498 -.40758 .4272 .82498 -201.837 259.85)" width="744.094" height="1052.362"/><use xlink:href="#a" transform="matrix(.89714 .4916 -.51526 .89714 377.24 -120.043)" width="744.094" height="1052.362"/><use xlink:href="#a" transform="matrix(1.0255 .23118 -.2423 1.0255 158.448 -105.713)" width="744.094" height="1052.362"/><use xlink:href="#a" transform="matrix(.92982 .4305 -.45123 .92982 330.306 -119.11)" width="744.094" height="1052.362"/><use xlink:href="#a" transform="matrix(.97231 -.06539 .06854 .97231 -18.7 38.29)" width="744.094" height="1052.362"/><use xlink:href="#a" transform="matrix(.9962 -.25843 .27088 .9962 -161.218 95.045)" width="744.094" height="1052.362"/><use xlink:href="#a" transform="matrix(.98037 .3958 -.41485 .98037 282.907 -138.145)" width="744.094" height="1052.362"/><use xlink:href="#a" transform="matrix(.94842 .09907 -.10384 .94842 98.59 -3.902)" width="744.094" height="1052.362"/><use xlink:href="#a" transform="matrix(1.03067 .18173 -.19048 1.03067 123.786 -87.947)" width="744.094" height="1052.362"/><use xlink:href="#a" transform="matrix(.91018 -.36957 .38737 .91018 -199.27 195.946)" width="744.094" height="1052.362"/><use xlink:href="#a" transform="matrix(.8359 -.5281 .55353 .8359 -279.356 304.417)" width="744.094" height="1052.362"/><use xlink:href="#a" transform="matrix(.99062 -.04532 .0475 .99062 -12.78 25.957)" width="744.094" height="1052.362"/><use xlink:href="#a" transform="matrix(.93433 -.11367 .11914 .93433 -39.314 88.454)" width="744.094" height="1052.362"/><use xlink:href="#a" transform="matrix(.939 .13501 -.14151 .939 126.01 -8.053)" width="744.094" height="1052.362"/><use xlink:href="#a" transform="matrix(1.08003 .01657 -.01736 1.08003 -5.28 -54.282)" width="744.094" height="1052.362"/><use xlink:href="#a" transform="matrix(.84983 -.51028 .53484 .84983 -269.307 286.88)" width="744.094" height="1052.362"/><use xlink:href="#a" transform="matrix(.86055 .48375 -.50704 .86055 390.405 -90.56)" width="744.094" height="1052.362"/><use xlink:href="#a" transform="matrix(.85183 -.31294 .328 .85183 -138.269 210.426)" width="744.094" height="1052.362"/><use xlink:href="#a" transform="matrix(.9249 -.0544 .05701 .9249 7.879 67.228)" width="744.094" height="1052.362"/><use xlink:href="#a" transform="matrix(.88035 .19371 -.20304 .88035 191.172 3.028)" width="744.094" height="1052.362"/><use xlink:href="#a" transform="matrix(.97379 .49093 -.51456 .97379 353.92 -166.314)" width="744.094" height="1052.362"/><use xlink:href="#a" transform="matrix(.9988 .14626 -.1533 .9988 112.545 -53.766)" width="744.094" height="1052.362"/><use xlink:href="#a" transform="matrix(1.08352 -.03767 .03948 1.08352 -43.46 -38.177)" width="744.094" height="1052.362"/><use xlink:href="#a" transform="matrix(.88615 -.21517 .22553 .88615 -89.601 155.5)" width="744.094" height="1052.362"/><use xlink:href="#a" transform="matrix(.97796 .23759 -.24903 .97796 178.304 -71.154)" width="744.094" height="1052.362"/><use xlink:href="#a" transform="matrix(.87207 -.54797 .57435 .87207 -306.469 286.51)" width="744.094" height="1052.362"/><use xlink:href="#a" transform="matrix(1.05034 .25764 -.27005 1.05034 165.127 -120.842)" width="744.094" height="1052.362"/><use xlink:href="#a" transform="matrix(.88383 -.23068 .24178 .88383 -101.727 164.337)" width="744.094" height="1052.362"/><use xlink:href="#a" transform="matrix(.83074 -.51525 .54006 .83074 -273.16 305.929)" width="744.094" height="1052.362"/><use xlink:href="#a" transform="matrix(.8276 -.34994 .36679 .8276 -164.972 245.822)" width="744.094" height="1052.362"/><use xlink:href="#a" transform="matrix(.88168 .22634 -.23723 .88168 199.983 -1.933)" width="744.094" height="1052.362"/><use xlink:href="#a" transform="matrix(.83304 -.4841 .5074 .83304 -256.164 286.991)" width="744.094" height="1052.362"/><use xlink:href="#a" transform="matrix(1.023 .0794 -.08323 1.023 47.517 -43.244)" width="744.094" height="1052.362"/><use xlink:href="#a" transform="matrix(1.06565 .15803 -.16564 1.06565 86.267 -96.482)" width="744.094" height="1052.362"/><use xlink:href="#a" transform="matrix(.88491 -.49846 .52246 .88491 -285.194 264.661)" width="744.094" height="1052.362"/><use xlink:href="#a" transform="matrix(.7911 -.52668 .55204 .7911 -273.783 331.268)" width="744.094" height="1052.362"/><use xlink:href="#a" transform="matrix(.92608 .39756 -.4167 .92608 294.522 -95.534)" width="744.094" height="1052.362"/><use xlink:href="#a" transform="matrix(.98309 .40506 -.42456 .98309 280.304 -133.69)" width="744.094" height="1052.362"/><use xlink:href="#a" transform="matrix(.96686 -.18572 .19466 .96686 -102.859 100.244)" width="744.094" height="1052.362"/><use xlink:href="#a" transform="matrix(.95676 .15443 -.16187 .95676 128.5 -15.239)" width="744.094" height="1052.362"/><use xlink:href="#a" transform="matrix(.79454 -.51885 .54383 .79454 -262.93 339.463)" width="744.094" height="1052.362"/><use xlink:href="#a" transform="matrix(.90536 .04887 -.05122 .90536 76.394 57.88)" width="744.094" height="1052.362"/><use xlink:href="#a" transform="matrix(.86452 .44467 -.46608 .86452 354.84 -66.618)" width="744.094" height="1052.362"/><use xlink:href="#a" transform="matrix(.93463 .48726 -.51071 .93463 359.046 -128.992)" width="744.094" height="1052.362"/><use xlink:href="#a" transform="matrix(.90499 -.57279 .60036 .90499 -340.79 282.062)" width="744.094" height="1052.362"/><use xlink:href="#a" transform="matrix(1.04017 .04367 -.04577 1.04017 22.065 -30.156)" width="744.094" height="1052.362"/><use xlink:href="#a" transform="matrix(1.00593 -.15255 .1599 1.00593 -93.732 64.866)" width="744.094" height="1052.362"/><use xlink:href="#a" transform="matrix(1.02536 .32947 -.34533 1.02536 220.323 -126.648)" width="744.094" height="1052.362"/><use xlink:href="#a" transform="matrix(.98889 .08819 -.09243 .98889 72.236 -13.085)" width="744.094" height="1052.362"/><use xlink:href="#a" transform="matrix(.9004 -.05564 .05832 .9004 8.075 96.948)" width="744.094" height="1052.362"/><use xlink:href="#a" transform="matrix(.98758 -.06762 .07088 .98758 -32.537 46.187)" width="744.094" height="1052.362"/><use xlink:href="#a" transform="matrix(.85018 .39152 -.41037 .85018 325.894 -37.187)" width="744.094" height="1052.362"/><use xlink:href="#a" transform="matrix(1.00875 .19749 -.207 1.00875 137.652 -65.1)" width="744.094" height="1052.362"/><use xlink:href="#a" transform="matrix(.97128 -.35471 .37179 .97128 -218.888 165.894)" width="744.094" height="1052.362"/><use xlink:href="#a" transform="matrix(1.04908 .0338 -.03543 1.04908 13.55 -28.917)" width="744.094" height="1052.362"/><use xlink:href="#a" transform="matrix(1.00214 -.20418 .214 1.00214 -128.888 89.18)" width="744.094" height="1052.362"/><use xlink:href="#a" transform="matrix(.93889 -.03825 .04009 .93889 4.125 68.078)" width="744.094" height="1052.362"/><use xlink:href="#a" transform="matrix(.92656 .29301 -.30712 .92656 228.945 -53.403)" width="744.094" height="1052.362"/><use xlink:href="#a" transform="matrix(.9098 .49873 -.52274 .9098 374.395 -117.056)" width="744.094" height="1052.362"/><use xlink:href="#a" transform="matrix(.84078 -.3837 .40218 .84078 -191.873 255.537)" width="744.094" height="1052.362"/><use xlink:href="#a" transform="matrix(.88482 -.49338 .51713 .88482 -282.753 266.491)" width="744.094" height="1052.362"/><use xlink:href="#a" transform="matrix(.89376 -.15487 .16232 .89376 -59.689 132.988)" width="744.094" height="1052.362"/><use xlink:href="#a" transform="matrix(1.04082 .1629 -.17075 1.04082 100.037 -78.145)" width="744.094" height="1052.362"/><use xlink:href="#a" transform="matrix(.97142 -.1847 .1936 .97142 -101.079 90.461)" width="744.094" height="1052.362"/><use xlink:href="#a" transform="matrix(.97083 -.44194 .46322 .97083 -275.722 191.9)" width="744.094" height="1052.362"/><use xlink:href="#a" transform="matrix(.94952 .06865 -.07195 .94952 73.925 15.712)" width="744.094" height="1052.362"/><use xlink:href="#a" transform="matrix(.8859 -.28307 .2967 .8859 -137.153 188.08)" width="744.094" height="1052.362"/><use xlink:href="#a" transform="matrix(.87756 .49513 -.51897 .87756 387.074 -95.522)" width="744.094" height="1052.362"/><use xlink:href="#a" transform="matrix(.92574 .35399 -.37103 .92574 274.664 -74.67)" width="744.094" height="1052.362"/><use xlink:href="#a" transform="matrix(1.09278 .00941 -.00986 1.09278 -28.173 -64.546)" width="744.094" height="1052.362"/><use xlink:href="#a" transform="matrix(.99648 .3312 -.34714 .99648 223.818 -122.094)" width="744.094" height="1052.362"/><use xlink:href="#a" transform="matrix(.98918 -.23804 .2495 .98918 -156.99 88.971)" width="744.094" height="1052.362"/><use xlink:href="#a" transform="matrix(.86179 .2645 -.27723 .86179 233.635 -12.643)" width="744.094" height="1052.362"/><use xlink:href="#a" transform="matrix(.89498 .46586 -.48829 .89498 354.951 -108.539)" width="744.094" height="1052.362"/><use xlink:href="#a" transform="matrix(.99072 -.36324 .38073 .99072 -238.156 136.524)" width="744.094" height="1052.362"/><use xlink:href="#a" transform="matrix(.90643 -.2673 .28018 .90643 -142.974 156.506)" width="744.094" height="1052.362"/><use xlink:href="#a" transform="matrix(.93194 -.17864 .18724 .93194 -90.721 107.98)" width="744.094" height="1052.362"/><use xlink:href="#a" transform="matrix(.90003 -.44684 .46835 .90003 -260 228.353)" width="744.094" height="1052.362"/><use xlink:href="#a" transform="matrix(.96741 -.14492 .1519 .96741 -83.479 78.671)" width="744.094" height="1052.362"/><use xlink:href="#a" transform="matrix(.93546 -.42004 .44026 .93546 -254.509 199.09)" width="744.094" height="1052.362"/><use xlink:href="#a" transform="matrix(.93173 -.56755 .59487 .93173 -352.29 256.778)" width="744.094" height="1052.362"/><use xlink:href="#a" transform="matrix(1.01708 .1408 -.14757 1.01708 90.433 -59.036)" width="744.094" height="1052.362"/><use xlink:href="#a" transform="matrix(.94142 -.4231 .44347 .94142 -258.522 197.551)" width="744.094" height="1052.362"/><use xlink:href="#a" transform="matrix(.90912 -.09383 .09835 .90912 -24.498 92.3)" width="744.094" height="1052.362"/><use xlink:href="#a" transform="matrix(.80149 -.5084 .53287 .80149 -258.821 315.778)" width="744.094" height="1052.362"/><use xlink:href="#a" transform="matrix(.92284 .46012 -.48227 .92284 343.451 -118.689)" width="744.094" height="1052.362"/><use xlink:href="#a" transform="matrix(.99057 -.27316 .28631 .99057 -171.201 109.699)" width="744.094" height="1052.362"/><use xlink:href="#a" transform="matrix(.87443 .55448 -.58117 .87443 427.924 -121.006)" width="744.094" height="1052.362"/><use xlink:href="#a" transform="matrix(.9208 .49761 -.52157 .9208 372.077 -124.918)" width="744.094" height="1052.362"/><use xlink:href="#a" transform="matrix(1.0493 .22879 -.2398 1.0493 138.081 -108.26)" width="744.094" height="1052.362"/><use xlink:href="#a" transform="matrix(.92565 -.01396 .01463 .92565 27.857 63.696)" width="744.094" height="1052.362"/><use xlink:href="#a" transform="matrix(.9321 .35905 -.37633 .9321 276.38 -89.488)" width="744.094" height="1052.362"/><use xlink:href="#a" transform="matrix(.93583 -.17074 .17896 .93583 -80.422 104.927)" width="744.094" height="1052.362"/><use xlink:href="#a" transform="matrix(1.0049 -.0358 .03752 1.0049 -14.887 10.811)" width="744.094" height="1052.362"/><use xlink:href="#a" transform="matrix(.8558 .27388 -.28707 .8558 248.085 -5.435)" width="744.094" height="1052.362"/><use xlink:href="#a" transform="matrix(.92255 .23281 -.24402 .92255 195.349 -30.944)" width="744.094" height="1052.362"/><use xlink:href="#a" transform="matrix(1.05406 -.13451 .14099 1.05406 -100.22 21.136)" width="744.094" height="1052.362"/><use xlink:href="#a" transform="matrix(.8777 -.45036 .47204 .8777 -250.506 252.19)" width="744.094" height="1052.362"/><use xlink:href="#a" transform="matrix(.9455 .456 -.47795 .9455 335.015 -128.456)" width="744.094" height="1052.362"/><use xlink:href="#a" transform="matrix(.91256 .40713 -.42673 .91256 312.843 -87.168)" width="744.094" height="1052.362"/><use xlink:href="#a" transform="matrix(1.00822 -.42874 .44938 1.00822 -282.78 160.043)" width="744.094" height="1052.362"/><use xlink:href="#a" transform="matrix(.90694 -.1604 .16811 .90694 -65.793 124.901)" width="744.094" height="1052.362"/><use xlink:href="#a" transform="matrix(1.03735 -.02225 .02333 1.03735 -21.243 -8.443)" width="744.094" height="1052.362"/><use xlink:href="#a" transform="matrix(.94412 .50872 -.53321 .94412 370.015 -147.395)" width="744.094" height="1052.362"/><use xlink:href="#a" transform="matrix(.93185 -.41752 .43762 .93185 -244.01 204.247)" width="744.094" height="1052.362"/><use xlink:href="#a" transform="matrix(.9605 -.10256 .1075 .9605 -43.463 71.626)" width="744.094" height="1052.362"/><use xlink:href="#a" transform="matrix(.91835 .11558 -.12114 .91835 120.506 16.514)" width="744.094" height="1052.362"/><use xlink:href="#a" transform="matrix(.8921 .1381 -.14474 .8921 144.27 26.45)" width="744.094" height="1052.362"/><use xlink:href="#a" transform="matrix(.86764 .3445 -.36108 .86764 292.682 -36.945)" width="744.094" height="1052.362"/><use xlink:href="#a" transform="matrix(.87413 .27084 -.28387 .87413 240.755 -13.224)" width="744.094" height="1052.362"/><use xlink:href="#a" transform="matrix(.81416 -.56002 .58697 .81416 -291.895 332.082)" width="744.094" height="1052.362"/><use xlink:href="#a" transform="matrix(.93041 -.15194 .15926 .93041 -62.172 106.392)" width="744.094" height="1052.362"/><use xlink:href="#a" transform="matrix(1.00897 -.0482 .05053 1.00897 -21.472 16.005)" width="744.094" height="1052.362"/><use xlink:href="#a" transform="matrix(.99093 .06896 -.07228 .99093 64.28 -14.285)" width="744.094" height="1052.362"/><use xlink:href="#a" transform="matrix(.9065 -.3027 .31728 .9065 -156.072 178.074)" width="744.094" height="1052.362"/><use xlink:href="#a" transform="matrix(.9506 -.21827 .22878 .9506 -115.421 119.895)" width="744.094" height="1052.362"/><use xlink:href="#a" transform="matrix(.86498 -.48723 .51068 .86498 -265.838 273.564)" width="744.094" height="1052.362"/><use xlink:href="#a" transform="matrix(.99583 -.05179 .05428 .99583 -21.693 29.426)" width="744.094" height="1052.362"/><use xlink:href="#a" transform="matrix(.90213 -.35215 .3691 .90213 -194.618 189.586)" width="744.094" height="1052.362"/><use xlink:href="#a" transform="matrix(.77646 -.52725 .55263 .77646 -264.988 335.157)" width="744.094" height="1052.362"/><use xlink:href="#a" transform="matrix(.956 .11943 -.12518 .956 102.08 -17.636)" width="744.094" height="1052.362"/><use xlink:href="#a" transform="matrix(.91342 -.05122 .05368 .91342 4.872 73.11)" width="744.094" height="1052.362"/><use xlink:href="#a" transform="matrix(.90555 -.06113 .06407 .90555 -.091 82.933)" width="744.094" height="1052.362"/><use xlink:href="#a" transform="matrix(1.0557 .1263 -.13237 1.0557 69.684 -81.377)" width="744.094" height="1052.362"/><use xlink:href="#a" transform="matrix(.88735 .21671 -.22714 .88735 193.362 -6.717)" width="744.094" height="1052.362"/><use xlink:href="#a" transform="matrix(.8719 -.31715 .33242 .8719 -159.289 199.967)" width="744.094" height="1052.362"/><use xlink:href="#a" transform="matrix(.97508 .28899 -.3029 .97508 208.542 -89.064)" width="744.094" height="1052.362"/><use xlink:href="#a" transform="matrix(.89572 -.16611 .17411 .89572 -68.93 130.194)" width="744.094" height="1052.362"/><use xlink:href="#a" transform="matrix(.86695 -.42906 .44972 .86695 -233.362 245.53)" width="744.094" height="1052.362"/><use xlink:href="#a" transform="matrix(1.01925 -.38206 .40046 1.01925 -260.74 130.787)" width="744.094" height="1052.362"/><use xlink:href="#a" transform="matrix(.9787 -.18514 .19405 .9787 -115.365 84.783)" width="744.094" height="1052.362"/><use xlink:href="#a" transform="matrix(.85332 -.47707 .50004 .85332 -265.023 271.043)" width="744.094" height="1052.362"/><use xlink:href="#a" transform="matrix(1.05645 -.14696 .15404 1.05645 -117.776 17.036)" width="744.094" height="1052.362"/><use xlink:href="#a" transform="matrix(.7323 .51245 -.53712 .7323 443.095 -18.317)" width="744.094" height="1052.362"/><use xlink:href="#a" transform="matrix(.91868 -.51706 .54195 .91868 -314.55 244.249)" width="744.094" height="1052.362"/><use xlink:href="#a" transform="matrix(.95859 -.2154 .22578 .95859 -127.247 106.263)" width="744.094" height="1052.362"/><use xlink:href="#a" transform="matrix(.74813 .50398 -.52824 .74813 432.31 -24.797)" width="744.094" height="1052.362"/><use xlink:href="#a" transform="matrix(1.07124 -.13028 .13655 1.07124 -112.235 3.693)" width="744.094" height="1052.362"/><use xlink:href="#a" transform="matrix(1.0864 -.1684 .1765 1.0864 -142.923 8.121)" width="744.094" height="1052.362"/><use xlink:href="#a" transform="matrix(.9788 .20502 -.2149 .9788 145.87 -62.326)" width="744.094" height="1052.362"/><use xlink:href="#a" transform="matrix(.91328 .34472 -.36132 .91328 263.656 -71.32)" width="744.094" height="1052.362"/><use xlink:href="#a" transform="matrix(.90207 -.40618 .42574 .90207 -234.682 212.917)" width="744.094" height="1052.362"/><use xlink:href="#a" transform="matrix(.8462 .4614 -.48361 .8462 365.402 -71.738)" width="744.094" height="1052.362"/><use xlink:href="#a" transform="matrix(.92796 .43217 -.45298 .92796 318.49 -114.856)" width="744.094" height="1052.362"/><use xlink:href="#a" transform="matrix(.94632 -.45863 .4807 .94632 -286.807 203.268)" width="744.094" height="1052.362"/><use xlink:href="#a" transform="matrix(.95843 .3774 -.39557 .95843 267.803 -114.197)" width="744.094" height="1052.362"/><use xlink:href="#a" transform="matrix(.92906 -.00431 .00452 .92906 23.99 47.085)" width="744.094" height="1052.362"/><use xlink:href="#a" transform="matrix(.91324 .27465 -.28788 .91324 213.97 -48.153)" width="744.094" height="1052.362"/><use xlink:href="#a" transform="matrix(.88 .22925 -.24028 .88 196.234 -10.806)" width="744.094" height="1052.362"/><use xlink:href="#a" transform="matrix(.81029 -.51218 .53683 .81029 -274.46 307.288)" width="744.094" height="1052.362"/><use xlink:href="#a" transform="matrix(.95324 .52321 -.5484 .95324 363.808 -167.339)" width="744.094" height="1052.362"/><use xlink:href="#a" transform="matrix(1.08434 -.01978 .02073 1.08434 -46.081 -48.02)" width="744.094" height="1052.362"/><use xlink:href="#a" transform="matrix(.77772 -.53217 .55778 .77772 -276.657 335.187)" width="744.094" height="1052.362"/><use xlink:href="#a" transform="matrix(.8732 .48778 -.51126 .8732 370.011 -105.153)" width="744.094" height="1052.362"/><use xlink:href="#a" transform="matrix(.89193 .27847 -.29187 .89193 224.517 -39.358)" width="744.094" height="1052.362"/><use xlink:href="#a" transform="matrix(.92787 -.48728 .51073 .92787 -299.443 222.35)" width="744.094" height="1052.362"/><use xlink:href="#a" transform="matrix(.99502 .38997 -.40874 .99502 262.345 -145.005)" width="744.094" height="1052.362"/><use xlink:href="#a" transform="matrix(.92952 .57244 -.6 .92952 407.986 -171.388)" width="744.094" height="1052.362"/><use xlink:href="#a" transform="matrix(1.0299 -.01673 .01753 1.0299 -21.425 -16.534)" width="744.094" height="1052.362"/><use xlink:href="#a" transform="matrix(.8488 -.46623 .48868 .8488 -256.198 264.586)" width="744.094" height="1052.362"/><use xlink:href="#a" transform="matrix(.9536 -.19397 .20331 .9536 -111.75 98.393)" width="744.094" height="1052.362"/><use xlink:href="#a" transform="matrix(.94114 .2448 -.2566 .94114 185.824 -56.234)" width="744.094" height="1052.362"/><use xlink:href="#a" transform="matrix(1.02237 -.10808 .11328 1.02237 -78.921 22.557)" width="744.094" height="1052.362"/><use xlink:href="#a" transform="matrix(.87474 .46147 -.48368 .87474 357.19 -95.312)" width="744.094" height="1052.362"/><use xlink:href="#a" transform="matrix(.80032 .53214 -.55775 .80032 432.392 -74.71)" width="744.094" height="1052.362"/><use xlink:href="#a" transform="matrix(.85074 .30695 -.32173 .85074 265.225 -23.065)" width="744.094" height="1052.362"/><use xlink:href="#a" transform="matrix(.891 -.21176 .22196 .891 -96.927 145.377)" width="744.094" height="1052.362"/><use xlink:href="#a" transform="matrix(1.03461 -.03141 .03292 1.03461 -28.114 -14.318)" width="744.094" height="1052.362"/><use xlink:href="#a" transform="matrix(1.00871 -.33823 .35451 1.00871 -229.425 114.269)" width="744.094" height="1052.362"/><use xlink:href="#a" transform="matrix(.89896 -.26722 .28008 .89896 -138.197 160.456)" width="744.094" height="1052.362"/><use xlink:href="#a" transform="matrix(.92633 .1748 -.18322 .92633 148.642 -18.944)" width="744.094" height="1052.362"/><use xlink:href="#a" transform="matrix(.88266 -.40024 .41951 .88266 -222.142 220)" width="744.094" height="1052.362"/><use xlink:href="#a" transform="matrix(.84847 -.52494 .5502 .84847 -292.63 288.843)" width="744.094" height="1052.362"/><use xlink:href="#a" transform="matrix(.84356 -.36703 .3847 .84356 -185.899 233.483)" width="744.094" height="1052.362"/><use xlink:href="#a" transform="matrix(1.0188 -.38483 .40335 1.0188 -263.257 129.962)" width="744.094" height="1052.362"/><use xlink:href="#a" transform="matrix(.91038 -.42076 .44102 .91038 -249.65 211.524)" width="744.094" height="1052.362"/><use xlink:href="#a" transform="matrix(.84025 .36774 -.38544 .84025 305.092 -35.098)" width="744.094" height="1052.362"/><use xlink:href="#a" transform="matrix(.81641 .5069 -.5313 .81641 407.513 -71.113)" width="744.094" height="1052.362"/><use xlink:href="#a" transform="matrix(.96143 -.3557 .37282 .96143 -224.55 156.011)" width="744.094" height="1052.362"/><use xlink:href="#a" transform="matrix(.96198 -.30745 .32225 .96198 -192.588 139.931)" width="744.094" height="1052.362"/><use xlink:href="#a" transform="matrix(.9446 .242 -.25365 .9446 183.422 -53.351)" width="744.094" height="1052.362"/><use xlink:href="#a" transform="matrix(1.01534 .31719 -.33246 1.01534 206.75 -124.223)" width="744.094" height="1052.362"/><use xlink:href="#a" transform="matrix(1.05328 -.2275 .23844 1.05328 -170.95 51.918)" width="744.094" height="1052.362"/><use xlink:href="#a" transform="matrix(.76248 -.52767 .55307 .76248 -265.468 348.443)" width="744.094" height="1052.362"/><use xlink:href="#a" transform="matrix(1.04051 .34087 -.35728 1.04051 213.585 -150.122)" width="744.094" height="1052.362"/><use xlink:href="#a" transform="matrix(.84477 -.43714 .45818 .84477 -234.309 264.431)" width="744.094" height="1052.362"/><use xlink:href="#a" transform="matrix(.82927 -.37258 .39051 .82927 -183.551 251.438)" width="744.094" height="1052.362"/><use xlink:href="#a" transform="matrix(.94527 .0412 -.04318 .94527 47.425 22.125)" width="744.094" height="1052.362"/><use xlink:href="#a" transform="matrix(1.04513 .03292 -.0345 1.04513 5.701 -37.156)" width="744.094" height="1052.362"/><use xlink:href="#a" transform="matrix(1.05024 .23768 -.24912 1.05024 141.732 -115.001)" width="744.094" height="1052.362"/><use xlink:href="#a" transform="matrix(.92848 -.48764 .51112 .92848 -298.019 230.981)" width="744.094" height="1052.362"/><use xlink:href="#a" transform="matrix(1.02064 .34942 -.36624 1.02064 228.112 -136.857)" width="744.094" height="1052.362"/><use xlink:href="#a" transform="matrix(.93596 .4156 -.4356 .93596 306.73 -106.847)" width="744.094" height="1052.362"/><use xlink:href="#a" transform="matrix(.93836 -.0565 .05922 .93836 -10.167 65.839)" width="744.094" height="1052.362"/><use xlink:href="#a" transform="matrix(1.04906 -.21812 .22862 1.04906 -159.82 56.31)" width="744.094" height="1052.362"/><use xlink:href="#a" transform="matrix(.81233 -.54775 .57412 .81233 -295.287 329.035)" width="744.094" height="1052.362"/><use xlink:href="#a" transform="matrix(.91334 -.38793 .4066 .91334 -225.333 205.812)" width="744.094" height="1052.362"/><use xlink:href="#a" transform="matrix(.98122 .3681 -.38583 .98122 256.898 -117.422)" width="744.094" height="1052.362"/><use xlink:href="#a" transform="matrix(1.06409 -.10084 .1057 1.06409 -86.137 3.016)" width="744.094" height="1052.362"/><use xlink:href="#a" transform="matrix(.9752 .25185 -.26397 .9752 180.55 -69.917)" width="744.094" height="1052.362"/><use xlink:href="#a" transform="matrix(.96787 -.04603 .04824 .96787 -15.91 43.69)" width="744.094" height="1052.362"/><use xlink:href="#a" transform="matrix(.81604 .4815 -.50468 .81604 394.43 -53.446)" width="744.094" height="1052.362"/><use xlink:href="#a" transform="matrix(.7675 .47529 -.49817 .7675 409.545 -20.079)" width="744.094" height="1052.362"/><use xlink:href="#a" transform="matrix(.87006 .5504 -.5769 .87006 421.451 -112.127)" width="744.094" height="1052.362"/><use xlink:href="#a" transform="matrix(.82865 -.47607 .499 .82865 -251.46 293.89)" width="744.094" height="1052.362"/><use xlink:href="#a" transform="matrix(1.016 .32708 -.34283 1.016 217.923 -121.81)" width="744.094" height="1052.362"/><use xlink:href="#a" transform="matrix(.82192 .47798 -.501 .82192 391.447 -54.098)" width="744.094" height="1052.362"/><use xlink:href="#a" transform="matrix(.74343 -.51111 .53572 .74343 -241.631 362.853)" width="744.094" height="1052.362"/><use xlink:href="#a" transform="matrix(.91138 -.09658 .10123 .91138 -27.49 101.708)" width="744.094" height="1052.362"/><use xlink:href="#a" transform="matrix(.85367 .45081 -.47252 .85367 362.384 -62.6)" width="744.094" height="1052.362"/><use xlink:href="#a" transform="matrix(.94562 -.44107 .4623 .94562 -270.359 209.207)" width="744.094" height="1052.362"/><use xlink:href="#a" transform="matrix(.91327 .49461 -.51842 .91327 369.05 -116.442)" width="744.094" height="1052.362"/><use xlink:href="#a" transform="matrix(.86359 .32063 -.33606 .86359 270.517 -19.753)" width="744.094" height="1052.362"/><use xlink:href="#a" transform="matrix(.80074 -.55858 .58547 .80074 -296.041 344.617)" width="744.094" height="1052.362"/><use xlink:href="#a" transform="matrix(.80563 -.41262 .43248 .80563 -201.135 285.511)" width="744.094" height="1052.362"/><use xlink:href="#a" transform="matrix(1.0613 .20478 -.21464 1.0613 118.182 -105.947)" width="744.094" height="1052.362"/><use xlink:href="#a" transform="matrix(.85316 -.31726 .33253 .85316 -152.395 221.77)" width="744.094" height="1052.362"/><use xlink:href="#a" transform="matrix(.97325 .38062 -.39894 .97325 268.868 -114.138)" width="744.094" height="1052.362"/><use xlink:href="#a" transform="matrix(.93531 .38212 -.40052 .93531 286.32 -94.212)" width="744.094" height="1052.362"/><use xlink:href="#a" transform="matrix(.84235 .40585 -.42538 .84235 338.084 -39.386)" width="744.094" height="1052.362"/><use xlink:href="#a" transform="matrix(.94614 -.02628 .02755 .94614 8.678 54.292)" width="744.094" height="1052.362"/><use xlink:href="#a" transform="matrix(.7931 .41668 -.43674 .7931 363.91 -15.84)" width="744.094" height="1052.362"/><use xlink:href="#a" transform="matrix(.85486 .45693 -.47893 .85486 367.902 -66.38)" width="744.094" height="1052.362"/><use xlink:href="#a" transform="matrix(.96112 -.37921 .39747 .96112 -232.775 177.62)" width="744.094" height="1052.362"/><use xlink:href="#a" transform="matrix(.94894 .40169 -.42102 .94894 293.727 -103.605)" width="744.094" height="1052.362"/><use xlink:href="#a" transform="matrix(1.09204 .02282 -.02392 1.09204 -12.652 -54.171)" width="744.094" height="1052.362"/><use xlink:href="#a" transform="matrix(.94057 -.28469 .2984 .94057 -161.617 156.702)" width="744.094" height="1052.362"/><use xlink:href="#a" transform="matrix(.9238 .06117 -.06411 .9238 76.726 38.69)" width="744.094" height="1052.362"/><use xlink:href="#a" transform="matrix(.82668 .56404 -.5912 .82668 451.21 -84.718)" width="744.094" height="1052.362"/><use xlink:href="#a" transform="matrix(.89273 -.4179 .438 .89273 -232.65 238.863)" width="744.094" height="1052.362"/><use xlink:href="#a" transform="matrix(.96052 .38554 -.4041 .96052 280.723 -102.227)" width="744.094" height="1052.362"/><use xlink:href="#a" transform="matrix(1.00337 .42827 -.44889 1.00337 293.054 -146.432)" width="744.094" height="1052.362"/><use xlink:href="#a" transform="matrix(.94646 -.52563 .55093 .94646 -325.734 242.884)" width="744.094" height="1052.362"/><use xlink:href="#a" transform="matrix(.90236 .0405 -.04244 .90236 72.777 61.627)" width="744.094" height="1052.362"/><use xlink:href="#a" transform="matrix(1.05893 -.02215 .02322 1.05893 -29.04 -15.815)" width="744.094" height="1052.362"/><use xlink:href="#a" transform="matrix(.89145 .46222 -.48448 .89145 356.728 -88.925)" width="744.094" height="1052.362"/><use xlink:href="#a" transform="matrix(.78024 .45961 -.48174 .78024 399.075 -16.12)" width="744.094" height="1052.362"/><use xlink:href="#a" transform="matrix(.97339 .31142 -.32641 .97339 228.214 -85.622)" width="744.094" height="1052.362"/><use xlink:href="#a" transform="matrix(.91193 -.29566 .3099 .91193 -154.375 177.384)" width="744.094" height="1052.362"/><use xlink:href="#a" transform="matrix(.91032 .16947 -.17763 .91032 155.054 5.949)" width="744.094" height="1052.362"/><use xlink:href="#a" transform="matrix(.8318 .50264 -.52684 .8318 409.26 -65.716)" width="744.094" height="1052.362"/><use xlink:href="#a" transform="matrix(.97943 .04138 -.04337 .97943 47.17 8.089)" width="744.094" height="1052.362"/><use xlink:href="#a" transform="matrix(.93753 .341 -.35742 .93753 262.487 -76.002)" width="744.094" height="1052.362"/><use xlink:href="#a" transform="matrix(1.06357 -.06564 .0688 1.06357 -56.995 -5.093)" width="744.094" height="1052.362"/><use xlink:href="#a" transform="matrix(.95267 -.1784 .18698 .95267 -90.462 107.255)" width="744.094" height="1052.362"/><use xlink:href="#a" transform="matrix(.92205 .57597 -.6037 .92205 425.952 -154.193)" width="744.094" height="1052.362"/><use xlink:href="#a" transform="matrix(1.04996 -.02617 .02743 1.04996 -25.61 -13.136)" width="744.094" height="1052.362"/><use xlink:href="#a" transform="matrix(1.09252 .06703 -.07026 1.09252 21.778 -74.438)" width="744.094" height="1052.362"/><use xlink:href="#a" transform="matrix(.97736 -.41193 .43176 .97736 -254.496 175.282)" width="744.094" height="1052.362"/><use xlink:href="#a" transform="matrix(1.02173 -.27309 .28623 1.02173 -178.277 96.189)" width="744.094" height="1052.362"/><use xlink:href="#a" transform="matrix(.87752 -.42488 .44533 .87752 -227 244.43)" width="744.094" height="1052.362"/><use xlink:href="#a" transform="matrix(.96137 .24319 -.2549 .96137 190.637 -57.744)" width="744.094" height="1052.362"/><use xlink:href="#a" transform="matrix(.83455 -.34491 .36151 .83455 -157.496 241.425)" width="744.094" height="1052.362"/><use xlink:href="#a" transform="matrix(.91233 .25495 -.26723 .91233 216.995 -31.325)" width="744.094" height="1052.362"/><use xlink:href="#a" transform="matrix(1.01506 .40181 -.42116 1.01506 276.546 -152.541)" width="744.094" height="1052.362"/><use xlink:href="#a" transform="matrix(1.01486 -.25112 .2632 1.01486 -157.222 86.012)" width="744.094" height="1052.362"/><use xlink:href="#a" transform="matrix(.81996 .53232 -.55795 .81996 432.457 -79.32)" width="744.094" height="1052.362"/><use xlink:href="#a" transform="matrix(.96922 -.34454 .36113 .96922 -204.547 150.991)" width="744.094" height="1052.362"/><use xlink:href="#a" transform="matrix(.89488 -.56644 .5937 .89488 -325.387 281.81)" width="744.094" height="1052.362"/><use xlink:href="#a" transform="matrix(1.0258 -.11013 .11543 1.0258 -68.925 28.816)" width="744.094" height="1052.362"/><use xlink:href="#a" transform="matrix(.93483 .35859 -.37585 .93483 281.535 -89.655)" width="744.094" height="1052.362"/><use xlink:href="#a" transform="matrix(.82523 .45795 -.48 .82523 386.843 -53.56)" width="744.094" height="1052.362"/><use xlink:href="#a" transform="matrix(.96272 .35341 -.37042 .96272 266.256 -103.272)" width="744.094" height="1052.362"/><use xlink:href="#a" transform="matrix(.93864 -.06452 .06762 .93864 -5.321 65.31)" width="744.094" height="1052.362"/><use xlink:href="#a" transform="matrix(.94949 .39224 -.41112 .94949 297.54 -109.823)" width="744.094" height="1052.362"/><use xlink:href="#a" transform="matrix(1.01858 .13555 -.14208 1.01858 99.413 -60.854)" width="744.094" height="1052.362"/><use xlink:href="#a" transform="matrix(1.05143 .20623 -.21616 1.05143 134.857 -108.571)" width="744.094" height="1052.362"/><use xlink:href="#a" transform="matrix(.7995 -.4711 .49377 .7995 -225.952 302.714)" width="744.094" height="1052.362"/><use xlink:href="#a" transform="matrix(.84759 -.39111 .40994 .84759 -190.884 244.078)" width="744.094" height="1052.362"/><use xlink:href="#a" transform="matrix(.83995 -.49638 .52028 .83995 -259.13 287.608)" width="744.094" height="1052.362"/><use xlink:href="#a" transform="matrix(.84356 .3572 -.3744 .84356 310.288 -30.864)" width="744.094" height="1052.362"/><use xlink:href="#a" transform="matrix(.99076 .26191 -.27452 .99076 190.97 -89.938)" width="744.094" height="1052.362"/><use xlink:href="#a" transform="matrix(.92457 -.38747 .40612 .92457 -219.268 193.231)" width="744.094" height="1052.362"/><use xlink:href="#a" transform="matrix(.94897 .23627 -.24764 .94897 189.71 -54.48)" width="744.094" height="1052.362"/><use xlink:href="#a" transform="matrix(.97413 .2301 -.24118 .97413 176.92 -68.33)" width="744.094" height="1052.362"/><use xlink:href="#a" transform="matrix(.94042 -.02494 .02614 .94042 21.028 47.61)" width="744.094" height="1052.362"/><use xlink:href="#a" transform="matrix(1.02972 .27404 -.28724 1.02972 187.924 -119.08)" width="744.094" height="1052.362"/><use xlink:href="#a" transform="matrix(1.06332 -.11937 .12512 1.06332 -87.098 5.252)" width="744.094" height="1052.362"/><use xlink:href="#a" transform="matrix(.92165 -.45732 .47934 .92165 -262.175 220.476)" width="744.094" height="1052.362"/><use xlink:href="#a" transform="matrix(.8319 -.51322 .53793 .8319 -265.118 296.764)" width="744.094" height="1052.362"/><use xlink:href="#a" transform="matrix(1.0693 .05638 -.0591 1.0693 23.9 -64.815)" width="744.094" height="1052.362"/><use xlink:href="#a" transform="matrix(.81281 -.50149 .52563 .81281 -252.899 305.14)" width="744.094" height="1052.362"/><use xlink:href="#a" transform="matrix(.85784 -.27558 .28885 .85784 -118.653 192.86)" width="744.094" height="1052.362"/><use xlink:href="#a" transform="matrix(.8439 -.43462 .45554 .8439 -218.594 260.979)" width="744.094" height="1052.362"/><use xlink:href="#a" transform="matrix(.94434 .22835 -.23934 .94434 187.564 -48.762)" width="744.094" height="1052.362"/><use xlink:href="#a" transform="matrix(1.07802 .1363 -.14287 1.07802 76.884 -99.398)" width="744.094" height="1052.362"/><use xlink:href="#a" transform="matrix(.97737 -.23063 .24173 .97737 -132.37 100.865)" width="744.094" height="1052.362"/><use xlink:href="#a" transform="matrix(.92222 .22174 -.23241 .92222 193.166 -30.134)" width="744.094" height="1052.362"/><use xlink:href="#a" transform="matrix(.93525 .3094 -.3243 .93525 245.024 -70.778)" width="744.094" height="1052.362"/><use xlink:href="#a" transform="matrix(1.022 .30176 -.31629 1.022 206.837 -122.239)" width="744.094" height="1052.362"/><use xlink:href="#a" transform="matrix(.94003 -.11191 .1173 .94003 -38.791 83.223)" width="744.094" height="1052.362"/><use xlink:href="#a" transform="matrix(.92254 -.37272 .39066 .92254 -206.427 190.334)" width="744.094" height="1052.362"/><use xlink:href="#a" transform="matrix(.93897 .2161 -.2265 .93897 182.624 -38.043)" width="744.094" height="1052.362"/><use xlink:href="#a" transform="matrix(.78757 .43638 -.45738 .78757 384.128 -21.99)" width="744.094" height="1052.362"/><use xlink:href="#a" transform="matrix(.93913 -.08397 .088 .93913 -20.242 74.964)" width="744.094" height="1052.362"/><use xlink:href="#a" transform="matrix(.88534 .51174 -.53637 .88534 398.444 -109.909)" width="744.094" height="1052.362"/><use xlink:href="#a" transform="matrix(1.04264 -.02628 .02754 1.04264 -20.272 -11.433)" width="744.094" height="1052.362"/><use xlink:href="#a" transform="matrix(.94051 -.3618 .3792 .94051 -208.327 178.095)" width="744.094" height="1052.362"/><use xlink:href="#a" transform="matrix(.76276 .5095 -.53402 .76276 439.647 -32.806)" width="744.094" height="1052.362"/><use xlink:href="#a" transform="matrix(.95596 -.2257 .23656 .95596 -124.256 115.284)" width="744.094" height="1052.362"/><use xlink:href="#a" transform="matrix(.82605 -.57432 .60197 .82605 -309.906 329.553)" width="744.094" height="1052.362"/><use xlink:href="#a" transform="matrix(.84944 .48342 -.5067 .84944 391.692 -78.138)" width="744.094" height="1052.362"/><use xlink:href="#a" transform="matrix(1.02596 .31927 -.33464 1.02596 218.035 -129.751)" width="744.094" height="1052.362"/><use xlink:href="#a" transform="matrix(.99302 -.0721 .07557 .99302 -32.978 37.188)" width="744.094" height="1052.362"/><use xlink:href="#a" transform="matrix(1.0435 .08408 -.08813 1.0435 52.713 -54.363)" width="744.094" height="1052.362"/><use xlink:href="#a" transform="matrix(.8253 -.44725 .46878 .8253 -221.786 281.73)" width="744.094" height="1052.362"/><use xlink:href="#a" transform="matrix(.8913 .41106 -.43085 .8913 324.864 -77.662)" width="744.094" height="1052.362"/><use xlink:href="#a" transform="matrix(.93822 .03393 -.03557 .93822 56.508 32.128)" width="744.094" height="1052.362"/><use xlink:href="#a" transform="matrix(.96316 .09744 -.10213 .96316 89.162 -7.479)" width="744.094" height="1052.362"/><use xlink:href="#a" transform="matrix(1.01825 .04095 -.04292 1.01825 30.44 -20.442)" width="744.094" height="1052.362"/><use xlink:href="#a" transform="matrix(.97403 .34133 -.35776 .97403 247.788 -102.934)" width="744.094" height="1052.362"/><use xlink:href="#a" transform="matrix(.98075 .23707 -.24848 .98075 179.95 -68.896)" width="744.094" height="1052.362"/><use xlink:href="#a" transform="matrix(.86184 .48605 -.50945 .86184 389.904 -86.547)" width="744.094" height="1052.362"/><use xlink:href="#a" transform="matrix(.98007 -.14757 .15467 .98007 -78.936 72.81)" width="744.094" height="1052.362"/><use xlink:href="#a" transform="matrix(.94048 -.19426 .2036 .94048 -99.956 124.307)" width="744.094" height="1052.362"/><use xlink:href="#a" transform="matrix(.97328 -.32823 .34403 .97328 -198.612 143.005)" width="744.094" height="1052.362"/><use xlink:href="#a" transform="matrix(.87388 .31981 -.3352 .87388 272.683 -32.572)" width="744.094" height="1052.362"/><use xlink:href="#a" transform="matrix(.84127 -.3812 .39954 .84127 -186.849 248.129)" width="744.094" height="1052.362"/><use xlink:href="#a" transform="matrix(1.02359 .00975 -.01022 1.02359 9.191 -12.738)" width="744.094" height="1052.362"/><use xlink:href="#a" transform="matrix(.87586 -.37118 .38905 .87586 -199.362 221.517)" width="744.094" height="1052.362"/><use xlink:href="#a" transform="matrix(1.01742 -.05163 .05411 1.01742 -29.057 14.92)" width="744.094" height="1052.362"/><use xlink:href="#a" transform="matrix(1.00587 -.15676 .1643 1.00587 -97.065 61.605)" width="744.094" height="1052.362"/><use xlink:href="#a" transform="matrix(.83518 -.55891 .58582 .83518 -301.879 320.27)" width="744.094" height="1052.362"/><use xlink:href="#a" transform="matrix(.9327 .4566 -.47859 .9327 339.689 -118.25)" width="744.094" height="1052.362"/><use xlink:href="#a" transform="matrix(1.02912 -.30565 .32036 1.02912 -207.097 101.59)" width="744.094" height="1052.362"/><use xlink:href="#a" transform="matrix(1.00167 .16545 -.17342 1.00167 119.876 -54.355)" width="744.094" height="1052.362"/><use xlink:href="#a" transform="matrix(.91075 .45384 -.4757 .91075 343.688 -103.326)" width="744.094" height="1052.362"/><use xlink:href="#a" transform="matrix(.88123 -.23496 .24627 .88123 -102.81 170.476)" width="744.094" height="1052.362"/><use xlink:href="#a" transform="matrix(.85431 -.29357 .3077 .85431 -133.694 207.734)" width="744.094" height="1052.362"/><use xlink:href="#a" transform="matrix(.88353 -.38558 .40414 .88353 -203.697 226.073)" width="744.094" height="1052.362"/><use xlink:href="#a" transform="matrix(.91904 .48119 -.50435 .91904 363.19 -116.281)" width="744.094" height="1052.362"/><use xlink:href="#a" transform="matrix(.88947 .41539 -.43538 .88947 331.38 -73.551)" width="744.094" height="1052.362"/><use xlink:href="#a" transform="matrix(.94198 -.22519 .23603 .94198 -119.598 132.356)" width="744.094" height="1052.362"/><use xlink:href="#a" transform="matrix(.96485 -.3463 .36297 .96485 -210.226 161.43)" width="744.094" height="1052.362"/><use xlink:href="#a" transform="matrix(.91248 .11316 -.11861 .91248 114.35 23.172)" width="744.094" height="1052.362"/><use xlink:href="#a" transform="matrix(.95472 .39352 -.41247 .95472 288.034 -105.908)" width="744.094" height="1052.362"/><use xlink:href="#a" transform="matrix(.89316 .11427 -.11977 .89316 122.929 36.668)" width="744.094" height="1052.362"/><use xlink:href="#a" transform="matrix(.90964 .06739 -.07063 .90964 85.398 42.472)" width="744.094" height="1052.362"/><use xlink:href="#a" transform="matrix(1.0001 -.13234 .13871 1.0001 -81.46 59.081)" width="744.094" height="1052.362"/><use xlink:href="#a" transform="matrix(.87187 .48996 -.51355 .87187 384.059 -90.798)" width="744.094" height="1052.362"/><use xlink:href="#a" transform="matrix(.9245 .29165 -.3057 .9245 227.102 -54.268)" width="744.094" height="1052.362"/><use xlink:href="#a" transform="matrix(.88149 -.44954 .47118 .88149 -250.304 251.229)" width="744.094" height="1052.362"/><use xlink:href="#a" transform="matrix(.9047 .28698 -.3008 .9047 234.63 -37.282)" width="744.094" height="1052.362"/><use xlink:href="#a" transform="matrix(.95596 .048 -.05032 .95596 56.834 18.505)" width="744.094" height="1052.362"/><use xlink:href="#a" transform="matrix(.97384 .06741 -.07066 .97384 62.761 -3.578)" width="744.094" height="1052.362"/><use xlink:href="#a" transform="matrix(.89226 -.2036 .21341 .89226 -90.657 148.33)" width="744.094" height="1052.362"/><use xlink:href="#a" transform="matrix(.89798 .1908 -.19999 .89798 171.984 -1.077)" width="744.094" height="1052.362"/><use xlink:href="#a" transform="matrix(.97514 -.30358 .3182 .97514 -188.875 132.927)" width="744.094" height="1052.362"/><use xlink:href="#a" transform="matrix(1.03965 .15598 -.1635 1.03965 95.578 -78.913)" width="744.094" height="1052.362"/><use xlink:href="#a" transform="matrix(.99148 -.20722 .2172 .99148 -133.789 85.694)" width="744.094" height="1052.362"/><use xlink:href="#a" transform="matrix(.90053 .28623 -.3 .90053 235.284 -39.34)" width="744.094" height="1052.362"/><use xlink:href="#a" transform="matrix(.8916 -.56709 .59439 .8916 -332.63 283.154)" width="744.094" height="1052.362"/><use xlink:href="#a" transform="matrix(.88963 -.38352 .40198 .88963 -209.515 216.1)" width="744.094" height="1052.362"/><use xlink:href="#a" transform="matrix(.85228 .4558 -.47773 .85228 365.58 -71.657)" width="744.094" height="1052.362"/><use xlink:href="#a" transform="matrix(1.07144 -.14655 .1536 1.07144 -118.245 10.822)" width="744.094" height="1052.362"/><use xlink:href="#a" transform="matrix(.9121 .08045 -.08433 .9121 91.277 28.683)" width="744.094" height="1052.362"/><use xlink:href="#a" transform="matrix(1.05523 .09315 -.09764 1.05523 47.549 -67.706)" width="744.094" height="1052.362"/><use xlink:href="#a" transform="matrix(.95626 .05899 -.06183 .95626 60.768 9.284)" width="744.094" height="1052.362"/><use xlink:href="#a" transform="matrix(.85194 -.42761 .4482 .85194 -227.34 256.212)" width="744.094" height="1052.362"/><use xlink:href="#a" transform="matrix(.87756 -.58036 .6083 .87756 -339.69 297.05)" width="744.094" height="1052.362"/><use xlink:href="#a" transform="matrix(1.08712 -.00933 .00978 1.08712 -34.291 -47.5)" width="744.094" height="1052.362"/><use xlink:href="#a" transform="matrix(1.01463 -.24802 .25996 1.01463 -167.706 88.613)" width="744.094" height="1052.362"/><use xlink:href="#a" transform="matrix(.81071 -.39262 .41152 .81071 -187.721 271.636)" width="744.094" height="1052.362"/><use xlink:href="#a" transform="matrix(.83462 .54898 -.5754 .83462 432.811 -96.65)" width="744.094" height="1052.362"/><use xlink:href="#a" transform="matrix(.9787 -.4088 .42848 .9787 -261.542 167.496)" width="744.094" height="1052.362"/><use xlink:href="#a" transform="matrix(1.02737 -.02174 .02279 1.02737 -21.061 -6.572)" width="744.094" height="1052.362"/><use xlink:href="#a" transform="matrix(.93702 .53174 -.55734 .93702 382.595 -154.957)" width="744.094" height="1052.362"/><use xlink:href="#a" transform="matrix(.97548 .45003 -.4717 .97548 314.85 -150.536)" width="744.094" height="1052.362"/><use xlink:href="#a" transform="matrix(.9577 -.22512 .23595 .9577 -131.098 109.656)" width="744.094" height="1052.362"/><use xlink:href="#a" transform="matrix(1.04654 .3229 -.33845 1.04654 197.018 -149.707)" width="744.094" height="1052.362"/><use xlink:href="#a" transform="matrix(1.01575 .21835 -.22886 1.01575 145.823 -91.63)" width="744.094" height="1052.362"/><use xlink:href="#a" transform="matrix(.8627 .45042 -.4721 .8627 358.02 -77.64)" width="744.094" height="1052.362"/><use xlink:href="#a" transform="matrix(.94273 -.50496 .52927 .94273 -315.202 225.826)" width="744.094" height="1052.362"/><use xlink:href="#a" transform="matrix(.93617 .50698 -.53139 .93617 362.18 -149.958)" width="744.094" height="1052.362"/><use xlink:href="#a" transform="matrix(.99714 .11397 -.11945 .99714 80.723 -41.15)" width="744.094" height="1052.362"/><use xlink:href="#a" transform="matrix(.92983 .00881 -.00924 .92983 34.822 39.856)" width="744.094" height="1052.362"/><use xlink:href="#a" transform="matrix(.97187 -.03926 .04115 .97187 -12.048 30.203)" width="744.094" height="1052.362"/><use xlink:href="#a" transform="matrix(.86003 -.4535 .47533 .86003 -249.16 252.71)" width="744.094" height="1052.362"/><use xlink:href="#a" transform="matrix(.84753 -.3989 .4181 .84753 -208.548 243.315)" width="744.094" height="1052.362"/><use xlink:href="#a" transform="matrix(.89016 .45478 -.47667 .89016 348.644 -99.465)" width="744.094" height="1052.362"/><use xlink:href="#a" transform="matrix(.94968 .37009 -.3879 .94968 269.084 -105.239)" width="744.094" height="1052.362"/><use xlink:href="#a" transform="matrix(.9996 -.44243 .46373 .9996 -292.824 160.322)" width="744.094" height="1052.362"/><use xlink:href="#a" transform="matrix(.89594 -.2342 .24548 .89594 -114.367 153.009)" width="744.094" height="1052.362"/><use xlink:href="#a" transform="matrix(1.00374 -.32546 .34113 1.00374 -217.43 117.866)" width="744.094" height="1052.362"/><use xlink:href="#a" transform="matrix(.75063 .52575 -.55106 .75063 449.72 -40.007)" width="744.094" height="1052.362"/><use xlink:href="#a" transform="matrix(.8448 -.42919 .44985 .8448 -225.018 253.983)" width="744.094" height="1052.362"/><use xlink:href="#a" transform="matrix(.80012 .53222 -.55784 .80012 429.332 -71.542)" width="744.094" height="1052.362"/><use xlink:href="#a" transform="matrix(.9227 -.09138 .09578 .9227 -35.134 80.673)" width="744.094" height="1052.362"/><use xlink:href="#a" transform="matrix(.94876 -.27128 .28434 .94876 -164.004 132.614)" width="744.094" height="1052.362"/><use xlink:href="#a" transform="matrix(.9458 -.27842 .29182 .9458 -166.827 135.093)" width="744.094" height="1052.362"/><use xlink:href="#a" transform="matrix(1.00139 .12096 -.12679 1.00139 81.025 -48.173)" width="744.094" height="1052.362"/><use xlink:href="#a" transform="matrix(.86935 .4371 -.45814 .86935 342.32 -83.628)" width="744.094" height="1052.362"/><use xlink:href="#a" transform="matrix(.7779 -.51005 .5346 .7779 -261.527 324.625)" width="744.094" height="1052.362"/><use xlink:href="#a" transform="matrix(.7758 -.454 .47585 .7758 -220.757 305.197)" width="744.094" height="1052.362"/><use xlink:href="#a" transform="matrix(.86284 -.44057 .46177 .86284 -242.576 244.618)" width="744.094" height="1052.362"/><use xlink:href="#a" transform="matrix(.9173 .11738 -.12303 .9173 108.908 3.223)" width="744.094" height="1052.362"/><use xlink:href="#a" transform="matrix(.84183 -.39829 .41746 .84183 -209.155 242.384)" width="744.094" height="1052.362"/><use xlink:href="#a" transform="matrix(.80139 .53584 -.56164 .80139 430.14 -75.94)" width="744.094" height="1052.362"/><use xlink:href="#a" transform="matrix(.90063 .43488 -.45581 .90063 324.725 -101.78)" width="744.094" height="1052.362"/><use xlink:href="#a" transform="matrix(.87766 -.32345 .33902 .87766 -173.587 194.587)" width="744.094" height="1052.362"/><use xlink:href="#a" transform="matrix(.81746 -.45727 .47928 .81746 -241.475 280.54)" width="744.094" height="1052.362"/><use xlink:href="#a" transform="matrix(.87264 -.51396 .5387 .87264 -302.412 265.882)" width="744.094" height="1052.362"/><use xlink:href="#a" transform="matrix(.85344 -.2983 .31267 .85344 -149.11 197.873)" width="744.094" height="1052.362"/><use xlink:href="#a" transform="matrix(.96554 .44427 -.46566 .96554 307.522 -148.608)" width="744.094" height="1052.362"/><use xlink:href="#a" transform="matrix(1.00324 .12136 -.1272 1.00324 76.469 -51.785)" width="744.094" height="1052.362"/><use xlink:href="#a" transform="matrix(.95819 .48579 -.50917 .95819 335.572 -159.378)" width="744.094" height="1052.362"/><use xlink:href="#a" transform="matrix(.93564 .53067 -.55621 .93564 374.495 -160.949)" width="744.094" height="1052.362"/><use xlink:href="#a" transform="matrix(.9579 .0337 -.03532 .9579 35.074 11.136)" width="744.094" height="1052.362"/><use xlink:href="#a" transform="matrix(.88711 -.25611 .26844 .88711 -133.375 164.153)" width="744.094" height="1052.362"/><use xlink:href="#a" transform="matrix(1.01869 .36763 -.38532 1.01869 235.233 -153.027)" width="744.094" height="1052.362"/><use xlink:href="#a" transform="matrix(.9286 -.23153 .24268 .9286 -132.95 127.353)" width="744.094" height="1052.362"/><use xlink:href="#a" transform="matrix(.94718 .01918 -.0201 .94718 29.678 21.792)" width="744.094" height="1052.362"/><use xlink:href="#a" transform="matrix(1.00572 .32513 -.34078 1.00572 211.262 -130.203)" width="744.094" height="1052.362"/><use xlink:href="#a" transform="matrix(.77725 -.5494 .57584 .77725 -290.576 340.609)" width="744.094" height="1052.362"/><use xlink:href="#a" transform="matrix(.79758 .5419 -.568 .79758 433.193 -75.865)" width="744.094" height="1052.362"/><use xlink:href="#a" transform="matrix(.9614 .44652 -.46801 .9614 310.092 -142.88)" width="744.094" height="1052.362"/><use xlink:href="#a" transform="matrix(.88874 .37756 -.39573 .88874 295.01 -74.87)" width="744.094" height="1052.362"/><use xlink:href="#a" transform="matrix(1.00477 .28921 -.30314 1.00477 189.472 -111.106)" width="744.094" height="1052.362"/><use xlink:href="#a" transform="matrix(1.03638 .24235 -.25401 1.03638 147.241 -112.525)" width="744.094" height="1052.362"/><use xlink:href="#a" transform="matrix(.78044 .4961 -.51998 .78044 412.347 -42.15)" width="744.094" height="1052.362"/><use xlink:href="#a" transform="matrix(.98158 -.14443 .15138 .98158 -92.738 63.672)" width="744.094" height="1052.362"/><use xlink:href="#a" transform="matrix(.93723 -.09778 .10249 .93723 -39.17 70.148)" width="744.094" height="1052.362"/><use xlink:href="#a" transform="matrix(1.0362 -.2878 .30165 1.0362 -206.536 78.24)" width="744.094" height="1052.362"/><use xlink:href="#a" transform="matrix(.97645 -.30116 .31566 .97645 -187.94 121.157)" width="744.094" height="1052.362"/><use xlink:href="#a" transform="matrix(.9334 -.16356 .17143 .9334 -86.083 97.742)" width="744.094" height="1052.362"/><use xlink:href="#a" transform="matrix(.81577 .4975 -.52145 .81577 400.655 -71.133)" width="744.094" height="1052.362"/><use xlink:href="#a" transform="matrix(1.03 .01066 -.01117 1.03 8.144 -24.448)" width="744.094" height="1052.362"/><use xlink:href="#a" transform="matrix(1.03318 -.03395 .03559 1.03318 -31.715 -13.684)" width="744.094" height="1052.362"/><use xlink:href="#a" transform="matrix(.99065 .26895 -.2819 .99065 186.184 -97.619)" width="744.094" height="1052.362"/><use xlink:href="#a" transform="matrix(.98657 -.21159 .22177 .98657 -133.86 81.498)" width="744.094" height="1052.362"/><use xlink:href="#a" transform="matrix(1.0277 -.30882 .32369 1.0277 -213.302 90.567)" width="744.094" height="1052.362"/><use xlink:href="#a" transform="matrix(.8713 -.29729 .3116 .8713 -147.836 187.849)" width="744.094" height="1052.362"/><use xlink:href="#a" transform="matrix(.89498 -.43368 .45456 .89498 -243.924 222.756)" width="744.094" height="1052.362"/><use xlink:href="#a" transform="matrix(.83394 .58197 -.60998 .83394 458.183 -114.04)" width="744.094" height="1052.362"/><use xlink:href="#a" transform="matrix(1.07073 -.15572 .16321 1.07073 -119.363 8.97)" width="744.094" height="1052.362"/><use xlink:href="#a" transform="matrix(.85088 .53885 -.5648 .85088 424.371 -108.643)" width="744.094" height="1052.362"/><use xlink:href="#a" transform="matrix(.89746 -.53515 .5609 .89746 -311.277 259.453)" width="744.094" height="1052.362"/><use xlink:href="#a" transform="matrix(.88168 -.5866 .61484 .88168 -337.124 288.995)" width="744.094" height="1052.362"/><use xlink:href="#a" transform="matrix(.88784 -.59098 .61943 .88784 -346.868 286.475)" width="744.094" height="1052.362"/><use xlink:href="#a" transform="matrix(.9065 -.45534 .47726 .9065 -262.353 224.789)" width="744.094" height="1052.362"/><use xlink:href="#a" transform="matrix(.78538 -.5554 .58214 .78538 -283.875 339.21)" width="744.094" height="1052.362"/><use xlink:href="#a" transform="matrix(.80556 -.54092 .56696 .80556 -284.126 320.135)" width="744.094" height="1052.362"/><use xlink:href="#a" transform="matrix(1.05545 .04637 -.0486 1.05545 17.25 -56.254)" width="744.094" height="1052.362"/><use xlink:href="#a" transform="matrix(.84922 -.32585 .34154 .84922 -155.156 213.923)" width="744.094" height="1052.362"/><use xlink:href="#a" transform="matrix(.94727 -.29539 .3096 .94727 -168.988 139.805)" width="744.094" height="1052.362"/><use xlink:href="#a" transform="matrix(.98435 -.01896 .01987 .98435 1.75 14.344)" width="744.094" height="1052.362"/><use xlink:href="#a" transform="matrix(.85956 .48153 -.5047 .85956 383.652 -90.698)" width="744.094" height="1052.362"/><use xlink:href="#a" transform="matrix(1.03703 -.28265 .29625 1.03703 -192.709 78.995)" width="744.094" height="1052.362"/><use xlink:href="#a" transform="matrix(1.06921 .10776 -.11295 1.06921 57.515 -85.515)" width="744.094" height="1052.362"/><use xlink:href="#a" transform="matrix(.91357 -.0172 .01803 .91357 31.092 60.933)" width="744.094" height="1052.362"/><use xlink:href="#a" transform="matrix(.93515 -.03617 .03791 .93515 10.599 53.755)" width="744.094" height="1052.362"/><use xlink:href="#a" transform="matrix(1.0747 -.08977 .09409 1.0747 -77.882 -16.196)" width="744.094" height="1052.362"/><use xlink:href="#a" transform="matrix(.90464 -.50464 .52893 .90464 -292.722 246.586)" width="744.094" height="1052.362"/><use xlink:href="#a" transform="matrix(.94807 -.18711 .19612 .94807 -96.352 99.745)" width="744.094" height="1052.362"/><use xlink:href="#a" transform="matrix(1.05462 -.04003 .04195 1.05462 -38.81 -21.839)" width="744.094" height="1052.362"/><use xlink:href="#a" transform="matrix(1.07911 .17493 -.18335 1.07911 96.952 -116.728)" width="744.094" height="1052.362"/><use xlink:href="#a" transform="matrix(1.08568 -.07151 .07496 1.08568 -71.76 -30.936)" width="744.094" height="1052.362"/><use xlink:href="#a" transform="matrix(.90365 -.15102 .1583 .90365 -59.288 115.115)" width="744.094" height="1052.362"/><use xlink:href="#a" transform="matrix(.89666 -.37818 .39638 .89666 -208.111 203.66)" width="744.094" height="1052.362"/><use xlink:href="#a" transform="matrix(.76459 .47759 -.50058 .76459 412.033 -27.688)" width="744.094" height="1052.362"/><use xlink:href="#a" transform="matrix(1.0231 .09477 -.09934 1.0231 60.18 -51.937)" width="744.094" height="1052.362"/><use xlink:href="#a" transform="matrix(.8741 -.53603 .56183 .8741 -305.069 276.95)" width="744.094" height="1052.362"/><use xlink:href="#a" transform="matrix(.9937 .16852 -.17663 .9937 121.9 -59.052)" width="744.094" height="1052.362"/><use xlink:href="#a" transform="matrix(.98712 .05155 -.05404 .98712 45.299 -11.757)" width="744.094" height="1052.362"/><use xlink:href="#a" transform="matrix(.92454 -.33507 .3512 .92454 -187.072 172.595)" width="744.094" height="1052.362"/><use xlink:href="#a" transform="matrix(.90318 -.00062 .00065 .90318 43.383 63.42)" width="744.094" height="1052.362"/><use xlink:href="#a" transform="matrix(.90192 .00391 -.0041 .90192 47.093 61.283)" width="744.094" height="1052.362"/><use xlink:href="#a" transform="matrix(.91911 -.16087 .16862 .91911 -68.11 112.87)" width="744.094" height="1052.362"/><use xlink:href="#a" transform="matrix(.91065 .51891 -.54389 .91065 388.412 -134.138)" width="744.094" height="1052.362"/><use xlink:href="#a" transform="matrix(.84508 .55303 -.57965 .84508 433.758 -103.407)" width="744.094" height="1052.362"/><use xlink:href="#a" transform="matrix(.8775 .22418 -.23498 .8775 202.488 -2.006)" width="744.094" height="1052.362"/><use xlink:href="#a" transform="matrix(.796 -.51702 .5419 .796 -264.129 321.792)" width="744.094" height="1052.362"/><use xlink:href="#a" transform="matrix(.95137 -.25105 .26314 .95137 -145.011 124.201)" width="744.094" height="1052.362"/><use xlink:href="#a" transform="matrix(.98909 -.3967 .4158 .98909 -254.868 155.625)" width="744.094" height="1052.362"/><use xlink:href="#a" transform="matrix(.97345 .24195 -.2536 .97345 180.283 -71.465)" width="744.094" height="1052.362"/><use xlink:href="#a" transform="matrix(1.03243 -.02487 .02607 1.03243 -21.162 -11.3)" width="744.094" height="1052.362"/><use xlink:href="#a" transform="matrix(.9195 -.29624 .3105 .9195 -159.996 160.911)" width="744.094" height="1052.362"/><use xlink:href="#a" transform="matrix(.9542 -.2565 .26885 .9542 -147.84 124.586)" width="744.094" height="1052.362"/><use xlink:href="#a" transform="matrix(.94593 .08686 -.09105 .94593 85.928 1.757)" width="744.094" height="1052.362"/><use xlink:href="#a" transform="matrix(1.01005 .06163 -.0646 1.01005 45.234 -28.69)" width="744.094" height="1052.362"/><use xlink:href="#a" transform="matrix(.83307 .44112 -.46235 .83307 364.743 -56.96)" width="744.094" height="1052.362"/><use xlink:href="#a" transform="matrix(1.07792 .11042 -.11574 1.07792 53.66 -89.876)" width="744.094" height="1052.362"/><use xlink:href="#a" transform="matrix(1.015 -.10722 .11238 1.015 -67.374 29.873)" width="744.094" height="1052.362"/><use xlink:href="#a" transform="matrix(.76037 .49008 -.51368 .76037 426.701 -29.04)" width="744.094" height="1052.362"/><use xlink:href="#a" transform="matrix(.96134 .01168 -.01224 .96134 31.15 19.876)" width="744.094" height="1052.362"/><use xlink:href="#a" transform="matrix(.91413 .37432 -.39234 .91413 281.496 -83.415)" width="744.094" height="1052.362"/><use xlink:href="#a" transform="matrix(1.05992 -.25699 .26936 1.05992 -185.257 58.495)" width="744.094" height="1052.362"/><use xlink:href="#a" transform="matrix(.9858 -.14674 .1538 .9858 -83.452 64.117)" width="744.094" height="1052.362"/><use xlink:href="#a" transform="matrix(.99176 -.4548 .4767 .99176 -290.476 175.733)" width="744.094" height="1052.362"/><use xlink:href="#a" transform="matrix(1.07284 -.1673 .17535 1.07284 -128.84 18.225)" width="744.094" height="1052.362"/><use xlink:href="#a" transform="matrix(1.02163 .28409 -.29776 1.02163 202.27 -122.015)" width="744.094" height="1052.362"/><use xlink:href="#a" transform="matrix(.92473 .33028 -.34617 .92473 260.594 -71.066)" width="744.094" height="1052.362"/><use xlink:href="#a" transform="matrix(1.05942 -.2782 .29158 1.05942 -196.88 67.185)" width="744.094" height="1052.362"/><use xlink:href="#a" transform="matrix(.79114 -.48904 .51258 .79114 -237.342 316.838)" width="744.094" height="1052.362"/><use xlink:href="#a" transform="matrix(.94322 -.02091 .02192 .94322 26.587 41.676)" width="744.094" height="1052.362"/><use xlink:href="#a" transform="matrix(.96794 .02692 -.02822 .96794 37.203 11.788)" width="744.094" height="1052.362"/><use xlink:href="#a" transform="matrix(.92798 -.1855 .19443 .92798 -91.892 118.2)" width="744.094" height="1052.362"/><use xlink:href="#a" transform="matrix(1.019 -.37587 .39397 1.019 -252.577 128.718)" width="744.094" height="1052.362"/><use xlink:href="#a" transform="matrix(.93192 -.00645 .00676 .93192 24.952 47.498)" width="744.094" height="1052.362"/><use xlink:href="#a" transform="matrix(1.04346 .08334 -.08736 1.04346 46.082 -57.747)" width="744.094" height="1052.362"/><use xlink:href="#a" transform="matrix(.93795 -.428 .4486 .93795 -261.432 198.588)" width="744.094" height="1052.362"/><use xlink:href="#a" transform="matrix(1.02773 .37106 -.38892 1.02773 244.656 -152.293)" width="744.094" height="1052.362"/><use xlink:href="#a" transform="matrix(.86525 .59656 -.62528 .86525 456.858 -132.618)" width="744.094" height="1052.362"/><use xlink:href="#a" transform="matrix(.88513 .45352 -.47535 .88513 354.637 -92.443)" width="744.094" height="1052.362"/><use xlink:href="#a" transform="matrix(1.00539 .35575 -.37288 1.00539 239.519 -135.09)" width="744.094" height="1052.362"/><use xlink:href="#a" transform="matrix(.86307 .56987 -.5973 .86307 440.702 -120.977)" width="744.094" height="1052.362"/><use xlink:href="#a" transform="matrix(.97853 .10721 -.11237 .97853 87.309 -22.775)" width="744.094" height="1052.362"/><use xlink:href="#a" transform="matrix(.78881 .45188 -.47363 .78881 378.839 -32.372)" width="744.094" height="1052.362"/><use xlink:href="#a" transform="matrix(.98003 .11879 -.1245 .98003 107.447 -34.92)" width="744.094" height="1052.362"/><use xlink:href="#a" transform="matrix(.95922 -.33968 .35603 .95922 -203.208 153.89)" width="744.094" height="1052.362"/><use xlink:href="#a" transform="matrix(.88982 -.13993 .14667 .88982 -44.805 138.971)" width="744.094" height="1052.362"/><use xlink:href="#a" transform="matrix(.8563 .43087 -.45161 .8563 350.213 -64.2)" width="744.094" height="1052.362"/><use xlink:href="#a" transform="matrix(1.00519 .04058 -.04253 1.00519 34.062 -14.706)" width="744.094" height="1052.362"/><use xlink:href="#a" transform="matrix(.99854 -.25117 .26327 .99854 -159.434 97.613)" width="744.094" height="1052.362"/><use xlink:href="#a" transform="matrix(.90976 -.17613 .18461 .90976 -75.705 126.018)" width="744.094" height="1052.362"/><use xlink:href="#a" transform="matrix(.88694 .15887 -.16652 .88694 156.216 17.265)" width="744.094" height="1052.362"/><use xlink:href="#a" transform="matrix(.92628 -.46047 .48263 .92628 -276.217 218.523)" width="744.094" height="1052.362"/><use xlink:href="#a" transform="matrix(.93 -.15544 .16292 .93 -71.182 107.449)" width="744.094" height="1052.362"/><use xlink:href="#a" transform="matrix(1.01294 .00268 -.0028 1.01294 3.421 -4.497)" width="744.094" height="1052.362"/><use xlink:href="#a" transform="matrix(.7832 .54548 -.57174 .7832 452.212 -56.615)" width="744.094" height="1052.362"/><use xlink:href="#a" transform="matrix(.95051 .44612 -.4676 .95051 326.641 -130.169)" width="744.094" height="1052.362"/><use xlink:href="#a" transform="matrix(.91829 -.41657 .43662 .91829 -242.77 211.732)" width="744.094" height="1052.362"/><use xlink:href="#a" transform="matrix(.96035 -.41923 .43942 .96035 -258.456 188.927)" width="744.094" height="1052.362"/><use xlink:href="#a" transform="matrix(.91446 .05431 -.05693 .91446 74.704 43.029)" width="744.094" height="1052.362"/><use xlink:href="#a" transform="matrix(.97684 -.23936 .25089 .97684 -142.774 109.817)" width="744.094" height="1052.362"/><use xlink:href="#a" transform="matrix(.96244 -.36424 .38177 .96244 -222.245 164.833)" width="744.094" height="1052.362"/><use xlink:href="#a" transform="matrix(.99486 -.16361 .1715 .99486 -99.888 69.102)" width="744.094" height="1052.362"/><use xlink:href="#a" transform="matrix(.91146 .10423 -.10925 .91146 111.804 22.194)" width="744.094" height="1052.362"/><use xlink:href="#a" transform="matrix(.95504 .18457 -.19345 .95504 148.829 -35.192)" width="744.094" height="1052.362"/><use xlink:href="#a" transform="matrix(.89556 .17755 -.1861 .89556 170.147 -.344)" width="744.094" height="1052.362"/><use xlink:href="#a" transform="matrix(.84313 -.5445 .57071 .84313 -295.15 301.944)" width="744.094" height="1052.362"/><use xlink:href="#a" transform="matrix(.92985 .30951 -.32441 .92985 245.505 -67.445)" width="744.094" height="1052.362"/><use xlink:href="#a" transform="matrix(.85233 .34768 -.36442 .85233 299.982 -33.847)" width="744.094" height="1052.362"/><use xlink:href="#a" transform="matrix(1.05326 -.18114 .18986 1.05326 -121.853 31.271)" width="744.094" height="1052.362"/><use xlink:href="#a" transform="matrix(.85459 .51535 -.54016 .85459 413.307 -99.24)" width="744.094" height="1052.362"/><use xlink:href="#a" transform="matrix(.82493 -.49299 .51672 .82493 -254.338 291.794)" width="744.094" height="1052.362"/><use xlink:href="#a" transform="matrix(.93975 -.36414 .38166 .93975 -209.858 170.515)" width="744.094" height="1052.362"/><use xlink:href="#a" transform="matrix(1.0625 .1925 -.20176 1.0625 118.277 -114.309)" width="744.094" height="1052.362"/><use xlink:href="#a" transform="matrix(.88542 -.54622 .57252 .88542 -309.298 272.506)" width="744.094" height="1052.362"/><use xlink:href="#a" transform="matrix(1.06918 .23391 -.24517 1.06918 144.367 -133.64)" width="744.094" height="1052.362"/><use xlink:href="#a" transform="matrix(.96408 .0822 -.08616 .96408 81.834 -8.508)" width="744.094" height="1052.362"/><use xlink:href="#a" transform="matrix(.90893 .59415 -.62275 .90893 443.992 -164.084)" width="744.094" height="1052.362"/><use xlink:href="#a" transform="matrix(1.01274 -.15079 .15805 1.01274 -92.528 45.738)" width="744.094" height="1052.362"/><use xlink:href="#a" transform="matrix(1.0458 -.11475 .12028 1.0458 -81.16 12.723)" width="744.094" height="1052.362"/><use xlink:href="#a" transform="matrix(.78402 -.52582 .55113 .78402 -258.14 330.511)" width="744.094" height="1052.362"/><use xlink:href="#a" transform="matrix(.76918 .45822 -.48027 .76918 408.083 -24.276)" width="744.094" height="1052.362"/><use xlink:href="#a" transform="matrix(.88005 .45537 -.47729 .88005 367.584 -94.068)" width="744.094" height="1052.362"/><use xlink:href="#a" transform="matrix(.9928 .43137 -.45214 .9928 309.242 -156.202)" width="744.094" height="1052.362"/><use xlink:href="#a" transform="matrix(.94874 .13162 -.13796 .94874 124.164 -17.011)" width="744.094" height="1052.362"/><use xlink:href="#a" transform="matrix(.99947 -.3716 .38948 .99947 -232.243 136.617)" width="744.094" height="1052.362"/><use xlink:href="#a" transform="matrix(1.03114 -.19181 .20104 1.03114 -124.257 50.374)" width="744.094" height="1052.362"/><use xlink:href="#a" transform="matrix(.93012 .06086 -.0638 .93012 83.274 22.645)" width="744.094" height="1052.362"/><use xlink:href="#a" transform="matrix(1.07144 -.10602 .11112 1.07144 -80.175 -6.522)" width="744.094" height="1052.362"/><use xlink:href="#a" transform="matrix(.80396 -.56092 .58792 .80396 -284.26 332.003)" width="744.094" height="1052.362"/><use xlink:href="#a" transform="matrix(1.06219 .00693 -.00727 1.06219 -1.343 -41.373)" width="744.094" height="1052.362"/><use xlink:href="#a" transform="matrix(1.00758 -.34258 .35907 1.00758 -213.851 121.772)" width="744.094" height="1052.362"/><use xlink:href="#a" transform="matrix(1.00102 -.3626 .38006 1.00102 -225.305 133.957)" width="744.094" height="1052.362"/><use xlink:href="#a" transform="matrix(.81772 -.37317 .39114 .81772 -164.879 255.615)" width="744.094" height="1052.362"/><use xlink:href="#a" transform="matrix(.8684 -.3194 .33478 .8684 -147.219 201.635)" width="744.094" height="1052.362"/><use xlink:href="#a" transform="matrix(.85406 -.2818 .29537 .85406 -115.353 194.895)" width="744.094" height="1052.362"/><use xlink:href="#a" transform="matrix(.84734 -.39396 .41292 .84734 -188.97 241.873)" width="744.094" height="1052.362"/><use xlink:href="#a" transform="matrix(1.02853 -.29444 .30861 1.02853 -189.109 88.092)" width="744.094" height="1052.362"/><use xlink:href="#a" transform="matrix(.98347 -.29787 .31221 .98347 -171.724 114.718)" width="744.094" height="1052.362"/><use xlink:href="#a" transform="matrix(.94096 -.07974 .08358 .94096 -10.773 62.94)" width="744.094" height="1052.362"/><use xlink:href="#a" transform="matrix(.83616 -.39155 .4104 .83616 -180.413 244.888)" width="744.094" height="1052.362"/><use xlink:href="#a" transform="matrix(.93236 .4227 -.44304 .93236 329.698 -118.596)" width="744.094" height="1052.362"/><use xlink:href="#a" transform="matrix(.92288 .43668 -.4577 .92288 338.885 -116.413)" width="744.094" height="1052.362"/><use xlink:href="#a" transform="matrix(1.05498 -.02788 .02922 1.05498 -18.755 -29.841)" width="744.094" height="1052.362"/><use xlink:href="#a" transform="matrix(.93967 .35924 -.37653 .93967 283.7 -100.129)" width="744.094" height="1052.362"/><use xlink:href="#a" transform="matrix(.93009 -.54094 .56698 .93009 -320.766 241.448)" width="744.094" height="1052.362"/><use xlink:href="#a" transform="matrix(.92435 -.308 .32283 .92435 -161.047 157.964)" width="744.094" height="1052.362"/><use xlink:href="#a" transform="matrix(1.01355 -.15787 .16547 1.01355 -93.516 46.203)" width="744.094" height="1052.362"/><use xlink:href="#a" transform="matrix(.9836 .069 -.07233 .9836 68.705 -19.06)" width="744.094" height="1052.362"/><use xlink:href="#a" transform="matrix(.89265 -.24101 .25262 .89265 -103.69 154.747)" width="744.094" height="1052.362"/><use xlink:href="#a" transform="matrix(.83604 -.3316 .34757 .83604 -146.441 224.782)" width="744.094" height="1052.362"/><use xlink:href="#a" transform="matrix(.9291 .52328 -.54847 .9291 391.903 -152.876)" width="744.094" height="1052.362"/><use xlink:href="#a" transform="matrix(.8832 -.5052 .52951 .8832 -281.95 257.047)" width="744.094" height="1052.362"/><use xlink:href="#a" transform="matrix(.853 .5261 -.55142 .853 420.907 -105.17)" width="744.094" height="1052.362"/><use xlink:href="#a" transform="matrix(.9078 -.06088 .06382 .9078 14.268 75.194)" width="744.094" height="1052.362"/><use xlink:href="#a" transform="matrix(1.01338 .22854 -.23954 1.01338 158.82 -98.985)" width="744.094" height="1052.362"/><use xlink:href="#a" transform="matrix(.95292 -.0249 .0261 .95292 13.075 34.897)" width="744.094" height="1052.362"/><use xlink:href="#a" transform="matrix(1.01265 .29983 -.31427 1.01265 207.483 -123.702)" width="744.094" height="1052.362"/><use xlink:href="#a" transform="matrix(.8796 -.55442 .58111 .8796 -312.858 278.427)" width="744.094" height="1052.362"/><use xlink:href="#a" transform="matrix(.95668 .05208 -.05458 .95668 66.464 5.644)" width="744.094" height="1052.362"/><use xlink:href="#a" transform="matrix(.73952 -.50402 .52828 .73952 -231.177 348.39)" width="744.094" height="1052.362"/><use xlink:href="#a" transform="matrix(.98459 -.15589 .16339 .98459 -94.429 63.608)" width="744.094" height="1052.362"/><use xlink:href="#a" transform="matrix(.83831 -.3928 .41171 .83831 -194.391 243.794)" width="744.094" height="1052.362"/><use xlink:href="#a" transform="matrix(1.00268 -.25194 .26406 1.00268 -167.337 85.457)" width="744.094" height="1052.362"/><use xlink:href="#a" transform="matrix(.90853 .22273 -.23346 .90853 183.967 -28.56)" width="744.094" height="1052.362"/><use height="1052.362" width="744.094" transform="matrix(.85856 -.60334 .63238 .85856 -342.452 307.632)" xlink:href="#a"/><use height="1052.362" width="744.094" transform="matrix(1.08024 .06921 -.07255 1.08024 27.461 -80.405)" xlink:href="#a"/><use height="1052.362" width="744.094" transform="matrix(1.01426 .14932 -.15651 1.01426 105.78 -68.813)" xlink:href="#a"/><use height="1052.362" width="744.094" transform="matrix(.8226 -.53144 .55702 .8226 -281.843 304.907)" xlink:href="#a"/><use height="1052.362" width="744.094" transform="matrix(.94984 .0659 -.06908 .94984 72.637 1.522)" xlink:href="#a"/><use height="1052.362" width="744.094" transform="matrix(1.0258 .28138 -.29492 1.0258 191.197 -126.868)" xlink:href="#a"/><use height="1052.362" width="744.094" transform="matrix(.94471 -.07236 .07584 .94471 -14.884 56.477)" xlink:href="#a"/><use height="1052.362" width="744.094" transform="matrix(.94842 .09907 -.10384 .94842 99.454 -9.675)" xlink:href="#a"/><use height="1052.362" width="744.094" transform="matrix(.91018 -.36957 .38737 .91018 -198.569 190.314)" xlink:href="#a"/><use height="1052.362" width="744.094" transform="matrix(.84983 -.51028 .53484 .84983 -268.606 281.248)" xlink:href="#a"/><use height="1052.362" width="744.094" transform="matrix(.86055 .48375 -.50704 .86055 392.759 -96.16)" xlink:href="#a"/><use height="1052.362" width="744.094" transform="matrix(.85183 -.31294 .328 .85183 -137.567 204.794)" xlink:href="#a"/><use height="1052.362" width="744.094" transform="matrix(.9249 -.0544 .05701 .9249 9.24 61.893)" xlink:href="#a"/><use height="1052.362" width="744.094" transform="matrix(.9988 .14626 -.1533 .9988 113.386 -59.492)" xlink:href="#a"/><use height="1052.362" width="744.094" transform="matrix(.87207 -.54797 .57435 .87207 -305.768 280.877)" xlink:href="#a"/><use height="1052.362" width="744.094" transform="matrix(.80149 -.5084 .53287 .80149 -258.12 310.145)" xlink:href="#a"/><use height="1052.362" width="744.094" transform="matrix(.9321 .35905 -.37633 .9321 277.081 -95.12)" xlink:href="#a"/><use height="1052.362" width="744.094" transform="matrix(.93583 -.17074 .17896 .93583 -79.72 99.295)" xlink:href="#a"/><use height="1052.362" width="744.094" transform="matrix(1.0049 -.0358 .03752 1.0049 -14.185 5.179)" xlink:href="#a"/><use height="1052.362" width="744.094" transform="matrix(1.01486 -.25112 .2632 1.01486 -156.52 80.38)" xlink:href="#a"/><use height="1052.362" width="744.094" transform="matrix(.81996 .53232 -.55795 .81996 433.158 -84.953)" xlink:href="#a"/><use height="1052.362" width="744.094" transform="matrix(.93483 .35859 -.37585 .93483 283.707 -97.27)" xlink:href="#a"/><use height="1052.362" width="744.094" transform="matrix(.93864 -.06452 .06762 .93864 -4.62 59.677)" xlink:href="#a"/><use height="1052.362" width="744.094" transform="matrix(1.01858 .13555 -.14208 1.01858 100.114 -66.486)" xlink:href="#a"/><use height="1052.362" width="744.094" transform="matrix(1.05143 .20623 -.21616 1.05143 135.559 -114.204)" xlink:href="#a"/><use height="1052.362" width="744.094" transform="matrix(.7995 -.4711 .49377 .7995 -225.383 296.9)" xlink:href="#a"/><use height="1052.362" width="744.094" transform="matrix(.84759 -.39111 .40994 .84759 -190.183 238.446)" xlink:href="#a"/><use height="1052.362" width="744.094" transform="matrix(.83995 -.49638 .52028 .83995 -258.429 281.976)" xlink:href="#a"/><use height="1052.362" width="744.094" transform="matrix(.84356 .3572 -.3744 .84356 310.99 -36.497)" xlink:href="#a"/><use height="1052.362" width="744.094" transform="matrix(.97413 .2301 -.24118 .97413 178.117 -73.73)" xlink:href="#a"/><use height="1052.362" width="744.094" transform="matrix(1.02972 .27404 -.28724 1.02972 188.626 -124.712)" xlink:href="#a"/><use height="1052.362" width="744.094" transform="matrix(1.06332 -.11937 .12512 1.06332 -86.654 -.053)" xlink:href="#a"/><use height="1052.362" width="744.094" transform="matrix(.92165 -.45732 .47934 .92165 -261.474 214.844)" xlink:href="#a"/><use height="1052.362" width="744.094" transform="matrix(.8319 -.51322 .53793 .8319 -262.847 291.164)" xlink:href="#a"/><use height="1052.362" width="744.094" transform="matrix(1.0693 .05638 -.0591 1.0693 24.567 -70.378)" xlink:href="#a"/><use height="1052.362" width="744.094" transform="matrix(.8439 -.43462 .45554 .8439 -217.893 255.346)" xlink:href="#a"/><use height="1052.362" width="744.094" transform="matrix(.97737 -.23063 .24173 .97737 -136.461 94.62)" xlink:href="#a"/><use height="1052.362" width="744.094" transform="matrix(.92222 .22174 -.23241 .92222 191.039 -38.57)" xlink:href="#a"/><use height="1052.362" width="744.094" transform="matrix(.93525 .3094 -.3243 .93525 245.958 -76.48)" xlink:href="#a"/><use height="1052.362" width="744.094" transform="matrix(.92254 -.37272 .39066 .92254 -210.284 181.312)" xlink:href="#a"/><use height="1052.362" width="744.094" transform="matrix(.91357 -.0172 .01803 .91357 35.147 55.85)" xlink:href="#a"/><use height="1052.362" width="744.094" transform="matrix(1.07911 .17493 -.18335 1.07911 96.265 -121.568)" xlink:href="#a"/><use height="1052.362" width="744.094" transform="matrix(.92454 -.33507 .3512 .92454 -186.371 166.962)" xlink:href="#a"/><use height="1052.362" width="744.094" transform="matrix(.90318 -.00062 .00065 .90318 48.56 55.883)" xlink:href="#a"/><use height="1052.362" width="744.094" transform="matrix(.90192 .00391 -.0041 .90192 47.713 55.674)" xlink:href="#a"/><use height="1052.362" width="744.094" transform="matrix(.91911 -.16087 .16862 .91911 -67.408 107.238)" xlink:href="#a"/><use height="1052.362" width="744.094" transform="matrix(.9195 -.29624 .3105 .9195 -162.7 154.882)" xlink:href="#a"/><use height="1052.362" width="744.094" transform="matrix(1.07792 .11042 -.11574 1.07792 52.66 -96.798)" xlink:href="#a"/><use height="1052.362" width="744.094" transform="matrix(1.015 -.10722 .11238 1.015 -65.948 23.936)" xlink:href="#a"/><use height="1052.362" width="744.094" transform="matrix(.96134 .01168 -.01224 .96134 29.008 14.855)" xlink:href="#a"/><use height="1052.362" width="744.094" transform="matrix(.9858 -.14674 .1538 .9858 -85.23 57.939)" xlink:href="#a"/><use height="1052.362" width="744.094" transform="matrix(.79114 -.48904 .51258 .79114 -235.881 308.295)" xlink:href="#a"/><use height="1052.362" width="744.094" transform="matrix(.95922 -.33968 .35603 .95922 -206.49 145.944)" xlink:href="#a"/><use height="1052.362" width="744.094" transform="matrix(.84313 -.5445 .57071 .84313 -290.995 295.65)" xlink:href="#a"/><use height="1052.362" width="744.094" transform="matrix(.92985 .30951 -.32441 .92985 238.356 -75.987)" xlink:href="#a"/><use height="1052.362" width="744.094" transform="matrix(.85233 .34768 -.36442 .85233 303.885 -40.718)" xlink:href="#a"/><use height="1052.362" width="744.094" transform="matrix(1.0458 -.11475 .12028 1.0458 -87.053 7.025)" xlink:href="#a"/><use height="1052.362" width="744.094" transform="matrix(.93012 .06086 -.0638 .93012 84.735 17.144)" xlink:href="#a"/><use height="1052.362" width="744.094" transform="matrix(1.07144 -.10602 .11112 1.07144 -79.474 -12.154)" xlink:href="#a"/><use height="1052.362" width="744.094" transform="matrix(.80396 -.56092 .58792 .80396 -282.93 326.783)" xlink:href="#a"/><use height="1052.362" width="744.094" transform="matrix(1.06219 .00693 -.00727 1.06219 .45 -47.369)" xlink:href="#a"/><use height="1052.362" width="744.094" transform="matrix(1.00758 -.34258 .35907 1.00758 -213.15 116.14)" xlink:href="#a"/><use height="1052.362" width="744.094" transform="matrix(1.00102 -.3626 .38006 1.00102 -224.273 129.217)" xlink:href="#a"/><use height="1052.362" width="744.094" transform="matrix(.81772 -.37317 .39114 .81772 -162.922 249.619)" xlink:href="#a"/><use height="1052.362" width="744.094" transform="matrix(.8684 -.3194 .33478 .8684 -145.41 196.845)" xlink:href="#a"/><path d="M378.307 294.777h7.274M378.307 302.845h7.274M378.307 310.914h7.274M378.307 318.982h7.274M378.307 327.05h7.274M378.307 335.118h7.274M378.307 343.187h7.274M378.307 351.255h7.274M378.307 359.323h7.274M378.307 367.391h7.274M378.307 375.46h7.274M378.307 383.528h7.274M378.307 391.596h7.274M378.307 399.664h7.274M378.307 407.732h7.274M378.307 415.8h7.274M378.307 423.869h7.274M378.307 431.937h7.274M378.307 440.005h7.274M378.307 448.074h7.274M378.307 456.142h7.274M378.307 464.21h7.274M378.307 472.278h7.274M378.307 480.347h7.274M378.307 488.415h7.274" style="marker:none" color="#000" fill="none" stroke="#28170b" stroke-linecap="round" stroke-linejoin="round" overflow="visible"/><path style="marker:none" d="M380.277 294.777h5.304M380.277 302.845h5.304" color="#000" fill="none" stroke="#333" stroke-width=".25" stroke-linecap="round" stroke-linejoin="round" overflow="visible"/><g stroke="#333" color="#000" fill="none" stroke-width=".2" stroke-linecap="round" stroke-linejoin="round"><path style="marker:none" d="M150.4 537.403h3.398M150.4 538.21h3.398M150.4 539.017h3.398M150.4 539.823h3.398M150.4 540.63h3.398M150.4 541.437h3.398M150.4 542.244h3.398M150.4 543.05h3.398M150.4 543.857h3.398" overflow="visible" transform="matrix(1.56067 0 0 1 145.554 -241.819)"/></g><g stroke="#333" color="#000" fill="none" stroke-width=".2" stroke-linecap="round" stroke-linejoin="round"><path style="marker:none" d="M150.4 536.596h3.398M150.4 544.664h3.398M150.4 537.403h3.398M150.4 538.21h3.398M150.4 539.017h3.398M150.4 539.823h3.398M150.4 540.63h3.398M150.4 541.437h3.398M150.4 542.244h3.398M150.4 543.05h3.398M150.4 543.857h3.398" overflow="visible" transform="matrix(1.56067 0 0 1 145.554 -233.75)"/></g><g stroke="#333" color="#000" fill="none" stroke-width=".2" stroke-linecap="round" stroke-linejoin="round"><path d="M150.4 536.596h3.398M150.4 544.664h3.398M150.4 537.403h3.398M150.4 538.21h3.398M150.4 539.017h3.398M150.4 539.823h3.398M150.4 540.63h3.398M150.4 541.437h3.398M150.4 542.244h3.398M150.4 543.05h3.398M150.4 543.857h3.398" style="marker:none" overflow="visible" transform="matrix(1.56067 0 0 1 145.554 -225.683)"/></g><g stroke="#333" color="#000" fill="none" stroke-width=".2" stroke-linecap="round" stroke-linejoin="round"><path d="M150.4 536.596h3.398M150.4 544.664h3.398M150.4 537.403h3.398M150.4 538.21h3.398M150.4 539.017h3.398M150.4 539.823h3.398M150.4 540.63h3.398M150.4 541.437h3.398M150.4 542.244h3.398M150.4 543.05h3.398M150.4 543.857h3.398" style="marker:none" overflow="visible" transform="matrix(1.56067 0 0 1 145.554 -218.421)"/></g><g stroke="#333" color="#000" fill="none" stroke-width=".2" stroke-linecap="round" stroke-linejoin="round"><path style="marker:none" d="M150.4 536.596h3.398M150.4 544.664h3.398M150.4 537.403h3.398M150.4 538.21h3.398M150.4 539.017h3.398M150.4 539.823h3.398M150.4 540.63h3.398M150.4 541.437h3.398M150.4 542.244h3.398M150.4 543.05h3.398M150.4 543.857h3.398" overflow="visible" transform="matrix(1.56067 0 0 1 145.554 -210.353)"/></g><g stroke="#333" color="#000" fill="none" stroke-width=".2" stroke-linecap="round" stroke-linejoin="round"><path d="M150.4 536.596h3.398M150.4 544.664h3.398M150.4 537.403h3.398M150.4 538.21h3.398M150.4 539.017h3.398M150.4 539.823h3.398M150.4 540.63h3.398M150.4 541.437h3.398M150.4 542.244h3.398M150.4 543.05h3.398M150.4 543.857h3.398" style="marker:none" overflow="visible" transform="matrix(1.56067 0 0 1 145.554 -209.546)"/></g><g stroke="#333" color="#000" fill="none" stroke-width=".2" stroke-linecap="round" stroke-linejoin="round"><path style="marker:none" d="M150.4 536.596h3.398M150.4 544.664h3.398M150.4 537.403h3.398M150.4 538.21h3.398M150.4 539.017h3.398M150.4 539.823h3.398M150.4 540.63h3.398M150.4 541.437h3.398M150.4 542.244h3.398M150.4 543.05h3.398M150.4 543.857h3.398" overflow="visible" transform="matrix(1.56067 0 0 1 145.554 -201.478)"/></g><g stroke="#333" color="#000" fill="none" stroke-width=".2" stroke-linecap="round" stroke-linejoin="round"><path style="marker:none" d="M150.4 536.596h3.398M150.4 544.664h3.398M150.4 537.403h3.398M150.4 538.21h3.398M150.4 539.017h3.398M150.4 539.823h3.398M150.4 540.63h3.398M150.4 541.437h3.398M150.4 542.244h3.398M150.4 543.05h3.398M150.4 543.857h3.398" overflow="visible" transform="matrix(1.56067 0 0 1 145.554 -194.216)"/></g><g stroke="#333" color="#000" fill="none" stroke-width=".2" stroke-linecap="round" stroke-linejoin="round"><path d="M150.4 536.596h3.398M150.4 544.664h3.398M150.4 537.403h3.398M150.4 538.21h3.398M150.4 539.017h3.398M150.4 539.823h3.398M150.4 540.63h3.398M150.4 541.437h3.398M150.4 542.244h3.398M150.4 543.05h3.398M150.4 543.857h3.398" style="marker:none" overflow="visible" transform="matrix(1.56067 0 0 1 145.554 -186.148)"/></g><g stroke="#333" color="#000" fill="none" stroke-width=".2" stroke-linecap="round" stroke-linejoin="round"><path d="M150.4 536.596h3.398M150.4 544.664h3.398M150.4 537.403h3.398M150.4 538.21h3.398M150.4 539.017h3.398M150.4 539.823h3.398M150.4 540.63h3.398M150.4 541.437h3.398M150.4 542.244h3.398M150.4 543.05h3.398M150.4 543.857h3.398" style="marker:none" overflow="visible" transform="matrix(1.56067 0 0 1 145.554 -177.273)"/></g><g stroke="#333" color="#000" fill="none" stroke-width=".2" stroke-linecap="round" stroke-linejoin="round"><path style="marker:none" d="M150.4 536.596h3.398M150.4 544.664h3.398M150.4 537.403h3.398M150.4 538.21h3.398M150.4 539.017h3.398M150.4 539.823h3.398M150.4 540.63h3.398M150.4 541.437h3.398M150.4 542.244h3.398M150.4 543.05h3.398M150.4 543.857h3.398" overflow="visible" transform="matrix(1.56067 0 0 1 145.554 -169.205)"/></g><g stroke="#333" color="#000" fill="none" stroke-width=".2" stroke-linecap="round" stroke-linejoin="round"><path style="marker:none" d="M150.4 536.596h3.398M150.4 544.664h3.398M150.4 537.403h3.398M150.4 538.21h3.398M150.4 539.017h3.398M150.4 539.823h3.398M150.4 540.63h3.398M150.4 541.437h3.398M150.4 542.244h3.398M150.4 543.05h3.398M150.4 543.857h3.398" overflow="visible" transform="matrix(1.56067 0 0 1 145.554 -161.943)"/></g><g stroke="#333" color="#000" fill="none" stroke-width=".2" stroke-linecap="round" stroke-linejoin="round"><path style="marker:none" d="M150.4 536.596h3.398M150.4 544.664h3.398M150.4 537.403h3.398M150.4 538.21h3.398M150.4 539.017h3.398M150.4 539.823h3.398M150.4 540.63h3.398M150.4 541.437h3.398M150.4 542.244h3.398M150.4 543.05h3.398M150.4 543.857h3.398" overflow="visible" transform="matrix(1.56067 0 0 1 145.554 -153.068)"/></g><g stroke="#333" color="#000" fill="none" stroke-width=".2" stroke-linecap="round" stroke-linejoin="round"><path d="M150.4 536.596h3.398M150.4 544.664h3.398M150.4 537.403h3.398M150.4 538.21h3.398M150.4 539.017h3.398M150.4 539.823h3.398M150.4 540.63h3.398M150.4 541.437h3.398M150.4 542.244h3.398M150.4 543.05h3.398M150.4 543.857h3.398" style="marker:none" overflow="visible" transform="matrix(1.56067 0 0 1 145.554 -145)"/></g><g stroke="#333" color="#000" fill="none" stroke-width=".2" stroke-linecap="round" stroke-linejoin="round"><path d="M150.4 536.596h3.398M150.4 544.664h3.398M150.4 537.403h3.398M150.4 538.21h3.398M150.4 539.017h3.398M150.4 539.823h3.398M150.4 540.63h3.398M150.4 541.437h3.398M150.4 542.244h3.398M150.4 543.05h3.398M150.4 543.857h3.398" style="marker:none" overflow="visible" transform="matrix(1.56067 0 0 1 145.554 -137.739)"/></g><g stroke="#333" color="#000" fill="none" stroke-width=".2" stroke-linecap="round" stroke-linejoin="round"><path style="marker:none" d="M150.4 536.596h3.398M150.4 544.664h3.398M150.4 537.403h3.398M150.4 538.21h3.398M150.4 539.017h3.398M150.4 539.823h3.398M150.4 540.63h3.398M150.4 541.437h3.398M150.4 542.244h3.398M150.4 543.05h3.398M150.4 543.857h3.398" overflow="visible" transform="matrix(1.56067 0 0 1 145.554 -129.67)"/></g><g stroke="#333" color="#000" fill="none" stroke-width=".2" stroke-linecap="round" stroke-linejoin="round"><path style="marker:none" d="M150.4 536.596h3.398M150.4 544.664h3.398M150.4 537.403h3.398M150.4 538.21h3.398M150.4 539.017h3.398M150.4 539.823h3.398M150.4 540.63h3.398M150.4 541.437h3.398M150.4 542.244h3.398M150.4 543.05h3.398M150.4 543.857h3.398" overflow="visible" transform="matrix(1.56067 0 0 1 145.554 -120.795)"/></g><g stroke="#333" color="#000" fill="none" stroke-width=".2" stroke-linecap="round" stroke-linejoin="round"><path d="M150.4 536.596h3.398M150.4 544.664h3.398M150.4 537.403h3.398M150.4 538.21h3.398M150.4 539.017h3.398M150.4 539.823h3.398M150.4 540.63h3.398M150.4 541.437h3.398M150.4 542.244h3.398M150.4 543.05h3.398M150.4 543.857h3.398" style="marker:none" overflow="visible" transform="matrix(1.56067 0 0 1 145.554 -112.727)"/></g><g stroke="#333" color="#000" fill="none" stroke-width=".2" stroke-linecap="round" stroke-linejoin="round"><path d="M150.4 536.596h3.398M150.4 544.664h3.398M150.4 537.403h3.398M150.4 538.21h3.398M150.4 539.017h3.398M150.4 539.823h3.398M150.4 540.63h3.398M150.4 541.437h3.398M150.4 542.244h3.398M150.4 543.05h3.398M150.4 543.857h3.398" style="marker:none" overflow="visible" transform="matrix(1.56067 0 0 1 145.554 -105.466)"/></g><g stroke="#333" color="#000" fill="none" stroke-width=".2" stroke-linecap="round" stroke-linejoin="round"><path d="M150.4 536.596h3.398M150.4 544.664h3.398M150.4 537.403h3.398M150.4 538.21h3.398M150.4 539.017h3.398M150.4 539.823h3.398M150.4 540.63h3.398M150.4 541.437h3.398M150.4 542.244h3.398M150.4 543.05h3.398M150.4 543.857h3.398" style="marker:none" overflow="visible" transform="matrix(1.56067 0 0 1 145.554 -96.59)"/></g><g stroke="#333" color="#000" fill="none" stroke-width=".2" stroke-linecap="round" stroke-linejoin="round"><path style="marker:none" d="M150.4 536.596h3.398M150.4 544.664h3.398M150.4 537.403h3.398M150.4 538.21h3.398M150.4 539.017h3.398M150.4 539.823h3.398M150.4 540.63h3.398M150.4 541.437h3.398M150.4 542.244h3.398M150.4 543.05h3.398M150.4 543.857h3.398" overflow="visible" transform="matrix(1.56067 0 0 1 145.554 -88.522)"/></g><g stroke="#333" color="#000" fill="none" stroke-width=".2" stroke-linecap="round" stroke-linejoin="round"><path style="marker:none" d="M150.4 536.596h3.398M150.4 544.664h3.398M150.4 537.403h3.398M150.4 538.21h3.398M150.4 539.017h3.398M150.4 539.823h3.398M150.4 540.63h3.398M150.4 541.437h3.398M150.4 542.244h3.398M150.4 543.05h3.398M150.4 543.857h3.398" overflow="visible" transform="matrix(1.56067 0 0 1 145.554 -81.261)"/></g><g stroke="#333" color="#000" fill="none" stroke-width=".2" stroke-linecap="round" stroke-linejoin="round"><path d="M150.4 536.596h3.398M150.4 544.664h3.398M150.4 537.403h3.398M150.4 538.21h3.398M150.4 539.017h3.398M150.4 539.823h3.398M150.4 540.63h3.398M150.4 541.437h3.398M150.4 542.244h3.398M150.4 543.05h3.398M150.4 543.857h3.398" style="marker:none" overflow="visible" transform="matrix(1.56067 0 0 1 145.554 -73.193)"/></g><g stroke="#333" color="#000" fill="none" stroke-width=".2" stroke-linecap="round" stroke-linejoin="round"><path d="M150.4 536.596h3.398M150.4 544.664h3.398M150.4 537.403h3.398M150.4 538.21h3.398M150.4 539.017h3.398M150.4 539.823h3.398M150.4 540.63h3.398M150.4 541.437h3.398M150.4 542.244h3.398M150.4 543.05h3.398M150.4 543.857h3.398" style="marker:none" overflow="visible" transform="matrix(1.56067 0 0 1 145.554 -64.318)"/></g><g stroke="#333" color="#000" fill="none" stroke-width=".2" stroke-linecap="round" stroke-linejoin="round"><path style="marker:none" d="M150.4 536.596h3.398M150.4 544.664h3.398M150.4 537.403h3.398M150.4 538.21h3.398M150.4 539.017h3.398M150.4 539.823h3.398M150.4 540.63h3.398M150.4 541.437h3.398M150.4 542.244h3.398M150.4 543.05h3.398M150.4 543.857h3.398" overflow="visible" transform="matrix(1.56067 0 0 1 145.554 -56.25)"/></g><path style="marker:none" d="M393.042 631.665h-29.268v-16.718h29.199z" color="#000" fill="#ba1b41" stroke="#981740" stroke-width="1.5" stroke-linecap="round" stroke-linejoin="round" overflow="visible"/><path style="marker:none" d="M378.385 657.6l14.638-23.96-.278-130.334-7.574-14.027.599-198.712c-3.23-5.95-11.217-5.914-14.77 0l.598 198.712-7.574 14.027-.278 130.333 14.639 23.961" color="#000" fill="none" stroke="#333" stroke-width="1.5" stroke-linecap="round" stroke-linejoin="round" overflow="visible"/></svg>