<svg xmlns:ns0="http://www.iki.fi/pav/software/textext/" xmlns="http://www.w3.org/2000/svg" xmlns:xlink="http://www.w3.org/1999/xlink" width="1052.362" height="744.094"><title>Druckmessung (statisch und dynamisch)</title><defs><marker id="b" orient="auto" overflow="visible"><path d="M-1.2 0l-1 1 3.5-1-3.5-1 1 1z" fill-rule="evenodd" stroke="#000" stroke-width=".2pt"/></marker><marker id="e" orient="auto" overflow="visible"><path transform="rotate(180) scale(.6)" d="M8.719 4.034L-2.207.016 8.719-4.002c-1.746 2.372-1.736 5.618 0 8.036z" fill-rule="evenodd" stroke-width=".625" stroke-linejoin="round"/></marker><marker id="a" orient="auto" overflow="visible"><path d="M1.2 0l1-1-3.5 1 3.5 1-1-1z" fill-rule="evenodd" stroke="#000" stroke-width=".2pt"/></marker></defs><path style="marker:none" color="#000" fill="#fff" stroke="#fff" stroke-width="3.399" stroke-linecap="round" stroke-linejoin="bevel" overflow="visible" d="M44.168 208.421h964.026v327.253H44.168z"/><path d="M407.07 321.341l110.477-.16" fill="#3771c8" stroke="#87aade" stroke-width="3" stroke-linecap="round" stroke-dasharray="2.99999953,5.99999906"/><path d="M856.712 359.79v130.967l-661.122-.516c.038-43.543 0-130.45 0-130.45h176.943l.082-38.727 34.454.277.07 38.45h237.907l.188-77.01 34.454-.122.302 77.132z" style="marker:none" color="#000" fill="#afc6e9" stroke="#87aade" stroke-width="3" stroke-linecap="square" stroke-linejoin="bevel" overflow="visible"/><path d="M372.615 359.79H195.59" fill="none" stroke="#9b9c9f" stroke-width="3.881" stroke-linecap="round"/><path d="M197.13 489.724l659.582 1.033" fill="none" stroke="#9b9c9f" stroke-width="4" stroke-linecap="round"/><path d="M372.615 430.303V253.278M407.07 430.303V253.278M645.234 359.79h-234.83M679.688 444.685V253.278M645.234 410.23h-83.19m83.19 0V253.279M679.688 444.685H562.044M856.712 359.79H679.688" fill="none" stroke="#9b9c9f" stroke-width="3.881" stroke-linecap="round"/><path d="M517.547 282.942l127.687-.16" fill="#3771c8" stroke="#87aade" stroke-width="3" stroke-linecap="round" stroke-dasharray="2.99999954,5.99999908"/><path d="M517.707 628.863l-.16-37.653" fill="#3771c8" stroke="#1c3965" stroke-width="1.5" stroke-linecap="round" marker-start="url(#a)" marker-end="url(#b)" transform="translate(0 -308.268)"/><g ns0:preamble="/home/waldgeist/data/sphinx/inkscape-preamble.tex" ns0:text="$\\Delta h$" transform="matrix(3.237 0 0 3.237 -199.035 -121.687)" fill="#1c3965" stroke="#5498ff" stroke-width=".593"><defs><symbol id="c" overflow="visible"><path d="M4.406-6.953c-.062-.14-.093-.188-.265-.188-.157 0-.188.047-.25.188L.516-.203c-.047.094-.047.11-.047.125C.469 0 .53 0 .688 0h6.921c.157 0 .22 0 .22-.078 0-.016 0-.031-.048-.125zm-.578.812L6.516-.75H1.14zm0 0" stroke="none"/></symbol><symbol id="d" overflow="visible"><path d="M2.86-6.813s0-.109-.126-.109c-.234 0-.953.078-1.218.11-.079 0-.188.015-.188.187 0 .125.094.125.234.125.485 0 .5.063.5.172l-.03.203L.593-.391C.547-.25.547-.234.547-.17c0 .234.203.28.297.28a.407.407 0 0 0 .36-.265l.187-.75.218-.89c.063-.235.125-.454.172-.673.016-.062.11-.39.11-.453.03-.094.343-.64.687-.922.219-.156.516-.344.953-.344.422 0 .531.344.531.704 0 .53-.375 1.625-.609 2.234-.078.219-.14.344-.14.547 0 .469.359.812.828.812.937 0 1.296-1.453 1.296-1.53 0-.11-.078-.11-.109-.11-.11 0-.11.031-.156.187-.14.532-.469 1.235-1.016 1.235-.172 0-.234-.094-.234-.329 0-.25.078-.484.172-.703.156-.437.61-1.625.61-2.203 0-.64-.391-1.062-1.141-1.062-.626 0-1.11.312-1.485.765zm0 0" stroke="none"/></symbol></defs><use y="134.765" x="223.432" xlink:href="#c" width="1052.362" height="744.094"/><use y="134.765" x="231.734" xlink:href="#d" width="1052.362" height="744.094"/></g><path style="marker:none" d="M124.488 700.7h150.03M124.488 733.312h150.03M124.488 765.925h150.03M782.86 700.7h150.03M782.86 733.312h150.03M782.86 765.925h150.03" color="#000" fill="none" stroke="#00f" stroke-width="3" stroke-linecap="round" stroke-linejoin="round" marker-end="url(#e)" overflow="visible" transform="translate(0 -308.268)"/></svg>