<svg xmlns:ns0="http://www.iki.fi/pav/software/textext/" xmlns="http://www.w3.org/2000/svg" xmlns:xlink="http://www.w3.org/1999/xlink" width="1052.362" height="744.094"><title>Druckmessung (Messblende)</title><defs><marker id="e" orient="auto" overflow="visible"><path d="M-1.2 0l-1 1 3.5-1-3.5-1 1 1z" fill-rule="evenodd" stroke="#000" stroke-width=".2pt"/></marker><marker id="c" orient="auto" overflow="visible"><path transform="rotate(180) scale(.6)" d="M8.719 4.034L-2.207.016 8.719-4.002c-1.746 2.372-1.736 5.618 0 8.036z" fill-rule="evenodd" stroke-width=".625" stroke-linejoin="round"/></marker><marker id="d" orient="auto" overflow="visible"><path d="M1.2 0l1-1-3.5 1 3.5 1-1-1z" fill-rule="evenodd" stroke="#000" stroke-width=".2pt"/></marker></defs><path style="marker:none" color="#000" fill="#fff" stroke="#fff" stroke-width="3.399" stroke-linecap="round" stroke-linejoin="bevel" overflow="visible" d="M31.639 155.265h989.084V588.83H31.639z"/><path style="marker:none" d="M390.692 375.123l61.079-61.079h110.466v61.08zM451.77 252.967l-61.078-61.08h369.6l-61.079 61.08z" color="#000" fill="#b3b3b3" overflow="visible"/><path d="M451.77 252.967h247.443l61.079-61.08h169.884l-7.945 183.236H760.292l-61.079-61.079H596.692l.196 74.458-34.65-.037v-74.42H451.77l-61.08 61.078H273.049v97.612h-34.455v-97.612H120.95l-.082-144.51.082-38.725 34.454.277 235.288-.277z" style="marker:none" color="#000" fill="#afc6e9" stroke="#87aade" stroke-width="3" stroke-linecap="square" stroke-linejoin="bevel" overflow="visible"/><path style="marker:none" d="M238.593 472.735v79.412h358.099l.196-163.645-34.65-.037v129.228l-289.19-.035.081-44.805z" color="#000" fill="#5f8dd3" stroke="#3771c8" stroke-width="4" stroke-linecap="round" stroke-linejoin="round" overflow="visible"/><g fill="none" stroke="#9b9c9f" stroke-width="3.881" stroke-linecap="round"><path d="M238.593 552.147V375.123M273.048 517.658V375.123"/></g><path d="M390.692 191.888H120.95M390.692 375.123H273.048" fill="none" stroke="#9b9c9f" stroke-width="3.881" stroke-linecap="round"/><g ns0:preamble="/home/waldgeist/data/sphinx/inkscape-preamble.tex" ns0:text="$\\Delta h$" transform="matrix(3.237 0 0 3.237 -297.181 3.415)" fill="#1c3965" stroke="#5498ff" stroke-width=".593"><defs><symbol id="a" overflow="visible"><path d="M4.406-6.953c-.062-.14-.093-.188-.265-.188-.157 0-.188.047-.25.188L.516-.203c-.047.094-.047.11-.047.125C.469 0 .53 0 .688 0h6.921c.157 0 .22 0 .22-.078 0-.016 0-.031-.048-.125zm-.578.812L6.516-.75H1.14zm0 0" stroke="none"/></symbol><symbol id="b" overflow="visible"><path d="M2.86-6.813s0-.109-.126-.109c-.234 0-.953.078-1.218.11-.079 0-.188.015-.188.187 0 .125.094.125.234.125.485 0 .5.063.5.172l-.03.203L.593-.391C.547-.25.547-.234.547-.17c0 .234.203.28.297.28a.407.407 0 0 0 .36-.265l.187-.75.218-.89c.063-.235.125-.454.172-.673.016-.062.11-.39.11-.453.03-.094.343-.64.687-.922.219-.156.516-.344.953-.344.422 0 .531.344.531.704 0 .53-.375 1.625-.609 2.234-.078.219-.14.344-.14.547 0 .469.359.812.828.812.937 0 1.296-1.453 1.296-1.53 0-.11-.078-.11-.109-.11-.11 0-.11.031-.156.187-.14.532-.469 1.235-1.016 1.235-.172 0-.234-.094-.234-.329 0-.25.078-.484.172-.703.156-.437.61-1.625.61-2.203 0-.64-.391-1.062-1.141-1.062-.626 0-1.11.312-1.485.765zm0 0" stroke="none"/></symbol></defs><use y="134.765" x="223.432" xlink:href="#a" width="1052.362" height="744.094"/><use y="134.765" x="231.734" xlink:href="#b" width="1052.362" height="744.094"/></g><path d="M451.77 252.967l-61.078-61.08M562.237 517.693H273.048m289.19 0V314.044M596.692 552.147H238.593m358.099 0V314.044" fill="none" stroke="#9b9c9f" stroke-width="3.881" stroke-linecap="round"/><path d="M417.259 388.625l144.978-.16" fill="#3771c8" stroke="#3771c8" stroke-width="3" stroke-linecap="round" stroke-dasharray="2.99999953,5.99999906"/><path style="marker:none" d="M45.934 545.993h150.03M45.934 591.802h150.03M45.934 637.61h150.03M507.004 573.828h150.03M507.004 591.07h150.03M507.004 608.312h150.03" color="#000" fill="none" stroke="#00f" stroke-width="3" stroke-linecap="round" stroke-linejoin="round" marker-end="url(#c)" overflow="visible" transform="translate(0 -308.268)"/><g fill="none" stroke="#9b9c9f" stroke-width="3.797" stroke-linecap="round"><path d="M630.624 590.123H453.6M559.322 651.2H453.6" transform="matrix(1.04488 0 0 1 -22.188 -337.156)"/></g><path d="M238.593 375.123H120.95M699.213 252.967H599.041" fill="none" stroke="#9b9c9f" stroke-width="3.881" stroke-linecap="round"/><path d="M273.13 472.852l144.978-.16" fill="#3771c8" stroke="#3771c8" stroke-width="3" stroke-linecap="round" stroke-dasharray="2.99999953,5.99999906"/><path d="M418.108 779.198l-.16-82.306" fill="#3771c8" stroke="#1c3965" stroke-width="1.5" stroke-linecap="round" marker-start="url(#d)" marker-end="url(#e)" transform="translate(0 -308.268)"/><path d="M660.434 191.888H390.692M930.176 191.888H660.434M699.213 314.044H596.692M922.23 375.123H760.293M451.77 314.044l-61.078 61.08M699.213 314.044l61.079 61.08M699.213 252.967l61.079-61.08" fill="none" stroke="#9b9c9f" stroke-width="3.881" stroke-linecap="round"/><path d="M853.924 545.993h150.03M853.924 591.802h150.03M853.924 637.61h150.03" style="marker:none" color="#000" fill="none" stroke="#00f" stroke-width="3" stroke-linecap="round" stroke-linejoin="round" marker-end="url(#c)" overflow="visible" transform="translate(0 -308.268)"/><path d="M562.237 375.123H390.692M760.292 375.123h-163.6M562.237 517.693H273.048m289.19 0V314.044M596.692 552.147H238.593m358.099 0V314.044" fill="none" stroke="#9b9c9f" stroke-width="3.881" stroke-linecap="round"/><path style="marker:none" d="M596.692 375.123v-61.079h102.521l61.079 61.08z" color="#000" fill="#b3b3b3" overflow="visible"/></svg>