<svg xmlns="http://www.w3.org/2000/svg" xmlns:xlink="http://www.w3.org/1999/xlink" width="1052.362" height="744.094"><title>Druckausbreitung</title><defs><linearGradient id="d"><stop offset="0" stop-opacity="0"/><stop offset="1" stop-color="#fff"/></linearGradient><linearGradient id="e"><stop offset="0" stop-color="#fff"/><stop offset="1" stop-color="#fff" stop-opacity="0"/></linearGradient><linearGradient id="f"><stop offset="0" stop-color="#1a1a1a" stop-opacity=".828"/><stop offset="1" stop-color="#fff"/></linearGradient><linearGradient id="a"><stop offset="0" stop-opacity="0"/><stop offset="1" stop-color="#fff"/></linearGradient><linearGradient id="b"><stop offset="0" stop-color="#ebebeb"/><stop offset="1" stop-color="#fff" stop-opacity="0"/></linearGradient><linearGradient id="c"><stop offset="0" stop-color="#0e0e0e" stop-opacity=".746"/><stop offset="1" stop-color="#fff"/></linearGradient><pattern patternUnits="userSpaceOnUse" width="30.066" height="5.181" id="g"><path d="M7.597.061C5.079-.187 2.656.302-.01 1.788v1.273c2.783-1.63 5.183-2.009 7.482-1.781 2.298.228 4.497 1.081 6.781 1.938 4.567 1.713 9.551 3.458 15.813-.157l-.004-1.273c-6.44 3.709-10.816 1.982-15.371.273-2.278-.854-4.576-1.75-7.094-2z"/></pattern><pattern patternTransform="translate(.25)" id="h" xlink:href="#g"/></defs><path style="marker:none" color="#000" fill="#fff" stroke="#fff" stroke-width="4.5" stroke-linecap="round" stroke-linejoin="bevel" overflow="visible" d="M163.301 181.594h725.76V562.5h-725.76z"/><path d="M322.51 340.363v63.26" opacity=".5" fill="#4d4d4d" stroke="#4d4d4d" stroke-width="1.5"/><g fill="#4d4d4d" stroke="#4d4d4d" stroke-width="10.818"><path d="M400.554 567.236v-22.475" stroke-linecap="round" transform="matrix(.66621 0 0 .46171 57.15 68.293)"/><path d="M400.554 589.712v-44.951" transform="matrix(.66621 0 0 .46171 57.15 68.293)"/></g><g fill="#4d4d4d" stroke="#4d4d4d" stroke-width="10.873"><path d="M400.554 567.236v-22.475" stroke-linecap="round" transform="matrix(.66621 0 0 -.45712 57.15 673.662)"/><path d="M400.554 590.742V545.79" fill-opacity=".502" transform="matrix(.66621 0 0 -.45712 57.15 673.662)"/></g><path d="M552.001 340.363h57.822c3.96-9.585 7.956-19.184 19.149-31.4l-11.424-11.424 4.817-4.817 11.418 11.43c15.666-16.314 36.643-22.489 59.683-24.725V263.27h6.813l-.008 16.156c24.51.932 43.219 11.051 59.686 24.719l11.424-11.424 4.817 4.817-11.43 11.419c14.698 17.176 22.823 37.12 24.725 59.683h16.157v6.812l-16.157-.008c-.798 19.003-7.13 38.669-24.719 59.686l11.424 11.424-4.817 4.817-11.418-11.43c-14.17 10.618-28.117 21.329-59.684 24.726v16.156h-6.812l.008-16.156c-32.181-2.945-46.705-13.5-59.686-24.72l-11.424 11.425-4.817-4.818 11.43-11.418c-9.69-10.137-15.515-20.704-19.155-31.513H551.69z" fill="#afc6e9"/><path d="M805.65 372.047h22.908" fill="#afc6e9" stroke="#afc6e9" stroke-width="6" stroke-linecap="round"/><path d="M324.004 340.57l285.82-.207c3.958-9.585 7.955-19.184 19.148-31.4l-11.424-11.424 4.817-4.817 11.418 11.43c15.666-16.314 36.643-22.489 59.683-24.725V263.27h6.813l-.008 16.156c24.51.932 43.219 11.051 59.686 24.719l11.424-11.424 4.817 4.817-11.43 11.419c14.698 17.176 22.823 37.12 24.725 59.683h16.157v6.812l-16.157-.008c-.798 19.003-7.13 38.669-24.719 59.686l11.424 11.424-4.817 4.817-11.418-11.43c-14.17 10.618-28.117 21.329-59.684 24.726v16.156h-6.812l.008-16.156c-32.181-2.945-46.705-13.5-59.686-24.72l-11.424 11.425-4.817-4.818 11.43-11.418c-9.69-10.137-15.515-20.704-19.155-31.513h-285.82z" fill="#e5e5e5" fill-opacity=".302"/><path d="M322.51 403.624h287.313" fill="none" stroke="#4d4d4d" stroke-width="1.5" stroke-linecap="round"/><path style="marker:none" d="M422.067 511.394c15.264-41.94 61.638-63.564 103.578-48.3 41.94 15.266 63.564 61.64 48.299 103.579-15.265 41.94-61.638 63.564-103.578 48.3a80.812 80.812 0 0 1-48.3-48.3" transform="matrix(1.14631 0 0 1.14634 126.002 -245.87)" color="#000" fill="none" stroke="#000" stroke-width="1.309" stroke-linecap="round" stroke-linejoin="bevel" overflow="visible"/><path d="M773.79 448.964l16.198 16.199" fill="#afc6e9" stroke="#afc6e9" stroke-width="6" stroke-linecap="round"/><path d="M743.207 452.279c7.116-4.262 11.073-7.269 16.756-12.337 3.572 3.573 11.418 11.43 11.418 11.43l4.817-4.817-11.424-11.424c5.933-6.974 7.364-8.468 12.33-16.75M786.368 396.016c2.018-8.045 2.69-12.969 3.125-20.57 5.052 0 16.157.007 16.157.007v-6.812h-16.157c-.736-9.127-.78-11.195-3.125-20.563" style="marker:none" color="#000" fill="#bfcfe8" stroke="#4d4d4d" stroke-width="1.5" stroke-linecap="round" stroke-linejoin="bevel" overflow="visible"/><path d="M773.79 295.13l16.198-16.198" fill="#afc6e9" stroke="#afc6e9" stroke-width="6" stroke-linecap="round"/><path style="marker:none" d="M777.104 325.713c-4.262-7.116-7.268-11.073-12.336-16.755 3.572-3.573 11.43-11.419 11.43-11.419l-4.817-4.817-11.424 11.424c-6.974-5.933-8.469-7.363-16.75-12.33" color="#000" fill="#bfcfe8" stroke="#4d4d4d" stroke-width="1.5" stroke-linecap="round" stroke-linejoin="bevel" overflow="visible"/><path d="M696.873 263.27v-22.908" fill="#afc6e9" stroke="#afc6e9" stroke-width="6" stroke-linecap="round"/><path d="M720.842 282.552c-8.045-2.018-12.97-2.69-20.571-3.125 0-5.052.008-16.156.008-16.156h-6.813v16.156c-9.126.736-11.194.781-20.562 3.125" style="marker:none" color="#000" fill="#bfcfe8" stroke="#4d4d4d" stroke-width="1.5" stroke-linecap="round" stroke-linejoin="bevel" overflow="visible"/><path d="M619.956 295.13l-16.199-16.198" fill="#afc6e9" stroke="#afc6e9" stroke-width="6" stroke-linecap="round"/><path style="marker:none" d="M650.539 291.816c-7.116 4.262-11.073 7.268-16.756 12.336-3.572-3.572-11.418-11.43-11.418-11.43l-4.817 4.817 11.424 11.425c-5.933 6.974-7.364 8.468-12.33 16.75" color="#000" fill="#bfcfe8" stroke="#4d4d4d" stroke-width="1.5" stroke-linecap="round" stroke-linejoin="bevel" overflow="visible"/><path d="M619.956 448.964l-16.199 16.199" fill="#afc6e9" stroke="#afc6e9" stroke-width="6" stroke-linecap="round"/><path d="M616.642 418.381c4.261 7.116 7.268 11.073 12.336 16.756-3.572 3.572-11.43 11.418-11.43 11.418l4.817 4.818 11.424-11.425c6.974 5.934 8.468 7.364 16.75 12.33" style="marker:none" color="#000" fill="#bfcfe8" stroke="#4d4d4d" stroke-width="1.5" stroke-linecap="round" stroke-linejoin="bevel" overflow="visible"/><path d="M696.873 480.824v22.908" fill="#afc6e9" stroke="#afc6e9" stroke-width="6" stroke-linecap="round"/><path style="marker:none" d="M672.904 461.543c8.045 2.018 12.969 2.69 20.57 3.125 0 5.051-.007 16.156-.007 16.156h6.812v-16.156c9.127-.737 11.195-.782 20.563-3.125" color="#000" fill="#bfcfe8" stroke="#4d4d4d" stroke-width="1.5" stroke-linecap="round" stroke-linejoin="bevel" overflow="visible"/><path d="M322.51 340.363h287.313" fill="none" stroke="#4d4d4d" stroke-width="1.5" stroke-linecap="round"/><g fill="none" stroke="gray" stroke-linecap="round"><path d="M551.823 341.956v59.433" stroke-width="6"/><path d="M257.02 341.956v59.433" stroke-width="8"/><g stroke-width="10.873"><path d="M107.172 661.422h439.802M107.172 649.422h439.802M107.172 655.422h439.802" transform="matrix(.66621 0 0 .45712 185.62 72.067)"/></g></g><g stroke="#000"><path d="M221.555 397.719c5.295-6.543 6.882-65.096 20.43-57.65 6.372 3.501 10.804 11.877 12.88 19.338 3.547 12.75-1.778 39.66-1.778 39.66" fill="#fca" stroke-width="1.49964112"/><path d="M226.736 383c6.168-1.571 11.726-40.491 6.373-43.71-2.88 4.835-11.37 44.984-6.373 43.71z" fill="#ccc" stroke-width="1.00060944" stroke-linecap="round"/></g><path d="M424.133 728.103V591.07" stroke-width="10.765" transform="matrix(.66621 0 0 -.46633 41.442 679.256)" fill="#4d4d4d" stroke="#4d4d4d"/><g fill="#d40000"><path style="text-indent:0;text-align:start;line-height:normal;text-transform:none;block-progression:tb;marker:none;-inkscape-font-specification:Sans" d="M255.02 375.054h98.958s6.925-3.352 6.913-3.378l-6.913-3.379H255.02z" font-weight="400" color="#000" overflow="visible" font-family="Sans"/><path d="M-707.107 1620.068l-5.249-9.091-5.249-9.092h20.996l-5.249 9.091z" transform="matrix(.00001 -.2333 .34777 0 -205.956 206.692)" stroke="#d40000" stroke-width="52.499" stroke-linecap="square"/></g><g fill="#d40000" stroke-width="13.595"><path d="M698.708 277.22v-26.077s-1.82-1.825-1.835-1.822l-1.835 1.822v26.077z" style="text-indent:0;text-align:start;line-height:normal;text-transform:none;block-progression:tb;marker:none;-inkscape-font-specification:Sans" font-weight="400" color="#000" overflow="visible" font-family="Sans"/><path transform="matrix(-.1267 0 0 -.1296 607.271 460.553)" d="M-707.107 1620.068l-5.249-9.091-5.249-9.092h20.996l-5.249 9.091z" stroke="#d40000" stroke-width="26.338" stroke-linecap="square"/></g><g fill="#d40000" stroke-width="13.595"><path style="text-indent:0;text-align:start;line-height:normal;text-transform:none;block-progression:tb;marker:none;-inkscape-font-specification:Sans" d="M762.887 303.437l18.44-18.44s2.577-.003 2.585.01l.01 2.585-18.44 18.44z" font-weight="400" color="#000" overflow="visible" font-family="Sans"/><path d="M-707.107 1620.068l-5.249-9.091-5.249-9.092h20.996l-5.249 9.091z" transform="matrix(.0896 .08959 .09163 -.09164 697.907 497.728)" stroke="#d40000" stroke-width="26.338" stroke-linecap="square"/></g><g fill="#d40000" stroke-width="13.595"><path d="M630.858 303.437l-18.439-18.44s-2.577-.003-2.586.01l-.009 2.585 18.44 18.44z" style="text-indent:0;text-align:start;line-height:normal;text-transform:none;block-progression:tb;marker:none;-inkscape-font-specification:Sans" font-weight="400" color="#000" overflow="visible" font-family="Sans"/><path transform="matrix(-.0896 .08959 -.09163 -.09164 695.839 497.728)" d="M-707.107 1620.068l-5.249-9.091-5.249-9.092h20.996l-5.249 9.091z" stroke="#d40000" stroke-width="26.338" stroke-linecap="square"/></g><g fill="#d40000" stroke-width="13.595"><path style="text-indent:0;text-align:start;line-height:normal;text-transform:none;block-progression:tb;marker:none;-inkscape-font-specification:Sans" d="M791.5 373.884h26.076s1.825-1.82 1.822-1.835l-1.822-1.835H791.5z" font-weight="400" color="#000" overflow="visible" font-family="Sans"/><path d="M-707.107 1620.068l-5.249-9.091-5.249-9.092h20.996l-5.249 9.091z" transform="matrix(0 -.1267 .1296 0 608.166 282.447)" stroke="#d40000" stroke-width="26.338" stroke-linecap="square"/></g><g fill="#d40000" stroke-width="13.595"><path d="M763.273 441.041l18.439 18.44s2.577.003 2.586-.01l.009-2.585-18.44-18.44z" style="text-indent:0;text-align:start;line-height:normal;text-transform:none;block-progression:tb;marker:none;-inkscape-font-specification:Sans" font-weight="400" color="#000" overflow="visible" font-family="Sans"/><path transform="matrix(.0896 -.08959 .09163 .09164 698.292 246.75)" d="M-707.107 1620.068l-5.249-9.091-5.249-9.092h20.996l-5.249 9.091z" stroke="#d40000" stroke-width="26.338" stroke-linecap="square"/></g><g fill="#d40000" stroke-width="13.595"><path style="text-indent:0;text-align:start;line-height:normal;text-transform:none;block-progression:tb;marker:none;-inkscape-font-specification:Sans" d="M698.708 466.874v26.077s-1.82 1.825-1.835 1.822l-1.835-1.822v-26.077z" font-weight="400" color="#000" overflow="visible" font-family="Sans"/><path d="M-707.107 1620.068l-5.249-9.091-5.249-9.092h20.996l-5.249 9.091z" transform="matrix(-.1267 0 0 .1296 607.272 283.542)" stroke="#d40000" stroke-width="26.338" stroke-linecap="square"/></g><g fill="#d40000" stroke-width="13.595"><path d="M627.879 438.447l-18.44 18.44s-.003 2.577.01 2.585l2.585.009 18.44-18.44z" style="text-indent:0;text-align:start;line-height:normal;text-transform:none;block-progression:tb;marker:none;-inkscape-font-specification:Sans" font-weight="400" color="#000" overflow="visible" font-family="Sans"/><path transform="matrix(.08959 .0896 -.09164 .09163 822.17 373.466)" d="M-707.107 1620.068l-5.249-9.091-5.249-9.092h20.996l-5.249 9.091z" stroke="#d40000" stroke-width="26.338" stroke-linecap="square"/></g><g color="#000" fill="#afc6e9"><path d="M799.542 272.347a3.062 3.062 0 1 1-4.33-4.33 3.062 3.062 0 0 1 4.33 4.33zM805.64 265.2a2.297 2.297 0 1 1-3.248-3.249 2.297 2.297 0 0 1 3.248 3.248zM810.922 259.13a1.722 1.722 0 1 1-2.436-2.436 1.722 1.722 0 0 1 2.436 2.436zM815.592 253.87a1.292 1.292 0 1 1-1.827-1.828 1.292 1.292 0 0 1 1.827 1.827zM819.803 249.215a.969.969 0 1 1-1.37-1.37.969.969 0 0 1 1.37 1.37z" style="marker:none" overflow="visible"/></g><g color="#000" fill="#afc6e9"><path style="marker:none" d="M839.97 374.147a3.062 3.062 0 1 1 0-6.125 3.062 3.062 0 0 1 0 6.125zM849.336 373.404a2.297 2.297 0 1 1 0-4.593 2.297 2.297 0 0 1 0 4.593zM857.363 372.848a1.722 1.722 0 1 1 0-3.445 1.722 1.722 0 0 1 0 3.445zM864.385 372.43a1.292 1.292 0 1 1 0-2.584 1.292 1.292 0 0 1 0 2.584zM870.653 372.117a.969.969 0 1 1 0-1.938.969.969 0 0 1 0 1.938z" overflow="visible"/></g><g color="#000" fill="#afc6e9"><path d="M796.573 474.717a3.062 3.062 0 1 1 4.33-4.331 3.062 3.062 0 0 1-4.33 4.33zM803.721 480.815a2.297 2.297 0 1 1 3.248-3.248 2.297 2.297 0 0 1-3.248 3.248zM809.79 486.097a1.722 1.722 0 1 1 2.436-2.436 1.722 1.722 0 0 1-2.436 2.436zM815.05 490.767a1.292 1.292 0 1 1 1.828-1.827 1.292 1.292 0 0 1-1.827 1.827zM819.705 494.978a.969.969 0 1 1 1.37-1.37.969.969 0 0 1-1.37 1.37z" style="marker:none" overflow="visible"/></g><g color="#000" fill="#afc6e9"><path style="marker:none" d="M694.773 515.144a3.062 3.062 0 1 1 6.125 0 3.062 3.062 0 0 1-6.125 0zM695.516 524.51a2.297 2.297 0 1 1 4.593 0 2.297 2.297 0 0 1-4.593 0zM696.072 532.537a1.722 1.722 0 1 1 3.445 0 1.722 1.722 0 0 1-3.445 0zM696.49 539.559a1.292 1.292 0 1 1 2.584 0 1.292 1.292 0 0 1-2.584 0zM696.803 545.827a.969.969 0 1 1 1.938 0 .969.969 0 0 1-1.938 0z" overflow="visible"/></g><g color="#000" fill="#afc6e9"><path d="M594.204 471.747a3.062 3.062 0 1 1 4.33 4.33 3.062 3.062 0 0 1-4.33-4.33zM588.105 478.895a2.297 2.297 0 1 1 3.248 3.248 2.297 2.297 0 0 1-3.248-3.248zM582.823 484.965a1.722 1.722 0 1 1 2.436 2.436 1.722 1.722 0 0 1-2.436-2.436zM578.154 490.225a1.292 1.292 0 1 1 1.826 1.827 1.292 1.292 0 0 1-1.826-1.827zM573.943 494.879a.969.969 0 1 1 1.37 1.37.969.969 0 0 1-1.37-1.37z" style="marker:none" overflow="visible"/></g><g color="#000" fill="#afc6e9"><path style="marker:none" d="M597.173 269.378a3.062 3.062 0 1 1-4.33 4.33 3.062 3.062 0 0 1 4.33-4.33zM590.025 263.28a2.297 2.297 0 1 1-3.248 3.248 2.297 2.297 0 0 1 3.248-3.248zM583.956 257.998a1.722 1.722 0 1 1-2.436 2.436 1.722 1.722 0 0 1 2.436-2.436zM578.695 253.328a1.292 1.292 0 1 1-1.827 1.827 1.292 1.292 0 0 1 1.827-1.827zM574.041 249.117a.969.969 0 1 1-1.37 1.37.969.969 0 0 1 1.37-1.37z" overflow="visible"/></g><g color="#000" fill="#afc6e9"><path d="M698.973 228.95a3.062 3.062 0 1 1-6.125 0 3.062 3.062 0 0 1 6.125 0zM698.23 219.584a2.297 2.297 0 1 1-4.593 0 2.297 2.297 0 0 1 4.593 0zM697.674 211.557a1.722 1.722 0 1 1-3.445 0 1.722 1.722 0 0 1 3.445 0zM697.256 204.536a1.292 1.292 0 1 1-2.584 0 1.292 1.292 0 0 1 2.584 0zM696.943 198.267a.969.969 0 1 1-1.938 0 .969.969 0 0 1 1.938 0z" style="marker:none" overflow="visible"/></g></svg>