<svg xmlns:ns0="http://www.iki.fi/pav/software/textext/" xmlns="http://www.w3.org/2000/svg" xmlns:xlink="http://www.w3.org/1999/xlink" width="744.094" height="1052.362"><title>Geschwindigkeitsprofil einer duennen Fluessigkeitsschicht</title><defs><marker id="c" orient="auto" overflow="visible"><path transform="rotate(180) scale(.6)" d="M8.719 4.034L-2.207.016 8.719-4.002c-1.746 2.372-1.736 5.618 0 8.036z" fill-rule="evenodd" stroke-width=".625" stroke-linejoin="round"/></marker></defs><path style="marker:none" color="#000" fill="#fff" stroke="#fff" stroke-width="4.097" stroke-linecap="round" stroke-linejoin="bevel" overflow="visible" d="M45.649 435.002h652.797V617.36H45.649z"/><path d="M219.696 503.529h304.703v79.423H219.696z" fill="#afc6e9"/><path d="M211.484 498.51H532.61" fill="none" stroke="#9b9c9f" stroke-width="10" stroke-linecap="round"/><path d="M470.213 505.468l-53.836 79.422" fill="none" stroke="#00f" stroke-width="2" stroke-linecap="round" stroke-dasharray="1.99999998,5.99999995"/><g ns0:text="$\\vec{v}_{\\rm{}}$" ns0:preamble="/home/waldgeist/sandbox/homepage/inkscape-preamble.tex" transform="matrix(4.54271 0 0 4.54271 -658.671 -57.946)" fill="#00f" stroke="#00f"><defs><symbol overflow="visible" id="a"><path d="M5.36-5.938c-.141.141-.47.422-.47.594 0 .094.094.203.188.203s.14-.078.203-.14c.11-.14.344-.422.782-.64.062-.048.171-.095.171-.204 0-.11-.078-.156-.14-.203a1.034 1.034 0 0 1-.407-.563c-.03-.093-.062-.234-.203-.234-.14 0-.203.14-.203.219 0 .047.078.36.235.578h-3.36c-.156 0-.344 0-.344.203 0 .188.188.188.344.188z" stroke="none"/></symbol><symbol overflow="visible" id="b"><path d="M4.672-3.703c0-.547-.266-.703-.438-.703-.25 0-.5.265-.5.484 0 .125.047.188.157.297.218.203.343.453.343.813 0 .421-.609 2.703-1.765 2.703-.516 0-.75-.344-.75-.875 0-.547.281-1.282.578-2.11.078-.172.125-.312.125-.5 0-.437-.313-.812-.813-.812-.937 0-1.312 1.453-1.312 1.531 0 .11.094.11.11.11.109 0 .109-.032.156-.188.296-1 .718-1.235 1.015-1.235.078 0 .25 0 .25.313 0 .25-.11.531-.172.703-.437 1.156-.562 1.61-.562 2.047 0 1.078.875 1.234 1.328 1.234 1.672 0 2.25-3.296 2.25-3.812z" stroke="none"/></symbol></defs><use height="1052.362" width="744.094" xlink:href="#a" x="223.045" y="134.765"/><use height="1052.362" width="744.094" xlink:href="#b" x="223.434" y="134.765"/></g><path d="M401.983 541.104h39.269M401.983 516.988h56.576M401.983 567.706h22.065" style="marker:none" color="#000" fill="none" stroke="#00f" stroke-width="3" stroke-linecap="round" stroke-linejoin="round" marker-end="url(#c)" overflow="visible"/><g transform="matrix(4.54271 0 0 4.54271 -661.29 -130.73)" ns0:text="$\\vec{F}_{\\rm{}}$" fill="#d40000" stroke="#d40000"><defs><symbol id="d" overflow="visible"><path d="M5.36-5.938c-.141.141-.47.422-.47.594 0 .094.094.203.188.203s.14-.078.203-.14c.11-.14.344-.422.782-.64.062-.048.171-.095.171-.204 0-.11-.078-.156-.14-.203a1.034 1.034 0 0 1-.407-.563c-.03-.093-.062-.234-.203-.234-.14 0-.203.14-.203.219 0 .047.078.36.235.578h-3.36c-.156 0-.344 0-.344.203 0 .188.188.188.344.188zm0 0" stroke="none"/></symbol><symbol id="e" overflow="visible"><path d="M3.016-3.234h.968c.75 0 .829.156.829.437 0 .078 0 .188-.063.5-.031.047-.031.078-.031.11 0 .078.062.109.11.109.109 0 .109-.031.155-.203l.547-2.172c.032-.11.032-.125.032-.156a.117.117 0 0 0-.125-.11c-.094 0-.11.047-.141.219-.219.766-.438.953-1.297.953h-.906l.64-2.531c.094-.36.11-.39.547-.39h1.313c1.218 0 1.453.327 1.453 1.093 0 .234 0 .266-.031.547C7-4.703 7-4.688 7-4.656c0 .047.031.125.125.125.11 0 .11-.063.125-.25l.203-1.735c.031-.265-.016-.265-.266-.265h-4.89c-.188 0-.297 0-.297.203 0 .11.094.11.281.11.375 0 .656 0 .656.171 0 .047 0 .063-.062.25L1.562-.78c-.093.39-.109.469-.906.469-.172 0-.281 0-.281.187C.375 0 .5 0 .531 0c.281 0 1.031-.031 1.313-.031C2.172-.031 3 0 3.328 0c.094 0 .203 0 .203-.188 0-.078-.047-.109-.047-.109-.03-.016-.062-.016-.28-.016-.22 0-.267 0-.517-.015-.296-.031-.328-.078-.328-.203 0-.016 0-.078.047-.219zm0 0" stroke="none"/></symbol></defs><use y="132.247" x="224.901" xlink:href="#d" width="744.094" height="1052.362"/><use y="134.765" x="223.432" xlink:href="#e" width="744.094" height="1052.362"/></g><path d="M315.052 488.88H426.57" style="marker:none" color="#000" fill="none" stroke="#d40000" stroke-width="3" stroke-linecap="round" stroke-linejoin="round" marker-end="url(#c)" overflow="visible"/><path style="marker:none" color="#000" fill="gray" fill-rule="evenodd" stroke="#4d4d4d" stroke-width="1.5" overflow="visible" d="M140.447 582.953h463.201v15.584H140.447z"/></svg>