<?xml version="1.0" encoding="UTF-8" standalone="no"?>
<!-- Created with Inkscape (http://www.inkscape.org/) -->

<svg
   xmlns:ns0="http://www.iki.fi/pav/software/textext/"
   xmlns:dc="http://purl.org/dc/elements/1.1/"
   xmlns:cc="http://creativecommons.org/ns#"
   xmlns:rdf="http://www.w3.org/1999/02/22-rdf-syntax-ns#"
   xmlns:svg="http://www.w3.org/2000/svg"
   xmlns="http://www.w3.org/2000/svg"
   xmlns:xlink="http://www.w3.org/1999/xlink"
   xmlns:sodipodi="http://sodipodi.sourceforge.net/DTD/sodipodi-0.dtd"
   xmlns:inkscape="http://www.inkscape.org/namespaces/inkscape"
   width="744.09448819"
   height="1052.3622047"
   id="svg2"
   version="1.1"
   inkscape:version="0.48.4 r9939"
   sodipodi:docname="geschwindigkeitsprofil-duenne-fluessigkeitsschicht.svg">
  <sodipodi:namedview
     id="base"
     pagecolor="#ffffff"
     bordercolor="#666666"
     borderopacity="1.0"
     inkscape:pageopacity="0.0"
     inkscape:pageshadow="2"
     inkscape:zoom="1.1550055"
     inkscape:cx="375.07848"
     inkscape:cy="578.06162"
     inkscape:document-units="px"
     inkscape:current-layer="layer1"
     showgrid="false"
     inkscape:object-paths="true"
     inkscape:snap-smooth-nodes="true"
     inkscape:snap-midpoints="true"
     inkscape:snap-object-midpoints="true"
     inkscape:snap-page="true"
     inkscape:object-nodes="true"
     inkscape:window-width="1600"
     inkscape:window-height="1150"
     inkscape:window-x="0"
     inkscape:window-y="0"
     inkscape:window-maximized="1"
     inkscape:snap-global="false"
     showguides="false"
     inkscape:guide-bbox="true">
    <sodipodi:guide
       orientation="1,0"
       position="91.738769,425.69738"
       id="guide5127" />
    <sodipodi:guide
       orientation="1,0"
       position="659.62931,657.76155"
       id="guide5129" />
    <sodipodi:guide
       orientation="1,0"
       position="351.79839,645.77965"
       id="guide4838" />
    <sodipodi:guide
       id="guide5156"
       position="86.0583,424.33896"
       orientation="0,1" />
    <sodipodi:guide
       id="guide5158"
       position="85.379404,657.76155"
       orientation="0,1" />
  </sodipodi:namedview>
  <title
     id="title3017">Geschwindigkeitsprofil einer duennen Fluessigkeitsschicht</title>
  <defs
     id="defs4">
    <marker
       style="overflow:visible;"
       id="Arrow2Mend"
       refX="0.0"
       refY="0.0"
       orient="auto"
       inkscape:stockid="Arrow2Mend">
      <path
         transform="scale(0.6) rotate(180) translate(0,0)"
         d="M 8.7185878,4.0337352 L -2.2072895,0.016013256 L 8.7185884,-4.0017078 C 6.9730900,-1.6296469 6.9831476,1.6157441 8.7185878,4.0337352 z "
         style="fill-rule:evenodd;stroke-width:0.62500000;stroke-linejoin:round;"
         id="path29914" />
    </marker>
  </defs>
  <metadata
     id="metadata7">
    <rdf:RDF>
      <cc:Work
         rdf:about="">
        <dc:format>image/svg+xml</dc:format>
        <dc:type
           rdf:resource="http://purl.org/dc/dcmitype/StillImage" />
        <dc:title>Geschwindigkeitsprofil einer duennen Fluessigkeitsschicht</dc:title>
        <dc:date>2014-04-06</dc:date>
        <dc:creator>
          <cc:Agent>
            <dc:title>Bernhard Grotz</dc:title>
          </cc:Agent>
        </dc:creator>
        <dc:rights>
          <cc:Agent>
            <dc:title>Bernhard Grotz</dc:title>
          </cc:Agent>
        </dc:rights>
        <dc:publisher>
          <cc:Agent>
            <dc:title>Bernhard Grotz</dc:title>
          </cc:Agent>
        </dc:publisher>
        <dc:language>de-DE</dc:language>
        <dc:subject>
          <rdf:Bag>
            <rdf:li>Physik</rdf:li>
            <rdf:li>Mechanik der Fluessigkeiten und Gase</rdf:li>
            <rdf:li>Geschwindigkeitsprofil</rdf:li>
            <rdf:li>Viskositaet</rdf:li>
          </rdf:Bag>
        </dc:subject>
        <cc:license
           rdf:resource="http://creativecommons.org/licenses/by-nc-sa/3.0/" />
      </cc:Work>
      <cc:License
         rdf:about="http://creativecommons.org/licenses/by-nc-sa/3.0/">
        <cc:permits
           rdf:resource="http://creativecommons.org/ns#Reproduction" />
        <cc:permits
           rdf:resource="http://creativecommons.org/ns#Distribution" />
        <cc:requires
           rdf:resource="http://creativecommons.org/ns#Notice" />
        <cc:requires
           rdf:resource="http://creativecommons.org/ns#Attribution" />
        <cc:prohibits
           rdf:resource="http://creativecommons.org/ns#CommercialUse" />
        <cc:permits
           rdf:resource="http://creativecommons.org/ns#DerivativeWorks" />
        <cc:requires
           rdf:resource="http://creativecommons.org/ns#ShareAlike" />
      </cc:License>
    </rdf:RDF>
  </metadata>
  <g
     inkscape:label="Layer 1"
     inkscape:groupmode="layer"
     id="layer1">
    <rect
       style="color:#000000;fill:#ffffff;fill-opacity:1;fill-rule:nonzero;stroke:#ffffff;stroke-width:4.09686899;stroke-linecap:round;stroke-linejoin:bevel;stroke-miterlimit:4;stroke-opacity:1;stroke-dasharray:none;stroke-dashoffset:0;marker:none;visibility:visible;display:inline;overflow:visible;enable-background:accumulate"
       id="rect5337"
       width="652.79669"
       height="182.35834"
       x="45.648895"
       y="435.00189"
       inkscape:export-filename="/home/waldgeist/data/homepage/pics/physik/mechanik/festkoerper-fluessigkeiten-und-gase/geschwindigkeitsprofil-duenne-fluessigkeitsschicht.png"
       inkscape:export-xdpi="150"
       inkscape:export-ydpi="150" />
    <path
       inkscape:export-ydpi="150"
       inkscape:export-xdpi="150"
       inkscape:export-filename="/home/waldgeist/data/homepage/pics/physik/mechanik/festkoerper-fluessigkeiten-und-gase/geschwindigkeitsprofil-duenne-fluessigkeitsschicht.png"
       sodipodi:nodetypes="ccccc"
       inkscape:connector-curvature="0"
       id="path5154"
       d="m 219.69591,503.52896 304.70266,0 0,79.42259 -304.70266,0 z"
       style="fill:#afc6e9;fill-opacity:1;stroke:none" />
    <g
       transform="translate(-2.4123838,-45.071674)"
       inkscape:export-ydpi="150"
       inkscape:export-xdpi="150"
       inkscape:export-filename="/home/waldgeist/data/homepage/pics/physik/mechanik/festkoerper-fluessigkeiten-und-gase/geschwindigkeitsprofil-duenne-fluessigkeitsschicht.png"
       id="g4808">
      <path
         sodipodi:nodetypes="cc"
         inkscape:connector-curvature="0"
         id="path4802"
         d="m 213.89649,543.58084 321.12627,0"
         style="fill:none;stroke:#9b9c9f;stroke-width:10;stroke-linecap:round;stroke-linejoin:miter;stroke-opacity:1" />
    </g>
    <path
       inkscape:export-ydpi="150"
       inkscape:export-xdpi="150"
       inkscape:export-filename="/home/waldgeist/data/homepage/pics/physik/mechanik/festkoerper-fluessigkeiten-und-gase/geschwindigkeitsprofil-duenne-fluessigkeitsschicht.png"
       style="fill:none;stroke:#0000ff;stroke-width:2;stroke-linecap:round;stroke-linejoin:miter;stroke-miterlimit:4;stroke-opacity:1;stroke-dasharray:1.99999998, 5.99999995;stroke-dashoffset:0"
       d="m 470.21314,505.46753 -53.83616,79.42258"
       id="path4804"
       inkscape:connector-curvature="0"
       sodipodi:nodetypes="cc" />
    <g
       inkscape:export-ydpi="150"
       inkscape:export-xdpi="150"
       inkscape:export-filename="/home/waldgeist/data/homepage/pics/physik/mechanik/festkoerper-fluessigkeiten-und-gase/geschwindigkeitsprofil-duenne-fluessigkeitsschicht.png"
       ns0:text="$\\vec{v}_{\\rm{}}$"
       ns0:preamble="/home/waldgeist/sandbox/homepage/inkscape-preamble.tex"
       transform="matrix(4.5427131,0,0,4.5427131,-658.67097,-57.94574)"
       style="fill:#0000ff;stroke:#0000ff"
       id="g5012">
      <defs
         id="defs5014">
        <g
           id="g5016">
          <symbol
             style="overflow:visible"
             overflow="visible"
             id="textext-9cdbd3a1-0">
            <path
               inkscape:connector-curvature="0"
               style="stroke:none"
               d=""
               id="path5019" />
          </symbol>
          <symbol
             style="overflow:visible"
             overflow="visible"
             id="textext-9cdbd3a1-1">
            <path
               inkscape:connector-curvature="0"
               style="stroke:none"
               d="m 5.359375,-5.9375 c -0.140625,0.140625 -0.46875,0.421875 -0.46875,0.59375 0,0.09375 0.09375,0.203125 0.1875,0.203125 0.09375,0 0.140625,-0.078125 0.203125,-0.140625 C 5.390625,-5.421875 5.625,-5.703125 6.0625,-5.921875 6.125,-5.96875 6.234375,-6.015625 6.234375,-6.125 6.234375,-6.234375 6.15625,-6.28125 6.09375,-6.328125 5.875,-6.484375 5.765625,-6.65625 5.6875,-6.890625 5.65625,-6.984375 5.625,-7.125 5.484375,-7.125 c -0.140625,0 -0.203125,0.140625 -0.203125,0.21875 0,0.046875 0.078125,0.359375 0.234375,0.578125 l -3.359375,0 c -0.15625,0 -0.34375,0 -0.34375,0.203125 0,0.1875 0.1875,0.1875 0.34375,0.1875 z"
               id="path5022" />
          </symbol>
          <symbol
             style="overflow:visible"
             overflow="visible"
             id="textext-9cdbd3a1-2">
            <path
               inkscape:connector-curvature="0"
               style="stroke:none"
               d="m 4.671875,-3.703125 c 0,-0.546875 -0.265625,-0.703125 -0.4375,-0.703125 -0.25,0 -0.5,0.265625 -0.5,0.484375 0,0.125 0.046875,0.1875 0.15625,0.296875 0.21875,0.203125 0.34375,0.453125 0.34375,0.8125 0,0.421875 -0.609375,2.703125 -1.765625,2.703125 -0.515625,0 -0.75,-0.34375 -0.75,-0.875 0,-0.546875 0.28125,-1.28125 0.578125,-2.109375 0.078125,-0.171875 0.125,-0.3125 0.125,-0.5 0,-0.4375 -0.3125,-0.8125 -0.8125,-0.8125 -0.9375,0 -1.3125,1.453125 -1.3125,1.53125 0,0.109375 0.09375,0.109375 0.109375,0.109375 0.109375,0 0.109375,-0.03125 0.15625,-0.1875 0.296875,-1 0.71875,-1.234375 1.015625,-1.234375 0.078125,0 0.25,0 0.25,0.3125 0,0.25 -0.109375,0.53125 -0.171875,0.703125 -0.4375,1.15625 -0.5625,1.609375 -0.5625,2.046875 0,1.078125 0.875,1.234375 1.328125,1.234375 1.671875,0 2.25,-3.296875 2.25,-3.8125 z"
               id="path5025" />
          </symbol>
        </g>
      </defs>
      <g
         style="fill:#0000ff;stroke:#0000ff"
         id="textext-9cdbd3a1-3">
        <g
           style="fill:#0000ff;fill-opacity:1;stroke:#0000ff"
           id="g5028">
          <use
             height="1052.3622"
             width="744.09448"
             style="fill:#0000ff;stroke:#0000ff"
             xlink:href="#textext-9cdbd3a1-1"
             x="223.045"
             y="134.765"
             id="use5030" />
        </g>
        <g
           style="fill:#0000ff;fill-opacity:1;stroke:#0000ff"
           id="g5032">
          <use
             height="1052.3622"
             width="744.09448"
             style="fill:#0000ff;stroke:#0000ff"
             xlink:href="#textext-9cdbd3a1-2"
             x="223.43355"
             y="134.765"
             id="use5034" />
        </g>
      </g>
    </g>
    <path
       inkscape:connector-curvature="0"
       id="path29373"
       d="m 401.98322,541.10403 39.26846,0"
       style="color:#000000;fill:none;stroke:#0000ff;stroke-width:3.00000024;stroke-linecap:round;stroke-linejoin:round;stroke-miterlimit:4;stroke-opacity:1;stroke-dasharray:none;stroke-dashoffset:0;marker:none;marker-end:url(#Arrow2Mend);visibility:visible;display:inline;overflow:visible;enable-background:accumulate"
       inkscape:export-filename="/home/waldgeist/data/homepage/pics/physik/mechanik/festkoerper-fluessigkeiten-und-gase/geschwindigkeitsprofil-duenne-fluessigkeitsschicht.png"
       inkscape:export-xdpi="150"
       inkscape:export-ydpi="150" />
    <path
       style="color:#000000;fill:none;stroke:#0000ff;stroke-width:3.00000024;stroke-linecap:round;stroke-linejoin:round;stroke-miterlimit:4;stroke-opacity:1;stroke-dasharray:none;stroke-dashoffset:0;marker:none;marker-end:url(#Arrow2Mend);visibility:visible;display:inline;overflow:visible;enable-background:accumulate"
       d="m 401.98321,516.98758 56.57614,0"
       id="path30327"
       inkscape:connector-curvature="0"
       inkscape:export-filename="/home/waldgeist/data/homepage/pics/physik/mechanik/festkoerper-fluessigkeiten-und-gase/geschwindigkeitsprofil-duenne-fluessigkeitsschicht.png"
       inkscape:export-xdpi="150"
       inkscape:export-ydpi="150" />
    <path
       inkscape:connector-curvature="0"
       id="path30329"
       d="m 401.98321,567.70607 22.06496,0"
       style="color:#000000;fill:none;stroke:#0000ff;stroke-width:3.00000024;stroke-linecap:round;stroke-linejoin:round;stroke-miterlimit:4;stroke-opacity:1;stroke-dasharray:none;stroke-dashoffset:0;marker:none;marker-end:url(#Arrow2Mend);visibility:visible;display:inline;overflow:visible;enable-background:accumulate"
       inkscape:export-filename="/home/waldgeist/data/homepage/pics/physik/mechanik/festkoerper-fluessigkeiten-und-gase/geschwindigkeitsprofil-duenne-fluessigkeitsschicht.png"
       inkscape:export-xdpi="150"
       inkscape:export-ydpi="150" />
    <g
       id="g30395"
       style="fill:#d40000;stroke:#d40000"
       transform="matrix(4.5427131,0,0,4.5427131,-661.28912,-130.72982)"
       ns0:preamble=""
       ns0:text="$\\vec{F}_{\\rm{}}$"
       inkscape:export-filename="/home/waldgeist/data/homepage/pics/physik/mechanik/festkoerper-fluessigkeiten-und-gase/geschwindigkeitsprofil-duenne-fluessigkeitsschicht.png"
       inkscape:export-xdpi="150"
       inkscape:export-ydpi="150">
      <defs
         id="defs30397">
        <g
           id="g30399">
          <symbol
             id="textext-b03cd375-0"
             overflow="visible"
             style="overflow:visible">
            <path
               id="path30402"
               d=""
               style="stroke:none"
               inkscape:connector-curvature="0" />
          </symbol>
          <symbol
             id="textext-b03cd375-1"
             overflow="visible"
             style="overflow:visible">
            <path
               id="path30405"
               d="m 5.359375,-5.9375 c -0.140625,0.140625 -0.46875,0.421875 -0.46875,0.59375 0,0.09375 0.09375,0.203125 0.1875,0.203125 0.09375,0 0.140625,-0.078125 0.203125,-0.140625 C 5.390625,-5.421875 5.625,-5.703125 6.0625,-5.921875 6.125,-5.96875 6.234375,-6.015625 6.234375,-6.125 6.234375,-6.234375 6.15625,-6.28125 6.09375,-6.328125 5.875,-6.484375 5.765625,-6.65625 5.6875,-6.890625 5.65625,-6.984375 5.625,-7.125 5.484375,-7.125 c -0.140625,0 -0.203125,0.140625 -0.203125,0.21875 0,0.046875 0.078125,0.359375 0.234375,0.578125 l -3.359375,0 c -0.15625,0 -0.34375,0 -0.34375,0.203125 0,0.1875 0.1875,0.1875 0.34375,0.1875 z m 0,0"
               style="stroke:none"
               inkscape:connector-curvature="0" />
          </symbol>
          <symbol
             id="textext-b03cd375-2"
             overflow="visible"
             style="overflow:visible">
            <path
               id="path30408"
               d="m 3.015625,-3.234375 0.96875,0 c 0.75,0 0.828125,0.15625 0.828125,0.4375 0,0.078125 0,0.1875 -0.0625,0.5 C 4.71875,-2.25 4.71875,-2.21875 4.71875,-2.1875 c 0,0.078125 0.0625,0.109375 0.109375,0.109375 0.109375,0 0.109375,-0.03125 0.15625,-0.203125 L 5.53125,-4.453125 C 5.5625,-4.5625 5.5625,-4.578125 5.5625,-4.609375 5.5625,-4.625 5.546875,-4.71875 5.4375,-4.71875 5.34375,-4.71875 5.328125,-4.671875 5.296875,-4.5 5.078125,-3.734375 4.859375,-3.546875 4,-3.546875 l -0.90625,0 0.640625,-2.53125 C 3.828125,-6.4375 3.84375,-6.46875 4.28125,-6.46875 l 1.3125,0 c 1.21875,0 1.453125,0.328125 1.453125,1.09375 0,0.234375 0,0.265625 -0.03125,0.546875 C 7,-4.703125 7,-4.6875 7,-4.65625 c 0,0.046875 0.03125,0.125 0.125,0.125 0.109375,0 0.109375,-0.0625 0.125,-0.25 L 7.453125,-6.515625 C 7.484375,-6.78125 7.4375,-6.78125 7.1875,-6.78125 l -4.890625,0 c -0.1875,0 -0.296875,0 -0.296875,0.203125 0,0.109375 0.09375,0.109375 0.28125,0.109375 0.375,0 0.65625,0 0.65625,0.171875 0,0.046875 0,0.0625 -0.0625,0.25 L 1.5625,-0.78125 c -0.09375,0.390625 -0.109375,0.46875 -0.90625,0.46875 -0.171875,0 -0.28125,0 -0.28125,0.1875 C 0.375,0 0.5,0 0.53125,0 0.8125,0 1.5625,-0.03125 1.84375,-0.03125 2.171875,-0.03125 3,0 3.328125,0 3.421875,0 3.53125,0 3.53125,-0.1875 3.53125,-0.265625 3.484375,-0.296875 3.484375,-0.296875 3.453125,-0.3125 3.421875,-0.3125 3.203125,-0.3125 c -0.21875,0 -0.265625,0 -0.515625,-0.015625 -0.296875,-0.03125 -0.328125,-0.078125 -0.328125,-0.203125 0,-0.015625 0,-0.078125 0.046875,-0.21875 z m 0,0"
               style="stroke:none"
               inkscape:connector-curvature="0" />
          </symbol>
        </g>
      </defs>
      <g
         id="textext-b03cd375-3"
         style="fill:#d40000;stroke:#d40000">
        <g
           id="g30411"
           style="fill:#d40000;fill-opacity:1;stroke:#d40000">
          <use
             id="use30413"
             y="132.24699"
             x="224.901"
             xlink:href="#textext-b03cd375-1"
             style="fill:#d40000;stroke:#d40000"
             width="744.09448"
             height="1052.3622" />
        </g>
        <g
           id="g30415"
           style="fill:#d40000;fill-opacity:1;stroke:#d40000">
          <use
             id="use30417"
             y="134.765"
             x="223.43201"
             xlink:href="#textext-b03cd375-2"
             style="fill:#d40000;stroke:#d40000"
             width="744.09448"
             height="1052.3622" />
        </g>
      </g>
    </g>
    <path
       inkscape:connector-curvature="0"
       id="path30467"
       d="m 315.05244,488.87966 111.51648,0"
       style="color:#000000;fill:none;stroke:#d40000;stroke-width:3;stroke-linecap:round;stroke-linejoin:round;stroke-miterlimit:4;stroke-opacity:1;stroke-dasharray:none;stroke-dashoffset:0;marker:none;marker-end:url(#Arrow2Mend);visibility:visible;display:inline;overflow:visible;enable-background:accumulate"
       inkscape:export-filename="/home/waldgeist/data/homepage/pics/physik/mechanik/festkoerper-fluessigkeiten-und-gase/geschwindigkeitsprofil-duenne-fluessigkeitsschicht.png"
       inkscape:export-xdpi="150"
       inkscape:export-ydpi="150" />
    <rect
       style="color:#000000;fill:#808080;fill-opacity:1;fill-rule:evenodd;stroke:#4d4d4d;stroke-width:1.5;stroke-linecap:butt;stroke-linejoin:miter;stroke-miterlimit:4;stroke-opacity:1;stroke-dasharray:none;stroke-dashoffset:0;marker:none;visibility:visible;display:inline;overflow:visible;enable-background:accumulate"
       id="rect30469"
       width="463.20126"
       height="15.584342"
       x="140.44661"
       y="582.95306"
       inkscape:export-filename="/home/waldgeist/data/homepage/pics/physik/mechanik/festkoerper-fluessigkeiten-und-gase/geschwindigkeitsprofil-duenne-fluessigkeitsschicht.png"
       inkscape:export-xdpi="150"
       inkscape:export-ydpi="150" />
  </g>
</svg>
