<svg xmlns:ns0="http://www.iki.fi/pav/software/textext/" xmlns="http://www.w3.org/2000/svg" xmlns:xlink="http://www.w3.org/1999/xlink" width="744.094" height="1052.362"><title>Geschwindigkeitsprofil (laminare Stroemung</title><path style="marker:none" color="#000" fill="#fff" stroke="#fff" stroke-width="4.097" stroke-linecap="round" stroke-linejoin="bevel" overflow="visible" d="M45.649 364.846h652.797v322.67H45.649z"/><path d="M88.102 409.47h567.89v233.422H88.102z" fill="#afc6e9"/><g fill="none" stroke="#9b9c9f" stroke-width="3" stroke-linecap="round"><path d="M77.849 642.892h588.397M77.849 409.47h588.397"/></g><path d="M417.208 409.47c116.658 76.587 123.33 154.325 0 233.422" fill="none" stroke="#00f" stroke-width="2" stroke-linecap="round" stroke-dasharray="2,6"/><g fill="#00f"><path d="M264.406 623.935H419.11s5.228 3.391 5.22 3.418l-5.22 3.418H264.406z" style="text-indent:0;text-align:start;line-height:normal;text-transform:none;block-progression:tb;marker:none;-inkscape-font-specification:Sans" font-weight="400" color="#000" overflow="visible" font-family="Sans"/><path transform="matrix(0 .02523 .0258 0 383.987 645.462)" d="M-707.107 1620.068l-5.249-9.091-5.249-9.092h20.996l-5.249 9.091z" stroke="#00f" stroke-width="557.121" stroke-linecap="square"/></g><g fill="#00f"><path style="text-indent:0;text-align:start;line-height:normal;text-transform:none;block-progression:tb;marker:none;-inkscape-font-specification:Sans" d="M264.406 421.061H419.11s5.228 3.391 5.22 3.418l-5.22 3.418H264.406z" font-weight="400" color="#000" overflow="visible" font-family="Sans"/><path d="M-707.107 1620.068l-5.249-9.091-5.249-9.092h20.996l-5.249 9.091z" transform="matrix(0 .02523 .0258 0 383.987 442.588)" stroke="#00f" stroke-width="557.121" stroke-linecap="square"/></g><g fill="#00f"><path d="M264.765 446.42h184.573s7.317 3.391 7.305 3.418l-7.305 3.418H264.765z" style="text-indent:0;text-align:start;line-height:normal;text-transform:none;block-progression:tb;marker:none;-inkscape-font-specification:Sans" font-weight="400" color="#000" overflow="visible" font-family="Sans"/><path transform="matrix(0 .02523 .0258 0 412.384 467.948)" d="M-707.107 1620.068l-5.249-9.091-5.249-9.092h20.996l-5.249 9.091z" stroke="#00f" stroke-width="557.121" stroke-linecap="square"/></g><g fill="#00f"><path style="text-indent:0;text-align:start;line-height:normal;text-transform:none;block-progression:tb;marker:none;-inkscape-font-specification:Sans" d="M264.374 598.576h185.67s7.395 3.39 7.382 3.418l-7.382 3.418h-185.67z" font-weight="400" color="#000" overflow="visible" font-family="Sans"/><path d="M-707.107 1620.068l-5.249-9.091-5.249-9.092h20.996l-5.249 9.091z" transform="matrix(0 .02523 .0258 0 412.384 620.103)" stroke="#00f" stroke-width="557.121" stroke-linecap="square"/></g><g fill="#00f"><path d="M264.483 573.217H472.85s8.983 3.39 8.968 3.418l-8.968 3.418H264.483z" style="text-indent:0;text-align:start;line-height:normal;text-transform:none;block-progression:tb;marker:none;-inkscape-font-specification:Sans" font-weight="400" color="#000" overflow="visible" font-family="Sans"/><path transform="matrix(0 .02523 .0258 0 434.817 594.744)" d="M-707.107 1620.068l-5.249-9.091-5.249-9.092h20.996l-5.249 9.091z" stroke="#00f" stroke-width="557.121" stroke-linecap="square"/></g><g fill="#00f"><path style="text-indent:0;text-align:start;line-height:normal;text-transform:none;block-progression:tb;marker:none;-inkscape-font-specification:Sans" d="M264.734 547.857h219.715s9.777 3.391 9.76 3.418l-9.76 3.418H264.734z" font-weight="400" color="#000" overflow="visible" font-family="Sans"/><path d="M-707.107 1620.068l-5.249-9.091-5.249-9.092h20.996l-5.249 9.091z" transform="matrix(0 .02523 .0258 0 446.817 569.385)" stroke="#00f" stroke-width="557.121" stroke-linecap="square"/></g><g fill="#00f"><path d="M264.714 522.498h222.278s9.956 3.391 9.94 3.418l-9.94 3.418H264.714z" style="text-indent:0;text-align:start;line-height:normal;text-transform:none;block-progression:tb;marker:none;-inkscape-font-specification:Sans" font-weight="400" color="#000" overflow="visible" font-family="Sans"/><path transform="matrix(0 .02523 .0258 0 451.106 544.025)" d="M-707.107 1620.068l-5.249-9.091-5.249-9.092h20.996l-5.249 9.091z" stroke="#00f" stroke-width="557.121" stroke-linecap="square"/></g><g fill="#00f"><path d="M264.734 497.139h219.715s9.777 3.39 9.76 3.418l-9.76 3.418H264.734z" style="text-indent:0;text-align:start;line-height:normal;text-transform:none;block-progression:tb;marker:none;-inkscape-font-specification:Sans" font-weight="400" color="#000" overflow="visible" font-family="Sans"/><path transform="matrix(0 .02523 .0258 0 446.817 518.666)" d="M-707.107 1620.068l-5.249-9.091-5.249-9.092h20.996l-5.249 9.091z" stroke="#00f" stroke-width="557.121" stroke-linecap="square"/></g><g fill="#00f"><path style="text-indent:0;text-align:start;line-height:normal;text-transform:none;block-progression:tb;marker:none;-inkscape-font-specification:Sans" d="M264.483 471.78H472.85s8.983 3.39 8.968 3.418l-8.968 3.418H264.483z" font-weight="400" color="#000" overflow="visible" font-family="Sans"/><path d="M-707.107 1620.068l-5.249-9.091-5.249-9.092h20.996l-5.249 9.091z" transform="matrix(0 .02523 .0258 0 434.817 493.307)" stroke="#00f" stroke-width="557.121" stroke-linecap="square"/></g><g transform="matrix(4.54271 0 0 4.54271 -803.232 -70.083)" ns0:preamble="/home/waldgeist/sandbox/homepage/inkscape-preamble.tex" ns0:text="$\\vec{v}_{\\rm{}}$" fill="#00f" stroke="#00f"><defs><symbol id="a" overflow="visible"><path d="M5.36-5.938c-.141.141-.47.422-.47.594 0 .094.094.203.188.203s.14-.078.203-.14c.11-.14.344-.422.782-.64.062-.048.171-.095.171-.204 0-.11-.078-.156-.14-.203a1.034 1.034 0 0 1-.407-.563c-.03-.093-.062-.234-.203-.234-.14 0-.203.14-.203.219 0 .047.078.36.235.578h-3.36c-.156 0-.344 0-.344.203 0 .188.188.188.344.188z" stroke="none"/></symbol><symbol id="b" overflow="visible"><path d="M4.672-3.703c0-.547-.266-.703-.438-.703-.25 0-.5.265-.5.484 0 .125.047.188.157.297.218.203.343.453.343.813 0 .421-.609 2.703-1.765 2.703-.516 0-.75-.344-.75-.875 0-.547.281-1.282.578-2.11.078-.172.125-.312.125-.5 0-.437-.313-.812-.813-.812-.937 0-1.312 1.453-1.312 1.531 0 .11.094.11.11.11.109 0 .109-.032.156-.188.296-1 .718-1.235 1.015-1.235.078 0 .25 0 .25.313 0 .25-.11.531-.172.703-.437 1.156-.562 1.61-.562 2.047 0 1.078.875 1.234 1.328 1.234 1.672 0 2.25-3.296 2.25-3.812z" stroke="none"/></symbol></defs><use y="134.765" x="223.045" xlink:href="#a" width="744.094" height="1052.362"/><use y="134.765" x="223.434" xlink:href="#b" width="744.094" height="1052.362"/></g></svg>