<svg xmlns="http://www.w3.org/2000/svg" width="210mm" height="297mm"><title>Hydraulische Bremse</title><rect style="marker:none" width="717.208" height="474.772" x="13.443" y="288.795" rx="1.342" ry="1.598" color="#000" fill="#fff" overflow="visible"/><path style="marker:none" d="M594.782 502.531c-62.837 0-113.763 50.972-113.763 113.809 0 62.836 50.926 113.763 113.763 113.763S708.59 679.176 708.59 616.34c0-62.837-50.971-113.809-113.808-113.809zm0 34.165c43.986 0 79.643 35.658 79.643 79.644 0 43.985-35.657 79.643-79.643 79.643-43.986 0-79.643-35.658-79.643-79.643 0-43.986 35.657-79.644 79.643-79.644z" color="#000" fill="#999" stroke="#999" stroke-width="1.00060946" stroke-linecap="round" stroke-linejoin="bevel" overflow="visible"/><path style="marker:none" d="M568.704 542.838c-1.549.16-4.965 2.202-7.421 3.213-26.595 12.74-43.578 40.128-43.578 70.276 0 42.843 33.825 77.561 75.525 77.561v-20.001c-30.945 0-56.067-25.767-56.067-57.56 0-22.372 12.62-42.72 32.356-52.176v-20.77c0-.48-.299-.597-.815-.543zM620.563 542.838c-.305.044-.453.183-.453.543v20.77c19.735 9.455 32.355 29.804 32.355 52.176 0 31.793-25.122 57.56-56.067 57.56v20.001c41.7 0 75.525-34.718 75.525-77.561 0-30.148-16.982-57.535-43.577-70.276-2.661-1.095-6.462-3.406-7.783-3.213z" color="#000" fill="#6f7c91" stroke="#333" stroke-width="1.00060946" overflow="visible"/><path style="marker:none" d="M600.7 684.687a6.308 6.308 0 1 1-12.616 0 6.308 6.308 0 0 1 12.616 0z" color="#000" fill="#fc0" stroke="#d4aa00" stroke-width="1.00060946" overflow="visible"/><path style="marker:none" d="M597.706 541.169h15.274a4.354 4.354 0 0 1 4.364 4.363v15.058a4.354 4.354 0 0 1-4.364 4.363H576.63a4.354 4.354 0 0 1-4.364-4.363v-15.058a4.354 4.354 0 0 1 4.364-4.363H591.9" color="#000" fill="none" stroke="#000" stroke-width="1.00060946" stroke-linecap="round" overflow="visible"/><g fill="#373e48"><g transform="matrix(1.44806 0 0 1.44806 358.545 209.513)"><rect style="marker:none" width="3.548" height="14.534" x="154.61" y="229.981" ry="1.802" rx="1.774" color="#000" stroke="#6f7c91" stroke-width=".691" stroke-linecap="round" stroke-linejoin="bevel" overflow="visible"/><path d="M155.898 237.247l-10.21-.152" stroke="#373e48" stroke-width="2.072"/></g><g transform="matrix(-1.44806 0 0 1.44806 831.064 209.513)"><rect rx="1.774" ry="1.802" y="229.981" x="154.61" height="14.534" width="3.548" style="marker:none" color="#000" stroke="#6f7c91" stroke-width=".691" stroke-linecap="round" stroke-linejoin="bevel" overflow="visible"/><path d="M155.898 237.247l-10.21-.063" stroke="#373e48" stroke-width="2.072"/></g></g><g stroke-width="2.742" stroke-linecap="round"><path d="M-124.853 164.808l-38.865 4.978M-124.853 15.475l-38.865 4.978M-124.853 25.43l-38.865 4.978M-124.853 154.852l-38.865 4.978M-124.853 144.897l-38.865 4.978M-124.853 124.986l-38.865 4.978M-124.853 115.03l-38.865 4.978M-124.853 35.386l-38.865 4.978M-124.853 35.386l-38.865 4.978" fill="none" stroke="#000" transform="matrix(0 .2865 -.77364 0 663.291 640.506)"/><path d="M-124.853 35.386l-38.865-4.978" fill="gray" stroke="gray" transform="matrix(0 .2865 -.77364 0 663.291 640.506)"/><path d="M-124.853 45.342l-38.865 4.977" fill="none" stroke="#000" transform="matrix(0 .2865 -.77364 0 663.291 640.506)"/><path d="M-124.853 45.342l-38.865-4.978" fill="gray" stroke="gray" transform="matrix(0 .2865 -.77364 0 663.291 640.506)"/><path d="M-124.853 55.297l-38.865 4.978M-124.853 55.297l-38.865 4.978" fill="none" stroke="#000" transform="matrix(0 .2865 -.77364 0 663.291 640.506)"/><path d="M-124.853 55.297l-38.865-4.978" fill="gray" stroke="gray" transform="matrix(0 .2865 -.77364 0 663.291 640.506)"/><path d="M-124.853 65.253l-38.865 4.977" fill="none" stroke="#000" transform="matrix(0 .2865 -.77364 0 663.291 640.506)"/><path d="M-124.853 65.253l-38.865-4.978" fill="gray" stroke="gray" transform="matrix(0 .2865 -.77364 0 663.291 640.506)"/><path d="M-124.853 75.208l-38.865 4.978M-124.853 75.208l-38.865 4.978" fill="none" stroke="#000" transform="matrix(0 .2865 -.77364 0 663.291 640.506)"/><path d="M-124.853 75.208l-38.865-4.978" fill="gray" stroke="gray" transform="matrix(0 .2865 -.77364 0 663.291 640.506)"/><path d="M-124.853 85.164l-38.865 4.977" fill="none" stroke="#000" transform="matrix(0 .2865 -.77364 0 663.291 640.506)"/><path d="M-124.853 85.164l-38.865-4.978" fill="gray" stroke="gray" transform="matrix(0 .2865 -.77364 0 663.291 640.506)"/><path d="M-124.853 95.12l-38.865 4.977M-124.853 95.12l-38.865 4.977" fill="none" stroke="#000" transform="matrix(0 .2865 -.77364 0 663.291 640.506)"/><path d="M-124.853 95.12l-38.865-4.979" fill="gray" stroke="gray" transform="matrix(0 .2865 -.77364 0 663.291 640.506)"/><path d="M-124.853 105.075l-38.865 4.978" fill="none" stroke="#000" transform="matrix(0 .2865 -.77364 0 663.291 640.506)"/><path d="M-124.853 105.075l-38.865-4.978M-124.853 115.03l-38.865-4.977" fill="gray" stroke="gray" transform="matrix(0 .2865 -.77364 0 663.291 640.506)"/><path d="M-124.853 35.386l-38.865 4.978M-124.853 35.386l-38.865 4.978" fill="none" stroke="#000" transform="matrix(0 .2865 -.77364 0 663.291 640.506)"/><path d="M-124.853 35.386l-38.865-4.978" fill="gray" stroke="gray" stroke-linejoin="round" transform="matrix(0 .2865 -.77364 0 663.291 640.506)"/><path d="M-124.853 45.342l-38.865 4.977" fill="none" stroke="#000" transform="matrix(0 .2865 -.77364 0 663.291 640.506)"/><path d="M-124.853 45.342l-38.865-4.978" fill="gray" stroke="gray" transform="matrix(0 .2865 -.77364 0 663.291 640.506)"/><path d="M-124.853 55.297l-38.865 4.978M-124.853 55.297l-38.865 4.978" fill="none" stroke="#000" transform="matrix(0 .2865 -.77364 0 663.291 640.506)"/><path d="M-124.853 55.297l-38.865-4.978" fill="gray" stroke="gray" transform="matrix(0 .2865 -.77364 0 663.291 640.506)"/><path d="M-124.853 65.253l-38.865 4.977" fill="none" stroke="#000" transform="matrix(0 .2865 -.77364 0 663.291 640.506)"/><path d="M-124.853 65.253l-38.865-4.978" fill="gray" stroke="gray" transform="matrix(0 .2865 -.77364 0 663.291 640.506)"/><path d="M-124.853 75.208l-38.865 4.978M-124.853 75.208l-38.865 4.978" fill="none" stroke="#000" transform="matrix(0 .2865 -.77364 0 663.291 640.506)"/><path d="M-124.853 75.208l-38.865-4.978" fill="gray" stroke="gray" transform="matrix(0 .2865 -.77364 0 663.291 640.506)"/><path d="M-124.853 85.164l-38.865 4.977" fill="none" stroke="#000" transform="matrix(0 .2865 -.77364 0 663.291 640.506)"/><path d="M-124.853 85.164l-38.865-4.978" fill="gray" stroke="gray" transform="matrix(0 .2865 -.77364 0 663.291 640.506)"/><path d="M-124.853 95.12l-38.865 4.977M-124.853 95.12l-38.865 4.977" fill="none" stroke="#000" transform="matrix(0 .2865 -.77364 0 663.291 640.506)"/><path d="M-124.853 95.12l-38.865-4.979" fill="gray" stroke="gray" transform="matrix(0 .2865 -.77364 0 663.291 640.506)"/><path d="M-124.853 105.075l-38.865 4.978" fill="none" stroke="#000" transform="matrix(0 .2865 -.77364 0 663.291 640.506)"/><path d="M-124.853 105.075l-38.865-4.978M-124.853 115.03l-38.865-4.977M-124.853 124.986l-38.865-4.978" fill="gray" stroke="gray" transform="matrix(0 .2865 -.77364 0 663.291 640.506)"/><path d="M-124.853 134.941l-38.865 4.978" fill="none" stroke="#000" transform="matrix(0 .2865 -.77364 0 663.291 640.506)"/><path d="M-124.853 134.941l-38.865-4.977M-124.853 144.897l-38.865-4.978M-124.853 154.852l-38.865-4.977" fill="gray" stroke="gray" transform="matrix(0 .2865 -.77364 0 663.291 640.506)"/><path d="M-124.853 164.808l-38.865-4.978" fill="gray" stroke="#4d4d4d" transform="matrix(0 .2865 -.77364 0 663.291 640.506)"/><path d="M-124.853 25.43l-38.865-4.977" fill="gray" stroke="gray" stroke-linejoin="round" transform="matrix(0 .2865 -.77364 0 663.291 640.506)"/><path d="M-124.853 15.475l-38.865-4.978" fill="gray" stroke="#4d4d4d" stroke-linejoin="round" transform="matrix(0 .2865 -.77364 0 663.291 640.506)"/></g><path d="M534.302 595.64a3.64 3.64 0 1 1-7.281 0 3.64 3.64 0 0 1 7.281 0zM661.266 595.64a3.64 3.64 0 1 1-7.282 0 3.64 3.64 0 0 1 7.282 0z" style="marker:none" color="#000" stroke="#000" stroke-width=".57748252" overflow="visible"/><path style="marker:none" d="M149.267 502.531c-62.836 0-113.763 50.972-113.763 113.809 0 62.836 50.927 113.763 113.763 113.763 62.837 0 113.809-50.927 113.809-113.763 0-62.837-50.972-113.809-113.809-113.809zm0 34.165c43.986 0 79.643 35.658 79.643 79.644 0 43.985-35.657 79.643-79.643 79.643-43.985 0-79.643-35.658-79.643-79.643 0-43.986 35.658-79.644 79.643-79.644z" color="#000" fill="#999" stroke="#999" stroke-linecap="round" stroke-linejoin="bevel" overflow="visible"/><path style="marker:none" d="M123.19 542.838c-1.55.16-4.965 2.202-7.422 3.213-26.595 12.74-43.577 40.128-43.577 70.276 0 42.843 33.824 77.561 75.525 77.561v-20.001c-30.945 0-56.067-25.767-56.067-57.56 0-22.372 12.62-42.72 32.355-52.176v-20.77c0-.48-.298-.597-.815-.543zM175.048 542.838c-.305.044-.453.183-.453.543v20.77c19.736 9.455 32.355 29.804 32.355 52.176 0 31.793-25.121 57.56-56.067 57.56v20.001c41.701 0 75.526-34.718 75.526-77.561 0-30.148-16.983-57.535-43.578-70.276-2.661-1.095-6.462-3.406-7.783-3.213z" color="#000" fill="#6f7c91" stroke="#333" overflow="visible"/><path style="marker:none" d="M155.185 684.687a6.308 6.308 0 1 1-12.616 0 6.308 6.308 0 1 1 12.616 0z" color="#000" fill="#fc0" stroke="#d4aa00" stroke-width="1.00060946" overflow="visible"/><path d="M146.394 541.169v-70.502h451.305v70.502" fill="none" stroke="#000"/><path d="M152.186 541.169v-64.71h439.721v64.71" fill="none" stroke="#000"/><path style="marker:none" d="M152.191 541.169h15.275a4.354 4.354 0 0 1 4.363 4.363v15.058a4.354 4.354 0 0 1-4.363 4.363h-36.352a4.354 4.354 0 0 1-4.363-4.363v-15.058a4.354 4.354 0 0 1 4.363-4.363h15.272" color="#000" fill="none" stroke="#000" stroke-linecap="round" overflow="visible"/><g fill="#373e48"><g transform="matrix(1.44806 0 0 1.44806 -86.97 209.513)"><rect style="marker:none" width="3.548" height="14.534" x="154.61" y="229.981" ry="1.802" rx="1.774" color="#000" stroke="#6f7c91" stroke-width=".691" stroke-linecap="round" stroke-linejoin="bevel" overflow="visible"/><path d="M155.898 237.247l-10.21-.152" stroke="#373e48" stroke-width="2.072"/></g><g transform="matrix(-1.44806 0 0 1.44806 385.55 209.513)"><rect rx="1.774" ry="1.802" y="229.981" x="154.61" height="14.534" width="3.548" style="marker:none" color="#000" stroke="#6f7c91" stroke-width=".691" stroke-linecap="round" stroke-linejoin="bevel" overflow="visible"/><path d="M155.898 237.247l-10.21-.063" stroke="#373e48" stroke-width="2.072"/></g></g><g stroke-width="2.742" stroke-linecap="round"><path d="M-124.853 164.808l-38.865 4.978M-124.853 15.475l-38.865 4.978M-124.853 25.43l-38.865 4.978M-124.853 154.852l-38.865 4.978M-124.853 144.897l-38.865 4.978M-124.853 124.986l-38.865 4.978M-124.853 115.03l-38.865 4.978M-124.853 35.386l-38.865 4.978M-124.853 35.386l-38.865 4.978" fill="none" stroke="#000" transform="matrix(0 .2865 -.77364 0 217.777 640.506)"/><path d="M-124.853 35.386l-38.865-4.978" fill="gray" stroke="gray" transform="matrix(0 .2865 -.77364 0 217.777 640.506)"/><path d="M-124.853 45.342l-38.865 4.977" fill="none" stroke="#000" transform="matrix(0 .2865 -.77364 0 217.777 640.506)"/><path d="M-124.853 45.342l-38.865-4.978" fill="gray" stroke="gray" transform="matrix(0 .2865 -.77364 0 217.777 640.506)"/><path d="M-124.853 55.297l-38.865 4.978M-124.853 55.297l-38.865 4.978" fill="none" stroke="#000" transform="matrix(0 .2865 -.77364 0 217.777 640.506)"/><path d="M-124.853 55.297l-38.865-4.978" fill="gray" stroke="gray" transform="matrix(0 .2865 -.77364 0 217.777 640.506)"/><path d="M-124.853 65.253l-38.865 4.977" fill="none" stroke="#000" transform="matrix(0 .2865 -.77364 0 217.777 640.506)"/><path d="M-124.853 65.253l-38.865-4.978" fill="gray" stroke="gray" transform="matrix(0 .2865 -.77364 0 217.777 640.506)"/><path d="M-124.853 75.208l-38.865 4.978M-124.853 75.208l-38.865 4.978" fill="none" stroke="#000" transform="matrix(0 .2865 -.77364 0 217.777 640.506)"/><path d="M-124.853 75.208l-38.865-4.978" fill="gray" stroke="gray" transform="matrix(0 .2865 -.77364 0 217.777 640.506)"/><path d="M-124.853 85.164l-38.865 4.977" fill="none" stroke="#000" transform="matrix(0 .2865 -.77364 0 217.777 640.506)"/><path d="M-124.853 85.164l-38.865-4.978" fill="gray" stroke="gray" transform="matrix(0 .2865 -.77364 0 217.777 640.506)"/><path d="M-124.853 95.12l-38.865 4.977M-124.853 95.12l-38.865 4.977" fill="none" stroke="#000" transform="matrix(0 .2865 -.77364 0 217.777 640.506)"/><path d="M-124.853 95.12l-38.865-4.979" fill="gray" stroke="gray" transform="matrix(0 .2865 -.77364 0 217.777 640.506)"/><path d="M-124.853 105.075l-38.865 4.978" fill="none" stroke="#000" transform="matrix(0 .2865 -.77364 0 217.777 640.506)"/><path d="M-124.853 105.075l-38.865-4.978M-124.853 115.03l-38.865-4.977" fill="gray" stroke="gray" transform="matrix(0 .2865 -.77364 0 217.777 640.506)"/><path d="M-124.853 35.386l-38.865 4.978M-124.853 35.386l-38.865 4.978" fill="none" stroke="#000" transform="matrix(0 .2865 -.77364 0 217.777 640.506)"/><path d="M-124.853 35.386l-38.865-4.978" fill="gray" stroke="gray" stroke-linejoin="round" transform="matrix(0 .2865 -.77364 0 217.777 640.506)"/><path d="M-124.853 45.342l-38.865 4.977" fill="none" stroke="#000" transform="matrix(0 .2865 -.77364 0 217.777 640.506)"/><path d="M-124.853 45.342l-38.865-4.978" fill="gray" stroke="gray" transform="matrix(0 .2865 -.77364 0 217.777 640.506)"/><path d="M-124.853 55.297l-38.865 4.978M-124.853 55.297l-38.865 4.978" fill="none" stroke="#000" transform="matrix(0 .2865 -.77364 0 217.777 640.506)"/><path d="M-124.853 55.297l-38.865-4.978" fill="gray" stroke="gray" transform="matrix(0 .2865 -.77364 0 217.777 640.506)"/><path d="M-124.853 65.253l-38.865 4.977" fill="none" stroke="#000" transform="matrix(0 .2865 -.77364 0 217.777 640.506)"/><path d="M-124.853 65.253l-38.865-4.978" fill="gray" stroke="gray" transform="matrix(0 .2865 -.77364 0 217.777 640.506)"/><path d="M-124.853 75.208l-38.865 4.978M-124.853 75.208l-38.865 4.978" fill="none" stroke="#000" transform="matrix(0 .2865 -.77364 0 217.777 640.506)"/><path d="M-124.853 75.208l-38.865-4.978" fill="gray" stroke="gray" transform="matrix(0 .2865 -.77364 0 217.777 640.506)"/><path d="M-124.853 85.164l-38.865 4.977" fill="none" stroke="#000" transform="matrix(0 .2865 -.77364 0 217.777 640.506)"/><path d="M-124.853 85.164l-38.865-4.978" fill="gray" stroke="gray" transform="matrix(0 .2865 -.77364 0 217.777 640.506)"/><path d="M-124.853 95.12l-38.865 4.977M-124.853 95.12l-38.865 4.977" fill="none" stroke="#000" transform="matrix(0 .2865 -.77364 0 217.777 640.506)"/><path d="M-124.853 95.12l-38.865-4.979" fill="gray" stroke="gray" transform="matrix(0 .2865 -.77364 0 217.777 640.506)"/><path d="M-124.853 105.075l-38.865 4.978" fill="none" stroke="#000" transform="matrix(0 .2865 -.77364 0 217.777 640.506)"/><path d="M-124.853 105.075l-38.865-4.978M-124.853 115.03l-38.865-4.977M-124.853 124.986l-38.865-4.978" fill="gray" stroke="gray" transform="matrix(0 .2865 -.77364 0 217.777 640.506)"/><path d="M-124.853 134.941l-38.865 4.978" fill="none" stroke="#000" transform="matrix(0 .2865 -.77364 0 217.777 640.506)"/><path d="M-124.853 134.941l-38.865-4.977M-124.853 144.897l-38.865-4.978M-124.853 154.852l-38.865-4.977" fill="gray" stroke="gray" transform="matrix(0 .2865 -.77364 0 217.777 640.506)"/><path d="M-124.853 164.808l-38.865-4.978" fill="gray" stroke="#4d4d4d" transform="matrix(0 .2865 -.77364 0 217.777 640.506)"/><path d="M-124.853 25.43l-38.865-4.977" fill="gray" stroke="gray" stroke-linejoin="round" transform="matrix(0 .2865 -.77364 0 217.777 640.506)"/><path d="M-124.853 15.475l-38.865-4.978" fill="gray" stroke="#4d4d4d" stroke-linejoin="round" transform="matrix(0 .2865 -.77364 0 217.777 640.506)"/></g><path d="M88.787 595.64a3.64 3.64 0 1 1-7.28 0 3.64 3.64 0 1 1 7.28 0zM215.751 595.64a3.64 3.64 0 1 1-7.281 0 3.64 3.64 0 1 1 7.281 0z" style="marker:none" color="#000" stroke="#000" stroke-width=".57748252" overflow="visible"/><path d="M202.201 470.667v-70.501h31.369" fill="none" stroke="#000"/><path d="M207.993 470.667v-64.709h25.647" fill="none" stroke="#000"/><path style="marker:none" d="M233.512 400.294v-4.06c0-1.15 1.056-2.076 2.367-2.076h25.783c1.311 0 2.367.926 2.367 2.076v13.656c0 1.15-1.056 2.076-2.367 2.076h-25.783c-1.311 0-2.367-.926-2.367-2.076v-4.066" color="#000" fill="none" stroke="#000" stroke-width=".824" stroke-linecap="round" stroke-linejoin="bevel" overflow="visible"/><g transform="matrix(-1.44806 0 0 1.44806 485.613 59.514)" fill="#373e48"><rect rx="1.267" ry="1.298" y="232.012" x="155.117" height="10.471" width="2.534" style="marker:none" color="#000" stroke="#6f7c91" stroke-width=".691" stroke-linecap="round" stroke-linejoin="bevel" overflow="visible"/><path d="M155.898 237.216h-24.21" stroke="#373e48" stroke-width="2.072"/></g><path d="M314.026 434.592a11.11 11.11 0 1 1-22.222 0 11.11 11.11 0 1 1 22.222 0z" style="marker:none" color="#000" fill="#fc0" stroke="#d4aa00" stroke-width=".9998156" overflow="visible"/><path d="M277.569 333.73l16.63 66.174 8.716 34.688" fill="none" stroke="#000" stroke-width="2" stroke-linecap="round"/><g fill="none" stroke="#000" stroke-width=".602" stroke-linecap="round"><path d="M295.884 322.76l6.234 20.517M277.569 333.73l21.432-.712" stroke-width="1.99895906"/></g><path style="marker:none" d="M299.29 402.62a4.44 4.44 0 1 1-8.881 0 4.44 4.44 0 1 1 8.88 0z" color="#000" fill="#fc0" stroke="#d4aa00" stroke-width=".9999038699999999" overflow="visible"/><path d="M147.08 472.038v66.235h4.426l-.004-60.794-4.423-5.441M592.592 472.038v66.235h4.426l-.004-60.794-4.422-5.441M202.793 407.329v66.234h4.427l-.004-60.793-4.423-5.441" fill="#fff"/></svg>