<svg xmlns:ns0="http://www.iki.fi/pav/software/textext/" xmlns="http://www.w3.org/2000/svg" xmlns:xlink="http://www.w3.org/1999/xlink" width="1052.362" height="744.094"><title>Hydraulische Anlage</title><defs><marker orient="auto" id="t" overflow="visible"><path d="M8.719 4.034L-2.207.016 8.719-4.002c-1.746 2.372-1.736 5.618 0 8.036z" transform="scale(.6)" fill-rule="evenodd" stroke-width=".625" stroke-linejoin="round"/></marker><marker id="s" orient="auto" overflow="visible"><path transform="scale(-.6)" d="M8.719 4.034L-2.207.016 8.719-4.002c-1.746 2.372-1.736 5.618 0 8.036z" fill-rule="evenodd" stroke-width=".625" stroke-linejoin="round"/></marker><linearGradient id="d"><stop offset="0" stop-opacity="0"/><stop offset="1" stop-color="#fff"/></linearGradient><linearGradient id="e"><stop offset="0" stop-color="#fff"/><stop offset="1" stop-color="#fff" stop-opacity="0"/></linearGradient><linearGradient id="f"><stop offset="0" stop-color="#1a1a1a" stop-opacity=".828"/><stop offset="1" stop-color="#fff"/></linearGradient><linearGradient id="a"><stop offset="0" stop-opacity="0"/><stop offset="1" stop-color="#fff"/></linearGradient><linearGradient id="b"><stop offset="0" stop-color="#ebebeb"/><stop offset="1" stop-color="#fff" stop-opacity="0"/></linearGradient><linearGradient id="c"><stop offset="0" stop-color="#0e0e0e" stop-opacity=".746"/><stop offset="1" stop-color="#fff"/></linearGradient><pattern patternUnits="userSpaceOnUse" width="30.066" height="5.181" id="g"><path d="M7.597.061C5.079-.187 2.656.302-.01 1.788v1.273c2.783-1.63 5.183-2.009 7.482-1.781 2.298.228 4.497 1.081 6.781 1.938 4.567 1.713 9.551 3.458 15.813-.157l-.004-1.273c-6.44 3.709-10.816 1.982-15.371.273-2.278-.854-4.576-1.75-7.094-2z"/></pattern><pattern patternTransform="translate(.25)" id="h" xlink:href="#g"/></defs><g transform="translate(0 -308.268)"><path d="M367.424 675.598h83.992l-.001 69.94H367.5z" fill="#f2f2f2"/><path style="marker:none" color="#000" fill="#fff" stroke="#fff" stroke-width="4.097" stroke-linecap="round" stroke-linejoin="bevel" overflow="visible" d="M49.868 365.81h952.626v629.011H49.868z"/><path d="M632.08 675.598h171.281l-.002 108.188H632.239z" fill="#f2f2f2"/><rect ry="3.697" transform="scale(-1)" y="-904.571" x="-277.428" height="199.767" width="87.162" fill="#afc6e9" stroke="#87aade"/><rect ry="1.578" transform="rotate(-90)" y="367.424" x="-904.567" height="85.242" width="181.608" fill="#afc6e9"/><path d="M444.649 871.517h211.073c.84 0 1.516.273 1.516.612v31.83c0 .34-.676.612-1.516.612 1.516-.612-211.073 0-211.073 0-.138.334-1.516-.273-1.516-.612v-31.83c0-.339.676-.612 1.516-.612z" fill="#afc6e9"/><path d="M452.679 870.67h179.56" fill="none" stroke="#9b9c9f" stroke-width="3" stroke-linecap="round"/><path d="M386.286 721.7V516.518h47.683V721.7z" fill="#999"/><g fill="none" stroke="gray" stroke-width="6" stroke-linecap="round"><path d="M386.217 516.518V721.7M433.9 516.518V721.7" stroke-width="3"/></g><path d="M668.693 782.523V577.34h98.024v205.182z" fill="#999"/><path d="M633.614 753.508v30.53h168.182v-30.53z" style="text-indent:0;text-align:start;line-height:normal;text-transform:none;block-progression:tb;marker:none;-inkscape-font-specification:Sans" font-weight="400" color="#000" fill="gray" overflow="visible" font-family="Sans"/><path d="M668.787 577.34v205.183M766.811 577.34v205.183" fill="none" stroke="gray" stroke-width="3" stroke-linecap="round"/><rect width="123.121" height="171.123" x="-904.567" y="632.238" transform="rotate(-90)" ry="3.167" fill="#afc6e9"/><path d="M632.238 872.25v-16.808c17.542 0 17.53 16.809 0 16.809z" style="marker:none" color="#000" fill="#e6e6e6" stroke="#9b9c9f" stroke-width="2" overflow="visible"/><path d="M337.705 646.973v28.625h.032v258.657h144.812l119.844.25 230.656-.25v-287.25H769.904v28.593h33.457v228.97l-171.159.001c.036.002-179.265.002-179.265.002l-85.513-.004V675.598H383.1v-28.625z" fill="#e6e6e6" stroke="#9b9c9f" stroke-width="3"/><rect style="marker:none" width="105.736" height="32.91" x="268.065" y="871.661" ry="3.24" color="#000" fill="#afc6e9" stroke="#afc6e9" stroke-width="2" stroke-linecap="round" stroke-linejoin="round" overflow="visible"/><path d="M385.228 934.494V904.57H191.517v-47.676h-29.875v77.395zM367.424 870.969v-29.923h-61.37v-15.675h-28.626v45.394zM602.362 662.973v12.625h.03v166.375H482.55V647.005h-45.571v28.625h16.133c-.065 18.475-.344 148.171-.28 196.031h179.25V675.598h33.545v-28.625H602.36z" fill="#e6e6e6" stroke="#9b9c9f" stroke-width="3"/><g ns0:text="$\\vec{F}_{\\rm{2}}$" ns0:preamble="/home/waldgeist/sandbox/homepage/inkscape-preamble.tex" transform="matrix(4.54271 0 0 4.54271 -285.58 -160.012)" fill="#d40000" stroke="#d40000"><defs><symbol overflow="visible" id="i"><path d="M5.36-5.938c-.141.141-.47.422-.47.594 0 .094.094.203.188.203s.14-.078.203-.14c.11-.14.344-.422.782-.64.062-.048.171-.095.171-.204 0-.11-.078-.156-.14-.203a1.034 1.034 0 0 1-.407-.563c-.03-.093-.062-.234-.203-.234-.14 0-.203.14-.203.219 0 .047.078.36.235.578h-3.36c-.156 0-.344 0-.344.203 0 .188.188.188.344.188z" stroke="none"/></symbol><symbol overflow="visible" id="j"><path d="M3.016-3.234h.968c.75 0 .829.156.829.437 0 .078 0 .188-.063.5-.031.047-.031.078-.031.11 0 .078.062.109.11.109.109 0 .109-.031.155-.203l.547-2.172c.032-.11.032-.125.032-.156a.117.117 0 0 0-.125-.11c-.094 0-.11.047-.141.219-.219.766-.438.953-1.297.953h-.906l.64-2.531c.094-.36.11-.39.547-.39h1.313c1.218 0 1.453.327 1.453 1.093 0 .234 0 .266-.031.547C7-4.703 7-4.688 7-4.656c0 .047.031.125.125.125.11 0 .11-.063.125-.25l.203-1.735c.031-.265-.016-.265-.266-.265h-4.89c-.188 0-.297 0-.297.203 0 .11.094.11.281.11.375 0 .656 0 .656.171 0 .047 0 .063-.062.25L1.562-.78c-.093.39-.109.469-.906.469-.172 0-.281 0-.281.187C.375 0 .5 0 .531 0c.281 0 1.031-.031 1.313-.031C2.172-.031 3 0 3.328 0c.094 0 .203 0 .203-.188 0-.078-.047-.109-.047-.109-.03-.016-.062-.016-.28-.016-.22 0-.267 0-.517-.015-.296-.031-.328-.078-.328-.203 0-.016 0-.078.047-.219z" stroke="none"/></symbol><symbol overflow="visible" id="k"><path d="M3.516-1.266H3.28c-.015.157-.094.563-.187.625-.047.047-.578.047-.688.047H1.125c.734-.64.984-.844 1.39-1.172.516-.406 1-.843 1-1.5 0-.843-.734-1.359-1.624-1.359-.86 0-1.454.61-1.454 1.25 0 .344.297.39.376.39.156 0 .359-.124.359-.374 0-.125-.047-.375-.406-.375.218-.485.687-.641 1.015-.641.703 0 1.063.547 1.063 1.11 0 .609-.438 1.078-.656 1.328L.516-.266C.437-.203.437-.187.437 0h2.876z" stroke="none"/></symbol></defs><use height="1052.362" width="744.094" xlink:href="#i" x="224.901" y="132.246"/><use height="1052.362" width="744.094" xlink:href="#j" x="223.432" y="134.765"/><use height="1052.362" width="744.094" xlink:href="#k" x="229.839" y="136.259"/></g><g transform="matrix(4.54271 0 0 4.54271 -319.083 234.058)" ns0:preamble="/home/waldgeist/sandbox/homepage/inkscape-preamble.tex" ns0:text="$A_2$" fill="teal" stroke="#d40000"><defs><symbol id="l" overflow="visible"><path d="M1.781-1.14C1.391-.485 1-.345.563-.314c-.125.016-.22.016-.22.204 0 .062.063.109.141.109.266 0 .579-.031.844-.031.344 0 .688.031 1 .031.063 0 .188 0 .188-.188 0-.109-.079-.124-.157-.124-.218-.016-.468-.094-.468-.344 0-.125.062-.235.14-.375l.766-1.266h2.5c.016.203.156 1.563.156 1.656 0 .297-.516.329-.719.329-.14 0-.234 0-.234.203C4.5 0 4.61 0 4.64 0c.407 0 .829-.031 1.235-.031.25 0 .89.031 1.14.031.048 0 .173 0 .173-.203 0-.11-.094-.11-.235-.11-.61 0-.61-.062-.64-.359l-.61-6.219c-.016-.203-.016-.25-.187-.25-.157 0-.204.079-.266.172zm1.203-1.47l1.954-3.296.328 3.297z" stroke="none"/></symbol><symbol id="m" overflow="visible"><path d="M3.516-1.266H3.28c-.015.157-.094.563-.187.625-.047.047-.578.047-.688.047H1.125c.734-.64.984-.844 1.39-1.172.516-.406 1-.843 1-1.5 0-.843-.734-1.359-1.624-1.359-.86 0-1.454.61-1.454 1.25 0 .344.297.39.376.39.156 0 .359-.124.359-.374 0-.125-.047-.375-.406-.375.218-.485.687-.641 1.015-.641.703 0 1.063.547 1.063 1.11 0 .609-.438 1.078-.656 1.328L.516-.266C.437-.203.437-.187.437 0h2.876z" stroke="none"/></symbol></defs><use height="1052.362" width="744.094" y="134.765" x="223.432" xlink:href="#l"/><use height="1052.362" width="744.094" y="136.259" x="230.904" xlink:href="#m"/></g><g ns0:text="$A_1$" ns0:preamble="/home/waldgeist/sandbox/homepage/inkscape-preamble.tex" transform="matrix(4.54271 0 0 4.54271 -626.938 234.058)" fill="teal" stroke="#d40000"><defs><symbol overflow="visible" id="n"><path d="M1.781-1.14C1.391-.485 1-.345.563-.314c-.125.016-.22.016-.22.204 0 .062.063.109.141.109.266 0 .579-.031.844-.031.344 0 .688.031 1 .031.063 0 .188 0 .188-.188 0-.109-.079-.124-.157-.124-.218-.016-.468-.094-.468-.344 0-.125.062-.235.14-.375l.766-1.266h2.5c.016.203.156 1.563.156 1.656 0 .297-.516.329-.719.329-.14 0-.234 0-.234.203C4.5 0 4.61 0 4.64 0c.407 0 .829-.031 1.235-.031.25 0 .89.031 1.14.031.048 0 .173 0 .173-.203 0-.11-.094-.11-.235-.11-.61 0-.61-.062-.64-.359l-.61-6.219c-.016-.203-.016-.25-.187-.25-.157 0-.204.079-.266.172zm1.203-1.47l1.954-3.296.328 3.297z" stroke="none"/></symbol><symbol overflow="visible" id="o"><path d="M2.328-4.438c0-.187 0-.187-.203-.187-.453.438-1.078.438-1.36.438v.25c.157 0 .626 0 1-.188v3.547c0 .234 0 .328-.687.328H.812V0c.125 0 .985-.031 1.235-.031.219 0 1.094.031 1.25.031v-.25H3.03c-.703 0-.703-.094-.703-.328z" stroke="none"/></symbol></defs><use height="1052.362" width="744.094" xlink:href="#n" x="223.432" y="134.765"/><use height="1052.362" width="744.094" xlink:href="#o" x="230.904" y="136.259"/></g><g transform="matrix(4.54271 0 0 4.54271 -593.006 -151.007)" ns0:preamble="/home/waldgeist/sandbox/homepage/inkscape-preamble.tex" ns0:text="$\\vec{F}_{\\rm{1}}$" fill="#d40000" stroke="#d40000"><defs><symbol id="p" overflow="visible"><path d="M5.36-5.938c-.141.141-.47.422-.47.594 0 .094.094.203.188.203s.14-.078.203-.14c.11-.14.344-.422.782-.64.062-.048.171-.095.171-.204 0-.11-.078-.156-.14-.203a1.034 1.034 0 0 1-.407-.563c-.03-.093-.062-.234-.203-.234-.14 0-.203.14-.203.219 0 .047.078.36.235.578h-3.36c-.156 0-.344 0-.344.203 0 .188.188.188.344.188z" stroke="none"/></symbol><symbol id="q" overflow="visible"><path d="M3.016-3.234h.968c.75 0 .829.156.829.437 0 .078 0 .188-.063.5-.031.047-.031.078-.031.11 0 .078.062.109.11.109.109 0 .109-.031.155-.203l.547-2.172c.032-.11.032-.125.032-.156a.117.117 0 0 0-.125-.11c-.094 0-.11.047-.141.219-.219.766-.438.953-1.297.953h-.906l.64-2.531c.094-.36.11-.39.547-.39h1.313c1.218 0 1.453.327 1.453 1.093 0 .234 0 .266-.031.547C7-4.703 7-4.688 7-4.656c0 .047.031.125.125.125.11 0 .11-.063.125-.25l.203-1.735c.031-.265-.016-.265-.266-.265h-4.89c-.188 0-.297 0-.297.203 0 .11.094.11.281.11.375 0 .656 0 .656.171 0 .047 0 .063-.062.25L1.562-.78c-.093.39-.109.469-.906.469-.172 0-.281 0-.281.187C.375 0 .5 0 .531 0c.281 0 1.031-.031 1.313-.031C2.172-.031 3 0 3.328 0c.094 0 .203 0 .203-.188 0-.078-.047-.109-.047-.109-.03-.016-.062-.016-.28-.016-.22 0-.267 0-.517-.015-.296-.031-.328-.078-.328-.203 0-.016 0-.078.047-.219z" stroke="none"/></symbol><symbol id="r" overflow="visible"><path d="M2.328-4.438c0-.187 0-.187-.203-.187-.453.438-1.078.438-1.36.438v.25c.157 0 .626 0 1-.188v3.547c0 .234 0 .328-.687.328H.812V0c.125 0 .985-.031 1.235-.031.219 0 1.094.031 1.25.031v-.25H3.03c-.703 0-.703-.094-.703-.328z" stroke="none"/></symbol></defs><use y="132.246" x="224.901" xlink:href="#p" width="744.094" height="1052.362"/><use y="134.765" x="223.432" xlink:href="#q" width="744.094" height="1052.362"/><use y="136.259" x="229.839" xlink:href="#r" width="744.094" height="1052.362"/></g><path style="text-indent:0;text-align:start;line-height:normal;text-transform:none;block-progression:tb;marker:none;-inkscape-font-specification:Sans" d="M524.704 559.76v30.53h386.002v-30.53zM368.994 715.008v30.53h82.42v-30.53zM368.994 511.382v30.53h82.42v-30.53z" font-weight="400" color="#000" fill="gray" overflow="visible" font-family="Sans"/><path style="marker:none" d="M616.075 896.377h15.818v8.069h-23.818z" color="#000" fill="#e6e6e6" stroke="#9b9c9f" stroke-width="2" overflow="visible"/><g color="#000" fill="#e6e6e6" stroke="#9b9c9f" stroke-width="2" stroke-linecap="round" stroke-linejoin="round"><path d="M632.195 866.937s-1.68-4.102 1.098-6.755c2.778-2.653 6.755-1.098 6.755-1.098l24.926 24.926-4.55 11.155zM367.381 865.655s-1.68-4.102 1.098-6.755c2.778-2.652 6.755-1.098 6.755-1.098l24.926 24.926-4.55 11.156z" style="marker:none" overflow="visible"/></g><path style="marker:none" d="M642.33 863.346a3.952 3.952 0 1 1-7.906 0 3.952 3.952 0 0 1 7.905 0z" color="#000" fill="#fc0" stroke="#333" stroke-width="2" stroke-linecap="round" stroke-linejoin="round" overflow="visible"/><path d="M375.911 904.571h-38.41M367.424 870.969h-29.923" fill="none" stroke="#9b9c9f" stroke-width="3" stroke-linecap="round"/><rect ry="1.45" y="889.844" x="801.027" height="14.727" width="38.775" style="marker:none" color="#000" fill="#afc6e9" stroke="#afc6e9" stroke-width="2" stroke-linecap="round" stroke-linejoin="round" overflow="visible"/><path fill="gray" stroke="#4d4d4d" stroke-width="3" stroke-linecap="round" stroke-linejoin="round" d="M85.811 934.255h880.74v29.996H85.811z"/><path d="M839.801 889.844l33.715-.698c11.266 2.75 19.276 8.885 22.217 20.291v27.203c-3.93 10.952-11.624 17.867-23.096 20.333v-15.446c3.256-1.603 6.878-2.774 7.644-7.32v-22.331c-1.806-4.295-4.965-6.334-8.765-7.305h-31.715z" fill="#f9f9f9"/><path d="M871.516 904.571h-76.011M873.516 889.146h-70.155" fill="none" stroke="#9b9c9f" stroke-width="3" stroke-linecap="round"/><path style="marker:none" color="#000" fill="#f9f9f9" overflow="visible" d="M154.603 941.527h718.211v15.446H154.603z"/><g fill="none" stroke="#9b9c9f" stroke-width="2.15" stroke-linecap="round"><path d="M437.526 940.38h367.93M436.784 955.835l369.7-.004" transform="matrix(1.9468 0 0 1 -696.55 1.147)"/></g><path style="marker:none" d="M367.424 870.969V854.16c17.542 0 17.53 16.809 0 16.809zM351.26 895.095h15.82v8.07h-23.82z" color="#000" fill="#e6e6e6" stroke="#9b9c9f" stroke-width="2" overflow="visible"/><path d="M377.515 862.065a3.952 3.952 0 1 1-7.905 0 3.952 3.952 0 0 1 7.905 0z" style="marker:none" color="#000" fill="#fc0" stroke="#333" stroke-width="2" stroke-linecap="round" stroke-linejoin="round" overflow="visible"/><path style="marker:none" d="M836.805 864.719a.681.681 0 0 0-.69.69v4.136c0 .387.303.69.69.69h6.476c-.126.126 0 .298 0 .492v18.713c0 .387.425.69.812.69h4.137c.387 0 .856-.303.856-.69v-18.713c0-.194.126-.366 0-.493h6.432c.387 0 .69-.302.69-.69v-4.136a.681.681 0 0 0-.69-.69z" color="#000" fill="gray" stroke="#9b9c9f" stroke-width="1.5" stroke-linecap="round" stroke-linejoin="round" overflow="visible"/><g transform="matrix(1.31171 0 0 1 -169.907 -.58)" color="#000" fill="#e6e6e6" stroke="#9b9c9f" stroke-width="1.31" stroke-linecap="round" stroke-linejoin="round"><rect ry="1.048" y="909.612" x="764.13" height="8.273" width="18.099" style="marker:none" overflow="visible"/><rect transform="scale(-1 1)" style="marker:none" width="18.099" height="8.273" x="-782.229" y="878.5" ry="1.048" overflow="visible"/></g><path d="M833.217 885.862h20.364c2.163 0 5.38 1.328 5.38 2.977v17.546c0 1.65-1.741 2.977-3.905 2.977h-21.839V888.84c0-.306-.007-2.977 0-2.977z" style="marker:none" color="#000" fill="#e6e6e6" stroke="#9b9c9f" stroke-width="3" stroke-linecap="round" stroke-linejoin="round" overflow="visible"/><path d="M880.281 911.314v22.143M895.733 909.437v28.143" fill="none" stroke="#9b9c9f" stroke-width="3" stroke-linecap="round"/><path style="marker:none" d="M872.082 904.602c3.233 0 8.2 3.846 8.2 7.274M872.766 889.146c9.039 0 22.921 10.75 22.921 20.333M872.812 956.973c9.038 0 22.921-10.75 22.921-20.333M872.082 941.48c3.233 0 8.2-3.846 8.2-7.273" color="#000" fill="none" stroke="#9b9c9f" stroke-width="3" stroke-linecap="round" stroke-linejoin="round" overflow="visible"/><path d="M307.351 870.844h-29.923v-195.05h-15.675V647.17h45.394z" fill="#e6e6e6" stroke="#9b9c9f" stroke-width="3"/><path d="M301.17 842.546h13.062v26.792h-13.063v-26.792z" fill="#e6e6e6"/><path d="M161.642 870.765h29.922V675.804h83.676v-28.625H161.846z" fill="#e6e6e6" stroke="#9b9c9f" stroke-width="3"/><path style="marker:none" color="#000" fill="#f9f9f9" overflow="visible" d="M130.958 914.6V659.379h15.446V914.6z"/><path d="M154.946 941.527c-4.082-.469-7.28-2.562-8.542-8.199v-22.74h-15.452v24.04c2.726 13.917 10.898 21.15 23.994 22.338zM131.65 673.515l-.698-33.716c2.75-11.265 8.885-19.275 20.291-22.216h49.987v15.451h-47.548c-4.295 1.806-6.333 4.966-7.305 8.765v31.716z" fill="#f9f9f9"/><g fill="none" stroke="#9b9c9f" stroke-width="3" stroke-linecap="round"><path d="M146.404 934.815V641.422M130.952 936.692V640.549"/><path d="M154.603 941.527c-3.233 0-8.2-3.846-8.2-7.274M153.919 956.983c-9.039 0-22.921-10.75-22.921-20.332" style="marker:none" color="#000" stroke-linejoin="round" overflow="visible"/></g><g fill="none" stroke="#9b9c9f" stroke-width="2.15" stroke-linecap="round"><path d="M437.526 940.38h367.93M436.784 955.835l369.7-.004" transform="matrix(1.9468 0 0 1 -696.55 1.147)"/></g><path d="M245.294 687.514l.699-47.715c-2.75-11.265-8.885-19.275-20.292-22.216h-25.986v15.451h23.548c4.295 1.806 6.333 4.966 7.304 8.765v45.715z" fill="#f9f9f9"/><g fill="none" stroke="#9b9c9f" stroke-width="3" stroke-linecap="round"><path d="M153.12 633.034h70.143M151.243 617.583h72.143"/><path style="marker:none" d="M146.408 641.234c0-3.233 3.846-8.2 7.274-8.2M130.952 640.55c0-9.039 10.75-22.922 20.333-22.922" color="#000" stroke-linejoin="round" overflow="visible"/></g><g fill="none" stroke="#9b9c9f" stroke-width="3" stroke-linecap="round"><path d="M230.221 639.75v48.143M245.673 637.874v50.142"/><path d="M222.022 633.039c3.233 0 8.2 3.846 8.2 7.273M222.706 617.583c9.039 0 22.921 10.75 22.921 20.332" style="marker:none" color="#000" stroke-linejoin="round" overflow="visible"/></g><path d="M268.289 648.667h13.063v25.635h-13.063zM339.206 845.503V832.44h26.792v13.063h-26.792zM163.12 878.217v-13.062h26.917v13.062zM379.305 906.01h13.062v26.79h-13.062v-26.79z" fill="#e6e6e6"/><path style="marker:none" d="M410.176 415.04v91.876M717.676 414.607V553.82" color="#000" fill="none" stroke="#d40000" stroke-width="3" stroke-linecap="round" stroke-linejoin="round" marker-end="url(#s)" overflow="visible"/><path style="marker:none" d="M637.398 800.48h160.66M369.617 800.48h79.498" color="#000" fill="none" stroke="teal" stroke-width="3" stroke-linecap="round" stroke-linejoin="round" marker-start="url(#t)" marker-end="url(#s)" overflow="visible"/></g></svg>