<svg xmlns:ns0="http://www.iki.fi/pav/software/textext/" xmlns="http://www.w3.org/2000/svg" xmlns:xlink="http://www.w3.org/1999/xlink" width="744.094" height="1052.362"><title>Hydraulische Anlage</title><defs><linearGradient id="d"><stop offset="0" stop-opacity="0"/><stop offset="1" stop-color="#fff"/></linearGradient><linearGradient id="e"><stop offset="0" stop-color="#fff"/><stop offset="1" stop-color="#fff" stop-opacity="0"/></linearGradient><linearGradient id="f"><stop offset="0" stop-color="#1a1a1a" stop-opacity=".828"/><stop offset="1" stop-color="#fff"/></linearGradient><linearGradient id="a"><stop offset="0" stop-opacity="0"/><stop offset="1" stop-color="#fff"/></linearGradient><linearGradient id="b"><stop offset="0" stop-color="#ebebeb"/><stop offset="1" stop-color="#fff" stop-opacity="0"/></linearGradient><linearGradient id="c"><stop offset="0" stop-color="#0e0e0e" stop-opacity=".746"/><stop offset="1" stop-color="#fff"/></linearGradient><pattern patternUnits="userSpaceOnUse" width="30.066" height="5.181" id="g"><path d="M7.597.061C5.079-.187 2.656.302-.01 1.788v1.273c2.783-1.63 5.183-2.009 7.482-1.781 2.298.228 4.497 1.081 6.781 1.938 4.567 1.713 9.551 3.458 15.813-.157l-.004-1.273c-6.44 3.709-10.816 1.982-15.371.273-2.278-.854-4.576-1.75-7.094-2z"/></pattern><pattern patternTransform="translate(.25)" id="h" xlink:href="#g"/><filter color-interpolation-filters="sRGB" id="i" x="-.36" width="1.72" y="-.36" height="1.72"><feGaussianBlur stdDeviation="3.429"/></filter><filter color-interpolation-filters="sRGB" id="m" x="-.36" width="1.72" y="-.36" height="1.72"><feGaussianBlur stdDeviation="3.429"/></filter></defs><path style="marker:none" color="#000" fill="#fff" stroke="#fff" stroke-width="4.097" stroke-linecap="round" stroke-linejoin="bevel" overflow="visible" enable-background="accumulate" d="M45.649 198.676h652.797v655.011H45.649z"/><rect width="120.785" height="171.122" x="-794.007" y="418.908" transform="rotate(-90)" ry="3.167" fill="#afc6e9"/><rect ry="1.578" transform="rotate(-90)" y="154.107" x="-794.007" height="85.242" width="181.608" fill="#afc6e9"/><path d="M231.319 761.097h211.073c.84 0 1.516.272 1.516.611v31.83c0 .34-.676.613-1.516.613 1.516-.612-211.073 0-211.073 0-.138.334-1.516-.273-1.516-.612v-31.83c0-.34.676-.612 1.516-.612z" fill="#afc6e9"/><path d="M239.349 760.105h179.56" fill="none" stroke="#9b9c9f" stroke-width="3" stroke-linecap="round"/><path d="M172.956 611.136V405.954h47.683v205.182z" fill="#999"/><path d="M233.024 612.398h-72.592M238.348 405.954h-83.24" fill="none" stroke="gray" stroke-width="10" stroke-linecap="round"/><g fill="none" stroke="gray" stroke-width="6" stroke-linecap="round"><path d="M172.887 405.954v205.182M220.57 405.954v205.182" stroke-width="3"/></g><g fill="#999"><path d="M455.457 671.958V466.776h98.024v205.182z"/><path d="M583.429 673.221h-157.92M590.03 466.776H418.908" stroke="gray" stroke-width="10" stroke-linecap="round"/></g><path d="M455.457 466.776v205.182M553.481 466.776v205.182" fill="none" stroke="gray" stroke-width="3" stroke-linecap="round"/><path d="M124.375 552.41v12.624h.032V823.69h144.812l119.844.25 230.656-.25V552.44h-62.437v12.594h32.75v228.969l-171.16.002c.036.002-179.264.002-179.264.002l-85.514-.004V565.034h14.969V552.41h-44.688z" fill="#e6e6e6" stroke="#9b9c9f" stroke-width="3"/><path d="M389.032 552.41v12.624h.03V731.41H269.22V552.44h-44.687v12.625h15.25c-.066 18.476-.345 148.172-.282 196.032h179.25V565.034h32.75V552.41h-62.468z" fill="#e6e6e6" stroke="#9b9c9f" stroke-width="3"/><g fill="none" stroke="#333" stroke-linecap="round"><path d="M504.469 316.507c-7.321 0-13.256-5.935-13.256-13.256 0-7.321 5.935-13.256 13.256-13.256 7.321 0 13.256 5.935 13.256 13.256" stroke-width="4.0003847" stroke-linejoin="round"/><path d="M504.469 316.507v18.45" stroke-width="4"/></g><path fill="#ccc" stroke="#333" stroke-width="1.5" stroke-linecap="round" stroke-linejoin="round" d="M462.33 326.41h84.277v136.365H462.33z"/><path transform="matrix(.43074 0 0 .43074 358.486 195.816)" d="M301.429 350.934c0 6.311-5.117 11.428-11.429 11.428s-11.429-5.117-11.429-11.428c0-6.312 5.117-11.429 11.429-11.429s11.429 5.117 11.429 11.429z" opacity=".5" fill="#fff" filter="url(#i)"/><g fill="#d40000"><path style="text-indent:0;text-align:start;line-height:normal;text-transform:none;block-progression:tb;marker:none;-inkscape-font-specification:Sans" d="M511.496 382.315V532.73s-6.972 10.525-7.027 10.508l-7.027-10.508V382.315z" font-weight="400" color="#000" overflow="visible" enable-background="accumulate" font-family="Sans"/><path d="M-707.107 1620.068l-5.249-9.091-5.249-9.092h20.996l-5.249 9.091z" transform="matrix(-.48524 .00002 .00002 .4963 161.317 -270.562)" stroke="#d40000" stroke-width="28.972" stroke-linecap="square"/></g><g ns0:text="$\\vec{F}_{\\rm{2}}$" ns0:preamble="/home/waldgeist/sandbox/homepage/inkscape-preamble.tex" transform="matrix(4.54271 0 0 4.54271 -458.91 -172.577)" fill="#d40000" stroke="#d40000"><defs><symbol overflow="visible" id="j"><path d="M5.36-5.938c-.141.141-.47.422-.47.594 0 .094.094.203.188.203s.14-.078.203-.14c.11-.14.344-.422.782-.64.062-.048.171-.095.171-.204 0-.11-.078-.156-.14-.203a1.034 1.034 0 0 1-.407-.563c-.03-.093-.062-.234-.203-.234-.14 0-.203.14-.203.219 0 .047.078.36.235.578h-3.36c-.156 0-.344 0-.344.203 0 .188.188.188.344.188z" stroke="none"/></symbol><symbol overflow="visible" id="k"><path d="M3.016-3.234h.968c.75 0 .829.156.829.437 0 .078 0 .188-.063.5-.031.047-.031.078-.031.11 0 .078.062.109.11.109.109 0 .109-.031.155-.203l.547-2.172c.032-.11.032-.125.032-.156a.117.117 0 0 0-.125-.11c-.094 0-.11.047-.141.219-.219.766-.438.953-1.297.953h-.906l.64-2.531c.094-.36.11-.39.547-.39h1.313c1.218 0 1.453.327 1.453 1.093 0 .234 0 .266-.031.547C7-4.703 7-4.688 7-4.656c0 .047.031.125.125.125.11 0 .11-.063.125-.25l.203-1.735c.031-.265-.016-.265-.266-.265h-4.89c-.188 0-.297 0-.297.203 0 .11.094.11.281.11.375 0 .656 0 .656.171 0 .047 0 .063-.062.25L1.562-.78c-.093.39-.109.469-.906.469-.172 0-.281 0-.281.187C.375 0 .5 0 .531 0c.281 0 1.031-.031 1.313-.031C2.172-.031 3 0 3.328 0c.094 0 .203 0 .203-.188 0-.078-.047-.109-.047-.109-.03-.016-.062-.016-.28-.016-.22 0-.267 0-.517-.015-.296-.031-.328-.078-.328-.203 0-.016 0-.078.047-.219z" stroke="none"/></symbol><symbol overflow="visible" id="l"><path d="M3.516-1.266H3.28c-.015.157-.094.563-.187.625-.047.047-.578.047-.688.047H1.125c.734-.64.984-.844 1.39-1.172.516-.406 1-.843 1-1.5 0-.843-.734-1.359-1.624-1.359-.86 0-1.454.61-1.454 1.25 0 .344.297.39.376.39.156 0 .359-.124.359-.374 0-.125-.047-.375-.406-.375.218-.485.687-.641 1.015-.641.703 0 1.063.547 1.063 1.11 0 .609-.438 1.078-.656 1.328L.516-.266C.437-.203.437-.187.437 0h2.876z" stroke="none"/></symbol></defs><use height="1052.362" width="744.094" xlink:href="#j" x="224.901" y="132.246"/><use height="1052.362" width="744.094" xlink:href="#k" x="223.432" y="134.765"/><use height="1052.362" width="744.094" xlink:href="#l" x="229.839" y="136.259"/></g><g fill="none" stroke="#333" stroke-linecap="round"><path d="M196.798 255.684c-7.322 0-13.257-5.935-13.257-13.256 0-7.321 5.935-13.256 13.257-13.256 7.32 0 13.256 5.935 13.256 13.256" stroke-width="4.0003847" stroke-linejoin="round"/><path d="M196.798 255.684v18.45" stroke-width="4"/></g><path fill="#ccc" stroke="#333" stroke-width="2.121" stroke-linecap="round" stroke-linejoin="round" d="M-38.604 80.797h84.278v136.365h-84.278z" transform="matrix(.5 0 0 1 195.03 184.79)"/><path d="M301.429 350.934c0 6.311-5.117 11.428-11.429 11.428s-11.429-5.117-11.429-11.428c0-6.312 5.117-11.429 11.429-11.429s11.429 5.117 11.429 11.429z" transform="matrix(.43074 0 0 .43074 63.736 134.993)" opacity=".5" fill="#fff" filter="url(#m)"/><g fill="#d40000"><path d="M203.755 347.723v75.207s-6.971 5.263-7.027 5.254l-7.027-5.254v-75.207z" style="text-indent:0;text-align:start;line-height:normal;text-transform:none;block-progression:tb;marker:none;-inkscape-font-specification:Sans" font-weight="400" color="#000" overflow="visible" enable-background="accumulate" font-family="Sans"/><path transform="matrix(-.48524 .00002 .00002 .4963 -146.417 -373.97)" d="M-707.107 1620.068l-5.249-9.091-5.249-9.092h20.996l-5.249 9.091z" stroke="#d40000" stroke-width="28.972" stroke-linecap="square"/></g><g transform="matrix(4.54271 0 0 4.54271 -532.413 151.494)" ns0:preamble="/home/waldgeist/sandbox/homepage/inkscape-preamble.tex" ns0:text="$A_2$" fill="teal" stroke="#d40000"><defs><symbol id="n" overflow="visible"><path d="M1.781-1.14C1.391-.485 1-.345.563-.314c-.125.016-.22.016-.22.204 0 .062.063.109.141.109.266 0 .579-.031.844-.031.344 0 .688.031 1 .031.063 0 .188 0 .188-.188 0-.109-.079-.124-.157-.124-.218-.016-.468-.094-.468-.344 0-.125.062-.235.14-.375l.766-1.266h2.5c.016.203.156 1.563.156 1.656 0 .297-.516.329-.719.329-.14 0-.234 0-.234.203C4.5 0 4.61 0 4.64 0c.407 0 .829-.031 1.235-.031.25 0 .89.031 1.14.031.048 0 .173 0 .173-.203 0-.11-.094-.11-.235-.11-.61 0-.61-.062-.64-.359l-.61-6.219c-.016-.203-.016-.25-.187-.25-.157 0-.204.079-.266.172zm1.203-1.47l1.954-3.296.328 3.297z" stroke="none"/></symbol><symbol id="o" overflow="visible"><path d="M3.516-1.266H3.28c-.015.157-.094.563-.187.625-.047.047-.578.047-.688.047H1.125c.734-.64.984-.844 1.39-1.172.516-.406 1-.843 1-1.5 0-.843-.734-1.359-1.624-1.359-.86 0-1.454.61-1.454 1.25 0 .344.297.39.376.39.156 0 .359-.124.359-.374 0-.125-.047-.375-.406-.375.218-.485.687-.641 1.015-.641.703 0 1.063.547 1.063 1.11 0 .609-.438 1.078-.656 1.328L.516-.266C.437-.203.437-.187.437 0h2.876z" stroke="none"/></symbol></defs><use height="1052.362" width="744.094" y="134.765" x="223.432" xlink:href="#n"/><use height="1052.362" width="744.094" y="136.259" x="230.904" xlink:href="#o"/></g><g ns0:text="$A_1$" ns0:preamble="/home/waldgeist/sandbox/homepage/inkscape-preamble.tex" transform="matrix(4.54271 0 0 4.54271 -840.268 151.494)" fill="teal" stroke="#d40000"><defs><symbol overflow="visible" id="p"><path d="M1.781-1.14C1.391-.485 1-.345.563-.314c-.125.016-.22.016-.22.204 0 .062.063.109.141.109.266 0 .579-.031.844-.031.344 0 .688.031 1 .031.063 0 .188 0 .188-.188 0-.109-.079-.124-.157-.124-.218-.016-.468-.094-.468-.344 0-.125.062-.235.14-.375l.766-1.266h2.5c.016.203.156 1.563.156 1.656 0 .297-.516.329-.719.329-.14 0-.234 0-.234.203C4.5 0 4.61 0 4.64 0c.407 0 .829-.031 1.235-.031.25 0 .89.031 1.14.031.048 0 .173 0 .173-.203 0-.11-.094-.11-.235-.11-.61 0-.61-.062-.64-.359l-.61-6.219c-.016-.203-.016-.25-.187-.25-.157 0-.204.079-.266.172zm1.203-1.47l1.954-3.296.328 3.297z" stroke="none"/></symbol><symbol overflow="visible" id="q"><path d="M2.328-4.438c0-.187 0-.187-.203-.187-.453.438-1.078.438-1.36.438v.25c.157 0 .626 0 1-.188v3.547c0 .234 0 .328-.687.328H.812V0c.125 0 .985-.031 1.235-.031.219 0 1.094.031 1.25.031v-.25H3.03c-.703 0-.703-.094-.703-.328z" stroke="none"/></symbol></defs><use height="1052.362" width="744.094" xlink:href="#p" x="223.432" y="134.765"/><use height="1052.362" width="744.094" xlink:href="#q" x="230.904" y="136.259"/></g><g fill="teal"><path d="M170.186 706.606h51.6s3.611 3.121 3.605 3.146l-3.605 3.147h-51.6z" style="text-indent:0;text-align:start;line-height:normal;text-transform:none;block-progression:tb;marker:none;-inkscape-font-specification:Sans" font-weight="400" color="#000" overflow="visible" enable-background="accumulate" font-family="Sans"/><path d="M-707.107 1620.068l-5.249-9.091-5.249-9.092h20.996l-5.249 9.091z" transform="matrix(0 .02523 -.0258 0 211.529 727.602)" stroke="teal" stroke-width="557.121" stroke-linecap="square"/><path transform="matrix(0 .02523 .0258 0 181.927 727.861)" d="M-707.107 1620.068l-5.249-9.091-5.249-9.092h20.996l-5.249 9.091z" stroke="teal" stroke-width="557.121" stroke-linecap="square"/></g><g transform="matrix(4.54271 0 0 4.54271 -786.336 -217.571)" ns0:preamble="/home/waldgeist/sandbox/homepage/inkscape-preamble.tex" ns0:text="$\\vec{F}_{\\rm{1}}$" fill="#d40000" stroke="#d40000"><defs><symbol id="r" overflow="visible"><path d="M5.36-5.938c-.141.141-.47.422-.47.594 0 .094.094.203.188.203s.14-.078.203-.14c.11-.14.344-.422.782-.64.062-.048.171-.095.171-.204 0-.11-.078-.156-.14-.203a1.034 1.034 0 0 1-.407-.563c-.03-.093-.062-.234-.203-.234-.14 0-.203.14-.203.219 0 .047.078.36.235.578h-3.36c-.156 0-.344 0-.344.203 0 .188.188.188.344.188z" stroke="none"/></symbol><symbol id="s" overflow="visible"><path d="M3.016-3.234h.968c.75 0 .829.156.829.437 0 .078 0 .188-.063.5-.031.047-.031.078-.031.11 0 .078.062.109.11.109.109 0 .109-.031.155-.203l.547-2.172c.032-.11.032-.125.032-.156a.117.117 0 0 0-.125-.11c-.094 0-.11.047-.141.219-.219.766-.438.953-1.297.953h-.906l.64-2.531c.094-.36.11-.39.547-.39h1.313c1.218 0 1.453.327 1.453 1.093 0 .234 0 .266-.031.547C7-4.703 7-4.688 7-4.656c0 .047.031.125.125.125.11 0 .11-.063.125-.25l.203-1.735c.031-.265-.016-.265-.266-.265h-4.89c-.188 0-.297 0-.297.203 0 .11.094.11.281.11.375 0 .656 0 .656.171 0 .047 0 .063-.062.25L1.562-.78c-.093.39-.109.469-.906.469-.172 0-.281 0-.281.187C.375 0 .5 0 .531 0c.281 0 1.031-.031 1.313-.031C2.172-.031 3 0 3.328 0c.094 0 .203 0 .203-.188 0-.078-.047-.109-.047-.109-.03-.016-.062-.016-.28-.016-.22 0-.267 0-.517-.015-.296-.031-.328-.078-.328-.203 0-.016 0-.078.047-.219z" stroke="none"/></symbol><symbol id="t" overflow="visible"><path d="M2.328-4.438c0-.187 0-.187-.203-.187-.453.438-1.078.438-1.36.438v.25c.157 0 .626 0 1-.188v3.547c0 .234 0 .328-.687.328H.812V0c.125 0 .985-.031 1.235-.031.219 0 1.094.031 1.25.031v-.25H3.03c-.703 0-.703-.094-.703-.328z" stroke="none"/></symbol></defs><use y="132.246" x="224.901" xlink:href="#r"/><use y="134.765" x="223.432" xlink:href="#s"/><use y="136.259" x="229.839" xlink:href="#t"/></g><g fill="teal"><path style="text-indent:0;text-align:start;line-height:normal;text-transform:none;block-progression:tb;marker:none;-inkscape-font-specification:Sans" d="M434.186 706.606H564.89s9.146 3.121 9.131 3.146l-9.131 3.147H434.186z" font-weight="400" color="#000" overflow="visible" enable-background="accumulate" font-family="Sans"/><path transform="matrix(0 .02523 -.0258 0 475.529 727.602)" d="M-707.107 1620.068l-5.249-9.091-5.249-9.092h20.996l-5.249 9.091z" stroke="teal" stroke-width="557.121" stroke-linecap="square"/><path d="M-707.107 1620.068l-5.249-9.091-5.249-9.092h20.996l-5.249 9.091z" transform="matrix(0 .02523 .0258 0 532.677 727.861)" stroke="teal" stroke-width="557.121" stroke-linecap="square"/></g></svg>