<svg xmlns:ns0="http://www.iki.fi/pav/software/textext/" xmlns="http://www.w3.org/2000/svg" xmlns:xlink="http://www.w3.org/1999/xlink" width="1122.52" height="793.701"><title>Kapillare Steighoehe</title><defs><pattern patternTransform="translate(.25)" id="b" xlink:href="#a"/><pattern patternUnits="userSpaceOnUse" width="30.066" height="5.181" id="a"><path d="M7.597.061C5.079-.187 2.656.302-.01 1.788v1.273c2.783-1.63 5.183-2.009 7.482-1.781 2.298.228 4.497 1.081 6.781 1.938 4.567 1.713 9.551 3.458 15.813-.157l-.004-1.273c-6.44 3.709-10.816 1.982-15.371.273-2.278-.854-4.576-1.75-7.094-2z"/></pattern><linearGradient id="c"><stop offset="0" stop-color="#0e0e0e" stop-opacity=".746"/><stop offset="1" stop-color="#fff"/></linearGradient><linearGradient id="d"><stop offset="0" stop-color="#ebebeb"/><stop offset="1" stop-color="#fff" stop-opacity="0"/></linearGradient><linearGradient id="e"><stop offset="0" stop-opacity="0"/><stop offset="1" stop-color="#fff"/></linearGradient><linearGradient id="f"><stop offset="0" stop-color="#1a1a1a" stop-opacity=".828"/><stop offset="1" stop-color="#fff"/></linearGradient><linearGradient id="g"><stop offset="0" stop-color="#fff"/><stop offset="1" stop-color="#fff" stop-opacity="0"/></linearGradient><linearGradient id="h"><stop offset="0" stop-opacity="0"/><stop offset="1" stop-color="#fff"/></linearGradient></defs><path style="marker:none" color="#000" overflow="visible" fill="#fff" stroke="#fff" stroke-width="3.625" stroke-linecap="round" stroke-linejoin="bevel" d="M13.974 240.535h1094.571v312.63H13.974z"/><g ns0:text="$\\vec{F}$" ns0:preamble="/home/waldgeist/data/sphinx/inkscape-preamble.tex" fill="#d40000"><use height="1052.362" width="744.094" xlink:href="#textext-ecb1a24e-1" x="224.901" y="132.246" transform="matrix(3.72535 0 0 3.72535 -69.408 -167.06)"/><use height="1052.362" width="744.094" xlink:href="#textext-ecb1a24e-2" x="223.432" y="134.765" transform="matrix(3.72535 0 0 3.72535 -69.408 -167.06)"/></g><g stroke-width="3.173" color="#000" fill="#afc6e9" stroke="#87aade" stroke-linecap="square" stroke-linejoin="bevel"><path style="marker:none" d="M332.795 654.928c5.15 19.502 17.98 23.372 22.959 24.706h141.57l-.115 138.916H332.795" overflow="visible" transform="matrix(1 0 0 1.01698 486.87 -299.267)"/><path d="M390.555 818.55h106.413V654.928c-5.15 19.502-17.98 23.372-22.958 24.706h-83.57" style="marker:none" overflow="visible" transform="matrix(1 0 0 1.01698 486.87 -299.267)"/></g><g stroke-width="3.189" color="#000" fill="#afc6e9" stroke="#87aade" stroke-linecap="square" stroke-linejoin="bevel"><path d="M332.795 654.928c5.15 19.502 17.98 23.372 22.959 24.706h141.57l-.115 138.916H332.795" style="marker:none" overflow="visible" transform="matrix(-1 0 0 1.007 1122.417 -291.694)"/><path style="marker:none" d="M390.555 818.55h106.413V654.928c-5.15 19.502-17.98 23.372-22.958 24.706h-83.57" overflow="visible" transform="matrix(-1 0 0 1.007 1122.417 -291.694)"/></g><path style="marker:none" d="M819.588 438.206h.479V298.23s-5.977 15.23-15.074 15.23-15.074-15.23-15.074-15.23v140.191" color="#000" overflow="visible" fill="#afc6e9" stroke="#87aade" stroke-width="3.2" stroke-linecap="square" stroke-linejoin="bevel"/><path fill="#afc6e9" stroke="#afc6e9" stroke-width="1.333" stroke-linecap="round" stroke-linejoin="round" d="M789.92 438.422h29.747v91.984H789.92z"/><g fill="none" stroke="#9b9c9f" stroke-width="4.14" stroke-linecap="round"><path d="M819.769 449.056V260.23M789.622 449.627V260.8"/></g><g fill="none" stroke="#9b9c9f" stroke-linecap="round"><path d="M627.804 532.335l354.996 1.101" stroke-width="4.267"/><path d="M984.08 530.407V341.58M625.311 530.977V342.152" stroke-width="4.14"/></g><g><g color="#000" fill="#afc6e9" stroke="#87aade" stroke-width="3.2" stroke-linecap="square" stroke-linejoin="bevel"><path d="M301.524 411.807c-20.143-20.225-18.507-19.199-50.315-20.197h-63.102l.851 141.276h112.28" style="marker:none" overflow="visible"/><path style="marker:none" d="M250.358 532.886h-112.28l-.286-121.079c20.143-20.225 18.507-19.199 50.315-20.197h63.102" overflow="visible"/></g><path fill="#afc6e9" stroke="#afc6e9" stroke-width="1.333" stroke-linecap="round" stroke-linejoin="round" d="M297.485 438.422h40.322v91.984h-40.322z"/><g color="#000" fill="#afc6e9" stroke="#87aade" stroke-width="3.2" stroke-linecap="square" stroke-linejoin="bevel"><path style="marker:none" d="M333.947 411.807c20.143-20.225 18.507-19.199 50.315-20.197h63.101l-.85 141.276h-112.28" overflow="visible"/><path d="M385.113 532.886h112.28l.286-121.079c-20.143-20.225-18.507-19.199-50.316-20.197h-63.101" style="marker:none" overflow="visible"/></g><g fill="none" stroke="#9b9c9f" stroke-linecap="round"><path d="M140.755 532.335l354.996 1.101" stroke-width="4.267"/><path d="M497.03 530.407V341.58M138.262 530.977V342.152" stroke-width="4.14"/></g><path d="M332.72 444.206v-1.975s-5.976-10.77-15.074-10.77c-9.097 0-15.074 10.77-15.074 10.77v2.191" style="marker:none" color="#000" overflow="visible" fill="#afc6e9" stroke="#87aade" stroke-width="3.2" stroke-linecap="square" stroke-linejoin="bevel"/><g fill="none" stroke="#9b9c9f" stroke-width="4.14" stroke-linecap="round"><path d="M332.72 449.056V260.23M302.572 449.627V260.8"/></g></g></svg>