<svg xmlns="http://www.w3.org/2000/svg" width="1052.362" height="744.094"><title>Verbundene Gefaesse</title><path style="marker:none" color="#000" fill="#fff" stroke="#fff" stroke-width="3.399" stroke-linecap="round" stroke-linejoin="bevel" overflow="visible" d="M31.639 206.515h989.084v307.541H31.639z"/><path d="M743.976 329.22v161.879h-435.59l.25-161.81 80.056-.037.004 127.74 81.116.062c21.3-20.19 26.304-53.736 14.61-80.48-3.914-7.086-7.691-14.207-14.61-20.543-4.667-5.438-9.981-9.757-17.197-26.76h29.44c4.582 11.8 8.362 16.374 12.195 21.434 10.31 10.273 15.54 18.29 18.928 25.487 15.34 33.858 2.36 64.585-14.234 80.738l98.504.124V414.9c-24.493-11.057-24.022-43.609 0-54.554V334.89l-8.624-5.62h39.928l-8.691 5.51v25.742c25.992 10.694 22.382 45.72 0 54.318l-.055 42.214 89.515-.062.1-127.773z" style="marker:none" color="#000" fill="#afc6e9" stroke="#87aade" stroke-width="3" stroke-linecap="round" stroke-linejoin="round" overflow="visible"/><g fill="none" stroke="#9b9c9f" stroke-width="3" stroke-linecap="round"><path d="M743.976 491.099V252.996M709.521 457.054V254.831"/></g><g fill="none" stroke="#9b9c9f" stroke-width="8.402" color="#000" stroke-linecap="round" stroke-linejoin="round"><path d="M499.089 254.831c-27.946 27.848-28.025 73.078-.177 101.023l.088.089M499 355.943c27.946 27.848 28.025 73.077.177 101.023l-.088.088M469.812 254.831c-27.945 27.848-28.024 73.078-.176 101.023l.088.089M469.724 355.943c27.946 27.848 28.024 73.077.176 101.023l-.088.088" style="marker:none" overflow="visible" stroke-width="3.0001861599999997"/></g><g fill="none" stroke="#9b9c9f" stroke-linecap="round"><path d="M619.969 334.928c10.781-4.395 18.38-14.982 18.38-27.343 0-12.24-7.45-22.738-18.06-27.211m-22.7-.088c-10.724 4.422-18.272 14.979-18.272 27.299 0 12.28 7.499 22.808 18.167 27.255" style="marker:none" color="#000" stroke-width="2.9999925" stroke-linejoin="round" overflow="visible"/><g stroke-width="3"><path d="M620.06 346.575V334.78m0-54.318v-25.632M597.606 346.575V334.78m-.158-54.318v-25.632"/></g></g><g fill="none" stroke="#9b9c9f" stroke-linecap="round"><path style="marker:none" d="M619.969 414.987c10.781-4.395 18.38-14.982 18.38-27.343 0-12.24-7.45-22.738-18.06-27.211m-22.7-.088c-10.724 4.422-18.272 14.979-18.272 27.299 0 12.28 7.499 22.808 18.167 27.255" color="#000" stroke-width="2.9999925" stroke-linejoin="round" overflow="visible"/><g stroke-width="3"><path d="M620.06 456.634V414.84m0-54.318V334.89M597.606 456.634V414.84m0-54.318V334.89"/></g></g><path d="M388.84 457.054h81.777m29.311 0h97.362m23.367 0h88.864m-320.68 0V253.406M308.386 491.099h435.59m-435.59 0V253.406" fill="none" stroke="#9b9c9f" stroke-width="3" stroke-linecap="round"/></svg>