<svg xmlns:ns0="http://www.iki.fi/pav/software/textext/" xmlns="http://www.w3.org/2000/svg" xmlns:xlink="http://www.w3.org/1999/xlink" width="744.094" height="1052.362"><title>Kontinuitaetsbedingung (Bernoulli-Gleichung)</title><path style="marker:none" color="#000" fill="#fff" stroke="#fff" stroke-width="4.097" stroke-linecap="round" stroke-linejoin="bevel" overflow="visible" d="M45.649 353.769h652.797v344.825H45.649z"/><path d="M90.793 396.762l239.22.62c28.188.072 60.673 54.461 98.832 54.534l229.908.44.081 148.09h-229.99c-38.143 0-66.395 55.17-106.32 55.155l-231.661-.09z" fill="#afc6e9"/><g fill="none" stroke="#9b9c9f" stroke-width="3" stroke-linecap="round"><path d="M81.485 396.762h241.038c40.923 0 65.399 55.154 106.322 55.154h241.038M81.485 655.6h241.038c40.923 0 65.399-55.154 106.322-55.154h241.038"/></g><g transform="matrix(4.54271 0 0 4.54271 -620.19 -72.673)" ns0:preamble="/home/waldgeist/sandbox/homepage/inkscape-preamble.tex" ns0:text="$A_2$" fill="teal" stroke="#d40000"><defs><symbol id="a" overflow="visible"><path d="M1.781-1.14C1.391-.485 1-.345.563-.314c-.125.016-.22.016-.22.204 0 .062.063.109.141.109.266 0 .579-.031.844-.031.344 0 .688.031 1 .031.063 0 .188 0 .188-.188 0-.109-.079-.124-.157-.124-.218-.016-.468-.094-.468-.344 0-.125.062-.235.14-.375l.766-1.266h2.5c.016.203.156 1.563.156 1.656 0 .297-.516.329-.719.329-.14 0-.234 0-.234.203C4.5 0 4.61 0 4.64 0c.407 0 .829-.031 1.235-.031.25 0 .89.031 1.14.031.048 0 .173 0 .173-.203 0-.11-.094-.11-.235-.11-.61 0-.61-.062-.64-.359l-.61-6.219c-.016-.203-.016-.25-.187-.25-.157 0-.204.079-.266.172zm1.203-1.47l1.954-3.296.328 3.297z" stroke="none"/></symbol><symbol id="b" overflow="visible"><path d="M3.516-1.266H3.28c-.015.157-.094.563-.187.625-.047.047-.578.047-.688.047H1.125c.734-.64.984-.844 1.39-1.172.516-.406 1-.843 1-1.5 0-.843-.734-1.359-1.624-1.359-.86 0-1.454.61-1.454 1.25 0 .344.297.39.376.39.156 0 .359-.124.359-.374 0-.125-.047-.375-.406-.375.218-.485.687-.641 1.015-.641.703 0 1.063.547 1.063 1.11 0 .609-.438 1.078-.656 1.328L.516-.266C.437-.203.437-.187.437 0h2.876z" stroke="none"/></symbol></defs><use height="1052.362" width="744.094" y="134.765" x="223.432" xlink:href="#a"/><use height="1052.362" width="744.094" y="136.259" x="230.904" xlink:href="#b"/></g><g ns0:text="$A_1$" ns0:preamble="/home/waldgeist/sandbox/homepage/inkscape-preamble.tex" transform="matrix(4.54271 0 0 4.54271 -921.907 -72.673)" fill="teal" stroke="#d40000"><defs><symbol overflow="visible" id="c"><path d="M1.781-1.14C1.391-.485 1-.345.563-.314c-.125.016-.22.016-.22.204 0 .062.063.109.141.109.266 0 .579-.031.844-.031.344 0 .688.031 1 .031.063 0 .188 0 .188-.188 0-.109-.079-.124-.157-.124-.218-.016-.468-.094-.468-.344 0-.125.062-.235.14-.375l.766-1.266h2.5c.016.203.156 1.563.156 1.656 0 .297-.516.329-.719.329-.14 0-.234 0-.234.203C4.5 0 4.61 0 4.64 0c.407 0 .829-.031 1.235-.031.25 0 .89.031 1.14.031.048 0 .173 0 .173-.203 0-.11-.094-.11-.235-.11-.61 0-.61-.062-.64-.359l-.61-6.219c-.016-.203-.016-.25-.187-.25-.157 0-.204.079-.266.172zm1.203-1.47l1.954-3.296.328 3.297z" stroke="none"/></symbol><symbol overflow="visible" id="d"><path d="M2.328-4.438c0-.187 0-.187-.203-.187-.453.438-1.078.438-1.36.438v.25c.157 0 .626 0 1-.188v3.547c0 .234 0 .328-.687.328H.812V0c.125 0 .985-.031 1.235-.031.219 0 1.094.031 1.25.031v-.25H3.03c-.703 0-.703-.094-.703-.328z" stroke="none"/></symbol></defs><use height="1052.362" width="744.094" xlink:href="#c" x="223.432" y="134.765"/><use height="1052.362" width="744.094" xlink:href="#d" x="230.904" y="136.259"/></g><g fill="teal"><path style="text-indent:0;text-align:start;line-height:normal;text-transform:none;block-progression:tb;marker:none;-inkscape-font-specification:Sans" d="M148.183 643.446V417.047s3.663-15.842 3.693-15.816l3.692 15.816v226.4z" font-weight="400" color="#000" overflow="visible" font-family="Sans"/><path transform="matrix(.02523 0 0 .0258 169.726 599.722)" d="M-707.107 1620.068l-5.249-9.091-5.249-9.092h20.996l-5.249 9.091z" stroke="teal" stroke-width="557.121" stroke-linecap="square"/><path d="M-707.107 1620.068l-5.249-9.091-5.249-9.092h20.996l-5.249 9.091z" transform="matrix(.02523 0 0 -.0258 169.985 452.574)" stroke="teal" stroke-width="557.121" stroke-linecap="square"/></g><g fill="teal"><path d="M453.185 585.893V470.884s3.657-8.047 3.686-8.034l3.686 8.034v115.01z" style="text-indent:0;text-align:start;line-height:normal;text-transform:none;block-progression:tb;marker:none;-inkscape-font-specification:Sans" font-weight="400" color="#000" overflow="visible" font-family="Sans"/><path d="M-707.107 1620.068l-5.249-9.091-5.249-9.092h20.996l-5.249 9.091z" transform="matrix(.02523 0 0 .0258 474.721 545.208)" stroke="teal" stroke-width="557.121" stroke-linecap="square"/><path transform="matrix(.02523 0 0 -.0258 474.98 508.193)" d="M-707.107 1620.068l-5.249-9.091-5.249-9.092h20.996l-5.249 9.091z" stroke="teal" stroke-width="557.121" stroke-linecap="square"/></g><g ns0:text="$\\vec{v}_{\\rm{1}}$" ns0:preamble="/home/waldgeist/sandbox/homepage/inkscape-preamble.tex" transform="matrix(4.54271 0 0 4.54271 -773.698 -45.664)" fill="#00f" stroke="#00f"><defs><symbol overflow="visible" id="e"><path d="M5.36-5.938c-.141.141-.47.422-.47.594 0 .094.094.203.188.203s.14-.078.203-.14c.11-.14.344-.422.782-.64.062-.048.171-.095.171-.204 0-.11-.078-.156-.14-.203a1.034 1.034 0 0 1-.407-.563c-.03-.093-.062-.234-.203-.234-.14 0-.203.14-.203.219 0 .047.078.36.235.578h-3.36c-.156 0-.344 0-.344.203 0 .188.188.188.344.188z" stroke="none"/></symbol><symbol overflow="visible" id="f"><path d="M4.672-3.703c0-.547-.266-.703-.438-.703-.25 0-.5.265-.5.484 0 .125.047.188.157.297.218.203.343.453.343.813 0 .421-.609 2.703-1.765 2.703-.516 0-.75-.344-.75-.875 0-.547.281-1.282.578-2.11.078-.172.125-.312.125-.5 0-.437-.313-.812-.813-.812-.937 0-1.312 1.453-1.312 1.531 0 .11.094.11.11.11.109 0 .109-.032.156-.188.296-1 .718-1.235 1.015-1.235.078 0 .25 0 .25.313 0 .25-.11.531-.172.703-.437 1.156-.562 1.61-.562 2.047 0 1.078.875 1.234 1.328 1.234 1.672 0 2.25-3.296 2.25-3.812z" stroke="none"/></symbol><symbol overflow="visible" id="g"><path d="M2.328-4.438c0-.187 0-.187-.203-.187-.453.438-1.078.438-1.36.438v.25c.157 0 .626 0 1-.188v3.547c0 .234 0 .328-.687.328H.812V0c.125 0 .985-.031 1.235-.031.219 0 1.094.031 1.25.031v-.25H3.03c-.703 0-.703-.094-.703-.328z" stroke="none"/></symbol></defs><use height="1052.362" width="744.094" xlink:href="#e" x="223.045" y="134.765"/><use height="1052.362" width="744.094" xlink:href="#f" x="223.434" y="134.765"/><use height="1052.362" width="744.094" xlink:href="#g" x="228.261" y="136.259"/></g><g fill="#00f"><path d="M152.004 522.498h74.705s5.228 3.391 5.219 3.418l-5.219 3.418h-74.705z" style="text-indent:0;text-align:start;line-height:normal;text-transform:none;block-progression:tb;marker:none;-inkscape-font-specification:Sans" font-weight="400" color="#000" overflow="visible" font-family="Sans"/><path transform="matrix(0 .02523 .0258 0 191.585 544.025)" d="M-707.107 1620.068l-5.249-9.091-5.249-9.092h20.996l-5.249 9.091z" stroke="#00f" stroke-width="557.121" stroke-linecap="square"/></g><g fill="#00f"><path style="text-indent:0;text-align:start;line-height:normal;text-transform:none;block-progression:tb;marker:none;-inkscape-font-specification:Sans" d="M456.776 522.498H606.25s10.46 3.391 10.443 3.418l-10.443 3.418H456.776z" font-weight="400" color="#000" overflow="visible" font-family="Sans"/><path d="M-707.107 1620.068l-5.249-9.091-5.249-9.092h20.996l-5.249 9.091z" transform="matrix(0 .02523 .0258 0 568.35 544.025)" stroke="#00f" stroke-width="557.121" stroke-linecap="square"/></g><g transform="matrix(4.54271 0 0 4.54271 -397.443 -45.664)" ns0:preamble="/home/waldgeist/sandbox/homepage/inkscape-preamble.tex" ns0:text="$\\vec{v}_{\\rm{2}}$" fill="#00f" stroke="#00f"><defs><symbol id="h" overflow="visible"><path d="M5.36-5.938c-.141.141-.47.422-.47.594 0 .094.094.203.188.203s.14-.078.203-.14c.11-.14.344-.422.782-.64.062-.048.171-.095.171-.204 0-.11-.078-.156-.14-.203a1.034 1.034 0 0 1-.407-.563c-.03-.093-.062-.234-.203-.234-.14 0-.203.14-.203.219 0 .047.078.36.235.578h-3.36c-.156 0-.344 0-.344.203 0 .188.188.188.344.188z" stroke="none"/></symbol><symbol id="i" overflow="visible"><path d="M4.672-3.703c0-.547-.266-.703-.438-.703-.25 0-.5.265-.5.484 0 .125.047.188.157.297.218.203.343.453.343.813 0 .421-.609 2.703-1.765 2.703-.516 0-.75-.344-.75-.875 0-.547.281-1.282.578-2.11.078-.172.125-.312.125-.5 0-.437-.313-.812-.813-.812-.937 0-1.312 1.453-1.312 1.531 0 .11.094.11.11.11.109 0 .109-.032.156-.188.296-1 .718-1.235 1.015-1.235.078 0 .25 0 .25.313 0 .25-.11.531-.172.703-.437 1.156-.562 1.61-.562 2.047 0 1.078.875 1.234 1.328 1.234 1.672 0 2.25-3.296 2.25-3.812z" stroke="none"/></symbol><symbol id="j" overflow="visible"><path d="M3.516-1.266H3.28c-.015.157-.094.563-.187.625-.047.047-.578.047-.688.047H1.125c.734-.64.984-.844 1.39-1.172.516-.406 1-.843 1-1.5 0-.843-.734-1.359-1.624-1.359-.86 0-1.454.61-1.454 1.25 0 .344.297.39.376.39.156 0 .359-.124.359-.374 0-.125-.047-.375-.406-.375.218-.485.687-.641 1.015-.641.703 0 1.063.547 1.063 1.11 0 .609-.438 1.078-.656 1.328L.516-.266C.437-.203.437-.187.437 0h2.876z" stroke="none"/></symbol></defs><use y="134.765" x="223.045" xlink:href="#h" width="744.094" height="1052.362"/><use y="134.765" x="223.434" xlink:href="#i" width="744.094" height="1052.362"/><use y="136.259" x="228.261" xlink:href="#j" width="744.094" height="1052.362"/></g></svg>