<?xml version="1.0" encoding="UTF-8" standalone="no"?>
<!-- Created with Inkscape (http://www.inkscape.org/) -->

<svg
   xmlns:ns0="http://www.iki.fi/pav/software/textext/"
   xmlns:dc="http://purl.org/dc/elements/1.1/"
   xmlns:cc="http://creativecommons.org/ns#"
   xmlns:rdf="http://www.w3.org/1999/02/22-rdf-syntax-ns#"
   xmlns:svg="http://www.w3.org/2000/svg"
   xmlns="http://www.w3.org/2000/svg"
   xmlns:xlink="http://www.w3.org/1999/xlink"
   xmlns:sodipodi="http://sodipodi.sourceforge.net/DTD/sodipodi-0.dtd"
   xmlns:inkscape="http://www.inkscape.org/namespaces/inkscape"
   width="744.09448819"
   height="1052.3622047"
   id="svg2"
   version="1.1"
   inkscape:version="0.48.4 r9939"
   sodipodi:docname="kontinuitaetsbedingung-bernoulli2.svg">
  <title
     id="title5089">Kontinuitaetsbedingung (Bernoulli-Gleichung)</title>
  <sodipodi:namedview
     id="base"
     pagecolor="#ffffff"
     bordercolor="#666666"
     borderopacity="1.0"
     inkscape:pageopacity="0.0"
     inkscape:pageshadow="2"
     inkscape:zoom="0.63832725"
     inkscape:cx="657.02627"
     inkscape:cy="412.57346"
     inkscape:document-units="px"
     inkscape:current-layer="layer1"
     showgrid="false"
     inkscape:object-paths="true"
     inkscape:snap-smooth-nodes="true"
     inkscape:snap-midpoints="true"
     inkscape:snap-object-midpoints="true"
     inkscape:snap-page="true"
     inkscape:object-nodes="true"
     inkscape:window-width="1600"
     inkscape:window-height="1150"
     inkscape:window-x="0"
     inkscape:window-y="0"
     inkscape:window-maximized="1"
     inkscape:snap-global="true"
     showguides="true"
     inkscape:guide-bbox="true" />
  <defs
     id="defs4" />
  <metadata
     id="metadata7">
    <rdf:RDF>
      <cc:Work
         rdf:about="">
        <dc:format>image/svg+xml</dc:format>
        <dc:type
           rdf:resource="http://purl.org/dc/dcmitype/StillImage" />
        <dc:title>Kontinuitaetsbedingung (Bernoulli-Gleichung)</dc:title>
        <dc:date>2014-04-05</dc:date>
        <dc:creator>
          <cc:Agent>
            <dc:title>Bernhard Grotz</dc:title>
          </cc:Agent>
        </dc:creator>
        <dc:rights>
          <cc:Agent>
            <dc:title>Bernhard Grotz</dc:title>
          </cc:Agent>
        </dc:rights>
        <dc:publisher>
          <cc:Agent>
            <dc:title>Bernhard Grotz</dc:title>
          </cc:Agent>
        </dc:publisher>
        <dc:language>de-DE</dc:language>
        <dc:subject>
          <rdf:Bag>
            <rdf:li>Physik</rdf:li>
            <rdf:li>Mechanik der Fluessigkeiten und Gase</rdf:li>
            <rdf:li>Kontinuitaetsbedingung</rdf:li>
            <rdf:li>Bernoullische Gleichung</rdf:li>
            <rdf:li>Hydrostatisches Paradoxon</rdf:li>
          </rdf:Bag>
        </dc:subject>
        <cc:license
           rdf:resource="http://creativecommons.org/licenses/by-nc-sa/3.0/" />
      </cc:Work>
      <cc:License
         rdf:about="http://creativecommons.org/licenses/by-nc-sa/3.0/">
        <cc:permits
           rdf:resource="http://creativecommons.org/ns#Reproduction" />
        <cc:permits
           rdf:resource="http://creativecommons.org/ns#Distribution" />
        <cc:requires
           rdf:resource="http://creativecommons.org/ns#Notice" />
        <cc:requires
           rdf:resource="http://creativecommons.org/ns#Attribution" />
        <cc:prohibits
           rdf:resource="http://creativecommons.org/ns#CommercialUse" />
        <cc:permits
           rdf:resource="http://creativecommons.org/ns#DerivativeWorks" />
        <cc:requires
           rdf:resource="http://creativecommons.org/ns#ShareAlike" />
      </cc:License>
    </rdf:RDF>
  </metadata>
  <g
     inkscape:label="Layer 1"
     inkscape:groupmode="layer"
     id="layer1">
    <rect
       style="color:#000000;fill:#ffffff;fill-opacity:1;fill-rule:nonzero;stroke:#ffffff;stroke-width:4.09686899;stroke-linecap:round;stroke-linejoin:bevel;stroke-miterlimit:4;stroke-opacity:1;stroke-dasharray:none;stroke-dashoffset:0;marker:none;visibility:visible;display:inline;overflow:visible;enable-background:accumulate"
       id="rect5337"
       width="652.79669"
       height="344.82483"
       x="45.648895"
       y="353.76868"
       inkscape:export-filename="/home/waldgeist/data/homepage/pics/physik/mechanik/fluessigkeiten-und-gase/kontinuitaetsbedingung-bernoulli.png"
       inkscape:export-xdpi="150"
       inkscape:export-ydpi="150" />
    <path
       style="fill:#afc6e9;fill-opacity:1;stroke:none"
       d="m 81.156452,396.76109 239.219438,0.61958 c 28.18845,0.073 60.67332,54.462 98.83207,54.53506 l 247.90827,0.44017 0.0811,148.08945 -247.98935,0 c -38.14337,0 -66.39613,55.1701 -106.32146,55.15464 l -231.660814,-0.0897 z"
       id="path5131"
       inkscape:connector-curvature="0"
       sodipodi:nodetypes="cssccsscc"
       inkscape:export-filename="/home/waldgeist/data/homepage/pics/physik/mechanik/fluessigkeiten-und-gase/kontinuitaetsbedingung-bernoulli.png"
       inkscape:export-xdpi="150"
       inkscape:export-ydpi="150" />
    <g
       id="g5085"
       transform="translate(-5.9999993,-8.0005469)"
       inkscape:export-filename="/home/waldgeist/data/homepage/pics/physik/mechanik/fluessigkeiten-und-gase/kontinuitaetsbedingung-bernoulli.png"
       inkscape:export-xdpi="150"
       inkscape:export-ydpi="150">
      <path
         sodipodi:nodetypes="cssc"
         inkscape:connector-curvature="0"
         id="path3760"
         d="m 77.848691,404.76164 241.037829,0 c 40.92314,0 65.3983,55.15464 106.32144,55.15464 l 253.03783,0"
         style="fill:none;stroke:#9b9c9f;stroke-width:3;stroke-linecap:round;stroke-linejoin:miter;stroke-opacity:1" />
      <path
         style="fill:none;stroke:#9b9c9f;stroke-width:3;stroke-linecap:round;stroke-linejoin:miter;stroke-opacity:1"
         d="m 77.848691,663.60054 241.037829,0 c 40.92314,0 65.3983,-55.15464 106.32144,-55.15464 l 253.03783,0"
         id="path3781"
         inkscape:connector-curvature="0"
         sodipodi:nodetypes="cssc" />
    </g>
    <path
       transform="matrix(0.57383284,0,0,0.57383037,378.49181,224.24185)"
       d="m 158.22605,526.18109 a 38.370281,129.41945 0 1 1 -76.740565,0 38.370281,129.41945 0 1 1 76.740565,0 z"
       sodipodi:ry="129.41945"
       sodipodi:rx="38.370281"
       sodipodi:cy="526.18109"
       sodipodi:cx="119.85577"
       id="path3274"
       style="opacity:0.5;color:#000000;fill:#3771c8;fill-opacity:1;fill-rule:nonzero;stroke:#87aade;stroke-width:10.45602894;stroke-linecap:round;stroke-linejoin:round;stroke-miterlimit:4;stroke-opacity:1;stroke-dasharray:none;stroke-dashoffset:0;marker:none;visibility:visible;display:inline;overflow:visible;enable-background:accumulate"
       sodipodi:type="arc"
       inkscape:export-filename="/home/waldgeist/data/homepage/pics/physik/mechanik/fluessigkeiten-und-gase/kontinuitaetsbedingung-bernoulli.png"
       inkscape:export-xdpi="150"
       inkscape:export-ydpi="150" />
    <g
       inkscape:export-ydpi="150"
       inkscape:export-xdpi="150"
       inkscape:export-filename="/home/waldgeist/data/homepage/pics/physik/mechanik/fluessigkeiten-und-gase/kontinuitaetsbedingung-bernoulli.png"
       id="g11709"
       style="fill:#2c5aa0;fill-opacity:1;stroke:#d40000;stroke-width:1.54320979"
       transform="matrix(2.9436782,0,0,2.9436782,-227.49021,108.73519)"
       ns0:preamble="/home/waldgeist/sandbox/homepage/inkscape-preamble.tex"
       ns0:text="$A_2$">
      <defs
         id="defs11711">
        <g
           id="g11713">
          <symbol
             style="overflow:visible"
             id="textext-7678c844-0"
             overflow="visible">
            <path
               inkscape:connector-curvature="0"
               id="path11716"
               d=""
               style="stroke:none" />
          </symbol>
          <symbol
             style="overflow:visible"
             id="textext-7678c844-1"
             overflow="visible">
            <path
               inkscape:connector-curvature="0"
               id="path11719"
               d="M 1.78125,-1.140625 C 1.390625,-0.484375 1,-0.34375 0.5625,-0.3125 0.4375,-0.296875 0.34375,-0.296875 0.34375,-0.109375 0.34375,-0.046875 0.40625,0 0.484375,0 0.75,0 1.0625,-0.03125 1.328125,-0.03125 c 0.34375,0 0.6875,0.03125 1,0.03125 0.0625,0 0.1875,0 0.1875,-0.1875 0,-0.109375 -0.078125,-0.125 -0.15625,-0.125 -0.21875,-0.015625 -0.46875,-0.09375 -0.46875,-0.34375 0,-0.125 0.0625,-0.234375 0.140625,-0.375 l 0.765625,-1.265625 2.5,0 c 0.015625,0.203125 0.15625,1.5625 0.15625,1.65625 0,0.296875 -0.515625,0.328125 -0.71875,0.328125 C 4.59375,-0.3125 4.5,-0.3125 4.5,-0.109375 4.5,0 4.609375,0 4.640625,0 5.046875,0 5.46875,-0.03125 5.875,-0.03125 6.125,-0.03125 6.765625,0 7.015625,0 7.0625,0 7.1875,0 7.1875,-0.203125 7.1875,-0.3125 7.09375,-0.3125 6.953125,-0.3125 6.34375,-0.3125 6.34375,-0.375 6.3125,-0.671875 l -0.609375,-6.21875 c -0.015625,-0.203125 -0.015625,-0.25 -0.1875,-0.25 -0.15625,0 -0.203125,0.078125 -0.265625,0.171875 z M 2.984375,-2.609375 4.9375,-5.90625 5.265625,-2.609375 z"
               style="stroke:none" />
          </symbol>
          <symbol
             style="overflow:visible"
             id="textext-7678c844-2"
             overflow="visible">
            <path
               inkscape:connector-curvature="0"
               id="path11722"
               d=""
               style="stroke:none" />
          </symbol>
          <symbol
             style="overflow:visible"
             id="textext-7678c844-3"
             overflow="visible">
            <path
               inkscape:connector-curvature="0"
               id="path11725"
               d="m 3.515625,-1.265625 -0.234375,0 c -0.015625,0.15625 -0.09375,0.5625 -0.1875,0.625 -0.046875,0.046875 -0.578125,0.046875 -0.6875,0.046875 l -1.28125,0 c 0.734375,-0.640625 0.984375,-0.84375 1.390625,-1.171875 0.515625,-0.40625 1,-0.84375 1,-1.5 0,-0.84375 -0.734375,-1.359375 -1.625,-1.359375 -0.859375,0 -1.453125,0.609375 -1.453125,1.25 0,0.34375 0.296875,0.390625 0.375,0.390625 0.15625,0 0.359375,-0.125 0.359375,-0.375 0,-0.125 -0.046875,-0.375 -0.40625,-0.375 C 0.984375,-4.21875 1.453125,-4.375 1.78125,-4.375 c 0.703125,0 1.0625,0.546875 1.0625,1.109375 0,0.609375 -0.4375,1.078125 -0.65625,1.328125 L 0.515625,-0.265625 C 0.4375,-0.203125 0.4375,-0.1875 0.4375,0 l 2.875,0 z"
               style="stroke:none" />
          </symbol>
        </g>
      </defs>
      <g
         style="fill:#2c5aa0;fill-opacity:1;stroke-width:1.54320979"
         id="textext-7678c844-4">
        <g
           id="g11728"
           style="fill:#2c5aa0;fill-opacity:1;stroke-width:1.54320979">
          <use
             height="1052.3622"
             width="744.09448"
             style="fill:#2c5aa0;fill-opacity:1;stroke-width:1.54320979"
             id="use11730"
             y="134.765"
             x="223.43201"
             xlink:href="#textext-7678c844-1" />
        </g>
        <g
           id="g11732"
           style="fill:#2c5aa0;fill-opacity:1;stroke-width:1.54320979">
          <use
             height="1052.3622"
             width="744.09448"
             style="fill:#2c5aa0;fill-opacity:1;stroke-width:1.54320979"
             id="use11734"
             y="136.259"
             x="230.90401"
             xlink:href="#textext-7678c844-3" />
        </g>
      </g>
    </g>
    <path
       sodipodi:type="arc"
       style="opacity:0.5;color:#000000;fill:#3771c8;fill-opacity:1;fill-rule:nonzero;stroke:#87aade;stroke-width:6.00001287;stroke-linecap:round;stroke-linejoin:round;stroke-miterlimit:4;stroke-opacity:1;stroke-dasharray:none;stroke-dashoffset:0;marker:none;visibility:visible;display:inline;overflow:visible;enable-background:accumulate"
       id="path3253"
       sodipodi:cx="119.85577"
       sodipodi:cy="526.18109"
       sodipodi:rx="38.370281"
       sodipodi:ry="129.41945"
       d="m 158.22605,526.18109 a 38.370281,129.41945 0 1 1 -76.740565,0 38.370281,129.41945 0 1 1 76.740565,0 z"
       transform="matrix(1,0,0,0.9999957,23.300686,0.00226258)"
       inkscape:export-filename="/home/waldgeist/data/homepage/pics/physik/mechanik/fluessigkeiten-und-gase/kontinuitaetsbedingung-bernoulli.png"
       inkscape:export-xdpi="150"
       inkscape:export-ydpi="150" />
    <g
       inkscape:export-ydpi="150"
       inkscape:export-xdpi="150"
       inkscape:export-filename="/home/waldgeist/data/homepage/pics/physik/mechanik/fluessigkeiten-und-gase/kontinuitaetsbedingung-bernoulli.png"
       ns0:text="$A_1$"
       ns0:preamble="/home/waldgeist/sandbox/homepage/inkscape-preamble.tex"
       transform="matrix(2.9436782,0,0,2.9436782,-527.3832,108.73519)"
       style="fill:#2c5aa0;stroke:#2c5aa0;stroke-width:1.54320979"
       id="g12306">
      <defs
         id="defs12308">
        <g
           id="g12310">
          <symbol
             style="overflow:visible"
             overflow="visible"
             id="textext-2311a809-0">
            <path
               inkscape:connector-curvature="0"
               style="stroke:none"
               d=""
               id="path12313" />
          </symbol>
          <symbol
             style="overflow:visible"
             overflow="visible"
             id="textext-2311a809-1">
            <path
               inkscape:connector-curvature="0"
               style="stroke:none"
               d="M 1.78125,-1.140625 C 1.390625,-0.484375 1,-0.34375 0.5625,-0.3125 0.4375,-0.296875 0.34375,-0.296875 0.34375,-0.109375 0.34375,-0.046875 0.40625,0 0.484375,0 0.75,0 1.0625,-0.03125 1.328125,-0.03125 c 0.34375,0 0.6875,0.03125 1,0.03125 0.0625,0 0.1875,0 0.1875,-0.1875 0,-0.109375 -0.078125,-0.125 -0.15625,-0.125 -0.21875,-0.015625 -0.46875,-0.09375 -0.46875,-0.34375 0,-0.125 0.0625,-0.234375 0.140625,-0.375 l 0.765625,-1.265625 2.5,0 c 0.015625,0.203125 0.15625,1.5625 0.15625,1.65625 0,0.296875 -0.515625,0.328125 -0.71875,0.328125 C 4.59375,-0.3125 4.5,-0.3125 4.5,-0.109375 4.5,0 4.609375,0 4.640625,0 5.046875,0 5.46875,-0.03125 5.875,-0.03125 6.125,-0.03125 6.765625,0 7.015625,0 7.0625,0 7.1875,0 7.1875,-0.203125 7.1875,-0.3125 7.09375,-0.3125 6.953125,-0.3125 6.34375,-0.3125 6.34375,-0.375 6.3125,-0.671875 l -0.609375,-6.21875 c -0.015625,-0.203125 -0.015625,-0.25 -0.1875,-0.25 -0.15625,0 -0.203125,0.078125 -0.265625,0.171875 z M 2.984375,-2.609375 4.9375,-5.90625 5.265625,-2.609375 z"
               id="path12316" />
          </symbol>
          <symbol
             style="overflow:visible"
             overflow="visible"
             id="textext-2311a809-2">
            <path
               inkscape:connector-curvature="0"
               style="stroke:none"
               d=""
               id="path12319" />
          </symbol>
          <symbol
             style="overflow:visible"
             overflow="visible"
             id="textext-2311a809-3">
            <path
               inkscape:connector-curvature="0"
               style="stroke:none"
               d="m 2.328125,-4.4375 c 0,-0.1875 0,-0.1875 -0.203125,-0.1875 -0.453125,0.4375 -1.078125,0.4375 -1.359375,0.4375 l 0,0.25 c 0.15625,0 0.625,0 1,-0.1875 l 0,3.546875 c 0,0.234375 0,0.328125 -0.6875,0.328125 l -0.265625,0 0,0.25 c 0.125,0 0.984375,-0.03125 1.234375,-0.03125 0.21875,0 1.09375,0.03125 1.25,0.03125 l 0,-0.25 -0.265625,0 c -0.703125,0 -0.703125,-0.09375 -0.703125,-0.328125 z"
               id="path12322" />
          </symbol>
        </g>
      </defs>
      <g
         style="fill:#2c5aa0;stroke:#2c5aa0;stroke-width:1.54320979"
         id="textext-2311a809-4">
        <g
           style="fill:#2c5aa0;fill-opacity:1;stroke:#2c5aa0;stroke-width:1.54320979"
           id="g12325">
          <use
             height="1052.3622"
             width="744.09448"
             style="fill:#2c5aa0;stroke:#2c5aa0;stroke-width:1.54320979"
             xlink:href="#textext-2311a809-1"
             x="223.43201"
             y="134.765"
             id="use12327" />
        </g>
        <g
           style="fill:#2c5aa0;fill-opacity:1;stroke:#2c5aa0;stroke-width:1.54320979"
           id="g12329">
          <use
             height="1052.3622"
             width="744.09448"
             style="fill:#2c5aa0;stroke:#2c5aa0;stroke-width:1.54320979"
             xlink:href="#textext-2311a809-3"
             x="230.90401"
             y="136.259"
             id="use12331" />
        </g>
      </g>
    </g>
    <g
       ns0:text="$\\vec{v}_{\\rm{1}}$"
       ns0:preamble="/home/waldgeist/sandbox/homepage/inkscape-preamble.tex"
       transform="matrix(4.5427131,0,0,4.5427131,-763.33471,-73.664175)"
       style="fill:#0000ff;stroke:#0000ff"
       id="g4681"
       inkscape:export-filename="/home/waldgeist/data/homepage/pics/physik/mechanik/fluessigkeiten-und-gase/kontinuitaetsbedingung-bernoulli.png"
       inkscape:export-xdpi="150"
       inkscape:export-ydpi="150">
      <defs
         id="defs4683">
        <g
           id="g4685">
          <symbol
             style="overflow:visible"
             overflow="visible"
             id="textext-9f1b3a5e-0">
            <path
               inkscape:connector-curvature="0"
               style="stroke:none"
               d=""
               id="path4688" />
          </symbol>
          <symbol
             style="overflow:visible"
             overflow="visible"
             id="textext-9f1b3a5e-1">
            <path
               inkscape:connector-curvature="0"
               style="stroke:none"
               d="m 5.359375,-5.9375 c -0.140625,0.140625 -0.46875,0.421875 -0.46875,0.59375 0,0.09375 0.09375,0.203125 0.1875,0.203125 0.09375,0 0.140625,-0.078125 0.203125,-0.140625 C 5.390625,-5.421875 5.625,-5.703125 6.0625,-5.921875 6.125,-5.96875 6.234375,-6.015625 6.234375,-6.125 6.234375,-6.234375 6.15625,-6.28125 6.09375,-6.328125 5.875,-6.484375 5.765625,-6.65625 5.6875,-6.890625 5.65625,-6.984375 5.625,-7.125 5.484375,-7.125 c -0.140625,0 -0.203125,0.140625 -0.203125,0.21875 0,0.046875 0.078125,0.359375 0.234375,0.578125 l -3.359375,0 c -0.15625,0 -0.34375,0 -0.34375,0.203125 0,0.1875 0.1875,0.1875 0.34375,0.1875 z"
               id="path4691" />
          </symbol>
          <symbol
             style="overflow:visible"
             overflow="visible"
             id="textext-9f1b3a5e-2">
            <path
               inkscape:connector-curvature="0"
               style="stroke:none"
               d="m 4.671875,-3.703125 c 0,-0.546875 -0.265625,-0.703125 -0.4375,-0.703125 -0.25,0 -0.5,0.265625 -0.5,0.484375 0,0.125 0.046875,0.1875 0.15625,0.296875 0.21875,0.203125 0.34375,0.453125 0.34375,0.8125 0,0.421875 -0.609375,2.703125 -1.765625,2.703125 -0.515625,0 -0.75,-0.34375 -0.75,-0.875 0,-0.546875 0.28125,-1.28125 0.578125,-2.109375 0.078125,-0.171875 0.125,-0.3125 0.125,-0.5 0,-0.4375 -0.3125,-0.8125 -0.8125,-0.8125 -0.9375,0 -1.3125,1.453125 -1.3125,1.53125 0,0.109375 0.09375,0.109375 0.109375,0.109375 0.109375,0 0.109375,-0.03125 0.15625,-0.1875 0.296875,-1 0.71875,-1.234375 1.015625,-1.234375 0.078125,0 0.25,0 0.25,0.3125 0,0.25 -0.109375,0.53125 -0.171875,0.703125 -0.4375,1.15625 -0.5625,1.609375 -0.5625,2.046875 0,1.078125 0.875,1.234375 1.328125,1.234375 1.671875,0 2.25,-3.296875 2.25,-3.8125 z"
               id="path4694" />
          </symbol>
          <symbol
             style="overflow:visible"
             overflow="visible"
             id="textext-9f1b3a5e-3">
            <path
               inkscape:connector-curvature="0"
               style="stroke:none"
               d=""
               id="path4697" />
          </symbol>
          <symbol
             style="overflow:visible"
             overflow="visible"
             id="textext-9f1b3a5e-4">
            <path
               inkscape:connector-curvature="0"
               style="stroke:none"
               d="m 2.328125,-4.4375 c 0,-0.1875 0,-0.1875 -0.203125,-0.1875 -0.453125,0.4375 -1.078125,0.4375 -1.359375,0.4375 l 0,0.25 c 0.15625,0 0.625,0 1,-0.1875 l 0,3.546875 c 0,0.234375 0,0.328125 -0.6875,0.328125 l -0.265625,0 0,0.25 c 0.125,0 0.984375,-0.03125 1.234375,-0.03125 0.21875,0 1.09375,0.03125 1.25,0.03125 l 0,-0.25 -0.265625,0 c -0.703125,0 -0.703125,-0.09375 -0.703125,-0.328125 z"
               id="path4700" />
          </symbol>
        </g>
      </defs>
      <g
         style="fill:#0000ff;stroke:#0000ff"
         id="textext-9f1b3a5e-5">
        <g
           style="fill:#0000ff;fill-opacity:1;stroke:#0000ff"
           id="g4703">
          <use
             style="fill:#0000ff;stroke:#0000ff"
             height="1052.3622"
             width="744.09448"
             xlink:href="#textext-9f1b3a5e-1"
             x="223.045"
             y="134.765"
             id="use4705" />
        </g>
        <g
           style="fill:#0000ff;fill-opacity:1;stroke:#0000ff"
           id="g4707">
          <use
             style="fill:#0000ff;stroke:#0000ff"
             height="1052.3622"
             width="744.09448"
             xlink:href="#textext-9f1b3a5e-2"
             x="223.43355"
             y="134.765"
             id="use4709" />
        </g>
        <g
           style="fill:#0000ff;fill-opacity:1;stroke:#0000ff"
           id="g4711">
          <use
             style="fill:#0000ff;stroke:#0000ff"
             height="1052.3622"
             width="744.09448"
             xlink:href="#textext-9f1b3a5e-4"
             x="228.261"
             y="136.259"
             id="use4713" />
        </g>
      </g>
    </g>
    <g
       style="fill:#0000ff;fill-opacity:1"
       id="g4823"
       transform="matrix(0.7606135,0,0,-0.7606135,232.65597,821.64858)"
       inkscape:export-filename="/home/waldgeist/data/homepage/pics/physik/mechanik/fluessigkeiten-und-gase/kontinuitaetsbedingung-bernoulli.png"
       inkscape:export-xdpi="150"
       inkscape:export-ydpi="150">
      <path
         sodipodi:nodetypes="cccccc"
         inkscape:connector-curvature="0"
         id="path4825"
         d="m -110.81629,393.30145 c 32.738747,0 65.477469,0 98.216205,0 0,0 6.8727817,-4.45823 6.8613827,-4.49375 l -6.8613827,-4.49376 c -32.738736,0 -65.477458,0 -98.216205,0 z"
         style="font-size:medium;font-style:normal;font-variant:normal;font-weight:normal;font-stretch:normal;text-indent:0;text-align:start;text-decoration:none;line-height:normal;letter-spacing:normal;word-spacing:normal;text-transform:none;direction:ltr;block-progression:tb;writing-mode:lr-tb;text-anchor:start;baseline-shift:baseline;color:#000000;fill:#0000ff;fill-opacity:1;fill-rule:nonzero;stroke:none;stroke-width:14.77722263;marker:none;visibility:visible;display:inline;overflow:visible;enable-background:accumulate;font-family:Sans;-inkscape-font-specification:Sans" />
      <path
         inkscape:transform-center-x="-0.19698793"
         transform="matrix(1.0940086e-6,-0.03317571,0.03393204,1.0696241e-6,-58.778438,364.99895)"
         d="m -707.10675,1620.0679 -5.24891,-9.0914 -5.2489,-9.0914 10.49781,0 10.49781,0 -5.2489,9.0914 z"
         inkscape:randomized="0"
         inkscape:rounded="0"
         inkscape:flatsided="false"
         sodipodi:arg2="2.6179939"
         sodipodi:arg1="1.5707963"
         sodipodi:r2="6.060915"
         sodipodi:r1="12.121831"
         sodipodi:cy="1607.946"
         sodipodi:cx="-707.10675"
         sodipodi:sides="3"
         id="path4829"
         style="fill:#0000ff;fill-opacity:1;stroke:#0000ff;stroke-width:557.12084961;stroke-linecap:square;stroke-miterlimit:4;stroke-opacity:1;stroke-dasharray:none"
         sodipodi:type="star" />
    </g>
    <g
       inkscape:export-ydpi="150"
       inkscape:export-xdpi="150"
       inkscape:export-filename="/home/waldgeist/data/homepage/pics/physik/mechanik/fluessigkeiten-und-gase/kontinuitaetsbedingung-bernoulli.png"
       transform="matrix(0.7606135,0,0,-0.7606135,577.4218,821.64803)"
       id="g4831"
       style="fill:#0000ff;fill-opacity:1">
      <path
         style="font-size:medium;font-style:normal;font-variant:normal;font-weight:normal;font-stretch:normal;text-indent:0;text-align:start;text-decoration:none;line-height:normal;letter-spacing:normal;word-spacing:normal;text-transform:none;direction:ltr;block-progression:tb;writing-mode:lr-tb;text-anchor:start;baseline-shift:baseline;color:#000000;fill:#0000ff;fill-opacity:1;fill-rule:nonzero;stroke:none;stroke-width:14.77722263;marker:none;visibility:visible;display:inline;overflow:visible;enable-background:accumulate;font-family:Sans;-inkscape-font-specification:Sans"
         d="m -171.28659,393.30145 c 65.50659,0 131.013161,0 196.519759,0 0,0 13.751678,-4.45823 13.72887,-4.49375 l -13.72887,-4.49376 c -65.506598,0 -131.013169,0 -196.519759,0 z"
         id="path4833"
         inkscape:connector-curvature="0"
         sodipodi:nodetypes="cccccc" />
      <path
         sodipodi:type="star"
         style="fill:#0000ff;fill-opacity:1;stroke:#0000ff;stroke-width:557.12084961;stroke-linecap:square;stroke-miterlimit:4;stroke-opacity:1;stroke-dasharray:none"
         id="path4835"
         sodipodi:sides="3"
         sodipodi:cx="-707.10675"
         sodipodi:cy="1607.946"
         sodipodi:r1="12.121831"
         sodipodi:r2="6.060915"
         sodipodi:arg1="1.5707963"
         sodipodi:arg2="2.6179939"
         inkscape:flatsided="false"
         inkscape:rounded="0"
         inkscape:randomized="0"
         d="m -707.10675,1620.0679 -5.24891,-9.0914 -5.2489,-9.0914 10.49781,0 10.49781,0 -5.2489,9.0914 z"
         transform="matrix(1.0940086e-6,-0.03317571,0.03393204,1.0696241e-6,-24.59551,364.99895)"
         inkscape:transform-center-x="-0.19698793" />
    </g>
    <g
       id="g4952"
       style="fill:#0000ff;stroke:#0000ff"
       transform="matrix(4.5427131,0,0,4.5427131,-397.07936,-73.664175)"
       ns0:preamble="/home/waldgeist/sandbox/homepage/inkscape-preamble.tex"
       ns0:text="$\\vec{v}_{\\rm{2}}$"
       inkscape:export-filename="/home/waldgeist/data/homepage/pics/physik/mechanik/fluessigkeiten-und-gase/kontinuitaetsbedingung-bernoulli.png"
       inkscape:export-xdpi="150"
       inkscape:export-ydpi="150">
      <defs
         id="defs4954">
        <g
           id="g4956">
          <symbol
             id="textext-9994ab3e-0"
             overflow="visible"
             style="overflow:visible">
            <path
               id="path4959"
               d=""
               style="stroke:none"
               inkscape:connector-curvature="0" />
          </symbol>
          <symbol
             id="textext-9994ab3e-1"
             overflow="visible"
             style="overflow:visible">
            <path
               id="path4962"
               d="m 5.359375,-5.9375 c -0.140625,0.140625 -0.46875,0.421875 -0.46875,0.59375 0,0.09375 0.09375,0.203125 0.1875,0.203125 0.09375,0 0.140625,-0.078125 0.203125,-0.140625 C 5.390625,-5.421875 5.625,-5.703125 6.0625,-5.921875 6.125,-5.96875 6.234375,-6.015625 6.234375,-6.125 6.234375,-6.234375 6.15625,-6.28125 6.09375,-6.328125 5.875,-6.484375 5.765625,-6.65625 5.6875,-6.890625 5.65625,-6.984375 5.625,-7.125 5.484375,-7.125 c -0.140625,0 -0.203125,0.140625 -0.203125,0.21875 0,0.046875 0.078125,0.359375 0.234375,0.578125 l -3.359375,0 c -0.15625,0 -0.34375,0 -0.34375,0.203125 0,0.1875 0.1875,0.1875 0.34375,0.1875 z"
               style="stroke:none"
               inkscape:connector-curvature="0" />
          </symbol>
          <symbol
             id="textext-9994ab3e-2"
             overflow="visible"
             style="overflow:visible">
            <path
               id="path4965"
               d="m 4.671875,-3.703125 c 0,-0.546875 -0.265625,-0.703125 -0.4375,-0.703125 -0.25,0 -0.5,0.265625 -0.5,0.484375 0,0.125 0.046875,0.1875 0.15625,0.296875 0.21875,0.203125 0.34375,0.453125 0.34375,0.8125 0,0.421875 -0.609375,2.703125 -1.765625,2.703125 -0.515625,0 -0.75,-0.34375 -0.75,-0.875 0,-0.546875 0.28125,-1.28125 0.578125,-2.109375 0.078125,-0.171875 0.125,-0.3125 0.125,-0.5 0,-0.4375 -0.3125,-0.8125 -0.8125,-0.8125 -0.9375,0 -1.3125,1.453125 -1.3125,1.53125 0,0.109375 0.09375,0.109375 0.109375,0.109375 0.109375,0 0.109375,-0.03125 0.15625,-0.1875 0.296875,-1 0.71875,-1.234375 1.015625,-1.234375 0.078125,0 0.25,0 0.25,0.3125 0,0.25 -0.109375,0.53125 -0.171875,0.703125 -0.4375,1.15625 -0.5625,1.609375 -0.5625,2.046875 0,1.078125 0.875,1.234375 1.328125,1.234375 1.671875,0 2.25,-3.296875 2.25,-3.8125 z"
               style="stroke:none"
               inkscape:connector-curvature="0" />
          </symbol>
          <symbol
             id="textext-9994ab3e-3"
             overflow="visible"
             style="overflow:visible">
            <path
               id="path4968"
               d=""
               style="stroke:none"
               inkscape:connector-curvature="0" />
          </symbol>
          <symbol
             id="textext-9994ab3e-4"
             overflow="visible"
             style="overflow:visible">
            <path
               id="path4971"
               d="m 3.515625,-1.265625 -0.234375,0 c -0.015625,0.15625 -0.09375,0.5625 -0.1875,0.625 -0.046875,0.046875 -0.578125,0.046875 -0.6875,0.046875 l -1.28125,0 c 0.734375,-0.640625 0.984375,-0.84375 1.390625,-1.171875 0.515625,-0.40625 1,-0.84375 1,-1.5 0,-0.84375 -0.734375,-1.359375 -1.625,-1.359375 -0.859375,0 -1.453125,0.609375 -1.453125,1.25 0,0.34375 0.296875,0.390625 0.375,0.390625 0.15625,0 0.359375,-0.125 0.359375,-0.375 0,-0.125 -0.046875,-0.375 -0.40625,-0.375 C 0.984375,-4.21875 1.453125,-4.375 1.78125,-4.375 c 0.703125,0 1.0625,0.546875 1.0625,1.109375 0,0.609375 -0.4375,1.078125 -0.65625,1.328125 L 0.515625,-0.265625 C 0.4375,-0.203125 0.4375,-0.1875 0.4375,0 l 2.875,0 z"
               style="stroke:none"
               inkscape:connector-curvature="0" />
          </symbol>
        </g>
      </defs>
      <g
         id="textext-9994ab3e-5"
         style="fill:#0000ff;stroke:#0000ff">
        <g
           id="g4974"
           style="fill:#0000ff;fill-opacity:1;stroke:#0000ff">
          <use
             id="use4976"
             y="134.765"
             x="223.045"
             xlink:href="#textext-9994ab3e-1"
             style="fill:#0000ff;stroke:#0000ff"
             width="744.09448"
             height="1052.3622" />
        </g>
        <g
           id="g4978"
           style="fill:#0000ff;fill-opacity:1;stroke:#0000ff">
          <use
             id="use4980"
             y="134.765"
             x="223.43355"
             xlink:href="#textext-9994ab3e-2"
             style="fill:#0000ff;stroke:#0000ff"
             width="744.09448"
             height="1052.3622" />
        </g>
        <g
           id="g4982"
           style="fill:#0000ff;fill-opacity:1;stroke:#0000ff">
          <use
             id="use4984"
             y="136.259"
             x="228.261"
             xlink:href="#textext-9994ab3e-4"
             style="fill:#0000ff;stroke:#0000ff"
             width="744.09448"
             height="1052.3622" />
        </g>
      </g>
    </g>
  </g>
</svg>
