<svg xmlns:ns0="http://www.iki.fi/pav/software/textext/" xmlns="http://www.w3.org/2000/svg" xmlns:xlink="http://www.w3.org/1999/xlink" width="210mm" height="297mm"><title>Prinzip eines Kugelfall-Viskosimeters</title><defs><marker orient="auto" id="i" overflow="visible"><path d="M8.719 4.034L-2.207.016 8.719-4.002c-1.746 2.372-1.736 5.618 0 8.036z" transform="scale(-.6)" fill-rule="evenodd" stroke-width=".625" stroke-linejoin="round"/></marker><linearGradient id="d"><stop offset="0" stop-opacity="0"/><stop offset="1" stop-color="#fff"/></linearGradient><linearGradient id="e"><stop offset="0" stop-color="#fff"/><stop offset="1" stop-color="#fff" stop-opacity="0"/></linearGradient><linearGradient id="f"><stop offset="0" stop-color="#1a1a1a" stop-opacity=".828"/><stop offset="1" stop-color="#fff"/></linearGradient><linearGradient id="a"><stop offset="0" stop-opacity="0"/><stop offset="1" stop-color="#fff"/></linearGradient><linearGradient id="b"><stop offset="0" stop-color="#ebebeb"/><stop offset="1" stop-color="#fff" stop-opacity="0"/></linearGradient><linearGradient id="c"><stop offset="0" stop-color="#0e0e0e" stop-opacity=".746"/><stop offset="1" stop-color="#fff"/></linearGradient><pattern id="g" height="5.181" width="30.066" patternUnits="userSpaceOnUse"><path d="M7.597.061C5.079-.187 2.656.302-.01 1.788v1.273c2.783-1.63 5.183-2.009 7.482-1.781 2.298.228 4.497 1.081 6.781 1.938 4.567 1.713 9.551 3.458 15.813-.157l-.004-1.273c-6.44 3.709-10.816 1.982-15.371.273-2.278-.854-4.576-1.75-7.094-2z"/></pattern><pattern xlink:href="#g" id="h" patternTransform="translate(.25)"/></defs><path style="marker:none" color="#000" fill="#fff" stroke="#fff" stroke-width="3.399" stroke-linecap="round" stroke-linejoin="bevel" overflow="visible" d="M91.023 264.403h562.048V787.96H91.023z"/><path style="marker:none" color="#000" fill="#afc6e9" stroke="#87aade" stroke-width="3" stroke-linecap="round" stroke-linejoin="bevel" overflow="visible" d="M200.926 371.123h342.243v377.07H200.926z"/><path d="M200.866 748.308V303.166M543.228 749.196V304.054M200.926 748.194l342.243.942" fill="none" stroke="#9b9c9f" stroke-width="3" stroke-linecap="round"/><path d="M402.283 544.046a29.775 29.775 0 1 1-59.55 0 29.775 29.775 0 1 1 59.55 0z" style="marker:none" color="#000" fill="gray" stroke="#4d4d4d" stroke-width="1.49965124" stroke-linecap="round" stroke-linejoin="round" overflow="visible"/><path d="M372.508 514.27v-76.128M372.508 573.82v76.13M372.508 514.27v-31.588" style="marker:none" color="#000" fill="none" stroke="#d40000" stroke-width="3" stroke-linecap="round" stroke-linejoin="round" marker-end="url(#i)" overflow="visible"/><g ns0:preamble="/home/waldgeist/data/homepage/inkscape-preamble.tex" ns0:text="$\\vec{F}_{\\mathrm{G}}$" transform="matrix(3 0 0 3 30.846 398.807)" stroke="#d40000" fill="#d40000"><defs><symbol id="j" overflow="visible"><path d="M5.36-5.938c-.141.141-.47.422-.47.594 0 .094.094.203.188.203s.14-.078.203-.14c.11-.14.344-.422.782-.64.062-.048.171-.095.171-.204 0-.11-.078-.156-.14-.203a1.034 1.034 0 0 1-.407-.563c-.03-.093-.062-.234-.203-.234-.14 0-.203.14-.203.219 0 .047.078.36.235.578h-3.36c-.156 0-.344 0-.344.203 0 .188.188.188.344.188zm0 0" stroke="none"/></symbol><symbol id="k" overflow="visible"><path d="M3.016-3.234h.968c.75 0 .829.156.829.437 0 .078 0 .188-.063.5-.031.047-.031.078-.031.11 0 .078.062.109.11.109.109 0 .109-.031.155-.203l.547-2.172c.032-.11.032-.125.032-.156a.117.117 0 0 0-.125-.11c-.094 0-.11.047-.141.219-.219.766-.438.953-1.297.953h-.906l.64-2.531c.094-.36.11-.39.547-.39h1.313c1.218 0 1.453.327 1.453 1.093 0 .234 0 .266-.031.547C7-4.703 7-4.688 7-4.656c0 .047.031.125.125.125.11 0 .11-.063.125-.25l.203-1.735c.031-.265-.016-.265-.266-.265h-4.89c-.188 0-.297 0-.297.203 0 .11.094.11.281.11.375 0 .656 0 .656.171 0 .047 0 .063-.062.25L1.562-.78c-.093.39-.109.469-.906.469-.172 0-.281 0-.281.187C.375 0 .5 0 .531 0c.281 0 1.031-.031 1.313-.031C2.172-.031 3 0 3.328 0c.094 0 .203 0 .203-.188 0-.078-.047-.109-.047-.109-.03-.016-.062-.016-.28-.016-.22 0-.267 0-.517-.015-.296-.031-.328-.078-.328-.203 0-.016 0-.078.047-.219zm0 0" stroke="none"/></symbol><symbol id="l" overflow="visible"><path d="M5.188-1.36c0-.312.078-.312.546-.312v-.25c-.062 0-.562.031-.906.031-.375 0-.89 0-1.266-.03v.25h.266c.703 0 .703.093.703.312v.453c0 .156 0 .422-.406.625-.328.172-.719.172-.813.172-.796 0-2.078-.454-2.078-2.282 0-1.843 1.329-2.25 2.016-2.25.672 0 1.516.454 1.688 1.657.015.078.078.078.125.078.125 0 .125-.047.125-.188v-1.625c0-.125 0-.187-.094-.187-.032 0-.063 0-.125.093l-.36.532a1.994 1.994 0 0 0-1.453-.625C1.703-4.906.484-3.781.484-2.391.484-1 1.672.141 3.172.141c.39 0 1.156-.078 1.484-.563.125.188.375.422.453.422.079 0 .079-.078.079-.188zm0 0" stroke="none"/></symbol></defs><use y="80.885" x="120.27" xlink:href="#j" width="744.094" height="1052.362"/><use y="83.403" x="118.801" xlink:href="#k" width="744.094" height="1052.362"/><use y="84.898" x="125.208" xlink:href="#l" width="744.094" height="1052.362"/></g><g ns0:text="$\\vec{F}_{\\mathrm{A}}$" ns0:preamble="/home/waldgeist/data/homepage/inkscape-preamble.tex" transform="matrix(3 0 0 3 30.846 257.429)" fill="#d40000" stroke="#d40000"><defs><symbol overflow="visible" id="m"><path d="M5.36-5.938c-.141.141-.47.422-.47.594 0 .094.094.203.188.203s.14-.078.203-.14c.11-.14.344-.422.782-.64.062-.048.171-.095.171-.204 0-.11-.078-.156-.14-.203a1.034 1.034 0 0 1-.407-.563c-.03-.093-.062-.234-.203-.234-.14 0-.203.14-.203.219 0 .047.078.36.235.578h-3.36c-.156 0-.344 0-.344.203 0 .188.188.188.344.188zm0 0" stroke="none"/></symbol><symbol overflow="visible" id="n"><path d="M3.016-3.234h.968c.75 0 .829.156.829.437 0 .078 0 .188-.063.5-.031.047-.031.078-.031.11 0 .078.062.109.11.109.109 0 .109-.031.155-.203l.547-2.172c.032-.11.032-.125.032-.156a.117.117 0 0 0-.125-.11c-.094 0-.11.047-.141.219-.219.766-.438.953-1.297.953h-.906l.64-2.531c.094-.36.11-.39.547-.39h1.313c1.218 0 1.453.327 1.453 1.093 0 .234 0 .266-.031.547C7-4.703 7-4.688 7-4.656c0 .047.031.125.125.125.11 0 .11-.063.125-.25l.203-1.735c.031-.265-.016-.265-.266-.265h-4.89c-.188 0-.297 0-.297.203 0 .11.094.11.281.11.375 0 .656 0 .656.171 0 .047 0 .063-.062.25L1.562-.78c-.093.39-.109.469-.906.469-.172 0-.281 0-.281.187C.375 0 .5 0 .531 0c.281 0 1.031-.031 1.313-.031C2.172-.031 3 0 3.328 0c.094 0 .203 0 .203-.188 0-.078-.047-.109-.047-.109-.03-.016-.062-.016-.28-.016-.22 0-.267 0-.517-.015-.296-.031-.328-.078-.328-.203 0-.016 0-.078.047-.219zm0 0" stroke="none"/></symbol><symbol overflow="visible" id="o"><path d="M3.125-4.813c-.031-.109-.063-.156-.188-.156-.14 0-.156.047-.203.157L1.125-.734C1.062-.563.937-.25.312-.25V0c.235-.016.485-.031.72-.031.28 0 .796.031.843.031v-.25c-.313 0-.516-.14-.516-.328 0-.063.016-.078.047-.14l.328-.86H3.72l.406 1.016c0 .03.031.078.031.109 0 .203-.375.203-.562.203V0c.344-.016.797-.031 1.031-.031.328 0 .86.031.922.031v-.25h-.125c-.469 0-.516-.078-.594-.266zm-.406.72l.89 2.265H1.83zm0 0" stroke="none"/></symbol></defs><use xlink:href="#m" x="120.27" y="80.885"/><use xlink:href="#n" x="118.801" y="83.403"/><use xlink:href="#o" x="125.208" y="84.898"/></g><g transform="matrix(3 0 0 3 30.846 212.888)" ns0:preamble="/home/waldgeist/data/homepage/inkscape-preamble.tex" ns0:text="$\\vec{F}_{\\mathrm{R}}$" fill="#d40000" stroke="#d40000"><defs><symbol id="p" overflow="visible"><path d="M5.36-5.938c-.141.141-.47.422-.47.594 0 .094.094.203.188.203s.14-.078.203-.14c.11-.14.344-.422.782-.64.062-.048.171-.095.171-.204 0-.11-.078-.156-.14-.203a1.034 1.034 0 0 1-.407-.563c-.03-.093-.062-.234-.203-.234-.14 0-.203.14-.203.219 0 .047.078.36.235.578h-3.36c-.156 0-.344 0-.344.203 0 .188.188.188.344.188zm0 0" stroke="none"/></symbol><symbol id="q" overflow="visible"><path d="M3.016-3.234h.968c.75 0 .829.156.829.437 0 .078 0 .188-.063.5-.031.047-.031.078-.031.11 0 .078.062.109.11.109.109 0 .109-.031.155-.203l.547-2.172c.032-.11.032-.125.032-.156a.117.117 0 0 0-.125-.11c-.094 0-.11.047-.141.219-.219.766-.438.953-1.297.953h-.906l.64-2.531c.094-.36.11-.39.547-.39h1.313c1.218 0 1.453.327 1.453 1.093 0 .234 0 .266-.031.547C7-4.703 7-4.688 7-4.656c0 .047.031.125.125.125.11 0 .11-.063.125-.25l.203-1.735c.031-.265-.016-.265-.266-.265h-4.89c-.188 0-.297 0-.297.203 0 .11.094.11.281.11.375 0 .656 0 .656.171 0 .047 0 .063-.062.25L1.562-.78c-.093.39-.109.469-.906.469-.172 0-.281 0-.281.187C.375 0 .5 0 .531 0c.281 0 1.031-.031 1.313-.031C2.172-.031 3 0 3.328 0c.094 0 .203 0 .203-.188 0-.078-.047-.109-.047-.109-.03-.016-.062-.016-.28-.016-.22 0-.267 0-.517-.015-.296-.031-.328-.078-.328-.203 0-.016 0-.078.047-.219zm0 0" stroke="none"/></symbol><symbol id="r" overflow="visible"><path d="M3.5-2.375c.625-.14 1.25-.563 1.25-1.125 0-.688-.922-1.266-2-1.266H.406v.25h.172c.531 0 .547.079.547.329v3.625c0 .234-.016.312-.547.312H.406V0s.75-.031 1.031-.031c.297 0 .688.015 1.032.031v-.25h-.156c-.547 0-.563-.078-.563-.313V-2.28h.938c.124 0 .484 0 .796.281.235.219.235.39.235.86 0 .452 0 .734.328 1 .297.25.703.28.906.28.594 0 .734-.562.734-.78 0-.047 0-.126-.109-.126-.11 0-.11.063-.125.125-.031.407-.266.579-.484.579-.39 0-.453-.407-.532-1.032-.078-.562-.093-.672-.296-.906-.079-.078-.266-.266-.641-.375zm-.844-.11H1.75v-1.75c0-.202.016-.25.188-.265.062-.016.296-.016.453-.016.656 0 1.609 0 1.609 1.016 0 .781-.594 1.016-1.344 1.016zm0 0" stroke="none"/></symbol></defs><use y="80.885" x="120.27" xlink:href="#p" width="744.094" height="1052.362"/><use y="83.403" x="118.801" xlink:href="#q" width="744.094" height="1052.362"/><use y="84.898" x="125.208" xlink:href="#r" width="744.094" height="1052.362"/></g></svg>