<svg xmlns:ns0="http://www.iki.fi/pav/software/textext/" xmlns="http://www.w3.org/2000/svg" xmlns:xlink="http://www.w3.org/1999/xlink" width="210mm" height="297mm"><title>Groesse des Luftdrucks</title><defs><linearGradient id="d"><stop offset="0" stop-opacity="0"/><stop offset="1" stop-color="#fff"/></linearGradient><linearGradient id="e"><stop offset="0" stop-color="#fff"/><stop offset="1" stop-color="#fff" stop-opacity="0"/></linearGradient><linearGradient id="f"><stop offset="0" stop-color="#1a1a1a" stop-opacity=".828"/><stop offset="1" stop-color="#fff"/></linearGradient><linearGradient id="a"><stop offset="0" stop-opacity="0"/><stop offset="1" stop-color="#fff"/></linearGradient><linearGradient id="b"><stop offset="0" stop-color="#ebebeb"/><stop offset="1" stop-color="#fff" stop-opacity="0"/></linearGradient><linearGradient id="c"><stop offset="0" stop-color="#0e0e0e" stop-opacity=".746"/><stop offset="1" stop-color="#fff"/></linearGradient><pattern patternUnits="userSpaceOnUse" width="30.066" height="5.181" id="g"><path d="M7.597.061C5.079-.187 2.656.302-.01 1.788v1.273c2.783-1.63 5.183-2.009 7.482-1.781 2.298.228 4.497 1.081 6.781 1.938 4.567 1.713 9.551 3.458 15.813-.157l-.004-1.273c-6.44 3.709-10.816 1.982-15.371.273-2.278-.854-4.576-1.75-7.094-2z"/></pattern><pattern patternTransform="translate(.25)" id="h" xlink:href="#g"/><linearGradient id="l"><stop offset="0" stop-color="#0e0e0e" stop-opacity=".746"/><stop offset="1" stop-color="#fff"/></linearGradient><linearGradient id="k"><stop offset="0" stop-color="#ebebeb"/><stop offset="1" stop-color="#fff" stop-opacity="0"/></linearGradient><linearGradient id="j"><stop offset="0" stop-color="#fff"/><stop offset="1" stop-color="#fff" stop-opacity="0"/></linearGradient><linearGradient id="i"><stop offset="0" stop-color="#fff" stop-opacity="0"/><stop offset="1"/></linearGradient><filter color-interpolation-filters="sRGB" id="p" x="-.6" width="2.2" y="-.6" height="2.2"><feGaussianBlur stdDeviation="5.714"/></filter><linearGradient id="n"><stop offset="0" stop-color="#1a1a1a" stop-opacity=".828"/><stop offset="1" stop-color="#fff"/></linearGradient><linearGradient id="o"><stop offset="0" stop-color="#fff"/><stop offset="1" stop-color="#fff" stop-opacity="0"/></linearGradient><linearGradient id="m"><stop offset="0" stop-opacity="0"/><stop offset="1" stop-color="#fff"/></linearGradient></defs><path style="marker:none" color="#000" fill="#fff" stroke="#fff" stroke-width="3.529" stroke-linecap="round" stroke-linejoin="bevel" overflow="visible" enable-background="accumulate" d="M91.029 192.7h562.048v678.828H91.029z"/><path d="M413.732 836.487l23.89-41.867v-24.383l-23.89 18.444z" fill="#d38d5f"/><path d="M413.732 811.615h-107.25l23.89-41.378h107.25z" fill="#d38d5f"/><path style="marker:none" color="#000" fill="#d38d5f" stroke="#a05a2c" stroke-width="1.5" stroke-linecap="round" stroke-linejoin="bevel" overflow="visible" enable-background="accumulate" d="M306.482 836.487v-24.872h107.25v24.872z"/><g fill="#d40000"><path d="M379.96 571.408v169.217s-7.842 11.841-7.905 11.821l-7.905-11.821V571.408z" style="text-indent:0;text-align:start;line-height:normal;text-transform:none;block-progression:tb;marker:none;-inkscape-font-specification:Sans" font-weight="400" color="#000" overflow="visible" enable-background="accumulate" font-family="Sans"/><path transform="matrix(-.5459 .00002 .00002 .55835 -13.99 -163.078)" d="M-707.107 1620.068l-5.249-9.091-5.249-9.092h20.996l-5.249 9.091z" stroke="#d40000" stroke-width="28.972" stroke-linecap="square"/></g><path d="M277.237 318.476v306.843c0 15.614 42.417 28.266 94.78 28.266 52.365 0 94.852-12.652 94.852-28.266V318.476H277.237z" fill="#b3b3b3" stroke="#333" stroke-width="1.50075" stroke-linecap="round" stroke-linejoin="round"/><path transform="matrix(.96916 0 0 .96916 53.944 51.656)" d="M301.429 350.934c0 6.311-5.117 11.428-11.429 11.428s-11.429-5.117-11.429-11.428c0-6.312 5.117-11.429 11.429-11.429s11.429 5.117 11.429 11.429z" opacity=".8" fill="#fff" filter="url(#p)"/><path style="marker:none" d="M432.75 387.845c0 6.94-19.338 12.565-43.192 12.565-23.855 0-43.192-5.626-43.192-12.565 0-6.939 19.337-12.564 43.192-12.564 23.854 0 43.191 5.625 43.191 12.564z" transform="matrix(2.19517 0 0 2.25 -483.115 -554.156)" color="#000" fill="#b3b3b3" stroke="#333" stroke-width=".667" stroke-linecap="round" stroke-linejoin="round" overflow="visible" enable-background="accumulate"/><g fill="none" stroke="#333" stroke-linecap="round"><path d="M372.053 276.964c-16.473 0-29.826-13.353-29.826-29.826s13.353-29.827 29.826-29.827 29.827 13.354 29.827 29.827" stroke-width="4.37373776" stroke-linejoin="round"/><path d="M372.053 276.964v41.512" stroke-width="4.374"/></g><path d="M306.482 811.615l23.89-41.378M413.732 811.615l23.89-41.378M413.732 836.487l23.89-41.378M330.372 770.237h107.25M437.622 770.237v24.383" fill="none" stroke="#a05a2c" stroke-width="1.5" stroke-linecap="round"/><g transform="matrix(5.67596 0 0 5.67596 -946.154 -259.055)" ns0:text="$\\unit[1]{kg}$" ns0:preamble="/home/waldgeist/data/sphinx/inkscape-preamble.tex"><defs><symbol overflow="visible" id="q"><path d="M2.938-6.375c0-.25 0-.266-.235-.266C2.078-6 1.203-6 .891-6v.313c.203 0 .78 0 1.296-.266v5.172c0 .36-.03.469-.921.469H.953V0c.344-.031 1.203-.031 1.61-.031.39 0 1.265 0 1.609.031v-.313h-.313c-.906 0-.921-.109-.921-.468z"/></symbol><symbol overflow="visible" id="r"><path d="M1.063-.75c0 .438-.11.438-.782.438V0c.328-.016.797-.031 1.078-.031.313 0 .704.015 1.11.031v-.313c-.672 0-.781 0-.781-.437v-1.031l.64-.547c.766 1.047 1.188 1.61 1.188 1.797 0 .187-.172.219-.36.219V0c.266-.016.86-.031 1.078-.031.282 0 .579.015.86.031v-.313c-.375 0-.594 0-.969-.53L2.859-2.626c-.015-.016-.062-.078-.062-.11 0-.03.719-.64.812-.718.625-.5 1.047-.531 1.25-.531v-.313c-.28.031-.406.031-.687.031-.36 0-.984-.015-1.125-.03v.312c.187 0 .297.109.297.25 0 .203-.14.312-.219.39L1.719-2.14v-4.78L.28-6.813v.312c.703 0 .781.063.781.563z"/></symbol><symbol overflow="visible" id="s"><path d="M2.219-1.719c-.875 0-.875-1-.875-1.218 0-.266.015-.594.156-.844.078-.11.313-.39.719-.39.86 0 .86.984.86 1.218 0 .265 0 .594-.157.844-.078.109-.313.39-.703.39zm-1.156.39c0-.03 0-.265.156-.468.39.281.812.313 1 .313.922 0 1.61-.688 1.61-1.454 0-.374-.157-.734-.407-.968.36-.344.719-.39.89-.39.032 0 .079 0 .11.015-.11.031-.172.14-.172.265 0 .172.14.282.297.282a.28.28 0 0 0 .281-.297c0-.172-.11-.485-.5-.485-.203 0-.64.063-1.062.47a1.652 1.652 0 0 0-1.047-.36c-.938 0-1.625.687-1.625 1.453 0 .437.219.812.469 1.031-.125.14-.313.469-.313.828 0 .313.14.688.453.89-.61.157-.922.595-.922.985 0 .719.985 1.266 2.203 1.266 1.172 0 2.204-.5 2.204-1.281 0-.344-.125-.86-.641-1.141-.531-.266-1.11-.266-1.719-.266-.25 0-.672 0-.75-.015-.312-.047-.516-.344-.516-.672zM2.5 1.829C1.484 1.828.797 1.312.797.781c0-.453.375-.828.812-.844h.594c.86 0 1.969 0 1.969.844 0 .547-.703 1.047-1.672 1.047z"/></symbol></defs><use xlink:href="#q" x="223.432" y="134.765" width="744.094" height="1052.362"/><use xlink:href="#r" x="230.077" y="134.765" width="744.094" height="1052.362"/><use xlink:href="#s" x="235.335" y="134.765" width="744.094" height="1052.362"/></g><g transform="matrix(3 0 0 3 -333.912 398.828)" ns0:preamble="/home/waldgeist/data/sphinx/inkscape-preamble.tex" ns0:text="$\\unit[1]{cm^2}$"><defs><symbol id="t" overflow="visible"><path d="M2.938-6.375c0-.25 0-.266-.235-.266C2.078-6 1.203-6 .891-6v.313c.203 0 .78 0 1.296-.266v5.172c0 .36-.03.469-.921.469H.953V0c.344-.031 1.203-.031 1.61-.031.39 0 1.265 0 1.609.031v-.313h-.313c-.906 0-.921-.109-.921-.468z"/></symbol><symbol id="u" overflow="visible"><path d="M1.172-2.172c0-1.625.812-2.047 1.344-2.047.093 0 .718.016 1.062.375-.406.031-.469.328-.469.453 0 .266.188.454.454.454.265 0 .468-.157.468-.47 0-.671-.765-1.062-1.531-1.062C1.25-4.469.344-3.39.344-2.156c0 1.281.984 2.265 2.14 2.265 1.329 0 1.657-1.203 1.657-1.296 0-.094-.11-.094-.141-.094-.078 0-.11.031-.125.093C3.594-.265 2.937-.14 2.578-.14c-.531 0-1.406-.421-1.406-2.03z"/></symbol><symbol id="v" overflow="visible"><path d="M1.094-3.422V-.75c0 .438-.11.438-.782.438V0c.36-.016.86-.031 1.141-.031.25 0 .766.015 1.11.031v-.313c-.672 0-.782 0-.782-.437v-1.844c0-1.031.719-1.594 1.344-1.594.64 0 .75.532.75 1.11V-.75c0 .438-.11.438-.781.438V0c.344-.016.86-.031 1.125-.031.25 0 .781.015 1.11.031v-.313c-.657 0-.766 0-.766-.437v-1.844c0-1.031.703-1.594 1.343-1.594.625 0 .735.532.735 1.11V-.75c0 .438-.11.438-.782.438V0c.344-.016.86-.031 1.125-.031.266 0 .782.015 1.125.031v-.313c-.515 0-.765 0-.78-.296v-1.907c0-.859 0-1.156-.313-1.515-.141-.172-.47-.375-1.047-.375-.828 0-1.282.593-1.438.984-.14-.875-.875-.984-1.328-.984-.734 0-1.203.422-1.484 1.047v-1.047l-1.407.11v.312c.704 0 .782.062.782.562z"/></symbol><symbol id="w" overflow="visible"><path d="M3.516-1.266H3.28c-.015.157-.094.563-.187.625-.047.047-.578.047-.688.047H1.125c.734-.64.984-.844 1.39-1.172.516-.406 1-.843 1-1.5 0-.843-.734-1.359-1.624-1.359-.86 0-1.454.61-1.454 1.25 0 .344.297.39.376.39.156 0 .359-.124.359-.374 0-.125-.047-.375-.406-.375.218-.485.687-.641 1.015-.641.703 0 1.063.547 1.063 1.11 0 .609-.438 1.078-.656 1.328L.516-.266C.437-.203.437-.187.437 0h2.876z"/></symbol></defs><use y="134.765" x="223.432" xlink:href="#t" width="744.094" height="1052.362"/><use y="134.765" x="230.077" xlink:href="#u" width="744.094" height="1052.362"/><use y="134.765" x="234.504" xlink:href="#v" width="744.094" height="1052.362"/><g><use y="131.149" x="242.804" xlink:href="#w" width="744.094" height="1052.362"/></g></g></svg>