<svg xmlns:ns0="http://www.iki.fi/pav/software/textext/" xmlns="http://www.w3.org/2000/svg" xmlns:xlink="http://www.w3.org/1999/xlink" width="793.701" height="1122.52"><title>Oberflaechenspannung -- Experimentelle Bestimmung</title><defs><marker orient="auto" id="k" overflow="visible"><path d="M4 0l2-2-7 2 7 2-2-2z" fill-rule="evenodd" stroke="#000" stroke-width=".4pt"/></marker><marker orient="auto" id="l" overflow="visible"><path d="M-4 0l-2 2 7-2-7-2 2 2z" fill-rule="evenodd" stroke="#000" stroke-width=".4pt"/></marker><marker orient="auto" id="r" overflow="visible"><path d="M-5.231-2.42L1.324-.01-5.23 2.401c1.047-1.423 1.041-3.37 0-4.821z" fill-rule="evenodd" stroke-width=".375" stroke-linejoin="round" stroke="#d40000" fill="#d40000"/></marker><pattern patternTransform="translate(.25)" id="b" xlink:href="#a"/><pattern patternUnits="userSpaceOnUse" width="30.066" height="5.181" id="a"><path d="M7.597.061C5.079-.187 2.656.302-.01 1.788v1.273c2.783-1.63 5.183-2.009 7.482-1.781 2.298.228 4.497 1.081 6.781 1.938 4.567 1.713 9.551 3.458 15.813-.157l-.004-1.273c-6.44 3.709-10.816 1.982-15.371.273-2.278-.854-4.576-1.75-7.094-2z"/></pattern><linearGradient id="c"><stop offset="0" stop-color="#0e0e0e" stop-opacity=".746"/><stop offset="1" stop-color="#fff"/></linearGradient><linearGradient id="d"><stop offset="0" stop-color="#ebebeb"/><stop offset="1" stop-color="#fff" stop-opacity="0"/></linearGradient><linearGradient id="e"><stop offset="0" stop-opacity="0"/><stop offset="1" stop-color="#fff"/></linearGradient><linearGradient id="f"><stop offset="0" stop-color="#1a1a1a" stop-opacity=".828"/><stop offset="1" stop-color="#fff"/></linearGradient><linearGradient id="g"><stop offset="0" stop-color="#fff"/><stop offset="1" stop-color="#fff" stop-opacity="0"/></linearGradient><linearGradient id="h"><stop offset="0" stop-opacity="0"/><stop offset="1" stop-color="#fff"/></linearGradient><symbol id="m" overflow="visible"><path d="M4.406-6.953c-.062-.14-.093-.188-.265-.188-.157 0-.188.047-.25.188L.516-.203c-.047.094-.047.11-.047.125C.469 0 .53 0 .688 0h6.921c.157 0 .22 0 .22-.078 0-.016 0-.031-.048-.125zm-.578.812L6.516-.75H1.14zm0 0"/></symbol><symbol id="n" overflow="visible"><path d="M2.86-6.813s0-.109-.126-.109c-.234 0-.953.078-1.218.11-.079 0-.188.015-.188.187 0 .125.094.125.234.125.485 0 .5.063.5.172l-.03.203L.593-.391C.547-.25.547-.234.547-.17c0 .234.203.28.297.28a.407.407 0 0 0 .36-.265l.187-.75.218-.89c.063-.235.125-.454.172-.673.016-.062.11-.39.11-.453.03-.094.343-.64.687-.922.219-.156.516-.344.953-.344.422 0 .531.344.531.704 0 .53-.375 1.625-.609 2.234-.078.219-.14.344-.14.547 0 .469.359.812.828.812.937 0 1.296-1.453 1.296-1.53 0-.11-.078-.11-.109-.11-.11 0-.11.031-.156.187-.14.532-.469 1.235-1.016 1.235-.172 0-.234-.094-.234-.329 0-.25.078-.484.172-.703.156-.437.61-1.625.61-2.203 0-.64-.391-1.062-1.141-1.062-.626 0-1.11.312-1.485.765zm0 0"/></symbol><marker orient="auto" id="o" overflow="visible"><path d="M4 0l2-2-7 2 7 2z" fill-rule="evenodd" stroke="#000" stroke-width=".5332"/></marker><marker orient="auto" id="p" overflow="visible"><path d="M-4 0l-2 2 7-2-7-2z" fill-rule="evenodd" stroke="#000" stroke-width=".5332"/></marker></defs><path style="marker:none" color="#000" overflow="visible" fill="#fff" stroke="#fff" stroke-width="3.625" stroke-linecap="round" stroke-linejoin="bevel" d="M39.825 293.612h714.051v535.295H39.825z"/><path style="marker:none" color="#000" overflow="visible" fill="#afc6e9" stroke="#87aade" stroke-width="3.2" stroke-linecap="round" stroke-linejoin="bevel" d="M131.104 541.365H662.69v266.758H131.104z"/><rect style="marker:none" width="247.119" height="92.225" x="273.338" y="449.929" ry="0" color="#000" overflow="visible" fill="#afc6e9" stroke="#87aade" stroke-width="3.2" stroke-linecap="round" stroke-linejoin="bevel" stroke-dasharray="3.19999995,9.59999992"/><path d="M131.104 808.123V510.536M662.69 808.123V509.549" fill="none" stroke="#9b9c9f" stroke-width="4.14" stroke-linecap="round"/><path d="M131.104 808.123l527.033 1.005" fill="none" stroke="#9b9c9f" stroke-width="4.267" stroke-linecap="round"/><g ns0:preamble="/home/waldgeist/data/sphinx/inkscape-preamble.tex" ns0:text="$\\vec{F}$" transform="matrix(3.06814 0 0 3.06814 -298.68 -71.174)" fill="#d40000" stroke-width="1.451"><defs><symbol id="i" overflow="visible"><path d="M5.717-6.333c-.15.15-.5.45-.5.633 0 .1.1.217.2.217s.15-.084.216-.15c.117-.15.367-.45.834-.684.066-.05.183-.1.183-.216 0-.117-.083-.167-.15-.217a1.103 1.103 0 0 1-.433-.6C6.033-7.45 6-7.6 5.85-7.6s-.217.15-.217.233c0 .05.084.384.25.617H2.3c-.167 0-.367 0-.367.217 0 .2.2.2.367.2zm0 0" stroke-width="1.067"/></symbol><symbol id="j" overflow="visible"><path d="M3.217-3.45H4.25c.8 0 .883.167.883.467 0 .083 0 .2-.066.533-.034.05-.034.083-.034.117 0 .083.067.116.117.116.117 0 .117-.033.167-.216L5.9-4.75c.033-.117.033-.133.033-.167a.125.125 0 0 0-.133-.116c-.1 0-.117.05-.15.233-.233.817-.467 1.017-1.383 1.017H3.3l.683-2.7c.1-.384.117-.417.584-.417h1.4c1.3 0 1.55.35 1.55 1.167 0 .25 0 .283-.034.583-.016.133-.016.15-.016.183 0 .05.033.134.133.134.117 0 .117-.067.133-.267l.217-1.85c.033-.283-.017-.283-.283-.283H2.45c-.2 0-.317 0-.317.216 0 .117.1.117.3.117.4 0 .7 0 .7.183 0 .05 0 .067-.066.267l-1.4 5.617c-.1.416-.117.5-.967.5-.183 0-.3 0-.3.2C.4 0 .533 0 .567 0c.3 0 1.1-.033 1.4-.033C2.317-.033 3.2 0 3.55 0c.1 0 .217 0 .217-.2 0-.083-.05-.117-.05-.117-.034-.016-.067-.016-.3-.016-.234 0-.284 0-.55-.017-.317-.033-.35-.083-.35-.217 0-.016 0-.083.05-.233zm0 0" stroke-width="1.067"/></symbol></defs><use y="132.246" x="224.901" xlink:href="#i" width="744.094" height="1052.362"/><use y="134.765" x="223.432" xlink:href="#j" width="744.094" height="1052.362"/></g><path style="isolation:auto;mix-blend-mode:normal" d="M270.97 364.85v276.832h251.855V364.849M270.97 447.56h251.855" color="#000" overflow="visible" fill="none" stroke="#4d4d4d" stroke-width="4" stroke-linecap="round" stroke-linejoin="round"/><circle r="5.156" cy="447.56" cx="522.825" style="marker:none" color="#000" overflow="visible" fill="#999" stroke="#4d4d4d" stroke-width="3.2" stroke-linecap="round" stroke-linejoin="round"/><path style="isolation:auto;mix-blend-mode:normal" d="M245.904 447.56h-36.453M248.97 541.365h-39.52" color="#000" overflow="visible" fill="none" stroke="#1a1a1a" stroke-width="2" stroke-linecap="round" stroke-linejoin="round"/><path style="isolation:auto;mix-blend-mode:normal" d="M225.244 453.073v82.78" color="#000" overflow="visible" fill="none" stroke="#000" stroke-width="2" stroke-linecap="round" stroke-linejoin="round" marker-start="url(#k)" marker-end="url(#l)"/><path opacity=".75" fill="#fff" stroke="#fff" stroke-width="2" stroke-linecap="round" stroke-linejoin="round" d="M217.797 481.064h46.895v26.797h-46.895z"/><use y="83.403" x="118.801" xlink:href="#m" width="100%" height="100%" transform="matrix(3 0 0 3 -152.471 254.8)"/><use y="83.403" x="127.103" xlink:href="#n" width="100%" height="100%" transform="matrix(3 0 0 3 -152.471 254.8)"/><path style="isolation:auto;mix-blend-mode:normal" d="M277.756 688.142h238.282" color="#000" overflow="visible" fill="none" stroke="#000" stroke-width="2" stroke-linecap="round" stroke-linejoin="round" marker-start="url(#o)" marker-end="url(#p)"/><path opacity=".75" fill="#fff" stroke="#fff" stroke-width="2" stroke-linecap="round" stroke-linejoin="round" d="M373.45 674.744h46.895v26.797H373.45z"/><path style="isolation:auto;mix-blend-mode:normal" d="M270.97 669.916v36.453M522.825 669.916v36.453" color="#000" overflow="visible" fill="none" stroke="#1a1a1a" stroke-width="2" stroke-linecap="round" stroke-linejoin="round"/><g ns0:preamble="/home/waldgeist/data/homepage/inkscape-preamble.tex" ns0:text="$b$" transform="matrix(3 0 0 3 33.58 447.94)"><defs><symbol id="q" overflow="visible"><path d="M2.375-6.813s0-.109-.125-.109c-.219 0-.953.078-1.219.11-.078 0-.187.015-.187.187 0 .125.094.125.25.125.468 0 .484.063.484.172 0 .062-.078.406-.125.61l-.828 3.25c-.11.5-.156.671-.156 1.015C.469-.516 1 .109 1.734.109c1.172 0 2.407-1.484 2.407-2.921 0-.907-.532-1.594-1.329-1.594-.453 0-.874.297-1.171.593zm-.922 3.766c.047-.219.047-.234.14-.344.485-.64.938-.796 1.204-.796.36 0 .625.296.625.937 0 .594-.328 1.734-.516 2.11-.328.671-.781 1.03-1.172 1.03-.343 0-.671-.265-.671-1 0-.202 0-.39.156-1.015zm0 0"/></symbol></defs><use y="83.403" x="118.801" xlink:href="#q" width="100%" height="100%"/></g><circle style="marker:none" cx="270.969" cy="447.56" r="5.156" color="#000" overflow="visible" fill="#999" stroke="#4d4d4d" stroke-width="3.2" stroke-linecap="round" stroke-linejoin="round"/><path style="isolation:auto;mix-blend-mode:normal" d="M396.897 447.56v-88.425" color="#000" overflow="visible" fill="none" stroke="#d40000" stroke-width="4" stroke-linecap="round" stroke-linejoin="round" marker-end="url(#r)"/></svg>