<svg xmlns:ns0="http://www.iki.fi/pav/software/textext/" xmlns="http://www.w3.org/2000/svg" xmlns:xlink="http://www.w3.org/1999/xlink" width="793.701" height="1122.52"><title>Oberflaechenspannung -- Experimentelle Bestimmung</title><defs><marker orient="auto" id="l" overflow="visible"><path d="M4 0l2-2-7 2 7 2-2-2z" fill-rule="evenodd" stroke="#000" stroke-width=".4pt"/></marker><marker orient="auto" id="m" overflow="visible"><path d="M-4 0l-2 2 7-2-7-2 2 2z" fill-rule="evenodd" stroke="#000" stroke-width=".4pt"/></marker><marker orient="auto" id="W" overflow="visible"><path d="M-5.231-2.42L1.324-.01-5.23 2.401c1.047-1.423 1.041-3.37 0-4.821z" fill-rule="evenodd" stroke-width=".375" stroke-linejoin="round" stroke="#d40000" fill="#d40000"/></marker><pattern patternTransform="translate(.25)" id="b" xlink:href="#a"/><pattern patternUnits="userSpaceOnUse" width="30.066" height="5.181" id="a"><path d="M7.597.061C5.079-.187 2.656.302-.01 1.788v1.273c2.783-1.63 5.183-2.009 7.482-1.781 2.298.228 4.497 1.081 6.781 1.938 4.567 1.713 9.551 3.458 15.813-.157l-.004-1.273c-6.44 3.709-10.816 1.982-15.371.273-2.278-.854-4.576-1.75-7.094-2z"/></pattern><linearGradient id="c"><stop offset="0" stop-color="#0e0e0e" stop-opacity=".746"/><stop offset="1" stop-color="#fff"/></linearGradient><linearGradient id="d"><stop offset="0" stop-color="#ebebeb"/><stop offset="1" stop-color="#fff" stop-opacity="0"/></linearGradient><linearGradient id="e"><stop offset="0" stop-opacity="0"/><stop offset="1" stop-color="#fff"/></linearGradient><linearGradient id="f"><stop offset="0" stop-color="#1a1a1a" stop-opacity=".828"/><stop offset="1" stop-color="#fff"/></linearGradient><linearGradient id="g"><stop offset="0" stop-color="#fff"/><stop offset="1" stop-color="#fff" stop-opacity="0"/></linearGradient><linearGradient id="h"><stop offset="0" stop-opacity="0"/><stop offset="1" stop-color="#fff"/></linearGradient><symbol id="n" overflow="visible"><path d="M4.406-6.953c-.062-.14-.093-.188-.265-.188-.157 0-.188.047-.25.188L.516-.203c-.047.094-.047.11-.047.125C.469 0 .53 0 .688 0h6.921c.157 0 .22 0 .22-.078 0-.016 0-.031-.048-.125zm-.578.812L6.516-.75H1.14zm0 0"/></symbol><symbol id="o" overflow="visible"><path d="M2.86-6.813s0-.109-.126-.109c-.234 0-.953.078-1.218.11-.079 0-.188.015-.188.187 0 .125.094.125.234.125.485 0 .5.063.5.172l-.03.203L.593-.391C.547-.25.547-.234.547-.17c0 .234.203.28.297.28a.407.407 0 0 0 .36-.265l.187-.75.218-.89c.063-.235.125-.454.172-.673.016-.062.11-.39.11-.453.03-.094.343-.64.687-.922.219-.156.516-.344.953-.344.422 0 .531.344.531.704 0 .53-.375 1.625-.609 2.234-.078.219-.14.344-.14.547 0 .469.359.812.828.812.937 0 1.296-1.453 1.296-1.53 0-.11-.078-.11-.109-.11-.11 0-.11.031-.156.187-.14.532-.469 1.235-1.016 1.235-.172 0-.234-.094-.234-.329 0-.25.078-.484.172-.703.156-.437.61-1.625.61-2.203 0-.64-.391-1.062-1.141-1.062-.626 0-1.11.312-1.485.765zm0 0"/></symbol><marker orient="auto" id="X" overflow="visible"><path d="M4 0l2-2-7 2 7 2z" fill-rule="evenodd" stroke="#000" stroke-width=".5332"/></marker><marker orient="auto" id="Y" overflow="visible"><path d="M-4 0l-2 2 7-2-7-2z" fill-rule="evenodd" stroke="#000" stroke-width=".5332"/></marker><linearGradient xlink:href="#c" id="K" gradientUnits="userSpaceOnUse" gradientTransform="matrix(.26845 0 0 .26697 297.026 245.303)" spreadMethod="reflect" x1="317.703" y1="518.775" x2="370.832" y2="518.775"/><radialGradient r="246.82" fy="1368.978" fx="1856.591" cy="1368.978" cx="1856.591" gradientTransform="matrix(0 -.64657 .06212 0 117.49 1643.94)" gradientUnits="userSpaceOnUse" id="p" xlink:href="#i"/><linearGradient id="i"><stop offset="0" stop-color="#0e0e0e"/><stop offset="1" stop-color="#6a6a6a"/></linearGradient><radialGradient r="246.82" fy="1368.978" fx="1856.591" cy="1368.978" cx="1856.591" gradientTransform="matrix(0 -.64657 .06212 0 117.538 1643.94)" gradientUnits="userSpaceOnUse" id="q" xlink:href="#i"/><radialGradient r="246.82" fy="1368.978" fx="1856.591" cy="1368.978" cx="1856.591" gradientTransform="matrix(0 -.64657 .06212 0 117.49 1643.94)" gradientUnits="userSpaceOnUse" id="r" xlink:href="#i"/><radialGradient r="246.82" fy="1368.978" fx="1856.591" cy="1368.978" cx="1856.591" gradientTransform="matrix(0 -.64657 .06212 0 117.49 1643.94)" gradientUnits="userSpaceOnUse" id="s" xlink:href="#i"/><radialGradient r="246.82" fy="1368.978" fx="1856.591" cy="1368.978" cx="1856.591" gradientTransform="matrix(0 -.64657 .06212 0 117.49 1643.94)" gradientUnits="userSpaceOnUse" id="t" xlink:href="#i"/><radialGradient r="246.82" fy="1368.978" fx="1856.591" cy="1368.978" cx="1856.591" gradientTransform="matrix(0 -.64657 .06212 0 117.49 1643.94)" gradientUnits="userSpaceOnUse" id="u" xlink:href="#i"/><radialGradient r="246.82" fy="1368.978" fx="1856.591" cy="1368.978" cx="1856.591" gradientTransform="matrix(0 -.64657 .06212 0 117.49 1643.94)" gradientUnits="userSpaceOnUse" id="v" xlink:href="#i"/><radialGradient r="246.82" fy="1368.978" fx="1856.591" cy="1368.978" cx="1856.591" gradientTransform="matrix(0 -.64657 .06212 0 117.49 1643.94)" gradientUnits="userSpaceOnUse" id="w" xlink:href="#i"/><radialGradient r="246.82" fy="1368.978" fx="1856.591" cy="1368.978" cx="1856.591" gradientTransform="matrix(0 -.64657 .06212 0 117.49 1643.94)" gradientUnits="userSpaceOnUse" id="x" xlink:href="#i"/><radialGradient r="246.82" fy="1368.978" fx="1856.591" cy="1368.978" cx="1856.591" gradientTransform="matrix(0 -.64657 .06212 0 117.49 1643.94)" gradientUnits="userSpaceOnUse" id="y" xlink:href="#i"/><radialGradient r="246.82" fy="1368.978" fx="1856.591" cy="1368.978" cx="1856.591" gradientTransform="matrix(0 -.64657 .06212 0 117.49 1643.94)" gradientUnits="userSpaceOnUse" id="z" xlink:href="#i"/><radialGradient r="246.82" fy="1368.978" fx="1856.591" cy="1368.978" cx="1856.591" gradientTransform="matrix(0 -.64657 .06212 0 117.538 1643.94)" gradientUnits="userSpaceOnUse" id="A" xlink:href="#i"/><radialGradient r="246.82" fy="1368.978" fx="1856.591" cy="1368.978" cx="1856.591" gradientTransform="matrix(0 -.64657 .06212 0 117.49 1643.94)" gradientUnits="userSpaceOnUse" id="B" xlink:href="#i"/><radialGradient r="246.82" fy="1368.978" fx="1856.591" cy="1368.978" cx="1856.591" gradientTransform="matrix(0 -.64657 .06212 0 117.49 1643.94)" gradientUnits="userSpaceOnUse" id="C" xlink:href="#i"/><radialGradient r="246.82" fy="1368.978" fx="1856.591" cy="1368.978" cx="1856.591" gradientTransform="matrix(0 -.64657 .06212 0 117.49 1643.94)" gradientUnits="userSpaceOnUse" id="D" xlink:href="#i"/><radialGradient r="246.82" fy="1368.978" fx="1856.591" cy="1368.978" cx="1856.591" gradientTransform="matrix(0 -.64657 .06212 0 117.49 1643.94)" gradientUnits="userSpaceOnUse" id="E" xlink:href="#i"/><radialGradient r="246.82" fy="1368.978" fx="1856.591" cy="1368.978" cx="1856.591" gradientTransform="matrix(0 -.64657 .06212 0 117.49 1643.94)" gradientUnits="userSpaceOnUse" id="F" xlink:href="#i"/><radialGradient r="246.82" fy="1368.978" fx="1856.591" cy="1368.978" cx="1856.591" gradientTransform="matrix(0 -.64657 .06212 0 117.49 1643.94)" gradientUnits="userSpaceOnUse" id="G" xlink:href="#i"/><radialGradient r="246.82" fy="1368.978" fx="1856.591" cy="1368.978" cx="1856.591" gradientTransform="matrix(0 -.64657 .06212 0 117.49 1643.94)" gradientUnits="userSpaceOnUse" id="H" xlink:href="#i"/><radialGradient r="246.82" fy="1368.978" fx="1856.591" cy="1368.978" cx="1856.591" gradientTransform="matrix(0 -.64657 .06212 0 117.49 1643.94)" gradientUnits="userSpaceOnUse" id="I" xlink:href="#i"/><radialGradient r="246.82" fy="1368.978" fx="1856.591" cy="1368.978" cx="1856.591" gradientTransform="matrix(0 -.64657 .06212 0 117.49 1630.508)" gradientUnits="userSpaceOnUse" id="J" xlink:href="#i"/><symbol id="L" overflow="visible"><path d="M3.133-6.8c0-.267 0-.283-.25-.283-.666.683-1.6.683-1.933.683v.333c.217 0 .833 0 1.383-.283v5.517c0 .383-.033.5-.983.5h-.333V0C1.383-.033 2.3-.033 2.733-.033c.417 0 1.35 0 1.717.033v-.333h-.333c-.967 0-.984-.117-.984-.5zm0 0" stroke-width=".556"/></symbol><symbol overflow="visible" id="M"><path d="M4.883-3.4c0-.85-.05-1.7-.416-2.483-.484-1.034-1.367-1.2-1.8-1.2-.65 0-1.417.283-1.867 1.266C.467-5.083.417-4.25.417-3.4c0 .8.033 1.75.483 2.567A1.952 1.952 0 0 0 2.65.233C3.217.233 4.033.017 4.5-1c.333-.733.383-1.567.383-2.4zM2.65 0C2.233 0 1.6-.267 1.417-1.283 1.3-1.917 1.3-2.9 1.3-3.533c0-.684 0-1.384.083-1.95.2-1.267 1-1.367 1.267-1.367.35 0 1.05.2 1.25 1.25.117.6.117 1.4.117 2.067 0 .8 0 1.516-.117 2.2C3.733-.317 3.133 0 2.65 0zm0 0" stroke-width=".556"/></symbol><symbol id="N" overflow="visible"><path d="M1.35-.817l1.133-1.1c1.65-1.466 2.284-2.033 2.284-3.1 0-1.216-.95-2.066-2.25-2.066-1.2 0-1.984.983-1.984 1.933 0 .583.534.583.567.583.183 0 .55-.116.55-.566 0-.267-.2-.55-.567-.55-.083 0-.1 0-.133.016.233-.7.817-1.083 1.433-1.083.967 0 1.417.867 1.417 1.733 0 .85-.517 1.684-1.117 2.35L.65-.4C.533-.283.533-.25.533 0h3.95l.284-1.85h-.25c-.067.317-.134.783-.25.95-.067.083-.767.083-1 .083zm0 0" stroke-width=".556"/></symbol><symbol overflow="visible" id="O"><path d="M3.083-3.75c.867-.283 1.484-1.017 1.484-1.867 0-.866-.934-1.466-1.95-1.466-1.067 0-1.884.633-1.884 1.45 0 .35.234.55.55.55.317 0 .534-.234.534-.55 0-.517-.5-.517-.65-.517.316-.533 1.016-.667 1.4-.667.45 0 1.033.234 1.033 1.184 0 .133-.033.75-.3 1.216-.317.517-.683.55-.95.55a3.509 3.509 0 0 1-.417.034c-.083.016-.15.033-.15.133 0 .117.067.117.25.117H2.5c.867 0 1.267.716 1.267 1.766 0 1.45-.734 1.75-1.2 1.75C2.1-.067 1.3-.25.933-.867c.367.05.7-.183.7-.583 0-.383-.283-.6-.583-.6-.267 0-.6.15-.6.617C.45-.467 1.433.233 2.6.233c1.3 0 2.267-.966 2.267-2.05 0-.866-.684-1.7-1.784-1.933zm0 0" stroke-width=".556"/></symbol><symbol id="P" overflow="visible"><path d="M3.133-1.75v.917c0 .383-.033.5-.816.5H2.1V0c.433-.033.983-.033 1.433-.033.45 0 1 0 1.45.033v-.333H4.75c-.783 0-.8-.117-.8-.5v-.917H5v-.333H3.95v-4.834c0-.216 0-.283-.183-.283-.084 0-.117 0-.2.133L.3-2.083v.333zm.05-.333H.6L3.183-6.05zm0 0" stroke-width=".556"/></symbol><symbol overflow="visible" id="Q"><path d="M4.767-2.133c0-1.267-.867-2.334-2.017-2.334-.5 0-.967.167-1.35.55V-6c.217.067.567.133.9.133 1.317 0 2.067-.966 2.067-1.1 0-.066-.034-.116-.117-.116 0 0-.033 0-.083.033-.217.1-.734.317-1.45.317-.417 0-.917-.084-1.417-.3-.083-.034-.1-.034-.117-.034-.116 0-.116.084-.116.25v3.15c0 .184 0 .267.15.267.083 0 .1-.017.15-.083.116-.167.5-.75 1.366-.75.55 0 .817.483.9.683.167.4.2.8.2 1.333 0 .384 0 1.017-.266 1.467-.25.417-.65.683-1.134.683-.766 0-1.383-.566-1.566-1.183.033 0 .066.017.183.017.35 0 .533-.267.533-.517 0-.267-.183-.533-.533-.533-.15 0-.517.083-.517.566 0 .917.734 1.95 1.917 1.95 1.233 0 2.317-1.016 2.317-2.366zm0 0" stroke-width=".556"/></symbol><symbol overflow="visible" id="R"><path d="M2.567-7.033c-.1-.234-.134-.234-.384-.234H.4v.334h.25c.817 0 .833.116.833.5v5.316c0 .284 0 .784-1.083.784V0c.367-.017.883-.033 1.233-.033.35 0 .884.016 1.25.033v-.333c-1.1 0-1.1-.5-1.1-.784V-6.85H1.8L4.367-.233c.05.133.1.233.2.233.116 0 .15-.083.2-.2l2.616-6.733v6.1c0 .383-.016.5-.833.5H6.3V0c.383-.033 1.117-.033 1.533-.033.4 0 1.117 0 1.517.033v-.333h-.267c-.816 0-.833-.117-.833-.5v-5.6c0-.384.017-.5.833-.5h.267v-.334h-1.8c-.283 0-.283.017-.35.2l-2.333 6z" stroke-width="1.067"/></symbol><symbol overflow="visible" id="S"><path d="M3.533-.8c.05.417.334.867.834.867.233 0 .883-.15.883-1.017v-.6h-.267v.6c0 .617-.266.683-.383.683-.35 0-.4-.483-.4-.533v-2.117c0-.45 0-.866-.383-1.266a2.025 2.025 0 0 0-1.45-.584c-.884 0-1.617.5-1.617 1.2 0 .317.217.5.5.5.3 0 .483-.216.483-.483 0-.133-.05-.483-.55-.483.3-.384.817-.5 1.15-.5.534 0 1.134.416 1.134 1.366v.384c-.55.033-1.284.066-1.95.383-.8.367-1.067.917-1.067 1.383C.45-.15 1.483.117 2.15.117c.7 0 1.183-.434 1.383-.917zm-.066-1.75v1.067c0 1-.767 1.366-1.25 1.366-.517 0-.95-.366-.95-.9 0-.583.45-1.466 2.2-1.533z" stroke-width="1.067"/></symbol><symbol overflow="visible" id="T"><path d="M3.05-2.5c.317-.4.717-.917.983-1.2.334-.383.767-.55 1.267-.55v-.333c-.283.016-.6.033-.883.033-.317 0-.884-.017-1.017-.033v.333c.233.017.317.15.317.333 0 .167-.117.3-.167.367l-.65.833L2.067-3.8c-.1-.1-.1-.117-.1-.183 0-.167.166-.267.366-.267v-.333c-.266.016-.966.033-1.15.033-.216 0-.716-.017-1-.033v.333c.75 0 .75 0 1.25.65l1.05 1.367-1 1.266a1.67 1.67 0 0 1-1.35.634V0c.267-.017.6-.033.884-.033.3 0 .75.016 1 .033v-.333c-.234-.034-.3-.167-.3-.334 0-.233.3-.583.95-1.35L3.483-.95c.084.117.217.283.217.35 0 .1-.1.267-.383.267V0c.316-.017.916-.033 1.15-.033.283 0 .7.016 1.016.033v-.333c-.566 0-.766-.017-1-.334z" stroke-width="1.067"/></symbol><symbol overflow="visible" id="U"><path d="M4.767-2.133c0-1.267-.867-2.334-2.017-2.334-.5 0-.967.167-1.35.55V-6c.217.067.567.133.9.133 1.317 0 2.067-.966 2.067-1.1 0-.066-.034-.116-.117-.116 0 0-.033 0-.083.033-.217.1-.734.317-1.45.317-.417 0-.917-.084-1.417-.3-.083-.034-.1-.034-.117-.034-.116 0-.116.084-.116.25v3.15c0 .184 0 .267.15.267.083 0 .1-.017.15-.083.116-.167.5-.75 1.366-.75.55 0 .817.483.9.683.167.4.2.8.2 1.333 0 .384 0 1.017-.266 1.467-.25.417-.65.683-1.134.683-.766 0-1.383-.566-1.566-1.183.033 0 .066.017.183.017.35 0 .533-.267.533-.517 0-.267-.183-.533-.533-.533-.15 0-.517.083-.517.566 0 .917.734 1.95 1.917 1.95 1.233 0 2.317-1.016 2.317-2.366z" stroke-width="1.067"/></symbol><symbol overflow="visible" id="V"><path d="M2.467-7.117c-.1-.133-.1-.15-.3-.15H.35v.334h.317c.15 0 .366.016.516.016.25.034.267.05.267.25v5.55c0 .284 0 .784-1.1.784V0c.367-.017.9-.033 1.25-.033s.867.016 1.233.033v-.333c-1.083 0-1.083-.5-1.083-.784V-6.65c.05.05.05.067.1.133L6.183-.133c.1.116.117.133.184.133.15 0 .15-.067.15-.283V-6.15c0-.283 0-.783 1.1-.783v-.334c-.384.017-.9.034-1.25.034S5.5-7.25 5.133-7.267v.334c1.084 0 1.084.5 1.084.783v4.55z" stroke-width="1.067"/></symbol></defs><path style="marker:none" color="#000" overflow="visible" fill="#afc6e9" stroke="#87aade" stroke-width="2.858" stroke-linecap="round" stroke-linejoin="bevel" opacity=".1" d="M131.244 616.288h531.503v212.833H131.244z"/><path style="marker:none" transform="skewX(-.01)" color="#000" overflow="visible" fill="#fff" stroke="#fff" stroke-width="3.762" stroke-linecap="round" stroke-linejoin="bevel" d="M40.059 272.937h713.764v576.645H40.059z"/><path style="marker:none" color="#000" overflow="visible" fill="#afc6e9" stroke="#87aade" stroke-width="2.858" stroke-linecap="round" stroke-linejoin="bevel" d="M131.244 616.288h531.503v212.833H131.244z"/><rect style="marker:none" width="247.119" height="92.225" x="273.436" y="524.811" ry="0" color="#000" overflow="visible" fill="#afc6e9" stroke="#87aade" stroke-width="3.2" stroke-linecap="round" stroke-linejoin="bevel" stroke-dasharray="3.19999995,9.59999992"/><g ns0:preamble="/home/waldgeist/data/sphinx/inkscape-preamble.tex" ns0:text="$\\vec{F}$" transform="matrix(3.06814 0 0 3.06814 -280.158 -56.028)" fill="#d40000" stroke-width="1.451"><defs><symbol id="j" overflow="visible"><path d="M5.717-6.333c-.15.15-.5.45-.5.633 0 .1.1.217.2.217s.15-.084.216-.15c.117-.15.367-.45.834-.684.066-.05.183-.1.183-.216 0-.117-.083-.167-.15-.217a1.103 1.103 0 0 1-.433-.6C6.033-7.45 6-7.6 5.85-7.6s-.217.15-.217.233c0 .05.084.384.25.617H2.3c-.167 0-.367 0-.367.217 0 .2.2.2.367.2zm0 0" stroke-width="1.067"/></symbol><symbol id="k" overflow="visible"><path d="M3.217-3.45H4.25c.8 0 .883.167.883.467 0 .083 0 .2-.066.533-.034.05-.034.083-.034.117 0 .083.067.116.117.116.117 0 .117-.033.167-.216L5.9-4.75c.033-.117.033-.133.033-.167a.125.125 0 0 0-.133-.116c-.1 0-.117.05-.15.233-.233.817-.467 1.017-1.383 1.017H3.3l.683-2.7c.1-.384.117-.417.584-.417h1.4c1.3 0 1.55.35 1.55 1.167 0 .25 0 .283-.034.583-.016.133-.016.15-.016.183 0 .05.033.134.133.134.117 0 .117-.067.133-.267l.217-1.85c.033-.283-.017-.283-.283-.283H2.45c-.2 0-.317 0-.317.216 0 .117.1.117.3.117.4 0 .7 0 .7.183 0 .05 0 .067-.066.267l-1.4 5.617c-.1.416-.117.5-.967.5-.183 0-.3 0-.3.2C.4 0 .533 0 .567 0c.3 0 1.1-.033 1.4-.033C2.317-.033 3.2 0 3.55 0c.1 0 .217 0 .217-.2 0-.083-.05-.117-.05-.117-.034-.016-.067-.016-.3-.016-.234 0-.284 0-.55-.017-.317-.033-.35-.083-.35-.217 0-.016 0-.083.05-.233zm0 0" stroke-width="1.067"/></symbol></defs><use y="132.246" x="224.901" xlink:href="#j" width="744.094" height="1052.362"/><use y="134.765" x="223.432" xlink:href="#k" width="744.094" height="1052.362"/></g><path style="isolation:auto;mix-blend-mode:normal" d="M271.068 710.35V523.704h251.855V710.35" color="#000" overflow="visible" fill="none" stroke="#4d4d4d" stroke-width="3.284" stroke-linecap="round" stroke-linejoin="round"/><path style="marker:none" color="#000" overflow="visible" opacity=".3" fill="#afc6e9" stroke="#87aade" stroke-width="2.858" stroke-linecap="round" stroke-linejoin="bevel" d="M131.202 616.172h531.503v212.833H131.202z"/><path style="isolation:auto;mix-blend-mode:normal" d="M246.003 522.442h-36.454M249.068 616.247h-39.519" color="#000" overflow="visible" fill="none" stroke="#1a1a1a" stroke-width="2" stroke-linecap="round" stroke-linejoin="round"/><path style="isolation:auto;mix-blend-mode:normal" d="M225.342 527.955v82.78" color="#000" overflow="visible" fill="none" stroke="#000" stroke-width="2" stroke-linecap="round" stroke-linejoin="round" marker-start="url(#l)" marker-end="url(#m)"/><path opacity=".75" fill="#fff" stroke="#fff" stroke-width="2" stroke-linecap="round" stroke-linejoin="round" d="M217.895 555.946h46.895v26.797h-46.895z"/><use y="83.403" x="118.801" xlink:href="#n" width="100%" height="100%" transform="matrix(3 0 0 3 -152.373 329.682)"/><use y="83.403" x="127.103" xlink:href="#o" width="100%" height="100%" transform="matrix(3 0 0 3 -152.373 329.682)"/><g transform="translate(.098 68.882)"><g stroke="#333" stroke-width="5.62" fill="none" stroke-linecap="round"><path d="M243.867-55.08a12.933 12.933 0 0 1-11.95-7.984 12.933 12.933 0 0 1 2.804-14.095 12.933 12.933 0 0 1 14.095-2.804 12.933 12.933 0 0 1 7.984 11.95" stroke-linejoin="round" transform="matrix(-.1164 0 0 -.17641 425.272 321.224)"/><path d="M243.867-55.08v18" transform="matrix(-.1164 0 0 -.17641 425.272 321.224)"/></g><path d="M396.886 334.593v5.278m-.009 70.808l.01 7.944" fill="#333" stroke="#000" stroke-width=".935" stroke-linecap="round"/><path d="M400.866 454.141a3.972 3.972 0 0 1-2.452 3.67 3.972 3.972 0 0 1-4.329-.861 3.972 3.972 0 0 1-.861-4.329 3.972 3.972 0 0 1 3.67-2.452" fill="none" stroke="#000" stroke-width="1.333" stroke-linecap="round" stroke-linejoin="round"/><path d="M396.884 327.766l.01-11.012" fill="#333" stroke="#000" stroke-width="1.333" stroke-linecap="round"/><circle r="3.972" cy="-312.686" cx="396.894" transform="scale(1 -1)" fill="none" stroke="#000" stroke-width="1.333" stroke-linecap="round" stroke-linejoin="round"/><rect width="2.373" height="6.407" x="395.703" y="323.344" ry=".472" rx=".472" fill="#666"/><path d="M396.891 393.764l.002-7.254m0-.72l.003-7.392" fill="#333" stroke="#000" stroke-width=".805"/><path d="M396.891 450.169l.005-56.55" fill="#333" stroke="#000" stroke-width="1.333" stroke-linecap="round"/><rect rx=".695" ry=".695" y="441.753" x="388.991" height="1.39" width="15.796" fill="#666"/><g stroke-linecap="round" fill="none"><g stroke="#1a1a1a" stroke-width="14.383"><path d="M1846.906 1460.018c1.603-37.78 7.048-85.356 25.765-90.197M1886.143 1550.818c-28.25.432-22.793-173.144 8.687-181.286M1908.302 1550.818c-28.25.432-22.794-173.144 8.687-181.286M1930.46 1550.818c-28.249.432-22.793-173.144 8.688-181.286M1952.62 1550.818c-28.25.432-22.794-173.144 8.687-181.286M1974.778 1550.818c-28.25.432-22.793-173.144 8.688-181.286M2063.413 1550.818c-28.25.432-22.793-173.144 8.688-181.286M2085.572 1550.818c-28.25.432-22.793-173.144 8.688-181.286M2041.255 1550.818c-28.25.432-22.794-173.144 8.687-181.286M2019.096 1550.818c-28.25.432-22.793-173.144 8.687-181.286M1996.937 1550.818c-28.25.432-22.793-173.144 8.687-181.286" transform="matrix(0 -.07628 .0411 0 336.887 519.276)"/></g><g stroke="#1a1a1a" stroke-width="14.383"><path d="M1886.143 1550.818c-28.25.432-22.793-173.144 8.687-181.286M1908.302 1550.818c-28.25.432-22.794-173.144 8.687-181.286M1930.46 1550.818c-28.249.432-22.793-173.144 8.688-181.286M1952.62 1550.818c-28.25.432-22.794-173.144 8.687-181.286M1974.778 1550.818c-28.25.432-22.793-173.144 8.688-181.286M2063.413 1550.818c-28.25.432-22.793-173.144 8.688-181.286M2085.572 1550.818c-28.25.432-22.793-173.144 8.688-181.286M2041.255 1550.818c-28.25.432-22.794-173.144 8.687-181.286M2019.096 1550.818c-28.25.432-22.793-173.144 8.687-181.286M1996.937 1550.818c-28.25.432-22.793-173.144 8.687-181.286" transform="matrix(0 -.07628 .0411 0 336.887 502.374)"/></g><g stroke-width="4.525"><path d="M187.76 401.343c-1.007-20.582 30.964-26.866 29.511-8.166" stroke="url(#p)" transform="matrix(.25168 0 0 .12584 345.923 312.407)"/><path d="M187.808 387.91c-1.007-20.581 30.964-26.864 29.51-8.165" stroke="url(#q)" transform="matrix(.25168 0 0 .12584 345.923 312.407)"/><path d="M187.76 414.774c-1.007-20.581 30.964-26.865 29.511-8.165" stroke="url(#r)" transform="matrix(.25168 0 0 .12584 345.923 312.407)"/><path d="M187.76 428.206c-1.007-20.582 30.964-26.865 29.511-8.166" stroke="url(#s)" transform="matrix(.25168 0 0 .12584 345.923 312.407)"/><path d="M187.76 495.365c-1.007-20.581 30.964-26.865 29.511-8.165" stroke="url(#t)" transform="matrix(.25168 0 0 .12584 345.923 312.407)"/><path d="M187.76 508.797c-1.007-20.582 30.964-26.865 29.511-8.166" stroke="url(#u)" transform="matrix(.25168 0 0 .12584 345.923 312.407)"/><path d="M187.76 481.934c-1.007-20.582 30.964-26.866 29.511-8.166" stroke="url(#v)" transform="matrix(.25168 0 0 .12584 345.923 312.407)"/><path d="M187.76 468.502c-1.007-20.582 30.964-26.865 29.511-8.166" stroke="url(#w)" transform="matrix(.25168 0 0 .12584 345.923 312.407)"/><path d="M187.76 455.07c-1.007-20.582 30.964-26.865 29.511-8.166" stroke="url(#x)" transform="matrix(.25168 0 0 .12584 345.923 312.407)"/><path d="M187.76 441.638c-1.007-20.582 30.964-26.865 29.511-8.166" stroke="url(#y)" transform="matrix(.25168 0 0 .12584 345.923 312.407)"/></g><g stroke-width="4.525"><path d="M187.76 401.343c-1.007-20.582 30.964-26.866 29.511-8.166" stroke="url(#z)" transform="matrix(.25168 0 0 .12584 345.923 295.504)"/><path d="M187.808 387.91c-1.007-20.581 30.964-26.864 29.51-8.165" stroke="url(#A)" transform="matrix(.25168 0 0 .12584 345.923 295.504)"/><path d="M187.76 414.774c-1.007-20.581 30.964-26.865 29.511-8.165" stroke="url(#B)" transform="matrix(.25168 0 0 .12584 345.923 295.504)"/><path d="M187.76 428.206c-1.007-20.582 30.964-26.865 29.511-8.166" stroke="url(#C)" transform="matrix(.25168 0 0 .12584 345.923 295.504)"/><path d="M187.76 495.365c-1.007-20.581 30.964-26.865 29.511-8.165" stroke="url(#D)" transform="matrix(.25168 0 0 .12584 345.923 295.504)"/><path d="M187.76 508.797c-1.007-20.582 30.964-26.865 29.511-8.166" stroke="url(#E)" transform="matrix(.25168 0 0 .12584 345.923 295.504)"/><path d="M187.76 481.934c-1.007-20.582 30.964-26.866 29.511-8.166" stroke="url(#F)" transform="matrix(.25168 0 0 .12584 345.923 295.504)"/><path d="M187.76 468.502c-1.007-20.582 30.964-26.865 29.511-8.166" stroke="url(#G)" transform="matrix(.25168 0 0 .12584 345.923 295.504)"/><path d="M187.76 455.07c-1.007-20.582 30.964-26.865 29.511-8.166" stroke="url(#H)" transform="matrix(.25168 0 0 .12584 345.923 295.504)"/><path d="M187.76 441.638c-1.007-20.582 30.964-26.865 29.511-8.166" stroke="url(#I)" transform="matrix(.25168 0 0 .12584 345.923 295.504)"/><path d="M187.76 374.479c-1.007-20.582 14.737-21.904 14.737-21.904" stroke="url(#J)" transform="matrix(.25168 0 0 .12584 345.923 295.504)"/></g></g><rect width="16.96" height="115.944" x="388.417" y="325.828" ry="1.699" opacity=".3" fill="url(#K)" fill-rule="evenodd" stroke="#000" stroke-width=".508"/><rect width="15.796" height="1.39" x="388.991" y="325.853" ry=".695" rx=".695" fill="#666"/><rect ry="1.699" y="326.548" x="388.417" height="115.944" width="16.96" opacity=".3" fill="#f2f2f2" fill-rule="evenodd" stroke="#000" stroke-width=".508"/><g stroke-width="3.2" fill="none" stroke="#000" stroke-linecap="round"><path d="M397.162 386.264h-5.317M397.162 394.963h-5.317M397.03 393.223h-3.67M397.03 391.484h-3.67M397.03 389.744h-3.67M397.03 388.004h-3.67M396.625 386.264h5.318M396.625 394.963h5.318" stroke-width=".8053760000000001"/><g><path d="M396.759 393.223h3.669M396.759 391.484h3.669M396.759 389.744h3.669M396.759 388.004h3.669" stroke-width=".8053760000000001"/></g><g><path d="M397.162 394.963h-5.317M397.162 403.661h-5.317M397.03 401.922h-3.67M397.03 400.182h-3.67M397.03 398.442h-3.67M397.03 396.703h-3.67M396.625 394.963h5.318M396.625 403.661h5.318" stroke-width=".8053760000000001"/><g><path d="M396.759 401.922h3.669M396.759 400.182h3.669M396.759 398.442h3.669M396.759 396.703h3.669" stroke-width=".8053760000000001"/></g></g><g><path d="M397.162 421.059h-5.317M397.162 429.757h-5.317M397.03 428.017h-3.67M397.03 426.278h-3.67M397.03 424.538h-3.67M397.03 422.798h-3.67M396.625 421.059h5.318M396.625 429.757h5.318" stroke-width=".8053760000000001"/><g><path d="M396.759 428.017h3.669M396.759 426.278h3.669M396.759 424.538h3.669M396.759 422.798h3.669" stroke-width=".8053760000000001"/></g></g><g><path d="M397.162 403.661h-5.317M397.162 412.36h-5.317M397.03 410.62h-3.67M397.03 408.88h-3.67M397.03 407.14h-3.67M397.03 405.401h-3.67M396.625 403.661h5.318M396.625 412.36h5.318" stroke-width=".8053760000000001"/><g><path d="M396.759 410.62h3.669M396.759 408.88h3.669M396.759 407.14h3.669M396.759 405.401h3.669" stroke-width=".8053760000000001"/></g></g><g><path d="M397.162 412.36h-5.317M397.162 421.059h-5.317M397.03 419.319h-3.67M397.03 417.58h-3.67M397.03 415.84h-3.67M397.03 414.1h-3.67M396.625 412.36h5.318M396.625 421.059h5.318" stroke-width=".8053760000000001"/><g><path d="M396.759 419.319h3.669M396.759 417.58h3.669M396.759 415.84h3.669M396.759 414.1h3.669" stroke-width=".8053760000000001"/></g></g></g><rect rx="2.148" ry="2.148" y="391.678" x="394.357" height="6.508" width="4.821" opacity=".761" fill="#f9f9f9"/><use height="1052.362" width="744.094" xlink:href="#L" x="223.432" y="134.765" transform="matrix(.75365 0 0 .75365 226.343 296.036)" ns0:text="1" fill="#d40000" stroke-width=".521"/><ellipse ry=".498" rx="6.407" cy="389.763" cx="396.894" fill="gray" stroke="#a00" stroke-width=".537" stroke-linejoin="round"/><rect width="4.821" height="6.508" x="394.357" y="383.272" ry="2.148" rx="2.148" opacity=".761" fill="#f9f9f9"/><use height="1052.362" width="744.094" y="134.765" x="223.432" xlink:href="#M" transform="matrix(.75365 0 0 .75365 226.38 287.541)" ns0:text="0" fill="#d40000" stroke-width=".521"/><rect rx="2.148" ry="2.148" y="400.356" x="394.357" height="6.508" width="4.821" opacity=".761" fill="#f9f9f9"/><use height="1052.362" width="744.094" xlink:href="#N" x="223.432" y="134.765" transform="matrix(.75365 0 0 .75365 226.38 304.713)" ns0:text="2" fill="#d40000" stroke-width=".521"/><rect width="4.821" height="6.508" x="394.357" y="409.135" ry="2.148" rx="2.148" opacity=".761" fill="#f9f9f9"/><use height="1052.362" width="744.094" y="134.765" x="223.432" xlink:href="#O" transform="matrix(.75365 0 0 .75365 226.374 313.405)" ns0:text="3" fill="#d40000" stroke-width=".521"/><rect rx="2.148" ry="2.148" y="417.813" x="394.357" height="6.508" width="4.821" opacity=".761" fill="#f9f9f9"/><use height="1052.362" width="744.094" xlink:href="#P" x="223.432" y="134.765" transform="matrix(.75365 0 0 .75365 226.38 322.214)" ns0:text="4" fill="#d40000" stroke-width=".521"/><rect width="4.821" height="6.508" x="394.357" y="426.457" ry="2.148" rx="2.148" opacity=".761" fill="#f9f9f9"/><use height="1052.362" width="744.094" y="134.765" x="223.432" xlink:href="#Q" transform="matrix(.75365 0 0 .75365 226.38 330.726)" ns0:text="5" fill="#d40000" stroke-width=".521"/><rect rx="3.374" ry="0" y="350.406" x="388.417" height="17.457" width="16.96" opacity=".761" fill="#f9f9f9"/><g fill="#d40000" stroke="#d40000"><g transform="matrix(.65679 0 0 .65679 243.95 269.05)" ns0:preamble="/home/waldgeist/data/sphinx/inkscape-preamble.tex" ns0:text="Max"><use y="134.765" x="223.432" xlink:href="#R" width="744.094" height="1052.362"/><use y="134.765" x="232.565" xlink:href="#S" width="744.094" height="1052.362"/><use y="134.765" x="237.546" xlink:href="#T" width="744.094" height="1052.362"/></g><g ns0:preamble="/home/waldgeist/data/sphinx/inkscape-preamble.tex" ns0:text="$\\unit[5]{N}$"><use height="1052.362" width="744.094" y="134.765" x="223.432" xlink:href="#U" transform="matrix(.75503 0 0 .75503 221.126 263.553)"/><use height="1052.362" width="744.094" y="134.765" x="230.077" xlink:href="#V" transform="matrix(.75503 0 0 .75503 221.126 263.553)"/></g></g></g><path style="isolation:auto;mix-blend-mode:normal" d="M396.987 384.849v-88.426" color="#000" overflow="visible" fill="none" stroke="#d40000" stroke-width="4" stroke-linecap="round" stroke-linejoin="round" marker-end="url(#W)"/><path style="isolation:auto;mix-blend-mode:normal" d="M277.854 745.024h238.282" color="#000" overflow="visible" fill="none" stroke="#000" stroke-width="2" stroke-linecap="round" stroke-linejoin="round" marker-start="url(#X)" marker-end="url(#Y)"/><path style="isolation:auto;mix-blend-mode:normal" d="M271.068 726.798v36.453" color="#000" overflow="visible" fill="none" stroke="#1a1a1a" stroke-width="2" stroke-linecap="round" stroke-linejoin="round"/><path opacity=".75" fill="#fff" stroke="#fff" stroke-width="2" stroke-linecap="round" stroke-linejoin="round" d="M373.548 731.626h46.895v26.797h-46.895z"/><g transform="matrix(3 0 0 3 33.678 504.823)" ns0:text="$b$" ns0:preamble="/home/waldgeist/data/homepage/inkscape-preamble.tex"><defs><symbol overflow="visible" id="Z"><path d="M2.375-6.813s0-.109-.125-.109c-.219 0-.953.078-1.219.11-.078 0-.187.015-.187.187 0 .125.094.125.25.125.468 0 .484.063.484.172 0 .062-.078.406-.125.61l-.828 3.25c-.11.5-.156.671-.156 1.015C.469-.516 1 .109 1.734.109c1.172 0 2.407-1.484 2.407-2.921 0-.907-.532-1.594-1.329-1.594-.453 0-.874.297-1.171.593zm-.922 3.766c.047-.219.047-.234.14-.344.485-.64.938-.796 1.204-.796.36 0 .625.296.625.937 0 .594-.328 1.734-.516 2.11-.328.671-.781 1.03-1.172 1.03-.343 0-.671-.265-.671-1 0-.202 0-.39.156-1.015zm0 0"/></symbol></defs><use height="100%" width="100%" xlink:href="#Z" x="118.801" y="83.403"/></g><path d="M522.923 726.798v36.453" style="isolation:auto;mix-blend-mode:normal" color="#000" overflow="visible" fill="none" stroke="#1a1a1a" stroke-width="2" stroke-linecap="round" stroke-linejoin="round"/><path d="M131.202 829.005V585.24M662.788 829.005V584.43" fill="none" stroke="#9b9c9f" stroke-width="3.747" stroke-linecap="round"/><path d="M131.202 829.005l527.033 1.005" fill="none" stroke="#9b9c9f" stroke-width="4.267" stroke-linecap="round"/><rect ry="0" y="524.811" x="273.436" height="92.225" width="247.119" style="marker:none" color="#000" overflow="visible" fill="#8ba5d3" stroke="#87aade" stroke-width="3.2" stroke-linecap="round" stroke-linejoin="bevel" stroke-dasharray="3.19999995,9.59999992000000013" opacity=".3"/></svg>