<svg xmlns="http://www.w3.org/2000/svg" xmlns:xlink="http://www.w3.org/1999/xlink" width="744.094" height="1052.362"><title>Die Saugpumpe</title><path fill="#fff" stroke="#fff" stroke-width="4" stroke-linecap="round" stroke-linejoin="round" d="M18.494 13.024h707.107v1026.315H18.494z"/><path fill="gray" stroke="#4d4d4d" stroke-width="6" d="M329.484 550.553h85.126v50.8h-85.126z"/><path fill="#afc6e9" d="M355.202 547.064h33.69v337.989h-33.69z"/><rect ry="10.299" rx="5.299" y="293.239" x="313.724" height="255.638" width="116.971" fill="#afc6e9"/><path fill="#afc6e9" d="M260.522 788.218h223.05v224.848h-223.05z"/><path d="M430.837 1001.45a11.617 11.617 0 1 1-23.234 0 11.617 11.617 0 1 1 23.234 0z" id="a" fill="gray" stroke="#4d4d4d" stroke-width="2" stroke-linecap="round" stroke-linejoin="round"/><use transform="rotate(90 382.71 964.94)" height="1052.362" width="744.094" xlink:href="#a"/><use transform="translate(-25.151)" height="1052.362" width="744.094" xlink:href="#a"/><use transform="rotate(90 376.915 947.529)" height="1052.362" width="744.094" xlink:href="#a"/><use transform="translate(-145.08)" height="1052.362" width="744.094" xlink:href="#a"/><use transform="translate(-92.991)" height="1052.362" width="744.094" xlink:href="#a"/><use transform="rotate(90 398.112 980.342)" height="1052.362" width="744.094" xlink:href="#a"/><use transform="translate(50.736)" height="1052.362" width="744.094" xlink:href="#a"/><use transform="translate(-37.185 -11.617)" height="1052.362" width="744.094" xlink:href="#a"/><use transform="translate(-25.568)" height="1052.362" width="744.094" xlink:href="#a"/><use transform="translate(-67.47 -11.617)" height="1052.362" width="744.094" xlink:href="#a"/><use transform="translate(39.12 -11.617)" height="1052.362" width="744.094" xlink:href="#a"/><use transform="rotate(90 391.293 973.523)" height="1052.362" width="744.094" xlink:href="#a"/><use transform="rotate(90 376.915 959.146)" height="1052.362" width="744.094" xlink:href="#a"/><use transform="translate(-107.842)" height="1052.362" width="744.094" xlink:href="#a"/><use transform="translate(-110.23 -11.617)" height="1052.362" width="744.094" xlink:href="#a"/><use transform="rotate(90 430.837 1001.45)" height="1052.362" width="744.094" xlink:href="#a"/><use transform="translate(20.324)" height="1052.362" width="744.094" xlink:href="#a"/><use transform="matrix(1 0 0 1 33.032 -.001)" height="1052.362" width="744.094" xlink:href="#a"/><use transform="translate(-11.617 -11.617)" height="1052.362" width="744.094" xlink:href="#a"/><use transform="translate(-13.407)" height="1052.362" width="744.094" xlink:href="#a"/><use transform="translate(-121.847)" height="1052.362" width="744.094" xlink:href="#a"/><use transform="rotate(90 358.968 928.237)" height="1052.362" width="744.094" xlink:href="#a"/><g fill="#ccc" stroke="#000"><path stroke-width="2" stroke-linecap="round" stroke-linejoin="round" d="M213.92 607.352h46.602v405.714H213.92z"/><path d="M213.92 989.71h46.602M213.92 630.71h46.602M213.92 656.352h46.602M213.92 681.995h46.602M213.92 707.638h46.602M213.92 733.281h46.602M213.92 758.924h46.602M213.92 784.567h46.602M213.92 810.21h46.602M213.92 835.852h46.602M213.92 861.495h46.602M213.92 887.138h46.602M213.92 912.781h46.602M213.92 938.424h46.602M213.92 964.067h46.602"/><g><path stroke-width="2" stroke-linecap="round" stroke-linejoin="round" d="M483.573 607.352h46.602v405.714h-46.602z"/><path d="M483.572 989.71h46.603M483.572 630.71h46.603M483.572 656.352h46.603M483.572 681.995h46.603M483.572 707.638h46.603M483.572 733.281h46.603M483.572 758.924h46.603M483.572 784.567h46.603M483.572 810.21h46.603M483.572 835.852h46.603M483.572 861.495h46.603M483.572 887.138h46.603M483.572 912.781h46.603M483.572 938.424h46.603M483.572 964.067h46.603"/></g></g><path d="M217.759 601.352h134.865m38.906 0h134.806" fill="none" stroke="#000" stroke-width="10" stroke-linecap="round"/><path fill="gray" stroke="#4d4d4d" stroke-width="3" stroke-linecap="round" stroke-linejoin="round" d="M29.504 602.842H211.42v20.991H29.504z"/><path d="M340.383 241.459l-86.956-93.766s-14.007-5.64-19.14-1.07c-5.135 4.57-1.144 19.127-1.144 19.127l79.782 157.808.475-64.255c0-12.838 5.624-17.844 26.983-17.844z" fill="#b3b3b3" stroke="#000" stroke-width="4" stroke-linecap="round"/><path d="M430.695 316.962v-57.66c0-9.892-7.167-17.843-16.085-17.843h-85.126c-8.917 0-16.084 7.95-16.084 17.844v273.406c0 9.893 7.167 17.844 16.084 17.844h25.718v334.5h33.69v-334.5h25.718c8.918 0 16.085-7.951 16.085-17.844v-192.38" fill="none" stroke="#4d4d4d" stroke-width="6" stroke-linecap="round" stroke-linejoin="round"/><g stroke="#4d4d4d"><path d="M353.36 885.792h37.375l29.8 18.276v33.172l-.143.142h-96.69l-.142-.142v-33.172c0 .06 29.8-18.276 29.8-18.276z" fill="none" stroke-width="6" stroke-linecap="round" stroke-linejoin="round"/><g fill="none" stroke-width="1.847"><path d="M7.058 1332.23v-127.926M.142 1332.24v-142.407M-6.775 1332.25v-156.888M-13.692 1332.26v-175.714M-20.608 1332.27v-175.714M-27.525 1332.28v-175.714M-34.441 1332.29v-175.713M-41.358 1332.301v-175.714M-48.274 1332.311v-175.714M-55.19 1332.321v-175.714M-62.107 1332.332v-153.71M-69.024 1332.342v-142.43M-75.94 1332.352v-127.959" transform="matrix(1 0 0 .29314 406.488 546.75)"/></g><g fill="#4d4d4d" stroke-width="1.397"><path d="M7.058 1281.842v-74.94M.142 1294.417v-100.069M-6.775 1319.546V1169.24M-13.692 1332.26v-175.714M-20.608 1332.27v-175.714M-27.525 1332.28v-175.714M-34.441 1332.29v-175.713M-41.358 1332.301v-175.714M-48.274 1332.311v-175.714" transform="matrix(0 -.9304 .55094 0 -313.629 892.386)"/></g></g><path d="M355.305 232.594c10.63-3.172 21.656-4.017 33.48-.15 1.514.495 2.91 1.17 2.91 2.641 0 1.47-1.295 2.66-2.906 2.668l-33.479.15c-1.611.007-2.91-1.17-2.91-2.641s1.372-2.21 2.905-2.668z" fill="gray" stroke="#4d4d4d" stroke-width="2.845" stroke-linecap="square"/><path d="M371.991 111.897c-1.924.014-3.47 2.408-3.468 5.343l.093 200.844-41.718 63.719c-1.15 1.755-.88 4.35.797 5.61 1.677 1.26 4.349.88 5.609-.798l38.75-59.718 38.719 59.718c1.26 1.677 3.932 2.057 5.609.797 1.677-1.26 2.057-3.932.797-5.61l-41.594-63.53-.125-201.094c-.002-2.936-1.544-5.296-3.469-5.281z" fill="gray" stroke="#1a1a1a" stroke-width="4" stroke-linecap="square"/><path style="text-indent:0;text-align:start;line-height:normal;text-transform:none;block-progression:tb;marker:none;-inkscape-font-specification:Sans" d="M335.812 40.319c4.243.124 8.49.753 12.65 1.968 11.624 3.391 21.663 11.033 28.058 21.323 6.395 10.289 8.782 22.647 6.66 34.542a10.27 10.227 43.103 1 1-20.17-3.699c1.206-6.757-.237-14.25-3.87-20.095-3.632-5.845-9.742-10.469-16.344-12.396-4.797-1.4-10.146-1.54-15.268-.464-5.138 1.08-10.221 3.393-14.77 6.607-9.05 6.393-16.16 16.777-23.216 28.192l-137.77 222.88c-2.783 4.502-5.942 9.506-10.362 14.176-4.41 4.66-9.62 8.439-15.328 11.245-11.522 5.664-22.554 6.608-30.534 9.572-9.92 3.684-18.54 11.601-23.034 21.178-4.494 9.576-5.1 21.306-1.608 31.324a10.273 10.23 43.103 1 1-19.367 6.656c-5.314-15.248-4.433-32.17 2.407-46.747 6.84-14.577 19.29-26.029 34.392-31.637 11.406-4.236 21.619-5.286 28.65-8.742 3.568-1.755 6.815-4.123 9.506-6.967 2.683-2.834 5.176-6.602 7.826-10.89l137.77-222.88c7.271-11.762 15.582-24.769 28.786-34.098 6.58-4.648 14.146-8.202 22.356-9.928a53.516 53.516 0 0 1 12.58-1.12z" font-weight="400" color="#000" fill="#999" stroke="#000" stroke-width="4" overflow="visible" font-family="Sans"/><path d="M361.143 111.944l26.435-.13c1.277-.007 2.303-2.648 2.3-5.924-.01-3.276-1.032-5.909-2.31-5.902l-26.434.13c-1.278.007-2.304 2.648-2.301 5.924.01 3.276 1.033 5.909 2.31 5.902z" fill="#b3b3b3" stroke="#1a1a1a" stroke-width="2.892" stroke-linecap="square"/><path d="M247.583 155.68a5.893 5.893 0 1 1-11.757.822 5.893 5.893 0 1 1 11.757-.823z" fill="#ffc800" stroke="#000" stroke-width="1.9993154400000002" stroke-linejoin="round"/><g stroke="#000"><path d="M360.021 386.118l19.696-11.584" fill="none" stroke-width="6" stroke-linecap="round"/><path d="M361.929 384.843a2.516 2.516 0 1 1-4.172 2.814 2.516 2.516 0 0 1 4.172-2.814z" fill="#ffc800" stroke-width=".9997892100000001" stroke-linejoin="round"/></g><path style="text-indent:0;text-align:start;line-height:normal;text-transform:none;block-progression:tb;marker:none;-inkscape-font-specification:Sans" d="M429.802 316.793h114.903c23.215 0 35.839 31.088 35.839 48.423h-23.3c0-8.34-2.543-24.55-14.45-24.729 0 0-80.305.161-113.01 0" font-weight="400" color="#000" fill="#afc6e9" stroke="#4d4d4d" stroke-width="6" overflow="visible" font-family="Sans"/><g stroke="#000"><path d="M349.648 469.567l36.991-21.356" fill="none" stroke-width="6.061" stroke-linecap="round" transform="matrix(.985 .00867 .00867 .995 3.859 77.01)"/><path transform="matrix(1.95258 -.12098 .15397 1.97483 -5.047 296.055)" d="M173.638 137.742a1.583 1.583 0 1 1-3.166 0 1.583 1.583 0 0 1 3.166 0z" fill="#ffc800" stroke-width=".508" stroke-linejoin="round"/></g><path fill="gray" stroke="#4d4d4d" stroke-width="3" stroke-linecap="round" stroke-linejoin="round" d="M532.722 602.842h181.916v20.991H532.722z"/><path d="M750.543 277.07a122.228 23.739 0 1 1-244.457 0 122.228 23.739 0 1 1 244.457 0z" transform="matrix(.47709 0 0 .55226 267.799 335.626)" fill="#b3b3b3" stroke="#000" stroke-width="5.845" stroke-linecap="square" stroke-linejoin="round"/><g fill="#b3b3b3" stroke="#000" stroke-width="1.727" stroke-linecap="round" stroke-linejoin="round"><path transform="matrix(-.64155 0 -.20201 1.17576 1096.862 -130.794)" d="M574.777 541.667c0 1.778-1.696 3.22-3.788 3.22-2.092 0-3.788-1.442-3.788-3.22 0-1.778 1.696-3.22 3.788-3.22 2.092 0 3.788 1.442 3.788 3.22z"/><path d="M574.777 541.667c0 1.778-1.696 3.22-3.788 3.22-2.092 0-3.788-1.442-3.788-3.22 0-1.778 1.696-3.22 3.788-3.22 2.092 0 3.788 1.442 3.788 3.22z" transform="matrix(.64155 0 .20201 1.17576 38.26 -130.794)"/></g><path d="M543.99 512.6h47.143l-12-144.286H555.99z" fill="#afc6e9" stroke="#87aade"/><path d="M509.67 490.14l28.063 103.844c2.183 8.145 17.668 6.69 29.781 6.719 12.114.029 27.587 1.094 29.907-7.563l28.03-102.875c-3.55 6.476-28.11 11.5-57.874 11.5-29.95 0-54.597-5.09-57.906-11.625z" fill="#ececec" stroke="#000" stroke-width="3" stroke-linecap="round" stroke-linejoin="round"/><path d="M622.172 506.075h6.485c2.661 36.884-18.038 85.346-61.127 85.346m-54.537-85.346h-6.527c-2.661 36.884 17.975 85.346 61.063 85.346" fill="none" stroke="#000" stroke-width="3" stroke-linecap="round" stroke-linejoin="round"/><g fill="#999" stroke="#1a1a1a" stroke-width="4.896" stroke-linecap="round" stroke-linejoin="round"><path d="M312.455 309.224h42.679v19.628h-42.679zM377.61 309.224h42.679v19.628H377.61z" transform="matrix(1 0 0 .66747 5.675 179.152)"/></g></svg>