<?xml version="1.0" encoding="UTF-8" standalone="no"?>
<!-- Created with Inkscape (http://www.inkscape.org/) -->

<svg
   xmlns:ns0="http://www.iki.fi/pav/software/textext/"
   xmlns:dc="http://purl.org/dc/elements/1.1/"
   xmlns:cc="http://creativecommons.org/ns#"
   xmlns:rdf="http://www.w3.org/1999/02/22-rdf-syntax-ns#"
   xmlns:svg="http://www.w3.org/2000/svg"
   xmlns="http://www.w3.org/2000/svg"
   xmlns:xlink="http://www.w3.org/1999/xlink"
   xmlns:sodipodi="http://sodipodi.sourceforge.net/DTD/sodipodi-0.dtd"
   xmlns:inkscape="http://www.inkscape.org/namespaces/inkscape"
   width="744.09448819"
   height="1052.3622047"
   id="svg2"
   version="1.1"
   inkscape:version="0.48.4 r9939"
   sodipodi:docname="scherung-beispiel.svg">
  <title
     id="title3674">Scherung</title>
  <sodipodi:namedview
     id="base"
     pagecolor="#ffffff"
     bordercolor="#666666"
     borderopacity="1.0"
     inkscape:pageopacity="0.0"
     inkscape:pageshadow="2"
     inkscape:zoom="0.59990224"
     inkscape:cx="644.36192"
     inkscape:cy="435.80288"
     inkscape:document-units="px"
     inkscape:current-layer="layer1"
     showgrid="false"
     inkscape:window-width="1600"
     inkscape:window-height="1150"
     inkscape:window-x="0"
     inkscape:window-y="0"
     inkscape:window-maximized="1"
     inkscape:object-paths="true"
     inkscape:object-nodes="true"
     inkscape:snap-smooth-nodes="true"
     inkscape:snap-midpoints="true"
     inkscape:snap-object-midpoints="true"
     inkscape:snap-page="true"
     inkscape:snap-global="true"
     showguides="false"
     inkscape:guide-bbox="true">
    <sodipodi:guide
       id="guide3110"
       position="619.36836,278.24397"
       orientation="1,0" />
    <sodipodi:guide
       orientation="1,0"
       position="466.85056,627.49295"
       id="guide4853" />
    <sodipodi:guide
       orientation="0.49999997,-0.86602542"
       position="466.85056,493.08015"
       id="guide4859" />
    <sodipodi:guide
       orientation="0,1"
       position="402.17048,613.37602"
       id="guide4867" />
    <sodipodi:guide
       orientation="1,0"
       position="281.38262,613.9839"
       id="guide4871" />
  </sodipodi:namedview>
  <defs
     id="defs4">
    <marker
       inkscape:stockid="Arrow2Mend"
       orient="auto"
       refY="0.0"
       refX="0.0"
       id="Arrow2Mend"
       style="overflow:visible;">
      <path
         id="path5128"
         style="fill-rule:evenodd;stroke-width:0.62500000;stroke-linejoin:round;"
         d="M 8.7185878,4.0337352 L -2.2072895,0.016013256 L 8.7185884,-4.0017078 C 6.9730900,-1.6296469 6.9831476,1.6157441 8.7185878,4.0337352 z "
         transform="scale(0.6) rotate(180) translate(0,0)" />
    </marker>
    <inkscape:path-effect
       effect="spiro"
       id="path-effect4895"
       is_visible="true" />
    <inkscape:path-effect
       effect="spiro"
       id="path-effect4891"
       is_visible="true" />
    <inkscape:path-effect
       effect="spiro"
       id="path-effect4887"
       is_visible="true" />
    <marker
       style="overflow:visible"
       id="TriangleInM"
       refX="0.0"
       refY="0.0"
       orient="auto"
       inkscape:stockid="TriangleInM">
      <path
         transform="scale(-0.4)"
         style="fill-rule:evenodd;stroke:#000000;stroke-width:1.0pt"
         d="M 5.77,0.0 L -2.88,5.0 L -2.88,-5.0 L 5.77,0.0 z "
         id="path4732" />
    </marker>
    <marker
       style="overflow:visible"
       id="TriangleInL"
       refX="0.0"
       refY="0.0"
       orient="auto"
       inkscape:stockid="TriangleInL">
      <path
         transform="scale(-0.8)"
         style="fill-rule:evenodd;stroke:#000000;stroke-width:1.0pt"
         d="M 5.77,0.0 L -2.88,5.0 L -2.88,-5.0 L 5.77,0.0 z "
         id="path4729" />
    </marker>
    <marker
       inkscape:stockid="TriangleOutM"
       orient="auto"
       refY="0"
       refX="0"
       id="TriangleOutM"
       style="overflow:visible">
      <path
         inkscape:connector-curvature="0"
         id="path5368"
         d="m 5.77,0 -8.65,5 0,-10 8.65,5 z"
         style="fill-rule:evenodd;stroke:#000000;stroke-width:1pt;marker-start:none"
         transform="scale(0.4,0.4)" />
    </marker>
    <marker
       style="overflow:visible"
       id="Arrow2Mend-4"
       refX="0"
       refY="0"
       orient="auto"
       inkscape:stockid="Arrow2Mend">
      <path
         inkscape:connector-curvature="0"
         transform="scale(-0.6,-0.6)"
         d="M 8.7185878,4.0337352 -2.2072895,0.01601326 8.7185884,-4.0017078 c -1.7454984,2.3720609 -1.7354408,5.6174519 -6e-7,8.035443 z"
         style="fill-rule:evenodd;stroke-width:0.625;stroke-linejoin:round"
         id="path5128-3" />
    </marker>
    <marker
       style="overflow:visible"
       id="marker7774"
       refX="0"
       refY="0"
       orient="auto"
       inkscape:stockid="Arrow2Mend">
      <path
         inkscape:connector-curvature="0"
         transform="scale(-0.6,-0.6)"
         d="M 8.7185878,4.0337352 -2.2072895,0.01601326 8.7185884,-4.0017078 c -1.7454984,2.3720609 -1.7354408,5.6174519 -6e-7,8.035443 z"
         style="fill-rule:evenodd;stroke-width:0.625;stroke-linejoin:round"
         id="path7776" />
    </marker>
  </defs>
  <metadata
     id="metadata7">
    <rdf:RDF>
      <cc:Work
         rdf:about="">
        <dc:format>image/svg+xml</dc:format>
        <dc:type
           rdf:resource="http://purl.org/dc/dcmitype/StillImage" />
        <dc:title>Scherung</dc:title>
        <dc:date>2015-01-15</dc:date>
        <dc:creator>
          <cc:Agent>
            <dc:title>Bernhard Grotz</dc:title>
          </cc:Agent>
        </dc:creator>
        <dc:rights>
          <cc:Agent>
            <dc:title>Bernhard Grotz</dc:title>
          </cc:Agent>
        </dc:rights>
        <dc:publisher>
          <cc:Agent>
            <dc:title>Bernhard Grotz</dc:title>
          </cc:Agent>
        </dc:publisher>
        <dc:language>de-DE</dc:language>
        <dc:subject>
          <rdf:Bag>
            <rdf:li>Physik</rdf:li>
            <rdf:li>Mechanik</rdf:li>
            <rdf:li>Scherung</rdf:li>
          </rdf:Bag>
        </dc:subject>
        <cc:license
           rdf:resource="http://creativecommons.org/licenses/by-nc-sa/3.0/" />
      </cc:Work>
      <cc:License
         rdf:about="http://creativecommons.org/licenses/by-nc-sa/3.0/">
        <cc:permits
           rdf:resource="http://creativecommons.org/ns#Reproduction" />
        <cc:permits
           rdf:resource="http://creativecommons.org/ns#Distribution" />
        <cc:requires
           rdf:resource="http://creativecommons.org/ns#Notice" />
        <cc:requires
           rdf:resource="http://creativecommons.org/ns#Attribution" />
        <cc:prohibits
           rdf:resource="http://creativecommons.org/ns#CommercialUse" />
        <cc:permits
           rdf:resource="http://creativecommons.org/ns#DerivativeWorks" />
        <cc:requires
           rdf:resource="http://creativecommons.org/ns#ShareAlike" />
      </cc:License>
    </rdf:RDF>
  </metadata>
  <g
     id="layer1"
     inkscape:groupmode="layer"
     inkscape:label="Layer 1">
    <rect
       style="color:#000000;fill:#ffffff;fill-opacity:1;fill-rule:nonzero;stroke:#ffffff;stroke-width:1.00000024;stroke-linecap:round;stroke-linejoin:round;stroke-miterlimit:4;stroke-opacity:1;stroke-dasharray:1.00000002, 2.99999998;stroke-dashoffset:0;marker:none;visibility:visible;display:inline;overflow:visible;enable-background:accumulate"
       id="rect7189"
       width="704.14954"
       height="461.1954"
       x="21.677561"
       y="296.1246"
       inkscape:export-filename="/home/waldgeist/data/homepage/pics/physik/mechanik/fluessigkeiten-und-gase/scherung-beispiel.png"
       inkscape:export-xdpi="150"
       inkscape:export-ydpi="150" />
    <rect
       style="color:#000000;fill:#cccccc;fill-opacity:1;fill-rule:nonzero;stroke:#333333;stroke-width:1;stroke-linecap:round;stroke-linejoin:round;stroke-miterlimit:4;stroke-opacity:1;stroke-dasharray:none;stroke-dashoffset:0;marker:none;visibility:visible;display:inline;overflow:visible;enable-background:accumulate"
       id="rect7047"
       width="283.27893"
       height="107.25117"
       x="148.86784"
       y="526.18109"
       inkscape:export-filename="/home/waldgeist/data/homepage/pics/physik/mechanik/fluessigkeiten-und-gase/scherung-beispiel.png"
       inkscape:export-xdpi="150"
       inkscape:export-ydpi="150" />
    <rect
       y="418.9299"
       x="311.94775"
       height="107.25117"
       width="283.27893"
       id="rect7581"
       style="color:#000000;fill:#cccccc;fill-opacity:1;fill-rule:nonzero;stroke:#333333;stroke-width:1;stroke-linecap:round;stroke-linejoin:round;stroke-miterlimit:4;stroke-opacity:1;stroke-dasharray:none;stroke-dashoffset:0;marker:none;visibility:visible;display:inline;overflow:visible;enable-background:accumulate"
       inkscape:export-filename="/home/waldgeist/data/homepage/pics/physik/mechanik/fluessigkeiten-und-gase/scherung-beispiel.png"
       inkscape:export-xdpi="150"
       inkscape:export-ydpi="150" />
    <g
       id="g7735"
       transform="matrix(0.93323912,0,0,0.93323912,-0.5831031,81.769765)"
       inkscape:export-filename="/home/waldgeist/data/homepage/pics/physik/mechanik/fluessigkeiten-und-gase/scherung-beispiel.png"
       inkscape:export-xdpi="150"
       inkscape:export-ydpi="150">
      <rect
         transform="matrix(0,-1,1,0,0,0)"
         inkscape:export-ydpi="150"
         inkscape:export-xdpi="150"
         inkscape:export-filename="/home/waldgeist/data/homepage/pics/physik/mechanik/fluessigkeiten-und-gase/dehnung.png"
         style="color:#000000;fill:#999999;fill-opacity:1;fill-rule:nonzero;stroke:#333333;stroke-width:1.07153678;marker:none;visibility:visible;display:inline;overflow:visible;enable-background:accumulate"
         id="rect6510"
         width="407.65607"
         height="71.642532"
         x="-680.61102"
         y="365.29291" />
      <path
         inkscape:connector-curvature="0"
         id="path7609"
         d="m 436.78125,608.3125 a 7.0007,7.0007 0 0 0 -0.46875,0.0312 l -71.65625,6.46875 a 7.0007,7.0007 0 1 0 1.28125,13.9375 l 71.625,-6.4375 a 7.0108907,7.0108907 0 1 0 -0.78125,-14 z"
         style="font-size:medium;font-style:normal;font-variant:normal;font-weight:normal;font-stretch:normal;text-indent:0;text-align:start;text-decoration:none;line-height:normal;letter-spacing:normal;word-spacing:normal;text-transform:none;direction:ltr;block-progression:tb;writing-mode:lr-tb;text-anchor:start;baseline-shift:baseline;color:#000000;fill:#b3b3b3;fill-opacity:1;fill-rule:nonzero;stroke:#666666;stroke-width:1.07153678;marker:none;visibility:visible;display:inline;overflow:visible;enable-background:accumulate;font-family:Sans;-inkscape-font-specification:Sans" />
      <path
         inkscape:connector-curvature="0"
         id="path7587"
         d="m 436.78125,375.3125 a 7.0007,7.0007 0 0 0 -0.46875,0.0312 l -71.65625,6.46875 a 7.0007,7.0007 0 1 0 1.28125,13.9375 l 71.625,-6.46875 a 7.0007,7.0007 0 0 0 -0.78125,-13.96875 z"
         style="font-size:medium;font-style:normal;font-variant:normal;font-weight:normal;font-stretch:normal;text-indent:0;text-align:start;text-decoration:none;line-height:normal;letter-spacing:normal;word-spacing:normal;text-transform:none;direction:ltr;block-progression:tb;writing-mode:lr-tb;text-anchor:start;baseline-shift:baseline;color:#000000;fill:#b3b3b3;fill-opacity:1;fill-rule:nonzero;stroke:#666666;stroke-width:1.07153678;marker:none;visibility:visible;display:inline;overflow:visible;enable-background:accumulate;font-family:Sans;-inkscape-font-specification:Sans" />
      <path
         inkscape:connector-curvature="0"
         id="path7593"
         d="m 436.78125,401.21875 a 7.0007,7.0007 0 0 0 -0.46875,0.0312 l -71.65625,6.4375 a 7.0136934,7.0136934 0 1 0 1.28125,13.96875 l 71.625,-6.46875 a 7.0007,7.0007 0 0 0 -0.78125,-13.96875 z"
         style="font-size:medium;font-style:normal;font-variant:normal;font-weight:normal;font-stretch:normal;text-indent:0;text-align:start;text-decoration:none;line-height:normal;letter-spacing:normal;word-spacing:normal;text-transform:none;direction:ltr;block-progression:tb;writing-mode:lr-tb;text-anchor:start;baseline-shift:baseline;color:#000000;fill:#b3b3b3;fill-opacity:1;fill-rule:nonzero;stroke:#666666;stroke-width:1.07153678;marker:none;visibility:visible;display:inline;overflow:visible;enable-background:accumulate;font-family:Sans;-inkscape-font-specification:Sans" />
      <path
         inkscape:connector-curvature="0"
         id="path7595"
         d="m 436.78125,427.09375 a 7.0007,7.0007 0 0 0 -0.46875,0.0312 l -71.65625,6.46875 a 7.0007,7.0007 0 1 0 1.28125,13.9375 l 71.625,-6.46875 a 7.0007,7.0007 0 0 0 -0.78125,-13.96875 z"
         style="font-size:medium;font-style:normal;font-variant:normal;font-weight:normal;font-stretch:normal;text-indent:0;text-align:start;text-decoration:none;line-height:normal;letter-spacing:normal;word-spacing:normal;text-transform:none;direction:ltr;block-progression:tb;writing-mode:lr-tb;text-anchor:start;baseline-shift:baseline;color:#000000;fill:#b3b3b3;fill-opacity:1;fill-rule:nonzero;stroke:#666666;stroke-width:1.07153678;marker:none;visibility:visible;display:inline;overflow:visible;enable-background:accumulate;font-family:Sans;-inkscape-font-specification:Sans" />
      <path
         inkscape:connector-curvature="0"
         id="path7597"
         d="m 436.78125,452.96875 a 7.0007,7.0007 0 0 0 -0.46875,0.0625 l -71.65625,6.4375 a 7.0136934,7.0136934 0 1 0 1.28125,13.96875 l 71.625,-6.46875 a 7.0108907,7.0108907 0 1 0 -0.78125,-14 z"
         style="font-size:medium;font-style:normal;font-variant:normal;font-weight:normal;font-stretch:normal;text-indent:0;text-align:start;text-decoration:none;line-height:normal;letter-spacing:normal;word-spacing:normal;text-transform:none;direction:ltr;block-progression:tb;writing-mode:lr-tb;text-anchor:start;baseline-shift:baseline;color:#000000;fill:#b3b3b3;fill-opacity:1;fill-rule:nonzero;stroke:#666666;stroke-width:1.07153678;marker:none;visibility:visible;display:inline;overflow:visible;enable-background:accumulate;font-family:Sans;-inkscape-font-specification:Sans" />
      <path
         inkscape:connector-curvature="0"
         id="path7599"
         d="m 436.78125,478.875 a 7.0007,7.0007 0 0 0 -0.46875,0.0312 l -71.65625,6.46875 a 7.0007,7.0007 0 1 0 1.28125,13.9375 l 71.625,-6.46875 a 7.0007,7.0007 0 0 0 -0.78125,-13.9687 z"
         style="font-size:medium;font-style:normal;font-variant:normal;font-weight:normal;font-stretch:normal;text-indent:0;text-align:start;text-decoration:none;line-height:normal;letter-spacing:normal;word-spacing:normal;text-transform:none;direction:ltr;block-progression:tb;writing-mode:lr-tb;text-anchor:start;baseline-shift:baseline;color:#000000;fill:#b3b3b3;fill-opacity:1;fill-rule:nonzero;stroke:#666666;stroke-width:1.07153678;marker:none;visibility:visible;display:inline;overflow:visible;enable-background:accumulate;font-family:Sans;-inkscape-font-specification:Sans" />
      <path
         inkscape:connector-curvature="0"
         id="path7601"
         d="m 436.78125,504.75 a 7.0007,7.0007 0 0 0 -0.46875,0.0625 l -71.65625,6.4375 a 7.0136934,7.0136934 0 1 0 1.28125,13.96875 l 71.625,-6.46875 a 7.0108907,7.0108907 0 1 0 -0.78125,-14 z"
         style="font-size:medium;font-style:normal;font-variant:normal;font-weight:normal;font-stretch:normal;text-indent:0;text-align:start;text-decoration:none;line-height:normal;letter-spacing:normal;word-spacing:normal;text-transform:none;direction:ltr;block-progression:tb;writing-mode:lr-tb;text-anchor:start;baseline-shift:baseline;color:#000000;fill:#b3b3b3;fill-opacity:1;fill-rule:nonzero;stroke:#666666;stroke-width:1.07153678;marker:none;visibility:visible;display:inline;overflow:visible;enable-background:accumulate;font-family:Sans;-inkscape-font-specification:Sans" />
      <path
         inkscape:connector-curvature="0"
         id="path7603"
         d="m 436.78125,530.65625 a 7.0007,7.0007 0 0 0 -0.46875,0.0312 l -71.65625,6.46875 a 7.0007,7.0007 0 1 0 1.28125,13.9375 l 71.625,-6.46875 a 7.0007,7.0007 0 0 0 -0.78125,-13.96875 z"
         style="font-size:medium;font-style:normal;font-variant:normal;font-weight:normal;font-stretch:normal;text-indent:0;text-align:start;text-decoration:none;line-height:normal;letter-spacing:normal;word-spacing:normal;text-transform:none;direction:ltr;block-progression:tb;writing-mode:lr-tb;text-anchor:start;baseline-shift:baseline;color:#000000;fill:#b3b3b3;fill-opacity:1;fill-rule:nonzero;stroke:#666666;stroke-width:1.07153678;marker:none;visibility:visible;display:inline;overflow:visible;enable-background:accumulate;font-family:Sans;-inkscape-font-specification:Sans" />
      <path
         inkscape:connector-curvature="0"
         id="path7605"
         d="m 436.78125,556.53125 a 7.0007,7.0007 0 0 0 -0.46875,0.0312 l -71.65625,6.46875 A 7.0137183,7.0137183 0 1 0 365.9375,577 l 71.625,-6.46875 a 7.0108907,7.0108907 0 1 0 -0.78125,-14 z"
         style="font-size:medium;font-style:normal;font-variant:normal;font-weight:normal;font-stretch:normal;text-indent:0;text-align:start;text-decoration:none;line-height:normal;letter-spacing:normal;word-spacing:normal;text-transform:none;direction:ltr;block-progression:tb;writing-mode:lr-tb;text-anchor:start;baseline-shift:baseline;color:#000000;fill:#b3b3b3;fill-opacity:1;fill-rule:nonzero;stroke:#666666;stroke-width:1.07153678;marker:none;visibility:visible;display:inline;overflow:visible;enable-background:accumulate;font-family:Sans;-inkscape-font-specification:Sans" />
      <path
         inkscape:connector-curvature="0"
         id="path7607"
         d="m 436.78125,582.4375 a 7.0007,7.0007 0 0 0 -0.46875,0.0312 l -71.65625,6.46875 a 7.0007,7.0007 0 1 0 1.28125,13.9375 l 71.625,-6.46875 a 7.0007,7.0007 0 0 0 -0.78125,-13.96875 z"
         style="font-size:medium;font-style:normal;font-variant:normal;font-weight:normal;font-stretch:normal;text-indent:0;text-align:start;text-decoration:none;line-height:normal;letter-spacing:normal;word-spacing:normal;text-transform:none;direction:ltr;block-progression:tb;writing-mode:lr-tb;text-anchor:start;baseline-shift:baseline;color:#000000;fill:#b3b3b3;fill-opacity:1;fill-rule:nonzero;stroke:#666666;stroke-width:1.07153678;marker:none;visibility:visible;display:inline;overflow:visible;enable-background:accumulate;font-family:Sans;-inkscape-font-specification:Sans" />
      <path
         inkscape:connector-curvature="0"
         id="path7611"
         d="m 436.78125,634.21875 a 7.0007,7.0007 0 0 0 -0.46875,0.0312 l -71.65625,6.46875 a 7.0007,7.0007 0 1 0 1.28125,13.9375 l 71.625,-6.46875 a 7.0007,7.0007 0 0 0 -0.78125,-13.96875 z"
         style="font-size:medium;font-style:normal;font-variant:normal;font-weight:normal;font-stretch:normal;text-indent:0;text-align:start;text-decoration:none;line-height:normal;letter-spacing:normal;word-spacing:normal;text-transform:none;direction:ltr;block-progression:tb;writing-mode:lr-tb;text-anchor:start;baseline-shift:baseline;color:#000000;fill:#b3b3b3;fill-opacity:1;fill-rule:nonzero;stroke:#666666;stroke-width:1.07153678;marker:none;visibility:visible;display:inline;overflow:visible;enable-background:accumulate;font-family:Sans;-inkscape-font-specification:Sans" />
      <path
         inkscape:connector-curvature="0"
         id="path7613"
         d="m 436.78125,660.09375 a 7.0007,7.0007 0 0 0 -0.46875,0.0312 l -71.65625,6.46875 a 7.0007,7.0007 0 1 0 1.28125,13.9375 l 71.625,-6.4375 a 7.0108907,7.0108907 0 1 0 -0.78125,-14 z"
         style="font-size:medium;font-style:normal;font-variant:normal;font-weight:normal;font-stretch:normal;text-indent:0;text-align:start;text-decoration:none;line-height:normal;letter-spacing:normal;word-spacing:normal;text-transform:none;direction:ltr;block-progression:tb;writing-mode:lr-tb;text-anchor:start;baseline-shift:baseline;color:#000000;fill:#b3b3b3;fill-opacity:1;fill-rule:nonzero;stroke:#666666;stroke-width:1.07153678;marker:none;visibility:visible;display:inline;overflow:visible;enable-background:accumulate;font-family:Sans;-inkscape-font-specification:Sans" />
      <path
         inkscape:connector-curvature="0"
         id="path7617"
         d="m 435.625,349.4375 a 7.0007,7.0007 0 0 0 -0.5,0.0312 l -71.625,6.4688 a 7.0007,7.0007 0 1 0 1.25,13.9375 l 71.625,-6.46875 a 7.0007,7.0007 0 0 0 -0.75,-13.96875 z"
         style="font-size:medium;font-style:normal;font-variant:normal;font-weight:normal;font-stretch:normal;text-indent:0;text-align:start;text-decoration:none;line-height:normal;letter-spacing:normal;word-spacing:normal;text-transform:none;direction:ltr;block-progression:tb;writing-mode:lr-tb;text-anchor:start;baseline-shift:baseline;color:#000000;fill:#b3b3b3;fill-opacity:1;fill-rule:nonzero;stroke:#666666;stroke-width:1.07153678;marker:none;visibility:visible;display:inline;overflow:visible;enable-background:accumulate;font-family:Sans;-inkscape-font-specification:Sans" />
      <path
         style="font-size:medium;font-style:normal;font-variant:normal;font-weight:normal;font-stretch:normal;text-indent:0;text-align:start;text-decoration:none;line-height:normal;letter-spacing:normal;word-spacing:normal;text-transform:none;direction:ltr;block-progression:tb;writing-mode:lr-tb;text-anchor:start;baseline-shift:baseline;color:#000000;fill:#b3b3b3;fill-opacity:1;fill-rule:nonzero;stroke:#666666;stroke-width:1.07153678;marker:none;visibility:visible;display:inline;overflow:visible;enable-background:accumulate;font-family:Sans;-inkscape-font-specification:Sans"
         d="m 435.48825,323.54338 a 7.0007,7.0007 0 0 0 -0.46875,0.0312 l -71.65625,6.46875 a 7.0007,7.0007 0 1 0 1.28125,13.9375 l 71.625,-6.46875 a 7.0007,7.0007 0 0 0 -0.78125,-13.96875 z"
         id="path7719"
         inkscape:connector-curvature="0" />
      <path
         style="font-size:medium;font-style:normal;font-variant:normal;font-weight:normal;font-stretch:normal;text-indent:0;text-align:start;text-decoration:none;line-height:normal;letter-spacing:normal;word-spacing:normal;text-transform:none;direction:ltr;block-progression:tb;writing-mode:lr-tb;text-anchor:start;baseline-shift:baseline;color:#000000;fill:#b3b3b3;fill-opacity:1;fill-rule:nonzero;stroke:#666666;stroke-width:1.07153678;marker:none;visibility:visible;display:inline;overflow:visible;enable-background:accumulate;font-family:Sans;-inkscape-font-specification:Sans"
         d="m 435.48825,349.44963 a 7.0007,7.0007 0 0 0 -0.46875,0.0312 l -71.65625,6.4375 a 7.0136934,7.0136934 0 1 0 1.28125,13.96875 l 71.625,-6.46875 a 7.0007,7.0007 0 0 0 -0.78125,-13.96875 z"
         id="path7721"
         inkscape:connector-curvature="0" />
      <path
         style="font-size:medium;font-style:normal;font-variant:normal;font-weight:normal;font-stretch:normal;text-indent:0;text-align:start;text-decoration:none;line-height:normal;letter-spacing:normal;word-spacing:normal;text-transform:none;direction:ltr;block-progression:tb;writing-mode:lr-tb;text-anchor:start;baseline-shift:baseline;color:#000000;fill:#b3b3b3;fill-opacity:1;fill-rule:nonzero;stroke:#666666;stroke-width:1.07153678;marker:none;visibility:visible;display:inline;overflow:visible;enable-background:accumulate;font-family:Sans;-inkscape-font-specification:Sans"
         d="m 434.332,297.66838 a 7.0007,7.0007 0 0 0 -0.5,0.0312 l -71.625,6.4688 a 7.0007,7.0007 0 1 0 1.25,13.9375 l 71.625,-6.46875 a 7.0007,7.0007 0 0 0 -0.75,-13.96875 z"
         id="path7723"
         inkscape:connector-curvature="0" />
      <path
         inkscape:connector-curvature="0"
         id="path7725"
         d="m 434.28274,297.67055 a 7.0007,7.0007 0 0 0 -0.46875,0.0312 l -71.65625,6.46875 a 7.0007,7.0007 0 1 0 1.28125,13.9375 l 71.625,-6.46875 a 7.0007,7.0007 0 0 0 -0.78125,-13.96875 z"
         style="font-size:medium;font-style:normal;font-variant:normal;font-weight:normal;font-stretch:normal;text-indent:0;text-align:start;text-decoration:none;line-height:normal;letter-spacing:normal;word-spacing:normal;text-transform:none;direction:ltr;block-progression:tb;writing-mode:lr-tb;text-anchor:start;baseline-shift:baseline;color:#000000;fill:#b3b3b3;fill-opacity:1;fill-rule:nonzero;stroke:#666666;stroke-width:1.07153678;marker:none;visibility:visible;display:inline;overflow:visible;enable-background:accumulate;font-family:Sans;-inkscape-font-specification:Sans" />
      <path
         inkscape:connector-curvature="0"
         id="path7727"
         d="m 433.12649,271.79555 a 7.0007,7.0007 0 0 0 -0.5,0.0312 l -71.625,6.4688 a 7.0007,7.0007 0 1 0 1.25,13.9375 l 71.625,-6.46875 a 7.0007,7.0007 0 0 0 -0.75,-13.96875 z"
         style="font-size:medium;font-style:normal;font-variant:normal;font-weight:normal;font-stretch:normal;text-indent:0;text-align:start;text-decoration:none;line-height:normal;letter-spacing:normal;word-spacing:normal;text-transform:none;direction:ltr;block-progression:tb;writing-mode:lr-tb;text-anchor:start;baseline-shift:baseline;color:#000000;fill:#b3b3b3;fill-opacity:1;fill-rule:nonzero;stroke:#666666;stroke-width:1.07153678;marker:none;visibility:visible;display:inline;overflow:visible;enable-background:accumulate;font-family:Sans;-inkscape-font-specification:Sans" />
    </g>
    <g
       id="g7729"
       transform="matrix(0.93323912,0,0,0.93323912,-0.55389856,80.795991)"
       inkscape:export-filename="/home/waldgeist/data/homepage/pics/physik/mechanik/fluessigkeiten-und-gase/scherung-beispiel.png"
       inkscape:export-xdpi="150"
       inkscape:export-ydpi="150">
      <rect
         style="color:#000000;fill:#999999;fill-opacity:1;fill-rule:nonzero;stroke:#333333;stroke-width:1.07153678;stroke-linecap:round;stroke-linejoin:round;stroke-miterlimit:4;stroke-opacity:1;stroke-dasharray:none;stroke-dashoffset:0;marker:none;visibility:visible;display:inline;overflow:visible;enable-background:accumulate"
         id="rect7585"
         width="115.29632"
         height="56.577763"
         x="343.466"
         y="594.48364" />
      <path
         style="fill:#999999;fill-opacity:1;stroke:none"
         d="m 378.71879,650.0614 0,-54.57776 44.79076,0 0,54.57776 z"
         id="path7687"
         inkscape:connector-curvature="0" />
      <path
         style="fill:none;stroke:#333333;stroke-width:1.07153678px;stroke-linecap:butt;stroke-linejoin:miter;stroke-opacity:1"
         d="m 377.89812,594.09851 0,56.57776"
         id="path7689"
         inkscape:connector-curvature="0" />
      <path
         inkscape:connector-curvature="0"
         id="path7691"
         d="m 424.33024,594.09851 0,56.57776"
         style="fill:none;stroke:#333333;stroke-width:1.07153678px;stroke-linecap:butt;stroke-linejoin:miter;stroke-opacity:1" />
    </g>
    <g
       id="g7756"
       transform="matrix(0.93323912,0,0,0.93323912,-7.3245922,296.71682)"
       inkscape:export-filename="/home/waldgeist/data/homepage/pics/physik/mechanik/fluessigkeiten-und-gase/scherung-beispiel.png"
       inkscape:export-xdpi="150"
       inkscape:export-ydpi="150">
      <rect
         y="72.58976"
         x="348.07971"
         height="56.577763"
         width="115.29632"
         id="rect7583"
         style="color:#000000;fill:#999999;fill-opacity:1;fill-rule:nonzero;stroke:#333333;stroke-width:1.07153678;stroke-linecap:round;stroke-linejoin:round;stroke-miterlimit:4;stroke-opacity:1;stroke-dasharray:none;stroke-dashoffset:0;marker:none;visibility:visible;display:inline;overflow:visible;enable-background:accumulate" />
      <path
         inkscape:connector-curvature="0"
         id="path7677"
         d="m 382.51182,72.589746 0,56.577764"
         style="fill:none;stroke:#333333;stroke-width:1.07153678px;stroke-linecap:butt;stroke-linejoin:miter;stroke-opacity:1" />
      <path
         style="fill:none;stroke:#333333;stroke-width:1.07153678px;stroke-linecap:butt;stroke-linejoin:miter;stroke-opacity:1"
         d="m 428.94394,72.589746 0,56.577764"
         id="path7679"
         inkscape:connector-curvature="0" />
      <path
         inkscape:connector-curvature="0"
         id="path7685"
         d="m 383.3325,128.16751 0,-54.577764 44.79076,0 0,54.577764 z"
         style="fill:#999999;fill-opacity:1;stroke:none" />
    </g>
    <path
       inkscape:connector-curvature="0"
       id="path5547"
       d="m 148.86784,579.80667 -111.014433,0"
       style="fill:none;stroke:#d40000;stroke-width:3;stroke-linecap:round;stroke-linejoin:miter;stroke-opacity:1;marker-end:url(#Arrow2Mend)"
       inkscape:export-filename="/home/waldgeist/data/homepage/pics/physik/mechanik/fluessigkeiten-und-gase/scherung-beispiel.png"
       inkscape:export-xdpi="150"
       inkscape:export-ydpi="150" />
    <path
       style="fill:none;stroke:#d40000;stroke-width:3;stroke-linecap:round;stroke-linejoin:miter;stroke-opacity:1;marker-end:url(#Arrow2Mend)"
       d="m 595.22668,472.5555 111.01445,0"
       id="path6489"
       inkscape:connector-curvature="0"
       inkscape:export-filename="/home/waldgeist/data/homepage/pics/physik/mechanik/fluessigkeiten-und-gase/scherung-beispiel.png"
       inkscape:export-xdpi="150"
       inkscape:export-ydpi="150" />
    <g
       id="g6561"
       ns0:preamble="/home/waldgeist/data/sphinx/inkscape-preamble.tex"
       ns0:text="$\\vec{F}$"
       transform="matrix(3,0,0,3,16.80812,50.852795)"
       style="fill:#d40000"
       inkscape:export-filename="/home/waldgeist/data/homepage/pics/physik/mechanik/fluessigkeiten-und-gase/scherung-beispiel.png"
       inkscape:export-xdpi="150"
       inkscape:export-ydpi="150">
      <defs
         id="defs6563">
        <g
           id="g6565">
          <symbol
             id="textext-ecb1a24e-0"
             overflow="visible"
             style="overflow:visible">
            <path
               id="path6568"
               d=""
               style="stroke:none"
               inkscape:connector-curvature="0" />
          </symbol>
          <symbol
             id="textext-ecb1a24e-1"
             overflow="visible"
             style="overflow:visible">
            <path
               id="path6571"
               d="m 5.359375,-5.9375 c -0.140625,0.140625 -0.46875,0.421875 -0.46875,0.59375 0,0.09375 0.09375,0.203125 0.1875,0.203125 0.09375,0 0.140625,-0.078125 0.203125,-0.140625 C 5.390625,-5.421875 5.625,-5.703125 6.0625,-5.921875 6.125,-5.96875 6.234375,-6.015625 6.234375,-6.125 6.234375,-6.234375 6.15625,-6.28125 6.09375,-6.328125 5.875,-6.484375 5.765625,-6.65625 5.6875,-6.890625 5.65625,-6.984375 5.625,-7.125 5.484375,-7.125 c -0.140625,0 -0.203125,0.140625 -0.203125,0.21875 0,0.046875 0.078125,0.359375 0.234375,0.578125 l -3.359375,0 c -0.15625,0 -0.34375,0 -0.34375,0.203125 0,0.1875 0.1875,0.1875 0.34375,0.1875 z m 0,0"
               style="stroke:none"
               inkscape:connector-curvature="0" />
          </symbol>
          <symbol
             id="textext-ecb1a24e-2"
             overflow="visible"
             style="overflow:visible">
            <path
               id="path6574"
               d="m 3.015625,-3.234375 0.96875,0 c 0.75,0 0.828125,0.15625 0.828125,0.4375 0,0.078125 0,0.1875 -0.0625,0.5 C 4.71875,-2.25 4.71875,-2.21875 4.71875,-2.1875 c 0,0.078125 0.0625,0.109375 0.109375,0.109375 0.109375,0 0.109375,-0.03125 0.15625,-0.203125 L 5.53125,-4.453125 C 5.5625,-4.5625 5.5625,-4.578125 5.5625,-4.609375 5.5625,-4.625 5.546875,-4.71875 5.4375,-4.71875 5.34375,-4.71875 5.328125,-4.671875 5.296875,-4.5 5.078125,-3.734375 4.859375,-3.546875 4,-3.546875 l -0.90625,0 0.640625,-2.53125 C 3.828125,-6.4375 3.84375,-6.46875 4.28125,-6.46875 l 1.3125,0 c 1.21875,0 1.453125,0.328125 1.453125,1.09375 0,0.234375 0,0.265625 -0.03125,0.546875 C 7,-4.703125 7,-4.6875 7,-4.65625 c 0,0.046875 0.03125,0.125 0.125,0.125 0.109375,0 0.109375,-0.0625 0.125,-0.25 L 7.453125,-6.515625 C 7.484375,-6.78125 7.4375,-6.78125 7.1875,-6.78125 l -4.890625,0 c -0.1875,0 -0.296875,0 -0.296875,0.203125 0,0.109375 0.09375,0.109375 0.28125,0.109375 0.375,0 0.65625,0 0.65625,0.171875 0,0.046875 0,0.0625 -0.0625,0.25 L 1.5625,-0.78125 c -0.09375,0.390625 -0.109375,0.46875 -0.90625,0.46875 -0.171875,0 -0.28125,0 -0.28125,0.1875 C 0.375,0 0.5,0 0.53125,0 0.8125,0 1.5625,-0.03125 1.84375,-0.03125 2.171875,-0.03125 3,0 3.328125,0 3.421875,0 3.53125,0 3.53125,-0.1875 3.53125,-0.265625 3.484375,-0.296875 3.484375,-0.296875 3.453125,-0.3125 3.421875,-0.3125 3.203125,-0.3125 c -0.21875,0 -0.265625,0 -0.515625,-0.015625 -0.296875,-0.03125 -0.328125,-0.078125 -0.328125,-0.203125 0,-0.015625 0,-0.078125 0.046875,-0.21875 z m 0,0"
               style="stroke:none"
               inkscape:connector-curvature="0" />
          </symbol>
        </g>
      </defs>
      <g
         id="textext-ecb1a24e-3"
         style="fill:#d40000">
        <g
           id="g6577"
           style="fill:#d40000;fill-opacity:1">
          <use
             id="use6579"
             y="132.246"
             x="224.901"
             xlink:href="#textext-ecb1a24e-1"
             width="744.09448"
             height="1052.3622"
             style="fill:#d40000" />
        </g>
        <g
           id="g6581"
           style="fill:#d40000;fill-opacity:1">
          <use
             id="use6583"
             y="134.765"
             x="223.43201"
             xlink:href="#textext-ecb1a24e-2"
             width="744.09448"
             height="1052.3622"
             style="fill:#d40000" />
        </g>
      </g>
    </g>
    <g
       transform="matrix(3,0,0,3,-637.54075,158.10397)"
       ns0:text="$\\vec{F}$"
       ns0:preamble="/home/waldgeist/data/sphinx/inkscape-preamble.tex"
       id="g6646"
       style="fill:#d40000"
       inkscape:export-filename="/home/waldgeist/data/homepage/pics/physik/mechanik/fluessigkeiten-und-gase/scherung-beispiel.png"
       inkscape:export-xdpi="150"
       inkscape:export-ydpi="150">
      <defs
         id="defs6648">
        <g
           id="g6650">
          <symbol
             style="overflow:visible"
             overflow="visible"
             id="symbol6652">
            <path
               inkscape:connector-curvature="0"
               style="stroke:none"
               d=""
               id="path6654" />
          </symbol>
          <symbol
             style="overflow:visible"
             overflow="visible"
             id="symbol6656">
            <path
               inkscape:connector-curvature="0"
               style="stroke:none"
               d="m 5.359375,-5.9375 c -0.140625,0.140625 -0.46875,0.421875 -0.46875,0.59375 0,0.09375 0.09375,0.203125 0.1875,0.203125 0.09375,0 0.140625,-0.078125 0.203125,-0.140625 C 5.390625,-5.421875 5.625,-5.703125 6.0625,-5.921875 6.125,-5.96875 6.234375,-6.015625 6.234375,-6.125 6.234375,-6.234375 6.15625,-6.28125 6.09375,-6.328125 5.875,-6.484375 5.765625,-6.65625 5.6875,-6.890625 5.65625,-6.984375 5.625,-7.125 5.484375,-7.125 c -0.140625,0 -0.203125,0.140625 -0.203125,0.21875 0,0.046875 0.078125,0.359375 0.234375,0.578125 l -3.359375,0 c -0.15625,0 -0.34375,0 -0.34375,0.203125 0,0.1875 0.1875,0.1875 0.34375,0.1875 z m 0,0"
               id="path6658" />
          </symbol>
          <symbol
             style="overflow:visible"
             overflow="visible"
             id="symbol6660">
            <path
               inkscape:connector-curvature="0"
               style="stroke:none"
               d="m 3.015625,-3.234375 0.96875,0 c 0.75,0 0.828125,0.15625 0.828125,0.4375 0,0.078125 0,0.1875 -0.0625,0.5 C 4.71875,-2.25 4.71875,-2.21875 4.71875,-2.1875 c 0,0.078125 0.0625,0.109375 0.109375,0.109375 0.109375,0 0.109375,-0.03125 0.15625,-0.203125 L 5.53125,-4.453125 C 5.5625,-4.5625 5.5625,-4.578125 5.5625,-4.609375 5.5625,-4.625 5.546875,-4.71875 5.4375,-4.71875 5.34375,-4.71875 5.328125,-4.671875 5.296875,-4.5 5.078125,-3.734375 4.859375,-3.546875 4,-3.546875 l -0.90625,0 0.640625,-2.53125 C 3.828125,-6.4375 3.84375,-6.46875 4.28125,-6.46875 l 1.3125,0 c 1.21875,0 1.453125,0.328125 1.453125,1.09375 0,0.234375 0,0.265625 -0.03125,0.546875 C 7,-4.703125 7,-4.6875 7,-4.65625 c 0,0.046875 0.03125,0.125 0.125,0.125 0.109375,0 0.109375,-0.0625 0.125,-0.25 L 7.453125,-6.515625 C 7.484375,-6.78125 7.4375,-6.78125 7.1875,-6.78125 l -4.890625,0 c -0.1875,0 -0.296875,0 -0.296875,0.203125 0,0.109375 0.09375,0.109375 0.28125,0.109375 0.375,0 0.65625,0 0.65625,0.171875 0,0.046875 0,0.0625 -0.0625,0.25 L 1.5625,-0.78125 c -0.09375,0.390625 -0.109375,0.46875 -0.90625,0.46875 -0.171875,0 -0.28125,0 -0.28125,0.1875 C 0.375,0 0.5,0 0.53125,0 0.8125,0 1.5625,-0.03125 1.84375,-0.03125 2.171875,-0.03125 3,0 3.328125,0 3.421875,0 3.53125,0 3.53125,-0.1875 3.53125,-0.265625 3.484375,-0.296875 3.484375,-0.296875 3.453125,-0.3125 3.421875,-0.3125 3.203125,-0.3125 c -0.21875,0 -0.265625,0 -0.515625,-0.015625 -0.296875,-0.03125 -0.328125,-0.078125 -0.328125,-0.203125 0,-0.015625 0,-0.078125 0.046875,-0.21875 z m 0,0"
               id="path6662" />
          </symbol>
        </g>
      </defs>
      <g
         id="g6664"
         style="fill:#d40000">
        <g
           style="fill:#d40000;fill-opacity:1"
           id="g6666">
          <use
             height="1052.3622"
             width="744.09448"
             xlink:href="#textext-ecb1a24e-1"
             x="224.901"
             y="132.246"
             id="use6668"
             style="fill:#d40000" />
        </g>
        <g
           style="fill:#d40000;fill-opacity:1"
           id="g6670">
          <use
             height="1052.3622"
             width="744.09448"
             xlink:href="#textext-ecb1a24e-2"
             x="223.43201"
             y="134.765"
             id="use6672"
             style="fill:#d40000" />
        </g>
      </g>
    </g>
  </g>
</svg>
