<svg xmlns:ns0="http://www.iki.fi/pav/software/textext/" xmlns="http://www.w3.org/2000/svg" xmlns:xlink="http://www.w3.org/1999/xlink" width="210mm" height="297mm"><title>Der Schweredruck</title><defs><linearGradient id="d"><stop offset="0" stop-opacity="0"/><stop offset="1" stop-color="#fff"/></linearGradient><linearGradient id="e"><stop offset="0" stop-color="#fff"/><stop offset="1" stop-color="#fff" stop-opacity="0"/></linearGradient><linearGradient id="f"><stop offset="0" stop-color="#1a1a1a" stop-opacity=".828"/><stop offset="1" stop-color="#fff"/></linearGradient><linearGradient id="a"><stop offset="0" stop-opacity="0"/><stop offset="1" stop-color="#fff"/></linearGradient><linearGradient id="b"><stop offset="0" stop-color="#ebebeb"/><stop offset="1" stop-color="#fff" stop-opacity="0"/></linearGradient><linearGradient id="c"><stop offset="0" stop-color="#0e0e0e" stop-opacity=".746"/><stop offset="1" stop-color="#fff"/></linearGradient><pattern patternUnits="userSpaceOnUse" width="30.066" height="5.181" id="g"><path d="M7.597.061C5.079-.187 2.656.302-.01 1.788v1.273c2.783-1.63 5.183-2.009 7.482-1.781 2.298.228 4.497 1.081 6.781 1.938 4.567 1.713 9.551 3.458 15.813-.157l-.004-1.273c-6.44 3.709-10.816 1.982-15.371.273-2.278-.854-4.576-1.75-7.094-2z"/></pattern><pattern patternTransform="translate(.25)" id="h" xlink:href="#g"/></defs><path style="marker:none" color="#000" fill="#fff" stroke="#fff" stroke-width="4.097" stroke-linecap="round" stroke-linejoin="bevel" overflow="visible" d="M45.649 198.676h652.797v655.011H45.649z"/><path d="M200.696 767.752V284.61" fill="none" stroke="#9b9c9f" stroke-width="3.125" stroke-linecap="round"/><path d="M542.94 767.752V284.61" fill="none" stroke="#9b9c9f" stroke-width="4.043" stroke-linecap="round"/><path d="M548 776.362a168 56 0 1 1-336 0 168 56 0 1 1 336 0z" transform="matrix(1.01858 0 0 1 -15.243 -8.61)" fill="#b3b3b3" stroke="#9b9c9f" stroke-width="2.973" stroke-linecap="round" stroke-linejoin="round"/><path transform="matrix(1.01858 0 0 1 -15.243 -491.752)" d="M548 776.362a168 56 0 1 1-336 0 168 56 0 1 1 336 0z" fill="none" stroke="#9b9c9f" stroke-width="2.973" stroke-linecap="round" stroke-linejoin="round"/><path transform="matrix(1.01858 0 0 1 -15.243 -8.61)" d="M548 776.362a168 56 0 1 1-336 0 168 56 0 1 1 336 0z" opacity=".5" fill="#afc6e9" stroke="#04a" stroke-width="2.973" stroke-linecap="round" stroke-linejoin="round"/><path transform="matrix(.4911 0 0 .48214 185.2 393.435)" d="M548 776.362a168 56 0 1 1-336 0 168 56 0 1 1 336 0z" fill="#b3b3b3" stroke="#000" stroke-width="2.055" stroke-linecap="round" stroke-linejoin="round"/><path d="M548 776.362a168 56 0 1 1-336 0 168 56 0 1 1 336 0z" transform="matrix(1.01858 0 0 1 -15.243 -335.766)" opacity=".5" fill="#afc6e9" stroke="#04a" stroke-width="2.973" stroke-linecap="round" stroke-linejoin="round"/><path d="M548 776.362a168 56 0 1 1-336 0 168 56 0 1 1 336 0z" transform="matrix(.4911 0 0 .48214 185.2 66.293)" fill="none" stroke="#000" stroke-width="2.055" stroke-linecap="round" stroke-linejoin="round"/><path d="M289.313 767.752V440.268M454.323 768.094V440.61" fill="none" stroke="#000" stroke-linecap="round"/><path d="M200.696 440.596v327.156c0-30.928 76.618-56 171.125-56 94.508 0 171.125 25.072 171.125 56V440.596c0 30.928-76.617 56-171.125 56s-171.125-25.072-171.125-56z" opacity=".5" fill="#afc7e9"/><path d="M289.313 440.354v327.313c0-14.912 36.933-27 82.5-27 45.566 0 82.53 12.088 82.53 27V440.51c-.26 14.839-37.126 26.844-82.53 26.844-45.567 0-82.5-12.088-82.5-27z" opacity=".5" fill="#afc6e9" stroke="#000"/><path transform="matrix(.4911 0 0 .48214 185.2 393.435)" d="M548 776.362a168 56 0 1 1-336 0 168 56 0 1 1 336 0z" opacity=".5" fill="#afc6e9" stroke="#4e70a4" stroke-width="2.055" stroke-linecap="round" stroke-linejoin="round"/><path d="M548 776.362a168 56 0 1 1-336 0 168 56 0 1 1 336 0z" transform="matrix(.4911 0 0 .48214 185.2 66.293)" opacity=".5" fill="#afc6e9" stroke="#4e70a4" stroke-width="2.055" stroke-linecap="round" stroke-linejoin="round"/><g fill="#d40000"><path style="text-indent:0;text-align:start;line-height:normal;text-transform:none;block-progression:tb;marker:none;-inkscape-font-specification:Sans" d="M378.848 523.713v150.414s-6.971 10.526-7.027 10.508l-7.027-10.508V523.713z" font-weight="400" color="#000" overflow="visible" font-family="Sans"/><path d="M-707.107 1620.068l-5.249-9.091-5.249-9.092h20.996l-5.249 9.091z" transform="matrix(-.48524 .00002 .00002 .4963 28.67 -129.164)" stroke="#d40000" stroke-width="28.972" stroke-linecap="square"/></g><g transform="matrix(4.54271 0 0 4.54271 -623.927 -2.363)" ns0:text="$\\vec{F}_{\\rm{G}}$" ns0:preamble="/home/waldgeist/sandbox/homepage/inkscape-preamble.tex" fill="#d40000" stroke="#d40000"><defs><symbol overflow="visible" id="i"><path d="M5.36-5.938c-.141.141-.47.422-.47.594 0 .094.094.203.188.203s.14-.078.203-.14c.11-.14.344-.422.782-.64.062-.048.171-.095.171-.204 0-.11-.078-.156-.14-.203a1.034 1.034 0 0 1-.407-.563c-.03-.093-.062-.234-.203-.234-.14 0-.203.14-.203.219 0 .047.078.36.235.578h-3.36c-.156 0-.344 0-.344.203 0 .188.188.188.344.188zm0 0" stroke="none"/></symbol><symbol overflow="visible" id="j"><path d="M3.016-3.234h.968c.75 0 .829.156.829.437 0 .078 0 .188-.063.5-.031.047-.031.078-.031.11 0 .078.062.109.11.109.109 0 .109-.031.155-.203l.547-2.172c.032-.11.032-.125.032-.156a.117.117 0 0 0-.125-.11c-.094 0-.11.047-.141.219-.219.766-.438.953-1.297.953h-.906l.64-2.531c.094-.36.11-.39.547-.39h1.313c1.218 0 1.453.327 1.453 1.093 0 .234 0 .266-.031.547C7-4.703 7-4.688 7-4.656c0 .047.031.125.125.125.11 0 .11-.063.125-.25l.203-1.735c.031-.265-.016-.265-.266-.265h-4.89c-.188 0-.297 0-.297.203 0 .11.094.11.281.11.375 0 .656 0 .656.171 0 .047 0 .063-.062.25L1.562-.78c-.093.39-.109.469-.906.469-.172 0-.281 0-.281.187C.375 0 .5 0 .531 0c.281 0 1.031-.031 1.313-.031C2.172-.031 3 0 3.328 0c.094 0 .203 0 .203-.188 0-.078-.047-.109-.047-.109-.03-.016-.062-.016-.28-.016-.22 0-.267 0-.517-.015-.296-.031-.328-.078-.328-.203 0-.016 0-.078.047-.219zm0 0" stroke="none"/></symbol><symbol overflow="visible" id="k"><path d="M5.188-1.36c0-.312.078-.312.546-.312v-.25c-.062 0-.562.031-.906.031-.375 0-.89 0-1.266-.03v.25h.266c.703 0 .703.093.703.312v.453c0 .156 0 .422-.406.625-.328.172-.719.172-.813.172-.796 0-2.078-.454-2.078-2.282 0-1.843 1.329-2.25 2.016-2.25.672 0 1.516.454 1.688 1.657.015.078.078.078.125.078.125 0 .125-.047.125-.188v-1.625c0-.125 0-.187-.094-.187-.032 0-.063 0-.125.093l-.36.532a1.994 1.994 0 0 0-1.453-.625C1.703-4.906.484-3.781.484-2.391.484-1 1.672.141 3.172.141c.39 0 1.156-.078 1.484-.563.125.188.375.422.453.422.079 0 .079-.078.079-.188zm0 0" stroke="none"/></symbol></defs><use height="1052.362" width="744.094" xlink:href="#i" x="224.901" y="132.246"/><use height="1052.362" width="744.094" xlink:href="#j" x="223.432" y="134.765"/><use height="1052.362" width="744.094" xlink:href="#k" x="229.839" y="136.259"/></g><path d="M548 776.362a168 56 0 1 1-336 0 168 56 0 1 1 336 0z" transform="matrix(.4911 0 0 .48214 185.2 393.435)" opacity=".5" fill="#afc6e9" stroke="#4e70a4" stroke-width="2.055" stroke-linecap="round" stroke-linejoin="round"/><g transform="matrix(4.54271 0 0 4.54271 -660.276 171.772)" ns0:preamble="/home/waldgeist/sandbox/homepage/inkscape-preamble.tex" ns0:text="$A$" fill="#d40000" stroke="#d40000"><defs><symbol id="l" overflow="visible"><path d="M1.781-1.14C1.391-.485 1-.345.563-.314c-.125.016-.22.016-.22.204 0 .062.063.109.141.109.266 0 .579-.031.844-.031.344 0 .688.031 1 .031.063 0 .188 0 .188-.188 0-.109-.079-.124-.157-.124-.218-.016-.468-.094-.468-.344 0-.125.062-.235.14-.375l.766-1.266h2.5c.016.203.156 1.563.156 1.656 0 .297-.516.329-.719.329-.14 0-.234 0-.234.203C4.5 0 4.61 0 4.64 0c.407 0 .829-.031 1.235-.031.25 0 .89.031 1.14.031.048 0 .173 0 .173-.203 0-.11-.094-.11-.235-.11-.61 0-.61-.062-.64-.359l-.61-6.219c-.016-.203-.016-.25-.187-.25-.157 0-.204.079-.266.172zm1.203-1.47l1.954-3.296.328 3.297zm0 0" stroke="none"/></symbol></defs><use y="134.765" x="223.432" xlink:href="#l" width="744.094" height="1052.362" fill="#000"/></g></svg>