<?xml version="1.0" encoding="UTF-8" standalone="no"?>
<!-- Created with Inkscape (http://www.inkscape.org/) -->

<svg
   xmlns:ns0="http://www.iki.fi/pav/software/textext/"
   xmlns:dc="http://purl.org/dc/elements/1.1/"
   xmlns:cc="http://creativecommons.org/ns#"
   xmlns:rdf="http://www.w3.org/1999/02/22-rdf-syntax-ns#"
   xmlns:svg="http://www.w3.org/2000/svg"
   xmlns="http://www.w3.org/2000/svg"
   xmlns:xlink="http://www.w3.org/1999/xlink"
   xmlns:sodipodi="http://sodipodi.sourceforge.net/DTD/sodipodi-0.dtd"
   xmlns:inkscape="http://www.inkscape.org/namespaces/inkscape"
   width="1052.3622"
   height="744.09448"
   id="svg5297"
   version="1.1"
   inkscape:version="0.48.4 r9939"
   sodipodi:docname="u-rohr-manometer.svg">
  <sodipodi:namedview
     id="base"
     pagecolor="#ffffff"
     bordercolor="#666666"
     borderopacity="1.0"
     inkscape:pageopacity="0.0"
     inkscape:pageshadow="2"
     inkscape:zoom="1.6473984"
     inkscape:cx="643.52832"
     inkscape:cy="491.07389"
     inkscape:document-units="px"
     inkscape:current-layer="layer1"
     showgrid="false"
     inkscape:window-width="1600"
     inkscape:window-height="1150"
     inkscape:window-x="0"
     inkscape:window-y="0"
     inkscape:window-maximized="1"
     showguides="false"
     inkscape:guide-bbox="true"
     inkscape:object-paths="true"
     inkscape:object-nodes="true"
     inkscape:snap-smooth-nodes="true"
     inkscape:snap-midpoints="true"
     inkscape:snap-center="false"
     inkscape:snap-object-midpoints="true"
     inkscape:snap-global="false">
    <sodipodi:guide
       id="guide10390"
       position="562.23721,430.05004"
       orientation="0,1" />
  </sodipodi:namedview>
  <title
     id="title7929">U-Rohr-Manometer</title>
  <defs
     id="defs5299">
    <marker
       style="overflow:visible"
       id="Arrow2Mstart"
       refX="0.0"
       refY="0.0"
       orient="auto"
       inkscape:stockid="Arrow2Mstart">
      <path
         transform="scale(0.6) translate(0,0)"
         d="M 8.7185878,4.0337352 L -2.2072895,0.016013256 L 8.7185884,-4.0017078 C 6.9730900,-1.6296469 6.9831476,1.6157441 8.7185878,4.0337352 z "
         style="fill-rule:evenodd;stroke-width:0.62500000;stroke-linejoin:round"
         id="path4830" />
    </marker>
    <marker
       inkscape:stockid="Arrow1Send"
       orient="auto"
       refY="0.0"
       refX="0.0"
       id="Arrow1Send"
       style="overflow:visible;">
      <path
         id="path6637"
         d="M 0.0,0.0 L 5.0,-5.0 L -12.5,0.0 L 5.0,5.0 L 0.0,0.0 z "
         style="fill-rule:evenodd;stroke:#000000;stroke-width:1.0pt;"
         transform="scale(0.2) rotate(180) translate(6,0)" />
    </marker>
    <marker
       inkscape:stockid="Arrow2Send"
       orient="auto"
       refY="0.0"
       refX="0.0"
       id="Arrow2Send"
       style="overflow:visible;">
      <path
         id="path6655"
         style="fill-rule:evenodd;stroke-width:0.62500000;stroke-linejoin:round;"
         d="M 8.7185878,4.0337352 L -2.2072895,0.016013256 L 8.7185884,-4.0017078 C 6.9730900,-1.6296469 6.9831476,1.6157441 8.7185878,4.0337352 z "
         transform="scale(0.3) rotate(180) translate(-2.3,0)" />
    </marker>
    <marker
       inkscape:stockid="Arrow1Mend"
       orient="auto"
       refY="0.0"
       refX="0.0"
       id="Arrow1Mend"
       style="overflow:visible;">
      <path
         id="path6631"
         d="M 0.0,0.0 L 5.0,-5.0 L -12.5,0.0 L 5.0,5.0 L 0.0,0.0 z "
         style="fill-rule:evenodd;stroke:#000000;stroke-width:1.0pt;"
         transform="scale(0.4) rotate(180) translate(10,0)" />
    </marker>
    <marker
       inkscape:stockid="Arrow2Mend"
       orient="auto"
       refY="0.0"
       refX="0.0"
       id="Arrow2Mend"
       style="overflow:visible;">
      <path
         id="path6649"
         style="fill-rule:evenodd;stroke-width:0.62500000;stroke-linejoin:round;"
         d="M 8.7185878,4.0337352 L -2.2072895,0.016013256 L 8.7185884,-4.0017078 C 6.9730900,-1.6296469 6.9831476,1.6157441 8.7185878,4.0337352 z "
         transform="scale(0.6) rotate(180) translate(0,0)" />
    </marker>
    <marker
       inkscape:stockid="Arrow1Sstart"
       orient="auto"
       refY="0.0"
       refX="0.0"
       id="Arrow1Sstart"
       style="overflow:visible">
      <path
         id="path6634"
         d="M 0.0,0.0 L 5.0,-5.0 L -12.5,0.0 L 5.0,5.0 L 0.0,0.0 z "
         style="fill-rule:evenodd;stroke:#000000;stroke-width:1.0pt"
         transform="scale(0.2) translate(6,0)" />
    </marker>
  </defs>
  <metadata
     id="metadata5302">
    <rdf:RDF>
      <cc:Work
         rdf:about="">
        <dc:format>image/svg+xml</dc:format>
        <dc:type
           rdf:resource="http://purl.org/dc/dcmitype/StillImage" />
        <dc:title>U-Rohr-Manometer</dc:title>
        <dc:date>2016-02-21</dc:date>
        <dc:creator>
          <cc:Agent>
            <dc:title>Bernhard Grotz</dc:title>
          </cc:Agent>
        </dc:creator>
        <dc:rights>
          <cc:Agent>
            <dc:title>Bernhard Grotz</dc:title>
          </cc:Agent>
        </dc:rights>
        <dc:publisher>
          <cc:Agent>
            <dc:title>Bernhard Grotz</dc:title>
          </cc:Agent>
        </dc:publisher>
        <dc:language>de-DE</dc:language>
        <dc:subject>
          <rdf:Bag>
            <rdf:li>Physik</rdf:li>
            <rdf:li>Mechanik der Flüssigkeiten und Gase</rdf:li>
            <rdf:li>Druckmessung</rdf:li>
            <rdf:li>U-Rohr-Manometer</rdf:li>
          </rdf:Bag>
        </dc:subject>
        <cc:license
           rdf:resource="http://creativecommons.org/licenses/by-nc-sa/3.0/" />
      </cc:Work>
      <cc:License
         rdf:about="http://creativecommons.org/licenses/by-nc-sa/3.0/">
        <cc:permits
           rdf:resource="http://creativecommons.org/ns#Reproduction" />
        <cc:permits
           rdf:resource="http://creativecommons.org/ns#Distribution" />
        <cc:requires
           rdf:resource="http://creativecommons.org/ns#Notice" />
        <cc:requires
           rdf:resource="http://creativecommons.org/ns#Attribution" />
        <cc:prohibits
           rdf:resource="http://creativecommons.org/ns#CommercialUse" />
        <cc:permits
           rdf:resource="http://creativecommons.org/ns#DerivativeWorks" />
        <cc:requires
           rdf:resource="http://creativecommons.org/ns#ShareAlike" />
      </cc:License>
    </rdf:RDF>
  </metadata>
  <g
     inkscape:label="Ebene 1"
     inkscape:groupmode="layer"
     id="layer1"
     transform="translate(0,-308.2677)">
    <rect
       inkscape:export-ydpi="150"
       inkscape:export-xdpi="150"
       inkscape:export-filename="/home/waldgeist/data/homepage/pics/physik/mechanik/festkoerper-fluessigkeiten-und-gase/u-rohr-manometer.png"
       y="514.78253"
       x="31.63916"
       height="331.06467"
       width="989.08386"
       id="rect5337"
       style="color:#000000;fill:#ffffff;fill-opacity:1;fill-rule:nonzero;stroke:#ffffff;stroke-width:3.39865708;stroke-linecap:round;stroke-linejoin:bevel;stroke-miterlimit:4;stroke-opacity:1;stroke-dasharray:none;stroke-dashoffset:0;marker:none;visibility:visible;display:inline;overflow:visible;enable-background:accumulate" />
    <path
       sodipodi:nodetypes="ccccccccc"
       inkscape:export-ydpi="150"
       inkscape:export-xdpi="150"
       inkscape:export-filename="/home/waldgeist/data/homepage/pics/physik/mechanik/festkoerper-fluessigkeiten-und-gase/u-rohr-manometer.png"
       inkscape:connector-curvature="0"
       id="path10418"
       d="m 418.10539,738.60718 0,79.41215 216.09838,0 0.19576,-163.64531 -34.65036,-0.0374 4e-5,129.22818 -147.18925,-0.0349 0.0812,-44.80553 z"
       style="color:#000000;fill:#afc6e9;stroke:#87aade;stroke-width:4;stroke-linecap:round;stroke-linejoin:round;stroke-miterlimit:4;stroke-opacity:1;stroke-dasharray:none;stroke-dashoffset:0;marker:none;visibility:visible;display:inline;overflow:visible;enable-background:accumulate;fill-opacity:1" />
    <g
       inkscape:export-ydpi="150"
       inkscape:export-xdpi="150"
       inkscape:export-filename="/home/waldgeist/data/homepage/pics/physik/mechanik/festkoerper-fluessigkeiten-und-gase/u-rohr-manometer.png"
       transform="translate(-96.509185,79.449006)"
       id="g7954">
      <path
         sodipodi:nodetypes="cc"
         inkscape:export-ydpi="150"
         inkscape:export-xdpi="150"
         inkscape:export-filename="/home/waldgeist/data/homepage/pics/physik/mechanik/festkoerper-fluessigkeiten-und-gase/druckmessung-statisch-dynamisch.png"
         style="fill:none;stroke:#9b9c9f;stroke-width:3.88121605;stroke-linecap:round;stroke-linejoin:miter;stroke-opacity:1"
         d="m 514.61457,738.57032 0,-238.10303"
         id="path10481"
         inkscape:connector-curvature="0" />
      <path
         sodipodi:nodetypes="cc"
         inkscape:connector-curvature="0"
         id="path6071"
         d="m 549.06914,704.08081 0,-203.61352"
         style="fill:none;stroke:#9b9c9f;stroke-width:3.88121605;stroke-linecap:round;stroke-linejoin:miter;stroke-opacity:1"
         inkscape:export-filename="/home/waldgeist/data/homepage/pics/physik/mechanik/festkoerper-fluessigkeiten-und-gase/druckmessung-statisch-dynamisch.png"
         inkscape:export-xdpi="150"
         inkscape:export-ydpi="150" />
    </g>
    <path
       inkscape:export-ydpi="150"
       inkscape:export-xdpi="150"
       inkscape:export-filename="/home/waldgeist/data/homepage/pics/physik/mechanik/festkoerper-fluessigkeiten-und-gase/u-rohr-manometer.png"
       sodipodi:nodetypes="cc"
       inkscape:connector-curvature="0"
       id="path7978"
       d="M 646.39953,656.37399 646.56,818.74511"
       style="fill:#3771c8;stroke:#008000;stroke-width:2;stroke-linecap:round;stroke-linejoin:miter;stroke-miterlimit:4;stroke-opacity:1;stroke-dasharray:none;stroke-dashoffset:0;marker-start:url(#Arrow2Mstart);marker-end:url(#Arrow2Mend)" />
    <path
       style="color:#000000;fill:none;stroke:#aa0000;stroke-width:3;stroke-linecap:round;stroke-linejoin:round;stroke-miterlimit:4;stroke-opacity:1;stroke-dasharray:none;stroke-dashoffset:0;marker:none;marker-end:url(#Arrow2Mend);visibility:visible;display:inline;overflow:visible;enable-background:accumulate"
       d="m 435.49787,694.70667 0,35.23998"
       id="path10400"
       inkscape:connector-curvature="0"
       inkscape:export-filename="/home/waldgeist/data/homepage/pics/physik/mechanik/festkoerper-fluessigkeiten-und-gase/u-rohr-manometer.png"
       inkscape:export-xdpi="150"
       inkscape:export-ydpi="150" />
    <g
       id="g10408"
       transform="translate(-76.292265,-0.80215562)"
       inkscape:export-filename="/home/waldgeist/data/homepage/pics/physik/mechanik/festkoerper-fluessigkeiten-und-gase/u-rohr-manometer.png"
       inkscape:export-xdpi="150"
       inkscape:export-ydpi="150">
      <g
         transform="translate(-1.192185,65.868352)"
         id="g10410">
        <path
           sodipodi:nodetypes="cccc"
           inkscape:connector-curvature="0"
           d="m 677.23365,718.49857 -146.11854,0 m 146.11854,0 0,-203.64847"
           style="fill:none;stroke:#9b9c9f;stroke-width:3.88121581;stroke-linecap:round;stroke-linejoin:miter;stroke-opacity:1"
           id="path10412"
           inkscape:export-filename="/home/waldgeist/data/homepage/pics/physik/mechanik/festkoerper-fluessigkeiten-und-gase/druckmessung-statisch-dynamisch.png"
           inkscape:export-xdpi="150"
           inkscape:export-ydpi="150" />
      </g>
      <path
         d="m 710.49603,818.82148 -216.09838,0 m 216.09838,0 0,-238.10303"
         style="fill:none;stroke:#9b9c9f;stroke-width:3.88121629;stroke-linecap:round;stroke-linejoin:miter;stroke-opacity:1"
         id="path10414"
         inkscape:connector-curvature="0"
         sodipodi:nodetypes="cccc" />
    </g>
    <path
       style="fill:#3771c8;stroke:#008000;stroke-width:2;stroke-linecap:round;stroke-linejoin:miter;stroke-miterlimit:4;stroke-opacity:1;stroke-dasharray:none;stroke-dashoffset:0;marker-start:url(#Arrow2Mstart);marker-end:url(#Arrow2Mend)"
       d="m 405.2238,740.16354 0.16047,78.58157"
       id="path11048"
       inkscape:connector-curvature="0"
       sodipodi:nodetypes="cc"
       inkscape:export-filename="/home/waldgeist/data/homepage/pics/physik/mechanik/festkoerper-fluessigkeiten-und-gase/u-rohr-manometer.png"
       inkscape:export-xdpi="150"
       inkscape:export-ydpi="150" />
    <g
       id="g11081"
       style="fill:#008000;fill-opacity:1;stroke:#5498ff;stroke-width:0.59311527;stroke-opacity:1"
       transform="matrix(3.2370088,0,0,3.2370088,-358.87596,352.00387)"
       ns0:preamble=""
       ns0:text="$h_1$"
       inkscape:export-filename="/home/waldgeist/data/homepage/pics/physik/mechanik/festkoerper-fluessigkeiten-und-gase/u-rohr-manometer.png"
       inkscape:export-xdpi="150"
       inkscape:export-ydpi="150">
      <defs
         id="defs11083">
        <g
           id="g11085">
          <symbol
             id="textext-0095bf84-0"
             overflow="visible"
             style="overflow:visible">
            <path
               id="path11088"
               d=""
               style="stroke:none"
               inkscape:connector-curvature="0" />
          </symbol>
          <symbol
             id="textext-0095bf84-1"
             overflow="visible"
             style="overflow:visible">
            <path
               id="path11091"
               d="m 2.859375,-6.8125 c 0,0 0,-0.109375 -0.125,-0.109375 -0.234375,0 -0.953125,0.078125 -1.21875,0.109375 -0.078125,0 -0.1875,0.015625 -0.1875,0.1875 0,0.125 0.09375,0.125 0.234375,0.125 0.484375,0 0.5,0.0625 0.5,0.171875 L 2.03125,-6.125 0.59375,-0.390625 c -0.046875,0.140625 -0.046875,0.15625 -0.046875,0.21875 0,0.234375 0.203125,0.28125 0.296875,0.28125 0.15625,0 0.3125,-0.125 0.359375,-0.265625 l 0.1875,-0.75 0.21875,-0.890625 C 1.671875,-2.03125 1.734375,-2.25 1.78125,-2.46875 1.796875,-2.53125 1.890625,-2.859375 1.890625,-2.921875 1.921875,-3.015625 2.234375,-3.5625 2.578125,-3.84375 2.796875,-4 3.09375,-4.1875 3.53125,-4.1875 c 0.421875,0 0.53125,0.34375 0.53125,0.703125 0,0.53125 -0.375,1.625 -0.609375,2.234375 C 3.375,-1.03125 3.3125,-0.90625 3.3125,-0.703125 c 0,0.46875 0.359375,0.8125 0.828125,0.8125 0.9375,0 1.296875,-1.453125 1.296875,-1.53125 0,-0.109375 -0.078125,-0.109375 -0.109375,-0.109375 -0.109375,0 -0.109375,0.03125 -0.15625,0.1875 -0.140625,0.53125 -0.46875,1.234375 -1.015625,1.234375 -0.171875,0 -0.234375,-0.09375 -0.234375,-0.328125 0,-0.25 0.078125,-0.484375 0.171875,-0.703125 0.15625,-0.4375 0.609375,-1.625 0.609375,-2.203125 0,-0.640625 -0.390625,-1.0625 -1.140625,-1.0625 -0.625,0 -1.109375,0.3125 -1.484375,0.765625 z m 0,0"
               style="stroke:none"
               inkscape:connector-curvature="0" />
          </symbol>
          <symbol
             id="textext-0095bf84-2"
             overflow="visible"
             style="overflow:visible">
            <path
               id="path11094"
               d=""
               style="stroke:none"
               inkscape:connector-curvature="0" />
          </symbol>
          <symbol
             id="textext-0095bf84-3"
             overflow="visible"
             style="overflow:visible">
            <path
               id="path11097"
               d="m 2.328125,-4.4375 c 0,-0.1875 0,-0.1875 -0.203125,-0.1875 -0.453125,0.4375 -1.078125,0.4375 -1.359375,0.4375 l 0,0.25 c 0.15625,0 0.625,0 1,-0.1875 l 0,3.546875 c 0,0.234375 0,0.328125 -0.6875,0.328125 l -0.265625,0 0,0.25 c 0.125,0 0.984375,-0.03125 1.234375,-0.03125 0.21875,0 1.09375,0.03125 1.25,0.03125 l 0,-0.25 -0.265625,0 c -0.703125,0 -0.703125,-0.09375 -0.703125,-0.328125 z m 0,0"
               style="stroke:none"
               inkscape:connector-curvature="0" />
          </symbol>
        </g>
      </defs>
      <g
         style="fill:#008000"
         id="textext-0095bf84-4">
        <g
           id="g11100"
           style="fill:#008000;fill-opacity:1">
          <use
             style="fill:#008000"
             id="use11102"
             y="134.765"
             x="223.43201"
             xlink:href="#textext-0095bf84-1"
             width="1052.3622"
             height="744.09448" />
        </g>
        <g
           id="g11104"
           style="fill:#008000;fill-opacity:1">
          <use
             style="fill:#008000"
             id="use11106"
             y="136.259"
             x="229.172"
             xlink:href="#textext-0095bf84-3"
             width="1052.3622"
             height="744.09448" />
        </g>
      </g>
    </g>
    <g
       ns0:text="$h_2$"
       ns0:preamble="/home/waldgeist/data/homepage/inkscape-preamble.tex"
       transform="matrix(3.2370088,0,0,3.2370088,-66.995345,310.1091)"
       style="fill:#008000;fill-opacity:1;stroke:#5498ff;stroke-width:0.59311527;stroke-opacity:1"
       id="g11232"
       inkscape:export-filename="/home/waldgeist/data/homepage/pics/physik/mechanik/festkoerper-fluessigkeiten-und-gase/u-rohr-manometer.png"
       inkscape:export-xdpi="150"
       inkscape:export-ydpi="150">
      <defs
         id="defs11234">
        <g
           id="g11236">
          <symbol
             style="overflow:visible"
             overflow="visible"
             id="textext-827ee0f1-0">
            <path
               inkscape:connector-curvature="0"
               style="stroke:none"
               d=""
               id="path11239" />
          </symbol>
          <symbol
             style="overflow:visible"
             overflow="visible"
             id="textext-827ee0f1-1">
            <path
               inkscape:connector-curvature="0"
               style="stroke:none"
               d="m 2.859375,-6.8125 c 0,0 0,-0.109375 -0.125,-0.109375 -0.234375,0 -0.953125,0.078125 -1.21875,0.109375 -0.078125,0 -0.1875,0.015625 -0.1875,0.1875 0,0.125 0.09375,0.125 0.234375,0.125 0.484375,0 0.5,0.0625 0.5,0.171875 L 2.03125,-6.125 0.59375,-0.390625 c -0.046875,0.140625 -0.046875,0.15625 -0.046875,0.21875 0,0.234375 0.203125,0.28125 0.296875,0.28125 0.15625,0 0.3125,-0.125 0.359375,-0.265625 l 0.1875,-0.75 0.21875,-0.890625 C 1.671875,-2.03125 1.734375,-2.25 1.78125,-2.46875 1.796875,-2.53125 1.890625,-2.859375 1.890625,-2.921875 1.921875,-3.015625 2.234375,-3.5625 2.578125,-3.84375 2.796875,-4 3.09375,-4.1875 3.53125,-4.1875 c 0.421875,0 0.53125,0.34375 0.53125,0.703125 0,0.53125 -0.375,1.625 -0.609375,2.234375 C 3.375,-1.03125 3.3125,-0.90625 3.3125,-0.703125 c 0,0.46875 0.359375,0.8125 0.828125,0.8125 0.9375,0 1.296875,-1.453125 1.296875,-1.53125 0,-0.109375 -0.078125,-0.109375 -0.109375,-0.109375 -0.109375,0 -0.109375,0.03125 -0.15625,0.1875 -0.140625,0.53125 -0.46875,1.234375 -1.015625,1.234375 -0.171875,0 -0.234375,-0.09375 -0.234375,-0.328125 0,-0.25 0.078125,-0.484375 0.171875,-0.703125 0.15625,-0.4375 0.609375,-1.625 0.609375,-2.203125 0,-0.640625 -0.390625,-1.0625 -1.140625,-1.0625 -0.625,0 -1.109375,0.3125 -1.484375,0.765625 z m 0,0"
               id="path11242" />
          </symbol>
          <symbol
             style="overflow:visible"
             overflow="visible"
             id="textext-827ee0f1-2">
            <path
               inkscape:connector-curvature="0"
               style="stroke:none"
               d=""
               id="path11245" />
          </symbol>
          <symbol
             style="overflow:visible"
             overflow="visible"
             id="textext-827ee0f1-3">
            <path
               inkscape:connector-curvature="0"
               style="stroke:none"
               d="m 3.515625,-1.265625 -0.234375,0 c -0.015625,0.15625 -0.09375,0.5625 -0.1875,0.625 -0.046875,0.046875 -0.578125,0.046875 -0.6875,0.046875 l -1.28125,0 c 0.734375,-0.640625 0.984375,-0.84375 1.390625,-1.171875 0.515625,-0.40625 1,-0.84375 1,-1.5 0,-0.84375 -0.734375,-1.359375 -1.625,-1.359375 -0.859375,0 -1.453125,0.609375 -1.453125,1.25 0,0.34375 0.296875,0.390625 0.375,0.390625 0.15625,0 0.359375,-0.125 0.359375,-0.375 0,-0.125 -0.046875,-0.375 -0.40625,-0.375 C 0.984375,-4.21875 1.453125,-4.375 1.78125,-4.375 c 0.703125,0 1.0625,0.546875 1.0625,1.109375 0,0.609375 -0.4375,1.078125 -0.65625,1.328125 L 0.515625,-0.265625 C 0.4375,-0.203125 0.4375,-0.1875 0.4375,0 l 2.875,0 z m 0,0"
               id="path11248" />
          </symbol>
        </g>
      </defs>
      <g
         style="fill:#008000"
         id="textext-827ee0f1-4">
        <g
           style="fill:#008000;fill-opacity:1"
           id="g11251">
          <use
             style="fill:#008000"
             height="744.09448"
             width="1052.3622"
             xlink:href="#textext-827ee0f1-1"
             x="223.43201"
             y="134.765"
             id="use11253" />
        </g>
        <g
           style="fill:#008000;fill-opacity:1"
           id="g11255">
          <use
             style="fill:#008000"
             height="744.09448"
             width="1052.3622"
             xlink:href="#textext-827ee0f1-3"
             x="229.172"
             y="136.259"
             id="use11257" />
        </g>
      </g>
    </g>
    <path
       inkscape:export-ydpi="150"
       inkscape:export-xdpi="150"
       inkscape:export-filename="/home/waldgeist/data/homepage/pics/physik/mechanik/festkoerper-fluessigkeiten-und-gase/u-rohr-manometer.png"
       inkscape:connector-curvature="0"
       id="path11326"
       d="m 435.49787,634.06462 0,35.23998"
       style="color:#000000;fill:none;stroke:#aa0000;stroke-width:3;stroke-linecap:round;stroke-linejoin:round;stroke-miterlimit:4;stroke-opacity:1;stroke-dasharray:none;stroke-dashoffset:0;marker:none;marker-end:url(#Arrow2Mend);visibility:visible;display:inline;overflow:visible;enable-background:accumulate" />
    <path
       style="color:#000000;fill:none;stroke:#aa0000;stroke-width:3;stroke-linecap:round;stroke-linejoin:round;stroke-miterlimit:4;stroke-opacity:1;stroke-dasharray:none;stroke-dashoffset:0;marker:none;marker-end:url(#Arrow2Mend);visibility:visible;display:inline;overflow:visible;enable-background:accumulate"
       d="m 435.49787,573.42257 0,35.23998"
       id="path11328"
       inkscape:connector-curvature="0"
       inkscape:export-filename="/home/waldgeist/data/homepage/pics/physik/mechanik/festkoerper-fluessigkeiten-und-gase/u-rohr-manometer.png"
       inkscape:export-xdpi="150"
       inkscape:export-ydpi="150" />
    <g
       id="g11427"
       style="fill:#aa0000;fill-opacity:1;stroke:#5498ff;stroke-width:0.59311527;stroke-opacity:1"
       transform="matrix(3.2370088,0,0,3.2370088,-310.063,117.26363)"
       ns0:preamble="/home/waldgeist/data/homepage/inkscape-preamble.tex"
       ns0:text="$p _{\\mathrm{ext}}$"
       inkscape:export-filename="/home/waldgeist/data/homepage/pics/physik/mechanik/festkoerper-fluessigkeiten-und-gase/u-rohr-manometer.png"
       inkscape:export-xdpi="150"
       inkscape:export-ydpi="150">
      <defs
         id="defs11429">
        <g
           id="g11431">
          <symbol
             id="textext-bbaf699d-0"
             overflow="visible"
             style="overflow:visible">
            <path
               id="path11434"
               d=""
               style="stroke:none"
               inkscape:connector-curvature="0" />
          </symbol>
          <symbol
             id="textext-bbaf699d-1"
             overflow="visible"
             style="overflow:visible">
            <path
               id="path11437"
               d="M 0.453125,1.21875 C 0.375,1.5625 0.34375,1.625 -0.09375,1.625 c -0.109375,0 -0.21875,0 -0.21875,0.1875 0,0.078125 0.046875,0.125 0.125,0.125 0.265625,0 0.5625,-0.03125 0.828125,-0.03125 0.34375,0 0.671875,0.03125 1,0.03125 0.046875,0 0.171875,0 0.171875,-0.203125 C 1.8125,1.625 1.71875,1.625 1.578125,1.625 c -0.5,0 -0.5,-0.0625 -0.5,-0.15625 0,-0.125 0.421875,-1.75 0.484375,-2 0.125,0.296875 0.40625,0.640625 0.921875,0.640625 1.15625,0 2.40625,-1.453125 2.40625,-2.921875 0,-0.9375 -0.578125,-1.59375 -1.328125,-1.59375 -0.5,0 -0.984375,0.359375 -1.3125,0.75 -0.09375,-0.546875 -0.53125,-0.75 -0.890625,-0.75 -0.46875,0 -0.65625,0.390625 -0.734375,0.5625 C 0.4375,-3.5 0.3125,-2.90625 0.3125,-2.875 c 0,0.109375 0.09375,0.109375 0.109375,0.109375 0.109375,0 0.109375,-0.015625 0.171875,-0.234375 0.171875,-0.703125 0.375,-1.1875 0.734375,-1.1875 0.171875,0 0.3125,0.078125 0.3125,0.453125 0,0.234375 -0.03125,0.34375 -0.078125,0.515625 z m 1.75,-4.328125 C 2.265625,-3.375 2.546875,-3.65625 2.71875,-3.8125 c 0.359375,-0.296875 0.640625,-0.375 0.8125,-0.375 0.390625,0 0.640625,0.34375 0.640625,0.9375 0,0.59375 -0.328125,1.734375 -0.515625,2.109375 -0.34375,0.703125 -0.8125,1.03125 -1.1875,1.03125 C 1.8125,-0.109375 1.6875,-0.9375 1.6875,-1 c 0,-0.015625 0,-0.03125 0.03125,-0.15625 z m 0,0"
               style="stroke:none"
               inkscape:connector-curvature="0" />
          </symbol>
          <symbol
             id="textext-bbaf699d-2"
             overflow="visible"
             style="overflow:visible">
            <path
               id="path11440"
               d=""
               style="stroke:none"
               inkscape:connector-curvature="0" />
          </symbol>
          <symbol
             id="textext-bbaf699d-3"
             overflow="visible"
             style="overflow:visible">
            <path
               id="path11443"
               d="m 3.0625,-1.59375 c 0.15625,0 0.203125,0 0.203125,-0.140625 0,-0.625 -0.34375,-1.375 -1.390625,-1.375 -0.90625,0 -1.609375,0.71875 -1.609375,1.578125 0,0.890625 0.78125,1.59375 1.703125,1.59375 0.9375,0 1.296875,-0.75 1.296875,-0.90625 0,-0.015625 -0.015625,-0.09375 -0.125,-0.09375 -0.09375,0 -0.109375,0.046875 -0.125,0.109375 -0.21875,0.5625 -0.75,0.671875 -1,0.671875 C 1.6875,-0.15625 1.375,-0.296875 1.171875,-0.5625 0.90625,-0.890625 0.90625,-1.3125 0.90625,-1.59375 z M 0.90625,-1.765625 C 0.984375,-2.75 1.609375,-2.90625 1.875,-2.90625 c 0.859375,0 0.890625,0.96875 0.90625,1.140625 z m 0,0"
               style="stroke:none"
               inkscape:connector-curvature="0" />
          </symbol>
          <symbol
             id="textext-bbaf699d-4"
             overflow="visible"
             style="overflow:visible">
            <path
               id="path11446"
               d="m 2.359375,-1.5625 c 0,0 -0.046875,-0.0625 -0.046875,-0.0625 0,-0.03125 0.453125,-0.515625 0.515625,-0.578125 C 3.078125,-2.484375 3.3125,-2.75 3.875,-2.75 l 0,-0.25 C 3.671875,-2.984375 3.46875,-2.96875 3.28125,-2.96875 3.078125,-2.96875 2.796875,-2.984375 2.59375,-3 l 0,0.25 c 0.109375,0.015625 0.140625,0.09375 0.140625,0.15625 0,0.015625 0,0.125 -0.109375,0.234375 L 2.140625,-1.8125 1.5625,-2.46875 C 1.484375,-2.546875 1.484375,-2.578125 1.484375,-2.609375 c 0,-0.09375 0.09375,-0.140625 0.1875,-0.140625 l 0,-0.25 c -0.25,0.015625 -0.515625,0.03125 -0.78125,0.03125 C 0.6875,-2.96875 0.421875,-2.984375 0.21875,-3 l 0,0.25 c 0.3125,0 0.5,0 0.6875,0.203125 l 0.859375,1 c 0.015625,0.015625 0.0625,0.0625 0.0625,0.078125 0,0.015625 -0.53125,0.59375 -0.59375,0.671875 -0.265625,0.28125 -0.5,0.53125 -1.046875,0.546875 l 0,0.25 C 0.390625,-0.015625 0.546875,-0.03125 0.765625,-0.03125 0.96875,-0.03125 1.25,-0.015625 1.453125,0 l 0,-0.25 C 1.375,-0.265625 1.3125,-0.3125 1.3125,-0.40625 1.3125,-0.546875 1.390625,-0.640625 1.5,-0.75 L 2,-1.296875 2.59375,-0.59375 c 0.140625,0.140625 0.140625,0.15625 0.140625,0.203125 0,0.125 -0.15625,0.140625 -0.1875,0.140625 l 0,0.25 c 0.0625,0 0.5625,-0.03125 0.78125,-0.03125 C 3.546875,-0.03125 3.78125,-0.015625 4,0 l 0,-0.25 c -0.46875,0 -0.515625,-0.046875 -0.6875,-0.21875 z m 0,0"
               style="stroke:none"
               inkscape:connector-curvature="0" />
          </symbol>
          <symbol
             id="textext-bbaf699d-5"
             overflow="visible"
             style="overflow:visible">
            <path
               id="path11449"
               d="m 1.40625,-2.75 1.078125,0 0,-0.25 -1.078125,0 0,-1.28125 -0.25,0 c 0,0.625 -0.28125,1.3125 -0.953125,1.328125 l 0,0.203125 0.640625,0 0,1.875 c 0,0.78125 0.59375,0.9375 0.984375,0.9375 0.46875,0 0.78125,-0.390625 0.78125,-0.9375 l 0,-0.390625 -0.234375,0 0,0.375 c 0,0.484375 -0.21875,0.734375 -0.5,0.734375 -0.46875,0 -0.46875,-0.578125 -0.46875,-0.703125 z m 0,0"
               style="stroke:none"
               inkscape:connector-curvature="0" />
          </symbol>
        </g>
      </defs>
      <g
         id="textext-bbaf699d-6"
         style="fill:#aa0000">
        <g
           id="g11452"
           style="fill:#aa0000;fill-opacity:1">
          <use
             id="use11454"
             y="134.765"
             x="223.43201"
             xlink:href="#textext-bbaf699d-1"
             width="1052.3622"
             height="744.09448"
             style="fill:#aa0000" />
        </g>
        <g
           id="g11456"
           style="fill:#aa0000;fill-opacity:1">
          <use
             id="use11458"
             y="136.259"
             x="228.44501"
             xlink:href="#textext-bbaf699d-3"
             width="1052.3622"
             height="744.09448"
             style="fill:#aa0000" />
          <use
             id="use11460"
             y="136.259"
             x="231.987"
             xlink:href="#textext-bbaf699d-4"
             width="1052.3622"
             height="744.09448"
             style="fill:#aa0000" />
          <use
             id="use11462"
             y="136.259"
             x="236.17267"
             xlink:href="#textext-bbaf699d-5"
             width="1052.3622"
             height="744.09448"
             style="fill:#aa0000" />
        </g>
      </g>
    </g>
  </g>
</svg>
