<svg xmlns:ns0="http://www.iki.fi/pav/software/textext/" xmlns="http://www.w3.org/2000/svg" xmlns:xlink="http://www.w3.org/1999/xlink" width="1052.362" height="744.094"><title>U-Rohr-Manometer</title><defs><marker id="a" orient="auto" overflow="visible"><path transform="scale(.6)" d="M8.719 4.034L-2.207.016 8.719-4.002c-1.746 2.372-1.736 5.618 0 8.036z" fill-rule="evenodd" stroke-width=".625" stroke-linejoin="round"/></marker><marker orient="auto" id="b" overflow="visible"><path d="M8.719 4.034L-2.207.016 8.719-4.002c-1.746 2.372-1.736 5.618 0 8.036z" transform="rotate(180) scale(.6)" fill-rule="evenodd" stroke-width=".625" stroke-linejoin="round"/></marker></defs><path style="marker:none" color="#000" fill="#fff" stroke="#fff" stroke-width="3.399" stroke-linecap="round" stroke-linejoin="bevel" overflow="visible" d="M31.639 206.515h989.084V537.58H31.639z"/><path d="M418.105 430.34v79.412h216.099l.196-163.646-34.65-.037v129.228l-147.19-.035.081-44.805z" style="marker:none" color="#000" fill="#afc6e9" stroke="#87aade" stroke-width="4" stroke-linecap="round" stroke-linejoin="round" overflow="visible"/><g fill="none" stroke="#9b9c9f" stroke-width="3.881" stroke-linecap="round"><path d="M418.105 509.752V271.649M452.56 475.262V271.65"/></g><path d="M646.4 656.374l.16 162.371" fill="#3771c8" stroke="green" stroke-width="2" stroke-linecap="round" marker-start="url(#a)" marker-end="url(#b)" transform="translate(0 -308.268)"/><path style="marker:none" d="M435.498 694.707v35.24" color="#000" fill="none" stroke="#a00" stroke-width="3" stroke-linecap="round" stroke-linejoin="round" marker-end="url(#b)" overflow="visible" transform="translate(0 -308.268)"/><path d="M599.75 475.297H453.63m146.12 0V271.65M634.204 509.752H418.105m216.099 0V271.649" fill="none" stroke="#9b9c9f" stroke-width="3.881" stroke-linecap="round"/><path d="M405.224 740.164l.16 78.581" fill="#3771c8" stroke="green" stroke-width="2" stroke-linecap="round" marker-start="url(#a)" marker-end="url(#b)" transform="translate(0 -308.268)"/><g transform="matrix(3.237 0 0 3.237 -358.876 43.736)" ns0:text="$h_1$" fill="green" stroke="#5498ff" stroke-width=".593"><defs><symbol id="c" overflow="visible"><path d="M2.86-6.813s0-.109-.126-.109c-.234 0-.953.078-1.218.11-.079 0-.188.015-.188.187 0 .125.094.125.234.125.485 0 .5.063.5.172l-.03.203L.593-.391C.547-.25.547-.234.547-.17c0 .234.203.28.297.28a.407.407 0 0 0 .36-.265l.187-.75.218-.89c.063-.235.125-.454.172-.673.016-.062.11-.39.11-.453.03-.094.343-.64.687-.922.219-.156.516-.344.953-.344.422 0 .531.344.531.704 0 .53-.375 1.625-.609 2.234-.078.219-.14.344-.14.547 0 .469.359.812.828.812.937 0 1.296-1.453 1.296-1.53 0-.11-.078-.11-.109-.11-.11 0-.11.031-.156.187-.14.532-.469 1.235-1.016 1.235-.172 0-.234-.094-.234-.329 0-.25.078-.484.172-.703.156-.437.61-1.625.61-2.203 0-.64-.391-1.062-1.141-1.062-.626 0-1.11.312-1.485.765zm0 0" stroke="none"/></symbol><symbol id="d" overflow="visible"><path d="M2.328-4.438c0-.187 0-.187-.203-.187-.453.438-1.078.438-1.36.438v.25c.157 0 .626 0 1-.188v3.547c0 .234 0 .328-.687.328H.812V0c.125 0 .985-.031 1.235-.031.219 0 1.094.031 1.25.031v-.25H3.03c-.703 0-.703-.094-.703-.328zm0 0" stroke="none"/></symbol></defs><use y="134.765" x="223.432" xlink:href="#c" width="1052.362" height="744.094"/><use y="136.259" x="229.172" xlink:href="#d" width="1052.362" height="744.094"/></g><g ns0:text="$h_2$" ns0:preamble="/home/waldgeist/data/homepage/inkscape-preamble.tex" transform="matrix(3.237 0 0 3.237 -66.995 1.841)" fill="green" stroke="#5498ff" stroke-width=".593"><defs><symbol overflow="visible" id="e"><path d="M2.86-6.813s0-.109-.126-.109c-.234 0-.953.078-1.218.11-.079 0-.188.015-.188.187 0 .125.094.125.234.125.485 0 .5.063.5.172l-.03.203L.593-.391C.547-.25.547-.234.547-.17c0 .234.203.28.297.28a.407.407 0 0 0 .36-.265l.187-.75.218-.89c.063-.235.125-.454.172-.673.016-.062.11-.39.11-.453.03-.094.343-.64.687-.922.219-.156.516-.344.953-.344.422 0 .531.344.531.704 0 .53-.375 1.625-.609 2.234-.078.219-.14.344-.14.547 0 .469.359.812.828.812.937 0 1.296-1.453 1.296-1.53 0-.11-.078-.11-.109-.11-.11 0-.11.031-.156.187-.14.532-.469 1.235-1.016 1.235-.172 0-.234-.094-.234-.329 0-.25.078-.484.172-.703.156-.437.61-1.625.61-2.203 0-.64-.391-1.062-1.141-1.062-.626 0-1.11.312-1.485.765zm0 0" stroke="none"/></symbol><symbol overflow="visible" id="f"><path d="M3.516-1.266H3.28c-.015.157-.094.563-.187.625-.047.047-.578.047-.688.047H1.125c.734-.64.984-.844 1.39-1.172.516-.406 1-.843 1-1.5 0-.843-.734-1.359-1.624-1.359-.86 0-1.454.61-1.454 1.25 0 .344.297.39.376.39.156 0 .359-.124.359-.374 0-.125-.047-.375-.406-.375.218-.485.687-.641 1.015-.641.703 0 1.063.547 1.063 1.11 0 .609-.438 1.078-.656 1.328L.516-.266C.437-.203.437-.187.437 0h2.876zm0 0" stroke="none"/></symbol></defs><use height="744.094" width="1052.362" xlink:href="#e" x="223.432" y="134.765"/><use height="744.094" width="1052.362" xlink:href="#f" x="229.172" y="136.259"/></g><path d="M435.498 634.065v35.24M435.498 573.423v35.24" style="marker:none" color="#000" fill="none" stroke="#a00" stroke-width="3" stroke-linecap="round" stroke-linejoin="round" marker-end="url(#b)" overflow="visible" transform="translate(0 -308.268)"/><g transform="matrix(3.237 0 0 3.237 -310.063 -191.004)" ns0:preamble="/home/waldgeist/data/homepage/inkscape-preamble.tex" ns0:text="$p _{\\mathrm{ext}}$" fill="#a00" stroke="#5498ff" stroke-width=".593"><defs><symbol id="g" overflow="visible"><path d="M.453 1.219c-.078.343-.11.406-.547.406-.11 0-.218 0-.218.188 0 .078.046.125.124.125.266 0 .563-.032.829-.032.343 0 .671.032 1 .032.046 0 .171 0 .171-.204 0-.109-.093-.109-.234-.109-.5 0-.5-.063-.5-.156 0-.125.422-1.75.484-2 .125.297.407.64.922.64 1.157 0 2.407-1.453 2.407-2.921 0-.938-.579-1.594-1.329-1.594-.5 0-.984.36-1.312.75-.094-.547-.531-.75-.89-.75-.47 0-.657.39-.735.562-.188.344-.313.938-.313.969 0 .11.094.11.11.11.11 0 .11-.016.172-.235.172-.703.375-1.188.734-1.188.172 0 .313.079.313.454 0 .234-.032.343-.079.515zm1.75-4.328c.063-.266.344-.547.516-.704.36-.296.64-.374.812-.374.39 0 .64.343.64.937 0 .594-.327 1.734-.515 2.11-.344.702-.812 1.03-1.187 1.03-.656 0-.781-.828-.781-.89 0-.016 0-.031.03-.156zm0 0" stroke="none"/></symbol><symbol id="h" overflow="visible"><path d="M3.063-1.594c.156 0 .203 0 .203-.14 0-.625-.344-1.375-1.391-1.375a1.59 1.59 0 0 0-1.61 1.578c0 .89.782 1.593 1.704 1.593.937 0 1.297-.75 1.297-.906 0-.015-.016-.094-.125-.094-.094 0-.11.047-.125.11-.22.562-.75.672-1 .672-.329 0-.641-.14-.844-.406-.266-.329-.266-.75-.266-1.032zM.905-1.766c.078-.984.703-1.14.969-1.14.86 0 .89.969.906 1.14zm0 0" stroke="none"/></symbol><symbol id="i" overflow="visible"><path d="M2.36-1.563l-.047-.062c0-.031.453-.516.515-.578.25-.281.485-.547 1.047-.547V-3c-.203.016-.406.031-.594.031-.203 0-.484-.015-.687-.031v.25c.11.016.14.094.14.156 0 .016 0 .125-.109.235l-.484.546-.579-.656c-.078-.078-.078-.11-.078-.14 0-.094.094-.141.188-.141V-3c-.25.016-.516.031-.781.031-.204 0-.47-.015-.672-.031v.25c.312 0 .5 0 .687.203l.86 1c.015.016.062.063.062.078 0 .016-.531.594-.594.672-.265.281-.5.531-1.046.547V0C.39-.016.546-.031.765-.031c.203 0 .484.015.687.031v-.25c-.078-.016-.14-.063-.14-.156 0-.14.078-.235.187-.344l.5-.547.594.703c.14.14.14.156.14.203 0 .125-.156.141-.187.141V0c.062 0 .562-.031.781-.031.219 0 .453.015.672.031v-.25c-.469 0-.516-.047-.688-.219zm0 0" stroke="none"/></symbol><symbol id="j" overflow="visible"><path d="M1.406-2.75h1.078V-3H1.406v-1.281h-.25c0 .625-.281 1.312-.953 1.328v.203h.64v1.875c0 .781.595.938.985.938.469 0 .781-.391.781-.938v-.39h-.234v.374c0 .485-.219.735-.5.735-.469 0-.469-.578-.469-.703zm0 0" stroke="none"/></symbol></defs><use y="134.765" x="223.432" xlink:href="#g" width="1052.362" height="744.094"/><use y="136.259" x="228.445" xlink:href="#h" width="1052.362" height="744.094"/><use y="136.259" x="231.987" xlink:href="#i" width="1052.362" height="744.094"/><use y="136.259" x="236.173" xlink:href="#j" width="1052.362" height="744.094"/></g></svg>