<svg xmlns="http://www.w3.org/2000/svg" xmlns:xlink="http://www.w3.org/1999/xlink" width="210mm" height="297mm"><title>Verbundene Gefäße</title><defs><linearGradient id="d"><stop offset="0" stop-opacity="0"/><stop offset="1" stop-color="#fff"/></linearGradient><linearGradient id="e"><stop offset="0" stop-color="#fff"/><stop offset="1" stop-color="#fff" stop-opacity="0"/></linearGradient><linearGradient id="f"><stop offset="0" stop-color="#1a1a1a" stop-opacity=".828"/><stop offset="1" stop-color="#fff"/></linearGradient><linearGradient id="a"><stop offset="0" stop-opacity="0"/><stop offset="1" stop-color="#fff"/></linearGradient><linearGradient id="b"><stop offset="0" stop-color="#ebebeb"/><stop offset="1" stop-color="#fff" stop-opacity="0"/></linearGradient><linearGradient id="c"><stop offset="0" stop-color="#0e0e0e" stop-opacity=".746"/><stop offset="1" stop-color="#fff"/></linearGradient><pattern patternUnits="userSpaceOnUse" width="30.066" height="5.181" id="g"><path d="M7.597.061C5.079-.187 2.656.302-.01 1.788v1.273c2.783-1.63 5.183-2.009 7.482-1.781 2.298.228 4.497 1.081 6.781 1.938 4.567 1.713 9.551 3.458 15.813-.157l-.004-1.273c-6.44 3.709-10.816 1.982-15.371.273-2.278-.854-4.576-1.75-7.094-2z"/></pattern><pattern patternTransform="translate(.25)" id="h" xlink:href="#g"/></defs><path style="marker:none" color="#000" fill="#fff" stroke="#fff" stroke-width="6" stroke-linejoin="bevel" overflow="visible" d="M25.262 353.79h693.571v344.782H25.262z"/><path d="M150.405 492.035h71.905l-.243 101.407c.099 5.917 2.28 9.75 9.022 9.022h49.836c4.831-.94 9.117-2.498 9.021-9.022v-33.266c-16.77-18.907-14.3-36.066 0-52.149v-15.826l44.837-.166-.033 14.401c25.296 23.769 11.714 43.41-.13 56.923l-.068 30.144c.85 5.29 2.57 9.663 9.022 9.022l88.873-.061c8.338-14.285 16.896-28.295 17.448-52.313-.936-24.95-10.667-42.656-22.85-58.343l45.55.227c8.56 14.43 18.466 28.635 19.37 44.34 1.953 17.555 5.226 34.302-16.11 66.089h73.53c6.872.116 8.112-4.216 8.75-9.022V492.035h35.136l-.133 153.742c-1.222 8.584-5.578 12.83-12.93 12.93H163.887c-8.362.595-10.773-6.014-12.93-12.93z" fill="#afc6e9" stroke="#000"/><path style="marker:none" d="M558.135 395.566c-.03 487.408.032 130.194 0 197.876-.002 4.998-3.881 9.022-8.75 9.022h-72.513m-45.64 0l-87.835.06a8.997 8.997 0 0 1-9.021-9.021l.176-30.505c17.826-13.374 18.991-42.405 0-57.024l-.07-31.6c17.733-11.304 19.139-45.205-.013-56.411l.083-22.397m-44.606 0l.283 23.806c-17.097 14.811-15.068 40.096-.535 52.823l.101 36.104c-16.683 14.727-14.571 40.13.089 52.366v32.496c0 4.998-4.024 8.993-9.022 9.022l-49.773.28c-4.998.03-9.022-4.023-9.022-9.02V395.565" color="#000" fill="none" stroke="#4d4d4d" stroke-width="3" stroke-linecap="round" stroke-linejoin="round" overflow="visible"/><path style="marker:none" d="M593.138 395.566v250.211c0 7.163-5.766 12.93-12.93 12.93H163.887a12.901 12.901 0 0 1-12.93-12.93V393.656" color="#000" fill="none" stroke="#4d4d4d" stroke-width="3" stroke-linecap="round" stroke-linejoin="round" overflow="visible"/><g stroke="#4d4d4d" fill="none" stroke-width="4.179"><path d="M464.87 298.556c39.3 38.74 40.13 77.936 0 117.618M464.87 533.793c-39.3-38.74-40.129-77.936 0-117.619" transform="matrix(-.58602 0 0 .87953 748.283 132.979)"/><g><path d="M485.348 298.556c39.3 38.74 40.13 77.936 0 117.618M485.348 533.793c-39.3-38.74-40.13-77.936 0-117.619" transform="matrix(-.58602 0 0 .87953 716.114 132.979)"/></g></g></svg>