<svg xmlns="http://www.w3.org/2000/svg" xmlns:xlink="http://www.w3.org/1999/xlink" width="210mm" height="297mm"><title>Atommodell nach Rutherford</title><path fill="#fff" stroke="#fff" d="M84.154 304.958h575.787v442.447H84.154z"/><path d="M459.333 526.181a87.286 87.286 0 1 1-174.571 0 87.286 87.286 0 1 1 174.571 0z" fill="none" stroke="#000" stroke-width="1.99969543" stroke-linecap="square" stroke-dasharray="3.01145666,12.04582665"/><g stroke="maroon"><path d="M380.668 526.181a8.62 8.62 0 1 1-17.241 0 8.62 8.62 0 0 1 17.24 0z" fill="#fff" stroke-width="2.586195" stroke-linecap="round"/><text y="378.916" x="167.974" style="line-height:125%" font-size="12.793" font-weight="400" letter-spacing="0" word-spacing="0" stroke-width=".32" font-family="Sans" transform="matrix(1.2218 0 0 1.2218 160.267 68.118)"><tspan y="378.916" x="167.974">+</tspan></text></g><path d="M503.476 526.181a131.429 131.429 0 1 1-262.857 0 131.429 131.429 0 1 1 262.857 0z" fill="#e6e6e6" stroke="#000" stroke-width="2" stroke-linecap="square" stroke-dasharray="2,8"/><use xlink:href="#a" id="f" transform="translate(19.57 -62.684)" width="744.094" height="1052.362"/><use xlink:href="#b" id="c" transform="translate(-191.429 29.286)" width="744.094" height="1052.362"/><use xlink:href="#c" id="g" transform="translate(48.607 90.015)" width="744.094" height="1052.362"/><use xlink:href="#d" id="e" transform="translate(7.69 -105.577)" width="744.094" height="1052.362"/><use xlink:href="#e" transform="translate(24.265 158.867)" width="744.094" height="1052.362"/><path d="M392.635 539.625a8.62 8.62 0 1 1-17.241 0 8.62 8.62 0 1 1 17.241 0z" fill="none"/><path d="M378.114 544.044a8.62 8.62 0 1 1-17.241 0 8.62 8.62 0 1 1 17.241 0zM394.782 513.74a8.62 8.62 0 1 1-17.242 0 8.62 8.62 0 1 1 17.242 0z" fill="none"/><path d="M399.523 526.181a27.475 27.475 0 1 1-54.951 0 27.475 27.475 0 1 1 54.95 0z" fill="#b3b3b3" stroke="#4d4d4d" stroke-width="1.99998135" stroke-linecap="square"/><g id="a" stroke="navy"><path d="M331.909 487.189a8.62 8.62 0 1 1-17.242 0 8.62 8.62 0 0 1 17.242 0z" fill="#fff" stroke-width="2.586195" stroke-linecap="round"/><text style="line-height:125%" x="185.36" y="391.566" font-size="28.223" font-weight="400" letter-spacing="0" word-spacing="0" stroke-width=".706" font-family="Sans" transform="matrix(1.2218 0 0 1.2218 90.592 18.216)"><tspan x="185.36" y="391.566">-</tspan></text></g><use xlink:href="#f" id="h" transform="translate(-12.612 138.443)" width="744.094" height="1052.362"/><use xlink:href="#g" id="d" transform="translate(112.274 -80.152)" width="744.094" height="1052.362"/><use xlink:href="#h" id="b" transform="translate(126.898 -62.728)" width="744.094" height="1052.362"/><g id="i" stroke="maroon"><path d="M620-42.638c0 8.284-6.716 15-15 15-8.284 0-15-6.716-15-15 0-8.284 6.716-15 15-15 8.284 0 15 6.716 15 15z" transform="matrix(.57471 0 0 .57471 42.388 551.322)" fill="none" stroke="none"/><text style="line-height:125%" x="167.974" y="378.916" font-size="12.793" font-weight="400" letter-spacing="0" word-spacing="0" stroke-width=".32" font-family="Sans" transform="matrix(1.2218 0 0 1.2218 178.309 68.755)"><tspan x="167.974" y="378.916">+</tspan></text></g><use xlink:href="#i" id="j" transform="translate(-31.577 -13.235)" width="744.094" height="1052.362"/><use xlink:href="#j" id="k" transform="translate(14.601 33.38)" width="744.094" height="1052.362"/><use xlink:href="#k" id="l" transform="translate(10.87 -32.173)" width="744.094" height="1052.362"/><use xlink:href="#l" id="m" transform="translate(1.58 24.615)" width="744.094" height="1052.362"/><use xlink:href="#m" id="n" transform="translate(-26 1.704)" width="744.094" height="1052.362"/><use xlink:href="#n" id="o" transform="translate(14.209 -10.022)" width="744.094" height="1052.362"/><use xlink:href="#o" id="p" transform="translate(-5.925 -11.383)" width="744.094" height="1052.362"/><use xlink:href="#p" id="q" transform="translate(5.628 -12.95)" width="744.094" height="1052.362"/><use xlink:href="#q" transform="translate(-22.47 20.317)" width="744.094" height="1052.362"/><g stroke="navy"><path d="M397.192 623.79a8.62 8.62 0 1 1-17.241 0 8.62 8.62 0 1 1 17.241 0z" fill="#fff" stroke-width="2.586195" stroke-linecap="round"/><text y="633.236" x="382.35" style="line-height:125%" font-size="34.483" font-weight="400" letter-spacing="0" word-spacing="0" stroke-width=".862" font-family="Sans"><tspan y="633.236" x="382.35">-</tspan></text></g></svg>