<svg xmlns="http://www.w3.org/2000/svg" xmlns:xlink="http://www.w3.org/1999/xlink" width="210mm" height="297mm"><title>Atommodell nach Thomson</title><defs><filter id="a" x="-.48" width="1.96" y="-.48" height="1.96"><feGaussianBlur stdDeviation="4.571"/></filter></defs><path fill="#fff" stroke="#fff" d="M84.154 304.958h575.787v442.447H84.154z"/><path d="M503.476 526.181a131.429 131.429 0 1 1-262.857 0 131.429 131.429 0 1 1 262.857 0z" fill="#b3b3b3" stroke="#4d4d4d" stroke-width="2" stroke-linecap="square"/><path d="M301.429 350.934a11.429 11.429 0 1 1-22.858 0 11.429 11.429 0 1 1 22.858 0z" transform="translate(29.19 125.247)" fill="#fff" filter="url(#a)"/><g id="b" stroke="navy"><path d="M397.192 623.79a8.62 8.62 0 1 1-17.241 0 8.62 8.62 0 0 1 17.241 0z" fill="#fff" stroke-width="2.586195" stroke-linecap="round"/><text y="391.566" x="185.36" style="line-height:125%" font-size="28.223" font-weight="400" letter-spacing="0" word-spacing="0" stroke-width=".706" font-family="Sans" transform="matrix(1.2218 0 0 1.2218 155.875 154.818)"><tspan y="391.566" x="185.36">-</tspan></text></g><use xlink:href="#b" id="c" transform="translate(-22.857 -133.571)" width="744.094" height="1052.362"/><use xlink:href="#c" id="d" transform="translate(-22.857 -65.714)" width="744.094" height="1052.362"/><use xlink:href="#d" id="e" transform="translate(-8.571 115.714)" width="744.094" height="1052.362"/><use xlink:href="#e" id="f" transform="translate(122.857 -40)" width="744.094" height="1052.362"/><use xlink:href="#f" id="g" transform="translate(-191.429 29.286)" width="744.094" height="1052.362"/><use xlink:href="#g" id="h" transform="translate(52.143 81.429)" width="744.094" height="1052.362"/><use xlink:href="#h" id="i" transform="translate(85 -65)" width="744.094" height="1052.362"/><use xlink:href="#i" id="j" transform="translate(31.429 -112.143)" width="744.094" height="1052.362"/><use xlink:href="#j" transform="translate(12.143 157.857)" width="744.094" height="1052.362"/><g id="k" stroke="maroon"><path d="M620-42.638c0 8.284-6.716 15-15 15-8.284 0-15-6.716-15-15 0-8.284 6.716-15 15-15 8.284 0 15 6.716 15 15z" transform="matrix(.57471 0 0 .57471 110.686 572.463)" fill="none" stroke="none"/><text style="line-height:125%" x="167.974" y="378.916" font-size="12.793" font-weight="400" letter-spacing="0" word-spacing="0" stroke-width=".32" font-family="Sans" transform="matrix(1.2218 0 0 1.2218 246.606 89.895)"><tspan x="167.974" y="378.916">+</tspan></text></g><use xlink:href="#k" id="l" transform="translate(-88.893 -6.566)" width="744.094" height="1052.362"/><use xlink:href="#l" id="m" transform="translate(9.596 -110.612)" width="744.094" height="1052.362"/><use xlink:href="#m" id="n" transform="translate(47.477 188.899)" width="744.094" height="1052.362"/><use xlink:href="#n" id="o" transform="translate(32.83 -155.563)" width="744.094" height="1052.362"/><use xlink:href="#o" id="p" transform="translate(-178.292 109.602)" width="744.094" height="1052.362"/><use xlink:href="#p" id="q" transform="translate(78.287 18.688)" width="744.094" height="1052.362"/><use xlink:href="#q" id="r" transform="translate(-58.084 -79.297)" width="744.094" height="1052.362"/><use xlink:href="#r" id="s" transform="translate(-6.566 -60.104)" width="744.094" height="1052.362"/><use xlink:href="#s" transform="translate(116.168 34.85)" width="744.094" height="1052.362"/></svg>