<svg xmlns="http://www.w3.org/2000/svg" xmlns:xlink="http://www.w3.org/1999/xlink" width="1052.362" height="744.094"><title>Atomschalen-Periodensystem</title><g transform="translate(0 -308.268)"><g transform="translate(130.19 808.333) scale(.28497)"><use height="1052.362" width="744.094" transform="translate(-206.964 -89.464)" xlink:href="#path2989"/><use height="1052.362" width="744.094" transform="rotate(-90 110.714 278.076)" xlink:href="#use3761"/></g><g transform="translate(142.619 807.286) scale(.27542)"><use xlink:href="#path2989" transform="translate(-206.964 -89.464)" width="744.094" height="1052.362"/><use xlink:href="#use3761" transform="rotate(-90 110.714 278.076)" width="744.094" height="1052.362"/></g><g transform="translate(134.174 816.12) scale(.28497)"><use height="1052.362" width="744.094" transform="translate(-206.964 -89.464)" xlink:href="#path2989"/><use height="1052.362" width="744.094" transform="rotate(-90 110.714 278.076)" xlink:href="#use3761"/></g><g transform="translate(144.775 812.433) scale(.28497)"><use xlink:href="#path2989" transform="translate(-206.964 -89.464)" width="744.094" height="1052.362"/><use xlink:href="#use3761" transform="rotate(-90 110.714 278.076)" width="744.094" height="1052.362"/></g><g transform="translate(140.12 820.549) scale(.28497)"><use xlink:href="#path2989" transform="translate(-206.964 -89.464)" width="744.094" height="1052.362"/><use xlink:href="#use3761" transform="rotate(-90 110.714 278.076)" width="744.094" height="1052.362"/></g><g transform="translate(120.727 812.039) scale(.28497)"><use xlink:href="#path2989" transform="translate(-206.964 -89.464)" width="744.094" height="1052.362"/><use xlink:href="#use3761" transform="rotate(-90 110.714 278.076)" width="744.094" height="1052.362"/></g><g transform="translate(127.135 820.687) scale(.28497)"><use height="1052.362" width="744.094" transform="translate(-206.964 -89.464)" xlink:href="#path2989"/><use height="1052.362" width="744.094" transform="rotate(-90 110.714 278.076)" xlink:href="#use3761"/></g><g transform="translate(123.695 801.508) scale(.28497)"><use xlink:href="#path2989" transform="translate(-206.964 -89.464)" width="744.094" height="1052.362"/><use xlink:href="#use3761" transform="rotate(-90 110.714 278.076)" width="744.094" height="1052.362"/></g><g transform="translate(135.02 797.97) scale(.28497)"><use height="1052.362" width="744.094" transform="translate(-206.964 -89.464)" xlink:href="#path2989"/><use height="1052.362" width="744.094" transform="rotate(-90 110.714 278.076)" xlink:href="#use3761"/></g><g transform="translate(130.19 557.815) scale(.28497)"><use xlink:href="#path2989" transform="translate(-206.964 -89.464)" width="744.094" height="1052.362"/><use xlink:href="#use3761" transform="rotate(-90 110.714 278.076)" width="744.094" height="1052.362"/></g><g transform="translate(142.619 556.769) scale(.27542)"><use height="1052.362" width="744.094" transform="translate(-206.964 -89.464)" xlink:href="#path2989"/><use height="1052.362" width="744.094" transform="rotate(-90 110.714 278.076)" xlink:href="#use3761"/></g><g transform="translate(134.174 565.602) scale(.28497)"><use xlink:href="#path2989" transform="translate(-206.964 -89.464)" width="744.094" height="1052.362"/><use xlink:href="#use3761" transform="rotate(-90 110.714 278.076)" width="744.094" height="1052.362"/></g><g transform="translate(144.775 561.915) scale(.28497)"><use height="1052.362" width="744.094" transform="translate(-206.964 -89.464)" xlink:href="#path2989"/><use height="1052.362" width="744.094" transform="rotate(-90 110.714 278.076)" xlink:href="#use3761"/></g><g transform="translate(140.12 570.03) scale(.28497)"><use height="1052.362" width="744.094" transform="translate(-206.964 -89.464)" xlink:href="#path2989"/><use height="1052.362" width="744.094" transform="rotate(-90 110.714 278.076)" xlink:href="#use3761"/></g><g transform="translate(120.727 561.521) scale(.28497)"><use height="1052.362" width="744.094" transform="translate(-206.964 -89.464)" xlink:href="#path2989"/><use height="1052.362" width="744.094" transform="rotate(-90 110.714 278.076)" xlink:href="#use3761"/></g><g transform="translate(127.135 570.17) scale(.28497)"><use xlink:href="#path2989" transform="translate(-206.964 -89.464)" width="744.094" height="1052.362"/><use xlink:href="#use3761" transform="rotate(-90 110.714 278.076)" width="744.094" height="1052.362"/></g><g transform="translate(123.695 550.99) scale(.28497)"><use height="1052.362" width="744.094" transform="translate(-206.964 -89.464)" xlink:href="#path2989"/><use height="1052.362" width="744.094" transform="rotate(-90 110.714 278.076)" xlink:href="#use3761"/></g><g transform="translate(135.02 547.452) scale(.28497)"><use xlink:href="#path2989" transform="translate(-206.964 -89.464)" width="744.094" height="1052.362"/><use xlink:href="#use3761" transform="rotate(-90 110.714 278.076)" width="744.094" height="1052.362"/></g><g transform="translate(130.19 349.724) scale(.28497)"><use height="1052.362" width="744.094" transform="translate(-206.964 -89.464)" xlink:href="#path2989"/><use height="1052.362" width="744.094" transform="rotate(-90 110.714 278.076)" xlink:href="#use3761"/></g><g transform="translate(142.619 348.677) scale(.27542)"><use xlink:href="#path2989" transform="translate(-206.964 -89.464)" width="744.094" height="1052.362"/><use xlink:href="#use3761" transform="rotate(-90 110.714 278.076)" width="744.094" height="1052.362"/></g><g transform="translate(134.174 357.51) scale(.28497)"><use height="1052.362" width="744.094" transform="translate(-206.964 -89.464)" xlink:href="#path2989"/><use height="1052.362" width="744.094" transform="rotate(-90 110.714 278.076)" xlink:href="#use3761"/></g><g transform="translate(144.775 353.823) scale(.28497)"><use xlink:href="#path2989" transform="translate(-206.964 -89.464)" width="744.094" height="1052.362"/><use xlink:href="#use3761" transform="rotate(-90 110.714 278.076)" width="744.094" height="1052.362"/></g><g transform="translate(140.12 361.94) scale(.28497)"><use xlink:href="#path2989" transform="translate(-206.964 -89.464)" width="744.094" height="1052.362"/><use xlink:href="#use3761" transform="rotate(-90 110.714 278.076)" width="744.094" height="1052.362"/></g><g transform="translate(120.727 353.43) scale(.28497)"><use xlink:href="#path2989" transform="translate(-206.964 -89.464)" width="744.094" height="1052.362"/><use xlink:href="#use3761" transform="rotate(-90 110.714 278.076)" width="744.094" height="1052.362"/></g><g transform="translate(127.135 362.078) scale(.28497)"><use height="1052.362" width="744.094" transform="translate(-206.964 -89.464)" xlink:href="#path2989"/><use height="1052.362" width="744.094" transform="rotate(-90 110.714 278.076)" xlink:href="#use3761"/></g><g transform="translate(123.695 342.9) scale(.28497)"><use xlink:href="#path2989" transform="translate(-206.964 -89.464)" width="744.094" height="1052.362"/><use xlink:href="#use3761" transform="rotate(-90 110.714 278.076)" width="744.094" height="1052.362"/></g><g transform="translate(135.02 339.36) scale(.28497)"><use height="1052.362" width="744.094" transform="translate(-206.964 -89.464)" xlink:href="#path2989"/><use height="1052.362" width="744.094" transform="rotate(-90 110.714 278.076)" xlink:href="#use3761"/></g><path fill="#fff" stroke="#fff" d="M7.61 397.458h1037.143v565.714H7.61z"/><path d="M642.857 459.505a244.286 244.286 0 1 1-488.571 0 244.286 244.286 0 1 1 488.571 0z" transform="matrix(.0208 0 0 .01978 66.045 514.666)" fill="#b3b3b3" fill-rule="evenodd" stroke="#000" stroke-width="49.296"/><path d="M642.857 459.505a244.286 244.286 0 1 1-488.571 0 244.286 244.286 0 1 1 488.571 0z" transform="matrix(.09338 0 0 .09333 37.118 480.867)" fill="none" stroke="#000" stroke-width="10.711"/><g stroke="navy"><path d="M341.429 368.076a24.286 24.286 0 1 1-48.572 0 24.286 24.286 0 1 1 48.572 0z" transform="matrix(.15789 0 0 .1578 24.266 488.472)" fill="#f9f9f9" fill-rule="evenodd" stroke-width="6.335"/><path d="M72.242 546.554h4.193" fill="none"/></g><path d="M642.857 459.505a244.286 244.286 0 1 1-488.571 0 244.286 244.286 0 1 1 488.571 0z" transform="matrix(.09338 0 0 .09333 938.273 480.867)" fill="none" stroke="#000" stroke-width="10.711"/><g stroke-width="4.009" stroke="navy"><path transform="matrix(.15789 0 0 .1578 925.42 442.872)" d="M341.429 368.076a24.286 24.286 0 1 1-48.572 0 24.286 24.286 0 1 1 48.572 0z" fill="#f9f9f9" fill-rule="evenodd" stroke-width="6.335"/><path d="M1183.96 1076.127h16.806" fill="none" transform="matrix(.24949 0 0 .24935 678.014 232.622)"/></g><g stroke-width="4.009" stroke="navy"><path d="M341.429 368.076a24.286 24.286 0 1 1-48.572 0 24.286 24.286 0 1 1 48.572 0z" transform="matrix(.15789 0 0 .1578 925.42 488.472)" fill="#f9f9f9" fill-rule="evenodd" stroke-width="6.335"/><path d="M1183.96 1080.634h16.806" fill="none" transform="matrix(.24949 0 0 .24935 678.014 277.098)"/></g><text style="line-height:125%;-inkscape-font-specification:Serif" x="61.257" y="488.078" font-size="30" font-weight="400" letter-spacing="0" word-spacing="0" font-family="Serif"><tspan x="61.257" y="488.078">H</tspan></text><text style="line-height:125%;-inkscape-font-specification:Serif" x="953.231" y="487.866" font-size="30" font-weight="400" letter-spacing="0" word-spacing="0" font-family="Serif"><tspan x="953.231" y="487.866">He</tspan></text><path transform="matrix(.0208 0 0 .01978 67.94 647.668)" d="M642.857 459.505a244.286 244.286 0 1 1-488.571 0 244.286 244.286 0 1 1 488.571 0z" fill="#b3b3b3" fill-rule="evenodd" stroke="#000" stroke-width="49.296"/><path d="M642.857 459.505a244.286 244.286 0 1 1-488.571 0 244.286 244.286 0 1 1 488.571 0z" transform="matrix(.16823 0 0 .16814 7.286 580.16)" fill="none" stroke="#000" stroke-width="5.946"/><path transform="matrix(.09338 0 0 .09333 37.118 614.535)" d="M642.857 459.505a244.286 244.286 0 1 1-488.571 0 244.286 244.286 0 1 1 488.571 0z" fill="none" stroke="#000" stroke-width="10.711"/><g stroke="navy"><path d="M341.429 368.076a24.286 24.286 0 1 1-48.572 0 24.286 24.286 0 1 1 48.572 0z" transform="matrix(.15789 0 0 .1578 24.266 576.54)" fill="#f9f9f9" fill-rule="evenodd" stroke-width="6.335"/><path d="M72.242 634.622h4.193" fill="none"/></g><g stroke="navy"><path transform="matrix(.15789 0 0 .1578 24.266 622.14)" d="M341.429 368.076a24.286 24.286 0 1 1-48.572 0 24.286 24.286 0 1 1 48.572 0z" fill="#f9f9f9" fill-rule="evenodd" stroke-width="6.335"/><path d="M72.242 680.221h4.193" fill="none"/></g><g stroke="navy"><path d="M341.429 368.076a24.286 24.286 0 1 1-48.572 0 24.286 24.286 0 1 1 48.572 0z" transform="matrix(.15789 0 0 .1578 -16.83 599.34)" fill="#f9f9f9" fill-rule="evenodd" stroke-width="6.335"/><path d="M31.145 657.422h4.193" fill="none"/></g><path d="M642.857 459.505a244.286 244.286 0 1 1-488.571 0 244.286 244.286 0 1 1 488.571 0z" transform="matrix(.0208 0 0 .01978 195.305 648.334)" fill="#b3b3b3" fill-rule="evenodd" stroke="#000" stroke-width="49.296"/><path transform="matrix(.16823 0 0 .16814 136.546 580.16)" d="M642.857 459.505a244.286 244.286 0 1 1-488.571 0 244.286 244.286 0 1 1 488.571 0z" fill="none" stroke="#000" stroke-width="5.946"/><path d="M642.857 459.505a244.286 244.286 0 1 1-488.571 0 244.286 244.286 0 1 1 488.571 0z" transform="matrix(.09338 0 0 .09333 166.378 614.535)" fill="none" stroke="#000" stroke-width="10.711"/><path d="M341.429 368.076a24.286 24.286 0 1 1-48.572 0 24.286 24.286 0 1 1 48.572 0z" transform="matrix(.15789 0 0 .1578 153.526 576.54)" fill="#f9f9f9" fill-rule="evenodd" stroke="navy" stroke-width="6.335"/><path d="M201.502 634.622h4.193" fill="none" stroke="navy"/><path transform="matrix(.15789 0 0 .1578 153.526 622.14)" d="M341.429 368.076a24.286 24.286 0 1 1-48.572 0 24.286 24.286 0 1 1 48.572 0z" fill="#f9f9f9" fill-rule="evenodd" stroke="navy" stroke-width="6.335"/><path d="M201.502 680.221h4.193" fill="none" stroke="navy"/><path d="M341.429 368.076a24.286 24.286 0 1 1-48.572 0 24.286 24.286 0 1 1 48.572 0z" transform="matrix(.15789 0 0 .1578 112.43 599.34)" fill="#f9f9f9" fill-rule="evenodd" stroke="navy" stroke-width="6.335"/><path d="M160.405 657.422h4.193" fill="none" stroke="navy"/><path transform="matrix(.15789 0 0 .1578 194.623 599.34)" d="M341.429 368.076a24.286 24.286 0 1 1-48.572 0 24.286 24.286 0 1 1 48.572 0z" fill="#f9f9f9" fill-rule="evenodd" stroke="navy" stroke-width="6.335"/><path d="M242.598 657.422h4.193" fill="none" stroke="navy"/><path transform="matrix(.0208 0 0 .01978 323.52 648.334)" d="M642.857 459.505a244.286 244.286 0 1 1-488.571 0 244.286 244.286 0 1 1 488.571 0z" fill="#b3b3b3" fill-rule="evenodd" stroke="#000" stroke-width="49.296"/><path d="M642.857 459.505a244.286 244.286 0 1 1-488.571 0 244.286 244.286 0 1 1 488.571 0z" transform="matrix(.16823 0 0 .16814 264.761 580.16)" fill="none" stroke="#000" stroke-width="5.946"/><path transform="matrix(.09338 0 0 .09333 294.594 614.535)" d="M642.857 459.505a244.286 244.286 0 1 1-488.571 0 244.286 244.286 0 1 1 488.571 0z" fill="none" stroke="#000" stroke-width="10.711"/><path transform="matrix(.15789 0 0 .1578 281.742 576.54)" d="M341.429 368.076a24.286 24.286 0 1 1-48.572 0 24.286 24.286 0 1 1 48.572 0z" fill="#f9f9f9" fill-rule="evenodd" stroke="navy" stroke-width="6.335"/><path d="M329.717 634.622h4.193" fill="none" stroke="navy"/><g stroke-width="4.009" stroke="navy"><path transform="matrix(.15789 0 0 .1578 281.742 622.14)" d="M341.429 368.076c0 13.413-10.874 24.286-24.286 24.286-13.413 0-24.286-10.873-24.286-24.286 0-13.412 10.873-24.285 24.286-24.285 13.412 0 24.286 10.873 24.286 24.285z" fill="#f9f9f9" fill-rule="evenodd" stroke-width="6.335"/><path d="M1183.123 1079.55h16.806" fill="none" transform="matrix(.24949 0 0 .24935 34.544 411.036)"/></g><path d="M341.429 368.076a24.286 24.286 0 1 1-48.572 0 24.286 24.286 0 1 1 48.572 0z" transform="matrix(.15789 0 0 .1578 281.742 640.414)" fill="#f9f9f9" fill-rule="evenodd" stroke="navy" stroke-width="6.335"/><path d="M329.717 698.496h4.193" fill="none" stroke="navy"/><path d="M642.857 459.505a244.286 244.286 0 1 1-488.571 0 244.286 244.286 0 1 1 488.571 0z" transform="matrix(.0208 0 0 .01978 452.165 648.334)" fill="#b3b3b3" fill-rule="evenodd" stroke="#000" stroke-width="49.296"/><path transform="matrix(.16823 0 0 .16814 393.406 580.16)" d="M642.857 459.505a244.286 244.286 0 1 1-488.571 0 244.286 244.286 0 1 1 488.571 0z" fill="none" stroke="#000" stroke-width="5.946"/><path d="M642.857 459.505a244.286 244.286 0 1 1-488.571 0 244.286 244.286 0 1 1 488.571 0z" transform="matrix(.09338 0 0 .09333 423.238 614.535)" fill="none" stroke="#000" stroke-width="10.711"/><g stroke-width="4.009" stroke="navy"><path transform="matrix(.15789 0 0 .1578 410.386 576.54)" d="M341.429 368.076c0 13.413-10.874 24.286-24.286 24.286-13.413 0-24.286-10.873-24.286-24.286 0-13.412 10.873-24.285 24.286-24.285 13.412 0 24.286 10.873 24.286 24.285z" fill="#f9f9f9" fill-rule="evenodd" stroke-width="6.335"/><path d="M1183.123 1076.256h16.806" fill="none" transform="matrix(.24949 0 0 .24935 163.188 366.257)"/></g><g stroke-width="4.009" stroke="navy"><path d="M341.429 368.076c0 13.413-10.874 24.286-24.286 24.286-13.413 0-24.286-10.873-24.286-24.286 0-13.412 10.873-24.285 24.286-24.285 13.412 0 24.286 10.873 24.286 24.285z" transform="matrix(.15789 0 0 .1578 410.386 622.14)" fill="#f9f9f9" fill-rule="evenodd" stroke-width="6.335"/><path d="M1183.123 1079.55h16.806" fill="none" transform="matrix(.24949 0 0 .24935 163.188 411.036)"/></g><g stroke-width="4.009" stroke="navy"><path transform="matrix(.15789 0 0 .1578 369.29 599.34)" d="M341.429 368.076c0 13.413-10.874 24.286-24.286 24.286-13.413 0-24.286-10.873-24.286-24.286 0-13.412 10.873-24.285 24.286-24.285 13.412 0 24.286 10.873 24.286 24.285z" fill="#f9f9f9" fill-rule="evenodd" stroke-width="6.335"/><path d="M1183.06 1079.48h16.807" fill="none" transform="matrix(.24949 0 0 .24935 122.107 388.253)"/></g><g stroke-width="4.009" stroke="navy"><path d="M341.429 368.076c0 13.413-10.874 24.286-24.286 24.286-13.413 0-24.286-10.873-24.286-24.286 0-13.412 10.873-24.285 24.286-24.285 13.412 0 24.286 10.873 24.286 24.285z" transform="matrix(.15789 0 0 .1578 451.483 599.34)" fill="#f9f9f9" fill-rule="evenodd" stroke-width="6.335"/><path d="M1186.572 1079.48h16.807" fill="none" transform="matrix(.24949 0 0 .24935 203.424 388.253)"/></g><g stroke-width="4.009" stroke="navy"><path d="M341.429 368.076c0 13.413-10.874 24.286-24.286 24.286-13.413 0-24.286-10.873-24.286-24.286 0-13.412 10.873-24.285 24.286-24.285 13.412 0 24.286 10.873 24.286 24.285z" transform="matrix(.15789 0 0 .1578 410.386 640.414)" fill="#f9f9f9" fill-rule="evenodd" stroke-width="6.335"/><path d="M1183.123 1082.16h16.806" fill="none" transform="matrix(.24949 0 0 .24935 163.188 428.66)"/></g><g stroke-width="4.009" stroke="navy"><path transform="matrix(.15789 0 0 .1578 410.386 558.265)" d="M341.429 368.076c0 13.413-10.874 24.286-24.286 24.286-13.413 0-24.286-10.873-24.286-24.286 0-13.412 10.873-24.285 24.286-24.285 13.412 0 24.286 10.873 24.286 24.285z" fill="#f9f9f9" fill-rule="evenodd" stroke-width="6.335"/><path d="M1183.123 1079.273h16.806" fill="none" transform="matrix(.24949 0 0 .24935 163.188 347.23)"/></g><path transform="matrix(.0208 0 0 .01978 581.08 648.334)" d="M642.857 459.505a244.286 244.286 0 1 1-488.571 0 244.286 244.286 0 1 1 488.571 0z" fill="#b3b3b3" fill-rule="evenodd" stroke="#000" stroke-width="49.296"/><path d="M642.857 459.505a244.286 244.286 0 1 1-488.571 0 244.286 244.286 0 1 1 488.571 0z" transform="matrix(.16823 0 0 .16814 522.32 580.16)" fill="none" stroke="#000" stroke-width="5.946"/><path transform="matrix(.09338 0 0 .09333 552.153 614.535)" d="M642.857 459.505a244.286 244.286 0 1 1-488.571 0 244.286 244.286 0 1 1 488.571 0z" fill="none" stroke="#000" stroke-width="10.711"/><g stroke-width="4.009" stroke="navy"><path d="M341.429 368.076c0 13.413-10.874 24.286-24.286 24.286-13.413 0-24.286-10.873-24.286-24.286 0-13.412 10.873-24.285 24.286-24.285 13.412 0 24.286 10.873 24.286 24.285z" transform="matrix(.15789 0 0 .1578 539.301 576.54)" fill="#f9f9f9" fill-rule="evenodd" stroke-width="6.335"/><path d="M1183.123 1076.256h16.806" fill="none" transform="matrix(.24949 0 0 .24935 292.103 366.257)"/></g><g stroke-width="4.009" stroke="navy"><path transform="matrix(.15789 0 0 .1578 539.301 622.14)" d="M341.429 368.076c0 13.413-10.874 24.286-24.286 24.286-13.413 0-24.286-10.873-24.286-24.286 0-13.412 10.873-24.285 24.286-24.285 13.412 0 24.286 10.873 24.286 24.285z" fill="#f9f9f9" fill-rule="evenodd" stroke-width="6.335"/><path d="M1183.123 1079.55h16.806" fill="none" transform="matrix(.24949 0 0 .24935 292.103 411.036)"/></g><path transform="matrix(.15789 0 0 .1578 539.301 558.265)" d="M341.429 368.076a24.286 24.286 0 1 1-48.572 0 24.286 24.286 0 1 1 48.572 0z" fill="#f9f9f9" fill-rule="evenodd" stroke="navy" stroke-width="6.335"/><path d="M587.277 616.347h4.193" fill="none" stroke="navy"/><path d="M642.857 459.505a244.286 244.286 0 1 1-488.571 0 244.286 244.286 0 1 1 488.571 0z" transform="matrix(.0208 0 0 .01978 709.787 648.334)" fill="#b3b3b3" fill-rule="evenodd" stroke="#000" stroke-width="49.296"/><path transform="matrix(.16823 0 0 .16814 651.027 580.16)" d="M642.857 459.505a244.286 244.286 0 1 1-488.571 0 244.286 244.286 0 1 1 488.571 0z" fill="none" stroke="#000" stroke-width="5.946"/><path d="M642.857 459.505a244.286 244.286 0 1 1-488.571 0 244.286 244.286 0 1 1 488.571 0z" transform="matrix(.09338 0 0 .09333 680.86 614.535)" fill="none" stroke="#000" stroke-width="10.711"/><g stroke-width="4.009" stroke="navy"><path transform="matrix(.15789 0 0 .1578 668.008 576.54)" d="M341.429 368.076c0 13.413-10.874 24.286-24.286 24.286-13.413 0-24.286-10.873-24.286-24.286 0-13.412 10.873-24.285 24.286-24.285 13.412 0 24.286 10.873 24.286 24.285z" fill="#f9f9f9" fill-rule="evenodd" stroke-width="6.335"/><path d="M1183.123 1076.256h16.806" fill="none" transform="matrix(.24949 0 0 .24935 420.81 366.257)"/></g><g stroke-width="4.009" stroke="navy"><path d="M341.429 368.076c0 13.413-10.874 24.286-24.286 24.286-13.413 0-24.286-10.873-24.286-24.286 0-13.412 10.873-24.285 24.286-24.285 13.412 0 24.286 10.873 24.286 24.285z" transform="matrix(.15789 0 0 .1578 668.008 622.14)" fill="#f9f9f9" fill-rule="evenodd" stroke-width="6.335"/><path d="M1183.123 1079.55h16.806" fill="none" transform="matrix(.24949 0 0 .24935 420.81 411.036)"/></g><path d="M341.429 368.076a24.286 24.286 0 1 1-48.572 0 24.286 24.286 0 1 1 48.572 0z" transform="matrix(.15789 0 0 .1578 668.008 558.265)" fill="#f9f9f9" fill-rule="evenodd" stroke="navy" stroke-width="6.335"/><path d="M715.983 616.347h4.193" fill="none" stroke="navy"/><g stroke-width="4.009" stroke="navy"><path d="M341.429 368.076c0 13.413-10.874 24.286-24.286 24.286-13.413 0-24.286-10.873-24.286-24.286 0-13.412 10.873-24.285 24.286-24.285 13.412 0 24.286 10.873 24.286 24.285z" transform="matrix(.15789 0 0 .1578 668.008 640.414)" fill="#f9f9f9" fill-rule="evenodd" stroke-width="6.335"/><path d="M1183.123 1085.024h16.806" fill="none" transform="matrix(.24949 0 0 .24935 420.81 427.945)"/></g><path d="M642.857 459.505a244.286 244.286 0 1 1-488.571 0 244.286 244.286 0 1 1 488.571 0z" transform="matrix(.0208 0 0 .01978 967.2 648.334)" fill="#b3b3b3" fill-rule="evenodd" stroke="#000" stroke-width="49.296"/><path transform="matrix(.0208 0 0 .01978 838.284 648.334)" d="M642.857 459.505a244.286 244.286 0 1 1-488.571 0 244.286 244.286 0 1 1 488.571 0z" fill="#b3b3b3" fill-rule="evenodd" stroke="#000" stroke-width="49.296"/><path d="M642.857 459.505a244.286 244.286 0 1 1-488.571 0 244.286 244.286 0 1 1 488.571 0z" transform="matrix(.16823 0 0 .16814 779.525 580.16)" fill="none" stroke="#000" stroke-width="5.946"/><path transform="matrix(.09338 0 0 .09333 809.358 614.535)" d="M642.857 459.505a244.286 244.286 0 1 1-488.571 0 244.286 244.286 0 1 1 488.571 0z" fill="none" stroke="#000" stroke-width="10.711"/><g stroke-width="4.009" stroke="navy"><path d="M341.429 368.076c0 13.413-10.874 24.286-24.286 24.286-13.413 0-24.286-10.873-24.286-24.286 0-13.412 10.873-24.285 24.286-24.285 13.412 0 24.286 10.873 24.286 24.285z" transform="matrix(.15789 0 0 .1578 796.505 576.54)" fill="#f9f9f9" fill-rule="evenodd" stroke-width="6.335"/><path d="M1183.123 1076.256h16.806" fill="none" transform="matrix(.24949 0 0 .24935 549.307 366.257)"/></g><g stroke-width="4.009" stroke="navy"><path transform="matrix(.15789 0 0 .1578 796.505 622.14)" d="M341.429 368.076c0 13.413-10.874 24.286-24.286 24.286-13.413 0-24.286-10.873-24.286-24.286 0-13.412 10.873-24.285 24.286-24.285 13.412 0 24.286 10.873 24.286 24.285z" fill="#f9f9f9" fill-rule="evenodd" stroke-width="6.335"/><path d="M1183.123 1079.55h16.806" fill="none" transform="matrix(.24949 0 0 .24935 549.307 411.036)"/></g><path transform="matrix(.15789 0 0 .1578 796.505 558.265)" d="M341.429 368.076a24.286 24.286 0 1 1-48.572 0 24.286 24.286 0 1 1 48.572 0z" fill="#f9f9f9" fill-rule="evenodd" stroke="navy" stroke-width="6.335"/><path d="M844.481 616.347h4.193" fill="none" stroke="navy"/><text style="line-height:125%;-inkscape-font-specification:Serif" x="59.096" y="601.306" font-size="30" font-weight="400" letter-spacing="0" word-spacing="0" font-family="Serif"><tspan x="59.096" y="601.306">Li</tspan></text><text style="line-height:125%;-inkscape-font-specification:Serif" x="183.072" y="600.991" font-size="30" font-weight="400" letter-spacing="0" word-spacing="0" font-family="Serif"><tspan x="183.072" y="600.991">Be</tspan></text><text style="line-height:125%;-inkscape-font-specification:Serif" x="320.879" y="601.203" font-size="30" font-weight="400" letter-spacing="0" word-spacing="0" font-family="Serif"><tspan x="320.879" y="601.203">B</tspan></text><text style="line-height:125%;-inkscape-font-specification:Serif" x="449.039" y="601.188" font-size="30" font-weight="400" letter-spacing="0" word-spacing="0" font-family="Serif"><tspan x="449.039" y="601.188">C</tspan></text><text style="line-height:125%;-inkscape-font-specification:Serif" x="575.966" y="600.991" font-size="30" font-weight="400" letter-spacing="0" word-spacing="0" font-family="Serif"><tspan x="575.966" y="600.991">N</tspan></text><text style="line-height:125%;-inkscape-font-specification:Serif" x="705.566" y="601.188" font-size="30" font-weight="400" letter-spacing="0" word-spacing="0" font-family="Serif"><tspan x="705.566" y="601.188">O</tspan></text><text style="line-height:125%;-inkscape-font-specification:Serif" x="835.972" y="601.203" font-size="30" font-weight="400" letter-spacing="0" word-spacing="0" font-family="Serif"><tspan x="835.972" y="601.203">F</tspan></text><text style="line-height:125%;-inkscape-font-specification:Serif" x="953.297" y="600.991" font-size="30" font-weight="400" letter-spacing="0" word-spacing="0" font-family="Serif"><tspan x="953.297" y="600.991">Ne</tspan></text><path d="M642.857 459.505a244.286 244.286 0 1 1-488.571 0 244.286 244.286 0 1 1 488.571 0z" transform="matrix(.24949 0 0 .24935 -25.1 715.429)" fill="none" stroke="#000" stroke-width="4.009"/><g stroke-width="4.009" stroke="navy"><path d="M341.429 368.076c0 13.413-10.874 24.286-24.286 24.286-13.413 0-24.286-10.873-24.286-24.286 0-13.412 10.873-24.285 24.286-24.285 13.412 0 24.286 10.873 24.286 24.285z" transform="matrix(.15789 0 0 .1578 24.266 711.012)" fill="#f9f9f9" fill-rule="evenodd" stroke-width="6.335"/><path d="M1174.85 1079.52h16.806" fill="none" transform="matrix(.24949 0 0 .24935 -220.868 499.916)"/></g><path transform="matrix(.24949 0 0 .24935 103.638 715.429)" d="M642.857 459.505a244.286 244.286 0 1 1-488.571 0 244.286 244.286 0 1 1 488.571 0z" fill="none" stroke="#000" stroke-width="4.009"/><g stroke-width="4.009" stroke="navy"><path transform="matrix(.15789 0 0 .1578 153.004 711.012)" d="M341.429 368.076c0 13.413-10.874 24.286-24.286 24.286-13.413 0-24.286-10.873-24.286-24.286 0-13.412 10.873-24.285 24.286-24.285 13.412 0 24.286 10.873 24.286 24.285z" fill="#f9f9f9" fill-rule="evenodd" stroke-width="6.335"/><path d="M1174.85 1079.52h16.806" fill="none" transform="matrix(.24949 0 0 .24935 -92.13 499.916)"/></g><g stroke-width="4.009" stroke="navy"><path d="M341.429 368.076c0 13.413-10.874 24.286-24.286 24.286-13.413 0-24.286-10.873-24.286-24.286 0-13.412 10.873-24.285 24.286-24.285 13.412 0 24.286 10.873 24.286 24.285z" transform="matrix(.15789 0 0 .1578 153.004 832.837)" fill="#f9f9f9" fill-rule="evenodd" stroke-width="6.335"/><path d="M1177.068 1081.944h16.806" fill="none" transform="matrix(.24949 0 0 .24935 -92.684 621.136)"/></g><path d="M642.857 459.505a244.286 244.286 0 1 1-488.571 0 244.286 244.286 0 1 1 488.571 0z" transform="matrix(.24949 0 0 .24935 232.376 715.429)" fill="none" stroke="#000" stroke-width="4.009"/><path d="M341.429 368.076a24.286 24.286 0 1 1-48.572 0 24.286 24.286 0 1 1 48.572 0z" transform="matrix(.15789 0 0 .1578 281.742 832.837)" fill="#f9f9f9" fill-rule="evenodd" stroke="navy" stroke-width="6.335"/><path d="M329.717 890.919h4.193" fill="none" stroke="navy"/><path d="M642.857 459.505a244.286 244.286 0 1 1-488.571 0 244.286 244.286 0 1 1 488.571 0z" transform="matrix(.24949 0 0 .24935 361.02 715.429)" fill="none" stroke="#000" stroke-width="4.009"/><g stroke-width="4.009" stroke="navy"><path d="M341.429 368.076c0 13.413-10.874 24.286-24.286 24.286-13.413 0-24.286-10.873-24.286-24.286 0-13.412 10.873-24.285 24.286-24.285 13.412 0 24.286 10.873 24.286 24.285z" transform="matrix(.15789 0 0 .1578 410.386 711.012)" fill="#f9f9f9" fill-rule="evenodd" stroke-width="6.335"/><path d="M1183.123 1079.48h16.806" fill="none" transform="matrix(.24949 0 0 .24935 163.188 499.925)"/></g><g stroke-width="4.009" stroke="navy"><path transform="matrix(.15789 0 0 .1578 410.386 832.837)" d="M341.429 368.076a24.286 24.286 0 1 1-48.572 0 24.286 24.286 0 1 1 48.572 0z" fill="#f9f9f9" fill-rule="evenodd" stroke-width="6.335"/><path d="M1174.85 1081.953h16.807" fill="none" transform="matrix(.24949 0 0 .24935 165.252 621.134)"/></g><g stroke-width="4.009" stroke="navy"><path transform="matrix(.15789 0 0 .1578 349.44 771.924)" d="M341.429 368.076a24.286 24.286 0 1 1-48.572 0 24.286 24.286 0 1 1 48.572 0z" fill="#f9f9f9" fill-rule="evenodd" stroke-width="6.335"/><path d="M1179.573 1079.48h16.807" fill="none" transform="matrix(.24949 0 0 .24935 103.127 560.838)"/></g><g stroke-width="4.009" stroke="navy"><path d="M341.429 368.076a24.286 24.286 0 1 1-48.572 0 24.286 24.286 0 1 1 48.572 0z" transform="matrix(.15789 0 0 .1578 471.332 771.924)" fill="#f9f9f9" fill-rule="evenodd" stroke-width="6.335"/><path d="M1188.348 1079.48h16.807" fill="none" transform="matrix(.24949 0 0 .24935 222.83 560.838)"/></g><path transform="matrix(.24949 0 0 .24935 618.641 715.429)" d="M642.857 459.505a244.286 244.286 0 1 1-488.571 0 244.286 244.286 0 1 1 488.571 0z" fill="none" stroke="#000" stroke-width="4.009"/><path d="M341.429 368.076a24.286 24.286 0 1 1-48.572 0 24.286 24.286 0 1 1 48.572 0z" transform="matrix(.15789 0 0 .1578 668.008 711.012)" fill="#f9f9f9" fill-rule="evenodd" stroke="navy" stroke-width="6.335"/><path d="M715.983 769.094h4.193" fill="none" stroke="navy"/><path transform="matrix(.24949 0 0 .24935 876.055 715.429)" d="M642.857 459.505a244.286 244.286 0 1 1-488.571 0 244.286 244.286 0 1 1 488.571 0z" fill="none" stroke="#000" stroke-width="4.009"/><path transform="matrix(.15789 0 0 .1578 925.42 832.837)" d="M341.429 368.076a24.286 24.286 0 1 1-48.572 0 24.286 24.286 0 1 1 48.572 0z" fill="#f9f9f9" fill-rule="evenodd" stroke="navy" stroke-width="6.335"/><path d="M973.397 890.919h4.193" fill="none" stroke="navy"/><path d="M642.857 459.505a244.286 244.286 0 1 1-488.571 0 244.286 244.286 0 1 1 488.571 0z" transform="matrix(.24949 0 0 .24935 747.14 715.429)" fill="none" stroke="#000" stroke-width="4.009"/><path transform="matrix(.15789 0 0 .1578 796.505 711.012)" d="M341.429 368.076a24.286 24.286 0 1 1-48.572 0 24.286 24.286 0 1 1 48.572 0z" fill="#f9f9f9" fill-rule="evenodd" stroke="navy" stroke-width="6.335"/><path d="M844.481 769.094h4.193" fill="none" stroke="navy"/><path transform="matrix(.24949 0 0 .24935 489.935 715.429)" d="M642.857 459.505a244.286 244.286 0 1 1-488.571 0 244.286 244.286 0 1 1 488.571 0z" fill="none" stroke="#000" stroke-width="4.009"/><path d="M341.429 368.076a24.286 24.286 0 1 1-48.572 0 24.286 24.286 0 1 1 48.572 0z" transform="matrix(.15789 0 0 .1578 539.301 711.012)" fill="#f9f9f9" fill-rule="evenodd" stroke="navy" stroke-width="6.335"/><path d="M587.277 769.094h4.193" fill="none" stroke="navy"/><text style="line-height:125%;-inkscape-font-specification:Serif" x="51.963" y="755.117" font-size="30" font-weight="400" letter-spacing="0" word-spacing="0" font-family="Serif"><tspan x="51.963" y="755.117">Na</tspan></text><text style="line-height:125%;-inkscape-font-specification:Serif" x="177.784" y="751.997" font-size="30" font-weight="400" letter-spacing="0" word-spacing="0" font-family="Serif"><tspan x="177.784" y="751.997">Mg</tspan></text><text style="line-height:125%;-inkscape-font-specification:Serif" x="316.711" y="755.791" font-size="30" font-weight="400" letter-spacing="0" word-spacing="0" font-family="Serif"><tspan x="316.711" y="755.791">Al</tspan></text><text style="line-height:125%;-inkscape-font-specification:Serif" x="444.462" y="755.315" font-size="30" font-weight="400" letter-spacing="0" word-spacing="0" font-family="Serif"><tspan x="444.462" y="755.315">Si</tspan></text><text style="line-height:125%;-inkscape-font-specification:Serif" x="578.988" y="755.33" font-size="30" font-weight="400" letter-spacing="0" word-spacing="0" font-family="Serif"><tspan x="578.988" y="755.33">P</tspan></text><text style="line-height:125%;-inkscape-font-specification:Serif" x="707.434" y="755.315" font-size="30" font-weight="400" letter-spacing="0" word-spacing="0" font-family="Serif"><tspan x="707.434" y="755.315">S</tspan></text><text style="line-height:125%;-inkscape-font-specification:Serif" x="829.9" y="755.579" font-size="30" font-weight="400" letter-spacing="0" word-spacing="0" font-family="Serif"><tspan x="829.9" y="755.579">Cl</tspan></text><text style="line-height:125%;-inkscape-font-specification:Serif" x="957.362" y="755.33" font-size="30" font-weight="400" letter-spacing="0" word-spacing="0" font-family="Serif"><tspan x="957.362" y="755.33">Ar</tspan></text><path d="M642.857 459.505a244.286 244.286 0 1 1-488.571 0 244.286 244.286 0 1 1 488.571 0z" transform="matrix(.04876 0 0 .04635 956.059 502.458)" fill="#b3b3b3" fill-rule="evenodd" stroke="maroon" stroke-width="49.296"/><text y="528.207" x="966.842" style="line-height:125%" font-size="12" font-weight="400" letter-spacing="0" word-spacing="0" fill="maroon" font-family="Sans"><tspan y="528.207" x="966.842">2+</tspan></text><path transform="matrix(.04876 0 0 .04635 54.904 502.458)" d="M642.857 459.505a244.286 244.286 0 1 1-488.571 0 244.286 244.286 0 1 1 488.571 0z" fill="#b3b3b3" fill-rule="evenodd" stroke="maroon" stroke-width="49.296"/><text style="line-height:125%" x="65.687" y="528.207" font-size="12" font-weight="400" letter-spacing="0" word-spacing="0" fill="maroon" font-family="Sans"><tspan x="65.687" y="528.207">1+</tspan></text><path d="M642.857 459.505a244.286 244.286 0 1 1-488.571 0 244.286 244.286 0 1 1 488.571 0z" transform="matrix(.04876 0 0 .04635 54.904 636.126)" fill="#b3b3b3" fill-rule="evenodd" stroke="maroon" stroke-width="49.296"/><text y="661.875" x="65.687" style="line-height:125%" font-size="12" font-weight="400" letter-spacing="0" word-spacing="0" fill="maroon" font-family="Sans"><tspan y="661.875" x="65.687">3+</tspan></text><path d="M642.857 459.505a244.286 244.286 0 1 1-488.571 0 244.286 244.286 0 1 1 488.571 0z" transform="matrix(.04876 0 0 .04635 54.904 808.71)" fill="#b3b3b3" fill-rule="evenodd" stroke="maroon" stroke-width="49.296"/><text y="526.472" x="963.332" style="line-height:125%" font-size="10" font-weight="400" letter-spacing="0" word-spacing="0" fill="maroon" font-family="Sans" transform="translate(-899.57 307.18)"><tspan y="526.472" x="963.332">11+</tspan></text><path d="M642.857 459.505c0 134.915-109.37 244.286-244.286 244.286-134.915 0-244.285-109.37-244.285-244.286 0-134.915 109.37-244.286 244.285-244.286 134.916 0 244.286 109.37 244.286 244.286z" transform="matrix(.04876 0 0 .04635 183.642 808.71)" fill="#b3b3b3" fill-rule="evenodd" stroke="maroon" stroke-width="49.296"/><text y="526.8" x="963.783" style="line-height:125%" font-size="10" font-weight="400" letter-spacing="0" word-spacing="0" fill="maroon" font-family="Sans" transform="translate(-771.283 306.917)"><tspan y="526.8" x="963.783">12+</tspan></text><path d="M642.857 459.505a244.286 244.286 0 1 1-488.571 0 244.286 244.286 0 1 1 488.571 0z" transform="matrix(.04876 0 0 .04635 184.164 636.126)" fill="#b3b3b3" fill-rule="evenodd" stroke="maroon" stroke-width="49.296"/><text y="661.875" x="194.947" style="line-height:125%" font-size="12" font-weight="400" letter-spacing="0" word-spacing="0" fill="maroon" font-family="Sans"><tspan y="661.875" x="194.947">4+</tspan></text><path d="M642.857 459.505a244.286 244.286 0 1 1-488.571 0 244.286 244.286 0 1 1 488.571 0z" transform="matrix(.04876 0 0 .04635 312.38 636.126)" fill="#b3b3b3" fill-rule="evenodd" stroke="maroon" stroke-width="49.296"/><text y="661.711" x="323.139" style="line-height:125%" font-size="12" font-weight="400" letter-spacing="0" word-spacing="0" fill="maroon" font-family="Sans"><tspan y="661.711" x="323.139">5+</tspan></text><path d="M642.857 459.505c0 134.915-109.37 244.286-244.286 244.286-134.915 0-244.285-109.37-244.285-244.286 0-134.915 109.37-244.286 244.285-244.286 134.916 0 244.286 109.37 244.286 244.286z" transform="matrix(.04876 0 0 .04635 312.38 808.71)" fill="#b3b3b3" fill-rule="evenodd" stroke="maroon" stroke-width="49.296"/><text y="527.394" x="964.708" style="line-height:125%" font-size="10" font-weight="400" letter-spacing="0" word-spacing="0" fill="maroon" font-family="Sans" transform="translate(-643.47 306.252)"><tspan y="527.394" x="964.708">13+</tspan></text><path d="M642.857 459.505a244.286 244.286 0 1 1-488.571 0 244.286 244.286 0 1 1 488.571 0z" transform="matrix(.04876 0 0 .04635 441.024 808.71)" fill="#b3b3b3" fill-rule="evenodd" stroke="maroon" stroke-width="49.296"/><text y="527.399" x="964.708" style="line-height:125%" font-size="10" font-weight="400" letter-spacing="0" word-spacing="0" fill="maroon" font-family="Sans" transform="translate(-514.826 306.252)"><tspan y="527.399" x="964.708">14+</tspan></text><path d="M642.857 459.505c0 134.915-109.37 244.286-244.286 244.286-134.915 0-244.285-109.37-244.285-244.286 0-134.915 109.37-244.286 244.285-244.286 134.916 0 244.286 109.37 244.286 244.286z" transform="matrix(.04876 0 0 .04635 441.024 636.126)" fill="#b3b3b3" fill-rule="evenodd" stroke="maroon" stroke-width="49.296"/><text y="528.207" x="966.633" style="line-height:125%" font-size="12" font-weight="400" letter-spacing="0" word-spacing="0" fill="maroon" font-family="Sans" transform="translate(-514.826 133.667)"><tspan y="528.207" x="966.633">6+</tspan></text><path d="M642.857 459.505a244.286 244.286 0 1 1-488.571 0 244.286 244.286 0 1 1 488.571 0z" transform="matrix(.04876 0 0 .04635 569.94 636.126)" fill="#b3b3b3" fill-rule="evenodd" stroke="maroon" stroke-width="49.296"/><text y="531.542" x="965.85" style="line-height:125%" font-size="12" font-weight="400" letter-spacing="0" word-spacing="0" fill="maroon" font-family="Sans" transform="translate(-385.18 130.254)"><tspan y="531.542" x="965.85">7+</tspan></text><path d="M642.857 459.505c0 134.915-109.37 244.286-244.286 244.286-134.915 0-244.285-109.37-244.285-244.286 0-134.915 109.37-244.286 244.285-244.286 134.916 0 244.286 109.37 244.286 244.286z" transform="matrix(.04876 0 0 .04635 569.94 808.71)" fill="#b3b3b3" fill-rule="evenodd" stroke="maroon" stroke-width="49.296"/><text y="527.328" x="964.708" style="line-height:125%" font-size="10" font-weight="400" letter-spacing="0" word-spacing="0" fill="maroon" font-family="Sans" transform="translate(-385.91 306.252)"><tspan y="527.328" x="964.708">15+</tspan></text><path d="M642.857 459.505a244.286 244.286 0 1 1-488.571 0 244.286 244.286 0 1 1 488.571 0z" transform="matrix(.04876 0 0 .04635 698.646 808.71)" fill="#b3b3b3" fill-rule="evenodd" stroke="maroon" stroke-width="49.296"/><text y="529.989" x="963.713" style="line-height:125%" font-size="10" font-weight="400" letter-spacing="0" word-spacing="0" fill="maroon" font-family="Sans" transform="translate(-256.21 303.657)"><tspan y="529.989" x="963.713">16+</tspan></text><path d="M642.857 459.505c0 134.915-109.37 244.286-244.286 244.286-134.915 0-244.285-109.37-244.285-244.286 0-134.915 109.37-244.286 244.285-244.286 134.916 0 244.286 109.37 244.286 244.286z" transform="matrix(.04876 0 0 .04635 698.646 636.126)" fill="#b3b3b3" fill-rule="evenodd" stroke="maroon" stroke-width="49.296"/><text y="528.207" x="966.633" style="line-height:125%" font-size="12" font-weight="400" letter-spacing="0" word-spacing="0" fill="maroon" font-family="Sans" transform="translate(-257.204 133.667)"><tspan y="528.207" x="966.633">8+</tspan></text><path d="M642.857 459.505a244.286 244.286 0 1 1-488.571 0 244.286 244.286 0 1 1 488.571 0z" transform="matrix(.04876 0 0 .04635 827.144 636.126)" fill="#b3b3b3" fill-rule="evenodd" stroke="maroon" stroke-width="49.296"/><text y="528.207" x="966.633" style="line-height:125%" font-size="12" font-weight="400" letter-spacing="0" word-spacing="0" fill="maroon" font-family="Sans" transform="translate(-128.707 133.667)"><tspan y="528.207" x="966.633">9+</tspan></text><path d="M642.857 459.505a244.286 244.286 0 1 1-488.571 0 244.286 244.286 0 1 1 488.571 0z" transform="matrix(.04876 0 0 .04635 827.144 808.71)" fill="#b3b3b3" fill-rule="evenodd" stroke="maroon" stroke-width="49.296"/><text y="527.399" x="964.708" style="line-height:125%" font-size="10" font-weight="400" letter-spacing="0" word-spacing="0" fill="maroon" font-family="Sans" transform="translate(-128.707 306.252)"><tspan y="527.399" x="964.708">17+</tspan></text><path d="M642.857 459.505c0 134.915-109.37 244.286-244.286 244.286-134.915 0-244.285-109.37-244.285-244.286 0-134.915 109.37-244.286 244.285-244.286 134.916 0 244.286 109.37 244.286 244.286z" transform="matrix(.04876 0 0 .04635 956.059 808.71)" fill="#b3b3b3" fill-rule="evenodd" stroke="maroon" stroke-width="49.296"/><text y="526.729" x="963.783" style="line-height:125%" font-size="10" font-weight="400" letter-spacing="0" word-spacing="0" fill="maroon" font-family="Sans" transform="translate(1.134 306.917)"><tspan y="526.729" x="963.783">18+</tspan></text><path d="M642.857 459.505c0 134.915-109.37 244.286-244.286 244.286-134.915 0-244.285-109.37-244.285-244.286 0-134.915 109.37-244.286 244.285-244.286 134.916 0 244.286 109.37 244.286 244.286z" transform="matrix(.04876 0 0 .04635 956.059 636.126)" fill="#b3b3b3" fill-rule="evenodd" stroke="maroon" stroke-width="49.296"/><text y="521.025" x="966.632" style="line-height:125%" font-size="10" font-weight="400" letter-spacing="0" word-spacing="0" fill="maroon" font-family="Sans" transform="translate(-1.715 140.037)"><tspan y="521.025" x="966.632">10+</tspan></text><path transform="matrix(-.07894 -.13673 .13666 -.0789 342.12 709.29)" d="M341.429 368.076a24.286 24.286 0 1 1-48.572 0 24.286 24.286 0 1 1 48.572 0z" fill="#f9f9f9" fill-rule="evenodd" stroke="navy" stroke-width="6.335"/><path d="M365.289 636.884h4.193" fill="none" stroke="navy"/><path d="M341.429 368.076a24.286 24.286 0 1 1-48.572 0 24.286 24.286 0 1 1 48.572 0z" transform="matrix(-.07894 .13673 -.13666 -.0789 371.58 622.562)" fill="#f9f9f9" fill-rule="evenodd" stroke="navy" stroke-width="6.335"/><path d="M294.146 636.884h4.193" fill="none" stroke="navy"/><path d="M341.429 368.076a24.286 24.286 0 1 1-48.572 0 24.286 24.286 0 1 1 48.572 0z" transform="matrix(.04879 -.15016 .15008 .04876 479.597 674.402)" fill="#f9f9f9" fill-rule="evenodd" stroke="navy" stroke-width="6.335"/><path transform="matrix(-.12773 -.0928 .09275 -.12766 571.6 767.072)" d="M341.429 368.076a24.286 24.286 0 1 1-48.572 0 24.286 24.286 0 1 1 48.572 0z" fill="#f9f9f9" fill-rule="evenodd" stroke="navy" stroke-width="6.335"/><path d="M341.429 368.076a24.286 24.286 0 1 1-48.572 0 24.286 24.286 0 1 1 48.572 0z" transform="matrix(-.12773 .0928 -.09275 -.12766 688.165 708.209)" fill="#f9f9f9" fill-rule="evenodd" stroke="navy" stroke-width="6.335"/><path transform="matrix(.04879 .15016 -.15008 .04876 668.203 579.16)" d="M341.429 368.076a24.286 24.286 0 1 1-48.572 0 24.286 24.286 0 1 1 48.572 0z" fill="#f9f9f9" fill-rule="evenodd" stroke="navy" stroke-width="6.335"/><path d="M548.213 644.729h4.193M563.134 690.651h4.193M611.42 690.651h4.193M626.34 644.729h4.194" fill="none" stroke="navy"/><path transform="matrix(.07894 -.13673 .13666 .0789 607.172 651.207)" d="M341.429 368.076a24.286 24.286 0 1 1-48.572 0 24.286 24.286 0 1 1 48.572 0z" fill="#f9f9f9" fill-rule="evenodd" stroke="navy" stroke-width="6.335"/><path d="M341.429 368.076a24.286 24.286 0 1 1-48.572 0 24.286 24.286 0 1 1 48.572 0z" transform="matrix(-.07894 -.13673 .13666 -.0789 657.244 750.363)" fill="#f9f9f9" fill-rule="evenodd" stroke="navy" stroke-width="6.335"/><path transform="matrix(-.07894 .13673 -.13666 -.0789 828.988 663.636)" d="M341.429 368.076a24.286 24.286 0 1 1-48.572 0 24.286 24.286 0 1 1 48.572 0z" fill="#f9f9f9" fill-rule="evenodd" stroke="navy" stroke-width="6.335"/><path d="M341.429 368.076a24.286 24.286 0 1 1-48.572 0 24.286 24.286 0 1 1 48.572 0z" transform="matrix(.07894 .13673 -.13666 .0789 778.915 564.48)" fill="#f9f9f9" fill-rule="evenodd" stroke="navy" stroke-width="6.335"/><path d="M680.412 636.884h4.193M680.412 677.959h4.193M751.555 677.959h4.193M751.555 636.884h4.193" fill="none" stroke="navy"/><path d="M341.429 368.076a24.286 24.286 0 1 1-48.572 0 24.286 24.286 0 1 1 48.572 0z" transform="matrix(.09844 -.12344 .12337 .09838 737.835 634.748)" fill="#f9f9f9" fill-rule="evenodd" stroke="navy" stroke-width="6.335"/><path transform="matrix(-.03514 -.15393 .15384 -.03512 761.05 728.304)" d="M341.429 368.076a24.286 24.286 0 1 1-48.572 0 24.286 24.286 0 1 1 48.572 0z" fill="#f9f9f9" fill-rule="evenodd" stroke="navy" stroke-width="6.335"/><path d="M341.429 368.076a24.286 24.286 0 1 1-48.572 0 24.286 24.286 0 1 1 48.572 0z" transform="matrix(-.14225 -.0685 .06846 -.14217 848.671 768.484)" fill="#f9f9f9" fill-rule="evenodd" stroke="navy" stroke-width="6.335"/><path transform="matrix(-.14225 .0685 -.06847 -.14217 934.715 725.03)" d="M341.429 368.076a24.286 24.286 0 1 1-48.572 0 24.286 24.286 0 1 1 48.572 0z" fill="#f9f9f9" fill-rule="evenodd" stroke="navy" stroke-width="6.335"/><path d="M341.429 368.076a24.286 24.286 0 1 1-48.572 0 24.286 24.286 0 1 1 48.572 0z" transform="matrix(-.03513 .15393 -.15384 -.0351 954.389 630.665)" fill="#f9f9f9" fill-rule="evenodd" stroke="navy" stroke-width="6.335"/><path transform="matrix(.09845 .12344 -.12337 .0984 892.877 556.449)" d="M341.429 368.076a24.286 24.286 0 1 1-48.572 0 24.286 24.286 0 1 1 48.572 0z" fill="#f9f9f9" fill-rule="evenodd" stroke="navy" stroke-width="6.335"/><path d="M826.66 694.428h4.194M804.437 666.562h4.193M812.368 631.812h4.193M862.304 694.428h4.193M884.526 666.56h4.193M876.593 631.81h4.193" fill="none" stroke="navy"/><path d="M642.857 459.505a244.286 244.286 0 1 1-488.571 0 244.286 244.286 0 1 1 488.571 0z" transform="matrix(.16823 0 0 .16814 908.44 580.16)" fill="none" stroke="#000" stroke-width="5.946"/><path transform="matrix(.09338 0 0 .09333 938.273 614.535)" d="M642.857 459.505a244.286 244.286 0 1 1-488.571 0 244.286 244.286 0 1 1 488.571 0z" fill="none" stroke="#000" stroke-width="10.711"/><path d="M341.429 368.076a24.286 24.286 0 1 1-48.572 0 24.286 24.286 0 1 1 48.572 0z" transform="matrix(.15789 0 0 .1578 925.42 576.54)" stroke-width="6.335" fill="#f9f9f9" fill-rule="evenodd" stroke="navy"/><path d="M1183.123 1076.256h16.806" transform="matrix(.24949 0 0 .24935 678.223 366.257)" stroke-width="4.009" fill="none" stroke="navy"/><path transform="matrix(.15789 0 0 .1578 925.42 558.265)" d="M341.429 368.076a24.286 24.286 0 1 1-48.572 0 24.286 24.286 0 1 1 48.572 0z" fill="#f9f9f9" fill-rule="evenodd" stroke="navy" stroke-width="6.335"/><path d="M973.397 616.347h4.193" fill="none" stroke="navy"/><path d="M341.429 368.076a24.286 24.286 0 1 1-48.572 0 24.286 24.286 0 1 1 48.572 0z" transform="matrix(.11164 -.11164 .11158 .11158 869.973 622.714)" fill="#f9f9f9" fill-rule="evenodd" stroke="navy" stroke-width="6.335"/><path transform="matrix(0 -.15789 .1578 0 876.337 707.494)" d="M341.429 368.076a24.286 24.286 0 1 1-48.572 0 24.286 24.286 0 1 1 48.572 0z" fill="#f9f9f9" fill-rule="evenodd" stroke="navy" stroke-width="6.335"/><path d="M341.429 368.076a24.286 24.286 0 1 1-48.572 0 24.286 24.286 0 1 1 48.572 0z" transform="rotate(-134.998 628.411 186.634) scale(.15789 .15779)" fill="#f9f9f9" fill-rule="evenodd" stroke="navy" stroke-width="6.335"/><path transform="matrix(-.15789 0 0 -.1578 1025.565 756.578)" d="M341.429 368.076a24.286 24.286 0 1 1-48.572 0 24.286 24.286 0 1 1 48.572 0z" fill="#f9f9f9" fill-rule="evenodd" stroke="navy" stroke-width="6.335"/><path d="M341.429 368.076a24.286 24.286 0 1 1-48.572 0 24.286 24.286 0 1 1 48.572 0z" transform="rotate(134.998 397.171 569.956) scale(.15789 .15779)" fill="#f9f9f9" fill-rule="evenodd" stroke="navy" stroke-width="6.335"/><path transform="matrix(0 .15789 -.1578 0 1074.65 607.35)" d="M341.429 368.076a24.286 24.286 0 1 1-48.572 0 24.286 24.286 0 1 1 48.572 0z" fill="#f9f9f9" fill-rule="evenodd" stroke="navy" stroke-width="6.335"/><path d="M341.429 368.076a24.286 24.286 0 1 1-48.572 0 24.286 24.286 0 1 1 48.572 0z" transform="matrix(.11164 .11164 -.11158 .11158 1010.2 551.901)" fill="#f9f9f9" fill-rule="evenodd" stroke="navy" stroke-width="6.335"/><path d="M944.353 628.378h4.193M932.3 657.422h4.193M944.353 686.465h4.193M973.397 698.496h4.193M1002.44 686.465h4.193M1014.47 657.422h4.194M1002.44 628.378h4.193" fill="none" stroke="navy"/><g id="a"><path transform="matrix(.16823 0 0 .16814 908.44 580.16)" d="M642.857 459.505c0 134.915-109.37 244.286-244.286 244.286-134.915 0-244.285-109.37-244.285-244.286 0-134.915 109.37-244.286 244.285-244.286 134.916 0 244.286 109.37 244.286 244.286z" fill="none" stroke="#000" stroke-width="5.946"/><path d="M642.857 459.505c0 134.915-109.37 244.286-244.286 244.286-134.915 0-244.285-109.37-244.285-244.286 0-134.915 109.37-244.286 244.285-244.286 134.916 0 244.286 109.37 244.286 244.286z" transform="matrix(.09338 0 0 .09333 938.273 614.535)" fill="none" stroke="#000" stroke-width="10.711"/><path transform="matrix(.15789 0 0 .1578 925.42 622.14)" d="M341.429 368.076c0 13.413-10.874 24.286-24.286 24.286-13.413 0-24.286-10.873-24.286-24.286 0-13.412 10.873-24.285 24.286-24.285 13.412 0 24.286 10.873 24.286 24.285z" stroke-width="6.335" fill="#f9f9f9" fill-rule="evenodd" stroke="navy"/><path d="M1183.123 1079.55h16.806" transform="matrix(.24949 0 0 .24935 678.223 411.036)" stroke-width="4.009" fill="none" stroke="navy"/><path transform="matrix(.15789 0 0 .1578 925.42 576.54)" d="M341.429 368.076c0 13.413-10.874 24.286-24.286 24.286-13.413 0-24.286-10.873-24.286-24.286 0-13.412 10.873-24.285 24.286-24.285 13.412 0 24.286 10.873 24.286 24.285z" fill="#f9f9f9" fill-rule="evenodd" stroke="navy" stroke-width="6.335"/><path d="M973.397 634.622h4.193" fill="none" stroke="navy"/><path d="M341.429 368.076c0 13.413-10.874 24.286-24.286 24.286-13.413 0-24.286-10.873-24.286-24.286 0-13.412 10.873-24.285 24.286-24.285 13.412 0 24.286 10.873 24.286 24.285z" transform="matrix(.15789 0 0 .1578 925.42 558.265)" fill="#f9f9f9" fill-rule="evenodd" stroke="navy" stroke-width="6.335"/><path d="M973.397 616.347h4.193" fill="none" stroke="navy"/><path transform="matrix(.11164 -.11164 .11158 .11158 869.973 622.714)" d="M341.429 368.076c0 13.413-10.874 24.286-24.286 24.286-13.413 0-24.286-10.873-24.286-24.286 0-13.412 10.873-24.285 24.286-24.285 13.412 0 24.286 10.873 24.286 24.285z" fill="#f9f9f9" fill-rule="evenodd" stroke="navy" stroke-width="6.335"/><path d="M341.429 368.076c0 13.413-10.874 24.286-24.286 24.286-13.413 0-24.286-10.873-24.286-24.286 0-13.412 10.873-24.285 24.286-24.285 13.412 0 24.286 10.873 24.286 24.285z" transform="matrix(0 -.15789 .1578 0 876.337 707.494)" fill="#f9f9f9" fill-rule="evenodd" stroke="navy" stroke-width="6.335"/><path transform="rotate(-134.998 628.411 186.634) scale(.15789 .15779)" d="M341.429 368.076c0 13.413-10.874 24.286-24.286 24.286-13.413 0-24.286-10.873-24.286-24.286 0-13.412 10.873-24.285 24.286-24.285 13.412 0 24.286 10.873 24.286 24.285z" fill="#f9f9f9" fill-rule="evenodd" stroke="navy" stroke-width="6.335"/><path d="M341.429 368.076c0 13.413-10.874 24.286-24.286 24.286-13.413 0-24.286-10.873-24.286-24.286 0-13.412 10.873-24.285 24.286-24.285 13.412 0 24.286 10.873 24.286 24.285z" transform="matrix(-.15789 0 0 -.1578 1025.565 756.578)" fill="#f9f9f9" fill-rule="evenodd" stroke="navy" stroke-width="6.335"/><path transform="rotate(134.998 397.171 569.956) scale(.15789 .15779)" d="M341.429 368.076c0 13.413-10.874 24.286-24.286 24.286-13.413 0-24.286-10.873-24.286-24.286 0-13.412 10.873-24.285 24.286-24.285 13.412 0 24.286 10.873 24.286 24.285z" fill="#f9f9f9" fill-rule="evenodd" stroke="navy" stroke-width="6.335"/><path d="M341.429 368.076c0 13.413-10.874 24.286-24.286 24.286-13.413 0-24.286-10.873-24.286-24.286 0-13.412 10.873-24.285 24.286-24.285 13.412 0 24.286 10.873 24.286 24.285z" transform="matrix(0 .15789 -.1578 0 1074.65 607.35)" fill="#f9f9f9" fill-rule="evenodd" stroke="navy" stroke-width="6.335"/><path transform="matrix(.11164 .11164 -.11158 .11158 1010.2 551.901)" d="M341.429 368.076c0 13.413-10.874 24.286-24.286 24.286-13.413 0-24.286-10.873-24.286-24.286 0-13.412 10.873-24.285 24.286-24.285 13.412 0 24.286 10.873 24.286 24.285z" fill="#f9f9f9" fill-rule="evenodd" stroke="navy" stroke-width="6.335"/><path d="M944.353 628.378h4.193M932.3 657.422h4.193M944.353 686.465h4.193M973.397 698.496h4.193M1002.44 686.465h4.193M1014.47 657.422h4.194M1002.44 628.378h4.193" fill="none" stroke="navy"/></g><path d="M341.429 368.076a24.286 24.286 0 1 1-48.572 0 24.286 24.286 0 1 1 48.572 0z" transform="matrix(-.07894 -.13673 .13666 -.0789 359.301 871.955)" fill="#f9f9f9" fill-rule="evenodd" stroke="navy" stroke-width="6.335"/><path transform="matrix(-.07894 .13673 -.13666 -.0789 354.399 785.227)" d="M341.429 368.076a24.286 24.286 0 1 1-48.572 0 24.286 24.286 0 1 1 48.572 0z" fill="#f9f9f9" fill-rule="evenodd" stroke="navy" stroke-width="6.335"/><path d="M382.47 799.55h4.192M276.966 799.55h4.193" fill="none" stroke="navy"/><path transform="matrix(.04879 -.15016 .15008 .04876 460.73 840.856)" d="M341.429 368.076a24.286 24.286 0 1 1-48.572 0 24.286 24.286 0 1 1 48.572 0z" fill="#f9f9f9" fill-rule="evenodd" stroke="navy" stroke-width="6.335"/><path d="M341.429 368.076a24.286 24.286 0 1 1-48.572 0 24.286 24.286 0 1 1 48.572 0z" transform="matrix(-.12773 -.0928 .09275 -.12766 559.94 955.707)" fill="#f9f9f9" fill-rule="evenodd" stroke="navy" stroke-width="6.335"/><path transform="matrix(-.12773 .0928 -.09275 -.12766 699.826 896.843)" d="M341.429 368.076a24.286 24.286 0 1 1-48.572 0 24.286 24.286 0 1 1 48.572 0z" fill="#f9f9f9" fill-rule="evenodd" stroke="navy" stroke-width="6.335"/><path d="M341.429 368.076a24.286 24.286 0 1 1-48.572 0 24.286 24.286 0 1 1 48.572 0z" transform="matrix(.04879 .15016 -.15008 .04876 687.07 745.613)" fill="#f9f9f9" fill-rule="evenodd" stroke="navy" stroke-width="6.335"/><path d="M529.345 811.183h4.193M551.473 879.286h4.193M623.08 879.286h4.193M645.208 811.183h4.193" fill="none" stroke="navy"/><use xlink:href="#a" transform="translate(-901.155 172.585)" width="1052.362" height="744.094"/><use xlink:href="#a" transform="translate(-772.448 172.585)" width="1052.362" height="744.094"/><use xlink:href="#a" transform="translate(-643.68 172.585)" width="1052.362" height="744.094"/><use xlink:href="#a" transform="translate(-515.035 172.585)" width="1052.362" height="744.094"/><use xlink:href="#a" transform="translate(-386.12 172.585)" width="1052.362" height="744.094"/><use xlink:href="#a" transform="translate(-257.413 172.585)" width="1052.362" height="744.094"/><path transform="matrix(.07894 -.13673 .13666 .0789 589.991 813.873)" d="M341.429 368.076a24.286 24.286 0 1 1-48.572 0 24.286 24.286 0 1 1 48.572 0z" fill="#f9f9f9" fill-rule="evenodd" stroke="navy" stroke-width="6.335"/><path d="M341.429 368.076a24.286 24.286 0 1 1-48.572 0 24.286 24.286 0 1 1 48.572 0z" transform="matrix(-.07894 -.13673 .13666 -.0789 640.064 932.867)" fill="#f9f9f9" fill-rule="evenodd" stroke="navy" stroke-width="6.335"/><path transform="matrix(-.15789 0 0 -.1578 768.152 949)" d="M341.429 368.076a24.286 24.286 0 1 1-48.572 0 24.286 24.286 0 1 1 48.572 0z" fill="#f9f9f9" fill-rule="evenodd" stroke="navy" stroke-width="6.335"/><path d="M341.429 368.076a24.286 24.286 0 1 1-48.572 0 24.286 24.286 0 1 1 48.572 0z" transform="matrix(-.07894 .13673 -.13666 -.0789 846.168 846.14)" fill="#f9f9f9" fill-rule="evenodd" stroke="navy" stroke-width="6.335"/><path transform="matrix(.07894 .13673 -.13666 .0789 796.096 727.145)" d="M341.429 368.076a24.286 24.286 0 1 1-48.572 0 24.286 24.286 0 1 1 48.572 0z" fill="#f9f9f9" fill-rule="evenodd" stroke="navy" stroke-width="6.335"/><path d="M768.735 799.55h4.193M768.735 860.463h4.193M715.983 890.919h4.193M663.232 860.463h4.192M663.231 799.55h4.193" fill="none" stroke="navy"/><use xlink:href="#a" transform="translate(-128.915 172.585)" width="1052.362" height="744.094"/><path d="M341.429 368.076a24.286 24.286 0 1 1-48.572 0 24.286 24.286 0 1 1 48.572 0z" transform="matrix(.09844 -.12344 .12337 .09839 722.325 794.961)" fill="#f9f9f9" fill-rule="evenodd" stroke="navy" stroke-width="6.335"/><path transform="matrix(-.03513 -.15393 .15384 -.03511 741.707 905.3)" d="M341.429 368.076a24.286 24.286 0 1 1-48.572 0 24.286 24.286 0 1 1 48.572 0z" fill="#f9f9f9" fill-rule="evenodd" stroke="navy" stroke-width="6.335"/><path d="M341.429 368.076a24.286 24.286 0 1 1-48.572 0 24.286 24.286 0 1 1 48.572 0z" transform="matrix(-.14225 -.0685 .06847 -.14217 840.058 958.942)" fill="#f9f9f9" fill-rule="evenodd" stroke="navy" stroke-width="6.335"/><path transform="matrix(-.14225 .0685 -.06846 -.14217 943.318 915.495)" d="M341.429 368.076a24.286 24.286 0 1 1-48.572 0 24.286 24.286 0 1 1 48.572 0z" fill="#f9f9f9" fill-rule="evenodd" stroke="navy" stroke-width="6.335"/><path d="M341.429 368.076a24.286 24.286 0 1 1-48.572 0 24.286 24.286 0 1 1 48.572 0z" transform="matrix(-.03514 .15393 -.15384 -.03512 973.732 807.675)" fill="#f9f9f9" fill-rule="evenodd" stroke="navy" stroke-width="6.335"/><path transform="matrix(.09843 .12345 -.12338 .09838 908.399 716.67)" d="M341.429 368.076a24.286 24.286 0 1 1-48.572 0 24.286 24.286 0 1 1 48.572 0z" fill="#f9f9f9" fill-rule="evenodd" stroke="navy" stroke-width="6.335"/><path d="M892.107 792.03h4.193M903.866 843.564h4.193M796.858 792.027h4.193M785.095 843.56h4.193M818.05 884.886h4.194M870.908 884.888h4.193" fill="none" stroke="navy"/><use xlink:href="#a" transform="translate(0 172.585)" width="1052.362" height="744.094"/><path d="M341.429 368.076a24.286 24.286 0 1 1-48.572 0 24.286 24.286 0 1 1 48.572 0z" transform="matrix(.11164 -.11164 .11158 .11158 942.088 867.414)" fill="#f9f9f9" fill-rule="evenodd" stroke="navy" stroke-width="6.335"/><path transform="matrix(0 -.15789 .1578 0 978.324 880.078)" d="M341.429 368.076a24.286 24.286 0 1 1-48.572 0 24.286 24.286 0 1 1 48.572 0z" fill="#f9f9f9" fill-rule="evenodd" stroke="navy" stroke-width="6.335"/><path d="M341.429 368.076a24.286 24.286 0 1 1-48.572 0 24.286 24.286 0 1 1 48.572 0z" transform="rotate(-134.998 685.277 221.934) scale(.15789 .15779)" fill="#f9f9f9" fill-rule="evenodd" stroke="navy" stroke-width="6.335"/><path transform="matrix(-.15789 0 0 -.1578 1025.565 827.176)" d="M341.429 368.076a24.286 24.286 0 1 1-48.572 0 24.286 24.286 0 1 1 48.572 0z" fill="#f9f9f9" fill-rule="evenodd" stroke="navy" stroke-width="6.335"/><path d="M341.429 368.076a24.286 24.286 0 1 1-48.572 0 24.286 24.286 0 1 1 48.572 0z" transform="rotate(134.998 340.305 605.255) scale(.15789 .15779)" fill="#f9f9f9" fill-rule="evenodd" stroke="navy" stroke-width="6.335"/><path transform="matrix(0 .15789 -.1578 0 972.662 779.934)" d="M341.429 368.076a24.286 24.286 0 1 1-48.572 0 24.286 24.286 0 1 1 48.572 0z" fill="#f9f9f9" fill-rule="evenodd" stroke="navy" stroke-width="6.335"/><path d="M341.429 368.076a24.286 24.286 0 1 1-48.572 0 24.286 24.286 0 1 1 48.572 0z" transform="matrix(.11164 .11164 -.11158 .11158 938.085 796.601)" fill="#f9f9f9" fill-rule="evenodd" stroke="navy" stroke-width="6.335"/><path d="M930.325 873.078h4.193M912.484 830.006h4.193M1016.468 873.078h4.193M1034.343 830.006h4.193M1016.468 786.935h4.193M973.397 769.094h4.193M930.325 786.935h4.193" fill="none" stroke="navy"/></g></svg>