<svg xmlns="http://www.w3.org/2000/svg" width="1052.362" height="744.094"><title>Atommodell nach Dalton</title><defs><filter color-interpolation-filters="sRGB" height="1.96" y="-.48" width="1.96" x="-.48" id="a"><feGaussianBlur stdDeviation="4.571"/></filter></defs><path fill="#fff" d="M18.074 134.661h1016.213v474.772H18.074z"/><path d="M292.467 424.604a101.167 101.167 0 1 1-202.334 0 101.167 101.167 0 1 1 202.334 0z" fill="#b3b3b3" stroke="#4d4d4d" stroke-width="1.9998105" stroke-linecap="square"/><path transform="matrix(.76975 0 0 .76975 -72.614 115.986)" d="M301.429 350.934a11.429 11.429 0 1 1-22.858 0 11.429 11.429 0 1 1 22.858 0z" fill="#fff" filter="url(#a)"/><path d="M605.171 394.452a131.429 131.429 0 1 1-262.857 0 131.429 131.429 0 1 1 262.857 0z" fill="#b3b3b3" stroke="#4d4d4d" stroke-width="2" stroke-linecap="square"/><path d="M301.429 350.934a11.429 11.429 0 1 1-22.858 0 11.429 11.429 0 1 1 22.858 0z" transform="translate(130.885 -6.482)" fill="#fff" filter="url(#a)"/><path d="M962.229 371.94a153.726 153.726 0 1 1-307.452 0 153.726 153.726 0 1 1 307.452 0z" fill="#b3b3b3" stroke="#4d4d4d" stroke-width="2.0001015" stroke-linecap="square"/><path transform="matrix(1.16965 0 0 1.16965 407.48 -97.013)" d="M301.429 350.934a11.429 11.429 0 1 1-22.858 0 11.429 11.429 0 1 1 22.858 0z" fill="#fff" filter="url(#a)"/></svg>