<svg xmlns:ns0="http://www.iki.fi/pav/software/textext/" xmlns="http://www.w3.org/2000/svg" xmlns:xlink="http://www.w3.org/1999/xlink" width="210mm" height="297mm"><title>Atommodell nach Bohr</title><defs><marker id="a" orient="auto" overflow="visible"><path transform="rotate(180) scale(.6)" d="M8.719 4.034L-2.207.016 8.719-4.002c-1.746 2.372-1.736 5.618 0 8.036z" font-size="12" fill-rule="evenodd" stroke-width=".625" stroke-linejoin="round"/></marker></defs><path fill="#fff" stroke="#fff" d="M84.154 304.958h575.787v442.447H84.154z"/><g stroke="maroon"><path d="M380.668 526.181a8.62 8.62 0 1 1-17.241 0 8.62 8.62 0 0 1 17.24 0z" fill="#fff" stroke-width="2.586195" stroke-linecap="round"/><text style="line-height:125%" x="167.974" y="378.916" font-size="12.793" font-weight="400" letter-spacing="0" word-spacing="0" stroke-width=".32" font-family="Sans" transform="matrix(1.2218 0 0 1.2218 160.267 68.118)"><tspan x="167.974" y="378.916">+</tspan></text></g><path d="M464.981 433.247a131.429 131.429 0 1 1-185.868 185.868 131.429 131.429 0 1 1 185.868-185.868z" fill="none" stroke="#000" stroke-width="2" stroke-linecap="square" stroke-dasharray="2,8"/><path d="M392.635 539.625a8.62 8.62 0 1 1-17.241 0 8.62 8.62 0 1 1 17.241 0z" fill="none"/><path d="M378.114 544.044a8.62 8.62 0 1 1-17.241 0 8.62 8.62 0 1 1 17.241 0zM394.782 513.74a8.62 8.62 0 1 1-17.242 0 8.62 8.62 0 1 1 17.242 0z" fill="none"/><path d="M462.17 526.181a90.122 90.122 0 1 1-180.245 0 90.122 90.122 0 1 1 180.245 0z" fill="none" stroke="#000" stroke-width="2.00021607" stroke-linecap="square" stroke-dasharray="2.91666631,11.66666526"/><g fill="#fff" stroke="navy"><path d="M441.943 459.447a8.62 8.62 0 1 1-17.242 0 8.62 8.62 0 0 1 17.242 0z" stroke-width="2.586195" stroke-linecap="round"/><text style="line-height:125%" x="185.36" y="391.566" font-size="28.223" font-weight="400" letter-spacing="0" word-spacing="0" fill="#000" stroke-width=".706" font-family="Sans" transform="matrix(1.2218 0 0 1.2218 200.626 -9.526)"><tspan x="185.36" y="391.566">-</tspan></text></g><path d="M416.19 526.181a44.143 44.143 0 1 1-88.286 0 44.143 44.143 0 1 1 88.286 0z" fill="none" stroke="#000" stroke-width="2.00010585" stroke-linecap="square" stroke-dasharray="5.95469318,23.8187728"/><path d="M464.981 433.247l-23.109 18.958" fill="none" stroke="#000" stroke-width="2" marker-end="url(#a)"/><g fill="#fff"><path d="M473.602 433.247a8.62 8.62 0 1 1-17.241 0 8.62 8.62 0 0 1 17.241 0z" stroke-width="2.586195" stroke-linecap="round" stroke="#fff"/><g opacity=".43" stroke="navy"><path d="M473.602 433.247a8.62 8.62 0 1 1-17.241 0 8.62 8.62 0 0 1 17.241 0z" opacity=".677" stroke-width="2.586195" stroke-linecap="round"/><text style="line-height:125%" x="185.36" y="391.566" font-size="28.223" font-weight="400" letter-spacing="0" word-spacing="0" opacity=".677" fill="#000" stroke-width=".706" font-family="Sans" transform="matrix(1.2218 0 0 1.2218 232.285 -35.726)"><tspan x="185.36" y="391.566">-</tspan></text></g></g><g stroke="#f60" stroke-width="1.659" fill="none"><path transform="matrix(-.268 0 0 .28117 609.762 -70.614)" d="M4.27 1854.383c0 14.741-11.95 26.69-26.69 26.69a26.69 26.69 0 0 1-18.873-7.817" stroke-width="10.929" stroke-linecap="round" stroke-linejoin="round"/><g stroke-linecap="round" stroke-linejoin="round"><path d="M500.634 440.854c0 2.238-1.928 4.051-4.306 4.051s-4.307-1.813-4.307-4.051m25.837 0c0 2.238-1.928 4.051-4.306 4.051-2.379 0-4.307-1.813-4.307-4.051m25.837 0c0 2.238-1.928 4.051-4.307 4.051-2.378 0-4.306-1.813-4.306-4.051m25.836 0c0 2.238-1.928 4.051-4.306 4.051s-4.307-1.813-4.307-4.051m25.837 0c0 2.238-1.928 4.051-4.306 4.051-2.379 0-4.307-1.813-4.307-4.051" transform="matrix(1.76543 0 0 1.85227 -412.06 -365.788)"/><path d="M509.245 440.901c0-2.237-1.928-4.051-4.306-4.051-2.379 0-4.307 1.814-4.307 4.051m25.837 0c0-2.237-1.928-4.051-4.307-4.051-2.378 0-4.306 1.814-4.306 4.051m25.836 0c0-2.237-1.928-4.051-4.306-4.051-2.379 0-4.307 1.814-4.307 4.051m25.837 0c0-2.237-1.928-4.051-4.306-4.051-2.379 0-4.307 1.814-4.307 4.051m25.837 0c0-2.237-1.928-4.051-4.307-4.051-2.378 0-4.306 1.814-4.306 4.051" transform="matrix(1.76543 0 0 1.85227 -412.06 -365.788)"/></g><path d="M4.27 1854.383a26.69 26.69 0 0 1-7.817 18.873" transform="matrix(-.34505 -.20982 .19922 -.36342 252.877 1130.908)" stroke-width="7.337" stroke-linecap="round" stroke-linejoin="round"/><path d="M625.15 471.973h6.734" marker-end="url(#a)" transform="matrix(1.76543 0 0 1.85227 -476.373 -423.341)"/></g><g transform="matrix(3.90393 0 0 3.90393 -352.11 -24.13)" ns0:text="Photon" fill="#f60"><defs><symbol overflow="visible" id="b"><path d="M2.266-3.156h1.687c1.188 0 2.266-.797 2.266-1.797 0-.984-.985-1.86-2.344-1.86H.344v.313h.25c.765 0 .781.11.781.469v5.25c0 .36-.016.469-.781.469h-.25V0c.36-.031 1.094-.031 1.469-.031s1.125 0 1.484.031v-.313h-.25c-.766 0-.781-.109-.781-.468zm-.032-.25v-2.688c0-.343.016-.406.485-.406h.89c1.579 0 1.579 1.063 1.579 1.547 0 .469 0 1.547-1.579 1.547zm0 0"/></symbol><symbol overflow="visible" id="c"><path d="M1.094-.75c0 .438-.11.438-.782.438V0c.36-.016.86-.031 1.141-.031.25 0 .766.015 1.11.031v-.313c-.672 0-.782 0-.782-.437v-1.844c0-1.031.719-1.594 1.344-1.594.64 0 .75.532.75 1.11V-.75c0 .438-.11.438-.781.438V0c.344-.016.86-.031 1.125-.031.25 0 .781.015 1.11.031v-.313c-.516 0-.766 0-.766-.296v-1.907c0-.859 0-1.156-.313-1.515-.14-.172-.469-.375-1.047-.375-.844 0-1.281.593-1.453.984v-3.5l-1.438.11v.312c.704 0 .782.063.782.563zm0 0"/></symbol><symbol overflow="visible" id="d"><path d="M4.688-2.14c0-1.266-.985-2.329-2.188-2.329C1.25-4.469.281-3.375.281-2.14A2.22 2.22 0 0 0 2.484.11c1.204 0 2.204-.984 2.204-2.25zM2.5-.14c-.438 0-.875-.204-1.14-.672-.25-.438-.25-1.047-.25-1.407 0-.39 0-.922.234-1.36a1.347 1.347 0 0 1 1.14-.671c.438 0 .86.219 1.125.656.266.422.266 1 .266 1.375 0 .36 0 .906-.219 1.344-.234.453-.672.734-1.156.734zm0 0"/></symbol><symbol overflow="visible" id="e"><path d="M1.719-3.984h1.437v-.313H1.72v-1.828h-.25c0 .813-.297 1.875-1.282 1.922v.219h.844v2.75c0 1.218.938 1.343 1.297 1.343.703 0 .985-.703.985-1.343v-.563h-.25v.547c0 .734-.297 1.11-.672 1.11-.672 0-.672-.907-.672-1.079zm0 0"/></symbol><symbol overflow="visible" id="f"><path d="M1.094-3.422V-.75c0 .438-.11.438-.782.438V0c.36-.016.86-.031 1.141-.031.25 0 .766.015 1.11.031v-.313c-.672 0-.782 0-.782-.437v-1.844c0-1.031.719-1.594 1.344-1.594.64 0 .75.532.75 1.11V-.75c0 .438-.11.438-.781.438V0c.344-.016.86-.031 1.125-.031.25 0 .781.015 1.11.031v-.313c-.516 0-.766 0-.766-.296v-1.907c0-.859 0-1.156-.313-1.515-.14-.172-.469-.375-1.047-.375-.734 0-1.203.422-1.484 1.047v-1.047l-1.407.11v.312c.704 0 .782.062.782.562zm0 0"/></symbol></defs><use height="1052.362" width="744.094" xlink:href="#b" x="223.432" y="134.765"/><use height="1052.362" width="744.094" xlink:href="#c" x="230.213" y="134.765"/><use height="1052.362" width="744.094" xlink:href="#d" x="235.748" y="134.765"/><use height="1052.362" width="744.094" xlink:href="#e" x="240.729" y="134.765"/><use height="1052.362" width="744.094" xlink:href="#d" x="244.604" y="134.765"/><use height="1052.362" width="744.094" xlink:href="#f" x="249.585" y="134.765"/></g><g fill="#000" ns0:text="$n=1$"><path d="M357.591 587.68c-.084.422-.253 1.056-.253 1.183 0 .465.38.719.803.719.338 0 .803-.212 1.014-.761 0-.042.338-1.31.507-1.987l.592-2.408c.127-.634.296-1.226.465-1.818.084-.465.295-1.268.338-1.352.38-.845 1.817-3.297 4.395-3.297 1.226 0 1.437 1.015 1.437 1.902 0 1.648-1.31 5.114-1.733 6.255-.253.634-.296.972-.296 1.268 0 1.268.972 2.198 2.24 2.198 2.536 0 3.508-3.93 3.508-4.142 0-.296-.211-.296-.296-.296-.296 0-.296.085-.422.507-.55 1.817-1.437 3.339-2.747 3.339-.465 0-.634-.254-.634-.888 0-.676.211-1.31.465-1.901.507-1.437 1.648-4.396 1.648-5.96 0-1.775-1.141-2.873-3.085-2.873-2.452 0-3.762 1.732-4.227 2.366-.126-1.521-1.225-2.366-2.493-2.366-1.226 0-1.733 1.056-1.987 1.521-.464.93-.803 2.536-.803 2.62 0 .296.254.296.296.296.296 0 .296-.042.465-.634.465-1.902 1.014-3.212 1.987-3.212.507 0 .803.338.803 1.226 0 .592-.085.887-.423 2.282zm0 0M397.395 580.453c.422 0 .93 0 .93-.507 0-.55-.508-.55-.888-.55h-16.144c-.38 0-.888 0-.888.55 0 .507.507.507.888.507zm.042 5.24c.38 0 .888 0 .888-.549 0-.507-.508-.507-.93-.507h-16.102c-.38 0-.888 0-.888.507 0 .55.507.55.888.55zm0 0M415.28 572.042c0-.676 0-.718-.634-.718-1.69 1.733-4.057 1.733-4.903 1.733v.845c.55 0 2.114 0 3.508-.718v13.989c0 .972-.084 1.267-2.493 1.267h-.846v.846c.93-.085 3.255-.085 4.354-.085 1.056 0 3.423 0 4.353.085v-.846h-.846c-2.45 0-2.493-.295-2.493-1.267zm0 0"/></g><g ns0:text="$n=2$" transform="matrix(2.70484 0 0 2.70484 -249.123 270.748)" fill="#f60"><defs><symbol overflow="visible" id="g"><path d="M.875-.594c-.031.156-.094.39-.094.438 0 .172.14.265.297.265a.414.414 0 0 0 .375-.28c0-.016.125-.485.188-.735l.218-.89c.047-.235.11-.454.172-.673.031-.172.11-.469.125-.5.14-.312.672-1.219 1.625-1.219.453 0 .531.375.531.704 0 .609-.484 1.89-.64 2.312-.094.234-.11.36-.11.469 0 .469.36.812.829.812.937 0 1.296-1.453 1.296-1.53 0-.11-.078-.11-.109-.11-.11 0-.11.031-.156.187-.203.672-.531 1.235-1.016 1.235-.172 0-.234-.094-.234-.329 0-.25.078-.484.172-.703.187-.53.61-1.625.61-2.203 0-.656-.423-1.062-1.141-1.062-.907 0-1.391.64-1.563.875-.047-.563-.453-.875-.922-.875-.453 0-.64.39-.734.562-.172.344-.297.938-.297.969 0 .11.094.11.11.11.109 0 .109-.016.171-.235.172-.703.375-1.188.735-1.188.187 0 .296.125.296.454 0 .218-.03.328-.156.843zm0 0"/></symbol><symbol overflow="visible" id="h"><path d="M6.844-3.266c.156 0 .343 0 .343-.187 0-.203-.187-.203-.328-.203H.891c-.141 0-.329 0-.329.203 0 .187.188.187.329.187zm.015 1.938c.141 0 .329 0 .329-.203 0-.188-.188-.188-.344-.188H.89c-.141 0-.329 0-.329.188 0 .203.188.203.329.203zm0 0"/></symbol><symbol overflow="visible" id="i"><path d="M1.266-.766l1.062-1.03c1.547-1.376 2.14-1.907 2.14-2.907 0-1.14-.89-1.938-2.109-1.938C1.234-6.64.5-5.719.5-4.828c0 .547.5.547.531.547.172 0 .516-.11.516-.532a.513.513 0 0 0-.531-.515c-.079 0-.094 0-.125.016.218-.657.765-1.016 1.343-1.016.907 0 1.329.812 1.329 1.625 0 .797-.485 1.578-1.047 2.203L.609-.375C.5-.265.5-.235.5 0h3.703l.266-1.734h-.235C4.172-1.438 4.11-1 4-.844c-.063.078-.719.078-.938.078zm0 0"/></symbol></defs><g fill="#000"><use xlink:href="#g" x="223.432" y="134.765" width="744.094" height="1052.362"/><use xlink:href="#h" x="232.179" y="134.765" width="744.094" height="1052.362"/><use xlink:href="#i" x="242.698" y="134.765" width="744.094" height="1052.362"/></g></g><g transform="matrix(2.70484 0 0 2.70484 -249.123 312.054)" ns0:text="$n=3$" fill="#f60"><defs><symbol id="j" overflow="visible"><path d="M.875-.594c-.031.156-.094.39-.094.438 0 .172.14.265.297.265a.414.414 0 0 0 .375-.28c0-.016.125-.485.188-.735l.218-.89c.047-.235.11-.454.172-.673.031-.172.11-.469.125-.5.14-.312.672-1.219 1.625-1.219.453 0 .531.375.531.704 0 .609-.484 1.89-.64 2.312-.094.234-.11.36-.11.469 0 .469.36.812.829.812.937 0 1.296-1.453 1.296-1.53 0-.11-.078-.11-.109-.11-.11 0-.11.031-.156.187-.203.672-.531 1.235-1.016 1.235-.172 0-.234-.094-.234-.329 0-.25.078-.484.172-.703.187-.53.61-1.625.61-2.203 0-.656-.423-1.062-1.141-1.062-.907 0-1.391.64-1.563.875-.047-.563-.453-.875-.922-.875-.453 0-.64.39-.734.562-.172.344-.297.938-.297.969 0 .11.094.11.11.11.109 0 .109-.016.171-.235.172-.703.375-1.188.735-1.188.187 0 .296.125.296.454 0 .218-.03.328-.156.843zm0 0"/></symbol><symbol id="k" overflow="visible"><path d="M6.844-3.266c.156 0 .343 0 .343-.187 0-.203-.187-.203-.328-.203H.891c-.141 0-.329 0-.329.203 0 .187.188.187.329.187zm.015 1.938c.141 0 .329 0 .329-.203 0-.188-.188-.188-.344-.188H.89c-.141 0-.329 0-.329.188 0 .203.188.203.329.203zm0 0"/></symbol><symbol id="l" overflow="visible"><path d="M2.89-3.516c.813-.265 1.391-.953 1.391-1.75 0-.812-.875-1.375-1.828-1.375-1 0-1.765.594-1.765 1.36 0 .328.218.515.515.515.297 0 .5-.218.5-.515 0-.485-.469-.485-.61-.485.298-.5.954-.625 1.313-.625.422 0 .969.22.969 1.11 0 .125-.031.703-.281 1.14-.297.485-.64.516-.89.516a3.29 3.29 0 0 1-.392.031c-.078.016-.14.031-.14.125 0 .11.062.11.234.11h.438c.812 0 1.187.671 1.187 1.656 0 1.36-.687 1.64-1.125 1.64-.437 0-1.187-.171-1.531-.75.344.047.656-.171.656-.546a.537.537 0 0 0-.547-.563c-.25 0-.562.14-.562.578C.422-.437 1.344.22 2.437.22c1.22 0 2.126-.906 2.126-1.922 0-.813-.641-1.594-1.672-1.813zm0 0"/></symbol></defs><g fill="#000"><use y="134.765" x="223.432" xlink:href="#j" width="744.094" height="1052.362"/><use y="134.765" x="232.179" xlink:href="#k" width="744.094" height="1052.362"/><use y="134.765" x="242.698" xlink:href="#l" width="744.094" height="1052.362"/></g></g></svg>