<svg xmlns="http://www.w3.org/2000/svg" xmlns:xlink="http://www.w3.org/1999/xlink" width="1052.362" height="744.094"><title>d-Orbitale</title><defs><linearGradient id="h"><stop offset="0" stop-color="#1c1cc7"/><stop offset="1" stop-color="#fff"/></linearGradient><linearGradient id="f"><stop offset="0" stop-color="purple"/><stop offset="1" stop-color="purple" stop-opacity="0"/></linearGradient><linearGradient id="e"><stop offset="0" stop-color="#1c1cc7"/><stop offset="1" stop-color="#fff"/></linearGradient><linearGradient id="c"><stop offset="0" stop-color="#1c1cc7"/><stop offset="1" stop-color="#e3e7f6"/></linearGradient><linearGradient id="b"><stop offset="0" stop-color="#8181ed"/><stop offset="1" stop-color="#e3e7f6"/></linearGradient><marker id="j" orient="auto" overflow="visible"><path d="M2.308 0l-3.46 2v-4l3.46 2z" fill-rule="evenodd" stroke="#000" stroke-width=".4pt"/></marker><linearGradient id="a"><stop offset="0" stop-color="#1c1cc7"/><stop offset="1" stop-color="#e3e7f6"/></linearGradient><linearGradient xlink:href="#b" id="l" gradientUnits="userSpaceOnUse" gradientTransform="matrix(0 -.9105 1.0983 0 709.158 389.236)" x1="609.409" y1="-127.559" x2="548.566" y2="-150.35"/><linearGradient xlink:href="#b" id="i" gradientUnits="userSpaceOnUse" gradientTransform="matrix(0 -.9105 1.0983 0 709.158 389.236)" x1="609.409" y1="-127.559" x2="667.77" y2="-117.343"/><linearGradient xlink:href="#c" id="m" gradientUnits="userSpaceOnUse" gradientTransform="matrix(0 -.9105 1.0983 0 709.158 389.236)" x1="605.99" y1="-131.551" x2="629.871" y2="-219.135"/><linearGradient xlink:href="#c" id="k" gradientUnits="userSpaceOnUse" gradientTransform="matrix(0 -.9105 1.0983 0 709.158 389.236)" x1="603.878" y1="-139.2" x2="639.997" y2="-56.406"/><linearGradient id="d"><stop offset="0" stop-color="#1c1cc7"/><stop offset="1" stop-color="#e3e7f6"/></linearGradient><linearGradient xlink:href="#d" id="A" gradientUnits="userSpaceOnUse" gradientTransform="matrix(0 -.9105 1.0983 0 709.158 389.236)" x1="611.183" y1="-128.589" x2="538.965" y2="-162.542"/><linearGradient id="g"><stop offset="0" stop-color="#1c1cc7"/><stop offset="1" stop-color="#e3e7f6"/></linearGradient><linearGradient y2="-219.633" x2="594.335" y1="-119.605" x1="607.083" gradientTransform="matrix(0 -.9105 1.0983 0 709.158 389.236)" gradientUnits="userSpaceOnUse" id="w" xlink:href="#h"/><linearGradient xlink:href="#h" id="C" gradientUnits="userSpaceOnUse" gradientTransform="matrix(0 -.9105 1.0983 0 709.158 389.236)" x1="607.083" y1="-119.605" x2="594.335" y2="-219.633"/><linearGradient xlink:href="#b" id="z" gradientUnits="userSpaceOnUse" gradientTransform="matrix(0 -.9105 1.0983 0 709.158 389.236)" x1="592.791" y1="-130.167" x2="680.88" y2="-150.586"/><linearGradient xlink:href="#b" id="x" gradientUnits="userSpaceOnUse" gradientTransform="matrix(0 -.9105 1.0983 0 709.158 389.236)" x1="613.42" y1="-131.993" x2="549.786" y2="-150.484"/><linearGradient xlink:href="#d" id="y" gradientUnits="userSpaceOnUse" gradientTransform="matrix(0 -.9105 1.0983 0 709.158 389.236)" x1="619.113" y1="-125.606" x2="531.521" y2="-168.808"/><linearGradient xlink:href="#b" id="B" gradientUnits="userSpaceOnUse" gradientTransform="matrix(.56756 0 0 .56756 301.671 532.479)" x1="697.61" y1="547.632" x2="664.646" y2="455.723"/><linearGradient xlink:href="#e" id="r" gradientUnits="userSpaceOnUse" gradientTransform="matrix(0 -.9105 1.0983 0 709.158 389.236)" x1="613.16" y1="-123.317" x2="510.061" y2="-217.952"/><linearGradient xlink:href="#b" id="s" gradientUnits="userSpaceOnUse" gradientTransform="matrix(0 -.9105 1.0983 0 709.158 389.236)" x1="595.364" y1="-143.962" x2="669.867" y2="-59.994"/><linearGradient xlink:href="#b" id="t" gradientUnits="userSpaceOnUse" gradientTransform="matrix(0 -.9105 1.0983 0 709.158 389.236)" x1="618.348" y1="-119.544" x2="544.18" y2="-198.651"/><radialGradient xlink:href="#f" id="u" gradientUnits="userSpaceOnUse" gradientTransform="matrix(.20683 .15773 -.54521 .59268 261.395 -160.378)" cx="499.762" cy="-247.611" fx="499.762" fy="-247.611" r="45.078"/><linearGradient xlink:href="#c" id="v" gradientUnits="userSpaceOnUse" gradientTransform="matrix(0 -.9105 1.0983 0 709.158 389.236)" x1="591.976" y1="-135.988" x2="667.472" y2="-58.362"/><linearGradient xlink:href="#b" id="n" gradientUnits="userSpaceOnUse" gradientTransform="matrix(0 -.9105 1.0983 0 709.158 389.236)" x1="599.704" y1="-115.909" x2="619.008" y2="-199.05"/><linearGradient xlink:href="#b" id="o" gradientUnits="userSpaceOnUse" gradientTransform="matrix(0 -.9105 1.0983 0 709.158 389.236)" x1="609.013" y1="-146.781" x2="577.145" y2="-67.171"/><linearGradient xlink:href="#c" id="p" gradientUnits="userSpaceOnUse" gradientTransform="matrix(0 -.9105 1.0983 0 709.158 389.236)" x1="614.433" y1="-144.407" x2="530.28" y2="-70.106"/><linearGradient xlink:href="#c" id="q" gradientUnits="userSpaceOnUse" gradientTransform="matrix(0 -.9105 1.0983 0 709.158 389.236)" x1="598.686" y1="-113.6" x2="685.536" y2="-201.948"/></defs><path style="marker:none" color="#000" fill="#fff" stroke="#fff" stroke-width="4" overflow="visible" d="M18.709 57.89h1014.945v628.315H18.709z"/><path d="M283.929 143.774l-80.416 80.416" fill="none" stroke="#000"/><path d="M317.727 231.256c.063-.189.063-.21.063-.315 0-.231-.189-.357-.399-.357a.61.61 0 0 0-.462.273c-.02.084-.147.483-.189.735-.105.336-.189.714-.273 1.071l-.609 2.415c-.042.19-.63 1.134-1.512 1.134-.672 0-.819-.588-.819-1.092 0-.609.231-1.449.672-2.625.21-.546.273-.693.273-.966 0-.588-.42-1.092-1.092-1.092-1.28 0-1.764 1.953-1.764 2.058 0 .147.126.147.147.147.147 0 .147-.042.21-.252.378-1.26.903-1.659 1.365-1.659.105 0 .336 0 .336.42 0 .336-.147.693-.23.945-.547 1.428-.778 2.184-.778 2.814 0 1.197.84 1.596 1.638 1.596.525 0 .966-.23 1.344-.609-.168.693-.336 1.365-.86 2.08-.358.44-.862.84-1.47.84-.19 0-.799-.043-1.03-.568.21 0 .4 0 .567-.168a.663.663 0 0 0 .273-.546c0-.42-.357-.462-.483-.462-.315 0-.756.21-.756.861 0 .672.588 1.176 1.428 1.176 1.365 0 2.751-1.218 3.13-2.73zm0 0M135.565 300.906c.084-.336.4-1.575 1.323-1.575.063 0 .4 0 .672.168-.378.084-.63.4-.63.735 0 .21.147.462.504.462.294 0 .714-.23.714-.777 0-.693-.777-.882-1.239-.882-.777 0-1.239.714-1.407 1.008-.336-.882-1.05-1.008-1.449-1.008-1.386 0-2.163 1.722-2.163 2.058 0 .147.147.147.168.147.105 0 .147-.042.168-.147.462-1.428 1.344-1.764 1.806-1.764.252 0 .714.126.714.903 0 .42-.23 1.302-.714 3.192-.21.82-.693 1.386-1.28 1.386-.085 0-.379 0-.673-.168.336-.084.63-.357.63-.735 0-.357-.294-.462-.483-.462-.42 0-.735.336-.735.777 0 .61.651.882 1.24.882.902 0 1.385-.945 1.406-1.008a1.503 1.503 0 0 0 1.45 1.008c1.385 0 2.141-1.722 2.141-2.058 0-.147-.105-.147-.147-.147-.126 0-.147.063-.189.147-.44 1.45-1.344 1.764-1.764 1.764-.525 0-.735-.42-.735-.882 0-.294.063-.588.21-1.176zm0 0" stroke-width=".744"/><path d="M192.99 114.893c.74-.805 1.153-1.153 1.653-1.588 0 0 .849-.74 1.349-1.24 1.326-1.283 1.63-1.957 1.63-2.022 0-.13-.13-.13-.151-.13-.11 0-.13.021-.218.152-.413.674-.696.891-1.022.891-.348 0-.5-.217-.718-.456-.26-.305-.5-.588-.957-.588-1.043 0-1.674 1.284-1.674 1.588 0 .065.043.152.152.152.13 0 .152-.065.196-.152.26-.652 1.066-.652 1.174-.652.283 0 .544.087.87.195.566.218.718.218 1.066.218-.5.587-1.653 1.587-1.914 1.805l-1.261 1.174c-.935.935-1.436 1.718-1.436 1.827 0 .13.153.13.174.13.109 0 .13-.021.218-.173.326-.5.74-.87 1.196-.87.304 0 .457.13.805.522.217.304.478.522.87.522 1.391 0 2.196-1.762 2.196-2.132 0-.065-.065-.152-.174-.152-.13 0-.152.087-.196.196-.326.891-1.218 1.152-1.674 1.152-.261 0-.522-.087-.805-.174-.478-.174-.696-.239-.979-.239-.021 0-.239 0-.37.044zm0 0"/><path d="M89.735 224.19h113.778" fill="none" stroke="#000"/><path transform="matrix(.75177 -.43403 .4767 .82566 -90.295 572.532)" d="M609.753-162.517a45.078 34.85 0 1 1-90.156 0 45.078 34.85 0 1 1 90.156 0z" style="marker:none" color="#000" fill="url(#i)" stroke-width="1.307" overflow="visible"/><path d="M203.513 532.458h112.743" fill="none" stroke="#000" marker-end="url(#j)" transform="translate(0 -308.268)"/><path d="M203.513 337.968V224.19" fill="none" stroke="#000"/><path style="marker:none" d="M609.753-162.517a45.078 34.85 0 1 1-90.156 0 45.078 34.85 0 1 1 90.156 0z" transform="matrix(-.3947 -.68364 -.75085 .4335 277.206 645.488)" color="#000" fill="url(#k)" stroke-width="1.307" overflow="visible"/><path d="M203.513 532.458V419.71" fill="none" stroke="#000" marker-end="url(#j)" transform="translate(0 -308.268)"/><path style="marker:none" d="M609.753-162.517a45.078 34.85 0 1 1-90.156 0 45.078 34.85 0 1 1 90.156 0z" transform="matrix(-.76334 .44071 -.48404 -.83837 509.271 -134.007)" color="#000" fill="url(#l)" stroke-width="1.307" overflow="visible"/><path d="M203.513 532.458l-79.716 79.716" fill="none" stroke="#000" marker-end="url(#j)" transform="translate(0 -308.268)"/><path transform="matrix(.46193 .80008 -.87873 .50734 -174.809 -114.555)" d="M609.753-162.517a45.078 34.85 0 1 1-90.156 0 45.078 34.85 0 1 1 90.156 0z" style="marker:none" color="#000" fill="url(#m)" stroke-width="1.307" overflow="visible"/><path d="M928.962 143.247l-80.416 80.417" fill="none" stroke="#000"/><path d="M962.76 230.73c.064-.19.064-.21.064-.315 0-.231-.19-.357-.4-.357a.61.61 0 0 0-.461.273c-.021.084-.147.483-.19.735-.104.336-.188.714-.272 1.07l-.61 2.416c-.041.189-.63 1.134-1.511 1.134-.672 0-.82-.588-.82-1.092 0-.61.232-1.45.673-2.625.21-.546.273-.693.273-.966 0-.588-.42-1.092-1.092-1.092-1.281 0-1.764 1.953-1.764 2.058 0 .147.126.147.147.147.147 0 .147-.042.21-.252.378-1.26.903-1.66 1.365-1.66.105 0 .336 0 .336.42 0 .337-.147.694-.231.946-.546 1.428-.777 2.184-.777 2.814 0 1.197.84 1.596 1.638 1.596.525 0 .966-.231 1.344-.61-.168.694-.336 1.366-.861 2.08-.357.44-.861.84-1.47.84-.19 0-.798-.042-1.03-.567.21 0 .4 0 .568-.168a.663.663 0 0 0 .273-.546c0-.42-.357-.462-.483-.462-.315 0-.756.21-.756.86 0 .673.588 1.177 1.428 1.177 1.365 0 2.75-1.218 3.129-2.73zm0 0M780.599 300.38c.084-.336.399-1.575 1.323-1.575.063 0 .399 0 .672.168-.378.084-.63.399-.63.735 0 .21.147.462.504.462.294 0 .714-.231.714-.777 0-.693-.777-.882-1.24-.882-.776 0-1.238.714-1.406 1.008-.336-.882-1.05-1.008-1.45-1.008-1.385 0-2.162 1.722-2.162 2.058 0 .147.147.147.168.147.105 0 .147-.042.168-.147.462-1.428 1.344-1.764 1.806-1.764.252 0 .714.126.714.903 0 .42-.231 1.302-.714 3.192-.21.819-.693 1.386-1.281 1.386-.084 0-.378 0-.672-.168.336-.084.63-.357.63-.735 0-.357-.294-.462-.483-.462-.42 0-.735.336-.735.777 0 .609.65.882 1.239.882.903 0 1.386-.945 1.407-1.008a1.503 1.503 0 0 0 1.449 1.008c1.386 0 2.142-1.722 2.142-2.058 0-.147-.105-.147-.147-.147-.126 0-.147.063-.19.147-.44 1.449-1.343 1.764-1.763 1.764-.525 0-.735-.42-.735-.882 0-.294.063-.588.21-1.176zm0 0" stroke-width=".744"/><path d="M734.768 531.931h225.498M848.546 645.709V420.212" fill="none" stroke="#000" marker-end="url(#j)" transform="translate(0 -308.268)"/><path d="M838.024 114.366c.74-.804 1.153-1.152 1.653-1.587 0 0 .848-.74 1.348-1.24 1.327-1.283 1.631-1.957 1.631-2.023 0-.13-.13-.13-.152-.13-.109 0-.13.022-.217.152-.414.674-.696.892-1.022.892-.348 0-.5-.218-.718-.457-.261-.304-.5-.587-.957-.587-1.044 0-1.675 1.283-1.675 1.588 0 .065.044.152.153.152.13 0 .152-.065.195-.152.261-.653 1.066-.653 1.175-.653.282 0 .543.087.87.196.565.217.717.217 1.065.217-.5.588-1.653 1.588-1.914 1.805l-1.26 1.175c-.936.935-1.436 1.718-1.436 1.827 0 .13.152.13.174.13.108 0 .13-.022.217-.174.326-.5.74-.87 1.196-.87.305 0 .457.13.805.522.217.305.478.522.87.522 1.392 0 2.196-1.762 2.196-2.131 0-.065-.065-.152-.174-.152-.13 0-.152.087-.195.195-.327.892-1.218 1.153-1.675 1.153-.26 0-.522-.087-.805-.174-.478-.174-.695-.24-.978-.24-.022 0-.24 0-.37.044zm0 0"/><g color="#000" stroke-width="1.307"><path transform="matrix(.44663 .77358 -.84963 .49053 497.311 -93.201)" d="M609.753-162.517c0 19.247-20.182 34.85-45.078 34.85-24.896 0-45.078-15.603-45.078-34.85 0-19.248 20.182-34.85 45.078-34.85 24.896 0 45.078 15.602 45.078 34.85z" style="marker:none" fill="url(#n)" overflow="visible"/><path style="marker:none" d="M609.753-162.517c0 19.247-20.182 34.85-45.078 34.85-24.896 0-45.078-15.603-45.078-34.85 0-19.248 20.182-34.85 45.078-34.85 24.896 0 45.078 15.602 45.078 34.85z" transform="matrix(-.4451 -.77093 .84671 -.48885 1198.444 539.186)" fill="url(#o)" overflow="visible"/></g><g color="#000" stroke-width="1.307"><path transform="matrix(.4405 -.76298 -.83798 -.48381 503.42 534.614)" d="M609.753-162.517c0 19.247-20.182 34.85-45.078 34.85-24.896 0-45.078-15.603-45.078-34.85 0-19.248 20.182-34.85 45.078-34.85 24.896 0 45.078 15.602 45.078 34.85z" style="marker:none" fill="url(#p)" overflow="visible"/><path style="marker:none" d="M609.753-162.517c0 19.247-20.182 34.85-45.078 34.85-24.896 0-45.078-15.603-45.078-34.85 0-19.248 20.182-34.85 45.078-34.85 24.896 0 45.078 15.602 45.078 34.85z" transform="matrix(-.44663 .77358 .84963 .49053 1199.51 -92.712)" fill="url(#q)" overflow="visible"/></g><path d="M848.546 531.931l-79.034 79.035" fill="none" stroke="#000" marker-end="url(#j)" transform="translate(0 -308.268)"/><path style="marker:none" d="M609.753-162.517a45.078 34.85 0 1 1-90.156 0 45.078 34.85 0 1 1 90.156 0z" transform="matrix(.70055 .34237 .37602 -.76941 211.307 -82.06)" color="#000" fill="url(#r)" stroke-width="1.307" overflow="visible"/><path d="M606.597 143.774l-80.416 80.416" fill="none" stroke="#000"/><path d="M640.396 231.256c.063-.189.063-.21.063-.315 0-.23-.19-.357-.4-.357a.61.61 0 0 0-.461.273c-.021.084-.147.483-.19.735-.104.336-.188.714-.272 1.071l-.61 2.415c-.041.19-.63 1.134-1.511 1.134-.672 0-.82-.588-.82-1.092 0-.609.232-1.449.673-2.625.21-.546.273-.693.273-.966 0-.588-.42-1.092-1.092-1.092-1.281 0-1.764 1.953-1.764 2.058 0 .147.126.147.147.147.147 0 .147-.042.21-.252.378-1.26.903-1.659 1.365-1.659.105 0 .336 0 .336.42 0 .336-.147.693-.231.945-.546 1.428-.777 2.184-.777 2.814 0 1.197.84 1.596 1.638 1.596.525 0 .966-.23 1.344-.609-.168.693-.336 1.365-.861 2.08-.357.44-.861.84-1.47.84-.19 0-.798-.043-1.03-.568.21 0 .4 0 .568-.168a.663.663 0 0 0 .273-.546c0-.42-.357-.462-.483-.462-.315 0-.756.21-.756.861 0 .672.588 1.176 1.428 1.176 1.365 0 2.75-1.218 3.129-2.73zm0 0M458.234 300.906c.084-.336.399-1.575 1.323-1.575.063 0 .399 0 .672.168-.378.084-.63.4-.63.735 0 .21.147.462.504.462.294 0 .714-.23.714-.777 0-.693-.777-.882-1.24-.882-.776 0-1.238.714-1.406 1.008-.336-.882-1.05-1.008-1.45-1.008-1.385 0-2.162 1.722-2.162 2.058 0 .147.147.147.168.147.105 0 .147-.042.168-.147.462-1.428 1.344-1.764 1.806-1.764.252 0 .714.126.714.903 0 .42-.231 1.302-.714 3.192-.21.82-.693 1.386-1.281 1.386-.084 0-.378 0-.672-.168.336-.084.63-.357.63-.735 0-.357-.294-.462-.483-.462-.42 0-.735.336-.735.777 0 .61.65.882 1.239.882.903 0 1.386-.945 1.407-1.008a1.503 1.503 0 0 0 1.449 1.008c1.386 0 2.142-1.722 2.142-2.058 0-.147-.105-.147-.147-.147-.126 0-.147.063-.19.147-.44 1.45-1.343 1.764-1.763 1.764-.525 0-.735-.42-.735-.882 0-.294.063-.588.21-1.176zm0 0" stroke-width=".744"/><path d="M412.403 532.458h225.498" fill="none" stroke="#000" marker-end="url(#j)" transform="translate(0 -308.268)"/><path d="M526.181 337.968V224.19" fill="none" stroke="#000"/><path d="M515.66 114.893c.739-.805 1.152-1.153 1.652-1.588 0 0 .848-.74 1.348-1.24 1.327-1.283 1.631-1.957 1.631-2.022 0-.13-.13-.13-.152-.13-.109 0-.13.021-.217.152-.413.674-.696.891-1.022.891-.348 0-.5-.217-.718-.456-.261-.305-.5-.588-.957-.588-1.044 0-1.675 1.284-1.675 1.588 0 .065.044.152.153.152.13 0 .152-.065.195-.152.261-.652 1.066-.652 1.175-.652.283 0 .544.087.87.195.565.218.717.218 1.065.218-.5.587-1.652 1.587-1.913 1.805l-1.262 1.174c-.935.935-1.435 1.718-1.435 1.827 0 .13.152.13.174.13.109 0 .13-.021.217-.173.327-.5.74-.87 1.196-.87.305 0 .457.13.805.522.218.304.479.522.87.522 1.392 0 2.197-1.762 2.197-2.132 0-.065-.066-.152-.174-.152-.131 0-.153.087-.196.196-.326.891-1.218 1.152-1.675 1.152-.26 0-.522-.087-.804-.174-.479-.174-.696-.239-.98-.239-.02 0-.238 0-.369.044zm0 0"/><path transform="matrix(.24726 -.75715 .83158 .27156 541.307 649.198)" d="M609.753-162.517a45.078 34.85 0 1 1-90.156 0 45.078 34.85 0 1 1 90.156 0z" style="marker:none" color="#000" fill="url(#s)" stroke-width="1.307" overflow="visible"/><path style="marker:none" d="M609.753-162.517a45.078 34.85 0 1 1-90.156 0 45.078 34.85 0 1 1 90.156 0z" transform="matrix(-.3064 .79836 -.87684 -.33653 527.565 -239.835)" color="#000" fill="url(#t)" stroke="url(#u)" stroke-width="1.307" overflow="visible"/><path transform="matrix(-.79155 -.38684 -.42486 .86935 863.248 566.675)" d="M609.753-162.517a45.078 34.85 0 1 1-90.156 0 45.078 34.85 0 1 1 90.156 0z" style="marker:none" color="#000" fill="url(#v)" stroke-width="1.307" overflow="visible"/><path d="M526.181 532.458l-79.034 79.034M526.181 531.101V419.685" fill="none" stroke="#000" marker-end="url(#j)" transform="translate(0 -308.268)"/><path d="M468.967 526.97c.063-.189.063-.21.063-.315 0-.23-.189-.357-.399-.357a.61.61 0 0 0-.462.273c-.02.084-.147.483-.189.735-.105.336-.189.714-.273 1.071l-.609 2.415c-.042.19-.63 1.134-1.512 1.134-.672 0-.819-.588-.819-1.092 0-.609.231-1.449.672-2.625.21-.546.273-.693.273-.966 0-.588-.42-1.092-1.092-1.092-1.28 0-1.764 1.953-1.764 2.058 0 .147.126.147.147.147.147 0 .147-.042.21-.252.378-1.26.903-1.659 1.365-1.659.105 0 .336 0 .336.42 0 .336-.147.693-.23.945-.547 1.428-.778 2.184-.778 2.814 0 1.197.84 1.596 1.638 1.596.525 0 .966-.23 1.344-.609-.168.693-.336 1.365-.86 2.08-.358.44-.862.84-1.47.84-.19 0-.799-.043-1.03-.568.21 0 .4 0 .567-.168a.663.663 0 0 0 .273-.546c0-.42-.357-.462-.483-.462-.315 0-.756.21-.756.861 0 .672.588 1.176 1.428 1.176 1.365 0 2.751-1.218 3.13-2.73zm0 0" stroke-width=".744"/><path d="M240.975 828.172h225.497" fill="none" stroke="#000" marker-end="url(#j)" transform="translate(0 -308.268)"/><path d="M344.23 410.607c.74-.805 1.153-1.153 1.653-1.588 0 0 .849-.739 1.349-1.24 1.326-1.282 1.63-1.957 1.63-2.022 0-.13-.13-.13-.151-.13-.11 0-.13.021-.218.152-.413.674-.696.892-1.022.892-.348 0-.5-.218-.718-.457-.26-.305-.5-.587-.957-.587-1.043 0-1.674 1.283-1.674 1.587 0 .066.043.153.152.153.13 0 .152-.066.196-.153.26-.652 1.066-.652 1.174-.652.283 0 .544.087.87.196.566.217.718.217 1.066.217-.5.587-1.653 1.588-1.914 1.805l-1.261 1.175c-.936.935-1.436 1.718-1.436 1.826 0 .13.153.13.174.13.109 0 .13-.02.218-.173.326-.5.74-.87 1.196-.87.304 0 .457.13.805.522.217.304.478.522.87.522 1.391 0 2.196-1.762 2.196-2.131 0-.066-.065-.153-.174-.153-.13 0-.152.087-.196.196-.326.892-1.218 1.153-1.674 1.153-.261 0-.522-.087-.805-.174-.478-.174-.696-.24-.979-.24-.021 0-.239 0-.37.044zm0 0"/><path d="M435.169 747.756l-159.45 159.45" fill="none" stroke="#000" marker-end="url(#j)" transform="translate(0 -308.268)"/><path d="M811.824 525.542c.063-.19.063-.21.063-.315 0-.231-.189-.357-.399-.357a.61.61 0 0 0-.462.273c-.02.084-.147.483-.189.735-.105.336-.189.714-.273 1.07l-.609 2.416c-.042.189-.63 1.134-1.512 1.134-.672 0-.819-.588-.819-1.092 0-.61.231-1.45.672-2.625.21-.546.273-.693.273-.966 0-.588-.42-1.092-1.092-1.092-1.28 0-1.764 1.953-1.764 2.058 0 .147.126.147.147.147.147 0 .147-.042.21-.252.378-1.26.903-1.66 1.365-1.66.105 0 .336 0 .336.42 0 .337-.147.694-.23.946-.547 1.428-.778 2.184-.778 2.814 0 1.197.84 1.596 1.638 1.596.525 0 .966-.231 1.344-.61-.168.694-.336 1.366-.86 2.08-.358.44-.862.84-1.47.84-.19 0-.799-.042-1.03-.567.21 0 .4 0 .567-.168a.663.663 0 0 0 .273-.546c0-.42-.357-.462-.483-.462-.315 0-.756.21-.756.86 0 .673.588 1.177 1.428 1.177 1.365 0 2.751-1.218 3.13-2.73zm0 0M629.662 595.192c.084-.336.4-1.575 1.323-1.575.063 0 .4 0 .672.168-.378.084-.63.4-.63.735 0 .21.147.462.504.462.294 0 .714-.23.714-.777 0-.693-.777-.882-1.239-.882-.777 0-1.239.714-1.407 1.008-.336-.882-1.05-1.008-1.449-1.008-1.386 0-2.163 1.722-2.163 2.058 0 .147.147.147.168.147.105 0 .147-.042.168-.147.462-1.428 1.344-1.764 1.806-1.764.252 0 .714.126.714.903 0 .42-.23 1.302-.714 3.192-.21.82-.693 1.386-1.28 1.386-.085 0-.379 0-.673-.168.336-.084.63-.357.63-.735 0-.357-.294-.462-.483-.462-.42 0-.735.336-.735.777 0 .61.651.882 1.24.882.902 0 1.385-.945 1.406-1.008a1.503 1.503 0 0 0 1.45 1.008c1.385 0 2.141-1.722 2.141-2.058 0-.147-.105-.147-.147-.147-.126 0-.147.063-.189.147-.44 1.45-1.344 1.764-1.764 1.764-.525 0-.735-.42-.735-.882 0-.294.063-.588.21-1.176zm0 0" stroke-width=".744"/><path d="M583.832 826.744h225.497M697.61 940.521V715.024" fill="none" stroke="#000" marker-end="url(#j)" transform="translate(0 -308.268)"/><path d="M687.088 409.178c.74-.804 1.152-1.152 1.653-1.587 0 0 .848-.74 1.348-1.24 1.327-1.283 1.631-1.957 1.631-2.022 0-.13-.13-.13-.152-.13-.109 0-.13.02-.218.151-.413.675-.696.892-1.022.892-.348 0-.5-.217-.717-.457-.261-.304-.5-.587-.957-.587-1.044 0-1.675 1.283-1.675 1.588 0 .065.044.152.152.152.13 0 .153-.065.196-.152.261-.653 1.066-.653 1.174-.653.283 0 .544.087.87.196.566.218.718.218 1.066.218-.5.587-1.653 1.587-1.914 1.805l-1.261 1.174c-.935.935-1.436 1.718-1.436 1.827 0 .13.153.13.174.13.11 0 .13-.022.218-.174.326-.5.74-.87 1.196-.87.304 0 .457.13.805.522.217.305.478.522.87.522 1.391 0 2.196-1.761 2.196-2.131 0-.065-.065-.152-.174-.152-.13 0-.152.087-.196.195-.326.892-1.218 1.153-1.674 1.153-.261 0-.522-.087-.805-.174-.478-.174-.696-.24-.979-.24-.021 0-.239 0-.37.044zm0 0"/><path d="M778.026 438.06l-80.416 80.416" fill="none" stroke="#000"/><path transform="matrix(0 .92386 -1.01467 0 532.708 41.452)" d="M609.753-162.517a45.078 34.85 0 1 1-90.156 0 45.078 34.85 0 1 1 90.156 0z" style="marker:none" color="#000" fill="url(#w)" stroke-width="1.307" overflow="visible"/><path d="M697.61 826.744l-79.035 79.034" fill="none" stroke="#000" marker-end="url(#j)" transform="translate(0 -308.268)"/><path d="M286.805 596.62c.084-.335.4-1.574 1.323-1.574.063 0 .4 0 .672.168-.378.084-.63.399-.63.735 0 .21.147.462.504.462.294 0 .714-.231.714-.777 0-.693-.777-.882-1.239-.882-.777 0-1.239.714-1.407 1.008-.336-.882-1.05-1.008-1.449-1.008-1.386 0-2.163 1.722-2.163 2.058 0 .147.147.147.168.147.105 0 .147-.042.168-.147.462-1.428 1.344-1.764 1.806-1.764.252 0 .714.126.714.903 0 .42-.23 1.302-.714 3.192-.21.819-.693 1.386-1.28 1.386-.085 0-.379 0-.673-.168.336-.084.63-.357.63-.735 0-.357-.294-.462-.483-.462-.42 0-.735.336-.735.777 0 .609.651.882 1.24.882.902 0 1.385-.945 1.406-1.008a1.503 1.503 0 0 0 1.45 1.008c1.385 0 2.141-1.722 2.141-2.058 0-.147-.105-.147-.147-.147-.126 0-.147.063-.189.147-.44 1.449-1.344 1.764-1.764 1.764-.525 0-.735-.42-.735-.882 0-.294.063-.588.21-1.176zm0 0" stroke-width=".744"/><path style="marker:none" d="M609.753-162.517a45.078 34.85 0 1 1-90.156 0 45.078 34.85 0 1 1 90.156 0z" transform="matrix(.88143 0 0 -.96807 -184.721 362.576)" color="#000" fill="url(#x)" stroke-width="1.307" overflow="visible"/><path style="marker:none" d="M609.753-162.517a45.078 34.85 0 1 1-90.156 0 45.078 34.85 0 1 1 90.156 0z" transform="matrix(-.59158 .59158 -.64973 -.64973 613.905 49.567)" color="#000" fill="url(#y)" stroke-width="1.307" overflow="visible"/><path d="M354.753 941.95V716.452" fill="none" stroke="#000" marker-end="url(#j)" transform="translate(0 -308.268)"/><path transform="matrix(.88143 0 0 .96807 -102.292 677.233)" d="M609.753-162.517a45.078 34.85 0 1 1-90.156 0 45.078 34.85 0 1 1 90.156 0z" style="marker:none" color="#000" fill="url(#z)" stroke-width="1.307" overflow="visible"/><path transform="matrix(-.65327 .65327 -.71748 -.71748 575.964 62.434)" d="M609.753-162.517a45.078 34.85 0 1 1-90.156 0 45.078 34.85 0 1 1 90.156 0z" style="marker:none" color="#000" fill="url(#A)" stroke-width="1.307" overflow="visible"/><path style="marker:none" d="M697.619 797.868c-21.849 0-39.57 12.924-39.57 28.875 0 15.95 17.721 28.893 39.57 28.893 21.848 0 39.552-12.942 39.552-28.893 0-15.95-17.704-28.875-39.552-28.875zm-.16 17.772c8.728 0 15.803 3.365 15.803 7.52 0 4.156-7.075 7.52-15.803 7.52-8.729 0-15.803-3.364-15.803-7.52 0-4.155 7.074-7.52 15.803-7.52z" color="#000" fill="url(#B)" stroke-width="2" overflow="visible" transform="translate(0 -308.268)"/><path style="marker:none" d="M609.753-162.517a45.078 34.85 0 1 1-90.156 0 45.078 34.85 0 1 1 90.156 0z" transform="matrix(0 .92386 -1.01467 0 532.708 -46.85)" color="#000" fill="url(#C)" stroke-width="1.307" overflow="visible"/></svg>