<svg xmlns="http://www.w3.org/2000/svg" xmlns:xlink="http://www.w3.org/1999/xlink" width="1052.362" height="744.094"><title>p-Orbitale</title><defs><linearGradient id="c"><stop offset="0" stop-color="#1c1cc7"/><stop offset="1" stop-color="#e3e7f6"/></linearGradient><linearGradient id="b"><stop offset="0" stop-color="#8181ed"/><stop offset="1" stop-color="#e3e7f6"/></linearGradient><marker id="f" orient="auto" overflow="visible"><path d="M2.308 0l-3.46 2v-4l3.46 2z" fill-rule="evenodd" stroke="#000" stroke-width=".4pt"/></marker><linearGradient id="a"><stop offset="0" stop-color="#1c1cc7"/><stop offset="1" stop-color="#e3e7f6"/></linearGradient><linearGradient xlink:href="#a" id="e" gradientUnits="userSpaceOnUse" gradientTransform="matrix(1.05595 0 0 1.25294 -178.86 158.165)" x1="1328.956" y1="-143.512" x2="1321.151" y2="-179.682"/><linearGradient xlink:href="#a" id="d" gradientUnits="userSpaceOnUse" gradientTransform="matrix(1.11952 0 0 1.25294 -263.548 87.708)" x1="1328.956" y1="-143.512" x2="1321.151" y2="-179.682"/><linearGradient xlink:href="#c" id="h" gradientUnits="userSpaceOnUse" gradientTransform="matrix(0 -.9105 1.0983 0 709.158 389.236)" x1="598.686" y1="-113.6" x2="572.21" y2="-188.941"/><linearGradient xlink:href="#b" id="g" gradientUnits="userSpaceOnUse" gradientTransform="matrix(0 -.9105 1.0983 0 709.158 389.236)" x1="598.686" y1="-113.6" x2="572.21" y2="-188.941"/><linearGradient xlink:href="#a" id="i" gradientUnits="userSpaceOnUse" gradientTransform="matrix(1.05595 0 0 1.25294 -178.86 158.165)" x1="1328.956" y1="-143.512" x2="1321.151" y2="-179.682"/><linearGradient xlink:href="#b" id="j" gradientUnits="userSpaceOnUse" x1="564.675" y1="-140.416" x2="544.08" y2="-195.802"/><linearGradient xlink:href="#a" id="k" gradientUnits="userSpaceOnUse" x1="564.906" y1="-146.923" x2="545.766" y2="-209.66"/><linearGradient xlink:href="#b" id="l" gradientUnits="userSpaceOnUse" x1="589.449" y1="27.287" x2="528.635" y2="-5.94"/><linearGradient xlink:href="#c" id="m" gradientUnits="userSpaceOnUse" x1="572.143" y1="8.916" x2="524.83" y2="-24.334"/></defs><path style="marker:none" d="M1264-57.888a39.75 39.75 0 1 1-79.5 0 39.75 39.75 0 1 1 79.5 0z" transform="matrix(1.21345 0 0 1.08424 -1303.422 434.812)" color="#000" fill="url(#d)" stroke="#fff" stroke-width="3.487" overflow="visible"/><path transform="matrix(1.28652 0 0 1.08424 -1393.12 434.812)" d="M1264-57.888a39.75 39.75 0 1 1-79.5 0 39.75 39.75 0 1 1 79.5 0z" style="marker:none" color="#000" fill="url(#e)" stroke="#fff" stroke-width="3.387" overflow="visible"/><path style="marker:none" color="#000" fill="#fff" stroke="#fff" stroke-width="4" overflow="visible" d="M18.709 214.968h1014.945v314.157H18.709z"/><path d="M640.648 379.113c.063-.189.063-.21.063-.315 0-.23-.189-.357-.399-.357a.61.61 0 0 0-.462.273c-.02.084-.147.483-.189.735-.105.336-.189.714-.273 1.071l-.609 2.415c-.042.19-.63 1.134-1.512 1.134-.672 0-.819-.588-.819-1.092 0-.609.231-1.449.672-2.625.21-.546.273-.693.273-.966 0-.588-.42-1.092-1.092-1.092-1.28 0-1.764 1.953-1.764 2.058 0 .147.126.147.147.147.147 0 .147-.042.21-.252.378-1.26.903-1.659 1.365-1.659.105 0 .336 0 .336.42 0 .336-.147.693-.23.945-.547 1.428-.778 2.184-.778 2.814 0 1.197.84 1.596 1.638 1.596.525 0 .966-.23 1.344-.609-.168.693-.336 1.365-.86 2.08-.358.44-.862.84-1.47.84-.19 0-.799-.043-1.03-.568.21 0 .4 0 .567-.168a.663.663 0 0 0 .273-.546c0-.42-.357-.462-.483-.462-.315 0-.756.21-.756.861 0 .672.588 1.176 1.428 1.176 1.365 0 2.751-1.218 3.13-2.73zm0 0M458.486 448.764c.084-.336.4-1.575 1.323-1.575.063 0 .4 0 .672.168-.378.084-.63.399-.63.735 0 .21.147.462.504.462.294 0 .714-.231.714-.777 0-.693-.777-.882-1.239-.882-.777 0-1.239.714-1.407 1.008-.336-.882-1.05-1.008-1.449-1.008-1.386 0-2.163 1.722-2.163 2.058 0 .147.147.147.168.147.105 0 .147-.042.168-.147.462-1.428 1.344-1.764 1.806-1.764.252 0 .714.126.714.903 0 .42-.23 1.302-.714 3.192-.21.819-.693 1.386-1.28 1.386-.085 0-.379 0-.673-.168.336-.084.63-.357.63-.735 0-.357-.294-.462-.483-.462-.42 0-.735.336-.735.777 0 .609.651.882 1.24.882.902 0 1.385-.945 1.406-1.008a1.503 1.503 0 0 0 1.45 1.008c1.385 0 2.141-1.722 2.141-2.058 0-.147-.105-.147-.147-.147-.126 0-.147.063-.189.147-.44 1.449-1.344 1.764-1.764 1.764-.525 0-.735-.42-.735-.882 0-.294.063-.588.21-1.176zm0 0" stroke-width=".744"/><path d="M412.656 680.315h225.497M526.434 794.093V568.595" fill="none" stroke="#000" marker-end="url(#f)" transform="translate(0 -308.268)"/><path d="M515.912 262.75c.74-.805 1.152-1.153 1.653-1.588 0 0 .848-.74 1.348-1.24 1.327-1.282 1.631-1.957 1.631-2.022 0-.13-.13-.13-.152-.13-.109 0-.13.021-.218.152-.413.674-.696.891-1.022.891-.348 0-.5-.217-.718-.456-.26-.305-.5-.587-.956-.587-1.044 0-1.675 1.283-1.675 1.587 0 .065.044.152.152.152.13 0 .152-.065.196-.152.261-.652 1.066-.652 1.174-.652.283 0 .544.087.87.195.566.218.718.218 1.066.218-.5.587-1.653 1.588-1.914 1.805l-1.261 1.174c-.935.936-1.436 1.718-1.436 1.827 0 .13.153.13.174.13.11 0 .13-.021.218-.173.326-.5.74-.87 1.196-.87.304 0 .457.13.805.522.217.304.478.522.87.522 1.391 0 2.196-1.762 2.196-2.132 0-.065-.065-.152-.174-.152-.13 0-.152.087-.196.196-.326.892-1.218 1.153-1.674 1.153-.261 0-.522-.087-.805-.174-.478-.174-.696-.24-.979-.24-.021 0-.239 0-.37.044zm0 0"/><path d="M606.85 599.899L447.4 759.349" fill="none" stroke="#000" marker-end="url(#f)" transform="translate(0 -308.268)"/><path transform="matrix(0 1.09524 -1.2029 0 293.768 -249.967)" d="M609.753-162.517a45.078 34.85 0 1 1-90.156 0 45.078 34.85 0 1 1 90.156 0z" style="marker:none" color="#000" fill="url(#g)" stroke-width="1.307" overflow="visible"/><path style="marker:none" d="M609.753-162.517a45.078 34.85 0 1 1-90.156 0 45.078 34.85 0 1 1 90.156 0z" transform="matrix(0 1.09524 -1.2029 0 368.116 -248.451)" color="#000" fill="url(#h)" stroke-width="1.307" overflow="visible"/><path style="marker:none" d="M1264-57.888a39.75 39.75 0 1 1-79.5 0 39.75 39.75 0 1 1 79.5 0z" transform="matrix(1.28652 0 0 1.08424 -726.42 395.517)" color="#000" fill="url(#i)" stroke="#fff" stroke-width="3.387" overflow="visible"/><path d="M963.064 379.113c.063-.189.063-.21.063-.315 0-.23-.189-.357-.399-.357a.61.61 0 0 0-.462.273c-.02.084-.147.483-.189.735-.105.336-.189.714-.273 1.071l-.609 2.415c-.042.19-.63 1.134-1.512 1.134-.672 0-.819-.588-.819-1.092 0-.609.231-1.449.672-2.625.21-.546.273-.693.273-.966 0-.588-.42-1.092-1.092-1.092-1.28 0-1.764 1.953-1.764 2.058 0 .147.126.147.147.147.147 0 .147-.042.21-.252.378-1.26.903-1.659 1.365-1.659.105 0 .336 0 .336.42 0 .336-.147.693-.23.945-.547 1.428-.778 2.184-.778 2.814 0 1.197.84 1.596 1.638 1.596.525 0 .966-.23 1.344-.609-.168.693-.336 1.365-.86 2.08-.358.44-.862.84-1.47.84-.19 0-.799-.043-1.03-.568.21 0 .4 0 .567-.168a.663.663 0 0 0 .273-.546c0-.42-.357-.462-.483-.462-.315 0-.756.21-.756.861 0 .672.588 1.176 1.428 1.176 1.365 0 2.751-1.218 3.13-2.73zm0 0M780.902 448.764c.084-.336.4-1.575 1.323-1.575.063 0 .4 0 .672.168-.378.084-.63.399-.63.735 0 .21.147.462.504.462.294 0 .714-.231.714-.777 0-.693-.777-.882-1.239-.882-.777 0-1.239.714-1.407 1.008-.336-.882-1.05-1.008-1.449-1.008-1.386 0-2.163 1.722-2.163 2.058 0 .147.147.147.168.147.105 0 .147-.042.168-.147.462-1.428 1.344-1.764 1.806-1.764.252 0 .714.126.714.903 0 .42-.23 1.302-.714 3.192-.21.819-.693 1.386-1.28 1.386-.085 0-.379 0-.673-.168.336-.084.63-.357.63-.735 0-.357-.294-.462-.483-.462-.42 0-.735.336-.735.777 0 .609.651.882 1.24.882.902 0 1.385-.945 1.406-1.008a1.503 1.503 0 0 0 1.45 1.008c1.385 0 2.141-1.722 2.141-2.058 0-.147-.105-.147-.147-.147-.126 0-.147.063-.189.147-.44 1.449-1.344 1.764-1.764 1.764-.525 0-.735-.42-.735-.882 0-.294.063-.588.21-1.176zm0 0" stroke-width=".744"/><path d="M735.072 680.315h225.497M848.85 794.093V568.595" fill="none" stroke="#000" marker-end="url(#f)" transform="translate(0 -308.268)"/><path d="M838.328 262.75c.74-.805 1.152-1.153 1.653-1.588 0 0 .848-.74 1.348-1.24 1.327-1.282 1.631-1.957 1.631-2.022 0-.13-.13-.13-.152-.13-.109 0-.13.021-.218.152-.413.674-.696.891-1.022.891-.348 0-.5-.217-.718-.456-.26-.305-.5-.587-.956-.587-1.044 0-1.675 1.283-1.675 1.587 0 .065.044.152.152.152.13 0 .152-.065.196-.152.261-.652 1.066-.652 1.174-.652.283 0 .544.087.87.195.566.218.718.218 1.066.218-.5.587-1.653 1.588-1.914 1.805l-1.261 1.174c-.935.936-1.436 1.718-1.436 1.827 0 .13.153.13.174.13.11 0 .13-.021.218-.173.326-.5.74-.87 1.196-.87.304 0 .457.13.805.522.217.304.478.522.87.522 1.391 0 2.196-1.762 2.196-2.132 0-.065-.065-.152-.174-.152-.13 0-.152.087-.196.196-.326.892-1.218 1.153-1.674 1.153-.261 0-.522-.087-.805-.174-.478-.174-.696-.24-.979-.24-.021 0-.239 0-.37.044zm0 0"/><path style="marker:none" d="M609.753-162.517a45.078 34.85 0 1 1-90.156 0 45.078 34.85 0 1 1 90.156 0z" transform="matrix(1.0056 0 0 1.14855 281.01 595.805)" color="#000" fill="url(#j)" stroke-width="1.396" overflow="visible"/><path d="M929.266 599.899l-159.45 159.45" fill="none" stroke="#000" marker-end="url(#f)" transform="translate(0 -308.268)"/><path transform="matrix(1.09524 0 0 1.2029 230.143 528.245)" d="M609.753-162.517a45.078 34.85 0 1 1-90.156 0 45.078 34.85 0 1 1 90.156 0z" style="marker:none" color="#000" fill="url(#k)" stroke-width="1.307" overflow="visible"/><path d="M317.727 379.113c.063-.189.063-.21.063-.315 0-.23-.189-.357-.399-.357a.61.61 0 0 0-.462.273c-.02.084-.147.483-.189.735-.105.336-.189.714-.273 1.071l-.609 2.415c-.042.19-.63 1.134-1.512 1.134-.672 0-.819-.588-.819-1.092 0-.609.231-1.449.672-2.625.21-.546.273-.693.273-.966 0-.588-.42-1.092-1.092-1.092-1.28 0-1.764 1.953-1.764 2.058 0 .147.126.147.147.147.147 0 .147-.042.21-.252.378-1.26.903-1.659 1.365-1.659.105 0 .336 0 .336.42 0 .336-.147.693-.23.945-.547 1.428-.778 2.184-.778 2.814 0 1.197.84 1.596 1.638 1.596.525 0 .966-.23 1.344-.609-.168.693-.336 1.365-.86 2.08-.358.44-.862.84-1.47.84-.19 0-.799-.043-1.03-.568.21 0 .4 0 .567-.168a.663.663 0 0 0 .273-.546c0-.42-.357-.462-.483-.462-.315 0-.756.21-.756.861 0 .672.588 1.176 1.428 1.176 1.365 0 2.751-1.218 3.13-2.73zm0 0M135.565 448.764c.084-.336.4-1.575 1.323-1.575.063 0 .4 0 .672.168-.378.084-.63.399-.63.735 0 .21.147.462.504.462.294 0 .714-.231.714-.777 0-.693-.777-.882-1.239-.882-.777 0-1.239.714-1.407 1.008-.336-.882-1.05-1.008-1.449-1.008-1.386 0-2.163 1.722-2.163 2.058 0 .147.147.147.168.147.105 0 .147-.042.168-.147.462-1.428 1.344-1.764 1.806-1.764.252 0 .714.126.714.903 0 .42-.23 1.302-.714 3.192-.21.819-.693 1.386-1.28 1.386-.085 0-.379 0-.673-.168.336-.084.63-.357.63-.735 0-.357-.294-.462-.483-.462-.42 0-.735.336-.735.777 0 .609.651.882 1.24.882.902 0 1.385-.945 1.406-1.008a1.503 1.503 0 0 0 1.45 1.008c1.385 0 2.141-1.722 2.141-2.058 0-.147-.105-.147-.147-.147-.126 0-.147.063-.189.147-.44 1.449-1.344 1.764-1.764 1.764-.525 0-.735-.42-.735-.882 0-.294.063-.588.21-1.176zm0 0" stroke-width=".744"/><path d="M417.673 680.315H643.17M531.45 794.093V568.595" fill="none" stroke="#000" marker-end="url(#f)" transform="translate(-327.938 -308.268)"/><path d="M192.99 262.75c.74-.805 1.153-1.153 1.653-1.588 0 0 .849-.74 1.349-1.24 1.326-1.282 1.63-1.957 1.63-2.022 0-.13-.13-.13-.151-.13-.11 0-.13.021-.218.152-.413.674-.696.891-1.022.891-.348 0-.5-.217-.718-.456-.26-.305-.5-.587-.956-.587-1.044 0-1.675 1.283-1.675 1.587 0 .065.043.152.152.152.13 0 .152-.065.196-.152.26-.652 1.066-.652 1.174-.652.283 0 .544.087.87.195.566.218.718.218 1.066.218-.5.587-1.653 1.588-1.914 1.805l-1.261 1.174c-.935.936-1.436 1.718-1.436 1.827 0 .13.153.13.174.13.109 0 .13-.021.218-.173.326-.5.74-.87 1.196-.87.304 0 .457.13.805.522.217.304.478.522.87.522 1.391 0 2.196-1.762 2.196-2.132 0-.065-.065-.152-.174-.152-.13 0-.152.087-.196.196-.326.892-1.218 1.153-1.674 1.153-.261 0-.522-.087-.805-.174-.478-.174-.696-.24-.979-.24-.021 0-.239 0-.37.044zm0 0"/><path d="M611.867 599.899l-159.451 159.45" fill="none" stroke="#000" marker-end="url(#f)" transform="translate(-327.938 -308.268)"/><g color="#000"><path transform="rotate(45 51.79 -376.267) scale(1.2029 1.13316)" d="M609.107 8.916c0 19.626-16.55 35.536-36.964 35.536-20.415 0-36.964-15.91-36.964-35.536s16.55-35.536 36.964-35.536c20.415 0 36.964 15.91 36.964 35.536z" style="marker:none" fill="url(#l)" stroke-width="1.285" overflow="visible"/><path style="marker:none" d="M609.107 8.916c0 19.626-16.55 35.536-36.964 35.536-20.415 0-36.964-15.91-36.964-35.536s16.55-35.536 36.964-35.536c20.415 0 36.964 15.91 36.964 35.536z" transform="matrix(.94622 .94622 -.89365 .89365 -351.26 -154.898)" fill="url(#m)" stroke-width="1.153" overflow="visible"/></g></svg>