<svg xmlns="http://www.w3.org/2000/svg" xmlns:xlink="http://www.w3.org/1999/xlink" width="744.094" height="1052.362"><title>s-Orbital</title><defs><linearGradient id="a"><stop offset="0" stop-color="#1c1cc7"/><stop offset="1" stop-color="#e3e7f6"/></linearGradient><marker id="b" orient="auto" overflow="visible"><path d="M2.308 0l-3.46 2v-4l3.46 2z" fill-rule="evenodd" stroke="#000" stroke-width=".4pt"/></marker><linearGradient xlink:href="#a" id="c" gradientUnits="userSpaceOnUse" gradientTransform="translate(8.754 -27.836)" x1="1215.496" y1="-9.975" x2="1199.665" y2="-80.939"/></defs><path style="marker:none" color="#000" fill="#fff" stroke="#fff" stroke-width="4" overflow="visible" d="M26.003 369.102h692.088v314.157H26.003z"/><path d="M486.262 533.247c.063-.189.063-.21.063-.315 0-.231-.19-.357-.4-.357a.61.61 0 0 0-.461.273c-.021.084-.147.483-.19.735-.104.336-.188.714-.272 1.071l-.61 2.415c-.041.19-.63 1.134-1.511 1.134-.672 0-.82-.588-.82-1.092 0-.609.232-1.449.673-2.625.21-.546.273-.693.273-.966 0-.588-.42-1.092-1.092-1.092-1.281 0-1.764 1.953-1.764 2.058 0 .147.126.147.147.147.147 0 .147-.042.21-.252.378-1.26.903-1.659 1.365-1.659.105 0 .336 0 .336.42 0 .336-.147.693-.231.945-.546 1.428-.777 2.184-.777 2.814 0 1.197.84 1.596 1.638 1.596.525 0 .966-.23 1.344-.609-.168.693-.336 1.365-.861 2.08-.357.44-.861.84-1.47.84-.19 0-.798-.043-1.03-.568.21 0 .4 0 .568-.168a.663.663 0 0 0 .273-.546c0-.42-.357-.462-.483-.462-.315 0-.756.21-.756.861 0 .672.588 1.176 1.428 1.176 1.365 0 2.75-1.218 3.129-2.73zm0 0M304.1 602.897c.084-.336.399-1.575 1.323-1.575.063 0 .399 0 .672.168-.378.084-.63.4-.63.735 0 .21.147.462.504.462.294 0 .714-.23.714-.777 0-.693-.777-.882-1.24-.882-.776 0-1.238.714-1.406 1.008-.336-.882-1.05-1.008-1.45-1.008-1.385 0-2.162 1.722-2.162 2.058 0 .147.147.147.168.147.105 0 .147-.042.168-.147.462-1.428 1.344-1.764 1.806-1.764.252 0 .714.126.714.903 0 .42-.231 1.302-.714 3.192-.21.82-.693 1.386-1.281 1.386-.084 0-.378 0-.672-.168.336-.084.63-.357.63-.735 0-.357-.294-.462-.483-.462-.42 0-.735.336-.735.777 0 .61.65.882 1.239.882.903 0 1.386-.945 1.407-1.008a1.503 1.503 0 0 0 1.449 1.008c1.386 0 2.142-1.722 2.142-2.058 0-.147-.105-.147-.147-.147-.126 0-.147.063-.19.147-.44 1.45-1.343 1.764-1.763 1.764-.525 0-.735-.42-.735-.882 0-.294.063-.588.21-1.176zm0 0" stroke-width=".744"/><path d="M258.27 526.181h225.497M372.047 639.959V414.46M452.464 445.765l-159.451 159.45" fill="none" stroke="#000" marker-end="url(#b)"/><path d="M361.525 416.884c.74-.805 1.153-1.153 1.653-1.588 0 0 .848-.74 1.349-1.24 1.326-1.283 1.63-1.957 1.63-2.022 0-.13-.13-.13-.152-.13-.108 0-.13.021-.217.152-.413.674-.696.891-1.022.891-.348 0-.5-.217-.718-.456-.26-.305-.5-.588-.957-.588-1.044 0-1.674 1.284-1.674 1.588 0 .065.043.152.152.152.13 0 .152-.065.196-.152.26-.652 1.065-.652 1.174-.652.283 0 .544.087.87.195.565.218.718.218 1.065.218-.5.587-1.652 1.587-1.913 1.805l-1.262 1.174c-.935.935-1.435 1.718-1.435 1.827 0 .13.152.13.174.13.109 0 .13-.021.217-.173.327-.5.74-.87 1.197-.87.304 0 .456.13.804.522.218.304.479.522.87.522 1.392 0 2.197-1.762 2.197-2.132 0-.065-.066-.152-.174-.152-.13 0-.153.087-.196.196-.326.891-1.218 1.152-1.675 1.152-.26 0-.522-.087-.804-.174-.479-.174-.696-.239-.979-.239-.022 0-.24 0-.37.044zm0 0"/><path transform="translate(-1291.085 604.821) scale(1.35849)" d="M1264-57.888a39.75 39.75 0 1 1-79.5 0 39.75 39.75 0 1 1 79.5 0z" style="marker:none" color="#000" fill="url(#c)" stroke-width="2.944" overflow="visible"/></svg>