<svg xmlns="http://www.w3.org/2000/svg" xmlns:xlink="http://www.w3.org/1999/xlink" width="210mm" height="297mm"><title>Energie-Erhaltung am Trampolin</title><path style="marker:none" color="#000" fill="#fff" stroke="#fff" stroke-width="6" stroke-linecap="round" stroke-linejoin="round" overflow="visible" d="M11.423 232.227h721.249v587.909H11.423z"/><g stroke-linecap="round"><path d="M645.554 600.812L699.74 704.56v94.823l-54.186-100zM98.54 600.812L44.355 704.56v94.823l54.185-100z" style="marker:none" color="#000" fill="gray" stroke="#1a1a1a" stroke-linejoin="round" overflow="visible"/><path d="M98.54 599.383c1.29.3 547.014 0 547.014 0L699.74 704.56H44.355z" style="marker:none" color="#000" fill="#ccc" stroke="#1a1a1a" stroke-linejoin="round" overflow="visible"/><path d="M645.554 599.383L699.74 704.56M98.54 599.383L44.355 704.56" fill="none" stroke="#4d4d4d" stroke-width="6"/></g><g transform="translate(-11.772 204.312) scale(.97499)" stroke-linecap="round" stroke-linejoin="round"><rect ry="7.95" y="579.693" x="-420.704" height="15.901" width="61.693" transform="rotate(-90.374) skewX(-.044)" rx="9.894" stroke="#fff" stroke-width=".661"/><g transform="translate(11.112 18.183)"><rect width="22.024" height="66.071" x="608.864" y="58.947" ry="11.012" transform="rotate(20.039)" stroke="#000" stroke-width="6.154"/><rect width="56.429" height="15" x="622.515" y="3.291" ry="7.5" transform="rotate(30)" stroke="#000" stroke-width="6.154"/><path d="M582.605 248.246c1.795 6.6-2.101 13.407-8.702 15.201-6.601 1.795-13.407-2.1-15.202-8.702-1.794-6.6 2.102-13.406 8.702-15.201 6.601-1.795 13.407 2.101 15.202 8.702z" stroke="#000" stroke-width="2.49719366"/><rect transform="rotate(90)" ry="6.161" y="-565.966" x="266.496" height="47.411" width="12.321" stroke="#fff" stroke-width=".513"/><rect width="10.804" height="43.214" x="518.996" y="267.468" ry="5.402" stroke="#000" stroke-width=".513"/></g></g><g transform="translate(-13.613 240.415) scale(.97499)" stroke-linecap="round" stroke-linejoin="round"><rect transform="rotate(6.739)" ry="11.012" y="16.817" x="352.35" height="66.071" width="22.024" stroke="#000" stroke-width="6.154"/><rect ry="7.95" y="229.939" x="287.451" height="15.901" width="61.693" transform="rotate(-15.374) skewX(-.044)" rx="9.894" stroke="#fff" stroke-width=".661"/><rect transform="rotate(22.641)" ry="7.5" y="-32.992" x="364.327" height="15" width="56.429" stroke="#000" stroke-width="6.154"/><path d="M371.464 35.78c2.625 6.317-.367 13.566-6.683 16.191-6.317 2.626-13.566-.367-16.191-6.683-2.626-6.317.366-13.565 6.683-16.19 6.316-2.626 13.565.366 16.19 6.682z" stroke="#000" stroke-width="2.49719366"/><g transform="rotate(153.945 340.205 146.877)" stroke-width=".513"><rect transform="rotate(90)" ry="6.161" y="-294.19" x="207.362" height="47.411" width="12.321" stroke="#fff"/><rect transform="rotate(6.054)" width="10.804" height="43.214" x="268.261" y="180.309" ry="5.402" stroke="#000"/></g></g><g transform="translate(-7.53 209.883) scale(.97499)" stroke-linecap="round" stroke-linejoin="round"><rect id="a" width="22.024" height="66.071" x="247.745" y="120.482" ry="11.012" transform="rotate(9.924)" stroke="#000" stroke-width="6.154"/><rect rx="9.894" transform="rotate(-45.374) skewX(-.044)" width="61.693" height="15.901" x="-41.811" y="346.029" ry="7.95" stroke="#fff" stroke-width=".661"/><rect id="b" width="56.429" height="15" x="293.957" y="71.036" ry="7.5" transform="rotate(30)" stroke="#000" stroke-width="6.154"/><path id="c" d="M260.2 145.245c1.795 6.6-2.1 13.407-8.702 15.202-6.6 1.794-13.406-2.102-15.201-8.702-1.795-6.601 2.101-13.407 8.702-15.202 6.6-1.795 13.407 2.101 15.201 8.702z" stroke="#000" stroke-width="2.49719366"/><g transform="rotate(-111.307 245.79 208.083)" stroke-width=".513"><rect width="12.321" height="47.411" x="203.662" y="-292.567" ry="6.161" transform="rotate(90)" stroke="#fff"/><rect ry="5.402" y="206.89" x="245.484" height="43.214" width="10.804" stroke="#000"/></g></g><g transform="translate(-15.04 226.626) scale(.97499)"><use height="1052.362" width="744.094" transform="translate(248.281 -28.561)" xlink:href="#a"/><rect rx="9.894" transform="rotate(-60.374 11.581 -.48) skewX(-.044)" width="61.693" height="15.901" x="17.042" y="535.088" ry="7.95" stroke="#fff" stroke-width=".661" stroke-linecap="round" stroke-linejoin="round"/><use height="1052.362" width="744.094" transform="translate(253.281 -23.204)" xlink:href="#b"/><use height="1052.362" width="744.094" transform="translate(248.281 -28.561)" xlink:href="#c"/><path d="M485.32 135.692a6.156 6.156 0 0 0-5.75 3.656l-14.376 32.031c-1.166 2.6-.38 5.531 1.719 7.25.014.02.017.044.031.063a5.435 5.435 0 0 0 2.094 1.656L498.6 193.63a5.374 5.374 0 0 0 7.125-2.718 5.41 5.41 0 0 0-2.718-7.157l-24.875-11.156 12.656-28.219a6.125 6.125 0 0 0-3.094-8.125c-.778-.349-1.575-.544-2.375-.562z" stroke="#fff" stroke-width=".513" stroke-linecap="round" stroke-linejoin="round"/></g><g transform="translate(-15.343 211.867) scale(.97499)" stroke-linecap="round" stroke-linejoin="round"><rect rx="9.894" transform="rotate(-75.374) skewX(-.044)" width="61.693" height="15.901" x="-396.699" y="261.664" ry="7.95" stroke="#fff" stroke-width=".661"/><g><rect width="22.024" height="66.071" x="248.383" y="250.653" ry="11.012" transform="rotate(20.039)" stroke="#000" stroke-width="6.154"/><rect width="56.429" height="15" x="299.941" y="254.28" ry="7.5" transform="rotate(30)" stroke="#000" stroke-width="6.154"/><path d="M178.258 304.827c1.795 6.6-2.101 13.406-8.702 15.201-6.6 1.795-13.407-2.101-15.201-8.702-1.795-6.6 2.1-13.406 8.702-15.201 6.6-1.795 13.406 2.101 15.201 8.702z" stroke="#000" stroke-width="2.49719366"/><path d="M156.125 323.031a6.088 6.088 0 0 0-2.906.813l-30.406 17.562a6.135 6.135 0 0 0-2.25 8.406 6.2 6.2 0 0 0 1.53 1.782l15.157 26.25a5.383 5.383 0 0 0 7.375 1.969c2.592-1.497 3.496-4.784 2-7.375l-13.25-22.907 26-15c2.956-1.706 3.957-5.481 2.25-8.437-1.173-2.032-3.316-3.122-5.5-3.063z" stroke="#fff" stroke-width=".513"/></g></g><path d="M110.2 650.086c20.375 7.552 41.522 11.912 66.607 0M115.25 638.963c17.285 6.407 35.226 10.106 56.506 0" fill="none" stroke="#000"/></svg>