<svg xmlns="http://www.w3.org/2000/svg" xmlns:xlink="http://www.w3.org/1999/xlink" width="210mm" height="297mm"><title>Energie-Erhaltung am Trampolin (Loesung)</title><defs><symbol overflow="visible" id="H"><path d="M7.063-2.328c.015-.047.046-.11.046-.14 0 0 0-.11-.125-.11-.093 0-.109.062-.125.125-.656 1.469-1.015 2.14-2.718 2.14H2.469c-.11-.015-.14-.03-.14-.109 0-.031 0-.047.046-.219l.688-2.734h.984c.844 0 .844.219.844.469 0 .062 0 .187-.063.484-.016.047-.031.078-.031.11 0 .046.031.109.125.109.078 0 .11-.047.156-.203l.563-2.328c0-.063-.047-.11-.125-.11-.079 0-.11.063-.125.172-.22.766-.391 1-1.313 1h-.937l.593-2.406c.094-.36.11-.39.547-.39h1.407c1.203 0 1.515.28 1.515 1.109 0 .234 0 .25-.047.53 0 .048-.015.126-.015.173 0 .047.03.125.125.125.109 0 .125-.063.14-.25l.203-1.735c.032-.265-.015-.265-.265-.265H2.297c-.188 0-.297 0-.297.203 0 .11.094.11.281.11.375 0 .656 0 .656.171 0 .047 0 .063-.062.25L1.562-.78c-.093.39-.109.469-.906.469-.172 0-.281 0-.281.187C.375 0 .469 0 .656 0h5.172c.234 0 .25-.016.313-.172zm0 0"/></symbol><symbol overflow="visible" id="I"><path d="M1.938 1.094c-.454 0-.516 0-.516-.297V-.328c.031.031.36.39.937.39.922 0 1.704-.687 1.704-1.562 0-.86-.704-1.578-1.594-1.578-.39 0-.797.156-1.078.437v-.437L.344-3v.25c.484 0 .515.047.515.328V.797c0 .297-.062.297-.515.297v.265c.015 0 .5-.03.797-.03.25 0 .734.015.796.03zm-.516-3.422c.203-.344.61-.516.969-.516.593 0 1.046.61 1.046 1.344 0 .797-.53 1.375-1.109 1.375-.625 0-.89-.531-.906-.578zm0 0"/></symbol><symbol overflow="visible" id="J"><path d="M3.688-1.484c0-.875-.75-1.625-1.704-1.625-.968 0-1.718.75-1.718 1.625 0 .859.765 1.546 1.718 1.546.938 0 1.704-.687 1.704-1.546zM1.984-.156c-.265 0-.64-.078-.875-.422-.187-.281-.203-.64-.203-.969 0-.297 0-.719.25-1.016.172-.203.469-.343.828-.343.407 0 .704.187.86.406.187.266.203.625.203.953 0 .328-.016.703-.219.984-.187.266-.5.407-.844.407zm0 0"/></symbol><symbol overflow="visible" id="K"><path d="M1.406-2.75h1.078V-3H1.406v-1.281h-.25c0 .625-.281 1.312-.953 1.328v.203h.64v1.875c0 .781.595.938.985.938.469 0 .781-.391.781-.938v-.39h-.234v.374c0 .485-.219.735-.5.735-.469 0-.469-.578-.469-.703zm0 0"/></symbol><symbol overflow="visible" id="N"><path d="M2.25-1.89c.86-.657 1.094-.844 1.563-.86V-3c-.141.016-.329.031-.47.031-.28 0-.562-.015-.827-.031v.25c.078.016.125.063.125.125 0 .11-.141.234-.22.297l-1.03.797v-3.313l-1.047.078v.25c.469 0 .515.063.515.391v3.578C.86-.25.797-.25.344-.25V0c.25-.016.515-.031.765-.031.266 0 .516.015.782.031v-.25c-.454 0-.532 0-.532-.297v-.672l.516-.39.75.953c.078.078.156.187.156.281 0 .11-.125.125-.187.125V0c.094 0 .578-.031.781-.031.203 0 .406.015.61.031v-.25c-.25 0-.407-.016-.61-.266zm0 0"/></symbol><symbol overflow="visible" id="O"><path d="M1.469-4.297a.413.413 0 0 0-.407-.406.4.4 0 0 0-.39.406.4.4 0 0 0 .39.406.394.394 0 0 0 .407-.406zM.406-3v.25c.438 0 .5.047.5.39v1.813c0 .297-.062.297-.515.297V0c.015 0 .5-.031.78-.031.25 0 .5.015.735.031v-.25c-.406 0-.468 0-.468-.297v-2.531zm0 0"/></symbol><symbol overflow="visible" id="P"><path d="M3.594-2.11c0-.609-.297-.968-1.047-.968-.578 0-.938.312-1.14.687v-.687L.374-3v.25c.469 0 .531.047.531.39v1.813c0 .297-.078.297-.531.297V0c.016 0 .5-.031.797-.031.25 0 .734.031.797.031v-.25c-.453 0-.516 0-.516-.297v-1.265c0-.72.578-1.063 1.031-1.063.485 0 .547.375.547.734v1.594c0 .297-.062.297-.515.297V0c.015 0 .5-.031.796-.031.25 0 .735.031.797.031v-.25c-.453 0-.515 0-.515-.297zm0 0"/></symbol><symbol overflow="visible" id="U"><path d="M2.64-2.922c0-.125 0-.187-.093-.187-.031 0-.047 0-.14.078-.016.015-.079.078-.126.11-.219-.142-.469-.188-.734-.188-1 0-1.234.53-1.234.875 0 .218.093.406.265.546.266.22.531.266.969.344.344.063.906.157.906.625 0 .266-.187.594-.86.594-.671 0-.905-.438-1.03-.906C.53-1.125.53-1.156.438-1.156c-.126 0-.126.047-.126.187v.86c0 .109 0 .171.094.171.063 0 .203-.14.344-.296.297.296.672.296.844.296.906 0 1.25-.484 1.25-.968a.823.823 0 0 0-.313-.64c-.265-.25-.578-.313-.828-.345-.547-.109-1-.187-1-.562 0-.219.188-.485.844-.485.812 0 .844.563.86.766 0 .078.093.078.109.078.125 0 .125-.047.125-.187zm0 0"/></symbol><symbol overflow="visible" id="V"><path d="M3.11-1.875c0-.36 0-.625-.329-.89C2.5-3 2.171-3.11 1.75-3.11c-.656 0-1.125.25-1.125.671 0 .235.156.344.344.344a.32.32 0 0 0 .328-.328.319.319 0 0 0-.25-.312c.25-.172.656-.172.687-.172.391 0 .829.25.829.844v.203c-.391.015-.844.046-1.36.234-.625.219-.812.61-.812.922 0 .594.718.765 1.218.765.547 0 .875-.312 1.032-.578.015.282.203.547.53.547.017 0 .688 0 .688-.656v-.39h-.234v.374c0 .079 0 .407-.266.407-.25 0-.25-.329-.25-.407zm-.547.89c0 .672-.594.86-.907.86-.36 0-.687-.234-.687-.578 0-.39.328-.922 1.594-.969zm0 0"/></symbol><symbol overflow="visible" id="L"><path d="M6.844-3.266c.156 0 .343 0 .343-.187 0-.203-.187-.203-.328-.203H.891c-.141 0-.329 0-.329.203 0 .187.188.187.329.187zm.015 1.938c.141 0 .329 0 .329-.203 0-.188-.188-.188-.344-.188H.89c-.141 0-.329 0-.329.188 0 .203.188.203.329.203zm0 0"/></symbol><symbol overflow="visible" id="M"><path d="M4.578-3.188c0-.796-.047-1.593-.39-2.328C3.733-6.484 2.905-6.64 2.5-6.64c-.61 0-1.328.266-1.75 1.188-.313.687-.36 1.469-.36 2.266 0 .75.032 1.64.454 2.406a1.83 1.83 0 0 0 1.64 1c.532 0 1.297-.203 1.735-1.157.312-.687.36-1.468.36-2.25zM2.484 0c-.39 0-.984-.25-1.156-1.203-.11-.594-.11-1.516-.11-2.11 0-.64 0-1.296.079-1.828.187-1.187.937-1.28 1.187-1.28.329 0 .985.187 1.172 1.171.11.563.11 1.313.11 1.938 0 .75 0 1.421-.11 2.062C3.5-.297 2.937 0 2.484 0zm0 0"/></symbol><symbol overflow="visible" id="Q"><path d="M1.094-3.422V-.75c0 .438-.11.438-.782.438V0c.36-.016.86-.031 1.141-.031.25 0 .766.015 1.11.031v-.313c-.672 0-.782 0-.782-.437v-1.844c0-1.031.719-1.594 1.344-1.594.64 0 .75.532.75 1.11V-.75c0 .438-.11.438-.781.438V0c.344-.016.86-.031 1.125-.031.25 0 .781.015 1.11.031v-.313c-.657 0-.766 0-.766-.437v-1.844c0-1.031.703-1.594 1.343-1.594.625 0 .735.532.735 1.11V-.75c0 .438-.11.438-.782.438V0c.344-.016.86-.031 1.125-.031.266 0 .782.015 1.125.031v-.313c-.515 0-.765 0-.78-.296v-1.907c0-.859 0-1.156-.313-1.515-.141-.172-.47-.375-1.047-.375-.828 0-1.282.593-1.438.984-.14-.875-.875-.984-1.328-.984-.734 0-1.203.422-1.484 1.047v-1.047l-1.407.11v.312c.704 0 .782.062.782.562zm0 0"/></symbol><symbol overflow="visible" id="R"><path d="M3.313-.75c.046.39.312.813.78.813.22 0 .829-.141.829-.954v-.562h-.25v.562c0 .579-.25.641-.36.641-.328 0-.375-.453-.375-.5v-1.984c0-.422 0-.813-.359-1.188-.39-.39-.89-.547-1.36-.547-.827 0-1.515.469-1.515 1.125 0 .297.203.469.469.469a.435.435 0 0 0 .453-.453c0-.125-.047-.453-.516-.453.282-.36.766-.469 1.079-.469.5 0 1.062.39 1.062 1.281v.36c-.516.03-1.203.062-1.828.359-.75.344-1 .86-1 1.297 0 .812.969 1.062 1.594 1.062.656 0 1.109-.406 1.296-.859zM3.25-2.39v1c0 .937-.719 1.28-1.172 1.28-.484 0-.89-.343-.89-.843 0-.547.421-1.375 2.062-1.438zm0 0"/></symbol><symbol overflow="visible" id="S"><path d="M2.86-2.344c.296-.375.671-.86.921-1.125.313-.36.719-.515 1.188-.515v-.313c-.266.016-.563.031-.828.031-.297 0-.829-.015-.954-.03v.312c.22.015.297.14.297.312 0 .156-.109.281-.156.344l-.61.781-.78-1.015c-.094-.094-.094-.11-.094-.172 0-.157.156-.25.343-.25v-.313c-.25.016-.906.031-1.078.031-.203 0-.671-.015-.937-.03v.312c.703 0 .703 0 1.172.609l.984 1.281-.937 1.188a1.566 1.566 0 0 1-1.266.594V0c.25-.016.563-.031.828-.031.281 0 .703.015.938.031v-.313c-.22-.03-.282-.156-.282-.312 0-.219.282-.547.891-1.266l.766 1c.078.11.203.266.203.329 0 .093-.094.25-.36.25V0c.297-.016.86-.031 1.079-.031.265 0 .656.015.953.031v-.313c-.532 0-.72-.015-.938-.312zm0 0"/></symbol><symbol overflow="visible" id="T"><path d="M1.906-.531a.534.534 0 0 0-.515-.531.537.537 0 0 0-.532.53.524.524 0 1 0 1.047 0zm0 0"/></symbol><symbol overflow="visible" id="d"><path d="M7.063-2.328c.015-.047.046-.11.046-.14 0 0 0-.11-.125-.11-.093 0-.109.062-.125.125-.656 1.469-1.015 2.14-2.718 2.14H2.469c-.11-.015-.14-.03-.14-.109 0-.031 0-.047.046-.219l.688-2.734h.984c.844 0 .844.219.844.469 0 .062 0 .187-.063.484-.016.047-.031.078-.031.11 0 .046.031.109.125.109.078 0 .11-.047.156-.203l.563-2.328c0-.063-.047-.11-.125-.11-.079 0-.11.063-.125.172-.22.766-.391 1-1.313 1h-.937l.593-2.406c.094-.36.11-.39.547-.39h1.407c1.203 0 1.515.28 1.515 1.109 0 .234 0 .25-.047.53 0 .048-.015.126-.015.173 0 .047.03.125.125.125.109 0 .125-.063.14-.25l.203-1.735c.032-.265-.015-.265-.265-.265H2.297c-.188 0-.297 0-.297.203 0 .11.094.11.281.11.375 0 .656 0 .656.171 0 .047 0 .063-.062.25L1.562-.78c-.093.39-.109.469-.906.469-.172 0-.281 0-.281.187C.375 0 .469 0 .656 0h5.172c.234 0 .25-.016.313-.172zm0 0"/></symbol><symbol overflow="visible" id="e"><path d="M1.938 1.094c-.454 0-.516 0-.516-.297V-.328c.031.031.36.39.937.39.922 0 1.704-.687 1.704-1.562 0-.86-.704-1.578-1.594-1.578-.39 0-.797.156-1.078.437v-.437L.344-3v.25c.484 0 .515.047.515.328V.797c0 .297-.062.297-.515.297v.265c.015 0 .5-.03.797-.03.25 0 .734.015.796.03zm-.516-3.422c.203-.344.61-.516.969-.516.593 0 1.046.61 1.046 1.344 0 .797-.53 1.375-1.109 1.375-.625 0-.89-.531-.906-.578zm0 0"/></symbol><symbol overflow="visible" id="f"><path d="M3.688-1.484c0-.875-.75-1.625-1.704-1.625-.968 0-1.718.75-1.718 1.625 0 .859.765 1.546 1.718 1.546.938 0 1.704-.687 1.704-1.546zM1.984-.156c-.265 0-.64-.078-.875-.422-.187-.281-.203-.64-.203-.969 0-.297 0-.719.25-1.016.172-.203.469-.343.828-.343.407 0 .704.187.86.406.187.266.203.625.203.953 0 .328-.016.703-.219.984-.187.266-.5.407-.844.407zm0 0"/></symbol><symbol overflow="visible" id="g"><path d="M1.406-2.75h1.078V-3H1.406v-1.281h-.25c0 .625-.281 1.312-.953 1.328v.203h.64v1.875c0 .781.595.938.985.938.469 0 .781-.391.781-.938v-.39h-.234v.374c0 .485-.219.735-.5.735-.469 0-.469-.578-.469-.703zm0 0"/></symbol><symbol overflow="visible" id="j"><path d="M2.25-1.89c.86-.657 1.094-.844 1.563-.86V-3c-.141.016-.329.031-.47.031-.28 0-.562-.015-.827-.031v.25c.078.016.125.063.125.125 0 .11-.141.234-.22.297l-1.03.797v-3.313l-1.047.078v.25c.469 0 .515.063.515.391v3.578C.86-.25.797-.25.344-.25V0c.25-.016.515-.031.765-.031.266 0 .516.015.782.031v-.25c-.454 0-.532 0-.532-.297v-.672l.516-.39.75.953c.078.078.156.187.156.281 0 .11-.125.125-.187.125V0c.094 0 .578-.031.781-.031.203 0 .406.015.61.031v-.25c-.25 0-.407-.016-.61-.266zm0 0"/></symbol><symbol overflow="visible" id="k"><path d="M1.469-4.297a.413.413 0 0 0-.407-.406.4.4 0 0 0-.39.406.4.4 0 0 0 .39.406.394.394 0 0 0 .407-.406zM.406-3v.25c.438 0 .5.047.5.39v1.813c0 .297-.062.297-.515.297V0c.015 0 .5-.031.78-.031.25 0 .5.015.735.031v-.25c-.406 0-.468 0-.468-.297v-2.531zm0 0"/></symbol><symbol overflow="visible" id="l"><path d="M3.594-2.11c0-.609-.297-.968-1.047-.968-.578 0-.938.312-1.14.687v-.687L.374-3v.25c.469 0 .531.047.531.39v1.813c0 .297-.078.297-.531.297V0c.016 0 .5-.031.797-.031.25 0 .734.031.797.031v-.25c-.453 0-.516 0-.516-.297v-1.265c0-.72.578-1.063 1.031-1.063.485 0 .547.375.547.734v1.594c0 .297-.062.297-.515.297V0c.015 0 .5-.031.796-.031.25 0 .735.031.797.031v-.25c-.453 0-.515 0-.515-.297zm0 0"/></symbol><symbol overflow="visible" id="m"><path d="M2.64-2.922c0-.125 0-.187-.093-.187-.031 0-.047 0-.14.078-.016.015-.079.078-.126.11-.219-.142-.469-.188-.734-.188-1 0-1.234.53-1.234.875 0 .218.093.406.265.546.266.22.531.266.969.344.344.063.906.157.906.625 0 .266-.187.594-.86.594-.671 0-.905-.438-1.03-.906C.53-1.125.53-1.156.438-1.156c-.126 0-.126.047-.126.187v.86c0 .109 0 .171.094.171.063 0 .203-.14.344-.296.297.296.672.296.844.296.906 0 1.25-.484 1.25-.968a.823.823 0 0 0-.313-.64c-.265-.25-.578-.313-.828-.345-.547-.109-1-.187-1-.562 0-.219.188-.485.844-.485.812 0 .844.563.86.766 0 .078.093.078.109.078.125 0 .125-.047.125-.187zm0 0"/></symbol><symbol overflow="visible" id="n"><path d="M3.11-1.875c0-.36 0-.625-.329-.89C2.5-3 2.171-3.11 1.75-3.11c-.656 0-1.125.25-1.125.671 0 .235.156.344.344.344a.32.32 0 0 0 .328-.328.319.319 0 0 0-.25-.312c.25-.172.656-.172.687-.172.391 0 .829.25.829.844v.203c-.391.015-.844.046-1.36.234-.625.219-.812.61-.812.922 0 .594.718.765 1.218.765.547 0 .875-.312 1.032-.578.015.282.203.547.53.547.017 0 .688 0 .688-.656v-.39h-.234v.374c0 .079 0 .407-.266.407-.25 0-.25-.329-.25-.407zm-.547.89c0 .672-.594.86-.907.86-.36 0-.687-.234-.687-.578 0-.39.328-.922 1.594-.969zm0 0"/></symbol><symbol overflow="visible" id="h"><path d="M6.844-3.266c.156 0 .343 0 .343-.187 0-.203-.187-.203-.328-.203H.891c-.141 0-.329 0-.329.203 0 .187.188.187.329.187zm.015 1.938c.141 0 .329 0 .329-.203 0-.188-.188-.188-.344-.188H.89c-.141 0-.329 0-.329.188 0 .203.188.203.329.203zm0 0"/></symbol><symbol overflow="visible" id="i"><path d="M4.578-3.188c0-.796-.047-1.593-.39-2.328C3.733-6.484 2.905-6.64 2.5-6.64c-.61 0-1.328.266-1.75 1.188-.313.687-.36 1.469-.36 2.266 0 .75.032 1.64.454 2.406a1.83 1.83 0 0 0 1.64 1c.532 0 1.297-.203 1.735-1.157.312-.687.36-1.468.36-2.25zM2.484 0c-.39 0-.984-.25-1.156-1.203-.11-.594-.11-1.516-.11-2.11 0-.64 0-1.296.079-1.828.187-1.187.937-1.28 1.187-1.28.329 0 .985.187 1.172 1.171.11.563.11 1.313.11 1.938 0 .75 0 1.421-.11 2.062C3.5-.297 2.937 0 2.484 0zm0 0"/></symbol><symbol overflow="visible" id="o"><path d="M1.094-3.422V-.75c0 .438-.11.438-.782.438V0c.36-.016.86-.031 1.141-.031.25 0 .766.015 1.11.031v-.313c-.672 0-.782 0-.782-.437v-1.844c0-1.031.719-1.594 1.344-1.594.64 0 .75.532.75 1.11V-.75c0 .438-.11.438-.781.438V0c.344-.016.86-.031 1.125-.031.25 0 .781.015 1.11.031v-.313c-.657 0-.766 0-.766-.437v-1.844c0-1.031.703-1.594 1.343-1.594.625 0 .735.532.735 1.11V-.75c0 .438-.11.438-.782.438V0c.344-.016.86-.031 1.125-.031.266 0 .782.015 1.125.031v-.313c-.515 0-.765 0-.78-.296v-1.907c0-.859 0-1.156-.313-1.515-.141-.172-.47-.375-1.047-.375-.828 0-1.282.593-1.438.984-.14-.875-.875-.984-1.328-.984-.734 0-1.203.422-1.484 1.047v-1.047l-1.407.11v.312c.704 0 .782.062.782.562zm0 0"/></symbol><symbol overflow="visible" id="p"><path d="M3.313-.75c.046.39.312.813.78.813.22 0 .829-.141.829-.954v-.562h-.25v.562c0 .579-.25.641-.36.641-.328 0-.375-.453-.375-.5v-1.984c0-.422 0-.813-.359-1.188-.39-.39-.89-.547-1.36-.547-.827 0-1.515.469-1.515 1.125 0 .297.203.469.469.469a.435.435 0 0 0 .453-.453c0-.125-.047-.453-.516-.453.282-.36.766-.469 1.079-.469.5 0 1.062.39 1.062 1.281v.36c-.516.03-1.203.062-1.828.359-.75.344-1 .86-1 1.297 0 .812.969 1.062 1.594 1.062.656 0 1.109-.406 1.296-.859zM3.25-2.39v1c0 .937-.719 1.28-1.172 1.28-.484 0-.89-.343-.89-.843 0-.547.421-1.375 2.062-1.438zm0 0"/></symbol><symbol overflow="visible" id="q"><path d="M2.86-2.344c.296-.375.671-.86.921-1.125.313-.36.719-.515 1.188-.515v-.313c-.266.016-.563.031-.828.031-.297 0-.829-.015-.954-.03v.312c.22.015.297.14.297.312 0 .156-.109.281-.156.344l-.61.781-.78-1.015c-.094-.094-.094-.11-.094-.172 0-.157.156-.25.343-.25v-.313c-.25.016-.906.031-1.078.031-.203 0-.671-.015-.937-.03v.312c.703 0 .703 0 1.172.609l.984 1.281-.937 1.188a1.566 1.566 0 0 1-1.266.594V0c.25-.016.563-.031.828-.031.281 0 .703.015.938.031v-.313c-.22-.03-.282-.156-.282-.312 0-.219.282-.547.891-1.266l.766 1c.078.11.203.266.203.329 0 .093-.094.25-.36.25V0c.297-.016.86-.031 1.079-.031.265 0 .656.015.953.031v-.313c-.532 0-.72-.015-.938-.312zm0 0"/></symbol><symbol overflow="visible" id="r"><path d="M1.906-.531a.534.534 0 0 0-.515-.531.537.537 0 0 0-.532.53.524.524 0 1 0 1.047 0zm0 0"/></symbol><symbol id="s" overflow="visible"><path d="M7.063-2.328c.015-.047.046-.11.046-.14 0 0 0-.11-.125-.11-.093 0-.109.062-.125.125-.656 1.469-1.015 2.14-2.718 2.14H2.469c-.11-.015-.14-.03-.14-.109 0-.031 0-.047.046-.219l.688-2.734h.984c.844 0 .844.219.844.469 0 .062 0 .187-.063.484-.016.047-.031.078-.031.11 0 .046.031.109.125.109.078 0 .11-.047.156-.203l.563-2.328c0-.063-.047-.11-.125-.11-.079 0-.11.063-.125.172-.22.766-.391 1-1.313 1h-.937l.593-2.406c.094-.36.11-.39.547-.39h1.407c1.203 0 1.515.28 1.515 1.109 0 .234 0 .25-.047.53 0 .048-.015.126-.015.173 0 .047.03.125.125.125.109 0 .125-.063.14-.25l.203-1.735c.032-.265-.015-.265-.265-.265H2.297c-.188 0-.297 0-.297.203 0 .11.094.11.281.11.375 0 .656 0 .656.171 0 .047 0 .063-.062.25L1.562-.78c-.093.39-.109.469-.906.469-.172 0-.281 0-.281.187C.375 0 .469 0 .656 0h5.172c.234 0 .25-.016.313-.172zm0 0"/></symbol><symbol id="t" overflow="visible"><path d="M1.938 1.094c-.454 0-.516 0-.516-.297V-.328c.031.031.36.39.937.39.922 0 1.704-.687 1.704-1.562 0-.86-.704-1.578-1.594-1.578-.39 0-.797.156-1.078.437v-.437L.344-3v.25c.484 0 .515.047.515.328V.797c0 .297-.062.297-.515.297v.265c.015 0 .5-.03.797-.03.25 0 .734.015.796.03zm-.516-3.422c.203-.344.61-.516.969-.516.593 0 1.046.61 1.046 1.344 0 .797-.53 1.375-1.109 1.375-.625 0-.89-.531-.906-.578zm0 0"/></symbol><symbol id="u" overflow="visible"><path d="M3.688-1.484c0-.875-.75-1.625-1.704-1.625-.968 0-1.718.75-1.718 1.625 0 .859.765 1.546 1.718 1.546.938 0 1.704-.687 1.704-1.546zM1.984-.156c-.265 0-.64-.078-.875-.422-.187-.281-.203-.64-.203-.969 0-.297 0-.719.25-1.016.172-.203.469-.343.828-.343.407 0 .704.187.86.406.187.266.203.625.203.953 0 .328-.016.703-.219.984-.187.266-.5.407-.844.407zm0 0"/></symbol><symbol id="v" overflow="visible"><path d="M1.406-2.75h1.078V-3H1.406v-1.281h-.25c0 .625-.281 1.312-.953 1.328v.203h.64v1.875c0 .781.595.938.985.938.469 0 .781-.391.781-.938v-.39h-.234v.374c0 .485-.219.735-.5.735-.469 0-.469-.578-.469-.703zm0 0"/></symbol><symbol id="B" overflow="visible"><path d="M2.25-1.89c.86-.657 1.094-.844 1.563-.86V-3c-.141.016-.329.031-.47.031-.28 0-.562-.015-.827-.031v.25c.078.016.125.063.125.125 0 .11-.141.234-.22.297l-1.03.797v-3.313l-1.047.078v.25c.469 0 .515.063.515.391v3.578C.86-.25.797-.25.344-.25V0c.25-.016.515-.031.765-.031.266 0 .516.015.782.031v-.25c-.454 0-.532 0-.532-.297v-.672l.516-.39.75.953c.078.078.156.187.156.281 0 .11-.125.125-.187.125V0c.094 0 .578-.031.781-.031.203 0 .406.015.61.031v-.25c-.25 0-.407-.016-.61-.266zm0 0"/></symbol><symbol id="C" overflow="visible"><path d="M1.469-4.297a.413.413 0 0 0-.407-.406.4.4 0 0 0-.39.406.4.4 0 0 0 .39.406.394.394 0 0 0 .407-.406zM.406-3v.25c.438 0 .5.047.5.39v1.813c0 .297-.062.297-.515.297V0c.015 0 .5-.031.78-.031.25 0 .5.015.735.031v-.25c-.406 0-.468 0-.468-.297v-2.531zm0 0"/></symbol><symbol id="D" overflow="visible"><path d="M3.594-2.11c0-.609-.297-.968-1.047-.968-.578 0-.938.312-1.14.687v-.687L.374-3v.25c.469 0 .531.047.531.39v1.813c0 .297-.078.297-.531.297V0c.016 0 .5-.031.797-.031.25 0 .734.031.797.031v-.25c-.453 0-.516 0-.516-.297v-1.265c0-.72.578-1.063 1.031-1.063.485 0 .547.375.547.734v1.594c0 .297-.062.297-.515.297V0c.015 0 .5-.031.796-.031.25 0 .735.031.797.031v-.25c-.453 0-.515 0-.515-.297zm0 0"/></symbol><symbol id="F" overflow="visible"><path d="M2.64-2.922c0-.125 0-.187-.093-.187-.031 0-.047 0-.14.078-.016.015-.079.078-.126.11-.219-.142-.469-.188-.734-.188-1 0-1.234.53-1.234.875 0 .218.093.406.265.546.266.22.531.266.969.344.344.063.906.157.906.625 0 .266-.187.594-.86.594-.671 0-.905-.438-1.03-.906C.53-1.125.53-1.156.438-1.156c-.126 0-.126.047-.126.187v.86c0 .109 0 .171.094.171.063 0 .203-.14.344-.296.297.296.672.296.844.296.906 0 1.25-.484 1.25-.968a.823.823 0 0 0-.313-.64c-.265-.25-.578-.313-.828-.345-.547-.109-1-.187-1-.562 0-.219.188-.485.844-.485.812 0 .844.563.86.766 0 .078.093.078.109.078.125 0 .125-.047.125-.187zm0 0"/></symbol><symbol id="G" overflow="visible"><path d="M3.11-1.875c0-.36 0-.625-.329-.89C2.5-3 2.171-3.11 1.75-3.11c-.656 0-1.125.25-1.125.671 0 .235.156.344.344.344a.32.32 0 0 0 .328-.328.319.319 0 0 0-.25-.312c.25-.172.656-.172.687-.172.391 0 .829.25.829.844v.203c-.391.015-.844.046-1.36.234-.625.219-.812.61-.812.922 0 .594.718.765 1.218.765.547 0 .875-.312 1.032-.578.015.282.203.547.53.547.017 0 .688 0 .688-.656v-.39h-.234v.374c0 .079 0 .407-.266.407-.25 0-.25-.329-.25-.407zm-.547.89c0 .672-.594.86-.907.86-.36 0-.687-.234-.687-.578 0-.39.328-.922 1.594-.969zm0 0"/></symbol><symbol id="w" overflow="visible"><path d="M6.844-3.266c.156 0 .343 0 .343-.187 0-.203-.187-.203-.328-.203H.891c-.141 0-.329 0-.329.203 0 .187.188.187.329.187zm.015 1.938c.141 0 .329 0 .329-.203 0-.188-.188-.188-.344-.188H.89c-.141 0-.329 0-.329.188 0 .203.188.203.329.203zm0 0"/></symbol><symbol id="x" overflow="visible"><path d="M1.094-3.422V-.75c0 .438-.11.438-.782.438V0c.36-.016.86-.031 1.141-.031.25 0 .766.015 1.11.031v-.313c-.672 0-.782 0-.782-.437v-1.844c0-1.031.719-1.594 1.344-1.594.64 0 .75.532.75 1.11V-.75c0 .438-.11.438-.781.438V0c.344-.016.86-.031 1.125-.031.25 0 .781.015 1.11.031v-.313c-.657 0-.766 0-.766-.437v-1.844c0-1.031.703-1.594 1.343-1.594.625 0 .735.532.735 1.11V-.75c0 .438-.11.438-.782.438V0c.344-.016.86-.031 1.125-.031.266 0 .782.015 1.125.031v-.313c-.515 0-.765 0-.78-.296v-1.907c0-.859 0-1.156-.313-1.515-.141-.172-.47-.375-1.047-.375-.828 0-1.282.593-1.438.984-.14-.875-.875-.984-1.328-.984-.734 0-1.203.422-1.484 1.047v-1.047l-1.407.11v.312c.704 0 .782.062.782.562zm0 0"/></symbol><symbol id="y" overflow="visible"><path d="M3.313-.75c.046.39.312.813.78.813.22 0 .829-.141.829-.954v-.562h-.25v.562c0 .579-.25.641-.36.641-.328 0-.375-.453-.375-.5v-1.984c0-.422 0-.813-.359-1.188-.39-.39-.89-.547-1.36-.547-.827 0-1.515.469-1.515 1.125 0 .297.203.469.469.469a.435.435 0 0 0 .453-.453c0-.125-.047-.453-.516-.453.282-.36.766-.469 1.079-.469.5 0 1.062.39 1.062 1.281v.36c-.516.03-1.203.062-1.828.359-.75.344-1 .86-1 1.297 0 .812.969 1.062 1.594 1.062.656 0 1.109-.406 1.296-.859zM3.25-2.39v1c0 .937-.719 1.28-1.172 1.28-.484 0-.89-.343-.89-.843 0-.547.421-1.375 2.062-1.438zm0 0"/></symbol><symbol id="z" overflow="visible"><path d="M2.86-2.344c.296-.375.671-.86.921-1.125.313-.36.719-.515 1.188-.515v-.313c-.266.016-.563.031-.828.031-.297 0-.829-.015-.954-.03v.312c.22.015.297.14.297.312 0 .156-.109.281-.156.344l-.61.781-.78-1.015c-.094-.094-.094-.11-.094-.172 0-.157.156-.25.343-.25v-.313c-.25.016-.906.031-1.078.031-.203 0-.671-.015-.937-.03v.312c.703 0 .703 0 1.172.609l.984 1.281-.937 1.188a1.566 1.566 0 0 1-1.266.594V0c.25-.016.563-.031.828-.031.281 0 .703.015.938.031v-.313c-.22-.03-.282-.156-.282-.312 0-.219.282-.547.891-1.266l.766 1c.078.11.203.266.203.329 0 .093-.094.25-.36.25V0c.297-.016.86-.031 1.079-.031.265 0 .656.015.953.031v-.313c-.532 0-.72-.015-.938-.312zm0 0"/></symbol><symbol id="A" overflow="visible"><path d="M1.906-.531a.534.534 0 0 0-.515-.531.537.537 0 0 0-.532.53.524.524 0 1 0 1.047 0zm0 0"/></symbol><symbol id="E" overflow="visible"><path d="M4.578-3.188c0-.796-.047-1.593-.39-2.328C3.733-6.484 2.905-6.64 2.5-6.64c-.61 0-1.328.266-1.75 1.188-.313.687-.36 1.469-.36 2.266 0 .75.032 1.64.454 2.406a1.83 1.83 0 0 0 1.64 1c.532 0 1.297-.203 1.735-1.157.312-.687.36-1.468.36-2.25zM2.484 0c-.39 0-.984-.25-1.156-1.203-.11-.594-.11-1.516-.11-2.11 0-.64 0-1.296.079-1.828.187-1.187.937-1.28 1.187-1.28.329 0 .985.187 1.172 1.171.11.563.11 1.313.11 1.938 0 .75 0 1.421-.11 2.062C3.5-.297 2.937 0 2.484 0zm0 0"/></symbol></defs><path style="marker:none" color="#000" fill="#fff" stroke="#fff" stroke-width="6" stroke-linecap="round" stroke-linejoin="round" overflow="visible" d="M11.423 155.455h721.249v741.452H11.423z"/><g stroke-linecap="round"><path style="marker:none" d="M645.554 529.964l54.186 103.748v94.824l-54.186-100zM98.54 529.964L44.355 633.712v94.824l54.185-100z" color="#000" fill="gray" stroke="#1a1a1a" stroke-linejoin="round" overflow="visible"/><path style="marker:none" d="M98.54 528.536c1.29.3 547.014 0 547.014 0l54.186 105.176H44.355z" color="#000" fill="#ccc" stroke="#1a1a1a" stroke-linejoin="round" overflow="visible"/><path d="M645.554 528.536l54.186 105.176M98.54 528.536L44.355 633.712" fill="none" stroke="#4d4d4d" stroke-width="6"/></g><g transform="translate(-5.772 159.464) scale(.97499)" stroke-linecap="round" stroke-linejoin="round"><rect rx="9.894" transform="rotate(-90.374) skewX(-.044)" width="61.693" height="15.901" x="-420.704" y="579.693" ry="7.95" stroke="#fff" stroke-width=".661"/><g transform="translate(11.112 18.183)"><rect transform="rotate(20.039)" ry="11.012" y="58.947" x="608.864" height="66.071" width="22.024" stroke="#000" stroke-width="6.154"/><rect transform="rotate(30)" ry="7.5" y="3.291" x="622.515" height="15" width="56.429" stroke="#000" stroke-width="6.154"/><path d="M582.605 248.246c1.795 6.6-2.101 13.407-8.702 15.201-6.601 1.795-13.407-2.1-15.202-8.702-1.794-6.6 2.102-13.406 8.702-15.201 6.601-1.795 13.407 2.101 15.202 8.702z" stroke="#000" stroke-width="2.49719366"/><rect width="12.321" height="47.411" x="266.496" y="-565.966" ry="6.161" transform="rotate(90)" stroke="#fff" stroke-width=".513"/><rect ry="5.402" y="267.468" x="518.996" height="43.214" width="10.804" stroke="#000" stroke-width=".513"/></g></g><g transform="translate(-6.687 169.567) scale(.97499)" stroke-linecap="round" stroke-linejoin="round"><rect width="22.024" height="66.071" x="352.35" y="16.817" ry="11.012" transform="rotate(6.739)" stroke="#000" stroke-width="6.154"/><rect rx="9.894" transform="rotate(-15.374) skewX(-.044)" width="61.693" height="15.901" x="287.451" y="229.939" ry="7.95" stroke="#fff" stroke-width=".661"/><rect width="56.429" height="15" x="364.327" y="-32.992" ry="7.5" transform="rotate(22.641)" stroke="#000" stroke-width="6.154"/><path d="M371.464 35.78c2.625 6.317-.367 13.566-6.683 16.191-6.317 2.626-13.566-.367-16.191-6.683-2.626-6.317.366-13.565 6.683-16.19 6.316-2.626 13.565.366 16.19 6.682z" stroke="#000" stroke-width="2.49719366"/><g transform="rotate(153.945 340.205 146.877)" stroke-width=".513"><rect width="12.321" height="47.411" x="207.362" y="-294.19" ry="6.161" transform="rotate(90)" stroke="#fff"/><rect ry="5.402" y="180.309" x="268.261" height="43.214" width="10.804" transform="rotate(6.054)" stroke="#000"/></g></g><g transform="translate(-1.53 137.035) scale(.97499)" stroke-linecap="round" stroke-linejoin="round"><rect transform="rotate(9.924)" ry="11.012" y="120.482" x="247.745" height="66.071" width="22.024" id="a" stroke="#000" stroke-width="6.154"/><rect ry="7.95" y="346.029" x="-41.811" height="15.901" width="61.693" transform="rotate(-45.374) skewX(-.044)" rx="9.894" stroke="#fff" stroke-width=".661"/><rect transform="rotate(30)" ry="7.5" y="71.036" x="293.957" height="15" width="56.429" id="b" stroke="#000" stroke-width="6.154"/><path d="M260.2 145.245c1.795 6.6-2.1 13.407-8.702 15.202-6.6 1.794-13.406-2.102-15.201-8.702-1.795-6.601 2.101-13.407 8.702-15.202 6.6-1.795 13.407 2.101 15.201 8.702z" id="c" stroke="#000" stroke-width="2.49719366"/><g transform="rotate(-111.307 245.79 208.083)" stroke-width=".513"><rect transform="rotate(90)" ry="6.161" y="-292.567" x="203.662" height="47.411" width="12.321" stroke="#fff"/><rect width="10.804" height="43.214" x="245.484" y="206.89" ry="5.402" stroke="#000"/></g></g><g transform="translate(-20.14 155.779) scale(.97499)"><use xlink:href="#a" transform="translate(248.281 -28.561)" width="744.094" height="1052.362"/><rect ry="7.95" y="535.088" x="17.042" height="15.901" width="61.693" transform="rotate(-60.374 11.581 -.48) skewX(-.044)" rx="9.894" stroke="#fff" stroke-width=".661" stroke-linecap="round" stroke-linejoin="round"/><use xlink:href="#b" transform="translate(253.281 -23.204)" width="744.094" height="1052.362"/><use xlink:href="#c" transform="translate(248.281 -28.561)" width="744.094" height="1052.362"/><path d="M485.32 135.692a6.156 6.156 0 0 0-5.75 3.656l-14.376 32.031c-1.166 2.6-.38 5.531 1.719 7.25.014.02.017.044.031.063a5.435 5.435 0 0 0 2.094 1.656L498.6 193.63a5.374 5.374 0 0 0 7.125-2.718 5.41 5.41 0 0 0-2.718-7.157l-24.875-11.156 12.656-28.219a6.125 6.125 0 0 0-3.094-8.125c-.778-.349-1.575-.544-2.375-.562z" stroke="#fff" stroke-width=".513" stroke-linecap="round" stroke-linejoin="round"/></g><g transform="translate(-15.343 141.019) scale(.97499)" stroke-linecap="round" stroke-linejoin="round"><rect ry="7.95" y="261.664" x="-396.699" height="15.901" width="61.693" transform="rotate(-75.374) skewX(-.044)" rx="9.894" stroke="#fff" stroke-width=".661"/><g><rect transform="rotate(20.039)" ry="11.012" y="250.653" x="248.383" height="66.071" width="22.024" stroke="#000" stroke-width="6.154"/><rect transform="rotate(30)" ry="7.5" y="254.28" x="299.941" height="15" width="56.429" stroke="#000" stroke-width="6.154"/><path d="M178.258 304.827c1.795 6.6-2.101 13.406-8.702 15.201-6.6 1.795-13.407-2.101-15.201-8.702-1.795-6.6 2.1-13.406 8.702-15.201 6.6-1.795 13.406 2.101 15.201 8.702z" stroke="#000" stroke-width="2.49719366"/><path d="M156.125 323.031a6.088 6.088 0 0 0-2.906.813l-30.406 17.562a6.135 6.135 0 0 0-2.25 8.406 6.2 6.2 0 0 0 1.53 1.782l15.157 26.25a5.383 5.383 0 0 0 7.375 1.969c2.592-1.497 3.496-4.784 2-7.375l-13.25-22.907 26-15c2.956-1.706 3.957-5.481 2.25-8.437-1.173-2.032-3.316-3.122-5.5-3.063z" stroke="#fff" stroke-width=".513"/></g></g><path d="M110.2 579.238c20.375 7.552 41.522 11.912 66.607 0M115.25 568.115c17.285 6.407 35.226 10.106 56.506 0" fill="none" stroke="#000"/><use height="1052.362" width="744.094" xlink:href="#d" x="372.53" y="134.765" transform="matrix(2.8875 0 0 2.8875 -1019.735 387.057)"/><use height="1052.362" width="744.094" xlink:href="#e" x="379.884" y="136.259" transform="matrix(2.8875 0 0 2.8875 -1019.735 387.057)"/><g transform="matrix(2.8875 0 0 2.8875 -1019.735 387.057)"><use height="1052.362" width="744.094" xlink:href="#f" x="384.501" y="136.259"/><use height="1052.362" width="744.094" xlink:href="#g" x="388.472" y="136.259"/></g><use height="1052.362" width="744.094" xlink:href="#h" x="394.849" y="134.765" transform="matrix(2.8875 0 0 2.8875 -1019.735 387.057)"/><use height="1052.362" width="744.094" xlink:href="#i" x="405.368" y="134.765" transform="matrix(2.8875 0 0 2.8875 -1019.735 387.057)"/><use height="1052.362" width="744.094" xlink:href="#d" x="373.388" y="149.709" transform="matrix(2.8875 0 0 2.8875 -1019.735 387.057)"/><g transform="matrix(2.8875 0 0 2.8875 -1019.735 387.057)"><use height="1052.362" width="744.094" xlink:href="#j" x="380.742" y="151.203"/><use height="1052.362" width="744.094" xlink:href="#k" x="384.928" y="151.203"/><use height="1052.362" width="744.094" xlink:href="#l" x="387.183" y="151.203"/></g><use height="1052.362" width="744.094" xlink:href="#h" x="394.849" y="149.709" transform="matrix(2.8875 0 0 2.8875 -1019.735 387.057)"/><use height="1052.362" width="744.094" xlink:href="#i" x="405.368" y="149.709" transform="matrix(2.8875 0 0 2.8875 -1019.735 387.057)"/><use height="1052.362" width="744.094" xlink:href="#d" x="363.901" y="164.653" transform="matrix(2.8875 0 0 2.8875 -1019.735 387.057)"/><g transform="matrix(2.8875 0 0 2.8875 -1019.735 387.057)"><use height="1052.362" width="744.094" xlink:href="#m" x="371.255" y="166.147"/><use height="1052.362" width="744.094" xlink:href="#e" x="374.411" y="166.147"/><use height="1052.362" width="744.094" xlink:href="#n" x="378.812" y="166.147"/><use height="1052.362" width="744.094" xlink:href="#l" x="382.783" y="166.147"/><use height="1052.362" width="744.094" xlink:href="#l" x="387.184" y="166.147"/></g><use height="1052.362" width="744.094" xlink:href="#h" x="394.849" y="164.653" transform="matrix(2.8875 0 0 2.8875 -1019.735 387.057)"/><g transform="matrix(2.8875 0 0 2.8875 -1019.735 387.057)"><use height="1052.362" width="744.094" xlink:href="#o" x="405.368" y="164.653"/><use height="1052.362" width="744.094" xlink:href="#p" x="413.669" y="164.653"/><use height="1052.362" width="744.094" xlink:href="#q" x="418.651" y="164.653"/><use height="1052.362" width="744.094" xlink:href="#r" x="423.909" y="164.653"/></g><g><use y="134.765" x="372.53" xlink:href="#s" width="744.094" height="1052.362" transform="matrix(2.8875 0 0 2.8875 -768.646 387.057)"/><use y="136.259" x="379.884" xlink:href="#t" width="744.094" height="1052.362" transform="matrix(2.8875 0 0 2.8875 -768.646 387.057)"/><g transform="matrix(2.8875 0 0 2.8875 -768.646 387.057)"><use y="136.259" x="384.501" xlink:href="#u" width="744.094" height="1052.362"/><use y="136.259" x="388.472" xlink:href="#v" width="744.094" height="1052.362"/></g><use y="134.765" x="394.849" xlink:href="#w" width="744.094" height="1052.362" transform="matrix(2.8875 0 0 2.8875 -768.646 387.057)"/><g transform="matrix(2.8875 0 0 2.8875 -768.646 387.057)"><use y="134.765" x="405.368" xlink:href="#x" width="744.094" height="1052.362"/><use y="134.765" x="413.669" xlink:href="#y" width="744.094" height="1052.362"/><use y="134.765" x="418.651" xlink:href="#z" width="744.094" height="1052.362"/><use y="134.765" x="423.909" xlink:href="#A" width="744.094" height="1052.362"/></g><use y="149.709" x="373.388" xlink:href="#s" width="744.094" height="1052.362" transform="matrix(2.8875 0 0 2.8875 -768.646 387.057)"/><g transform="matrix(2.8875 0 0 2.8875 -768.646 387.057)"><use y="151.203" x="380.742" xlink:href="#B" width="744.094" height="1052.362"/><use y="151.203" x="384.928" xlink:href="#C" width="744.094" height="1052.362"/><use y="151.203" x="387.183" xlink:href="#D" width="744.094" height="1052.362"/></g><use y="149.709" x="394.849" xlink:href="#w" width="744.094" height="1052.362" transform="matrix(2.8875 0 0 2.8875 -768.646 387.057)"/><use y="149.709" x="405.368" xlink:href="#E" width="744.094" height="1052.362" transform="matrix(2.8875 0 0 2.8875 -768.646 387.057)"/><use y="164.653" x="363.901" xlink:href="#s" width="744.094" height="1052.362" transform="matrix(2.8875 0 0 2.8875 -768.646 387.057)"/><g transform="matrix(2.8875 0 0 2.8875 -768.646 387.057)"><use y="166.147" x="371.255" xlink:href="#F" width="744.094" height="1052.362"/><use y="166.147" x="374.411" xlink:href="#t" width="744.094" height="1052.362"/><use y="166.147" x="378.812" xlink:href="#G" width="744.094" height="1052.362"/><use y="166.147" x="382.783" xlink:href="#D" width="744.094" height="1052.362"/><use y="166.147" x="387.184" xlink:href="#D" width="744.094" height="1052.362"/></g><use y="164.653" x="394.849" xlink:href="#w" width="744.094" height="1052.362" transform="matrix(2.8875 0 0 2.8875 -768.646 387.057)"/><use y="164.653" x="405.368" xlink:href="#E" width="744.094" height="1052.362" transform="matrix(2.8875 0 0 2.8875 -768.646 387.057)"/></g><g><use height="1052.362" width="744.094" xlink:href="#H" x="372.53" y="134.765" transform="matrix(2.8875 0 0 2.8875 -517.557 387.057)"/><use height="1052.362" width="744.094" xlink:href="#I" x="379.884" y="136.259" transform="matrix(2.8875 0 0 2.8875 -517.557 387.057)"/><g transform="matrix(2.8875 0 0 2.8875 -517.557 387.057)"><use height="1052.362" width="744.094" xlink:href="#J" x="384.501" y="136.259"/><use height="1052.362" width="744.094" xlink:href="#K" x="388.472" y="136.259"/></g><use height="1052.362" width="744.094" xlink:href="#L" x="394.849" y="134.765" transform="matrix(2.8875 0 0 2.8875 -517.557 387.057)"/><use height="1052.362" width="744.094" xlink:href="#M" x="405.368" y="134.765" transform="matrix(2.8875 0 0 2.8875 -517.557 387.057)"/><use height="1052.362" width="744.094" xlink:href="#H" x="373.388" y="149.709" transform="matrix(2.8875 0 0 2.8875 -517.557 387.057)"/><g transform="matrix(2.8875 0 0 2.8875 -517.557 387.057)"><use height="1052.362" width="744.094" xlink:href="#N" x="380.742" y="151.203"/><use height="1052.362" width="744.094" xlink:href="#O" x="384.928" y="151.203"/><use height="1052.362" width="744.094" xlink:href="#P" x="387.183" y="151.203"/></g><use height="1052.362" width="744.094" xlink:href="#L" x="394.849" y="149.709" transform="matrix(2.8875 0 0 2.8875 -517.557 387.057)"/><g transform="matrix(2.8875 0 0 2.8875 -517.557 387.057)"><use height="1052.362" width="744.094" xlink:href="#Q" x="405.368" y="149.709"/><use height="1052.362" width="744.094" xlink:href="#R" x="413.669" y="149.709"/><use height="1052.362" width="744.094" xlink:href="#S" x="418.651" y="149.709"/><use height="1052.362" width="744.094" xlink:href="#T" x="423.909" y="149.709"/></g><use height="1052.362" width="744.094" xlink:href="#H" x="363.901" y="164.653" transform="matrix(2.8875 0 0 2.8875 -517.557 387.057)"/><g transform="matrix(2.8875 0 0 2.8875 -517.557 387.057)"><use height="1052.362" width="744.094" xlink:href="#U" x="371.255" y="166.147"/><use height="1052.362" width="744.094" xlink:href="#I" x="374.411" y="166.147"/><use height="1052.362" width="744.094" xlink:href="#V" x="378.812" y="166.147"/><use height="1052.362" width="744.094" xlink:href="#P" x="382.783" y="166.147"/><use height="1052.362" width="744.094" xlink:href="#P" x="387.184" y="166.147"/></g><use height="1052.362" width="744.094" xlink:href="#L" x="394.849" y="164.653" transform="matrix(2.8875 0 0 2.8875 -517.557 387.057)"/><use height="1052.362" width="744.094" xlink:href="#M" x="405.368" y="164.653" transform="matrix(2.8875 0 0 2.8875 -517.557 387.057)"/></g></svg>