<svg xmlns="http://www.w3.org/2000/svg" width="210mm" height="297mm"><title>Potentielle Energie (Stein)</title><path fill="#fff" stroke="#fff" d="M83.843 373.648H659.63v305.066H83.843z"/><rect width="552.857" height="12.857" x="95.619" y="620.139" rx="4.734" ry="4.734" fill="gray" stroke="#4d4d4d" stroke-width="1.5" stroke-linecap="round" stroke-linejoin="round"/><path d="M352.22 497.268l-.22.187a4.705 4.705 0 0 0-3.156 2.719c-.004.009.004.022 0 .031L215.625 615.393c0 2.623 2.096 4.75 4.72 4.75h131.874c.17 0 .335-.046.5-.063.165.017.33.063.5.063h170.5a4.75 4.75 0 0 0 4.75-4.75V502.018a4.75 4.75 0 0 0-4.75-4.75h-170.5c-.169 0-.335.045-.5.062-.164-.017-.33-.062-.5-.062z" fill="#ccc" stroke="#000" stroke-width="1.5" stroke-linecap="round" stroke-linejoin="round"/><path d="M461.247 497.268c-11.477-.441-22.66-6.016-29.921-14.915-6.777-8.306-10.066-19.556-8.062-30.086 1.12-5.884 3.825-11.432 7.597-16.084 3.773-4.653 8.595-8.42 13.922-11.16 10.652-5.481 23.104-6.784 35.003-5.389 7.922.93 15.767 3.036 22.787 6.823 7.02 3.788 13.193 9.316 17.156 16.238 5.75 10.046 6.415 22.839 1.736 33.426-4.678 10.587-14.585 18.708-25.885 21.219l-34.333-.072" fill="gray" stroke="#000"/></svg>