<svg xmlns="http://www.w3.org/2000/svg" width="744.094" height="1052.362"><title>Experiment Schraege Treppe</title><defs><linearGradient id="a"><stop offset="0" stop-color="#0e0e0e"/><stop offset="1" stop-color="#6a6a6a"/></linearGradient><linearGradient id="b"><stop offset="0" stop-color="#0e0e0e"/><stop offset="1" stop-color="#6a6a6a"/></linearGradient><linearGradient id="c"><stop offset="0" stop-color="#0e0e0e"/><stop offset="1" stop-color="#6a6a6a"/></linearGradient></defs><rect style="marker:none" width="698.645" height="138.909" x="22.725" y="440.681" rx="1.845" ry="1.343" color="#000" fill="#fff" fill-rule="evenodd" stroke="#fff" stroke-width="1.5" overflow="visible"/><g transform="translate(22.4 -97.754)" fill="#d38d5f" stroke="#784421" stroke-linecap="round" stroke-linejoin="round"><rect rx="1.136" ry="2.088" y="632.823" x="74.086" height="12.359" width="109.741"/><rect width="109.741" height="12.359" x="89.298" y="620.464" ry="2.088" rx="1.136"/><rect width="109.741" height="12.359" x="104.51" y="608.105" ry="2.088" rx="1.136"/><rect rx="1.136" ry="2.088" y="595.747" x="119.722" height="12.359" width="109.741"/><rect width="109.741" height="12.359" x="134.934" y="583.388" ry="2.088" rx="1.136"/></g><rect width="614.456" height="17.3" x="64.819" y="548.928" ry="2.922" rx="6.358" fill="#999" stroke="#1a1a1a" stroke-width="2" stroke-linecap="round" stroke-linejoin="round"/><g fill="#d38d5f" stroke="#784421" stroke-linecap="round" stroke-linejoin="round"><g transform="translate(293.193 -97.754)"><rect rx="1.136" ry="2.088" y="632.823" x="74.086" height="12.359" width="109.741"/><rect width="109.741" height="12.359" x="89.298" y="620.464" ry="2.088" rx="1.136"/><rect width="109.741" height="12.359" x="104.51" y="608.105" ry="2.088" rx="1.136"/><rect rx="1.136" ry="2.088" y="595.747" x="119.722" height="12.359" width="109.741"/><rect width="109.741" height="12.359" x="134.934" y="583.388" ry="2.088" rx="1.136"/></g><g transform="translate(402.934 -97.754)"><rect width="109.741" height="12.359" x="74.086" y="632.823" ry="2.088" rx="1.136"/><rect rx="1.136" ry="2.088" y="620.464" x="89.298" height="12.359" width="109.741"/><rect rx="1.136" ry="2.088" y="608.105" x="104.51" height="12.359" width="109.741"/><rect width="109.741" height="12.359" x="119.722" y="595.747" ry="2.088" rx="1.136"/><rect rx="1.136" ry="2.088" y="583.388" x="134.934" height="12.359" width="109.741"/></g></g></svg>