<svg xmlns="http://www.w3.org/2000/svg" width="744.094" height="1052.362"><title>Experiment Gleichgewicht an Wand</title><defs><linearGradient id="a"><stop offset="0" stop-color="#0e0e0e"/><stop offset="1" stop-color="#6a6a6a"/></linearGradient><linearGradient id="b"><stop offset="0" stop-color="#0e0e0e"/><stop offset="1" stop-color="#6a6a6a"/></linearGradient><linearGradient id="c"><stop offset="0" stop-color="#0e0e0e"/><stop offset="1" stop-color="#6a6a6a"/></linearGradient></defs><rect style="marker:none" width="698.645" height="373.49" x="22.725" y="335.042" rx="1.845" ry="3.611" color="#000" fill="#fff" fill-rule="evenodd" stroke="#fff" stroke-width="1.5" overflow="visible"/><rect rx="1.845" ry="4.036" y="646.682" x="104.143" height="23.891" width="178.308" fill="#999" stroke="#1a1a1a" stroke-width="2" stroke-linecap="round" stroke-linejoin="round"/><path d="M146.965 403.306a17.37 17.37 0 1 1 33.521 9.115 17.37 17.37 0 1 1-33.521-9.115z" stroke="#000" stroke-width="2.43303873" stroke-linecap="round" stroke-linejoin="round"/><rect transform="matrix(-.07106 .99747 .99444 .10533 0 0)" ry="9.495" y="180.007" x="476.386" height="18.991" width="82.785" stroke="#000" stroke-width="6.002" stroke-linecap="round" stroke-linejoin="round"/><rect rx="13.669" transform="matrix(-.16156 .98686 -.95835 -.2856 0 0)" width="85.226" height="22.821" x="501.031" y="-253.411" ry="11.411" stroke="#000" stroke-width=".647" stroke-linecap="round" stroke-linejoin="round"/><rect width="79.133" height="18.932" x="542.108" y="-38.51" ry="9.466" transform="matrix(.3699 .92907 .9293 -.36931 0 0)" stroke="#000" stroke-width="6" stroke-linecap="round" stroke-linejoin="round"/><rect ry="11.149" y="-176.949" x="573.652" height="22.299" width="86.516" transform="rotate(86.65) skewX(-.044)" rx="13.876" stroke="#000" stroke-width=".644" stroke-linecap="round" stroke-linejoin="round"/><rect style="marker:none" width="72.749" height="16.444" x="-500.984" y="247.643" rx="7.912" ry="8.222" transform="matrix(.11354 -.99353 .96692 .25507 0 0)" color="#000" stroke="#fff" stroke-width=".503" stroke-linecap="round" stroke-linejoin="round" overflow="visible"/><rect transform="matrix(-.12502 -.99215 .99719 -.07497 0 0)" ry="8.151" rx="8.248" y="126.803" x="-519.891" height="16.302" width="75.835" style="marker:none" color="#000" stroke="#fff" stroke-width="1.001" stroke-linecap="round" stroke-linejoin="round" overflow="visible"/><rect width="46.105" height="92.658" x="-183.374" y="428.781" ry="15.443" transform="matrix(-1 .0035 .00779 .99997 0 0)" stroke="#fff" stroke-width=".5" stroke-linecap="round" stroke-linejoin="round"/><rect style="marker:none" width="65.451" height="16.341" x="-500.379" y="99.884" rx="7.118" ry="8.171" transform="matrix(-.06374 -.99797 .99885 -.04786 0 0)" color="#000" stroke="#fff" stroke-width=".5" stroke-linecap="round" stroke-linejoin="round" overflow="visible"/><rect width="262.892" height="23.891" x="-644.682" y="103.708" ry="4.036" rx="2.72" transform="rotate(-90)" fill="#999" stroke="#1a1a1a" stroke-width="2" stroke-linecap="round" stroke-linejoin="round"/><rect transform="rotate(-142.544)" ry="8.174" rx="8.214" y="-308.787" x="-475.352" height="16.348" width="75.527" style="marker:none" color="#000" stroke="#fff" stroke-width=".5" stroke-linecap="round" stroke-linejoin="round" overflow="visible"/><rect width="178.308" height="23.891" x="462.079" y="646.682" ry="4.036" rx="1.845" fill="#999" stroke="#1a1a1a" stroke-width="2" stroke-linecap="round" stroke-linejoin="round"/><path d="M504.9 403.306a17.37 17.37 0 1 1 33.522 9.115 17.37 17.37 0 1 1-33.521-9.115z" stroke="#000" stroke-width="2.43303873" stroke-linecap="round" stroke-linejoin="round"/><rect width="82.785" height="18.991" x="438.663" y="537.25" ry="9.495" transform="matrix(-.07106 .99747 .99444 .10533 0 0)" stroke="#000" stroke-width="6.002" stroke-linecap="round" stroke-linejoin="round"/><rect ry="11.411" y="-609.53" x="397.968" height="22.821" width="85.226" transform="matrix(-.16156 .98686 -.95835 -.2856 0 0)" rx="13.669" stroke="#000" stroke-width=".647" stroke-linecap="round" stroke-linejoin="round"/><rect transform="matrix(.6154 .78821 .7886 -.6149 0 0)" ry="9.466" y="92.279" x="732.054" height="18.932" width="79.133" stroke="#000" stroke-width="6" stroke-linecap="round" stroke-linejoin="round"/><rect rx="13.876" transform="rotate(136.434) skewX(-.044)" width="86.516" height="22.299" x="-33.893" y="-821.21" ry="11.149" stroke="#000" stroke-width=".644" stroke-linecap="round" stroke-linejoin="round"/><rect transform="matrix(.11354 -.99353 .96692 .25507 0 0)" ry="8.222" rx="7.912" y="606.99" x="-408.729" height="16.444" width="72.749" style="marker:none" color="#000" stroke="#fff" stroke-width=".503" stroke-linecap="round" stroke-linejoin="round" overflow="visible"/><rect style="marker:none" width="75.835" height="16.302" x="-546.758" y="482.38" rx="8.248" ry="8.151" transform="matrix(-.12502 -.99215 .99719 -.07497 0 0)" color="#000" stroke="#fff" stroke-width="1.001" stroke-linecap="round" stroke-linejoin="round" overflow="visible"/><rect transform="matrix(-1 .0035 .00779 .99997 0 0)" ry="15.443" y="430.032" x="-541.302" height="92.658" width="46.105" stroke="#fff" stroke-width=".5" stroke-linecap="round" stroke-linejoin="round"/><rect transform="matrix(-.06374 -.99797 .99885 -.04786 0 0)" ry="8.171" rx="7.118" y="457.137" x="-517.513" height="16.341" width="65.451" style="marker:none" color="#000" stroke="#fff" stroke-width=".5" stroke-linecap="round" stroke-linejoin="round" overflow="visible"/><rect transform="rotate(-90)" rx="2.72" ry="4.036" y="461.644" x="-644.682" height="23.891" width="262.892" fill="#999" stroke="#1a1a1a" stroke-width="2" stroke-linecap="round" stroke-linejoin="round"/><rect style="marker:none" width="75.527" height="16.348" x="-759.488" y="-91.107" rx="8.214" ry="8.174" transform="rotate(-142.544)" color="#000" stroke="#fff" stroke-width=".5" stroke-linecap="round" stroke-linejoin="round" overflow="visible"/><g transform="translate(-7.628 -195.67)" color="#000" fill="#fff" fill-rule="evenodd" stroke="teal" stroke-width="1.5"><rect ry="4.892" rx="6.11" y="651.333" x="339.045" height="19.087" width="67.034" style="marker:none" overflow="visible"/><path d="M389.92 691.245v-60.736l30.385 30.368z" style="marker:none" overflow="visible"/></g></svg>