<?xml version="1.0" encoding="UTF-8" standalone="no"?>
<!-- Created with Inkscape (http://www.inkscape.org/) -->

<svg
   xmlns:ns0="http://www.iki.fi/pav/software/textext/"
   xmlns:dc="http://purl.org/dc/elements/1.1/"
   xmlns:cc="http://creativecommons.org/ns#"
   xmlns:rdf="http://www.w3.org/1999/02/22-rdf-syntax-ns#"
   xmlns:svg="http://www.w3.org/2000/svg"
   xmlns="http://www.w3.org/2000/svg"
   xmlns:xlink="http://www.w3.org/1999/xlink"
   xmlns:sodipodi="http://sodipodi.sourceforge.net/DTD/sodipodi-0.dtd"
   xmlns:inkscape="http://www.inkscape.org/namespaces/inkscape"
   width="210mm"
   height="297mm"
   id="svg2"
   version="1.1"
   inkscape:version="0.48.4 r9939"
   sodipodi:docname="gewichtsverteilung-aufgabe.svg">
  <title
     id="title10125">Gewichtsverteilung</title>
  <defs
     id="defs4">
    <marker
       inkscape:stockid="Arrow2Send"
       orient="auto"
       refY="0.0"
       refX="0.0"
       id="Arrow2Send"
       style="overflow:visible;">
      <path
         id="path8142"
         style="fill-rule:evenodd;stroke-width:0.62500000;stroke-linejoin:round;"
         d="M 8.7185878,4.0337352 L -2.2072895,0.016013256 L 8.7185884,-4.0017078 C 6.9730900,-1.6296469 6.9831476,1.6157441 8.7185878,4.0337352 z "
         transform="scale(0.3) rotate(180) translate(-2.3,0)" />
    </marker>
    <marker
       inkscape:stockid="Arrow2Mend"
       orient="auto"
       refY="0.0"
       refX="0.0"
       id="Arrow2Mend"
       style="overflow:visible;">
      <path
         id="path8136"
         style="fill-rule:evenodd;stroke-width:0.62500000;stroke-linejoin:round;"
         d="M 8.7185878,4.0337352 L -2.2072895,0.016013256 L 8.7185884,-4.0017078 C 6.9730900,-1.6296469 6.9831476,1.6157441 8.7185878,4.0337352 z "
         transform="scale(0.6) rotate(180) translate(0,0)" />
    </marker>
    <filter
       inkscape:collect="always"
       id="filter4801-5"
       x="-0.47999999"
       width="1.96"
       y="-0.47999999"
       height="1.96"
       color-interpolation-filters="sRGB">
      <feGaussianBlur
         inkscape:collect="always"
         stdDeviation="4.5714287"
         id="feGaussianBlur4803-9" />
    </filter>
  </defs>
  <sodipodi:namedview
     id="base"
     pagecolor="#ffffff"
     bordercolor="#666666"
     borderopacity="1.0"
     inkscape:pageopacity="0.0"
     inkscape:pageshadow="2"
     inkscape:zoom="2.5800183"
     inkscape:cx="376.61245"
     inkscape:cy="595.54607"
     inkscape:document-units="px"
     inkscape:current-layer="layer1"
     showgrid="false"
     inkscape:object-paths="true"
     inkscape:object-nodes="true"
     inkscape:snap-smooth-nodes="true"
     inkscape:snap-midpoints="true"
     inkscape:snap-object-midpoints="true"
     inkscape:window-width="1600"
     inkscape:window-height="1150"
     inkscape:window-x="0"
     inkscape:window-y="0"
     inkscape:window-maximized="1"
     inkscape:snap-page="true"
     inkscape:snap-global="false"
     showguides="true"
     inkscape:guide-bbox="true">
    <sodipodi:guide
       orientation="1,0"
       position="262.78883,520.92653"
       id="guide10295" />
    <sodipodi:guide
       orientation="1,0"
       position="333.13717,536.0427"
       id="guide10297" />
    <sodipodi:guide
       orientation="1,0"
       position="498.26007,526.7634"
       id="guide10301" />
  </sodipodi:namedview>
  <metadata
     id="metadata7">
    <rdf:RDF>
      <cc:Work
         rdf:about="">
        <dc:format>image/svg+xml</dc:format>
        <dc:type
           rdf:resource="http://purl.org/dc/dcmitype/StillImage" />
        <dc:title>Gewichtsverteilung</dc:title>
        <dc:creator>
          <cc:Agent>
            <dc:title>Bernhard Grotz</dc:title>
          </cc:Agent>
        </dc:creator>
        <dc:rights>
          <cc:Agent>
            <dc:title>Bernhard Grotz</dc:title>
          </cc:Agent>
        </dc:rights>
        <dc:publisher>
          <cc:Agent>
            <dc:title>Bernhard Grotz</dc:title>
          </cc:Agent>
        </dc:publisher>
        <dc:language>de-DE</dc:language>
        <cc:license
           rdf:resource="http://creativecommons.org/licenses/by-nc-sa/3.0/" />
        <dc:date>2015-10-16</dc:date>
        <dc:subject>
          <rdf:Bag>
            <rdf:li>Physik</rdf:li>
            <rdf:li>Mechanik</rdf:li>
            <rdf:li>Drehmoment</rdf:li>
            <rdf:li>Statisches Gleichgewicht</rdf:li>
            <rdf:li>Gewichtsverteilung</rdf:li>
          </rdf:Bag>
        </dc:subject>
      </cc:Work>
      <cc:License
         rdf:about="http://creativecommons.org/licenses/by-nc-sa/3.0/">
        <cc:permits
           rdf:resource="http://creativecommons.org/ns#Reproduction" />
        <cc:permits
           rdf:resource="http://creativecommons.org/ns#Distribution" />
        <cc:requires
           rdf:resource="http://creativecommons.org/ns#Notice" />
        <cc:requires
           rdf:resource="http://creativecommons.org/ns#Attribution" />
        <cc:prohibits
           rdf:resource="http://creativecommons.org/ns#CommercialUse" />
        <cc:permits
           rdf:resource="http://creativecommons.org/ns#DerivativeWorks" />
        <cc:requires
           rdf:resource="http://creativecommons.org/ns#ShareAlike" />
      </cc:License>
    </rdf:RDF>
  </metadata>
  <g
     inkscape:label="Ebene 1"
     inkscape:groupmode="layer"
     id="layer1">
    <rect
       style="color:#000000;fill:#ffffff;fill-opacity:1;fill-rule:nonzero;stroke:#ffffff;stroke-width:3;stroke-linecap:round;stroke-linejoin:round;stroke-miterlimit:4;stroke-opacity:1;stroke-dasharray:none;stroke-dashoffset:0;marker:none;visibility:visible;display:inline;overflow:visible;enable-background:accumulate"
       id="rect10123"
       width="522.47034"
       height="135.06749"
       x="110.81207"
       y="458.64731"
       inkscape:export-filename="/home/waldgeist/data/homepage/pics/physik/mechanik/drehmoment-und-gleichgewicht/gewichtsverteilung-aufgabe.png"
       inkscape:export-xdpi="150"
       inkscape:export-ydpi="150" />
    <rect
       style="color:#000000;fill:#808080;fill-opacity:1;fill-rule:nonzero;stroke:#4d4d4d;stroke-width:1;stroke-linecap:round;stroke-linejoin:round;stroke-miterlimit:4;stroke-opacity:1;stroke-dasharray:none;stroke-dashoffset:0;marker:none;visibility:visible;display:inline;overflow:visible;enable-background:accumulate"
       id="rect3353"
       width="417.67969"
       height="9.4541368"
       x="163.2074"
       y="573.99902"
       inkscape:export-filename="/home/waldgeist/data/homepage/pics/physik/mechanik/drehmoment-und-gleichgewicht/gewichtsverteilung-aufgabe.png"
       inkscape:export-xdpi="150"
       inkscape:export-ydpi="150" />
    <rect
       ry="5.5413666"
       y="-537.55194"
       x="542.2005"
       height="11.082733"
       width="34.323154"
       id="rect4376-5"
       style="fill:#000000;fill-opacity:1;fill-rule:nonzero;stroke:#000000;stroke-width:0.39032969;stroke-linecap:round;stroke-linejoin:round;stroke-miterlimit:4;stroke-opacity:1;stroke-dasharray:none;stroke-dashoffset:0"
       transform="matrix(0.00817647,0.99996657,-0.99998946,0.00459026,0,0)"
       rx="7.2245369"
       inkscape:export-filename="/home/waldgeist/data/homepage/pics/physik/mechanik/drehmoment-und-gleichgewicht/gewichtsverteilung-aufgabe.png"
       inkscape:export-xdpi="150"
       inkscape:export-ydpi="150" />
    <rect
       rx="6.8350806"
       transform="matrix(0.50904453,0.86074018,-0.86422844,0.5030996,0,0)"
       style="fill:#000000;fill-opacity:1;fill-rule:nonzero;stroke:none"
       id="rect4378-3"
       width="32.472881"
       height="13.43334"
       x="714.34967"
       y="-190.54475"
       ry="6.71667"
       inkscape:export-filename="/home/waldgeist/data/homepage/pics/physik/mechanik/drehmoment-und-gleichgewicht/gewichtsverteilung-aufgabe.png"
       inkscape:export-xdpi="150"
       inkscape:export-ydpi="150" />
    <rect
       ry="6.4435754"
       y="-712.66809"
       x="211.86096"
       height="12.887151"
       width="38.045578"
       id="rect4380-3"
       style="fill:#000000;fill-opacity:1;fill-rule:nonzero;stroke:#000000;stroke-width:0.39035663;stroke-linecap:round;stroke-linejoin:round;stroke-miterlimit:4;stroke-opacity:1;stroke-dasharray:none;stroke-dashoffset:0"
       transform="matrix(-0.48699536,0.87340456,-0.86499979,-0.50177222,0,0)"
       rx="8.0080538"
       inkscape:export-filename="/home/waldgeist/data/homepage/pics/physik/mechanik/drehmoment-und-gleichgewicht/gewichtsverteilung-aufgabe.png"
       inkscape:export-xdpi="150"
       inkscape:export-ydpi="150" />
    <rect
       rx="6.8350806"
       transform="matrix(-0.49090059,0.87121559,-0.86781125,-0.49689398,0,0)"
       style="fill:#000000;fill-opacity:1;fill-rule:nonzero;stroke:none"
       id="rect4382-9"
       width="32.472881"
       height="13.43334"
       x="196.87428"
       y="-713.87329"
       ry="6.71667"
       inkscape:export-filename="/home/waldgeist/data/homepage/pics/physik/mechanik/drehmoment-und-gleichgewicht/gewichtsverteilung-aufgabe.png"
       inkscape:export-xdpi="150"
       inkscape:export-ydpi="150" />
    <rect
       rx="9.4917202"
       transform="matrix(0.24850747,-0.96862998,0.96683108,0.25541666,0,0)"
       style="fill:#000000;fill-opacity:1;fill-rule:nonzero;stroke:#ffffff;stroke-width:0.60200614;stroke-linecap:round;stroke-linejoin:round;stroke-miterlimit:4;stroke-opacity:1;stroke-dasharray:none;stroke-dashoffset:0"
       id="rect23375-0"
       width="45.094349"
       height="18.98344"
       x="-380.19077"
       y="623.36853"
       ry="9.4917202"
       inkscape:transform-center-x="-3.5021884"
       inkscape:transform-center-y="-16.49962"
       inkscape:export-filename="/home/waldgeist/data/homepage/pics/physik/mechanik/drehmoment-und-gleichgewicht/gewichtsverteilung-aufgabe.png"
       inkscape:export-xdpi="150"
       inkscape:export-ydpi="150" />
    <path
       sodipodi:type="arc"
       style="fill:#000000;stroke:#000000;stroke-width:1.19111681;stroke-linecap:round;stroke-linejoin:round;stroke-miterlimit:4;stroke-opacity:1;stroke-dasharray:none;stroke-dashoffset:0"
       id="path69078-0"
       sodipodi:cx="219.20311"
       sodipodi:cy="156.86195"
       sodipodi:rx="6.0609155"
       sodipodi:ry="6.0609155"
       d="m 225.26403,156.86195 a 6.0609155,6.0609155 0 1 1 -12.12184,0 6.0609155,6.0609155 0 1 1 12.12184,0 z"
       transform="matrix(1.3137823,0,0,1.3137823,242.83092,271.07172)"
       inkscape:export-filename="/home/waldgeist/data/homepage/pics/physik/mechanik/drehmoment-und-gleichgewicht/gewichtsverteilung-aufgabe.png"
       inkscape:export-xdpi="150"
       inkscape:export-ydpi="150" />
    <rect
       ry="5.5413747"
       y="-253.48129"
       x="538.54712"
       height="11.082749"
       width="36.660301"
       id="rect4376"
       style="fill:#000000;fill-opacity:1;fill-rule:nonzero;stroke:#000000;stroke-width:0.39032918;stroke-linecap:round;stroke-linejoin:round;stroke-miterlimit:4;stroke-opacity:1;stroke-dasharray:none;stroke-dashoffset:0"
       transform="matrix(0.00765521,0.9999707,-0.99998798,0.00490285,0,0)"
       rx="7.7164731"
       inkscape:export-filename="/home/waldgeist/data/homepage/pics/physik/mechanik/drehmoment-und-gleichgewicht/gewichtsverteilung-aufgabe.png"
       inkscape:export-xdpi="150"
       inkscape:export-ydpi="150" />
    <rect
       rx="6.8350806"
       transform="matrix(0.50904453,0.86074018,-0.86422844,0.5030996,0,0)"
       style="fill:#000000;fill-opacity:1;fill-rule:nonzero;stroke:none"
       id="rect4378"
       width="32.472881"
       height="13.43334"
       x="571.19995"
       y="54.192852"
       ry="6.71667"
       inkscape:export-filename="/home/waldgeist/data/homepage/pics/physik/mechanik/drehmoment-und-gleichgewicht/gewichtsverteilung-aufgabe.png"
       inkscape:export-xdpi="150"
       inkscape:export-ydpi="150" />
    <rect
       ry="6.4435754"
       y="-464.21173"
       x="354.49936"
       height="12.887151"
       width="38.045578"
       id="rect4380"
       style="fill:#000000;fill-opacity:1;fill-rule:nonzero;stroke:#000000;stroke-width:0.39035663;stroke-linecap:round;stroke-linejoin:round;stroke-miterlimit:4;stroke-opacity:1;stroke-dasharray:none;stroke-dashoffset:0"
       transform="matrix(-0.48699536,0.87340456,-0.86499979,-0.50177222,0,0)"
       rx="8.0080538"
       inkscape:export-filename="/home/waldgeist/data/homepage/pics/physik/mechanik/drehmoment-und-gleichgewicht/gewichtsverteilung-aufgabe.png"
       inkscape:export-xdpi="150"
       inkscape:export-ydpi="150" />
    <rect
       rx="6.8350806"
       transform="matrix(-0.49090059,0.87121559,-0.86781125,-0.49689398,0,0)"
       style="fill:#000000;fill-opacity:1;fill-rule:nonzero;stroke:none"
       id="rect4382"
       width="32.472881"
       height="13.43334"
       x="338.10791"
       y="-466.06903"
       ry="6.71667"
       inkscape:export-filename="/home/waldgeist/data/homepage/pics/physik/mechanik/drehmoment-und-gleichgewicht/gewichtsverteilung-aufgabe.png"
       inkscape:export-xdpi="150"
       inkscape:export-ydpi="150" />
    <rect
       inkscape:transform-center-y="-16.49962"
       inkscape:transform-center-x="-3.5021884"
       ry="9.4917202"
       y="346.99487"
       x="-453.06732"
       height="18.98344"
       width="45.094349"
       id="rect4384"
       style="fill:#000000;fill-opacity:1;fill-rule:nonzero;stroke:#ffffff;stroke-width:0.60200614;stroke-linecap:round;stroke-linejoin:round;stroke-miterlimit:4;stroke-opacity:1;stroke-dasharray:none;stroke-dashoffset:0"
       transform="matrix(0.24850747,-0.96862998,0.96683108,0.25541666,0,0)"
       rx="9.4917202"
       inkscape:export-filename="/home/waldgeist/data/homepage/pics/physik/mechanik/drehmoment-und-gleichgewicht/gewichtsverteilung-aufgabe.png"
       inkscape:export-xdpi="150"
       inkscape:export-ydpi="150" />
    <path
       transform="matrix(1.3137823,0,0,1.3137823,-42.486054,271.07172)"
       d="m 225.26403,156.86195 a 6.0609155,6.0609155 0 1 1 -12.12184,0 6.0609155,6.0609155 0 1 1 12.12184,0 z"
       sodipodi:ry="6.0609155"
       sodipodi:rx="6.0609155"
       sodipodi:cy="156.86195"
       sodipodi:cx="219.20311"
       id="path4388"
       style="fill:#000000;stroke:#000000;stroke-width:1.19111681;stroke-linecap:round;stroke-linejoin:round;stroke-miterlimit:4;stroke-opacity:1;stroke-dasharray:none;stroke-dashoffset:0"
       sodipodi:type="arc"
       inkscape:export-filename="/home/waldgeist/data/homepage/pics/physik/mechanik/drehmoment-und-gleichgewicht/gewichtsverteilung-aufgabe.png"
       inkscape:export-xdpi="150"
       inkscape:export-ydpi="150" />
    <rect
       style="fill:#a05a2c;fill-opacity:1;stroke:#000000;stroke-width:0.67965227;stroke-linecap:round;stroke-linejoin:round;stroke-miterlimit:4;stroke-opacity:1;stroke-dasharray:none;stroke-dashoffset:0"
       id="rect934022"
       width="243.42535"
       height="5.0691333"
       x="258.33932"
       y="523.67554"
       inkscape:export-filename="/home/waldgeist/data/homepage/pics/physik/mechanik/drehmoment-und-gleichgewicht/gewichtsverteilung-aufgabe.png"
       inkscape:export-xdpi="150"
       inkscape:export-ydpi="150" />
    <rect
       inkscape:transform-center-y="20.132479"
       inkscape:transform-center-x="-11.757254"
       rx="5.230299"
       transform="matrix(-0.49085505,-0.87124125,0.86902299,-0.49477171,0,0)"
       style="fill:#000000;fill-opacity:1;fill-rule:nonzero;stroke:#ffffff;stroke-width:0.45007911;stroke-linecap:round;stroke-linejoin:round;stroke-miterlimit:4;stroke-opacity:1;stroke-dasharray:none;stroke-dashoffset:0"
       id="rect4386"
       width="53.230526"
       height="8.9890175"
       x="-595.94067"
       y="-35.946484"
       ry="4.4945087"
       inkscape:export-filename="/home/waldgeist/data/homepage/pics/physik/mechanik/drehmoment-und-gleichgewicht/gewichtsverteilung-aufgabe.png"
       inkscape:export-xdpi="150"
       inkscape:export-ydpi="150" />
    <rect
       ry="4.4945087"
       y="715.72559"
       x="-85.283661"
       height="8.9890175"
       width="53.230526"
       id="rect121566"
       style="fill:#000000;fill-opacity:1;fill-rule:nonzero;stroke:#ffffff;stroke-width:0.45007911;stroke-linecap:round;stroke-linejoin:round;stroke-miterlimit:4;stroke-opacity:1;stroke-dasharray:none;stroke-dashoffset:0"
       transform="matrix(0.6483153,-0.76137197,0.76428245,0.64488164,0,0)"
       rx="5.230299"
       inkscape:transform-center-x="14.838043"
       inkscape:transform-center-y="17.982847"
       inkscape:export-filename="/home/waldgeist/data/homepage/pics/physik/mechanik/drehmoment-und-gleichgewicht/gewichtsverteilung-aufgabe.png"
       inkscape:export-xdpi="150"
       inkscape:export-ydpi="150" />
    <g
       id="g20867"
       transform="matrix(0.17084303,0,0,0.17084303,343.61773,322.32296)"
       inkscape:export-filename="/home/waldgeist/data/homepage/pics/physik/mechanik/drehmoment-und-gleichgewicht/gewichtsverteilung-aufgabe.png"
       inkscape:export-xdpi="150"
       inkscape:export-ydpi="150">
      <g
         transform="matrix(-3.3045326,0,0,3.3045326,1386.4069,-1237.6004)"
         style="fill:#808080;stroke:#333333;stroke-width:1.77130234"
         id="g4469">
        <g
           id="g3674"
           transform="matrix(1.1072098,0,0,1.1072098,-47.314168,-66.970012)"
           style="fill:#808080;stroke:#333333;stroke-width:1.77130234">
          <path
             style="fill:#808080;stroke:#333333;stroke-width:1.77130234px;stroke-linecap:butt;stroke-linejoin:miter;stroke-opacity:1"
             d="m 446.39953,654.35951 c 2.82525,0 3.3341,0.68864 4.31476,2.16448 0.98066,1.47583 1.14157,4.0004 0,5.89592 -1.14157,1.89553 -5.54511,2.26716 -6.5625,3.95648 -1.01739,1.68931 -0.47135,3.4566 0,4.49952 0.47135,1.04291 2.89893,-0.67792 1.74107,1.62913 -1.15786,2.30705 -13.66357,2.30705 -14.82143,0 -1.15786,-2.30705 1.26972,-0.58622 1.74107,-1.62913 0.47135,-1.04292 1.01739,-2.81021 0,-4.49952 -1.01739,-1.68932 -5.42093,-2.06095 -6.5625,-3.95648 -1.14157,-1.89552 -0.98066,-4.42009 0,-5.89592 0.98066,-1.47584 1.55659,-2.16448 4.31476,-2.16448 2.75817,0 13.00951,0 15.83477,0 z"
             id="path3672"
             inkscape:connector-curvature="0"
             sodipodi:nodetypes="zzzzzzzzzzzzz" />
        </g>
        <path
           style="fill:#808080;fill-opacity:1;stroke:#333333;stroke-width:1.77130234;stroke-linecap:round;stroke-linejoin:round;stroke-miterlimit:4;stroke-opacity:1;stroke-dasharray:none;stroke-dashoffset:0"
           d="m 420.30594,675.55814 35.74323,0 c 2.37257,0 4.28261,1.50573 4.28261,3.37608 l 0,48.56335 c 0,1.87034 -1.91004,3.37606 -4.28261,3.37606 l -35.74323,0 c -2.37256,0 -4.2826,-1.50572 -4.2826,-3.37606 l 0,-48.56335 c 0,-1.87035 1.91004,-3.37608 4.2826,-3.37608 z"
           id="rect4466"
           inkscape:connector-curvature="0" />
      </g>
      <path
         transform="translate(-388.14105,679.20794)"
         d="m 301.42857,350.93362 c 0,6.31183 -5.11674,11.42858 -11.42857,11.42858 -6.31183,0 -11.42857,-5.11675 -11.42857,-11.42858 0,-6.31182 5.11674,-11.42857 11.42857,-11.42857 6.31183,0 11.42857,5.11675 11.42857,11.42857 z"
         sodipodi:ry="11.428572"
         sodipodi:rx="11.428572"
         sodipodi:cy="350.93362"
         sodipodi:cx="290"
         id="path4019-3"
         style="fill:#ffffff;fill-opacity:1;fill-rule:nonzero;stroke:none;filter:url(#filter4801-5)"
         sodipodi:type="arc" />
    </g>
    <path
       style="color:#000000;fill:none;stroke:#d40000;stroke-width:3;stroke-linecap:round;stroke-linejoin:round;stroke-miterlimit:4;stroke-opacity:1;stroke-dasharray:none;stroke-dashoffset:0;marker:none;marker-end:url(#Arrow2Send);visibility:visible;display:inline;overflow:visible;enable-background:accumulate"
       d="m 333.08534,508.49052 0,43.12629"
       id="path7335"
       inkscape:connector-curvature="0"
       inkscape:export-filename="/home/waldgeist/data/homepage/pics/physik/mechanik/drehmoment-und-gleichgewicht/gewichtsverteilung-aufgabe.png"
       inkscape:export-xdpi="150"
       inkscape:export-ydpi="150" />
    <g
       style="fill:#d40000;display:inline"
       id="g9359"
       ns0:preamble=""
       ns0:text="$\\vec{F}_{\\mathrm{G}}$\n"
       transform="matrix(1.421691,0,0,1.421691,7.708165,378.39137)"
       inkscape:export-filename="/home/waldgeist/data/homepage/pics/physik/mechanik/drehmoment-und-gleichgewicht/gewichtsverteilung-aufgabe.png"
       inkscape:export-xdpi="150"
       inkscape:export-ydpi="150">
      <defs
         id="defs9361">
        <g
           id="g9363">
          <symbol
             id="textext-139b12d2-0"
             overflow="visible"
             style="overflow:visible">
            <path
               id="path9366"
               d=""
               style="stroke:none"
               inkscape:connector-curvature="0" />
          </symbol>
          <symbol
             id="textext-139b12d2-1"
             overflow="visible"
             style="overflow:visible">
            <path
               id="path9369"
               d="m 5.359375,-5.9375 c -0.140625,0.140625 -0.46875,0.421875 -0.46875,0.59375 0,0.09375 0.09375,0.203125 0.1875,0.203125 0.09375,0 0.140625,-0.078125 0.203125,-0.140625 C 5.390625,-5.421875 5.625,-5.703125 6.0625,-5.921875 6.125,-5.96875 6.234375,-6.015625 6.234375,-6.125 6.234375,-6.234375 6.15625,-6.28125 6.09375,-6.328125 5.875,-6.484375 5.765625,-6.65625 5.6875,-6.890625 5.65625,-6.984375 5.625,-7.125 5.484375,-7.125 c -0.140625,0 -0.203125,0.140625 -0.203125,0.21875 0,0.046875 0.078125,0.359375 0.234375,0.578125 l -3.359375,0 c -0.15625,0 -0.34375,0 -0.34375,0.203125 0,0.1875 0.1875,0.1875 0.34375,0.1875 z m 0,0"
               style="stroke:none"
               inkscape:connector-curvature="0" />
          </symbol>
          <symbol
             id="textext-139b12d2-2"
             overflow="visible"
             style="overflow:visible">
            <path
               id="path9372"
               d="m 3.015625,-3.234375 0.96875,0 c 0.75,0 0.828125,0.15625 0.828125,0.4375 0,0.078125 0,0.1875 -0.0625,0.5 C 4.71875,-2.25 4.71875,-2.21875 4.71875,-2.1875 c 0,0.078125 0.0625,0.109375 0.109375,0.109375 0.109375,0 0.109375,-0.03125 0.15625,-0.203125 L 5.53125,-4.453125 C 5.5625,-4.5625 5.5625,-4.578125 5.5625,-4.609375 5.5625,-4.625 5.546875,-4.71875 5.4375,-4.71875 5.34375,-4.71875 5.328125,-4.671875 5.296875,-4.5 5.078125,-3.734375 4.859375,-3.546875 4,-3.546875 l -0.90625,0 0.640625,-2.53125 C 3.828125,-6.4375 3.84375,-6.46875 4.28125,-6.46875 l 1.3125,0 c 1.21875,0 1.453125,0.328125 1.453125,1.09375 0,0.234375 0,0.265625 -0.03125,0.546875 C 7,-4.703125 7,-4.6875 7,-4.65625 c 0,0.046875 0.03125,0.125 0.125,0.125 0.109375,0 0.109375,-0.0625 0.125,-0.25 L 7.453125,-6.515625 C 7.484375,-6.78125 7.4375,-6.78125 7.1875,-6.78125 l -4.890625,0 c -0.1875,0 -0.296875,0 -0.296875,0.203125 0,0.109375 0.09375,0.109375 0.28125,0.109375 0.375,0 0.65625,0 0.65625,0.171875 0,0.046875 0,0.0625 -0.0625,0.25 L 1.5625,-0.78125 c -0.09375,0.390625 -0.109375,0.46875 -0.90625,0.46875 -0.171875,0 -0.28125,0 -0.28125,0.1875 C 0.375,0 0.5,0 0.53125,0 0.8125,0 1.5625,-0.03125 1.84375,-0.03125 2.171875,-0.03125 3,0 3.328125,0 3.421875,0 3.53125,0 3.53125,-0.1875 3.53125,-0.265625 3.484375,-0.296875 3.484375,-0.296875 3.453125,-0.3125 3.421875,-0.3125 3.203125,-0.3125 c -0.21875,0 -0.265625,0 -0.515625,-0.015625 -0.296875,-0.03125 -0.328125,-0.078125 -0.328125,-0.203125 0,-0.015625 0,-0.078125 0.046875,-0.21875 z m 0,0"
               style="stroke:none"
               inkscape:connector-curvature="0" />
          </symbol>
          <symbol
             id="textext-139b12d2-3"
             overflow="visible"
             style="overflow:visible">
            <path
               id="path9375"
               d=""
               style="stroke:none"
               inkscape:connector-curvature="0" />
          </symbol>
          <symbol
             id="textext-139b12d2-4"
             overflow="visible"
             style="overflow:visible">
            <path
               id="path9378"
               d="m 5.1875,-1.359375 c 0,-0.3125 0.078125,-0.3125 0.546875,-0.3125 l 0,-0.25 c -0.0625,0 -0.5625,0.03125 -0.90625,0.03125 -0.375,0 -0.890625,0 -1.265625,-0.03125 l 0,0.25 0.265625,0 c 0.703125,0 0.703125,0.09375 0.703125,0.3125 l 0,0.453125 c 0,0.15625 0,0.421875 -0.40625,0.625 -0.328125,0.171875 -0.71875,0.171875 -0.8125,0.171875 -0.796875,0 -2.078125,-0.453125 -2.078125,-2.28125 0,-1.84375 1.328125,-2.25 2.015625,-2.25 0.671875,0 1.515625,0.453125 1.6875,1.65625 0.015625,0.078125 0.078125,0.078125 0.125,0.078125 0.125,0 0.125,-0.046875 0.125,-0.1875 l 0,-1.625 c 0,-0.125 0,-0.1875 -0.09375,-0.1875 -0.03125,0 -0.0625,0 -0.125,0.09375 l -0.359375,0.53125 c -0.34375,-0.359375 -0.84375,-0.625 -1.453125,-0.625 -1.453125,0 -2.671875,1.125 -2.671875,2.515625 0,1.390625 1.1875,2.53125 2.6875,2.53125 0.390625,0 1.15625,-0.078125 1.484375,-0.5625 C 4.78125,-0.234375 5.03125,0 5.109375,0 5.1875,0 5.1875,-0.078125 5.1875,-0.1875 z m 0,0"
               style="stroke:none"
               inkscape:connector-curvature="0" />
          </symbol>
        </g>
      </defs>
      <g
         id="textext-139b12d2-5"
         style="fill:#d40000">
        <g
           id="g9381"
           style="fill:#d40000;fill-opacity:1">
          <use
             id="use9383"
             y="132.24699"
             x="224.901"
             xlink:href="#textext-139b12d2-1"
             width="744.09448"
             height="1052.3622"
             style="fill:#d40000" />
        </g>
        <g
           id="g9385"
           style="fill:#d40000;fill-opacity:1">
          <use
             id="use9387"
             y="134.765"
             x="223.43201"
             xlink:href="#textext-139b12d2-2"
             width="744.09448"
             height="1052.3622"
             style="fill:#d40000" />
        </g>
        <g
           id="g9389"
           style="fill:#d40000;fill-opacity:1">
          <use
             id="use9391"
             y="136.259"
             x="229.839"
             xlink:href="#textext-139b12d2-4"
             width="744.09448"
             height="1052.3622"
             style="fill:#d40000" />
        </g>
      </g>
    </g>
    <path
       inkscape:export-ydpi="150"
       inkscape:export-xdpi="150"
       inkscape:export-filename="/home/waldgeist/data/homepage/pics/physik/mechanik/drehmoment-und-gleichgewicht/gewichtsverteilung-aufgabe.png"
       inkscape:connector-curvature="0"
       id="path10293"
       d="m 264.30809,462.88932 65.88151,0"
       style="color:#000000;fill:none;stroke:#008000;stroke-width:3;stroke-linecap:round;stroke-linejoin:round;stroke-miterlimit:4;stroke-opacity:1;stroke-dasharray:none;stroke-dashoffset:0;marker:none;marker-end:url(#Arrow2Send);visibility:visible;display:inline;overflow:visible;enable-background:accumulate" />
    <path
       style="color:#000000;fill:none;stroke:#008000;stroke-width:3;stroke-linecap:round;stroke-linejoin:round;stroke-miterlimit:4;stroke-opacity:1;stroke-dasharray:none;stroke-dashoffset:0;marker:none;marker-end:url(#Arrow2Send);visibility:visible;display:inline;overflow:visible;enable-background:accumulate"
       d="m 498.2847,462.88932 -156.63983,0"
       id="path10299"
       inkscape:connector-curvature="0"
       inkscape:export-filename="/home/waldgeist/data/homepage/pics/physik/mechanik/drehmoment-und-gleichgewicht/gewichtsverteilung-aufgabe.png"
       inkscape:export-xdpi="150"
       inkscape:export-ydpi="150" />
    <g
       ns0:text="$\\vec{F}_{\\mathrm{1}}$\n"
       ns0:preamble=""
       transform="matrix(2.0911382,0,0,2.0911382,-209.93176,155.83404)"
       style="fill:#d40000;display:inline"
       id="g13725">
      <defs
         id="defs13727">
        <g
           id="g13729">
          <symbol
             style="overflow:visible"
             overflow="visible"
             id="textext-c5d0f3f3-0">
            <path
               inkscape:connector-curvature="0"
               style="stroke:none"
               d=""
               id="path13732" />
          </symbol>
          <symbol
             style="overflow:visible"
             overflow="visible"
             id="textext-c5d0f3f3-1">
            <path
               inkscape:connector-curvature="0"
               style="stroke:none"
               d="m 5.359375,-5.9375 c -0.140625,0.140625 -0.46875,0.421875 -0.46875,0.59375 0,0.09375 0.09375,0.203125 0.1875,0.203125 0.09375,0 0.140625,-0.078125 0.203125,-0.140625 C 5.390625,-5.421875 5.625,-5.703125 6.0625,-5.921875 6.125,-5.96875 6.234375,-6.015625 6.234375,-6.125 6.234375,-6.234375 6.15625,-6.28125 6.09375,-6.328125 5.875,-6.484375 5.765625,-6.65625 5.6875,-6.890625 5.65625,-6.984375 5.625,-7.125 5.484375,-7.125 c -0.140625,0 -0.203125,0.140625 -0.203125,0.21875 0,0.046875 0.078125,0.359375 0.234375,0.578125 l -3.359375,0 c -0.15625,0 -0.34375,0 -0.34375,0.203125 0,0.1875 0.1875,0.1875 0.34375,0.1875 z m 0,0"
               id="path13735" />
          </symbol>
          <symbol
             style="overflow:visible"
             overflow="visible"
             id="textext-c5d0f3f3-2">
            <path
               inkscape:connector-curvature="0"
               style="stroke:none"
               d="m 3.015625,-3.234375 0.96875,0 c 0.75,0 0.828125,0.15625 0.828125,0.4375 0,0.078125 0,0.1875 -0.0625,0.5 C 4.71875,-2.25 4.71875,-2.21875 4.71875,-2.1875 c 0,0.078125 0.0625,0.109375 0.109375,0.109375 0.109375,0 0.109375,-0.03125 0.15625,-0.203125 L 5.53125,-4.453125 C 5.5625,-4.5625 5.5625,-4.578125 5.5625,-4.609375 5.5625,-4.625 5.546875,-4.71875 5.4375,-4.71875 5.34375,-4.71875 5.328125,-4.671875 5.296875,-4.5 5.078125,-3.734375 4.859375,-3.546875 4,-3.546875 l -0.90625,0 0.640625,-2.53125 C 3.828125,-6.4375 3.84375,-6.46875 4.28125,-6.46875 l 1.3125,0 c 1.21875,0 1.453125,0.328125 1.453125,1.09375 0,0.234375 0,0.265625 -0.03125,0.546875 C 7,-4.703125 7,-4.6875 7,-4.65625 c 0,0.046875 0.03125,0.125 0.125,0.125 0.109375,0 0.109375,-0.0625 0.125,-0.25 L 7.453125,-6.515625 C 7.484375,-6.78125 7.4375,-6.78125 7.1875,-6.78125 l -4.890625,0 c -0.1875,0 -0.296875,0 -0.296875,0.203125 0,0.109375 0.09375,0.109375 0.28125,0.109375 0.375,0 0.65625,0 0.65625,0.171875 0,0.046875 0,0.0625 -0.0625,0.25 L 1.5625,-0.78125 c -0.09375,0.390625 -0.109375,0.46875 -0.90625,0.46875 -0.171875,0 -0.28125,0 -0.28125,0.1875 C 0.375,0 0.5,0 0.53125,0 0.8125,0 1.5625,-0.03125 1.84375,-0.03125 2.171875,-0.03125 3,0 3.328125,0 3.421875,0 3.53125,0 3.53125,-0.1875 3.53125,-0.265625 3.484375,-0.296875 3.484375,-0.296875 3.453125,-0.3125 3.421875,-0.3125 3.203125,-0.3125 c -0.21875,0 -0.265625,0 -0.515625,-0.015625 -0.296875,-0.03125 -0.328125,-0.078125 -0.328125,-0.203125 0,-0.015625 0,-0.078125 0.046875,-0.21875 z m 0,0"
               id="path13738" />
          </symbol>
          <symbol
             style="overflow:visible"
             overflow="visible"
             id="textext-c5d0f3f3-3">
            <path
               inkscape:connector-curvature="0"
               style="stroke:none"
               d=""
               id="path13741" />
          </symbol>
          <symbol
             style="overflow:visible"
             overflow="visible"
             id="textext-c5d0f3f3-4">
            <path
               inkscape:connector-curvature="0"
               style="stroke:none"
               d="m 2.328125,-4.4375 c 0,-0.1875 0,-0.1875 -0.203125,-0.1875 -0.453125,0.4375 -1.078125,0.4375 -1.359375,0.4375 l 0,0.25 c 0.15625,0 0.625,0 1,-0.1875 l 0,3.546875 c 0,0.234375 0,0.328125 -0.6875,0.328125 l -0.265625,0 0,0.25 c 0.125,0 0.984375,-0.03125 1.234375,-0.03125 0.21875,0 1.09375,0.03125 1.25,0.03125 l 0,-0.25 -0.265625,0 c -0.703125,0 -0.703125,-0.09375 -0.703125,-0.328125 z m 0,0"
               id="path13744" />
          </symbol>
        </g>
      </defs>
      <g
         id="textext-c5d0f3f3-5"
         style="fill:#d40000">
        <g
           style="fill:#d40000;fill-opacity:1"
           id="g13747">
          <use
             height="1052.3622"
             width="744.09448"
             xlink:href="#textext-c5d0f3f3-1"
             x="224.901"
             y="132.24699"
             id="use13749"
             style="fill:#d40000" />
        </g>
        <g
           style="fill:#d40000;fill-opacity:1"
           id="g13751">
          <use
             height="1052.3622"
             width="744.09448"
             xlink:href="#textext-c5d0f3f3-2"
             x="223.43201"
             y="134.765"
             id="use13753"
             style="fill:#d40000" />
        </g>
        <g
           style="fill:#d40000;fill-opacity:1"
           id="g13755">
          <use
             height="1052.3622"
             width="744.09448"
             xlink:href="#textext-c5d0f3f3-4"
             x="229.839"
             y="136.259"
             id="use13757"
             style="fill:#d40000" />
        </g>
      </g>
    </g>
    <g
       id="g15089"
       style="fill:#d40000;display:inline"
       transform="matrix(2.0911382,0,0,2.0911382,-179.27884,155.83404)"
       ns0:preamble=""
       ns0:text="$\\vec{F}_{\\mathrm{2}}$\n">
      <defs
         id="defs15091">
        <g
           id="g15093">
          <symbol
             style="overflow:visible"
             id="textext-a6827e0b-0"
             overflow="visible">
            <path
               inkscape:connector-curvature="0"
               id="path15096"
               d=""
               style="stroke:none" />
          </symbol>
          <symbol
             style="overflow:visible"
             id="textext-a6827e0b-1"
             overflow="visible">
            <path
               inkscape:connector-curvature="0"
               id="path15099"
               d="m 5.359375,-5.9375 c -0.140625,0.140625 -0.46875,0.421875 -0.46875,0.59375 0,0.09375 0.09375,0.203125 0.1875,0.203125 0.09375,0 0.140625,-0.078125 0.203125,-0.140625 C 5.390625,-5.421875 5.625,-5.703125 6.0625,-5.921875 6.125,-5.96875 6.234375,-6.015625 6.234375,-6.125 6.234375,-6.234375 6.15625,-6.28125 6.09375,-6.328125 5.875,-6.484375 5.765625,-6.65625 5.6875,-6.890625 5.65625,-6.984375 5.625,-7.125 5.484375,-7.125 c -0.140625,0 -0.203125,0.140625 -0.203125,0.21875 0,0.046875 0.078125,0.359375 0.234375,0.578125 l -3.359375,0 c -0.15625,0 -0.34375,0 -0.34375,0.203125 0,0.1875 0.1875,0.1875 0.34375,0.1875 z m 0,0"
               style="stroke:none" />
          </symbol>
          <symbol
             style="overflow:visible"
             id="textext-a6827e0b-2"
             overflow="visible">
            <path
               inkscape:connector-curvature="0"
               id="path15102"
               d="m 3.015625,-3.234375 0.96875,0 c 0.75,0 0.828125,0.15625 0.828125,0.4375 0,0.078125 0,0.1875 -0.0625,0.5 C 4.71875,-2.25 4.71875,-2.21875 4.71875,-2.1875 c 0,0.078125 0.0625,0.109375 0.109375,0.109375 0.109375,0 0.109375,-0.03125 0.15625,-0.203125 L 5.53125,-4.453125 C 5.5625,-4.5625 5.5625,-4.578125 5.5625,-4.609375 5.5625,-4.625 5.546875,-4.71875 5.4375,-4.71875 5.34375,-4.71875 5.328125,-4.671875 5.296875,-4.5 5.078125,-3.734375 4.859375,-3.546875 4,-3.546875 l -0.90625,0 0.640625,-2.53125 C 3.828125,-6.4375 3.84375,-6.46875 4.28125,-6.46875 l 1.3125,0 c 1.21875,0 1.453125,0.328125 1.453125,1.09375 0,0.234375 0,0.265625 -0.03125,0.546875 C 7,-4.703125 7,-4.6875 7,-4.65625 c 0,0.046875 0.03125,0.125 0.125,0.125 0.109375,0 0.109375,-0.0625 0.125,-0.25 L 7.453125,-6.515625 C 7.484375,-6.78125 7.4375,-6.78125 7.1875,-6.78125 l -4.890625,0 c -0.1875,0 -0.296875,0 -0.296875,0.203125 0,0.109375 0.09375,0.109375 0.28125,0.109375 0.375,0 0.65625,0 0.65625,0.171875 0,0.046875 0,0.0625 -0.0625,0.25 L 1.5625,-0.78125 c -0.09375,0.390625 -0.109375,0.46875 -0.90625,0.46875 -0.171875,0 -0.28125,0 -0.28125,0.1875 C 0.375,0 0.5,0 0.53125,0 0.8125,0 1.5625,-0.03125 1.84375,-0.03125 2.171875,-0.03125 3,0 3.328125,0 3.421875,0 3.53125,0 3.53125,-0.1875 3.53125,-0.265625 3.484375,-0.296875 3.484375,-0.296875 3.453125,-0.3125 3.421875,-0.3125 3.203125,-0.3125 c -0.21875,0 -0.265625,0 -0.515625,-0.015625 -0.296875,-0.03125 -0.328125,-0.078125 -0.328125,-0.203125 0,-0.015625 0,-0.078125 0.046875,-0.21875 z m 0,0"
               style="stroke:none" />
          </symbol>
          <symbol
             style="overflow:visible"
             id="textext-a6827e0b-3"
             overflow="visible">
            <path
               inkscape:connector-curvature="0"
               id="path15105"
               d=""
               style="stroke:none" />
          </symbol>
          <symbol
             style="overflow:visible"
             id="textext-a6827e0b-4"
             overflow="visible">
            <path
               inkscape:connector-curvature="0"
               id="path15108"
               d="m 3.515625,-1.265625 -0.234375,0 c -0.015625,0.15625 -0.09375,0.5625 -0.1875,0.625 -0.046875,0.046875 -0.578125,0.046875 -0.6875,0.046875 l -1.28125,0 c 0.734375,-0.640625 0.984375,-0.84375 1.390625,-1.171875 0.515625,-0.40625 1,-0.84375 1,-1.5 0,-0.84375 -0.734375,-1.359375 -1.625,-1.359375 -0.859375,0 -1.453125,0.609375 -1.453125,1.25 0,0.34375 0.296875,0.390625 0.375,0.390625 0.15625,0 0.359375,-0.125 0.359375,-0.375 0,-0.125 -0.046875,-0.375 -0.40625,-0.375 C 0.984375,-4.21875 1.453125,-4.375 1.78125,-4.375 c 0.703125,0 1.0625,0.546875 1.0625,1.109375 0,0.609375 -0.4375,1.078125 -0.65625,1.328125 L 0.515625,-0.265625 C 0.4375,-0.203125 0.4375,-0.1875 0.4375,0 l 2.875,0 z m 0,0"
               style="stroke:none" />
          </symbol>
        </g>
      </defs>
      <g
         id="textext-a6827e0b-5"
         style="fill:#d40000">
        <g
           id="g15111"
           style="fill:#d40000;fill-opacity:1">
          <use
             height="1052.3622"
             width="744.09448"
             id="use15113"
             y="132.24699"
             x="224.901"
             xlink:href="#textext-a6827e0b-1"
             style="fill:#d40000" />
        </g>
        <g
           id="g15115"
           style="fill:#d40000;fill-opacity:1">
          <use
             height="1052.3622"
             width="744.09448"
             id="use15117"
             y="134.765"
             x="223.43201"
             xlink:href="#textext-a6827e0b-2"
             style="fill:#d40000" />
        </g>
        <g
           id="g15119"
           style="fill:#d40000;fill-opacity:1">
          <use
             height="1052.3622"
             width="744.09448"
             id="use15121"
             y="136.259"
             x="229.839"
             xlink:href="#textext-a6827e0b-4"
             style="fill:#d40000" />
        </g>
      </g>
    </g>
  </g>
</svg>
