<svg xmlns:ns0="http://www.iki.fi/pav/software/textext/" xmlns="http://www.w3.org/2000/svg" xmlns:xlink="http://www.w3.org/1999/xlink" width="210mm" height="297mm"><title>Gewichtsverteilung</title><defs><marker orient="auto" id="b" overflow="visible"><path d="M8.719 4.034L-2.207.016 8.719-4.002c-1.746 2.372-1.736 5.618 0 8.036z" transform="matrix(-.3 0 0 -.3 .69 0)" fill-rule="evenodd" stroke-width=".625" stroke-linejoin="round"/></marker><filter id="a" x="-.48" width="1.96" y="-.48" height="1.96" color-interpolation-filters="sRGB"><feGaussianBlur stdDeviation="4.571"/></filter></defs><path style="marker:none" color="#000" fill="#fff" stroke="#fff" stroke-width="3" stroke-linecap="round" stroke-linejoin="round" overflow="visible" enable-background="accumulate" d="M110.812 458.647h522.47v135.067h-522.47z"/><path style="marker:none" color="#000" fill="gray" stroke="#4d4d4d" stroke-linecap="round" stroke-linejoin="round" overflow="visible" enable-background="accumulate" d="M163.207 573.999h417.68v9.454h-417.68z"/><rect ry="5.541" y="-537.552" x="542.201" height="11.083" width="34.323" transform="matrix(.00818 .99997 -.99999 .00459 0 0)" rx="7.225" stroke="#000" stroke-width=".39" stroke-linecap="round" stroke-linejoin="round"/><rect rx="6.835" transform="matrix(.50904 .86074 -.86423 .5031 0 0)" width="32.473" height="13.433" x="714.35" y="-190.545" ry="6.717"/><rect ry="6.444" y="-712.668" x="211.861" height="12.887" width="38.046" transform="matrix(-.487 .8734 -.865 -.50177 0 0)" rx="8.008" stroke="#000" stroke-width=".39" stroke-linecap="round" stroke-linejoin="round"/><rect rx="6.835" transform="matrix(-.4909 .87122 -.86781 -.4969 0 0)" width="32.473" height="13.433" x="196.874" y="-713.873" ry="6.717"/><rect rx="9.492" transform="matrix(.2485 -.96863 .96683 .25542 0 0)" width="45.094" height="18.983" x="-380.191" y="623.369" ry="9.492" stroke="#fff" stroke-width=".602" stroke-linecap="round" stroke-linejoin="round"/><path d="M538.779 477.154a7.963 7.963 0 1 1-15.926 0 7.963 7.963 0 1 1 15.926 0z" stroke="#000" stroke-width="1.56471198" stroke-linecap="round" stroke-linejoin="round"/><rect ry="5.541" y="-253.481" x="538.547" height="11.083" width="36.66" transform="rotate(89.561) skewX(-.158)" rx="7.716" stroke="#000" stroke-width=".39" stroke-linecap="round" stroke-linejoin="round"/><rect rx="6.835" transform="matrix(.50904 .86074 -.86423 .5031 0 0)" width="32.473" height="13.433" x="571.2" y="54.193" ry="6.717"/><rect ry="6.444" y="-464.212" x="354.499" height="12.887" width="38.046" transform="matrix(-.487 .8734 -.865 -.50177 0 0)" rx="8.008" stroke="#000" stroke-width=".39" stroke-linecap="round" stroke-linejoin="round"/><rect rx="6.835" transform="matrix(-.4909 .87122 -.86781 -.4969 0 0)" width="32.473" height="13.433" x="338.108" y="-466.069" ry="6.717"/><rect ry="9.492" y="346.995" x="-453.067" height="18.983" width="45.094" transform="matrix(.2485 -.96863 .96683 .25542 0 0)" rx="9.492" stroke="#fff" stroke-width=".602" stroke-linecap="round" stroke-linejoin="round"/><path d="M253.462 477.154a7.963 7.963 0 1 1-15.926 0 7.963 7.963 0 1 1 15.926 0z" stroke="#000" stroke-width="1.56471198" stroke-linecap="round" stroke-linejoin="round"/><path fill="#a05a2c" stroke="#000" stroke-width=".68" stroke-linecap="round" stroke-linejoin="round" d="M258.339 523.676h243.425v5.069H258.339z"/><rect rx="5.23" transform="matrix(-.49086 -.87124 .86902 -.49477 0 0)" width="53.231" height="8.989" x="-595.941" y="-35.946" ry="4.495" stroke="#fff" stroke-width=".45" stroke-linecap="round" stroke-linejoin="round"/><rect ry="4.495" y="715.726" x="-85.284" height="8.989" width="53.231" transform="matrix(.64832 -.76137 .76428 .64488 0 0)" rx="5.23" stroke="#fff" stroke-width=".45" stroke-linecap="round" stroke-linejoin="round"/><g fill="gray" stroke="#333" stroke-width="1.771"><path d="M328.15 482.108c-1.765 0-2.083.43-2.696 1.353-.613.922-.714 2.5 0 3.685.713 1.185 3.466 1.417 4.102 2.473.636 1.056.294 2.161 0 2.813-.295.652-1.812-.424-1.089 1.018.724 1.442 8.541 1.442 9.265 0 .724-1.442-.794-.366-1.088-1.018-.295-.652-.636-1.757 0-2.813.636-1.056 3.388-1.288 4.102-2.473.713-1.185.613-2.763 0-3.685-.613-.923-.973-1.353-2.697-1.353h-9.898z" stroke-width="1.1070166799999999"/><path d="M343.19 492.278h-20.18c-1.34 0-2.418.85-2.418 1.906v27.417c0 1.056 1.079 1.906 2.418 1.906h20.18c1.339 0 2.417-.85 2.417-1.906v-27.417c0-1.056-1.078-1.906-2.418-1.906z" stroke-linecap="round" stroke-linejoin="round" stroke-width=".9998357599999999"/></g><path transform="matrix(.17084 0 0 .17084 277.307 438.36)" d="M301.429 350.934c0 6.311-5.117 11.428-11.429 11.428s-11.429-5.117-11.429-11.428c0-6.312 5.117-11.429 11.429-11.429s11.429 5.117 11.429 11.429z" fill="#fff" filter="url(#a)"/><path style="marker:none" d="M333.085 508.49v43.127" color="#000" fill="none" stroke="#d40000" stroke-width="3" stroke-linecap="round" stroke-linejoin="round" marker-end="url(#b)" overflow="visible" enable-background="accumulate"/><g ns0:text="$\\vec{F}_{\\mathrm{G}}$\n" transform="translate(7.708 378.391) scale(1.42169)" fill="#d40000"><defs><symbol id="c" overflow="visible"><path d="M5.36-5.938c-.141.141-.47.422-.47.594 0 .094.094.203.188.203s.14-.078.203-.14c.11-.14.344-.422.782-.64.062-.048.171-.095.171-.204 0-.11-.078-.156-.14-.203a1.034 1.034 0 0 1-.407-.563c-.03-.093-.062-.234-.203-.234-.14 0-.203.14-.203.219 0 .047.078.36.235.578h-3.36c-.156 0-.344 0-.344.203 0 .188.188.188.344.188zm0 0"/></symbol><symbol id="d" overflow="visible"><path d="M3.016-3.234h.968c.75 0 .829.156.829.437 0 .078 0 .188-.063.5-.031.047-.031.078-.031.11 0 .078.062.109.11.109.109 0 .109-.031.155-.203l.547-2.172c.032-.11.032-.125.032-.156a.117.117 0 0 0-.125-.11c-.094 0-.11.047-.141.219-.219.766-.438.953-1.297.953h-.906l.64-2.531c.094-.36.11-.39.547-.39h1.313c1.218 0 1.453.327 1.453 1.093 0 .234 0 .266-.031.547C7-4.703 7-4.688 7-4.656c0 .047.031.125.125.125.11 0 .11-.063.125-.25l.203-1.735c.031-.265-.016-.265-.266-.265h-4.89c-.188 0-.297 0-.297.203 0 .11.094.11.281.11.375 0 .656 0 .656.171 0 .047 0 .063-.062.25L1.562-.78c-.093.39-.109.469-.906.469-.172 0-.281 0-.281.187C.375 0 .5 0 .531 0c.281 0 1.031-.031 1.313-.031C2.172-.031 3 0 3.328 0c.094 0 .203 0 .203-.188 0-.078-.047-.109-.047-.109-.03-.016-.062-.016-.28-.016-.22 0-.267 0-.517-.015-.296-.031-.328-.078-.328-.203 0-.016 0-.078.047-.219zm0 0"/></symbol><symbol id="e" overflow="visible"><path d="M5.188-1.36c0-.312.078-.312.546-.312v-.25c-.062 0-.562.031-.906.031-.375 0-.89 0-1.266-.03v.25h.266c.703 0 .703.093.703.312v.453c0 .156 0 .422-.406.625-.328.172-.719.172-.813.172-.796 0-2.078-.454-2.078-2.282 0-1.843 1.329-2.25 2.016-2.25.672 0 1.516.454 1.688 1.657.015.078.078.078.125.078.125 0 .125-.047.125-.188v-1.625c0-.125 0-.187-.094-.187-.032 0-.063 0-.125.093l-.36.532a1.994 1.994 0 0 0-1.453-.625C1.703-4.906.484-3.781.484-2.391.484-1 1.672.141 3.172.141c.39 0 1.156-.078 1.484-.563.125.188.375.422.453.422.079 0 .079-.078.079-.188zm0 0"/></symbol></defs><use y="132.247" x="224.901" xlink:href="#c" width="744.094" height="1052.362"/><use y="134.765" x="223.432" xlink:href="#d" width="744.094" height="1052.362"/><use y="136.259" x="229.839" xlink:href="#e" width="744.094" height="1052.362"/></g><path d="M264.308 462.89h65.882M498.285 462.89h-156.64" style="marker:none" color="#000" fill="none" stroke="green" stroke-width="3" stroke-linecap="round" stroke-linejoin="round" marker-end="url(#b)" overflow="visible" enable-background="accumulate"/><g ns0:text="$\\vec{F}_{\\mathrm{1}}$\n" transform="matrix(2.09114 0 0 2.09114 -209.932 155.834)" fill="#d40000"><defs><symbol overflow="visible" id="f"><path d="M5.36-5.938c-.141.141-.47.422-.47.594 0 .094.094.203.188.203s.14-.078.203-.14c.11-.14.344-.422.782-.64.062-.048.171-.095.171-.204 0-.11-.078-.156-.14-.203a1.034 1.034 0 0 1-.407-.563c-.03-.093-.062-.234-.203-.234-.14 0-.203.14-.203.219 0 .047.078.36.235.578h-3.36c-.156 0-.344 0-.344.203 0 .188.188.188.344.188zm0 0"/></symbol><symbol overflow="visible" id="g"><path d="M3.016-3.234h.968c.75 0 .829.156.829.437 0 .078 0 .188-.063.5-.031.047-.031.078-.031.11 0 .078.062.109.11.109.109 0 .109-.031.155-.203l.547-2.172c.032-.11.032-.125.032-.156a.117.117 0 0 0-.125-.11c-.094 0-.11.047-.141.219-.219.766-.438.953-1.297.953h-.906l.64-2.531c.094-.36.11-.39.547-.39h1.313c1.218 0 1.453.327 1.453 1.093 0 .234 0 .266-.031.547C7-4.703 7-4.688 7-4.656c0 .047.031.125.125.125.11 0 .11-.063.125-.25l.203-1.735c.031-.265-.016-.265-.266-.265h-4.89c-.188 0-.297 0-.297.203 0 .11.094.11.281.11.375 0 .656 0 .656.171 0 .047 0 .063-.062.25L1.562-.78c-.093.39-.109.469-.906.469-.172 0-.281 0-.281.187C.375 0 .5 0 .531 0c.281 0 1.031-.031 1.313-.031C2.172-.031 3 0 3.328 0c.094 0 .203 0 .203-.188 0-.078-.047-.109-.047-.109-.03-.016-.062-.016-.28-.016-.22 0-.267 0-.517-.015-.296-.031-.328-.078-.328-.203 0-.016 0-.078.047-.219zm0 0"/></symbol><symbol overflow="visible" id="h"><path d="M2.328-4.438c0-.187 0-.187-.203-.187-.453.438-1.078.438-1.36.438v.25c.157 0 .626 0 1-.188v3.547c0 .234 0 .328-.687.328H.812V0c.125 0 .985-.031 1.235-.031.219 0 1.094.031 1.25.031v-.25H3.03c-.703 0-.703-.094-.703-.328zm0 0"/></symbol></defs><use height="1052.362" width="744.094" xlink:href="#f" x="224.901" y="132.247"/><use height="1052.362" width="744.094" xlink:href="#g" x="223.432" y="134.765"/><use height="1052.362" width="744.094" xlink:href="#h" x="229.839" y="136.259"/></g><g transform="matrix(2.09114 0 0 2.09114 -179.279 155.834)" ns0:text="$\\vec{F}_{\\mathrm{2}}$\n" fill="#d40000"><defs><symbol id="i" overflow="visible"><path d="M5.36-5.938c-.141.141-.47.422-.47.594 0 .094.094.203.188.203s.14-.078.203-.14c.11-.14.344-.422.782-.64.062-.048.171-.095.171-.204 0-.11-.078-.156-.14-.203a1.034 1.034 0 0 1-.407-.563c-.03-.093-.062-.234-.203-.234-.14 0-.203.14-.203.219 0 .047.078.36.235.578h-3.36c-.156 0-.344 0-.344.203 0 .188.188.188.344.188zm0 0"/></symbol><symbol id="j" overflow="visible"><path d="M3.016-3.234h.968c.75 0 .829.156.829.437 0 .078 0 .188-.063.5-.031.047-.031.078-.031.11 0 .078.062.109.11.109.109 0 .109-.031.155-.203l.547-2.172c.032-.11.032-.125.032-.156a.117.117 0 0 0-.125-.11c-.094 0-.11.047-.141.219-.219.766-.438.953-1.297.953h-.906l.64-2.531c.094-.36.11-.39.547-.39h1.313c1.218 0 1.453.327 1.453 1.093 0 .234 0 .266-.031.547C7-4.703 7-4.688 7-4.656c0 .047.031.125.125.125.11 0 .11-.063.125-.25l.203-1.735c.031-.265-.016-.265-.266-.265h-4.89c-.188 0-.297 0-.297.203 0 .11.094.11.281.11.375 0 .656 0 .656.171 0 .047 0 .063-.062.25L1.562-.78c-.093.39-.109.469-.906.469-.172 0-.281 0-.281.187C.375 0 .5 0 .531 0c.281 0 1.031-.031 1.313-.031C2.172-.031 3 0 3.328 0c.094 0 .203 0 .203-.188 0-.078-.047-.109-.047-.109-.03-.016-.062-.016-.28-.016-.22 0-.267 0-.517-.015-.296-.031-.328-.078-.328-.203 0-.016 0-.078.047-.219zm0 0"/></symbol><symbol id="k" overflow="visible"><path d="M3.516-1.266H3.28c-.015.157-.094.563-.187.625-.047.047-.578.047-.688.047H1.125c.734-.64.984-.844 1.39-1.172.516-.406 1-.843 1-1.5 0-.843-.734-1.359-1.624-1.359-.86 0-1.454.61-1.454 1.25 0 .344.297.39.376.39.156 0 .359-.124.359-.374 0-.125-.047-.375-.406-.375.218-.485.687-.641 1.015-.641.703 0 1.063.547 1.063 1.11 0 .609-.438 1.078-.656 1.328L.516-.266C.437-.203.437-.187.437 0h2.876zm0 0"/></symbol></defs><use height="1052.362" width="744.094" y="132.247" x="224.901" xlink:href="#i"/><use height="1052.362" width="744.094" y="134.765" x="223.432" xlink:href="#j"/><use height="1052.362" width="744.094" y="136.259" x="229.839" xlink:href="#k"/></g></svg>