<svg xmlns="http://www.w3.org/2000/svg" xmlns:xlink="http://www.w3.org/1999/xlink" width="1052.362" height="744.094"><title>Standflaeche und Gleichgewicht</title><defs><marker orient="auto" id="a" overflow="visible"><path d="M2.308 0l-3.46 2v-4l3.46 2z" fill-rule="evenodd" stroke="#000" stroke-width=".4pt"/></marker><symbol overflow="visible" id="b"><path d="M6.438-6.922a.12.12 0 0 0-.125-.11c-.047 0-.047.016-.172.157l-.485.563c-.25-.47-.765-.72-1.422-.72-1.265 0-2.453 1.157-2.453 2.36 0 .797.516 1.266 1.032 1.406l1.062.282c.375.093.922.25.922 1.062 0 .89-.813 1.828-1.797 1.828-.64 0-1.75-.218-1.75-1.453 0-.234.063-.484.063-.531.015-.047.015-.063.015-.078 0-.094-.062-.11-.11-.11a.142.142 0 0 0-.109.047C1.08-2.188.516.094.516.125c0 .047.046.094.109.094.047 0 .063-.016.188-.157L1.296-.5c.422.578 1.11.719 1.687.719 1.36 0 2.532-1.328 2.532-2.563 0-.687-.344-1.031-.485-1.172-.234-.218-.39-.265-1.265-.484-.235-.063-.579-.172-.672-.188a.928.928 0 0 1-.61-.906c0-.812.797-1.656 1.75-1.656.813 0 1.422.438 1.422 1.547 0 .312-.031.5-.031.562 0 0 0 .094.11.094.109 0 .124-.031.156-.203zm0 0"/></symbol></defs><g transform="translate(0 -308.268)"><path fill="#fff" stroke="#fff" stroke-width="2" stroke-linecap="round" stroke-linejoin="round" stroke-dasharray="1.99999997,3.99999994" d="M12.013 463.913h1028.335v374.681H12.013z"/><path transform="skewX(-30.052) scale(1 .86557)" fill="gray" stroke="#333" stroke-width="3.225" stroke-linecap="round" stroke-linejoin="round" d="M574.685 735.244h116.533v166.173H574.685z"/><path transform="skewX(-30) scale(1 .86603)" fill="gray" stroke="#333" stroke-width="3.224" stroke-linecap="round" stroke-linejoin="round" d="M863.888 682.951h116.533v217.994H863.888z"/><path d="M529.95 780.24l-7.537-188.787" fill="none" stroke="#666"/><path d="M526.181 685.847v90.766" fill="none" stroke="#000" stroke-width="2" stroke-linecap="round" stroke-dasharray="1.99999999,3.99999998" marker-end="url(#a)"/><use transform="matrix(2.15768 0 0 2.1562 50.345 401.908)" y="134.765" x="223.432" xlink:href="#b" width="1052.362" height="744.094"/><path d="M638.946 591.453L413.416 780.24" fill="none" stroke="#666"/><path transform="matrix(1.71343 .1144 .11995 -1.6342 214.855 891.26)" d="M173.638 137.742a1.583 1.583 0 1 1-3.166 0 1.583 1.583 0 1 1 3.166 0z" stroke="#000" stroke-width="1.788" stroke-linejoin="round"/><rect width="986.62" height="26.405" x="32.871" y="782.741" ry="4.46" rx="10.209" fill="#333" stroke="#333" stroke-width="2" stroke-linecap="round" stroke-linejoin="round"/><path d="M239.801 780.24l-33.315-143.834" fill="none" stroke="#666"/><path d="M223.144 708.323v66.766" fill="none" stroke="#000" stroke-width="2" stroke-linecap="round" stroke-dasharray="1.99999999,3.99999996" marker-end="url(#a)"/><use height="744.094" width="1052.362" xlink:href="#b" x="223.432" y="134.765" transform="matrix(2.15768 0 0 2.1562 -253.358 426.523)"/><path d="M323.019 636.406l-199.75 143.835" fill="none" stroke="#666"/><path d="M173.638 137.742a1.583 1.583 0 1 1-3.166 0 1.583 1.583 0 1 1 3.166 0z" transform="matrix(1.71343 .1144 .11995 -1.6342 -88.183 913.737)" stroke="#000" stroke-width="1.788" stroke-linejoin="round"/><path transform="matrix(1 0 -.5065 .86224 0 0)" fill="gray" stroke="#333" stroke-width="3.231" stroke-linecap="round" stroke-linejoin="round" d="M1147.579 582.27h116.533v322.631h-116.533z"/><path d="M805.778 780.24l46.88-278.184" fill="none" stroke="#666"/><path d="M829.219 641.148v134.766" fill="none" stroke="#000" stroke-width="2" stroke-linecap="round" stroke-dasharray="1.99999996,3.9999999" marker-end="url(#a)"/><use transform="matrix(2.15768 0 0 2.1562 354.062 357.729)" y="134.765" x="223.432" xlink:href="#b" width="1052.362" height="744.094"/><path d="M969.192 502.056L689.246 780.24" fill="none" stroke="#666"/><path transform="matrix(1.71343 .1144 .11995 -1.6342 517.892 846.562)" d="M173.638 137.742a1.583 1.583 0 1 1-3.166 0 1.583 1.583 0 1 1 3.166 0z" stroke="#000" stroke-width="1.788" stroke-linejoin="round"/></g></svg>