<svg xmlns:ns0="http://www.iki.fi/pav/software/textext/" xmlns="http://www.w3.org/2000/svg" xmlns:xlink="http://www.w3.org/1999/xlink" width="1052.362" height="744.094"><title>Hebelgleichgewichte</title><g transform="translate(0 -308.268)"><path fill="#fff" stroke="#fff" stroke-width="2" stroke-linecap="round" stroke-linejoin="round" stroke-dasharray="2,4" d="M12.013 343.934h1028.335v672.762H12.013z"/><path d="M43.636 680.266h962.332" fill="none" stroke="#000"/><path fill="gray" stroke="#333" stroke-width="3" stroke-linecap="round" stroke-linejoin="round" d="M180.662 658.138h58.8V972.59h-58.8z"/><path opacity=".4" fill="gray" stroke="#333" stroke-width="3" stroke-linecap="round" stroke-linejoin="round" stroke-dasharray="2.99999998,6" d="M192.295 648.361l50.623 29.227L86.616 948.311l-50.623-29.227z"/><g fill="gray" stroke="#333" stroke-width="3.353" stroke-linecap="round" stroke-linejoin="round"><path d="M554.202 703.012h-58.8V388.56h58.8z" stroke-width="3.00019734"/><path opacity=".4" stroke-dasharray="3.35277367,6.70554745" d="M535.201 713.676l-50.922-29.4 157.226-272.323 50.922 29.4z" stroke-width="3.00019734"/></g><g stroke-linejoin="round"><path fill="gray" stroke="#333" stroke-width="3" stroke-linecap="round" d="M868.167 836.813h-58.8V522.361h58.8z"/><path opacity=".4" fill="gray" stroke="#333" stroke-width="3" stroke-linecap="round" stroke-dasharray="2.99999964,5.99999929" d="M785.615 830.449l-50.922-29.4L891.92 528.725l50.922 29.4z"/><path d="M829.077 680.266c-.374-5.352 3.66-9.993 9.011-10.368 5.351-.375 9.993 3.66 10.368 9.011.374 5.351-3.66 9.993-9.011 10.368-5.351.374-9.993-3.66-10.368-9.011z" fill="#fc0" stroke="#000" stroke-width="3.00066048"/></g><g stroke="#000"><path d="M210.062 813.908V680.266" fill="none" stroke-width="2" stroke-linecap="round" stroke-dasharray="2,4"/><path d="M213.957 813.635a3.905 3.905 0 1 1-7.79.545 3.905 3.905 0 0 1 7.79-.545z" stroke-width="2.9998112000000003" stroke-linejoin="round"/></g><g stroke="#000"><path d="M146.455 790.504l63.607-110.238" opacity=".4" fill="none" stroke-width="2" stroke-linecap="round" stroke-dasharray="2,3.99999999"/><path d="M146.75 797.715a3.905 3.905 0 1 1-7.02-3.423 3.905 3.905 0 0 1 7.02 3.423z" opacity=".4" stroke-width="2.9998112000000003" stroke-linejoin="round"/></g><path d="M219.75 679.587a9.713 9.713 0 1 1-19.378 1.357 9.713 9.713 0 1 1 19.379-1.357z" fill="#fc0" stroke="#000" stroke-width="3.00066048" stroke-linejoin="round"/><path d="M203.13 813.21a133.125 133.125 0 0 1-54.788-14.991" opacity=".4" fill="none" stroke="#333" stroke-width="1.9998310800000003" stroke-linecap="round" stroke-linejoin="round" stroke-dasharray=".67605634,1.35211267"/><g ns0:preamble="/home/waldgeist/data/sphinx/test.tex" ns0:text="$S$" transform="translate(-493.124 427.551) scale(3.09898)"><defs><symbol id="a" overflow="visible"><path d="M6.438-6.922a.12.12 0 0 0-.125-.11c-.047 0-.047.016-.172.157l-.485.563c-.25-.47-.765-.72-1.422-.72-1.265 0-2.453 1.157-2.453 2.36 0 .797.516 1.266 1.032 1.406l1.062.282c.375.093.922.25.922 1.062 0 .89-.813 1.828-1.797 1.828-.64 0-1.75-.218-1.75-1.453 0-.234.063-.484.063-.531.015-.047.015-.063.015-.078 0-.094-.062-.11-.11-.11a.142.142 0 0 0-.109.047C1.08-2.188.516.094.516.125c0 .047.046.094.109.094.047 0 .063-.016.188-.157L1.296-.5c.422.578 1.11.719 1.687.719 1.36 0 2.532-1.328 2.532-2.563 0-.687-.344-1.031-.485-1.172-.234-.218-.39-.265-1.265-.484-.235-.063-.579-.172-.672-.188a.928.928 0 0 1-.61-.906c0-.812.797-1.656 1.75-1.656.813 0 1.422.438 1.422 1.547 0 .312-.031.5-.031.562 0 0 0 .094.11.094.109 0 .124-.031.156-.203zm0 0"/></symbol></defs><use y="134.765" x="223.432" xlink:href="#a" width="1052.362" height="744.094"/></g><path d="M524.802 547.302v133.642" fill="none" stroke="#000" stroke-width="2" stroke-linecap="round" stroke-dasharray="2,4"/><path d="M528.697 547.575a3.905 3.905 0 1 1-7.79-.546 3.905 3.905 0 1 1 7.79.546z" stroke="#000" stroke-width="2.9998112000000003" stroke-linejoin="round"/><path d="M588.409 570.027l-63.607 110.239" opacity=".4" fill="none" stroke="#000" stroke-width="2" stroke-linecap="round" stroke-dasharray="2.00000002,4.00000003"/><path d="M515.113 681.622a9.713 9.713 0 1 1 19.378-1.356 9.713 9.713 0 1 1-19.378 1.356z" fill="#fc0" stroke="#000" stroke-width="3.00066048" stroke-linejoin="round"/><path d="M588.113 562.817a3.905 3.905 0 1 1 7.02 3.423 3.905 3.905 0 1 1-7.02-3.423z" opacity=".4" stroke="#000" stroke-width="2.9998112000000003" stroke-linejoin="round"/><use transform="translate(-178.383 117.984) scale(3.09898)" y="134.765" x="223.432" xlink:href="#a" width="1052.362" height="744.094"/><path d="M531.432 547.474a133.125 133.125 0 0 1 55 15.024" opacity=".4" fill="none" stroke="#333" stroke-width="1.9998310800000003" stroke-linecap="round" stroke-linejoin="round" stroke-dasharray=".67605634,1.35211267"/><use transform="translate(135.581 244.927) scale(3.09898)" y="134.765" x="223.432" xlink:href="#a" width="1052.362" height="744.094"/></g></svg>