<svg xmlns="http://www.w3.org/2000/svg" xmlns:xlink="http://www.w3.org/1999/xlink" width="1052.362" height="744.094"><title>Kippen eines Koerpers</title><defs><marker orient="auto" id="a" overflow="visible"><path d="M2.308 0l-3.46 2v-4l3.46 2z" fill-rule="evenodd" stroke="#000" stroke-width=".4pt"/></marker><marker orient="auto" id="c" overflow="visible"><path d="M2.308 0l-3.46 2v-4l3.46 2z" fill-rule="evenodd" stroke="#000" stroke-width=".4pt"/></marker><symbol overflow="visible" id="b"><path d="M6.438-6.922a.12.12 0 0 0-.125-.11c-.047 0-.047.016-.172.157l-.485.563c-.25-.47-.765-.72-1.422-.72-1.265 0-2.453 1.157-2.453 2.36 0 .797.516 1.266 1.032 1.406l1.062.282c.375.093.922.25.922 1.062 0 .89-.813 1.828-1.797 1.828-.64 0-1.75-.218-1.75-1.453 0-.234.063-.484.063-.531.015-.047.015-.063.015-.078 0-.094-.062-.11-.11-.11a.142.142 0 0 0-.109.047C1.08-2.188.516.094.516.125c0 .047.046.094.109.094.047 0 .063-.016.188-.157L1.296-.5c.422.578 1.11.719 1.687.719 1.36 0 2.532-1.328 2.532-2.563 0-.687-.344-1.031-.485-1.172-.234-.218-.39-.265-1.265-.484-.235-.063-.579-.172-.672-.188a.928.928 0 0 1-.61-.906c0-.812.797-1.656 1.75-1.656.813 0 1.422.438 1.422 1.547 0 .312-.031.5-.031.562 0 0 0 .094.11.094.109 0 .124-.031.156-.203zm0 0"/></symbol></defs><g transform="translate(0 -308.268)"><path fill="#fff" stroke="#fff" stroke-linecap="round" stroke-linejoin="round" stroke-dasharray="1.99999999000000006,3.99999999000000006" d="M24.735 467.06H1053.07v404.061H24.735z"/><path fill="gray" stroke="#333" stroke-width="3" stroke-linecap="round" stroke-linejoin="round" d="M66.096 561.453h116.533v218.788H66.096z"/><path d="M182.629 780.24L66.096 561.454" fill="none" stroke="#666"/><path d="M124.362 670.723V773.49" fill="none" stroke="#000" stroke-width="2" stroke-linecap="round" stroke-dasharray="1.99999999,3.99999997" marker-end="url(#a)"/><use height="744.094" width="1052.362" xlink:href="#b" x="223.432" y="134.765" transform="matrix(2.15768 0 0 2.1562 -364.358 369.523)"/><path d="M182.629 561.453L66.096 780.24" fill="none" stroke="#666"/><path transform="matrix(1.71343 .1144 .11995 -1.6342 -186.964 876.137)" d="M173.638 137.742a1.583 1.583 0 1 1-3.166 0 1.583 1.583 0 0 1 3.166 0z" stroke="#000" stroke-width="1.788" stroke-linejoin="round"/><rect width="986.62" height="23.891" x="32.871" y="782.741" ry="4.036" rx="10.209" fill="#333" stroke="#333" stroke-width="2" stroke-linecap="round" stroke-linejoin="round"/><path fill="gray" stroke="#333" stroke-width="3" stroke-linecap="round" stroke-linejoin="round" d="M354.998 540.73l113.498 26.42-49.606 213.09-113.498-26.42z"/><path d="M468.496 567.15L305.393 753.82M418.89 780.24L354.999 540.73" fill="none" stroke="#666"/><path transform="matrix(1.64287 .49991 .48735 -1.56445 37.152 789.962)" d="M173.638 137.742a1.583 1.583 0 1 1-3.166 0 1.583 1.583 0 0 1 3.166 0z" stroke="#000" stroke-width="1.788" stroke-linejoin="round"/><path d="M387.195 660.684l-.23 115.535" fill="none" stroke="#000" stroke-width="2" stroke-linecap="round" stroke-dasharray="2.00000011,4.00000021" marker-end="url(#a)"/><use transform="matrix(2.15768 0 0 2.1562 -102.65 358.753)" height="744.094" width="1052.362" xlink:href="#b" x="223.432" y="134.765"/><rect width="25.966" height="25.966" x="286.016" y="756.774" rx="2.679" ry="2.679" fill="#a05a2c" stroke="#502d16" stroke-width="2" stroke-linecap="round" stroke-linejoin="round"/><path fill="gray" stroke="#333" stroke-width="3" stroke-linecap="round" stroke-linejoin="round" d="M634.887 532.498l100.92 58.266L626.415 780.24l-100.921-58.266z"/><path d="M735.807 590.765l-210.314 131.21M626.413 780.24l8.474-247.742" fill="none" stroke="#666"/><path transform="matrix(1.42667 .9558 .92098 -1.35528 258.327 678.6)" d="M173.638 137.742a1.583 1.583 0 1 1-3.166 0 1.583 1.583 0 0 1 3.166 0z" stroke="#000" stroke-width="1.788" stroke-linejoin="round"/><path d="M402.8 792.978l56.388 104.808" fill="none" stroke="#000" stroke-width="2" stroke-linecap="round" stroke-dasharray="2.00000003,4.00000005" marker-end="url(#a)" transform="rotate(30 771.64 1149.847)"/><rect ry="2.679" rx="2.679" y="754.774" x="556.338" height="25.966" width="25.966" fill="#a05a2c" stroke="#502d16" stroke-width="2" stroke-linecap="round" stroke-linejoin="round"/><use transform="matrix(2.15768 0 0 2.1562 141.055 355.83)" height="744.094" width="1052.362" xlink:href="#b" x="223.432" y="134.765"/><g><path fill="gray" stroke="#333" stroke-width="3" stroke-linecap="round" stroke-linejoin="round" d="M949.4 569.926l58.266 100.92L818.19 780.242 759.923 679.32z"/><path d="M1007.665 670.847l-247.742 8.473M818.19 780.24l131.209-210.314" fill="none" stroke="#666"/><path d="M173.638 137.742a1.583 1.583 0 1 1-3.166 0 1.583 1.583 0 0 1 3.166 0z" transform="matrix(.75763 1.54108 1.47524 -.71322 550.238 508.174)" stroke="#000" stroke-width="1.788" stroke-linejoin="round"/><path d="M402.8 792.978l87.769 50.674" fill="none" stroke="#000" stroke-width="2" stroke-linecap="round" stroke-dasharray="2.00000006,4.00000012" marker-end="url(#a)" transform="rotate(60 745.397 1150.584)"/></g><rect width="25.966" height="25.966" x="759.423" y="754.774" rx="2.679" ry="2.679" fill="#a05a2c" stroke="#502d16" stroke-width="2" stroke-linecap="round" stroke-linejoin="round"/><use transform="matrix(2.15768 0 0 2.1562 394.2 376.476)" height="744.094" width="1052.362" xlink:href="#b" x="223.432" y="134.765"/><path d="M1001.5 402.098c19.052-.276 34.72 14.945 34.996 33.997a34.5 34.5 0 0 1-3.638 15.928" transform="matrix(.8964 .25882 -.2402 .96593 185.8 56.213)" fill="none" stroke="#000" stroke-width="2.076" stroke-linecap="round" stroke-linejoin="round" marker-end="url(#c)"/></g></svg>