<?xml version="1.0" encoding="UTF-8" standalone="no"?>
<!-- Created with Inkscape (http://www.inkscape.org/) -->

<svg
   xmlns:ns0="http://www.iki.fi/pav/software/textext/"
   xmlns:dc="http://purl.org/dc/elements/1.1/"
   xmlns:cc="http://creativecommons.org/ns#"
   xmlns:rdf="http://www.w3.org/1999/02/22-rdf-syntax-ns#"
   xmlns:svg="http://www.w3.org/2000/svg"
   xmlns="http://www.w3.org/2000/svg"
   xmlns:xlink="http://www.w3.org/1999/xlink"
   xmlns:sodipodi="http://sodipodi.sourceforge.net/DTD/sodipodi-0.dtd"
   xmlns:inkscape="http://www.inkscape.org/namespaces/inkscape"
   width="210mm"
   height="297mm"
   id="svg21881"
   version="1.1"
   inkscape:version="0.48.4 r9939"
   sodipodi:docname="standfestigkeit.svg">
  <title
     id="title9490">Standfestigkeit eines Gegenstands</title>
  <sodipodi:namedview
     id="base"
     pagecolor="#ffffff"
     bordercolor="#666666"
     borderopacity="1.0"
     inkscape:pageopacity="0.0"
     inkscape:pageshadow="2"
     inkscape:zoom="0.94547911"
     inkscape:cx="203.28423"
     inkscape:cy="431.1705"
     inkscape:document-units="px"
     inkscape:current-layer="layer1"
     showgrid="false"
     inkscape:object-paths="true"
     inkscape:object-nodes="true"
     inkscape:snap-smooth-nodes="true"
     inkscape:snap-midpoints="true"
     inkscape:snap-object-midpoints="true"
     inkscape:snap-center="true"
     inkscape:snap-page="true"
     inkscape:snap-global="true"
     inkscape:window-width="1600"
     inkscape:window-height="1150"
     inkscape:window-x="0"
     inkscape:window-y="0"
     inkscape:window-maximized="1"
     showguides="false"
     inkscape:guide-bbox="true">
    <inkscape:grid
       id="grid29437"
       type="xygrid" />
    <sodipodi:guide
       orientation="0.86557123,-0.50078582"
       position="490.81485,670.02297"
       id="guide9492" />
    <sodipodi:guide
       orientation="0.96882233,0.24775652"
       position="320.96077,670.02297"
       id="guide9496" />
    <sodipodi:guide
       orientation="0,1"
       position="260.31357,565.19877"
       id="guide3112" />
    <sodipodi:guide
       orientation="0.86557122,-0.50078584"
       position="283.60325,605.45327"
       id="guide3114" />
    <sodipodi:guide
       orientation="0.96882232,0.24775656"
       position="505.8352,611.28767"
       id="guide3116" />
    <sodipodi:guide
       orientation="0.58434414,-0.81150596"
       position="490.81485,670.02297"
       id="guide3118" />
    <sodipodi:guide
       orientation="0.68419766,0.72929662"
       position="320.96077,670.02297"
       id="guide3120" />
    <sodipodi:guide
       orientation="0.57459169,-0.81844022"
       position="517.6215,565.19877"
       id="guide3122" />
    <sodipodi:guide
       orientation="0.67195732,0.74058988"
       position="260.31357,565.19878"
       id="guide3124" />
    <sodipodi:guide
       orientation="-0.27001288,-0.96285671"
       position="468.36315,530.67166"
       id="guide3126" />
    <sodipodi:guide
       orientation="-0.24584996,0.9693079"
       position="297.686,530.95596"
       id="guide3128" />
  </sodipodi:namedview>
  <defs
     id="defs21883">
    <marker
       inkscape:stockid="Arrow2Mend"
       orient="auto"
       refY="0.0"
       refX="0.0"
       id="Arrow2Mend"
       style="overflow:visible;">
      <path
         id="path6452"
         style="fill-rule:evenodd;stroke-width:0.62500000;stroke-linejoin:round;"
         d="M 8.7185878,4.0337352 L -2.2072895,0.016013256 L 8.7185884,-4.0017078 C 6.9730900,-1.6296469 6.9831476,1.6157441 8.7185878,4.0337352 z "
         transform="scale(0.6) rotate(180) translate(0,0)" />
    </marker>
    <marker
       inkscape:stockid="Arrow1Mend"
       orient="auto"
       refY="0.0"
       refX="0.0"
       id="Arrow1Mend"
       style="overflow:visible;">
      <path
         id="path6434"
         d="M 0.0,0.0 L 5.0,-5.0 L -12.5,0.0 L 5.0,5.0 L 0.0,0.0 z "
         style="fill-rule:evenodd;stroke:#000000;stroke-width:1.0pt;"
         transform="scale(0.4) rotate(180) translate(10,0)" />
    </marker>
  </defs>
  <metadata
     id="metadata21886">
    <rdf:RDF>
      <cc:Work
         rdf:about="">
        <dc:format>image/svg+xml</dc:format>
        <dc:type
           rdf:resource="http://purl.org/dc/dcmitype/StillImage" />
        <dc:title>Standfestigkeit eines Gegenstands</dc:title>
        <cc:license
           rdf:resource="http://creativecommons.org/licenses/by-nc-sa/3.0/" />
        <dc:date>2014-12-19</dc:date>
        <dc:creator>
          <cc:Agent>
            <dc:title>Bernhard Grotz</dc:title>
          </cc:Agent>
        </dc:creator>
        <dc:rights>
          <cc:Agent>
            <dc:title>Bernhard Grotz</dc:title>
          </cc:Agent>
        </dc:rights>
        <dc:publisher>
          <cc:Agent>
            <dc:title>Bernhard Grotz</dc:title>
          </cc:Agent>
        </dc:publisher>
        <dc:language>de_DE</dc:language>
        <dc:subject>
          <rdf:Bag>
            <rdf:li>Physik</rdf:li>
            <rdf:li>Mechanik</rdf:li>
            <rdf:li>Drehmoment und Gleichgewicht</rdf:li>
            <rdf:li>Kippmoment</rdf:li>
            <rdf:li>Standmoment</rdf:li>
            <rdf:li>Standfestigkeit</rdf:li>
          </rdf:Bag>
        </dc:subject>
      </cc:Work>
      <cc:License
         rdf:about="http://creativecommons.org/licenses/by-nc-sa/3.0/">
        <cc:permits
           rdf:resource="http://creativecommons.org/ns#Reproduction" />
        <cc:permits
           rdf:resource="http://creativecommons.org/ns#Distribution" />
        <cc:requires
           rdf:resource="http://creativecommons.org/ns#Notice" />
        <cc:requires
           rdf:resource="http://creativecommons.org/ns#Attribution" />
        <cc:prohibits
           rdf:resource="http://creativecommons.org/ns#CommercialUse" />
        <cc:permits
           rdf:resource="http://creativecommons.org/ns#DerivativeWorks" />
        <cc:requires
           rdf:resource="http://creativecommons.org/ns#ShareAlike" />
      </cc:License>
    </rdf:RDF>
  </metadata>
  <g
     id="layer1"
     inkscape:groupmode="layer"
     inkscape:label="Ebene 1">
    <rect
       y="308.11914"
       x="20.156128"
       height="436.12387"
       width="703.78223"
       id="rect29149"
       style="color:#000000;fill:#ffffff;fill-opacity:1;fill-rule:nonzero;stroke:#ffffff;stroke-width:1.31226242;stroke-linecap:round;stroke-linejoin:bevel;stroke-miterlimit:4;stroke-opacity:1;stroke-dasharray:none;stroke-dashoffset:0;marker:none;visibility:visible;display:inline;overflow:visible;enable-background:accumulate"
       inkscape:export-filename="/home/waldgeist/data/homepage/pics/physik/mechanik/drehmoment-und-gleichgewicht/standfestigkeit.png"
       inkscape:export-xdpi="150"
       inkscape:export-ydpi="150" />
    <g
       id="g6297"
       style="fill:#d40000;fill-opacity:1;stroke:#d40000;stroke-width:1;stroke-opacity:1"
       transform="matrix(5.2927626,0,0,5.2927626,-545.18896,-314.89338)"
       ns0:preamble="/home/waldgeist/data/sphinx/inkscape-preamble.tex"
       ns0:text="$\\vec{F}$"
       inkscape:export-filename="/home/waldgeist/data/homepage/pics/physik/mechanik/drehmoment-und-gleichgewicht/standfestigkeit.png"
       inkscape:export-xdpi="150"
       inkscape:export-ydpi="150">
      <defs
         id="defs6299">
        <g
           id="g6301">
          <symbol
             id="textext-7cd6b627-0"
             overflow="visible"
             style="overflow:visible">
            <path
               id="path6304"
               d=""
               style="stroke:none"
               inkscape:connector-curvature="0" />
          </symbol>
          <symbol
             id="textext-7cd6b627-1"
             overflow="visible"
             style="overflow:visible">
            <path
               id="path6307"
               d="m 5.359375,-5.9375 c -0.140625,0.140625 -0.46875,0.421875 -0.46875,0.59375 0,0.09375 0.09375,0.203125 0.1875,0.203125 0.09375,0 0.140625,-0.078125 0.203125,-0.140625 C 5.390625,-5.421875 5.625,-5.703125 6.0625,-5.921875 6.125,-5.96875 6.234375,-6.015625 6.234375,-6.125 6.234375,-6.234375 6.15625,-6.28125 6.09375,-6.328125 5.875,-6.484375 5.765625,-6.65625 5.6875,-6.890625 5.65625,-6.984375 5.625,-7.125 5.484375,-7.125 c -0.140625,0 -0.203125,0.140625 -0.203125,0.21875 0,0.046875 0.078125,0.359375 0.234375,0.578125 l -3.359375,0 c -0.15625,0 -0.34375,0 -0.34375,0.203125 0,0.1875 0.1875,0.1875 0.34375,0.1875 z m 0,0"
               style="stroke:none"
               inkscape:connector-curvature="0" />
          </symbol>
          <symbol
             id="textext-7cd6b627-2"
             overflow="visible"
             style="overflow:visible">
            <path
               id="path6310"
               d="m 3.015625,-3.234375 0.96875,0 c 0.75,0 0.828125,0.15625 0.828125,0.4375 0,0.078125 0,0.1875 -0.0625,0.5 C 4.71875,-2.25 4.71875,-2.21875 4.71875,-2.1875 c 0,0.078125 0.0625,0.109375 0.109375,0.109375 0.109375,0 0.109375,-0.03125 0.15625,-0.203125 L 5.53125,-4.453125 C 5.5625,-4.5625 5.5625,-4.578125 5.5625,-4.609375 5.5625,-4.625 5.546875,-4.71875 5.4375,-4.71875 5.34375,-4.71875 5.328125,-4.671875 5.296875,-4.5 5.078125,-3.734375 4.859375,-3.546875 4,-3.546875 l -0.90625,0 0.640625,-2.53125 C 3.828125,-6.4375 3.84375,-6.46875 4.28125,-6.46875 l 1.3125,0 c 1.21875,0 1.453125,0.328125 1.453125,1.09375 0,0.234375 0,0.265625 -0.03125,0.546875 C 7,-4.703125 7,-4.6875 7,-4.65625 c 0,0.046875 0.03125,0.125 0.125,0.125 0.109375,0 0.109375,-0.0625 0.125,-0.25 L 7.453125,-6.515625 C 7.484375,-6.78125 7.4375,-6.78125 7.1875,-6.78125 l -4.890625,0 c -0.1875,0 -0.296875,0 -0.296875,0.203125 0,0.109375 0.09375,0.109375 0.28125,0.109375 0.375,0 0.65625,0 0.65625,0.171875 0,0.046875 0,0.0625 -0.0625,0.25 L 1.5625,-0.78125 c -0.09375,0.390625 -0.109375,0.46875 -0.90625,0.46875 -0.171875,0 -0.28125,0 -0.28125,0.1875 C 0.375,0 0.5,0 0.53125,0 0.8125,0 1.5625,-0.03125 1.84375,-0.03125 2.171875,-0.03125 3,0 3.328125,0 3.421875,0 3.53125,0 3.53125,-0.1875 3.53125,-0.265625 3.484375,-0.296875 3.484375,-0.296875 3.453125,-0.3125 3.421875,-0.3125 3.203125,-0.3125 c -0.21875,0 -0.265625,0 -0.515625,-0.015625 -0.296875,-0.03125 -0.328125,-0.078125 -0.328125,-0.203125 0,-0.015625 0,-0.078125 0.046875,-0.21875 z m 0,0"
               style="stroke:none"
               inkscape:connector-curvature="0" />
          </symbol>
        </g>
      </defs>
      <g
         id="textext-7cd6b627-3"
         style="fill:#d40000;fill-opacity:1;stroke-width:1">
        <g
           id="g6313"
           style="fill:#d40000;fill-opacity:1;stroke-width:1">
          <use
             id="use6315"
             y="132.246"
             x="224.901"
             xlink:href="#textext-7cd6b627-1"
             style="fill:#d40000;fill-opacity:1;stroke-width:1"
             width="744.09448"
             height="1052.3622" />
        </g>
        <g
           id="g6317"
           style="fill:#d40000;fill-opacity:1;stroke-width:1">
          <use
             id="use6319"
             y="134.765"
             x="223.43201"
             xlink:href="#textext-7cd6b627-2"
             style="fill:#d40000;fill-opacity:1;stroke-width:1"
             width="744.09448"
             height="1052.3622" />
        </g>
      </g>
    </g>
    <path
       style="fill:#808080;fill-opacity:1;fill-rule:nonzero;stroke:#333333;stroke-width:2.99999976000000013;stroke-linecap:round;stroke-linejoin:round;stroke-miterlimit:4;stroke-opacity:1;stroke-dashoffset:0"
       inkscape:transform-center-x="-54.792297"
       inkscape:transform-center-y="-94.704403"
       d="m 544.42814,591.98759 -344.76177,0 121.2944,-209.64838 169.85408,0 z"
       id="rect3250"
       inkscape:connector-curvature="0"
       sodipodi:nodetypes="ccccc"
       inkscape:export-filename="/home/waldgeist/data/homepage/pics/physik/mechanik/drehmoment-und-gleichgewicht/standfestigkeit.png"
       inkscape:export-xdpi="150"
       inkscape:export-ydpi="150" />
    <g
       inkscape:export-ydpi="150"
       inkscape:export-xdpi="150"
       inkscape:export-filename="/home/waldgeist/data/homepage/pics/physik/mechanik/drehmoment-und-gleichgewicht/standfestigkeit.png"
       id="g8049"
       transform="matrix(0.82782199,0.47794326,-0.47794326,0.82782199,599.39459,-206.72412)"
       inkscape:transform-center-x="-154.57535"
       inkscape:transform-center-y="0.79522749">
      <g
         inkscape:transform-center-y="-86.327536"
         transform="matrix(0.86602541,-0.50000001,0.50000001,0.86602541,-49.354106,414.92436)"
         inkscape:transform-center-x="-149.52172"
         id="g3460">
        <g
           transform="matrix(1,0,0,-1,-85.03402,474.27777)"
           id="g6315">
          <path
             inkscape:connector-curvature="0"
             id="path6317"
             d="m 230.99224,156.14605 c 62.046,0 114.8965,0 175.08173,0"
             style="fill:#d40000;stroke:#d40000;stroke-width:6.276896;stroke-linecap:round;stroke-linejoin:miter;stroke-miterlimit:4;stroke-opacity:1;stroke-dasharray:none"
             sodipodi:nodetypes="cc" />
          <path
             sodipodi:type="star"
             style="fill:#d40000;stroke:#d40000;stroke-width:16.11595726;stroke-miterlimit:4;stroke-dasharray:none"
             id="path6319"
             sodipodi:sides="3"
             sodipodi:cx="-707.10675"
             sodipodi:cy="1607.946"
             sodipodi:r1="12.121831"
             sodipodi:r2="6.060915"
             sodipodi:arg1="1.5707963"
             sodipodi:arg2="2.6179939"
             inkscape:flatsided="false"
             inkscape:rounded="0"
             inkscape:randomized="0"
             d="m -707.10675,1620.0679 -5.24891,-9.0914 -5.2489,-9.0914 10.49781,0 10.49781,0 -5.2489,9.0914 z"
             inkscape:transform-center-y="-0.00017641075"
             transform="matrix(1.645499e-5,-0.5103719,0.5103719,1.645499e-5,-411.47155,-204.76773)"
             inkscape:transform-center-x="-3.0302635" />
        </g>
      </g>
    </g>
    <rect
       style="fill:#333333;fill-opacity:1;fill-rule:nonzero;stroke:#333333;stroke-width:2;stroke-linecap:round;stroke-linejoin:round;stroke-miterlimit:4;stroke-opacity:1;stroke-dasharray:none;stroke-dashoffset:0"
       id="rect8064"
       width="529.50043"
       height="26.404728"
       x="107.29703"
       y="593.98761"
       ry="4.460258"
       rx="5.4791021"
       inkscape:export-filename="/home/waldgeist/data/homepage/pics/physik/mechanik/drehmoment-und-gleichgewicht/standfestigkeit.png"
       inkscape:export-xdpi="150"
       inkscape:export-ydpi="150" />
    <g
       ns0:text="$\\vec{F}_{\\rm{G}}$"
       ns0:preamble="/home/waldgeist/data/sphinx/inkscape-preamble.tex"
       transform="matrix(5.2927626,0,0,5.2927626,-871.36766,-16.911046)"
       style="fill:#d40000;fill-opacity:1;stroke:#d40000;stroke-width:1;stroke-opacity:1"
       id="g8079"
       inkscape:export-filename="/home/waldgeist/data/homepage/pics/physik/mechanik/drehmoment-und-gleichgewicht/standfestigkeit.png"
       inkscape:export-xdpi="150"
       inkscape:export-ydpi="150">
      <defs
         id="defs8081">
        <g
           id="g8083">
          <symbol
             style="overflow:visible"
             overflow="visible"
             id="textext-eb01c7c8-0">
            <path
               inkscape:connector-curvature="0"
               style="stroke:none"
               d=""
               id="path8086" />
          </symbol>
          <symbol
             style="overflow:visible"
             overflow="visible"
             id="textext-eb01c7c8-1">
            <path
               inkscape:connector-curvature="0"
               style="stroke:none"
               d="m 5.359375,-5.9375 c -0.140625,0.140625 -0.46875,0.421875 -0.46875,0.59375 0,0.09375 0.09375,0.203125 0.1875,0.203125 0.09375,0 0.140625,-0.078125 0.203125,-0.140625 C 5.390625,-5.421875 5.625,-5.703125 6.0625,-5.921875 6.125,-5.96875 6.234375,-6.015625 6.234375,-6.125 6.234375,-6.234375 6.15625,-6.28125 6.09375,-6.328125 5.875,-6.484375 5.765625,-6.65625 5.6875,-6.890625 5.65625,-6.984375 5.625,-7.125 5.484375,-7.125 c -0.140625,0 -0.203125,0.140625 -0.203125,0.21875 0,0.046875 0.078125,0.359375 0.234375,0.578125 l -3.359375,0 c -0.15625,0 -0.34375,0 -0.34375,0.203125 0,0.1875 0.1875,0.1875 0.34375,0.1875 z m 0,0"
               id="path8089" />
          </symbol>
          <symbol
             style="overflow:visible"
             overflow="visible"
             id="textext-eb01c7c8-2">
            <path
               inkscape:connector-curvature="0"
               style="stroke:none"
               d="m 3.015625,-3.234375 0.96875,0 c 0.75,0 0.828125,0.15625 0.828125,0.4375 0,0.078125 0,0.1875 -0.0625,0.5 C 4.71875,-2.25 4.71875,-2.21875 4.71875,-2.1875 c 0,0.078125 0.0625,0.109375 0.109375,0.109375 0.109375,0 0.109375,-0.03125 0.15625,-0.203125 L 5.53125,-4.453125 C 5.5625,-4.5625 5.5625,-4.578125 5.5625,-4.609375 5.5625,-4.625 5.546875,-4.71875 5.4375,-4.71875 5.34375,-4.71875 5.328125,-4.671875 5.296875,-4.5 5.078125,-3.734375 4.859375,-3.546875 4,-3.546875 l -0.90625,0 0.640625,-2.53125 C 3.828125,-6.4375 3.84375,-6.46875 4.28125,-6.46875 l 1.3125,0 c 1.21875,0 1.453125,0.328125 1.453125,1.09375 0,0.234375 0,0.265625 -0.03125,0.546875 C 7,-4.703125 7,-4.6875 7,-4.65625 c 0,0.046875 0.03125,0.125 0.125,0.125 0.109375,0 0.109375,-0.0625 0.125,-0.25 L 7.453125,-6.515625 C 7.484375,-6.78125 7.4375,-6.78125 7.1875,-6.78125 l -4.890625,0 c -0.1875,0 -0.296875,0 -0.296875,0.203125 0,0.109375 0.09375,0.109375 0.28125,0.109375 0.375,0 0.65625,0 0.65625,0.171875 0,0.046875 0,0.0625 -0.0625,0.25 L 1.5625,-0.78125 c -0.09375,0.390625 -0.109375,0.46875 -0.90625,0.46875 -0.171875,0 -0.28125,0 -0.28125,0.1875 C 0.375,0 0.5,0 0.53125,0 0.8125,0 1.5625,-0.03125 1.84375,-0.03125 2.171875,-0.03125 3,0 3.328125,0 3.421875,0 3.53125,0 3.53125,-0.1875 3.53125,-0.265625 3.484375,-0.296875 3.484375,-0.296875 3.453125,-0.3125 3.421875,-0.3125 3.203125,-0.3125 c -0.21875,0 -0.265625,0 -0.515625,-0.015625 -0.296875,-0.03125 -0.328125,-0.078125 -0.328125,-0.203125 0,-0.015625 0,-0.078125 0.046875,-0.21875 z m 0,0"
               id="path8092" />
          </symbol>
          <symbol
             style="overflow:visible"
             overflow="visible"
             id="textext-eb01c7c8-3">
            <path
               inkscape:connector-curvature="0"
               style="stroke:none"
               d=""
               id="path8095" />
          </symbol>
          <symbol
             style="overflow:visible"
             overflow="visible"
             id="textext-eb01c7c8-4">
            <path
               inkscape:connector-curvature="0"
               style="stroke:none"
               d="m 5.1875,-1.359375 c 0,-0.3125 0.078125,-0.3125 0.546875,-0.3125 l 0,-0.25 c -0.0625,0 -0.5625,0.03125 -0.90625,0.03125 -0.375,0 -0.890625,0 -1.265625,-0.03125 l 0,0.25 0.265625,0 c 0.703125,0 0.703125,0.09375 0.703125,0.3125 l 0,0.453125 c 0,0.15625 0,0.421875 -0.40625,0.625 -0.328125,0.171875 -0.71875,0.171875 -0.8125,0.171875 -0.796875,0 -2.078125,-0.453125 -2.078125,-2.28125 0,-1.84375 1.328125,-2.25 2.015625,-2.25 0.671875,0 1.515625,0.453125 1.6875,1.65625 0.015625,0.078125 0.078125,0.078125 0.125,0.078125 0.125,0 0.125,-0.046875 0.125,-0.1875 l 0,-1.625 c 0,-0.125 0,-0.1875 -0.09375,-0.1875 -0.03125,0 -0.0625,0 -0.125,0.09375 l -0.359375,0.53125 c -0.34375,-0.359375 -0.84375,-0.625 -1.453125,-0.625 -1.453125,0 -2.671875,1.125 -2.671875,2.515625 0,1.390625 1.1875,2.53125 2.6875,2.53125 0.390625,0 1.15625,-0.078125 1.484375,-0.5625 C 4.78125,-0.234375 5.03125,0 5.109375,0 5.1875,0 5.1875,-0.078125 5.1875,-0.1875 z m 0,0"
               id="path8098" />
          </symbol>
        </g>
      </defs>
      <g
         style="fill:#d40000;fill-opacity:1;stroke-width:1"
         id="textext-eb01c7c8-5">
        <g
           style="fill:#d40000;fill-opacity:1;stroke-width:1"
           id="g8101">
          <use
             height="1052.3622"
             width="744.09448"
             style="fill:#d40000;fill-opacity:1;stroke-width:1"
             xlink:href="#textext-eb01c7c8-1"
             x="224.901"
             y="132.246"
             id="use8103" />
        </g>
        <g
           style="fill:#d40000;fill-opacity:1;stroke-width:1"
           id="g8105">
          <use
             height="1052.3622"
             width="744.09448"
             style="fill:#d40000;fill-opacity:1;stroke-width:1"
             xlink:href="#textext-eb01c7c8-2"
             x="223.43201"
             y="134.765"
             id="use8107" />
        </g>
        <g
           style="fill:#d40000;fill-opacity:1;stroke-width:1"
           id="g8109">
          <use
             height="1052.3622"
             width="744.09448"
             style="fill:#d40000;fill-opacity:1;stroke-width:1"
             xlink:href="#textext-eb01c7c8-4"
             x="229.839"
             y="136.259"
             id="use8111" />
        </g>
      </g>
    </g>
    <g
       inkscape:transform-center-y="154.57535"
       inkscape:transform-center-x="0.79522464"
       transform="matrix(-0.47794326,0.82782199,-0.82782199,-0.47794326,1009.4526,668.24385)"
       id="g8227"
       inkscape:export-filename="/home/waldgeist/data/homepage/pics/physik/mechanik/drehmoment-und-gleichgewicht/standfestigkeit.png"
       inkscape:export-xdpi="150"
       inkscape:export-ydpi="150">
      <g
         id="g8229"
         inkscape:transform-center-x="-149.52172"
         transform="matrix(0.86602541,-0.50000001,0.50000001,0.86602541,-49.354106,414.92436)"
         inkscape:transform-center-y="-86.327536">
        <g
           id="g8231"
           transform="matrix(1,0,0,-1,-85.03402,474.27777)">
          <path
             sodipodi:nodetypes="cc"
             style="fill:#d40000;stroke:#d40000;stroke-width:6.27689552;stroke-linecap:round;stroke-linejoin:miter;stroke-miterlimit:4;stroke-opacity:1;stroke-dasharray:none"
             d="m 157.60003,156.14605 c 79.62446,0 147.44822,0 224.68472,0"
             id="path8233"
             inkscape:connector-curvature="0" />
          <path
             inkscape:transform-center-x="-3.0302635"
             transform="matrix(1.645499e-5,-0.5103719,0.5103719,1.645499e-5,-438.67145,-204.76773)"
             inkscape:transform-center-y="-0.00017641075"
             d="m -707.10675,1620.0679 -5.24891,-9.0914 -5.2489,-9.0914 10.49781,0 10.49781,0 -5.2489,9.0914 z"
             inkscape:randomized="0"
             inkscape:rounded="0"
             inkscape:flatsided="false"
             sodipodi:arg2="2.6179939"
             sodipodi:arg1="1.5707963"
             sodipodi:r2="6.060915"
             sodipodi:r1="12.121831"
             sodipodi:cy="1607.946"
             sodipodi:cx="-707.10675"
             sodipodi:sides="3"
             id="path8235"
             style="fill:#d40000;stroke:#d40000;stroke-width:16.11595726;stroke-miterlimit:4;stroke-dasharray:none"
             sodipodi:type="star" />
        </g>
      </g>
    </g>
    <path
       inkscape:export-ydpi="150"
       inkscape:export-xdpi="150"
       inkscape:export-filename="/home/waldgeist/data/homepage/pics/physik/mechanik/drehmoment-und-gleichgewicht/standfestigkeit.png"
       sodipodi:type="arc"
       style="fill:#000000;fill-opacity:1;fill-rule:nonzero;stroke:#000000;stroke-width:1.78843665;stroke-linecap:butt;stroke-linejoin:round;stroke-miterlimit:4;stroke-opacity:1;stroke-dasharray:none;stroke-dashoffset:0"
       id="path5357"
       sodipodi:cx="172.05499"
       sodipodi:cy="137.74173"
       sodipodi:rx="1.5828705"
       sodipodi:ry="1.5828705"
       d="m 173.63786,137.74173 a 1.5828705,1.5828705 0 1 1 -3.16574,0 1.5828705,1.5828705 0 1 1 3.16574,0 z"
       transform="matrix(1.7134279,0.11440749,0.11995385,-1.6342034,74.133276,703.85563)" />
    <g
       inkscape:export-ydpi="150"
       inkscape:export-xdpi="150"
       inkscape:export-filename="/home/waldgeist/data/homepage/pics/physik/mechanik/drehmoment-und-gleichgewicht/standfestigkeit.png"
       transform="translate(147.27147,107.75092)"
       style="stroke:#008000"
       id="g7729">
      <g
         inkscape:transform-center-y="0.018514366"
         transform="matrix(0.52712863,0.30445559,-0.30445559,0.52712863,231.1702,86.861181)"
         id="g7653"
         inkscape:export-filename="/home/waldgeist/data/pics/physik/Own/mechanik/dynamik/kraftzerlegung-strassenlampe.png"
         inkscape:export-xdpi="150"
         inkscape:export-ydpi="150"
         inkscape:transform-center-x="-58.616136"
         style="stroke:#008000">
        <g
           id="g7655"
           inkscape:transform-center-x="-149.52172"
           transform="matrix(0.86602541,-0.50000001,0.50000001,0.86602541,-49.354106,414.92436)"
           inkscape:transform-center-y="-86.327536"
           style="stroke:#008000">
          <g
             id="g7657"
             transform="matrix(1,0,0,-1,-85.03402,474.27777)"
             style="stroke:#008000">
            <path
               sodipodi:nodetypes="cc"
               style="fill:#d40000;stroke:#008000;stroke-width:9.85651207;stroke-linecap:butt;stroke-linejoin:miter;stroke-miterlimit:4;stroke-opacity:1;stroke-dasharray:none"
               d="m 438.39615,156.16362 c 52.86393,-0.002 97.8932,-0.004 149.17174,-0.005"
               id="path7659"
               inkscape:connector-curvature="0" />
            <path
               inkscape:transform-center-x="-3.0302635"
               transform="matrix(1.645499e-5,-0.5103719,0.5103719,1.645499e-5,-229.97762,-204.75563)"
               inkscape:transform-center-y="-0.00017641075"
               d="m -707.10675,1620.0679 -5.24891,-9.0914 -5.2489,-9.0914 10.49781,0 10.49781,0 -5.2489,9.0914 z"
               inkscape:randomized="0"
               inkscape:rounded="0"
               inkscape:flatsided="false"
               sodipodi:arg2="2.6179939"
               sodipodi:arg1="1.5707963"
               sodipodi:r2="6.060915"
               sodipodi:r1="12.121831"
               sodipodi:cy="1607.946"
               sodipodi:cx="-707.10675"
               sodipodi:sides="3"
               id="path7661"
               style="fill:#d40000;stroke:#008000;stroke-width:25.30664253;stroke-miterlimit:4;stroke-dasharray:none"
               sodipodi:type="star" />
          </g>
        </g>
      </g>
      <g
         inkscape:transform-center-x="58.616135"
         inkscape:export-ydpi="150"
         inkscape:export-xdpi="150"
         inkscape:export-filename="/home/waldgeist/data/pics/physik/Own/mechanik/dynamik/kraftzerlegung-strassenlampe.png"
         id="g7663"
         transform="matrix(-0.52712863,0.30445559,0.30445559,0.52712863,374.90979,86.861181)"
         inkscape:transform-center-y="0.018514366"
         style="stroke:#008000">
        <g
           inkscape:transform-center-y="-86.327536"
           transform="matrix(0.86602541,-0.50000001,0.50000001,0.86602541,-49.354106,414.92436)"
           inkscape:transform-center-x="-149.52172"
           id="g7665"
           style="stroke:#008000">
          <g
             transform="matrix(1,0,0,-1,-85.03402,474.27777)"
             id="g7667"
             style="stroke:#008000">
            <path
               inkscape:connector-curvature="0"
               id="path7669"
               d="m 459.66829,156.16718 c 20.55346,-0.008 38.06081,-0.0135 57.99788,-0.0206"
               style="fill:#d40000;stroke:#008000;stroke-width:9.85651207;stroke-linecap:butt;stroke-linejoin:miter;stroke-miterlimit:4;stroke-opacity:1;stroke-dasharray:none"
               sodipodi:nodetypes="cc" />
            <path
               sodipodi:type="star"
               style="fill:#d40000;stroke:#008000;stroke-width:25.30664253;stroke-miterlimit:4;stroke-dasharray:none"
               id="path7671"
               sodipodi:sides="3"
               sodipodi:cx="-707.10675"
               sodipodi:cy="1607.946"
               sodipodi:r1="12.121831"
               sodipodi:r2="6.060915"
               sodipodi:arg1="1.5707963"
               sodipodi:arg2="2.6179939"
               inkscape:flatsided="false"
               inkscape:rounded="0"
               inkscape:randomized="0"
               d="m -707.10675,1620.0679 -5.24891,-9.0914 -5.2489,-9.0914 10.49781,0 10.49781,0 -5.2489,9.0914 z"
               inkscape:transform-center-y="-0.00017641075"
               transform="matrix(1.645499e-5,-0.5103719,0.5103719,1.645499e-5,-298.97312,-204.76718)"
               inkscape:transform-center-x="-3.0302635" />
          </g>
        </g>
      </g>
    </g>
    <g
       id="g8777"
       style="fill:#008000;fill-opacity:1;stroke:#d40000;stroke-width:1;stroke-opacity:1"
       transform="matrix(5.2927626,0,0,5.2927626,-721.24162,-46.90799)"
       ns0:preamble="/home/waldgeist/data/sphinx/inkscape-preamble.tex"
       ns0:text="$l$"
       inkscape:export-filename="/home/waldgeist/data/homepage/pics/physik/mechanik/drehmoment-und-gleichgewicht/standfestigkeit.png"
       inkscape:export-xdpi="150"
       inkscape:export-ydpi="150">
      <defs
         id="defs8779">
        <g
           id="g8781">
          <symbol
             id="textext-77a77e9e-0"
             overflow="visible"
             style="overflow:visible">
            <path
               id="path8784"
               d=""
               style="stroke:none"
               inkscape:connector-curvature="0" />
          </symbol>
          <symbol
             id="textext-77a77e9e-1"
             overflow="visible"
             style="overflow:visible">
            <path
               id="path8787"
               d="m 2.578125,-6.8125 c 0,0 0,-0.109375 -0.140625,-0.109375 -0.21875,0 -0.953125,0.078125 -1.21875,0.109375 -0.078125,0 -0.1875,0.015625 -0.1875,0.203125 0,0.109375 0.109375,0.109375 0.25,0.109375 0.484375,0 0.5,0.09375 0.5,0.171875 L 1.75,-6.125 0.484375,-1.140625 C 0.453125,-1.03125 0.4375,-0.96875 0.4375,-0.8125 c 0,0.578125 0.4375,0.921875 0.90625,0.921875 0.328125,0 0.578125,-0.203125 0.75,-0.5625 0.171875,-0.375 0.296875,-0.953125 0.296875,-0.96875 0,-0.109375 -0.09375,-0.109375 -0.125,-0.109375 -0.09375,0 -0.109375,0.046875 -0.125,0.1875 C 1.96875,-0.703125 1.78125,-0.109375 1.375,-0.109375 c -0.296875,0 -0.296875,-0.3125 -0.296875,-0.453125 0,-0.25 0.015625,-0.296875 0.0625,-0.484375 z m 0,0"
               style="stroke:none"
               inkscape:connector-curvature="0" />
          </symbol>
        </g>
      </defs>
      <g
         id="textext-77a77e9e-2"
         style="fill:#008000;fill-opacity:1;stroke-width:1">
        <g
           id="g8790"
           style="fill:#008000;fill-opacity:1;stroke-width:1">
          <use
             id="use8792"
             y="134.765"
             x="223.43201"
             xlink:href="#textext-77a77e9e-1"
             width="744.09448"
             height="1052.3622"
             style="fill:#008000;fill-opacity:1;stroke-width:1" />
        </g>
      </g>
    </g>
    <g
       id="g8914"
       style="stroke:#008000"
       transform="matrix(0,1,-1,0,1065.771,190.97413)"
       inkscape:export-filename="/home/waldgeist/data/homepage/pics/physik/mechanik/drehmoment-und-gleichgewicht/standfestigkeit.png"
       inkscape:export-xdpi="150"
       inkscape:export-ydpi="150">
      <g
         style="stroke:#008000"
         inkscape:transform-center-x="-58.616136"
         inkscape:export-ydpi="150"
         inkscape:export-xdpi="150"
         inkscape:export-filename="/home/waldgeist/data/pics/physik/Own/mechanik/dynamik/kraftzerlegung-strassenlampe.png"
         id="g8916"
         transform="matrix(0.52712863,0.30445559,-0.30445559,0.52712863,231.1702,86.861181)"
         inkscape:transform-center-y="0.018514366">
        <g
           style="stroke:#008000"
           inkscape:transform-center-y="-86.327536"
           transform="matrix(0.86602541,-0.50000001,0.50000001,0.86602541,-49.354106,414.92436)"
           inkscape:transform-center-x="-149.52172"
           id="g8918">
          <g
             style="stroke:#008000"
             transform="matrix(1,0,0,-1,-85.03402,474.27777)"
             id="g8920">
            <path
               inkscape:connector-curvature="0"
               id="path8922"
               d="m 438.39615,156.16362 c 52.86393,-0.002 97.8932,-0.004 149.17174,-0.005"
               style="fill:#d40000;stroke:#008000;stroke-width:9.85651207;stroke-linecap:butt;stroke-linejoin:miter;stroke-miterlimit:4;stroke-opacity:1;stroke-dasharray:none"
               sodipodi:nodetypes="cc" />
            <path
               sodipodi:type="star"
               style="fill:#d40000;stroke:#008000;stroke-width:25.30664253;stroke-miterlimit:4;stroke-dasharray:none"
               id="path8924"
               sodipodi:sides="3"
               sodipodi:cx="-707.10675"
               sodipodi:cy="1607.946"
               sodipodi:r1="12.121831"
               sodipodi:r2="6.060915"
               sodipodi:arg1="1.5707963"
               sodipodi:arg2="2.6179939"
               inkscape:flatsided="false"
               inkscape:rounded="0"
               inkscape:randomized="0"
               d="m -707.10675,1620.0679 -5.24891,-9.0914 -5.2489,-9.0914 10.49781,0 10.49781,0 -5.2489,9.0914 z"
               inkscape:transform-center-y="-0.00017641075"
               transform="matrix(1.645499e-5,-0.5103719,0.5103719,1.645499e-5,-229.97762,-204.75563)"
               inkscape:transform-center-x="-3.0302635" />
          </g>
        </g>
      </g>
      <g
         style="stroke:#008000"
         inkscape:transform-center-y="0.018514366"
         transform="matrix(-0.52712863,0.30445559,0.30445559,0.52712863,374.90979,86.861181)"
         id="g8926"
         inkscape:export-filename="/home/waldgeist/data/pics/physik/Own/mechanik/dynamik/kraftzerlegung-strassenlampe.png"
         inkscape:export-xdpi="150"
         inkscape:export-ydpi="150"
         inkscape:transform-center-x="58.616135">
        <g
           style="stroke:#008000"
           id="g8928"
           inkscape:transform-center-x="-149.52172"
           transform="matrix(0.86602541,-0.50000001,0.50000001,0.86602541,-49.354106,414.92436)"
           inkscape:transform-center-y="-86.327536">
          <g
             style="stroke:#008000"
             id="g8930"
             transform="matrix(1,0,0,-1,-85.03402,474.27777)">
            <path
               sodipodi:nodetypes="cc"
               style="fill:#d40000;stroke:#008000;stroke-width:9.85651207;stroke-linecap:butt;stroke-linejoin:miter;stroke-miterlimit:4;stroke-opacity:1;stroke-dasharray:none"
               d="m 459.6683,156.16718 c 34.84652,-0.006 64.52863,-0.009 98.33012,-0.0138"
               id="path8932"
               inkscape:connector-curvature="0" />
            <path
               inkscape:transform-center-x="-3.0302635"
               transform="matrix(1.645499e-5,-0.5103719,0.5103719,1.645499e-5,-259.54712,-204.76058)"
               inkscape:transform-center-y="-0.00017641075"
               d="m -707.10675,1620.0679 -5.24891,-9.0914 -5.2489,-9.0914 10.49781,0 10.49781,0 -5.2489,9.0914 z"
               inkscape:randomized="0"
               inkscape:rounded="0"
               inkscape:flatsided="false"
               sodipodi:arg2="2.6179939"
               sodipodi:arg1="1.5707963"
               sodipodi:r2="6.060915"
               sodipodi:r1="12.121831"
               sodipodi:cy="1607.946"
               sodipodi:cx="-707.10675"
               sodipodi:sides="3"
               id="path8934"
               style="fill:#d40000;stroke:#008000;stroke-width:25.30664253;stroke-miterlimit:4;stroke-dasharray:none"
               sodipodi:type="star" />
          </g>
        </g>
      </g>
    </g>
    <g
       ns0:text="$h$"
       ns0:preamble="/home/waldgeist/data/sphinx/inkscape-preamble.tex"
       transform="matrix(5.2927626,0,0,5.2927626,-591.05321,-192.23656)"
       style="fill:#008000;fill-opacity:1;stroke:#d40000;stroke-width:1;stroke-opacity:1"
       id="g9067"
       inkscape:export-filename="/home/waldgeist/data/homepage/pics/physik/mechanik/drehmoment-und-gleichgewicht/standfestigkeit.png"
       inkscape:export-xdpi="150"
       inkscape:export-ydpi="150">
      <defs
         id="defs9069">
        <g
           id="g9071">
          <symbol
             overflow="visible"
             id="textext-0346dcff-0"
             style="overflow:visible">
            <path
               style="stroke:none"
               d=""
               id="path9074"
               inkscape:connector-curvature="0" />
          </symbol>
          <symbol
             overflow="visible"
             id="textext-0346dcff-1"
             style="overflow:visible">
            <path
               style="stroke:none"
               d="m 2.859375,-6.8125 c 0,0 0,-0.109375 -0.125,-0.109375 -0.234375,0 -0.953125,0.078125 -1.21875,0.109375 -0.078125,0 -0.1875,0.015625 -0.1875,0.1875 0,0.125 0.09375,0.125 0.234375,0.125 0.484375,0 0.5,0.0625 0.5,0.171875 L 2.03125,-6.125 0.59375,-0.390625 c -0.046875,0.140625 -0.046875,0.15625 -0.046875,0.21875 0,0.234375 0.203125,0.28125 0.296875,0.28125 0.15625,0 0.3125,-0.125 0.359375,-0.265625 l 0.1875,-0.75 0.21875,-0.890625 C 1.671875,-2.03125 1.734375,-2.25 1.78125,-2.46875 1.796875,-2.53125 1.890625,-2.859375 1.890625,-2.921875 1.921875,-3.015625 2.234375,-3.5625 2.578125,-3.84375 2.796875,-4 3.09375,-4.1875 3.53125,-4.1875 c 0.421875,0 0.53125,0.34375 0.53125,0.703125 0,0.53125 -0.375,1.625 -0.609375,2.234375 C 3.375,-1.03125 3.3125,-0.90625 3.3125,-0.703125 c 0,0.46875 0.359375,0.8125 0.828125,0.8125 0.9375,0 1.296875,-1.453125 1.296875,-1.53125 0,-0.109375 -0.078125,-0.109375 -0.109375,-0.109375 -0.109375,0 -0.109375,0.03125 -0.15625,0.1875 -0.140625,0.53125 -0.46875,1.234375 -1.015625,1.234375 -0.171875,0 -0.234375,-0.09375 -0.234375,-0.328125 0,-0.25 0.078125,-0.484375 0.171875,-0.703125 0.15625,-0.4375 0.609375,-1.625 0.609375,-2.203125 0,-0.640625 -0.390625,-1.0625 -1.140625,-1.0625 -0.625,0 -1.109375,0.3125 -1.484375,0.765625 z m 0,0"
               id="path9077"
               inkscape:connector-curvature="0" />
          </symbol>
        </g>
      </defs>
      <g
         style="fill:#008000;fill-opacity:1;stroke-width:1"
         id="textext-0346dcff-2">
        <g
           style="fill:#008000;fill-opacity:1;stroke-width:1"
           id="g9080">
          <use
             style="fill:#008000;fill-opacity:1;stroke-width:1"
             xlink:href="#textext-0346dcff-1"
             x="223.43201"
             y="134.765"
             id="use9082"
             width="744.09448"
             height="1052.3622" />
        </g>
      </g>
    </g>
    <g
       id="g9344"
       style="fill:#008000;fill-opacity:1;stroke:#d40000;stroke-width:1;stroke-opacity:1"
       transform="matrix(5.2927626,0,0,5.2927626,-812.85337,-226.59568)"
       ns0:preamble="/home/waldgeist/data/sphinx/inkscape-preamble.tex"
       ns0:text="$\\rm{S}$"
       inkscape:export-filename="/home/waldgeist/data/homepage/pics/physik/mechanik/drehmoment-und-gleichgewicht/standfestigkeit.png"
       inkscape:export-xdpi="150"
       inkscape:export-ydpi="150">
      <defs
         id="defs9346">
        <g
           id="g9348">
          <symbol
             id="textext-b08c904e-0"
             overflow="visible"
             style="overflow:visible">
            <path
               id="path9351"
               d=""
               style="stroke:none"
               inkscape:connector-curvature="0" />
          </symbol>
          <symbol
             id="textext-b08c904e-1"
             overflow="visible"
             style="overflow:visible">
            <path
               id="path9354"
               d="m 3.484375,-3.875 -1.28125,-0.296875 c -0.625,-0.15625 -1,-0.6875 -1,-1.265625 0,-0.703125 0.53125,-1.3125 1.3125,-1.3125 1.65625,0 1.875,1.640625 1.9375,2.078125 0.015625,0.0625 0.015625,0.125 0.125,0.125 0.125,0 0.125,-0.046875 0.125,-0.234375 l 0,-2 c 0,-0.171875 0,-0.25 -0.109375,-0.25 -0.0625,0 -0.078125,0.015625 -0.140625,0.140625 l -0.359375,0.5625 C 3.796875,-6.625 3.390625,-7.03125 2.5,-7.03125 c -1.109375,0 -1.9375,0.875 -1.9375,1.9375 0,0.828125 0.53125,1.5625 1.296875,1.828125 0.109375,0.03125 0.625,0.15625 1.328125,0.328125 0.265625,0.0625 0.5625,0.140625 0.84375,0.5 0.203125,0.265625 0.3125,0.59375 0.3125,0.921875 0,0.703125 -0.5,1.421875 -1.34375,1.421875 -0.28125,0 -1.046875,-0.046875 -1.578125,-0.53125 C 0.84375,-1.171875 0.8125,-1.796875 0.8125,-2.15625 0.796875,-2.265625 0.71875,-2.265625 0.6875,-2.265625 c -0.125,0 -0.125,0.078125 -0.125,0.25 l 0,2 c 0,0.171875 0,0.234375 0.109375,0.234375 0.0625,0 0.078125,-0.015625 0.140625,-0.125 0,-0.015625 0.03125,-0.046875 0.359375,-0.578125 0.3125,0.34375 0.953125,0.703125 1.84375,0.703125 1.15625,0 1.953125,-0.96875 1.953125,-2.078125 0,-0.984375 -0.65625,-1.8125 -1.484375,-2.015625 z m 0,0"
               style="stroke:none"
               inkscape:connector-curvature="0" />
          </symbol>
        </g>
      </defs>
      <g
         id="textext-b08c904e-2"
         style="stroke-width:1">
        <g
           id="g9357"
           style="fill:#000000;fill-opacity:1;stroke-width:1">
          <use
             id="use9359"
             y="134.765"
             x="223.43201"
             xlink:href="#textext-b08c904e-1"
             width="744.09448"
             height="1052.3622"
             style="stroke-width:1" />
        </g>
      </g>
    </g>
  </g>
</svg>
