<svg xmlns:ns0="http://www.iki.fi/pav/software/textext/" xmlns="http://www.w3.org/2000/svg" xmlns:xlink="http://www.w3.org/1999/xlink" width="210mm" height="297mm"><title>Traegheitsmomente</title><defs><marker orient="auto" id="ah" overflow="visible"><path d="M8.719 4.034L-2.207.016 8.719-4.002c-1.746 2.372-1.736 5.618 0 8.036z" transform="matrix(.3 0 0 .3 -.69 0)" fill-rule="evenodd" stroke-width=".625" stroke-linejoin="round"/></marker><marker orient="auto" id="ai" overflow="visible"><path d="M8.719 4.034L-2.207.016 8.719-4.002c-1.746 2.372-1.736 5.618 0 8.036z" transform="matrix(-.3 0 0 -.3 .69 0)" fill-rule="evenodd" stroke-width=".625" stroke-linejoin="round"/></marker><marker orient="auto" id="b" overflow="visible"><path d="M-1.2 0l-1 1 3.5-1-3.5-1 1 1z" fill-rule="evenodd" stroke="#000" stroke-width=".2pt"/></marker><marker orient="auto" id="c" overflow="visible"><path d="M8.719 4.034L-2.207.016 8.719-4.002c-1.746 2.372-1.736 5.618 0 8.036z" transform="scale(.6)" fill-rule="evenodd" stroke-width=".625" stroke-linejoin="round"/></marker><marker orient="auto" id="a" overflow="visible"><path d="M1.2 0l1-1-3.5 1 3.5 1-1-1z" fill-rule="evenodd" stroke="#000" stroke-width=".2pt"/></marker></defs><path fill="#fff" stroke="#fff" stroke-width="1.062" stroke-linecap="round" stroke-linejoin="round" d="M13.981 222.766h716.133v606.83H13.981z"/><path d="M694.127 296.108h-298.08" fill="none" stroke="#000"/><path d="M463.305 349.686l25.784-44.538h137.75l-25.784 44.538z" fill="#b3b3b3" stroke="#b3b3b3"/><path d="M463.305 349.686v-62.619l25.871-44.589 137.663.05v62.62l-137.72-.05z" fill="#b3b3b3"/><path d="M463.305 349.686v-62.619M463.305 349.686h137.75M601.055 349.686l25.784-44.538M601.055 349.686v-62.619M626.84 305.148v-62.62M463.305 287.067l25.814-44.589M489.119 242.478h137.75M463.305 287.067h137.75M601.055 287.067l25.785-44.538" fill="none" stroke="#000" stroke-width="3" stroke-linecap="round" stroke-linejoin="round"/><path d="M555.207 960.528v-50.44M558.134 898.942l19.96-34.477" fill="none" stroke="#4d4d4d" stroke-width="3" stroke-linecap="round" stroke-linejoin="round" marker-start="url(#a)" marker-end="url(#b)" transform="translate(-23.027 -616.931)"/><path d="M694.127 296.108h-81.708" fill="none" stroke="#000" stroke-linecap="round"/><g stroke="#000"><path d="M348.047 296.107H49.967" fill="none"/><g color="#000" fill="#b3b3b3" stroke-linecap="round" stroke-linejoin="round"><path style="marker:none" d="M195.132 238.545v112.531c0 1.435 1.738 2.594 3.875 2.594s3.875-1.159 3.875-2.594V238.545h-7.75z" stroke-width="3" overflow="visible"/><path transform="matrix(0 .12214 .10646 0 161.85 176.941)" d="M525.572 349.087c0 20.072-9.523 36.344-21.27 36.344-11.748 0-21.271-16.272-21.271-36.344 0-20.073 9.523-36.345 21.27-36.345 11.748 0 21.271 16.272 21.271 36.345z" style="marker:none" stroke-width="26.309" overflow="visible"/></g></g><path style="marker:none" d="M486.302 329.72a21.27 36.345 0 1 1-2.406 29.628" transform="matrix(-.5747 0 0 .63756 704.033 73.675)" color="#000" fill="none" stroke="#000" stroke-width="3.304" stroke-linecap="round" stroke-linejoin="round" marker-start="url(#c)" overflow="visible"/><path style="marker:none" d="M486.302 329.72a21.27 36.345 0 1 1-2.406 29.628" transform="matrix(-.5747 0 0 .63756 359.44 73.675)" color="#000" fill="none" stroke="#000" stroke-width="3.304" stroke-linecap="round" stroke-linejoin="round" marker-start="url(#c)" overflow="visible"/><g stroke="#000" stroke-linecap="round"><g color="#000" fill="#b3b3b3" stroke-linejoin="round"><path d="M255.274 481.733v78.719H142.743c-8.695 0-15.75-17.638-15.75-39.375 0-21.738 7.055-39.344 15.75-39.344h112.531z" style="marker:none" stroke-width="3" overflow="visible"/><path transform="matrix(-.74016 0 0 1.08295 628.541 143.044)" d="M525.572 349.087c0 20.072-9.523 36.344-21.27 36.344-11.748 0-21.271-16.272-21.271-36.344 0-20.073 9.523-36.345 21.27-36.345 11.748 0 21.271 16.272 21.271 36.345z" style="marker:none" stroke-width="3.351" overflow="visible"/></g><path d="M348.047 521.092h-92.23m-128.675 0H49.968" fill="none"/><path style="marker:none" d="M584.018 521.09c0 21.5-17.43 38.93-38.931 38.93-21.5 0-38.93-17.43-38.93-38.93 0-21.501 17.43-38.93 38.93-38.93s38.93 17.429 38.93 38.93z" color="#000" fill="#b3b3b3" stroke-width="3.0000142" stroke-linejoin="round" overflow="visible"/><path d="M694.127 521.092h-122.23m-64.675 0H396.047" fill="none"/><path transform="matrix(-.5747 0 0 .63756 704.033 298.66)" d="M486.302 329.72c6.26-16.986 19.394-22.084 29.334-11.388 9.941 10.696 12.925 33.137 6.665 50.122-6.26 16.985-19.393 22.083-29.334 11.387-4.383-4.716-7.608-12.003-9.07-20.493" style="marker:none" color="#000" fill="none" stroke-width="3.304" stroke-linejoin="round" marker-start="url(#c)" overflow="visible"/><path style="marker:none" d="M486.302 329.72c6.26-16.986 19.394-22.084 29.334-11.388 9.941 10.696 12.925 33.137 6.665 50.122-6.26 16.985-19.393 22.083-29.334 11.387-4.383-4.716-7.608-12.003-9.07-20.493" transform="matrix(-.5747 0 0 .63756 359.44 298.66)" color="#000" fill="none" stroke-width="3.304" stroke-linejoin="round" marker-start="url(#c)" overflow="visible"/></g><g fill="#b3b3b3"><path d="M486.753 688.51l132.681 39.997-132.688 40z"/><path d="M58.063 986.488l61.15-184.426M180.365 986.488l-61.151-184.426" stroke="#000" stroke-width="4.373" stroke-linecap="round" stroke-linejoin="round" transform="matrix(0 .65408 -.71943 0 1196.462 650.532)"/></g><path transform="matrix(.75281 0 0 1.10147 107.107 344.034)" d="M525.572 349.087c0 20.072-9.523 36.344-21.27 36.344-11.748 0-21.271-16.272-21.271-36.344 0-20.073 9.523-36.345 21.27-36.345 11.748 0 21.271 16.272 21.271 36.345z" style="marker:none" color="#000" fill="#b3b3b3" stroke="#000" stroke-width="3.295" stroke-linecap="round" stroke-linejoin="round" overflow="visible"/><path d="M396.047 728.542h90.669m132.984 0h74.427" fill="none" stroke="#000" stroke-linecap="round"/><path transform="matrix(-.5747 0 0 .63756 704.033 505.978)" d="M486.302 329.72c6.26-16.986 19.394-22.084 29.334-11.388 9.941 10.696 12.925 33.137 6.665 50.122-6.26 16.985-19.393 22.083-29.334 11.387-4.383-4.716-7.608-12.003-9.07-20.493" style="marker:none" color="#000" fill="none" stroke="#000" stroke-width="3.304" stroke-linecap="round" stroke-linejoin="round" marker-start="url(#c)" overflow="visible"/><g stroke="#000" stroke-linecap="round"><g color="#000" stroke-linejoin="round"><path d="M255.455 689.178v78.719H142.892c-8.695 0-15.75-17.606-15.75-39.344 0-21.737 7.055-39.375 15.75-39.375h112.563z" style="marker:none" fill="#b3b3b3" stroke-width="3" overflow="visible"/><path style="marker:none" d="M525.572 349.087c0 20.072-9.523 36.344-21.27 36.344-11.748 0-21.271-16.272-21.271-36.344 0-20.073 9.523-36.345 21.27-36.345 11.748 0 21.271 16.272 21.271 36.345z" transform="matrix(-.74016 0 0 1.08295 628.703 350.503)" fill="#b3b3b3" stroke-width="3.351" overflow="visible"/><path transform="matrix(-.3648 0 0 .53374 439.407 542.223)" d="M525.572 349.087c0 20.072-9.523 36.344-21.27 36.344-11.748 0-21.271-16.272-21.271-36.344 0-20.073 9.523-36.345 21.27-36.345 11.748 0 21.271 16.272 21.271 36.345z" style="marker:none" fill="#f2f2f2" stroke-width="6.799" overflow="visible"/></g><path d="M348.047 728.553h-100.23m-120.675 0H49.968" fill="none"/></g><path transform="matrix(-.5747 0 0 .63756 359.44 506.12)" d="M486.302 329.72c6.26-16.986 19.394-22.084 29.334-11.388 9.941 10.696 12.925 33.137 6.665 50.122-6.26 16.985-19.393 22.083-29.334 11.387-4.383-4.716-7.608-12.003-9.07-20.493" style="marker:none" color="#000" fill="none" stroke="#000" stroke-width="3.304" stroke-linecap="round" stroke-linejoin="round" marker-start="url(#c)" overflow="visible"/><g transform="translate(-535.809 -12.683) scale(2.99997)" ns0:text="$I = m \\cdot r^2$" ns0:preamble="/home/waldgeist/sandbox/homepage/inkscape-preamble.tex"><defs><symbol overflow="visible" id="d"><path d="M3.734-6.047c.079-.36.11-.453.907-.453.234 0 .312 0 .312-.188 0-.125-.11-.125-.14-.125-.297 0-1.032.032-1.329.032-.296 0-1.015-.032-1.328-.032-.062 0-.187 0-.187.204 0 .109.078.109.281.109.406 0 .688 0 .688.188 0 .046 0 .078-.032.156L1.562-.781c-.093.375-.109.469-.906.469-.234 0-.312 0-.312.203 0 .109.11.109.14.109C.781 0 1.5-.031 1.797-.031c.297 0 1.031.031 1.328.031.078 0 .203 0 .203-.188 0-.124-.078-.124-.297-.124-.187 0-.234 0-.422-.016-.218-.016-.25-.063-.25-.172 0-.078.016-.156.032-.234z"/></symbol><symbol overflow="visible" id="f"><path d="M.875-.594c-.031.156-.094.39-.094.438 0 .172.14.265.297.265a.414.414 0 0 0 .375-.28c0-.016.125-.485.188-.735l.218-.89c.047-.235.11-.454.172-.673.031-.172.11-.469.125-.5.14-.312.672-1.219 1.625-1.219.453 0 .531.375.531.704 0 .25-.062.53-.14.828L3.89-1.5l-.204.75c-.03.203-.124.547-.124.594 0 .172.14.265.28.265.313 0 .376-.25.454-.562.14-.563.516-2.016.594-2.406.03-.125.562-1.329 1.656-1.329.422 0 .531.344.531.704 0 .562-.422 1.703-.625 2.234-.078.234-.125.344-.125.547 0 .469.344.812.813.812.937 0 1.312-1.453 1.312-1.53 0-.11-.094-.11-.125-.11-.094 0-.094.031-.14.187-.157.532-.47 1.235-1.016 1.235-.172 0-.25-.094-.25-.329 0-.25.094-.484.187-.703.188-.53.61-1.625.61-2.203 0-.64-.407-1.062-1.157-1.062-.734 0-1.25.437-1.625.968 0-.124-.03-.468-.312-.703-.25-.218-.563-.265-.813-.265-.906 0-1.39.64-1.562.875-.047-.578-.469-.875-.922-.875-.453 0-.64.39-.734.562-.172.36-.297.938-.297.969 0 .11.094.11.11.11.109 0 .109-.016.171-.235.172-.703.375-1.188.735-1.188.156 0 .296.079.296.454 0 .218-.03.328-.156.843z"/></symbol><symbol overflow="visible" id="h"><path d="M.875-.594c-.031.156-.094.39-.094.438 0 .172.14.265.297.265a.414.414 0 0 0 .375-.28c.016-.032.344-1.391.39-1.579.079-.328.266-1.016.313-1.297.047-.125.328-.594.563-.812.078-.063.375-.329.797-.329.265 0 .406.125.421.125-.296.047-.515.282-.515.547 0 .157.11.344.375.344s.547-.234.547-.594c0-.343-.313-.64-.828-.64-.641 0-1.079.484-1.266.765-.094-.453-.453-.765-.922-.765-.453 0-.64.39-.734.562-.172.344-.297.938-.297.969 0 .11.094.11.11.11.109 0 .109-.016.171-.235.172-.703.375-1.188.735-1.188.156 0 .296.079.296.454 0 .218-.03.328-.156.843z"/></symbol><symbol overflow="visible" id="e"><path d="M6.844-3.266c.156 0 .343 0 .343-.187 0-.203-.187-.203-.328-.203H.891c-.141 0-.329 0-.329.203 0 .187.188.187.329.187zm.015 1.938c.141 0 .329 0 .329-.203 0-.188-.188-.188-.344-.188H.89c-.141 0-.329 0-.329.188 0 .203.188.203.329.203z"/></symbol><symbol overflow="visible" id="g"><path d="M1.906-2.5a.524.524 0 1 0-.516.531.524.524 0 0 0 .516-.531z"/></symbol><symbol overflow="visible" id="i"><path d="M3.516-1.266H3.28c-.015.157-.094.563-.187.625-.047.047-.578.047-.688.047H1.125c.734-.64.984-.844 1.39-1.172.516-.406 1-.843 1-1.5 0-.843-.734-1.359-1.624-1.359-.86 0-1.454.61-1.454 1.25 0 .344.297.39.376.39.156 0 .359-.124.359-.374 0-.125-.047-.375-.406-.375.218-.485.687-.641 1.015-.641.703 0 1.063.547 1.063 1.11 0 .609-.438 1.078-.656 1.328L.516-.266C.437-.203.437-.187.437 0h2.876z"/></symbol></defs><use height="1052.362" width="744.094" xlink:href="#d" x="223.432" y="134.765"/><use height="1052.362" width="744.094" xlink:href="#e" x="231.361" y="134.765"/><use height="1052.362" width="744.094" xlink:href="#f" x="241.877" y="134.765"/><use height="1052.362" width="744.094" xlink:href="#g" x="252.838" y="134.765"/><use height="1052.362" width="744.094" xlink:href="#h" x="257.819" y="134.765"/><use height="1052.362" width="744.094" xlink:href="#i" x="262.591" y="131.149"/></g><g transform="translate(-556.144 196.696) scale(2.99997)" ns0:preamble="/home/waldgeist/sandbox/homepage/inkscape-preamble.tex" ns0:text="$I = \\frac{1}{2} \\cdot m \\cdot r^2$"><defs><symbol id="j" overflow="visible"><path d="M3.734-6.047c.079-.36.11-.453.907-.453.234 0 .312 0 .312-.188 0-.125-.11-.125-.14-.125-.297 0-1.032.032-1.329.032-.296 0-1.015-.032-1.328-.032-.062 0-.187 0-.187.204 0 .109.078.109.281.109.406 0 .688 0 .688.188 0 .046 0 .078-.032.156L1.562-.781c-.093.375-.109.469-.906.469-.234 0-.312 0-.312.203 0 .109.11.109.14.109C.781 0 1.5-.031 1.797-.031c.297 0 1.031.031 1.328.031.078 0 .203 0 .203-.188 0-.124-.078-.124-.297-.124-.187 0-.234 0-.422-.016-.218-.016-.25-.063-.25-.172 0-.078.016-.156.032-.234z"/></symbol><symbol id="o" overflow="visible"><path d="M.875-.594c-.031.156-.094.39-.094.438 0 .172.14.265.297.265a.414.414 0 0 0 .375-.28c0-.016.125-.485.188-.735l.218-.89c.047-.235.11-.454.172-.673.031-.172.11-.469.125-.5.14-.312.672-1.219 1.625-1.219.453 0 .531.375.531.704 0 .25-.062.53-.14.828L3.89-1.5l-.204.75c-.03.203-.124.547-.124.594 0 .172.14.265.28.265.313 0 .376-.25.454-.562.14-.563.516-2.016.594-2.406.03-.125.562-1.329 1.656-1.329.422 0 .531.344.531.704 0 .562-.422 1.703-.625 2.234-.078.234-.125.344-.125.547 0 .469.344.812.813.812.937 0 1.312-1.453 1.312-1.53 0-.11-.094-.11-.125-.11-.094 0-.094.031-.14.187-.157.532-.47 1.235-1.016 1.235-.172 0-.25-.094-.25-.329 0-.25.094-.484.187-.703.188-.53.61-1.625.61-2.203 0-.64-.407-1.062-1.157-1.062-.734 0-1.25.437-1.625.968 0-.124-.03-.468-.312-.703-.25-.218-.563-.265-.813-.265-.906 0-1.39.64-1.562.875-.047-.578-.469-.875-.922-.875-.453 0-.64.39-.734.562-.172.36-.297.938-.297.969 0 .11.094.11.11.11.109 0 .109-.016.171-.235.172-.703.375-1.188.735-1.188.156 0 .296.079.296.454 0 .218-.03.328-.156.843z"/></symbol><symbol id="p" overflow="visible"><path d="M.875-.594c-.031.156-.094.39-.094.438 0 .172.14.265.297.265a.414.414 0 0 0 .375-.28c.016-.032.344-1.391.39-1.579.079-.328.266-1.016.313-1.297.047-.125.328-.594.563-.812.078-.063.375-.329.797-.329.265 0 .406.125.421.125-.296.047-.515.282-.515.547 0 .157.11.344.375.344s.547-.234.547-.594c0-.343-.313-.64-.828-.64-.641 0-1.079.484-1.266.765-.094-.453-.453-.765-.922-.765-.453 0-.64.39-.734.562-.172.344-.297.938-.297.969 0 .11.094.11.11.11.109 0 .109-.016.171-.235.172-.703.375-1.188.735-1.188.156 0 .296.079.296.454 0 .218-.03.328-.156.843z"/></symbol><symbol id="k" overflow="visible"><path d="M6.844-3.266c.156 0 .343 0 .343-.187 0-.203-.187-.203-.328-.203H.891c-.141 0-.329 0-.329.203 0 .187.188.187.329.187zm.015 1.938c.141 0 .329 0 .329-.203 0-.188-.188-.188-.344-.188H.89c-.141 0-.329 0-.329.188 0 .203.188.203.329.203z"/></symbol><symbol id="l" overflow="visible"><path d="M2.328-4.438c0-.187 0-.187-.203-.187-.453.438-1.078.438-1.36.438v.25c.157 0 .626 0 1-.188v3.547c0 .234 0 .328-.687.328H.812V0c.125 0 .985-.031 1.235-.031.219 0 1.094.031 1.25.031v-.25H3.03c-.703 0-.703-.094-.703-.328z"/></symbol><symbol id="m" overflow="visible"><path d="M3.516-1.266H3.28c-.015.157-.094.563-.187.625-.047.047-.578.047-.688.047H1.125c.734-.64.984-.844 1.39-1.172.516-.406 1-.843 1-1.5 0-.843-.734-1.359-1.624-1.359-.86 0-1.454.61-1.454 1.25 0 .344.297.39.376.39.156 0 .359-.124.359-.374 0-.125-.047-.375-.406-.375.218-.485.687-.641 1.015-.641.703 0 1.063.547 1.063 1.11 0 .609-.438 1.078-.656 1.328L.516-.266C.437-.203.437-.187.437 0h2.876z"/></symbol><symbol id="n" overflow="visible"><path d="M1.906-2.5a.524.524 0 1 0-.516.531.524.524 0 0 0 .516-.531z"/></symbol></defs><use y="134.765" x="223.432" xlink:href="#j" width="744.094" height="1052.362"/><use y="134.765" x="231.361" xlink:href="#k" width="744.094" height="1052.362"/><use y="130.842" x="243.072" xlink:href="#l" width="744.094" height="1052.362"/><path d="M243.103 132.5h4" fill="none" stroke="#000" stroke-width=".5" stroke-miterlimit="10"/><use y="138.2" x="243.072" xlink:href="#m" width="744.094" height="1052.362"/><use y="134.765" x="250.453" xlink:href="#n" width="744.094" height="1052.362"/><use y="134.765" x="255.434" xlink:href="#o" width="744.094" height="1052.362"/><use y="134.765" x="266.395" xlink:href="#n" width="744.094" height="1052.362"/><use y="134.765" x="271.377" xlink:href="#p" width="744.094" height="1052.362"/><use y="131.149" x="276.148" xlink:href="#m" width="744.094" height="1052.362"/></g><g transform="translate(-599.824 402.908) scale(2.99997)" ns0:preamble="/home/waldgeist/sandbox/homepage/inkscape-preamble.tex" ns0:text="$I = \\frac{1}{2} \\cdot m \\cdot (r_{\\rm{a}}^2 + r_{\\rm{i}}^2)$"><defs><symbol id="q" overflow="visible"><path d="M3.734-6.047c.079-.36.11-.453.907-.453.234 0 .312 0 .312-.188 0-.125-.11-.125-.14-.125-.297 0-1.032.032-1.329.032-.296 0-1.015-.032-1.328-.032-.062 0-.187 0-.187.204 0 .109.078.109.281.109.406 0 .688 0 .688.188 0 .046 0 .078-.032.156L1.562-.781c-.093.375-.109.469-.906.469-.234 0-.312 0-.312.203 0 .109.11.109.14.109C.781 0 1.5-.031 1.797-.031c.297 0 1.031.031 1.328.031.078 0 .203 0 .203-.188 0-.124-.078-.124-.297-.124-.187 0-.234 0-.422-.016-.218-.016-.25-.063-.25-.172 0-.078.016-.156.032-.234z"/></symbol><symbol id="v" overflow="visible"><path d="M.875-.594c-.031.156-.094.39-.094.438 0 .172.14.265.297.265a.414.414 0 0 0 .375-.28c0-.016.125-.485.188-.735l.218-.89c.047-.235.11-.454.172-.673.031-.172.11-.469.125-.5.14-.312.672-1.219 1.625-1.219.453 0 .531.375.531.704 0 .25-.062.53-.14.828L3.89-1.5l-.204.75c-.03.203-.124.547-.124.594 0 .172.14.265.28.265.313 0 .376-.25.454-.562.14-.563.516-2.016.594-2.406.03-.125.562-1.329 1.656-1.329.422 0 .531.344.531.704 0 .562-.422 1.703-.625 2.234-.078.234-.125.344-.125.547 0 .469.344.812.813.812.937 0 1.312-1.453 1.312-1.53 0-.11-.094-.11-.125-.11-.094 0-.094.031-.14.187-.157.532-.47 1.235-1.016 1.235-.172 0-.25-.094-.25-.329 0-.25.094-.484.187-.703.188-.53.61-1.625.61-2.203 0-.64-.407-1.062-1.157-1.062-.734 0-1.25.437-1.625.968 0-.124-.03-.468-.312-.703-.25-.218-.563-.265-.813-.265-.906 0-1.39.64-1.562.875-.047-.578-.469-.875-.922-.875-.453 0-.64.39-.734.562-.172.36-.297.938-.297.969 0 .11.094.11.11.11.109 0 .109-.016.171-.235.172-.703.375-1.188.735-1.188.156 0 .296.079.296.454 0 .218-.03.328-.156.843z"/></symbol><symbol id="x" overflow="visible"><path d="M.875-.594c-.031.156-.094.39-.094.438 0 .172.14.265.297.265a.414.414 0 0 0 .375-.28c.016-.032.344-1.391.39-1.579.079-.328.266-1.016.313-1.297.047-.125.328-.594.563-.812.078-.063.375-.329.797-.329.265 0 .406.125.421.125-.296.047-.515.282-.515.547 0 .157.11.344.375.344s.547-.234.547-.594c0-.343-.313-.64-.828-.64-.641 0-1.079.484-1.266.765-.094-.453-.453-.765-.922-.765-.453 0-.64.39-.734.562-.172.344-.297.938-.297.969 0 .11.094.11.11.11.109 0 .109-.016.171-.235.172-.703.375-1.188.735-1.188.156 0 .296.079.296.454 0 .218-.03.328-.156.843z"/></symbol><symbol id="r" overflow="visible"><path d="M6.844-3.266c.156 0 .343 0 .343-.187 0-.203-.187-.203-.328-.203H.891c-.141 0-.329 0-.329.203 0 .187.188.187.329.187zm.015 1.938c.141 0 .329 0 .329-.203 0-.188-.188-.188-.344-.188H.89c-.141 0-.329 0-.329.188 0 .203.188.203.329.203z"/></symbol><symbol id="w" overflow="visible"><path d="M3.297 2.39c0-.03 0-.046-.172-.218C1.891.922 1.562-.968 1.562-2.5c0-1.734.375-3.469 1.61-4.703.125-.125.125-.14.125-.172 0-.078-.031-.11-.094-.11-.11 0-1 .688-1.594 1.954C1.11-4.438.984-3.328.984-2.5c0 .781.11 1.984.657 3.125C2.25 1.844 3.094 2.5 3.203 2.5c.063 0 .094-.031.094-.11z"/></symbol><symbol id="z" overflow="visible"><path d="M4.078-2.297H6.86c.141 0 .329 0 .329-.203 0-.188-.188-.188-.329-.188H4.08v-2.796c0-.141 0-.329-.204-.329-.203 0-.203.188-.203.329v2.796H.89c-.141 0-.329 0-.329.188 0 .203.188.203.329.203h2.78V.5c0 .14 0 .328.204.328.203 0 .203-.187.203-.328z"/></symbol><symbol id="B" overflow="visible"><path d="M2.875-2.5c0-.766-.11-1.969-.656-3.11C1.625-6.827.766-7.483.672-7.483a.107.107 0 0 0-.11.109c0 .031 0 .047.188.234.984.985 1.547 2.563 1.547 4.641 0 1.719-.36 3.469-1.594 4.719-.14.125-.14.14-.14.172 0 .062.046.109.109.109.094 0 1-.688 1.578-1.953.516-1.094.625-2.203.625-3.047z"/></symbol><symbol id="s" overflow="visible"><path d="M2.328-4.438c0-.187 0-.187-.203-.187-.453.438-1.078.438-1.36.438v.25c.157 0 .626 0 1-.188v3.547c0 .234 0 .328-.687.328H.812V0c.125 0 .985-.031 1.235-.031.219 0 1.094.031 1.25.031v-.25H3.03c-.703 0-.703-.094-.703-.328z"/></symbol><symbol id="t" overflow="visible"><path d="M3.516-1.266H3.28c-.015.157-.094.563-.187.625-.047.047-.578.047-.688.047H1.125c.734-.64.984-.844 1.39-1.172.516-.406 1-.843 1-1.5 0-.843-.734-1.359-1.624-1.359-.86 0-1.454.61-1.454 1.25 0 .344.297.39.376.39.156 0 .359-.124.359-.374 0-.125-.047-.375-.406-.375.218-.485.687-.641 1.015-.641.703 0 1.063.547 1.063 1.11 0 .609-.438 1.078-.656 1.328L.516-.266C.437-.203.437-.187.437 0h2.876z"/></symbol><symbol id="y" overflow="visible"><path d="M3.11-1.875c0-.36 0-.625-.329-.89C2.5-3 2.171-3.11 1.75-3.11c-.656 0-1.125.25-1.125.671 0 .235.156.344.344.344a.32.32 0 0 0 .328-.328.319.319 0 0 0-.25-.312c.25-.172.656-.172.687-.172.391 0 .829.25.829.844v.203c-.391.015-.844.046-1.36.234-.625.219-.812.61-.812.922 0 .594.718.765 1.218.765.547 0 .875-.312 1.032-.578.015.282.203.547.53.547.017 0 .688 0 .688-.656v-.39h-.234v.374c0 .079 0 .407-.266.407-.25 0-.25-.329-.25-.407zm-.547.89c0 .672-.594.86-.907.86-.36 0-.687-.234-.687-.578 0-.39.328-.922 1.594-.969z"/></symbol><symbol id="A" overflow="visible"><path d="M1.469-4.297a.413.413 0 0 0-.407-.406.4.4 0 0 0-.39.406.4.4 0 0 0 .39.406.394.394 0 0 0 .407-.406zM.406-3v.25c.438 0 .5.047.5.39v1.813c0 .297-.062.297-.515.297V0c.015 0 .5-.031.78-.031.25 0 .5.015.735.031v-.25c-.406 0-.468 0-.468-.297v-2.531z"/></symbol><symbol id="u" overflow="visible"><path d="M1.906-2.5a.524.524 0 1 0-.516.531.524.524 0 0 0 .516-.531z"/></symbol></defs><use y="134.765" x="223.432" xlink:href="#q" width="744.094" height="1052.362"/><use y="134.765" x="231.361" xlink:href="#r" width="744.094" height="1052.362"/><use y="130.842" x="243.072" xlink:href="#s" width="744.094" height="1052.362"/><path d="M243.103 132.5h4" fill="none" stroke="#000" stroke-width=".5" stroke-miterlimit="10"/><use y="138.2" x="243.072" xlink:href="#t" width="744.094" height="1052.362"/><use y="134.765" x="250.453" xlink:href="#u" width="744.094" height="1052.362"/><use y="134.765" x="255.434" xlink:href="#v" width="744.094" height="1052.362"/><use y="134.765" x="266.395" xlink:href="#u" width="744.094" height="1052.362"/><use y="134.765" x="271.377" xlink:href="#w" width="744.094" height="1052.362"/><use y="134.765" x="275.251" xlink:href="#x" width="744.094" height="1052.362"/><use y="131.149" x="280.022" xlink:href="#t" width="744.094" height="1052.362"/><use y="137.228" x="279.746" xlink:href="#y" width="744.094" height="1052.362"/><use y="134.765" x="286.706" xlink:href="#z" width="744.094" height="1052.362"/><use y="134.765" x="296.668" xlink:href="#x" width="744.094" height="1052.362"/><use y="131.149" x="301.44" xlink:href="#t" width="744.094" height="1052.362"/><use y="137.434" x="301.163" xlink:href="#A" width="744.094" height="1052.362"/><use y="134.765" x="305.909" xlink:href="#B" width="744.094" height="1052.362"/></g><g ns0:text="$I = \\frac{2}{5} \\cdot m \\cdot r^2$" ns0:preamble="/home/waldgeist/sandbox/homepage/inkscape-preamble.tex" transform="translate(-210.065 196.696) scale(2.99997)"><defs><symbol overflow="visible" id="C"><path d="M3.734-6.047c.079-.36.11-.453.907-.453.234 0 .312 0 .312-.188 0-.125-.11-.125-.14-.125-.297 0-1.032.032-1.329.032-.296 0-1.015-.032-1.328-.032-.062 0-.187 0-.187.204 0 .109.078.109.281.109.406 0 .688 0 .688.188 0 .046 0 .078-.032.156L1.562-.781c-.093.375-.109.469-.906.469-.234 0-.312 0-.312.203 0 .109.11.109.14.109C.781 0 1.5-.031 1.797-.031c.297 0 1.031.031 1.328.031.078 0 .203 0 .203-.188 0-.124-.078-.124-.297-.124-.187 0-.234 0-.422-.016-.218-.016-.25-.063-.25-.172 0-.078.016-.156.032-.234z"/></symbol><symbol overflow="visible" id="H"><path d="M.875-.594c-.031.156-.094.39-.094.438 0 .172.14.265.297.265a.414.414 0 0 0 .375-.28c0-.016.125-.485.188-.735l.218-.89c.047-.235.11-.454.172-.673.031-.172.11-.469.125-.5.14-.312.672-1.219 1.625-1.219.453 0 .531.375.531.704 0 .25-.062.53-.14.828L3.89-1.5l-.204.75c-.03.203-.124.547-.124.594 0 .172.14.265.28.265.313 0 .376-.25.454-.562.14-.563.516-2.016.594-2.406.03-.125.562-1.329 1.656-1.329.422 0 .531.344.531.704 0 .562-.422 1.703-.625 2.234-.078.234-.125.344-.125.547 0 .469.344.812.813.812.937 0 1.312-1.453 1.312-1.53 0-.11-.094-.11-.125-.11-.094 0-.094.031-.14.187-.157.532-.47 1.235-1.016 1.235-.172 0-.25-.094-.25-.329 0-.25.094-.484.187-.703.188-.53.61-1.625.61-2.203 0-.64-.407-1.062-1.157-1.062-.734 0-1.25.437-1.625.968 0-.124-.03-.468-.312-.703-.25-.218-.563-.265-.813-.265-.906 0-1.39.64-1.562.875-.047-.578-.469-.875-.922-.875-.453 0-.64.39-.734.562-.172.36-.297.938-.297.969 0 .11.094.11.11.11.109 0 .109-.016.171-.235.172-.703.375-1.188.735-1.188.156 0 .296.079.296.454 0 .218-.03.328-.156.843z"/></symbol><symbol overflow="visible" id="I"><path d="M.875-.594c-.031.156-.094.39-.094.438 0 .172.14.265.297.265a.414.414 0 0 0 .375-.28c.016-.032.344-1.391.39-1.579.079-.328.266-1.016.313-1.297.047-.125.328-.594.563-.812.078-.063.375-.329.797-.329.265 0 .406.125.421.125-.296.047-.515.282-.515.547 0 .157.11.344.375.344s.547-.234.547-.594c0-.343-.313-.64-.828-.64-.641 0-1.079.484-1.266.765-.094-.453-.453-.765-.922-.765-.453 0-.64.39-.734.562-.172.344-.297.938-.297.969 0 .11.094.11.11.11.109 0 .109-.016.171-.235.172-.703.375-1.188.735-1.188.156 0 .296.079.296.454 0 .218-.03.328-.156.843z"/></symbol><symbol overflow="visible" id="D"><path d="M6.844-3.266c.156 0 .343 0 .343-.187 0-.203-.187-.203-.328-.203H.891c-.141 0-.329 0-.329.203 0 .187.188.187.329.187zm.015 1.938c.141 0 .329 0 .329-.203 0-.188-.188-.188-.344-.188H.89c-.141 0-.329 0-.329.188 0 .203.188.203.329.203z"/></symbol><symbol overflow="visible" id="E"><path d="M3.516-1.266H3.28c-.015.157-.094.563-.187.625-.047.047-.578.047-.688.047H1.125c.734-.64.984-.844 1.39-1.172.516-.406 1-.843 1-1.5 0-.843-.734-1.359-1.624-1.359-.86 0-1.454.61-1.454 1.25 0 .344.297.39.376.39.156 0 .359-.124.359-.374 0-.125-.047-.375-.406-.375.218-.485.687-.641 1.015-.641.703 0 1.063.547 1.063 1.11 0 .609-.438 1.078-.656 1.328L.516-.266C.437-.203.437-.187.437 0h2.876z"/></symbol><symbol overflow="visible" id="F"><path d="M1.078-3.89c.36.093.563.093.672.093.922 0 1.469-.625 1.469-.734 0-.078-.047-.094-.078-.094-.016 0-.032 0-.063.016-.172.062-.531.203-1.047.203-.203 0-.562-.016-1.015-.188-.079-.031-.094-.031-.094-.031-.094 0-.094.078-.094.188v2.046c0 .125 0 .204.11.204.062 0 .078 0 .14-.094.297-.375.734-.438.969-.438.422 0 .61.328.64.39.126.235.172.5.172.907 0 .203 0 .61-.218.922a.984.984 0 0 1-.813.422c-.453 0-.922-.25-1.094-.719.266.016.407-.156.407-.344 0-.296-.266-.343-.36-.343 0 0-.344 0-.344.375 0 .625.579 1.25 1.407 1.25.89 0 1.672-.657 1.672-1.547 0-.782-.594-1.5-1.454-1.5-.312 0-.671.062-.984.328z"/></symbol><symbol overflow="visible" id="G"><path d="M1.906-2.5a.524.524 0 1 0-.516.531.524.524 0 0 0 .516-.531z"/></symbol></defs><use height="1052.362" width="744.094" xlink:href="#C" x="223.432" y="134.765"/><use height="1052.362" width="744.094" xlink:href="#D" x="231.361" y="134.765"/><use height="1052.362" width="744.094" xlink:href="#E" x="243.072" y="130.842"/><path d="M243.049 132.5h4" fill="none" stroke="#000" stroke-width=".5" stroke-miterlimit="10"/><use height="1052.362" width="744.094" xlink:href="#F" x="243.072" y="138.2"/><use height="1052.362" width="744.094" xlink:href="#G" x="250.453" y="134.765"/><use height="1052.362" width="744.094" xlink:href="#H" x="255.434" y="134.765"/><use height="1052.362" width="744.094" xlink:href="#G" x="266.395" y="134.765"/><use height="1052.362" width="744.094" xlink:href="#I" x="271.377" y="134.765"/><use height="1052.362" width="744.094" xlink:href="#E" x="276.148" y="131.149"/></g><g transform="translate(-216.021 402.908) scale(2.99997)" ns0:preamble="/home/waldgeist/sandbox/homepage/inkscape-preamble.tex" ns0:text="$I = \\frac{3}{10} \\cdot m \\cdot r^2$"><defs><symbol id="J" overflow="visible"><path d="M3.734-6.047c.079-.36.11-.453.907-.453.234 0 .312 0 .312-.188 0-.125-.11-.125-.14-.125-.297 0-1.032.032-1.329.032-.296 0-1.015-.032-1.328-.032-.062 0-.187 0-.187.204 0 .109.078.109.281.109.406 0 .688 0 .688.188 0 .046 0 .078-.032.156L1.562-.781c-.093.375-.109.469-.906.469-.234 0-.312 0-.312.203 0 .109.11.109.14.109C.781 0 1.5-.031 1.797-.031c.297 0 1.031.031 1.328.031.078 0 .203 0 .203-.188 0-.124-.078-.124-.297-.124-.187 0-.234 0-.422-.016-.218-.016-.25-.063-.25-.172 0-.078.016-.156.032-.234z"/></symbol><symbol id="P" overflow="visible"><path d="M.875-.594c-.031.156-.094.39-.094.438 0 .172.14.265.297.265a.414.414 0 0 0 .375-.28c0-.016.125-.485.188-.735l.218-.89c.047-.235.11-.454.172-.673.031-.172.11-.469.125-.5.14-.312.672-1.219 1.625-1.219.453 0 .531.375.531.704 0 .25-.062.53-.14.828L3.89-1.5l-.204.75c-.03.203-.124.547-.124.594 0 .172.14.265.28.265.313 0 .376-.25.454-.562.14-.563.516-2.016.594-2.406.03-.125.562-1.329 1.656-1.329.422 0 .531.344.531.704 0 .562-.422 1.703-.625 2.234-.078.234-.125.344-.125.547 0 .469.344.812.813.812.937 0 1.312-1.453 1.312-1.53 0-.11-.094-.11-.125-.11-.094 0-.094.031-.14.187-.157.532-.47 1.235-1.016 1.235-.172 0-.25-.094-.25-.329 0-.25.094-.484.187-.703.188-.53.61-1.625.61-2.203 0-.64-.407-1.062-1.157-1.062-.734 0-1.25.437-1.625.968 0-.124-.03-.468-.312-.703-.25-.218-.563-.265-.813-.265-.906 0-1.39.64-1.562.875-.047-.578-.469-.875-.922-.875-.453 0-.64.39-.734.562-.172.36-.297.938-.297.969 0 .11.094.11.11.11.109 0 .109-.016.171-.235.172-.703.375-1.188.735-1.188.156 0 .296.079.296.454 0 .218-.03.328-.156.843z"/></symbol><symbol id="Q" overflow="visible"><path d="M.875-.594c-.031.156-.094.39-.094.438 0 .172.14.265.297.265a.414.414 0 0 0 .375-.28c.016-.032.344-1.391.39-1.579.079-.328.266-1.016.313-1.297.047-.125.328-.594.563-.812.078-.063.375-.329.797-.329.265 0 .406.125.421.125-.296.047-.515.282-.515.547 0 .157.11.344.375.344s.547-.234.547-.594c0-.343-.313-.64-.828-.64-.641 0-1.079.484-1.266.765-.094-.453-.453-.765-.922-.765-.453 0-.64.39-.734.562-.172.344-.297.938-.297.969 0 .11.094.11.11.11.109 0 .109-.016.171-.235.172-.703.375-1.188.735-1.188.156 0 .296.079.296.454 0 .218-.03.328-.156.843z"/></symbol><symbol id="K" overflow="visible"><path d="M6.844-3.266c.156 0 .343 0 .343-.187 0-.203-.187-.203-.328-.203H.891c-.141 0-.329 0-.329.203 0 .187.188.187.329.187zm.015 1.938c.141 0 .329 0 .329-.203 0-.188-.188-.188-.344-.188H.89c-.141 0-.329 0-.329.188 0 .203.188.203.329.203z"/></symbol><symbol id="L" overflow="visible"><path d="M1.906-2.328c.547 0 .938.375.938 1.125 0 .86-.516 1.125-.906 1.125-.282 0-.907-.078-1.188-.5.328 0 .406-.235.406-.39 0-.22-.172-.376-.39-.376a.38.38 0 0 0-.391.407C.375-.281 1.094.14 1.938.14c.968 0 1.64-.657 1.64-1.344 0-.547-.437-1.094-1.203-1.25.719-.266.984-.781.984-1.219 0-.547-.625-.953-1.406-.953-.766 0-1.36.375-1.36.938 0 .234.157.359.36.359.219 0 .36-.156.36-.344 0-.203-.141-.36-.36-.375.25-.297.719-.375.985-.375.312 0 .75.156.75.75 0 .297-.094.625-.282.828-.219.266-.422.281-.765.313-.172.015-.188.015-.22.015-.015 0-.077.016-.077.094 0 .094.062.094.187.094z"/></symbol><symbol id="M" overflow="visible"><path d="M2.328-4.438c0-.187 0-.187-.203-.187-.453.438-1.078.438-1.36.438v.25c.157 0 .626 0 1-.188v3.547c0 .234 0 .328-.687.328H.812V0c.125 0 .985-.031 1.235-.031.219 0 1.094.031 1.25.031v-.25H3.03c-.703 0-.703-.094-.703-.328z"/></symbol><symbol id="N" overflow="visible"><path d="M3.594-2.219c0-.765-.094-1.328-.406-1.812-.22-.313-.657-.594-1.204-.594C.36-4.625.36-2.719.36-2.219c0 .5 0 2.36 1.625 2.36 1.61 0 1.61-1.86 1.61-2.36zM1.984-.063c-.328 0-.75-.187-.89-.75C1-1.219 1-1.796 1-2.313c0-.515 0-1.046.094-1.421.156-.547.593-.704.89-.704.375 0 .735.235.86.641.11.375.125.875.125 1.485 0 .515 0 1.03-.094 1.468-.14.64-.61.781-.89.781z"/></symbol><symbol id="R" overflow="visible"><path d="M3.516-1.266H3.28c-.015.157-.094.563-.187.625-.047.047-.578.047-.688.047H1.125c.734-.64.984-.844 1.39-1.172.516-.406 1-.843 1-1.5 0-.843-.734-1.359-1.624-1.359-.86 0-1.454.61-1.454 1.25 0 .344.297.39.376.39.156 0 .359-.124.359-.374 0-.125-.047-.375-.406-.375.218-.485.687-.641 1.015-.641.703 0 1.063.547 1.063 1.11 0 .609-.438 1.078-.656 1.328L.516-.266C.437-.203.437-.187.437 0h2.876z"/></symbol><symbol id="O" overflow="visible"><path d="M1.906-2.5a.524.524 0 1 0-.516.531.524.524 0 0 0 .516-.531z"/></symbol></defs><use y="134.765" x="223.432" xlink:href="#J" width="744.094" height="1052.362"/><use y="134.765" x="231.361" xlink:href="#K" width="744.094" height="1052.362"/><use y="130.842" x="245.058" xlink:href="#L" width="744.094" height="1052.362"/><path d="M243.035 132.5h8" fill="none" stroke="#000" stroke-width=".5" stroke-miterlimit="10"/><use y="138.2" x="243.072" xlink:href="#M" width="744.094" height="1052.362"/><use y="138.2" x="247.044" xlink:href="#N" width="744.094" height="1052.362"/><use y="134.765" x="254.424" xlink:href="#O" width="744.094" height="1052.362"/><use y="134.765" x="259.405" xlink:href="#P" width="744.094" height="1052.362"/><use y="134.765" x="270.367" xlink:href="#O" width="744.094" height="1052.362"/><use y="134.765" x="275.348" xlink:href="#Q" width="744.094" height="1052.362"/><g><use y="131.149" x="280.119" xlink:href="#R" width="744.094" height="1052.362"/></g></g><g ns0:text="$I = \\frac{1}{12} \\cdot m \\cdot (b^2 + h^2)$" ns0:preamble="/home/waldgeist/sandbox/homepage/inkscape-preamble.tex" transform="translate(-260.41 -12.683) scale(2.99997)"><defs><symbol overflow="visible" id="S"><path d="M3.734-6.047c.079-.36.11-.453.907-.453.234 0 .312 0 .312-.188 0-.125-.11-.125-.14-.125-.297 0-1.032.032-1.329.032-.296 0-1.015-.032-1.328-.032-.062 0-.187 0-.187.204 0 .109.078.109.281.109.406 0 .688 0 .688.188 0 .046 0 .078-.032.156L1.562-.781c-.093.375-.109.469-.906.469-.234 0-.312 0-.312.203 0 .109.11.109.14.109C.781 0 1.5-.031 1.797-.031c.297 0 1.031.031 1.328.031.078 0 .203 0 .203-.188 0-.124-.078-.124-.297-.124-.187 0-.234 0-.422-.016-.218-.016-.25-.063-.25-.172 0-.078.016-.156.032-.234z"/></symbol><symbol overflow="visible" id="X"><path d="M.875-.594c-.031.156-.094.39-.094.438 0 .172.14.265.297.265a.414.414 0 0 0 .375-.28c0-.016.125-.485.188-.735l.218-.89c.047-.235.11-.454.172-.673.031-.172.11-.469.125-.5.14-.312.672-1.219 1.625-1.219.453 0 .531.375.531.704 0 .25-.062.53-.14.828L3.89-1.5l-.204.75c-.03.203-.124.547-.124.594 0 .172.14.265.28.265.313 0 .376-.25.454-.562.14-.563.516-2.016.594-2.406.03-.125.562-1.329 1.656-1.329.422 0 .531.344.531.704 0 .562-.422 1.703-.625 2.234-.078.234-.125.344-.125.547 0 .469.344.812.813.812.937 0 1.312-1.453 1.312-1.53 0-.11-.094-.11-.125-.11-.094 0-.094.031-.14.187-.157.532-.47 1.235-1.016 1.235-.172 0-.25-.094-.25-.329 0-.25.094-.484.187-.703.188-.53.61-1.625.61-2.203 0-.64-.407-1.062-1.157-1.062-.734 0-1.25.437-1.625.968 0-.124-.03-.468-.312-.703-.25-.218-.563-.265-.813-.265-.906 0-1.39.64-1.562.875-.047-.578-.469-.875-.922-.875-.453 0-.64.39-.734.562-.172.36-.297.938-.297.969 0 .11.094.11.11.11.109 0 .109-.016.171-.235.172-.703.375-1.188.735-1.188.156 0 .296.079.296.454 0 .218-.03.328-.156.843z"/></symbol><symbol overflow="visible" id="Z"><path d="M2.375-6.813s0-.109-.125-.109c-.219 0-.953.078-1.219.11-.078 0-.187.015-.187.187 0 .125.094.125.25.125.468 0 .484.063.484.172 0 .062-.078.406-.125.61l-.828 3.25c-.11.5-.156.671-.156 1.015C.469-.516 1 .109 1.734.109c1.172 0 2.407-1.484 2.407-2.921 0-.907-.532-1.594-1.329-1.594-.453 0-.874.297-1.171.593zm-.922 3.766c.047-.219.047-.234.14-.344.485-.64.938-.796 1.204-.796.36 0 .625.296.625.937 0 .594-.328 1.734-.516 2.11-.328.671-.781 1.03-1.172 1.03-.343 0-.671-.265-.671-1 0-.202 0-.39.156-1.015z"/></symbol><symbol overflow="visible" id="ab"><path d="M2.86-6.813s0-.109-.126-.109c-.234 0-.953.078-1.218.11-.079 0-.188.015-.188.187 0 .125.094.125.234.125.485 0 .5.063.5.172l-.03.203L.593-.391C.547-.25.547-.234.547-.17c0 .234.203.28.297.28a.407.407 0 0 0 .36-.265l.187-.75.218-.89c.063-.235.125-.454.172-.673.016-.062.11-.39.11-.453.03-.094.343-.64.687-.922.219-.156.516-.344.953-.344.422 0 .531.344.531.704 0 .53-.375 1.625-.609 2.234-.078.219-.14.344-.14.547 0 .469.359.812.828.812.937 0 1.296-1.453 1.296-1.53 0-.11-.078-.11-.109-.11-.11 0-.11.031-.156.187-.14.532-.469 1.235-1.016 1.235-.172 0-.234-.094-.234-.329 0-.25.078-.484.172-.703.156-.437.61-1.625.61-2.203 0-.64-.391-1.062-1.141-1.062-.626 0-1.11.312-1.485.765z"/></symbol><symbol overflow="visible" id="T"><path d="M6.844-3.266c.156 0 .343 0 .343-.187 0-.203-.187-.203-.328-.203H.891c-.141 0-.329 0-.329.203 0 .187.188.187.329.187zm.015 1.938c.141 0 .329 0 .329-.203 0-.188-.188-.188-.344-.188H.89c-.141 0-.329 0-.329.188 0 .203.188.203.329.203z"/></symbol><symbol overflow="visible" id="Y"><path d="M3.297 2.39c0-.03 0-.046-.172-.218C1.891.922 1.562-.968 1.562-2.5c0-1.734.375-3.469 1.61-4.703.125-.125.125-.14.125-.172 0-.078-.031-.11-.094-.11-.11 0-1 .688-1.594 1.954C1.11-4.438.984-3.328.984-2.5c0 .781.11 1.984.657 3.125C2.25 1.844 3.094 2.5 3.203 2.5c.063 0 .094-.031.094-.11z"/></symbol><symbol overflow="visible" id="aa"><path d="M4.078-2.297H6.86c.141 0 .329 0 .329-.203 0-.188-.188-.188-.329-.188H4.08v-2.796c0-.141 0-.329-.204-.329-.203 0-.203.188-.203.329v2.796H.89c-.141 0-.329 0-.329.188 0 .203.188.203.329.203h2.78V.5c0 .14 0 .328.204.328.203 0 .203-.187.203-.328z"/></symbol><symbol overflow="visible" id="ac"><path d="M2.875-2.5c0-.766-.11-1.969-.656-3.11C1.625-6.827.766-7.483.672-7.483a.107.107 0 0 0-.11.109c0 .031 0 .047.188.234.984.985 1.547 2.563 1.547 4.641 0 1.719-.36 3.469-1.594 4.719-.14.125-.14.14-.14.172 0 .062.046.109.109.109.094 0 1-.688 1.578-1.953.516-1.094.625-2.203.625-3.047z"/></symbol><symbol overflow="visible" id="U"><path d="M2.328-4.438c0-.187 0-.187-.203-.187-.453.438-1.078.438-1.36.438v.25c.157 0 .626 0 1-.188v3.547c0 .234 0 .328-.687.328H.812V0c.125 0 .985-.031 1.235-.031.219 0 1.094.031 1.25.031v-.25H3.03c-.703 0-.703-.094-.703-.328z"/></symbol><symbol overflow="visible" id="V"><path d="M3.516-1.266H3.28c-.015.157-.094.563-.187.625-.047.047-.578.047-.688.047H1.125c.734-.64.984-.844 1.39-1.172.516-.406 1-.843 1-1.5 0-.843-.734-1.359-1.624-1.359-.86 0-1.454.61-1.454 1.25 0 .344.297.39.376.39.156 0 .359-.124.359-.374 0-.125-.047-.375-.406-.375.218-.485.687-.641 1.015-.641.703 0 1.063.547 1.063 1.11 0 .609-.438 1.078-.656 1.328L.516-.266C.437-.203.437-.187.437 0h2.876z"/></symbol><symbol overflow="visible" id="W"><path d="M1.906-2.5a.524.524 0 1 0-.516.531.524.524 0 0 0 .516-.531z"/></symbol></defs><use height="1052.362" width="744.094" xlink:href="#S" x="223.432" y="134.765"/><use height="1052.362" width="744.094" xlink:href="#T" x="231.361" y="134.765"/><use height="1052.362" width="744.094" xlink:href="#U" x="245.058" y="130.842"/><path d="M243.09 132.5h8" fill="none" stroke="#000" stroke-width=".5" stroke-miterlimit="10"/><use height="1052.362" width="744.094" xlink:href="#U" x="243.072" y="138.2"/><use height="1052.362" width="744.094" xlink:href="#V" x="247.044" y="138.2"/><use height="1052.362" width="744.094" xlink:href="#W" x="254.424" y="134.765"/><use height="1052.362" width="744.094" xlink:href="#X" x="259.405" y="134.765"/><use height="1052.362" width="744.094" xlink:href="#W" x="270.367" y="134.765"/><use height="1052.362" width="744.094" xlink:href="#Y" x="275.348" y="134.765"/><use height="1052.362" width="744.094" xlink:href="#Z" x="279.222" y="134.765"/><use height="1052.362" width="744.094" xlink:href="#V" x="283.498" y="131.149"/><use height="1052.362" width="744.094" xlink:href="#aa" x="290.181" y="134.765"/><use height="1052.362" width="744.094" xlink:href="#ab" x="300.144" y="134.765"/><use height="1052.362" width="744.094" xlink:href="#V" x="305.884" y="131.149"/><g><use height="1052.362" width="744.094" xlink:href="#ac" x="310.353" y="134.765"/></g></g><g transform="matrix(2.39998 0 0 2.39998 -8.622 -54.16)" ns0:preamble="/home/waldgeist/sandbox/homepage/inkscape-preamble.tex" ns0:text="$b$"><defs><symbol id="ad" overflow="visible"><path d="M2.375-6.813s0-.109-.125-.109c-.219 0-.953.078-1.219.11-.078 0-.187.015-.187.187 0 .125.094.125.25.125.468 0 .484.063.484.172 0 .062-.078.406-.125.61l-.828 3.25c-.11.5-.156.671-.156 1.015C.469-.516 1 .109 1.734.109c1.172 0 2.407-1.484 2.407-2.921 0-.907-.532-1.594-1.329-1.594-.453 0-.874.297-1.171.593zm-.922 3.766c.047-.219.047-.234.14-.344.485-.64.938-.796 1.204-.796.36 0 .625.296.625.937 0 .594-.328 1.734-.516 2.11-.328.671-.781 1.03-1.172 1.03-.343 0-.671-.265-.671-1 0-.202 0-.39.156-1.015z"/></symbol></defs><use y="134.765" x="223.432" xlink:href="#ad" width="744.094" height="1052.362"/></g><g ns0:text="$h$" ns0:preamble="/home/waldgeist/sandbox/homepage/inkscape-preamble.tex" transform="translate(-160.618 -69.821) scale(2.99997)"><defs><symbol overflow="visible" id="ae"><path d="M2.86-6.813s0-.109-.126-.109c-.234 0-.953.078-1.218.11-.079 0-.188.015-.188.187 0 .125.094.125.234.125.485 0 .5.063.5.172l-.03.203L.593-.391C.547-.25.547-.234.547-.17c0 .234.203.28.297.28a.407.407 0 0 0 .36-.265l.187-.75.218-.89c.063-.235.125-.454.172-.673.016-.062.11-.39.11-.453.03-.094.343-.64.687-.922.219-.156.516-.344.953-.344.422 0 .531.344.531.704 0 .53-.375 1.625-.609 2.234-.078.219-.14.344-.14.547 0 .469.359.812.828.812.937 0 1.296-1.453 1.296-1.53 0-.11-.078-.11-.109-.11-.11 0-.11.031-.156.187-.14.532-.469 1.235-1.016 1.235-.172 0-.234-.094-.234-.329 0-.25.078-.484.172-.703.156-.437.61-1.625.61-2.203 0-.64-.391-1.062-1.141-1.062-.626 0-1.11.312-1.485.765z"/></symbol></defs><use transform="matrix(.8 0 0 .8 45.75 24.472)" height="1052.362" width="744.094" xlink:href="#ae" x="223.432" y="134.765"/></g><path d="M213.082 292.107v-50.44" fill="none" stroke="#4d4d4d" stroke-width="3" stroke-linecap="round" stroke-linejoin="round" marker-start="url(#a)" marker-end="url(#b)"/><g transform="translate(-452.21 -130.958) scale(2.99997)" ns0:preamble="/home/waldgeist/sandbox/homepage/inkscape-preamble.tex" ns0:text="$r$"><defs><symbol id="af" overflow="visible"><path d="M.875-.594c-.031.156-.094.39-.094.438 0 .172.14.265.297.265a.414.414 0 0 0 .375-.28c.016-.032.344-1.391.39-1.579.079-.328.266-1.016.313-1.297.047-.125.328-.594.563-.812.078-.063.375-.329.797-.329.265 0 .406.125.421.125-.296.047-.515.282-.515.547 0 .157.11.344.375.344s.547-.234.547-.594c0-.343-.313-.64-.828-.64-.641 0-1.079.484-1.266.765-.094-.453-.453-.765-.922-.765-.453 0-.64.39-.734.562-.172.344-.297.938-.297.969 0 .11.094.11.11.11.109 0 .109-.016.171-.235.172-.703.375-1.188.735-1.188.156 0 .296.079.296.454 0 .218-.03.328-.156.843z"/></symbol></defs><use y="134.765" x="223.432" xlink:href="#af" width="744.094" height="1052.362"/></g><path d="M278.76 517.092v-32.73" fill="none" stroke="#4d4d4d" stroke-width="3" stroke-linecap="round" stroke-linejoin="round" marker-start="url(#a)" marker-end="url(#b)"/><g transform="translate(-382.532 102.882) scale(2.99997)" ns0:preamble="/home/waldgeist/sandbox/homepage/inkscape-preamble.tex" ns0:text="$r$"><defs><symbol id="ag" overflow="visible"><path d="M.875-.594c-.031.156-.094.39-.094.438 0 .172.14.265.297.265a.414.414 0 0 0 .375-.28c.016-.032.344-1.391.39-1.579.079-.328.266-1.016.313-1.297.047-.125.328-.594.563-.812.078-.063.375-.329.797-.329.265 0 .406.125.421.125-.296.047-.515.282-.515.547 0 .157.11.344.375.344s.547-.234.547-.594c0-.343-.313-.64-.828-.64-.641 0-1.079.484-1.266.765-.094-.453-.453-.765-.922-.765-.453 0-.64.39-.734.562-.172.344-.297.938-.297.969 0 .11.094.11.11.11.109 0 .109-.016.171-.235.172-.703.375-1.188.735-1.188.156 0 .296.079.296.454 0 .218-.03.328-.156.843z"/></symbol></defs><use y="134.765" x="223.432" xlink:href="#ag" width="744.094" height="1052.362"/></g><path d="M278.76 724.553v-32.73" fill="none" stroke="#4d4d4d" stroke-width="3" stroke-linecap="round" stroke-linejoin="round" marker-start="url(#a)" marker-end="url(#b)"/><path d="M278.76 744.383V732.04" fill="none" stroke="#4d4d4d" stroke-width="3" stroke-linecap="round" stroke-linejoin="round" marker-start="url(#ah)" marker-end="url(#ai)"/><g ns0:text="$r_{\\rm{i}}$" ns0:preamble="/home/waldgeist/sandbox/homepage/inkscape-preamble.tex" transform="translate(-382.532 340.559) scale(2.99997)"><defs><symbol overflow="visible" id="aj"><path d="M.875-.594c-.031.156-.094.39-.094.438 0 .172.14.265.297.265a.414.414 0 0 0 .375-.28c.016-.032.344-1.391.39-1.579.079-.328.266-1.016.313-1.297.047-.125.328-.594.563-.812.078-.063.375-.329.797-.329.265 0 .406.125.421.125-.296.047-.515.282-.515.547 0 .157.11.344.375.344s.547-.234.547-.594c0-.343-.313-.64-.828-.64-.641 0-1.079.484-1.266.765-.094-.453-.453-.765-.922-.765-.453 0-.64.39-.734.562-.172.344-.297.938-.297.969 0 .11.094.11.11.11.109 0 .109-.016.171-.235.172-.703.375-1.188.735-1.188.156 0 .296.079.296.454 0 .218-.03.328-.156.843z"/></symbol><symbol overflow="visible" id="ak"><path d="M1.469-4.297a.413.413 0 0 0-.407-.406.4.4 0 0 0-.39.406.4.4 0 0 0 .39.406.394.394 0 0 0 .407-.406zM.406-3v.25c.438 0 .5.047.5.39v1.813c0 .297-.062.297-.515.297V0c.015 0 .5-.031.78-.031.25 0 .5.015.735.031v-.25c-.406 0-.468 0-.468-.297v-2.531z"/></symbol></defs><use xlink:href="#aj" x="223.432" y="134.765" width="744.094" height="1052.362"/><use xlink:href="#ak" x="227.927" y="136.259" width="744.094" height="1052.362"/></g><g transform="translate(-382.532 310.343) scale(2.99997)" ns0:preamble="/home/waldgeist/sandbox/homepage/inkscape-preamble.tex" ns0:text="$r_{\\rm{a}}$"><defs><symbol id="al" overflow="visible"><path d="M.875-.594c-.031.156-.094.39-.094.438 0 .172.14.265.297.265a.414.414 0 0 0 .375-.28c.016-.032.344-1.391.39-1.579.079-.328.266-1.016.313-1.297.047-.125.328-.594.563-.812.078-.063.375-.329.797-.329.265 0 .406.125.421.125-.296.047-.515.282-.515.547 0 .157.11.344.375.344s.547-.234.547-.594c0-.343-.313-.64-.828-.64-.641 0-1.079.484-1.266.765-.094-.453-.453-.765-.922-.765-.453 0-.64.39-.734.562-.172.344-.297.938-.297.969 0 .11.094.11.11.11.109 0 .109-.016.171-.235.172-.703.375-1.188.735-1.188.156 0 .296.079.296.454 0 .218-.03.328-.156.843z"/></symbol><symbol id="am" overflow="visible"><path d="M3.11-1.875c0-.36 0-.625-.329-.89C2.5-3 2.171-3.11 1.75-3.11c-.656 0-1.125.25-1.125.671 0 .235.156.344.344.344a.32.32 0 0 0 .328-.328.319.319 0 0 0-.25-.312c.25-.172.656-.172.687-.172.391 0 .829.25.829.844v.203c-.391.015-.844.046-1.36.234-.625.219-.812.61-.812.922 0 .594.718.765 1.218.765.547 0 .875-.312 1.032-.578.015.282.203.547.53.547.017 0 .688 0 .688-.656v-.39h-.234v.374c0 .079 0 .407-.266.407-.25 0-.25-.329-.25-.407zm-.547.89c0 .672-.594.86-.907.86-.36 0-.687-.234-.687-.578 0-.39.328-.922 1.594-.969z"/></symbol></defs><use y="134.765" x="223.432" xlink:href="#al" width="744.094" height="1052.362"/><use y="136.259" x="227.927" xlink:href="#am" width="744.094" height="1052.362"/></g><path d="M594.76 517.092v-32.73" fill="none" stroke="#4d4d4d" stroke-width="3" stroke-linecap="round" stroke-linejoin="round" marker-start="url(#a)" marker-end="url(#b)"/><g ns0:text="$r$" ns0:preamble="/home/waldgeist/sandbox/homepage/inkscape-preamble.tex"><use height="1052.362" width="744.094" xlink:href="#ag" x="223.432" y="134.765" transform="translate(-66.532 102.882) scale(2.99997)"/></g><path d="M486.74 724.419v-31.144" fill="none" stroke="#4d4d4d" stroke-width="3" stroke-linecap="round" stroke-linejoin="round" marker-start="url(#a)" marker-end="url(#b)"/><g ns0:preamble="/home/waldgeist/sandbox/homepage/inkscape-preamble.tex" ns0:text="$r$"><use y="134.765" x="223.432" xlink:href="#ag" width="744.094" height="1052.362" transform="translate(-188.51 341.651) scale(2.99997)"/></g></svg>