<?xml version="1.0" encoding="UTF-8" standalone="no"?>
<!-- Created with Inkscape (http://www.inkscape.org/) -->

<svg
   xmlns:ns0="http://www.iki.fi/pav/software/textext/"
   xmlns:dc="http://purl.org/dc/elements/1.1/"
   xmlns:cc="http://creativecommons.org/ns#"
   xmlns:rdf="http://www.w3.org/1999/02/22-rdf-syntax-ns#"
   xmlns:svg="http://www.w3.org/2000/svg"
   xmlns="http://www.w3.org/2000/svg"
   xmlns:xlink="http://www.w3.org/1999/xlink"
   xmlns:sodipodi="http://sodipodi.sourceforge.net/DTD/sodipodi-0.dtd"
   xmlns:inkscape="http://www.inkscape.org/namespaces/inkscape"
   width="744.09448"
   height="1052.3622"
   id="svg2"
   version="1.1"
   inkscape:version="0.48.4 r9939"
   sodipodi:docname="traegheitsmoment-messung.svg">
  <title
     id="title8546">Messung des Trägheitsmoments</title>
  <sodipodi:namedview
     id="base"
     pagecolor="#ffffff"
     bordercolor="#666666"
     borderopacity="1.0"
     inkscape:pageopacity="0.0"
     inkscape:pageshadow="2"
     inkscape:zoom="0.35355339"
     inkscape:cx="572.97333"
     inkscape:cy="129.01171"
     inkscape:document-units="px"
     inkscape:current-layer="layer1"
     showgrid="false"
     inkscape:object-paths="true"
     inkscape:object-nodes="true"
     inkscape:snap-smooth-nodes="true"
     inkscape:snap-midpoints="true"
     inkscape:snap-object-midpoints="true"
     inkscape:window-width="1600"
     inkscape:window-height="1150"
     inkscape:window-x="0"
     inkscape:window-y="0"
     inkscape:window-maximized="1"
     showguides="true"
     inkscape:guide-bbox="true"
     inkscape:snap-global="true" />
  <defs
     id="defs4">
    <marker
       style="overflow:visible"
       id="Arrow2Mstart"
       refX="0.0"
       refY="0.0"
       orient="auto"
       inkscape:stockid="Arrow2Mstart">
      <path
         transform="scale(0.6) translate(0,0)"
         d="M 8.7185878,4.0337352 L -2.2072895,0.016013256 L 8.7185884,-4.0017078 C 6.9730900,-1.6296469 6.9831476,1.6157441 8.7185878,4.0337352 z "
         style="fill-rule:evenodd;stroke-width:0.62500000;stroke-linejoin:round"
         id="path3940" />
    </marker>
    <marker
       inkscape:stockid="Arrow2Mend"
       orient="auto"
       refY="0"
       refX="0"
       id="Arrow2Mend"
       style="overflow:visible">
      <path
         inkscape:connector-curvature="0"
         id="path3943"
         style="fill-rule:evenodd;stroke-width:0.625;stroke-linejoin:round"
         d="M 8.7185878,4.0337352 -2.2072895,0.01601326 8.7185884,-4.0017078 c -1.7454984,2.3720609 -1.7354408,5.6174519 -6e-7,8.035443 z"
         transform="scale(-0.6,-0.6)" />
    </marker>
  </defs>
  <metadata
     id="metadata7">
    <rdf:RDF>
      <cc:Work
         rdf:about="">
        <dc:format>image/svg+xml</dc:format>
        <dc:type
           rdf:resource="http://purl.org/dc/dcmitype/StillImage" />
        <dc:title>Messung des Trägheitsmoments</dc:title>
        <dc:creator>
          <cc:Agent>
            <dc:title>Bernhard Grotz</dc:title>
          </cc:Agent>
        </dc:creator>
        <dc:rights>
          <cc:Agent>
            <dc:title>Bernhard Grotz</dc:title>
          </cc:Agent>
        </dc:rights>
        <dc:publisher>
          <cc:Agent>
            <dc:title>Bernhard Grotz</dc:title>
          </cc:Agent>
        </dc:publisher>
        <dc:language>de-DE</dc:language>
        <cc:license
           rdf:resource="http://creativecommons.org/licenses/by-nc-sa/3.0/" />
        <dc:date>2015-01-30</dc:date>
        <dc:subject>
          <rdf:Bag>
            <rdf:li>Physik</rdf:li>
            <rdf:li>Rotation</rdf:li>
            <rdf:li>Trägheitsmoment</rdf:li>
          </rdf:Bag>
        </dc:subject>
      </cc:Work>
      <cc:License
         rdf:about="http://creativecommons.org/licenses/by-nc-sa/3.0/">
        <cc:permits
           rdf:resource="http://creativecommons.org/ns#Reproduction" />
        <cc:permits
           rdf:resource="http://creativecommons.org/ns#Distribution" />
        <cc:requires
           rdf:resource="http://creativecommons.org/ns#Notice" />
        <cc:requires
           rdf:resource="http://creativecommons.org/ns#Attribution" />
        <cc:prohibits
           rdf:resource="http://creativecommons.org/ns#CommercialUse" />
        <cc:permits
           rdf:resource="http://creativecommons.org/ns#DerivativeWorks" />
        <cc:requires
           rdf:resource="http://creativecommons.org/ns#ShareAlike" />
      </cc:License>
    </rdf:RDF>
  </metadata>
  <g
     inkscape:label="Ebene 1"
     inkscape:groupmode="layer"
     id="layer1">
    <rect
       inkscape:export-ydpi="150"
       inkscape:export-xdpi="150"
       inkscape:export-filename="/home/waldgeist/data/homepage/pics/physik/mechanik/drehmoment-und-gleichgewicht/traegheitsmoment-messung.png"
       y="99.570793"
       x="-777.69672"
       height="564.25482"
       width="503.03125"
       id="rect4617"
       style="color:#000000;fill:#ffffff;fill-opacity:1;fill-rule:nonzero;stroke:#ffffff;stroke-width:2;stroke-linecap:round;stroke-linejoin:round;stroke-miterlimit:4;stroke-opacity:1;stroke-dasharray:none;stroke-dashoffset:0;marker:none;visibility:visible;display:inline;overflow:visible;enable-background:accumulate"
       transform="matrix(0,-1,1,0,0,0)" />
    <g
       id="g4654"
       ns0:preamble="/home/waldgeist/data/sphinx/inkscape-preamble.tex"
       ns0:text="$\\vec{\\omega}$"
       transform="matrix(4.6587474,0,0,4.6587474,-302.81045,-149.23156)"
       style="fill:#0000ff"
       inkscape:export-filename="/home/waldgeist/data/homepage/pics/physik/mechanik/kinematik/winkelgeschwindigkeit.png"
       inkscape:export-xdpi="150"
       inkscape:export-ydpi="150">
      <defs
         id="defs4656">
        <g
           id="g4658">
          <symbol
             id="symbol4660"
             overflow="visible"
             style="overflow:visible">
            <path
               id="path4662"
               d=""
               style="stroke:none"
               inkscape:connector-curvature="0" />
          </symbol>
          <symbol
             id="symbol4664"
             overflow="visible"
             style="overflow:visible">
            <path
               id="path4666"
               d="m 5.359375,-5.9375 c -0.140625,0.140625 -0.46875,0.421875 -0.46875,0.59375 0,0.09375 0.09375,0.203125 0.1875,0.203125 0.09375,0 0.140625,-0.078125 0.203125,-0.140625 C 5.390625,-5.421875 5.625,-5.703125 6.0625,-5.921875 6.125,-5.96875 6.234375,-6.015625 6.234375,-6.125 6.234375,-6.234375 6.15625,-6.28125 6.09375,-6.328125 5.875,-6.484375 5.765625,-6.65625 5.6875,-6.890625 5.65625,-6.984375 5.625,-7.125 5.484375,-7.125 c -0.140625,0 -0.203125,0.140625 -0.203125,0.21875 0,0.046875 0.078125,0.359375 0.234375,0.578125 l -3.359375,0 c -0.15625,0 -0.34375,0 -0.34375,0.203125 0,0.1875 0.1875,0.1875 0.34375,0.1875 z m 0,0"
               style="stroke:none"
               inkscape:connector-curvature="0" />
          </symbol>
          <symbol
             id="symbol4668"
             overflow="visible"
             style="overflow:visible">
            <path
               id="path4670"
               d="m 6.03125,-3.703125 c 0,-0.453125 -0.171875,-0.703125 -0.40625,-0.703125 -0.25,0 -0.515625,0.234375 -0.515625,0.46875 0,0.09375 0.046875,0.203125 0.140625,0.296875 0.171875,0.15625 0.359375,0.421875 0.359375,0.84375 0,0.390625 -0.203125,0.96875 -0.5,1.421875 C 4.8125,-0.953125 4.4375,-0.609375 3.96875,-0.609375 3.40625,-0.609375 3.09375,-0.96875 3,-1.5 c 0.109375,-0.265625 0.34375,-0.90625 0.34375,-1.1875 0,-0.109375 -0.046875,-0.21875 -0.1875,-0.21875 -0.078125,0 -0.1875,0.03125 -0.265625,0.171875 C 2.78125,-2.53125 2.65625,-1.890625 2.65625,-1.53125 2.328125,-1.0625 1.9375,-0.609375 1.3125,-0.609375 c -0.671875,0 -0.875,-0.59375 -0.875,-1.140625 0,-1.25 1.015625,-2.296875 1.015625,-2.421875 0,-0.109375 -0.078125,-0.1875 -0.1875,-0.1875 -0.125,0 -0.203125,0.125 -0.265625,0.21875 -0.5,0.734375 -0.875,1.921875 -0.875,2.828125 0,0.6875 0.21875,1.421875 1.046875,1.421875 0.703125,0 1.171875,-0.5 1.53125,-1.046875 0.09375,0.578125 0.484375,1.046875 1.09375,1.046875 0.78125,0 1.25,-0.609375 1.609375,-1.359375 0.25,-0.484375 0.625,-1.84375 0.625,-2.453125 z m 0,0"
               style="stroke:none"
               inkscape:connector-curvature="0" />
          </symbol>
        </g>
      </defs>
      <g
         id="g4672"
         style="fill:#0000ff">
        <g
           id="g4674"
           style="fill:#0000ff;fill-opacity:1">
          <use
             id="use4676"
             y="134.765"
             x="223.455"
             xlink:href="#textext-db156235-1"
             width="744.09448"
             height="1052.3622"
             style="fill:#0000ff" />
        </g>
        <g
           id="g4678"
           style="fill:#0000ff;fill-opacity:1">
          <use
             id="use4680"
             y="134.765"
             x="223.43507"
             xlink:href="#textext-db156235-2"
             width="744.09448"
             height="1052.3622"
             style="fill:#0000ff" />
        </g>
      </g>
    </g>
    <path
       transform="matrix(1.2552323,0,0,1.2552323,-505.36014,157.59256)"
       d="m 816,263.36218 a 117,117 0 1 1 -234,0 117,117 0 1 1 234,0 z"
       sodipodi:ry="117"
       sodipodi:rx="117"
       sodipodi:cy="263.36218"
       sodipodi:cx="699"
       id="path7548"
       style="color:#000000;fill:#cccccc;fill-opacity:1;fill-rule:nonzero;stroke:#616161;stroke-width:1.5933305;stroke-linecap:round;stroke-linejoin:round;stroke-miterlimit:4;stroke-opacity:1;stroke-dasharray:none;stroke-dashoffset:0;marker:none;visibility:visible;display:inline;overflow:visible;enable-background:accumulate"
       sodipodi:type="arc"
       inkscape:export-filename="/home/waldgeist/data/homepage/pics/physik/mechanik/drehmoment-und-gleichgewicht/traegheitsmoment-messung.png"
       inkscape:export-xdpi="150"
       inkscape:export-ydpi="150" />
    <path
       style="color:#000000;fill:#b3b3b3;fill-opacity:1;fill-rule:nonzero;stroke:#616161;stroke-width:2;stroke-linecap:round;stroke-linejoin:round;stroke-miterlimit:4;stroke-opacity:1;stroke-dasharray:none;stroke-dashoffset:0;marker:none;visibility:visible;display:inline;overflow:visible;enable-background:accumulate"
       d="m 372.04724,312.67328 c -96.92598,0 -175.5,78.57402 -175.5,175.50001 0,96.92596 78.57402,175.5 175.5,175.5 96.92598,0 175.5,-78.57404 175.5,-175.5 0,-96.92598 -78.57402,-175.5 -175.5,-175.5 z m 0,28.64063 c 81.10974,0 146.85938,65.74963 146.85938,146.85938 0,81.10974 -65.74964,146.85937 -146.85938,146.85937 -81.10974,0 -146.85938,-65.74963 -146.85938,-146.85937 0,-81.10975 65.74964,-146.85938 146.85938,-146.85938 z"
       id="path7552"
       inkscape:connector-curvature="0"
       inkscape:export-filename="/home/waldgeist/data/homepage/pics/physik/mechanik/drehmoment-und-gleichgewicht/traegheitsmoment-messung.png"
       inkscape:export-xdpi="150"
       inkscape:export-ydpi="150" />
    <path
       style="color:#000000;fill:#999999;stroke:#333333;stroke-width:2;stroke-linecap:round;stroke-linejoin:round;stroke-miterlimit:4;stroke-opacity:1;stroke-dasharray:none;stroke-dashoffset:0;marker:none;visibility:visible;display:inline;overflow:visible;enable-background:accumulate"
       d="m 372.03159,458.47018 c -15.36742,0 -27.99613,11.69434 -29.53125,26.65625 -10e-4,0.0102 0.001,0.021 0,0.0312 l -208.5625,228.53125 41.71875,0 180.4375,-200.46875 c 4.61135,2.94603 10.05958,4.65625 15.9375,4.65625 5.87194,0 11.36033,-1.68448 15.96875,-4.625 l 180.4375,200.4375 41.7188,0 -208.56255,-228.53125 c -10e-4,-0.0102 0.001,-0.021 0,-0.0312 -1.53512,-14.96191 -14.19508,-26.65625 -29.5625,-26.65625 z"
       id="path8531"
       inkscape:connector-curvature="0"
       sodipodi:nodetypes="scccccscccccs"
       inkscape:export-filename="/home/waldgeist/data/homepage/pics/physik/mechanik/drehmoment-und-gleichgewicht/traegheitsmoment-messung.png"
       inkscape:export-xdpi="150"
       inkscape:export-ydpi="150" />
    <rect
       style="color:#000000;fill:#666666;fill-opacity:1;fill-rule:nonzero;stroke:#4d4d4d;stroke-width:1.99999952;stroke-linecap:round;stroke-linejoin:round;stroke-miterlimit:4;stroke-opacity:1;stroke-dasharray:none;stroke-dashoffset:0;marker:none;visibility:visible;display:inline;overflow:visible;enable-background:accumulate"
       id="rect7557"
       width="25.034544"
       height="20.317436"
       x="111.95962"
       y="737.98077"
       inkscape:transform-center-y="132.27949"
       transform="matrix(0.90100046,-0.43381813,0.43381813,0.90100046,0,0)"
       inkscape:transform-center-x="-64.662966"
       inkscape:export-filename="/home/waldgeist/data/homepage/pics/physik/mechanik/drehmoment-und-gleichgewicht/traegheitsmoment-messung.png"
       inkscape:export-xdpi="150"
       inkscape:export-ydpi="150" />
    <g
       ns0:text="$m _{\\rm{z}}$"
       ns0:preamble="/home/waldgeist/data/sphinx/inkscape-preamble.tex"
       transform="matrix(5.2649291,0,0,5.2649291,-732.82861,-36.049634)"
       style="fill:#0000ff"
       id="g7714"
       inkscape:export-filename="/home/waldgeist/data/homepage/pics/physik/mechanik/drehmoment-und-gleichgewicht/traegheitsmoment-messung.png"
       inkscape:export-xdpi="150"
       inkscape:export-ydpi="150">
      <defs
         id="defs7716">
        <g
           id="g7718">
          <symbol
             style="overflow:visible"
             overflow="visible"
             id="textext-4c46801a-0">
            <path
               inkscape:connector-curvature="0"
               style="stroke:none"
               d=""
               id="path7721" />
          </symbol>
          <symbol
             style="overflow:visible"
             overflow="visible"
             id="textext-4c46801a-1">
            <path
               inkscape:connector-curvature="0"
               style="stroke:none"
               d="m 0.875,-0.59375 c -0.03125,0.15625 -0.09375,0.390625 -0.09375,0.4375 0,0.171875 0.140625,0.265625 0.296875,0.265625 0.125,0 0.296875,-0.078125 0.375,-0.28125 0,-0.015625 0.125,-0.484375 0.1875,-0.734375 l 0.21875,-0.890625 C 1.90625,-2.03125 1.96875,-2.25 2.03125,-2.46875 c 0.03125,-0.171875 0.109375,-0.46875 0.125,-0.5 0.140625,-0.3125 0.671875,-1.21875 1.625,-1.21875 0.453125,0 0.53125,0.375 0.53125,0.703125 0,0.25 -0.0625,0.53125 -0.140625,0.828125 L 3.890625,-1.5 3.6875,-0.75 c -0.03125,0.203125 -0.125,0.546875 -0.125,0.59375 0,0.171875 0.140625,0.265625 0.28125,0.265625 0.3125,0 0.375,-0.25 0.453125,-0.5625 0.140625,-0.5625 0.515625,-2.015625 0.59375,-2.40625 0.03125,-0.125 0.5625,-1.328125 1.65625,-1.328125 0.421875,0 0.53125,0.34375 0.53125,0.703125 0,0.5625 -0.421875,1.703125 -0.625,2.234375 -0.078125,0.234375 -0.125,0.34375 -0.125,0.546875 0,0.46875 0.34375,0.8125 0.8125,0.8125 0.9375,0 1.3125,-1.453125 1.3125,-1.53125 0,-0.109375 -0.09375,-0.109375 -0.125,-0.109375 -0.09375,0 -0.09375,0.03125 -0.140625,0.1875 -0.15625,0.53125 -0.46875,1.234375 -1.015625,1.234375 -0.171875,0 -0.25,-0.09375 -0.25,-0.328125 0,-0.25 0.09375,-0.484375 0.1875,-0.703125 0.1875,-0.53125 0.609375,-1.625 0.609375,-2.203125 0,-0.640625 -0.40625,-1.0625 -1.15625,-1.0625 -0.734375,0 -1.25,0.4375 -1.625,0.96875 0,-0.125 -0.03125,-0.46875 -0.3125,-0.703125 -0.25,-0.21875 -0.5625,-0.265625 -0.8125,-0.265625 -0.90625,0 -1.390625,0.640625 -1.5625,0.875 -0.046875,-0.578125 -0.46875,-0.875 -0.921875,-0.875 -0.453125,0 -0.640625,0.390625 -0.734375,0.5625 -0.171875,0.359375 -0.296875,0.9375 -0.296875,0.96875 0,0.109375 0.09375,0.109375 0.109375,0.109375 0.109375,0 0.109375,-0.015625 0.171875,-0.234375 0.171875,-0.703125 0.375,-1.1875 0.734375,-1.1875 0.15625,0 0.296875,0.078125 0.296875,0.453125 0,0.21875 -0.03125,0.328125 -0.15625,0.84375 z m 0,0"
               id="path7724" />
          </symbol>
          <symbol
             style="overflow:visible"
             overflow="visible"
             id="textext-4c46801a-2">
            <path
               inkscape:connector-curvature="0"
               style="stroke:none"
               d=""
               id="path7727" />
          </symbol>
          <symbol
             style="overflow:visible"
             overflow="visible"
             id="textext-4c46801a-3">
            <path
               inkscape:connector-curvature="0"
               style="stroke:none"
               d="m 3.078125,-2.765625 c 0.046875,-0.0625 0.0625,-0.078125 0.0625,-0.125 C 3.140625,-3 3.046875,-3 2.9375,-3 L 0.453125,-3 0.375,-1.84375 l 0.234375,0 c 0.046875,-0.734375 0.21875,-0.96875 1,-0.96875 l 0.828125,0 -2.109375,2.546875 C 0.265625,-0.1875 0.265625,-0.15625 0.265625,-0.125 0.265625,0 0.34375,0 0.46875,0 l 2.5625,0 0.125,-1.359375 -0.234375,0 C 2.84375,-0.53125 2.703125,-0.21875 1.828125,-0.21875 l -0.859375,0 z m 0,0"
               id="path7730" />
          </symbol>
        </g>
      </defs>
      <g
         id="textext-4c46801a-4">
        <g
           style="fill:#000000;fill-opacity:1"
           id="g7733">
          <use
             height="1052.3622"
             width="744.09448"
             xlink:href="#textext-4c46801a-1"
             x="223.43201"
             y="134.765"
             id="use7735" />
        </g>
        <g
           style="fill:#000000;fill-opacity:1"
           id="g7737">
          <use
             height="1052.3622"
             width="744.09448"
             xlink:href="#textext-4c46801a-3"
             x="232.179"
             y="136.259"
             id="use7739" />
        </g>
      </g>
    </g>
    <g
       id="g8414"
       style="fill:#008000;stroke:#008000;stroke-width:1"
       transform="matrix(5.1383643,0,0,5.1383643,-779.01244,-115.05243)"
       ns0:preamble="/home/waldgeist/data/sphinx/inkscape-preamble.tex"
       ns0:text="$r _{\\rm{z}}$"
       inkscape:export-filename="/home/waldgeist/data/homepage/pics/physik/mechanik/drehmoment-und-gleichgewicht/traegheitsmoment-messung.png"
       inkscape:export-xdpi="150"
       inkscape:export-ydpi="150">
      <defs
         id="defs8416">
        <g
           id="g8418">
          <symbol
             id="textext-38c1cd2f-0"
             overflow="visible"
             style="overflow:visible">
            <path
               id="path8421"
               d=""
               style="stroke:none"
               inkscape:connector-curvature="0" />
          </symbol>
          <symbol
             id="textext-38c1cd2f-1"
             overflow="visible"
             style="overflow:visible">
            <path
               id="path8424"
               d="m 0.875,-0.59375 c -0.03125,0.15625 -0.09375,0.390625 -0.09375,0.4375 0,0.171875 0.140625,0.265625 0.296875,0.265625 0.125,0 0.296875,-0.078125 0.375,-0.28125 C 1.46875,-0.203125 1.796875,-1.5625 1.84375,-1.75 c 0.078125,-0.328125 0.265625,-1.015625 0.3125,-1.296875 0.046875,-0.125 0.328125,-0.59375 0.5625,-0.8125 0.078125,-0.0625 0.375,-0.328125 0.796875,-0.328125 0.265625,0 0.40625,0.125 0.421875,0.125 -0.296875,0.046875 -0.515625,0.28125 -0.515625,0.546875 0,0.15625 0.109375,0.34375 0.375,0.34375 0.265625,0 0.546875,-0.234375 0.546875,-0.59375 0,-0.34375 -0.3125,-0.640625 -0.828125,-0.640625 C 2.875,-4.40625 2.4375,-3.921875 2.25,-3.640625 2.15625,-4.09375 1.796875,-4.40625 1.328125,-4.40625 0.875,-4.40625 0.6875,-4.015625 0.59375,-3.84375 0.421875,-3.5 0.296875,-2.90625 0.296875,-2.875 c 0,0.109375 0.09375,0.109375 0.109375,0.109375 0.109375,0 0.109375,-0.015625 0.171875,-0.234375 0.171875,-0.703125 0.375,-1.1875 0.734375,-1.1875 0.15625,0 0.296875,0.078125 0.296875,0.453125 0,0.21875 -0.03125,0.328125 -0.15625,0.84375 z m 0,0"
               style="stroke:none"
               inkscape:connector-curvature="0" />
          </symbol>
          <symbol
             id="textext-38c1cd2f-2"
             overflow="visible"
             style="overflow:visible">
            <path
               id="path8427"
               d=""
               style="stroke:none"
               inkscape:connector-curvature="0" />
          </symbol>
          <symbol
             id="textext-38c1cd2f-3"
             overflow="visible"
             style="overflow:visible">
            <path
               id="path8430"
               d="m 3.078125,-2.765625 c 0.046875,-0.0625 0.0625,-0.078125 0.0625,-0.125 C 3.140625,-3 3.046875,-3 2.9375,-3 L 0.453125,-3 0.375,-1.84375 l 0.234375,0 c 0.046875,-0.734375 0.21875,-0.96875 1,-0.96875 l 0.828125,0 -2.109375,2.546875 C 0.265625,-0.1875 0.265625,-0.15625 0.265625,-0.125 0.265625,0 0.34375,0 0.46875,0 l 2.5625,0 0.125,-1.359375 -0.234375,0 C 2.84375,-0.53125 2.703125,-0.21875 1.828125,-0.21875 l -0.859375,0 z m 0,0"
               style="stroke:none"
               inkscape:connector-curvature="0" />
          </symbol>
        </g>
      </defs>
      <g
         id="textext-38c1cd2f-4"
         style="fill:#008000;stroke:#008000;stroke-width:1">
        <g
           id="g8433"
           style="fill:#008000;fill-opacity:1;stroke:#008000;stroke-width:1">
          <use
             id="use8435"
             y="134.765"
             x="223.43201"
             xlink:href="#textext-38c1cd2f-1"
             width="744.09448"
             height="1052.3622"
             style="fill:#008000;stroke:#008000;stroke-width:1" />
        </g>
        <g
           id="g8437"
           style="fill:#008000;fill-opacity:1;stroke:#008000;stroke-width:1">
          <use
             id="use8439"
             y="136.259"
             x="227.927"
             xlink:href="#textext-38c1cd2f-3"
             width="744.09448"
             height="1052.3622"
             style="fill:#008000;stroke:#008000;stroke-width:1" />
        </g>
      </g>
    </g>
    <rect
       style="color:#000000;fill:#666666;fill-opacity:1;fill-rule:nonzero;stroke:#333333;stroke-width:2;stroke-linecap:round;stroke-linejoin:round;stroke-miterlimit:4;stroke-opacity:1;stroke-dasharray:none;stroke-dashoffset:0;marker:none;visibility:visible;display:inline;overflow:visible;enable-background:accumulate"
       id="rect8509"
       width="591.87952"
       height="26"
       x="76.107483"
       y="713.6889"
       inkscape:export-filename="/home/waldgeist/data/homepage/pics/physik/mechanik/drehmoment-und-gleichgewicht/traegheitsmoment-messung.png"
       inkscape:export-xdpi="150"
       inkscape:export-ydpi="150" />
    <path
       sodipodi:type="arc"
       style="color:#000000;fill:#ffcc00;fill-opacity:1;fill-rule:nonzero;stroke:#616161;stroke-width:24.24625587;stroke-linecap:round;stroke-linejoin:round;stroke-miterlimit:4;stroke-opacity:1;stroke-dasharray:none;stroke-dashoffset:0;marker:none;visibility:visible;display:inline;overflow:visible;enable-background:accumulate"
       id="path7550"
       sodipodi:cx="699"
       sodipodi:cy="263.36218"
       sodipodi:rx="117"
       sodipodi:ry="117"
       d="m 816,263.36218 a 117,117 0 1 1 -234,0 117,117 0 1 1 234,0 z"
       transform="matrix(0.08248695,0,0,0.08248695,314.38886,466.44934)"
       inkscape:export-filename="/home/waldgeist/data/homepage/pics/physik/mechanik/drehmoment-und-gleichgewicht/traegheitsmoment-messung.png"
       inkscape:export-xdpi="150"
       inkscape:export-ydpi="150" />
    <path
       inkscape:connector-curvature="0"
       id="path7783"
       d="m 372.07048,487.79423 61.88873,126.12658"
       style="color:#000000;fill:none;stroke:#008000;stroke-width:3;stroke-linecap:round;stroke-linejoin:round;stroke-miterlimit:4;stroke-opacity:1;stroke-dasharray:none;stroke-dashoffset:0;marker:none;marker-start:url(#Arrow2Mstart);marker-end:url(#Arrow2Mend);visibility:visible;display:inline;overflow:visible;enable-background:accumulate"
       inkscape:transform-center-x="-27.866905"
       inkscape:transform-center-y="62.68419"
       sodipodi:nodetypes="cc"
       inkscape:export-filename="/home/waldgeist/data/homepage/pics/physik/mechanik/drehmoment-und-gleichgewicht/traegheitsmoment-messung.png"
       inkscape:export-xdpi="150"
       inkscape:export-ydpi="150" />
  </g>
</svg>
