<svg xmlns:ns0="http://www.iki.fi/pav/software/textext/" xmlns="http://www.w3.org/2000/svg" xmlns:xlink="http://www.w3.org/1999/xlink" width="744.094" height="1052.362"><title>Messung des Trägheitsmoments</title><defs><marker id="a" orient="auto" overflow="visible"><path transform="scale(.6)" d="M8.719 4.034L-2.207.016 8.719-4.002c-1.746 2.372-1.736 5.618 0 8.036z" fill-rule="evenodd" stroke-width=".625" stroke-linejoin="round"/></marker><marker orient="auto" id="b" overflow="visible"><path d="M8.719 4.034L-2.207.016 8.719-4.002c-1.746 2.372-1.736 5.618 0 8.036z" transform="scale(-.6)" fill-rule="evenodd" stroke-width=".625" stroke-linejoin="round"/></marker></defs><path style="marker:none" color="#000" fill="#fff" stroke="#fff" stroke-width="2" stroke-linecap="round" stroke-linejoin="round" overflow="visible" d="M89.92 777.697V274.666h564.255v503.031z"/><path d="M533.89 495.36a161.843 161.843 0 1 1-323.686 0 161.843 161.843 0 1 1 323.686 0z" style="marker:none" color="#000" fill="#ccc" stroke="#616161" stroke-width="2.00022288" stroke-linecap="round" stroke-linejoin="round" overflow="visible"/><g color="#000" stroke="#616161" stroke-linecap="round" stroke-linejoin="round"><path d="M372.047 301.961c-106.813 0-193.402 86.59-193.402 193.403 0 106.813 86.59 193.402 193.402 193.402 106.813 0 193.403-86.59 193.403-193.402 0-106.814-86.59-193.403-193.403-193.403zm0 31.562c89.384 0 161.84 72.457 161.84 161.84 0 89.384-72.456 161.84-161.84 161.84-89.383 0-161.84-72.456-161.84-161.84 0-89.383 72.457-161.84 161.84-161.84z" style="marker:none" fill="#b3b3b3" stroke-width="1.9998277199999999" overflow="visible"/><path d="M381.181 495.363a9.134 9.134 0 1 1-18.268 0 9.134 9.134 0 0 1 18.268 0z" style="marker:none" fill="#fc0" stroke-width="1.99999726" overflow="visible"/></g><g ns0:preamble="/home/waldgeist/data/sphinx/inkscape-preamble.tex" ns0:text="$\\vec{\\omega}$" fill="#00f"><use y="134.765" x="223.455" xlink:href="#textext-db156235-1" width="744.094" height="1052.362" transform="matrix(4.65875 0 0 4.65875 -302.81 -149.232)"/><use y="134.765" x="223.435" xlink:href="#textext-db156235-2" width="744.094" height="1052.362" transform="matrix(4.65875 0 0 4.65875 -302.81 -149.232)"/></g><path style="marker:none" color="#000" fill="#666" stroke="#333" stroke-width="2" stroke-linecap="round" stroke-linejoin="round" overflow="visible" d="M76.107 724.401h591.88v26H76.107z"/><path style="marker:none" d="M372.063 325.628c-10.05 0-18.421 7.242-20.188 16.78l-196.468 382h32.656l184-357.718L556.032 724.41h32.656l-196.469-382a20.525 20.525 0 0 0-5.375-10.469c-3.735-3.89-8.962-6.312-14.781-6.312z" color="#000" fill="gray" stroke="#333" stroke-width="1.891" stroke-linecap="round" stroke-linejoin="round" overflow="visible"/><path d="M381.698 346.155a9.651 9.651 0 1 1-19.302 0 9.651 9.651 0 1 1 19.302 0z" style="marker:none" color="#000" fill="#fc0" stroke="#616161" stroke-width="2.0000525399999995" stroke-linecap="round" stroke-linejoin="round" overflow="visible"/><path style="marker:none" d="M372.047 349.806v140.989" color="#000" fill="none" stroke="green" stroke-width="3" stroke-linecap="round" stroke-linejoin="round" marker-start="url(#a)" marker-end="url(#b)" overflow="visible"/><g ns0:text="$a$" transform="matrix(5.13836 0 0 5.13836 -789.837 -247.862)" fill="green" stroke="green"><defs><symbol overflow="visible" id="c"><path d="M3.719-3.766c-.188-.375-.469-.64-.922-.64-1.156 0-2.39 1.468-2.39 2.922C.406-.547.952.109 1.718.109c.203 0 .703-.046 1.297-.75a.91.91 0 0 0 .906.75c.36 0 .578-.234.75-.546a6.49 6.49 0 0 0 .297-.985c0-.11-.094-.11-.125-.11-.094 0-.11.048-.14.188-.173.64-.345 1.235-.75 1.235-.282 0-.298-.266-.298-.454 0-.218.016-.312.125-.75.11-.406.125-.515.219-.89l.36-1.39c.062-.282.062-.298.062-.345 0-.171-.11-.265-.281-.265-.25 0-.391.219-.422.437zm-.64 2.579c-.063.187-.063.203-.204.375-.438.546-.844.703-1.125.703-.5 0-.64-.547-.64-.938 0-.5.312-1.719.546-2.187.313-.579.75-.954 1.157-.954.64 0 .78.813.78.875a.562.562 0 0 1-.03.172zm0 0" stroke="none"/></symbol></defs><use transform="translate(3.114)" height="1052.362" width="744.094" xlink:href="#c" x="223.432" y="134.765"/></g><g transform="matrix(5.26493 0 0 5.26493 -818.867 -164.238)" ns0:text="$\\mathrm{S}$" fill="#00f"><defs><symbol id="d" overflow="visible"><path d="M3.484-3.875l-1.28-.297c-.626-.156-1-.687-1-1.266 0-.703.53-1.312 1.312-1.312 1.656 0 1.875 1.64 1.937 2.078.016.063.016.125.125.125.125 0 .125-.047.125-.234v-2c0-.172 0-.25-.11-.25-.062 0-.077.015-.14.14l-.36.563c-.296-.297-.702-.703-1.593-.703-1.11 0-1.938.875-1.938 1.937 0 .828.532 1.563 1.297 1.828.11.032.625.157 1.329.329.265.062.562.14.843.5.203.265.313.593.313.921 0 .704-.5 1.422-1.344 1.422-.281 0-1.047-.047-1.578-.531-.578-.547-.61-1.172-.61-1.531-.015-.11-.093-.11-.125-.11-.125 0-.125.079-.125.25v2c0 .172 0 .235.11.235.062 0 .078-.016.14-.125 0-.016.032-.047.36-.578.312.343.953.703 1.844.703 1.156 0 1.953-.969 1.953-2.078 0-.985-.657-1.813-1.485-2.016zm0 0"/></symbol></defs><use y="134.765" x="223.432" xlink:href="#d" width="744.094" height="1052.362" fill="#000"/></g></svg>