<svg xmlns:ns0="http://www.iki.fi/pav/software/textext/" xmlns="http://www.w3.org/2000/svg" xmlns:xlink="http://www.w3.org/1999/xlink" width="744.094" height="1052.362"><title>Messung des Trägheitsmoments</title><defs><marker id="e" orient="auto" overflow="visible"><path transform="scale(.6)" d="M8.719 4.034L-2.207.016 8.719-4.002c-1.746 2.372-1.736 5.618 0 8.036z" fill-rule="evenodd" stroke-width=".625" stroke-linejoin="round"/></marker><marker orient="auto" id="f" overflow="visible"><path d="M8.719 4.034L-2.207.016 8.719-4.002c-1.746 2.372-1.736 5.618 0 8.036z" transform="scale(-.6)" fill-rule="evenodd" stroke-width=".625" stroke-linejoin="round"/></marker></defs><path style="marker:none" color="#000" fill="#fff" stroke="#fff" stroke-width="2" stroke-linecap="round" stroke-linejoin="round" overflow="visible" d="M99.571 777.697V274.666h564.255v503.031z"/><g ns0:preamble="/home/waldgeist/data/sphinx/inkscape-preamble.tex" ns0:text="$\\vec{\\omega}$" fill="#00f"><use y="134.765" x="223.455" xlink:href="#textext-db156235-1" width="744.094" height="1052.362" transform="matrix(4.65875 0 0 4.65875 -302.81 -149.232)"/><use y="134.765" x="223.435" xlink:href="#textext-db156235-2" width="744.094" height="1052.362" transform="matrix(4.65875 0 0 4.65875 -302.81 -149.232)"/></g><path d="M518.91 488.173a146.862 146.862 0 1 1-293.725 0 146.862 146.862 0 1 1 293.724 0z" style="marker:none" color="#000" fill="#ccc" stroke="#616161" stroke-width="1.9995813900000001" stroke-linecap="round" stroke-linejoin="round" overflow="visible"/><path style="marker:none" d="M372.047 312.673c-96.926 0-175.5 78.574-175.5 175.5s78.574 175.5 175.5 175.5 175.5-78.574 175.5-175.5-78.574-175.5-175.5-175.5zm0 28.64c81.11 0 146.86 65.75 146.86 146.86 0 81.11-65.75 146.86-146.86 146.86-81.11 0-146.86-65.75-146.86-146.86 0-81.11 65.75-146.86 146.86-146.86z" color="#000" fill="#b3b3b3" stroke="#616161" stroke-width="2" stroke-linecap="round" stroke-linejoin="round" overflow="visible"/><path style="marker:none" d="M372.032 458.47c-15.368 0-27.997 11.695-29.532 26.656v.032l-208.562 228.53h41.719L356.094 513.22a29.459 29.459 0 0 0 15.938 4.656c5.872 0 11.36-1.684 15.968-4.625L568.438 713.69h41.719L401.594 485.158v-.032c-1.535-14.961-14.195-26.656-29.562-26.656z" color="#000" fill="#999" stroke="#333" stroke-width="2" stroke-linecap="round" stroke-linejoin="round" overflow="visible"/><path style="marker:none" color="#000" fill="#666" stroke="#4d4d4d" stroke-width="2" stroke-linecap="round" stroke-linejoin="round" overflow="visible" d="M421.026 616.35l22.556-10.86 8.814 18.306-22.557 10.86z"/><g ns0:text="$m _{\\rm{z}}$" ns0:preamble="/home/waldgeist/data/sphinx/inkscape-preamble.tex" transform="matrix(5.26493 0 0 5.26493 -732.829 -36.05)" fill="#00f"><defs><symbol overflow="visible" id="a"><path d="M.875-.594c-.031.156-.094.39-.094.438 0 .172.14.265.297.265a.414.414 0 0 0 .375-.28c0-.016.125-.485.188-.735l.218-.89c.047-.235.11-.454.172-.673.031-.172.11-.469.125-.5.14-.312.672-1.219 1.625-1.219.453 0 .531.375.531.704 0 .25-.062.53-.14.828L3.89-1.5l-.204.75c-.03.203-.124.547-.124.594 0 .172.14.265.28.265.313 0 .376-.25.454-.562.14-.563.516-2.016.594-2.406.03-.125.562-1.329 1.656-1.329.422 0 .531.344.531.704 0 .562-.422 1.703-.625 2.234-.078.234-.125.344-.125.547 0 .469.344.812.813.812.937 0 1.312-1.453 1.312-1.53 0-.11-.094-.11-.125-.11-.094 0-.094.031-.14.187-.157.532-.47 1.235-1.016 1.235-.172 0-.25-.094-.25-.329 0-.25.094-.484.187-.703.188-.53.61-1.625.61-2.203 0-.64-.407-1.062-1.157-1.062-.734 0-1.25.437-1.625.968 0-.124-.03-.468-.312-.703-.25-.218-.563-.265-.813-.265-.906 0-1.39.64-1.562.875-.047-.578-.469-.875-.922-.875-.453 0-.64.39-.734.562-.172.36-.297.938-.297.969 0 .11.094.11.11.11.109 0 .109-.016.171-.235.172-.703.375-1.188.735-1.188.156 0 .296.079.296.454 0 .218-.03.328-.156.843zm0 0"/></symbol><symbol overflow="visible" id="b"><path d="M3.078-2.766c.047-.062.063-.078.063-.125C3.14-3 3.047-3 2.937-3H.454L.375-1.844h.234c.047-.734.22-.968 1-.968h.829L.328-.267c-.062.079-.062.11-.062.141C.266 0 .344 0 .469 0H3.03l.125-1.36h-.234C2.844-.53 2.703-.218 1.828-.218h-.86zm0 0"/></symbol></defs><g fill="#000"><use height="1052.362" width="744.094" xlink:href="#a" x="223.432" y="134.765"/><use height="1052.362" width="744.094" xlink:href="#b" x="232.179" y="136.259"/></g></g><g transform="matrix(5.13836 0 0 5.13836 -779.012 -115.052)" ns0:preamble="/home/waldgeist/data/sphinx/inkscape-preamble.tex" ns0:text="$r _{\\rm{z}}$" fill="green" stroke="green"><defs><symbol id="c" overflow="visible"><path d="M.875-.594c-.031.156-.094.39-.094.438 0 .172.14.265.297.265a.414.414 0 0 0 .375-.28c.016-.032.344-1.391.39-1.579.079-.328.266-1.016.313-1.297.047-.125.328-.594.563-.812.078-.063.375-.329.797-.329.265 0 .406.125.421.125-.296.047-.515.282-.515.547 0 .157.11.344.375.344s.547-.234.547-.594c0-.343-.313-.64-.828-.64-.641 0-1.079.484-1.266.765-.094-.453-.453-.765-.922-.765-.453 0-.64.39-.734.562-.172.344-.297.938-.297.969 0 .11.094.11.11.11.109 0 .109-.016.171-.235.172-.703.375-1.188.735-1.188.156 0 .296.079.296.454 0 .218-.03.328-.156.843zm0 0" stroke="none"/></symbol><symbol id="d" overflow="visible"><path d="M3.078-2.766c.047-.062.063-.078.063-.125C3.14-3 3.047-3 2.937-3H.454L.375-1.844h.234c.047-.734.22-.968 1-.968h.829L.328-.267c-.062.079-.062.11-.062.141C.266 0 .344 0 .469 0H3.03l.125-1.36h-.234C2.844-.53 2.703-.218 1.828-.218h-.86zm0 0" stroke="none"/></symbol></defs><use y="134.765" x="223.432" xlink:href="#c" width="744.094" height="1052.362"/><use y="136.259" x="227.927" xlink:href="#d" width="744.094" height="1052.362"/></g><path style="marker:none" color="#000" fill="#666" stroke="#333" stroke-width="2" stroke-linecap="round" stroke-linejoin="round" overflow="visible" d="M76.107 713.689h591.88v26H76.107z"/><path style="marker:none" d="M381.698 488.173a9.651 9.651 0 1 1-19.302 0 9.651 9.651 0 1 1 19.302 0z" color="#000" fill="#fc0" stroke="#616161" stroke-width="2.0000525399999995" stroke-linecap="round" stroke-linejoin="round" overflow="visible"/><path d="M372.07 487.794l61.89 126.127" style="marker:none" color="#000" fill="none" stroke="green" stroke-width="3" stroke-linecap="round" stroke-linejoin="round" marker-start="url(#e)" marker-end="url(#f)" overflow="visible"/></svg>