<svg xmlns:ns0="http://www.iki.fi/pav/software/textext/" xmlns="http://www.w3.org/2000/svg" xmlns:xlink="http://www.w3.org/1999/xlink" width="210mm" height="297mm"><title>Traegheitsmoment einer Punktmasse auf einer Kreisbahn</title><defs><marker id="c" orient="auto" overflow="visible"><path d="M-1.2 0l-1 1 3.5-1-3.5-1 1 1z" fill-rule="evenodd" stroke="#000" stroke-width=".2pt"/></marker><marker id="a" orient="auto" overflow="visible"><path transform="scale(.6)" d="M8.719 4.034L-2.207.016 8.719-4.002c-1.746 2.372-1.736 5.618 0 8.036z" fill-rule="evenodd" stroke-width=".625" stroke-linejoin="round"/></marker><marker id="b" orient="auto" overflow="visible"><path d="M1.2 0l1-1-3.5 1 3.5 1-1-1z" fill-rule="evenodd" stroke="#000" stroke-width=".2pt"/></marker></defs><path fill="#fff" stroke="#fff" stroke-width="1.062" stroke-linecap="round" stroke-linejoin="round" d="M13.981 329.538h716.133v393.287H13.981z"/><path d="M372.047 353.805v298.08" fill="none" stroke="#000"/><path transform="matrix(0 .5747 .63756 0 149.614 339.817)" d="M486.302 329.72a21.27 36.345 0 1 1-2.406 29.628" style="marker:none" color="#000" fill="none" stroke="#000" stroke-width="3.304" stroke-linecap="round" stroke-linejoin="round" marker-start="url(#a)" overflow="visible"/><path d="M492.036 502.845H375.67" fill="none" stroke="#4d4d4d" stroke-width="3" stroke-linecap="round" stroke-linejoin="round" marker-start="url(#b)" marker-end="url(#c)"/><g ns0:text="$r$" ns0:preamble="/home/waldgeist/sandbox/homepage/inkscape-preamble.tex" transform="translate(-243.397 118.556) scale(2.99997)"><defs><symbol overflow="visible" id="d"><path d="M.875-.594c-.031.156-.094.39-.094.438 0 .172.14.265.297.265a.414.414 0 0 0 .375-.28c.016-.032.344-1.391.39-1.579.079-.328.266-1.016.313-1.297.047-.125.328-.594.563-.812.078-.063.375-.329.797-.329.265 0 .406.125.421.125-.296.047-.515.282-.515.547 0 .157.11.344.375.344s.547-.234.547-.594c0-.343-.313-.64-.828-.64-.641 0-1.079.484-1.266.765-.094-.453-.453-.765-.922-.765-.453 0-.64.39-.734.562-.172.344-.297.938-.297.969 0 .11.094.11.11.11.109 0 .109-.016.171-.235.172-.703.375-1.188.735-1.188.156 0 .296.079.296.454 0 .218-.03.328-.156.843z"/></symbol></defs><use height="1052.362" width="744.094" xlink:href="#d" x="223.432" y="134.765"/></g><g color="#000" stroke="#000" stroke-linecap="round" stroke-linejoin="round"><path transform="matrix(0 2.25844 3.3044 0 -775.718 -636.091)" d="M525.572 349.087c0 20.072-9.523 36.344-21.27 36.344-11.748 0-21.271-16.272-21.271-36.344 0-20.073 9.523-36.345 21.27-36.345 11.748 0 21.271 16.272 21.271 36.345z" style="marker:none" fill="none" stroke-width=".732" stroke-dasharray=".73211454,2.19634361" overflow="visible"/><path d="M257.708 492.58c5.669 0 10.265 4.596 10.265 10.265 0 5.67-4.596 10.265-10.265 10.265-5.67 0-10.265-4.596-10.265-10.265 0-5.67 4.596-10.265 10.265-10.265z" style="marker:none" fill="gray" stroke-width="2.9999346" overflow="visible"/></g><g ns0:text="$I = m \\cdot r^2$" ns0:preamble="/home/waldgeist/sandbox/homepage/inkscape-preamble.tex"><path d="M318.723 680.588c.235-1.078.328-1.359 2.72-1.359.702 0 .937 0 .937-.562 0-.375-.329-.375-.422-.375-.89 0-3.094.093-3.985.093-.89 0-3.046-.093-3.984-.093-.187 0-.562 0-.562.609 0 .328.234.328.843.328 1.219 0 2.063 0 2.063.562 0 .141 0 .235-.094.47l-4.031 16.124c-.281 1.125-.328 1.406-2.719 1.406-.703 0-.937 0-.937.61 0 .328.328.328.421.328.891 0 3.047-.094 3.938-.094.89 0 3.094.094 3.984.094.235 0 .61 0 .61-.563 0-.375-.235-.375-.891-.375-.562 0-.703 0-1.266-.047-.656-.046-.75-.187-.75-.515 0-.235.047-.469.094-.703zM351.838 688.932c.469 0 1.031 0 1.031-.562 0-.61-.562-.61-.984-.61h-17.906c-.422 0-.984 0-.984.61 0 .562.562.562.984.562zm.047 5.812c.422 0 .984 0 .984-.609 0-.562-.562-.562-1.03-.562h-17.86c-.422 0-.984 0-.984.562 0 .61.562.61.984.61zM365.48 696.948c-.094.468-.282 1.171-.282 1.312 0 .516.422.797.891.797.375 0 .89-.234 1.125-.844 0-.047.375-1.453.563-2.203l.656-2.672c.14-.703.328-1.36.515-2.015.094-.516.329-1.407.375-1.5.422-.938 2.016-3.657 4.875-3.657 1.36 0 1.594 1.125 1.594 2.11 0 .75-.187 1.594-.422 2.484l-.843 3.469-.61 2.25c-.094.61-.375 1.64-.375 1.781 0 .516.422.797.844.797.937 0 1.125-.75 1.36-1.688.421-1.687 1.546-6.046 1.78-7.218.094-.375 1.688-3.985 4.97-3.985 1.265 0 1.593 1.032 1.593 2.11 0 1.687-1.266 5.11-1.875 6.703-.234.703-.375 1.031-.375 1.64 0 1.407 1.031 2.438 2.437 2.438 2.813 0 3.938-4.36 3.938-4.594 0-.328-.281-.328-.375-.328-.281 0-.281.094-.422.563-.469 1.593-1.406 3.703-3.047 3.703-.515 0-.75-.282-.75-.985 0-.75.281-1.453.563-2.109.562-1.594 1.828-4.875 1.828-6.61 0-1.921-1.219-3.187-3.469-3.187-2.203 0-3.75 1.313-4.875 2.906 0-.375-.094-1.406-.937-2.109-.75-.656-1.688-.797-2.438-.797-2.719 0-4.172 1.922-4.687 2.625-.14-1.734-1.407-2.625-2.766-2.625-1.36 0-1.922 1.172-2.203 1.688-.516 1.078-.89 2.812-.89 2.906 0 .328.28.328.327.328.329 0 .329-.047.516-.703.516-2.11 1.125-3.563 2.203-3.563.469 0 .89.235.89 1.36 0 .656-.093.984-.468 2.531zM401.456 691.229a1.56 1.56 0 0 0-1.547-1.547c-.89 0-1.593.703-1.593 1.547 0 .89.703 1.594 1.593 1.594.844 0 1.547-.704 1.547-1.594zM413.305 696.948c-.093.468-.281 1.171-.281 1.312 0 .516.422.797.89.797.376 0 .891-.234 1.126-.844.046-.094 1.03-4.172 1.171-4.734.235-.985.797-3.047.938-3.89.14-.376.984-1.782 1.687-2.438.235-.188 1.125-.985 2.391-.985.797 0 1.219.375 1.266.375-.891.141-1.547.844-1.547 1.641 0 .469.328 1.031 1.125 1.031.797 0 1.64-.703 1.64-1.781 0-1.031-.937-1.922-2.484-1.922-1.922 0-3.234 1.453-3.797 2.297-.281-1.36-1.36-2.297-2.765-2.297-1.36 0-1.922 1.172-2.203 1.688-.516 1.03-.891 2.812-.891 2.906 0 .328.281.328.328.328.328 0 .328-.047.516-.703.515-2.11 1.125-3.563 2.203-3.563.468 0 .89.235.89 1.36 0 .656-.093.984-.468 2.531zM435.543 684.084h-.703c-.047.469-.281 1.688-.563 1.875-.14.14-1.734.14-2.062.14h-3.844c2.203-1.921 2.953-2.53 4.172-3.515 1.547-1.219 3-2.531 3-4.5 0-2.531-2.203-4.078-4.875-4.078-2.578 0-4.36 1.828-4.36 3.75 0 1.031.891 1.172 1.126 1.172.468 0 1.078-.375 1.078-1.125 0-.375-.14-1.125-1.219-1.125.656-1.453 2.062-1.922 3.047-1.922 2.11 0 3.187 1.64 3.187 3.328 0 1.828-1.312 3.234-1.968 3.984l-5.016 5.016c-.234.188-.234.234-.234.797h8.625z"/></g><g transform="translate(-456.086 105) scale(2.99997)" ns0:preamble="/home/waldgeist/sandbox/homepage/inkscape-preamble.tex" ns0:text="$m$"><defs><symbol id="e" overflow="visible"><path d="M.875-.594c-.031.156-.094.39-.094.438 0 .172.14.265.297.265a.414.414 0 0 0 .375-.28c0-.016.125-.485.188-.735l.218-.89c.047-.235.11-.454.172-.673.031-.172.11-.469.125-.5.14-.312.672-1.219 1.625-1.219.453 0 .531.375.531.704 0 .25-.062.53-.14.828L3.89-1.5l-.204.75c-.03.203-.124.547-.124.594 0 .172.14.265.28.265.313 0 .376-.25.454-.562.14-.563.516-2.016.594-2.406.03-.125.562-1.329 1.656-1.329.422 0 .531.344.531.704 0 .562-.422 1.703-.625 2.234-.078.234-.125.344-.125.547 0 .469.344.812.813.812.937 0 1.312-1.453 1.312-1.53 0-.11-.094-.11-.125-.11-.094 0-.094.031-.14.187-.157.532-.47 1.235-1.016 1.235-.172 0-.25-.094-.25-.329 0-.25.094-.484.187-.703.188-.53.61-1.625.61-2.203 0-.64-.407-1.062-1.157-1.062-.734 0-1.25.437-1.625.968 0-.124-.03-.468-.312-.703-.25-.218-.563-.265-.813-.265-.906 0-1.39.64-1.562.875-.047-.578-.469-.875-.922-.875-.453 0-.64.39-.734.562-.172.36-.297.938-.297.969 0 .11.094.11.11.11.109 0 .109-.016.171-.235.172-.703.375-1.188.735-1.188.156 0 .296.079.296.454 0 .218-.03.328-.156.843z"/></symbol></defs><use y="134.765" x="223.432" xlink:href="#e" width="744.094" height="1052.362"/></g></svg>