<svg xmlns="http://www.w3.org/2000/svg" xmlns:xlink="http://www.w3.org/1999/xlink" width="210mm" height="297mm"><title>Kraft beim Bogenschiessen</title><defs><linearGradient id="d"><stop offset="0" stop-opacity="0"/><stop offset="1" stop-color="#fff"/></linearGradient><linearGradient id="e"><stop offset="0" stop-color="#fff"/><stop offset="1" stop-color="#fff" stop-opacity="0"/></linearGradient><linearGradient id="f"><stop offset="0" stop-color="#1a1a1a" stop-opacity=".828"/><stop offset="1" stop-color="#fff"/></linearGradient><linearGradient id="a"><stop offset="0" stop-opacity="0"/><stop offset="1" stop-color="#fff"/></linearGradient><linearGradient id="b"><stop offset="0" stop-color="#ebebeb"/><stop offset="1" stop-color="#fff" stop-opacity="0"/></linearGradient><linearGradient id="c"><stop offset="0" stop-color="#0e0e0e" stop-opacity=".746"/><stop offset="1" stop-color="#fff"/></linearGradient><pattern patternUnits="userSpaceOnUse" width="30.066" height="5.181" id="g"><path d="M7.597.061C5.079-.187 2.656.302-.01 1.788v1.273c2.783-1.63 5.183-2.009 7.482-1.781 2.298.228 4.497 1.081 6.781 1.938 4.567 1.713 9.551 3.458 15.813-.157l-.004-1.273c-6.44 3.709-10.816 1.982-15.371.273-2.278-.854-4.576-1.75-7.094-2z"/></pattern><pattern patternTransform="translate(.25)" id="h" xlink:href="#g"/></defs><rect width="665.714" height="713.825" x="39.19" y="169.269" ry="0" fill="#fff" stroke="#fff" stroke-linecap="round" stroke-linejoin="round"/><g fill="#1a1a1a"><path d="M527.2 399.267c-1.706-9.61-10.048-15.42-10.048-15.42-8.807-4.402-18.189-2.972-34.629-.961L306.106 414.64c-12.49 2.097-21.536 14.587-18.74 26.82l38.392 148.418-124.177 186.24c-7.425 12.708-2.924 29.005 9.912 36.295 12.97 7.38 29.397 2.885 36.866-9.828 0 0 129.505-194.76 129.986-195.985 0 0 6.68 27.037 6.68 27.165l-19.433 146.11c-2.449 14.547 7.425 28.127 22.1 30.576 14.676 2.449 28.608-7.296 31.057-21.754l20.093-150.297c.61-3.846-.173-12.272-1.05-15.984l-44.29-175.981 115.22-20.747c12.322-2.18 20.663-14.061 18.477-26.422zM319.508 315.632c-24.985 0-45.162 19.96-45.162 44.509 0 24.633 20.177 44.553 45.162 44.553 24.851 0 45.034-19.915 45.034-44.553-.006-24.55-20.183-44.509-45.034-44.509z"/></g><path style="text-indent:0;text-align:start;line-height:normal;text-transform:none;block-progression:tb;marker:none;-inkscape-font-specification:Sans" d="M245.746 429.831a21.876 21.876 0 0 0 8.02 42.996l78.278-10.43a21.876 21.876 0 1 0-5.769-43.295l-78.278 10.43a21.876 21.876 0 0 0-2.251.3z" font-weight="400" color="#000" fill="#1a1a1a" stroke="#fff" stroke-width="2.795" overflow="visible" font-family="Sans"/><g fill="none" stroke="#916f6f" stroke-width="10"><path d="M362.421 209.282c55.276 29.139 127.586 49.644 147.506 116.86 13.437 47.764 17.208 64.219 17.208 64.219" stroke-width="7.292199999999999"/><path d="M474.59 627.904c33.301-52.873 85.671-106.785 69.315-174.956-12.246-48.084-17.207-64.22-17.207-64.22" stroke-width="7.292199999999999"/></g><g fill="#6c5353"><path d="M511.71 353.705l2.585 23.597 4.471 16.685 12.203-3.27-10.944-40.841c-3.643 1.895-5.473 2.719-8.316 3.83z"/><path d="M531.666 428.186l-9.558-21.728-4.471-16.685 12.202-3.27 10.944 40.842c-4.103.18-6.1.382-9.117.841z"/></g><g fill="gray" stroke="gray" stroke-width="7.667"><path d="M371.496 213.927l-11.04 220.22M480.127 619.342L360.456 434.146" stroke-width="5.59092974"/></g><g><path d="M588.738 375.803l-233.027 62.31" fill="#999" stroke="#999" stroke-width="5.59078"/><path d="M356.867 425.09l3.338 11.855 2.98 11.907 19.026-5.139 31.448-17.897-.591-2.225-.469-1.761-.58-2.182-36.126.304z" fill="#4d4d4d" stroke="#b3b3b3" stroke-width="2.79539"/><path d="M586.77 370.526l2.903 10.702 11.947-8.941z" fill="#4d4d4d"/></g><path fill="#4d4d4d" fill-rule="evenodd" stroke="#333" stroke-width="4.112" d="M95.449 812.653h553.196v32.017H95.449z"/></svg>