<svg xmlns="http://www.w3.org/2000/svg" width="744.094" height="1052.362"><title>Kraft und Verformung</title><defs><filter height="2.2" y="-.6" width="2.2" x="-.6" id="a" color-interpolation-filters="sRGB"><feGaussianBlur stdDeviation="5.714"/></filter></defs><path fill="#fff" stroke="#fff" stroke-width="1.5" stroke-linecap="round" stroke-linejoin="round" d="M34.83 377.103h674.435v298.155H34.83z"/><g fill="none" stroke="#333" stroke-linecap="round"><path d="M372.047 443.611a9.35 9.35 0 1 1 9.35-9.35" stroke-width="4.37356576" stroke-linejoin="round"/><path d="M372.047 443.611v13.012" stroke-width="4.37344128"/></g><path fill="#b3b3b3" stroke="#333" stroke-width="1.5889958400000002" stroke-linecap="round" stroke-linejoin="round" d="M342.327 450.596h59.44v96.175h-59.44z"/><path d="M301.429 350.934c0 6.311-5.117 11.428-11.429 11.428s-11.429-5.117-11.429-11.428c0-6.312 5.117-11.429 11.429-11.429s11.429 5.117 11.429 11.429z" transform="matrix(.30379 0 0 .30379 272.341 358.49)" opacity=".8" fill="#fff" filter="url(#a)"/><path fill="gray" stroke="#333" stroke-width="1.5" d="M87.747 592.81h568.601v36.076H87.747z"/><g color="#000" fill="#d38d5f" stroke="#784421" stroke-width="3" stroke-linecap="round" stroke-linejoin="round"><path style="marker:none" overflow="visible" enable-background="accumulate" d="M179.198 541.014h51.797v51.797h-51.797zM513.1 541.014h51.796v51.797H513.1z"/></g><path style="text-indent:0;text-align:start;line-height:normal;text-transform:none;block-progression:tb;marker:none;-inkscape-font-specification:Sans" d="M152.422 528.822l-.656 11.968c145.014 7.903 291.77 8.377 440.562 0l-.687-11.968c-148.325 8.35-294.618 7.88-439.219 0z" font-weight="400" color="#000" fill="#d38d5f" stroke="#784421" stroke-width="3" overflow="visible" enable-background="accumulate" font-family="Sans"/></svg>