<svg xmlns="http://www.w3.org/2000/svg" width="744.094" height="1052.362"><title>Team-Turmbau</title><path style="marker:none" d="M276.131 426.07l60.64-55.622" color="#000" fill="none" stroke="#784421" stroke-width="3" stroke-linecap="round" stroke-linejoin="round" overflow="visible"/><path d="M276.131 426.07v-26.553h56.98v26.553zM362.669 426.07v-26.553h56.98v26.553z" style="marker:none" color="#000" fill="#d38d5f" overflow="visible"/><path fill="#fff" stroke="#fff" stroke-width="2" stroke-linecap="round" stroke-linejoin="round" stroke-dasharray="1.99999997,3.99999995" d="M27.363 172.435h689.369v707.493H27.363z"/><path style="marker:none" d="M69.735 297.444v23.502" color="#000" fill="none" stroke="#784421" stroke-width="2" stroke-linecap="round" stroke-linejoin="round" overflow="visible"/><rect style="marker:none" width="431.098" height="303.394" x="973.495" y="961.15" rx="4.548" ry="2.791" transform="skewX(-47.235) scale(1 .67899)" color="#000" fill="#b3b3b3" fill-rule="evenodd" stroke="#000" stroke-width="1.82" overflow="visible"/><path style="marker:none" d="M419.648 811.833V533.987l75.354-69.117v277.846l-75.354 69.117" color="#000" fill="#d38d5f" overflow="visible"/><path style="marker:none" d="M419.648 533.677v278.156H276.131V426.07h143.517l-.053 75.575" color="#000" fill="#fff" fill-rule="evenodd" stroke="#784421" stroke-width="3" overflow="visible"/><path style="marker:none" d="M338.54 533.987v-32.406h35.33z" color="#000" fill="#a05a2c" overflow="visible"/><path style="marker:none" d="M276.131 426.07v-26.553h56.98v26.553zM362.669 426.07v-26.553h56.98v26.553z" color="#000" fill="#d38d5f" overflow="visible"/><path style="marker:none" d="M419.648 426.07H276.131v385.763h143.517V533.987H338.54v-32.406l81.055.064z" color="#000" fill="#d38d5f" stroke="#784421" stroke-width="3" stroke-linecap="round" stroke-linejoin="round" overflow="visible"/><path style="marker:none" d="M419.648 811.833l75.354-69.117M495.002 356.952v75.777m0 32.086v277.901" color="#000" fill="none" stroke="#784421" stroke-width="3" stroke-linecap="round" stroke-linejoin="round" overflow="visible"/><path style="marker:none" d="M379.775 383.724v-26.553l29.528-27.262v26.553z" color="#000" fill="#d38d5f" overflow="visible"/><path style="marker:none" d="M351.485 356.952h27.912m29.699 0h85.906" color="#000" fill="none" stroke="#784421" stroke-width="3" stroke-linecap="round" stroke-linejoin="round" overflow="visible"/><path d="M465.474 384.214v-26.553l29.528-27.262v26.553z" style="marker:none" color="#000" fill="#d38d5f" overflow="visible"/><path style="marker:none" d="M338.54 533.987l35.33-32.406h45.778l39.857-36.711 35.497-.055-75.354 68.862z" color="#000" fill="#cb7943" overflow="visible"/><path style="marker:none" d="M419.648 533.987H338.54v-32.406h81.108" color="#000" fill="none" stroke="#784421" stroke-width="3" stroke-linecap="round" stroke-linejoin="round" overflow="visible"/><path d="M333.11 426.07v-26.553l31.886-29.069v26.553z" style="marker:none" color="#000" fill="#d38d5f" overflow="visible"/><path d="M276.665 399.517l31.352-29.069h57.513l-31.885 29.069z" style="marker:none" color="#000" fill="#d38d5f" overflow="visible"/><path d="M362.669 399.517v26.553H333.11v-26.553" style="marker:none" color="#000" fill="none" stroke="#784421" stroke-width="3" stroke-linecap="round" stroke-linejoin="round" overflow="visible"/><path d="M419.648 426.07l75.354-69.118" style="marker:none" color="#000" fill="none" stroke="#333" stroke-width="2" stroke-linecap="round" stroke-linejoin="round" overflow="visible"/><path d="M495.002 464.87h-35.497M419.648 533.987l75.354-69.117M338.54 533.987l35.33-32.406" style="marker:none" color="#000" fill="none" stroke="#784421" stroke-width="3" stroke-linecap="round" stroke-linejoin="round" overflow="visible"/><path d="M419.648 501.581l75.354-69.117" style="marker:none" color="#000" fill="none" stroke="#333" stroke-width="2" stroke-linecap="round" stroke-linejoin="round" overflow="visible"/><path style="marker:none" d="M419.648 426.07v-26.553l31.886-29.069v26.553z" color="#000" fill="#d38d5f" overflow="visible"/><path style="marker:none" d="M419.648 501.581V426.07l75.354-69.118v75.832z" color="#000" fill="#d38d5f" stroke="#784421" stroke-width="3" stroke-linecap="round" stroke-linejoin="round" overflow="visible"/><path style="marker:none" d="M438.023 330.4v26.552h-29.558V330.4" color="#000" fill="none" stroke="#784421" stroke-width="3" stroke-linecap="round" stroke-linejoin="round" overflow="visible"/><path d="M409.4 357.058l28.623-26.659h56.98l-29.529 27.262zM323.322 356.35l28.624-26.66h56.98l-29.529 27.262z" style="marker:none" color="#000" fill="#d38d5f" overflow="visible"/><path d="M333.11 399.517l31.307-28.716m15.293-14.027l28.755-26.375M362.669 399.517l75.354-69.118M419.648 399.517v26.553M495.002 330.4v26.552M276.131 399.517l31.886-29.069m14.744-13.702l28.724-26.347" style="marker:none" color="#000" fill="none" stroke="#784421" stroke-width="3" stroke-linecap="round" stroke-linejoin="round" overflow="visible"/><path d="M451.114 397.622l.112-14.029 14.667.15z" style="marker:none" color="#000" fill="#a05a2c" overflow="visible"/><path style="marker:none" d="M362.669 399.517l31.351-29.069h57.514l-31.886 29.069z" color="#000" fill="#d38d5f" overflow="visible"/><path d="M408.465 370.474v-13.522l56.913.113.066 25.8h-14.733l-.626-12.23z" style="marker:none" color="#000" fill="#cb7943" overflow="visible"/><path style="marker:none" d="M419.648 399.517l31.4-28.8m14.188-13.015l29.766-27.303M276.131 399.517h56.98M351.485 330.4h56.98M438.023 330.4h56.98M362.669 399.517h56.98" color="#000" fill="none" stroke="#784421" stroke-width="3" stroke-linecap="round" stroke-linejoin="round" overflow="visible"/><path style="marker:none" d="M322.862 370.58v-13.522l56.913.113.066 25.8h-14.733l-.626-12.23z" color="#000" fill="#cb7943" overflow="visible"/><path style="marker:none" d="M364.996 397.001l.112-14.03 14.667.15zM394.02 370.448l14.445-13.496v13.496H394.02" color="#000" fill="#a05a2c" overflow="visible"/><g stroke="#784421" stroke-width="3.683" color="#000" fill="none" stroke-linecap="round" stroke-linejoin="round"><path style="marker:none" d="M322.862 370.58v-13.522h56.695m29.102 0l56.815.603M364.855 396.975v-26.553M379.775 383.121v-25.95M408.465 370.448v-13.496M276.131 425.928v-26.411m85.798 0l56.815.603" overflow="visible" stroke-width="2.9997298399999996"/></g><g stroke="#784421" stroke-width="3.683" color="#000" fill="none" stroke-linecap="round" stroke-linejoin="round"><path d="M451.534 397.001l13.94-12.787M451.534 397.001v-26.553M465.474 384.214v-26.553" style="marker:none" overflow="visible" stroke-width="2.9997298399999996"/></g><path style="marker:none" d="M451.534 370.448H394.02m-29.133 0h-56.87M333.11 426.07l75.355-69.118M365.108 382.972h14.733" color="#000" fill="none" stroke="#784421" stroke-width="3" stroke-linecap="round" stroke-linejoin="round" overflow="visible"/><path style="marker:none" d="M362.669 426.07H333.11l29.558-26.553z" color="#000" fill="#a05a2c" stroke="#784421" stroke-width="2" stroke-linecap="round" stroke-linejoin="round" overflow="visible"/><path style="marker:none" d="M451.534 383.724h13.104" color="#000" fill="none" stroke="#784421" stroke-width="3" stroke-linecap="round" stroke-linejoin="round" overflow="visible"/><path style="text-indent:0;text-align:start;line-height:normal;text-transform:none;block-progression:tb;marker:none;-inkscape-font-specification:Sans" d="M175.043 257.482a4 4 0 0 0-2.407 1.063c-.069.038-.068.047-.156.094-.553.291-1.434.732-2.5 1.25-.621.301-1.555.744-2.281 1.093-1.709-.27-3.527-.666-5.031-.875-.59-.081-1.3-.626-3.25.688-.976.657-1.83 2.321-1.813 3.469.012.843.242 1.179.438 1.562-1.18.615-2.58 1.256-3.532 1.813-1.033.604-1.834 1.096-2.687 1.843-.427.374-.962.657-1.5 2.094-.27.719-.451 2.017.094 3.219.544 1.201 1.536 1.843 2.187 2.125 1.974.854 4.178 1.724 5.75 2.437.258.117.314.175.531.282-1.286 35.396-1.444 58.515-1.531 75.125.006.617-.042 1.226-.031 1.843-.06 11.48-.111 20.408-.531 26.594-.522 7.689-1.532 12.447-3.875 18.344-2.344 5.896-6.12 12.972-12.063 24.375-4.763 9.139-12.609 17.3-19.687 26.156-7.079 8.856-13.503 18.636-14.094 31-.769 16.081 4.716 29.805 14.531 39.344 9.815 9.539 23.803 14.896 39.75 15.219 40.395.817 70.846-29.84 67.719-70.22-1.192-15.387-12.553-25.028-24.156-33.405-11.603-8.378-23.787-16.046-29.625-26.688-9.007-16.417-10.859-44.888-9.625-71.031 1.18-25.043 4.851-47.24 6.468-56.219.03-.012.032-.019.063-.031 1.045-.42 2.549-1.014 4.094-1.625.01-.004.02.004.03 0a4 4 0 0 0 4.438-2c.525-.252 1.098-.447 1.594-.719 1.688-.923 3.432-1.446 4.594-4.312.387-.956.407-2.232.093-3.188-.313-.956-.825-1.58-1.28-2.031-.913-.902-1.73-1.302-2.595-1.688-1.198-.534-2.693-.891-4.156-1.28.163-.36.316-.79.344-1.5a4 4 0 0 0-4.313-4.22zm-3.22 2.094a4 4 0 0 0-.155.344c.056-.125.095-.25.156-.344zm-7.28 11.875c.556.359.946.664 1.53 1.031.682.429.756.425 1.438.844l-.187.094a6.732 6.732 0 0 0-.969.594c-.165.118-.475.247-.75.468-.507-.519-.928-.8-1.344-1.062-.563-.357-1.18-.617-1.78-.906.725-.373 1.277-.672 2.062-1.063zm-1.907 125.625c1.5 5.072 3.33 9.852 5.657 14.094 7.243 13.204 20.682 21.218 31.937 29.344 11.255 8.126 19.967 15.802 20.875 27.53 2.802 36.175-23.221 62.33-59.594 61.595-14.26-.289-26.178-5.033-34.343-12.97-8.166-7.935-12.768-19.088-12.094-33.187.468-9.806 5.593-17.961 12.344-26.406 6.75-8.445 15.035-16.925 20.53-27.469 5.922-11.36 9.79-18.507 12.407-25.093.995-2.505 1.644-4.952 2.281-7.438z" font-weight="400" color="#000" fill="#917c6f" stroke="#6c5d53" overflow="visible" font-family="Sans"/><path d="M256.63 247.307v21.69" style="marker:none" color="#000" fill="none" stroke="#784421" stroke-width="2" stroke-linecap="round" stroke-linejoin="round" overflow="visible"/><g fill="#d38d5f" color="#000" stroke="#784421" stroke-linecap="round" stroke-linejoin="round"><path style="marker:none" d="M189.534 359.38c0 36.8-29.833 66.633-66.633 66.633s-66.633-29.832-66.633-66.633c0-36.8 29.832-66.633 66.633-66.633 36.8 0 66.633 29.833 66.633 66.633z" transform="rotate(15 252.65 1560.614) skewX(-38.396)" stroke-width="1.5" overflow="visible"/><path d="M189.534 359.38c0 36.8-29.833 66.633-66.633 66.633s-66.633-29.832-66.633-66.633c0-36.8 29.832-66.633 66.633-66.633 36.8 0 66.633 29.833 66.633 66.633z" style="marker:none" stroke-width="1.5" overflow="visible" transform="rotate(15 328.607 1550.614) skewX(-38.396)"/><path transform="matrix(1.2419 .33277 -1.31694 .9782 468.927 -108.22)" d="M128.262 308.968a5.497 5.497 0 1 1-10.994 0 5.497 5.497 0 0 1 10.994 0z" style="marker:none" stroke-width="1.167" overflow="visible"/><path style="marker:none" d="M128.262 308.968a5.497 5.497 0 1 1-10.994 0 5.497 5.497 0 0 1 10.994 0z" transform="matrix(1.2419 .33277 -1.31694 .9782 466 -57.085)" stroke-width="1.167" overflow="visible"/><path transform="matrix(1.2419 .33277 -1.31694 .9782 369.118 -83.044)" d="M128.262 308.968a5.497 5.497 0 1 1-10.994 0 5.497 5.497 0 0 1 10.994 0z" style="marker:none" stroke-width="1.167" overflow="visible"/><path style="marker:none" d="M128.262 308.968a5.497 5.497 0 1 1-10.994 0 5.497 5.497 0 0 1 10.994 0z" transform="matrix(1.2419 .33277 -1.31694 .9782 366.192 -31.91)" stroke-width="1.167" overflow="visible"/><path style="marker:none" d="M128.262 308.968a5.497 5.497 0 1 1-10.994 0 5.497 5.497 0 0 1 10.994 0z" transform="matrix(1.2419 .33277 -1.31694 .9782 401.292 -100.383)" stroke-width="1.167" overflow="visible"/><path transform="matrix(1.2419 .33277 -1.31694 .9782 348.853 -43.511)" d="M128.262 308.968a5.497 5.497 0 1 1-10.994 0 5.497 5.497 0 0 1 10.994 0z" style="marker:none" stroke-width="1.167" overflow="visible"/><path style="marker:none" d="M128.262 308.968a5.497 5.497 0 1 1-10.994 0 5.497 5.497 0 0 1 10.994 0z" transform="matrix(1.2419 .33277 -1.31694 .9782 433.827 -39.746)" stroke-width="1.167" overflow="visible"/><path transform="matrix(1.2419 .33277 -1.31694 .9782 486.265 -96.618)" d="M128.262 308.968a5.497 5.497 0 1 1-10.994 0 5.497 5.497 0 0 1 10.994 0z" style="marker:none" stroke-width="1.167" overflow="visible"/><path transform="matrix(1.2419 .33277 -1.31694 .9782 437.824 -109.597)" d="M128.262 308.968a5.497 5.497 0 1 1-10.994 0 5.497 5.497 0 0 1 10.994 0z" style="marker:none" stroke-width="1.167" overflow="visible"/><path style="marker:none" d="M128.262 308.968a5.497 5.497 0 1 1-10.994 0 5.497 5.497 0 0 1 10.994 0z" transform="matrix(1.2419 .33277 -1.31694 .9782 485.194 -77.901)" stroke-width="1.167" overflow="visible"/><path transform="matrix(1.2419 .33277 -1.31694 .9782 397.294 -30.531)" d="M128.262 308.968a5.497 5.497 0 1 1-10.994 0 5.497 5.497 0 0 1 10.994 0z" style="marker:none" stroke-width="1.167" overflow="visible"/><path style="marker:none" d="M128.262 308.968a5.497 5.497 0 1 1-10.994 0 5.497 5.497 0 0 1 10.994 0z" transform="matrix(1.2419 .33277 -1.31694 .9782 349.925 -62.228)" stroke-width="1.167" overflow="visible"/><path style="marker:none" d="M128.262 308.968a5.497 5.497 0 1 1-10.994 0 5.497 5.497 0 0 1 10.994 0z" transform="matrix(1.2419 .33277 -1.31694 .9782 417.56 -70.064)" stroke-width="1.167" overflow="visible"/></g><path style="text-indent:0;text-align:start;line-height:normal;text-transform:none;block-progression:tb;marker:none;-inkscape-font-specification:Sans" d="M141.824 258.389a4.002 4.002 0 1 0-.25 8c7.253.572 13.49 1.227 18.187 4l-.156 3.937a4.003 4.003 0 1 0 8 .313l.25-6.313a4 4 0 0 0-1.562-3.344c-7.265-5.587-16.095-5.931-24.094-6.562a4 4 0 0 0-.375-.031z" font-weight="400" color="#000" fill="#917c6f" stroke="#6c5d53" overflow="visible" font-family="Sans"/><path style="text-indent:0;text-align:start;line-height:normal;text-transform:none;block-progression:tb;marker:none;-inkscape-font-specification:Sans" d="M176.199 254.764a4.2 4.2 0 0 0-.25.03c-5.682.548-10.332 2.92-13.531 5.782-.058.051-.1.105-.157.156-1.292.23-2.598.626-3.78 1.344-2.702 1.64-4.782 4.146-5.157 7.281-.375 3.136 2.548 8.749 2.548 8.749.442 1.474 4.972 1.267 6.44-.108.75.267 1.02.45 1.852.469 1.84.043 5.147-1.355 6.459-3.024 1.311-1.668 1.33-4.288 1.2-6.46-.084-1.443-.151-2.556-.862-3.92 1.703-.914 3.385-2.073 5.738-2.3 2.094-.13 3.881-2.155 3.75-4.25-.13-2.094-2.156-3.88-4.25-3.75z" font-weight="400" color="#000" fill="#917c6f" stroke="#6c5d53" overflow="visible" font-family="Sans"/><path style="marker:none" d="M162.752 260.595c2.539.445 4.694 1.23 8.254 4.056M161.857 277.7c-1.652-2.227-6.604-8.393-1.131-10.752 1.63-.703 4.966-.65 5.977 1.59 1.319 2.923-1.285 4.624-2.855 5.215-.364.137-.88.083-1.31-.068-.438-.153-.324-.499-.336-.752" color="#000" fill="#917c6f" stroke="#6c5d53" stroke-linecap="round" stroke-linejoin="round" overflow="visible"/><path d="M158.68 269.11c2.539.444 4.324 3.173 4.552 4.703" style="marker:none" color="#000" fill="none" stroke="#6c5d53" stroke-linecap="round" stroke-linejoin="round" overflow="visible"/><path style="text-indent:0;text-align:start;line-height:normal;text-transform:none;block-progression:tb;marker:none;-inkscape-font-specification:Sans" d="M282.273 193.513a4 4 0 0 0-1.441.393s-10.89 4.843-22.921 12.237c-12.03 7.394-25.435 16.953-30.533 28.577-1.484 3.384-.75 6.263-.264 8.748a42.41 42.41 0 0 0 1.148 4.51 4.003 4.003 0 0 0 7.585-2.558s-.503-1.57-.876-3.477c-.373-1.906-.158-4.203-.246-4.002 3.526-8.04 15.849-17.894 27.376-24.98 11.528-7.084 22.01-11.776 22.01-11.776a4 4 0 0 0-1.838-7.672zM83.316 204.736a4 4 0 0 0-.531 7.97s11.316 1.9 24.25 5.874c12.934 3.974 27.324 10.443 32.75 17.344-.136-.173.665 1.999.781 3.937.116 1.94 0 3.594 0 3.594a4 4 0 1 0 7.969.563s.152-2.129 0-4.657c-.152-2.527-.154-5.502-2.438-8.406-7.845-9.978-23.22-15.853-36.718-20-13.499-4.147-25.282-6.156-25.282-6.156a4 4 0 0 0-.78-.063zM134.324 306.295a10.22 10.22 0 0 0-2.531.062c-12.564 1.806-25.348 12.165-35.688 21.782-10.34 9.616-17.969 18.812-17.969 18.812a4.007 4.007 0 1 0 6.188 5.094s7.31-8.848 17.219-18.063c9.908-9.214 22.685-18.47 31.375-19.718-.218.03 2.044.443 3.78 1.312a30.361 30.361 0 0 1 3.126 1.813 4.004 4.004 0 1 0 4.5-6.625s-1.766-1.212-4.031-2.344c-1.7-.85-3.592-1.881-5.97-2.125z" font-weight="400" color="#000" fill="#917c6f" stroke="#6c5d53" overflow="visible" font-family="Sans"/></svg>