<svg xmlns="http://www.w3.org/2000/svg" xmlns:xlink="http://www.w3.org/1999/xlink" width="744.094" height="1052.362"><title>Experiment Hookesches Gesetz</title><defs><linearGradient id="a"><stop offset="0" stop-color="#0e0e0e"/><stop offset="1" stop-color="#6a6a6a"/></linearGradient><radialGradient xlink:href="#a" id="d" gradientUnits="userSpaceOnUse" gradientTransform="matrix(0 -.60616 .05823 0 110.147 1541.194)" cx="1856.591" cy="1368.978" fx="1856.591" fy="1368.978" r="246.82"/><radialGradient xlink:href="#a" id="e" gradientUnits="userSpaceOnUse" gradientTransform="matrix(0 -.60616 .05823 0 110.192 1541.194)" cx="1856.591" cy="1368.978" fx="1856.591" fy="1368.978" r="246.82"/><radialGradient xlink:href="#a" id="f" gradientUnits="userSpaceOnUse" gradientTransform="matrix(0 -.60616 .05823 0 110.147 1541.194)" cx="1856.591" cy="1368.978" fx="1856.591" fy="1368.978" r="246.82"/><radialGradient xlink:href="#a" id="g" gradientUnits="userSpaceOnUse" gradientTransform="matrix(0 -.60616 .05823 0 110.147 1541.194)" cx="1856.591" cy="1368.978" fx="1856.591" fy="1368.978" r="246.82"/><radialGradient xlink:href="#a" id="h" gradientUnits="userSpaceOnUse" gradientTransform="matrix(0 -.60616 .05823 0 110.147 1541.194)" cx="1856.591" cy="1368.978" fx="1856.591" fy="1368.978" r="246.82"/><radialGradient xlink:href="#a" id="i" gradientUnits="userSpaceOnUse" gradientTransform="matrix(0 -.60616 .05823 0 110.147 1541.194)" cx="1856.591" cy="1368.978" fx="1856.591" fy="1368.978" r="246.82"/><radialGradient xlink:href="#a" id="j" gradientUnits="userSpaceOnUse" gradientTransform="matrix(0 -.60616 .05823 0 110.147 1541.194)" cx="1856.591" cy="1368.978" fx="1856.591" fy="1368.978" r="246.82"/><radialGradient xlink:href="#a" id="k" gradientUnits="userSpaceOnUse" gradientTransform="matrix(0 -.60616 .05823 0 110.147 1541.194)" cx="1856.591" cy="1368.978" fx="1856.591" fy="1368.978" r="246.82"/><radialGradient xlink:href="#a" id="l" gradientUnits="userSpaceOnUse" gradientTransform="matrix(0 -.60616 .05823 0 110.147 1541.194)" cx="1856.591" cy="1368.978" fx="1856.591" fy="1368.978" r="246.82"/><radialGradient xlink:href="#a" id="m" gradientUnits="userSpaceOnUse" gradientTransform="matrix(0 -.60616 .05823 0 110.147 1541.194)" cx="1856.591" cy="1368.978" fx="1856.591" fy="1368.978" r="246.82"/><radialGradient xlink:href="#a" id="n" gradientUnits="userSpaceOnUse" gradientTransform="matrix(0 -.60616 .05823 0 110.147 1541.194)" cx="1856.591" cy="1368.978" fx="1856.591" fy="1368.978" r="246.82"/><radialGradient xlink:href="#a" id="o" gradientUnits="userSpaceOnUse" gradientTransform="matrix(0 -.60616 .05823 0 110.192 1541.194)" cx="1856.591" cy="1368.978" fx="1856.591" fy="1368.978" r="246.82"/><radialGradient xlink:href="#a" id="p" gradientUnits="userSpaceOnUse" gradientTransform="matrix(0 -.60616 .05823 0 110.147 1541.194)" cx="1856.591" cy="1368.978" fx="1856.591" fy="1368.978" r="246.82"/><radialGradient xlink:href="#a" id="q" gradientUnits="userSpaceOnUse" gradientTransform="matrix(0 -.60616 .05823 0 110.147 1541.194)" cx="1856.591" cy="1368.978" fx="1856.591" fy="1368.978" r="246.82"/><radialGradient xlink:href="#a" id="r" gradientUnits="userSpaceOnUse" gradientTransform="matrix(0 -.60616 .05823 0 110.147 1541.194)" cx="1856.591" cy="1368.978" fx="1856.591" fy="1368.978" r="246.82"/><radialGradient xlink:href="#a" id="s" gradientUnits="userSpaceOnUse" gradientTransform="matrix(0 -.60616 .05823 0 110.147 1541.194)" cx="1856.591" cy="1368.978" fx="1856.591" fy="1368.978" r="246.82"/><radialGradient xlink:href="#a" id="t" gradientUnits="userSpaceOnUse" gradientTransform="matrix(0 -.60616 .05823 0 110.147 1541.194)" cx="1856.591" cy="1368.978" fx="1856.591" fy="1368.978" r="246.82"/><radialGradient xlink:href="#a" id="u" gradientUnits="userSpaceOnUse" gradientTransform="matrix(0 -.60616 .05823 0 110.147 1541.194)" cx="1856.591" cy="1368.978" fx="1856.591" fy="1368.978" r="246.82"/><radialGradient xlink:href="#a" id="v" gradientUnits="userSpaceOnUse" gradientTransform="matrix(0 -.60616 .05823 0 110.147 1541.194)" cx="1856.591" cy="1368.978" fx="1856.591" fy="1368.978" r="246.82"/><radialGradient xlink:href="#a" id="w" gradientUnits="userSpaceOnUse" gradientTransform="matrix(0 -.60616 .05823 0 110.147 1541.194)" cx="1856.591" cy="1368.978" fx="1856.591" fy="1368.978" r="246.82"/><radialGradient xlink:href="#a" id="x" gradientUnits="userSpaceOnUse" gradientTransform="matrix(0 -.60616 .05823 0 110.147 1528.602)" cx="1856.591" cy="1368.978" fx="1856.591" fy="1368.978" r="246.82"/><filter color-interpolation-filters="sRGB" id="U" x="-.6" width="2.2" y="-.6" height="2.2"><feGaussianBlur stdDeviation="5.714"/></filter><radialGradient xlink:href="#a" id="y" gradientUnits="userSpaceOnUse" gradientTransform="matrix(0 -.60616 .05823 0 110.147 1541.194)" cx="1856.591" cy="1368.978" fx="1856.591" fy="1368.978" r="246.82"/><radialGradient xlink:href="#a" id="z" gradientUnits="userSpaceOnUse" gradientTransform="matrix(0 -.60616 .05823 0 110.192 1541.194)" cx="1856.591" cy="1368.978" fx="1856.591" fy="1368.978" r="246.82"/><radialGradient xlink:href="#a" id="A" gradientUnits="userSpaceOnUse" gradientTransform="matrix(0 -.60616 .05823 0 110.147 1541.194)" cx="1856.591" cy="1368.978" fx="1856.591" fy="1368.978" r="246.82"/><radialGradient xlink:href="#a" id="B" gradientUnits="userSpaceOnUse" gradientTransform="matrix(0 -.60616 .05823 0 110.147 1541.194)" cx="1856.591" cy="1368.978" fx="1856.591" fy="1368.978" r="246.82"/><radialGradient xlink:href="#a" id="C" gradientUnits="userSpaceOnUse" gradientTransform="matrix(0 -.60616 .05823 0 110.147 1541.194)" cx="1856.591" cy="1368.978" fx="1856.591" fy="1368.978" r="246.82"/><radialGradient xlink:href="#a" id="D" gradientUnits="userSpaceOnUse" gradientTransform="matrix(0 -.60616 .05823 0 110.147 1541.194)" cx="1856.591" cy="1368.978" fx="1856.591" fy="1368.978" r="246.82"/><radialGradient xlink:href="#a" id="E" gradientUnits="userSpaceOnUse" gradientTransform="matrix(0 -.60616 .05823 0 110.147 1541.194)" cx="1856.591" cy="1368.978" fx="1856.591" fy="1368.978" r="246.82"/><radialGradient xlink:href="#a" id="F" gradientUnits="userSpaceOnUse" gradientTransform="matrix(0 -.60616 .05823 0 110.147 1541.194)" cx="1856.591" cy="1368.978" fx="1856.591" fy="1368.978" r="246.82"/><radialGradient xlink:href="#a" id="G" gradientUnits="userSpaceOnUse" gradientTransform="matrix(0 -.60616 .05823 0 110.147 1541.194)" cx="1856.591" cy="1368.978" fx="1856.591" fy="1368.978" r="246.82"/><radialGradient xlink:href="#a" id="H" gradientUnits="userSpaceOnUse" gradientTransform="matrix(0 -.60616 .05823 0 110.147 1541.194)" cx="1856.591" cy="1368.978" fx="1856.591" fy="1368.978" r="246.82"/><radialGradient xlink:href="#a" id="I" gradientUnits="userSpaceOnUse" gradientTransform="matrix(0 -.60616 .05823 0 110.147 1541.194)" cx="1856.591" cy="1368.978" fx="1856.591" fy="1368.978" r="246.82"/><radialGradient xlink:href="#a" id="K" gradientUnits="userSpaceOnUse" gradientTransform="matrix(0 -.60616 .05823 0 110.192 1541.194)" cx="1856.591" cy="1368.978" fx="1856.591" fy="1368.978" r="246.82"/><radialGradient xlink:href="#a" id="L" gradientUnits="userSpaceOnUse" gradientTransform="matrix(0 -.60616 .05823 0 110.147 1541.194)" cx="1856.591" cy="1368.978" fx="1856.591" fy="1368.978" r="246.82"/><radialGradient xlink:href="#a" id="M" gradientUnits="userSpaceOnUse" gradientTransform="matrix(0 -.60616 .05823 0 110.147 1541.194)" cx="1856.591" cy="1368.978" fx="1856.591" fy="1368.978" r="246.82"/><radialGradient xlink:href="#a" id="N" gradientUnits="userSpaceOnUse" gradientTransform="matrix(0 -.60616 .05823 0 110.147 1541.194)" cx="1856.591" cy="1368.978" fx="1856.591" fy="1368.978" r="246.82"/><radialGradient xlink:href="#a" id="O" gradientUnits="userSpaceOnUse" gradientTransform="matrix(0 -.60616 .05823 0 110.147 1541.194)" cx="1856.591" cy="1368.978" fx="1856.591" fy="1368.978" r="246.82"/><radialGradient xlink:href="#a" id="P" gradientUnits="userSpaceOnUse" gradientTransform="matrix(0 -.60616 .05823 0 110.147 1541.194)" cx="1856.591" cy="1368.978" fx="1856.591" fy="1368.978" r="246.82"/><radialGradient xlink:href="#a" id="Q" gradientUnits="userSpaceOnUse" gradientTransform="matrix(0 -.60616 .05823 0 110.147 1541.194)" cx="1856.591" cy="1368.978" fx="1856.591" fy="1368.978" r="246.82"/><radialGradient xlink:href="#a" id="R" gradientUnits="userSpaceOnUse" gradientTransform="matrix(0 -.60616 .05823 0 110.147 1541.194)" cx="1856.591" cy="1368.978" fx="1856.591" fy="1368.978" r="246.82"/><radialGradient xlink:href="#a" id="S" gradientUnits="userSpaceOnUse" gradientTransform="matrix(0 -.60616 .05823 0 110.147 1541.194)" cx="1856.591" cy="1368.978" fx="1856.591" fy="1368.978" r="246.82"/><radialGradient xlink:href="#a" id="J" gradientUnits="userSpaceOnUse" gradientTransform="matrix(0 -.60616 .05823 0 110.147 1528.602)" cx="1856.591" cy="1368.978" fx="1856.591" fy="1368.978" r="246.82"/><radialGradient xlink:href="#a" id="T" gradientUnits="userSpaceOnUse" gradientTransform="matrix(0 -.19057 -.0082 0 201.063 707.192)" cx="1856.591" cy="1368.978" fx="1856.591" fy="1368.978" r="246.82"/><linearGradient id="b"><stop offset="0" stop-color="#0e0e0e"/><stop offset="1" stop-color="#6a6a6a"/></linearGradient><radialGradient r="246.82" fy="1368.978" fx="1856.591" cy="1368.978" cx="1856.591" gradientTransform="matrix(0 -.12502 -.00856 0 217.417 691.782)" gradientUnits="userSpaceOnUse" id="V" xlink:href="#b"/><linearGradient id="c"><stop offset="0" stop-color="#0e0e0e"/><stop offset="1" stop-color="#6a6a6a"/></linearGradient><radialGradient r="246.82" fy="1368.978" fx="1856.591" cy="1368.978" cx="1856.591" gradientTransform="matrix(0 -.31629 .06077 0 122.588 1076.391)" gradientUnits="userSpaceOnUse" id="W" xlink:href="#c"/></defs><path style="marker:none" color="#000" fill="#fff" fill-rule="evenodd" stroke="#fff" stroke-width="1.231" overflow="visible" enable-background="accumulate" d="M36.046 935.586V231.737h672.002v703.849z"/><path style="marker:none" transform="skewX(-52.417) scale(1 .60991)" color="#000" fill="#ccc" fill-rule="evenodd" stroke="#000" stroke-width="1.921" overflow="visible" enable-background="accumulate" d="M1219.447 1277.284h506.323v222.987h-506.323z"/><path d="M374.562 347.141a15.442 15.442 0 1 1 .631 28.128" fill="none" stroke="#000" stroke-width="3.1306842400000003" stroke-linecap="round" stroke-linejoin="round"/><g stroke="#333" stroke-width="5.269" fill="none" stroke-linecap="round"><path transform="matrix(-.48267 0 0 -.63655 317.781 211.08)" d="M234.75-345.03c-6.696 0-12.125-5.43-12.125-12.126s5.429-12.125 12.125-12.125 12.125 5.429 12.125 12.125" stroke-width="5.412" stroke-linejoin="round"/><path d="M228.625-51.638v16.875" transform="matrix(-.48267 0 0 -.63655 314.825 397.838)"/><path d="M234.75-345.03c-6.696 0-12.125-5.43-12.125-12.126s5.429-12.125 12.125-12.125 12.125 5.429 12.125 12.125" transform="matrix(-.48267 0 0 -.63655 319.053 394.455)" stroke-width="5.412" stroke-linejoin="round"/></g><path d="M204.475 419.967l.036-42.805" fill="#333" stroke="#000" stroke-width="3.131" stroke-linecap="round"/><path d="M219.953 361.348a15.442 15.442 0 1 1-30.883 0 15.442 15.442 0 1 1 30.883 0z" fill="none" stroke="#000" stroke-width="3.1306842400000003" stroke-linecap="round" stroke-linejoin="round"/><rect rx="1.835" ry="1.835" y="402.78" x="199.881" height="24.905" width="9.224" fill="#666"/><path d="M383.953 361.348a15.442 15.442 0 1 1-30.883 0 15.442 15.442 0 1 1 30.883 0z" fill="none" stroke="#000" stroke-width="3.1306842400000003" stroke-linecap="round" stroke-linejoin="round"/><path style="marker:none" color="#000" fill="#999" fill-rule="evenodd" stroke="#000" stroke-width="1.5" overflow="visible" enable-background="accumulate" d="M112.437 348.248H463.06v18.125H112.437z"/><path d="M210.562 347.141a15.442 15.442 0 1 1 .631 28.128" fill="none" stroke="#000" stroke-width="3.1306842400000003" stroke-linecap="round" stroke-linejoin="round"/><path style="marker:none" d="M205.746 594.456v19.628" color="#000" fill="none" stroke="#333" stroke-width="3" stroke-linecap="round" stroke-linejoin="round" overflow="visible" enable-background="accumulate"/><path d="M368.475 419.967l.036-42.805" fill="#333" stroke="#000" stroke-width="3.131" stroke-linecap="round"/><g stroke="#333" stroke-width="5.269" fill="none" stroke-linecap="round"><path d="M234.75-345.03c-6.696 0-12.125-5.43-12.125-12.126s5.429-12.125 12.125-12.125 12.125 5.429 12.125 12.125" transform="matrix(-.48267 0 0 -.63655 481.781 211.08)" stroke-width="5.412" stroke-linejoin="round"/><path d="M228.625-51.638v16.875" transform="matrix(-.48267 0 0 -.63655 478.825 397.838)"/><path transform="matrix(-.48267 0 0 -.63655 483.053 434.455)" d="M234.75-345.03c-6.696 0-12.125-5.43-12.125-12.126s5.429-12.125 12.125-12.125 12.125 5.429 12.125 12.125" stroke-width="5.412" stroke-linejoin="round"/></g><rect width="9.224" height="24.905" x="363.881" y="402.78" ry="1.835" rx="1.835" fill="#666"/><g stroke-linecap="round" fill="none"><g stroke="#1a1a1a" stroke-width="13.484"><path d="M1731.474 1368.767c1.503-35.42 6.608-80.021 24.155-84.56M1768.259 1453.892c-26.484.405-21.369-162.323 8.144-169.956M1789.033 1453.892c-26.484.405-21.369-162.323 8.144-169.956M1809.807 1453.892c-26.484.405-21.369-162.323 8.144-169.956M1830.58 1453.892c-26.483.405-21.368-162.323 8.145-169.956M1851.354 1453.892c-26.483.405-21.368-162.323 8.145-169.956M1934.45 1453.892c-26.484.405-21.369-162.323 8.145-169.956M1955.224 1453.892c-26.484.405-21.369-162.323 8.144-169.956M1913.676 1453.892c-26.484.405-21.369-162.323 8.145-169.956M1892.902 1453.892c-26.484.405-21.368-162.323 8.145-169.956M1872.128 1453.892c-26.483.405-21.368-162.323 8.145-169.956" transform="matrix(0 -.31629 .17043 0 -27.529 1142.096)"/></g><g stroke="#1a1a1a" stroke-width="13.484"><path d="M1768.259 1453.892c-26.484.405-21.369-162.323 8.144-169.956M1789.033 1453.892c-26.484.405-21.369-162.323 8.144-169.956M1809.807 1453.892c-26.484.405-21.369-162.323 8.144-169.956M1830.58 1453.892c-26.483.405-21.368-162.323 8.145-169.956M1851.354 1453.892c-26.483.405-21.368-162.323 8.145-169.956M1934.45 1453.892c-26.484.405-21.369-162.323 8.145-169.956M1955.224 1453.892c-26.484.405-21.369-162.323 8.144-169.956M1913.676 1453.892c-26.484.405-21.369-162.323 8.145-169.956M1892.902 1453.892c-26.484.405-21.368-162.323 8.145-169.956M1872.128 1453.892c-26.483.405-21.368-162.323 8.145-169.956" transform="matrix(0 -.31629 .17043 0 -27.529 1076.391)"/></g><g stroke-width="4.243"><path d="M176.025 376.259c-.944-19.296 29.029-25.186 27.667-7.656" stroke="url(#d)" transform="matrix(1.04357 0 0 .52178 7.595 337.926)"/><path d="M176.07 363.666c-.944-19.295 29.029-25.186 27.667-7.655" stroke="url(#e)" transform="matrix(1.04357 0 0 .52178 7.595 337.926)"/><path d="M176.025 388.851c-.944-19.295 29.029-25.186 27.667-7.655" stroke="url(#f)" transform="matrix(1.04357 0 0 .52178 7.595 337.926)"/><path d="M176.025 401.443c-.944-19.295 29.029-25.186 27.667-7.655" stroke="url(#g)" transform="matrix(1.04357 0 0 .52178 7.595 337.926)"/><path d="M176.025 464.405c-.944-19.295 29.029-25.186 27.667-7.655" stroke="url(#h)" transform="matrix(1.04357 0 0 .52178 7.595 337.926)"/><path d="M176.025 476.997c-.944-19.295 29.029-25.186 27.667-7.655" stroke="url(#i)" transform="matrix(1.04357 0 0 .52178 7.595 337.926)"/><path d="M176.025 451.813c-.944-19.296 29.029-25.186 27.667-7.656" stroke="url(#j)" transform="matrix(1.04357 0 0 .52178 7.595 337.926)"/><path d="M176.025 439.22c-.944-19.295 29.029-25.186 27.667-7.655" stroke="url(#k)" transform="matrix(1.04357 0 0 .52178 7.595 337.926)"/><path d="M176.025 426.628c-.944-19.295 29.029-25.186 27.667-7.655" stroke="url(#l)" transform="matrix(1.04357 0 0 .52178 7.595 337.926)"/><path d="M176.025 414.036c-.944-19.296 29.029-25.186 27.667-7.656" stroke="url(#m)" transform="matrix(1.04357 0 0 .52178 7.595 337.926)"/></g><g stroke-width="4.243"><path d="M176.025 376.259c-.944-19.296 29.029-25.186 27.667-7.656" stroke="url(#n)" transform="matrix(1.04357 0 0 .52178 7.595 272.222)"/><path d="M176.07 363.666c-.944-19.295 29.029-25.186 27.667-7.655" stroke="url(#o)" transform="matrix(1.04357 0 0 .52178 7.595 272.222)"/><path d="M176.025 388.851c-.944-19.295 29.029-25.186 27.667-7.655" stroke="url(#p)" transform="matrix(1.04357 0 0 .52178 7.595 272.222)"/><path d="M176.025 401.443c-.944-19.295 29.029-25.186 27.667-7.655" stroke="url(#q)" transform="matrix(1.04357 0 0 .52178 7.595 272.222)"/><path d="M176.025 464.405c-.944-19.295 29.029-25.186 27.667-7.655" stroke="url(#r)" transform="matrix(1.04357 0 0 .52178 7.595 272.222)"/><path d="M176.025 476.997c-.944-19.295 29.029-25.186 27.667-7.655" stroke="url(#s)" transform="matrix(1.04357 0 0 .52178 7.595 272.222)"/><path d="M176.025 451.813c-.944-19.296 29.029-25.186 27.667-7.656" stroke="url(#t)" transform="matrix(1.04357 0 0 .52178 7.595 272.222)"/><path d="M176.025 439.22c-.944-19.295 29.029-25.186 27.667-7.655" stroke="url(#u)" transform="matrix(1.04357 0 0 .52178 7.595 272.222)"/><path d="M176.025 426.628c-.944-19.295 29.029-25.186 27.667-7.655" stroke="url(#v)" transform="matrix(1.04357 0 0 .52178 7.595 272.222)"/><path d="M176.025 414.036c-.944-19.296 29.029-25.186 27.667-7.656" stroke="url(#w)" transform="matrix(1.04357 0 0 .52178 7.595 272.222)"/><path d="M176.025 351.074c-.944-19.296 13.816-20.535 13.816-20.535" stroke="url(#x)" transform="matrix(1.04357 0 0 .52178 7.595 272.222)"/></g><g><g stroke="#1a1a1a" stroke-width="12.026"><path d="M1731.474 1368.767c1.503-35.42 6.608-80.021 24.155-84.56M1768.259 1453.892c-26.484.405-21.369-162.323 8.144-169.956M1789.033 1453.892c-26.484.405-21.369-162.323 8.144-169.956M1809.807 1453.892c-26.484.405-21.369-162.323 8.144-169.956M1830.58 1453.892c-26.483.405-21.368-162.323 8.145-169.956M1851.354 1453.892c-26.483.405-21.368-162.323 8.145-169.956M1934.45 1453.892c-26.484.405-21.369-162.323 8.145-169.956M1955.224 1453.892c-26.484.405-21.369-162.323 8.144-169.956M1913.676 1453.892c-26.484.405-21.369-162.323 8.145-169.956M1892.902 1453.892c-26.484.405-21.368-162.323 8.145-169.956M1872.128 1453.892c-26.483.405-21.368-162.323 8.145-169.956" transform="matrix(0 -.39765 .17043 0 136.471 1320.293)"/></g><g stroke="#1a1a1a" stroke-width="12.026"><path d="M1768.259 1453.892c-26.484.405-21.369-162.323 8.144-169.956M1789.033 1453.892c-26.484.405-21.369-162.323 8.144-169.956M1809.807 1453.892c-26.484.405-21.369-162.323 8.144-169.956M1830.58 1453.892c-26.483.405-21.368-162.323 8.145-169.956M1851.354 1453.892c-26.483.405-21.368-162.323 8.145-169.956M1934.45 1453.892c-26.484.405-21.369-162.323 8.145-169.956M1955.224 1453.892c-26.484.405-21.369-162.323 8.144-169.956M1913.676 1453.892c-26.484.405-21.369-162.323 8.145-169.956M1892.902 1453.892c-26.484.405-21.368-162.323 8.145-169.956M1872.128 1453.892c-26.483.405-21.368-162.323 8.145-169.956" transform="matrix(0 -.39765 .17043 0 136.471 1237.685)"/></g><g stroke-width="3.784"><path d="M176.025 376.259c-.944-19.296 29.029-25.186 27.667-7.656" stroke="url(#y)" transform="matrix(1.04357 0 0 .65602 171.595 309.243)"/><path d="M176.07 363.666c-.944-19.295 29.029-25.186 27.667-7.655" stroke="url(#z)" transform="matrix(1.04357 0 0 .65602 171.595 309.243)"/><path d="M176.025 388.851c-.944-19.295 29.029-25.186 27.667-7.655" stroke="url(#A)" transform="matrix(1.04357 0 0 .65602 171.595 309.243)"/><path d="M176.025 401.443c-.944-19.295 29.029-25.186 27.667-7.655" stroke="url(#B)" transform="matrix(1.04357 0 0 .65602 171.595 309.243)"/><path d="M176.025 464.405c-.944-19.295 29.029-25.186 27.667-7.655" stroke="url(#C)" transform="matrix(1.04357 0 0 .65602 171.595 309.243)"/><path d="M176.025 476.997c-.944-19.295 29.029-25.186 27.667-7.655" stroke="url(#D)" transform="matrix(1.04357 0 0 .65602 171.595 309.243)"/><path d="M176.025 451.813c-.944-19.296 29.029-25.186 27.667-7.656" stroke="url(#E)" transform="matrix(1.04357 0 0 .65602 171.595 309.243)"/><path d="M176.025 439.22c-.944-19.295 29.029-25.186 27.667-7.655" stroke="url(#F)" transform="matrix(1.04357 0 0 .65602 171.595 309.243)"/><path d="M176.025 426.628c-.944-19.295 29.029-25.186 27.667-7.655" stroke="url(#G)" transform="matrix(1.04357 0 0 .65602 171.595 309.243)"/><path d="M176.025 414.036c-.944-19.296 29.029-25.186 27.667-7.656" stroke="url(#H)" transform="matrix(1.04357 0 0 .65602 171.595 309.243)"/></g><g stroke-width="3.784"><path d="M176.025 376.259c-.944-19.296 29.029-25.186 27.667-7.656" stroke="url(#I)" transform="matrix(1.04357 0 0 .65602 171.595 226.635)"/><path d="M176.025 351.074c-.944-19.296 13.816-20.535 13.816-20.535" stroke="url(#J)" transform="matrix(1.04357 0 0 .65602 171.595 226.635)"/><path d="M176.07 363.666c-.944-19.295 29.029-25.186 27.667-7.655" stroke="url(#K)" transform="matrix(1.04357 0 0 .65602 171.595 226.635)"/><path d="M176.025 388.851c-.944-19.295 29.029-25.186 27.667-7.655" stroke="url(#L)" transform="matrix(1.04357 0 0 .65602 171.595 226.635)"/><path d="M176.025 401.443c-.944-19.295 29.029-25.186 27.667-7.655" stroke="url(#M)" transform="matrix(1.04357 0 0 .65602 171.595 226.635)"/><path d="M176.025 464.405c-.944-19.295 29.029-25.186 27.667-7.655" stroke="url(#N)" transform="matrix(1.04357 0 0 .65602 171.595 226.635)"/><path d="M176.025 476.997c-.944-19.295 29.029-25.186 27.667-7.655" stroke="url(#O)" transform="matrix(1.04357 0 0 .65602 171.595 226.635)"/><path d="M176.025 451.813c-.944-19.296 29.029-25.186 27.667-7.656" stroke="url(#P)" transform="matrix(1.04357 0 0 .65602 171.595 226.635)"/><path d="M176.025 439.22c-.944-19.295 29.029-25.186 27.667-7.655" stroke="url(#Q)" transform="matrix(1.04357 0 0 .65602 171.595 226.635)"/><path d="M176.025 426.628c-.944-19.295 29.029-25.186 27.667-7.655" stroke="url(#R)" transform="matrix(1.04357 0 0 .65602 171.595 226.635)"/><path d="M176.025 414.036c-.944-19.296 29.029-25.186 27.667-7.656" stroke="url(#S)" transform="matrix(1.04357 0 0 .65602 171.595 226.635)"/><path d="M190.659 339.056c3.174-4.29 1.855-8.517-.818-8.517" stroke="url(#T)" transform="matrix(1.04357 0 0 .65602 171.595 226.635)"/></g></g></g><path d="M369.746 631.767v22.317" style="marker:none" color="#000" fill="none" stroke="#333" stroke-width="3" stroke-linecap="round" stroke-linejoin="round" overflow="visible" enable-background="accumulate"/><g fill="none" stroke="#333" stroke-linecap="round"><path d="M369.746 681.487a7.306 7.306 0 1 1 7.306-7.306" stroke-width="3.00014624" stroke-linejoin="round"/><path d="M369.746 681.487v10.169" stroke-width="2.9998550199999996"/></g><path fill="gray" stroke="#333" stroke-width=".99976796" stroke-linecap="round" stroke-linejoin="round" d="M346.521 686.946h46.45v75.156h-46.45z"/><path d="M301.429 350.934c0 6.311-5.117 11.428-11.429 11.428s-11.429-5.117-11.429-11.428c0-6.312 5.117-11.429 11.429-11.429s11.429 5.117 11.429 11.429z" transform="matrix(.2374 0 0 .2374 291.83 614.97)" opacity=".8" fill="#fff" filter="url(#U)"/><path transform="matrix(.2374 0 0 .2374 388.537 765.66)" d="M301.429 350.934c0 6.311-5.117 11.428-11.429 11.428s-11.429-5.117-11.429-11.428c0-6.312 5.117-11.429 11.429-11.429s11.429 5.117 11.429 11.429z" opacity=".8" fill="#fff" filter="url(#U)"/><path d="M374.562 347.141a15.442 15.442 0 1 1 .631 28.128" fill="none" stroke="#000" stroke-width="3.1306842400000003" stroke-linecap="round" stroke-linejoin="round"/><path transform="matrix(-.48267 0 0 -.63655 481.781 211.08)" d="M235.029-369.277a12.125 12.125 0 0 1 11.846 12.121" fill="none" stroke="#333" stroke-width="5.412" stroke-linecap="round" stroke-linejoin="round"/><path transform="matrix(-.48267 0 0 -.63655 317.781 211.08)" d="M235.029-369.277a12.125 12.125 0 0 1 11.846 12.121" fill="none" stroke="#333" stroke-width="5.412" stroke-linecap="round" stroke-linejoin="round"/><path d="M206.56 450.28c3.312-2.815 1.936-5.589-.853-5.589" fill="none" stroke="url(#V)" stroke-width="3.131" stroke-linecap="round"/><path d="M191.335 461.977c-.985-10.068 30.294-13.142 28.872-3.995" fill="none" stroke="url(#W)" stroke-width="3.131" stroke-linecap="round"/><path style="marker:none" color="#000" fill="#999" fill-rule="evenodd" stroke="#000" stroke-width="1.5" overflow="visible" enable-background="accumulate" d="M500.361 283.148v564.179h-18.125V283.148z"/><g color="#000"><path style="marker:none" fill="#c87137" fill-rule="evenodd" stroke="#502d16" stroke-width="1.5" overflow="visible" enable-background="accumulate" d="M129.853 605.12h35.731v248.999h-35.731z"/><path style="marker:none" d="M160.923 608.596h4.66" fill="none" stroke="#28170b" stroke-linecap="round" stroke-linejoin="round" overflow="visible" enable-background="accumulate"/><g stroke="#28170b" fill="none" stroke-linecap="round" stroke-linejoin="round"><path style="marker:none" d="M160.923 616.664h4.66M160.923 624.733h4.66M160.923 632.8h4.66M160.923 640.87l4.66-.001M160.923 648.937h4.66M160.923 657.006h4.66M160.923 665.074h4.66M160.923 673.142h4.66M160.923 681.21h4.66M160.923 689.278h4.66M160.923 697.347h4.66M160.923 705.415h4.66M160.923 713.483h4.66M160.923 721.551h4.66M160.923 729.62h4.66M160.923 737.688h4.66M160.923 745.756h4.66M160.923 753.824h4.66M160.923 761.893h4.66M160.923 769.96h4.66M160.923 778.03h4.66M160.923 786.097h4.66M160.923 794.166h4.66M160.923 802.234h4.66M160.923 810.302h4.66M160.923 818.37h4.66M160.923 826.439h4.66M160.923 834.507h4.66M160.923 842.575h4.66M160.923 850.643h4.66" overflow="visible" enable-background="accumulate"/></g><path d="M162.185 608.596h3.399M162.185 616.664h3.399" style="marker:none" fill="none" stroke="#784421" stroke-width=".25" stroke-linecap="round" stroke-linejoin="round" overflow="visible" enable-background="accumulate"/><g fill="none" stroke="#784421" stroke-width=".25" stroke-linecap="round" stroke-linejoin="round"><path d="M162.185 609.403h3.399M162.185 610.21h3.399M162.185 611.017h3.399M162.185 611.823h3.399M162.185 612.63h3.399M162.185 613.437h3.399M162.185 614.244h3.399M162.185 615.05h3.399M162.185 615.857h3.399" style="marker:none" overflow="visible" enable-background="accumulate"/></g><g fill="none" stroke="#784421" stroke-width=".25" stroke-linecap="round" stroke-linejoin="round"><path d="M162.185 616.664h3.399M162.185 624.733h3.399M162.185 617.471h3.399M162.185 618.278h3.399M162.185 619.085h3.399M162.185 619.892h3.399M162.185 620.698h3.399M162.185 621.505h3.399M162.185 622.312h3.399M162.185 623.119h3.399M162.185 623.926h3.399" style="marker:none" overflow="visible" enable-background="accumulate"/></g><g fill="none" stroke="#784421" stroke-width=".25" stroke-linecap="round" stroke-linejoin="round"><path style="marker:none" d="M162.185 624.733h3.399M162.185 632.8h3.399M162.185 625.54h3.399M162.185 626.346h3.399M162.185 627.153h3.399M162.185 627.96h3.399M162.185 628.767h3.399M162.185 629.573h3.399M162.185 630.38h3.399M162.185 631.187h3.399M162.185 631.994h3.399" overflow="visible" enable-background="accumulate"/></g><g fill="none" stroke="#784421" stroke-width=".25" stroke-linecap="round" stroke-linejoin="round"><path style="marker:none" d="M162.185 631.994h3.399M162.185 640.062h3.399M162.185 632.8h3.399M162.185 633.608h3.399M162.185 634.414h3.399M162.185 635.221h3.399M162.185 636.028h3.399M162.185 636.835h3.399M162.185 637.642h3.399M162.185 638.449h3.399M162.185 639.255h3.399" overflow="visible" enable-background="accumulate"/></g><g fill="none" stroke="#784421" stroke-width=".25" stroke-linecap="round" stroke-linejoin="round"><path d="M162.185 640.062h3.399M162.185 648.13h3.399M162.185 640.869h3.399M162.185 641.676h3.399M162.185 642.483h3.399M162.185 643.29h3.399M162.185 644.096h3.399M162.185 644.903h3.399M162.185 645.71h3.399M162.185 646.517h3.399M162.185 647.324h3.399" style="marker:none" overflow="visible" enable-background="accumulate"/></g><g fill="none" stroke="#784421" stroke-width=".25" stroke-linecap="round" stroke-linejoin="round"><path style="marker:none" d="M162.185 640.869h3.399M162.185 648.937h3.399M162.185 641.676h3.399M162.185 642.483h3.399M162.185 643.29h3.399M162.185 644.096h3.399M162.185 644.903h3.399M162.185 645.71h3.399M162.185 646.517h3.399M162.185 647.324h3.399M162.185 648.13h3.399" overflow="visible" enable-background="accumulate"/></g><g fill="none" stroke="#784421" stroke-width=".25" stroke-linecap="round" stroke-linejoin="round"><path d="M162.185 648.937h3.399M162.185 657.006h3.399M162.185 649.744h3.399M162.185 650.55h3.399M162.185 651.358h3.399M162.185 652.165h3.399M162.185 652.971h3.399M162.185 653.778h3.399M162.185 654.585h3.399M162.185 655.392h3.399M162.185 656.199h3.399" style="marker:none" overflow="visible" enable-background="accumulate"/></g><g fill="none" stroke="#784421" stroke-width=".25" stroke-linecap="round" stroke-linejoin="round"><path d="M162.185 656.199h3.399M162.185 664.267h3.399M162.185 657.006h3.399M162.185 657.812h3.399M162.185 658.62h3.399M162.185 659.426h3.399M162.185 660.233h3.399M162.185 661.04h3.399M162.185 661.846h3.399M162.185 662.653h3.399M162.185 663.46h3.399" style="marker:none" overflow="visible" enable-background="accumulate"/></g><g fill="none" stroke="#784421" stroke-width=".25" stroke-linecap="round" stroke-linejoin="round"><path style="marker:none" d="M162.185 664.267h3.399M162.185 672.335h3.399M162.185 665.074h3.399M162.185 665.88h3.399M162.185 666.687h3.399M162.185 667.494h3.399M162.185 668.301h3.399M162.185 669.108h3.399M162.185 669.915h3.399M162.185 670.722h3.399M162.185 671.528h3.399" overflow="visible" enable-background="accumulate"/></g><g fill="none" stroke="#784421" stroke-width=".25" stroke-linecap="round" stroke-linejoin="round"><path style="marker:none" d="M162.185 673.142h3.399M162.185 681.21h3.399M162.185 673.949h3.399M162.185 674.756h3.399M162.185 675.562h3.399M162.185 676.37h3.399M162.185 677.176h3.399M162.185 677.983h3.399M162.185 678.79h3.399M162.185 679.597h3.399M162.185 680.403h3.399" overflow="visible" enable-background="accumulate"/></g><g fill="none" stroke="#784421" stroke-width=".25" stroke-linecap="round" stroke-linejoin="round"><path d="M162.185 681.21h3.399M162.185 689.278h3.399M162.185 682.017h3.399M162.185 682.824h3.399M162.185 683.63h3.399M162.185 684.438h3.399M162.185 685.244h3.399M162.185 686.051h3.399M162.185 686.858h3.399M162.185 687.665h3.399M162.185 688.472h3.399" style="marker:none" overflow="visible" enable-background="accumulate"/></g><g fill="none" stroke="#784421" stroke-width=".25" stroke-linecap="round" stroke-linejoin="round"><path d="M162.185 688.472h3.399M162.185 696.54h3.399M162.185 689.278h3.399M162.185 690.085h3.399M162.185 690.892h3.399M162.185 691.699h3.399M162.185 692.506h3.399M162.185 693.313h3.399M162.185 694.12h3.399M162.185 694.926h3.399M162.185 695.733h3.399" style="marker:none" overflow="visible" enable-background="accumulate"/></g><g fill="none" stroke="#784421" stroke-width=".25" stroke-linecap="round" stroke-linejoin="round"><path d="M162.185 697.347h3.399M162.185 705.415h3.399M162.185 698.154h3.399M162.185 698.96h3.399M162.185 699.767h3.399M162.185 700.574h3.399M162.185 701.38h3.399M162.185 702.188h3.399M162.185 702.995h3.399M162.185 703.801h3.399M162.185 704.608h3.399" style="marker:none" overflow="visible" enable-background="accumulate"/></g><g fill="none" stroke="#784421" stroke-width=".25" stroke-linecap="round" stroke-linejoin="round"><path style="marker:none" d="M162.185 705.415h3.399M162.185 713.483h3.399M162.185 706.222h3.399M162.185 707.029h3.399M162.185 707.835h3.399M162.185 708.642h3.399M162.185 709.45h3.399M162.185 710.256h3.399M162.185 711.063h3.399M162.185 711.87h3.399M162.185 712.676h3.399" overflow="visible" enable-background="accumulate"/></g><g fill="none" stroke="#784421" stroke-width=".25" stroke-linecap="round" stroke-linejoin="round"><path style="marker:none" d="M162.185 712.676h3.399M162.185 720.745h3.399M162.185 713.483h3.399M162.185 714.29h3.399M162.185 715.097h3.399M162.185 715.904h3.399M162.185 716.71h3.399M162.185 717.517h3.399M162.185 718.324h3.399M162.185 719.131h3.399M162.185 719.938h3.399" overflow="visible" enable-background="accumulate"/></g><g fill="none" stroke="#784421" stroke-width=".25" stroke-linecap="round" stroke-linejoin="round"><path d="M162.185 720.745h3.399M162.185 728.813h3.399M162.185 721.551h3.399M162.185 722.358h3.399M162.185 723.165h3.399M162.185 723.972h3.399M162.185 724.779h3.399M162.185 725.586h3.399M162.185 726.392h3.399M162.185 727.2h3.399M162.185 728.006h3.399" style="marker:none" overflow="visible" enable-background="accumulate"/></g><g fill="none" stroke="#784421" stroke-width=".25" stroke-linecap="round" stroke-linejoin="round"><path d="M162.185 729.62h3.399M162.185 737.688h3.399M162.185 730.427h3.399M162.185 731.233h3.399M162.185 732.04h3.399M162.185 732.847h3.399M162.185 733.654h3.399M162.185 734.46h3.399M162.185 735.267h3.399M162.185 736.074h3.399M162.185 736.881h3.399" style="marker:none" overflow="visible" enable-background="accumulate"/></g><g fill="none" stroke="#784421" stroke-width=".25" stroke-linecap="round" stroke-linejoin="round"><path style="marker:none" d="M162.185 737.688h3.399M162.185 745.756h3.399M162.185 738.495h3.399M162.185 739.302h3.399M162.185 740.108h3.399M162.185 740.915h3.399M162.185 741.722h3.399M162.185 742.529h3.399M162.185 743.336h3.399M162.185 744.143h3.399M162.185 744.95h3.399" overflow="visible" enable-background="accumulate"/></g><g fill="none" stroke="#784421" stroke-width=".25" stroke-linecap="round" stroke-linejoin="round"><path style="marker:none" d="M162.185 744.95h3.399M162.185 753.018h3.399M162.185 745.756h3.399M162.185 746.563h3.399M162.185 747.37h3.399M162.185 748.177h3.399M162.185 748.983h3.399M162.185 749.79h3.399M162.185 750.597h3.399M162.185 751.404h3.399M162.185 752.21h3.399" overflow="visible" enable-background="accumulate"/></g><g fill="none" stroke="#784421" stroke-width=".25" stroke-linecap="round" stroke-linejoin="round"><path style="marker:none" d="M162.185 753.824h3.399M162.185 761.893h3.399M162.185 754.631h3.399M162.185 755.438h3.399M162.185 756.245h3.399M162.185 757.052h3.399M162.185 757.859h3.399M162.185 758.665h3.399M162.185 759.472h3.399M162.185 760.279h3.399M162.185 761.086h3.399" overflow="visible" enable-background="accumulate"/></g><g fill="none" stroke="#784421" stroke-width=".25" stroke-linecap="round" stroke-linejoin="round"><path d="M162.185 761.893h3.399M162.185 769.96h3.399M162.185 762.7h3.399M162.185 763.506h3.399M162.185 764.313h3.399M162.185 765.12h3.399M162.185 765.927h3.399M162.185 766.734h3.399M162.185 767.54h3.399M162.185 768.347h3.399M162.185 769.154h3.399" style="marker:none" overflow="visible" enable-background="accumulate"/></g><g fill="none" stroke="#784421" stroke-width=".25" stroke-linecap="round" stroke-linejoin="round"><path d="M162.185 769.154h3.399M162.185 777.222h3.399M162.185 769.96h3.399M162.185 770.768h3.399M162.185 771.575h3.399M162.185 772.381h3.399M162.185 773.188h3.399M162.185 773.995h3.399M162.185 774.802h3.399M162.185 775.609h3.399M162.185 776.415h3.399" style="marker:none" overflow="visible" enable-background="accumulate"/></g><g fill="none" stroke="#784421" stroke-width=".25" stroke-linecap="round" stroke-linejoin="round"><path style="marker:none" d="M162.185 777.222h3.399M162.185 785.29h3.399M162.185 778.03h3.399M162.185 778.836h3.399M162.185 779.643h3.399M162.185 780.45h3.399M162.185 781.256h3.399M162.185 782.063h3.399M162.185 782.87h3.399M162.185 783.677h3.399M162.185 784.484h3.399" overflow="visible" enable-background="accumulate"/></g><g fill="none" stroke="#784421" stroke-width=".25" stroke-linecap="round" stroke-linejoin="round"><path style="marker:none" d="M162.185 786.097h3.399M162.185 794.166h3.399M162.185 786.904h3.399M162.185 787.711h3.399M162.185 788.518h3.399M162.185 789.325h3.399M162.185 790.132h3.399M162.185 790.938h3.399M162.185 791.745h3.399M162.185 792.552h3.399M162.185 793.359h3.399" overflow="visible" enable-background="accumulate"/></g><g fill="none" stroke="#784421" stroke-width=".25" stroke-linecap="round" stroke-linejoin="round"><path d="M162.185 794.166h3.399M162.185 802.234h3.399M162.185 794.972h3.399M162.185 795.78h3.399M162.185 796.586h3.399M162.185 797.393h3.399M162.185 798.2h3.399M162.185 799.007h3.399M162.185 799.813h3.399M162.185 800.62h3.399M162.185 801.427h3.399" style="marker:none" overflow="visible" enable-background="accumulate"/></g><g fill="none" stroke="#784421" stroke-width=".25" stroke-linecap="round" stroke-linejoin="round"><path d="M162.185 801.427h3.399M162.185 809.495h3.399M162.185 802.234h3.399M162.185 803.04h3.399M162.185 803.848h3.399M162.185 804.654h3.399M162.185 805.461h3.399M162.185 806.268h3.399M162.185 807.075h3.399M162.185 807.882h3.399M162.185 808.688h3.399" style="marker:none" overflow="visible" enable-background="accumulate"/></g><g fill="none" stroke="#784421" stroke-width=".25" stroke-linecap="round" stroke-linejoin="round"><path d="M162.185 810.302h3.399M162.185 818.37h3.399M162.185 811.109h3.399M162.185 811.916h3.399M162.185 812.723h3.399M162.185 813.53h3.399M162.185 814.336h3.399M162.185 815.143h3.399M162.185 815.95h3.399M162.185 816.757h3.399M162.185 817.564h3.399" style="marker:none" overflow="visible" enable-background="accumulate"/></g><g fill="none" stroke="#784421" stroke-width=".25" stroke-linecap="round" stroke-linejoin="round"><path style="marker:none" d="M162.185 818.37h3.399M162.185 826.439h3.399M162.185 819.177h3.399M162.185 819.984h3.399M162.185 820.79h3.399M162.185 821.598h3.399M162.185 822.404h3.399M162.185 823.211h3.399M162.185 824.018h3.399M162.185 824.825h3.399M162.185 825.632h3.399" overflow="visible" enable-background="accumulate"/></g><g fill="none" stroke="#784421" stroke-width=".25" stroke-linecap="round" stroke-linejoin="round"><path style="marker:none" d="M162.185 825.632h3.399M162.185 833.7h3.399M162.185 826.439h3.399M162.185 827.245h3.399M162.185 828.052h3.399M162.185 828.86h3.399M162.185 829.666h3.399M162.185 830.473h3.399M162.185 831.28h3.399M162.185 832.086h3.399M162.185 832.893h3.399" overflow="visible" enable-background="accumulate"/></g><g fill="none" stroke="#784421" stroke-width=".25" stroke-linecap="round" stroke-linejoin="round"><path d="M162.185 833.7h3.399M162.185 841.768h3.399M162.185 834.507h3.399M162.185 835.314h3.399M162.185 836.12h3.399M162.185 836.927h3.399M162.185 837.734h3.399M162.185 838.54h3.399M162.185 839.348h3.399M162.185 840.155h3.399M162.185 840.961h3.399" style="marker:none" overflow="visible" enable-background="accumulate"/></g><g fill="none" stroke="#784421" stroke-width=".25" stroke-linecap="round" stroke-linejoin="round"><path style="marker:none" d="M162.185 842.575h3.399M162.185 850.643h3.399M162.185 843.382h3.399M162.185 844.189h3.399M162.185 844.996h3.399M162.185 845.802h3.399M162.185 846.61h3.399M162.185 847.416h3.399M162.185 848.223h3.399M162.185 849.03h3.399M162.185 849.836h3.399" overflow="visible" enable-background="accumulate"/></g></g><g color="#000"><path style="marker:none" d="M521.98 863.999c0 30.673-24.865 55.538-55.538 55.538s-55.538-24.865-55.538-55.538 24.865-55.538 55.538-55.538 55.538 24.865 55.538 55.538z" transform="matrix(.92816 -.06114 0 .31649 58.366 628.211)" fill="gray" stroke="#000" stroke-width="3.69" stroke-linecap="round" stroke-linejoin="round" overflow="visible" enable-background="accumulate"/><path d="M439.75 821.956c7.344 21.334 90.862 14.117 102.32-5.014l.776 52.244c-39.353 5.209-63.83 6.663-102.32 7.83" style="marker:none" fill="gray" overflow="visible" enable-background="accumulate"/><path transform="matrix(.92816 -.06114 0 .31649 58.366 571.744)" d="M521.98 863.999c0 30.673-24.865 55.538-55.538 55.538s-55.538-24.865-55.538-55.538 24.865-55.538 55.538-55.538 55.538 24.865 55.538 55.538z" style="marker:none" fill="gray" stroke="#000" stroke-width="3.69" stroke-linecap="round" stroke-linejoin="round" overflow="visible" enable-background="accumulate"/><path d="M439.75 821.956v54.574M542.846 814.635v55.886" style="marker:none" fill="none" stroke="#000" stroke-width="2" stroke-linecap="round" stroke-linejoin="round" overflow="visible" enable-background="accumulate"/></g><path style="marker:none" d="M500.36 283.148v538.546c-5.163 2.569-12.917 2.871-18.124 0V283.148z" color="#000" fill="#999" fill-rule="evenodd" stroke="#000" stroke-width="1.5" overflow="visible" enable-background="accumulate"/><path style="marker:none" color="#000" fill="#666" fill-rule="evenodd" stroke="#000" stroke-width="1.5" overflow="visible" enable-background="accumulate" d="M462.596 342.531h52.658v31.226h-52.658z"/></svg>