<svg xmlns:ns0="http://www.iki.fi/pav/software/textext/" xmlns="http://www.w3.org/2000/svg" xmlns:xlink="http://www.w3.org/1999/xlink" width="793.701" height="1122.52"><title>Federkraftmesser</title><defs><linearGradient id="a"><stop offset="0" stop-color="#0e0e0e"/><stop offset="1" stop-color="#6a6a6a"/></linearGradient><linearGradient id="b"><stop offset="0" stop-color="#0e0e0e" stop-opacity=".746"/><stop offset="1" stop-color="#fff"/></linearGradient><radialGradient r="246.82" fy="1368.978" fx="1856.591" cy="1368.978" cx="1856.591" gradientTransform="matrix(0 -.64657 .06212 0 117.49 1643.94)" gradientUnits="userSpaceOnUse" id="c" xlink:href="#a"/><radialGradient r="246.82" fy="1368.978" fx="1856.591" cy="1368.978" cx="1856.591" gradientTransform="matrix(0 -.64657 .06212 0 117.538 1643.94)" gradientUnits="userSpaceOnUse" id="d" xlink:href="#a"/><radialGradient r="246.82" fy="1368.978" fx="1856.591" cy="1368.978" cx="1856.591" gradientTransform="matrix(0 -.64657 .06212 0 117.49 1643.94)" gradientUnits="userSpaceOnUse" id="e" xlink:href="#a"/><radialGradient r="246.82" fy="1368.978" fx="1856.591" cy="1368.978" cx="1856.591" gradientTransform="matrix(0 -.64657 .06212 0 117.49 1643.94)" gradientUnits="userSpaceOnUse" id="f" xlink:href="#a"/><radialGradient r="246.82" fy="1368.978" fx="1856.591" cy="1368.978" cx="1856.591" gradientTransform="matrix(0 -.64657 .06212 0 117.49 1643.94)" gradientUnits="userSpaceOnUse" id="g" xlink:href="#a"/><radialGradient r="246.82" fy="1368.978" fx="1856.591" cy="1368.978" cx="1856.591" gradientTransform="matrix(0 -.64657 .06212 0 117.49 1643.94)" gradientUnits="userSpaceOnUse" id="h" xlink:href="#a"/><radialGradient r="246.82" fy="1368.978" fx="1856.591" cy="1368.978" cx="1856.591" gradientTransform="matrix(0 -.64657 .06212 0 117.49 1643.94)" gradientUnits="userSpaceOnUse" id="i" xlink:href="#a"/><radialGradient r="246.82" fy="1368.978" fx="1856.591" cy="1368.978" cx="1856.591" gradientTransform="matrix(0 -.64657 .06212 0 117.49 1643.94)" gradientUnits="userSpaceOnUse" id="j" xlink:href="#a"/><radialGradient r="246.82" fy="1368.978" fx="1856.591" cy="1368.978" cx="1856.591" gradientTransform="matrix(0 -.64657 .06212 0 117.49 1643.94)" gradientUnits="userSpaceOnUse" id="k" xlink:href="#a"/><radialGradient r="246.82" fy="1368.978" fx="1856.591" cy="1368.978" cx="1856.591" gradientTransform="matrix(0 -.64657 .06212 0 117.49 1643.94)" gradientUnits="userSpaceOnUse" id="l" xlink:href="#a"/><radialGradient r="246.82" fy="1368.978" fx="1856.591" cy="1368.978" cx="1856.591" gradientTransform="matrix(0 -.64657 .06212 0 117.49 1643.94)" gradientUnits="userSpaceOnUse" id="m" xlink:href="#a"/><radialGradient r="246.82" fy="1368.978" fx="1856.591" cy="1368.978" cx="1856.591" gradientTransform="matrix(0 -.64657 .06212 0 117.538 1643.94)" gradientUnits="userSpaceOnUse" id="n" xlink:href="#a"/><radialGradient r="246.82" fy="1368.978" fx="1856.591" cy="1368.978" cx="1856.591" gradientTransform="matrix(0 -.64657 .06212 0 117.49 1643.94)" gradientUnits="userSpaceOnUse" id="o" xlink:href="#a"/><radialGradient r="246.82" fy="1368.978" fx="1856.591" cy="1368.978" cx="1856.591" gradientTransform="matrix(0 -.64657 .06212 0 117.49 1643.94)" gradientUnits="userSpaceOnUse" id="p" xlink:href="#a"/><radialGradient r="246.82" fy="1368.978" fx="1856.591" cy="1368.978" cx="1856.591" gradientTransform="matrix(0 -.64657 .06212 0 117.49 1643.94)" gradientUnits="userSpaceOnUse" id="q" xlink:href="#a"/><radialGradient r="246.82" fy="1368.978" fx="1856.591" cy="1368.978" cx="1856.591" gradientTransform="matrix(0 -.64657 .06212 0 117.49 1643.94)" gradientUnits="userSpaceOnUse" id="r" xlink:href="#a"/><radialGradient r="246.82" fy="1368.978" fx="1856.591" cy="1368.978" cx="1856.591" gradientTransform="matrix(0 -.64657 .06212 0 117.49 1643.94)" gradientUnits="userSpaceOnUse" id="s" xlink:href="#a"/><radialGradient r="246.82" fy="1368.978" fx="1856.591" cy="1368.978" cx="1856.591" gradientTransform="matrix(0 -.64657 .06212 0 117.49 1643.94)" gradientUnits="userSpaceOnUse" id="t" xlink:href="#a"/><radialGradient r="246.82" fy="1368.978" fx="1856.591" cy="1368.978" cx="1856.591" gradientTransform="matrix(0 -.64657 .06212 0 117.49 1643.94)" gradientUnits="userSpaceOnUse" id="u" xlink:href="#a"/><radialGradient r="246.82" fy="1368.978" fx="1856.591" cy="1368.978" cx="1856.591" gradientTransform="matrix(0 -.64657 .06212 0 117.49 1643.94)" gradientUnits="userSpaceOnUse" id="v" xlink:href="#a"/><radialGradient r="246.82" fy="1368.978" fx="1856.591" cy="1368.978" cx="1856.591" gradientTransform="matrix(0 -.64657 .06212 0 117.49 1630.508)" gradientUnits="userSpaceOnUse" id="w" xlink:href="#a"/><linearGradient xlink:href="#b" id="x" gradientUnits="userSpaceOnUse" gradientTransform="matrix(1.06667 0 0 1.06077 .032 1.48)" spreadMethod="reflect" x1="317.703" y1="518.775" x2="370.832" y2="518.775"/></defs><rect transform="scale(1 -1)" ry="8.478" y="-905.964" x="32.991" height="689.408" width="727.719" fill="#fff" stroke="#fff" stroke-width="1.067" stroke-linecap="round" stroke-linejoin="round"/><g ns0:text="$E _{\\mathrm{pot.}} = \\mathrm{max.}$" ns0:preamble="/home/waldgeist/data/sphinx/test.tex"><use height="744.094" width="1052.362" xlink:href="#textext-deb4a57a-0" x="223.432" y="134.765" transform="matrix(3.97502 0 0 3.97502 -821.858 380.035)"/><use height="744.094" width="1052.362" xlink:href="#textext-deb4a57a-2" x="230.786" y="136.259" transform="matrix(3.97502 0 0 3.97502 -821.858 380.035)"/><g transform="matrix(3.97502 0 0 3.97502 -821.858 380.035)"><use height="744.094" width="1052.362" xlink:href="#textext-deb4a57a-3" x="235.403" y="136.259"/><use height="744.094" width="1052.362" xlink:href="#textext-deb4a57a-4" x="239.374" y="136.259"/></g><use height="744.094" width="1052.362" xlink:href="#textext-deb4a57a-5" x="242.486" y="136.259" transform="matrix(3.97502 0 0 3.97502 -821.858 380.035)"/><use height="744.094" width="1052.362" xlink:href="#textext-deb4a57a-6" x="248.117" y="134.765" transform="matrix(3.97502 0 0 3.97502 -821.858 380.035)"/><g transform="matrix(3.97502 0 0 3.97502 -821.858 380.035)"><use height="744.094" width="1052.362" xlink:href="#textext-deb4a57a-7" x="258.635" y="134.765"/><use height="744.094" width="1052.362" xlink:href="#textext-deb4a57a-8" x="266.937" y="134.765"/><use height="744.094" width="1052.362" xlink:href="#textext-deb4a57a-9" x="271.919" y="134.765"/></g><use height="744.094" width="1052.362" xlink:href="#textext-deb4a57a-1" x="277.175" y="134.765" transform="matrix(3.97502 0 0 3.97502 -821.858 380.035)"/></g><g ns0:preamble="/home/waldgeist/data/sphinx/test.tex" ns0:text="\\begin{align*}\nE _{\\rm{pot}} &amp;= max. \\\\\nv &amp;= 0 \\\\\na &amp;= max.\n\\end{align*}\n"><use height="744.094" width="1052.362" y="134.765" x="367.633" xlink:href="#textext-2289d23f-0" transform="matrix(3.39125 0 0 3.39125 -556.587 372.279)"/><use height="744.094" width="1052.362" y="136.259" x="374.987" xlink:href="#textext-2289d23f-6" transform="matrix(3.39125 0 0 3.39125 -556.587 372.279)"/><g transform="matrix(3.39125 0 0 3.39125 -556.587 372.279)"><use height="744.094" width="1052.362" y="136.259" x="379.604" xlink:href="#textext-2289d23f-7"/><use height="744.094" width="1052.362" y="136.259" x="383.575" xlink:href="#textext-2289d23f-8"/></g><use height="744.094" width="1052.362" y="134.765" x="389.952" xlink:href="#textext-2289d23f-9" transform="matrix(3.39125 0 0 3.39125 -556.587 372.279)"/><g transform="matrix(3.39125 0 0 3.39125 -556.587 372.279)"><use height="744.094" width="1052.362" y="134.765" x="400.468" xlink:href="#textext-2289d23f-1"/><use height="744.094" width="1052.362" y="134.765" x="409.215" xlink:href="#textext-2289d23f-2"/><use height="744.094" width="1052.362" y="134.765" x="414.481" xlink:href="#textext-2289d23f-3"/><use height="744.094" width="1052.362" y="134.765" x="420.175" xlink:href="#textext-2289d23f-4"/></g><use height="744.094" width="1052.362" y="149.709" x="381.998" xlink:href="#textext-2289d23f-5" transform="matrix(3.39125 0 0 3.39125 -556.587 372.279)"/><use height="744.094" width="1052.362" y="149.709" x="389.952" xlink:href="#textext-2289d23f-9" transform="matrix(3.39125 0 0 3.39125 -556.587 372.279)"/><use height="744.094" width="1052.362" y="149.709" x="400.471" xlink:href="#textext-2289d23f-10" transform="matrix(3.39125 0 0 3.39125 -556.587 372.279)"/><use height="744.094" width="1052.362" y="164.653" x="381.918" xlink:href="#textext-2289d23f-2" transform="matrix(3.39125 0 0 3.39125 -556.587 372.279)"/><use height="744.094" width="1052.362" y="164.653" x="389.952" xlink:href="#textext-2289d23f-9" transform="matrix(3.39125 0 0 3.39125 -556.587 372.279)"/><g transform="matrix(3.39125 0 0 3.39125 -556.587 372.279)"><use height="744.094" width="1052.362" y="164.653" x="400.468" xlink:href="#textext-2289d23f-1"/><use height="744.094" width="1052.362" y="164.653" x="409.215" xlink:href="#textext-2289d23f-2"/><use height="744.094" width="1052.362" y="164.653" x="414.481" xlink:href="#textext-2289d23f-3"/><use height="744.094" width="1052.362" y="164.653" x="420.175" xlink:href="#textext-2289d23f-4"/></g></g><g stroke="#333" stroke-width="5.62" fill="none" stroke-linecap="round"><path d="M243.867-55.08a12.933 12.933 0 0 1-11.95-7.984 12.933 12.933 0 0 1 2.804-14.095 12.933 12.933 0 0 1 14.095-2.804 12.933 12.933 0 0 1 7.984 11.95" stroke-linejoin="round" transform="matrix(-.46252 0 0 -.70094 509.599 303.145)"/><path d="M243.867-55.08v18" transform="matrix(-.46252 0 0 -.70094 509.599 303.145)"/></g><path d="M396.813 356.263v20.975m-.037 281.346l.037 31.561" fill="#333" stroke="#000" stroke-width="3.714" stroke-linecap="round"/><path d="M412.627 831.273a15.783 15.783 0 0 1-9.744 14.582 15.783 15.783 0 0 1-17.2-3.421 15.783 15.783 0 0 1-3.422-17.201 15.783 15.783 0 0 1 14.582-9.743" fill="none" stroke="#000" stroke-width="3.2" stroke-linecap="round" stroke-linejoin="round"/><path d="M396.806 329.137l.037-43.752" fill="#333" stroke="#000" stroke-width="3.2" stroke-linecap="round"/><circle transform="scale(1 -1)" cx="396.843" cy="-269.22" r="15.783" fill="none" stroke="#000" stroke-width="3.2" stroke-linecap="round" stroke-linejoin="round"/><rect rx="1.876" ry="1.876" y="311.569" x="392.11" height="25.456" width="9.428" fill="#666"/><path d="M396.833 591.374l.006-28.826m0-2.857l.013-29.374" fill="#333" stroke="#000" stroke-width="3.2"/><path d="M396.833 815.49l.02-224.69" fill="#333" stroke="#000" stroke-width="3.2" stroke-linecap="round"/><rect width="62.764" height="5.522" x="365.442" y="782.051" ry="2.761" rx="2.761" fill="#666"/><g stroke-linecap="round" fill="none"><g stroke="#1a1a1a" stroke-width="14.383"><path d="M1846.906 1460.018c1.603-37.78 7.048-85.356 25.765-90.197M1886.143 1550.818c-28.25.432-22.793-173.144 8.687-181.286M1908.302 1550.818c-28.25.432-22.794-173.144 8.687-181.286M1930.46 1550.818c-28.249.432-22.793-173.144 8.688-181.286M1952.62 1550.818c-28.25.432-22.794-173.144 8.687-181.286M1974.778 1550.818c-28.25.432-22.793-173.144 8.688-181.286M2063.413 1550.818c-28.25.432-22.793-173.144 8.688-181.286M2085.572 1550.818c-28.25.432-22.793-173.144 8.688-181.286M2041.255 1550.818c-28.25.432-22.794-173.144 8.687-181.286M2019.096 1550.818c-28.25.432-22.793-173.144 8.687-181.286M1996.937 1550.818c-28.25.432-22.793-173.144 8.687-181.286" transform="matrix(0 -.30308 .16331 0 158.415 1090.08)"/></g><g stroke="#1a1a1a" stroke-width="14.383"><path d="M1886.143 1550.818c-28.25.432-22.793-173.144 8.687-181.286M1908.302 1550.818c-28.25.432-22.794-173.144 8.687-181.286M1930.46 1550.818c-28.249.432-22.793-173.144 8.688-181.286M1952.62 1550.818c-28.25.432-22.794-173.144 8.687-181.286M1974.778 1550.818c-28.25.432-22.793-173.144 8.688-181.286M2063.413 1550.818c-28.25.432-22.793-173.144 8.688-181.286M2085.572 1550.818c-28.25.432-22.793-173.144 8.688-181.286M2041.255 1550.818c-28.25.432-22.794-173.144 8.687-181.286M2019.096 1550.818c-28.25.432-22.793-173.144 8.687-181.286M1996.937 1550.818c-28.25.432-22.793-173.144 8.687-181.286" transform="matrix(0 -.30308 .16331 0 158.415 1022.92)"/></g><g stroke-width="4.525"><path d="M187.76 401.343c-1.007-20.582 30.964-26.866 29.511-8.166" stroke="url(#c)" transform="matrix(1 0 0 .5 194.316 268.11)"/><path d="M187.808 387.91c-1.007-20.581 30.964-26.864 29.51-8.165" stroke="url(#d)" transform="matrix(1 0 0 .5 194.316 268.11)"/><path d="M187.76 414.774c-1.007-20.581 30.964-26.865 29.511-8.165" stroke="url(#e)" transform="matrix(1 0 0 .5 194.316 268.11)"/><path d="M187.76 428.206c-1.007-20.582 30.964-26.865 29.511-8.166" stroke="url(#f)" transform="matrix(1 0 0 .5 194.316 268.11)"/><path d="M187.76 495.365c-1.007-20.581 30.964-26.865 29.511-8.165" stroke="url(#g)" transform="matrix(1 0 0 .5 194.316 268.11)"/><path d="M187.76 508.797c-1.007-20.582 30.964-26.865 29.511-8.166" stroke="url(#h)" transform="matrix(1 0 0 .5 194.316 268.11)"/><path d="M187.76 481.934c-1.007-20.582 30.964-26.866 29.511-8.166" stroke="url(#i)" transform="matrix(1 0 0 .5 194.316 268.11)"/><path d="M187.76 468.502c-1.007-20.582 30.964-26.865 29.511-8.166" stroke="url(#j)" transform="matrix(1 0 0 .5 194.316 268.11)"/><path d="M187.76 455.07c-1.007-20.582 30.964-26.865 29.511-8.166" stroke="url(#k)" transform="matrix(1 0 0 .5 194.316 268.11)"/><path d="M187.76 441.638c-1.007-20.582 30.964-26.865 29.511-8.166" stroke="url(#l)" transform="matrix(1 0 0 .5 194.316 268.11)"/></g><g stroke-width="4.525"><path d="M187.76 401.343c-1.007-20.582 30.964-26.866 29.511-8.166" stroke="url(#m)" transform="matrix(1 0 0 .5 194.316 200.95)"/><path d="M187.808 387.91c-1.007-20.581 30.964-26.864 29.51-8.165" stroke="url(#n)" transform="matrix(1 0 0 .5 194.316 200.95)"/><path d="M187.76 414.774c-1.007-20.581 30.964-26.865 29.511-8.165" stroke="url(#o)" transform="matrix(1 0 0 .5 194.316 200.95)"/><path d="M187.76 428.206c-1.007-20.582 30.964-26.865 29.511-8.166" stroke="url(#p)" transform="matrix(1 0 0 .5 194.316 200.95)"/><path d="M187.76 495.365c-1.007-20.581 30.964-26.865 29.511-8.165" stroke="url(#q)" transform="matrix(1 0 0 .5 194.316 200.95)"/><path d="M187.76 508.797c-1.007-20.582 30.964-26.865 29.511-8.166" stroke="url(#r)" transform="matrix(1 0 0 .5 194.316 200.95)"/><path d="M187.76 481.934c-1.007-20.582 30.964-26.866 29.511-8.166" stroke="url(#s)" transform="matrix(1 0 0 .5 194.316 200.95)"/><path d="M187.76 468.502c-1.007-20.582 30.964-26.865 29.511-8.166" stroke="url(#t)" transform="matrix(1 0 0 .5 194.316 200.95)"/><path d="M187.76 455.07c-1.007-20.582 30.964-26.865 29.511-8.166" stroke="url(#u)" transform="matrix(1 0 0 .5 194.316 200.95)"/><path d="M187.76 441.638c-1.007-20.582 30.964-26.865 29.511-8.166" stroke="url(#v)" transform="matrix(1 0 0 .5 194.316 200.95)"/><path d="M187.76 374.479c-1.007-20.582 14.737-21.904 14.737-21.904" stroke="url(#w)" transform="matrix(1 0 0 .5 194.316 200.95)"/></g></g><rect ry="6.751" y="321.439" x="363.163" height="460.687" width="67.387" opacity=".3" fill="url(#x)" fill-rule="evenodd" stroke="#000" stroke-width="2.018"/><rect rx="2.761" ry="2.761" y="321.536" x="365.442" height="5.522" width="62.764" fill="#666"/><rect width="67.387" height="460.687" x="363.163" y="324.297" ry="6.751" opacity=".3" fill="#f2f2f2" fill-rule="evenodd" stroke="#000" stroke-width="2.018"/><g stroke-width="3.2" fill="none" stroke="#000" stroke-linecap="round"><path d="M397.91 561.574H376.78M397.91 596.137H376.78M397.38 589.224h-14.579M397.38 582.312h-14.579M397.38 575.4h-14.579M397.38 568.487h-14.579M395.776 561.574h21.13M395.776 596.137h21.13"/><g><path d="M396.305 589.224h14.58M396.305 582.312h14.58M396.305 575.4h14.58M396.305 568.487h14.58"/></g><g><path d="M397.91 596.137H376.78M397.91 630.699H376.78M397.38 623.787h-14.579M397.38 616.874h-14.579M397.38 609.962h-14.579M397.38 603.05h-14.579M395.776 596.137h21.13M395.776 630.699h21.13"/><g><path d="M396.305 623.787h14.58M396.305 616.874h14.58M396.305 609.962h14.58M396.305 603.05h14.58"/></g></g><g><path d="M397.91 699.824H376.78M397.91 734.386H376.78M397.38 727.474h-14.579M397.38 720.561h-14.579M397.38 713.649h-14.579M397.38 706.736h-14.579M395.776 699.824h21.13M395.776 734.386h21.13"/><g><path d="M396.305 727.474h14.58M396.305 720.561h14.58M396.305 713.649h14.58M396.305 706.736h14.58"/></g></g><g><path d="M397.91 630.699H376.78M397.91 665.261H376.78M397.38 658.349h-14.579M397.38 651.436h-14.579M397.38 644.524h-14.579M397.38 637.611h-14.579M395.776 630.699h21.13M395.776 665.261h21.13"/><g><path d="M396.305 658.349h14.58M396.305 651.436h14.58M396.305 644.524h14.58M396.305 637.611h14.58"/></g></g><g><path d="M397.91 665.261H376.78M397.91 699.824H376.78M397.38 692.911h-14.579M397.38 685.999h-14.579M397.38 679.086h-14.579M397.38 672.174h-14.579M395.776 665.261h21.13M395.776 699.824h21.13"/><g><path d="M396.305 692.911h14.58M396.305 685.999h14.58M396.305 679.086h14.58M396.305 672.174h14.58"/></g></g></g><rect width="19.155" height="25.86" x="386.765" y="583.085" ry="8.536" rx="8.536" opacity=".761" fill="#f9f9f9"/><g transform="translate(-280.818 203.061) scale(2.99454)" ns0:text="1" fill="#d40000" stroke-width=".521"><defs><symbol id="y" overflow="visible"><path d="M3.133-6.8c0-.267 0-.283-.25-.283-.666.683-1.6.683-1.933.683v.333c.217 0 .833 0 1.383-.283v5.517c0 .383-.033.5-.983.5h-.333V0C1.383-.033 2.3-.033 2.733-.033c.417 0 1.35 0 1.717.033v-.333h-.333c-.967 0-.984-.117-.984-.5zm0 0" stroke-width=".556"/></symbol></defs><use y="134.765" x="223.432" xlink:href="#y" width="744.094" height="1052.362"/></g><ellipse cx="396.843" cy="559.583" rx="25.456" ry="1.98" fill="gray" stroke="#a00" stroke-width="2.133" stroke-linejoin="round"/><rect rx="8.536" ry="8.536" y="549.683" x="386.765" height="25.86" width="19.155" opacity=".761" fill="#f9f9f9"/><g ns0:text="0" transform="translate(-280.669 169.31) scale(2.99454)" fill="#d40000" stroke-width=".521"><defs><symbol overflow="visible" id="z"><path d="M4.883-3.4c0-.85-.05-1.7-.416-2.483-.484-1.034-1.367-1.2-1.8-1.2-.65 0-1.417.283-1.867 1.266C.467-5.083.417-4.25.417-3.4c0 .8.033 1.75.483 2.567A1.952 1.952 0 0 0 2.65.233C3.217.233 4.033.017 4.5-1c.333-.733.383-1.567.383-2.4zM2.65 0C2.233 0 1.6-.267 1.417-1.283 1.3-1.917 1.3-2.9 1.3-3.533c0-.684 0-1.384.083-1.95.2-1.267 1-1.367 1.267-1.367.35 0 1.05.2 1.25 1.25.117.6.117 1.4.117 2.067 0 .8 0 1.516-.117 2.2C3.733-.317 3.133 0 2.65 0zm0 0" stroke-width=".556"/></symbol></defs><use xlink:href="#z" x="223.432" y="134.765" width="744.094" height="1052.362"/></g><rect width="19.155" height="25.86" x="386.765" y="617.565" ry="8.536" rx="8.536" opacity=".761" fill="#f9f9f9"/><g transform="translate(-280.669 237.541) scale(2.99454)" ns0:text="2" fill="#d40000" stroke-width=".521"><defs><symbol id="A" overflow="visible"><path d="M1.35-.817l1.133-1.1c1.65-1.466 2.284-2.033 2.284-3.1 0-1.216-.95-2.066-2.25-2.066-1.2 0-1.984.983-1.984 1.933 0 .583.534.583.567.583.183 0 .55-.116.55-.566 0-.267-.2-.55-.567-.55-.083 0-.1 0-.133.016.233-.7.817-1.083 1.433-1.083.967 0 1.417.867 1.417 1.733 0 .85-.517 1.684-1.117 2.35L.65-.4C.533-.283.533-.25.533 0h3.95l.284-1.85h-.25c-.067.317-.134.783-.25.95-.067.083-.767.083-1 .083zm0 0" stroke-width=".556"/></symbol></defs><use y="134.765" x="223.432" xlink:href="#A" width="744.094" height="1052.362"/></g><rect rx="8.536" ry="8.536" y="652.449" x="386.765" height="25.86" width="19.155" opacity=".761" fill="#f9f9f9"/><g ns0:text="3" transform="translate(-280.694 272.076) scale(2.99454)" fill="#d40000" stroke-width=".521"><defs><symbol overflow="visible" id="B"><path d="M3.083-3.75c.867-.283 1.484-1.017 1.484-1.867 0-.866-.934-1.466-1.95-1.466-1.067 0-1.884.633-1.884 1.45 0 .35.234.55.55.55.317 0 .534-.234.534-.55 0-.517-.5-.517-.65-.517.316-.533 1.016-.667 1.4-.667.45 0 1.033.234 1.033 1.184 0 .133-.033.75-.3 1.216-.317.517-.683.55-.95.55a3.509 3.509 0 0 1-.417.034c-.083.016-.15.033-.15.133 0 .117.067.117.25.117H2.5c.867 0 1.267.716 1.267 1.766 0 1.45-.734 1.75-1.2 1.75C2.1-.067 1.3-.25.933-.867c.367.05.7-.183.7-.583 0-.383-.283-.6-.583-.6-.267 0-.6.15-.6.617C.45-.467 1.433.233 2.6.233c1.3 0 2.267-.966 2.267-2.05 0-.866-.684-1.7-1.784-1.933zm0 0" stroke-width=".556"/></symbol></defs><use xlink:href="#B" x="223.432" y="134.765" width="744.094" height="1052.362"/></g><rect width="19.155" height="25.86" x="386.765" y="686.929" ry="8.536" rx="8.536" opacity=".761" fill="#f9f9f9"/><g transform="translate(-280.669 307.08) scale(2.99454)" ns0:text="4" fill="#d40000" stroke-width=".521"><defs><symbol id="C" overflow="visible"><path d="M3.133-1.75v.917c0 .383-.033.5-.816.5H2.1V0c.433-.033.983-.033 1.433-.033.45 0 1 0 1.45.033v-.333H4.75c-.783 0-.8-.117-.8-.5v-.917H5v-.333H3.95v-4.834c0-.216 0-.283-.183-.283-.084 0-.117 0-.2.133L.3-2.083v.333zm.05-.333H.6L3.183-6.05zm0 0" stroke-width=".556"/></symbol></defs><use y="134.765" x="223.432" xlink:href="#C" width="744.094" height="1052.362"/></g><rect rx="8.536" ry="8.536" y="721.274" x="386.765" height="25.86" width="19.155" opacity=".761" fill="#f9f9f9"/><g ns0:text="5" transform="translate(-280.669 340.901) scale(2.99454)" fill="#d40000" stroke-width=".521"><defs><symbol overflow="visible" id="D"><path d="M4.767-2.133c0-1.267-.867-2.334-2.017-2.334-.5 0-.967.167-1.35.55V-6c.217.067.567.133.9.133 1.317 0 2.067-.966 2.067-1.1 0-.066-.034-.116-.117-.116 0 0-.033 0-.083.033-.217.1-.734.317-1.45.317-.417 0-.917-.084-1.417-.3-.083-.034-.1-.034-.117-.034-.116 0-.116.084-.116.25v3.15c0 .184 0 .267.15.267.083 0 .1-.017.15-.083.116-.167.5-.75 1.366-.75.55 0 .817.483.9.683.167.4.2.8.2 1.333 0 .384 0 1.017-.266 1.467-.25.417-.65.683-1.134.683-.766 0-1.383-.566-1.566-1.183.033 0 .066.017.183.017.35 0 .533-.267.533-.517 0-.267-.183-.533-.533-.533-.15 0-.517.083-.517.566 0 .917.734 1.95 1.917 1.95 1.233 0 2.317-1.016 2.317-2.366zm0 0" stroke-width=".556"/></symbol></defs><use xlink:href="#D" x="223.432" y="134.765" width="744.094" height="1052.362"/></g><rect width="67.387" height="69.364" x="363.163" y="419.095" ry="0" rx="13.407" opacity=".761" fill="#f9f9f9"/><g fill="#d40000" stroke="#d40000"><g transform="matrix(2.60966 0 0 2.60966 -210.863 95.837)" ns0:text="Max" ns0:preamble="/home/waldgeist/data/sphinx/inkscape-preamble.tex"><defs><symbol overflow="visible" id="E"><path d="M2.567-7.033c-.1-.234-.134-.234-.384-.234H.4v.334h.25c.817 0 .833.116.833.5v5.316c0 .284 0 .784-1.083.784V0c.367-.017.883-.033 1.233-.033.35 0 .884.016 1.25.033v-.333c-1.1 0-1.1-.5-1.1-.784V-6.85H1.8L4.367-.233c.05.133.1.233.2.233.116 0 .15-.083.2-.2l2.616-6.733v6.1c0 .383-.016.5-.833.5H6.3V0c.383-.033 1.117-.033 1.533-.033.4 0 1.117 0 1.517.033v-.333h-.267c-.816 0-.833-.117-.833-.5v-5.6c0-.384.017-.5.833-.5h.267v-.334h-1.8c-.283 0-.283.017-.35.2l-2.333 6z" stroke="none" stroke-width="1.067"/></symbol><symbol overflow="visible" id="F"><path d="M3.533-.8c.05.417.334.867.834.867.233 0 .883-.15.883-1.017v-.6h-.267v.6c0 .617-.266.683-.383.683-.35 0-.4-.483-.4-.533v-2.117c0-.45 0-.866-.383-1.266a2.025 2.025 0 0 0-1.45-.584c-.884 0-1.617.5-1.617 1.2 0 .317.217.5.5.5.3 0 .483-.216.483-.483 0-.133-.05-.483-.55-.483.3-.384.817-.5 1.15-.5.534 0 1.134.416 1.134 1.366v.384c-.55.033-1.284.066-1.95.383-.8.367-1.067.917-1.067 1.383C.45-.15 1.483.117 2.15.117c.7 0 1.183-.434 1.383-.917zm-.066-1.75v1.067c0 1-.767 1.366-1.25 1.366-.517 0-.95-.366-.95-.9 0-.583.45-1.466 2.2-1.533z" stroke="none" stroke-width="1.067"/></symbol><symbol overflow="visible" id="G"><path d="M3.05-2.5c.317-.4.717-.917.983-1.2.334-.383.767-.55 1.267-.55v-.333c-.283.016-.6.033-.883.033-.317 0-.884-.017-1.017-.033v.333c.233.017.317.15.317.333 0 .167-.117.3-.167.367l-.65.833L2.067-3.8c-.1-.1-.1-.117-.1-.183 0-.167.166-.267.366-.267v-.333c-.266.016-.966.033-1.15.033-.216 0-.716-.017-1-.033v.333c.75 0 .75 0 1.25.65l1.05 1.367-1 1.266a1.67 1.67 0 0 1-1.35.634V0c.267-.017.6-.033.884-.033.3 0 .75.016 1 .033v-.333c-.234-.034-.3-.167-.3-.334 0-.233.3-.583.95-1.35L3.483-.95c.084.117.217.283.217.35 0 .1-.1.267-.383.267V0c.316-.017.916-.033 1.15-.033.283 0 .7.016 1.016.033v-.333c-.566 0-.766-.017-1-.334z" stroke="none" stroke-width="1.067"/></symbol></defs><use height="1052.362" width="744.094" xlink:href="#E" x="223.432" y="134.765"/><use height="1052.362" width="744.094" xlink:href="#F" x="232.565" y="134.765"/><use height="1052.362" width="744.094" xlink:href="#G" x="237.546" y="134.765"/></g><g ns0:text="$\\unit[5]{N}$" ns0:preamble="/home/waldgeist/data/sphinx/inkscape-preamble.tex" transform="matrix(3 0 0 3 -301.545 73.994)"><defs><symbol overflow="visible" id="H"><path d="M4.767-2.133c0-1.267-.867-2.334-2.017-2.334-.5 0-.967.167-1.35.55V-6c.217.067.567.133.9.133 1.317 0 2.067-.966 2.067-1.1 0-.066-.034-.116-.117-.116 0 0-.033 0-.083.033-.217.1-.734.317-1.45.317-.417 0-.917-.084-1.417-.3-.083-.034-.1-.034-.117-.034-.116 0-.116.084-.116.25v3.15c0 .184 0 .267.15.267.083 0 .1-.017.15-.083.116-.167.5-.75 1.366-.75.55 0 .817.483.9.683.167.4.2.8.2 1.333 0 .384 0 1.017-.266 1.467-.25.417-.65.683-1.134.683-.766 0-1.383-.566-1.566-1.183.033 0 .066.017.183.017.35 0 .533-.267.533-.517 0-.267-.183-.533-.533-.533-.15 0-.517.083-.517.566 0 .917.734 1.95 1.917 1.95 1.233 0 2.317-1.016 2.317-2.366z" stroke="none" stroke-width="1.067"/></symbol><symbol overflow="visible" id="I"><path d="M2.467-7.117c-.1-.133-.1-.15-.3-.15H.35v.334h.317c.15 0 .366.016.516.016.25.034.267.05.267.25v5.55c0 .284 0 .784-1.1.784V0c.367-.017.9-.033 1.25-.033s.867.016 1.233.033v-.333c-1.083 0-1.083-.5-1.083-.784V-6.65c.05.05.05.067.1.133L6.183-.133c.1.116.117.133.184.133.15 0 .15-.067.15-.283V-6.15c0-.283 0-.783 1.1-.783v-.334c-.384.017-.9.034-1.25.034S5.5-7.25 5.133-7.267v.334c1.084 0 1.084.5 1.084.783v4.55z" stroke="none" stroke-width="1.067"/></symbol></defs><use xlink:href="#H" x="223.432" y="134.765" width="744.094" height="1052.362"/><use xlink:href="#I" x="230.077" y="134.765" width="744.094" height="1052.362"/></g></g></svg>