<?xml version="1.0" encoding="UTF-8" standalone="no"?>
<!-- Created with Inkscape (http://www.inkscape.org/) -->

<svg
   xmlns:ns0="http://www.iki.fi/pav/software/textext/"
   xmlns:dc="http://purl.org/dc/elements/1.1/"
   xmlns:cc="http://creativecommons.org/ns#"
   xmlns:rdf="http://www.w3.org/1999/02/22-rdf-syntax-ns#"
   xmlns:svg="http://www.w3.org/2000/svg"
   xmlns="http://www.w3.org/2000/svg"
   xmlns:xlink="http://www.w3.org/1999/xlink"
   xmlns:sodipodi="http://sodipodi.sourceforge.net/DTD/sodipodi-0.dtd"
   xmlns:inkscape="http://www.inkscape.org/namespaces/inkscape"
   width="210mm"
   height="297mm"
   id="svg15835"
   version="1.1"
   inkscape:version="0.48.3.1 r9886"
   sodipodi:docname="gleitreibung.svg">
  <sodipodi:namedview
     id="base"
     pagecolor="#ffffff"
     bordercolor="#666666"
     borderopacity="1.0"
     inkscape:pageopacity="0.0"
     inkscape:pageshadow="2"
     inkscape:zoom="0.70000001"
     inkscape:cx="316.67895"
     inkscape:cy="631.7436"
     inkscape:document-units="px"
     inkscape:current-layer="layer1"
     showgrid="false"
     inkscape:window-width="1280"
     inkscape:window-height="974"
     inkscape:window-x="0"
     inkscape:window-y="0"
     inkscape:window-maximized="1"
     showguides="false"
     inkscape:guide-bbox="true">
    <sodipodi:guide
       orientation="1,0"
       position="222.73864,773.27177"
       id="guide19064" />
  </sodipodi:namedview>
  <title
     id="title3003">Gleitreibung</title>
  <defs
     id="defs15837" />
  <metadata
     id="metadata15840">
    <rdf:RDF>
      <cc:Work
         rdf:about="">
        <dc:format>image/svg+xml</dc:format>
        <dc:type
           rdf:resource="http://purl.org/dc/dcmitype/StillImage" />
        <dc:title>Gleitreibung</dc:title>
        <dc:date>2011-09-08</dc:date>
        <dc:creator>
          <cc:Agent>
            <dc:title>Bernhard Grotz</dc:title>
          </cc:Agent>
        </dc:creator>
        <dc:rights>
          <cc:Agent>
            <dc:title>Bernhard Grotz</dc:title>
          </cc:Agent>
        </dc:rights>
        <dc:publisher>
          <cc:Agent>
            <dc:title>Bernhard Grotz</dc:title>
          </cc:Agent>
        </dc:publisher>
        <dc:language>de-DE</dc:language>
        <dc:subject>
          <rdf:Bag>
            <rdf:li>Physik</rdf:li>
            <rdf:li>Mechanik</rdf:li>
            <rdf:li>Reibung</rdf:li>
            <rdf:li>Gleitreibung</rdf:li>
          </rdf:Bag>
        </dc:subject>
        <cc:license
           rdf:resource="http://creativecommons.org/licenses/by-nc-sa/3.0/" />
      </cc:Work>
      <cc:License
         rdf:about="http://creativecommons.org/licenses/by-nc-sa/3.0/">
        <cc:permits
           rdf:resource="http://creativecommons.org/ns#Reproduction" />
        <cc:permits
           rdf:resource="http://creativecommons.org/ns#Distribution" />
        <cc:requires
           rdf:resource="http://creativecommons.org/ns#Notice" />
        <cc:requires
           rdf:resource="http://creativecommons.org/ns#Attribution" />
        <cc:prohibits
           rdf:resource="http://creativecommons.org/ns#CommercialUse" />
        <cc:permits
           rdf:resource="http://creativecommons.org/ns#DerivativeWorks" />
        <cc:requires
           rdf:resource="http://creativecommons.org/ns#ShareAlike" />
      </cc:License>
    </rdf:RDF>
  </metadata>
  <g
     inkscape:label="Ebene 1"
     inkscape:groupmode="layer"
     id="layer1">
    <rect
       inkscape:export-filename="/home/waldgeist/data/pics/physik/Own/mechanik/dynamik/gleitreibung.png"
       inkscape:export-ydpi="150"
       inkscape:export-xdpi="150"
       style="fill:#ffffff;stroke:#ffffff;stroke-width:1.25;stroke-miterlimit:4;stroke-dasharray:none"
       id="rect6194"
       width="443.71396"
       height="240.42059"
       x="150.19026"
       y="405.97079" />
    <path
       sodipodi:nodetypes="ccccccccccccccccccccccccccccccccccc"
       inkscape:connector-curvature="0"
       style="fill:#666666;stroke:#000000;stroke-width:1.83746493;stroke-miterlimit:4;stroke-dasharray:none"
       d="m 234.03824,522.23211 -16.9774,21.78162 -0.72733,0 0,31.40916 366.32542,0 0,-31.40916 -0.72733,0 -16.99655,-21.78162 -16.97741,21.78162 -2.79448,0 -16.97741,-21.78162 -16.99655,21.78162 -2.79448,0 -16.97741,-21.78162 -16.99655,21.78162 -2.79448,0 -16.97741,-21.78162 -16.99655,21.78162 -2.79448,0 -16.97741,-21.78162 -16.99655,21.78162 -2.79447,0 -16.97741,-21.78162 -16.99656,21.78162 -2.77533,0 -16.99655,-21.78162 -16.99655,21.78162 -2.77534,0 -16.99655,-21.78162 -16.97741,21.78162 -2.79448,0 -16.99655,-21.78162 -16.97741,21.78162 -2.79448,0 z"
       id="path5882"
       inkscape:export-filename="/home/waldgeist/data/pics/physik/Own/mechanik/dynamik/gleitreibung.png"
       inkscape:export-xdpi="150"
       inkscape:export-ydpi="150" />
    <path
       sodipodi:nodetypes="ccccccccccccccccccccccccccccccccccc"
       id="path5899"
       d="m 223.51972,526.19876 -16.97741,-21.78161 -0.72733,0 0,-31.40917 366.32542,0 0,31.40917 -0.72733,0 -16.99655,21.78161 -16.97741,-21.78161 -2.79448,0 -16.97741,21.78161 -16.99655,-21.78161 -2.79447,0 -16.97741,21.78161 -16.99656,-21.78161 -2.79447,0 -16.97741,21.78161 -16.99655,-21.78161 -2.79448,0 -16.97741,21.78161 -16.99655,-21.78161 -2.79448,0 -16.97741,21.78161 -16.99655,-21.78161 -2.77534,0 -16.99655,21.78161 -16.99655,-21.78161 -2.77534,0 -16.99655,21.78161 -16.97741,-21.78161 -2.79447,0 -16.99655,21.78161 -16.97741,-21.78161 -2.79448,0 z"
       style="fill:#b3b3b3;stroke:#000000;stroke-width:1.83746493;stroke-miterlimit:4;stroke-dasharray:none"
       inkscape:connector-curvature="0"
       inkscape:export-filename="/home/waldgeist/data/pics/physik/Own/mechanik/dynamik/gleitreibung.png"
       inkscape:export-xdpi="150"
       inkscape:export-ydpi="150" />
    <g
       id="g18751"
       transform="translate(-71.232268,335.78571)"
       inkscape:export-filename="/home/waldgeist/data/pics/physik/Own/mechanik/dynamik/gleitreibung.png"
       inkscape:export-xdpi="150"
       inkscape:export-ydpi="150">
      <path
         inkscape:connector-curvature="0"
         id="path5901"
         d="m 467.18232,156.14605 77.19836,0"
         style="fill:#d40000;stroke:#d40000;stroke-width:14.94471455;stroke-linecap:square;stroke-linejoin:miter;stroke-miterlimit:4;stroke-opacity:1;stroke-dasharray:none" />
      <path
         sodipodi:type="star"
         style="fill:#d40000;stroke:#d40000;stroke-width:29.29999924;stroke-miterlimit:4;stroke-dasharray:none"
         id="path5439-0"
         sodipodi:sides="3"
         sodipodi:cx="-707.10675"
         sodipodi:cy="1607.946"
         sodipodi:r1="12.121831"
         sodipodi:r2="6.060915"
         sodipodi:arg1="1.5707963"
         sodipodi:arg2="2.6179939"
         inkscape:flatsided="false"
         inkscape:rounded="0"
         inkscape:randomized="0"
         d="m -707.10675,1620.0679 -5.24891,-9.0914 -5.2489,-9.0914 10.49781,0 10.49781,0 -5.2489,9.0914 z"
         inkscape:transform-center-y="-0.00017641075"
         transform="matrix(1.645499e-5,-0.5103719,0.5103719,1.645499e-5,-266.25862,-204.76773)"
         inkscape:transform-center-x="-3.0302635" />
    </g>
    <g
       id="g18809"
       transform="translate(62.987315,259.78571)"
       inkscape:export-filename="/home/waldgeist/data/pics/physik/Own/mechanik/dynamik/gleitreibung.png"
       inkscape:export-xdpi="150"
       inkscape:export-ydpi="150">
      <g
         transform="matrix(-1,0,0,-1,786.20034,455.40701)"
         id="g18755">
        <path
           sodipodi:type="star"
           style="fill:#d40000;stroke:#d40000;stroke-width:29.29999924;stroke-miterlimit:4;stroke-dasharray:none"
           id="path18759"
           sodipodi:sides="3"
           sodipodi:cx="-707.10675"
           sodipodi:cy="1607.946"
           sodipodi:r1="12.121831"
           sodipodi:r2="6.060915"
           sodipodi:arg1="1.5707963"
           sodipodi:arg2="2.6179939"
           inkscape:flatsided="false"
           inkscape:rounded="0"
           inkscape:randomized="0"
           d="m -707.10675,1620.0679 -5.24891,-9.0914 -5.2489,-9.0914 10.49781,0 10.49781,0 -5.2489,9.0914 z"
           inkscape:transform-center-y="-0.00017641075"
           transform="matrix(1.645499e-5,-0.5103719,0.5103719,1.645499e-5,-266.25862,-204.76773)"
           inkscape:transform-center-x="-3.0302635" />
      </g>
      <path
         style="fill:#d40000;stroke:#d40000;stroke-width:14.94471455;stroke-linecap:square;stroke-linejoin:miter;stroke-miterlimit:4;stroke-opacity:1;stroke-dasharray:none"
         d="m 241.81966,299.26096 77.19836,0"
         id="path5901-3"
         inkscape:connector-curvature="0" />
    </g>
    <g
       transform="matrix(2.9277108,0,0,2.9277108,-267.31345,63.447436)"
       ns0:text="Zugkraft"
       ns0:preamble="/home/waldgeist/data/sphinx/test.tex"
       id="g3030"
       style="fill:#d40000;fill-opacity:1"
       inkscape:export-filename="/home/waldgeist/data/pics/physik/Own/mechanik/dynamik/gleitreibung.png"
       inkscape:export-xdpi="150"
       inkscape:export-ydpi="150">
      <defs
         id="defs3032">
        <g
           id="g3034">
          <symbol
             style="overflow:visible"
             overflow="visible"
             id="textext-7e2d2c62-0">
            <path
               inkscape:connector-curvature="0"
               style="stroke:none"
               d="m 5.453125,-6.453125 c 0.0625,-0.109375 0.0625,-0.125 0.0625,-0.203125 0,-0.15625 -0.046875,-0.15625 -0.25,-0.15625 l -4.46875,0 -0.109375,2.25 0.25,0 C 1,-5.6875 1.3125,-6.5 2.9375,-6.5 L 4.5,-6.5 0.625,-0.375 C 0.5625,-0.265625 0.5625,-0.25 0.5625,-0.171875 0.5625,0 0.609375,0 0.8125,0 l 4.59375,0 0.171875,-2.65625 -0.25,0 C 5.25,-1.28125 5.0625,-0.34375 3.21875,-0.34375 l -1.640625,0 z m 0,0"
               id="path3037" />
          </symbol>
          <symbol
             style="overflow:visible"
             overflow="visible"
             id="textext-7e2d2c62-1">
            <path
               inkscape:connector-curvature="0"
               style="stroke:none"
               d="m 3.890625,-0.78125 0,0.890625 L 5.328125,0 l 0,-0.3125 C 4.640625,-0.3125 4.5625,-0.375 4.5625,-0.875 l 0,-3.53125 -1.46875,0.109375 0,0.3125 c 0.6875,0 0.78125,0.0625 0.78125,0.5625 l 0,1.765625 c 0,0.875 -0.484375,1.546875 -1.21875,1.546875 -0.828125,0 -0.875,-0.46875 -0.875,-0.984375 l 0,-3.3125 -1.46875,0.109375 0,0.3125 c 0.78125,0 0.78125,0.03125 0.78125,0.90625 l 0,1.5 c 0,0.78125 0,1.6875 1.515625,1.6875 0.5625,0 1,-0.28125 1.28125,-0.890625 z m 0,0"
               id="path3040" />
          </symbol>
          <symbol
             style="overflow:visible"
             overflow="visible"
             id="textext-7e2d2c62-2">
            <path
               inkscape:connector-curvature="0"
               style="stroke:none"
               d="m 2.21875,-1.71875 c -0.875,0 -0.875,-1 -0.875,-1.21875 0,-0.265625 0.015625,-0.59375 0.15625,-0.84375 0.078125,-0.109375 0.3125,-0.390625 0.71875,-0.390625 0.859375,0 0.859375,0.984375 0.859375,1.21875 0,0.265625 0,0.59375 -0.15625,0.84375 C 2.84375,-2 2.609375,-1.71875 2.21875,-1.71875 z M 1.0625,-1.328125 c 0,-0.03125 0,-0.265625 0.15625,-0.46875 0.390625,0.28125 0.8125,0.3125 1,0.3125 0.921875,0 1.609375,-0.6875 1.609375,-1.453125 0,-0.375 -0.15625,-0.734375 -0.40625,-0.96875 C 3.78125,-4.25 4.140625,-4.296875 4.3125,-4.296875 c 0.03125,0 0.078125,0 0.109375,0.015625 C 4.3125,-4.25 4.25,-4.140625 4.25,-4.015625 c 0,0.171875 0.140625,0.28125 0.296875,0.28125 0.09375,0 0.28125,-0.0625 0.28125,-0.296875 0,-0.171875 -0.109375,-0.484375 -0.5,-0.484375 -0.203125,0 -0.640625,0.0625 -1.0625,0.46875 C 2.84375,-4.375 2.4375,-4.40625 2.21875,-4.40625 c -0.9375,0 -1.625,0.6875 -1.625,1.453125 0,0.4375 0.21875,0.8125 0.46875,1.03125 -0.125,0.140625 -0.3125,0.46875 -0.3125,0.828125 0,0.3125 0.140625,0.6875 0.453125,0.890625 -0.609375,0.15625 -0.921875,0.59375 -0.921875,0.984375 0,0.71875 0.984375,1.265625 2.203125,1.265625 1.171875,0 2.203125,-0.5 2.203125,-1.28125 0,-0.34375 -0.125,-0.859375 -0.640625,-1.140625 -0.53125,-0.265625 -1.109375,-0.265625 -1.71875,-0.265625 -0.25,0 -0.671875,0 -0.75,-0.015625 C 1.265625,-0.703125 1.0625,-1 1.0625,-1.328125 z M 2.5,1.828125 c -1.015625,0 -1.703125,-0.515625 -1.703125,-1.046875 0,-0.453125 0.375,-0.828125 0.8125,-0.84375 l 0.59375,0 c 0.859375,0 1.96875,0 1.96875,0.84375 0,0.546875 -0.703125,1.046875 -1.671875,1.046875 z m 0,0"
               id="path3043" />
          </symbol>
          <symbol
             style="overflow:visible"
             overflow="visible"
             id="textext-7e2d2c62-3">
            <path
               inkscape:connector-curvature="0"
               style="stroke:none"
               d="m 1.0625,-0.75 c 0,0.4375 -0.109375,0.4375 -0.78125,0.4375 l 0,0.3125 c 0.328125,-0.015625 0.796875,-0.03125 1.078125,-0.03125 0.3125,0 0.703125,0.015625 1.109375,0.03125 l 0,-0.3125 c -0.671875,0 -0.78125,0 -0.78125,-0.4375 l 0,-1.03125 0.640625,-0.546875 c 0.765625,1.046875 1.1875,1.609375 1.1875,1.796875 0,0.1875 -0.171875,0.21875 -0.359375,0.21875 l 0,0.3125 c 0.265625,-0.015625 0.859375,-0.03125 1.078125,-0.03125 0.28125,0 0.578125,0.015625 0.859375,0.03125 l 0,-0.3125 c -0.375,0 -0.59375,0 -0.96875,-0.53125 L 2.859375,-2.625 c -0.015625,-0.015625 -0.0625,-0.078125 -0.0625,-0.109375 0,-0.03125 0.71875,-0.640625 0.8125,-0.71875 0.625,-0.5 1.046875,-0.53125 1.25,-0.53125 l 0,-0.3125 c -0.28125,0.03125 -0.40625,0.03125 -0.6875,0.03125 -0.359375,0 -0.984375,-0.015625 -1.125,-0.03125 l 0,0.3125 c 0.1875,0 0.296875,0.109375 0.296875,0.25 0,0.203125 -0.140625,0.3125 -0.21875,0.390625 l -1.40625,1.203125 0,-4.78125 -1.4375,0.109375 0,0.3125 c 0.703125,0 0.78125,0.0625 0.78125,0.5625 z m 0,0"
               id="path3046" />
          </symbol>
          <symbol
             style="overflow:visible"
             overflow="visible"
             id="textext-7e2d2c62-4">
            <path
               inkscape:connector-curvature="0"
               style="stroke:none"
               d="m 1.671875,-3.3125 0,-1.09375 -1.390625,0.109375 0,0.3125 c 0.703125,0 0.78125,0.0625 0.78125,0.5625 l 0,2.671875 c 0,0.4375 -0.109375,0.4375 -0.78125,0.4375 l 0,0.3125 c 0.390625,-0.015625 0.859375,-0.03125 1.140625,-0.03125 0.390625,0 0.859375,0 1.265625,0.03125 l 0,-0.3125 -0.21875,0 c -0.734375,0 -0.75,-0.109375 -0.75,-0.46875 l 0,-1.53125 c 0,-0.984375 0.421875,-1.875 1.171875,-1.875 0.0625,0 0.09375,0 0.109375,0.015625 -0.03125,0 -0.234375,0.125 -0.234375,0.390625 0,0.265625 0.21875,0.421875 0.4375,0.421875 0.171875,0 0.421875,-0.125 0.421875,-0.4375 0,-0.3125 -0.3125,-0.609375 -0.734375,-0.609375 -0.734375,0 -1.09375,0.671875 -1.21875,1.09375 z m 0,0"
               id="path3049" />
          </symbol>
          <symbol
             style="overflow:visible"
             overflow="visible"
             id="textext-7e2d2c62-5">
            <path
               inkscape:connector-curvature="0"
               style="stroke:none"
               d="m 3.3125,-0.75 c 0.046875,0.390625 0.3125,0.8125 0.78125,0.8125 0.21875,0 0.828125,-0.140625 0.828125,-0.953125 l 0,-0.5625 -0.25,0 0,0.5625 c 0,0.578125 -0.25,0.640625 -0.359375,0.640625 -0.328125,0 -0.375,-0.453125 -0.375,-0.5 l 0,-1.984375 c 0,-0.421875 0,-0.8125 -0.359375,-1.1875 C 3.1875,-4.3125 2.6875,-4.46875 2.21875,-4.46875 c -0.828125,0 -1.515625,0.46875 -1.515625,1.125 0,0.296875 0.203125,0.46875 0.46875,0.46875 0.28125,0 0.453125,-0.203125 0.453125,-0.453125 0,-0.125 -0.046875,-0.453125 -0.515625,-0.453125 C 1.390625,-4.140625 1.875,-4.25 2.1875,-4.25 c 0.5,0 1.0625,0.390625 1.0625,1.28125 l 0,0.359375 c -0.515625,0.03125 -1.203125,0.0625 -1.828125,0.359375 -0.75,0.34375 -1,0.859375 -1,1.296875 0,0.8125 0.96875,1.0625 1.59375,1.0625 0.65625,0 1.109375,-0.40625 1.296875,-0.859375 z M 3.25,-2.390625 l 0,1 c 0,0.9375 -0.71875,1.28125 -1.171875,1.28125 -0.484375,0 -0.890625,-0.34375 -0.890625,-0.84375 0,-0.546875 0.421875,-1.375 2.0625,-1.4375 z m 0,0"
               id="path3052" />
          </symbol>
          <symbol
             style="overflow:visible"
             overflow="visible"
             id="textext-7e2d2c62-6">
            <path
               inkscape:connector-curvature="0"
               style="stroke:none"
               d="m 1.75,-4.296875 0,-1.15625 c 0,-0.875 0.46875,-1.359375 0.90625,-1.359375 0.03125,0 0.1875,0 0.328125,0.078125 C 2.875,-6.703125 2.6875,-6.5625 2.6875,-6.3125 c 0,0.21875 0.15625,0.421875 0.4375,0.421875 0.28125,0 0.4375,-0.203125 0.4375,-0.4375 0,-0.375 -0.375,-0.703125 -0.90625,-0.703125 -0.6875,0 -1.546875,0.53125 -1.546875,1.59375 l 0,1.140625 -0.78125,0 0,0.3125 0.78125,0 0,3.234375 c 0,0.4375 -0.109375,0.4375 -0.765625,0.4375 l 0,0.3125 c 0.390625,-0.015625 0.859375,-0.03125 1.125,-0.03125 0.40625,0 0.875,0 1.265625,0.03125 l 0,-0.3125 -0.203125,0 c -0.734375,0 -0.75,-0.109375 -0.75,-0.46875 l 0,-3.203125 1.125,0 0,-0.3125 z m 0,0"
               id="path3055" />
          </symbol>
          <symbol
             style="overflow:visible"
             overflow="visible"
             id="textext-7e2d2c62-7">
            <path
               inkscape:connector-curvature="0"
               style="stroke:none"
               d="m 1.71875,-3.984375 1.4375,0 0,-0.3125 -1.4375,0 0,-1.828125 -0.25,0 c 0,0.8125 -0.296875,1.875 -1.28125,1.921875 l 0,0.21875 0.84375,0 0,2.75 c 0,1.21875 0.9375,1.34375 1.296875,1.34375 0.703125,0 0.984375,-0.703125 0.984375,-1.34375 l 0,-0.5625 -0.25,0 0,0.546875 c 0,0.734375 -0.296875,1.109375 -0.671875,1.109375 -0.671875,0 -0.671875,-0.90625 -0.671875,-1.078125 z m 0,0"
               id="path3058" />
          </symbol>
        </g>
      </defs>
      <g
         id="textext-7e2d2c62-8"
         style="fill:#d40000;fill-opacity:1">
        <g
           style="fill:#d40000;fill-opacity:1"
           id="g3061">
          <use
             height="1052.3622"
             width="744.09448"
             xlink:href="#textext-7e2d2c62-0"
             x="223.43201"
             y="134.765"
             id="use3063"
             style="fill:#d40000;fill-opacity:1" />
          <use
             height="1052.3622"
             width="744.09448"
             xlink:href="#textext-7e2d2c62-1"
             x="229.52014"
             y="134.765"
             id="use3065"
             style="fill:#d40000;fill-opacity:1" />
          <use
             height="1052.3622"
             width="744.09448"
             xlink:href="#textext-7e2d2c62-2"
             x="235.05536"
             y="134.765"
             id="use3067"
             style="fill:#d40000;fill-opacity:1" />
          <use
             height="1052.3622"
             width="744.09448"
             xlink:href="#textext-7e2d2c62-3"
             x="240.03667"
             y="134.765"
             id="use3069"
             style="fill:#d40000;fill-opacity:1" />
          <use
             height="1052.3622"
             width="744.09448"
             xlink:href="#textext-7e2d2c62-4"
             x="245.29492"
             y="134.765"
             id="use3071"
             style="fill:#d40000;fill-opacity:1" />
          <use
             height="1052.3622"
             width="744.09448"
             xlink:href="#textext-7e2d2c62-5"
             x="249.19728"
             y="134.765"
             id="use3073"
             style="fill:#d40000;fill-opacity:1" />
          <use
             height="1052.3622"
             width="744.09448"
             xlink:href="#textext-7e2d2c62-6"
             x="254.17857"
             y="134.765"
             id="use3075"
             style="fill:#d40000;fill-opacity:1" />
          <use
             height="1052.3622"
             width="744.09448"
             xlink:href="#textext-7e2d2c62-7"
             x="257.22314"
             y="134.765"
             id="use3077"
             style="fill:#d40000;fill-opacity:1" />
        </g>
      </g>
    </g>
    <g
       id="g3243"
       transform="matrix(2.9277108,0,0,2.9277108,-495.27432,214.40167)"
       ns0:preamble="/home/waldgeist/data/sphinx/test.tex"
       ns0:text="Gleitreibungskraft"
       style="fill:#d40000;fill-opacity:1"
       inkscape:export-filename="/home/waldgeist/data/pics/physik/Own/mechanik/dynamik/gleitreibung.png"
       inkscape:export-xdpi="150"
       inkscape:export-ydpi="150">
      <defs
         id="defs3245">
        <g
           id="g3247">
          <symbol
             id="textext-605c4ba7-0"
             overflow="visible"
             style="overflow:visible">
            <path
               id="path3250"
               d="m 5.90625,-0.625 c 0.140625,0.21875 0.53125,0.609375 0.640625,0.609375 0.09375,0 0.09375,-0.078125 0.09375,-0.21875 l 0,-1.734375 c 0,-0.390625 0.03125,-0.4375 0.6875,-0.4375 l 0,-0.3125 c -0.375,0 -0.921875,0.03125 -1.21875,0.03125 -0.390625,0 -1.25,0 -1.609375,-0.03125 l 0,0.3125 0.328125,0 C 5.71875,-2.40625 5.75,-2.296875 5.75,-1.9375 l 0,0.640625 c 0,1.125 -1.265625,1.203125 -1.546875,1.203125 -0.640625,0 -2.625,-0.34375 -2.625,-3.3125 0,-2.984375 1.96875,-3.3125 2.5625,-3.3125 1.078125,0 1.984375,0.890625 2.171875,2.359375 0.03125,0.140625 0.03125,0.171875 0.171875,0.171875 0.15625,0 0.15625,-0.03125 0.15625,-0.234375 l 0,-2.359375 c 0,-0.171875 0,-0.25 -0.109375,-0.25 -0.046875,0 -0.078125,0 -0.15625,0.125 l -0.5,0.734375 C 5.546875,-6.484375 5.015625,-7.03125 4.03125,-7.03125 c -1.859375,0 -3.46875,1.578125 -3.46875,3.625 0,2.046875 1.59375,3.625 3.484375,3.625 0.734375,0 1.53125,-0.265625 1.859375,-0.84375 z m 0,0"
               style="stroke:none"
               inkscape:connector-curvature="0" />
          </symbol>
          <symbol
             id="textext-605c4ba7-1"
             overflow="visible"
             style="overflow:visible">
            <path
               id="path3253"
               d="m 1.765625,-6.921875 -1.4375,0.109375 0,0.3125 c 0.703125,0 0.78125,0.0625 0.78125,0.5625 l 0,5.1875 c 0,0.4375 -0.109375,0.4375 -0.78125,0.4375 l 0,0.3125 C 0.65625,-0.015625 1.1875,-0.03125 1.4375,-0.03125 c 0.25,0 0.734375,0.015625 1.109375,0.03125 l 0,-0.3125 c -0.671875,0 -0.78125,0 -0.78125,-0.4375 z m 0,0"
               style="stroke:none"
               inkscape:connector-curvature="0" />
          </symbol>
          <symbol
             id="textext-605c4ba7-2"
             overflow="visible"
             style="overflow:visible">
            <path
               id="path3256"
               d="M 1.109375,-2.515625 C 1.171875,-4 2.015625,-4.25 2.359375,-4.25 c 1.015625,0 1.125,1.34375 1.125,1.734375 z m 0,0.21875 2.78125,0 c 0.21875,0 0.25,0 0.25,-0.21875 0,-0.984375 -0.546875,-1.953125 -1.78125,-1.953125 -1.15625,0 -2.078125,1.03125 -2.078125,2.28125 0,1.328125 1.046875,2.296875 2.1875,2.296875 C 3.6875,0.109375 4.140625,-1 4.140625,-1.1875 4.140625,-1.28125 4.0625,-1.3125 4,-1.3125 c -0.078125,0 -0.109375,0.0625 -0.125,0.140625 -0.34375,1.03125 -1.25,1.03125 -1.34375,1.03125 -0.5,0 -0.890625,-0.296875 -1.125,-0.671875 -0.296875,-0.46875 -0.296875,-1.125 -0.296875,-1.484375 z m 0,0"
               style="stroke:none"
               inkscape:connector-curvature="0" />
          </symbol>
          <symbol
             id="textext-605c4ba7-3"
             overflow="visible"
             style="overflow:visible">
            <path
               id="path3259"
               d="M 1.765625,-4.40625 0.375,-4.296875 l 0,0.3125 c 0.640625,0 0.734375,0.0625 0.734375,0.546875 l 0,2.6875 c 0,0.4375 -0.109375,0.4375 -0.78125,0.4375 l 0,0.3125 C 0.640625,-0.015625 1.1875,-0.03125 1.421875,-0.03125 1.78125,-0.03125 2.125,-0.015625 2.46875,0 l 0,-0.3125 c -0.671875,0 -0.703125,-0.046875 -0.703125,-0.4375 z m 0.03125,-1.734375 c 0,-0.3125 -0.234375,-0.53125 -0.515625,-0.53125 -0.3125,0 -0.53125,0.265625 -0.53125,0.53125 0,0.265625 0.21875,0.53125 0.53125,0.53125 0.28125,0 0.515625,-0.21875 0.515625,-0.53125 z m 0,0"
               style="stroke:none"
               inkscape:connector-curvature="0" />
          </symbol>
          <symbol
             id="textext-605c4ba7-4"
             overflow="visible"
             style="overflow:visible">
            <path
               id="path3262"
               d="m 1.71875,-3.984375 1.4375,0 0,-0.3125 -1.4375,0 0,-1.828125 -0.25,0 c 0,0.8125 -0.296875,1.875 -1.28125,1.921875 l 0,0.21875 0.84375,0 0,2.75 c 0,1.21875 0.9375,1.34375 1.296875,1.34375 0.703125,0 0.984375,-0.703125 0.984375,-1.34375 l 0,-0.5625 -0.25,0 0,0.546875 c 0,0.734375 -0.296875,1.109375 -0.671875,1.109375 -0.671875,0 -0.671875,-0.90625 -0.671875,-1.078125 z m 0,0"
               style="stroke:none"
               inkscape:connector-curvature="0" />
          </symbol>
          <symbol
             id="textext-605c4ba7-5"
             overflow="visible"
             style="overflow:visible">
            <path
               id="path3265"
               d="m 1.671875,-3.3125 0,-1.09375 -1.390625,0.109375 0,0.3125 c 0.703125,0 0.78125,0.0625 0.78125,0.5625 l 0,2.671875 c 0,0.4375 -0.109375,0.4375 -0.78125,0.4375 l 0,0.3125 c 0.390625,-0.015625 0.859375,-0.03125 1.140625,-0.03125 0.390625,0 0.859375,0 1.265625,0.03125 l 0,-0.3125 -0.21875,0 c -0.734375,0 -0.75,-0.109375 -0.75,-0.46875 l 0,-1.53125 c 0,-0.984375 0.421875,-1.875 1.171875,-1.875 0.0625,0 0.09375,0 0.109375,0.015625 -0.03125,0 -0.234375,0.125 -0.234375,0.390625 0,0.265625 0.21875,0.421875 0.4375,0.421875 0.171875,0 0.421875,-0.125 0.421875,-0.4375 0,-0.3125 -0.3125,-0.609375 -0.734375,-0.609375 -0.734375,0 -1.09375,0.671875 -1.21875,1.09375 z m 0,0"
               style="stroke:none"
               inkscape:connector-curvature="0" />
          </symbol>
          <symbol
             id="textext-605c4ba7-6"
             overflow="visible"
             style="overflow:visible">
            <path
               id="path3268"
               d="m 1.71875,-3.765625 0,-3.15625 -1.4375,0.109375 0,0.3125 c 0.703125,0 0.78125,0.0625 0.78125,0.5625 l 0,5.9375 0.25,0 c 0,-0.015625 0.078125,-0.15625 0.359375,-0.625 0.140625,0.234375 0.5625,0.734375 1.296875,0.734375 1.1875,0 2.21875,-0.984375 2.21875,-2.265625 0,-1.265625 -0.96875,-2.25 -2.109375,-2.25 -0.78125,0 -1.203125,0.46875 -1.359375,0.640625 z m 0.03125,2.625 0,-2.046875 c 0,-0.1875 0,-0.203125 0.109375,-0.359375 C 2.25,-4.109375 2.796875,-4.1875 3.03125,-4.1875 c 0.453125,0 0.8125,0.265625 1.046875,0.640625 0.265625,0.40625 0.28125,0.96875 0.28125,1.390625 0,0.359375 -0.015625,0.953125 -0.296875,1.40625 -0.21875,0.3125 -0.59375,0.640625 -1.125,0.640625 -0.453125,0 -0.8125,-0.234375 -1.046875,-0.609375 C 1.75,-0.921875 1.75,-0.953125 1.75,-1.140625 z m 0,0"
               style="stroke:none"
               inkscape:connector-curvature="0" />
          </symbol>
          <symbol
             id="textext-605c4ba7-7"
             overflow="visible"
             style="overflow:visible">
            <path
               id="path3271"
               d="m 3.890625,-0.78125 0,0.890625 L 5.328125,0 l 0,-0.3125 C 4.640625,-0.3125 4.5625,-0.375 4.5625,-0.875 l 0,-3.53125 -1.46875,0.109375 0,0.3125 c 0.6875,0 0.78125,0.0625 0.78125,0.5625 l 0,1.765625 c 0,0.875 -0.484375,1.546875 -1.21875,1.546875 -0.828125,0 -0.875,-0.46875 -0.875,-0.984375 l 0,-3.3125 -1.46875,0.109375 0,0.3125 c 0.78125,0 0.78125,0.03125 0.78125,0.90625 l 0,1.5 c 0,0.78125 0,1.6875 1.515625,1.6875 0.5625,0 1,-0.28125 1.28125,-0.890625 z m 0,0"
               style="stroke:none"
               inkscape:connector-curvature="0" />
          </symbol>
          <symbol
             id="textext-605c4ba7-8"
             overflow="visible"
             style="overflow:visible">
            <path
               id="path3274"
               d="m 1.09375,-3.421875 0,2.671875 c 0,0.4375 -0.109375,0.4375 -0.78125,0.4375 l 0,0.3125 c 0.359375,-0.015625 0.859375,-0.03125 1.140625,-0.03125 0.25,0 0.765625,0.015625 1.109375,0.03125 l 0,-0.3125 c -0.671875,0 -0.78125,0 -0.78125,-0.4375 l 0,-1.84375 C 1.78125,-3.625 2.5,-4.1875 3.125,-4.1875 c 0.640625,0 0.75,0.53125 0.75,1.109375 l 0,2.328125 c 0,0.4375 -0.109375,0.4375 -0.78125,0.4375 l 0,0.3125 c 0.34375,-0.015625 0.859375,-0.03125 1.125,-0.03125 0.25,0 0.78125,0.015625 1.109375,0.03125 l 0,-0.3125 c -0.515625,0 -0.765625,0 -0.765625,-0.296875 l 0,-1.90625 c 0,-0.859375 0,-1.15625 -0.3125,-1.515625 -0.140625,-0.171875 -0.46875,-0.375 -1.046875,-0.375 C 2.46875,-4.40625 2,-3.984375 1.71875,-3.359375 l 0,-1.046875 -1.40625,0.109375 0,0.3125 c 0.703125,0 0.78125,0.0625 0.78125,0.5625 z m 0,0"
               style="stroke:none"
               inkscape:connector-curvature="0" />
          </symbol>
          <symbol
             id="textext-605c4ba7-9"
             overflow="visible"
             style="overflow:visible">
            <path
               id="path3277"
               d="m 2.21875,-1.71875 c -0.875,0 -0.875,-1 -0.875,-1.21875 0,-0.265625 0.015625,-0.59375 0.15625,-0.84375 0.078125,-0.109375 0.3125,-0.390625 0.71875,-0.390625 0.859375,0 0.859375,0.984375 0.859375,1.21875 0,0.265625 0,0.59375 -0.15625,0.84375 C 2.84375,-2 2.609375,-1.71875 2.21875,-1.71875 z M 1.0625,-1.328125 c 0,-0.03125 0,-0.265625 0.15625,-0.46875 0.390625,0.28125 0.8125,0.3125 1,0.3125 0.921875,0 1.609375,-0.6875 1.609375,-1.453125 0,-0.375 -0.15625,-0.734375 -0.40625,-0.96875 C 3.78125,-4.25 4.140625,-4.296875 4.3125,-4.296875 c 0.03125,0 0.078125,0 0.109375,0.015625 C 4.3125,-4.25 4.25,-4.140625 4.25,-4.015625 c 0,0.171875 0.140625,0.28125 0.296875,0.28125 0.09375,0 0.28125,-0.0625 0.28125,-0.296875 0,-0.171875 -0.109375,-0.484375 -0.5,-0.484375 -0.203125,0 -0.640625,0.0625 -1.0625,0.46875 C 2.84375,-4.375 2.4375,-4.40625 2.21875,-4.40625 c -0.9375,0 -1.625,0.6875 -1.625,1.453125 0,0.4375 0.21875,0.8125 0.46875,1.03125 -0.125,0.140625 -0.3125,0.46875 -0.3125,0.828125 0,0.3125 0.140625,0.6875 0.453125,0.890625 -0.609375,0.15625 -0.921875,0.59375 -0.921875,0.984375 0,0.71875 0.984375,1.265625 2.203125,1.265625 1.171875,0 2.203125,-0.5 2.203125,-1.28125 0,-0.34375 -0.125,-0.859375 -0.640625,-1.140625 -0.53125,-0.265625 -1.109375,-0.265625 -1.71875,-0.265625 -0.25,0 -0.671875,0 -0.75,-0.015625 C 1.265625,-0.703125 1.0625,-1 1.0625,-1.328125 z M 2.5,1.828125 c -1.015625,0 -1.703125,-0.515625 -1.703125,-1.046875 0,-0.453125 0.375,-0.828125 0.8125,-0.84375 l 0.59375,0 c 0.859375,0 1.96875,0 1.96875,0.84375 0,0.546875 -0.703125,1.046875 -1.671875,1.046875 z m 0,0"
               style="stroke:none"
               inkscape:connector-curvature="0" />
          </symbol>
          <symbol
             id="textext-605c4ba7-10"
             overflow="visible"
             style="overflow:visible">
            <path
               id="path3280"
               d="m 2.078125,-1.9375 c 0.21875,0.046875 1.03125,0.203125 1.03125,0.921875 0,0.5 -0.34375,0.90625 -1.125,0.90625 -0.84375,0 -1.203125,-0.5625 -1.390625,-1.421875 C 0.5625,-1.65625 0.5625,-1.6875 0.453125,-1.6875 c -0.125,0 -0.125,0.0625 -0.125,0.234375 l 0,1.328125 c 0,0.171875 0,0.234375 0.109375,0.234375 0.046875,0 0.0625,-0.015625 0.25,-0.203125 0.015625,-0.015625 0.015625,-0.03125 0.203125,-0.21875 0.4375,0.40625 0.890625,0.421875 1.09375,0.421875 1.140625,0 1.609375,-0.671875 1.609375,-1.390625 0,-0.515625 -0.296875,-0.828125 -0.421875,-0.9375 C 2.84375,-2.546875 2.453125,-2.625 2.03125,-2.703125 1.46875,-2.8125 0.8125,-2.9375 0.8125,-3.515625 c 0,-0.359375 0.25,-0.765625 1.109375,-0.765625 1.09375,0 1.15625,0.90625 1.171875,1.203125 0,0.09375 0.09375,0.09375 0.109375,0.09375 0.140625,0 0.140625,-0.046875 0.140625,-0.234375 l 0,-1.015625 c 0,-0.15625 0,-0.234375 -0.109375,-0.234375 -0.046875,0 -0.078125,0 -0.203125,0.125 -0.03125,0.03125 -0.125,0.125 -0.171875,0.15625 -0.375,-0.28125 -0.78125,-0.28125 -0.9375,-0.28125 -1.21875,0 -1.59375,0.671875 -1.59375,1.234375 0,0.34375 0.15625,0.625 0.421875,0.84375 0.328125,0.25 0.609375,0.3125 1.328125,0.453125 z m 0,0"
               style="stroke:none"
               inkscape:connector-curvature="0" />
          </symbol>
          <symbol
             id="textext-605c4ba7-11"
             overflow="visible"
             style="overflow:visible">
            <path
               id="path3283"
               d="m 1.0625,-0.75 c 0,0.4375 -0.109375,0.4375 -0.78125,0.4375 l 0,0.3125 c 0.328125,-0.015625 0.796875,-0.03125 1.078125,-0.03125 0.3125,0 0.703125,0.015625 1.109375,0.03125 l 0,-0.3125 c -0.671875,0 -0.78125,0 -0.78125,-0.4375 l 0,-1.03125 0.640625,-0.546875 c 0.765625,1.046875 1.1875,1.609375 1.1875,1.796875 0,0.1875 -0.171875,0.21875 -0.359375,0.21875 l 0,0.3125 c 0.265625,-0.015625 0.859375,-0.03125 1.078125,-0.03125 0.28125,0 0.578125,0.015625 0.859375,0.03125 l 0,-0.3125 c -0.375,0 -0.59375,0 -0.96875,-0.53125 L 2.859375,-2.625 c -0.015625,-0.015625 -0.0625,-0.078125 -0.0625,-0.109375 0,-0.03125 0.71875,-0.640625 0.8125,-0.71875 0.625,-0.5 1.046875,-0.53125 1.25,-0.53125 l 0,-0.3125 c -0.28125,0.03125 -0.40625,0.03125 -0.6875,0.03125 -0.359375,0 -0.984375,-0.015625 -1.125,-0.03125 l 0,0.3125 c 0.1875,0 0.296875,0.109375 0.296875,0.25 0,0.203125 -0.140625,0.3125 -0.21875,0.390625 l -1.40625,1.203125 0,-4.78125 -1.4375,0.109375 0,0.3125 c 0.703125,0 0.78125,0.0625 0.78125,0.5625 z m 0,0"
               style="stroke:none"
               inkscape:connector-curvature="0" />
          </symbol>
          <symbol
             id="textext-605c4ba7-12"
             overflow="visible"
             style="overflow:visible">
            <path
               id="path3286"
               d="m 3.3125,-0.75 c 0.046875,0.390625 0.3125,0.8125 0.78125,0.8125 0.21875,0 0.828125,-0.140625 0.828125,-0.953125 l 0,-0.5625 -0.25,0 0,0.5625 c 0,0.578125 -0.25,0.640625 -0.359375,0.640625 -0.328125,0 -0.375,-0.453125 -0.375,-0.5 l 0,-1.984375 c 0,-0.421875 0,-0.8125 -0.359375,-1.1875 C 3.1875,-4.3125 2.6875,-4.46875 2.21875,-4.46875 c -0.828125,0 -1.515625,0.46875 -1.515625,1.125 0,0.296875 0.203125,0.46875 0.46875,0.46875 0.28125,0 0.453125,-0.203125 0.453125,-0.453125 0,-0.125 -0.046875,-0.453125 -0.515625,-0.453125 C 1.390625,-4.140625 1.875,-4.25 2.1875,-4.25 c 0.5,0 1.0625,0.390625 1.0625,1.28125 l 0,0.359375 c -0.515625,0.03125 -1.203125,0.0625 -1.828125,0.359375 -0.75,0.34375 -1,0.859375 -1,1.296875 0,0.8125 0.96875,1.0625 1.59375,1.0625 0.65625,0 1.109375,-0.40625 1.296875,-0.859375 z M 3.25,-2.390625 l 0,1 c 0,0.9375 -0.71875,1.28125 -1.171875,1.28125 -0.484375,0 -0.890625,-0.34375 -0.890625,-0.84375 0,-0.546875 0.421875,-1.375 2.0625,-1.4375 z m 0,0"
               style="stroke:none"
               inkscape:connector-curvature="0" />
          </symbol>
          <symbol
             id="textext-605c4ba7-13"
             overflow="visible"
             style="overflow:visible">
            <path
               id="path3289"
               d="m 1.75,-4.296875 0,-1.15625 c 0,-0.875 0.46875,-1.359375 0.90625,-1.359375 0.03125,0 0.1875,0 0.328125,0.078125 C 2.875,-6.703125 2.6875,-6.5625 2.6875,-6.3125 c 0,0.21875 0.15625,0.421875 0.4375,0.421875 0.28125,0 0.4375,-0.203125 0.4375,-0.4375 0,-0.375 -0.375,-0.703125 -0.90625,-0.703125 -0.6875,0 -1.546875,0.53125 -1.546875,1.59375 l 0,1.140625 -0.78125,0 0,0.3125 0.78125,0 0,3.234375 c 0,0.4375 -0.109375,0.4375 -0.765625,0.4375 l 0,0.3125 c 0.390625,-0.015625 0.859375,-0.03125 1.125,-0.03125 0.40625,0 0.875,0 1.265625,0.03125 l 0,-0.3125 -0.203125,0 c -0.734375,0 -0.75,-0.109375 -0.75,-0.46875 l 0,-3.203125 1.125,0 0,-0.3125 z m 0,0"
               style="stroke:none"
               inkscape:connector-curvature="0" />
          </symbol>
        </g>
      </defs>
      <g
         id="textext-605c4ba7-14"
         style="fill:#d40000;fill-opacity:1">
        <g
           id="g3292"
           style="fill:#d40000;fill-opacity:1">
          <use
             id="use3294"
             y="134.765"
             x="223.43201"
             xlink:href="#textext-605c4ba7-0"
             width="744.09448"
             height="1052.3622"
             style="fill:#d40000;fill-opacity:1" />
          <use
             id="use3296"
             y="134.765"
             x="231.24965"
             xlink:href="#textext-605c4ba7-1"
             width="744.09448"
             height="1052.3622"
             style="fill:#d40000;fill-opacity:1" />
          <use
             id="use3298"
             y="134.765"
             x="234.01726"
             xlink:href="#textext-605c4ba7-2"
             width="744.09448"
             height="1052.3622"
             style="fill:#d40000;fill-opacity:1" />
          <use
             id="use3300"
             y="134.765"
             x="238.44464"
             xlink:href="#textext-605c4ba7-3"
             width="744.09448"
             height="1052.3622"
             style="fill:#d40000;fill-opacity:1" />
          <use
             id="use3302"
             y="134.765"
             x="241.21225"
             xlink:href="#textext-605c4ba7-4"
             width="744.09448"
             height="1052.3622"
             style="fill:#d40000;fill-opacity:1" />
          <use
             id="use3304"
             y="134.765"
             x="245.0867"
             xlink:href="#textext-605c4ba7-5"
             width="744.09448"
             height="1052.3622"
             style="fill:#d40000;fill-opacity:1" />
          <use
             id="use3306"
             y="134.765"
             x="248.98906"
             xlink:href="#textext-605c4ba7-2"
             width="744.09448"
             height="1052.3622"
             style="fill:#d40000;fill-opacity:1" />
          <use
             id="use3308"
             y="134.765"
             x="253.41644"
             xlink:href="#textext-605c4ba7-3"
             width="744.09448"
             height="1052.3622"
             style="fill:#d40000;fill-opacity:1" />
          <use
             id="use3310"
             y="134.765"
             x="256.18405"
             xlink:href="#textext-605c4ba7-6"
             width="744.09448"
             height="1052.3622"
             style="fill:#d40000;fill-opacity:1" />
          <use
             id="use3312"
             y="134.765"
             x="261.71927"
             xlink:href="#textext-605c4ba7-7"
             width="744.09448"
             height="1052.3622"
             style="fill:#d40000;fill-opacity:1" />
          <use
             id="use3314"
             y="134.765"
             x="267.25449"
             xlink:href="#textext-605c4ba7-8"
             width="744.09448"
             height="1052.3622"
             style="fill:#d40000;fill-opacity:1" />
          <use
             id="use3316"
             y="134.765"
             x="272.7897"
             xlink:href="#textext-605c4ba7-9"
             width="744.09448"
             height="1052.3622"
             style="fill:#d40000;fill-opacity:1" />
          <use
             id="use3318"
             y="134.765"
             x="277.771"
             xlink:href="#textext-605c4ba7-10"
             width="744.09448"
             height="1052.3622"
             style="fill:#d40000;fill-opacity:1" />
          <use
             id="use3320"
             y="134.765"
             x="281.70026"
             xlink:href="#textext-605c4ba7-11"
             width="744.09448"
             height="1052.3622"
             style="fill:#d40000;fill-opacity:1" />
          <use
             id="use3322"
             y="134.765"
             x="286.95853"
             xlink:href="#textext-605c4ba7-5"
             width="744.09448"
             height="1052.3622"
             style="fill:#d40000;fill-opacity:1" />
          <use
             id="use3324"
             y="134.765"
             x="290.86087"
             xlink:href="#textext-605c4ba7-12"
             width="744.09448"
             height="1052.3622"
             style="fill:#d40000;fill-opacity:1" />
          <use
             id="use3326"
             y="134.765"
             x="295.84216"
             xlink:href="#textext-605c4ba7-13"
             width="744.09448"
             height="1052.3622"
             style="fill:#d40000;fill-opacity:1" />
          <use
             id="use3328"
             y="134.765"
             x="298.88675"
             xlink:href="#textext-605c4ba7-4"
             width="744.09448"
             height="1052.3622"
             style="fill:#d40000;fill-opacity:1" />
        </g>
      </g>
    </g>
  </g>
</svg>
