<svg xmlns="http://www.w3.org/2000/svg" width="1052.362" height="744.094"><defs><filter height="1.96" y="-.48" width="1.96" x="-.48" id="a" color-interpolation-filters="sRGB"><feGaussianBlur stdDeviation="4.571"/></filter></defs><path d="M581.258 360.788c0 30.418-24.659 55.077-55.077 55.077s-55.077-24.66-55.077-55.077c0-30.418 24.659-55.077 55.077-55.077s55.077 24.659 55.077 55.077z" fill="#b3b3b3" stroke="#4d4d4d" stroke-width=".83812" stroke-linecap="square"/><path transform="matrix(.41906 0 0 .41906 382.502 192.77)" d="M301.429 350.934c0 6.311-5.117 11.428-11.429 11.428s-11.429-5.117-11.429-11.428c0-6.312 5.117-11.429 11.429-11.429s11.429 5.117 11.429 11.429z" fill="#fff" filter="url(#a)"/><path d="M380.72 422.866h290.923" fill="none" stroke="#000" stroke-width="10"/><path d="M227.705 394.469c0 30.418-24.66 55.077-55.077 55.077-30.418 0-55.077-24.659-55.077-55.077s24.659-55.077 55.077-55.077 55.077 24.659 55.077 55.077z" fill="#b3b3b3" stroke="#4d4d4d" stroke-width=".83812" stroke-linecap="square"/><path d="M301.429 350.934c0 6.311-5.117 11.428-11.429 11.428s-11.429-5.117-11.429-11.428c0-6.312 5.117-11.429 11.429-11.429s11.429 5.117 11.429 11.429z" transform="matrix(.41906 0 0 .41906 28.949 226.452)" fill="#fff" filter="url(#a)"/><path d="M27.166 422.866h78.73s29.103 32 66.732 32c37.628 0 66.73-32 66.73-32h78.732M734.273 422.866h78.73s29.103-32 66.732-32c37.628 0 66.73 32 66.73 32h78.731" fill="none" stroke="#000" stroke-width="10"/><g><path d="M934.811 330.37c0 30.418-24.658 55.077-55.077 55.077-30.418 0-55.077-24.659-55.077-55.077s24.66-55.077 55.077-55.077c30.419 0 55.077 24.659 55.077 55.077z" fill="#b3b3b3" stroke="#4d4d4d" stroke-width=".83812" stroke-linecap="square"/><path d="M301.429 350.934c0 6.311-5.117 11.428-11.429 11.428s-11.429-5.117-11.429-11.428c0-6.312 5.117-11.429 11.429-11.429s11.429 5.117 11.429 11.429z" transform="matrix(.41906 0 0 .41906 736.055 162.353)" fill="#fff" filter="url(#a)"/></g></svg>