<?xml version="1.0" encoding="UTF-8" standalone="no"?>
<!-- Created with Inkscape (http://www.inkscape.org/) -->

<svg
   xmlns:ns0="http://www.iki.fi/pav/software/textext/"
   xmlns:dc="http://purl.org/dc/elements/1.1/"
   xmlns:cc="http://creativecommons.org/ns#"
   xmlns:rdf="http://www.w3.org/1999/02/22-rdf-syntax-ns#"
   xmlns:svg="http://www.w3.org/2000/svg"
   xmlns="http://www.w3.org/2000/svg"
   xmlns:xlink="http://www.w3.org/1999/xlink"
   xmlns:sodipodi="http://sodipodi.sourceforge.net/DTD/sodipodi-0.dtd"
   xmlns:inkscape="http://www.inkscape.org/namespaces/inkscape"
   width="1052.3622"
   height="744.09448"
   id="svg6359"
   version="1.1"
   inkscape:version="0.48.4 r9939"
   sodipodi:docname="haftreibung.svg"
   inkscape:export-filename="/home/waldgeist/data/pics/physik/Own/mechanik/reibung/haftreibung.png"
   inkscape:export-xdpi="90"
   inkscape:export-ydpi="90">
  <title
     id="title5812">Haftreibung</title>
  <sodipodi:namedview
     id="base"
     pagecolor="#ffffff"
     bordercolor="#666666"
     borderopacity="1.0"
     inkscape:pageopacity="0.0"
     inkscape:pageshadow="2"
     inkscape:zoom="0.66855469"
     inkscape:cx="190.22544"
     inkscape:cy="693.2288"
     inkscape:document-units="px"
     inkscape:current-layer="layer1"
     showgrid="false"
     inkscape:window-width="1600"
     inkscape:window-height="1150"
     inkscape:window-x="0"
     inkscape:window-y="0"
     inkscape:window-maximized="1" />
  <defs
     id="defs6361" />
  <metadata
     id="metadata6364">
    <rdf:RDF>
      <cc:Work
         rdf:about="">
        <dc:format>image/svg+xml</dc:format>
        <dc:type
           rdf:resource="http://purl.org/dc/dcmitype/StillImage" />
        <dc:title>Haftreibung</dc:title>
        <cc:license
           rdf:resource="http://creativecommons.org/licenses/by-nc-sa/3.0/" />
        <dc:date>2011-09-08</dc:date>
        <dc:creator>
          <cc:Agent>
            <dc:title>Bernhard Grotz</dc:title>
          </cc:Agent>
        </dc:creator>
        <dc:rights>
          <cc:Agent>
            <dc:title>Bernhard Grotz</dc:title>
          </cc:Agent>
        </dc:rights>
        <dc:publisher>
          <cc:Agent>
            <dc:title>Bernhard Grotz</dc:title>
          </cc:Agent>
        </dc:publisher>
        <dc:language>de-DE</dc:language>
        <dc:subject>
          <rdf:Bag>
            <rdf:li>Physik</rdf:li>
            <rdf:li>Mechanik</rdf:li>
            <rdf:li>Dynamik</rdf:li>
            <rdf:li>Reibung</rdf:li>
            <rdf:li>Reibungskraft</rdf:li>
            <rdf:li>Haftreibung</rdf:li>
            <rdf:li>Rauhigkeit</rdf:li>
            <rdf:li>Zahnstange</rdf:li>
          </rdf:Bag>
        </dc:subject>
      </cc:Work>
      <cc:License
         rdf:about="http://creativecommons.org/licenses/by-nc-sa/3.0/">
        <cc:permits
           rdf:resource="http://creativecommons.org/ns#Reproduction" />
        <cc:permits
           rdf:resource="http://creativecommons.org/ns#Distribution" />
        <cc:requires
           rdf:resource="http://creativecommons.org/ns#Notice" />
        <cc:requires
           rdf:resource="http://creativecommons.org/ns#Attribution" />
        <cc:prohibits
           rdf:resource="http://creativecommons.org/ns#CommercialUse" />
        <cc:permits
           rdf:resource="http://creativecommons.org/ns#DerivativeWorks" />
        <cc:requires
           rdf:resource="http://creativecommons.org/ns#ShareAlike" />
      </cc:License>
    </rdf:RDF>
  </metadata>
  <g
     transform="translate(0,-308.2677)"
     id="layer1"
     inkscape:groupmode="layer"
     inkscape:label="Ebene 1">
    <rect
       style="fill:#ffffff;stroke:#ffffff;stroke-width:1;stroke-miterlimit:4;stroke-dasharray:none"
       id="rect6196"
       width="455.4913"
       height="226.37947"
       x="16.71114"
       y="567.12524"
       inkscape:export-filename="/home/waldgeist/data/homepage/pics/physik/mechanik/dynamik/haftreibung.png"
       inkscape:export-xdpi="150"
       inkscape:export-ydpi="150" />
    <path
       sodipodi:nodetypes="ccssssssssssssscscsssssssssssssssssscsssccc"
       inkscape:connector-curvature="0"
       id="path6043"
       d="m 48.602104,686.0293 c 0,0 -1.350217,0.17312 6.697848,-2.13545 4.781174,-2.30651 9.050383,-2.16564 13.954225,-1.26466 9.32446,1.71316 21.023333,3.50812 27.297247,1.81537 8.523886,-2.29979 7.889446,-5.45044 12.022046,-5.14193 2.12989,0.159 9.29862,2.78033 17.24003,2.7696 13.39557,-0.0181 12.15481,1.35065 14.92646,0.60032 1.64314,-0.44483 8.65013,-5.17985 11.20601,-5.72069 4.49172,-0.95046 8.33818,-4.21962 8.51959,-0.44487 2.07879,43.25551 5.44093,0.97728 7.35783,1.51359 1.91691,0.53632 3.425,4.09225 6.40686,4.84652 2.98186,0.75426 8.50814,-2.46769 10.09808,-1.9218 3.42237,1.17503 7.23565,2.05847 10.8159,1.12593 1.22659,-0.31948 7.04346,-3.6183 8.33314,-1.29895 0.71847,1.29209 6.0557,2.35926 8.40195,0.75949 2.10882,-1.43789 6.27164,-5.03857 9.08382,-4.57598 1.56219,1.35545 -0.20383,5.18076 4.86324,4.93494 l 10.78435,-0.52317 8.12695,-0.0122 c 6.03519,-0.009 5.14149,-3.66338 8.52949,-2.47968 2.92059,1.02039 5.45795,1.356 12.39207,1.63907 7.96069,0.32498 11.75904,0.2573 14.16044,-0.25231 1.93208,-0.41002 2.67412,3.53678 4.7825,4.04603 1.37257,0.33153 3.45404,-3.15163 4.62549,-2.93876 1.17144,0.21287 7.7226,-0.40267 9.32002,-0.0584 8.30855,1.79087 8.71958,3.19372 11.39809,2.17816 0.85196,-0.32302 7.04597,0.79251 8.96288,0.29642 1.91691,-0.4961 0.60231,-3.07242 1.88025,-3.54264 1.27794,-0.47021 4.17914,-4.22427 4.06617,-1.19949 -0.0365,0.97633 8.14537,1.18031 9.42331,0.86151 3.27943,-0.81811 6.24111,-3.2227 8.58402,-2.82287 1.06495,0.18174 4.24439,4.31487 6.62891,4.81965 3.90563,0.82679 4.16282,-2.70468 5.83893,-3.1684 3.8893,-1.07603 8.70638,1.77786 11.40807,3.31451 0.32205,0.18317 5.97374,-4.39666 7.68533,-1.04025 2.0332,3.9871 4.86118,4.86356 5.18067,5.06573 4.0542,2.56549 5.1933,-5.59718 10.3937,-6.80922 3.81658,8.50023 -6.79398,5.57249 19.29691,2.7775 4.99188,-0.53475 10.15108,2.90801 16.05268,3.31563 6.04295,0.4174 15.33808,11.86169 15.33808,1.57989 l 0,33.41534 -392.083586,0 z"
       style="fill:#666666;stroke:#000000;stroke-width:1.16176343;stroke-miterlimit:4;stroke-dasharray:none"
       inkscape:export-filename="/home/waldgeist/data/homepage/pics/physik/mechanik/dynamik/haftreibung.png"
       inkscape:export-xdpi="150"
       inkscape:export-ydpi="150" />
    <path
       sodipodi:nodetypes="cccsccccsccccsccscsssssssccccsssssccsscsccccccccc"
       inkscape:connector-curvature="0"
       id="path6043-0"
       d="m 72.690711,676.64763 c -0.948305,-0.14701 -5.160277,2.1157 -6.916555,1.98879 0,0 -8.850704,-1.85612 -12.358049,-2.38972 -3.780398,1.57698 -4.854386,6.89497 -5.161057,6.41027 -0.194417,-0.30729 0.718698,-42.37986 0.718698,-42.37986 l 391.313952,0 0,31.25354 c 0,0 -3.55724,12.89843 -5.94379,12.97742 -4.97582,-0.0996 -10.78313,0.56072 -14.76515,-1.35046 -1.97098,-0.94598 -3.69667,-4.03132 -4.01728,-4.03132 -1.89626,-1.87979 -1.16281,-2.93069 -3.77545,-6.12599 -2.06219,-0.8279 -3.31887,-4.53155 -4.1476,-3.21793 -1.0966,0.8672 -1.48131,4.72971 -2.72789,5.66683 -4.19301,1.07104 -5.97477,-5.01052 -9.6305,-5.85378 -4.29823,-0.99147 -10.79494,12.91066 -15.31899,15.1722 -2.97726,0.20967 -8.29906,-9.1681 -12.20607,-10.99987 -1.53946,0.72518 -3.28166,1.44002 -3.28166,1.44002 l -1.61837,-2.85502 c -7.41679,0.0508 -8.52526,-1.40709 -14.66822,-3.41709 -1.51069,-0.4943 -10.01155,4.1157 -15.10102,5.19476 -1.27793,0.27095 -3.04716,-4.43204 -4.85757,-4.43226 -2.96053,-3.6e-4 -4.91537,4.67993 -7.53457,3.54215 -1.39937,-0.60789 -8.92474,10.63971 -10.8883,10.09562 -2.89469,-0.80209 -5.81968,-14.39157 -7.28772,-13.50094 -5.15608,3.12808 -8.35669,7.85019 -10.59174,8.20535 -2.23506,0.35516 -3.39979,-3.32451 -5.51479,-5.10457 -0.99892,0.13958 -2.52257,3.3816 -5.20106,3.52995 -2.67849,0.14836 -6.86882,-2.82252 -8.67022,-2.29549 -3.67071,1.07394 -4.56209,2.85565 -6.0148,3.40024 -2.88127,0.2321 -4.86221,-2.52506 -9.78815,-3.61475 -4.36566,-0.96576 -14.40103,5.75703 -19.74509,6.44346 -2.85857,0.36717 -8.02917,-1.33399 -11.43223,-1.54349 -2.66238,-0.16391 -5.56174,-4.57467 -6.52019,-4.63167 -0.95846,-0.057 -6.47146,2.25393 -7.00393,2.04884 -0.53248,-0.20508 -0.98457,-2.76667 -3.45194,-2.97096 -2.97245,1.50034 -5.42639,3.99236 -8.80593,5.34378 -3.06386,-0.0375 -7.96092,0.83607 -11.11256,-0.13085 -3.75647,-1.15249 -5.50815,-2.30197 -12.5853,-1.3892 -2.71286,0.34989 -5.80015,-5.49221 -9.5422,-5.93709 -1.78489,1.70169 -2.64628,4.21962 -5.88131,3.13841 -3.10971,-1.03933 -3.31852,-1.74984 -7.32667,0.44527 -3.1723,-0.3124 -5.64437,-6.01036 -7.76101,-5.41442 -2.11664,0.59595 -5.53585,5.02604 -8.86068,6.19977 -3.32482,1.17373 -7.21759,-3.03771 -14.55489,-4.32033 -1.62302,-1.4612 -9.73885,5.80504 -11.32621,6.24193 -4.06049,1.31861 -10.17253,-1.17506 -13.888343,-0.22302 -1.614973,0.41377 -3.809187,3.09431 -3.768858,3.12588 0,0 -4.550945,0.14991 -9.501162,0.97931 -5.290741,-2.17031 -7.064028,-2.099 -10.977576,-4.71371 z"
       style="fill:#b3b3b3;stroke:#000000;stroke-width:1.16176343;stroke-miterlimit:4;stroke-dasharray:none"
       inkscape:export-filename="/home/waldgeist/data/homepage/pics/physik/mechanik/dynamik/haftreibung.png"
       inkscape:export-xdpi="150"
       inkscape:export-ydpi="150" />
    <rect
       y="567.12524"
       x="580.15973"
       height="226.37947"
       width="455.4913"
       id="rect6194"
       style="fill:#ffffff;stroke:#ffffff;stroke-width:1;stroke-miterlimit:4;stroke-dasharray:none"
       inkscape:export-filename="/home/waldgeist/data/homepage/pics/physik/mechanik/dynamik/haftreibung.png"
       inkscape:export-xdpi="150"
       inkscape:export-ydpi="150" />
    <g
       id="g3798"
       style="fill:#d40000;fill-opacity:1"
       transform="matrix(2.9277108,0,0,2.9277108,-58.731939,357.41554)"
       ns0:preamble="/home/waldgeist/data/sphinx/test.tex"
       ns0:text="Haftreibungskraft"
       inkscape:export-filename="/home/waldgeist/data/homepage/pics/physik/mechanik/dynamik/haftreibung.png"
       inkscape:export-xdpi="150"
       inkscape:export-ydpi="150">
      <defs
         id="defs3800">
        <g
           id="g3802">
          <symbol
             id="textext-ba45526e-0"
             overflow="visible"
             style="overflow:visible">
            <path
               id="path3805"
               d="M 6.109375,-6.03125 C 6.109375,-6.390625 6.125,-6.5 6.890625,-6.5 l 0.25,0 0,-0.3125 c -0.359375,0.03125 -1.09375,0.03125 -1.46875,0.03125 -0.375,0 -1.125,0 -1.46875,-0.03125 l 0,0.3125 0.234375,0 c 0.765625,0 0.78125,0.109375 0.78125,0.46875 l 0,2.328125 -2.96875,0 0,-2.328125 C 2.25,-6.390625 2.265625,-6.5 3.03125,-6.5 l 0.234375,0 0,-0.3125 c -0.34375,0.03125 -1.078125,0.03125 -1.46875,0.03125 -0.375,0 -1.125,0 -1.46875,-0.03125 l 0,0.3125 0.234375,0 c 0.765625,0 0.796875,0.109375 0.796875,0.46875 l 0,5.25 c 0,0.359375 -0.03125,0.46875 -0.796875,0.46875 l -0.234375,0 0,0.3125 c 0.34375,-0.03125 1.09375,-0.03125 1.46875,-0.03125 0.375,0 1.125,0 1.46875,0.03125 l 0,-0.3125 -0.234375,0 C 2.265625,-0.3125 2.25,-0.421875 2.25,-0.78125 l 0,-2.609375 2.96875,0 0,2.609375 c 0,0.359375 -0.015625,0.46875 -0.78125,0.46875 l -0.234375,0 0,0.3125 c 0.34375,-0.03125 1.078125,-0.03125 1.453125,-0.03125 0.390625,0 1.125,0 1.484375,0.03125 l 0,-0.3125 -0.25,0 c -0.765625,0 -0.78125,-0.109375 -0.78125,-0.46875 z m 0,0"
               style="stroke:none"
               inkscape:connector-curvature="0" />
          </symbol>
          <symbol
             id="textext-ba45526e-1"
             overflow="visible"
             style="overflow:visible">
            <path
               id="path3808"
               d="m 3.3125,-0.75 c 0.046875,0.390625 0.3125,0.8125 0.78125,0.8125 0.21875,0 0.828125,-0.140625 0.828125,-0.953125 l 0,-0.5625 -0.25,0 0,0.5625 c 0,0.578125 -0.25,0.640625 -0.359375,0.640625 -0.328125,0 -0.375,-0.453125 -0.375,-0.5 l 0,-1.984375 c 0,-0.421875 0,-0.8125 -0.359375,-1.1875 C 3.1875,-4.3125 2.6875,-4.46875 2.21875,-4.46875 c -0.828125,0 -1.515625,0.46875 -1.515625,1.125 0,0.296875 0.203125,0.46875 0.46875,0.46875 0.28125,0 0.453125,-0.203125 0.453125,-0.453125 0,-0.125 -0.046875,-0.453125 -0.515625,-0.453125 C 1.390625,-4.140625 1.875,-4.25 2.1875,-4.25 c 0.5,0 1.0625,0.390625 1.0625,1.28125 l 0,0.359375 c -0.515625,0.03125 -1.203125,0.0625 -1.828125,0.359375 -0.75,0.34375 -1,0.859375 -1,1.296875 0,0.8125 0.96875,1.0625 1.59375,1.0625 0.65625,0 1.109375,-0.40625 1.296875,-0.859375 z M 3.25,-2.390625 l 0,1 c 0,0.9375 -0.71875,1.28125 -1.171875,1.28125 -0.484375,0 -0.890625,-0.34375 -0.890625,-0.84375 0,-0.546875 0.421875,-1.375 2.0625,-1.4375 z m 0,0"
               style="stroke:none"
               inkscape:connector-curvature="0" />
          </symbol>
          <symbol
             id="textext-ba45526e-2"
             overflow="visible"
             style="overflow:visible">
            <path
               id="path3811"
               d="m 1.75,-4.296875 0,-1.15625 c 0,-0.875 0.46875,-1.359375 0.90625,-1.359375 0.03125,0 0.1875,0 0.328125,0.078125 C 2.875,-6.703125 2.6875,-6.5625 2.6875,-6.3125 c 0,0.21875 0.15625,0.421875 0.4375,0.421875 0.28125,0 0.4375,-0.203125 0.4375,-0.4375 0,-0.375 -0.375,-0.703125 -0.90625,-0.703125 -0.6875,0 -1.546875,0.53125 -1.546875,1.59375 l 0,1.140625 -0.78125,0 0,0.3125 0.78125,0 0,3.234375 c 0,0.4375 -0.109375,0.4375 -0.765625,0.4375 l 0,0.3125 c 0.390625,-0.015625 0.859375,-0.03125 1.125,-0.03125 0.40625,0 0.875,0 1.265625,0.03125 l 0,-0.3125 -0.203125,0 c -0.734375,0 -0.75,-0.109375 -0.75,-0.46875 l 0,-3.203125 1.125,0 0,-0.3125 z m 0,0"
               style="stroke:none"
               inkscape:connector-curvature="0" />
          </symbol>
          <symbol
             id="textext-ba45526e-3"
             overflow="visible"
             style="overflow:visible">
            <path
               id="path3814"
               d="m 1.71875,-3.984375 1.4375,0 0,-0.3125 -1.4375,0 0,-1.828125 -0.25,0 c 0,0.8125 -0.296875,1.875 -1.28125,1.921875 l 0,0.21875 0.84375,0 0,2.75 c 0,1.21875 0.9375,1.34375 1.296875,1.34375 0.703125,0 0.984375,-0.703125 0.984375,-1.34375 l 0,-0.5625 -0.25,0 0,0.546875 c 0,0.734375 -0.296875,1.109375 -0.671875,1.109375 -0.671875,0 -0.671875,-0.90625 -0.671875,-1.078125 z m 0,0"
               style="stroke:none"
               inkscape:connector-curvature="0" />
          </symbol>
          <symbol
             id="textext-ba45526e-4"
             overflow="visible"
             style="overflow:visible">
            <path
               id="path3817"
               d="m 1.671875,-3.3125 0,-1.09375 -1.390625,0.109375 0,0.3125 c 0.703125,0 0.78125,0.0625 0.78125,0.5625 l 0,2.671875 c 0,0.4375 -0.109375,0.4375 -0.78125,0.4375 l 0,0.3125 c 0.390625,-0.015625 0.859375,-0.03125 1.140625,-0.03125 0.390625,0 0.859375,0 1.265625,0.03125 l 0,-0.3125 -0.21875,0 c -0.734375,0 -0.75,-0.109375 -0.75,-0.46875 l 0,-1.53125 c 0,-0.984375 0.421875,-1.875 1.171875,-1.875 0.0625,0 0.09375,0 0.109375,0.015625 -0.03125,0 -0.234375,0.125 -0.234375,0.390625 0,0.265625 0.21875,0.421875 0.4375,0.421875 0.171875,0 0.421875,-0.125 0.421875,-0.4375 0,-0.3125 -0.3125,-0.609375 -0.734375,-0.609375 -0.734375,0 -1.09375,0.671875 -1.21875,1.09375 z m 0,0"
               style="stroke:none"
               inkscape:connector-curvature="0" />
          </symbol>
          <symbol
             id="textext-ba45526e-5"
             overflow="visible"
             style="overflow:visible">
            <path
               id="path3820"
               d="M 1.109375,-2.515625 C 1.171875,-4 2.015625,-4.25 2.359375,-4.25 c 1.015625,0 1.125,1.34375 1.125,1.734375 z m 0,0.21875 2.78125,0 c 0.21875,0 0.25,0 0.25,-0.21875 0,-0.984375 -0.546875,-1.953125 -1.78125,-1.953125 -1.15625,0 -2.078125,1.03125 -2.078125,2.28125 0,1.328125 1.046875,2.296875 2.1875,2.296875 C 3.6875,0.109375 4.140625,-1 4.140625,-1.1875 4.140625,-1.28125 4.0625,-1.3125 4,-1.3125 c -0.078125,0 -0.109375,0.0625 -0.125,0.140625 -0.34375,1.03125 -1.25,1.03125 -1.34375,1.03125 -0.5,0 -0.890625,-0.296875 -1.125,-0.671875 -0.296875,-0.46875 -0.296875,-1.125 -0.296875,-1.484375 z m 0,0"
               style="stroke:none"
               inkscape:connector-curvature="0" />
          </symbol>
          <symbol
             id="textext-ba45526e-6"
             overflow="visible"
             style="overflow:visible">
            <path
               id="path3823"
               d="M 1.765625,-4.40625 0.375,-4.296875 l 0,0.3125 c 0.640625,0 0.734375,0.0625 0.734375,0.546875 l 0,2.6875 c 0,0.4375 -0.109375,0.4375 -0.78125,0.4375 l 0,0.3125 C 0.640625,-0.015625 1.1875,-0.03125 1.421875,-0.03125 1.78125,-0.03125 2.125,-0.015625 2.46875,0 l 0,-0.3125 c -0.671875,0 -0.703125,-0.046875 -0.703125,-0.4375 z m 0.03125,-1.734375 c 0,-0.3125 -0.234375,-0.53125 -0.515625,-0.53125 -0.3125,0 -0.53125,0.265625 -0.53125,0.53125 0,0.265625 0.21875,0.53125 0.53125,0.53125 0.28125,0 0.515625,-0.21875 0.515625,-0.53125 z m 0,0"
               style="stroke:none"
               inkscape:connector-curvature="0" />
          </symbol>
          <symbol
             id="textext-ba45526e-7"
             overflow="visible"
             style="overflow:visible">
            <path
               id="path3826"
               d="m 1.71875,-3.765625 0,-3.15625 -1.4375,0.109375 0,0.3125 c 0.703125,0 0.78125,0.0625 0.78125,0.5625 l 0,5.9375 0.25,0 c 0,-0.015625 0.078125,-0.15625 0.359375,-0.625 0.140625,0.234375 0.5625,0.734375 1.296875,0.734375 1.1875,0 2.21875,-0.984375 2.21875,-2.265625 0,-1.265625 -0.96875,-2.25 -2.109375,-2.25 -0.78125,0 -1.203125,0.46875 -1.359375,0.640625 z m 0.03125,2.625 0,-2.046875 c 0,-0.1875 0,-0.203125 0.109375,-0.359375 C 2.25,-4.109375 2.796875,-4.1875 3.03125,-4.1875 c 0.453125,0 0.8125,0.265625 1.046875,0.640625 0.265625,0.40625 0.28125,0.96875 0.28125,1.390625 0,0.359375 -0.015625,0.953125 -0.296875,1.40625 -0.21875,0.3125 -0.59375,0.640625 -1.125,0.640625 -0.453125,0 -0.8125,-0.234375 -1.046875,-0.609375 C 1.75,-0.921875 1.75,-0.953125 1.75,-1.140625 z m 0,0"
               style="stroke:none"
               inkscape:connector-curvature="0" />
          </symbol>
          <symbol
             id="textext-ba45526e-8"
             overflow="visible"
             style="overflow:visible">
            <path
               id="path3829"
               d="m 3.890625,-0.78125 0,0.890625 L 5.328125,0 l 0,-0.3125 C 4.640625,-0.3125 4.5625,-0.375 4.5625,-0.875 l 0,-3.53125 -1.46875,0.109375 0,0.3125 c 0.6875,0 0.78125,0.0625 0.78125,0.5625 l 0,1.765625 c 0,0.875 -0.484375,1.546875 -1.21875,1.546875 -0.828125,0 -0.875,-0.46875 -0.875,-0.984375 l 0,-3.3125 -1.46875,0.109375 0,0.3125 c 0.78125,0 0.78125,0.03125 0.78125,0.90625 l 0,1.5 c 0,0.78125 0,1.6875 1.515625,1.6875 0.5625,0 1,-0.28125 1.28125,-0.890625 z m 0,0"
               style="stroke:none"
               inkscape:connector-curvature="0" />
          </symbol>
          <symbol
             id="textext-ba45526e-9"
             overflow="visible"
             style="overflow:visible">
            <path
               id="path3832"
               d="m 1.09375,-3.421875 0,2.671875 c 0,0.4375 -0.109375,0.4375 -0.78125,0.4375 l 0,0.3125 c 0.359375,-0.015625 0.859375,-0.03125 1.140625,-0.03125 0.25,0 0.765625,0.015625 1.109375,0.03125 l 0,-0.3125 c -0.671875,0 -0.78125,0 -0.78125,-0.4375 l 0,-1.84375 C 1.78125,-3.625 2.5,-4.1875 3.125,-4.1875 c 0.640625,0 0.75,0.53125 0.75,1.109375 l 0,2.328125 c 0,0.4375 -0.109375,0.4375 -0.78125,0.4375 l 0,0.3125 c 0.34375,-0.015625 0.859375,-0.03125 1.125,-0.03125 0.25,0 0.78125,0.015625 1.109375,0.03125 l 0,-0.3125 c -0.515625,0 -0.765625,0 -0.765625,-0.296875 l 0,-1.90625 c 0,-0.859375 0,-1.15625 -0.3125,-1.515625 -0.140625,-0.171875 -0.46875,-0.375 -1.046875,-0.375 C 2.46875,-4.40625 2,-3.984375 1.71875,-3.359375 l 0,-1.046875 -1.40625,0.109375 0,0.3125 c 0.703125,0 0.78125,0.0625 0.78125,0.5625 z m 0,0"
               style="stroke:none"
               inkscape:connector-curvature="0" />
          </symbol>
          <symbol
             id="textext-ba45526e-10"
             overflow="visible"
             style="overflow:visible">
            <path
               id="path3835"
               d="m 2.21875,-1.71875 c -0.875,0 -0.875,-1 -0.875,-1.21875 0,-0.265625 0.015625,-0.59375 0.15625,-0.84375 0.078125,-0.109375 0.3125,-0.390625 0.71875,-0.390625 0.859375,0 0.859375,0.984375 0.859375,1.21875 0,0.265625 0,0.59375 -0.15625,0.84375 C 2.84375,-2 2.609375,-1.71875 2.21875,-1.71875 z M 1.0625,-1.328125 c 0,-0.03125 0,-0.265625 0.15625,-0.46875 0.390625,0.28125 0.8125,0.3125 1,0.3125 0.921875,0 1.609375,-0.6875 1.609375,-1.453125 0,-0.375 -0.15625,-0.734375 -0.40625,-0.96875 C 3.78125,-4.25 4.140625,-4.296875 4.3125,-4.296875 c 0.03125,0 0.078125,0 0.109375,0.015625 C 4.3125,-4.25 4.25,-4.140625 4.25,-4.015625 c 0,0.171875 0.140625,0.28125 0.296875,0.28125 0.09375,0 0.28125,-0.0625 0.28125,-0.296875 0,-0.171875 -0.109375,-0.484375 -0.5,-0.484375 -0.203125,0 -0.640625,0.0625 -1.0625,0.46875 C 2.84375,-4.375 2.4375,-4.40625 2.21875,-4.40625 c -0.9375,0 -1.625,0.6875 -1.625,1.453125 0,0.4375 0.21875,0.8125 0.46875,1.03125 -0.125,0.140625 -0.3125,0.46875 -0.3125,0.828125 0,0.3125 0.140625,0.6875 0.453125,0.890625 -0.609375,0.15625 -0.921875,0.59375 -0.921875,0.984375 0,0.71875 0.984375,1.265625 2.203125,1.265625 1.171875,0 2.203125,-0.5 2.203125,-1.28125 0,-0.34375 -0.125,-0.859375 -0.640625,-1.140625 -0.53125,-0.265625 -1.109375,-0.265625 -1.71875,-0.265625 -0.25,0 -0.671875,0 -0.75,-0.015625 C 1.265625,-0.703125 1.0625,-1 1.0625,-1.328125 z M 2.5,1.828125 c -1.015625,0 -1.703125,-0.515625 -1.703125,-1.046875 0,-0.453125 0.375,-0.828125 0.8125,-0.84375 l 0.59375,0 c 0.859375,0 1.96875,0 1.96875,0.84375 0,0.546875 -0.703125,1.046875 -1.671875,1.046875 z m 0,0"
               style="stroke:none"
               inkscape:connector-curvature="0" />
          </symbol>
          <symbol
             id="textext-ba45526e-11"
             overflow="visible"
             style="overflow:visible">
            <path
               id="path3838"
               d="m 2.078125,-1.9375 c 0.21875,0.046875 1.03125,0.203125 1.03125,0.921875 0,0.5 -0.34375,0.90625 -1.125,0.90625 -0.84375,0 -1.203125,-0.5625 -1.390625,-1.421875 C 0.5625,-1.65625 0.5625,-1.6875 0.453125,-1.6875 c -0.125,0 -0.125,0.0625 -0.125,0.234375 l 0,1.328125 c 0,0.171875 0,0.234375 0.109375,0.234375 0.046875,0 0.0625,-0.015625 0.25,-0.203125 0.015625,-0.015625 0.015625,-0.03125 0.203125,-0.21875 0.4375,0.40625 0.890625,0.421875 1.09375,0.421875 1.140625,0 1.609375,-0.671875 1.609375,-1.390625 0,-0.515625 -0.296875,-0.828125 -0.421875,-0.9375 C 2.84375,-2.546875 2.453125,-2.625 2.03125,-2.703125 1.46875,-2.8125 0.8125,-2.9375 0.8125,-3.515625 c 0,-0.359375 0.25,-0.765625 1.109375,-0.765625 1.09375,0 1.15625,0.90625 1.171875,1.203125 0,0.09375 0.09375,0.09375 0.109375,0.09375 0.140625,0 0.140625,-0.046875 0.140625,-0.234375 l 0,-1.015625 c 0,-0.15625 0,-0.234375 -0.109375,-0.234375 -0.046875,0 -0.078125,0 -0.203125,0.125 -0.03125,0.03125 -0.125,0.125 -0.171875,0.15625 -0.375,-0.28125 -0.78125,-0.28125 -0.9375,-0.28125 -1.21875,0 -1.59375,0.671875 -1.59375,1.234375 0,0.34375 0.15625,0.625 0.421875,0.84375 0.328125,0.25 0.609375,0.3125 1.328125,0.453125 z m 0,0"
               style="stroke:none"
               inkscape:connector-curvature="0" />
          </symbol>
          <symbol
             id="textext-ba45526e-12"
             overflow="visible"
             style="overflow:visible">
            <path
               id="path3841"
               d="m 1.0625,-0.75 c 0,0.4375 -0.109375,0.4375 -0.78125,0.4375 l 0,0.3125 c 0.328125,-0.015625 0.796875,-0.03125 1.078125,-0.03125 0.3125,0 0.703125,0.015625 1.109375,0.03125 l 0,-0.3125 c -0.671875,0 -0.78125,0 -0.78125,-0.4375 l 0,-1.03125 0.640625,-0.546875 c 0.765625,1.046875 1.1875,1.609375 1.1875,1.796875 0,0.1875 -0.171875,0.21875 -0.359375,0.21875 l 0,0.3125 c 0.265625,-0.015625 0.859375,-0.03125 1.078125,-0.03125 0.28125,0 0.578125,0.015625 0.859375,0.03125 l 0,-0.3125 c -0.375,0 -0.59375,0 -0.96875,-0.53125 L 2.859375,-2.625 c -0.015625,-0.015625 -0.0625,-0.078125 -0.0625,-0.109375 0,-0.03125 0.71875,-0.640625 0.8125,-0.71875 0.625,-0.5 1.046875,-0.53125 1.25,-0.53125 l 0,-0.3125 c -0.28125,0.03125 -0.40625,0.03125 -0.6875,0.03125 -0.359375,0 -0.984375,-0.015625 -1.125,-0.03125 l 0,0.3125 c 0.1875,0 0.296875,0.109375 0.296875,0.25 0,0.203125 -0.140625,0.3125 -0.21875,0.390625 l -1.40625,1.203125 0,-4.78125 -1.4375,0.109375 0,0.3125 c 0.703125,0 0.78125,0.0625 0.78125,0.5625 z m 0,0"
               style="stroke:none"
               inkscape:connector-curvature="0" />
          </symbol>
        </g>
      </defs>
      <g
         id="textext-ba45526e-13"
         style="fill:#d40000;fill-opacity:1">
        <g
           id="g3844"
           style="fill:#d40000;fill-opacity:1">
          <use
             id="use3846"
             y="134.765"
             x="223.43201"
             xlink:href="#textext-ba45526e-0"
             width="1052.3622"
             height="744.09448"
             style="fill:#d40000;fill-opacity:1" />
          <use
             id="use3848"
             y="134.765"
             x="230.90395"
             xlink:href="#textext-ba45526e-1"
             width="1052.3622"
             height="744.09448"
             style="fill:#d40000;fill-opacity:1" />
          <use
             id="use3850"
             y="134.765"
             x="235.88525"
             xlink:href="#textext-ba45526e-2"
             width="1052.3622"
             height="744.09448"
             style="fill:#d40000;fill-opacity:1" />
          <use
             id="use3852"
             y="134.765"
             x="238.92982"
             xlink:href="#textext-ba45526e-3"
             width="1052.3622"
             height="744.09448"
             style="fill:#d40000;fill-opacity:1" />
          <use
             id="use3854"
             y="134.765"
             x="242.80428"
             xlink:href="#textext-ba45526e-4"
             width="1052.3622"
             height="744.09448"
             style="fill:#d40000;fill-opacity:1" />
          <use
             id="use3856"
             y="134.765"
             x="246.70662"
             xlink:href="#textext-ba45526e-5"
             width="1052.3622"
             height="744.09448"
             style="fill:#d40000;fill-opacity:1" />
          <use
             id="use3858"
             y="134.765"
             x="251.134"
             xlink:href="#textext-ba45526e-6"
             width="1052.3622"
             height="744.09448"
             style="fill:#d40000;fill-opacity:1" />
          <use
             id="use3860"
             y="134.765"
             x="253.90161"
             xlink:href="#textext-ba45526e-7"
             width="1052.3622"
             height="744.09448"
             style="fill:#d40000;fill-opacity:1" />
          <use
             id="use3862"
             y="134.765"
             x="259.43683"
             xlink:href="#textext-ba45526e-8"
             width="1052.3622"
             height="744.09448"
             style="fill:#d40000;fill-opacity:1" />
          <use
             id="use3864"
             y="134.765"
             x="264.97205"
             xlink:href="#textext-ba45526e-9"
             width="1052.3622"
             height="744.09448"
             style="fill:#d40000;fill-opacity:1" />
          <use
             id="use3866"
             y="134.765"
             x="270.50726"
             xlink:href="#textext-ba45526e-10"
             width="1052.3622"
             height="744.09448"
             style="fill:#d40000;fill-opacity:1" />
          <use
             id="use3868"
             y="134.765"
             x="275.48859"
             xlink:href="#textext-ba45526e-11"
             width="1052.3622"
             height="744.09448"
             style="fill:#d40000;fill-opacity:1" />
          <use
             id="use3870"
             y="134.765"
             x="279.41782"
             xlink:href="#textext-ba45526e-12"
             width="1052.3622"
             height="744.09448"
             style="fill:#d40000;fill-opacity:1" />
          <use
             id="use3872"
             y="134.765"
             x="284.67609"
             xlink:href="#textext-ba45526e-4"
             width="1052.3622"
             height="744.09448"
             style="fill:#d40000;fill-opacity:1" />
          <use
             id="use3874"
             y="134.765"
             x="288.57843"
             xlink:href="#textext-ba45526e-1"
             width="1052.3622"
             height="744.09448"
             style="fill:#d40000;fill-opacity:1" />
          <use
             id="use3876"
             y="134.765"
             x="293.55972"
             xlink:href="#textext-ba45526e-2"
             width="1052.3622"
             height="744.09448"
             style="fill:#d40000;fill-opacity:1" />
          <use
             id="use3878"
             y="134.765"
             x="296.60431"
             xlink:href="#textext-ba45526e-3"
             width="1052.3622"
             height="744.09448"
             style="fill:#d40000;fill-opacity:1" />
        </g>
      </g>
    </g>
    <g
       transform="matrix(2.9277108,0,0,2.9277108,162.5466,228.70126)"
       ns0:text="Zugkraft"
       ns0:preamble="/home/waldgeist/data/sphinx/test.tex"
       id="g3030"
       style="fill:#d40000;fill-opacity:1"
       inkscape:export-filename="/home/waldgeist/data/homepage/pics/physik/mechanik/dynamik/haftreibung.png"
       inkscape:export-xdpi="150"
       inkscape:export-ydpi="150">
      <defs
         id="defs3032">
        <g
           id="g3034">
          <symbol
             style="overflow:visible"
             overflow="visible"
             id="textext-7e2d2c62-0">
            <path
               inkscape:connector-curvature="0"
               style="stroke:none"
               d="m 5.453125,-6.453125 c 0.0625,-0.109375 0.0625,-0.125 0.0625,-0.203125 0,-0.15625 -0.046875,-0.15625 -0.25,-0.15625 l -4.46875,0 -0.109375,2.25 0.25,0 C 1,-5.6875 1.3125,-6.5 2.9375,-6.5 L 4.5,-6.5 0.625,-0.375 C 0.5625,-0.265625 0.5625,-0.25 0.5625,-0.171875 0.5625,0 0.609375,0 0.8125,0 l 4.59375,0 0.171875,-2.65625 -0.25,0 C 5.25,-1.28125 5.0625,-0.34375 3.21875,-0.34375 l -1.640625,0 z m 0,0"
               id="path3037" />
          </symbol>
          <symbol
             style="overflow:visible"
             overflow="visible"
             id="textext-7e2d2c62-1">
            <path
               inkscape:connector-curvature="0"
               style="stroke:none"
               d="m 3.890625,-0.78125 0,0.890625 L 5.328125,0 l 0,-0.3125 C 4.640625,-0.3125 4.5625,-0.375 4.5625,-0.875 l 0,-3.53125 -1.46875,0.109375 0,0.3125 c 0.6875,0 0.78125,0.0625 0.78125,0.5625 l 0,1.765625 c 0,0.875 -0.484375,1.546875 -1.21875,1.546875 -0.828125,0 -0.875,-0.46875 -0.875,-0.984375 l 0,-3.3125 -1.46875,0.109375 0,0.3125 c 0.78125,0 0.78125,0.03125 0.78125,0.90625 l 0,1.5 c 0,0.78125 0,1.6875 1.515625,1.6875 0.5625,0 1,-0.28125 1.28125,-0.890625 z m 0,0"
               id="path3040" />
          </symbol>
          <symbol
             style="overflow:visible"
             overflow="visible"
             id="textext-7e2d2c62-2">
            <path
               inkscape:connector-curvature="0"
               style="stroke:none"
               d="m 2.21875,-1.71875 c -0.875,0 -0.875,-1 -0.875,-1.21875 0,-0.265625 0.015625,-0.59375 0.15625,-0.84375 0.078125,-0.109375 0.3125,-0.390625 0.71875,-0.390625 0.859375,0 0.859375,0.984375 0.859375,1.21875 0,0.265625 0,0.59375 -0.15625,0.84375 C 2.84375,-2 2.609375,-1.71875 2.21875,-1.71875 z M 1.0625,-1.328125 c 0,-0.03125 0,-0.265625 0.15625,-0.46875 0.390625,0.28125 0.8125,0.3125 1,0.3125 0.921875,0 1.609375,-0.6875 1.609375,-1.453125 0,-0.375 -0.15625,-0.734375 -0.40625,-0.96875 C 3.78125,-4.25 4.140625,-4.296875 4.3125,-4.296875 c 0.03125,0 0.078125,0 0.109375,0.015625 C 4.3125,-4.25 4.25,-4.140625 4.25,-4.015625 c 0,0.171875 0.140625,0.28125 0.296875,0.28125 0.09375,0 0.28125,-0.0625 0.28125,-0.296875 0,-0.171875 -0.109375,-0.484375 -0.5,-0.484375 -0.203125,0 -0.640625,0.0625 -1.0625,0.46875 C 2.84375,-4.375 2.4375,-4.40625 2.21875,-4.40625 c -0.9375,0 -1.625,0.6875 -1.625,1.453125 0,0.4375 0.21875,0.8125 0.46875,1.03125 -0.125,0.140625 -0.3125,0.46875 -0.3125,0.828125 0,0.3125 0.140625,0.6875 0.453125,0.890625 -0.609375,0.15625 -0.921875,0.59375 -0.921875,0.984375 0,0.71875 0.984375,1.265625 2.203125,1.265625 1.171875,0 2.203125,-0.5 2.203125,-1.28125 0,-0.34375 -0.125,-0.859375 -0.640625,-1.140625 -0.53125,-0.265625 -1.109375,-0.265625 -1.71875,-0.265625 -0.25,0 -0.671875,0 -0.75,-0.015625 C 1.265625,-0.703125 1.0625,-1 1.0625,-1.328125 z M 2.5,1.828125 c -1.015625,0 -1.703125,-0.515625 -1.703125,-1.046875 0,-0.453125 0.375,-0.828125 0.8125,-0.84375 l 0.59375,0 c 0.859375,0 1.96875,0 1.96875,0.84375 0,0.546875 -0.703125,1.046875 -1.671875,1.046875 z m 0,0"
               id="path3043" />
          </symbol>
          <symbol
             style="overflow:visible"
             overflow="visible"
             id="textext-7e2d2c62-3">
            <path
               inkscape:connector-curvature="0"
               style="stroke:none"
               d="m 1.0625,-0.75 c 0,0.4375 -0.109375,0.4375 -0.78125,0.4375 l 0,0.3125 c 0.328125,-0.015625 0.796875,-0.03125 1.078125,-0.03125 0.3125,0 0.703125,0.015625 1.109375,0.03125 l 0,-0.3125 c -0.671875,0 -0.78125,0 -0.78125,-0.4375 l 0,-1.03125 0.640625,-0.546875 c 0.765625,1.046875 1.1875,1.609375 1.1875,1.796875 0,0.1875 -0.171875,0.21875 -0.359375,0.21875 l 0,0.3125 c 0.265625,-0.015625 0.859375,-0.03125 1.078125,-0.03125 0.28125,0 0.578125,0.015625 0.859375,0.03125 l 0,-0.3125 c -0.375,0 -0.59375,0 -0.96875,-0.53125 L 2.859375,-2.625 c -0.015625,-0.015625 -0.0625,-0.078125 -0.0625,-0.109375 0,-0.03125 0.71875,-0.640625 0.8125,-0.71875 0.625,-0.5 1.046875,-0.53125 1.25,-0.53125 l 0,-0.3125 c -0.28125,0.03125 -0.40625,0.03125 -0.6875,0.03125 -0.359375,0 -0.984375,-0.015625 -1.125,-0.03125 l 0,0.3125 c 0.1875,0 0.296875,0.109375 0.296875,0.25 0,0.203125 -0.140625,0.3125 -0.21875,0.390625 l -1.40625,1.203125 0,-4.78125 -1.4375,0.109375 0,0.3125 c 0.703125,0 0.78125,0.0625 0.78125,0.5625 z m 0,0"
               id="path3046" />
          </symbol>
          <symbol
             style="overflow:visible"
             overflow="visible"
             id="textext-7e2d2c62-4">
            <path
               inkscape:connector-curvature="0"
               style="stroke:none"
               d="m 1.671875,-3.3125 0,-1.09375 -1.390625,0.109375 0,0.3125 c 0.703125,0 0.78125,0.0625 0.78125,0.5625 l 0,2.671875 c 0,0.4375 -0.109375,0.4375 -0.78125,0.4375 l 0,0.3125 c 0.390625,-0.015625 0.859375,-0.03125 1.140625,-0.03125 0.390625,0 0.859375,0 1.265625,0.03125 l 0,-0.3125 -0.21875,0 c -0.734375,0 -0.75,-0.109375 -0.75,-0.46875 l 0,-1.53125 c 0,-0.984375 0.421875,-1.875 1.171875,-1.875 0.0625,0 0.09375,0 0.109375,0.015625 -0.03125,0 -0.234375,0.125 -0.234375,0.390625 0,0.265625 0.21875,0.421875 0.4375,0.421875 0.171875,0 0.421875,-0.125 0.421875,-0.4375 0,-0.3125 -0.3125,-0.609375 -0.734375,-0.609375 -0.734375,0 -1.09375,0.671875 -1.21875,1.09375 z m 0,0"
               id="path3049" />
          </symbol>
          <symbol
             style="overflow:visible"
             overflow="visible"
             id="textext-7e2d2c62-5">
            <path
               inkscape:connector-curvature="0"
               style="stroke:none"
               d="m 3.3125,-0.75 c 0.046875,0.390625 0.3125,0.8125 0.78125,0.8125 0.21875,0 0.828125,-0.140625 0.828125,-0.953125 l 0,-0.5625 -0.25,0 0,0.5625 c 0,0.578125 -0.25,0.640625 -0.359375,0.640625 -0.328125,0 -0.375,-0.453125 -0.375,-0.5 l 0,-1.984375 c 0,-0.421875 0,-0.8125 -0.359375,-1.1875 C 3.1875,-4.3125 2.6875,-4.46875 2.21875,-4.46875 c -0.828125,0 -1.515625,0.46875 -1.515625,1.125 0,0.296875 0.203125,0.46875 0.46875,0.46875 0.28125,0 0.453125,-0.203125 0.453125,-0.453125 0,-0.125 -0.046875,-0.453125 -0.515625,-0.453125 C 1.390625,-4.140625 1.875,-4.25 2.1875,-4.25 c 0.5,0 1.0625,0.390625 1.0625,1.28125 l 0,0.359375 c -0.515625,0.03125 -1.203125,0.0625 -1.828125,0.359375 -0.75,0.34375 -1,0.859375 -1,1.296875 0,0.8125 0.96875,1.0625 1.59375,1.0625 0.65625,0 1.109375,-0.40625 1.296875,-0.859375 z M 3.25,-2.390625 l 0,1 c 0,0.9375 -0.71875,1.28125 -1.171875,1.28125 -0.484375,0 -0.890625,-0.34375 -0.890625,-0.84375 0,-0.546875 0.421875,-1.375 2.0625,-1.4375 z m 0,0"
               id="path3052" />
          </symbol>
          <symbol
             style="overflow:visible"
             overflow="visible"
             id="textext-7e2d2c62-6">
            <path
               inkscape:connector-curvature="0"
               style="stroke:none"
               d="m 1.75,-4.296875 0,-1.15625 c 0,-0.875 0.46875,-1.359375 0.90625,-1.359375 0.03125,0 0.1875,0 0.328125,0.078125 C 2.875,-6.703125 2.6875,-6.5625 2.6875,-6.3125 c 0,0.21875 0.15625,0.421875 0.4375,0.421875 0.28125,0 0.4375,-0.203125 0.4375,-0.4375 0,-0.375 -0.375,-0.703125 -0.90625,-0.703125 -0.6875,0 -1.546875,0.53125 -1.546875,1.59375 l 0,1.140625 -0.78125,0 0,0.3125 0.78125,0 0,3.234375 c 0,0.4375 -0.109375,0.4375 -0.765625,0.4375 l 0,0.3125 c 0.390625,-0.015625 0.859375,-0.03125 1.125,-0.03125 0.40625,0 0.875,0 1.265625,0.03125 l 0,-0.3125 -0.203125,0 c -0.734375,0 -0.75,-0.109375 -0.75,-0.46875 l 0,-3.203125 1.125,0 0,-0.3125 z m 0,0"
               id="path3055" />
          </symbol>
          <symbol
             style="overflow:visible"
             overflow="visible"
             id="textext-7e2d2c62-7">
            <path
               inkscape:connector-curvature="0"
               style="stroke:none"
               d="m 1.71875,-3.984375 1.4375,0 0,-0.3125 -1.4375,0 0,-1.828125 -0.25,0 c 0,0.8125 -0.296875,1.875 -1.28125,1.921875 l 0,0.21875 0.84375,0 0,2.75 c 0,1.21875 0.9375,1.34375 1.296875,1.34375 0.703125,0 0.984375,-0.703125 0.984375,-1.34375 l 0,-0.5625 -0.25,0 0,0.546875 c 0,0.734375 -0.296875,1.109375 -0.671875,1.109375 -0.671875,0 -0.671875,-0.90625 -0.671875,-1.078125 z m 0,0"
               id="path3058" />
          </symbol>
        </g>
      </defs>
      <g
         id="textext-7e2d2c62-8"
         style="fill:#d40000;fill-opacity:1">
        <g
           style="fill:#d40000;fill-opacity:1"
           id="g3061">
          <use
             height="1052.3622"
             width="744.09448"
             xlink:href="#textext-7e2d2c62-0"
             x="223.43201"
             y="134.765"
             id="use3063"
             style="fill:#d40000;fill-opacity:1" />
          <use
             height="1052.3622"
             width="744.09448"
             xlink:href="#textext-7e2d2c62-1"
             x="229.52014"
             y="134.765"
             id="use3065"
             style="fill:#d40000;fill-opacity:1" />
          <use
             height="1052.3622"
             width="744.09448"
             xlink:href="#textext-7e2d2c62-2"
             x="235.05536"
             y="134.765"
             id="use3067"
             style="fill:#d40000;fill-opacity:1" />
          <use
             height="1052.3622"
             width="744.09448"
             xlink:href="#textext-7e2d2c62-3"
             x="240.03667"
             y="134.765"
             id="use3069"
             style="fill:#d40000;fill-opacity:1" />
          <use
             height="1052.3622"
             width="744.09448"
             xlink:href="#textext-7e2d2c62-4"
             x="245.29492"
             y="134.765"
             id="use3071"
             style="fill:#d40000;fill-opacity:1" />
          <use
             height="1052.3622"
             width="744.09448"
             xlink:href="#textext-7e2d2c62-5"
             x="249.19728"
             y="134.765"
             id="use3073"
             style="fill:#d40000;fill-opacity:1" />
          <use
             height="1052.3622"
             width="744.09448"
             xlink:href="#textext-7e2d2c62-6"
             x="254.17857"
             y="134.765"
             id="use3075"
             style="fill:#d40000;fill-opacity:1" />
          <use
             height="1052.3622"
             width="744.09448"
             xlink:href="#textext-7e2d2c62-7"
             x="257.22314"
             y="134.765"
             id="use3077"
             style="fill:#d40000;fill-opacity:1" />
        </g>
      </g>
    </g>
    <path
       id="path5882"
       d="m 669.8983,671.13763 -16.97742,21.78162 -0.72732,0 0,31.40916 366.32544,0 0,-31.40916 -0.7273,0 -16.9966,-21.78162 -16.97741,21.78162 -2.79448,0 -16.97741,-21.78162 -16.99655,21.78162 -2.79448,0 -16.97741,-21.78162 -16.99655,21.78162 -2.79448,0 -16.97741,-21.78162 -16.99655,21.78162 -2.79447,0 -16.97741,-21.78162 -16.99655,21.78162 -2.79448,0 -16.97741,-21.78162 -16.99655,21.78162 -2.77534,0 -16.99655,-21.78162 -16.99655,21.78162 -2.77534,0 -16.99655,-21.78162 -16.97741,21.78162 -2.79448,0 -16.99655,-21.78162 -16.97741,21.78162 -2.79447,0 z"
       style="fill:#666666;stroke:#000000;stroke-width:1.83746493;stroke-miterlimit:4;stroke-dasharray:none"
       inkscape:connector-curvature="0"
       sodipodi:nodetypes="ccccccccccccccccccccccccccccccccccc"
       inkscape:export-filename="/home/waldgeist/data/homepage/pics/physik/mechanik/dynamik/haftreibung.png"
       inkscape:export-xdpi="150"
       inkscape:export-ydpi="150" />
    <path
       inkscape:connector-curvature="0"
       style="fill:#b3b3b3;stroke:#000000;stroke-width:1.83746493;stroke-miterlimit:4;stroke-dasharray:none"
       d="m 653.37977,685.10429 -16.97741,-21.78162 -0.72733,0 0,-31.40916 366.32547,0 0,31.40916 -0.7274,0 -16.99653,21.78162 -16.97741,-21.78162 -2.79448,0 -16.97741,21.78162 -16.99655,-21.78162 -2.79447,0 -16.97741,21.78162 -16.99656,-21.78162 -2.79447,0 -16.97741,21.78162 -16.99655,-21.78162 -2.79448,0 -16.97741,21.78162 -16.99655,-21.78162 -2.79448,0 -16.97741,21.78162 -16.99655,-21.78162 -2.77534,0 -16.99655,21.78162 -16.99655,-21.78162 -2.77534,0 -16.99655,21.78162 -16.97741,-21.78162 -2.79447,0 -16.99655,21.78162 -16.97741,-21.78162 -2.79448,0 z"
       id="path5899"
       sodipodi:nodetypes="ccccccccccccccccccccccccccccccccccc"
       inkscape:export-filename="/home/waldgeist/data/homepage/pics/physik/mechanik/dynamik/haftreibung.png"
       inkscape:export-xdpi="150"
       inkscape:export-ydpi="150" />
    <g
       id="g4929"
       transform="translate(-70.860131,29.309902)"
       inkscape:export-filename="/home/waldgeist/data/homepage/pics/physik/mechanik/dynamik/haftreibung.png"
       inkscape:export-xdpi="150"
       inkscape:export-ydpi="150">
      <path
         style="fill:#d40000;stroke:#d40000;stroke-width:14.94471359;stroke-linecap:square;stroke-linejoin:miter;stroke-miterlimit:4;stroke-opacity:1;stroke-dasharray:none"
         d="m 896.67023,619.52738 94.92009,0"
         id="path5901-0"
         inkscape:connector-curvature="0" />
      <path
         inkscape:transform-center-x="-3.0302635"
         transform="matrix(1.645499e-5,-0.5103719,0.5103719,1.645499e-5,180.95103,258.61361)"
         inkscape:transform-center-y="-0.00017641075"
         d="m -707.10675,1620.0679 -5.24891,-9.0914 -5.2489,-9.0914 10.49781,0 10.49781,0 -5.2489,9.0914 z"
         inkscape:randomized="0"
         inkscape:rounded="0"
         inkscape:flatsided="false"
         sodipodi:arg2="2.6179939"
         sodipodi:arg1="1.5707963"
         sodipodi:r2="6.060915"
         sodipodi:r1="12.121831"
         sodipodi:cy="1607.946"
         sodipodi:cx="-707.10675"
         sodipodi:sides="3"
         id="path5439-0-7"
         style="fill:#d40000;stroke:#d40000;stroke-width:29.29999924;stroke-miterlimit:4;stroke-dasharray:none"
         sodipodi:type="star" />
    </g>
    <g
       id="g4933"
       transform="translate(9.7985652,-44.690098)"
       inkscape:export-filename="/home/waldgeist/data/homepage/pics/physik/mechanik/dynamik/haftreibung.png"
       inkscape:export-xdpi="150"
       inkscape:export-ydpi="150">
      <path
         inkscape:connector-curvature="0"
         id="path19044"
         d="m 802.06682,751.7025 -94.92009,0"
         style="fill:#d40000;stroke:#d40000;stroke-width:14.94471359;stroke-linecap:square;stroke-linejoin:miter;stroke-miterlimit:4;stroke-opacity:1;stroke-dasharray:none" />
      <path
         sodipodi:type="star"
         style="fill:#d40000;stroke:#d40000;stroke-width:29.29999924;stroke-miterlimit:4;stroke-dasharray:none"
         id="path19046"
         sodipodi:sides="3"
         sodipodi:cx="-707.10675"
         sodipodi:cy="1607.946"
         sodipodi:r1="12.121831"
         sodipodi:r2="6.060915"
         sodipodi:arg1="1.5707963"
         sodipodi:arg2="2.6179939"
         inkscape:flatsided="false"
         inkscape:rounded="0"
         inkscape:randomized="0"
         d="m -707.10675,1620.0679 -5.24891,-9.0914 -5.2489,-9.0914 10.49781,0 10.49781,0 -5.2489,9.0914 z"
         inkscape:transform-center-y="-0.00017641075"
         transform="matrix(-1.645499e-5,0.5103719,-0.5103719,-1.645499e-5,1517.786,1112.6163)"
         inkscape:transform-center-x="-3.0302635" />
    </g>
    <path
       inkscape:connector-curvature="0"
       id="path36768"
       d="m 528.69408,566.10721 0,228.41546"
       style="fill:#b3b3b3;stroke:#b3b3b3;stroke-width:1.99999988;stroke-linecap:butt;stroke-linejoin:miter;stroke-miterlimit:4;stroke-opacity:1;stroke-dasharray:none"
       inkscape:export-filename="/home/waldgeist/data/homepage/pics/physik/mechanik/dynamik/haftreibung.png"
       inkscape:export-xdpi="150"
       inkscape:export-ydpi="150" />
  </g>
</svg>
