<svg xmlns:ns0="http://www.iki.fi/pav/software/textext/" xmlns="http://www.w3.org/2000/svg" xmlns:xlink="http://www.w3.org/1999/xlink" width="1052.362" height="744.094"><title>Haftreibung</title><path fill="#fff" stroke="#fff" d="M16.711 258.857h455.491v226.38H16.711z"/><path d="M48.602 377.762s-1.35.173 6.698-2.136c4.781-2.306 9.05-2.165 13.954-1.265 9.325 1.714 21.024 3.509 27.297 1.816 8.524-2.3 7.89-5.45 12.022-5.142 2.13.159 9.3 2.78 17.24 2.77 13.396-.019 12.155 1.35 14.927.6 1.643-.445 8.65-5.18 11.206-5.72 4.492-.951 8.338-4.22 8.52-.446 2.078 43.256 5.44.978 7.357 1.514 1.917.536 3.425 4.092 6.407 4.846 2.982.755 8.508-2.467 10.098-1.921 3.423 1.175 7.236 2.058 10.816 1.126 1.227-.32 7.044-3.619 8.333-1.3.719 1.293 6.056 2.36 8.402.76 2.11-1.438 6.272-5.038 9.084-4.576 1.562 1.356-.204 5.18 4.863 4.935l10.785-.523 8.127-.012c6.035-.01 5.141-3.664 8.53-2.48 2.92 1.02 5.457 1.356 12.391 1.64 7.96.324 11.76.256 14.16-.253 1.933-.41 2.675 3.537 4.783 4.046 1.373.331 3.454-3.152 4.626-2.939 1.171.213 7.722-.403 9.32-.058 8.308 1.79 8.72 3.193 11.398 2.178.852-.323 7.046.792 8.963.296 1.917-.496.602-3.072 1.88-3.542 1.278-.47 4.18-4.225 4.066-1.2-.036.976 8.145 1.18 9.423.862 3.28-.819 6.242-3.223 8.584-2.823 1.065.181 4.245 4.315 6.63 4.82 3.905.826 4.162-2.705 5.838-3.169 3.89-1.076 8.707 1.778 11.408 3.314.322.184 5.974-4.396 7.686-1.04 2.033 3.987 4.86 4.864 5.18 5.066 4.055 2.565 5.194-5.597 10.394-6.81 3.817 8.501-6.794 5.573 19.297 2.778 4.992-.535 10.151 2.908 16.053 3.316 6.043.417 15.338 11.862 15.338 1.58v33.415H48.602z" fill="#666" stroke="#000" stroke-width="1.162"/><path d="M72.69 368.38c-.948-.147-5.16 2.116-6.916 1.989 0 0-8.85-1.856-12.358-2.39-3.78 1.577-4.854 6.895-5.161 6.41-.194-.307.719-42.38.719-42.38h391.314v31.254s-3.558 12.898-5.944 12.977c-4.976-.1-10.783.561-14.765-1.35-1.971-.946-3.697-4.031-4.018-4.031-1.896-1.88-1.162-2.931-3.775-6.126-2.062-.828-3.319-4.532-4.148-3.218-1.096.867-1.48 4.73-2.727 5.667-4.193 1.07-5.975-5.011-9.631-5.854-4.298-.992-10.795 12.91-15.319 15.172-2.977.21-8.299-9.168-12.206-11a82.233 82.233 0 0 1-3.282 1.44l-1.618-2.855c-7.417.05-8.525-1.407-14.668-3.417-1.511-.494-10.012 4.116-15.101 5.195-1.278.27-3.047-4.432-4.858-4.433-2.96 0-4.915 4.68-7.534 3.543-1.4-.608-8.925 10.64-10.889 10.095-2.894-.802-5.82-14.391-7.287-13.5-5.157 3.127-8.357 7.85-10.592 8.205-2.235.355-3.4-3.325-5.515-5.105-.999.14-2.523 3.382-5.201 3.53-2.679.148-6.869-2.823-8.67-2.295-3.671 1.073-4.562 2.855-6.015 3.4-2.881.232-4.862-2.525-9.788-3.615-4.366-.966-14.401 5.757-19.745 6.443-2.859.368-8.03-1.334-11.433-1.543-2.662-.164-5.561-4.575-6.52-4.632-.958-.057-6.471 2.254-7.004 2.05-.532-.206-.984-2.768-3.452-2.972-2.972 1.5-5.426 3.993-8.806 5.344-3.063-.038-7.96.836-11.112-.13-3.757-1.153-5.508-2.303-12.585-1.39-2.713.35-5.8-5.492-9.543-5.937-1.784 1.702-2.646 4.22-5.88 3.138-3.11-1.04-3.32-1.75-7.328.446-3.172-.313-5.644-6.01-7.76-5.415-2.117.596-5.536 5.026-8.861 6.2-3.325 1.174-7.218-3.038-14.555-4.32-1.623-1.462-9.739 5.805-11.326 6.241-4.06 1.32-10.173-1.175-13.889-.223-1.615.414-3.809 3.095-3.769 3.126 0 0-4.55.15-9.5.98-5.291-2.17-7.065-2.1-10.978-4.714z" fill="#b3b3b3" stroke="#000" stroke-width="1.162"/><path fill="#fff" stroke="#fff" d="M580.16 258.857h455.491v226.38H580.16z"/><g transform="translate(-58.732 49.148) scale(2.92771)" ns0:preamble="/home/waldgeist/data/sphinx/test.tex" ns0:text="Haftreibungskraft" fill="#d40000"><defs><symbol id="a" overflow="visible"><path d="M6.11-6.031c0-.36.015-.469.78-.469h.25v-.313c-.359.032-1.093.032-1.468.032s-1.125 0-1.469-.032v.313h.234c.766 0 .782.11.782.469v2.328H2.25v-2.328c0-.36.016-.469.781-.469h.235v-.313c-.344.032-1.079.032-1.47.032-.374 0-1.124 0-1.468-.032v.313h.234c.766 0 .797.11.797.469v5.25c0 .36-.03.469-.796.469H.328V0c.344-.031 1.094-.031 1.469-.031s1.125 0 1.469.031v-.313H3.03c-.765 0-.781-.109-.781-.468v-2.61h2.969v2.61c0 .36-.016.469-.782.469h-.234V0c.344-.031 1.078-.031 1.453-.031.39 0 1.125 0 1.485.031v-.313h-.25c-.766 0-.782-.109-.782-.468zm0 0"/></symbol><symbol id="b" overflow="visible"><path d="M3.313-.75c.046.39.312.813.78.813.22 0 .829-.141.829-.954v-.562h-.25v.562c0 .579-.25.641-.36.641-.328 0-.375-.453-.375-.5v-1.984c0-.422 0-.813-.359-1.188-.39-.39-.89-.547-1.36-.547-.827 0-1.515.469-1.515 1.125 0 .297.203.469.469.469a.435.435 0 0 0 .453-.453c0-.125-.047-.453-.516-.453.282-.36.766-.469 1.079-.469.5 0 1.062.39 1.062 1.281v.36c-.516.03-1.203.062-1.828.359-.75.344-1 .86-1 1.297 0 .812.969 1.062 1.594 1.062.656 0 1.109-.406 1.296-.859zM3.25-2.39v1c0 .937-.719 1.28-1.172 1.28-.484 0-.89-.343-.89-.843 0-.547.421-1.375 2.062-1.438zm0 0"/></symbol><symbol id="c" overflow="visible"><path d="M1.75-4.297v-1.156c0-.875.469-1.36.906-1.36.031 0 .188 0 .328.079a.443.443 0 0 0-.296.421c0 .22.156.422.437.422s.438-.203.438-.437c0-.375-.376-.703-.907-.703-.687 0-1.547.531-1.547 1.593v1.141H.33v.313h.78V-.75c0 .438-.109.438-.765.438V0c.39-.016.86-.031 1.125-.031.406 0 .875 0 1.265.031v-.313h-.203c-.734 0-.75-.109-.75-.468v-3.203h1.125v-.313zm0 0"/></symbol><symbol id="d" overflow="visible"><path d="M1.719-3.984h1.437v-.313H1.72v-1.828h-.25c0 .813-.297 1.875-1.282 1.922v.219h.844v2.75c0 1.218.938 1.343 1.297 1.343.703 0 .985-.703.985-1.343v-.563h-.25v.547c0 .734-.297 1.11-.672 1.11-.672 0-.672-.907-.672-1.079zm0 0"/></symbol><symbol id="e" overflow="visible"><path d="M1.672-3.313v-1.093l-1.39.11v.312c.702 0 .78.062.78.562V-.75c0 .438-.109.438-.78.438V0c.39-.016.859-.031 1.14-.031.39 0 .86 0 1.266.031v-.313h-.22c-.734 0-.75-.109-.75-.468v-1.531c0-.985.423-1.876 1.173-1.876.062 0 .093 0 .109.016-.031 0-.234.125-.234.39 0 .266.218.423.437.423a.421.421 0 0 0 .422-.438c0-.312-.313-.61-.734-.61-.735 0-1.094.673-1.22 1.095zm0 0"/></symbol><symbol id="f" overflow="visible"><path d="M1.11-2.516C1.171-4 2.015-4.25 2.36-4.25c1.015 0 1.124 1.344 1.124 1.734zm0 .22h2.78c.22 0 .25 0 .25-.22 0-.984-.546-1.953-1.78-1.953C1.202-4.469.28-3.437.28-2.187.281-.86 1.328.108 2.47.108 3.688.11 4.14-1 4.14-1.187c0-.094-.079-.125-.141-.125-.078 0-.11.062-.125.14C3.531-.14 2.625-.14 2.531-.14c-.5 0-.89-.296-1.125-.671-.297-.47-.297-1.125-.297-1.485zm0 0"/></symbol><symbol id="g" overflow="visible"><path d="M1.766-4.406l-1.391.11v.312c.64 0 .734.062.734.546V-.75c0 .438-.109.438-.78.438V0c.312-.016.859-.031 1.093-.031.36 0 .703.015 1.047.031v-.313c-.672 0-.703-.046-.703-.437zm.03-1.735a.514.514 0 0 0-.515-.53.537.537 0 0 0-.531.53c0 .266.219.532.531.532a.514.514 0 0 0 .516-.532zm0 0"/></symbol><symbol id="h" overflow="visible"><path d="M1.719-3.766v-3.156l-1.438.11v.312c.703 0 .781.063.781.563V0h.25c0-.016.079-.156.36-.625.14.234.562.734 1.297.734 1.187 0 2.219-.984 2.219-2.265 0-1.266-.97-2.25-2.11-2.25-.781 0-1.203.468-1.36.64zM1.75-1.14v-2.046c0-.188 0-.204.11-.36.39-.562.937-.64 1.171-.64.453 0 .813.265 1.047.64.266.406.281.969.281 1.39 0 .36-.015.954-.296 1.407-.22.313-.594.64-1.125.64-.454 0-.813-.234-1.047-.609-.141-.203-.141-.234-.141-.422zm0 0"/></symbol><symbol id="i" overflow="visible"><path d="M3.89-.781v.89L5.329 0v-.313c-.687 0-.766-.062-.766-.562v-3.531l-1.468.11v.312c.687 0 .781.062.781.562v1.766c0 .875-.484 1.547-1.219 1.547-.828 0-.875-.47-.875-.985v-3.312l-1.468.11v.312c.78 0 .78.03.78.906v1.5c0 .781 0 1.687 1.516 1.687.563 0 1-.28 1.282-.89zm0 0"/></symbol><symbol id="j" overflow="visible"><path d="M1.094-3.422V-.75c0 .438-.11.438-.782.438V0c.36-.016.86-.031 1.141-.031.25 0 .766.015 1.11.031v-.313c-.672 0-.782 0-.782-.437v-1.844c0-1.031.719-1.594 1.344-1.594.64 0 .75.532.75 1.11V-.75c0 .438-.11.438-.781.438V0c.344-.016.86-.031 1.125-.031.25 0 .781.015 1.11.031v-.313c-.516 0-.766 0-.766-.296v-1.907c0-.859 0-1.156-.313-1.515-.14-.172-.469-.375-1.047-.375-.734 0-1.203.422-1.484 1.047v-1.047l-1.407.11v.312c.704 0 .782.062.782.562zm0 0"/></symbol><symbol id="k" overflow="visible"><path d="M2.219-1.719c-.875 0-.875-1-.875-1.218 0-.266.015-.594.156-.844.078-.11.313-.39.719-.39.86 0 .86.984.86 1.218 0 .265 0 .594-.157.844-.078.109-.313.39-.703.39zm-1.156.39c0-.03 0-.265.156-.468.39.281.812.313 1 .313.922 0 1.61-.688 1.61-1.454 0-.374-.157-.734-.407-.968.36-.344.719-.39.89-.39.032 0 .079 0 .11.015-.11.031-.172.14-.172.265 0 .172.14.282.297.282a.28.28 0 0 0 .281-.297c0-.172-.11-.485-.5-.485-.203 0-.64.063-1.062.47a1.652 1.652 0 0 0-1.047-.36c-.938 0-1.625.687-1.625 1.453 0 .437.219.812.469 1.031-.125.14-.313.469-.313.828 0 .313.14.688.453.89-.61.157-.922.595-.922.985 0 .719.985 1.266 2.203 1.266 1.172 0 2.204-.5 2.204-1.281 0-.344-.125-.86-.641-1.141-.531-.266-1.11-.266-1.719-.266-.25 0-.672 0-.75-.015-.312-.047-.516-.344-.516-.672zM2.5 1.829C1.484 1.828.797 1.312.797.781c0-.453.375-.828.812-.844h.594c.86 0 1.969 0 1.969.844 0 .547-.703 1.047-1.672 1.047zm0 0"/></symbol><symbol id="l" overflow="visible"><path d="M2.078-1.938c.219.047 1.031.204 1.031.922 0 .5-.343.907-1.125.907-.843 0-1.203-.563-1.39-1.422-.031-.125-.031-.157-.14-.157-.126 0-.126.063-.126.235v1.328c0 .172 0 .234.11.234C.483.11.5.094.688-.094.703-.109.703-.125.89-.312c.437.406.89.421 1.093.421 1.141 0 1.61-.671 1.61-1.39 0-.516-.297-.828-.422-.938-.328-.328-.719-.406-1.14-.484-.563-.11-1.22-.235-1.22-.813 0-.359.25-.765 1.11-.765 1.094 0 1.156.906 1.172 1.203 0 .094.094.094.11.094.14 0 .14-.047.14-.235v-1.015c0-.157 0-.235-.11-.235-.046 0-.078 0-.203.125-.031.032-.125.125-.172.157-.375-.282-.78-.282-.937-.282-1.219 0-1.594.672-1.594 1.235 0 .343.156.625.422.843.328.25.61.313 1.328.454zm0 0"/></symbol><symbol id="m" overflow="visible"><path d="M1.063-.75c0 .438-.11.438-.782.438V0c.328-.016.797-.031 1.078-.031.313 0 .704.015 1.11.031v-.313c-.672 0-.781 0-.781-.437v-1.031l.64-.547c.766 1.047 1.188 1.61 1.188 1.797 0 .187-.172.219-.36.219V0c.266-.016.86-.031 1.078-.031.282 0 .579.015.86.031v-.313c-.375 0-.594 0-.969-.53L2.859-2.626c-.015-.016-.062-.078-.062-.11 0-.03.719-.64.812-.718.625-.5 1.047-.531 1.25-.531v-.313c-.28.031-.406.031-.687.031-.36 0-.984-.015-1.125-.03v.312c.187 0 .297.109.297.25 0 .203-.14.312-.219.39L1.719-2.14v-4.78L.28-6.813v.312c.703 0 .781.063.781.563zm0 0"/></symbol></defs><use y="134.765" x="223.432" xlink:href="#a" width="1052.362" height="744.094"/><use y="134.765" x="230.904" xlink:href="#b" width="1052.362" height="744.094"/><use y="134.765" x="235.885" xlink:href="#c" width="1052.362" height="744.094"/><use y="134.765" x="238.93" xlink:href="#d" width="1052.362" height="744.094"/><use y="134.765" x="242.804" xlink:href="#e" width="1052.362" height="744.094"/><use y="134.765" x="246.707" xlink:href="#f" width="1052.362" height="744.094"/><use y="134.765" x="251.134" xlink:href="#g" width="1052.362" height="744.094"/><use y="134.765" x="253.902" xlink:href="#h" width="1052.362" height="744.094"/><use y="134.765" x="259.437" xlink:href="#i" width="1052.362" height="744.094"/><use y="134.765" x="264.972" xlink:href="#j" width="1052.362" height="744.094"/><use y="134.765" x="270.507" xlink:href="#k" width="1052.362" height="744.094"/><use y="134.765" x="275.489" xlink:href="#l" width="1052.362" height="744.094"/><use y="134.765" x="279.418" xlink:href="#m" width="1052.362" height="744.094"/><use y="134.765" x="284.676" xlink:href="#e" width="1052.362" height="744.094"/><use y="134.765" x="288.578" xlink:href="#b" width="1052.362" height="744.094"/><use y="134.765" x="293.56" xlink:href="#c" width="1052.362" height="744.094"/><use y="134.765" x="296.604" xlink:href="#d" width="1052.362" height="744.094"/></g><g transform="translate(162.547 -79.566) scale(2.92771)" ns0:text="Zugkraft" ns0:preamble="/home/waldgeist/data/sphinx/test.tex" fill="#d40000"><defs><symbol overflow="visible" id="n"><path d="M5.453-6.453c.063-.11.063-.125.063-.203 0-.157-.047-.157-.25-.157H.796l-.109 2.25h.25C1-5.688 1.313-6.5 2.938-6.5H4.5L.625-.375c-.063.11-.063.125-.063.203C.563 0 .61 0 .813 0h4.594l.172-2.656h-.25C5.25-1.281 5.062-.344 3.218-.344h-1.64zm0 0"/></symbol><symbol overflow="visible" id="o"><path d="M3.89-.781v.89L5.329 0v-.313c-.687 0-.766-.062-.766-.562v-3.531l-1.468.11v.312c.687 0 .781.062.781.562v1.766c0 .875-.484 1.547-1.219 1.547-.828 0-.875-.47-.875-.985v-3.312l-1.468.11v.312c.78 0 .78.03.78.906v1.5c0 .781 0 1.687 1.516 1.687.563 0 1-.28 1.282-.89zm0 0"/></symbol><symbol overflow="visible" id="p"><path d="M2.219-1.719c-.875 0-.875-1-.875-1.218 0-.266.015-.594.156-.844.078-.11.313-.39.719-.39.86 0 .86.984.86 1.218 0 .265 0 .594-.157.844-.078.109-.313.39-.703.39zm-1.156.39c0-.03 0-.265.156-.468.39.281.812.313 1 .313.922 0 1.61-.688 1.61-1.454 0-.374-.157-.734-.407-.968.36-.344.719-.39.89-.39.032 0 .079 0 .11.015-.11.031-.172.14-.172.265 0 .172.14.282.297.282a.28.28 0 0 0 .281-.297c0-.172-.11-.485-.5-.485-.203 0-.64.063-1.062.47a1.652 1.652 0 0 0-1.047-.36c-.938 0-1.625.687-1.625 1.453 0 .437.219.812.469 1.031-.125.14-.313.469-.313.828 0 .313.14.688.453.89-.61.157-.922.595-.922.985 0 .719.985 1.266 2.203 1.266 1.172 0 2.204-.5 2.204-1.281 0-.344-.125-.86-.641-1.141-.531-.266-1.11-.266-1.719-.266-.25 0-.672 0-.75-.015-.312-.047-.516-.344-.516-.672zM2.5 1.829C1.484 1.828.797 1.312.797.781c0-.453.375-.828.812-.844h.594c.86 0 1.969 0 1.969.844 0 .547-.703 1.047-1.672 1.047zm0 0"/></symbol><symbol overflow="visible" id="q"><path d="M1.063-.75c0 .438-.11.438-.782.438V0c.328-.016.797-.031 1.078-.031.313 0 .704.015 1.11.031v-.313c-.672 0-.781 0-.781-.437v-1.031l.64-.547c.766 1.047 1.188 1.61 1.188 1.797 0 .187-.172.219-.36.219V0c.266-.016.86-.031 1.078-.031.282 0 .579.015.86.031v-.313c-.375 0-.594 0-.969-.53L2.859-2.626c-.015-.016-.062-.078-.062-.11 0-.03.719-.64.812-.718.625-.5 1.047-.531 1.25-.531v-.313c-.28.031-.406.031-.687.031-.36 0-.984-.015-1.125-.03v.312c.187 0 .297.109.297.25 0 .203-.14.312-.219.39L1.719-2.14v-4.78L.28-6.813v.312c.703 0 .781.063.781.563zm0 0"/></symbol><symbol overflow="visible" id="r"><path d="M1.672-3.313v-1.093l-1.39.11v.312c.702 0 .78.062.78.562V-.75c0 .438-.109.438-.78.438V0c.39-.016.859-.031 1.14-.031.39 0 .86 0 1.266.031v-.313h-.22c-.734 0-.75-.109-.75-.468v-1.531c0-.985.423-1.876 1.173-1.876.062 0 .093 0 .109.016-.031 0-.234.125-.234.39 0 .266.218.423.437.423a.421.421 0 0 0 .422-.438c0-.312-.313-.61-.734-.61-.735 0-1.094.673-1.22 1.095zm0 0"/></symbol><symbol overflow="visible" id="s"><path d="M3.313-.75c.046.39.312.813.78.813.22 0 .829-.141.829-.954v-.562h-.25v.562c0 .579-.25.641-.36.641-.328 0-.375-.453-.375-.5v-1.984c0-.422 0-.813-.359-1.188-.39-.39-.89-.547-1.36-.547-.827 0-1.515.469-1.515 1.125 0 .297.203.469.469.469a.435.435 0 0 0 .453-.453c0-.125-.047-.453-.516-.453.282-.36.766-.469 1.079-.469.5 0 1.062.39 1.062 1.281v.36c-.516.03-1.203.062-1.828.359-.75.344-1 .86-1 1.297 0 .812.969 1.062 1.594 1.062.656 0 1.109-.406 1.296-.859zM3.25-2.39v1c0 .937-.719 1.28-1.172 1.28-.484 0-.89-.343-.89-.843 0-.547.421-1.375 2.062-1.438zm0 0"/></symbol><symbol overflow="visible" id="t"><path d="M1.75-4.297v-1.156c0-.875.469-1.36.906-1.36.031 0 .188 0 .328.079a.443.443 0 0 0-.296.421c0 .22.156.422.437.422s.438-.203.438-.437c0-.375-.376-.703-.907-.703-.687 0-1.547.531-1.547 1.593v1.141H.33v.313h.78V-.75c0 .438-.109.438-.765.438V0c.39-.016.86-.031 1.125-.031.406 0 .875 0 1.265.031v-.313h-.203c-.734 0-.75-.109-.75-.468v-3.203h1.125v-.313zm0 0"/></symbol><symbol overflow="visible" id="u"><path d="M1.719-3.984h1.437v-.313H1.72v-1.828h-.25c0 .813-.297 1.875-1.282 1.922v.219h.844v2.75c0 1.218.938 1.343 1.297 1.343.703 0 .985-.703.985-1.343v-.563h-.25v.547c0 .734-.297 1.11-.672 1.11-.672 0-.672-.907-.672-1.079zm0 0"/></symbol></defs><use height="1052.362" width="744.094" xlink:href="#n" x="223.432" y="134.765"/><use height="1052.362" width="744.094" xlink:href="#o" x="229.52" y="134.765"/><use height="1052.362" width="744.094" xlink:href="#p" x="235.055" y="134.765"/><use height="1052.362" width="744.094" xlink:href="#q" x="240.037" y="134.765"/><use height="1052.362" width="744.094" xlink:href="#r" x="245.295" y="134.765"/><use height="1052.362" width="744.094" xlink:href="#s" x="249.197" y="134.765"/><use height="1052.362" width="744.094" xlink:href="#t" x="254.179" y="134.765"/><use height="1052.362" width="744.094" xlink:href="#u" x="257.223" y="134.765"/></g><path d="M669.898 362.87l-16.977 21.782h-.727v31.409h366.325v-31.41h-.727l-16.997-21.781-16.977 21.782h-2.795l-16.977-21.782-16.997 21.782h-2.794l-16.978-21.782-16.996 21.782h-2.795L890.51 362.87l-16.997 21.782h-2.794L853.74 362.87l-16.996 21.782h-2.795l-16.977-21.782-16.996 21.782H797.2l-16.996-21.782-16.997 21.782h-2.775l-16.997-21.782-16.977 21.782h-2.795l-16.996-21.782-16.978 21.782h-2.794z" fill="#666" stroke="#000" stroke-width="1.837"/><path d="M653.38 376.837l-16.978-21.782h-.727v-31.41h366.326v31.41h-.728l-16.996 21.782-16.978-21.782h-2.794l-16.978 21.782-16.996-21.782h-2.795l-16.977 21.782-16.997-21.782h-2.794l-16.978 21.782-16.996-21.782h-2.795l-16.977 21.782-16.997-21.782h-2.794l-16.977 21.782-16.997-21.782h-2.775l-16.997 21.782-16.996-21.782h-2.776l-16.996 21.782-16.978-21.782h-2.794l-16.997 21.782-16.977-21.782h-2.795z" fill="#b3b3b3" stroke="#000" stroke-width="1.837"/><g fill="#d40000" stroke="#d40000"><path d="M825.81 340.57h94.92" stroke-width="14.945" stroke-linecap="square"/><path d="M936.916 340.57l-4.64 2.679-4.64 2.678v-10.715l4.64 2.679z" stroke-width="14.953841"/></g><g fill="#d40000" stroke="#d40000"><path d="M811.865 398.745h-94.92" stroke-width="14.945" stroke-linecap="square"/><path d="M700.76 398.744l4.64-2.678 4.64-2.68v5.359l-.001 5.358-4.64-2.68z" stroke-width="14.953841"/></g><path d="M528.694 257.84v228.415" fill="#b3b3b3" stroke="#b3b3b3" stroke-width="2"/></svg>