<svg xmlns:ns0="http://www.iki.fi/pav/software/textext/" xmlns="http://www.w3.org/2000/svg" xmlns:xlink="http://www.w3.org/1999/xlink" width="210mm" height="297mm"><title>Kraeftegleichgewicht (Aufgabe)</title><defs><marker id="t" orient="auto" overflow="visible"><path transform="scale(.6)" d="M8.719 4.034L-2.207.016 8.719-4.002c-1.746 2.372-1.736 5.618 0 8.036z" fill-rule="evenodd" stroke-width=".625" stroke-linejoin="round"/></marker><marker orient="auto" id="a" overflow="visible"><path d="M8.719 4.034L-2.207.016 8.719-4.002c-1.746 2.372-1.736 5.618 0 8.036z" transform="scale(-.6)" fill-rule="evenodd" stroke-width=".625" stroke-linejoin="round"/></marker><marker orient="auto" id="b" overflow="visible"><path d="M8.719 4.034L-2.207.016 8.719-4.002c-1.746 2.372-1.736 5.618 0 8.036z" transform="scale(-.6)" fill-rule="evenodd" stroke-width=".625" stroke-linejoin="round"/></marker></defs><path d="M716.115 752.234L72.365 584.497" style="marker:none" color="#000" fill="#c837ab" stroke="#f60" stroke-width="2" stroke-linecap="round" stroke-linejoin="round" stroke-dasharray="2.00000001999999988,4.00000003999999976" overflow="visible"/><path d="M301.728 575.89L533.42 807.582" style="marker:none" color="#000" fill="#999" stroke="#999" stroke-width="2" stroke-linecap="round" stroke-linejoin="round" stroke-dasharray="2,4.00000001" overflow="visible"/><path style="marker:none" d="M77.963 380.27h536.243" color="#000" fill="none" stroke="#999" stroke-width="2" stroke-linecap="round" stroke-linejoin="round" stroke-dasharray="2.00000001999999988,4.00000003999999976" overflow="visible"/><path style="marker:none" d="M178.898 380.27h283.464M178.898 380.27l100.22 100.22" color="#000" fill="none" stroke="#d40000" stroke-width="3" stroke-linecap="round" stroke-linejoin="round" marker-end="url(#a)" overflow="visible"/><path d="M462.362 380.27l100.22 100.22M279.118 480.49h283.464" style="marker:none" color="#000" fill="none" stroke="#d40000" stroke-width="2" stroke-linecap="round" stroke-linejoin="round" stroke-dasharray="2,4" overflow="visible"/><path d="M178.898 380.27l383.684 100.22" style="marker:none" color="#000" fill="#c837ab" stroke="#f60" stroke-width="3" stroke-linecap="round" stroke-linejoin="round" marker-end="url(#b)" overflow="visible"/><path style="marker:none" d="M232.048 380.27a53.15 53.15 0 0 1-15.568 37.583l-37.582-37.582z" color="#000" fill="#fff" stroke="#d40000" stroke-width="3" stroke-linecap="round" stroke-linejoin="round" overflow="visible"/><g ns0:text="$F_2 = \\unit[400]{N}$\n" ns0:preamble="/home/waldgeist/data/homepage/inkscape-preamble.tex" transform="matrix(3 0 0 3 -593.244 47.151)" fill="#d40000" stroke="#d40000"><defs><symbol overflow="visible" id="c"><path d="M3.016-3.234h.968c.75 0 .829.156.829.437 0 .078 0 .188-.063.5-.031.047-.031.078-.031.11 0 .078.062.109.11.109.109 0 .109-.031.155-.203l.547-2.172c.032-.11.032-.125.032-.156a.117.117 0 0 0-.125-.11c-.094 0-.11.047-.141.219-.219.766-.438.953-1.297.953h-.906l.64-2.531c.094-.36.11-.39.547-.39h1.313c1.218 0 1.453.327 1.453 1.093 0 .234 0 .266-.031.547C7-4.703 7-4.688 7-4.656c0 .047.031.125.125.125.11 0 .11-.063.125-.25l.203-1.735c.031-.265-.016-.265-.266-.265h-4.89c-.188 0-.297 0-.297.203 0 .11.094.11.281.11.375 0 .656 0 .656.171 0 .047 0 .063-.062.25L1.562-.78c-.093.39-.109.469-.906.469-.172 0-.281 0-.281.187C.375 0 .5 0 .531 0c.281 0 1.031-.031 1.313-.031C2.172-.031 3 0 3.328 0c.094 0 .203 0 .203-.188 0-.078-.047-.109-.047-.109-.03-.016-.062-.016-.28-.016-.22 0-.267 0-.517-.015-.296-.031-.328-.078-.328-.203 0-.016 0-.078.047-.219zm0 0" stroke="none"/></symbol><symbol overflow="visible" id="d"><path d="M3.516-1.266H3.28c-.015.157-.094.563-.187.625-.047.047-.578.047-.688.047H1.125c.734-.64.984-.844 1.39-1.172.516-.406 1-.843 1-1.5 0-.843-.734-1.359-1.624-1.359-.86 0-1.454.61-1.454 1.25 0 .344.297.39.376.39.156 0 .359-.124.359-.374 0-.125-.047-.375-.406-.375.218-.485.687-.641 1.015-.641.703 0 1.063.547 1.063 1.11 0 .609-.438 1.078-.656 1.328L.516-.266C.437-.203.437-.187.437 0h2.876zm0 0" stroke="none"/></symbol><symbol overflow="visible" id="e"><path d="M6.844-3.266c.156 0 .343 0 .343-.187 0-.203-.187-.203-.328-.203H.891c-.141 0-.329 0-.329.203 0 .187.188.187.329.187zm.015 1.938c.141 0 .329 0 .329-.203 0-.188-.188-.188-.344-.188H.89c-.141 0-.329 0-.329.188 0 .203.188.203.329.203zm0 0" stroke="none"/></symbol><symbol overflow="visible" id="f"><path d="M2.938-1.64v.859c0 .36-.032.469-.766.469h-.203V0c.406-.031.922-.031 1.343-.031.422 0 .938 0 1.36.031v-.313h-.219c-.734 0-.75-.109-.75-.468v-.86h.985v-.312h-.985v-4.531c0-.204 0-.266-.172-.266-.078 0-.11 0-.187.125L.28-1.953v.312zm.046-.313H.563l2.421-3.719zm0 0" stroke="none"/></symbol><symbol overflow="visible" id="g"><path d="M4.578-3.188c0-.796-.047-1.593-.39-2.328C3.733-6.484 2.905-6.64 2.5-6.64c-.61 0-1.328.266-1.75 1.188-.313.687-.36 1.469-.36 2.266 0 .75.032 1.64.454 2.406a1.83 1.83 0 0 0 1.64 1c.532 0 1.297-.203 1.735-1.157.312-.687.36-1.468.36-2.25zM2.484 0c-.39 0-.984-.25-1.156-1.203-.11-.594-.11-1.516-.11-2.11 0-.64 0-1.296.079-1.828.187-1.187.937-1.28 1.187-1.28.329 0 .985.187 1.172 1.171.11.563.11 1.313.11 1.938 0 .75 0 1.421-.11 2.062C3.5-.297 2.937 0 2.484 0zm0 0" stroke="none"/></symbol><symbol overflow="visible" id="h"><path d="M2.313-6.672c-.094-.125-.094-.14-.282-.14H.328v.312h.297c.14 0 .344.016.484.016.235.03.25.046.25.234v5.203c0 .266 0 .734-1.03.734V0c.343-.016.843-.031 1.171-.031.328 0 .813.015 1.156.031v-.313c-1.015 0-1.015-.468-1.015-.734v-5.187c.046.046.046.062.093.125L5.797-.125c.094.11.11.125.172.125.14 0 .14-.063.14-.266v-5.5c0-.265 0-.734 1.032-.734v-.313c-.36.016-.844.032-1.172.032-.328 0-.813-.016-1.157-.032v.313c1.016 0 1.016.469 1.016.734V-1.5zm0 0" stroke="none"/></symbol></defs><use height="1052.362" width="744.094" xlink:href="#c" x="223.432" y="134.765"/><use height="1052.362" width="744.094" xlink:href="#d" x="229.839" y="136.259"/><use height="1052.362" width="744.094" xlink:href="#e" x="237.075" y="134.765"/><use height="1052.362" width="744.094" xlink:href="#f" x="247.594" y="134.765"/><use height="1052.362" width="744.094" xlink:href="#g" x="252.575" y="134.765"/><use height="1052.362" width="744.094" xlink:href="#g" x="257.556" y="134.765"/><g><use height="1052.362" width="744.094" xlink:href="#h" x="264.191" y="134.765"/></g></g><g transform="matrix(3 0 0 3 -424.446 -39.856)" ns0:preamble="/home/waldgeist/data/homepage/inkscape-preamble.tex" ns0:text="$F_1 = \\unit[800]{N}$\n" fill="#d40000" stroke="#d40000"><defs><symbol id="i" overflow="visible"><path d="M3.016-3.234h.968c.75 0 .829.156.829.437 0 .078 0 .188-.063.5-.031.047-.031.078-.031.11 0 .078.062.109.11.109.109 0 .109-.031.155-.203l.547-2.172c.032-.11.032-.125.032-.156a.117.117 0 0 0-.125-.11c-.094 0-.11.047-.141.219-.219.766-.438.953-1.297.953h-.906l.64-2.531c.094-.36.11-.39.547-.39h1.313c1.218 0 1.453.327 1.453 1.093 0 .234 0 .266-.031.547C7-4.703 7-4.688 7-4.656c0 .047.031.125.125.125.11 0 .11-.063.125-.25l.203-1.735c.031-.265-.016-.265-.266-.265h-4.89c-.188 0-.297 0-.297.203 0 .11.094.11.281.11.375 0 .656 0 .656.171 0 .047 0 .063-.062.25L1.562-.78c-.093.39-.109.469-.906.469-.172 0-.281 0-.281.187C.375 0 .5 0 .531 0c.281 0 1.031-.031 1.313-.031C2.172-.031 3 0 3.328 0c.094 0 .203 0 .203-.188 0-.078-.047-.109-.047-.109-.03-.016-.062-.016-.28-.016-.22 0-.267 0-.517-.015-.296-.031-.328-.078-.328-.203 0-.016 0-.078.047-.219zm0 0" stroke="none"/></symbol><symbol id="j" overflow="visible"><path d="M2.328-4.438c0-.187 0-.187-.203-.187-.453.438-1.078.438-1.36.438v.25c.157 0 .626 0 1-.188v3.547c0 .234 0 .328-.687.328H.812V0c.125 0 .985-.031 1.235-.031.219 0 1.094.031 1.25.031v-.25H3.03c-.703 0-.703-.094-.703-.328zm0 0" stroke="none"/></symbol><symbol id="k" overflow="visible"><path d="M6.844-3.266c.156 0 .343 0 .343-.187 0-.203-.187-.203-.328-.203H.891c-.141 0-.329 0-.329.203 0 .187.188.187.329.187zm.015 1.938c.141 0 .329 0 .329-.203 0-.188-.188-.188-.344-.188H.89c-.141 0-.329 0-.329.188 0 .203.188.203.329.203zm0 0" stroke="none"/></symbol><symbol id="l" overflow="visible"><path d="M1.625-4.563c-.453-.296-.5-.625-.5-.796 0-.61.656-1.032 1.36-1.032.718 0 1.359.516 1.359 1.235 0 .578-.39 1.047-.985 1.39zm1.453.954c.719-.375 1.203-.891 1.203-1.547 0-.922-.875-1.485-1.781-1.485-1 0-1.813.735-1.813 1.672 0 .172.016.625.438 1.094.11.11.484.36.734.531C1.281-3.047.422-2.5.422-1.5.422-.453 1.438.219 2.484.219c1.125 0 2.079-.828 2.079-1.89 0-.36-.11-.813-.5-1.235-.188-.203-.344-.297-.985-.703zm-1 .421l1.235.782c.28.187.75.484.75 1.094 0 .734-.75 1.25-1.563 1.25C1.64-.063.922-.672.922-1.5c0-.578.312-1.219 1.156-1.688zm0 0" stroke="none"/></symbol><symbol id="m" overflow="visible"><path d="M4.578-3.188c0-.796-.047-1.593-.39-2.328C3.733-6.484 2.905-6.64 2.5-6.64c-.61 0-1.328.266-1.75 1.188-.313.687-.36 1.469-.36 2.266 0 .75.032 1.64.454 2.406a1.83 1.83 0 0 0 1.64 1c.532 0 1.297-.203 1.735-1.157.312-.687.36-1.468.36-2.25zM2.484 0c-.39 0-.984-.25-1.156-1.203-.11-.594-.11-1.516-.11-2.11 0-.64 0-1.296.079-1.828.187-1.187.937-1.28 1.187-1.28.329 0 .985.187 1.172 1.171.11.563.11 1.313.11 1.938 0 .75 0 1.421-.11 2.062C3.5-.297 2.937 0 2.484 0zm0 0" stroke="none"/></symbol><symbol id="n" overflow="visible"><path d="M2.313-6.672c-.094-.125-.094-.14-.282-.14H.328v.312h.297c.14 0 .344.016.484.016.235.03.25.046.25.234v5.203c0 .266 0 .734-1.03.734V0c.343-.016.843-.031 1.171-.031.328 0 .813.015 1.156.031v-.313c-1.015 0-1.015-.468-1.015-.734v-5.187c.046.046.046.062.093.125L5.797-.125c.094.11.11.125.172.125.14 0 .14-.063.14-.266v-5.5c0-.265 0-.734 1.032-.734v-.313c-.36.016-.844.032-1.172.032-.328 0-.813-.016-1.157-.032v.313c1.016 0 1.016.469 1.016.734V-1.5zm0 0" stroke="none"/></symbol></defs><use y="134.765" x="223.432" xlink:href="#i" width="744.094" height="1052.362"/><use y="136.259" x="229.839" xlink:href="#j" width="744.094" height="1052.362"/><use y="134.765" x="237.075" xlink:href="#k" width="744.094" height="1052.362"/><use y="134.765" x="247.594" xlink:href="#l" width="744.094" height="1052.362"/><use y="134.765" x="252.575" xlink:href="#m" width="744.094" height="1052.362"/><use y="134.765" x="257.556" xlink:href="#m" width="744.094" height="1052.362"/><g><use y="134.765" x="264.191" xlink:href="#n" width="744.094" height="1052.362"/></g></g><path d="M178.898 380.27h283.464M178.898 380.27l100.22 100.22" style="marker:none" color="#000" fill="none" stroke="#d40000" stroke-width="3" stroke-linecap="round" stroke-linejoin="round" marker-end="url(#a)" overflow="visible"/><path style="marker:none" d="M393.908 668.034l-322.353-84.2" color="#000" fill="#c837ab" stroke="#f60" stroke-width="3" stroke-linecap="round" stroke-linejoin="round" marker-end="url(#b)" overflow="visible"/><path d="M500.263 668.365a106.022 106.022 0 0 1-3.613 27.44" style="marker:none" color="#000" fill="none" stroke="#999" stroke-width="2.00077437" stroke-linecap="round" stroke-linejoin="round" overflow="visible"/><path style="marker:none" d="M478.108 752.234h239.346" color="#000" fill="none" stroke="#d40000" stroke-width="2" stroke-linecap="round" stroke-linejoin="round" stroke-dasharray="1.99999999,4" overflow="visible"/><path style="marker:none" d="M632.062 668.034l84.2 84.2" color="#000" fill="none" stroke="#d40000" stroke-width="2" stroke-linecap="round" stroke-linejoin="round" stroke-dasharray="2,4" overflow="visible"/><path d="M593.1 668.034a38.962 38.962 0 0 1 66.512 27.55" style="marker:none" color="#000" fill="#fff" stroke="#999" stroke-width="1.9997876800000003" stroke-linecap="round" stroke-linejoin="round" overflow="visible"/><path d="M648.897 734.183a69.74 69.74 0 0 1 18.05-31.264" style="marker:none" color="#000" fill="none" stroke="#999" stroke-width="1.99973184" stroke-linecap="round" stroke-linejoin="round" overflow="visible"/><path d="M181.212 668.034h536.242" style="marker:none" color="#000" fill="none" stroke="#999" stroke-width="2" stroke-linecap="round" stroke-linejoin="round" stroke-dasharray="2.00000002,4.00000004" overflow="visible"/><path style="marker:none" d="M393.908 668.034h238.154M393.908 668.034l84.2 84.2" color="#000" fill="none" stroke="#d40000" stroke-width="3" stroke-linecap="round" stroke-linejoin="round" marker-end="url(#a)" overflow="visible"/><g ns0:text="$F_3$\n" ns0:preamble="/home/waldgeist/data/homepage/inkscape-preamble.tex" transform="matrix(2.52046 0 0 2.52046 -13.79 395.627)" fill="#f60" stroke="#d40000" stroke-width="1.19"><defs><symbol overflow="visible" id="o"><path d="M3.016-3.234h.968c.75 0 .829.156.829.437 0 .078 0 .188-.063.5-.031.047-.031.078-.031.11 0 .078.062.109.11.109.109 0 .109-.031.155-.203l.547-2.172c.032-.11.032-.125.032-.156a.117.117 0 0 0-.125-.11c-.094 0-.11.047-.141.219-.219.766-.438.953-1.297.953h-.906l.64-2.531c.094-.36.11-.39.547-.39h1.313c1.218 0 1.453.327 1.453 1.093 0 .234 0 .266-.031.547C7-4.703 7-4.688 7-4.656c0 .047.031.125.125.125.11 0 .11-.063.125-.25l.203-1.735c.031-.265-.016-.265-.266-.265h-4.89c-.188 0-.297 0-.297.203 0 .11.094.11.281.11.375 0 .656 0 .656.171 0 .047 0 .063-.062.25L1.562-.78c-.093.39-.109.469-.906.469-.172 0-.281 0-.281.187C.375 0 .5 0 .531 0c.281 0 1.031-.031 1.313-.031C2.172-.031 3 0 3.328 0c.094 0 .203 0 .203-.188 0-.078-.047-.109-.047-.109-.03-.016-.062-.016-.28-.016-.22 0-.267 0-.517-.015-.296-.031-.328-.078-.328-.203 0-.016 0-.078.047-.219zm0 0" stroke="none"/></symbol><symbol overflow="visible" id="p"><path d="M1.906-2.328c.547 0 .938.375.938 1.125 0 .86-.516 1.125-.906 1.125-.282 0-.907-.078-1.188-.5.328 0 .406-.235.406-.39 0-.22-.172-.376-.39-.376a.38.38 0 0 0-.391.407C.375-.281 1.094.14 1.938.14c.968 0 1.64-.657 1.64-1.344 0-.547-.437-1.094-1.203-1.25.719-.266.984-.781.984-1.219 0-.547-.625-.953-1.406-.953-.766 0-1.36.375-1.36.938 0 .234.157.359.36.359.219 0 .36-.156.36-.344 0-.203-.141-.36-.36-.375.25-.297.719-.375.985-.375.312 0 .75.156.75.75 0 .297-.094.625-.282.828-.219.266-.422.281-.765.313-.172.015-.188.015-.22.015-.015 0-.077.016-.077.094 0 .094.062.094.187.094zm0 0" stroke="none"/></symbol></defs><use height="1052.362" width="744.094" xlink:href="#o" x="223.432" y="134.765"/><use height="1052.362" width="744.094" xlink:href="#p" x="229.839" y="136.259"/></g><path style="marker:none" d="M326.544 649.983a69.74 69.74 0 0 1 18.05-31.264" color="#000" fill="none" stroke="#999" stroke-width="1.99973184" stroke-linecap="round" stroke-linejoin="round" overflow="visible"/><g transform="translate(-66.614 402.526) scale(1.71937)" ns0:preamble="/home/waldgeist/data/homepage/inkscape-preamble.tex" ns0:text="$\\beta$\n" fill="#999"><defs><symbol id="q" overflow="visible"><path d="M5.734-5.672c0-.75-.546-1.36-1.359-1.36-.578 0-.86.157-1.203.407C2.625-6.219 2.078-5.25 1.89-4.5L.297 1.828c0 .047.047.11.125.11s.11-.032.11-.047l.702-2.766c.188.61.625.969 1.36.969.719 0 1.469-.344 1.922-.781a2.486 2.486 0 0 0 .796-1.829c0-.718-.375-1.25-.734-1.484.578-.344 1.156-.953 1.156-1.672zM3.938-4.016c-.126.047-.235.063-.485.063-.14 0-.328.015-.437-.031.03-.11.39-.079.5-.079.203 0 .296 0 .421.047zm1.234-1.89c0 .703-.375 1.422-.89 1.734-.282-.11-.47-.125-.766-.125-.22 0-.782-.016-.782.313 0 .28.516.25.688.25.375 0 .531 0 .828-.125.375.359.422.671.438 1.125.015.578-.22 1.328-.5 1.718-.391.532-1.063.891-1.625.891-.766 0-1.141-.578-1.141-1.281 0-.094 0-.25.047-.438l.64-2.515c.22-.86.938-2.454 2.141-2.454.578 0 .922.313.922.907zm0 0"/></symbol></defs><use y="134.765" x="223.432" xlink:href="#q"/></g><g ns0:text="$\\alpha$" ns0:preamble="/home/waldgeist/data/homepage/inkscape-preamble.tex" transform="matrix(1.77804 0 0 1.77804 -93.129 423.255)" fill="#999"><defs><symbol overflow="visible" id="r"><path d="M4.75-2.36c0-1.562-.922-2.046-1.656-2.046-1.375 0-2.688 1.422-2.688 2.828C.406-.641 1 .109 2.031.109c.625 0 1.344-.234 2.094-.843.125.53.453.843.906.843.532 0 .844-.546.844-.703 0-.078-.063-.11-.125-.11-.063 0-.094.032-.125.11-.188.485-.547.485-.563.485-.312 0-.312-.782-.312-1.016 0-.203 0-.234.11-.344C5.796-2.656 6-3.812 6-3.812c0-.032-.016-.11-.125-.11-.094 0-.094.031-.14.219-.188.625-.516 1.375-.985 1.969zM4.094-.983c-.89.765-1.657.875-2.047.875-.594 0-.906-.454-.906-1.094 0-.484.265-1.563.578-2.063.468-.734 1.015-.921 1.36-.921.983 0 .983 1.312.983 2.078 0 .375 0 .953.032 1.125zm0 0"/></symbol></defs><use xlink:href="#r" x="223.432" y="134.765"/></g><use height="1052.362" width="744.094" y="134.765" x="223.432" xlink:href="#q" transform="translate(280.526 499.911) scale(1.71937)" ns0:preamble="/home/waldgeist/data/homepage/inkscape-preamble.tex" ns0:text="$\\beta$\n" fill="#999"/><g ns0:text="$\\gamma$\n" ns0:preamble="/home/waldgeist/data/homepage/inkscape-preamble.tex" transform="translate(237.332 458.147) scale(1.71937)" fill="#999"><defs><symbol overflow="visible" id="s"><path d="M.406-2.531C.796-3.671 1.891-3.687 2-3.687c1.5 0 1.61 1.75 1.61 2.53 0 .61-.047.782-.126.985-.218.719-.515 1.875-.515 2.14 0 .11.047.173.125.173.14 0 .219-.22.328-.594.234-.844.328-1.406.36-1.719.03-.125.046-.25.093-.39.313-.985.953-2.47 1.344-3.25.078-.126.187-.344.187-.391 0-.094-.093-.094-.11-.094-.03 0-.093 0-.124.063-.516.953-.922 1.953-1.313 2.953-.015-.297-.015-1.063-.406-2.032-.25-.609-.64-1.093-1.328-1.093-1.25 0-1.953 1.515-1.953 1.828 0 .094.094.094.203.094zm0 0"/></symbol></defs><use xlink:href="#s" x="223.432" y="134.765" width="744.094" height="1052.362"/></g><use y="134.765" x="223.432" xlink:href="#r" width="744.094" height="1052.362" transform="matrix(1.77804 0 0 1.77804 77.777 444.266)" ns0:preamble="/home/waldgeist/data/homepage/inkscape-preamble.tex" ns0:text="$\\alpha$" fill="#999"/><path transform="translate(343.034 873.545)" d="M106.3-205.512a53.15 53.15 0 0 1-15.568 37.583L53.15-205.512z" style="marker:none" color="#000" fill="#fff" stroke="#d40000" stroke-width="3" stroke-linecap="round" stroke-linejoin="round" overflow="visible" marker-start="url(#t)"/><path transform="translate(343.034 873.545)" d="M90.732-167.93a53.15 53.15 0 0 1-89.04-50.884l51.458 13.302z" style="marker:none" color="#000" fill="#fff" stroke="#d40000" stroke-width="3" stroke-linecap="round" stroke-linejoin="round" marker-start="url(#t)" overflow="visible"/><path style="marker:none" d="M1.763-219.089A53.15 53.15 0 0 1 106.3-205.512H53.15z" transform="translate(343.034 873.545)" color="#000" fill="#fff" stroke="#d40000" stroke-width="3" stroke-linecap="round" stroke-linejoin="round" overflow="visible" marker-start="url(#t)"/><g ns0:text="$\\gamma ^{*}$" ns0:preamble="/home/waldgeist/data/homepage/inkscape-preamble.tex" transform="translate(-316.096 86.12) scale(2.33283)" fill="#d40000"><defs><symbol overflow="visible" id="u"><path d="M.406-2.531C.796-3.671 1.891-3.687 2-3.687c1.5 0 1.61 1.75 1.61 2.53 0 .61-.047.782-.126.985-.218.719-.515 1.875-.515 2.14 0 .11.047.173.125.173.14 0 .219-.22.328-.594.234-.844.328-1.406.36-1.719.03-.125.046-.25.093-.39.313-.985.953-2.47 1.344-3.25.078-.126.187-.344.187-.391 0-.094-.093-.094-.11-.094-.03 0-.093 0-.124.063-.516.953-.922 1.953-1.313 2.953-.015-.297-.015-1.063-.406-2.032-.25-.609-.64-1.093-1.328-1.093-1.25 0-1.953 1.515-1.953 1.828 0 .094.094.094.203.094zm0 0"/></symbol><symbol overflow="visible" id="v"><path d="M2.25-1.734c.578-.25.828-.344 1-.438.14-.047.203-.078.203-.219a.223.223 0 0 0-.219-.218c-.046 0-.062 0-.14.062l-.953.64.109-1.03c.016-.126 0-.297-.219-.297-.078 0-.219.046-.219.203 0 .062.032.265.047.344.016.109.063.624.079.78l-.954-.64c-.062-.031-.078-.062-.14-.062-.14 0-.219.109-.219.218 0 .141.078.188.14.204l1.047.453c-.562.25-.828.343-1 .421-.125.063-.187.094-.187.22 0 .124.078.218.219.218.047 0 .062 0 .14-.063l.954-.625-.125 1.11c0 .156.14.219.218.219.094 0 .219-.063.219-.22 0-.062-.031-.265-.031-.327-.016-.125-.063-.625-.078-.781l.828.546c.187.141.203.141.265.141a.214.214 0 0 0 .22-.219c0-.14-.095-.172-.157-.203zm0 0"/></symbol></defs><use height="1052.362" width="744.094" xlink:href="#u" x="223.432" y="134.765"/><use height="1052.362" width="744.094" xlink:href="#v" x="229.144" y="131.149"/></g><g ns0:preamble="/home/waldgeist/data/homepage/inkscape-preamble.tex" ns0:text="$\\gamma ^{*}$" fill="#999"><use y="134.765" x="223.432" xlink:href="#u" width="744.094" height="1052.362" transform="matrix(1.77804 0 0 1.77804 93.788 158.734)"/><use y="131.149" x="229.144" xlink:href="#v" width="744.094" height="1052.362" transform="matrix(1.77804 0 0 1.77804 93.788 158.734)"/></g><g ns0:text="$180^{\\circ}\\!\\!-\\!\\gamma ^{*}$\n" ns0:preamble="/home/waldgeist/data/homepage/inkscape-preamble.tex" transform="matrix(1.5479 0 0 1.5479 85.303 209.383)" fill="#999"><defs><symbol overflow="visible" id="w"><path d="M2.938-6.375c0-.25 0-.266-.235-.266C2.078-6 1.203-6 .891-6v.313c.203 0 .78 0 1.296-.266v5.172c0 .36-.03.469-.921.469H.953V0c.344-.031 1.203-.031 1.61-.031.39 0 1.265 0 1.609.031v-.313h-.313c-.906 0-.921-.109-.921-.468zm0 0"/></symbol><symbol overflow="visible" id="x"><path d="M1.625-4.563c-.453-.296-.5-.625-.5-.796 0-.61.656-1.032 1.36-1.032.718 0 1.359.516 1.359 1.235 0 .578-.39 1.047-.985 1.39zm1.453.954c.719-.375 1.203-.891 1.203-1.547 0-.922-.875-1.485-1.781-1.485-1 0-1.813.735-1.813 1.672 0 .172.016.625.438 1.094.11.11.484.36.734.531C1.281-3.047.422-2.5.422-1.5.422-.453 1.438.219 2.484.219c1.125 0 2.079-.828 2.079-1.89 0-.36-.11-.813-.5-1.235-.188-.203-.344-.297-.985-.703zm-1 .421l1.235.782c.28.187.75.484.75 1.094 0 .734-.75 1.25-1.563 1.25C1.64-.063.922-.672.922-1.5c0-.578.312-1.219 1.156-1.688zm0 0"/></symbol><symbol overflow="visible" id="y"><path d="M4.578-3.188c0-.796-.047-1.593-.39-2.328C3.733-6.484 2.905-6.64 2.5-6.64c-.61 0-1.328.266-1.75 1.188-.313.687-.36 1.469-.36 2.266 0 .75.032 1.64.454 2.406a1.83 1.83 0 0 0 1.64 1c.532 0 1.297-.203 1.735-1.157.312-.687.36-1.468.36-2.25zM2.484 0c-.39 0-.984-.25-1.156-1.203-.11-.594-.11-1.516-.11-2.11 0-.64 0-1.296.079-1.828.187-1.187.937-1.28 1.187-1.28.329 0 .985.187 1.172 1.171.11.563.11 1.313.11 1.938 0 .75 0 1.421-.11 2.062C3.5-.297 2.937 0 2.484 0zm0 0"/></symbol><symbol overflow="visible" id="z"><path d="M3.531-1.734c0-.844-.672-1.5-1.5-1.5s-1.5.671-1.5 1.484a1.5 1.5 0 0 0 1.5 1.5c.844 0 1.5-.672 1.5-1.484zm-1.5 1.14A1.157 1.157 0 1 1 3.187-1.75c0 .656-.515 1.156-1.156 1.156zm0 0"/></symbol><symbol overflow="visible" id="C"><path d="M2.25-1.734c.578-.25.828-.344 1-.438.14-.047.203-.078.203-.219a.223.223 0 0 0-.219-.218c-.046 0-.062 0-.14.062l-.953.64.109-1.03c.016-.126 0-.297-.219-.297-.078 0-.219.046-.219.203 0 .062.032.265.047.344.016.109.063.624.079.78l-.954-.64c-.062-.031-.078-.062-.14-.062-.14 0-.219.109-.219.218 0 .141.078.188.14.204l1.047.453c-.562.25-.828.343-1 .421-.125.063-.187.094-.187.22 0 .124.078.218.219.218.047 0 .062 0 .14-.063l.954-.625-.125 1.11c0 .156.14.219.218.219.094 0 .219-.063.219-.22 0-.062-.031-.265-.031-.327-.016-.125-.063-.625-.078-.781l.828.546c.187.141.203.141.265.141a.214.214 0 0 0 .22-.219c0-.14-.095-.172-.157-.203zm0 0"/></symbol><symbol overflow="visible" id="A"><path d="M6.563-2.297c.171 0 .359 0 .359-.203 0-.188-.188-.188-.36-.188h-5.39c-.172 0-.344 0-.344.188 0 .203.172.203.344.203zm0 0"/></symbol><symbol overflow="visible" id="B"><path d="M.406-2.531C.796-3.671 1.891-3.687 2-3.687c1.5 0 1.61 1.75 1.61 2.53 0 .61-.047.782-.126.985-.218.719-.515 1.875-.515 2.14 0 .11.047.173.125.173.14 0 .219-.22.328-.594.234-.844.328-1.406.36-1.719.03-.125.046-.25.093-.39.313-.985.953-2.47 1.344-3.25.078-.126.187-.344.187-.391 0-.094-.093-.094-.11-.094-.03 0-.093 0-.124.063-.516.953-.922 1.953-1.313 2.953-.015-.297-.015-1.063-.406-2.032-.25-.609-.64-1.093-1.328-1.093-1.25 0-1.953 1.515-1.953 1.828 0 .094.094.094.203.094zm0 0"/></symbol></defs><g fill="#000"><use height="1052.362" width="744.094" xlink:href="#w" x="223.432" y="134.765"/><use height="1052.362" width="744.094" xlink:href="#x" x="228.413" y="134.765"/><use height="1052.362" width="744.094" xlink:href="#y" x="233.395" y="134.765"/><use height="1052.362" width="744.094" xlink:href="#z" x="238.376" y="131.149"/><use height="1052.362" width="744.094" xlink:href="#A" x="241.849" y="134.765"/><g><use height="1052.362" width="744.094" xlink:href="#B" x="250.151" y="134.765"/></g><g><use height="1052.362" width="744.094" xlink:href="#C" x="255.863" y="131.149"/></g></g></g><g transform="translate(56.01 169.373) scale(1.71937)" ns0:preamble="/home/waldgeist/data/homepage/inkscape-preamble.tex" ns0:text="$\\gamma = $\n" fill="#999"><defs><symbol id="D" overflow="visible"><path d="M.406-2.531C.796-3.671 1.891-3.687 2-3.687c1.5 0 1.61 1.75 1.61 2.53 0 .61-.047.782-.126.985-.218.719-.515 1.875-.515 2.14 0 .11.047.173.125.173.14 0 .219-.22.328-.594.234-.844.328-1.406.36-1.719.03-.125.046-.25.093-.39.313-.985.953-2.47 1.344-3.25.078-.126.187-.344.187-.391 0-.094-.093-.094-.11-.094-.03 0-.093 0-.124.063-.516.953-.922 1.953-1.313 2.953-.015-.297-.015-1.063-.406-2.032-.25-.609-.64-1.093-1.328-1.093-1.25 0-1.953 1.515-1.953 1.828 0 .094.094.094.203.094zm0 0"/></symbol><symbol id="E" overflow="visible"><path d="M6.844-3.266c.156 0 .343 0 .343-.187 0-.203-.187-.203-.328-.203H.891c-.141 0-.329 0-.329.203 0 .187.188.187.329.187zm.015 1.938c.141 0 .329 0 .329-.203 0-.188-.188-.188-.344-.188H.89c-.141 0-.329 0-.329.188 0 .203.188.203.329.203zm0 0"/></symbol></defs><g fill="#000"><use y="134.765" x="223.432" xlink:href="#D" width="744.094" height="1052.362"/><use y="134.765" x="231.911" xlink:href="#E" width="744.094" height="1052.362"/></g></g><path d="M324.168 668.034a69.74 69.74 0 0 1 2.286-17.71" style="marker:none" color="#000" fill="none" stroke="#999" stroke-width="1.99973184" stroke-linecap="round" stroke-linejoin="round" overflow="visible"/><g ns0:preamble="/home/waldgeist/data/homepage/inkscape-preamble.tex" ns0:text="$F_3$\n" fill="#f60" stroke="#d40000" stroke-width="1.19"><use y="134.765" x="223.432" xlink:href="#o" width="744.094" height="1052.362" transform="matrix(2.52046 0 0 2.52046 -373.161 307.899)"/><use y="136.259" x="229.839" xlink:href="#p" width="744.094" height="1052.362" transform="matrix(2.52046 0 0 2.52046 -373.161 307.899)"/></g><g ns0:preamble="/home/waldgeist/data/homepage/inkscape-preamble.tex" ns0:text="$\\gamma ^{*}$" fill="#d40000"><use y="134.765" x="223.432" xlink:href="#u" width="744.094" height="1052.362" transform="matrix(1.88805 0 0 1.88805 .99 431.925)"/><use y="131.149" x="229.144" xlink:href="#v" width="744.094" height="1052.362" transform="matrix(1.88805 0 0 1.88805 .99 431.925)"/></g><path style="marker:none" d="M0-205.512a53.15 53.15 0 0 1 90.732-37.582" transform="matrix(1 0 0 -1 409.213 174.76)" color="#000" fill="none" stroke="#999" stroke-width="2" stroke-linecap="round" stroke-linejoin="round" overflow="visible" marker-start="url(#t)"/><path transform="translate(409.213 585.783)" d="M106.3-205.512a53.15 53.15 0 0 1-15.568 37.583" style="marker:none" color="#000" fill="#fff" stroke="#999" stroke-width="2" stroke-linecap="round" stroke-linejoin="round" overflow="visible" marker-end="url(#b)"/><g ns0:text="$\\beta^{*}=$" ns0:preamble="/home/waldgeist/data/homepage/inkscape-preamble.tex" transform="matrix(1.61712 0 0 1.61712 3.573 466.468)" fill="#d40000"><defs><symbol overflow="visible" id="F"><path d="M5.734-5.672c0-.75-.546-1.36-1.359-1.36-.578 0-.86.157-1.203.407C2.625-6.219 2.078-5.25 1.89-4.5L.297 1.828c0 .047.047.11.125.11s.11-.032.11-.047l.702-2.766c.188.61.625.969 1.36.969.719 0 1.469-.344 1.922-.781a2.486 2.486 0 0 0 .796-1.829c0-.718-.375-1.25-.734-1.484.578-.344 1.156-.953 1.156-1.672zM3.938-4.016c-.126.047-.235.063-.485.063-.14 0-.328.015-.437-.031.03-.11.39-.079.5-.079.203 0 .296 0 .421.047zm1.234-1.89c0 .703-.375 1.422-.89 1.734-.282-.11-.47-.125-.766-.125-.22 0-.782-.016-.782.313 0 .28.516.25.688.25.375 0 .531 0 .828-.125.375.359.422.671.438 1.125.015.578-.22 1.328-.5 1.718-.391.532-1.063.891-1.625.891-.766 0-1.141-.578-1.141-1.281 0-.094 0-.25.047-.438l.64-2.515c.22-.86.938-2.454 2.141-2.454.578 0 .922.313.922.907zm0 0"/></symbol><symbol overflow="visible" id="G"><path d="M2.25-1.734c.578-.25.828-.344 1-.438.14-.047.203-.078.203-.219a.223.223 0 0 0-.219-.218c-.046 0-.062 0-.14.062l-.953.64.109-1.03c.016-.126 0-.297-.219-.297-.078 0-.219.046-.219.203 0 .062.032.265.047.344.016.109.063.624.079.78l-.954-.64c-.062-.031-.078-.062-.14-.062-.14 0-.219.109-.219.218 0 .141.078.188.14.204l1.047.453c-.562.25-.828.343-1 .421-.125.063-.187.094-.187.22 0 .124.078.218.219.218.047 0 .062 0 .14-.063l.954-.625-.125 1.11c0 .156.14.219.218.219.094 0 .219-.063.219-.22 0-.062-.031-.265-.031-.327-.016-.125-.063-.625-.078-.781l.828.546c.187.141.203.141.265.141a.214.214 0 0 0 .22-.219c0-.14-.095-.172-.157-.203zm0 0"/></symbol><symbol overflow="visible" id="H"><path d="M6.844-3.266c.156 0 .343 0 .343-.187 0-.203-.187-.203-.328-.203H.891c-.141 0-.329 0-.329.203 0 .187.188.187.329.187zm.015 1.938c.141 0 .329 0 .329-.203 0-.188-.188-.188-.344-.188H.89c-.141 0-.329 0-.329.188 0 .203.188.203.329.203zm0 0"/></symbol></defs><use height="1052.362" width="744.094" xlink:href="#F" x="223.432" y="134.765"/><use height="1052.362" width="744.094" xlink:href="#G" x="229.593" y="131.149"/><use height="1052.362" width="744.094" xlink:href="#H" x="236.94" y="134.765"/></g><g transform="matrix(1.61712 0 0 1.61712 -6.74 482.135)" ns0:preamble="/home/waldgeist/data/homepage/inkscape-preamble.tex" ns0:text="$ 180 - \\beta$" fill="#d40000"><defs><symbol id="I" overflow="visible"><path d="M2.938-6.375c0-.25 0-.266-.235-.266C2.078-6 1.203-6 .891-6v.313c.203 0 .78 0 1.296-.266v5.172c0 .36-.03.469-.921.469H.953V0c.344-.031 1.203-.031 1.61-.031.39 0 1.265 0 1.609.031v-.313h-.313c-.906 0-.921-.109-.921-.468zm0 0"/></symbol><symbol id="J" overflow="visible"><path d="M1.625-4.563c-.453-.296-.5-.625-.5-.796 0-.61.656-1.032 1.36-1.032.718 0 1.359.516 1.359 1.235 0 .578-.39 1.047-.985 1.39zm1.453.954c.719-.375 1.203-.891 1.203-1.547 0-.922-.875-1.485-1.781-1.485-1 0-1.813.735-1.813 1.672 0 .172.016.625.438 1.094.11.11.484.36.734.531C1.281-3.047.422-2.5.422-1.5.422-.453 1.438.219 2.484.219c1.125 0 2.079-.828 2.079-1.89 0-.36-.11-.813-.5-1.235-.188-.203-.344-.297-.985-.703zm-1 .421l1.235.782c.28.187.75.484.75 1.094 0 .734-.75 1.25-1.563 1.25C1.64-.063.922-.672.922-1.5c0-.578.312-1.219 1.156-1.688zm0 0"/></symbol><symbol id="K" overflow="visible"><path d="M4.578-3.188c0-.796-.047-1.593-.39-2.328C3.733-6.484 2.905-6.64 2.5-6.64c-.61 0-1.328.266-1.75 1.188-.313.687-.36 1.469-.36 2.266 0 .75.032 1.64.454 2.406a1.83 1.83 0 0 0 1.64 1c.532 0 1.297-.203 1.735-1.157.312-.687.36-1.468.36-2.25zM2.484 0c-.39 0-.984-.25-1.156-1.203-.11-.594-.11-1.516-.11-2.11 0-.64 0-1.296.079-1.828.187-1.187.937-1.28 1.187-1.28.329 0 .985.187 1.172 1.171.11.563.11 1.313.11 1.938 0 .75 0 1.421-.11 2.062C3.5-.297 2.937 0 2.484 0zm0 0"/></symbol><symbol id="L" overflow="visible"><path d="M6.563-2.297c.171 0 .359 0 .359-.203 0-.188-.188-.188-.36-.188h-5.39c-.172 0-.344 0-.344.188 0 .203.172.203.344.203zm0 0"/></symbol><symbol id="M" overflow="visible"><path d="M5.734-5.672c0-.75-.546-1.36-1.359-1.36-.578 0-.86.157-1.203.407C2.625-6.219 2.078-5.25 1.89-4.5L.297 1.828c0 .047.047.11.125.11s.11-.032.11-.047l.702-2.766c.188.61.625.969 1.36.969.719 0 1.469-.344 1.922-.781a2.486 2.486 0 0 0 .796-1.829c0-.718-.375-1.25-.734-1.484.578-.344 1.156-.953 1.156-1.672zM3.938-4.016c-.126.047-.235.063-.485.063-.14 0-.328.015-.437-.031.03-.11.39-.079.5-.079.203 0 .296 0 .421.047zm1.234-1.89c0 .703-.375 1.422-.89 1.734-.282-.11-.47-.125-.766-.125-.22 0-.782-.016-.782.313 0 .28.516.25.688.25.375 0 .531 0 .828-.125.375.359.422.671.438 1.125.015.578-.22 1.328-.5 1.718-.391.532-1.063.891-1.625.891-.766 0-1.141-.578-1.141-1.281 0-.094 0-.25.047-.438l.64-2.515c.22-.86.938-2.454 2.141-2.454.578 0 .922.313.922.907zm0 0"/></symbol></defs><use height="1052.362" width="744.094" y="134.765" x="223.432" xlink:href="#I"/><use height="1052.362" width="744.094" y="134.765" x="228.413" xlink:href="#J"/><use height="1052.362" width="744.094" y="134.765" x="233.395" xlink:href="#K"/><g><use height="1052.362" width="744.094" y="134.765" x="240.59" xlink:href="#L"/></g><g><use height="1052.362" width="744.094" y="134.765" x="250.553" xlink:href="#M"/></g></g><g transform="matrix(1.62073 0 0 1.62073 18.749 419.924)" ns0:preamble="/home/waldgeist/data/homepage/inkscape-preamble.tex" ns0:text="$\\alpha^{*}=$" fill="#d40000"><defs><symbol id="N" overflow="visible"><path d="M4.75-2.36c0-1.562-.922-2.046-1.656-2.046-1.375 0-2.688 1.422-2.688 2.828C.406-.641 1 .109 2.031.109c.625 0 1.344-.234 2.094-.843.125.53.453.843.906.843.532 0 .844-.546.844-.703 0-.078-.063-.11-.125-.11-.063 0-.094.032-.125.11-.188.485-.547.485-.563.485-.312 0-.312-.782-.312-1.016 0-.203 0-.234.11-.344C5.796-2.656 6-3.812 6-3.812c0-.032-.016-.11-.125-.11-.094 0-.094.031-.14.219-.188.625-.516 1.375-.985 1.969zM4.094-.983c-.89.765-1.657.875-2.047.875-.594 0-.906-.454-.906-1.094 0-.484.265-1.563.578-2.063.468-.734 1.015-.921 1.36-.921.983 0 .983 1.312.983 2.078 0 .375 0 .953.032 1.125zm0 0"/></symbol><symbol id="O" overflow="visible"><path d="M2.25-1.734c.578-.25.828-.344 1-.438.14-.047.203-.078.203-.219a.223.223 0 0 0-.219-.218c-.046 0-.062 0-.14.062l-.953.64.109-1.03c.016-.126 0-.297-.219-.297-.078 0-.219.046-.219.203 0 .062.032.265.047.344.016.109.063.624.079.78l-.954-.64c-.062-.031-.078-.062-.14-.062-.14 0-.219.109-.219.218 0 .141.078.188.14.204l1.047.453c-.562.25-.828.343-1 .421-.125.063-.187.094-.187.22 0 .124.078.218.219.218.047 0 .062 0 .14-.063l.954-.625-.125 1.11c0 .156.14.219.218.219.094 0 .219-.063.219-.22 0-.062-.031-.265-.031-.327-.016-.125-.063-.625-.078-.781l.828.546c.187.141.203.141.265.141a.214.214 0 0 0 .22-.219c0-.14-.095-.172-.157-.203zm0 0"/></symbol><symbol id="P" overflow="visible"><path d="M6.844-3.266c.156 0 .343 0 .343-.187 0-.203-.187-.203-.328-.203H.891c-.141 0-.329 0-.329.203 0 .187.188.187.329.187zm.015 1.938c.141 0 .329 0 .329-.203 0-.188-.188-.188-.344-.188H.89c-.141 0-.329 0-.329.188 0 .203.188.203.329.203zm0 0"/></symbol></defs><use height="1052.362" width="744.094" y="134.765" x="223.432" xlink:href="#N"/><use height="1052.362" width="744.094" y="131.149" x="229.842" xlink:href="#O"/><use height="1052.362" width="744.094" y="134.765" x="237.189" xlink:href="#P"/></g><g ns0:text="$ 180 - \\alpha$" ns0:preamble="/home/waldgeist/data/homepage/inkscape-preamble.tex" transform="matrix(1.62073 0 0 1.62073 8.489 435.279)" fill="#d40000"><defs><symbol overflow="visible" id="Q"><path d="M2.938-6.375c0-.25 0-.266-.235-.266C2.078-6 1.203-6 .891-6v.313c.203 0 .78 0 1.296-.266v5.172c0 .36-.03.469-.921.469H.953V0c.344-.031 1.203-.031 1.61-.031.39 0 1.265 0 1.609.031v-.313h-.313c-.906 0-.921-.109-.921-.468zm0 0"/></symbol><symbol overflow="visible" id="R"><path d="M1.625-4.563c-.453-.296-.5-.625-.5-.796 0-.61.656-1.032 1.36-1.032.718 0 1.359.516 1.359 1.235 0 .578-.39 1.047-.985 1.39zm1.453.954c.719-.375 1.203-.891 1.203-1.547 0-.922-.875-1.485-1.781-1.485-1 0-1.813.735-1.813 1.672 0 .172.016.625.438 1.094.11.11.484.36.734.531C1.281-3.047.422-2.5.422-1.5.422-.453 1.438.219 2.484.219c1.125 0 2.079-.828 2.079-1.89 0-.36-.11-.813-.5-1.235-.188-.203-.344-.297-.985-.703zm-1 .421l1.235.782c.28.187.75.484.75 1.094 0 .734-.75 1.25-1.563 1.25C1.64-.063.922-.672.922-1.5c0-.578.312-1.219 1.156-1.688zm0 0"/></symbol><symbol overflow="visible" id="S"><path d="M4.578-3.188c0-.796-.047-1.593-.39-2.328C3.733-6.484 2.905-6.64 2.5-6.64c-.61 0-1.328.266-1.75 1.188-.313.687-.36 1.469-.36 2.266 0 .75.032 1.64.454 2.406a1.83 1.83 0 0 0 1.64 1c.532 0 1.297-.203 1.735-1.157.312-.687.36-1.468.36-2.25zM2.484 0c-.39 0-.984-.25-1.156-1.203-.11-.594-.11-1.516-.11-2.11 0-.64 0-1.296.079-1.828.187-1.187.937-1.28 1.187-1.28.329 0 .985.187 1.172 1.171.11.563.11 1.313.11 1.938 0 .75 0 1.421-.11 2.062C3.5-.297 2.937 0 2.484 0zm0 0"/></symbol><symbol overflow="visible" id="T"><path d="M6.563-2.297c.171 0 .359 0 .359-.203 0-.188-.188-.188-.36-.188h-5.39c-.172 0-.344 0-.344.188 0 .203.172.203.344.203zm0 0"/></symbol><symbol overflow="visible" id="U"><path d="M4.75-2.36c0-1.562-.922-2.046-1.656-2.046-1.375 0-2.688 1.422-2.688 2.828C.406-.641 1 .109 2.031.109c.625 0 1.344-.234 2.094-.843.125.53.453.843.906.843.532 0 .844-.546.844-.703 0-.078-.063-.11-.125-.11-.063 0-.094.032-.125.11-.188.485-.547.485-.563.485-.312 0-.312-.782-.312-1.016 0-.203 0-.234.11-.344C5.796-2.656 6-3.812 6-3.812c0-.032-.016-.11-.125-.11-.094 0-.094.031-.14.219-.188.625-.516 1.375-.985 1.969zM4.094-.983c-.89.765-1.657.875-2.047.875-.594 0-.906-.454-.906-1.094 0-.484.265-1.563.578-2.063.468-.734 1.015-.921 1.36-.921.983 0 .983 1.312.983 2.078 0 .375 0 .953.032 1.125zm0 0"/></symbol></defs><use xlink:href="#Q" x="223.432" y="134.765" width="744.094" height="1052.362"/><use xlink:href="#R" x="228.413" y="134.765" width="744.094" height="1052.362"/><use xlink:href="#S" x="233.395" y="134.765" width="744.094" height="1052.362"/><g><use xlink:href="#T" x="240.59" y="134.765" width="744.094" height="1052.362"/></g><g><use xlink:href="#U" x="250.553" y="134.765" width="744.094" height="1052.362"/></g></g><g ns0:text="$F_1$\n" ns0:preamble="/home/waldgeist/data/homepage/inkscape-preamble.tex" transform="matrix(2.52046 0 0 2.52046 -61.604 318.719)" fill="#d40000" stroke="#d40000" stroke-width="1.19"><defs><symbol overflow="visible" id="V"><path d="M3.016-3.234h.968c.75 0 .829.156.829.437 0 .078 0 .188-.063.5-.031.047-.031.078-.031.11 0 .078.062.109.11.109.109 0 .109-.031.155-.203l.547-2.172c.032-.11.032-.125.032-.156a.117.117 0 0 0-.125-.11c-.094 0-.11.047-.141.219-.219.766-.438.953-1.297.953h-.906l.64-2.531c.094-.36.11-.39.547-.39h1.313c1.218 0 1.453.327 1.453 1.093 0 .234 0 .266-.031.547C7-4.703 7-4.688 7-4.656c0 .047.031.125.125.125.11 0 .11-.063.125-.25l.203-1.735c.031-.265-.016-.265-.266-.265h-4.89c-.188 0-.297 0-.297.203 0 .11.094.11.281.11.375 0 .656 0 .656.171 0 .047 0 .063-.062.25L1.562-.78c-.093.39-.109.469-.906.469-.172 0-.281 0-.281.187C.375 0 .5 0 .531 0c.281 0 1.031-.031 1.313-.031C2.172-.031 3 0 3.328 0c.094 0 .203 0 .203-.188 0-.078-.047-.109-.047-.109-.03-.016-.062-.016-.28-.016-.22 0-.267 0-.517-.015-.296-.031-.328-.078-.328-.203 0-.016 0-.078.047-.219zm0 0" stroke="none"/></symbol><symbol overflow="visible" id="W"><path d="M2.328-4.438c0-.187 0-.187-.203-.187-.453.438-1.078.438-1.36.438v.25c.157 0 .626 0 1-.188v3.547c0 .234 0 .328-.687.328H.812V0c.125 0 .985-.031 1.235-.031.219 0 1.094.031 1.25.031v-.25H3.03c-.703 0-.703-.094-.703-.328zm0 0" stroke="none"/></symbol></defs><use xlink:href="#V" x="223.432" y="134.765" width="744.094" height="1052.362"/><use xlink:href="#W" x="229.839" y="136.259" width="744.094" height="1052.362"/></g><g transform="matrix(2.52046 0 0 2.52046 -135.394 407.826)" ns0:preamble="/home/waldgeist/data/homepage/inkscape-preamble.tex" ns0:text="$F_2$\n" fill="#d40000" stroke="#d40000" stroke-width="1.19"><defs><symbol id="X" overflow="visible"><path d="M3.016-3.234h.968c.75 0 .829.156.829.437 0 .078 0 .188-.063.5-.031.047-.031.078-.031.11 0 .078.062.109.11.109.109 0 .109-.031.155-.203l.547-2.172c.032-.11.032-.125.032-.156a.117.117 0 0 0-.125-.11c-.094 0-.11.047-.141.219-.219.766-.438.953-1.297.953h-.906l.64-2.531c.094-.36.11-.39.547-.39h1.313c1.218 0 1.453.327 1.453 1.093 0 .234 0 .266-.031.547C7-4.703 7-4.688 7-4.656c0 .047.031.125.125.125.11 0 .11-.063.125-.25l.203-1.735c.031-.265-.016-.265-.266-.265h-4.89c-.188 0-.297 0-.297.203 0 .11.094.11.281.11.375 0 .656 0 .656.171 0 .047 0 .063-.062.25L1.562-.78c-.093.39-.109.469-.906.469-.172 0-.281 0-.281.187C.375 0 .5 0 .531 0c.281 0 1.031-.031 1.313-.031C2.172-.031 3 0 3.328 0c.094 0 .203 0 .203-.188 0-.078-.047-.109-.047-.109-.03-.016-.062-.016-.28-.016-.22 0-.267 0-.517-.015-.296-.031-.328-.078-.328-.203 0-.016 0-.078.047-.219zm0 0" stroke="none"/></symbol><symbol id="Y" overflow="visible"><path d="M3.516-1.266H3.28c-.015.157-.094.563-.187.625-.047.047-.578.047-.688.047H1.125c.734-.64.984-.844 1.39-1.172.516-.406 1-.843 1-1.5 0-.843-.734-1.359-1.624-1.359-.86 0-1.454.61-1.454 1.25 0 .344.297.39.376.39.156 0 .359-.124.359-.374 0-.125-.047-.375-.406-.375.218-.485.687-.641 1.015-.641.703 0 1.063.547 1.063 1.11 0 .609-.438 1.078-.656 1.328L.516-.266C.437-.203.437-.187.437 0h2.876zm0 0" stroke="none"/></symbol></defs><use y="134.765" x="223.432" xlink:href="#X" width="744.094" height="1052.362"/><use y="136.259" x="229.839" xlink:href="#Y" width="744.094" height="1052.362"/></g><g ns0:text="$F_2$\n" ns0:preamble="/home/waldgeist/data/homepage/inkscape-preamble.tex" fill="#d40000" stroke="#d40000" stroke-width="1.19"><use height="1052.362" width="744.094" xlink:href="#X" x="223.432" y="134.765" transform="matrix(2.52046 0 0 2.52046 117.175 368.27)"/><use height="1052.362" width="744.094" xlink:href="#Y" x="229.839" y="136.259" transform="matrix(2.52046 0 0 2.52046 117.175 368.27)"/></g></svg>