<?xml version="1.0" encoding="UTF-8" standalone="no"?>
<!-- Created with Inkscape (http://www.inkscape.org/) -->

<svg
   xmlns:dc="http://purl.org/dc/elements/1.1/"
   xmlns:cc="http://creativecommons.org/ns#"
   xmlns:rdf="http://www.w3.org/1999/02/22-rdf-syntax-ns#"
   xmlns:svg="http://www.w3.org/2000/svg"
   xmlns="http://www.w3.org/2000/svg"
   xmlns:xlink="http://www.w3.org/1999/xlink"
   xmlns:sodipodi="http://sodipodi.sourceforge.net/DTD/sodipodi-0.dtd"
   xmlns:inkscape="http://www.inkscape.org/namespaces/inkscape"
   version="1.1"
   width="210mm"
   height="297mm"
   id="svg2"
   inkscape:version="0.48.4 r9939"
   sodipodi:docname="kraeftegleichgewicht-fehlende-dritte-kraft-loesung-1.svg">
  <sodipodi:namedview
     pagecolor="#ffffff"
     bordercolor="#666666"
     borderopacity="1"
     objecttolerance="10"
     gridtolerance="10"
     guidetolerance="10"
     inkscape:pageopacity="0"
     inkscape:pageshadow="2"
     inkscape:window-width="1600"
     inkscape:window-height="1150"
     id="namedview42033"
     showgrid="false"
     inkscape:zoom="1.2116039"
     inkscape:cx="431.03625"
     inkscape:cy="433.23556"
     inkscape:window-x="0"
     inkscape:window-y="0"
     inkscape:window-maximized="1"
     inkscape:current-layer="svg2" />
  <title
     id="title7501">Kraeftegleichgewicht (Loesung)</title>
  <defs
     id="defs4">
    <marker
       refX="0"
       refY="0"
       orient="auto"
       id="Arrow2Mstart"
       style="overflow:visible">
      <path
         d="M 8.7185878,4.0337352 -2.2072895,0.01601326 8.7185884,-4.0017078 c -1.7454984,2.3720609 -1.7354408,5.6174519 -6e-7,8.035443 z"
         transform="scale(0.6,0.6)"
         id="path3861"
         style="fill-rule:evenodd;stroke-width:0.625;stroke-linejoin:round" />
    </marker>
    <marker
       refX="0"
       refY="0"
       orient="auto"
       id="Arrow1Sstart"
       style="overflow:visible">
      <path
         d="M 0,0 5,-5 -12.5,0 5,5 0,0 z"
         transform="matrix(0.2,0,0,0.2,1.2,0)"
         id="path3849"
         style="fill-rule:evenodd;stroke:#000000;stroke-width:1pt" />
    </marker>
    <marker
       refX="0"
       refY="0"
       orient="auto"
       id="Arrow2Mend"
       style="overflow:visible">
      <path
         d="M 8.7185878,4.0337352 -2.2072895,0.01601326 8.7185884,-4.0017078 c -1.7454984,2.3720609 -1.7354408,5.6174519 -6e-7,8.035443 z"
         transform="scale(-0.6,-0.6)"
         id="path3864"
         style="fill-rule:evenodd;stroke-width:0.625;stroke-linejoin:round" />
    </marker>
    <marker
       refX="0"
       refY="0"
       orient="auto"
       id="marker7534"
       style="overflow:visible">
      <path
         d="M 8.7185878,4.0337352 -2.2072895,0.01601326 8.7185884,-4.0017078 c -1.7454984,2.3720609 -1.7354408,5.6174519 -6e-7,8.035443 z"
         transform="scale(-0.6,-0.6)"
         id="path7536"
         style="fill-rule:evenodd;stroke-width:0.625;stroke-linejoin:round" />
    </marker>
    <marker
       refX="0"
       refY="0"
       orient="auto"
       id="marker7538"
       style="overflow:visible">
      <path
         d="M 8.7185878,4.0337352 -2.2072895,0.01601326 8.7185884,-4.0017078 c -1.7454984,2.3720609 -1.7354408,5.6174519 -6e-7,8.035443 z"
         transform="scale(-0.6,-0.6)"
         id="path7540"
         style="fill-rule:evenodd;stroke-width:0.625;stroke-linejoin:round" />
    </marker>
    <marker
       refX="0"
       refY="0"
       orient="auto"
       id="marker7542"
       style="overflow:visible">
      <path
         d="M 8.7185878,4.0337352 -2.2072895,0.01601326 8.7185884,-4.0017078 c -1.7454984,2.3720609 -1.7354408,5.6174519 -6e-7,8.035443 z"
         transform="scale(-0.6,-0.6)"
         id="path7544"
         style="fill-rule:evenodd;stroke-width:0.625;stroke-linejoin:round" />
    </marker>
    <marker
       refX="0"
       refY="0"
       orient="auto"
       id="Arrow2Mend-0"
       style="overflow:visible">
      <path
         d="M 8.7185878,4.0337352 -2.2072895,0.01601326 8.7185884,-4.0017078 c -1.7454984,2.3720609 -1.7354408,5.6174519 -6e-7,8.035443 z"
         transform="scale(-0.6,-0.6)"
         id="path3864-7"
         style="fill-rule:evenodd;stroke-width:0.625;stroke-linejoin:round" />
    </marker>
    <marker
       refX="0"
       refY="0"
       orient="auto"
       id="marker12542"
       style="overflow:visible">
      <path
         d="M 8.7185878,4.0337352 -2.2072895,0.01601326 8.7185884,-4.0017078 c -1.7454984,2.3720609 -1.7354408,5.6174519 -6e-7,8.035443 z"
         transform="scale(-0.6,-0.6)"
         id="path12544"
         style="fill-rule:evenodd;stroke-width:0.625;stroke-linejoin:round" />
    </marker>
    <marker
       refX="0"
       refY="0"
       orient="auto"
       id="marker12546"
       style="overflow:visible">
      <path
         d="M 8.7185878,4.0337352 -2.2072895,0.01601326 8.7185884,-4.0017078 c -1.7454984,2.3720609 -1.7354408,5.6174519 -6e-7,8.035443 z"
         transform="scale(-0.6,-0.6)"
         id="path12548"
         style="fill-rule:evenodd;stroke-width:0.625;stroke-linejoin:round" />
    </marker>
    <marker
       refX="0"
       refY="0"
       orient="auto"
       id="marker12550"
       style="overflow:visible">
      <path
         d="M 8.7185878,4.0337352 -2.2072895,0.01601326 8.7185884,-4.0017078 c -1.7454984,2.3720609 -1.7354408,5.6174519 -6e-7,8.035443 z"
         transform="scale(-0.6,-0.6)"
         id="path12552"
         style="fill-rule:evenodd;stroke-width:0.625;stroke-linejoin:round" />
    </marker>
  </defs>
  <metadata
     id="metadata7">
    <rdf:RDF>
      <cc:Work
         rdf:about="">
        <dc:format>image/svg+xml</dc:format>
        <dc:type
           rdf:resource="http://purl.org/dc/dcmitype/StillImage" />
        <dc:title>Kraeftegleichgewicht (Loesung)</dc:title>
        <dc:creator>
          <cc:Agent>
            <dc:title>Bernhard Grotz</dc:title>
          </cc:Agent>
        </dc:creator>
        <dc:rights>
          <cc:Agent>
            <dc:title>Bernhard Grotz</dc:title>
          </cc:Agent>
        </dc:rights>
        <dc:publisher>
          <cc:Agent>
            <dc:title>Bernhard Grotz</dc:title>
          </cc:Agent>
        </dc:publisher>
        <dc:language>de-DE</dc:language>
        <cc:license
           rdf:resource="http://creativecommons.org/licenses/by-nc-sa/3.0/" />
        <dc:date>2015-11-01</dc:date>
        <dc:subject>
          <rdf:Bag>
            <rdf:li>Physik</rdf:li>
            <rdf:li>Mechanik</rdf:li>
            <rdf:li>Dynamik</rdf:li>
            <rdf:li>Zusammenwirken mehrerer Kraefte</rdf:li>
            <rdf:li>Kraeftegleichgewicht</rdf:li>
          </rdf:Bag>
        </dc:subject>
      </cc:Work>
      <cc:License
         rdf:about="http://creativecommons.org/licenses/by-nc-sa/3.0/">
        <cc:permits
           rdf:resource="http://creativecommons.org/ns#Reproduction" />
        <cc:permits
           rdf:resource="http://creativecommons.org/ns#Distribution" />
        <cc:requires
           rdf:resource="http://creativecommons.org/ns#Notice" />
        <cc:requires
           rdf:resource="http://creativecommons.org/ns#Attribution" />
        <cc:prohibits
           rdf:resource="http://creativecommons.org/ns#CommercialUse" />
        <cc:permits
           rdf:resource="http://creativecommons.org/ns#DerivativeWorks" />
        <cc:requires
           rdf:resource="http://creativecommons.org/ns#ShareAlike" />
      </cc:License>
    </rdf:RDF>
  </metadata>
  <rect
     style="color:#000000;fill:#ffffff;fill-opacity:1;fill-rule:nonzero;stroke:#ffffff;stroke-width:1.99999988;stroke-linecap:round;stroke-linejoin:round;stroke-miterlimit:4;stroke-opacity:1;stroke-dasharray:1.99999999, 3.99999999;stroke-dashoffset:0;marker:none;visibility:visible;display:inline;overflow:visible;enable-background:accumulate"
     id="rect42600"
     width="629.13391"
     height="198.42813"
     x="57.480286"
     y="426.96704"
     inkscape:export-filename="/home/waldgeist/data/homepage/pics/physik/mechanik/dynamik/kraeftegleichgewicht-fehlende-dritte-kraft-loesung-1.png"
     inkscape:export-xdpi="150"
     inkscape:export-ydpi="150" />
  <path
     inkscape:connector-curvature="0"
     style="color:#000000;fill:none;stroke:#999999;stroke-width:1.99999988;stroke-linecap:round;stroke-linejoin:round;stroke-miterlimit:4;stroke-opacity:1;stroke-dasharray:2.00000002, 4.00000004;stroke-dashoffset:0;marker:none;visibility:visible;display:inline;overflow:visible;enable-background:accumulate"
     id="path9904"
     d="m 103.926,492.70448 536.24249,0"
     inkscape:export-filename="/home/waldgeist/data/homepage/pics/physik/mechanik/dynamik/kraeftegleichgewicht-fehlende-dritte-kraft-loesung-1.png"
     inkscape:export-xdpi="150"
     inkscape:export-ydpi="150" />
  <path
     inkscape:connector-curvature="0"
     style="color:#000000;fill:none;stroke:#d40000;stroke-width:3;stroke-linecap:round;stroke-linejoin:round;stroke-miterlimit:4;stroke-opacity:1;stroke-dasharray:none;stroke-dashoffset:0;marker:none;marker-end:url(#Arrow2Mend);visibility:visible;display:inline;overflow:visible;enable-background:accumulate"
     id="path3061"
     d="m 204.86076,492.70448 283.46457,0"
     inkscape:export-filename="/home/waldgeist/data/homepage/pics/physik/mechanik/dynamik/kraeftegleichgewicht-fehlende-dritte-kraft-loesung-1.png"
     inkscape:export-xdpi="150"
     inkscape:export-ydpi="150" />
  <path
     inkscape:connector-curvature="0"
     style="color:#000000;fill:none;stroke:#d40000;stroke-width:3;stroke-linecap:round;stroke-linejoin:round;stroke-miterlimit:4;stroke-opacity:1;stroke-dasharray:none;stroke-dashoffset:0;marker:none;marker-end:url(#Arrow2Mend);visibility:visible;display:inline;overflow:visible;enable-background:accumulate"
     id="path3063"
     d="M 204.86076,492.70448 305.08062,592.92434"
     inkscape:export-filename="/home/waldgeist/data/homepage/pics/physik/mechanik/dynamik/kraeftegleichgewicht-fehlende-dritte-kraft-loesung-1.png"
     inkscape:export-xdpi="150"
     inkscape:export-ydpi="150" />
  <path
     inkscape:connector-curvature="0"
     style="color:#000000;fill:none;stroke:#d40000;stroke-width:2;stroke-linecap:round;stroke-linejoin:round;stroke-miterlimit:4;stroke-opacity:1;stroke-dasharray:2, 4;stroke-dashoffset:0;marker:none;visibility:visible;display:inline;overflow:visible;enable-background:accumulate"
     id="path4463"
     d="M 488.32533,492.70448 588.54519,592.92434"
     inkscape:export-filename="/home/waldgeist/data/homepage/pics/physik/mechanik/dynamik/kraeftegleichgewicht-fehlende-dritte-kraft-loesung-1.png"
     inkscape:export-xdpi="150"
     inkscape:export-ydpi="150" />
  <path
     inkscape:connector-curvature="0"
     style="color:#000000;fill:none;stroke:#d40000;stroke-width:2;stroke-linecap:round;stroke-linejoin:round;stroke-miterlimit:4;stroke-opacity:1;stroke-dasharray:2, 4;stroke-dashoffset:0;marker:none;visibility:visible;display:inline;overflow:visible;enable-background:accumulate"
     id="path4465"
     d="m 305.08062,592.92434 283.46457,0"
     inkscape:export-filename="/home/waldgeist/data/homepage/pics/physik/mechanik/dynamik/kraeftegleichgewicht-fehlende-dritte-kraft-loesung-1.png"
     inkscape:export-xdpi="150"
     inkscape:export-ydpi="150" />
  <path
     inkscape:connector-curvature="0"
     style="color:#000000;fill:#c837ab;stroke:#ff6600;stroke-width:3;stroke-linecap:round;stroke-linejoin:round;stroke-miterlimit:4;stroke-opacity:1;stroke-dasharray:none;stroke-dashoffset:0;marker:none;marker-end:url(#marker7542);visibility:visible;display:inline;overflow:visible;enable-background:accumulate"
     id="path8139"
     d="M 204.86076,492.70448 588.54519,592.92434"
     inkscape:export-filename="/home/waldgeist/data/homepage/pics/physik/mechanik/dynamik/kraeftegleichgewicht-fehlende-dritte-kraft-loesung-1.png"
     inkscape:export-xdpi="150"
     inkscape:export-ydpi="150" />
  <path
     inkscape:connector-curvature="0"
     style="color:#000000;fill:#ffffff;stroke:#d40000;stroke-width:3;stroke-linecap:round;stroke-linejoin:round;stroke-miterlimit:4;stroke-opacity:1;stroke-dasharray:none;stroke-dashoffset:0;marker:none;visibility:visible;display:inline;overflow:visible;enable-background:accumulate"
     id="path4461"
     d="m 258.01037,492.70447 a 53.149605,53.149605 0 0 1 -15.56716,37.58245 l -37.58244,-37.58245 z"
     inkscape:export-filename="/home/waldgeist/data/homepage/pics/physik/mechanik/dynamik/kraeftegleichgewicht-fehlende-dritte-kraft-loesung-1.png"
     inkscape:export-xdpi="150"
     inkscape:export-ydpi="150" />
  <g
     style="fill:#d40000;stroke:#d40000;display:inline"
     id="g9305"
     transform="matrix(3,0,0,3,-567.28106,159.58494)"
     inkscape:export-filename="/home/waldgeist/data/homepage/pics/physik/mechanik/dynamik/kraeftegleichgewicht-fehlende-dritte-kraft-loesung-1.png"
     inkscape:export-xdpi="150"
     inkscape:export-ydpi="150">
    <defs
       id="defs9307">
      <g
         id="g9309">
        <symbol
           style="overflow:visible"
           id="textext-547ee92e-0">
          <path
             inkscape:connector-curvature="0"
             style="stroke:none"
             id="path9312"
             d="" />
        </symbol>
        <symbol
           style="overflow:visible"
           id="textext-547ee92e-1">
          <path
             inkscape:connector-curvature="0"
             style="stroke:none"
             id="path9315"
             d="m 3.015625,-3.234375 0.96875,0 c 0.75,0 0.828125,0.15625 0.828125,0.4375 0,0.078125 0,0.1875 -0.0625,0.5 C 4.71875,-2.25 4.71875,-2.21875 4.71875,-2.1875 c 0,0.078125 0.0625,0.109375 0.109375,0.109375 0.109375,0 0.109375,-0.03125 0.15625,-0.203125 L 5.53125,-4.453125 C 5.5625,-4.5625 5.5625,-4.578125 5.5625,-4.609375 5.5625,-4.625 5.546875,-4.71875 5.4375,-4.71875 5.34375,-4.71875 5.328125,-4.671875 5.296875,-4.5 5.078125,-3.734375 4.859375,-3.546875 4,-3.546875 l -0.90625,0 0.640625,-2.53125 C 3.828125,-6.4375 3.84375,-6.46875 4.28125,-6.46875 l 1.3125,0 c 1.21875,0 1.453125,0.328125 1.453125,1.09375 0,0.234375 0,0.265625 -0.03125,0.546875 C 7,-4.703125 7,-4.6875 7,-4.65625 c 0,0.046875 0.03125,0.125 0.125,0.125 0.109375,0 0.109375,-0.0625 0.125,-0.25 L 7.453125,-6.515625 C 7.484375,-6.78125 7.4375,-6.78125 7.1875,-6.78125 l -4.890625,0 c -0.1875,0 -0.296875,0 -0.296875,0.203125 0,0.109375 0.09375,0.109375 0.28125,0.109375 0.375,0 0.65625,0 0.65625,0.171875 0,0.046875 0,0.0625 -0.0625,0.25 L 1.5625,-0.78125 c -0.09375,0.390625 -0.109375,0.46875 -0.90625,0.46875 -0.171875,0 -0.28125,0 -0.28125,0.1875 C 0.375,0 0.5,0 0.53125,0 0.8125,0 1.5625,-0.03125 1.84375,-0.03125 2.171875,-0.03125 3,0 3.328125,0 3.421875,0 3.53125,0 3.53125,-0.1875 3.53125,-0.265625 3.484375,-0.296875 3.484375,-0.296875 3.453125,-0.3125 3.421875,-0.3125 3.203125,-0.3125 c -0.21875,0 -0.265625,0 -0.515625,-0.015625 -0.296875,-0.03125 -0.328125,-0.078125 -0.328125,-0.203125 0,-0.015625 0,-0.078125 0.046875,-0.21875 z m 0,0" />
        </symbol>
        <symbol
           style="overflow:visible"
           id="textext-547ee92e-2">
          <path
             inkscape:connector-curvature="0"
             style="stroke:none"
             id="path9318"
             d="" />
        </symbol>
        <symbol
           style="overflow:visible"
           id="textext-547ee92e-3">
          <path
             inkscape:connector-curvature="0"
             style="stroke:none"
             id="path9321"
             d="m 3.515625,-1.265625 -0.234375,0 c -0.015625,0.15625 -0.09375,0.5625 -0.1875,0.625 -0.046875,0.046875 -0.578125,0.046875 -0.6875,0.046875 l -1.28125,0 c 0.734375,-0.640625 0.984375,-0.84375 1.390625,-1.171875 0.515625,-0.40625 1,-0.84375 1,-1.5 0,-0.84375 -0.734375,-1.359375 -1.625,-1.359375 -0.859375,0 -1.453125,0.609375 -1.453125,1.25 0,0.34375 0.296875,0.390625 0.375,0.390625 0.15625,0 0.359375,-0.125 0.359375,-0.375 0,-0.125 -0.046875,-0.375 -0.40625,-0.375 C 0.984375,-4.21875 1.453125,-4.375 1.78125,-4.375 c 0.703125,0 1.0625,0.546875 1.0625,1.109375 0,0.609375 -0.4375,1.078125 -0.65625,1.328125 L 0.515625,-0.265625 C 0.4375,-0.203125 0.4375,-0.1875 0.4375,0 l 2.875,0 z m 0,0" />
        </symbol>
        <symbol
           style="overflow:visible"
           id="textext-547ee92e-4">
          <path
             inkscape:connector-curvature="0"
             style="stroke:none"
             id="path9324"
             d="" />
        </symbol>
        <symbol
           style="overflow:visible"
           id="textext-547ee92e-5">
          <path
             inkscape:connector-curvature="0"
             style="stroke:none"
             id="path9327"
             d="m 6.84375,-3.265625 c 0.15625,0 0.34375,0 0.34375,-0.1875 C 7.1875,-3.65625 7,-3.65625 6.859375,-3.65625 l -5.96875,0 c -0.140625,0 -0.328125,0 -0.328125,0.203125 0,0.1875 0.1875,0.1875 0.328125,0.1875 z m 0.015625,1.9375 c 0.140625,0 0.328125,0 0.328125,-0.203125 0,-0.1875 -0.1875,-0.1875 -0.34375,-0.1875 l -5.953125,0 c -0.140625,0 -0.328125,0 -0.328125,0.1875 0,0.203125 0.1875,0.203125 0.328125,0.203125 z m 0,0" />
        </symbol>
        <symbol
           style="overflow:visible"
           id="textext-547ee92e-6">
          <path
             inkscape:connector-curvature="0"
             style="stroke:none"
             id="path9330"
             d="m 2.9375,-1.640625 0,0.859375 c 0,0.359375 -0.03125,0.46875 -0.765625,0.46875 l -0.203125,0 0,0.3125 C 2.375,-0.03125 2.890625,-0.03125 3.3125,-0.03125 c 0.421875,0 0.9375,0 1.359375,0.03125 l 0,-0.3125 -0.21875,0 c -0.734375,0 -0.75,-0.109375 -0.75,-0.46875 l 0,-0.859375 0.984375,0 0,-0.3125 -0.984375,0 0,-4.53125 c 0,-0.203125 0,-0.265625 -0.171875,-0.265625 -0.078125,0 -0.109375,0 -0.1875,0.125 l -3.0625,4.671875 0,0.3125 z m 0.046875,-0.3125 -2.421875,0 2.421875,-3.71875 z m 0,0" />
        </symbol>
        <symbol
           style="overflow:visible"
           id="textext-547ee92e-7">
          <path
             inkscape:connector-curvature="0"
             style="stroke:none"
             id="path9333"
             d="m 4.578125,-3.1875 c 0,-0.796875 -0.046875,-1.59375 -0.390625,-2.328125 -0.453125,-0.96875 -1.28125,-1.125 -1.6875,-1.125 -0.609375,0 -1.328125,0.265625 -1.75,1.1875 -0.3125,0.6875 -0.359375,1.46875 -0.359375,2.265625 0,0.75 0.03125,1.640625 0.453125,2.40625 0.421875,0.796875 1.15625,1 1.640625,1 0.53125,0 1.296875,-0.203125 1.734375,-1.15625 0.3125,-0.6875 0.359375,-1.46875 0.359375,-2.25 z M 2.484375,0 C 2.09375,0 1.5,-0.25 1.328125,-1.203125 1.21875,-1.796875 1.21875,-2.71875 1.21875,-3.3125 c 0,-0.640625 0,-1.296875 0.078125,-1.828125 0.1875,-1.1875 0.9375,-1.28125 1.1875,-1.28125 0.328125,0 0.984375,0.1875 1.171875,1.171875 0.109375,0.5625 0.109375,1.3125 0.109375,1.9375 0,0.75 0,1.421875 -0.109375,2.0625 C 3.5,-0.296875 2.9375,0 2.484375,0 z m 0,0" />
        </symbol>
        <symbol
           style="overflow:visible"
           id="textext-547ee92e-8">
          <path
             inkscape:connector-curvature="0"
             style="stroke:none"
             id="path9336"
             d="M 2.3125,-6.671875 C 2.21875,-6.796875 2.21875,-6.8125 2.03125,-6.8125 l -1.703125,0 0,0.3125 0.296875,0 c 0.140625,0 0.34375,0.015625 0.484375,0.015625 0.234375,0.03125 0.25,0.046875 0.25,0.234375 l 0,5.203125 c 0,0.265625 0,0.734375 -1.03125,0.734375 l 0,0.3125 C 0.671875,-0.015625 1.171875,-0.03125 1.5,-0.03125 c 0.328125,0 0.8125,0.015625 1.15625,0.03125 l 0,-0.3125 c -1.015625,0 -1.015625,-0.46875 -1.015625,-0.734375 l 0,-5.1875 c 0.046875,0.046875 0.046875,0.0625 0.09375,0.125 L 5.796875,-0.125 C 5.890625,-0.015625 5.90625,0 5.96875,0 6.109375,0 6.109375,-0.0625 6.109375,-0.265625 l 0,-5.5 c 0,-0.265625 0,-0.734375 1.03125,-0.734375 l 0,-0.3125 c -0.359375,0.015625 -0.84375,0.03125 -1.171875,0.03125 -0.328125,0 -0.8125,-0.015625 -1.15625,-0.03125 l 0,0.3125 c 1.015625,0 1.015625,0.46875 1.015625,0.734375 l 0,4.265625 z m 0,0" />
        </symbol>
      </g>
    </defs>
    <g
       style="fill:#d40000"
       id="textext-547ee92e-9">
      <g
         style="fill:#d40000;fill-opacity:1"
         id="g9339">
        <use
           xlink:href="#textext-547ee92e-1"
           height="1052.3622"
           width="744.09448"
           y="134.765"
           x="223.43201"
           style="fill:#d40000"
           id="use9341" />
      </g>
      <g
         style="fill:#d40000;fill-opacity:1"
         id="g9343">
        <use
           xlink:href="#textext-547ee92e-3"
           height="1052.3622"
           width="744.09448"
           y="136.259"
           x="229.839"
           style="fill:#d40000"
           id="use9345" />
      </g>
      <g
         style="fill:#d40000;fill-opacity:1"
         id="g9347">
        <use
           xlink:href="#textext-547ee92e-5"
           height="1052.3622"
           width="744.09448"
           y="134.765"
           x="237.075"
           style="fill:#d40000"
           id="use9349" />
      </g>
      <g
         style="fill:#d40000;fill-opacity:1"
         id="g9351">
        <use
           xlink:href="#textext-547ee92e-6"
           height="1052.3622"
           width="744.09448"
           y="134.765"
           x="247.59351"
           style="fill:#d40000"
           id="use9353" />
        <use
           xlink:href="#textext-547ee92e-7"
           height="1052.3622"
           width="744.09448"
           y="134.765"
           x="252.57481"
           style="fill:#d40000"
           id="use9355" />
        <use
           xlink:href="#textext-547ee92e-7"
           height="1052.3622"
           width="744.09448"
           y="134.765"
           x="257.55612"
           style="fill:#d40000"
           id="use9357" />
      </g>
      <g
         style="fill:#d40000;fill-opacity:1"
         id="g9359">
        <use
           xlink:href="#textext-547ee92e-8"
           height="1052.3622"
           width="744.09448"
           y="134.765"
           x="264.19119"
           style="fill:#d40000"
           id="use9361" />
      </g>
    </g>
  </g>
  <g
     style="fill:#d40000;stroke:#d40000;display:inline"
     id="g9537"
     transform="matrix(3,0,0,3,-398.48329,72.57722)"
     inkscape:export-filename="/home/waldgeist/data/homepage/pics/physik/mechanik/dynamik/kraeftegleichgewicht-fehlende-dritte-kraft-loesung-1.png"
     inkscape:export-xdpi="150"
     inkscape:export-ydpi="150">
    <defs
       id="defs9539">
      <g
         id="g9541">
        <symbol
           style="overflow:visible"
           id="textext-a02f916d-0">
          <path
             inkscape:connector-curvature="0"
             style="stroke:none"
             id="path9544"
             d="" />
        </symbol>
        <symbol
           style="overflow:visible"
           id="textext-a02f916d-1">
          <path
             inkscape:connector-curvature="0"
             style="stroke:none"
             id="path9547"
             d="m 3.015625,-3.234375 0.96875,0 c 0.75,0 0.828125,0.15625 0.828125,0.4375 0,0.078125 0,0.1875 -0.0625,0.5 C 4.71875,-2.25 4.71875,-2.21875 4.71875,-2.1875 c 0,0.078125 0.0625,0.109375 0.109375,0.109375 0.109375,0 0.109375,-0.03125 0.15625,-0.203125 L 5.53125,-4.453125 C 5.5625,-4.5625 5.5625,-4.578125 5.5625,-4.609375 5.5625,-4.625 5.546875,-4.71875 5.4375,-4.71875 5.34375,-4.71875 5.328125,-4.671875 5.296875,-4.5 5.078125,-3.734375 4.859375,-3.546875 4,-3.546875 l -0.90625,0 0.640625,-2.53125 C 3.828125,-6.4375 3.84375,-6.46875 4.28125,-6.46875 l 1.3125,0 c 1.21875,0 1.453125,0.328125 1.453125,1.09375 0,0.234375 0,0.265625 -0.03125,0.546875 C 7,-4.703125 7,-4.6875 7,-4.65625 c 0,0.046875 0.03125,0.125 0.125,0.125 0.109375,0 0.109375,-0.0625 0.125,-0.25 L 7.453125,-6.515625 C 7.484375,-6.78125 7.4375,-6.78125 7.1875,-6.78125 l -4.890625,0 c -0.1875,0 -0.296875,0 -0.296875,0.203125 0,0.109375 0.09375,0.109375 0.28125,0.109375 0.375,0 0.65625,0 0.65625,0.171875 0,0.046875 0,0.0625 -0.0625,0.25 L 1.5625,-0.78125 c -0.09375,0.390625 -0.109375,0.46875 -0.90625,0.46875 -0.171875,0 -0.28125,0 -0.28125,0.1875 C 0.375,0 0.5,0 0.53125,0 0.8125,0 1.5625,-0.03125 1.84375,-0.03125 2.171875,-0.03125 3,0 3.328125,0 3.421875,0 3.53125,0 3.53125,-0.1875 3.53125,-0.265625 3.484375,-0.296875 3.484375,-0.296875 3.453125,-0.3125 3.421875,-0.3125 3.203125,-0.3125 c -0.21875,0 -0.265625,0 -0.515625,-0.015625 -0.296875,-0.03125 -0.328125,-0.078125 -0.328125,-0.203125 0,-0.015625 0,-0.078125 0.046875,-0.21875 z m 0,0" />
        </symbol>
        <symbol
           style="overflow:visible"
           id="textext-a02f916d-2">
          <path
             inkscape:connector-curvature="0"
             style="stroke:none"
             id="path9550"
             d="" />
        </symbol>
        <symbol
           style="overflow:visible"
           id="textext-a02f916d-3">
          <path
             inkscape:connector-curvature="0"
             style="stroke:none"
             id="path9553"
             d="m 2.328125,-4.4375 c 0,-0.1875 0,-0.1875 -0.203125,-0.1875 -0.453125,0.4375 -1.078125,0.4375 -1.359375,0.4375 l 0,0.25 c 0.15625,0 0.625,0 1,-0.1875 l 0,3.546875 c 0,0.234375 0,0.328125 -0.6875,0.328125 l -0.265625,0 0,0.25 c 0.125,0 0.984375,-0.03125 1.234375,-0.03125 0.21875,0 1.09375,0.03125 1.25,0.03125 l 0,-0.25 -0.265625,0 c -0.703125,0 -0.703125,-0.09375 -0.703125,-0.328125 z m 0,0" />
        </symbol>
        <symbol
           style="overflow:visible"
           id="textext-a02f916d-4">
          <path
             inkscape:connector-curvature="0"
             style="stroke:none"
             id="path9556"
             d="" />
        </symbol>
        <symbol
           style="overflow:visible"
           id="textext-a02f916d-5">
          <path
             inkscape:connector-curvature="0"
             style="stroke:none"
             id="path9559"
             d="m 6.84375,-3.265625 c 0.15625,0 0.34375,0 0.34375,-0.1875 C 7.1875,-3.65625 7,-3.65625 6.859375,-3.65625 l -5.96875,0 c -0.140625,0 -0.328125,0 -0.328125,0.203125 0,0.1875 0.1875,0.1875 0.328125,0.1875 z m 0.015625,1.9375 c 0.140625,0 0.328125,0 0.328125,-0.203125 0,-0.1875 -0.1875,-0.1875 -0.34375,-0.1875 l -5.953125,0 c -0.140625,0 -0.328125,0 -0.328125,0.1875 0,0.203125 0.1875,0.203125 0.328125,0.203125 z m 0,0" />
        </symbol>
        <symbol
           style="overflow:visible"
           id="textext-a02f916d-6">
          <path
             inkscape:connector-curvature="0"
             style="stroke:none"
             id="path9562"
             d="m 1.625,-4.5625 c -0.453125,-0.296875 -0.5,-0.625 -0.5,-0.796875 0,-0.609375 0.65625,-1.03125 1.359375,-1.03125 0.71875,0 1.359375,0.515625 1.359375,1.234375 0,0.578125 -0.390625,1.046875 -0.984375,1.390625 z m 1.453125,0.953125 C 3.796875,-3.984375 4.28125,-4.5 4.28125,-5.15625 c 0,-0.921875 -0.875,-1.484375 -1.78125,-1.484375 -1,0 -1.8125,0.734375 -1.8125,1.671875 0,0.171875 0.015625,0.625 0.4375,1.09375 0.109375,0.109375 0.484375,0.359375 0.734375,0.53125 C 1.28125,-3.046875 0.421875,-2.5 0.421875,-1.5 c 0,1.046875 1.015625,1.71875 2.0625,1.71875 1.125,0 2.078125,-0.828125 2.078125,-1.890625 0,-0.359375 -0.109375,-0.8125 -0.5,-1.234375 C 3.875,-3.109375 3.71875,-3.203125 3.078125,-3.609375 z m -1,0.421875 1.234375,0.78125 c 0.28125,0.1875 0.75,0.484375 0.75,1.09375 0,0.734375 -0.75,1.25 -1.5625,1.25 -0.859375,0 -1.578125,-0.609375 -1.578125,-1.4375 0,-0.578125 0.3125,-1.21875 1.15625,-1.6875 z m 0,0" />
        </symbol>
        <symbol
           style="overflow:visible"
           id="textext-a02f916d-7">
          <path
             inkscape:connector-curvature="0"
             style="stroke:none"
             id="path9565"
             d="m 4.578125,-3.1875 c 0,-0.796875 -0.046875,-1.59375 -0.390625,-2.328125 -0.453125,-0.96875 -1.28125,-1.125 -1.6875,-1.125 -0.609375,0 -1.328125,0.265625 -1.75,1.1875 -0.3125,0.6875 -0.359375,1.46875 -0.359375,2.265625 0,0.75 0.03125,1.640625 0.453125,2.40625 0.421875,0.796875 1.15625,1 1.640625,1 0.53125,0 1.296875,-0.203125 1.734375,-1.15625 0.3125,-0.6875 0.359375,-1.46875 0.359375,-2.25 z M 2.484375,0 C 2.09375,0 1.5,-0.25 1.328125,-1.203125 1.21875,-1.796875 1.21875,-2.71875 1.21875,-3.3125 c 0,-0.640625 0,-1.296875 0.078125,-1.828125 0.1875,-1.1875 0.9375,-1.28125 1.1875,-1.28125 0.328125,0 0.984375,0.1875 1.171875,1.171875 0.109375,0.5625 0.109375,1.3125 0.109375,1.9375 0,0.75 0,1.421875 -0.109375,2.0625 C 3.5,-0.296875 2.9375,0 2.484375,0 z m 0,0" />
        </symbol>
        <symbol
           style="overflow:visible"
           id="textext-a02f916d-8">
          <path
             inkscape:connector-curvature="0"
             style="stroke:none"
             id="path9568"
             d="M 2.3125,-6.671875 C 2.21875,-6.796875 2.21875,-6.8125 2.03125,-6.8125 l -1.703125,0 0,0.3125 0.296875,0 c 0.140625,0 0.34375,0.015625 0.484375,0.015625 0.234375,0.03125 0.25,0.046875 0.25,0.234375 l 0,5.203125 c 0,0.265625 0,0.734375 -1.03125,0.734375 l 0,0.3125 C 0.671875,-0.015625 1.171875,-0.03125 1.5,-0.03125 c 0.328125,0 0.8125,0.015625 1.15625,0.03125 l 0,-0.3125 c -1.015625,0 -1.015625,-0.46875 -1.015625,-0.734375 l 0,-5.1875 c 0.046875,0.046875 0.046875,0.0625 0.09375,0.125 L 5.796875,-0.125 C 5.890625,-0.015625 5.90625,0 5.96875,0 6.109375,0 6.109375,-0.0625 6.109375,-0.265625 l 0,-5.5 c 0,-0.265625 0,-0.734375 1.03125,-0.734375 l 0,-0.3125 c -0.359375,0.015625 -0.84375,0.03125 -1.171875,0.03125 -0.328125,0 -0.8125,-0.015625 -1.15625,-0.03125 l 0,0.3125 c 1.015625,0 1.015625,0.46875 1.015625,0.734375 l 0,4.265625 z m 0,0" />
        </symbol>
      </g>
    </defs>
    <g
       style="fill:#d40000"
       id="textext-a02f916d-9">
      <g
         style="fill:#d40000;fill-opacity:1"
         id="g9571">
        <use
           xlink:href="#textext-a02f916d-1"
           height="1052.3622"
           width="744.09448"
           y="134.765"
           x="223.43201"
           style="fill:#d40000"
           id="use9573" />
      </g>
      <g
         style="fill:#d40000;fill-opacity:1"
         id="g9575">
        <use
           xlink:href="#textext-a02f916d-3"
           height="1052.3622"
           width="744.09448"
           y="136.259"
           x="229.839"
           style="fill:#d40000"
           id="use9577" />
      </g>
      <g
         style="fill:#d40000;fill-opacity:1"
         id="g9579">
        <use
           xlink:href="#textext-a02f916d-5"
           height="1052.3622"
           width="744.09448"
           y="134.765"
           x="237.075"
           style="fill:#d40000"
           id="use9581" />
      </g>
      <g
         style="fill:#d40000;fill-opacity:1"
         id="g9583">
        <use
           xlink:href="#textext-a02f916d-6"
           height="1052.3622"
           width="744.09448"
           y="134.765"
           x="247.59351"
           style="fill:#d40000"
           id="use9585" />
        <use
           xlink:href="#textext-a02f916d-7"
           height="1052.3622"
           width="744.09448"
           y="134.765"
           x="252.57481"
           style="fill:#d40000"
           id="use9587" />
        <use
           xlink:href="#textext-a02f916d-7"
           height="1052.3622"
           width="744.09448"
           y="134.765"
           x="257.55612"
           style="fill:#d40000"
           id="use9589" />
      </g>
      <g
         style="fill:#d40000;fill-opacity:1"
         id="g9591">
        <use
           xlink:href="#textext-a02f916d-8"
           height="1052.3622"
           width="744.09448"
           y="134.765"
           x="264.19119"
           style="fill:#d40000"
           id="use9593" />
      </g>
    </g>
  </g>
  <path
     inkscape:connector-curvature="0"
     style="color:#000000;fill:none;stroke:#d40000;stroke-width:3;stroke-linecap:round;stroke-linejoin:round;stroke-miterlimit:4;stroke-opacity:1;stroke-dasharray:none;stroke-dashoffset:0;marker:none;marker-end:url(#Arrow2Mend);visibility:visible;display:inline;overflow:visible;enable-background:accumulate"
     id="path12598"
     d="m 204.86076,492.70448 283.46457,0"
     inkscape:export-filename="/home/waldgeist/data/homepage/pics/physik/mechanik/dynamik/kraeftegleichgewicht-fehlende-dritte-kraft-loesung-1.png"
     inkscape:export-xdpi="150"
     inkscape:export-ydpi="150" />
  <path
     inkscape:connector-curvature="0"
     style="color:#000000;fill:none;stroke:#d40000;stroke-width:3;stroke-linecap:round;stroke-linejoin:round;stroke-miterlimit:4;stroke-opacity:1;stroke-dasharray:none;stroke-dashoffset:0;marker:none;marker-end:url(#Arrow2Mend);visibility:visible;display:inline;overflow:visible;enable-background:accumulate"
     id="path12600"
     d="M 204.86076,492.70448 305.08062,592.92434"
     inkscape:export-filename="/home/waldgeist/data/homepage/pics/physik/mechanik/dynamik/kraeftegleichgewicht-fehlende-dritte-kraft-loesung-1.png"
     inkscape:export-xdpi="150"
     inkscape:export-ydpi="150" />
  <g
     style="fill:#d40000;fill-opacity:1"
     id="g36309"
     transform="matrix(2.3328321,0,0,2.3328321,-290.13279,198.55381)"
     inkscape:export-filename="/home/waldgeist/data/homepage/pics/physik/mechanik/dynamik/kraeftegleichgewicht-fehlende-dritte-kraft-loesung-1.png"
     inkscape:export-xdpi="150"
     inkscape:export-ydpi="150">
    <defs
       id="defs36311">
      <g
         id="g36313">
        <symbol
           style="overflow:visible"
           id="textext-654a088a-0">
          <path
             inkscape:connector-curvature="0"
             style="stroke:none"
             id="path36316"
             d="" />
        </symbol>
        <symbol
           style="overflow:visible"
           id="textext-654a088a-1">
          <path
             inkscape:connector-curvature="0"
             style="stroke:none"
             id="path36319"
             d="M 0.40625,-2.53125 C 0.796875,-3.671875 1.890625,-3.6875 2,-3.6875 c 1.5,0 1.609375,1.75 1.609375,2.53125 0,0.609375 -0.046875,0.78125 -0.125,0.984375 -0.21875,0.71875 -0.515625,1.875 -0.515625,2.140625 0,0.109375 0.046875,0.171875 0.125,0.171875 0.140625,0 0.21875,-0.21875 0.328125,-0.59375 C 3.65625,0.703125 3.75,0.140625 3.78125,-0.171875 c 0.03125,-0.125 0.046875,-0.25 0.09375,-0.390625 0.3125,-0.984375 0.953125,-2.46875 1.34375,-3.25 0.078125,-0.125 0.1875,-0.34375 0.1875,-0.390625 0,-0.09375 -0.09375,-0.09375 -0.109375,-0.09375 -0.03125,0 -0.09375,0 -0.125,0.0625 C 4.65625,-3.28125 4.25,-2.28125 3.859375,-1.28125 3.84375,-1.578125 3.84375,-2.34375 3.453125,-3.3125 3.203125,-3.921875 2.8125,-4.40625 2.125,-4.40625 c -1.25,0 -1.953125,1.515625 -1.953125,1.828125 0,0.09375 0.09375,0.09375 0.203125,0.09375 z m 0,0" />
        </symbol>
        <symbol
           style="overflow:visible"
           id="textext-654a088a-2">
          <path
             inkscape:connector-curvature="0"
             style="stroke:none"
             id="path36322"
             d="" />
        </symbol>
        <symbol
           style="overflow:visible"
           id="textext-654a088a-3">
          <path
             inkscape:connector-curvature="0"
             style="stroke:none"
             id="path36325"
             d="m 2.25,-1.734375 c 0.578125,-0.25 0.828125,-0.34375 1,-0.4375 0.140625,-0.046875 0.203125,-0.078125 0.203125,-0.21875 0,-0.109375 -0.09375,-0.21875 -0.21875,-0.21875 -0.046875,0 -0.0625,0 -0.140625,0.0625 L 2.140625,-1.90625 2.25,-2.9375 c 0.015625,-0.125 0,-0.296875 -0.21875,-0.296875 -0.078125,0 -0.21875,0.046875 -0.21875,0.203125 0,0.0625 0.03125,0.265625 0.046875,0.34375 0.015625,0.109375 0.0625,0.625 0.078125,0.78125 L 0.984375,-2.546875 c -0.0625,-0.03125 -0.078125,-0.0625 -0.140625,-0.0625 -0.140625,0 -0.21875,0.109375 -0.21875,0.21875 0,0.140625 0.078125,0.1875 0.140625,0.203125 L 1.8125,-1.734375 c -0.5625,0.25 -0.828125,0.34375 -1,0.421875 -0.125,0.0625 -0.1875,0.09375 -0.1875,0.21875 0,0.125 0.078125,0.21875 0.21875,0.21875 0.046875,0 0.0625,0 0.140625,-0.0625 l 0.953125,-0.625 -0.125,1.109375 c 0,0.15625 0.140625,0.21875 0.21875,0.21875 0.09375,0 0.21875,-0.0625 0.21875,-0.21875 0,-0.0625 -0.03125,-0.265625 -0.03125,-0.328125 -0.015625,-0.125 -0.0625,-0.625 -0.078125,-0.78125 L 2.96875,-1.015625 C 3.15625,-0.875 3.171875,-0.875 3.234375,-0.875 c 0.125,0 0.21875,-0.09375 0.21875,-0.21875 0,-0.140625 -0.09375,-0.171875 -0.15625,-0.203125 z m 0,0" />
        </symbol>
      </g>
    </defs>
    <g
       style="fill:#d40000;fill-opacity:1"
       id="textext-654a088a-4">
      <g
         style="fill:#d40000;fill-opacity:1"
         id="g36328">
        <use
           xlink:href="#textext-654a088a-1"
           height="1052.3622"
           width="744.09448"
           y="134.765"
           x="223.43201"
           style="fill:#d40000;fill-opacity:1"
           id="use36330" />
      </g>
      <g
         style="fill:#d40000;fill-opacity:1"
         id="g36332">
        <use
           xlink:href="#textext-654a088a-3"
           height="1052.3622"
           width="744.09448"
           y="131.149"
           x="229.144"
           style="fill:#d40000;fill-opacity:1"
           id="use36334" />
      </g>
    </g>
  </g>
  <g
     style="fill:#999999;fill-opacity:1"
     id="g37076"
     transform="matrix(1.7780428,0,0,1.7780428,119.75035,271.16725)"
     inkscape:export-filename="/home/waldgeist/data/homepage/pics/physik/mechanik/dynamik/kraeftegleichgewicht-fehlende-dritte-kraft-loesung-1.png"
     inkscape:export-xdpi="150"
     inkscape:export-ydpi="150">
    <defs
       id="defs37078">
      <g
         id="g37080">
        <symbol
           style="overflow:visible"
           id="symbol37082">
          <path
             inkscape:connector-curvature="0"
             style="stroke:none"
             id="path37084"
             d="" />
        </symbol>
        <symbol
           style="overflow:visible"
           id="symbol37086">
          <path
             inkscape:connector-curvature="0"
             style="stroke:none"
             id="path37088"
             d="M 0.40625,-2.53125 C 0.796875,-3.671875 1.890625,-3.6875 2,-3.6875 c 1.5,0 1.609375,1.75 1.609375,2.53125 0,0.609375 -0.046875,0.78125 -0.125,0.984375 -0.21875,0.71875 -0.515625,1.875 -0.515625,2.140625 0,0.109375 0.046875,0.171875 0.125,0.171875 0.140625,0 0.21875,-0.21875 0.328125,-0.59375 C 3.65625,0.703125 3.75,0.140625 3.78125,-0.171875 c 0.03125,-0.125 0.046875,-0.25 0.09375,-0.390625 0.3125,-0.984375 0.953125,-2.46875 1.34375,-3.25 0.078125,-0.125 0.1875,-0.34375 0.1875,-0.390625 0,-0.09375 -0.09375,-0.09375 -0.109375,-0.09375 -0.03125,0 -0.09375,0 -0.125,0.0625 C 4.65625,-3.28125 4.25,-2.28125 3.859375,-1.28125 3.84375,-1.578125 3.84375,-2.34375 3.453125,-3.3125 3.203125,-3.921875 2.8125,-4.40625 2.125,-4.40625 c -1.25,0 -1.953125,1.515625 -1.953125,1.828125 0,0.09375 0.09375,0.09375 0.203125,0.09375 z m 0,0" />
        </symbol>
        <symbol
           style="overflow:visible"
           id="symbol37090">
          <path
             inkscape:connector-curvature="0"
             style="stroke:none"
             id="path37092"
             d="" />
        </symbol>
        <symbol
           style="overflow:visible"
           id="symbol37094">
          <path
             inkscape:connector-curvature="0"
             style="stroke:none"
             id="path37096"
             d="m 2.25,-1.734375 c 0.578125,-0.25 0.828125,-0.34375 1,-0.4375 0.140625,-0.046875 0.203125,-0.078125 0.203125,-0.21875 0,-0.109375 -0.09375,-0.21875 -0.21875,-0.21875 -0.046875,0 -0.0625,0 -0.140625,0.0625 L 2.140625,-1.90625 2.25,-2.9375 c 0.015625,-0.125 0,-0.296875 -0.21875,-0.296875 -0.078125,0 -0.21875,0.046875 -0.21875,0.203125 0,0.0625 0.03125,0.265625 0.046875,0.34375 0.015625,0.109375 0.0625,0.625 0.078125,0.78125 L 0.984375,-2.546875 c -0.0625,-0.03125 -0.078125,-0.0625 -0.140625,-0.0625 -0.140625,0 -0.21875,0.109375 -0.21875,0.21875 0,0.140625 0.078125,0.1875 0.140625,0.203125 L 1.8125,-1.734375 c -0.5625,0.25 -0.828125,0.34375 -1,0.421875 -0.125,0.0625 -0.1875,0.09375 -0.1875,0.21875 0,0.125 0.078125,0.21875 0.21875,0.21875 0.046875,0 0.0625,0 0.140625,-0.0625 l 0.953125,-0.625 -0.125,1.109375 c 0,0.15625 0.140625,0.21875 0.21875,0.21875 0.09375,0 0.21875,-0.0625 0.21875,-0.21875 0,-0.0625 -0.03125,-0.265625 -0.03125,-0.328125 -0.015625,-0.125 -0.0625,-0.625 -0.078125,-0.78125 L 2.96875,-1.015625 C 3.15625,-0.875 3.171875,-0.875 3.234375,-0.875 c 0.125,0 0.21875,-0.09375 0.21875,-0.21875 0,-0.140625 -0.09375,-0.171875 -0.15625,-0.203125 z m 0,0" />
        </symbol>
      </g>
    </defs>
    <g
       style="fill:#999999;fill-opacity:1"
       id="g37098">
      <g
         style="fill:#999999;fill-opacity:1"
         id="g37100">
        <use
           xlink:href="#textext-654a088a-1"
           height="1052.3622"
           width="744.09448"
           y="134.765"
           x="223.43201"
           style="fill:#999999;fill-opacity:1"
           id="use37102" />
      </g>
      <g
         style="fill:#999999;fill-opacity:1"
         id="g37104">
        <use
           xlink:href="#textext-654a088a-3"
           height="1052.3622"
           width="744.09448"
           y="131.149"
           x="229.144"
           style="fill:#999999;fill-opacity:1"
           id="use37106" />
      </g>
    </g>
  </g>
  <g
     style="fill:#999999;fill-opacity:1"
     id="g37836"
     transform="matrix(1.5479095,0,0,1.5479095,111.26582,321.81613)"
     inkscape:export-filename="/home/waldgeist/data/homepage/pics/physik/mechanik/dynamik/kraeftegleichgewicht-fehlende-dritte-kraft-loesung-1.png"
     inkscape:export-xdpi="150"
     inkscape:export-ydpi="150">
    <defs
       id="defs37838">
      <g
         id="g37840">
        <symbol
           style="overflow:visible"
           id="textext-220a3587-0">
          <path
             inkscape:connector-curvature="0"
             style="stroke:none"
             id="path37843"
             d="" />
        </symbol>
        <symbol
           style="overflow:visible"
           id="textext-220a3587-1">
          <path
             inkscape:connector-curvature="0"
             style="stroke:none"
             id="path37846"
             d="m 2.9375,-6.375 c 0,-0.25 0,-0.265625 -0.234375,-0.265625 C 2.078125,-6 1.203125,-6 0.890625,-6 l 0,0.3125 c 0.203125,0 0.78125,0 1.296875,-0.265625 l 0,5.171875 c 0,0.359375 -0.03125,0.46875 -0.921875,0.46875 l -0.3125,0 0,0.3125 c 0.34375,-0.03125 1.203125,-0.03125 1.609375,-0.03125 0.390625,0 1.265625,0 1.609375,0.03125 l 0,-0.3125 -0.3125,0 c -0.90625,0 -0.921875,-0.109375 -0.921875,-0.46875 z m 0,0" />
        </symbol>
        <symbol
           style="overflow:visible"
           id="textext-220a3587-2">
          <path
             inkscape:connector-curvature="0"
             style="stroke:none"
             id="path37849"
             d="m 1.625,-4.5625 c -0.453125,-0.296875 -0.5,-0.625 -0.5,-0.796875 0,-0.609375 0.65625,-1.03125 1.359375,-1.03125 0.71875,0 1.359375,0.515625 1.359375,1.234375 0,0.578125 -0.390625,1.046875 -0.984375,1.390625 z m 1.453125,0.953125 C 3.796875,-3.984375 4.28125,-4.5 4.28125,-5.15625 c 0,-0.921875 -0.875,-1.484375 -1.78125,-1.484375 -1,0 -1.8125,0.734375 -1.8125,1.671875 0,0.171875 0.015625,0.625 0.4375,1.09375 0.109375,0.109375 0.484375,0.359375 0.734375,0.53125 C 1.28125,-3.046875 0.421875,-2.5 0.421875,-1.5 c 0,1.046875 1.015625,1.71875 2.0625,1.71875 1.125,0 2.078125,-0.828125 2.078125,-1.890625 0,-0.359375 -0.109375,-0.8125 -0.5,-1.234375 C 3.875,-3.109375 3.71875,-3.203125 3.078125,-3.609375 z m -1,0.421875 1.234375,0.78125 c 0.28125,0.1875 0.75,0.484375 0.75,1.09375 0,0.734375 -0.75,1.25 -1.5625,1.25 -0.859375,0 -1.578125,-0.609375 -1.578125,-1.4375 0,-0.578125 0.3125,-1.21875 1.15625,-1.6875 z m 0,0" />
        </symbol>
        <symbol
           style="overflow:visible"
           id="textext-220a3587-3">
          <path
             inkscape:connector-curvature="0"
             style="stroke:none"
             id="path37852"
             d="m 4.578125,-3.1875 c 0,-0.796875 -0.046875,-1.59375 -0.390625,-2.328125 -0.453125,-0.96875 -1.28125,-1.125 -1.6875,-1.125 -0.609375,0 -1.328125,0.265625 -1.75,1.1875 -0.3125,0.6875 -0.359375,1.46875 -0.359375,2.265625 0,0.75 0.03125,1.640625 0.453125,2.40625 0.421875,0.796875 1.15625,1 1.640625,1 0.53125,0 1.296875,-0.203125 1.734375,-1.15625 0.3125,-0.6875 0.359375,-1.46875 0.359375,-2.25 z M 2.484375,0 C 2.09375,0 1.5,-0.25 1.328125,-1.203125 1.21875,-1.796875 1.21875,-2.71875 1.21875,-3.3125 c 0,-0.640625 0,-1.296875 0.078125,-1.828125 0.1875,-1.1875 0.9375,-1.28125 1.1875,-1.28125 0.328125,0 0.984375,0.1875 1.171875,1.171875 0.109375,0.5625 0.109375,1.3125 0.109375,1.9375 0,0.75 0,1.421875 -0.109375,2.0625 C 3.5,-0.296875 2.9375,0 2.484375,0 z m 0,0" />
        </symbol>
        <symbol
           style="overflow:visible"
           id="textext-220a3587-4">
          <path
             inkscape:connector-curvature="0"
             style="stroke:none"
             id="path37855"
             d="" />
        </symbol>
        <symbol
           style="overflow:visible"
           id="textext-220a3587-5">
          <path
             inkscape:connector-curvature="0"
             style="stroke:none"
             id="path37858"
             d="m 3.53125,-1.734375 c 0,-0.84375 -0.671875,-1.5 -1.5,-1.5 -0.828125,0 -1.5,0.671875 -1.5,1.484375 0,0.84375 0.6875,1.5 1.5,1.5 0.84375,0 1.5,-0.671875 1.5,-1.484375 z m -1.5,1.140625 C 1.375,-0.59375 0.875,-1.125 0.875,-1.734375 c 0,-0.65625 0.515625,-1.171875 1.15625,-1.171875 0.65625,0 1.15625,0.53125 1.15625,1.15625 0,0.65625 -0.515625,1.15625 -1.15625,1.15625 z m 0,0" />
        </symbol>
        <symbol
           style="overflow:visible"
           id="textext-220a3587-6">
          <path
             inkscape:connector-curvature="0"
             style="stroke:none"
             id="path37861"
             d="m 2.25,-1.734375 c 0.578125,-0.25 0.828125,-0.34375 1,-0.4375 0.140625,-0.046875 0.203125,-0.078125 0.203125,-0.21875 0,-0.109375 -0.09375,-0.21875 -0.21875,-0.21875 -0.046875,0 -0.0625,0 -0.140625,0.0625 L 2.140625,-1.90625 2.25,-2.9375 c 0.015625,-0.125 0,-0.296875 -0.21875,-0.296875 -0.078125,0 -0.21875,0.046875 -0.21875,0.203125 0,0.0625 0.03125,0.265625 0.046875,0.34375 0.015625,0.109375 0.0625,0.625 0.078125,0.78125 L 0.984375,-2.546875 c -0.0625,-0.03125 -0.078125,-0.0625 -0.140625,-0.0625 -0.140625,0 -0.21875,0.109375 -0.21875,0.21875 0,0.140625 0.078125,0.1875 0.140625,0.203125 L 1.8125,-1.734375 c -0.5625,0.25 -0.828125,0.34375 -1,0.421875 -0.125,0.0625 -0.1875,0.09375 -0.1875,0.21875 0,0.125 0.078125,0.21875 0.21875,0.21875 0.046875,0 0.0625,0 0.140625,-0.0625 l 0.953125,-0.625 -0.125,1.109375 c 0,0.15625 0.140625,0.21875 0.21875,0.21875 0.09375,0 0.21875,-0.0625 0.21875,-0.21875 0,-0.0625 -0.03125,-0.265625 -0.03125,-0.328125 -0.015625,-0.125 -0.0625,-0.625 -0.078125,-0.78125 L 2.96875,-1.015625 C 3.15625,-0.875 3.171875,-0.875 3.234375,-0.875 c 0.125,0 0.21875,-0.09375 0.21875,-0.21875 0,-0.140625 -0.09375,-0.171875 -0.15625,-0.203125 z m 0,0" />
        </symbol>
        <symbol
           style="overflow:visible"
           id="textext-220a3587-7">
          <path
             inkscape:connector-curvature="0"
             style="stroke:none"
             id="path37864"
             d="" />
        </symbol>
        <symbol
           style="overflow:visible"
           id="textext-220a3587-8">
          <path
             inkscape:connector-curvature="0"
             style="stroke:none"
             id="path37867"
             d="m 6.5625,-2.296875 c 0.171875,0 0.359375,0 0.359375,-0.203125 0,-0.1875 -0.1875,-0.1875 -0.359375,-0.1875 l -5.390625,0 c -0.171875,0 -0.34375,0 -0.34375,0.1875 0,0.203125 0.171875,0.203125 0.34375,0.203125 z m 0,0" />
        </symbol>
        <symbol
           style="overflow:visible"
           id="textext-220a3587-9">
          <path
             inkscape:connector-curvature="0"
             style="stroke:none"
             id="path37870"
             d="" />
        </symbol>
        <symbol
           style="overflow:visible"
           id="textext-220a3587-10">
          <path
             inkscape:connector-curvature="0"
             style="stroke:none"
             id="path37873"
             d="M 0.40625,-2.53125 C 0.796875,-3.671875 1.890625,-3.6875 2,-3.6875 c 1.5,0 1.609375,1.75 1.609375,2.53125 0,0.609375 -0.046875,0.78125 -0.125,0.984375 -0.21875,0.71875 -0.515625,1.875 -0.515625,2.140625 0,0.109375 0.046875,0.171875 0.125,0.171875 0.140625,0 0.21875,-0.21875 0.328125,-0.59375 C 3.65625,0.703125 3.75,0.140625 3.78125,-0.171875 c 0.03125,-0.125 0.046875,-0.25 0.09375,-0.390625 0.3125,-0.984375 0.953125,-2.46875 1.34375,-3.25 0.078125,-0.125 0.1875,-0.34375 0.1875,-0.390625 0,-0.09375 -0.09375,-0.09375 -0.109375,-0.09375 -0.03125,0 -0.09375,0 -0.125,0.0625 C 4.65625,-3.28125 4.25,-2.28125 3.859375,-1.28125 3.84375,-1.578125 3.84375,-2.34375 3.453125,-3.3125 3.203125,-3.921875 2.8125,-4.40625 2.125,-4.40625 c -1.25,0 -1.953125,1.515625 -1.953125,1.828125 0,0.09375 0.09375,0.09375 0.203125,0.09375 z m 0,0" />
        </symbol>
      </g>
    </defs>
    <g
       id="textext-220a3587-11">
      <g
         style="fill:#000000;fill-opacity:1"
         id="g37876">
        <use
           xlink:href="#textext-220a3587-1"
           height="1052.3622"
           width="744.09448"
           y="134.765"
           x="223.43201"
           id="use37878" />
        <use
           xlink:href="#textext-220a3587-2"
           height="1052.3622"
           width="744.09448"
           y="134.765"
           x="228.4133"
           id="use37880" />
        <use
           xlink:href="#textext-220a3587-3"
           height="1052.3622"
           width="744.09448"
           y="134.765"
           x="233.39461"
           id="use37882" />
      </g>
      <g
         style="fill:#000000;fill-opacity:1"
         id="g37884">
        <use
           xlink:href="#textext-220a3587-5"
           height="1052.3622"
           width="744.09448"
           y="131.149"
           x="238.37601"
           id="use37886" />
      </g>
      <g
         style="fill:#000000;fill-opacity:1"
         id="g37888">
        <use
           xlink:href="#textext-220a3587-8"
           height="1052.3622"
           width="744.09448"
           y="134.765"
           x="241.849"
           id="use37890" />
      </g>
      <g
         style="fill:#000000;fill-opacity:1"
         id="g37892">
        <use
           xlink:href="#textext-220a3587-10"
           height="1052.3622"
           width="744.09448"
           y="134.765"
           x="250.151"
           id="use37894" />
      </g>
      <g
         style="fill:#000000;fill-opacity:1"
         id="g37896">
        <use
           xlink:href="#textext-220a3587-6"
           height="1052.3622"
           width="744.09448"
           y="131.149"
           x="255.86301"
           id="use37898" />
      </g>
    </g>
  </g>
  <g
     style="fill:#999999;fill-opacity:1"
     id="g38648"
     transform="matrix(1.71937,0,0,1.71937,81.97319,281.80697)"
     inkscape:export-filename="/home/waldgeist/data/homepage/pics/physik/mechanik/dynamik/kraeftegleichgewicht-fehlende-dritte-kraft-loesung-1.png"
     inkscape:export-xdpi="150"
     inkscape:export-ydpi="150">
    <defs
       id="defs38650">
      <g
         id="g38652">
        <symbol
           style="overflow:visible"
           id="textext-fcaaf11b-0">
          <path
             inkscape:connector-curvature="0"
             style="stroke:none"
             id="path38655"
             d="" />
        </symbol>
        <symbol
           style="overflow:visible"
           id="textext-fcaaf11b-1">
          <path
             inkscape:connector-curvature="0"
             style="stroke:none"
             id="path38658"
             d="M 0.40625,-2.53125 C 0.796875,-3.671875 1.890625,-3.6875 2,-3.6875 c 1.5,0 1.609375,1.75 1.609375,2.53125 0,0.609375 -0.046875,0.78125 -0.125,0.984375 -0.21875,0.71875 -0.515625,1.875 -0.515625,2.140625 0,0.109375 0.046875,0.171875 0.125,0.171875 0.140625,0 0.21875,-0.21875 0.328125,-0.59375 C 3.65625,0.703125 3.75,0.140625 3.78125,-0.171875 c 0.03125,-0.125 0.046875,-0.25 0.09375,-0.390625 0.3125,-0.984375 0.953125,-2.46875 1.34375,-3.25 0.078125,-0.125 0.1875,-0.34375 0.1875,-0.390625 0,-0.09375 -0.09375,-0.09375 -0.109375,-0.09375 -0.03125,0 -0.09375,0 -0.125,0.0625 C 4.65625,-3.28125 4.25,-2.28125 3.859375,-1.28125 3.84375,-1.578125 3.84375,-2.34375 3.453125,-3.3125 3.203125,-3.921875 2.8125,-4.40625 2.125,-4.40625 c -1.25,0 -1.953125,1.515625 -1.953125,1.828125 0,0.09375 0.09375,0.09375 0.203125,0.09375 z m 0,0" />
        </symbol>
        <symbol
           style="overflow:visible"
           id="textext-fcaaf11b-2">
          <path
             inkscape:connector-curvature="0"
             style="stroke:none"
             id="path38661"
             d="" />
        </symbol>
        <symbol
           style="overflow:visible"
           id="textext-fcaaf11b-3">
          <path
             inkscape:connector-curvature="0"
             style="stroke:none"
             id="path38664"
             d="m 6.84375,-3.265625 c 0.15625,0 0.34375,0 0.34375,-0.1875 C 7.1875,-3.65625 7,-3.65625 6.859375,-3.65625 l -5.96875,0 c -0.140625,0 -0.328125,0 -0.328125,0.203125 0,0.1875 0.1875,0.1875 0.328125,0.1875 z m 0.015625,1.9375 c 0.140625,0 0.328125,0 0.328125,-0.203125 0,-0.1875 -0.1875,-0.1875 -0.34375,-0.1875 l -5.953125,0 c -0.140625,0 -0.328125,0 -0.328125,0.1875 0,0.203125 0.1875,0.203125 0.328125,0.203125 z m 0,0" />
        </symbol>
      </g>
    </defs>
    <g
       id="textext-fcaaf11b-4">
      <g
         style="fill:#000000;fill-opacity:1"
         id="g38667">
        <use
           xlink:href="#textext-fcaaf11b-1"
           height="1052.3622"
           width="744.09448"
           y="134.765"
           x="223.43201"
           id="use38669" />
      </g>
      <g
         style="fill:#000000;fill-opacity:1"
         id="g38671">
        <use
           xlink:href="#textext-fcaaf11b-3"
           height="1052.3622"
           width="744.09448"
           y="134.765"
           x="231.911"
           id="use38673" />
      </g>
    </g>
  </g>
  <path
     inkscape:connector-curvature="0"
     style="color:#000000;fill:none;stroke:#999999;stroke-width:2;stroke-linecap:round;stroke-linejoin:round;stroke-miterlimit:4;stroke-opacity:1;stroke-dasharray:none;stroke-dashoffset:0;marker:none;marker-start:url(#Arrow2Mstart);visibility:visible;display:inline;overflow:visible;enable-background:accumulate"
     id="path9908"
     d="m 435.17573,492.70448 a 53.149605,53.149605 0 0 0 90.73205,37.58244"
     inkscape:export-filename="/home/waldgeist/data/homepage/pics/physik/mechanik/dynamik/kraeftegleichgewicht-fehlende-dritte-kraft-loesung-1.png"
     inkscape:export-xdpi="150"
     inkscape:export-ydpi="150" />
  <path
     inkscape:connector-curvature="0"
     style="color:#000000;fill:#ffffff;stroke:#999999;stroke-width:2;stroke-linecap:round;stroke-linejoin:round;stroke-miterlimit:4;stroke-opacity:1;stroke-dasharray:none;stroke-dashoffset:0;marker:none;marker-end:url(#marker7542);visibility:visible;display:inline;overflow:visible;enable-background:accumulate"
     id="path9906"
     d="m 541.47494,492.70448 a 53.149605,53.149605 0 0 1 -15.56716,37.58245"
     inkscape:export-filename="/home/waldgeist/data/homepage/pics/physik/mechanik/dynamik/kraeftegleichgewicht-fehlende-dritte-kraft-loesung-1.png"
     inkscape:export-xdpi="150"
     inkscape:export-ydpi="150" />
</svg>
