<svg xmlns:ns0="http://www.iki.fi/pav/software/textext/" xmlns="http://www.w3.org/2000/svg" xmlns:xlink="http://www.w3.org/1999/xlink" width="210mm" height="297mm"><title>Zerlegung bei bekannten Winkeln</title><defs><marker orient="auto" id="i" overflow="visible"><path d="M8.719 4.034L-2.207.016 8.719-4.002c-1.746 2.372-1.736 5.618 0 8.036z" transform="rotate(180) scale(.6)" fill-rule="evenodd" stroke-width=".625" stroke-linejoin="round"/></marker></defs><path style="marker:none" color="#000" fill="#fff" stroke="#fff" stroke-width="1.312" stroke-linecap="round" stroke-linejoin="bevel" overflow="visible" d="M20.156 346.195h703.782v359.972H20.156z"/><g fill="#d40000" stroke="#d40000"><path d="M104.669 618.395h402.047" stroke-width="6.00012153" stroke-linecap="round"/><path d="M515.586 618.394l-4.435-2.56-4.436-2.56v10.242l4.436-2.56z" stroke-width="7.86235176"/></g><g fill="#d40000" stroke="#d40000"><path d="M104.669 618.395l60.32-161.235" stroke-width="6.000235239999999" stroke-linecap="round"/><path d="M170.147 443.31l-4.84 3.956-4.84 3.956 5.847 2.213 5.846 2.214-1.006-6.17z" stroke-width="7.86218976"/></g><g fill="#d40000" stroke="#d40000"><path d="M104.669 618.394l462.894-176.998" stroke-width="6.000235239999999" stroke-linecap="round"/><path d="M583.373 437.562l-3.956 4.84-3.956 4.84-2.213-5.846-2.213-5.846 6.169 1.006z" stroke-width="7.86218976"/></g><g transform="matrix(5.29276 0 0 5.29276 -651.6 -52.851)" ns0:preamble="/home/waldgeist/data/sphinx/inkscape-preamble.tex" ns0:text="$\\vec{F}_{\\rm{1}}$" fill="#d40000" stroke="#d40000"><defs><symbol id="a" overflow="visible"><path d="M5.36-5.938c-.141.141-.47.422-.47.594 0 .094.094.203.188.203s.14-.078.203-.14c.11-.14.344-.422.782-.64.062-.048.171-.095.171-.204 0-.11-.078-.156-.14-.203a1.034 1.034 0 0 1-.407-.563c-.03-.093-.062-.234-.203-.234-.14 0-.203.14-.203.219 0 .047.078.36.235.578h-3.36c-.156 0-.344 0-.344.203 0 .188.188.188.344.188z" stroke="none"/></symbol><symbol id="b" overflow="visible"><path d="M3.016-3.234h.968c.75 0 .829.156.829.437 0 .078 0 .188-.063.5-.031.047-.031.078-.031.11 0 .078.062.109.11.109.109 0 .109-.031.155-.203l.547-2.172c.032-.11.032-.125.032-.156a.117.117 0 0 0-.125-.11c-.094 0-.11.047-.141.219-.219.766-.438.953-1.297.953h-.906l.64-2.531c.094-.36.11-.39.547-.39h1.313c1.218 0 1.453.327 1.453 1.093 0 .234 0 .266-.031.547C7-4.703 7-4.688 7-4.656c0 .047.031.125.125.125.11 0 .11-.063.125-.25l.203-1.735c.031-.265-.016-.265-.266-.265h-4.89c-.188 0-.297 0-.297.203 0 .11.094.11.281.11.375 0 .656 0 .656.171 0 .047 0 .063-.062.25L1.562-.78c-.093.39-.109.469-.906.469-.172 0-.281 0-.281.187C.375 0 .5 0 .531 0c.281 0 1.031-.031 1.313-.031C2.172-.031 3 0 3.328 0c.094 0 .203 0 .203-.188 0-.078-.047-.109-.047-.109-.03-.016-.062-.016-.28-.016-.22 0-.267 0-.517-.015-.296-.031-.328-.078-.328-.203 0-.016 0-.078.047-.219z" stroke="none"/></symbol><symbol id="c" overflow="visible"><path d="M2.328-4.438c0-.187 0-.187-.203-.187-.453.438-1.078.438-1.36.438v.25c.157 0 .626 0 1-.188v3.547c0 .234 0 .328-.687.328H.812V0c.125 0 .985-.031 1.235-.031.219 0 1.094.031 1.25.031v-.25H3.03c-.703 0-.703-.094-.703-.328z" stroke="none"/></symbol></defs><use height="1052.362" width="744.094" y="132.246" x="224.901" xlink:href="#a"/><use height="1052.362" width="744.094" y="134.765" x="223.432" xlink:href="#b"/><use height="1052.362" width="744.094" y="136.259" x="229.839" xlink:href="#c"/></g><g ns0:text="$\\vec{F}_{\\rm{2}}$" ns0:preamble="/home/waldgeist/data/sphinx/inkscape-preamble.tex" transform="matrix(5.29276 0 0 5.29276 -1038.479 -298.183)" fill="#d40000" stroke="#d40000"><defs><symbol overflow="visible" id="d"><path d="M5.36-5.938c-.141.141-.47.422-.47.594 0 .094.094.203.188.203s.14-.078.203-.14c.11-.14.344-.422.782-.64.062-.048.171-.095.171-.204 0-.11-.078-.156-.14-.203a1.034 1.034 0 0 1-.407-.563c-.03-.093-.062-.234-.203-.234-.14 0-.203.14-.203.219 0 .047.078.36.235.578h-3.36c-.156 0-.344 0-.344.203 0 .188.188.188.344.188z" stroke="none"/></symbol><symbol overflow="visible" id="e"><path d="M3.016-3.234h.968c.75 0 .829.156.829.437 0 .078 0 .188-.063.5-.031.047-.031.078-.031.11 0 .078.062.109.11.109.109 0 .109-.031.155-.203l.547-2.172c.032-.11.032-.125.032-.156a.117.117 0 0 0-.125-.11c-.094 0-.11.047-.141.219-.219.766-.438.953-1.297.953h-.906l.64-2.531c.094-.36.11-.39.547-.39h1.313c1.218 0 1.453.327 1.453 1.093 0 .234 0 .266-.031.547C7-4.703 7-4.688 7-4.656c0 .047.031.125.125.125.11 0 .11-.063.125-.25l.203-1.735c.031-.265-.016-.265-.266-.265h-4.89c-.188 0-.297 0-.297.203 0 .11.094.11.281.11.375 0 .656 0 .656.171 0 .047 0 .063-.062.25L1.562-.78c-.093.39-.109.469-.906.469-.172 0-.281 0-.281.187C.375 0 .5 0 .531 0c.281 0 1.031-.031 1.313-.031C2.172-.031 3 0 3.328 0c.094 0 .203 0 .203-.188 0-.078-.047-.109-.047-.109-.03-.016-.062-.016-.28-.016-.22 0-.267 0-.517-.015-.296-.031-.328-.078-.328-.203 0-.016 0-.078.047-.219z" stroke="none"/></symbol><symbol overflow="visible" id="f"><path d="M3.516-1.266H3.28c-.015.157-.094.563-.187.625-.047.047-.578.047-.688.047H1.125c.734-.64.984-.844 1.39-1.172.516-.406 1-.843 1-1.5 0-.843-.734-1.359-1.624-1.359-.86 0-1.454.61-1.454 1.25 0 .344.297.39.376.39.156 0 .359-.124.359-.374 0-.125-.047-.375-.406-.375.218-.485.687-.641 1.015-.641.703 0 1.063.547 1.063 1.11 0 .609-.438 1.078-.656 1.328L.516-.266C.437-.203.437-.187.437 0h2.876z" stroke="none"/></symbol></defs><use height="1052.362" width="744.094" xlink:href="#d" x="224.901" y="132.246"/><use height="1052.362" width="744.094" xlink:href="#e" x="223.432" y="134.765"/><use height="1052.362" width="744.094" xlink:href="#f" x="229.839" y="136.259"/></g><path d="M524.468 618.394l69.679-186.248" fill="#d40000" stroke="#d40000" stroke-width="6.000177369999999" stroke-linecap="round" stroke-dasharray="6.32378719,12.64757435" opacity=".3"/><path d="M584.534 432.146H166.348" fill="#d40000" stroke="#d40000" stroke-width="6.00054974" stroke-linecap="round" stroke-dasharray="4.02133995,8.0426799" opacity=".3"/><g transform="matrix(5.29276 0 0 5.29276 -580.919 -284.271)" ns0:preamble="/home/waldgeist/data/sphinx/inkscape-preamble.tex" ns0:text="$\\vec{F}$" fill="#d40000" stroke="#d40000"><defs><symbol id="g" overflow="visible"><path d="M5.36-5.938c-.141.141-.47.422-.47.594 0 .094.094.203.188.203s.14-.078.203-.14c.11-.14.344-.422.782-.64.062-.048.171-.095.171-.204 0-.11-.078-.156-.14-.203a1.034 1.034 0 0 1-.407-.563c-.03-.093-.062-.234-.203-.234-.14 0-.203.14-.203.219 0 .047.078.36.235.578h-3.36c-.156 0-.344 0-.344.203 0 .188.188.188.344.188zm0 0" stroke="none"/></symbol><symbol id="h" overflow="visible"><path d="M3.016-3.234h.968c.75 0 .829.156.829.437 0 .078 0 .188-.063.5-.031.047-.031.078-.031.11 0 .078.062.109.11.109.109 0 .109-.031.155-.203l.547-2.172c.032-.11.032-.125.032-.156a.117.117 0 0 0-.125-.11c-.094 0-.11.047-.141.219-.219.766-.438.953-1.297.953h-.906l.64-2.531c.094-.36.11-.39.547-.39h1.313c1.218 0 1.453.327 1.453 1.093 0 .234 0 .266-.031.547C7-4.703 7-4.688 7-4.656c0 .047.031.125.125.125.11 0 .11-.063.125-.25l.203-1.735c.031-.265-.016-.265-.266-.265h-4.89c-.188 0-.297 0-.297.203 0 .11.094.11.281.11.375 0 .656 0 .656.171 0 .047 0 .063-.062.25L1.562-.78c-.093.39-.109.469-.906.469-.172 0-.281 0-.281.187C.375 0 .5 0 .531 0c.281 0 1.031-.031 1.313-.031C2.172-.031 3 0 3.328 0c.094 0 .203 0 .203-.188 0-.078-.047-.109-.047-.109-.03-.016-.062-.016-.28-.016-.22 0-.267 0-.517-.015-.296-.031-.328-.078-.328-.203 0-.016 0-.078.047-.219zm0 0" stroke="none"/></symbol></defs><use y="132.246" x="224.901" xlink:href="#g" width="744.094" height="1052.362"/><use y="134.765" x="223.432" xlink:href="#h" width="744.094" height="1052.362"/></g><path style="marker:none" d="M113.565 368.202a67.396 67.396 0 0 1 38.493 37.528" transform="matrix(0 -1.794 -1.79401 0 878.28 779.258)" color="#000" fill="none" stroke="#500" stroke-width="1.115" stroke-linecap="round" marker-end="url(#i)" overflow="visible"/><path transform="rotate(45 2272.003 -84.888) scale(2.54016 -2.54017)" d="M144.272 391.715a67.396 67.396 0 0 1 10.47 21.967" style="marker:none" color="#000" fill="none" stroke="#500" stroke-width=".787" stroke-linecap="round" marker-end="url(#i)" overflow="visible"/><g ns0:text="$\\alpha$" ns0:preamble="/home/waldgeist/data/sphinx/inkscape-preamble.tex" transform="matrix(5.29276 0 0 5.29276 -961.467 -106.945)" fill="#500" stroke="#d40000"><defs><symbol overflow="visible" id="j"><path d="M4.75-2.36c0-1.562-.922-2.046-1.656-2.046-1.375 0-2.688 1.422-2.688 2.828C.406-.641 1 .109 2.031.109c.625 0 1.344-.234 2.094-.843.125.53.453.843.906.843.532 0 .844-.546.844-.703 0-.078-.063-.11-.125-.11-.063 0-.094.032-.125.11-.188.485-.547.485-.563.485-.312 0-.312-.782-.312-1.016 0-.203 0-.234.11-.344C5.796-2.656 6-3.812 6-3.812c0-.032-.016-.11-.125-.11-.094 0-.094.031-.14.219-.188.625-.516 1.375-.985 1.969zM4.094-.983c-.89.765-1.657.875-2.047.875-.594 0-.906-.454-.906-1.094 0-.484.265-1.563.578-2.063.468-.734 1.015-.921 1.36-.921.983 0 .983 1.312.983 2.078 0 .375 0 .953.032 1.125zm0 0" stroke="none"/></symbol></defs><use height="1052.362" width="744.094" xlink:href="#j" x="223.432" y="134.765"/></g><g transform="matrix(5.29276 0 0 5.29276 -1039.734 -141.612)" ns0:preamble="/home/waldgeist/data/sphinx/inkscape-preamble.tex" ns0:text="$\\beta$" fill="#500" stroke="#500"><defs><symbol id="k" overflow="visible"><path d="M5.734-5.672c0-.75-.546-1.36-1.359-1.36-.578 0-.86.157-1.203.407C2.625-6.219 2.078-5.25 1.89-4.5L.297 1.828c0 .047.047.11.125.11s.11-.032.11-.047l.702-2.766c.188.61.625.969 1.36.969.719 0 1.469-.344 1.922-.781a2.486 2.486 0 0 0 .796-1.829c0-.718-.375-1.25-.734-1.484.578-.344 1.156-.953 1.156-1.672zM3.938-4.016c-.126.047-.235.063-.485.063-.14 0-.328.015-.437-.031.03-.11.39-.079.5-.079.203 0 .296 0 .421.047zm1.234-1.89c0 .703-.375 1.422-.89 1.734-.282-.11-.47-.125-.766-.125-.22 0-.782-.016-.782.313 0 .28.516.25.688.25.375 0 .531 0 .828-.125.375.359.422.671.438 1.125.015.578-.22 1.328-.5 1.718-.391.532-1.063.891-1.625.891-.766 0-1.141-.578-1.141-1.281 0-.094 0-.25.047-.438l.64-2.515c.22-.86.938-2.454 2.141-2.454.578 0 .922.313.922.907zm0 0" stroke="none"/></symbol></defs><use y="134.765" x="223.432" xlink:href="#k" width="744.094" height="1052.362"/></g></svg>