<svg xmlns:ns0="http://www.iki.fi/pav/software/textext/" xmlns="http://www.w3.org/2000/svg" xmlns:xlink="http://www.w3.org/1999/xlink" height="744.094" width="1052.362"><title>Kraftaddition: Kinder mit Schlitten</title><defs><marker orient="auto" id="r" overflow="visible"><path d="M2.308 0l-3.46 2v-4l3.46 2z" fill-rule="evenodd" stroke="#000" stroke-width=".4pt"/></marker><linearGradient id="d"><stop offset="0" stop-opacity="0"/><stop offset="1" stop-color="#fff"/></linearGradient><linearGradient id="e"><stop offset="0" stop-color="#fff"/><stop offset="1" stop-color="#fff" stop-opacity="0"/></linearGradient><linearGradient id="f"><stop offset="0" stop-color="#1a1a1a" stop-opacity=".828"/><stop offset="1" stop-color="#fff"/></linearGradient><linearGradient id="a"><stop offset="0" stop-opacity="0"/><stop offset="1" stop-color="#fff"/></linearGradient><linearGradient id="b"><stop offset="0" stop-color="#ebebeb"/><stop offset="1" stop-color="#fff" stop-opacity="0"/></linearGradient><linearGradient id="c"><stop offset="0" stop-color="#0e0e0e" stop-opacity=".746"/><stop offset="1" stop-color="#fff"/></linearGradient><pattern patternUnits="userSpaceOnUse" width="30.066" height="5.181" id="g"><path d="M7.597.061C5.079-.187 2.656.302-.01 1.788v1.273c2.783-1.63 5.183-2.009 7.482-1.781 2.298.228 4.497 1.081 6.781 1.938 4.567 1.713 9.551 3.458 15.813-.157l-.004-1.273c-6.44 3.709-10.816 1.982-15.371.273-2.278-.854-4.576-1.75-7.094-2z"/></pattern><pattern patternTransform="translate(.25)" id="h" xlink:href="#g"/></defs><g transform="translate(0 -308.268)"><rect width="1011.442" height="628.482" x="20.46" y="366.074" rx="0" ry="0" fill="#fff" stroke="#fff" stroke-width="3" stroke-linecap="round" stroke-dasharray="3,3"/><path d="M314.05 683.43h679.534" fill="none" stroke="#000" stroke-width="2" stroke-dasharray="3.00000007,3.00000007"/><g transform="matrix(.69953 0 0 .7003 36.542 336.777)"><use height="1052.362" width="744.094" transform="translate(0 155.857)" xlink:href="#i" fill="#666"/><rect ry="11.429" rx="33.571" y="412.648" x="31.429" height="11.429" width="389.286" id="i" fill="#666" stroke="#1a1a1a" stroke-width="2.143" stroke-linecap="round"/><path id="j" d="M91.732 456.285l-38.571-38.571" fill="#a05a2c" stroke="#a05a2c" stroke-width="11.43"/><use height="1052.362" width="744.094" transform="translate(276.84 118.524)" xlink:href="#j"/><use height="1052.362" width="744.094" transform="matrix(-1 0 0 1 421.732 -.351)" xlink:href="#j"/><use height="1052.362" width="744.094" transform="matrix(1 0 0 -1 .966 992.523)" xlink:href="#j"/><rect rx="62.143" ry="34.643" y="437.719" x="45" height="117.143" width="351.429" fill="#216778" stroke="#216778" stroke-width="2.143" stroke-linecap="round"/></g><g fill="#d40000" stroke="#d40000"><path d="M259.154 153.508l301.413 2.638" stroke-width="8.587" transform="matrix(1.00777 -.58266 .58184 1.0092 -36.627 679.508)"/><path transform="matrix(-.29694 -.51508 .51435 -.29736 -424.096 627.996)" d="M-707.107 1620.068l-5.249-9.091-5.249-9.092h20.996l-5.249 9.091z" stroke-width="25.161"/></g><g fill="#d40000" stroke="#d40000"><path d="M258.651 154.38l301.916 1.766" stroke-width="8.587" transform="matrix(1.00777 .58266 .58184 -1.0092 -36.627 688.523)"/><path d="M-707.107 1620.068l-5.249-9.091-5.249-9.092h20.996l-5.249 9.091z" transform="matrix(-.29694 .51508 .51435 .29736 -424.096 740.036)" stroke-width="25.161"/></g><g transform="translate(-895.104 -382.574) scale(6.39783)" ns0:text="$\\vec{F}_{\\rm{1}}$\n" ns0:preamble="/home/waldgeist/data/sphinx/test.tex" fill="#d40000"><defs><symbol overflow="visible" id="k"><path d="M5.36-5.938c-.141.141-.47.422-.47.594 0 .094.094.203.188.203s.14-.078.203-.14c.11-.14.344-.422.782-.64.062-.048.171-.095.171-.204 0-.11-.078-.156-.14-.203a1.034 1.034 0 0 1-.407-.563c-.03-.093-.062-.234-.203-.234-.14 0-.203.14-.203.219 0 .047.078.36.235.578h-3.36c-.156 0-.344 0-.344.203 0 .188.188.188.344.188zm0 0"/></symbol><symbol overflow="visible" id="l"><path d="M3.016-3.234h.968c.75 0 .829.156.829.437 0 .078 0 .188-.063.5-.031.047-.031.078-.031.11 0 .078.062.109.11.109.109 0 .109-.031.155-.203l.547-2.172c.032-.11.032-.125.032-.156a.117.117 0 0 0-.125-.11c-.094 0-.11.047-.141.219-.219.766-.438.953-1.297.953h-.906l.64-2.531c.094-.36.11-.39.547-.39h1.313c1.218 0 1.453.327 1.453 1.093 0 .234 0 .266-.031.547C7-4.703 7-4.688 7-4.656c0 .047.031.125.125.125.11 0 .11-.063.125-.25l.203-1.735c.031-.265-.016-.265-.266-.265h-4.89c-.188 0-.297 0-.297.203 0 .11.094.11.281.11.375 0 .656 0 .656.171 0 .047 0 .063-.062.25L1.562-.78c-.093.39-.109.469-.906.469-.172 0-.281 0-.281.187C.375 0 .5 0 .531 0c.281 0 1.031-.031 1.313-.031C2.172-.031 3 0 3.328 0c.094 0 .203 0 .203-.188 0-.078-.047-.109-.047-.109-.03-.016-.062-.016-.28-.016-.22 0-.267 0-.517-.015-.296-.031-.328-.078-.328-.203 0-.016 0-.078.047-.219zm0 0"/></symbol><symbol overflow="visible" id="m"><path d="M2.328-4.438c0-.187 0-.187-.203-.187-.453.438-1.078.438-1.36.438v.25c.157 0 .626 0 1-.188v3.547c0 .234 0 .328-.687.328H.812V0c.125 0 .985-.031 1.235-.031.219 0 1.094.031 1.25.031v-.25H3.03c-.703 0-.703-.094-.703-.328zm0 0"/></symbol></defs><use height="744.094" width="1052.362" xlink:href="#k" x="224.901" y="132.247"/><use height="744.094" width="1052.362" xlink:href="#l" x="223.432" y="134.765"/><use height="744.094" width="1052.362" xlink:href="#m" x="229.839" y="136.259"/></g><g transform="translate(-895.804 70.933) scale(6.39783)" ns0:preamble="/home/waldgeist/data/sphinx/test.tex" ns0:text="$\\vec{F}_{\\rm{2}}$\n" fill="#d40000"><defs><symbol id="n" overflow="visible"><path d="M5.36-5.938c-.141.141-.47.422-.47.594 0 .094.094.203.188.203s.14-.078.203-.14c.11-.14.344-.422.782-.64.062-.048.171-.095.171-.204 0-.11-.078-.156-.14-.203a1.034 1.034 0 0 1-.407-.563c-.03-.093-.062-.234-.203-.234-.14 0-.203.14-.203.219 0 .047.078.36.235.578h-3.36c-.156 0-.344 0-.344.203 0 .188.188.188.344.188zm0 0"/></symbol><symbol id="o" overflow="visible"><path d="M3.016-3.234h.968c.75 0 .829.156.829.437 0 .078 0 .188-.063.5-.031.047-.031.078-.031.11 0 .078.062.109.11.109.109 0 .109-.031.155-.203l.547-2.172c.032-.11.032-.125.032-.156a.117.117 0 0 0-.125-.11c-.094 0-.11.047-.141.219-.219.766-.438.953-1.297.953h-.906l.64-2.531c.094-.36.11-.39.547-.39h1.313c1.218 0 1.453.327 1.453 1.093 0 .234 0 .266-.031.547C7-4.703 7-4.688 7-4.656c0 .047.031.125.125.125.11 0 .11-.063.125-.25l.203-1.735c.031-.265-.016-.265-.266-.265h-4.89c-.188 0-.297 0-.297.203 0 .11.094.11.281.11.375 0 .656 0 .656.171 0 .047 0 .063-.062.25L1.562-.78c-.093.39-.109.469-.906.469-.172 0-.281 0-.281.187C.375 0 .5 0 .531 0c.281 0 1.031-.031 1.313-.031C2.172-.031 3 0 3.328 0c.094 0 .203 0 .203-.188 0-.078-.047-.109-.047-.109-.03-.016-.062-.016-.28-.016-.22 0-.267 0-.517-.015-.296-.031-.328-.078-.328-.203 0-.016 0-.078.047-.219zm0 0"/></symbol><symbol id="p" overflow="visible"><path d="M3.516-1.266H3.28c-.015.157-.094.563-.187.625-.047.047-.578.047-.688.047H1.125c.734-.64.984-.844 1.39-1.172.516-.406 1-.843 1-1.5 0-.843-.734-1.359-1.624-1.359-.86 0-1.454.61-1.454 1.25 0 .344.297.39.376.39.156 0 .359-.124.359-.374 0-.125-.047-.375-.406-.375.218-.485.687-.641 1.015-.641.703 0 1.063.547 1.063 1.11 0 .609-.438 1.078-.656 1.328L.516-.266C.437-.203.437-.187.437 0h2.876zm0 0"/></symbol></defs><use y="132.247" x="224.901" xlink:href="#n" width="1052.362" height="744.094"/><use y="134.765" x="223.432" xlink:href="#o" width="1052.362" height="744.094"/><use y="136.259" x="229.839" xlink:href="#p" width="1052.362" height="744.094"/></g><g transform="translate(-992.238 -207.707) scale(6.39783)" ns0:preamble="/home/waldgeist/data/sphinx/test.tex" ns0:text="$\\varphi$\n" fill="#d40000"><defs><symbol id="q" overflow="visible"><path d="M1.688 1.688c-.032.14-.047.156-.047.203 0 .218.187.28.296.28a.413.413 0 0 0 .36-.265c.031-.078.078-.406.36-1.812.077 0 .155.015.327.015 1.657 0 3.188-1.562 3.188-3.14 0-.781-.39-1.375-1.14-1.375-1.438 0-2.048 1.937-2.641 3.875C1.312-.734.75-1.281.75-2c0-.281.234-1.375.828-2.063.094-.093.094-.109.094-.14 0-.031-.031-.094-.125-.094C1.266-4.297.5-2.844.5-1.89c0 .938.656 1.657 1.719 1.907zM3.077-.47c-.094 0-.11 0-.187-.015-.125 0-.125 0-.125-.032 0-.015.171-.937.187-1.078.313-1.281 1.094-2.234 1.985-2.234.687 0 .953.531.953 1.015 0 1.126-1.282 2.344-2.813 2.344zm0 0"/></symbol></defs><use y="134.765" x="223.432" xlink:href="#q" width="1052.362" height="744.094" fill="#000"/></g><path d="M524.819 347.848a38.768 38.768 0 0 1 25.444 36.406" transform="matrix(1.00947 -1.7566 -1.77678 -1.0306 608.15 1962.898)" fill="#fff" stroke="#000" stroke-width="1.471" marker-end="url(#r)"/><g fill="#d40000" stroke="#d40000"><path d="M259.154 153.508l301.413 2.638" stroke-width="8.587" transform="matrix(1.00777 -.58266 .58184 1.0092 -36.627 679.508)"/><path d="M-707.107 1620.068l-5.249-9.091-5.249-9.092h20.996l-5.249 9.091z" transform="matrix(-.29694 -.51508 .51435 -.29736 -424.096 627.996)" stroke-width="25.161"/></g></g></svg>