<svg xmlns:ns0="http://www.iki.fi/pav/software/textext/" xmlns="http://www.w3.org/2000/svg" xmlns:xlink="http://www.w3.org/1999/xlink" width="210mm" height="297mm"><title>Asymmetrische Kraftzerlegung bei einer Straßenlaterne</title><defs><marker orient="auto" id="o" overflow="visible"><path d="M-4 0l-2 2 7-2-7-2 2 2z" fill-rule="evenodd" stroke="#000" stroke-width=".4pt"/></marker></defs><path style="marker:none" color="#000" fill="#fff" stroke="#fff" stroke-width="1.312" stroke-linecap="round" stroke-linejoin="bevel" overflow="visible" d="M20.156 375.604h703.782v301.154H20.156z"/><path d="M494.45 508.086a73.303 73.303 0 0 1 1.374 13.755" style="marker:none" color="#000" fill="none" stroke="#333" stroke-width=".9997267499999999" stroke-linecap="round" stroke-linejoin="round" overflow="visible"/><g color="#000" fill="gray" stroke="#1a1a1a" stroke-width=".976" stroke-linecap="round" stroke-linejoin="bevel"><path style="marker:none" opacity=".5" overflow="visible" d="M88.194 387.202h16.162v277.959H88.194zM639.738 387.202H655.9v277.959h-16.162z"/></g><path style="marker:none" d="M201.824 559.841a73.303 73.303 0 0 1-.64-9.292" color="#000" fill="none" stroke="#333" stroke-width=".9997267499999999" stroke-linecap="round" stroke-linejoin="round" overflow="visible"/><path d="M104.357 507.515l182.496 36.33 351.473-35.147" opacity=".5" fill="none" stroke="#000" stroke-width="3" stroke-linecap="round"/><g transform="matrix(5.29276 0 0 5.29276 -922.69 -60.294)" ns0:preamble="/home/waldgeist/data/sphinx/inkscape-preamble.tex" ns0:text="$\\vec{F}_{\\rm{G}}$" fill="#d40000" stroke="#d40000"><defs><symbol id="a" overflow="visible"><path d="M5.36-5.938c-.141.141-.47.422-.47.594 0 .094.094.203.188.203s.14-.078.203-.14c.11-.14.344-.422.782-.64.062-.048.171-.095.171-.204 0-.11-.078-.156-.14-.203a1.034 1.034 0 0 1-.407-.563c-.03-.093-.062-.234-.203-.234-.14 0-.203.14-.203.219 0 .047.078.36.235.578h-3.36c-.156 0-.344 0-.344.203 0 .188.188.188.344.188z" stroke="none"/></symbol><symbol id="b" overflow="visible"><path d="M3.016-3.234h.968c.75 0 .829.156.829.437 0 .078 0 .188-.063.5-.031.047-.031.078-.031.11 0 .078.062.109.11.109.109 0 .109-.031.155-.203l.547-2.172c.032-.11.032-.125.032-.156a.117.117 0 0 0-.125-.11c-.094 0-.11.047-.141.219-.219.766-.438.953-1.297.953h-.906l.64-2.531c.094-.36.11-.39.547-.39h1.313c1.218 0 1.453.327 1.453 1.093 0 .234 0 .266-.031.547C7-4.703 7-4.688 7-4.656c0 .047.031.125.125.125.11 0 .11-.063.125-.25l.203-1.735c.031-.265-.016-.265-.266-.265h-4.89c-.188 0-.297 0-.297.203 0 .11.094.11.281.11.375 0 .656 0 .656.171 0 .047 0 .063-.062.25L1.562-.78c-.093.39-.109.469-.906.469-.172 0-.281 0-.281.187C.375 0 .5 0 .531 0c.281 0 1.031-.031 1.313-.031C2.172-.031 3 0 3.328 0c.094 0 .203 0 .203-.188 0-.078-.047-.109-.047-.109-.03-.016-.062-.016-.28-.016-.22 0-.267 0-.517-.015-.296-.031-.328-.078-.328-.203 0-.016 0-.078.047-.219z" stroke="none"/></symbol><symbol id="c" overflow="visible"><path d="M5.188-1.36c0-.312.078-.312.546-.312v-.25c-.062 0-.562.031-.906.031-.375 0-.89 0-1.266-.03v.25h.266c.703 0 .703.093.703.312v.453c0 .156 0 .422-.406.625-.328.172-.719.172-.813.172-.796 0-2.078-.454-2.078-2.282 0-1.843 1.329-2.25 2.016-2.25.672 0 1.516.454 1.688 1.657.015.078.078.078.125.078.125 0 .125-.047.125-.188v-1.625c0-.125 0-.187-.094-.187-.032 0-.063 0-.125.093l-.36.532a1.994 1.994 0 0 0-1.453-.625C1.703-4.906.484-3.781.484-2.391.484-1 1.672.141 3.172.141c.39 0 1.156-.078 1.484-.563.125.188.375.422.453.422.079 0 .079-.078.079-.188z" stroke="none"/></symbol></defs><g stroke-width="1.107"><use y="132.246" x="224.901" xlink:href="#a" width="744.094" height="1052.362" transform="matrix(.90366 0 0 .90366 22.13 12.598)"/><use y="134.765" x="223.432" xlink:href="#b" width="744.094" height="1052.362" transform="matrix(.90366 0 0 .90366 22.13 12.598)"/><use y="136.259" x="229.839" xlink:href="#c" width="744.094" height="1052.362" transform="matrix(.90366 0 0 .90366 22.13 12.598)"/></g></g><g opacity=".5" color="#000" stroke-linecap="round" stroke-linejoin="round"><path d="M290.998 543.845a4.145 4.145 0 1 1-8.29 0 4.145 4.145 0 0 1 8.29 0z" style="marker:none" fill="#b3b3b3" stroke="#000" stroke-width="1.5" overflow="visible"/><g transform="translate(-257.455 44.777)"><path transform="matrix(.69466 0 0 .8676 259.588 233.468)" d="M444.467 352.326c0 8.369-15.49 15.153-34.598 15.153-19.107 0-34.597-6.784-34.597-15.153h34.597z" style="marker:none" opacity=".5" fill="#fc0" stroke="#d4aa00" stroke-width="1.288" overflow="visible"/><rect ry="0" rx="0" y="499.068" x="511.503" height="22.038" width="65.61" style="marker:none" fill="#999" stroke="#1a1a1a" stroke-width="1.5" overflow="visible"/><path style="marker:none" d="M502.132 517.107h84.352l20 22.038H482.132z" fill="#999" stroke="#1a1a1a" stroke-width="1.5" overflow="visible"/></g></g><g ns0:text="$\\vec{F}_{\\rm{1}}$" ns0:preamble="/home/waldgeist/data/sphinx/inkscape-preamble.tex" transform="matrix(4.75407 0 0 4.75407 -986.758 -20.54)" fill="#d40000" stroke="#d40000" stroke-width="1.113"><defs><symbol overflow="visible" id="d"><path d="M5.36-5.938c-.141.141-.47.422-.47.594 0 .094.094.203.188.203s.14-.078.203-.14c.11-.14.344-.422.782-.64.062-.048.171-.095.171-.204 0-.11-.078-.156-.14-.203a1.034 1.034 0 0 1-.407-.563c-.03-.093-.062-.234-.203-.234-.14 0-.203.14-.203.219 0 .047.078.36.235.578h-3.36c-.156 0-.344 0-.344.203 0 .188.188.188.344.188z" stroke="none"/></symbol><symbol overflow="visible" id="e"><path d="M3.016-3.234h.968c.75 0 .829.156.829.437 0 .078 0 .188-.063.5-.031.047-.031.078-.031.11 0 .078.062.109.11.109.109 0 .109-.031.155-.203l.547-2.172c.032-.11.032-.125.032-.156a.117.117 0 0 0-.125-.11c-.094 0-.11.047-.141.219-.219.766-.438.953-1.297.953h-.906l.64-2.531c.094-.36.11-.39.547-.39h1.313c1.218 0 1.453.327 1.453 1.093 0 .234 0 .266-.031.547C7-4.703 7-4.688 7-4.656c0 .047.031.125.125.125.11 0 .11-.063.125-.25l.203-1.735c.031-.265-.016-.265-.266-.265h-4.89c-.188 0-.297 0-.297.203 0 .11.094.11.281.11.375 0 .656 0 .656.171 0 .047 0 .063-.062.25L1.562-.78c-.093.39-.109.469-.906.469-.172 0-.281 0-.281.187C.375 0 .5 0 .531 0c.281 0 1.031-.031 1.313-.031C2.172-.031 3 0 3.328 0c.094 0 .203 0 .203-.188 0-.078-.047-.109-.047-.109-.03-.016-.062-.016-.28-.016-.22 0-.267 0-.517-.015-.296-.031-.328-.078-.328-.203 0-.016 0-.078.047-.219z" stroke="none"/></symbol><symbol overflow="visible" id="f"><path d="M2.328-4.438c0-.187 0-.187-.203-.187-.453.438-1.078.438-1.36.438v.25c.157 0 .626 0 1-.188v3.547c0 .234 0 .328-.687.328H.812V0c.125 0 .985-.031 1.235-.031.219 0 1.094.031 1.25.031v-.25H3.03c-.703 0-.703-.094-.703-.328z" stroke="none"/></symbol></defs><use xlink:href="#d" x="224.901" y="132.246" width="744.094" height="1052.362" transform="translate(5.668)"/><use xlink:href="#e" x="223.432" y="134.765" width="744.094" height="1052.362" transform="translate(5.668)"/><use xlink:href="#f" x="229.839" y="136.259" width="744.094" height="1052.362" transform="translate(5.668)"/></g><g transform="matrix(4.75407 0 0 4.75407 -506.02 34.853)" ns0:preamble="/home/waldgeist/data/sphinx/inkscape-preamble.tex" ns0:text="$\\vec{F}_{\\rm{2}}$" fill="#d40000" stroke="#d40000" stroke-width="1.113"><defs><symbol id="g" overflow="visible"><path d="M5.36-5.938c-.141.141-.47.422-.47.594 0 .094.094.203.188.203s.14-.078.203-.14c.11-.14.344-.422.782-.64.062-.048.171-.095.171-.204 0-.11-.078-.156-.14-.203a1.034 1.034 0 0 1-.407-.563c-.03-.093-.062-.234-.203-.234-.14 0-.203.14-.203.219 0 .047.078.36.235.578h-3.36c-.156 0-.344 0-.344.203 0 .188.188.188.344.188z" stroke="none"/></symbol><symbol id="h" overflow="visible"><path d="M3.016-3.234h.968c.75 0 .829.156.829.437 0 .078 0 .188-.063.5-.031.047-.031.078-.031.11 0 .078.062.109.11.109.109 0 .109-.031.155-.203l.547-2.172c.032-.11.032-.125.032-.156a.117.117 0 0 0-.125-.11c-.094 0-.11.047-.141.219-.219.766-.438.953-1.297.953h-.906l.64-2.531c.094-.36.11-.39.547-.39h1.313c1.218 0 1.453.327 1.453 1.093 0 .234 0 .266-.031.547C7-4.703 7-4.688 7-4.656c0 .047.031.125.125.125.11 0 .11-.063.125-.25l.203-1.735c.031-.265-.016-.265-.266-.265h-4.89c-.188 0-.297 0-.297.203 0 .11.094.11.281.11.375 0 .656 0 .656.171 0 .047 0 .063-.062.25L1.562-.78c-.093.39-.109.469-.906.469-.172 0-.281 0-.281.187C.375 0 .5 0 .531 0c.281 0 1.031-.031 1.313-.031C2.172-.031 3 0 3.328 0c.094 0 .203 0 .203-.188 0-.078-.047-.109-.047-.109-.03-.016-.062-.016-.28-.016-.22 0-.267 0-.517-.015-.296-.031-.328-.078-.328-.203 0-.016 0-.078.047-.219z" stroke="none"/></symbol><symbol id="i" overflow="visible"><path d="M3.516-1.266H3.28c-.015.157-.094.563-.187.625-.047.047-.578.047-.688.047H1.125c.734-.64.984-.844 1.39-1.172.516-.406 1-.843 1-1.5 0-.843-.734-1.359-1.624-1.359-.86 0-1.454.61-1.454 1.25 0 .344.297.39.376.39.156 0 .359-.124.359-.374 0-.125-.047-.375-.406-.375.218-.485.687-.641 1.015-.641.703 0 1.063.547 1.063 1.11 0 .609-.438 1.078-.656 1.328L.516-.266C.437-.203.437-.187.437 0h2.876z" stroke="none"/></symbol></defs><use y="132.246" x="224.901" xlink:href="#g" width="744.094" height="1052.362" transform="translate(-26.72 -8.707)"/><use y="134.765" x="223.432" xlink:href="#h" width="744.094" height="1052.362" transform="translate(-26.72 -8.707)"/><use y="136.259" x="229.839" xlink:href="#i" width="744.094" height="1052.362" transform="translate(-26.72 -8.707)"/></g><path d="M144.104 311.326L483.907 178.33" fill="#d40000" stroke="#d40000" stroke-width="9.433" stroke-linecap="round" stroke-dasharray="12.35304476,24.70608952" transform="matrix(.41171 -.36813 -.18556 -.8168 285.293 900.407)" opacity=".3"/><path d="M287.703 576.61h163.73" fill="none" stroke="#000" stroke-linecap="round" stroke-dasharray="1.00000003,3.00000009"/><g fill="#d40000" stroke="#d40000"><path d="M325.008 156.146H481.7" stroke-width="14.359" stroke-linecap="round" transform="matrix(0 .28589 -.49473 0 364.103 452.528)"/><path transform="matrix(.2525 0 0 .1459 465.407 358.116)" d="M-707.107 1620.068l-5.249-9.091-5.249-9.092h20.996l-5.249 9.091z" stroke-width="31.26"/></g><path d="M286.853 593.068l-164.068-32.814" fill="#d40000" stroke="#d40000" stroke-width="5.9997575" stroke-linecap="round" stroke-dasharray="7.70718744,15.41437489" opacity=".3"/><path d="M102.36 508.027h537.378" fill="none" stroke="#000" stroke-linecap="round" stroke-dasharray="1.00000001,3.00000002"/><g ns0:text="$\\alpha$" ns0:preamble="/home/waldgeist/data/sphinx/inkscape-preamble.tex" transform="matrix(4.25 0 0 4.25 -419.404 -73.607)" fill="#d40000" stroke="#d40000" stroke-width="1.245"><defs><symbol overflow="visible" id="j"><path d="M4.75-2.36c0-1.562-.922-2.046-1.656-2.046-1.375 0-2.688 1.422-2.688 2.828C.406-.641 1 .109 2.031.109c.625 0 1.344-.234 2.094-.843.125.53.453.843.906.843.532 0 .844-.546.844-.703 0-.078-.063-.11-.125-.11-.063 0-.094.032-.125.11-.188.485-.547.485-.563.485-.312 0-.312-.782-.312-1.016 0-.203 0-.234.11-.344C5.796-2.656 6-3.812 6-3.812c0-.032-.016-.11-.125-.11-.094 0-.094.031-.14.219-.188.625-.516 1.375-.985 1.969zM4.094-.983c-.89.765-1.657.875-2.047.875-.594 0-.906-.454-.906-1.094 0-.484.265-1.563.578-2.063.468-.734 1.015-.921 1.36-.921.983 0 .983 1.312.983 2.078 0 .375 0 .953.032 1.125zm0 0" stroke="none"/></symbol></defs><use height="1052.362" width="744.094" xlink:href="#j" x="223.432" y="134.765" fill="#000"/></g><use y="134.765" x="223.432" xlink:href="#j" width="744.094" height="1052.362" fill="#000" transform="matrix(2.72 0 0 2.72 -441.234 219.728)" ns0:preamble="/home/waldgeist/data/sphinx/inkscape-preamble.tex" ns0:text="$\\alpha$" stroke="#d40000" stroke-width="1.946"/><g transform="matrix(2.16792 0 0 2.16792 -267.585 284.681)" ns0:preamble="/home/waldgeist/data/sphinx/inkscape-preamble.tex" ns0:text="$F_{\\rm{1,x}}$" fill="#f60" stroke="#f60" stroke-width="2.441"><defs><symbol id="k" overflow="visible"><path d="M3.016-3.234h.968c.75 0 .829.156.829.437 0 .078 0 .188-.063.5-.031.047-.031.078-.031.11 0 .078.062.109.11.109.109 0 .109-.031.155-.203l.547-2.172c.032-.11.032-.125.032-.156a.117.117 0 0 0-.125-.11c-.094 0-.11.047-.141.219-.219.766-.438.953-1.297.953h-.906l.64-2.531c.094-.36.11-.39.547-.39h1.313c1.218 0 1.453.327 1.453 1.093 0 .234 0 .266-.031.547C7-4.703 7-4.688 7-4.656c0 .047.031.125.125.125.11 0 .11-.063.125-.25l.203-1.735c.031-.265-.016-.265-.266-.265h-4.89c-.188 0-.297 0-.297.203 0 .11.094.11.281.11.375 0 .656 0 .656.171 0 .047 0 .063-.062.25L1.562-.78c-.093.39-.109.469-.906.469-.172 0-.281 0-.281.187C.375 0 .5 0 .531 0c.281 0 1.031-.031 1.313-.031C2.172-.031 3 0 3.328 0c.094 0 .203 0 .203-.188 0-.078-.047-.109-.047-.109-.03-.016-.062-.016-.28-.016-.22 0-.267 0-.517-.015-.296-.031-.328-.078-.328-.203 0-.016 0-.078.047-.219zm0 0" stroke="none"/></symbol><symbol id="l" overflow="visible"><path d="M2.328-4.438c0-.187 0-.187-.203-.187-.453.438-1.078.438-1.36.438v.25c.157 0 .626 0 1-.188v3.547c0 .234 0 .328-.687.328H.812V0c.125 0 .985-.031 1.235-.031.219 0 1.094.031 1.25.031v-.25H3.03c-.703 0-.703-.094-.703-.328zm0 0" stroke="none"/></symbol><symbol id="n" overflow="visible"><path d="M2.36-1.563l-.047-.062c0-.031.453-.516.515-.578.25-.281.485-.547 1.047-.547V-3c-.203.016-.406.031-.594.031-.203 0-.484-.015-.687-.031v.25c.11.016.14.094.14.156 0 .016 0 .125-.109.235l-.484.546-.579-.656c-.078-.078-.078-.11-.078-.14 0-.094.094-.141.188-.141V-3c-.25.016-.516.031-.781.031-.204 0-.47-.015-.672-.031v.25c.312 0 .5 0 .687.203l.86 1c.015.016.062.063.062.078 0 .016-.531.594-.594.672-.265.281-.5.531-1.046.547V0C.39-.016.546-.031.765-.031c.203 0 .484.015.687.031v-.25c-.078-.016-.14-.063-.14-.156 0-.14.078-.235.187-.344l.5-.547.594.703c.14.14.14.156.14.203 0 .125-.156.141-.187.141V0c.062 0 .562-.031.781-.031.219 0 .453.015.672.031v-.25c-.469 0-.516-.047-.688-.219zm0 0" stroke="none"/></symbol><symbol id="m" overflow="visible"><path d="M1.469-.11c0 .376-.063.829-.547 1.266-.016.032-.047.063-.047.094 0 .047.063.094.094.094.11 0 .703-.563.703-1.39 0-.423-.172-.75-.5-.75a.387.387 0 0 0-.39.39c0 .219.155.406.405.406.172 0 .282-.11.282-.11zm0 0" stroke="none"/></symbol></defs><use y="134.765" x="223.432" xlink:href="#k" width="744.094" height="1052.362"/><use y="136.259" x="229.839" xlink:href="#l" width="744.094" height="1052.362"/><use y="136.259" x="233.81" xlink:href="#m" width="744.094" height="1052.362"/><use y="136.259" x="236.176" xlink:href="#n" width="744.094" height="1052.362"/></g><path d="M376.45 576.091a73.303 73.303 0 0 1 1.374-13.755" style="marker:none" color="#000" fill="none" stroke="#333" stroke-width=".9997267499999999" stroke-linecap="round" stroke-linejoin="round" overflow="visible"/><path d="M286.853 543.845c78.05 15.717 86.267 17.002 161.977 32.248" fill="#d40000" stroke="#d40000" stroke-width="5.4004071" stroke-linecap="round"/><path d="M-707.107 1620.068l-5.249-9.091-5.249-9.092h20.996l-5.249 9.091z" transform="matrix(.04914 -.24767 .14312 .0284 254.32 355.47)" fill="#d40000" stroke="#d40000" stroke-width="31.26"/><path d="M286.853 543.845c-70.384 6.615-90.424 9.455-158.697 15.87" fill="#d40000" stroke="#d40000" stroke-width="5.40048096" stroke-linecap="round"/><path transform="matrix(-.04942 -.51137 -.2955 .02857 566.577 152.37)" d="M-707.107 1620.068l-5.249-9.091-5.249-9.092h20.996l-5.249 9.091z" fill="#d40000" stroke="#d40000" stroke-width="15.363"/><path style="marker:none" d="M434.855 660.572a66.583 66.583 0 0 1 .89 12.643" transform="matrix(-.897 -.897 -.897 .897 1511.304 302.29)" color="#000" fill="none" stroke="#000" stroke-width=".788" stroke-linecap="round" stroke-linejoin="round" marker-end="url(#o)" overflow="visible"/><g transform="matrix(4.25 0 0 4.25 -801.869 -75.607)" ns0:preamble="/home/waldgeist/data/sphinx/inkscape-preamble.tex" ns0:text="$\\beta$" fill="#d40000" stroke="#d40000" stroke-width="1.245"><defs><symbol id="p" overflow="visible"><path d="M5.734-5.672c0-.75-.546-1.36-1.359-1.36-.578 0-.86.157-1.203.407C2.625-6.219 2.078-5.25 1.89-4.5L.297 1.828c0 .047.047.11.125.11s.11-.032.11-.047l.702-2.766c.188.61.625.969 1.36.969.719 0 1.469-.344 1.922-.781a2.486 2.486 0 0 0 .796-1.829c0-.718-.375-1.25-.734-1.484.578-.344 1.156-.953 1.156-1.672zM3.938-4.016c-.126.047-.235.063-.485.063-.14 0-.328.015-.437-.031.03-.11.39-.079.5-.079.203 0 .296 0 .421.047zm1.234-1.89c0 .703-.375 1.422-.89 1.734-.282-.11-.47-.125-.766-.125-.22 0-.782-.016-.782.313 0 .28.516.25.688.25.375 0 .531 0 .828-.125.375.359.422.671.438 1.125.015.578-.22 1.328-.5 1.718-.391.532-1.063.891-1.625.891-.766 0-1.141-.578-1.141-1.281 0-.094 0-.25.047-.438l.64-2.515c.22-.86.938-2.454 2.141-2.454.578 0 .922.313.922.907zm0 0" stroke="none"/></symbol></defs><use y="134.765" x="223.432" xlink:href="#p" width="744.094" height="1052.362" fill="#000"/></g><path style="marker:none" d="M189.824 508.086a73.303 73.303 0 0 1-1.374 13.755" color="#000" fill="none" stroke="#333" stroke-width=".9997267499999999" stroke-linecap="round" stroke-linejoin="round" overflow="visible"/><path transform="rotate(-45 -44.332 1139.107) scale(1.26854)" d="M434.855 660.572a66.583 66.583 0 0 1 .89 12.643" style="marker:none" color="#000" fill="none" stroke="#000" stroke-width=".788" stroke-linecap="round" stroke-linejoin="round" marker-end="url(#o)" overflow="visible"/><use height="1052.362" width="744.094" xlink:href="#p" x="223.432" y="134.765" fill="#000" transform="matrix(2.72 0 0 2.72 -221.092 235.728)" ns0:text="$\\beta$" ns0:preamble="/home/waldgeist/data/sphinx/inkscape-preamble.tex" stroke="#d40000" stroke-width="1.946"/><path style="marker:none" d="M434.855 660.572a66.583 66.583 0 0 1 .89 12.643" transform="matrix(.897 -.897 -.897 -.897 595.462 1564.57)" color="#000" fill="none" stroke="#000" stroke-width=".788" stroke-linecap="round" stroke-linejoin="round" marker-end="url(#o)" overflow="visible"/><path d="M286.853 543.845v16.41" fill="none" stroke="#f60" stroke-width="1.5" stroke-linecap="round"/><path d="M122.785 560.254h163.73" fill="none" stroke="#000" stroke-linecap="round" stroke-dasharray="1.00000003,3.00000009"/><path d="M125.776 560.254h161.077" fill="none" stroke="#f60" stroke-width="1.5" stroke-linecap="round"/><g ns0:text="$F_{\\rm{1,y}}$" ns0:preamble="/home/waldgeist/data/sphinx/inkscape-preamble.tex" transform="matrix(2.16792 0 0 2.16792 -197.357 272.914)" fill="#f60" stroke="#f60" stroke-width="2.441"><defs><symbol overflow="visible" id="q"><path d="M3.016-3.234h.968c.75 0 .829.156.829.437 0 .078 0 .188-.063.5-.031.047-.031.078-.031.11 0 .078.062.109.11.109.109 0 .109-.031.155-.203l.547-2.172c.032-.11.032-.125.032-.156a.117.117 0 0 0-.125-.11c-.094 0-.11.047-.141.219-.219.766-.438.953-1.297.953h-.906l.64-2.531c.094-.36.11-.39.547-.39h1.313c1.218 0 1.453.327 1.453 1.093 0 .234 0 .266-.031.547C7-4.703 7-4.688 7-4.656c0 .047.031.125.125.125.11 0 .11-.063.125-.25l.203-1.735c.031-.265-.016-.265-.266-.265h-4.89c-.188 0-.297 0-.297.203 0 .11.094.11.281.11.375 0 .656 0 .656.171 0 .047 0 .063-.062.25L1.562-.78c-.093.39-.109.469-.906.469-.172 0-.281 0-.281.187C.375 0 .5 0 .531 0c.281 0 1.031-.031 1.313-.031C2.172-.031 3 0 3.328 0c.094 0 .203 0 .203-.188 0-.078-.047-.109-.047-.109-.03-.016-.062-.016-.28-.016-.22 0-.267 0-.517-.015-.296-.031-.328-.078-.328-.203 0-.016 0-.078.047-.219zm0 0" stroke="none"/></symbol><symbol overflow="visible" id="r"><path d="M2.328-4.438c0-.187 0-.187-.203-.187-.453.438-1.078.438-1.36.438v.25c.157 0 .626 0 1-.188v3.547c0 .234 0 .328-.687.328H.812V0c.125 0 .985-.031 1.235-.031.219 0 1.094.031 1.25.031v-.25H3.03c-.703 0-.703-.094-.703-.328zm0 0" stroke="none"/></symbol><symbol overflow="visible" id="t"><path d="M3.297-2.328c.187-.422.547-.422.656-.422V-3c-.187.016-.328.031-.531.031-.188 0-.438-.015-.625-.031v.25c.234.016.281.156.281.266 0 .078-.031.14-.062.218L2.25-.625l-.86-1.828a.252.252 0 0 1-.046-.14c0-.157.234-.157.36-.157V-3c-.11 0-.61.031-.798.031C.687-2.969.422-2.984.22-3v.25c.39 0 .469.016.562.234L1.953 0c-.062.14-.125.266-.187.406-.157.344-.375.813-.86.813-.172 0-.219-.032-.297-.078.016 0 .204-.063.204-.297A.287.287 0 0 0 .516.547C.328.547.203.672.203.844c0 .328.328.578.703.578.594 0 .938-.625 1.031-.828zm0 0" stroke="none"/></symbol><symbol overflow="visible" id="s"><path d="M1.469-.11c0 .376-.063.829-.547 1.266-.016.032-.047.063-.047.094 0 .047.063.094.094.094.11 0 .703-.563.703-1.39 0-.423-.172-.75-.5-.75a.387.387 0 0 0-.39.39c0 .219.155.406.405.406.172 0 .282-.11.282-.11zm0 0" stroke="none"/></symbol></defs><use height="1052.362" width="744.094" xlink:href="#q" x="223.432" y="134.765"/><use height="1052.362" width="744.094" xlink:href="#r" x="229.839" y="136.259"/><use height="1052.362" width="744.094" xlink:href="#s" x="233.81" y="136.259"/><use height="1052.362" width="744.094" xlink:href="#t" x="236.176" y="136.259"/></g><path transform="rotate(-135 310.454 781.123) scale(1.26854)" d="M434.855 660.572a66.583 66.583 0 0 1 .89 12.643" style="marker:none" color="#000" fill="none" stroke="#000" stroke-width=".788" stroke-linecap="round" stroke-linejoin="round" marker-end="url(#o)" overflow="visible"/></svg>