<svg xmlns:ns0="http://www.iki.fi/pav/software/textext/" xmlns="http://www.w3.org/2000/svg" xmlns:xlink="http://www.w3.org/1999/xlink" width="210mm" height="297mm"><title>Asymmetrische Kraftzerlegung bei einer Straßenlaterne</title><defs><marker id="a" orient="auto" overflow="visible"><path d="M-4 0l-2 2 7-2-7-2 2 2z" fill-rule="evenodd" stroke="#000" stroke-width=".4pt"/></marker></defs><path style="marker:none" color="#000" fill="#fff" stroke="#fff" stroke-width="1.312" stroke-linecap="round" stroke-linejoin="bevel" overflow="visible" d="M20.156 421.889h703.782v208.584H20.156z"/><path d="M105.85 512.494l265.776-27.075-.56 27.075zM637.403 539.562l-265.777 27.074.56-27.074z" style="marker:none" color="#000" fill="#ffb380" stroke-width="2" overflow="visible"/><g opacity=".5" color="#000" stroke-linecap="round" stroke-linejoin="round"><path style="marker:none" d="M378.466 485.42a6.84 6.84 0 1 1-13.68 0 6.84 6.84 0 0 1 13.68 0z" fill="#b3b3b3" stroke="#000" stroke-width="1.49985" overflow="visible"/><g transform="matrix(1.65 0 0 1.65 -526.482 -338.044)"><path style="marker:none" d="M444.467 352.326c0 8.369-15.49 15.153-34.598 15.153-19.107 0-34.597-6.784-34.597-15.153h34.597z" transform="matrix(.69466 0 0 .8676 259.588 233.468)" opacity=".5" fill="#fc0" stroke="#d4aa00" stroke-width=".781" overflow="visible"/><rect style="marker:none" width="65.61" height="22.038" x="511.503" y="499.068" rx="0" ry="0" fill="#999" stroke="#1a1a1a" stroke-width=".909" overflow="visible"/><path d="M502.132 517.107h84.352l20 22.038H482.132z" style="marker:none" fill="#999" stroke="#1a1a1a" stroke-width=".909" overflow="visible"/></g></g><path d="M373.028 539.48H643.18" fill="none" stroke="#000" stroke-linecap="round" stroke-dasharray="1.00000004,3.00000009"/><path d="M371.626 566.637l-270.713-54.143" fill="#d40000" stroke="#d40000" stroke-width="6.0003003900000005" stroke-linecap="round" stroke-dasharray="4.67102269,9.34204539" opacity=".3"/><path d="M194.362 544.861c0-7.012-4.137-9.186-7.433-9.186-6.17 0-12.061 6.381-12.061 12.693 0 4.207 2.665 7.573 7.293 7.573 2.805 0 6.03-1.052 9.396-3.787.561 2.385 2.034 3.787 4.068 3.787 2.384 0 3.786-2.454 3.786-3.156 0-.35-.28-.49-.56-.49-.281 0-.421.14-.562.49-.841 2.174-2.454 2.174-2.524 2.174-1.403 0-1.403-3.506-1.403-4.558 0-.911 0-1.052.491-1.543 4.208-5.33 5.12-10.518 5.12-10.518 0-.14-.07-.491-.562-.491-.42 0-.42.14-.63.982-.842 2.805-2.315 6.17-4.419 8.835zm-2.945 6.171c-3.997 3.436-7.433 3.927-9.186 3.927-2.665 0-4.067-2.033-4.067-4.908 0-2.174 1.192-7.013 2.594-9.257 2.104-3.296 4.558-4.137 6.101-4.137 4.418 0 4.418 5.89 4.418 9.326 0 1.683 0 4.278.14 5.05zm0 0" stroke="none" fill="#000" ns0:text="$\\alpha$" ns0:preamble="/home/waldgeist/data/sphinx/inkscape-preamble.tex" stroke-width="1.179"/><path style="marker:none" d="M519.46 538.487a120.95 120.95 0 0 1 2.268-22.695" color="#000" fill="none" stroke="#333" stroke-width=".99973" stroke-linecap="round" stroke-linejoin="round" overflow="visible"/><path d="M604.506 478.277c0-3.366-2.454-6.1-6.1-6.1-2.595 0-3.857.7-5.4 1.823-2.455 1.823-4.909 6.17-5.75 9.537l-7.153 28.4c0 .21.21.491.56.491.351 0 .492-.14.492-.21l3.155-12.412c.842 2.735 2.805 4.348 6.101 4.348 3.226 0 6.592-1.543 8.626-3.507 2.173-2.033 3.576-4.908 3.576-8.204 0-3.226-1.683-5.61-3.296-6.662 2.595-1.543 5.19-4.278 5.19-7.504zm-8.064 7.434c-.561.21-1.052.28-2.174.28-.631 0-1.473.07-1.963-.14.14-.49 1.753-.35 2.244-.35.911 0 1.332 0 1.893.21zm5.54-8.485c0 3.155-1.683 6.381-3.997 7.783-1.263-.49-2.104-.56-3.436-.56-.982 0-3.507-.07-3.507 1.402 0 1.262 2.314 1.122 3.086 1.122 1.683 0 2.384 0 3.716-.561 1.683 1.613 1.894 3.015 1.964 5.049.07 2.595-.982 5.96-2.244 7.714-1.753 2.384-4.769 3.997-7.293 3.997-3.436 0-5.12-2.595-5.12-5.75 0-.421 0-1.122.211-1.964l2.875-11.29c.982-3.857 4.208-11.01 9.607-11.01 2.595 0 4.138 1.403 4.138 4.068zm0 0" stroke="none" fill="#000" ns0:preamble="/home/waldgeist/data/sphinx/inkscape-preamble.tex" ns0:text="$\\beta$" stroke-width="1.179"/><path d="M371.906 539.562v27.074" fill="none" stroke="#f60" stroke-width="1.5" stroke-linecap="round"/><path d="M100.913 512.494h270.154" fill="none" stroke="#000" stroke-linecap="round" stroke-dasharray="1.00000004,3.00000009"/><path d="M105.85 512.494h265.776M371.626 539.562h265.777" fill="none" stroke="#f60" stroke-width="1.5" stroke-linecap="round"/><path style="marker:none" d="M434.855 660.572a66.583 66.583 0 0 1 .89 12.643" transform="rotate(-135 376.096 1103.948) scale(2.09309)" color="#000" fill="none" stroke="#000" stroke-width=".478" stroke-linecap="round" stroke-linejoin="round" marker-end="url(#a)" overflow="visible"/><path d="M231.328 511.812a120.95 120.95 0 0 1-.756-12.899" style="marker:none" color="#000" fill="none" stroke="#333" stroke-width=".99973" stroke-linecap="round" stroke-linejoin="round" overflow="visible"/><path style="marker:none" d="M371.65 513.083a27.664 27.664 0 0 1 27.018-21.831" color="#000" fill="none" stroke="#333" stroke-width="1.0001588399999999" stroke-linecap="round" stroke-linejoin="round" overflow="visible"/><path d="M383.178 539.71a10.476 10.476 0 0 1-10.505-10.467" style="marker:none" color="#000" fill="none" stroke="#333" stroke-width=".99994132" stroke-linecap="round" stroke-linejoin="round" overflow="visible"/><path d="M377.868 534.888a1.039 1.039 0 1 1-2.078 0 1.039 1.039 0 1 1 2.078 0z" style="marker:none" color="#000" fill="#4d4d4d" stroke="#4d4d4d" stroke-width=".30922499999999997" overflow="visible"/><path style="marker:none" d="M433.86 655.73a66.583 66.583 0 0 1 1.886 17.485" transform="matrix(2.09309 0 0 2.09309 -528.032 -907.103)" color="#000" fill="none" stroke="#000" stroke-width=".478" stroke-linecap="round" stroke-linejoin="round" marker-end="url(#a)" overflow="visible"/><g transform="matrix(4.488 0 0 4.488 -685.429 -142.038)" ns0:preamble="/home/waldgeist/data/homepage/inkscape-preamble.tex" ns0:text="$90^{\\circ} \\! - \\! \\beta$" fill="#d40000" stroke="#d40000" stroke-width="1.179"><defs><symbol id="b" overflow="visible"><path d="M3.656-3.172v.328c0 2.328-1.031 2.781-1.61 2.781-.171 0-.718-.015-.983-.359.437 0 .515-.281.515-.453 0-.313-.234-.453-.453-.453-.156 0-.453.078-.453.469 0 .671.531 1.078 1.375 1.078 1.297 0 2.515-1.36 2.515-3.5 0-2.688-1.156-3.36-2.046-3.36-.547 0-1.032.188-1.454.625-.421.454-.64.875-.64 1.625 0 1.235.875 2.22 1.984 2.22.61 0 1.016-.423 1.25-1zm-1.234.766c-.156 0-.625 0-.922-.625-.188-.375-.188-.86-.188-1.36 0-.53 0-1 .22-1.375.265-.5.64-.625.984-.625.468 0 .796.344.968.782.11.328.157.953.157 1.406 0 .828-.344 1.797-1.22 1.797zm0 0" stroke="none"/></symbol><symbol id="c" overflow="visible"><path d="M4.578-3.188c0-.796-.047-1.593-.39-2.328C3.733-6.484 2.905-6.64 2.5-6.64c-.61 0-1.328.266-1.75 1.188-.313.687-.36 1.469-.36 2.266 0 .75.032 1.64.454 2.406a1.83 1.83 0 0 0 1.64 1c.532 0 1.297-.203 1.735-1.157.312-.687.36-1.468.36-2.25zM2.484 0c-.39 0-.984-.25-1.156-1.203-.11-.594-.11-1.516-.11-2.11 0-.64 0-1.296.079-1.828.187-1.187.937-1.28 1.187-1.28.329 0 .985.187 1.172 1.171.11.563.11 1.313.11 1.938 0 .75 0 1.421-.11 2.062C3.5-.297 2.937 0 2.484 0zm0 0" stroke="none"/></symbol><symbol id="d" overflow="visible"><path d="M3.531-1.734c0-.844-.672-1.5-1.5-1.5s-1.5.671-1.5 1.484a1.5 1.5 0 0 0 1.5 1.5c.844 0 1.5-.672 1.5-1.484zm-1.5 1.14A1.157 1.157 0 1 1 3.187-1.75c0 .656-.515 1.156-1.156 1.156zm0 0" stroke="none"/></symbol><symbol id="e" overflow="visible"><path d="M6.563-2.297c.171 0 .359 0 .359-.203 0-.188-.188-.188-.36-.188h-5.39c-.172 0-.344 0-.344.188 0 .203.172.203.344.203zm0 0" stroke="none"/></symbol><symbol id="f" overflow="visible"><path d="M5.734-5.672c0-.75-.546-1.36-1.359-1.36-.578 0-.86.157-1.203.407C2.625-6.219 2.078-5.25 1.89-4.5L.297 1.828c0 .047.047.11.125.11s.11-.032.11-.047l.702-2.766c.188.61.625.969 1.36.969.719 0 1.469-.344 1.922-.781a2.486 2.486 0 0 0 .796-1.829c0-.718-.375-1.25-.734-1.484.578-.344 1.156-.953 1.156-1.672zM3.938-4.016c-.126.047-.235.063-.485.063-.14 0-.328.015-.437-.031.03-.11.39-.079.5-.079.203 0 .296 0 .421.047zm1.234-1.89c0 .703-.375 1.422-.89 1.734-.282-.11-.47-.125-.766-.125-.22 0-.782-.016-.782.313 0 .28.516.25.688.25.375 0 .531 0 .828-.125.375.359.422.671.438 1.125.015.578-.22 1.328-.5 1.718-.391.532-1.063.891-1.625.891-.766 0-1.141-.578-1.141-1.281 0-.094 0-.25.047-.438l.64-2.515c.22-.86.938-2.454 2.141-2.454.578 0 .922.313.922.907zm0 0" stroke="none"/></symbol></defs><g fill="#000"><use height="1052.362" width="744.094" y="134.765" x="223.432" xlink:href="#b"/><use height="1052.362" width="744.094" y="134.765" x="228.413" xlink:href="#c"/><use height="1052.362" width="744.094" y="131.149" x="233.395" xlink:href="#d"/><use height="1052.362" width="744.094" y="134.765" x="238.528" xlink:href="#e"/><g><use height="1052.362" width="744.094" y="134.765" x="246.831" xlink:href="#f"/></g></g></g><g ns0:text="$F_2$" transform="matrix(4.39565 0 0 4.39565 -491.416 -92.307)" fill="#d40000" stroke="#d40000" stroke-width="1.204"><defs><symbol overflow="visible" id="g"><path d="M3.016-3.234h.968c.75 0 .829.156.829.437 0 .078 0 .188-.063.5-.031.047-.031.078-.031.11 0 .078.062.109.11.109.109 0 .109-.031.155-.203l.547-2.172c.032-.11.032-.125.032-.156a.117.117 0 0 0-.125-.11c-.094 0-.11.047-.141.219-.219.766-.438.953-1.297.953h-.906l.64-2.531c.094-.36.11-.39.547-.39h1.313c1.218 0 1.453.327 1.453 1.093 0 .234 0 .266-.031.547C7-4.703 7-4.688 7-4.656c0 .047.031.125.125.125.11 0 .11-.063.125-.25l.203-1.735c.031-.265-.016-.265-.266-.265h-4.89c-.188 0-.297 0-.297.203 0 .11.094.11.281.11.375 0 .656 0 .656.171 0 .047 0 .063-.062.25L1.562-.78c-.093.39-.109.469-.906.469-.172 0-.281 0-.281.187C.375 0 .5 0 .531 0c.281 0 1.031-.031 1.313-.031C2.172-.031 3 0 3.328 0c.094 0 .203 0 .203-.188 0-.078-.047-.109-.047-.109-.03-.016-.062-.016-.28-.016-.22 0-.267 0-.517-.015-.296-.031-.328-.078-.328-.203 0-.016 0-.078.047-.219zm0 0" stroke="none"/></symbol><symbol overflow="visible" id="h"><path d="M3.516-1.266H3.28c-.015.157-.094.563-.187.625-.047.047-.578.047-.688.047H1.125c.734-.64.984-.844 1.39-1.172.516-.406 1-.843 1-1.5 0-.843-.734-1.359-1.624-1.359-.86 0-1.454.61-1.454 1.25 0 .344.297.39.376.39.156 0 .359-.124.359-.374 0-.125-.047-.375-.406-.375.218-.485.687-.641 1.015-.641.703 0 1.063.547 1.063 1.11 0 .609-.438 1.078-.656 1.328L.516-.266C.437-.203.437-.187.437 0h2.876zm0 0" stroke="none"/></symbol></defs><use height="1052.362" width="744.094" xlink:href="#g" x="223.432" y="134.765"/><use height="1052.362" width="744.094" xlink:href="#h" x="229.839" y="136.259"/></g><g transform="translate(-787.174 -123.462) scale(4.89373)" ns0:text="$F_{\\rm{G}}$" fill="#d40000" stroke="#d40000" stroke-width="1.082"><defs><symbol id="i" overflow="visible"><path d="M3.016-3.234h.968c.75 0 .829.156.829.437 0 .078 0 .188-.063.5-.031.047-.031.078-.031.11 0 .078.062.109.11.109.109 0 .109-.031.155-.203l.547-2.172c.032-.11.032-.125.032-.156a.117.117 0 0 0-.125-.11c-.094 0-.11.047-.141.219-.219.766-.438.953-1.297.953h-.906l.64-2.531c.094-.36.11-.39.547-.39h1.313c1.218 0 1.453.327 1.453 1.093 0 .234 0 .266-.031.547C7-4.703 7-4.688 7-4.656c0 .047.031.125.125.125.11 0 .11-.063.125-.25l.203-1.735c.031-.265-.016-.265-.266-.265h-4.89c-.188 0-.297 0-.297.203 0 .11.094.11.281.11.375 0 .656 0 .656.171 0 .047 0 .063-.062.25L1.562-.78c-.093.39-.109.469-.906.469-.172 0-.281 0-.281.187C.375 0 .5 0 .531 0c.281 0 1.031-.031 1.313-.031C2.172-.031 3 0 3.328 0c.094 0 .203 0 .203-.188 0-.078-.047-.109-.047-.109-.03-.016-.062-.016-.28-.016-.22 0-.267 0-.517-.015-.296-.031-.328-.078-.328-.203 0-.016 0-.078.047-.219zm0 0" stroke="none"/></symbol><symbol id="j" overflow="visible"><path d="M5.188-1.36c0-.312.078-.312.546-.312v-.25c-.062 0-.562.031-.906.031-.375 0-.89 0-1.266-.03v.25h.266c.703 0 .703.093.703.312v.453c0 .156 0 .422-.406.625-.328.172-.719.172-.813.172-.796 0-2.078-.454-2.078-2.282 0-1.843 1.329-2.25 2.016-2.25.672 0 1.516.454 1.688 1.657.015.078.078.078.125.078.125 0 .125-.047.125-.188v-1.625c0-.125 0-.187-.094-.187-.032 0-.063 0-.125.093l-.36.532a1.994 1.994 0 0 0-1.453-.625C1.703-4.906.484-3.781.484-2.391.484-1 1.672.141 3.172.141c.39 0 1.156-.078 1.484-.563.125.188.375.422.453.422.079 0 .079-.078.079-.188zm0 0" stroke="none"/></symbol></defs><use y="134.765" x="223.432" xlink:href="#i" width="744.094" height="1052.362"/><use y="136.259" x="229.839" xlink:href="#j" width="744.094" height="1052.362"/></g><path d="M371.65 541.252a27.664 27.664 0 0 1 27.018 21.83" style="marker:none" color="#000" fill="none" stroke="#333" stroke-width="1.0001588399999999" stroke-linecap="round" stroke-linejoin="round" overflow="visible"/><g ns0:text="$90^{\\circ} \\! - \\! \\alpha$" ns0:preamble="/home/waldgeist/data/homepage/inkscape-preamble.tex" transform="matrix(4.488 0 0 4.488 -685.429 15.325)" fill="#d40000" stroke="#d40000" stroke-width="1.179"><defs><symbol overflow="visible" id="k"><path d="M3.656-3.172v.328c0 2.328-1.031 2.781-1.61 2.781-.171 0-.718-.015-.983-.359.437 0 .515-.281.515-.453 0-.313-.234-.453-.453-.453-.156 0-.453.078-.453.469 0 .671.531 1.078 1.375 1.078 1.297 0 2.515-1.36 2.515-3.5 0-2.688-1.156-3.36-2.046-3.36-.547 0-1.032.188-1.454.625-.421.454-.64.875-.64 1.625 0 1.235.875 2.22 1.984 2.22.61 0 1.016-.423 1.25-1zm-1.234.766c-.156 0-.625 0-.922-.625-.188-.375-.188-.86-.188-1.36 0-.53 0-1 .22-1.375.265-.5.64-.625.984-.625.468 0 .796.344.968.782.11.328.157.953.157 1.406 0 .828-.344 1.797-1.22 1.797zm0 0" stroke="none"/></symbol><symbol overflow="visible" id="l"><path d="M4.578-3.188c0-.796-.047-1.593-.39-2.328C3.733-6.484 2.905-6.64 2.5-6.64c-.61 0-1.328.266-1.75 1.188-.313.687-.36 1.469-.36 2.266 0 .75.032 1.64.454 2.406a1.83 1.83 0 0 0 1.64 1c.532 0 1.297-.203 1.735-1.157.312-.687.36-1.468.36-2.25zM2.484 0c-.39 0-.984-.25-1.156-1.203-.11-.594-.11-1.516-.11-2.11 0-.64 0-1.296.079-1.828.187-1.187.937-1.28 1.187-1.28.329 0 .985.187 1.172 1.171.11.563.11 1.313.11 1.938 0 .75 0 1.421-.11 2.062C3.5-.297 2.937 0 2.484 0zm0 0" stroke="none"/></symbol><symbol overflow="visible" id="m"><path d="M3.531-1.734c0-.844-.672-1.5-1.5-1.5s-1.5.671-1.5 1.484a1.5 1.5 0 0 0 1.5 1.5c.844 0 1.5-.672 1.5-1.484zm-1.5 1.14A1.157 1.157 0 1 1 3.187-1.75c0 .656-.515 1.156-1.156 1.156zm0 0" stroke="none"/></symbol><symbol overflow="visible" id="n"><path d="M6.563-2.297c.171 0 .359 0 .359-.203 0-.188-.188-.188-.36-.188h-5.39c-.172 0-.344 0-.344.188 0 .203.172.203.344.203zm0 0" stroke="none"/></symbol><symbol overflow="visible" id="o"><path d="M4.75-2.36c0-1.562-.922-2.046-1.656-2.046-1.375 0-2.688 1.422-2.688 2.828C.406-.641 1 .109 2.031.109c.625 0 1.344-.234 2.094-.843.125.53.453.843.906.843.532 0 .844-.546.844-.703 0-.078-.063-.11-.125-.11-.063 0-.094.032-.125.11-.188.485-.547.485-.563.485-.312 0-.312-.782-.312-1.016 0-.203 0-.234.11-.344C5.796-2.656 6-3.812 6-3.812c0-.032-.016-.11-.125-.11-.094 0-.094.031-.14.219-.188.625-.516 1.375-.985 1.969zM4.094-.983c-.89.765-1.657.875-2.047.875-.594 0-.906-.454-.906-1.094 0-.484.265-1.563.578-2.063.468-.734 1.015-.921 1.36-.921.983 0 .983 1.312.983 2.078 0 .375 0 .953.032 1.125zm0 0" stroke="none"/></symbol></defs><g fill="#000"><use xlink:href="#k" x="223.432" y="134.765" width="744.094" height="1052.362"/><use xlink:href="#l" x="228.413" y="134.765" width="744.094" height="1052.362"/><use xlink:href="#m" x="233.395" y="131.149" width="744.094" height="1052.362"/><use xlink:href="#n" x="238.528" y="134.765" width="744.094" height="1052.362"/><g><use xlink:href="#o" x="246.831" y="134.765" width="744.094" height="1052.362"/></g></g></g><path d="M371.626 485.42c-116.134 10.912-149.2 15.6-261.85 26.184" fill="#d40000" stroke="#d40000" stroke-width="5.40016883" stroke-linecap="round"/><path d="M-707.107 1620.068l-5.249-9.091-5.249-9.092h20.996l-5.249 9.091z" transform="matrix(-.08155 -.84377 -.48758 .04714 833.17 -160.514)" fill="#d40000" stroke="#d40000" stroke-width="9.311"/><path d="M635.44 540.007c-116.134 10.913-149.2 15.6-261.85 26.185" fill="#f2b3b3" stroke="#f2b3b3" stroke-width="5.40016883" stroke-linecap="round" stroke-dasharray="1.58894977,4.7668493"/><path transform="scale(2.09309 -2.09309) rotate(12.912 4454.606 -911.713)" d="M433.86 655.73a66.583 66.583 0 0 1 1.886 17.485" style="marker:none" color="#000" fill="none" stroke="#000" stroke-width=".478" stroke-linecap="round" stroke-linejoin="round" marker-end="url(#a)" overflow="visible"/><path d="M371.626 485.42c128.783 25.932 142.341 28.052 267.262 53.207" fill="#d40000" stroke="#d40000" stroke-width="5.39985359" stroke-linecap="round"/><path transform="matrix(.08108 -.40865 .23614 .04686 317.945 174.6)" d="M-707.107 1620.068l-5.249-9.091-5.249-9.092h20.996l-5.249 9.091z" fill="#d40000" stroke="#d40000" stroke-width="18.945"/><g fill="#d40000" stroke="#d40000"><path d="M325.008 156.146H481.7" stroke-width="8.702" stroke-linecap="round" transform="matrix(0 .47171 -.8163 0 499.088 334.745)"/><path d="M-707.107 1620.068l-5.249-9.091-5.249-9.092h20.996l-5.249 9.091z" transform="matrix(.41662 0 -.00001 .24075 666.24 178.965)" stroke-width="18.945"/></g><g transform="matrix(4.39565 0 0 4.39565 -495.416 2.715)" ns0:preamble="/home/waldgeist/data/homepage/inkscape-preamble.tex" ns0:text="$F_1$" fill="#d40000" stroke="#d40000" stroke-width="1.204"><defs><symbol id="p" overflow="visible"><path d="M3.016-3.234h.968c.75 0 .829.156.829.437 0 .078 0 .188-.063.5-.031.047-.031.078-.031.11 0 .078.062.109.11.109.109 0 .109-.031.155-.203l.547-2.172c.032-.11.032-.125.032-.156a.117.117 0 0 0-.125-.11c-.094 0-.11.047-.141.219-.219.766-.438.953-1.297.953h-.906l.64-2.531c.094-.36.11-.39.547-.39h1.313c1.218 0 1.453.327 1.453 1.093 0 .234 0 .266-.031.547C7-4.703 7-4.688 7-4.656c0 .047.031.125.125.125.11 0 .11-.063.125-.25l.203-1.735c.031-.265-.016-.265-.266-.265h-4.89c-.188 0-.297 0-.297.203 0 .11.094.11.281.11.375 0 .656 0 .656.171 0 .047 0 .063-.062.25L1.562-.78c-.093.39-.109.469-.906.469-.172 0-.281 0-.281.187C.375 0 .5 0 .531 0c.281 0 1.031-.031 1.313-.031C2.172-.031 3 0 3.328 0c.094 0 .203 0 .203-.188 0-.078-.047-.109-.047-.109-.03-.016-.062-.016-.28-.016-.22 0-.267 0-.517-.015-.296-.031-.328-.078-.328-.203 0-.016 0-.078.047-.219zm0 0" stroke="none"/></symbol><symbol id="q" overflow="visible"><path d="M2.328-4.438c0-.187 0-.187-.203-.187-.453.438-1.078.438-1.36.438v.25c.157 0 .626 0 1-.188v3.547c0 .234 0 .328-.687.328H.812V0c.125 0 .985-.031 1.235-.031.219 0 1.094.031 1.25.031v-.25H3.03c-.703 0-.703-.094-.703-.328zm0 0" stroke="none"/></symbol></defs><use y="134.765" x="223.432" xlink:href="#p" width="744.094" height="1052.362"/><use y="136.259" x="229.839" xlink:href="#q" width="744.094" height="1052.362"/></g><path transform="scale(-2.09309 2.09309) rotate(-45 -419.132 1302.814)" d="M433.86 655.73a66.583 66.583 0 0 1 1.886 17.485" style="marker:none" color="#000" fill="none" stroke="#000" stroke-width=".478" stroke-linecap="round" stroke-linejoin="round" marker-end="url(#a)" overflow="visible"/><path style="marker:none" d="M519.53 540.502a120.95 120.95 0 0 1 .757 12.899" color="#000" fill="none" stroke="#333" stroke-width=".99973" stroke-linecap="round" stroke-linejoin="round" overflow="visible"/><g ns0:preamble="/home/waldgeist/data/sphinx/inkscape-preamble.tex" ns0:text="$\\alpha$" fill="#d40000" stroke="#d40000" stroke-width="1.179"><path d="M599.598 572.239c0-7.013-4.138-9.187-7.434-9.187-6.17 0-12.061 6.382-12.061 12.693 0 4.208 2.665 7.574 7.293 7.574 2.805 0 6.03-1.052 9.397-3.787.56 2.384 2.033 3.787 4.067 3.787 2.384 0 3.787-2.455 3.787-3.156 0-.35-.28-.491-.561-.491-.28 0-.421.14-.561.49-.842 2.175-2.455 2.175-2.525 2.175-1.402 0-1.402-3.506-1.402-4.558 0-.912 0-1.052.49-1.543 4.208-5.33 5.12-10.519 5.12-10.519 0-.14-.07-.49-.561-.49-.421 0-.421.14-.632.981-.841 2.805-2.314 6.171-4.417 8.836zm-2.946 6.17c-3.997 3.437-7.433 3.928-9.186 3.928-2.665 0-4.067-2.034-4.067-4.909 0-2.174 1.192-7.012 2.594-9.256 2.104-3.296 4.558-4.138 6.101-4.138 4.418 0 4.418 5.89 4.418 9.327 0 1.683 0 4.277.14 5.049zm0 0" stroke="none" fill="#000"/></g><path style="marker:none" d="M433.86 655.73a66.583 66.583 0 0 1 1.886 17.485" transform="scale(2.09309 -2.09309) rotate(60 1155.867 54.434)" color="#000" fill="none" stroke="#000" stroke-width=".478" stroke-linecap="round" stroke-linejoin="round" marker-end="url(#a)" overflow="visible"/></svg>