<svg xmlns:ns0="http://www.iki.fi/pav/software/textext/" xmlns="http://www.w3.org/2000/svg" xmlns:xlink="http://www.w3.org/1999/xlink" width="744.094" height="1052.362"><title>Kraft und Gegenkraft</title><defs><pattern patternTransform="translate(.25)" id="b" xlink:href="#a"/><pattern patternUnits="userSpaceOnUse" width="30.066" height="5.181" id="a"><path d="M7.597.061C5.079-.187 2.656.302-.01 1.788v1.273c2.783-1.63 5.183-2.009 7.482-1.781 2.298.228 4.497 1.081 6.781 1.938 4.567 1.713 9.551 3.458 15.813-.157l-.004-1.273c-6.44 3.709-10.816 1.982-15.371.273-2.278-.854-4.576-1.75-7.094-2z"/></pattern><linearGradient id="c"><stop offset="0" stop-color="#0e0e0e" stop-opacity=".746"/><stop offset="1" stop-color="#fff"/></linearGradient><linearGradient id="d"><stop offset="0" stop-color="#ebebeb"/><stop offset="1" stop-color="#fff" stop-opacity="0"/></linearGradient><linearGradient id="e"><stop offset="0" stop-opacity="0"/><stop offset="1" stop-color="#fff"/></linearGradient><linearGradient id="f"><stop offset="0" stop-color="#1a1a1a" stop-opacity=".828"/><stop offset="1" stop-color="#fff"/></linearGradient><linearGradient id="g"><stop offset="0" stop-color="#fff"/><stop offset="1" stop-color="#fff" stop-opacity="0"/></linearGradient><linearGradient id="h"><stop offset="0" stop-opacity="0"/><stop offset="1" stop-color="#fff"/></linearGradient><symbol overflow="visible" id="i"><path d="M5.36-5.938c-.141.141-.47.422-.47.594 0 .094.094.203.188.203s.14-.078.203-.14c.11-.14.344-.422.782-.64.062-.048.171-.095.171-.204 0-.11-.078-.156-.14-.203a1.034 1.034 0 0 1-.407-.563c-.03-.093-.062-.234-.203-.234-.14 0-.203.14-.203.219 0 .047.078.36.235.578h-3.36c-.156 0-.344 0-.344.203 0 .188.188.188.344.188zm0 0"/></symbol><symbol overflow="visible" id="j"><path d="M3.016-3.234h.968c.75 0 .829.156.829.437 0 .078 0 .188-.063.5-.031.047-.031.078-.031.11 0 .078.062.109.11.109.109 0 .109-.031.155-.203l.547-2.172c.032-.11.032-.125.032-.156a.117.117 0 0 0-.125-.11c-.094 0-.11.047-.141.219-.219.766-.438.953-1.297.953h-.906l.64-2.531c.094-.36.11-.39.547-.39h1.313c1.218 0 1.453.327 1.453 1.093 0 .234 0 .266-.031.547C7-4.703 7-4.688 7-4.656c0 .047.031.125.125.125.11 0 .11-.063.125-.25l.203-1.735c.031-.265-.016-.265-.266-.265h-4.89c-.188 0-.297 0-.297.203 0 .11.094.11.281.11.375 0 .656 0 .656.171 0 .047 0 .063-.062.25L1.562-.78c-.093.39-.109.469-.906.469-.172 0-.281 0-.281.187C.375 0 .5 0 .531 0c.281 0 1.031-.031 1.313-.031C2.172-.031 3 0 3.328 0c.094 0 .203 0 .203-.188 0-.078-.047-.109-.047-.109-.03-.016-.062-.016-.28-.016-.22 0-.267 0-.517-.015-.296-.031-.328-.078-.328-.203 0-.016 0-.078.047-.219zm0 0"/></symbol><filter color-interpolation-filters="sRGB" height="1.96" y="-.48" width="1.96" x="-.48" id="k"><feGaussianBlur stdDeviation="4.571"/></filter></defs><path fill="#fff" stroke="#fff" stroke-width="4" stroke-linecap="round" d="M82.807 977.535V74.827h578.48v902.708z"/><g fill="#d40000"><use height="1052.362" width="744.094" xlink:href="#i" x="224.901" y="132.247" transform="matrix(6.39423 0 0 6.39423 -1031.579 -473.459)"/><use height="1052.362" width="744.094" xlink:href="#j" x="223.432" y="134.765" transform="matrix(6.39423 0 0 6.39423 -1031.579 -473.459)"/></g><g stroke="#333" fill="none" stroke-width="4" stroke-linecap="round"><path d="M372.047 574.024c-7.321 0-13.256-5.935-13.256-13.257 0-7.32 5.935-13.256 13.256-13.256 7.321 0 13.256 5.935 13.256 13.256" stroke-linejoin="round" stroke-width="4.3732"/><path d="M372.047 574.024v18.45" stroke-width="4.3732"/></g><path d="M428.658 644.446c0 31.265-25.345 56.61-56.61 56.61-31.266 0-56.612-25.345-56.612-56.61 0-31.266 25.346-56.611 56.611-56.611 31.266 0 56.611 25.345 56.611 56.61z" fill="#b3b3b3" stroke="#4d4d4d" stroke-width="1.99992582" stroke-linecap="square"/><path transform="matrix(.43074 0 0 .43074 224.366 471.749)" d="M301.429 350.934c0 6.311-5.117 11.428-11.429 11.428s-11.429-5.117-11.429-11.428c0-6.312 5.117-11.429 11.429-11.429s11.429 5.117 11.429 11.429z" fill="#fff" filter="url(#k)"/><g stroke="#333" stroke-width="10"><path d="M398.059 260.36c0 14.366-11.646 26.012-26.012 26.012-14.365 0-26.011-11.646-26.011-26.011 0-14.366 11.646-26.012 26.011-26.012 14.366 0 26.012 11.646 26.012 26.012z" fill="none" stroke-linecap="round"/><path d="M372.047 237.38v-35.356" fill="#333"/></g><path d="M372.047 280.918V550.01" fill="none" stroke="#000" stroke-width="3" stroke-linecap="round"/><path fill="#333" stroke="#333" stroke-width="2" stroke-linecap="round" d="M129.521 185.533h485.052v28.284H129.521z"/><g fill="#d40000" stroke="#d40000" id="l"><path d="M372.047 655.84v180.868" stroke-width="14.945"/><path d="M372.048 846.894l2.678-4.64 2.68-4.64H366.688l2.68 4.64z" stroke-width="14.953841"/></g><use height="1052.362" width="744.094" transform="matrix(1 0 0 -1 0 1203.351)" xlink:href="#l"/><g ns0:preamble="/home/waldgeist/data/sphinx/test.tex" ns0:text="$\\vec{F}_{\\rm{G}}$" transform="translate(-1039.643 -9.256) scale(6.43026)" fill="#d40000" stroke="#d40000"><defs><symbol id="m" overflow="visible"><path d="M5.36-5.938c-.141.141-.47.422-.47.594 0 .094.094.203.188.203s.14-.078.203-.14c.11-.14.344-.422.782-.64.062-.048.171-.095.171-.204 0-.11-.078-.156-.14-.203a1.034 1.034 0 0 1-.407-.563c-.03-.093-.062-.234-.203-.234-.14 0-.203.14-.203.219 0 .047.078.36.235.578h-3.36c-.156 0-.344 0-.344.203 0 .188.188.188.344.188zm0 0" stroke="none"/></symbol><symbol id="n" overflow="visible"><path d="M3.016-3.234h.968c.75 0 .829.156.829.437 0 .078 0 .188-.063.5-.031.047-.031.078-.031.11 0 .078.062.109.11.109.109 0 .109-.031.155-.203l.547-2.172c.032-.11.032-.125.032-.156a.117.117 0 0 0-.125-.11c-.094 0-.11.047-.141.219-.219.766-.438.953-1.297.953h-.906l.64-2.531c.094-.36.11-.39.547-.39h1.313c1.218 0 1.453.327 1.453 1.093 0 .234 0 .266-.031.547C7-4.703 7-4.688 7-4.656c0 .047.031.125.125.125.11 0 .11-.063.125-.25l.203-1.735c.031-.265-.016-.265-.266-.265h-4.89c-.188 0-.297 0-.297.203 0 .11.094.11.281.11.375 0 .656 0 .656.171 0 .047 0 .063-.062.25L1.562-.78c-.093.39-.109.469-.906.469-.172 0-.281 0-.281.187C.375 0 .5 0 .531 0c.281 0 1.031-.031 1.313-.031C2.172-.031 3 0 3.328 0c.094 0 .203 0 .203-.188 0-.078-.047-.109-.047-.109-.03-.016-.062-.016-.28-.016-.22 0-.267 0-.517-.015-.296-.031-.328-.078-.328-.203 0-.016 0-.078.047-.219zm0 0" stroke="none"/></symbol><symbol id="o" overflow="visible"><path d="M5.188-1.36c0-.312.078-.312.546-.312v-.25c-.062 0-.562.031-.906.031-.375 0-.89 0-1.266-.03v.25h.266c.703 0 .703.093.703.312v.453c0 .156 0 .422-.406.625-.328.172-.719.172-.813.172-.796 0-2.078-.454-2.078-2.282 0-1.843 1.329-2.25 2.016-2.25.672 0 1.516.454 1.688 1.657.015.078.078.078.125.078.125 0 .125-.047.125-.188v-1.625c0-.125 0-.187-.094-.187-.032 0-.063 0-.125.093l-.36.532a1.994 1.994 0 0 0-1.453-.625C1.703-4.906.484-3.781.484-2.391.484-1 1.672.141 3.172.141c.39 0 1.156-.078 1.484-.563.125.188.375.422.453.422.079 0 .079-.078.079-.188zm0 0" stroke="none"/></symbol></defs><use y="132.247" x="224.901" xlink:href="#m" width="744.094" height="1052.362"/><use y="134.765" x="223.432" xlink:href="#n" width="744.094" height="1052.362"/><use y="136.259" x="229.839" xlink:href="#o" width="744.094" height="1052.362"/></g></svg>