<svg xmlns:ns0="http://www.iki.fi/pav/software/textext/" xmlns="http://www.w3.org/2000/svg" xmlns:xlink="http://www.w3.org/1999/xlink" width="210mm" height="297mm"><title>Kraftzerlegung beim Ziehen eines Schlittens</title><defs><marker orient="auto" id="h" overflow="visible"><path d="M-4 0l-2 2 7-2-7-2 2 2z" fill-rule="evenodd" stroke="#000" stroke-width=".4pt"/></marker></defs><path style="marker:none" color="#000" fill="#fff" stroke="#fff" stroke-width="1.312" stroke-linecap="round" stroke-linejoin="bevel" overflow="visible" d="M20.156 324.079h703.782v404.204H20.156z"/><path style="marker:none" color="#000" fill="gray" stroke="#1a1a1a" stroke-width=".976" stroke-linecap="round" stroke-linejoin="bevel" overflow="visible" d="M82.435 616.478v-16.162H661.66v16.162z"/><path d="M287.143 542.938h203.065" fill="none" stroke="#000" stroke-linecap="round" stroke-dasharray=".99999999,2.99999996"/><g transform="matrix(5.29276 0 0 5.29276 -957.147 -38.817)" ns0:preamble="/home/waldgeist/data/sphinx/inkscape-preamble.tex" ns0:text="$\\vec{F}_{\\rm{G}}$" fill="#d40000" stroke="#a00"><defs><symbol id="a" overflow="visible"><path d="M5.36-5.938c-.141.141-.47.422-.47.594 0 .094.094.203.188.203s.14-.078.203-.14c.11-.14.344-.422.782-.64.062-.048.171-.095.171-.204 0-.11-.078-.156-.14-.203a1.034 1.034 0 0 1-.407-.563c-.03-.093-.062-.234-.203-.234-.14 0-.203.14-.203.219 0 .047.078.36.235.578h-3.36c-.156 0-.344 0-.344.203 0 .188.188.188.344.188zm0 0" stroke="none"/></symbol><symbol id="b" overflow="visible"><path d="M3.016-3.234h.968c.75 0 .829.156.829.437 0 .078 0 .188-.063.5-.031.047-.031.078-.031.11 0 .078.062.109.11.109.109 0 .109-.031.155-.203l.547-2.172c.032-.11.032-.125.032-.156a.117.117 0 0 0-.125-.11c-.094 0-.11.047-.141.219-.219.766-.438.953-1.297.953h-.906l.64-2.531c.094-.36.11-.39.547-.39h1.313c1.218 0 1.453.327 1.453 1.093 0 .234 0 .266-.031.547C7-4.703 7-4.688 7-4.656c0 .047.031.125.125.125.11 0 .11-.063.125-.25l.203-1.735c.031-.265-.016-.265-.266-.265h-4.89c-.188 0-.297 0-.297.203 0 .11.094.11.281.11.375 0 .656 0 .656.171 0 .047 0 .063-.062.25L1.562-.78c-.093.39-.109.469-.906.469-.172 0-.281 0-.281.187C.375 0 .5 0 .531 0c.281 0 1.031-.031 1.313-.031C2.172-.031 3 0 3.328 0c.094 0 .203 0 .203-.188 0-.078-.047-.109-.047-.109-.03-.016-.062-.016-.28-.016-.22 0-.267 0-.517-.015-.296-.031-.328-.078-.328-.203 0-.016 0-.078.047-.219zm0 0" stroke="none"/></symbol><symbol id="c" overflow="visible"><path d="M5.188-1.36c0-.312.078-.312.546-.312v-.25c-.062 0-.562.031-.906.031-.375 0-.89 0-1.266-.03v.25h.266c.703 0 .703.093.703.312v.453c0 .156 0 .422-.406.625-.328.172-.719.172-.813.172-.796 0-2.078-.454-2.078-2.282 0-1.843 1.329-2.25 2.016-2.25.672 0 1.516.454 1.688 1.657.015.078.078.078.125.078.125 0 .125-.047.125-.188v-1.625c0-.125 0-.187-.094-.187-.032 0-.063 0-.125.093l-.36.532a1.994 1.994 0 0 0-1.453-.625C1.703-4.906.484-3.781.484-2.391.484-1 1.672.141 3.172.141c.39 0 1.156-.078 1.484-.563.125.188.375.422.453.422.079 0 .079-.078.079-.188zm0 0" stroke="none"/></symbol></defs><use y="132.246" x="224.901" xlink:href="#a" width="744.094" height="1052.362"/><use y="134.765" x="223.432" xlink:href="#b" width="744.094" height="1052.362"/><use y="136.259" x="229.839" xlink:href="#c" width="744.094" height="1052.362"/></g><path d="M317.252 541.146l171.016-29.286" fill="none" stroke="#000" stroke-width="3" stroke-linecap="round"/><g transform="matrix(2.80404 0 0 2.80404 -262.825 189.424)" ns0:preamble="/home/waldgeist/data/sphinx/inkscape-preamble.tex" ns0:text="$\\alpha$" fill="#d40000" stroke="#d40000" stroke-width="1.888"><defs><symbol id="d" overflow="visible"><path d="M4.75-2.36c0-1.562-.922-2.046-1.656-2.046-1.375 0-2.688 1.422-2.688 2.828C.406-.641 1 .109 2.031.109c.625 0 1.344-.234 2.094-.843.125.53.453.843.906.843.532 0 .844-.546.844-.703 0-.078-.063-.11-.125-.11-.063 0-.094.032-.125.11-.188.485-.547.485-.563.485-.312 0-.312-.782-.312-1.016 0-.203 0-.234.11-.344C5.796-2.656 6-3.812 6-3.812c0-.032-.016-.11-.125-.11-.094 0-.094.031-.14.219-.188.625-.516 1.375-.985 1.969zM4.094-.983c-.89.765-1.657.875-2.047.875-.594 0-.906-.454-.906-1.094 0-.484.265-1.563.578-2.063.468-.734 1.015-.921 1.36-.921.983 0 .983 1.312.983 2.078 0 .375 0 .953.032 1.125zm0 0" stroke="none"/></symbol></defs><use y="134.765" x="223.432" xlink:href="#d" width="744.094" height="1052.362" fill="#000"/></g><path style="marker:none" d="M292.385 522.235a40.84 40.84 0 0 1-.342 74.471" color="#000" fill="none" stroke="#6c5353" stroke-width="8.00016626" stroke-linecap="round" stroke-linejoin="round" overflow="visible"/><path d="M294.21 596.316H140.084M309.768 541.825H140.084M162.138 596.404V543.1M269.384 596.404V543.1" fill="none" stroke="#6c5353" stroke-width="8" stroke-linecap="round"/><g ns0:text="$\\vec{F}_{\\rm{Z}}$" ns0:preamble="/home/waldgeist/data/sphinx/inkscape-preamble.tex" transform="matrix(5.29276 0 0 5.29276 -754.938 -275.258)" fill="#d40000" stroke="#d40000"><defs><symbol overflow="visible" id="e"><path d="M5.36-5.938c-.141.141-.47.422-.47.594 0 .094.094.203.188.203s.14-.078.203-.14c.11-.14.344-.422.782-.64.062-.048.171-.095.171-.204 0-.11-.078-.156-.14-.203a1.034 1.034 0 0 1-.407-.563c-.03-.093-.062-.234-.203-.234-.14 0-.203.14-.203.219 0 .047.078.36.235.578h-3.36c-.156 0-.344 0-.344.203 0 .188.188.188.344.188zm0 0" stroke="none"/></symbol><symbol overflow="visible" id="f"><path d="M3.016-3.234h.968c.75 0 .829.156.829.437 0 .078 0 .188-.063.5-.031.047-.031.078-.031.11 0 .078.062.109.11.109.109 0 .109-.031.155-.203l.547-2.172c.032-.11.032-.125.032-.156a.117.117 0 0 0-.125-.11c-.094 0-.11.047-.141.219-.219.766-.438.953-1.297.953h-.906l.64-2.531c.094-.36.11-.39.547-.39h1.313c1.218 0 1.453.327 1.453 1.093 0 .234 0 .266-.031.547C7-4.703 7-4.688 7-4.656c0 .047.031.125.125.125.11 0 .11-.063.125-.25l.203-1.735c.031-.265-.016-.265-.266-.265h-4.89c-.188 0-.297 0-.297.203 0 .11.094.11.281.11.375 0 .656 0 .656.171 0 .047 0 .063-.062.25L1.562-.78c-.093.39-.109.469-.906.469-.172 0-.281 0-.281.187C.375 0 .5 0 .531 0c.281 0 1.031-.031 1.313-.031C2.172-.031 3 0 3.328 0c.094 0 .203 0 .203-.188 0-.078-.047-.109-.047-.109-.03-.016-.062-.016-.28-.016-.22 0-.267 0-.517-.015-.296-.031-.328-.078-.328-.203 0-.016 0-.078.047-.219zm0 0" stroke="none"/></symbol><symbol overflow="visible" id="g"><path d="M4.266-4.469c.062-.078.062-.11.062-.156 0-.14-.062-.14-.203-.14H.672L.594-3.157h.234c.063-1.031.563-1.36 1.485-1.36H3.53L.547-.296C.484-.22.484-.204.484-.142.484 0 .547 0 .688 0H4.25l.125-1.906h-.234C4.078-.97 3.953-.281 2.578-.281H1.297zm0 0" stroke="none"/></symbol></defs><use height="1052.362" width="744.094" xlink:href="#e" x="224.901" y="132.246" transform="translate(-2.663 10.61)"/><use height="1052.362" width="744.094" xlink:href="#f" x="223.432" y="134.765" transform="translate(-2.663 10.61)"/><use height="1052.362" width="744.094" xlink:href="#g" x="229.839" y="136.259" transform="translate(-2.663 10.61)"/></g><rect width="30.885" height="92.656" x="-532.819" y="447.398" ry="15.443" transform="scale(-1 1) rotate(5.039)" stroke="#000" stroke-width="6" stroke-linecap="round" stroke-linejoin="round"/><path d="M535.757 372.322a17.37 17.37 0 1 1 33.52 9.115 17.37 17.37 0 1 1-33.52-9.115z" stroke="#000" stroke-width="2.43303873" stroke-linecap="round" stroke-linejoin="round"/><rect transform="matrix(-.15105 .98853 .98843 .15168 0 0)" ry="9.466" y="610.328" x="377.958" height="18.932" width="79.133" stroke="#000" stroke-width="6" stroke-linecap="round" stroke-linejoin="round"/><rect rx="13.876" transform="rotate(131.65) skewX(-.044)" width="86.516" height="22.299" x="31.574" y="-776.768" ry="11.149" stroke="#000" stroke-width=".644" stroke-linecap="round" stroke-linejoin="round"/><rect width="79.133" height="18.932" x="699.294" y="158.569" ry="9.466" transform="matrix(.59219 .8058 .80618 -.59167 0 0)" stroke="#000" stroke-width="6" stroke-linecap="round" stroke-linejoin="round"/><rect ry="11.149" y="-572.408" x="546.898" height="22.299" width="86.516" transform="rotate(86.65) skewX(-.044)" rx="13.876" stroke="#000" stroke-width=".644" stroke-linecap="round" stroke-linejoin="round"/><rect rx="11.648" transform="rotate(-75.374) skewX(-.044)" width="72.625" height="18.718" x="-511.9" y="377.509" ry="9.359" stroke="#fff" stroke-width=".644" stroke-linecap="round" stroke-linejoin="round"/><g transform="scale(1.1772) rotate(-15 411.453 252.76)" stroke="#000" stroke-linecap="round" stroke-linejoin="round"><rect width="22.024" height="66.071" x="158.636" y="308.307" ry="11.012" transform="rotate(5.039)" stroke-width="5.097"/><rect width="56.429" height="15" x="221.006" y="326.293" ry="7.5" transform="rotate(15)" stroke-width="5.097"/><path d="M156.615 297.852c3.442 5.911 1.44 13.493-4.47 16.935-5.912 3.442-13.494 1.44-16.936-4.47-3.442-5.912-1.44-13.494 4.47-16.936 5.912-3.442 13.494-1.44 16.936 4.47z" stroke-width="2.0680523600000003"/></g><path style="marker:none" d="M552.868 397.658a8.234 8.234 0 0 0-6.281 3.125l-36.75 46.25a8.36 8.36 0 0 0-1.282 2.281 8.293 8.293 0 0 0-2.218 3.531l-17.688 56.375c-1.36 4.343 1.023 8.927 5.344 10.281a8.192 8.192 0 0 0 10.281-5.374l17.563-56.063c.275-.263.537-.537.78-.844L559.4 410.94c2.832-3.562 2.264-8.682-1.281-11.5a8.16 8.16 0 0 0-5.25-1.781z" color="#000" stroke="#fff" stroke-linecap="round" stroke-linejoin="round" overflow="visible"/><g fill="#d40000" stroke="#d40000"><path d="M379.93 530.723l97.994-17.103" stroke-width="5.9999625" stroke-linecap="round"/><path d="M482.929 512.746l-2.51-.918-2.51-.918.46 2.632.46 2.632 2.05-1.714z" stroke-width="7.86228585"/></g><path style="marker:none" d="M400.56 527.22a84.463 84.463 0 0 1 1.129 16.037" color="#000" fill="none" stroke="#000" stroke-width=".99960952" stroke-linecap="round" stroke-linejoin="round" overflow="visible"/><path transform="rotate(-150 423.713 718.698) scale(1.26854)" d="M434.855 660.572a66.583 66.583 0 0 1 .89 12.643" style="marker:none" color="#000" fill="none" stroke="#000" stroke-width=".788" stroke-linecap="round" stroke-linejoin="round" marker-end="url(#h)" overflow="visible"/><path style="marker:none" d="M199.664 454.566c-1.894.039-3.733.896-5.013 2.507l-29.56 37.17c-.013.016-.016.046-.03.061-.04.052-.083.1-.122.153a6.574 6.574 0 0 0-1.559 3.974l-1.987 47.472c-.153 3.654 2.661 6.726 6.297 6.878 3.636.153 6.694-2.673 6.847-6.327l1.896-45.394 28.49-35.826c2.275-2.863 1.809-6.997-1.04-9.262a6.53 6.53 0 0 0-4.219-1.406z" color="#000" stroke="#fff" stroke-linecap="round" stroke-linejoin="round" overflow="visible"/><g fill="#d40000" stroke="#d40000"><path d="M214.447 547.895v137.167" stroke-width="5.9999625" stroke-linecap="round"/><path d="M214.447 690.142l1.337-2.314 1.336-2.314H211.775l1.336 2.314z" stroke-width="7.86228585"/></g></svg>