<svg xmlns:ns0="http://www.iki.fi/pav/software/textext/" xmlns="http://www.w3.org/2000/svg" xmlns:xlink="http://www.w3.org/1999/xlink" width="210mm" height="297mm"><title>Addition mehrerer Kraefte mit gleicher Richtung</title><path style="marker:none" color="#000" fill="#fff" stroke="#fff" stroke-linecap="round" stroke-linejoin="bevel" overflow="visible" d="M20 314.917h704.094v422.528H20z"/><path d="M304 367.554l16.657 10.317h102.781l16.656-10.317H304z" fill="#f2f2f2" stroke="#000" stroke-linecap="round" stroke-linejoin="round"/><path d="M304 377.759l16.657 10.317h102.781l16.656-10.317H304z" fill="#f2f2f2" stroke="#000" stroke-linecap="round" stroke-linejoin="round"/><path d="M304 387.964l16.657 10.317h102.781l16.656-10.317H304z" fill="#f2f2f2" stroke="#000" stroke-linecap="round" stroke-linejoin="round"/><path style="marker:none" color="#000" fill="gray" stroke="#1a1a1a" stroke-linecap="round" stroke-linejoin="bevel" overflow="visible" d="M703.516 665.676v16.162H40.579v-16.162z"/><g color="#000" fill="#a05a2c" stroke="#502d16" stroke-linecap="round" stroke-linejoin="bevel"><path style="marker:none" overflow="visible" d="M568.182 418.176v16.162h-392.27v-16.162z"/><path style="marker:none" overflow="visible" d="M228.251 434.236h16.162v231.44h-16.162zM499.68 434.236h16.162v231.44H499.68z"/></g><path d="M304 398.17l16.657 10.316h102.781l16.656-10.317H304z" fill="#f2f2f2" stroke="#000" stroke-linecap="round" stroke-linejoin="round"/><path d="M304 408.374l16.657 9.286h102.781l16.656-9.286H304z" fill="#f2f2f2" stroke="#000" stroke-linecap="round" stroke-linejoin="round"/><g fill="#d40000" stroke="#d40000"><path d="M372.047 389.121V569.99" stroke-width="14.945"/><path d="M372.048 580.175l2.678-4.64 2.68-4.64H366.688l2.68 4.64z" stroke-width="14.953841"/></g><g transform="translate(-1051.694 -347.038) scale(6.43026)" ns0:text="$\\vec{F}_{\\rm{ges}}$" fill="#d40000" stroke="#d40000"><defs><symbol id="a" overflow="visible"><path d="M5.36-5.938c-.141.141-.47.422-.47.594 0 .094.094.203.188.203s.14-.078.203-.14c.11-.14.344-.422.782-.64.062-.048.171-.095.171-.204 0-.11-.078-.156-.14-.203a1.034 1.034 0 0 1-.407-.563c-.03-.093-.062-.234-.203-.234-.14 0-.203.14-.203.219 0 .047.078.36.235.578h-3.36c-.156 0-.344 0-.344.203 0 .188.188.188.344.188z" stroke="none"/></symbol><symbol id="b" overflow="visible"><path d="M3.016-3.234h.968c.75 0 .829.156.829.437 0 .078 0 .188-.063.5-.031.047-.031.078-.031.11 0 .078.062.109.11.109.109 0 .109-.031.155-.203l.547-2.172c.032-.11.032-.125.032-.156a.117.117 0 0 0-.125-.11c-.094 0-.11.047-.141.219-.219.766-.438.953-1.297.953h-.906l.64-2.531c.094-.36.11-.39.547-.39h1.313c1.218 0 1.453.327 1.453 1.093 0 .234 0 .266-.031.547C7-4.703 7-4.688 7-4.656c0 .047.031.125.125.125.11 0 .11-.063.125-.25l.203-1.735c.031-.265-.016-.265-.266-.265h-4.89c-.188 0-.297 0-.297.203 0 .11.094.11.281.11.375 0 .656 0 .656.171 0 .047 0 .063-.062.25L1.562-.78c-.093.39-.109.469-.906.469-.172 0-.281 0-.281.187C.375 0 .5 0 .531 0c.281 0 1.031-.031 1.313-.031C2.172-.031 3 0 3.328 0c.094 0 .203 0 .203-.188 0-.078-.047-.109-.047-.109-.03-.016-.062-.016-.28-.016-.22 0-.267 0-.517-.015-.296-.031-.328-.078-.328-.203 0-.016 0-.078.047-.219z" stroke="none"/></symbol><symbol id="c" overflow="visible"><path d="M1-1.234c.11.062.36.203.766.203C2.484-1.031 3-1.5 3-2.047c0-.281-.125-.484-.297-.672.328-.219.594-.234.719-.234-.031.031-.063.062-.063.172 0 .14.094.219.22.219.093 0 .218-.063.218-.22 0-.171-.125-.359-.406-.359-.11 0-.485.016-.813.313-.203-.14-.5-.25-.812-.25-.72 0-1.235.484-1.235 1.031 0 .266.14.516.328.703-.046.063-.203.297-.203.563 0 .094.016.422.297.625C.641-.063.266.172.266.53c0 .516.765.89 1.718.89.875 0 1.704-.343 1.704-.905a.87.87 0 0 0-.47-.782c-.405-.218-.827-.218-1.5-.218-.155 0-.405 0-.452-.016a.45.45 0 0 1-.36-.453c0-.172.063-.235.094-.281zm.766 0c-.672 0-.672-.672-.672-.813 0-.11 0-.39.125-.578a.778.778 0 0 1 .547-.234c.687 0 .687.671.687.812 0 .11 0 .39-.14.563a.727.727 0 0 1-.547.25zm0 1.218c.625 0 1.5 0 1.5.547 0 .375-.563.688-1.282.688C1.25 1.219.704.89.704.53c0-.25.218-.547.655-.547z" stroke="none"/></symbol><symbol id="d" overflow="visible"><path d="M3.063-1.594c.156 0 .203 0 .203-.14 0-.625-.344-1.375-1.391-1.375a1.59 1.59 0 0 0-1.61 1.578c0 .89.782 1.593 1.704 1.593.937 0 1.297-.75 1.297-.906 0-.015-.016-.094-.125-.094-.094 0-.11.047-.125.11-.22.562-.75.672-1 .672-.329 0-.641-.14-.844-.406-.266-.329-.266-.75-.266-1.032zM.905-1.766c.078-.984.703-1.14.969-1.14.86 0 .89.969.906 1.14z" stroke="none"/></symbol><symbol id="e" overflow="visible"><path d="M2.64-2.922c0-.125 0-.187-.093-.187-.031 0-.047 0-.14.078-.016.015-.079.078-.126.11-.219-.142-.469-.188-.734-.188-1 0-1.234.53-1.234.875 0 .218.093.406.265.546.266.22.531.266.969.344.344.063.906.157.906.625 0 .266-.187.594-.86.594-.671 0-.905-.438-1.03-.906C.53-1.125.53-1.156.438-1.156c-.126 0-.126.047-.126.187v.86c0 .109 0 .171.094.171.063 0 .203-.14.344-.296.297.296.672.296.844.296.906 0 1.25-.484 1.25-.968a.823.823 0 0 0-.313-.64c-.265-.25-.578-.313-.828-.345-.547-.109-1-.187-1-.562 0-.219.188-.485.844-.485.812 0 .844.563.86.766 0 .078.093.078.109.078.125 0 .125-.047.125-.187z" stroke="none"/></symbol></defs><use y="132.247" x="224.901" xlink:href="#a" width="744.094" height="1052.362"/><use y="134.765" x="223.432" xlink:href="#b" width="744.094" height="1052.362"/><use y="136.259" x="229.839" xlink:href="#c" width="744.094" height="1052.362"/><use y="136.259" x="233.811" xlink:href="#d" width="744.094" height="1052.362"/><use y="136.259" x="237.353" xlink:href="#e" width="744.094" height="1052.362"/></g></svg>