<svg xmlns:ns0="http://www.iki.fi/pav/software/textext/" xmlns="http://www.w3.org/2000/svg" xmlns:xlink="http://www.w3.org/1999/xlink" width="210mm" height="297mm"><title>Addition mehrerer Kraefte mit unterschiedlichen Richtungen</title><g fill="#d40000" stroke="#d40000"><path d="M314.18 166.37h180.868" stroke-width="7.956" transform="matrix(-.33538 -.64144 -.73333 .29336 599.42 757.492)"/><path d="M-707.107 1620.068l-5.249-9.091-5.249-9.092h20.996l-5.249 9.091z" transform="matrix(.37426 -.14973 -.17118 -.32737 850.953 891.303)" stroke-width="20.426"/></g><path style="marker:none" color="#000" fill="#fff" stroke="#fff" stroke-width="1.312" stroke-linecap="round" stroke-linejoin="bevel" overflow="visible" d="M32.278 217.542h679.539v617.277H32.278z"/><path style="marker:none" opacity=".5" color="#000" fill="#37abc8" stroke="#216778" stroke-width="1.5" stroke-linecap="round" overflow="visible" d="M80.619 232.73h582.857v586.903H80.619z"/><path d="M380.852 562.486h-17.587" fill="none" stroke="#4d4d4d" stroke-width="2" stroke-linecap="round" stroke-linejoin="round"/><path d="M372.058 550.979c-22.73 26.874-37.671 58.36-17.375 196h34.719c20.297-137.64 5.386-169.126-17.344-196z" fill="#ccc" stroke="#000" stroke-width="3" stroke-linecap="round" stroke-linejoin="round"/><path d="M372.058 615.473v-52.987" fill="none" stroke="#4d4d4d" stroke-width="2" stroke-linecap="round" stroke-linejoin="round"/><path d="M372.058 699.053V734.5h14.037l4.878-35.447zM372.058 699.053V734.5h-14.036l-4.878-35.447z" fill="#e6e6e6" stroke="#4d4d4d" stroke-width="2"/><path d="M372.058 626.969v-11.496l22.212 11.496zM372.058 626.969v-11.496l-22.211 11.496z" fill="#f9f9f9" stroke="#000" stroke-width="2"/><path d="M348.296 626.984c.319 23.02-.129 46.01 3.469 69.03H392.359c3.597-23.02 3.15-46.01 3.468-69.03h-47.53z" fill="#999" stroke="#4d4d4d" stroke-width="2" stroke-linecap="round" stroke-linejoin="round"/><path d="M372.047 279.054v494.254" opacity=".6" fill="none" stroke="gray" stroke-width="3" stroke-linecap="round" stroke-dasharray="18.00000002,18.00000002"/><g fill="#d40000" stroke="#d40000"><path d="M370.795 156.146h143.586" stroke-width="13.432" transform="matrix(.40007 0 0 -.49875 223.705 628.646)"/><path transform="matrix(0 .25455 .20418 0 102.781 730.774)" d="M-707.107 1620.068l-5.249-9.091-5.249-9.092h20.996l-5.249 9.091z" stroke-width="34.487"/></g><g fill="#d40000" stroke="#d40000"><path d="M372.047 550.769V412.988" stroke-width="5.9999625" stroke-linecap="round"/><path d="M372.047 407.908l-1.336 2.314-1.336 2.314h5.344l-1.336-2.314z" stroke-width="7.86228585"/></g><path d="M382.77 423.579c20.694 45.4 38.319 84.071 58.39 128.11" opacity=".3" fill="#d40000" stroke="#d40000" stroke-width="4" stroke-linecap="round" stroke-dasharray="7.85746692,15.71493378"/><g ns0:text="$\\vec{F}_{\\rm{1}}$" ns0:preamble="/home/waldgeist/data/sphinx/inkscape-preamble.tex" transform="translate(-359.033 121.454) scale(3.48608)" fill="#d40000" stroke="#d40000" stroke-width="1.518"><defs><symbol overflow="visible" id="a"><path d="M5.36-5.938c-.141.141-.47.422-.47.594 0 .094.094.203.188.203s.14-.078.203-.14c.11-.14.344-.422.782-.64.062-.048.171-.095.171-.204 0-.11-.078-.156-.14-.203a1.034 1.034 0 0 1-.407-.563c-.03-.093-.062-.234-.203-.234-.14 0-.203.14-.203.219 0 .047.078.36.235.578h-3.36c-.156 0-.344 0-.344.203 0 .188.188.188.344.188z" stroke="none"/></symbol><symbol overflow="visible" id="b"><path d="M3.016-3.234h.968c.75 0 .829.156.829.437 0 .078 0 .188-.063.5-.031.047-.031.078-.031.11 0 .078.062.109.11.109.109 0 .109-.031.155-.203l.547-2.172c.032-.11.032-.125.032-.156a.117.117 0 0 0-.125-.11c-.094 0-.11.047-.141.219-.219.766-.438.953-1.297.953h-.906l.64-2.531c.094-.36.11-.39.547-.39h1.313c1.218 0 1.453.327 1.453 1.093 0 .234 0 .266-.031.547C7-4.703 7-4.688 7-4.656c0 .047.031.125.125.125.11 0 .11-.063.125-.25l.203-1.735c.031-.265-.016-.265-.266-.265h-4.89c-.188 0-.297 0-.297.203 0 .11.094.11.281.11.375 0 .656 0 .656.171 0 .047 0 .063-.062.25L1.562-.78c-.093.39-.109.469-.906.469-.172 0-.281 0-.281.187C.375 0 .5 0 .531 0c.281 0 1.031-.031 1.313-.031C2.172-.031 3 0 3.328 0c.094 0 .203 0 .203-.188 0-.078-.047-.109-.047-.109-.03-.016-.062-.016-.28-.016-.22 0-.267 0-.517-.015-.296-.031-.328-.078-.328-.203 0-.016 0-.078.047-.219z" stroke="none"/></symbol><symbol overflow="visible" id="c"><path d="M2.328-4.438c0-.187 0-.187-.203-.187-.453.438-1.078.438-1.36.438v.25c.157 0 .626 0 1-.188v3.547c0 .234 0 .328-.687.328H.812V0c.125 0 .985-.031 1.235-.031.219 0 1.094.031 1.25.031v-.25H3.03c-.703 0-.703-.094-.703-.328z" stroke="none"/></symbol></defs><use xlink:href="#a" x="224.901" y="132.246" width="744.094" height="1052.362"/><use xlink:href="#b" x="223.432" y="134.765" width="744.094" height="1052.362"/><use xlink:href="#c" x="229.839" y="136.259" width="744.094" height="1052.362"/></g><g transform="translate(-404.517 -73.405) scale(3.48608)" ns0:preamble="/home/waldgeist/data/sphinx/inkscape-preamble.tex" ns0:text="$\\vec{F}_{\\rm{ges}}$" fill="#d40000" stroke="#d40000" stroke-width="1.518"><defs><symbol id="d" overflow="visible"><path d="M5.36-5.938c-.141.141-.47.422-.47.594 0 .094.094.203.188.203s.14-.078.203-.14c.11-.14.344-.422.782-.64.062-.048.171-.095.171-.204 0-.11-.078-.156-.14-.203a1.034 1.034 0 0 1-.407-.563c-.03-.093-.062-.234-.203-.234-.14 0-.203.14-.203.219 0 .047.078.36.235.578h-3.36c-.156 0-.344 0-.344.203 0 .188.188.188.344.188z" stroke="none"/></symbol><symbol id="e" overflow="visible"><path d="M3.016-3.234h.968c.75 0 .829.156.829.437 0 .078 0 .188-.063.5-.031.047-.031.078-.031.11 0 .078.062.109.11.109.109 0 .109-.031.155-.203l.547-2.172c.032-.11.032-.125.032-.156a.117.117 0 0 0-.125-.11c-.094 0-.11.047-.141.219-.219.766-.438.953-1.297.953h-.906l.64-2.531c.094-.36.11-.39.547-.39h1.313c1.218 0 1.453.327 1.453 1.093 0 .234 0 .266-.031.547C7-4.703 7-4.688 7-4.656c0 .047.031.125.125.125.11 0 .11-.063.125-.25l.203-1.735c.031-.265-.016-.265-.266-.265h-4.89c-.188 0-.297 0-.297.203 0 .11.094.11.281.11.375 0 .656 0 .656.171 0 .047 0 .063-.062.25L1.562-.78c-.093.39-.109.469-.906.469-.172 0-.281 0-.281.187C.375 0 .5 0 .531 0c.281 0 1.031-.031 1.313-.031C2.172-.031 3 0 3.328 0c.094 0 .203 0 .203-.188 0-.078-.047-.109-.047-.109-.03-.016-.062-.016-.28-.016-.22 0-.267 0-.517-.015-.296-.031-.328-.078-.328-.203 0-.016 0-.078.047-.219z" stroke="none"/></symbol><symbol id="f" overflow="visible"><path d="M1-1.234c.11.062.36.203.766.203C2.484-1.031 3-1.5 3-2.047c0-.281-.125-.484-.297-.672.328-.219.594-.234.719-.234-.031.031-.063.062-.063.172 0 .14.094.219.22.219.093 0 .218-.063.218-.22 0-.171-.125-.359-.406-.359-.11 0-.485.016-.813.313-.203-.14-.5-.25-.812-.25-.72 0-1.235.484-1.235 1.031 0 .266.14.516.328.703-.046.063-.203.297-.203.563 0 .094.016.422.297.625C.641-.063.266.172.266.53c0 .516.765.89 1.718.89.875 0 1.704-.343 1.704-.905a.87.87 0 0 0-.47-.782c-.405-.218-.827-.218-1.5-.218-.155 0-.405 0-.452-.016a.45.45 0 0 1-.36-.453c0-.172.063-.235.094-.281zm.766 0c-.672 0-.672-.672-.672-.813 0-.11 0-.39.125-.578a.778.778 0 0 1 .547-.234c.687 0 .687.671.687.812 0 .11 0 .39-.14.563a.727.727 0 0 1-.547.25zm0 1.218c.625 0 1.5 0 1.5.547 0 .375-.563.688-1.282.688C1.25 1.219.704.89.704.53c0-.25.218-.547.655-.547z" stroke="none"/></symbol><symbol id="g" overflow="visible"><path d="M3.063-1.594c.156 0 .203 0 .203-.14 0-.625-.344-1.375-1.391-1.375a1.59 1.59 0 0 0-1.61 1.578c0 .89.782 1.593 1.704 1.593.937 0 1.297-.75 1.297-.906 0-.015-.016-.094-.125-.094-.094 0-.11.047-.125.11-.22.562-.75.672-1 .672-.329 0-.641-.14-.844-.406-.266-.329-.266-.75-.266-1.032zM.905-1.766c.078-.984.703-1.14.969-1.14.86 0 .89.969.906 1.14z" stroke="none"/></symbol><symbol id="h" overflow="visible"><path d="M2.64-2.922c0-.125 0-.187-.093-.187-.031 0-.047 0-.14.078-.016.015-.079.078-.126.11-.219-.142-.469-.188-.734-.188-1 0-1.234.53-1.234.875 0 .218.093.406.265.546.266.22.531.266.969.344.344.063.906.157.906.625 0 .266-.187.594-.86.594-.671 0-.905-.438-1.03-.906C.53-1.125.53-1.156.438-1.156c-.126 0-.126.047-.126.187v.86c0 .109 0 .171.094.171.063 0 .203-.14.344-.296.297.296.672.296.844.296.906 0 1.25-.484 1.25-.968a.823.823 0 0 0-.313-.64c-.265-.25-.578-.313-.828-.345-.547-.109-1-.187-1-.562 0-.219.188-.485.844-.485.812 0 .844.563.86.766 0 .078.093.078.109.078.125 0 .125-.047.125-.187z" stroke="none"/></symbol></defs><use y="132.246" x="224.901" xlink:href="#d" width="744.094" height="1052.362"/><use y="134.765" x="223.432" xlink:href="#e" width="744.094" height="1052.362"/><use y="136.259" x="229.839" xlink:href="#f" width="744.094" height="1052.362"/><use y="136.259" x="233.811" xlink:href="#g" width="744.094" height="1052.362"/><use y="136.259" x="237.353" xlink:href="#h" width="744.094" height="1052.362"/></g><g color="#000" fill="gray" stroke="#333" stroke-width="1.5" stroke-linecap="round"><path style="marker:none" d="M209.42 490.643l-19.955 11.522-19.957 11.522V467.6l19.957 11.522z" transform="matrix(.6926 0 0 1 463.855 35.538)" opacity=".2" overflow="visible"/><path style="marker:none" opacity=".2" overflow="visible" d="M109.766 584.297h59.743v28.319h-59.743z" transform="matrix(.6926 0 0 1 463.855 -72.275)"/></g><g color="#000" fill="gray" stroke="#333" stroke-width="1.5" stroke-linecap="round"><path transform="matrix(.6926 0 0 1 463.855 -73.53)" d="M209.42 490.643l-19.955 11.522-19.957 11.522V467.6l19.957 11.522z" style="marker:none" opacity=".2" overflow="visible"/><path style="marker:none" opacity=".2" overflow="visible" d="M109.766 584.297h59.743v28.319h-59.743z" transform="matrix(.6926 0 0 1 463.855 -181.342)"/></g><g color="#000" fill="gray" stroke="#333" stroke-width="1.5" stroke-linecap="round"><path style="marker:none" d="M209.42 490.643l-19.955 11.522-19.957 11.522V467.6l19.957 11.522z" transform="matrix(.6926 0 0 1 463.855 -182.597)" opacity=".2" overflow="visible"/><path style="marker:none" opacity=".2" overflow="visible" d="M109.766 584.297h59.743v28.319h-59.743z" transform="matrix(.6926 0 0 1 463.855 -290.41)"/></g><g color="#000" fill="gray" stroke="#333" stroke-width="1.5" stroke-linecap="round"><path transform="matrix(.6926 0 0 1 463.855 144.605)" d="M209.42 490.643l-19.955 11.522-19.957 11.522V467.6l19.957 11.522z" style="marker:none" opacity=".2" overflow="visible"/><path style="marker:none" opacity=".2" overflow="visible" d="M109.766 584.297h59.743v28.319h-59.743z" transform="matrix(.6926 0 0 1 463.855 36.792)"/></g><g color="#000" fill="gray" stroke="#333" stroke-width="1.5" stroke-linecap="round"><path style="marker:none" d="M209.42 490.643l-19.955 11.522-19.957 11.522V467.6l19.957 11.522z" transform="matrix(.6926 0 0 1 174.064 35.538)" opacity=".2" overflow="visible"/><path style="marker:none" opacity=".2" overflow="visible" d="M109.766 584.297h59.743v28.319h-59.743z" transform="matrix(.6926 0 0 1 174.064 -72.275)"/></g><g color="#000" fill="gray" stroke="#333" stroke-width="1.5" stroke-linecap="round"><path transform="matrix(.6926 0 0 1 174.064 -73.53)" d="M209.42 490.643l-19.955 11.522-19.957 11.522V467.6l19.957 11.522z" style="marker:none" opacity=".2" overflow="visible"/><path style="marker:none" opacity=".2" overflow="visible" d="M109.766 584.297h59.743v28.319h-59.743z" transform="matrix(.6926 0 0 1 174.064 -181.342)"/></g><g color="#000" fill="gray" stroke="#333" stroke-width="1.5" stroke-linecap="round"><path style="marker:none" d="M209.42 490.643l-19.955 11.522-19.957 11.522V467.6l19.957 11.522z" transform="matrix(.6926 0 0 1 174.064 -182.597)" opacity=".2" overflow="visible"/><path style="marker:none" opacity=".2" overflow="visible" d="M109.766 584.297h59.743v28.319h-59.743z" transform="matrix(.6926 0 0 1 174.064 -290.41)"/></g><path d="M255.111 278.335l-15.995 7.31" fill="none" stroke="#4d4d4d" stroke-width="2" stroke-linecap="round" stroke-linejoin="round"/><path d="M242.33 271.524c-9.502 33.89-10.003 68.738 65.673 185.486l15.803-7.222 15.774-7.21c-38.757-133.622-65.406-156.06-97.25-171.054z" fill="#ccc" stroke="#000" stroke-width="3" stroke-linecap="round" stroke-linejoin="round"/><path d="M269.14 330.182l-22.027-48.192" fill="none" stroke="#4d4d4d" stroke-width="2" stroke-linecap="round" stroke-linejoin="round"/><path d="M303.883 406.199l14.735 32.239 12.767-5.835-10.3-34.267z" fill="#e6e6e6" stroke="#4d4d4d" stroke-width="2"/><path d="M303.883 406.199l14.735 32.239-12.766 5.835-19.171-30.212z" fill="#e6e6e6" stroke="#4d4d4d" stroke-width="2"/><path d="M273.918 340.637l-4.778-10.455 24.98 1.222z" fill="#f9f9f9" stroke="#000" stroke-width="2"/><path d="M273.918 340.637l-4.778-10.455-15.423 19.688z" fill="#f9f9f9" stroke="#000" stroke-width="2"/><path d="M252.312 350.529c9.86 20.805 19.01 41.9 31.851 61.342l18.446-8.43 18.474-8.444c-6.297-22.433-16.26-43.157-25.54-64.226l-21.63 9.885-21.6 9.873z" fill="#999" stroke="#4d4d4d" stroke-width="2" stroke-linecap="round" stroke-linejoin="round"/><g ns0:text="$\\vec{F}_{\\rm{2}}$" ns0:preamble="/home/waldgeist/data/sphinx/inkscape-preamble.tex" transform="translate(-502.154 -80.275) scale(3.48608)" fill="#d40000" stroke="#d40000" stroke-width="1.518"><defs><symbol overflow="visible" id="i"><path d="M5.36-5.938c-.141.141-.47.422-.47.594 0 .094.094.203.188.203s.14-.078.203-.14c.11-.14.344-.422.782-.64.062-.048.171-.095.171-.204 0-.11-.078-.156-.14-.203a1.034 1.034 0 0 1-.407-.563c-.03-.093-.062-.234-.203-.234-.14 0-.203.14-.203.219 0 .047.078.36.235.578h-3.36c-.156 0-.344 0-.344.203 0 .188.188.188.344.188z" stroke="none"/></symbol><symbol overflow="visible" id="j"><path d="M3.016-3.234h.968c.75 0 .829.156.829.437 0 .078 0 .188-.063.5-.031.047-.031.078-.031.11 0 .078.062.109.11.109.109 0 .109-.031.155-.203l.547-2.172c.032-.11.032-.125.032-.156a.117.117 0 0 0-.125-.11c-.094 0-.11.047-.141.219-.219.766-.438.953-1.297.953h-.906l.64-2.531c.094-.36.11-.39.547-.39h1.313c1.218 0 1.453.327 1.453 1.093 0 .234 0 .266-.031.547C7-4.703 7-4.688 7-4.656c0 .047.031.125.125.125.11 0 .11-.063.125-.25l.203-1.735c.031-.265-.016-.265-.266-.265h-4.89c-.188 0-.297 0-.297.203 0 .11.094.11.281.11.375 0 .656 0 .656.171 0 .047 0 .063-.062.25L1.562-.78c-.093.39-.109.469-.906.469-.172 0-.281 0-.281.187C.375 0 .5 0 .531 0c.281 0 1.031-.031 1.313-.031C2.172-.031 3 0 3.328 0c.094 0 .203 0 .203-.188 0-.078-.047-.109-.047-.109-.03-.016-.062-.016-.28-.016-.22 0-.267 0-.517-.015-.296-.031-.328-.078-.328-.203 0-.016 0-.078.047-.219z" stroke="none"/></symbol><symbol overflow="visible" id="k"><path d="M3.516-1.266H3.28c-.015.157-.094.563-.187.625-.047.047-.578.047-.688.047H1.125c.734-.64.984-.844 1.39-1.172.516-.406 1-.843 1-1.5 0-.843-.734-1.359-1.624-1.359-.86 0-1.454.61-1.454 1.25 0 .344.297.39.376.39.156 0 .359-.124.359-.374 0-.125-.047-.375-.406-.375.218-.485.687-.641 1.015-.641.703 0 1.063.547 1.063 1.11 0 .609-.438 1.078-.656 1.328L.516-.266C.437-.203.437-.187.437 0h2.876z" stroke="none"/></symbol></defs><use xlink:href="#i" x="224.901" y="132.246" width="744.094" height="1052.362"/><use xlink:href="#j" x="223.432" y="134.765" width="744.094" height="1052.362"/><use xlink:href="#k" x="229.839" y="136.259" width="744.094" height="1052.362"/></g><g fill="#d40000" stroke="#d40000"><path d="M372.047 550.769l-64.063-140.161" stroke-width="5.9999625"/><path d="M306.42 407.258l-.252 2.66-.253 2.66 2.43-1.11 2.43-1.112-2.177-1.549z" stroke-width="7.86228585"/></g><path d="M312.24 402.616l63.165-.396" opacity=".3" fill="#d40000" stroke="#d40000" stroke-width="4" stroke-linecap="round" stroke-dasharray="7.85746734,15.71493466"/><g color="#000" fill="gray" stroke="#333" stroke-width="1.5" stroke-linecap="round"><path transform="matrix(.6926 0 0 1 174.064 144.605)" d="M209.42 490.643l-19.955 11.522-19.957 11.522V467.6l19.957 11.522z" style="marker:none" opacity=".2" overflow="visible"/><path style="marker:none" opacity=".2" overflow="visible" d="M109.766 584.297h59.743v28.319h-59.743z" transform="matrix(.6926 0 0 1 174.064 36.792)"/></g><g color="#000" fill="gray" stroke="#333" stroke-width="1.5" stroke-linecap="round"><path transform="matrix(.6926 0 0 1 352.96 35.538)" d="M209.42 490.643l-19.955 11.522-19.957 11.522V467.6l19.957 11.522z" style="marker:none" opacity=".2" overflow="visible"/><path style="marker:none" opacity=".2" overflow="visible" d="M109.766 584.297h59.743v28.319h-59.743z" transform="matrix(.6926 0 0 1 352.96 -72.275)"/></g><g color="#000" fill="gray" stroke="#333" stroke-width="1.5" stroke-linecap="round"><path style="marker:none" d="M209.42 490.643l-19.955 11.522-19.957 11.522V467.6l19.957 11.522z" transform="matrix(.6926 0 0 1 352.96 -73.53)" opacity=".2" overflow="visible"/><path style="marker:none" opacity=".2" overflow="visible" d="M109.766 584.297h59.743v28.319h-59.743z" transform="matrix(.6926 0 0 1 352.96 -181.342)"/></g><g color="#000" fill="gray" stroke="#333" stroke-width="1.5" stroke-linecap="round"><path transform="matrix(.6926 0 0 1 352.96 -182.597)" d="M209.42 490.643l-19.955 11.522-19.957 11.522V467.6l19.957 11.522z" style="marker:none" opacity=".2" overflow="visible"/><path style="marker:none" opacity=".2" overflow="visible" d="M109.766 584.297h59.743v28.319h-59.743z" transform="matrix(.6926 0 0 1 352.96 -290.41)"/></g><g color="#000" fill="gray" stroke="#333" stroke-width="1.5" stroke-linecap="round"><path style="marker:none" d="M209.42 490.643l-19.955 11.522-19.957 11.522V467.6l19.957 11.522z" transform="matrix(.6926 0 0 1 352.96 144.605)" opacity=".2" overflow="visible"/><path style="marker:none" opacity=".2" overflow="visible" d="M109.766 584.297h59.743v28.319h-59.743z" transform="matrix(.6926 0 0 1 352.96 36.792)"/></g><g color="#000" fill="gray" stroke="#333" stroke-width="1.5" stroke-linecap="round"><path transform="matrix(.6926 0 0 1 59.168 35.538)" d="M209.42 490.643l-19.955 11.522-19.957 11.522V467.6l19.957 11.522z" style="marker:none" opacity=".2" overflow="visible"/><path style="marker:none" opacity=".2" overflow="visible" d="M109.766 584.297h59.743v28.319h-59.743z" transform="matrix(.6926 0 0 1 59.168 -72.275)"/></g><g color="#000" fill="gray" stroke="#333" stroke-width="1.5" stroke-linecap="round"><path style="marker:none" d="M209.42 490.643l-19.955 11.522-19.957 11.522V467.6l19.957 11.522z" transform="matrix(.6926 0 0 1 59.168 -73.53)" opacity=".2" overflow="visible"/><path style="marker:none" opacity=".2" overflow="visible" d="M109.766 584.297h59.743v28.319h-59.743z" transform="matrix(.6926 0 0 1 59.168 -181.342)"/></g><g color="#000" fill="gray" stroke="#333" stroke-width="1.5" stroke-linecap="round"><path transform="matrix(.6926 0 0 1 59.168 -182.597)" d="M209.42 490.643l-19.955 11.522-19.957 11.522V467.6l19.957 11.522z" style="marker:none" opacity=".2" overflow="visible"/><path style="marker:none" opacity=".2" overflow="visible" d="M109.766 584.297h59.743v28.319h-59.743z" transform="matrix(.6926 0 0 1 59.168 -290.41)"/></g><g color="#000" fill="gray" stroke="#333" stroke-width="1.5" stroke-linecap="round"><path style="marker:none" d="M209.42 490.643l-19.955 11.522-19.957 11.522V467.6l19.957 11.522z" transform="matrix(.6926 0 0 1 59.168 144.605)" opacity=".2" overflow="visible"/><path style="marker:none" opacity=".2" overflow="visible" d="M109.766 584.297h59.743v28.319h-59.743z" transform="matrix(.6926 0 0 1 59.168 36.792)"/></g><g color="#000" fill="gray" stroke="#333" stroke-width="1.5" stroke-linecap="round"><path transform="matrix(.6926 0 0 1 61.24 253.672)" d="M209.42 490.643l-19.955 11.522-19.957 11.522V467.6l19.957 11.522z" style="marker:none" opacity=".2" overflow="visible"/><path style="marker:none" opacity=".2" overflow="visible" d="M109.766 584.297h59.743v28.319h-59.743z" transform="matrix(.6926 0 0 1 61.24 145.86)"/></g><g color="#000" fill="gray" stroke="#333" stroke-width="1.5" stroke-linecap="round"><path style="marker:none" d="M209.42 490.643l-19.955 11.522-19.957 11.522V467.6l19.957 11.522z" transform="matrix(.6926 0 0 1 465.928 253.672)" opacity=".2" overflow="visible"/><path style="marker:none" opacity=".2" overflow="visible" d="M109.766 584.297h59.743v28.319h-59.743z" transform="matrix(.6926 0 0 1 465.928 145.86)"/></g><g color="#000" fill="gray" stroke="#333" stroke-width="1.5" stroke-linecap="round"><path style="marker:none" d="M209.42 490.643l-19.955 11.522-19.957 11.522V467.6l19.957 11.522z" transform="matrix(.6926 0 0 1 176.136 253.672)" opacity=".2" overflow="visible"/><path style="marker:none" opacity=".2" overflow="visible" d="M109.766 584.297h59.743v28.319h-59.743z" transform="matrix(.6926 0 0 1 176.136 145.86)"/></g><g color="#000" fill="gray" stroke="#333" stroke-width="1.5" stroke-linecap="round"><path transform="matrix(.6926 0 0 1 355.032 253.672)" d="M209.42 490.643l-19.955 11.522-19.957 11.522V467.6l19.957 11.522z" style="marker:none" opacity=".2" overflow="visible"/><path style="marker:none" opacity=".2" overflow="visible" d="M109.766 584.297h59.743v28.319h-59.743z" transform="matrix(.6926 0 0 1 355.032 145.86)"/></g></svg>