<svg xmlns:ns0="http://www.iki.fi/pav/software/textext/" xmlns="http://www.w3.org/2000/svg" xmlns:xlink="http://www.w3.org/1999/xlink" width="210mm" height="297mm"><title>Kraftzerlegung bei einer Straßenlaterne</title><path style="marker:none" color="#000" fill="#fff" stroke="#fff" stroke-width="1.312" stroke-linecap="round" stroke-linejoin="bevel" overflow="visible" d="M18.473 318.283h703.782v404.204H18.473z"/><path style="marker:none" color="#000" fill="gray" stroke="#1a1a1a" stroke-width=".976" stroke-linecap="round" stroke-linejoin="bevel" overflow="visible" opacity=".5" d="M88.194 342.78h16.162v277.959H88.194zM639.738 342.78H655.9v277.959h-16.162z"/><path d="M292.824 568.215a73.303 73.303 0 0 1-6.756-30.362" style="marker:none" color="#000" fill="none" stroke="#333" stroke-width=".9997267499999999" stroke-linecap="round" stroke-linejoin="round" overflow="visible"/><path d="M104.357 373.605l267.69 121.73 267.69-121.73" fill="none" stroke="#000" stroke-width="3" stroke-linecap="round" opacity=".5"/><g ns0:text="$\\vec{F}_{\\rm{G}}$" ns0:preamble="/home/waldgeist/data/sphinx/inkscape-preamble.tex" transform="matrix(5.29276 0 0 5.29276 -835.431 -11.86)" fill="#d40000" stroke="#d40000"><defs><symbol overflow="visible" id="a"><path d="M5.36-5.938c-.141.141-.47.422-.47.594 0 .094.094.203.188.203s.14-.078.203-.14c.11-.14.344-.422.782-.64.062-.048.171-.095.171-.204 0-.11-.078-.156-.14-.203a1.034 1.034 0 0 1-.407-.563c-.03-.093-.062-.234-.203-.234-.14 0-.203.14-.203.219 0 .047.078.36.235.578h-3.36c-.156 0-.344 0-.344.203 0 .188.188.188.344.188z" stroke="none"/></symbol><symbol overflow="visible" id="b"><path d="M3.016-3.234h.968c.75 0 .829.156.829.437 0 .078 0 .188-.063.5-.031.047-.031.078-.031.11 0 .078.062.109.11.109.109 0 .109-.031.155-.203l.547-2.172c.032-.11.032-.125.032-.156a.117.117 0 0 0-.125-.11c-.094 0-.11.047-.141.219-.219.766-.438.953-1.297.953h-.906l.64-2.531c.094-.36.11-.39.547-.39h1.313c1.218 0 1.453.327 1.453 1.093 0 .234 0 .266-.031.547C7-4.703 7-4.688 7-4.656c0 .047.031.125.125.125.11 0 .11-.063.125-.25l.203-1.735c.031-.265-.016-.265-.266-.265h-4.89c-.188 0-.297 0-.297.203 0 .11.094.11.281.11.375 0 .656 0 .656.171 0 .047 0 .063-.062.25L1.562-.78c-.093.39-.109.469-.906.469-.172 0-.281 0-.281.187C.375 0 .5 0 .531 0c.281 0 1.031-.031 1.313-.031C2.172-.031 3 0 3.328 0c.094 0 .203 0 .203-.188 0-.078-.047-.109-.047-.109-.03-.016-.062-.016-.28-.016-.22 0-.267 0-.517-.015-.296-.031-.328-.078-.328-.203 0-.016 0-.078.047-.219z" stroke="none"/></symbol><symbol overflow="visible" id="c"><path d="M5.188-1.36c0-.312.078-.312.546-.312v-.25c-.062 0-.562.031-.906.031-.375 0-.89 0-1.266-.03v.25h.266c.703 0 .703.093.703.312v.453c0 .156 0 .422-.406.625-.328.172-.719.172-.813.172-.796 0-2.078-.454-2.078-2.282 0-1.843 1.329-2.25 2.016-2.25.672 0 1.516.454 1.688 1.657.015.078.078.078.125.078.125 0 .125-.047.125-.188v-1.625c0-.125 0-.187-.094-.187-.032 0-.063 0-.125.093l-.36.532a1.994 1.994 0 0 0-1.453-.625C1.703-4.906.484-3.781.484-2.391.484-1 1.672.141 3.172.141c.39 0 1.156-.078 1.484-.563.125.188.375.422.453.422.079 0 .079-.078.079-.188z" stroke="none"/></symbol></defs><use height="1052.362" width="744.094" xlink:href="#a" x="224.901" y="132.246"/><use height="1052.362" width="744.094" xlink:href="#b" x="223.432" y="134.765"/><use height="1052.362" width="744.094" xlink:href="#c" x="229.839" y="136.259"/></g><g opacity=".5" color="#000" stroke-linecap="round" stroke-linejoin="round"><path style="marker:none" d="M376.192 499.423a4.145 4.145 0 1 1-8.29 0 4.145 4.145 0 0 1 8.29 0z" fill="#b3b3b3" stroke="#000" stroke-width="1.5" overflow="visible"/><g transform="translate(-172.26 .355)"><path style="marker:none" d="M444.467 352.326c0 8.369-15.49 15.153-34.598 15.153-19.107 0-34.597-6.784-34.597-15.153h34.597z" transform="matrix(.69466 0 0 .8676 259.588 233.468)" opacity=".5" fill="#fc0" stroke="#d4aa00" stroke-width="1.288" overflow="visible"/><rect style="marker:none" width="65.61" height="22.038" x="511.503" y="499.068" rx="0" ry="0" fill="#999" stroke="#1a1a1a" stroke-width="1.5" overflow="visible"/><path d="M502.132 517.107h84.352l20 22.038H482.132z" style="marker:none" fill="#999" stroke="#1a1a1a" stroke-width="1.5" overflow="visible"/></g></g><g fill="#d40000" stroke="#d40000"><path d="M372.047 495.334v137.168" stroke-width="5.9999625"/><path d="M372.047 637.582l1.336-2.314 1.336-2.314h-5.344l1.336 2.314z" stroke-width="7.86228585"/></g><g fill="#d40000" stroke="#d40000"><path d="M372.047 495.278L222.423 563.43" stroke-width="6.000251609999999" stroke-linecap="round"/><path d="M216.77 565.977l3.245.326 3.245.326-1.34-2.973-1.34-2.973-1.905 2.647z" stroke-width="7.8623787599999995"/></g><g fill="#d40000" stroke="#d40000"><path d="M372.047 495.334l148.3 67.62" stroke-width="6.000251609999999"/><path d="M526 565.502l-3.245.326-3.245.326 1.34-2.974 1.34-2.973 1.905 2.647z" stroke-width="7.8623787599999995"/></g><g transform="matrix(5.29276 0 0 5.29276 -1025.8 -104.836)" ns0:preamble="/home/waldgeist/data/sphinx/inkscape-preamble.tex" ns0:text="$\\vec{F}_{\\rm{1}}$" fill="#d40000" stroke="#d40000"><defs><symbol id="d" overflow="visible"><path d="M5.36-5.938c-.141.141-.47.422-.47.594 0 .094.094.203.188.203s.14-.078.203-.14c.11-.14.344-.422.782-.64.062-.048.171-.095.171-.204 0-.11-.078-.156-.14-.203a1.034 1.034 0 0 1-.407-.563c-.03-.093-.062-.234-.203-.234-.14 0-.203.14-.203.219 0 .047.078.36.235.578h-3.36c-.156 0-.344 0-.344.203 0 .188.188.188.344.188z" stroke="none"/></symbol><symbol id="e" overflow="visible"><path d="M3.016-3.234h.968c.75 0 .829.156.829.437 0 .078 0 .188-.063.5-.031.047-.031.078-.031.11 0 .078.062.109.11.109.109 0 .109-.031.155-.203l.547-2.172c.032-.11.032-.125.032-.156a.117.117 0 0 0-.125-.11c-.094 0-.11.047-.141.219-.219.766-.438.953-1.297.953h-.906l.64-2.531c.094-.36.11-.39.547-.39h1.313c1.218 0 1.453.327 1.453 1.093 0 .234 0 .266-.031.547C7-4.703 7-4.688 7-4.656c0 .047.031.125.125.125.11 0 .11-.063.125-.25l.203-1.735c.031-.265-.016-.265-.266-.265h-4.89c-.188 0-.297 0-.297.203 0 .11.094.11.281.11.375 0 .656 0 .656.171 0 .047 0 .063-.062.25L1.562-.78c-.093.39-.109.469-.906.469-.172 0-.281 0-.281.187C.375 0 .5 0 .531 0c.281 0 1.031-.031 1.313-.031C2.172-.031 3 0 3.328 0c.094 0 .203 0 .203-.188 0-.078-.047-.109-.047-.109-.03-.016-.062-.016-.28-.016-.22 0-.267 0-.517-.015-.296-.031-.328-.078-.328-.203 0-.016 0-.078.047-.219z" stroke="none"/></symbol><symbol id="f" overflow="visible"><path d="M2.328-4.438c0-.187 0-.187-.203-.187-.453.438-1.078.438-1.36.438v.25c.157 0 .626 0 1-.188v3.547c0 .234 0 .328-.687.328H.812V0c.125 0 .985-.031 1.235-.031.219 0 1.094.031 1.25.031v-.25H3.03c-.703 0-.703-.094-.703-.328z" stroke="none"/></symbol></defs><use height="1052.362" width="744.094" y="132.246" x="224.901" xlink:href="#d"/><use height="1052.362" width="744.094" y="134.765" x="223.432" xlink:href="#e"/><use height="1052.362" width="744.094" y="136.259" x="229.839" xlink:href="#f"/></g><g ns0:text="$\\vec{F}_{\\rm{2}}$" ns0:preamble="/home/waldgeist/data/sphinx/inkscape-preamble.tex" transform="matrix(5.29276 0 0 5.29276 -646.762 -104.281)" fill="#d40000" stroke="#d40000"><defs><symbol overflow="visible" id="g"><path d="M5.36-5.938c-.141.141-.47.422-.47.594 0 .094.094.203.188.203s.14-.078.203-.14c.11-.14.344-.422.782-.64.062-.048.171-.095.171-.204 0-.11-.078-.156-.14-.203a1.034 1.034 0 0 1-.407-.563c-.03-.093-.062-.234-.203-.234-.14 0-.203.14-.203.219 0 .047.078.36.235.578h-3.36c-.156 0-.344 0-.344.203 0 .188.188.188.344.188z" stroke="none"/></symbol><symbol overflow="visible" id="h"><path d="M3.016-3.234h.968c.75 0 .829.156.829.437 0 .078 0 .188-.063.5-.031.047-.031.078-.031.11 0 .078.062.109.11.109.109 0 .109-.031.155-.203l.547-2.172c.032-.11.032-.125.032-.156a.117.117 0 0 0-.125-.11c-.094 0-.11.047-.141.219-.219.766-.438.953-1.297.953h-.906l.64-2.531c.094-.36.11-.39.547-.39h1.313c1.218 0 1.453.327 1.453 1.093 0 .234 0 .266-.031.547C7-4.703 7-4.688 7-4.656c0 .047.031.125.125.125.11 0 .11-.063.125-.25l.203-1.735c.031-.265-.016-.265-.266-.265h-4.89c-.188 0-.297 0-.297.203 0 .11.094.11.281.11.375 0 .656 0 .656.171 0 .047 0 .063-.062.25L1.562-.78c-.093.39-.109.469-.906.469-.172 0-.281 0-.281.187C.375 0 .5 0 .531 0c.281 0 1.031-.031 1.313-.031C2.172-.031 3 0 3.328 0c.094 0 .203 0 .203-.188 0-.078-.047-.109-.047-.109-.03-.016-.062-.016-.28-.016-.22 0-.267 0-.517-.015-.296-.031-.328-.078-.328-.203 0-.016 0-.078.047-.219z" stroke="none"/></symbol><symbol overflow="visible" id="i"><path d="M3.516-1.266H3.28c-.015.157-.094.563-.187.625-.047.047-.578.047-.688.047H1.125c.734-.64.984-.844 1.39-1.172.516-.406 1-.843 1-1.5 0-.843-.734-1.359-1.624-1.359-.86 0-1.454.61-1.454 1.25 0 .344.297.39.376.39.156 0 .359-.124.359-.374 0-.125-.047-.375-.406-.375.218-.485.687-.641 1.015-.641.703 0 1.063.547 1.063 1.11 0 .609-.438 1.078-.656 1.328L.516-.266C.437-.203.437-.187.437 0h2.876z" stroke="none"/></symbol></defs><use height="1052.362" width="744.094" xlink:href="#g" x="224.901" y="132.246"/><use height="1052.362" width="744.094" xlink:href="#h" x="223.432" y="134.765"/><use height="1052.362" width="744.094" xlink:href="#i" x="229.839" y="136.259"/></g><path d="M372.047 641.582l161.1-72.99" fill="#d40000" stroke="#d40000" stroke-width="6.000109050000001" stroke-linecap="round" stroke-dasharray="12.11999345,24.23998691" opacity=".3"/><path d="M370.33 640.02l-168.11-75.766" fill="#d40000" stroke="#d40000" stroke-width="5.9997575" stroke-linecap="round" stroke-dasharray="7.70718752,15.41437505" opacity=".3"/><path d="M102.36 373.605h537.378" fill="none" stroke="#000" stroke-linecap="round" stroke-dasharray="1.00000001,3.00000002"/><g transform="matrix(4.25 0 0 4.25 -413.404 -172.029)" ns0:preamble="/home/waldgeist/data/sphinx/inkscape-preamble.tex" ns0:text="$\\alpha$" fill="#d40000" stroke="#d40000" stroke-width="1.245"><defs><symbol id="j" overflow="visible"><path d="M4.75-2.36c0-1.562-.922-2.046-1.656-2.046-1.375 0-2.688 1.422-2.688 2.828C.406-.641 1 .109 2.031.109c.625 0 1.344-.234 2.094-.843.125.53.453.843.906.843.532 0 .844-.546.844-.703 0-.078-.063-.11-.125-.11-.063 0-.094.032-.125.11-.188.485-.547.485-.563.485-.312 0-.312-.782-.312-1.016 0-.203 0-.234.11-.344C5.796-2.656 6-3.812 6-3.812c0-.032-.016-.11-.125-.11-.094 0-.094.031-.14.219-.188.625-.516 1.375-.985 1.969zM4.094-.983c-.89.765-1.657.875-2.047.875-.594 0-.906-.454-.906-1.094 0-.484.265-1.563.578-2.063.468-.734 1.015-.921 1.36-.921.983 0 .983 1.312.983 2.078 0 .375 0 .953.032 1.125zm0 0" stroke="none"/></symbol></defs><use y="134.765" x="223.432" xlink:href="#j" width="744.094" height="1052.362" fill="#000"/></g><path d="M103.359 568.592h537.377" fill="none" stroke="#000" stroke-linecap="round" stroke-dasharray="1.00000001,3.00000002"/><use height="1052.362" width="744.094" xlink:href="#j" x="223.432" y="134.765" fill="#000" transform="matrix(2.72 0 0 2.72 -341.484 195.74)" ns0:text="$\\alpha$" ns0:preamble="/home/waldgeist/data/sphinx/inkscape-preamble.tex" stroke="#d40000" stroke-width="1.946"/><path d="M535.143 419.223a114.11 114.11 0 0 1-9.516-45.618" style="marker:none" color="#000" fill="none" stroke="#4d4d4d" stroke-width=".9997867" stroke-linecap="round" stroke-linejoin="round" overflow="visible"/><path d="M211.535 568.592h160.512M372.047 495.334v73.258" fill="none" stroke="#f60" stroke-width="1.5" stroke-linecap="round"/><g ns0:text="$F_{\\rm{1,x}}$" ns0:preamble="/home/waldgeist/data/sphinx/inkscape-preamble.tex" transform="matrix(2.16792 0 0 2.16792 -207.147 293.865)" fill="#f60" stroke="#f60" stroke-width="2.441"><defs><symbol overflow="visible" id="k"><path d="M3.016-3.234h.968c.75 0 .829.156.829.437 0 .078 0 .188-.063.5-.031.047-.031.078-.031.11 0 .078.062.109.11.109.109 0 .109-.031.155-.203l.547-2.172c.032-.11.032-.125.032-.156a.117.117 0 0 0-.125-.11c-.094 0-.11.047-.141.219-.219.766-.438.953-1.297.953h-.906l.64-2.531c.094-.36.11-.39.547-.39h1.313c1.218 0 1.453.327 1.453 1.093 0 .234 0 .266-.031.547C7-4.703 7-4.688 7-4.656c0 .047.031.125.125.125.11 0 .11-.063.125-.25l.203-1.735c.031-.265-.016-.265-.266-.265h-4.89c-.188 0-.297 0-.297.203 0 .11.094.11.281.11.375 0 .656 0 .656.171 0 .047 0 .063-.062.25L1.562-.78c-.093.39-.109.469-.906.469-.172 0-.281 0-.281.187C.375 0 .5 0 .531 0c.281 0 1.031-.031 1.313-.031C2.172-.031 3 0 3.328 0c.094 0 .203 0 .203-.188 0-.078-.047-.109-.047-.109-.03-.016-.062-.016-.28-.016-.22 0-.267 0-.517-.015-.296-.031-.328-.078-.328-.203 0-.016 0-.078.047-.219zm0 0" stroke="none"/></symbol><symbol overflow="visible" id="l"><path d="M2.328-4.438c0-.187 0-.187-.203-.187-.453.438-1.078.438-1.36.438v.25c.157 0 .626 0 1-.188v3.547c0 .234 0 .328-.687.328H.812V0c.125 0 .985-.031 1.235-.031.219 0 1.094.031 1.25.031v-.25H3.03c-.703 0-.703-.094-.703-.328zm0 0" stroke="none"/></symbol><symbol overflow="visible" id="n"><path d="M2.36-1.563l-.047-.062c0-.031.453-.516.515-.578.25-.281.485-.547 1.047-.547V-3c-.203.016-.406.031-.594.031-.203 0-.484-.015-.687-.031v.25c.11.016.14.094.14.156 0 .016 0 .125-.109.235l-.484.546-.579-.656c-.078-.078-.078-.11-.078-.14 0-.094.094-.141.188-.141V-3c-.25.016-.516.031-.781.031-.204 0-.47-.015-.672-.031v.25c.312 0 .5 0 .687.203l.86 1c.015.016.062.063.062.078 0 .016-.531.594-.594.672-.265.281-.5.531-1.046.547V0C.39-.016.546-.031.765-.031c.203 0 .484.015.687.031v-.25c-.078-.016-.14-.063-.14-.156 0-.14.078-.235.187-.344l.5-.547.594.703c.14.14.14.156.14.203 0 .125-.156.141-.187.141V0c.062 0 .562-.031.781-.031.219 0 .453.015.672.031v-.25c-.469 0-.516-.047-.688-.219zm0 0" stroke="none"/></symbol><symbol overflow="visible" id="m"><path d="M1.469-.11c0 .376-.063.829-.547 1.266-.016.032-.047.063-.047.094 0 .047.063.094.094.094.11 0 .703-.563.703-1.39 0-.423-.172-.75-.5-.75a.387.387 0 0 0-.39.39c0 .219.155.406.405.406.172 0 .282-.11.282-.11zm0 0" stroke="none"/></symbol></defs><use height="1052.362" width="744.094" xlink:href="#k" x="223.432" y="134.765"/><use height="1052.362" width="744.094" xlink:href="#l" x="229.839" y="136.259"/><use height="1052.362" width="744.094" xlink:href="#m" x="233.81" y="136.259"/><use height="1052.362" width="744.094" xlink:href="#n" x="236.176" y="136.259"/></g><g transform="matrix(2.16792 0 0 2.16792 -108.857 255.616)" ns0:preamble="/home/waldgeist/data/sphinx/inkscape-preamble.tex" ns0:text="$F_{\\rm{1,y}}$" fill="#f60" stroke="#f60" stroke-width="2.441"><defs><symbol id="o" overflow="visible"><path d="M3.016-3.234h.968c.75 0 .829.156.829.437 0 .078 0 .188-.063.5-.031.047-.031.078-.031.11 0 .078.062.109.11.109.109 0 .109-.031.155-.203l.547-2.172c.032-.11.032-.125.032-.156a.117.117 0 0 0-.125-.11c-.094 0-.11.047-.141.219-.219.766-.438.953-1.297.953h-.906l.64-2.531c.094-.36.11-.39.547-.39h1.313c1.218 0 1.453.327 1.453 1.093 0 .234 0 .266-.031.547C7-4.703 7-4.688 7-4.656c0 .047.031.125.125.125.11 0 .11-.063.125-.25l.203-1.735c.031-.265-.016-.265-.266-.265h-4.89c-.188 0-.297 0-.297.203 0 .11.094.11.281.11.375 0 .656 0 .656.171 0 .047 0 .063-.062.25L1.562-.78c-.093.39-.109.469-.906.469-.172 0-.281 0-.281.187C.375 0 .5 0 .531 0c.281 0 1.031-.031 1.313-.031C2.172-.031 3 0 3.328 0c.094 0 .203 0 .203-.188 0-.078-.047-.109-.047-.109-.03-.016-.062-.016-.28-.016-.22 0-.267 0-.517-.015-.296-.031-.328-.078-.328-.203 0-.016 0-.078.047-.219zm0 0" stroke="none"/></symbol><symbol id="p" overflow="visible"><path d="M2.328-4.438c0-.187 0-.187-.203-.187-.453.438-1.078.438-1.36.438v.25c.157 0 .626 0 1-.188v3.547c0 .234 0 .328-.687.328H.812V0c.125 0 .985-.031 1.235-.031.219 0 1.094.031 1.25.031v-.25H3.03c-.703 0-.703-.094-.703-.328zm0 0" stroke="none"/></symbol><symbol id="r" overflow="visible"><path d="M3.297-2.328c.187-.422.547-.422.656-.422V-3c-.187.016-.328.031-.531.031-.188 0-.438-.015-.625-.031v.25c.234.016.281.156.281.266 0 .078-.031.14-.062.218L2.25-.625l-.86-1.828a.252.252 0 0 1-.046-.14c0-.157.234-.157.36-.157V-3c-.11 0-.61.031-.798.031C.687-2.969.422-2.984.22-3v.25c.39 0 .469.016.562.234L1.953 0c-.062.14-.125.266-.187.406-.157.344-.375.813-.86.813-.172 0-.219-.032-.297-.078.016 0 .204-.063.204-.297A.287.287 0 0 0 .516.547C.328.547.203.672.203.844c0 .328.328.578.703.578.594 0 .938-.625 1.031-.828zm0 0" stroke="none"/></symbol><symbol id="q" overflow="visible"><path d="M1.469-.11c0 .376-.063.829-.547 1.266-.016.032-.047.063-.047.094 0 .047.063.094.094.094.11 0 .703-.563.703-1.39 0-.423-.172-.75-.5-.75a.387.387 0 0 0-.39.39c0 .219.155.406.405.406.172 0 .282-.11.282-.11zm0 0" stroke="none"/></symbol></defs><use y="134.765" x="223.432" xlink:href="#o" width="744.094" height="1052.362"/><use y="136.259" x="229.839" xlink:href="#p" width="744.094" height="1052.362"/><use y="136.259" x="233.81" xlink:href="#q" width="744.094" height="1052.362"/><use y="136.259" x="236.176" xlink:href="#r" width="744.094" height="1052.362"/></g></svg>