<svg xmlns:ns0="http://www.iki.fi/pav/software/textext/" xmlns="http://www.w3.org/2000/svg" xmlns:xlink="http://www.w3.org/1999/xlink" width="210mm" height="297mm"><title>Asymmetrische Kraftzerlegung bei einer Straßenlaterne</title><defs><marker orient="auto" id="a" overflow="visible"><path d="M-4 0l-2 2 7-2-7-2 2 2z" fill-rule="evenodd" stroke="#000" stroke-width=".4pt"/></marker></defs><path style="marker:none" color="#000" fill="#fff" stroke="#fff" stroke-width="1.312" stroke-linecap="round" stroke-linejoin="bevel" overflow="visible" d="M20.156 324.079h703.782v404.204H20.156z"/><path d="M495.156 508.587a73.303 73.303 0 0 1 1.374 13.755" style="marker:none" color="#000" fill="none" stroke="#333" stroke-width=".9997267499999999" stroke-linecap="round" stroke-linejoin="round" overflow="visible"/><g color="#000" fill="gray" stroke="#1a1a1a" stroke-linecap="round" stroke-linejoin="bevel"><path style="marker:none" overflow="visible" d="M88.9 387.703h16.162v277.959H88.9zM640.444 387.703h16.162v277.959h-16.162z"/></g><path d="M105.062 508.016l182.497 36.33L639.032 509.2" fill="none" stroke="#000" stroke-width="3" stroke-linecap="round"/><g color="#000" stroke-linecap="round" stroke-linejoin="round"><path d="M291.704 544.346a4.145 4.145 0 1 1-8.29 0 4.145 4.145 0 0 1 8.29 0z" style="marker:none" fill="#b3b3b3" stroke="#000" stroke-width="1.5" overflow="visible"/><g transform="translate(-256.75 45.278)"><path transform="matrix(.69466 0 0 .8676 259.588 233.468)" d="M444.467 352.326c0 8.369-15.49 15.153-34.598 15.153-19.107 0-34.597-6.784-34.597-15.153h34.597z" style="marker:none" opacity=".5" fill="#fc0" stroke="#d4aa00" stroke-width="1.288" overflow="visible"/><rect ry="0" rx="0" y="499.068" x="511.503" height="22.038" width="65.61" style="marker:none" fill="#999" stroke="#1a1a1a" stroke-width="1.5" overflow="visible"/><path style="marker:none" d="M502.132 517.107h84.352l20 22.038H482.132z" fill="#999" stroke="#1a1a1a" stroke-width="1.5" overflow="visible"/></g></g><path d="M287.559 509.7v30.501" fill="none" stroke="#000" stroke-width=".9" stroke-linecap="round" stroke-dasharray=".90000001,2.70000001"/><g fill="#d40000" stroke="#d40000"><path d="M325.008 156.146H481.7" stroke-width="14.359" stroke-linecap="round" transform="matrix(0 .28589 -.49473 0 364.808 453.028)"/><path transform="matrix(.2525 0 0 .1459 466.112 358.617)" d="M-707.107 1620.068l-5.249-9.091-5.249-9.092h20.996l-5.249 9.091z" stroke-width="31.26"/></g><path style="marker:none" d="M434.855 660.572a66.583 66.583 0 0 1 .89 12.643" transform="rotate(135 605.492 676.518) scale(1.26854)" color="#000" fill="none" stroke="#000" stroke-width=".788" stroke-linecap="round" stroke-linejoin="round" marker-end="url(#a)" overflow="visible"/><path style="marker:none" d="M190.53 508.587a73.303 73.303 0 0 1-1.374 13.755" color="#000" fill="none" stroke="#333" stroke-width=".9997267499999999" stroke-linecap="round" stroke-linejoin="round" overflow="visible"/><g stroke="gray" fill="none" stroke-linecap="round" stroke-dasharray="1.00000001,3.00000002"><path d="M103.066 508.528h537.377M103.066 543.927h537.377"/></g><path transform="matrix(.897 .897 .897 -.897 -817.748 728.74)" d="M434.855 660.572a66.583 66.583 0 0 1 .89 12.643" style="marker:none" color="#000" fill="none" stroke="#000" stroke-width=".788" stroke-linecap="round" stroke-linejoin="round" marker-end="url(#a)" overflow="visible"/><g transform="matrix(5.29276 0 0 5.29276 -921.984 -59.793)" ns0:preamble="/home/waldgeist/data/sphinx/inkscape-preamble.tex" ns0:text="$\\vec{F}_{\\rm{G}}$" fill="#d40000" stroke="#d40000"><defs><symbol id="b" overflow="visible"><path d="M5.36-5.938c-.141.141-.47.422-.47.594 0 .094.094.203.188.203s.14-.078.203-.14c.11-.14.344-.422.782-.64.062-.048.171-.095.171-.204 0-.11-.078-.156-.14-.203a1.034 1.034 0 0 1-.407-.563c-.03-.093-.062-.234-.203-.234-.14 0-.203.14-.203.219 0 .047.078.36.235.578h-3.36c-.156 0-.344 0-.344.203 0 .188.188.188.344.188z" stroke="none"/></symbol><symbol id="c" overflow="visible"><path d="M3.016-3.234h.968c.75 0 .829.156.829.437 0 .078 0 .188-.063.5-.031.047-.031.078-.031.11 0 .078.062.109.11.109.109 0 .109-.031.155-.203l.547-2.172c.032-.11.032-.125.032-.156a.117.117 0 0 0-.125-.11c-.094 0-.11.047-.141.219-.219.766-.438.953-1.297.953h-.906l.64-2.531c.094-.36.11-.39.547-.39h1.313c1.218 0 1.453.327 1.453 1.093 0 .234 0 .266-.031.547C7-4.703 7-4.688 7-4.656c0 .047.031.125.125.125.11 0 .11-.063.125-.25l.203-1.735c.031-.265-.016-.265-.266-.265h-4.89c-.188 0-.297 0-.297.203 0 .11.094.11.281.11.375 0 .656 0 .656.171 0 .047 0 .063-.062.25L1.562-.78c-.093.39-.109.469-.906.469-.172 0-.281 0-.281.187C.375 0 .5 0 .531 0c.281 0 1.031-.031 1.313-.031C2.172-.031 3 0 3.328 0c.094 0 .203 0 .203-.188 0-.078-.047-.109-.047-.109-.03-.016-.062-.016-.28-.016-.22 0-.267 0-.517-.015-.296-.031-.328-.078-.328-.203 0-.016 0-.078.047-.219z" stroke="none"/></symbol><symbol id="d" overflow="visible"><path d="M5.188-1.36c0-.312.078-.312.546-.312v-.25c-.062 0-.562.031-.906.031-.375 0-.89 0-1.266-.03v.25h.266c.703 0 .703.093.703.312v.453c0 .156 0 .422-.406.625-.328.172-.719.172-.813.172-.796 0-2.078-.454-2.078-2.282 0-1.843 1.329-2.25 2.016-2.25.672 0 1.516.454 1.688 1.657.015.078.078.078.125.078.125 0 .125-.047.125-.188v-1.625c0-.125 0-.187-.094-.187-.032 0-.063 0-.125.093l-.36.532a1.994 1.994 0 0 0-1.453-.625C1.703-4.906.484-3.781.484-2.391.484-1 1.672.141 3.172.141c.39 0 1.156-.078 1.484-.563.125.188.375.422.453.422.079 0 .079-.078.079-.188z" stroke="none"/></symbol></defs><use y="132.246" x="224.901" xlink:href="#b" width="744.094" height="1052.362"/><use y="134.765" x="223.432" xlink:href="#c" width="744.094" height="1052.362"/><use y="136.259" x="229.839" xlink:href="#d" width="744.094" height="1052.362"/></g><g transform="matrix(3.45797 0 0 3.45797 -320.595 23.966)" ns0:text="$l_{\\rm{2}}$" fill="#d40000" stroke="#d40000" stroke-width="1.378"><defs><symbol id="e" overflow="visible"><path d="M2.578-6.813s0-.109-.14-.109c-.22 0-.954.078-1.22.11-.077 0-.187.015-.187.203 0 .109.11.109.25.109.485 0 .5.094.5.172l-.031.203L.484-1.141a.973.973 0 0 0-.046.329.89.89 0 0 0 .906.921c.328 0 .578-.203.75-.562.172-.375.297-.953.297-.969 0-.11-.094-.11-.125-.11-.094 0-.11.048-.125.188-.172.64-.36 1.235-.766 1.235-.297 0-.297-.313-.297-.454 0-.25.016-.296.063-.484zm0 0" stroke="none"/></symbol><symbol id="f" overflow="visible"><path d="M3.516-1.266H3.28c-.015.157-.094.563-.187.625-.047.047-.578.047-.688.047H1.125c.734-.64.984-.844 1.39-1.172.516-.406 1-.843 1-1.5 0-.843-.734-1.359-1.624-1.359-.86 0-1.454.61-1.454 1.25 0 .344.297.39.376.39.156 0 .359-.124.359-.374 0-.125-.047-.375-.406-.375.218-.485.687-.641 1.015-.641.703 0 1.063.547 1.063 1.11 0 .609-.438 1.078-.656 1.328L.516-.266C.437-.203.437-.187.437 0h2.876zm0 0" stroke="none"/></symbol></defs><g fill="#000"><use y="134.765" x="223.432" xlink:href="#e" width="744.094" height="1052.362"/><use y="136.259" x="226.405" xlink:href="#f" width="744.094" height="1052.362"/></g></g><g ns0:text="$l_{\\rm{1}}$" transform="matrix(3.45797 0 0 3.45797 -587.907 23.966)" fill="#d40000" stroke="#d40000" stroke-width="1.378"><defs><symbol overflow="visible" id="g"><path d="M2.578-6.813s0-.109-.14-.109c-.22 0-.954.078-1.22.11-.077 0-.187.015-.187.203 0 .109.11.109.25.109.485 0 .5.094.5.172l-.031.203L.484-1.141a.973.973 0 0 0-.046.329.89.89 0 0 0 .906.921c.328 0 .578-.203.75-.562.172-.375.297-.953.297-.969 0-.11-.094-.11-.125-.11-.094 0-.11.048-.125.188-.172.64-.36 1.235-.766 1.235-.297 0-.297-.313-.297-.454 0-.25.016-.296.063-.484zm0 0" stroke="none"/></symbol><symbol overflow="visible" id="h"><path d="M2.328-4.438c0-.187 0-.187-.203-.187-.453.438-1.078.438-1.36.438v.25c.157 0 .626 0 1-.188v3.547c0 .234 0 .328-.687.328H.812V0c.125 0 .985-.031 1.235-.031.219 0 1.094.031 1.25.031v-.25H3.03c-.703 0-.703-.094-.703-.328zm0 0" stroke="none"/></symbol></defs><g fill="#000"><use height="1052.362" width="744.094" xlink:href="#g" x="223.432" y="134.765"/><use height="1052.362" width="744.094" xlink:href="#h" x="226.405" y="136.259"/></g></g><g transform="matrix(4.25 0 0 4.25 -817.163 -12.106)" ns0:preamble="/home/waldgeist/data/sphinx/inkscape-preamble.tex" ns0:text="$\\beta$" fill="#d40000" stroke="#d40000" stroke-width="1.245"><defs><symbol id="i" overflow="visible"><path d="M5.734-5.672c0-.75-.546-1.36-1.359-1.36-.578 0-.86.157-1.203.407C2.625-6.219 2.078-5.25 1.89-4.5L.297 1.828c0 .047.047.11.125.11s.11-.032.11-.047l.702-2.766c.188.61.625.969 1.36.969.719 0 1.469-.344 1.922-.781a2.486 2.486 0 0 0 .796-1.829c0-.718-.375-1.25-.734-1.484.578-.344 1.156-.953 1.156-1.672zM3.938-4.016c-.126.047-.235.063-.485.063-.14 0-.328.015-.437-.031.03-.11.39-.079.5-.079.203 0 .296 0 .421.047zm1.234-1.89c0 .703-.375 1.422-.89 1.734-.282-.11-.47-.125-.766-.125-.22 0-.782-.016-.782.313 0 .28.516.25.688.25.375 0 .531 0 .828-.125.375.359.422.671.438 1.125.015.578-.22 1.328-.5 1.718-.391.532-1.063.891-1.625.891-.766 0-1.141-.578-1.141-1.281 0-.094 0-.25.047-.438l.64-2.515c.22-.86.938-2.454 2.141-2.454.578 0 .922.313.922.907zm0 0" stroke="none"/></symbol></defs><use y="134.765" x="223.432" xlink:href="#i" width="744.094" height="1052.362" fill="#000"/></g><g ns0:text="$\\alpha$" ns0:preamble="/home/waldgeist/data/sphinx/inkscape-preamble.tex" transform="matrix(4.25 0 0 4.25 -418.698 -77.8)" fill="#d40000" stroke="#d40000" stroke-width="1.245"><defs><symbol overflow="visible" id="j"><path d="M4.75-2.36c0-1.562-.922-2.046-1.656-2.046-1.375 0-2.688 1.422-2.688 2.828C.406-.641 1 .109 2.031.109c.625 0 1.344-.234 2.094-.843.125.53.453.843.906.843.532 0 .844-.546.844-.703 0-.078-.063-.11-.125-.11-.063 0-.094.032-.125.11-.188.485-.547.485-.563.485-.312 0-.312-.782-.312-1.016 0-.203 0-.234.11-.344C5.796-2.656 6-3.812 6-3.812c0-.032-.016-.11-.125-.11-.094 0-.094.031-.14.219-.188.625-.516 1.375-.985 1.969zM4.094-.983c-.89.765-1.657.875-2.047.875-.594 0-.906-.454-.906-1.094 0-.484.265-1.563.578-2.063.468-.734 1.015-.921 1.36-.921.983 0 .983 1.312.983 2.078 0 .375 0 .953.032 1.125zm0 0" stroke="none"/></symbol></defs><use height="1052.362" width="744.094" xlink:href="#j" x="223.432" y="134.765" fill="#000" transform="translate(0 14.118)"/></g><g transform="matrix(3.45797 0 0 3.45797 -100.42 68.92)" ns0:preamble="/home/waldgeist/data/sphinx/inkscape-preamble.tex" ns0:text="$h$" fill="#d40000" stroke="#d40000" stroke-width="1.378"><defs><symbol id="k" overflow="visible"><path d="M2.86-6.813s0-.109-.126-.109c-.234 0-.953.078-1.218.11-.079 0-.188.015-.188.187 0 .125.094.125.234.125.485 0 .5.063.5.172l-.03.203L.593-.391C.547-.25.547-.234.547-.17c0 .234.203.28.297.28a.407.407 0 0 0 .36-.265l.187-.75.218-.89c.063-.235.125-.454.172-.673.016-.062.11-.39.11-.453.03-.094.343-.64.687-.922.219-.156.516-.344.953-.344.422 0 .531.344.531.704 0 .53-.375 1.625-.609 2.234-.078.219-.14.344-.14.547 0 .469.359.812.828.812.937 0 1.296-1.453 1.296-1.53 0-.11-.078-.11-.109-.11-.11 0-.11.031-.156.187-.14.532-.469 1.235-1.016 1.235-.172 0-.234-.094-.234-.329 0-.25.078-.484.172-.703.156-.437.61-1.625.61-2.203 0-.64-.391-1.062-1.141-1.062-.626 0-1.11.312-1.485.765zm0 0" stroke="none"/></symbol></defs><use y="134.765" x="223.432" xlink:href="#k" width="744.094" height="1052.362" fill="#000"/></g><g fill="none" stroke="#000" stroke-width=".9" stroke-linecap="round" stroke-dasharray=".9000001,2.70000028"><path d="M664.047 508.607v35.148M80.047 508.607v35.148"/></g><use height="1052.362" width="744.094" xlink:href="#k" x="223.432" y="134.765" fill="#000" transform="matrix(3.45797 0 0 3.45797 -721.42 68.92)" ns0:text="$h$" ns0:preamble="/home/waldgeist/data/sphinx/inkscape-preamble.tex" stroke="#d40000" stroke-width="1.378"/></svg>