<?xml version="1.0" encoding="UTF-8" standalone="no"?>
<!-- Created with Inkscape (http://www.inkscape.org/) -->

<svg
   xmlns:ns0="http://www.iki.fi/pav/software/textext/"
   xmlns:dc="http://purl.org/dc/elements/1.1/"
   xmlns:cc="http://creativecommons.org/ns#"
   xmlns:rdf="http://www.w3.org/1999/02/22-rdf-syntax-ns#"
   xmlns:svg="http://www.w3.org/2000/svg"
   xmlns="http://www.w3.org/2000/svg"
   xmlns:xlink="http://www.w3.org/1999/xlink"
   xmlns:sodipodi="http://sodipodi.sourceforge.net/DTD/sodipodi-0.dtd"
   xmlns:inkscape="http://www.inkscape.org/namespaces/inkscape"
   width="210mm"
   height="297mm"
   id="svg21881"
   version="1.1"
   inkscape:version="0.48.4 r9939"
   sodipodi:docname="kraftzerlegung-strassenlampe-asymmetrisch-aufgabe.svg">
  <sodipodi:namedview
     id="base"
     pagecolor="#ffffff"
     bordercolor="#666666"
     borderopacity="1.0"
     inkscape:pageopacity="0.0"
     inkscape:pageshadow="2"
     inkscape:zoom="0.95507812"
     inkscape:cx="196.68212"
     inkscape:cy="462.92941"
     inkscape:document-units="px"
     inkscape:current-layer="g45919"
     showgrid="false"
     inkscape:object-paths="true"
     inkscape:object-nodes="true"
     inkscape:snap-smooth-nodes="true"
     inkscape:snap-midpoints="true"
     inkscape:snap-object-midpoints="true"
     inkscape:snap-center="true"
     inkscape:snap-page="true"
     inkscape:snap-global="true"
     inkscape:window-width="1600"
     inkscape:window-height="1150"
     inkscape:window-x="0"
     inkscape:window-y="0"
     inkscape:window-maximized="1"
     showguides="false"
     inkscape:guide-bbox="true">
    <sodipodi:guide
       orientation="1,0"
       position="372.04721,386.68652"
       id="guide29380" />
    <inkscape:grid
       type="xygrid"
       id="grid29437" />
    <sodipodi:guide
       id="guide3974"
       position="286.85323,503.71605"
       orientation="0.19611618,0.98058067" />
    <sodipodi:guide
       id="guide3978"
       position="351,528.94095"
       orientation="0,1" />
    <sodipodi:guide
       id="guide4033"
       position="286.85323,503.71604"
       orientation="0.099510785,-0.99503648" />
    <sodipodi:guide
       id="guide7882"
       position="413.03394,565.55678"
       orientation="0.099510785,-0.99503648" />
    <sodipodi:guide
       id="guide7890"
       position="152.77703,579.62999"
       orientation="0.19524415,0.98075467" />
    <sodipodi:guide
       id="guide7892"
       position="122.78467,536.52977"
       orientation="0,1" />
  </sodipodi:namedview>
  <title
     id="title7038">Asymmetrische Kraftzerlegung bei einer Straßenlaterne</title>
  <defs
     id="defs21883">
    <inkscape:path-effect
       effect="spiro"
       id="path-effect7011"
       is_visible="true" />
    <marker
       inkscape:stockid="Arrow1Mend"
       orient="auto"
       refY="0"
       refX="0"
       id="Arrow1Mend"
       style="overflow:visible">
      <path
         id="path23236"
         d="M 0,0 5,-5 -12.5,0 5,5 0,0 z"
         style="fill-rule:evenodd;stroke:#000000;stroke-width:1pt"
         transform="matrix(-0.4,0,0,-0.4,-4,0)"
         inkscape:connector-curvature="0" />
    </marker>
  </defs>
  <metadata
     id="metadata21886">
    <rdf:RDF>
      <cc:Work
         rdf:about="">
        <dc:format>image/svg+xml</dc:format>
        <dc:type
           rdf:resource="http://purl.org/dc/dcmitype/StillImage" />
        <dc:title>Asymmetrische Kraftzerlegung bei einer Straßenlaterne</dc:title>
        <cc:license
           rdf:resource="http://creativecommons.org/licenses/by-nc-sa/3.0/" />
        <dc:date>2013-08-09</dc:date>
        <dc:creator>
          <cc:Agent>
            <dc:title>Bernhard Grotz</dc:title>
          </cc:Agent>
        </dc:creator>
        <dc:rights>
          <cc:Agent>
            <dc:title>Bernhard Grotz</dc:title>
          </cc:Agent>
        </dc:rights>
        <dc:publisher>
          <cc:Agent>
            <dc:title>Bernhard Grotz</dc:title>
          </cc:Agent>
        </dc:publisher>
        <dc:language>de_DE</dc:language>
        <dc:subject>
          <rdf:Bag>
            <rdf:li>Physik</rdf:li>
            <rdf:li>Mechanik</rdf:li>
            <rdf:li>Dynamik</rdf:li>
            <rdf:li>Kraftzerlegung</rdf:li>
          </rdf:Bag>
        </dc:subject>
      </cc:Work>
      <cc:License
         rdf:about="http://creativecommons.org/licenses/by-nc-sa/3.0/">
        <cc:permits
           rdf:resource="http://creativecommons.org/ns#Reproduction" />
        <cc:permits
           rdf:resource="http://creativecommons.org/ns#Distribution" />
        <cc:requires
           rdf:resource="http://creativecommons.org/ns#Notice" />
        <cc:requires
           rdf:resource="http://creativecommons.org/ns#Attribution" />
        <cc:prohibits
           rdf:resource="http://creativecommons.org/ns#CommercialUse" />
        <cc:permits
           rdf:resource="http://creativecommons.org/ns#DerivativeWorks" />
        <cc:requires
           rdf:resource="http://creativecommons.org/ns#ShareAlike" />
      </cc:License>
    </rdf:RDF>
  </metadata>
  <g
     inkscape:label="Ebene 1"
     inkscape:groupmode="layer"
     id="layer1">
    <rect
       inkscape:export-ydpi="150"
       inkscape:export-xdpi="150"
       inkscape:export-filename="/home/waldgeist/data/homepage/pics/physik/mechanik/dynamik/kraftzerlegung-strassenlampe-asymmetrisch-aufgabe.png"
       style="color:#000000;fill:#ffffff;fill-opacity:1;fill-rule:nonzero;stroke:#ffffff;stroke-width:1.31226254;stroke-linecap:round;stroke-linejoin:bevel;stroke-miterlimit:4;stroke-opacity:1;stroke-dasharray:none;stroke-dashoffset:0;marker:none;visibility:visible;display:inline;overflow:visible;enable-background:accumulate"
       id="rect29149"
       width="703.78223"
       height="404.20407"
       x="20.156128"
       y="324.07904" />
    <path
       transform="matrix(1.0494432,-0.60589629,-0.60589629,-1.0494432,244.87067,1203.6164)"
       d="m 465.64708,393.44237 a 60.491261,60.491261 0 0 1 -4.69335,-10.39706"
       sodipodi:ry="60.491261"
       sodipodi:rx="60.491261"
       sodipodi:cy="363.46655"
       sodipodi:cx="518.1889"
       id="path6321"
       style="color:#000000;fill:none;stroke:#333333;stroke-width:0.82522368;stroke-linecap:round;stroke-linejoin:round;stroke-miterlimit:4;stroke-opacity:1;stroke-dasharray:none;stroke-dashoffset:0;marker:none;visibility:visible;display:inline;overflow:visible;enable-background:accumulate"
       sodipodi:type="arc"
       inkscape:export-filename="/home/waldgeist/data/homepage/pics/physik/mechanik/dynamik/kraftzerlegung-strassenlampe-asymmetrisch-aufgabe.png"
       inkscape:export-xdpi="150"
       inkscape:export-ydpi="150"
       sodipodi:start="2.6231367"
       sodipodi:end="2.8119948"
       sodipodi:open="true" />
    <g
       transform="translate(0.70560074,44.922898)"
       id="g7884"
       inkscape:export-filename="/home/waldgeist/data/homepage/pics/physik/mechanik/dynamik/kraftzerlegung-strassenlampe-asymmetrisch-aufgabe.png"
       inkscape:export-xdpi="150"
       inkscape:export-ydpi="150">
      <rect
         y="342.77966"
         x="88.194374"
         height="277.95892"
         width="16.162441"
         id="rect29347"
         style="opacity:1;color:#000000;fill:#808080;fill-opacity:1;fill-rule:nonzero;stroke:#1a1a1a;stroke-width:1;stroke-linecap:round;stroke-linejoin:bevel;stroke-miterlimit:4;stroke-opacity:1;stroke-dasharray:none;stroke-dashoffset:0;marker:none;visibility:visible;display:inline;overflow:visible;enable-background:accumulate"
         inkscape:export-filename="/home/waldgeist/data/homepage/pics/physik/mechanik/dynamik/kraftzerlegung-strassenlampe-loesung.png"
         inkscape:export-xdpi="150"
         inkscape:export-ydpi="150" />
      <rect
         inkscape:export-ydpi="150"
         inkscape:export-xdpi="150"
         inkscape:export-filename="/home/waldgeist/data/homepage/pics/physik/mechanik/dynamik/kraftzerlegung-strassenlampe-loesung.png"
         style="opacity:1;color:#000000;fill:#808080;fill-opacity:1;fill-rule:nonzero;stroke:#1a1a1a;stroke-width:1;stroke-linecap:round;stroke-linejoin:bevel;stroke-miterlimit:4;stroke-opacity:1;stroke-dasharray:none;stroke-dashoffset:0;marker:none;visibility:visible;display:inline;overflow:visible;enable-background:accumulate"
         id="rect3152"
         width="16.162441"
         height="277.95892"
         x="639.73767"
         y="342.77966" />
    </g>
    <path
       inkscape:connector-curvature="0"
       id="path3928"
       d="m 105.06242,508.01582 182.49642,36.33055 351.47322,-35.14732"
       style="fill:none;stroke:#000000;stroke-width:3;stroke-linecap:round;stroke-linejoin:miter;stroke-opacity:1"
       sodipodi:nodetypes="ccc"
       inkscape:export-filename="/home/waldgeist/data/homepage/pics/physik/mechanik/dynamik/kraftzerlegung-strassenlampe-asymmetrisch-aufgabe.png"
       inkscape:export-xdpi="150"
       inkscape:export-ydpi="150" />
    <g
       id="g45919"
       transform="translate(-84.488393,70.882868)"
       inkscape:export-filename="/home/waldgeist/data/homepage/pics/physik/mechanik/dynamik/kraftzerlegung-strassenlampe-asymmetrisch-aufgabe.png"
       inkscape:export-xdpi="150"
       inkscape:export-ydpi="150">
      <path
         transform="translate(135.54095,63.351504)"
         d="m 240.65136,410.112 c 0,2.28926 -1.85581,4.14508 -4.14507,4.14508 -2.28927,0 -4.14508,-1.85582 -4.14508,-4.14508 0,-2.28926 1.85581,-4.14508 4.14508,-4.14508 2.28926,0 4.14507,1.85582 4.14507,4.14508 z"
         sodipodi:ry="4.1450777"
         sodipodi:rx="4.1450777"
         sodipodi:cy="410.112"
         sodipodi:cx="236.50629"
         id="path45917"
         style="color:#000000;fill:#b3b3b3;stroke:#000000;stroke-width:1.5;stroke-linecap:round;stroke-linejoin:round;stroke-miterlimit:4;stroke-opacity:1;stroke-dasharray:none;stroke-dashoffset:0;marker:none;visibility:visible;display:inline;overflow:visible;enable-background:accumulate"
         sodipodi:type="arc"
         inkscape:export-filename="/home/waldgeist/data/homepage/pics/physik/mechanik/dynamik/kraftzerlegung-strassenlampe-asymmetrisch-aufgabe.png"
         inkscape:export-xdpi="150"
         inkscape:export-ydpi="150" />
      <g
         transform="translate(-172.26067,-25.604825)"
         id="g45910"
         inkscape:export-filename="/home/waldgeist/data/homepage/pics/physik/mechanik/dynamik/kraftzerlegung-strassenlampe-asymmetrisch-aufgabe.png"
         inkscape:export-xdpi="150"
         inkscape:export-ydpi="150">
        <path
           transform="matrix(0.69466026,0,0,0.86759453,259.58792,233.46842)"
           sodipodi:end="3.1415927"
           sodipodi:start="0"
           d="m 444.46712,352.32648 c 0,8.36837 -15.48994,15.15228 -34.59774,15.15228 -19.1078,0 -34.59773,-6.78391 -34.59773,-15.15228 0,0 0,0 0,0 l 34.59773,0 z"
           sodipodi:ry="15.152284"
           sodipodi:rx="34.597733"
           sodipodi:cy="352.32648"
           sodipodi:cx="409.86938"
           id="path3158-8"
           style="opacity:0.5;color:#000000;fill:#ffcc00;fill-opacity:1;fill-rule:nonzero;stroke:#d4aa00;stroke-width:1.28811717;stroke-linecap:round;stroke-linejoin:round;stroke-miterlimit:4;stroke-opacity:1;stroke-dasharray:none;stroke-dashoffset:0;marker:none;visibility:visible;display:inline;overflow:visible;enable-background:accumulate"
           sodipodi:type="arc"
           inkscape:export-filename="/home/waldgeist/data/pics/physik/Own/mechanik/dynamik/kraftzerlegung-strassenlampe.png"
           inkscape:export-xdpi="150"
           inkscape:export-ydpi="150" />
        <rect
           ry="0"
           rx="0"
           y="499.06833"
           x="511.5029"
           height="22.038307"
           width="65.609985"
           id="rect3156-5"
           style="color:#000000;fill:#999999;fill-opacity:1;fill-rule:nonzero;stroke:#1a1a1a;stroke-width:1.5;stroke-linecap:round;stroke-linejoin:round;stroke-miterlimit:4;stroke-opacity:1;stroke-dasharray:none;stroke-dashoffset:0;marker:none;visibility:visible;display:inline;overflow:visible;enable-background:accumulate"
           inkscape:export-filename="/home/waldgeist/data/pics/physik/Own/mechanik/dynamik/kraftzerlegung-strassenlampe.png"
           inkscape:export-xdpi="150"
           inkscape:export-ydpi="150" />
        <path
           style="color:#000000;fill:#999999;fill-opacity:1;fill-rule:nonzero;stroke:#1a1a1a;stroke-width:1.5;stroke-linecap:round;stroke-linejoin:round;stroke-miterlimit:4;stroke-opacity:1;stroke-dashoffset:0;marker:none;visibility:visible;display:inline;overflow:visible;enable-background:accumulate"
           d="m 502.13208,517.10663 84.35166,0 20,22.03831 -124.35166,0 z"
           id="rect45907"
           inkscape:connector-curvature="0"
           sodipodi:nodetypes="ccccc" />
      </g>
    </g>
    <path
       inkscape:connector-curvature="0"
       id="path8039"
       d="m 287.55883,509.70072 0,30.50058"
       style="fill:none;stroke:#000000;stroke-width:0.90000004;stroke-linecap:round;stroke-linejoin:miter;stroke-miterlimit:4;stroke-opacity:1;stroke-dasharray:0.90000001, 2.70000001;stroke-dashoffset:0"
       inkscape:export-filename="/home/waldgeist/data/homepage/pics/physik/mechanik/dynamik/kraftzerlegung-strassenlampe-asymmetrisch-aufgabe.png"
       inkscape:export-xdpi="150"
       inkscape:export-ydpi="150" />
    <g
       inkscape:transform-center-y="46.510108"
       inkscape:transform-center-x="-0.41157755"
       transform="matrix(0.24736296,0.24758475,0.42844523,-0.14294312,-35.393157,559.70763)"
       id="g4862"
       inkscape:export-filename="/home/waldgeist/data/homepage/pics/physik/mechanik/dynamik/kraftzerlegung-strassenlampe-asymmetrisch-aufgabe.png"
       inkscape:export-xdpi="150"
       inkscape:export-ydpi="150">
      <g
         id="g4864"
         inkscape:transform-center-x="-149.52172"
         transform="matrix(0.86602541,-0.50000001,0.50000001,0.86602541,-82.188915,433.8815)"
         inkscape:transform-center-y="-86.327536">
        <g
           id="g4866"
           transform="matrix(1,0,0,-1,-85.03402,474.27777)">
          <path
             sodipodi:nodetypes="cc"
             style="fill:#d40000;stroke:#d40000;stroke-width:14.35868931;stroke-linecap:round;stroke-linejoin:miter;stroke-miterlimit:4;stroke-opacity:1;stroke-dasharray:none"
             d="m 325.00766,156.14604 c 81.58266,0 77.55724,0 156.6932,0"
             id="path4868"
             inkscape:connector-curvature="0" />
          <path
             inkscape:transform-center-x="-3.0302635"
             transform="matrix(1.645499e-5,-0.5103719,0.5103719,1.645499e-5,-330.24178,-204.76773)"
             inkscape:transform-center-y="-0.00017641075"
             d="m -707.10675,1620.0679 -5.24891,-9.0914 -5.2489,-9.0914 10.49781,0 10.49781,0 -5.2489,9.0914 z"
             inkscape:randomized="0"
             inkscape:rounded="0"
             inkscape:flatsided="false"
             sodipodi:arg2="2.6179939"
             sodipodi:arg1="1.5707963"
             sodipodi:r2="6.060915"
             sodipodi:r1="12.121831"
             sodipodi:cy="1607.946"
             sodipodi:cx="-707.10675"
             sodipodi:sides="3"
             id="path4870"
             style="fill:#d40000;stroke:#d40000;stroke-width:31.25975227;stroke-miterlimit:4;stroke-dasharray:none"
             sodipodi:type="star" />
        </g>
      </g>
    </g>
    <path
       inkscape:export-ydpi="150"
       inkscape:export-xdpi="150"
       inkscape:export-filename="/home/waldgeist/data/homepage/pics/physik/mechanik/dynamik/kraftzerlegung-strassenlampe-asymmetrisch-aufgabe.png"
       sodipodi:type="arc"
       style="color:#000000;fill:none;stroke:#000000;stroke-width:0.78830904;stroke-linecap:round;stroke-linejoin:round;stroke-miterlimit:4;stroke-opacity:1;stroke-dasharray:none;stroke-dashoffset:0;marker:none;marker-end:url(#Arrow1Mend);visibility:visible;display:inline;overflow:visible;enable-background:accumulate"
       id="path6323"
       sodipodi:cx="369.18341"
       sodipodi:cy="671.55096"
       sodipodi:rx="66.583138"
       sodipodi:ry="66.583138"
       d="m 434.85517,660.57213 a 66.583138,66.583138 0 0 1 0.89058,12.64303"
       transform="matrix(-0.89699171,0.89699174,-0.89699174,-0.89699171,1512.0093,726.74072)"
       sodipodi:start="6.1175397"
       sodipodi:end="6.3081822"
       sodipodi:open="true"
       inkscape:transform-center-x="-55.154352"
       inkscape:transform-center-y="-25.809411" />
    <path
       sodipodi:open="true"
       sodipodi:end="2.8119948"
       sodipodi:start="2.6231367"
       inkscape:export-ydpi="150"
       inkscape:export-xdpi="150"
       inkscape:export-filename="/home/waldgeist/data/homepage/pics/physik/mechanik/dynamik/kraftzerlegung-strassenlampe-asymmetrisch-aufgabe.png"
       sodipodi:type="arc"
       style="color:#000000;fill:none;stroke:#333333;stroke-width:0.82522368;stroke-linecap:round;stroke-linejoin:round;stroke-miterlimit:4;stroke-opacity:1;stroke-dasharray:none;stroke-dashoffset:0;marker:none;visibility:visible;display:inline;overflow:visible;enable-background:accumulate"
       id="path7086"
       sodipodi:cx="518.1889"
       sodipodi:cy="363.46655"
       sodipodi:rx="60.491261"
       sodipodi:ry="60.491261"
       d="m 465.64708,393.44237 a 60.491261,60.491261 0 0 1 -4.69335,-10.39706"
       transform="matrix(-1.0494432,-0.60589629,0.60589629,-1.0494432,440.81459,1203.6164)" />
    <g
       transform="translate(0.70560074,0.50093079)"
       style="stroke:#808080"
       id="g8043"
       inkscape:export-filename="/home/waldgeist/data/homepage/pics/physik/mechanik/dynamik/kraftzerlegung-strassenlampe-asymmetrisch-aufgabe.png"
       inkscape:export-xdpi="150"
       inkscape:export-ydpi="150">
      <path
         inkscape:connector-curvature="0"
         id="path18127"
         d="m 102.36055,508.02678 537.37714,0"
         style="fill:none;stroke:#808080;stroke-width:1;stroke-linecap:round;stroke-linejoin:miter;stroke-miterlimit:4;stroke-opacity:1;stroke-dasharray:1.00000001, 3.00000002;stroke-dashoffset:0"
         inkscape:export-filename="/home/waldgeist/data/homepage/pics/physik/mechanik/dynamik/kraftzerlegung-strassenlampe-loesung.png"
         inkscape:export-xdpi="150"
         inkscape:export-ydpi="150" />
      <path
         inkscape:export-ydpi="150"
         inkscape:export-xdpi="150"
         inkscape:export-filename="/home/waldgeist/data/homepage/pics/physik/mechanik/dynamik/kraftzerlegung-strassenlampe-loesung.png"
         style="fill:none;stroke:#808080;stroke-width:1;stroke-linecap:round;stroke-linejoin:miter;stroke-miterlimit:4;stroke-opacity:1;stroke-dasharray:1.00000001, 3.00000002;stroke-dashoffset:0"
         d="m 102.36055,543.42585 537.37714,0"
         id="path8041"
         inkscape:connector-curvature="0" />
    </g>
    <path
       inkscape:transform-center-y="-25.809411"
       inkscape:transform-center-x="55.154356"
       sodipodi:open="true"
       sodipodi:end="6.3081822"
       sodipodi:start="6.1175397"
       transform="matrix(0.89699171,0.89699174,0.89699174,-0.89699171,-817.7479,728.74072)"
       d="m 434.85517,660.57213 a 66.583138,66.583138 0 0 1 0.89058,12.64303"
       sodipodi:ry="66.583138"
       sodipodi:rx="66.583138"
       sodipodi:cy="671.55096"
       sodipodi:cx="369.18341"
       id="path7088"
       style="color:#000000;fill:none;stroke:#000000;stroke-width:0.78830904;stroke-linecap:round;stroke-linejoin:round;stroke-miterlimit:4;stroke-opacity:1;stroke-dasharray:none;stroke-dashoffset:0;marker:none;marker-end:url(#Arrow1Mend);visibility:visible;display:inline;overflow:visible;enable-background:accumulate"
       sodipodi:type="arc"
       inkscape:export-filename="/home/waldgeist/data/homepage/pics/physik/mechanik/dynamik/kraftzerlegung-strassenlampe-asymmetrisch-aufgabe.png"
       inkscape:export-xdpi="150"
       inkscape:export-ydpi="150" />
    <g
       id="g3950"
       style="fill:#d40000;fill-opacity:1;stroke:#d40000;stroke-width:1;stroke-opacity:1"
       transform="matrix(5.2927626,0,0,5.2927626,-921.98409,-59.793162)"
       ns0:preamble="/home/waldgeist/data/sphinx/inkscape-preamble.tex"
       ns0:text="$\\vec{F}_{\\rm{G}}$"
       inkscape:export-filename="/home/waldgeist/data/homepage/pics/physik/mechanik/dynamik/kraftzerlegung-strassenlampe-asymmetrisch-aufgabe.png"
       inkscape:export-xdpi="150"
       inkscape:export-ydpi="150">
      <defs
         id="defs3952">
        <g
           id="g3954">
          <symbol
             id="textext-eb01c7c8-0"
             overflow="visible"
             style="overflow:visible">
            <path
               id="path3957"
               d=""
               style="stroke:none"
               inkscape:connector-curvature="0" />
          </symbol>
          <symbol
             id="textext-eb01c7c8-1"
             overflow="visible"
             style="overflow:visible">
            <path
               id="path3960"
               d="m 5.359375,-5.9375 c -0.140625,0.140625 -0.46875,0.421875 -0.46875,0.59375 0,0.09375 0.09375,0.203125 0.1875,0.203125 0.09375,0 0.140625,-0.078125 0.203125,-0.140625 C 5.390625,-5.421875 5.625,-5.703125 6.0625,-5.921875 6.125,-5.96875 6.234375,-6.015625 6.234375,-6.125 6.234375,-6.234375 6.15625,-6.28125 6.09375,-6.328125 5.875,-6.484375 5.765625,-6.65625 5.6875,-6.890625 5.65625,-6.984375 5.625,-7.125 5.484375,-7.125 c -0.140625,0 -0.203125,0.140625 -0.203125,0.21875 0,0.046875 0.078125,0.359375 0.234375,0.578125 l -3.359375,0 c -0.15625,0 -0.34375,0 -0.34375,0.203125 0,0.1875 0.1875,0.1875 0.34375,0.1875 z"
               style="stroke:none"
               inkscape:connector-curvature="0" />
          </symbol>
          <symbol
             id="textext-eb01c7c8-2"
             overflow="visible"
             style="overflow:visible">
            <path
               id="path3963"
               d="m 3.015625,-3.234375 0.96875,0 c 0.75,0 0.828125,0.15625 0.828125,0.4375 0,0.078125 0,0.1875 -0.0625,0.5 C 4.71875,-2.25 4.71875,-2.21875 4.71875,-2.1875 c 0,0.078125 0.0625,0.109375 0.109375,0.109375 0.109375,0 0.109375,-0.03125 0.15625,-0.203125 L 5.53125,-4.453125 C 5.5625,-4.5625 5.5625,-4.578125 5.5625,-4.609375 5.5625,-4.625 5.546875,-4.71875 5.4375,-4.71875 5.34375,-4.71875 5.328125,-4.671875 5.296875,-4.5 5.078125,-3.734375 4.859375,-3.546875 4,-3.546875 l -0.90625,0 0.640625,-2.53125 C 3.828125,-6.4375 3.84375,-6.46875 4.28125,-6.46875 l 1.3125,0 c 1.21875,0 1.453125,0.328125 1.453125,1.09375 0,0.234375 0,0.265625 -0.03125,0.546875 C 7,-4.703125 7,-4.6875 7,-4.65625 c 0,0.046875 0.03125,0.125 0.125,0.125 0.109375,0 0.109375,-0.0625 0.125,-0.25 L 7.453125,-6.515625 C 7.484375,-6.78125 7.4375,-6.78125 7.1875,-6.78125 l -4.890625,0 c -0.1875,0 -0.296875,0 -0.296875,0.203125 0,0.109375 0.09375,0.109375 0.28125,0.109375 0.375,0 0.65625,0 0.65625,0.171875 0,0.046875 0,0.0625 -0.0625,0.25 L 1.5625,-0.78125 c -0.09375,0.390625 -0.109375,0.46875 -0.90625,0.46875 -0.171875,0 -0.28125,0 -0.28125,0.1875 C 0.375,0 0.5,0 0.53125,0 0.8125,0 1.5625,-0.03125 1.84375,-0.03125 2.171875,-0.03125 3,0 3.328125,0 3.421875,0 3.53125,0 3.53125,-0.1875 3.53125,-0.265625 3.484375,-0.296875 3.484375,-0.296875 3.453125,-0.3125 3.421875,-0.3125 3.203125,-0.3125 c -0.21875,0 -0.265625,0 -0.515625,-0.015625 -0.296875,-0.03125 -0.328125,-0.078125 -0.328125,-0.203125 0,-0.015625 0,-0.078125 0.046875,-0.21875 z"
               style="stroke:none"
               inkscape:connector-curvature="0" />
          </symbol>
          <symbol
             id="textext-eb01c7c8-3"
             overflow="visible"
             style="overflow:visible">
            <path
               id="path3966"
               d=""
               style="stroke:none"
               inkscape:connector-curvature="0" />
          </symbol>
          <symbol
             id="textext-eb01c7c8-4"
             overflow="visible"
             style="overflow:visible">
            <path
               id="path3969"
               d="m 5.1875,-1.359375 c 0,-0.3125 0.078125,-0.3125 0.546875,-0.3125 l 0,-0.25 c -0.0625,0 -0.5625,0.03125 -0.90625,0.03125 -0.375,0 -0.890625,0 -1.265625,-0.03125 l 0,0.25 0.265625,0 c 0.703125,0 0.703125,0.09375 0.703125,0.3125 l 0,0.453125 c 0,0.15625 0,0.421875 -0.40625,0.625 -0.328125,0.171875 -0.71875,0.171875 -0.8125,0.171875 -0.796875,0 -2.078125,-0.453125 -2.078125,-2.28125 0,-1.84375 1.328125,-2.25 2.015625,-2.25 0.671875,0 1.515625,0.453125 1.6875,1.65625 0.015625,0.078125 0.078125,0.078125 0.125,0.078125 0.125,0 0.125,-0.046875 0.125,-0.1875 l 0,-1.625 c 0,-0.125 0,-0.1875 -0.09375,-0.1875 -0.03125,0 -0.0625,0 -0.125,0.09375 l -0.359375,0.53125 c -0.34375,-0.359375 -0.84375,-0.625 -1.453125,-0.625 -1.453125,0 -2.671875,1.125 -2.671875,2.515625 0,1.390625 1.1875,2.53125 2.6875,2.53125 0.390625,0 1.15625,-0.078125 1.484375,-0.5625 C 4.78125,-0.234375 5.03125,0 5.109375,0 5.1875,0 5.1875,-0.078125 5.1875,-0.1875 z"
               style="stroke:none"
               inkscape:connector-curvature="0" />
          </symbol>
        </g>
      </defs>
      <g
         id="textext-eb01c7c8-5"
         style="fill:#d40000;fill-opacity:1;stroke-width:1">
        <g
           id="g3972"
           style="fill:#d40000;fill-opacity:1;stroke-width:1">
          <use
             id="use3974"
             y="132.246"
             x="224.901"
             xlink:href="#textext-eb01c7c8-1"
             style="fill:#d40000;fill-opacity:1;stroke-width:1"
             width="744.09448"
             height="1052.3622" />
        </g>
        <g
           id="g3976"
           style="fill:#d40000;fill-opacity:1;stroke-width:1">
          <use
             id="use3978"
             y="134.765"
             x="223.43201"
             xlink:href="#textext-eb01c7c8-2"
             style="fill:#d40000;fill-opacity:1;stroke-width:1"
             width="744.09448"
             height="1052.3622" />
        </g>
        <g
           id="g3980"
           style="fill:#d40000;fill-opacity:1;stroke-width:1">
          <use
             id="use3982"
             y="136.259"
             x="229.839"
             xlink:href="#textext-eb01c7c8-4"
             style="fill:#d40000;fill-opacity:1;stroke-width:1"
             width="744.09448"
             height="1052.3622" />
        </g>
      </g>
    </g>
    <g
       id="g8193"
       style="fill:#d40000;fill-opacity:1;stroke:#d40000;stroke-width:1.37753904;stroke-opacity:1"
       transform="matrix(3.4579682,0,0,3.4579682,-320.59487,23.965705)"
       ns0:preamble=""
       ns0:text="$l_{\\rm{2}}$"
       inkscape:export-filename="/home/waldgeist/data/homepage/pics/physik/mechanik/dynamik/kraftzerlegung-strassenlampe-asymmetrisch-aufgabe.png"
       inkscape:export-xdpi="150"
       inkscape:export-ydpi="150">
      <defs
         id="defs8195">
        <g
           id="g8197">
          <symbol
             id="textext-9ebd2dca-0"
             overflow="visible"
             style="overflow:visible">
            <path
               id="path8200"
               d=""
               style="stroke:none"
               inkscape:connector-curvature="0" />
          </symbol>
          <symbol
             id="textext-9ebd2dca-1"
             overflow="visible"
             style="overflow:visible">
            <path
               id="path8203"
               d="m 2.578125,-6.8125 c 0,0 0,-0.109375 -0.140625,-0.109375 -0.21875,0 -0.953125,0.078125 -1.21875,0.109375 -0.078125,0 -0.1875,0.015625 -0.1875,0.203125 0,0.109375 0.109375,0.109375 0.25,0.109375 0.484375,0 0.5,0.09375 0.5,0.171875 L 1.75,-6.125 0.484375,-1.140625 C 0.453125,-1.03125 0.4375,-0.96875 0.4375,-0.8125 c 0,0.578125 0.4375,0.921875 0.90625,0.921875 0.328125,0 0.578125,-0.203125 0.75,-0.5625 0.171875,-0.375 0.296875,-0.953125 0.296875,-0.96875 0,-0.109375 -0.09375,-0.109375 -0.125,-0.109375 -0.09375,0 -0.109375,0.046875 -0.125,0.1875 C 1.96875,-0.703125 1.78125,-0.109375 1.375,-0.109375 c -0.296875,0 -0.296875,-0.3125 -0.296875,-0.453125 0,-0.25 0.015625,-0.296875 0.0625,-0.484375 z m 0,0"
               style="stroke:none"
               inkscape:connector-curvature="0" />
          </symbol>
          <symbol
             id="textext-9ebd2dca-2"
             overflow="visible"
             style="overflow:visible">
            <path
               id="path8206"
               d=""
               style="stroke:none"
               inkscape:connector-curvature="0" />
          </symbol>
          <symbol
             id="textext-9ebd2dca-3"
             overflow="visible"
             style="overflow:visible">
            <path
               id="path8209"
               d="m 3.515625,-1.265625 -0.234375,0 c -0.015625,0.15625 -0.09375,0.5625 -0.1875,0.625 -0.046875,0.046875 -0.578125,0.046875 -0.6875,0.046875 l -1.28125,0 c 0.734375,-0.640625 0.984375,-0.84375 1.390625,-1.171875 0.515625,-0.40625 1,-0.84375 1,-1.5 0,-0.84375 -0.734375,-1.359375 -1.625,-1.359375 -0.859375,0 -1.453125,0.609375 -1.453125,1.25 0,0.34375 0.296875,0.390625 0.375,0.390625 0.15625,0 0.359375,-0.125 0.359375,-0.375 0,-0.125 -0.046875,-0.375 -0.40625,-0.375 C 0.984375,-4.21875 1.453125,-4.375 1.78125,-4.375 c 0.703125,0 1.0625,0.546875 1.0625,1.109375 0,0.609375 -0.4375,1.078125 -0.65625,1.328125 L 0.515625,-0.265625 C 0.4375,-0.203125 0.4375,-0.1875 0.4375,0 l 2.875,0 z m 0,0"
               style="stroke:none"
               inkscape:connector-curvature="0" />
          </symbol>
        </g>
      </defs>
      <g
         id="textext-9ebd2dca-4">
        <g
           id="g8212"
           style="fill:#000000;fill-opacity:1">
          <use
             id="use8214"
             y="134.765"
             x="223.43201"
             xlink:href="#textext-9ebd2dca-1"
             width="744.09448"
             height="1052.3622" />
        </g>
        <g
           id="g8216"
           style="fill:#000000;fill-opacity:1">
          <use
             id="use8218"
             y="136.259"
             x="226.405"
             xlink:href="#textext-9ebd2dca-3"
             width="744.09448"
             height="1052.3622" />
        </g>
      </g>
    </g>
    <g
       ns0:text="$l_{\\rm{1}}$"
       ns0:preamble=""
       transform="matrix(3.4579682,0,0,3.4579682,-587.90708,23.965705)"
       style="fill:#d40000;fill-opacity:1;stroke:#d40000;stroke-width:1.37753904;stroke-opacity:1"
       id="g8521"
       inkscape:export-filename="/home/waldgeist/data/homepage/pics/physik/mechanik/dynamik/kraftzerlegung-strassenlampe-asymmetrisch-aufgabe.png"
       inkscape:export-xdpi="150"
       inkscape:export-ydpi="150">
      <defs
         id="defs8523">
        <g
           id="g8525">
          <symbol
             style="overflow:visible"
             overflow="visible"
             id="textext-4e09d823-0">
            <path
               inkscape:connector-curvature="0"
               style="stroke:none"
               d=""
               id="path8528" />
          </symbol>
          <symbol
             style="overflow:visible"
             overflow="visible"
             id="textext-4e09d823-1">
            <path
               inkscape:connector-curvature="0"
               style="stroke:none"
               d="m 2.578125,-6.8125 c 0,0 0,-0.109375 -0.140625,-0.109375 -0.21875,0 -0.953125,0.078125 -1.21875,0.109375 -0.078125,0 -0.1875,0.015625 -0.1875,0.203125 0,0.109375 0.109375,0.109375 0.25,0.109375 0.484375,0 0.5,0.09375 0.5,0.171875 L 1.75,-6.125 0.484375,-1.140625 C 0.453125,-1.03125 0.4375,-0.96875 0.4375,-0.8125 c 0,0.578125 0.4375,0.921875 0.90625,0.921875 0.328125,0 0.578125,-0.203125 0.75,-0.5625 0.171875,-0.375 0.296875,-0.953125 0.296875,-0.96875 0,-0.109375 -0.09375,-0.109375 -0.125,-0.109375 -0.09375,0 -0.109375,0.046875 -0.125,0.1875 C 1.96875,-0.703125 1.78125,-0.109375 1.375,-0.109375 c -0.296875,0 -0.296875,-0.3125 -0.296875,-0.453125 0,-0.25 0.015625,-0.296875 0.0625,-0.484375 z m 0,0"
               id="path8531" />
          </symbol>
          <symbol
             style="overflow:visible"
             overflow="visible"
             id="textext-4e09d823-2">
            <path
               inkscape:connector-curvature="0"
               style="stroke:none"
               d=""
               id="path8534" />
          </symbol>
          <symbol
             style="overflow:visible"
             overflow="visible"
             id="textext-4e09d823-3">
            <path
               inkscape:connector-curvature="0"
               style="stroke:none"
               d="m 2.328125,-4.4375 c 0,-0.1875 0,-0.1875 -0.203125,-0.1875 -0.453125,0.4375 -1.078125,0.4375 -1.359375,0.4375 l 0,0.25 c 0.15625,0 0.625,0 1,-0.1875 l 0,3.546875 c 0,0.234375 0,0.328125 -0.6875,0.328125 l -0.265625,0 0,0.25 c 0.125,0 0.984375,-0.03125 1.234375,-0.03125 0.21875,0 1.09375,0.03125 1.25,0.03125 l 0,-0.25 -0.265625,0 c -0.703125,0 -0.703125,-0.09375 -0.703125,-0.328125 z m 0,0"
               id="path8537" />
          </symbol>
        </g>
      </defs>
      <g
         id="textext-4e09d823-4">
        <g
           style="fill:#000000;fill-opacity:1"
           id="g8540">
          <use
             height="1052.3622"
             width="744.09448"
             xlink:href="#textext-4e09d823-1"
             x="223.43201"
             y="134.765"
             id="use8542" />
        </g>
        <g
           style="fill:#000000;fill-opacity:1"
           id="g8544">
          <use
             height="1052.3622"
             width="744.09448"
             xlink:href="#textext-4e09d823-3"
             x="226.405"
             y="136.259"
             id="use8546" />
        </g>
      </g>
    </g>
    <g
       id="g6703"
       style="fill:#d40000;fill-opacity:1;stroke:#d40000;stroke-width:1.24535644;stroke-opacity:1"
       transform="matrix(4.2499982,-2.6862217e-8,2.6862217e-8,4.2499982,-817.16341,-12.105932)"
       ns0:preamble="/home/waldgeist/data/sphinx/inkscape-preamble.tex"
       ns0:text="$\\beta$"
       inkscape:export-filename="/home/waldgeist/data/homepage/pics/physik/mechanik/dynamik/kraftzerlegung-strassenlampe-asymmetrisch-aufgabe.png"
       inkscape:export-xdpi="150"
       inkscape:export-ydpi="150">
      <defs
         id="defs6705">
        <g
           id="g6707">
          <symbol
             id="textext-414495bf-0"
             overflow="visible"
             style="overflow:visible">
            <path
               id="path6710"
               d=""
               style="stroke:none"
               inkscape:connector-curvature="0" />
          </symbol>
          <symbol
             id="textext-414495bf-1"
             overflow="visible"
             style="overflow:visible">
            <path
               id="path6713"
               d="m 5.734375,-5.671875 c 0,-0.75 -0.546875,-1.359375 -1.359375,-1.359375 -0.578125,0 -0.859375,0.15625 -1.203125,0.40625 C 2.625,-6.21875 2.078125,-5.25 1.890625,-4.5 L 0.296875,1.828125 C 0.296875,1.875 0.34375,1.9375 0.421875,1.9375 0.5,1.9375 0.53125,1.90625 0.53125,1.890625 L 1.234375,-0.875 c 0.1875,0.609375 0.625,0.96875 1.359375,0.96875 C 3.3125,0.09375 4.0625,-0.25 4.515625,-0.6875 5,-1.140625 5.3125,-1.78125 5.3125,-2.515625 c 0,-0.71875 -0.375,-1.25 -0.734375,-1.484375 0.578125,-0.34375 1.15625,-0.953125 1.15625,-1.671875 z M 3.9375,-4.015625 c -0.125,0.046875 -0.234375,0.0625 -0.484375,0.0625 -0.140625,0 -0.328125,0.015625 -0.4375,-0.03125 0.03125,-0.109375 0.390625,-0.078125 0.5,-0.078125 0.203125,0 0.296875,0 0.421875,0.046875 z M 5.171875,-5.90625 c 0,0.703125 -0.375,1.421875 -0.890625,1.734375 C 4,-4.28125 3.8125,-4.296875 3.515625,-4.296875 c -0.21875,0 -0.78125,-0.015625 -0.78125,0.3125 0,0.28125 0.515625,0.25 0.6875,0.25 0.375,0 0.53125,0 0.828125,-0.125 0.375,0.359375 0.421875,0.671875 0.4375,1.125 0.015625,0.578125 -0.21875,1.328125 -0.5,1.71875 C 3.796875,-0.484375 3.125,-0.125 2.5625,-0.125 c -0.765625,0 -1.140625,-0.578125 -1.140625,-1.28125 0,-0.09375 0,-0.25 0.046875,-0.4375 L 2.109375,-4.359375 C 2.328125,-5.21875 3.046875,-6.8125 4.25,-6.8125 c 0.578125,0 0.921875,0.3125 0.921875,0.90625 z m 0,0"
               style="stroke:none"
               inkscape:connector-curvature="0" />
          </symbol>
        </g>
      </defs>
      <g
         id="textext-414495bf-2">
        <g
           id="g6716"
           style="fill:#000000;fill-opacity:1">
          <use
             id="use6718"
             y="134.765"
             x="223.43201"
             xlink:href="#textext-414495bf-1"
             width="744.09448"
             height="1052.3622" />
        </g>
      </g>
    </g>
    <g
       inkscape:export-ydpi="150"
       inkscape:export-xdpi="150"
       inkscape:export-filename="/home/waldgeist/data/homepage/pics/physik/mechanik/dynamik/kraftzerlegung-strassenlampe-asymmetrisch-aufgabe.png"
       ns0:text="$\\alpha$"
       ns0:preamble="/home/waldgeist/data/sphinx/inkscape-preamble.tex"
       transform="matrix(4.2499982,-2.6862217e-8,2.6862217e-8,4.2499982,-418.69833,-77.799273)"
       style="fill:#d40000;fill-opacity:1;stroke:#d40000;stroke-width:1.24535644;stroke-opacity:1"
       id="g19046">
      <defs
         id="defs19048">
        <g
           id="g19050">
          <symbol
             style="overflow:visible"
             overflow="visible"
             id="textext-0e51608b-0">
            <path
               inkscape:connector-curvature="0"
               style="stroke:none"
               d=""
               id="path19053" />
          </symbol>
          <symbol
             style="overflow:visible"
             overflow="visible"
             id="textext-0e51608b-1">
            <path
               inkscape:connector-curvature="0"
               style="stroke:none"
               d="m 4.75,-2.359375 c 0,-1.5625 -0.921875,-2.046875 -1.65625,-2.046875 -1.375,0 -2.6875,1.421875 -2.6875,2.828125 0,0.9375 0.59375,1.6875 1.625,1.6875 0.625,0 1.34375,-0.234375 2.09375,-0.84375 0.125,0.53125 0.453125,0.84375 0.90625,0.84375 0.53125,0 0.84375,-0.546875 0.84375,-0.703125 0,-0.078125 -0.0625,-0.109375 -0.125,-0.109375 -0.0625,0 -0.09375,0.03125 -0.125,0.109375 -0.1875,0.484375 -0.546875,0.484375 -0.5625,0.484375 -0.3125,0 -0.3125,-0.78125 -0.3125,-1.015625 0,-0.203125 0,-0.234375 0.109375,-0.34375 C 5.796875,-2.65625 6,-3.8125 6,-3.8125 6,-3.84375 5.984375,-3.921875 5.875,-3.921875 c -0.09375,0 -0.09375,0.03125 -0.140625,0.21875 -0.1875,0.625 -0.515625,1.375 -0.984375,1.96875 z m -0.65625,1.375 c -0.890625,0.765625 -1.65625,0.875 -2.046875,0.875 -0.59375,0 -0.90625,-0.453125 -0.90625,-1.09375 0,-0.484375 0.265625,-1.5625 0.578125,-2.0625 C 2.1875,-4 2.734375,-4.1875 3.078125,-4.1875 c 0.984375,0 0.984375,1.3125 0.984375,2.078125 0,0.375 0,0.953125 0.03125,1.125 z m 0,0"
               id="path19056" />
          </symbol>
        </g>
      </defs>
      <g
         transform="translate(0,14.117649)"
         style="stroke-width:1.24535644"
         id="textext-0e51608b-2">
        <g
           style="fill:#000000;fill-opacity:1;stroke-width:1.24535644"
           id="g19059">
          <use
             style="stroke-width:1.24535644"
             height="1052.3622"
             width="744.09448"
             xlink:href="#textext-0e51608b-1"
             x="223.43201"
             y="134.765"
             id="use19061" />
        </g>
      </g>
    </g>
    <g
       id="g8869"
       style="fill:#d40000;fill-opacity:1;stroke:#d40000;stroke-width:1.37753904;stroke-opacity:1"
       transform="matrix(3.4579682,0,0,3.4579682,-100.42042,68.919556)"
       ns0:preamble="/home/waldgeist/data/sphinx/inkscape-preamble.tex"
       ns0:text="$h$"
       inkscape:export-filename="/home/waldgeist/data/homepage/pics/physik/mechanik/dynamik/kraftzerlegung-strassenlampe-asymmetrisch-aufgabe.png"
       inkscape:export-xdpi="150"
       inkscape:export-ydpi="150">
      <defs
         id="defs8871">
        <g
           id="g8873">
          <symbol
             id="textext-0346dcff-0"
             overflow="visible"
             style="overflow:visible">
            <path
               id="path8876"
               d=""
               style="stroke:none"
               inkscape:connector-curvature="0" />
          </symbol>
          <symbol
             id="textext-0346dcff-1"
             overflow="visible"
             style="overflow:visible">
            <path
               id="path8879"
               d="m 2.859375,-6.8125 c 0,0 0,-0.109375 -0.125,-0.109375 -0.234375,0 -0.953125,0.078125 -1.21875,0.109375 -0.078125,0 -0.1875,0.015625 -0.1875,0.1875 0,0.125 0.09375,0.125 0.234375,0.125 0.484375,0 0.5,0.0625 0.5,0.171875 L 2.03125,-6.125 0.59375,-0.390625 c -0.046875,0.140625 -0.046875,0.15625 -0.046875,0.21875 0,0.234375 0.203125,0.28125 0.296875,0.28125 0.15625,0 0.3125,-0.125 0.359375,-0.265625 l 0.1875,-0.75 0.21875,-0.890625 C 1.671875,-2.03125 1.734375,-2.25 1.78125,-2.46875 1.796875,-2.53125 1.890625,-2.859375 1.890625,-2.921875 1.921875,-3.015625 2.234375,-3.5625 2.578125,-3.84375 2.796875,-4 3.09375,-4.1875 3.53125,-4.1875 c 0.421875,0 0.53125,0.34375 0.53125,0.703125 0,0.53125 -0.375,1.625 -0.609375,2.234375 C 3.375,-1.03125 3.3125,-0.90625 3.3125,-0.703125 c 0,0.46875 0.359375,0.8125 0.828125,0.8125 0.9375,0 1.296875,-1.453125 1.296875,-1.53125 0,-0.109375 -0.078125,-0.109375 -0.109375,-0.109375 -0.109375,0 -0.109375,0.03125 -0.15625,0.1875 -0.140625,0.53125 -0.46875,1.234375 -1.015625,1.234375 -0.171875,0 -0.234375,-0.09375 -0.234375,-0.328125 0,-0.25 0.078125,-0.484375 0.171875,-0.703125 0.15625,-0.4375 0.609375,-1.625 0.609375,-2.203125 0,-0.640625 -0.390625,-1.0625 -1.140625,-1.0625 -0.625,0 -1.109375,0.3125 -1.484375,0.765625 z m 0,0"
               style="stroke:none"
               inkscape:connector-curvature="0" />
          </symbol>
        </g>
      </defs>
      <g
         id="textext-0346dcff-2">
        <g
           id="g8882"
           style="fill:#000000;fill-opacity:1">
          <use
             id="use8884"
             y="134.765"
             x="223.43201"
             xlink:href="#textext-0346dcff-1"
             width="744.09448"
             height="1052.3622" />
        </g>
      </g>
    </g>
    <g
       id="g9010"
       transform="translate(1.2087412,0)"
       inkscape:export-filename="/home/waldgeist/data/homepage/pics/physik/mechanik/dynamik/kraftzerlegung-strassenlampe-asymmetrisch-aufgabe.png"
       inkscape:export-xdpi="150"
       inkscape:export-ydpi="150">
      <path
         inkscape:connector-curvature="0"
         id="path30164"
         d="m 662.8385,508.60743 0,35.14732"
         style="fill:none;stroke:#000000;stroke-width:0.9000001;stroke-linecap:round;stroke-linejoin:miter;stroke-miterlimit:4;stroke-opacity:1;stroke-dasharray:0.9000001, 2.70000028;stroke-dashoffset:0" />
      <path
         style="fill:none;stroke:#000000;stroke-width:0.9000001;stroke-linecap:round;stroke-linejoin:miter;stroke-miterlimit:4;stroke-opacity:1;stroke-dasharray:0.9000001, 2.70000028;stroke-dashoffset:0"
         d="m 78.8385,508.60743 0,35.14732"
         id="path9008"
         inkscape:connector-curvature="0" />
    </g>
    <g
       ns0:text="$h$"
       ns0:preamble="/home/waldgeist/data/sphinx/inkscape-preamble.tex"
       transform="matrix(3.4579682,0,0,3.4579682,-721.42042,68.919556)"
       style="fill:#d40000;fill-opacity:1;stroke:#d40000;stroke-width:1.37753904;stroke-opacity:1"
       id="g9014"
       inkscape:export-filename="/home/waldgeist/data/homepage/pics/physik/mechanik/dynamik/kraftzerlegung-strassenlampe-asymmetrisch-aufgabe.png"
       inkscape:export-xdpi="150"
       inkscape:export-ydpi="150">
      <defs
         id="defs9016">
        <g
           id="g9018">
          <symbol
             style="overflow:visible"
             overflow="visible"
             id="symbol9020">
            <path
               inkscape:connector-curvature="0"
               style="stroke:none"
               d=""
               id="path9022" />
          </symbol>
          <symbol
             style="overflow:visible"
             overflow="visible"
             id="symbol9024">
            <path
               inkscape:connector-curvature="0"
               style="stroke:none"
               d="m 2.859375,-6.8125 c 0,0 0,-0.109375 -0.125,-0.109375 -0.234375,0 -0.953125,0.078125 -1.21875,0.109375 -0.078125,0 -0.1875,0.015625 -0.1875,0.1875 0,0.125 0.09375,0.125 0.234375,0.125 0.484375,0 0.5,0.0625 0.5,0.171875 L 2.03125,-6.125 0.59375,-0.390625 c -0.046875,0.140625 -0.046875,0.15625 -0.046875,0.21875 0,0.234375 0.203125,0.28125 0.296875,0.28125 0.15625,0 0.3125,-0.125 0.359375,-0.265625 l 0.1875,-0.75 0.21875,-0.890625 C 1.671875,-2.03125 1.734375,-2.25 1.78125,-2.46875 1.796875,-2.53125 1.890625,-2.859375 1.890625,-2.921875 1.921875,-3.015625 2.234375,-3.5625 2.578125,-3.84375 2.796875,-4 3.09375,-4.1875 3.53125,-4.1875 c 0.421875,0 0.53125,0.34375 0.53125,0.703125 0,0.53125 -0.375,1.625 -0.609375,2.234375 C 3.375,-1.03125 3.3125,-0.90625 3.3125,-0.703125 c 0,0.46875 0.359375,0.8125 0.828125,0.8125 0.9375,0 1.296875,-1.453125 1.296875,-1.53125 0,-0.109375 -0.078125,-0.109375 -0.109375,-0.109375 -0.109375,0 -0.109375,0.03125 -0.15625,0.1875 -0.140625,0.53125 -0.46875,1.234375 -1.015625,1.234375 -0.171875,0 -0.234375,-0.09375 -0.234375,-0.328125 0,-0.25 0.078125,-0.484375 0.171875,-0.703125 0.15625,-0.4375 0.609375,-1.625 0.609375,-2.203125 0,-0.640625 -0.390625,-1.0625 -1.140625,-1.0625 -0.625,0 -1.109375,0.3125 -1.484375,0.765625 z m 0,0"
               id="path9026" />
          </symbol>
        </g>
      </defs>
      <g
         id="g9028">
        <g
           style="fill:#000000;fill-opacity:1"
           id="g9030">
          <use
             height="1052.3622"
             width="744.09448"
             xlink:href="#textext-0346dcff-1"
             x="223.43201"
             y="134.765"
             id="use9032" />
        </g>
      </g>
    </g>
  </g>
</svg>
