<svg xmlns:ns0="http://www.iki.fi/pav/software/textext/" xmlns="http://www.w3.org/2000/svg" xmlns:xlink="http://www.w3.org/1999/xlink" width="210mm" height="297mm"><title>Kraftzerlegung bei einer Straßenlaterne</title><path style="marker:none" color="#000" fill="#fff" stroke="#fff" stroke-width="1.312" stroke-linecap="round" stroke-linejoin="bevel" overflow="visible" d="M20.156 324.079h703.782v404.204H20.156z"/><path style="marker:none" color="#000" fill="gray" stroke="#1a1a1a" stroke-width=".976" stroke-linecap="round" stroke-linejoin="bevel" overflow="visible" d="M88.194 342.78h16.162v277.959H88.194zM639.738 342.78H655.9v277.959h-16.162z"/><path d="M104.357 373.605l267.69 121.73 267.69-121.73" fill="none" stroke="#000" stroke-width="3" stroke-linecap="round"/><g transform="matrix(5.29276 0 0 5.29276 -835.431 -11.86)" ns0:preamble="/home/waldgeist/data/sphinx/inkscape-preamble.tex" ns0:text="$\\vec{F}_{\\rm{G}}$" fill="#d40000" stroke="#d40000"><defs><symbol id="a" overflow="visible"><path d="M5.36-5.938c-.141.141-.47.422-.47.594 0 .094.094.203.188.203s.14-.078.203-.14c.11-.14.344-.422.782-.64.062-.048.171-.095.171-.204 0-.11-.078-.156-.14-.203a1.034 1.034 0 0 1-.407-.563c-.03-.093-.062-.234-.203-.234-.14 0-.203.14-.203.219 0 .047.078.36.235.578h-3.36c-.156 0-.344 0-.344.203 0 .188.188.188.344.188z" stroke="none"/></symbol><symbol id="b" overflow="visible"><path d="M3.016-3.234h.968c.75 0 .829.156.829.437 0 .078 0 .188-.063.5-.031.047-.031.078-.031.11 0 .078.062.109.11.109.109 0 .109-.031.155-.203l.547-2.172c.032-.11.032-.125.032-.156a.117.117 0 0 0-.125-.11c-.094 0-.11.047-.141.219-.219.766-.438.953-1.297.953h-.906l.64-2.531c.094-.36.11-.39.547-.39h1.313c1.218 0 1.453.327 1.453 1.093 0 .234 0 .266-.031.547C7-4.703 7-4.688 7-4.656c0 .047.031.125.125.125.11 0 .11-.063.125-.25l.203-1.735c.031-.265-.016-.265-.266-.265h-4.89c-.188 0-.297 0-.297.203 0 .11.094.11.281.11.375 0 .656 0 .656.171 0 .047 0 .063-.062.25L1.562-.78c-.093.39-.109.469-.906.469-.172 0-.281 0-.281.187C.375 0 .5 0 .531 0c.281 0 1.031-.031 1.313-.031C2.172-.031 3 0 3.328 0c.094 0 .203 0 .203-.188 0-.078-.047-.109-.047-.109-.03-.016-.062-.016-.28-.016-.22 0-.267 0-.517-.015-.296-.031-.328-.078-.328-.203 0-.016 0-.078.047-.219z" stroke="none"/></symbol><symbol id="c" overflow="visible"><path d="M5.188-1.36c0-.312.078-.312.546-.312v-.25c-.062 0-.562.031-.906.031-.375 0-.89 0-1.266-.03v.25h.266c.703 0 .703.093.703.312v.453c0 .156 0 .422-.406.625-.328.172-.719.172-.813.172-.796 0-2.078-.454-2.078-2.282 0-1.843 1.329-2.25 2.016-2.25.672 0 1.516.454 1.688 1.657.015.078.078.078.125.078.125 0 .125-.047.125-.188v-1.625c0-.125 0-.187-.094-.187-.032 0-.063 0-.125.093l-.36.532a1.994 1.994 0 0 0-1.453-.625C1.703-4.906.484-3.781.484-2.391.484-1 1.672.141 3.172.141c.39 0 1.156-.078 1.484-.563.125.188.375.422.453.422.079 0 .079-.078.079-.188z" stroke="none"/></symbol></defs><use y="132.246" x="224.901" xlink:href="#a" width="744.094" height="1052.362"/><use y="134.765" x="223.432" xlink:href="#b" width="744.094" height="1052.362"/><use y="136.259" x="229.839" xlink:href="#c" width="744.094" height="1052.362"/></g><g color="#000" stroke-linecap="round" stroke-linejoin="round"><path d="M376.192 499.423a4.145 4.145 0 1 1-8.29 0 4.145 4.145 0 0 1 8.29 0z" style="marker:none" fill="#b3b3b3" stroke="#000" stroke-width="1.5" overflow="visible"/><g transform="translate(-172.26 .355)"><path transform="matrix(.69466 0 0 .8676 259.588 233.468)" d="M444.467 352.326c0 8.369-15.49 15.153-34.598 15.153-19.107 0-34.597-6.784-34.597-15.153h34.597z" style="marker:none" opacity=".5" fill="#fc0" stroke="#d4aa00" stroke-width="1.288" overflow="visible"/><rect ry="0" rx="0" y="499.068" x="511.503" height="22.038" width="65.61" style="marker:none" fill="#999" stroke="#1a1a1a" stroke-width="1.5" overflow="visible"/><path style="marker:none" d="M502.132 517.107h84.352l20 22.038H482.132z" fill="#999" stroke="#1a1a1a" stroke-width="1.5" overflow="visible"/></g></g><g fill="#d40000" stroke="#d40000"><path d="M372.047 495.334v137.168" stroke-width="5.9999625"/><path d="M372.047 637.582l1.336-2.314 1.336-2.314h-5.344l1.336 2.314z" stroke-width="7.86228585"/></g><path d="M104.357 373.605h535.38" fill="none" stroke="#000" stroke-linecap="round" stroke-dasharray="1,3"/><path d="M540.379 419.223a114.11 114.11 0 0 1-9.515-45.618" style="marker:none" color="#000" fill="none" stroke="gray" stroke-width=".9997867" stroke-linecap="round" stroke-linejoin="round" overflow="visible"/><g transform="translate(-406.857 -171.056) scale(4.23421)" ns0:preamble="/home/waldgeist/data/sphinx/inkscape-preamble.tex" ns0:text="$\\alpha$" fill="#d40000" stroke="#d40000" stroke-width="1.25"><defs><symbol id="d" overflow="visible"><path d="M4.75-2.36c0-1.562-.922-2.046-1.656-2.046-1.375 0-2.688 1.422-2.688 2.828C.406-.641 1 .109 2.031.109c.625 0 1.344-.234 2.094-.843.125.53.453.843.906.843.532 0 .844-.546.844-.703 0-.078-.063-.11-.125-.11-.063 0-.094.032-.125.11-.188.485-.547.485-.563.485-.312 0-.312-.782-.312-1.016 0-.203 0-.234.11-.344C5.796-2.656 6-3.812 6-3.812c0-.032-.016-.11-.125-.11-.094 0-.094.031-.14.219-.188.625-.516 1.375-.985 1.969zM4.094-.983c-.89.765-1.657.875-2.047.875-.594 0-.906-.454-.906-1.094 0-.484.265-1.563.578-2.063.468-.734 1.015-.921 1.36-.921.983 0 .983 1.312.983 2.078 0 .375 0 .953.032 1.125zm0 0" stroke="none"/></symbol></defs><use y="134.765" x="223.432" xlink:href="#d" width="744.094" height="1052.362" fill="#000"/></g></svg>