<svg xmlns:ns0="http://www.iki.fi/pav/software/textext/" xmlns="http://www.w3.org/2000/svg" xmlns:xlink="http://www.w3.org/1999/xlink" width="210mm" height="297mm"><title>Kraftzerlegung beim Ziehen eines Schlittens</title><defs><marker id="e" orient="auto" overflow="visible"><path d="M-4 0l-2 2 7-2-7-2 2 2z" fill-rule="evenodd" stroke="#000" stroke-width=".4pt"/></marker></defs><path style="marker:none" color="#000" fill="#fff" stroke="#fff" stroke-width="1.312" stroke-linecap="round" stroke-linejoin="bevel" overflow="visible" d="M18.156 322.079h703.782v404.204H18.156z"/><path style="marker:none" color="#000" fill="gray" stroke="#1a1a1a" stroke-width=".976" stroke-linecap="round" stroke-linejoin="bevel" overflow="visible" d="M82.435 616.478v-16.162H661.66v16.162z"/><path d="M287.143 542.938h203.065" fill="none" stroke="#000" stroke-linecap="round" stroke-dasharray=".99999999,2.99999996"/><path d="M317.252 541.146l171.016-29.286" fill="none" stroke="#000" stroke-width="3" stroke-linecap="round"/><g ns0:text="$\\alpha$" ns0:preamble="/home/waldgeist/data/sphinx/inkscape-preamble.tex" transform="matrix(2.80404 0 0 2.80404 -271.83 144.594)" fill="#d40000" stroke="#d40000" stroke-width="1.888"><defs><symbol overflow="visible" id="a"><path d="M4.75-2.36c0-1.562-.922-2.046-1.656-2.046-1.375 0-2.688 1.422-2.688 2.828C.406-.641 1 .109 2.031.109c.625 0 1.344-.234 2.094-.843.125.53.453.843.906.843.532 0 .844-.546.844-.703 0-.078-.063-.11-.125-.11-.063 0-.094.032-.125.11-.188.485-.547.485-.563.485-.312 0-.312-.782-.312-1.016 0-.203 0-.234.11-.344C5.796-2.656 6-3.812 6-3.812c0-.032-.016-.11-.125-.11-.094 0-.094.031-.14.219-.188.625-.516 1.375-.985 1.969zM4.094-.983c-.89.765-1.657.875-2.047.875-.594 0-.906-.454-.906-1.094 0-.484.265-1.563.578-2.063.468-.734 1.015-.921 1.36-.921.983 0 .983 1.312.983 2.078 0 .375 0 .953.032 1.125zm0 0" stroke="none"/></symbol></defs><use height="1052.362" width="744.094" xlink:href="#a" x="223.432" y="134.765" fill="#000"/></g><path d="M292.385 522.235a40.84 40.84 0 0 1-.342 74.471" style="marker:none" color="#000" fill="none" stroke="#6c5353" stroke-width="8.00016626" stroke-linecap="round" stroke-linejoin="round" overflow="visible"/><path d="M294.21 596.316H140.084M309.768 541.825H140.084M162.138 596.404V543.1M269.384 596.404V543.1" fill="none" stroke="#6c5353" stroke-width="8" stroke-linecap="round"/><g transform="matrix(5.29276 0 0 5.29276 -782.737 -261.554)" ns0:preamble="/home/waldgeist/data/sphinx/inkscape-preamble.tex" ns0:text="$\\vec{F}_{\\rm{Z}}$" fill="#d40000" stroke="#d40000"><defs><symbol id="b" overflow="visible"><path d="M5.36-5.938c-.141.141-.47.422-.47.594 0 .094.094.203.188.203s.14-.078.203-.14c.11-.14.344-.422.782-.64.062-.048.171-.095.171-.204 0-.11-.078-.156-.14-.203a1.034 1.034 0 0 1-.407-.563c-.03-.093-.062-.234-.203-.234-.14 0-.203.14-.203.219 0 .047.078.36.235.578h-3.36c-.156 0-.344 0-.344.203 0 .188.188.188.344.188zm0 0" stroke="none"/></symbol><symbol id="c" overflow="visible"><path d="M3.016-3.234h.968c.75 0 .829.156.829.437 0 .078 0 .188-.063.5-.031.047-.031.078-.031.11 0 .078.062.109.11.109.109 0 .109-.031.155-.203l.547-2.172c.032-.11.032-.125.032-.156a.117.117 0 0 0-.125-.11c-.094 0-.11.047-.141.219-.219.766-.438.953-1.297.953h-.906l.64-2.531c.094-.36.11-.39.547-.39h1.313c1.218 0 1.453.327 1.453 1.093 0 .234 0 .266-.031.547C7-4.703 7-4.688 7-4.656c0 .047.031.125.125.125.11 0 .11-.063.125-.25l.203-1.735c.031-.265-.016-.265-.266-.265h-4.89c-.188 0-.297 0-.297.203 0 .11.094.11.281.11.375 0 .656 0 .656.171 0 .047 0 .063-.062.25L1.562-.78c-.093.39-.109.469-.906.469-.172 0-.281 0-.281.187C.375 0 .5 0 .531 0c.281 0 1.031-.031 1.313-.031C2.172-.031 3 0 3.328 0c.094 0 .203 0 .203-.188 0-.078-.047-.109-.047-.109-.03-.016-.062-.016-.28-.016-.22 0-.267 0-.517-.015-.296-.031-.328-.078-.328-.203 0-.016 0-.078.047-.219zm0 0" stroke="none"/></symbol><symbol id="d" overflow="visible"><path d="M4.266-4.469c.062-.078.062-.11.062-.156 0-.14-.062-.14-.203-.14H.672L.594-3.157h.234c.063-1.031.563-1.36 1.485-1.36H3.53L.547-.296C.484-.22.484-.204.484-.142.484 0 .547 0 .688 0H4.25l.125-1.906h-.234C4.078-.97 3.953-.281 2.578-.281H1.297zm0 0" stroke="none"/></symbol></defs><use y="132.246" x="224.901" xlink:href="#b" width="744.094" height="1052.362" transform="translate(-2.663 10.61)"/><use y="134.765" x="223.432" xlink:href="#c" width="744.094" height="1052.362" transform="translate(-2.663 10.61)"/><use y="136.259" x="229.839" xlink:href="#d" width="744.094" height="1052.362" transform="translate(-2.663 10.61)"/></g><rect transform="scale(-1 1) rotate(5.039)" ry="15.443" y="447.398" x="-532.819" height="92.656" width="30.885" stroke="#000" stroke-width="6" stroke-linecap="round" stroke-linejoin="round"/><path d="M535.757 372.322a17.37 17.37 0 1 1 33.52 9.115 17.37 17.37 0 1 1-33.52-9.115z" stroke="#000" stroke-width="2.43303873" stroke-linecap="round" stroke-linejoin="round"/><rect width="79.133" height="18.932" x="377.958" y="610.328" ry="9.466" transform="matrix(-.15105 .98853 .98843 .15168 0 0)" stroke="#000" stroke-width="6" stroke-linecap="round" stroke-linejoin="round"/><rect ry="11.149" y="-776.768" x="31.574" height="22.299" width="86.516" transform="rotate(131.65) skewX(-.044)" rx="13.876" stroke="#000" stroke-width=".644" stroke-linecap="round" stroke-linejoin="round"/><rect transform="matrix(.59219 .8058 .80618 -.59167 0 0)" ry="9.466" y="158.569" x="699.294" height="18.932" width="79.133" stroke="#000" stroke-width="6" stroke-linecap="round" stroke-linejoin="round"/><rect rx="13.876" transform="rotate(86.65) skewX(-.044)" width="86.516" height="22.299" x="546.898" y="-572.408" ry="11.149" stroke="#000" stroke-width=".644" stroke-linecap="round" stroke-linejoin="round"/><rect ry="9.359" y="377.509" x="-511.9" height="18.718" width="72.625" transform="rotate(-75.374) skewX(-.044)" rx="11.648" stroke="#fff" stroke-width=".644" stroke-linecap="round" stroke-linejoin="round"/><g transform="scale(1.1772) rotate(-15 411.453 252.76)" stroke="#000" stroke-linecap="round" stroke-linejoin="round"><rect transform="rotate(5.039)" ry="11.012" y="308.307" x="158.636" height="66.071" width="22.024" stroke-width="5.097"/><rect transform="rotate(15)" ry="7.5" y="326.293" x="221.006" height="15" width="56.429" stroke-width="5.097"/><path d="M156.615 297.852c3.442 5.911 1.44 13.493-4.47 16.935-5.912 3.442-13.494 1.44-16.936-4.47-3.442-5.912-1.44-13.494 4.47-16.936 5.912-3.442 13.494-1.44 16.936 4.47z" stroke-width="2.0680523600000003"/></g><path d="M552.868 397.658a8.234 8.234 0 0 0-6.281 3.125l-36.75 46.25a8.36 8.36 0 0 0-1.282 2.281 8.293 8.293 0 0 0-2.218 3.531l-17.688 56.375c-1.36 4.343 1.023 8.927 5.344 10.281a8.192 8.192 0 0 0 10.281-5.374l17.563-56.063c.275-.263.537-.537.78-.844L559.4 410.94c2.832-3.562 2.264-8.682-1.281-11.5a8.16 8.16 0 0 0-5.25-1.781z" style="marker:none" color="#000" stroke="#fff" stroke-linecap="round" stroke-linejoin="round" overflow="visible"/><g fill="#d40000" stroke="#d40000"><path d="M317.252 541.146l97.993-17.103" stroke-width="5.9999625" stroke-linecap="round"/><path d="M420.25 523.169l-2.51-.918-2.509-.919.46 2.633.46 2.632 2.05-1.714z" stroke-width="7.86228585"/></g><path d="M383.042 529.897a66.745 66.745 0 0 1 .933 12.93" style="marker:none" color="#000" fill="none" stroke="#000" stroke-width="1.00042514" stroke-linecap="round" stroke-linejoin="round" overflow="visible"/><path style="marker:none" d="M434.855 660.572a66.583 66.583 0 0 1 .89 12.643" transform="rotate(-30 -124.685 1019.91) scale(1.26854)" color="#000" fill="none" stroke="#000" stroke-width=".788" stroke-linecap="round" stroke-linejoin="round" marker-end="url(#e)" overflow="visible"/><path d="M199.664 454.566c-1.894.039-3.733.896-5.013 2.507l-29.56 37.17c-.013.016-.016.046-.03.061-.04.052-.083.1-.122.153a6.574 6.574 0 0 0-1.559 3.974l-1.987 47.472c-.153 3.654 2.661 6.726 6.297 6.878 3.636.153 6.694-2.673 6.847-6.327l1.896-45.394 28.49-35.826c2.275-2.863 1.809-6.997-1.04-9.262a6.53 6.53 0 0 0-4.219-1.406z" style="marker:none" color="#000" stroke="#fff" stroke-linecap="round" stroke-linejoin="round" overflow="visible"/><path style="marker:none" d="M412.474 541.787a9.209 9.209 0 0 1 7.05-6.943" color="#000" fill="none" stroke="#4d4d4d" stroke-width="1.0011211" stroke-linecap="round" stroke-linejoin="round" overflow="visible"/><path d="M318.705 542.938h100.819" fill="none" stroke="#f60" stroke-width="2" stroke-linecap="round"/><g transform="matrix(5.29276 0 0 5.29276 -1043.147 -44.817)" ns0:preamble="/home/waldgeist/data/sphinx/inkscape-preamble.tex" ns0:text="$\\vec{F}_{\\rm{R}}$" fill="#d40000" stroke="#a00"><defs><symbol id="f" overflow="visible"><path d="M5.36-5.938c-.141.141-.47.422-.47.594 0 .094.094.203.188.203s.14-.078.203-.14c.11-.14.344-.422.782-.64.062-.048.171-.095.171-.204 0-.11-.078-.156-.14-.203a1.034 1.034 0 0 1-.407-.563c-.03-.093-.062-.234-.203-.234-.14 0-.203.14-.203.219 0 .047.078.36.235.578h-3.36c-.156 0-.344 0-.344.203 0 .188.188.188.344.188zm0 0" stroke="none"/></symbol><symbol id="g" overflow="visible"><path d="M3.016-3.234h.968c.75 0 .829.156.829.437 0 .078 0 .188-.063.5-.031.047-.031.078-.031.11 0 .078.062.109.11.109.109 0 .109-.031.155-.203l.547-2.172c.032-.11.032-.125.032-.156a.117.117 0 0 0-.125-.11c-.094 0-.11.047-.141.219-.219.766-.438.953-1.297.953h-.906l.64-2.531c.094-.36.11-.39.547-.39h1.313c1.218 0 1.453.327 1.453 1.093 0 .234 0 .266-.031.547C7-4.703 7-4.688 7-4.656c0 .047.031.125.125.125.11 0 .11-.063.125-.25l.203-1.735c.031-.265-.016-.265-.266-.265h-4.89c-.188 0-.297 0-.297.203 0 .11.094.11.281.11.375 0 .656 0 .656.171 0 .047 0 .063-.062.25L1.562-.78c-.093.39-.109.469-.906.469-.172 0-.281 0-.281.187C.375 0 .5 0 .531 0c.281 0 1.031-.031 1.313-.031C2.172-.031 3 0 3.328 0c.094 0 .203 0 .203-.188 0-.078-.047-.109-.047-.109-.03-.016-.062-.016-.28-.016-.22 0-.267 0-.517-.015-.296-.031-.328-.078-.328-.203 0-.016 0-.078.047-.219zm0 0" stroke="none"/></symbol><symbol id="h" overflow="visible"><path d="M3.5-2.375c.625-.14 1.25-.563 1.25-1.125 0-.688-.922-1.266-2-1.266H.406v.25h.172c.531 0 .547.079.547.329v3.625c0 .234-.016.312-.547.312H.406V0s.75-.031 1.031-.031c.297 0 .688.015 1.032.031v-.25h-.156c-.547 0-.563-.078-.563-.313V-2.28h.938c.124 0 .484 0 .796.281.235.219.235.39.235.86 0 .452 0 .734.328 1 .297.25.703.28.906.28.594 0 .734-.562.734-.78 0-.047 0-.126-.109-.126-.11 0-.11.063-.125.125-.031.407-.266.579-.484.579-.39 0-.453-.407-.532-1.032-.078-.562-.093-.672-.296-.906-.079-.078-.266-.266-.641-.375zm-.844-.11H1.75v-1.75c0-.202.016-.25.188-.265.062-.016.296-.016.453-.016.656 0 1.609 0 1.609 1.016 0 .781-.594 1.016-1.344 1.016zm0 0" stroke="none"/></symbol></defs><use y="132.246" x="224.901" xlink:href="#f" width="744.094" height="1052.362"/><use y="134.765" x="223.432" xlink:href="#g" width="744.094" height="1052.362"/><use y="136.259" x="229.839" xlink:href="#h" width="744.094" height="1052.362"/></g><g fill="#d40000" stroke="#d40000"><path d="M217.147 596.316c-34.547.06-63.974.113-97.485.173" stroke-width="5.9999625" stroke-linecap="round"/><path d="M115.034 596.496l2.312-1.34 2.312-1.34.004 2.673.005 2.672-2.317-1.332z" stroke-width="7.86228585"/></g><path d="M419.524 542.938v-19.162" fill="none" stroke="#f60" stroke-width="2" stroke-linecap="round"/><g ns0:text="$F_{\\rm{Z,x}}$" ns0:preamble="/home/waldgeist/data/sphinx/inkscape-preamble.tex" transform="matrix(1.80986 0 0 1.80986 -46.316 315.585)" fill="#f60" stroke="#d40000" stroke-width="2.924"><defs><symbol overflow="visible" id="i"><path d="M3.016-3.234h.968c.75 0 .829.156.829.437 0 .078 0 .188-.063.5-.031.047-.031.078-.031.11 0 .078.062.109.11.109.109 0 .109-.031.155-.203l.547-2.172c.032-.11.032-.125.032-.156a.117.117 0 0 0-.125-.11c-.094 0-.11.047-.141.219-.219.766-.438.953-1.297.953h-.906l.64-2.531c.094-.36.11-.39.547-.39h1.313c1.218 0 1.453.327 1.453 1.093 0 .234 0 .266-.031.547C7-4.703 7-4.688 7-4.656c0 .047.031.125.125.125.11 0 .11-.063.125-.25l.203-1.735c.031-.265-.016-.265-.266-.265h-4.89c-.188 0-.297 0-.297.203 0 .11.094.11.281.11.375 0 .656 0 .656.171 0 .047 0 .063-.062.25L1.562-.78c-.093.39-.109.469-.906.469-.172 0-.281 0-.281.187C.375 0 .5 0 .531 0c.281 0 1.031-.031 1.313-.031C2.172-.031 3 0 3.328 0c.094 0 .203 0 .203-.188 0-.078-.047-.109-.047-.109-.03-.016-.062-.016-.28-.016-.22 0-.267 0-.517-.015-.296-.031-.328-.078-.328-.203 0-.016 0-.078.047-.219zm0 0" stroke="none"/></symbol><symbol overflow="visible" id="j"><path d="M4.266-4.469c.062-.078.062-.11.062-.156 0-.14-.062-.14-.203-.14H.672L.594-3.157h.234c.063-1.031.563-1.36 1.485-1.36H3.53L.547-.296C.484-.22.484-.204.484-.142.484 0 .547 0 .688 0H4.25l.125-1.906h-.234C4.078-.97 3.953-.281 2.578-.281H1.297zm0 0" stroke="none"/></symbol><symbol overflow="visible" id="l"><path d="M2.36-1.563l-.047-.062c0-.031.453-.516.515-.578.25-.281.485-.547 1.047-.547V-3c-.203.016-.406.031-.594.031-.203 0-.484-.015-.687-.031v.25c.11.016.14.094.14.156 0 .016 0 .125-.109.235l-.484.546-.579-.656c-.078-.078-.078-.11-.078-.14 0-.094.094-.141.188-.141V-3c-.25.016-.516.031-.781.031-.204 0-.47-.015-.672-.031v.25c.312 0 .5 0 .687.203l.86 1c.015.016.062.063.062.078 0 .016-.531.594-.594.672-.265.281-.5.531-1.046.547V0C.39-.016.546-.031.765-.031c.203 0 .484.015.687.031v-.25c-.078-.016-.14-.063-.14-.156 0-.14.078-.235.187-.344l.5-.547.594.703c.14.14.14.156.14.203 0 .125-.156.141-.187.141V0c.062 0 .562-.031.781-.031.219 0 .453.015.672.031v-.25c-.469 0-.516-.047-.688-.219zm0 0" stroke="none"/></symbol><symbol overflow="visible" id="k"><path d="M1.469-.11c0 .376-.063.829-.547 1.266-.016.032-.047.063-.047.094 0 .047.063.094.094.094.11 0 .703-.563.703-1.39 0-.423-.172-.75-.5-.75a.387.387 0 0 0-.39.39c0 .219.155.406.405.406.172 0 .282-.11.282-.11zm0 0" stroke="none"/></symbol></defs><use height="1052.362" width="744.094" xlink:href="#i" x="223.432" y="134.765"/><use height="1052.362" width="744.094" xlink:href="#j" x="229.839" y="136.259"/><use height="1052.362" width="744.094" xlink:href="#k" x="234.668" y="136.259"/><use height="1052.362" width="744.094" xlink:href="#l" x="237.034" y="136.259"/></g><g transform="matrix(1.8089 0 0 1.8089 21.06 292.667)" ns0:preamble="/home/waldgeist/data/sphinx/inkscape-preamble.tex" ns0:text="$F_{\\rm{Z,y}}$" fill="#f60" stroke="#d40000" stroke-width="2.926"><defs><symbol id="m" overflow="visible"><path d="M3.016-3.234h.968c.75 0 .829.156.829.437 0 .078 0 .188-.063.5-.031.047-.031.078-.031.11 0 .078.062.109.11.109.109 0 .109-.031.155-.203l.547-2.172c.032-.11.032-.125.032-.156a.117.117 0 0 0-.125-.11c-.094 0-.11.047-.141.219-.219.766-.438.953-1.297.953h-.906l.64-2.531c.094-.36.11-.39.547-.39h1.313c1.218 0 1.453.327 1.453 1.093 0 .234 0 .266-.031.547C7-4.703 7-4.688 7-4.656c0 .047.031.125.125.125.11 0 .11-.063.125-.25l.203-1.735c.031-.265-.016-.265-.266-.265h-4.89c-.188 0-.297 0-.297.203 0 .11.094.11.281.11.375 0 .656 0 .656.171 0 .047 0 .063-.062.25L1.562-.78c-.093.39-.109.469-.906.469-.172 0-.281 0-.281.187C.375 0 .5 0 .531 0c.281 0 1.031-.031 1.313-.031C2.172-.031 3 0 3.328 0c.094 0 .203 0 .203-.188 0-.078-.047-.109-.047-.109-.03-.016-.062-.016-.28-.016-.22 0-.267 0-.517-.015-.296-.031-.328-.078-.328-.203 0-.016 0-.078.047-.219zm0 0" stroke="none"/></symbol><symbol id="n" overflow="visible"><path d="M4.266-4.469c.062-.078.062-.11.062-.156 0-.14-.062-.14-.203-.14H.672L.594-3.157h.234c.063-1.031.563-1.36 1.485-1.36H3.53L.547-.296C.484-.22.484-.204.484-.142.484 0 .547 0 .688 0H4.25l.125-1.906h-.234C4.078-.97 3.953-.281 2.578-.281H1.297zm0 0" stroke="none"/></symbol><symbol id="p" overflow="visible"><path d="M3.297-2.328c.187-.422.547-.422.656-.422V-3c-.187.016-.328.031-.531.031-.188 0-.438-.015-.625-.031v.25c.234.016.281.156.281.266 0 .078-.031.14-.062.218L2.25-.625l-.86-1.828a.252.252 0 0 1-.046-.14c0-.157.234-.157.36-.157V-3c-.11 0-.61.031-.798.031C.687-2.969.422-2.984.22-3v.25c.39 0 .469.016.562.234L1.953 0c-.062.14-.125.266-.187.406-.157.344-.375.813-.86.813-.172 0-.219-.032-.297-.078.016 0 .204-.063.204-.297A.287.287 0 0 0 .516.547C.328.547.203.672.203.844c0 .328.328.578.703.578.594 0 .938-.625 1.031-.828zm0 0" stroke="none"/></symbol><symbol id="o" overflow="visible"><path d="M1.469-.11c0 .376-.063.829-.547 1.266-.016.032-.047.063-.047.094 0 .047.063.094.094.094.11 0 .703-.563.703-1.39 0-.423-.172-.75-.5-.75a.387.387 0 0 0-.39.39c0 .219.155.406.405.406.172 0 .282-.11.282-.11zm0 0" stroke="none"/></symbol></defs><use y="134.765" x="223.432" xlink:href="#m" width="744.094" height="1052.362"/><use y="136.259" x="229.839" xlink:href="#n" width="744.094" height="1052.362"/><use y="136.259" x="234.668" xlink:href="#o" width="744.094" height="1052.362"/><use y="136.259" x="237.034" xlink:href="#p" width="744.094" height="1052.362"/></g><path style="marker:none" d="M417.008 539.457a.206.206 0 1 1-.412 0 .206.206 0 1 1 .412 0z" color="#000" fill="#fff" stroke="#4d4d4d" stroke-width=".999971" stroke-linecap="round" stroke-linejoin="round" overflow="visible"/><path style="marker:none" d="M434.855 660.572a66.583 66.583 0 0 1 .89 12.643" transform="rotate(-30 -194.63 1306.98) scale(1.26854)" color="#000" fill="none" stroke="#000" stroke-width=".788" stroke-linecap="round" stroke-linejoin="round" marker-end="url(#e)" overflow="visible"/></svg>