<svg xmlns:ns0="http://www.iki.fi/pav/software/textext/" xmlns="http://www.w3.org/2000/svg" xmlns:xlink="http://www.w3.org/1999/xlink" width="1052.362" height="744.094"><title>Addition mehrerer Kraefte mit entgegengesetzter Richtung</title><path style="marker:none" color="#000" fill="#fff" stroke="#fff" stroke-linecap="round" stroke-linejoin="bevel" overflow="visible" d="M32.391 150.474h987.581V593.62H32.391z"/><path style="marker:none" color="#000" fill="gray" stroke="#1a1a1a" stroke-linecap="round" stroke-linejoin="bevel" overflow="visible" d="M1006.135 534.778v16.162H43.336v-16.162z"/><g transform="translate(-908.188 -454.783) scale(6.43026)" ns0:text="$\\vec{F}_{\\rm{ges}}$" fill="#d40000" stroke="#d40000"><defs><symbol id="a" overflow="visible"><path d="M5.36-5.938c-.141.141-.47.422-.47.594 0 .094.094.203.188.203s.14-.078.203-.14c.11-.14.344-.422.782-.64.062-.048.171-.095.171-.204 0-.11-.078-.156-.14-.203a1.034 1.034 0 0 1-.407-.563c-.03-.093-.062-.234-.203-.234-.14 0-.203.14-.203.219 0 .047.078.36.235.578h-3.36c-.156 0-.344 0-.344.203 0 .188.188.188.344.188z" stroke="none"/></symbol><symbol id="b" overflow="visible"><path d="M3.016-3.234h.968c.75 0 .829.156.829.437 0 .078 0 .188-.063.5-.031.047-.031.078-.031.11 0 .078.062.109.11.109.109 0 .109-.031.155-.203l.547-2.172c.032-.11.032-.125.032-.156a.117.117 0 0 0-.125-.11c-.094 0-.11.047-.141.219-.219.766-.438.953-1.297.953h-.906l.64-2.531c.094-.36.11-.39.547-.39h1.313c1.218 0 1.453.327 1.453 1.093 0 .234 0 .266-.031.547C7-4.703 7-4.688 7-4.656c0 .047.031.125.125.125.11 0 .11-.063.125-.25l.203-1.735c.031-.265-.016-.265-.266-.265h-4.89c-.188 0-.297 0-.297.203 0 .11.094.11.281.11.375 0 .656 0 .656.171 0 .047 0 .063-.062.25L1.562-.78c-.093.39-.109.469-.906.469-.172 0-.281 0-.281.187C.375 0 .5 0 .531 0c.281 0 1.031-.031 1.313-.031C2.172-.031 3 0 3.328 0c.094 0 .203 0 .203-.188 0-.078-.047-.109-.047-.109-.03-.016-.062-.016-.28-.016-.22 0-.267 0-.517-.015-.296-.031-.328-.078-.328-.203 0-.016 0-.078.047-.219z" stroke="none"/></symbol><symbol id="c" overflow="visible"><path d="M1-1.234c.11.062.36.203.766.203C2.484-1.031 3-1.5 3-2.047c0-.281-.125-.484-.297-.672.328-.219.594-.234.719-.234-.031.031-.063.062-.063.172 0 .14.094.219.22.219.093 0 .218-.063.218-.22 0-.171-.125-.359-.406-.359-.11 0-.485.016-.813.313-.203-.14-.5-.25-.812-.25-.72 0-1.235.484-1.235 1.031 0 .266.14.516.328.703-.046.063-.203.297-.203.563 0 .094.016.422.297.625C.641-.063.266.172.266.53c0 .516.765.89 1.718.89.875 0 1.704-.343 1.704-.905a.87.87 0 0 0-.47-.782c-.405-.218-.827-.218-1.5-.218-.155 0-.405 0-.452-.016a.45.45 0 0 1-.36-.453c0-.172.063-.235.094-.281zm.766 0c-.672 0-.672-.672-.672-.813 0-.11 0-.39.125-.578a.778.778 0 0 1 .547-.234c.687 0 .687.671.687.812 0 .11 0 .39-.14.563a.727.727 0 0 1-.547.25zm0 1.218c.625 0 1.5 0 1.5.547 0 .375-.563.688-1.282.688C1.25 1.219.704.89.704.53c0-.25.218-.547.655-.547z" stroke="none"/></symbol><symbol id="d" overflow="visible"><path d="M3.063-1.594c.156 0 .203 0 .203-.14 0-.625-.344-1.375-1.391-1.375a1.59 1.59 0 0 0-1.61 1.578c0 .89.782 1.593 1.704 1.593.937 0 1.297-.75 1.297-.906 0-.015-.016-.094-.125-.094-.094 0-.11.047-.125.11-.22.562-.75.672-1 .672-.329 0-.641-.14-.844-.406-.266-.329-.266-.75-.266-1.032zM.905-1.766c.078-.984.703-1.14.969-1.14.86 0 .89.969.906 1.14z" stroke="none"/></symbol><symbol id="e" overflow="visible"><path d="M2.64-2.922c0-.125 0-.187-.093-.187-.031 0-.047 0-.14.078-.016.015-.079.078-.126.11-.219-.142-.469-.188-.734-.188-1 0-1.234.53-1.234.875 0 .218.093.406.265.546.266.22.531.266.969.344.344.063.906.157.906.625 0 .266-.187.594-.86.594-.671 0-.905-.438-1.03-.906C.53-1.125.53-1.156.438-1.156c-.126 0-.126.047-.126.187v.86c0 .109 0 .171.094.171.063 0 .203-.14.344-.296.297.296.672.296.844.296.906 0 1.25-.484 1.25-.968a.823.823 0 0 0-.313-.64c-.265-.25-.578-.313-.828-.345-.547-.109-1-.187-1-.562 0-.219.188-.485.844-.485.812 0 .844.563.86.766 0 .078.093.078.109.078.125 0 .125-.047.125-.187z" stroke="none"/></symbol></defs><use y="132.247" x="224.901" xlink:href="#a" width="744.094" height="1052.362"/><use y="134.765" x="223.432" xlink:href="#b" width="744.094" height="1052.362"/><use y="136.259" x="229.839" xlink:href="#c" width="744.094" height="1052.362"/><use y="136.259" x="233.811" xlink:href="#d" width="744.094" height="1052.362"/><use y="136.259" x="237.353" xlink:href="#e" width="744.094" height="1052.362"/></g><path d="M193.58 441.25H966.79" fill="none" stroke="#536c53" stroke-width="6" stroke-linecap="round"/><g transform="matrix(-1 0 0 1 1360.872 -383.268)"><rect width="21.473" height="64.419" x="722.684" y="723.04" ry="10.736" transform="rotate(5.039)" stroke="#000" stroke-width="6" stroke-linecap="round" stroke-linejoin="round"/><g transform="matrix(-1 0 0 1 599.221 298.25)" stroke-linecap="round" stroke-linejoin="round"><rect rx="9.647" transform="rotate(-75.374) skewX(-.044)" width="60.15" height="15.503" x="-605.493" y="118.442" ry="7.752" stroke="#fff" stroke-width=".644"/><rect transform="rotate(30)" ry="7.312" y="494.942" x="218.61" height="14.625" width="55.017" stroke="#000" stroke-width="6"/></g><path d="M680.233 763.868c1.75 6.435-2.048 13.071-8.484 14.821s-13.071-2.049-14.821-8.484c-1.75-6.436 2.048-13.072 8.484-14.822s13.071 2.05 14.821 8.485z" stroke="#000" stroke-width="2.43473724" stroke-linecap="round" stroke-linejoin="round"/><rect transform="rotate(66.312) skewX(.037)" ry="6.581" y="-275.362" x="1030.061" height="13.162" width="55.017" stroke="#000" stroke-width="6" stroke-linecap="round" stroke-linejoin="round"/><rect rx="9.647" transform="matrix(.83533 .54975 .5491 -.83576 0 0)" width="60.15" height="15.503" x="1046.176" y="-370.212" ry="7.752" stroke="#000" stroke-width=".644" stroke-linecap="round" stroke-linejoin="round"/><path d="M667.802 785.965a6 6 0 0 0-2.875.843 6 6 0 0 0-2.063 8.25l13.063 22.625c-2.574.255-1.925.177-23.594 2.344a5 5 0 0 0-2.344.813 5 5 0 0 0 3.313 9.156c28.503-2.851 30.656-3.054 31.062-3.094h.156a6 6 0 0 0 1.625-.156 6 6 0 0 0 .032 0l.25-.031a5.007 5.007 0 0 0 4.25-6.5 6 6 0 0 0-.782-2.375l-16.625-28.782a6 6 0 0 0-5.468-3.093z" style="text-indent:0;text-align:start;line-height:normal;text-transform:none;block-progression:tb;marker:none;-inkscape-font-specification:Sans" font-weight="400" color="#000" stroke="#fff" overflow="visible" font-family="Sans"/></g><g transform="matrix(-1 0 0 1 1842.272 -383.268)"><rect width="21.473" height="64.419" x="962.454" y="701.9" ry="10.736" transform="rotate(5.039)" stroke="#000" stroke-width="6" stroke-linecap="round" stroke-linejoin="round"/><g transform="matrix(-1 0 0 1 839.921 298.25)" stroke-linecap="round" stroke-linejoin="round"><rect rx="9.647" transform="rotate(-75.374) skewX(-.044)" width="60.15" height="15.503" x="-605.493" y="118.442" ry="7.752" stroke="#fff" stroke-width=".644"/><rect transform="rotate(30)" ry="7.312" y="494.942" x="218.61" height="14.625" width="55.017" stroke="#000" stroke-width="6"/></g><path d="M920.933 763.868c1.75 6.435-2.049 13.071-8.484 14.821-6.436 1.75-13.072-2.049-14.822-8.484-1.75-6.436 2.05-13.072 8.485-14.822s13.071 2.05 14.821 8.485z" stroke="#000" stroke-width="2.43473724" stroke-linecap="round" stroke-linejoin="round"/><rect transform="rotate(66.312) skewX(.037)" ry="6.581" y="-495.783" x="1126.904" height="13.162" width="55.017" stroke="#000" stroke-width="6" stroke-linecap="round" stroke-linejoin="round"/><rect rx="9.647" transform="matrix(.83533 .54975 .5491 -.83576 0 0)" width="60.15" height="15.503" x="1247.343" y="-237.887" ry="7.752" stroke="#000" stroke-width=".644" stroke-linecap="round" stroke-linejoin="round"/><path d="M908.502 785.965a6 6 0 0 0-2.875.843 6 6 0 0 0-2.063 8.25l13.063 22.625c-2.574.255-1.925.177-23.594 2.344a5 5 0 0 0-2.344.813 5 5 0 0 0 3.313 9.156c28.503-2.851 30.656-3.054 31.062-3.094h.156a6 6 0 0 0 1.625-.156 6 6 0 0 0 .032 0l.25-.031a5.007 5.007 0 0 0 4.25-6.5 6 6 0 0 0-.782-2.375l-16.625-28.782a6 6 0 0 0-5.468-3.093z" style="text-indent:0;text-align:start;line-height:normal;text-transform:none;block-progression:tb;marker:none;-inkscape-font-specification:Sans" font-weight="400" color="#000" stroke="#fff" overflow="visible" font-family="Sans"/></g><g transform="matrix(-1 0 0 1 1600.173 -383.268)"><rect transform="rotate(5.039)" ry="10.736" y="712.593" x="841.175" height="64.419" width="21.473" stroke="#000" stroke-width="6" stroke-linecap="round" stroke-linejoin="round"/><g transform="matrix(-1 0 0 1 718.172 298.25)" stroke-linecap="round" stroke-linejoin="round"><rect ry="7.752" y="118.442" x="-605.493" height="15.503" width="60.15" transform="rotate(-75.374) skewX(-.044)" rx="9.647" stroke="#fff" stroke-width=".644"/><rect width="55.017" height="14.625" x="218.61" y="494.942" ry="7.312" transform="rotate(30)" stroke="#000" stroke-width="6"/></g><path d="M799.184 763.868c1.75 6.435-2.049 13.071-8.485 14.821-6.435 1.75-13.071-2.049-14.82-8.484-1.75-6.436 2.048-13.072 8.483-14.822 6.436-1.75 13.072 2.05 14.822 8.485z" stroke="#000" stroke-width="2.43473724" stroke-linecap="round" stroke-linejoin="round"/><rect width="55.017" height="13.162" x="1077.919" y="-384.291" ry="6.581" transform="rotate(66.312) skewX(.037)" stroke="#000" stroke-width="6" stroke-linecap="round" stroke-linejoin="round"/><rect ry="7.752" y="-304.819" x="1145.59" height="15.503" width="60.15" transform="matrix(.83533 .54975 .5491 -.83576 0 0)" rx="9.647" stroke="#000" stroke-width=".644" stroke-linecap="round" stroke-linejoin="round"/><path style="text-indent:0;text-align:start;line-height:normal;text-transform:none;block-progression:tb;marker:none;-inkscape-font-specification:Sans" d="M786.752 785.965a6 6 0 0 0-2.875.843 6 6 0 0 0-2.062 8.25l13.062 22.625c-2.573.255-1.924.177-23.594 2.344a5 5 0 0 0-2.343.813 5 5 0 0 0 3.312 9.156c28.503-2.851 30.657-3.054 31.063-3.094h.156a6 6 0 0 0 1.625-.156 6 6 0 0 0 .031 0l.25-.031a5.007 5.007 0 0 0 4.25-6.5 6 6 0 0 0-.781-2.375l-16.625-28.782a6 6 0 0 0-5.469-3.093z" font-weight="400" color="#000" stroke="#fff" overflow="visible" font-family="Sans"/></g><g fill="#d40000" stroke="#d40000" opacity=".5"><path d="M518.735 291.837H337.867" stroke-width="14.945"/><path d="M327.681 291.836l4.64-2.678 4.64-2.68V297.195l-4.64-2.679z" stroke-width="14.953841"/></g><g fill="#d40000" stroke="#d40000" opacity=".5"><path d="M530.735 291.837h271.302" stroke-width="14.945"/><path d="M809.707 291.836l-4.64-2.678-4.64-2.68V297.195l4.64-2.679z" stroke-width="14.953841"/></g><g fill="#d40000" stroke="#d40000"><path d="M524.902 441.25h90.434" stroke-width="14.945"/><path d="M624.616 441.25l-4.64-2.679-4.64-2.679v10.716l4.64-2.679z" stroke-width="14.953841"/></g><g ns0:text="$\\vec{F}_{\\rm{2}}$" ns0:preamble="/home/waldgeist/data/sphinx/inkscape-preamble.tex" transform="translate(-799.61 -611.907) scale(6.43026)" opacity=".5" fill="#d40000" stroke="#d40000"><defs><symbol overflow="visible" id="f"><path d="M5.36-5.938c-.141.141-.47.422-.47.594 0 .094.094.203.188.203s.14-.078.203-.14c.11-.14.344-.422.782-.64.062-.048.171-.095.171-.204 0-.11-.078-.156-.14-.203a1.034 1.034 0 0 1-.407-.563c-.03-.093-.062-.234-.203-.234-.14 0-.203.14-.203.219 0 .047.078.36.235.578h-3.36c-.156 0-.344 0-.344.203 0 .188.188.188.344.188z" stroke="none"/></symbol><symbol overflow="visible" id="g"><path d="M3.016-3.234h.968c.75 0 .829.156.829.437 0 .078 0 .188-.063.5-.031.047-.031.078-.031.11 0 .078.062.109.11.109.109 0 .109-.031.155-.203l.547-2.172c.032-.11.032-.125.032-.156a.117.117 0 0 0-.125-.11c-.094 0-.11.047-.141.219-.219.766-.438.953-1.297.953h-.906l.64-2.531c.094-.36.11-.39.547-.39h1.313c1.218 0 1.453.327 1.453 1.093 0 .234 0 .266-.031.547C7-4.703 7-4.688 7-4.656c0 .047.031.125.125.125.11 0 .11-.063.125-.25l.203-1.735c.031-.265-.016-.265-.266-.265h-4.89c-.188 0-.297 0-.297.203 0 .11.094.11.281.11.375 0 .656 0 .656.171 0 .047 0 .063-.062.25L1.562-.78c-.093.39-.109.469-.906.469-.172 0-.281 0-.281.187C.375 0 .5 0 .531 0c.281 0 1.031-.031 1.313-.031C2.172-.031 3 0 3.328 0c.094 0 .203 0 .203-.188 0-.078-.047-.109-.047-.109-.03-.016-.062-.016-.28-.016-.22 0-.267 0-.517-.015-.296-.031-.328-.078-.328-.203 0-.016 0-.078.047-.219z" stroke="none"/></symbol><symbol overflow="visible" id="h"><path d="M3.516-1.266H3.28c-.015.157-.094.563-.187.625-.047.047-.578.047-.688.047H1.125c.734-.64.984-.844 1.39-1.172.516-.406 1-.843 1-1.5 0-.843-.734-1.359-1.624-1.359-.86 0-1.454.61-1.454 1.25 0 .344.297.39.376.39.156 0 .359-.124.359-.374 0-.125-.047-.375-.406-.375.218-.485.687-.641 1.015-.641.703 0 1.063.547 1.063 1.11 0 .609-.438 1.078-.656 1.328L.516-.266C.437-.203.437-.187.437 0h2.876z" stroke="none"/></symbol></defs><use xlink:href="#f" x="224.901" y="132.246" width="1052.362" height="744.094"/><use xlink:href="#g" x="223.432" y="134.765" width="1052.362" height="744.094"/><use xlink:href="#h" x="229.839" y="136.259" width="1052.362" height="744.094"/></g><g transform="translate(-1045.925 -611.907) scale(6.43026)" ns0:preamble="/home/waldgeist/data/sphinx/inkscape-preamble.tex" ns0:text="$\\vec{F}_{\\rm{1}}$" opacity=".5" fill="#d40000" stroke="#d40000"><defs><symbol id="i" overflow="visible"><path d="M5.36-5.938c-.141.141-.47.422-.47.594 0 .094.094.203.188.203s.14-.078.203-.14c.11-.14.344-.422.782-.64.062-.048.171-.095.171-.204 0-.11-.078-.156-.14-.203a1.034 1.034 0 0 1-.407-.563c-.03-.093-.062-.234-.203-.234-.14 0-.203.14-.203.219 0 .047.078.36.235.578h-3.36c-.156 0-.344 0-.344.203 0 .188.188.188.344.188z" stroke="none"/></symbol><symbol id="j" overflow="visible"><path d="M3.016-3.234h.968c.75 0 .829.156.829.437 0 .078 0 .188-.063.5-.031.047-.031.078-.031.11 0 .078.062.109.11.109.109 0 .109-.031.155-.203l.547-2.172c.032-.11.032-.125.032-.156a.117.117 0 0 0-.125-.11c-.094 0-.11.047-.141.219-.219.766-.438.953-1.297.953h-.906l.64-2.531c.094-.36.11-.39.547-.39h1.313c1.218 0 1.453.327 1.453 1.093 0 .234 0 .266-.031.547C7-4.703 7-4.688 7-4.656c0 .047.031.125.125.125.11 0 .11-.063.125-.25l.203-1.735c.031-.265-.016-.265-.266-.265h-4.89c-.188 0-.297 0-.297.203 0 .11.094.11.281.11.375 0 .656 0 .656.171 0 .047 0 .063-.062.25L1.562-.78c-.093.39-.109.469-.906.469-.172 0-.281 0-.281.187C.375 0 .5 0 .531 0c.281 0 1.031-.031 1.313-.031C2.172-.031 3 0 3.328 0c.094 0 .203 0 .203-.188 0-.078-.047-.109-.047-.109-.03-.016-.062-.016-.28-.016-.22 0-.267 0-.517-.015-.296-.031-.328-.078-.328-.203 0-.016 0-.078.047-.219z" stroke="none"/></symbol><symbol id="k" overflow="visible"><path d="M2.328-4.438c0-.187 0-.187-.203-.187-.453.438-1.078.438-1.36.438v.25c.157 0 .626 0 1-.188v3.547c0 .234 0 .328-.687.328H.812V0c.125 0 .985-.031 1.235-.031.219 0 1.094.031 1.25.031v-.25H3.03c-.703 0-.703-.094-.703-.328z" stroke="none"/></symbol></defs><use y="132.246" x="224.901" xlink:href="#i" width="1052.362" height="744.094"/><use y="134.765" x="223.432" xlink:href="#j" width="1052.362" height="744.094"/><use y="136.259" x="229.839" xlink:href="#k" width="1052.362" height="744.094"/></g><path d="M153.844 516.733c4.581-31.414 13.843-75.483 39.736-75.483" fill="none" stroke="#536c53" stroke-width="6" stroke-linecap="round" stroke-linejoin="round"/><g transform="translate(-443.926 -383.268)"><rect width="21.473" height="64.419" x="722.684" y="723.04" ry="10.736" transform="rotate(5.039)" stroke="#000" stroke-width="6" stroke-linecap="round" stroke-linejoin="round"/><g transform="matrix(-1 0 0 1 599.221 298.25)" stroke-linecap="round" stroke-linejoin="round"><rect rx="9.647" transform="rotate(-75.374) skewX(-.044)" width="60.15" height="15.503" x="-605.493" y="118.442" ry="7.752" stroke="#fff" stroke-width=".644"/><rect transform="rotate(30)" ry="7.312" y="494.942" x="218.61" height="14.625" width="55.017" stroke="#000" stroke-width="6"/></g><path d="M680.233 763.868c1.75 6.435-2.048 13.071-8.484 14.821s-13.071-2.049-14.821-8.484c-1.75-6.436 2.048-13.072 8.484-14.822s13.071 2.05 14.821 8.485z" stroke="#000" stroke-width="2.43473724" stroke-linecap="round" stroke-linejoin="round"/><rect transform="rotate(66.312) skewX(.037)" ry="6.581" y="-275.362" x="1030.061" height="13.162" width="55.017" stroke="#000" stroke-width="6" stroke-linecap="round" stroke-linejoin="round"/><rect rx="9.647" transform="matrix(.83533 .54975 .5491 -.83576 0 0)" width="60.15" height="15.503" x="1046.176" y="-370.212" ry="7.752" stroke="#000" stroke-width=".644" stroke-linecap="round" stroke-linejoin="round"/><path d="M667.802 785.965a6 6 0 0 0-2.875.843 6 6 0 0 0-2.063 8.25l13.063 22.625c-2.574.255-1.925.177-23.594 2.344a5 5 0 0 0-2.344.813 5 5 0 0 0 3.313 9.156c28.503-2.851 30.656-3.054 31.062-3.094h.156a6 6 0 0 0 1.625-.156 6 6 0 0 0 .032 0l.25-.031a5.007 5.007 0 0 0 4.25-6.5 6 6 0 0 0-.782-2.375l-16.625-28.782a6 6 0 0 0-5.468-3.093z" style="text-indent:0;text-align:start;line-height:normal;text-transform:none;block-progression:tb;marker:none;-inkscape-font-specification:Sans" font-weight="400" color="#000" stroke="#fff" overflow="visible" font-family="Sans"/></g><g transform="translate(-442.527 -383.268)"><rect transform="rotate(5.039)" ry="10.736" y="712.593" x="841.175" height="64.419" width="21.473" stroke="#000" stroke-width="6" stroke-linecap="round" stroke-linejoin="round"/><g transform="matrix(-1 0 0 1 718.172 298.25)" stroke-linecap="round" stroke-linejoin="round"><rect ry="7.752" y="118.442" x="-605.493" height="15.503" width="60.15" transform="rotate(-75.374) skewX(-.044)" rx="9.647" stroke="#fff" stroke-width=".644"/><rect width="55.017" height="14.625" x="218.61" y="494.942" ry="7.312" transform="rotate(30)" stroke="#000" stroke-width="6"/></g><path d="M799.184 763.868c1.75 6.435-2.049 13.071-8.485 14.821-6.435 1.75-13.071-2.049-14.82-8.484-1.75-6.436 2.048-13.072 8.483-14.822 6.436-1.75 13.072 2.05 14.822 8.485z" stroke="#000" stroke-width="2.43473724" stroke-linecap="round" stroke-linejoin="round"/><rect width="55.017" height="13.162" x="1077.919" y="-384.291" ry="6.581" transform="rotate(66.312) skewX(.037)" stroke="#000" stroke-width="6" stroke-linecap="round" stroke-linejoin="round"/><rect ry="7.752" y="-304.819" x="1145.59" height="15.503" width="60.15" transform="matrix(.83533 .54975 .5491 -.83576 0 0)" rx="9.647" stroke="#000" stroke-width=".644" stroke-linecap="round" stroke-linejoin="round"/><path style="text-indent:0;text-align:start;line-height:normal;text-transform:none;block-progression:tb;marker:none;-inkscape-font-specification:Sans" d="M786.752 785.965a6 6 0 0 0-2.875.843 6 6 0 0 0-2.062 8.25l13.062 22.625c-2.573.255-1.924.177-23.594 2.344a5 5 0 0 0-2.343.813 5 5 0 0 0 3.312 9.156c28.503-2.851 30.657-3.054 31.063-3.094h.156a6 6 0 0 0 1.625-.156 6 6 0 0 0 .031 0l.25-.031a5.007 5.007 0 0 0 4.25-6.5 6 6 0 0 0-.781-2.375l-16.625-28.782a6 6 0 0 0-5.469-3.093z" font-weight="400" color="#000" stroke="#fff" overflow="visible" font-family="Sans"/></g><path d="M1006.527 516.733c-4.581-31.414-13.843-75.483-39.736-75.483" fill="none" stroke="#536c53" stroke-width="6" stroke-linecap="round" stroke-linejoin="round"/></svg>