<svg xmlns:ns0="http://www.iki.fi/pav/software/textext/" xmlns="http://www.w3.org/2000/svg" xmlns:xlink="http://www.w3.org/1999/xlink" height="1052.362" width="744.094"><title>Kraftaddition: Kinder mit Schlitten</title><defs><marker orient="auto" id="l" overflow="visible"><path d="M2.308 0l-3.46 2v-4l3.46 2z" fill-rule="evenodd" stroke="#000" stroke-width=".4pt"/></marker><linearGradient id="d"><stop offset="0" stop-opacity="0"/><stop offset="1" stop-color="#fff"/></linearGradient><linearGradient id="e"><stop offset="0" stop-color="#fff"/><stop offset="1" stop-color="#fff" stop-opacity="0"/></linearGradient><linearGradient id="f"><stop offset="0" stop-color="#1a1a1a" stop-opacity=".828"/><stop offset="1" stop-color="#fff"/></linearGradient><linearGradient id="a"><stop offset="0" stop-opacity="0"/><stop offset="1" stop-color="#fff"/></linearGradient><linearGradient id="b"><stop offset="0" stop-color="#ebebeb"/><stop offset="1" stop-color="#fff" stop-opacity="0"/></linearGradient><linearGradient id="c"><stop offset="0" stop-color="#0e0e0e" stop-opacity=".746"/><stop offset="1" stop-color="#fff"/></linearGradient><pattern patternUnits="userSpaceOnUse" width="30.066" height="5.181" id="g"><path d="M7.597.061C5.079-.187 2.656.302-.01 1.788v1.273c2.783-1.63 5.183-2.009 7.482-1.781 2.298.228 4.497 1.081 6.781 1.938 4.567 1.713 9.551 3.458 15.813-.157l-.004-1.273c-6.44 3.709-10.816 1.982-15.371.273-2.278-.854-4.576-1.75-7.094-2z"/></pattern><pattern patternTransform="translate(.25)" id="h" xlink:href="#g"/></defs><rect width="1011.442" height="628.482" x="7.646" y="240.491" rx="0" ry="0" fill="#fff" stroke="#fff" stroke-width="3" stroke-linecap="round" stroke-dasharray="3,3"/><g fill="#d40000" stroke="#d40000"><path d="M258.651 154.38l301.916 1.766" stroke-width="10.305" transform="matrix(.50389 .29133 .29092 -.5046 215.557 684.42)"/><path d="M-707.107 1620.068l-5.249-9.091-5.249-9.092h20.996l-5.249 9.091z" transform="matrix(-.14847 .25754 .25717 .14868 21.823 710.176)" stroke-width="26.921"/></g><g transform="matrix(3.19892 0 0 3.19892 -214.032 375.624)" ns0:preamble="/home/waldgeist/data/sphinx/test.tex" ns0:text="$\\vec{F}_{\\rm{2}}$\n" fill="#d40000"><defs><symbol id="i" overflow="visible"><path d="M5.36-5.938c-.141.141-.47.422-.47.594 0 .094.094.203.188.203s.14-.078.203-.14c.11-.14.344-.422.782-.64.062-.048.171-.095.171-.204 0-.11-.078-.156-.14-.203a1.034 1.034 0 0 1-.407-.563c-.03-.093-.062-.234-.203-.234-.14 0-.203.14-.203.219 0 .047.078.36.235.578h-3.36c-.156 0-.344 0-.344.203 0 .188.188.188.344.188zm0 0"/></symbol><symbol id="j" overflow="visible"><path d="M3.016-3.234h.968c.75 0 .829.156.829.437 0 .078 0 .188-.063.5-.031.047-.031.078-.031.11 0 .078.062.109.11.109.109 0 .109-.031.155-.203l.547-2.172c.032-.11.032-.125.032-.156a.117.117 0 0 0-.125-.11c-.094 0-.11.047-.141.219-.219.766-.438.953-1.297.953h-.906l.64-2.531c.094-.36.11-.39.547-.39h1.313c1.218 0 1.453.327 1.453 1.093 0 .234 0 .266-.031.547C7-4.703 7-4.688 7-4.656c0 .047.031.125.125.125.11 0 .11-.063.125-.25l.203-1.735c.031-.265-.016-.265-.266-.265h-4.89c-.188 0-.297 0-.297.203 0 .11.094.11.281.11.375 0 .656 0 .656.171 0 .047 0 .063-.062.25L1.562-.78c-.093.39-.109.469-.906.469-.172 0-.281 0-.281.187C.375 0 .5 0 .531 0c.281 0 1.031-.031 1.313-.031C2.172-.031 3 0 3.328 0c.094 0 .203 0 .203-.188 0-.078-.047-.109-.047-.109-.03-.016-.062-.016-.28-.016-.22 0-.267 0-.517-.015-.296-.031-.328-.078-.328-.203 0-.016 0-.078.047-.219zm0 0"/></symbol><symbol id="k" overflow="visible"><path d="M3.516-1.266H3.28c-.015.157-.094.563-.187.625-.047.047-.578.047-.688.047H1.125c.734-.64.984-.844 1.39-1.172.516-.406 1-.843 1-1.5 0-.843-.734-1.359-1.624-1.359-.86 0-1.454.61-1.454 1.25 0 .344.297.39.376.39.156 0 .359-.124.359-.374 0-.125-.047-.375-.406-.375.218-.485.687-.641 1.015-.641.703 0 1.063.547 1.063 1.11 0 .609-.438 1.078-.656 1.328L.516-.266C.437-.203.437-.187.437 0h2.876zm0 0"/></symbol></defs><use y="132.247" x="224.901" xlink:href="#i" width="1052.362" height="744.094"/><use y="134.765" x="223.432" xlink:href="#j" width="1052.362" height="744.094"/><use y="136.259" x="229.839" xlink:href="#k" width="1052.362" height="744.094"/></g><g fill="#d40000" stroke="#d40000"><path d="M259.156 155.961l301.41.185" stroke-width="10.305" transform="matrix(.58204 -.00036 -.00036 .58246 158.678 450.418)"/><path d="M-707.107 1620.068l-5.249-9.091-5.249-9.092h20.996l-5.249 9.091z" transform="matrix(.0002 -.29727 .29706 -.00017 3.777 331.245)" stroke-width="26.921"/></g><rect rx="6.835" transform="matrix(.00864 .99996 -1 .00434 0 0)" width="32.472" height="11.083" x="354.604" y="-542.239" ry="5.541"/><rect ry="6.422" y="-289.556" x="552.616" height="12.844" width="32.473" transform="matrix(.50865 .86097 -.86415 .50324 0 0)" rx="6.835"/><rect rx="9.492" transform="matrix(.49074 -.8713 .86778 .49695 0 0)" width="45.094" height="18.983" x="-37.382" y="609.016" ry="9.492"/><rect ry="4.495" y="430.951" x="386.937" height="8.989" width="53.231" transform="matrix(.96481 -.26295 .26729 .96362 0 0)" rx="5.23" stroke="#fff" stroke-width=".45" stroke-linecap="round" stroke-linejoin="round"/><path fill="#a05a2c" stroke="#000" stroke-width=".68" stroke-linecap="round" stroke-linejoin="round" d="M141.388 383.263h413.128v12.442H141.388z"/><path d="M551.99 292.407a7.963 7.963 0 1 1-15.926 0 7.963 7.963 0 1 1 15.926 0z" stroke="#000" stroke-width="1.56471198" stroke-linecap="round" stroke-linejoin="round"/><rect ry="6.401" y="-623.137" x="31.274" height="12.801" width="58.455" transform="rotate(119.682) skewX(.07)" rx="6.401" stroke="#000" stroke-width=".563" stroke-linecap="round" stroke-linejoin="round"/><g color="#000" fill="#666" stroke="#4d4d4d"><path d="M354.663 366.074c0 8.935-7.243 16.179-16.179 16.179-8.935 0-16.179-7.244-16.179-16.18 0-8.935 7.244-16.178 16.18-16.178 8.935 0 16.178 7.243 16.178 16.179zM230.414 366.074c0 8.935-7.243 16.179-16.179 16.179-8.935 0-16.179-7.244-16.179-16.18 0-8.935 7.244-16.178 16.18-16.178 8.935 0 16.178 7.243 16.178 16.179z" style="marker:none" stroke-width="1.0002571199999999" overflow="visible"/><path style="marker:none" stroke-linecap="round" stroke-linejoin="round" overflow="visible" d="M175.344 335.763h202.03v13.132h-202.03z"/></g><path d="M377.375 342.329l112.335-24.47" fill="none" stroke="#916f6f" stroke-width="4" stroke-linecap="round"/><g fill="#d40000" stroke="#d40000"><path d="M391.717 156.145h168.85" stroke-width="10.305" stroke-linecap="round" transform="matrix(.56883 -.12333 .12272 .56938 137.477 301.185)"/><path d="M-707.107 1620.068l-5.249-9.091-5.249-9.092h20.996l-5.249 9.091z" transform="matrix(-.06262 -.2906 .29032 -.06293 -39.106 217.43)" stroke-width="26.921"/></g><path d="M377.375 343.93h99.838" fill="#d40000" stroke="#d40000" stroke-width="2" stroke-linecap="round" stroke-dasharray="2.00000024,4.00000048"/><path d="M377.375 340.29v-22.925" fill="#d40000" stroke="#d40000" stroke-width="2" stroke-linecap="round" stroke-dasharray="2.00000023999999987,4.00000047999999975"/><path d="M524.819 347.848a38.768 38.768 0 0 1 25.444 36.406" transform="matrix(.16457 -.34237 -.34644 -.16825 497.123 581.326)" fill="none" stroke="#000" stroke-width="3.922" marker-end="url(#l)"/><g ns0:text="$\\alpha$\n" transform="matrix(1.59946 0 0 1.59946 86.47 124.851)" fill="#d40000"><defs><symbol overflow="visible" id="m"><path d="M4.75-2.36c0-1.562-.922-2.046-1.656-2.046-1.375 0-2.688 1.422-2.688 2.828C.406-.641 1 .109 2.031.109c.625 0 1.344-.234 2.094-.843.125.53.453.843.906.843.532 0 .844-.546.844-.703 0-.078-.063-.11-.125-.11-.063 0-.094.032-.125.11-.188.485-.547.485-.563.485-.312 0-.312-.782-.312-1.016 0-.203 0-.234.11-.344C5.796-2.656 6-3.812 6-3.812c0-.032-.016-.11-.125-.11-.094 0-.094.031-.14.219-.188.625-.516 1.375-.985 1.969zM4.094-.983c-.89.765-1.657.875-2.047.875-.594 0-.906-.454-.906-1.094 0-.484.265-1.563.578-2.063.468-.734 1.015-.921 1.36-.921.983 0 .983 1.312.983 2.078 0 .375 0 .953.032 1.125z"/></symbol></defs><use height="1052.362" width="744.094" xlink:href="#m" x="223.432" y="134.765" fill="#000"/></g><g transform="matrix(3.19892 0 0 3.19892 -272.437 -117.594)" ns0:text="$\\vec{F}_{\\rm{}}$\n" fill="#d40000"><defs><symbol id="n" overflow="visible"><path d="M5.36-5.938c-.141.141-.47.422-.47.594 0 .094.094.203.188.203s.14-.078.203-.14c.11-.14.344-.422.782-.64.062-.048.171-.095.171-.204 0-.11-.078-.156-.14-.203a1.034 1.034 0 0 1-.407-.563c-.03-.093-.062-.234-.203-.234-.14 0-.203.14-.203.219 0 .047.078.36.235.578h-3.36c-.156 0-.344 0-.344.203 0 .188.188.188.344.188z"/></symbol><symbol id="o" overflow="visible"><path d="M3.016-3.234h.968c.75 0 .829.156.829.437 0 .078 0 .188-.063.5-.031.047-.031.078-.031.11 0 .078.062.109.11.109.109 0 .109-.031.155-.203l.547-2.172c.032-.11.032-.125.032-.156a.117.117 0 0 0-.125-.11c-.094 0-.11.047-.141.219-.219.766-.438.953-1.297.953h-.906l.64-2.531c.094-.36.11-.39.547-.39h1.313c1.218 0 1.453.327 1.453 1.093 0 .234 0 .266-.031.547C7-4.703 7-4.688 7-4.656c0 .047.031.125.125.125.11 0 .11-.063.125-.25l.203-1.735c.031-.265-.016-.265-.266-.265h-4.89c-.188 0-.297 0-.297.203 0 .11.094.11.281.11.375 0 .656 0 .656.171 0 .047 0 .063-.062.25L1.562-.78c-.093.39-.109.469-.906.469-.172 0-.281 0-.281.187C.375 0 .5 0 .531 0c.281 0 1.031-.031 1.313-.031C2.172-.031 3 0 3.328 0c.094 0 .203 0 .203-.188 0-.078-.047-.109-.047-.109-.03-.016-.062-.016-.28-.016-.22 0-.267 0-.517-.015-.296-.031-.328-.078-.328-.203 0-.016 0-.078.047-.219z"/></symbol></defs><use y="132.247" x="224.901" xlink:href="#n" width="744.094" height="1052.362"/><use y="134.765" x="223.432" xlink:href="#o" width="744.094" height="1052.362"/></g><path d="M-707.107 1620.068l-5.249-9.091-5.249-9.092h20.996l-5.249 9.091z" transform="matrix(-.29727 -.0002 -.00017 -.29706 167.451 796.6)" fill="#d40000" stroke="#d40000" stroke-width="5.048"/><path d="M-707.107 1620.068l-5.249-9.091-5.249-9.092h20.996l-5.249 9.091z" transform="matrix(.0002 -.29727 .29706 -.00017 -.107 134.01)" fill="#d40000" stroke="#d40000" stroke-width="5.048"/></svg>