<?xml version="1.0" encoding="UTF-8" standalone="no"?>
<!-- Created with Inkscape (http://www.inkscape.org/) -->

<svg
   xmlns:ns0="http://www.iki.fi/pav/software/textext/"
   xmlns:dc="http://purl.org/dc/elements/1.1/"
   xmlns:cc="http://creativecommons.org/ns#"
   xmlns:rdf="http://www.w3.org/1999/02/22-rdf-syntax-ns#"
   xmlns:svg="http://www.w3.org/2000/svg"
   xmlns="http://www.w3.org/2000/svg"
   xmlns:xlink="http://www.w3.org/1999/xlink"
   xmlns:sodipodi="http://sodipodi.sourceforge.net/DTD/sodipodi-0.dtd"
   xmlns:inkscape="http://www.inkscape.org/namespaces/inkscape"
   width="210mm"
   height="297mm"
   id="svg21881"
   version="1.1"
   inkscape:version="0.48.4 r9939"
   sodipodi:docname="kraftzerlegung-bei-bekannten-winkeln.svg">
  <sodipodi:namedview
     id="base"
     pagecolor="#ffffff"
     bordercolor="#666666"
     borderopacity="1.0"
     inkscape:pageopacity="0.0"
     inkscape:pageshadow="2"
     inkscape:zoom="0.66855469"
     inkscape:cx="115.72629"
     inkscape:cy="700.98645"
     inkscape:document-units="px"
     inkscape:current-layer="layer1"
     showgrid="false"
     inkscape:object-paths="true"
     inkscape:object-nodes="true"
     inkscape:snap-smooth-nodes="true"
     inkscape:snap-midpoints="true"
     inkscape:snap-object-midpoints="true"
     inkscape:snap-center="true"
     inkscape:snap-page="true"
     inkscape:snap-global="true"
     inkscape:window-width="1600"
     inkscape:window-height="1150"
     inkscape:window-x="0"
     inkscape:window-y="0"
     inkscape:window-maximized="1"
     showguides="true"
     inkscape:guide-bbox="true">
    <inkscape:grid
       id="grid29437"
       type="xygrid" />
  </sodipodi:namedview>
  <title
     id="title29706">Zerlegung bei bekannten Winkeln </title>
  <defs
     id="defs21883">
    <marker
       inkscape:stockid="Arrow2Mend"
       orient="auto"
       refY="0.0"
       refX="0.0"
       id="Arrow2Mend"
       style="overflow:visible;">
      <path
         id="path6452"
         style="fill-rule:evenodd;stroke-width:0.62500000;stroke-linejoin:round;"
         d="M 8.7185878,4.0337352 L -2.2072895,0.016013256 L 8.7185884,-4.0017078 C 6.9730900,-1.6296469 6.9831476,1.6157441 8.7185878,4.0337352 z "
         transform="scale(0.6) rotate(180) translate(0,0)" />
    </marker>
    <marker
       inkscape:stockid="Arrow1Mend"
       orient="auto"
       refY="0.0"
       refX="0.0"
       id="Arrow1Mend"
       style="overflow:visible;">
      <path
         id="path6434"
         d="M 0.0,0.0 L 5.0,-5.0 L -12.5,0.0 L 5.0,5.0 L 0.0,0.0 z "
         style="fill-rule:evenodd;stroke:#000000;stroke-width:1.0pt;"
         transform="scale(0.4) rotate(180) translate(10,0)" />
    </marker>
  </defs>
  <metadata
     id="metadata21886">
    <rdf:RDF>
      <cc:Work
         rdf:about="">
        <dc:format>image/svg+xml</dc:format>
        <dc:type
           rdf:resource="http://purl.org/dc/dcmitype/StillImage" />
        <dc:title>Zerlegung bei bekannten Winkeln </dc:title>
        <cc:license
           rdf:resource="http://creativecommons.org/licenses/by-nc-sa/3.0/" />
        <dc:date>2014-12-19</dc:date>
        <dc:creator>
          <cc:Agent>
            <dc:title>Bernhard Grotz</dc:title>
          </cc:Agent>
        </dc:creator>
        <dc:rights>
          <cc:Agent>
            <dc:title>Bernhard Grotz</dc:title>
          </cc:Agent>
        </dc:rights>
        <dc:publisher>
          <cc:Agent>
            <dc:title>Bernhard Grotz</dc:title>
          </cc:Agent>
        </dc:publisher>
        <dc:language>de_DE</dc:language>
        <dc:subject>
          <rdf:Bag>
            <rdf:li>Physik</rdf:li>
            <rdf:li>Mechanik</rdf:li>
            <rdf:li>Dynamik</rdf:li>
            <rdf:li>Kraftzerlegung</rdf:li>
          </rdf:Bag>
        </dc:subject>
      </cc:Work>
      <cc:License
         rdf:about="http://creativecommons.org/licenses/by-nc-sa/3.0/">
        <cc:permits
           rdf:resource="http://creativecommons.org/ns#Reproduction" />
        <cc:permits
           rdf:resource="http://creativecommons.org/ns#Distribution" />
        <cc:requires
           rdf:resource="http://creativecommons.org/ns#Notice" />
        <cc:requires
           rdf:resource="http://creativecommons.org/ns#Attribution" />
        <cc:prohibits
           rdf:resource="http://creativecommons.org/ns#CommercialUse" />
        <cc:permits
           rdf:resource="http://creativecommons.org/ns#DerivativeWorks" />
        <cc:requires
           rdf:resource="http://creativecommons.org/ns#ShareAlike" />
      </cc:License>
    </rdf:RDF>
  </metadata>
  <g
     id="layer1"
     inkscape:groupmode="layer"
     inkscape:label="Ebene 1">
    <rect
       y="346.19507"
       x="20.156128"
       height="359.97202"
       width="703.78223"
       id="rect29149"
       style="color:#000000;fill:#ffffff;fill-opacity:1;fill-rule:nonzero;stroke:#ffffff;stroke-width:1.31226254;stroke-linecap:round;stroke-linejoin:bevel;stroke-miterlimit:4;stroke-opacity:1;stroke-dasharray:none;stroke-dashoffset:0;marker:none;visibility:visible;display:inline;overflow:visible;enable-background:accumulate"
       inkscape:export-filename="/home/waldgeist/data/homepage/pics/physik/mechanik/dynamik/kraftzerlegung-bei-bekannten-winkeln.png"
       inkscape:export-xdpi="150"
       inkscape:export-ydpi="150" />
    <g
       inkscape:export-ydpi="150"
       inkscape:export-xdpi="150"
       inkscape:export-filename="/home/waldgeist/data/homepage/pics/physik/mechanik/dynamik/kraftzerlegung-bei-bekannten-winkeln.png"
       id="g8049"
       transform="matrix(0.82782199,0.47794326,-0.47794326,0.82782199,439.00454,-5.5981777)"
       inkscape:transform-center-x="-154.57535"
       inkscape:transform-center-y="0.79522749">
      <g
         inkscape:transform-center-y="-86.327536"
         transform="matrix(0.86602541,-0.50000001,0.50000001,0.86602541,-49.354106,414.92436)"
         inkscape:transform-center-x="-149.52172"
         id="g3460">
        <g
           transform="matrix(1,0,0,-1,-85.03402,474.27777)"
           id="g6315">
          <path
             inkscape:connector-curvature="0"
             id="path6317"
             d="m -14.527132,156.14605 c 149.053902,0 276.017342,0 420.601102,0"
             style="fill:#d40000;stroke:#d40000;stroke-width:6.27689552;stroke-linecap:round;stroke-linejoin:miter;stroke-miterlimit:4;stroke-opacity:1;stroke-dasharray:none"
             sodipodi:nodetypes="cc" />
          <path
             sodipodi:type="star"
             style="fill:#d40000;stroke:#d40000;stroke-width:16.11595726;stroke-miterlimit:4;stroke-dasharray:none"
             id="path6319"
             sodipodi:sides="3"
             sodipodi:cx="-707.10675"
             sodipodi:cy="1607.946"
             sodipodi:r1="12.121831"
             sodipodi:r2="6.060915"
             sodipodi:arg1="1.5707963"
             sodipodi:arg2="2.6179939"
             inkscape:flatsided="false"
             inkscape:rounded="0"
             inkscape:randomized="0"
             d="m -707.10675,1620.0679 -5.24891,-9.0914 -5.2489,-9.0914 10.49781,0 10.49781,0 -5.2489,9.0914 z"
             inkscape:transform-center-y="-0.00017641075"
             transform="matrix(1.645499e-5,-0.5103719,0.5103719,1.645499e-5,-411.47155,-204.76773)"
             inkscape:transform-center-x="-3.0302635" />
        </g>
      </g>
    </g>
    <g
       inkscape:transform-center-x="-40.937375"
       inkscape:export-ydpi="150"
       inkscape:export-xdpi="150"
       inkscape:export-filename="/home/waldgeist/data/homepage/pics/physik/mechanik/dynamik/kraftzerlegung-bei-bekannten-winkeln.png"
       id="g3137"
       transform="matrix(0.90333081,-0.73833897,0.73833897,0.90333081,-571.17754,249.02928)"
       inkscape:transform-center-y="-103.43518">
      <g
         inkscape:transform-center-y="-86.327536"
         transform="matrix(0.86602541,-0.50000001,0.50000001,0.86602541,-49.354106,414.92436)"
         inkscape:transform-center-x="-149.52172"
         id="g3139">
        <g
           transform="matrix(1,0,0,-1,-85.03402,474.27777)"
           id="g3141">
          <path
             inkscape:connector-curvature="0"
             id="path3143"
             d="m 244.29178,155.07379 c 52.29024,0.20759 96.83084,0.38442 147.55289,0.58579"
             style="fill:#d40000;stroke:#d40000;stroke-width:5.14278269;stroke-linecap:round;stroke-linejoin:miter;stroke-miterlimit:4;stroke-opacity:1;stroke-dasharray:none"
             sodipodi:nodetypes="cc" />
          <path
             sodipodi:type="star"
             style="fill:#d40000;stroke:#d40000;stroke-width:13.20412159;stroke-miterlimit:4;stroke-dasharray:none"
             id="path3145"
             sodipodi:sides="3"
             sodipodi:cx="-707.10675"
             sodipodi:cy="1607.946"
             sodipodi:r1="12.121831"
             sodipodi:r2="6.060915"
             sodipodi:arg1="1.5707963"
             sodipodi:arg2="2.6179939"
             inkscape:flatsided="false"
             inkscape:rounded="0"
             inkscape:randomized="0"
             d="m -707.10675,1620.0679 -5.24891,-9.0914 -5.2489,-9.0914 10.49781,0 10.49781,0 -5.2489,9.0914 z"
             inkscape:transform-center-y="-0.00017850742"
             transform="matrix(1.645499e-5,-0.5103719,0.5103719,1.645499e-5,-422.31315,-205.1856)"
             inkscape:transform-center-x="-3.0302612" />
        </g>
      </g>
    </g>
    <g
       inkscape:transform-center-y="-40.937807"
       transform="matrix(0.73833897,-0.90333081,-0.90333081,-0.73833897,641.79539,1227.6563)"
       id="g3147"
       inkscape:export-filename="/home/waldgeist/data/homepage/pics/physik/mechanik/dynamik/kraftzerlegung-bei-bekannten-winkeln.png"
       inkscape:export-xdpi="150"
       inkscape:export-ydpi="150"
       inkscape:transform-center-x="-103.43519">
      <g
         id="g3149"
         inkscape:transform-center-x="-149.52172"
         transform="matrix(0.86602541,-0.50000001,0.50000001,0.86602541,-49.354106,414.92436)"
         inkscape:transform-center-y="-86.327536">
        <g
           id="g3151"
           transform="matrix(1,0,0,-1,-85.03402,474.27777)">
          <path
             sodipodi:nodetypes="cc"
             style="fill:#d40000;stroke:#d40000;stroke-width:5.14278173;stroke-linecap:round;stroke-linejoin:miter;stroke-miterlimit:4;stroke-opacity:1;stroke-dasharray:none"
             d="M 89.606178,157.52781 C 240.13905,157.03813 368.36229,156.62103 514.38067,156.14604"
             id="path3153"
             inkscape:connector-curvature="0" />
          <path
             inkscape:transform-center-x="-3.0302635"
             transform="matrix(1.645499e-5,-0.5103719,0.5103719,1.645499e-5,-298.60784,-203.04254)"
             inkscape:transform-center-y="-0.00017641075"
             d="m -707.10675,1620.0679 -5.24891,-9.0914 -5.2489,-9.0914 10.49781,0 10.49781,0 -5.2489,9.0914 z"
             inkscape:randomized="0"
             inkscape:rounded="0"
             inkscape:flatsided="false"
             sodipodi:arg2="2.6179939"
             sodipodi:arg1="1.5707963"
             sodipodi:r2="6.060915"
             sodipodi:r1="12.121831"
             sodipodi:cy="1607.946"
             sodipodi:cx="-707.10675"
             sodipodi:sides="3"
             id="path3155"
             style="fill:#d40000;stroke:#d40000;stroke-width:13.20412159;stroke-miterlimit:4;stroke-dasharray:none"
             sodipodi:type="star" />
        </g>
      </g>
    </g>
    <g
       inkscape:export-ydpi="150"
       inkscape:export-xdpi="150"
       inkscape:export-filename="/home/waldgeist/data/homepage/pics/physik/mechanik/dynamik/kraftzerlegung-bei-bekannten-winkeln.png"
       id="g3254"
       style="fill:#d40000;fill-opacity:1;stroke:#d40000;stroke-width:1;stroke-opacity:1"
       transform="matrix(5.2927626,0,0,5.2927626,-651.60051,-52.851456)"
       ns0:preamble="/home/waldgeist/data/sphinx/inkscape-preamble.tex"
       ns0:text="$\\vec{F}_{\\rm{1}}$">
      <defs
         id="defs3256">
        <g
           id="g3258">
          <symbol
             style="overflow:visible"
             id="textext-0e0fd0b2-0"
             overflow="visible">
            <path
               inkscape:connector-curvature="0"
               id="path3261"
               d=""
               style="stroke:none" />
          </symbol>
          <symbol
             style="overflow:visible"
             id="textext-0e0fd0b2-1"
             overflow="visible">
            <path
               inkscape:connector-curvature="0"
               id="path3264"
               d="m 5.359375,-5.9375 c -0.140625,0.140625 -0.46875,0.421875 -0.46875,0.59375 0,0.09375 0.09375,0.203125 0.1875,0.203125 0.09375,0 0.140625,-0.078125 0.203125,-0.140625 C 5.390625,-5.421875 5.625,-5.703125 6.0625,-5.921875 6.125,-5.96875 6.234375,-6.015625 6.234375,-6.125 6.234375,-6.234375 6.15625,-6.28125 6.09375,-6.328125 5.875,-6.484375 5.765625,-6.65625 5.6875,-6.890625 5.65625,-6.984375 5.625,-7.125 5.484375,-7.125 c -0.140625,0 -0.203125,0.140625 -0.203125,0.21875 0,0.046875 0.078125,0.359375 0.234375,0.578125 l -3.359375,0 c -0.15625,0 -0.34375,0 -0.34375,0.203125 0,0.1875 0.1875,0.1875 0.34375,0.1875 z"
               style="stroke:none" />
          </symbol>
          <symbol
             style="overflow:visible"
             id="textext-0e0fd0b2-2"
             overflow="visible">
            <path
               inkscape:connector-curvature="0"
               id="path3267"
               d="m 3.015625,-3.234375 0.96875,0 c 0.75,0 0.828125,0.15625 0.828125,0.4375 0,0.078125 0,0.1875 -0.0625,0.5 C 4.71875,-2.25 4.71875,-2.21875 4.71875,-2.1875 c 0,0.078125 0.0625,0.109375 0.109375,0.109375 0.109375,0 0.109375,-0.03125 0.15625,-0.203125 L 5.53125,-4.453125 C 5.5625,-4.5625 5.5625,-4.578125 5.5625,-4.609375 5.5625,-4.625 5.546875,-4.71875 5.4375,-4.71875 5.34375,-4.71875 5.328125,-4.671875 5.296875,-4.5 5.078125,-3.734375 4.859375,-3.546875 4,-3.546875 l -0.90625,0 0.640625,-2.53125 C 3.828125,-6.4375 3.84375,-6.46875 4.28125,-6.46875 l 1.3125,0 c 1.21875,0 1.453125,0.328125 1.453125,1.09375 0,0.234375 0,0.265625 -0.03125,0.546875 C 7,-4.703125 7,-4.6875 7,-4.65625 c 0,0.046875 0.03125,0.125 0.125,0.125 0.109375,0 0.109375,-0.0625 0.125,-0.25 L 7.453125,-6.515625 C 7.484375,-6.78125 7.4375,-6.78125 7.1875,-6.78125 l -4.890625,0 c -0.1875,0 -0.296875,0 -0.296875,0.203125 0,0.109375 0.09375,0.109375 0.28125,0.109375 0.375,0 0.65625,0 0.65625,0.171875 0,0.046875 0,0.0625 -0.0625,0.25 L 1.5625,-0.78125 c -0.09375,0.390625 -0.109375,0.46875 -0.90625,0.46875 -0.171875,0 -0.28125,0 -0.28125,0.1875 C 0.375,0 0.5,0 0.53125,0 0.8125,0 1.5625,-0.03125 1.84375,-0.03125 2.171875,-0.03125 3,0 3.328125,0 3.421875,0 3.53125,0 3.53125,-0.1875 3.53125,-0.265625 3.484375,-0.296875 3.484375,-0.296875 3.453125,-0.3125 3.421875,-0.3125 3.203125,-0.3125 c -0.21875,0 -0.265625,0 -0.515625,-0.015625 -0.296875,-0.03125 -0.328125,-0.078125 -0.328125,-0.203125 0,-0.015625 0,-0.078125 0.046875,-0.21875 z"
               style="stroke:none" />
          </symbol>
          <symbol
             style="overflow:visible"
             id="textext-0e0fd0b2-3"
             overflow="visible">
            <path
               inkscape:connector-curvature="0"
               id="path3270"
               d=""
               style="stroke:none" />
          </symbol>
          <symbol
             style="overflow:visible"
             id="textext-0e0fd0b2-4"
             overflow="visible">
            <path
               inkscape:connector-curvature="0"
               id="path3273"
               d="m 2.328125,-4.4375 c 0,-0.1875 0,-0.1875 -0.203125,-0.1875 -0.453125,0.4375 -1.078125,0.4375 -1.359375,0.4375 l 0,0.25 c 0.15625,0 0.625,0 1,-0.1875 l 0,3.546875 c 0,0.234375 0,0.328125 -0.6875,0.328125 l -0.265625,0 0,0.25 c 0.125,0 0.984375,-0.03125 1.234375,-0.03125 0.21875,0 1.09375,0.03125 1.25,0.03125 l 0,-0.25 -0.265625,0 c -0.703125,0 -0.703125,-0.09375 -0.703125,-0.328125 z"
               style="stroke:none" />
          </symbol>
        </g>
      </defs>
      <g
         style="fill:#d40000;fill-opacity:1;stroke-width:1"
         id="textext-0e0fd0b2-5">
        <g
           id="g3276"
           style="fill:#d40000;fill-opacity:1;stroke-width:1">
          <use
             style="fill:#d40000;fill-opacity:1;stroke-width:1"
             height="1052.3622"
             width="744.09448"
             id="use3278"
             y="132.246"
             x="224.901"
             xlink:href="#textext-0e0fd0b2-1" />
        </g>
        <g
           id="g3280"
           style="fill:#d40000;fill-opacity:1;stroke-width:1">
          <use
             style="fill:#d40000;fill-opacity:1;stroke-width:1"
             height="1052.3622"
             width="744.09448"
             id="use3282"
             y="134.765"
             x="223.43201"
             xlink:href="#textext-0e0fd0b2-2" />
        </g>
        <g
           id="g3284"
           style="fill:#d40000;fill-opacity:1;stroke-width:1">
          <use
             style="fill:#d40000;fill-opacity:1;stroke-width:1"
             height="1052.3622"
             width="744.09448"
             id="use3286"
             y="136.259"
             x="229.839"
             xlink:href="#textext-0e0fd0b2-4" />
        </g>
      </g>
    </g>
    <g
       inkscape:export-ydpi="150"
       inkscape:export-xdpi="150"
       inkscape:export-filename="/home/waldgeist/data/homepage/pics/physik/mechanik/dynamik/kraftzerlegung-bei-bekannten-winkeln.png"
       ns0:text="$\\vec{F}_{\\rm{2}}$"
       ns0:preamble="/home/waldgeist/data/sphinx/inkscape-preamble.tex"
       transform="matrix(5.2927626,0,0,5.2927626,-1038.4787,-298.18284)"
       style="fill:#d40000;fill-opacity:1;stroke:#d40000;stroke-width:1;stroke-opacity:1"
       id="g3480">
      <defs
         id="defs3482">
        <g
           id="g3484">
          <symbol
             style="overflow:visible"
             overflow="visible"
             id="textext-f8365dce-0">
            <path
               inkscape:connector-curvature="0"
               style="stroke:none"
               d=""
               id="path3487" />
          </symbol>
          <symbol
             style="overflow:visible"
             overflow="visible"
             id="textext-f8365dce-1">
            <path
               inkscape:connector-curvature="0"
               style="stroke:none"
               d="m 5.359375,-5.9375 c -0.140625,0.140625 -0.46875,0.421875 -0.46875,0.59375 0,0.09375 0.09375,0.203125 0.1875,0.203125 0.09375,0 0.140625,-0.078125 0.203125,-0.140625 C 5.390625,-5.421875 5.625,-5.703125 6.0625,-5.921875 6.125,-5.96875 6.234375,-6.015625 6.234375,-6.125 6.234375,-6.234375 6.15625,-6.28125 6.09375,-6.328125 5.875,-6.484375 5.765625,-6.65625 5.6875,-6.890625 5.65625,-6.984375 5.625,-7.125 5.484375,-7.125 c -0.140625,0 -0.203125,0.140625 -0.203125,0.21875 0,0.046875 0.078125,0.359375 0.234375,0.578125 l -3.359375,0 c -0.15625,0 -0.34375,0 -0.34375,0.203125 0,0.1875 0.1875,0.1875 0.34375,0.1875 z"
               id="path3490" />
          </symbol>
          <symbol
             style="overflow:visible"
             overflow="visible"
             id="textext-f8365dce-2">
            <path
               inkscape:connector-curvature="0"
               style="stroke:none"
               d="m 3.015625,-3.234375 0.96875,0 c 0.75,0 0.828125,0.15625 0.828125,0.4375 0,0.078125 0,0.1875 -0.0625,0.5 C 4.71875,-2.25 4.71875,-2.21875 4.71875,-2.1875 c 0,0.078125 0.0625,0.109375 0.109375,0.109375 0.109375,0 0.109375,-0.03125 0.15625,-0.203125 L 5.53125,-4.453125 C 5.5625,-4.5625 5.5625,-4.578125 5.5625,-4.609375 5.5625,-4.625 5.546875,-4.71875 5.4375,-4.71875 5.34375,-4.71875 5.328125,-4.671875 5.296875,-4.5 5.078125,-3.734375 4.859375,-3.546875 4,-3.546875 l -0.90625,0 0.640625,-2.53125 C 3.828125,-6.4375 3.84375,-6.46875 4.28125,-6.46875 l 1.3125,0 c 1.21875,0 1.453125,0.328125 1.453125,1.09375 0,0.234375 0,0.265625 -0.03125,0.546875 C 7,-4.703125 7,-4.6875 7,-4.65625 c 0,0.046875 0.03125,0.125 0.125,0.125 0.109375,0 0.109375,-0.0625 0.125,-0.25 L 7.453125,-6.515625 C 7.484375,-6.78125 7.4375,-6.78125 7.1875,-6.78125 l -4.890625,0 c -0.1875,0 -0.296875,0 -0.296875,0.203125 0,0.109375 0.09375,0.109375 0.28125,0.109375 0.375,0 0.65625,0 0.65625,0.171875 0,0.046875 0,0.0625 -0.0625,0.25 L 1.5625,-0.78125 c -0.09375,0.390625 -0.109375,0.46875 -0.90625,0.46875 -0.171875,0 -0.28125,0 -0.28125,0.1875 C 0.375,0 0.5,0 0.53125,0 0.8125,0 1.5625,-0.03125 1.84375,-0.03125 2.171875,-0.03125 3,0 3.328125,0 3.421875,0 3.53125,0 3.53125,-0.1875 3.53125,-0.265625 3.484375,-0.296875 3.484375,-0.296875 3.453125,-0.3125 3.421875,-0.3125 3.203125,-0.3125 c -0.21875,0 -0.265625,0 -0.515625,-0.015625 -0.296875,-0.03125 -0.328125,-0.078125 -0.328125,-0.203125 0,-0.015625 0,-0.078125 0.046875,-0.21875 z"
               id="path3493" />
          </symbol>
          <symbol
             style="overflow:visible"
             overflow="visible"
             id="textext-f8365dce-3">
            <path
               inkscape:connector-curvature="0"
               style="stroke:none"
               d=""
               id="path3496" />
          </symbol>
          <symbol
             style="overflow:visible"
             overflow="visible"
             id="textext-f8365dce-4">
            <path
               inkscape:connector-curvature="0"
               style="stroke:none"
               d="m 3.515625,-1.265625 -0.234375,0 c -0.015625,0.15625 -0.09375,0.5625 -0.1875,0.625 -0.046875,0.046875 -0.578125,0.046875 -0.6875,0.046875 l -1.28125,0 c 0.734375,-0.640625 0.984375,-0.84375 1.390625,-1.171875 0.515625,-0.40625 1,-0.84375 1,-1.5 0,-0.84375 -0.734375,-1.359375 -1.625,-1.359375 -0.859375,0 -1.453125,0.609375 -1.453125,1.25 0,0.34375 0.296875,0.390625 0.375,0.390625 0.15625,0 0.359375,-0.125 0.359375,-0.375 0,-0.125 -0.046875,-0.375 -0.40625,-0.375 C 0.984375,-4.21875 1.453125,-4.375 1.78125,-4.375 c 0.703125,0 1.0625,0.546875 1.0625,1.109375 0,0.609375 -0.4375,1.078125 -0.65625,1.328125 L 0.515625,-0.265625 C 0.4375,-0.203125 0.4375,-0.1875 0.4375,0 l 2.875,0 z"
               id="path3499" />
          </symbol>
        </g>
      </defs>
      <g
         style="fill:#d40000;fill-opacity:1;stroke-width:1"
         id="textext-f8365dce-5">
        <g
           style="fill:#d40000;fill-opacity:1;stroke-width:1"
           id="g3502">
          <use
             style="fill:#d40000;fill-opacity:1;stroke-width:1"
             height="1052.3622"
             width="744.09448"
             xlink:href="#textext-f8365dce-1"
             x="224.901"
             y="132.246"
             id="use3504" />
        </g>
        <g
           style="fill:#d40000;fill-opacity:1;stroke-width:1"
           id="g3506">
          <use
             style="fill:#d40000;fill-opacity:1;stroke-width:1"
             height="1052.3622"
             width="744.09448"
             xlink:href="#textext-f8365dce-2"
             x="223.43201"
             y="134.765"
             id="use3508" />
        </g>
        <g
           style="fill:#d40000;fill-opacity:1;stroke-width:1"
           id="g3510">
          <use
             style="fill:#d40000;fill-opacity:1;stroke-width:1"
             height="1052.3622"
             width="744.09448"
             xlink:href="#textext-f8365dce-4"
             x="229.839"
             y="136.259"
             id="use3512" />
        </g>
      </g>
    </g>
    <g
       style="opacity:0.3"
       inkscape:transform-center-x="-108.21444"
       inkscape:export-ydpi="150"
       inkscape:export-xdpi="150"
       inkscape:export-filename="/home/waldgeist/data/homepage/pics/physik/mechanik/dynamik/kraftzerlegung-bei-bekannten-winkeln.png"
       id="g3609"
       transform="matrix(1.2362971,0.12425082,-0.12425082,1.2362971,-15.834202,-473.33431)"
       inkscape:transform-center-y="-49.439205">
      <g
         inkscape:transform-center-y="-86.327536"
         transform="matrix(0.86602541,-0.50000001,0.50000001,0.86602541,-49.354106,414.92436)"
         inkscape:transform-center-x="-149.52172"
         id="g3611">
        <g
           transform="matrix(1,0,0,-1,-85.03402,474.27777)"
           id="g3613">
          <path
             inkscape:connector-curvature="0"
             id="path3615"
             d="M 370.65133,-170.77679 483.36784,-57.161733"
             style="fill:#d40000;stroke:#d40000;stroke-width:4.8288722;stroke-linecap:round;stroke-linejoin:miter;stroke-miterlimit:4;stroke-opacity:1;stroke-dasharray:6.32378719, 12.64757435;stroke-dashoffset:0"
             sodipodi:nodetypes="cc" />
        </g>
      </g>
    </g>
    <g
       inkscape:transform-center-y="-77.745531"
       transform="matrix(-1.9441485,0.19539165,0.19539165,1.9441485,1105.5596,-732.10444)"
       id="g4397"
       inkscape:export-filename="/home/waldgeist/data/homepage/pics/physik/mechanik/dynamik/kraftzerlegung-bei-bekannten-winkeln.png"
       inkscape:export-xdpi="150"
       inkscape:export-ydpi="150"
       inkscape:transform-center-x="170.17338"
       style="opacity:0.3">
      <g
         id="g4399"
         inkscape:transform-center-x="-149.52172"
         transform="matrix(0.86602541,-0.50000001,0.50000001,0.86602541,-49.354106,414.92436)"
         inkscape:transform-center-y="-86.327536">
        <g
           id="g4401"
           transform="matrix(1,0,0,-1,-85.03402,474.27777)">
          <path
             sodipodi:nodetypes="cc"
             style="fill:#d40000;stroke:#d40000;stroke-width:3.0707159;stroke-linecap:round;stroke-linejoin:miter;stroke-miterlimit:4;stroke-opacity:1;stroke-dasharray:4.02133995, 8.0426799;stroke-dashoffset:0"
             d="M 333.51283,156.14605 528.63321,68.206044"
             id="path4403"
             inkscape:connector-curvature="0" />
        </g>
      </g>
    </g>
    <g
       id="g6297"
       style="fill:#d40000;fill-opacity:1;stroke:#d40000;stroke-width:1;stroke-opacity:1"
       transform="matrix(5.2927626,0,0,5.2927626,-580.91872,-284.27104)"
       ns0:preamble="/home/waldgeist/data/sphinx/inkscape-preamble.tex"
       ns0:text="$\\vec{F}$"
       inkscape:export-filename="/home/waldgeist/data/homepage/pics/physik/mechanik/dynamik/kraftzerlegung-bei-bekannten-winkeln.png"
       inkscape:export-xdpi="150"
       inkscape:export-ydpi="150">
      <defs
         id="defs6299">
        <g
           id="g6301">
          <symbol
             id="textext-7cd6b627-0"
             overflow="visible"
             style="overflow:visible">
            <path
               id="path6304"
               d=""
               style="stroke:none"
               inkscape:connector-curvature="0" />
          </symbol>
          <symbol
             id="textext-7cd6b627-1"
             overflow="visible"
             style="overflow:visible">
            <path
               id="path6307"
               d="m 5.359375,-5.9375 c -0.140625,0.140625 -0.46875,0.421875 -0.46875,0.59375 0,0.09375 0.09375,0.203125 0.1875,0.203125 0.09375,0 0.140625,-0.078125 0.203125,-0.140625 C 5.390625,-5.421875 5.625,-5.703125 6.0625,-5.921875 6.125,-5.96875 6.234375,-6.015625 6.234375,-6.125 6.234375,-6.234375 6.15625,-6.28125 6.09375,-6.328125 5.875,-6.484375 5.765625,-6.65625 5.6875,-6.890625 5.65625,-6.984375 5.625,-7.125 5.484375,-7.125 c -0.140625,0 -0.203125,0.140625 -0.203125,0.21875 0,0.046875 0.078125,0.359375 0.234375,0.578125 l -3.359375,0 c -0.15625,0 -0.34375,0 -0.34375,0.203125 0,0.1875 0.1875,0.1875 0.34375,0.1875 z m 0,0"
               style="stroke:none"
               inkscape:connector-curvature="0" />
          </symbol>
          <symbol
             id="textext-7cd6b627-2"
             overflow="visible"
             style="overflow:visible">
            <path
               id="path6310"
               d="m 3.015625,-3.234375 0.96875,0 c 0.75,0 0.828125,0.15625 0.828125,0.4375 0,0.078125 0,0.1875 -0.0625,0.5 C 4.71875,-2.25 4.71875,-2.21875 4.71875,-2.1875 c 0,0.078125 0.0625,0.109375 0.109375,0.109375 0.109375,0 0.109375,-0.03125 0.15625,-0.203125 L 5.53125,-4.453125 C 5.5625,-4.5625 5.5625,-4.578125 5.5625,-4.609375 5.5625,-4.625 5.546875,-4.71875 5.4375,-4.71875 5.34375,-4.71875 5.328125,-4.671875 5.296875,-4.5 5.078125,-3.734375 4.859375,-3.546875 4,-3.546875 l -0.90625,0 0.640625,-2.53125 C 3.828125,-6.4375 3.84375,-6.46875 4.28125,-6.46875 l 1.3125,0 c 1.21875,0 1.453125,0.328125 1.453125,1.09375 0,0.234375 0,0.265625 -0.03125,0.546875 C 7,-4.703125 7,-4.6875 7,-4.65625 c 0,0.046875 0.03125,0.125 0.125,0.125 0.109375,0 0.109375,-0.0625 0.125,-0.25 L 7.453125,-6.515625 C 7.484375,-6.78125 7.4375,-6.78125 7.1875,-6.78125 l -4.890625,0 c -0.1875,0 -0.296875,0 -0.296875,0.203125 0,0.109375 0.09375,0.109375 0.28125,0.109375 0.375,0 0.65625,0 0.65625,0.171875 0,0.046875 0,0.0625 -0.0625,0.25 L 1.5625,-0.78125 c -0.09375,0.390625 -0.109375,0.46875 -0.90625,0.46875 -0.171875,0 -0.28125,0 -0.28125,0.1875 C 0.375,0 0.5,0 0.53125,0 0.8125,0 1.5625,-0.03125 1.84375,-0.03125 2.171875,-0.03125 3,0 3.328125,0 3.421875,0 3.53125,0 3.53125,-0.1875 3.53125,-0.265625 3.484375,-0.296875 3.484375,-0.296875 3.453125,-0.3125 3.421875,-0.3125 3.203125,-0.3125 c -0.21875,0 -0.265625,0 -0.515625,-0.015625 -0.296875,-0.03125 -0.328125,-0.078125 -0.328125,-0.203125 0,-0.015625 0,-0.078125 0.046875,-0.21875 z m 0,0"
               style="stroke:none"
               inkscape:connector-curvature="0" />
          </symbol>
        </g>
      </defs>
      <g
         id="textext-7cd6b627-3"
         style="fill:#d40000;fill-opacity:1;stroke-width:1">
        <g
           id="g6313"
           style="fill:#d40000;fill-opacity:1;stroke-width:1">
          <use
             id="use6315"
             y="132.246"
             x="224.901"
             xlink:href="#textext-7cd6b627-1"
             style="fill:#d40000;fill-opacity:1;stroke-width:1"
             width="744.09448"
             height="1052.3622" />
        </g>
        <g
           id="g6317"
           style="fill:#d40000;fill-opacity:1;stroke-width:1">
          <use
             id="use6319"
             y="134.765"
             x="223.43201"
             xlink:href="#textext-7cd6b627-2"
             style="fill:#d40000;fill-opacity:1;stroke-width:1"
             width="744.09448"
             height="1052.3622" />
        </g>
      </g>
    </g>
    <path
       sodipodi:type="arc"
       style="color:#000000;fill:none;stroke:#550000;stroke-width:1.11482036;stroke-linecap:round;stroke-linejoin:miter;stroke-miterlimit:4;stroke-opacity:1;stroke-dasharray:none;stroke-dashoffset:0;marker:none;marker-end:url(#Arrow2Mend);visibility:visible;display:inline;overflow:visible;enable-background:accumulate"
       id="path6417"
       sodipodi:cx="89.667328"
       sodipodi:cy="431.21826"
       sodipodi:rx="67.395897"
       sodipodi:ry="67.395897"
       d="m 113.5654,368.20168 a 67.395897,67.395897 0 0 1 38.49227,37.5283"
       transform="matrix(0,-1.7940094,-1.7940131,0,878.27977,779.25834)"
       sodipodi:start="5.0748671"
       sodipodi:end="5.8953477"
       sodipodi:open="true"
       inkscape:export-filename="/home/waldgeist/data/homepage/pics/physik/mechanik/dynamik/kraftzerlegung-bei-bekannten-winkeln.png"
       inkscape:export-xdpi="150"
       inkscape:export-ydpi="150" />
    <path
       sodipodi:end="6.0199639"
       sodipodi:start="5.6568951"
       transform="matrix(1.7961628,-1.7961628,-1.7961734,-1.7961734,725.4801,1581.6841)"
       d="m 144.27199,391.71462 a 67.395897,67.395897 0 0 1 10.4699,21.96775"
       sodipodi:ry="67.395897"
       sodipodi:rx="67.395897"
       sodipodi:cy="431.21826"
       sodipodi:cx="89.667328"
       id="path6419"
       style="color:#000000;fill:none;stroke:#550000;stroke-width:0.78735036;stroke-linecap:round;stroke-linejoin:miter;stroke-miterlimit:4;stroke-opacity:1;stroke-dasharray:none;stroke-dashoffset:0;marker:none;marker-end:url(#Arrow2Mend);visibility:visible;display:inline;overflow:visible;enable-background:accumulate"
       sodipodi:type="arc"
       sodipodi:open="true"
       inkscape:export-filename="/home/waldgeist/data/homepage/pics/physik/mechanik/dynamik/kraftzerlegung-bei-bekannten-winkeln.png"
       inkscape:export-xdpi="150"
       inkscape:export-ydpi="150" />
    <g
       ns0:text="$\\alpha$"
       ns0:preamble="/home/waldgeist/data/sphinx/inkscape-preamble.tex"
       transform="matrix(5.2927626,0,0,5.2927626,-961.46729,-106.94458)"
       style="fill:#550000;fill-opacity:1;stroke:#d40000;stroke-width:1;stroke-opacity:1"
       id="g7366"
       inkscape:export-filename="/home/waldgeist/data/homepage/pics/physik/mechanik/dynamik/kraftzerlegung-bei-bekannten-winkeln.png"
       inkscape:export-xdpi="150"
       inkscape:export-ydpi="150">
      <defs
         id="defs7368">
        <g
           id="g7370">
          <symbol
             style="overflow:visible"
             overflow="visible"
             id="textext-0e51608b-0">
            <path
               inkscape:connector-curvature="0"
               style="stroke:none"
               d=""
               id="path7373" />
          </symbol>
          <symbol
             style="overflow:visible"
             overflow="visible"
             id="textext-0e51608b-1">
            <path
               inkscape:connector-curvature="0"
               style="stroke:none"
               d="m 4.75,-2.359375 c 0,-1.5625 -0.921875,-2.046875 -1.65625,-2.046875 -1.375,0 -2.6875,1.421875 -2.6875,2.828125 0,0.9375 0.59375,1.6875 1.625,1.6875 0.625,0 1.34375,-0.234375 2.09375,-0.84375 0.125,0.53125 0.453125,0.84375 0.90625,0.84375 0.53125,0 0.84375,-0.546875 0.84375,-0.703125 0,-0.078125 -0.0625,-0.109375 -0.125,-0.109375 -0.0625,0 -0.09375,0.03125 -0.125,0.109375 -0.1875,0.484375 -0.546875,0.484375 -0.5625,0.484375 -0.3125,0 -0.3125,-0.78125 -0.3125,-1.015625 0,-0.203125 0,-0.234375 0.109375,-0.34375 C 5.796875,-2.65625 6,-3.8125 6,-3.8125 6,-3.84375 5.984375,-3.921875 5.875,-3.921875 c -0.09375,0 -0.09375,0.03125 -0.140625,0.21875 -0.1875,0.625 -0.515625,1.375 -0.984375,1.96875 z m -0.65625,1.375 c -0.890625,0.765625 -1.65625,0.875 -2.046875,0.875 -0.59375,0 -0.90625,-0.453125 -0.90625,-1.09375 0,-0.484375 0.265625,-1.5625 0.578125,-2.0625 C 2.1875,-4 2.734375,-4.1875 3.078125,-4.1875 c 0.984375,0 0.984375,1.3125 0.984375,2.078125 0,0.375 0,0.953125 0.03125,1.125 z m 0,0"
               id="path7376" />
          </symbol>
        </g>
      </defs>
      <g
         style="fill:#550000;stroke-width:1"
         id="textext-0e51608b-2">
        <g
           style="fill:#550000;fill-opacity:1;stroke-width:1"
           id="g7379">
          <use
             style="fill:#550000;stroke-width:1"
             height="1052.3622"
             width="744.09448"
             xlink:href="#textext-0e51608b-1"
             x="223.43201"
             y="134.765"
             id="use7381" />
        </g>
      </g>
    </g>
    <g
       id="g7603"
       style="fill:#550000;fill-opacity:1;stroke:#550000;stroke-width:1;stroke-opacity:1"
       transform="matrix(5.2927626,0,0,5.2927626,-1039.7343,-141.61175)"
       ns0:preamble="/home/waldgeist/data/sphinx/inkscape-preamble.tex"
       ns0:text="$\\beta$"
       inkscape:export-filename="/home/waldgeist/data/homepage/pics/physik/mechanik/dynamik/kraftzerlegung-bei-bekannten-winkeln.png"
       inkscape:export-xdpi="150"
       inkscape:export-ydpi="150">
      <defs
         id="defs7605">
        <g
           id="g7607">
          <symbol
             id="textext-414495bf-0"
             overflow="visible"
             style="overflow:visible">
            <path
               id="path7610"
               d=""
               style="stroke:none"
               inkscape:connector-curvature="0" />
          </symbol>
          <symbol
             id="textext-414495bf-1"
             overflow="visible"
             style="overflow:visible">
            <path
               id="path7613"
               d="m 5.734375,-5.671875 c 0,-0.75 -0.546875,-1.359375 -1.359375,-1.359375 -0.578125,0 -0.859375,0.15625 -1.203125,0.40625 C 2.625,-6.21875 2.078125,-5.25 1.890625,-4.5 L 0.296875,1.828125 C 0.296875,1.875 0.34375,1.9375 0.421875,1.9375 0.5,1.9375 0.53125,1.90625 0.53125,1.890625 L 1.234375,-0.875 c 0.1875,0.609375 0.625,0.96875 1.359375,0.96875 C 3.3125,0.09375 4.0625,-0.25 4.515625,-0.6875 5,-1.140625 5.3125,-1.78125 5.3125,-2.515625 c 0,-0.71875 -0.375,-1.25 -0.734375,-1.484375 0.578125,-0.34375 1.15625,-0.953125 1.15625,-1.671875 z M 3.9375,-4.015625 c -0.125,0.046875 -0.234375,0.0625 -0.484375,0.0625 -0.140625,0 -0.328125,0.015625 -0.4375,-0.03125 0.03125,-0.109375 0.390625,-0.078125 0.5,-0.078125 0.203125,0 0.296875,0 0.421875,0.046875 z M 5.171875,-5.90625 c 0,0.703125 -0.375,1.421875 -0.890625,1.734375 C 4,-4.28125 3.8125,-4.296875 3.515625,-4.296875 c -0.21875,0 -0.78125,-0.015625 -0.78125,0.3125 0,0.28125 0.515625,0.25 0.6875,0.25 0.375,0 0.53125,0 0.828125,-0.125 0.375,0.359375 0.421875,0.671875 0.4375,1.125 0.015625,0.578125 -0.21875,1.328125 -0.5,1.71875 C 3.796875,-0.484375 3.125,-0.125 2.5625,-0.125 c -0.765625,0 -1.140625,-0.578125 -1.140625,-1.28125 0,-0.09375 0,-0.25 0.046875,-0.4375 L 2.109375,-4.359375 C 2.328125,-5.21875 3.046875,-6.8125 4.25,-6.8125 c 0.578125,0 0.921875,0.3125 0.921875,0.90625 z m 0,0"
               style="stroke:none"
               inkscape:connector-curvature="0" />
          </symbol>
        </g>
      </defs>
      <g
         id="textext-414495bf-2"
         style="fill:#550000;stroke:#550000;stroke-width:1">
        <g
           id="g7616"
           style="fill:#550000;fill-opacity:1;stroke:#550000;stroke-width:1">
          <use
             id="use7618"
             y="134.765"
             x="223.43201"
             xlink:href="#textext-414495bf-1"
             width="744.09448"
             height="1052.3622"
             style="fill:#550000;stroke:#550000;stroke-width:1" />
        </g>
      </g>
    </g>
  </g>
</svg>
