<svg xmlns:ns0="http://www.iki.fi/pav/software/textext/" xmlns="http://www.w3.org/2000/svg" xmlns:xlink="http://www.w3.org/1999/xlink" width="1052.362" height="744.094"><title>Kraftaddition: Kinder mit Schlitten</title><defs><marker id="r" orient="auto" overflow="visible"><path d="M2.308 0l-3.46 2v-4l3.46 2z" fill-rule="evenodd" stroke="#000" stroke-width=".4pt"/></marker><linearGradient id="d"><stop offset="0" stop-opacity="0"/><stop offset="1" stop-color="#fff"/></linearGradient><linearGradient id="e"><stop offset="0" stop-color="#fff"/><stop offset="1" stop-color="#fff" stop-opacity="0"/></linearGradient><linearGradient id="f"><stop offset="0" stop-color="#1a1a1a" stop-opacity=".828"/><stop offset="1" stop-color="#fff"/></linearGradient><linearGradient id="a"><stop offset="0" stop-opacity="0"/><stop offset="1" stop-color="#fff"/></linearGradient><linearGradient id="b"><stop offset="0" stop-color="#ebebeb"/><stop offset="1" stop-color="#fff" stop-opacity="0"/></linearGradient><linearGradient id="c"><stop offset="0" stop-color="#0e0e0e" stop-opacity=".746"/><stop offset="1" stop-color="#fff"/></linearGradient><pattern id="g" height="5.181" width="30.066" patternUnits="userSpaceOnUse"><path d="M7.597.061C5.079-.187 2.656.302-.01 1.788v1.273c2.783-1.63 5.183-2.009 7.482-1.781 2.298.228 4.497 1.081 6.781 1.938 4.567 1.713 9.551 3.458 15.813-.157l-.004-1.273c-6.44 3.709-10.816 1.982-15.371.273-2.278-.854-4.576-1.75-7.094-2z"/></pattern><pattern xlink:href="#g" id="h" patternTransform="translate(.25)"/></defs><g transform="translate(0 -308.268)"><rect ry="0" rx="0" y="366.074" x="20.46" height="628.482" width="1011.442" fill="#fff" stroke="#fff" stroke-width="3" stroke-linecap="round" stroke-dasharray="3,3"/><path d="M294.285 683.43H973.82" fill="none" stroke="#000" stroke-width="2" stroke-dasharray="3.00000007,3.00000007"/><g transform="matrix(.69953 0 0 .7003 16.778 336.777)"><use xlink:href="#i" transform="translate(0 155.857)" width="744.094" height="1052.362" fill="#666"/><rect id="i" width="389.286" height="11.429" x="31.429" y="412.648" rx="33.571" ry="11.429" fill="#666" stroke="#1a1a1a" stroke-width="2.143" stroke-linecap="round"/><path d="M91.732 456.285l-38.571-38.571" id="j" fill="#a05a2c" stroke="#a05a2c" stroke-width="11.43"/><use xlink:href="#j" transform="translate(276.84 118.524)" width="744.094" height="1052.362"/><use xlink:href="#j" transform="matrix(-1 0 0 1 421.732 -.351)" width="744.094" height="1052.362"/><use xlink:href="#j" transform="matrix(1 0 0 -1 .966 992.523)" width="744.094" height="1052.362"/><rect width="351.429" height="117.143" x="45" y="437.719" ry="34.643" rx="62.143" fill="#216778" stroke="#216778" stroke-width="2.143" stroke-linecap="round"/></g><g fill="#d40000" stroke="#d40000"><path d="M259.154 153.508l301.413 2.638" stroke-width="8.587" transform="matrix(1.00777 -.58266 .58184 1.0092 -56.392 679.508)"/><path d="M-707.107 1620.068l-5.249-9.091-5.249-9.092h20.996l-5.249 9.091z" transform="matrix(-.29694 -.51508 .51435 -.29736 -443.86 627.996)" stroke-width="25.161"/></g><path d="M599.382 858.734V510.47" fill="none" stroke="#4d4d4d" stroke-width="3" stroke-linecap="round" stroke-dasharray="3,12"/><g fill="#d40000" stroke="#d40000"><path d="M258.651 154.38l301.916 1.766" stroke-width="8.587" transform="matrix(1.00777 .58266 .58184 -1.0092 -56.392 688.523)"/><path transform="matrix(-.29694 .51508 .51435 .29736 -443.86 740.036)" d="M-707.107 1620.068l-5.249-9.091-5.249-9.092h20.996l-5.249 9.091z" stroke-width="25.161"/></g><g ns0:preamble="/home/waldgeist/data/sphinx/test.tex" ns0:text="$\\vec{F}_{\\rm{1}}$\n" transform="translate(-914.87 -382.574) scale(6.39783)" fill="#d40000"><defs><symbol id="k" overflow="visible"><path d="M5.36-5.938c-.141.141-.47.422-.47.594 0 .094.094.203.188.203s.14-.078.203-.14c.11-.14.344-.422.782-.64.062-.048.171-.095.171-.204 0-.11-.078-.156-.14-.203a1.034 1.034 0 0 1-.407-.563c-.03-.093-.062-.234-.203-.234-.14 0-.203.14-.203.219 0 .047.078.36.235.578h-3.36c-.156 0-.344 0-.344.203 0 .188.188.188.344.188zm0 0"/></symbol><symbol id="l" overflow="visible"><path d="M3.016-3.234h.968c.75 0 .829.156.829.437 0 .078 0 .188-.063.5-.031.047-.031.078-.031.11 0 .078.062.109.11.109.109 0 .109-.031.155-.203l.547-2.172c.032-.11.032-.125.032-.156a.117.117 0 0 0-.125-.11c-.094 0-.11.047-.141.219-.219.766-.438.953-1.297.953h-.906l.64-2.531c.094-.36.11-.39.547-.39h1.313c1.218 0 1.453.327 1.453 1.093 0 .234 0 .266-.031.547C7-4.703 7-4.688 7-4.656c0 .047.031.125.125.125.11 0 .11-.063.125-.25l.203-1.735c.031-.265-.016-.265-.266-.265h-4.89c-.188 0-.297 0-.297.203 0 .11.094.11.281.11.375 0 .656 0 .656.171 0 .047 0 .063-.062.25L1.562-.78c-.093.39-.109.469-.906.469-.172 0-.281 0-.281.187C.375 0 .5 0 .531 0c.281 0 1.031-.031 1.313-.031C2.172-.031 3 0 3.328 0c.094 0 .203 0 .203-.188 0-.078-.047-.109-.047-.109-.03-.016-.062-.016-.28-.016-.22 0-.267 0-.517-.015-.296-.031-.328-.078-.328-.203 0-.016 0-.078.047-.219zm0 0"/></symbol><symbol id="m" overflow="visible"><path d="M2.328-4.438c0-.187 0-.187-.203-.187-.453.438-1.078.438-1.36.438v.25c.157 0 .626 0 1-.188v3.547c0 .234 0 .328-.687.328H.812V0c.125 0 .985-.031 1.235-.031.219 0 1.094.031 1.25.031v-.25H3.03c-.703 0-.703-.094-.703-.328zm0 0"/></symbol></defs><use y="132.247" x="224.901" xlink:href="#k" width="1052.362" height="744.094"/><use y="134.765" x="223.432" xlink:href="#l" width="1052.362" height="744.094"/><use y="136.259" x="229.839" xlink:href="#m" width="1052.362" height="744.094"/></g><g ns0:text="$\\vec{F}_{\\rm{2}}$\n" ns0:preamble="/home/waldgeist/data/sphinx/test.tex" transform="translate(-915.57 70.933) scale(6.39783)" fill="#d40000"><defs><symbol overflow="visible" id="n"><path d="M5.36-5.938c-.141.141-.47.422-.47.594 0 .094.094.203.188.203s.14-.078.203-.14c.11-.14.344-.422.782-.64.062-.048.171-.095.171-.204 0-.11-.078-.156-.14-.203a1.034 1.034 0 0 1-.407-.563c-.03-.093-.062-.234-.203-.234-.14 0-.203.14-.203.219 0 .047.078.36.235.578h-3.36c-.156 0-.344 0-.344.203 0 .188.188.188.344.188zm0 0"/></symbol><symbol overflow="visible" id="o"><path d="M3.016-3.234h.968c.75 0 .829.156.829.437 0 .078 0 .188-.063.5-.031.047-.031.078-.031.11 0 .078.062.109.11.109.109 0 .109-.031.155-.203l.547-2.172c.032-.11.032-.125.032-.156a.117.117 0 0 0-.125-.11c-.094 0-.11.047-.141.219-.219.766-.438.953-1.297.953h-.906l.64-2.531c.094-.36.11-.39.547-.39h1.313c1.218 0 1.453.327 1.453 1.093 0 .234 0 .266-.031.547C7-4.703 7-4.688 7-4.656c0 .047.031.125.125.125.11 0 .11-.063.125-.25l.203-1.735c.031-.265-.016-.265-.266-.265h-4.89c-.188 0-.297 0-.297.203 0 .11.094.11.281.11.375 0 .656 0 .656.171 0 .047 0 .063-.062.25L1.562-.78c-.093.39-.109.469-.906.469-.172 0-.281 0-.281.187C.375 0 .5 0 .531 0c.281 0 1.031-.031 1.313-.031C2.172-.031 3 0 3.328 0c.094 0 .203 0 .203-.188 0-.078-.047-.109-.047-.109-.03-.016-.062-.016-.28-.016-.22 0-.267 0-.517-.015-.296-.031-.328-.078-.328-.203 0-.016 0-.078.047-.219zm0 0"/></symbol><symbol overflow="visible" id="p"><path d="M3.516-1.266H3.28c-.015.157-.094.563-.187.625-.047.047-.578.047-.688.047H1.125c.734-.64.984-.844 1.39-1.172.516-.406 1-.843 1-1.5 0-.843-.734-1.359-1.624-1.359-.86 0-1.454.61-1.454 1.25 0 .344.297.39.376.39.156 0 .359-.124.359-.374 0-.125-.047-.375-.406-.375.218-.485.687-.641 1.015-.641.703 0 1.063.547 1.063 1.11 0 .609-.438 1.078-.656 1.328L.516-.266C.437-.203.437-.187.437 0h2.876zm0 0"/></symbol></defs><use height="744.094" width="1052.362" xlink:href="#n" x="224.901" y="132.247"/><use height="744.094" width="1052.362" xlink:href="#o" x="223.432" y="134.765"/><use height="744.094" width="1052.362" xlink:href="#p" x="229.839" y="136.259"/></g><g ns0:text="$\\varphi$\n" ns0:preamble="/home/waldgeist/data/sphinx/test.tex" transform="translate(-1012.003 -207.707) scale(6.39783)" fill="#d40000"><defs><symbol overflow="visible" id="q"><path d="M1.688 1.688c-.032.14-.047.156-.047.203 0 .218.187.28.296.28a.413.413 0 0 0 .36-.265c.031-.078.078-.406.36-1.812.077 0 .155.015.327.015 1.657 0 3.188-1.562 3.188-3.14 0-.781-.39-1.375-1.14-1.375-1.438 0-2.048 1.937-2.641 3.875C1.312-.734.75-1.281.75-2c0-.281.234-1.375.828-2.063.094-.093.094-.109.094-.14 0-.031-.031-.094-.125-.094C1.266-4.297.5-2.844.5-1.89c0 .938.656 1.657 1.719 1.907zM3.077-.47c-.094 0-.11 0-.187-.015-.125 0-.125 0-.125-.032 0-.015.171-.937.187-1.078.313-1.281 1.094-2.234 1.985-2.234.687 0 .953.531.953 1.015 0 1.126-1.282 2.344-2.813 2.344zm0 0"/></symbol></defs><use height="744.094" width="1052.362" xlink:href="#q" x="223.432" y="134.765" fill="#000"/></g><path transform="matrix(1.00947 -1.7566 -1.77678 -1.0306 588.386 1962.898)" d="M524.819 347.848a38.768 38.768 0 0 1 25.444 36.406" fill="#fff" stroke="#000" stroke-width="1.471" marker-end="url(#r)"/><path d="M258.651 154.38l302.581 3.312" fill="#d40000" stroke="#d40000" transform="matrix(1.00777 .58266 .58184 -1.0092 248.897 515.564)" stroke-width="6.011" stroke-dasharray="6.01116980000000023,12.02233960000000046" stroke-linecap="round"/><path d="M258.651 154.38l303.587 1.57" fill="#d40000" stroke="#d40000" stroke-linecap="round" stroke-dasharray="6.01116980000000023,12.02233960000000046" transform="matrix(1.00777 -.58266 .58184 1.0092 248.897 853.64)" stroke-width="6.011"/><path style="marker:none" d="M577.634 684.602a21.748 21.748 0 0 1 22.058-21.746" color="#000" fill="none" stroke="#4d4d4d" stroke-width="2" stroke-linecap="round" stroke-linejoin="round" overflow="visible"/><g fill="#d40000" stroke="#d40000"><path d="M31.578 157.497l525.697.323" stroke-width="8.587" transform="matrix(1.16409 -.00072 -.00072 1.16491 257.639 499.983)"/><path transform="matrix(.00038 -.59454 .59412 -.00035 -63.497 263.582)" d="M-707.107 1620.068l-5.249-9.091-5.249-9.092h20.996l-5.249 9.091z" stroke-width="25.161"/></g><g transform="translate(-536.414 -103.856) scale(6.39783)" ns0:preamble="/home/waldgeist/data/sphinx/test.tex" ns0:text="$\\vec{F}_{\\rm{Ges}}$\n" fill="#d40000"><defs><symbol id="s" overflow="visible"><path d="M5.36-5.938c-.141.141-.47.422-.47.594 0 .094.094.203.188.203s.14-.078.203-.14c.11-.14.344-.422.782-.64.062-.048.171-.095.171-.204 0-.11-.078-.156-.14-.203a1.034 1.034 0 0 1-.407-.563c-.03-.093-.062-.234-.203-.234-.14 0-.203.14-.203.219 0 .047.078.36.235.578h-3.36c-.156 0-.344 0-.344.203 0 .188.188.188.344.188zm0 0"/></symbol><symbol id="t" overflow="visible"><path d="M3.016-3.234h.968c.75 0 .829.156.829.437 0 .078 0 .188-.063.5-.031.047-.031.078-.031.11 0 .078.062.109.11.109.109 0 .109-.031.155-.203l.547-2.172c.032-.11.032-.125.032-.156a.117.117 0 0 0-.125-.11c-.094 0-.11.047-.141.219-.219.766-.438.953-1.297.953h-.906l.64-2.531c.094-.36.11-.39.547-.39h1.313c1.218 0 1.453.327 1.453 1.093 0 .234 0 .266-.031.547C7-4.703 7-4.688 7-4.656c0 .047.031.125.125.125.11 0 .11-.063.125-.25l.203-1.735c.031-.265-.016-.265-.266-.265h-4.89c-.188 0-.297 0-.297.203 0 .11.094.11.281.11.375 0 .656 0 .656.171 0 .047 0 .063-.062.25L1.562-.78c-.093.39-.109.469-.906.469-.172 0-.281 0-.281.187C.375 0 .5 0 .531 0c.281 0 1.031-.031 1.313-.031C2.172-.031 3 0 3.328 0c.094 0 .203 0 .203-.188 0-.078-.047-.109-.047-.109-.03-.016-.062-.016-.28-.016-.22 0-.267 0-.517-.015-.296-.031-.328-.078-.328-.203 0-.016 0-.078.047-.219zm0 0"/></symbol><symbol id="u" overflow="visible"><path d="M5.188-1.36c0-.312.078-.312.546-.312v-.25c-.062 0-.562.031-.906.031-.375 0-.89 0-1.266-.03v.25h.266c.703 0 .703.093.703.312v.453c0 .156 0 .422-.406.625-.328.172-.719.172-.813.172-.796 0-2.078-.454-2.078-2.282 0-1.843 1.329-2.25 2.016-2.25.672 0 1.516.454 1.688 1.657.015.078.078.078.125.078.125 0 .125-.047.125-.188v-1.625c0-.125 0-.187-.094-.187-.032 0-.063 0-.125.093l-.36.532a1.994 1.994 0 0 0-1.453-.625C1.703-4.906.484-3.781.484-2.391.484-1 1.672.141 3.172.141c.39 0 1.156-.078 1.484-.563.125.188.375.422.453.422.079 0 .079-.078.079-.188zm0 0"/></symbol><symbol id="v" overflow="visible"><path d="M3.063-1.594c.156 0 .203 0 .203-.14 0-.625-.344-1.375-1.391-1.375a1.59 1.59 0 0 0-1.61 1.578c0 .89.782 1.593 1.704 1.593.937 0 1.297-.75 1.297-.906 0-.015-.016-.094-.125-.094-.094 0-.11.047-.125.11-.22.562-.75.672-1 .672-.329 0-.641-.14-.844-.406-.266-.329-.266-.75-.266-1.032zM.905-1.766c.078-.984.703-1.14.969-1.14.86 0 .89.969.906 1.14zm0 0"/></symbol><symbol id="w" overflow="visible"><path d="M2.64-2.922c0-.125 0-.187-.093-.187-.031 0-.047 0-.14.078-.016.015-.079.078-.126.11-.219-.142-.469-.188-.734-.188-1 0-1.234.53-1.234.875 0 .218.093.406.265.546.266.22.531.266.969.344.344.063.906.157.906.625 0 .266-.187.594-.86.594-.671 0-.905-.438-1.03-.906C.53-1.125.53-1.156.438-1.156c-.126 0-.126.047-.126.187v.86c0 .109 0 .171.094.171.063 0 .203-.14.344-.296.297.296.672.296.844.296.906 0 1.25-.484 1.25-.968a.823.823 0 0 0-.313-.64c-.265-.25-.578-.313-.828-.345-.547-.109-1-.187-1-.562 0-.219.188-.485.844-.485.812 0 .844.563.86.766 0 .078.093.078.109.078.125 0 .125-.047.125-.187zm0 0"/></symbol></defs><use y="132.247" x="224.901" xlink:href="#s" width="1052.362" height="744.094"/><use y="134.765" x="223.432" xlink:href="#t" width="1052.362" height="744.094"/><use y="136.259" x="229.839" xlink:href="#u" width="1052.362" height="744.094"/><use y="136.259" x="236.003" xlink:href="#v" width="1052.362" height="744.094"/><use y="136.259" x="239.545" xlink:href="#w" width="1052.362" height="744.094"/></g><path d="M294.285 683.43h305.603M599.382 683.43V510.755" fill="none" stroke="#f60" stroke-width="3" stroke-linecap="round"/><g ns0:text="$F_{\\rm{1,y}}$\n" transform="matrix(3.94717 0 0 3.94717 -278.298 80.284)" fill="#f60"><defs><symbol overflow="visible" id="x"><path d="M3.016-3.234h.968c.75 0 .829.156.829.437 0 .078 0 .188-.063.5-.031.047-.031.078-.031.11 0 .078.062.109.11.109.109 0 .109-.031.155-.203l.547-2.172c.032-.11.032-.125.032-.156a.117.117 0 0 0-.125-.11c-.094 0-.11.047-.141.219-.219.766-.438.953-1.297.953h-.906l.64-2.531c.094-.36.11-.39.547-.39h1.313c1.218 0 1.453.327 1.453 1.093 0 .234 0 .266-.031.547C7-4.703 7-4.688 7-4.656c0 .047.031.125.125.125.11 0 .11-.063.125-.25l.203-1.735c.031-.265-.016-.265-.266-.265h-4.89c-.188 0-.297 0-.297.203 0 .11.094.11.281.11.375 0 .656 0 .656.171 0 .047 0 .063-.062.25L1.562-.78c-.093.39-.109.469-.906.469-.172 0-.281 0-.281.187C.375 0 .5 0 .531 0c.281 0 1.031-.031 1.313-.031C2.172-.031 3 0 3.328 0c.094 0 .203 0 .203-.188 0-.078-.047-.109-.047-.109-.03-.016-.062-.016-.28-.016-.22 0-.267 0-.517-.015-.296-.031-.328-.078-.328-.203 0-.016 0-.078.047-.219zm0 0"/></symbol><symbol overflow="visible" id="y"><path d="M2.328-4.438c0-.187 0-.187-.203-.187-.453.438-1.078.438-1.36.438v.25c.157 0 .626 0 1-.188v3.547c0 .234 0 .328-.687.328H.812V0c.125 0 .985-.031 1.235-.031.219 0 1.094.031 1.25.031v-.25H3.03c-.703 0-.703-.094-.703-.328zm0 0"/></symbol><symbol overflow="visible" id="A"><path d="M3.297-2.328c.187-.422.547-.422.656-.422V-3c-.187.016-.328.031-.531.031-.188 0-.438-.015-.625-.031v.25c.234.016.281.156.281.266 0 .078-.031.14-.062.218L2.25-.625l-.86-1.828a.252.252 0 0 1-.046-.14c0-.157.234-.157.36-.157V-3c-.11 0-.61.031-.798.031C.687-2.969.422-2.984.22-3v.25c.39 0 .469.016.562.234L1.953 0c-.062.14-.125.266-.187.406-.157.344-.375.813-.86.813-.172 0-.219-.032-.297-.078.016 0 .204-.063.204-.297A.287.287 0 0 0 .516.547C.328.547.203.672.203.844c0 .328.328.578.703.578.594 0 .938-.625 1.031-.828zm0 0"/></symbol><symbol overflow="visible" id="z"><path d="M1.469-.11c0 .376-.063.829-.547 1.266-.016.032-.047.063-.047.094 0 .047.063.094.094.094.11 0 .703-.563.703-1.39 0-.423-.172-.75-.5-.75a.387.387 0 0 0-.39.39c0 .219.155.406.405.406.172 0 .282-.11.282-.11zm0 0"/></symbol></defs><use height="744.094" width="1052.362" xlink:href="#x" x="223.432" y="134.765"/><use height="744.094" width="1052.362" xlink:href="#y" x="229.839" y="136.259"/><use height="744.094" width="1052.362" xlink:href="#z" x="233.81" y="136.259"/><use height="744.094" width="1052.362" xlink:href="#A" x="236.176" y="136.259"/></g><g transform="matrix(3.94717 0 0 3.94717 -446.399 189.15)" ns0:preamble="/home/waldgeist/data/sphinx/inkscape-preamble.tex" ns0:text="$F_{\\rm{1,x}}$\n" fill="#f60"><defs><symbol id="B" overflow="visible"><path d="M3.016-3.234h.968c.75 0 .829.156.829.437 0 .078 0 .188-.063.5-.031.047-.031.078-.031.11 0 .078.062.109.11.109.109 0 .109-.031.155-.203l.547-2.172c.032-.11.032-.125.032-.156a.117.117 0 0 0-.125-.11c-.094 0-.11.047-.141.219-.219.766-.438.953-1.297.953h-.906l.64-2.531c.094-.36.11-.39.547-.39h1.313c1.218 0 1.453.327 1.453 1.093 0 .234 0 .266-.031.547C7-4.703 7-4.688 7-4.656c0 .047.031.125.125.125.11 0 .11-.063.125-.25l.203-1.735c.031-.265-.016-.265-.266-.265h-4.89c-.188 0-.297 0-.297.203 0 .11.094.11.281.11.375 0 .656 0 .656.171 0 .047 0 .063-.062.25L1.562-.78c-.093.39-.109.469-.906.469-.172 0-.281 0-.281.187C.375 0 .5 0 .531 0c.281 0 1.031-.031 1.313-.031C2.172-.031 3 0 3.328 0c.094 0 .203 0 .203-.188 0-.078-.047-.109-.047-.109-.03-.016-.062-.016-.28-.016-.22 0-.267 0-.517-.015-.296-.031-.328-.078-.328-.203 0-.016 0-.078.047-.219zm0 0"/></symbol><symbol id="C" overflow="visible"><path d="M2.328-4.438c0-.187 0-.187-.203-.187-.453.438-1.078.438-1.36.438v.25c.157 0 .626 0 1-.188v3.547c0 .234 0 .328-.687.328H.812V0c.125 0 .985-.031 1.235-.031.219 0 1.094.031 1.25.031v-.25H3.03c-.703 0-.703-.094-.703-.328zm0 0"/></symbol><symbol id="E" overflow="visible"><path d="M2.36-1.563l-.047-.062c0-.031.453-.516.515-.578.25-.281.485-.547 1.047-.547V-3c-.203.016-.406.031-.594.031-.203 0-.484-.015-.687-.031v.25c.11.016.14.094.14.156 0 .016 0 .125-.109.235l-.484.546-.579-.656c-.078-.078-.078-.11-.078-.14 0-.094.094-.141.188-.141V-3c-.25.016-.516.031-.781.031-.204 0-.47-.015-.672-.031v.25c.312 0 .5 0 .687.203l.86 1c.015.016.062.063.062.078 0 .016-.531.594-.594.672-.265.281-.5.531-1.046.547V0C.39-.016.546-.031.765-.031c.203 0 .484.015.687.031v-.25c-.078-.016-.14-.063-.14-.156 0-.14.078-.235.187-.344l.5-.547.594.703c.14.14.14.156.14.203 0 .125-.156.141-.187.141V0c.062 0 .562-.031.781-.031.219 0 .453.015.672.031v-.25c-.469 0-.516-.047-.688-.219zm0 0"/></symbol><symbol id="D" overflow="visible"><path d="M1.469-.11c0 .376-.063.829-.547 1.266-.016.032-.047.063-.047.094 0 .047.063.094.094.094.11 0 .703-.563.703-1.39 0-.423-.172-.75-.5-.75a.387.387 0 0 0-.39.39c0 .219.155.406.405.406.172 0 .282-.11.282-.11zm0 0"/></symbol></defs><use y="134.765" x="223.432" xlink:href="#B" width="1052.362" height="744.094"/><use y="136.259" x="229.839" xlink:href="#C" width="1052.362" height="744.094"/><use y="136.259" x="233.81" xlink:href="#D" width="1052.362" height="744.094"/><use y="136.259" x="236.176" xlink:href="#E" width="1052.362" height="744.094"/></g><path d="M591.354 671.958a.317.317 0 1 1-.633 0 .317.317 0 1 1 .633 0z" style="marker:none" color="#000" fill="none" stroke="#4d4d4d" stroke-width="2.000544" stroke-linecap="round" stroke-linejoin="round" overflow="visible"/></g></svg>