<svg xmlns:ns0="http://www.iki.fi/pav/software/textext/" xmlns="http://www.w3.org/2000/svg" xmlns:xlink="http://www.w3.org/1999/xlink" width="744.094" height="1052.362"><title>Die Radialkraft</title><defs><linearGradient id="d"><stop offset="0" stop-opacity="0"/><stop offset="1" stop-color="#fff"/></linearGradient><linearGradient id="e"><stop offset="0" stop-color="#fff"/><stop offset="1" stop-color="#fff" stop-opacity="0"/></linearGradient><linearGradient id="f"><stop offset="0" stop-color="#1a1a1a" stop-opacity=".828"/><stop offset="1" stop-color="#fff"/></linearGradient><linearGradient id="a"><stop offset="0" stop-opacity="0"/><stop offset="1" stop-color="#fff"/></linearGradient><linearGradient id="b"><stop offset="0" stop-color="#ebebeb"/><stop offset="1" stop-color="#fff" stop-opacity="0"/></linearGradient><linearGradient id="c"><stop offset="0" stop-color="#0e0e0e" stop-opacity=".746"/><stop offset="1" stop-color="#fff"/></linearGradient><pattern id="g" height="5.181" width="30.066" patternUnits="userSpaceOnUse"><path d="M7.597.061C5.079-.187 2.656.302-.01 1.788v1.273c2.783-1.63 5.183-2.009 7.482-1.781 2.298.228 4.497 1.081 6.781 1.938 4.567 1.713 9.551 3.458 15.813-.157l-.004-1.273c-6.44 3.709-10.816 1.982-15.371.273-2.278-.854-4.576-1.75-7.094-2z"/></pattern><pattern xlink:href="#g" id="h" patternTransform="translate(.25)"/></defs><path style="marker:none" color="#000" fill="#fff" stroke="#fff" stroke-linecap="round" stroke-linejoin="bevel" stroke-dasharray="1,4" overflow="visible" d="M13.476 184.038h717.143v684.286H13.476z"/><path d="M611.478 526.65a238.893 238.893 0 1 1-477.787 0 238.893 238.893 0 1 1 477.787 0z" style="marker:none" color="#000" fill="#fff" stroke="#000" stroke-width="1.00016536" stroke-linecap="round" stroke-linejoin="round" overflow="visible"/><g opacity=".5" fill="#00f"><path d="M608.462 526.649V720.51s3.666 13.566 3.696 13.543l3.695-13.543V526.65z" style="text-indent:0;text-align:start;line-height:normal;text-transform:none;block-progression:tb;marker:none;-inkscape-font-specification:Sans" font-weight="400" color="#000" stroke-width="4" overflow="visible" font-family="Sans"/><path transform="matrix(.51037 .00002 -.00002 .522 973.072 -111.622)" d="M-707.107 1620.068l-5.249-9.091-5.249-9.092h20.996l-5.249 9.091z" stroke="#00f" stroke-width="28.972" stroke-linecap="square"/></g><g fill="none" stroke="#000" stroke-width=".283" stroke-linecap="round" stroke-dasharray=".28255292,1.13021169"><path d="M133.691 526.649h477.787M372.584 765.542V287.756" stroke-width="1.0015822799999998"/></g><g fill="none" stroke="#000" stroke-width=".283" stroke-linecap="round" stroke-dasharray=".28255293,1.1302117"><path d="M203.661 357.726l337.846 337.846M203.661 695.572l337.846-337.846" stroke-width="1.0015822799999998"/></g><g opacity=".5" fill="#00f"><path style="text-indent:0;text-align:start;line-height:normal;text-transform:none;block-progression:tb;marker:none;-inkscape-font-specification:Sans" d="M206.34 692.894L69.26 555.814s-12.185-7-12.19-6.964l6.963 12.19 137.08 137.08z" font-weight="400" color="#000" stroke-width="4" overflow="visible" font-family="Sans"/><path d="M-707.107 1620.068l-5.249-9.091-5.249-9.092h20.996l-5.249 9.091z" transform="matrix(-.3609 .36088 -.3691 -.36913 399.848 1402.037)" stroke="#00f" stroke-width="28.972" stroke-linecap="square"/></g><g opacity=".25" fill="#d40000" stroke="#d40000"><path d="M203.661 695.572l63.77-63.77" stroke-width="14.945"/><path d="M278.876 620.357l-5.175 1.387-5.175 1.387 3.788 3.788 3.789 3.789 1.386-5.176z" stroke-width="14.953841"/></g><g ns0:text="$\\vec{F} _{\\rm{z}}$" ns0:preamble="/home/waldgeist/data/sphinx/inkscape-preamble.tex" transform="translate(-1032.656 -487.633) scale(6.34583)" fill="#d40000"><defs><symbol overflow="visible" id="i"><path d="M5.36-5.938c-.141.141-.47.422-.47.594 0 .094.094.203.188.203s.14-.078.203-.14c.11-.14.344-.422.782-.64.062-.048.171-.095.171-.204 0-.11-.078-.156-.14-.203a1.034 1.034 0 0 1-.407-.563c-.03-.093-.062-.234-.203-.234-.14 0-.203.14-.203.219 0 .047.078.36.235.578h-3.36c-.156 0-.344 0-.344.203 0 .188.188.188.344.188z"/></symbol><symbol overflow="visible" id="j"><path d="M3.016-3.234h.968c.75 0 .829.156.829.437 0 .078 0 .188-.063.5-.031.047-.031.078-.031.11 0 .078.062.109.11.109.109 0 .109-.031.155-.203l.547-2.172c.032-.11.032-.125.032-.156a.117.117 0 0 0-.125-.11c-.094 0-.11.047-.141.219-.219.766-.438.953-1.297.953h-.906l.64-2.531c.094-.36.11-.39.547-.39h1.313c1.218 0 1.453.327 1.453 1.093 0 .234 0 .266-.031.547C7-4.703 7-4.688 7-4.656c0 .047.031.125.125.125.11 0 .11-.063.125-.25l.203-1.735c.031-.265-.016-.265-.266-.265h-4.89c-.188 0-.297 0-.297.203 0 .11.094.11.281.11.375 0 .656 0 .656.171 0 .047 0 .063-.062.25L1.562-.78c-.093.39-.109.469-.906.469-.172 0-.281 0-.281.187C.375 0 .5 0 .531 0c.281 0 1.031-.031 1.313-.031C2.172-.031 3 0 3.328 0c.094 0 .203 0 .203-.188 0-.078-.047-.109-.047-.109-.03-.016-.062-.016-.28-.016-.22 0-.267 0-.517-.015-.296-.031-.328-.078-.328-.203 0-.016 0-.078.047-.219z"/></symbol><symbol overflow="visible" id="k"><path d="M3.078-2.766c.047-.062.063-.078.063-.125C3.14-3 3.047-3 2.937-3H.454L.375-1.844h.234c.047-.734.22-.968 1-.968h.829L.328-.267c-.062.079-.062.11-.062.141C.266 0 .344 0 .469 0H3.03l.125-1.36h-.234C2.844-.53 2.703-.218 1.828-.218h-.86z"/></symbol></defs><use height="1052.362" width="744.094" xlink:href="#i" x="224.901" y="132.246"/><use height="1052.362" width="744.094" xlink:href="#j" x="223.432" y="134.765"/><use height="1052.362" width="744.094" xlink:href="#k" x="229.839" y="136.259"/></g><g transform="translate(-867.704 -595.11) scale(6.34583)" ns0:preamble="/home/waldgeist/data/sphinx/inkscape-preamble.tex" ns0:text="$\\vec{v}$" fill="#00f"><defs><symbol id="l" overflow="visible"><path d="M5.36-5.938c-.141.141-.47.422-.47.594 0 .094.094.203.188.203s.14-.078.203-.14c.11-.14.344-.422.782-.64.062-.048.171-.095.171-.204 0-.11-.078-.156-.14-.203a1.034 1.034 0 0 1-.407-.563c-.03-.093-.062-.234-.203-.234-.14 0-.203.14-.203.219 0 .047.078.36.235.578h-3.36c-.156 0-.344 0-.344.203 0 .188.188.188.344.188z"/></symbol><symbol id="m" overflow="visible"><path d="M4.672-3.703c0-.547-.266-.703-.438-.703-.25 0-.5.265-.5.484 0 .125.047.188.157.297.218.203.343.453.343.813 0 .421-.609 2.703-1.765 2.703-.516 0-.75-.344-.75-.875 0-.547.281-1.282.578-2.11.078-.172.125-.312.125-.5 0-.437-.313-.812-.813-.812-.937 0-1.312 1.453-1.312 1.531 0 .11.094.11.11.11.109 0 .109-.032.156-.188.296-1 .718-1.235 1.015-1.235.078 0 .25 0 .25.313 0 .25-.11.531-.172.703-.437 1.156-.562 1.61-.562 2.047 0 1.078.875 1.234 1.328 1.234 1.672 0 2.25-3.296 2.25-3.812z"/></symbol></defs><use y="134.765" x="223.045" xlink:href="#l" width="744.094" height="1052.362"/><use y="134.765" x="223.434" xlink:href="#m" width="744.094" height="1052.362"/></g><g fill="#00f"><path d="M372.584 291.506h193.861s13.566-3.666 13.544-3.696l-13.544-3.695h-193.86z" style="text-indent:0;text-align:start;line-height:normal;text-transform:none;block-progression:tb;marker:none;-inkscape-font-specification:Sans" font-weight="400" color="#000" stroke-width="4" overflow="visible" font-family="Sans"/><path transform="matrix(.00002 -.51037 .522 .00002 -265.686 -73.104)" d="M-707.107 1620.068l-5.249-9.091-5.249-9.092h20.996l-5.249 9.091z" stroke="#00f" stroke-width="28.972" stroke-linecap="square"/></g><g fill="#d40000" stroke="#d40000"><path d="M372.584 287.756v90.184" stroke-width="14.945"/><path d="M372.585 394.126l2.678-4.64 2.68-4.64H367.226l2.679 4.64z" stroke-width="14.953841"/></g><g opacity=".5" fill="#00f"><path style="text-indent:0;text-align:start;line-height:normal;text-transform:none;block-progression:tb;marker:none;-inkscape-font-specification:Sans" d="M537.755 361.479l137.08 137.08s12.185 7 12.19 6.964l-6.964-12.19-137.08-137.08z" font-weight="400" color="#000" stroke-width="4" overflow="visible" font-family="Sans"/><path d="M-707.107 1620.068l-5.249-9.091-5.249-9.092h20.996l-5.249 9.091z" transform="matrix(.3609 -.36088 .3691 .36913 344.247 -347.665)" stroke="#00f" stroke-width="28.972" stroke-linecap="square"/></g><g opacity=".25" fill="#d40000" stroke="#d40000"><path d="M541.508 357.726l-63.77 63.77" stroke-width="14.945"/><path d="M466.293 432.941l5.175-1.387 5.175-1.387-3.789-3.788-3.788-3.788-1.387 5.175z" stroke-width="14.953841"/></g><g opacity=".5" fill="#00f"><path style="text-indent:0;text-align:start;line-height:normal;text-transform:none;block-progression:tb;marker:none;-inkscape-font-specification:Sans" d="M372.584 768.006h-193.86s-13.566-3.666-13.544-3.695l13.543-3.695h193.861z" font-weight="400" color="#000" stroke-width="4" overflow="visible" font-family="Sans"/><path d="M-707.107 1620.068l-5.249-9.091-5.249-9.092h20.996l-5.249 9.091z" transform="matrix(-.00002 -.51037 -.522 .00002 1010.855 403.397)" stroke="#00f" stroke-width="28.972" stroke-linecap="square"/></g><g opacity=".25" fill="#d40000" stroke="#d40000"><path d="M372.584 765.542V675.36" stroke-width="14.945"/><path d="M372.584 659.172l-2.679 4.64-2.678 4.64h10.715l-2.679-4.64z" stroke-width="14.953841"/></g><g opacity=".5" fill="#00f"><path d="M544.849 698.914l-137.08 137.08s-12.185 7-12.19 6.964l6.964-12.19 137.08-137.08z" style="text-indent:0;text-align:start;line-height:normal;text-transform:none;block-progression:tb;marker:none;-inkscape-font-specification:Sans" font-weight="400" color="#000" stroke-width="4" overflow="visible" font-family="Sans"/><path transform="matrix(-.3609 -.36088 -.3691 .36913 738.357 -10.23)" d="M-707.107 1620.068l-5.249-9.091-5.249-9.092h20.996l-5.249 9.091z" stroke="#00f" stroke-width="28.972" stroke-linecap="square"/></g><g opacity=".25" fill="#d40000" stroke="#d40000"><path d="M541.507 695.572l-63.77-63.77" stroke-width="14.945"/><path d="M466.292 620.357l1.387 5.176 1.387 5.175 3.788-3.789 3.789-3.789-5.175-1.386z" stroke-width="14.953841"/></g><g opacity=".5" fill="#00f"><path d="M199.384 353.449l137.08-137.08s12.185-7 12.19-6.964l-6.964 12.19-137.08 137.08z" style="text-indent:0;text-align:start;line-height:normal;text-transform:none;block-progression:tb;marker:none;-inkscape-font-specification:Sans" font-weight="400" color="#000" stroke-width="4" overflow="visible" font-family="Sans"/><path transform="matrix(.3609 .36088 .3691 -.36913 5.876 1062.592)" d="M-707.107 1620.068l-5.249-9.091-5.249-9.092h20.996l-5.249 9.091z" stroke="#00f" stroke-width="28.972" stroke-linecap="square"/></g><g opacity=".25" fill="#d40000" stroke="#d40000"><path d="M203.661 357.726l63.77 63.77" stroke-width="14.945"/><path d="M278.876 432.941l-5.175-1.387-5.175-1.387 3.788-3.788 3.789-3.788 1.387 5.175z" stroke-width="14.953841"/></g><g opacity=".5" fill="#00f"><path d="M128.7 526.649V332.788s3.666-13.566 3.695-13.543l3.695 13.543v193.861z" style="text-indent:0;text-align:start;line-height:normal;text-transform:none;block-progression:tb;marker:none;-inkscape-font-specification:Sans" font-weight="400" color="#000" stroke-width="4" overflow="visible" font-family="Sans"/><path transform="matrix(.51037 -.00002 -.00002 -.522 493.309 1164.92)" d="M-707.107 1620.068l-5.249-9.091-5.249-9.092h20.996l-5.249 9.091z" stroke="#00f" stroke-width="28.972" stroke-linecap="square"/></g><g opacity=".25" fill="#d40000" stroke="#d40000"><path d="M133.691 526.65h90.184" stroke-width="14.945"/><path d="M240.061 526.649l-4.64-2.679-4.64-2.679v10.716l4.64-2.68z" stroke-width="14.953841"/></g><g opacity=".25" fill="#d40000" stroke="#d40000"><path d="M611.478 526.65h-90.184" stroke-width="14.945"/><path d="M505.108 526.649l4.64-2.679 4.64-2.679v10.716l-4.64-2.68z" stroke-width="14.953841"/></g></svg>