<svg xmlns:ns0="http://www.iki.fi/pav/software/textext/" xmlns="http://www.w3.org/2000/svg" xmlns:xlink="http://www.w3.org/1999/xlink" width="1052.362" height="744.094"><title>Rollreibung</title><g transform="translate(0 -308.268)"><path fill="#fff" stroke="#fff" d="M8.88 526.406h1034.602V852.32H8.88z"/><path fill="#fff" stroke="#fff" d="M17.175 529.75H413.85v340.341H17.175z"/><path d="M526.181 566.107v228.416" fill="#b3b3b3" stroke="#b3b3b3" stroke-width="2"/><g stroke="#000" stroke-width="3"><path d="M-11.104 1422.693v-88.117c.636-1.87.334-1.99 12.271-1.852 21.891.254 77.4-1.08 64.24 4.398-18.772 7.813 34.898 4.841 18.377-.896-3.483-1.21 23.715-9.768 29.72-.462 9.226 12.688 35.036 5.158 28.425-2.234-3.078-2.528 7.574-.764 8.277-.994.702-.23 3.402.322 6 1.225 3.893 1.354-7.79 5.003 13.361 3.854.55.011 20.212-2.366 27.362-3.513 16.055-2.575 10.18-2.406 35.315 3.415 4.952 1.147 16.128 1.255 22.516.495 4.837-.576 2.946 3.72 7.002 4.224 4.451.553 19.805-5.338 29.017-4.786 0 0 30.58-14.574 34.075-4.801-6.615 29.182 27.198 13.434 23.818.781-3.14-11.755 23.602 3.658 30.257 3.201 15.775-1.082 22.243-1.734 25-2.52 1.65-.47 4.237-1.129 5.75-1.464 1.512-.335 2.75-.995 2.75-1.466 0-1.053-7.691-4.416-19-8.307-4.675-1.608-3.56-1.166-5.688-2.557-2.127-1.39-11.958-5.555-13.68-5.714-1.723-.158-5.157-.766-7.632-1.35-2.475-.583.916 1.57-.629 1.244-1.545-.326-11.442-5.288-13.83-7.488-2.386-2.2-4.722-3.911-5.19-3.802-1.83.425-.231-.091-1.344-1.654-.646-.907-24.363-11.765-18.574-8.537 12.778 7.129-11.525-6.39-13.683-8.19-1.7-1.417-3.364-2.75-3.856-2.75s-.894-.351-.894-.78c0-1.455-9.523-10.71-12.522-12.17-3.558-1.733-9.467-7.014-9.506-8.496-.016-.58-2.952-2.854-6.526-5.054s-6.586 5.238-9.662-6c-.573-2.093-5.167-4.475-7.615-7.5-2.448-3.025-6.975-8.272-10.06-11.662-6.796-7.465-8.951-10.467-11.731-16.338-1.172-2.475-4.835-7.088-8.141-10.25-6.266-5.996-8.993-10.468-9.94-16.3-.307-1.897-.901-3.45-1.32-3.45-.418 0-1.043-1.125-1.388-2.5s-1.014-2.5-1.487-2.5c-1.261 0-11.738-16.06-12.45-19.084-.334-1.42-1.98-4.31-3.656-6.42-1.677-2.11-2.889-11.24-2.692-11.834h138.731s2.013 2.072 4 3.87c1.12 1.013 1.808 2.433 1.531 3.155-.323.844.298 1.313 1.738 1.313 1.535 0 2.834 1.102 4.126 3.5 1.036 1.925 2.512 3.5 3.278 3.5.767 0 2.052 1.575 2.856 3.5.93 2.227 2.141 3.5 3.328 3.5 1.14 0 2.36 1.198 3.142 3.084.703 1.697 2.338 3.488 3.634 3.98 1.296.493 2.873 2.03 3.504 3.416.632 1.386 1.876 2.52 2.766 2.52 1.702 0 5.062 3.327 5.062 5.012 0 .544.87.988 1.932.988 1.063 0 2.204.854 2.535 1.898.417 1.315 1.223 1.735 2.626 1.368 1.475-.386 2.176.05 2.582 1.602.307 1.173 1.129 2.132 1.827 2.132 1.309 0 4.322 1.468 8.248 4.02 1.237.804 2.25 2.302 2.25 3.33 0 1.492.501 1.741 2.5 1.24 2.048-.514 2.5-.263 2.5 1.391 0 1.11.498 2.02 1.107 2.02.608 0 .853-.661.543-1.469-.31-.807-.18-1.704.288-1.994.469-.29 1.11.146 1.425.968.316.822 1.22 1.494 2.012 1.494.981 0 1.269.714.906 2.25-.51 2.16-.472 2.174.94.349.977-1.26 1.704-1.528 2.158-.794.377.61 1.41.83 2.297.49.945-.363 2.128.084 2.856 1.08.683.935 1.63 1.63 2.105 1.544 2.134-.385 3.363.2 3.363 1.6 0 1.098.655 1.355 2.364.926 1.867-.469 2.52-.105 3.106 1.731.62 1.94.819 2.035 1.209.574.356-1.332 1.108-1.602 3.144-1.13 1.472.341 3.218 1.3 3.88 2.129.74.925 2.057 1.286 3.408.932 1.212-.317 3.719.057 5.57.831 1.852.774 4.032 1.152 4.843.84.812-.31 1.476-.142 1.476.376 0 .519 2.91.877 6.465.797 4.354-.098 6.622.26 6.944 1.1.363.947 1.375.997 4.225.21 3.095-.854 3.95-.756 4.916.566 1.468 2.007 2.45 2.047 2.45.1 0-1.643 1.555-2.03 2.435-.604.322.52 2.13.533 4.31.03 3.021-.696 3.999-.54 5.005.796 1.161 1.543 1.25 1.54 1.25-.031 0-1.856 1.52-2.275 2.5-.69.357.578 2.292.736 4.56.373 2.63-.42 3.94-.255 3.94.498 0 .62.675 1.128 1.5 1.128s1.5-.436 1.5-.969c0-.533.618-.731 1.374-.441 1.178.452 15.659-3.081 26.428-6.448 2.738-.856 3.408-.758 3.919.573.496 1.293.791 1.136 1.516-.805.85-2.274.976-2.308 2.235-.6.748 1.013 1.6 1.38 1.938.835.331-.536.037-1.163-.654-1.394-1.398-.466 3.023-2.617 10.994-5.348 3.035-1.04 5.25-2.4 5.25-3.223 0-1.153.286-1.188 1.5-.18 1.253 1.04 1.5.895 1.5-.878 0-2.235 2.951-3.075 3.063-.872.035.687.455.28.933-.906.515-1.276 2.148-2.437 4.004-2.844 1.724-.379 3.367-1.293 3.65-2.031.283-.739 1.153-1.098 1.932-.8.947.364 1.418-.155 1.418-1.562 0-1.16.58-2.107 1.288-2.107 2.066 0 8.782-3.72 10.277-5.692.816-1.076 1.384-1.302 1.403-.558.06 2.398 2.032 1.23 2.032-1.205 0-2.006.63-2.573 3.443-3.1 2.503-.47 3.528-1.233 3.75-2.792.192-1.343 1.71-2.804 4.057-3.907 2.062-.97 3.75-2.194 3.75-2.723 0-.528.708-.689 1.575-.356 1.139.437 1.485.087 1.25-1.268-.25-1.433.553-2.092 3.425-2.812 2.937-.736 3.75-1.425 3.75-3.18 0-1.527.954-2.662 3-3.568 1.65-.73 3-2.061 3-2.958 0-2.272 5.945-11.934 9.325-13.22H766.88c3.103-.778 4.507 3.353 4.532 7.185.01 1.29-2.122 6.236-4.734 10.99-2.613 4.754-5.65 10.677-6.75 13.162-1.1 2.484-3.463 6.62-5.25 9.19-1.788 2.57-3.252 5.041-3.255 5.492 0 .732-2.196 4.068-11.72 17.832-1.526 2.207-5.617 6.932-9.09 10.5-3.472 3.569-7.013 7.807-7.869 9.42-.855 1.611-3.738 5.057-6.406 7.656-2.669 2.599-5.545 6.458-6.393 8.576-1.1 2.75-2.754 4.503-5.78 6.129-2.33 1.252-6.712 4.574-9.737 7.382-3.025 2.809-8.65 7.126-12.5 9.595-3.85 2.469-9.048 6.39-11.551 8.713-2.633 2.444-7.048 5.158-10.477 6.441-4.446 1.664-7.43 3.76-11.949 8.397-4.653 4.773-7.389 6.666-12.023 8.32-8.539 3.046-8.585 3.067-13 5.725-9.133 5.498-22.417 11.63-28.5 13.154-3.575.895-8.525 2.817-11 4.27-2.475 1.453-6.525 3.398-9 4.322-13.71 5.12-18.592 7.109-19.395 7.898-2.755 2.707 18.112 2.278 34.77-.715 7.265-1.306 11.342 5.855 16.45 6.796 9.253 1.705 23.349-5.78 29.296-7.725 4.317-1.413 6.355-1.48 14.974-.5 5.487.623 8.583 14.168 13.412 14.168 4.83 0 16.709-12.556 19.866-11.973 4.732.875 7.958 9.458 12.085 8.088 3.248-1.08 5.13-10.727 7.356-9.691 27.978 13.009 4.72 4.564 17.583.698 2.953-.887 14.931 5.468 23.24 7.29 19.673 4.311 12.599-2.949 18.177-5.844 2.77-1.438 4.556 5.547 17.664 5.686 8.627.091 24.733-7.422 30.893-6.962 6.935.518 11.21 9.135 16.66 8.5 4.84-.564 16.894-9.391 25.969-9.882 9.075-.49 20.563 8.717 27.163 8.07 11.83-1.158 21.717-11.526 34.193-11.021 3.496.14 15.963 2.628 17.907 1.987 1.944-.642 1.079-4.245 7.877-4.468 6.798-.222 25.292 3.85 27.217 3.74 1.925-.111.337-7.269 3.615-6.835 3.894.515 8.164.35 12.317-.475 5.664-1.126 1.274 2.008 4.799 3.597 2.36 1.065 5.869 2.715 6.13 3.961v94.116z" fill="#666" transform="matrix(.37801 0 0 .34877 47.21 233.334)"/><path d="M417.877 1331.521c1.513-.335-5.584-.995-5.584-1.467 0-1.053-7.69-4.415-19-8.306-4.675-1.608-10.24-4.062-12.368-5.453-2.127-1.391-5.277-2.659-7-2.818-1.722-.158-5.157-.766-7.632-1.35a394.863 394.863 0 0 0-7.309-1.653c-1.545-.325-4.762-2.391-7.148-4.591-2.387-2.2-4.723-3.911-5.191-3.802-1.83.425-6.912-1.54-8.025-3.102-.646-.907-5.998-4.097-11.894-7.089s-12.053-6.677-13.682-8.19c-1.63-1.512-3.365-2.75-3.856-2.75-.492 0-.895-.351-.895-.78 0-1.455-9.523-10.71-12.521-12.17-3.558-1.733-9.467-7.014-9.507-8.496-.015-.58-2.952-2.854-6.525-5.054-3.574-2.2-7.922-4.9-9.662-6-1.74-1.1-5.168-4.475-7.615-7.5-2.448-3.025-6.975-8.273-10.06-11.662-6.796-7.465-8.952-10.467-11.731-16.338-1.172-2.475-4.836-7.088-8.141-10.25-6.266-5.996-8.993-10.468-9.94-16.3-.307-1.898-.902-3.45-1.32-3.45-.418 0-1.043-1.125-1.388-2.5s-1.014-2.5-1.487-2.5c-1.261 0-11.738-16.06-12.45-19.084-.334-1.42-1.98-4.31-3.656-6.42-1.677-2.11-2.889-11.24-2.692-11.834h138.731s2.012 2.072 4 3.87c1.119 1.013 1.808 2.433 1.531 3.155-.324.844.298 1.313 1.737 1.313 1.536 0 2.835 1.102 4.126 3.5 1.037 1.925 2.512 3.5 3.279 3.5.766 0 2.051 1.575 2.856 3.5.93 2.227 2.14 3.5 3.327 3.5 1.141 0 2.362 1.198 3.143 3.084.703 1.697 2.338 3.488 3.634 3.98 1.296.493 2.873 2.03 3.504 3.416.632 1.386 1.876 2.52 2.766 2.52 1.702 0 5.061 3.327 5.061 5.012 0 .543.87.988 1.933.988 1.063 0 2.204.854 2.535 1.898.417 1.315 1.223 1.734 2.626 1.368 1.475-.386 2.176.05 2.582 1.602.307 1.173 1.129 2.132 1.827 2.132 1.309 0 4.321 1.468 8.247 4.02 1.238.804 2.25 2.302 2.25 3.33 0 1.492.502 1.741 2.5 1.24 2.049-.514 2.5-.263 2.5 1.391 0 1.11.498 2.02 1.107 2.02.61 0 .854-.661.544-1.469-.31-.807-.18-1.704.288-1.994.469-.29 1.11.146 1.425.968.316.822 1.22 1.494 2.011 1.494.982 0 1.27.714.907 2.25-.51 2.16-.473 2.174.94.349.976-1.26 1.704-1.528 2.158-.794.376.61 1.41.83 2.297.49.944-.363 2.128.084 2.856 1.08.683.935 1.63 1.63 2.105 1.544 2.133-.385 3.362.2 3.362 1.6 0 1.098.656 1.355 2.364.926 1.868-.469 2.52-.105 3.106 1.731.62 1.94.82 2.035 1.21.574.355-1.332 1.108-1.602 3.144-1.13 1.472.341 3.218 1.3 3.88 2.129.74.925 2.057 1.286 3.408.932 1.212-.317 3.719.057 5.57.831 1.852.774 4.031 1.152 4.843.84.811-.31 1.475-.142 1.475.376 0 .519 2.91.877 6.466.797 4.353-.098 6.622.26 6.944 1.1.363.947 1.375.997 4.225.21 3.095-.854 3.95-.756 4.916.566 1.468 2.007 2.45 2.047 2.45.1 0-1.643 1.554-2.03 2.435-.604.321.52 2.129.533 4.309.03 3.022-.696 4-.54 5.005.796 1.162 1.543 1.25 1.54 1.25-.031 0-1.856 1.522-2.275 2.502-.69.356.578 2.291.736 4.559.373 2.63-.42 3.94-.255 3.94.498 0 .62.674 1.128 1.5 1.128.824 0 1.5-.436 1.5-.969 0-.533.618-.731 1.374-.441 1.178.452 15.659-3.081 26.428-6.448 2.738-.856 3.407-.758 3.918.573.497 1.293.792 1.136 1.517-.805.85-2.274.976-2.308 2.235-.6.748 1.013 1.6 1.38 1.938.835.33-.536.036-1.163-.654-1.394-1.398-.466 3.023-2.617 10.993-5.348 3.036-1.04 5.25-2.4 5.25-3.223 0-1.153.286-1.188 1.5-.18 1.254 1.04 1.5.895 1.5-.878 0-2.235 2.952-3.075 3.064-.872.035.687.454.28.933-.906.514-1.276 2.148-2.437 4.004-2.844 1.724-.379 3.366-1.293 3.65-2.031.283-.739 1.153-1.098 1.932-.8.947.364 1.417-.155 1.417-1.562 0-1.16.58-2.107 1.289-2.107 2.066 0 8.781-3.72 10.277-5.692.816-1.076 1.384-1.302 1.403-.558.06 2.398 2.031 1.23 2.031-1.205 0-2.006.63-2.573 3.444-3.1 2.503-.47 3.527-1.233 3.75-2.792.192-1.343 1.709-2.804 4.056-3.907 2.063-.97 3.75-2.194 3.75-2.723 0-.528.71-.689 1.575-.356 1.14.437 1.485.087 1.25-1.268-.248-1.433.554-2.092 3.425-2.812 2.938-.736 3.75-1.425 3.75-3.18 0-1.527.955-2.662 3-3.568 1.65-.73 3-2.061 3-2.958 0-2.272 5.946-11.934 9.326-13.22h135.126c3.104-.778 4.508 3.353 4.533 7.185.01 1.29-2.122 6.236-4.735 10.99-2.612 4.754-5.65 10.677-6.75 13.162-1.1 2.484-3.462 6.62-5.25 9.19-1.787 2.57-3.252 5.041-3.254 5.492 0 .732-2.196 4.068-11.72 17.832-1.526 2.207-5.617 6.932-9.09 10.5-3.472 3.569-7.014 7.807-7.869 9.42-.856 1.611-3.739 5.057-6.407 7.656-2.668 2.599-5.544 6.458-6.392 8.576-1.1 2.75-2.754 4.503-5.78 6.129-2.33 1.252-6.713 4.574-9.738 7.382-3.025 2.809-8.65 7.126-12.5 9.595-3.85 2.469-9.047 6.39-11.55 8.713-2.633 2.444-7.048 5.158-10.477 6.441-4.446 1.664-7.43 3.76-11.95 8.397-4.652 4.773-7.388 6.666-12.023 8.32-8.538 3.046-8.584 3.067-13 5.725-9.133 5.498-22.417 11.63-28.5 13.154-3.575.895-8.525 2.817-11 4.27-2.475 1.453-6.525 3.398-9 4.322-13.71 5.12-18.59 7.109-19.394 7.898-2.755 2.707-10.677 1.772-11.193 1.81-7.362.538-11.654 1.576-11.654 1.576-10.676 2.556-10.785 3.05-10.785 3.05l-9.775.511s-17.65-3.176-13.567-.38c3.398 2.326-14.552-1.289-11.238-.96 4.78.475-27.928.276-23.58.165l10.955-.913c4.92.04-15.824.84-25.517 1.426 2.36 1.064-9.626-3.212-9.365-1.966l-9.344-3.869c-14.113-2.752-11.959.11-11.959.11z" fill="#b3b3b3" transform="matrix(.37801 0 0 .34877 47.21 233.334)"/></g><path d="M879.109 676.037l7.49-1.045 4.383.457 12.337 5.69-.052 7.356-12.417 5.514-4.39.395-7.474-1.152-3.644 13.221 7.008 2.838 3.57 2.589 7.838 11.097-3.724 6.343-13.508-1.433-4.001-1.853-5.895-4.734-9.766 9.628 4.65 5.961 1.795 4.028 1.24 13.527-6.395 3.632-10.984-7.994-2.537-3.607-2.738-7.047-13.272 3.455 1.045 7.49-.458 4.383-5.69 12.337-7.355-.052-5.514-12.417-.395-4.39 1.151-7.474-13.22-3.644-2.839 7.008-2.588 3.57-11.097 7.838-6.343-3.724 1.433-13.508 1.852-4.002 4.735-5.894-9.628-9.766-5.961 4.65-4.028 1.795-13.527 1.24-3.633-6.395 7.995-10.984 3.606-2.537 7.048-2.738-3.455-13.272-7.49 1.045-4.384-.458-12.337-5.69.053-7.355 12.417-5.514 4.39-.395 7.474 1.151 3.643-13.22-7.008-2.839-3.57-2.588-7.837-11.097 3.723-6.343 13.509 1.433 4.001 1.852 5.895 4.735 9.766-9.628-4.65-5.962-1.796-4.027-1.24-13.527 6.396-3.633 10.984 7.995 2.537 3.606 2.738 7.048 13.272-3.455-1.045-7.49.457-4.384 5.69-12.337 7.356.053 5.514 12.417.395 4.39-1.152 7.474 13.221 3.643 2.838-7.008 2.589-3.57 11.097-7.837 6.343 3.723-1.433 13.509-1.853 4.001-4.734 5.895 9.628 9.766 5.961-4.65 4.028-1.796 13.527-1.24 3.632 6.396-7.994 10.984-3.607 2.537-7.047 2.738z" fill="#b3b3b3" stroke="#000" stroke-width="1.861"/><g fill="#999" stroke-width="3"><path d="M667.49 771.781h15.415l-1.098-8.551.427-4.387 5.602-12.378h7.356l5.602 12.378.426 4.387-1.098 8.551h13.246m248.633 0h15.415l-1.098-8.551.426-4.387 5.603-12.378h7.355l5.603 12.378.426 4.387-1.098 8.551h13.246l.078 34.142H630.59l-.034-34.142h15.416l-1.098-8.551.426-4.387 5.602-12.378h7.356l5.602 12.378.426 4.387-1.098 8.551h13.247m248.632 0h15.416l-1.098-8.551.426-4.387 5.602-12.378h7.356l5.602 12.378.426 4.387-1.098 8.551h13.247m-82.574 0h15.416l-1.098-8.551.426-4.387 5.602-12.378h7.356l5.602 12.378.426 4.387-1.098 8.551h13.247m-82.812 0h15.416l-1.098-8.551.426-4.387 5.602-12.378h7.356l5.602 12.378.427 4.387-1.099 8.551h13.247m-156.202 0h15.416l-1.098-8.551.426-4.387 5.603-12.378h7.355l5.603 12.378.426 4.387-1.098 8.551h13.246m-82.811 0H719.6l-1.099-8.551.427-4.387 5.602-12.378h7.356l5.602 12.378.426 4.387-1.098 8.551h13.246m64.682 0h15.416l-1.098-8.551.426-4.387 5.602-12.378h7.356l5.602 12.378.426 4.387-1.098 8.551h13.247m-82.811 0h15.415l-1.098-8.551.426-4.387 5.603-12.378h7.355l5.603 12.378.426 4.387-1.098 8.551h13.246" fill="#666" stroke="#000" stroke-width="1.8222"/></g><path d="M837 684.227c0 9.15-7.418 16.566-16.567 16.566-9.15 0-16.566-7.417-16.566-16.566 0-9.15 7.417-16.566 16.566-16.566 9.15 0 16.566 7.417 16.566 16.566z" fill="#fff" stroke="#000" stroke-width="1.8222"/><g id="x"><path d="M866.318 648.863l-4.64-2.679-4.64-2.679v10.716l4.64-2.68z" fill="#d40000" stroke="#d40000" stroke-width="14.953841"/><path d="M850.132 648.863l-22.727.505" fill="#d40000" stroke="#d40000" stroke-width="14.945" stroke-linecap="square"/></g><g ns0:preamble="/home/waldgeist/data/sphinx/test.tex" ns0:text="Zugkraft" transform="translate(164.142 197.694) scale(2.92771)" fill="#d40000"><defs><symbol id="a" overflow="visible"><path d="M5.453-6.453c.063-.11.063-.125.063-.203 0-.157-.047-.157-.25-.157H.796l-.109 2.25h.25C1-5.688 1.313-6.5 2.938-6.5H4.5L.625-.375c-.063.11-.063.125-.063.203C.563 0 .61 0 .813 0h4.594l.172-2.656h-.25C5.25-1.281 5.062-.344 3.218-.344h-1.64zm0 0"/></symbol><symbol id="b" overflow="visible"><path d="M3.89-.781v.89L5.329 0v-.313c-.687 0-.766-.062-.766-.562v-3.531l-1.468.11v.312c.687 0 .781.062.781.562v1.766c0 .875-.484 1.547-1.219 1.547-.828 0-.875-.47-.875-.985v-3.312l-1.468.11v.312c.78 0 .78.03.78.906v1.5c0 .781 0 1.687 1.516 1.687.563 0 1-.28 1.282-.89zm0 0"/></symbol><symbol id="c" overflow="visible"><path d="M2.219-1.719c-.875 0-.875-1-.875-1.218 0-.266.015-.594.156-.844.078-.11.313-.39.719-.39.86 0 .86.984.86 1.218 0 .265 0 .594-.157.844-.078.109-.313.39-.703.39zm-1.156.39c0-.03 0-.265.156-.468.39.281.812.313 1 .313.922 0 1.61-.688 1.61-1.454 0-.374-.157-.734-.407-.968.36-.344.719-.39.89-.39.032 0 .079 0 .11.015-.11.031-.172.14-.172.265 0 .172.14.282.297.282a.28.28 0 0 0 .281-.297c0-.172-.11-.485-.5-.485-.203 0-.64.063-1.062.47a1.652 1.652 0 0 0-1.047-.36c-.938 0-1.625.687-1.625 1.453 0 .437.219.812.469 1.031-.125.14-.313.469-.313.828 0 .313.14.688.453.89-.61.157-.922.595-.922.985 0 .719.985 1.266 2.203 1.266 1.172 0 2.204-.5 2.204-1.281 0-.344-.125-.86-.641-1.141-.531-.266-1.11-.266-1.719-.266-.25 0-.672 0-.75-.015-.312-.047-.516-.344-.516-.672zM2.5 1.829C1.484 1.828.797 1.312.797.781c0-.453.375-.828.812-.844h.594c.86 0 1.969 0 1.969.844 0 .547-.703 1.047-1.672 1.047zm0 0"/></symbol><symbol id="d" overflow="visible"><path d="M1.063-.75c0 .438-.11.438-.782.438V0c.328-.016.797-.031 1.078-.031.313 0 .704.015 1.11.031v-.313c-.672 0-.781 0-.781-.437v-1.031l.64-.547c.766 1.047 1.188 1.61 1.188 1.797 0 .187-.172.219-.36.219V0c.266-.016.86-.031 1.078-.031.282 0 .579.015.86.031v-.313c-.375 0-.594 0-.969-.53L2.859-2.626c-.015-.016-.062-.078-.062-.11 0-.03.719-.64.812-.718.625-.5 1.047-.531 1.25-.531v-.313c-.28.031-.406.031-.687.031-.36 0-.984-.015-1.125-.03v.312c.187 0 .297.109.297.25 0 .203-.14.312-.219.39L1.719-2.14v-4.78L.28-6.813v.312c.703 0 .781.063.781.563zm0 0"/></symbol><symbol id="e" overflow="visible"><path d="M1.672-3.313v-1.093l-1.39.11v.312c.702 0 .78.062.78.562V-.75c0 .438-.109.438-.78.438V0c.39-.016.859-.031 1.14-.031.39 0 .86 0 1.266.031v-.313h-.22c-.734 0-.75-.109-.75-.468v-1.531c0-.985.423-1.876 1.173-1.876.062 0 .093 0 .109.016-.031 0-.234.125-.234.39 0 .266.218.423.437.423a.421.421 0 0 0 .422-.438c0-.312-.313-.61-.734-.61-.735 0-1.094.673-1.22 1.095zm0 0"/></symbol><symbol id="f" overflow="visible"><path d="M3.313-.75c.046.39.312.813.78.813.22 0 .829-.141.829-.954v-.562h-.25v.562c0 .579-.25.641-.36.641-.328 0-.375-.453-.375-.5v-1.984c0-.422 0-.813-.359-1.188-.39-.39-.89-.547-1.36-.547-.827 0-1.515.469-1.515 1.125 0 .297.203.469.469.469a.435.435 0 0 0 .453-.453c0-.125-.047-.453-.516-.453.282-.36.766-.469 1.079-.469.5 0 1.062.39 1.062 1.281v.36c-.516.03-1.203.062-1.828.359-.75.344-1 .86-1 1.297 0 .812.969 1.062 1.594 1.062.656 0 1.109-.406 1.296-.859zM3.25-2.39v1c0 .937-.719 1.28-1.172 1.28-.484 0-.89-.343-.89-.843 0-.547.421-1.375 2.062-1.438zm0 0"/></symbol><symbol id="g" overflow="visible"><path d="M1.75-4.297v-1.156c0-.875.469-1.36.906-1.36.031 0 .188 0 .328.079a.443.443 0 0 0-.296.421c0 .22.156.422.437.422s.438-.203.438-.437c0-.375-.376-.703-.907-.703-.687 0-1.547.531-1.547 1.593v1.141H.33v.313h.78V-.75c0 .438-.109.438-.765.438V0c.39-.016.86-.031 1.125-.031.406 0 .875 0 1.265.031v-.313h-.203c-.734 0-.75-.109-.75-.468v-3.203h1.125v-.313zm0 0"/></symbol><symbol id="h" overflow="visible"><path d="M1.719-3.984h1.437v-.313H1.72v-1.828h-.25c0 .813-.297 1.875-1.282 1.922v.219h.844v2.75c0 1.218.938 1.343 1.297 1.343.703 0 .985-.703.985-1.343v-.563h-.25v.547c0 .734-.297 1.11-.672 1.11-.672 0-.672-.907-.672-1.079zm0 0"/></symbol></defs><use y="134.765" x="223.432" xlink:href="#a" width="744.094" height="1052.362"/><use y="134.765" x="229.52" xlink:href="#b" width="744.094" height="1052.362"/><use y="134.765" x="235.055" xlink:href="#c" width="744.094" height="1052.362"/><use y="134.765" x="240.037" xlink:href="#d" width="744.094" height="1052.362"/><use y="134.765" x="245.295" xlink:href="#e" width="744.094" height="1052.362"/><use y="134.765" x="249.197" xlink:href="#f" width="744.094" height="1052.362"/><use y="134.765" x="254.179" xlink:href="#g" width="744.094" height="1052.362"/><use y="134.765" x="257.223" xlink:href="#h" width="744.094" height="1052.362"/></g><g transform="translate(-52.68 442.838) scale(2.92771)" ns0:preamble="/home/waldgeist/data/sphinx/test.tex" ns0:text="Rollreibungskraft" fill="#d40000"><defs><symbol id="i" overflow="visible"><path d="M2.234-3.516v-2.578c0-.234 0-.36.22-.39.093-.016.39-.016.593-.016.89 0 2 .047 2 1.484 0 .688-.234 1.5-1.703 1.5zm2.11.125c.953-.234 1.734-.843 1.734-1.625 0-.953-1.14-1.796-2.594-1.796H.344v.312h.25c.765 0 .781.11.781.469v5.25c0 .36-.016.469-.781.469h-.25V0c.36-.031 1.078-.031 1.453-.031.39 0 1.11 0 1.469.031v-.313h-.25c-.766 0-.782-.109-.782-.468v-2.516h1.141c.156 0 .578 0 .938.344.375.344.375.656.375 1.328 0 .64 0 1.047.406 1.422.406.36.953.422 1.25.422.781 0 .953-.813.953-1.094 0-.063 0-.172-.125-.172-.11 0-.11.094-.125.156C6.984-.17 6.64 0 6.39 0c-.485 0-.563-.516-.704-1.438l-.14-.796c-.172-.641-.656-.97-1.203-1.157zm0 0"/></symbol><symbol id="j" overflow="visible"><path d="M4.688-2.14c0-1.266-.985-2.329-2.188-2.329C1.25-4.469.281-3.375.281-2.14A2.22 2.22 0 0 0 2.484.11c1.204 0 2.204-.984 2.204-2.25zM2.5-.14c-.438 0-.875-.204-1.14-.672-.25-.438-.25-1.047-.25-1.407 0-.39 0-.922.234-1.36a1.347 1.347 0 0 1 1.14-.671c.438 0 .86.219 1.125.656.266.422.266 1 .266 1.375 0 .36 0 .906-.219 1.344-.234.453-.672.734-1.156.734zm0 0"/></symbol><symbol id="k" overflow="visible"><path d="M1.766-6.922l-1.438.11v.312c.703 0 .781.063.781.563V-.75c0 .438-.109.438-.78.438V0c.327-.016.859-.031 1.109-.031s.734.015 1.109.031v-.313c-.672 0-.781 0-.781-.437zm0 0"/></symbol><symbol id="l" overflow="visible"><path d="M1.672-3.313v-1.093l-1.39.11v.312c.702 0 .78.062.78.562V-.75c0 .438-.109.438-.78.438V0c.39-.016.859-.031 1.14-.031.39 0 .86 0 1.266.031v-.313h-.22c-.734 0-.75-.109-.75-.468v-1.531c0-.985.423-1.876 1.173-1.876.062 0 .093 0 .109.016-.031 0-.234.125-.234.39 0 .266.218.423.437.423a.421.421 0 0 0 .422-.438c0-.312-.313-.61-.734-.61-.735 0-1.094.673-1.22 1.095zm0 0"/></symbol><symbol id="m" overflow="visible"><path d="M1.11-2.516C1.171-4 2.015-4.25 2.36-4.25c1.015 0 1.124 1.344 1.124 1.734zm0 .22h2.78c.22 0 .25 0 .25-.22 0-.984-.546-1.953-1.78-1.953C1.202-4.469.28-3.437.28-2.187.281-.86 1.328.108 2.47.108 3.688.11 4.14-1 4.14-1.187c0-.094-.079-.125-.141-.125-.078 0-.11.062-.125.14C3.531-.14 2.625-.14 2.531-.14c-.5 0-.89-.296-1.125-.671-.297-.47-.297-1.125-.297-1.485zm0 0"/></symbol><symbol id="n" overflow="visible"><path d="M1.766-4.406l-1.391.11v.312c.64 0 .734.062.734.546V-.75c0 .438-.109.438-.78.438V0c.312-.016.859-.031 1.093-.031.36 0 .703.015 1.047.031v-.313c-.672 0-.703-.046-.703-.437zm.03-1.735a.514.514 0 0 0-.515-.53.537.537 0 0 0-.531.53c0 .266.219.532.531.532a.514.514 0 0 0 .516-.532zm0 0"/></symbol><symbol id="o" overflow="visible"><path d="M1.719-3.766v-3.156l-1.438.11v.312c.703 0 .781.063.781.563V0h.25c0-.016.079-.156.36-.625.14.234.562.734 1.297.734 1.187 0 2.219-.984 2.219-2.265 0-1.266-.97-2.25-2.11-2.25-.781 0-1.203.468-1.36.64zM1.75-1.14v-2.046c0-.188 0-.204.11-.36.39-.562.937-.64 1.171-.64.453 0 .813.265 1.047.64.266.406.281.969.281 1.39 0 .36-.015.954-.296 1.407-.22.313-.594.64-1.125.64-.454 0-.813-.234-1.047-.609-.141-.203-.141-.234-.141-.422zm0 0"/></symbol><symbol id="p" overflow="visible"><path d="M3.89-.781v.89L5.329 0v-.313c-.687 0-.766-.062-.766-.562v-3.531l-1.468.11v.312c.687 0 .781.062.781.562v1.766c0 .875-.484 1.547-1.219 1.547-.828 0-.875-.47-.875-.985v-3.312l-1.468.11v.312c.78 0 .78.03.78.906v1.5c0 .781 0 1.687 1.516 1.687.563 0 1-.28 1.282-.89zm0 0"/></symbol><symbol id="q" overflow="visible"><path d="M1.094-3.422V-.75c0 .438-.11.438-.782.438V0c.36-.016.86-.031 1.141-.031.25 0 .766.015 1.11.031v-.313c-.672 0-.782 0-.782-.437v-1.844c0-1.031.719-1.594 1.344-1.594.64 0 .75.532.75 1.11V-.75c0 .438-.11.438-.781.438V0c.344-.016.86-.031 1.125-.031.25 0 .781.015 1.11.031v-.313c-.516 0-.766 0-.766-.296v-1.907c0-.859 0-1.156-.313-1.515-.14-.172-.469-.375-1.047-.375-.734 0-1.203.422-1.484 1.047v-1.047l-1.407.11v.312c.704 0 .782.062.782.562zm0 0"/></symbol><symbol id="r" overflow="visible"><path d="M2.219-1.719c-.875 0-.875-1-.875-1.218 0-.266.015-.594.156-.844.078-.11.313-.39.719-.39.86 0 .86.984.86 1.218 0 .265 0 .594-.157.844-.078.109-.313.39-.703.39zm-1.156.39c0-.03 0-.265.156-.468.39.281.812.313 1 .313.922 0 1.61-.688 1.61-1.454 0-.374-.157-.734-.407-.968.36-.344.719-.39.89-.39.032 0 .079 0 .11.015-.11.031-.172.14-.172.265 0 .172.14.282.297.282a.28.28 0 0 0 .281-.297c0-.172-.11-.485-.5-.485-.203 0-.64.063-1.062.47a1.652 1.652 0 0 0-1.047-.36c-.938 0-1.625.687-1.625 1.453 0 .437.219.812.469 1.031-.125.14-.313.469-.313.828 0 .313.14.688.453.89-.61.157-.922.595-.922.985 0 .719.985 1.266 2.203 1.266 1.172 0 2.204-.5 2.204-1.281 0-.344-.125-.86-.641-1.141-.531-.266-1.11-.266-1.719-.266-.25 0-.672 0-.75-.015-.312-.047-.516-.344-.516-.672zM2.5 1.829C1.484 1.828.797 1.312.797.781c0-.453.375-.828.812-.844h.594c.86 0 1.969 0 1.969.844 0 .547-.703 1.047-1.672 1.047zm0 0"/></symbol><symbol id="s" overflow="visible"><path d="M2.078-1.938c.219.047 1.031.204 1.031.922 0 .5-.343.907-1.125.907-.843 0-1.203-.563-1.39-1.422-.031-.125-.031-.157-.14-.157-.126 0-.126.063-.126.235v1.328c0 .172 0 .234.11.234C.483.11.5.094.688-.094.703-.109.703-.125.89-.312c.437.406.89.421 1.093.421 1.141 0 1.61-.671 1.61-1.39 0-.516-.297-.828-.422-.938-.328-.328-.719-.406-1.14-.484-.563-.11-1.22-.235-1.22-.813 0-.359.25-.765 1.11-.765 1.094 0 1.156.906 1.172 1.203 0 .094.094.094.11.094.14 0 .14-.047.14-.235v-1.015c0-.157 0-.235-.11-.235-.046 0-.078 0-.203.125-.031.032-.125.125-.172.157-.375-.282-.78-.282-.937-.282-1.219 0-1.594.672-1.594 1.235 0 .343.156.625.422.843.328.25.61.313 1.328.454zm0 0"/></symbol><symbol id="t" overflow="visible"><path d="M1.063-.75c0 .438-.11.438-.782.438V0c.328-.016.797-.031 1.078-.031.313 0 .704.015 1.11.031v-.313c-.672 0-.781 0-.781-.437v-1.031l.64-.547c.766 1.047 1.188 1.61 1.188 1.797 0 .187-.172.219-.36.219V0c.266-.016.86-.031 1.078-.031.282 0 .579.015.86.031v-.313c-.375 0-.594 0-.969-.53L2.859-2.626c-.015-.016-.062-.078-.062-.11 0-.03.719-.64.812-.718.625-.5 1.047-.531 1.25-.531v-.313c-.28.031-.406.031-.687.031-.36 0-.984-.015-1.125-.03v.312c.187 0 .297.109.297.25 0 .203-.14.312-.219.39L1.719-2.14v-4.78L.28-6.813v.312c.703 0 .781.063.781.563zm0 0"/></symbol><symbol id="u" overflow="visible"><path d="M3.313-.75c.046.39.312.813.78.813.22 0 .829-.141.829-.954v-.562h-.25v.562c0 .579-.25.641-.36.641-.328 0-.375-.453-.375-.5v-1.984c0-.422 0-.813-.359-1.188-.39-.39-.89-.547-1.36-.547-.827 0-1.515.469-1.515 1.125 0 .297.203.469.469.469a.435.435 0 0 0 .453-.453c0-.125-.047-.453-.516-.453.282-.36.766-.469 1.079-.469.5 0 1.062.39 1.062 1.281v.36c-.516.03-1.203.062-1.828.359-.75.344-1 .86-1 1.297 0 .812.969 1.062 1.594 1.062.656 0 1.109-.406 1.296-.859zM3.25-2.39v1c0 .937-.719 1.28-1.172 1.28-.484 0-.89-.343-.89-.843 0-.547.421-1.375 2.062-1.438zm0 0"/></symbol><symbol id="v" overflow="visible"><path d="M1.75-4.297v-1.156c0-.875.469-1.36.906-1.36.031 0 .188 0 .328.079a.443.443 0 0 0-.296.421c0 .22.156.422.437.422s.438-.203.438-.437c0-.375-.376-.703-.907-.703-.687 0-1.547.531-1.547 1.593v1.141H.33v.313h.78V-.75c0 .438-.109.438-.765.438V0c.39-.016.86-.031 1.125-.031.406 0 .875 0 1.265.031v-.313h-.203c-.734 0-.75-.109-.75-.468v-3.203h1.125v-.313zm0 0"/></symbol><symbol id="w" overflow="visible"><path d="M1.719-3.984h1.437v-.313H1.72v-1.828h-.25c0 .813-.297 1.875-1.282 1.922v.219h.844v2.75c0 1.218.938 1.343 1.297 1.343.703 0 .985-.703.985-1.343v-.563h-.25v.547c0 .734-.297 1.11-.672 1.11-.672 0-.672-.907-.672-1.079zm0 0"/></symbol></defs><use y="134.765" x="223.432" xlink:href="#i" width="1052.362" height="744.094"/><use y="134.765" x="230.765" xlink:href="#j" width="1052.362" height="744.094"/><use y="134.765" x="235.747" xlink:href="#k" width="1052.362" height="744.094"/><use y="134.765" x="238.514" xlink:href="#k" width="1052.362" height="744.094"/><use y="134.765" x="241.282" xlink:href="#l" width="1052.362" height="744.094"/><use y="134.765" x="245.184" xlink:href="#m" width="1052.362" height="744.094"/><use y="134.765" x="249.612" xlink:href="#n" width="1052.362" height="744.094"/><use y="134.765" x="252.379" xlink:href="#o" width="1052.362" height="744.094"/><use y="134.765" x="257.915" xlink:href="#p" width="1052.362" height="744.094"/><use y="134.765" x="263.45" xlink:href="#q" width="1052.362" height="744.094"/><use y="134.765" x="268.985" xlink:href="#r" width="1052.362" height="744.094"/><use y="134.765" x="273.966" xlink:href="#s" width="1052.362" height="744.094"/><use y="134.765" x="277.896" xlink:href="#t" width="1052.362" height="744.094"/><use y="134.765" x="283.154" xlink:href="#l" width="1052.362" height="744.094"/><use y="134.765" x="287.056" xlink:href="#u" width="1052.362" height="744.094"/><use y="134.765" x="292.037" xlink:href="#v" width="1052.362" height="744.094"/><use y="134.765" x="295.082" xlink:href="#w" width="1052.362" height="744.094"/></g><use xlink:href="#x" transform="matrix(-1 0 0 1 1640.866 140.49)" width="1052.362" height="744.094"/></g></svg>