<?xml version="1.0" encoding="UTF-8" standalone="no"?>
<!-- Created with Inkscape (http://www.inkscape.org/) -->

<svg
   xmlns:ns0="http://www.iki.fi/pav/software/textext/"
   xmlns:dc="http://purl.org/dc/elements/1.1/"
   xmlns:cc="http://creativecommons.org/ns#"
   xmlns:rdf="http://www.w3.org/1999/02/22-rdf-syntax-ns#"
   xmlns:svg="http://www.w3.org/2000/svg"
   xmlns="http://www.w3.org/2000/svg"
   xmlns:xlink="http://www.w3.org/1999/xlink"
   xmlns:sodipodi="http://sodipodi.sourceforge.net/DTD/sodipodi-0.dtd"
   xmlns:inkscape="http://www.inkscape.org/namespaces/inkscape"
   width="1052.3622"
   height="744.09448"
   id="svg6440"
   version="1.1"
   inkscape:version="0.48.4 r9939"
   sodipodi:docname="rollreibung.svg"
   inkscape:export-filename="/home/waldgeist/data/pics/physik/Own/mechanik/reibung/rollreibung.png"
   inkscape:export-xdpi="90"
   inkscape:export-ydpi="90">
  <title
     id="title5951">Rollreibung</title>
  <sodipodi:namedview
     id="base"
     pagecolor="#ffffff"
     bordercolor="#666666"
     borderopacity="1.0"
     inkscape:pageopacity="0.0"
     inkscape:pageshadow="2"
     inkscape:zoom="0.66308594"
     inkscape:cx="736.73223"
     inkscape:cy="134.42471"
     inkscape:document-units="px"
     inkscape:current-layer="layer1"
     showgrid="false"
     inkscape:window-width="1600"
     inkscape:window-height="1150"
     inkscape:window-x="0"
     inkscape:window-y="0"
     inkscape:window-maximized="1" />
  <defs
     id="defs6442" />
  <metadata
     id="metadata6445">
    <rdf:RDF>
      <cc:Work
         rdf:about="">
        <dc:format>image/svg+xml</dc:format>
        <dc:type
           rdf:resource="http://purl.org/dc/dcmitype/StillImage" />
        <dc:title>Rollreibung</dc:title>
        <dc:date>2011-09-08</dc:date>
        <dc:creator>
          <cc:Agent>
            <dc:title>Bernhard Grotz</dc:title>
          </cc:Agent>
        </dc:creator>
        <dc:rights>
          <cc:Agent>
            <dc:title>Bernhard Grotz</dc:title>
          </cc:Agent>
        </dc:rights>
        <dc:publisher>
          <cc:Agent>
            <dc:title>Bernhard Grotz</dc:title>
          </cc:Agent>
        </dc:publisher>
        <dc:language>de-DE</dc:language>
        <dc:subject>
          <rdf:Bag>
            <rdf:li>Physik</rdf:li>
            <rdf:li>Mechanik</rdf:li>
            <rdf:li>Dynamik</rdf:li>
            <rdf:li>Reibung</rdf:li>
            <rdf:li>Rollreibung</rdf:li>
            <rdf:li>Zahnrad</rdf:li>
          </rdf:Bag>
        </dc:subject>
        <cc:license
           rdf:resource="http://creativecommons.org/licenses/by-nc-sa/3.0/" />
      </cc:Work>
      <cc:License
         rdf:about="http://creativecommons.org/licenses/by-nc-sa/3.0/">
        <cc:permits
           rdf:resource="http://creativecommons.org/ns#Reproduction" />
        <cc:permits
           rdf:resource="http://creativecommons.org/ns#Distribution" />
        <cc:requires
           rdf:resource="http://creativecommons.org/ns#Notice" />
        <cc:requires
           rdf:resource="http://creativecommons.org/ns#Attribution" />
        <cc:prohibits
           rdf:resource="http://creativecommons.org/ns#CommercialUse" />
        <cc:permits
           rdf:resource="http://creativecommons.org/ns#DerivativeWorks" />
        <cc:requires
           rdf:resource="http://creativecommons.org/ns#ShareAlike" />
      </cc:License>
    </rdf:RDF>
  </metadata>
  <g
     transform="translate(0,-308.2677)"
     id="layer1"
     inkscape:groupmode="layer"
     inkscape:label="Ebene 1">
    <rect
       y="526.40649"
       x="8.880188"
       height="325.91409"
       width="1034.6018"
       id="rect6196"
       style="fill:#ffffff;stroke:#ffffff;stroke-width:1;stroke-miterlimit:4;stroke-dasharray:none"
       inkscape:export-filename="/home/waldgeist/data/homepage/pics/physik/mechanik/dynamik/rollreibung.png"
       inkscape:export-xdpi="150"
       inkscape:export-ydpi="150" />
    <rect
       style="fill:#ffffff;stroke:#ffffff;stroke-width:0.99999994;stroke-miterlimit:4;stroke-dasharray:none"
       id="rect6196-5"
       width="396.67545"
       height="340.34137"
       x="17.174744"
       y="529.74957"
       inkscape:export-filename="/home/waldgeist/data/homepage/pics/physik/mechanik/dynamik/rollreibung.png"
       inkscape:export-xdpi="150"
       inkscape:export-ydpi="150" />
    <path
       style="fill:#b3b3b3;stroke:#b3b3b3;stroke-width:1.99999988;stroke-linecap:butt;stroke-linejoin:miter;stroke-miterlimit:4;stroke-opacity:1;stroke-dasharray:none"
       d="m 526.18109,566.10721 0,228.41546"
       id="path36768-1"
       inkscape:connector-curvature="0"
       inkscape:export-filename="/home/waldgeist/data/homepage/pics/physik/mechanik/dynamik/rollreibung.png"
       inkscape:export-xdpi="150"
       inkscape:export-ydpi="150" />
    <g
       transform="matrix(0.37801286,0,0,0.34876662,47.209467,233.33377)"
       id="g6186"
       inkscape:export-filename="/home/waldgeist/data/homepage/pics/physik/mechanik/dynamik/rollreibung.png"
       inkscape:export-xdpi="150"
       inkscape:export-ydpi="150">
      <path
         style="fill:#666666;stroke:#000000;stroke-width:3;stroke-miterlimit:4;stroke-dasharray:none"
         d="m -11.104236,1422.6934 0,-88.117 c 0.63628,-1.8708 0.33464,-1.9904 12.2717001,-1.852 21.8908999,0.2539 77.4000059,-1.0805 64.2387099,4.3977 -18.77142,7.8134 34.898976,4.8413 18.37827,-0.8963 -3.482995,-1.2096 23.714646,-9.7675 29.720206,-0.4615 9.22499,12.6872 35.03577,5.1581 28.42391,-2.2347 -3.07726,-2.5276 7.57465,-0.7639 8.27699,-0.9936 0.70234,-0.2296 3.40234,0.3217 6,1.2251 3.89356,1.3541 -7.78919,5.003 13.36166,3.8539 0.55,0.011 20.21135,-2.3659 27.36135,-3.5127 16.05528,-2.5752 10.18087,-2.4064 35.31499,3.4151 4.95208,1.147 16.12849,1.2547 22.51681,0.4944 4.83657,-0.5756 2.94555,3.7198 7.00188,4.2241 4.45122,0.5534 19.80436,-5.3379 29.01681,-4.7861 0,0 30.5807,-14.5738 34.07489,-4.801 -6.61494,29.1819 27.19852,13.4337 23.81816,0.7815 -3.14073,-11.7553 23.60192,3.6576 30.25646,3.201 15.77564,-1.0825 22.24321,-1.7345 25,-2.5202 1.65,-0.4703 4.2375,-1.129 5.75,-1.4639 1.5125,-0.3349 2.75,-0.9949 2.75,-1.4667 0,-1.053 -7.69059,-4.4151 -19,-8.3062 -4.675,-1.6085 -3.55999,-1.1662 -5.68748,-2.5572 -2.12749,-1.3909 -11.95817,-5.5551 -13.68068,-5.7137 -1.72251,-0.1585 -5.15684,-0.766 -7.63184,-1.3499 -2.475,-0.5839 0.91658,1.5686 -0.62843,1.2432 -1.545,-0.3254 -11.44252,-5.288 -13.8292,-7.488 -2.38668,-2.1999 -4.72259,-3.9109 -5.1909,-3.802 -1.83062,0.4254 -0.2315,-0.091 -1.34445,-1.6537 -0.64551,-0.9067 -24.36253,-11.7655 -18.57407,-8.5366 12.77899,7.1284 -11.52454,-6.3912 -13.6821,-8.19 -1.70037,-1.4176 -3.36477,-2.75 -3.85661,-2.75 -0.49183,0 -0.89424,-0.3516 -0.89424,-0.7813 0,-1.4539 -9.52295,-10.7086 -12.52176,-12.1691 -3.55782,-1.7327 -9.46684,-7.0136 -9.50628,-8.4957 -0.0154,-0.5796 -2.95193,-2.8539 -6.52558,-5.0539 -3.57365,-2.2 -6.58547,5.2372 -9.66212,-6 -0.57318,-2.0935 -5.16726,-4.475 -7.61498,-7.5 -2.44772,-3.025 -6.97465,-8.2729 -10.05984,-11.6621 -6.79564,-7.4651 -8.95145,-10.4676 -11.73103,-16.3379 -1.17192,-2.475 -4.83546,-7.088 -8.14121,-10.2512 -6.26593,-5.9956 -8.99274,-10.4675 -9.9392,-16.2998 -0.30783,-1.8969 -0.90202,-3.449 -1.32043,-3.449 -0.41842,0 -1.04311,-1.125 -1.38821,-2.5 -0.34511,-1.375 -1.01418,-2.5 -1.48684,-2.5 -1.26129,0 -11.73759,-16.0596 -12.44927,-19.084 -0.33443,-1.4213 -1.98011,-4.3106 -3.65707,-6.4208 -1.67696,-2.1101 -2.8883,-11.2396 -2.69186,-11.8332 l 138.73139,0 c 0,0 2.01239,2.0715 3.99956,3.8699 1.11939,1.013 1.80852,2.4328 1.53138,3.155 -0.32365,0.8434 0.29777,1.3131 1.73733,1.3131 1.53569,0 2.83456,1.1017 4.12609,3.5 1.03668,1.925 2.51197,3.5 3.27843,3.5 0.76645,0 2.05163,1.575 2.85595,3.5 0.93024,2.2263 2.14114,3.5 3.32765,3.5 1.14101,0 2.36129,1.1975 3.14275,3.0841 0.70261,1.6963 2.33774,3.4872 3.63361,3.9799 1.29587,0.4927 2.87282,2.0298 3.50435,3.4159 0.63152,1.386 1.87598,2.5201 2.76546,2.5201 1.70206,0 5.06173,3.3263 5.06173,5.0114 0,0.5437 0.86968,0.9886 1.93261,0.9886 1.06294,0 2.20359,0.8537 2.53479,1.8972 0.41738,1.3151 1.22339,1.7349 2.62647,1.368 1.47436,-0.3856 2.17576,0.05 2.58184,1.6027 0.30665,1.1726 1.12863,2.1321 1.82661,2.1321 1.30906,0 4.32174,1.468 8.24768,4.019 1.2375,0.8042 2.25,2.3026 2.25,3.3299 0,1.4931 0.50167,1.742 2.5,1.2404 2.04838,-0.5141 2.5,-0.2627 2.5,1.3916 0,1.1105 0.49814,2.0191 1.10699,2.0191 0.60884,0 0.8535,-0.6606 0.54367,-1.468 -0.30982,-0.8074 -0.18012,-1.7048 0.28823,-1.9943 0.46835,-0.2894 1.10957,0.1462 1.42494,0.968 0.31537,0.8218 1.22039,1.4943 2.01117,1.4943 0.98178,0 1.26925,0.7135 0.90641,2.25 -0.51008,2.1599 -0.4724,2.1738 0.94097,0.3485 0.97563,-1.26 1.70331,-1.5278 2.157,-0.7937 0.37657,0.6093 1.41033,0.8294 2.29725,0.489 0.94452,-0.3624 2.12755,0.085 2.85561,1.0811 0.68366,0.935 1.63109,1.6298 2.10539,1.5441 2.1335,-0.3856 3.36237,0.1991 3.36237,1.6 0,1.0977 0.65576,1.3545 2.36395,0.9258 1.86748,-0.4688 2.51979,-0.1052 3.106,1.7309 0.61961,1.9408 0.81917,2.0354 1.20949,0.5736 0.35558,-1.3316 1.10801,-1.6021 3.144,-1.13 1.47211,0.3413 3.21848,1.2994 3.88083,2.1292 0.73847,0.9251 2.05648,1.2858 3.40757,0.9325 1.21181,-0.3169 3.71841,0.057 5.57023,0.8306 1.85182,0.7737 4.03091,1.152 4.84243,0.8406 0.81153,-0.3114 1.4755,-0.1423 1.4755,0.3759 0,0.5181 2.90951,0.8764 6.46558,0.7961 4.35353,-0.098 6.62175,0.261 6.94366,1.0998 0.36355,0.9474 1.37558,0.9981 4.22498,0.2113 3.0951,-0.8546 3.9504,-0.7563 4.91659,0.565 1.46774,2.0073 2.44919,2.0472 2.44919,0.1 0,-1.6431 1.55514,-2.0288 2.43566,-0.6041 0.32143,0.5201 2.12896,0.5331 4.30901,0.031 3.02213,-0.6961 3.99938,-0.5408 5.00533,0.7953 1.16172,1.543 1.25,1.5408 1.25,-0.031 0,-1.8557 1.52129,-2.2747 2.50134,-0.689 0.35649,0.5768 2.29149,0.7348 4.55902,0.3722 2.62979,-0.4205 3.93964,-0.255 3.93964,0.4978 0,0.6203 0.675,1.1278 1.5,1.1278 0.825,0 1.5,-0.4358 1.5,-0.9686 0,-0.5327 0.6186,-0.7312 1.37466,-0.4411 1.17764,0.4519 15.65881,-3.0814 26.42774,-6.4482 2.73804,-0.8561 3.40771,-0.7581 3.91857,0.5732 0.49622,1.2931 0.79143,1.1364 1.51651,-0.8048 0.84932,-2.2738 0.97604,-2.3079 2.23544,-0.6006 0.74791,1.0139 1.59994,1.3813 1.93731,0.8354 0.33123,-0.5359 0.0369,-1.1631 -0.654,-1.3937 -1.39744,-0.4664 3.02339,-2.6169 10.99377,-5.3478 3.0354,-1.04 5.25,-2.3999 5.25,-3.2237 0,-1.1532 0.28602,-1.1876 1.5,-0.1801 1.2532,1.0401 1.5,0.8957 1.5,-0.8775 0,-2.235 2.95167,-3.0756 3.06339,-0.8725 0.0349,0.6875 0.45468,0.2799 0.93293,-0.9058 0.51481,-1.2763 2.14836,-2.4367 4.00418,-2.8443 1.72405,-0.3786 3.36647,-1.2926 3.64983,-2.031 0.28335,-0.7384 1.15295,-1.0978 1.93243,-0.7987 0.94664,0.3633 1.41724,-0.1558 1.41724,-1.5631 0,-1.1589 0.57985,-2.107 1.28856,-2.107 2.0656,0 8.78144,-3.7196 10.27679,-5.6918 0.81609,-1.0763 1.38392,-1.3023 1.40285,-0.5582 0.061,2.3985 2.0318,1.23 2.0318,-1.2047 0,-2.006 0.6295,-2.5728 3.44365,-3.1007 2.50286,-0.4696 3.52734,-1.2322 3.75,-2.7915 0.19177,-1.3429 1.70892,-2.8043 4.05635,-3.9071 2.0625,-0.969 3.75,-2.1941 3.75,-2.7225 0,-0.5284 0.70876,-0.6888 1.57502,-0.3564 1.13941,0.4373 1.48512,0.087 1.25,-1.2674 -0.24886,-1.4332 0.55371,-2.0922 3.42498,-2.8121 2.93729,-0.7366 3.75,-1.4258 3.75,-3.1802 0,-1.5269 0.95485,-2.6625 3,-3.5677 1.65,-0.7304 3,-2.0615 3,-2.9582 0,-2.2722 5.94559,-11.9346 9.32525,-13.2195 l 135.1269,0 c 3.1033,-0.7789 4.5075,3.3525 4.5325,7.1843 0.01,1.2904 -2.1221,6.2359 -4.7346,10.9901 -2.6125,4.7542 -5.65,10.6769 -6.75,13.1614 -1.1,2.4846 -3.4625,6.6201 -5.25,9.1901 -1.7875,2.57 -3.2521,5.0416 -3.2545,5.4925 0,0.7323 -2.1961,4.0677 -11.7195,17.8321 -1.5268,2.2067 -5.6173,6.9317 -9.0901,10.5 -3.4727,3.5683 -7.0139,7.8068 -7.8693,9.4189 -0.8555,1.6122 -3.7385,5.0577 -6.4067,7.6566 -2.6683,2.5989 -5.5448,6.4584 -6.3924,8.5767 -1.1,2.7493 -2.7539,4.503 -5.77928,6.1285 -2.33105,1.2523 -6.71327,4.5745 -9.73827,7.3825 -3.025,2.8081 -8.65,7.1256 -12.5,9.5944 -3.85,2.4689 -9.04776,6.3897 -11.55058,8.713 -2.63277,2.444 -7.04806,5.1586 -10.47661,6.4414 -4.44614,1.6635 -7.43024,3.7604 -11.94942,8.3965 -4.65286,4.7732 -7.3886,6.6663 -12.02339,8.32 -8.53855,3.0465 -8.58455,3.0668 -13,5.7251 -9.13294,5.4985 -22.41706,11.6296 -28.5,13.1538 -3.575,0.8957 -8.525,2.8174 -11,4.2703 -2.475,1.4529 -6.525,3.3979 -9,4.3223 -13.70985,5.1205 -18.59116,7.1083 -19.39464,7.8979 -2.75443,2.7067 18.11232,2.2774 34.76935,-0.7154 7.26549,-1.3054 11.34244,5.8549 16.45144,6.7963 9.25182,1.7047 23.34815,-5.7804 29.29513,-7.7255 4.31702,-1.4121 6.35482,-1.4801 14.97374,-0.5 5.48717,0.6239 8.58335,14.168 13.41262,14.168 4.82928,0 16.70853,-12.556 19.86612,-11.9723 4.73186,0.8748 7.95743,9.4581 12.08449,8.0873 3.2484,-1.079 5.12941,-10.7266 7.35644,-9.691 27.97759,13.0094 4.71901,4.5641 17.58256,0.6984 2.95294,-0.8874 14.93142,5.4684 23.23925,7.2893 19.67381,4.312 12.59975,-2.9478 18.17835,-5.8437 2.7704,-1.4379 4.55546,5.5477 17.66386,5.6868 8.6269,0.091 24.73321,-7.4222 30.89281,-6.9621 6.9353,0.5181 11.20956,9.1352 16.65966,8.5001 4.8404,-0.5641 16.89387,-9.3918 25.96887,-9.8821 9.075,-0.4903 20.56386,8.7168 27.16386,8.0702 11.8288,-1.1588 21.71604,-11.5262 34.19234,-11.0219 3.4959,0.1413 15.96331,2.6285 17.90701,1.987 1.9438,-0.6414 1.07909,-4.2447 7.87699,-4.4672 6.7979,-0.2225 25.29195,3.8495 27.21695,3.7391 1.925,-0.1105 0.33681,-7.268 3.61521,-6.8345 3.8943,0.515 8.1642,0.3503 12.3167,-0.4751 5.6644,-1.1259 1.27464,2.0081 4.79914,3.5974 2.3601,1.0643 5.8689,2.7148 6.1298,3.9611 l 0,94.1159 z"
         id="path6164"
         inkscape:connector-curvature="0"
         sodipodi:nodetypes="ccsssccsscssssccssssssssssscsssssscssssssssssssccssssssssssssssssssssssscsssscsccsssssssssssssssssssssssscsssssssssscssccssssssssssssssscccssscsccccsssssssssssssssssssssscsssssscsssssccc" />
      <path
         style="fill:#b3b3b3;stroke:#000000;stroke-width:3;stroke-miterlimit:4;stroke-dasharray:none"
         d="m 417.87711,1331.5212 c 1.5125,-0.3349 -5.58376,-0.9949 -5.58376,-1.4667 0,-1.053 -7.69059,-4.4151 -19,-8.3062 -4.675,-1.6085 -10.24067,-4.0626 -12.36816,-5.4536 -2.12749,-1.3909 -5.27749,-2.6587 -7,-2.8173 -1.72251,-0.1585 -5.15684,-0.766 -7.63184,-1.3499 -2.475,-0.5839 -5.7641,-1.3278 -7.30911,-1.6532 -1.545,-0.3254 -4.76184,-2.3916 -7.14852,-4.5916 -2.38668,-2.1999 -4.72259,-3.9109 -5.1909,-3.802 -1.83062,0.4254 -6.91218,-1.5388 -8.02513,-3.1019 -0.64551,-0.9067 -5.99754,-4.0964 -11.89339,-7.0884 -5.89586,-2.992 -12.05281,-6.6775 -13.6821,-8.19 -1.6293,-1.5125 -3.36477,-2.75 -3.85661,-2.75 -0.49183,0 -0.89424,-0.3516 -0.89424,-0.7813 0,-1.4539 -9.52295,-10.7086 -12.52176,-12.1691 -3.55782,-1.7327 -9.46684,-7.0136 -9.50628,-8.4957 -0.0154,-0.5796 -2.95193,-2.8539 -6.52558,-5.0539 -3.57365,-2.2 -7.92161,-4.9 -9.66212,-6 -1.74052,-1.1 -5.16726,-4.475 -7.61498,-7.5 -2.44772,-3.025 -6.97465,-8.2729 -10.05984,-11.6621 -6.79564,-7.4651 -8.95145,-10.4676 -11.73103,-16.3379 -1.17192,-2.475 -4.83546,-7.088 -8.14121,-10.2512 -6.26593,-5.9956 -8.99274,-10.4675 -9.9392,-16.2998 -0.30783,-1.8969 -0.90202,-3.449 -1.32043,-3.449 -0.41842,0 -1.04311,-1.125 -1.38821,-2.5 -0.34511,-1.375 -1.01418,-2.5 -1.48684,-2.5 -1.26129,0 -11.73759,-16.0596 -12.44927,-19.084 -0.33443,-1.4213 -1.98011,-4.3106 -3.65707,-6.4208 -1.67696,-2.1101 -2.8883,-11.2396 -2.69186,-11.8332 l 138.73139,0 c 0,0 2.01239,2.0715 3.99956,3.8699 1.11939,1.013 1.80852,2.4328 1.53138,3.155 -0.32365,0.8434 0.29777,1.3131 1.73733,1.3131 1.53569,0 2.83456,1.1017 4.12609,3.5 1.03668,1.925 2.51197,3.5 3.27843,3.5 0.76645,0 2.05163,1.575 2.85595,3.5 0.93024,2.2263 2.14114,3.5 3.32765,3.5 1.14101,0 2.36129,1.1975 3.14275,3.0841 0.70261,1.6963 2.33774,3.4872 3.63361,3.9799 1.29587,0.4927 2.87282,2.0298 3.50435,3.4159 0.63152,1.386 1.87598,2.5201 2.76546,2.5201 1.70206,0 5.06173,3.3263 5.06173,5.0114 0,0.5437 0.86968,0.9886 1.93261,0.9886 1.06294,0 2.20359,0.8537 2.53479,1.8972 0.41738,1.3151 1.22339,1.7349 2.62647,1.368 1.47436,-0.3856 2.17576,0.05 2.58184,1.6027 0.30665,1.1726 1.12863,2.1321 1.82661,2.1321 1.30906,0 4.32174,1.468 8.24768,4.019 1.2375,0.8042 2.25,2.3026 2.25,3.3299 0,1.4931 0.50167,1.742 2.5,1.2404 2.04838,-0.5141 2.5,-0.2627 2.5,1.3916 0,1.1105 0.49814,2.0191 1.10699,2.0191 0.60884,0 0.8535,-0.6606 0.54367,-1.468 -0.30982,-0.8074 -0.18012,-1.7048 0.28823,-1.9943 0.46835,-0.2894 1.10957,0.1462 1.42494,0.968 0.31537,0.8218 1.22039,1.4943 2.01117,1.4943 0.98178,0 1.26925,0.7135 0.90641,2.25 -0.51008,2.1599 -0.4724,2.1738 0.94097,0.3485 0.97563,-1.26 1.70331,-1.5278 2.157,-0.7937 0.37657,0.6093 1.41033,0.8294 2.29725,0.489 0.94452,-0.3624 2.12755,0.085 2.85561,1.0811 0.68366,0.935 1.63109,1.6298 2.10539,1.5441 2.1335,-0.3856 3.36237,0.1991 3.36237,1.6 0,1.0977 0.65576,1.3545 2.36395,0.9258 1.86748,-0.4688 2.51979,-0.1052 3.106,1.7309 0.61961,1.9408 0.81917,2.0354 1.20949,0.5736 0.35558,-1.3316 1.10801,-1.6021 3.144,-1.13 1.47211,0.3413 3.21848,1.2994 3.88083,2.1292 0.73847,0.9251 2.05648,1.2858 3.40757,0.9325 1.21181,-0.3169 3.71841,0.057 5.57023,0.8306 1.85182,0.7737 4.03091,1.152 4.84243,0.8406 0.81153,-0.3114 1.4755,-0.1423 1.4755,0.3759 0,0.5181 2.90951,0.8764 6.46558,0.7961 4.35353,-0.098 6.62175,0.261 6.94366,1.0998 0.36355,0.9474 1.37558,0.9981 4.22498,0.2113 3.0951,-0.8546 3.9504,-0.7563 4.91659,0.565 1.46774,2.0073 2.44919,2.0472 2.44919,0.1 0,-1.6431 1.55514,-2.0288 2.43566,-0.6041 0.32143,0.5201 2.12896,0.5331 4.30901,0.031 3.02213,-0.6961 3.99938,-0.5408 5.00533,0.7953 1.16172,1.543 1.25,1.5408 1.25,-0.031 0,-1.8557 1.52129,-2.2747 2.50134,-0.689 0.35649,0.5768 2.29149,0.7348 4.55902,0.3722 2.62979,-0.4205 3.93964,-0.255 3.93964,0.4978 0,0.6203 0.675,1.1278 1.5,1.1278 0.825,0 1.5,-0.4358 1.5,-0.9686 0,-0.5327 0.6186,-0.7312 1.37466,-0.4411 1.17764,0.4519 15.65881,-3.0814 26.42774,-6.4482 2.73804,-0.8561 3.40771,-0.7581 3.91857,0.5732 0.49622,1.2931 0.79143,1.1364 1.51651,-0.8048 0.84932,-2.2738 0.97604,-2.3079 2.23544,-0.6006 0.74791,1.0139 1.59994,1.3813 1.93731,0.8354 0.33123,-0.5359 0.0369,-1.1631 -0.654,-1.3937 -1.39744,-0.4664 3.02339,-2.6169 10.99377,-5.3478 3.0354,-1.04 5.25,-2.3999 5.25,-3.2237 0,-1.1532 0.28602,-1.1876 1.5,-0.1801 1.2532,1.0401 1.5,0.8957 1.5,-0.8775 0,-2.235 2.95167,-3.0756 3.06339,-0.8725 0.0349,0.6875 0.45468,0.2799 0.93293,-0.9058 0.51481,-1.2763 2.14836,-2.4367 4.00418,-2.8443 1.72405,-0.3786 3.36647,-1.2926 3.64983,-2.031 0.28335,-0.7384 1.15295,-1.0978 1.93243,-0.7987 0.94664,0.3633 1.41724,-0.1558 1.41724,-1.5631 0,-1.1589 0.57985,-2.107 1.28856,-2.107 2.0656,0 8.78144,-3.7196 10.27679,-5.6918 0.81609,-1.0763 1.38392,-1.3023 1.40285,-0.5582 0.061,2.3985 2.0318,1.23 2.0318,-1.2047 0,-2.006 0.6295,-2.5728 3.44365,-3.1007 2.50286,-0.4696 3.52734,-1.2322 3.75,-2.7915 0.19177,-1.3429 1.70892,-2.8043 4.05635,-3.9071 2.0625,-0.969 3.75,-2.1941 3.75,-2.7225 0,-0.5284 0.70876,-0.6888 1.57502,-0.3564 1.13941,0.4373 1.48512,0.087 1.25,-1.2674 -0.24886,-1.4332 0.55371,-2.0922 3.42498,-2.8121 2.93729,-0.7366 3.75,-1.4258 3.75,-3.1802 0,-1.5269 0.95485,-2.6625 3,-3.5677 1.65,-0.7304 3,-2.0615 3,-2.9582 0,-2.2722 5.94559,-11.9346 9.32525,-13.2195 l 135.1269,0 c 3.1033,-0.7789 4.5075,3.3525 4.5325,7.1843 0.01,1.2904 -2.1221,6.2359 -4.7346,10.9901 -2.6125,4.7542 -5.65,10.6769 -6.75,13.1614 -1.1,2.4846 -3.4625,6.6201 -5.25,9.1901 -1.7875,2.57 -3.2521,5.0416 -3.2545,5.4925 0,0.7323 -2.1961,4.0677 -11.7195,17.8321 -1.5268,2.2067 -5.6173,6.9317 -9.0901,10.5 -3.4727,3.5683 -7.0139,7.8068 -7.8693,9.4189 -0.8555,1.6122 -3.7385,5.0577 -6.4067,7.6566 -2.6683,2.5989 -5.5448,6.4584 -6.3924,8.5767 -1.1,2.7493 -2.7539,4.503 -5.77928,6.1285 -2.33105,1.2523 -6.71327,4.5745 -9.73827,7.3825 -3.025,2.8081 -8.65,7.1256 -12.5,9.5944 -3.85,2.4689 -9.04776,6.3897 -11.55058,8.713 -2.63277,2.444 -7.04806,5.1586 -10.47661,6.4414 -4.44614,1.6635 -7.43024,3.7604 -11.94942,8.3965 -4.65286,4.7732 -7.3886,6.6663 -12.02339,8.32 -8.53855,3.0465 -8.58455,3.0668 -13,5.7251 -9.13294,5.4985 -22.41706,11.6296 -28.5,13.1538 -3.575,0.8957 -8.525,2.8174 -11,4.2703 -2.475,1.4529 -6.525,3.3979 -9,4.3223 -13.70985,5.1205 -18.59116,7.1083 -19.39464,7.8979 -2.75443,2.7067 -10.67703,1.7723 -11.19259,1.81 -7.36222,0.5377 -11.65374,1.5757 -11.65374,1.5757 -10.67662,2.5566 -10.78499,3.0509 -10.78499,3.0509 l -9.775,0.5102 c 0,0 -17.65072,-3.1761 -13.56772,-0.3809 3.3983,2.3265 -14.55157,-1.288 -11.23731,-0.959 4.7802,0.4745 -27.92807,0.276 -23.58073,0.1648 l 10.95586,-0.9131 c 4.91941,0.04 -15.82483,0.8397 -25.51784,1.426 2.36,1.0643 -9.62557,-3.212 -9.36467,-1.9657 l -9.34391,-3.8689 c -14.11271,-2.7522 -11.95896,0.11 -11.95896,0.11 z"
         id="path6164-1"
         inkscape:connector-curvature="0"
         sodipodi:nodetypes="cssssssscsssssscssssssssssssccssssssssssssssssssssssscsssscsccsssssssssssssssssssssssscsssssssssscssccssssssssssssssscccssscsccccssssssssssssssccsscccccc" />
    </g>
    <path
       inkscape:connector-curvature="0"
       style="fill:#b3b3b3;stroke:#000000;stroke-width:1.8610673;stroke-miterlimit:4;stroke-dasharray:none"
       d="m 879.10879,676.03652 7.48986,-1.0447 4.38377,0.45747 12.33701,5.69042 -0.0524,7.35538 -12.41686,5.514 -4.38987,0.39484 -7.47418,-1.15146 -3.64368,13.22085 7.00799,2.83813 3.57016,2.58842 7.83696,11.09706 -3.72307,6.34271 -13.50836,-1.43259 -4.00159,-1.85259 -5.89445,-4.73432 -9.76591,9.62772 4.64981,5.96135 1.79535,4.02761 1.23993,13.52732 -6.39522,3.63236 -10.98416,-7.99436 -2.53731,-3.60665 -2.73802,-7.04774 -13.27134,3.45496 1.04476,7.48984 -0.45747,4.38376 -5.69042,12.33704 -7.35546,-0.0524 -5.51398,-12.41684 -0.39485,-4.38989 1.15146,-7.47416 -13.22085,-3.64367 -2.83813,7.00795 -2.58845,3.57018 -11.09699,7.83698 -6.34277,-3.72315 1.43265,-13.50828 1.8526,-4.0016 4.73428,-5.89449 -9.62775,-9.76592 -5.96129,4.64984 -4.02759,1.79538 -13.52737,1.23993 -3.63233,-6.39515 7.99433,-10.9842 3.60667,-2.53727 7.04775,-2.73806 -3.45496,-13.27135 -7.48989,1.0447 -4.38375,-0.45745 -12.33706,-5.69043 0.0524,-7.35539 12.41689,-5.51401 4.38987,-0.39484 7.47416,1.15144 3.6437,-13.22084 -7.008,-2.83814 -3.57014,-2.58844 -7.837,-11.09696 3.72309,-6.3428 13.50837,1.4326 4.00162,1.8526 5.89443,4.7343 9.76591,-9.62771 -4.64984,-5.96132 -1.79536,-4.02755 -1.23993,-13.52742 6.3952,-3.63227 10.98419,7.99432 2.53729,3.60662 2.73803,7.04772 13.27135,-3.45495 -1.04487,-7.48981 0.45745,-4.38375 5.69042,-12.33707 7.35542,0.0525 5.51399,12.41684 0.39484,4.38986 -1.15148,7.47416 13.22087,3.6437 2.83813,-7.00796 2.58843,-3.57014 11.09699,-7.83699 6.34279,3.72314 -1.43266,13.50835 -1.85258,4.00152 -4.73431,5.89449 9.62775,9.76589 5.96131,-4.64986 4.02761,-1.79534 13.52734,-1.23994 3.63234,6.39521 -7.99436,10.98416 -3.60662,2.53732 -7.04776,2.73796 z"
       id="path4000-8-8"
       inkscape:export-filename="/home/waldgeist/data/homepage/pics/physik/mechanik/dynamik/rollreibung.png"
       inkscape:export-xdpi="150"
       inkscape:export-ydpi="150" />
    <g
       style="fill:#999999;stroke-width:3;stroke-miterlimit:4;stroke-dasharray:none"
       transform="matrix(0.60739797,0,0,0.60739797,1345.9303,-284.6071)"
       id="g4643"
       inkscape:export-filename="/home/waldgeist/data/homepage/pics/physik/mechanik/dynamik/rollreibung.png"
       inkscape:export-xdpi="150"
       inkscape:export-ydpi="150">
      <g
         style="fill:#999999;stroke-width:3;stroke-miterlimit:4;stroke-dasharray:none"
         id="g4057"
         transform="translate(-50.276467,64.649763)" />
      <g
         style="fill:#999999;stroke-width:3;stroke-miterlimit:4;stroke-dasharray:none"
         id="g4061"
         transform="translate(-171.49473,64.649763)" />
      <g
         style="fill:#999999;stroke-width:3;stroke-miterlimit:4;stroke-dasharray:none"
         transform="translate(70.941795,64.649763)"
         id="g4067" />
      <g
         style="fill:#999999;stroke-width:3;stroke-miterlimit:4;stroke-dasharray:none"
         id="g4593"
         transform="translate(192.16005,64.649763)" />
      <g
         style="fill:#999999;stroke-width:3;stroke-miterlimit:4;stroke-dasharray:none"
         transform="translate(-292.71299,64.649763)"
         id="g4599">
        <path
           sodipodi:nodetypes="cccccccccccccccccccccccccccccccccccccccccccccccccccccccccccccccccccccccccccccccccccccccccccccccccccccc"
           inkscape:connector-curvature="0"
           d="m -824.24919,1674.5535 25.37993,0 -1.80792,-14.0795 0.70172,-7.2225 9.22349,-20.3775 12.11005,0 9.22349,20.3775 0.70172,7.2225 -1.80793,14.0795 21.80851,0 m 409.33998,0 25.37993,0 -1.80792,-14.0795 0.70172,-7.2225 9.22349,-20.3775 12.11005,0 9.22349,20.3775 0.70172,7.2225 -1.80793,14.0795 21.80851,0 0.12751,56.2095 -621.28303,0 -0.0553,-56.2095 25.37993,0 -1.80792,-14.0795 0.70172,-7.2225 9.22349,-20.3775 12.11005,0 9.22349,20.3775 0.70172,7.2225 -1.80793,14.0795 21.80851,0 m 409.33998,0 25.37993,0 -1.80792,-14.0795 0.70172,-7.2225 9.22349,-20.3775 12.11005,0 9.22349,20.3775 0.70172,7.2225 -1.80793,14.0795 21.80851,0 m -135.9466,0 25.37993,0 -1.80792,-14.0795 0.70172,-7.2225 9.22349,-20.3775 12.11005,0 9.22349,20.3775 0.70172,7.2225 -1.80793,14.0795 21.8085,0 m -136.33776,0 25.37992,0 -1.80792,-14.0795 0.70173,-7.2225 9.22348,-20.3775 12.11005,0 9.22349,20.3775 0.70172,7.2225 -1.80793,14.0795 21.80851,0 m -257.16487,0 25.37993,0 -1.80792,-14.0795 0.70172,-7.2225 9.22349,-20.3775 12.11005,0 9.22349,20.3775 0.70172,7.2225 -1.80793,14.0795 21.80851,0 m -136.33777,0 25.37993,0 -1.80792,-14.0795 0.70172,-7.2225 9.22349,-20.3775 12.11005,0 9.22349,20.3775 0.70172,7.2225 -1.80793,14.0795 21.80851,0 m 106.48991,0 25.37993,0 -1.80792,-14.0795 0.70172,-7.2225 9.22349,-20.3775 12.11005,0 9.22349,20.3775 0.70172,7.2225 -1.80793,14.0795 21.80851,0 m -136.33777,0 25.37993,0 -1.80792,-14.0795 0.70172,-7.2225 9.22349,-20.3775 12.11005,0 9.22349,20.3775 0.70172,7.2225 -1.80793,14.0795 21.80851,0"
           style="fill:#666666;stroke:#000000;stroke-width:3;stroke-miterlimit:4;stroke-dasharray:none"
           id="path4603" />
      </g>
    </g>
    <path
       transform="matrix(0.60739797,0,0,0.60739797,1348.712,-296.73125)"
       d="m -842.46721,1615.0171 c 0,15.0631 -12.21104,27.2741 -27.27412,27.2741 -15.06308,0 -27.27412,-12.211 -27.27412,-27.2741 0,-15.0631 12.21104,-27.2741 27.27412,-27.2741 15.06308,0 27.27412,12.211 27.27412,27.2741 z"
       sodipodi:ry="27.274118"
       sodipodi:rx="27.274118"
       sodipodi:cy="1615.0171"
       sodipodi:cx="-869.74133"
       id="path4665"
       style="fill:#ffffff;stroke:#000000;stroke-width:3;stroke-miterlimit:4;stroke-dasharray:none"
       sodipodi:type="arc"
       inkscape:export-filename="/home/waldgeist/data/homepage/pics/physik/mechanik/dynamik/rollreibung.png"
       inkscape:export-xdpi="150"
       inkscape:export-ydpi="150" />
    <g
       id="g19322"
       transform="matrix(-1,0,0,1,1091.9512,349.60211)"
       inkscape:export-filename="/home/waldgeist/data/homepage/pics/physik/mechanik/dynamik/rollreibung.png"
       inkscape:export-xdpi="150"
       inkscape:export-ydpi="150">
      <g
         transform="matrix(-1,0,0,-1,786.20034,455.40701)"
         id="g19324">
        <path
           sodipodi:type="star"
           style="fill:#d40000;stroke:#d40000;stroke-width:29.29999924;stroke-miterlimit:4;stroke-dasharray:none"
           id="path19326"
           sodipodi:sides="3"
           sodipodi:cx="-707.10675"
           sodipodi:cy="1607.946"
           sodipodi:r1="12.121831"
           sodipodi:r2="6.060915"
           sodipodi:arg1="1.5707963"
           sodipodi:arg2="2.6179939"
           inkscape:flatsided="false"
           inkscape:rounded="0"
           inkscape:randomized="0"
           d="m -707.10675,1620.0679 -5.24891,-9.0914 -5.2489,-9.0914 10.49781,0 10.49781,0 -5.2489,9.0914 z"
           inkscape:transform-center-y="-0.00017641075"
           transform="matrix(1.645499e-5,-0.5103719,0.5103719,1.645499e-5,-266.25862,-204.76773)"
           inkscape:transform-center-x="-3.0302635" />
      </g>
      <path
         style="fill:#d40000;stroke:#d40000;stroke-width:14.9447155;stroke-linecap:square;stroke-linejoin:miter;stroke-miterlimit:4;stroke-opacity:1;stroke-dasharray:none"
         d="m 241.81966,299.26096 22.72629,0.50508"
         id="path19328"
         inkscape:connector-curvature="0"
         sodipodi:nodetypes="cc" />
    </g>
    <g
       style="fill:#d40000;fill-opacity:1"
       id="g3030"
       ns0:preamble="/home/waldgeist/data/sphinx/test.tex"
       ns0:text="Zugkraft"
       transform="matrix(2.9277108,0,0,2.9277108,164.14174,197.69407)"
       inkscape:export-filename="/home/waldgeist/data/homepage/pics/physik/mechanik/dynamik/rollreibung.png"
       inkscape:export-xdpi="150"
       inkscape:export-ydpi="150">
      <defs
         id="defs3032">
        <g
           id="g3034">
          <symbol
             id="textext-7e2d2c62-0"
             overflow="visible"
             style="overflow:visible">
            <path
               id="path3037"
               d="m 5.453125,-6.453125 c 0.0625,-0.109375 0.0625,-0.125 0.0625,-0.203125 0,-0.15625 -0.046875,-0.15625 -0.25,-0.15625 l -4.46875,0 -0.109375,2.25 0.25,0 C 1,-5.6875 1.3125,-6.5 2.9375,-6.5 L 4.5,-6.5 0.625,-0.375 C 0.5625,-0.265625 0.5625,-0.25 0.5625,-0.171875 0.5625,0 0.609375,0 0.8125,0 l 4.59375,0 0.171875,-2.65625 -0.25,0 C 5.25,-1.28125 5.0625,-0.34375 3.21875,-0.34375 l -1.640625,0 z m 0,0"
               style="stroke:none"
               inkscape:connector-curvature="0" />
          </symbol>
          <symbol
             id="textext-7e2d2c62-1"
             overflow="visible"
             style="overflow:visible">
            <path
               id="path3040"
               d="m 3.890625,-0.78125 0,0.890625 L 5.328125,0 l 0,-0.3125 C 4.640625,-0.3125 4.5625,-0.375 4.5625,-0.875 l 0,-3.53125 -1.46875,0.109375 0,0.3125 c 0.6875,0 0.78125,0.0625 0.78125,0.5625 l 0,1.765625 c 0,0.875 -0.484375,1.546875 -1.21875,1.546875 -0.828125,0 -0.875,-0.46875 -0.875,-0.984375 l 0,-3.3125 -1.46875,0.109375 0,0.3125 c 0.78125,0 0.78125,0.03125 0.78125,0.90625 l 0,1.5 c 0,0.78125 0,1.6875 1.515625,1.6875 0.5625,0 1,-0.28125 1.28125,-0.890625 z m 0,0"
               style="stroke:none"
               inkscape:connector-curvature="0" />
          </symbol>
          <symbol
             id="textext-7e2d2c62-2"
             overflow="visible"
             style="overflow:visible">
            <path
               id="path3043"
               d="m 2.21875,-1.71875 c -0.875,0 -0.875,-1 -0.875,-1.21875 0,-0.265625 0.015625,-0.59375 0.15625,-0.84375 0.078125,-0.109375 0.3125,-0.390625 0.71875,-0.390625 0.859375,0 0.859375,0.984375 0.859375,1.21875 0,0.265625 0,0.59375 -0.15625,0.84375 C 2.84375,-2 2.609375,-1.71875 2.21875,-1.71875 z M 1.0625,-1.328125 c 0,-0.03125 0,-0.265625 0.15625,-0.46875 0.390625,0.28125 0.8125,0.3125 1,0.3125 0.921875,0 1.609375,-0.6875 1.609375,-1.453125 0,-0.375 -0.15625,-0.734375 -0.40625,-0.96875 C 3.78125,-4.25 4.140625,-4.296875 4.3125,-4.296875 c 0.03125,0 0.078125,0 0.109375,0.015625 C 4.3125,-4.25 4.25,-4.140625 4.25,-4.015625 c 0,0.171875 0.140625,0.28125 0.296875,0.28125 0.09375,0 0.28125,-0.0625 0.28125,-0.296875 0,-0.171875 -0.109375,-0.484375 -0.5,-0.484375 -0.203125,0 -0.640625,0.0625 -1.0625,0.46875 C 2.84375,-4.375 2.4375,-4.40625 2.21875,-4.40625 c -0.9375,0 -1.625,0.6875 -1.625,1.453125 0,0.4375 0.21875,0.8125 0.46875,1.03125 -0.125,0.140625 -0.3125,0.46875 -0.3125,0.828125 0,0.3125 0.140625,0.6875 0.453125,0.890625 -0.609375,0.15625 -0.921875,0.59375 -0.921875,0.984375 0,0.71875 0.984375,1.265625 2.203125,1.265625 1.171875,0 2.203125,-0.5 2.203125,-1.28125 0,-0.34375 -0.125,-0.859375 -0.640625,-1.140625 -0.53125,-0.265625 -1.109375,-0.265625 -1.71875,-0.265625 -0.25,0 -0.671875,0 -0.75,-0.015625 C 1.265625,-0.703125 1.0625,-1 1.0625,-1.328125 z M 2.5,1.828125 c -1.015625,0 -1.703125,-0.515625 -1.703125,-1.046875 0,-0.453125 0.375,-0.828125 0.8125,-0.84375 l 0.59375,0 c 0.859375,0 1.96875,0 1.96875,0.84375 0,0.546875 -0.703125,1.046875 -1.671875,1.046875 z m 0,0"
               style="stroke:none"
               inkscape:connector-curvature="0" />
          </symbol>
          <symbol
             id="textext-7e2d2c62-3"
             overflow="visible"
             style="overflow:visible">
            <path
               id="path3046"
               d="m 1.0625,-0.75 c 0,0.4375 -0.109375,0.4375 -0.78125,0.4375 l 0,0.3125 c 0.328125,-0.015625 0.796875,-0.03125 1.078125,-0.03125 0.3125,0 0.703125,0.015625 1.109375,0.03125 l 0,-0.3125 c -0.671875,0 -0.78125,0 -0.78125,-0.4375 l 0,-1.03125 0.640625,-0.546875 c 0.765625,1.046875 1.1875,1.609375 1.1875,1.796875 0,0.1875 -0.171875,0.21875 -0.359375,0.21875 l 0,0.3125 c 0.265625,-0.015625 0.859375,-0.03125 1.078125,-0.03125 0.28125,0 0.578125,0.015625 0.859375,0.03125 l 0,-0.3125 c -0.375,0 -0.59375,0 -0.96875,-0.53125 L 2.859375,-2.625 c -0.015625,-0.015625 -0.0625,-0.078125 -0.0625,-0.109375 0,-0.03125 0.71875,-0.640625 0.8125,-0.71875 0.625,-0.5 1.046875,-0.53125 1.25,-0.53125 l 0,-0.3125 c -0.28125,0.03125 -0.40625,0.03125 -0.6875,0.03125 -0.359375,0 -0.984375,-0.015625 -1.125,-0.03125 l 0,0.3125 c 0.1875,0 0.296875,0.109375 0.296875,0.25 0,0.203125 -0.140625,0.3125 -0.21875,0.390625 l -1.40625,1.203125 0,-4.78125 -1.4375,0.109375 0,0.3125 c 0.703125,0 0.78125,0.0625 0.78125,0.5625 z m 0,0"
               style="stroke:none"
               inkscape:connector-curvature="0" />
          </symbol>
          <symbol
             id="textext-7e2d2c62-4"
             overflow="visible"
             style="overflow:visible">
            <path
               id="path3049"
               d="m 1.671875,-3.3125 0,-1.09375 -1.390625,0.109375 0,0.3125 c 0.703125,0 0.78125,0.0625 0.78125,0.5625 l 0,2.671875 c 0,0.4375 -0.109375,0.4375 -0.78125,0.4375 l 0,0.3125 c 0.390625,-0.015625 0.859375,-0.03125 1.140625,-0.03125 0.390625,0 0.859375,0 1.265625,0.03125 l 0,-0.3125 -0.21875,0 c -0.734375,0 -0.75,-0.109375 -0.75,-0.46875 l 0,-1.53125 c 0,-0.984375 0.421875,-1.875 1.171875,-1.875 0.0625,0 0.09375,0 0.109375,0.015625 -0.03125,0 -0.234375,0.125 -0.234375,0.390625 0,0.265625 0.21875,0.421875 0.4375,0.421875 0.171875,0 0.421875,-0.125 0.421875,-0.4375 0,-0.3125 -0.3125,-0.609375 -0.734375,-0.609375 -0.734375,0 -1.09375,0.671875 -1.21875,1.09375 z m 0,0"
               style="stroke:none"
               inkscape:connector-curvature="0" />
          </symbol>
          <symbol
             id="textext-7e2d2c62-5"
             overflow="visible"
             style="overflow:visible">
            <path
               id="path3052"
               d="m 3.3125,-0.75 c 0.046875,0.390625 0.3125,0.8125 0.78125,0.8125 0.21875,0 0.828125,-0.140625 0.828125,-0.953125 l 0,-0.5625 -0.25,0 0,0.5625 c 0,0.578125 -0.25,0.640625 -0.359375,0.640625 -0.328125,0 -0.375,-0.453125 -0.375,-0.5 l 0,-1.984375 c 0,-0.421875 0,-0.8125 -0.359375,-1.1875 C 3.1875,-4.3125 2.6875,-4.46875 2.21875,-4.46875 c -0.828125,0 -1.515625,0.46875 -1.515625,1.125 0,0.296875 0.203125,0.46875 0.46875,0.46875 0.28125,0 0.453125,-0.203125 0.453125,-0.453125 0,-0.125 -0.046875,-0.453125 -0.515625,-0.453125 C 1.390625,-4.140625 1.875,-4.25 2.1875,-4.25 c 0.5,0 1.0625,0.390625 1.0625,1.28125 l 0,0.359375 c -0.515625,0.03125 -1.203125,0.0625 -1.828125,0.359375 -0.75,0.34375 -1,0.859375 -1,1.296875 0,0.8125 0.96875,1.0625 1.59375,1.0625 0.65625,0 1.109375,-0.40625 1.296875,-0.859375 z M 3.25,-2.390625 l 0,1 c 0,0.9375 -0.71875,1.28125 -1.171875,1.28125 -0.484375,0 -0.890625,-0.34375 -0.890625,-0.84375 0,-0.546875 0.421875,-1.375 2.0625,-1.4375 z m 0,0"
               style="stroke:none"
               inkscape:connector-curvature="0" />
          </symbol>
          <symbol
             id="textext-7e2d2c62-6"
             overflow="visible"
             style="overflow:visible">
            <path
               id="path3055"
               d="m 1.75,-4.296875 0,-1.15625 c 0,-0.875 0.46875,-1.359375 0.90625,-1.359375 0.03125,0 0.1875,0 0.328125,0.078125 C 2.875,-6.703125 2.6875,-6.5625 2.6875,-6.3125 c 0,0.21875 0.15625,0.421875 0.4375,0.421875 0.28125,0 0.4375,-0.203125 0.4375,-0.4375 0,-0.375 -0.375,-0.703125 -0.90625,-0.703125 -0.6875,0 -1.546875,0.53125 -1.546875,1.59375 l 0,1.140625 -0.78125,0 0,0.3125 0.78125,0 0,3.234375 c 0,0.4375 -0.109375,0.4375 -0.765625,0.4375 l 0,0.3125 c 0.390625,-0.015625 0.859375,-0.03125 1.125,-0.03125 0.40625,0 0.875,0 1.265625,0.03125 l 0,-0.3125 -0.203125,0 c -0.734375,0 -0.75,-0.109375 -0.75,-0.46875 l 0,-3.203125 1.125,0 0,-0.3125 z m 0,0"
               style="stroke:none"
               inkscape:connector-curvature="0" />
          </symbol>
          <symbol
             id="textext-7e2d2c62-7"
             overflow="visible"
             style="overflow:visible">
            <path
               id="path3058"
               d="m 1.71875,-3.984375 1.4375,0 0,-0.3125 -1.4375,0 0,-1.828125 -0.25,0 c 0,0.8125 -0.296875,1.875 -1.28125,1.921875 l 0,0.21875 0.84375,0 0,2.75 c 0,1.21875 0.9375,1.34375 1.296875,1.34375 0.703125,0 0.984375,-0.703125 0.984375,-1.34375 l 0,-0.5625 -0.25,0 0,0.546875 c 0,0.734375 -0.296875,1.109375 -0.671875,1.109375 -0.671875,0 -0.671875,-0.90625 -0.671875,-1.078125 z m 0,0"
               style="stroke:none"
               inkscape:connector-curvature="0" />
          </symbol>
        </g>
      </defs>
      <g
         style="fill:#d40000;fill-opacity:1"
         id="textext-7e2d2c62-8">
        <g
           id="g3061"
           style="fill:#d40000;fill-opacity:1">
          <use
             style="fill:#d40000;fill-opacity:1"
             id="use3063"
             y="134.765"
             x="223.43201"
             xlink:href="#textext-7e2d2c62-0"
             width="744.09448"
             height="1052.3622" />
          <use
             style="fill:#d40000;fill-opacity:1"
             id="use3065"
             y="134.765"
             x="229.52014"
             xlink:href="#textext-7e2d2c62-1"
             width="744.09448"
             height="1052.3622" />
          <use
             style="fill:#d40000;fill-opacity:1"
             id="use3067"
             y="134.765"
             x="235.05536"
             xlink:href="#textext-7e2d2c62-2"
             width="744.09448"
             height="1052.3622" />
          <use
             style="fill:#d40000;fill-opacity:1"
             id="use3069"
             y="134.765"
             x="240.03667"
             xlink:href="#textext-7e2d2c62-3"
             width="744.09448"
             height="1052.3622" />
          <use
             style="fill:#d40000;fill-opacity:1"
             id="use3071"
             y="134.765"
             x="245.29492"
             xlink:href="#textext-7e2d2c62-4"
             width="744.09448"
             height="1052.3622" />
          <use
             style="fill:#d40000;fill-opacity:1"
             id="use3073"
             y="134.765"
             x="249.19728"
             xlink:href="#textext-7e2d2c62-5"
             width="744.09448"
             height="1052.3622" />
          <use
             style="fill:#d40000;fill-opacity:1"
             id="use3075"
             y="134.765"
             x="254.17857"
             xlink:href="#textext-7e2d2c62-6"
             width="744.09448"
             height="1052.3622" />
          <use
             style="fill:#d40000;fill-opacity:1"
             id="use3077"
             y="134.765"
             x="257.22314"
             xlink:href="#textext-7e2d2c62-7"
             width="744.09448"
             height="1052.3622" />
        </g>
      </g>
    </g>
    <g
       id="g3848"
       style="fill:#d40000;fill-opacity:1"
       transform="matrix(2.9277108,0,0,2.9277108,-52.680012,442.83765)"
       ns0:preamble="/home/waldgeist/data/sphinx/test.tex"
       ns0:text="Rollreibungskraft"
       inkscape:export-filename="/home/waldgeist/data/homepage/pics/physik/mechanik/dynamik/rollreibung.png"
       inkscape:export-xdpi="150"
       inkscape:export-ydpi="150">
      <defs
         id="defs3850">
        <g
           id="g3852">
          <symbol
             id="textext-07e4dbd8-0"
             overflow="visible"
             style="overflow:visible">
            <path
               id="path3855"
               d="m 2.234375,-3.515625 0,-2.578125 c 0,-0.234375 0,-0.359375 0.21875,-0.390625 C 2.546875,-6.5 2.84375,-6.5 3.046875,-6.5 c 0.890625,0 2,0.046875 2,1.484375 0,0.6875 -0.234375,1.5 -1.703125,1.5 z m 2.109375,0.125 c 0.953125,-0.234375 1.734375,-0.84375 1.734375,-1.625 0,-0.953125 -1.140625,-1.796875 -2.59375,-1.796875 l -3.140625,0 0,0.3125 0.25,0 c 0.765625,0 0.78125,0.109375 0.78125,0.46875 l 0,5.25 c 0,0.359375 -0.015625,0.46875 -0.78125,0.46875 l -0.25,0 0,0.3125 c 0.359375,-0.03125 1.078125,-0.03125 1.453125,-0.03125 0.390625,0 1.109375,0 1.46875,0.03125 l 0,-0.3125 -0.25,0 c -0.765625,0 -0.78125,-0.109375 -0.78125,-0.46875 l 0,-2.515625 1.140625,0 c 0.15625,0 0.578125,0 0.9375,0.34375 0.375,0.34375 0.375,0.65625 0.375,1.328125 0,0.640625 0,1.046875 0.40625,1.421875 0.40625,0.359375 0.953125,0.421875 1.25,0.421875 0.78125,0 0.953125,-0.8125 0.953125,-1.09375 0,-0.0625 0,-0.171875 -0.125,-0.171875 -0.109375,0 -0.109375,0.09375 -0.125,0.15625 C 6.984375,-0.171875 6.640625,0 6.390625,0 5.90625,0 5.828125,-0.515625 5.6875,-1.4375 L 5.546875,-2.234375 C 5.375,-2.875 4.890625,-3.203125 4.34375,-3.390625 z m 0,0"
               style="stroke:none"
               inkscape:connector-curvature="0" />
          </symbol>
          <symbol
             id="textext-07e4dbd8-1"
             overflow="visible"
             style="overflow:visible">
            <path
               id="path3858"
               d="M 4.6875,-2.140625 C 4.6875,-3.40625 3.703125,-4.46875 2.5,-4.46875 c -1.25,0 -2.21875,1.09375 -2.21875,2.328125 0,1.296875 1.03125,2.25 2.203125,2.25 1.203125,0 2.203125,-0.984375 2.203125,-2.25 z m -2.1875,2 c -0.4375,0 -0.875,-0.203125 -1.140625,-0.671875 -0.25,-0.4375 -0.25,-1.046875 -0.25,-1.40625 0,-0.390625 0,-0.921875 0.234375,-1.359375 C 1.609375,-4.03125 2.078125,-4.25 2.484375,-4.25 c 0.4375,0 0.859375,0.21875 1.125,0.65625 0.265625,0.421875 0.265625,1 0.265625,1.375 0,0.359375 0,0.90625 -0.21875,1.34375 C 3.421875,-0.421875 2.984375,-0.140625 2.5,-0.140625 z m 0,0"
               style="stroke:none"
               inkscape:connector-curvature="0" />
          </symbol>
          <symbol
             id="textext-07e4dbd8-2"
             overflow="visible"
             style="overflow:visible">
            <path
               id="path3861"
               d="m 1.765625,-6.921875 -1.4375,0.109375 0,0.3125 c 0.703125,0 0.78125,0.0625 0.78125,0.5625 l 0,5.1875 c 0,0.4375 -0.109375,0.4375 -0.78125,0.4375 l 0,0.3125 C 0.65625,-0.015625 1.1875,-0.03125 1.4375,-0.03125 c 0.25,0 0.734375,0.015625 1.109375,0.03125 l 0,-0.3125 c -0.671875,0 -0.78125,0 -0.78125,-0.4375 z m 0,0"
               style="stroke:none"
               inkscape:connector-curvature="0" />
          </symbol>
          <symbol
             id="textext-07e4dbd8-3"
             overflow="visible"
             style="overflow:visible">
            <path
               id="path3864"
               d="m 1.671875,-3.3125 0,-1.09375 -1.390625,0.109375 0,0.3125 c 0.703125,0 0.78125,0.0625 0.78125,0.5625 l 0,2.671875 c 0,0.4375 -0.109375,0.4375 -0.78125,0.4375 l 0,0.3125 c 0.390625,-0.015625 0.859375,-0.03125 1.140625,-0.03125 0.390625,0 0.859375,0 1.265625,0.03125 l 0,-0.3125 -0.21875,0 c -0.734375,0 -0.75,-0.109375 -0.75,-0.46875 l 0,-1.53125 c 0,-0.984375 0.421875,-1.875 1.171875,-1.875 0.0625,0 0.09375,0 0.109375,0.015625 -0.03125,0 -0.234375,0.125 -0.234375,0.390625 0,0.265625 0.21875,0.421875 0.4375,0.421875 0.171875,0 0.421875,-0.125 0.421875,-0.4375 0,-0.3125 -0.3125,-0.609375 -0.734375,-0.609375 -0.734375,0 -1.09375,0.671875 -1.21875,1.09375 z m 0,0"
               style="stroke:none"
               inkscape:connector-curvature="0" />
          </symbol>
          <symbol
             id="textext-07e4dbd8-4"
             overflow="visible"
             style="overflow:visible">
            <path
               id="path3867"
               d="M 1.109375,-2.515625 C 1.171875,-4 2.015625,-4.25 2.359375,-4.25 c 1.015625,0 1.125,1.34375 1.125,1.734375 z m 0,0.21875 2.78125,0 c 0.21875,0 0.25,0 0.25,-0.21875 0,-0.984375 -0.546875,-1.953125 -1.78125,-1.953125 -1.15625,0 -2.078125,1.03125 -2.078125,2.28125 0,1.328125 1.046875,2.296875 2.1875,2.296875 C 3.6875,0.109375 4.140625,-1 4.140625,-1.1875 4.140625,-1.28125 4.0625,-1.3125 4,-1.3125 c -0.078125,0 -0.109375,0.0625 -0.125,0.140625 -0.34375,1.03125 -1.25,1.03125 -1.34375,1.03125 -0.5,0 -0.890625,-0.296875 -1.125,-0.671875 -0.296875,-0.46875 -0.296875,-1.125 -0.296875,-1.484375 z m 0,0"
               style="stroke:none"
               inkscape:connector-curvature="0" />
          </symbol>
          <symbol
             id="textext-07e4dbd8-5"
             overflow="visible"
             style="overflow:visible">
            <path
               id="path3870"
               d="M 1.765625,-4.40625 0.375,-4.296875 l 0,0.3125 c 0.640625,0 0.734375,0.0625 0.734375,0.546875 l 0,2.6875 c 0,0.4375 -0.109375,0.4375 -0.78125,0.4375 l 0,0.3125 C 0.640625,-0.015625 1.1875,-0.03125 1.421875,-0.03125 1.78125,-0.03125 2.125,-0.015625 2.46875,0 l 0,-0.3125 c -0.671875,0 -0.703125,-0.046875 -0.703125,-0.4375 z m 0.03125,-1.734375 c 0,-0.3125 -0.234375,-0.53125 -0.515625,-0.53125 -0.3125,0 -0.53125,0.265625 -0.53125,0.53125 0,0.265625 0.21875,0.53125 0.53125,0.53125 0.28125,0 0.515625,-0.21875 0.515625,-0.53125 z m 0,0"
               style="stroke:none"
               inkscape:connector-curvature="0" />
          </symbol>
          <symbol
             id="textext-07e4dbd8-6"
             overflow="visible"
             style="overflow:visible">
            <path
               id="path3873"
               d="m 1.71875,-3.765625 0,-3.15625 -1.4375,0.109375 0,0.3125 c 0.703125,0 0.78125,0.0625 0.78125,0.5625 l 0,5.9375 0.25,0 c 0,-0.015625 0.078125,-0.15625 0.359375,-0.625 0.140625,0.234375 0.5625,0.734375 1.296875,0.734375 1.1875,0 2.21875,-0.984375 2.21875,-2.265625 0,-1.265625 -0.96875,-2.25 -2.109375,-2.25 -0.78125,0 -1.203125,0.46875 -1.359375,0.640625 z m 0.03125,2.625 0,-2.046875 c 0,-0.1875 0,-0.203125 0.109375,-0.359375 C 2.25,-4.109375 2.796875,-4.1875 3.03125,-4.1875 c 0.453125,0 0.8125,0.265625 1.046875,0.640625 0.265625,0.40625 0.28125,0.96875 0.28125,1.390625 0,0.359375 -0.015625,0.953125 -0.296875,1.40625 -0.21875,0.3125 -0.59375,0.640625 -1.125,0.640625 -0.453125,0 -0.8125,-0.234375 -1.046875,-0.609375 C 1.75,-0.921875 1.75,-0.953125 1.75,-1.140625 z m 0,0"
               style="stroke:none"
               inkscape:connector-curvature="0" />
          </symbol>
          <symbol
             id="textext-07e4dbd8-7"
             overflow="visible"
             style="overflow:visible">
            <path
               id="path3876"
               d="m 3.890625,-0.78125 0,0.890625 L 5.328125,0 l 0,-0.3125 C 4.640625,-0.3125 4.5625,-0.375 4.5625,-0.875 l 0,-3.53125 -1.46875,0.109375 0,0.3125 c 0.6875,0 0.78125,0.0625 0.78125,0.5625 l 0,1.765625 c 0,0.875 -0.484375,1.546875 -1.21875,1.546875 -0.828125,0 -0.875,-0.46875 -0.875,-0.984375 l 0,-3.3125 -1.46875,0.109375 0,0.3125 c 0.78125,0 0.78125,0.03125 0.78125,0.90625 l 0,1.5 c 0,0.78125 0,1.6875 1.515625,1.6875 0.5625,0 1,-0.28125 1.28125,-0.890625 z m 0,0"
               style="stroke:none"
               inkscape:connector-curvature="0" />
          </symbol>
          <symbol
             id="textext-07e4dbd8-8"
             overflow="visible"
             style="overflow:visible">
            <path
               id="path3879"
               d="m 1.09375,-3.421875 0,2.671875 c 0,0.4375 -0.109375,0.4375 -0.78125,0.4375 l 0,0.3125 c 0.359375,-0.015625 0.859375,-0.03125 1.140625,-0.03125 0.25,0 0.765625,0.015625 1.109375,0.03125 l 0,-0.3125 c -0.671875,0 -0.78125,0 -0.78125,-0.4375 l 0,-1.84375 C 1.78125,-3.625 2.5,-4.1875 3.125,-4.1875 c 0.640625,0 0.75,0.53125 0.75,1.109375 l 0,2.328125 c 0,0.4375 -0.109375,0.4375 -0.78125,0.4375 l 0,0.3125 c 0.34375,-0.015625 0.859375,-0.03125 1.125,-0.03125 0.25,0 0.78125,0.015625 1.109375,0.03125 l 0,-0.3125 c -0.515625,0 -0.765625,0 -0.765625,-0.296875 l 0,-1.90625 c 0,-0.859375 0,-1.15625 -0.3125,-1.515625 -0.140625,-0.171875 -0.46875,-0.375 -1.046875,-0.375 C 2.46875,-4.40625 2,-3.984375 1.71875,-3.359375 l 0,-1.046875 -1.40625,0.109375 0,0.3125 c 0.703125,0 0.78125,0.0625 0.78125,0.5625 z m 0,0"
               style="stroke:none"
               inkscape:connector-curvature="0" />
          </symbol>
          <symbol
             id="textext-07e4dbd8-9"
             overflow="visible"
             style="overflow:visible">
            <path
               id="path3882"
               d="m 2.21875,-1.71875 c -0.875,0 -0.875,-1 -0.875,-1.21875 0,-0.265625 0.015625,-0.59375 0.15625,-0.84375 0.078125,-0.109375 0.3125,-0.390625 0.71875,-0.390625 0.859375,0 0.859375,0.984375 0.859375,1.21875 0,0.265625 0,0.59375 -0.15625,0.84375 C 2.84375,-2 2.609375,-1.71875 2.21875,-1.71875 z M 1.0625,-1.328125 c 0,-0.03125 0,-0.265625 0.15625,-0.46875 0.390625,0.28125 0.8125,0.3125 1,0.3125 0.921875,0 1.609375,-0.6875 1.609375,-1.453125 0,-0.375 -0.15625,-0.734375 -0.40625,-0.96875 C 3.78125,-4.25 4.140625,-4.296875 4.3125,-4.296875 c 0.03125,0 0.078125,0 0.109375,0.015625 C 4.3125,-4.25 4.25,-4.140625 4.25,-4.015625 c 0,0.171875 0.140625,0.28125 0.296875,0.28125 0.09375,0 0.28125,-0.0625 0.28125,-0.296875 0,-0.171875 -0.109375,-0.484375 -0.5,-0.484375 -0.203125,0 -0.640625,0.0625 -1.0625,0.46875 C 2.84375,-4.375 2.4375,-4.40625 2.21875,-4.40625 c -0.9375,0 -1.625,0.6875 -1.625,1.453125 0,0.4375 0.21875,0.8125 0.46875,1.03125 -0.125,0.140625 -0.3125,0.46875 -0.3125,0.828125 0,0.3125 0.140625,0.6875 0.453125,0.890625 -0.609375,0.15625 -0.921875,0.59375 -0.921875,0.984375 0,0.71875 0.984375,1.265625 2.203125,1.265625 1.171875,0 2.203125,-0.5 2.203125,-1.28125 0,-0.34375 -0.125,-0.859375 -0.640625,-1.140625 -0.53125,-0.265625 -1.109375,-0.265625 -1.71875,-0.265625 -0.25,0 -0.671875,0 -0.75,-0.015625 C 1.265625,-0.703125 1.0625,-1 1.0625,-1.328125 z M 2.5,1.828125 c -1.015625,0 -1.703125,-0.515625 -1.703125,-1.046875 0,-0.453125 0.375,-0.828125 0.8125,-0.84375 l 0.59375,0 c 0.859375,0 1.96875,0 1.96875,0.84375 0,0.546875 -0.703125,1.046875 -1.671875,1.046875 z m 0,0"
               style="stroke:none"
               inkscape:connector-curvature="0" />
          </symbol>
          <symbol
             id="textext-07e4dbd8-10"
             overflow="visible"
             style="overflow:visible">
            <path
               id="path3885"
               d="m 2.078125,-1.9375 c 0.21875,0.046875 1.03125,0.203125 1.03125,0.921875 0,0.5 -0.34375,0.90625 -1.125,0.90625 -0.84375,0 -1.203125,-0.5625 -1.390625,-1.421875 C 0.5625,-1.65625 0.5625,-1.6875 0.453125,-1.6875 c -0.125,0 -0.125,0.0625 -0.125,0.234375 l 0,1.328125 c 0,0.171875 0,0.234375 0.109375,0.234375 0.046875,0 0.0625,-0.015625 0.25,-0.203125 0.015625,-0.015625 0.015625,-0.03125 0.203125,-0.21875 0.4375,0.40625 0.890625,0.421875 1.09375,0.421875 1.140625,0 1.609375,-0.671875 1.609375,-1.390625 0,-0.515625 -0.296875,-0.828125 -0.421875,-0.9375 C 2.84375,-2.546875 2.453125,-2.625 2.03125,-2.703125 1.46875,-2.8125 0.8125,-2.9375 0.8125,-3.515625 c 0,-0.359375 0.25,-0.765625 1.109375,-0.765625 1.09375,0 1.15625,0.90625 1.171875,1.203125 0,0.09375 0.09375,0.09375 0.109375,0.09375 0.140625,0 0.140625,-0.046875 0.140625,-0.234375 l 0,-1.015625 c 0,-0.15625 0,-0.234375 -0.109375,-0.234375 -0.046875,0 -0.078125,0 -0.203125,0.125 -0.03125,0.03125 -0.125,0.125 -0.171875,0.15625 -0.375,-0.28125 -0.78125,-0.28125 -0.9375,-0.28125 -1.21875,0 -1.59375,0.671875 -1.59375,1.234375 0,0.34375 0.15625,0.625 0.421875,0.84375 0.328125,0.25 0.609375,0.3125 1.328125,0.453125 z m 0,0"
               style="stroke:none"
               inkscape:connector-curvature="0" />
          </symbol>
          <symbol
             id="textext-07e4dbd8-11"
             overflow="visible"
             style="overflow:visible">
            <path
               id="path3888"
               d="m 1.0625,-0.75 c 0,0.4375 -0.109375,0.4375 -0.78125,0.4375 l 0,0.3125 c 0.328125,-0.015625 0.796875,-0.03125 1.078125,-0.03125 0.3125,0 0.703125,0.015625 1.109375,0.03125 l 0,-0.3125 c -0.671875,0 -0.78125,0 -0.78125,-0.4375 l 0,-1.03125 0.640625,-0.546875 c 0.765625,1.046875 1.1875,1.609375 1.1875,1.796875 0,0.1875 -0.171875,0.21875 -0.359375,0.21875 l 0,0.3125 c 0.265625,-0.015625 0.859375,-0.03125 1.078125,-0.03125 0.28125,0 0.578125,0.015625 0.859375,0.03125 l 0,-0.3125 c -0.375,0 -0.59375,0 -0.96875,-0.53125 L 2.859375,-2.625 c -0.015625,-0.015625 -0.0625,-0.078125 -0.0625,-0.109375 0,-0.03125 0.71875,-0.640625 0.8125,-0.71875 0.625,-0.5 1.046875,-0.53125 1.25,-0.53125 l 0,-0.3125 c -0.28125,0.03125 -0.40625,0.03125 -0.6875,0.03125 -0.359375,0 -0.984375,-0.015625 -1.125,-0.03125 l 0,0.3125 c 0.1875,0 0.296875,0.109375 0.296875,0.25 0,0.203125 -0.140625,0.3125 -0.21875,0.390625 l -1.40625,1.203125 0,-4.78125 -1.4375,0.109375 0,0.3125 c 0.703125,0 0.78125,0.0625 0.78125,0.5625 z m 0,0"
               style="stroke:none"
               inkscape:connector-curvature="0" />
          </symbol>
          <symbol
             id="textext-07e4dbd8-12"
             overflow="visible"
             style="overflow:visible">
            <path
               id="path3891"
               d="m 3.3125,-0.75 c 0.046875,0.390625 0.3125,0.8125 0.78125,0.8125 0.21875,0 0.828125,-0.140625 0.828125,-0.953125 l 0,-0.5625 -0.25,0 0,0.5625 c 0,0.578125 -0.25,0.640625 -0.359375,0.640625 -0.328125,0 -0.375,-0.453125 -0.375,-0.5 l 0,-1.984375 c 0,-0.421875 0,-0.8125 -0.359375,-1.1875 C 3.1875,-4.3125 2.6875,-4.46875 2.21875,-4.46875 c -0.828125,0 -1.515625,0.46875 -1.515625,1.125 0,0.296875 0.203125,0.46875 0.46875,0.46875 0.28125,0 0.453125,-0.203125 0.453125,-0.453125 0,-0.125 -0.046875,-0.453125 -0.515625,-0.453125 C 1.390625,-4.140625 1.875,-4.25 2.1875,-4.25 c 0.5,0 1.0625,0.390625 1.0625,1.28125 l 0,0.359375 c -0.515625,0.03125 -1.203125,0.0625 -1.828125,0.359375 -0.75,0.34375 -1,0.859375 -1,1.296875 0,0.8125 0.96875,1.0625 1.59375,1.0625 0.65625,0 1.109375,-0.40625 1.296875,-0.859375 z M 3.25,-2.390625 l 0,1 c 0,0.9375 -0.71875,1.28125 -1.171875,1.28125 -0.484375,0 -0.890625,-0.34375 -0.890625,-0.84375 0,-0.546875 0.421875,-1.375 2.0625,-1.4375 z m 0,0"
               style="stroke:none"
               inkscape:connector-curvature="0" />
          </symbol>
          <symbol
             id="textext-07e4dbd8-13"
             overflow="visible"
             style="overflow:visible">
            <path
               id="path3894"
               d="m 1.75,-4.296875 0,-1.15625 c 0,-0.875 0.46875,-1.359375 0.90625,-1.359375 0.03125,0 0.1875,0 0.328125,0.078125 C 2.875,-6.703125 2.6875,-6.5625 2.6875,-6.3125 c 0,0.21875 0.15625,0.421875 0.4375,0.421875 0.28125,0 0.4375,-0.203125 0.4375,-0.4375 0,-0.375 -0.375,-0.703125 -0.90625,-0.703125 -0.6875,0 -1.546875,0.53125 -1.546875,1.59375 l 0,1.140625 -0.78125,0 0,0.3125 0.78125,0 0,3.234375 c 0,0.4375 -0.109375,0.4375 -0.765625,0.4375 l 0,0.3125 c 0.390625,-0.015625 0.859375,-0.03125 1.125,-0.03125 0.40625,0 0.875,0 1.265625,0.03125 l 0,-0.3125 -0.203125,0 c -0.734375,0 -0.75,-0.109375 -0.75,-0.46875 l 0,-3.203125 1.125,0 0,-0.3125 z m 0,0"
               style="stroke:none"
               inkscape:connector-curvature="0" />
          </symbol>
          <symbol
             id="textext-07e4dbd8-14"
             overflow="visible"
             style="overflow:visible">
            <path
               id="path3897"
               d="m 1.71875,-3.984375 1.4375,0 0,-0.3125 -1.4375,0 0,-1.828125 -0.25,0 c 0,0.8125 -0.296875,1.875 -1.28125,1.921875 l 0,0.21875 0.84375,0 0,2.75 c 0,1.21875 0.9375,1.34375 1.296875,1.34375 0.703125,0 0.984375,-0.703125 0.984375,-1.34375 l 0,-0.5625 -0.25,0 0,0.546875 c 0,0.734375 -0.296875,1.109375 -0.671875,1.109375 -0.671875,0 -0.671875,-0.90625 -0.671875,-1.078125 z m 0,0"
               style="stroke:none"
               inkscape:connector-curvature="0" />
          </symbol>
        </g>
      </defs>
      <g
         id="textext-07e4dbd8-15"
         style="fill:#d40000;fill-opacity:1">
        <g
           id="g3900"
           style="fill:#d40000;fill-opacity:1">
          <use
             id="use3902"
             y="134.765"
             x="223.43201"
             xlink:href="#textext-07e4dbd8-0"
             width="1052.3622"
             height="744.09448"
             style="fill:#d40000;fill-opacity:1" />
          <use
             id="use3904"
             y="134.765"
             x="230.76547"
             xlink:href="#textext-07e4dbd8-1"
             width="1052.3622"
             height="744.09448"
             style="fill:#d40000;fill-opacity:1" />
          <use
             id="use3906"
             y="134.765"
             x="235.74677"
             xlink:href="#textext-07e4dbd8-2"
             width="1052.3622"
             height="744.09448"
             style="fill:#d40000;fill-opacity:1" />
          <use
             id="use3908"
             y="134.765"
             x="238.51437"
             xlink:href="#textext-07e4dbd8-2"
             width="1052.3622"
             height="744.09448"
             style="fill:#d40000;fill-opacity:1" />
          <use
             id="use3910"
             y="134.765"
             x="241.28198"
             xlink:href="#textext-07e4dbd8-3"
             width="1052.3622"
             height="744.09448"
             style="fill:#d40000;fill-opacity:1" />
          <use
             id="use3912"
             y="134.765"
             x="245.18434"
             xlink:href="#textext-07e4dbd8-4"
             width="1052.3622"
             height="744.09448"
             style="fill:#d40000;fill-opacity:1" />
          <use
             id="use3914"
             y="134.765"
             x="249.61172"
             xlink:href="#textext-07e4dbd8-5"
             width="1052.3622"
             height="744.09448"
             style="fill:#d40000;fill-opacity:1" />
          <use
             id="use3916"
             y="134.765"
             x="252.37933"
             xlink:href="#textext-07e4dbd8-6"
             width="1052.3622"
             height="744.09448"
             style="fill:#d40000;fill-opacity:1" />
          <use
             id="use3918"
             y="134.765"
             x="257.91455"
             xlink:href="#textext-07e4dbd8-7"
             width="1052.3622"
             height="744.09448"
             style="fill:#d40000;fill-opacity:1" />
          <use
             id="use3920"
             y="134.765"
             x="263.44977"
             xlink:href="#textext-07e4dbd8-8"
             width="1052.3622"
             height="744.09448"
             style="fill:#d40000;fill-opacity:1" />
          <use
             id="use3922"
             y="134.765"
             x="268.98499"
             xlink:href="#textext-07e4dbd8-9"
             width="1052.3622"
             height="744.09448"
             style="fill:#d40000;fill-opacity:1" />
          <use
             id="use3924"
             y="134.765"
             x="273.96628"
             xlink:href="#textext-07e4dbd8-10"
             width="1052.3622"
             height="744.09448"
             style="fill:#d40000;fill-opacity:1" />
          <use
             id="use3926"
             y="134.765"
             x="277.89554"
             xlink:href="#textext-07e4dbd8-11"
             width="1052.3622"
             height="744.09448"
             style="fill:#d40000;fill-opacity:1" />
          <use
             id="use3928"
             y="134.765"
             x="283.15381"
             xlink:href="#textext-07e4dbd8-3"
             width="1052.3622"
             height="744.09448"
             style="fill:#d40000;fill-opacity:1" />
          <use
             id="use3930"
             y="134.765"
             x="287.05615"
             xlink:href="#textext-07e4dbd8-12"
             width="1052.3622"
             height="744.09448"
             style="fill:#d40000;fill-opacity:1" />
          <use
             id="use3932"
             y="134.765"
             x="292.03745"
             xlink:href="#textext-07e4dbd8-13"
             width="1052.3622"
             height="744.09448"
             style="fill:#d40000;fill-opacity:1" />
          <use
             id="use3934"
             y="134.765"
             x="295.08203"
             xlink:href="#textext-07e4dbd8-14"
             width="1052.3622"
             height="744.09448"
             style="fill:#d40000;fill-opacity:1" />
        </g>
      </g>
    </g>
    <use
       x="0"
       y="0"
       xlink:href="#g19322"
       id="use5844"
       transform="matrix(-1,0,0,1,1640.8658,140.48987)"
       width="1052.3622"
       height="744.09448"
       inkscape:export-filename="/home/waldgeist/data/homepage/pics/physik/mechanik/dynamik/rollreibung.png"
       inkscape:export-xdpi="150"
       inkscape:export-ydpi="150" />
  </g>
</svg>
