<svg xmlns:ns0="http://www.iki.fi/pav/software/textext/" xmlns="http://www.w3.org/2000/svg" xmlns:xlink="http://www.w3.org/1999/xlink" width="210mm" height="297mm"><title>Der Schwerpunkt</title><path style="marker:none" color="#000" fill="#fff" stroke="#fff" stroke-linecap="round" stroke-linejoin="bevel" overflow="visible" d="M67.291 269.134h609.513v514.094H67.291z"/><path d="M175.906 555.694v67.597" fill="none" stroke="#f0f"/><path d="M367.004 297v135.193h246.427V296.999z" style="marker:none" color="#000" fill="#afafde" fill-rule="evenodd" stroke="#000" stroke-linecap="round" stroke-linejoin="round"/><path d="M367.004 432.193L175.906 623.29h246.426l191.099-191.098zM367.004 297L175.906 488.097V623.29l191.098-191.098z" style="marker:none" color="#000" fill="#afafde" fill-rule="evenodd" stroke="#000" stroke-linecap="round" stroke-linejoin="round"/><g fill="#d40000" stroke="#d40000"><path d="M482.196 492.097v28.89" stroke-width="4.8134856"/><path d="M482.197 526.2l.862-1.494.863-1.494h-3.451l.863 1.494z" stroke-width="4.816334"/></g><path d="M613.43 297L422.333 488.097V623.29l191.099-191.098z" style="marker:none" opacity=".5" color="#000" fill="#e9e9ff" fill-rule="evenodd" stroke="#000" stroke-linecap="round" stroke-linejoin="round"/><g fill="#d40000" stroke="#d40000"><path d="M394.726 459.994v281.664" stroke-width="14.945"/><path d="M394.727 757.844l2.678-4.64 2.68-4.64H389.368l2.679 4.64z" stroke-width="14.953841"/></g><text y="466.365" x="387.982" style="line-height:125%" font-size="22.747" font-weight="400" letter-spacing="0" word-spacing="0" font-family="Sans"><tspan y="466.365" x="387.982">x</tspan></text><g fill="#d40000" stroke="#d40000"><path d="M464.184 408.849v28.89" stroke-width="4.8134856"/><path d="M464.184 442.953l.863-1.495.862-1.494h-3.451l.863 1.494z" stroke-width="4.816334"/></g><g fill="#d40000" stroke="#d40000"><path d="M436.921 324.14v28.89" stroke-width="4.8134856"/><path d="M436.921 358.244l.863-1.495.863-1.494h-3.452l.863 1.494z" stroke-width="4.816334"/></g><g fill="#d40000" stroke="#d40000"><path d="M540.13 328.035v28.89" stroke-width="4.8134856"/><path d="M540.13 362.139l.862-1.495.863-1.494h-3.451l.863 1.494z" stroke-width="4.816334"/></g><g fill="#d40000" stroke="#d40000"><path d="M356.594 371.363v28.89" stroke-width="4.8134856"/><path d="M356.594 405.467l.863-1.495.863-1.494h-3.452l.863 1.494z" stroke-width="4.816334"/></g><g fill="#d40000" stroke="#d40000"><path d="M299.148 440.493v28.89" stroke-width="4.8134856"/><path d="M299.148 474.597l.863-1.495.862-1.494h-3.451l.863 1.494z" stroke-width="4.816334"/></g><path d="M367.004 297L175.906 488.097h246.426l191.099-191.099z" style="marker:none" opacity=".5" color="#000" fill="#d7d7ff" fill-rule="evenodd" stroke="#000" stroke-linecap="round" stroke-linejoin="round"/><g transform="matrix(4.466 0 0 4.466 -618.01 -154.744)" ns0:text="$S$" ns0:preamble="/home/waldgeist/data/sphinx/test.tex"><defs><symbol overflow="visible" id="a"><path d="M6.438-6.922a.12.12 0 0 0-.125-.11c-.047 0-.047.016-.172.157l-.485.563c-.25-.47-.765-.72-1.422-.72-1.265 0-2.453 1.157-2.453 2.36 0 .797.516 1.266 1.032 1.406l1.062.282c.375.093.922.25.922 1.062 0 .89-.813 1.828-1.797 1.828-.64 0-1.75-.218-1.75-1.453 0-.234.063-.484.063-.531.015-.047.015-.063.015-.078 0-.094-.062-.11-.11-.11a.142.142 0 0 0-.109.047C1.08-2.188.516.094.516.125c0 .047.046.094.109.094.047 0 .063-.016.188-.157L1.296-.5c.422.578 1.11.719 1.687.719 1.36 0 2.532-1.328 2.532-2.563 0-.687-.344-1.031-.485-1.172-.234-.218-.39-.265-1.265-.484-.235-.063-.579-.172-.672-.188a.928.928 0 0 1-.61-.906c0-.812.797-1.656 1.75-1.656.813 0 1.422.438 1.422 1.547 0 .312-.031.5-.031.562 0 0 0 .094.11.094.109 0 .124-.031.156-.203zm0 0"/></symbol></defs><use height="1052.362" width="744.094" xlink:href="#a" x="223.432" y="134.765"/></g><g fill="#d40000" stroke="#d40000"><path d="M281.622 508.163v28.89" stroke-width="4.8134856"/><path d="M281.622 542.266l.863-1.494.862-1.495h-3.451l.863 1.495z" stroke-width="4.816334"/></g><g fill="#d40000" stroke="#d40000"><path d="M336.634 569.99v28.89" stroke-width="4.8134856"/><path d="M336.634 604.094l.863-1.495.862-1.494h-3.451l.863 1.494z" stroke-width="4.816334"/></g><path d="M175.906 488.098V623.29h246.426V488.098z" style="marker:none" opacity=".5" color="#000" fill="#d7d7ff" fill-rule="evenodd" stroke="#000" stroke-linecap="round" stroke-linejoin="round"/><g ns0:preamble="/home/waldgeist/data/sphinx/test.tex" ns0:text="$\\vec{F} _{\\rm{G}}$" transform="matrix(6.43 0 0 6.43 -1021.823 -162.704)" fill="#d40000" stroke="#d40000"><defs><symbol id="b" overflow="visible"><path d="M5.36-5.938c-.141.141-.47.422-.47.594 0 .094.094.203.188.203s.14-.078.203-.14c.11-.14.344-.422.782-.64.062-.048.171-.095.171-.204 0-.11-.078-.156-.14-.203a1.034 1.034 0 0 1-.407-.563c-.03-.093-.062-.234-.203-.234-.14 0-.203.14-.203.219 0 .047.078.36.235.578h-3.36c-.156 0-.344 0-.344.203 0 .188.188.188.344.188zm0 0" stroke="none"/></symbol><symbol id="c" overflow="visible"><path d="M3.016-3.234h.968c.75 0 .829.156.829.437 0 .078 0 .188-.063.5-.031.047-.031.078-.031.11 0 .078.062.109.11.109.109 0 .109-.031.155-.203l.547-2.172c.032-.11.032-.125.032-.156a.117.117 0 0 0-.125-.11c-.094 0-.11.047-.141.219-.219.766-.438.953-1.297.953h-.906l.64-2.531c.094-.36.11-.39.547-.39h1.313c1.218 0 1.453.327 1.453 1.093 0 .234 0 .266-.031.547C7-4.703 7-4.688 7-4.656c0 .047.031.125.125.125.11 0 .11-.063.125-.25l.203-1.735c.031-.265-.016-.265-.266-.265h-4.89c-.188 0-.297 0-.297.203 0 .11.094.11.281.11.375 0 .656 0 .656.171 0 .047 0 .063-.062.25L1.562-.78c-.093.39-.109.469-.906.469-.172 0-.281 0-.281.187C.375 0 .5 0 .531 0c.281 0 1.031-.031 1.313-.031C2.172-.031 3 0 3.328 0c.094 0 .203 0 .203-.188 0-.078-.047-.109-.047-.109-.03-.016-.062-.016-.28-.016-.22 0-.267 0-.517-.015-.296-.031-.328-.078-.328-.203 0-.016 0-.078.047-.219zm0 0" stroke="none"/></symbol><symbol id="d" overflow="visible"><path d="M5.188-1.36c0-.312.078-.312.546-.312v-.25c-.062 0-.562.031-.906.031-.375 0-.89 0-1.266-.03v.25h.266c.703 0 .703.093.703.312v.453c0 .156 0 .422-.406.625-.328.172-.719.172-.813.172-.796 0-2.078-.454-2.078-2.282 0-1.843 1.329-2.25 2.016-2.25.672 0 1.516.454 1.688 1.657.015.078.078.078.125.078.125 0 .125-.047.125-.188v-1.625c0-.125 0-.187-.094-.187-.032 0-.063 0-.125.093l-.36.532a1.994 1.994 0 0 0-1.453-.625C1.703-4.906.484-3.781.484-2.391.484-1 1.672.141 3.172.141c.39 0 1.156-.078 1.484-.563.125.188.375.422.453.422.079 0 .079-.078.079-.188zm0 0" stroke="none"/></symbol></defs><use y="132.246" x="224.901" xlink:href="#b" width="744.094" height="1052.362"/><use y="134.765" x="223.432" xlink:href="#c" width="744.094" height="1052.362"/><use y="136.259" x="229.839" xlink:href="#d" width="744.094" height="1052.362"/></g></svg>