<?xml version="1.0" encoding="UTF-8" standalone="no"?>
<!-- Created with Inkscape (http://www.inkscape.org/) -->

<svg
   xmlns:ns0="http://www.iki.fi/pav/software/textext/"
   xmlns:dc="http://purl.org/dc/elements/1.1/"
   xmlns:cc="http://creativecommons.org/ns#"
   xmlns:rdf="http://www.w3.org/1999/02/22-rdf-syntax-ns#"
   xmlns:svg="http://www.w3.org/2000/svg"
   xmlns="http://www.w3.org/2000/svg"
   xmlns:xlink="http://www.w3.org/1999/xlink"
   xmlns:sodipodi="http://sodipodi.sourceforge.net/DTD/sodipodi-0.dtd"
   xmlns:inkscape="http://www.inkscape.org/namespaces/inkscape"
   width="210mm"
   height="297mm"
   id="svg3287"
   version="1.1"
   inkscape:version="0.48.4 r9939"
   sodipodi:docname="Neues Dokument 2">
  <title
     id="title3422">Der Schwerpunkt</title>
  <defs
     id="defs3289" />
  <sodipodi:namedview
     id="base"
     pagecolor="#ffffff"
     bordercolor="#666666"
     borderopacity="1.0"
     inkscape:pageopacity="0.0"
     inkscape:pageshadow="2"
     inkscape:zoom="0.66855469"
     inkscape:cx="158.94759"
     inkscape:cy="527.42403"
     inkscape:document-units="px"
     inkscape:current-layer="layer1"
     showgrid="false"
     inkscape:window-width="1600"
     inkscape:window-height="1150"
     inkscape:window-x="0"
     inkscape:window-y="0"
     inkscape:window-maximized="1" />
  <metadata
     id="metadata3292">
    <rdf:RDF>
      <cc:Work
         rdf:about="">
        <dc:format>image/svg+xml</dc:format>
        <dc:type
           rdf:resource="http://purl.org/dc/dcmitype/StillImage" />
        <cc:license
           rdf:resource="http://creativecommons.org/licenses/by-nc-sa/3.0/" />
        <dc:title>Der Schwerpunkt</dc:title>
        <dc:date>2012-09-23</dc:date>
        <dc:creator>
          <cc:Agent>
            <dc:title>Bernhard Grotz</dc:title>
          </cc:Agent>
        </dc:creator>
        <dc:rights>
          <cc:Agent>
            <dc:title>Bernhard Grotz</dc:title>
          </cc:Agent>
        </dc:rights>
        <dc:publisher>
          <cc:Agent>
            <dc:title>Bernhard Grotz</dc:title>
          </cc:Agent>
        </dc:publisher>
        <dc:language>de-DE</dc:language>
        <dc:subject>
          <rdf:Bag>
            <rdf:li>Physik</rdf:li>
            <rdf:li>Mechanik</rdf:li>
            <rdf:li>Dynamik</rdf:li>
            <rdf:li>Drehmoment und Gleichgewicht</rdf:li>
            <rdf:li>Schwerpunkt</rdf:li>
          </rdf:Bag>
        </dc:subject>
      </cc:Work>
      <cc:License
         rdf:about="http://creativecommons.org/licenses/by-nc-sa/3.0/">
        <cc:permits
           rdf:resource="http://creativecommons.org/ns#Reproduction" />
        <cc:permits
           rdf:resource="http://creativecommons.org/ns#Distribution" />
        <cc:requires
           rdf:resource="http://creativecommons.org/ns#Notice" />
        <cc:requires
           rdf:resource="http://creativecommons.org/ns#Attribution" />
        <cc:prohibits
           rdf:resource="http://creativecommons.org/ns#CommercialUse" />
        <cc:permits
           rdf:resource="http://creativecommons.org/ns#DerivativeWorks" />
        <cc:requires
           rdf:resource="http://creativecommons.org/ns#ShareAlike" />
      </cc:License>
    </rdf:RDF>
  </metadata>
  <g
     inkscape:label="Ebene 1"
     inkscape:groupmode="layer"
     id="layer1">
    <rect
       style="color:#000000;fill:#ffffff;stroke:#ffffff;stroke-width:0.99999994;stroke-linecap:round;stroke-linejoin:bevel;stroke-miterlimit:4;stroke-opacity:1;stroke-dasharray:none;stroke-dashoffset:0;marker:none;visibility:visible;display:inline;overflow:visible;enable-background:accumulate"
       id="rect79533"
       width="609.51331"
       height="514.0943"
       x="67.290588"
       y="269.13394"
       inkscape:export-filename="/home/waldgeist/data/pics/physik/Own/mechanik/dynamik/schwerpunkt.png"
       inkscape:export-xdpi="150"
       inkscape:export-ydpi="150" />
    <path
       style="fill:none;stroke:#ff00ff;stroke-width:1px;stroke-linecap:butt;stroke-linejoin:miter;stroke-opacity:1"
       d="m 175.906,555.69425 0,67.59658"
       id="path3033"
       inkscape:connector-curvature="0"
       inkscape:export-filename="/home/waldgeist/data/pics/physik/Own/mechanik/dynamik/schwerpunkt.png"
       inkscape:export-xdpi="150"
       inkscape:export-ydpi="150" />
    <path
       d="m 367.00425,296.9994 0,135.19317 246.42638,0 0,-135.19317 z"
       style="color:#000000;fill:#afafde;fill-opacity:1;fill-rule:evenodd;stroke:#000000;stroke-width:1;stroke-linecap:round;stroke-linejoin:round;stroke-miterlimit:4;stroke-opacity:1;stroke-dasharray:none;stroke-dashoffset:0;marker:none;visibility:visible"
       id="path4019"
       inkscape:connector-curvature="0"
       inkscape:export-filename="/home/waldgeist/data/pics/physik/Own/mechanik/dynamik/schwerpunkt.png"
       inkscape:export-xdpi="150"
       inkscape:export-ydpi="150" />
    <path
       d="M 367.00425,432.19257 175.906,623.29083 l 246.42636,0 191.09827,-191.09826 z"
       style="color:#000000;fill:#afafde;fill-rule:evenodd;stroke:#000000;stroke-width:1;stroke-linecap:round;stroke-linejoin:round;stroke-miterlimit:4;stroke-opacity:1;stroke-dasharray:none;stroke-dashoffset:0;marker:none;visibility:visible"
       id="path4021"
       inkscape:connector-curvature="0"
       inkscape:export-filename="/home/waldgeist/data/pics/physik/Own/mechanik/dynamik/schwerpunkt.png"
       inkscape:export-xdpi="150"
       inkscape:export-ydpi="150" />
    <path
       d="M 367.00425,296.9994 175.906,488.09766 l 0,135.19317 191.09825,-191.09826 z"
       style="color:#000000;fill:#afafde;fill-opacity:1;fill-rule:evenodd;stroke:#000000;stroke-width:1;stroke-linecap:round;stroke-linejoin:round;stroke-miterlimit:4;stroke-opacity:1;stroke-dasharray:none;stroke-dashoffset:0;marker:none;visibility:visible"
       id="path4023"
       inkscape:connector-curvature="0"
       inkscape:export-filename="/home/waldgeist/data/pics/physik/Own/mechanik/dynamik/schwerpunkt.png"
       inkscape:export-xdpi="150"
       inkscape:export-ydpi="150" />
    <g
       id="g4543"
       transform="matrix(0,0.32207948,0.32207948,0,431.90502,345.65375)"
       inkscape:export-filename="/home/waldgeist/data/pics/physik/Own/mechanik/dynamik/schwerpunkt.png"
       inkscape:export-xdpi="150"
       inkscape:export-ydpi="150">
      <path
         sodipodi:nodetypes="cc"
         style="fill:#d40000;stroke:#d40000;stroke-width:14.9447155;stroke-linecap:butt;stroke-linejoin:miter;stroke-miterlimit:4;stroke-opacity:1;stroke-dasharray:none"
         d="m 454.68073,156.14605 89.69995,0"
         id="path4545"
         inkscape:connector-curvature="0" />
      <path
         inkscape:transform-center-x="-3.0302635"
         transform="matrix(1.645499e-5,-0.5103719,0.5103719,1.645499e-5,-266.25862,-204.76773)"
         inkscape:transform-center-y="-0.00017641075"
         d="m -707.10675,1620.0679 -5.24891,-9.0914 -5.2489,-9.0914 10.49781,0 10.49781,0 -5.2489,9.0914 z"
         inkscape:randomized="0"
         inkscape:rounded="0"
         inkscape:flatsided="false"
         sodipodi:arg2="2.6179939"
         sodipodi:arg1="1.5707963"
         sodipodi:r2="6.060915"
         sodipodi:r1="12.121831"
         sodipodi:cy="1607.946"
         sodipodi:cx="-707.10675"
         sodipodi:sides="3"
         id="path4547"
         style="fill:#d40000;stroke:#d40000;stroke-width:29.29999924;stroke-miterlimit:4;stroke-dasharray:none"
         sodipodi:type="star" />
    </g>
    <path
       d="m 613.43063,296.9994 -191.09827,191.09826 0,135.19317 191.09827,-191.09826 z"
       style="opacity:0.5;color:#000000;fill:#e9e9ff;fill-rule:evenodd;stroke:#000000;stroke-width:1;stroke-linecap:round;stroke-linejoin:round;stroke-miterlimit:4;stroke-opacity:1;stroke-dasharray:none;stroke-dashoffset:0;marker:none;visibility:visible"
       id="path4025"
       inkscape:connector-curvature="0"
       inkscape:export-filename="/home/waldgeist/data/pics/physik/Own/mechanik/dynamik/schwerpunkt.png"
       inkscape:export-xdpi="150"
       inkscape:export-ydpi="150" />
    <g
       transform="matrix(0,1,1,0,238.58039,197.27761)"
       id="g4007"
       inkscape:export-filename="/home/waldgeist/data/pics/physik/Own/mechanik/dynamik/schwerpunkt.png"
       inkscape:export-xdpi="150"
       inkscape:export-ydpi="150">
      <path
         inkscape:connector-curvature="0"
         id="path4009"
         d="m 262.71684,156.14605 281.66384,0"
         style="fill:#d40000;stroke:#d40000;stroke-width:14.9447155;stroke-linecap:butt;stroke-linejoin:miter;stroke-miterlimit:4;stroke-opacity:1;stroke-dasharray:none"
         sodipodi:nodetypes="cc" />
      <path
         sodipodi:type="star"
         style="fill:#d40000;stroke:#d40000;stroke-width:29.29999924;stroke-miterlimit:4;stroke-dasharray:none"
         id="path4011"
         sodipodi:sides="3"
         sodipodi:cx="-707.10675"
         sodipodi:cy="1607.946"
         sodipodi:r1="12.121831"
         sodipodi:r2="6.060915"
         sodipodi:arg1="1.5707963"
         sodipodi:arg2="2.6179939"
         inkscape:flatsided="false"
         inkscape:rounded="0"
         inkscape:randomized="0"
         d="m -707.10675,1620.0679 -5.24891,-9.0914 -5.2489,-9.0914 10.49781,0 10.49781,0 -5.2489,9.0914 z"
         inkscape:transform-center-y="-0.00017641075"
         transform="matrix(1.645499e-5,-0.5103719,0.5103719,1.645499e-5,-266.25862,-204.76773)"
         inkscape:transform-center-x="-3.0302635" />
    </g>
    <text
       sodipodi:linespacing="125%"
       id="text3108"
       y="466.36493"
       x="387.98206"
       style="font-size:22.74670982px;font-style:normal;font-weight:normal;line-height:125%;letter-spacing:0px;word-spacing:0px;fill:#000000;fill-opacity:1;stroke:none;font-family:Sans"
       xml:space="preserve"
       inkscape:export-filename="/home/waldgeist/data/pics/physik/Own/mechanik/dynamik/schwerpunkt.png"
       inkscape:export-xdpi="150"
       inkscape:export-ydpi="150"><tspan
         y="466.36493"
         x="387.98206"
         id="tspan3110"
         sodipodi:role="line">x</tspan></text>
    <g
       id="g4525"
       transform="matrix(0,0.32207948,0.32207948,0,413.89225,262.40552)"
       inkscape:export-filename="/home/waldgeist/data/pics/physik/Own/mechanik/dynamik/schwerpunkt.png"
       inkscape:export-xdpi="150"
       inkscape:export-ydpi="150">
      <path
         sodipodi:nodetypes="cc"
         style="fill:#d40000;stroke:#d40000;stroke-width:14.9447155;stroke-linecap:butt;stroke-linejoin:miter;stroke-miterlimit:4;stroke-opacity:1;stroke-dasharray:none"
         d="m 454.68073,156.14605 89.69995,0"
         id="path4527"
         inkscape:connector-curvature="0" />
      <path
         inkscape:transform-center-x="-3.0302635"
         transform="matrix(1.645499e-5,-0.5103719,0.5103719,1.645499e-5,-266.25862,-204.76773)"
         inkscape:transform-center-y="-0.00017641075"
         d="m -707.10675,1620.0679 -5.24891,-9.0914 -5.2489,-9.0914 10.49781,0 10.49781,0 -5.2489,9.0914 z"
         inkscape:randomized="0"
         inkscape:rounded="0"
         inkscape:flatsided="false"
         sodipodi:arg2="2.6179939"
         sodipodi:arg1="1.5707963"
         sodipodi:r2="6.060915"
         sodipodi:r1="12.121831"
         sodipodi:cy="1607.946"
         sodipodi:cx="-707.10675"
         sodipodi:sides="3"
         id="path4529"
         style="fill:#d40000;stroke:#d40000;stroke-width:29.29999924;stroke-miterlimit:4;stroke-dasharray:none"
         sodipodi:type="star" />
    </g>
    <g
       id="g4537"
       transform="matrix(0,0.32207948,0.32207948,0,386.62967,177.6968)"
       inkscape:export-filename="/home/waldgeist/data/pics/physik/Own/mechanik/dynamik/schwerpunkt.png"
       inkscape:export-xdpi="150"
       inkscape:export-ydpi="150">
      <path
         sodipodi:nodetypes="cc"
         style="fill:#d40000;stroke:#d40000;stroke-width:14.9447155;stroke-linecap:butt;stroke-linejoin:miter;stroke-miterlimit:4;stroke-opacity:1;stroke-dasharray:none"
         d="m 454.68073,156.14605 89.69995,0"
         id="path4539"
         inkscape:connector-curvature="0" />
      <path
         inkscape:transform-center-x="-3.0302635"
         transform="matrix(1.645499e-5,-0.5103719,0.5103719,1.645499e-5,-266.25862,-204.76773)"
         inkscape:transform-center-y="-0.00017641075"
         d="m -707.10675,1620.0679 -5.24891,-9.0914 -5.2489,-9.0914 10.49781,0 10.49781,0 -5.2489,9.0914 z"
         inkscape:randomized="0"
         inkscape:rounded="0"
         inkscape:flatsided="false"
         sodipodi:arg2="2.6179939"
         sodipodi:arg1="1.5707963"
         sodipodi:r2="6.060915"
         sodipodi:r1="12.121831"
         sodipodi:cy="1607.946"
         sodipodi:cx="-707.10675"
         sodipodi:sides="3"
         id="path4541"
         style="fill:#d40000;stroke:#d40000;stroke-width:29.29999924;stroke-miterlimit:4;stroke-dasharray:none"
         sodipodi:type="star" />
    </g>
    <g
       transform="matrix(0,0.32207948,0.32207948,0,489.838,181.59146)"
       id="g4519"
       inkscape:export-filename="/home/waldgeist/data/pics/physik/Own/mechanik/dynamik/schwerpunkt.png"
       inkscape:export-xdpi="150"
       inkscape:export-ydpi="150">
      <path
         inkscape:connector-curvature="0"
         id="path4521"
         d="m 454.68073,156.14605 89.69995,0"
         style="fill:#d40000;stroke:#d40000;stroke-width:14.9447155;stroke-linecap:butt;stroke-linejoin:miter;stroke-miterlimit:4;stroke-opacity:1;stroke-dasharray:none"
         sodipodi:nodetypes="cc" />
      <path
         sodipodi:type="star"
         style="fill:#d40000;stroke:#d40000;stroke-width:29.29999924;stroke-miterlimit:4;stroke-dasharray:none"
         id="path4523"
         sodipodi:sides="3"
         sodipodi:cx="-707.10675"
         sodipodi:cy="1607.946"
         sodipodi:r1="12.121831"
         sodipodi:r2="6.060915"
         sodipodi:arg1="1.5707963"
         sodipodi:arg2="2.6179939"
         inkscape:flatsided="false"
         inkscape:rounded="0"
         inkscape:randomized="0"
         d="m -707.10675,1620.0679 -5.24891,-9.0914 -5.2489,-9.0914 10.49781,0 10.49781,0 -5.2489,9.0914 z"
         inkscape:transform-center-y="-0.00017641075"
         transform="matrix(1.645499e-5,-0.5103719,0.5103719,1.645499e-5,-266.25862,-204.76773)"
         inkscape:transform-center-x="-3.0302635" />
    </g>
    <g
       id="g4513"
       transform="matrix(0,0.32207948,0.32207948,0,306.30244,224.91948)"
       inkscape:export-filename="/home/waldgeist/data/pics/physik/Own/mechanik/dynamik/schwerpunkt.png"
       inkscape:export-xdpi="150"
       inkscape:export-ydpi="150">
      <path
         sodipodi:nodetypes="cc"
         style="fill:#d40000;stroke:#d40000;stroke-width:14.9447155;stroke-linecap:butt;stroke-linejoin:miter;stroke-miterlimit:4;stroke-opacity:1;stroke-dasharray:none"
         d="m 454.68073,156.14605 89.69995,0"
         id="path4515"
         inkscape:connector-curvature="0" />
      <path
         inkscape:transform-center-x="-3.0302635"
         transform="matrix(1.645499e-5,-0.5103719,0.5103719,1.645499e-5,-266.25862,-204.76773)"
         inkscape:transform-center-y="-0.00017641075"
         d="m -707.10675,1620.0679 -5.24891,-9.0914 -5.2489,-9.0914 10.49781,0 10.49781,0 -5.2489,9.0914 z"
         inkscape:randomized="0"
         inkscape:rounded="0"
         inkscape:flatsided="false"
         sodipodi:arg2="2.6179939"
         sodipodi:arg1="1.5707963"
         sodipodi:r2="6.060915"
         sodipodi:r1="12.121831"
         sodipodi:cy="1607.946"
         sodipodi:cx="-707.10675"
         sodipodi:sides="3"
         id="path4517"
         style="fill:#d40000;stroke:#d40000;stroke-width:29.29999924;stroke-miterlimit:4;stroke-dasharray:none"
         sodipodi:type="star" />
    </g>
    <g
       transform="matrix(0,0.32207948,0.32207948,0,248.8563,294.04959)"
       id="g4507"
       inkscape:export-filename="/home/waldgeist/data/pics/physik/Own/mechanik/dynamik/schwerpunkt.png"
       inkscape:export-xdpi="150"
       inkscape:export-ydpi="150">
      <path
         inkscape:connector-curvature="0"
         id="path4509"
         d="m 454.68073,156.14605 89.69995,0"
         style="fill:#d40000;stroke:#d40000;stroke-width:14.9447155;stroke-linecap:butt;stroke-linejoin:miter;stroke-miterlimit:4;stroke-opacity:1;stroke-dasharray:none"
         sodipodi:nodetypes="cc" />
      <path
         sodipodi:type="star"
         style="fill:#d40000;stroke:#d40000;stroke-width:29.29999924;stroke-miterlimit:4;stroke-dasharray:none"
         id="path4511"
         sodipodi:sides="3"
         sodipodi:cx="-707.10675"
         sodipodi:cy="1607.946"
         sodipodi:r1="12.121831"
         sodipodi:r2="6.060915"
         sodipodi:arg1="1.5707963"
         sodipodi:arg2="2.6179939"
         inkscape:flatsided="false"
         inkscape:rounded="0"
         inkscape:randomized="0"
         d="m -707.10675,1620.0679 -5.24891,-9.0914 -5.2489,-9.0914 10.49781,0 10.49781,0 -5.2489,9.0914 z"
         inkscape:transform-center-y="-0.00017641075"
         transform="matrix(1.645499e-5,-0.5103719,0.5103719,1.645499e-5,-266.25862,-204.76773)"
         inkscape:transform-center-x="-3.0302635" />
    </g>
    <path
       d="M 367.00425,296.9994 175.906,488.09766 l 246.42636,0 191.09827,-191.09826 z"
       style="opacity:0.5;color:#000000;fill:#d7d7ff;fill-opacity:1;fill-rule:evenodd;stroke:#000000;stroke-width:1;stroke-linecap:round;stroke-linejoin:round;stroke-miterlimit:4;stroke-opacity:1;stroke-dasharray:none;stroke-dashoffset:0;marker:none;visibility:visible"
       id="path4027"
       inkscape:connector-curvature="0"
       inkscape:export-filename="/home/waldgeist/data/pics/physik/Own/mechanik/dynamik/schwerpunkt.png"
       inkscape:export-xdpi="150"
       inkscape:export-ydpi="150" />
    <g
       transform="matrix(4.4660028,0,0,4.4660028,-618.00942,-154.74355)"
       ns0:text="$S$"
       ns0:preamble="/home/waldgeist/data/sphinx/test.tex"
       id="g3071"
       inkscape:export-filename="/home/waldgeist/data/pics/physik/Own/mechanik/dynamik/schwerpunkt.png"
       inkscape:export-xdpi="150"
       inkscape:export-ydpi="150">
      <defs
         id="defs3073">
        <g
           id="g3075">
          <symbol
             style="overflow:visible"
             overflow="visible"
             id="textext-9f790aa7-0">
            <path
               inkscape:connector-curvature="0"
               style="stroke:none"
               d="m 6.4375,-6.921875 c 0,-0.03125 -0.03125,-0.109375 -0.125,-0.109375 -0.046875,0 -0.046875,0.015625 -0.171875,0.15625 L 5.65625,-6.3125 c -0.25,-0.46875 -0.765625,-0.71875 -1.421875,-0.71875 -1.265625,0 -2.453125,1.15625 -2.453125,2.359375 0,0.796875 0.515625,1.265625 1.03125,1.40625 l 1.0625,0.28125 c 0.375,0.09375 0.921875,0.25 0.921875,1.0625 0,0.890625 -0.8125,1.828125 -1.796875,1.828125 -0.640625,0 -1.75,-0.21875 -1.75,-1.453125 0,-0.234375 0.0625,-0.484375 0.0625,-0.53125 0.015625,-0.046875 0.015625,-0.0625 0.015625,-0.078125 0,-0.09375 -0.0625,-0.109375 -0.109375,-0.109375 -0.046875,0 -0.078125,0.015625 -0.109375,0.046875 -0.03125,0.03125 -0.59375,2.3125 -0.59375,2.34375 0,0.046875 0.046875,0.09375 0.109375,0.09375 0.046875,0 0.0625,-0.015625 0.1875,-0.15625 L 1.296875,-0.5 c 0.421875,0.578125 1.109375,0.71875 1.6875,0.71875 1.359375,0 2.53125,-1.328125 2.53125,-2.5625 0,-0.6875 -0.34375,-1.03125 -0.484375,-1.171875 C 4.796875,-3.734375 4.640625,-3.78125 3.765625,-4 3.53125,-4.0625 3.1875,-4.171875 3.09375,-4.1875 2.828125,-4.28125 2.484375,-4.5625 2.484375,-5.09375 c 0,-0.8125 0.796875,-1.65625 1.75,-1.65625 0.8125,0 1.421875,0.4375 1.421875,1.546875 0,0.3125 -0.03125,0.5 -0.03125,0.5625 0,0 0,0.09375 0.109375,0.09375 0.109375,0 0.125,-0.03125 0.15625,-0.203125 z m 0,0"
               id="path3078" />
          </symbol>
        </g>
      </defs>
      <g
         id="textext-9f790aa7-1">
        <g
           style="fill:#000000;fill-opacity:1"
           id="g3081">
          <use
             height="1052.3622"
             width="744.09448"
             xlink:href="#textext-9f790aa7-0"
             x="223.43201"
             y="134.765"
             id="use3083" />
        </g>
      </g>
    </g>
    <g
       id="g4501"
       transform="matrix(0,0.32207948,0.32207948,0,231.33036,361.7192)"
       inkscape:export-filename="/home/waldgeist/data/pics/physik/Own/mechanik/dynamik/schwerpunkt.png"
       inkscape:export-xdpi="150"
       inkscape:export-ydpi="150">
      <path
         sodipodi:nodetypes="cc"
         style="fill:#d40000;stroke:#d40000;stroke-width:14.9447155;stroke-linecap:butt;stroke-linejoin:miter;stroke-miterlimit:4;stroke-opacity:1;stroke-dasharray:none"
         d="m 454.68073,156.14605 89.69995,0"
         id="path4503"
         inkscape:connector-curvature="0" />
      <path
         inkscape:transform-center-x="-3.0302635"
         transform="matrix(1.645499e-5,-0.5103719,0.5103719,1.645499e-5,-266.25862,-204.76773)"
         inkscape:transform-center-y="-0.00017641075"
         d="m -707.10675,1620.0679 -5.24891,-9.0914 -5.2489,-9.0914 10.49781,0 10.49781,0 -5.2489,9.0914 z"
         inkscape:randomized="0"
         inkscape:rounded="0"
         inkscape:flatsided="false"
         sodipodi:arg2="2.6179939"
         sodipodi:arg1="1.5707963"
         sodipodi:r2="6.060915"
         sodipodi:r1="12.121831"
         sodipodi:cy="1607.946"
         sodipodi:cx="-707.10675"
         sodipodi:sides="3"
         id="path4505"
         style="fill:#d40000;stroke:#d40000;stroke-width:29.29999924;stroke-miterlimit:4;stroke-dasharray:none"
         sodipodi:type="star" />
    </g>
    <g
       transform="matrix(0,0.32207948,0.32207948,0,286.34233,423.54683)"
       id="g4531"
       inkscape:export-filename="/home/waldgeist/data/pics/physik/Own/mechanik/dynamik/schwerpunkt.png"
       inkscape:export-xdpi="150"
       inkscape:export-ydpi="150">
      <path
         inkscape:connector-curvature="0"
         id="path4533"
         d="m 454.68073,156.14605 89.69995,0"
         style="fill:#d40000;stroke:#d40000;stroke-width:14.9447155;stroke-linecap:butt;stroke-linejoin:miter;stroke-miterlimit:4;stroke-opacity:1;stroke-dasharray:none"
         sodipodi:nodetypes="cc" />
      <path
         sodipodi:type="star"
         style="fill:#d40000;stroke:#d40000;stroke-width:29.29999924;stroke-miterlimit:4;stroke-dasharray:none"
         id="path4535"
         sodipodi:sides="3"
         sodipodi:cx="-707.10675"
         sodipodi:cy="1607.946"
         sodipodi:r1="12.121831"
         sodipodi:r2="6.060915"
         sodipodi:arg1="1.5707963"
         sodipodi:arg2="2.6179939"
         inkscape:flatsided="false"
         inkscape:rounded="0"
         inkscape:randomized="0"
         d="m -707.10675,1620.0679 -5.24891,-9.0914 -5.2489,-9.0914 10.49781,0 10.49781,0 -5.2489,9.0914 z"
         inkscape:transform-center-y="-0.00017641075"
         transform="matrix(1.645499e-5,-0.5103719,0.5103719,1.645499e-5,-266.25862,-204.76773)"
         inkscape:transform-center-x="-3.0302635" />
    </g>
    <path
       d="m 175.906,488.09766 0,135.19317 246.42636,0 0,-135.19317 z"
       style="opacity:0.5;color:#000000;fill:#d7d7ff;fill-rule:evenodd;stroke:#000000;stroke-width:1;stroke-linecap:round;stroke-linejoin:round;stroke-miterlimit:4;stroke-opacity:1;stroke-dasharray:none;stroke-dashoffset:0;marker:none;visibility:visible"
       id="path4029"
       inkscape:connector-curvature="0"
       inkscape:export-filename="/home/waldgeist/data/pics/physik/Own/mechanik/dynamik/schwerpunkt.png"
       inkscape:export-xdpi="150"
       inkscape:export-ydpi="150" />
    <g
       id="g4248"
       ns0:preamble="/home/waldgeist/data/sphinx/test.tex"
       ns0:text="$\\vec{F} _{\\rm{G}}$"
       transform="matrix(6.4300004,0,0,6.4300004,-1021.8229,-162.70391)"
       style="fill:#d40000;fill-opacity:1;stroke:#d40000;stroke-opacity:1"
       inkscape:export-filename="/home/waldgeist/data/pics/physik/Own/mechanik/dynamik/schwerpunkt.png"
       inkscape:export-xdpi="150"
       inkscape:export-ydpi="150">
      <defs
         id="defs4250">
        <g
           id="g4252">
          <symbol
             id="textext-3bbe7077-0"
             overflow="visible"
             style="overflow:visible">
            <path
               id="path4255"
               d="m 5.359375,-5.9375 c -0.140625,0.140625 -0.46875,0.421875 -0.46875,0.59375 0,0.09375 0.09375,0.203125 0.1875,0.203125 0.09375,0 0.140625,-0.078125 0.203125,-0.140625 C 5.390625,-5.421875 5.625,-5.703125 6.0625,-5.921875 6.125,-5.96875 6.234375,-6.015625 6.234375,-6.125 6.234375,-6.234375 6.15625,-6.28125 6.09375,-6.328125 5.875,-6.484375 5.765625,-6.65625 5.6875,-6.890625 5.65625,-6.984375 5.625,-7.125 5.484375,-7.125 c -0.140625,0 -0.203125,0.140625 -0.203125,0.21875 0,0.046875 0.078125,0.359375 0.234375,0.578125 l -3.359375,0 c -0.15625,0 -0.34375,0 -0.34375,0.203125 0,0.1875 0.1875,0.1875 0.34375,0.1875 z m 0,0"
               style="stroke:none"
               inkscape:connector-curvature="0" />
          </symbol>
          <symbol
             id="textext-3bbe7077-1"
             overflow="visible"
             style="overflow:visible">
            <path
               id="path4258"
               d="m 3.015625,-3.234375 0.96875,0 c 0.75,0 0.828125,0.15625 0.828125,0.4375 0,0.078125 0,0.1875 -0.0625,0.5 C 4.71875,-2.25 4.71875,-2.21875 4.71875,-2.1875 c 0,0.078125 0.0625,0.109375 0.109375,0.109375 0.109375,0 0.109375,-0.03125 0.15625,-0.203125 L 5.53125,-4.453125 C 5.5625,-4.5625 5.5625,-4.578125 5.5625,-4.609375 5.5625,-4.625 5.546875,-4.71875 5.4375,-4.71875 5.34375,-4.71875 5.328125,-4.671875 5.296875,-4.5 5.078125,-3.734375 4.859375,-3.546875 4,-3.546875 l -0.90625,0 0.640625,-2.53125 C 3.828125,-6.4375 3.84375,-6.46875 4.28125,-6.46875 l 1.3125,0 c 1.21875,0 1.453125,0.328125 1.453125,1.09375 0,0.234375 0,0.265625 -0.03125,0.546875 C 7,-4.703125 7,-4.6875 7,-4.65625 c 0,0.046875 0.03125,0.125 0.125,0.125 0.109375,0 0.109375,-0.0625 0.125,-0.25 L 7.453125,-6.515625 C 7.484375,-6.78125 7.4375,-6.78125 7.1875,-6.78125 l -4.890625,0 c -0.1875,0 -0.296875,0 -0.296875,0.203125 0,0.109375 0.09375,0.109375 0.28125,0.109375 0.375,0 0.65625,0 0.65625,0.171875 0,0.046875 0,0.0625 -0.0625,0.25 L 1.5625,-0.78125 c -0.09375,0.390625 -0.109375,0.46875 -0.90625,0.46875 -0.171875,0 -0.28125,0 -0.28125,0.1875 C 0.375,0 0.5,0 0.53125,0 0.8125,0 1.5625,-0.03125 1.84375,-0.03125 2.171875,-0.03125 3,0 3.328125,0 3.421875,0 3.53125,0 3.53125,-0.1875 3.53125,-0.265625 3.484375,-0.296875 3.484375,-0.296875 3.453125,-0.3125 3.421875,-0.3125 3.203125,-0.3125 c -0.21875,0 -0.265625,0 -0.515625,-0.015625 -0.296875,-0.03125 -0.328125,-0.078125 -0.328125,-0.203125 0,-0.015625 0,-0.078125 0.046875,-0.21875 z m 0,0"
               style="stroke:none"
               inkscape:connector-curvature="0" />
          </symbol>
          <symbol
             id="textext-3bbe7077-2"
             overflow="visible"
             style="overflow:visible">
            <path
               id="path4261"
               d="m 5.1875,-1.359375 c 0,-0.3125 0.078125,-0.3125 0.546875,-0.3125 l 0,-0.25 c -0.0625,0 -0.5625,0.03125 -0.90625,0.03125 -0.375,0 -0.890625,0 -1.265625,-0.03125 l 0,0.25 0.265625,0 c 0.703125,0 0.703125,0.09375 0.703125,0.3125 l 0,0.453125 c 0,0.15625 0,0.421875 -0.40625,0.625 -0.328125,0.171875 -0.71875,0.171875 -0.8125,0.171875 -0.796875,0 -2.078125,-0.453125 -2.078125,-2.28125 0,-1.84375 1.328125,-2.25 2.015625,-2.25 0.671875,0 1.515625,0.453125 1.6875,1.65625 0.015625,0.078125 0.078125,0.078125 0.125,0.078125 0.125,0 0.125,-0.046875 0.125,-0.1875 l 0,-1.625 c 0,-0.125 0,-0.1875 -0.09375,-0.1875 -0.03125,0 -0.0625,0 -0.125,0.09375 l -0.359375,0.53125 c -0.34375,-0.359375 -0.84375,-0.625 -1.453125,-0.625 -1.453125,0 -2.671875,1.125 -2.671875,2.515625 0,1.390625 1.1875,2.53125 2.6875,2.53125 0.390625,0 1.15625,-0.078125 1.484375,-0.5625 C 4.78125,-0.234375 5.03125,0 5.109375,0 5.1875,0 5.1875,-0.078125 5.1875,-0.1875 z m 0,0"
               style="stroke:none"
               inkscape:connector-curvature="0" />
          </symbol>
        </g>
      </defs>
      <g
         id="textext-3bbe7077-3"
         style="fill:#d40000;fill-opacity:1;stroke:#d40000;stroke-opacity:1">
        <g
           id="g4264"
           style="fill:#d40000;fill-opacity:1;stroke:#d40000;stroke-opacity:1">
          <use
             id="use4266"
             y="132.246"
             x="224.901"
             xlink:href="#textext-3bbe7077-0"
             width="744.09448"
             height="1052.3622"
             style="fill:#d40000;fill-opacity:1;stroke:#d40000;stroke-opacity:1" />
        </g>
        <g
           id="g4268"
           style="fill:#d40000;fill-opacity:1;stroke:#d40000;stroke-opacity:1">
          <use
             id="use4270"
             y="134.765"
             x="223.43201"
             xlink:href="#textext-3bbe7077-1"
             width="744.09448"
             height="1052.3622"
             style="fill:#d40000;fill-opacity:1;stroke:#d40000;stroke-opacity:1" />
        </g>
        <g
           id="g4272"
           style="fill:#d40000;fill-opacity:1;stroke:#d40000;stroke-opacity:1">
          <use
             id="use4274"
             y="136.259"
             x="229.839"
             xlink:href="#textext-3bbe7077-2"
             width="744.09448"
             height="1052.3622"
             style="fill:#d40000;fill-opacity:1;stroke:#d40000;stroke-opacity:1" />
        </g>
      </g>
    </g>
  </g>
</svg>
