<svg xmlns="http://www.w3.org/2000/svg" xmlns:xlink="http://www.w3.org/1999/xlink" width="1052.362" height="744.094"><title>Kraeftegleichgewicht Haengegeruest</title><g transform="translate(0 -308.268)"><rect style="marker:none" width="932.727" height="530.597" x="59.818" y="415.016" rx="13.428" ry="9.761" color="#000" fill="#fff" stroke="#fff" stroke-width="2" stroke-linecap="round" stroke-linejoin="round" stroke-dasharray="1.99999988,5.99999964" overflow="visible"/><path d="M-308.774 1450.315c0 212.477-173.966 384.725-388.563 384.725-214.597 0-388.562-172.248-388.562-384.725 0-212.478 173.965-384.725 388.562-384.725s388.563 172.247 388.563 384.725z" fill="#fff"/><rect y="849.291" x="231.685" height="19.522" width="588.991" rx="9.375" ry="9.761" fill="gray" stroke="#000" stroke-width="2" stroke-linejoin="round"/><rect id="a" width="7.449" height="152.457" x="249.625" y="716.357" rx="3.724" ry="3.724" fill="#ccc" stroke="#000" stroke-width="1.5" stroke-linecap="round" stroke-linejoin="round"/><path d="M526.181 609.406c-9.688 0-17.507 7.952-17.507 17.697 0 9.746 7.819 17.61 17.507 17.61 9.689 0 17.594-7.864 17.594-17.61 0-9.745-7.905-17.697-17.594-17.697zm-27.35 38.298c-9.08 0-16.287 6.99-16.287 15.595V734.7c0 10.915 15.678 10.915 15.678 0v-56.42h5.575v160.85c0 4.924 4.385 9.024 9.58 9.024 5.196 0 9.146-4.101 9.146-9.023v-88.573h7.316v88.573c0 4.922 4.037 9.023 9.233 9.023 5.195 0 9.58-4.1 9.58-9.023V678.28h5.488v56.42c0 10.915 15.678 10.915 15.678 0V663.3c0-8.604-7.207-15.595-16.288-15.595z"/><path d="M335.262 849.291V484.066M717.1 849.291V484.066" fill="none" stroke="#000" stroke-width="6"/><use xlink:href="#a" transform="translate(218.265)" width="744.094" height="1052.362"/><use xlink:href="#a" transform="translate(327.398)" width="744.094" height="1052.362"/><use xlink:href="#a" transform="translate(436.53)" width="744.094" height="1052.362"/><use xlink:href="#a" transform="translate(545.663)" width="744.094" height="1052.362"/><use xlink:href="#a" transform="translate(109.133)" width="1052.362" height="744.094"/><rect width="9.469" height="588.991" x="-725.826" y="231.685" rx="4.734" ry="4.734" transform="rotate(-90)" fill="#ccc" stroke="#000" stroke-width="1.5" stroke-linecap="round" stroke-linejoin="round"/><rect ry="9.761" rx="13.428" width="843.571" height="19.522" x="104.396" y="463.402" fill="gray" stroke="#000" stroke-width="2" stroke-linejoin="round"/></g></svg>