<svg xmlns="http://www.w3.org/2000/svg" width="744.094" height="1052.362"><title>Zentrifuge (Modell)</title><rect style="marker:none" width="637.7" height="333.779" x="53.197" y="359.291" ry="5.089" color="#000" fill="#fff" stroke="#fff" stroke-width="2" stroke-linecap="round" stroke-linejoin="round" overflow="visible"/><path transform="matrix(-.83391 0 0 .83412 2406.71 356.628)" d="M2330.115 104.527a4.288 4.288 0 1 1-8.576 0 4.288 4.288 0 1 1 8.576 0z" fill="#fc0" fill-rule="evenodd" stroke="#000" stroke-width="1.199"/><path d="M276.295 443.815h190.884" fill="none" stroke="#000" stroke-width="5"/><g stroke="#4d4d4d"><path d="M393.423 411.995c-6.508-3.757-22.083-5.715-34.788-4.372-12.705 1.342-17.728 5.477-11.22 9.234" fill="none" stroke-width="1.5" stroke-linecap="round"/><path d="M349.214 418.126l-1.29-.092-1.289-.091.725-1.071.724-1.071.565 1.162z" fill="purple" stroke-width="1.4999669999999998"/></g><path d="M363.065 652.304V405.73c0-7.593 17.343-7.533 17.343 0v246.574" fill="gray" stroke="#000"/><g stroke="#4d4d4d"><path d="M350.05 418.48c6.509 3.758 22.084 5.716 34.789 4.373 12.705-1.342 17.728-5.477 11.22-9.234" fill="none" stroke-width="1.5" stroke-linecap="round"/><path d="M394.05 412.46l1.29.09 1.29.092-.724 1.071-.725 1.071-.565-1.162z" fill="purple" stroke-width="1.4999669999999998"/></g><rect style="marker:none" width="30.419" height="12" x="356.527" y="437.815" ry="6" color="#000" fill="#ccc" stroke="gray" stroke-linecap="round" stroke-linejoin="round" overflow="visible"/><path d="M252.49 529.73h47.828v62.627c-2.46 30.054-44.18 31.836-47.827 0z" fill="#afc6e9" stroke="#87aade"/><g stroke="gray"><g fill="none" stroke-width="2" stroke-linecap="round" stroke-linejoin="round"><path d="M276.404 430.614h-27.872l3.959 8.671v153.072c1.196 12.503 8.966 23.083 23.913 23.083M276.404 430.614h27.872l-3.958 8.671v153.072c-1.196 12.503-8.967 23.083-23.914 23.083"/></g><path style="text-indent:0;text-align:start;line-height:normal;text-transform:none;block-progression:tb;marker:none;-inkscape-font-specification:Sans" d="M253.06 437.815a6.007 6.007 0 1 0 .594 12h45.5a6 6 0 1 0 0-12h-45.5a6 6 0 0 0-.594 0z" font-weight="400" color="#000" fill="#ccc" overflow="visible" font-family="Sans"/></g><path transform="matrix(-.83391 0 0 .83412 2215.825 356.628)" d="M2330.115 104.527a4.288 4.288 0 1 1-8.576 0 4.288 4.288 0 0 1 8.576 0z" fill="#fc0" fill-rule="evenodd" stroke="#000" stroke-width="1.199"/><path style="marker:none" d="M269.262 599.71a3.016 3.016 0 1 1-6.032 0 3.016 3.016 0 1 1 6.032 0zM279.42 583.686a3.016 3.016 0 1 1-6.032 0 3.016 3.016 0 1 1 6.033 0zM267.167 577.653a3.016 3.016 0 1 1-6.032 0 3.016 3.016 0 1 1 6.032 0zM265.282 564.269a3.016 3.016 0 1 1-6.032 0 3.016 3.016 0 1 1 6.032 0zM295.633 549.376a3.016 3.016 0 1 1-6.033 0 3.016 3.016 0 1 1 6.033 0zM282.437 564.08a3.016 3.016 0 1 1-6.033 0 3.016 3.016 0 1 1 6.033 0zM295.067 572.186a3.016 3.016 0 1 1-6.032 0 3.016 3.016 0 1 1 6.032 0zM276.404 548.434a3.016 3.016 0 1 1-6.032 0 3.016 3.016 0 1 1 6.032 0zM263.962 539.574a3.016 3.016 0 1 1-6.032 0 3.016 3.016 0 1 1 6.032 0zM287.338 592.734a3.016 3.016 0 1 1-6.032 0 3.016 3.016 0 1 1 6.032 0zM286.772 606.496a3.016 3.016 0 1 1-6.032 0 3.016 3.016 0 1 1 6.032 0zM296.387 585.194a3.016 3.016 0 1 1-6.033 0 3.016 3.016 0 1 1 6.033 0zM289.223 534.745a3.016 3.016 0 1 1-6.032 0 3.016 3.016 0 1 1 6.032 0z" color="#000" fill="#6f7c91" stroke="#535d6c" stroke-linecap="round" stroke-linejoin="round" overflow="visible"/><path d="M491.657 529.163H443.83v62.628c2.46 30.054 44.18 31.836 47.827 0z" fill="#afc6e9" stroke="#87aade"/><g stroke="gray"><g fill="none" stroke-width="2" stroke-linecap="round" stroke-linejoin="round"><path d="M467.744 430.048h27.872l-3.959 8.671v153.072c-1.196 12.503-8.966 23.083-23.913 23.083M467.744 430.048H439.87l3.96 8.671v153.072c1.195 12.503 8.966 23.083 23.913 23.083"/></g><path style="text-indent:0;text-align:start;line-height:normal;text-transform:none;block-progression:tb;marker:none;-inkscape-font-specification:Sans" d="M491.087 437.25a6.007 6.007 0 1 0-.593 12h-45.5a6 6 0 1 0 0-12h45.5a6 6 0 0 0 .593 0z" font-weight="400" color="#000" fill="#ccc" overflow="visible" font-family="Sans"/></g><path transform="matrix(.83391 0 0 .83412 -1471.677 356.062)" d="M2330.115 104.527a4.288 4.288 0 1 1-8.576 0 4.288 4.288 0 0 1 8.576 0z" fill="#fc0" fill-rule="evenodd" stroke="#000" stroke-width="1.199"/><path style="marker:none" d="M474.886 599.143a3.016 3.016 0 1 0 6.032 0 3.016 3.016 0 0 0-6.032 0zM464.727 583.12a3.016 3.016 0 1 0 6.033 0 3.016 3.016 0 0 0-6.033 0zM476.98 577.087a3.016 3.016 0 1 0 6.033 0 3.016 3.016 0 0 0-6.032 0zM478.866 563.703a3.016 3.016 0 1 0 6.032 0 3.016 3.016 0 0 0-6.032 0zM448.515 548.81a3.016 3.016 0 1 0 6.033 0 3.016 3.016 0 0 0-6.033 0zM461.711 563.515a3.016 3.016 0 1 0 6.033 0 3.016 3.016 0 0 0-6.033 0zM449.08 571.62a3.016 3.016 0 1 0 6.033 0 3.016 3.016 0 0 0-6.032 0zM467.744 547.868a3.016 3.016 0 1 0 6.032 0 3.016 3.016 0 0 0-6.032 0zM480.185 539.008a3.016 3.016 0 1 0 6.033 0 3.016 3.016 0 0 0-6.033 0zM456.81 592.168a3.016 3.016 0 1 0 6.032 0 3.016 3.016 0 0 0-6.032 0zM457.375 605.93a3.016 3.016 0 1 0 6.033 0 3.016 3.016 0 0 0-6.033 0zM447.761 584.628a3.016 3.016 0 1 0 6.033 0 3.016 3.016 0 0 0-6.033 0zM454.925 534.18a3.016 3.016 0 1 0 6.032 0 3.016 3.016 0 0 0-6.032 0z" color="#000" fill="#6f7c91" stroke="#535d6c" stroke-linecap="round" stroke-linejoin="round" overflow="visible"/><g opacity=".5"><path d="M555.974 434.671l-8.305 47.1 61.677 10.876c30.024 2.797 39.024-37.98 8.305-47.1z" fill="#afc6e9" stroke="#87aade"/><g stroke="gray"><g fill="none" stroke-width="2" stroke-linecap="round" stroke-linejoin="round"><path d="M454.212 441.01l4.84-27.449 7.852 5.405 150.747 26.58c12.105 3.35 21.175 12.839 18.58 27.559M454.212 441.01l-4.84 27.449 9.227-2.393 150.747 26.58c12.52.994 24.29-4.821 26.885-19.541"/></g><path style="text-indent:0;text-align:start;line-height:normal;text-transform:none;block-progression:tb;marker:none;-inkscape-font-specification:Sans" d="M465.358 419.271a6.007 6.007 0 1 0 11.715 2.669l-7.901 44.809a6 6 0 1 0-11.818-2.084l7.901-44.809a6 6 0 0 0 .103-.585z" font-weight="400" color="#000" fill="#ccc" overflow="visible" font-family="Sans"/></g><path transform="matrix(.1448 -.82124 .82144 .14484 44.573 2338.12)" d="M2330.115 104.527a4.288 4.288 0 1 1-8.576 0 4.288 4.288 0 0 1 8.576 0z" fill="#fc0" fill-rule="evenodd" stroke="#000" stroke-width="1.199"/></g><path d="M187.553 435.292l8.305 47.1-61.677 10.876c-30.024 2.797-39.024-37.98-8.305-47.1z" opacity=".5" fill="#afc6e9" stroke="#87aade"/><path d="M112.424 473.458a3.016 3.016 0 1 1-1.562-5.827 3.016 3.016 0 1 1 1.562 5.827z" style="marker:none" color="#000" fill="#6f7c91" stroke="#535d6c" stroke-linecap="round" stroke-linejoin="round" overflow="visible"/><g opacity=".5" stroke="gray"><g fill="none" stroke-width="2" stroke-linecap="round" stroke-linejoin="round"><path d="M289.315 441.631l-4.84-27.449-7.852 5.405-150.747 26.58c-12.105 3.35-21.175 12.839-18.58 27.559M289.315 441.631l4.84 27.449-9.227-2.393-150.747 26.58c-12.52.994-24.29-4.821-26.885-19.541"/></g><path style="text-indent:0;text-align:start;line-height:normal;text-transform:none;block-progression:tb;marker:none;-inkscape-font-specification:Sans" d="M278.169 419.892a6.007 6.007 0 1 0-11.715 2.669l7.901 44.809a6 6 0 1 0 11.818-2.084l-7.901-44.809a6 6 0 0 0-.103-.585z" font-weight="400" color="#000" fill="#ccc" overflow="visible" font-family="Sans"/></g><path transform="matrix(-.1448 -.82124 -.82144 .14484 698.954 2338.74)" d="M2330.115 104.527a4.288 4.288 0 1 1-8.576 0 4.288 4.288 0 1 1 8.576 0z" opacity=".5" fill="#fc0" fill-rule="evenodd" stroke="#000" stroke-width="1.199"/><path style="marker:none" d="M121.105 479.688a3.016 3.016 0 1 1-1.562-5.827 3.016 3.016 0 1 1 1.562 5.827zM113.392 466.48a3.016 3.016 0 1 1-1.561-5.827 3.016 3.016 0 1 1 1.56 5.827zM116.595 459.875a3.016 3.016 0 1 1-1.561-5.827 3.016 3.016 0 1 1 1.561 5.827zM118.853 472.33a3.016 3.016 0 1 1-1.561-5.827 3.016 3.016 0 1 1 1.561 5.827zM125.61 484.256a3.016 3.016 0 1 1-1.561-5.826 3.016 3.016 0 1 1 1.56 5.826zM125.37 470.045a3.016 3.016 0 1 1-1.562-5.827 3.016 3.016 0 1 1 1.562 5.827z" color="#000" fill="#6f7c91" stroke="#535d6c" stroke-linecap="round" stroke-linejoin="round" overflow="visible"/><path d="M121.983 459.475a3.016 3.016 0 1 1-1.561-5.827 3.016 3.016 0 1 1 1.56 5.827zM120.314 465.782a3.016 3.016 0 1 1-1.562-5.827 3.016 3.016 0 1 1 1.562 5.827zM124.593 490.432a3.016 3.016 0 1 1-1.561-5.827 3.016 3.016 0 1 1 1.561 5.827zM114.417 480.808a3.016 3.016 0 1 1-1.561-5.826 3.016 3.016 0 1 1 1.561 5.826zM118.572 486.852a3.016 3.016 0 1 1-1.561-5.826 3.016 3.016 0 1 1 1.561 5.826zM126.683 476.572a3.016 3.016 0 1 1-1.562-5.827 3.016 3.016 0 1 1 1.562 5.827zM631.103 472.837a3.016 3.016 0 1 1 1.562-5.827 3.016 3.016 0 1 1-1.562 5.827zM622.422 479.067a3.016 3.016 0 1 1 1.562-5.827 3.016 3.016 0 1 1-1.562 5.827zM630.135 465.859a3.016 3.016 0 1 1 1.561-5.827 3.016 3.016 0 1 1-1.56 5.827zM626.932 459.254a3.016 3.016 0 1 1 1.561-5.827 3.016 3.016 0 1 1-1.561 5.827zM624.674 471.708a3.016 3.016 0 1 1 1.561-5.826 3.016 3.016 0 1 1-1.561 5.826zM617.917 483.635a3.016 3.016 0 1 1 1.561-5.827 3.016 3.016 0 1 1-1.56 5.827zM618.157 469.424a3.016 3.016 0 1 1 1.561-5.827 3.016 3.016 0 1 1-1.56 5.827z" style="marker:none" color="#000" fill="#6f7c91" stroke="#535d6c" stroke-linecap="round" stroke-linejoin="round" overflow="visible"/><path style="marker:none" d="M621.544 458.854a3.016 3.016 0 1 1 1.561-5.827 3.016 3.016 0 1 1-1.56 5.827zM623.213 465.16a3.016 3.016 0 1 1 1.562-5.826 3.016 3.016 0 1 1-1.562 5.827zM618.934 489.81a3.016 3.016 0 1 1 1.561-5.826 3.016 3.016 0 1 1-1.561 5.827zM629.11 480.187a3.016 3.016 0 1 1 1.561-5.827 3.016 3.016 0 1 1-1.561 5.827zM624.955 486.231a3.016 3.016 0 1 1 1.561-5.827 3.016 3.016 0 1 1-1.561 5.827zM616.844 475.951a3.016 3.016 0 1 1 1.562-5.827 3.016 3.016 0 1 1-1.562 5.827z" color="#000" fill="#6f7c91" stroke="#535d6c" stroke-linecap="round" stroke-linejoin="round" overflow="visible"/></svg>