<?xml version="1.0" encoding="UTF-8" standalone="no"?>
<!-- Created with Inkscape (http://www.inkscape.org/) -->

<svg
   xmlns:ns0="http://www.iki.fi/pav/software/textext/"
   xmlns:dc="http://purl.org/dc/elements/1.1/"
   xmlns:cc="http://creativecommons.org/ns#"
   xmlns:rdf="http://www.w3.org/1999/02/22-rdf-syntax-ns#"
   xmlns:svg="http://www.w3.org/2000/svg"
   xmlns="http://www.w3.org/2000/svg"
   xmlns:xlink="http://www.w3.org/1999/xlink"
   xmlns:sodipodi="http://sodipodi.sourceforge.net/DTD/sodipodi-0.dtd"
   xmlns:inkscape="http://www.inkscape.org/namespaces/inkscape"
   width="210mm"
   height="297mm"
   id="svg9292"
   version="1.1"
   inkscape:version="0.48.3.1 r9886"
   sodipodi:docname="auge-kurzsichtigkeit.svg">
  <title
     id="title6229">Kurzsichtigkeit</title>
  <sodipodi:namedview
     id="base"
     pagecolor="#ffffff"
     bordercolor="#666666"
     borderopacity="1.0"
     inkscape:pageopacity="0.0"
     inkscape:pageshadow="2"
     inkscape:zoom="0.59132228"
     inkscape:cx="170.72637"
     inkscape:cy="497.18165"
     inkscape:document-units="px"
     inkscape:current-layer="layer1"
     showgrid="false"
     inkscape:object-paths="true"
     inkscape:snap-intersection-paths="false"
     inkscape:object-nodes="true"
     inkscape:snap-smooth-nodes="true"
     inkscape:snap-midpoints="true"
     inkscape:snap-object-midpoints="true"
     showguides="true"
     inkscape:guide-bbox="true"
     inkscape:snap-global="false"
     inkscape:window-width="1600"
     inkscape:window-height="1150"
     inkscape:window-x="0"
     inkscape:window-y="0"
     inkscape:window-maximized="1"
     inkscape:snap-bbox="false"
     inkscape:bbox-nodes="true"
     inkscape:snap-bbox-edge-midpoints="true">
    <sodipodi:guide
       orientation="0,1"
       position="24.724579,526.18109"
       id="guide17098" />
    <sodipodi:guide
       orientation="1,0"
       position="674.23733,643.14861"
       id="guide18808" />
    <sodipodi:guide
       orientation="1,0"
       position="535.80284,686.828"
       id="guide7002" />
    <sodipodi:guide
       orientation="1,0"
       position="691.41257,755.14099"
       id="guide7004" />
    <sodipodi:guide
       orientation="-0.077947853,-0.99695744"
       position="490.60651,384.37186"
       id="guide7618" />
    <sodipodi:guide
       orientation="0,1"
       position="542.08391,409.21358"
       id="guide7934" />
  </sodipodi:namedview>
  <defs
     id="defs9294">
    <inkscape:path-effect
       is_visible="true"
       id="path-effect7938"
       effect="spiro" />
    <inkscape:path-effect
       effect="spiro"
       id="path-effect7008"
       is_visible="true" />
    <inkscape:path-effect
       is_visible="true"
       id="path-effect18814"
       effect="spiro" />
    <inkscape:path-effect
       effect="spiro"
       id="path-effect18804"
       is_visible="true" />
    <inkscape:path-effect
       is_visible="true"
       id="path-effect18800"
       effect="spiro" />
    <inkscape:path-effect
       effect="spiro"
       id="path-effect18796"
       is_visible="true" />
    <inkscape:path-effect
       effect="spiro"
       id="path-effect17921"
       is_visible="true" />
    <marker
       inkscape:stockid="Arrow2Send"
       orient="auto"
       refY="0.0"
       refX="0.0"
       id="Arrow2Send"
       style="overflow:visible;">
      <path
         id="path4802"
         style="fill-rule:evenodd;stroke-width:0.62500000;stroke-linejoin:round;"
         d="M 8.7185878,4.0337352 L -2.2072895,0.016013256 L 8.7185884,-4.0017078 C 6.9730900,-1.6296469 6.9831476,1.6157441 8.7185878,4.0337352 z "
         transform="scale(0.3) rotate(180) translate(-2.3,0)" />
    </marker>
    <inkscape:path-effect
       effect="spiro"
       id="path-effect4565"
       is_visible="true" />
    <radialGradient
       inkscape:collect="always"
       xlink:href="#linearGradient35265-1"
       id="radialGradient5550"
       gradientUnits="userSpaceOnUse"
       gradientTransform="matrix(0.20149729,0,0,0.51060527,1968.4092,2303.5426)"
       cx="-7817.8047"
       cy="-2897.7612"
       fx="-7817.8047"
       fy="-2897.7612"
       r="29.799461" />
    <linearGradient
       id="linearGradient35265-1">
      <stop
         style="stop-color:#ff9955;stop-opacity:1;"
         offset="0"
         id="stop35267-9" />
      <stop
         style="stop-color:#fffb36;stop-opacity:1;"
         offset="1"
         id="stop35269-6" />
    </linearGradient>
    <inkscape:path-effect
       is_visible="true"
       id="path-effect25213"
       effect="spiro" />
    <inkscape:path-effect
       effect="spiro"
       id="path-effect32027"
       is_visible="true" />
    <marker
       style="overflow:visible"
       id="marker25763"
       refX="0"
       refY="0"
       orient="auto"
       inkscape:stockid="Arrow2Mend">
      <path
         inkscape:connector-curvature="0"
         transform="scale(-0.6,-0.6)"
         d="M 8.7185878,4.0337352 -2.2072895,0.01601326 8.7185884,-4.0017078 c -1.7454984,2.3720609 -1.7354408,5.6174519 -6e-7,8.035443 z"
         style="font-size:12px;fill-rule:evenodd;stroke-width:0.625;stroke-linejoin:round"
         id="path25765" />
    </marker>
    <inkscape:path-effect
       is_visible="true"
       id="path-effect10122"
       effect="spiro" />
  </defs>
  <metadata
     id="metadata9297">
    <rdf:RDF>
      <cc:Work
         rdf:about="">
        <dc:format>image/svg+xml</dc:format>
        <dc:type
           rdf:resource="http://purl.org/dc/dcmitype/StillImage" />
        <dc:title>Kurzsichtigkeit</dc:title>
        <dc:date>2014-02-07</dc:date>
        <dc:creator>
          <cc:Agent>
            <dc:title>Bernhard Grotz</dc:title>
          </cc:Agent>
        </dc:creator>
        <dc:rights>
          <cc:Agent>
            <dc:title>Bernhard Grotz</dc:title>
          </cc:Agent>
        </dc:rights>
        <dc:publisher>
          <cc:Agent>
            <dc:title>Bernhard Grotz</dc:title>
          </cc:Agent>
        </dc:publisher>
        <dc:language>de-DE</dc:language>
        <dc:subject>
          <rdf:Bag>
            <rdf:li>Physik</rdf:li>
            <rdf:li>Optik</rdf:li>
            <rdf:li>Optische Geraete</rdf:li>
            <rdf:li>Auge</rdf:li>
            <rdf:li>Sehfehler</rdf:li>
            <rdf:li>Kurzsichtigkeit</rdf:li>
          </rdf:Bag>
        </dc:subject>
        <cc:license
           rdf:resource="http://creativecommons.org/licenses/by-nc-sa/3.0/" />
      </cc:Work>
      <cc:License
         rdf:about="http://creativecommons.org/licenses/by-nc-sa/3.0/">
        <cc:permits
           rdf:resource="http://creativecommons.org/ns#Reproduction" />
        <cc:permits
           rdf:resource="http://creativecommons.org/ns#Distribution" />
        <cc:requires
           rdf:resource="http://creativecommons.org/ns#Notice" />
        <cc:requires
           rdf:resource="http://creativecommons.org/ns#Attribution" />
        <cc:prohibits
           rdf:resource="http://creativecommons.org/ns#CommercialUse" />
        <cc:permits
           rdf:resource="http://creativecommons.org/ns#DerivativeWorks" />
        <cc:requires
           rdf:resource="http://creativecommons.org/ns#ShareAlike" />
      </cc:License>
    </rdf:RDF>
  </metadata>
  <g
     inkscape:label="Ebene 1"
     inkscape:groupmode="layer"
     id="layer1">
    <rect
       style="color:#000000;fill:#ffffff;fill-opacity:1;fill-rule:nonzero;stroke:#ffffff;stroke-width:1.00000012;stroke-linecap:round;stroke-linejoin:round;stroke-miterlimit:4;stroke-opacity:1;stroke-dasharray:none;stroke-dashoffset:0;marker:none;visibility:visible;display:inline;overflow:visible;enable-background:accumulate"
       id="rect6221"
       width="717.40778"
       height="457.91989"
       x="13.343332"
       y="297.22119"
       inkscape:export-filename="/home/waldgeist/sandbox/homepage/pics/physik/optik/auge-kurzsichtigkeit.png"
       inkscape:export-xdpi="150"
       inkscape:export-ydpi="150" />
    <rect
       style="color:#000000;fill:#f9f9f9;fill-opacity:1;fill-rule:nonzero;stroke:#f9f9f9;stroke-width:0.42732137;stroke-linecap:round;stroke-linejoin:miter;stroke-miterlimit:4;stroke-opacity:1;stroke-dasharray:1.28196471, 2.56392945;stroke-dashoffset:0;marker:none;visibility:visible;display:inline;overflow:visible;enable-background:accumulate"
       id="rect4711"
       width="592.79175"
       height="183.50916"
       x="126.57813"
       y="312.85678"
       inkscape:export-filename="/home/waldgeist/sandbox/homepage/pics/physik/optik/auge-kurzsichtigkeit.png"
       inkscape:export-xdpi="150"
       inkscape:export-ydpi="150" />
    <g
       id="g7155"
       transform="matrix(1.2385947,0,0,1.1374291,339.25632,165.32713)"
       style="fill:#f2f2f2;fill-opacity:1;stroke:#808080;stroke-width:0.68800592"
       inkscape:export-filename="/home/waldgeist/sandbox/homepage/pics/physik/optik/auge-kurzsichtigkeit.png"
       inkscape:export-xdpi="150"
       inkscape:export-ydpi="150">
      <path
         transform="matrix(0.45459254,0,0,0.44136732,-43.640886,127.30982)"
         d="M 430.76606,119.86219 C 473.56813,45.726829 568.36464,20.326177 642.5,63.128243 716.63535,105.93031 742.03601,200.72682 699.23394,274.86218 656.43187,348.99754 561.63536,374.39819 487.5,331.59612 463.93702,317.99203 444.37015,298.42516 430.76606,274.86218"
         sodipodi:ry="155"
         sodipodi:rx="155"
         sodipodi:cy="197.36218"
         sodipodi:cx="565"
         id="path6059"
         style="fill:#f2f2f2;fill-opacity:1;stroke:#808080;stroke-width:3.76176906;stroke-linecap:round;stroke-linejoin:round;stroke-miterlimit:4;stroke-opacity:1;stroke-dasharray:none;stroke-dashoffset:0"
         sodipodi:type="arc"
         sodipodi:start="3.6651914"
         sodipodi:end="8.9011792"
         sodipodi:open="true" />
      <g
         id="g6053"
         transform="matrix(0.75924572,0,0,0.75924572,-64.432618,113.92362)"
         style="fill:#f2f2f2;fill-opacity:1;stroke:#808080;stroke-width:0.68800592">
        <path
           sodipodi:nodetypes="cc"
           inkscape:connector-curvature="0"
           id="path6055"
           d="m 294.73509,82.362185 c -19.38829,33.498715 -19.16505,66.838025 0,99.999995"
           style="fill:#ececec;fill-opacity:1;stroke:#808080;stroke-width:1.10966253;stroke-linecap:round;stroke-linejoin:miter;stroke-opacity:1" />
        <path
           style="fill:#ececec;fill-opacity:1;stroke:#808080;stroke-width:1.10966253;stroke-linecap:round;stroke-linejoin:miter;stroke-opacity:1"
           d="m 295.02081,82.362185 c 19.38829,33.498715 19.16505,66.838025 0,99.999995"
           id="path6057"
           inkscape:connector-curvature="0"
           sodipodi:nodetypes="cc" />
      </g>
    </g>
    <path
       sodipodi:open="true"
       sodipodi:end="7.8539816"
       sodipodi:start="4.712389"
       sodipodi:type="arc"
       style="fill:none;stroke:#808080;stroke-width:2.99464798;stroke-linecap:round;stroke-linejoin:round;stroke-miterlimit:4;stroke-opacity:1;stroke-dasharray:1.99643222, 5.98929667;stroke-dashoffset:0"
       id="path7886"
       sodipodi:cx="565"
       sodipodi:cy="197.36218"
       sodipodi:rx="155"
       sodipodi:ry="155"
       d="m 565,42.362183 a 155,155 0 0 1 10e-6,309.999997"
       transform="matrix(0.5018315,0,0,0.49995745,312.15566,310.54088)"
       inkscape:export-filename="/home/waldgeist/sandbox/homepage/pics/physik/optik/auge-kurzsichtigkeit.png"
       inkscape:export-xdpi="150"
       inkscape:export-ydpi="150" />
    <path
       sodipodi:nodetypes="ccc"
       style="fill:none;stroke:#ff6600;stroke-width:3;stroke-linecap:butt;stroke-linejoin:miter;stroke-opacity:1"
       d="m 172.37946,409.20788 363.59216,-26.74002 123.35814,24.10071"
       id="path7217"
       inkscape:connector-curvature="0"
       inkscape:export-filename="/home/waldgeist/sandbox/homepage/pics/physik/optik/auge-kurzsichtigkeit.png"
       inkscape:export-xdpi="150"
       inkscape:export-ydpi="150" />
    <path
       inkscape:connector-curvature="0"
       id="path7223"
       d="m 172.37946,409.21921 363.59216,26.74003 123.36261,-24.10158"
       style="fill:none;stroke:#ff6600;stroke-width:3;stroke-linecap:butt;stroke-linejoin:miter;stroke-opacity:1"
       sodipodi:nodetypes="ccc"
       inkscape:export-filename="/home/waldgeist/sandbox/homepage/pics/physik/optik/auge-kurzsichtigkeit.png"
       inkscape:export-xdpi="150"
       inkscape:export-ydpi="150" />
    <path
       style="fill:none;stroke:#000000;stroke-width:0.99999994;stroke-linecap:butt;stroke-linejoin:miter;stroke-miterlimit:4;stroke-opacity:1;stroke-dasharray:0.99999999, 0.99999999;stroke-dashoffset:0"
       d="m 659.32976,406.56857 13.53814,2.64497 -13.53367,2.64412"
       id="path7745"
       inkscape:connector-curvature="0"
       inkscape:export-filename="/home/waldgeist/sandbox/homepage/pics/physik/optik/auge-kurzsichtigkeit.png"
       inkscape:export-xdpi="150"
       inkscape:export-ydpi="150" />
    <path
       sodipodi:nodetypes="cc"
       style="fill:none;stroke:#d40000;stroke-width:3;stroke-linecap:round;stroke-linejoin:miter;stroke-miterlimit:4;stroke-opacity:1;stroke-dasharray:none;stroke-dashoffset:0;marker-start:none;marker-mid:none;marker-end:url(#Arrow2Send)"
       d="m 535.97159,382.46785 150.52667,29.5311"
       id="path10120"
       inkscape:path-effect="#path-effect10122"
       inkscape:original-d="m 535.97159,382.46785 150.52667,29.5311"
       inkscape:connector-curvature="0"
       inkscape:export-filename="/home/waldgeist/sandbox/homepage/pics/physik/optik/auge-kurzsichtigkeit.png"
       inkscape:export-xdpi="150"
       inkscape:export-ydpi="150" />
    <path
       inkscape:export-ydpi="150"
       inkscape:export-xdpi="150"
       inkscape:export-filename="/home/waldgeist/sandbox/homepage/pics/physik/optik/auge-kurzsichtigkeit.png"
       inkscape:connector-curvature="0"
       inkscape:original-d="M 535.97163,435.95921 686.43885,406.44077"
       inkscape:path-effect="#path-effect17921"
       id="path17919"
       d="M 535.97163,435.95921 686.43885,406.44077"
       style="fill:none;stroke:#d40000;stroke-width:2.99999976;stroke-linecap:round;stroke-linejoin:miter;stroke-miterlimit:4;stroke-opacity:1;stroke-dasharray:none;stroke-dashoffset:0;marker-start:none;marker-mid:none;marker-end:url(#Arrow2Send)"
       sodipodi:nodetypes="cc" />
    <g
       ns0:text="Ohne \\\\Sehhilfe:"
       ns0:preamble="/home/waldgeist/data/sphinx/inkscape-preamble.tex"
       transform="matrix(2.3041079,0,0,2.3041079,-489.78731,88.173803)"
       id="g5230"
       inkscape:export-filename="/home/waldgeist/sandbox/homepage/pics/physik/optik/auge-kurzsichtigkeit.png"
       inkscape:export-xdpi="150"
       inkscape:export-ydpi="150">
      <defs
         id="defs5232">
        <g
           id="g5234">
          <symbol
             overflow="visible"
             id="textext-7edf8936-0"
             style="overflow:visible">
            <path
               style="stroke:none"
               d=""
               id="path5237"
               inkscape:connector-curvature="0" />
          </symbol>
          <symbol
             overflow="visible"
             id="textext-7edf8936-1"
             style="overflow:visible">
            <path
               style="stroke:none"
               d="m 7.1875,-3.375 c 0,-2.03125 -1.5,-3.65625 -3.3125,-3.65625 -1.796875,0 -3.3125,1.59375 -3.3125,3.65625 0,2.046875 1.53125,3.59375 3.3125,3.59375 1.8125,0 3.3125,-1.578125 3.3125,-3.59375 z M 3.875,-0.046875 c -0.953125,0 -2.296875,-0.875 -2.296875,-3.46875 0,-2.578125 1.46875,-3.265625 2.296875,-3.265625 0.859375,0 2.28125,0.703125 2.28125,3.265625 0,2.640625 -1.359375,3.46875 -2.28125,3.46875 z"
               id="path5240"
               inkscape:connector-curvature="0" />
          </symbol>
          <symbol
             overflow="visible"
             id="textext-7edf8936-2"
             style="overflow:visible">
            <path
               style="stroke:none"
               d="m 1.09375,-0.75 c 0,0.4375 -0.109375,0.4375 -0.78125,0.4375 l 0,0.3125 c 0.359375,-0.015625 0.859375,-0.03125 1.140625,-0.03125 0.25,0 0.765625,0.015625 1.109375,0.03125 l 0,-0.3125 c -0.671875,0 -0.78125,0 -0.78125,-0.4375 l 0,-1.84375 C 1.78125,-3.625 2.5,-4.1875 3.125,-4.1875 c 0.640625,0 0.75,0.53125 0.75,1.109375 l 0,2.328125 c 0,0.4375 -0.109375,0.4375 -0.78125,0.4375 l 0,0.3125 c 0.34375,-0.015625 0.859375,-0.03125 1.125,-0.03125 0.25,0 0.78125,0.015625 1.109375,0.03125 l 0,-0.3125 c -0.515625,0 -0.765625,0 -0.765625,-0.296875 l 0,-1.90625 c 0,-0.859375 0,-1.15625 -0.3125,-1.515625 -0.140625,-0.171875 -0.46875,-0.375 -1.046875,-0.375 -0.84375,0 -1.28125,0.59375 -1.453125,0.984375 l 0,-3.5 -1.4375,0.109375 0,0.3125 c 0.703125,0 0.78125,0.0625 0.78125,0.5625 z"
               id="path5243"
               inkscape:connector-curvature="0" />
          </symbol>
          <symbol
             overflow="visible"
             id="textext-7edf8936-3"
             style="overflow:visible">
            <path
               style="stroke:none"
               d="m 1.09375,-3.421875 0,2.671875 c 0,0.4375 -0.109375,0.4375 -0.78125,0.4375 l 0,0.3125 c 0.359375,-0.015625 0.859375,-0.03125 1.140625,-0.03125 0.25,0 0.765625,0.015625 1.109375,0.03125 l 0,-0.3125 c -0.671875,0 -0.78125,0 -0.78125,-0.4375 l 0,-1.84375 C 1.78125,-3.625 2.5,-4.1875 3.125,-4.1875 c 0.640625,0 0.75,0.53125 0.75,1.109375 l 0,2.328125 c 0,0.4375 -0.109375,0.4375 -0.78125,0.4375 l 0,0.3125 c 0.34375,-0.015625 0.859375,-0.03125 1.125,-0.03125 0.25,0 0.78125,0.015625 1.109375,0.03125 l 0,-0.3125 c -0.515625,0 -0.765625,0 -0.765625,-0.296875 l 0,-1.90625 c 0,-0.859375 0,-1.15625 -0.3125,-1.515625 -0.140625,-0.171875 -0.46875,-0.375 -1.046875,-0.375 C 2.46875,-4.40625 2,-3.984375 1.71875,-3.359375 l 0,-1.046875 -1.40625,0.109375 0,0.3125 c 0.703125,0 0.78125,0.0625 0.78125,0.5625 z"
               id="path5246"
               inkscape:connector-curvature="0" />
          </symbol>
          <symbol
             overflow="visible"
             id="textext-7edf8936-4"
             style="overflow:visible">
            <path
               style="stroke:none"
               d="M 1.109375,-2.515625 C 1.171875,-4 2.015625,-4.25 2.359375,-4.25 c 1.015625,0 1.125,1.34375 1.125,1.734375 z m 0,0.21875 2.78125,0 c 0.21875,0 0.25,0 0.25,-0.21875 0,-0.984375 -0.546875,-1.953125 -1.78125,-1.953125 -1.15625,0 -2.078125,1.03125 -2.078125,2.28125 0,1.328125 1.046875,2.296875 2.1875,2.296875 C 3.6875,0.109375 4.140625,-1 4.140625,-1.1875 4.140625,-1.28125 4.0625,-1.3125 4,-1.3125 c -0.078125,0 -0.109375,0.0625 -0.125,0.140625 -0.34375,1.03125 -1.25,1.03125 -1.34375,1.03125 -0.5,0 -0.890625,-0.296875 -1.125,-0.671875 -0.296875,-0.46875 -0.296875,-1.125 -0.296875,-1.484375 z"
               id="path5249"
               inkscape:connector-curvature="0" />
          </symbol>
          <symbol
             overflow="visible"
             id="textext-7edf8936-5"
             style="overflow:visible">
            <path
               style="stroke:none"
               d="m 3.484375,-3.875 -1.28125,-0.296875 c -0.625,-0.15625 -1,-0.6875 -1,-1.265625 0,-0.703125 0.53125,-1.3125 1.3125,-1.3125 1.65625,0 1.875,1.640625 1.9375,2.078125 0.015625,0.0625 0.015625,0.125 0.125,0.125 0.125,0 0.125,-0.046875 0.125,-0.234375 l 0,-2 c 0,-0.171875 0,-0.25 -0.109375,-0.25 -0.0625,0 -0.078125,0.015625 -0.140625,0.140625 l -0.359375,0.5625 C 3.796875,-6.625 3.390625,-7.03125 2.5,-7.03125 c -1.109375,0 -1.9375,0.875 -1.9375,1.9375 0,0.828125 0.53125,1.5625 1.296875,1.828125 0.109375,0.03125 0.625,0.15625 1.328125,0.328125 0.265625,0.0625 0.5625,0.140625 0.84375,0.5 0.203125,0.265625 0.3125,0.59375 0.3125,0.921875 0,0.703125 -0.5,1.421875 -1.34375,1.421875 -0.28125,0 -1.046875,-0.046875 -1.578125,-0.53125 C 0.84375,-1.171875 0.8125,-1.796875 0.8125,-2.15625 0.796875,-2.265625 0.71875,-2.265625 0.6875,-2.265625 c -0.125,0 -0.125,0.078125 -0.125,0.25 l 0,2 c 0,0.171875 0,0.234375 0.109375,0.234375 0.0625,0 0.078125,-0.015625 0.140625,-0.125 0,-0.015625 0.03125,-0.046875 0.359375,-0.578125 0.3125,0.34375 0.953125,0.703125 1.84375,0.703125 1.15625,0 1.953125,-0.96875 1.953125,-2.078125 0,-0.984375 -0.65625,-1.8125 -1.484375,-2.015625 z"
               id="path5252"
               inkscape:connector-curvature="0" />
          </symbol>
          <symbol
             overflow="visible"
             id="textext-7edf8936-6"
             style="overflow:visible">
            <path
               style="stroke:none"
               d="M 1.765625,-4.40625 0.375,-4.296875 l 0,0.3125 c 0.640625,0 0.734375,0.0625 0.734375,0.546875 l 0,2.6875 c 0,0.4375 -0.109375,0.4375 -0.78125,0.4375 l 0,0.3125 C 0.640625,-0.015625 1.1875,-0.03125 1.421875,-0.03125 1.78125,-0.03125 2.125,-0.015625 2.46875,0 l 0,-0.3125 c -0.671875,0 -0.703125,-0.046875 -0.703125,-0.4375 z m 0.03125,-1.734375 c 0,-0.3125 -0.234375,-0.53125 -0.515625,-0.53125 -0.3125,0 -0.53125,0.265625 -0.53125,0.53125 0,0.265625 0.21875,0.53125 0.53125,0.53125 0.28125,0 0.515625,-0.21875 0.515625,-0.53125 z"
               id="path5255"
               inkscape:connector-curvature="0" />
          </symbol>
          <symbol
             overflow="visible"
             id="textext-7edf8936-7"
             style="overflow:visible">
            <path
               style="stroke:none"
               d="m 1.765625,-6.921875 -1.4375,0.109375 0,0.3125 c 0.703125,0 0.78125,0.0625 0.78125,0.5625 l 0,5.1875 c 0,0.4375 -0.109375,0.4375 -0.78125,0.4375 l 0,0.3125 C 0.65625,-0.015625 1.1875,-0.03125 1.4375,-0.03125 c 0.25,0 0.734375,0.015625 1.109375,0.03125 l 0,-0.3125 c -0.671875,0 -0.78125,0 -0.78125,-0.4375 z"
               id="path5258"
               inkscape:connector-curvature="0" />
          </symbol>
          <symbol
             overflow="visible"
             id="textext-7edf8936-8"
             style="overflow:visible">
            <path
               style="stroke:none"
               d="m 1.75,-4.296875 0,-1.15625 c 0,-0.875 0.46875,-1.359375 0.90625,-1.359375 0.03125,0 0.1875,0 0.328125,0.078125 C 2.875,-6.703125 2.6875,-6.5625 2.6875,-6.3125 c 0,0.21875 0.15625,0.421875 0.4375,0.421875 0.28125,0 0.4375,-0.203125 0.4375,-0.4375 0,-0.375 -0.375,-0.703125 -0.90625,-0.703125 -0.6875,0 -1.546875,0.53125 -1.546875,1.59375 l 0,1.140625 -0.78125,0 0,0.3125 0.78125,0 0,3.234375 c 0,0.4375 -0.109375,0.4375 -0.765625,0.4375 l 0,0.3125 c 0.390625,-0.015625 0.859375,-0.03125 1.125,-0.03125 0.40625,0 0.875,0 1.265625,0.03125 l 0,-0.3125 -0.203125,0 c -0.734375,0 -0.75,-0.109375 -0.75,-0.46875 l 0,-3.203125 1.125,0 0,-0.3125 z"
               id="path5261"
               inkscape:connector-curvature="0" />
          </symbol>
          <symbol
             overflow="visible"
             id="textext-7edf8936-9"
             style="overflow:visible">
            <path
               style="stroke:none"
               d="m 1.90625,-3.765625 c 0,-0.296875 -0.234375,-0.53125 -0.515625,-0.53125 -0.296875,0 -0.53125,0.234375 -0.53125,0.53125 0,0.28125 0.234375,0.53125 0.53125,0.53125 0.28125,0 0.515625,-0.25 0.515625,-0.53125 z m 0,3.234375 c 0,-0.28125 -0.234375,-0.53125 -0.515625,-0.53125 -0.296875,0 -0.53125,0.25 -0.53125,0.53125 C 0.859375,-0.234375 1.09375,0 1.390625,0 1.671875,0 1.90625,-0.234375 1.90625,-0.53125 z"
               id="path5264"
               inkscape:connector-curvature="0" />
          </symbol>
        </g>
      </defs>
      <g
         id="textext-7edf8936-10">
        <g
           style="fill:#000000;fill-opacity:1"
           id="g5267">
          <use
             xlink:href="#textext-7edf8936-1"
             x="223.43201"
             y="134.765"
             id="use5269"
             width="744.09448"
             height="1052.3622" />
          <use
             xlink:href="#textext-7edf8936-2"
             x="231.18091"
             y="134.765"
             id="use5271"
             width="744.09448"
             height="1052.3622" />
          <use
             xlink:href="#textext-7edf8936-3"
             x="236.71613"
             y="134.765"
             id="use5273"
             width="744.09448"
             height="1052.3622" />
          <use
             xlink:href="#textext-7edf8936-4"
             x="242.25136"
             y="134.765"
             id="use5275"
             width="744.09448"
             height="1052.3622" />
        </g>
        <g
           style="fill:#000000;fill-opacity:1"
           id="g5277">
          <use
             xlink:href="#textext-7edf8936-5"
             x="223.43201"
             y="146.72"
             id="use5279"
             width="744.09448"
             height="1052.3622" />
          <use
             xlink:href="#textext-7edf8936-4"
             x="228.96722"
             y="146.72"
             id="use5281"
             width="744.09448"
             height="1052.3622" />
          <use
             xlink:href="#textext-7edf8936-2"
             x="233.39461"
             y="146.72"
             id="use5283"
             width="744.09448"
             height="1052.3622" />
          <use
             xlink:href="#textext-7edf8936-2"
             x="238.92982"
             y="146.72"
             id="use5285"
             width="744.09448"
             height="1052.3622" />
          <use
             xlink:href="#textext-7edf8936-6"
             x="244.46504"
             y="146.72"
             id="use5287"
             width="744.09448"
             height="1052.3622" />
          <use
             xlink:href="#textext-7edf8936-7"
             x="247.23265"
             y="146.72"
             id="use5289"
             width="744.09448"
             height="1052.3622" />
          <use
             xlink:href="#textext-7edf8936-8"
             x="250.00026"
             y="146.72"
             id="use5291"
             width="744.09448"
             height="1052.3622" />
          <use
             xlink:href="#textext-7edf8936-4"
             x="253.04483"
             y="146.72"
             id="use5293"
             width="744.09448"
             height="1052.3622" />
          <use
             xlink:href="#textext-7edf8936-9"
             x="257.4722"
             y="146.72"
             id="use5295"
             width="744.09448"
             height="1052.3622" />
        </g>
      </g>
    </g>
    <rect
       inkscape:export-ydpi="150"
       inkscape:export-xdpi="150"
       inkscape:export-filename="/home/waldgeist/sandbox/homepage/pics/physik/optik/auge-kurzsichtigkeit.png"
       y="555.99628"
       x="126.57813"
       height="183.50916"
       width="592.79175"
       id="rect18792"
       style="color:#000000;fill:#f9f9f9;fill-opacity:1;fill-rule:nonzero;stroke:#f9f9f9;stroke-width:0.42732137;stroke-linecap:round;stroke-linejoin:miter;stroke-miterlimit:4;stroke-opacity:1;stroke-dasharray:1.28196471, 2.56392945;stroke-dashoffset:0;marker:none;visibility:visible;display:inline;overflow:visible;enable-background:accumulate" />
    <path
       transform="matrix(0.5623488,0,0,0.5192491,285.6605,540.66848)"
       d="m 430.76606,119.86219 a 155,155 0 1 1 0,154.99999"
       sodipodi:ry="155"
       sodipodi:rx="155"
       sodipodi:cy="197.36218"
       sodipodi:cx="565"
       id="path7755"
       style="fill:#f2f2f2;fill-opacity:1;stroke:#808080;stroke-width:3.70117283;stroke-linecap:round;stroke-linejoin:round;stroke-miterlimit:4;stroke-opacity:1;stroke-dasharray:none;stroke-dashoffset:0"
       sodipodi:type="arc"
       sodipodi:start="3.6651914"
       sodipodi:end="8.9011792"
       sodipodi:open="true"
       inkscape:export-filename="/home/waldgeist/sandbox/homepage/pics/physik/optik/auge-kurzsichtigkeit.png"
       inkscape:export-xdpi="150"
       inkscape:export-ydpi="150" />
    <path
       transform="matrix(0.50183155,0,0,0.50202401,311.72927,544.06806)"
       d="m 565,42.362183 a 155,155 0 0 1 10e-6,309.999997"
       sodipodi:ry="155"
       sodipodi:rx="155"
       sodipodi:cy="197.36218"
       sodipodi:cx="565"
       id="path7908"
       style="fill:none;stroke:#808080;stroke-width:2.98847795;stroke-linecap:round;stroke-linejoin:round;stroke-miterlimit:4;stroke-opacity:1;stroke-dasharray:2.98847787, 5.97695574;stroke-dashoffset:0"
       sodipodi:type="arc"
       sodipodi:start="4.712389"
       sodipodi:end="7.8539816"
       sodipodi:open="true"
       inkscape:export-filename="/home/waldgeist/sandbox/homepage/pics/physik/optik/auge-kurzsichtigkeit.png"
       inkscape:export-xdpi="150"
       inkscape:export-ydpi="150" />
    <g
       id="g7749"
       transform="matrix(0.78656229,0,0,0.86358808,304.34576,528.8422)"
       style="fill:#ececec;fill-opacity:1;stroke:#808080;stroke-width:0.75228333;stroke-opacity:1"
       inkscape:export-filename="/home/waldgeist/sandbox/homepage/pics/physik/optik/auge-kurzsichtigkeit.png"
       inkscape:export-xdpi="150"
       inkscape:export-ydpi="150">
      <path
         sodipodi:nodetypes="cc"
         inkscape:connector-curvature="0"
         id="path7751"
         d="m 294.73509,82.362185 c -19.38829,33.498715 -19.16505,66.838025 0,99.999995"
         style="fill:#ececec;fill-opacity:1;stroke:#808080;stroke-width:1.21333337;stroke-linecap:round;stroke-linejoin:miter;stroke-opacity:1" />
      <path
         style="fill:#ececec;fill-opacity:1;stroke:#808080;stroke-width:1.21333337;stroke-linecap:round;stroke-linejoin:miter;stroke-opacity:1"
         d="m 295.02081,82.362185 c 19.38829,33.498715 19.16505,66.838025 0,99.999995"
         id="path7753"
         inkscape:connector-curvature="0"
         sodipodi:nodetypes="cc" />
    </g>
    <g
       id="g5705"
       transform="matrix(2.3041079,0,0,2.3041079,-489.3313,331.06129)"
       ns0:preamble="/home/waldgeist/data/sphinx/inkscape-preamble.tex"
       ns0:text="Mit \\\\Sehhilfe:"
       inkscape:export-filename="/home/waldgeist/sandbox/homepage/pics/physik/optik/auge-kurzsichtigkeit.png"
       inkscape:export-xdpi="150"
       inkscape:export-ydpi="150">
      <defs
         id="defs5707">
        <g
           id="g5709">
          <symbol
             id="textext-479d42cf-0"
             overflow="visible"
             style="overflow:visible">
            <path
               id="path5712"
               d=""
               style="stroke:none"
               inkscape:connector-curvature="0" />
          </symbol>
          <symbol
             id="textext-479d42cf-1"
             overflow="visible"
             style="overflow:visible">
            <path
               id="path5715"
               d="M 2.40625,-6.59375 C 2.3125,-6.8125 2.28125,-6.8125 2.046875,-6.8125 l -1.671875,0 0,0.3125 0.234375,0 c 0.765625,0 0.78125,0.109375 0.78125,0.46875 l 0,4.984375 c 0,0.265625 0,0.734375 -1.015625,0.734375 L 0.375,0 c 0.34375,-0.015625 0.828125,-0.03125 1.15625,-0.03125 0.328125,0 0.828125,0.015625 1.171875,0.03125 l 0,-0.3125 c -1.03125,0 -1.03125,-0.46875 -1.03125,-0.734375 l 0,-5.375 0.015625,0 2.40625,6.203125 C 4.140625,-0.09375 4.1875,0 4.28125,0 4.390625,0 4.421875,-0.078125 4.46875,-0.1875 L 6.921875,-6.5 l 0,5.71875 c 0,0.359375 -0.015625,0.46875 -0.78125,0.46875 l -0.234375,0 0,0.3125 c 0.359375,-0.03125 1.046875,-0.03125 1.4375,-0.03125 0.375,0 1.046875,0 1.421875,0.03125 l 0,-0.3125 -0.25,0 c -0.765625,0 -0.78125,-0.109375 -0.78125,-0.46875 l 0,-5.25 C 7.734375,-6.390625 7.75,-6.5 8.515625,-6.5 l 0.25,0 0,-0.3125 -1.6875,0 C 6.8125,-6.8125 6.8125,-6.796875 6.75,-6.625 L 4.5625,-1 z"
               style="stroke:none"
               inkscape:connector-curvature="0" />
          </symbol>
          <symbol
             id="textext-479d42cf-2"
             overflow="visible"
             style="overflow:visible">
            <path
               id="path5718"
               d="M 1.765625,-4.40625 0.375,-4.296875 l 0,0.3125 c 0.640625,0 0.734375,0.0625 0.734375,0.546875 l 0,2.6875 c 0,0.4375 -0.109375,0.4375 -0.78125,0.4375 l 0,0.3125 C 0.640625,-0.015625 1.1875,-0.03125 1.421875,-0.03125 1.78125,-0.03125 2.125,-0.015625 2.46875,0 l 0,-0.3125 c -0.671875,0 -0.703125,-0.046875 -0.703125,-0.4375 z m 0.03125,-1.734375 c 0,-0.3125 -0.234375,-0.53125 -0.515625,-0.53125 -0.3125,0 -0.53125,0.265625 -0.53125,0.53125 0,0.265625 0.21875,0.53125 0.53125,0.53125 0.28125,0 0.515625,-0.21875 0.515625,-0.53125 z"
               style="stroke:none"
               inkscape:connector-curvature="0" />
          </symbol>
          <symbol
             id="textext-479d42cf-3"
             overflow="visible"
             style="overflow:visible">
            <path
               id="path5721"
               d="m 1.71875,-3.984375 1.4375,0 0,-0.3125 -1.4375,0 0,-1.828125 -0.25,0 c 0,0.8125 -0.296875,1.875 -1.28125,1.921875 l 0,0.21875 0.84375,0 0,2.75 c 0,1.21875 0.9375,1.34375 1.296875,1.34375 0.703125,0 0.984375,-0.703125 0.984375,-1.34375 l 0,-0.5625 -0.25,0 0,0.546875 c 0,0.734375 -0.296875,1.109375 -0.671875,1.109375 -0.671875,0 -0.671875,-0.90625 -0.671875,-1.078125 z"
               style="stroke:none"
               inkscape:connector-curvature="0" />
          </symbol>
          <symbol
             id="textext-479d42cf-4"
             overflow="visible"
             style="overflow:visible">
            <path
               id="path5724"
               d="m 3.484375,-3.875 -1.28125,-0.296875 c -0.625,-0.15625 -1,-0.6875 -1,-1.265625 0,-0.703125 0.53125,-1.3125 1.3125,-1.3125 1.65625,0 1.875,1.640625 1.9375,2.078125 0.015625,0.0625 0.015625,0.125 0.125,0.125 0.125,0 0.125,-0.046875 0.125,-0.234375 l 0,-2 c 0,-0.171875 0,-0.25 -0.109375,-0.25 -0.0625,0 -0.078125,0.015625 -0.140625,0.140625 l -0.359375,0.5625 C 3.796875,-6.625 3.390625,-7.03125 2.5,-7.03125 c -1.109375,0 -1.9375,0.875 -1.9375,1.9375 0,0.828125 0.53125,1.5625 1.296875,1.828125 0.109375,0.03125 0.625,0.15625 1.328125,0.328125 0.265625,0.0625 0.5625,0.140625 0.84375,0.5 0.203125,0.265625 0.3125,0.59375 0.3125,0.921875 0,0.703125 -0.5,1.421875 -1.34375,1.421875 -0.28125,0 -1.046875,-0.046875 -1.578125,-0.53125 C 0.84375,-1.171875 0.8125,-1.796875 0.8125,-2.15625 0.796875,-2.265625 0.71875,-2.265625 0.6875,-2.265625 c -0.125,0 -0.125,0.078125 -0.125,0.25 l 0,2 c 0,0.171875 0,0.234375 0.109375,0.234375 0.0625,0 0.078125,-0.015625 0.140625,-0.125 0,-0.015625 0.03125,-0.046875 0.359375,-0.578125 0.3125,0.34375 0.953125,0.703125 1.84375,0.703125 1.15625,0 1.953125,-0.96875 1.953125,-2.078125 0,-0.984375 -0.65625,-1.8125 -1.484375,-2.015625 z"
               style="stroke:none"
               inkscape:connector-curvature="0" />
          </symbol>
          <symbol
             id="textext-479d42cf-5"
             overflow="visible"
             style="overflow:visible">
            <path
               id="path5727"
               d="M 1.109375,-2.515625 C 1.171875,-4 2.015625,-4.25 2.359375,-4.25 c 1.015625,0 1.125,1.34375 1.125,1.734375 z m 0,0.21875 2.78125,0 c 0.21875,0 0.25,0 0.25,-0.21875 0,-0.984375 -0.546875,-1.953125 -1.78125,-1.953125 -1.15625,0 -2.078125,1.03125 -2.078125,2.28125 0,1.328125 1.046875,2.296875 2.1875,2.296875 C 3.6875,0.109375 4.140625,-1 4.140625,-1.1875 4.140625,-1.28125 4.0625,-1.3125 4,-1.3125 c -0.078125,0 -0.109375,0.0625 -0.125,0.140625 -0.34375,1.03125 -1.25,1.03125 -1.34375,1.03125 -0.5,0 -0.890625,-0.296875 -1.125,-0.671875 -0.296875,-0.46875 -0.296875,-1.125 -0.296875,-1.484375 z"
               style="stroke:none"
               inkscape:connector-curvature="0" />
          </symbol>
          <symbol
             id="textext-479d42cf-6"
             overflow="visible"
             style="overflow:visible">
            <path
               id="path5730"
               d="m 1.09375,-0.75 c 0,0.4375 -0.109375,0.4375 -0.78125,0.4375 l 0,0.3125 c 0.359375,-0.015625 0.859375,-0.03125 1.140625,-0.03125 0.25,0 0.765625,0.015625 1.109375,0.03125 l 0,-0.3125 c -0.671875,0 -0.78125,0 -0.78125,-0.4375 l 0,-1.84375 C 1.78125,-3.625 2.5,-4.1875 3.125,-4.1875 c 0.640625,0 0.75,0.53125 0.75,1.109375 l 0,2.328125 c 0,0.4375 -0.109375,0.4375 -0.78125,0.4375 l 0,0.3125 c 0.34375,-0.015625 0.859375,-0.03125 1.125,-0.03125 0.25,0 0.78125,0.015625 1.109375,0.03125 l 0,-0.3125 c -0.515625,0 -0.765625,0 -0.765625,-0.296875 l 0,-1.90625 c 0,-0.859375 0,-1.15625 -0.3125,-1.515625 -0.140625,-0.171875 -0.46875,-0.375 -1.046875,-0.375 -0.84375,0 -1.28125,0.59375 -1.453125,0.984375 l 0,-3.5 -1.4375,0.109375 0,0.3125 c 0.703125,0 0.78125,0.0625 0.78125,0.5625 z"
               style="stroke:none"
               inkscape:connector-curvature="0" />
          </symbol>
          <symbol
             id="textext-479d42cf-7"
             overflow="visible"
             style="overflow:visible">
            <path
               id="path5733"
               d="m 1.765625,-6.921875 -1.4375,0.109375 0,0.3125 c 0.703125,0 0.78125,0.0625 0.78125,0.5625 l 0,5.1875 c 0,0.4375 -0.109375,0.4375 -0.78125,0.4375 l 0,0.3125 C 0.65625,-0.015625 1.1875,-0.03125 1.4375,-0.03125 c 0.25,0 0.734375,0.015625 1.109375,0.03125 l 0,-0.3125 c -0.671875,0 -0.78125,0 -0.78125,-0.4375 z"
               style="stroke:none"
               inkscape:connector-curvature="0" />
          </symbol>
          <symbol
             id="textext-479d42cf-8"
             overflow="visible"
             style="overflow:visible">
            <path
               id="path5736"
               d="m 1.75,-4.296875 0,-1.15625 c 0,-0.875 0.46875,-1.359375 0.90625,-1.359375 0.03125,0 0.1875,0 0.328125,0.078125 C 2.875,-6.703125 2.6875,-6.5625 2.6875,-6.3125 c 0,0.21875 0.15625,0.421875 0.4375,0.421875 0.28125,0 0.4375,-0.203125 0.4375,-0.4375 0,-0.375 -0.375,-0.703125 -0.90625,-0.703125 -0.6875,0 -1.546875,0.53125 -1.546875,1.59375 l 0,1.140625 -0.78125,0 0,0.3125 0.78125,0 0,3.234375 c 0,0.4375 -0.109375,0.4375 -0.765625,0.4375 l 0,0.3125 c 0.390625,-0.015625 0.859375,-0.03125 1.125,-0.03125 0.40625,0 0.875,0 1.265625,0.03125 l 0,-0.3125 -0.203125,0 c -0.734375,0 -0.75,-0.109375 -0.75,-0.46875 l 0,-3.203125 1.125,0 0,-0.3125 z"
               style="stroke:none"
               inkscape:connector-curvature="0" />
          </symbol>
          <symbol
             id="textext-479d42cf-9"
             overflow="visible"
             style="overflow:visible">
            <path
               id="path5739"
               d="m 1.90625,-3.765625 c 0,-0.296875 -0.234375,-0.53125 -0.515625,-0.53125 -0.296875,0 -0.53125,0.234375 -0.53125,0.53125 0,0.28125 0.234375,0.53125 0.53125,0.53125 0.28125,0 0.515625,-0.25 0.515625,-0.53125 z m 0,3.234375 c 0,-0.28125 -0.234375,-0.53125 -0.515625,-0.53125 -0.296875,0 -0.53125,0.25 -0.53125,0.53125 C 0.859375,-0.234375 1.09375,0 1.390625,0 1.671875,0 1.90625,-0.234375 1.90625,-0.53125 z"
               style="stroke:none"
               inkscape:connector-curvature="0" />
          </symbol>
        </g>
      </defs>
      <g
         id="textext-479d42cf-10">
        <g
           id="g5742"
           style="fill:#000000;fill-opacity:1">
          <use
             id="use5744"
             y="134.765"
             x="223.43201"
             xlink:href="#textext-479d42cf-1"
             width="744.09448"
             height="1052.3622" />
          <use
             id="use5746"
             y="134.765"
             x="232.56471"
             xlink:href="#textext-479d42cf-2"
             width="744.09448"
             height="1052.3622" />
          <use
             id="use5748"
             y="134.765"
             x="235.33232"
             xlink:href="#textext-479d42cf-3"
             width="744.09448"
             height="1052.3622" />
        </g>
        <g
           id="g5750"
           style="fill:#000000;fill-opacity:1">
          <use
             id="use5752"
             y="146.72"
             x="223.43201"
             xlink:href="#textext-479d42cf-4"
             width="744.09448"
             height="1052.3622" />
          <use
             id="use5754"
             y="146.72"
             x="228.96722"
             xlink:href="#textext-479d42cf-5"
             width="744.09448"
             height="1052.3622" />
          <use
             id="use5756"
             y="146.72"
             x="233.39461"
             xlink:href="#textext-479d42cf-6"
             width="744.09448"
             height="1052.3622" />
          <use
             id="use5758"
             y="146.72"
             x="238.92982"
             xlink:href="#textext-479d42cf-6"
             width="744.09448"
             height="1052.3622" />
          <use
             id="use5760"
             y="146.72"
             x="244.46504"
             xlink:href="#textext-479d42cf-2"
             width="744.09448"
             height="1052.3622" />
          <use
             id="use5762"
             y="146.72"
             x="247.23265"
             xlink:href="#textext-479d42cf-7"
             width="744.09448"
             height="1052.3622" />
          <use
             id="use5764"
             y="146.72"
             x="250.00026"
             xlink:href="#textext-479d42cf-8"
             width="744.09448"
             height="1052.3622" />
          <use
             id="use5766"
             y="146.72"
             x="253.04483"
             xlink:href="#textext-479d42cf-5"
             width="744.09448"
             height="1052.3622" />
          <use
             id="use5768"
             y="146.72"
             x="257.4722"
             xlink:href="#textext-479d42cf-9"
             width="744.09448"
             height="1052.3622" />
        </g>
      </g>
    </g>
    <path
       style="fill:#ececec;stroke:#808080;stroke-width:1.00000011999999994px;stroke-linecap:round;stroke-linejoin:miter;stroke-opacity:1;fill-opacity:1"
       d="m 508.46305,686.01668 c -5.27587,-28.43181 -5.33732,-57.01567 0,-85.73618 l -11.91894,0 c 5.33733,28.72051 5.27587,57.30437 0,85.73618 z"
       id="path7858"
       inkscape:connector-curvature="0"
       sodipodi:nodetypes="ccccc"
       inkscape:export-filename="/home/waldgeist/sandbox/homepage/pics/physik/optik/auge-kurzsichtigkeit.png"
       inkscape:export-xdpi="150"
       inkscape:export-ydpi="150" />
    <path
       inkscape:export-ydpi="150"
       inkscape:export-xdpi="150"
       inkscape:export-filename="/home/waldgeist/sandbox/homepage/pics/physik/optik/auge-kurzsichtigkeit.png"
       inkscape:connector-curvature="0"
       id="path7616"
       d="m 172.5415,642.98178 330.55589,25.85396 32.29393,7.55778"
       style="fill:none;stroke:#ff6600;stroke-width:3;stroke-linecap:round;stroke-linejoin:miter;stroke-opacity:1"
       sodipodi:nodetypes="ccc"
       inkscape:transform-center-x="-16.87618"
       inkscape:transform-center-y="3.73616" />
    <path
       inkscape:transform-center-y="-3.73616"
       inkscape:transform-center-x="-16.87618"
       sodipodi:nodetypes="ccc"
       style="fill:none;stroke:#ff6600;stroke-width:3;stroke-linecap:round;stroke-linejoin:miter;stroke-opacity:1"
       d="m 172.5415,642.98178 330.55589,-25.85396 32.29393,-7.55778"
       id="path7620"
       inkscape:connector-curvature="0"
       inkscape:export-filename="/home/waldgeist/sandbox/homepage/pics/physik/optik/auge-kurzsichtigkeit.png"
       inkscape:export-xdpi="150"
       inkscape:export-ydpi="150" />
    <path
       inkscape:export-ydpi="150"
       inkscape:export-xdpi="150"
       inkscape:export-filename="/home/waldgeist/sandbox/homepage/pics/physik/optik/auge-kurzsichtigkeit.png"
       inkscape:connector-curvature="0"
       inkscape:original-d="m 535.39132,609.45427 151.35819,33.04868"
       inkscape:path-effect="#path-effect7008"
       id="path7006"
       d="m 535.39132,609.45427 151.35819,33.04868"
       style="fill:none;stroke:#d40000;stroke-width:3;stroke-linecap:round;stroke-linejoin:miter;stroke-miterlimit:4;stroke-opacity:1;stroke-dasharray:none;stroke-dashoffset:0;marker-start:none;marker-mid:none;marker-end:url(#Arrow2Send)"
       sodipodi:nodetypes="cc" />
    <path
       sodipodi:nodetypes="cc"
       style="fill:none;stroke:#d40000;stroke-width:3;stroke-linecap:round;stroke-linejoin:miter;stroke-miterlimit:4;stroke-opacity:1;stroke-dasharray:none;stroke-dashoffset:0;marker-start:none;marker-mid:none;marker-end:url(#Arrow2Send)"
       d="M 535.39132,676.84295 686.74951,644.19393"
       id="path7936"
       inkscape:path-effect="#path-effect7938"
       inkscape:original-d="M 535.39132,676.84295 686.74951,644.19393"
       inkscape:connector-curvature="0"
       inkscape:export-filename="/home/waldgeist/sandbox/homepage/pics/physik/optik/auge-kurzsichtigkeit.png"
       inkscape:export-xdpi="150"
       inkscape:export-ydpi="150" />
    <path
       style="fill:none;stroke:#d40000;stroke-width:3;stroke-linecap:round;stroke-linejoin:miter;stroke-miterlimit:4;stroke-opacity:1;stroke-dasharray:none"
       d="m 503.09739,617.12782 32.29393,-7.55778"
       id="path7946"
       inkscape:connector-curvature="0"
       sodipodi:nodetypes="cc"
       inkscape:export-filename="/home/waldgeist/sandbox/homepage/pics/physik/optik/auge-kurzsichtigkeit.png"
       inkscape:export-xdpi="150"
       inkscape:export-ydpi="150" />
    <path
       inkscape:connector-curvature="0"
       id="path7948"
       d="m 503.09739,668.83574 32.29393,7.55778"
       style="fill:none;stroke:#d40000;stroke-width:3;stroke-linecap:round;stroke-linejoin:miter;stroke-miterlimit:4;stroke-opacity:1;stroke-dasharray:none"
       sodipodi:nodetypes="cc"
       inkscape:export-filename="/home/waldgeist/sandbox/homepage/pics/physik/optik/auge-kurzsichtigkeit.png"
       inkscape:export-xdpi="150"
       inkscape:export-ydpi="150" />
  </g>
</svg>
