<svg xmlns:ns0="http://www.iki.fi/pav/software/textext/" xmlns="http://www.w3.org/2000/svg" xmlns:xlink="http://www.w3.org/1999/xlink" width="210mm" height="297mm"><title>Der Sehwinkel</title><defs><marker id="a" orient="auto" overflow="visible"><path d="M1.2 0l1-1-3.5 1 3.5 1-1-1z" fill-rule="evenodd" stroke="#000" stroke-width=".2pt"/></marker><marker id="e" orient="auto" overflow="visible"><path transform="matrix(-.3 0 0 -.3 .69 0)" d="M8.719 4.034L-2.207.016 8.719-4.002c-1.746 2.372-1.736 5.618 0 8.036z" fill-rule="evenodd" stroke-width=".625" stroke-linejoin="round"/></marker></defs><path style="marker:none" color="#000" overflow="visible" fill="#f9f9f9" stroke="#f9f9f9" stroke-width=".456" stroke-linecap="round" stroke-dasharray="1.3674292,2.73485841" d="M17.169 420.039h759.362v212.285H17.169z"/><path d="M535.943 485.718a81.116 80.925 0 0 1 91.243-37.705 81.116 80.925 0 0 1 60.122 78.168 81.116 80.925 0 0 1-60.122 78.168 81.116 80.925 0 0 1-91.243-37.705" fill="#fff" stroke="gray" stroke-width="2" stroke-linecap="round" stroke-linejoin="round"/><g fill="#fff" stroke="gray" stroke-width="1.129" stroke-linecap="round"><path d="M294.735 82.362c-19.388 33.499-19.165 66.838 0 100M295.02 82.362c19.39 33.499 19.166 66.838 0 100" transform="matrix(.87405 0 0 .89812 286.574 407.304)"/></g><path d="M29.354 526.181H714.74" fill="none" stroke="gray" stroke-linecap="round" stroke-dasharray=".87830781,1.75661555999999996"/><path transform="matrix(.77742 -.62899 .6664 .74559 0 0)" style="marker:none" d="M144.03 829.353a117.814 116.876 0 0 1-9.605 9.686" color="#000" overflow="visible" fill="none" stroke="#000" stroke-width="1.334" marker-start="url(#a)"/><g transform="matrix(2.09569 0 0 2.09569 199.129 255.554)" ns0:preamble="/home/waldgeist/data/sphinx/inkscape-preamble.tex" ns0:text="$\\varepsilon$" stroke="#000" stroke-width="1.003"><defs><symbol id="b" overflow="visible"><path d="M1.406-2.266c.328.141.625.141.86.141.25 0 .812 0 .812-.313 0-.234-.36-.265-.734-.265-.203 0-.563.015-.922.187-.234-.109-.406-.312-.406-.578 0-.61.984-.969 1.875-.969.156 0 .515 0 .921.282.11.078.126.11.188.11.14 0 .281-.142.281-.282 0-.188-.61-.563-1.297-.563-1.14 0-2.218.672-2.218 1.422 0 .438.359.688.406.719-.594.328-.906.875-.906 1.344 0 .64.562 1.25 1.625 1.25 1.312 0 1.875-.875 1.875-1.032 0-.062-.063-.093-.11-.093-.062 0-.094.031-.11.062-.14.235-.374.61-1.577.61-.61 0-1.453-.157-1.453-.86 0-.343.28-.875.89-1.172zm.328-.125a1.87 1.87 0 0 1 .61-.093c.25 0 .281.015.469.062-.157.063-.172.078-.547.078-.22 0-.344 0-.532-.047z" stroke="none"/></symbol></defs><use y="134.765" x="223.432" xlink:href="#b" width="744.094" height="1052.362"/></g><path d="M125.493 473.142l-6.49 6.472h4.52v46.29h3.923v-46.29h4.52z" stroke="#000" stroke-width=".202" stroke-linecap="round"/><path style="isolation:auto;mix-blend-mode:normal" d="M125.484 525.904l418.957.22" color="#000" overflow="visible" fill="none" stroke="green" stroke-width="2" stroke-linecap="round" stroke-linejoin="round"/><g transform="matrix(3 0 0 3 -33.752 295.647)" ns0:text="$g$" ns0:preamble="/home/waldgeist/data/homepage/inkscape-preamble.tex" fill="green"><defs><symbol overflow="visible" id="c"><path d="M4.688-3.766a.562.562 0 0 0 .03-.171c0-.172-.109-.266-.28-.266-.094 0-.375.062-.407.422-.187-.36-.531-.625-.937-.625-1.125 0-2.36 1.39-2.36 2.828C.734-.594 1.328 0 2.047 0c.594 0 1.062-.469 1.156-.578l.016.015C3.016.313 2.89.734 2.89.75c-.047.094-.375 1.078-1.438 1.078a2.68 2.68 0 0 1-.797-.11.542.542 0 0 0 .406-.515C1.063 1.047.954.86.688.86a.546.546 0 0 0-.53.579c0 .406.359.609 1.312.609 1.25 0 1.968-.781 2.125-1.375zM3.405-1.28c-.062.265-.297.515-.515.703-.204.172-.516.36-.813.36-.5 0-.64-.516-.64-.923 0-.468.28-1.656.562-2.156.266-.484.688-.89 1.11-.89.656 0 .796.812.796.859 0 .047-.015.11-.031.14zm0 0"/></symbol></defs><use height="100%" width="100%" xlink:href="#c" x="118.801" y="83.403"/></g><g transform="matrix(3 0 0 3 -261.95 259.035)" ns0:preamble="/home/waldgeist/data/homepage/inkscape-preamble.tex" ns0:text="$G$" fill="green"><defs><symbol id="d" overflow="visible"><path d="M7.578-6.922c0-.031-.016-.11-.11-.11-.03 0-.046.016-.155.126l-.688.765c-.094-.14-.547-.89-1.656-.89C2.734-7.031.5-4.828.5-2.516.5-.922 1.61.22 3.219.22c.437 0 .89-.094 1.25-.235.5-.203.687-.406.86-.609.093.25.359.61.452.61.047 0 .078-.032.078-.032.016-.015.11-.406.157-.61l.187-.765.14-.516c.11-.437.11-.468.688-.468.047 0 .157-.016.157-.203 0-.079-.047-.11-.125-.11-.235 0-.829.031-1.047.031-.313 0-1.094-.03-1.407-.03-.078 0-.203 0-.203.202 0 .11.078.11.297.11.016 0 .297 0 .531.015.266.032.313.063.313.188 0 .094-.11.531-.219.906C5.047-.203 3.766-.094 3.406-.094c-.953 0-2-.562-2-2.094 0-.312.094-1.953 1.14-3.25.548-.671 1.517-1.28 2.5-1.28 1.016 0 1.61.765 1.61 1.921 0 .406-.031.406-.031.516 0 .093.11.093.14.093.126 0 .126-.015.188-.203zm0 0"/></symbol></defs><use y="83.403" x="118.801" xlink:href="#d" width="100%" height="100%"/></g><g transform="rotate(2.072 543.672 526.207)" fill="none" stroke-width="3" stroke-linecap="round" marker-end="url(#e)"><path d="M544.437 526.096l137.216 12.437" stroke="#d40000"/><path d="M125.493 488.122l414.924 37.61" stroke="#f60"/></g><path d="M540.436 525.614l146.871.22" style="isolation:auto;mix-blend-mode:normal" color="#000" overflow="visible" fill="none" stroke="#00f" stroke-width="1.184" stroke-linecap="round" stroke-linejoin="round"/><path d="M685.355 544.596l-6.49-6.473h4.52v-12.29h3.922v12.29h4.52z" stroke="#000" stroke-width=".202" stroke-linecap="round"/><g ns0:text="$b$" ns0:preamble="/home/waldgeist/data/homepage/inkscape-preamble.tex" transform="matrix(3 0 0 3 249.132 268.044)" fill="#00f"><defs><symbol overflow="visible" id="f"><path d="M2.375-6.813s0-.109-.125-.109c-.219 0-.953.078-1.219.11-.078 0-.187.015-.187.187 0 .125.094.125.25.125.468 0 .484.063.484.172 0 .062-.078.406-.125.61l-.828 3.25c-.11.5-.156.671-.156 1.015C.469-.516 1 .109 1.734.109c1.172 0 2.407-1.484 2.407-2.921 0-.907-.532-1.594-1.329-1.594-.453 0-.874.297-1.171.593zm-.922 3.766c.047-.219.047-.234.14-.344.485-.64.938-.796 1.204-.796.36 0 .625.296.625.937 0 .594-.328 1.734-.516 2.11-.328.671-.781 1.03-1.172 1.03-.343 0-.671-.265-.671-1 0-.202 0-.39.156-1.015zm0 0"/></symbol></defs><use height="100%" width="100%" xlink:href="#f" x="118.801" y="83.403"/></g><g transform="matrix(2.15604 0 0 2.15604 434.98 362.012)" ns0:preamble="/home/waldgeist/data/homepage/inkscape-preamble.tex" ns0:text="$B$" fill="#00f"><defs><symbol id="g" overflow="visible"><path d="M1.594-.781c-.094.39-.125.469-.907.469-.171 0-.265 0-.265.203C.422 0 .516 0 .688 0H4.25C5.828 0 7-1.172 7-2.156c0-.719-.578-1.297-1.547-1.406 1.031-.188 2.078-.922 2.078-1.876 0-.734-.656-1.375-1.843-1.375h-3.36c-.187 0-.281 0-.281.204 0 .109.094.109.281.109.016 0 .203 0 .375.016.172.03.266.03.266.171 0 .032-.016.063-.031.188zm1.5-2.875l.625-2.469c.094-.344.11-.375.531-.375h1.297c.875 0 1.078.594 1.078 1.031 0 .875-.86 1.813-2.063 1.813zM2.656-.312h-.219c-.109-.016-.14-.032-.14-.11 0-.031 0-.047.062-.219l.688-2.78h1.875c.953 0 1.156.733 1.156 1.155 0 .985-.89 1.954-2.078 1.954zm0 0"/></symbol></defs><use y="83.403" x="118.801" xlink:href="#g" width="100%" height="100%"/></g><path d="M33.264-675.389a117.814 116.876 0 0 1-9.605 9.687" style="marker:none" transform="matrix(-.77742 .62899 -.6664 -.74559 0 0)" color="#000" overflow="visible" fill="none" stroke="#000" stroke-width="1.334" marker-start="url(#a)"/><use height="1052.362" width="744.094" xlink:href="#b" x="223.432" y="134.765" transform="matrix(2.09569 0 0 2.09569 -57.657 240.007)" ns0:text="$\\varepsilon$" ns0:preamble="/home/waldgeist/data/sphinx/inkscape-preamble.tex" stroke="#000" stroke-width="1.003"/></svg>