<svg xmlns="http://www.w3.org/2000/svg" xmlns:xlink="http://www.w3.org/1999/xlink" width="210mm" height="297mm" viewBox="0 0 744.09449 1052.3622"><title>Strahlengang im Auge</title><defs><linearGradient id="a"><stop offset="0" stop-color="#f95"/><stop offset="1" stop-color="#fffb36"/></linearGradient><linearGradient id="b"><stop offset="0" stop-color="#f95"/><stop offset="1" stop-color="#fffb36"/></linearGradient><radialGradient r="29.799" fy="-2897.761" fx="-7817.805" cy="-2897.761" cx="-7817.805" gradientTransform="matrix(1 0 0 2.43119 1.301 4179.676)" gradientUnits="userSpaceOnUse" id="c" xlink:href="#b"/><radialGradient xlink:href="#b" id="d" gradientUnits="userSpaceOnUse" gradientTransform="matrix(.9052 -.42135 1.04209 2.20072 2212.167 207.262)" cx="-7817.805" cy="-2897.761" fx="-7817.805" fy="-2897.761" r="29.799"/><marker orient="auto" id="e" overflow="visible"><path d="M8.719 4.034L-2.207.016 8.719-4.002c-1.746 2.372-1.736 5.618 0 8.036z" transform="matrix(-.3 0 0 -.3 .69 0)" fill-rule="evenodd" stroke-width=".625" stroke-linejoin="round"/></marker></defs><path style="marker:none" color="#000" overflow="visible" fill="#f9f9f9" stroke="#f9f9f9" stroke-width=".427" stroke-linecap="round" stroke-dasharray="1.28196484,2.56392969" d="M16.096 345.987h711.902v360.388H16.096z"/><g fill="#f2f2f2" stroke="gray" stroke-width=".365" stroke-linecap="round"><path transform="matrix(1.00399 0 0 1.00153 -21.216 328.518)" d="M430.766 119.862a155 155 0 0 1 174.35-72.218A155 155 0 0 1 720 197.362a155 155 0 0 1-114.883 149.719 155 155 0 0 1-174.35-72.219" stroke-width="1.995" stroke-linejoin="round"/><g fill="#ececec" stroke-width=".588"><path d="M294.735 82.362c-19.388 33.499-19.165 66.838 0 100M295.02 82.362c19.39 33.499 19.166 66.838 0 100" transform="matrix(1.67683 0 0 1.72284 -67.135 298.142)"/></g></g><path d="M29.354 537.894H714.74" fill="none" stroke="#000" stroke-dasharray=".87830781,1.75661556"/><g transform="matrix(.24646 0 0 .24858 1988.079 1190.821)" stroke="#501616" stroke-width="4.04"><path fill="#666" stroke-width="2.02" stroke-linejoin="round" d="M-7820.096-2837.776h5.051v51.518h-5.051z"/><rect y="-2788.238" x="-7853.936" height="161.624" width="72.731" ry="7.071" fill="#782121" stroke-linecap="round" stroke-linejoin="round"/><path d="M-7808.35-2825.562c-9.556 2.268-20.133-.305-27.58-6.71-7.446-6.404-11.573-16.478-10.76-26.266.516-6.203 2.875-12.12 5.811-17.609 2.936-5.489 6.463-10.64 9.557-16.04 13.163-22.974 18.147-50.526 13.867-76.655a4267.026 4267.026 0 0 0 23.88 85.526c2.368 8.15 4.776 16.387 5.173 24.865.396 8.477-1.414 17.355-6.704 23.99a26.672 26.672 0 0 1-13.243 8.9z" fill="url(#c)" stroke-width="2.02"/></g><g transform="matrix(.17439 0 0 -.17589 2065.187 76.415)" opacity=".75" stroke="#501616" stroke-width="5.71"><path transform="skewX(17.592) scale(1 .95323)" fill="#666" stroke-width="2.924" stroke-linejoin="round" d="M-6966.472-2979.904h5.051v54.045h-5.051z"/><rect ry="7.128" width="72.731" height="162.933" x="-7524.551" y="-2811.605" transform="skewX(7.266) scale(1 .99197)" fill="#782121" stroke-width="5.733" stroke-linecap="round" stroke-linejoin="round"/><path d="M-7859.839-2843.321c-7.732 6.09-18.424 8.222-27.9 5.564-9.477-2.657-17.502-10.038-20.94-19.26-2.171-5.823-2.568-12.168-2.266-18.375.301-6.208 1.275-12.363 1.753-18.56 2.04-26.404-5.256-53.437-20.304-75.23a3519.896 3519.896 0 0 0 58.277 67.356c5.643 6.358 11.365 12.775 15.363 20.277 3.997 7.503 6.161 16.323 4.19 24.593a26.572 26.572 0 0 1-8.173 13.635z" fill="url(#d)" stroke-width="2.855"/></g><path d="M427.085 452.822l253.318 143.285M427.506 538.037l252.526 59.157" fill="none" stroke="#d40000" stroke-width="3" stroke-linecap="round" marker-end="url(#e)"/><path d="M61.383 452.822h365.702M61.383 452.822l366.123 85.215" fill="none" stroke="#f60" stroke-width="3" stroke-linecap="round" marker-end="url(#e)"/></svg>