<svg xmlns:ns0="http://www.iki.fi/pav/software/textext/" xmlns="http://www.w3.org/2000/svg" xmlns:xlink="http://www.w3.org/1999/xlink" width="210mm" height="297mm"><title>Kurzsichtigkeit</title><defs><marker orient="auto" id="b" overflow="visible"><path d="M8.719 4.034L-2.207.016 8.719-4.002c-1.746 2.372-1.736 5.618 0 8.036z" transform="matrix(-.3 0 0 -.3 .69 0)" fill-rule="evenodd" stroke-width=".625" stroke-linejoin="round"/></marker><linearGradient id="a"><stop offset="0" stop-color="#f95"/><stop offset="1" stop-color="#fffb36"/></linearGradient></defs><path style="marker:none" color="#000" fill="#fff" stroke="#fff" stroke-linecap="round" stroke-linejoin="round" overflow="visible" d="M13.343 297.221h717.408v457.92H13.343z"/><path style="marker:none" color="#000" fill="#f9f9f9" stroke="#f9f9f9" stroke-width=".427" stroke-linecap="round" stroke-dasharray="1.28196471,2.56392945" overflow="visible" d="M126.578 312.857H719.37v183.509H126.578z"/><g fill="#f2f2f2" stroke="gray" stroke-width=".688" stroke-linecap="round"><path transform="matrix(.56306 0 0 .50202 285.203 310.133)" d="M430.766 119.862C473.568 45.727 568.365 20.326 642.5 63.128c74.135 42.802 99.536 137.599 56.734 211.734-42.802 74.136-137.599 99.536-211.734 56.734a155 155 0 0 1-56.734-56.734" stroke-width="3.762" stroke-linejoin="round"/><g fill="#ececec" stroke-width="1.11"><path d="M294.735 82.362c-19.388 33.499-19.165 66.838 0 100M295.02 82.362c19.39 33.499 19.166 66.838 0 100" transform="matrix(.9404 0 0 .86359 259.45 294.907)"/></g></g><path d="M565 42.362a155 155 0 0 1 0 310" transform="matrix(.50183 0 0 .49996 312.156 310.54)" fill="none" stroke="gray" stroke-width="2.995" stroke-linecap="round" stroke-linejoin="round" stroke-dasharray="1.99643222,5.98929667"/><path d="M172.38 409.208l363.592-26.74 123.358 24.1M172.38 409.22l363.592 26.74 123.362-24.102" fill="none" stroke="#f60" stroke-width="3"/><path d="M659.33 406.569l13.538 2.645-13.534 2.644" fill="none" stroke="#000" stroke-dasharray=".99999999,.99999999"/><path d="M535.972 382.468l150.526 29.53M535.972 435.96l150.467-29.52" fill="none" stroke="#d40000" stroke-width="3" stroke-linecap="round" marker-end="url(#b)"/><g ns0:text="Ohne \\\\Sehhilfe:" ns0:preamble="/home/waldgeist/data/sphinx/inkscape-preamble.tex" transform="matrix(2.3041 0 0 2.3041 -489.787 88.174)"><defs><symbol overflow="visible" id="c"><path d="M7.188-3.375c0-2.031-1.5-3.656-3.313-3.656-1.797 0-3.313 1.593-3.313 3.656C.563-1.328 2.095.219 3.876.219c1.813 0 3.313-1.578 3.313-3.594zM3.874-.047c-.953 0-2.297-.875-2.297-3.469 0-2.578 1.469-3.265 2.297-3.265.86 0 2.281.703 2.281 3.265 0 2.641-1.36 3.47-2.281 3.47z"/></symbol><symbol overflow="visible" id="d"><path d="M1.094-.75c0 .438-.11.438-.782.438V0c.36-.016.86-.031 1.141-.031.25 0 .766.015 1.11.031v-.313c-.672 0-.782 0-.782-.437v-1.844c0-1.031.719-1.594 1.344-1.594.64 0 .75.532.75 1.11V-.75c0 .438-.11.438-.781.438V0c.344-.016.86-.031 1.125-.031.25 0 .781.015 1.11.031v-.313c-.516 0-.766 0-.766-.296v-1.907c0-.859 0-1.156-.313-1.515-.14-.172-.469-.375-1.047-.375-.844 0-1.281.593-1.453.984v-3.5l-1.438.11v.312c.704 0 .782.063.782.563z"/></symbol><symbol overflow="visible" id="e"><path d="M1.094-3.422V-.75c0 .438-.11.438-.782.438V0c.36-.016.86-.031 1.141-.031.25 0 .766.015 1.11.031v-.313c-.672 0-.782 0-.782-.437v-1.844c0-1.031.719-1.594 1.344-1.594.64 0 .75.532.75 1.11V-.75c0 .438-.11.438-.781.438V0c.344-.016.86-.031 1.125-.031.25 0 .781.015 1.11.031v-.313c-.516 0-.766 0-.766-.296v-1.907c0-.859 0-1.156-.313-1.515-.14-.172-.469-.375-1.047-.375-.734 0-1.203.422-1.484 1.047v-1.047l-1.407.11v.312c.704 0 .782.062.782.562z"/></symbol><symbol overflow="visible" id="f"><path d="M1.11-2.516C1.171-4 2.015-4.25 2.36-4.25c1.015 0 1.124 1.344 1.124 1.734zm0 .22h2.78c.22 0 .25 0 .25-.22 0-.984-.546-1.953-1.78-1.953C1.202-4.469.28-3.437.28-2.187.281-.86 1.328.108 2.47.108 3.688.11 4.14-1 4.14-1.187c0-.094-.079-.125-.141-.125-.078 0-.11.062-.125.14C3.531-.14 2.625-.14 2.531-.14c-.5 0-.89-.296-1.125-.671-.297-.47-.297-1.125-.297-1.485z"/></symbol><symbol overflow="visible" id="g"><path d="M3.484-3.875l-1.28-.297c-.626-.156-1-.687-1-1.266 0-.703.53-1.312 1.312-1.312 1.656 0 1.875 1.64 1.937 2.078.016.063.016.125.125.125.125 0 .125-.047.125-.234v-2c0-.172 0-.25-.11-.25-.062 0-.077.015-.14.14l-.36.563c-.296-.297-.702-.703-1.593-.703-1.11 0-1.938.875-1.938 1.937 0 .828.532 1.563 1.297 1.828.11.032.625.157 1.329.329.265.062.562.14.843.5.203.265.313.593.313.921 0 .704-.5 1.422-1.344 1.422-.281 0-1.047-.047-1.578-.531-.578-.547-.61-1.172-.61-1.531-.015-.11-.093-.11-.125-.11-.125 0-.125.079-.125.25v2c0 .172 0 .235.11.235.062 0 .078-.016.14-.125 0-.016.032-.047.36-.578.312.343.953.703 1.844.703 1.156 0 1.953-.969 1.953-2.078 0-.985-.657-1.813-1.485-2.016z"/></symbol><symbol overflow="visible" id="h"><path d="M1.766-4.406l-1.391.11v.312c.64 0 .734.062.734.546V-.75c0 .438-.109.438-.78.438V0c.312-.016.859-.031 1.093-.031.36 0 .703.015 1.047.031v-.313c-.672 0-.703-.046-.703-.437zm.03-1.735a.514.514 0 0 0-.515-.53.537.537 0 0 0-.531.53c0 .266.219.532.531.532a.514.514 0 0 0 .516-.532z"/></symbol><symbol overflow="visible" id="i"><path d="M1.766-6.922l-1.438.11v.312c.703 0 .781.063.781.563V-.75c0 .438-.109.438-.78.438V0c.327-.016.859-.031 1.109-.031s.734.015 1.109.031v-.313c-.672 0-.781 0-.781-.437z"/></symbol><symbol overflow="visible" id="j"><path d="M1.75-4.297v-1.156c0-.875.469-1.36.906-1.36.031 0 .188 0 .328.079a.443.443 0 0 0-.296.421c0 .22.156.422.437.422s.438-.203.438-.437c0-.375-.376-.703-.907-.703-.687 0-1.547.531-1.547 1.593v1.141H.33v.313h.78V-.75c0 .438-.109.438-.765.438V0c.39-.016.86-.031 1.125-.031.406 0 .875 0 1.265.031v-.313h-.203c-.734 0-.75-.109-.75-.468v-3.203h1.125v-.313z"/></symbol><symbol overflow="visible" id="k"><path d="M1.906-3.766a.524.524 0 1 0-1.047 0c0 .282.235.532.532.532.28 0 .515-.25.515-.532zm0 3.235a.534.534 0 0 0-.515-.531.537.537 0 0 0-.532.53.524.524 0 1 0 1.047 0z"/></symbol></defs><use xlink:href="#c" x="223.432" y="134.765" width="744.094" height="1052.362"/><use xlink:href="#d" x="231.181" y="134.765" width="744.094" height="1052.362"/><use xlink:href="#e" x="236.716" y="134.765" width="744.094" height="1052.362"/><use xlink:href="#f" x="242.251" y="134.765" width="744.094" height="1052.362"/><g><use xlink:href="#g" x="223.432" y="146.72" width="744.094" height="1052.362"/><use xlink:href="#f" x="228.967" y="146.72" width="744.094" height="1052.362"/><use xlink:href="#d" x="233.395" y="146.72" width="744.094" height="1052.362"/><use xlink:href="#d" x="238.93" y="146.72" width="744.094" height="1052.362"/><use xlink:href="#h" x="244.465" y="146.72" width="744.094" height="1052.362"/><use xlink:href="#i" x="247.233" y="146.72" width="744.094" height="1052.362"/><use xlink:href="#j" x="250" y="146.72" width="744.094" height="1052.362"/><use xlink:href="#f" x="253.045" y="146.72" width="744.094" height="1052.362"/><use xlink:href="#k" x="257.472" y="146.72" width="744.094" height="1052.362"/></g></g><path style="marker:none" color="#000" fill="#f9f9f9" stroke="#f9f9f9" stroke-width=".427" stroke-linecap="round" stroke-dasharray="1.28196471,2.56392945" overflow="visible" d="M126.578 555.996H719.37v183.509H126.578z"/><path transform="matrix(.56235 0 0 .51925 285.66 540.668)" d="M430.766 119.862a155 155 0 1 1 0 155" fill="#f2f2f2" stroke="gray" stroke-width="3.701" stroke-linecap="round" stroke-linejoin="round"/><path transform="matrix(.50183 0 0 .50202 311.73 544.068)" d="M565 42.362a155 155 0 0 1 0 310" fill="none" stroke="gray" stroke-width="2.988" stroke-linecap="round" stroke-linejoin="round" stroke-dasharray="2.98847787,5.97695574"/><g fill="#ececec" stroke="gray" stroke-width="1.213" stroke-linecap="round"><path d="M294.735 82.362c-19.388 33.499-19.165 66.838 0 100M295.02 82.362c19.39 33.499 19.166 66.838 0 100" transform="matrix(.78656 0 0 .86359 304.346 528.842)"/></g><g transform="matrix(2.3041 0 0 2.3041 -489.331 331.061)" ns0:preamble="/home/waldgeist/data/sphinx/inkscape-preamble.tex" ns0:text="Mit \\\\Sehhilfe:"><defs><symbol id="l" overflow="visible"><path d="M2.406-6.594c-.094-.218-.125-.218-.36-.218H.376v.312h.234c.766 0 .782.11.782.469v4.984c0 .266 0 .734-1.016.734V0c.344-.016.828-.031 1.156-.031.328 0 .828.015 1.172.031v-.313c-1.031 0-1.031-.468-1.031-.734v-5.375h.016L4.094-.219c.047.125.093.219.187.219.11 0 .14-.078.188-.188L6.922-6.5v5.719c0 .36-.016.469-.781.469h-.235V0c.36-.031 1.047-.031 1.438-.031.375 0 1.047 0 1.422.031v-.313h-.25c-.766 0-.782-.109-.782-.468v-5.25c0-.36.016-.469.782-.469h.25v-.313H7.078c-.266 0-.266.016-.328.188L4.562-1z"/></symbol><symbol id="m" overflow="visible"><path d="M1.766-4.406l-1.391.11v.312c.64 0 .734.062.734.546V-.75c0 .438-.109.438-.78.438V0c.312-.016.859-.031 1.093-.031.36 0 .703.015 1.047.031v-.313c-.672 0-.703-.046-.703-.437zm.03-1.735a.514.514 0 0 0-.515-.53.537.537 0 0 0-.531.53c0 .266.219.532.531.532a.514.514 0 0 0 .516-.532z"/></symbol><symbol id="n" overflow="visible"><path d="M1.719-3.984h1.437v-.313H1.72v-1.828h-.25c0 .813-.297 1.875-1.282 1.922v.219h.844v2.75c0 1.218.938 1.343 1.297 1.343.703 0 .985-.703.985-1.343v-.563h-.25v.547c0 .734-.297 1.11-.672 1.11-.672 0-.672-.907-.672-1.079z"/></symbol><symbol id="o" overflow="visible"><path d="M3.484-3.875l-1.28-.297c-.626-.156-1-.687-1-1.266 0-.703.53-1.312 1.312-1.312 1.656 0 1.875 1.64 1.937 2.078.016.063.016.125.125.125.125 0 .125-.047.125-.234v-2c0-.172 0-.25-.11-.25-.062 0-.077.015-.14.14l-.36.563c-.296-.297-.702-.703-1.593-.703-1.11 0-1.938.875-1.938 1.937 0 .828.532 1.563 1.297 1.828.11.032.625.157 1.329.329.265.062.562.14.843.5.203.265.313.593.313.921 0 .704-.5 1.422-1.344 1.422-.281 0-1.047-.047-1.578-.531-.578-.547-.61-1.172-.61-1.531-.015-.11-.093-.11-.125-.11-.125 0-.125.079-.125.25v2c0 .172 0 .235.11.235.062 0 .078-.016.14-.125 0-.016.032-.047.36-.578.312.343.953.703 1.844.703 1.156 0 1.953-.969 1.953-2.078 0-.985-.657-1.813-1.485-2.016z"/></symbol><symbol id="p" overflow="visible"><path d="M1.11-2.516C1.171-4 2.015-4.25 2.36-4.25c1.015 0 1.124 1.344 1.124 1.734zm0 .22h2.78c.22 0 .25 0 .25-.22 0-.984-.546-1.953-1.78-1.953C1.202-4.469.28-3.437.28-2.187.281-.86 1.328.108 2.47.108 3.688.11 4.14-1 4.14-1.187c0-.094-.079-.125-.141-.125-.078 0-.11.062-.125.14C3.531-.14 2.625-.14 2.531-.14c-.5 0-.89-.296-1.125-.671-.297-.47-.297-1.125-.297-1.485z"/></symbol><symbol id="q" overflow="visible"><path d="M1.094-.75c0 .438-.11.438-.782.438V0c.36-.016.86-.031 1.141-.031.25 0 .766.015 1.11.031v-.313c-.672 0-.782 0-.782-.437v-1.844c0-1.031.719-1.594 1.344-1.594.64 0 .75.532.75 1.11V-.75c0 .438-.11.438-.781.438V0c.344-.016.86-.031 1.125-.031.25 0 .781.015 1.11.031v-.313c-.516 0-.766 0-.766-.296v-1.907c0-.859 0-1.156-.313-1.515-.14-.172-.469-.375-1.047-.375-.844 0-1.281.593-1.453.984v-3.5l-1.438.11v.312c.704 0 .782.063.782.563z"/></symbol><symbol id="r" overflow="visible"><path d="M1.766-6.922l-1.438.11v.312c.703 0 .781.063.781.563V-.75c0 .438-.109.438-.78.438V0c.327-.016.859-.031 1.109-.031s.734.015 1.109.031v-.313c-.672 0-.781 0-.781-.437z"/></symbol><symbol id="s" overflow="visible"><path d="M1.75-4.297v-1.156c0-.875.469-1.36.906-1.36.031 0 .188 0 .328.079a.443.443 0 0 0-.296.421c0 .22.156.422.437.422s.438-.203.438-.437c0-.375-.376-.703-.907-.703-.687 0-1.547.531-1.547 1.593v1.141H.33v.313h.78V-.75c0 .438-.109.438-.765.438V0c.39-.016.86-.031 1.125-.031.406 0 .875 0 1.265.031v-.313h-.203c-.734 0-.75-.109-.75-.468v-3.203h1.125v-.313z"/></symbol><symbol id="t" overflow="visible"><path d="M1.906-3.766a.524.524 0 1 0-1.047 0c0 .282.235.532.532.532.28 0 .515-.25.515-.532zm0 3.235a.534.534 0 0 0-.515-.531.537.537 0 0 0-.532.53.524.524 0 1 0 1.047 0z"/></symbol></defs><use y="134.765" x="223.432" xlink:href="#l" width="744.094" height="1052.362"/><use y="134.765" x="232.565" xlink:href="#m" width="744.094" height="1052.362"/><use y="134.765" x="235.332" xlink:href="#n" width="744.094" height="1052.362"/><g><use y="146.72" x="223.432" xlink:href="#o" width="744.094" height="1052.362"/><use y="146.72" x="228.967" xlink:href="#p" width="744.094" height="1052.362"/><use y="146.72" x="233.395" xlink:href="#q" width="744.094" height="1052.362"/><use y="146.72" x="238.93" xlink:href="#q" width="744.094" height="1052.362"/><use y="146.72" x="244.465" xlink:href="#m" width="744.094" height="1052.362"/><use y="146.72" x="247.233" xlink:href="#r" width="744.094" height="1052.362"/><use y="146.72" x="250" xlink:href="#s" width="744.094" height="1052.362"/><use y="146.72" x="253.045" xlink:href="#p" width="744.094" height="1052.362"/><use y="146.72" x="257.472" xlink:href="#t" width="744.094" height="1052.362"/></g></g><path d="M508.463 686.017c-5.276-28.432-5.337-57.016 0-85.737h-11.919c5.337 28.721 5.276 57.305 0 85.737z" fill="#ececec" stroke="gray" stroke-linecap="round"/><path d="M172.542 642.982l330.555 25.854 32.294 7.558M172.542 642.982l330.555-25.854 32.294-7.558" fill="none" stroke="#f60" stroke-width="3" stroke-linecap="round"/><path d="M535.391 609.454l151.359 33.049M535.391 676.843l151.359-32.65" fill="none" stroke="#d40000" stroke-width="3" stroke-linecap="round" marker-end="url(#b)"/><path d="M503.097 617.128l32.294-7.558M503.097 668.836l32.294 7.558" fill="none" stroke="#d40000" stroke-width="3" stroke-linecap="round"/></svg>