<svg xmlns="http://www.w3.org/2000/svg" width="210mm" height="297mm"><path d="M125.248 427.318c37.526-69.836 55.322-78.128 102.636-116.51l-7.449 403.59-51.848-25.617-49.919-86.826c-14.129-70.285-7.572-102.467 6.58-174.637z" fill="#f9f9f9"/><path style="marker:none" color="#000" fill="#fff" stroke="#fff" stroke-width=".5" stroke-linecap="round" stroke-dasharray="1.50000017,3.0000004" overflow="visible" d="M17.79 834.976h708.515V217.387H17.79z"/><path d="M624.349 614.53l83.496 27.525M605.957 649.384l81.512 32.941" fill="none" stroke="#fff" stroke-width="25"/><path transform="matrix(1.18797 0 0 1.18746 -179.28 49.976)" d="M249.857 303.312a231.216 231.216 0 1 1 0 195.432" style="marker:none" color="#000" fill="#ffd5d5" stroke="#de8787" stroke-width="3.368" stroke-linecap="round" stroke-linejoin="round" overflow="visible"/><path d="M115.885 641.009l15.975-8.231-16.258-20.024z" fill="#ececec"/><path style="marker:none" d="M249.857 303.312a231.216 231.216 0 1 1 0 195.432" transform="matrix(1.11604 0 0 1.11556 -147.453 78.81)" color="#000" fill="#f9f9f9" stroke="#de8787" stroke-width="3.585" stroke-linecap="round" stroke-linejoin="round" overflow="visible"/><path d="M254.063 299.465l-28.747 36.593-16.56 70.535-.944 229.88 23.067 84.956 23.184 31.47V299.465" fill="#f2f2f2"/><path d="M599.727 638.158c-.043.15 73.016 27.098 73.016 27.098l-6.756 19.185-76.39-27.3zM615.514 596.72c-.043.15 72.316 25.498 72.316 25.498l-7.254 20.796-70.96-28.206z" fill="#ffd5d5"/><path transform="matrix(1.09142 0 0 1.09095 -136.722 88.68)" d="M358.051 193.212a231.216 231.216 0 1 1 0 415.632" style="marker:none" color="#000" fill="#f2f2f2" stroke="maroon" stroke-width="9.164" stroke-linecap="round" stroke-linejoin="round" overflow="visible"/><path d="M608.025 615.5l72.551 27.514M604.671 662.956l61.316 21.485M630.584 601.786l57.246 20.432" fill="none" stroke="#de8787" stroke-width="4" stroke-linecap="round" stroke-linejoin="round"/><path d="M589.53 620.191l85.062 32.241" fill="#fff"/><path d="M601.995 626.023l74.682 28.062" fill="none" stroke="maroon" stroke-width="20" stroke-linecap="round" stroke-linejoin="round"/><path d="M599.727 638.033l73.016 27.223" fill="none" stroke="#de8787" stroke-width="4" stroke-linecap="round" stroke-linejoin="round"/><path style="marker:none" d="M626.74 241.461a231.216 231.216 0 0 1-.183 319.326" transform="matrix(-.65038 0 0 .7146 523.297 239.535)" color="#000" fill="#ececec" stroke="gray" stroke-width="2.934" stroke-linecap="round" stroke-linejoin="round" overflow="visible"/><path d="M121.066 432.697l11.726-11.635.604 210.127-15.224-20.174z" fill="#fff" stroke="#fff"/><path style="marker:none" color="#000" fill="#f9f9f9" stroke="#f9f9f9" stroke-width="2" stroke-linecap="round" stroke-linejoin="round" overflow="visible" d="M130.284 422.684h4.243V630.75h-4.243z"/><path d="M115.678 412.153l14.82 9.415-15.015 18.177z" fill="#ececec"/><path transform="matrix(-.57653 0 0 .63347 488.57 272.144)" d="M618.753 233.485a231.216 231.216 0 0 1-.037 335.121" style="marker:none" color="#000" fill="#f9f9f9" stroke="gray" stroke-width="3.309" stroke-linecap="round" stroke-linejoin="round" overflow="visible"/><path d="M175.413 610.108c3.021 38.691 24.804 74.116 36.031 96.75 3.068 6.187 13.805 11.615 19.435 14.57-28.721-74.398-25.46-98.443-18.52-120.38-16.096 15.925-34.336 16.424-36.946 9.06zM175.413 442.254c3.021-38.691 24.804-74.116 36.031-96.75 3.068-6.186 13.805-11.614 19.435-14.57-28.721 74.398-25.46 98.443-18.52 120.38-16.096-15.925-34.336-16.424-36.946-9.06z" fill="#f2cccc" stroke="#cc7c7c" stroke-width="2"/><path style="marker:none" d="M182.703 438.59c-12.094 0-21.898 39.214-21.898 87.591 0 48.377 9.804 87.59 21.898 87.59 29.803 0 53.951-39.213 53.951-87.59s-24.148-87.59-53.951-87.59z" color="#000" fill="#ececec" stroke="gray" stroke-width="2" stroke-linecap="round" stroke-linejoin="round" overflow="visible"/><path d="M158.435 458.954c-1.975-24.124-2.367-71.726 10.152-94.036 31.335-36.047 31.671-38.518 77.93-64.994 8.09-4.631 8.687 7.458 8.626 13.73-1.04 7.675-7.42 8.29-29.827 22.404-23.197 14.612-37.158 34.493-43.372 46.103-8.5 21.023-11.237 53.645-14.96 75.725-3.86 7.424-6.041 3.106-8.549 1.068zM158.435 594.745c-1.975 24.125-2.367 71.726 10.152 94.036 31.335 36.047 31.671 38.519 77.93 64.994 8.09 4.631 8.687-7.458 8.626-13.73-1.04-7.675-7.42-8.29-29.827-22.404-23.197-14.612-37.158-34.493-43.372-46.103-8.5-21.023-11.237-53.645-14.96-75.724-3.86-7.425-6.041-3.107-8.549-1.069z" fill="#ccc" stroke="#000"/><path d="M30.249 526.181h663.597" fill="none" stroke="#000" stroke-width=".878" stroke-dasharray=".8783078,1.75661552"/></svg>