<svg xmlns:ns0="http://www.iki.fi/pav/software/textext/" xmlns="http://www.w3.org/2000/svg" xmlns:xlink="http://www.w3.org/1999/xlink" height="297mm" width="210mm"><title>Beleuchtungsstaerke</title><defs><marker id="d" orient="auto" overflow="visible"><path transform="rotate(180) scale(.6)" d="M8.719 4.034L-2.207.016 8.719-4.002c-1.746 2.372-1.736 5.618 0 8.036z" font-size="12" fill-rule="evenodd" stroke-width=".625" stroke-linejoin="round"/></marker><marker id="c" orient="auto" overflow="visible"><path transform="scale(.6)" d="M8.719 4.034L-2.207.016 8.719-4.002c-1.746 2.372-1.736 5.618 0 8.036z" font-size="12" fill-rule="evenodd" stroke-width=".625" stroke-linejoin="round"/></marker><linearGradient id="a"><stop offset="0" stop-color="#f95"/><stop offset="1" stop-color="#fffb36"/></linearGradient><radialGradient xlink:href="#a" id="b" gradientUnits="userSpaceOnUse" gradientTransform="matrix(1 0 0 2.43119 1.301 4179.676)" cx="-7817.805" cy="-2897.761" fx="-7817.805" fy="-2897.761" r="29.799"/></defs><path fill="none" stroke="#f9f9f9" stroke-width=".823" stroke-linecap="square" stroke-linejoin="round" d="M16.605 254.034H727.49v544.295H16.605z"/><g stroke="#501616" stroke-width=".791"><path fill="#666" stroke-width="3.527" stroke-linejoin="round" d="M-7820.096-2837.776h5.051v51.518h-5.051z" transform="matrix(.28263 0 0 .28443 2407.096 1333.31)"/><path fill="#782121" stroke-width="3.527" stroke-linejoin="round" d="M-7867.318-2788.238h99.496v138.703h-99.496z" transform="matrix(.28263 0 0 .28443 2407.096 1333.31)"/><path d="M-7808.35-2825.562c-9.556 2.268-20.133-.305-27.58-6.71-7.446-6.404-11.573-16.478-10.76-26.266.516-6.203 2.875-12.12 5.811-17.609 2.936-5.489 6.463-10.64 9.557-16.04 13.163-22.974 18.147-50.526 13.867-76.655a4267.026 4267.026 0 0 0 23.88 85.526c2.368 8.15 4.776 16.387 5.173 24.865.396 8.477-1.414 17.355-6.704 23.99a26.672 26.672 0 0 1-13.243 8.9" fill="url(#b)" transform="matrix(.28263 0 0 .28443 2407.096 1333.31)"/></g><g transform="matrix(1.61071 0 0 1.61071 -128.679 -42.466)" stroke="#f60" stroke-width="1.863" fill="none" marker-start="url(#c)" marker-end="url(#d)"><path d="M390.635 242.033L207.75 348.302l269.181-54.153M477.143 399.505L207.75 348.302l237.198 132.147"/><path d="M116.27 301.744l81.298 46.558-81.297-16.12M116.27 363.754l81.298-15.452-81.297 45.292" opacity=".3"/></g><path d="M453.479 652.795c51.317-103.217 46.4-194.411-5.753-273.246 60.729 3.266 101.626 26.635 134.61 61.552 8.464 48.705 9.92 97.41 0 146.115-34.545 47.083-82.514 53.891-128.857 65.579z" opacity=".5" fill="none" stroke="#000" stroke-width="1.5"/><path d="M375.28 606.774c34.82-74.356 28.409-133.257-3.814-181.205 44.79 5.494 66.603 14.287 89.267 40.819 5.614 32.299 6.579 64.598 0 96.897-22.908 31.223-54.72 35.739-85.452 43.49zM291.632 561.33c17.354-37.061 14.159-66.418-1.902-90.316 15.608 3.018 30.862 6.454 44.492 20.345 2.798 16.098 3.28 32.196 0 48.295-11.417 15.562-27.273 17.812-42.59 21.675z" opacity=".5" fill="none" stroke="#000" stroke-width="1.5"/><path d="M345 681.68h202.184" fill="none" stroke="#000" stroke-width=".621" marker-start="url(#c)" marker-end="url(#d)" transform="matrix(1.61071 0 0 1.61071 -346.125 -387.896)"/><g opacity=".5" stroke="#000" stroke-width=".621" stroke-linecap="round" stroke-dasharray=".62084292,1.86252876" fill="none"><path d="M426.678 590.667c6.848-51.553 5.54-105.016-3.706-151.404M465.831 517.595c-25.703-.895-47.52-1.514-66.12.32" stroke-width="1.00025091"/></g><g opacity=".5" stroke="#000" stroke-width=".621" stroke-linecap="round" stroke-dasharray=".62084292,1.86252876" fill="none"><path d="M507.44 638.988c25.984-83.998 18.037-168.684-9.184-251.016M547.933 621.192c16.562-76.472 15.371-139.653-5.946-213.787M586.416 490.54c-26.175-7.364-63.063-15.326-100.085-17.76M585.557 538.51c-27.944 10.975-65.417 22.582-100.906 26.24" stroke-width="1.00025091"/></g><path d="M345 649.349h134.79" fill="none" stroke="#000" stroke-width=".621" marker-start="url(#c)" marker-end="url(#d)" transform="matrix(1.61071 0 0 1.61071 -346.125 -396.804)"/><g transform="matrix(2.10519 0 0 2.10519 -222.001 327.275)" ns0:text="$\\unit[1]{m}$" ns0:preamble="/home/waldgeist/data/sphinx/test.tex"><defs><symbol overflow="visible" id="e"><path d="M2.938-6.375c0-.25 0-.266-.235-.266C2.078-6 1.203-6 .891-6v.313c.203 0 .78 0 1.296-.266v5.172c0 .36-.03.469-.921.469H.953V0c.344-.031 1.203-.031 1.61-.031.39 0 1.265 0 1.609.031v-.313h-.313c-.906 0-.921-.109-.921-.468zm0 0"/></symbol><symbol overflow="visible" id="f"><path d="M1.094-3.422V-.75c0 .438-.11.438-.782.438V0c.36-.016.86-.031 1.141-.031.25 0 .766.015 1.11.031v-.313c-.672 0-.782 0-.782-.437v-1.844c0-1.031.719-1.594 1.344-1.594.64 0 .75.532.75 1.11V-.75c0 .438-.11.438-.781.438V0c.344-.016.86-.031 1.125-.031.25 0 .781.015 1.11.031v-.313c-.657 0-.766 0-.766-.437v-1.844c0-1.031.703-1.594 1.343-1.594.625 0 .735.532.735 1.11V-.75c0 .438-.11.438-.782.438V0c.344-.016.86-.031 1.125-.031.266 0 .782.015 1.125.031v-.313c-.515 0-.765 0-.78-.296v-1.907c0-.859 0-1.156-.313-1.515-.141-.172-.47-.375-1.047-.375-.828 0-1.282.593-1.438.984-.14-.875-.875-.984-1.328-.984-.734 0-1.203.422-1.484 1.047v-1.047l-1.407.11v.312c.704 0 .782.062.782.562zm0 0"/></symbol></defs><use height="1052.362" width="744.094" xlink:href="#e" x="223.432" y="134.765"/><use height="1052.362" width="744.094" xlink:href="#f" x="230.077" y="134.765"/></g><g transform="matrix(2.10519 0 0 2.10519 -113.94 448.806)" ns0:preamble="/home/waldgeist/data/sphinx/test.tex" ns0:text="$\\unit[3]{m}$"><defs><symbol id="g" overflow="visible"><path d="M2.89-3.516c.813-.265 1.391-.953 1.391-1.75 0-.812-.875-1.375-1.828-1.375-1 0-1.765.594-1.765 1.36 0 .328.218.515.515.515.297 0 .5-.218.5-.515 0-.485-.469-.485-.61-.485.298-.5.954-.625 1.313-.625.422 0 .969.22.969 1.11 0 .125-.031.703-.281 1.14-.297.485-.64.516-.89.516a3.29 3.29 0 0 1-.392.031c-.078.016-.14.031-.14.125 0 .11.062.11.234.11h.438c.812 0 1.187.671 1.187 1.656 0 1.36-.687 1.64-1.125 1.64-.437 0-1.187-.171-1.531-.75.344.047.656-.171.656-.546a.537.537 0 0 0-.547-.563c-.25 0-.562.14-.562.578C.422-.437 1.344.22 2.437.22c1.22 0 2.126-.906 2.126-1.922 0-.813-.641-1.594-1.672-1.813zm0 0"/></symbol><symbol id="h" overflow="visible"><path d="M1.094-3.422V-.75c0 .438-.11.438-.782.438V0c.36-.016.86-.031 1.141-.031.25 0 .766.015 1.11.031v-.313c-.672 0-.782 0-.782-.437v-1.844c0-1.031.719-1.594 1.344-1.594.64 0 .75.532.75 1.11V-.75c0 .438-.11.438-.781.438V0c.344-.016.86-.031 1.125-.031.25 0 .781.015 1.11.031v-.313c-.657 0-.766 0-.766-.437v-1.844c0-1.031.703-1.594 1.343-1.594.625 0 .735.532.735 1.11V-.75c0 .438-.11.438-.782.438V0c.344-.016.86-.031 1.125-.031.266 0 .782.015 1.125.031v-.313c-.515 0-.765 0-.78-.296v-1.907c0-.859 0-1.156-.313-1.515-.141-.172-.47-.375-1.047-.375-.828 0-1.282.593-1.438.984-.14-.875-.875-.984-1.328-.984-.734 0-1.203.422-1.484 1.047v-1.047l-1.407.11v.312c.704 0 .782.062.782.562zm0 0"/></symbol></defs><use height="1052.362" width="744.094" y="134.765" x="223.432" xlink:href="#g"/><use height="1052.362" width="744.094" y="134.765" x="230.077" xlink:href="#h"/></g><g ns0:text="$\\unit[2]{m}$" ns0:preamble="/home/waldgeist/data/sphinx/test.tex" transform="matrix(2.10519 0 0 2.10519 -168.299 389.508)"><defs><symbol overflow="visible" id="i"><path d="M1.266-.766l1.062-1.03c1.547-1.376 2.14-1.907 2.14-2.907 0-1.14-.89-1.938-2.109-1.938C1.234-6.64.5-5.719.5-4.828c0 .547.5.547.531.547.172 0 .516-.11.516-.532a.513.513 0 0 0-.531-.515c-.079 0-.094 0-.125.016.218-.657.765-1.016 1.343-1.016.907 0 1.329.812 1.329 1.625 0 .797-.485 1.578-1.047 2.203L.609-.375C.5-.265.5-.235.5 0h3.703l.266-1.734h-.235C4.172-1.438 4.11-1 4-.844c-.063.078-.719.078-.938.078zm0 0"/></symbol><symbol overflow="visible" id="j"><path d="M1.094-3.422V-.75c0 .438-.11.438-.782.438V0c.36-.016.86-.031 1.141-.031.25 0 .766.015 1.11.031v-.313c-.672 0-.782 0-.782-.437v-1.844c0-1.031.719-1.594 1.344-1.594.64 0 .75.532.75 1.11V-.75c0 .438-.11.438-.781.438V0c.344-.016.86-.031 1.125-.031.25 0 .781.015 1.11.031v-.313c-.657 0-.766 0-.766-.437v-1.844c0-1.031.703-1.594 1.343-1.594.625 0 .735.532.735 1.11V-.75c0 .438-.11.438-.782.438V0c.344-.016.86-.031 1.125-.031.266 0 .782.015 1.125.031v-.313c-.515 0-.765 0-.78-.296v-1.907c0-.859 0-1.156-.313-1.515-.141-.172-.47-.375-1.047-.375-.828 0-1.282.593-1.438.984-.14-.875-.875-.984-1.328-.984-.734 0-1.203.422-1.484 1.047v-1.047l-1.407.11v.312c.704 0 .782.062.782.562zm0 0"/></symbol></defs><use height="1052.362" width="744.094" xlink:href="#i" x="223.432" y="134.765"/><use height="1052.362" width="744.094" xlink:href="#j" x="230.077" y="134.765"/></g><path d="M543.832 516.793a1.29 1.29 0 1 1-2.58 0 1.29 1.29 0 1 1 2.58 0zM432.227 516.793a1.29 1.29 0 1 1-2.58 0 1.29 1.29 0 1 1 2.58 0zM322.385 516.793a1.29 1.29 0 1 1-2.58 0 1.29 1.29 0 1 1 2.58 0z" opacity=".5"/><path fill="#999" d="M187.369 586.886h20.556v157.593h-20.556z"/><path fill="#999" d="M689.398 743.848v22.693H58.6v-22.693zM171.349 579.709h52.597v7.858h-52.597z"/><path d="M345 546.982h67.395" fill="none" stroke="#000" stroke-width=".621" marker-start="url(#c)" marker-end="url(#d)" transform="matrix(1.61071 0 0 1.61071 -346.125 -293.464)"/><path d="M198.306 488.89V289.794" opacity=".3" fill="none" stroke="#f60" stroke-width="3" stroke-linecap="round" marker-end="url(#d)"/><path d="M204.43 513.215l133.138-201.713" id="k" opacity=".3" fill="none" stroke="#f60" stroke-width="3" stroke-linecap="round" marker-end="url(#d)"/><use height="1052.362" width="744.094" transform="matrix(-1 0 0 1 396.167 .891)" xlink:href="#k"/></svg>