<svg xmlns:ns0="http://www.iki.fi/pav/software/textext/" xmlns="http://www.w3.org/2000/svg" xmlns:xlink="http://www.w3.org/1999/xlink" width="210mm" height="297mm"><title>Bestrahlungsstärke und Strahldichte</title><defs><marker orient="auto" id="e" overflow="visible"><path d="M8.719 4.034L-2.207.016 8.719-4.002c-1.746 2.372-1.736 5.618 0 8.036z" transform="rotate(180) scale(.6)" fill-rule="evenodd" stroke-width=".625" stroke-linejoin="round"/></marker><linearGradient id="a"><stop offset="0" stop-color="#f95"/><stop offset="1" stop-color="#fffb36"/></linearGradient><marker id="c" orient="auto" overflow="visible"><path transform="matrix(-.3 0 0 -.3 .69 0)" d="M8.719 4.034L-2.207.016 8.719-4.002c-1.746 2.372-1.736 5.618 0 8.036z" fill-rule="evenodd" stroke-width=".625" stroke-linejoin="round"/></marker><radialGradient xlink:href="#a" id="b" gradientUnits="userSpaceOnUse" gradientTransform="matrix(1 0 0 2.43119 1.301 4179.676)" cx="-7817.805" cy="-2897.761" fx="-7817.805" fy="-2897.761" r="29.799"/></defs><path style="marker:none" color="#000" fill="#fff" stroke="#fff" stroke-width="1.459" stroke-linecap="round" stroke-linejoin="round" overflow="visible" d="M19.699 294.766h704.696v462.831H19.699z"/><path style="marker:none" color="#000" fill="#f2f2f2" stroke="#fff" stroke-width="1.36" stroke-linecap="round" stroke-linejoin="round" overflow="visible" d="M38.497 313.563h667.101v425.236H38.497z"/><path d="M549.788 344.412L114.272 514.943l507.235 28.266v-.047c-31.71-3.488-67.975-48.379-82.5-103.313-11.335-42.866-6.2-79.687 10.781-95.437z" style="marker:none" opacity=".5" color="#000" fill="#fd5" overflow="visible"/><g transform="matrix(.73938 0 0 .74575 5893.448 2676.35)" stroke="#501616" stroke-width="4.04"><path fill="#666" stroke-width="2.02" stroke-linejoin="round" d="M-7820.096-2837.776h5.051v51.518h-5.051z"/><rect ry="7.071" width="72.731" height="161.624" x="-7853.936" y="-2788.238" fill="#782121" stroke-linecap="round" stroke-linejoin="round"/><path d="M-7808.35-2825.562c-9.556 2.268-20.133-.305-27.58-6.71-7.446-6.404-11.573-16.478-10.76-26.266.516-6.203 2.875-12.12 5.811-17.609 2.936-5.489 6.463-10.64 9.557-16.04 13.163-22.974 18.147-50.526 13.867-76.655a4267.026 4267.026 0 0 0 23.88 85.526c2.368 8.15 4.776 16.387 5.173 24.865.396 8.477-1.414 17.355-6.704 23.99a26.672 26.672 0 0 1-13.243 8.9" fill="url(#b)" stroke-width="2.02"/></g><path d="M113.359 462.34l457.278-126.097M115.478 570.225l509.938-26.812" fill="none" stroke="#f60" stroke-width="1.5" stroke-linecap="round" marker-end="url(#c)"/><path d="M114.25 514.962l456.387-178.72M114.25 514.962l511.166 28.451" style="marker:none" color="#000" fill="#f60" stroke="#f60" stroke-width="3" stroke-linecap="round" stroke-linejoin="round" stroke-dasharray="3,9" overflow="visible"/><path transform="matrix(1.5653 0 .41688 1.5766 -475.299 -337.412)" d="M592.098 492.984a37.693 65.701 0 1 1-75.386 0 37.693 65.701 0 1 1 75.386 0z" style="marker:none" opacity=".5" color="#000" fill="#f60" stroke="#f60" stroke-width="1.91" stroke-linecap="round" stroke-linejoin="round" overflow="visible"/><g transform="matrix(4.5 0 0 4.5 -632.739 -140.461)" ns0:preamble="/home/waldgeist/data/sphinx/inkscape-preamble.tex" ns0:text="$r$" fill="#502d16" stroke="#999"><defs><symbol id="d" overflow="visible"><path d="M.875-.594c-.031.156-.094.39-.094.438 0 .172.14.265.297.265a.414.414 0 0 0 .375-.28c.016-.032.344-1.391.39-1.579.079-.328.266-1.016.313-1.297.047-.125.328-.594.563-.812.078-.063.375-.329.797-.329.265 0 .406.125.421.125-.296.047-.515.282-.515.547 0 .157.11.344.375.344s.547-.234.547-.594c0-.343-.313-.64-.828-.64-.641 0-1.079.484-1.266.765-.094-.453-.453-.765-.922-.765-.453 0-.64.39-.734.562-.172.344-.297.938-.297.969 0 .11.094.11.11.11.109 0 .109-.016.171-.235.172-.703.375-1.188.735-1.188.156 0 .296.079.296.454 0 .218-.03.328-.156.843zm0 0" stroke="none"/></symbol></defs><use y="134.765" x="223.432" xlink:href="#d" width="744.094" height="1052.362"/></g><path d="M114.25 514.962l483.776-75.134" style="marker:none" color="#000" fill="#f60" stroke="#502d16" stroke-width="3" stroke-linecap="round" stroke-linejoin="round" overflow="visible"/><path d="M570.729 336.26c-8.17 0-15.178 2.887-20.86 8.156L114.354 514.948l507.234 28.265v-.047c1.313.145 2.595.235 3.89.235 32.586 0 46.768-46.339 31.641-103.547-15.127-57.209-53.805-103.594-86.39-103.594z" style="marker:none" opacity=".5" color="#000" fill="#fd5" overflow="visible"/><path style="marker:none" d="M220.137 403.43a41.62 41.62 0 0 1 2.814 17.585" transform="scale(3.74388 -3.74388) rotate(15 2208.423 -428.526)" color="#000" fill="none" stroke="#502d16" stroke-width=".801" stroke-linecap="round" stroke-linejoin="round" marker-end="url(#e)" overflow="visible"/><g ns0:text="$\\Omega$" ns0:preamble="/home/waldgeist/data/sphinx/inkscape-preamble.tex" transform="matrix(4.5 0 0 4.5 -783.547 -95.67)" fill="#502d16" stroke="#999"><defs><symbol overflow="visible" id="f"><path d="M6.75-1.61H6.5a3.74 3.74 0 0 1-.188.72c-.046.156-.078.25-.656.25H4.86c.141-.563.438-1.047.891-1.704.469-.703.875-1.39.875-2.187 0-1.375-1.344-2.5-3.031-2.5-1.703 0-3.031 1.14-3.031 2.5 0 .797.406 1.484.875 2.187.437.656.75 1.14.89 1.703h-.797c-.578 0-.61-.093-.656-.234-.094-.234-.14-.484-.188-.734h-.25L.766 0h1.593c.22 0 .25 0 .25-.203 0-.703-.312-1.578-.53-2.219-.22-.578-.5-1.36-.5-2.11 0-1.593 1.109-2.28 2.015-2.28.953 0 2.015.718 2.015 2.28 0 .75-.28 1.5-.562 2.313-.156.422-.469 1.328-.469 2.016 0 .203.031.203.25.203h1.594zm0 0" stroke="none"/></symbol></defs><use height="1052.362" width="744.094" xlink:href="#f" x="223.432" y="134.765"/></g><g ns0:preamble="/home/waldgeist/data/sphinx/inkscape-preamble.tex" ns0:text="$A _{\\rm{b}}$" transform="matrix(4.5 0 0 4.5 -417.217 -103.48)" fill="#520" stroke="#520"><defs><symbol id="g" overflow="visible"><path d="M1.781-1.14C1.391-.485 1-.345.563-.314c-.125.016-.22.016-.22.204 0 .062.063.109.141.109.266 0 .579-.031.844-.031.344 0 .688.031 1 .031.063 0 .188 0 .188-.188 0-.109-.079-.124-.157-.124-.218-.016-.468-.094-.468-.344 0-.125.062-.235.14-.375l.766-1.266h2.5c.016.203.156 1.563.156 1.656 0 .297-.516.329-.719.329-.14 0-.234 0-.234.203C4.5 0 4.61 0 4.64 0c.407 0 .829-.031 1.235-.031.25 0 .89.031 1.14.031.048 0 .173 0 .173-.203 0-.11-.094-.11-.235-.11-.61 0-.61-.062-.64-.359l-.61-6.219c-.016-.203-.016-.25-.187-.25-.157 0-.204.079-.266.172zm1.203-1.47l1.954-3.296.328 3.297zm0 0" stroke="none"/></symbol><symbol id="h" overflow="visible"><path d="M1.39-4.844l-1.046.078v.25c.469 0 .515.063.515.407V0h.235l.25-.422c.265.344.656.484 1.015.484.922 0 1.704-.687 1.704-1.562 0-.86-.704-1.578-1.625-1.578-.422 0-.797.172-1.047.422zm.032 2.516a1.13 1.13 0 0 1 .984-.547c.39 0 .672.219.813.422.14.203.219.484.219.937 0 .157 0 .688-.282 1.016a1.111 1.111 0 0 1-.828.375c-.562 0-.844-.438-.906-.578zm0 0" stroke="none"/></symbol></defs><use y="134.765" x="223.432" xlink:href="#g" width="744.094" height="1052.362"/><use y="136.259" x="230.904" xlink:href="#h" width="744.094" height="1052.362"/></g><g transform="matrix(2.99579 0 0 2.99579 -572.043 147.311)" ns0:preamble="/home/waldgeist/data/sphinx/inkscape-preamble.tex" ns0:text="$A _{\\rm{l}}$" fill="#520" stroke="#520"><defs><symbol id="i" overflow="visible"><path d="M1.781-1.14C1.391-.485 1-.345.563-.314c-.125.016-.22.016-.22.204 0 .062.063.109.141.109.266 0 .579-.031.844-.031.344 0 .688.031 1 .031.063 0 .188 0 .188-.188 0-.109-.079-.124-.157-.124-.218-.016-.468-.094-.468-.344 0-.125.062-.235.14-.375l.766-1.266h2.5c.016.203.156 1.563.156 1.656 0 .297-.516.329-.719.329-.14 0-.234 0-.234.203C4.5 0 4.61 0 4.64 0c.407 0 .829-.031 1.235-.031.25 0 .89.031 1.14.031.048 0 .173 0 .173-.203 0-.11-.094-.11-.235-.11-.61 0-.61-.062-.64-.359l-.61-6.219c-.016-.203-.016-.25-.187-.25-.157 0-.204.079-.266.172zm1.203-1.47l1.954-3.296.328 3.297zm0 0" stroke="none"/></symbol><symbol id="j" overflow="visible"><path d="M1.438-4.844L.39-4.766v.25c.468 0 .515.063.515.391v3.578c0 .297-.062.297-.515.297V0c.015 0 .5-.031.78-.031.266 0 .516.015.782.031v-.25c-.453 0-.516 0-.516-.297zm0 0" stroke="none"/></symbol></defs><use y="134.765" x="223.432" xlink:href="#i"/><use y="136.259" x="230.904" xlink:href="#j"/></g></svg>