<svg xmlns:ns0="http://www.iki.fi/pav/software/textext/" xmlns="http://www.w3.org/2000/svg" xmlns:xlink="http://www.w3.org/1999/xlink" width="1122.52" height="793.701" viewBox="0 0 1052.3622 744.09448"><title>Bildentstehung am Woelbspiegel</title><defs><linearGradient id="a"><stop offset="0" stop-color="#f95"/><stop offset="1" stop-color="#fffb36"/></linearGradient><marker orient="auto" id="c" overflow="visible"><path d="M8.719 4.034L-2.207.016 8.719-4.002c-1.746 2.372-1.736 5.618 0 8.036z" transform="scale(-.6)" font-size="12" fill-rule="evenodd" stroke-width=".625" stroke-linejoin="round"/></marker><linearGradient id="b"><stop offset="0" stop-color="#f95"/><stop offset="1" stop-color="#fffb36"/></linearGradient><radialGradient r="29.799" fy="-2897.761" fx="-7817.805" cy="-2897.761" cx="-7817.805" gradientTransform="matrix(.2015 0 0 .5106 1968.41 2303.543)" gradientUnits="userSpaceOnUse" id="e" xlink:href="#b"/><radialGradient xlink:href="#a" id="d" gradientUnits="userSpaceOnUse" gradientTransform="matrix(.19753 0 0 .50055 1931.697 2275.391)" cx="-7817.805" cy="-2897.761" fx="-7817.805" fy="-2897.761" r="29.799"/></defs><g transform="translate(0 -308.268)"><path style="marker:none" color="#000" overflow="visible" fill="#fff" stroke="#fff" stroke-linecap="round" d="M255.74 474.871h540.883v410.888H255.74z"/><path d="M463.308 570.212l147.273 110.103" fill="none" stroke="#f60" stroke-width="1.5" stroke-linecap="round" stroke-dasharray="1.49999998,2.99999997"/><path d="M783.654 680.315H268.708" fill="none" stroke="#000" stroke-width=".878" stroke-dasharray=".8783078,1.75661551"/><circle transform="matrix(-.02631 0 0 .02631 635.923 659.395)" cx="963.18" cy="795.107" r="118.693" stroke="#000" stroke-width="58.352" stroke-linecap="round"/><circle transform="matrix(-.02631 0 0 .02631 789.261 659.395)" cx="963.18" cy="795.107" r="118.693" stroke="#000" stroke-width="58.352" stroke-linecap="round"/><g fill="none" stroke="#f60" stroke-width=".989" stroke-linecap="round"><path d="M763.92 680.315a605958907.829 605958907.829 0 0 1-313.63-78.053" stroke-dasharray=".98920896,1.97841792" stroke-width="1.4996800399999999"/><path d="M390.768 581.439l84.805 29.253" marker-end="url(#c)" transform="matrix(1.51126 -.12429 .12429 1.51126 -346.98 -262.241)"/></g><g fill="none"><path transform="matrix(-2.66133 0 0 2.66297 3322.757 -1437.029)" d="M1065.972 735.76a118.693 118.693 0 0 1 0 118.694" stroke="#000" stroke-width=".751"/><path d="M483.37 520.715a319.2 319.2 0 0 1 0 319.2" stroke="#b3b3b3" stroke-width="2.00083176"/></g><path d="M460.822 568.45a68585.715 68585.715 0 0 1-74.613-55.79" fill="#f60" stroke="#d40000" stroke-width="1.5" stroke-linecap="round" marker-end="url(#c)"/><g transform="matrix(-.78965 0 0 .78965 840.654 -11.358)" opacity=".5" stroke="#501616"><path fill="#666" stroke-width=".633" stroke-linejoin="round" stroke-dasharray=".63319084,1.26638168" d="M386.742 830.59h.998v10.607h-.998z"/><rect ry="1.456" width="14.366" height="33.276" x="380.058" y="840.789" fill="#782121" stroke-width="1.266" stroke-linecap="round" stroke-linejoin="round" stroke-dasharray="1.26638168,2.53276336"/><path d="M389.062 833.105a6.546 6.546 0 0 1-5.446-1.543 6.546 6.546 0 0 1-2.127-5.246c.088-1.27.551-2.487 1.133-3.619.582-1.131 1.286-2.196 1.902-3.31a24.647 24.647 0 0 0 2.74-15.782 536.807 536.807 0 0 0 4.717 17.61c.48 1.677.972 3.372 1.055 5.115.083 1.744-.281 3.57-1.358 4.943a5.531 5.531 0 0 1-2.616 1.832z" fill="url(#d)" stroke-width=".633" stroke-dasharray=".63319084,1.26638168"/></g><g transform="matrix(1.54632 0 0 1.54632 -293.445 -672.722)" stroke="#501616"><path fill="#666" stroke-width=".323" stroke-linejoin="round" d="M392.419 829.717h1.018v10.82h-1.018z"/><rect y="840.121" x="385.6" height="33.945" width="14.655" ry="1.485" fill="#782121" stroke-width=".647" stroke-linecap="round" stroke-linejoin="round"/><path d="M394.786 832.282a6.677 6.677 0 0 1-5.556-1.574 6.677 6.677 0 0 1-2.17-5.352c.09-1.295.563-2.536 1.156-3.69.594-1.155 1.312-2.241 1.94-3.377a25.142 25.142 0 0 0 2.795-16.099 547.629 547.629 0 0 0 4.812 17.962c.49 1.712.991 3.44 1.076 5.22.085 1.778-.286 3.64-1.385 5.041a5.642 5.642 0 0 1-2.668 1.87z" fill="url(#e)" stroke-width=".323"/></g><path d="M314.424 567.897h142.32" fill="#f60" stroke="#f60" stroke-width="1.5" stroke-linecap="round" marker-end="url(#c)"/><g ns0:text="$\\rm{M}$" ns0:preamble="/home/waldgeist/data/sphinx/inkscape-preamble.tex" transform="translate(-179.94 168.157) scale(4.13969)"><defs><symbol overflow="visible" id="f"><path d="M2.406-6.594c-.094-.218-.125-.218-.36-.218H.376v.312h.234c.766 0 .782.11.782.469v4.984c0 .266 0 .734-1.016.734V0c.344-.016.828-.031 1.156-.031.328 0 .828.015 1.172.031v-.313c-1.031 0-1.031-.468-1.031-.734v-5.375h.016L4.094-.219c.047.125.093.219.187.219.11 0 .14-.078.188-.188L6.922-6.5v5.719c0 .36-.016.469-.781.469h-.235V0c.36-.031 1.047-.031 1.438-.031.375 0 1.047 0 1.422.031v-.313h-.25c-.766 0-.782-.109-.782-.468v-5.25c0-.36.016-.469.782-.469h.25v-.313H7.078c-.266 0-.266.016-.328.188L4.562-1z"/></symbol></defs><use height="744.094" width="1052.362" xlink:href="#f" x="223.432" y="134.765"/></g><g transform="translate(-327.619 168.028) scale(4.13969)" ns0:preamble="/home/waldgeist/data/sphinx/inkscape-preamble.tex" ns0:text="$\\rm{F}$"><defs><symbol id="g" overflow="visible"><path d="M5.797-6.781H.328v.312h.234c.766 0 .797.11.797.469v5.219c0 .36-.03.469-.796.469H.328V0c.344-.031 1.125-.031 1.516-.031.406 0 1.312 0 1.672.031v-.313h-.329c-.937 0-.937-.124-.937-.468v-2.453h.844c.969 0 1.062.312 1.062 1.156h.25v-2.64h-.25c0 .843-.093 1.171-1.062 1.171H2.25v-2.531c0-.328.016-.39.484-.39h1.188c1.5 0 1.75.562 1.906 1.937h.25z"/></symbol></defs><use y="134.765" x="223.432" xlink:href="#g" width="1052.362" height="744.094"/></g></g></svg>