<svg xmlns:ns0="http://www.iki.fi/pav/software/textext/" xmlns="http://www.w3.org/2000/svg" xmlns:xlink="http://www.w3.org/1999/xlink" width="1122.52" height="793.701" viewBox="0 0 1052.3622 744.09448"><title>Bildentstehung an einer Zerstreuungslinse</title><defs><marker id="f" orient="auto" overflow="visible"><path transform="scale(-.6)" d="M8.719 4.034L-2.207.016 8.719-4.002c-1.746 2.372-1.736 5.618 0 8.036z" font-size="12" fill-rule="evenodd" stroke-width=".625" stroke-linejoin="round"/></marker><linearGradient id="a"><stop offset="0" stop-color="#f95"/><stop offset="1" stop-color="#fffb36"/></linearGradient><radialGradient xlink:href="#b" id="c" gradientUnits="userSpaceOnUse" gradientTransform="matrix(1 0 0 2.43119 1.301 4179.676)" cx="-7817.805" cy="-2897.761" fx="-7817.805" fy="-2897.761" r="29.799"/><linearGradient id="b"><stop offset="0" stop-color="#f95"/><stop offset="1" stop-color="#fffb36"/></linearGradient><radialGradient xlink:href="#b" id="d" gradientUnits="userSpaceOnUse" gradientTransform="matrix(1 0 0 2.43119 1.301 4179.676)" cx="-7817.805" cy="-2897.761" fx="-7817.805" fy="-2897.761" r="29.799"/><marker id="e" orient="auto" overflow="visible"><path transform="scale(-.6)" d="M8.719 4.034L-2.207.016 8.719-4.002c-1.746 2.372-1.736 5.618 0 8.036z" font-size="12" fill-rule="evenodd" stroke-width=".625" stroke-linejoin="round"/></marker></defs><path style="marker:none" color="#000" overflow="visible" fill="#f9f9f9" stroke="#f9f9f9" stroke-width=".427" stroke-linecap="round" stroke-dasharray="1.28196477,2.56392956" d="M297.869 191.853h456.625v360.388H297.869z"/><g transform="matrix(.2015 0 0 .21002 2051.376 956.257)" stroke="#501616" stroke-width="4.861"><path fill="#666" stroke-width="2.431" stroke-linejoin="round" d="M-7820.096-2837.776h5.051v51.518h-5.051z"/><rect ry="7.071" width="72.731" height="161.624" x="-7853.936" y="-2788.238" fill="#782121" stroke-linecap="round" stroke-linejoin="round"/><path d="M-7808.35-2825.562c-9.556 2.268-20.133-.305-27.58-6.71-7.446-6.404-11.573-16.478-10.76-26.266.516-6.203 2.875-12.12 5.811-17.609 2.936-5.489 6.463-10.64 9.557-16.04 13.163-22.974 18.147-50.526 13.867-76.655a4267.026 4267.026 0 0 0 23.88 85.526c2.368 8.15 4.776 16.387 5.173 24.865.396 8.477-1.414 17.355-6.704 23.99a26.672 26.672 0 0 1-13.243 8.9z" fill="url(#c)" stroke-width="2.431"/></g><g transform="matrix(.10476 0 0 .11283 1318.515 700.96)" opacity=".5" stroke="#501616" stroke-width="9.198" stroke-dasharray="9.19796365,18.39592727"><path fill="#666" stroke-linejoin="round" d="M-7820.096-2837.776h5.051v51.518h-5.051z"/><rect y="-2788.238" x="-7853.936" height="161.624" width="72.731" ry="7.071" fill="#782121" stroke-linecap="round" stroke-linejoin="round"/><path d="M-7808.35-2825.562c-9.556 2.268-20.133-.305-27.58-6.71-7.446-6.404-11.573-16.478-10.76-26.266.516-6.203 2.875-12.12 5.811-17.609 2.936-5.489 6.463-10.64 9.557-16.04 13.163-22.974 18.147-50.526 13.867-76.655a4267.026 4267.026 0 0 0 23.88 85.526c2.368 8.15 4.776 16.387 5.173 24.865.396 8.477-1.414 17.355-6.704 23.99a26.672 26.672 0 0 1-13.243 8.9z" fill="url(#d)"/></g><path d="M466.166 731.14c43.498-123.56 43.498-275.79 0-399.349h95.756c-43.499 123.559-43.499 275.79 0 399.348z" stroke="gray" stroke-width="3.745" stroke-linecap="round" transform="matrix(.46374 0 0 .615 287.8 78.699)" fill="#ececec"/><path d="M359.674 405.547h333.014" fill="none" stroke="#000" stroke-width=".878" stroke-dasharray=".8783078,1.75661553"/><path d="M476.302 333.087l49.88 72.46" fill="none" stroke="#f60" stroke-width="1.5" stroke-linecap="round"/><path d="M475.37 414.876h-15.12v.864h.649c2.116 0 2.203.302 2.203 1.295v14.428c0 .993-.087 1.296-2.203 1.296h-.648v.864c.95-.087 3.11-.087 4.19-.087 1.123 0 3.628 0 4.622.087v-.864h-.908c-2.591 0-2.591-.346-2.591-1.296v-6.782h2.332c2.678 0 2.938.864 2.938 3.197h.69v-7.3h-.69c0 2.332-.26 3.24-2.938 3.24h-2.332v-6.999c0-.907.043-1.08 1.339-1.08h3.283c4.146 0 4.838 1.556 5.27 5.357h.69z" ns0:text="$\\rm{F}$" ns0:preamble="/home/waldgeist/data/sphinx/inkscape-preamble.tex"/><g transform="translate(341.36 -508.94)" stroke="#000" stroke-width="90.232" stroke-linecap="round"><circle transform="matrix(.01702 0 0 .01702 52.477 900.958)" cx="963.18" cy="795.107" r="118.693"/><circle transform="matrix(-.01702 0 0 .01702 317.148 900.958)" cx="963.18" cy="795.107" r="118.693"/></g><g transform="translate(341.36 -508.94)" stroke="#000" stroke-width="90.232" stroke-linecap="round"><circle transform="matrix(.01702 0 0 .01702 110.45 900.958)" cx="963.18" cy="795.107" r="118.693"/><circle transform="matrix(-.01702 0 0 .01702 259.175 900.958)" cx="963.18" cy="795.107" r="118.693"/></g><path d="M526.931 641.029l98.643-122.477" fill="none" stroke="#d40000" stroke-width="1.5" stroke-linecap="round" marker-end="url(#e)" transform="translate(0 -308.268)"/><path d="M526.181 713.815l85.357 124" fill="none" stroke="#d40000" stroke-width="1.5" stroke-linecap="round" marker-end="url(#f)" transform="translate(0 -308.268)"/><path d="M468.199 405.547l57.982-73.96" fill="none" stroke="#f60" stroke-width="1.5" stroke-linecap="round" stroke-dasharray="1.5,4.5"/><path d="M476.302 641.355h49.66" fill="none" stroke="#f60" stroke-width="1.5" stroke-linecap="round" marker-end="url(#f)" transform="translate(0 -308.268)"/></svg>