<svg xmlns:ns0="http://www.iki.fi/pav/software/textext/" xmlns="http://www.w3.org/2000/svg" xmlns:xlink="http://www.w3.org/1999/xlink" width="1122.52" height="793.701" viewBox="0 0 1052.3622 744.09448"><title>Bildentstehung am Hohlspiegel (Gegenstand innerhalb der Brennweite)</title><defs><marker id="c" orient="auto" overflow="visible"><path transform="scale(-.6)" d="M8.719 4.034L-2.207.016 8.719-4.002c-1.746 2.372-1.736 5.618 0 8.036z" font-size="12" fill-rule="evenodd" stroke-width=".625" stroke-linejoin="round"/></marker><linearGradient id="a"><stop offset="0" stop-color="#f95"/><stop offset="1" stop-color="#fffb36"/></linearGradient><marker id="b" orient="auto" overflow="visible"><path transform="scale(-.6)" d="M8.719 4.034L-2.207.016 8.719-4.002c-1.746 2.372-1.736 5.618 0 8.036z" font-size="12" fill-rule="evenodd" stroke-width=".625" stroke-linejoin="round"/></marker><radialGradient xlink:href="#a" id="d" gradientUnits="userSpaceOnUse" gradientTransform="matrix(.2015 0 0 .5106 1968.41 2303.543)" cx="-7817.805" cy="-2897.761" fx="-7817.805" fy="-2897.761" r="29.799"/><radialGradient xlink:href="#a" id="e" gradientUnits="userSpaceOnUse" gradientTransform="matrix(1 0 0 2.43119 1.301 4179.676)" cx="-7817.805" cy="-2897.761" fx="-7817.805" fy="-2897.761" r="29.799"/></defs><g transform="translate(0 -308.268)"><path style="marker:none" color="#000" overflow="visible" fill="#fff" stroke="#fff" stroke-linecap="round" d="M351.287 547.455h349.787v265.72H351.287z"/><path d="M656.939 579.788H618.57" fill="none" stroke="#d40000" stroke-width="1.5" stroke-linecap="round" stroke-dasharray="1.5,3"/><path d="M359.674 680.315h333.014" fill="none" stroke="#000" stroke-width=".878" stroke-dasharray=".8783078,1.75661553"/><path d="M593.844 608.661l14.415-6.522 14.415-6.521" fill="none" stroke="#f60" stroke-width="1.5" marker-end="url(#b)"/><circle transform="matrix(.01702 0 0 .01702 519.212 666.786)" cx="963.18" cy="795.107" r="118.693" stroke="#000" stroke-width="90.232" stroke-linecap="round"/><path d="M626.546 593.856l30.757-13.917" fill="none" stroke="#f60" stroke-width="1.5" stroke-linecap="round" stroke-dasharray="1.50000024,3.00000048" marker-mid="url(#c)"/><path d="M616.526 579.766h-179.34" fill="none" stroke="#d40000" stroke-width="1.5" stroke-linecap="round" marker-end="url(#b)"/><g fill="none"><path d="M1065.972 735.76a118.693 118.693 0 0 1 0 118.694" transform="matrix(1.72108 0 0 1.72213 -1218.356 -688.965)" stroke="#b3b3b3" stroke-width="1.162"/><path d="M617.866 577.102a206.425 206.425 0 0 1 0 206.426" stroke="#000" stroke-width="2.0000225"/></g><path d="M593.747 608.202l10.686-13.253 10.687-13.253" fill="none" stroke="#f60" stroke-width="1.5" marker-end="url(#b)"/><g transform="translate(200.58 -194.69)" stroke="#501616"><path fill="#666" stroke-width=".5" stroke-linejoin="round" d="M392.419 829.717h1.018v10.82h-1.018z"/><rect y="840.121" x="385.6" height="33.945" width="14.655" ry="1.485" fill="#782121" stroke-linecap="round" stroke-linejoin="round"/><path d="M394.786 832.282a6.677 6.677 0 0 1-5.556-1.574 6.677 6.677 0 0 1-2.17-5.352c.09-1.295.563-2.536 1.156-3.69.594-1.155 1.312-2.241 1.94-3.377a25.142 25.142 0 0 0 2.795-16.099 547.629 547.629 0 0 0 4.812 17.962c.49 1.712.991 3.44 1.076 5.22.085 1.778-.286 3.64-1.385 5.041a5.642 5.642 0 0 1-2.668 1.87z" fill="url(#d)" stroke-width=".5"/></g><g transform="matrix(.27178 0 0 .291 2781.96 1443.714)" opacity=".5" stroke="#501616" stroke-width="3.556" stroke-dasharray="3.55587852,7.11175702"><path fill="#666" stroke-linejoin="round" d="M-7820.096-2837.776h5.051v51.518h-5.051z"/><rect ry="7.071" width="72.731" height="161.624" x="-7853.936" y="-2788.238" fill="#782121" stroke-linecap="round" stroke-linejoin="round"/><path d="M-7808.35-2825.562c-9.556 2.268-20.133-.305-27.58-6.71-7.446-6.404-11.573-16.478-10.76-26.266.516-6.203 2.875-12.12 5.811-17.609 2.936-5.489 6.463-10.64 9.557-16.04 13.163-22.974 18.147-50.526 13.867-76.655a4267.026 4267.026 0 0 0 23.88 85.526c2.368 8.15 4.776 16.387 5.173 24.865.396 8.477-1.414 17.355-6.704 23.99a26.672 26.672 0 0 1-13.243 8.9z" fill="url(#e)"/></g><circle transform="matrix(.01702 0 0 .01702 420.048 666.786)" cx="963.18" cy="795.107" r="118.693" stroke="#000" stroke-width="90.232" stroke-linecap="round"/><path d="M535.6 680.315l28.754-35.66 28.754-35.661" fill="none" stroke="#f60" stroke-width="1.5" stroke-linecap="round" stroke-dasharray="1.5,3"/><path d="M437.167 679.546l78.339-35.442 78.338-35.443" fill="none" stroke="#f60" stroke-width="1.5" stroke-linecap="round" stroke-dasharray="1.50000012,3.00000024"/><g ns0:text="$\\rm{M}$" ns0:preamble="/home/waldgeist/data/sphinx/inkscape-preamble.tex" transform="matrix(2.67713 0 0 2.67713 -173.954 349.012)"><defs><symbol overflow="visible" id="f"><path d="M2.406-6.594c-.094-.218-.125-.218-.36-.218H.376v.312h.234c.766 0 .782.11.782.469v4.984c0 .266 0 .734-1.016.734V0c.344-.016.828-.031 1.156-.031.328 0 .828.015 1.172.031v-.313c-1.031 0-1.031-.468-1.031-.734v-5.375h.016L4.094-.219c.047.125.093.219.187.219.11 0 .14-.078.188-.188L6.922-6.5v5.719c0 .36-.016.469-.781.469h-.235V0c.36-.031 1.047-.031 1.438-.031.375 0 1.047 0 1.422.031v-.313h-.25c-.766 0-.782-.109-.782-.468v-5.25c0-.36.016-.469.782-.469h.25v-.313H7.078c-.266 0-.266.016-.328.188L4.562-1z"/></symbol></defs><use height="744.094" width="1052.362" xlink:href="#f" x="223.432" y="134.765"/></g><g transform="matrix(2.67713 0 0 2.67713 -71.13 349.012)" ns0:preamble="/home/waldgeist/data/sphinx/inkscape-preamble.tex" ns0:text="$\\rm{F}$"><defs><symbol id="g" overflow="visible"><path d="M5.797-6.781H.328v.312h.234c.766 0 .797.11.797.469v5.219c0 .36-.03.469-.796.469H.328V0c.344-.031 1.125-.031 1.516-.031.406 0 1.312 0 1.672.031v-.313h-.329c-.937 0-.937-.124-.937-.468v-2.453h.844c.969 0 1.062.312 1.062 1.156h.25v-2.64h-.25c0 .843-.093 1.171-1.062 1.171H2.25v-2.531c0-.328.016-.39.484-.39h1.188c1.5 0 1.75.562 1.906 1.937h.25z"/></symbol></defs><use y="134.765" x="223.432" xlink:href="#g" width="1052.362" height="744.094"/></g></g></svg>