<svg xmlns:ns0="http://www.iki.fi/pav/software/textext/" xmlns="http://www.w3.org/2000/svg" xmlns:xlink="http://www.w3.org/1999/xlink" width="1052.362" height="744.094"><title>Bildentstehung an einer Sammellinse (Gegenstand ausserhalb der Brennweite)</title><defs><linearGradient id="a"><stop offset="0" stop-color="#f95"/><stop offset="1" stop-color="#fffb36"/></linearGradient><linearGradient id="b"><stop offset="0" stop-color="#f95"/><stop offset="1" stop-color="#fffb36"/></linearGradient><linearGradient id="c"><stop offset="0" stop-color="#f95"/><stop offset="1" stop-color="#fffb36"/></linearGradient><linearGradient id="d"><stop offset="0" stop-color="#f95"/><stop offset="1" stop-color="#fffb36"/></linearGradient><marker id="g" orient="auto" overflow="visible"><path transform="scale(-.6)" d="M8.719 4.034L-2.207.016 8.719-4.002c-1.746 2.372-1.736 5.618 0 8.036z" font-size="12" fill-rule="evenodd" stroke-width=".625" stroke-linejoin="round"/></marker><radialGradient xlink:href="#d" id="e" gradientUnits="userSpaceOnUse" gradientTransform="matrix(1 0 0 2.43119 1.301 4179.676)" cx="-7817.805" cy="-2897.761" fx="-7817.805" fy="-2897.761" r="29.799"/><radialGradient xlink:href="#d" id="f" gradientUnits="userSpaceOnUse" gradientTransform="matrix(1 0 0 2.43119 1.301 4179.676)" cx="-7817.805" cy="-2897.761" fx="-7817.805" fy="-2897.761" r="29.799"/><radialGradient xlink:href="#d" id="i" gradientUnits="userSpaceOnUse" gradientTransform="matrix(1 0 0 2.43119 1.301 4179.676)" cx="-7817.805" cy="-2897.761" fx="-7817.805" fy="-2897.761" r="29.799"/><radialGradient xlink:href="#d" id="j" gradientUnits="userSpaceOnUse" gradientTransform="matrix(1 0 0 2.43119 1.301 4179.676)" cx="-7817.805" cy="-2897.761" fx="-7817.805" fy="-2897.761" r="29.799"/><radialGradient xlink:href="#d" id="k" gradientUnits="userSpaceOnUse" gradientTransform="matrix(1 0 0 2.43119 1.301 4179.676)" cx="-7817.805" cy="-2897.761" fx="-7817.805" fy="-2897.761" r="29.799"/><radialGradient xlink:href="#d" id="l" gradientUnits="userSpaceOnUse" gradientTransform="matrix(1 0 0 2.43119 1.301 4179.676)" cx="-7817.805" cy="-2897.761" fx="-7817.805" fy="-2897.761" r="29.799"/></defs><g transform="translate(0 -308.268)"><use transform="matrix(2.67713 0 0 2.67713 -176.213 349.012)" y="134.765" x="223.432" xlink:href="#textext-66d16391-0" width="1052.362" height="744.094"/><use transform="matrix(2.67713 0 0 2.67713 67.276 349.104)" y="134.765" x="223.432" xlink:href="#textext-66d16391-0" width="1052.362" height="744.094"/><path style="marker:none" color="#000" fill="#fff" stroke="#fff" stroke-linecap="round" overflow="visible" d="M19.919 515.13h1031.362V845.5H19.919z"/><path style="marker:none" color="#000" fill="#f9f9f9" stroke="#f9f9f9" stroke-width=".427" stroke-linecap="round" stroke-dasharray="1.28196475,2.56392951" overflow="visible" d="M710.825 573.327h326.655v213.976H710.825z"/><path style="marker:none" color="#000" fill="#f9f9f9" stroke="#f9f9f9" stroke-width=".427" stroke-linecap="round" stroke-dasharray="1.28196473,2.56392948" overflow="visible" d="M359.449 573.327h333.465v213.976H359.449zM8.448 573.327h333.465v213.976H8.448z"/><path d="M8.887 680.315H341.9" fill="none" stroke="#000" stroke-width=".878" stroke-dasharray=".8783078,1.75661553"/><g fill="#ececec" stroke="gray" stroke-width="1.562" stroke-linecap="round"><path d="M1065.972 735.76c21.202 36.724 21.202 81.97 0 118.694" transform="matrix(.95139 0 0 1.72213 -829.267 -688.965)"/><path transform="matrix(-.95139 0 0 1.72213 1198.893 -688.965)" d="M1065.972 735.76c21.202 36.724 21.202 81.97 0 118.694"/></g><path d="M184.726 680.27l48.386 24.575L281.5 729.42" fill="none" stroke="#d40000" stroke-width="1.5"/><g transform="matrix(.2015 0 0 .21002 1617.36 1231.025)" stroke="#501616" stroke-width="4.861"><path fill="#666" stroke-width="2.431" stroke-linejoin="round" d="M-7820.096-2837.776h5.051v51.518h-5.051z"/><rect ry="7.071" width="72.731" height="161.624" x="-7853.936" y="-2788.238" fill="#782121" stroke-linecap="round" stroke-linejoin="round"/><path d="M-7808.35-2825.562c-9.556 2.268-20.133-.305-27.58-6.71-7.446-6.404-11.573-16.478-10.76-26.266.516-6.203 2.875-12.12 5.811-17.609 2.936-5.489 6.463-10.64 9.557-16.04 13.163-22.974 18.147-50.526 13.867-76.655a4267.026 4267.026 0 0 0 23.88 85.526c2.368 8.15 4.776 16.387 5.173 24.865.396 8.477-1.414 17.355-6.704 23.99a26.672 26.672 0 0 1-13.243 8.9" fill="url(#e)" stroke-width="2.431"/></g><g transform="matrix(.13588 0 0 -.13897 1344.12 316.24)" opacity=".5" stroke="#501616" stroke-width="7.277" stroke-dasharray="7.27732116,14.55464232"><path fill="#666" stroke-linejoin="round" d="M-7820.096-2837.776h5.051v51.518h-5.051z"/><rect y="-2788.238" x="-7853.936" height="161.624" width="72.731" ry="7.071" fill="#782121" stroke-linecap="round" stroke-linejoin="round"/><path d="M-7808.35-2825.562c-9.556 2.268-20.133-.305-27.58-6.71-7.446-6.404-11.573-16.478-10.76-26.266.516-6.203 2.875-12.12 5.811-17.609 2.936-5.489 6.463-10.64 9.557-16.04 13.163-22.974 18.147-50.526 13.867-76.655a4267.026 4267.026 0 0 0 23.88 85.526c2.368 8.15 4.776 16.387 5.173 24.865.396 8.477-1.414 17.355-6.704 23.99a26.672 26.672 0 0 1-13.243 8.9" fill="url(#f)"/></g><path d="M42.364 608.072l71.224 36.122 71.225 36.12" fill="none" stroke="#f60" stroke-width="1.5"/><path d="M184.739 729.986h96.475" fill="none" stroke="#d40000" stroke-width="1.5" stroke-linecap="round" marker-end="url(#g)"/><path d="M42.364 608.185l140.888.12" fill="none" stroke="#f60" stroke-width="1.5" marker-end="url(#g)"/><g ns0:text="$\\rm{F}$" ns0:preamble="/home/waldgeist/data/sphinx/inkscape-preamble.tex" transform="matrix(2.76452 0 0 2.76452 -499.725 337.83)"><defs><symbol overflow="visible" id="h"><path d="M5.797-6.781H.328v.312h.234c.766 0 .797.11.797.469v5.219c0 .36-.03.469-.796.469H.328V0c.344-.031 1.125-.031 1.516-.031.406 0 1.312 0 1.672.031v-.313h-.329c-.937 0-.937-.124-.937-.468v-2.453h.844c.969 0 1.062.312 1.062 1.156h.25v-2.64h-.25c0 .843-.093 1.171-1.062 1.171H2.25v-2.531c0-.328.016-.39.484-.39h1.188c1.5 0 1.75.562 1.906 1.937h.25z"/></symbol></defs><use height="744.094" width="1052.362" xlink:href="#h" x="223.432" y="134.765"/></g><g stroke="#000" stroke-width="90.232" stroke-linecap="round"><path d="M70.886 680.315a2.02 2.02 0 1 1-4.04 0 2.02 2.02 0 0 1 4.04 0zM298.74 680.315a2.02 2.02 0 1 0 4.04 0 2.02 2.02 0 0 0-4.04 0z" stroke-width="1.53574864"/></g><g stroke="#000" stroke-width="90.232" stroke-linecap="round"><path d="M128.859 680.315a2.02 2.02 0 1 1-4.04 0 2.02 2.02 0 0 1 4.04 0zM240.767 680.315a2.02 2.02 0 1 0 4.039 0 2.02 2.02 0 0 0-4.04 0z" stroke-width="1.53574864"/></g><path d="M184.739 608.37l97.203 120.48" fill="none" stroke="#d40000" stroke-width="1.5" stroke-linecap="round" marker-end="url(#g)"/><path d="M42.45 608.209l142.289 121.777" fill="none" stroke="#f60" stroke-width="1.5" marker-end="url(#g)"/><path d="M701.575 541.172v278.286" fill="gray" stroke="gray" stroke-linecap="round"/><path d="M359.674 680.315h333.014" fill="none" stroke="#000" stroke-width=".878" stroke-dasharray=".8783078,1.75661553"/><g transform="matrix(.2015 0 0 .21002 1985.584 1231.025)" stroke="#501616" stroke-width="4.861"><path fill="#666" stroke-width="2.431" stroke-linejoin="round" d="M-7820.096-2837.776h5.051v51.518h-5.051z"/><rect y="-2788.238" x="-7853.936" height="161.624" width="72.731" ry="7.071" fill="#782121" stroke-linecap="round" stroke-linejoin="round"/><path d="M-7808.35-2825.562c-9.556 2.268-20.133-.305-27.58-6.71-7.446-6.404-11.573-16.478-10.76-26.266.516-6.203 2.875-12.12 5.811-17.609 2.936-5.489 6.463-10.64 9.557-16.04 13.163-22.974 18.147-50.526 13.867-76.655a4267.026 4267.026 0 0 0 23.88 85.526c2.368 8.15 4.776 16.387 5.173 24.865.396 8.477-1.414 17.355-6.704 23.99a26.672 26.672 0 0 1-13.243 8.9" fill="url(#i)" stroke-width="2.431"/></g><g transform="matrix(.2139 0 0 -.21296 2315.245 122.816)" opacity=".5" stroke="#501616" stroke-width="4.685" stroke-dasharray="4.68525055,9.3705011"><path fill="#666" stroke-linejoin="round" d="M-7820.096-2837.776h5.051v51.518h-5.051z"/><rect ry="7.071" width="72.731" height="161.624" x="-7853.936" y="-2788.238" fill="#782121" stroke-linecap="round" stroke-linejoin="round"/><path d="M-7808.35-2825.562c-9.556 2.268-20.133-.305-27.58-6.71-7.446-6.404-11.573-16.478-10.76-26.266.516-6.203 2.875-12.12 5.811-17.609 2.936-5.489 6.463-10.64 9.557-16.04 13.163-22.974 18.147-50.526 13.867-76.655a4267.026 4267.026 0 0 0 23.88 85.526c2.368 8.15 4.776 16.387 5.173 24.865.396 8.477-1.414 17.355-6.704 23.99a26.672 26.672 0 0 1-13.243 8.9" fill="url(#j)"/></g><g fill="#ececec" stroke="gray" stroke-width="1.562" stroke-linecap="round"><path transform="matrix(.95139 0 0 1.72213 -487.768 -688.965)" d="M1065.972 735.76c21.202 36.724 21.202 81.97 0 118.694"/><path d="M1065.972 735.76c21.202 36.724 21.202 81.97 0 118.694" transform="matrix(-.95139 0 0 1.72213 1540.391 -688.965)"/></g><path d="M410.388 607.5l115.923 72.815" fill="none" stroke="#f60" stroke-width="1.5"/><path d="M526.311 680.315l116.709 73.822" fill="none" stroke="#d40000" stroke-width="1.5"/><path d="M526.988 754.334h114.284" fill="none" stroke="#d40000" stroke-width="1.5" stroke-linecap="round" marker-end="url(#g)"/><path d="M410.428 607.608l114.323.697" fill="none" stroke="#f60" stroke-width="1.5" marker-end="url(#g)"/><use y="134.765" x="223.432" xlink:href="#h" width="1052.362" height="744.094" transform="matrix(2.76452 0 0 2.76452 -158.227 337.83)" ns0:preamble="/home/waldgeist/data/sphinx/inkscape-preamble.tex" ns0:text="$\\rm{F}$"/><g stroke="#000" stroke-width="90.232" stroke-linecap="round"><path d="M412.384 680.315a2.02 2.02 0 1 1-4.04 0 2.02 2.02 0 0 1 4.04 0zM640.239 680.315a2.02 2.02 0 1 0 4.039 0 2.02 2.02 0 0 0-4.04 0z" stroke-width="1.53574864"/></g><g stroke="#000" stroke-width="90.232" stroke-linecap="round"><path d="M470.357 680.315a2.02 2.02 0 1 1-4.039 0 2.02 2.02 0 0 1 4.04 0zM582.265 680.315a2.02 2.02 0 1 0 4.04 0 2.02 2.02 0 0 0-4.04 0z" stroke-width="1.53574864"/></g><path d="M410.388 607.5l115.85 146.025" fill="none" stroke="#f60" stroke-width="1.5" marker-end="url(#g)"/><path d="M526.238 608.37l115.997 144.76" fill="none" stroke="#d40000" stroke-width="1.5" stroke-linecap="round" marker-end="url(#g)"/><path d="M350.745 541.172v278.286" fill="gray" stroke="gray" stroke-linecap="round"/><path d="M710.462 680.315h333.013" fill="none" stroke="#000" stroke-width=".878" stroke-dasharray=".8783078,1.75661553"/><g transform="matrix(.2015 0 0 .21002 2356.163 1231.025)" stroke="#501616" stroke-width="4.861"><path fill="#666" stroke-width="2.431" stroke-linejoin="round" d="M-7820.096-2837.776h5.051v51.518h-5.051z"/><rect y="-2788.238" x="-7853.936" height="161.624" width="72.731" ry="7.071" fill="#782121" stroke-linecap="round" stroke-linejoin="round"/><path d="M-7808.35-2825.562c-9.556 2.268-20.133-.305-27.58-6.71-7.446-6.404-11.573-16.478-10.76-26.266.516-6.203 2.875-12.12 5.811-17.609 2.936-5.489 6.463-10.64 9.557-16.04 13.163-22.974 18.147-50.526 13.867-76.655a4267.026 4267.026 0 0 0 23.88 85.526c2.368 8.15 4.776 16.387 5.173 24.865.396 8.477-1.414 17.355-6.704 23.99a26.672 26.672 0 0 1-13.243 8.9" fill="url(#k)" stroke-width="2.431"/></g><g transform="matrix(.31402 0 0 -.31264 3476.638 -138.988)" opacity=".5" stroke="#501616" stroke-width="3.192" stroke-dasharray="3.19152246,6.38304492"><path fill="#666" stroke-linejoin="round" d="M-7820.096-2837.776h5.051v51.518h-5.051z"/><rect ry="7.071" width="72.731" height="161.624" x="-7853.936" y="-2788.238" fill="#782121" stroke-linecap="round" stroke-linejoin="round"/><path d="M-7808.35-2825.562c-9.556 2.268-20.133-.305-27.58-6.71-7.446-6.404-11.573-16.478-10.76-26.266.516-6.203 2.875-12.12 5.811-17.609 2.936-5.489 6.463-10.64 9.557-16.04 13.163-22.974 18.147-50.526 13.867-76.655a4267.026 4267.026 0 0 0 23.88 85.526c2.368 8.15 4.776 16.387 5.173 24.865.396 8.477-1.414 17.355-6.704 23.99a26.672 26.672 0 0 1-13.243 8.9" fill="url(#l)"/></g><g stroke="gray" stroke-width="1.562" stroke-linecap="round" fill="#ececec"><path d="M1065.972 735.76c21.202 36.724 21.202 81.97 0 118.694" transform="matrix(.95139 0 0 1.72213 -137.12 -688.965)"/><path transform="matrix(-.95139 0 0 1.72213 1891.04 -688.965)" d="M1065.972 735.76c21.202 36.724 21.202 81.97 0 118.694"/></g><path d="M781.217 608.349l95.743 71.966" fill="none" stroke="#f60" stroke-width="1.5"/><use y="134.765" x="223.432" xlink:href="#h" width="1052.362" height="744.094" transform="matrix(2.76452 0 0 2.76452 192.421 337.83)" ns0:preamble="/home/waldgeist/data/sphinx/inkscape-preamble.tex" ns0:text="$\\rm{F}$"/><g stroke="#000" stroke-width="90.232" stroke-linecap="round"><path d="M763.032 680.315a2.02 2.02 0 1 1-4.039 0 2.02 2.02 0 0 1 4.04 0zM990.887 680.315a2.02 2.02 0 1 0 4.039 0 2.02 2.02 0 0 0-4.04 0z" stroke-width="1.53574864"/></g><g stroke="#000" stroke-width="90.232" stroke-linecap="round"><path d="M821.006 680.315a2.02 2.02 0 1 1-4.04 0 2.02 2.02 0 0 1 4.04 0zM932.913 680.315a2.02 2.02 0 1 0 4.04 0 2.02 2.02 0 0 0-4.04 0z" stroke-width="1.53574864"/></g><path d="M876.96 680.315l144.779 108.825" fill="none" stroke="#d40000" stroke-width="1.5"/><path d="M895.067 981.246l143.07 178.652" fill="none" stroke="#d40000" stroke-width="1.5" stroke-linecap="round" marker-end="url(#g)" transform="translate(-18.181 -372.876)"/><path d="M799.399 981.225l94.181-.123" fill="none" stroke="#f60" stroke-width="1.5" marker-end="url(#g)" transform="translate(-18.181 -372.876)"/></g></svg>