<svg xmlns:ns0="http://www.iki.fi/pav/software/textext/" xmlns="http://www.w3.org/2000/svg" xmlns:xlink="http://www.w3.org/1999/xlink" width="1052.362" height="744.094"><title>Bildentstehung am Hohlspiegel (Gegenstand ausserhalb der Brennweite)</title><defs><linearGradient id="a"><stop offset="0" stop-color="#f95"/><stop offset="1" stop-color="#fffb36"/></linearGradient><linearGradient id="b"><stop offset="0" stop-color="#f95"/><stop offset="1" stop-color="#fffb36"/></linearGradient><linearGradient id="c"><stop offset="0" stop-color="#f95"/><stop offset="1" stop-color="#fffb36"/></linearGradient><linearGradient id="d"><stop offset="0" stop-color="#f95"/><stop offset="1" stop-color="#fffb36"/></linearGradient><marker orient="auto" id="e" overflow="visible"><path d="M8.719 4.034L-2.207.016 8.719-4.002c-1.746 2.372-1.736 5.618 0 8.036z" transform="scale(-.6)" font-size="12" fill-rule="evenodd" stroke-width=".625" stroke-linejoin="round"/></marker><radialGradient r="29.799" fy="-2897.761" fx="-7817.805" cy="-2897.761" cx="-7817.805" gradientTransform="matrix(.2015 0 0 .5106 1968.41 2303.543)" gradientUnits="userSpaceOnUse" id="j" xlink:href="#d"/><radialGradient r="29.799" fy="-2897.761" fx="-7817.805" cy="-2897.761" cx="-7817.805" gradientTransform="matrix(1 0 0 2.43119 1.301 4179.676)" gradientUnits="userSpaceOnUse" id="k" xlink:href="#d"/><radialGradient r="29.799" fy="-2897.761" fx="-7817.805" cy="-2897.761" cx="-7817.805" gradientTransform="matrix(.2015 0 0 .5106 1968.41 2303.543)" gradientUnits="userSpaceOnUse" id="h" xlink:href="#d"/><radialGradient r="29.799" fy="-2897.761" fx="-7817.805" cy="-2897.761" cx="-7817.805" gradientTransform="matrix(1 0 0 2.43119 1.301 4179.676)" gradientUnits="userSpaceOnUse" id="i" xlink:href="#d"/><radialGradient r="29.799" fy="-2897.761" fx="-7817.805" cy="-2897.761" cx="-7817.805" gradientTransform="matrix(1 0 0 2.43119 1.301 4179.676)" gradientUnits="userSpaceOnUse" id="f" xlink:href="#d"/><radialGradient r="29.799" fy="-2897.761" fx="-7817.805" cy="-2897.761" cx="-7817.805" gradientTransform="matrix(1 0 0 2.43119 1.301 4179.676)" gradientUnits="userSpaceOnUse" id="g" xlink:href="#d"/></defs><g transform="translate(0 -308.268)"><use height="744.094" width="1052.362" xlink:href="#textext-66d16391-0" x="223.432" y="134.765" transform="matrix(2.67713 0 0 2.67713 -176.213 349.012)"/><use height="744.094" width="1052.362" xlink:href="#textext-66d16391-0" x="223.432" y="134.765" transform="matrix(2.67713 0 0 2.67713 67.276 349.104)"/><path style="marker:none" color="#000" fill="#fff" stroke="#fff" stroke-linecap="round" overflow="visible" d="M10.031 515.13h1031.362V845.5H10.031z"/><path d="M350.787 541.172v278.286" fill="gray" stroke="gray" stroke-linecap="round"/><path d="M42.364 610.12l236.473.243" fill="none" stroke="#f60" stroke-width="1.5" marker-end="url(#e)"/><path d="M87.669 682.362a2.02 2.02 0 1 1-4.04 0 2.02 2.02 0 0 1 4.04 0z" stroke="#000" stroke-width="1.53574864" stroke-linecap="round"/><path d="M285.5 734.455H118.848" fill="none" stroke="#d40000" stroke-width="1.5" stroke-linecap="round" marker-end="url(#e)"/><path d="M8.887 682.362H341.9" fill="none" stroke="#000" stroke-width=".878" stroke-dasharray=".8783078,1.75661553"/><path d="M186.832 682.362a2.02 2.02 0 1 1-4.039 0 2.02 2.02 0 0 1 4.04 0z" stroke="#000" stroke-width="1.53574864" stroke-linecap="round"/><g fill="none"><path transform="matrix(1.72108 0 0 1.72213 -1569.143 -686.918)" d="M1065.972 735.76c21.202 36.724 21.202 81.97 0 118.694" stroke="#b3b3b3" stroke-width="1.162"/><path d="M267.08 579.15c36.873 63.868 36.873 142.557 0 206.425" stroke="#000" stroke-width="2.0000225"/></g><path d="M184.726 682.318l49.781 25.294 49.782 25.293" fill="none" stroke="#f60" stroke-width="1.5" marker-end="url(#e)"/><g transform="matrix(.2015 0 0 .21002 1617.36 1233.072)" stroke="#501616" stroke-width="4.861"><path fill="#666" stroke-width="2.431" stroke-linejoin="round" d="M-7820.096-2837.776h5.051v51.518h-5.051z"/><rect ry="7.071" width="72.731" height="161.624" x="-7853.936" y="-2788.238" fill="#782121" stroke-linecap="round" stroke-linejoin="round"/><path d="M-7808.35-2825.562c-9.556 2.268-20.133-.305-27.58-6.71-7.446-6.404-11.573-16.478-10.76-26.266.516-6.203 2.875-12.12 5.811-17.609 2.936-5.489 6.463-10.64 9.557-16.04 13.163-22.974 18.147-50.526 13.867-76.655a4267.026 4267.026 0 0 0 23.88 85.526c2.368 8.15 4.776 16.387 5.173 24.865.396 8.477-1.414 17.355-6.704 23.99a26.672 26.672 0 0 1-13.243 8.9" fill="url(#f)" stroke-width="2.431"/></g><g transform="matrix(.15092 0 0 -.15436 1295.985 277.866)" opacity=".5" stroke="#501616" stroke-width="6.552" stroke-dasharray="6.55178184,13.10356368"><path fill="#666" stroke-linejoin="round" d="M-7820.096-2837.776h5.051v51.518h-5.051z"/><rect y="-2788.238" x="-7853.936" height="161.624" width="72.731" ry="7.071" fill="#782121" stroke-linecap="round" stroke-linejoin="round"/><path d="M-7808.35-2825.562c-9.556 2.268-20.133-.305-27.58-6.71-7.446-6.404-11.573-16.478-10.76-26.266.516-6.203 2.875-12.12 5.811-17.609 2.936-5.489 6.463-10.64 9.557-16.04 13.163-22.974 18.147-50.526 13.867-76.655a4267.026 4267.026 0 0 0 23.88 85.526c2.368 8.15 4.776 16.387 5.173 24.865.396 8.477-1.414 17.355-6.704 23.99a26.672 26.672 0 0 1-13.243 8.9" fill="url(#g)"/></g><path d="M42.364 610.12l71.224 36.12 71.225 36.122" fill="none" stroke="#f60" stroke-width="1.5"/><path d="M184.813 682.362l-66.523 50.62" fill="none" stroke="#d40000" stroke-width="1.5" stroke-linecap="round" marker-end="url(#e)"/><path d="M280.162 610.593l-95.35 71.77" fill="none" stroke="#d40000" stroke-width="1.5" stroke-linecap="round" marker-mid="url(#e)"/><path d="M436.643 610.244l96.49.121 96.491.122" fill="none" stroke="#f60" stroke-width="1.5" marker-end="url(#e)"/><path d="M629.624 754.37H439.872" fill="none" stroke="#d40000" stroke-width="1.5" stroke-linecap="round" marker-end="url(#e)"/><path d="M359.674 682.362h333.014" fill="none" stroke="#000" stroke-width=".878" stroke-dasharray=".8783078,1.75661553"/><path d="M537.62 682.362a2.02 2.02 0 1 1-4.04 0 2.02 2.02 0 0 1 4.04 0z" stroke="#000" stroke-width="1.53574864" stroke-linecap="round"/><g fill="none"><path d="M1065.972 735.76c21.202 36.724 21.202 81.97 0 118.694" transform="matrix(1.72108 0 0 1.72213 -1218.356 -686.918)" stroke="#b3b3b3" stroke-width="1.162"/><path d="M617.866 579.15c36.875 63.868 36.875 142.557 0 206.425" stroke="#000" stroke-width="2.0000225"/></g><g fill="none" stroke="#f60" stroke-width="1.494"><path d="M535.513 874.96l47.907 34.965 47.906 34.963" marker-end="url(#e)" transform="translate(-1.703 -195.774) scale(1.0039)"/><path d="M436.643 610.12l49.672 36.262 49.671 36.262" stroke-width="1.4998266"/></g><g transform="translate(43.509 -192.643)" stroke="#501616"><path fill="#666" stroke-width=".5" stroke-linejoin="round" d="M392.419 829.717h1.018v10.82h-1.018z"/><rect y="840.121" x="385.6" height="33.945" width="14.655" ry="1.485" fill="#782121" stroke-linecap="round" stroke-linejoin="round"/><path d="M394.786 832.282a6.677 6.677 0 0 1-5.556-1.574 6.677 6.677 0 0 1-2.17-5.352c.09-1.295.563-2.536 1.156-3.69.594-1.155 1.312-2.241 1.94-3.377a25.142 25.142 0 0 0 2.795-16.099 547.629 547.629 0 0 0 4.812 17.962c.49 1.712.991 3.44 1.076 5.22.085 1.778-.286 3.64-1.385 5.041a5.642 5.642 0 0 1-2.668 1.87" fill="url(#h)" stroke-width=".5"/></g><g stroke="#d40000" stroke-width="1.497" fill="none"><path d="M535.513 874.96l46.825 34.17 46.825 34.17" marker-end="url(#e)" transform="matrix(-1.00225 0 0 1.00225 1069.71 -192.642)"/><path d="M632.085 611.924l-49.59 36.203-49.589 36.202" stroke-width="1.5003682500000002"/></g><g transform="matrix(.19647 0 0 -.21075 1972.317 129.912)" opacity=".5" stroke="#501616" stroke-width="4.914" stroke-dasharray="4.91439393,9.82878785"><path fill="#666" stroke-linejoin="round" d="M-7820.096-2837.776h5.051v51.518h-5.051z"/><rect ry="7.071" width="72.731" height="161.624" x="-7853.936" y="-2788.238" fill="#782121" stroke-linecap="round" stroke-linejoin="round"/><path d="M-7808.35-2825.562c-9.556 2.268-20.133-.305-27.58-6.71-7.446-6.404-11.573-16.478-10.76-26.266.516-6.203 2.875-12.12 5.811-17.609 2.936-5.489 6.463-10.64 9.557-16.04 13.163-22.974 18.147-50.526 13.867-76.655a4267.026 4267.026 0 0 0 23.88 85.526c2.368 8.15 4.776 16.387 5.173 24.865.396 8.477-1.414 17.355-6.704 23.99a26.672 26.672 0 0 1-13.243 8.9" fill="url(#i)"/></g><path d="M438.456 682.362a2.02 2.02 0 1 1-4.04 0 2.02 2.02 0 0 1 4.04 0z" stroke="#000" stroke-width="1.53574864" stroke-linecap="round"/><path d="M701.575 541.172v278.286" fill="gray" stroke="gray" stroke-linecap="round"/><path d="M819.363 610.244l80.525.121 80.524.122" fill="none" stroke="#f60" stroke-width="1.5" marker-end="url(#e)"/><path d="M972.422 774.633H763.37" fill="none" stroke="#d40000" stroke-width="1.5" stroke-linecap="round" marker-end="url(#e)"/><path d="M710.462 682.362h333.013" fill="none" stroke="#000" stroke-width=".878" stroke-dasharray=".8783078,1.75661553"/><path d="M888.407 682.362a2.02 2.02 0 1 1-4.039 0 2.02 2.02 0 0 1 4.04 0z" stroke="#000" stroke-width="1.53574864" stroke-linecap="round"/><g fill="none"><path transform="matrix(1.72108 0 0 1.72213 -867.569 -686.918)" d="M1065.972 735.76c21.202 36.724 21.202 81.97 0 118.694" stroke="#b3b3b3" stroke-width="1.162"/><path d="M968.654 579.15c36.874 63.868 36.874 142.557 0 206.425" stroke="#000" stroke-width="2.0000225"/></g><g transform="translate(426.198 -192.643)" stroke="#501616"><path fill="#666" stroke-width=".5" stroke-linejoin="round" d="M392.419 829.717h1.018v10.82h-1.018z"/><rect ry="1.485" width="14.655" height="33.945" x="385.6" y="840.121" fill="#782121" stroke-linecap="round" stroke-linejoin="round"/><path d="M394.786 832.282a6.677 6.677 0 0 1-5.556-1.574 6.677 6.677 0 0 1-2.17-5.352c.09-1.295.563-2.536 1.156-3.69.594-1.155 1.312-2.241 1.94-3.377a25.142 25.142 0 0 0 2.795-16.099 547.629 547.629 0 0 0 4.812 17.962c.49 1.712.991 3.44 1.076 5.22.085 1.778-.286 3.64-1.385 5.041a5.642 5.642 0 0 1-2.668 1.87" fill="url(#j)" stroke-width=".5"/></g><g stroke="#d40000" stroke-width="1.59" fill="none"><path d="M535.513 874.96l134.554 98.364" marker-end="url(#e)" transform="matrix(-.94314 0 0 .94314 1394.688 -145.191)"/><path d="M436.643 802.763l98.957 72.242" marker-mid="url(#e)" transform="matrix(-.94314 0 0 .94314 1394.688 -145.191)"/></g><path d="M819.363 610.244l67.41 72.4" fill="none" stroke="#f60" stroke-width="1.5" marker-mid="url(#e)"/><g transform="matrix(.24848 0 0 -.26655 2702.684 -16.723)" opacity=".5" stroke="#501616" stroke-width="3.886" stroke-dasharray="3.88572197,7.77144393"><path fill="#666" stroke-linejoin="round" d="M-7820.096-2837.776h5.051v51.518h-5.051z"/><rect y="-2788.238" x="-7853.936" height="161.624" width="72.731" ry="7.071" fill="#782121" stroke-linecap="round" stroke-linejoin="round"/><path d="M-7808.35-2825.562c-9.556 2.268-20.133-.305-27.58-6.71-7.446-6.404-11.573-16.478-10.76-26.266.516-6.203 2.875-12.12 5.811-17.609 2.936-5.489 6.463-10.64 9.557-16.04 13.163-22.974 18.147-50.526 13.867-76.655a4267.026 4267.026 0 0 0 23.88 85.526c2.368 8.15 4.776 16.387 5.173 24.865.396 8.477-1.414 17.355-6.704 23.99a26.672 26.672 0 0 1-13.243 8.9" fill="url(#k)"/></g><path d="M789.244 682.362a2.02 2.02 0 1 1-4.04 0 2.02 2.02 0 0 1 4.04 0z" stroke="#000" stroke-width="1.53574864" stroke-linecap="round"/><path d="M886.461 682.308l85.961 92.325" fill="none" stroke="#f60" stroke-width="1.5" marker-end="url(#e)"/><g transform="matrix(2.76452 0 0 2.76452 -544.669 339.877)" ns0:preamble="/home/waldgeist/data/sphinx/inkscape-preamble.tex" ns0:text="$\\rm{M}$"><defs><symbol id="l" overflow="visible"><path d="M2.406-6.594c-.094-.218-.125-.218-.36-.218H.376v.312h.234c.766 0 .782.11.782.469v4.984c0 .266 0 .734-1.016.734V0c.344-.016.828-.031 1.156-.031.328 0 .828.015 1.172.031v-.313c-1.031 0-1.031-.468-1.031-.734v-5.375h.016L4.094-.219c.047.125.093.219.187.219.11 0 .14-.078.188-.188L6.922-6.5v5.719c0 .36-.016.469-.781.469h-.235V0c.36-.031 1.047-.031 1.438-.031.375 0 1.047 0 1.422.031v-.313h-.25c-.766 0-.782-.109-.782-.468v-5.25c0-.36.016-.469.782-.469h.25v-.313H7.078c-.266 0-.266.016-.328.188L4.562-1z"/></symbol></defs><use y="134.765" x="223.432" xlink:href="#l" width="1052.362" height="744.094"/></g><g transform="matrix(2.76452 0 0 2.76452 -441.725 339.877)" ns0:preamble="/home/waldgeist/data/sphinx/inkscape-preamble.tex" ns0:text="$\\rm{F}$"><defs><symbol id="m" overflow="visible"><path d="M5.797-6.781H.328v.312h.234c.766 0 .797.11.797.469v5.219c0 .36-.03.469-.796.469H.328V0c.344-.031 1.125-.031 1.516-.031.406 0 1.312 0 1.672.031v-.313h-.329c-.937 0-.937-.124-.937-.468v-2.453h.844c.969 0 1.062.312 1.062 1.156h.25v-2.64h-.25c0 .843-.093 1.171-1.062 1.171H2.25v-2.531c0-.328.016-.39.484-.39h1.188c1.5 0 1.75.562 1.906 1.937h.25z"/></symbol></defs><use y="134.765" x="223.432" xlink:href="#m" width="1052.362" height="744.094"/></g><use height="744.094" width="1052.362" xlink:href="#l" x="223.432" y="134.765" transform="matrix(2.76452 0 0 2.76452 -193.881 339.877)" ns0:text="$\\rm{M}$" ns0:preamble="/home/waldgeist/data/sphinx/inkscape-preamble.tex"/><use height="744.094" width="1052.362" xlink:href="#m" x="223.432" y="134.765" transform="matrix(2.76452 0 0 2.76452 -90.938 339.877)" ns0:text="$\\rm{F}$" ns0:preamble="/home/waldgeist/data/sphinx/inkscape-preamble.tex"/><use y="134.765" x="223.432" xlink:href="#l" width="1052.362" height="744.094" transform="matrix(2.76452 0 0 2.76452 156.906 339.877)" ns0:preamble="/home/waldgeist/data/sphinx/inkscape-preamble.tex" ns0:text="$\\rm{M}$"/><use y="134.765" x="223.432" xlink:href="#m" width="1052.362" height="744.094" transform="matrix(2.76452 0 0 2.76452 259.85 339.877)" ns0:preamble="/home/waldgeist/data/sphinx/inkscape-preamble.tex" ns0:text="$\\rm{F}$"/></g></svg>