<svg xmlns:ns0="http://www.iki.fi/pav/software/textext/" xmlns="http://www.w3.org/2000/svg" xmlns:xlink="http://www.w3.org/1999/xlink" width="1122.52" height="793.701" viewBox="0 0 1052.3622 744.09448"><title>Bildentstehung an einer Sammellinse (Gegenstand innerhalb der Brennweite)</title><defs><marker id="g" orient="auto" overflow="visible"><path transform="scale(-.6)" d="M8.719 4.034L-2.207.016 8.719-4.002c-1.746 2.372-1.736 5.618 0 8.036z" font-size="12" fill-rule="evenodd" stroke-width=".625" stroke-linejoin="round"/></marker><linearGradient id="a"><stop offset="0" stop-color="#f95"/><stop offset="1" stop-color="#fffb36"/></linearGradient><radialGradient xlink:href="#b" id="d" gradientUnits="userSpaceOnUse" gradientTransform="matrix(1 0 0 2.43119 1.301 4179.676)" cx="-7817.805" cy="-2897.761" fx="-7817.805" fy="-2897.761" r="29.799"/><linearGradient id="b"><stop offset="0" stop-color="#f95"/><stop offset="1" stop-color="#fffb36"/></linearGradient><radialGradient xlink:href="#b" id="e" gradientUnits="userSpaceOnUse" gradientTransform="matrix(1 0 0 2.43119 1.301 4179.676)" cx="-7817.805" cy="-2897.761" fx="-7817.805" fy="-2897.761" r="29.799"/><marker id="f" orient="auto" overflow="visible"><path transform="scale(-.6)" d="M8.719 4.034L-2.207.016 8.719-4.002c-1.746 2.372-1.736 5.618 0 8.036z" font-size="12" fill-rule="evenodd" stroke-width=".625" stroke-linejoin="round"/></marker><linearGradient id="c"><stop offset="0" stop-color="#f95"/><stop offset="1" stop-color="#fffb36"/></linearGradient></defs><path style="marker:none" color="#000" overflow="visible" fill="#fff" stroke="#fff" stroke-linecap="round" d="M351.287 200.687h349.787v342.72H351.287z"/><path style="marker:none" color="#000" overflow="visible" fill="#f9f9f9" stroke="#f9f9f9" stroke-width=".427" stroke-linecap="round" stroke-dasharray="1.28196474,2.56392949" d="M297.869 191.853h456.625v360.388H297.869z"/><g transform="matrix(.2015 0 0 .21002 2065.376 956.257)" stroke="#501616" stroke-width="4.861"><path fill="#666" stroke-width="2.431" stroke-linejoin="round" d="M-7820.096-2837.776h5.051v51.518h-5.051z"/><rect ry="7.071" width="72.731" height="161.624" x="-7853.936" y="-2788.238" fill="#782121" stroke-linecap="round" stroke-linejoin="round"/><path d="M-7808.35-2825.562c-9.556 2.268-20.133-.305-27.58-6.71-7.446-6.404-11.573-16.478-10.76-26.266.516-6.203 2.875-12.12 5.811-17.609 2.936-5.489 6.463-10.64 9.557-16.04 13.163-22.974 18.147-50.526 13.867-76.655a4267.026 4267.026 0 0 0 23.88 85.526c2.368 8.15 4.776 16.387 5.173 24.865.396 8.477-1.414 17.355-6.704 23.99a26.672 26.672 0 0 1-13.243 8.9z" fill="url(#d)" stroke-width="2.431"/></g><g transform="matrix(.55582 0 0 .55337 4775.637 1858.098)" opacity=".5" stroke="#501616" stroke-width="1.803" stroke-dasharray="1.80311906,3.60623812"><path fill="#666" stroke-linejoin="round" d="M-7820.096-2837.776h5.051v51.518h-5.051z"/><rect y="-2788.238" x="-7853.936" height="161.624" width="72.731" ry="7.071" fill="#782121" stroke-linecap="round" stroke-linejoin="round"/><path d="M-7808.35-2825.562c-9.556 2.268-20.133-.305-27.58-6.71-7.446-6.404-11.573-16.478-10.76-26.266.516-6.203 2.875-12.12 5.811-17.609 2.936-5.489 6.463-10.64 9.557-16.04 13.163-22.974 18.147-50.526 13.867-76.655a4267.026 4267.026 0 0 0 23.88 85.526c2.368 8.15 4.776 16.387 5.173 24.865.396 8.477-1.414 17.355-6.704 23.99a26.672 26.672 0 0 1-13.243 8.9z" fill="url(#e)"/></g><g stroke="gray" stroke-width="1.562" stroke-linecap="round" fill="#ececec"><path transform="matrix(.95139 0 0 1.72213 -487.908 -963.733)" d="M1065.972 735.76a118.693 118.693 0 0 1 0 118.694"/><path d="M1065.972 735.76a118.693 118.693 0 0 1 0 118.694" transform="matrix(-.95139 0 0 1.72213 1540.252 -963.733)"/></g><path d="M359.674 405.547h333.014" fill="none" stroke="#000" stroke-width=".878" stroke-dasharray=".8783078,1.75661553"/><path d="M490.301 333.084l35.88 72.463" fill="none" stroke="#f60" stroke-width="1.5" stroke-linecap="round"/><path d="M475.37 414.876h-15.12v.864h.649c2.116 0 2.203.302 2.203 1.295v14.428c0 .993-.087 1.296-2.203 1.296h-.648v.864c.95-.087 3.11-.087 4.19-.087 1.123 0 3.628 0 4.622.087v-.864h-.908c-2.591 0-2.591-.346-2.591-1.296v-6.782h2.332c2.678 0 2.938.864 2.938 3.197h.69v-7.3h-.69c0 2.332-.26 3.24-2.938 3.24h-2.332v-6.999c0-.907.043-1.08 1.339-1.08h3.283c4.146 0 4.838 1.556 5.27 5.357h.69z" ns0:text="$\\rm{F}$" ns0:preamble="/home/waldgeist/data/sphinx/inkscape-preamble.tex"/><g transform="translate(341.36 -508.94)" stroke="#000" stroke-width="90.232" stroke-linecap="round"><circle transform="matrix(.01702 0 0 .01702 52.477 900.958)" cx="963.18" cy="795.107" r="118.693"/><circle transform="matrix(-.01702 0 0 .01702 317.148 900.958)" cx="963.18" cy="795.107" r="118.693"/></g><g transform="translate(341.36 -508.94)" stroke="#000" stroke-width="90.232" stroke-linecap="round"><circle transform="matrix(.01702 0 0 .01702 110.45 900.958)" cx="963.18" cy="795.107" r="118.693"/><circle transform="matrix(-.01702 0 0 .01702 259.175 900.958)" cx="963.18" cy="795.107" r="118.693"/></g><path d="M525.962 641.352l157.195 194.963" fill="none" stroke="#d40000" stroke-width="1.5" stroke-linecap="round" marker-end="url(#f)" transform="translate(0 -308.268)"/><path d="M526.322 713.815l61.755 124" fill="none" stroke="#d40000" stroke-width="1.5" stroke-linecap="round" marker-end="url(#g)" transform="translate(0 -308.268)"/><path d="M431.441 214.212l58.86 118.872M431.441 214.212l94.521 118.872" fill="none" stroke="#f60" stroke-width="1.5" stroke-linecap="round" stroke-dasharray="1.5,4.5"/><path d="M490.301 641.352h35.661" fill="none" stroke="#f60" stroke-width="1.5" stroke-linecap="round" marker-end="url(#g)" transform="translate(0 -308.268)"/></svg>