<?xml version="1.0" encoding="UTF-8" standalone="no"?>
<!-- Created with Inkscape (http://www.inkscape.org/) -->

<svg
   xmlns:dc="http://purl.org/dc/elements/1.1/"
   xmlns:cc="http://creativecommons.org/ns#"
   xmlns:rdf="http://www.w3.org/1999/02/22-rdf-syntax-ns#"
   xmlns:svg="http://www.w3.org/2000/svg"
   xmlns="http://www.w3.org/2000/svg"
   xmlns:xlink="http://www.w3.org/1999/xlink"
   xmlns:sodipodi="http://sodipodi.sourceforge.net/DTD/sodipodi-0.dtd"
   xmlns:inkscape="http://www.inkscape.org/namespaces/inkscape"
   width="1052.3622"
   height="744.09448"
   id="svg16641"
   version="1.1"
   inkscape:version="0.48.3.1 r9886"
   sodipodi:docname="blende-lichtstrahlen.svg"
   inkscape:export-filename="/home/waldgeist/data/pics/physik/Own/optik/blende-lichtstrahlen.png"
   inkscape:export-xdpi="90"
   inkscape:export-ydpi="90">
  <defs
     id="defs16643">
    <marker
       inkscape:stockid="Arrow2Send"
       orient="auto"
       refY="0.0"
       refX="0.0"
       id="Arrow2Send"
       style="overflow:visible;">
      <path
         id="path30777"
         style="font-size:12.0;fill-rule:evenodd;stroke-width:0.62500000;stroke-linejoin:round;"
         d="M 8.7185878,4.0337352 L -2.2072895,0.016013256 L 8.7185884,-4.0017078 C 6.9730900,-1.6296469 6.9831476,1.6157441 8.7185878,4.0337352 z "
         transform="scale(0.3) rotate(180) translate(-2.3,0)" />
    </marker>
    <marker
       inkscape:stockid="Arrow2Mend"
       orient="auto"
       refY="0.0"
       refX="0.0"
       id="Arrow2Mend"
       style="overflow:visible;">
      <path
         id="path30771"
         style="font-size:12.0;fill-rule:evenodd;stroke-width:0.62500000;stroke-linejoin:round;"
         d="M 8.7185878,4.0337352 L -2.2072895,0.016013256 L 8.7185884,-4.0017078 C 6.9730900,-1.6296469 6.9831476,1.6157441 8.7185878,4.0337352 z "
         transform="scale(0.6) rotate(180) translate(0,0)" />
    </marker>
    <inkscape:path-effect
       effect="spiro"
       id="path-effect33127"
       is_visible="true" />
    <inkscape:path-effect
       is_visible="true"
       id="path-effect33121"
       effect="spiro" />
    <inkscape:path-effect
       is_visible="true"
       id="path-effect17996"
       effect="spiro" />
    <inkscape:path-effect
       effect="spiro"
       id="path-effect17992"
       is_visible="true" />
    <inkscape:path-effect
       is_visible="true"
       id="path-effect17988"
       effect="spiro" />
    <inkscape:path-effect
       effect="spiro"
       id="path-effect17984"
       is_visible="true" />
    <inkscape:path-effect
       is_visible="true"
       id="path-effect17980"
       effect="spiro" />
    <inkscape:path-effect
       effect="spiro"
       id="path-effect17976"
       is_visible="true" />
    <inkscape:path-effect
       effect="spiro"
       id="path-effect17972"
       is_visible="true" />
    <inkscape:path-effect
       is_visible="true"
       id="path-effect17968"
       effect="spiro" />
    <inkscape:path-effect
       effect="spiro"
       id="path-effect17964"
       is_visible="true" />
    <inkscape:path-effect
       effect="spiro"
       id="path-effect17960"
       is_visible="true" />
    <inkscape:path-effect
       effect="spiro"
       id="path-effect17956"
       is_visible="true" />
    <inkscape:path-effect
       effect="spiro"
       id="path-effect17952"
       is_visible="true" />
    <inkscape:path-effect
       is_visible="true"
       id="path-effect17942"
       effect="spiro" />
    <inkscape:path-effect
       effect="spiro"
       id="path-effect17938"
       is_visible="true" />
    <inkscape:path-effect
       is_visible="true"
       id="path-effect17936"
       effect="spiro" />
    <inkscape:path-effect
       is_visible="true"
       id="path-effect17839"
       effect="spiro" />
    <inkscape:path-effect
       effect="spiro"
       id="path-effect17835"
       is_visible="true" />
    <inkscape:path-effect
       is_visible="true"
       id="path-effect17747"
       effect="spiro" />
    <inkscape:path-effect
       effect="spiro"
       id="path-effect17685"
       is_visible="true" />
    <inkscape:path-effect
       is_visible="true"
       id="path-effect17431"
       effect="spiro" />
    <inkscape:path-effect
       effect="spiro"
       id="path-effect17427"
       is_visible="true" />
    <inkscape:path-effect
       effect="spiro"
       id="path-effect17423"
       is_visible="true" />
    <inkscape:path-effect
       is_visible="true"
       id="path-effect17419"
       effect="spiro" />
    <inkscape:path-effect
       is_visible="true"
       id="path-effect17415"
       effect="spiro" />
    <inkscape:path-effect
       effect="spiro"
       id="path-effect17411"
       is_visible="true" />
    <inkscape:path-effect
       is_visible="true"
       id="path-effect17407"
       effect="spiro" />
    <inkscape:path-effect
       effect="spiro"
       id="path-effect17384"
       is_visible="true" />
    <inkscape:path-effect
       effect="spiro"
       id="path-effect17372"
       is_visible="true" />
    <inkscape:path-effect
       effect="spiro"
       id="path-effect17368"
       is_visible="true" />
    <inkscape:path-effect
       is_visible="true"
       id="path-effect17350"
       effect="spiro" />
    <inkscape:path-effect
       effect="spiro"
       id="path-effect17346"
       is_visible="true" />
    <inkscape:path-effect
       is_visible="true"
       id="path-effect17210"
       effect="spiro" />
    <inkscape:path-effect
       is_visible="true"
       id="path-effect17181"
       effect="spiro" />
    <inkscape:path-effect
       effect="spiro"
       id="path-effect16669"
       is_visible="true" />
    <inkscape:path-effect
       effect="spiro"
       id="path-effect16665"
       is_visible="true" />
    <inkscape:path-effect
       effect="spiro"
       id="path-effect16661"
       is_visible="true" />
    <inkscape:path-effect
       is_visible="true"
       id="path-effect16657"
       effect="spiro" />
    <inkscape:path-effect
       effect="spiro"
       id="path-effect16653"
       is_visible="true" />
    <inkscape:path-effect
       effect="spiro"
       id="path-effect17411-3"
       is_visible="true" />
    <inkscape:path-effect
       effect="spiro"
       id="path-effect17685-4"
       is_visible="true" />
    <inkscape:path-effect
       effect="spiro"
       id="path-effect17685-2"
       is_visible="true" />
    <inkscape:path-effect
       is_visible="true"
       id="path-effect17839-6"
       effect="spiro" />
    <inkscape:path-effect
       effect="spiro"
       id="path-effect17835-8"
       is_visible="true" />
    <inkscape:path-effect
       is_visible="true"
       id="path-effect17839-6-6"
       effect="spiro" />
    <inkscape:path-effect
       effect="spiro"
       id="path-effect17835-8-6"
       is_visible="true" />
  </defs>
  <sodipodi:namedview
     id="base"
     pagecolor="#ffffff"
     bordercolor="#666666"
     borderopacity="1.0"
     inkscape:pageopacity="0.0"
     inkscape:pageshadow="2"
     inkscape:zoom="0.48042524"
     inkscape:cx="749.21653"
     inkscape:cy="475.30965"
     inkscape:document-units="px"
     inkscape:current-layer="layer1"
     showgrid="false"
     showguides="false"
     inkscape:guide-bbox="true"
     inkscape:snap-global="false"
     inkscape:snap-center="false"
     inkscape:window-width="1280"
     inkscape:window-height="974"
     inkscape:window-x="0"
     inkscape:window-y="0"
     inkscape:window-maximized="1"
     inkscape:snap-smooth-nodes="true"
     inkscape:object-nodes="true"
     inkscape:object-paths="true">
    <sodipodi:guide
       orientation="0,1"
       position="518.20826,557.60421"
       id="guide17675" />
    <sodipodi:guide
       orientation="0,1"
       position="686.90373,526.54201"
       id="guide17677" />
    <sodipodi:guide
       orientation="0,1"
       position="102.85714,541.875"
       id="guide17679" />
    <sodipodi:guide
       orientation="1,0"
       position="1003.8638,587.73262"
       id="guide17944" />
  </sodipodi:namedview>
  <metadata
     id="metadata16646">
    <rdf:RDF>
      <cc:Work
         rdf:about="">
        <dc:format>image/svg+xml</dc:format>
        <dc:type
           rdf:resource="http://purl.org/dc/dcmitype/StillImage" />
        <dc:title></dc:title>
      </cc:Work>
    </rdf:RDF>
  </metadata>
  <g
     inkscape:label="Ebene 1"
     inkscape:groupmode="layer"
     id="layer1"
     transform="translate(0,-308.2677)">
    <rect
       style="fill:#ffffff;stroke:#ffffff;stroke-width:1;stroke-linecap:butt;stroke-linejoin:round;stroke-miterlimit:4;stroke-opacity:1;stroke-dasharray:none;stroke-dashoffset:0"
       id="rect25281"
       width="1033.7246"
       height="331.84131"
       x="9.3187866"
       y="514.39429"
       inkscape:export-filename="/home/waldgeist/data/pics/physik/Own/optik/blende-lichtstrahlen.png"
       inkscape:export-xdpi="150"
       inkscape:export-ydpi="150" />
    <path
       style="fill:none;stroke:none"
       d="m 698.51207,555.72384 c 101.60228,1.27723 204.09096,0 305.69843,0 0,26.98364 -0.5415,82.87766 -0.5415,82.87766 l -22.26712,0 -104.06848,31.63795 -2.65894,-47.28563 c -56.17504,0 -106.70617,0 -162.88122,0 l 0,123.66436 162.88122,0 2.16943,-46.69172 104.37399,30.97297 22.99272,-0.30436 -10e-5,72.13847 c -101.31131,0 -305.69843,0 -305.69843,0 z"
       id="path17946"
       inkscape:connector-curvature="0"
       sodipodi:nodetypes="ccccccccccccccc"
       inkscape:export-filename="/home/waldgeist/data/pics/physik/Own/optik/blende-lichtstrahlen.png"
       inkscape:export-xdpi="150"
       inkscape:export-ydpi="150" />
    <path
       style="fill:#f2f2f2;stroke:#f2f2f2"
       d="m 877.3334,670.23945 104.11409,-31.2062 0,38.75636 -104.11409,-7.55016"
       id="path17990"
       inkscape:path-effect="#path-effect17992"
       inkscape:original-d="m 877.3334,670.23945 104.11409,-31.2062 0,38.75636 z"
       inkscape:connector-curvature="0"
       inkscape:export-filename="/home/waldgeist/data/pics/physik/Own/optik/blende-lichtstrahlen.png"
       inkscape:export-xdpi="150"
       inkscape:export-ydpi="150" />
    <use
       x="0"
       y="0"
       xlink:href="#use17252"
       id="use17254"
       transform="matrix(1.0180327,0,0,1.0179056,313.45089,165.3645)"
       width="1052.3622"
       height="744.09448"
       inkscape:export-filename="/home/waldgeist/data/pics/physik/Own/optik/blende-lichtstrahlen.png"
       inkscape:export-xdpi="150"
       inkscape:export-ydpi="150" />
    <g
       id="g17204"
       transform="matrix(0,1.5099375,-1.5101262,0,1688.5968,376.28654)"
       inkscape:export-filename="/home/waldgeist/data/pics/physik/Own/optik/blende-lichtstrahlen.png"
       inkscape:export-xdpi="150"
       inkscape:export-ydpi="150">
      <g
         id="g17290">
        <path
           sodipodi:nodetypes="ccssssscscccsccsscccssssssssssssccssscscscssscssccsssssccccccccccccccccccccccccsccccccsssssssssssssssscccscscccscccccccccsccssssccsscccsccccccccccsccscccccscsccccccccscccccsccccsscccsscccsccccccccccccccccccccscccscccccccascccsscss"
           style="fill:#1a1a1a"
           d="m 205.18906,615.83749 c 0.0972,-0.0252 0.21445,-0.0817 0.26062,-0.12554 0.0462,-0.0439 0.22901,-0.0798 0.40633,-0.0798 0.3003,0 0.37298,-0.0605 1.06014,-0.88344 0.40577,-0.4859 0.80012,-0.88344 0.87633,-0.88344 0.0762,0 0.52969,-0.39259 1.00771,-0.87243 0.81191,-0.81496 0.86521,-0.8903 0.80946,-1.14414 -0.0475,-0.21641 -0.0204,-0.30408 0.13294,-0.43067 0.53474,-0.44123 0.55701,-0.55628 0.17289,-0.89332 -0.33877,-0.29727 -0.35675,-0.66988 -0.0441,-0.91576 0.32205,-0.25331 0.28508,-0.49647 -0.1,-0.65735 -0.23876,-0.0998 -0.29526,-0.15962 -0.22086,-0.23402 0.055,-0.055 0.1,-0.21214 0.1,-0.34923 0,-0.17963 0.0613,-0.27716 0.21917,-0.34912 0.44209,-0.20143 0.363,-0.62716 -0.13693,-0.73696 -0.2403,-0.0528 -0.36987,-0.21952 -0.17058,-0.21952 0.0486,0 0.0883,-0.10296 0.0883,-0.22879 0,-0.13055 0.0853,-0.29807 0.19878,-0.39015 0.19058,-0.15471 0.1976,-0.20857 0.1703,-1.30638 l -0.0284,-1.145 0.28564,-0.0996 c 0.67406,-0.23497 1.24888,-0.94706 1.54174,-1.90991 0.0739,-0.24294 0.1936,-1.11756 0.26601,-1.94357 0.21598,-2.46389 0.436,-3.04355 2.3802,-6.27093 1.89904,-3.15241 2.69142,-4.97216 3.19225,-7.33122 0.33446,-1.57535 0.39358,-4.15149 0.13066,-5.69256 -0.47365,-2.77616 -1.68002,-5.24948 -3.47753,-7.12972 -1.80331,-1.8863 -3.95281,-3.08398 -6.6541,-3.70759 -0.91771,-0.21186 -1.28944,-0.2483 -2.88681,-0.28292 -2.40606,-0.0521 -3.76114,0.1265 -5.67582,0.74828 -1.86993,0.60727 -3.28383,1.47685 -4.69373,2.88679 -1.8446,1.84466 -2.94217,3.93087 -3.58493,6.81403 -0.17343,0.778 -0.19673,1.13124 -0.19518,2.95954 0.001,1.81697 0.0262,2.18636 0.19803,2.95953 0.4358,1.96163 1.03119,3.49705 2.06967,5.33729 3.15963,5.59908 3.24513,5.80477 3.55262,8.54647 0.0771,0.68779 0.20329,1.46301 0.28035,1.72273 0.31863,1.0739 0.95349,1.93885 1.67045,2.27587 0.45969,0.21607 0.48616,0.3501 0.16162,0.81842 -0.29314,0.423 -0.29314,0.6988 0,1.04718 0.12754,0.15158 0.23191,0.31092 0.23191,0.35408 0,0.0432 -0.11927,0.21433 -0.26504,0.38036 -0.14577,0.16601 -0.26503,0.3628 -0.26503,0.43731 0,0.0745 0.11926,0.24801 0.26503,0.3856 0.32295,0.30481 0.33611,0.55069 0.0441,0.82496 -0.294,0.27618 -0.294,0.65477 0,0.84739 0.14566,0.0955 0.22085,0.22624 0.22085,0.38419 0,0.14121 -0.0906,0.32461 -0.22085,0.44696 -0.28432,0.2671 -0.27813,0.37035 0.0441,0.73743 0.32252,0.36732 0.32995,0.49596 0.0442,0.76442 -0.12148,0.11412 -0.22086,0.27081 -0.22086,0.3482 0,0.15933 1.84725,2.0371 2.00399,2.0371 0.0559,0 0.4698,0.41743 0.91968,0.92761 0.44989,0.5102 0.87614,0.92763 0.94724,0.92763 0.0711,0 0.18007,0.0696 0.24213,0.1546 0.0967,0.13242 0.28186,0.15676 1.29074,0.1697 0.64782,0.008 1.25738,-0.006 1.35456,-0.0307 z m 0.13252,-15.35637 0,-2.95954 c 0.19141,-2e-5 0.38283,-5e-5 0.57425,-8e-5 l -0.0244,2.95958 -0.0244,2.95958 c -0.17516,0 -0.35031,0 -0.52547,0 z m -1.4129,0.0663 5.1e-4,-2.89328 0.39694,-0.018 0.39694,-0.018 0,2.91125 0,2.91126 c -0.26503,0 -0.53007,0 -0.7951,0 l 5e-4,-2.89329 z m -1.55565,2.42948 c 0.0263,-0.2551 0.0694,-1.21915 0.0958,-2.14235 0.0263,-0.92321 0.072,-2.08604 0.10156,-2.58408 l 0.0537,-0.90552 c 0.1991,0 0.3982,0 0.5973,0 l 2.8e-4,1.65644 c 1.6e-4,0.91106 0.0262,2.28261 0.058,3.04789 l 0.0577,1.39142 c -0.33739,0 -0.67477,0 -1.01216,0 l 0.0479,-0.4638 z m -2.93493,0.27224 c -0.6913,-0.11617 -1.17512,-0.46361 -1.53304,-1.10093 -0.30156,-0.53697 -0.45173,-1.22018 -0.64506,-2.93487 -0.15506,-1.37521 -0.39966,-2.27828 -0.92522,-3.41584 -0.34002,-0.73596 -1.53363,-2.93333 -2.35829,-4.34147 -0.73292,-1.25149 -1.58108,-3.05333 -1.87964,-3.99313 -1.29774,-4.0851 -0.72184,-8.51854 1.55443,-11.96646 0.55689,-0.84355 2.11071,-2.39485 2.98078,-2.97596 2.21379,-1.47855 5.12849,-2.21658 8.2678,-2.09344 3.43021,0.13455 6.19041,1.24581 8.38582,3.37614 1.01276,0.98274 1.69499,1.89915 2.34631,3.15169 1.16078,2.2323 1.64643,4.6452 1.45454,7.22677 -0.22628,3.04403 -1.12577,5.51732 -3.26112,8.96695 -1.19144,1.92475 -1.96137,3.45427 -2.24585,4.46157 -0.13446,0.47609 -0.24841,1.22008 -0.31121,2.03192 -0.12489,1.61478 -0.23021,2.15691 -0.52421,2.69855 -0.42802,0.78857 -0.65496,0.86554 -2.87374,0.9748 l -1.13749,0.056 0.0611,-2.90281 c 0.0424,-2.01367 0.11344,-3.31737 0.23195,-4.25619 0.094,-0.74435 0.17086,-1.51356 0.17086,-1.70936 0,-0.48656 -0.24178,-0.9635 -0.54677,-1.07863 -0.13659,-0.0516 -0.24833,-0.11842 -0.24833,-0.14857 0,-0.0302 0.076,-0.34943 0.16902,-0.70947 0.21444,-0.83057 3.28219,-7.76339 3.55906,-8.04315 0.279,-0.2819 0.48841,-0.92695 0.36438,-1.12243 -0.0512,-0.0807 -0.16807,-0.1468 -0.25966,-0.1468 -0.0916,0 -0.21158,-0.0292 -0.26668,-0.0651 -0.16453,-0.10698 -1.26175,-0.23333 -2.0547,-0.23661 -0.40774,-10e-4 -0.75602,-0.0177 -0.77395,-0.0357 -0.0179,-0.0179 0.0272,-0.20206 0.10025,-0.40916 0.0731,-0.20712 0.10877,-0.41555 0.0793,-0.46321 -0.0752,-0.12162 -0.17148,0.007 -0.2948,0.39255 -0.0927,0.29007 -0.13262,0.32454 -0.32103,0.27724 -0.11834,-0.0297 -0.26616,-0.0117 -0.32849,0.04 -0.0771,0.064 -0.29554,0.0681 -0.68352,0.0128 -0.66589,-0.0948 -0.93962,-0.0657 -2.24875,0.23917 l -0.97178,0.22629 -0.37546,-0.24786 c -0.35555,-0.23472 -0.37547,-0.27046 -0.37547,-0.67389 0,-0.33208 -0.0312,-0.42603 -0.14171,-0.42603 -0.12345,0 -0.13365,0.091 -0.0791,0.70675 0.0718,0.81166 0.0987,0.79198 -0.84512,0.61856 -0.49628,-0.0912 -1.96189,0.077 -2.12923,0.24437 -0.0822,0.0822 0.24025,0.97466 0.40643,1.12483 0.0538,0.0486 0.52996,1.24123 1.05819,2.65032 0.52823,1.40909 1.1919,3.11856 1.47481,3.79881 0.28292,0.68025 0.56267,1.44666 0.6217,1.70313 l 0.10731,0.46632 -0.28872,0.24103 c -0.39774,0.33204 -0.45698,0.74041 -0.34239,2.36011 0.0676,0.95534 0.0654,2.07715 -0.008,4.01967 -0.0559,1.48198 -0.10112,2.90835 -0.10045,3.16972 l 0.001,0.47522 -0.72884,-0.0603 c -0.40095,-0.0331 -0.98032,-0.10249 -1.28759,-0.15412 z m 4.50812,-7.15916 c -0.022,-0.50012 0.002,-0.62051 0.1546,-0.77301 0.2022,-0.2022 0.25636,-0.21384 0.44373,-0.0954 0.0905,0.0572 0.14078,0.28472 0.16384,0.74131 0.0361,0.71545 0.001,0.76512 -0.51528,0.73312 -0.20945,-0.013 -0.22221,-0.0443 -0.24689,-0.60606 z m 1.382,-0.30676 c -0.0295,-0.71846 -0.0429,-0.76048 -0.31932,-1.0075 -0.7608,-0.67977 -1.78016,-0.007 -1.78564,1.1778 l -0.002,0.41964 c -0.22853,0 -0.45705,0 -0.68557,0 l -0.064,-1.02439 c -0.0358,-0.57339 -0.0295,-1.05877 0.0141,-1.10249 0.0429,-0.0429 0.50596,-0.17481 1.02889,-0.293 l 0.95079,-0.2149 0.85767,0.24316 c 0.855,0.24241 0.85776,0.2441 0.88853,0.54438 0.0169,0.16567 -0.0175,0.69936 -0.0768,1.18599 l -0.10761,0.88478 c -0.22278,-0.0213 -0.44556,-0.0425 -0.66834,-0.0638 l -0.0308,-0.74973 z m 0.19457,-2.71397 -0.30469,-0.11008 0.0182,-1.98138 c 0.01,-1.08976 0.0179,-2.02874 0.0175,-2.08662 -2.8e-4,-0.0579 0.16836,-0.13843 0.37486,-0.17901 0.31806,-0.0625 0.37965,-0.1097 0.40287,-0.30876 0.0244,-0.20942 -0.006,-0.23798 -0.27322,-0.2627 l -0.30064,-0.0278 0.60063,-1.94358 c 0.33035,-1.06897 0.6662,-2.17689 0.74635,-2.46205 l 0.14572,-0.51847 1.33794,0.0408 c 1.31841,0.0401 1.8813,0.1569 1.79064,0.37146 -0.022,0.0521 -0.8613,1.9433 -1.86509,4.20271 -1.14603,2.57954 -1.88013,4.34632 -1.97303,4.7485 -0.15991,0.69232 -0.18425,0.70984 -0.71808,0.51699 z m -3.05957,-0.11944 c -0.15565,-0.69113 -0.25091,-0.97028 -0.64527,-1.89098 -0.23612,-0.55127 -0.97385,-2.44929 -1.63941,-4.21783 -0.92096,-2.44717 -1.18292,-3.23234 -1.09633,-3.28585 0.22931,-0.14173 1.20762,-0.18405 1.84982,-0.08 l 0.65491,0.10608 0.66817,2.22171 c 0.60125,1.99925 0.65212,2.22452 0.50798,2.24993 -0.26667,0.047 -0.20304,0.43097 0.0972,0.58619 0.23835,0.12327 0.26154,0.18045 0.31446,0.77529 0.0314,0.35322 0.0448,1.31629 0.0298,2.14017 l -0.0274,1.49794 -0.22086,0.0613 c -0.37893,0.10528 -0.43676,0.086 -0.49307,-0.16397 z m 1.28817,-0.58217 c 0,-0.30804 -0.0262,-1.28204 -0.0581,-2.16443 l -0.0581,-1.60436 c 0.36267,0 0.72534,0 1.08801,0 l 0,2.11519 0,2.11519 -0.37545,0.0338 c -0.20652,0.0186 -0.42517,0.0408 -0.48589,0.0492 -0.0784,0.011 -0.11044,-0.14725 -0.11044,-0.54464 z m -1.19013,-6.31378 c -0.33052,-1.10262 -0.62001,-2.07432 -0.64333,-2.15934 -0.029,-0.1054 0.008,-0.1546 0.11557,-0.1546 0.0869,0 0.22514,-0.0608 0.30728,-0.13514 0.15682,-0.14193 1.59046,-0.51908 2.36238,-0.62148 0.24882,-0.033 0.67316,-0.0324 0.94297,0.002 0.46639,0.0583 0.49055,0.0737 0.49055,0.31366 0,0.25942 0.22244,0.56678 0.35216,0.4866 0.0902,-0.0558 -1.13071,4.04148 -1.27381,4.27469 -0.018,0.0295 -0.4873,0.0412 -1.04279,0.0262 l -1.01002,-0.0271 -0.60096,-2.00472 z m 3.79671,-2.84472 c 0.0789,-0.1276 0.30878,-0.10734 0.30878,0.0272 0,0.0632 -0.048,0.16281 -0.10659,0.22144 -0.0832,0.0832 -0.12301,0.0773 -0.18147,-0.0272 -0.0412,-0.0736 -0.0505,-0.17324 -0.0207,-0.22144 z m -4.55015,5.1e-4 c 0,-0.0486 0.0374,-0.0883 0.0831,-0.0883 0.0457,0 0.1077,0.0397 0.13773,0.0883 0.03,0.0486 -0.007,0.0883 -0.0831,0.0883 -0.0757,0 -0.13772,-0.0397 -0.13772,-0.0883 z"
           id="path14170"
           inkscape:connector-curvature="0" />
        <rect
           y="606.44037"
           x="196.60416"
           height="38.942539"
           width="15.363127"
           id="rect14172"
           style="fill:#4d4d4d;stroke:#666666;stroke-width:0.66223758;stroke-linecap:round;stroke-linejoin:round;stroke-miterlimit:4;stroke-opacity:1;stroke-dasharray:none;stroke-dashoffset:0" />
      </g>
      <g
         id="g17294" />
    </g>
    <g
       id="g17212"
       transform="matrix(0.59076087,0,0,0.59068712,629.08672,326.21967)"
       inkscape:export-filename="/home/waldgeist/data/pics/physik/Own/optik/blende-lichtstrahlen.png"
       inkscape:export-xdpi="150"
       inkscape:export-ydpi="150">
      <path
         sodipodi:nodetypes="cccc"
         inkscape:connector-curvature="0"
         inkscape:original-d="m 415.71429,632.56812 0,79.14286 -275.71429,0 0,-202.28572"
         inkscape:path-effect="#path-effect16669"
         id="path16667"
         d="m 415.71429,632.56812 0,79.14286 -275.71429,0 0,-202.28572"
         style="fill:none;stroke:#666666;stroke-width:8.46418858;stroke-linecap:butt;stroke-linejoin:miter;stroke-miterlimit:4;stroke-opacity:1;stroke-dasharray:none" />
      <path
         style="fill:none;stroke:#666666;stroke-width:8.46418858;stroke-linecap:butt;stroke-linejoin:miter;stroke-miterlimit:4;stroke-opacity:1;stroke-dasharray:none"
         d="m 415.71429,581.49705 0,-79.14286 -275.71429,0 0,202.28572"
         id="path17208"
         inkscape:path-effect="#path-effect17210"
         inkscape:original-d="m 415.71429,581.49705 0,-79.14286 -275.71429,0 0,202.28572"
         inkscape:connector-curvature="0"
         sodipodi:nodetypes="cccc" />
    </g>
    <path
       inkscape:connector-curvature="0"
       inkscape:original-d="m 877.3334,699.39936 104.11409,31.2062 0,-38.75636 z"
       inkscape:path-effect="#path-effect17996"
       id="path17994"
       d="m 877.3334,699.39936 104.11409,31.2062 0,-38.75636 -104.11409,7.55016"
       style="fill:#f2f2f2;stroke:#f2f2f2"
       inkscape:export-filename="/home/waldgeist/data/pics/physik/Own/optik/blende-lichtstrahlen.png"
       inkscape:export-xdpi="150"
       inkscape:export-ydpi="150" />
    <path
       style="fill:none;stroke:#ff6600;stroke-width:1;stroke-linecap:butt;stroke-linejoin:miter;stroke-miterlimit:4;stroke-opacity:1;stroke-dasharray:none;marker-end:url(#Arrow2Mend)"
       d="m 811.41029,664.65972 170.03719,13.12989"
       id="path17382"
       inkscape:path-effect="#path-effect17384"
       inkscape:original-d="m 811.41029,664.65972 170.03719,13.12989"
       inkscape:connector-curvature="0"
       inkscape:transform-center-x="-17.321504"
       inkscape:transform-center-y="1.918831"
       inkscape:export-filename="/home/waldgeist/data/pics/physik/Own/optik/blende-lichtstrahlen.png"
       inkscape:export-xdpi="150"
       inkscape:export-ydpi="150" />
    <path
       inkscape:connector-curvature="0"
       inkscape:original-d="M 828.68213,684.82173 981.44748,639.03325"
       inkscape:path-effect="#path-effect17419"
       id="path17417"
       d="M 828.68213,684.82173 981.44748,639.03325"
       style="fill:#333333;stroke:#ff6600;stroke-width:0.99999988;stroke-linecap:butt;stroke-linejoin:miter;stroke-miterlimit:4;stroke-opacity:1;stroke-dasharray:0.99999988, 0.99999988;stroke-dashoffset:0;marker-end:url(#Arrow2Send)"
       inkscape:export-filename="/home/waldgeist/data/pics/physik/Own/optik/blende-lichtstrahlen.png"
       inkscape:export-xdpi="150"
       inkscape:export-ydpi="150" />
    <path
       style="fill:#333333;stroke:#ff6600;stroke-width:0.99999988;stroke-linecap:butt;stroke-linejoin:miter;stroke-miterlimit:4;stroke-opacity:1;stroke-dasharray:0.99999988, 0.99999988;stroke-dashoffset:0;marker-end:url(#Arrow2Send)"
       d="m 828.6821,684.82169 153.19898,45.92043"
       id="path17425"
       inkscape:path-effect="#path-effect17427"
       inkscape:original-d="m 828.6821,684.82169 153.19898,45.92043"
       inkscape:connector-curvature="0"
       inkscape:export-filename="/home/waldgeist/data/pics/physik/Own/optik/blende-lichtstrahlen.png"
       inkscape:export-xdpi="150"
       inkscape:export-ydpi="150" />
    <path
       style="fill:none;stroke:#000000;stroke-width:1;stroke-linecap:butt;stroke-linejoin:miter;stroke-miterlimit:4;stroke-opacity:1;stroke-dasharray:2.00000008, 2.00000008;stroke-dashoffset:0"
       d="m 827.25054,685.61753 154.19695,0"
       id="path17683-0"
       inkscape:path-effect="#path-effect17685-2"
       inkscape:original-d="m 827.25054,685.61753 154.19695,0"
       inkscape:connector-curvature="0"
       inkscape:export-filename="/home/waldgeist/data/pics/physik/Own/optik/blende-lichtstrahlen.png"
       inkscape:export-xdpi="150"
       inkscape:export-ydpi="150" />
    <path
       inkscape:transform-center-y="-1.918796"
       inkscape:transform-center-x="-17.321504"
       inkscape:connector-curvature="0"
       inkscape:original-d="M 811.41029,704.9791 981.44748,691.8492"
       inkscape:path-effect="#path-effect17942"
       id="path17940"
       d="M 811.41029,704.9791 981.44748,691.8492"
       style="fill:none;stroke:#ff6600;stroke-width:1;stroke-linecap:butt;stroke-linejoin:miter;stroke-miterlimit:4;stroke-opacity:1;stroke-dasharray:none;marker-end:url(#Arrow2Mend)"
       inkscape:export-filename="/home/waldgeist/data/pics/physik/Own/optik/blende-lichtstrahlen.png"
       inkscape:export-xdpi="150"
       inkscape:export-ydpi="150" />
    <path
       sodipodi:nodetypes="cccc"
       inkscape:connector-curvature="0"
       inkscape:original-d="m 228.88388,699.04077 95.95861,30.977 0.10769,-18.38092 -96.0663,-12.59608"
       inkscape:path-effect="#path-effect17980"
       id="path17978"
       d="m 228.88388,699.04077 95.95861,30.977 0.10769,-18.38092 -96.0663,-12.59608"
       style="fill:#f2f2f2;stroke:#f2f2f2"
       inkscape:export-filename="/home/waldgeist/data/pics/physik/Own/optik/blende-lichtstrahlen.png"
       inkscape:export-xdpi="150"
       inkscape:export-ydpi="150" />
    <path
       style="fill:none;stroke:none"
       d="m 49.29538,679.81526 -1.143698,-121.9189 300.283538,0 -0.44612,40.5711 0,39.71802 -8.79868,0 c -7.34252,0 -11.43326,0.76809 -24.71769,4.64107 -12.1776,3.55029 -59.5985,18.25125 -85.06846,26.33511 l -0.18632,-48.66884 c -56.54713,0 -110.8865,0 -167.433635,0 0,43.01745 0,86.03489 0,129.05234 55.950455,0.55073 111.881265,-0.44535 167.820085,-1.36598 l 0.22944,-47.95532 c 95.52904,29.95778 95.52904,29.95778 117.79614,29.67642 l 0.35912,35.91284 0,33.68778 -149.34686,0 -149.346861,0 z"
       id="path17884"
       inkscape:connector-curvature="0"
       sodipodi:nodetypes="cccccsscccccccccccc"
       inkscape:export-filename="/home/waldgeist/data/pics/physik/Own/optik/blende-lichtstrahlen.png"
       inkscape:export-xdpi="150"
       inkscape:export-ydpi="150" />
    <path
       style="fill:#f2f2f2;stroke:#f2f2f2"
       d="m 229.40427,669.16166 95.95861,-30.977 0.10769,18.38092 -96.0663,12.59608"
       id="path17974"
       inkscape:path-effect="#path-effect17976"
       inkscape:original-d="m 229.40427,669.16166 95.95861,-30.977 0.10769,18.38092 -96.0663,12.59608"
       inkscape:connector-curvature="0"
       sodipodi:nodetypes="cccc"
       inkscape:export-filename="/home/waldgeist/data/pics/physik/Own/optik/blende-lichtstrahlen.png"
       inkscape:export-xdpi="150"
       inkscape:export-ydpi="150" />
    <g
       id="g17433"
       transform="matrix(1.0180327,0,0,1.0179056,39.864866,173.55527)"
       inkscape:export-filename="/home/waldgeist/data/pics/physik/Own/optik/blende-lichtstrahlen.png"
       inkscape:export-xdpi="150"
       inkscape:export-ydpi="150">
      <g
         transform="translate(-25.820039,-1.24618)"
         id="g17247">
        <g
           transform="matrix(0.58029656,0,0,0.58029656,-31.257157,151.2251)"
           id="g17237">
          <path
             style="fill:none;stroke:#666666;stroke-width:8.46418858;stroke-linecap:butt;stroke-linejoin:miter;stroke-miterlimit:4;stroke-opacity:1;stroke-dasharray:none"
             d="m 415.71429,632.56812 0,79.14286 -275.71429,0 0,-202.28572"
             id="path17239"
             inkscape:path-effect="#path-effect16669"
             inkscape:original-d="m 415.71429,632.56812 0,79.14286 -275.71429,0 0,-202.28572"
             inkscape:connector-curvature="0"
             sodipodi:nodetypes="cccc" />
          <path
             sodipodi:nodetypes="cccc"
             inkscape:connector-curvature="0"
             inkscape:original-d="m 415.71429,581.49705 0,-79.14286 -275.71429,0 0,202.28572"
             inkscape:path-effect="#path-effect17210"
             id="path17241"
             d="m 415.71429,581.49705 0,-79.14286 -275.71429,0 0,202.28572"
             style="fill:none;stroke:#666666;stroke-width:8.46418858;stroke-linecap:butt;stroke-linejoin:miter;stroke-miterlimit:4;stroke-opacity:1;stroke-dasharray:none" />
        </g>
      </g>
      <rect
         y="377.58029"
         x="8.140028"
         height="238.396"
         width="294.96454"
         id="rect17243"
         style="fill:none;stroke:#000000;stroke-width:0.98234785;stroke-miterlimit:4;stroke-dasharray:none" />
      <g
         transform="matrix(0.18568101,0,0,0.18568101,114.29471,409.61358)"
         id="g17338">
        <path
           sodipodi:nodetypes="ccssssscscccsccsscccssssssssssssccssscscscssscssccsssssccccccccccccccccccccccccsccccccsssssssssssssssscccscscccscccccccccsccssssccsscccsccccccccccsccscccccscsccccccccscccccsccccsscccsscccsccccccccccccccccccccscccscccccccascccsscss"
           style="fill:#1a1a1a"
           d="m 0.08006502,502.04775 c 0.07094,0.27361 0.229975,0.60365 0.353379,0.73361 0.123573,0.13005 0.224627,0.64464 0.224627,1.14377 0,0.84531 0.1703,1.04989 2.48677298,2.98416 1.367748,1.14219 2.486773,2.25224 2.486773,2.46676 0,0.2145 1.105092,1.49101 2.455781,2.83658 2.294011,2.28542 2.506083,2.43546 3.220611,2.27853 0.609167,-0.13371 0.855947,-0.0574 1.212282,0.37421 1.242007,1.50522 1.565859,1.56791 2.514584,0.48666 0.836778,-0.95359 1.885628,-1.00421 2.57775,-0.12413 0.713036,0.90653 1.397501,0.80246 1.850358,-0.28149 0.280924,-0.67208 0.44931,-0.83112 0.658737,-0.6217 0.154818,0.15482 0.597147,0.28149 0.983038,0.28149 0.505636,0 0.780171,0.17255 0.982729,0.61694 0.567001,1.24443 1.765377,1.0218 2.07445,-0.38544 0.148626,-0.67642 0.617922,-1.04114 0.617922,-0.48016 0,0.1368 0.289819,0.24855 0.644015,0.24855 0.367482,0 0.83903,0.24011 1.098223,0.55954 0.43549,0.53646 0.587099,0.55622 3.677296,0.47937 l 3.223032,-0.0799 0.280361,0.80404 c 0.661411,1.8974 2.665856,3.51545 5.376158,4.33981 0.683845,0.20802 3.145791,0.54496 5.470906,0.74878 6.935541,0.60796 8.567212,1.22729 17.651882,6.69997 8.873639,5.34556 13.996007,7.57601 20.636466,8.98578 4.434412,0.94147 11.685922,1.10788 16.023842,0.36779 7.81454,-1.33326 14.77663,-4.72904 20.06927,-9.78881 5.3097,-5.07609 8.68102,-11.12666 10.4364,-18.73045 0.59636,-2.58324 0.69893,-3.62962 0.79638,-8.12601 0.14666,-6.77276 -0.35608,-10.58714 -2.10631,-15.97673 -1.70939,-5.26361 -4.15715,-9.24357 -8.12595,-13.21226 -5.19249,-5.19232 -11.06491,-8.28184 -19.18064,-10.09113 -2.18997,-0.48818 -3.1843,-0.55377 -8.33074,-0.54941 -5.11454,0.003 -6.154326,0.0737 -8.330703,0.55743 -5.521742,1.22673 -9.843757,2.90267 -15.023802,5.82587 -15.760709,8.89396 -16.339701,9.13463 -24.057243,10.00018 -1.936042,0.21702 -4.118189,0.57223 -4.849269,0.78915 -3.022894,0.8969 -5.457619,2.68395 -6.406289,4.7021 -0.60821,1.29397 -0.985487,1.36848 -2.303749,0.45494 -1.190692,-0.82515 -1.967035,-0.82515 -2.947681,0 -0.426679,0.35901 -0.875201,0.6528 -0.996691,0.6528 -0.121602,0 -0.603312,-0.33573 -1.070665,-0.74605 -0.467298,-0.41033 -1.021237,-0.74603 -1.230973,-0.74603 -0.209708,0 -0.698117,0.3357 -1.085416,0.74603 -0.858002,0.90906 -1.550123,0.9461 -2.322159,0.12413 -0.777412,-0.82757 -1.843095,-0.82757 -2.385297,0 -0.26882,0.41002 -0.636837,0.62167 -1.081446,0.62167 -0.397489,0 -0.913737,-0.25503 -1.258137,-0.62167 -0.751853,-0.80032 -1.042489,-0.7829 -2.075773,0.12414 -1.03396,0.90785 -1.396065,0.92877 -2.151746,0.12442 -0.321234,-0.34196 -0.762297,-0.6217 -0.98014,-0.6217 -0.448494,0 -5.734181,5.19978 -5.734181,5.64098 0,0.15735 -1.175013,1.32243 -2.611106,2.58879 -1.436149,1.26638 -2.61116198,2.46622 -2.61116198,2.66636 0,0.20014 -0.195915,0.50687 -0.43518,0.68156 -0.372745,0.2722 -0.441259,0.79341 -0.477684,3.63328 -0.02252,1.82353 0.01689,3.53936 0.08642,3.81291 z m 43.22625698,0.37303 8.330735,0 c 5.6e-5,0.53879 1.41e-4,1.07762 2.25e-4,1.61644 l -8.330847,-0.0687 -8.330847,-0.0687 c 0,-0.49305 0,-0.98608 0,-1.47913 z m -0.186626,-3.97714 8.144221,10e-4 0.05067,1.11734 0.05067,1.11733 -8.194804,0 -8.194832,0 c 0,-0.74602 0,-1.49208 0,-2.2381 l 8.144249,10e-4 z m -6.838681,-4.37896 c 0.718074,0.074 3.431754,0.19535 6.030446,0.26967 2.598721,0.074 5.871942,0.20267 7.273862,0.28588 l 2.548925,0.15115 c 0,0.56045 0,1.12089 0,1.68133 l -4.662671,7.9e-4 c -2.56452,4.5e-4 -6.425261,0.0738 -8.579428,0.16326 l -3.916673,0.16242 c 0,-0.94971 0,-1.89939 0,-2.84911 l 1.305539,0.13484 z m -0.766322,-8.26146 c 0.327004,-1.94592 1.305004,-3.30781 3.09898,-4.31531 1.511503,-0.84886 3.434654,-1.27157 8.261291,-1.81577 3.871044,-0.43647 6.413073,-1.12499 9.615162,-2.60438 2.071635,-0.95711 8.256956,-4.31697 12.220694,-6.63829 3.522788,-2.06307 8.594741,-4.45054 11.240161,-5.29095 11.499049,-3.65297 23.978619,-2.03189 33.684089,4.37553 2.37448,1.56757 6.7412,5.94138 8.37695,8.39052 4.16193,6.23154 6.2394,14.43606 5.89277,23.27282 -0.37874,9.65561 -3.5068,17.42523 -9.50341,23.60503 -2.76629,2.8508 -5.34587,4.77119 -8.87161,6.60457 -6.28365,3.26745 -13.07566,4.6345 -20.34245,4.09435 -8.568567,-0.63695 -15.530568,-3.1689 -25.240844,-9.17964 -5.41793,-3.35376 -9.723338,-5.52101 -12.558761,-6.32179 -1.340134,-0.37849 -3.434372,-0.69924 -5.7196,-0.87602 -4.545403,-0.35155 -6.071431,-0.64801 -7.59608,-1.47558 -2.219726,-1.20483 -2.436387,-1.84363 -2.74394,-8.08922 l -0.157633,-3.20189 8.171046,0.17199 c 5.668229,0.11935 9.337981,0.31932 11.980642,0.65291 2.095252,0.2646 4.260482,0.48095 4.811634,0.48095 1.369606,0 2.712132,-0.68058 3.036208,-1.53909 0.145248,-0.38449 0.333338,-0.69902 0.418206,-0.69902 0.08501,0 0.983602,0.21393 1.99707,0.47577 2.33795,0.60362 21.852972,9.23895 22.640462,10.01831 0.79351,0.78535 2.60925,1.37481 3.1595,1.02568 0.22716,-0.14412 0.41322,-0.47309 0.41322,-0.73091 0,-0.25784 0.0822,-0.59557 0.18325,-0.75067 0.30113,-0.46313 0.65679,-3.55167 0.66603,-5.78372 0.003,-1.14774 0.0498,-2.1281 0.10049,-2.17857 0.0504,-0.0504 0.56877,0.0766 1.15173,0.28219 0.58302,0.20576 1.16972,0.30617 1.30388,0.22322 0.34234,-0.21168 -0.0197,-0.4827 -1.10498,-0.82983 -0.81651,-0.26094 -0.91354,-0.37331 -0.7804,-0.90366 0.0836,-0.33311 0.0329,-0.74921 -0.11259,-0.92466 -0.18015,-0.21702 -0.19169,-0.8319 -0.036,-1.92402 0.26685,-1.8744 0.18494,-2.64491 -0.67323,-6.32995 l -0.63698,-2.73544 0.69769,-1.05687 c 0.66071,-1.00083 0.76131,-1.0569 1.89692,-1.0569 0.93476,0 1.19922,-0.0878 1.19922,-0.3989 0,-0.34749 -0.25615,-0.37621 -1.98941,-0.22265 -2.28472,0.2021 -2.22933,0.27782 -1.74117,-2.37891 0.25671,-1.39697 -0.21675,-5.52248 -0.68787,-5.99352 -0.23139,-0.23138 -2.74355,0.67628 -3.16626,1.14405 -0.1368,0.15144 -3.493905,1.49177 -7.460317,2.97867 -3.966412,1.48691 -8.778356,3.35505 -10.693174,4.15141 -1.914819,0.79638 -4.072167,1.58385 -4.794098,1.75001 l -1.312632,0.30206 -0.67847,-0.81271 c -0.934651,-1.11959 -2.084161,-1.28634 -6.643414,-0.96378 -2.689162,0.19028 -5.846916,0.18409 -11.314867,-0.0225 -4.171588,-0.15736 -8.186641,-0.28464 -8.922365,-0.28276 l -1.337684,0.003 0.169737,-2.05159 c 0.09317,-1.12862 0.288496,-2.75948 0.433828,-3.6244 z m 20.152138,12.68979 c 1.407776,-0.0619 1.746658,0.006 2.175927,0.43518 0.569167,0.56917 0.601932,0.72163 0.268539,1.24905 -0.161011,0.25474 -0.801451,0.39628 -2.086695,0.46119 -2.013902,0.10161 -2.153717,0.003 -2.063641,-1.45045 0.03659,-0.58958 0.124699,-0.62549 1.705983,-0.69497 z m 0.863491,3.89016 c 2.022375,-0.083 2.140656,-0.12076 2.835987,-0.89884 1.913467,-2.14156 0.0197,-5.01093 -3.31536,-5.02636 l -1.181234,-0.006 c 0,-0.64328 0,-1.28654 0,-1.92979 l 2.88353,-0.18015 c 1.614021,-0.10078 2.980305,-0.083 3.103371,0.0397 0.120758,0.12075 0.492068,1.42421 0.824758,2.89619 l 0.604917,2.67636 -0.684465,2.41423 c -0.682354,2.40672 -0.687111,2.41449 -1.532362,2.5011 -0.46634,0.0476 -1.96861,-0.0493 -3.338413,-0.21618 l -2.490545,-0.30291 c 0.05996,-0.6271 0.119632,-1.2542 0.179589,-1.88129 l 2.110396,-0.0867 z m 7.639486,0.54769 0.309861,-0.85766 5.577337,0.0512 c 3.067538,0.0282 5.710649,0.0504 5.873574,0.0493 0.162981,-7.9e-4 0.389663,0.47391 0.50389,1.05518 0.17593,0.8953 0.308792,1.06867 0.869121,1.13403 0.589491,0.0687 0.669884,-0.0169 0.739468,-0.76908 l 0.07825,-0.84626 5.470934,1.69069 c 3.009017,0.9299 6.127677,1.87527 6.930367,2.10089 l 1.45943,0.41018 -0.11485,3.76613 c -0.11288,3.71116 -0.44165,5.29563 -1.04561,5.04043 -0.14666,-0.0619 -5.47015,-2.42445 -11.830106,-5.24999 -7.261082,-3.22593 -12.234346,-5.29233 -13.366432,-5.55384 -1.948794,-0.45012 -1.998111,-0.51864 -1.455262,-2.0213 z m 0.336208,-8.6123 c 1.945445,-0.43814 2.731217,-0.70628 5.322872,-1.81636 1.551756,-0.66465 6.894445,-2.74126 11.872663,-4.61473 6.888479,-2.59239 9.098629,-3.32977 9.249259,-3.08603 0.39895,0.64547 0.51807,3.39929 0.22519,5.20701 l -0.2986,1.84349 -6.25384,1.88081 c -5.627638,1.69245 -6.261745,1.83564 -6.333271,1.4299 -0.132299,-0.75064 -1.213127,-0.57153 -1.650051,0.27361 -0.34699,0.67092 -0.507945,0.7362 -2.182345,0.88516 -0.99427,0.0884 -3.705191,0.12611 -6.02431,0.0839 l -4.216513,-0.0771 -0.172552,-0.62169 c -0.29635,-1.06664 -0.242079,-1.22942 0.461555,-1.38793 z m 1.638736,3.62603 c 0.867094,0 3.608782,-0.0737 6.092599,-0.16354 l 4.516073,-0.16355 c 0,1.02087 0,2.04175 0,3.06262 l -5.953995,0 -5.953995,0 -0.09514,-1.05685 c -0.05236,-0.58133 -0.114847,-1.1968 -0.138492,-1.36772 -0.03096,-0.22068 0.414491,-0.31087 1.533094,-0.31087 z m 17.7725,-3.35006 c 3.103738,-0.93038 5.838948,-1.74525 6.078268,-1.8109 0.29669,-0.0816 0.43518,0.0225 0.43518,0.32532 0,0.24461 0.17115,0.63374 0.3804,0.86495 0.39952,0.44143 1.46115,4.47695 1.74939,6.64981 0.0929,0.70039 0.0912,1.89486 -0.006,2.65434 -0.1641,1.31283 -0.20745,1.38084 -0.88291,1.38084 -0.73023,0 -1.59541,0.62614 -1.36972,0.99128 0.15707,0.2539 -11.376258,-3.18281 -12.032715,-3.58561 -0.08304,-0.0507 -0.115973,-1.37169 -0.07375,-2.93533 l 0.07628,-2.84308 5.643035,-1.69162 z m 8.007528,10.68726 c 0.35918,0.22209 0.30215,0.86918 -0.0766,0.86918 -0.1779,0 -0.45829,-0.13512 -0.62333,-0.30004 -0.2342,-0.2342 -0.21759,-0.34626 0.0766,-0.51082 0.20717,-0.11597 0.48765,-0.14215 0.62332,-0.0583 z m -0.001,-12.8081 c 0.1368,0 0.24855,0.10527 0.24855,0.23391 0,0.12864 -0.11175,0.30316 -0.24855,0.3877 -0.13681,0.0845 -0.24856,-0.0197 -0.24856,-0.23392 0,-0.21309 0.11175,-0.38767 0.24856,-0.38767 z"
           id="path17296-8"
           inkscape:connector-curvature="0" />
        <rect
           transform="matrix(0,1,-1,0,0,0)"
           y="-26.531794"
           x="477.88232"
           height="515.16193"
           width="43.245277"
           id="rect17298-4"
           style="fill:#4d4d4d;stroke:#666666;stroke-width:5.29051352;stroke-linecap:round;stroke-linejoin:round;stroke-miterlimit:4;stroke-opacity:1;stroke-dasharray:none;stroke-dashoffset:0" />
      </g>
      <path
         sodipodi:nodetypes="cc"
         inkscape:transform-center-y="-12.109415"
         inkscape:transform-center-x="-42.874677"
         inkscape:connector-curvature="0"
         inkscape:original-d="M 133.7534,495.25628 279.898,474.08453"
         inkscape:path-effect="#path-effect17346"
         id="path17344"
         d="M 133.7534,495.25628 279.898,474.08453"
         style="fill:none;stroke:#ff6600;stroke-width:0.98234797;stroke-linecap:round;stroke-linejoin:miter;stroke-miterlimit:4;stroke-opacity:1;stroke-dasharray:none;marker-end:url(#Arrow2Mend)" />
      <path
         style="fill:none;stroke:#ff6600;stroke-width:0.98234802;stroke-linecap:round;stroke-linejoin:miter;stroke-miterlimit:4;stroke-opacity:1;stroke-dasharray:none;marker-end:url(#Arrow2Mend)"
         d="m 133.7534,509.15181 146.33579,20.62503"
         id="path17405"
         inkscape:path-effect="#path-effect17407"
         inkscape:original-d="m 133.7534,509.15181 146.33579,20.62503"
         inkscape:connector-curvature="0"
         inkscape:transform-center-x="-42.874225"
         inkscape:transform-center-y="12.109356"
         sodipodi:nodetypes="cc" />
    </g>
    <path
       style="fill:none;stroke:#000000;stroke-width:0.99999994;stroke-linecap:butt;stroke-linejoin:miter;stroke-miterlimit:4;stroke-opacity:1;stroke-dasharray:2, 2;stroke-dashoffset:0"
       d="m 181.34001,684.89087 144.92642,0"
       id="path17683"
       inkscape:path-effect="#path-effect17685"
       inkscape:original-d="m 181.34001,684.89087 144.92642,0"
       inkscape:connector-curvature="0"
       inkscape:export-filename="/home/waldgeist/data/pics/physik/Own/optik/blende-lichtstrahlen.png"
       inkscape:export-xdpi="150"
       inkscape:export-ydpi="150" />
    <path
       style="fill:#666666;stroke:#000000;stroke-width:1px;stroke-linecap:butt;stroke-linejoin:miter;stroke-opacity:1"
       d="m 326.79387,764.03387 0,-159.7014 6.2671,0 0,159.21298 -6.2671,0.48842"
       id="path17970"
       inkscape:path-effect="#path-effect17972"
       inkscape:original-d="m 326.79387,764.03387 0,-159.7014 6.2671,0 0,159.21298 z"
       inkscape:connector-curvature="0"
       sodipodi:nodetypes="ccccc"
       inkscape:export-filename="/home/waldgeist/data/pics/physik/Own/optik/blende-lichtstrahlen.png"
       inkscape:export-xdpi="150"
       inkscape:export-ydpi="150" />
    <path
       inkscape:connector-curvature="0"
       inkscape:original-d="M 181.53716,684.89087 325.36288,638.18466"
       inkscape:path-effect="#path-effect17411-3"
       id="path17409-1"
       d="M 181.53716,684.89087 325.36288,638.18466"
       style="fill:#333333;stroke:#ff6600;stroke-width:0.99999982;stroke-linecap:butt;stroke-linejoin:miter;stroke-miterlimit:4;stroke-opacity:1;stroke-dasharray:0.99999982, 0.99999982;stroke-dashoffset:0;marker-end:url(#Arrow2Send)"
       inkscape:export-filename="/home/waldgeist/data/pics/physik/Own/optik/blende-lichtstrahlen.png"
       inkscape:export-xdpi="150"
       inkscape:export-ydpi="150" />
    <path
       style="fill:#666666;stroke:#ff6600;stroke-width:0.99999988;stroke-linecap:butt;stroke-linejoin:miter;stroke-miterlimit:4;stroke-opacity:1;stroke-dasharray:0.99999988, 0.99999988;stroke-dashoffset:0;marker-end:url(#Arrow2Send)"
       d="m 181.53716,684.89087 143.82572,45.29077"
       id="path17745"
       inkscape:path-effect="#path-effect17747"
       inkscape:original-d="m 181.53716,684.89087 143.82572,45.29077"
       inkscape:connector-curvature="0"
       inkscape:export-filename="/home/waldgeist/data/pics/physik/Own/optik/blende-lichtstrahlen.png"
       inkscape:export-xdpi="150"
       inkscape:export-ydpi="150" />
    <path
       sodipodi:nodetypes="ccccc"
       inkscape:connector-curvature="0"
       inkscape:original-d="m 652.11029,764.03387 0,-159.7014 6.2671,0 0,159.21298 z"
       inkscape:path-effect="#path-effect33121"
       id="path33119"
       d="m 652.11029,764.03387 0,-159.7014 6.2671,0 0,159.21298 -6.2671,0.48842"
       style="fill:#666666;stroke:#000000;stroke-width:1px;stroke-linecap:butt;stroke-linejoin:miter;stroke-opacity:1"
       inkscape:export-filename="/home/waldgeist/data/pics/physik/Own/optik/blende-lichtstrahlen.png"
       inkscape:export-xdpi="150"
       inkscape:export-ydpi="150" />
    <path
       style="fill:#666666;stroke:#000000;stroke-width:1px;stroke-linecap:butt;stroke-linejoin:miter;stroke-opacity:1"
       d="m 982.85155,764.03387 0,-159.7014 6.2671,0 0,159.21298 -6.2671,0.48842"
       id="path33125"
       inkscape:path-effect="#path-effect33127"
       inkscape:original-d="m 982.85155,764.03387 0,-159.7014 6.2671,0 0,159.21298 z"
       inkscape:connector-curvature="0"
       sodipodi:nodetypes="ccccc"
       inkscape:export-filename="/home/waldgeist/data/pics/physik/Own/optik/blende-lichtstrahlen.png"
       inkscape:export-xdpi="150"
       inkscape:export-ydpi="150" />
    <g
       id="g18018"
       transform="translate(-4.913083,174.40369)"
       inkscape:export-filename="/home/waldgeist/data/pics/physik/Own/optik/blende-lichtstrahlen.png"
       inkscape:export-xdpi="150"
       inkscape:export-ydpi="150">
      <path
         sodipodi:nodetypes="cccccccccccccccccccc"
         transform="translate(0,308.2677)"
         inkscape:connector-curvature="0"
         id="path17948"
         d="m 378.77604,196.4167 0,-120.690491 149.39128,0 150.35665,-0.501234 -0.43162,80.866675 -22.2671,0 -98.00307,30.59817 -0.2628,-48.23588 c -55.91207,-0.97483 -165.19355,1.82848 -165.19355,1.82848 l 0,123.66437 c 0,0 106.99948,0.12435 162.88122,0 l 0,-46.74867 100.5782,31.0108 22.2671,-0.40165 0.49667,70.86379 -150.35665,-0.78147 -149.39128,0 -0.065,-121.47192 0,-2.2e-4 z"
         style="fill:none;stroke:none" />
      <g
         transform="matrix(0.59076089,0,0,0.59068713,309.65931,151.81597)"
         id="g17231">
        <path
           style="fill:none;stroke:#666666;stroke-width:8.46418858;stroke-linecap:butt;stroke-linejoin:miter;stroke-miterlimit:4;stroke-opacity:1;stroke-dasharray:none"
           d="m 415.71429,632.56812 0,79.14286 -275.71429,0 0,-202.28572"
           id="path17233"
           inkscape:path-effect="#path-effect16669"
           inkscape:original-d="m 415.71429,632.56812 0,79.14286 -275.71429,0 0,-202.28572"
           inkscape:connector-curvature="0"
           sodipodi:nodetypes="cccc" />
        <path
           sodipodi:nodetypes="cccc"
           inkscape:connector-curvature="0"
           inkscape:original-d="m 415.71429,581.49705 0,-79.14286 -275.71429,0 0,202.28572"
           inkscape:path-effect="#path-effect17210"
           id="path17235"
           d="m 415.71429,581.49705 0,-79.14286 -275.71429,0 0,202.28572"
           style="fill:none;stroke:#666666;stroke-width:8.46418858;stroke-linecap:butt;stroke-linejoin:miter;stroke-miterlimit:4;stroke-opacity:1;stroke-dasharray:none" />
      </g>
      <use
         style="stroke-width:0.93962705;stroke-miterlimit:4;stroke-dasharray:none"
         height="744.09448"
         width="1052.3622"
         transform="matrix(1.0180327,0,0,1.0179056,369.95362,-0.84841854)"
         id="use17252"
         xlink:href="#rect17243"
         y="0"
         x="0" />
      <g
         transform="matrix(0.39696006,0,0,0.3969105,306.25433,311.11605)"
         id="g17330">
        <path
           sodipodi:nodetypes="ccssssscscccsccsscccssssssssssssccssscscscssscssccsssssccccccccccccccccccccccccsccccccsssssssssssssssscccscscccscccccccccsccssssccsscccsccccccccccsccscccccscsccccccccscccccsccccsscccsscccsccccccccccccccccccccscccscccccccascccsscss"
           style="fill:#1a1a1a"
           d="m 380.08007,504.90489 c 0.0709,0.27361 0.22997,0.60365 0.35337,0.73361 0.12358,0.13005 0.22463,0.64464 0.22463,1.14377 0,0.84531 0.1703,1.04989 2.48677,2.98416 1.36775,1.14219 2.48678,2.25224 2.48678,2.46676 0,0.2145 1.10509,1.49101 2.45578,2.83658 2.29401,2.28542 2.50608,2.43546 3.22061,2.27853 0.60917,-0.13371 0.85595,-0.0574 1.21228,0.37421 1.24201,1.50522 1.56586,1.56791 2.51459,0.48666 0.83677,-0.95359 1.88562,-1.00421 2.57775,-0.12413 0.71303,0.90653 1.3975,0.80246 1.85035,-0.28149 0.28093,-0.67208 0.44931,-0.83112 0.65874,-0.6217 0.15482,0.15482 0.59715,0.28149 0.98304,0.28149 0.50563,0 0.78017,0.17255 0.98273,0.61694 0.567,1.24443 1.76537,1.0218 2.07445,-0.38544 0.14862,-0.67642 0.61792,-1.04114 0.61792,-0.48016 0,0.1368 0.28982,0.24855 0.64401,0.24855 0.36749,0 0.83903,0.24011 1.09823,0.55954 0.43549,0.53646 0.5871,0.55622 3.67729,0.47937 l 3.22304,-0.0799 0.28036,0.80404 c 0.66141,1.8974 2.66585,3.51545 5.37615,4.33981 0.68385,0.20802 3.1458,0.54496 5.47091,0.74878 6.93554,0.60796 8.56721,1.22729 17.65188,6.69997 8.87364,5.34556 13.99601,7.57601 20.63647,8.98578 4.43441,0.94147 11.68592,1.10788 16.02384,0.36779 7.81454,-1.33326 14.77663,-4.72904 20.06927,-9.78881 5.3097,-5.07609 8.68102,-11.12666 10.4364,-18.73045 0.59636,-2.58324 0.69893,-3.62962 0.79638,-8.12601 0.14666,-6.77276 -0.35608,-10.58714 -2.10631,-15.97673 -1.70939,-5.26361 -4.15715,-9.24357 -8.12595,-13.21226 -5.19249,-5.19232 -11.06491,-8.28184 -19.18064,-10.09113 -2.18997,-0.48818 -3.1843,-0.55377 -8.33074,-0.54941 -5.11454,0.003 -6.15433,0.0737 -8.3307,0.55743 -5.52174,1.22673 -9.84376,2.90267 -15.0238,5.82587 -15.76071,8.89396 -16.33971,9.13463 -24.05725,10.00018 -1.93604,0.21702 -4.11819,0.57223 -4.84927,0.78915 -3.02289,0.8969 -5.45762,2.68395 -6.40629,4.7021 -0.60821,1.29397 -0.98548,1.36848 -2.30374,0.45494 -1.1907,-0.82515 -1.96704,-0.82515 -2.94769,0 -0.42667,0.35901 -0.8752,0.6528 -0.99669,0.6528 -0.1216,0 -0.60331,-0.33573 -1.07066,-0.74605 -0.4673,-0.41033 -1.02124,-0.74603 -1.23097,-0.74603 -0.20971,0 -0.69812,0.3357 -1.08542,0.74603 -0.858,0.90906 -1.55012,0.9461 -2.32216,0.12413 -0.77741,-0.82757 -1.84309,-0.82757 -2.3853,0 -0.26882,0.41002 -0.63683,0.62167 -1.08144,0.62167 -0.39749,0 -0.91374,-0.25503 -1.25814,-0.62167 -0.75185,-0.80032 -1.04249,-0.7829 -2.07577,0.12414 -1.03396,0.90785 -1.39607,0.92877 -2.15175,0.12442 -0.32123,-0.34196 -0.7623,-0.6217 -0.98014,-0.6217 -0.44849,0 -5.73418,5.19978 -5.73418,5.64098 0,0.15735 -1.17501,1.32243 -2.61111,2.58879 -1.43614,1.26638 -2.61116,2.46622 -2.61116,2.66636 0,0.20014 -0.19591,0.50687 -0.43518,0.68156 -0.37274,0.2722 -0.44126,0.79341 -0.47768,3.63328 -0.0225,1.82353 0.0169,3.53936 0.0864,3.81291 z m 43.22625,0.37303 8.33074,0 c 5e-5,0.53879 1.4e-4,1.07762 2.2e-4,1.61644 l -8.33084,-0.0687 -8.33085,-0.0687 c 0,-0.49305 0,-0.98608 0,-1.47913 z m -0.18662,-3.97714 8.14422,0.001 0.0507,1.11734 0.0507,1.11733 -8.19481,0 -8.19483,0 c 0,-0.74602 0,-1.49208 0,-2.2381 l 8.14425,10e-4 z m -6.83868,-4.37896 c 0.71807,0.074 3.43175,0.19535 6.03044,0.26967 2.59872,0.074 5.87194,0.20267 7.27386,0.28588 l 2.54893,0.15115 c 0,0.56045 0,1.12089 0,1.68133 l -4.66267,7.9e-4 c -2.56452,4.5e-4 -6.42526,0.0738 -8.57943,0.16326 l -3.91667,0.16242 c 0,-0.94971 0,-1.89939 0,-2.84911 l 1.30554,0.13484 z m -0.76633,-8.26146 c 0.32701,-1.94592 1.30501,-3.30781 3.09898,-4.31531 1.51151,-0.84886 3.43466,-1.27157 8.26129,-1.81577 3.87105,-0.43647 6.41308,-1.12499 9.61517,-2.60438 2.07163,-0.95711 8.25695,-4.31697 12.22069,-6.63829 3.52279,-2.06307 8.59474,-4.45054 11.24016,-5.29095 11.49905,-3.65297 23.97862,-2.03189 33.68409,4.37553 2.37448,1.56757 6.7412,5.94138 8.37695,8.39052 4.16193,6.23154 6.2394,14.43606 5.89277,23.27282 -0.37874,9.65561 -3.5068,17.42523 -9.50341,23.60503 -2.76629,2.8508 -5.34587,4.77119 -8.87161,6.60457 -6.28365,3.26745 -13.07566,4.6345 -20.34245,4.09435 -8.56857,-0.63695 -15.53057,-3.1689 -25.24084,-9.17964 -5.41793,-3.35376 -9.72334,-5.52101 -12.55876,-6.32179 -1.34014,-0.37849 -3.43438,-0.69924 -5.7196,-0.87602 -4.54541,-0.35155 -6.07144,-0.64801 -7.59608,-1.47558 -2.21973,-1.20483 -2.43639,-1.84363 -2.74394,-8.08922 l -0.15764,-3.20189 8.17105,0.17199 c 5.66823,0.11935 9.33798,0.31932 11.98064,0.65291 2.09525,0.2646 4.26048,0.48095 4.81163,0.48095 1.36961,0 2.71214,-0.68058 3.03621,-1.53909 0.14525,-0.38449 0.33334,-0.69902 0.41821,-0.69902 0.085,0 0.9836,0.21393 1.99707,0.47577 2.33795,0.60362 21.85297,9.23895 22.64046,10.01831 0.79351,0.78535 2.60925,1.37481 3.1595,1.02568 0.22716,-0.14412 0.41322,-0.47309 0.41322,-0.73091 0,-0.25784 0.0822,-0.59557 0.18325,-0.75067 0.30113,-0.46313 0.65679,-3.55167 0.66603,-5.78372 0.003,-1.14774 0.0498,-2.1281 0.10049,-2.17857 0.0504,-0.0504 0.56877,0.0766 1.15173,0.28219 0.58302,0.20576 1.16972,0.30617 1.30388,0.22322 0.34234,-0.21168 -0.0197,-0.4827 -1.10498,-0.82983 -0.81651,-0.26094 -0.91354,-0.37331 -0.7804,-0.90366 0.0836,-0.33311 0.0329,-0.74921 -0.11259,-0.92466 -0.18015,-0.21702 -0.19169,-0.8319 -0.036,-1.92402 0.26685,-1.8744 0.18494,-2.64491 -0.67323,-6.32995 l -0.63698,-2.73544 0.69769,-1.05687 c 0.66071,-1.00083 0.76131,-1.0569 1.89692,-1.0569 0.93476,0 1.19922,-0.0878 1.19922,-0.3989 0,-0.34749 -0.25615,-0.37621 -1.98941,-0.22265 -2.28472,0.2021 -2.22933,0.27782 -1.74117,-2.37891 0.25671,-1.39697 -0.21675,-5.52248 -0.68787,-5.99352 -0.23139,-0.23138 -2.74355,0.67628 -3.16626,1.14405 -0.1368,0.15144 -3.4939,1.49177 -7.46032,2.97867 -3.96641,1.48691 -8.77835,3.35505 -10.69317,4.15141 -1.91482,0.79638 -4.07217,1.58385 -4.7941,1.75001 l -1.31263,0.30206 -0.67847,-0.81271 c -0.93465,-1.11959 -2.08416,-1.28634 -6.64341,-0.96378 -2.68917,0.19028 -5.84692,0.18409 -11.31487,-0.0225 -4.17159,-0.15736 -8.18664,-0.28464 -8.92237,-0.28276 l -1.33768,0.003 0.16974,-2.05159 c 0.0932,-1.12862 0.28849,-2.75948 0.43382,-3.6244 z m 20.15214,12.68979 c 1.40778,-0.0619 1.74666,0.006 2.17593,0.43518 0.56917,0.56917 0.60193,0.72163 0.26854,1.24905 -0.16101,0.25474 -0.80145,0.39628 -2.0867,0.46119 -2.0139,0.10161 -2.15371,0.003 -2.06364,-1.45045 0.0366,-0.58958 0.1247,-0.62549 1.70598,-0.69497 z m 0.86349,3.89016 c 2.02238,-0.083 2.14066,-0.12076 2.83599,-0.89884 1.91347,-2.14156 0.0197,-5.01093 -3.31536,-5.02636 l -1.18123,-0.006 c 0,-0.64328 0,-1.28654 0,-1.92979 l 2.88353,-0.18015 c 1.61402,-0.10078 2.9803,-0.083 3.10337,0.0397 0.12075,0.12075 0.49206,1.42421 0.82475,2.89619 l 0.60492,2.67636 -0.68446,2.41423 c -0.68236,2.40672 -0.68711,2.41449 -1.53237,2.5011 -0.46634,0.0476 -1.96861,-0.0493 -3.33841,-0.21618 l -2.49054,-0.30291 c 0.06,-0.6271 0.11963,-1.2542 0.17959,-1.88129 l 2.11039,-0.0867 z m 7.63949,0.54769 0.30986,-0.85766 5.57734,0.0512 c 3.06753,0.0282 5.71065,0.0504 5.87357,0.0493 0.16298,-7.9e-4 0.38966,0.47391 0.50389,1.05518 0.17593,0.8953 0.30879,1.06867 0.86912,1.13403 0.58949,0.0687 0.66989,-0.0169 0.73947,-0.76908 l 0.0782,-0.84626 5.47093,1.69069 c 3.00902,0.9299 6.12768,1.87527 6.93037,2.10089 l 1.45943,0.41018 -0.11485,3.76613 c -0.11288,3.71116 -0.44165,5.29563 -1.04561,5.04043 -0.14666,-0.0619 -5.47015,-2.42445 -11.83011,-5.24999 -7.26108,-3.22593 -12.23434,-5.29233 -13.36643,-5.55384 -1.94879,-0.45012 -1.99811,-0.51864 -1.45526,-2.0213 z m 0.33621,-8.6123 c 1.94544,-0.43814 2.73121,-0.70628 5.32287,-1.81636 1.55175,-0.66465 6.89444,-2.74126 11.87266,-4.61473 6.88848,-2.59239 9.09863,-3.32977 9.24926,-3.08603 0.39895,0.64547 0.51807,3.39929 0.22519,5.20701 l -0.2986,1.84349 -6.25384,1.88081 c -5.62764,1.69245 -6.26174,1.83564 -6.33327,1.4299 -0.1323,-0.75064 -1.21313,-0.57153 -1.65005,0.27361 -0.34699,0.67092 -0.50795,0.7362 -2.18235,0.88516 -0.99427,0.0884 -3.70519,0.12611 -6.02431,0.0839 l -4.21651,-0.0771 -0.17255,-0.62169 c -0.29635,-1.06664 -0.24208,-1.22942 0.46155,-1.38793 z m 1.63873,3.62603 c 0.8671,0 3.60878,-0.0737 6.0926,-0.16354 l 4.51607,-0.16355 c 0,1.02087 0,2.04175 0,3.06262 l -5.95399,0 -5.954,0 -0.0951,-1.05685 c -0.0524,-0.58133 -0.11484,-1.1968 -0.13849,-1.36772 -0.031,-0.22068 0.41449,-0.31087 1.5331,-0.31087 z m 17.7725,-3.35006 c 3.10374,-0.93038 5.83895,-1.74525 6.07827,-1.8109 0.29669,-0.0816 0.43518,0.0225 0.43518,0.32532 0,0.24461 0.17115,0.63374 0.3804,0.86495 0.39952,0.44143 1.46115,4.47695 1.74939,6.64981 0.0929,0.70039 0.0912,1.89486 -0.006,2.65434 -0.1641,1.31283 -0.20745,1.38084 -0.88291,1.38084 -0.73023,0 -1.59541,0.62614 -1.36972,0.99128 0.15707,0.2539 -11.37626,-3.18281 -12.03271,-3.58561 -0.083,-0.0507 -0.11598,-1.37169 -0.0738,-2.93533 l 0.0763,-2.84308 5.64303,-1.69162 z m 8.00753,10.68726 c 0.35918,0.22209 0.30215,0.86918 -0.0766,0.86918 -0.1779,0 -0.45829,-0.13512 -0.62333,-0.30004 -0.2342,-0.2342 -0.21759,-0.34626 0.0766,-0.51082 0.20717,-0.11597 0.48765,-0.14215 0.62332,-0.0583 z m -10e-4,-12.8081 c 0.1368,0 0.24855,0.10527 0.24855,0.23391 0,0.12864 -0.11175,0.30316 -0.24855,0.3877 -0.13681,0.0845 -0.24856,-0.0197 -0.24856,-0.23392 0,-0.21309 0.11175,-0.38767 0.24856,-0.38767 z"
           id="path17296-6"
           inkscape:connector-curvature="0" />
        <rect
           transform="matrix(0,1,-1,0,0,0)"
           y="-406.5318"
           x="480.73947"
           height="186.09412"
           width="43.245277"
           id="rect17298-8"
           style="fill:#4d4d4d;stroke:#666666;stroke-width:2.51930237;stroke-linecap:round;stroke-linejoin:round;stroke-miterlimit:4;stroke-opacity:1;stroke-dasharray:none;stroke-dashoffset:0" />
      </g>
      <path
         inkscape:connector-curvature="0"
         inkscape:original-d="m 508.53911,510.48718 144.92642,0"
         inkscape:path-effect="#path-effect17685-4"
         id="path17683-9"
         d="m 508.53911,510.48718 144.92642,0"
         style="fill:none;stroke:#000000;stroke-width:0.99999994;stroke-linecap:butt;stroke-linejoin:miter;stroke-miterlimit:4;stroke-opacity:1;stroke-dasharray:2, 2;stroke-dashoffset:0" />
      <path
         transform="translate(0,308.2677)"
         sodipodi:nodetypes="cccc"
         inkscape:connector-curvature="0"
         inkscape:original-d="m 557.82218,186.68982 98.00307,-30.59817 -0.11226,30.88094 z"
         inkscape:path-effect="#path-effect17984"
         id="path17982"
         d="m 557.82218,186.68982 98.00307,-30.59817 -0.11226,30.88094 -97.89081,-0.28277"
         style="fill:#f2f2f2;stroke:none" />
      <path
         style="fill:#f2f2f2;stroke:none"
         d="m 557.82218,525.69669 98.00307,30.59817 -0.11226,-30.88094 -97.89081,0.28277"
         id="path17986"
         inkscape:path-effect="#path-effect17988"
         inkscape:original-d="m 557.82218,525.69669 98.00307,30.59817 -0.11226,-30.88094 z"
         inkscape:connector-curvature="0"
         sodipodi:nodetypes="cccc" />
      <path
         sodipodi:nodetypes="cc"
         inkscape:connector-curvature="0"
         inkscape:original-d="m 496.89448,495.24029 158.08259,0"
         inkscape:path-effect="#path-effect17368"
         id="path17366"
         d="m 496.89448,495.24029 158.08259,0"
         style="fill:none;stroke:#ff6600;stroke-width:1;stroke-linecap:butt;stroke-linejoin:miter;stroke-miterlimit:4;stroke-opacity:1;stroke-dasharray:none;marker-end:url(#Arrow2Mend)" />
      <path
         sodipodi:nodetypes="cc"
         inkscape:connector-curvature="0"
         inkscape:original-d="m 495.58476,525.41392 159.39231,0"
         inkscape:path-effect="#path-effect17372"
         id="path17370"
         d="m 495.58476,525.41392 159.39231,0"
         style="fill:none;stroke:#ff6600;stroke-width:1;stroke-linecap:butt;stroke-linejoin:miter;stroke-miterlimit:4;stroke-opacity:1;stroke-dasharray:none;marker-end:url(#Arrow2Mend)" />
      <path
         style="fill:#333333;stroke:#ff6600;stroke-width:0.99999994;stroke-linecap:butt;stroke-linejoin:miter;stroke-miterlimit:4;stroke-opacity:1;stroke-dasharray:0.99999994, 0.99999994;stroke-dashoffset:0;marker-end:url(#Arrow2Send)"
         d="m 508.30378,510.41798 147.52147,46.05864"
         id="path17413"
         inkscape:path-effect="#path-effect17415"
         inkscape:original-d="m 508.30378,510.41798 147.52147,46.05864"
         inkscape:connector-curvature="0" />
      <path
         inkscape:connector-curvature="0"
         inkscape:original-d="M 508.30378,510.41798 655.82525,464.35935"
         inkscape:path-effect="#path-effect17411"
         id="path17409"
         d="M 508.30378,510.41798 655.82525,464.35935"
         style="fill:#ff6600;stroke:#ff6600;stroke-width:0.99999994;stroke-linecap:butt;stroke-linejoin:miter;stroke-miterlimit:4;stroke-opacity:1;stroke-dasharray:0.99999994, 0.99999994;stroke-dashoffset:0;marker-end:url(#Arrow2Send)" />
    </g>
  </g>
</svg>
