<svg xmlns="http://www.w3.org/2000/svg" xmlns:xlink="http://www.w3.org/1999/xlink" width="1122.52" height="793.701" viewBox="0 0 1052.3622 744.09448"><defs><marker orient="auto" id="c" overflow="visible"><path d="M8.719 4.034L-2.207.016 8.719-4.002c-1.746 2.372-1.736 5.618 0 8.036z" transform="matrix(-.3 0 0 -.3 .69 0)" font-size="12" fill-rule="evenodd" stroke-width=".625" stroke-linejoin="round"/></marker><marker orient="auto" id="b" overflow="visible"><path d="M8.719 4.034L-2.207.016 8.719-4.002c-1.746 2.372-1.736 5.618 0 8.036z" transform="scale(-.6)" font-size="12" fill-rule="evenodd" stroke-width=".625" stroke-linejoin="round"/></marker></defs><g transform="translate(0 -308.268)"><path fill="#fff" stroke="#fff" stroke-linejoin="round" d="M9.319 514.394h1033.725v331.841H9.319z"/><path d="M698.512 555.724c101.602 1.277 204.091 0 305.699 0 0 26.983-.542 82.877-.542 82.877h-22.267L877.333 670.24l-2.659-47.285h-162.88v123.664h162.88l2.17-46.692L981.218 730.9l22.993-.304v72.139H698.511z" fill="none"/><path d="M877.333 670.24l104.114-31.207v38.757z" fill="#f2f2f2" stroke="#f2f2f2"/><use xlink:href="#a" transform="matrix(1.01803 0 0 1.0179 313.45 165.364)" width="1052.362" height="744.094"/><path d="M758.604 686.11c.039.146.124.323.19.393s.12.346.12.613c0 .454.092.563 1.335 1.601.733.613 1.334 1.208 1.334 1.323 0 .115.593.8 1.317 1.522 1.23 1.226 1.345 1.306 1.728 1.222.327-.072.46-.03.65.2.667.808.84.842 1.35.262.448-.512 1.011-.539 1.382-.067.383.486.75.43.993-.15.15-.361.241-.447.353-.334.083.083.32.15.528.15.271 0 .418.093.527.332.304.667.947.548 1.113-.207.08-.363.331-.559.331-.258 0 .074.156.134.346.134.197 0 .45.128.59.3.233.288.314.298 1.972.257l1.729-.043.15.431c.355 1.018 1.43 1.886 2.885 2.328.366.112 1.687.293 2.935.402 3.72.326 4.596.658 9.47 3.594 4.76 2.867 7.508 4.064 11.07 4.82 2.38.505 6.27.594 8.597.197 4.192-.715 7.927-2.536 10.767-5.25 2.848-2.723 4.657-5.97 5.599-10.048.32-1.386.375-1.947.427-4.359.079-3.633-.191-5.679-1.13-8.57-.917-2.823-2.23-4.958-4.36-7.087-2.785-2.785-5.935-4.443-10.29-5.413-1.174-.262-1.708-.297-4.469-.295-2.744.002-3.301.04-4.469.3-2.962.657-5.28 1.556-8.06 3.124-8.455 4.771-8.766 4.9-12.906 5.364-1.039.117-2.21.307-2.602.424-1.621.48-2.928 1.44-3.437 2.522-.326.694-.528.734-1.235.244-.64-.443-1.056-.443-1.582 0-.229.193-.47.35-.535.35-.065 0-.323-.18-.574-.4-.25-.22-.548-.4-.66-.4-.113 0-.375.18-.583.4-.46.488-.831.508-1.245.067-.418-.444-.99-.444-1.28 0-.144.22-.342.333-.58.333-.214 0-.49-.137-.675-.333-.404-.43-.56-.42-1.114.066-.555.487-.749.498-1.154.067-.173-.183-.41-.333-.526-.333-.24 0-3.076 2.789-3.076 3.025 0 .085-.63.71-1.401 1.39-.77.678-1.401 1.322-1.401 1.43 0 .107-.105.271-.233.365-.2.146-.237.426-.257 1.949-.012.978.01 1.898.047 2.045zm23.19.2h4.47v.866l-4.47-.036-4.469-.037v-.794zm-.1-2.134h4.37l.027.6.027.6h-8.793v-1.201h4.37zm-3.668-2.349c.385.04 1.84.105 3.235.145 1.394.04 3.15.108 3.902.153l1.368.081v.902h-2.502c-1.376 0-3.447.04-4.603.088l-2.1.087v-1.528l.7.072zm-.412-4.432c.176-1.043.7-1.774 1.663-2.314.81-.456 1.843-.682 4.432-.974 2.077-.235 3.44-.604 5.158-1.397 1.112-.514 4.43-2.316 6.557-3.561 1.89-1.107 4.61-2.388 6.03-2.838 6.169-1.96 12.864-1.09 18.07 2.347 1.274.84 3.617 3.187 4.495 4.5 2.232 3.343 3.347 7.744 3.161 12.484-.203 5.18-1.881 9.347-5.098 12.662-1.484 1.53-2.868 2.56-4.76 3.543-3.37 1.753-7.015 2.486-10.913 2.196-4.597-.341-8.332-1.7-13.541-4.924-2.907-1.799-5.217-2.961-6.738-3.39-.719-.204-1.842-.376-3.068-.47-2.439-.19-3.258-.348-4.076-.792-1.19-.646-1.307-.99-1.472-4.34l-.084-1.717 4.383.092c3.041.064 5.01.172 6.428.35 1.124.143 2.285.259 2.581.259.735 0 1.455-.365 1.629-.826.078-.206.179-.375.224-.375.046 0 .528.115 1.072.255 1.254.324 11.723 4.956 12.146 5.374.426.421 1.4.738 1.695.55a.522.522 0 0 0 .222-.392c0-.138.044-.32.098-.402.161-.249.352-1.906.357-3.103.002-.615.027-1.141.054-1.168.027-.027.305.04.618.15.313.111.628.165.7.12.183-.113-.011-.258-.593-.444-.438-.14-.49-.2-.419-.485.045-.179.018-.402-.06-.496-.097-.117-.103-.446-.02-1.032.144-1.006.1-1.419-.36-3.396l-.343-1.467.375-.567c.354-.537.408-.567 1.017-.567.502 0 .644-.047.644-.214 0-.186-.138-.202-1.068-.12-1.225.11-1.196.15-.934-1.275.138-.75-.116-2.963-.369-3.215-.124-.125-1.472.362-1.698.613-.074.082-1.875.8-4.003 1.598s-4.709 1.8-5.736 2.227c-1.028.427-2.185.85-2.572.939l-.704.162-.364-.436c-.502-.6-1.119-.69-3.564-.517-1.443.102-3.137.099-6.07-.012-2.239-.085-4.393-.153-4.787-.152l-.718.002.091-1.101c.05-.605.155-1.48.233-1.944zm10.812 6.807c.755-.033.937.003 1.167.234.305.305.323.387.144.67-.086.136-.43.212-1.12.247-1.08.055-1.155.002-1.106-.778.02-.316.066-.335.915-.373zm.463 2.087c1.085-.044 1.148-.065 1.521-.482 1.027-1.149.011-2.688-1.778-2.696l-.634-.003v-1.035l1.547-.097c.866-.054 1.599-.045 1.665.021.065.065.264.764.442 1.554l.325 1.435-.367 1.295c-.366 1.291-.369 1.296-.822 1.342-.25.026-1.056-.026-1.791-.116l-1.336-.162.096-1.01 1.132-.046zm4.098.294l.167-.46 2.992.027 3.15.027c.088 0 .21.254.271.566.095.48.166.573.466.608.317.037.36-.009.397-.412l.042-.454 2.935.906c1.614.5 3.288 1.006 3.718 1.127l.783.22-.061 2.02c-.061 1.991-.237 2.841-.561 2.704-.08-.033-2.935-1.3-6.347-2.816-3.896-1.73-6.564-2.839-7.17-2.979-1.046-.241-1.073-.278-.782-1.084zm.18-4.62c1.044-.235 1.466-.379 2.856-.974.833-.357 3.7-1.47 6.37-2.476 3.695-1.39 4.881-1.786 4.962-1.655.214.346.278 1.823.12 2.793l-.16.989-3.355 1.009c-3.019.908-3.359.985-3.397.767-.071-.403-.651-.307-.885.147-.187.36-.273.395-1.171.475-.534.047-1.988.067-3.232.045l-2.262-.042-.093-.333c-.159-.573-.13-.66.248-.745zm.88 1.945c.465 0 1.936-.04 3.268-.088l2.423-.087v1.643h-6.388l-.051-.567a25.108 25.108 0 0 0-.074-.734c-.017-.118.222-.167.822-.167zm9.535-1.797c1.665-.499 3.132-.936 3.26-.971.16-.044.234.012.234.174 0 .132.092.34.204.464.214.237.784 2.402.938 3.567a6.66 6.66 0 0 1-.003 1.424c-.088.704-.11.74-.473.74-.392 0-.856.337-.735.533.084.136-6.103-1.708-6.455-1.924-.045-.027-.063-.736-.04-1.574l.041-1.525 3.027-.908zm4.295 5.733c.193.12.162.466-.04.466a.568.568 0 0 1-.335-.16c-.126-.126-.117-.186.041-.275.111-.062.262-.076.334-.031zm0-6.87c.073 0 .133.056.133.125s-.06.163-.133.208c-.074.045-.134-.01-.134-.125s.06-.208.134-.208z" fill="#1a1a1a"/><path fill="#4d4d4d" stroke="#666" stroke-width=".662" stroke-linecap="round" stroke-linejoin="round" d="M196.604 606.44h15.363v38.943h-15.363z" transform="matrix(0 1.50994 -1.51013 0 1688.597 376.287)"/><g fill="none" stroke="#666" stroke-width="8.464"><path d="M415.714 632.568v79.143H140V509.425" transform="matrix(.59076 0 0 .59069 629.087 326.22)"/><path d="M415.714 581.497v-79.143H140V704.64" transform="matrix(.59076 0 0 .59069 629.087 326.22)"/></g><path d="M877.333 699.4l104.114 31.206v-38.757z" fill="#f2f2f2" stroke="#f2f2f2"/><path d="M811.41 664.66l170.037 13.13" fill="none" stroke="#f60" marker-end="url(#b)"/><path d="M828.682 684.822l152.765-45.789M828.682 684.822l153.2 45.92" fill="#333" stroke="#f60" stroke-dasharray=".99999988,.99999988" marker-end="url(#c)"/><path d="M827.25 685.618h154.197" fill="none" stroke="#000" stroke-dasharray="2.00000008,2.00000008"/><path d="M811.41 704.98l170.037-13.13" fill="none" stroke="#f60" marker-end="url(#b)"/><path d="M228.884 699.04l95.958 30.978.108-18.381-96.066-12.596" fill="#f2f2f2" stroke="#f2f2f2"/><path d="M49.295 679.815l-1.143-121.919h300.283l-.446 40.571v39.718h-8.799c-7.342 0-11.433.769-24.717 4.642-12.178 3.55-59.599 18.25-85.069 26.335l-.186-48.67H61.784v129.053c55.95.55 111.882-.445 167.82-1.366l.23-47.955c95.529 29.958 95.529 29.958 117.796 29.676l.36 35.913v33.688H49.294z" fill="none"/><path d="M229.404 669.162l95.959-30.977.108 18.38-96.067 12.597" fill="#f2f2f2" stroke="#f2f2f2"/><g transform="matrix(1.01803 0 0 1.0179 39.865 173.555)"><g fill="none" stroke="#666" stroke-width="8.464"><path d="M184.16 517.056v45.926H24.164V445.597" stroke-width="4.911659200000001"/><path d="M184.16 487.42v-45.927H24.164V558.88" stroke-width="4.911659200000001"/></g><path id="d" fill="none" stroke="#000" stroke-width=".982" d="M8.14 377.58h294.965v238.396H8.14z"/><path d="M114.31 502.834c.013.051.042.112.065.137.023.024.042.12.042.212 0 .157.032.195.462.554.254.212.461.418.461.458 0 .04.206.277.456.527.426.424.466.452.598.423.114-.025.16-.01.225.07.231.279.291.29.467.09.156-.177.35-.187.479-.023.132.168.26.149.344-.053.052-.124.083-.154.122-.115.029.029.11.052.182.052.094 0 .145.032.183.115.105.23.328.19.385-.072.028-.125.115-.193.115-.089 0 .025.054.046.12.046.068 0 .155.045.203.104.081.1.11.103.683.09l.599-.016.052.15c.122.352.495.652.998.805.127.039.584.102 1.016.14 1.288.112 1.59.227 3.277 1.243 1.648.993 2.6 1.407 3.832 1.669.824.175 2.17.206 2.976.068 1.45-.247 2.743-.878 3.726-1.817.986-.943 1.612-2.066 1.938-3.478.11-.48.13-.674.148-1.51.027-1.257-.066-1.965-.391-2.966-.318-.977-.772-1.716-1.51-2.453-.963-.964-2.054-1.538-3.56-1.874-.407-.09-.592-.103-1.548-.102-.95 0-1.142.014-1.546.104-1.026.228-1.828.539-2.79 1.082-2.927 1.651-3.034 1.696-4.467 1.856-.36.04-.765.107-.9.147-.562.166-1.014.498-1.19.873-.113.24-.183.254-.428.084-.22-.153-.365-.153-.547 0a.612.612 0 0 1-.185.122c-.023 0-.112-.063-.199-.139-.087-.076-.19-.138-.229-.138-.038 0-.13.062-.201.138-.16.169-.288.176-.431.023-.145-.153-.342-.153-.443 0a.233.233 0 0 1-.2.116.357.357 0 0 1-.235-.116c-.14-.148-.193-.145-.385.023-.192.169-.26.173-.4.023-.06-.063-.141-.115-.182-.115-.083 0-1.064.965-1.064 1.047 0 .03-.218.246-.485.481s-.485.458-.485.495c0 .037-.036.094-.08.127-.07.05-.083.147-.09.674-.004.339.004.658.017.708zm8.026.07h1.547v.3l-1.547-.013-1.547-.013v-.274zm-.035-.739h1.512l.01.208.01.207h-3.044v-.415h1.512zm-1.27-.813c.134.014.638.036 1.12.05.483.014 1.09.038 1.35.053l.474.028v.312h-.866c-.476 0-1.193.014-1.593.03l-.727.031v-.529l.242.025zm-.142-1.534c.06-.361.242-.614.576-.801.28-.158.637-.236 1.534-.337.718-.081 1.19-.21 1.785-.484.385-.178 1.533-.802 2.269-1.233.654-.383 1.596-.826 2.087-.982 2.135-.678 4.452-.377 6.255.812.44.291 1.251 1.104 1.555 1.558.773 1.157 1.159 2.68 1.094 4.322-.07 1.793-.65 3.235-1.764 4.383-.514.529-.993.886-1.648 1.226-1.166.607-2.428.86-3.777.76-1.59-.118-2.884-.588-4.687-1.704-1.006-.623-1.805-1.025-2.332-1.174a5.98 5.98 0 0 0-1.062-.163c-.844-.065-1.127-.12-1.41-.274-.412-.223-.452-.342-.51-1.502l-.029-.594 1.517.032c1.053.022 1.734.059 2.225.121.389.05.791.09.893.09.255 0 .504-.127.564-.287.027-.07.062-.13.078-.13s.182.04.37.089c.435.112 4.058 1.716 4.205 1.86.147.146.484.256.586.19a.18.18 0 0 0 .077-.135c0-.048.015-.11.034-.14.056-.085.122-.659.124-1.073 0-.213.009-.395.018-.405.01-.01.106.014.214.053.108.038.217.056.242.041.064-.04-.003-.09-.205-.154-.152-.049-.17-.07-.145-.168.016-.062.006-.139-.02-.172-.034-.04-.036-.154-.007-.357.05-.348.034-.491-.125-1.175l-.119-.508.13-.196c.123-.186.141-.197.352-.197.174 0 .223-.016.223-.074 0-.064-.048-.07-.37-.041-.424.038-.414.052-.323-.442.048-.26-.04-1.025-.128-1.113-.043-.043-.51.126-.588.213-.025.028-.648.277-1.385.553-.736.276-1.63.623-1.985.77a8.478 8.478 0 0 1-.89.326l-.244.056-.126-.151c-.174-.208-.387-.239-1.234-.18-.5.036-1.085.035-2.1-.003a89.82 89.82 0 0 0-1.657-.053h-.249l.032-.38c.017-.21.053-.513.08-.673zm3.742 2.356c.261-.011.324.001.404.081.106.106.112.134.05.232-.03.047-.149.074-.388.086-.374.018-.4 0-.383-.27.007-.11.023-.116.317-.129zm.16.723c.376-.016.398-.023.527-.167.355-.398.004-.93-.616-.934h-.219v-.359l.535-.033c.3-.02.554-.016.577.007.022.022.091.264.153.538l.112.497-.127.448c-.127.447-.128.448-.285.464a4.269 4.269 0 0 1-.62-.04l-.462-.056.033-.35.392-.016zm1.419.101l.057-.159 1.036.01 1.09.009c.03 0 .073.088.094.196.033.166.057.198.162.21.109.013.124-.003.137-.143l.014-.157 1.016.314c.559.173 1.138.348 1.287.39l.271.076-.021.7c-.021.689-.082.983-.194.936l-2.197-.975c-1.348-.6-2.272-.983-2.482-1.031-.362-.084-.371-.097-.27-.376zm.062-1.599c.361-.081.507-.131.989-.337a83.6 83.6 0 0 1 2.204-.857c1.28-.481 1.69-.618 1.718-.573.074.12.096.631.041.967l-.055.342-1.161.35c-1.045.314-1.163.34-1.176.265-.025-.14-.226-.106-.307.05-.064.125-.094.137-.405.165a14.67 14.67 0 0 1-1.118.016l-.783-.015-.032-.115c-.055-.198-.045-.228.085-.258zm.305.673c.16 0 .67-.013 1.13-.03l.84-.03v.568h-2.212l-.017-.196a8.695 8.695 0 0 0-.026-.254c-.006-.04.077-.058.285-.058zm3.3-.622c.576-.172 1.084-.324 1.128-.336.055-.015.081.004.081.06 0 .046.032.118.07.161.075.082.272.831.325 1.235.018.13.017.352 0 .493-.031.244-.04.256-.165.256-.135 0-.296.116-.254.184.03.047-2.112-.59-2.234-.666-.016-.009-.022-.254-.014-.545l.014-.528 1.048-.314zm1.486 1.985c.067.041.056.161-.014.161a.197.197 0 0 1-.116-.056c-.043-.043-.04-.064.015-.094.038-.022.09-.027.115-.011zm0-2.378c.026 0 .046.02.046.043 0 .024-.02.056-.046.072-.025.016-.046-.004-.046-.043 0-.04.02-.072.046-.072z" fill="#1a1a1a"/><path fill="#4d4d4d" stroke="#666" stroke-width=".9824328800000002" stroke-linecap="round" stroke-linejoin="round" d="M119.221 498.347v8.03H23.565v-8.03z"/><path d="M133.753 495.256l146.145-21.171M133.753 509.152l146.336 20.625" fill="none" stroke="#f60" stroke-width=".982" stroke-linecap="round" marker-end="url(#b)"/></g><path d="M181.34 684.89h144.926" fill="none" stroke="#000" stroke-dasharray="2,2"/><path d="M326.794 764.034V604.332h6.267v159.213z" fill="#666" stroke="#000"/><path d="M181.537 684.89l143.826-46.705" fill="#333" stroke="#f60" stroke-dasharray=".99999982,.99999982" marker-end="url(#c)"/><path d="M181.537 684.89l143.826 45.292" fill="#666" stroke="#f60" stroke-dasharray=".99999988,.99999988" marker-end="url(#c)"/><path d="M652.11 764.034V604.332h6.267v159.213zM982.852 764.034V604.332h6.267v159.213z" fill="#666" stroke="#000"/><g transform="translate(-4.913 174.404)"><path d="M378.776 504.684v-120.69h149.391l150.357-.501-.432 80.866h-22.267l-98.003 30.599-.263-48.236c-55.912-.975-165.193 1.828-165.193 1.828v123.664s107 .125 162.881 0v-46.748l100.578 31.01 22.267-.401.497 70.864-150.357-.782h-149.39l-.066-121.472z" fill="none"/><g fill="none" stroke="#666" stroke-width="8.464"><path d="M415.714 632.568v79.143H140V509.425" transform="matrix(.59076 0 0 .59069 309.66 151.816)"/><path d="M415.714 581.497v-79.143H140V704.64" transform="matrix(.59076 0 0 .59069 309.66 151.816)"/></g><use height="744.094" width="1052.362" transform="matrix(1.01803 0 0 1.0179 369.954 -.848)" id="a" xlink:href="#d" stroke-width=".94"/><path d="M457.13 511.518a.8.8 0 0 0 .141.291c.05.052.09.256.09.454 0 .336.067.417.987 1.185.542.453.987.894.987.979 0 .085.438.592.975 1.126.91.907.994.966 1.278.904.242-.053.34-.023.481.149.493.597.622.622.998.193.333-.379.749-.399 1.024-.05.283.36.554.319.734-.111.112-.267.179-.33.262-.247.061.061.237.112.39.112.2 0 .31.068.39.245.225.493.7.405.823-.153.06-.269.246-.414.246-.191 0 .054.115.099.255.099.146 0 .333.095.436.222.173.213.233.22 1.46.19l1.28-.032.11.32c.263.753 1.06 1.395 2.135 1.722.271.082 1.249.216 2.172.297 2.753.241 3.4.487 7.007 2.66 3.522 2.121 5.556 3.006 8.192 3.566 1.76.374 4.638.44 6.36.146 3.102-.53 5.866-1.877 7.967-3.885 2.108-2.015 3.446-4.417 4.143-7.435.237-1.025.277-1.44.316-3.225.058-2.688-.141-4.202-.836-6.341-.679-2.09-1.65-3.67-3.226-5.244-2.06-2.061-4.392-3.288-7.614-4.006-.869-.193-1.264-.22-3.307-.218-2.03.001-2.443.03-3.307.222-2.191.486-3.907 1.152-5.963 2.312-6.257 3.53-6.487 3.626-9.55 3.97-.769.085-1.635.226-1.925.312-1.2.356-2.167 1.066-2.543 1.867-.242.513-.391.543-.915.18-.472-.327-.78-.327-1.17 0-.17.143-.347.26-.395.26-.049 0-.24-.134-.425-.297-.186-.163-.406-.296-.49-.296-.082 0-.276.133-.43.296-.34.361-.615.376-.922.05-.308-.329-.731-.329-.947 0a.497.497 0 0 1-.429.246c-.158 0-.363-.101-.5-.247-.298-.317-.413-.31-.823.05s-.555.368-.855.05c-.127-.137-.302-.248-.389-.248-.178 0-2.276 2.064-2.276 2.24 0 .062-.466.524-1.036 1.027-.57.502-1.037.979-1.037 1.058 0 .08-.078.201-.173.27-.148.109-.175.316-.19 1.443-.008.724.007 1.405.035 1.513zm17.16.148h3.307v.642l-3.307-.028-3.307-.027v-.587zm-.074-1.578h3.233l.02.443.02.444h-6.506v-.888h3.233zm-2.715-1.738c.285.029 1.363.077 2.394.107 1.032.029 2.331.08 2.888.113l1.011.06v.667h-1.85c-1.019 0-2.551.03-3.406.065l-1.555.065v-1.13l.518.053zm-.304-3.28c.13-.772.518-1.312 1.23-1.712.6-.337 1.364-.505 3.28-.721 1.536-.173 2.545-.447 3.816-1.034.823-.38 3.278-1.713 4.852-2.635 1.398-.818 3.411-1.766 4.461-2.1 4.565-1.45 9.52-.806 13.372 1.737.942.622 2.676 2.358 3.325 3.33 1.652 2.474 2.477 5.73 2.34 9.238-.151 3.832-1.393 6.916-3.773 9.369a12.843 12.843 0 0 1-3.522 2.621c-2.494 1.297-5.19 1.84-8.075 1.625-3.401-.253-6.165-1.258-10.02-3.643-2.15-1.331-3.86-2.192-4.985-2.51-.532-.15-1.363-.277-2.27-.347-1.805-.14-2.41-.257-3.016-.586-.88-.478-.967-.732-1.089-3.21l-.063-1.271 3.244.068c2.25.047 3.707.127 4.756.259.832.105 1.691.19 1.91.19.544 0 1.076-.27 1.205-.61.058-.153.132-.277.166-.277s.39.085.793.188c.928.24 8.675 3.667 8.987 3.977.315.312 1.036.545 1.254.407a.386.386 0 0 0 .164-.29.65.65 0 0 1 .073-.298c.12-.184.26-1.41.265-2.296 0-.455.02-.844.04-.864.02-.02.225.03.457.112.231.081.464.121.517.088.136-.084-.008-.191-.438-.33-.324-.103-.363-.147-.31-.358.033-.132.013-.297-.045-.367-.071-.086-.076-.33-.014-.764.106-.744.073-1.05-.267-2.512l-.253-1.086.277-.42c.262-.396.302-.419.753-.419.37 0 .476-.035.476-.158 0-.138-.102-.15-.79-.088-.907.08-.885.11-.691-.945.102-.554-.086-2.192-.273-2.378-.092-.092-1.09.268-1.257.454-.054.06-1.387.592-2.962 1.182-1.574.59-3.484 1.332-4.244 1.648-.76.316-1.617.628-1.903.694l-.521.12-.27-.322c-.37-.445-.827-.511-2.637-.383-1.067.076-2.32.073-4.491-.009-1.656-.062-3.25-.113-3.542-.112l-.531.001.067-.814c.037-.448.115-1.096.172-1.439zm8 5.037c.558-.024.693.003.863.173.226.226.24.286.107.496-.064.1-.318.157-.828.183-.8.04-.855 0-.82-.576.015-.234.05-.248.678-.276zm.342 1.544c.803-.033.85-.048 1.126-.357.76-.85.008-1.988-1.316-1.995l-.469-.002v-.766l1.145-.071c.64-.04 1.183-.033 1.232.015.048.048.195.566.327 1.15l.24 1.062-.271.958c-.271.956-.273.959-.609.993-.185.019-.781-.02-1.325-.086l-.989-.12.072-.747.837-.034zm3.033.218l.123-.34 2.214.02 2.332.02c.064-.001.154.187.2.418.07.355.122.424.345.45.234.027.266-.007.293-.305l.031-.336 2.172.67c1.194.37 2.432.745 2.751.835l.58.163-.046 1.494c-.045 1.473-.176 2.102-.415 2.001-.059-.025-2.172-.962-4.696-2.084-2.883-1.28-4.857-2.1-5.306-2.204-.774-.179-.794-.206-.578-.802zm.133-3.419c.773-.174 1.085-.28 2.113-.72.616-.264 2.737-1.089 4.713-1.832 2.735-1.03 3.612-1.322 3.672-1.225.158.256.206 1.35.09 2.067l-.12.731-2.482.747c-2.234.672-2.485.728-2.514.567-.052-.298-.481-.227-.655.109-.137.266-.201.292-.866.351-.395.035-1.47.05-2.391.034l-1.674-.031-.069-.247c-.117-.423-.096-.488.183-.55zm.651 1.44c.344 0 1.433-.03 2.418-.065l1.793-.065v1.215h-4.727l-.038-.42c-.02-.23-.045-.474-.055-.542-.012-.088.165-.123.61-.123zm7.055-1.33c1.232-.37 2.318-.693 2.413-.719.118-.032.173.009.173.13 0 .096.067.25.15.343.16.175.58 1.776.695 2.639a4.92 4.92 0 0 1-.002 1.053c-.066.521-.083.548-.35.548-.29 0-.634.249-.545.394.063.1-4.516-1.263-4.776-1.423-.033-.02-.046-.545-.03-1.165l.03-1.129 2.24-.671zm3.179 4.242c.142.088.12.345-.03.345a.42.42 0 0 1-.248-.12c-.093-.092-.087-.137.03-.202.082-.046.194-.057.248-.023zm0-5.084c.054 0 .098.042.098.093s-.044.12-.099.154c-.054.033-.098-.008-.098-.093 0-.085.044-.154.098-.154z" fill="#1a1a1a"/><path transform="matrix(0 .39691 -.39696 0 306.254 311.116)" fill="#4d4d4d" stroke="#666" stroke-width="2.519" stroke-linecap="round" stroke-linejoin="round" d="M480.739-406.532h43.245v186.094h-43.245z"/><path d="M508.54 510.487h144.926" fill="none" stroke="#000" stroke-dasharray="2,2"/><path d="M557.822 494.958l98.003-30.599-.112 30.881zM557.822 525.697l98.003 30.598-.112-30.881z" fill="#f2f2f2"/><path d="M496.894 495.24h158.083M495.585 525.414h159.392" fill="none" stroke="#f60" marker-end="url(#b)"/><path d="M508.304 510.418l147.521 46.059" fill="#333" stroke="#f60" stroke-dasharray=".99999994,.99999994" marker-end="url(#c)"/><path d="M508.304 510.418l147.521-46.059" fill="#f60" stroke="#f60" stroke-dasharray=".99999994,.99999994" marker-end="url(#c)"/></g></g></svg>