<svg xmlns="http://www.w3.org/2000/svg" xmlns:xlink="http://www.w3.org/1999/xlink" width="210mm" height="297mm"><title>Disko-Kugel</title><defs><marker orient="auto" id="c" overflow="visible"><path d="M8.719 4.034L-2.207.016 8.719-4.002c-1.746 2.372-1.736 5.618 0 8.036z" transform="rotate(180) scale(.6)" font-size="12" fill-rule="evenodd" stroke-width=".625" stroke-linejoin="round"/></marker></defs><path fill="#fff" stroke="#f9f9f9" stroke-linejoin="round" d="M55.758 299.502h632.578V752.86H55.758z"/><rect ry="1.702" transform="matrix(0 -1 -1 0 0 0)" width="158.151" height="3.696" x="-513.063" y="-199.282" fill="#4d4d4d" stroke="#000" stroke-width="1.483" stroke-linecap="round" stroke-linejoin="round"/><g fill="none" stroke-width="13.058" stroke-linecap="round" stroke="#333"><path d="M234.75-345.03c-6.696 0-12.125-5.43-12.125-12.126s5.429-12.125 12.125-12.125 12.125 5.429 12.125 12.125" transform="matrix(.32978 0 0 .34012 424.78 569.544)" stroke-linejoin="round"/><path d="M228.625-51.638v16.875" transform="matrix(.32978 0 0 .34012 426.8 469.755)"/></g><path fill="gray" stroke="#333" stroke-width="3" stroke-linejoin="round" d="M157.394 505.325h79.399v51.53h-79.399zM236.794 520.777h10.834v20.627h-10.834z"/><path d="M576.211 531.313a74.015 74.015 0 1 1-148.029 0 74.015 74.015 0 1 1 148.03 0z" fill="#ccc" stroke="#333" stroke-width=".8067"/><path d="M428.182 531.313h148.03" fill="none" stroke="#333" stroke-width="1.21"/><g id="a" stroke="#333" fill="none" stroke-width="3"><path d="M514.937 531.313c0-47.866-6.191-74.05-12.74-74.014 16.865 0 33.841 36.085 33.841 74.014" stroke-width="1.2100499999999998"/><path d="M554.466 531.313c0-49.494-32.083-74.656-51.128-74.656 33.954 0 65.082 27.376 65.082 74.656" stroke-width="1.2100499999999998"/></g><use xlink:href="#a" transform="matrix(-1 0 0 1 1004.394 0)" width="744.094" height="1052.362"/><use xlink:href="#a" transform="matrix(1 0 0 -1 0 1062.18)" width="744.094" height="1052.362"/><use xlink:href="#a" transform="rotate(180 502.197 531.09)" width="744.094" height="1052.362"/><g id="b" stroke="#333" fill="none" stroke-width="3" stroke-linecap="round"><path d="M572.359 507.606h-70.162M562.206 487.979l-60.01.1M549.832 474.643h-47.635M537.05 465.92h-34.853" stroke-width="1.2100499999999998"/></g><use xlink:href="#b" transform="matrix(-1 0 0 1 1004.49 0)" width="744.094" height="1052.362"/><use xlink:href="#b" transform="matrix(1 0 0 -1 0 1062.687)" width="744.094" height="1052.362"/><use xlink:href="#b" transform="rotate(180 502.245 531.344)" width="744.094" height="1052.362"/><rect y="-504.045" x="-447.232" height="3.696" width="92.32" transform="matrix(0 -1 -1 0 0 0)" ry="1.702" fill="#4d4d4d" stroke="#000" stroke-width="1.483" stroke-linecap="round" stroke-linejoin="round"/><path fill="#4d4d4d" stroke="#000" stroke-width="3.888" stroke-linejoin="round" d="M104.712 346.065h534.671v11.766H104.712z"/><path d="M448.12 481.34l-20.2-119.605M436.202 497.968L321.455 360.31M428.975 519.683l-169.806-57.29" fill="none" stroke="#a00" stroke-width="2" marker-end="url(#c)"/><path d="M248.717 527.334l184.61-29.09M248.537 523.409l196.567-42.036M247.923 530.891l178.249-10.67" fill="none" stroke="#f60" stroke-width="2" marker-end="url(#c)"/><path d="M448.12 580.84l-25.381 148.22M436.202 564.212L321.455 701.87M428.975 542.497l-169.806 57.29" fill="none" stroke="#a00" stroke-width="2" marker-end="url(#c)"/><path d="M248.717 534.846l184.61 29.09M248.537 538.771l196.567 42.036M247.923 531.289l178.249 10.67" fill="none" stroke="#f60" stroke-width="2" marker-end="url(#c)"/></svg>