<?xml version="1.0" encoding="UTF-8" standalone="no"?>
<!-- Created with Inkscape (http://www.inkscape.org/) -->

<svg
   xmlns:ns0="http://www.iki.fi/pav/software/textext/"
   xmlns:dc="http://purl.org/dc/elements/1.1/"
   xmlns:cc="http://creativecommons.org/ns#"
   xmlns:rdf="http://www.w3.org/1999/02/22-rdf-syntax-ns#"
   xmlns:svg="http://www.w3.org/2000/svg"
   xmlns="http://www.w3.org/2000/svg"
   xmlns:xlink="http://www.w3.org/1999/xlink"
   xmlns:sodipodi="http://sodipodi.sourceforge.net/DTD/sodipodi-0.dtd"
   xmlns:inkscape="http://www.inkscape.org/namespaces/inkscape"
   width="210mm"
   height="297mm"
   id="svg37992"
   version="1.1"
   inkscape:version="0.48.3.1 r9886"
   sodipodi:docname="ebener-spiegel.svg"
   inkscape:export-filename="/home/waldgeist/data/pics/physik/Own/optik/ebener-spiegel.png"
   inkscape:export-xdpi="90"
   inkscape:export-ydpi="90">
  <title
     id="title3128">Ebener Spiegel</title>
  <sodipodi:namedview
     id="base"
     pagecolor="#ffffff"
     bordercolor="#666666"
     borderopacity="1.0"
     inkscape:pageopacity="0.0"
     inkscape:pageshadow="2"
     inkscape:zoom="0.7"
     inkscape:cx="370.89575"
     inkscape:cy="506.61721"
     inkscape:document-units="px"
     inkscape:current-layer="layer1"
     showgrid="false"
     inkscape:window-width="1280"
     inkscape:window-height="974"
     inkscape:window-x="0"
     inkscape:window-y="0"
     inkscape:window-maximized="1"
     inkscape:snap-smooth-nodes="true"
     inkscape:object-nodes="true"
     inkscape:snap-global="false" />
  <defs
     id="defs37994">
    <radialGradient
       inkscape:collect="always"
       xlink:href="#linearGradient35265"
       id="radialGradient37156"
       gradientUnits="userSpaceOnUse"
       gradientTransform="matrix(1,0,0,2.4311881,1.3010286,4179.6755)"
       cx="-7817.8047"
       cy="-2897.7612"
       fx="-7817.8047"
       fy="-2897.7612"
       r="29.799461" />
    <linearGradient
       id="linearGradient35265">
      <stop
         style="stop-color:#ff9955;stop-opacity:1;"
         offset="0"
         id="stop35267" />
      <stop
         style="stop-color:#fffb36;stop-opacity:1;"
         offset="1"
         id="stop35269" />
    </linearGradient>
    <inkscape:path-effect
       effect="spiro"
       id="path-effect34665"
       is_visible="true" />
    <radialGradient
       inkscape:collect="always"
       xlink:href="#linearGradient35265"
       id="radialGradient37158"
       gradientUnits="userSpaceOnUse"
       gradientTransform="matrix(1,0,0,2.4311881,1.3010286,4179.6755)"
       cx="-7817.8047"
       cy="-2897.7612"
       fx="-7817.8047"
       fy="-2897.7612"
       r="29.799461" />
    <linearGradient
       id="linearGradient37938">
      <stop
         style="stop-color:#ff9955;stop-opacity:1;"
         offset="0"
         id="stop37940" />
      <stop
         style="stop-color:#fffb36;stop-opacity:1;"
         offset="1"
         id="stop37942" />
    </linearGradient>
    <inkscape:path-effect
       effect="spiro"
       id="path-effect37944"
       is_visible="true" />
    <marker
       style="overflow:visible"
       id="Arrow2Mend"
       refX="0"
       refY="0"
       orient="auto"
       inkscape:stockid="Arrow2Mend">
      <path
         inkscape:connector-curvature="0"
         transform="scale(-0.6,-0.6)"
         d="M 8.7185878,4.0337352 -2.2072895,0.01601326 8.7185884,-4.0017078 c -1.7454984,2.3720609 -1.7354408,5.6174519 -6e-7,8.035443 z"
         style="font-size:12px;fill-rule:evenodd;stroke-width:0.625;stroke-linejoin:round"
         id="path4744" />
    </marker>
    <marker
       style="overflow:visible"
       id="marker37948"
       refX="0"
       refY="0"
       orient="auto"
       inkscape:stockid="Arrow2Mend">
      <path
         inkscape:connector-curvature="0"
         transform="scale(-0.6,-0.6)"
         d="M 8.7185878,4.0337352 -2.2072895,0.01601326 8.7185884,-4.0017078 c -1.7454984,2.3720609 -1.7354408,5.6174519 -6e-7,8.035443 z"
         style="font-size:12px;fill-rule:evenodd;stroke-width:0.625;stroke-linejoin:round"
         id="path37950" />
    </marker>
    <marker
       style="overflow:visible"
       id="marker37952"
       refX="0"
       refY="0"
       orient="auto"
       inkscape:stockid="Arrow2Mend">
      <path
         inkscape:connector-curvature="0"
         transform="scale(-0.6,-0.6)"
         d="M 8.7185878,4.0337352 -2.2072895,0.01601326 8.7185884,-4.0017078 c -1.7454984,2.3720609 -1.7354408,5.6174519 -6e-7,8.035443 z"
         style="font-size:12px;fill-rule:evenodd;stroke-width:0.625;stroke-linejoin:round"
         id="path37954" />
    </marker>
    <marker
       style="overflow:visible"
       id="marker37956"
       refX="0"
       refY="0"
       orient="auto"
       inkscape:stockid="Arrow2Mend">
      <path
         inkscape:connector-curvature="0"
         transform="scale(-0.6,-0.6)"
         d="M 8.7185878,4.0337352 -2.2072895,0.01601326 8.7185884,-4.0017078 c -1.7454984,2.3720609 -1.7354408,5.6174519 -6e-7,8.035443 z"
         style="font-size:12px;fill-rule:evenodd;stroke-width:0.625;stroke-linejoin:round"
         id="path37958" />
    </marker>
    <marker
       style="overflow:visible"
       id="marker37960"
       refX="0"
       refY="0"
       orient="auto"
       inkscape:stockid="Arrow2Mend">
      <path
         inkscape:connector-curvature="0"
         transform="scale(-0.6,-0.6)"
         d="M 8.7185878,4.0337352 -2.2072895,0.01601326 8.7185884,-4.0017078 c -1.7454984,2.3720609 -1.7354408,5.6174519 -6e-7,8.035443 z"
         style="font-size:12px;fill-rule:evenodd;stroke-width:0.625;stroke-linejoin:round"
         id="path37962" />
    </marker>
    <marker
       style="overflow:visible"
       id="marker37964"
       refX="0"
       refY="0"
       orient="auto"
       inkscape:stockid="Arrow2Mend">
      <path
         inkscape:connector-curvature="0"
         transform="scale(-0.6,-0.6)"
         d="M 8.7185878,4.0337352 -2.2072895,0.01601326 8.7185884,-4.0017078 c -1.7454984,2.3720609 -1.7354408,5.6174519 -6e-7,8.035443 z"
         style="font-size:12px;fill-rule:evenodd;stroke-width:0.625;stroke-linejoin:round"
         id="path37966" />
    </marker>
    <radialGradient
       inkscape:collect="always"
       xlink:href="#linearGradient35265"
       id="radialGradient5253"
       gradientUnits="userSpaceOnUse"
       gradientTransform="matrix(1,0,0,2.4311881,1.3010286,4179.6755)"
       cx="-7817.8047"
       cy="-2897.7612"
       fx="-7817.8047"
       fy="-2897.7612"
       r="29.799461" />
    <radialGradient
       inkscape:collect="always"
       xlink:href="#linearGradient35265"
       id="radialGradient5255"
       gradientUnits="userSpaceOnUse"
       gradientTransform="matrix(1,0,0,2.4311881,1.3010286,4179.6755)"
       cx="-7817.8047"
       cy="-2897.7612"
       fx="-7817.8047"
       fy="-2897.7612"
       r="29.799461" />
    <radialGradient
       inkscape:collect="always"
       xlink:href="#linearGradient35265"
       id="radialGradient40385"
       gradientUnits="userSpaceOnUse"
       gradientTransform="matrix(1,0,0,2.4311881,1.3010774,3826.4898)"
       cx="-7817.8047"
       cy="-2897.7612"
       fx="-7817.8047"
       fy="-2897.7612"
       r="29.799461" />
    <radialGradient
       inkscape:collect="always"
       xlink:href="#linearGradient35265"
       id="radialGradient40387"
       gradientUnits="userSpaceOnUse"
       gradientTransform="matrix(1,0,0,2.4311881,1.3010774,4532.8612)"
       cx="-7817.8047"
       cy="-2897.7612"
       fx="-7817.8047"
       fy="-2897.7612"
       r="29.799461" />
    <radialGradient
       r="29.799461"
       fy="-2897.7612"
       fx="-7817.8047"
       cy="-2897.7612"
       cx="-7817.8047"
       gradientTransform="matrix(1,0,0,2.4311881,1.3010286,4179.6755)"
       gradientUnits="userSpaceOnUse"
       id="radialGradient35297"
       xlink:href="#linearGradient35265-1"
       inkscape:collect="always" />
    <linearGradient
       id="linearGradient35265-1">
      <stop
         style="stop-color:#ff9955;stop-opacity:1;"
         offset="0"
         id="stop35267-9" />
      <stop
         style="stop-color:#fffb36;stop-opacity:1;"
         offset="1"
         id="stop35269-6" />
    </linearGradient>
    <inkscape:path-effect
       effect="spiro"
       id="path-effect34665-4"
       is_visible="true" />
    <radialGradient
       r="29.799461"
       fy="-2897.7612"
       fx="-7817.8047"
       cy="-2897.7612"
       cx="-7817.8047"
       gradientTransform="matrix(1,0,0,2.4311881,1.3010286,4179.6755)"
       gradientUnits="userSpaceOnUse"
       id="radialGradient14756"
       xlink:href="#linearGradient35265-1"
       inkscape:collect="always" />
    <radialGradient
       inkscape:collect="always"
       xlink:href="#linearGradient35265-1"
       id="radialGradient14816"
       gradientUnits="userSpaceOnUse"
       gradientTransform="matrix(1,0,0,2.4311881,1.3010286,4179.6755)"
       cx="-7817.8047"
       cy="-2897.7612"
       fx="-7817.8047"
       fy="-2897.7612"
       r="29.799461" />
  </defs>
  <metadata
     id="metadata37997">
    <rdf:RDF>
      <cc:Work
         rdf:about="">
        <dc:format>image/svg+xml</dc:format>
        <dc:type
           rdf:resource="http://purl.org/dc/dcmitype/StillImage" />
        <dc:title>Ebener Spiegel</dc:title>
        <dc:date>2012-01-28</dc:date>
        <dc:creator>
          <cc:Agent>
            <dc:title>Bernhard Grotz</dc:title>
          </cc:Agent>
        </dc:creator>
        <dc:rights>
          <cc:Agent>
            <dc:title>Bernhard Grotz</dc:title>
          </cc:Agent>
        </dc:rights>
        <dc:publisher>
          <cc:Agent>
            <dc:title>Bernhard Grotz</dc:title>
          </cc:Agent>
        </dc:publisher>
        <dc:language>de-DE</dc:language>
        <dc:subject>
          <rdf:Bag>
            <rdf:li>Physik</rdf:li>
            <rdf:li>Optik</rdf:li>
            <rdf:li>Lichtreflektion</rdf:li>
            <rdf:li>Ebener Spiegel</rdf:li>
            <rdf:li>Gegenstandspunkt</rdf:li>
            <rdf:li>Bildpunkt</rdf:li>
          </rdf:Bag>
        </dc:subject>
        <cc:license
           rdf:resource="http://creativecommons.org/licenses/by-nc-sa/3.0/" />
      </cc:Work>
      <cc:License
         rdf:about="http://creativecommons.org/licenses/by-nc-sa/3.0/">
        <cc:permits
           rdf:resource="http://creativecommons.org/ns#Reproduction" />
        <cc:permits
           rdf:resource="http://creativecommons.org/ns#Distribution" />
        <cc:requires
           rdf:resource="http://creativecommons.org/ns#Notice" />
        <cc:requires
           rdf:resource="http://creativecommons.org/ns#Attribution" />
        <cc:prohibits
           rdf:resource="http://creativecommons.org/ns#CommercialUse" />
        <cc:permits
           rdf:resource="http://creativecommons.org/ns#DerivativeWorks" />
        <cc:requires
           rdf:resource="http://creativecommons.org/ns#ShareAlike" />
      </cc:License>
    </rdf:RDF>
  </metadata>
  <g
     inkscape:label="Ebene 1"
     inkscape:groupmode="layer"
     id="layer1">
    <rect
       style="opacity:0.5;fill:#ffffff;stroke:#f9f9f9;stroke-width:1.00000012;stroke-linecap:round;stroke-linejoin:round;stroke-miterlimit:4;stroke-opacity:1;stroke-dasharray:none;stroke-dashoffset:0"
       id="rect37131"
       width="710.30463"
       height="518.29541"
       x="16.894928"
       y="267.03339"
       inkscape:export-filename="/home/waldgeist/data/pics/physik/Own/optik/ebener-spiegel.png"
       inkscape:export-xdpi="150"
       inkscape:export-ydpi="150" />
    <rect
       style="fill:#b3b3b3;fill-opacity:1;stroke:#000000;stroke-width:1.85465169;stroke-linecap:butt;stroke-linejoin:round;stroke-miterlimit:4;stroke-opacity:1;stroke-dasharray:none;stroke-dashoffset:0"
       id="rect36125"
       width="608.35681"
       height="7.0026975"
       x="67.868828"
       y="530.73474"
       inkscape:export-filename="/home/waldgeist/data/pics/physik/Own/optik/ebener-spiegel.png"
       inkscape:export-xdpi="150"
       inkscape:export-ydpi="150" />
    <g
       transform="matrix(0.55380028,0,0,0.55856589,4500.7914,1996.6061)"
       id="g35273"
       style="stroke:#501616;stroke-width:1.79798555"
       inkscape:export-filename="/home/waldgeist/data/pics/physik/Own/optik/ebener-spiegel.png"
       inkscape:export-xdpi="150"
       inkscape:export-ydpi="150">
      <rect
         y="-2837.7759"
         x="-7820.0957"
         height="51.51778"
         width="5.0507627"
         id="rect34661"
         style="fill:#666666;stroke:#501616;stroke-width:0.89899278;stroke-linecap:butt;stroke-linejoin:round;stroke-miterlimit:4;stroke-opacity:1;stroke-dasharray:none;stroke-dashoffset:0" />
      <rect
         y="-2788.2378"
         x="-7853.936"
         height="161.6244"
         width="72.73098"
         id="rect34659"
         style="fill:#782121;stroke:#501616;stroke-width:1.79798555;stroke-linecap:round;stroke-linejoin:round;stroke-miterlimit:4;stroke-opacity:1;stroke-dasharray:none;stroke-dashoffset:0"
         ry="7.0710678" />
      <path
         sodipodi:nodetypes="ccccssc"
         inkscape:connector-curvature="0"
         inkscape:original-d="m -7808.3494,-2825.5617 c 0,0 -41.3481,-11.1222 -38.3402,-32.9764 1.5039,-10.927 0.7821,-23.2529 15.3676,-33.6492 14.5855,-10.3962 20.4245,-60.5575 13.8673,-76.6548 20.4237,-4.9901 17.6166,53.3136 23.8806,85.5259 6.264,32.2123 8.2369,37.2168 -1.5322,48.856 -19.3194,23.0178 34.3564,-27.1838 -13.2431,8.8985 z"
         inkscape:path-effect="#path-effect34665-4"
         id="path34663"
         d="m -7808.3494,-2825.5617 c -9.5563,2.2682 -20.1341,-0.3051 -27.5805,-6.7098 -7.4464,-6.4046 -11.573,-16.4785 -10.7597,-26.2666 0.5154,-6.2033 2.8746,-12.1201 5.8106,-17.6089 2.936,-5.4888 6.4625,-10.6393 9.557,-16.0403 13.1628,-22.9738 18.147,-50.5255 13.8673,-76.6548 7.6633,28.5904 15.624,57.1011 23.8806,85.5259 2.3673,8.1499 4.7753,16.3874 5.1718,24.8649 0.3965,8.4775 -1.4135,17.3552 -6.704,23.9911 -3.3677,4.2242 -8.0595,7.3768 -13.2431,8.8985"
         style="fill:url(#radialGradient14756);fill-opacity:1;stroke:#501616;stroke-width:0.89899278;stroke-linecap:butt;stroke-linejoin:miter;stroke-opacity:1" />
    </g>
    <path
       style="fill:none;stroke:#ff6600;stroke-width:2;stroke-linecap:round;stroke-linejoin:miter;stroke-miterlimit:4;stroke-opacity:1;stroke-dasharray:none;marker-end:url(#Arrow2Mend)"
       d="M 173.41731,340.16021 359.63649,530.73476"
       id="path36147"
       inkscape:connector-curvature="0"
       inkscape:export-filename="/home/waldgeist/data/pics/physik/Own/optik/ebener-spiegel.png"
       inkscape:export-xdpi="150"
       inkscape:export-ydpi="150" />
    <path
       inkscape:connector-curvature="0"
       id="path36991"
       d="M 173.41731,340.16022 411.70512,530.73478"
       style="fill:none;stroke:#ff6600;stroke-width:2;stroke-linecap:round;stroke-linejoin:miter;stroke-miterlimit:4;stroke-opacity:1;stroke-dasharray:none;marker-end:url(#Arrow2Mend)"
       inkscape:export-filename="/home/waldgeist/data/pics/physik/Own/optik/ebener-spiegel.png"
       inkscape:export-xdpi="150"
       inkscape:export-ydpi="150" />
    <path
       inkscape:connector-curvature="0"
       id="path37005"
       d="M 360.59267,530.73478 546.81184,340.16023"
       style="fill:none;stroke:#000000;stroke-width:2;stroke-linecap:round;stroke-linejoin:miter;stroke-miterlimit:4;stroke-opacity:1;stroke-dasharray:none;marker-end:url(#Arrow2Mend)"
       inkscape:export-filename="/home/waldgeist/data/pics/physik/Own/optik/ebener-spiegel.png"
       inkscape:export-xdpi="150"
       inkscape:export-ydpi="150" />
    <path
       style="fill:none;stroke:#ff6600;stroke-width:2;stroke-linecap:round;stroke-linejoin:miter;stroke-miterlimit:4;stroke-opacity:1;stroke-dasharray:2, 6;stroke-dashoffset:0;marker-end:url(#Arrow2Mend)"
       d="M 174.60126,721.07624 546.81184,340.16023"
       id="path37011"
       inkscape:connector-curvature="0"
       inkscape:export-filename="/home/waldgeist/data/pics/physik/Own/optik/ebener-spiegel.png"
       inkscape:export-xdpi="150"
       inkscape:export-ydpi="150" />
    <path
       style="fill:none;stroke:#000000;stroke-width:2;stroke-linecap:round;stroke-linejoin:miter;stroke-miterlimit:4;stroke-opacity:1;stroke-dasharray:none;marker-end:url(#Arrow2Mend)"
       d="M 411.61331,530.66134 588.07571,389.53266"
       id="path37013"
       inkscape:connector-curvature="0"
       inkscape:export-filename="/home/waldgeist/data/pics/physik/Own/optik/ebener-spiegel.png"
       inkscape:export-xdpi="150"
       inkscape:export-ydpi="150" />
    <path
       inkscape:connector-curvature="0"
       id="path37015"
       d="M 177.63697,717.78773 588.07571,389.53266"
       style="fill:none;stroke:#ff6600;stroke-width:2;stroke-linecap:round;stroke-linejoin:miter;stroke-miterlimit:4;stroke-opacity:1;stroke-dasharray:2, 6;stroke-dashoffset:0;marker-end:url(#Arrow2Mend)"
       inkscape:export-filename="/home/waldgeist/data/pics/physik/Own/optik/ebener-spiegel.png"
       inkscape:export-xdpi="150"
       inkscape:export-ydpi="150" />
    <g
       style="stroke:#000000;stroke-width:0.95560014"
       transform="matrix(0.73996094,0.73996096,-0.73996096,0.73996094,176.99545,100.14375)"
       id="g37069"
       inkscape:export-filename="/home/waldgeist/data/pics/physik/Own/optik/ebener-spiegel.png"
       inkscape:export-xdpi="150"
       inkscape:export-ydpi="150">
      <g
         style="stroke:#000000;stroke-width:0.95560014"
         id="g37071">
        <path
           inkscape:connector-curvature="0"
           style="fill:#1a1a1a;stroke:#000000;stroke-width:0.95560014px;stroke-linecap:round;stroke-linejoin:miter;stroke-opacity:1"
           d="m 444.28125,-112.63782 c -9.99189,0.10943 -19.73632,3.41895 -29.28125,9.5625 19.08985,12.287098 39.025,13.162538 60,0 -10.4875,-6.58127 -20.72686,-9.67193 -30.71875,-9.5625 z"
           id="path37073" />
        <path
           style="fill:none;stroke:#000000;stroke-width:2.86680031;stroke-linecap:butt;stroke-linejoin:miter;stroke-miterlimit:4;stroke-opacity:1;stroke-dasharray:none"
           d="m 405,-97.637817 40,-50.000003 40,50.000003"
           id="path37075"
           inkscape:connector-curvature="0"
           sodipodi:nodetypes="ccc" />
      </g>
    </g>
    <g
       transform="matrix(1.8108079,0,0,1.8108079,-259.11701,507.46668)"
       ns0:text="Bild $B$"
       ns0:preamble=""
       id="g38802"
       inkscape:export-filename="/home/waldgeist/data/pics/physik/Own/optik/ebener-spiegel.png"
       inkscape:export-xdpi="150"
       inkscape:export-ydpi="150">
      <defs
         id="defs38804">
        <g
           id="g38806">
          <symbol
             style="overflow:visible"
             overflow="visible"
             id="textext-5a10024c-0">
            <path
               inkscape:connector-curvature="0"
               style="stroke:none"
               d="m 2.21875,-3.65625 0,-2.4375 C 2.21875,-6.4375 2.234375,-6.5 2.703125,-6.5 l 1.234375,0 c 0.96875,0 1.3125,0.84375 1.3125,1.375 0,0.640625 -0.484375,1.46875 -1.59375,1.46875 z M 4.5625,-3.5625 C 5.53125,-3.75 6.21875,-4.390625 6.21875,-5.125 6.21875,-5.984375 5.296875,-6.8125 4,-6.8125 l -3.640625,0 0,0.3125 0.234375,0 c 0.765625,0 0.796875,0.109375 0.796875,0.46875 l 0,5.25 c 0,0.359375 -0.03125,0.46875 -0.796875,0.46875 l -0.234375,0 0,0.3125 3.90625,0 c 1.328125,0 2.21875,-0.890625 2.21875,-1.828125 0,-0.859375 -0.8125,-1.609375 -1.921875,-1.734375 z m -0.609375,3.25 -1.25,0 c -0.46875,0 -0.484375,-0.0625 -0.484375,-0.390625 l 0,-2.71875 1.875,0 C 5.078125,-3.421875 5.5,-2.5 5.5,-1.828125 5.5,-1.125 4.96875,-0.3125 3.953125,-0.3125 z m 0,0"
               id="path38809" />
          </symbol>
          <symbol
             style="overflow:visible"
             overflow="visible"
             id="textext-5a10024c-1">
            <path
               inkscape:connector-curvature="0"
               style="stroke:none"
               d="M 1.765625,-4.40625 0.375,-4.296875 l 0,0.3125 c 0.640625,0 0.734375,0.0625 0.734375,0.546875 l 0,2.6875 c 0,0.4375 -0.109375,0.4375 -0.78125,0.4375 l 0,0.3125 C 0.640625,-0.015625 1.1875,-0.03125 1.421875,-0.03125 1.78125,-0.03125 2.125,-0.015625 2.46875,0 l 0,-0.3125 c -0.671875,0 -0.703125,-0.046875 -0.703125,-0.4375 z m 0.03125,-1.734375 c 0,-0.3125 -0.234375,-0.53125 -0.515625,-0.53125 -0.3125,0 -0.53125,0.265625 -0.53125,0.53125 0,0.265625 0.21875,0.53125 0.53125,0.53125 0.28125,0 0.515625,-0.21875 0.515625,-0.53125 z m 0,0"
               id="path38812" />
          </symbol>
          <symbol
             style="overflow:visible"
             overflow="visible"
             id="textext-5a10024c-2">
            <path
               inkscape:connector-curvature="0"
               style="stroke:none"
               d="m 1.765625,-6.921875 -1.4375,0.109375 0,0.3125 c 0.703125,0 0.78125,0.0625 0.78125,0.5625 l 0,5.1875 c 0,0.4375 -0.109375,0.4375 -0.78125,0.4375 l 0,0.3125 C 0.65625,-0.015625 1.1875,-0.03125 1.4375,-0.03125 c 0.25,0 0.734375,0.015625 1.109375,0.03125 l 0,-0.3125 c -0.671875,0 -0.78125,0 -0.78125,-0.4375 z m 0,0"
               id="path38815" />
          </symbol>
          <symbol
             style="overflow:visible"
             overflow="visible"
             id="textext-5a10024c-3">
            <path
               inkscape:connector-curvature="0"
               style="stroke:none"
               d="m 3.78125,-0.546875 0,0.65625 L 5.25,0 l 0,-0.3125 c -0.6875,0 -0.78125,-0.0625 -0.78125,-0.5625 l 0,-6.046875 -1.421875,0.109375 0,0.3125 c 0.6875,0 0.765625,0.0625 0.765625,0.5625 l 0,2.15625 c -0.28125,-0.359375 -0.71875,-0.625 -1.25,-0.625 -1.171875,0 -2.21875,0.984375 -2.21875,2.265625 0,1.265625 0.96875,2.25 2.109375,2.25 0.640625,0 1.078125,-0.34375 1.328125,-0.65625 z m 0,-2.671875 0,2.046875 c 0,0.171875 0,0.1875 -0.109375,0.359375 C 3.375,-0.328125 2.9375,-0.109375 2.5,-0.109375 2.046875,-0.109375 1.6875,-0.375 1.453125,-0.75 1.203125,-1.15625 1.171875,-1.71875 1.171875,-2.140625 1.171875,-2.5 1.1875,-3.09375 1.46875,-3.546875 1.6875,-3.859375 2.0625,-4.1875 2.609375,-4.1875 c 0.34375,0 0.765625,0.15625 1.0625,0.59375 0.109375,0.171875 0.109375,0.1875 0.109375,0.375 z m 0,0"
               id="path38818" />
          </symbol>
          <symbol
             style="overflow:visible"
             overflow="visible"
             id="textext-5a10024c-4">
            <path
               inkscape:connector-curvature="0"
               style="stroke:none"
               d="M 1.59375,-0.78125 C 1.5,-0.390625 1.46875,-0.3125 0.6875,-0.3125 c -0.171875,0 -0.265625,0 -0.265625,0.203125 C 0.421875,0 0.515625,0 0.6875,0 L 4.25,0 C 5.828125,0 7,-1.171875 7,-2.15625 7,-2.875 6.421875,-3.453125 5.453125,-3.5625 6.484375,-3.75 7.53125,-4.484375 7.53125,-5.4375 c 0,-0.734375 -0.65625,-1.375 -1.84375,-1.375 l -3.359375,0 c -0.1875,0 -0.28125,0 -0.28125,0.203125 0,0.109375 0.09375,0.109375 0.28125,0.109375 0.015625,0 0.203125,0 0.375,0.015625 0.171875,0.03125 0.265625,0.03125 0.265625,0.171875 0,0.03125 -0.015625,0.0625 -0.03125,0.1875 z m 1.5,-2.875 0.625,-2.46875 C 3.8125,-6.46875 3.828125,-6.5 4.25,-6.5 l 1.296875,0 c 0.875,0 1.078125,0.59375 1.078125,1.03125 0,0.875 -0.859375,1.8125 -2.0625,1.8125 z m -0.4375,3.34375 c -0.140625,0 -0.15625,0 -0.21875,0 -0.109375,-0.015625 -0.140625,-0.03125 -0.140625,-0.109375 0,-0.03125 0,-0.046875 0.0625,-0.21875 l 0.6875,-2.78125 1.875,0 c 0.953125,0 1.15625,0.734375 1.15625,1.15625 C 6.078125,-1.28125 5.1875,-0.3125 4,-0.3125 z m 0,0"
               id="path38821" />
          </symbol>
        </g>
      </defs>
      <g
         id="textext-5a10024c-5">
        <g
           style="fill:#000000;fill-opacity:1"
           id="g38824">
          <use
             height="1052.3622"
             width="744.09448"
             xlink:href="#textext-5a10024c-0"
             x="223.43201"
             y="134.765"
             id="use38826" />
          <use
             height="1052.3622"
             width="744.09448"
             xlink:href="#textext-5a10024c-1"
             x="230.48851"
             y="134.765"
             id="use38828" />
          <use
             height="1052.3622"
             width="744.09448"
             xlink:href="#textext-5a10024c-2"
             x="233.25612"
             y="134.765"
             id="use38830" />
          <use
             height="1052.3622"
             width="744.09448"
             xlink:href="#textext-5a10024c-3"
             x="236.02373"
             y="134.765"
             id="use38832" />
        </g>
        <g
           style="fill:#000000;fill-opacity:1"
           id="g38834">
          <use
             height="1052.3622"
             width="744.09448"
             xlink:href="#textext-5a10024c-4"
             x="244.88"
             y="134.765"
             id="use38836" />
        </g>
      </g>
    </g>
    <g
       id="g39063"
       transform="matrix(1.8108079,0,0,1.8108079,-289.14745,73.50226)"
       ns0:preamble=""
       ns0:text="Gegenstand $G$"
       inkscape:export-filename="/home/waldgeist/data/pics/physik/Own/optik/ebener-spiegel.png"
       inkscape:export-xdpi="150"
       inkscape:export-ydpi="150">
      <defs
         id="defs39065">
        <g
           id="g39067">
          <symbol
             id="textext-a06aa4d4-0"
             overflow="visible"
             style="overflow:visible">
            <path
               id="path39070"
               d="m 5.90625,-0.625 c 0.140625,0.21875 0.53125,0.609375 0.640625,0.609375 0.09375,0 0.09375,-0.078125 0.09375,-0.21875 l 0,-1.734375 c 0,-0.390625 0.03125,-0.4375 0.6875,-0.4375 l 0,-0.3125 c -0.375,0 -0.921875,0.03125 -1.21875,0.03125 -0.390625,0 -1.25,0 -1.609375,-0.03125 l 0,0.3125 0.328125,0 C 5.71875,-2.40625 5.75,-2.296875 5.75,-1.9375 l 0,0.640625 c 0,1.125 -1.265625,1.203125 -1.546875,1.203125 -0.640625,0 -2.625,-0.34375 -2.625,-3.3125 0,-2.984375 1.96875,-3.3125 2.5625,-3.3125 1.078125,0 1.984375,0.890625 2.171875,2.359375 0.03125,0.140625 0.03125,0.171875 0.171875,0.171875 0.15625,0 0.15625,-0.03125 0.15625,-0.234375 l 0,-2.359375 c 0,-0.171875 0,-0.25 -0.109375,-0.25 -0.046875,0 -0.078125,0 -0.15625,0.125 l -0.5,0.734375 C 5.546875,-6.484375 5.015625,-7.03125 4.03125,-7.03125 c -1.859375,0 -3.46875,1.578125 -3.46875,3.625 0,2.046875 1.59375,3.625 3.484375,3.625 0.734375,0 1.53125,-0.265625 1.859375,-0.84375 z m 0,0"
               style="stroke:none"
               inkscape:connector-curvature="0" />
          </symbol>
          <symbol
             id="textext-a06aa4d4-1"
             overflow="visible"
             style="overflow:visible">
            <path
               id="path39073"
               d="M 1.109375,-2.515625 C 1.171875,-4 2.015625,-4.25 2.359375,-4.25 c 1.015625,0 1.125,1.34375 1.125,1.734375 z m 0,0.21875 2.78125,0 c 0.21875,0 0.25,0 0.25,-0.21875 0,-0.984375 -0.546875,-1.953125 -1.78125,-1.953125 -1.15625,0 -2.078125,1.03125 -2.078125,2.28125 0,1.328125 1.046875,2.296875 2.1875,2.296875 C 3.6875,0.109375 4.140625,-1 4.140625,-1.1875 4.140625,-1.28125 4.0625,-1.3125 4,-1.3125 c -0.078125,0 -0.109375,0.0625 -0.125,0.140625 -0.34375,1.03125 -1.25,1.03125 -1.34375,1.03125 -0.5,0 -0.890625,-0.296875 -1.125,-0.671875 -0.296875,-0.46875 -0.296875,-1.125 -0.296875,-1.484375 z m 0,0"
               style="stroke:none"
               inkscape:connector-curvature="0" />
          </symbol>
          <symbol
             id="textext-a06aa4d4-2"
             overflow="visible"
             style="overflow:visible">
            <path
               id="path39076"
               d="m 2.21875,-1.71875 c -0.875,0 -0.875,-1 -0.875,-1.21875 0,-0.265625 0.015625,-0.59375 0.15625,-0.84375 0.078125,-0.109375 0.3125,-0.390625 0.71875,-0.390625 0.859375,0 0.859375,0.984375 0.859375,1.21875 0,0.265625 0,0.59375 -0.15625,0.84375 C 2.84375,-2 2.609375,-1.71875 2.21875,-1.71875 z M 1.0625,-1.328125 c 0,-0.03125 0,-0.265625 0.15625,-0.46875 0.390625,0.28125 0.8125,0.3125 1,0.3125 0.921875,0 1.609375,-0.6875 1.609375,-1.453125 0,-0.375 -0.15625,-0.734375 -0.40625,-0.96875 C 3.78125,-4.25 4.140625,-4.296875 4.3125,-4.296875 c 0.03125,0 0.078125,0 0.109375,0.015625 C 4.3125,-4.25 4.25,-4.140625 4.25,-4.015625 c 0,0.171875 0.140625,0.28125 0.296875,0.28125 0.09375,0 0.28125,-0.0625 0.28125,-0.296875 0,-0.171875 -0.109375,-0.484375 -0.5,-0.484375 -0.203125,0 -0.640625,0.0625 -1.0625,0.46875 C 2.84375,-4.375 2.4375,-4.40625 2.21875,-4.40625 c -0.9375,0 -1.625,0.6875 -1.625,1.453125 0,0.4375 0.21875,0.8125 0.46875,1.03125 -0.125,0.140625 -0.3125,0.46875 -0.3125,0.828125 0,0.3125 0.140625,0.6875 0.453125,0.890625 -0.609375,0.15625 -0.921875,0.59375 -0.921875,0.984375 0,0.71875 0.984375,1.265625 2.203125,1.265625 1.171875,0 2.203125,-0.5 2.203125,-1.28125 0,-0.34375 -0.125,-0.859375 -0.640625,-1.140625 -0.53125,-0.265625 -1.109375,-0.265625 -1.71875,-0.265625 -0.25,0 -0.671875,0 -0.75,-0.015625 C 1.265625,-0.703125 1.0625,-1 1.0625,-1.328125 z M 2.5,1.828125 c -1.015625,0 -1.703125,-0.515625 -1.703125,-1.046875 0,-0.453125 0.375,-0.828125 0.8125,-0.84375 l 0.59375,0 c 0.859375,0 1.96875,0 1.96875,0.84375 0,0.546875 -0.703125,1.046875 -1.671875,1.046875 z m 0,0"
               style="stroke:none"
               inkscape:connector-curvature="0" />
          </symbol>
          <symbol
             id="textext-a06aa4d4-3"
             overflow="visible"
             style="overflow:visible">
            <path
               id="path39079"
               d="m 1.09375,-3.421875 0,2.671875 c 0,0.4375 -0.109375,0.4375 -0.78125,0.4375 l 0,0.3125 c 0.359375,-0.015625 0.859375,-0.03125 1.140625,-0.03125 0.25,0 0.765625,0.015625 1.109375,0.03125 l 0,-0.3125 c -0.671875,0 -0.78125,0 -0.78125,-0.4375 l 0,-1.84375 C 1.78125,-3.625 2.5,-4.1875 3.125,-4.1875 c 0.640625,0 0.75,0.53125 0.75,1.109375 l 0,2.328125 c 0,0.4375 -0.109375,0.4375 -0.78125,0.4375 l 0,0.3125 c 0.34375,-0.015625 0.859375,-0.03125 1.125,-0.03125 0.25,0 0.78125,0.015625 1.109375,0.03125 l 0,-0.3125 c -0.515625,0 -0.765625,0 -0.765625,-0.296875 l 0,-1.90625 c 0,-0.859375 0,-1.15625 -0.3125,-1.515625 -0.140625,-0.171875 -0.46875,-0.375 -1.046875,-0.375 C 2.46875,-4.40625 2,-3.984375 1.71875,-3.359375 l 0,-1.046875 -1.40625,0.109375 0,0.3125 c 0.703125,0 0.78125,0.0625 0.78125,0.5625 z m 0,0"
               style="stroke:none"
               inkscape:connector-curvature="0" />
          </symbol>
          <symbol
             id="textext-a06aa4d4-4"
             overflow="visible"
             style="overflow:visible">
            <path
               id="path39082"
               d="m 2.078125,-1.9375 c 0.21875,0.046875 1.03125,0.203125 1.03125,0.921875 0,0.5 -0.34375,0.90625 -1.125,0.90625 -0.84375,0 -1.203125,-0.5625 -1.390625,-1.421875 C 0.5625,-1.65625 0.5625,-1.6875 0.453125,-1.6875 c -0.125,0 -0.125,0.0625 -0.125,0.234375 l 0,1.328125 c 0,0.171875 0,0.234375 0.109375,0.234375 0.046875,0 0.0625,-0.015625 0.25,-0.203125 0.015625,-0.015625 0.015625,-0.03125 0.203125,-0.21875 0.4375,0.40625 0.890625,0.421875 1.09375,0.421875 1.140625,0 1.609375,-0.671875 1.609375,-1.390625 0,-0.515625 -0.296875,-0.828125 -0.421875,-0.9375 C 2.84375,-2.546875 2.453125,-2.625 2.03125,-2.703125 1.46875,-2.8125 0.8125,-2.9375 0.8125,-3.515625 c 0,-0.359375 0.25,-0.765625 1.109375,-0.765625 1.09375,0 1.15625,0.90625 1.171875,1.203125 0,0.09375 0.09375,0.09375 0.109375,0.09375 0.140625,0 0.140625,-0.046875 0.140625,-0.234375 l 0,-1.015625 c 0,-0.15625 0,-0.234375 -0.109375,-0.234375 -0.046875,0 -0.078125,0 -0.203125,0.125 -0.03125,0.03125 -0.125,0.125 -0.171875,0.15625 -0.375,-0.28125 -0.78125,-0.28125 -0.9375,-0.28125 -1.21875,0 -1.59375,0.671875 -1.59375,1.234375 0,0.34375 0.15625,0.625 0.421875,0.84375 0.328125,0.25 0.609375,0.3125 1.328125,0.453125 z m 0,0"
               style="stroke:none"
               inkscape:connector-curvature="0" />
          </symbol>
          <symbol
             id="textext-a06aa4d4-5"
             overflow="visible"
             style="overflow:visible">
            <path
               id="path39085"
               d="m 1.71875,-3.984375 1.4375,0 0,-0.3125 -1.4375,0 0,-1.828125 -0.25,0 c 0,0.8125 -0.296875,1.875 -1.28125,1.921875 l 0,0.21875 0.84375,0 0,2.75 c 0,1.21875 0.9375,1.34375 1.296875,1.34375 0.703125,0 0.984375,-0.703125 0.984375,-1.34375 l 0,-0.5625 -0.25,0 0,0.546875 c 0,0.734375 -0.296875,1.109375 -0.671875,1.109375 -0.671875,0 -0.671875,-0.90625 -0.671875,-1.078125 z m 0,0"
               style="stroke:none"
               inkscape:connector-curvature="0" />
          </symbol>
          <symbol
             id="textext-a06aa4d4-6"
             overflow="visible"
             style="overflow:visible">
            <path
               id="path39088"
               d="m 3.3125,-0.75 c 0.046875,0.390625 0.3125,0.8125 0.78125,0.8125 0.21875,0 0.828125,-0.140625 0.828125,-0.953125 l 0,-0.5625 -0.25,0 0,0.5625 c 0,0.578125 -0.25,0.640625 -0.359375,0.640625 -0.328125,0 -0.375,-0.453125 -0.375,-0.5 l 0,-1.984375 c 0,-0.421875 0,-0.8125 -0.359375,-1.1875 C 3.1875,-4.3125 2.6875,-4.46875 2.21875,-4.46875 c -0.828125,0 -1.515625,0.46875 -1.515625,1.125 0,0.296875 0.203125,0.46875 0.46875,0.46875 0.28125,0 0.453125,-0.203125 0.453125,-0.453125 0,-0.125 -0.046875,-0.453125 -0.515625,-0.453125 C 1.390625,-4.140625 1.875,-4.25 2.1875,-4.25 c 0.5,0 1.0625,0.390625 1.0625,1.28125 l 0,0.359375 c -0.515625,0.03125 -1.203125,0.0625 -1.828125,0.359375 -0.75,0.34375 -1,0.859375 -1,1.296875 0,0.8125 0.96875,1.0625 1.59375,1.0625 0.65625,0 1.109375,-0.40625 1.296875,-0.859375 z M 3.25,-2.390625 l 0,1 c 0,0.9375 -0.71875,1.28125 -1.171875,1.28125 -0.484375,0 -0.890625,-0.34375 -0.890625,-0.84375 0,-0.546875 0.421875,-1.375 2.0625,-1.4375 z m 0,0"
               style="stroke:none"
               inkscape:connector-curvature="0" />
          </symbol>
          <symbol
             id="textext-a06aa4d4-7"
             overflow="visible"
             style="overflow:visible">
            <path
               id="path39091"
               d="m 3.78125,-0.546875 0,0.65625 L 5.25,0 l 0,-0.3125 c -0.6875,0 -0.78125,-0.0625 -0.78125,-0.5625 l 0,-6.046875 -1.421875,0.109375 0,0.3125 c 0.6875,0 0.765625,0.0625 0.765625,0.5625 l 0,2.15625 c -0.28125,-0.359375 -0.71875,-0.625 -1.25,-0.625 -1.171875,0 -2.21875,0.984375 -2.21875,2.265625 0,1.265625 0.96875,2.25 2.109375,2.25 0.640625,0 1.078125,-0.34375 1.328125,-0.65625 z m 0,-2.671875 0,2.046875 c 0,0.171875 0,0.1875 -0.109375,0.359375 C 3.375,-0.328125 2.9375,-0.109375 2.5,-0.109375 2.046875,-0.109375 1.6875,-0.375 1.453125,-0.75 1.203125,-1.15625 1.171875,-1.71875 1.171875,-2.140625 1.171875,-2.5 1.1875,-3.09375 1.46875,-3.546875 1.6875,-3.859375 2.0625,-4.1875 2.609375,-4.1875 c 0.34375,0 0.765625,0.15625 1.0625,0.59375 0.109375,0.171875 0.109375,0.1875 0.109375,0.375 z m 0,0"
               style="stroke:none"
               inkscape:connector-curvature="0" />
          </symbol>
          <symbol
             id="textext-a06aa4d4-8"
             overflow="visible"
             style="overflow:visible">
            <path
               id="path39094"
               d="m 7.578125,-6.921875 c 0,-0.03125 -0.015625,-0.109375 -0.109375,-0.109375 -0.03125,0 -0.046875,0.015625 -0.15625,0.125 L 6.625,-6.140625 C 6.53125,-6.28125 6.078125,-7.03125 4.96875,-7.03125 2.734375,-7.03125 0.5,-4.828125 0.5,-2.515625 c 0,1.59375 1.109375,2.734375 2.71875,2.734375 0.4375,0 0.890625,-0.09375 1.25,-0.234375 0.5,-0.203125 0.6875,-0.40625 0.859375,-0.609375 0.09375,0.25 0.359375,0.609375 0.453125,0.609375 0.046875,0 0.078125,-0.03125 0.078125,-0.03125 C 5.875,-0.0625 5.96875,-0.453125 6.015625,-0.65625 l 0.1875,-0.765625 C 6.25,-1.59375 6.296875,-1.765625 6.34375,-1.9375 c 0.109375,-0.4375 0.109375,-0.46875 0.6875,-0.46875 0.046875,0 0.15625,-0.015625 0.15625,-0.203125 0,-0.078125 -0.046875,-0.109375 -0.125,-0.109375 -0.234375,0 -0.828125,0.03125 -1.046875,0.03125 -0.3125,0 -1.09375,-0.03125 -1.40625,-0.03125 -0.078125,0 -0.203125,0 -0.203125,0.203125 0,0.109375 0.078125,0.109375 0.296875,0.109375 0.015625,0 0.296875,0 0.53125,0.015625 0.265625,0.03125 0.3125,0.0625 0.3125,0.1875 0,0.09375 -0.109375,0.53125 -0.21875,0.90625 -0.28125,1.09375 -1.5625,1.203125 -1.921875,1.203125 -0.953125,0 -2,-0.5625 -2,-2.09375 0,-0.3125 0.09375,-1.953125 1.140625,-3.25 0.546875,-0.671875 1.515625,-1.28125 2.5,-1.28125 1.015625,0 1.609375,0.765625 1.609375,1.921875 0,0.40625 -0.03125,0.40625 -0.03125,0.515625 0,0.09375 0.109375,0.09375 0.140625,0.09375 0.125,0 0.125,-0.015625 0.1875,-0.203125 z m 0,0"
               style="stroke:none"
               inkscape:connector-curvature="0" />
          </symbol>
        </g>
      </defs>
      <g
         id="textext-a06aa4d4-9">
        <g
           id="g39097"
           style="fill:#000000;fill-opacity:1">
          <use
             id="use39099"
             y="134.765"
             x="223.43201"
             xlink:href="#textext-a06aa4d4-0"
             width="744.09448"
             height="1052.3622" />
          <use
             id="use39101"
             y="134.765"
             x="231.24965"
             xlink:href="#textext-a06aa4d4-1"
             width="744.09448"
             height="1052.3622" />
          <use
             id="use39103"
             y="134.765"
             x="235.67703"
             xlink:href="#textext-a06aa4d4-2"
             width="744.09448"
             height="1052.3622" />
          <use
             id="use39105"
             y="134.765"
             x="240.65833"
             xlink:href="#textext-a06aa4d4-1"
             width="744.09448"
             height="1052.3622" />
          <use
             id="use39107"
             y="134.765"
             x="245.08571"
             xlink:href="#textext-a06aa4d4-3"
             width="744.09448"
             height="1052.3622" />
          <use
             id="use39109"
             y="134.765"
             x="250.62093"
             xlink:href="#textext-a06aa4d4-4"
             width="744.09448"
             height="1052.3622" />
          <use
             id="use39111"
             y="134.765"
             x="254.55019"
             xlink:href="#textext-a06aa4d4-5"
             width="744.09448"
             height="1052.3622" />
          <use
             id="use39113"
             y="134.765"
             x="258.42462"
             xlink:href="#textext-a06aa4d4-6"
             width="744.09448"
             height="1052.3622" />
          <use
             id="use39115"
             y="134.765"
             x="263.40594"
             xlink:href="#textext-a06aa4d4-3"
             width="744.09448"
             height="1052.3622" />
          <use
             id="use39117"
             y="134.765"
             x="268.94116"
             xlink:href="#textext-a06aa4d4-7"
             width="744.09448"
             height="1052.3622" />
        </g>
        <g
           id="g39119"
           style="fill:#000000;fill-opacity:1">
          <use
             id="use39121"
             y="134.765"
             x="277.798"
             xlink:href="#textext-a06aa4d4-8"
             width="744.09448"
             height="1052.3622" />
        </g>
      </g>
    </g>
    <g
       ns0:text="Spiegel\n"
       ns0:preamble=""
       transform="matrix(1.8108079,0,0,1.8108079,216.16943,322.90523)"
       id="g39391"
       inkscape:export-filename="/home/waldgeist/data/pics/physik/Own/optik/ebener-spiegel.png"
       inkscape:export-xdpi="150"
       inkscape:export-ydpi="150">
      <defs
         id="defs39393">
        <g
           id="g39395">
          <symbol
             style="overflow:visible"
             overflow="visible"
             id="textext-b5698527-0">
            <path
               inkscape:connector-curvature="0"
               style="stroke:none"
               d="m 3.484375,-3.875 -1.28125,-0.296875 c -0.625,-0.15625 -1,-0.6875 -1,-1.265625 0,-0.703125 0.53125,-1.3125 1.3125,-1.3125 1.65625,0 1.875,1.640625 1.9375,2.078125 0.015625,0.0625 0.015625,0.125 0.125,0.125 0.125,0 0.125,-0.046875 0.125,-0.234375 l 0,-2 c 0,-0.171875 0,-0.25 -0.109375,-0.25 -0.0625,0 -0.078125,0.015625 -0.140625,0.140625 l -0.359375,0.5625 C 3.796875,-6.625 3.390625,-7.03125 2.5,-7.03125 c -1.109375,0 -1.9375,0.875 -1.9375,1.9375 0,0.828125 0.53125,1.5625 1.296875,1.828125 0.109375,0.03125 0.625,0.15625 1.328125,0.328125 0.265625,0.0625 0.5625,0.140625 0.84375,0.5 0.203125,0.265625 0.3125,0.59375 0.3125,0.921875 0,0.703125 -0.5,1.421875 -1.34375,1.421875 -0.28125,0 -1.046875,-0.046875 -1.578125,-0.53125 C 0.84375,-1.171875 0.8125,-1.796875 0.8125,-2.15625 0.796875,-2.265625 0.71875,-2.265625 0.6875,-2.265625 c -0.125,0 -0.125,0.078125 -0.125,0.25 l 0,2 c 0,0.171875 0,0.234375 0.109375,0.234375 0.0625,0 0.078125,-0.015625 0.140625,-0.125 0,-0.015625 0.03125,-0.046875 0.359375,-0.578125 0.3125,0.34375 0.953125,0.703125 1.84375,0.703125 1.15625,0 1.953125,-0.96875 1.953125,-2.078125 0,-0.984375 -0.65625,-1.8125 -1.484375,-2.015625 z m 0,0"
               id="path39398" />
          </symbol>
          <symbol
             style="overflow:visible"
             overflow="visible"
             id="textext-b5698527-1">
            <path
               inkscape:connector-curvature="0"
               style="stroke:none"
               d="m 1.71875,-3.75 0,-0.65625 -1.4375,0.109375 0,0.3125 c 0.703125,0 0.78125,0.0625 0.78125,0.5 l 0,4.65625 C 1.0625,1.625 0.953125,1.625 0.28125,1.625 l 0,0.3125 C 0.625,1.921875 1.140625,1.90625 1.390625,1.90625 c 0.28125,0 0.78125,0.015625 1.125,0.03125 l 0,-0.3125 C 1.859375,1.625 1.75,1.625 1.75,1.171875 l 0,-1.765625 c 0.046875,0.171875 0.46875,0.703125 1.21875,0.703125 1.1875,0 2.21875,-0.984375 2.21875,-2.265625 0,-1.265625 -0.953125,-2.25 -2.078125,-2.25 -0.78125,0 -1.203125,0.4375 -1.390625,0.65625 z m 0.03125,2.609375 0,-2.21875 C 2.03125,-3.875 2.515625,-4.15625 3.03125,-4.15625 c 0.734375,0 1.328125,0.875 1.328125,2 0,1.203125 -0.6875,2.046875 -1.421875,2.046875 -0.40625,0 -0.78125,-0.203125 -1.046875,-0.609375 C 1.75,-0.921875 1.75,-0.9375 1.75,-1.140625 z m 0,0"
               id="path39401" />
          </symbol>
          <symbol
             style="overflow:visible"
             overflow="visible"
             id="textext-b5698527-2">
            <path
               inkscape:connector-curvature="0"
               style="stroke:none"
               d="M 1.765625,-4.40625 0.375,-4.296875 l 0,0.3125 c 0.640625,0 0.734375,0.0625 0.734375,0.546875 l 0,2.6875 c 0,0.4375 -0.109375,0.4375 -0.78125,0.4375 l 0,0.3125 C 0.640625,-0.015625 1.1875,-0.03125 1.421875,-0.03125 1.78125,-0.03125 2.125,-0.015625 2.46875,0 l 0,-0.3125 c -0.671875,0 -0.703125,-0.046875 -0.703125,-0.4375 z m 0.03125,-1.734375 c 0,-0.3125 -0.234375,-0.53125 -0.515625,-0.53125 -0.3125,0 -0.53125,0.265625 -0.53125,0.53125 0,0.265625 0.21875,0.53125 0.53125,0.53125 0.28125,0 0.515625,-0.21875 0.515625,-0.53125 z m 0,0"
               id="path39404" />
          </symbol>
          <symbol
             style="overflow:visible"
             overflow="visible"
             id="textext-b5698527-3">
            <path
               inkscape:connector-curvature="0"
               style="stroke:none"
               d="M 1.109375,-2.515625 C 1.171875,-4 2.015625,-4.25 2.359375,-4.25 c 1.015625,0 1.125,1.34375 1.125,1.734375 z m 0,0.21875 2.78125,0 c 0.21875,0 0.25,0 0.25,-0.21875 0,-0.984375 -0.546875,-1.953125 -1.78125,-1.953125 -1.15625,0 -2.078125,1.03125 -2.078125,2.28125 0,1.328125 1.046875,2.296875 2.1875,2.296875 C 3.6875,0.109375 4.140625,-1 4.140625,-1.1875 4.140625,-1.28125 4.0625,-1.3125 4,-1.3125 c -0.078125,0 -0.109375,0.0625 -0.125,0.140625 -0.34375,1.03125 -1.25,1.03125 -1.34375,1.03125 -0.5,0 -0.890625,-0.296875 -1.125,-0.671875 -0.296875,-0.46875 -0.296875,-1.125 -0.296875,-1.484375 z m 0,0"
               id="path39407" />
          </symbol>
          <symbol
             style="overflow:visible"
             overflow="visible"
             id="textext-b5698527-4">
            <path
               inkscape:connector-curvature="0"
               style="stroke:none"
               d="m 2.21875,-1.71875 c -0.875,0 -0.875,-1 -0.875,-1.21875 0,-0.265625 0.015625,-0.59375 0.15625,-0.84375 0.078125,-0.109375 0.3125,-0.390625 0.71875,-0.390625 0.859375,0 0.859375,0.984375 0.859375,1.21875 0,0.265625 0,0.59375 -0.15625,0.84375 C 2.84375,-2 2.609375,-1.71875 2.21875,-1.71875 z M 1.0625,-1.328125 c 0,-0.03125 0,-0.265625 0.15625,-0.46875 0.390625,0.28125 0.8125,0.3125 1,0.3125 0.921875,0 1.609375,-0.6875 1.609375,-1.453125 0,-0.375 -0.15625,-0.734375 -0.40625,-0.96875 C 3.78125,-4.25 4.140625,-4.296875 4.3125,-4.296875 c 0.03125,0 0.078125,0 0.109375,0.015625 C 4.3125,-4.25 4.25,-4.140625 4.25,-4.015625 c 0,0.171875 0.140625,0.28125 0.296875,0.28125 0.09375,0 0.28125,-0.0625 0.28125,-0.296875 0,-0.171875 -0.109375,-0.484375 -0.5,-0.484375 -0.203125,0 -0.640625,0.0625 -1.0625,0.46875 C 2.84375,-4.375 2.4375,-4.40625 2.21875,-4.40625 c -0.9375,0 -1.625,0.6875 -1.625,1.453125 0,0.4375 0.21875,0.8125 0.46875,1.03125 -0.125,0.140625 -0.3125,0.46875 -0.3125,0.828125 0,0.3125 0.140625,0.6875 0.453125,0.890625 -0.609375,0.15625 -0.921875,0.59375 -0.921875,0.984375 0,0.71875 0.984375,1.265625 2.203125,1.265625 1.171875,0 2.203125,-0.5 2.203125,-1.28125 0,-0.34375 -0.125,-0.859375 -0.640625,-1.140625 -0.53125,-0.265625 -1.109375,-0.265625 -1.71875,-0.265625 -0.25,0 -0.671875,0 -0.75,-0.015625 C 1.265625,-0.703125 1.0625,-1 1.0625,-1.328125 z M 2.5,1.828125 c -1.015625,0 -1.703125,-0.515625 -1.703125,-1.046875 0,-0.453125 0.375,-0.828125 0.8125,-0.84375 l 0.59375,0 c 0.859375,0 1.96875,0 1.96875,0.84375 0,0.546875 -0.703125,1.046875 -1.671875,1.046875 z m 0,0"
               id="path39410" />
          </symbol>
          <symbol
             style="overflow:visible"
             overflow="visible"
             id="textext-b5698527-5">
            <path
               inkscape:connector-curvature="0"
               style="stroke:none"
               d="m 1.765625,-6.921875 -1.4375,0.109375 0,0.3125 c 0.703125,0 0.78125,0.0625 0.78125,0.5625 l 0,5.1875 c 0,0.4375 -0.109375,0.4375 -0.78125,0.4375 l 0,0.3125 C 0.65625,-0.015625 1.1875,-0.03125 1.4375,-0.03125 c 0.25,0 0.734375,0.015625 1.109375,0.03125 l 0,-0.3125 c -0.671875,0 -0.78125,0 -0.78125,-0.4375 z m 0,0"
               id="path39413" />
          </symbol>
        </g>
      </defs>
      <g
         id="textext-b5698527-6">
        <g
           style="fill:#000000;fill-opacity:1"
           id="g39416">
          <use
             height="1052.3622"
             width="744.09448"
             xlink:href="#textext-b5698527-0"
             x="223.43201"
             y="134.765"
             id="use39418" />
          <use
             height="1052.3622"
             width="744.09448"
             xlink:href="#textext-b5698527-1"
             x="228.96722"
             y="134.765"
             id="use39420" />
          <use
             height="1052.3622"
             width="744.09448"
             xlink:href="#textext-b5698527-2"
             x="234.50244"
             y="134.765"
             id="use39422" />
          <use
             height="1052.3622"
             width="744.09448"
             xlink:href="#textext-b5698527-3"
             x="237.27005"
             y="134.765"
             id="use39424" />
          <use
             height="1052.3622"
             width="744.09448"
             xlink:href="#textext-b5698527-4"
             x="241.69743"
             y="134.765"
             id="use39426" />
          <use
             height="1052.3622"
             width="744.09448"
             xlink:href="#textext-b5698527-3"
             x="246.67873"
             y="134.765"
             id="use39428" />
          <use
             height="1052.3622"
             width="744.09448"
             xlink:href="#textext-b5698527-5"
             x="251.10611"
             y="134.765"
             id="use39430" />
        </g>
      </g>
    </g>
    <g
       id="g4930"
       transform="matrix(1.8108079,0,0,1.8108079,230.82229,87.57693)"
       ns0:preamble=""
       ns0:text="Auge"
       inkscape:export-filename="/home/waldgeist/data/pics/physik/Own/optik/ebener-spiegel.png"
       inkscape:export-xdpi="150"
       inkscape:export-ydpi="150">
      <defs
         id="defs4932">
        <g
           id="g4934">
          <symbol
             id="textext-56e0d92c-0"
             overflow="visible"
             style="overflow:visible">
            <path
               id="path4937"
               d="m 3.96875,-6.9375 c -0.046875,-0.125 -0.078125,-0.203125 -0.234375,-0.203125 -0.15625,0 -0.1875,0.0625 -0.234375,0.203125 L 1.4375,-0.984375 C 1.25,-0.46875 0.859375,-0.3125 0.3125,-0.3125 l 0,0.3125 c 0.234375,-0.015625 0.671875,-0.03125 1.015625,-0.03125 0.3125,0 0.828125,0.015625 1.15625,0.03125 l 0,-0.3125 c -0.5,0 -0.75,-0.25 -0.75,-0.5 0,-0.03125 0.015625,-0.140625 0.015625,-0.15625 l 0.46875,-1.296875 2.453125,0 0.53125,1.515625 c 0.015625,0.046875 0.03125,0.109375 0.03125,0.140625 0,0.296875 -0.5625,0.296875 -0.828125,0.296875 l 0,0.3125 c 0.359375,-0.03125 1.0625,-0.03125 1.4375,-0.03125 0.421875,0 0.890625,0.015625 1.296875,0.03125 l 0,-0.3125 -0.171875,0 C 6.375,-0.3125 6.234375,-0.375 6.125,-0.703125 z m -0.53125,1.109375 1.125,3.25 -2.234375,0 z m 0,0"
               style="stroke:none"
               inkscape:connector-curvature="0" />
          </symbol>
          <symbol
             id="textext-56e0d92c-1"
             overflow="visible"
             style="overflow:visible">
            <path
               id="path4940"
               d="m 3.890625,-0.78125 0,0.890625 L 5.328125,0 l 0,-0.3125 C 4.640625,-0.3125 4.5625,-0.375 4.5625,-0.875 l 0,-3.53125 -1.46875,0.109375 0,0.3125 c 0.6875,0 0.78125,0.0625 0.78125,0.5625 l 0,1.765625 c 0,0.875 -0.484375,1.546875 -1.21875,1.546875 -0.828125,0 -0.875,-0.46875 -0.875,-0.984375 l 0,-3.3125 -1.46875,0.109375 0,0.3125 c 0.78125,0 0.78125,0.03125 0.78125,0.90625 l 0,1.5 c 0,0.78125 0,1.6875 1.515625,1.6875 0.5625,0 1,-0.28125 1.28125,-0.890625 z m 0,0"
               style="stroke:none"
               inkscape:connector-curvature="0" />
          </symbol>
          <symbol
             id="textext-56e0d92c-2"
             overflow="visible"
             style="overflow:visible">
            <path
               id="path4943"
               d="m 2.21875,-1.71875 c -0.875,0 -0.875,-1 -0.875,-1.21875 0,-0.265625 0.015625,-0.59375 0.15625,-0.84375 0.078125,-0.109375 0.3125,-0.390625 0.71875,-0.390625 0.859375,0 0.859375,0.984375 0.859375,1.21875 0,0.265625 0,0.59375 -0.15625,0.84375 C 2.84375,-2 2.609375,-1.71875 2.21875,-1.71875 z M 1.0625,-1.328125 c 0,-0.03125 0,-0.265625 0.15625,-0.46875 0.390625,0.28125 0.8125,0.3125 1,0.3125 0.921875,0 1.609375,-0.6875 1.609375,-1.453125 0,-0.375 -0.15625,-0.734375 -0.40625,-0.96875 C 3.78125,-4.25 4.140625,-4.296875 4.3125,-4.296875 c 0.03125,0 0.078125,0 0.109375,0.015625 C 4.3125,-4.25 4.25,-4.140625 4.25,-4.015625 c 0,0.171875 0.140625,0.28125 0.296875,0.28125 0.09375,0 0.28125,-0.0625 0.28125,-0.296875 0,-0.171875 -0.109375,-0.484375 -0.5,-0.484375 -0.203125,0 -0.640625,0.0625 -1.0625,0.46875 C 2.84375,-4.375 2.4375,-4.40625 2.21875,-4.40625 c -0.9375,0 -1.625,0.6875 -1.625,1.453125 0,0.4375 0.21875,0.8125 0.46875,1.03125 -0.125,0.140625 -0.3125,0.46875 -0.3125,0.828125 0,0.3125 0.140625,0.6875 0.453125,0.890625 -0.609375,0.15625 -0.921875,0.59375 -0.921875,0.984375 0,0.71875 0.984375,1.265625 2.203125,1.265625 1.171875,0 2.203125,-0.5 2.203125,-1.28125 0,-0.34375 -0.125,-0.859375 -0.640625,-1.140625 -0.53125,-0.265625 -1.109375,-0.265625 -1.71875,-0.265625 -0.25,0 -0.671875,0 -0.75,-0.015625 C 1.265625,-0.703125 1.0625,-1 1.0625,-1.328125 z M 2.5,1.828125 c -1.015625,0 -1.703125,-0.515625 -1.703125,-1.046875 0,-0.453125 0.375,-0.828125 0.8125,-0.84375 l 0.59375,0 c 0.859375,0 1.96875,0 1.96875,0.84375 0,0.546875 -0.703125,1.046875 -1.671875,1.046875 z m 0,0"
               style="stroke:none"
               inkscape:connector-curvature="0" />
          </symbol>
          <symbol
             id="textext-56e0d92c-3"
             overflow="visible"
             style="overflow:visible">
            <path
               id="path4946"
               d="M 1.109375,-2.515625 C 1.171875,-4 2.015625,-4.25 2.359375,-4.25 c 1.015625,0 1.125,1.34375 1.125,1.734375 z m 0,0.21875 2.78125,0 c 0.21875,0 0.25,0 0.25,-0.21875 0,-0.984375 -0.546875,-1.953125 -1.78125,-1.953125 -1.15625,0 -2.078125,1.03125 -2.078125,2.28125 0,1.328125 1.046875,2.296875 2.1875,2.296875 C 3.6875,0.109375 4.140625,-1 4.140625,-1.1875 4.140625,-1.28125 4.0625,-1.3125 4,-1.3125 c -0.078125,0 -0.109375,0.0625 -0.125,0.140625 -0.34375,1.03125 -1.25,1.03125 -1.34375,1.03125 -0.5,0 -0.890625,-0.296875 -1.125,-0.671875 -0.296875,-0.46875 -0.296875,-1.125 -0.296875,-1.484375 z m 0,0"
               style="stroke:none"
               inkscape:connector-curvature="0" />
          </symbol>
        </g>
      </defs>
      <g
         id="textext-56e0d92c-4">
        <g
           id="g4949"
           style="fill:#000000;fill-opacity:1">
          <use
             id="use4951"
             y="134.765"
             x="223.43201"
             xlink:href="#textext-56e0d92c-0"
             width="744.09448"
             height="1052.3622" />
          <use
             id="use4953"
             y="134.765"
             x="230.90395"
             xlink:href="#textext-56e0d92c-1"
             width="744.09448"
             height="1052.3622" />
          <use
             id="use4955"
             y="134.765"
             x="236.43918"
             xlink:href="#textext-56e0d92c-2"
             width="744.09448"
             height="1052.3622" />
          <use
             id="use4957"
             y="134.765"
             x="241.42047"
             xlink:href="#textext-56e0d92c-3"
             width="744.09448"
             height="1052.3622" />
        </g>
      </g>
    </g>
    <path
       style="fill:#d40000;stroke:#d40000;stroke-width:2;stroke-linecap:round;stroke-linejoin:miter;stroke-miterlimit:4;stroke-opacity:1;stroke-dasharray:none;stroke-dashoffset:0;marker-end:url(#Arrow2Mend)"
       d="m 413.03755,529.39428 175.64257,-140.245"
       id="path34567"
       inkscape:connector-curvature="0"
       inkscape:export-filename="/home/waldgeist/data/pics/physik/Own/optik/ebener-spiegel.png"
       inkscape:export-xdpi="150"
       inkscape:export-ydpi="150" />
    <path
       inkscape:connector-curvature="0"
       id="path35113"
       d="M 361.74412,529.55435 547.23194,339.70483"
       style="fill:none;stroke:#d40000;stroke-width:1.99999988;stroke-linecap:round;stroke-linejoin:miter;stroke-miterlimit:4;stroke-opacity:1;stroke-dasharray:none;stroke-dashoffset:0;marker-end:url(#Arrow2Mend)"
       inkscape:export-filename="/home/waldgeist/data/pics/physik/Own/optik/ebener-spiegel.png"
       inkscape:export-xdpi="150"
       inkscape:export-ydpi="150" />
    <rect
       y="538.16364"
       x="67.868828"
       height="2.3598404"
       width="608.35681"
       id="rect3359"
       style="fill:#000000;fill-opacity:1;stroke:#000000;stroke-width:1.85465169;stroke-linecap:butt;stroke-linejoin:round;stroke-miterlimit:4;stroke-opacity:1;stroke-dasharray:none;stroke-dashoffset:0"
       inkscape:export-filename="/home/waldgeist/data/pics/physik/Own/optik/ebener-spiegel.png"
       inkscape:export-xdpi="150"
       inkscape:export-ydpi="150" />
    <g
       style="opacity:0.5;stroke:#501616;stroke-width:1.79798555;stroke-miterlimit:4;stroke-dasharray:1.7979856, 7.1919424;stroke-dashoffset:0"
       id="g14808"
       transform="matrix(0.55380028,0,0,-0.55856589,4500.7914,-925.57433)"
       inkscape:export-filename="/home/waldgeist/data/pics/physik/Own/optik/ebener-spiegel.png"
       inkscape:export-xdpi="150"
       inkscape:export-ydpi="150">
      <rect
         style="fill:#666666;stroke:#501616;stroke-width:1.79798555;stroke-linecap:butt;stroke-linejoin:round;stroke-miterlimit:4;stroke-opacity:1;stroke-dasharray:1.7979856, 7.1919424;stroke-dashoffset:0"
         id="rect14810"
         width="5.0507627"
         height="51.51778"
         x="-7820.0957"
         y="-2837.7759" />
      <rect
         ry="7.0710678"
         style="fill:#782121;stroke:#501616;stroke-width:1.79798555;stroke-linecap:round;stroke-linejoin:round;stroke-miterlimit:4;stroke-opacity:1;stroke-dasharray:1.7979856, 7.1919424;stroke-dashoffset:0"
         id="rect14812"
         width="72.73098"
         height="161.6244"
         x="-7853.936"
         y="-2788.2378" />
      <path
         style="fill:url(#radialGradient14816);fill-opacity:1;stroke:#501616;stroke-width:1.79798555;stroke-linecap:butt;stroke-linejoin:miter;stroke-miterlimit:4;stroke-opacity:1;stroke-dasharray:1.7979856, 7.1919424;stroke-dashoffset:0"
         d="m -7808.3494,-2825.5617 c -9.5563,2.2682 -20.1341,-0.3051 -27.5805,-6.7098 -7.4464,-6.4046 -11.573,-16.4785 -10.7597,-26.2666 0.5154,-6.2033 2.8746,-12.1201 5.8106,-17.6089 2.936,-5.4888 6.4625,-10.6393 9.557,-16.0403 13.1628,-22.9738 18.147,-50.5255 13.8673,-76.6548 7.6633,28.5904 15.624,57.1011 23.8806,85.5259 2.3673,8.1499 4.7753,16.3874 5.1718,24.8649 0.3965,8.4775 -1.4135,17.3552 -6.704,23.9911 -3.3677,4.2242 -8.0595,7.3768 -13.2431,8.8985"
         id="path14814"
         inkscape:path-effect="#path-effect34665-4"
         inkscape:original-d="m -7808.3494,-2825.5617 c 0,0 -41.3481,-11.1222 -38.3402,-32.9764 1.5039,-10.927 0.7821,-23.2529 15.3676,-33.6492 14.5855,-10.3962 20.4245,-60.5575 13.8673,-76.6548 20.4237,-4.9901 17.6166,53.3136 23.8806,85.5259 6.264,32.2123 8.2369,37.2168 -1.5322,48.856 -19.3194,23.0178 34.3564,-27.1838 -13.2431,8.8985 z"
         inkscape:connector-curvature="0"
         sodipodi:nodetypes="ccccssc" />
    </g>
  </g>
</svg>
