<svg xmlns:ns0="http://www.iki.fi/pav/software/textext/" xmlns="http://www.w3.org/2000/svg" xmlns:xlink="http://www.w3.org/1999/xlink" width="210mm" height="297mm" viewBox="0 0 744.09449 1052.3622"><title>Gegenstandsgroesse und Bildgroesse</title><defs><marker id="g" orient="auto" overflow="visible"><path transform="scale(.6)" d="M8.719 4.034L-2.207.016 8.719-4.002c-1.746 2.372-1.736 5.618 0 8.036z" font-size="12" fill-rule="evenodd" stroke-width=".625" stroke-linejoin="round"/></marker><marker id="h" orient="auto" overflow="visible"><path d="M-4 0l-2 2 7-2-7-2z" fill-rule="evenodd" stroke="#000" stroke-width=".5332"/></marker></defs><defs transform="matrix(3.32043 0 0 3.32043 -420.95 -308.1)" ns0:text="Spiegel\n"><symbol id="a" overflow="visible"><path d="M3.484-3.875l-1.28-.297c-.626-.156-1-.687-1-1.266 0-.703.53-1.312 1.312-1.312 1.656 0 1.875 1.64 1.937 2.078.016.063.016.125.125.125.125 0 .125-.047.125-.234v-2c0-.172 0-.25-.11-.25-.062 0-.077.015-.14.14l-.36.563c-.296-.297-.702-.703-1.593-.703-1.11 0-1.938.875-1.938 1.937 0 .828.532 1.563 1.297 1.828.11.032.625.157 1.329.329.265.062.562.14.843.5.203.265.313.593.313.921 0 .704-.5 1.422-1.344 1.422-.281 0-1.047-.047-1.578-.531-.578-.547-.61-1.172-.61-1.531-.015-.11-.093-.11-.125-.11-.125 0-.125.079-.125.25v2c0 .172 0 .235.11.235.062 0 .078-.016.14-.125 0-.016.032-.047.36-.578.312.343.953.703 1.844.703 1.156 0 1.953-.969 1.953-2.078 0-.985-.657-1.813-1.485-2.016zm0 0"/></symbol><symbol id="b" overflow="visible"><path d="M1.719-3.75v-.656l-1.438.11v.312c.703 0 .781.062.781.5v4.656c0 .453-.109.453-.78.453v.313c.343-.016.859-.032 1.109-.032.28 0 .78.016 1.125.032v-.313c-.657 0-.766 0-.766-.453V-.594c.047.172.469.703 1.219.703 1.187 0 2.219-.984 2.219-2.265 0-1.266-.954-2.25-2.079-2.25-.78 0-1.203.437-1.39.656zm.031 2.61v-2.22c.281-.515.766-.796 1.281-.796.735 0 1.328.875 1.328 2C4.36-.953 3.672-.11 2.938-.11c-.407 0-.782-.204-1.047-.61-.141-.203-.141-.219-.141-.422zm0 0"/></symbol><symbol id="c" overflow="visible"><path d="M1.766-4.406l-1.391.11v.312c.64 0 .734.062.734.546V-.75c0 .438-.109.438-.78.438V0c.312-.016.859-.031 1.093-.031.36 0 .703.015 1.047.031v-.313c-.672 0-.703-.046-.703-.437zm.03-1.735a.514.514 0 0 0-.515-.53.537.537 0 0 0-.531.53c0 .266.219.532.531.532a.514.514 0 0 0 .516-.532zm0 0"/></symbol><symbol id="d" overflow="visible"><path d="M1.11-2.516C1.171-4 2.015-4.25 2.36-4.25c1.015 0 1.124 1.344 1.124 1.734zm0 .22h2.78c.22 0 .25 0 .25-.22 0-.984-.546-1.953-1.78-1.953C1.202-4.469.28-3.437.28-2.187.281-.86 1.328.108 2.47.108 3.688.11 4.14-1 4.14-1.187c0-.094-.079-.125-.141-.125-.078 0-.11.062-.125.14C3.531-.14 2.625-.14 2.531-.14c-.5 0-.89-.296-1.125-.671-.297-.47-.297-1.125-.297-1.485zm0 0"/></symbol><symbol id="e" overflow="visible"><path d="M2.219-1.719c-.875 0-.875-1-.875-1.218 0-.266.015-.594.156-.844.078-.11.313-.39.719-.39.86 0 .86.984.86 1.218 0 .265 0 .594-.157.844-.078.109-.313.39-.703.39zm-1.156.39c0-.03 0-.265.156-.468.39.281.812.313 1 .313.922 0 1.61-.688 1.61-1.454 0-.374-.157-.734-.407-.968.36-.344.719-.39.89-.39.032 0 .079 0 .11.015-.11.031-.172.14-.172.265 0 .172.14.282.297.282a.28.28 0 0 0 .281-.297c0-.172-.11-.485-.5-.485-.203 0-.64.063-1.062.47a1.652 1.652 0 0 0-1.047-.36c-.938 0-1.625.687-1.625 1.453 0 .437.219.812.469 1.031-.125.14-.313.469-.313.828 0 .313.14.688.453.89-.61.157-.922.595-.922.985 0 .719.985 1.266 2.203 1.266 1.172 0 2.204-.5 2.204-1.281 0-.344-.125-.86-.641-1.141-.531-.266-1.11-.266-1.719-.266-.25 0-.672 0-.75-.015-.312-.047-.516-.344-.516-.672zM2.5 1.829C1.484 1.828.797 1.312.797.781c0-.453.375-.828.812-.844h.594c.86 0 1.969 0 1.969.844 0 .547-.703 1.047-1.672 1.047zm0 0"/></symbol><symbol id="f" overflow="visible"><path d="M1.766-6.922l-1.438.11v.312c.703 0 .781.063.781.563V-.75c0 .438-.109.438-.78.438V0c.327-.016.859-.031 1.109-.031s.734.015 1.109.031v-.313c-.672 0-.781 0-.781-.437zm0 0"/></symbol></defs><path fill="#fff" stroke="#fff" stroke-linejoin="round" d="M13.943 301.25h716.208v449.863H13.943z"/><path fill="#b3b3b3" stroke="#000" stroke-linejoin="round" d="M370.236 669.081V367.722h5.919v301.359z"/><path stroke="#000" d="M376.843 669.081V367.722h5.919v301.359z"/><path fill="gray" stroke="#000" stroke-width="2" stroke-linejoin="round" d="M65.43 666.474h613.235v19.522H65.43z"/><g transform="translate(-95.723 85.4) scale(1.96345)"><use y="134.765" x="223.432" xlink:href="#a" width="744.094" height="1052.362"/><use y="134.765" x="228.967" xlink:href="#b" width="744.094" height="1052.362"/><use y="134.765" x="234.502" xlink:href="#c" width="744.094" height="1052.362"/><use y="134.765" x="237.27" xlink:href="#d" width="744.094" height="1052.362"/><use y="134.765" x="241.697" xlink:href="#e" width="744.094" height="1052.362"/><use y="134.765" x="246.679" xlink:href="#d" width="744.094" height="1052.362"/><use y="134.765" x="251.106" xlink:href="#f" width="744.094" height="1052.362"/></g><path d="M386.41 445.176h160.191" fill="none" stroke="#f60" stroke-width="2" stroke-dasharray="1.99999999,3.99999998" marker-start="url(#g)"/><path d="M385.788 480.174L546.6 512.946" fill="none" stroke="#f60" stroke-width="2" stroke-dasharray="1.99999999,3.99999996" marker-start="url(#g)"/><path d="M385.356 562.007l160.791 102.607" fill="none" stroke="#f60" stroke-width="2" stroke-dasharray="1.99999995,3.9999999" marker-start="url(#g)"/><path d="M213.027 452.02l157.209 100.088" fill="none" stroke="#d40000" stroke-width="2" marker-start="url(#g)"/><path d="M370.236 552.108L194.361 664.177" fill="#f60" stroke="#f60" stroke-width="2" marker-start="url(#g)"/><path d="M214 445.175l155.044 31.494" fill="#f60" stroke="#d40000" stroke-width="2" marker-start="url(#g)"/><path d="M214 445.175h155.702" fill="#f55" stroke="#d40000" stroke-width="2" marker-start="url(#g)" marker-end="url(#h)"/><path d="M370.236 478.113l-173.295 35.406" fill="#f60" stroke="#f60" stroke-width="2" marker-start="url(#g)"/><path d="M562.13 426.033c-9.69 0-17.515 7.947-17.515 17.692 0 9.745 7.826 17.621 17.514 17.621 9.689 0 17.586-7.876 17.586-17.621 0-9.745-7.897-17.692-17.586-17.692zm-27.356 38.297c-9.08 0-16.307 6.992-16.307 15.596v71.408c0 10.915 15.703 10.915 15.703 0v-56.416h5.542v160.827c0 4.923 4.397 9.024 9.592 9.024 5.196 0 9.166-4.101 9.166-9.024V567.18h7.318v88.566c0 4.923 4.006 9.024 9.202 9.024 5.195 0 9.592-4.1 9.592-9.024V494.918h5.506v56.416c0 10.915 15.667 10.915 15.667 0v-71.408c0-8.604-7.226-15.596-16.306-15.596z" fill="#b3b3b3" stroke="gray" stroke-width="3" stroke-dasharray="2.99999996,5.99999994"/><path d="M181.99 426.59c-9.688 0-17.507 7.951-17.507 17.696 0 9.746 7.819 17.61 17.507 17.61 9.689 0 17.594-7.864 17.594-17.61 0-9.745-7.905-17.697-17.594-17.697zm-27.349 38.297c-9.08 0-16.287 6.99-16.287 15.595v71.401c0 10.915 15.677 10.915 15.677 0v-56.42h5.575v160.85c0 4.924 4.385 9.024 9.58 9.024 5.196 0 9.146-4.1 9.146-9.023V567.74h7.316v88.573c0 4.922 4.038 9.023 9.233 9.023s9.58-4.1 9.58-9.023V495.463h5.488v56.42c0 10.915 15.678 10.915 15.678 0v-71.401c0-8.604-7.207-15.595-16.288-15.595z"/></svg>