<?xml version="1.0" encoding="UTF-8" standalone="no"?>
<!-- Created with Inkscape (http://www.inkscape.org/) -->

<svg
   xmlns:ns0="http://www.iki.fi/pav/software/textext/"
   xmlns:dc="http://purl.org/dc/elements/1.1/"
   xmlns:cc="http://creativecommons.org/ns#"
   xmlns:rdf="http://www.w3.org/1999/02/22-rdf-syntax-ns#"
   xmlns:svg="http://www.w3.org/2000/svg"
   xmlns="http://www.w3.org/2000/svg"
   xmlns:xlink="http://www.w3.org/1999/xlink"
   xmlns:sodipodi="http://sodipodi.sourceforge.net/DTD/sodipodi-0.dtd"
   xmlns:inkscape="http://www.inkscape.org/namespaces/inkscape"
   width="210mm"
   height="297mm"
   id="svg13939"
   version="1.1"
   inkscape:version="0.48.3.1 r9886"
   sodipodi:docname="ebener-spiegel-gegenstand-und-bild.svg"
   inkscape:export-filename="/home/waldgeist/data/pics/physik/Own/optik/ebener-spiegel-2.png"
   inkscape:export-xdpi="90"
   inkscape:export-ydpi="90">
  <title
     id="title4880">Gegenstandsgroesse und Bildgroesse</title>
  <sodipodi:namedview
     id="base"
     pagecolor="#ffffff"
     bordercolor="#666666"
     borderopacity="1.0"
     inkscape:pageopacity="0.0"
     inkscape:pageshadow="2"
     inkscape:zoom="0.7"
     inkscape:cx="543.64106"
     inkscape:cy="652.90709"
     inkscape:document-units="px"
     inkscape:current-layer="layer1"
     showgrid="false"
     showguides="true"
     inkscape:guide-bbox="true"
     inkscape:object-nodes="true"
     inkscape:snap-smooth-nodes="true"
     inkscape:object-paths="true"
     inkscape:snap-intersection-paths="true"
     inkscape:window-width="1280"
     inkscape:window-height="974"
     inkscape:window-x="0"
     inkscape:window-y="0"
     inkscape:window-maximized="1"
     inkscape:snap-global="false" />
  <defs
     id="defs13941">
    <marker
       style="overflow:visible"
       id="Arrow2Mstart"
       refX="0.0"
       refY="0.0"
       orient="auto"
       inkscape:stockid="Arrow2Mstart">
      <path
         transform="scale(0.6) translate(0,0)"
         d="M 8.7185878,4.0337352 L -2.2072895,0.016013256 L 8.7185884,-4.0017078 C 6.9730900,-1.6296469 6.9831476,1.6157441 8.7185878,4.0337352 z "
         style="font-size:12.0;fill-rule:evenodd;stroke-width:0.62500000;stroke-linejoin:round"
         id="path28780" />
    </marker>
    <marker
       style="overflow:visible"
       id="Arrow1Mstart"
       refX="0.0"
       refY="0.0"
       orient="auto"
       inkscape:stockid="Arrow1Mstart">
      <path
         transform="scale(0.4) translate(10,0)"
         style="fill-rule:evenodd;stroke:#000000;stroke-width:1.0pt;marker-start:none"
         d="M 0.0,0.0 L 5.0,-5.0 L -12.5,0.0 L 5.0,5.0 L 0.0,0.0 z "
         id="path8774" />
    </marker>
    <marker
       style="overflow:visible;"
       id="Arrow1Mend"
       refX="0.0"
       refY="0.0"
       orient="auto"
       inkscape:stockid="Arrow1Mend">
      <path
         transform="scale(0.4) rotate(180) translate(10,0)"
         style="fill-rule:evenodd;stroke:#000000;stroke-width:1.0pt;marker-start:none;"
         d="M 0.0,0.0 L 5.0,-5.0 L -12.5,0.0 L 5.0,5.0 L 0.0,0.0 z "
         id="path8777" />
    </marker>
    <inkscape:path-effect
       effect="spiro"
       id="path-effect16222"
       is_visible="true" />
    <inkscape:path-effect
       effect="spiro"
       id="path-effect16213"
       is_visible="true" />
    <inkscape:path-effect
       is_visible="true"
       id="path-effect16209"
       effect="spiro" />
    <inkscape:path-effect
       is_visible="true"
       id="path-effect16205"
       effect="spiro" />
    <inkscape:path-effect
       effect="spiro"
       id="path-effect15693"
       is_visible="true" />
    <inkscape:path-effect
       is_visible="true"
       id="path-effect15687"
       effect="spiro" />
    <inkscape:path-effect
       effect="spiro"
       id="path-effect15683"
       is_visible="true" />
    <inkscape:path-effect
       is_visible="true"
       id="path-effect15679"
       effect="spiro" />
  </defs>
  <metadata
     id="metadata13944">
    <rdf:RDF>
      <cc:Work
         rdf:about="">
        <dc:format>image/svg+xml</dc:format>
        <dc:type
           rdf:resource="http://purl.org/dc/dcmitype/StillImage" />
        <dc:title>Gegenstandsgroesse und Bildgroesse</dc:title>
        <dc:date>2012-01-28</dc:date>
        <dc:creator>
          <cc:Agent>
            <dc:title>Bernhard Grotz</dc:title>
          </cc:Agent>
        </dc:creator>
        <dc:rights>
          <cc:Agent>
            <dc:title>Bernhard Grotz</dc:title>
          </cc:Agent>
        </dc:rights>
        <dc:publisher>
          <cc:Agent>
            <dc:title>Bernhard Grotz</dc:title>
          </cc:Agent>
        </dc:publisher>
        <dc:language>de-DE</dc:language>
        <dc:subject>
          <rdf:Bag>
            <rdf:li>Physik</rdf:li>
            <rdf:li>Optik</rdf:li>
            <rdf:li>Lichtreflektion</rdf:li>
            <rdf:li>Ebener Spiegel</rdf:li>
            <rdf:li>Gegenstandspunkt</rdf:li>
            <rdf:li>Bildpunkt</rdf:li>
          </rdf:Bag>
        </dc:subject>
        <cc:license
           rdf:resource="http://creativecommons.org/licenses/by-nc-sa/3.0/" />
      </cc:Work>
      <cc:License
         rdf:about="http://creativecommons.org/licenses/by-nc-sa/3.0/">
        <cc:permits
           rdf:resource="http://creativecommons.org/ns#Reproduction" />
        <cc:permits
           rdf:resource="http://creativecommons.org/ns#Distribution" />
        <cc:requires
           rdf:resource="http://creativecommons.org/ns#Notice" />
        <cc:requires
           rdf:resource="http://creativecommons.org/ns#Attribution" />
        <cc:prohibits
           rdf:resource="http://creativecommons.org/ns#CommercialUse" />
        <cc:permits
           rdf:resource="http://creativecommons.org/ns#DerivativeWorks" />
        <cc:requires
           rdf:resource="http://creativecommons.org/ns#ShareAlike" />
      </cc:License>
    </rdf:RDF>
  </metadata>
  <g
     id="layer1"
     inkscape:groupmode="layer"
     inkscape:label="Ebene 1">
    <path
       transform="matrix(1.1504393,0,0,1.1504393,-3139.0444,704.75839)"
       d="m 2460.1648,648.06232 a 337.75143,334.41562 0 1 1 -675.5029,0 337.75143,334.41562 0 1 1 675.5029,0 z"
       sodipodi:ry="334.41562"
       sodipodi:rx="337.75143"
       sodipodi:cy="648.06232"
       sodipodi:cx="2122.4133"
       id="path3204"
       style="fill:#ffffff"
       sodipodi:type="arc" />
    <g
       id="g39391"
       transform="matrix(3.3204266,0,0,3.3204266,-420.94948,-308.0991)"
       ns0:preamble=""
       ns0:text="Spiegel\n">
      <defs
         id="defs39393">
        <g
           id="g39395">
          <symbol
             id="textext-b5698527-0"
             overflow="visible"
             style="overflow:visible">
            <path
               id="path39398"
               d="m 3.484375,-3.875 -1.28125,-0.296875 c -0.625,-0.15625 -1,-0.6875 -1,-1.265625 0,-0.703125 0.53125,-1.3125 1.3125,-1.3125 1.65625,0 1.875,1.640625 1.9375,2.078125 0.015625,0.0625 0.015625,0.125 0.125,0.125 0.125,0 0.125,-0.046875 0.125,-0.234375 l 0,-2 c 0,-0.171875 0,-0.25 -0.109375,-0.25 -0.0625,0 -0.078125,0.015625 -0.140625,0.140625 l -0.359375,0.5625 C 3.796875,-6.625 3.390625,-7.03125 2.5,-7.03125 c -1.109375,0 -1.9375,0.875 -1.9375,1.9375 0,0.828125 0.53125,1.5625 1.296875,1.828125 0.109375,0.03125 0.625,0.15625 1.328125,0.328125 0.265625,0.0625 0.5625,0.140625 0.84375,0.5 0.203125,0.265625 0.3125,0.59375 0.3125,0.921875 0,0.703125 -0.5,1.421875 -1.34375,1.421875 -0.28125,0 -1.046875,-0.046875 -1.578125,-0.53125 C 0.84375,-1.171875 0.8125,-1.796875 0.8125,-2.15625 0.796875,-2.265625 0.71875,-2.265625 0.6875,-2.265625 c -0.125,0 -0.125,0.078125 -0.125,0.25 l 0,2 c 0,0.171875 0,0.234375 0.109375,0.234375 0.0625,0 0.078125,-0.015625 0.140625,-0.125 0,-0.015625 0.03125,-0.046875 0.359375,-0.578125 0.3125,0.34375 0.953125,0.703125 1.84375,0.703125 1.15625,0 1.953125,-0.96875 1.953125,-2.078125 0,-0.984375 -0.65625,-1.8125 -1.484375,-2.015625 z m 0,0"
               style="stroke:none"
               inkscape:connector-curvature="0" />
          </symbol>
          <symbol
             id="textext-b5698527-1"
             overflow="visible"
             style="overflow:visible">
            <path
               id="path39401"
               d="m 1.71875,-3.75 0,-0.65625 -1.4375,0.109375 0,0.3125 c 0.703125,0 0.78125,0.0625 0.78125,0.5 l 0,4.65625 C 1.0625,1.625 0.953125,1.625 0.28125,1.625 l 0,0.3125 C 0.625,1.921875 1.140625,1.90625 1.390625,1.90625 c 0.28125,0 0.78125,0.015625 1.125,0.03125 l 0,-0.3125 C 1.859375,1.625 1.75,1.625 1.75,1.171875 l 0,-1.765625 c 0.046875,0.171875 0.46875,0.703125 1.21875,0.703125 1.1875,0 2.21875,-0.984375 2.21875,-2.265625 0,-1.265625 -0.953125,-2.25 -2.078125,-2.25 -0.78125,0 -1.203125,0.4375 -1.390625,0.65625 z m 0.03125,2.609375 0,-2.21875 C 2.03125,-3.875 2.515625,-4.15625 3.03125,-4.15625 c 0.734375,0 1.328125,0.875 1.328125,2 0,1.203125 -0.6875,2.046875 -1.421875,2.046875 -0.40625,0 -0.78125,-0.203125 -1.046875,-0.609375 C 1.75,-0.921875 1.75,-0.9375 1.75,-1.140625 z m 0,0"
               style="stroke:none"
               inkscape:connector-curvature="0" />
          </symbol>
          <symbol
             id="textext-b5698527-2"
             overflow="visible"
             style="overflow:visible">
            <path
               id="path39404"
               d="M 1.765625,-4.40625 0.375,-4.296875 l 0,0.3125 c 0.640625,0 0.734375,0.0625 0.734375,0.546875 l 0,2.6875 c 0,0.4375 -0.109375,0.4375 -0.78125,0.4375 l 0,0.3125 C 0.640625,-0.015625 1.1875,-0.03125 1.421875,-0.03125 1.78125,-0.03125 2.125,-0.015625 2.46875,0 l 0,-0.3125 c -0.671875,0 -0.703125,-0.046875 -0.703125,-0.4375 z m 0.03125,-1.734375 c 0,-0.3125 -0.234375,-0.53125 -0.515625,-0.53125 -0.3125,0 -0.53125,0.265625 -0.53125,0.53125 0,0.265625 0.21875,0.53125 0.53125,0.53125 0.28125,0 0.515625,-0.21875 0.515625,-0.53125 z m 0,0"
               style="stroke:none"
               inkscape:connector-curvature="0" />
          </symbol>
          <symbol
             id="textext-b5698527-3"
             overflow="visible"
             style="overflow:visible">
            <path
               id="path39407"
               d="M 1.109375,-2.515625 C 1.171875,-4 2.015625,-4.25 2.359375,-4.25 c 1.015625,0 1.125,1.34375 1.125,1.734375 z m 0,0.21875 2.78125,0 c 0.21875,0 0.25,0 0.25,-0.21875 0,-0.984375 -0.546875,-1.953125 -1.78125,-1.953125 -1.15625,0 -2.078125,1.03125 -2.078125,2.28125 0,1.328125 1.046875,2.296875 2.1875,2.296875 C 3.6875,0.109375 4.140625,-1 4.140625,-1.1875 4.140625,-1.28125 4.0625,-1.3125 4,-1.3125 c -0.078125,0 -0.109375,0.0625 -0.125,0.140625 -0.34375,1.03125 -1.25,1.03125 -1.34375,1.03125 -0.5,0 -0.890625,-0.296875 -1.125,-0.671875 -0.296875,-0.46875 -0.296875,-1.125 -0.296875,-1.484375 z m 0,0"
               style="stroke:none"
               inkscape:connector-curvature="0" />
          </symbol>
          <symbol
             id="textext-b5698527-4"
             overflow="visible"
             style="overflow:visible">
            <path
               id="path39410"
               d="m 2.21875,-1.71875 c -0.875,0 -0.875,-1 -0.875,-1.21875 0,-0.265625 0.015625,-0.59375 0.15625,-0.84375 0.078125,-0.109375 0.3125,-0.390625 0.71875,-0.390625 0.859375,0 0.859375,0.984375 0.859375,1.21875 0,0.265625 0,0.59375 -0.15625,0.84375 C 2.84375,-2 2.609375,-1.71875 2.21875,-1.71875 z M 1.0625,-1.328125 c 0,-0.03125 0,-0.265625 0.15625,-0.46875 0.390625,0.28125 0.8125,0.3125 1,0.3125 0.921875,0 1.609375,-0.6875 1.609375,-1.453125 0,-0.375 -0.15625,-0.734375 -0.40625,-0.96875 C 3.78125,-4.25 4.140625,-4.296875 4.3125,-4.296875 c 0.03125,0 0.078125,0 0.109375,0.015625 C 4.3125,-4.25 4.25,-4.140625 4.25,-4.015625 c 0,0.171875 0.140625,0.28125 0.296875,0.28125 0.09375,0 0.28125,-0.0625 0.28125,-0.296875 0,-0.171875 -0.109375,-0.484375 -0.5,-0.484375 -0.203125,0 -0.640625,0.0625 -1.0625,0.46875 C 2.84375,-4.375 2.4375,-4.40625 2.21875,-4.40625 c -0.9375,0 -1.625,0.6875 -1.625,1.453125 0,0.4375 0.21875,0.8125 0.46875,1.03125 -0.125,0.140625 -0.3125,0.46875 -0.3125,0.828125 0,0.3125 0.140625,0.6875 0.453125,0.890625 -0.609375,0.15625 -0.921875,0.59375 -0.921875,0.984375 0,0.71875 0.984375,1.265625 2.203125,1.265625 1.171875,0 2.203125,-0.5 2.203125,-1.28125 0,-0.34375 -0.125,-0.859375 -0.640625,-1.140625 -0.53125,-0.265625 -1.109375,-0.265625 -1.71875,-0.265625 -0.25,0 -0.671875,0 -0.75,-0.015625 C 1.265625,-0.703125 1.0625,-1 1.0625,-1.328125 z M 2.5,1.828125 c -1.015625,0 -1.703125,-0.515625 -1.703125,-1.046875 0,-0.453125 0.375,-0.828125 0.8125,-0.84375 l 0.59375,0 c 0.859375,0 1.96875,0 1.96875,0.84375 0,0.546875 -0.703125,1.046875 -1.671875,1.046875 z m 0,0"
               style="stroke:none"
               inkscape:connector-curvature="0" />
          </symbol>
          <symbol
             id="textext-b5698527-5"
             overflow="visible"
             style="overflow:visible">
            <path
               id="path39413"
               d="m 1.765625,-6.921875 -1.4375,0.109375 0,0.3125 c 0.703125,0 0.78125,0.0625 0.78125,0.5625 l 0,5.1875 c 0,0.4375 -0.109375,0.4375 -0.78125,0.4375 l 0,0.3125 C 0.65625,-0.015625 1.1875,-0.03125 1.4375,-0.03125 c 0.25,0 0.734375,0.015625 1.109375,0.03125 l 0,-0.3125 c -0.671875,0 -0.78125,0 -0.78125,-0.4375 z m 0,0"
               style="stroke:none"
               inkscape:connector-curvature="0" />
          </symbol>
        </g>
      </defs>
    </g>
    <rect
       y="301.24951"
       x="13.943176"
       height="449.86316"
       width="716.20813"
       id="rect16224"
       style="fill:#ffffff;stroke:#ffffff;stroke-width:0.99999994;stroke-linecap:butt;stroke-linejoin:round;stroke-miterlimit:4;stroke-opacity:1;stroke-dasharray:none;stroke-dashoffset:0"
       inkscape:export-filename="/home/waldgeist/data/pics/physik/Own/optik/ebener-spiegel-gegenstand-und-bild.png"
       inkscape:export-xdpi="150"
       inkscape:export-ydpi="150" />
    <rect
       transform="matrix(0,-1,1,0,0,0)"
       style="fill:#b3b3b3;fill-opacity:1;stroke:#000000;stroke-width:1;stroke-linecap:butt;stroke-linejoin:round;stroke-miterlimit:4;stroke-opacity:1;stroke-dasharray:none;stroke-dashoffset:0"
       id="rect36125"
       width="301.35876"
       height="5.9191313"
       x="-669.08136"
       y="370.23605"
       inkscape:export-filename="/home/waldgeist/data/pics/physik/Own/optik/ebener-spiegel-gegenstand-und-bild.png"
       inkscape:export-xdpi="150"
       inkscape:export-ydpi="150" />
    <rect
       y="376.84326"
       x="-669.08136"
       height="5.9191313"
       width="301.35876"
       id="rect4064"
       style="fill:#000000;fill-opacity:1;stroke:#000000;stroke-width:1;stroke-linecap:butt;stroke-linejoin:miter;stroke-miterlimit:4;stroke-opacity:1;stroke-dasharray:none;stroke-dashoffset:0"
       transform="matrix(0,-1,1,0,0,0)"
       inkscape:export-filename="/home/waldgeist/data/pics/physik/Own/optik/ebener-spiegel-gegenstand-und-bild.png"
       inkscape:export-xdpi="150"
       inkscape:export-ydpi="150" />
    <rect
       y="666.47424"
       x="65.429764"
       height="19.522463"
       width="613.23499"
       id="rect15448"
       style="fill:#808080;stroke:#000000;stroke-width:1.99999988;stroke-linecap:butt;stroke-linejoin:round;stroke-miterlimit:4;stroke-opacity:1;stroke-dasharray:none;stroke-dashoffset:0"
       inkscape:export-filename="/home/waldgeist/data/pics/physik/Own/optik/ebener-spiegel-gegenstand-und-bild.png"
       inkscape:export-xdpi="150"
       inkscape:export-ydpi="150" />
    <g
       transform="matrix(1.96345,0,0,1.96345,-95.722877,85.399859)"
       id="textext-b5698527-6"
       inkscape:export-filename="/home/waldgeist/data/pics/physik/Own/optik/ebener-spiegel-gegenstand-und-bild.png"
       inkscape:export-xdpi="150"
       inkscape:export-ydpi="150">
      <g
         id="g39416"
         style="fill:#000000;fill-opacity:1">
        <use
           id="use39418"
           y="134.765"
           x="223.43201"
           xlink:href="#textext-b5698527-0"
           width="744.09448"
           height="1052.3622" />
        <use
           id="use39420"
           y="134.765"
           x="228.96722"
           xlink:href="#textext-b5698527-1"
           width="744.09448"
           height="1052.3622" />
        <use
           id="use39422"
           y="134.765"
           x="234.50244"
           xlink:href="#textext-b5698527-2"
           width="744.09448"
           height="1052.3622" />
        <use
           id="use39424"
           y="134.765"
           x="237.27005"
           xlink:href="#textext-b5698527-3"
           width="744.09448"
           height="1052.3622" />
        <use
           id="use39426"
           y="134.765"
           x="241.69743"
           xlink:href="#textext-b5698527-4"
           width="744.09448"
           height="1052.3622" />
        <use
           id="use39428"
           y="134.765"
           x="246.67873"
           xlink:href="#textext-b5698527-3"
           width="744.09448"
           height="1052.3622" />
        <use
           id="use39430"
           y="134.765"
           x="251.10611"
           xlink:href="#textext-b5698527-5"
           width="744.09448"
           height="1052.3622" />
      </g>
    </g>
    <path
       inkscape:connector-curvature="0"
       inkscape:original-d="m 386.41005,445.17608 160.19098,0"
       inkscape:path-effect="#path-effect15679"
       id="path15677"
       d="m 386.41005,445.17608 160.19098,0"
       style="fill:none;stroke:#ff6600;stroke-width:2;stroke-linecap:butt;stroke-linejoin:miter;stroke-miterlimit:4;stroke-opacity:1;stroke-dasharray:1.99999999, 3.99999998;stroke-dashoffset:0;marker-start:url(#Arrow2Mstart)"
       inkscape:export-filename="/home/waldgeist/data/pics/physik/Own/optik/ebener-spiegel-gegenstand-und-bild.png"
       inkscape:export-xdpi="150"
       inkscape:export-ydpi="150" />
    <path
       inkscape:transform-center-y="14.392517"
       inkscape:transform-center-x="-69.639459"
       style="fill:none;stroke:#ff6600;stroke-width:2;stroke-linecap:butt;stroke-linejoin:miter;stroke-miterlimit:4;stroke-opacity:1;stroke-dasharray:1.99999999, 3.99999996;stroke-dashoffset:0;marker-start:url(#Arrow2Mstart)"
       d="m 385.78754,480.17392 160.81349,32.77225"
       id="path15681"
       inkscape:path-effect="#path-effect15683"
       inkscape:original-d="m 385.78754,480.17392 160.81349,32.77225"
       inkscape:connector-curvature="0"
       inkscape:export-filename="/home/waldgeist/data/pics/physik/Own/optik/ebener-spiegel-gegenstand-und-bild.png"
       inkscape:export-xdpi="150"
       inkscape:export-ydpi="150" />
    <path
       inkscape:connector-curvature="0"
       inkscape:original-d="M 385.3559,562.00657 546.14735,664.61401"
       inkscape:path-effect="#path-effect15687"
       id="path15685"
       d="M 385.3559,562.00657 546.14735,664.61401"
       style="fill:none;stroke:#ff6600;stroke-width:2;stroke-linecap:butt;stroke-linejoin:miter;stroke-miterlimit:4;stroke-opacity:1;stroke-dasharray:1.99999995, 3.9999999;stroke-dashoffset:0;marker-start:url(#Arrow2Mstart);marker-mid:none;marker-end:none"
       inkscape:transform-center-x="-69.540588"
       inkscape:transform-center-y="44.714284"
       inkscape:export-filename="/home/waldgeist/data/pics/physik/Own/optik/ebener-spiegel-gegenstand-und-bild.png"
       inkscape:export-xdpi="150"
       inkscape:export-ydpi="150" />
    <path
       inkscape:transform-center-y="43.596725"
       inkscape:transform-center-x="-67.96123"
       style="fill:none;stroke:#d40000;stroke-width:1.99999988;stroke-linecap:butt;stroke-linejoin:miter;stroke-miterlimit:4;stroke-opacity:1;stroke-dasharray:none;marker-start:url(#Arrow2Mstart);marker-end:none"
       d="M 213.02659,452.0203 370.23603,552.10842"
       id="path15691"
       inkscape:path-effect="#path-effect15693"
       inkscape:original-d="M 213.02659,452.0203 370.23603,552.10842"
       inkscape:connector-curvature="0"
       inkscape:export-filename="/home/waldgeist/data/pics/physik/Own/optik/ebener-spiegel-gegenstand-und-bild.png"
       inkscape:export-xdpi="150"
       inkscape:export-ydpi="150" />
    <path
       inkscape:connector-curvature="0"
       inkscape:original-d="M 370.23605,552.10841 194.36106,664.17653"
       inkscape:path-effect="#path-effect16205"
       id="path16203"
       d="M 370.23605,552.10841 194.36106,664.17653"
       style="fill:#ff6600;stroke:#ff6600;stroke-width:2;stroke-linecap:butt;stroke-linejoin:miter;stroke-miterlimit:4;stroke-opacity:1;stroke-dasharray:none;marker-start:url(#Arrow2Mstart)"
       inkscape:transform-center-x="76.100992"
       inkscape:transform-center-y="48.849027"
       inkscape:export-filename="/home/waldgeist/data/pics/physik/Own/optik/ebener-spiegel-gegenstand-und-bild.png"
       inkscape:export-xdpi="150"
       inkscape:export-ydpi="150" />
    <path
       inkscape:connector-curvature="0"
       inkscape:original-d="m 213.99935,445.17464 155.04437,31.49412"
       inkscape:path-effect="#path-effect16209"
       id="path16207"
       d="m 213.99935,445.17464 155.04437,31.49412"
       style="fill:#ff6600;stroke:#d40000;stroke-width:2;stroke-linecap:butt;stroke-linejoin:miter;stroke-miterlimit:4;stroke-opacity:1;stroke-dasharray:none;marker-start:url(#Arrow2Mstart)"
       inkscape:transform-center-x="-67.107776"
       inkscape:transform-center-y="13.816201"
       inkscape:export-filename="/home/waldgeist/data/pics/physik/Own/optik/ebener-spiegel-gegenstand-und-bild.png"
       inkscape:export-xdpi="150"
       inkscape:export-ydpi="150" />
    <path
       style="fill:#ff5555;stroke:#d40000;stroke-width:2;stroke-linecap:butt;stroke-linejoin:miter;stroke-miterlimit:4;stroke-opacity:1;stroke-dasharray:none;marker-start:url(#Arrow2Mstart);marker-end:url(#Arrow1Mend)"
       d="m 213.99935,445.17464 155.70283,0"
       id="path16211"
       inkscape:path-effect="#path-effect16213"
       inkscape:original-d="m 213.99935,445.17464 155.70283,0"
       inkscape:connector-curvature="0"
       inkscape:export-filename="/home/waldgeist/data/pics/physik/Own/optik/ebener-spiegel-gegenstand-und-bild.png"
       inkscape:export-xdpi="150"
       inkscape:export-ydpi="150" />
    <path
       inkscape:transform-center-y="15.603771"
       inkscape:transform-center-x="75.093503"
       style="fill:#ff6600;stroke:#ff6600;stroke-width:2;stroke-linecap:butt;stroke-linejoin:miter;stroke-miterlimit:4;stroke-opacity:1;stroke-dasharray:none;marker-start:url(#Arrow2Mstart);marker-end:none"
       d="M 370.23605,478.11263 196.94066,513.51928"
       id="path16220"
       inkscape:path-effect="#path-effect16222"
       inkscape:original-d="M 370.23605,478.11263 196.94066,513.51928"
       inkscape:connector-curvature="0"
       inkscape:export-filename="/home/waldgeist/data/pics/physik/Own/optik/ebener-spiegel-gegenstand-und-bild.png"
       inkscape:export-xdpi="150"
       inkscape:export-ydpi="150" />
    <path
       inkscape:connector-curvature="0"
       id="path7062-7"
       d="m 562.12915,426.03293 c -9.68852,0 -17.51441,7.94679 -17.51441,17.69205 0,9.74525 7.82589,17.62099 17.51441,17.62099 9.68855,2.8e-4 17.58547,-7.87574 17.58547,-17.62099 0,-9.74526 -7.89692,-17.69205 -17.58547,-17.69205 z m -27.35517,38.29724 c -9.08059,0 -16.30653,6.99206 -16.30653,15.596 l 0,71.40766 c 0,10.91487 15.70258,10.91487 15.70258,0 l 0,-56.4156 5.54209,0 0,160.82709 c 0,4.92295 4.39663,9.02365 9.59207,9.02365 5.19537,0 9.16576,-4.10127 9.16576,-9.02365 l 0,-88.56681 7.3184,0 0,88.56681 c 0,4.92238 4.00591,9.02365 9.20128,9.02365 5.1954,0 9.59208,-4.1007 9.59208,-9.02365 l 0,-160.82709 5.50656,0 0,56.4156 c 0,10.91487 15.66705,10.91487 15.66705,0 l 0,-71.40766 c 0,-8.60394 -7.22594,-15.596 -16.30652,-15.596 l -54.67482,0 z"
       style="fill:#b3b3b3;fill-opacity:1;stroke:#808080;stroke-width:3;stroke-miterlimit:4;stroke-dasharray:2.99999996, 5.99999994;stroke-dashoffset:0"
       inkscape:export-filename="/home/waldgeist/data/pics/physik/Own/optik/ebener-spiegel-gegenstand-und-bild.png"
       inkscape:export-xdpi="150"
       inkscape:export-ydpi="150" />
    <g
       transform="matrix(1.1368383,0,0,1.1368383,-57.304641,187.84615)"
       id="g15454"
       inkscape:export-filename="/home/waldgeist/data/pics/physik/Own/optik/ebener-spiegel-gegenstand-und-bild.png"
       inkscape:export-xdpi="150"
       inkscape:export-ydpi="150">
      <g
         transform="matrix(0.35792076,0,0,0.36001763,95.90064,199.21735)"
         id="layer1-4"
         inkscape:label="Layer 1">
        <path
           inkscape:connector-curvature="0"
           style="fill:#000000;fill-opacity:1;stroke:none"
           d="m 320.15748,29.967741 c -23.81068,0 -43.02535,19.428795 -43.02535,43.239411 0,23.810617 19.21467,43.025008 43.02535,43.025008 23.81076,6.9e-4 43.23941,-19.214391 43.23941,-43.025008 0,-23.810616 -19.42865,-43.239411 -43.23941,-43.239411 z m -67.21374,93.572899 c -22.3166,0 -40.02856,17.08068 -40.02856,38.10274 l 0,174.4557 c 0,26.66835 38.53017,26.66835 38.53017,0 l 0,-137.85238 13.69961,0 0,393.00771 c 0,12.02827 10.77783,22.04748 23.54622,22.04748 12.76824,0 22.47593,-10.02058 22.47593,-22.04748 l 0,-216.41077 17.98074,0 0,216.41077 c 0,12.0269 9.92175,22.04748 22.68999,22.04748 12.76832,0 23.54622,-10.01921 23.54622,-22.04748 l 0,-393.00771 13.48556,0 0,137.85238 c 0,26.66835 38.53016,26.66835 38.53016,0 l 0,-174.4557 c 0,-21.02206 -17.71196,-38.10274 -40.02856,-38.10274 z"
           id="path7062"
           sodipodi:nodetypes="sscssssssccsssccsssccsssss" />
      </g>
      <g
         inkscape:label="Layer 1"
         id="g15450"
         transform="matrix(0.35792076,0,0,0.36001763,442.38296,199.21735)"
         style="opacity:0.5;fill:#666666" />
    </g>
  </g>
</svg>
