<svg xmlns="http://www.w3.org/2000/svg" width="210mm" height="297mm"><title>Additive Farbmischung</title><g color="#000" stroke-linecap="round" stroke-linejoin="round"><path style="marker:none" fill="#fff" stroke="#fff" stroke-width=".5" overflow="visible" d="M19.733 219.188h723.546v620.495H19.733z"/><path style="marker:none" stroke="gray" stroke-width=".5" overflow="visible" d="M76.172 244.931h591.75v562.5H76.172z"/><path d="M623.407 611.691a151.598 151.598 0 1 1-303.196 0 151.598 151.598 0 1 1 303.196 0z" style="marker:none" fill="#0f0" stroke="gray" stroke-width=".5002487999999999" overflow="visible"/><path style="marker:none" d="M423.883 611.691a151.598 151.598 0 1 1-303.195 0 151.598 151.598 0 1 1 303.195 0z" fill="#00f" stroke="gray" stroke-width=".5002487999999999" overflow="visible"/><path style="marker:none" d="M372.063 497.531c-31.78 27.789-51.844 68.625-51.844 114.156 0 45.532 20.064 86.368 51.844 114.157 31.769-27.789 51.812-68.633 51.812-114.157 0-45.523-20.043-86.367-51.813-114.156z" fill="#0ff" stroke="gray" stroke-width=".5" overflow="visible"/><path d="M523.645 440.671a151.598 151.598 0 1 1-303.195 0 151.598 151.598 0 1 1 303.195 0z" style="marker:none" fill="red" stroke="gray" stroke-width=".5002487999999999" overflow="visible"/><path style="marker:none" d="M471.813 460.094c-74.293 0-136.078 53.432-149.063 123.969 15.46 5.315 32.048 8.218 49.313 8.218 74.281 0 136.065-53.446 149.062-123.968-15.46-5.317-32.048-8.22-49.313-8.22z" fill="#ff0" stroke="gray" stroke-width=".5" overflow="visible"/><path style="marker:none" d="M272.281 460.094c-17.265 0-33.852 2.902-49.312 8.219 12.996 70.522 74.812 123.968 149.094 123.968 17.264 0 33.82-2.903 49.28-8.218-12.984-70.537-74.77-123.97-149.062-123.97z" fill="#f0f" stroke="gray" stroke-width=".5" overflow="visible"/><path style="marker:none" d="M372.031 497.563c-25.161 22.025-42.976 52.25-49.281 86.5.907.311 1.835.642 2.75.937 1.025.33 2.06.628 3.094.938.022.006.04.024.062.03.962.288 1.937.545 2.906.813.769.213 1.54.424 2.313.625.229.06.458.13.688.188l.5.125c.833.21 1.66.398 2.5.593 1.007.235 2.016.473 3.03.688.777.164 1.564.316 2.344.469.24.047.479.11.72.156.403.077.813.145 1.218.219.617.112 1.224.208 1.844.312.967.163 1.932.324 2.906.469l.219.031c.738.109 1.477.215 2.219.313.82.108 1.644.217 2.468.312.333.039.667.058 1 .094.665.072 1.333.155 2 .219.251.024.499.04.75.062.654.06 1.313.106 1.969.157.726.056 1.458.11 2.188.156.893.056 1.79.116 2.687.156.8.036 1.604.07 2.406.094.353.01.71.023 1.063.031 1.156.026 2.306.031 3.469.031 1.077 0 2.147-.009 3.218-.031.438-.01.876-.018 1.313-.031.946-.028 1.902-.08 2.844-.125.752-.037 1.5-.078 2.25-.125.728-.046 1.461-.1 2.187-.157.658-.05 1.313-.097 1.969-.156.25-.022.5-.038.75-.062.65-.062 1.289-.149 1.937-.219.409-.044.812-.077 1.219-.125.468-.054.94-.097 1.406-.156.96-.122 1.922-.267 2.875-.407a151.486 151.486 0 0 0 5.781-.938c.427-.078.856-.166 1.282-.249.81-.158 1.6-.33 2.406-.5 1.86-.394 3.727-.82 5.563-1.281l.25-.063c.262-.066.519-.15.78-.218a151.194 151.194 0 0 0 11.25-3.375c-.202-1.103-.429-2.188-.656-3.282-.226-1.093-.437-2.196-.687-3.281a151.797 151.797 0 0 0-1.656-6.469c-.281-1.012-.543-1.996-.844-3-.066-.221-.151-.435-.219-.656-.143-.47-.29-.939-.437-1.406-.166-.524-.33-1.042-.5-1.563-.31-.942-.642-1.878-.969-2.812-.396-1.13-.797-2.289-1.219-3.407-.355-.942-.72-1.879-1.094-2.812-.133-.334-.27-.667-.406-1-.326-.799-.66-1.583-1-2.375-.376-.878-.764-1.725-1.156-2.594a151.33 151.33 0 0 0-4.219-8.625c-.06-.115-.126-.229-.187-.343-.139-.26-.267-.523-.406-.782-.346-.638-.709-1.273-1.063-1.906-.53-.946-1.045-1.88-1.594-2.813-.548-.933-1.12-1.86-1.687-2.78-.612-.992-1.21-1.993-1.844-2.97-1.131-1.741-2.331-3.433-3.531-5.125-.586-.825-1.149-1.655-1.75-2.468-.102-.138-.21-.269-.313-.407a151.947 151.947 0 0 0-5.781-7.25c-.034-.04-.06-.085-.094-.125-.21-.248-.413-.503-.625-.75-.48-.56-.98-1.103-1.469-1.656a152.763 152.763 0 0 0-2.156-2.406c-.367-.398-.722-.793-1.094-1.188a152.12 152.12 0 0 0-3.437-3.53c-.02-.022-.042-.042-.063-.063-.842-.838-1.7-1.682-2.562-2.5-.112-.107-.231-.206-.344-.313-.075-.07-.143-.148-.219-.219-.903-.848-1.825-1.673-2.75-2.5-.423-.378-.853-.75-1.28-1.125z" fill="#fff" stroke="gray" stroke-width=".5" overflow="visible"/></g></svg>