<svg xmlns:ns0="http://www.iki.fi/pav/software/textext/" xmlns="http://www.w3.org/2000/svg" xmlns:xlink="http://www.w3.org/1999/xlink" width="210mm" height="297mm"><title>Kepler-Fernrohr</title><defs><marker id="c" orient="auto" overflow="visible"><path transform="scale(-.6)" d="M8.719 4.034L-2.207.016 8.719-4.002c-1.746 2.372-1.736 5.618 0 8.036z" font-size="12" fill-rule="evenodd" stroke-width=".625" stroke-linejoin="round"/></marker></defs><path style="marker:none" color="#000" fill="#f9f9f9" stroke="#f9f9f9" stroke-width=".626" stroke-linecap="round" stroke-dasharray="1.87675544,3.7535109" overflow="visible" d="M14.375 426.075H729.72v213.777H14.375z"/><path style="marker:none" d="M367.382 485.29v81.782h272.112v-20.125h15.45v-41.532h-15.45V485.29z" color="#000" fill="#8a8a8a" stroke="#ccc" stroke-linecap="round" stroke-linejoin="round" overflow="visible"/><path style="marker:none" color="#000" fill="#8a8a8a" stroke="#ccc" stroke-width="1.096" stroke-linecap="round" stroke-linejoin="round" overflow="visible" d="M367.427 480.798h83.122v90.766h-83.122z"/><g fill="#ececec" stroke="gray" stroke-width="3.99" stroke-linecap="round"><path transform="matrix(.347 0 0 .74752 .883 -68.176)" d="M1065.972 735.76c21.202 36.724 21.202 81.97 0 118.694"/><path d="M1065.972 735.76c21.202 36.724 21.202 81.97 0 118.694" transform="matrix(-.347 0 0 .74752 740.688 -68.176)"/></g><g fill="#ececec" stroke="gray" stroke-width="5.246" stroke-linecap="round"><path d="M1065.972 735.76c21.202 36.724 21.202 81.97 0 118.694" transform="matrix(.41536 0 0 .3499 196.723 247.969)"/><path transform="matrix(-.41536 0 0 .3499 1082.327 247.969)" d="M1065.972 735.76c21.202 36.724 21.202 81.97 0 118.694"/></g><path d="M29.354 526.181H714.74" fill="none" stroke="#000" stroke-width=".878" stroke-dasharray=".87830781,1.75661556"/><path d="M500.922 526.181a2.02 2.02 0 1 1-4.04 0 2.02 2.02 0 1 1 4.04 0zM580.55 526.181a2.02 2.02 0 1 1-4.038 0 2.02 2.02 0 1 1 4.039 0z" stroke="#000" stroke-width="1.53574864" stroke-linecap="round"/><g transform="matrix(2.0734 0 0 2.0734 108.533 237.608)" ns0:preamble="/home/waldgeist/data/sphinx/inkscape-preamble.tex" ns0:text="$\\rm{F}_2$"><defs><symbol id="a" overflow="visible"><path d="M5.797-6.781H.328v.312h.234c.766 0 .797.11.797.469v5.219c0 .36-.03.469-.796.469H.328V0c.344-.031 1.125-.031 1.516-.031.406 0 1.312 0 1.672.031v-.313h-.329c-.937 0-.937-.124-.937-.468v-2.453h.844c.969 0 1.062.312 1.062 1.156h.25v-2.64h-.25c0 .843-.093 1.171-1.062 1.171H2.25v-2.531c0-.328.016-.39.484-.39h1.188c1.5 0 1.75.562 1.906 1.937h.25z"/></symbol><symbol id="b" overflow="visible"><path d="M3.516-1.266H3.28c-.015.157-.094.563-.187.625-.047.047-.578.047-.688.047H1.125c.734-.64.984-.844 1.39-1.172.516-.406 1-.843 1-1.5 0-.843-.734-1.359-1.624-1.359-.86 0-1.454.61-1.454 1.25 0 .344.297.39.376.39.156 0 .359-.124.359-.374 0-.125-.047-.375-.406-.375.218-.485.687-.641 1.015-.641.703 0 1.063.547 1.063 1.11 0 .609-.438 1.078-.656 1.328L.516-.266C.437-.203.437-.187.437 0h2.876z"/></symbol></defs><use y="134.765" x="223.432" xlink:href="#a" width="744.094" height="1052.362"/><use y="136.259" x="229.936" xlink:href="#b" width="744.094" height="1052.362"/></g><path style="marker:none" d="M114.351 502.68l-10.084-.659-6.26 7.935-2.49-9.795-9.48-3.5 8.545-5.396.4-10.098 7.772 6.46 9.727-2.74-3.742 9.387z" transform="matrix(.62912 .29563 -.29617 .62797 137.076 176.9)" color="#000" fill="#fea" stroke="#fc0" stroke-width="4.318" stroke-linecap="round" stroke-linejoin="round" overflow="visible"/><path d="M54.33 507.185l314.004 18.88" fill="none" stroke="#f60" stroke-width="1.5" stroke-linecap="round" marker-end="url(#c)"/><path d="M368.745 526.123l221.07 13.419" fill="none" stroke="#d40000" stroke-width="1.5" stroke-linecap="round" marker-end="url(#c)"/><path d="M54.325 507.14l314.571.12" fill="none" stroke="#f60" stroke-width="1.5" stroke-linecap="round" marker-end="url(#c)"/><path transform="matrix(.36632 -.16187 -.16298 -.36409 634.53 729.527)" d="M114.351 502.68l-10.084-.659-6.26 7.935-2.49-9.795-9.48-3.5 8.545-5.396.4-10.098 7.772 6.46 9.727-2.74-3.742 9.387z" style="marker:none" opacity=".8" color="#000" fill="#fea" stroke="#fc0" stroke-width="7.506" stroke-linecap="round" stroke-linejoin="round" overflow="visible"/><path d="M370.592 507.436l219.223 31.977" fill="none" stroke="#d40000" stroke-width="1.5" stroke-linecap="round" marker-end="url(#c)"/><path d="M703.201 526.181a2.02 2.02 0 1 1-4.039 0 2.02 2.02 0 1 1 4.04 0z" stroke="#000" stroke-width="1.53574864" stroke-linecap="round"/><path d="M639.98 539.612l81.188-18.158" fill="none" stroke="#d40000" stroke-width="1.5" stroke-linecap="round" marker-end="url(#c)"/><path d="M590.904 538.964l47.64.648M590.904 538.964l47.842-12.551" fill="none" stroke="#f60" stroke-width="1.5" stroke-linecap="round" marker-end="url(#c)"/><path d="M290.547 617.762l340.207-76.087" fill="none" stroke="#d40000" stroke-width="1.5" stroke-linecap="round" stroke-dasharray="1.49999988,2.99999976"/><path d="M290.547 617.762l291.092-76.367" fill="none" stroke="#f60" stroke-width="1.5" stroke-linecap="round" stroke-dasharray="1.49999988,2.99999976"/><path d="M639.856 526.181l79.683-20.964" fill="none" stroke="#d40000" stroke-width="1.5" stroke-linecap="round" marker-end="url(#c)"/><g ns0:text="$\\rm{F}_1$" ns0:preamble="/home/waldgeist/data/sphinx/inkscape-preamble.tex" transform="matrix(2.0734 0 0 2.0734 29.359 236.418)"><defs><symbol overflow="visible" id="d"><path d="M5.797-6.781H.328v.312h.234c.766 0 .797.11.797.469v5.219c0 .36-.03.469-.796.469H.328V0c.344-.031 1.125-.031 1.516-.031.406 0 1.312 0 1.672.031v-.313h-.329c-.937 0-.937-.124-.937-.468v-2.453h.844c.969 0 1.062.312 1.062 1.156h.25v-2.64h-.25c0 .843-.093 1.171-1.062 1.171H2.25v-2.531c0-.328.016-.39.484-.39h1.188c1.5 0 1.75.562 1.906 1.937h.25z"/></symbol><symbol overflow="visible" id="e"><path d="M2.328-4.438c0-.187 0-.187-.203-.187-.453.438-1.078.438-1.36.438v.25c.157 0 .626 0 1-.188v3.547c0 .234 0 .328-.687.328H.812V0c.125 0 .985-.031 1.235-.031.219 0 1.094.031 1.25.031v-.25H3.03c-.703 0-.703-.094-.703-.328z"/></symbol></defs><use xlink:href="#d" x="223.432" y="134.765" width="744.094" height="1052.362"/><use xlink:href="#e" x="229.936" y="136.259" width="744.094" height="1052.362"/></g><path style="marker:none" d="M114.351 502.68l-10.084-.659-6.26 7.935-2.49-9.795-9.48-3.5 8.545-5.396.4-10.098 7.772 6.46 9.727-2.74-3.742 9.387z" transform="matrix(2.83885 -1.25467 -1.26327 -2.82155 628.75 2089.775)" opacity=".5" color="#000" fill="#fea" stroke="#fc0" stroke-width="3.228" stroke-linecap="round" stroke-linejoin="round" overflow="visible"/></svg>