<svg xmlns:ns0="http://www.iki.fi/pav/software/textext/" xmlns="http://www.w3.org/2000/svg" xmlns:xlink="http://www.w3.org/1999/xlink" width="210mm" height="297mm"><title>Galilei-Fernrohr</title><defs><marker orient="auto" id="a" overflow="visible"><path d="M8.719 4.034L-2.207.016 8.719-4.002c-1.746 2.372-1.736 5.618 0 8.036z" transform="scale(-.6)" font-size="12" fill-rule="evenodd" stroke-width=".625" stroke-linejoin="round"/></marker></defs><path style="marker:none" color="#000" fill="#f9f9f9" stroke="#f9f9f9" stroke-width=".626" stroke-linecap="round" stroke-dasharray="1.87675544,3.7535109" overflow="visible" d="M14.375 419.292H729.72v213.777H14.375z"/><path d="M580.719 485.281v12.063H520.78v57.687h59.938v12.063h57.156V547.03h15.063v-41.687h-15.063V485.28z" style="marker:none" color="#000" fill="#8a8a8a" stroke="#ccc" stroke-linecap="round" stroke-linejoin="round" overflow="visible"/><path style="marker:none" color="#000" fill="#8a8a8a" stroke="#ccc" stroke-linecap="round" stroke-linejoin="round" overflow="visible" d="M518.534 480.75h102.763v90.862H518.534z"/><g fill="#ececec" stroke="gray" stroke-width="3.927" stroke-linecap="round"><path transform="matrix(.347 0 0 .74752 152.038 -68.336)" d="M1065.972 735.76c21.202 36.724 21.202 81.97 0 118.694"/><path d="M1065.972 735.76c21.202 36.724 21.202 81.97 0 118.694" transform="matrix(-.347 0 0 .74752 891.843 -68.336)"/></g><path d="M622.99 506.462c2.621 3.078 4.475 10.764 4.475 19.738 0 8.984-1.866 16.643-4.492 19.713h16.34c-2.626-3.07-4.491-10.729-4.491-19.713 0-8.974 1.87-16.66 4.491-19.738h-9.267z" style="marker:none" color="#000" fill="#ececec" stroke="#000" stroke-width=".93" stroke-linecap="round" stroke-linejoin="round" overflow="visible"/><path d="M29.354 526.181H714.74" fill="none" stroke="#000" stroke-width=".878" stroke-dasharray=".87830781,1.75661556"/><path d="M683.494 526.225a2.02 2.02 0 1 1-4.039 0 2.02 2.02 0 1 1 4.04 0z" stroke="#000" stroke-width="1.50043214" stroke-linecap="round"/><path d="M630.87 535.709h79.895M631.143 516.752h79.894" fill="none" stroke="#d40000" stroke-width="1.5" stroke-linecap="round" marker-end="url(#a)"/><g fill="#c8beb7" stroke="#6c5d53" color="#000" stroke-width="1.182" stroke-linecap="round" stroke-linejoin="round"><path style="marker:none" overflow="visible" d="M36.578 515.075h35.187v41.132H36.578zM54.171 496.142l23.414 18.933H30.758z" stroke-width="1.00025568"/></g><path d="M72.228 556.207h449.728" fill="none" stroke="#f60" stroke-width="1.5" stroke-linecap="round" marker-end="url(#a)"/><path d="M29.354 526.181H714.74" fill="none" stroke="#000" stroke-dasharray=".87830781,1.75661556"/><path d="M631.143 516.752l50.332 9.473" fill="none" stroke="#d40000" stroke-width="1.5" stroke-linecap="round" stroke-dasharray="1.5,4.5"/><path d="M522.229 496.254l108.914 20.498" fill="none" stroke="#d40000" stroke-width="1.5" stroke-linecap="round" marker-end="url(#a)"/><path d="M54.47 496.134l467.759.12" fill="none" stroke="#f60" stroke-width="1.5" stroke-linecap="round" marker-end="url(#a)"/><g transform="matrix(2.0734 0 0 2.0734 211.571 231.065)" ns0:preamble="/home/waldgeist/data/sphinx/inkscape-preamble.tex" ns0:text="$\\rm{F}$"><defs><symbol id="b" overflow="visible"><path d="M5.797-6.781H.328v.312h.234c.766 0 .797.11.797.469v5.219c0 .36-.03.469-.796.469H.328V0c.344-.031 1.125-.031 1.516-.031.406 0 1.312 0 1.672.031v-.313h-.329c-.937 0-.937-.124-.937-.468v-2.453h.844c.969 0 1.062.312 1.062 1.156h.25v-2.64h-.25c0 .843-.093 1.171-1.062 1.171H2.25v-2.531c0-.328.016-.39.484-.39h1.188c1.5 0 1.75.562 1.906 1.937h.25z"/></symbol></defs><use y="134.765" x="223.432" xlink:href="#b" width="744.094" height="1052.362"/></g><path d="M630.87 535.709l50.605-9.484" fill="none" stroke="#d40000" stroke-width="1.5" stroke-linecap="round" stroke-dasharray="1.5,4.5"/><path d="M521.956 556.207l108.915-20.498" fill="none" stroke="#d40000" stroke-width="1.5" stroke-linecap="round" marker-end="url(#a)"/></svg>