<svg xmlns:ns0="http://www.iki.fi/pav/software/textext/" xmlns="http://www.w3.org/2000/svg" xmlns:xlink="http://www.w3.org/1999/xlink" height="744.094" width="1052.362"><title>Der gewoelbte Spiegel</title><path style="marker:none" color="#000" fill="#fff" stroke="#fff" stroke-linecap="round" stroke-linejoin="round" overflow="visible" d="M41.181 82.047h970v580h-970z"/><g fill="none" stroke-linejoin="round"><path transform="matrix(-1.31198 -.00372 .00373 -1.3135 1206.933 909.652)" d="M617.143 408.076c0 104.146-84.426 188.572-188.572 188.572C324.426 596.648 240 512.222 240 408.076c0-104.145 84.426-188.571 188.571-188.571 104.146 0 188.572 84.426 188.572 188.571z" stroke="#999" stroke-width="3.809" stroke-linecap="round" stroke-dasharray="3.8088055,15.23522201"/><path d="M300.855 269.34c72.207-66.472 183.33-66.444 255.504.066" transform="rotate(-90.972 523.624 412.788) scale(1.31199 1.31351)" stroke="#b3b3b3" stroke-width="4.571"/></g><path d="M644.854 369.736a3.273 3.273 0 1 0 4.63 4.628 3.273 3.273 0 0 0-4.63-4.628zM400.956 369.736a3.273 3.273 0 1 1-4.63 4.628 3.273 3.273 0 0 1 4.63-4.628zM276.692 369.736a3.273 3.273 0 1 1-4.63 4.628 3.273 3.273 0 0 1 4.63-4.628zM520.59 369.736a3.273 3.273 0 1 0 4.63 4.628 3.273 3.273 0 0 0-4.63-4.628zM147.796 369.736a3.273 3.273 0 1 0 4.63 4.628 3.273 3.273 0 0 0-4.63-4.628z" stroke="#000" stroke-width=".9828536400000001" stroke-linejoin="round"/><path d="M118.336 372.052h815.69" fill="none" stroke="#000"/><g transform="matrix(2.69332 0 0 2.69332 -254.923 -135.1)" ns0:preamble="/home/waldgeist/data/sphinx/inkscape-preamble.tex" ns0:text="Spiegel\n"><defs><symbol id="a" overflow="visible"><path d="M3.484-3.875l-1.28-.297c-.626-.156-1-.687-1-1.266 0-.703.53-1.312 1.312-1.312 1.656 0 1.875 1.64 1.937 2.078.016.063.016.125.125.125.125 0 .125-.047.125-.234v-2c0-.172 0-.25-.11-.25-.062 0-.077.015-.14.14l-.36.563c-.296-.297-.702-.703-1.593-.703-1.11 0-1.938.875-1.938 1.937 0 .828.532 1.563 1.297 1.828.11.032.625.157 1.329.329.265.062.562.14.843.5.203.265.313.593.313.921 0 .704-.5 1.422-1.344 1.422-.281 0-1.047-.047-1.578-.531-.578-.547-.61-1.172-.61-1.531-.015-.11-.093-.11-.125-.11-.125 0-.125.079-.125.25v2c0 .172 0 .235.11.235.062 0 .078-.016.14-.125 0-.016.032-.047.36-.578.312.343.953.703 1.844.703 1.156 0 1.953-.969 1.953-2.078 0-.985-.657-1.813-1.485-2.016zm0 0"/></symbol><symbol id="b" overflow="visible"><path d="M1.719-3.75v-.656l-1.438.11v.312c.703 0 .781.062.781.5v4.656c0 .453-.109.453-.78.453v.313c.343-.016.859-.032 1.109-.032.28 0 .78.016 1.125.032v-.313c-.657 0-.766 0-.766-.453V-.594c.047.172.469.703 1.219.703 1.187 0 2.219-.984 2.219-2.265 0-1.266-.954-2.25-2.079-2.25-.78 0-1.203.437-1.39.656zm.031 2.61v-2.22c.281-.515.766-.796 1.281-.796.735 0 1.328.875 1.328 2C4.36-.953 3.672-.11 2.938-.11c-.407 0-.782-.204-1.047-.61-.141-.203-.141-.219-.141-.422zm0 0"/></symbol><symbol id="c" overflow="visible"><path d="M1.766-4.406l-1.391.11v.312c.64 0 .734.062.734.546V-.75c0 .438-.109.438-.78.438V0c.312-.016.859-.031 1.093-.031.36 0 .703.015 1.047.031v-.313c-.672 0-.703-.046-.703-.437zm.03-1.735a.514.514 0 0 0-.515-.53.537.537 0 0 0-.531.53c0 .266.219.532.531.532a.514.514 0 0 0 .516-.532zm0 0"/></symbol><symbol id="d" overflow="visible"><path d="M1.11-2.516C1.171-4 2.015-4.25 2.36-4.25c1.015 0 1.124 1.344 1.124 1.734zm0 .22h2.78c.22 0 .25 0 .25-.22 0-.984-.546-1.953-1.78-1.953C1.202-4.469.28-3.437.28-2.187.281-.86 1.328.108 2.47.108 3.688.11 4.14-1 4.14-1.187c0-.094-.079-.125-.141-.125-.078 0-.11.062-.125.14C3.531-.14 2.625-.14 2.531-.14c-.5 0-.89-.296-1.125-.671-.297-.47-.297-1.125-.297-1.485zm0 0"/></symbol><symbol id="e" overflow="visible"><path d="M2.219-1.719c-.875 0-.875-1-.875-1.218 0-.266.015-.594.156-.844.078-.11.313-.39.719-.39.86 0 .86.984.86 1.218 0 .265 0 .594-.157.844-.078.109-.313.39-.703.39zm-1.156.39c0-.03 0-.265.156-.468.39.281.812.313 1 .313.922 0 1.61-.688 1.61-1.454 0-.374-.157-.734-.407-.968.36-.344.719-.39.89-.39.032 0 .079 0 .11.015-.11.031-.172.14-.172.265 0 .172.14.282.297.282a.28.28 0 0 0 .281-.297c0-.172-.11-.485-.5-.485-.203 0-.64.063-1.062.47a1.652 1.652 0 0 0-1.047-.36c-.938 0-1.625.687-1.625 1.453 0 .437.219.812.469 1.031-.125.14-.313.469-.313.828 0 .313.14.688.453.89-.61.157-.922.595-.922.985 0 .719.985 1.266 2.203 1.266 1.172 0 2.204-.5 2.204-1.281 0-.344-.125-.86-.641-1.141-.531-.266-1.11-.266-1.719-.266-.25 0-.672 0-.75-.015-.312-.047-.516-.344-.516-.672zM2.5 1.829C1.484 1.828.797 1.312.797.781c0-.453.375-.828.812-.844h.594c.86 0 1.969 0 1.969.844 0 .547-.703 1.047-1.672 1.047zm0 0"/></symbol><symbol id="f" overflow="visible"><path d="M1.766-6.922l-1.438.11v.312c.703 0 .781.063.781.563V-.75c0 .438-.109.438-.78.438V0c.327-.016.859-.031 1.109-.031s.734.015 1.109.031v-.313c-.672 0-.781 0-.781-.437zm0 0"/></symbol></defs><use y="134.765" x="223.432" xlink:href="#a" width="1052.362" height="744.094"/><use y="134.765" x="228.967" xlink:href="#b" width="1052.362" height="744.094"/><use y="134.765" x="234.502" xlink:href="#c" width="1052.362" height="744.094"/><use y="134.765" x="237.27" xlink:href="#d" width="1052.362" height="744.094"/><use y="134.765" x="241.697" xlink:href="#e" width="1052.362" height="744.094"/><use y="134.765" x="246.679" xlink:href="#d" width="1052.362" height="744.094"/><use y="134.765" x="251.106" xlink:href="#f" width="1052.362" height="744.094"/></g><g ns0:text="Scheitel\n" ns0:preamble="/home/waldgeist/data/sphinx/inkscape-preamble.tex" transform="matrix(2.16183 0 0 2.16183 -120.944 140.852)"><defs><symbol overflow="visible" id="g"><path d="M3.484-3.875l-1.28-.297c-.626-.156-1-.687-1-1.266 0-.703.53-1.312 1.312-1.312 1.656 0 1.875 1.64 1.937 2.078.016.063.016.125.125.125.125 0 .125-.047.125-.234v-2c0-.172 0-.25-.11-.25-.062 0-.077.015-.14.14l-.36.563c-.296-.297-.702-.703-1.593-.703-1.11 0-1.938.875-1.938 1.937 0 .828.532 1.563 1.297 1.828.11.032.625.157 1.329.329.265.062.562.14.843.5.203.265.313.593.313.921 0 .704-.5 1.422-1.344 1.422-.281 0-1.047-.047-1.578-.531-.578-.547-.61-1.172-.61-1.531-.015-.11-.093-.11-.125-.11-.125 0-.125.079-.125.25v2c0 .172 0 .235.11.235.062 0 .078-.016.14-.125 0-.016.032-.047.36-.578.312.343.953.703 1.844.703 1.156 0 1.953-.969 1.953-2.078 0-.985-.657-1.813-1.485-2.016zm0 0"/></symbol><symbol overflow="visible" id="h"><path d="M1.172-2.172c0-1.625.812-2.047 1.344-2.047.093 0 .718.016 1.062.375-.406.031-.469.328-.469.453 0 .266.188.454.454.454.265 0 .468-.157.468-.47 0-.671-.765-1.062-1.531-1.062C1.25-4.469.344-3.39.344-2.156c0 1.281.984 2.265 2.14 2.265 1.329 0 1.657-1.203 1.657-1.296 0-.094-.11-.094-.141-.094-.078 0-.11.031-.125.093C3.594-.265 2.937-.14 2.578-.14c-.531 0-1.406-.421-1.406-2.03zm0 0"/></symbol><symbol overflow="visible" id="i"><path d="M1.094-.75c0 .438-.11.438-.782.438V0c.36-.016.86-.031 1.141-.031.25 0 .766.015 1.11.031v-.313c-.672 0-.782 0-.782-.437v-1.844c0-1.031.719-1.594 1.344-1.594.64 0 .75.532.75 1.11V-.75c0 .438-.11.438-.781.438V0c.344-.016.86-.031 1.125-.031.25 0 .781.015 1.11.031v-.313c-.516 0-.766 0-.766-.296v-1.907c0-.859 0-1.156-.313-1.515-.14-.172-.469-.375-1.047-.375-.844 0-1.281.593-1.453.984v-3.5l-1.438.11v.312c.704 0 .782.063.782.563zm0 0"/></symbol><symbol overflow="visible" id="j"><path d="M1.11-2.516C1.171-4 2.015-4.25 2.36-4.25c1.015 0 1.124 1.344 1.124 1.734zm0 .22h2.78c.22 0 .25 0 .25-.22 0-.984-.546-1.953-1.78-1.953C1.202-4.469.28-3.437.28-2.187.281-.86 1.328.108 2.47.108 3.688.11 4.14-1 4.14-1.187c0-.094-.079-.125-.141-.125-.078 0-.11.062-.125.14C3.531-.14 2.625-.14 2.531-.14c-.5 0-.89-.296-1.125-.671-.297-.47-.297-1.125-.297-1.485zm0 0"/></symbol><symbol overflow="visible" id="k"><path d="M1.766-4.406l-1.391.11v.312c.64 0 .734.062.734.546V-.75c0 .438-.109.438-.78.438V0c.312-.016.859-.031 1.093-.031.36 0 .703.015 1.047.031v-.313c-.672 0-.703-.046-.703-.437zm.03-1.735a.514.514 0 0 0-.515-.53.537.537 0 0 0-.531.53c0 .266.219.532.531.532a.514.514 0 0 0 .516-.532zm0 0"/></symbol><symbol overflow="visible" id="l"><path d="M1.719-3.984h1.437v-.313H1.72v-1.828h-.25c0 .813-.297 1.875-1.282 1.922v.219h.844v2.75c0 1.218.938 1.343 1.297 1.343.703 0 .985-.703.985-1.343v-.563h-.25v.547c0 .734-.297 1.11-.672 1.11-.672 0-.672-.907-.672-1.079zm0 0"/></symbol><symbol overflow="visible" id="m"><path d="M1.766-6.922l-1.438.11v.312c.703 0 .781.063.781.563V-.75c0 .438-.109.438-.78.438V0c.327-.016.859-.031 1.109-.031s.734.015 1.109.031v-.313c-.672 0-.781 0-.781-.437zm0 0"/></symbol></defs><use height="744.094" width="1052.362" xlink:href="#g" x="223.432" y="134.765"/><use height="744.094" width="1052.362" xlink:href="#h" x="228.967" y="134.765"/><g><use height="744.094" width="1052.362" xlink:href="#i" x="233.116" y="134.765"/><use height="744.094" width="1052.362" xlink:href="#j" x="238.651" y="134.765"/><use height="744.094" width="1052.362" xlink:href="#k" x="243.078" y="134.765"/><use height="744.094" width="1052.362" xlink:href="#l" x="245.846" y="134.765"/><use height="744.094" width="1052.362" xlink:href="#j" x="249.72" y="134.765"/><use height="744.094" width="1052.362" xlink:href="#m" x="254.148" y="134.765"/></g></g><g transform="matrix(2.16183 0 0 2.16183 107.512 140.852)" ns0:preamble="/home/waldgeist/data/sphinx/inkscape-preamble.tex" ns0:text="Mittelpunkt\n"><defs><symbol id="n" overflow="visible"><path d="M2.406-6.594c-.094-.218-.125-.218-.36-.218H.376v.312h.234c.766 0 .782.11.782.469v4.984c0 .266 0 .734-1.016.734V0c.344-.016.828-.031 1.156-.031.328 0 .828.015 1.172.031v-.313c-1.031 0-1.031-.468-1.031-.734v-5.375h.016L4.094-.219c.047.125.093.219.187.219.11 0 .14-.078.188-.188L6.922-6.5v5.719c0 .36-.016.469-.781.469h-.235V0c.36-.031 1.047-.031 1.438-.031.375 0 1.047 0 1.422.031v-.313h-.25c-.766 0-.782-.109-.782-.468v-5.25c0-.36.016-.469.782-.469h.25v-.313H7.078c-.266 0-.266.016-.328.188L4.562-1zm0 0"/></symbol><symbol id="o" overflow="visible"><path d="M1.766-4.406l-1.391.11v.312c.64 0 .734.062.734.546V-.75c0 .438-.109.438-.78.438V0c.312-.016.859-.031 1.093-.031.36 0 .703.015 1.047.031v-.313c-.672 0-.703-.046-.703-.437zm.03-1.735a.514.514 0 0 0-.515-.53.537.537 0 0 0-.531.53c0 .266.219.532.531.532a.514.514 0 0 0 .516-.532zm0 0"/></symbol><symbol id="p" overflow="visible"><path d="M1.719-3.984h1.437v-.313H1.72v-1.828h-.25c0 .813-.297 1.875-1.282 1.922v.219h.844v2.75c0 1.218.938 1.343 1.297 1.343.703 0 .985-.703.985-1.343v-.563h-.25v.547c0 .734-.297 1.11-.672 1.11-.672 0-.672-.907-.672-1.079zm0 0"/></symbol><symbol id="q" overflow="visible"><path d="M1.11-2.516C1.171-4 2.015-4.25 2.36-4.25c1.015 0 1.124 1.344 1.124 1.734zm0 .22h2.78c.22 0 .25 0 .25-.22 0-.984-.546-1.953-1.78-1.953C1.202-4.469.28-3.437.28-2.187.281-.86 1.328.108 2.47.108 3.688.11 4.14-1 4.14-1.187c0-.094-.079-.125-.141-.125-.078 0-.11.062-.125.14C3.531-.14 2.625-.14 2.531-.14c-.5 0-.89-.296-1.125-.671-.297-.47-.297-1.125-.297-1.485zm0 0"/></symbol><symbol id="r" overflow="visible"><path d="M1.766-6.922l-1.438.11v.312c.703 0 .781.063.781.563V-.75c0 .438-.109.438-.78.438V0c.327-.016.859-.031 1.109-.031s.734.015 1.109.031v-.313c-.672 0-.781 0-.781-.437zm0 0"/></symbol><symbol id="s" overflow="visible"><path d="M1.719-3.75v-.656l-1.438.11v.312c.703 0 .781.062.781.5v4.656c0 .453-.109.453-.78.453v.313c.343-.016.859-.032 1.109-.032.28 0 .78.016 1.125.032v-.313c-.657 0-.766 0-.766-.453V-.594c.047.172.469.703 1.219.703 1.187 0 2.219-.984 2.219-2.265 0-1.266-.954-2.25-2.079-2.25-.78 0-1.203.437-1.39.656zm.031 2.61v-2.22c.281-.515.766-.796 1.281-.796.735 0 1.328.875 1.328 2C4.36-.953 3.672-.11 2.938-.11c-.407 0-.782-.204-1.047-.61-.141-.203-.141-.219-.141-.422zm0 0"/></symbol><symbol id="t" overflow="visible"><path d="M3.89-.781v.89L5.329 0v-.313c-.687 0-.766-.062-.766-.562v-3.531l-1.468.11v.312c.687 0 .781.062.781.562v1.766c0 .875-.484 1.547-1.219 1.547-.828 0-.875-.47-.875-.985v-3.312l-1.468.11v.312c.78 0 .78.03.78.906v1.5c0 .781 0 1.687 1.516 1.687.563 0 1-.28 1.282-.89zm0 0"/></symbol><symbol id="u" overflow="visible"><path d="M1.094-3.422V-.75c0 .438-.11.438-.782.438V0c.36-.016.86-.031 1.141-.031.25 0 .766.015 1.11.031v-.313c-.672 0-.782 0-.782-.437v-1.844c0-1.031.719-1.594 1.344-1.594.64 0 .75.532.75 1.11V-.75c0 .438-.11.438-.781.438V0c.344-.016.86-.031 1.125-.031.25 0 .781.015 1.11.031v-.313c-.516 0-.766 0-.766-.296v-1.907c0-.859 0-1.156-.313-1.515-.14-.172-.469-.375-1.047-.375-.734 0-1.203.422-1.484 1.047v-1.047l-1.407.11v.312c.704 0 .782.062.782.562zm0 0"/></symbol><symbol id="v" overflow="visible"><path d="M1.063-.75c0 .438-.11.438-.782.438V0c.328-.016.797-.031 1.078-.031.313 0 .704.015 1.11.031v-.313c-.672 0-.781 0-.781-.437v-1.031l.64-.547c.766 1.047 1.188 1.61 1.188 1.797 0 .187-.172.219-.36.219V0c.266-.016.86-.031 1.078-.031.282 0 .579.015.86.031v-.313c-.375 0-.594 0-.969-.53L2.859-2.626c-.015-.016-.062-.078-.062-.11 0-.03.719-.64.812-.718.625-.5 1.047-.531 1.25-.531v-.313c-.28.031-.406.031-.687.031-.36 0-.984-.015-1.125-.03v.312c.187 0 .297.109.297.25 0 .203-.14.312-.219.39L1.719-2.14v-4.78L.28-6.813v.312c.703 0 .781.063.781.563zm0 0"/></symbol></defs><use y="134.765" x="223.432" xlink:href="#n" width="1052.362" height="744.094"/><use y="134.765" x="232.565" xlink:href="#o" width="1052.362" height="744.094"/><use y="134.765" x="235.332" xlink:href="#p" width="1052.362" height="744.094"/><use y="134.765" x="239.207" xlink:href="#p" width="1052.362" height="744.094"/><use y="134.765" x="243.081" xlink:href="#q" width="1052.362" height="744.094"/><use y="134.765" x="247.509" xlink:href="#r" width="1052.362" height="744.094"/><use y="134.765" x="250.276" xlink:href="#s" width="1052.362" height="744.094"/><use y="134.765" x="255.811" xlink:href="#t" width="1052.362" height="744.094"/><use y="134.765" x="261.347" xlink:href="#u" width="1052.362" height="744.094"/><use y="134.765" x="266.882" xlink:href="#v" width="1052.362" height="744.094"/><use y="134.765" x="272.14" xlink:href="#p" width="1052.362" height="744.094"/></g><g ns0:text="\\centering Brennpunkt \\\\ (Fokus)" ns0:preamble="/home/waldgeist/data/sphinx/inkscape-preamble.tex" transform="matrix(2.16183 0 0 2.16183 -331.423 140.852)"><defs><symbol overflow="visible" id="w"><path d="M2.219-3.656v-2.438c0-.343.015-.406.484-.406h1.235c.968 0 1.312.844 1.312 1.375 0 .64-.484 1.469-1.594 1.469zm2.344.094c.968-.188 1.656-.829 1.656-1.563 0-.86-.922-1.688-2.219-1.688H.36v.313h.234c.765 0 .797.11.797.469v5.25c0 .36-.032.469-.797.469H.359V0h3.907c1.328 0 2.218-.89 2.218-1.828 0-.86-.812-1.61-1.921-1.734zm-.61 3.25h-1.25c-.469 0-.484-.063-.484-.391v-2.719h1.875c.984 0 1.406.922 1.406 1.594 0 .703-.531 1.516-1.547 1.516zm0 0"/></symbol><symbol overflow="visible" id="x"><path d="M1.672-3.313v-1.093l-1.39.11v.312c.702 0 .78.062.78.562V-.75c0 .438-.109.438-.78.438V0c.39-.016.859-.031 1.14-.031.39 0 .86 0 1.266.031v-.313h-.22c-.734 0-.75-.109-.75-.468v-1.531c0-.985.423-1.876 1.173-1.876.062 0 .093 0 .109.016-.031 0-.234.125-.234.39 0 .266.218.423.437.423a.421.421 0 0 0 .422-.438c0-.312-.313-.61-.734-.61-.735 0-1.094.673-1.22 1.095zm0 0"/></symbol><symbol overflow="visible" id="y"><path d="M1.11-2.516C1.171-4 2.015-4.25 2.36-4.25c1.015 0 1.124 1.344 1.124 1.734zm0 .22h2.78c.22 0 .25 0 .25-.22 0-.984-.546-1.953-1.78-1.953C1.202-4.469.28-3.437.28-2.187.281-.86 1.328.108 2.47.108 3.688.11 4.14-1 4.14-1.187c0-.094-.079-.125-.141-.125-.078 0-.11.062-.125.14C3.531-.14 2.625-.14 2.531-.14c-.5 0-.89-.296-1.125-.671-.297-.47-.297-1.125-.297-1.485zm0 0"/></symbol><symbol overflow="visible" id="z"><path d="M1.094-3.422V-.75c0 .438-.11.438-.782.438V0c.36-.016.86-.031 1.141-.031.25 0 .766.015 1.11.031v-.313c-.672 0-.782 0-.782-.437v-1.844c0-1.031.719-1.594 1.344-1.594.64 0 .75.532.75 1.11V-.75c0 .438-.11.438-.781.438V0c.344-.016.86-.031 1.125-.031.25 0 .781.015 1.11.031v-.313c-.516 0-.766 0-.766-.296v-1.907c0-.859 0-1.156-.313-1.515-.14-.172-.469-.375-1.047-.375-.734 0-1.203.422-1.484 1.047v-1.047l-1.407.11v.312c.704 0 .782.062.782.562zm0 0"/></symbol><symbol overflow="visible" id="A"><path d="M1.719-3.75v-.656l-1.438.11v.312c.703 0 .781.062.781.5v4.656c0 .453-.109.453-.78.453v.313c.343-.016.859-.032 1.109-.032.28 0 .78.016 1.125.032v-.313c-.657 0-.766 0-.766-.453V-.594c.047.172.469.703 1.219.703 1.187 0 2.219-.984 2.219-2.265 0-1.266-.954-2.25-2.079-2.25-.78 0-1.203.437-1.39.656zm.031 2.61v-2.22c.281-.515.766-.796 1.281-.796.735 0 1.328.875 1.328 2C4.36-.953 3.672-.11 2.938-.11c-.407 0-.782-.204-1.047-.61-.141-.203-.141-.219-.141-.422zm0 0"/></symbol><symbol overflow="visible" id="B"><path d="M3.89-.781v.89L5.329 0v-.313c-.687 0-.766-.062-.766-.562v-3.531l-1.468.11v.312c.687 0 .781.062.781.562v1.766c0 .875-.484 1.547-1.219 1.547-.828 0-.875-.47-.875-.985v-3.312l-1.468.11v.312c.78 0 .78.03.78.906v1.5c0 .781 0 1.687 1.516 1.687.563 0 1-.28 1.282-.89zm0 0"/></symbol><symbol overflow="visible" id="C"><path d="M1.063-.75c0 .438-.11.438-.782.438V0c.328-.016.797-.031 1.078-.031.313 0 .704.015 1.11.031v-.313c-.672 0-.781 0-.781-.437v-1.031l.64-.547c.766 1.047 1.188 1.61 1.188 1.797 0 .187-.172.219-.36.219V0c.266-.016.86-.031 1.078-.031.282 0 .579.015.86.031v-.313c-.375 0-.594 0-.969-.53L2.859-2.626c-.015-.016-.062-.078-.062-.11 0-.03.719-.64.812-.718.625-.5 1.047-.531 1.25-.531v-.313c-.28.031-.406.031-.687.031-.36 0-.984-.015-1.125-.03v.312c.187 0 .297.109.297.25 0 .203-.14.312-.219.39L1.719-2.14v-4.78L.28-6.813v.312c.703 0 .781.063.781.563zm0 0"/></symbol><symbol overflow="visible" id="D"><path d="M1.719-3.984h1.437v-.313H1.72v-1.828h-.25c0 .813-.297 1.875-1.282 1.922v.219h.844v2.75c0 1.218.938 1.343 1.297 1.343.703 0 .985-.703.985-1.343v-.563h-.25v.547c0 .734-.297 1.11-.672 1.11-.672 0-.672-.907-.672-1.079zm0 0"/></symbol><symbol overflow="visible" id="E"><path d="M3.297 2.39c0-.03 0-.046-.172-.218C1.891.922 1.562-.968 1.562-2.5c0-1.734.375-3.469 1.61-4.703.125-.125.125-.14.125-.172 0-.078-.031-.11-.094-.11-.11 0-1 .688-1.594 1.954C1.11-4.438.984-3.328.984-2.5c0 .781.11 1.984.657 3.125C2.25 1.844 3.094 2.5 3.203 2.5c.063 0 .094-.031.094-.11zm0 0"/></symbol><symbol overflow="visible" id="F"><path d="M5.797-6.781H.328v.312h.234c.766 0 .797.11.797.469v5.219c0 .36-.03.469-.796.469H.328V0c.344-.031 1.125-.031 1.516-.031.406 0 1.312 0 1.672.031v-.313h-.329c-.937 0-.937-.124-.937-.468v-2.453h.844c.969 0 1.062.312 1.062 1.156h.25v-2.64h-.25c0 .843-.093 1.171-1.062 1.171H2.25v-2.531c0-.328.016-.39.484-.39h1.188c1.5 0 1.75.562 1.906 1.937h.25zm0 0"/></symbol><symbol overflow="visible" id="G"><path d="M4.688-2.14c0-1.266-.985-2.329-2.188-2.329C1.25-4.469.281-3.375.281-2.14A2.22 2.22 0 0 0 2.484.11c1.204 0 2.204-.984 2.204-2.25zM2.5-.14c-.438 0-.875-.204-1.14-.672-.25-.438-.25-1.047-.25-1.407 0-.39 0-.922.234-1.36a1.347 1.347 0 0 1 1.14-.671c.438 0 .86.219 1.125.656.266.422.266 1 .266 1.375 0 .36 0 .906-.219 1.344-.234.453-.672.734-1.156.734zm0 0"/></symbol><symbol overflow="visible" id="H"><path d="M2.078-1.938c.219.047 1.031.204 1.031.922 0 .5-.343.907-1.125.907-.843 0-1.203-.563-1.39-1.422-.031-.125-.031-.157-.14-.157-.126 0-.126.063-.126.235v1.328c0 .172 0 .234.11.234C.483.11.5.094.688-.094.703-.109.703-.125.89-.312c.437.406.89.421 1.093.421 1.141 0 1.61-.671 1.61-1.39 0-.516-.297-.828-.422-.938-.328-.328-.719-.406-1.14-.484-.563-.11-1.22-.235-1.22-.813 0-.359.25-.765 1.11-.765 1.094 0 1.156.906 1.172 1.203 0 .094.094.094.11.094.14 0 .14-.047.14-.235v-1.015c0-.157 0-.235-.11-.235-.046 0-.078 0-.203.125-.031.032-.125.125-.172.157-.375-.282-.78-.282-.937-.282-1.219 0-1.594.672-1.594 1.235 0 .343.156.625.422.843.328.25.61.313 1.328.454zm0 0"/></symbol><symbol overflow="visible" id="I"><path d="M2.875-2.5c0-.766-.11-1.969-.656-3.11C1.625-6.827.766-7.483.672-7.483a.107.107 0 0 0-.11.109c0 .031 0 .047.188.234.984.985 1.547 2.563 1.547 4.641 0 1.719-.36 3.469-1.594 4.719-.14.125-.14.14-.14.172 0 .062.046.109.109.109.094 0 1-.688 1.578-1.953.516-1.094.625-2.203.625-3.047zm0 0"/></symbol></defs><use height="744.094" width="1052.362" xlink:href="#w" x="369.191" y="134.765"/><use height="744.094" width="1052.362" xlink:href="#x" x="376.248" y="134.765"/><use height="744.094" width="1052.362" xlink:href="#y" x="380.15" y="134.765"/><use height="744.094" width="1052.362" xlink:href="#z" x="384.577" y="134.765"/><use height="744.094" width="1052.362" xlink:href="#z" x="390.112" y="134.765"/><use height="744.094" width="1052.362" xlink:href="#A" x="395.648" y="134.765"/><use height="744.094" width="1052.362" xlink:href="#B" x="401.183" y="134.765"/><use height="744.094" width="1052.362" xlink:href="#z" x="406.718" y="134.765"/><use height="744.094" width="1052.362" xlink:href="#C" x="412.253" y="134.765"/><use height="744.094" width="1052.362" xlink:href="#D" x="417.512" y="134.765"/><g><use height="744.094" width="1052.362" xlink:href="#E" x="378.725" y="146.72"/><use height="744.094" width="1052.362" xlink:href="#F" x="382.599" y="146.72"/></g><g><use height="744.094" width="1052.362" xlink:href="#G" x="388.276" y="146.72"/><use height="744.094" width="1052.362" xlink:href="#C" x="393.257" y="146.72"/><use height="744.094" width="1052.362" xlink:href="#B" x="398.516" y="146.72"/><use height="744.094" width="1052.362" xlink:href="#H" x="404.051" y="146.72"/><use height="744.094" width="1052.362" xlink:href="#I" x="407.98" y="146.72"/></g></g><g transform="matrix(2.69332 0 0 2.69332 33.087 38.848)" ns0:preamble="/home/waldgeist/data/sphinx/inkscape-preamble.tex" ns0:text="$\\rm{M}$"><defs><symbol id="J" overflow="visible"><path d="M2.406-6.594c-.094-.218-.125-.218-.36-.218H.376v.312h.234c.766 0 .782.11.782.469v4.984c0 .266 0 .734-1.016.734V0c.344-.016.828-.031 1.156-.031.328 0 .828.015 1.172.031v-.313c-1.031 0-1.031-.468-1.031-.734v-5.375h.016L4.094-.219c.047.125.093.219.187.219.11 0 .14-.078.188-.188L6.922-6.5v5.719c0 .36-.016.469-.781.469h-.235V0c.36-.031 1.047-.031 1.438-.031.375 0 1.047 0 1.422.031v-.313h-.25c-.766 0-.782-.109-.782-.468v-5.25c0-.36.016-.469.782-.469h.25v-.313H7.078c-.266 0-.266.016-.328.188L4.562-1z"/></symbol></defs><use y="134.765" x="223.432" xlink:href="#J" width="1052.362" height="744.094"/></g><g ns0:text="$\\rm{F}$" ns0:preamble="/home/waldgeist/data/sphinx/inkscape-preamble.tex" transform="matrix(2.69332 0 0 2.69332 -87.495 38.848)"><defs><symbol overflow="visible" id="K"><path d="M5.797-6.781H.328v.312h.234c.766 0 .797.11.797.469v5.219c0 .36-.03.469-.796.469H.328V0c.344-.031 1.125-.031 1.516-.031.406 0 1.312 0 1.672.031v-.313h-.329c-.937 0-.937-.124-.937-.468v-2.453h.844c.969 0 1.062.312 1.062 1.156h.25v-2.64h-.25c0 .843-.093 1.171-1.062 1.171H2.25v-2.531c0-.328.016-.39.484-.39h1.188c1.5 0 1.75.562 1.906 1.937h.25z"/></symbol></defs><use height="744.094" width="1052.362" xlink:href="#K" x="223.432" y="134.765"/></g><g transform="matrix(2.69332 0 0 2.69332 -210.582 38.848)" ns0:preamble="/home/waldgeist/data/sphinx/inkscape-preamble.tex" ns0:text="$\\rm{S}$"><defs><symbol id="L" overflow="visible"><path d="M3.484-3.875l-1.28-.297c-.626-.156-1-.687-1-1.266 0-.703.53-1.312 1.312-1.312 1.656 0 1.875 1.64 1.937 2.078.016.063.016.125.125.125.125 0 .125-.047.125-.234v-2c0-.172 0-.25-.11-.25-.062 0-.077.015-.14.14l-.36.563c-.296-.297-.702-.703-1.593-.703-1.11 0-1.938.875-1.938 1.937 0 .828.532 1.563 1.297 1.828.11.032.625.157 1.329.329.265.062.562.14.843.5.203.265.313.593.313.921 0 .704-.5 1.422-1.344 1.422-.281 0-1.047-.047-1.578-.531-.578-.547-.61-1.172-.61-1.531-.015-.11-.093-.11-.125-.11-.125 0-.125.079-.125.25v2c0 .172 0 .235.11.235.062 0 .078-.016.14-.125 0-.016.032-.047.36-.578.312.343.953.703 1.844.703 1.156 0 1.953-.969 1.953-2.078 0-.985-.657-1.813-1.485-2.016z"/></symbol></defs><use y="134.765" x="223.432" xlink:href="#L" width="1052.362" height="744.094"/></g><use height="744.094" width="1052.362" xlink:href="#K" x="223.432" y="134.765" transform="matrix(2.69332 0 0 2.69332 -336.024 38.848)" ns0:text="$\\rm{F}$" ns0:preamble="/home/waldgeist/data/sphinx/inkscape-preamble.tex"/><use y="134.765" x="223.432" xlink:href="#J" width="1052.362" height="744.094" transform="matrix(2.69332 0 0 2.69332 -463.97 38.848)" ns0:preamble="/home/waldgeist/data/sphinx/inkscape-preamble.tex" ns0:text="$\\rm{M}$"/></svg>