<svg xmlns="http://www.w3.org/2000/svg" xmlns:xlink="http://www.w3.org/1999/xlink" height="1052.362" width="744.094"><title>Gradmesser (Vorlage)</title><path d="M389.273 526.181a17.226 17.226 0 1 1-34.452 0 17.226 17.226 0 1 1 34.452 0z" style="marker:none" color="#000" fill="none" stroke="#ccc" stroke-width="2.0001852" stroke-linecap="round" stroke-linejoin="round" overflow="visible"/><path style="marker:none" d="M625.937 526.181c0 90.706-48.391 174.522-126.945 219.875-78.554 45.353-175.336 45.353-253.89 0-78.553-45.353-126.944-129.169-126.944-219.875 0-90.706 48.39-174.522 126.945-219.875 78.553-45.353 175.335-45.353 253.889 0s126.945 129.17 126.945 219.875" color="#000" fill="#fff" stroke="#fff" stroke-linecap="round" stroke-linejoin="round" overflow="visible"/><path style="marker:none" color="#000" fill="#fff" stroke="#fff" stroke-width="2" stroke-linecap="round" stroke-linejoin="round" overflow="visible" d="M10.231 174.374h723.633v703.614H10.231z"/><path style="marker:none" d="M688.925 526.181c0 113.21-60.396 217.82-158.439 274.424-98.042 56.605-218.835 56.605-316.878 0C115.566 744.001 55.17 639.391 55.17 526.182c0-113.21 60.397-217.82 158.44-274.424 98.042-56.605 218.835-56.605 316.877 0 98.043 56.604 158.44 161.214 158.44 274.424" color="#000" fill="none" stroke="#fff" stroke-linecap="round" stroke-linejoin="round" overflow="visible"/><path d="M708.661 526.181c0 120.26-64.158 231.386-168.307 291.517-104.148 60.13-232.465 60.13-336.614 0C99.591 757.568 35.433 646.442 35.433 526.18c0-120.26 64.158-231.386 168.307-291.516 104.149-60.13 232.466-60.13 336.614 0 104.15 60.13 168.307 171.255 168.307 291.516" id="c" style="marker:none" color="#000" fill="none" stroke="#000" stroke-linecap="round" stroke-linejoin="round" overflow="visible"/><g stroke-linecap="round" fill="none" stroke="#ccc" stroke-width="1.371"><path d="M372.047 307.725v436.912M153.592 526.181h436.91M262.82 336.993l218.455 378.376M182.86 416.953L561.234 635.41M182.86 635.409l378.375-218.456M262.82 715.37l218.455-378.377" stroke-width=".7497313499999999"/></g><path id="a" d="M372.047 236.227v81.196" fill="none" stroke="#000" stroke-width="6" stroke-linecap="round"/><use xlink:href="#a" transform="rotate(90 372.047 526.181)" width="744.094" height="1052.362"/><use xlink:href="#a" transform="rotate(-90 372.047 526.181)" width="744.094" height="1052.362"/><use xlink:href="#a" transform="rotate(180 372.047 526.181)" width="744.094" height="1052.362"/><path d="M372.047 236.227v81.196" id="b" fill="none" stroke="#000" stroke-width="2" stroke-linecap="round"/><use xlink:href="#b" transform="rotate(10 372.047 526.181)" width="744.094" height="1052.362"/><use xlink:href="#c" transform="rotate(20 372.047 526.181)" width="744.094" height="1052.362"/><use xlink:href="#b" transform="rotate(20 372.047 526.181)" width="744.094" height="1052.362"/><use xlink:href="#b" transform="rotate(30 372.047 526.181)" width="744.094" height="1052.362"/><use xlink:href="#b" transform="rotate(40 372.047 526.181)" width="744.094" height="1052.362"/><use xlink:href="#b" transform="rotate(50 372.047 526.181)" width="744.094" height="1052.362"/><g id="e" transform="matrix(1.28217 0 0 1.28217 -104.979 -148.47)"><path id="d" d="M372.047 269.648v15.393" fill="none" stroke="#000" stroke-width=".78" stroke-linecap="round"/><use height="1052.362" width="744.094" transform="rotate(1 372.547 526.181)" xlink:href="#d"/><use height="1052.362" width="744.094" transform="rotate(2 372.547 526.181)" xlink:href="#d"/><use height="1052.362" width="744.094" transform="rotate(3 372.547 526.181)" xlink:href="#d"/><use height="1052.362" width="744.094" transform="rotate(4 372.547 526.181)" xlink:href="#d"/><use height="1052.362" width="744.094" transform="rotate(5 372.547 526.181)" xlink:href="#d"/><use height="1052.362" width="744.094" transform="rotate(6 372.547 526.181)" xlink:href="#d"/><use height="1052.362" width="744.094" transform="rotate(7 372.547 526.181)" xlink:href="#d"/><use height="1052.362" width="744.094" transform="rotate(8 372.547 526.181)" xlink:href="#d"/><use height="1052.362" width="744.094" transform="rotate(9 372.547 526.181)" xlink:href="#d"/></g><use xlink:href="#b" transform="rotate(-10 372.047 526.181)" width="744.094" height="1052.362"/><use xlink:href="#b" transform="rotate(-20 372.047 526.181)" width="744.094" height="1052.362"/><use xlink:href="#b" transform="rotate(-30 372.047 526.181)" width="744.094" height="1052.362"/><use xlink:href="#b" transform="rotate(-40 372.047 526.181)" width="744.094" height="1052.362"/><use xlink:href="#b" transform="rotate(-50 372.047 526.181)" width="744.094" height="1052.362"/><use xlink:href="#b" transform="rotate(-60 372.047 526.181)" width="744.094" height="1052.362"/><use xlink:href="#b" transform="rotate(-70 372.047 526.181)" width="744.094" height="1052.362"/><use xlink:href="#b" transform="rotate(-80 372.047 526.181)" width="744.094" height="1052.362"/><use xlink:href="#b" transform="rotate(-100 372.047 526.181)" width="744.094" height="1052.362"/><use xlink:href="#b" transform="rotate(-110 372.047 526.181)" width="744.094" height="1052.362"/><use xlink:href="#b" transform="rotate(-120 372.047 526.181)" width="744.094" height="1052.362"/><use xlink:href="#b" transform="rotate(-130 372.047 526.181)" width="744.094" height="1052.362"/><use xlink:href="#e" transform="rotate(10 372.047 526.181)" width="744.094" height="1052.362"/><use xlink:href="#e" transform="rotate(20 372.047 526.181)" width="744.094" height="1052.362"/><use xlink:href="#e" transform="rotate(30 372.047 526.181)" width="744.094" height="1052.362"/><use xlink:href="#e" transform="rotate(40 372.047 526.181)" width="744.094" height="1052.362"/><use xlink:href="#e" transform="rotate(50 372.047 526.181)" width="744.094" height="1052.362"/><use xlink:href="#e" transform="rotate(60 372.047 526.181)" width="744.094" height="1052.362"/><use xlink:href="#b" transform="rotate(60 372.047 526.181)" width="744.094" height="1052.362"/><use xlink:href="#b" transform="rotate(70 372.047 526.181)" width="744.094" height="1052.362"/><use xlink:href="#b" transform="rotate(80 372.047 526.181)" width="744.094" height="1052.362"/><use xlink:href="#b" transform="rotate(90 372.047 526.181)" width="744.094" height="1052.362"/><use xlink:href="#b" transform="rotate(-90 372.047 526.181)" width="744.094" height="1052.362"/><use xlink:href="#a" transform="rotate(-30 372.047 526.181)" width="744.094" height="1052.362"/><use xlink:href="#b" transform="rotate(-179.992 372.047 526.181)" width="744.094" height="1052.362"/><use xlink:href="#b" transform="rotate(100 372.047 526.181)" width="744.094" height="1052.362"/><use xlink:href="#b" transform="rotate(110 372.047 526.181)" width="744.094" height="1052.362"/><use xlink:href="#b" transform="rotate(170 372.047 526.181)" width="744.094" height="1052.362"/><use xlink:href="#b" transform="rotate(120 372.047 526.181)" width="744.094" height="1052.362"/><use xlink:href="#b" transform="rotate(130 372.047 526.181)" width="744.094" height="1052.362"/><use xlink:href="#e" transform="rotate(70 372.047 526.181)" width="744.094" height="1052.362"/><use xlink:href="#e" transform="rotate(80 372.047 526.181)" width="744.094" height="1052.362"/><use xlink:href="#e" transform="rotate(90 372.047 526.181)" width="744.094" height="1052.362"/><use xlink:href="#e" transform="rotate(100 372.047 526.181)" width="744.094" height="1052.362"/><use xlink:href="#e" transform="rotate(110 372.047 526.181)" width="744.094" height="1052.362"/><use xlink:href="#e" transform="rotate(120 372.047 526.181)" width="744.094" height="1052.362"/><use xlink:href="#e" transform="rotate(-10 372.047 526.181)" width="744.094" height="1052.362"/><use xlink:href="#e" transform="rotate(-20 372.047 526.181)" width="744.094" height="1052.362"/><use xlink:href="#e" transform="rotate(-30 372.047 526.181)" width="744.094" height="1052.362"/><use xlink:href="#e" transform="rotate(-40 372.047 526.181)" width="744.094" height="1052.362"/><use xlink:href="#e" transform="rotate(-50 372.047 526.181)" width="744.094" height="1052.362"/><use xlink:href="#e" transform="rotate(-60 372.047 526.181)" width="744.094" height="1052.362"/><use xlink:href="#e" transform="rotate(-70 372.047 526.181)" width="744.094" height="1052.362"/><use xlink:href="#e" transform="rotate(-80 372.047 526.181)" width="744.094" height="1052.362"/><use xlink:href="#e" transform="rotate(-100 372.047 526.181)" width="744.094" height="1052.362"/><use xlink:href="#e" transform="rotate(-90 372.047 526.181)" width="744.094" height="1052.362"/><use xlink:href="#e" transform="rotate(179.992 372.047 526.181)" width="744.094" height="1052.362"/><use xlink:href="#e" transform="rotate(-110 372.047 526.181)" width="744.094" height="1052.362"/><use xlink:href="#e" transform="rotate(-150 372.047 526.181)" width="744.094" height="1052.362"/><use xlink:href="#e" transform="rotate(-130 372.047 526.181)" width="744.094" height="1052.362"/><use xlink:href="#e" transform="rotate(-170 372.047 526.181)" width="744.094" height="1052.362"/><use xlink:href="#e" transform="rotate(-120 372.047 526.181)" width="744.094" height="1052.362"/><use xlink:href="#b" transform="rotate(-170 372.047 526.181)" width="744.094" height="1052.362"/><use xlink:href="#b" transform="rotate(-150 372.047 526.181)" width="744.094" height="1052.362"/><use xlink:href="#b" transform="rotate(-140 372.047 526.181)" width="744.094" height="1052.362"/><use xlink:href="#b" transform="rotate(-160 372.047 526.181)" width="744.094" height="1052.362"/><use xlink:href="#e" transform="rotate(-160 372.047 526.181)" width="744.094" height="1052.362"/><use xlink:href="#e" transform="rotate(-140 372.047 526.181)" width="744.094" height="1052.362"/><use xlink:href="#b" transform="rotate(160 372.047 526.181)" width="744.094" height="1052.362"/><use xlink:href="#b" transform="rotate(150 372.047 526.181)" width="744.094" height="1052.362"/><use xlink:href="#b" transform="rotate(140 372.047 526.181)" width="744.094" height="1052.362"/><use xlink:href="#e" transform="rotate(170 372.047 526.181)" width="744.094" height="1052.362"/><use xlink:href="#e" transform="rotate(130 372.047 526.181)" width="744.094" height="1052.362"/><use xlink:href="#e" transform="rotate(140 372.047 526.181)" width="744.094" height="1052.362"/><use xlink:href="#e" transform="rotate(150 372.047 526.181)" width="744.094" height="1052.362"/><use xlink:href="#e" transform="rotate(160 372.047 526.181)" width="744.094" height="1052.362"/><use height="1052.362" width="744.094" transform="rotate(-60 372.047 526.181)" xlink:href="#a"/><use height="1052.362" width="744.094" transform="rotate(-120 372.047 526.181)" xlink:href="#a"/><use height="1052.362" width="744.094" transform="rotate(-150 372.047 526.181)" xlink:href="#a"/><use height="1052.362" width="744.094" transform="rotate(150 372.047 526.181)" xlink:href="#a"/><use height="1052.362" width="744.094" transform="rotate(120 372.047 526.181)" xlink:href="#a"/><use height="1052.362" width="744.094" transform="rotate(60 372.047 526.181)" xlink:href="#a"/><use height="1052.362" width="744.094" transform="rotate(30 372.047 526.181)" xlink:href="#a"/></svg>