<svg xmlns:ns0="http://www.iki.fi/pav/software/textext/" xmlns="http://www.w3.org/2000/svg" xmlns:xlink="http://www.w3.org/1999/xlink" width="210mm" height="297mm"><title>Lichtbeugung am Doppelspalt (Winkelbeziehung 2)</title><defs><marker orient="auto" id="g" overflow="visible"><path d="M8.719 4.034L-2.207.016 8.719-4.002c-1.746 2.372-1.736 5.618 0 8.036z" transform="rotate(180) scale(.6)" fill-rule="evenodd" stroke-width=".625" stroke-linejoin="round"/></marker><marker id="e" orient="auto" overflow="visible"><path transform="scale(.6)" d="M8.719 4.034L-2.207.016 8.719-4.002c-1.746 2.372-1.736 5.618 0 8.036z" fill-rule="evenodd" stroke-width=".625" stroke-linejoin="round"/></marker><marker id="c" orient="auto" overflow="visible"><path d="M-4 0l-2 2 7-2-7-2 2 2z" fill-rule="evenodd" stroke="#000" stroke-width=".4pt"/></marker><marker id="a" orient="auto" overflow="visible"><path transform="scale(-.6)" d="M8.719 4.034L-2.207.016 8.719-4.002c-1.746 2.372-1.736 5.618 0 8.036z" font-size="12" fill-rule="evenodd" stroke-width=".625" stroke-linejoin="round"/></marker><marker orient="auto" id="b" overflow="visible"><path d="M4 0l2-2-7 2 7 2-2-2z" fill-rule="evenodd" stroke="#000" stroke-width=".4pt"/></marker><marker orient="auto" id="f" overflow="visible"><path d="M8.719 4.034L-2.207.016 8.719-4.002c-1.746 2.372-1.736 5.618 0 8.036z" transform="scale(-.6)" fill-rule="evenodd" stroke-width=".625" stroke-linejoin="round"/></marker></defs><path style="marker:none" color="#000" fill="#fff" stroke="#fff" stroke-linecap="round" stroke-linejoin="round" stroke-dasharray=".99999995,1.99999993" overflow="visible" d="M16.413 321.186h702.381v409.99H16.413z"/><path style="marker:none" color="#000" fill="#f9f9f9" stroke="#f9f9f9" stroke-width=".427" stroke-linecap="round" stroke-dasharray="1.28196473,2.5639295" overflow="visible" d="M41.713 337.809h660.668v376.744H41.713z"/><path d="M258.831 346.27v40.412l-8.594 28.21V346.27z" fill="gray" stroke="#000" stroke-linecap="round" stroke-linejoin="round"/><path d="M251.52 631.785h276.37" fill="none" stroke="gray" stroke-dasharray=".87830783,1.7566156"/><path d="M253.943 420.578a2.423 2.423 0 1 1-4.847 0 2.423 2.423 0 1 1 4.847 0zM253.943 631.785a2.423 2.423 0 1 1-4.847 0 2.423 2.423 0 1 1 4.847 0z" stroke="#000" stroke-width="1.53544106" stroke-linecap="round"/><path d="M251.52 420.578l139.602-57.825" fill="none" stroke="#f60" stroke-width="1.5" stroke-linecap="round" marker-end="url(#a)"/><path d="M251.52 420.578l74.673 180.276" fill="none" stroke="gray" stroke-width="1.5" stroke-linecap="round" stroke-linejoin="round"/><path d="M313.208 606.232a14.054 14.054 0 0 1 7.606-18.362" style="marker:none" color="#000" fill="none" stroke="#4d4d4d" stroke-width="1.5" stroke-linecap="round" stroke-linejoin="round" overflow="visible"/><path d="M251.52 631.785l214.275-88.756" fill="none" stroke="#f60" stroke-width="1.5" stroke-linecap="round" marker-end="url(#a)"/><path d="M318.83 597.746a.243.243 0 1 1-.485 0 .243.243 0 1 1 .485 0z" fill="#4d4d4d" stroke="#4d4d4d" stroke-width="1.53225828" stroke-linecap="round" stroke-linejoin="round"/><path d="M229.381 422.578l.314 206.556" fill="none" stroke="#4d4d4d" stroke-width="1.5" marker-start="url(#b)" marker-end="url(#c)"/><path style="marker:none" color="#000" fill="#f9f9f9" stroke="#f9f9f9" stroke-width="1.5" stroke-linecap="round" stroke-linejoin="round" overflow="visible" d="M216.455 509.963h21.909v32.325h-21.909z"/><g transform="translate(-332.24 199.295) scale(2.48807)" ns0:preamble="/home/waldgeist/data/sphinx/inkscape-preamble.tex" ns0:text="$b$"><defs><symbol id="d" overflow="visible"><path d="M2.375-6.813s0-.109-.125-.109c-.219 0-.953.078-1.219.11-.078 0-.187.015-.187.187 0 .125.094.125.25.125.468 0 .484.063.484.172 0 .062-.078.406-.125.61l-.828 3.25c-.11.5-.156.671-.156 1.015C.469-.516 1 .109 1.734.109c1.172 0 2.407-1.484 2.407-2.921 0-.907-.532-1.594-1.329-1.594-.453 0-.874.297-1.171.593zm-.922 3.766c.047-.219.047-.234.14-.344.485-.64.938-.796 1.204-.796.36 0 .625.296.625.937 0 .594-.328 1.734-.516 2.11-.328.671-.781 1.03-1.172 1.03-.343 0-.671-.265-.671-1 0-.202 0-.39.156-1.015z"/></symbol></defs><use y="134.765" x="223.432" xlink:href="#d" width="744.094" height="1052.362"/></g><path d="M330.35 615.747l-72.567 30.397" fill="none" stroke="#4d4d4d" stroke-width="1.5" marker-start="url(#e)" marker-end="url(#f)"/><path style="marker:none" color="#000" fill="#f9f9f9" stroke="#f9f9f9" stroke-width="1.5" stroke-linecap="round" stroke-linejoin="round" overflow="visible" d="M307.629 623.268l5.67 21.163-31.223 8.366-5.67-21.163z"/><g ns0:preamble="/home/waldgeist/data/sphinx/inkscape-preamble.tex" ns0:text="$\\Delta s$"><path d="M284.402 624.725c-.278-.264-.394-.342-.79-.178-.359.149-.386.286-.396.669l-1.33 18.73c-.02.26-.004.296.01.332.075.18.219.12.578-.03l15.911-6.59c.36-.149.503-.208.428-.388-.014-.036-.03-.071-.226-.242zm-.556 2.418l11.31 9.833-12.355 5.117zM305.365 624.71c-.596.29-.855.985-.646 1.488.134.323.498.593 1 .385.503-.208.879-.827.507-1.724-.432-1.042-1.788-1.574-3.548-.845-3.017 1.25-2.912 3.941-2.496 4.947.744 1.796 2.566 1.42 3.308 1.28 1.29-.239 2.579-.478 3.1.779.238.574.538 2.722-2.227 3.868-.324.134-2.084.863-3.128-.135.942-.265 1.234-1.185.967-1.832-.209-.502-.723-.626-1.19-.433-.61.253-1.1 1.003-.668 2.044.536 1.293 2.251 1.677 4.19.873 3.736-1.547 3.489-4.684 3.057-5.726a2.413 2.413 0 0 0-1.403-1.355c-.878-.393-1.62-.254-2.7-.017-.9.162-1.873.355-2.304-.687-.268-.646-.31-2.27 1.702-3.103.575-.238 1.798-.535 2.479.193z"/></g><path d="M251.52 420.578v211.207" fill="none" stroke="#999" stroke-width="4" stroke-linecap="round"/><path style="marker:none" d="M440.794 460.363a26.715 26.715 0 0 1-1.777 9.58" transform="matrix(4.6901 0 0 -4.8374 -1690.355 2858.74)" opacity=".75" color="#000" fill="#f9f9f9" stroke="#333" stroke-width=".21" stroke-linecap="round" stroke-linejoin="round" marker-end="url(#g)" overflow="visible"/><g ns0:text="$\\alpha$" ns0:preamble="/home/waldgeist/data/sphinx/inkscape-preamble.tex" transform="matrix(1.94342 0 0 1.94342 -80.234 353.99)"><defs><symbol overflow="visible" id="h"><path d="M4.75-2.36c0-1.562-.922-2.046-1.656-2.046-1.375 0-2.688 1.422-2.688 2.828C.406-.641 1 .109 2.031.109c.625 0 1.344-.234 2.094-.843.125.53.453.843.906.843.532 0 .844-.546.844-.703 0-.078-.063-.11-.125-.11-.063 0-.094.032-.125.11-.188.485-.547.485-.563.485-.312 0-.312-.782-.312-1.016 0-.203 0-.234.11-.344C5.796-2.656 6-3.812 6-3.812c0-.032-.016-.11-.125-.11-.094 0-.094.031-.14.219-.188.625-.516 1.375-.985 1.969zM4.094-.983c-.89.765-1.657.875-2.047.875-.594 0-.906-.454-.906-1.094 0-.484.265-1.563.578-2.063.468-.734 1.015-.921 1.36-.921.983 0 .983 1.312.983 2.078 0 .375 0 .953.032 1.125z"/></symbol></defs><use height="1052.362" width="744.094" xlink:href="#h" x="223.432" y="134.765"/></g><path transform="matrix(0 2.88421 2.9748 0 -1117.965 -773.52)" d="M440.794 460.363a26.715 26.715 0 0 1-1.776 9.578" style="marker:none" opacity=".75" color="#000" fill="#f9f9f9" stroke="#333" stroke-width=".341" stroke-linecap="round" stroke-linejoin="round" marker-end="url(#g)" overflow="visible"/><use y="134.765" x="223.432" xlink:href="#h" width="744.094" height="1052.362" transform="matrix(1.94342 0 0 1.94342 -175.063 225.16)" ns0:preamble="/home/waldgeist/data/sphinx/inkscape-preamble.tex" ns0:text="$\\alpha$"/><path style="marker:none" d="M394.936 441.729a26.715 26.715 0 0 1 28.903-6.234" transform="matrix(-1.47049 -.60341 -.62237 1.51667 1146.827 183.098)" opacity=".75" color="#000" fill="#f9f9f9" stroke="#333" stroke-width=".619" stroke-linecap="round" stroke-linejoin="round" marker-end="url(#g)" overflow="visible"/><g transform="translate(37.182 482.966) scale(.97171)" ns0:preamble="/home/waldgeist/data/sphinx/inkscape-preamble.tex" ns0:text="$90^{\\circ}-\\alpha$"><defs><symbol id="i" overflow="visible"><path d="M3.656-3.172v.328c0 2.328-1.031 2.781-1.61 2.781-.171 0-.718-.015-.983-.359.437 0 .515-.281.515-.453 0-.313-.234-.453-.453-.453-.156 0-.453.078-.453.469 0 .671.531 1.078 1.375 1.078 1.297 0 2.515-1.36 2.515-3.5 0-2.688-1.156-3.36-2.046-3.36-.547 0-1.032.188-1.454.625-.421.454-.64.875-.64 1.625 0 1.235.875 2.22 1.984 2.22.61 0 1.016-.423 1.25-1zm-1.234.766c-.156 0-.625 0-.922-.625-.188-.375-.188-.86-.188-1.36 0-.53 0-1 .22-1.375.265-.5.64-.625.984-.625.468 0 .796.344.968.782.11.328.157.953.157 1.406 0 .828-.344 1.797-1.22 1.797z"/></symbol><symbol id="j" overflow="visible"><path d="M4.578-3.188c0-.796-.047-1.593-.39-2.328C3.733-6.484 2.905-6.64 2.5-6.64c-.61 0-1.328.266-1.75 1.188-.313.687-.36 1.469-.36 2.266 0 .75.032 1.64.454 2.406a1.83 1.83 0 0 0 1.64 1c.532 0 1.297-.203 1.735-1.157.312-.687.36-1.468.36-2.25zM2.484 0c-.39 0-.984-.25-1.156-1.203-.11-.594-.11-1.516-.11-2.11 0-.64 0-1.296.079-1.828.187-1.187.937-1.28 1.187-1.28.329 0 .985.187 1.172 1.171.11.563.11 1.313.11 1.938 0 .75 0 1.421-.11 2.062C3.5-.297 2.937 0 2.484 0z"/></symbol><symbol id="k" overflow="visible"><path d="M3.531-1.734c0-.844-.672-1.5-1.5-1.5s-1.5.671-1.5 1.484a1.5 1.5 0 0 0 1.5 1.5c.844 0 1.5-.672 1.5-1.484zm-1.5 1.14A1.157 1.157 0 1 1 3.187-1.75c0 .656-.515 1.156-1.156 1.156z"/></symbol><symbol id="l" overflow="visible"><path d="M6.563-2.297c.171 0 .359 0 .359-.203 0-.188-.188-.188-.36-.188h-5.39c-.172 0-.344 0-.344.188 0 .203.172.203.344.203z"/></symbol><symbol id="m" overflow="visible"><path d="M4.75-2.36c0-1.562-.922-2.046-1.656-2.046-1.375 0-2.688 1.422-2.688 2.828C.406-.641 1 .109 2.031.109c.625 0 1.344-.234 2.094-.843.125.53.453.843.906.843.532 0 .844-.546.844-.703 0-.078-.063-.11-.125-.11-.063 0-.094.032-.125.11-.188.485-.547.485-.563.485-.312 0-.312-.782-.312-1.016 0-.203 0-.234.11-.344C5.796-2.656 6-3.812 6-3.812c0-.032-.016-.11-.125-.11-.094 0-.094.031-.14.219-.188.625-.516 1.375-.985 1.969zM4.094-.983c-.89.765-1.657.875-2.047.875-.594 0-.906-.454-.906-1.094 0-.484.265-1.563.578-2.063.468-.734 1.015-.921 1.36-.921.983 0 .983 1.312.983 2.078 0 .375 0 .953.032 1.125z"/></symbol></defs><use y="134.765" x="223.432" xlink:href="#i" width="744.094" height="1052.362"/><use y="134.765" x="228.413" xlink:href="#j" width="744.094" height="1052.362"/><use y="131.149" x="233.395" xlink:href="#k" width="744.094" height="1052.362"/><use y="134.765" x="240.189" xlink:href="#l" width="744.094" height="1052.362"/><g><use y="134.765" x="250.151" xlink:href="#m" width="744.094" height="1052.362"/></g></g><path d="M258.831 706.093V665.68l-8.594-28.21v68.623z" fill="gray" stroke="#000" stroke-linecap="round" stroke-linejoin="round"/></svg>