<svg xmlns="http://www.w3.org/2000/svg" width="744.094" height="1052.362"><title>Lichtweg (Schlagschatten)</title><path style="marker:none" color="#000" fill="#fff" stroke="#fff" stroke-linecap="round" stroke-linejoin="round" overflow="visible" d="M109.19 336.181h525.714v380H109.19z"/><path style="marker:none" color="#000" fill="none" stroke="#000" stroke-linecap="round" stroke-linejoin="round" overflow="visible" d="M147.762 364.752h448.571v322.857H147.762z"/><g stroke="#000" stroke-width="2.445"><path style="marker:none" d="M435.827 100.866c0 5.87-6.346 10.63-14.173 10.63-7.828 0-14.174-4.76-14.174-10.63 0-5.87 6.346-10.63 14.174-10.63 7.827 0 14.173 4.76 14.173 10.63z" transform="matrix(0 1.53965 2.05286 0 67.306 -123.016)" color="#000" fill="none" stroke-width=".562" stroke-linecap="square" overflow="visible"/><path d="M289.787 541.598l-30.834-30.834M289.787 510.764l-30.834 30.834" fill="none" stroke-width=".9999071999999999"/><path d="M274.37 504.36v-24.356M274.37 572.358v-24.355M274.37 480.004h-86.617M274.37 572.358h-86.617" fill="none" stroke-linecap="round" stroke-width=".9999071999999999"/></g><g stroke="#000" stroke-width="2.445"><path class="fil0 str0" fill="none" stroke-linecap="round" d="M187.753 572.358v-22.626M187.753 502.937v-22.933" stroke-width=".9999071999999999"/><g transform="matrix(0 -.40896 .40896 0 -436.252 589.889)"><circle r="4.35" cy="39.486" cx="9.401" class="fil0 str0" transform="matrix(4.54222 0 0 4.54222 75.997 1346.467)" fill="none" stroke-width=".538"/><circle r="4.35" cy="39.486" cx="35.854" class="fil0 str0" transform="matrix(4.54222 0 0 4.54222 29.997 1346.467)" fill="none" stroke-width=".538"/></g></g><path d="M472.402 449.11v154.142" fill="none" stroke="#000" stroke-width="3" stroke-linecap="round"/></svg>