<svg xmlns="http://www.w3.org/2000/svg" width="1052.362" height="744.094"><title>Beugungsmuster von Lichtwellen</title><defs><marker id="a" orient="auto" overflow="visible"><path transform="scale(-.6)" d="M8.719 4.034L-2.207.016 8.719-4.002c-1.746 2.372-1.736 5.618 0 8.036z" font-size="12" fill-rule="evenodd" stroke-width=".625" stroke-linejoin="round"/></marker></defs><path style="marker:none" color="#000" fill="#fff" stroke="#fff" stroke-linecap="round" stroke-linejoin="round" stroke-dasharray=".99999994,1.99999989" overflow="visible" d="M5.994 233.66h1040.374v276.775H5.994z"/><path style="marker:none" color="#000" fill="#f9f9f9" stroke="#f9f9f9" stroke-width=".427" stroke-linecap="round" stroke-dasharray="1.2819648,2.56392957" overflow="visible" d="M12.984 255.797h324.82v232.5H12.984zM352.381 255.197h324.82v232.5h-324.82z"/><path d="M259.37 269.698l-.82 204.699" fill="none" stroke="#ccc" stroke-linecap="round"/><path d="M120.585 269.698l-.82 204.699M166.765 269.698l-.82 204.699" fill="none" stroke="#999" stroke-linecap="round"/><path d="M213.032 269.698a46.142 46.142 0 1 1 0 92.283" style="marker:none" color="#000" fill="none" stroke="#999" stroke-width=".9996265" stroke-linecap="round" stroke-linejoin="round" stroke-dasharray=".79029758,2.37089274" overflow="visible"/><path d="M213.032 269.698l-.82 204.699" fill="none" stroke="#999" stroke-linecap="round"/><path style="marker:none" d="M214.544 317.35a2.137 2.137 0 1 1-3.023-3.022 2.137 2.137 0 1 1 3.023 3.023zM214.133 373.559a2.137 2.137 0 1 1-3.022-3.023 2.137 2.137 0 1 1 3.022 3.023zM213.723 429.766a2.137 2.137 0 1 1-3.022-3.022 2.137 2.137 0 1 1 3.022 3.022z" color="#000" fill="gray" stroke="#999" stroke-linecap="round" stroke-linejoin="round" overflow="visible"/><path style="marker:none" d="M212.622 325.906a46.142 46.142 0 1 1 0 92.283M212.212 382.113a46.142 46.142 0 1 1 0 92.284" color="#000" fill="none" stroke="#999" stroke-width=".9996265" stroke-linecap="round" stroke-linejoin="round" stroke-dasharray=".79029758,2.37089274" overflow="visible"/><path d="M214.133 345.455a2.137 2.137 0 1 1-3.022-3.023 2.137 2.137 0 1 1 3.022 3.023zM214.544 289.247a2.137 2.137 0 1 1-3.023-3.022 2.137 2.137 0 1 1 3.023 3.022zM214.133 401.662a2.137 2.137 0 1 1-3.022-3.022 2.137 2.137 0 1 1 3.022 3.022zM213.723 457.87a2.137 2.137 0 1 1-3.022-3.022 2.137 2.137 0 1 1 3.022 3.022z" style="marker:none" color="#000" fill="gray" stroke="#999" stroke-linecap="round" stroke-linejoin="round" overflow="visible"/><path style="marker:none" d="M213.032 297.802a46.142 46.142 0 1 1 0 92.283M213.032 354.01a46.142 46.142 0 1 1 0 92.283M212.212 410.217a46.142 46.142 0 0 1 42.593 63.886M255.673 270.105a46.142 46.142 0 0 1-42.64 63.773" color="#000" fill="none" stroke="#999" stroke-width=".9996265" stroke-linecap="round" stroke-linejoin="round" stroke-dasharray=".79029758,2.37089274" overflow="visible"/><path d="M45.33 680.33H114.2M45.33 627.173H114.2M45.33 733.486H114.2" fill="none" stroke="#f60" stroke-width="1.5" stroke-linecap="round" marker-end="url(#a)" transform="translate(0 -308.268)"/><path d="M305.707 269.698l-.82 204.699M598.45 343.344v56.208" fill="none" stroke="#ccc" stroke-linecap="round"/><path d="M459.98 285.008l-.24 174.078" fill="none" stroke="#999" stroke-linecap="round"/><path style="marker:none" d="M552.308 297.202a46.142 46.142 0 0 1 46.142 46.142" color="#000" fill="none" stroke="#ccc" stroke-width=".9996265" stroke-linecap="round" stroke-linejoin="round" overflow="visible"/><path d="M552.308 343.344v56.208" fill="none" stroke="#999" stroke-linecap="round"/><path style="marker:none" d="M553.82 372.959a2.137 2.137 0 1 1-3.023-3.022 2.137 2.137 0 1 1 3.022 3.022z" color="#000" fill="gray" stroke="#999" stroke-linecap="round" stroke-linejoin="round" overflow="visible"/><path d="M552.308 325.306a46.142 46.142 0 1 1 0 92.283" style="marker:none" color="#000" fill="none" stroke="#999" stroke-width=".9996265" stroke-linecap="round" stroke-linejoin="round" stroke-dasharray=".79029758,2.37089274" overflow="visible"/><path d="M598.45 399.552a46.142 46.142 0 0 1-46.142 46.141" style="marker:none" color="#000" fill="none" stroke="#ccc" stroke-width=".9996265" stroke-linecap="round" stroke-linejoin="round" overflow="visible"/><path style="marker:none" d="M553.82 344.855a2.137 2.137 0 1 1-3.023-3.022 2.137 2.137 0 1 1 3.022 3.022zM553.82 401.063a2.137 2.137 0 1 1-3.023-3.023 2.137 2.137 0 1 1 3.022 3.023z" color="#000" fill="gray" stroke="#999" stroke-linecap="round" stroke-linejoin="round" overflow="visible"/><path d="M552.308 297.202a46.142 46.142 0 1 1 0 92.284" style="marker:none" color="#000" fill="none" stroke="#999" stroke-width=".9996265" stroke-linecap="round" stroke-linejoin="round" stroke-dasharray=".79029758,2.37089274" overflow="visible"/><path d="M605.001 267.21a92.59 92.59 0 0 1 39.897 76.134" style="marker:none" color="#000" fill="none" stroke="#ccc" stroke-width="1.0004054" stroke-linecap="round" stroke-linejoin="round" overflow="visible"/><path d="M644.898 343.344l-.038 56.208" fill="none" stroke="#ccc" stroke-linecap="round"/><path style="marker:none" d="M552.308 353.41a46.142 46.142 0 1 1 0 92.283" color="#000" fill="none" stroke="#999" stroke-width=".9996265" stroke-linecap="round" stroke-linejoin="round" stroke-dasharray=".79029758,2.37089274" overflow="visible"/><path d="M385.016 680.33h68.869M385.016 637.187h68.869M385.016 723.5h68.869" fill="none" stroke="#f60" stroke-width="1.5" stroke-linecap="round" marker-end="url(#a)" transform="translate(0 -308.268)"/><path d="M506.264 285.008l-.24 174.078" fill="none" stroke="#999" stroke-linecap="round"/><path style="marker:none" d="M604.963 475.685a92.59 92.59 0 0 1 39.897-76.133" color="#000" fill="none" stroke="#ccc" stroke-width="1.0004054" stroke-linecap="round" stroke-linejoin="round" overflow="visible"/><path style="marker:none" color="#000" fill="#f9f9f9" stroke="#f9f9f9" stroke-width=".427" stroke-linecap="round" stroke-dasharray="1.2819648,2.56392957" overflow="visible" d="M714.558 255.197h324.82v232.5h-324.82z"/><path d="M822.158 285.008l-.24 174.078" fill="none" stroke="#999" stroke-linecap="round"/><path d="M915.997 372.959a2.137 2.137 0 1 1-3.022-3.022 2.137 2.137 0 1 1 3.022 3.022z" style="marker:none" color="#000" fill="gray" stroke="#999" stroke-linecap="round" stroke-linejoin="round" overflow="visible"/><path style="marker:none" d="M914.486 325.306a46.142 46.142 0 1 1 0 92.283" color="#000" fill="none" stroke="#ccc" stroke-width=".9996265" stroke-linecap="round" stroke-linejoin="round" overflow="visible"/><path style="marker:none" d="M914.486 325.306a46.142 46.142 0 1 1 0 92.283" color="#000" fill="none" stroke="#999" stroke-width=".9996265" stroke-linecap="round" stroke-linejoin="round" stroke-dasharray=".79029758,2.37089274" overflow="visible"/><path d="M747.194 680.33h68.868M747.194 637.173h68.868M747.194 723.486h68.868" fill="none" stroke="#f60" stroke-width="1.5" stroke-linecap="round" marker-end="url(#a)" transform="translate(0 -308.268)"/><path d="M868.382 285.008l-.24 174.078" fill="none" stroke="#999" stroke-linecap="round"/><path style="marker:none" color="#000" fill="#999" overflow="visible" d="M902.432 366.576h12.214v-99.432h-12.214z"/><path d="M564.72 569.063v78.8H397.433v-78.8" fill="none" stroke="#666" stroke-width="3.294" stroke-linecap="round" transform="matrix(.07303 0 0 1.26184 873.408 -450.926)"/><path style="marker:none" color="#000" fill="#999" overflow="visible" d="M902.432 376.32h12.214v99.431h-12.214z"/><path d="M564.72 569.063v78.8H397.433v-78.8" fill="none" stroke="#666" stroke-width="3.294" stroke-linecap="round" transform="matrix(.07303 0 0 -1.26184 873.408 1193.821)"/><path d="M915.204 278.96a92.49 92.49 0 0 1-.195 184.976" style="marker:none" color="#000" fill="none" stroke="#ccc" stroke-width=".9993258400000001" stroke-linecap="round" stroke-linejoin="round" overflow="visible"/><g><path style="marker:none" color="#000" fill="#999" overflow="visible" d="M540.206 337.87h12.213v-70.727h-12.213z"/><path d="M564.72 569.063v56.05H397.433v-56.05" fill="none" stroke="#666" stroke-width="3.294" stroke-linecap="round" transform="matrix(.07303 0 0 1.26184 511.182 -450.926)"/><g><path style="marker:none" color="#000" fill="#999" overflow="visible" d="M540.206 405.026h12.213v70.727h-12.213z"/><path d="M564.72 569.063l.666 56.05H398.098l-.666-56.05" fill="none" stroke="#666" stroke-width="3.294" stroke-linecap="round" transform="matrix(.07303 0 0 -1.26184 511.182 1193.822)"/></g></g></svg>