<svg xmlns="http://www.w3.org/2000/svg" height="1052.362" width="744.094"><title>Totalreflexion in einem Lichtleiter</title><defs><linearGradient id="a"><stop offset="0" stop-color="#f95"/><stop offset="1" stop-color="#fffb36"/></linearGradient><linearGradient id="b"><stop offset="0" stop-color="#f95"/><stop offset="1" stop-color="#fffb36"/></linearGradient><marker orient="auto" id="c" overflow="visible"><path d="M8.719 4.034L-2.207.016 8.719-4.002c-1.746 2.372-1.736 5.618 0 8.036z" transform="scale(-.6)" font-size="12" fill-rule="evenodd" stroke-width=".625" stroke-linejoin="round"/></marker></defs><path fill="#fff" stroke="#fff" stroke-linecap="round" stroke-linejoin="round" d="M16.895 391.431H727.2v269.5H16.895z"/><path style="marker:none" color="#000" fill="#f9f9f9" stroke="#f9f9f9" stroke-width=".5" stroke-linecap="round" overflow="visible" d="M100.026 426.083h544.042v200.196H100.026z"/><g stroke-width="1.739"><path d="M194.746 482.817l-12.643 13.358c21.567 18.295 39.162 39.377 64.653 55.227 20.11 12.503 59.975 23.074 92.356 22.541 58.319-.96 106.27-36.515 158.547-43.822 17.564-2.455 57.247 4.677 57.247 4.677l.283-18.38s-38.893-7.477-60.068-4.517c-58.399 8.163-105.733 42.803-156.327 43.636-27.554.454-68.704-10.347-82.398-19.814-23.52-16.26-40.692-33.21-61.65-52.906z" style="text-indent:0;text-align:start;line-height:normal;text-transform:none;block-progression:tb;marker:none;-inkscape-font-specification:Sans" font-weight="400" color="#000" fill="#ececec" stroke="#666" overflow="visible" font-family="Sans" stroke-width="1.99985"/><path d="M468.585-5.651l39.54 28.593M421.684-10.89l44.373 4.467M305.631 4.519l113.436-15.494M187.464-112.4l27.08 27.023M215.425-83.983l7.107 33.84M224.011-47.305l79.82 51.086" fill="none" stroke="#f60" stroke-linecap="round" marker-end="url(#c)" transform="rotate(-15 2502.089 336.465) scale(1.15)"/></g></svg>