<svg xmlns="http://www.w3.org/2000/svg" xmlns:xlink="http://www.w3.org/1999/xlink" width="1052.362" height="744.094"><title>Lichtdurchlaessigkeit</title><defs><linearGradient id="a"><stop offset="0" stop-color="#f95"/><stop offset="1" stop-color="#fffb36"/></linearGradient><filter id="f" x="-.626" width="2.252" y="-.254" height="1.508"><feGaussianBlur stdDeviation="15.249"/></filter><filter id="d" x="-.582" width="2.164" y="-.262" height="1.524"><feGaussianBlur stdDeviation="17.638"/></filter><filter id="c" x="-2.031" width="5.062" y="-.199" height="1.398"><feGaussianBlur stdDeviation="4.274"/></filter><linearGradient id="b"><stop offset="0" stop-color="#f95"/><stop offset="1" stop-color="#fffb36"/></linearGradient><radialGradient xlink:href="#a" id="g" gradientUnits="userSpaceOnUse" gradientTransform="matrix(1 0 0 2.43119 1.301 4179.676)" cx="-7817.805" cy="-2897.761" fx="-7817.805" fy="-2897.761" r="29.799"/><radialGradient xlink:href="#a" id="e" gradientUnits="userSpaceOnUse" gradientTransform="matrix(1 0 0 2.43119 1.301 4179.676)" cx="-7817.805" cy="-2897.761" fx="-7817.805" fy="-2897.761" r="29.799"/></defs><path fill="#fff" stroke="#fff" d="M9.526 187.508h1033.309v369.077H9.526z"/><path fill="#333" stroke="#000" stroke-width="1.855" stroke-linejoin="round" d="M565.653 505.262h407.854v8.83H565.653z"/><path transform="matrix(.70718 0 0 .72007 6299.203 2398.477)" fill="#666" stroke="#501616" stroke-width=".858" stroke-linejoin="round" filter="url(#c)" d="M-7820.096-2837.776h5.051v51.518h-5.051z"/><path transform="matrix(.70718 0 0 .72007 6299.203 2398.477)" fill="#782121" stroke="#501616" stroke-width=".858" stroke-linejoin="round" filter="url(#d)" d="M-7853.936-2788.238h72.731v161.624h-72.731z"/><path d="M-7808.35-2825.562c-9.556 2.268-20.133-.305-27.58-6.71-7.446-6.404-11.573-16.478-10.76-26.266.516-6.203 2.875-12.12 5.811-17.609 2.936-5.489 6.463-10.64 9.557-16.04 13.163-22.974 18.147-50.526 13.867-76.655a4267.026 4267.026 0 0 0 23.88 85.526c2.368 8.15 4.776 16.387 5.173 24.865.396 8.477-1.414 17.355-6.704 23.99a26.672 26.672 0 0 1-13.243 8.9" transform="matrix(.70718 0 0 .72007 6299.203 2398.477)" fill="url(#e)" stroke="#501616" stroke-width=".858" filter="url(#f)"/><path opacity=".58" fill="#f2f2f2" stroke="#000" stroke-width="2" stroke-linejoin="round" d="M565.747 227.672h407.76v275.61h-407.76z"/><path opacity=".2" fill="#f2f2f2" d="M78.855 230.003h407.76v275.61H78.855z"/><g opacity=".9" stroke="#501616" stroke-width=".858"><path fill="#666" stroke-linejoin="round" d="M-7820.096-2837.776h5.051v51.518h-5.051z" transform="matrix(.70718 0 0 .72007 5811.2 2395.01)"/><path fill="#782121" stroke-linejoin="round" d="M-7854.002-2787.294h72.731v161.624h-72.731z" transform="matrix(.70718 0 0 .72007 5811.2 2395.01)"/><path d="M-7808.35-2825.562c-9.556 2.268-20.133-.305-27.58-6.71-7.446-6.404-11.573-16.478-10.76-26.266.516-6.203 2.875-12.12 5.811-17.609 2.936-5.489 6.463-10.64 9.557-16.04 13.163-22.974 18.147-50.526 13.867-76.655a4267.026 4267.026 0 0 0 23.88 85.526c2.368 8.15 4.776 16.387 5.173 24.865.396 8.477-1.414 17.355-6.704 23.99a26.672 26.672 0 0 1-13.243 8.9" fill="url(#g)" transform="matrix(.70718 0 0 .72007 5811.2 2395.01)"/></g><path fill="#333" stroke="#000" stroke-width="1.855" stroke-linejoin="round" d="M78.761 505.613h407.854v8.83H78.761z"/><path fill="#fff" d="M702.086 515.043h136.467v33.86H702.086z"/><path opacity=".58" fill="none" stroke="#000" stroke-width="2" stroke-linejoin="round" d="M78.855 230.003h407.76v275.61H78.855z"/></svg>