<svg xmlns:ns0="http://www.iki.fi/pav/software/textext/" xmlns="http://www.w3.org/2000/svg" xmlns:xlink="http://www.w3.org/1999/xlink" height="793.701" width="1122.52" viewBox="0 0 1052.3622 744.09448"><title>Lichtbrechung an einer ebenen Platte 2</title><defs><linearGradient id="a"><stop offset="0" stop-color="#f95"/><stop offset="1" stop-color="#fffb36"/></linearGradient><marker orient="auto" id="f" overflow="visible"><path d="M8.719 4.034L-2.207.016 8.719-4.002c-1.746 2.372-1.736 5.618 0 8.036z" transform="scale(-.6)" font-size="12" fill-rule="evenodd" stroke-width=".625" stroke-linejoin="round"/></marker><linearGradient id="b"><stop offset="0" stop-color="#f95"/><stop offset="1" stop-color="#fffb36"/></linearGradient><marker orient="auto" id="d" overflow="visible"><path d="M8.719 4.034L-2.207.016 8.719-4.002c-1.746 2.372-1.736 5.618 0 8.036z" transform="scale(-.6)" font-size="12" fill-rule="evenodd" stroke-width=".625" stroke-linejoin="round"/></marker></defs><path fill="#fff" stroke="#fff" stroke-linecap="round" stroke-linejoin="round" d="M171.029 108.668h710.305v526.76H171.029z"/><path style="marker:none" color="#000" overflow="visible" fill="#f9f9f9" stroke="#f9f9f9" stroke-width=".5" stroke-linecap="round" d="M222.003 148.68H830.36v446.735H222.003z"/><path style="marker:none" color="#000" overflow="visible" fill="#ececec" stroke="#ececec" stroke-width=".5" d="M222.003 373.227H830.36v222.188H222.003z"/><g ns0:text="$\\alpha$" transform="translate(-84.073 60.529) scale(2.6556)"><defs><symbol overflow="visible" id="c"><path d="M4.75-2.36c0-1.562-.922-2.046-1.656-2.046-1.375 0-2.688 1.422-2.688 2.828C.406-.641 1 .109 2.031.109c.625 0 1.344-.234 2.094-.843.125.53.453.843.906.843.532 0 .844-.546.844-.703 0-.078-.063-.11-.125-.11-.063 0-.094.032-.125.11-.188.485-.547.485-.563.485-.312 0-.312-.782-.312-1.016 0-.203 0-.234.11-.344C5.796-2.656 6-3.812 6-3.812c0-.032-.016-.11-.125-.11-.094 0-.094.031-.14.219-.188.625-.516 1.375-.985 1.969zM4.094-.983c-.89.765-1.657.875-2.047.875-.594 0-.906-.454-.906-1.094 0-.484.265-1.563.578-2.063.468-.734 1.015-.921 1.36-.921.983 0 .983 1.312.983 2.078 0 .375 0 .953.032 1.125zm0 0"/></symbol></defs><use transform="translate(-.672 -.807)" height="1052.362" width="744.094" xlink:href="#c" x="223.432" y="134.765" fill="#f60"/></g><path transform="matrix(-.51693 -.39133 .42515 -.47581 571.108 674.305)" d="M306.422 266.902a57.96 63.54 0 0 1 34.394-12.397" fill="none" stroke="#000" stroke-width="3.115" stroke-linejoin="round" stroke-miterlimit="6.7" marker-end="url(#d)"/><path fill="#666" d="M222.003 370.867H830.36v2.36H222.003z"/><path d="M526.181 536.799V207.296" fill="none" stroke="#000" stroke-linecap="round" stroke-dasharray="1.99999993,1.99999993"/><path d="M526.482 372.706l94.6 164.093" fill="none" stroke="#f60" stroke-width="2" stroke-linecap="round" stroke-dasharray="1.99999999,6"/><g transform="matrix(1.99122 0 0 1.99122 91.7 69.204)" ns0:preamble="/home/waldgeist/data/sphinx/inkscape-preamble.tex" ns0:text="$\\beta$" fill="#d40000"><defs><symbol id="e" overflow="visible"><path d="M5.734-5.672c0-.75-.546-1.36-1.359-1.36-.578 0-.86.157-1.203.407C2.625-6.219 2.078-5.25 1.89-4.5L.297 1.828c0 .047.047.11.125.11s.11-.032.11-.047l.702-2.766c.188.61.625.969 1.36.969.719 0 1.469-.344 1.922-.781a2.486 2.486 0 0 0 .796-1.829c0-.718-.375-1.25-.734-1.484.578-.344 1.156-.953 1.156-1.672zM3.938-4.016c-.126.047-.235.063-.485.063-.14 0-.328.015-.437-.031.03-.11.39-.079.5-.079.203 0 .296 0 .421.047zm1.234-1.89c0 .703-.375 1.422-.89 1.734-.282-.11-.47-.125-.766-.125-.22 0-.782-.016-.782.313 0 .28.516.25.688.25.375 0 .531 0 .828-.125.375.359.422.671.438 1.125.015.578-.22 1.328-.5 1.718-.391.532-1.063.891-1.625.891-.766 0-1.141-.578-1.141-1.281 0-.094 0-.25.047-.438l.64-2.515c.22-.86.938-2.454 2.141-2.454.578 0 .922.313.922.907zm0 0"/></symbol></defs><use transform="matrix(1.27997 0 0 1.27997 -63.04 -37.197)" y="134.765" x="223.432" xlink:href="#e" width="744.094" height="1052.362"/></g><path d="M526.197 680.3l144.307-128.707" fill="none" stroke="#d40000" stroke-width="2" stroke-linecap="round" marker-end="url(#f)" transform="translate(0 -308.268)"/><path d="M306.422 266.902a57.96 63.54 0 0 1 34.394-12.397" transform="matrix(1.11005 .89653 -.91295 1.09009 429.707 -259.84)" fill="none" stroke="#000" stroke-width="1.404" stroke-linejoin="round" stroke-miterlimit="6.7" marker-end="url(#d)"/><path d="M431.986 843.655l93.243-161.872" fill="none" stroke="#f60" stroke-width="2" stroke-linecap="round" marker-end="url(#d)" transform="translate(0 -308.268)"/></svg>