<svg xmlns:ns0="http://www.iki.fi/pav/software/textext/" xmlns="http://www.w3.org/2000/svg" xmlns:xlink="http://www.w3.org/1999/xlink" width="210mm" height="297mm"><title>Lichtdispersion an einem Prisma</title><defs><linearGradient id="c"><stop offset="0" stop-color="red"/><stop offset=".232" stop-color="#ff7f00"/><stop offset=".441" stop-color="#ff0"/><stop offset=".639" stop-color="green"/><stop offset=".82" stop-color="#00f"/><stop offset="1" stop-color="#7f00ff"/></linearGradient><marker orient="auto" id="n" overflow="visible"><path d="M-1.2 0l-1 1 3.5-1-3.5-1 1 1z" fill-rule="evenodd" stroke="#000" stroke-width=".2pt"/></marker><linearGradient id="a"><stop offset="0" stop-color="#f95"/><stop offset="1" stop-color="#fffb36"/></linearGradient><linearGradient id="b"><stop offset="0" stop-color="#f95"/><stop offset="1" stop-color="#fffb36"/></linearGradient><linearGradient xlink:href="#c" id="d" x1="620.679" y1="419.057" x2="620.679" y2="489.413" gradientUnits="userSpaceOnUse" gradientTransform="matrix(1 0 0 1.0197 0 -9.08)"/></defs><path style="marker:none" color="#000" fill="#fff" stroke="#fff" stroke-linecap="round" stroke-linejoin="round" stroke-dasharray=".99999995,2.99999984" overflow="visible" d="M22.548 311.886h698.999v428.59H22.548z"/><path style="marker:none" color="#000" fill="#b3b3b3" stroke="#f9f9f9" stroke-linecap="round" stroke-dasharray="1.28196472,2.56392945" overflow="visible" d="M33.976 323.315h676.142v405.733H33.976z"/><path d="M372.047 353.656l99.608 172.525 99.607 172.525H172.833l99.607-172.525z" fill="#ececec" stroke="#333" stroke-width="1.0003087800000001" stroke-linecap="square" stroke-linejoin="round" stroke-dasharray="1.313603,1.313603"/><path style="marker:none" color="#000" fill="#f2f2f2" overflow="visible" d="M615.123 378.241h11.112v177.901h-11.112z"/><path style="marker:none" color="#000" fill="url(#d)" overflow="visible" d="M614.623 419.057h11.612v70.323h-11.612z"/><path d="M306.498 467.191l311.715-64.862" fill="none" stroke="#f9f9f9" stroke-linecap="round" stroke-linejoin="round" stroke-dasharray=".99999995,2.99999984"/><path d="M306.498 467.19l119.258-20.507" fill="none" stroke="red"/><path d="M306.498 467.19l121.39-16.815" fill="none" stroke="#f60"/><path d="M306.498 467.19l123.52-13.124" fill="none" stroke="#fc0"/><path d="M306.498 467.19l125.652-9.432" fill="none" stroke="green"/><path d="M306.498 467.191l127.596-6.066" fill="none" stroke="#00f"/><path d="M306.498 467.19l129.934-2.016" fill="none" stroke="purple"/><g ns0:preamble="/home/waldgeist/data/sphinx/inkscape-preamble.tex" ns0:text="Wei\xc3\x9fes Licht" transform="matrix(2.20455 -.46168 .46168 2.20455 -474.62 315.103)"><defs><symbol id="e" overflow="visible"><path d="M9.063-5.828c.171-.578.609-.672 1-.672v-.313c-.297.032-.61.032-.907.032-.297 0-.937-.016-1.187-.032v.313c.672.016.86.344.86.531 0 .063-.032.14-.048.203l-1.5 4.594-1.593-4.875c0-.047-.032-.11-.032-.156 0-.297.578-.297.844-.297v-.313c-.36.032-1.031.032-1.422.032-.375 0-.797-.016-1.203-.032v.313c.563 0 .766 0 .89.36l.22.702-1.391 4.266L2-6.078c-.016-.016-.031-.094-.031-.125 0-.297.578-.297.843-.297v-.313c-.359.032-1.03.032-1.421.032-.375 0-.797-.016-1.22-.032v.313c.75 0 .798.047.923.422L3.078.032c.031.093.063.187.188.187.14 0 .156-.063.203-.203l1.64-5.063L6.766.031c.03.094.062.188.187.188.14 0 .172-.063.203-.203z"/></symbol><symbol id="f" overflow="visible"><path d="M1.11-2.516C1.171-4 2.015-4.25 2.36-4.25c1.015 0 1.124 1.344 1.124 1.734zm0 .22h2.78c.22 0 .25 0 .25-.22 0-.984-.546-1.953-1.78-1.953C1.202-4.469.28-3.437.28-2.187.281-.86 1.328.108 2.47.108 3.688.11 4.14-1 4.14-1.187c0-.094-.079-.125-.141-.125-.078 0-.11.062-.125.14C3.531-.14 2.625-.14 2.531-.14c-.5 0-.89-.296-1.125-.671-.297-.47-.297-1.125-.297-1.485z"/></symbol><symbol id="g" overflow="visible"><path d="M1.766-4.406l-1.391.11v.312c.64 0 .734.062.734.546V-.75c0 .438-.109.438-.78.438V0c.312-.016.859-.031 1.093-.031.36 0 .703.015 1.047.031v-.313c-.672 0-.703-.046-.703-.437zm.03-1.735a.514.514 0 0 0-.515-.53.537.537 0 0 0-.531.53c0 .266.219.532.531.532a.514.514 0 0 0 .516-.532z"/></symbol><symbol id="h" overflow="visible"><path d="M3.094-4.172c.89-.25 1.328-.86 1.328-1.437 0-.75-.719-1.422-1.703-1.422-.781 0-1.656.484-1.656 1.484v1.25H.28v.313h.781V-.75c0 .438-.109.438-.78.438V0c.187-.016.843-.031.968-.031.11 0 .281 0 .469.031v-5.563c0-1.14.797-1.25 1-1.25.406 0 .953.313.953 1.188 0 .64-.36 1.25-1.235 1.328-.093.016-.171.016-.171.11 0 .015 0 .093.093.109 1.188.094 1.594 1.312 1.594 2.36 0 1.28-.656 1.609-1.031 1.609a.736.736 0 0 1-.5-.188.36.36 0 0 0 .297-.36.345.345 0 0 0-.36-.359A.357.357 0 0 0 2-.64c0 .391.375.75.953.75.86 0 1.735-.734 1.735-1.843 0-.72-.313-1.922-1.594-2.438z"/></symbol><symbol id="i" overflow="visible"><path d="M2.078-1.938c.219.047 1.031.204 1.031.922 0 .5-.343.907-1.125.907-.843 0-1.203-.563-1.39-1.422-.031-.125-.031-.157-.14-.157-.126 0-.126.063-.126.235v1.328c0 .172 0 .234.11.234C.483.11.5.094.688-.094.703-.109.703-.125.89-.312c.437.406.89.421 1.093.421 1.141 0 1.61-.671 1.61-1.39 0-.516-.297-.828-.422-.938-.328-.328-.719-.406-1.14-.484-.563-.11-1.22-.235-1.22-.813 0-.359.25-.765 1.11-.765 1.094 0 1.156.906 1.172 1.203 0 .094.094.094.11.094.14 0 .14-.047.14-.235v-1.015c0-.157 0-.235-.11-.235-.046 0-.078 0-.203.125-.031.032-.125.125-.172.157-.375-.282-.78-.282-.937-.282-1.219 0-1.594.672-1.594 1.235 0 .343.156.625.422.843.328.25.61.313 1.328.454z"/></symbol><symbol id="j" overflow="visible"><path d="M5.797-2.578h-.25c-.11 1.015-.25 2.265-2 2.265h-.813c-.468 0-.484-.062-.484-.39v-5.313c0-.343 0-.484.938-.484h.328v-.313c-.36.032-1.266.032-1.672.032-.39 0-1.172 0-1.516-.032v.313h.234c.766 0 .797.11.797.469v5.25c0 .36-.03.469-.796.469H.328V0h5.188z"/></symbol><symbol id="k" overflow="visible"><path d="M1.172-2.172c0-1.625.812-2.047 1.344-2.047.093 0 .718.016 1.062.375-.406.031-.469.328-.469.453 0 .266.188.454.454.454.265 0 .468-.157.468-.47 0-.671-.765-1.062-1.531-1.062C1.25-4.469.344-3.39.344-2.156c0 1.281.984 2.265 2.14 2.265 1.329 0 1.657-1.203 1.657-1.296 0-.094-.11-.094-.141-.094-.078 0-.11.031-.125.093C3.594-.265 2.937-.14 2.578-.14c-.531 0-1.406-.421-1.406-2.03z"/></symbol><symbol id="l" overflow="visible"><path d="M1.094-.75c0 .438-.11.438-.782.438V0c.36-.016.86-.031 1.141-.031.25 0 .766.015 1.11.031v-.313c-.672 0-.782 0-.782-.437v-1.844c0-1.031.719-1.594 1.344-1.594.64 0 .75.532.75 1.11V-.75c0 .438-.11.438-.781.438V0c.344-.016.86-.031 1.125-.031.25 0 .781.015 1.11.031v-.313c-.516 0-.766 0-.766-.296v-1.907c0-.859 0-1.156-.313-1.515-.14-.172-.469-.375-1.047-.375-.844 0-1.281.593-1.453.984v-3.5l-1.438.11v.312c.704 0 .782.063.782.563z"/></symbol><symbol id="m" overflow="visible"><path d="M1.719-3.984h1.437v-.313H1.72v-1.828h-.25c0 .813-.297 1.875-1.282 1.922v.219h.844v2.75c0 1.218.938 1.343 1.297 1.343.703 0 .985-.703.985-1.343v-.563h-.25v.547c0 .734-.297 1.11-.672 1.11-.672 0-.672-.907-.672-1.079z"/></symbol></defs><use y="134.765" x="223.432" xlink:href="#e" width="744.094" height="1052.362"/><use y="134.765" x="232.845" xlink:href="#f" width="744.094" height="1052.362"/><use y="134.765" x="237.272" xlink:href="#g" width="744.094" height="1052.362"/><use y="134.765" x="240.04" xlink:href="#h" width="744.094" height="1052.362"/><use y="134.765" x="245.021" xlink:href="#f" width="744.094" height="1052.362"/><use y="134.765" x="249.448" xlink:href="#i" width="744.094" height="1052.362"/><g><use y="134.765" x="256.695" xlink:href="#j" width="744.094" height="1052.362"/><use y="134.765" x="262.922" xlink:href="#g" width="744.094" height="1052.362"/><use y="134.765" x="265.689" xlink:href="#k" width="744.094" height="1052.362"/></g><g><use y="134.765" x="269.838" xlink:href="#l" width="744.094" height="1052.362"/></g><g><use y="134.765" x="275.104" xlink:href="#m" width="744.094" height="1052.362"/></g></g><path d="M81.528 514.335l221.06-46.284" fill="none" stroke="#fff" stroke-width="3" stroke-linecap="round" stroke-linejoin="round" marker-end="url(#n)"/><path style="marker:none" color="#000" fill="none" stroke="#999" stroke-linecap="round" stroke-linejoin="round" overflow="visible" d="M615.123 378.241h11.112v177.901h-11.112z"/><path d="M425.756 446.683l188.867-26.818" fill="none" stroke="red" stroke-linecap="round" stroke-linejoin="round"/><path d="M427.888 450.374l187.235-14.706" fill="none" stroke="#f60" stroke-linecap="round" stroke-linejoin="round"/><path d="M430.019 454.066l185.104-3.88" fill="none" stroke="#fc0" stroke-linecap="round" stroke-linejoin="round"/><path d="M432.15 457.758l182.973 6.05" fill="none" stroke="green" stroke-linecap="round" stroke-linejoin="round"/><path d="M434.094 461.125l181.029 15.182" fill="none" stroke="#00f" stroke-linecap="round" stroke-linejoin="round"/><path d="M436.413 465.141l178.21 23.688" fill="none" stroke="purple" stroke-linecap="round" stroke-linejoin="round"/><g transform="matrix(2.25238 .00027 -.00027 2.25238 80.218 66.842)" ns0:preamble="/home/waldgeist/data/sphinx/inkscape-preamble.tex" ns0:text="Schirm\n"><defs><symbol id="o" overflow="visible"><path d="M3.484-3.875l-1.28-.297c-.626-.156-1-.687-1-1.266 0-.703.53-1.312 1.312-1.312 1.656 0 1.875 1.64 1.937 2.078.016.063.016.125.125.125.125 0 .125-.047.125-.234v-2c0-.172 0-.25-.11-.25-.062 0-.077.015-.14.14l-.36.563c-.296-.297-.702-.703-1.593-.703-1.11 0-1.938.875-1.938 1.937 0 .828.532 1.563 1.297 1.828.11.032.625.157 1.329.329.265.062.562.14.843.5.203.265.313.593.313.921 0 .704-.5 1.422-1.344 1.422-.281 0-1.047-.047-1.578-.531-.578-.547-.61-1.172-.61-1.531-.015-.11-.093-.11-.125-.11-.125 0-.125.079-.125.25v2c0 .172 0 .235.11.235.062 0 .078-.016.14-.125 0-.016.032-.047.36-.578.312.343.953.703 1.844.703 1.156 0 1.953-.969 1.953-2.078 0-.985-.657-1.813-1.485-2.016z"/></symbol><symbol id="p" overflow="visible"><path d="M1.172-2.172c0-1.625.812-2.047 1.344-2.047.093 0 .718.016 1.062.375-.406.031-.469.328-.469.453 0 .266.188.454.454.454.265 0 .468-.157.468-.47 0-.671-.765-1.062-1.531-1.062C1.25-4.469.344-3.39.344-2.156c0 1.281.984 2.265 2.14 2.265 1.329 0 1.657-1.203 1.657-1.296 0-.094-.11-.094-.141-.094-.078 0-.11.031-.125.093C3.594-.265 2.937-.14 2.578-.14c-.531 0-1.406-.421-1.406-2.03z"/></symbol><symbol id="q" overflow="visible"><path d="M1.094-.75c0 .438-.11.438-.782.438V0c.36-.016.86-.031 1.141-.031.25 0 .766.015 1.11.031v-.313c-.672 0-.782 0-.782-.437v-1.844c0-1.031.719-1.594 1.344-1.594.64 0 .75.532.75 1.11V-.75c0 .438-.11.438-.781.438V0c.344-.016.86-.031 1.125-.031.25 0 .781.015 1.11.031v-.313c-.516 0-.766 0-.766-.296v-1.907c0-.859 0-1.156-.313-1.515-.14-.172-.469-.375-1.047-.375-.844 0-1.281.593-1.453.984v-3.5l-1.438.11v.312c.704 0 .782.063.782.563z"/></symbol><symbol id="r" overflow="visible"><path d="M1.766-4.406l-1.391.11v.312c.64 0 .734.062.734.546V-.75c0 .438-.109.438-.78.438V0c.312-.016.859-.031 1.093-.031.36 0 .703.015 1.047.031v-.313c-.672 0-.703-.046-.703-.437zm.03-1.735a.514.514 0 0 0-.515-.53.537.537 0 0 0-.531.53c0 .266.219.532.531.532a.514.514 0 0 0 .516-.532z"/></symbol><symbol id="s" overflow="visible"><path d="M1.672-3.313v-1.093l-1.39.11v.312c.702 0 .78.062.78.562V-.75c0 .438-.109.438-.78.438V0c.39-.016.859-.031 1.14-.031.39 0 .86 0 1.266.031v-.313h-.22c-.734 0-.75-.109-.75-.468v-1.531c0-.985.423-1.876 1.173-1.876.062 0 .093 0 .109.016-.031 0-.234.125-.234.39 0 .266.218.423.437.423a.421.421 0 0 0 .422-.438c0-.312-.313-.61-.734-.61-.735 0-1.094.673-1.22 1.095z"/></symbol><symbol id="t" overflow="visible"><path d="M1.094-3.422V-.75c0 .438-.11.438-.782.438V0c.36-.016.86-.031 1.141-.031.25 0 .766.015 1.11.031v-.313c-.672 0-.782 0-.782-.437v-1.844c0-1.031.719-1.594 1.344-1.594.64 0 .75.532.75 1.11V-.75c0 .438-.11.438-.781.438V0c.344-.016.86-.031 1.125-.031.25 0 .781.015 1.11.031v-.313c-.657 0-.766 0-.766-.437v-1.844c0-1.031.703-1.594 1.343-1.594.625 0 .735.532.735 1.11V-.75c0 .438-.11.438-.782.438V0c.344-.016.86-.031 1.125-.031.266 0 .782.015 1.125.031v-.313c-.515 0-.765 0-.78-.296v-1.907c0-.859 0-1.156-.313-1.515-.141-.172-.47-.375-1.047-.375-.828 0-1.282.593-1.438.984-.14-.875-.875-.984-1.328-.984-.734 0-1.203.422-1.484 1.047v-1.047l-1.407.11v.312c.704 0 .782.062.782.562z"/></symbol></defs><use y="134.765" x="223.432" xlink:href="#o" width="744.094" height="1052.362"/><use y="134.765" x="228.967" xlink:href="#p" width="744.094" height="1052.362"/><g><use y="134.765" x="233.116" xlink:href="#q" width="744.094" height="1052.362"/><use y="134.765" x="238.651" xlink:href="#r" width="744.094" height="1052.362"/><use y="134.765" x="241.418" xlink:href="#s" width="744.094" height="1052.362"/><use y="134.765" x="245.321" xlink:href="#t" width="744.094" height="1052.362"/></g></g></svg>