<svg xmlns:ns0="http://www.iki.fi/pav/software/textext/" xmlns="http://www.w3.org/2000/svg" xmlns:xlink="http://www.w3.org/1999/xlink" width="1052.362" height="744.094"><title>Totalreflexion</title><defs><linearGradient id="a"><stop offset="0" stop-color="#f95"/><stop offset="1" stop-color="#fffb36"/></linearGradient><marker id="c" orient="auto" overflow="visible"><path transform="scale(-.6)" d="M8.719 4.034L-2.207.016 8.719-4.002c-1.746 2.372-1.736 5.618 0 8.036z" font-size="12" fill-rule="evenodd" stroke-width=".625" stroke-linejoin="round"/></marker><linearGradient id="b"><stop offset="0" stop-color="#f95"/><stop offset="1" stop-color="#fffb36"/></linearGradient><marker id="d" orient="auto" overflow="visible"><path transform="scale(-.6)" d="M8.719 4.034L-2.207.016 8.719-4.002c-1.746 2.372-1.736 5.618 0 8.036z" font-size="12" fill-rule="evenodd" stroke-width=".625" stroke-linejoin="round"/></marker></defs><path fill="#fff" stroke="#fff" stroke-linecap="round" stroke-linejoin="round" d="M171.029 108.668h710.305v526.76H171.029z"/><path style="marker:none" color="#000" fill="#f9f9f9" stroke="#f9f9f9" stroke-width=".5" stroke-linecap="round" overflow="visible" d="M222.003 148.68H830.36v446.735H222.003z"/><path style="marker:none" color="#000" fill="#ececec" stroke="#ececec" stroke-width=".5" overflow="visible" d="M222.003 373.227H830.36v222.188H222.003z"/><path fill="#666" d="M222.003 370.867H830.36v2.36H222.003z"/><path d="M526.181 536.799V207.296" fill="none" stroke="#000" stroke-linecap="round" stroke-dasharray="1.99999993,1.99999993"/><path d="M668.507 498.083L528.152 373.977" fill="none" stroke="#f60" stroke-width="2" stroke-linecap="round" stroke-dasharray="2.00000001,6.00000005"/><path d="M526.181 680.315l193.365-.012" fill="none" stroke="#d40000" stroke-width="2" stroke-linecap="round" marker-end="url(#c)" transform="translate(0 -308.268)"/><path d="M384.945 805.359l139.622-124.106" fill="none" stroke="#f60" stroke-width="2" stroke-linecap="round" marker-end="url(#d)" transform="translate(0 -308.268)"/><path d="M306.422 266.902c20.636-16.68 48.817-16.513 69.288.408" transform="matrix(1.06852 .85338 -.8788 1.03761 434.668 -229.335)" fill="none" stroke="#000" stroke-width="1.467" stroke-linejoin="round" stroke-miterlimit="6.7" marker-end="url(#d)"/><path transform="matrix(-1.23751 -1.00332 1.01778 -1.21992 633.253 1089.637)" d="M306.422 266.902c11.511-9.304 25.753-13.613 39.988-12.1" fill="none" stroke="#000" stroke-width="1.257" stroke-linejoin="round" stroke-miterlimit="6.7" marker-end="url(#d)"/><g ns0:text="$\\beta = 90 ^{\\circ}$" ns0:preamble="/home/waldgeist/data/sphinx/inkscape-preamble.tex" transform="matrix(1.83437 0 0 1.81336 119.229 113.27)" fill="#d40000"><defs><symbol overflow="visible" id="e"><path d="M5.734-5.672c0-.75-.546-1.36-1.359-1.36-.578 0-.86.157-1.203.407C2.625-6.219 2.078-5.25 1.89-4.5L.297 1.828c0 .047.047.11.125.11s.11-.032.11-.047l.702-2.766c.188.61.625.969 1.36.969.719 0 1.469-.344 1.922-.781a2.486 2.486 0 0 0 .796-1.829c0-.718-.375-1.25-.734-1.484.578-.344 1.156-.953 1.156-1.672zM3.938-4.016c-.126.047-.235.063-.485.063-.14 0-.328.015-.437-.031.03-.11.39-.079.5-.079.203 0 .296 0 .421.047zm1.234-1.89c0 .703-.375 1.422-.89 1.734-.282-.11-.47-.125-.766-.125-.22 0-.782-.016-.782.313 0 .28.516.25.688.25.375 0 .531 0 .828-.125.375.359.422.671.438 1.125.015.578-.22 1.328-.5 1.718-.391.532-1.063.891-1.625.891-.766 0-1.141-.578-1.141-1.281 0-.094 0-.25.047-.438l.64-2.515c.22-.86.938-2.454 2.141-2.454.578 0 .922.313.922.907zm0 0"/></symbol><symbol overflow="visible" id="f"><path d="M6.844-3.266c.156 0 .343 0 .343-.187 0-.203-.187-.203-.328-.203H.891c-.141 0-.329 0-.329.203 0 .187.188.187.329.187zm.015 1.938c.141 0 .329 0 .329-.203 0-.188-.188-.188-.344-.188H.89c-.141 0-.329 0-.329.188 0 .203.188.203.329.203zm0 0"/></symbol><symbol overflow="visible" id="g"><path d="M3.656-3.172v.328c0 2.328-1.031 2.781-1.61 2.781-.171 0-.718-.015-.983-.359.437 0 .515-.281.515-.453 0-.313-.234-.453-.453-.453-.156 0-.453.078-.453.469 0 .671.531 1.078 1.375 1.078 1.297 0 2.515-1.36 2.515-3.5 0-2.688-1.156-3.36-2.046-3.36-.547 0-1.032.188-1.454.625-.421.454-.64.875-.64 1.625 0 1.235.875 2.22 1.984 2.22.61 0 1.016-.423 1.25-1zm-1.234.766c-.156 0-.625 0-.922-.625-.188-.375-.188-.86-.188-1.36 0-.53 0-1 .22-1.375.265-.5.64-.625.984-.625.468 0 .796.344.968.782.11.328.157.953.157 1.406 0 .828-.344 1.797-1.22 1.797zm0 0"/></symbol><symbol overflow="visible" id="h"><path d="M4.578-3.188c0-.796-.047-1.593-.39-2.328C3.733-6.484 2.905-6.64 2.5-6.64c-.61 0-1.328.266-1.75 1.188-.313.687-.36 1.469-.36 2.266 0 .75.032 1.64.454 2.406a1.83 1.83 0 0 0 1.64 1c.532 0 1.297-.203 1.735-1.157.312-.687.36-1.468.36-2.25zM2.484 0c-.39 0-.984-.25-1.156-1.203-.11-.594-.11-1.516-.11-2.11 0-.64 0-1.296.079-1.828.187-1.187.937-1.28 1.187-1.28.329 0 .985.187 1.172 1.171.11.563.11 1.313.11 1.938 0 .75 0 1.421-.11 2.062C3.5-.297 2.937 0 2.484 0zm0 0"/></symbol><symbol overflow="visible" id="i"><path d="M3.531-1.734c0-.844-.672-1.5-1.5-1.5s-1.5.671-1.5 1.484a1.5 1.5 0 0 0 1.5 1.5c.844 0 1.5-.672 1.5-1.484zm-1.5 1.14A1.157 1.157 0 1 1 3.187-1.75c0 .656-.515 1.156-1.156 1.156zm0 0"/></symbol></defs><use height="744.094" width="1052.362" xlink:href="#e" x="223.432" y="134.765"/><use height="744.094" width="1052.362" xlink:href="#f" x="232.36" y="134.765"/><use height="744.094" width="1052.362" xlink:href="#g" x="242.879" y="134.765"/><use height="744.094" width="1052.362" xlink:href="#h" x="247.86" y="134.765"/><g><use height="744.094" width="1052.362" xlink:href="#i" x="252.839" y="131.149"/></g></g><g transform="matrix(2.4464 0 0 2.4184 -73.575 106.108)" ns0:preamble="/home/waldgeist/data/sphinx/inkscape-preamble.tex" ns0:text="$\\alpha _{\\rm{max}}$" fill="#f60"><defs><symbol id="j" overflow="visible"><path d="M4.75-2.36c0-1.562-.922-2.046-1.656-2.046-1.375 0-2.688 1.422-2.688 2.828C.406-.641 1 .109 2.031.109c.625 0 1.344-.234 2.094-.843.125.53.453.843.906.843.532 0 .844-.546.844-.703 0-.078-.063-.11-.125-.11-.063 0-.094.032-.125.11-.188.485-.547.485-.563.485-.312 0-.312-.782-.312-1.016 0-.203 0-.234.11-.344C5.796-2.656 6-3.812 6-3.812c0-.032-.016-.11-.125-.11-.094 0-.094.031-.14.219-.188.625-.516 1.375-.985 1.969zM4.094-.983c-.89.765-1.657.875-2.047.875-.594 0-.906-.454-.906-1.094 0-.484.265-1.563.578-2.063.468-.734 1.015-.921 1.36-.921.983 0 .983 1.312.983 2.078 0 .375 0 .953.032 1.125zm0 0"/></symbol><symbol id="k" overflow="visible"><path d="M5.734-2.11c0-.609-.312-.968-1.046-.968-.563 0-.938.297-1.125.656-.141-.5-.516-.656-1.016-.656-.578 0-.938.312-1.14.687v-.687L.374-3v.25c.469 0 .531.047.531.39v1.813c0 .297-.078.297-.531.297V0c.016 0 .5-.031.797-.031.25 0 .734.031.797.031v-.25c-.453 0-.516 0-.516-.297v-1.265c0-.72.578-1.063 1.031-1.063.485 0 .547.375.547.734v1.594c0 .297-.062.297-.515.297V0c.015 0 .5-.031.796-.031.25 0 .735.031.797.031v-.25c-.453 0-.515 0-.515-.297v-1.265c0-.72.578-1.063 1.031-1.063.484 0 .547.375.547.734v1.594c0 .297-.063.297-.516.297V0c.016 0 .5-.031.797-.031.25 0 .734.031.797.031v-.25c-.453 0-.516 0-.516-.297zm0 0"/></symbol><symbol id="l" overflow="visible"><path d="M3.11-1.875c0-.36 0-.625-.329-.89C2.5-3 2.171-3.11 1.75-3.11c-.656 0-1.125.25-1.125.671 0 .235.156.344.344.344a.32.32 0 0 0 .328-.328.319.319 0 0 0-.25-.312c.25-.172.656-.172.687-.172.391 0 .829.25.829.844v.203c-.391.015-.844.046-1.36.234-.625.219-.812.61-.812.922 0 .594.718.765 1.218.765.547 0 .875-.312 1.032-.578.015.282.203.547.53.547.017 0 .688 0 .688-.656v-.39h-.234v.374c0 .079 0 .407-.266.407-.25 0-.25-.329-.25-.407zm-.547.89c0 .672-.594.86-.907.86-.36 0-.687-.234-.687-.578 0-.39.328-.922 1.594-.969zm0 0"/></symbol><symbol id="m" overflow="visible"><path d="M2.36-1.563l-.047-.062c0-.031.453-.516.515-.578.25-.281.485-.547 1.047-.547V-3c-.203.016-.406.031-.594.031-.203 0-.484-.015-.687-.031v.25c.11.016.14.094.14.156 0 .016 0 .125-.109.235l-.484.546-.579-.656c-.078-.078-.078-.11-.078-.14 0-.094.094-.141.188-.141V-3c-.25.016-.516.031-.781.031-.204 0-.47-.015-.672-.031v.25c.312 0 .5 0 .687.203l.86 1c.015.016.062.063.062.078 0 .016-.531.594-.594.672-.265.281-.5.531-1.046.547V0C.39-.016.546-.031.765-.031c.203 0 .484.015.687.031v-.25c-.078-.016-.14-.063-.14-.156 0-.14.078-.235.187-.344l.5-.547.594.703c.14.14.14.156.14.203 0 .125-.156.141-.187.141V0c.062 0 .562-.031.781-.031.219 0 .453.015.672.031v-.25c-.469 0-.516-.047-.688-.219zm0 0"/></symbol></defs><use y="134.765" x="223.432" xlink:href="#j" width="1052.362" height="744.094"/><use y="136.259" x="229.805" xlink:href="#k" width="1052.362" height="744.094"/><use y="136.259" x="236.35" xlink:href="#l" width="1052.362" height="744.094"/><use y="136.259" x="240.321" xlink:href="#m" width="1052.362" height="744.094"/></g></svg>