<svg xmlns:ns0="http://www.iki.fi/pav/software/textext/" xmlns="http://www.w3.org/2000/svg" xmlns:xlink="http://www.w3.org/1999/xlink" width="210mm" height="297mm"><title>Lichtbeugung und Interferenz am optischen Gitter</title><defs><marker id="f" orient="auto" overflow="visible"><path d="M-4 0l-2 2 7-2-7-2 2 2z" fill-rule="evenodd" stroke="#000" stroke-width=".4pt"/></marker><marker id="e" orient="auto" overflow="visible"><path d="M4 0l2-2-7 2 7 2-2-2z" fill-rule="evenodd" stroke="#000" stroke-width=".4pt"/></marker><marker id="q" orient="auto" overflow="visible"><path transform="scale(.6)" d="M8.719 4.034L-2.207.016 8.719-4.002c-1.746 2.372-1.736 5.618 0 8.036z" fill-rule="evenodd" stroke-width=".625" stroke-linejoin="round"/></marker><marker orient="auto" id="k" overflow="visible"><path d="M8.719 4.034L-2.207.016 8.719-4.002c-1.746 2.372-1.736 5.618 0 8.036z" transform="scale(-.6)" font-size="12" fill-rule="evenodd" stroke-width=".625" stroke-linejoin="round"/></marker><marker orient="auto" id="r" overflow="visible"><path d="M8.719 4.034L-2.207.016 8.719-4.002c-1.746 2.372-1.736 5.618 0 8.036z" transform="scale(-.6)" fill-rule="evenodd" stroke-width=".625" stroke-linejoin="round"/></marker></defs><path style="marker:none" color="#000" fill="#fff" stroke="#fff" stroke-linecap="round" stroke-linejoin="round" stroke-dasharray=".99999995,1.99999991" overflow="visible" d="M12.655 231.954h702.381v545.578H12.655z"/><path style="marker:none" color="#000" fill="#f9f9f9" stroke="#f9f9f9" stroke-width=".427" stroke-linecap="round" stroke-dasharray="1.28196469,2.56392941" overflow="visible" d="M33.511 241.185h660.668v527.116H33.511z"/><path d="M173.17 568.197v89.837l7.966-20.237v-49.4z" fill="#999" stroke="#000" stroke-linecap="round" stroke-linejoin="round"/><path d="M181.136 534.742h495.276" fill="none" stroke="gray" stroke-dasharray=".87830783,1.75661559"/><path d="M176.048 370.494a2.423 2.423 0 1 1-4.847 0 2.423 2.423 0 1 1 4.847 0zM175.593 661.64a2.423 2.423 0 1 1-4.847 0 2.423 2.423 0 1 1 4.847 0z" stroke="#000" stroke-width="1.53544106" stroke-linecap="round"/><path d="M173.625 370.494l102.462 247.55" fill="none" stroke="gray" stroke-width="1.5" stroke-linecap="round" stroke-linejoin="round" stroke-dasharray="1.50000001,3.00000002"/><g transform="translate(-414.674 142) scale(2.48807)" ns0:preamble="/home/waldgeist/data/sphinx/inkscape-preamble.tex" ns0:text="$\\rm{Z}_2$" fill="#666" stroke="gray" stroke-width=".804"><defs><symbol id="a" overflow="visible"><path d="M5.453-6.453c.063-.11.063-.125.063-.203 0-.157-.047-.157-.25-.157H.796l-.109 2.25h.25C1-5.688 1.313-6.5 2.938-6.5H4.5L.625-.375c-.063.11-.063.125-.063.203C.563 0 .61 0 .813 0h4.594l.172-2.656h-.25C5.25-1.281 5.062-.344 3.218-.344h-1.64z" stroke="none"/></symbol><symbol id="b" overflow="visible"><path d="M3.516-1.266H3.28c-.015.157-.094.563-.187.625-.047.047-.578.047-.688.047H1.125c.734-.64.984-.844 1.39-1.172.516-.406 1-.843 1-1.5 0-.843-.734-1.359-1.624-1.359-.86 0-1.454.61-1.454 1.25 0 .344.297.39.376.39.156 0 .359-.124.359-.374 0-.125-.047-.375-.406-.375.218-.485.687-.641 1.015-.641.703 0 1.063.547 1.063 1.11 0 .609-.438 1.078-.656 1.328L.516-.266C.437-.203.437-.187.437 0h2.876z" stroke="none"/></symbol></defs><use y="134.765" x="223.432" xlink:href="#a" width="744.094" height="1052.362"/><use y="136.259" x="229.52" xlink:href="#b" width="744.094" height="1052.362"/></g><g ns0:text="$\\rm{Z}_1$" ns0:preamble="/home/waldgeist/data/sphinx/inkscape-preamble.tex" transform="translate(-414.674 43.764) scale(2.48807)" fill="#666" stroke="gray" stroke-width=".804"><defs><symbol overflow="visible" id="c"><path d="M5.453-6.453c.063-.11.063-.125.063-.203 0-.157-.047-.157-.25-.157H.796l-.109 2.25h.25C1-5.688 1.313-6.5 2.938-6.5H4.5L.625-.375c-.063.11-.063.125-.063.203C.563 0 .61 0 .813 0h4.594l.172-2.656h-.25C5.25-1.281 5.062-.344 3.218-.344h-1.64z" stroke="none"/></symbol><symbol overflow="visible" id="d"><path d="M2.328-4.438c0-.187 0-.187-.203-.187-.453.438-1.078.438-1.36.438v.25c.157 0 .626 0 1-.188v3.547c0 .234 0 .328-.687.328H.812V0c.125 0 .985-.031 1.235-.031.219 0 1.094.031 1.25.031v-.25H3.03c-.703 0-.703-.094-.703-.328z" stroke="none"/></symbol></defs><use height="1052.362" width="744.094" xlink:href="#c" x="223.432" y="134.765"/><use height="1052.362" width="744.094" xlink:href="#d" x="229.52" y="136.259"/></g><path d="M107.77 565.95l.142 93.183" fill="#782121" stroke="#4d4d4d" stroke-width="1.5" marker-start="url(#e)" marker-end="url(#f)"/><path style="marker:none" color="#000" fill="#f9f9f9" stroke="#f9f9f9" stroke-width="1.5" stroke-linecap="round" stroke-linejoin="round" overflow="visible" d="M96.814 596.323h21.909v32.325H96.814z"/><path d="M91.151 564.591h33.127" fill="none" stroke="#4d4d4d" stroke-linecap="round" stroke-linejoin="round" stroke-dasharray="1,2"/><path d="M91.151 661.64h33.127" fill="none" stroke="#4d4d4d" stroke-linecap="round" stroke-linejoin="round" stroke-dasharray="1.00000005,1.99999999"/><path d="M173.17 471.148v89.838l7.966-20.238v-49.4zM173.17 277.05v89.838l7.966-20.237v-49.4zM173.17 374.1v89.837l7.966-20.238v-49.4zM173.17 665.246v89.837l7.966-20.237v-49.4z" fill="#999" stroke="#000" stroke-linecap="round" stroke-linejoin="round"/><path d="M175.593 564.591a2.423 2.423 0 1 1-4.847 0 2.423 2.423 0 1 1 4.847 0zM175.593 467.542a2.423 2.423 0 1 1-4.847 0 2.423 2.423 0 1 1 4.847 0z" stroke="#000" stroke-width="1.53544106" stroke-linecap="round"/><g transform="translate(-414.674 237.12) scale(2.48807)" ns0:preamble="/home/waldgeist/data/sphinx/inkscape-preamble.tex" ns0:text="$\\rm{Z}_3$" fill="#666" stroke="gray" stroke-width=".804"><defs><symbol id="g" overflow="visible"><path d="M5.453-6.453c.063-.11.063-.125.063-.203 0-.157-.047-.157-.25-.157H.796l-.109 2.25h.25C1-5.688 1.313-6.5 2.938-6.5H4.5L.625-.375c-.063.11-.063.125-.063.203C.563 0 .61 0 .813 0h4.594l.172-2.656h-.25C5.25-1.281 5.062-.344 3.218-.344h-1.64z" stroke="none"/></symbol><symbol id="h" overflow="visible"><path d="M1.906-2.328c.547 0 .938.375.938 1.125 0 .86-.516 1.125-.906 1.125-.282 0-.907-.078-1.188-.5.328 0 .406-.235.406-.39 0-.22-.172-.376-.39-.376a.38.38 0 0 0-.391.407C.375-.281 1.094.14 1.938.14c.968 0 1.64-.657 1.64-1.344 0-.547-.437-1.094-1.203-1.25.719-.266.984-.781.984-1.219 0-.547-.625-.953-1.406-.953-.766 0-1.36.375-1.36.938 0 .234.157.359.36.359.219 0 .36-.156.36-.344 0-.203-.141-.36-.36-.375.25-.297.719-.375.985-.375.312 0 .75.156.75.75 0 .297-.094.625-.282.828-.219.266-.422.281-.765.313-.172.015-.188.015-.22.015-.015 0-.077.016-.077.094 0 .094.062.094.187.094z" stroke="none"/></symbol></defs><use y="134.765" x="223.432" xlink:href="#g"/><use y="136.259" x="229.52" xlink:href="#h"/></g><g ns0:text="$\\rm{Z}_4$" ns0:preamble="/home/waldgeist/data/sphinx/inkscape-preamble.tex" transform="translate(-414.674 328.242) scale(2.48807)" fill="#666" stroke="gray" stroke-width=".804"><defs><symbol overflow="visible" id="i"><path d="M5.453-6.453c.063-.11.063-.125.063-.203 0-.157-.047-.157-.25-.157H.796l-.109 2.25h.25C1-5.688 1.313-6.5 2.938-6.5H4.5L.625-.375c-.063.11-.063.125-.063.203C.563 0 .61 0 .813 0h4.594l.172-2.656h-.25C5.25-1.281 5.062-.344 3.218-.344h-1.64z" stroke="none"/></symbol><symbol overflow="visible" id="j"><path d="M3.688-1.14v-.25h-.782V-4.5c0-.14 0-.203-.14-.203-.094 0-.125 0-.188.11L.266-1.392v.25h2.062v.563c0 .25 0 .328-.578.328h-.188V0c.36-.016.797-.031 1.047-.031.266 0 .704.015 1.063.031v-.25h-.188c-.578 0-.578-.078-.578-.328v-.563zM2.375-3.939v2.547H.531z" stroke="none"/></symbol></defs><use xlink:href="#i" x="223.432" y="134.765"/><use xlink:href="#j" x="229.52" y="136.259"/></g><path d="M173.17 564.591l34.052 82.947" fill="none" stroke="gray" stroke-width="1.5" stroke-linecap="round" stroke-linejoin="round" stroke-dasharray="1.5,3"/><path d="M173.17 467.543l68.22 164.963" fill="none" stroke="gray" stroke-width="1.5" stroke-linecap="round" stroke-linejoin="round" stroke-dasharray="1.5,3.00000001"/><path d="M173.17 467.543l302.863-125.45M173.625 370.494L442.336 259.19" fill="none" stroke="#f60" stroke-width="1.5" stroke-linecap="round" marker-end="url(#k)"/><g transform="translate(-454.211 280.116) scale(2.48807)" ns0:preamble="/home/waldgeist/data/sphinx/inkscape-preamble.tex" ns0:text="$g$"><defs><symbol id="l" overflow="visible"><path d="M4.688-3.766a.562.562 0 0 0 .03-.171c0-.172-.109-.266-.28-.266-.094 0-.375.062-.407.422-.187-.36-.531-.625-.937-.625-1.125 0-2.36 1.39-2.36 2.828C.734-.594 1.328 0 2.047 0c.594 0 1.062-.469 1.156-.578l.016.015C3.016.313 2.89.734 2.89.75c-.047.094-.375 1.078-1.438 1.078a2.68 2.68 0 0 1-.797-.11.542.542 0 0 0 .406-.515C1.063 1.047.954.86.688.86a.546.546 0 0 0-.53.579c0 .406.359.609 1.312.609 1.25 0 1.968-.781 2.125-1.375zM3.405-1.28c-.062.265-.297.515-.515.703-.204.172-.516.36-.813.36-.5 0-.64-.516-.64-.923 0-.468.28-1.656.562-2.156.266-.484.688-.89 1.11-.89.656 0 .796.812.796.859 0 .047-.015.11-.031.14z"/></symbol></defs><use y="134.765" x="223.432" xlink:href="#l" width="744.094" height="1052.362"/></g><path d="M91.151 467.659h33.127M91.151 370.494h33.127" fill="none" stroke="#4d4d4d" stroke-linecap="round" stroke-linejoin="round" stroke-dasharray="1,2"/><path d="M107.77 469.95l.142 93.183" fill="#782121" stroke="#4d4d4d" stroke-width="1.5" marker-start="url(#e)" marker-end="url(#f)"/><path style="marker:none" color="#000" fill="#f9f9f9" stroke="#f9f9f9" stroke-width="1.5" stroke-linecap="round" stroke-linejoin="round" overflow="visible" d="M96.814 500.323h21.909v32.325H96.814z"/><use height="1052.362" width="744.094" xlink:href="#l" x="223.432" y="134.765" transform="translate(-454.211 184.116) scale(2.48807)" ns0:text="$g$" ns0:preamble="/home/waldgeist/data/sphinx/inkscape-preamble.tex"/><path d="M107.77 371.95l.142 93.183" fill="#782121" stroke="#4d4d4d" stroke-width="1.5" marker-start="url(#e)" marker-end="url(#f)"/><path style="marker:none" color="#000" fill="#f9f9f9" stroke="#f9f9f9" stroke-width="1.5" stroke-linecap="round" stroke-linejoin="round" overflow="visible" d="M96.814 402.323h21.909v32.325H96.814z"/><use y="134.765" x="223.432" xlink:href="#l" width="744.094" height="1052.362" transform="translate(-454.211 86.116) scale(2.48807)" ns0:preamble="/home/waldgeist/data/sphinx/inkscape-preamble.tex" ns0:text="$g$"/><path d="M173.17 564.591L510.4 424.906" fill="none" stroke="#f60" stroke-width="1.5" stroke-linecap="round" marker-end="url(#k)"/><g ns0:text="$\\Delta s$" ns0:preamble="/home/waldgeist/data/sphinx/inkscape-preamble.tex"><path d="M188.837 468.736c-.278-.263-.394-.341-.79-.178-.358.149-.386.287-.395.67l-1.331 18.729c-.019.26-.004.296.01.332.075.18.219.12.578-.029l15.911-6.59c.36-.15.503-.209.429-.388-.015-.036-.03-.072-.227-.243zm-.555 2.418l11.31 9.833-12.355 5.118zM209.8 468.721c-.596.29-.854.986-.646 1.488.134.324.498.594 1.001.385.503-.208.878-.826.506-1.724-.431-1.042-1.788-1.574-3.548-.845-3.017 1.25-2.912 3.941-2.495 4.947.743 1.796 2.565 1.42 3.307 1.28 1.29-.239 2.58-.478 3.1.779.238.575.538 2.722-2.227 3.868-.323.134-2.083.863-3.128-.135.943-.264 1.235-1.185.967-1.831-.208-.503-.723-.627-1.19-.433-.61.252-1.099 1.002-.668 2.044.536 1.293 2.252 1.676 4.191.873 3.736-1.548 3.488-4.685 3.056-5.727a2.413 2.413 0 0 0-1.402-1.354c-.879-.394-1.62-.255-2.7-.018-.901.163-1.873.355-2.305-.687-.268-.646-.309-2.27 1.702-3.103.575-.238 1.799-.535 2.479.193z"/></g><path style="marker:none" color="#000" fill="#f9f9f9" stroke="#f9f9f9" stroke-linecap="round" stroke-linejoin="round" overflow="visible" d="M175.09 565.27l66.43-27.517 10.665 25.746-66.431 27.517z"/><g ns0:text="$2\\cdot\\Delta s$" ns0:preamble="/home/waldgeist/data/sphinx/inkscape-preamble.tex" transform="rotate(-22.5 992.647 1386.953) scale(2.48807)"><defs><symbol overflow="visible" id="m"><path d="M1.266-.766l1.062-1.03c1.547-1.376 2.14-1.907 2.14-2.907 0-1.14-.89-1.938-2.109-1.938C1.234-6.64.5-5.719.5-4.828c0 .547.5.547.531.547.172 0 .516-.11.516-.532a.513.513 0 0 0-.531-.515c-.079 0-.094 0-.125.016.218-.657.765-1.016 1.343-1.016.907 0 1.329.812 1.329 1.625 0 .797-.485 1.578-1.047 2.203L.609-.375C.5-.265.5-.235.5 0h3.703l.266-1.734h-.235C4.172-1.438 4.11-1 4-.844c-.063.078-.719.078-.938.078z"/></symbol><symbol overflow="visible" id="o"><path d="M4.406-6.953c-.062-.14-.093-.188-.265-.188-.157 0-.188.047-.25.188L.516-.203c-.047.094-.047.11-.047.125C.469 0 .53 0 .688 0h6.921c.157 0 .22 0 .22-.078 0-.016 0-.031-.048-.125zm-.578.812L6.516-.75H1.14z"/></symbol><symbol overflow="visible" id="n"><path d="M1.906-2.5a.524.524 0 1 0-.516.531.524.524 0 0 0 .516-.531z"/></symbol><symbol overflow="visible" id="p"><path d="M3.89-3.734c-.265.015-.468.234-.468.453 0 .14.094.297.312.297.22 0 .454-.172.454-.563 0-.453-.422-.86-1.188-.86-1.313 0-1.688 1.016-1.688 1.454 0 .781.735.922 1.032.984.515.11 1.031.219 1.031.766 0 .25-.219 1.094-1.422 1.094-.14 0-.906 0-1.14-.532.39.047.64-.25.64-.53 0-.22-.172-.345-.375-.345-.266 0-.562.204-.562.657 0 .562.578.968 1.421.968 1.625 0 2.016-1.203 2.016-1.656a.97.97 0 0 0-.312-.719c-.266-.28-.563-.343-1-.421-.36-.079-.75-.157-.75-.61 0-.281.234-.89 1.109-.89.25 0 .75.078.89.453z"/></symbol></defs><use height="1052.362" width="744.094" xlink:href="#m" x="223.432" y="134.765"/><use height="1052.362" width="744.094" xlink:href="#n" x="230.627" y="134.765"/><use height="1052.362" width="744.094" xlink:href="#o" x="235.609" y="134.765"/><use height="1052.362" width="744.094" xlink:href="#p" x="243.911" y="134.765"/></g><path d="M279.994 632.549L178.67 674.992" fill="none" stroke="#4d4d4d" stroke-width="1.5" marker-start="url(#q)" marker-end="url(#r)"/><path style="marker:none" color="#000" fill="#f9f9f9" stroke="#f9f9f9" stroke-linecap="round" stroke-linejoin="round" overflow="visible" d="M191.94 655.681l66.432-27.517 8.948 21.602-66.431 27.517z"/><g transform="rotate(-22.5 1228.86 1389.41) scale(2.48807)" ns0:preamble="/home/waldgeist/data/sphinx/inkscape-preamble.tex" ns0:text="$3\\cdot\\Delta s$"><defs><symbol id="s" overflow="visible"><path d="M2.89-3.516c.813-.265 1.391-.953 1.391-1.75 0-.812-.875-1.375-1.828-1.375-1 0-1.765.594-1.765 1.36 0 .328.218.515.515.515.297 0 .5-.218.5-.515 0-.485-.469-.485-.61-.485.298-.5.954-.625 1.313-.625.422 0 .969.22.969 1.11 0 .125-.031.703-.281 1.14-.297.485-.64.516-.89.516a3.29 3.29 0 0 1-.392.031c-.078.016-.14.031-.14.125 0 .11.062.11.234.11h.438c.812 0 1.187.671 1.187 1.656 0 1.36-.687 1.64-1.125 1.64-.437 0-1.187-.171-1.531-.75.344.047.656-.171.656-.546a.537.537 0 0 0-.547-.563c-.25 0-.562.14-.562.578C.422-.437 1.344.22 2.437.22c1.22 0 2.126-.906 2.126-1.922 0-.813-.641-1.594-1.672-1.813z"/></symbol><symbol id="u" overflow="visible"><path d="M4.406-6.953c-.062-.14-.093-.188-.265-.188-.157 0-.188.047-.25.188L.516-.203c-.047.094-.047.11-.047.125C.469 0 .53 0 .688 0h6.921c.157 0 .22 0 .22-.078 0-.016 0-.031-.048-.125zm-.578.812L6.516-.75H1.14z"/></symbol><symbol id="t" overflow="visible"><path d="M1.906-2.5a.524.524 0 1 0-.516.531.524.524 0 0 0 .516-.531z"/></symbol><symbol id="v" overflow="visible"><path d="M3.89-3.734c-.265.015-.468.234-.468.453 0 .14.094.297.312.297.22 0 .454-.172.454-.563 0-.453-.422-.86-1.188-.86-1.313 0-1.688 1.016-1.688 1.454 0 .781.735.922 1.032.984.515.11 1.031.219 1.031.766 0 .25-.219 1.094-1.422 1.094-.14 0-.906 0-1.14-.532.39.047.64-.25.64-.53 0-.22-.172-.345-.375-.345-.266 0-.562.204-.562.657 0 .562.578.968 1.421.968 1.625 0 2.016-1.203 2.016-1.656a.97.97 0 0 0-.312-.719c-.266-.28-.563-.343-1-.421-.36-.079-.75-.157-.75-.61 0-.281.234-.89 1.109-.89.25 0 .75.078.89.453z"/></symbol></defs><use y="134.765" x="223.432" xlink:href="#s"/><use y="134.765" x="230.627" xlink:href="#t"/><use y="134.765" x="235.609" xlink:href="#u"/><use y="134.765" x="243.911" xlink:href="#v"/></g><path d="M173.17 661.64l372.162-154.155" fill="none" stroke="#f60" stroke-width="1.5" stroke-linecap="round" marker-end="url(#k)"/></svg>