<svg xmlns:ns0="http://www.iki.fi/pav/software/textext/" xmlns="http://www.w3.org/2000/svg" xmlns:xlink="http://www.w3.org/1999/xlink" width="210mm" height="297mm"><title>Lichtbrechung am Prisma</title><defs><linearGradient id="a"><stop offset="0" stop-color="#f95"/><stop offset="1" stop-color="#fffb36"/></linearGradient><marker orient="auto" id="c" overflow="visible"><path d="M8.719 4.034L-2.207.016 8.719-4.002c-1.746 2.372-1.736 5.618 0 8.036z" transform="scale(-.6)" font-size="12" fill-rule="evenodd" stroke-width=".625" stroke-linejoin="round"/></marker><linearGradient id="b"><stop offset="0" stop-color="#f95"/><stop offset="1" stop-color="#fffb36"/></linearGradient><marker orient="auto" id="d" overflow="visible"><path d="M8.719 4.034L-2.207.016 8.719-4.002c-1.746 2.372-1.736 5.618 0 8.036z" transform="scale(-.6)" font-size="12" fill-rule="evenodd" stroke-width=".625" stroke-linejoin="round"/></marker></defs><path opacity=".5" fill="#fff" stroke="#f9f9f9" stroke-linecap="round" stroke-linejoin="round" d="M712.937 726.134H31.158V326.229h681.779z"/><path style="marker:none" color="#000" fill="#f9f9f9" stroke="#f9f9f9" stroke-width=".427" stroke-linecap="round" stroke-dasharray="1.28196475,2.56392951" overflow="visible" d="M84.457 353.619h575.181v345.123H84.457z"/><path transform="matrix(2.3162 0 0 2.31838 560.652 54.927)" d="M-167.366 277.692l42.969-74.423 42.968-74.424 42.969 74.424 42.969 74.423H-81.43z" style="marker:none" color="#000" fill="#ececec" stroke="#666" stroke-width="1.295" stroke-linecap="round" stroke-linejoin="bevel" overflow="visible"/><path d="M84.9 563.334l571.99-115.556" fill="none" stroke="#f60" stroke-width="2" stroke-linecap="round" stroke-dasharray="1.32685158999999997,3.98055474000000009" marker-end="url(#c)"/><path d="M314.305 551.48l-87.081-50.335" fill="none" stroke="gray" stroke-linecap="round" stroke-dasharray="2,2"/><path d="M418.311 534.499l87.082-50.335" fill="none" stroke="gray" stroke-linecap="round" stroke-dasharray="1.99999995,1.99999995"/><path d="M461.852 509.331l194.353 18.235M271.864 526.09l189.988-16.759" fill="none" stroke="#d40000" stroke-width="2" stroke-linecap="round" marker-end="url(#c)"/><path d="M84.9 563.334l186.481-37.658" fill="none" stroke="#f60" stroke-width="2" stroke-linecap="round" marker-end="url(#c)"/><path d="M306.422 266.902a57.96 63.54 0 0 1 44.66-11.392" transform="matrix(-1.08863 -.25382 .29065 -1.07124 654.359 767.929)" fill="none" stroke="#000" stroke-width="1.796" stroke-linecap="round" stroke-linejoin="round" stroke-miterlimit="6.7" marker-end="url(#d)"/><g transform="translate(-230.798 35.813) scale(2.6556)" ns0:preamble="/home/waldgeist/data/sphinx/inkscape-preamble.tex" ns0:text="$\\gamma$" fill="#d40000" stroke="#d40000"><defs><symbol id="e" overflow="visible"><path d="M.406-2.531C.796-3.671 1.891-3.687 2-3.687c1.5 0 1.61 1.75 1.61 2.53 0 .61-.047.782-.126.985-.218.719-.515 1.875-.515 2.14 0 .11.047.173.125.173.14 0 .219-.22.328-.594.234-.844.328-1.406.36-1.719.03-.125.046-.25.093-.39.313-.985.953-2.47 1.344-3.25.078-.126.187-.344.187-.391 0-.094-.093-.094-.11-.094-.03 0-.093 0-.124.063-.516.953-.922 1.953-1.313 2.953-.015-.297-.015-1.063-.406-2.032-.25-.609-.64-1.093-1.328-1.093-1.25 0-1.953 1.515-1.953 1.828 0 .094.094.094.203.094z" stroke="none"/></symbol></defs><use y="134.765" x="223.432" xlink:href="#e" width="744.094" height="1052.362" fill="#000"/></g><path transform="matrix(-.39013 -.90105 -.88024 .41923 886.736 680.145)" d="M306.422 266.902a57.96 63.54 0 0 1 37.489-12.306" fill="none" stroke="#000" stroke-width="2.045" stroke-linecap="round" stroke-linejoin="round" stroke-miterlimit="6.7" marker-end="url(#d)"/><g transform="translate(-84.352 148.81) scale(2.6556)" ns0:preamble="/home/waldgeist/data/sphinx/inkscape-preamble.tex" ns0:text="$\\delta$" fill="#d40000" stroke="#d40000"><defs><symbol id="f" overflow="visible"><path d="M2.625-4.36C1.391-4.061.422-2.765.422-1.561.422-.595 1.062.125 2 .125c1.156 0 1.984-1.578 1.984-2.953 0-.906-.39-1.406-.734-1.844-.36-.453-.953-1.203-.953-1.64 0-.22.203-.454.547-.454.312 0 .5.125.719.266.203.125.39.25.546.25.25 0 .391-.234.391-.406 0-.219-.156-.235-.516-.328-.515-.11-.656-.11-.812-.11-.781 0-1.14.438-1.14 1.032 0 .546.296 1.093.593 1.703zm.125.22c.25.468.547 1 .547 1.718 0 .656-.375 2.328-1.297 2.328-.547 0-.969-.422-.969-1.187 0-.625.375-2.5 1.719-2.86z" stroke="none"/></symbol></defs><use y="134.765" x="223.432" xlink:href="#f" width="744.094" height="1052.362"/></g></svg>