<svg xmlns="http://www.w3.org/2000/svg" height="744.094" width="1052.362"><title>Lichtquelle Sonnenstrahlen</title><path fill="#fff" stroke="#f9f9f9" stroke-linejoin="round" d="M9.208 47.587h1033.945v648.92H9.208z"/><path stroke="#000" stroke-width="6.262" stroke-linejoin="round" d="M68.248 106.94h915.867v530.215H68.248z"/><path d="M576.819 379.46a3.63 3.63 0 1 1 .099-.84h-3.63z" fill="#00f" stroke="#00f" stroke-width="1.34870775"/><path d="M547.283 379.106a2.101 2.101 0 1 1 .057-.487h-2.102z" fill="#d38d5f" stroke="#d38d5f" stroke-width="5.15924385" stroke-linejoin="round"/><path d="M521.462 378.718a.424.424 0 1 1 .011-.099h-.424z" fill="#a40" stroke="#d45500" stroke-width="4.47018225" stroke-linejoin="round"/><path d="M604.936 378.813a.878.836 0 1 1 .024-.194h-.878z" fill="#a40" stroke="#d45500" stroke-width="3.2974272" stroke-linejoin="round"/><path d="M696.452 378.62a34.772 34.772 0 1 1-69.544 0 34.772 34.772 0 1 1 69.544 0z" fill="#c8c4b7" stroke="#ac9d93" stroke-width="7.096180799999999" stroke-linejoin="round"/><path d="M914.334 378.62a13.548 14.176 0 1 1-27.096 0 13.548 14.176 0 1 1 27.096 0z" fill="#87cdde" stroke="#5fbcd3" stroke-width="6.152064149999999" stroke-linejoin="round"/><path d="M463.557 275.416l-34.392 19.917a.934.934 0 1 0 .934 1.617l34.396-19.92a.934.934 0 1 0-.938-1.614z" style="text-indent:0;text-align:start;line-height:normal;text-transform:none;block-progression:tb;marker:none;-inkscape-font-specification:Sans" font-weight="400" color="#000" fill="#f60" overflow="visible" font-family="Sans"/><path style="text-indent:0;text-align:start;line-height:normal;text-transform:none;block-progression:tb;marker:none;-inkscape-font-specification:Sans" d="M388.81 201.458l-14.166 24.612a.667.667 0 1 0 1.156.667l14.168-24.615a.667.667 0 1 0-1.157-.664z" font-weight="400" color="#000" fill="#ffd42a" overflow="visible" font-family="Sans"/><path d="M286.29 174.559l.051 39.286a.923.923 0 1 0 1.846 0l-.051-39.292a.923.923 0 1 0-1.847.005zM184.584 202.348l19.943 34.437a.935.935 0 1 0 1.62-.935L186.2 201.408a.935.935 0 1 0-1.616.94zM109.892 278.002l34.48 19.847a.935.935 0 1 0 .936-1.62l-34.486-19.85a.935.935 0 1 0-.93 1.623z" style="text-indent:0;text-align:start;line-height:normal;text-transform:none;block-progression:tb;marker:none;-inkscape-font-specification:Sans" font-weight="400" color="#000" fill="#f60" overflow="visible" font-family="Sans"/><path d="M967.145 378.62a10.362 10.362 0 1 1-20.723 0 10.362 10.362 0 1 1 20.723 0z" fill="#06f" stroke="#0055d4" stroke-width="6.0726831" stroke-linejoin="round"/><path style="text-indent:0;text-align:start;line-height:normal;text-transform:none;block-progression:tb;marker:none;-inkscape-font-specification:Sans" d="M83.408 379.692l39.291-.052a.923.923 0 1 0 0-1.846l-39.296.052a.923.923 0 1 0 .005 1.846zM110.46 480.238l34.392-19.916a.934.934 0 1 0-.934-1.618l-34.396 19.92a.934.934 0 1 0 .939 1.614zM186.534 556.015l19.835-34.461a.934.934 0 1 0-1.618-.934l-19.838 34.466a.934.934 0 1 0 1.62.93zM288.484 582.683l-.052-39.293a.923.923 0 1 0-1.846 0l.052 39.299a.923.923 0 1 0 1.846-.005zM390.37 554.886l-19.942-34.438a.935.935 0 1 0-1.62.935l19.946 34.443a.935.935 0 1 0 1.617-.94zM464.774 479.712l-34.69-19.967a.94.94 0 1 0-.94 1.63l34.695 19.97a.94.94 0 1 0 .935-1.633z" font-weight="400" color="#000" fill="#f60" overflow="visible" font-family="Sans"/><path d="M439.7 378.621c0 84.075-68.155 152.23-152.23 152.23-84.074 0-152.23-68.155-152.23-152.23 0-84.074 68.156-152.23 152.23-152.23 84.075 0 152.23 68.156 152.23 152.23z" fill="#ffd42a"/><path d="M451.704 377.748l39.834-.053a.936.936 0 1 0 0-1.872l-39.84.053a.936.936 0 1 0 .005 1.872z" style="text-indent:0;text-align:start;line-height:normal;text-transform:none;block-progression:tb;marker:none;-inkscape-font-specification:Sans" font-weight="400" color="#000" fill="#f60" overflow="visible" font-family="Sans"/><g fill="#aca793" stroke="#666" stroke-width="6.555" stroke-linejoin="round"><path d="M824.08 378.62c0 15.516-12.579 28.096-28.096 28.096s-28.096-12.58-28.096-28.097c0-15.517 12.579-28.096 28.096-28.096s28.096 12.58 28.096 28.096z" stroke-width="6.552967949999999"/><path d="M744.313 348.684c-8.187.1-13.591 1.865-14.904 5.43-2.815 7.64 14.206 21.191 40.018 33.26 6.304 2.946 12.978 5.825 20.194 8.484 7.25 2.671 14.245 4.821 20.985 6.674 27.432 7.543 49.142 8.281 51.954.65 2.812-7.632-14.207-21.146-39.99-33.202.324.997.72 1.956.932 2.998.375 1.829.594 3.745.594 5.684 0 .96-.189 1.865-.283 2.8 5.86 4.06 9.003 7.851 8.06 10.408-.935 2.54-5.736 3.367-12.754 2.687-7.141-.692-16.56-2.935-26.557-6.618-9.91-3.652-18.506-8.003-24.379-12.076-5.873-4.074-9.033-7.874-8.089-10.436.936-2.54 5.746-3.372 12.756-2.687a28.363 28.363 0 0 1 3.28-3.96 28.173 28.173 0 0 1 4.158-3.422c.328-.222.708-.357 1.046-.565-14.613-4.022-27.682-6.224-37.02-6.11z" stroke-width="5.9324061"/></g><path style="text-indent:0;text-align:start;line-height:normal;text-transform:none;block-progression:tb;marker:none;-inkscape-font-specification:Sans" d="M388.61 201.346l-19.825 34.444a.934.934 0 1 0 1.617.933l19.829-34.449a.934.934 0 1 0-1.62-.928z" font-weight="400" color="#000" fill="#f60" overflow="visible" font-family="Sans"/><g font-size="25" font-weight="400" letter-spacing="0" word-spacing="0" writing-mode="tb-rl" fill="#fff" font-family="Sans"><text y="474.824" x="520.511" style="line-height:125%" transform="translate(49.977 -304.465) scale(.90502)"><tspan y="520.511" x="474.824">Merkur</tspan></text><text style="line-height:125%" x="546.457" y="474.824" transform="translate(49.977 -304.465) scale(.90502)"><tspan x="474.824" y="546.457">Venus</tspan></text><text y="474.824" x="578.309" style="line-height:125%" transform="translate(49.977 -304.465) scale(.90502)"><tspan y="578.309" x="474.824">Erde</tspan></text><text style="line-height:125%" x="612.258" y="474.824" transform="translate(49.977 -304.465) scale(.90502)"><tspan x="474.824" y="612.258">Mars</tspan></text><text y="474.824" x="675.798" style="line-height:125%" transform="translate(49.977 -304.465) scale(.90502)"><tspan y="675.798" x="474.824">Jupiter</tspan></text><text style="line-height:125%" x="824.197" y="475.087" transform="translate(49.977 -304.465) scale(.90502)"><tspan x="475.087" y="824.197">Saturn</tspan></text><text y="474.824" x="940.105" style="line-height:125%" transform="translate(49.977 -304.465) scale(.90502)"><tspan y="940.105" x="474.824">Uranus</tspan></text><text style="line-height:125%" x="1001.975" y="474.824" transform="translate(49.977 -304.465) scale(.90502)"><tspan x="474.824" y="1001.975">Neptun</tspan></text></g><text y="450.568" x="259.021" style="line-height:125%" font-size="22.626" font-weight="400" letter-spacing="0" word-spacing="0" fill="#fff" font-family="Sans" transform="translate(0 -308.268)"><tspan y="450.568" x="259.021">Sonne</tspan></text></svg>