<svg xmlns="http://www.w3.org/2000/svg" width="1052.362" height="744.094"><title>Lichtbrechung an Umkehrprismen</title><defs><linearGradient id="a"><stop offset="0" stop-color="#f95"/><stop offset="1" stop-color="#fffb36"/></linearGradient><marker orient="auto" id="c" overflow="visible"><path d="M8.719 4.034L-2.207.016 8.719-4.002c-1.746 2.372-1.736 5.618 0 8.036z" transform="scale(-.6)" font-size="12" fill-rule="evenodd" stroke-width=".625" stroke-linejoin="round"/></marker><linearGradient id="b"><stop offset="0" stop-color="#f95"/><stop offset="1" stop-color="#fffb36"/></linearGradient></defs><path opacity=".5" fill="#fff" stroke="#f9f9f9" stroke-linecap="round" stroke-linejoin="round" d="M1037.515 650.65H14.847V93.444h1022.668z"/><path style="marker:none" color="#000" fill="#f9f9f9" stroke="#f9f9f9" stroke-width=".427" stroke-linecap="round" stroke-dasharray="1.28196476,2.56392952" overflow="visible" d="M546.042 114.174h480.578V629.92H546.042zM25.742 114.174H506.32V629.92H25.742z"/><g stroke-linecap="round"><path style="marker:none" d="M720.116 607.896l.085-470.133 233.35 233.818z" color="#000" fill="#ececec" stroke="#666" stroke-width="3.0001509000000004" stroke-linejoin="round" overflow="visible"/><path d="M646.237 612.314h304.878M646.237 535.391h229.697M950.883 747.236H646.238M875.702 824.16H646.238" fill="none" stroke="#f60" stroke-width="2.238" marker-end="url(#c)" transform="matrix(.8937 0 0 .8937 42.717 -235.167)"/><path d="M875.934 535.391v288.534M951.121 612.314V747.81" fill="none" stroke="#d40000" stroke-width="2.238" marker-end="url(#c)" transform="matrix(.8937 0 0 .8937 42.717 -235.167)"/><path d="M857.303 211.514l-63.53 63.594M924.493 280.26l-63.53 63.595M924.285 464.434l-63.53-63.594M857.303 532.97l-63.53-63.594" fill="none" stroke="gray" stroke-width="1.0000503" stroke-dasharray="2.23789017,2.23789017"/><g color="#000" stroke="#000" stroke-linejoin="round"><path style="marker:none" d="M929.004 396.129c-13.558-13.558-13.558-35.539 0-49.096" fill="none" stroke-width="1.99989307" overflow="visible"/><path style="marker:none" d="M933.262 370.383a1.693 1.693 0 1 1 2.395 2.395 1.693 1.693 0 0 1-2.395-2.395z" stroke-width="2.0001006" overflow="visible"/></g></g><g stroke-linecap="round"><path d="M481.887 497.156L149.393 164.782l.33 330.338z" style="marker:none" color="#000" fill="#ececec" stroke="#666" stroke-width="3.0001509000000004" stroke-linejoin="round" overflow="visible"/><path d="M300.398 258.472l-63.53 63.594" fill="none" stroke="gray" stroke-width="1.0000503" stroke-dasharray="2.23789017,2.23789017"/><path d="M260.925 634.774v322.138" fill="none" stroke="#d40000" stroke-width="2.238" marker-end="url(#c)" transform="matrix(.8937 0 0 .8937 35.444 -277.028)"/><path d="M15.924 634.774h245.001" fill="none" stroke="#f60" stroke-width="2.238" marker-end="url(#c)" transform="matrix(.8937 0 0 .8937 35.444 -277.028)"/><path d="M382.495 750.4v206.512" fill="none" stroke="#d40000" stroke-width="2.238" marker-end="url(#c)" transform="matrix(.8937 0 0 .8937 35.444 -277.028)"/><path d="M15.924 750.4h366.571" fill="none" stroke="#f60" stroke-width="2.238" marker-end="url(#c)" transform="matrix(.8937 0 0 .8937 35.444 -277.028)"/><path d="M409.045 361.807l-63.53 63.594" fill="none" stroke="gray" stroke-width="1.0000503" stroke-dasharray="2.23789017,2.23789017"/><path d="M149.723 461.422c19.173 0 34.716 15.543 34.716 34.716" style="marker:none" color="#000" fill="none" stroke="#000" stroke-width="1.99989307" stroke-linejoin="round" overflow="visible"/><path d="M164.917 482.638a1.693 1.693 0 1 1-3.387 0 1.693 1.693 0 0 1 3.387 0z" style="marker:none" color="#000" stroke="#000" stroke-width="2.0001006" stroke-linejoin="round" overflow="visible"/></g><path d="M526.181 150.723v442.649" fill="none" stroke="gray" stroke-linecap="round"/></svg>