<svg xmlns:ns0="http://www.iki.fi/pav/software/textext/" xmlns="http://www.w3.org/2000/svg" xmlns:xlink="http://www.w3.org/1999/xlink" width="210mm" height="297mm"><title>Lichtbrechung an einer ebenen Platte</title><defs><linearGradient id="a"><stop offset="0" stop-color="#f95"/><stop offset="1" stop-color="#fffb36"/></linearGradient><marker id="f" orient="auto" overflow="visible"><path transform="scale(-.6)" d="M8.719 4.034L-2.207.016 8.719-4.002c-1.746 2.372-1.736 5.618 0 8.036z" font-size="12" fill-rule="evenodd" stroke-width=".625" stroke-linejoin="round"/></marker><linearGradient id="b"><stop offset="0" stop-color="#f95"/><stop offset="1" stop-color="#fffb36"/></linearGradient><marker id="d" orient="auto" overflow="visible"><path transform="scale(-.6)" d="M8.719 4.034L-2.207.016 8.719-4.002c-1.746 2.372-1.736 5.618 0 8.036z" font-size="12" fill-rule="evenodd" stroke-width=".625" stroke-linejoin="round"/></marker></defs><path opacity=".5" fill="#fff" stroke="#f9f9f9" stroke-linecap="round" stroke-linejoin="round" d="M16.895 262.802H727.2v526.759H16.895z"/><path style="marker:none" color="#000" fill="#f9f9f9" stroke="#f9f9f9" stroke-width=".5" stroke-linecap="round" stroke-dasharray="1.50000013,3.00000028" overflow="visible" d="M67.869 302.813h608.357v446.736H67.869z"/><path fill="#666" d="M67.869 473.498h608.357v2.36H67.869z"/><path style="marker:none" color="#000" fill="#ececec" stroke="#ececec" stroke-width=".5" stroke-linecap="round" stroke-dasharray="1.50000015,3.00000029" overflow="visible" d="M67.869 475.984h608.357v101.7H67.869z"/><path fill="#666" d="M67.869 577.684h608.357v2.36H67.869z"/><g transform="translate(-270.062 87.286) scale(2.6556)" ns0:text="$\\alpha$"><defs><symbol id="c" overflow="visible"><path d="M4.75-2.36c0-1.562-.922-2.046-1.656-2.046-1.375 0-2.688 1.422-2.688 2.828C.406-.641 1 .109 2.031.109c.625 0 1.344-.234 2.094-.843.125.53.453.843.906.843.532 0 .844-.546.844-.703 0-.078-.063-.11-.125-.11-.063 0-.094.032-.125.11-.188.485-.547.485-.563.485-.312 0-.312-.782-.312-1.016 0-.203 0-.234.11-.344C5.796-2.656 6-3.812 6-3.812c0-.032-.016-.11-.125-.11-.094 0-.094.031-.14.219-.188.625-.516 1.375-.985 1.969zM4.094-.983c-.89.765-1.657.875-2.047.875-.594 0-.906-.454-.906-1.094 0-.484.265-1.563.578-2.063.468-.734 1.015-.921 1.36-.921.983 0 .983 1.312.983 2.078 0 .375 0 .953.032 1.125zm0 0"/></symbol></defs><use y="134.765" x="223.432" xlink:href="#c" width="744.094" height="1052.362" transform="translate(-.672 -.807)" fill="#f60"/></g><path transform="matrix(-.8759 .6945 .72038 .84445 420.426 -20.666)" d="M306.422 266.902a57.96 63.54 0 0 1 34.394-12.397" fill="none" stroke="#000" stroke-width="1.796" stroke-linejoin="round" stroke-miterlimit="6.7" marker-end="url(#d)"/><g ns0:text="$\\beta$" ns0:preamble="/home/waldgeist/data/sphinx/inkscape-preamble.tex" transform="matrix(1.99122 0 0 1.99122 -94.692 267.295)" fill="#d40000"><defs><symbol overflow="visible" id="e"><path d="M5.734-5.672c0-.75-.546-1.36-1.359-1.36-.578 0-.86.157-1.203.407C2.625-6.219 2.078-5.25 1.89-4.5L.297 1.828c0 .047.047.11.125.11s.11-.032.11-.047l.702-2.766c.188.61.625.969 1.36.969.719 0 1.469-.344 1.922-.781a2.486 2.486 0 0 0 .796-1.829c0-.718-.375-1.25-.734-1.484.578-.344 1.156-.953 1.156-1.672zM3.938-4.016c-.126.047-.235.063-.485.063-.14 0-.328.015-.437-.031.03-.11.39-.079.5-.079.203 0 .296 0 .421.047zm1.234-1.89c0 .703-.375 1.422-.89 1.734-.282-.11-.47-.125-.766-.125-.22 0-.782-.016-.782.313 0 .28.516.25.688.25.375 0 .531 0 .828-.125.375.359.422.671.438 1.125.015.578-.22 1.328-.5 1.718-.391.532-1.063.891-1.625.891-.766 0-1.141-.578-1.141-1.281 0-.094 0-.25.047-.438l.64-2.515c.22-.86.938-2.454 2.141-2.454.578 0 .922.313.922.907zm0 0"/></symbol></defs><use height="1052.362" width="744.094" xlink:href="#e" x="223.432" y="134.765" transform="matrix(1.27997 0 0 1.27997 -63.04 -37.197)"/></g><path d="M200.094 326.228l143.784 147.147" fill="none" stroke="#f60" stroke-width="2" stroke-linecap="round" marker-end="url(#f)"/><path d="M306.422 266.902a57.96 63.54 0 0 1 34.394-12.397" transform="matrix(.72297 -.56745 -.5946 -.68996 280.397 911.46)" fill="none" stroke="#000" stroke-width="2.187" stroke-linejoin="round" stroke-miterlimit="6.7" marker-end="url(#d)"/><path d="M343.878 577.684V326.228M400.217 726.134V473.498" fill="none" stroke="#000" stroke-dasharray="1.99999995,1.99999995"/><path d="M400.217 578.864l143.904 147.27M345.199 475.485l55.018 103.38" fill="none" stroke="#d40000" stroke-width="2" stroke-linecap="round" marker-end="url(#f)"/><path d="M200.1 326.228l368.472 377.038" fill="none" stroke="#f60" stroke-width="2" stroke-linecap="round" stroke-dasharray="1.99999991,5.99999969" marker-end="url(#f)"/><use height="1052.362" width="744.094" xlink:href="#c" x="223.432" y="134.765" transform="translate(-186.516 262.739) scale(2.6556)" ns0:text="$\\alpha$" fill="#d40000" stroke="#d40000"/><path d="M306.422 266.902a57.96 63.54 0 0 1 34.394-12.397" transform="matrix(-1.1058 -.16351 .20164 -1.0915 728.85 964.921)" fill="none" stroke="#000" stroke-width="1.796" stroke-linejoin="round" stroke-miterlimit="6.7" marker-end="url(#d)"/></svg>