<?xml version="1.0" encoding="UTF-8" standalone="no"?>
<!-- Created with Inkscape (http://www.inkscape.org/) -->

<svg
   xmlns:ns0="http://www.iki.fi/pav/software/textext/"
   xmlns:dc="http://purl.org/dc/elements/1.1/"
   xmlns:cc="http://creativecommons.org/ns#"
   xmlns:rdf="http://www.w3.org/1999/02/22-rdf-syntax-ns#"
   xmlns:svg="http://www.w3.org/2000/svg"
   xmlns="http://www.w3.org/2000/svg"
   xmlns:xlink="http://www.w3.org/1999/xlink"
   xmlns:sodipodi="http://sodipodi.sourceforge.net/DTD/sodipodi-0.dtd"
   xmlns:inkscape="http://www.inkscape.org/namespaces/inkscape"
   width="210mm"
   height="297mm"
   id="svg2"
   version="1.1"
   inkscape:version="0.48.3.1 r9886"
   sodipodi:docname="lichtbeugung-interferenz-doppelspalt.svg">
  <title
     id="title12079">Lichtbeugung und Interferenz am Doppelspalt</title>
  <sodipodi:namedview
     id="base"
     pagecolor="#ffffff"
     bordercolor="#666666"
     borderopacity="1.0"
     inkscape:pageopacity="0.0"
     inkscape:pageshadow="2"
     inkscape:zoom="2.646875"
     inkscape:cx="130.5367"
     inkscape:cy="498.20584"
     inkscape:document-units="px"
     inkscape:current-layer="layer1"
     showgrid="false"
     showguides="false"
     inkscape:guide-bbox="true"
     inkscape:object-paths="true"
     inkscape:object-nodes="true"
     inkscape:snap-smooth-nodes="true"
     inkscape:snap-midpoints="true"
     inkscape:snap-object-midpoints="true"
     inkscape:snap-page="true"
     inkscape:window-width="1600"
     inkscape:window-height="1150"
     inkscape:window-x="0"
     inkscape:window-y="0"
     inkscape:window-maximized="1"
     inkscape:snap-global="false">
    <sodipodi:guide
       orientation="0,1"
       position="225.549,517.62023"
       id="guide3502" />
    <sodipodi:guide
       orientation="-0.38268343,0.92387953"
       position="387.73731,711.82925"
       id="guide8205" />
    <sodipodi:guide
       orientation="-0.38268343,0.92387953"
       position="493.93098,544.60915"
       id="guide8207" />
    <sodipodi:guide
       orientation="-0.92387953,-0.38268343"
       position="154.94572,648.1864"
       id="guide8213" />
    <sodipodi:guide
       orientation="1,0"
       position="173.16939,517.62022"
       id="guide8215" />
    <sodipodi:guide
       orientation="0,1"
       position="173.8247,412.0168"
       id="guide10682" />
    <sodipodi:guide
       orientation="0,1"
       position="176.24819,623.22374"
       id="guide10684" />
  </sodipodi:namedview>
  <defs
     id="defs4">
    <marker
       inkscape:stockid="Arrow1Mend"
       orient="auto"
       refY="0.0"
       refX="0.0"
       id="Arrow1Mend"
       style="overflow:visible;">
      <path
         id="path7559"
         d="M 0.0,0.0 L 5.0,-5.0 L -12.5,0.0 L 5.0,5.0 L 0.0,0.0 z "
         style="fill-rule:evenodd;stroke:#000000;stroke-width:1.0pt;"
         transform="scale(0.4) rotate(180) translate(10,0)" />
    </marker>
    <inkscape:path-effect
       is_visible="true"
       id="path-effect11425"
       effect="spiro" />
    <marker
       style="overflow:visible"
       id="DistanceEnd"
       refX="0.0"
       refY="0.0"
       orient="auto"
       inkscape:stockid="DistanceEnd">
      <g
         id="g2301">
        <path
           style="fill:none;stroke:#ffffff;stroke-width:1.15;stroke-linecap:square"
           d="M 0,0 L -2,0"
           id="path2316" />
        <path
           style="fill:#000000;fill-rule:evenodd;stroke:none"
           d="M 0,0 L -13,4 L -9,0 -13,-4 L 0,0 z "
           id="path2312" />
        <path
           style="fill:none;stroke:#000000;stroke-width:1;stroke-linecap:square"
           d="M 0,-4 L 0,40"
           id="path2314" />
      </g>
    </marker>
    <marker
       style="overflow:visible"
       id="DistanceStart"
       refX="0.0"
       refY="0.0"
       orient="auto"
       inkscape:stockid="DistanceStart">
      <g
         id="g2300">
        <path
           style="fill:none;stroke:#ffffff;stroke-width:1.15;stroke-linecap:square"
           d="M 0,0 L 2,0"
           id="path2306" />
        <path
           style="fill:#000000;fill-rule:evenodd;stroke:none"
           d="M 0,0 L 13,4 L 9,0 13,-4 L 0,0 z "
           id="path2302" />
        <path
           style="fill:none;stroke:#000000;stroke-width:1;stroke-linecap:square"
           d="M 0,-4 L 0,40"
           id="path2304" />
      </g>
    </marker>
    <marker
       inkscape:stockid="Arrow1Lstart"
       orient="auto"
       refY="0.0"
       refX="0.0"
       id="Arrow1Lstart"
       style="overflow:visible">
      <path
         id="path7550"
         d="M 0.0,0.0 L 5.0,-5.0 L -12.5,0.0 L 5.0,5.0 L 0.0,0.0 z "
         style="fill-rule:evenodd;stroke:#000000;stroke-width:1.0pt"
         transform="scale(0.8) translate(12.5,0)" />
    </marker>
    <marker
       inkscape:stockid="Arrow1Mstart"
       orient="auto"
       refY="0.0"
       refX="0.0"
       id="Arrow1Mstart"
       style="overflow:visible">
      <path
         id="path7556"
         d="M 0.0,0.0 L 5.0,-5.0 L -12.5,0.0 L 5.0,5.0 L 0.0,0.0 z "
         style="fill-rule:evenodd;stroke:#000000;stroke-width:1.0pt"
         transform="scale(0.4) translate(10,0)" />
    </marker>
    <marker
       inkscape:stockid="Arrow1Sstart"
       orient="auto"
       refY="0.0"
       refX="0.0"
       id="Arrow1Sstart"
       style="overflow:visible">
      <path
         id="path7562"
         d="M 0.0,0.0 L 5.0,-5.0 L -12.5,0.0 L 5.0,5.0 L 0.0,0.0 z "
         style="fill-rule:evenodd;stroke:#000000;stroke-width:1.0pt"
         transform="scale(0.2) translate(6,0)" />
    </marker>
    <marker
       inkscape:stockid="Arrow2Lstart"
       orient="auto"
       refY="0.0"
       refX="0.0"
       id="Arrow2Lstart"
       style="overflow:visible">
      <path
         id="path7568"
         style="fill-rule:evenodd;stroke-width:0.62500000;stroke-linejoin:round"
         d="M 8.7185878,4.0337352 L -2.2072895,0.016013256 L 8.7185884,-4.0017078 C 6.9730900,-1.6296469 6.9831476,1.6157441 8.7185878,4.0337352 z "
         transform="scale(1.1) translate(1,0)" />
    </marker>
    <marker
       inkscape:stockid="Arrow2Mstart"
       orient="auto"
       refY="0.0"
       refX="0.0"
       id="Arrow2Mstart"
       style="overflow:visible">
      <path
         id="path7574"
         style="fill-rule:evenodd;stroke-width:0.62500000;stroke-linejoin:round"
         d="M 8.7185878,4.0337352 L -2.2072895,0.016013256 L 8.7185884,-4.0017078 C 6.9730900,-1.6296469 6.9831476,1.6157441 8.7185878,4.0337352 z "
         transform="scale(0.6) translate(0,0)" />
    </marker>
    <inkscape:path-effect
       effect="spiro"
       id="path-effect8743"
       is_visible="true" />
    <inkscape:path-effect
       is_visible="true"
       id="path-effect8211"
       effect="spiro" />
    <inkscape:path-effect
       effect="spiro"
       id="path-effect16173"
       is_visible="true" />
    <marker
       style="overflow:visible"
       id="Arrow2Mend-7"
       refX="0"
       refY="0"
       orient="auto"
       inkscape:stockid="Arrow2Mend">
      <path
         inkscape:connector-curvature="0"
         transform="scale(-0.6,-0.6)"
         d="M 8.7185878,4.0337352 -2.2072895,0.01601326 8.7185884,-4.0017078 c -1.7454984,2.3720609 -1.7354408,5.6174519 -6e-7,8.035443 z"
         style="font-size:12px;fill-rule:evenodd;stroke-width:0.625;stroke-linejoin:round"
         id="path4744" />
    </marker>
    <inkscape:path-effect
       effect="spiro"
       id="path-effect10479"
       is_visible="true" />
  </defs>
  <metadata
     id="metadata7">
    <rdf:RDF>
      <cc:Work
         rdf:about="">
        <dc:format>image/svg+xml</dc:format>
        <dc:type
           rdf:resource="http://purl.org/dc/dcmitype/StillImage" />
        <dc:title>Lichtbeugung und Interferenz am Doppelspalt</dc:title>
        <dc:date>2014-02-17</dc:date>
        <dc:creator>
          <cc:Agent>
            <dc:title>Bernhard Grotz</dc:title>
          </cc:Agent>
        </dc:creator>
        <dc:rights>
          <cc:Agent>
            <dc:title>Bernhard Grotz</dc:title>
          </cc:Agent>
        </dc:rights>
        <dc:publisher>
          <cc:Agent>
            <dc:title>Bernhard Grotz</dc:title>
          </cc:Agent>
        </dc:publisher>
        <dc:language>de-DE</dc:language>
        <dc:subject>
          <rdf:Bag>
            <rdf:li>Physik</rdf:li>
            <rdf:li>Optik</rdf:li>
            <rdf:li>Wellenoptik</rdf:li>
            <rdf:li>Lichtbeugung</rdf:li>
            <rdf:li>Interferenz</rdf:li>
            <rdf:li>Doppelspalt</rdf:li>
          </rdf:Bag>
        </dc:subject>
        <cc:license
           rdf:resource="http://creativecommons.org/licenses/by-nc-sa/3.0/" />
      </cc:Work>
      <cc:License
         rdf:about="http://creativecommons.org/licenses/by-nc-sa/3.0/">
        <cc:permits
           rdf:resource="http://creativecommons.org/ns#Reproduction" />
        <cc:permits
           rdf:resource="http://creativecommons.org/ns#Distribution" />
        <cc:requires
           rdf:resource="http://creativecommons.org/ns#Notice" />
        <cc:requires
           rdf:resource="http://creativecommons.org/ns#Attribution" />
        <cc:prohibits
           rdf:resource="http://creativecommons.org/ns#CommercialUse" />
        <cc:permits
           rdf:resource="http://creativecommons.org/ns#DerivativeWorks" />
        <cc:requires
           rdf:resource="http://creativecommons.org/ns#ShareAlike" />
      </cc:License>
    </rdf:RDF>
  </metadata>
  <g
     inkscape:label="Ebene 1"
     inkscape:groupmode="layer"
     id="layer1">
    <rect
       style="color:#000000;fill:#ffffff;stroke:#ffffff;stroke-width:1;stroke-linecap:round;stroke-linejoin:round;stroke-miterlimit:4;stroke-opacity:1;stroke-dasharray:0.99999995, 1.99999991;stroke-dashoffset:0;marker:none;visibility:visible;display:inline;overflow:visible;enable-background:accumulate"
       id="rect11090"
       width="702.38141"
       height="562.31952"
       x="20.856537"
       y="245.02136"
       inkscape:export-filename="/home/waldgeist/sandbox/homepage/pics/physik/optik/lichtbeugung-interferenz-doppelspalt.png"
       inkscape:export-xdpi="150"
       inkscape:export-ydpi="150" />
    <rect
       style="color:#000000;fill:#f9f9f9;fill-opacity:1;fill-rule:nonzero;stroke:#f9f9f9;stroke-width:0.42732152;stroke-linecap:round;stroke-linejoin:miter;stroke-miterlimit:4;stroke-opacity:1;stroke-dasharray:1.28196473, 2.56392949;stroke-dashoffset:0;marker:none;visibility:visible;display:inline;overflow:visible;enable-background:accumulate"
       id="rect59365"
       width="660.66833"
       height="532.39893"
       x="41.713074"
       y="259.98163"
       inkscape:export-filename="/home/waldgeist/sandbox/homepage/pics/physik/optik/lichtbeugung-interferenz-doppelspalt.png"
       inkscape:export-xdpi="150"
       inkscape:export-ydpi="150" />
    <path
       style="fill:#808080;stroke:#000000;stroke-width:1px;stroke-linecap:round;stroke-linejoin:round;stroke-opacity:1"
       d="m 181.13613,284.83 0,110.41286 -8.59375,28.21081 0,-138.62368 z"
       id="path3504"
       inkscape:connector-curvature="0"
       sodipodi:nodetypes="ccccc"
       inkscape:export-filename="/home/waldgeist/sandbox/homepage/pics/physik/optik/lichtbeugung-interferenz-doppelspalt.png"
       inkscape:export-xdpi="150"
       inkscape:export-ydpi="150" />
    <path
       style="fill:#999999;stroke:#000000;stroke-width:1px;stroke-linecap:round;stroke-linejoin:round;stroke-opacity:1"
       d="m 173.16939,434.82321 0,31.2 0,137.4375 0,31.2 7.96674,-28.2375 0,-2.9625 0,-137.4375 0,-3 -7.96674,-28.2 z"
       id="path3506"
       inkscape:connector-curvature="0"
       inkscape:export-filename="/home/waldgeist/sandbox/homepage/pics/physik/optik/lichtbeugung-interferenz-doppelspalt.png"
       inkscape:export-xdpi="150"
       inkscape:export-ydpi="150" />
    <path
       inkscape:connector-curvature="0"
       id="path3511"
       d="m 181.13613,774.65377 0,-100.41286 -8.59375,-28.21082 0,128.62369 z"
       style="fill:#808080;stroke:#000000;stroke-width:1px;stroke-linecap:butt;stroke-linejoin:miter;stroke-opacity:1"
       sodipodi:nodetypes="ccccc"
       inkscape:export-filename="/home/waldgeist/sandbox/homepage/pics/physik/optik/lichtbeugung-interferenz-doppelspalt.png"
       inkscape:export-xdpi="150"
       inkscape:export-ydpi="150" />
    <path
       style="fill:none;stroke:#808080;stroke-width:1;stroke-linecap:butt;stroke-linejoin:miter;stroke-miterlimit:4;stroke-opacity:1;stroke-dasharray:0.87830783, 1.75661559;stroke-dashoffset:0"
       d="m 181.13614,534.74195 495.27569,0"
       id="path16105"
       inkscape:path-effect="#path-effect16173"
       inkscape:original-d="m 181.13614,534.74195 495.27569,0"
       inkscape:connector-curvature="0"
       inkscape:export-filename="/home/waldgeist/sandbox/homepage/pics/physik/optik/lichtbeugung-interferenz-doppelspalt.png"
       inkscape:export-xdpi="150"
       inkscape:export-ydpi="150" />
    <path
       sodipodi:type="arc"
       style="fill:#000000;stroke:#000000;stroke-width:75.1929245;stroke-linecap:round;stroke-miterlimit:4;stroke-dasharray:none;stroke-dashoffset:0"
       id="path10427"
       sodipodi:cx="963.18048"
       sodipodi:cy="795.10718"
       sodipodi:rx="118.69292"
       sodipodi:ry="118.69292"
       d="m 1081.8734,795.10718 a 118.69292,118.69292 0 1 1 -237.38584,0 118.69292,118.69292 0 1 1 237.38584,0 z"
       transform="matrix(0.02041814,0,0,0.02041814,154.15835,412.90383)"
       inkscape:export-filename="/home/waldgeist/sandbox/homepage/pics/physik/optik/lichtbeugung-interferenz-doppelspalt.png"
       inkscape:export-xdpi="150"
       inkscape:export-ydpi="150" />
    <path
       inkscape:export-ydpi="150"
       inkscape:export-xdpi="150"
       inkscape:export-filename="/home/waldgeist/sandbox/homepage/pics/physik/optik/lichtbeugung-interferenz-doppelspalt.png"
       transform="matrix(0.02041814,0,0,0.02041814,154.15835,624.11079)"
       d="m 1081.8734,795.10718 a 118.69292,118.69292 0 1 1 -237.38584,0 118.69292,118.69292 0 1 1 237.38584,0 z"
       sodipodi:ry="118.69292"
       sodipodi:rx="118.69292"
       sodipodi:cy="795.10718"
       sodipodi:cx="963.18048"
       id="path3808"
       style="fill:#000000;stroke:#000000;stroke-width:75.1929245;stroke-linecap:round;stroke-miterlimit:4;stroke-dasharray:none;stroke-dashoffset:0"
       sodipodi:type="arc" />
    <path
       inkscape:export-ydpi="150"
       inkscape:export-xdpi="150"
       inkscape:export-filename="/home/waldgeist/sandbox/homepage/pics/physik/optik/lichtbeugung-interferenz-doppelspalt.png"
       sodipodi:nodetypes="cc"
       inkscape:connector-curvature="0"
       inkscape:original-d="M 173.8247,429.13843 538.74878,277.98194"
       inkscape:path-effect="#path-effect10479"
       id="path10419"
       d="M 173.8247,429.13843 538.74878,277.98194"
       style="fill:none;stroke:#ff6600;stroke-width:1.49999976;stroke-linecap:round;stroke-linejoin:miter;stroke-opacity:1;marker-start:none;marker-mid:none;marker-end:url(#Arrow2Mend-7)" />
    <path
       style="fill:none;stroke:#808080;stroke-width:1.5;stroke-linecap:round;stroke-linejoin:round;stroke-opacity:1"
       d="m 173.8247,429.13843 74.67294,180.27642"
       id="path8733"
       inkscape:connector-curvature="0"
       inkscape:export-filename="/home/waldgeist/sandbox/homepage/pics/physik/optik/lichtbeugung-interferenz-doppelspalt.png"
       inkscape:export-xdpi="150"
       inkscape:export-ydpi="150" />
    <path
       sodipodi:type="arc"
       style="color:#000000;fill:none;stroke:#4d4d4d;stroke-width:1.25;stroke-linecap:round;stroke-linejoin:round;stroke-miterlimit:4;stroke-opacity:1;stroke-dasharray:none;stroke-dashoffset:0;marker:none;visibility:visible;display:inline;overflow:visible;enable-background:accumulate"
       id="path8735"
       sodipodi:cx="338.8902"
       sodipodi:cy="600.1308"
       sodipodi:rx="11.711925"
       sodipodi:ry="11.711925"
       d="M 350.60212,600.1308 A 11.711925,11.711925 0 0 1 338.8902,611.84272"
       sodipodi:start="0"
       sodipodi:end="1.5707963"
       sodipodi:open="true"
       transform="matrix(-1.1086554,0.45922012,-0.45922012,-1.1086554,899.80224,1119.1279)"
       inkscape:export-filename="/home/waldgeist/sandbox/homepage/pics/physik/optik/lichtbeugung-interferenz-doppelspalt.png"
       inkscape:export-xdpi="150"
       inkscape:export-ydpi="150" />
    <path
       style="fill:none;stroke:#ff6600;stroke-width:1.49999976;stroke-linecap:round;stroke-linejoin:miter;stroke-opacity:1;marker-start:none;marker-mid:none;marker-end:url(#Arrow2Mend-7)"
       d="M 173.8247,640.34539 613.42172,458.25835"
       id="path8209"
       inkscape:path-effect="#path-effect8211"
       inkscape:original-d="M 173.8247,640.34539 613.42172,458.25835"
       inkscape:connector-curvature="0"
       sodipodi:nodetypes="cc"
       inkscape:export-filename="/home/waldgeist/sandbox/homepage/pics/physik/optik/lichtbeugung-interferenz-doppelspalt.png"
       inkscape:export-xdpi="150"
       inkscape:export-ydpi="150" />
    <path
       sodipodi:type="arc"
       style="fill:#4d4d4d;fill-opacity:1;stroke:#4d4d4d;stroke-width:751.1072998;stroke-linecap:round;stroke-linejoin:round;stroke-miterlimit:4;stroke-opacity:1;stroke-dasharray:none;stroke-dashoffset:0"
       id="path8739"
       sodipodi:cx="963.18048"
       sodipodi:cy="795.10718"
       sodipodi:rx="118.69292"
       sodipodi:ry="118.69292"
       d="m 1081.8734,795.10718 a 118.69292,118.69292 0 1 1 -237.38584,0 118.69292,118.69292 0 1 1 237.38584,0 z"
       transform="matrix(0.00204404,0,0,0.00204404,238.92365,604.68114)"
       inkscape:export-filename="/home/waldgeist/sandbox/homepage/pics/physik/optik/lichtbeugung-interferenz-doppelspalt.png"
       inkscape:export-xdpi="150"
       inkscape:export-ydpi="150" />
    <g
       ns0:text="$\\rm{Z}_2$"
       ns0:preamble="/home/waldgeist/data/sphinx/inkscape-preamble.tex"
       transform="matrix(2.4880711,0,0,2.4880711,-414.67416,313.85402)"
       id="g9990"
       style="stroke:#808080;fill:#666666;stroke-width:0.80383555"
       inkscape:export-filename="/home/waldgeist/sandbox/homepage/pics/physik/optik/lichtbeugung-interferenz-doppelspalt.png"
       inkscape:export-xdpi="150"
       inkscape:export-ydpi="150">
      <defs
         id="defs9992">
        <g
           id="g9994">
          <symbol
             style="overflow:visible"
             overflow="visible"
             id="textext-be954bc5-0">
            <path
               inkscape:connector-curvature="0"
               style="stroke:none"
               d=""
               id="path9997" />
          </symbol>
          <symbol
             style="overflow:visible"
             overflow="visible"
             id="textext-be954bc5-1">
            <path
               inkscape:connector-curvature="0"
               style="stroke:none"
               d="m 5.453125,-6.453125 c 0.0625,-0.109375 0.0625,-0.125 0.0625,-0.203125 0,-0.15625 -0.046875,-0.15625 -0.25,-0.15625 l -4.46875,0 -0.109375,2.25 0.25,0 C 1,-5.6875 1.3125,-6.5 2.9375,-6.5 L 4.5,-6.5 0.625,-0.375 C 0.5625,-0.265625 0.5625,-0.25 0.5625,-0.171875 0.5625,0 0.609375,0 0.8125,0 l 4.59375,0 0.171875,-2.65625 -0.25,0 C 5.25,-1.28125 5.0625,-0.34375 3.21875,-0.34375 l -1.640625,0 z"
               id="path10000" />
          </symbol>
          <symbol
             style="overflow:visible"
             overflow="visible"
             id="textext-be954bc5-2">
            <path
               inkscape:connector-curvature="0"
               style="stroke:none"
               d=""
               id="path10003" />
          </symbol>
          <symbol
             style="overflow:visible"
             overflow="visible"
             id="textext-be954bc5-3">
            <path
               inkscape:connector-curvature="0"
               style="stroke:none"
               d="m 3.515625,-1.265625 -0.234375,0 c -0.015625,0.15625 -0.09375,0.5625 -0.1875,0.625 -0.046875,0.046875 -0.578125,0.046875 -0.6875,0.046875 l -1.28125,0 c 0.734375,-0.640625 0.984375,-0.84375 1.390625,-1.171875 0.515625,-0.40625 1,-0.84375 1,-1.5 0,-0.84375 -0.734375,-1.359375 -1.625,-1.359375 -0.859375,0 -1.453125,0.609375 -1.453125,1.25 0,0.34375 0.296875,0.390625 0.375,0.390625 0.15625,0 0.359375,-0.125 0.359375,-0.375 0,-0.125 -0.046875,-0.375 -0.40625,-0.375 C 0.984375,-4.21875 1.453125,-4.375 1.78125,-4.375 c 0.703125,0 1.0625,0.546875 1.0625,1.109375 0,0.609375 -0.4375,1.078125 -0.65625,1.328125 L 0.515625,-0.265625 C 0.4375,-0.203125 0.4375,-0.1875 0.4375,0 l 2.875,0 z"
               id="path10006" />
          </symbol>
        </g>
      </defs>
      <g
         id="textext-be954bc5-4"
         style="stroke:#808080;fill:#666666;stroke-width:0.80383555">
        <g
           style="fill:#666666;fill-opacity:1;stroke:#808080;stroke-width:0.80383555"
           id="g10009">
          <use
             height="1052.3622"
             width="744.09448"
             xlink:href="#textext-be954bc5-1"
             x="223.43201"
             y="134.765"
             id="use10011"
             style="stroke:#808080;fill:#666666;stroke-width:0.80383555" />
        </g>
        <g
           style="fill:#666666;fill-opacity:1;stroke:#808080;stroke-width:0.80383555"
           id="g10013">
          <use
             height="1052.3622"
             width="744.09448"
             xlink:href="#textext-be954bc5-3"
             x="229.52"
             y="136.259"
             id="use10015"
             style="stroke:#808080;fill:#666666;stroke-width:0.80383555" />
        </g>
      </g>
    </g>
    <g
       id="g10159"
       transform="matrix(2.4880711,0,0,2.4880711,-414.67416,102.91412)"
       ns0:preamble="/home/waldgeist/data/sphinx/inkscape-preamble.tex"
       ns0:text="$\\rm{Z}_1$"
       style="stroke:#808080;fill:#666666;stroke-width:0.80383555"
       inkscape:export-filename="/home/waldgeist/sandbox/homepage/pics/physik/optik/lichtbeugung-interferenz-doppelspalt.png"
       inkscape:export-xdpi="150"
       inkscape:export-ydpi="150">
      <defs
         id="defs10161">
        <g
           id="g10163">
          <symbol
             id="textext-f70c9cc5-0"
             overflow="visible"
             style="overflow:visible">
            <path
               id="path10166"
               d=""
               style="stroke:none"
               inkscape:connector-curvature="0" />
          </symbol>
          <symbol
             id="textext-f70c9cc5-1"
             overflow="visible"
             style="overflow:visible">
            <path
               id="path10169"
               d="m 5.453125,-6.453125 c 0.0625,-0.109375 0.0625,-0.125 0.0625,-0.203125 0,-0.15625 -0.046875,-0.15625 -0.25,-0.15625 l -4.46875,0 -0.109375,2.25 0.25,0 C 1,-5.6875 1.3125,-6.5 2.9375,-6.5 L 4.5,-6.5 0.625,-0.375 C 0.5625,-0.265625 0.5625,-0.25 0.5625,-0.171875 0.5625,0 0.609375,0 0.8125,0 l 4.59375,0 0.171875,-2.65625 -0.25,0 C 5.25,-1.28125 5.0625,-0.34375 3.21875,-0.34375 l -1.640625,0 z"
               style="stroke:none"
               inkscape:connector-curvature="0" />
          </symbol>
          <symbol
             id="textext-f70c9cc5-2"
             overflow="visible"
             style="overflow:visible">
            <path
               id="path10172"
               d=""
               style="stroke:none"
               inkscape:connector-curvature="0" />
          </symbol>
          <symbol
             id="textext-f70c9cc5-3"
             overflow="visible"
             style="overflow:visible">
            <path
               id="path10175"
               d="m 2.328125,-4.4375 c 0,-0.1875 0,-0.1875 -0.203125,-0.1875 -0.453125,0.4375 -1.078125,0.4375 -1.359375,0.4375 l 0,0.25 c 0.15625,0 0.625,0 1,-0.1875 l 0,3.546875 c 0,0.234375 0,0.328125 -0.6875,0.328125 l -0.265625,0 0,0.25 c 0.125,0 0.984375,-0.03125 1.234375,-0.03125 0.21875,0 1.09375,0.03125 1.25,0.03125 l 0,-0.25 -0.265625,0 c -0.703125,0 -0.703125,-0.09375 -0.703125,-0.328125 z"
               style="stroke:none"
               inkscape:connector-curvature="0" />
          </symbol>
        </g>
      </defs>
      <g
         id="textext-f70c9cc5-4"
         style="stroke:#808080;fill:#666666;stroke-width:0.80383555">
        <g
           id="g10178"
           style="fill:#666666;fill-opacity:1;stroke:#808080;stroke-width:0.80383555">
          <use
             id="use10180"
             y="134.765"
             x="223.43201"
             xlink:href="#textext-f70c9cc5-1"
             width="744.09448"
             height="1052.3622"
             style="stroke:#808080;fill:#666666;stroke-width:0.80383555" />
        </g>
        <g
           id="g10182"
           style="fill:#666666;fill-opacity:1;stroke:#808080;stroke-width:0.80383555">
          <use
             id="use10184"
             y="136.259"
             x="229.52"
             xlink:href="#textext-f70c9cc5-3"
             width="744.09448"
             height="1052.3622"
             style="stroke:#808080;fill:#666666;stroke-width:0.80383555" />
        </g>
      </g>
    </g>
    <path
       inkscape:export-ydpi="150"
       inkscape:export-xdpi="150"
       inkscape:export-filename="/home/waldgeist/sandbox/homepage/pics/physik/optik/lichtbeugung-interferenz-doppelspalt.png"
       sodipodi:nodetypes="cc"
       inkscape:connector-curvature="0"
       inkscape:original-d="m 173.8247,640.34538 74.67294,-30.93054"
       inkscape:path-effect="#path-effect8743"
       id="path8741"
       d="m 173.8247,640.34538 74.67294,-30.93054"
       style="fill:none;stroke:#ff6600;stroke-width:3;stroke-linecap:round;stroke-linejoin:miter;stroke-opacity:1;marker-start:none;marker-mid:none;marker-end:none" />
    <path
       style="fill:none;stroke:#4d4d4d;stroke-width:1.50000000000000000;stroke-linecap:butt;stroke-linejoin:miter;stroke-opacity:1;marker-start:url(#Arrow1Mstart);marker-end:url(#Arrow1Mend)"
       d="m 107.68613,431.13847 0.31352,206.5565"
       id="path10707"
       inkscape:connector-curvature="0"
       sodipodi:nodetypes="cc"
       inkscape:export-filename="/home/waldgeist/sandbox/homepage/pics/physik/optik/lichtbeugung-interferenz-doppelspalt.png"
       inkscape:export-xdpi="150"
       inkscape:export-ydpi="150" />
    <rect
       style="color:#000000;fill:#f9f9f9;fill-opacity:1;fill-rule:nonzero;stroke:#f9f9f9;stroke-width:1.49999988;stroke-linecap:round;stroke-linejoin:round;stroke-miterlimit:4;stroke-opacity:1;stroke-dasharray:none;stroke-dashoffset:0;marker:none;visibility:visible;display:inline;overflow:visible;enable-background:accumulate"
       id="rect12073"
       width="21.909351"
       height="32.324879"
       x="96.759659"
       y="518.52368"
       inkscape:export-filename="/home/waldgeist/sandbox/homepage/pics/physik/optik/lichtbeugung-interferenz-doppelspalt.png"
       inkscape:export-xdpi="150"
       inkscape:export-ydpi="150" />
    <g
       ns0:text="$b$"
       ns0:preamble="/home/waldgeist/data/sphinx/inkscape-preamble.tex"
       transform="matrix(2.4880711,0,0,2.4880711,-453.93461,207.85621)"
       id="g10360"
       inkscape:export-filename="/home/waldgeist/sandbox/homepage/pics/physik/optik/lichtbeugung-interferenz-doppelspalt.png"
       inkscape:export-xdpi="150"
       inkscape:export-ydpi="150">
      <defs
         id="defs10362">
        <g
           id="g10364">
          <symbol
             style="overflow:visible"
             overflow="visible"
             id="textext-36ee59ee-0">
            <path
               inkscape:connector-curvature="0"
               style="stroke:none"
               d=""
               id="path10367" />
          </symbol>
          <symbol
             style="overflow:visible"
             overflow="visible"
             id="textext-36ee59ee-1">
            <path
               inkscape:connector-curvature="0"
               style="stroke:none"
               d="m 2.375,-6.8125 c 0,0 0,-0.109375 -0.125,-0.109375 -0.21875,0 -0.953125,0.078125 -1.21875,0.109375 -0.078125,0 -0.1875,0.015625 -0.1875,0.1875 0,0.125 0.09375,0.125 0.25,0.125 0.46875,0 0.484375,0.0625 0.484375,0.171875 0,0.0625 -0.078125,0.40625 -0.125,0.609375 l -0.828125,3.25 c -0.109375,0.5 -0.15625,0.671875 -0.15625,1.015625 0,0.9375 0.53125,1.5625 1.265625,1.5625 1.171875,0 2.40625,-1.484375 2.40625,-2.921875 0,-0.90625 -0.53125,-1.59375 -1.328125,-1.59375 -0.453125,0 -0.875,0.296875 -1.171875,0.59375 z M 1.453125,-3.046875 C 1.5,-3.265625 1.5,-3.28125 1.59375,-3.390625 2.078125,-4.03125 2.53125,-4.1875 2.796875,-4.1875 c 0.359375,0 0.625,0.296875 0.625,0.9375 0,0.59375 -0.328125,1.734375 -0.515625,2.109375 -0.328125,0.671875 -0.78125,1.03125 -1.171875,1.03125 -0.34375,0 -0.671875,-0.265625 -0.671875,-1 0,-0.203125 0,-0.390625 0.15625,-1.015625 z"
               id="path10370" />
          </symbol>
        </g>
      </defs>
      <g
         id="textext-36ee59ee-2">
        <g
           style="fill:#000000;fill-opacity:1"
           id="g10373">
          <use
             height="1052.3622"
             width="744.09448"
             xlink:href="#textext-36ee59ee-1"
             x="223.43201"
             y="134.765"
             id="use10375" />
        </g>
      </g>
    </g>
    <g
       ns0:text="$\\Delta s$"
       ns0:preamble="/home/waldgeist/data/sphinx/inkscape-preamble.tex"
       transform="matrix(2.2986779,-0.9521436,0.9521436,2.2986779,-444.71534,524.42229)"
       id="g11375"
       inkscape:export-filename="/home/waldgeist/sandbox/homepage/pics/physik/optik/lichtbeugung-interferenz-doppelspalt.png"
       inkscape:export-xdpi="150"
       inkscape:export-ydpi="150">
      <defs
         id="defs11377">
        <g
           id="g11379">
          <symbol
             style="overflow:visible"
             overflow="visible"
             id="symbol11381">
            <path
               inkscape:connector-curvature="0"
               style="stroke:none"
               d=""
               id="path11383" />
          </symbol>
          <symbol
             style="overflow:visible"
             overflow="visible"
             id="symbol11385">
            <path
               inkscape:connector-curvature="0"
               style="stroke:none"
               d="m 4.40625,-6.953125 c -0.0625,-0.140625 -0.09375,-0.1875 -0.265625,-0.1875 -0.15625,0 -0.1875,0.046875 -0.25,0.1875 l -3.375,6.75 C 0.46875,-0.109375 0.46875,-0.09375 0.46875,-0.078125 0.46875,0 0.53125,0 0.6875,0 l 6.921875,0 c 0.15625,0 0.21875,0 0.21875,-0.078125 0,-0.015625 0,-0.03125 -0.046875,-0.125 z m -0.578125,0.8125 2.6875,5.390625 -5.375,0 z"
               id="path11387" />
          </symbol>
          <symbol
             style="overflow:visible"
             overflow="visible"
             id="symbol11389">
            <path
               inkscape:connector-curvature="0"
               style="stroke:none"
               d=""
               id="path11391" />
          </symbol>
          <symbol
             style="overflow:visible"
             overflow="visible"
             id="symbol11393">
            <path
               inkscape:connector-curvature="0"
               style="stroke:none"
               d="M 3.890625,-3.734375 C 3.625,-3.71875 3.421875,-3.5 3.421875,-3.28125 c 0,0.140625 0.09375,0.296875 0.3125,0.296875 0.21875,0 0.453125,-0.171875 0.453125,-0.5625 C 4.1875,-4 3.765625,-4.40625 3,-4.40625 c -1.3125,0 -1.6875,1.015625 -1.6875,1.453125 0,0.78125 0.734375,0.921875 1.03125,0.984375 0.515625,0.109375 1.03125,0.21875 1.03125,0.765625 0,0.25 -0.21875,1.09375 -1.421875,1.09375 -0.140625,0 -0.90625,0 -1.140625,-0.53125 0.390625,0.046875 0.640625,-0.25 0.640625,-0.53125 0,-0.21875 -0.171875,-0.34375 -0.375,-0.34375 -0.265625,0 -0.5625,0.203125 -0.5625,0.65625 0,0.5625 0.578125,0.96875 1.421875,0.96875 1.625,0 2.015625,-1.203125 2.015625,-1.65625 0,-0.359375 -0.1875,-0.609375 -0.3125,-0.71875 -0.265625,-0.28125 -0.5625,-0.34375 -1,-0.421875 -0.359375,-0.078125 -0.75,-0.15625 -0.75,-0.609375 C 1.890625,-3.578125 2.125,-4.1875 3,-4.1875 c 0.25,0 0.75,0.078125 0.890625,0.453125 z"
               id="path11395" />
          </symbol>
        </g>
      </defs>
      <g
         id="g11397">
        <g
           style="fill:#000000;fill-opacity:1"
           id="g11399">
          <g
             id="use11401"
             transform="translate(223.43201,134.765)">
            <path
               inkscape:connector-curvature="0"
               style="stroke:none"
               d="m 4.40625,-6.953125 c -0.0625,-0.140625 -0.09375,-0.1875 -0.265625,-0.1875 -0.15625,0 -0.1875,0.046875 -0.25,0.1875 l -3.375,6.75 C 0.46875,-0.109375 0.46875,-0.09375 0.46875,-0.078125 0.46875,0 0.53125,0 0.6875,0 l 6.921875,0 c 0.15625,0 0.21875,0 0.21875,-0.078125 0,-0.015625 0,-0.03125 -0.046875,-0.125 z m -0.578125,0.8125 2.6875,5.390625 -5.375,0 z"
               id="path11413" />
          </g>
        </g>
        <g
           style="fill:#000000;fill-opacity:1"
           id="g11403">
          <g
             id="use11405"
             transform="translate(231.73399,134.765)">
            <path
               inkscape:connector-curvature="0"
               style="stroke:none"
               d="M 3.890625,-3.734375 C 3.625,-3.71875 3.421875,-3.5 3.421875,-3.28125 c 0,0.140625 0.09375,0.296875 0.3125,0.296875 0.21875,0 0.453125,-0.171875 0.453125,-0.5625 C 4.1875,-4 3.765625,-4.40625 3,-4.40625 c -1.3125,0 -1.6875,1.015625 -1.6875,1.453125 0,0.78125 0.734375,0.921875 1.03125,0.984375 0.515625,0.109375 1.03125,0.21875 1.03125,0.765625 0,0.25 -0.21875,1.09375 -1.421875,1.09375 -0.140625,0 -0.90625,0 -1.140625,-0.53125 0.390625,0.046875 0.640625,-0.25 0.640625,-0.53125 0,-0.21875 -0.171875,-0.34375 -0.375,-0.34375 -0.265625,0 -0.5625,0.203125 -0.5625,0.65625 0,0.5625 0.578125,0.96875 1.421875,0.96875 1.625,0 2.015625,-1.203125 2.015625,-1.65625 0,-0.359375 -0.1875,-0.609375 -0.3125,-0.71875 -0.265625,-0.28125 -0.5625,-0.34375 -1,-0.421875 -0.359375,-0.078125 -0.75,-0.15625 -0.75,-0.609375 C 1.890625,-3.578125 2.125,-4.1875 3,-4.1875 c 0.25,0 0.75,0.078125 0.890625,0.453125 z"
               id="path11421" />
          </g>
        </g>
      </g>
    </g>
    <path
       style="fill:none;stroke:#4d4d4d;stroke-width:1;stroke-linecap:round;stroke-linejoin:round;stroke-miterlimit:4;stroke-opacity:1;stroke-dasharray:1, 2;stroke-dashoffset:0"
       d="m 91.15117,429.13844 33.12633,0"
       id="path12075"
       inkscape:connector-curvature="0"
       inkscape:export-filename="/home/waldgeist/sandbox/homepage/pics/physik/optik/lichtbeugung-interferenz-doppelspalt.png"
       inkscape:export-xdpi="150"
       inkscape:export-ydpi="150" />
    <path
       inkscape:connector-curvature="0"
       id="path12077"
       d="m 91.151169,640.34538 33.126331,0"
       style="fill:none;stroke:#4d4d4d;stroke-width:1;stroke-linecap:round;stroke-linejoin:round;stroke-miterlimit:4;stroke-opacity:1;stroke-dasharray:1.00000004999999992, 1.99999999000000006;stroke-dashoffset:0"
       inkscape:export-filename="/home/waldgeist/sandbox/homepage/pics/physik/optik/lichtbeugung-interferenz-doppelspalt.png"
       inkscape:export-xdpi="150"
       inkscape:export-ydpi="150" />
  </g>
</svg>
