<svg xmlns:ns0="http://www.iki.fi/pav/software/textext/" xmlns="http://www.w3.org/2000/svg" xmlns:xlink="http://www.w3.org/1999/xlink" width="210mm" height="297mm"><title>Lichtbeugung am Doppelspalt (Winkelbeziehung)</title><defs><marker id="e" orient="auto" overflow="visible"><path transform="rotate(180) scale(.6)" d="M8.719 4.034L-2.207.016 8.719-4.002c-1.746 2.372-1.736 5.618 0 8.036z" fill-rule="evenodd" stroke-width=".625" stroke-linejoin="round"/></marker><marker orient="auto" id="a" overflow="visible"><path d="M8.719 4.034L-2.207.016 8.719-4.002c-1.746 2.372-1.736 5.618 0 8.036z" transform="scale(.6)" fill-rule="evenodd" stroke-width=".625" stroke-linejoin="round"/></marker><marker orient="auto" id="b" overflow="visible"><path d="M-4 0l-2 2 7-2-7-2 2 2z" fill-rule="evenodd" stroke="#000" stroke-width=".4pt"/></marker></defs><path style="marker:none" color="#000" fill="#fff" stroke="#fff" stroke-linecap="round" stroke-linejoin="round" stroke-dasharray=".99999989,2" overflow="visible" d="M19.542 318.036h692.345v338.082H19.542z"/><path style="marker:none" color="#000" fill="#f9f9f9" stroke="#f9f9f9" stroke-width=".427" stroke-linecap="round" stroke-dasharray="1.28196471,2.56392936" overflow="visible" d="M34.617 329.776h662.195V644.38H34.617z"/><path style="marker:none" color="#000" fill="#fff" stroke="gray" stroke-linecap="round" stroke-linejoin="round" overflow="visible" d="M609.021 340.127h15.112v293.901h-15.112z"/><path d="M73.296 487.077h535.725" fill="none" stroke="#000" stroke-dasharray=".87830781,1.75661557"/><g stroke="#000"><path d="M70.185 474.554v25.047l3.111-9.028v-7.005z" fill="#999" stroke-linecap="round" stroke-linejoin="round" stroke-width=".5"/><path d="M73.54 518.67v-8.217l-3.355-9.018v17.234zM73.54 455.486v8.216l-3.355 9.018v-17.234z" fill="gray" stroke-width=".5"/></g><path d="M75.219 487.063l533.802-87.986" fill="none" stroke="#333" stroke-dasharray="1,2"/><path d="M658.868 401.44l.245 83.637" fill="none" stroke="#4d4d4d" stroke-width="1.5" marker-start="url(#a)" marker-end="url(#b)"/><path d="M646.142 399.077h25.875" fill="none" stroke="#4d4d4d" stroke-linecap="round" stroke-linejoin="round" stroke-dasharray=".99999997,2.00000009"/><path d="M645.953 487.077h25.875" fill="none" stroke="#4d4d4d" stroke-linecap="round" stroke-linejoin="round" stroke-dasharray="1.0000001,2.00000008"/><path style="marker:none" color="#000" fill="#f9f9f9" stroke="#f9f9f9" stroke-width="1.051" stroke-linecap="round" stroke-linejoin="round" overflow="visible" d="M652.879 434.354h11.995v17.697h-11.995z"/><g transform="matrix(1.94342 0 0 1.94342 220.288 185.473)" ns0:preamble="/home/waldgeist/data/sphinx/inkscape-preamble.tex" ns0:text="$a$"><defs><symbol id="c" overflow="visible"><path d="M3.719-3.766c-.188-.375-.469-.64-.922-.64-1.156 0-2.39 1.468-2.39 2.922C.406-.547.952.109 1.718.109c.203 0 .703-.046 1.297-.75a.91.91 0 0 0 .906.75c.36 0 .578-.234.75-.546a6.49 6.49 0 0 0 .297-.985c0-.11-.094-.11-.125-.11-.094 0-.11.048-.14.188-.173.64-.345 1.235-.75 1.235-.282 0-.298-.266-.298-.454 0-.218.016-.312.125-.75.11-.406.125-.515.219-.89l.36-1.39c.062-.282.062-.298.062-.345 0-.171-.11-.265-.281-.265-.25 0-.391.219-.422.437zm-.64 2.579c-.063.187-.063.203-.204.375-.438.546-.844.703-1.125.703-.5 0-.64-.547-.64-.938 0-.5.312-1.719.546-2.187.313-.579.75-.954 1.157-.954.64 0 .78.813.78.875a.562.562 0 0 1-.03.172z"/></symbol></defs><use y="134.765" x="223.432" xlink:href="#c" width="744.094" height="1052.362"/></g><path d="M75.54 518.668l530.215-.243" fill="none" stroke="#4d4d4d" stroke-width="1.5" marker-start="url(#a)" marker-end="url(#b)"/><path style="marker:none" color="#000" fill="#f9f9f9" stroke="#f9f9f9" stroke-width="1.051" stroke-linecap="round" stroke-linejoin="round" overflow="visible" d="M334.595 509.826h11.995v17.697h-11.995z"/><g ns0:text="$s$" ns0:preamble="/home/waldgeist/data/sphinx/inkscape-preamble.tex" transform="matrix(1.94342 0 0 1.94342 -97.996 260.944)"><defs><symbol overflow="visible" id="d"><path d="M3.89-3.734c-.265.015-.468.234-.468.453 0 .14.094.297.312.297.22 0 .454-.172.454-.563 0-.453-.422-.86-1.188-.86-1.313 0-1.688 1.016-1.688 1.454 0 .781.735.922 1.032.984.515.11 1.031.219 1.031.766 0 .25-.219 1.094-1.422 1.094-.14 0-.906 0-1.14-.532.39.047.64-.25.64-.53 0-.22-.172-.345-.375-.345-.266 0-.562.204-.562.657 0 .562.578.968 1.421.968 1.625 0 2.016-1.203 2.016-1.656a.97.97 0 0 0-.312-.719c-.266-.28-.563-.343-1-.421-.36-.079-.75-.157-.75-.61 0-.281.234-.89 1.109-.89.25 0 .75.078.89.453z"/></symbol></defs><use xlink:href="#d" x="223.432" y="134.765"/></g><path transform="matrix(7.62101 0 0 -7.86036 -3080.372 4105.68)" d="M440.794 460.363a26.715 26.715 0 0 1-.308 4.045" style="marker:none" opacity=".75" color="#000" fill="#f9f9f9" stroke="#333" stroke-width=".129" stroke-linecap="round" stroke-linejoin="round" marker-end="url(#e)" overflow="visible"/><g transform="matrix(1.94342 0 0 1.94342 -175.66 215.144)" ns0:preamble="/home/waldgeist/data/sphinx/inkscape-preamble.tex" ns0:text="$\\alpha$"><defs><symbol id="f" overflow="visible"><path d="M4.75-2.36c0-1.562-.922-2.046-1.656-2.046-1.375 0-2.688 1.422-2.688 2.828C.406-.641 1 .109 2.031.109c.625 0 1.344-.234 2.094-.843.125.53.453.843.906.843.532 0 .844-.546.844-.703 0-.078-.063-.11-.125-.11-.063 0-.094.032-.125.11-.188.485-.547.485-.563.485-.312 0-.312-.782-.312-1.016 0-.203 0-.234.11-.344C5.796-2.656 6-3.812 6-3.812c0-.032-.016-.11-.125-.11-.094 0-.094.031-.14.219-.188.625-.516 1.375-.985 1.969zM4.094-.983c-.89.765-1.657.875-2.047.875-.594 0-.906-.454-.906-1.094 0-.484.265-1.563.578-2.063.468-.734 1.015-.921 1.36-.921.983 0 .983 1.312.983 2.078 0 .375 0 .953.032 1.125z"/></symbol></defs><use y="134.765" x="223.432" xlink:href="#f" width="744.094" height="1052.362"/></g><path d="M70.658 500.518l538.363-101.44" fill="none" stroke="#f60"/><path d="M70.658 500.518a.473.473 0 1 1-.947 0 .473.473 0 1 1 .947 0zM70.658 473.637a.473.473 0 1 1-.947 0 .473.473 0 1 1 .947 0z" stroke="#000" stroke-width=".7682026799999999" stroke-linecap="round"/><path d="M70.185 474.554l538.836-75.476" fill="none" stroke="#f60" marker-end="url(#b)"/><path d="M598.043 487.077a10.978 10.978 0 0 1 10.978-10.977" style="marker:none" color="#000" fill="none" stroke="#4d4d4d" stroke-width="1.4997120000000002" stroke-linecap="round" stroke-linejoin="round" overflow="visible"/><path d="M604.732 482.634a.19.19 0 1 1-.35-.145.19.19 0 1 1 .35.145z" fill="#4d4d4d" stroke="#4d4d4d" stroke-width="1.5385696" stroke-linecap="round" stroke-linejoin="round"/></svg>