<svg xmlns:ns0="http://www.iki.fi/pav/software/textext/" xmlns="http://www.w3.org/2000/svg" xmlns:xlink="http://www.w3.org/1999/xlink" width="1122.52" height="793.701" viewBox="0 0 1052.3622 744.09448"><title>Maxima und Minima am Doppelspalt</title><defs><marker id="f" orient="auto" overflow="visible"><path d="M-4 0l-2 2 7-2-7-2z" fill-rule="evenodd" stroke="#000" stroke-width=".5332"/></marker><marker id="e" orient="auto" overflow="visible"><path transform="scale(.6)" d="M8.719 4.034L-2.207.016 8.719-4.002c-1.746 2.372-1.736 5.618 0 8.036z" fill-rule="evenodd" stroke-width=".625" stroke-linejoin="round"/></marker><marker id="h" orient="auto" overflow="visible"><path transform="scale(-.6)" d="M8.719 4.034L-2.207.016 8.719-4.002c-1.746 2.372-1.736 5.618 0 8.036z" fill-rule="evenodd" stroke-width=".625" stroke-linejoin="round"/></marker></defs><g transform="translate(0 -308.268)"><path style="marker:none" color="#000" overflow="visible" fill="#fff" stroke="#fff" stroke-linecap="round" stroke-linejoin="round" stroke-dasharray=".99999989,1.99999999" d="M4.708 449.359h1042.947v449.912H4.708z"/><path style="marker:none" color="#000" overflow="visible" fill="#f9f9f9" stroke="#f9f9f9" stroke-width=".427" stroke-linecap="round" stroke-dasharray="1.28196471,2.56392937" d="M545.824 466.078h486.894v415.855H545.824zM19.643 466.078h486.894v415.855H19.643z"/><path d="M104.805 485.487v86.243l-6.713 22.036V485.487z" fill="gray" stroke="#000" stroke-linecap="round" stroke-linejoin="round"/><path d="M98.582 602.647v156.092l6.223-22.056V624.673z" fill="#999" stroke="#000" stroke-linecap="round" stroke-linejoin="round"/><path d="M104.805 868.087v-78.432l-6.713-22.035v100.467z" fill="gray" stroke="#000"/><path d="M104.805 680.693h386.858" fill="none" stroke="gray" stroke-dasharray=".87830781,1.75661557"/><circle transform="matrix(.01595 0 0 .01595 83.733 585.525)" cx="963.18" cy="795.107" r="118.693" stroke="#000" stroke-width="96.266" stroke-linecap="round"/><circle transform="matrix(.01595 0 0 .01595 83.733 750.499)" cx="963.18" cy="795.107" r="118.693" stroke="#000" stroke-width="96.266" stroke-linecap="round"/><path d="M99.094 598.206L157.42 739.02" fill="none" stroke="gray" stroke-width="1.5" stroke-linecap="round" stroke-linejoin="round"/><path d="M147.279 743.22a10.978 10.978 0 0 1 5.94-14.343" style="marker:none" color="#000" overflow="visible" fill="none" stroke="#4d4d4d" stroke-width="1.4997120000000002" stroke-linecap="round" stroke-linejoin="round"/><circle transform="matrix(.0016 0 0 .0016 149.943 735.322)" cx="963.18" cy="795.107" r="118.693" fill="#4d4d4d" stroke="#4d4d4d" stroke-width="961.606" stroke-linecap="round" stroke-linejoin="round"/><g transform="matrix(1.94342 0 0 1.94342 -360.58 508.158)" ns0:preamble="/home/waldgeist/data/sphinx/inkscape-preamble.tex" ns0:text="$\\rm{Z}_2$" fill="#666" stroke="gray" stroke-width="1.029"><defs><symbol id="a" overflow="visible"><path d="M5.453-6.453c.063-.11.063-.125.063-.203 0-.157-.047-.157-.25-.157H.796l-.109 2.25h.25C1-5.688 1.313-6.5 2.938-6.5H4.5L.625-.375c-.063.11-.063.125-.063.203C.563 0 .61 0 .813 0h4.594l.172-2.656h-.25C5.25-1.281 5.062-.344 3.218-.344h-1.64z" stroke="none"/></symbol><symbol id="b" overflow="visible"><path d="M3.516-1.266H3.28c-.015.157-.094.563-.187.625-.047.047-.578.047-.688.047H1.125c.734-.64.984-.844 1.39-1.172.516-.406 1-.843 1-1.5 0-.843-.734-1.359-1.624-1.359-.86 0-1.454.61-1.454 1.25 0 .344.297.39.376.39.156 0 .359-.124.359-.374 0-.125-.047-.375-.406-.375.218-.485.687-.641 1.015-.641.703 0 1.063.547 1.063 1.11 0 .609-.438 1.078-.656 1.328L.516-.266C.437-.203.437-.187.437 0h2.876z" stroke="none"/></symbol></defs><use y="134.765" x="223.432" xlink:href="#a" width="744.094" height="1052.362"/><use y="136.259" x="229.52" xlink:href="#b" width="744.094" height="1052.362"/></g><g ns0:text="$\\rm{Z}_1$" ns0:preamble="/home/waldgeist/data/sphinx/inkscape-preamble.tex" transform="matrix(1.94342 0 0 1.94342 -360.58 343.393)" fill="#666" stroke="gray" stroke-width="1.029"><defs><symbol overflow="visible" id="c"><path d="M5.453-6.453c.063-.11.063-.125.063-.203 0-.157-.047-.157-.25-.157H.796l-.109 2.25h.25C1-5.688 1.313-6.5 2.938-6.5H4.5L.625-.375c-.063.11-.063.125-.063.203C.563 0 .61 0 .813 0h4.594l.172-2.656h-.25C5.25-1.281 5.062-.344 3.218-.344h-1.64z" stroke="none"/></symbol><symbol overflow="visible" id="d"><path d="M2.328-4.438c0-.187 0-.187-.203-.187-.453.438-1.078.438-1.36.438v.25c.157 0 .626 0 1-.188v3.547c0 .234 0 .328-.687.328H.812V0c.125 0 .985-.031 1.235-.031.219 0 1.094.031 1.25.031v-.25H3.03c-.703 0-.703-.094-.703-.328z" stroke="none"/></symbol></defs><use height="1052.362" width="744.094" xlink:href="#c" x="223.432" y="134.765"/><use height="1052.362" width="744.094" xlink:href="#d" x="229.52" y="136.259"/></g><path d="M47.433 599.768l.245 161.341" fill="none" stroke="#4d4d4d" stroke-width="1.5" marker-start="url(#e)" marker-end="url(#f)"/><path style="marker:none" color="#000" overflow="visible" fill="#f9f9f9" stroke="#f9f9f9" stroke-width="1.5" stroke-linecap="round" stroke-linejoin="round" d="M38.899 668.025h17.113v25.249H38.899z"/><g transform="matrix(1.94342 0 0 1.94342 -391.247 425.363)" ns0:preamble="/home/waldgeist/data/sphinx/inkscape-preamble.tex" ns0:text="$b$"><defs><symbol id="g" overflow="visible"><path d="M2.375-6.813s0-.109-.125-.109c-.219 0-.953.078-1.219.11-.078 0-.187.015-.187.187 0 .125.094.125.25.125.468 0 .484.063.484.172 0 .062-.078.406-.125.61l-.828 3.25c-.11.5-.156.671-.156 1.015C.469-.516 1 .109 1.734.109c1.172 0 2.407-1.484 2.407-2.921 0-.907-.532-1.594-1.329-1.594-.453 0-.874.297-1.171.593zm-.922 3.766c.047-.219.047-.234.14-.344.485-.64.938-.796 1.204-.796.36 0 .625.296.625.937 0 .594-.328 1.734-.516 2.11-.328.671-.781 1.03-1.172 1.03-.343 0-.671-.265-.671-1 0-.202 0-.39.156-1.015z"/></symbol></defs><use y="134.765" x="223.432" xlink:href="#g" width="744.094" height="1052.362"/></g><path d="M34.518 598.206h25.875" fill="none" stroke="#4d4d4d" stroke-linecap="round" stroke-linejoin="round" stroke-dasharray=".99999997,2.00000009"/><path d="M34.518 763.18h25.875" fill="none" stroke="#4d4d4d" stroke-linecap="round" stroke-linejoin="round" stroke-dasharray="1.0000001,2.00000008"/><path d="M630.986 485.487v86.243l-6.713 22.036V485.487z" fill="gray" stroke="#000" stroke-linecap="round" stroke-linejoin="round"/><path d="M624.763 602.647v156.092l6.223-22.056V624.673z" fill="#999" stroke="#000" stroke-linecap="round" stroke-linejoin="round"/><path d="M630.986 868.087v-78.432l-6.713-22.035v100.467z" fill="gray" stroke="#000"/><path d="M630.986 680.693h386.858" fill="none" stroke="gray" stroke-dasharray=".87830781,1.75661557"/><circle transform="matrix(.01595 0 0 .01595 609.914 585.525)" cx="963.18" cy="795.107" r="118.693" stroke="#000" stroke-width="96.266" stroke-linecap="round"/><circle transform="matrix(.01595 0 0 .01595 609.914 750.499)" cx="963.18" cy="795.107" r="118.693" stroke="#000" stroke-width="96.266" stroke-linecap="round"/><path d="M625.275 598.206l58.327 140.814" fill="none" stroke="gray" stroke-width="1.5" stroke-linecap="round" stroke-linejoin="round"/><path style="marker:none" d="M673.46 743.22a10.978 10.978 0 0 1 5.94-14.343" color="#000" overflow="visible" fill="none" stroke="#4d4d4d" stroke-width="1.4997120000000002" stroke-linecap="round" stroke-linejoin="round"/><circle transform="matrix(.0016 0 0 .0016 676.124 735.322)" cx="963.18" cy="795.107" r="118.693" fill="#4d4d4d" stroke="#4d4d4d" stroke-width="961.606" stroke-linecap="round" stroke-linejoin="round"/><g ns0:text="$\\rm{Z}_2$" ns0:preamble="/home/waldgeist/data/sphinx/inkscape-preamble.tex" fill="#666" stroke="gray" stroke-width="1.029"><use height="1052.362" width="744.094" xlink:href="#a" x="223.432" y="134.765" transform="matrix(1.94342 0 0 1.94342 165.6 508.158)"/><use height="1052.362" width="744.094" xlink:href="#b" x="229.52" y="136.259" transform="matrix(1.94342 0 0 1.94342 165.6 508.158)"/></g><g ns0:preamble="/home/waldgeist/data/sphinx/inkscape-preamble.tex" ns0:text="$\\rm{Z}_1$" fill="#666" stroke="gray" stroke-width="1.029"><use y="134.765" x="223.432" xlink:href="#c" width="744.094" height="1052.362" transform="matrix(1.94342 0 0 1.94342 165.6 343.393)"/><use y="136.259" x="229.52" xlink:href="#d" width="744.094" height="1052.362" transform="matrix(1.94342 0 0 1.94342 165.6 343.393)"/></g><path d="M625.275 763.18l58.327-24.16" fill="none" stroke="#999" stroke-width="1.5" stroke-linecap="round"/><path d="M573.614 599.768l.245 161.341" fill="none" stroke="#4d4d4d" stroke-width="1.5" marker-start="url(#e)" marker-end="url(#f)"/><path style="marker:none" color="#000" overflow="visible" fill="#f9f9f9" stroke="#f9f9f9" stroke-width="1.5" stroke-linecap="round" stroke-linejoin="round" d="M565.08 668.025h17.113v25.249H565.08z"/><use height="1052.362" width="744.094" xlink:href="#g" x="223.432" y="134.765" transform="matrix(1.94342 0 0 1.94342 134.934 425.363)" ns0:text="$b$" ns0:preamble="/home/waldgeist/data/sphinx/inkscape-preamble.tex"/><path d="M560.699 598.206h25.875" fill="none" stroke="#4d4d4d" stroke-linecap="round" stroke-linejoin="round" stroke-dasharray=".99999997,2.00000009"/><path d="M560.699 763.18h25.875" fill="none" stroke="#4d4d4d" stroke-linecap="round" stroke-linejoin="round" stroke-dasharray="1.0000001,2.00000008"/><path d="M215.75 549.891l58.326 140.814M157.422 574.049l58.327 140.813M274.077 525.734l58.327 140.813M332.405 501.576l58.327 140.814" fill="none" stroke="#b3b3b3" stroke-width="1.5" stroke-linecap="round" stroke-linejoin="round"/><path d="M99.095 598.208c2.326-3.866 4.675-7.678 7.546-10.229 2.87-2.55 6.288-3.784 10.216-3.783 3.928.001 8.344 1.182 12.718 2.257 4.373 1.075 8.657 1.937 12.39 1.467 3.733-.47 6.895-2.318 9.584-5.31 2.149-2.392 4.012-5.473 5.874-8.559M157.422 574.049c2.326-3.867 4.674-7.68 7.546-10.23 2.87-2.55 6.288-3.784 10.216-3.783 3.928.001 8.344 1.182 12.717 2.257 4.373 1.075 8.658 1.938 12.391 1.468 3.733-.47 6.895-2.32 9.584-5.311 2.149-2.392 4.012-5.473 5.874-8.559M215.75 549.891c2.325-3.867 4.674-7.679 7.545-10.23 2.871-2.55 6.288-3.783 10.216-3.782 3.929.001 8.345 1.181 12.718 2.257 4.373 1.075 8.658 1.937 12.391 1.467 3.733-.47 6.895-2.319 9.583-5.31 2.15-2.392 4.013-5.473 5.874-8.56M274.077 525.734c2.326-3.867 4.675-7.679 7.546-10.23 2.871-2.55 6.288-3.783 10.216-3.782 3.928 0 8.345 1.18 12.718 2.256 4.373 1.075 8.658 1.938 12.39 1.468 3.734-.47 6.896-2.319 9.584-5.311 2.15-2.392 4.013-5.473 5.874-8.559" fill="none" stroke="#f60" stroke-width="1.5" stroke-linecap="round"/><path d="M332.405 501.576c2.326-3.866 4.675-7.678 7.546-10.23 2.871-2.55 6.288-3.783 10.216-3.782 3.928.001 8.345 1.181 12.718 2.257 4.373 1.075 8.658 1.937 12.39 1.467 3.734-.47 6.896-2.318 9.584-5.31 2.149-2.392 4.012-5.473 5.874-8.56" fill="none" stroke="#f60" stroke-width="1.5" stroke-linecap="round" marker-end="url(#h)"/><path d="M625.275 763.18c5.165-6.495 10.364-12.908 16.347-17.428 5.983-4.52 12.785-7.064 20.353-7.757 7.569-.693 15.87.383 24.106 1.302 8.235.918 16.34 1.518 23.615.118 7.275-1.4 13.695-4.866 19.403-10.049 4.564-4.142 8.699-9.32 12.831-14.503" fill="none" stroke="#f60" stroke-width="1.5" stroke-linecap="round"/><path d="M99.094 763.18l58.327-24.16" fill="none" stroke="#999" stroke-width="1.5" stroke-linecap="round"/><g fill="none" stroke="#f60" stroke-width="1.5" stroke-linecap="round"><path d="M99.094 763.18c2.326-3.868 4.675-7.68 7.546-10.23 2.87-2.55 6.288-3.784 10.216-3.783 3.928.001 8.345 1.181 12.718 2.257 4.373 1.075 8.658 1.937 12.39 1.467 3.733-.47 6.895-2.319 9.584-5.31 2.149-2.392 4.012-5.473 5.874-8.56M157.42 739.02c2.327-3.867 4.675-7.68 7.547-10.23 2.87-2.55 6.288-3.784 10.216-3.783 3.928.001 8.344 1.182 12.717 2.257 4.373 1.075 8.658 1.937 12.391 1.467 3.733-.47 6.895-2.318 9.584-5.31 2.149-2.392 4.012-5.473 5.874-8.559M215.749 714.862c2.326-3.867 4.674-7.679 7.545-10.23 2.872-2.55 6.288-3.783 10.216-3.782 3.929 0 8.345 1.181 12.718 2.256 4.373 1.076 8.658 1.938 12.391 1.468 3.733-.47 6.895-2.319 9.583-5.31 2.15-2.393 4.013-5.474 5.874-8.56M274.076 690.705c2.326-3.867 4.675-7.68 7.546-10.23 2.871-2.55 6.288-3.784 10.216-3.783 3.928.001 8.345 1.182 12.718 2.257 4.373 1.075 8.658 1.938 12.39 1.468 3.734-.47 6.896-2.32 9.584-5.311 2.15-2.392 4.013-5.473 5.874-8.559M332.404 666.547c2.326-3.867 4.675-7.679 7.546-10.23 2.871-2.55 6.288-3.783 10.216-3.782 3.928 0 8.345 1.181 12.718 2.256 4.373 1.076 8.658 1.938 12.39 1.468 3.734-.47 6.896-2.319 9.584-5.31 2.149-2.392 4.012-5.474 5.874-8.56"/><path d="M350.622 1020.513c3.63-2.683 7.258-5.306 10.886-6.564 3.63-1.257 7.258-1.09 10.887.415 3.628 1.504 7.257 4.285 10.886 6.952 3.628 2.666 7.257 5.103 10.886 6.097 3.628.995 7.257.497 10.886-1.239 2.9-1.387 5.801-3.52 8.702-5.659" marker-end="url(#h)" transform="rotate(-22.5 -579.799 730.629)"/></g><g transform="scale(1.94342) rotate(-22.5 817.396 690.897)" ns0:preamble="/home/waldgeist/data/sphinx/inkscape-preamble.tex" ns0:text="$\\Delta s = \\lambda$"><defs><symbol id="i" overflow="visible"><path d="M4.406-6.953c-.062-.14-.093-.188-.265-.188-.157 0-.188.047-.25.188L.516-.203c-.047.094-.047.11-.047.125C.469 0 .53 0 .688 0h6.921c.157 0 .22 0 .22-.078 0-.016 0-.031-.048-.125zm-.578.812L6.516-.75H1.14z"/></symbol><symbol id="k" overflow="visible"><path d="M6.844-3.266c.156 0 .343 0 .343-.187 0-.203-.187-.203-.328-.203H.891c-.141 0-.329 0-.329.203 0 .187.188.187.329.187zm.015 1.938c.141 0 .329 0 .329-.203 0-.188-.188-.188-.344-.188H.89c-.141 0-.329 0-.329.188 0 .203.188.203.329.203z"/></symbol><symbol id="j" overflow="visible"><path d="M3.89-3.734c-.265.015-.468.234-.468.453 0 .14.094.297.312.297.22 0 .454-.172.454-.563 0-.453-.422-.86-1.188-.86-1.313 0-1.688 1.016-1.688 1.454 0 .781.735.922 1.032.984.515.11 1.031.219 1.031.766 0 .25-.219 1.094-1.422 1.094-.14 0-.906 0-1.14-.532.39.047.64-.25.64-.53 0-.22-.172-.345-.375-.345-.266 0-.562.204-.562.657 0 .562.578.968 1.421.968 1.625 0 2.016-1.203 2.016-1.656a.97.97 0 0 0-.312-.719c-.266-.28-.563-.343-1-.421-.36-.079-.75-.157-.75-.61 0-.281.234-.89 1.109-.89.25 0 .75.078.89.453z"/></symbol><symbol id="l" overflow="visible"><path d="M3.563-2.906c.406 1.047.89 2.562 1.046 2.797.157.218.25.218.532.218h.218c.094-.015.11-.062.11-.093 0-.032-.032-.063-.063-.094-.093-.11-.156-.266-.218-.453L3.155-6.203c-.219-.578-.75-.719-1.219-.719-.046 0-.187 0-.187.11 0 .078.078.109.094.109.328.047.406.11.656.797l.953 2.703L.703-.47c-.11.125-.172.172-.172.313 0 .172.14.281.297.281.156 0 .25-.11.328-.203z"/></symbol></defs><use y="134.765" x="223.432" xlink:href="#i" width="1052.362" height="744.094"/><use y="134.765" x="231.734" xlink:href="#j" width="1052.362" height="744.094"/><use y="134.765" x="239.172" xlink:href="#k" width="1052.362" height="744.094"/><use y="134.765" x="249.688" xlink:href="#l" width="1052.362" height="744.094"/></g><path d="M858.585 666.547c5.165-6.494 10.365-12.907 16.348-17.427 5.983-4.52 12.784-7.064 20.353-7.757 7.568-.693 15.869.383 24.105 1.302 8.236.918 16.34 1.517 23.615.118 7.276-1.4 13.695-4.867 19.403-10.05 4.564-4.142 8.7-9.318 12.831-14.502" fill="none" stroke="#f60" stroke-width="1.5" stroke-linecap="round" marker-end="url(#h)"/><path d="M741.93 714.863c5.165-6.494 10.365-12.907 16.348-17.427 5.983-4.52 12.784-7.064 20.352-7.757 7.569-.693 15.87.383 24.106 1.302 8.236.918 16.34 1.518 23.615.118 7.275-1.4 13.695-4.867 19.403-10.049 4.564-4.143 8.699-9.32 12.831-14.503" fill="none" stroke="#f60" stroke-width="1.5" stroke-linecap="round"/><path d="M800.258 525.734l58.327 140.813M683.603 574.05l58.327 140.813" fill="none" stroke="#b3b3b3" stroke-width="1.5" stroke-linecap="round" stroke-linejoin="round"/><path d="M625.275 598.206c5.165-6.494 10.365-12.907 16.348-17.427 5.982-4.52 12.784-7.064 20.352-7.757 7.569-.693 15.87.383 24.106 1.302 8.235.918 16.34 1.518 23.615.118 7.275-1.4 13.695-4.867 19.403-10.049 4.564-4.143 8.699-9.32 12.831-14.503" fill="none" stroke="#f60" stroke-width="1.5" stroke-linecap="round"/><path d="M741.93 549.892c5.166-6.495 10.365-12.907 16.348-17.427 5.983-4.52 12.785-7.065 20.353-7.758 7.569-.692 15.87.384 24.105 1.302 8.236.919 16.34 1.518 23.616.119 7.275-1.4 13.694-4.867 19.403-10.05 4.564-4.142 8.699-9.319 12.83-14.502" fill="none" stroke="#f60" stroke-width="1.5" stroke-linecap="round" marker-end="url(#h)"/><g transform="scale(1.94342) rotate(-22.5 951.767 11.948)" ns0:preamble="/home/waldgeist/data/sphinx/inkscape-preamble.tex" ns0:text="$\\Delta s = \\frac{\\lambda}{2}$"><defs><symbol id="m" overflow="visible"><path d="M4.406-6.953c-.062-.14-.093-.188-.265-.188-.157 0-.188.047-.25.188L.516-.203c-.047.094-.047.11-.047.125C.469 0 .53 0 .688 0h6.921c.157 0 .22 0 .22-.078 0-.016 0-.031-.048-.125zm-.578.812L6.516-.75H1.14z"/></symbol><symbol id="o" overflow="visible"><path d="M6.844-3.266c.156 0 .343 0 .343-.187 0-.203-.187-.203-.328-.203H.891c-.141 0-.329 0-.329.203 0 .187.188.187.329.187zm.015 1.938c.141 0 .329 0 .329-.203 0-.188-.188-.188-.344-.188H.89c-.141 0-.329 0-.329.188 0 .203.188.203.329.203z"/></symbol><symbol id="n" overflow="visible"><path d="M3.89-3.734c-.265.015-.468.234-.468.453 0 .14.094.297.312.297.22 0 .454-.172.454-.563 0-.453-.422-.86-1.188-.86-1.313 0-1.688 1.016-1.688 1.454 0 .781.735.922 1.032.984.515.11 1.031.219 1.031.766 0 .25-.219 1.094-1.422 1.094-.14 0-.906 0-1.14-.532.39.047.64-.25.64-.53 0-.22-.172-.345-.375-.345-.266 0-.562.204-.562.657 0 .562.578.968 1.421.968 1.625 0 2.016-1.203 2.016-1.656a.97.97 0 0 0-.312-.719c-.266-.28-.563-.343-1-.421-.36-.079-.75-.157-.75-.61 0-.281.234-.89 1.109-.89.25 0 .75.078.89.453z"/></symbol><symbol id="p" overflow="visible"><path d="M2.813-2c.343.797.75 1.813.828 1.906.125.157.25.157.359.157h.14c.141 0 .204 0 .204-.079 0-.03-.016-.046-.032-.062-.078-.078-.156-.25-.187-.313l-1.688-4c-.046-.125-.187-.453-.937-.453-.078 0-.172 0-.172.11 0 .078.063.093.094.093.156.016.281.047.453.438l.828 1.953L.656-.39c-.078.062-.14.124-.14.234 0 .172.14.234.234.234.14 0 .219-.078.234-.11z"/></symbol><symbol id="q" overflow="visible"><path d="M3.516-1.266H3.28c-.015.157-.094.563-.187.625-.047.047-.578.047-.688.047H1.125c.734-.64.984-.844 1.39-1.172.516-.406 1-.843 1-1.5 0-.843-.734-1.359-1.624-1.359-.86 0-1.454.61-1.454 1.25 0 .344.297.39.376.39.156 0 .359-.124.359-.374 0-.125-.047-.375-.406-.375.218-.485.687-.641 1.015-.641.703 0 1.063.547 1.063 1.11 0 .609-.438 1.078-.656 1.328L.516-.266C.437-.203.437-.187.437 0h2.876z"/></symbol></defs><use y="134.765" x="223.432" xlink:href="#m" width="1052.362" height="744.094"/><use y="134.765" x="231.734" xlink:href="#n" width="1052.362" height="744.094"/><use y="134.765" x="239.172" xlink:href="#o" width="1052.362" height="744.094"/><use y="130.842" x="250.883" xlink:href="#p" width="1052.362" height="744.094"/><path d="M250.5 132.5h5" fill="none" stroke="#000" stroke-width=".515" stroke-linecap="round" stroke-miterlimit="10"/><use y="138.2" x="251.26" xlink:href="#q" width="1052.362" height="744.094"/></g></g></svg>