<svg xmlns:ns0="http://www.iki.fi/pav/software/textext/" xmlns="http://www.w3.org/2000/svg" xmlns:xlink="http://www.w3.org/1999/xlink" width="210mm" height="297mm"><title>Lichtbeugung und Interferenz am Doppelspalt</title><defs><marker orient="auto" id="g" overflow="visible"><path d="M-4 0l-2 2 7-2-7-2 2 2z" fill-rule="evenodd" stroke="#000" stroke-width=".4pt"/></marker><marker orient="auto" id="f" overflow="visible"><path d="M4 0l2-2-7 2 7 2-2-2z" fill-rule="evenodd" stroke="#000" stroke-width=".4pt"/></marker><marker id="a" orient="auto" overflow="visible"><path transform="scale(-.6)" d="M8.719 4.034L-2.207.016 8.719-4.002c-1.746 2.372-1.736 5.618 0 8.036z" font-size="12" fill-rule="evenodd" stroke-width=".625" stroke-linejoin="round"/></marker></defs><path style="marker:none" color="#000" fill="#fff" stroke="#fff" stroke-linecap="round" stroke-linejoin="round" stroke-dasharray=".99999995,1.99999991" overflow="visible" d="M20.857 245.021h702.381v562.32H20.857z"/><path style="marker:none" color="#000" fill="#f9f9f9" stroke="#f9f9f9" stroke-width=".427" stroke-linecap="round" stroke-dasharray="1.28196473,2.56392949" overflow="visible" d="M41.713 259.982h660.668v532.399H41.713z"/><path d="M181.136 284.83v110.413l-8.594 28.21V284.83z" fill="gray" stroke="#000" stroke-linecap="round" stroke-linejoin="round"/><path d="M173.17 434.823V634.661l7.966-28.238V463.023l-7.967-28.2z" fill="#999" stroke="#000" stroke-linecap="round" stroke-linejoin="round"/><path d="M181.136 774.654V674.24l-8.594-28.21v128.623z" fill="gray" stroke="#000"/><path d="M181.136 534.742h495.276" fill="none" stroke="gray" stroke-dasharray=".87830783,1.75661559"/><path d="M176.248 429.138a2.423 2.423 0 1 1-4.847 0 2.423 2.423 0 1 1 4.847 0zM176.248 640.345a2.423 2.423 0 1 1-4.847 0 2.423 2.423 0 1 1 4.847 0z" stroke="#000" stroke-width="1.53544106" stroke-linecap="round"/><path d="M173.825 429.138l364.924-151.156" fill="none" stroke="#f60" stroke-width="1.5" stroke-linecap="round" marker-end="url(#a)"/><path d="M173.825 429.138l74.673 180.277" fill="none" stroke="gray" stroke-width="1.5" stroke-linecap="round" stroke-linejoin="round"/><path style="marker:none" d="M235.513 614.793a14.054 14.054 0 0 1 7.606-18.363" color="#000" fill="none" stroke="#4d4d4d" stroke-width="1.5" stroke-linecap="round" stroke-linejoin="round" overflow="visible"/><path d="M173.825 640.345l439.597-182.087" fill="none" stroke="#f60" stroke-width="1.5" stroke-linecap="round" marker-end="url(#a)"/><path d="M241.135 606.306a.243.243 0 1 1-.485 0 .243.243 0 1 1 .485 0z" fill="#4d4d4d" stroke="#4d4d4d" stroke-width="1.53225828" stroke-linecap="round" stroke-linejoin="round"/><g ns0:text="$\\rm{Z}_2$" ns0:preamble="/home/waldgeist/data/sphinx/inkscape-preamble.tex" transform="translate(-414.674 313.854) scale(2.48807)" stroke="gray" fill="#666" stroke-width=".804"><defs><symbol overflow="visible" id="b"><path d="M5.453-6.453c.063-.11.063-.125.063-.203 0-.157-.047-.157-.25-.157H.796l-.109 2.25h.25C1-5.688 1.313-6.5 2.938-6.5H4.5L.625-.375c-.063.11-.063.125-.063.203C.563 0 .61 0 .813 0h4.594l.172-2.656h-.25C5.25-1.281 5.062-.344 3.218-.344h-1.64z" stroke="none"/></symbol><symbol overflow="visible" id="c"><path d="M3.516-1.266H3.28c-.015.157-.094.563-.187.625-.047.047-.578.047-.688.047H1.125c.734-.64.984-.844 1.39-1.172.516-.406 1-.843 1-1.5 0-.843-.734-1.359-1.624-1.359-.86 0-1.454.61-1.454 1.25 0 .344.297.39.376.39.156 0 .359-.124.359-.374 0-.125-.047-.375-.406-.375.218-.485.687-.641 1.015-.641.703 0 1.063.547 1.063 1.11 0 .609-.438 1.078-.656 1.328L.516-.266C.437-.203.437-.187.437 0h2.876z" stroke="none"/></symbol></defs><use height="1052.362" width="744.094" xlink:href="#b" x="223.432" y="134.765"/><use height="1052.362" width="744.094" xlink:href="#c" x="229.52" y="136.259"/></g><g transform="translate(-414.674 102.914) scale(2.48807)" ns0:preamble="/home/waldgeist/data/sphinx/inkscape-preamble.tex" ns0:text="$\\rm{Z}_1$" stroke="gray" fill="#666" stroke-width=".804"><defs><symbol id="d" overflow="visible"><path d="M5.453-6.453c.063-.11.063-.125.063-.203 0-.157-.047-.157-.25-.157H.796l-.109 2.25h.25C1-5.688 1.313-6.5 2.938-6.5H4.5L.625-.375c-.063.11-.063.125-.063.203C.563 0 .61 0 .813 0h4.594l.172-2.656h-.25C5.25-1.281 5.062-.344 3.218-.344h-1.64z" stroke="none"/></symbol><symbol id="e" overflow="visible"><path d="M2.328-4.438c0-.187 0-.187-.203-.187-.453.438-1.078.438-1.36.438v.25c.157 0 .626 0 1-.188v3.547c0 .234 0 .328-.687.328H.812V0c.125 0 .985-.031 1.235-.031.219 0 1.094.031 1.25.031v-.25H3.03c-.703 0-.703-.094-.703-.328z" stroke="none"/></symbol></defs><use y="134.765" x="223.432" xlink:href="#d" width="744.094" height="1052.362"/><use y="136.259" x="229.52" xlink:href="#e" width="744.094" height="1052.362"/></g><path d="M173.825 640.345l74.673-30.93" fill="none" stroke="#f60" stroke-width="3" stroke-linecap="round"/><path d="M107.686 431.138L108 637.695" fill="none" stroke="#4d4d4d" stroke-width="1.5" marker-start="url(#f)" marker-end="url(#g)"/><path style="marker:none" color="#000" fill="#f9f9f9" stroke="#f9f9f9" stroke-width="1.5" stroke-linecap="round" stroke-linejoin="round" overflow="visible" d="M96.76 518.524h21.909v32.325H96.76z"/><g ns0:text="$b$" ns0:preamble="/home/waldgeist/data/sphinx/inkscape-preamble.tex" transform="translate(-453.935 207.856) scale(2.48807)"><defs><symbol overflow="visible" id="h"><path d="M2.375-6.813s0-.109-.125-.109c-.219 0-.953.078-1.219.11-.078 0-.187.015-.187.187 0 .125.094.125.25.125.468 0 .484.063.484.172 0 .062-.078.406-.125.61l-.828 3.25c-.11.5-.156.671-.156 1.015C.469-.516 1 .109 1.734.109c1.172 0 2.407-1.484 2.407-2.921 0-.907-.532-1.594-1.329-1.594-.453 0-.874.297-1.171.593zm-.922 3.766c.047-.219.047-.234.14-.344.485-.64.938-.796 1.204-.796.36 0 .625.296.625.937 0 .594-.328 1.734-.516 2.11-.328.671-.781 1.03-1.172 1.03-.343 0-.671-.265-.671-1 0-.202 0-.39.156-1.015z"/></symbol></defs><use height="1052.362" width="744.094" xlink:href="#h" x="223.432" y="134.765"/></g><g ns0:text="$\\Delta s$" ns0:preamble="/home/waldgeist/data/sphinx/inkscape-preamble.tex"><path d="M200.707 601.286c-.278-.264-.394-.342-.79-.178-.359.149-.386.286-.396.669l-1.33 18.73c-.02.26-.004.295.01.331.075.18.219.12.578-.028l15.911-6.591c.36-.149.503-.208.428-.388-.014-.036-.03-.072-.226-.243zm-.556 2.418l11.31 9.832-12.355 5.118zM221.67 601.271c-.596.289-.855.985-.646 1.488.134.323.498.593 1 .385.504-.208.879-.827.507-1.725-.432-1.041-1.788-1.573-3.548-.844-3.017 1.25-2.912 3.94-2.496 4.947.744 1.795 2.566 1.42 3.308 1.28 1.29-.24 2.579-.479 3.1.779.238.574.538 2.722-2.227 3.868-.324.133-2.084.862-3.128-.136.942-.264 1.234-1.184.967-1.83-.209-.504-.723-.627-1.19-.434-.61.253-1.1 1.003-.668 2.044.536 1.293 2.251 1.677 4.19.873 3.736-1.547 3.489-4.685 3.057-5.726a2.413 2.413 0 0 0-1.402-1.355c-.879-.393-1.62-.254-2.7-.017-.901.162-1.874.355-2.305-.687-.268-.647-.31-2.27 1.702-3.104.575-.238 1.798-.534 2.479.194z"/></g><path d="M91.151 429.138h33.127" fill="none" stroke="#4d4d4d" stroke-linecap="round" stroke-linejoin="round" stroke-dasharray="1,2"/><path d="M91.151 640.345h33.127" fill="none" stroke="#4d4d4d" stroke-linecap="round" stroke-linejoin="round" stroke-dasharray="1.00000004999999992,1.99999999000000006"/></svg>