<svg xmlns:ns0="http://www.iki.fi/pav/software/textext/" xmlns="http://www.w3.org/2000/svg" xmlns:xlink="http://www.w3.org/1999/xlink" width="210mm" height="297mm"><title>Interferenzmaxima am optischen Gitter</title><defs><marker orient="auto" id="C" overflow="visible"><path d="M-1.2 0l-1 1 3.5-1-3.5-1 1 1z" fill-rule="evenodd" stroke="#000" stroke-width=".2pt"/></marker><marker orient="auto" id="A" overflow="visible"><path d="M-4 0l-2 2 7-2-7-2 2 2z" fill-rule="evenodd" stroke="#000" stroke-width=".4pt"/></marker><filter height="1.48" y="-.24" width="1.48" x="-.24" id="B"><feGaussianBlur stdDeviation="1.511"/></filter><linearGradient id="a"><stop offset="0" stop-color="red"/><stop offset=".232" stop-color="#ff7f00"/><stop offset=".441" stop-color="#ff0"/><stop offset=".639" stop-color="green"/><stop offset=".82" stop-color="#00f"/><stop offset="1" stop-color="#7f00ff"/></linearGradient><linearGradient y2="489.413" x2="620.679" y1="419.057" x1="620.679" gradientTransform="matrix(1.30147 0 0 .80189 -202.612 -969.028)" gradientUnits="userSpaceOnUse" id="c" xlink:href="#a"/><linearGradient y2="489.413" x2="620.679" y1="419.057" x1="620.679" gradientTransform="matrix(1.30147 0 0 .80189 -202.612 83.334)" gradientUnits="userSpaceOnUse" id="b" xlink:href="#a"/></defs><path style="marker:none" color="#000" fill="#fff" stroke="#fff" stroke-linecap="round" stroke-linejoin="round" stroke-dasharray=".99999994,1.9999999" overflow="visible" enable-background="accumulate" d="M20.857 331.119h702.381v390.123H20.857z"/><path style="marker:none" color="#000" fill="#b3b3b3" stroke="#b3b3b3" stroke-width=".427" stroke-linecap="round" stroke-dasharray="1.28196471000000001,2.56392946000000022" overflow="visible" enable-background="accumulate" d="M41.713 342.742h660.668V709.62H41.713z"/><path d="M181.136 526.181H597.3" fill="none" stroke="gray" stroke-dasharray=".87830783,1.75661559"/><path d="M178.333 507.984a.303.303 0 1 1-.606 0 .303.303 0 1 1 .606 0zM178.276 544.378a.303.303 0 1 1-.606 0 .303.303 0 1 1 .606 0z" stroke="#000" stroke-width="1.5339346500000002" stroke-linecap="round"/><path d="M177.944 521.19v9.983l1.992-2.53v-4.929z" fill="#999" stroke="#000" stroke-linecap="round" stroke-linejoin="round"/><path d="M178.276 532.247a.303.303 0 1 1-.606 0 .303.303 0 1 1 .606 0zM178.276 520.116a.303.303 0 1 1-.606 0 .303.303 0 1 1 .606 0z" stroke="#000" stroke-width="1.5339346500000002" stroke-linecap="round"/><path style="marker:none" color="#000" fill="#fff" stroke="gray" stroke-linecap="round" stroke-linejoin="round" overflow="visible" enable-background="accumulate" d="M597.3 379.23h15.112v293.901H597.3z"/><path style="marker:none" color="#000" fill="url(#b)" overflow="visible" enable-background="accumulate" d="M597.3 420.019h15.112v55.301H597.3z"/><path transform="scale(1 -1)" style="marker:none" color="#000" fill="url(#c)" overflow="visible" enable-background="accumulate" d="M597.3-632.344h15.112v55.301H597.3z"/><g ns0:text="Schirm\n" ns0:preamble="/home/waldgeist/data/sphinx/inkscape-preamble.tex" transform="matrix(2.25238 .00027 -.00027 2.25238 64.156 62.864)"><defs><symbol overflow="visible" id="d"><path d="M3.484-3.875l-1.28-.297c-.626-.156-1-.687-1-1.266 0-.703.53-1.312 1.312-1.312 1.656 0 1.875 1.64 1.937 2.078.016.063.016.125.125.125.125 0 .125-.047.125-.234v-2c0-.172 0-.25-.11-.25-.062 0-.077.015-.14.14l-.36.563c-.296-.297-.702-.703-1.593-.703-1.11 0-1.938.875-1.938 1.937 0 .828.532 1.563 1.297 1.828.11.032.625.157 1.329.329.265.062.562.14.843.5.203.265.313.593.313.921 0 .704-.5 1.422-1.344 1.422-.281 0-1.047-.047-1.578-.531-.578-.547-.61-1.172-.61-1.531-.015-.11-.093-.11-.125-.11-.125 0-.125.079-.125.25v2c0 .172 0 .235.11.235.062 0 .078-.016.14-.125 0-.016.032-.047.36-.578.312.343.953.703 1.844.703 1.156 0 1.953-.969 1.953-2.078 0-.985-.657-1.813-1.485-2.016z"/></symbol><symbol overflow="visible" id="e"><path d="M1.172-2.172c0-1.625.812-2.047 1.344-2.047.093 0 .718.016 1.062.375-.406.031-.469.328-.469.453 0 .266.188.454.454.454.265 0 .468-.157.468-.47 0-.671-.765-1.062-1.531-1.062C1.25-4.469.344-3.39.344-2.156c0 1.281.984 2.265 2.14 2.265 1.329 0 1.657-1.203 1.657-1.296 0-.094-.11-.094-.141-.094-.078 0-.11.031-.125.093C3.594-.265 2.937-.14 2.578-.14c-.531 0-1.406-.421-1.406-2.03z"/></symbol><symbol overflow="visible" id="f"><path d="M1.094-.75c0 .438-.11.438-.782.438V0c.36-.016.86-.031 1.141-.031.25 0 .766.015 1.11.031v-.313c-.672 0-.782 0-.782-.437v-1.844c0-1.031.719-1.594 1.344-1.594.64 0 .75.532.75 1.11V-.75c0 .438-.11.438-.781.438V0c.344-.016.86-.031 1.125-.031.25 0 .781.015 1.11.031v-.313c-.516 0-.766 0-.766-.296v-1.907c0-.859 0-1.156-.313-1.515-.14-.172-.469-.375-1.047-.375-.844 0-1.281.593-1.453.984v-3.5l-1.438.11v.312c.704 0 .782.063.782.563z"/></symbol><symbol overflow="visible" id="g"><path d="M1.766-4.406l-1.391.11v.312c.64 0 .734.062.734.546V-.75c0 .438-.109.438-.78.438V0c.312-.016.859-.031 1.093-.031.36 0 .703.015 1.047.031v-.313c-.672 0-.703-.046-.703-.437zm.03-1.735a.514.514 0 0 0-.515-.53.537.537 0 0 0-.531.53c0 .266.219.532.531.532a.514.514 0 0 0 .516-.532z"/></symbol><symbol overflow="visible" id="h"><path d="M1.672-3.313v-1.093l-1.39.11v.312c.702 0 .78.062.78.562V-.75c0 .438-.109.438-.78.438V0c.39-.016.859-.031 1.14-.031.39 0 .86 0 1.266.031v-.313h-.22c-.734 0-.75-.109-.75-.468v-1.531c0-.985.423-1.876 1.173-1.876.062 0 .093 0 .109.016-.031 0-.234.125-.234.39 0 .266.218.423.437.423a.421.421 0 0 0 .422-.438c0-.312-.313-.61-.734-.61-.735 0-1.094.673-1.22 1.095z"/></symbol><symbol overflow="visible" id="i"><path d="M1.094-3.422V-.75c0 .438-.11.438-.782.438V0c.36-.016.86-.031 1.141-.031.25 0 .766.015 1.11.031v-.313c-.672 0-.782 0-.782-.437v-1.844c0-1.031.719-1.594 1.344-1.594.64 0 .75.532.75 1.11V-.75c0 .438-.11.438-.781.438V0c.344-.016.86-.031 1.125-.031.25 0 .781.015 1.11.031v-.313c-.657 0-.766 0-.766-.437v-1.844c0-1.031.703-1.594 1.343-1.594.625 0 .735.532.735 1.11V-.75c0 .438-.11.438-.782.438V0c.344-.016.86-.031 1.125-.031.266 0 .782.015 1.125.031v-.313c-.515 0-.765 0-.78-.296v-1.907c0-.859 0-1.156-.313-1.515-.141-.172-.47-.375-1.047-.375-.828 0-1.282.593-1.438.984-.14-.875-.875-.984-1.328-.984-.734 0-1.203.422-1.484 1.047v-1.047l-1.407.11v.312c.704 0 .782.062.782.562z"/></symbol></defs><use height="1052.362" width="744.094" xlink:href="#d" x="223.432" y="134.765"/><use height="1052.362" width="744.094" xlink:href="#e" x="228.967" y="134.765"/><g><use height="1052.362" width="744.094" xlink:href="#f" x="233.116" y="134.765"/><use height="1052.362" width="744.094" xlink:href="#g" x="238.651" y="134.765"/><use height="1052.362" width="744.094" xlink:href="#h" x="241.418" y="134.765"/><use height="1052.362" width="744.094" xlink:href="#i" x="245.321" y="134.765"/></g></g><g transform="matrix(2.25238 .00027 -.00027 2.25238 -356.17 182.445)" ns0:preamble="/home/waldgeist/data/sphinx/inkscape-preamble.tex" ns0:text="Gitter"><defs><symbol id="j" overflow="visible"><path d="M5.906-.625c.14.219.532.61.64.61.095 0 .095-.079.095-.22v-1.734c0-.39.03-.437.687-.437v-.313c-.375 0-.922.031-1.219.031-.39 0-1.25 0-1.609-.03v.312h.328c.89 0 .922.11.922.469v.64c0 1.125-1.266 1.203-1.547 1.203-.64 0-2.625-.344-2.625-3.312 0-2.985 1.969-3.313 2.563-3.313 1.078 0 1.984.89 2.171 2.36.032.14.032.171.172.171.157 0 .157-.03.157-.234v-2.36c0-.171 0-.25-.11-.25-.047 0-.078 0-.156.126l-.5.734c-.328-.312-.86-.86-1.844-.86-1.86 0-3.468 1.579-3.468 3.626C.563-1.36 2.155.219 4.046.219c.734 0 1.531-.266 1.86-.844z"/></symbol><symbol id="k" overflow="visible"><path d="M1.766-4.406l-1.391.11v.312c.64 0 .734.062.734.546V-.75c0 .438-.109.438-.78.438V0c.312-.016.859-.031 1.093-.031.36 0 .703.015 1.047.031v-.313c-.672 0-.703-.046-.703-.437zm.03-1.735a.514.514 0 0 0-.515-.53.537.537 0 0 0-.531.53c0 .266.219.532.531.532a.514.514 0 0 0 .516-.532z"/></symbol><symbol id="l" overflow="visible"><path d="M1.719-3.984h1.437v-.313H1.72v-1.828h-.25c0 .813-.297 1.875-1.282 1.922v.219h.844v2.75c0 1.218.938 1.343 1.297 1.343.703 0 .985-.703.985-1.343v-.563h-.25v.547c0 .734-.297 1.11-.672 1.11-.672 0-.672-.907-.672-1.079z"/></symbol><symbol id="m" overflow="visible"><path d="M1.11-2.516C1.171-4 2.015-4.25 2.36-4.25c1.015 0 1.124 1.344 1.124 1.734zm0 .22h2.78c.22 0 .25 0 .25-.22 0-.984-.546-1.953-1.78-1.953C1.202-4.469.28-3.437.28-2.187.281-.86 1.328.108 2.47.108 3.688.11 4.14-1 4.14-1.187c0-.094-.079-.125-.141-.125-.078 0-.11.062-.125.14C3.531-.14 2.625-.14 2.531-.14c-.5 0-.89-.296-1.125-.671-.297-.47-.297-1.125-.297-1.485z"/></symbol><symbol id="n" overflow="visible"><path d="M1.672-3.313v-1.093l-1.39.11v.312c.702 0 .78.062.78.562V-.75c0 .438-.109.438-.78.438V0c.39-.016.859-.031 1.14-.031.39 0 .86 0 1.266.031v-.313h-.22c-.734 0-.75-.109-.75-.468v-1.531c0-.985.423-1.876 1.173-1.876.062 0 .093 0 .109.016-.031 0-.234.125-.234.39 0 .266.218.423.437.423a.421.421 0 0 0 .422-.438c0-.312-.313-.61-.734-.61-.735 0-1.094.673-1.22 1.095z"/></symbol></defs><use y="134.765" x="223.432" xlink:href="#j" width="744.094" height="1052.362"/><use y="134.765" x="231.25" xlink:href="#k" width="744.094" height="1052.362"/><use y="134.765" x="234.017" xlink:href="#l" width="744.094" height="1052.362"/><use y="134.765" x="237.892" xlink:href="#l" width="744.094" height="1052.362"/><use y="134.765" x="241.766" xlink:href="#m" width="744.094" height="1052.362"/><use y="134.765" x="246.194" xlink:href="#n" width="744.094" height="1052.362"/></g><g ns0:text="$I _{\\rm{max,0}}$" ns0:preamble="/home/waldgeist/data/sphinx/inkscape-preamble.tex" transform="matrix(2.25238 .00027 -.00027 2.25238 120.957 230.25)"><defs><symbol overflow="visible" id="o"><path d="M3.734-6.047c.079-.36.11-.453.907-.453.234 0 .312 0 .312-.188 0-.125-.11-.125-.14-.125-.297 0-1.032.032-1.329.032-.296 0-1.015-.032-1.328-.032-.062 0-.187 0-.187.204 0 .109.078.109.281.109.406 0 .688 0 .688.188 0 .046 0 .078-.032.156L1.562-.781c-.093.375-.109.469-.906.469-.234 0-.312 0-.312.203 0 .109.11.109.14.109C.781 0 1.5-.031 1.797-.031c.297 0 1.031.031 1.328.031.078 0 .203 0 .203-.188 0-.124-.078-.124-.297-.124-.187 0-.234 0-.422-.016-.218-.016-.25-.063-.25-.172 0-.078.016-.156.032-.234z"/></symbol><symbol overflow="visible" id="p"><path d="M5.734-2.11c0-.609-.312-.968-1.046-.968-.563 0-.938.297-1.125.656-.141-.5-.516-.656-1.016-.656-.578 0-.938.312-1.14.687v-.687L.374-3v.25c.469 0 .531.047.531.39v1.813c0 .297-.078.297-.531.297V0c.016 0 .5-.031.797-.031.25 0 .734.031.797.031v-.25c-.453 0-.516 0-.516-.297v-1.265c0-.72.578-1.063 1.031-1.063.485 0 .547.375.547.734v1.594c0 .297-.062.297-.515.297V0c.015 0 .5-.031.796-.031.25 0 .735.031.797.031v-.25c-.453 0-.515 0-.515-.297v-1.265c0-.72.578-1.063 1.031-1.063.484 0 .547.375.547.734v1.594c0 .297-.063.297-.516.297V0c.016 0 .5-.031.797-.031.25 0 .734.031.797.031v-.25c-.453 0-.516 0-.516-.297z"/></symbol><symbol overflow="visible" id="q"><path d="M3.11-1.875c0-.36 0-.625-.329-.89C2.5-3 2.171-3.11 1.75-3.11c-.656 0-1.125.25-1.125.671 0 .235.156.344.344.344a.32.32 0 0 0 .328-.328.319.319 0 0 0-.25-.312c.25-.172.656-.172.687-.172.391 0 .829.25.829.844v.203c-.391.015-.844.046-1.36.234-.625.219-.812.61-.812.922 0 .594.718.765 1.218.765.547 0 .875-.312 1.032-.578.015.282.203.547.53.547.017 0 .688 0 .688-.656v-.39h-.234v.374c0 .079 0 .407-.266.407-.25 0-.25-.329-.25-.407zm-.547.89c0 .672-.594.86-.907.86-.36 0-.687-.234-.687-.578 0-.39.328-.922 1.594-.969z"/></symbol><symbol overflow="visible" id="r"><path d="M2.36-1.563l-.047-.062c0-.031.453-.516.515-.578.25-.281.485-.547 1.047-.547V-3c-.203.016-.406.031-.594.031-.203 0-.484-.015-.687-.031v.25c.11.016.14.094.14.156 0 .016 0 .125-.109.235l-.484.546-.579-.656c-.078-.078-.078-.11-.078-.14 0-.094.094-.141.188-.141V-3c-.25.016-.516.031-.781.031-.204 0-.47-.015-.672-.031v.25c.312 0 .5 0 .687.203l.86 1c.015.016.062.063.062.078 0 .016-.531.594-.594.672-.265.281-.5.531-1.046.547V0C.39-.016.546-.031.765-.031c.203 0 .484.015.687.031v-.25c-.078-.016-.14-.063-.14-.156 0-.14.078-.235.187-.344l.5-.547.594.703c.14.14.14.156.14.203 0 .125-.156.141-.187.141V0c.062 0 .562-.031.781-.031.219 0 .453.015.672.031v-.25c-.469 0-.516-.047-.688-.219z"/></symbol><symbol overflow="visible" id="t"><path d="M3.594-2.219c0-.765-.094-1.328-.406-1.812-.22-.313-.657-.594-1.204-.594C.36-4.625.36-2.719.36-2.219c0 .5 0 2.36 1.625 2.36 1.61 0 1.61-1.86 1.61-2.36zM1.984-.063c-.328 0-.75-.187-.89-.75C1-1.219 1-1.796 1-2.313c0-.515 0-1.046.094-1.421.156-.547.593-.704.89-.704.375 0 .735.235.86.641.11.375.125.875.125 1.485 0 .515 0 1.03-.094 1.468-.14.64-.61.781-.89.781z"/></symbol><symbol overflow="visible" id="s"><path d="M1.469-.11c0 .376-.063.829-.547 1.266-.016.032-.047.063-.047.094 0 .047.063.094.094.094.11 0 .703-.563.703-1.39 0-.423-.172-.75-.5-.75a.387.387 0 0 0-.39.39c0 .219.155.406.405.406.172 0 .282-.11.282-.11z"/></symbol></defs><use xlink:href="#o" x="223.432" y="134.765"/><use xlink:href="#p" x="227.812" y="136.259"/><use xlink:href="#q" x="234.357" y="136.259"/><use xlink:href="#r" x="238.328" y="136.259"/><g><use xlink:href="#s" x="242.513" y="136.259"/></g><g><use xlink:href="#t" x="244.88" y="136.259"/></g></g><g transform="matrix(2.25238 .00027 -.00027 2.25238 120.957 148.541)" ns0:preamble="/home/waldgeist/data/sphinx/inkscape-preamble.tex" ns0:text="$I _{\\rm{max,1}}$"><defs><symbol id="u" overflow="visible"><path d="M3.734-6.047c.079-.36.11-.453.907-.453.234 0 .312 0 .312-.188 0-.125-.11-.125-.14-.125-.297 0-1.032.032-1.329.032-.296 0-1.015-.032-1.328-.032-.062 0-.187 0-.187.204 0 .109.078.109.281.109.406 0 .688 0 .688.188 0 .046 0 .078-.032.156L1.562-.781c-.093.375-.109.469-.906.469-.234 0-.312 0-.312.203 0 .109.11.109.14.109C.781 0 1.5-.031 1.797-.031c.297 0 1.031.031 1.328.031.078 0 .203 0 .203-.188 0-.124-.078-.124-.297-.124-.187 0-.234 0-.422-.016-.218-.016-.25-.063-.25-.172 0-.078.016-.156.032-.234z"/></symbol><symbol id="v" overflow="visible"><path d="M5.734-2.11c0-.609-.312-.968-1.046-.968-.563 0-.938.297-1.125.656-.141-.5-.516-.656-1.016-.656-.578 0-.938.312-1.14.687v-.687L.374-3v.25c.469 0 .531.047.531.39v1.813c0 .297-.078.297-.531.297V0c.016 0 .5-.031.797-.031.25 0 .734.031.797.031v-.25c-.453 0-.516 0-.516-.297v-1.265c0-.72.578-1.063 1.031-1.063.485 0 .547.375.547.734v1.594c0 .297-.062.297-.515.297V0c.015 0 .5-.031.796-.031.25 0 .735.031.797.031v-.25c-.453 0-.515 0-.515-.297v-1.265c0-.72.578-1.063 1.031-1.063.484 0 .547.375.547.734v1.594c0 .297-.063.297-.516.297V0c.016 0 .5-.031.797-.031.25 0 .734.031.797.031v-.25c-.453 0-.516 0-.516-.297z"/></symbol><symbol id="w" overflow="visible"><path d="M3.11-1.875c0-.36 0-.625-.329-.89C2.5-3 2.171-3.11 1.75-3.11c-.656 0-1.125.25-1.125.671 0 .235.156.344.344.344a.32.32 0 0 0 .328-.328.319.319 0 0 0-.25-.312c.25-.172.656-.172.687-.172.391 0 .829.25.829.844v.203c-.391.015-.844.046-1.36.234-.625.219-.812.61-.812.922 0 .594.718.765 1.218.765.547 0 .875-.312 1.032-.578.015.282.203.547.53.547.017 0 .688 0 .688-.656v-.39h-.234v.374c0 .079 0 .407-.266.407-.25 0-.25-.329-.25-.407zm-.547.89c0 .672-.594.86-.907.86-.36 0-.687-.234-.687-.578 0-.39.328-.922 1.594-.969z"/></symbol><symbol id="x" overflow="visible"><path d="M2.36-1.563l-.047-.062c0-.031.453-.516.515-.578.25-.281.485-.547 1.047-.547V-3c-.203.016-.406.031-.594.031-.203 0-.484-.015-.687-.031v.25c.11.016.14.094.14.156 0 .016 0 .125-.109.235l-.484.546-.579-.656c-.078-.078-.078-.11-.078-.14 0-.094.094-.141.188-.141V-3c-.25.016-.516.031-.781.031-.204 0-.47-.015-.672-.031v.25c.312 0 .5 0 .687.203l.86 1c.015.016.062.063.062.078 0 .016-.531.594-.594.672-.265.281-.5.531-1.046.547V0C.39-.016.546-.031.765-.031c.203 0 .484.015.687.031v-.25c-.078-.016-.14-.063-.14-.156 0-.14.078-.235.187-.344l.5-.547.594.703c.14.14.14.156.14.203 0 .125-.156.141-.187.141V0c.062 0 .562-.031.781-.031.219 0 .453.015.672.031v-.25c-.469 0-.516-.047-.688-.219z"/></symbol><symbol id="z" overflow="visible"><path d="M2.328-4.438c0-.187 0-.187-.203-.187-.453.438-1.078.438-1.36.438v.25c.157 0 .626 0 1-.188v3.547c0 .234 0 .328-.687.328H.812V0c.125 0 .985-.031 1.235-.031.219 0 1.094.031 1.25.031v-.25H3.03c-.703 0-.703-.094-.703-.328z"/></symbol><symbol id="y" overflow="visible"><path d="M1.469-.11c0 .376-.063.829-.547 1.266-.016.032-.047.063-.047.094 0 .047.063.094.094.094.11 0 .703-.563.703-1.39 0-.423-.172-.75-.5-.75a.387.387 0 0 0-.39.39c0 .219.155.406.405.406.172 0 .282-.11.282-.11z"/></symbol></defs><use y="134.765" x="223.432" xlink:href="#u" width="744.094" height="1052.362"/><use y="136.259" x="227.812" xlink:href="#v" width="744.094" height="1052.362"/><use y="136.259" x="234.357" xlink:href="#w" width="744.094" height="1052.362"/><use y="136.259" x="238.328" xlink:href="#x" width="744.094" height="1052.362"/><g><use y="136.259" x="242.513" xlink:href="#y" width="744.094" height="1052.362"/></g><g><use y="136.259" x="244.88" xlink:href="#z" width="744.094" height="1052.362"/></g></g><g ns0:text="$I _{\\rm{max,1}}$" ns0:preamble="/home/waldgeist/data/sphinx/inkscape-preamble.tex"><use xlink:href="#u" x="223.432" y="134.765" width="744.094" height="1052.362" transform="matrix(2.25238 .00027 -.00027 2.25238 120.957 310.668)"/><g transform="matrix(2.25238 .00027 -.00027 2.25238 120.957 310.668)"><use xlink:href="#v" x="227.812" y="136.259" width="744.094" height="1052.362"/><use xlink:href="#w" x="234.357" y="136.259" width="744.094" height="1052.362"/><use xlink:href="#x" x="238.328" y="136.259" width="744.094" height="1052.362"/></g><use xlink:href="#y" x="242.513" y="136.259" width="744.094" height="1052.362" transform="matrix(2.25238 .00027 -.00027 2.25238 120.957 310.668)"/><use xlink:href="#z" x="244.88" y="136.259" width="744.094" height="1052.362" transform="matrix(2.25238 .00027 -.00027 2.25238 120.957 310.668)"/></g><path d="M177.944 509.058v9.984l1.992-2.53v-4.929zM177.944 496.927v9.984l1.992-2.53v-4.929zM177.944 533.32v9.984l1.992-2.53v-4.929zM177.944 545.452v9.983l1.992-2.53v-4.928z" fill="#999" stroke="#000" stroke-linecap="round" stroke-linejoin="round"/><path d="M177.973 520.116l415.793-83.951M178.03 507.984l415.736-71.82M177.973 532.247l415.49-96.082M177.973 544.378l415.793-108.213M177.973 544.378l415.736 71.82M178.276 520.116l415.49 96.082M177.973 532.247l415.793 83.95M178.03 507.984l415.793 108.214M178.03 507.984l415.714 18.197M177.973 520.116l415.77 6.065M177.973 532.247l415.468-6.066M177.973 544.378L593.44 526.18" fill="none" stroke="#f60" stroke-linecap="round" marker-end="url(#A)"/><path transform="matrix(1.76542 0 0 3.5142 -463.398 -1379.56)" d="M612.412 542.298a7.556 7.556 0 1 1-15.112 0 7.556 7.556 0 1 1 15.112 0z" style="marker:none" color="#000" fill="#fff" stroke="#fff" stroke-width=".602" stroke-linecap="round" stroke-linejoin="round" stroke-dasharray=".60221915,1.20443831" overflow="visible" filter="url(#B)" enable-background="accumulate"/><path d="M61.249 507.985l96.32-.002M61.249 532.248l96.32-.002M61.249 544.38l96.32-.002M61.249 520.117l96.32-.002" fill="none" stroke="#fff" stroke-width="2" stroke-linecap="round" stroke-linejoin="round" marker-end="url(#C)"/></svg>