<svg xmlns:ns0="http://www.iki.fi/pav/software/textext/" xmlns="http://www.w3.org/2000/svg" xmlns:xlink="http://www.w3.org/1999/xlink" width="210mm" height="297mm"><title>Lichtmikroskop</title><defs><marker orient="auto" id="a" overflow="visible"><path d="M8.719 4.034L-2.207.016 8.719-4.002c-1.746 2.372-1.736 5.618 0 8.036z" transform="matrix(-.3 0 0 -.3 .69 0)" fill-rule="evenodd" stroke-width=".625" stroke-linejoin="round"/></marker></defs><path style="marker:none" color="#000" fill="#fff" stroke="#fff" stroke-linecap="round" stroke-linejoin="round" overflow="visible" d="M41.091 85.877h661.913v899.714H41.091z"/><path style="marker:none" color="#000" fill="#f9f9f9" stroke="#f9f9f9" stroke-width=".427" stroke-linecap="round" stroke-dasharray="1.28196473,2.56392945" overflow="visible" d="M75.651 72.454h592.792v907.453H75.651z"/><path style="marker:none" d="M257.438 359.31v20.562H236v316.094h21.438v16.562h229.218v-16.562h21.438V379.872h-21.438V359.31z" color="#000" fill="#8a8a8a" stroke="#ccc" stroke-linecap="round" stroke-linejoin="round" overflow="visible"/><g fill="#f2f2f2" stroke="gray" stroke-width=".365" stroke-linecap="round"><path transform="matrix(0 -.502 .50076 0 273.215 501.824)" d="M430.766 119.862C473.568 45.727 568.365 20.326 642.5 63.128c74.135 42.802 99.536 137.599 56.734 211.734-42.802 74.136-137.599 99.536-211.734 56.734a155 155 0 0 1-56.734-56.734" stroke-width="3.989" stroke-linejoin="round"/><g fill="#ececec" stroke-width="1.177"><path d="M294.735 82.362c-19.388 33.499-19.165 66.838 0 100M295.02 82.362c19.39 33.499 19.166 66.838 0 100" transform="matrix(0 -.83841 .86142 0 258.028 524.784)"/></g></g><g fill="#ececec" stroke="gray" stroke-width="1.755" stroke-linecap="round"><path transform="matrix(0 -.69408 1.9314 0 -1163.616 1435.43)" d="M1065.972 735.76c21.202 36.724 21.202 81.97 0 118.694"/><path d="M1065.972 735.76c21.202 36.724 21.202 81.97 0 118.694" transform="matrix(0 .69408 1.9314 0 -1163.616 -44.385)"/></g><path style="marker:none" color="#000" fill="#8a8a8a" stroke="#ccc" stroke-width=".5" stroke-linecap="round" stroke-linejoin="round" overflow="visible" d="M236 379.872h272.094v32.868H236z"/><g fill="#ececec" stroke="gray" stroke-width="1.464" stroke-linecap="round"><path d="M1065.972 735.76c21.202 36.724 21.202 81.97 0 118.694" transform="matrix(0 -.96646 1.9314 0 -1163.616 1410.888)"/><path transform="matrix(0 .96646 1.9314 0 -1163.616 -649.717)" d="M1065.972 735.76c21.202 36.724 21.202 81.97 0 118.694"/></g><path d="M372.047 964.32V85.878" fill="none" stroke="#000" stroke-dasharray=".87830784,1.7566156"/><path style="marker:none" opacity=".8" color="#000" fill="#f9f9f9" stroke="#b3b3b3" stroke-width="2" stroke-linecap="round" stroke-linejoin="round" overflow="visible" d="M175.589 876.993h392.916v12.09H175.589z"/><path d="M418.633 871.857l-12.71-12.745v8.876h-33.408v7.704h33.408v8.876z" stroke="#000" stroke-width=".397" stroke-linecap="round"/><path d="M373.93 798.063a1.882 1.882 0 1 1-3.765 0 1.882 1.882 0 1 1 3.764 0z" stroke="#000" stroke-width="2.73803868" stroke-linecap="round"/><path d="M306.973 449.284l16.79-19.57v13.628h47.281v11.829h-47.281v13.628z" fill="#ccc" stroke="#000" stroke-width=".44" stroke-linecap="round"/><path d="M373.93 491.357a1.882 1.882 0 1 1-3.765 0 1.882 1.882 0 1 1 3.764 0z" opacity=".5" stroke="#000" stroke-width="2.73803868" stroke-linecap="round"/><path d="M373.93 593.046a1.882 1.882 0 1 1-3.765 0 1.882 1.882 0 1 1 3.764 0z" stroke="#000" stroke-width="2.73803868" stroke-linecap="round"/><path d="M373.93 900.572a1.882 1.882 0 1 1-3.765 0 1.882 1.882 0 1 1 3.764 0z" opacity=".5" stroke="#000" stroke-width="2.73803868" stroke-linecap="round"/><path d="M380.716 277.673l50.209-105.663M389.59 277.673l41.335-105.663" fill="none" stroke="#d40000" stroke-width="3" stroke-linecap="round" marker-end="url(#a)"/><path d="M373.93 299.84a1.882 1.882 0 1 1-3.765 0 1.882 1.882 0 1 1 3.764 0z" stroke="#000" stroke-width="2.73803868" stroke-linecap="round"/><path d="M306.966 449.257V380.67M306.966 449.257l-18.124-68.587" fill="none" stroke="#f60" stroke-width="3" stroke-linecap="round" marker-end="url(#a)"/><path d="M306.961 695.554V449.257" fill="none" stroke="#d40000" stroke-width="3" stroke-linecap="round" marker-end="url(#a)"/><path d="M418.633 871.857L307 696.214" fill="none" stroke="#f60" stroke-width="3" stroke-linecap="round" marker-end="url(#a)"/><path d="M372.047 695.554l-65.081-246.297" fill="none" stroke="#d40000" stroke-width="3" stroke-linecap="round" marker-end="url(#a)"/><g fill="#f2f2f2" stroke="gray" stroke-width="5.647"><path d="M720 197.362a155 155 0 0 1-39.09 102.907" transform="matrix(.00666 -.47645 .47528 .00665 276.293 482.356)" opacity=".8" fill="none" stroke="#000" stroke-width="12.607" stroke-linecap="round" stroke-linejoin="round"/></g><path d="M431.156 150.434l-16.413 19.458 17.91-1.52-1.497-17.938" opacity=".8" stroke="#000" stroke-linecap="round" stroke-linejoin="round"/><path d="M373.93 461.5a1.882 1.882 0 1 1-3.765 0 1.882 1.882 0 1 1 3.764 0z" stroke="#000" stroke-width="2.73803868" stroke-linecap="round"/><path d="M440.299 958.07v-56.62M303.824 958.07v-56.62M235.586 958.07v-56.62M508.537 958.07v-56.62" fill="none" stroke="#f60" stroke-width="3" stroke-linecap="round" marker-end="url(#a)"/><path d="M418.633 871.857l-57.902-730.983" fill="none" stroke="purple" stroke-width="1.5" stroke-linecap="round"/><path d="M288.842 380.67l91.874-102.997M306.961 380.67l82.935-102.997" fill="none" stroke="#d40000" stroke-width="3" stroke-linecap="round" marker-end="url(#a)"/><path d="M418.633 871.857l-46.586-176.303M372.047 958.07v-56.62" fill="none" stroke="#f60" stroke-width="3" stroke-linecap="round" marker-end="url(#a)"/><g fill="#f2f2f2" stroke="purple" stroke-width="5.647"><path transform="matrix(.02382 -.4759 .47474 .02376 265.043 478.425)" d="M717.738 170.98c.906 5.243 1.54 10.529 1.903 15.837" opacity=".8" fill="none" stroke-width="6.304" stroke-linecap="round" stroke-linejoin="round"/></g><path d="M363.536 143.608l-.457-5.387-2.461 2.918 2.918 2.469" opacity=".8" fill="purple" stroke="purple" stroke-linecap="round" stroke-linejoin="round"/><g ns0:text="$\\rm{F}_1$" ns0:preamble="/home/waldgeist/data/sphinx/inkscape-preamble.tex" transform="matrix(2.0734 0 0 2.0734 -118.984 524.124)"><defs><symbol overflow="visible" id="b"><path d="M5.797-6.781H.328v.312h.234c.766 0 .797.11.797.469v5.219c0 .36-.03.469-.796.469H.328V0c.344-.031 1.125-.031 1.516-.031.406 0 1.312 0 1.672.031v-.313h-.329c-.937 0-.937-.124-.937-.468v-2.453h.844c.969 0 1.062.312 1.062 1.156h.25v-2.64h-.25c0 .843-.093 1.171-1.062 1.171H2.25v-2.531c0-.328.016-.39.484-.39h1.188c1.5 0 1.75.562 1.906 1.937h.25z"/></symbol><symbol overflow="visible" id="c"><path d="M2.328-4.438c0-.187 0-.187-.203-.187-.453.438-1.078.438-1.36.438v.25c.157 0 .626 0 1-.188v3.547c0 .234 0 .328-.687.328H.812V0c.125 0 .985-.031 1.235-.031.219 0 1.094.031 1.25.031v-.25H3.03c-.703 0-.703-.094-.703-.328z"/></symbol></defs><use xlink:href="#b" x="223.432" y="134.765" width="744.094" height="1052.362"/><use xlink:href="#c" x="229.936" y="136.259" width="744.094" height="1052.362"/></g><g transform="matrix(2.0734 0 0 2.0734 -75.5 187.561)" ns0:preamble="/home/waldgeist/data/sphinx/inkscape-preamble.tex" ns0:text="$\\rm{F}_2$"><defs><symbol id="d" overflow="visible"><path d="M5.797-6.781H.328v.312h.234c.766 0 .797.11.797.469v5.219c0 .36-.03.469-.796.469H.328V0c.344-.031 1.125-.031 1.516-.031.406 0 1.312 0 1.672.031v-.313h-.329c-.937 0-.937-.124-.937-.468v-2.453h.844c.969 0 1.062.312 1.062 1.156h.25v-2.64h-.25c0 .843-.093 1.171-1.062 1.171H2.25v-2.531c0-.328.016-.39.484-.39h1.188c1.5 0 1.75.562 1.906 1.937h.25z"/></symbol><symbol id="e" overflow="visible"><path d="M3.516-1.266H3.28c-.015.157-.094.563-.187.625-.047.047-.578.047-.688.047H1.125c.734-.64.984-.844 1.39-1.172.516-.406 1-.843 1-1.5 0-.843-.734-1.359-1.624-1.359-.86 0-1.454.61-1.454 1.25 0 .344.297.39.376.39.156 0 .359-.124.359-.374 0-.125-.047-.375-.406-.375.218-.485.687-.641 1.015-.641.703 0 1.063.547 1.063 1.11 0 .609-.438 1.078-.656 1.328L.516-.266C.437-.203.437-.187.437 0h2.876z"/></symbol></defs><use y="134.765" x="223.432" xlink:href="#d" width="744.094" height="1052.362"/><use y="136.259" x="229.936" xlink:href="#e" width="744.094" height="1052.362"/></g></svg>