<svg xmlns:ns0="http://www.iki.fi/pav/software/textext/" xmlns="http://www.w3.org/2000/svg" xmlns:xlink="http://www.w3.org/1999/xlink" width="1052.362" height="744.094"><title>Die Mondphasen</title><defs><marker orient="auto" id="Z" overflow="visible"><path d="M-4 0l-2 2 7-2-7-2 2 2z" fill-rule="evenodd" stroke="#000" stroke-width=".4pt"/></marker><linearGradient id="a"><stop offset="0"/><stop offset="1" stop-color="#fff"/></linearGradient><linearGradient y2="352.666" x2="894.286" y1="352.538" x1="694.286" gradientUnits="userSpaceOnUse" id="b" xlink:href="#a"/><linearGradient y2="352.666" x2="898.4" y1="353.014" x1="694.286" gradientUnits="userSpaceOnUse" id="c" xlink:href="#a"/><linearGradient y2="352.666" x2="898.4" y1="353.014" x1="694.286" gradientUnits="userSpaceOnUse" id="d" xlink:href="#a"/><linearGradient y2="352.666" x2="898.4" y1="353.014" x1="694.286" gradientUnits="userSpaceOnUse" id="e" xlink:href="#a"/><linearGradient y2="352.666" x2="898.4" y1="353.014" x1="694.286" gradientUnits="userSpaceOnUse" id="f" xlink:href="#a"/><linearGradient y2="352.666" x2="898.4" y1="353.014" x1="694.286" gradientUnits="userSpaceOnUse" id="g" xlink:href="#a"/><linearGradient y2="352.666" x2="898.4" y1="353.014" x1="694.286" gradientUnits="userSpaceOnUse" id="h" xlink:href="#a"/><linearGradient y2="352.666" x2="898.4" y1="353.014" x1="694.286" gradientUnits="userSpaceOnUse" id="i" xlink:href="#a"/><linearGradient y2="352.666" x2="898.4" y1="353.014" x1="694.286" gradientUnits="userSpaceOnUse" id="j" xlink:href="#a"/></defs><path fill="#fff" stroke="#fff" d="M71.639 157.127h909.084v429.84H71.64z" stroke-width="1.22276"/><path transform="matrix(.48897 0 0 .48897 1.557 199.209)" d="M894.286 352.666c0 55.228-44.772 100-100 100-55.229 0-100-44.772-100-100 0-55.229 44.771-100 100-100 55.228 0 100 44.771 100 100z" style="marker:none" color="#000" fill="url(#b)" stroke="gray" stroke-width="2.501" stroke-linecap="round" stroke-linejoin="bevel" overflow="visible"/><path d="M517.85 371.651c0 70.644-57.268 127.913-127.913 127.913-70.644 0-127.913-57.269-127.913-127.913s57.269-127.913 127.913-127.913c70.645 0 127.913 57.269 127.913 127.913z" style="marker:none" color="#000" fill="none" stroke="#999" stroke-width="1.22284828" stroke-linecap="round" stroke-linejoin="bevel" stroke-dasharray=".95592754,2.86778262" overflow="visible"/><path transform="translate(418.746 327.649) scale(.12477)" d="M894.286 352.666c0 55.228-44.772 100-100 100-55.229 0-100-44.772-100-100 0-55.229 44.771-100 100-100 55.228 0 100 44.771 100 100z" style="marker:none" color="#000" fill="url(#c)" stroke="#b2b2b2" stroke-width="1.637" stroke-linecap="round" stroke-linejoin="bevel" overflow="visible"/><g fill="#ff0" stroke="gray"><path d="M795.117 423.2V389.1l-29.53 17.05z" stroke-width="1.223019"/><path d="M795.716 399.164h139.743v13.974H795.716z" stroke-width="1.22276"/></g><g fill="#ff0" stroke="gray"><path d="M795.117 354.201v-34.098l-29.53 17.049z" stroke-width="1.223019"/><path d="M795.716 330.165h139.743v13.975H795.716z" stroke-width="1.22276"/></g><g fill="#ff0" stroke="gray"><path d="M795.117 285.203v-34.098l-29.53 17.049z" stroke-width="1.223019"/><path d="M795.716 261.167h139.743v13.975H795.716z" stroke-width="1.22276"/></g><g fill="#ff0" stroke="gray"><path d="M795.117 492.198v-34.099l-29.53 17.05z" stroke-width="1.223019"/><path d="M795.716 468.162h139.743v13.975H795.716z" stroke-width="1.22276"/></g><path style="marker:none" d="M894.286 352.666c0 55.228-44.772 100-100 100-55.229 0-100-44.772-100-100 0-55.229 44.771-100 100-100 55.228 0 100 44.771 100 100z" transform="translate(290.833 199.736) scale(.12477)" color="#000" fill="url(#d)" stroke="#b2b2b2" stroke-width="1.637" stroke-linecap="round" stroke-linejoin="bevel" overflow="visible"/><path transform="translate(380.989 236.844) scale(.12477)" d="M894.286 352.666c0 55.228-44.772 100-100 100-55.229 0-100-44.772-100-100 0-55.229 44.771-100 100-100 55.228 0 100 44.771 100 100z" style="marker:none" color="#000" fill="url(#e)" stroke="#b2b2b2" stroke-width="1.637" stroke-linecap="round" stroke-linejoin="bevel" overflow="visible"/><path style="marker:none" d="M894.286 352.666c0 55.228-44.772 100-100 100-55.229 0-100-44.772-100-100 0-55.229 44.771-100 100-100 55.228 0 100 44.771 100 100z" transform="translate(199.794 236.844) scale(.12477)" color="#000" fill="url(#f)" stroke="#b2b2b2" stroke-width="1.637" stroke-linecap="round" stroke-linejoin="bevel" overflow="visible"/><path transform="translate(199.794 418.238) scale(.12477)" d="M894.286 352.666c0 55.228-44.772 100-100 100-55.229 0-100-44.772-100-100 0-55.229 44.771-100 100-100 55.228 0 100 44.771 100 100z" style="marker:none" color="#000" fill="url(#g)" stroke="#b2b2b2" stroke-width="1.637" stroke-linecap="round" stroke-linejoin="bevel" overflow="visible"/><path style="marker:none" d="M894.286 352.666c0 55.228-44.772 100-100 100-55.229 0-100-44.772-100-100 0-55.229 44.771-100 100-100 55.228 0 100 44.771 100 100z" transform="translate(380.989 418.238) scale(.12477)" color="#000" fill="url(#h)" stroke="#b2b2b2" stroke-width="1.637" stroke-linecap="round" stroke-linejoin="bevel" overflow="visible"/><path style="marker:none" d="M894.286 352.666c0 55.228-44.772 100-100 100-55.229 0-100-44.772-100-100 0-55.229 44.771-100 100-100 55.228 0 100 44.771 100 100z" transform="translate(162.92 327.649) scale(.12477)" color="#000" fill="url(#i)" stroke="#b2b2b2" stroke-width="1.637" stroke-linecap="round" stroke-linejoin="bevel" overflow="visible"/><path transform="translate(290.833 455.562) scale(.12477)" d="M894.286 352.666c0 55.228-44.772 100-100 100-55.229 0-100-44.772-100-100 0-55.229 44.771-100 100-100 55.228 0 100 44.771 100 100z" style="marker:none" color="#000" fill="url(#j)" stroke="#b2b2b2" stroke-width="1.637" stroke-linecap="round" stroke-linejoin="bevel" overflow="visible"/><path d="M383.699 301.707c6.89 0 12.477-5.586 12.477-12.477 0-6.89-5.586-12.477-12.477-12.477v12.477zM383.699 466.55c6.89 0 12.477-5.587 12.477-12.478 0-6.89-5.586-12.477-12.477-12.477v12.477z" style="marker:none" color="#000" fill="#ff0" stroke="#b2b2b2" stroke-width="1.222746" stroke-linecap="round" stroke-linejoin="bevel" overflow="visible"/><path style="marker:none" d="M459.881 371.651c0 6.891 5.586 12.477 12.477 12.477s12.477-5.586 12.477-12.477c0-6.89-5.586-12.477-12.477-12.477-6.89 0-12.477 5.586-12.477 12.477z" color="#000" fill="#ccc" stroke="#b2b2b2" stroke-width="1.222746" stroke-linecap="round" stroke-linejoin="bevel" overflow="visible"/><path d="M295.04 371.651c0 6.891 5.585 12.477 12.476 12.477 6.891 0 12.477-5.586 12.477-12.477 0-6.89-5.586-12.477-12.477-12.477-6.89 0-12.477 5.586-12.477 12.477z" style="marker:none" color="#000" fill="#ff0" stroke="#b3b3b3" stroke-width="1.222746" stroke-linecap="round" stroke-linejoin="bevel" overflow="visible"/><path style="marker:none" d="M460.475 297.135c4.873 4.872 4.873 12.772 0 17.645-4.873 4.873-12.773 4.873-17.645 0 0 0 8.662-1.543 11.91-4.654 3.249-3.111 5.735-12.991 5.735-12.991zM460.475 446.06c4.873-4.872 4.873-12.772 0-17.645-4.873-4.873-12.773-4.873-17.645 0 0 0 8.662 1.543 11.91 4.654 3.249 3.111 5.735 12.991 5.735 12.991zM315.311 300.773c2.258-2.258 5.381-3.63 8.827-3.63 6.89 0 12.457 5.566 12.457 12.457 0 3.445-1.372 6.568-3.63 8.826 0 0-9.88-2.483-12.992-5.731-3.111-3.249-4.662-11.922-4.662-11.922zM332.965 424.769c2.258 2.258 3.63 5.381 3.63 8.827 0 6.89-5.566 12.456-12.457 12.456-3.446 0-6.569-1.372-8.827-3.63 0 0 2.483-9.88 5.732-12.992 3.248-3.11 11.922-4.661 11.922-4.661z" color="#000" fill="#ff0" stroke="#b2b2b2" stroke-linecap="round" stroke-linejoin="bevel" overflow="visible" stroke-width="1.22276"/><g ns0:text="Halbmond" ns0:preamble="/home/waldgeist/data/sphinx/inkscape-preamble.tex" transform="matrix(1.83413 0 0 1.83413 -61.275 -26.984)"><defs><symbol overflow="visible" id="k"><path d="M6.11-6.031c0-.36.015-.469.78-.469h.25v-.313c-.359.032-1.093.032-1.468.032s-1.125 0-1.469-.032v.313h.234c.766 0 .782.11.782.469v2.328H2.25v-2.328c0-.36.016-.469.781-.469h.235v-.313c-.344.032-1.079.032-1.47.032-.374 0-1.124 0-1.468-.032v.313h.234c.766 0 .797.11.797.469v5.25c0 .36-.03.469-.796.469H.328V0c.344-.031 1.094-.031 1.469-.031s1.125 0 1.469.031v-.313H3.03c-.765 0-.781-.109-.781-.468v-2.61h2.969v2.61c0 .36-.016.469-.782.469h-.234V0c.344-.031 1.078-.031 1.453-.031.39 0 1.125 0 1.485.031v-.313h-.25c-.766 0-.782-.109-.782-.468z"/></symbol><symbol overflow="visible" id="l"><path d="M3.313-.75c.046.39.312.813.78.813.22 0 .829-.141.829-.954v-.562h-.25v.562c0 .579-.25.641-.36.641-.328 0-.375-.453-.375-.5v-1.984c0-.422 0-.813-.359-1.188-.39-.39-.89-.547-1.36-.547-.827 0-1.515.469-1.515 1.125 0 .297.203.469.469.469a.435.435 0 0 0 .453-.453c0-.125-.047-.453-.516-.453.282-.36.766-.469 1.079-.469.5 0 1.062.39 1.062 1.281v.36c-.516.03-1.203.062-1.828.359-.75.344-1 .86-1 1.297 0 .812.969 1.062 1.594 1.062.656 0 1.109-.406 1.296-.859zM3.25-2.39v1c0 .937-.719 1.28-1.172 1.28-.484 0-.89-.343-.89-.843 0-.547.421-1.375 2.062-1.438z"/></symbol><symbol overflow="visible" id="m"><path d="M1.766-6.922l-1.438.11v.312c.703 0 .781.063.781.563V-.75c0 .438-.109.438-.78.438V0c.327-.016.859-.031 1.109-.031s.734.015 1.109.031v-.313c-.672 0-.781 0-.781-.437z"/></symbol><symbol overflow="visible" id="n"><path d="M1.719-3.766v-3.156l-1.438.11v.312c.703 0 .781.063.781.563V0h.25c0-.016.079-.156.36-.625.14.234.562.734 1.297.734 1.187 0 2.219-.984 2.219-2.265 0-1.266-.97-2.25-2.11-2.25-.781 0-1.203.468-1.36.64zM1.75-1.14v-2.046c0-.188 0-.204.11-.36.39-.562.937-.64 1.171-.64.453 0 .813.265 1.047.64.266.406.281.969.281 1.39 0 .36-.015.954-.296 1.407-.22.313-.594.64-1.125.64-.454 0-.813-.234-1.047-.609-.141-.203-.141-.234-.141-.422z"/></symbol><symbol overflow="visible" id="o"><path d="M1.094-3.422V-.75c0 .438-.11.438-.782.438V0c.36-.016.86-.031 1.141-.031.25 0 .766.015 1.11.031v-.313c-.672 0-.782 0-.782-.437v-1.844c0-1.031.719-1.594 1.344-1.594.64 0 .75.532.75 1.11V-.75c0 .438-.11.438-.781.438V0c.344-.016.86-.031 1.125-.031.25 0 .781.015 1.11.031v-.313c-.657 0-.766 0-.766-.437v-1.844c0-1.031.703-1.594 1.343-1.594.625 0 .735.532.735 1.11V-.75c0 .438-.11.438-.782.438V0c.344-.016.86-.031 1.125-.031.266 0 .782.015 1.125.031v-.313c-.515 0-.765 0-.78-.296v-1.907c0-.859 0-1.156-.313-1.515-.141-.172-.47-.375-1.047-.375-.828 0-1.282.593-1.438.984-.14-.875-.875-.984-1.328-.984-.734 0-1.203.422-1.484 1.047v-1.047l-1.407.11v.312c.704 0 .782.062.782.562z"/></symbol><symbol overflow="visible" id="p"><path d="M4.688-2.14c0-1.266-.985-2.329-2.188-2.329C1.25-4.469.281-3.375.281-2.14A2.22 2.22 0 0 0 2.484.11c1.204 0 2.204-.984 2.204-2.25zM2.5-.14c-.438 0-.875-.204-1.14-.672-.25-.438-.25-1.047-.25-1.407 0-.39 0-.922.234-1.36a1.347 1.347 0 0 1 1.14-.671c.438 0 .86.219 1.125.656.266.422.266 1 .266 1.375 0 .36 0 .906-.219 1.344-.234.453-.672.734-1.156.734z"/></symbol><symbol overflow="visible" id="q"><path d="M1.094-3.422V-.75c0 .438-.11.438-.782.438V0c.36-.016.86-.031 1.141-.031.25 0 .766.015 1.11.031v-.313c-.672 0-.782 0-.782-.437v-1.844c0-1.031.719-1.594 1.344-1.594.64 0 .75.532.75 1.11V-.75c0 .438-.11.438-.781.438V0c.344-.016.86-.031 1.125-.031.25 0 .781.015 1.11.031v-.313c-.516 0-.766 0-.766-.296v-1.907c0-.859 0-1.156-.313-1.515-.14-.172-.469-.375-1.047-.375-.734 0-1.203.422-1.484 1.047v-1.047l-1.407.11v.312c.704 0 .782.062.782.562z"/></symbol><symbol overflow="visible" id="r"><path d="M3.781-.547V.11L5.25 0v-.313c-.688 0-.781-.062-.781-.562v-6.047l-1.422.11v.312c.687 0 .765.063.765.563v2.156a1.582 1.582 0 0 0-1.25-.625c-1.171 0-2.218.984-2.218 2.265 0 1.266.969 2.25 2.11 2.25.64 0 1.077-.343 1.327-.656zm0-2.672v2.047c0 .172 0 .188-.11.36-.296.484-.733.703-1.171.703-.453 0-.813-.266-1.047-.641-.25-.406-.281-.969-.281-1.39 0-.36.016-.954.297-1.407.218-.312.593-.64 1.14-.64.344 0 .766.156 1.063.593.11.172.11.188.11.375z"/></symbol></defs><use height="744.094" width="1052.362" xlink:href="#k" x="223.432" y="134.765"/><use height="744.094" width="1052.362" xlink:href="#l" x="230.904" y="134.765"/><use height="744.094" width="1052.362" xlink:href="#m" x="235.885" y="134.765"/><use height="744.094" width="1052.362" xlink:href="#n" x="238.653" y="134.765"/><use height="744.094" width="1052.362" xlink:href="#o" x="244.188" y="134.765"/><use height="744.094" width="1052.362" xlink:href="#p" x="252.49" y="134.765"/><use height="744.094" width="1052.362" xlink:href="#q" x="257.471" y="134.765"/><use height="744.094" width="1052.362" xlink:href="#r" x="263.006" y="134.765"/></g><g transform="matrix(1.83413 0 0 1.83413 -61.275 289.22)" ns0:preamble="/home/waldgeist/data/sphinx/inkscape-preamble.tex" ns0:text="Halbmond"><use y="134.765" x="223.432" xlink:href="#k" width="1052.362" height="744.094"/><use y="134.765" x="230.904" xlink:href="#l" width="1052.362" height="744.094"/><use y="134.765" x="235.885" xlink:href="#m" width="1052.362" height="744.094"/><use y="134.765" x="238.653" xlink:href="#n" width="1052.362" height="744.094"/><use y="134.765" x="244.188" xlink:href="#o" width="1052.362" height="744.094"/><use y="134.765" x="252.49" xlink:href="#p" width="1052.362" height="744.094"/><use y="134.765" x="257.471" xlink:href="#q" width="1052.362" height="744.094"/><use y="134.765" x="263.006" xlink:href="#r" width="1052.362" height="744.094"/></g><g transform="matrix(1.83413 0 0 1.83413 132.69 129.354)" ns0:preamble="/home/waldgeist/data/sphinx/inkscape-preamble.tex" ns0:text="Neumond"><defs><symbol id="s" overflow="visible"><path d="M2.313-6.672c-.094-.125-.094-.14-.282-.14H.328v.312h.297c.14 0 .344.016.484.016.235.03.25.046.25.234v5.203c0 .266 0 .734-1.03.734V0c.343-.016.843-.031 1.171-.031.328 0 .813.015 1.156.031v-.313c-1.015 0-1.015-.468-1.015-.734v-5.187c.046.046.046.062.093.125L5.797-.125c.094.11.11.125.172.125.14 0 .14-.063.14-.266v-5.5c0-.265 0-.734 1.032-.734v-.313c-.36.016-.844.032-1.172.032-.328 0-.813-.016-1.157-.032v.313c1.016 0 1.016.469 1.016.734V-1.5z"/></symbol><symbol id="t" overflow="visible"><path d="M1.11-2.516C1.171-4 2.015-4.25 2.36-4.25c1.015 0 1.124 1.344 1.124 1.734zm0 .22h2.78c.22 0 .25 0 .25-.22 0-.984-.546-1.953-1.78-1.953C1.202-4.469.28-3.437.28-2.187.281-.86 1.328.108 2.47.108 3.688.11 4.14-1 4.14-1.187c0-.094-.079-.125-.141-.125-.078 0-.11.062-.125.14C3.531-.14 2.625-.14 2.531-.14c-.5 0-.89-.296-1.125-.671-.297-.47-.297-1.125-.297-1.485z"/></symbol><symbol id="u" overflow="visible"><path d="M3.89-.781v.89L5.329 0v-.313c-.687 0-.766-.062-.766-.562v-3.531l-1.468.11v.312c.687 0 .781.062.781.562v1.766c0 .875-.484 1.547-1.219 1.547-.828 0-.875-.47-.875-.985v-3.312l-1.468.11v.312c.78 0 .78.03.78.906v1.5c0 .781 0 1.687 1.516 1.687.563 0 1-.28 1.282-.89z"/></symbol><symbol id="v" overflow="visible"><path d="M1.094-3.422V-.75c0 .438-.11.438-.782.438V0c.36-.016.86-.031 1.141-.031.25 0 .766.015 1.11.031v-.313c-.672 0-.782 0-.782-.437v-1.844c0-1.031.719-1.594 1.344-1.594.64 0 .75.532.75 1.11V-.75c0 .438-.11.438-.781.438V0c.344-.016.86-.031 1.125-.031.25 0 .781.015 1.11.031v-.313c-.657 0-.766 0-.766-.437v-1.844c0-1.031.703-1.594 1.343-1.594.625 0 .735.532.735 1.11V-.75c0 .438-.11.438-.782.438V0c.344-.016.86-.031 1.125-.031.266 0 .782.015 1.125.031v-.313c-.515 0-.765 0-.78-.296v-1.907c0-.859 0-1.156-.313-1.515-.141-.172-.47-.375-1.047-.375-.828 0-1.282.593-1.438.984-.14-.875-.875-.984-1.328-.984-.734 0-1.203.422-1.484 1.047v-1.047l-1.407.11v.312c.704 0 .782.062.782.562z"/></symbol><symbol id="w" overflow="visible"><path d="M4.688-2.14c0-1.266-.985-2.329-2.188-2.329C1.25-4.469.281-3.375.281-2.14A2.22 2.22 0 0 0 2.484.11c1.204 0 2.204-.984 2.204-2.25zM2.5-.14c-.438 0-.875-.204-1.14-.672-.25-.438-.25-1.047-.25-1.407 0-.39 0-.922.234-1.36a1.347 1.347 0 0 1 1.14-.671c.438 0 .86.219 1.125.656.266.422.266 1 .266 1.375 0 .36 0 .906-.219 1.344-.234.453-.672.734-1.156.734z"/></symbol><symbol id="x" overflow="visible"><path d="M1.094-3.422V-.75c0 .438-.11.438-.782.438V0c.36-.016.86-.031 1.141-.031.25 0 .766.015 1.11.031v-.313c-.672 0-.782 0-.782-.437v-1.844c0-1.031.719-1.594 1.344-1.594.64 0 .75.532.75 1.11V-.75c0 .438-.11.438-.781.438V0c.344-.016.86-.031 1.125-.031.25 0 .781.015 1.11.031v-.313c-.516 0-.766 0-.766-.296v-1.907c0-.859 0-1.156-.313-1.515-.14-.172-.469-.375-1.047-.375-.734 0-1.203.422-1.484 1.047v-1.047l-1.407.11v.312c.704 0 .782.062.782.562z"/></symbol><symbol id="y" overflow="visible"><path d="M3.781-.547V.11L5.25 0v-.313c-.688 0-.781-.062-.781-.562v-6.047l-1.422.11v.312c.687 0 .765.063.765.563v2.156a1.582 1.582 0 0 0-1.25-.625c-1.171 0-2.218.984-2.218 2.265 0 1.266.969 2.25 2.11 2.25.64 0 1.077-.343 1.327-.656zm0-2.672v2.047c0 .172 0 .188-.11.36-.296.484-.733.703-1.171.703-.453 0-.813-.266-1.047-.641-.25-.406-.281-.969-.281-1.39 0-.36.016-.954.297-1.407.218-.312.593-.64 1.14-.64.344 0 .766.156 1.063.593.11.172.11.188.11.375z"/></symbol></defs><use height="744.094" width="1052.362" y="134.765" x="223.432" xlink:href="#s"/><use height="744.094" width="1052.362" y="134.765" x="230.904" xlink:href="#t"/><use height="744.094" width="1052.362" y="134.765" x="235.331" xlink:href="#u"/><use height="744.094" width="1052.362" y="134.765" x="240.867" xlink:href="#v"/><use height="744.094" width="1052.362" y="134.765" x="249.168" xlink:href="#w"/><use height="744.094" width="1052.362" y="134.765" x="254.15" xlink:href="#x"/><use height="744.094" width="1052.362" y="134.765" x="259.685" xlink:href="#y"/></g><g ns0:text="Vollmond" ns0:preamble="/home/waldgeist/data/sphinx/inkscape-preamble.tex" transform="matrix(1.83413 0 0 1.83413 -247.817 129.354)"><defs><symbol overflow="visible" id="z"><path d="M6.188-5.828c.14-.375.406-.656 1.093-.672v-.313c-.312.032-.718.032-.968.032-.297 0-.875-.016-1.141-.032v.313c.516.016.734.266.734.5 0 .078-.031.14-.047.203L4.031-1 2.125-6.031c-.063-.14-.063-.157-.063-.172 0-.297.563-.297.813-.297v-.313c-.36.032-1.047.032-1.422.032-.469 0-.906-.016-1.266-.032v.313c.657 0 .844 0 .985.375L3.484 0c.063.188.11.219.25.219.157 0 .188-.047.235-.188z"/></symbol><symbol overflow="visible" id="A"><path d="M4.688-2.14c0-1.266-.985-2.329-2.188-2.329C1.25-4.469.281-3.375.281-2.14A2.22 2.22 0 0 0 2.484.11c1.204 0 2.204-.984 2.204-2.25zM2.5-.14c-.438 0-.875-.204-1.14-.672-.25-.438-.25-1.047-.25-1.407 0-.39 0-.922.234-1.36a1.347 1.347 0 0 1 1.14-.671c.438 0 .86.219 1.125.656.266.422.266 1 .266 1.375 0 .36 0 .906-.219 1.344-.234.453-.672.734-1.156.734z"/></symbol><symbol overflow="visible" id="B"><path d="M1.766-6.922l-1.438.11v.312c.703 0 .781.063.781.563V-.75c0 .438-.109.438-.78.438V0c.327-.016.859-.031 1.109-.031s.734.015 1.109.031v-.313c-.672 0-.781 0-.781-.437z"/></symbol><symbol overflow="visible" id="C"><path d="M1.094-3.422V-.75c0 .438-.11.438-.782.438V0c.36-.016.86-.031 1.141-.031.25 0 .766.015 1.11.031v-.313c-.672 0-.782 0-.782-.437v-1.844c0-1.031.719-1.594 1.344-1.594.64 0 .75.532.75 1.11V-.75c0 .438-.11.438-.781.438V0c.344-.016.86-.031 1.125-.031.25 0 .781.015 1.11.031v-.313c-.657 0-.766 0-.766-.437v-1.844c0-1.031.703-1.594 1.343-1.594.625 0 .735.532.735 1.11V-.75c0 .438-.11.438-.782.438V0c.344-.016.86-.031 1.125-.031.266 0 .782.015 1.125.031v-.313c-.515 0-.765 0-.78-.296v-1.907c0-.859 0-1.156-.313-1.515-.141-.172-.47-.375-1.047-.375-.828 0-1.282.593-1.438.984-.14-.875-.875-.984-1.328-.984-.734 0-1.203.422-1.484 1.047v-1.047l-1.407.11v.312c.704 0 .782.062.782.562z"/></symbol><symbol overflow="visible" id="D"><path d="M1.094-3.422V-.75c0 .438-.11.438-.782.438V0c.36-.016.86-.031 1.141-.031.25 0 .766.015 1.11.031v-.313c-.672 0-.782 0-.782-.437v-1.844c0-1.031.719-1.594 1.344-1.594.64 0 .75.532.75 1.11V-.75c0 .438-.11.438-.781.438V0c.344-.016.86-.031 1.125-.031.25 0 .781.015 1.11.031v-.313c-.516 0-.766 0-.766-.296v-1.907c0-.859 0-1.156-.313-1.515-.14-.172-.469-.375-1.047-.375-.734 0-1.203.422-1.484 1.047v-1.047l-1.407.11v.312c.704 0 .782.062.782.562z"/></symbol><symbol overflow="visible" id="E"><path d="M3.781-.547V.11L5.25 0v-.313c-.688 0-.781-.062-.781-.562v-6.047l-1.422.11v.312c.687 0 .765.063.765.563v2.156a1.582 1.582 0 0 0-1.25-.625c-1.171 0-2.218.984-2.218 2.265 0 1.266.969 2.25 2.11 2.25.64 0 1.077-.343 1.327-.656zm0-2.672v2.047c0 .172 0 .188-.11.36-.296.484-.733.703-1.171.703-.453 0-.813-.266-1.047-.641-.25-.406-.281-.969-.281-1.39 0-.36.016-.954.297-1.407.218-.312.593-.64 1.14-.64.344 0 .766.156 1.063.593.11.172.11.188.11.375z"/></symbol></defs><use height="744.094" width="1052.362" xlink:href="#z" x="223.432" y="134.765"/><use height="744.094" width="1052.362" xlink:href="#A" x="230.077" y="134.765"/><use height="744.094" width="1052.362" xlink:href="#B" x="235.058" y="134.765"/><use height="744.094" width="1052.362" xlink:href="#B" x="237.826" y="134.765"/><use height="744.094" width="1052.362" xlink:href="#C" x="240.594" y="134.765"/><use height="744.094" width="1052.362" xlink:href="#A" x="248.895" y="134.765"/><use height="744.094" width="1052.362" xlink:href="#D" x="253.877" y="134.765"/><use height="744.094" width="1052.362" xlink:href="#E" x="259.412" y="134.765"/></g><g transform="matrix(1.83413 0 0 1.83413 88.2 14.558)" ns0:preamble="/home/waldgeist/data/sphinx/inkscape-preamble.tex" ns0:text="Zunehmender Mond"><defs><symbol id="F" overflow="visible"><path d="M5.453-6.453c.063-.11.063-.125.063-.203 0-.157-.047-.157-.25-.157H.796l-.109 2.25h.25C1-5.688 1.313-6.5 2.938-6.5H4.5L.625-.375c-.063.11-.063.125-.063.203C.563 0 .61 0 .813 0h4.594l.172-2.656h-.25C5.25-1.281 5.062-.344 3.218-.344h-1.64z"/></symbol><symbol id="G" overflow="visible"><path d="M3.89-.781v.89L5.329 0v-.313c-.687 0-.766-.062-.766-.562v-3.531l-1.468.11v.312c.687 0 .781.062.781.562v1.766c0 .875-.484 1.547-1.219 1.547-.828 0-.875-.47-.875-.985v-3.312l-1.468.11v.312c.78 0 .78.03.78.906v1.5c0 .781 0 1.687 1.516 1.687.563 0 1-.28 1.282-.89z"/></symbol><symbol id="H" overflow="visible"><path d="M1.094-3.422V-.75c0 .438-.11.438-.782.438V0c.36-.016.86-.031 1.141-.031.25 0 .766.015 1.11.031v-.313c-.672 0-.782 0-.782-.437v-1.844c0-1.031.719-1.594 1.344-1.594.64 0 .75.532.75 1.11V-.75c0 .438-.11.438-.781.438V0c.344-.016.86-.031 1.125-.031.25 0 .781.015 1.11.031v-.313c-.516 0-.766 0-.766-.296v-1.907c0-.859 0-1.156-.313-1.515-.14-.172-.469-.375-1.047-.375-.734 0-1.203.422-1.484 1.047v-1.047l-1.407.11v.312c.704 0 .782.062.782.562z"/></symbol><symbol id="I" overflow="visible"><path d="M1.11-2.516C1.171-4 2.015-4.25 2.36-4.25c1.015 0 1.124 1.344 1.124 1.734zm0 .22h2.78c.22 0 .25 0 .25-.22 0-.984-.546-1.953-1.78-1.953C1.202-4.469.28-3.437.28-2.187.281-.86 1.328.108 2.47.108 3.688.11 4.14-1 4.14-1.187c0-.094-.079-.125-.141-.125-.078 0-.11.062-.125.14C3.531-.14 2.625-.14 2.531-.14c-.5 0-.89-.296-1.125-.671-.297-.47-.297-1.125-.297-1.485z"/></symbol><symbol id="J" overflow="visible"><path d="M1.094-.75c0 .438-.11.438-.782.438V0c.36-.016.86-.031 1.141-.031.25 0 .766.015 1.11.031v-.313c-.672 0-.782 0-.782-.437v-1.844c0-1.031.719-1.594 1.344-1.594.64 0 .75.532.75 1.11V-.75c0 .438-.11.438-.781.438V0c.344-.016.86-.031 1.125-.031.25 0 .781.015 1.11.031v-.313c-.516 0-.766 0-.766-.296v-1.907c0-.859 0-1.156-.313-1.515-.14-.172-.469-.375-1.047-.375-.844 0-1.281.593-1.453.984v-3.5l-1.438.11v.312c.704 0 .782.063.782.563z"/></symbol><symbol id="K" overflow="visible"><path d="M1.094-3.422V-.75c0 .438-.11.438-.782.438V0c.36-.016.86-.031 1.141-.031.25 0 .766.015 1.11.031v-.313c-.672 0-.782 0-.782-.437v-1.844c0-1.031.719-1.594 1.344-1.594.64 0 .75.532.75 1.11V-.75c0 .438-.11.438-.781.438V0c.344-.016.86-.031 1.125-.031.25 0 .781.015 1.11.031v-.313c-.657 0-.766 0-.766-.437v-1.844c0-1.031.703-1.594 1.343-1.594.625 0 .735.532.735 1.11V-.75c0 .438-.11.438-.782.438V0c.344-.016.86-.031 1.125-.031.266 0 .782.015 1.125.031v-.313c-.515 0-.765 0-.78-.296v-1.907c0-.859 0-1.156-.313-1.515-.141-.172-.47-.375-1.047-.375-.828 0-1.282.593-1.438.984-.14-.875-.875-.984-1.328-.984-.734 0-1.203.422-1.484 1.047v-1.047l-1.407.11v.312c.704 0 .782.062.782.562z"/></symbol><symbol id="L" overflow="visible"><path d="M3.781-.547V.11L5.25 0v-.313c-.688 0-.781-.062-.781-.562v-6.047l-1.422.11v.312c.687 0 .765.063.765.563v2.156a1.582 1.582 0 0 0-1.25-.625c-1.171 0-2.218.984-2.218 2.265 0 1.266.969 2.25 2.11 2.25.64 0 1.077-.343 1.327-.656zm0-2.672v2.047c0 .172 0 .188-.11.36-.296.484-.733.703-1.171.703-.453 0-.813-.266-1.047-.641-.25-.406-.281-.969-.281-1.39 0-.36.016-.954.297-1.407.218-.312.593-.64 1.14-.64.344 0 .766.156 1.063.593.11.172.11.188.11.375z"/></symbol><symbol id="M" overflow="visible"><path d="M1.672-3.313v-1.093l-1.39.11v.312c.702 0 .78.062.78.562V-.75c0 .438-.109.438-.78.438V0c.39-.016.859-.031 1.14-.031.39 0 .86 0 1.266.031v-.313h-.22c-.734 0-.75-.109-.75-.468v-1.531c0-.985.423-1.876 1.173-1.876.062 0 .093 0 .109.016-.031 0-.234.125-.234.39 0 .266.218.423.437.423a.421.421 0 0 0 .422-.438c0-.312-.313-.61-.734-.61-.735 0-1.094.673-1.22 1.095z"/></symbol><symbol id="N" overflow="visible"><path d="M2.406-6.594c-.094-.218-.125-.218-.36-.218H.376v.312h.234c.766 0 .782.11.782.469v4.984c0 .266 0 .734-1.016.734V0c.344-.016.828-.031 1.156-.031.328 0 .828.015 1.172.031v-.313c-1.031 0-1.031-.468-1.031-.734v-5.375h.016L4.094-.219c.047.125.093.219.187.219.11 0 .14-.078.188-.188L6.922-6.5v5.719c0 .36-.016.469-.781.469h-.235V0c.36-.031 1.047-.031 1.438-.031.375 0 1.047 0 1.422.031v-.313h-.25c-.766 0-.782-.109-.782-.468v-5.25c0-.36.016-.469.782-.469h.25v-.313H7.078c-.266 0-.266.016-.328.188L4.562-1z"/></symbol><symbol id="O" overflow="visible"><path d="M4.688-2.14c0-1.266-.985-2.329-2.188-2.329C1.25-4.469.281-3.375.281-2.14A2.22 2.22 0 0 0 2.484.11c1.204 0 2.204-.984 2.204-2.25zM2.5-.14c-.438 0-.875-.204-1.14-.672-.25-.438-.25-1.047-.25-1.407 0-.39 0-.922.234-1.36a1.347 1.347 0 0 1 1.14-.671c.438 0 .86.219 1.125.656.266.422.266 1 .266 1.375 0 .36 0 .906-.219 1.344-.234.453-.672.734-1.156.734z"/></symbol></defs><use height="744.094" width="1052.362" y="134.765" x="223.432" xlink:href="#F"/><use height="744.094" width="1052.362" y="134.765" x="229.52" xlink:href="#G"/><use height="744.094" width="1052.362" y="134.765" x="235.055" xlink:href="#H"/><use height="744.094" width="1052.362" y="134.765" x="240.591" xlink:href="#I"/><use height="744.094" width="1052.362" y="134.765" x="245.018" xlink:href="#J"/><use height="744.094" width="1052.362" y="134.765" x="250.553" xlink:href="#K"/><use height="744.094" width="1052.362" y="134.765" x="258.855" xlink:href="#I"/><use height="744.094" width="1052.362" y="134.765" x="263.282" xlink:href="#H"/><use height="744.094" width="1052.362" y="134.765" x="268.818" xlink:href="#L"/><use height="744.094" width="1052.362" y="134.765" x="274.353" xlink:href="#I"/><use height="744.094" width="1052.362" y="134.765" x="278.78" xlink:href="#M"/><g><use height="744.094" width="1052.362" y="134.765" x="286" xlink:href="#N"/><use height="744.094" width="1052.362" y="134.765" x="295.133" xlink:href="#O"/><use height="744.094" width="1052.362" y="134.765" x="300.114" xlink:href="#H"/><use height="744.094" width="1052.362" y="134.765" x="305.649" xlink:href="#L"/></g></g><g ns0:text="Abnehmender Mond" ns0:preamble="/home/waldgeist/data/sphinx/inkscape-preamble.tex" transform="matrix(1.83413 0 0 1.83413 -294.086 247.93)"><defs><symbol overflow="visible" id="P"><path d="M3.969-6.938c-.047-.125-.078-.203-.235-.203-.156 0-.187.063-.234.204L1.437-.984C1.25-.47.86-.313.313-.313V0c.235-.016.672-.031 1.016-.031.313 0 .828.015 1.156.031v-.313c-.5 0-.75-.25-.75-.5 0-.03.016-.14.016-.156l.469-1.297h2.453L5.203-.75a.58.58 0 0 1 .031.14c0 .297-.562.297-.828.297V0c.36-.031 1.063-.031 1.438-.031.422 0 .89.015 1.297.031v-.313h-.172c-.594 0-.735-.062-.844-.39zm-.531 1.11l1.124 3.25H2.329z"/></symbol><symbol overflow="visible" id="Q"><path d="M1.719-3.766v-3.156l-1.438.11v.312c.703 0 .781.063.781.563V0h.25c0-.016.079-.156.36-.625.14.234.562.734 1.297.734 1.187 0 2.219-.984 2.219-2.265 0-1.266-.97-2.25-2.11-2.25-.781 0-1.203.468-1.36.64zM1.75-1.14v-2.046c0-.188 0-.204.11-.36.39-.562.937-.64 1.171-.64.453 0 .813.265 1.047.64.266.406.281.969.281 1.39 0 .36-.015.954-.296 1.407-.22.313-.594.64-1.125.64-.454 0-.813-.234-1.047-.609-.141-.203-.141-.234-.141-.422z"/></symbol><symbol overflow="visible" id="R"><path d="M1.094-3.422V-.75c0 .438-.11.438-.782.438V0c.36-.016.86-.031 1.141-.031.25 0 .766.015 1.11.031v-.313c-.672 0-.782 0-.782-.437v-1.844c0-1.031.719-1.594 1.344-1.594.64 0 .75.532.75 1.11V-.75c0 .438-.11.438-.781.438V0c.344-.016.86-.031 1.125-.031.25 0 .781.015 1.11.031v-.313c-.516 0-.766 0-.766-.296v-1.907c0-.859 0-1.156-.313-1.515-.14-.172-.469-.375-1.047-.375-.734 0-1.203.422-1.484 1.047v-1.047l-1.407.11v.312c.704 0 .782.062.782.562z"/></symbol><symbol overflow="visible" id="S"><path d="M1.11-2.516C1.171-4 2.015-4.25 2.36-4.25c1.015 0 1.124 1.344 1.124 1.734zm0 .22h2.78c.22 0 .25 0 .25-.22 0-.984-.546-1.953-1.78-1.953C1.202-4.469.28-3.437.28-2.187.281-.86 1.328.108 2.47.108 3.688.11 4.14-1 4.14-1.187c0-.094-.079-.125-.141-.125-.078 0-.11.062-.125.14C3.531-.14 2.625-.14 2.531-.14c-.5 0-.89-.296-1.125-.671-.297-.47-.297-1.125-.297-1.485z"/></symbol><symbol overflow="visible" id="T"><path d="M1.094-.75c0 .438-.11.438-.782.438V0c.36-.016.86-.031 1.141-.031.25 0 .766.015 1.11.031v-.313c-.672 0-.782 0-.782-.437v-1.844c0-1.031.719-1.594 1.344-1.594.64 0 .75.532.75 1.11V-.75c0 .438-.11.438-.781.438V0c.344-.016.86-.031 1.125-.031.25 0 .781.015 1.11.031v-.313c-.516 0-.766 0-.766-.296v-1.907c0-.859 0-1.156-.313-1.515-.14-.172-.469-.375-1.047-.375-.844 0-1.281.593-1.453.984v-3.5l-1.438.11v.312c.704 0 .782.063.782.563z"/></symbol><symbol overflow="visible" id="U"><path d="M1.094-3.422V-.75c0 .438-.11.438-.782.438V0c.36-.016.86-.031 1.141-.031.25 0 .766.015 1.11.031v-.313c-.672 0-.782 0-.782-.437v-1.844c0-1.031.719-1.594 1.344-1.594.64 0 .75.532.75 1.11V-.75c0 .438-.11.438-.781.438V0c.344-.016.86-.031 1.125-.031.25 0 .781.015 1.11.031v-.313c-.657 0-.766 0-.766-.437v-1.844c0-1.031.703-1.594 1.343-1.594.625 0 .735.532.735 1.11V-.75c0 .438-.11.438-.782.438V0c.344-.016.86-.031 1.125-.031.266 0 .782.015 1.125.031v-.313c-.515 0-.765 0-.78-.296v-1.907c0-.859 0-1.156-.313-1.515-.141-.172-.47-.375-1.047-.375-.828 0-1.282.593-1.438.984-.14-.875-.875-.984-1.328-.984-.734 0-1.203.422-1.484 1.047v-1.047l-1.407.11v.312c.704 0 .782.062.782.562z"/></symbol><symbol overflow="visible" id="V"><path d="M3.781-.547V.11L5.25 0v-.313c-.688 0-.781-.062-.781-.562v-6.047l-1.422.11v.312c.687 0 .765.063.765.563v2.156a1.582 1.582 0 0 0-1.25-.625c-1.171 0-2.218.984-2.218 2.265 0 1.266.969 2.25 2.11 2.25.64 0 1.077-.343 1.327-.656zm0-2.672v2.047c0 .172 0 .188-.11.36-.296.484-.733.703-1.171.703-.453 0-.813-.266-1.047-.641-.25-.406-.281-.969-.281-1.39 0-.36.016-.954.297-1.407.218-.312.593-.64 1.14-.64.344 0 .766.156 1.063.593.11.172.11.188.11.375z"/></symbol><symbol overflow="visible" id="W"><path d="M1.672-3.313v-1.093l-1.39.11v.312c.702 0 .78.062.78.562V-.75c0 .438-.109.438-.78.438V0c.39-.016.859-.031 1.14-.031.39 0 .86 0 1.266.031v-.313h-.22c-.734 0-.75-.109-.75-.468v-1.531c0-.985.423-1.876 1.173-1.876.062 0 .093 0 .109.016-.031 0-.234.125-.234.39 0 .266.218.423.437.423a.421.421 0 0 0 .422-.438c0-.312-.313-.61-.734-.61-.735 0-1.094.673-1.22 1.095z"/></symbol><symbol overflow="visible" id="X"><path d="M2.406-6.594c-.094-.218-.125-.218-.36-.218H.376v.312h.234c.766 0 .782.11.782.469v4.984c0 .266 0 .734-1.016.734V0c.344-.016.828-.031 1.156-.031.328 0 .828.015 1.172.031v-.313c-1.031 0-1.031-.468-1.031-.734v-5.375h.016L4.094-.219c.047.125.093.219.187.219.11 0 .14-.078.188-.188L6.922-6.5v5.719c0 .36-.016.469-.781.469h-.235V0c.36-.031 1.047-.031 1.438-.031.375 0 1.047 0 1.422.031v-.313h-.25c-.766 0-.782-.109-.782-.468v-5.25c0-.36.016-.469.782-.469h.25v-.313H7.078c-.266 0-.266.016-.328.188L4.562-1z"/></symbol><symbol overflow="visible" id="Y"><path d="M4.688-2.14c0-1.266-.985-2.329-2.188-2.329C1.25-4.469.281-3.375.281-2.14A2.22 2.22 0 0 0 2.484.11c1.204 0 2.204-.984 2.204-2.25zM2.5-.14c-.438 0-.875-.204-1.14-.672-.25-.438-.25-1.047-.25-1.407 0-.39 0-.922.234-1.36a1.347 1.347 0 0 1 1.14-.671c.438 0 .86.219 1.125.656.266.422.266 1 .266 1.375 0 .36 0 .906-.219 1.344-.234.453-.672.734-1.156.734z"/></symbol></defs><use height="744.094" width="1052.362" xlink:href="#P" x="223.432" y="134.765"/><use height="744.094" width="1052.362" xlink:href="#Q" x="230.904" y="134.765"/><use height="744.094" width="1052.362" xlink:href="#R" x="236.439" y="134.765"/><use height="744.094" width="1052.362" xlink:href="#S" x="241.974" y="134.765"/><use height="744.094" width="1052.362" xlink:href="#T" x="246.402" y="134.765"/><use height="744.094" width="1052.362" xlink:href="#U" x="251.937" y="134.765"/><use height="744.094" width="1052.362" xlink:href="#S" x="260.239" y="134.765"/><use height="744.094" width="1052.362" xlink:href="#R" x="264.666" y="134.765"/><use height="744.094" width="1052.362" xlink:href="#V" x="270.201" y="134.765"/><use height="744.094" width="1052.362" xlink:href="#S" x="275.737" y="134.765"/><use height="744.094" width="1052.362" xlink:href="#W" x="280.164" y="134.765"/><g><use height="744.094" width="1052.362" xlink:href="#X" x="287.384" y="134.765"/><use height="744.094" width="1052.362" xlink:href="#Y" x="296.517" y="134.765"/><use height="744.094" width="1052.362" xlink:href="#R" x="301.498" y="134.765"/><use height="744.094" width="1052.362" xlink:href="#V" x="307.033" y="134.765"/></g></g><path d="M339.163 182.778a44.804 44.804 0 0 1 25.444 40.406" transform="matrix(-2.02569 -.54278 -.54473 2.03298 1095.748 26.162)" fill="none" stroke="#b3b3b3" stroke-width=".582" marker-end="url(#Z)"/><path transform="matrix(2.02569 .54278 .54473 -2.03298 -316.315 717.033)" d="M339.163 182.778a44.804 44.804 0 0 1 25.444 40.406" fill="none" stroke="#b3b3b3" stroke-width=".582" marker-end="url(#Z)"/><g transform="matrix(1.83413 0 0 1.83413 434.923 130.722)" ns0:preamble="/home/waldgeist/data/sphinx/inkscape-preamble.tex" ns0:text="Sonnenlicht\n"><defs><symbol id="aa" overflow="visible"><path d="M3.484-3.875l-1.28-.297c-.626-.156-1-.687-1-1.266 0-.703.53-1.312 1.312-1.312 1.656 0 1.875 1.64 1.937 2.078.016.063.016.125.125.125.125 0 .125-.047.125-.234v-2c0-.172 0-.25-.11-.25-.062 0-.077.015-.14.14l-.36.563c-.296-.297-.702-.703-1.593-.703-1.11 0-1.938.875-1.938 1.937 0 .828.532 1.563 1.297 1.828.11.032.625.157 1.329.329.265.062.562.14.843.5.203.265.313.593.313.921 0 .704-.5 1.422-1.344 1.422-.281 0-1.047-.047-1.578-.531-.578-.547-.61-1.172-.61-1.531-.015-.11-.093-.11-.125-.11-.125 0-.125.079-.125.25v2c0 .172 0 .235.11.235.062 0 .078-.016.14-.125 0-.016.032-.047.36-.578.312.343.953.703 1.844.703 1.156 0 1.953-.969 1.953-2.078 0-.985-.657-1.813-1.485-2.016z"/></symbol><symbol id="ab" overflow="visible"><path d="M4.688-2.14c0-1.266-.985-2.329-2.188-2.329C1.25-4.469.281-3.375.281-2.14A2.22 2.22 0 0 0 2.484.11c1.204 0 2.204-.984 2.204-2.25zM2.5-.14c-.438 0-.875-.204-1.14-.672-.25-.438-.25-1.047-.25-1.407 0-.39 0-.922.234-1.36a1.347 1.347 0 0 1 1.14-.671c.438 0 .86.219 1.125.656.266.422.266 1 .266 1.375 0 .36 0 .906-.219 1.344-.234.453-.672.734-1.156.734z"/></symbol><symbol id="ac" overflow="visible"><path d="M1.094-3.422V-.75c0 .438-.11.438-.782.438V0c.36-.016.86-.031 1.141-.031.25 0 .766.015 1.11.031v-.313c-.672 0-.782 0-.782-.437v-1.844c0-1.031.719-1.594 1.344-1.594.64 0 .75.532.75 1.11V-.75c0 .438-.11.438-.781.438V0c.344-.016.86-.031 1.125-.031.25 0 .781.015 1.11.031v-.313c-.516 0-.766 0-.766-.296v-1.907c0-.859 0-1.156-.313-1.515-.14-.172-.469-.375-1.047-.375-.734 0-1.203.422-1.484 1.047v-1.047l-1.407.11v.312c.704 0 .782.062.782.562z"/></symbol><symbol id="ad" overflow="visible"><path d="M1.11-2.516C1.171-4 2.015-4.25 2.36-4.25c1.015 0 1.124 1.344 1.124 1.734zm0 .22h2.78c.22 0 .25 0 .25-.22 0-.984-.546-1.953-1.78-1.953C1.202-4.469.28-3.437.28-2.187.281-.86 1.328.108 2.47.108 3.688.11 4.14-1 4.14-1.187c0-.094-.079-.125-.141-.125-.078 0-.11.062-.125.14C3.531-.14 2.625-.14 2.531-.14c-.5 0-.89-.296-1.125-.671-.297-.47-.297-1.125-.297-1.485z"/></symbol><symbol id="ae" overflow="visible"><path d="M1.766-6.922l-1.438.11v.312c.703 0 .781.063.781.563V-.75c0 .438-.109.438-.78.438V0c.327-.016.859-.031 1.109-.031s.734.015 1.109.031v-.313c-.672 0-.781 0-.781-.437z"/></symbol><symbol id="af" overflow="visible"><path d="M1.766-4.406l-1.391.11v.312c.64 0 .734.062.734.546V-.75c0 .438-.109.438-.78.438V0c.312-.016.859-.031 1.093-.031.36 0 .703.015 1.047.031v-.313c-.672 0-.703-.046-.703-.437zm.03-1.735a.514.514 0 0 0-.515-.53.537.537 0 0 0-.531.53c0 .266.219.532.531.532a.514.514 0 0 0 .516-.532z"/></symbol><symbol id="ag" overflow="visible"><path d="M1.172-2.172c0-1.625.812-2.047 1.344-2.047.093 0 .718.016 1.062.375-.406.031-.469.328-.469.453 0 .266.188.454.454.454.265 0 .468-.157.468-.47 0-.671-.765-1.062-1.531-1.062C1.25-4.469.344-3.39.344-2.156c0 1.281.984 2.265 2.14 2.265 1.329 0 1.657-1.203 1.657-1.296 0-.094-.11-.094-.141-.094-.078 0-.11.031-.125.093C3.594-.265 2.937-.14 2.578-.14c-.531 0-1.406-.421-1.406-2.03z"/></symbol><symbol id="ah" overflow="visible"><path d="M1.094-.75c0 .438-.11.438-.782.438V0c.36-.016.86-.031 1.141-.031.25 0 .766.015 1.11.031v-.313c-.672 0-.782 0-.782-.437v-1.844c0-1.031.719-1.594 1.344-1.594.64 0 .75.532.75 1.11V-.75c0 .438-.11.438-.781.438V0c.344-.016.86-.031 1.125-.031.25 0 .781.015 1.11.031v-.313c-.516 0-.766 0-.766-.296v-1.907c0-.859 0-1.156-.313-1.515-.14-.172-.469-.375-1.047-.375-.844 0-1.281.593-1.453.984v-3.5l-1.438.11v.312c.704 0 .782.063.782.563z"/></symbol><symbol id="ai" overflow="visible"><path d="M1.719-3.984h1.437v-.313H1.72v-1.828h-.25c0 .813-.297 1.875-1.282 1.922v.219h.844v2.75c0 1.218.938 1.343 1.297 1.343.703 0 .985-.703.985-1.343v-.563h-.25v.547c0 .734-.297 1.11-.672 1.11-.672 0-.672-.907-.672-1.079z"/></symbol></defs><use y="134.765" x="223.432" xlink:href="#aa" width="1052.362" height="744.094"/><use y="134.765" x="228.967" xlink:href="#ab" width="1052.362" height="744.094"/><use y="134.765" x="233.949" xlink:href="#ac" width="1052.362" height="744.094"/><use y="134.765" x="239.484" xlink:href="#ac" width="1052.362" height="744.094"/><use y="134.765" x="245.019" xlink:href="#ad" width="1052.362" height="744.094"/><use y="134.765" x="249.446" xlink:href="#ac" width="1052.362" height="744.094"/><use y="134.765" x="254.982" xlink:href="#ae" width="1052.362" height="744.094"/><use y="134.765" x="257.749" xlink:href="#af" width="1052.362" height="744.094"/><use y="134.765" x="260.517" xlink:href="#ag" width="1052.362" height="744.094"/><g><use y="134.765" x="264.665" xlink:href="#ah" width="1052.362" height="744.094"/></g><g><use y="134.765" x="269.921" xlink:href="#ai" width="1052.362" height="744.094"/></g></g></svg>