<svg xmlns:ns0="http://www.iki.fi/pav/software/textext/" xmlns="http://www.w3.org/2000/svg" xmlns:xlink="http://www.w3.org/1999/xlink" width="1052.362" height="744.094"><title>Optische Linsen</title><defs><marker orient="auto" id="a" overflow="visible"><path d="M8.719 4.034L-2.207.016 8.719-4.002c-1.746 2.372-1.736 5.618 0 8.036z" transform="scale(-.6)" font-size="12" fill-rule="evenodd" stroke-width=".625" stroke-linejoin="round"/></marker></defs><g transform="translate(0 -308.268)"><use transform="matrix(2.67713 0 0 2.67713 -126.88 404.192)" height="744.094" width="1052.362" xlink:href="#textext-d469b2d2-0" x="223.432" y="134.765"/><path style="marker:none" color="#000" fill="#fff" stroke="#fff" stroke-width="1.5" stroke-linecap="round" stroke-linejoin="round" overflow="visible" d="M15.181 421.315h1022v518h-1022z"/><path style="marker:none" color="#000" fill="#f9f9f9" stroke="#f9f9f9" stroke-width=".427" stroke-linecap="round" stroke-dasharray="1.28196478,2.56392958" overflow="visible" d="M568.586 470.522h454.817v419.585H568.586z"/><path d="M755.015 530.362h81.959c-36.638 113.227-31.91 217.391 0 315.68h-81.96c33.552-104.06 35.347-209.274 0-315.68z" fill="#ececec" stroke="#ececec"/><path style="marker:none" color="#000" fill="#f9f9f9" stroke="#f9f9f9" stroke-width=".427" stroke-linecap="round" stroke-dasharray="1.28196478,2.56392958" overflow="visible" d="M36.182 470.522h454.817v419.585H36.182z"/><g fill="none"><path d="M1065.972 735.76c21.202 36.724 21.202 81.97 0 118.694" transform="matrix(1.62175 0 0 2.65965 -973.729 -1426.502)" stroke="gray" stroke-width=".963" stroke-linecap="round"/><path transform="matrix(-1.62175 0 0 2.65965 2565.718 -1426.502)" d="M1065.972 735.76c21.202 36.724 21.202 81.97 0 118.694" stroke="gray" stroke-width=".963" stroke-linecap="round"/><path d="M755.015 530.362h81.96M755.015 846.043h81.96" stroke="#999" stroke-width="1.9999396999999999"/></g><g fill="#ececec" stroke="gray" stroke-width=".963" stroke-linecap="round"><path transform="matrix(1.62175 0 0 2.65965 -1465.401 -1434.389)" d="M1065.972 735.76c21.202 36.724 21.202 81.97 0 118.694"/><path d="M1065.972 735.76c21.202 36.724 21.202 81.97 0 118.694" transform="matrix(-1.62175 0 0 2.65965 1991.834 -1434.389)"/></g><path d="M36.527 680.304h453.38" fill="none" stroke="#000" stroke-dasharray=".87830783,1.75661562"/><path d="M449.42 680.304a3.879 3.879 0 1 1-7.757 0 3.879 3.879 0 0 1 7.758 0z" stroke="#000" stroke-width="1.5353390800000002" stroke-linecap="round"/><path d="M80.64 629.886h182.45M80.64 680.315h182.45M80.64 730.744h182.45M80.64 579.457h182.45M80.64 781.173h182.45" fill="#f60" stroke="#f60" stroke-width="1.5" stroke-linecap="round" marker-end="url(#a)"/><path d="M263.09 579.457l205.153 113.477M263.09 629.886l207.748 57.555M263.09 680.317l209.022-.013M263.09 730.744l208.092-57.678M263.09 781.173l205.704-113.81" fill="#f60" stroke="#d40000" stroke-width="1.5" stroke-linecap="round" marker-end="url(#a)"/><path d="M526.181 458.99v442.65" fill="none" stroke="gray" stroke-linecap="round"/><path d="M610.699 680.315a3.879 3.879 0 1 1-7.758 0 3.879 3.879 0 0 1 7.758 0z" stroke="#000" stroke-width="1.5353390800000002" stroke-linecap="round"/><path d="M606.82 680.315h182.452" fill="#f60" stroke="#f60" stroke-width="1.5" stroke-linecap="round" marker-end="url(#a)"/><path d="M789.272 680.315h182.451" fill="#f60" stroke="#d40000" stroke-width="1.5" stroke-linecap="round" marker-end="url(#a)"/><path d="M606.82 629.886h182.452M606.82 730.744h182.452M606.82 579.457h182.452M606.82 781.173h182.452" fill="#f60" stroke="#f60" stroke-width="1.5" stroke-linecap="round" marker-end="url(#a)"/><path d="M606.82 680.315l182.452-50.43M606.82 680.315l182.452-100.858" opacity=".6" fill="#f60" stroke="#f60" stroke-width="1.5" stroke-linecap="round" stroke-dasharray="1.5,6"/><path d="M789.272 579.457l182.451-100.859M789.272 629.886l182.451-50.43M789.271 781.173l182.452 100.859M789.272 730.744l182.451 50.43" fill="#f60" stroke="#d40000" stroke-width="1.5" stroke-linecap="round" marker-end="url(#a)"/><path d="M606.82 680.315l182.452 50.43M606.82 680.315l182.452 100.858" opacity=".6" fill="#f60" stroke="#f60" stroke-width="1.5" stroke-linecap="round" stroke-dasharray="1.5,6"/><path d="M569.305 680.304h453.38" fill="none" stroke="#000" stroke-dasharray=".87830783,1.75661562"/><use y="134.765" x="223.432" xlink:href="#textext-d469b2d2-0" width="1052.362" height="744.094" transform="translate(49.28 379.975) scale(2.45234)" ns0:preamble="/home/waldgeist/data/sphinx/inkscape-preamble.tex" ns0:text="$F$"/><g transform="translate(-110.245 379.975) scale(2.45234)" ns0:preamble="/home/waldgeist/data/sphinx/inkscape-preamble.tex" ns0:text="$\\rm{F}$"><defs><symbol id="b" overflow="visible"><path d="M5.797-6.781H.328v.312h.234c.766 0 .797.11.797.469v5.219c0 .36-.03.469-.796.469H.328V0c.344-.031 1.125-.031 1.516-.031.406 0 1.312 0 1.672.031v-.313h-.329c-.937 0-.937-.124-.937-.468v-2.453h.844c.969 0 1.062.312 1.062 1.156h.25v-2.64h-.25c0 .843-.093 1.171-1.062 1.171H2.25v-2.531c0-.328.016-.39.484-.39h1.188c1.5 0 1.75.562 1.906 1.937h.25z"/></symbol></defs><use y="134.765" x="223.432" xlink:href="#b" width="1052.362" height="744.094"/></g><use height="744.094" width="1052.362" xlink:href="#b" x="223.432" y="134.765" transform="translate(51.033 379.975) scale(2.45234)" ns0:text="$\\rm{F}$" ns0:preamble="/home/waldgeist/data/sphinx/inkscape-preamble.tex"/></g></svg>