<?xml version="1.0" encoding="UTF-8" standalone="no"?>
<!-- Created with Inkscape (http://www.inkscape.org/) -->

<svg
   xmlns:ns0="http://www.iki.fi/pav/software/textext/"
   xmlns:dc="http://purl.org/dc/elements/1.1/"
   xmlns:cc="http://creativecommons.org/ns#"
   xmlns:rdf="http://www.w3.org/1999/02/22-rdf-syntax-ns#"
   xmlns:svg="http://www.w3.org/2000/svg"
   xmlns="http://www.w3.org/2000/svg"
   xmlns:xlink="http://www.w3.org/1999/xlink"
   xmlns:sodipodi="http://sodipodi.sourceforge.net/DTD/sodipodi-0.dtd"
   xmlns:inkscape="http://www.inkscape.org/namespaces/inkscape"
   width="210mm"
   height="297mm"
   id="svg9057"
   version="1.1"
   inkscape:version="0.48.3.1 r9886"
   sodipodi:docname="overhead-projektor.svg">
  <sodipodi:namedview
     id="base"
     pagecolor="#ffffff"
     bordercolor="#666666"
     borderopacity="1.0"
     inkscape:pageopacity="0.0"
     inkscape:pageshadow="2"
     inkscape:zoom="1.3234375"
     inkscape:cx="478.70504"
     inkscape:cy="565.3927"
     inkscape:document-units="px"
     inkscape:current-layer="layer1"
     showgrid="false"
     inkscape:object-paths="true"
     inkscape:snap-intersection-paths="false"
     inkscape:object-nodes="true"
     inkscape:snap-midpoints="true"
     inkscape:snap-smooth-nodes="true"
     inkscape:snap-object-midpoints="true"
     inkscape:window-width="1600"
     inkscape:window-height="1150"
     inkscape:window-x="0"
     inkscape:window-y="0"
     inkscape:window-maximized="1"
     showguides="false"
     inkscape:guide-bbox="true"
     inkscape:snap-global="true">
    <sodipodi:guide
       orientation="1,0"
       position="237.46494,291.53683"
       id="guide9131" />
    <sodipodi:guide
       orientation="-0.70710678,0.70710678"
       position="222.71312,719.03705"
       id="guide9133" />
    <sodipodi:guide
       orientation="0,1"
       position="308.50979,780.3354"
       id="guide9137" />
    <sodipodi:guide
       orientation="1,0"
       position="256.14502,270.04114"
       id="guide9139" />
    <sodipodi:guide
       orientation="1,0"
       position="274.84891,291.15902"
       id="guide3533" />
    <sodipodi:guide
       orientation="1,0"
       position="308.50979,780.3354"
       id="guide5613" />
    <sodipodi:guide
       orientation="0,1"
       position="354.38017,270.50767"
       id="guide9448" />
  </sodipodi:namedview>
  <title
     id="title5625">Overhead-Projektor</title>
  <defs
     id="defs9059">
    <marker
       inkscape:stockid="Arrow2Send"
       orient="auto"
       refY="0.0"
       refX="0.0"
       id="Arrow2Send"
       style="overflow:visible;">
      <path
         id="path5200"
         style="fill-rule:evenodd;stroke-width:0.62500000;stroke-linejoin:round;"
         d="M 8.7185878,4.0337352 L -2.2072895,0.016013256 L 8.7185884,-4.0017078 C 6.9730900,-1.6296469 6.9831476,1.6157441 8.7185878,4.0337352 z "
         transform="scale(0.3) rotate(180) translate(-2.3,0)" />
    </marker>
    <marker
       style="overflow:visible"
       id="Arrow2Mend"
       refX="0"
       refY="0"
       orient="auto"
       inkscape:stockid="Arrow2Mend">
      <path
         inkscape:connector-curvature="0"
         transform="scale(-0.6,-0.6)"
         d="M 8.7185878,4.0337352 -2.2072895,0.01601326 8.7185884,-4.0017078 c -1.7454984,2.3720609 -1.7354408,5.6174519 -6e-7,8.035443 z"
         style="font-size:12px;fill-rule:evenodd;stroke-width:0.625;stroke-linejoin:round"
         id="path4744" />
    </marker>
    <marker
       style="overflow:visible"
       id="Arrow2Mend-7"
       refX="0"
       refY="0"
       orient="auto"
       inkscape:stockid="Arrow2Mend">
      <path
         inkscape:connector-curvature="0"
         transform="scale(-0.6,-0.6)"
         d="M 8.7185878,4.0337352 -2.2072895,0.01601326 8.7185884,-4.0017078 c -1.7454984,2.3720609 -1.7354408,5.6174519 -6e-7,8.035443 z"
         style="font-size:12px;fill-rule:evenodd;stroke-width:0.625;stroke-linejoin:round"
         id="path4744-8" />
    </marker>
  </defs>
  <metadata
     id="metadata9062">
    <rdf:RDF>
      <cc:Work
         rdf:about="">
        <dc:format>image/svg+xml</dc:format>
        <dc:type
           rdf:resource="http://purl.org/dc/dcmitype/StillImage" />
        <dc:title>Overhead-Projektor</dc:title>
        <dc:date>2014-02-08</dc:date>
        <dc:creator>
          <cc:Agent>
            <dc:title>Bernhard Grotz</dc:title>
          </cc:Agent>
        </dc:creator>
        <dc:rights>
          <cc:Agent>
            <dc:title>Bernhard Grotz</dc:title>
          </cc:Agent>
        </dc:rights>
        <dc:publisher>
          <cc:Agent>
            <dc:title>Bernhard Grotz</dc:title>
          </cc:Agent>
        </dc:publisher>
        <dc:language>de-DE</dc:language>
        <dc:subject>
          <rdf:Bag>
            <rdf:li>Physik</rdf:li>
            <rdf:li>Optik</rdf:li>
            <rdf:li>Optische Geraete</rdf:li>
            <rdf:li>Overhead-Projektor</rdf:li>
            <rdf:li>Fresnel-Linse</rdf:li>
          </rdf:Bag>
        </dc:subject>
        <cc:license
           rdf:resource="http://creativecommons.org/licenses/by-nc-sa/3.0/" />
      </cc:Work>
      <cc:License
         rdf:about="http://creativecommons.org/licenses/by-nc-sa/3.0/">
        <cc:permits
           rdf:resource="http://creativecommons.org/ns#Reproduction" />
        <cc:permits
           rdf:resource="http://creativecommons.org/ns#Distribution" />
        <cc:requires
           rdf:resource="http://creativecommons.org/ns#Notice" />
        <cc:requires
           rdf:resource="http://creativecommons.org/ns#Attribution" />
        <cc:prohibits
           rdf:resource="http://creativecommons.org/ns#CommercialUse" />
        <cc:permits
           rdf:resource="http://creativecommons.org/ns#DerivativeWorks" />
        <cc:requires
           rdf:resource="http://creativecommons.org/ns#ShareAlike" />
      </cc:License>
    </rdf:RDF>
  </metadata>
  <g
     inkscape:label="Ebene 1"
     inkscape:groupmode="layer"
     id="layer1">
    <rect
       style="color:#000000;fill:#ffffff;fill-opacity:1;fill-rule:nonzero;stroke:#ffffff;stroke-width:1;stroke-linecap:round;stroke-linejoin:round;stroke-miterlimit:4;stroke-opacity:1;stroke-dasharray:none;stroke-dashoffset:0;marker:none;visibility:visible;display:inline;overflow:visible;enable-background:accumulate"
       id="rect5627"
       width="675.34961"
       height="565.28473"
       x="34.372437"
       y="243.53873"
       inkscape:export-filename="/home/waldgeist/sandbox/homepage/pics/physik/optik/overhead-projektor.png"
       inkscape:export-xdpi="150"
       inkscape:export-ydpi="150" />
    <path
       style="fill:#cccccc;stroke:#333333;stroke-width:1px;stroke-linecap:butt;stroke-linejoin:miter;stroke-opacity:1"
       d="m 275.9742,366.01478 0,55.01156 0,192.79407 -37.98584,0 0,-192.79407 0,-54.93453"
       id="path9127"
       inkscape:connector-curvature="0"
       sodipodi:nodetypes="cccccc"
       inkscape:export-filename="/home/waldgeist/sandbox/homepage/pics/physik/optik/overhead-projektor.png"
       inkscape:export-xdpi="150"
       inkscape:export-ydpi="150" />
    <rect
       style="color:#000000;fill:#f9f9f9;fill-opacity:1;fill-rule:nonzero;stroke:#808080;stroke-width:3;stroke-linecap:round;stroke-linejoin:round;stroke-miterlimit:4;stroke-opacity:1;stroke-dasharray:none;stroke-dashoffset:0;marker:none;visibility:visible;display:inline;overflow:visible;enable-background:accumulate"
       id="rect9065"
       width="202.71718"
       height="168.5006"
       x="154.78644"
       y="613.82043"
       inkscape:export-filename="/home/waldgeist/sandbox/homepage/pics/physik/optik/overhead-projektor.png"
       inkscape:export-xdpi="150"
       inkscape:export-ydpi="150" />
    <path
       style="fill:#ffcc00;stroke:none"
       d="m 252.64351,765.49665 c 0,0 -0.85722,-1.38207 -1.35457,-4.07096 -0.20622,-1.11491 -1.25937,-2.01378 -1.7633,-3.02946 -0.76971,-1.55138 -1.42054,-3.32988 -1.32241,-5.05893 0.0926,-1.63148 0.52251,-3.4919 1.25076,-4.68017 0.79582,-1.29852 2.07996,-2.22332 3.37948,-2.76629 1.94735,-0.81364 4.97917,-0.863 6.94648,0.20594 1.98524,1.07869 2.98942,2.62393 3.58928,3.71103 0.81616,1.47908 0.71886,2.73939 0.68794,4.17644 -0.0327,1.51921 -0.92429,3.10357 -1.50588,4.50743 -0.5623,1.35733 -1.32869,2.0002 -1.72409,3.41519 -0.23734,0.84933 -0.95368,3.58552 -0.95368,3.58552"
       id="path6011"
       inkscape:connector-curvature="0"
       sodipodi:nodetypes="cssssssssssc" />
    <path
       sodipodi:nodetypes="ccssssscscccsccsscccssssssssssssccssscscscssscssccsssssccccccccccccccccccccccccsccccccsssssssssssssssscccscscccscccccccccsccssssccsscccsccccccccccsccscccccscsccccccccscccccsccccsscccsscccsccccccccccccccccccccscccscccccccascccsscss"
       style="fill:#1a1a1a"
       d="m 256.64792,772.93793 c 0.0586,-0.0153 0.12938,-0.0493 0.15723,-0.0758 0.028,-0.0265 0.13819,-0.0482 0.24516,-0.0482 0.18118,-2e-5 0.22505,-0.0365 0.63964,-0.53309 0.2448,-0.29323 0.48276,-0.53309 0.52862,-0.53321 0.046,4e-5 0.31959,-0.2369 0.608,-0.52645 0.49006,-0.49158 0.52203,-0.53723 0.48839,-0.69041 -0.0287,-0.13059 -0.0123,-0.18349 0.0802,-0.25987 0.32263,-0.26627 0.33608,-0.33569 0.1043,-0.53906 -0.2044,-0.17938 -0.21524,-0.40422 -0.0266,-0.5526 0.19432,-0.15284 0.17179,-0.29971 -0.0604,-0.39666 -0.14406,-0.0602 -0.17815,-0.0963 -0.13326,-0.14121 0.0331,-0.0333 0.0604,-0.12798 0.0604,-0.21073 2e-5,-0.10839 0.037,-0.16725 0.13222,-0.21067 0.26674,-0.12157 0.21902,-0.37845 -0.0826,-0.44471 -0.14498,-0.0318 -0.22316,-0.13246 -0.10291,-0.13246 0.0294,2e-5 0.0534,-0.0621 0.0533,-0.13804 -4e-5,-0.0788 0.0515,-0.17986 0.11995,-0.23544 0.11502,-0.0933 0.11909,-0.12599 0.10275,-0.78829 l -0.0171,-0.69093 0.17234,-0.0601 c 0.4067,-0.14179 0.75352,-0.57147 0.93021,-1.15249 0.0449,-0.14651 0.11682,-0.67436 0.16051,-1.1728 0.1303,-1.48678 0.26306,-1.83656 1.43609,-3.78406 1.14578,-1.90225 1.62388,-3.00033 1.92606,-4.42386 0.20177,-0.95061 0.23746,-2.50512 0.0788,-3.43505 -0.28577,-1.67521 -1.01364,-3.16768 -2.09817,-4.30226 -1.08801,-1.13827 -2.38494,-1.86097 -4.01477,-2.23727 -0.55369,-0.12784 -0.77798,-0.14983 -1.74176,-0.17073 -1.4517,-0.0315 -2.26928,0.0763 -3.42452,0.45155 -1.12823,0.36643 -1.98131,0.89116 -2.83197,1.74196 -1.11294,1.11312 -1.77517,2.372 -2.16297,4.11178 -0.10467,0.46946 -0.11871,0.68262 -0.11777,1.78587 5.4e-4,1.09641 0.0158,1.3193 0.11948,1.78585 0.26295,1.18372 0.62217,2.11022 1.24874,3.22067 1.90638,3.37865 1.95796,3.50278 2.14348,5.15719 0.0465,0.41502 0.12266,0.88282 0.16916,1.03954 0.19224,0.64802 0.57528,1.16995 1.00786,1.37332 0.27735,0.13038 0.29333,0.21126 0.0975,0.49385 -0.17686,0.25526 -0.17686,0.42169 0,0.63191 0.077,0.0915 0.13993,0.18762 0.13992,0.21365 -2e-5,0.0261 -0.0721,0.12924 -0.15988,0.22954 -0.088,0.10018 -0.1599,0.21892 -0.1599,0.2639 -3e-5,0.0449 0.0719,0.14965 0.1599,0.23268 0.19485,0.18392 0.20279,0.33229 0.0266,0.49779 -0.17737,0.16668 -0.17737,0.39512 -1e-5,0.51134 0.0879,0.0576 0.13325,0.13653 0.13326,0.23184 0,0.0852 -0.0547,0.19586 -0.13326,0.2697 -0.17156,0.16115 -0.16781,0.22348 0.0266,0.44499 0.19459,0.22165 0.19908,0.29928 0.0267,0.46126 -0.0734,0.0688 -0.13325,0.16344 -0.13328,0.2101 0,0.0961 1.11455,1.22925 1.20911,1.22925 0.0338,10e-6 0.28346,0.25189 0.55488,0.55976 0.27143,0.30787 0.52862,0.55977 0.57151,0.55976 0.0429,2e-5 0.10865,0.042 0.1461,0.0933 0.0583,0.0799 0.17007,0.0946 0.77877,0.1024 0.39087,0.005 0.75864,-0.004 0.81727,-0.0186 z m 0.08,-9.26645 0,-1.78588 c 0.11548,-3e-5 0.23099,-3e-5 0.34647,-5e-5 l -0.0147,1.7859 -0.0147,1.78588 c -0.10568,3e-5 -0.21137,0 -0.31704,1e-5 z m -0.85248,0.04 2.1e-4,-1.7459 0.2395,-0.0109 0.2395,-0.0109 0,1.75672 0,1.75674 c -0.15989,2e-5 -0.31981,0 -0.47972,0 l 2.3e-4,-1.74588 z m -0.9386,1.46601 c 0.0159,-0.15394 0.0419,-0.73567 0.0578,-1.29275 0.0159,-0.55709 0.0434,-1.25877 0.0613,-1.5593 l 0.0324,-0.54643 c 0.12014,2e-5 0.24027,10e-6 0.3604,10e-6 l 1.7e-4,0.99953 c 8e-5,0.54977 0.0158,1.3774 0.035,1.8392 l 0.0348,0.83961 c -0.20355,3e-5 -0.40712,10e-6 -0.61069,10e-6 l 0.029,-0.27987 z m -1.77079,0.16428 c -0.4171,-0.0701 -0.70901,-0.27976 -0.92497,-0.66433 -0.18196,-0.32403 -0.27255,-0.73629 -0.3892,-1.77098 -0.0935,-0.82984 -0.24113,-1.37478 -0.55824,-2.06121 -0.20515,-0.4441 -0.92531,-1.77006 -1.42288,-2.61976 -0.44218,-0.75521 -0.95395,-1.84247 -1.13409,-2.40958 -0.78298,-2.46506 -0.43552,-5.14032 0.93788,-7.22089 0.33598,-0.50903 1.2735,-1.44512 1.79864,-1.79559 1.3357,-0.89219 3.09429,-1.33755 4.9884,-1.26323 2.06963,0.0812 3.735,0.75174 5.05961,2.03725 0.61104,0.59302 1.02268,1.146 1.41565,1.90182 0.70036,1.34703 0.99338,2.80304 0.87761,4.36083 -0.13654,1.83685 -0.67924,3.32931 -1.96761,5.4109 -0.71889,1.16144 -1.18341,2.0844 -1.35505,2.69223 -0.0809,0.28735 -0.14986,0.73625 -0.18776,1.22612 -0.0754,0.97441 -0.13891,1.30155 -0.31628,1.62839 -0.25827,0.47584 -0.39518,0.52228 -1.73388,0.58822 l -0.68631,0.0338 0.0369,-1.75164 c 0.0256,-1.2151 0.0684,-2.00179 0.13996,-2.5683 0.0567,-0.44916 0.10309,-0.91333 0.10309,-1.03147 0,-0.29361 -0.14589,-0.5814 -0.32991,-0.65088 -0.0824,-0.0311 -0.14982,-0.0715 -0.14981,-0.0897 -1.3e-4,-0.0182 0.0458,-0.21085 0.10196,-0.42812 0.12928,-0.50121 1.98033,-4.68464 2.14738,-4.85345 0.16846,-0.16999 0.29468,-0.55934 0.21983,-0.67732 -0.0309,-0.0487 -0.1014,-0.0886 -0.15666,-0.0886 -0.0553,0 -0.12766,-0.0176 -0.1609,-0.0392 -0.0993,-0.0646 -0.76128,-0.1408 -1.23971,-0.14279 -0.24601,-5.3e-4 -0.45615,-0.0107 -0.46697,-0.0216 -0.0108,-0.0108 0.0164,-0.12193 0.0605,-0.2469 0.0442,-0.12498 0.0655,-0.25077 0.0479,-0.2795 -0.0454,-0.0734 -0.10347,0.004 -0.17785,0.23688 -0.056,0.17503 -0.08,0.19585 -0.19367,0.16731 -0.0714,-0.0179 -0.16059,-0.007 -0.1982,0.0241 -0.0466,0.0386 -0.17832,0.0411 -0.4124,0.008 -0.40176,-0.0572 -0.56691,-0.0397 -1.35679,0.14432 l -0.58633,0.13653 -0.22653,-0.14956 c -0.21453,-0.14164 -0.22655,-0.1632 -0.22655,-0.40664 2e-5,-0.20039 -0.0188,-0.25708 -0.0855,-0.25708 -0.0745,5e-5 -0.0806,0.0549 -0.0477,0.42647 0.0433,0.48977 0.0595,0.4779 -0.50991,0.37326 -0.29942,-0.055 -1.1837,0.0464 -1.28468,0.14745 -0.0496,0.0496 0.14496,0.58814 0.24522,0.67876 0.0325,0.0293 0.31976,0.74899 0.63847,1.59928 0.31871,0.85028 0.71914,1.88182 0.88983,2.2923 0.1707,0.41049 0.33949,0.87296 0.37511,1.02772 l 0.0647,0.28139 -0.17422,0.14542 c -0.23999,0.20035 -0.27573,0.44678 -0.20657,1.42416 0.0408,0.57647 0.0394,1.25341 -0.005,2.42557 -0.0337,0.89427 -0.061,1.75499 -0.0606,1.9127 l 5.3e-4,0.28677 -0.43974,-0.0364 c -0.24192,-0.02 -0.59149,-0.0618 -0.77687,-0.093 z m 2.71997,-4.32003 c -0.0133,-0.30179 0.001,-0.37444 0.0933,-0.46646 0.12201,-0.12201 0.15469,-0.12903 0.26772,-0.0576 0.0546,0.0345 0.0849,0.17181 0.0989,0.44733 0.0218,0.43172 5.3e-4,0.46169 -0.31091,0.44238 -0.12638,-0.008 -0.13407,-0.0267 -0.14896,-0.36571 z m 0.83384,-0.18513 c -0.0177,-0.43354 -0.0259,-0.4589 -0.19267,-0.60796 -0.45903,-0.41019 -1.07407,-0.004 -1.07737,0.71072 l -10e-4,0.25322 c -0.13789,0 -0.27576,0 -0.41365,0 l -0.0386,-0.61815 c -0.0216,-0.346 -0.0177,-0.63888 0.009,-0.66527 0.0259,-0.0259 0.30527,-0.1055 0.62078,-0.17679 l 0.57367,-0.12967 0.51747,0.14672 c 0.51587,0.14628 0.51753,0.1473 0.5361,0.3285 0.0102,0.1 -0.0106,0.42202 -0.0464,0.71566 l -0.0649,0.5339 c -0.13441,-0.0128 -0.26883,-0.0257 -0.40325,-0.0385 l -0.0186,-0.45241 z m 0.11739,-1.63769 -0.18384,-0.0664 0.011,-1.19562 c 0.006,-0.65758 0.0108,-1.2242 0.0106,-1.25912 -1.7e-4,-0.035 0.10162,-0.0835 0.22618,-0.10801 0.19188,-0.0377 0.22901,-0.0664 0.24307,-0.18631 0.0147,-0.12638 -0.004,-0.1436 -0.16485,-0.15851 l -0.18139,-0.0167 0.36238,-1.17282 c 0.19935,-0.64504 0.40197,-1.3136 0.45031,-1.48567 l 0.0878,-0.3129 0.80725,0.0247 c 0.79547,0.0242 1.13509,0.0947 1.0804,0.22414 -0.0137,0.0312 -0.51967,1.17265 -1.12531,2.53604 -0.69146,1.55657 -1.13438,2.62269 -1.19044,2.86538 -0.0965,0.41775 -0.11139,0.42827 -0.43323,0.31198 z m -1.846,-0.0721 c -0.0939,-0.41704 -0.1514,-0.58548 -0.38932,-1.14106 -0.14247,-0.33265 -0.58758,-1.47797 -0.98915,-2.54516 -0.55566,-1.47669 -0.71371,-1.95048 -0.66147,-1.98277 0.13837,-0.0855 0.72862,-0.11105 1.11609,-0.0482 l 0.39515,0.064 0.40314,1.34064 c 0.36276,1.2064 0.39346,1.34233 0.30648,1.35767 -0.1609,0.0284 -0.12252,0.26005 0.0587,0.35372 0.14382,0.0744 0.1578,0.10889 0.18974,0.46784 0.019,0.21313 0.0271,0.79428 0.018,1.29143 l -0.0165,0.9039 -0.1333,0.0368 c -0.22863,0.0635 -0.26353,0.0519 -0.29749,-0.0989 z m 0.77722,-0.35129 c -1e-5,-0.18588 -0.0158,-0.77362 -0.035,-1.30608 l -0.035,-0.96811 c 0.21883,0 0.43764,0 0.65646,0 l 0,1.27636 0,1.27637 -0.22654,0.0204 c -0.12463,0.0112 -0.25652,0.0247 -0.29316,0.0297 -0.0473,0.007 -0.0667,-0.0889 -0.0667,-0.32865 z m -0.71807,-3.80991 c -0.19942,-0.66535 -0.37408,-1.2517 -0.38815,-1.30301 -0.0175,-0.0636 0.005,-0.0933 0.0697,-0.0933 0.0524,3e-5 0.13585,-0.0367 0.18541,-0.0815 0.0946,-0.0857 0.95959,-0.31322 1.42533,-0.37504 0.15013,-0.0199 0.40615,-0.0195 0.56894,0.001 0.2814,0.0351 0.29598,0.0445 0.29598,0.18925 -10e-6,0.15655 0.1342,0.34202 0.21248,0.29364 0.0544,-0.0339 -0.68221,2.43874 -0.76856,2.57946 -0.0109,0.0178 -0.29401,0.0249 -0.62917,0.0158 l -0.6094,-0.0163 -0.3626,-1.2097 z m 2.29076,-1.71659 c 0.0476,-0.077 0.18628,-0.0648 0.1863,0.0164 0,0.0381 -0.0291,0.0982 -0.0643,0.13364 -0.0503,0.0502 -0.0742,0.0466 -0.10947,-0.0164 -0.0248,-0.0444 -0.0304,-0.10454 -0.0125,-0.13364 z m -2.74535,2.2e-4 c 0,-0.0293 0.0226,-0.0533 0.0502,-0.0532 0.0277,4e-5 0.065,0.024 0.0831,0.0533 0.0181,0.0293 -0.004,0.0533 -0.0502,0.0532 -0.0457,-10e-6 -0.0831,-0.024 -0.0831,-0.0533 z"
       id="path17296-6"
       inkscape:connector-curvature="0"
       inkscape:export-filename="/home/waldgeist/sandbox/homepage/pics/physik/optik/overhead-projektor.png"
       inkscape:export-xdpi="150"
       inkscape:export-ydpi="150" />
    <path
       style="color:#000000;fill:#cccccc;fill-opacity:1;fill-rule:nonzero;stroke:#999999;stroke-width:3;stroke-linecap:round;stroke-linejoin:round;stroke-miterlimit:4;stroke-opacity:1;stroke-dashoffset:0;marker:none;visibility:visible;display:inline;overflow:visible;enable-background:accumulate"
       d="m 230.08254,751.56501 -14,30.75601 80.125,0 -14,-30.75601 c 0,0 -11.70923,16.63101 -26.0625,16.63101 -14.35327,0 -26.0625,-16.63101 -26.0625,-16.63101 z"
       id="rect9069"
       inkscape:connector-curvature="0"
       sodipodi:nodetypes="cccczc"
       inkscape:export-filename="/home/waldgeist/sandbox/homepage/pics/physik/optik/overhead-projektor.png"
       inkscape:export-xdpi="150"
       inkscape:export-ydpi="150" />
    <path
       style="color:#000000;fill:#f9f9f9;fill-opacity:1;fill-rule:nonzero;stroke:#808080;stroke-width:3;stroke-linecap:round;stroke-linejoin:round;stroke-miterlimit:4;stroke-opacity:1;stroke-dashoffset:0;marker:none;visibility:visible;display:inline;overflow:visible;enable-background:accumulate"
       d="m 222.71312,333.32513 63.33799,-61.23335 22.45868,-0.065 0,89.34262 -85.78929,-0.14168 z"
       id="rect9094"
       inkscape:connector-curvature="0"
       sodipodi:nodetypes="cccccc"
       inkscape:export-filename="/home/waldgeist/sandbox/homepage/pics/physik/optik/overhead-projektor.png"
       inkscape:export-xdpi="150"
       inkscape:export-ydpi="150" />
    <g
       id="g7749"
       transform="matrix(0,-0.53916532,0.59196423,0,177.79135,520.13868)"
       style="fill:#ececec;fill-opacity:1;stroke:#808080;stroke-width:1.77007341;stroke-opacity:1"
       inkscape:export-filename="/home/waldgeist/sandbox/homepage/pics/physik/optik/overhead-projektor.png"
       inkscape:export-xdpi="150"
       inkscape:export-ydpi="150">
      <path
         sodipodi:nodetypes="cc"
         inkscape:connector-curvature="0"
         id="path7751"
         d="m 295.08545,83.774857 c -19.38829,33.498713 -19.16505,66.838023 0,99.999993"
         style="fill:#ececec;fill-opacity:1;stroke:#808080;stroke-width:1.77007341;stroke-linecap:round;stroke-linejoin:miter;stroke-opacity:1" />
      <path
         style="fill:#ececec;fill-opacity:1;stroke:#808080;stroke-width:1.77007341;stroke-linecap:round;stroke-linejoin:miter;stroke-opacity:1"
         d="m 295.02081,83.774859 c 19.38829,33.498711 19.16505,66.838021 0,99.999991"
         id="path7753"
         inkscape:connector-curvature="0"
         sodipodi:nodetypes="cc" />
    </g>
    <rect
       style="fill:#b3b3b3;fill-opacity:1;stroke:#000000;stroke-width:0.99999994;stroke-linecap:butt;stroke-linejoin:round;stroke-miterlimit:4;stroke-opacity:1;stroke-dasharray:none;stroke-dashoffset:0"
       id="rect36125"
       width="81.818077"
       height="6.3708482"
       x="-6.7371531"
       y="-400.29337"
       inkscape:export-filename="/home/waldgeist/sandbox/homepage/pics/physik/optik/overhead-projektor.png"
       inkscape:export-xdpi="150"
       inkscape:export-ydpi="150"
       transform="matrix(-0.70710678,0.70710678,-0.70710678,-0.70710678,0,0)" />
    <path
       inkscape:connector-curvature="0"
       id="path5621"
       d="M 280.2608,287.51676 629.65993,269.33108"
       style="fill:none;stroke:#ff6600;stroke-width:2.99999976;stroke-linecap:round;stroke-linejoin:miter;stroke-miterlimit:4;stroke-opacity:1;stroke-dasharray:none;marker-end:url(#Arrow2Send)"
       inkscape:export-filename="/home/waldgeist/sandbox/homepage/pics/physik/optik/overhead-projektor.png"
       inkscape:export-xdpi="150"
       inkscape:export-ydpi="150"
       sodipodi:nodetypes="cc" />
    <path
       inkscape:connector-curvature="0"
       id="path5611"
       d="M 174.60703,614.19822 280.26082,287.51677"
       style="fill:none;stroke:#d40000;stroke-width:2.99999976000000013;stroke-linecap:round;stroke-linejoin:miter;stroke-miterlimit:4;stroke-opacity:1;stroke-dasharray:none;marker-end:url(#Arrow2Send)"
       inkscape:export-filename="/home/waldgeist/sandbox/homepage/pics/physik/optik/overhead-projektor.png"
       inkscape:export-xdpi="150"
       inkscape:export-ydpi="150"
       sodipodi:nodetypes="cc" />
    <rect
       style="color:#000000;fill:#f9f9f9;fill-opacity:1;fill-rule:nonzero;stroke:#808080;stroke-width:1;stroke-linecap:round;stroke-linejoin:round;stroke-miterlimit:4;stroke-opacity:1;stroke-dasharray:none;stroke-dashoffset:0;marker:none;visibility:visible;display:inline;overflow:visible;enable-background:accumulate"
       id="rect9446"
       width="15.112161"
       height="282.59741"
       x="633.19952"
       y="196.06284" />
    <path
       inkscape:connector-curvature="0"
       id="path5623"
       d="m 245.28295,322.85037 384.79803,82.63204"
       style="fill:none;stroke:#ff6600;stroke-width:2.99999976;stroke-linecap:round;stroke-linejoin:miter;stroke-miterlimit:4;stroke-opacity:1;stroke-dasharray:none;marker-end:url(#Arrow2Send)"
       inkscape:export-filename="/home/waldgeist/sandbox/homepage/pics/physik/optik/overhead-projektor.png"
       inkscape:export-xdpi="150"
       inkscape:export-ydpi="150"
       sodipodi:nodetypes="cc" />
    <path
       sodipodi:nodetypes="cc"
       inkscape:export-ydpi="150"
       inkscape:export-xdpi="150"
       inkscape:export-filename="/home/waldgeist/sandbox/homepage/pics/physik/optik/overhead-projektor.png"
       style="fill:none;stroke:#d40000;stroke-width:2.99999976000000013;stroke-linecap:round;stroke-linejoin:miter;stroke-miterlimit:4;stroke-opacity:1;stroke-dasharray:none;marker-end:url(#Arrow2Send)"
       d="M 338.72244,613.82041 245.75045,326.25651"
       id="path5615"
       inkscape:connector-curvature="0" />
    <path
       sodipodi:nodetypes="cc"
       inkscape:export-ydpi="150"
       inkscape:export-xdpi="150"
       inkscape:export-filename="/home/waldgeist/data/pics/physik/Own/optik/ebener-spiegel.png"
       style="fill:none;stroke:#ff6600;stroke-width:3;stroke-linecap:round;stroke-linejoin:miter;stroke-miterlimit:4;stroke-opacity:1;stroke-dasharray:none;marker-end:url(#Arrow2Send)"
       d="M 274.84891,761.20316 174.09923,614.19822"
       id="path5609"
       inkscape:connector-curvature="0" />
    <path
       inkscape:connector-curvature="0"
       id="path36991"
       d="M 237.46494,760.82535 338.21462,613.82041"
       style="fill:none;stroke:#ff6600;stroke-width:3;stroke-linecap:round;stroke-linejoin:miter;stroke-miterlimit:4;stroke-opacity:1;stroke-dasharray:none;marker-end:url(#Arrow2Send)"
       inkscape:export-filename="/home/waldgeist/data/pics/physik/Own/optik/ebener-spiegel.png"
       inkscape:export-xdpi="150"
       inkscape:export-ydpi="150"
       sodipodi:nodetypes="cc" />
    <path
       inkscape:connector-curvature="0"
       id="path5631"
       d="m 247.86261,753.8721 -9.63266,6.44166"
       style="fill:none;stroke:#ff6600;stroke-width:3;stroke-linecap:round;stroke-linejoin:miter;stroke-miterlimit:4;stroke-opacity:1;stroke-dasharray:none;marker-end:url(#Arrow2Send)"
       inkscape:export-filename="/home/waldgeist/data/pics/physik/Own/optik/ebener-spiegel.png"
       inkscape:export-xdpi="150"
       inkscape:export-ydpi="150"
       sodipodi:nodetypes="cc" />
    <path
       sodipodi:nodetypes="cc"
       inkscape:export-ydpi="150"
       inkscape:export-xdpi="150"
       inkscape:export-filename="/home/waldgeist/data/pics/physik/Own/optik/ebener-spiegel.png"
       style="fill:none;stroke:#ff6600;stroke-width:3;stroke-linecap:round;stroke-linejoin:miter;stroke-miterlimit:4;stroke-opacity:1;stroke-dasharray:none;marker-end:url(#Arrow2Send)"
       d="m 264.05717,753.98425 9.74436,6.54961"
       id="path6007"
       inkscape:connector-curvature="0" />
    <g
       transform="matrix(3,0,0,3,-515.20154,-102.73123)"
       ns0:text="Spiegel"
       ns0:preamble="/home/waldgeist/data/sphinx/inkscape-preamble.tex"
       id="g9491">
      <defs
         id="defs9493">
        <g
           id="g9495">
          <symbol
             style="overflow:visible"
             overflow="visible"
             id="textext-7e3f6b02-0">
            <path
               inkscape:connector-curvature="0"
               style="stroke:none"
               d=""
               id="path9498" />
          </symbol>
          <symbol
             style="overflow:visible"
             overflow="visible"
             id="textext-7e3f6b02-1">
            <path
               inkscape:connector-curvature="0"
               style="stroke:none"
               d="m 3.484375,-3.875 -1.28125,-0.296875 c -0.625,-0.15625 -1,-0.6875 -1,-1.265625 0,-0.703125 0.53125,-1.3125 1.3125,-1.3125 1.65625,0 1.875,1.640625 1.9375,2.078125 0.015625,0.0625 0.015625,0.125 0.125,0.125 0.125,0 0.125,-0.046875 0.125,-0.234375 l 0,-2 c 0,-0.171875 0,-0.25 -0.109375,-0.25 -0.0625,0 -0.078125,0.015625 -0.140625,0.140625 l -0.359375,0.5625 C 3.796875,-6.625 3.390625,-7.03125 2.5,-7.03125 c -1.109375,0 -1.9375,0.875 -1.9375,1.9375 0,0.828125 0.53125,1.5625 1.296875,1.828125 0.109375,0.03125 0.625,0.15625 1.328125,0.328125 0.265625,0.0625 0.5625,0.140625 0.84375,0.5 0.203125,0.265625 0.3125,0.59375 0.3125,0.921875 0,0.703125 -0.5,1.421875 -1.34375,1.421875 -0.28125,0 -1.046875,-0.046875 -1.578125,-0.53125 C 0.84375,-1.171875 0.8125,-1.796875 0.8125,-2.15625 0.796875,-2.265625 0.71875,-2.265625 0.6875,-2.265625 c -0.125,0 -0.125,0.078125 -0.125,0.25 l 0,2 c 0,0.171875 0,0.234375 0.109375,0.234375 0.0625,0 0.078125,-0.015625 0.140625,-0.125 0,-0.015625 0.03125,-0.046875 0.359375,-0.578125 0.3125,0.34375 0.953125,0.703125 1.84375,0.703125 1.15625,0 1.953125,-0.96875 1.953125,-2.078125 0,-0.984375 -0.65625,-1.8125 -1.484375,-2.015625 z"
               id="path9501" />
          </symbol>
          <symbol
             style="overflow:visible"
             overflow="visible"
             id="textext-7e3f6b02-2">
            <path
               inkscape:connector-curvature="0"
               style="stroke:none"
               d="m 1.71875,-3.75 0,-0.65625 -1.4375,0.109375 0,0.3125 c 0.703125,0 0.78125,0.0625 0.78125,0.5 l 0,4.65625 C 1.0625,1.625 0.953125,1.625 0.28125,1.625 l 0,0.3125 C 0.625,1.921875 1.140625,1.90625 1.390625,1.90625 c 0.28125,0 0.78125,0.015625 1.125,0.03125 l 0,-0.3125 C 1.859375,1.625 1.75,1.625 1.75,1.171875 l 0,-1.765625 c 0.046875,0.171875 0.46875,0.703125 1.21875,0.703125 1.1875,0 2.21875,-0.984375 2.21875,-2.265625 0,-1.265625 -0.953125,-2.25 -2.078125,-2.25 -0.78125,0 -1.203125,0.4375 -1.390625,0.65625 z m 0.03125,2.609375 0,-2.21875 C 2.03125,-3.875 2.515625,-4.15625 3.03125,-4.15625 c 0.734375,0 1.328125,0.875 1.328125,2 0,1.203125 -0.6875,2.046875 -1.421875,2.046875 -0.40625,0 -0.78125,-0.203125 -1.046875,-0.609375 C 1.75,-0.921875 1.75,-0.9375 1.75,-1.140625 z"
               id="path9504" />
          </symbol>
          <symbol
             style="overflow:visible"
             overflow="visible"
             id="textext-7e3f6b02-3">
            <path
               inkscape:connector-curvature="0"
               style="stroke:none"
               d="M 1.765625,-4.40625 0.375,-4.296875 l 0,0.3125 c 0.640625,0 0.734375,0.0625 0.734375,0.546875 l 0,2.6875 c 0,0.4375 -0.109375,0.4375 -0.78125,0.4375 l 0,0.3125 C 0.640625,-0.015625 1.1875,-0.03125 1.421875,-0.03125 1.78125,-0.03125 2.125,-0.015625 2.46875,0 l 0,-0.3125 c -0.671875,0 -0.703125,-0.046875 -0.703125,-0.4375 z m 0.03125,-1.734375 c 0,-0.3125 -0.234375,-0.53125 -0.515625,-0.53125 -0.3125,0 -0.53125,0.265625 -0.53125,0.53125 0,0.265625 0.21875,0.53125 0.53125,0.53125 0.28125,0 0.515625,-0.21875 0.515625,-0.53125 z"
               id="path9507" />
          </symbol>
          <symbol
             style="overflow:visible"
             overflow="visible"
             id="textext-7e3f6b02-4">
            <path
               inkscape:connector-curvature="0"
               style="stroke:none"
               d="M 1.109375,-2.515625 C 1.171875,-4 2.015625,-4.25 2.359375,-4.25 c 1.015625,0 1.125,1.34375 1.125,1.734375 z m 0,0.21875 2.78125,0 c 0.21875,0 0.25,0 0.25,-0.21875 0,-0.984375 -0.546875,-1.953125 -1.78125,-1.953125 -1.15625,0 -2.078125,1.03125 -2.078125,2.28125 0,1.328125 1.046875,2.296875 2.1875,2.296875 C 3.6875,0.109375 4.140625,-1 4.140625,-1.1875 4.140625,-1.28125 4.0625,-1.3125 4,-1.3125 c -0.078125,0 -0.109375,0.0625 -0.125,0.140625 -0.34375,1.03125 -1.25,1.03125 -1.34375,1.03125 -0.5,0 -0.890625,-0.296875 -1.125,-0.671875 -0.296875,-0.46875 -0.296875,-1.125 -0.296875,-1.484375 z"
               id="path9510" />
          </symbol>
          <symbol
             style="overflow:visible"
             overflow="visible"
             id="textext-7e3f6b02-5">
            <path
               inkscape:connector-curvature="0"
               style="stroke:none"
               d="m 2.21875,-1.71875 c -0.875,0 -0.875,-1 -0.875,-1.21875 0,-0.265625 0.015625,-0.59375 0.15625,-0.84375 0.078125,-0.109375 0.3125,-0.390625 0.71875,-0.390625 0.859375,0 0.859375,0.984375 0.859375,1.21875 0,0.265625 0,0.59375 -0.15625,0.84375 C 2.84375,-2 2.609375,-1.71875 2.21875,-1.71875 z M 1.0625,-1.328125 c 0,-0.03125 0,-0.265625 0.15625,-0.46875 0.390625,0.28125 0.8125,0.3125 1,0.3125 0.921875,0 1.609375,-0.6875 1.609375,-1.453125 0,-0.375 -0.15625,-0.734375 -0.40625,-0.96875 C 3.78125,-4.25 4.140625,-4.296875 4.3125,-4.296875 c 0.03125,0 0.078125,0 0.109375,0.015625 C 4.3125,-4.25 4.25,-4.140625 4.25,-4.015625 c 0,0.171875 0.140625,0.28125 0.296875,0.28125 0.09375,0 0.28125,-0.0625 0.28125,-0.296875 0,-0.171875 -0.109375,-0.484375 -0.5,-0.484375 -0.203125,0 -0.640625,0.0625 -1.0625,0.46875 C 2.84375,-4.375 2.4375,-4.40625 2.21875,-4.40625 c -0.9375,0 -1.625,0.6875 -1.625,1.453125 0,0.4375 0.21875,0.8125 0.46875,1.03125 -0.125,0.140625 -0.3125,0.46875 -0.3125,0.828125 0,0.3125 0.140625,0.6875 0.453125,0.890625 -0.609375,0.15625 -0.921875,0.59375 -0.921875,0.984375 0,0.71875 0.984375,1.265625 2.203125,1.265625 1.171875,0 2.203125,-0.5 2.203125,-1.28125 0,-0.34375 -0.125,-0.859375 -0.640625,-1.140625 -0.53125,-0.265625 -1.109375,-0.265625 -1.71875,-0.265625 -0.25,0 -0.671875,0 -0.75,-0.015625 C 1.265625,-0.703125 1.0625,-1 1.0625,-1.328125 z M 2.5,1.828125 c -1.015625,0 -1.703125,-0.515625 -1.703125,-1.046875 0,-0.453125 0.375,-0.828125 0.8125,-0.84375 l 0.59375,0 c 0.859375,0 1.96875,0 1.96875,0.84375 0,0.546875 -0.703125,1.046875 -1.671875,1.046875 z"
               id="path9513" />
          </symbol>
          <symbol
             style="overflow:visible"
             overflow="visible"
             id="textext-7e3f6b02-6">
            <path
               inkscape:connector-curvature="0"
               style="stroke:none"
               d="m 1.765625,-6.921875 -1.4375,0.109375 0,0.3125 c 0.703125,0 0.78125,0.0625 0.78125,0.5625 l 0,5.1875 c 0,0.4375 -0.109375,0.4375 -0.78125,0.4375 l 0,0.3125 C 0.65625,-0.015625 1.1875,-0.03125 1.4375,-0.03125 c 0.25,0 0.734375,0.015625 1.109375,0.03125 l 0,-0.3125 c -0.671875,0 -0.78125,0 -0.78125,-0.4375 z"
               id="path9516" />
          </symbol>
        </g>
      </defs>
      <g
         id="textext-7e3f6b02-7">
        <g
           style="fill:#000000;fill-opacity:1"
           id="g9519">
          <use
             height="1052.3622"
             width="744.09448"
             xlink:href="#textext-7e3f6b02-1"
             x="223.43201"
             y="134.765"
             id="use9521" />
          <use
             height="1052.3622"
             width="744.09448"
             xlink:href="#textext-7e3f6b02-2"
             x="228.96722"
             y="134.765"
             id="use9523" />
          <use
             height="1052.3622"
             width="744.09448"
             xlink:href="#textext-7e3f6b02-3"
             x="234.50244"
             y="134.765"
             id="use9525" />
          <use
             height="1052.3622"
             width="744.09448"
             xlink:href="#textext-7e3f6b02-4"
             x="237.27005"
             y="134.765"
             id="use9527" />
          <use
             height="1052.3622"
             width="744.09448"
             xlink:href="#textext-7e3f6b02-5"
             x="241.69743"
             y="134.765"
             id="use9529" />
          <use
             height="1052.3622"
             width="744.09448"
             xlink:href="#textext-7e3f6b02-4"
             x="246.67873"
             y="134.765"
             id="use9531" />
          <use
             height="1052.3622"
             width="744.09448"
             xlink:href="#textext-7e3f6b02-6"
             x="251.10611"
             y="134.765"
             id="use9533" />
        </g>
      </g>
    </g>
    <g
       id="g9715"
       transform="matrix(3,0,0,3,-139.05746,-187.63841)"
       ns0:preamble="/home/waldgeist/data/sphinx/inkscape-preamble.tex"
       ns0:text="Schirm">
      <defs
         id="defs9717">
        <g
           id="g9719">
          <symbol
             id="textext-d0bc194b-0"
             overflow="visible"
             style="overflow:visible">
            <path
               id="path9722"
               d=""
               style="stroke:none"
               inkscape:connector-curvature="0" />
          </symbol>
          <symbol
             id="textext-d0bc194b-1"
             overflow="visible"
             style="overflow:visible">
            <path
               id="path9725"
               d="m 3.484375,-3.875 -1.28125,-0.296875 c -0.625,-0.15625 -1,-0.6875 -1,-1.265625 0,-0.703125 0.53125,-1.3125 1.3125,-1.3125 1.65625,0 1.875,1.640625 1.9375,2.078125 0.015625,0.0625 0.015625,0.125 0.125,0.125 0.125,0 0.125,-0.046875 0.125,-0.234375 l 0,-2 c 0,-0.171875 0,-0.25 -0.109375,-0.25 -0.0625,0 -0.078125,0.015625 -0.140625,0.140625 l -0.359375,0.5625 C 3.796875,-6.625 3.390625,-7.03125 2.5,-7.03125 c -1.109375,0 -1.9375,0.875 -1.9375,1.9375 0,0.828125 0.53125,1.5625 1.296875,1.828125 0.109375,0.03125 0.625,0.15625 1.328125,0.328125 0.265625,0.0625 0.5625,0.140625 0.84375,0.5 0.203125,0.265625 0.3125,0.59375 0.3125,0.921875 0,0.703125 -0.5,1.421875 -1.34375,1.421875 -0.28125,0 -1.046875,-0.046875 -1.578125,-0.53125 C 0.84375,-1.171875 0.8125,-1.796875 0.8125,-2.15625 0.796875,-2.265625 0.71875,-2.265625 0.6875,-2.265625 c -0.125,0 -0.125,0.078125 -0.125,0.25 l 0,2 c 0,0.171875 0,0.234375 0.109375,0.234375 0.0625,0 0.078125,-0.015625 0.140625,-0.125 0,-0.015625 0.03125,-0.046875 0.359375,-0.578125 0.3125,0.34375 0.953125,0.703125 1.84375,0.703125 1.15625,0 1.953125,-0.96875 1.953125,-2.078125 0,-0.984375 -0.65625,-1.8125 -1.484375,-2.015625 z"
               style="stroke:none"
               inkscape:connector-curvature="0" />
          </symbol>
          <symbol
             id="textext-d0bc194b-2"
             overflow="visible"
             style="overflow:visible">
            <path
               id="path9728"
               d="m 1.171875,-2.171875 c 0,-1.625 0.8125,-2.046875 1.34375,-2.046875 0.09375,0 0.71875,0.015625 1.0625,0.375 -0.40625,0.03125 -0.46875,0.328125 -0.46875,0.453125 0,0.265625 0.1875,0.453125 0.453125,0.453125 0.265625,0 0.46875,-0.15625 0.46875,-0.46875 0,-0.671875 -0.765625,-1.0625 -1.53125,-1.0625 -1.25,0 -2.15625,1.078125 -2.15625,2.3125 0,1.28125 0.984375,2.265625 2.140625,2.265625 1.328125,0 1.65625,-1.203125 1.65625,-1.296875 0,-0.09375 -0.109375,-0.09375 -0.140625,-0.09375 -0.078125,0 -0.109375,0.03125 -0.125,0.09375 -0.28125,0.921875 -0.9375,1.046875 -1.296875,1.046875 -0.53125,0 -1.40625,-0.421875 -1.40625,-2.03125 z"
               style="stroke:none"
               inkscape:connector-curvature="0" />
          </symbol>
          <symbol
             id="textext-d0bc194b-3"
             overflow="visible"
             style="overflow:visible">
            <path
               id="path9731"
               d="m 1.09375,-0.75 c 0,0.4375 -0.109375,0.4375 -0.78125,0.4375 l 0,0.3125 c 0.359375,-0.015625 0.859375,-0.03125 1.140625,-0.03125 0.25,0 0.765625,0.015625 1.109375,0.03125 l 0,-0.3125 c -0.671875,0 -0.78125,0 -0.78125,-0.4375 l 0,-1.84375 C 1.78125,-3.625 2.5,-4.1875 3.125,-4.1875 c 0.640625,0 0.75,0.53125 0.75,1.109375 l 0,2.328125 c 0,0.4375 -0.109375,0.4375 -0.78125,0.4375 l 0,0.3125 c 0.34375,-0.015625 0.859375,-0.03125 1.125,-0.03125 0.25,0 0.78125,0.015625 1.109375,0.03125 l 0,-0.3125 c -0.515625,0 -0.765625,0 -0.765625,-0.296875 l 0,-1.90625 c 0,-0.859375 0,-1.15625 -0.3125,-1.515625 -0.140625,-0.171875 -0.46875,-0.375 -1.046875,-0.375 -0.84375,0 -1.28125,0.59375 -1.453125,0.984375 l 0,-3.5 -1.4375,0.109375 0,0.3125 c 0.703125,0 0.78125,0.0625 0.78125,0.5625 z"
               style="stroke:none"
               inkscape:connector-curvature="0" />
          </symbol>
          <symbol
             id="textext-d0bc194b-4"
             overflow="visible"
             style="overflow:visible">
            <path
               id="path9734"
               d="M 1.765625,-4.40625 0.375,-4.296875 l 0,0.3125 c 0.640625,0 0.734375,0.0625 0.734375,0.546875 l 0,2.6875 c 0,0.4375 -0.109375,0.4375 -0.78125,0.4375 l 0,0.3125 C 0.640625,-0.015625 1.1875,-0.03125 1.421875,-0.03125 1.78125,-0.03125 2.125,-0.015625 2.46875,0 l 0,-0.3125 c -0.671875,0 -0.703125,-0.046875 -0.703125,-0.4375 z m 0.03125,-1.734375 c 0,-0.3125 -0.234375,-0.53125 -0.515625,-0.53125 -0.3125,0 -0.53125,0.265625 -0.53125,0.53125 0,0.265625 0.21875,0.53125 0.53125,0.53125 0.28125,0 0.515625,-0.21875 0.515625,-0.53125 z"
               style="stroke:none"
               inkscape:connector-curvature="0" />
          </symbol>
          <symbol
             id="textext-d0bc194b-5"
             overflow="visible"
             style="overflow:visible">
            <path
               id="path9737"
               d="m 1.671875,-3.3125 0,-1.09375 -1.390625,0.109375 0,0.3125 c 0.703125,0 0.78125,0.0625 0.78125,0.5625 l 0,2.671875 c 0,0.4375 -0.109375,0.4375 -0.78125,0.4375 l 0,0.3125 c 0.390625,-0.015625 0.859375,-0.03125 1.140625,-0.03125 0.390625,0 0.859375,0 1.265625,0.03125 l 0,-0.3125 -0.21875,0 c -0.734375,0 -0.75,-0.109375 -0.75,-0.46875 l 0,-1.53125 c 0,-0.984375 0.421875,-1.875 1.171875,-1.875 0.0625,0 0.09375,0 0.109375,0.015625 -0.03125,0 -0.234375,0.125 -0.234375,0.390625 0,0.265625 0.21875,0.421875 0.4375,0.421875 0.171875,0 0.421875,-0.125 0.421875,-0.4375 0,-0.3125 -0.3125,-0.609375 -0.734375,-0.609375 -0.734375,0 -1.09375,0.671875 -1.21875,1.09375 z"
               style="stroke:none"
               inkscape:connector-curvature="0" />
          </symbol>
          <symbol
             id="textext-d0bc194b-6"
             overflow="visible"
             style="overflow:visible">
            <path
               id="path9740"
               d="m 1.09375,-3.421875 0,2.671875 c 0,0.4375 -0.109375,0.4375 -0.78125,0.4375 l 0,0.3125 c 0.359375,-0.015625 0.859375,-0.03125 1.140625,-0.03125 0.25,0 0.765625,0.015625 1.109375,0.03125 l 0,-0.3125 c -0.671875,0 -0.78125,0 -0.78125,-0.4375 l 0,-1.84375 C 1.78125,-3.625 2.5,-4.1875 3.125,-4.1875 c 0.640625,0 0.75,0.53125 0.75,1.109375 l 0,2.328125 c 0,0.4375 -0.109375,0.4375 -0.78125,0.4375 l 0,0.3125 c 0.34375,-0.015625 0.859375,-0.03125 1.125,-0.03125 0.25,0 0.78125,0.015625 1.109375,0.03125 l 0,-0.3125 c -0.65625,0 -0.765625,0 -0.765625,-0.4375 l 0,-1.84375 c 0,-1.03125 0.703125,-1.59375 1.34375,-1.59375 0.625,0 0.734375,0.53125 0.734375,1.109375 l 0,2.328125 c 0,0.4375 -0.109375,0.4375 -0.78125,0.4375 l 0,0.3125 c 0.34375,-0.015625 0.859375,-0.03125 1.125,-0.03125 0.265625,0 0.78125,0.015625 1.125,0.03125 l 0,-0.3125 c -0.515625,0 -0.765625,0 -0.78125,-0.296875 l 0,-1.90625 c 0,-0.859375 0,-1.15625 -0.3125,-1.515625 -0.140625,-0.171875 -0.46875,-0.375 -1.046875,-0.375 -0.828125,0 -1.28125,0.59375 -1.4375,0.984375 C 4.390625,-4.296875 3.65625,-4.40625 3.203125,-4.40625 2.46875,-4.40625 2,-3.984375 1.71875,-3.359375 l 0,-1.046875 -1.40625,0.109375 0,0.3125 c 0.703125,0 0.78125,0.0625 0.78125,0.5625 z"
               style="stroke:none"
               inkscape:connector-curvature="0" />
          </symbol>
        </g>
      </defs>
      <g
         id="textext-d0bc194b-7">
        <g
           id="g9743"
           style="fill:#000000;fill-opacity:1">
          <use
             id="use9745"
             y="134.765"
             x="223.43201"
             xlink:href="#textext-d0bc194b-1"
             width="744.09448"
             height="1052.3622" />
          <use
             id="use9747"
             y="134.765"
             x="228.96722"
             xlink:href="#textext-d0bc194b-2"
             width="744.09448"
             height="1052.3622" />
        </g>
        <g
           id="g9749"
           style="fill:#000000;fill-opacity:1">
          <use
             id="use9751"
             y="134.765"
             x="233.11565"
             xlink:href="#textext-d0bc194b-3"
             width="744.09448"
             height="1052.3622" />
          <use
             id="use9753"
             y="134.765"
             x="238.65086"
             xlink:href="#textext-d0bc194b-4"
             width="744.09448"
             height="1052.3622" />
          <use
             id="use9755"
             y="134.765"
             x="241.41847"
             xlink:href="#textext-d0bc194b-5"
             width="744.09448"
             height="1052.3622" />
          <use
             id="use9757"
             y="134.765"
             x="245.32083"
             xlink:href="#textext-d0bc194b-6"
             width="744.09448"
             height="1052.3622" />
        </g>
      </g>
    </g>
  </g>
</svg>
