<svg xmlns:ns0="http://www.iki.fi/pav/software/textext/" xmlns="http://www.w3.org/2000/svg" xmlns:xlink="http://www.w3.org/1999/xlink" width="210mm" height="297mm"><title>Overhead-Projektor</title><defs><marker orient="auto" id="a" overflow="visible"><path d="M8.719 4.034L-2.207.016 8.719-4.002c-1.746 2.372-1.736 5.618 0 8.036z" transform="matrix(-.3 0 0 -.3 .69 0)" fill-rule="evenodd" stroke-width=".625" stroke-linejoin="round"/></marker></defs><path style="marker:none" color="#000" fill="#fff" stroke="#fff" stroke-linecap="round" stroke-linejoin="round" overflow="visible" d="M34.372 243.539h675.35v565.285H34.372z"/><path d="M275.974 366.015V613.82h-37.986V366.092" fill="#ccc" stroke="#333"/><path style="marker:none" color="#000" fill="#f9f9f9" stroke="gray" stroke-width="3" stroke-linecap="round" stroke-linejoin="round" overflow="visible" d="M154.786 613.82h202.717v168.501H154.786z"/><path d="M252.644 765.497s-.858-1.382-1.355-4.071c-.206-1.115-1.26-2.014-1.763-3.03-.77-1.551-1.42-3.33-1.323-5.059.093-1.631.523-3.492 1.251-4.68.796-1.298 2.08-2.223 3.38-2.766 1.947-.814 4.979-.863 6.946.206 1.985 1.078 2.99 2.624 3.59 3.71.815 1.48.718 2.74.687 4.177-.033 1.52-.924 3.104-1.506 4.508-.562 1.357-1.328 2-1.724 3.415-.237.85-.953 3.585-.953 3.585" fill="#fc0"/><path d="M256.648 772.938a.434.434 0 0 0 .157-.076c.028-.026.138-.048.245-.048.181 0 .225-.037.64-.533.245-.293.483-.533.529-.533.046 0 .32-.237.608-.527.49-.491.522-.537.488-.69-.029-.13-.012-.184.08-.26.323-.266.336-.336.104-.54-.204-.179-.215-.403-.026-.552.194-.153.172-.3-.06-.396-.145-.06-.179-.097-.134-.142.033-.033.06-.128.06-.21 0-.109.038-.168.133-.211.267-.122.219-.378-.083-.445-.145-.032-.223-.132-.103-.132.03 0 .054-.062.054-.138 0-.079.051-.18.12-.236.115-.093.119-.126.102-.788l-.017-.69.173-.061c.406-.142.753-.571.93-1.152.045-.147.117-.675.16-1.173.13-1.487.263-1.837 1.436-3.784 1.146-1.903 1.624-3 1.926-4.424.202-.95.238-2.505.08-3.435-.287-1.675-1.014-3.168-2.099-4.303-1.088-1.138-2.385-1.86-4.015-2.237-.553-.128-.778-.15-1.741-.17-1.452-.032-2.27.076-3.425.451-1.128.366-1.981.891-2.832 1.742-1.113 1.113-1.775 2.372-2.163 4.112-.105.47-.119.682-.118 1.786 0 1.096.016 1.319.12 1.785.263 1.184.622 2.11 1.249 3.221 1.906 3.379 1.957 3.503 2.143 5.157.046.415.123.883.17 1.04.191.648.574 1.17 1.007 1.373.277.13.293.211.098.494-.177.255-.177.422 0 .632.077.091.14.188.14.214 0 .026-.073.129-.16.23-.088.1-.16.218-.16.263 0 .045.072.15.16.233.194.184.202.332.026.498-.177.166-.177.395 0 .51a.269.269 0 0 1 .133.233.412.412 0 0 1-.133.27c-.171.16-.168.223.027.444.194.222.199.3.026.462-.073.068-.133.163-.133.21 0 .096 1.115 1.229 1.21 1.229.033 0 .283.252.554.56.272.308.529.56.572.56.043 0 .108.042.146.093.058.08.17.094.779.102.39.005.758-.004.817-.018zm.08-9.267v-1.785h.346l-.014 1.785-.015 1.786h-.317zm-.853.04v-1.745l.24-.011.24-.011v3.513h-.48v-1.746zm-.938 1.466c.016-.153.042-.735.058-1.292s.043-1.259.06-1.56l.033-.546h.36v1c.001.55.017 1.377.036 1.839l.035.84h-.611l.029-.28zm-1.771.165c-.417-.07-.709-.28-.925-.665-.182-.324-.272-.736-.39-1.77-.093-.83-.24-1.375-.557-2.062-.206-.444-.926-1.77-1.423-2.62-.442-.755-.954-1.842-1.134-2.41-.783-2.464-.436-5.14.938-7.22.336-.509 1.273-1.445 1.798-1.796 1.336-.892 3.094-1.337 4.989-1.263 2.07.081 3.735.752 5.06 2.037a6.936 6.936 0 0 1 1.415 1.902c.7 1.347.993 2.803.877 4.361-.136 1.837-.679 3.33-1.967 5.411-.719 1.161-1.184 2.084-1.355 2.692-.081.288-.15.736-.188 1.226-.075.975-.139 1.302-.316 1.629-.259.476-.395.522-1.734.588l-.686.034.036-1.752c.026-1.215.069-2.002.14-2.568.057-.45.104-.914.104-1.032 0-.293-.146-.581-.33-.65-.083-.032-.15-.072-.15-.09 0-.018.046-.211.102-.428.129-.502 1.98-4.685 2.147-4.854.169-.17.295-.56.22-.677a.209.209 0 0 0-.157-.089.352.352 0 0 1-.16-.039c-.1-.065-.762-.14-1.24-.143-.246 0-.456-.01-.467-.021-.011-.011.016-.122.06-.247s.066-.251.048-.28c-.045-.073-.103.004-.178.237-.056.175-.08.196-.193.167-.072-.017-.161-.007-.199.025-.046.038-.178.04-.412.008-.402-.058-.567-.04-1.357.144l-.586.136-.227-.15c-.214-.14-.226-.162-.226-.406 0-.2-.019-.257-.086-.257-.074 0-.08.055-.047.427.043.49.06.478-.51.373-.3-.055-1.184.046-1.285.147-.05.05.145.588.245.68.033.028.32.748.639 1.598.318.85.719 1.882.89 2.293.17.41.339.873.375 1.027l.064.282-.174.145c-.24.2-.276.447-.206 1.424.04.577.039 1.254-.005 2.426-.034.894-.061 1.755-.061 1.913v.286l-.44-.036a11.41 11.41 0 0 1-.776-.093zm2.72-4.32c-.013-.302.001-.375.093-.467.122-.122.155-.129.268-.057.055.034.085.171.099.447.022.432 0 .462-.311.442-.126-.008-.134-.026-.149-.365zm.834-.185c-.018-.434-.026-.46-.193-.608-.459-.41-1.074-.004-1.077.71l-.001.254h-.414l-.038-.619c-.022-.346-.018-.638.009-.665.025-.026.305-.105.62-.177l.574-.13.517.147c.516.147.518.148.537.329.01.1-.011.422-.047.716l-.065.533-.403-.038-.019-.452zm.117-1.638l-.184-.066.011-1.196.011-1.26c0-.034.102-.083.226-.107.192-.038.23-.067.243-.187.015-.126-.004-.143-.165-.158l-.181-.017.362-1.173c.2-.645.402-1.313.45-1.485l.089-.313.807.025c.795.024 1.135.094 1.08.224l-1.125 2.536c-.692 1.556-1.135 2.622-1.19 2.865-.097.418-.112.428-.434.312zm-1.846-.072c-.094-.417-.151-.586-.39-1.141a96.496 96.496 0 0 1-.988-2.545c-.556-1.477-.714-1.95-.662-1.983.139-.086.729-.111 1.116-.048l.396.064.403 1.34c.362 1.207.393 1.343.306 1.358-.16.028-.122.26.059.354.144.074.158.109.19.468.019.213.027.794.018 1.29l-.017.905-.133.037c-.229.063-.264.052-.298-.1zm.777-.351c0-.186-.015-.774-.035-1.307l-.035-.968h.657v2.553l-.227.02c-.124.012-.256.025-.293.03-.047.007-.066-.089-.066-.328zm-.718-3.81c-.199-.666-.374-1.252-.388-1.303-.017-.064.005-.094.07-.094a.331.331 0 0 0 .185-.081c.095-.086.96-.313 1.426-.375.15-.02.406-.02.569 0 .281.036.296.045.296.19 0 .157.134.342.212.294.054-.034-.682 2.438-.768 2.58-.011.017-.294.024-.63.015l-.609-.016-.363-1.21zm2.291-1.717c.048-.077.186-.065.186.016 0 .039-.029.099-.064.134-.05.05-.074.047-.11-.016-.024-.045-.03-.105-.012-.134zm-2.745 0c0-.029.022-.053.05-.053.028 0 .065.024.083.053.018.03-.004.054-.05.054s-.083-.024-.083-.054z" fill="#1a1a1a"/><path style="marker:none" d="M230.083 751.565l-14 30.756h80.125l-14-30.756s-11.71 16.631-26.063 16.631c-14.353 0-26.062-16.631-26.062-16.631z" color="#000" fill="#ccc" stroke="#999" stroke-width="3" stroke-linecap="round" stroke-linejoin="round" overflow="visible"/><path style="marker:none" d="M222.713 333.325l63.338-61.233 22.459-.065v89.342l-85.79-.141z" color="#000" fill="#f9f9f9" stroke="gray" stroke-width="3" stroke-linecap="round" stroke-linejoin="round" overflow="visible"/><g fill="#ececec" stroke="gray" stroke-width="1.77" stroke-linecap="round"><path d="M295.085 83.775c-19.388 33.499-19.165 66.838 0 100M295.02 83.775c19.39 33.499 19.166 66.838 0 100" transform="matrix(0 -.53917 .59196 0 177.791 520.139)"/></g><path fill="#b3b3b3" stroke="#000" stroke-linejoin="round" d="M287.814 278.286L229.96 336.14l-4.505-4.505 57.854-57.854z"/><path d="M280.26 287.517l349.4-18.186" fill="none" stroke="#f60" stroke-width="3" stroke-linecap="round" marker-end="url(#a)"/><path d="M174.607 614.198l105.654-326.681" fill="none" stroke="#d40000" stroke-width="3" stroke-linecap="round" marker-end="url(#a)"/><path style="marker:none" color="#000" fill="#f9f9f9" stroke="gray" stroke-linecap="round" stroke-linejoin="round" overflow="visible" d="M633.2 196.063h15.112V478.66H633.2z"/><path d="M245.283 322.85l384.798 82.632" fill="none" stroke="#f60" stroke-width="3" stroke-linecap="round" marker-end="url(#a)"/><path d="M338.722 613.82L245.75 326.257" fill="none" stroke="#d40000" stroke-width="3" stroke-linecap="round" marker-end="url(#a)"/><path d="M274.849 761.203l-100.75-147.005M237.465 760.825l100.75-147.005M247.863 753.872l-9.633 6.442M264.057 753.984l9.745 6.55" fill="none" stroke="#f60" stroke-width="3" stroke-linecap="round" marker-end="url(#a)"/><g transform="matrix(3 0 0 3 -515.202 -102.731)" ns0:text="Spiegel" ns0:preamble="/home/waldgeist/data/sphinx/inkscape-preamble.tex"><defs><symbol overflow="visible" id="b"><path d="M3.484-3.875l-1.28-.297c-.626-.156-1-.687-1-1.266 0-.703.53-1.312 1.312-1.312 1.656 0 1.875 1.64 1.937 2.078.016.063.016.125.125.125.125 0 .125-.047.125-.234v-2c0-.172 0-.25-.11-.25-.062 0-.077.015-.14.14l-.36.563c-.296-.297-.702-.703-1.593-.703-1.11 0-1.938.875-1.938 1.937 0 .828.532 1.563 1.297 1.828.11.032.625.157 1.329.329.265.062.562.14.843.5.203.265.313.593.313.921 0 .704-.5 1.422-1.344 1.422-.281 0-1.047-.047-1.578-.531-.578-.547-.61-1.172-.61-1.531-.015-.11-.093-.11-.125-.11-.125 0-.125.079-.125.25v2c0 .172 0 .235.11.235.062 0 .078-.016.14-.125 0-.016.032-.047.36-.578.312.343.953.703 1.844.703 1.156 0 1.953-.969 1.953-2.078 0-.985-.657-1.813-1.485-2.016z"/></symbol><symbol overflow="visible" id="c"><path d="M1.719-3.75v-.656l-1.438.11v.312c.703 0 .781.062.781.5v4.656c0 .453-.109.453-.78.453v.313c.343-.016.859-.032 1.109-.032.28 0 .78.016 1.125.032v-.313c-.657 0-.766 0-.766-.453V-.594c.047.172.469.703 1.219.703 1.187 0 2.219-.984 2.219-2.265 0-1.266-.954-2.25-2.079-2.25-.78 0-1.203.437-1.39.656zm.031 2.61v-2.22c.281-.515.766-.796 1.281-.796.735 0 1.328.875 1.328 2C4.36-.953 3.672-.11 2.938-.11c-.407 0-.782-.204-1.047-.61-.141-.203-.141-.219-.141-.422z"/></symbol><symbol overflow="visible" id="d"><path d="M1.766-4.406l-1.391.11v.312c.64 0 .734.062.734.546V-.75c0 .438-.109.438-.78.438V0c.312-.016.859-.031 1.093-.031.36 0 .703.015 1.047.031v-.313c-.672 0-.703-.046-.703-.437zm.03-1.735a.514.514 0 0 0-.515-.53.537.537 0 0 0-.531.53c0 .266.219.532.531.532a.514.514 0 0 0 .516-.532z"/></symbol><symbol overflow="visible" id="e"><path d="M1.11-2.516C1.171-4 2.015-4.25 2.36-4.25c1.015 0 1.124 1.344 1.124 1.734zm0 .22h2.78c.22 0 .25 0 .25-.22 0-.984-.546-1.953-1.78-1.953C1.202-4.469.28-3.437.28-2.187.281-.86 1.328.108 2.47.108 3.688.11 4.14-1 4.14-1.187c0-.094-.079-.125-.141-.125-.078 0-.11.062-.125.14C3.531-.14 2.625-.14 2.531-.14c-.5 0-.89-.296-1.125-.671-.297-.47-.297-1.125-.297-1.485z"/></symbol><symbol overflow="visible" id="f"><path d="M2.219-1.719c-.875 0-.875-1-.875-1.218 0-.266.015-.594.156-.844.078-.11.313-.39.719-.39.86 0 .86.984.86 1.218 0 .265 0 .594-.157.844-.078.109-.313.39-.703.39zm-1.156.39c0-.03 0-.265.156-.468.39.281.812.313 1 .313.922 0 1.61-.688 1.61-1.454 0-.374-.157-.734-.407-.968.36-.344.719-.39.89-.39.032 0 .079 0 .11.015-.11.031-.172.14-.172.265 0 .172.14.282.297.282a.28.28 0 0 0 .281-.297c0-.172-.11-.485-.5-.485-.203 0-.64.063-1.062.47a1.652 1.652 0 0 0-1.047-.36c-.938 0-1.625.687-1.625 1.453 0 .437.219.812.469 1.031-.125.14-.313.469-.313.828 0 .313.14.688.453.89-.61.157-.922.595-.922.985 0 .719.985 1.266 2.203 1.266 1.172 0 2.204-.5 2.204-1.281 0-.344-.125-.86-.641-1.141-.531-.266-1.11-.266-1.719-.266-.25 0-.672 0-.75-.015-.312-.047-.516-.344-.516-.672zM2.5 1.829C1.484 1.828.797 1.312.797.781c0-.453.375-.828.812-.844h.594c.86 0 1.969 0 1.969.844 0 .547-.703 1.047-1.672 1.047z"/></symbol><symbol overflow="visible" id="g"><path d="M1.766-6.922l-1.438.11v.312c.703 0 .781.063.781.563V-.75c0 .438-.109.438-.78.438V0c.327-.016.859-.031 1.109-.031s.734.015 1.109.031v-.313c-.672 0-.781 0-.781-.437z"/></symbol></defs><use height="1052.362" width="744.094" xlink:href="#b" x="223.432" y="134.765"/><use height="1052.362" width="744.094" xlink:href="#c" x="228.967" y="134.765"/><use height="1052.362" width="744.094" xlink:href="#d" x="234.502" y="134.765"/><use height="1052.362" width="744.094" xlink:href="#e" x="237.27" y="134.765"/><use height="1052.362" width="744.094" xlink:href="#f" x="241.697" y="134.765"/><use height="1052.362" width="744.094" xlink:href="#e" x="246.679" y="134.765"/><use height="1052.362" width="744.094" xlink:href="#g" x="251.106" y="134.765"/></g><g transform="matrix(3 0 0 3 -139.057 -187.638)" ns0:preamble="/home/waldgeist/data/sphinx/inkscape-preamble.tex" ns0:text="Schirm"><defs><symbol id="h" overflow="visible"><path d="M3.484-3.875l-1.28-.297c-.626-.156-1-.687-1-1.266 0-.703.53-1.312 1.312-1.312 1.656 0 1.875 1.64 1.937 2.078.016.063.016.125.125.125.125 0 .125-.047.125-.234v-2c0-.172 0-.25-.11-.25-.062 0-.077.015-.14.14l-.36.563c-.296-.297-.702-.703-1.593-.703-1.11 0-1.938.875-1.938 1.937 0 .828.532 1.563 1.297 1.828.11.032.625.157 1.329.329.265.062.562.14.843.5.203.265.313.593.313.921 0 .704-.5 1.422-1.344 1.422-.281 0-1.047-.047-1.578-.531-.578-.547-.61-1.172-.61-1.531-.015-.11-.093-.11-.125-.11-.125 0-.125.079-.125.25v2c0 .172 0 .235.11.235.062 0 .078-.016.14-.125 0-.016.032-.047.36-.578.312.343.953.703 1.844.703 1.156 0 1.953-.969 1.953-2.078 0-.985-.657-1.813-1.485-2.016z"/></symbol><symbol id="i" overflow="visible"><path d="M1.172-2.172c0-1.625.812-2.047 1.344-2.047.093 0 .718.016 1.062.375-.406.031-.469.328-.469.453 0 .266.188.454.454.454.265 0 .468-.157.468-.47 0-.671-.765-1.062-1.531-1.062C1.25-4.469.344-3.39.344-2.156c0 1.281.984 2.265 2.14 2.265 1.329 0 1.657-1.203 1.657-1.296 0-.094-.11-.094-.141-.094-.078 0-.11.031-.125.093C3.594-.265 2.937-.14 2.578-.14c-.531 0-1.406-.421-1.406-2.03z"/></symbol><symbol id="j" overflow="visible"><path d="M1.094-.75c0 .438-.11.438-.782.438V0c.36-.016.86-.031 1.141-.031.25 0 .766.015 1.11.031v-.313c-.672 0-.782 0-.782-.437v-1.844c0-1.031.719-1.594 1.344-1.594.64 0 .75.532.75 1.11V-.75c0 .438-.11.438-.781.438V0c.344-.016.86-.031 1.125-.031.25 0 .781.015 1.11.031v-.313c-.516 0-.766 0-.766-.296v-1.907c0-.859 0-1.156-.313-1.515-.14-.172-.469-.375-1.047-.375-.844 0-1.281.593-1.453.984v-3.5l-1.438.11v.312c.704 0 .782.063.782.563z"/></symbol><symbol id="k" overflow="visible"><path d="M1.766-4.406l-1.391.11v.312c.64 0 .734.062.734.546V-.75c0 .438-.109.438-.78.438V0c.312-.016.859-.031 1.093-.031.36 0 .703.015 1.047.031v-.313c-.672 0-.703-.046-.703-.437zm.03-1.735a.514.514 0 0 0-.515-.53.537.537 0 0 0-.531.53c0 .266.219.532.531.532a.514.514 0 0 0 .516-.532z"/></symbol><symbol id="l" overflow="visible"><path d="M1.672-3.313v-1.093l-1.39.11v.312c.702 0 .78.062.78.562V-.75c0 .438-.109.438-.78.438V0c.39-.016.859-.031 1.14-.031.39 0 .86 0 1.266.031v-.313h-.22c-.734 0-.75-.109-.75-.468v-1.531c0-.985.423-1.876 1.173-1.876.062 0 .093 0 .109.016-.031 0-.234.125-.234.39 0 .266.218.423.437.423a.421.421 0 0 0 .422-.438c0-.312-.313-.61-.734-.61-.735 0-1.094.673-1.22 1.095z"/></symbol><symbol id="m" overflow="visible"><path d="M1.094-3.422V-.75c0 .438-.11.438-.782.438V0c.36-.016.86-.031 1.141-.031.25 0 .766.015 1.11.031v-.313c-.672 0-.782 0-.782-.437v-1.844c0-1.031.719-1.594 1.344-1.594.64 0 .75.532.75 1.11V-.75c0 .438-.11.438-.781.438V0c.344-.016.86-.031 1.125-.031.25 0 .781.015 1.11.031v-.313c-.657 0-.766 0-.766-.437v-1.844c0-1.031.703-1.594 1.343-1.594.625 0 .735.532.735 1.11V-.75c0 .438-.11.438-.782.438V0c.344-.016.86-.031 1.125-.031.266 0 .782.015 1.125.031v-.313c-.515 0-.765 0-.78-.296v-1.907c0-.859 0-1.156-.313-1.515-.141-.172-.47-.375-1.047-.375-.828 0-1.282.593-1.438.984-.14-.875-.875-.984-1.328-.984-.734 0-1.203.422-1.484 1.047v-1.047l-1.407.11v.312c.704 0 .782.062.782.562z"/></symbol></defs><use y="134.765" x="223.432" xlink:href="#h" width="744.094" height="1052.362"/><use y="134.765" x="228.967" xlink:href="#i" width="744.094" height="1052.362"/><g><use y="134.765" x="233.116" xlink:href="#j" width="744.094" height="1052.362"/><use y="134.765" x="238.651" xlink:href="#k" width="744.094" height="1052.362"/><use y="134.765" x="241.418" xlink:href="#l" width="744.094" height="1052.362"/><use y="134.765" x="245.321" xlink:href="#m" width="744.094" height="1052.362"/></g></g></svg>