<svg xmlns="http://www.w3.org/2000/svg" xmlns:xlink="http://www.w3.org/1999/xlink" height="744.094" width="1052.362"><title>Reflektionsgesetz an der Gradscheibe</title><defs><marker id="g" orient="auto" overflow="visible"><path d="M-4 0l-2 2 7-2-7-2 2 2z" fill-rule="evenodd" stroke="#000" stroke-width=".4pt"/></marker><marker id="f" orient="auto" overflow="visible"><path d="M2.308 0l-3.46 2v-4l3.46 2z" fill-rule="evenodd" stroke="#000" stroke-width=".4pt"/></marker><symbol id="i" overflow="visible"><path d="M4.75-2.36c0-1.562-.922-2.046-1.656-2.046-1.375 0-2.688 1.422-2.688 2.828C.406-.641 1 .109 2.031.109c.625 0 1.344-.234 2.094-.843.125.53.453.843.906.843.532 0 .844-.546.844-.703 0-.078-.063-.11-.125-.11-.063 0-.094.032-.125.11-.188.485-.547.485-.563.485-.312 0-.312-.782-.312-1.016 0-.203 0-.234.11-.344C5.796-2.656 6-3.812 6-3.812c0-.032-.016-.11-.125-.11-.094 0-.094.031-.14.219-.188.625-.516 1.375-.985 1.969zM4.094-.983c-.89.765-1.657.875-2.047.875-.594 0-.906-.454-.906-1.094 0-.484.265-1.563.578-2.063.468-.734 1.015-.921 1.36-.921.983 0 .983 1.312.983 2.078 0 .375 0 .953.032 1.125zm0 0"/></symbol><symbol id="j" overflow="visible"><path d="M2.016-3.297c.062-.11.062-.172.062-.219 0-.218-.187-.375-.406-.375-.266 0-.344.22-.375.329L.375-.547a.33.33 0 0 0-.047.11c0 .078.219.156.281.156.047 0 .047-.016.094-.125zm0 0"/></symbol><symbol overflow="visible" id="h"><path d="M4.75-2.36c0-1.562-.922-2.046-1.656-2.046-1.375 0-2.688 1.422-2.688 2.828C.406-.641 1 .109 2.031.109c.625 0 1.344-.234 2.094-.843.125.53.453.843.906.843.532 0 .844-.546.844-.703 0-.078-.063-.11-.125-.11-.063 0-.094.032-.125.11-.188.485-.547.485-.563.485-.312 0-.312-.782-.312-1.016 0-.203 0-.234.11-.344C5.796-2.656 6-3.812 6-3.812c0-.032-.016-.11-.125-.11-.094 0-.094.031-.14.219-.188.625-.516 1.375-.985 1.969zM4.094-.983c-.89.765-1.657.875-2.047.875-.594 0-.906-.454-.906-1.094 0-.484.265-1.563.578-2.063.468-.734 1.015-.921 1.36-.921.983 0 .983 1.312.983 2.078 0 .375 0 .953.032 1.125zm0 0"/></symbol></defs><g transform="translate(0 -308.268)"><path style="marker:none" color="#000" fill="#fff" stroke="#fff" stroke-width="2.043" stroke-linecap="round" stroke-linejoin="round" overflow="visible" d="M15.984 982.47V378.16h1020.394v604.31z"/><path d="M674.291 680.315c0 52.857-28.199 101.7-73.975 128.128-45.775 26.43-102.174 26.43-147.95 0-45.775-26.428-73.974-75.27-73.974-128.128 0-52.857 28.199-101.7 73.974-128.129 45.776-26.428 102.175-26.428 147.95 0 45.776 26.43 73.975 75.272 73.975 128.129" style="marker:none" color="#000" fill="none" stroke="#fff" stroke-width=".747" stroke-linecap="round" stroke-linejoin="round" overflow="visible"/><path d="M710.997 680.315c0 65.971-35.195 126.93-92.328 159.916-57.132 32.986-127.523 32.986-184.655 0-57.133-32.985-92.328-93.945-92.328-159.916s35.195-126.931 92.328-159.916c57.132-32.986 127.523-32.986 184.655 0 57.133 32.985 92.328 93.945 92.328 159.916" style="marker:none" color="#000" fill="none" stroke="#fff" stroke-width=".747" stroke-linecap="round" stroke-linejoin="round" overflow="visible"/><path style="marker:none" id="c" d="M722.498 680.315c0 70.08-37.387 134.836-98.078 169.876-60.691 35.04-135.466 35.04-196.157 0-60.69-35.04-98.078-99.796-98.078-169.876s37.387-134.837 98.078-169.877c60.691-35.04 135.466-35.04 196.157 0 60.69 35.04 98.078 99.797 98.078 169.877" color="#000" fill="none" stroke="#000" stroke-width=".747" stroke-linecap="round" stroke-linejoin="round" overflow="visible"/><g stroke-linecap="round" fill="none" stroke="#ccc"><path d="M526.341 553.013v254.603M399.04 680.315h254.603M462.69 570.069L589.993 790.56M416.095 616.664l220.493 127.302M416.095 743.966l220.493-127.302" stroke-width=".7501491800000001"/><path d="M462.69 790.561L589.993 570.07" stroke-width=".7472811500000001"/></g><path d="M526.341 511.349v47.315" id="a" fill="none" stroke="#000" stroke-width="4.483" stroke-linecap="round"/><use height="1052.362" width="744.094" transform="rotate(90 526.341 680.315)" xlink:href="#a"/><use height="1052.362" width="744.094" transform="rotate(-90 526.341 680.315)" xlink:href="#a"/><use height="1052.362" width="744.094" transform="rotate(180 526.341 680.315)" xlink:href="#a"/><path id="b" d="M526.341 511.349v47.315" fill="none" stroke="#000" stroke-width="1.494" stroke-linecap="round"/><use height="1052.362" width="744.094" transform="rotate(10 526.341 680.315)" xlink:href="#b"/><use height="1052.362" width="744.094" transform="rotate(20 526.341 680.315)" xlink:href="#c"/><use height="1052.362" width="744.094" transform="rotate(20 526.341 680.315)" xlink:href="#b"/><use height="1052.362" width="744.094" transform="rotate(30 526.341 680.315)" xlink:href="#b"/><use height="1052.362" width="744.094" transform="rotate(40 526.341 680.315)" xlink:href="#b"/><use height="1052.362" width="744.094" transform="rotate(50 526.341 680.315)" xlink:href="#b"/><g transform="translate(248.362 287.173) scale(.74716)" id="e"><path d="M372.047 269.648v15.393" id="d" fill="none" stroke="#000" stroke-linecap="round"/><use xlink:href="#d" transform="rotate(1 372.547 526.181)" width="744.094" height="1052.362"/><use xlink:href="#d" transform="rotate(2 372.547 526.181)" width="744.094" height="1052.362"/><use xlink:href="#d" transform="rotate(3 372.547 526.181)" width="744.094" height="1052.362"/><use xlink:href="#d" transform="rotate(4 372.547 526.181)" width="744.094" height="1052.362"/><use xlink:href="#d" transform="rotate(5 372.547 526.181)" width="744.094" height="1052.362"/><use xlink:href="#d" transform="rotate(6 372.547 526.181)" width="744.094" height="1052.362"/><use xlink:href="#d" transform="rotate(7 372.547 526.181)" width="744.094" height="1052.362"/><use xlink:href="#d" transform="rotate(8 372.547 526.181)" width="744.094" height="1052.362"/><use xlink:href="#d" transform="rotate(9 372.547 526.181)" width="744.094" height="1052.362"/></g><use height="1052.362" width="744.094" transform="rotate(-10 526.341 680.315)" xlink:href="#b"/><use height="1052.362" width="744.094" transform="rotate(-20 526.341 680.315)" xlink:href="#b"/><use height="1052.362" width="744.094" transform="rotate(-30 526.341 680.315)" xlink:href="#b"/><use height="1052.362" width="744.094" transform="rotate(-40 526.341 680.315)" xlink:href="#b"/><use height="1052.362" width="744.094" transform="rotate(-50 526.341 680.315)" xlink:href="#b"/><use height="1052.362" width="744.094" transform="rotate(-60 526.341 680.315)" xlink:href="#b"/><use height="1052.362" width="744.094" transform="rotate(-70 526.341 680.315)" xlink:href="#b"/><use height="1052.362" width="744.094" transform="rotate(-80 526.341 680.315)" xlink:href="#b"/><use height="1052.362" width="744.094" transform="rotate(-100 526.341 680.315)" xlink:href="#b"/><use height="1052.362" width="744.094" transform="rotate(-110 526.341 680.315)" xlink:href="#b"/><use height="1052.362" width="744.094" transform="rotate(-120 526.341 680.315)" xlink:href="#b"/><use height="1052.362" width="744.094" transform="rotate(-130 526.341 680.315)" xlink:href="#b"/><use height="1052.362" width="744.094" transform="rotate(10 526.341 680.315)" xlink:href="#e"/><use height="1052.362" width="744.094" transform="rotate(20 526.341 680.315)" xlink:href="#e"/><use height="1052.362" width="744.094" transform="rotate(30 526.341 680.315)" xlink:href="#e"/><use height="1052.362" width="744.094" transform="rotate(40 526.341 680.315)" xlink:href="#e"/><use height="1052.362" width="744.094" transform="rotate(50 526.341 680.315)" xlink:href="#e"/><use height="1052.362" width="744.094" transform="rotate(60 526.341 680.315)" xlink:href="#e"/><use height="1052.362" width="744.094" transform="rotate(60 526.341 680.315)" xlink:href="#b"/><use height="1052.362" width="744.094" transform="rotate(70 526.341 680.315)" xlink:href="#b"/><use height="1052.362" width="744.094" transform="rotate(80 526.341 680.315)" xlink:href="#b"/><use height="1052.362" width="744.094" transform="rotate(90 526.341 680.315)" xlink:href="#b"/><use height="1052.362" width="744.094" transform="rotate(-90 526.342 680.315)" xlink:href="#b"/><use height="1052.362" width="744.094" transform="rotate(-30 526.341 680.315)" xlink:href="#a"/><use height="1052.362" width="744.094" transform="rotate(-179.992 526.342 680.315)" xlink:href="#b"/><use height="1052.362" width="744.094" transform="rotate(100 526.341 680.315)" xlink:href="#b"/><use height="1052.362" width="744.094" transform="rotate(110 526.341 680.315)" xlink:href="#b"/><use height="1052.362" width="744.094" transform="rotate(170 526.341 680.315)" xlink:href="#b"/><use height="1052.362" width="744.094" transform="rotate(120 526.341 680.315)" xlink:href="#b"/><use height="1052.362" width="744.094" transform="rotate(130 526.341 680.315)" xlink:href="#b"/><use height="1052.362" width="744.094" transform="rotate(70 526.341 680.315)" xlink:href="#e"/><use height="1052.362" width="744.094" transform="rotate(80 526.341 680.315)" xlink:href="#e"/><use height="1052.362" width="744.094" transform="rotate(90 526.341 680.315)" xlink:href="#e"/><use height="1052.362" width="744.094" transform="rotate(100 526.341 680.315)" xlink:href="#e"/><use height="1052.362" width="744.094" transform="rotate(110 526.341 680.315)" xlink:href="#e"/><use height="1052.362" width="744.094" transform="rotate(120 526.341 680.315)" xlink:href="#e"/><use height="1052.362" width="744.094" transform="rotate(-10 526.341 680.315)" xlink:href="#e"/><use height="1052.362" width="744.094" transform="rotate(-20 526.341 680.315)" xlink:href="#e"/><use height="1052.362" width="744.094" transform="rotate(-30 526.341 680.315)" xlink:href="#e"/><use height="1052.362" width="744.094" transform="rotate(-40 526.341 680.315)" xlink:href="#e"/><use height="1052.362" width="744.094" transform="rotate(-50 526.341 680.315)" xlink:href="#e"/><use height="1052.362" width="744.094" transform="rotate(-60 526.341 680.315)" xlink:href="#e"/><use height="1052.362" width="744.094" transform="rotate(-70 526.341 680.315)" xlink:href="#e"/><use height="1052.362" width="744.094" transform="rotate(-80 526.341 680.315)" xlink:href="#e"/><use height="1052.362" width="744.094" transform="rotate(-100 526.341 680.315)" xlink:href="#e"/><use height="1052.362" width="744.094" transform="rotate(-90 526.341 680.315)" xlink:href="#e"/><use height="1052.362" width="744.094" transform="rotate(179.992 526.341 680.315)" xlink:href="#e"/><use height="1052.362" width="744.094" transform="rotate(-110 526.341 680.315)" xlink:href="#e"/><use height="1052.362" width="744.094" transform="rotate(-150 526.341 680.315)" xlink:href="#e"/><use height="1052.362" width="744.094" transform="rotate(-130 526.341 680.315)" xlink:href="#e"/><use height="1052.362" width="744.094" transform="rotate(-170 526.341 680.315)" xlink:href="#e"/><use height="1052.362" width="744.094" transform="rotate(-120 526.341 680.315)" xlink:href="#e"/><use height="1052.362" width="744.094" transform="rotate(-170 526.341 680.315)" xlink:href="#b"/><use height="1052.362" width="744.094" transform="rotate(-150 526.341 680.315)" xlink:href="#b"/><use height="1052.362" width="744.094" transform="rotate(-140 526.341 680.315)" xlink:href="#b"/><use height="1052.362" width="744.094" transform="rotate(-160 526.341 680.315)" xlink:href="#b"/><use height="1052.362" width="744.094" transform="rotate(-160 526.341 680.315)" xlink:href="#e"/><use height="1052.362" width="744.094" transform="rotate(-140 526.341 680.315)" xlink:href="#e"/><use height="1052.362" width="744.094" transform="rotate(160 526.341 680.315)" xlink:href="#b"/><use height="1052.362" width="744.094" transform="rotate(150 526.341 680.315)" xlink:href="#b"/><use height="1052.362" width="744.094" transform="rotate(140 526.341 680.315)" xlink:href="#b"/><use height="1052.362" width="744.094" transform="rotate(170 526.341 680.315)" xlink:href="#e"/><use height="1052.362" width="744.094" transform="rotate(130 526.341 680.315)" xlink:href="#e"/><use height="1052.362" width="744.094" transform="rotate(140 526.341 680.315)" xlink:href="#e"/><use height="1052.362" width="744.094" transform="rotate(150 526.341 680.315)" xlink:href="#e"/><use height="1052.362" width="744.094" transform="rotate(160 526.341 680.315)" xlink:href="#e"/><use xlink:href="#a" transform="rotate(-60 526.341 680.315)" width="744.094" height="1052.362"/><use xlink:href="#a" transform="rotate(-120 526.341 680.315)" width="744.094" height="1052.362"/><use xlink:href="#a" transform="rotate(-150 526.341 680.315)" width="744.094" height="1052.362"/><use xlink:href="#a" transform="rotate(150 526.342 680.315)" width="744.094" height="1052.362"/><use xlink:href="#a" transform="rotate(120 526.342 680.315)" width="744.094" height="1052.362"/><use xlink:href="#a" transform="rotate(60 526.342 680.315)" width="744.094" height="1052.362"/><use xlink:href="#a" transform="rotate(30 526.342 680.315)" width="744.094" height="1052.362"/><g stroke-linecap="round"><path d="M892.044 582.325l-365.703 97.99" fill="none" stroke="#f60" stroke-width="2.24148"/><g fill="#b3b3b3" color="#000" stroke="#000" stroke-width="2" stroke-linejoin="round"><path style="marker:none" overflow="visible" d="M1015.09 594.793L853.63 638.055l-22.719-84.787 161.459-43.263z" stroke-width="1.49432"/><path style="marker:none" overflow="visible" d="M847.73 616.034l-13.581 3.64-10.918-40.745 13.582-3.64z" stroke-width="1.49432"/></g></g><path d="M526.341 680.315l340.966 91.361" fill="none" stroke="#d40000" stroke-width="2.241" stroke-linecap="round" marker-end="url(#f)"/><path style="marker:none" d="M710.668 747.404C686.7 813.258 629.42 861.322 560.404 873.491c-69.016 12.17-139.28-13.405-184.327-67.09-45.047-53.683-58.031-127.322-34.062-193.176 23.968-65.853 81.249-113.917 150.264-126.087 69.016-12.169 139.28 13.406 184.327 67.09 45.047 53.684 58.031 127.323 34.062 193.176" color="#000" fill="none" stroke="#000" stroke-width=".747" stroke-linecap="round" stroke-linejoin="round" overflow="visible"/><path style="marker:none" color="#000" fill="#b3b3b3" stroke="#000" stroke-width="1.494" stroke-linecap="round" stroke-linejoin="round" overflow="visible" d="M513.715 777.769V582.861h9.486v194.908z"/><path style="marker:none" color="#000" fill="#f2f2f2" stroke="#000" stroke-width="1.494" stroke-linecap="round" stroke-linejoin="round" overflow="visible" d="M520.914 777.769V582.861h5.127v194.908z"/><path transform="scale(.74716 -.74716) rotate(24.222 3514.35 542.355)" d="M474.49 316.757c3.83 10.096 5.904 21.066 6.086 32.205" style="marker:none" color="#000" fill="none" stroke="#f60" stroke-linecap="round" stroke-linejoin="round" marker-end="url(#g)" overflow="visible"/><path style="marker:none" d="M474.49 316.757c3.83 10.096 5.904 21.066 6.086 32.205" transform="rotate(24.221 -544.698 1085.539) scale(.74716)" color="#000" fill="none" stroke="#d40000" stroke-linecap="round" stroke-linejoin="round" marker-end="url(#g)" overflow="visible"/><use height="744.094" width="1052.362" xlink:href="#h" x="223.432" y="134.765" transform="matrix(2.68394 0 0 2.68394 -.093 314.094)" fill="#f60" stroke="#f60"/><g fill="#d40000" stroke="#d40000"><use y="134.765" x="223.432" xlink:href="#i" width="1052.362" height="744.094" transform="matrix(2.68394 0 0 2.68394 -1.027 336.135)"/><use y="131.15" x="229.842" xlink:href="#j" width="1052.362" height="744.094" transform="matrix(2.68394 0 0 2.68394 -1.588 340.992)"/></g></g></svg>