<?xml version="1.0" encoding="UTF-8" standalone="no"?>
<!-- Created with Inkscape (http://www.inkscape.org/) -->

<svg
   xmlns:ns0="http://www.iki.fi/pav/software/textext/"
   xmlns:dc="http://purl.org/dc/elements/1.1/"
   xmlns:cc="http://creativecommons.org/ns#"
   xmlns:rdf="http://www.w3.org/1999/02/22-rdf-syntax-ns#"
   xmlns:svg="http://www.w3.org/2000/svg"
   xmlns="http://www.w3.org/2000/svg"
   xmlns:xlink="http://www.w3.org/1999/xlink"
   xmlns:sodipodi="http://sodipodi.sourceforge.net/DTD/sodipodi-0.dtd"
   xmlns:inkscape="http://www.inkscape.org/namespaces/inkscape"
   width="1052.3622"
   height="744.09448"
   id="svg2"
   version="1.1"
   inkscape:version="0.48.3.1 r9886"
   sodipodi:docname="reflexion-direkt-diffus.svg">
  <title
     id="title4211">Direkte und diffuse Reflektion</title>
  <sodipodi:namedview
     id="base"
     pagecolor="#ffffff"
     bordercolor="#666666"
     borderopacity="1.0"
     inkscape:pageopacity="0.0"
     inkscape:pageshadow="2"
     inkscape:zoom="0.36872058"
     inkscape:cx="915.83515"
     inkscape:cy="413.48786"
     inkscape:document-units="px"
     inkscape:current-layer="layer1"
     showgrid="false"
     inkscape:object-nodes="true"
     inkscape:object-paths="true"
     inkscape:snap-smooth-nodes="true"
     showguides="true"
     inkscape:guide-bbox="true"
     inkscape:snap-global="true"
     inkscape:window-width="1600"
     inkscape:window-height="1150"
     inkscape:window-x="0"
     inkscape:window-y="0"
     inkscape:window-maximized="1" />
  <defs
     id="defs4">
    <inkscape:path-effect
       is_visible="true"
       id="path-effect5432"
       effect="spiro" />
    <inkscape:path-effect
       effect="spiro"
       id="path-effect5248"
       is_visible="true" />
    <inkscape:path-effect
       effect="spiro"
       id="path-effect5246"
       is_visible="true" />
    <inkscape:path-effect
       is_visible="true"
       id="path-effect5244"
       effect="spiro" />
    <inkscape:path-effect
       effect="spiro"
       id="path-effect5196"
       is_visible="true" />
    <inkscape:path-effect
       is_visible="true"
       id="path-effect5194"
       effect="spiro" />
    <inkscape:path-effect
       effect="spiro"
       id="path-effect5192"
       is_visible="true" />
    <inkscape:path-effect
       effect="spiro"
       id="path-effect5190"
       is_visible="true" />
    <inkscape:path-effect
       is_visible="true"
       id="path-effect5188"
       effect="spiro" />
    <inkscape:path-effect
       is_visible="true"
       id="path-effect4664"
       effect="spiro" />
    <inkscape:path-effect
       effect="spiro"
       id="path-effect4660"
       is_visible="true" />
    <inkscape:path-effect
       is_visible="true"
       id="path-effect4656"
       effect="spiro" />
    <inkscape:path-effect
       is_visible="true"
       id="path-effect4652"
       effect="spiro" />
    <marker
       inkscape:stockid="Arrow1Mend"
       orient="auto"
       refY="0.0"
       refX="0.0"
       id="Arrow1Mend"
       style="overflow:visible;">
      <path
         id="path3854"
         d="M 0.0,0.0 L 5.0,-5.0 L -12.5,0.0 L 5.0,5.0 L 0.0,0.0 z "
         style="fill-rule:evenodd;stroke:#000000;stroke-width:1.0pt;marker-start:none;"
         transform="scale(0.4) rotate(180) translate(10,0)" />
    </marker>
    <inkscape:path-effect
       effect="spiro"
       id="path-effect3840"
       is_visible="true" />
    <inkscape:path-effect
       effect="spiro"
       id="path-effect3052"
       is_visible="true" />
  </defs>
  <metadata
     id="metadata7">
    <rdf:RDF>
      <cc:Work
         rdf:about="">
        <dc:format>image/svg+xml</dc:format>
        <dc:type
           rdf:resource="http://purl.org/dc/dcmitype/StillImage" />
        <dc:title>Direkte und diffuse Reflektion</dc:title>
        <cc:license
           rdf:resource="http://creativecommons.org/licenses/by-nc-sa/3.0/" />
        <dc:date>2011-01-18</dc:date>
        <dc:creator>
          <cc:Agent>
            <dc:title>Bernhard Grotz</dc:title>
          </cc:Agent>
        </dc:creator>
        <dc:rights>
          <cc:Agent>
            <dc:title>Bernhard Grotz</dc:title>
          </cc:Agent>
        </dc:rights>
        <dc:publisher>
          <cc:Agent>
            <dc:title>Bernhard Grotz</dc:title>
          </cc:Agent>
        </dc:publisher>
        <dc:language>de-DE</dc:language>
        <dc:subject>
          <rdf:Bag>
            <rdf:li>Physik</rdf:li>
            <rdf:li>Optik</rdf:li>
            <rdf:li>Lichtreflektion</rdf:li>
            <rdf:li>direkt</rdf:li>
            <rdf:li>diffus</rdf:li>
            <rdf:li>Oberflaeche</rdf:li>
          </rdf:Bag>
        </dc:subject>
      </cc:Work>
      <cc:License
         rdf:about="http://creativecommons.org/licenses/by-nc-sa/3.0/">
        <cc:permits
           rdf:resource="http://creativecommons.org/ns#Reproduction" />
        <cc:permits
           rdf:resource="http://creativecommons.org/ns#Distribution" />
        <cc:requires
           rdf:resource="http://creativecommons.org/ns#Notice" />
        <cc:requires
           rdf:resource="http://creativecommons.org/ns#Attribution" />
        <cc:prohibits
           rdf:resource="http://creativecommons.org/ns#CommercialUse" />
        <cc:permits
           rdf:resource="http://creativecommons.org/ns#DerivativeWorks" />
        <cc:requires
           rdf:resource="http://creativecommons.org/ns#ShareAlike" />
      </cc:License>
    </rdf:RDF>
  </metadata>
  <g
     inkscape:label="Ebene 1"
     inkscape:groupmode="layer"
     id="layer1"
     transform="translate(0,-308.2677)">
    <rect
       style="fill:#ffffff;stroke:#ffffff;stroke-width:1;stroke-linecap:butt;stroke-linejoin:round;stroke-miterlimit:4;stroke-opacity:1;stroke-dasharray:none;stroke-dashoffset:0"
       id="rect5478"
       width="1026.0358"
       height="377.80884"
       x="13.16318"
       y="479.28873"
       inkscape:export-filename="/home/waldgeist/data/pics/physik/Own/optik/reflexion-direkt-diffus.png"
       inkscape:export-xdpi="150"
       inkscape:export-ydpi="150" />
    <rect
       transform="scale(-1,-1)"
       inkscape:export-ydpi="150"
       inkscape:export-xdpi="150"
       inkscape:export-filename="/home/waldgeist/data/pics/physik/Own/optik/reflexion-direkt-diffus.png"
       y="-749.61798"
       x="-1012.0588"
       height="231.4846"
       width="431.34305"
       id="rect14033"
       style="color:#000000;fill:#f9f9f9;fill-opacity:1;fill-rule:nonzero;stroke:#f9f9f9;stroke-width:0.42732143;stroke-linecap:round;stroke-linejoin:miter;stroke-miterlimit:4;stroke-opacity:1;stroke-dasharray:1.28196478, 2.56392958;stroke-dashoffset:0;marker:none;visibility:visible;display:inline;overflow:visible;enable-background:accumulate" />
    <rect
       style="color:#000000;fill:#f9f9f9;fill-opacity:1;fill-rule:nonzero;stroke:#f9f9f9;stroke-width:0.42732146;stroke-linecap:round;stroke-linejoin:miter;stroke-miterlimit:4;stroke-opacity:1;stroke-dasharray:1.28196478, 2.56392961;stroke-dashoffset:0;marker:none;visibility:visible;display:inline;overflow:visible;enable-background:accumulate"
       id="rect5624"
       width="429.1311"
       height="231.46451"
       x="-469.43469"
       y="-749.5979"
       inkscape:export-filename="/home/waldgeist/data/pics/physik/Own/optik/reflexion-direkt-diffus.png"
       inkscape:export-xdpi="150"
       inkscape:export-ydpi="150"
       transform="scale(-1,-1)" />
    <g
       style="stroke-width:1.33039224;stroke-miterlimit:4;stroke-dasharray:none"
       id="g5464"
       transform="matrix(1.6061177,0,0,1.6061177,-347.97965,-483.9648)"
       inkscape:export-filename="/home/waldgeist/data/pics/physik/Own/optik/reflexion-direkt-diffus.png"
       inkscape:export-xdpi="150"
       inkscape:export-ydpi="150">
      <rect
         style="fill:#b3b3b3;fill-opacity:1;stroke:#000000;stroke-width:1.2452389;stroke-linecap:square;stroke-linejoin:round;stroke-miterlimit:4;stroke-opacity:1;stroke-dasharray:none;stroke-dashoffset:0"
         id="rect3056"
         width="267.18533"
         height="17.69253"
         x="241.75267"
         y="750.34753" />
      <g
         style="stroke-width:1.33039224;stroke-miterlimit:4;stroke-dasharray:none"
         transform="translate(21.405769,0)"
         id="g5210">
        <g
           style="stroke-width:1.33039224;stroke-miterlimit:4;stroke-dasharray:none"
           id="g5176"
           transform="translate(-343.57143,0)">
          <path
             style="fill:#ff7f2a;stroke:#ff7f2a;stroke-width:1.2452389;stroke-linecap:square;stroke-linejoin:miter;stroke-miterlimit:4;stroke-opacity:1;stroke-dasharray:none;marker-start:none;marker-end:url(#Arrow1Mend)"
             d="m 680.61755,642.5091 61.23691,106.07609"
             id="path5178"
             inkscape:path-effect="#path-effect5194"
             inkscape:original-d="m 680.61755,642.5091 61.23691,106.07609"
             inkscape:connector-curvature="0" />
          <path
             inkscape:connector-curvature="0"
             inkscape:original-d="m 618.73474,642.5091 61.25194,106.10196"
             inkscape:path-effect="#path-effect5190"
             id="path5180"
             d="m 618.73474,642.5091 61.25194,106.10196"
             style="fill:#ff7f2a;stroke:#ff7f2a;stroke-width:1.2452389;stroke-linecap:square;stroke-linejoin:miter;stroke-miterlimit:4;stroke-opacity:1;stroke-dasharray:none;marker-start:none;marker-end:url(#Arrow1Mend)" />
          <path
             inkscape:connector-curvature="0"
             inkscape:original-d="m 649.67615,642.5091 61.25194,106.10196"
             inkscape:path-effect="#path-effect5192"
             id="path5182"
             d="m 649.67615,642.5091 61.25194,106.10196"
             style="fill:#ff7f2a;stroke:#ff7f2a;stroke-width:1.2452389;stroke-linecap:square;stroke-linejoin:miter;stroke-miterlimit:4;stroke-opacity:1;stroke-dasharray:none;marker-start:none;marker-end:url(#Arrow1Mend)" />
          <path
             style="fill:#ff7f2a;stroke:#ff7f2a;stroke-width:1.2452389;stroke-linecap:square;stroke-linejoin:miter;stroke-miterlimit:4;stroke-opacity:1;stroke-dasharray:none;marker-start:none;marker-end:url(#Arrow1Mend)"
             d="m 590.94257,642.50911 61.12825,105.88902"
             id="path5184"
             inkscape:path-effect="#path-effect5188"
             inkscape:original-d="m 590.94257,642.50911 61.12825,105.88902"
             inkscape:connector-curvature="0" />
        </g>
        <g
           style="stroke-width:1.33039224;stroke-miterlimit:4;stroke-dasharray:none"
           transform="matrix(1,0,0,-1,-281.57143,1391.7482)"
           id="g5198">
          <path
             inkscape:connector-curvature="0"
             inkscape:original-d="m 680.61755,642.5091 61.23691,106.07609"
             inkscape:path-effect="#path-effect5194"
             id="path5200"
             d="m 680.61755,642.5091 61.23691,106.07609"
             style="fill:#ff0000;stroke:#d40000;stroke-width:1.2452389;stroke-linecap:square;stroke-linejoin:miter;stroke-miterlimit:4;stroke-opacity:1;stroke-dasharray:none;marker-start:none;marker-end:url(#Arrow1Mend)" />
          <path
             style="fill:#ff0000;stroke:#d40000;stroke-width:1.2452389;stroke-linecap:square;stroke-linejoin:miter;stroke-miterlimit:4;stroke-opacity:1;stroke-dasharray:none;marker-start:none;marker-end:url(#Arrow1Mend)"
             d="m 618.73474,642.5091 61.25194,106.10196"
             id="path5202"
             inkscape:path-effect="#path-effect5190"
             inkscape:original-d="m 618.73474,642.5091 61.25194,106.10196"
             inkscape:connector-curvature="0" />
          <path
             style="fill:#ff0000;stroke:#d40000;stroke-width:1.2452389;stroke-linecap:square;stroke-linejoin:miter;stroke-miterlimit:4;stroke-opacity:1;stroke-dasharray:none;marker-start:none;marker-end:url(#Arrow1Mend)"
             d="m 649.67615,642.5091 61.25194,106.10196"
             id="path5204"
             inkscape:path-effect="#path-effect5192"
             inkscape:original-d="m 649.67615,642.5091 61.25194,106.10196"
             inkscape:connector-curvature="0" />
          <path
             inkscape:connector-curvature="0"
             inkscape:original-d="m 590.94257,642.50911 61.12825,105.88902"
             inkscape:path-effect="#path-effect5188"
             id="path5206"
             d="m 590.94257,642.50911 61.12825,105.88902"
             style="fill:#ff0000;stroke:#d40000;stroke-width:1.2452389;stroke-linecap:square;stroke-linejoin:miter;stroke-miterlimit:4;stroke-opacity:1;stroke-dasharray:none;marker-start:none;marker-end:url(#Arrow1Mend)" />
        </g>
      </g>
    </g>
    <g
       style="stroke-width:1.33039224;stroke-miterlimit:4;stroke-dasharray:none"
       id="g5450"
       transform="matrix(1.6061177,0,0,1.6061177,-347.97965,-483.9648)"
       inkscape:export-filename="/home/waldgeist/data/pics/physik/Own/optik/reflexion-direkt-diffus.png"
       inkscape:export-xdpi="150"
       inkscape:export-ydpi="150">
      <path
         sodipodi:nodetypes="ccccccccccccccccccccccccccccccccccccccccccccccccccccccc"
         inkscape:connector-curvature="0"
         id="rect3054"
         d="m 639.53615,740.86506 -0.21875,0.5 -8.34375,15.34375 -19.90625,-12.5625 -0.40625,-0.25 -0.28125,0.40625 -5.125,7.1875 -21.46875,-5.96875 -0.28125,-0.0625 -0.21875,0.21875 -4.90625,5.34375 -0.125,0.15625 0,0.1875 0,10.4375 -0.0312,0 0,6.25 268.5625,0 0,-5.53125 0,-0.71875 0,-16.875 0,-0.40625 -0.40625,-0.0625 -3.5625,-0.71875 -0.1875,-0.0312 -0.15625,0.0625 -8.375,4.1875 -11.5625,-4.5625 -0.28125,-0.0937 -0.21875,0.1875 -9.0625,7.65625 -18.65625,-8.8125 -0.25,-0.0937 -0.21875,0.125 -6.1875,3.78125 -8.6875,-4.5 -0.375,-0.21875 -0.25,0.34375 -9.34375,12.46875 -12.8125,-10.0625 -0.25,-0.1875 -0.28125,0.15625 -25.09375,12.71875 -3.0625,-6.625 -0.125,-0.0937 -0.1875,0 -22.0625,0.71875 -0.0625,0 -0.0937,0.0312 -11.21875,3.875 -22,-9.59375 -0.34375,-0.125 -0.25,0.28125 -6.5,7.90625 -24.65625,-12.09375 z"
         style="fill:#b3b3b3;fill-opacity:1;stroke:#000000;stroke-width:1.2452389;stroke-linecap:butt;stroke-linejoin:round;stroke-miterlimit:4;stroke-opacity:1;stroke-dasharray:none;stroke-dashoffset:0" />
      <g
         style="stroke-width:1.33039224;stroke-miterlimit:4;stroke-dasharray:none"
         transform="translate(-31.000003,0)"
         id="g5232">
        <g
           style="stroke-width:1.33039224;stroke-miterlimit:4;stroke-dasharray:none"
           id="g5169"
           transform="translate(45.483165,0)">
          <path
             inkscape:connector-curvature="0"
             inkscape:original-d="m 680.61755,642.5091 58.24526,100.92554"
             inkscape:path-effect="#path-effect5432"
             id="path3838"
             d="m 680.61755,642.5091 58.24526,100.92554"
             style="fill:#ff7f2a;stroke:#ff9955;stroke-width:1.2452389;stroke-linecap:square;stroke-linejoin:miter;stroke-miterlimit:4;stroke-opacity:1;stroke-dasharray:none;marker-start:none;marker-end:url(#Arrow1Mend)" />
          <path
             style="fill:#ff7f2a;stroke:#ff9955;stroke-width:1.2452389;stroke-linecap:square;stroke-linejoin:miter;stroke-miterlimit:4;stroke-opacity:1;stroke-dasharray:none;marker-start:none;marker-end:url(#Arrow1Mend)"
             d="m 618.73474,642.10975 63.20704,109.46791"
             id="path4650"
             inkscape:path-effect="#path-effect5246"
             inkscape:original-d="m 618.73474,642.10975 63.20704,109.46791"
             inkscape:connector-curvature="0" />
          <path
             style="fill:#ff7f2a;stroke:#ff9955;stroke-width:1.2452389;stroke-linecap:butt;stroke-linejoin:miter;stroke-miterlimit:4;stroke-opacity:1;stroke-dasharray:none;marker-start:none;marker-end:url(#Arrow1Mend)"
             d="m 649.6762,642.50908 61.14149,105.91181"
             id="path4654"
             inkscape:path-effect="#path-effect5248"
             inkscape:original-d="m 649.6762,642.50908 61.14149,105.91181"
             inkscape:connector-curvature="0" />
          <path
             inkscape:connector-curvature="0"
             inkscape:original-d="m 590.94253,642.50913 60.93344,105.5198"
             inkscape:path-effect="#path-effect5244"
             id="path4658"
             d="m 590.94253,642.50913 60.93344,105.5198"
             style="fill:#ff7f2a;stroke:#ff9955;stroke-width:1.2452389;stroke-linecap:butt;stroke-linejoin:miter;stroke-miterlimit:4;stroke-opacity:1;stroke-dasharray:none;marker-start:none;marker-end:url(#Arrow1Mend)" />
        </g>
        <g
           style="stroke-width:1.33039224;stroke-miterlimit:4;stroke-dasharray:none"
           transform="matrix(1,0,0,-1,107.48317,1393.4074)"
           id="g5222">
          <path
             inkscape:transform-center-x="25.493043"
             inkscape:transform-center-y="-57.130058"
             style="fill:#d40000;stroke:#d40000;stroke-width:1.2452389;stroke-linecap:square;stroke-linejoin:miter;stroke-miterlimit:4;stroke-opacity:1;stroke-dasharray:none;marker-start:none;marker-end:url(#Arrow1Mend)"
             d="M 677.45799,649.41878 626.6144,763.08234"
             id="path5224"
             inkscape:path-effect="#path-effect3840"
             inkscape:original-d="M 677.45799,649.41878 626.6144,763.08234"
             inkscape:connector-curvature="0" />
          <path
             inkscape:transform-center-y="-62.218791"
             inkscape:transform-center-x="11.374562"
             inkscape:connector-curvature="0"
             inkscape:original-d="M 620.7515,640.831 598.47803,763.33956"
             inkscape:path-effect="#path-effect4652"
             id="path5226"
             d="M 620.7515,640.831 598.47803,763.33956"
             style="fill:#d40000;stroke:#d40000;stroke-width:1.2452389;stroke-linecap:square;stroke-linejoin:miter;stroke-miterlimit:4;stroke-opacity:1;stroke-dasharray:none;marker-start:none;marker-end:url(#Arrow1Mend)" />
          <path
             inkscape:transform-center-x="-31.24173"
             inkscape:transform-center-y="-54.194616"
             inkscape:connector-curvature="0"
             inkscape:original-d="m 650.07418,643.83965 62.25846,107.83481"
             inkscape:path-effect="#path-effect4656"
             id="path5228"
             d="m 650.07418,643.83965 62.25846,107.83481"
             style="fill:#d40000;stroke:#d40000;stroke-width:1.2452389;stroke-linecap:square;stroke-linejoin:miter;stroke-miterlimit:4;stroke-opacity:1;stroke-dasharray:none;marker-start:none;marker-end:url(#Arrow1Mend)" />
          <path
             inkscape:transform-center-y="-24.264553"
             inkscape:transform-center-x="54.758195"
             style="fill:#d40000;stroke:#d40000;stroke-width:1.2452389;stroke-linecap:square;stroke-linejoin:miter;stroke-miterlimit:4;stroke-opacity:1;stroke-dasharray:none;marker-start:none;marker-end:url(#Arrow1Mend)"
             d="m 590.2855,643.69266 -108.14879,47.7436"
             id="path5230"
             inkscape:path-effect="#path-effect4660"
             inkscape:original-d="m 590.2855,643.69266 -108.14879,47.7436"
             inkscape:connector-curvature="0" />
        </g>
      </g>
    </g>
    <g
       style="fill:#000000;stroke:#000000;stroke-width:0.48103464"
       transform="matrix(2.07923,0,0,2.078475,-280.75777,502.28649)"
       ns0:text="Glatter Spiegel"
       ns0:preamble=""
       id="g41455"
       inkscape:export-filename="/home/waldgeist/data/pics/physik/Own/optik/reflexion-direkt-diffus.png"
       inkscape:export-xdpi="150"
       inkscape:export-ydpi="150">
      <defs
         id="defs41457">
        <g
           id="g41459">
          <symbol
             style="overflow:visible"
             overflow="visible"
             id="textext-eee544ff-0">
            <path
               inkscape:connector-curvature="0"
               style="stroke:none"
               d="m 5.90625,-0.625 c 0.140625,0.21875 0.53125,0.609375 0.640625,0.609375 0.09375,0 0.09375,-0.078125 0.09375,-0.21875 l 0,-1.734375 c 0,-0.390625 0.03125,-0.4375 0.6875,-0.4375 l 0,-0.3125 c -0.375,0 -0.921875,0.03125 -1.21875,0.03125 -0.390625,0 -1.25,0 -1.609375,-0.03125 l 0,0.3125 0.328125,0 C 5.71875,-2.40625 5.75,-2.296875 5.75,-1.9375 l 0,0.640625 c 0,1.125 -1.265625,1.203125 -1.546875,1.203125 -0.640625,0 -2.625,-0.34375 -2.625,-3.3125 0,-2.984375 1.96875,-3.3125 2.5625,-3.3125 1.078125,0 1.984375,0.890625 2.171875,2.359375 0.03125,0.140625 0.03125,0.171875 0.171875,0.171875 0.15625,0 0.15625,-0.03125 0.15625,-0.234375 l 0,-2.359375 c 0,-0.171875 0,-0.25 -0.109375,-0.25 -0.046875,0 -0.078125,0 -0.15625,0.125 l -0.5,0.734375 C 5.546875,-6.484375 5.015625,-7.03125 4.03125,-7.03125 c -1.859375,0 -3.46875,1.578125 -3.46875,3.625 0,2.046875 1.59375,3.625 3.484375,3.625 0.734375,0 1.53125,-0.265625 1.859375,-0.84375 z m 0,0"
               id="path41462" />
          </symbol>
          <symbol
             style="overflow:visible"
             overflow="visible"
             id="textext-eee544ff-1">
            <path
               inkscape:connector-curvature="0"
               style="stroke:none"
               d="m 1.765625,-6.921875 -1.4375,0.109375 0,0.3125 c 0.703125,0 0.78125,0.0625 0.78125,0.5625 l 0,5.1875 c 0,0.4375 -0.109375,0.4375 -0.78125,0.4375 l 0,0.3125 C 0.65625,-0.015625 1.1875,-0.03125 1.4375,-0.03125 c 0.25,0 0.734375,0.015625 1.109375,0.03125 l 0,-0.3125 c -0.671875,0 -0.78125,0 -0.78125,-0.4375 z m 0,0"
               id="path41465" />
          </symbol>
          <symbol
             style="overflow:visible"
             overflow="visible"
             id="textext-eee544ff-2">
            <path
               inkscape:connector-curvature="0"
               style="stroke:none"
               d="m 3.3125,-0.75 c 0.046875,0.390625 0.3125,0.8125 0.78125,0.8125 0.21875,0 0.828125,-0.140625 0.828125,-0.953125 l 0,-0.5625 -0.25,0 0,0.5625 c 0,0.578125 -0.25,0.640625 -0.359375,0.640625 -0.328125,0 -0.375,-0.453125 -0.375,-0.5 l 0,-1.984375 c 0,-0.421875 0,-0.8125 -0.359375,-1.1875 C 3.1875,-4.3125 2.6875,-4.46875 2.21875,-4.46875 c -0.828125,0 -1.515625,0.46875 -1.515625,1.125 0,0.296875 0.203125,0.46875 0.46875,0.46875 0.28125,0 0.453125,-0.203125 0.453125,-0.453125 0,-0.125 -0.046875,-0.453125 -0.515625,-0.453125 C 1.390625,-4.140625 1.875,-4.25 2.1875,-4.25 c 0.5,0 1.0625,0.390625 1.0625,1.28125 l 0,0.359375 c -0.515625,0.03125 -1.203125,0.0625 -1.828125,0.359375 -0.75,0.34375 -1,0.859375 -1,1.296875 0,0.8125 0.96875,1.0625 1.59375,1.0625 0.65625,0 1.109375,-0.40625 1.296875,-0.859375 z M 3.25,-2.390625 l 0,1 c 0,0.9375 -0.71875,1.28125 -1.171875,1.28125 -0.484375,0 -0.890625,-0.34375 -0.890625,-0.84375 0,-0.546875 0.421875,-1.375 2.0625,-1.4375 z m 0,0"
               id="path41468" />
          </symbol>
          <symbol
             style="overflow:visible"
             overflow="visible"
             id="textext-eee544ff-3">
            <path
               inkscape:connector-curvature="0"
               style="stroke:none"
               d="m 1.71875,-3.984375 1.4375,0 0,-0.3125 -1.4375,0 0,-1.828125 -0.25,0 c 0,0.8125 -0.296875,1.875 -1.28125,1.921875 l 0,0.21875 0.84375,0 0,2.75 c 0,1.21875 0.9375,1.34375 1.296875,1.34375 0.703125,0 0.984375,-0.703125 0.984375,-1.34375 l 0,-0.5625 -0.25,0 0,0.546875 c 0,0.734375 -0.296875,1.109375 -0.671875,1.109375 -0.671875,0 -0.671875,-0.90625 -0.671875,-1.078125 z m 0,0"
               id="path41471" />
          </symbol>
          <symbol
             style="overflow:visible"
             overflow="visible"
             id="textext-eee544ff-4">
            <path
               inkscape:connector-curvature="0"
               style="stroke:none"
               d="M 1.109375,-2.515625 C 1.171875,-4 2.015625,-4.25 2.359375,-4.25 c 1.015625,0 1.125,1.34375 1.125,1.734375 z m 0,0.21875 2.78125,0 c 0.21875,0 0.25,0 0.25,-0.21875 0,-0.984375 -0.546875,-1.953125 -1.78125,-1.953125 -1.15625,0 -2.078125,1.03125 -2.078125,2.28125 0,1.328125 1.046875,2.296875 2.1875,2.296875 C 3.6875,0.109375 4.140625,-1 4.140625,-1.1875 4.140625,-1.28125 4.0625,-1.3125 4,-1.3125 c -0.078125,0 -0.109375,0.0625 -0.125,0.140625 -0.34375,1.03125 -1.25,1.03125 -1.34375,1.03125 -0.5,0 -0.890625,-0.296875 -1.125,-0.671875 -0.296875,-0.46875 -0.296875,-1.125 -0.296875,-1.484375 z m 0,0"
               id="path41474" />
          </symbol>
          <symbol
             style="overflow:visible"
             overflow="visible"
             id="textext-eee544ff-5">
            <path
               inkscape:connector-curvature="0"
               style="stroke:none"
               d="m 1.671875,-3.3125 0,-1.09375 -1.390625,0.109375 0,0.3125 c 0.703125,0 0.78125,0.0625 0.78125,0.5625 l 0,2.671875 c 0,0.4375 -0.109375,0.4375 -0.78125,0.4375 l 0,0.3125 c 0.390625,-0.015625 0.859375,-0.03125 1.140625,-0.03125 0.390625,0 0.859375,0 1.265625,0.03125 l 0,-0.3125 -0.21875,0 c -0.734375,0 -0.75,-0.109375 -0.75,-0.46875 l 0,-1.53125 c 0,-0.984375 0.421875,-1.875 1.171875,-1.875 0.0625,0 0.09375,0 0.109375,0.015625 -0.03125,0 -0.234375,0.125 -0.234375,0.390625 0,0.265625 0.21875,0.421875 0.4375,0.421875 0.171875,0 0.421875,-0.125 0.421875,-0.4375 0,-0.3125 -0.3125,-0.609375 -0.734375,-0.609375 -0.734375,0 -1.09375,0.671875 -1.21875,1.09375 z m 0,0"
               id="path41477" />
          </symbol>
          <symbol
             style="overflow:visible"
             overflow="visible"
             id="textext-eee544ff-6">
            <path
               inkscape:connector-curvature="0"
               style="stroke:none"
               d="m 3.484375,-3.875 -1.28125,-0.296875 c -0.625,-0.15625 -1,-0.6875 -1,-1.265625 0,-0.703125 0.53125,-1.3125 1.3125,-1.3125 1.65625,0 1.875,1.640625 1.9375,2.078125 0.015625,0.0625 0.015625,0.125 0.125,0.125 0.125,0 0.125,-0.046875 0.125,-0.234375 l 0,-2 c 0,-0.171875 0,-0.25 -0.109375,-0.25 -0.0625,0 -0.078125,0.015625 -0.140625,0.140625 l -0.359375,0.5625 C 3.796875,-6.625 3.390625,-7.03125 2.5,-7.03125 c -1.109375,0 -1.9375,0.875 -1.9375,1.9375 0,0.828125 0.53125,1.5625 1.296875,1.828125 0.109375,0.03125 0.625,0.15625 1.328125,0.328125 0.265625,0.0625 0.5625,0.140625 0.84375,0.5 0.203125,0.265625 0.3125,0.59375 0.3125,0.921875 0,0.703125 -0.5,1.421875 -1.34375,1.421875 -0.28125,0 -1.046875,-0.046875 -1.578125,-0.53125 C 0.84375,-1.171875 0.8125,-1.796875 0.8125,-2.15625 0.796875,-2.265625 0.71875,-2.265625 0.6875,-2.265625 c -0.125,0 -0.125,0.078125 -0.125,0.25 l 0,2 c 0,0.171875 0,0.234375 0.109375,0.234375 0.0625,0 0.078125,-0.015625 0.140625,-0.125 0,-0.015625 0.03125,-0.046875 0.359375,-0.578125 0.3125,0.34375 0.953125,0.703125 1.84375,0.703125 1.15625,0 1.953125,-0.96875 1.953125,-2.078125 0,-0.984375 -0.65625,-1.8125 -1.484375,-2.015625 z m 0,0"
               id="path41480" />
          </symbol>
          <symbol
             style="overflow:visible"
             overflow="visible"
             id="textext-eee544ff-7">
            <path
               inkscape:connector-curvature="0"
               style="stroke:none"
               d="m 1.71875,-3.75 0,-0.65625 -1.4375,0.109375 0,0.3125 c 0.703125,0 0.78125,0.0625 0.78125,0.5 l 0,4.65625 C 1.0625,1.625 0.953125,1.625 0.28125,1.625 l 0,0.3125 C 0.625,1.921875 1.140625,1.90625 1.390625,1.90625 c 0.28125,0 0.78125,0.015625 1.125,0.03125 l 0,-0.3125 C 1.859375,1.625 1.75,1.625 1.75,1.171875 l 0,-1.765625 c 0.046875,0.171875 0.46875,0.703125 1.21875,0.703125 1.1875,0 2.21875,-0.984375 2.21875,-2.265625 0,-1.265625 -0.953125,-2.25 -2.078125,-2.25 -0.78125,0 -1.203125,0.4375 -1.390625,0.65625 z m 0.03125,2.609375 0,-2.21875 C 2.03125,-3.875 2.515625,-4.15625 3.03125,-4.15625 c 0.734375,0 1.328125,0.875 1.328125,2 0,1.203125 -0.6875,2.046875 -1.421875,2.046875 -0.40625,0 -0.78125,-0.203125 -1.046875,-0.609375 C 1.75,-0.921875 1.75,-0.9375 1.75,-1.140625 z m 0,0"
               id="path41483" />
          </symbol>
          <symbol
             style="overflow:visible"
             overflow="visible"
             id="textext-eee544ff-8">
            <path
               inkscape:connector-curvature="0"
               style="stroke:none"
               d="M 1.765625,-4.40625 0.375,-4.296875 l 0,0.3125 c 0.640625,0 0.734375,0.0625 0.734375,0.546875 l 0,2.6875 c 0,0.4375 -0.109375,0.4375 -0.78125,0.4375 l 0,0.3125 C 0.640625,-0.015625 1.1875,-0.03125 1.421875,-0.03125 1.78125,-0.03125 2.125,-0.015625 2.46875,0 l 0,-0.3125 c -0.671875,0 -0.703125,-0.046875 -0.703125,-0.4375 z m 0.03125,-1.734375 c 0,-0.3125 -0.234375,-0.53125 -0.515625,-0.53125 -0.3125,0 -0.53125,0.265625 -0.53125,0.53125 0,0.265625 0.21875,0.53125 0.53125,0.53125 0.28125,0 0.515625,-0.21875 0.515625,-0.53125 z m 0,0"
               id="path41486" />
          </symbol>
          <symbol
             style="overflow:visible"
             overflow="visible"
             id="textext-eee544ff-9">
            <path
               inkscape:connector-curvature="0"
               style="stroke:none"
               d="m 2.21875,-1.71875 c -0.875,0 -0.875,-1 -0.875,-1.21875 0,-0.265625 0.015625,-0.59375 0.15625,-0.84375 0.078125,-0.109375 0.3125,-0.390625 0.71875,-0.390625 0.859375,0 0.859375,0.984375 0.859375,1.21875 0,0.265625 0,0.59375 -0.15625,0.84375 C 2.84375,-2 2.609375,-1.71875 2.21875,-1.71875 z M 1.0625,-1.328125 c 0,-0.03125 0,-0.265625 0.15625,-0.46875 0.390625,0.28125 0.8125,0.3125 1,0.3125 0.921875,0 1.609375,-0.6875 1.609375,-1.453125 0,-0.375 -0.15625,-0.734375 -0.40625,-0.96875 C 3.78125,-4.25 4.140625,-4.296875 4.3125,-4.296875 c 0.03125,0 0.078125,0 0.109375,0.015625 C 4.3125,-4.25 4.25,-4.140625 4.25,-4.015625 c 0,0.171875 0.140625,0.28125 0.296875,0.28125 0.09375,0 0.28125,-0.0625 0.28125,-0.296875 0,-0.171875 -0.109375,-0.484375 -0.5,-0.484375 -0.203125,0 -0.640625,0.0625 -1.0625,0.46875 C 2.84375,-4.375 2.4375,-4.40625 2.21875,-4.40625 c -0.9375,0 -1.625,0.6875 -1.625,1.453125 0,0.4375 0.21875,0.8125 0.46875,1.03125 -0.125,0.140625 -0.3125,0.46875 -0.3125,0.828125 0,0.3125 0.140625,0.6875 0.453125,0.890625 -0.609375,0.15625 -0.921875,0.59375 -0.921875,0.984375 0,0.71875 0.984375,1.265625 2.203125,1.265625 1.171875,0 2.203125,-0.5 2.203125,-1.28125 0,-0.34375 -0.125,-0.859375 -0.640625,-1.140625 -0.53125,-0.265625 -1.109375,-0.265625 -1.71875,-0.265625 -0.25,0 -0.671875,0 -0.75,-0.015625 C 1.265625,-0.703125 1.0625,-1 1.0625,-1.328125 z M 2.5,1.828125 c -1.015625,0 -1.703125,-0.515625 -1.703125,-1.046875 0,-0.453125 0.375,-0.828125 0.8125,-0.84375 l 0.59375,0 c 0.859375,0 1.96875,0 1.96875,0.84375 0,0.546875 -0.703125,1.046875 -1.671875,1.046875 z m 0,0"
               id="path41489" />
          </symbol>
        </g>
      </defs>
      <g
         style="fill:#000000;stroke:#000000;stroke-width:0.48103464"
         id="textext-eee544ff-10">
        <g
           style="fill:#000000;fill-opacity:1;stroke:#000000;stroke-width:0.48103464"
           id="g41492">
          <use
             style="fill:#000000;stroke:#000000;stroke-width:0.48103464"
             height="744.09448"
             width="1052.3622"
             xlink:href="#textext-eee544ff-0"
             x="223.43201"
             y="134.765"
             id="use41494" />
          <use
             style="fill:#000000;stroke:#000000;stroke-width:0.48103464"
             height="744.09448"
             width="1052.3622"
             xlink:href="#textext-eee544ff-1"
             x="231.24965"
             y="134.765"
             id="use41496" />
          <use
             style="fill:#000000;stroke:#000000;stroke-width:0.48103464"
             height="744.09448"
             width="1052.3622"
             xlink:href="#textext-eee544ff-2"
             x="234.01726"
             y="134.765"
             id="use41498" />
          <use
             style="fill:#000000;stroke:#000000;stroke-width:0.48103464"
             height="744.09448"
             width="1052.3622"
             xlink:href="#textext-eee544ff-3"
             x="238.99857"
             y="134.765"
             id="use41500" />
          <use
             style="fill:#000000;stroke:#000000;stroke-width:0.48103464"
             height="744.09448"
             width="1052.3622"
             xlink:href="#textext-eee544ff-3"
             x="242.87302"
             y="134.765"
             id="use41502" />
          <use
             style="fill:#000000;stroke:#000000;stroke-width:0.48103464"
             height="744.09448"
             width="1052.3622"
             xlink:href="#textext-eee544ff-4"
             x="246.74747"
             y="134.765"
             id="use41504" />
          <use
             style="fill:#000000;stroke:#000000;stroke-width:0.48103464"
             height="744.09448"
             width="1052.3622"
             xlink:href="#textext-eee544ff-5"
             x="251.17485"
             y="134.765"
             id="use41506" />
        </g>
        <g
           style="fill:#000000;fill-opacity:1;stroke:#000000;stroke-width:0.48103464"
           id="g41508">
          <use
             style="fill:#000000;stroke:#000000;stroke-width:0.48103464"
             height="744.09448"
             width="1052.3622"
             xlink:href="#textext-eee544ff-6"
             x="258.39474"
             y="134.765"
             id="use41510" />
          <use
             style="fill:#000000;stroke:#000000;stroke-width:0.48103464"
             height="744.09448"
             width="1052.3622"
             xlink:href="#textext-eee544ff-7"
             x="263.92996"
             y="134.765"
             id="use41512" />
          <use
             style="fill:#000000;stroke:#000000;stroke-width:0.48103464"
             height="744.09448"
             width="1052.3622"
             xlink:href="#textext-eee544ff-8"
             x="269.46518"
             y="134.765"
             id="use41514" />
          <use
             style="fill:#000000;stroke:#000000;stroke-width:0.48103464"
             height="744.09448"
             width="1052.3622"
             xlink:href="#textext-eee544ff-4"
             x="272.23279"
             y="134.765"
             id="use41516" />
          <use
             style="fill:#000000;stroke:#000000;stroke-width:0.48103464"
             height="744.09448"
             width="1052.3622"
             xlink:href="#textext-eee544ff-9"
             x="276.66019"
             y="134.765"
             id="use41518" />
          <use
             style="fill:#000000;stroke:#000000;stroke-width:0.48103464"
             height="744.09448"
             width="1052.3622"
             xlink:href="#textext-eee544ff-4"
             x="281.64148"
             y="134.765"
             id="use41520" />
          <use
             style="fill:#000000;stroke:#000000;stroke-width:0.48103464"
             height="744.09448"
             width="1052.3622"
             xlink:href="#textext-eee544ff-1"
             x="286.06885"
             y="134.765"
             id="use41522" />
        </g>
      </g>
    </g>
    <g
       id="g41993"
       style="fill:#000000;stroke:#000000;stroke-width:0.48103464"
       transform="matrix(2.07923,0,0,2.078475,263.62475,502.28649)"
       ns0:preamble=""
       ns0:text="Rauher Spiegel"
       inkscape:export-filename="/home/waldgeist/data/pics/physik/Own/optik/reflexion-direkt-diffus.png"
       inkscape:export-xdpi="150"
       inkscape:export-ydpi="150">
      <defs
         id="defs41995">
        <g
           id="g41997">
          <symbol
             id="textext-3ae6c7f6-0"
             overflow="visible"
             style="overflow:visible">
            <path
               id="path42000"
               d="m 2.234375,-3.515625 0,-2.578125 c 0,-0.234375 0,-0.359375 0.21875,-0.390625 C 2.546875,-6.5 2.84375,-6.5 3.046875,-6.5 c 0.890625,0 2,0.046875 2,1.484375 0,0.6875 -0.234375,1.5 -1.703125,1.5 z m 2.109375,0.125 c 0.953125,-0.234375 1.734375,-0.84375 1.734375,-1.625 0,-0.953125 -1.140625,-1.796875 -2.59375,-1.796875 l -3.140625,0 0,0.3125 0.25,0 c 0.765625,0 0.78125,0.109375 0.78125,0.46875 l 0,5.25 c 0,0.359375 -0.015625,0.46875 -0.78125,0.46875 l -0.25,0 0,0.3125 c 0.359375,-0.03125 1.078125,-0.03125 1.453125,-0.03125 0.390625,0 1.109375,0 1.46875,0.03125 l 0,-0.3125 -0.25,0 c -0.765625,0 -0.78125,-0.109375 -0.78125,-0.46875 l 0,-2.515625 1.140625,0 c 0.15625,0 0.578125,0 0.9375,0.34375 0.375,0.34375 0.375,0.65625 0.375,1.328125 0,0.640625 0,1.046875 0.40625,1.421875 0.40625,0.359375 0.953125,0.421875 1.25,0.421875 0.78125,0 0.953125,-0.8125 0.953125,-1.09375 0,-0.0625 0,-0.171875 -0.125,-0.171875 -0.109375,0 -0.109375,0.09375 -0.125,0.15625 C 6.984375,-0.171875 6.640625,0 6.390625,0 5.90625,0 5.828125,-0.515625 5.6875,-1.4375 L 5.546875,-2.234375 C 5.375,-2.875 4.890625,-3.203125 4.34375,-3.390625 z m 0,0"
               style="stroke:none"
               inkscape:connector-curvature="0" />
          </symbol>
          <symbol
             id="textext-3ae6c7f6-1"
             overflow="visible"
             style="overflow:visible">
            <path
               id="path42003"
               d="m 3.3125,-0.75 c 0.046875,0.390625 0.3125,0.8125 0.78125,0.8125 0.21875,0 0.828125,-0.140625 0.828125,-0.953125 l 0,-0.5625 -0.25,0 0,0.5625 c 0,0.578125 -0.25,0.640625 -0.359375,0.640625 -0.328125,0 -0.375,-0.453125 -0.375,-0.5 l 0,-1.984375 c 0,-0.421875 0,-0.8125 -0.359375,-1.1875 C 3.1875,-4.3125 2.6875,-4.46875 2.21875,-4.46875 c -0.828125,0 -1.515625,0.46875 -1.515625,1.125 0,0.296875 0.203125,0.46875 0.46875,0.46875 0.28125,0 0.453125,-0.203125 0.453125,-0.453125 0,-0.125 -0.046875,-0.453125 -0.515625,-0.453125 C 1.390625,-4.140625 1.875,-4.25 2.1875,-4.25 c 0.5,0 1.0625,0.390625 1.0625,1.28125 l 0,0.359375 c -0.515625,0.03125 -1.203125,0.0625 -1.828125,0.359375 -0.75,0.34375 -1,0.859375 -1,1.296875 0,0.8125 0.96875,1.0625 1.59375,1.0625 0.65625,0 1.109375,-0.40625 1.296875,-0.859375 z M 3.25,-2.390625 l 0,1 c 0,0.9375 -0.71875,1.28125 -1.171875,1.28125 -0.484375,0 -0.890625,-0.34375 -0.890625,-0.84375 0,-0.546875 0.421875,-1.375 2.0625,-1.4375 z m 0,0"
               style="stroke:none"
               inkscape:connector-curvature="0" />
          </symbol>
          <symbol
             id="textext-3ae6c7f6-2"
             overflow="visible"
             style="overflow:visible">
            <path
               id="path42006"
               d="m 3.890625,-0.78125 0,0.890625 L 5.328125,0 l 0,-0.3125 C 4.640625,-0.3125 4.5625,-0.375 4.5625,-0.875 l 0,-3.53125 -1.46875,0.109375 0,0.3125 c 0.6875,0 0.78125,0.0625 0.78125,0.5625 l 0,1.765625 c 0,0.875 -0.484375,1.546875 -1.21875,1.546875 -0.828125,0 -0.875,-0.46875 -0.875,-0.984375 l 0,-3.3125 -1.46875,0.109375 0,0.3125 c 0.78125,0 0.78125,0.03125 0.78125,0.90625 l 0,1.5 c 0,0.78125 0,1.6875 1.515625,1.6875 0.5625,0 1,-0.28125 1.28125,-0.890625 z m 0,0"
               style="stroke:none"
               inkscape:connector-curvature="0" />
          </symbol>
          <symbol
             id="textext-3ae6c7f6-3"
             overflow="visible"
             style="overflow:visible">
            <path
               id="path42009"
               d="m 1.09375,-0.75 c 0,0.4375 -0.109375,0.4375 -0.78125,0.4375 l 0,0.3125 c 0.359375,-0.015625 0.859375,-0.03125 1.140625,-0.03125 0.25,0 0.765625,0.015625 1.109375,0.03125 l 0,-0.3125 c -0.671875,0 -0.78125,0 -0.78125,-0.4375 l 0,-1.84375 C 1.78125,-3.625 2.5,-4.1875 3.125,-4.1875 c 0.640625,0 0.75,0.53125 0.75,1.109375 l 0,2.328125 c 0,0.4375 -0.109375,0.4375 -0.78125,0.4375 l 0,0.3125 c 0.34375,-0.015625 0.859375,-0.03125 1.125,-0.03125 0.25,0 0.78125,0.015625 1.109375,0.03125 l 0,-0.3125 c -0.515625,0 -0.765625,0 -0.765625,-0.296875 l 0,-1.90625 c 0,-0.859375 0,-1.15625 -0.3125,-1.515625 -0.140625,-0.171875 -0.46875,-0.375 -1.046875,-0.375 -0.84375,0 -1.28125,0.59375 -1.453125,0.984375 l 0,-3.5 -1.4375,0.109375 0,0.3125 c 0.703125,0 0.78125,0.0625 0.78125,0.5625 z m 0,0"
               style="stroke:none"
               inkscape:connector-curvature="0" />
          </symbol>
          <symbol
             id="textext-3ae6c7f6-4"
             overflow="visible"
             style="overflow:visible">
            <path
               id="path42012"
               d="M 1.109375,-2.515625 C 1.171875,-4 2.015625,-4.25 2.359375,-4.25 c 1.015625,0 1.125,1.34375 1.125,1.734375 z m 0,0.21875 2.78125,0 c 0.21875,0 0.25,0 0.25,-0.21875 0,-0.984375 -0.546875,-1.953125 -1.78125,-1.953125 -1.15625,0 -2.078125,1.03125 -2.078125,2.28125 0,1.328125 1.046875,2.296875 2.1875,2.296875 C 3.6875,0.109375 4.140625,-1 4.140625,-1.1875 4.140625,-1.28125 4.0625,-1.3125 4,-1.3125 c -0.078125,0 -0.109375,0.0625 -0.125,0.140625 -0.34375,1.03125 -1.25,1.03125 -1.34375,1.03125 -0.5,0 -0.890625,-0.296875 -1.125,-0.671875 -0.296875,-0.46875 -0.296875,-1.125 -0.296875,-1.484375 z m 0,0"
               style="stroke:none"
               inkscape:connector-curvature="0" />
          </symbol>
          <symbol
             id="textext-3ae6c7f6-5"
             overflow="visible"
             style="overflow:visible">
            <path
               id="path42015"
               d="m 1.671875,-3.3125 0,-1.09375 -1.390625,0.109375 0,0.3125 c 0.703125,0 0.78125,0.0625 0.78125,0.5625 l 0,2.671875 c 0,0.4375 -0.109375,0.4375 -0.78125,0.4375 l 0,0.3125 c 0.390625,-0.015625 0.859375,-0.03125 1.140625,-0.03125 0.390625,0 0.859375,0 1.265625,0.03125 l 0,-0.3125 -0.21875,0 c -0.734375,0 -0.75,-0.109375 -0.75,-0.46875 l 0,-1.53125 c 0,-0.984375 0.421875,-1.875 1.171875,-1.875 0.0625,0 0.09375,0 0.109375,0.015625 -0.03125,0 -0.234375,0.125 -0.234375,0.390625 0,0.265625 0.21875,0.421875 0.4375,0.421875 0.171875,0 0.421875,-0.125 0.421875,-0.4375 0,-0.3125 -0.3125,-0.609375 -0.734375,-0.609375 -0.734375,0 -1.09375,0.671875 -1.21875,1.09375 z m 0,0"
               style="stroke:none"
               inkscape:connector-curvature="0" />
          </symbol>
          <symbol
             id="textext-3ae6c7f6-6"
             overflow="visible"
             style="overflow:visible">
            <path
               id="path42018"
               d="m 3.484375,-3.875 -1.28125,-0.296875 c -0.625,-0.15625 -1,-0.6875 -1,-1.265625 0,-0.703125 0.53125,-1.3125 1.3125,-1.3125 1.65625,0 1.875,1.640625 1.9375,2.078125 0.015625,0.0625 0.015625,0.125 0.125,0.125 0.125,0 0.125,-0.046875 0.125,-0.234375 l 0,-2 c 0,-0.171875 0,-0.25 -0.109375,-0.25 -0.0625,0 -0.078125,0.015625 -0.140625,0.140625 l -0.359375,0.5625 C 3.796875,-6.625 3.390625,-7.03125 2.5,-7.03125 c -1.109375,0 -1.9375,0.875 -1.9375,1.9375 0,0.828125 0.53125,1.5625 1.296875,1.828125 0.109375,0.03125 0.625,0.15625 1.328125,0.328125 0.265625,0.0625 0.5625,0.140625 0.84375,0.5 0.203125,0.265625 0.3125,0.59375 0.3125,0.921875 0,0.703125 -0.5,1.421875 -1.34375,1.421875 -0.28125,0 -1.046875,-0.046875 -1.578125,-0.53125 C 0.84375,-1.171875 0.8125,-1.796875 0.8125,-2.15625 0.796875,-2.265625 0.71875,-2.265625 0.6875,-2.265625 c -0.125,0 -0.125,0.078125 -0.125,0.25 l 0,2 c 0,0.171875 0,0.234375 0.109375,0.234375 0.0625,0 0.078125,-0.015625 0.140625,-0.125 0,-0.015625 0.03125,-0.046875 0.359375,-0.578125 0.3125,0.34375 0.953125,0.703125 1.84375,0.703125 1.15625,0 1.953125,-0.96875 1.953125,-2.078125 0,-0.984375 -0.65625,-1.8125 -1.484375,-2.015625 z m 0,0"
               style="stroke:none"
               inkscape:connector-curvature="0" />
          </symbol>
          <symbol
             id="textext-3ae6c7f6-7"
             overflow="visible"
             style="overflow:visible">
            <path
               id="path42021"
               d="m 1.71875,-3.75 0,-0.65625 -1.4375,0.109375 0,0.3125 c 0.703125,0 0.78125,0.0625 0.78125,0.5 l 0,4.65625 C 1.0625,1.625 0.953125,1.625 0.28125,1.625 l 0,0.3125 C 0.625,1.921875 1.140625,1.90625 1.390625,1.90625 c 0.28125,0 0.78125,0.015625 1.125,0.03125 l 0,-0.3125 C 1.859375,1.625 1.75,1.625 1.75,1.171875 l 0,-1.765625 c 0.046875,0.171875 0.46875,0.703125 1.21875,0.703125 1.1875,0 2.21875,-0.984375 2.21875,-2.265625 0,-1.265625 -0.953125,-2.25 -2.078125,-2.25 -0.78125,0 -1.203125,0.4375 -1.390625,0.65625 z m 0.03125,2.609375 0,-2.21875 C 2.03125,-3.875 2.515625,-4.15625 3.03125,-4.15625 c 0.734375,0 1.328125,0.875 1.328125,2 0,1.203125 -0.6875,2.046875 -1.421875,2.046875 -0.40625,0 -0.78125,-0.203125 -1.046875,-0.609375 C 1.75,-0.921875 1.75,-0.9375 1.75,-1.140625 z m 0,0"
               style="stroke:none"
               inkscape:connector-curvature="0" />
          </symbol>
          <symbol
             id="textext-3ae6c7f6-8"
             overflow="visible"
             style="overflow:visible">
            <path
               id="path42024"
               d="M 1.765625,-4.40625 0.375,-4.296875 l 0,0.3125 c 0.640625,0 0.734375,0.0625 0.734375,0.546875 l 0,2.6875 c 0,0.4375 -0.109375,0.4375 -0.78125,0.4375 l 0,0.3125 C 0.640625,-0.015625 1.1875,-0.03125 1.421875,-0.03125 1.78125,-0.03125 2.125,-0.015625 2.46875,0 l 0,-0.3125 c -0.671875,0 -0.703125,-0.046875 -0.703125,-0.4375 z m 0.03125,-1.734375 c 0,-0.3125 -0.234375,-0.53125 -0.515625,-0.53125 -0.3125,0 -0.53125,0.265625 -0.53125,0.53125 0,0.265625 0.21875,0.53125 0.53125,0.53125 0.28125,0 0.515625,-0.21875 0.515625,-0.53125 z m 0,0"
               style="stroke:none"
               inkscape:connector-curvature="0" />
          </symbol>
          <symbol
             id="textext-3ae6c7f6-9"
             overflow="visible"
             style="overflow:visible">
            <path
               id="path42027"
               d="m 2.21875,-1.71875 c -0.875,0 -0.875,-1 -0.875,-1.21875 0,-0.265625 0.015625,-0.59375 0.15625,-0.84375 0.078125,-0.109375 0.3125,-0.390625 0.71875,-0.390625 0.859375,0 0.859375,0.984375 0.859375,1.21875 0,0.265625 0,0.59375 -0.15625,0.84375 C 2.84375,-2 2.609375,-1.71875 2.21875,-1.71875 z M 1.0625,-1.328125 c 0,-0.03125 0,-0.265625 0.15625,-0.46875 0.390625,0.28125 0.8125,0.3125 1,0.3125 0.921875,0 1.609375,-0.6875 1.609375,-1.453125 0,-0.375 -0.15625,-0.734375 -0.40625,-0.96875 C 3.78125,-4.25 4.140625,-4.296875 4.3125,-4.296875 c 0.03125,0 0.078125,0 0.109375,0.015625 C 4.3125,-4.25 4.25,-4.140625 4.25,-4.015625 c 0,0.171875 0.140625,0.28125 0.296875,0.28125 0.09375,0 0.28125,-0.0625 0.28125,-0.296875 0,-0.171875 -0.109375,-0.484375 -0.5,-0.484375 -0.203125,0 -0.640625,0.0625 -1.0625,0.46875 C 2.84375,-4.375 2.4375,-4.40625 2.21875,-4.40625 c -0.9375,0 -1.625,0.6875 -1.625,1.453125 0,0.4375 0.21875,0.8125 0.46875,1.03125 -0.125,0.140625 -0.3125,0.46875 -0.3125,0.828125 0,0.3125 0.140625,0.6875 0.453125,0.890625 -0.609375,0.15625 -0.921875,0.59375 -0.921875,0.984375 0,0.71875 0.984375,1.265625 2.203125,1.265625 1.171875,0 2.203125,-0.5 2.203125,-1.28125 0,-0.34375 -0.125,-0.859375 -0.640625,-1.140625 -0.53125,-0.265625 -1.109375,-0.265625 -1.71875,-0.265625 -0.25,0 -0.671875,0 -0.75,-0.015625 C 1.265625,-0.703125 1.0625,-1 1.0625,-1.328125 z M 2.5,1.828125 c -1.015625,0 -1.703125,-0.515625 -1.703125,-1.046875 0,-0.453125 0.375,-0.828125 0.8125,-0.84375 l 0.59375,0 c 0.859375,0 1.96875,0 1.96875,0.84375 0,0.546875 -0.703125,1.046875 -1.671875,1.046875 z m 0,0"
               style="stroke:none"
               inkscape:connector-curvature="0" />
          </symbol>
          <symbol
             id="textext-3ae6c7f6-10"
             overflow="visible"
             style="overflow:visible">
            <path
               id="path42030"
               d="m 1.765625,-6.921875 -1.4375,0.109375 0,0.3125 c 0.703125,0 0.78125,0.0625 0.78125,0.5625 l 0,5.1875 c 0,0.4375 -0.109375,0.4375 -0.78125,0.4375 l 0,0.3125 C 0.65625,-0.015625 1.1875,-0.03125 1.4375,-0.03125 c 0.25,0 0.734375,0.015625 1.109375,0.03125 l 0,-0.3125 c -0.671875,0 -0.78125,0 -0.78125,-0.4375 z m 0,0"
               style="stroke:none"
               inkscape:connector-curvature="0" />
          </symbol>
        </g>
      </defs>
      <g
         id="textext-3ae6c7f6-11"
         style="stroke-width:0.48103464">
        <g
           id="g42033"
           style="fill:#000000;fill-opacity:1;stroke-width:0.48103464">
          <use
             id="use42035"
             y="134.765"
             x="223.43201"
             xlink:href="#textext-3ae6c7f6-0"
             width="1052.3622"
             height="744.09448"
             style="stroke-width:0.48103464" />
          <use
             id="use42037"
             y="134.765"
             x="230.76547"
             xlink:href="#textext-3ae6c7f6-1"
             width="1052.3622"
             height="744.09448"
             style="stroke-width:0.48103464" />
          <use
             id="use42039"
             y="134.765"
             x="235.74677"
             xlink:href="#textext-3ae6c7f6-2"
             width="1052.3622"
             height="744.09448"
             style="stroke-width:0.48103464" />
          <use
             id="use42041"
             y="134.765"
             x="241.28198"
             xlink:href="#textext-3ae6c7f6-3"
             width="1052.3622"
             height="744.09448"
             style="stroke-width:0.48103464" />
          <use
             id="use42043"
             y="134.765"
             x="246.81721"
             xlink:href="#textext-3ae6c7f6-4"
             width="1052.3622"
             height="744.09448"
             style="stroke-width:0.48103464" />
          <use
             id="use42045"
             y="134.765"
             x="251.24458"
             xlink:href="#textext-3ae6c7f6-5"
             width="1052.3622"
             height="744.09448"
             style="stroke-width:0.48103464" />
        </g>
        <g
           id="g42047"
           style="fill:#000000;fill-opacity:1;stroke-width:0.48103464">
          <use
             id="use42049"
             y="134.765"
             x="258.46448"
             xlink:href="#textext-3ae6c7f6-6"
             width="1052.3622"
             height="744.09448"
             style="stroke-width:0.48103464" />
          <use
             id="use42051"
             y="134.765"
             x="263.99969"
             xlink:href="#textext-3ae6c7f6-7"
             width="1052.3622"
             height="744.09448"
             style="stroke-width:0.48103464" />
          <use
             id="use42053"
             y="134.765"
             x="269.53494"
             xlink:href="#textext-3ae6c7f6-8"
             width="1052.3622"
             height="744.09448"
             style="stroke-width:0.48103464" />
          <use
             id="use42055"
             y="134.765"
             x="272.30255"
             xlink:href="#textext-3ae6c7f6-4"
             width="1052.3622"
             height="744.09448"
             style="stroke-width:0.48103464" />
          <use
             id="use42057"
             y="134.765"
             x="276.72992"
             xlink:href="#textext-3ae6c7f6-9"
             width="1052.3622"
             height="744.09448"
             style="stroke-width:0.48103464" />
          <use
             id="use42059"
             y="134.765"
             x="281.71121"
             xlink:href="#textext-3ae6c7f6-4"
             width="1052.3622"
             height="744.09448"
             style="stroke-width:0.48103464" />
          <use
             id="use42061"
             y="134.765"
             x="286.13861"
             xlink:href="#textext-3ae6c7f6-10"
             width="1052.3622"
             height="744.09448"
             style="stroke-width:0.48103464" />
        </g>
      </g>
    </g>
    <g
       ns0:text="Diffuse Reflektion"
       ns0:preamble=""
       transform="matrix(2.07923,0,0,2.078475,251.06793,530.46411)"
       style="fill:#000000;stroke:#000000;stroke-width:0.48103464"
       id="g42431"
       inkscape:export-filename="/home/waldgeist/data/pics/physik/Own/optik/reflexion-direkt-diffus.png"
       inkscape:export-xdpi="150"
       inkscape:export-ydpi="150">
      <defs
         id="defs42433">
        <g
           id="g42435">
          <symbol
             overflow="visible"
             id="textext-2d4a3231-0"
             style="overflow:visible">
            <path
               style="stroke:none"
               d="m 0.34375,-6.8125 0,0.3125 0.25,0 c 0.765625,0 0.78125,0.109375 0.78125,0.46875 l 0,5.25 c 0,0.359375 -0.015625,0.46875 -0.78125,0.46875 l -0.25,0 0,0.3125 L 4,0 C 5.671875,0 7.046875,-1.46875 7.046875,-3.34375 7.046875,-5.25 5.703125,-6.8125 4,-6.8125 z m 2.375,6.5 C 2.25,-0.3125 2.234375,-0.375 2.234375,-0.703125 l 0,-5.390625 C 2.234375,-6.4375 2.25,-6.5 2.71875,-6.5 l 1,0 c 0.625,0 1.3125,0.21875 1.8125,0.921875 0.4375,0.59375 0.515625,1.453125 0.515625,2.234375 0,1.09375 -0.1875,1.703125 -0.546875,2.1875 -0.203125,0.265625 -0.765625,0.84375 -1.765625,0.84375 z m 0,0"
               id="path42438"
               inkscape:connector-curvature="0" />
          </symbol>
          <symbol
             overflow="visible"
             id="textext-2d4a3231-1"
             style="overflow:visible">
            <path
               style="stroke:none"
               d="M 1.765625,-4.40625 0.375,-4.296875 l 0,0.3125 c 0.640625,0 0.734375,0.0625 0.734375,0.546875 l 0,2.6875 c 0,0.4375 -0.109375,0.4375 -0.78125,0.4375 l 0,0.3125 C 0.640625,-0.015625 1.1875,-0.03125 1.421875,-0.03125 1.78125,-0.03125 2.125,-0.015625 2.46875,0 l 0,-0.3125 c -0.671875,0 -0.703125,-0.046875 -0.703125,-0.4375 z m 0.03125,-1.734375 c 0,-0.3125 -0.234375,-0.53125 -0.515625,-0.53125 -0.3125,0 -0.53125,0.265625 -0.53125,0.53125 0,0.265625 0.21875,0.53125 0.53125,0.53125 0.28125,0 0.515625,-0.21875 0.515625,-0.53125 z m 0,0"
               id="path42441"
               inkscape:connector-curvature="0" />
          </symbol>
          <symbol
             overflow="visible"
             id="textext-2d4a3231-2"
             style="overflow:visible">
            <path
               style="stroke:none"
               d="m 4.46875,-3.984375 1.140625,0 0,-0.3125 -1.171875,0 0,-1.15625 c 0,-0.890625 0.484375,-1.359375 0.921875,-1.359375 0.03125,0 0.1875,0 0.328125,0.078125 -0.109375,0.03125 -0.296875,0.171875 -0.296875,0.421875 0,0.21875 0.15625,0.421875 0.4375,0.421875 0.28125,0 0.4375,-0.203125 0.4375,-0.4375 0,-0.359375 -0.359375,-0.703125 -0.90625,-0.703125 -0.59375,0 -1.03125,0.375 -1.078125,0.421875 -0.296875,-0.375 -0.859375,-0.421875 -1.125,-0.421875 -0.9375,0 -2.09375,0.515625 -2.09375,1.59375 l 0,1.140625 -0.796875,0 0,0.3125 0.796875,0 0,3.234375 c 0,0.4375 -0.109375,0.4375 -0.78125,0.4375 l 0,0.3125 C 0.609375,-0.015625 1.140625,-0.03125 1.390625,-0.03125 1.640625,-0.03125 2.125,-0.015625 2.5,0 l 0,-0.3125 c -0.671875,0 -0.78125,0 -0.78125,-0.4375 l 0,-3.234375 2.09375,0 0,3.234375 c 0,0.4375 -0.109375,0.4375 -0.78125,0.4375 l 0,0.3125 c 0.390625,-0.015625 0.859375,-0.03125 1.140625,-0.03125 0.390625,0 0.859375,0 1.265625,0.03125 l 0,-0.3125 -0.21875,0 c -0.734375,0 -0.75,-0.109375 -0.75,-0.46875 z m -2.78125,-0.3125 0,-1.125 c 0,-0.96875 0.8125,-1.390625 1.46875,-1.390625 0.484375,0 0.765625,0.1875 0.765625,0.1875 l 0,0.015625 C 3.765625,-6.59375 3.5625,-6.453125 3.5625,-6.1875 c 0,0.0625 0,0.3125 0.28125,0.40625 C 3.8125,-5.65625 3.8125,-5.5625 3.8125,-5.4375 l 0,1.140625 z m 0,0"
               id="path42444"
               inkscape:connector-curvature="0" />
          </symbol>
          <symbol
             overflow="visible"
             id="textext-2d4a3231-3"
             style="overflow:visible">
            <path
               style="stroke:none"
               d="m 3.890625,-0.78125 0,0.890625 L 5.328125,0 l 0,-0.3125 C 4.640625,-0.3125 4.5625,-0.375 4.5625,-0.875 l 0,-3.53125 -1.46875,0.109375 0,0.3125 c 0.6875,0 0.78125,0.0625 0.78125,0.5625 l 0,1.765625 c 0,0.875 -0.484375,1.546875 -1.21875,1.546875 -0.828125,0 -0.875,-0.46875 -0.875,-0.984375 l 0,-3.3125 -1.46875,0.109375 0,0.3125 c 0.78125,0 0.78125,0.03125 0.78125,0.90625 l 0,1.5 c 0,0.78125 0,1.6875 1.515625,1.6875 0.5625,0 1,-0.28125 1.28125,-0.890625 z m 0,0"
               id="path42447"
               inkscape:connector-curvature="0" />
          </symbol>
          <symbol
             overflow="visible"
             id="textext-2d4a3231-4"
             style="overflow:visible">
            <path
               style="stroke:none"
               d="m 2.078125,-1.9375 c 0.21875,0.046875 1.03125,0.203125 1.03125,0.921875 0,0.5 -0.34375,0.90625 -1.125,0.90625 -0.84375,0 -1.203125,-0.5625 -1.390625,-1.421875 C 0.5625,-1.65625 0.5625,-1.6875 0.453125,-1.6875 c -0.125,0 -0.125,0.0625 -0.125,0.234375 l 0,1.328125 c 0,0.171875 0,0.234375 0.109375,0.234375 0.046875,0 0.0625,-0.015625 0.25,-0.203125 0.015625,-0.015625 0.015625,-0.03125 0.203125,-0.21875 0.4375,0.40625 0.890625,0.421875 1.09375,0.421875 1.140625,0 1.609375,-0.671875 1.609375,-1.390625 0,-0.515625 -0.296875,-0.828125 -0.421875,-0.9375 C 2.84375,-2.546875 2.453125,-2.625 2.03125,-2.703125 1.46875,-2.8125 0.8125,-2.9375 0.8125,-3.515625 c 0,-0.359375 0.25,-0.765625 1.109375,-0.765625 1.09375,0 1.15625,0.90625 1.171875,1.203125 0,0.09375 0.09375,0.09375 0.109375,0.09375 0.140625,0 0.140625,-0.046875 0.140625,-0.234375 l 0,-1.015625 c 0,-0.15625 0,-0.234375 -0.109375,-0.234375 -0.046875,0 -0.078125,0 -0.203125,0.125 -0.03125,0.03125 -0.125,0.125 -0.171875,0.15625 -0.375,-0.28125 -0.78125,-0.28125 -0.9375,-0.28125 -1.21875,0 -1.59375,0.671875 -1.59375,1.234375 0,0.34375 0.15625,0.625 0.421875,0.84375 0.328125,0.25 0.609375,0.3125 1.328125,0.453125 z m 0,0"
               id="path42450"
               inkscape:connector-curvature="0" />
          </symbol>
          <symbol
             overflow="visible"
             id="textext-2d4a3231-5"
             style="overflow:visible">
            <path
               style="stroke:none"
               d="M 1.109375,-2.515625 C 1.171875,-4 2.015625,-4.25 2.359375,-4.25 c 1.015625,0 1.125,1.34375 1.125,1.734375 z m 0,0.21875 2.78125,0 c 0.21875,0 0.25,0 0.25,-0.21875 0,-0.984375 -0.546875,-1.953125 -1.78125,-1.953125 -1.15625,0 -2.078125,1.03125 -2.078125,2.28125 0,1.328125 1.046875,2.296875 2.1875,2.296875 C 3.6875,0.109375 4.140625,-1 4.140625,-1.1875 4.140625,-1.28125 4.0625,-1.3125 4,-1.3125 c -0.078125,0 -0.109375,0.0625 -0.125,0.140625 -0.34375,1.03125 -1.25,1.03125 -1.34375,1.03125 -0.5,0 -0.890625,-0.296875 -1.125,-0.671875 -0.296875,-0.46875 -0.296875,-1.125 -0.296875,-1.484375 z m 0,0"
               id="path42453"
               inkscape:connector-curvature="0" />
          </symbol>
          <symbol
             overflow="visible"
             id="textext-2d4a3231-6"
             style="overflow:visible">
            <path
               style="stroke:none"
               d="m 2.234375,-3.515625 0,-2.578125 c 0,-0.234375 0,-0.359375 0.21875,-0.390625 C 2.546875,-6.5 2.84375,-6.5 3.046875,-6.5 c 0.890625,0 2,0.046875 2,1.484375 0,0.6875 -0.234375,1.5 -1.703125,1.5 z m 2.109375,0.125 c 0.953125,-0.234375 1.734375,-0.84375 1.734375,-1.625 0,-0.953125 -1.140625,-1.796875 -2.59375,-1.796875 l -3.140625,0 0,0.3125 0.25,0 c 0.765625,0 0.78125,0.109375 0.78125,0.46875 l 0,5.25 c 0,0.359375 -0.015625,0.46875 -0.78125,0.46875 l -0.25,0 0,0.3125 c 0.359375,-0.03125 1.078125,-0.03125 1.453125,-0.03125 0.390625,0 1.109375,0 1.46875,0.03125 l 0,-0.3125 -0.25,0 c -0.765625,0 -0.78125,-0.109375 -0.78125,-0.46875 l 0,-2.515625 1.140625,0 c 0.15625,0 0.578125,0 0.9375,0.34375 0.375,0.34375 0.375,0.65625 0.375,1.328125 0,0.640625 0,1.046875 0.40625,1.421875 0.40625,0.359375 0.953125,0.421875 1.25,0.421875 0.78125,0 0.953125,-0.8125 0.953125,-1.09375 0,-0.0625 0,-0.171875 -0.125,-0.171875 -0.109375,0 -0.109375,0.09375 -0.125,0.15625 C 6.984375,-0.171875 6.640625,0 6.390625,0 5.90625,0 5.828125,-0.515625 5.6875,-1.4375 L 5.546875,-2.234375 C 5.375,-2.875 4.890625,-3.203125 4.34375,-3.390625 z m 0,0"
               id="path42456"
               inkscape:connector-curvature="0" />
          </symbol>
          <symbol
             overflow="visible"
             id="textext-2d4a3231-7"
             style="overflow:visible">
            <path
               style="stroke:none"
               d="m 3.8125,-3.984375 0,3.234375 c 0,0.4375 -0.109375,0.4375 -0.765625,0.4375 l 0,0.3125 c 0.328125,-0.015625 0.84375,-0.03125 1.09375,-0.03125 0.25,0 0.75,0.015625 1.109375,0.03125 l 0,-0.3125 c -0.671875,0 -0.78125,0 -0.78125,-0.4375 l 0,-6.171875 -0.359375,0.0625 C 4.078125,-6.859375 4.0625,-6.875 4.03125,-6.890625 3.703125,-7.03125 3.296875,-7.03125 3.1875,-7.03125 c -1.046875,0 -2.125,0.5625 -2.125,1.59375 l 0,1.140625 -0.796875,0 0,0.3125 0.796875,0 0,3.234375 c 0,0.4375 -0.109375,0.4375 -0.78125,0.4375 l 0,0.3125 C 0.609375,-0.015625 1.140625,-0.03125 1.390625,-0.03125 1.640625,-0.03125 2.125,-0.015625 2.5,0 l 0,-0.3125 c -0.671875,0 -0.78125,0 -0.78125,-0.4375 l 0,-3.234375 z m 0,-0.3125 -2.125,0 0,-1.125 c 0,-0.921875 0.75,-1.390625 1.5,-1.390625 0.078125,0 0.34375,0 0.625,0.09375 -0.078125,0.046875 -0.25,0.140625 -0.25,0.40625 0,0.171875 0.09375,0.328125 0.25,0.375 z m 0,0"
               id="path42459"
               inkscape:connector-curvature="0" />
          </symbol>
          <symbol
             overflow="visible"
             id="textext-2d4a3231-8"
             style="overflow:visible">
            <path
               style="stroke:none"
               d="m 1.0625,-0.75 c 0,0.4375 -0.109375,0.4375 -0.78125,0.4375 l 0,0.3125 c 0.328125,-0.015625 0.796875,-0.03125 1.078125,-0.03125 0.3125,0 0.703125,0.015625 1.109375,0.03125 l 0,-0.3125 c -0.671875,0 -0.78125,0 -0.78125,-0.4375 l 0,-1.03125 0.640625,-0.546875 c 0.765625,1.046875 1.1875,1.609375 1.1875,1.796875 0,0.1875 -0.171875,0.21875 -0.359375,0.21875 l 0,0.3125 c 0.265625,-0.015625 0.859375,-0.03125 1.078125,-0.03125 0.28125,0 0.578125,0.015625 0.859375,0.03125 l 0,-0.3125 c -0.375,0 -0.59375,0 -0.96875,-0.53125 L 2.859375,-2.625 c -0.015625,-0.015625 -0.0625,-0.078125 -0.0625,-0.109375 0,-0.03125 0.71875,-0.640625 0.8125,-0.71875 0.625,-0.5 1.046875,-0.53125 1.25,-0.53125 l 0,-0.3125 c -0.28125,0.03125 -0.40625,0.03125 -0.6875,0.03125 -0.359375,0 -0.984375,-0.015625 -1.125,-0.03125 l 0,0.3125 c 0.1875,0 0.296875,0.109375 0.296875,0.25 0,0.203125 -0.140625,0.3125 -0.21875,0.390625 l -1.40625,1.203125 0,-4.78125 -1.4375,0.109375 0,0.3125 c 0.703125,0 0.78125,0.0625 0.78125,0.5625 z m 0,0"
               id="path42462"
               inkscape:connector-curvature="0" />
          </symbol>
          <symbol
             overflow="visible"
             id="textext-2d4a3231-9"
             style="overflow:visible">
            <path
               style="stroke:none"
               d="m 1.71875,-3.984375 1.4375,0 0,-0.3125 -1.4375,0 0,-1.828125 -0.25,0 c 0,0.8125 -0.296875,1.875 -1.28125,1.921875 l 0,0.21875 0.84375,0 0,2.75 c 0,1.21875 0.9375,1.34375 1.296875,1.34375 0.703125,0 0.984375,-0.703125 0.984375,-1.34375 l 0,-0.5625 -0.25,0 0,0.546875 c 0,0.734375 -0.296875,1.109375 -0.671875,1.109375 -0.671875,0 -0.671875,-0.90625 -0.671875,-1.078125 z m 0,0"
               id="path42465"
               inkscape:connector-curvature="0" />
          </symbol>
          <symbol
             overflow="visible"
             id="textext-2d4a3231-10"
             style="overflow:visible">
            <path
               style="stroke:none"
               d="M 4.6875,-2.140625 C 4.6875,-3.40625 3.703125,-4.46875 2.5,-4.46875 c -1.25,0 -2.21875,1.09375 -2.21875,2.328125 0,1.296875 1.03125,2.25 2.203125,2.25 1.203125,0 2.203125,-0.984375 2.203125,-2.25 z m -2.1875,2 c -0.4375,0 -0.875,-0.203125 -1.140625,-0.671875 -0.25,-0.4375 -0.25,-1.046875 -0.25,-1.40625 0,-0.390625 0,-0.921875 0.234375,-1.359375 C 1.609375,-4.03125 2.078125,-4.25 2.484375,-4.25 c 0.4375,0 0.859375,0.21875 1.125,0.65625 0.265625,0.421875 0.265625,1 0.265625,1.375 0,0.359375 0,0.90625 -0.21875,1.34375 C 3.421875,-0.421875 2.984375,-0.140625 2.5,-0.140625 z m 0,0"
               id="path42468"
               inkscape:connector-curvature="0" />
          </symbol>
          <symbol
             overflow="visible"
             id="textext-2d4a3231-11"
             style="overflow:visible">
            <path
               style="stroke:none"
               d="m 1.09375,-3.421875 0,2.671875 c 0,0.4375 -0.109375,0.4375 -0.78125,0.4375 l 0,0.3125 c 0.359375,-0.015625 0.859375,-0.03125 1.140625,-0.03125 0.25,0 0.765625,0.015625 1.109375,0.03125 l 0,-0.3125 c -0.671875,0 -0.78125,0 -0.78125,-0.4375 l 0,-1.84375 C 1.78125,-3.625 2.5,-4.1875 3.125,-4.1875 c 0.640625,0 0.75,0.53125 0.75,1.109375 l 0,2.328125 c 0,0.4375 -0.109375,0.4375 -0.78125,0.4375 l 0,0.3125 c 0.34375,-0.015625 0.859375,-0.03125 1.125,-0.03125 0.25,0 0.78125,0.015625 1.109375,0.03125 l 0,-0.3125 c -0.515625,0 -0.765625,0 -0.765625,-0.296875 l 0,-1.90625 c 0,-0.859375 0,-1.15625 -0.3125,-1.515625 -0.140625,-0.171875 -0.46875,-0.375 -1.046875,-0.375 C 2.46875,-4.40625 2,-3.984375 1.71875,-3.359375 l 0,-1.046875 -1.40625,0.109375 0,0.3125 c 0.703125,0 0.78125,0.0625 0.78125,0.5625 z m 0,0"
               id="path42471"
               inkscape:connector-curvature="0" />
          </symbol>
        </g>
      </defs>
      <g
         id="textext-2d4a3231-12"
         style="stroke-width:0.48103464">
        <g
           style="fill:#000000;fill-opacity:1;stroke-width:0.48103464"
           id="g42474">
          <use
             xlink:href="#textext-2d4a3231-0"
             x="223.43201"
             y="134.765"
             id="use42476"
             width="1052.3622"
             height="744.09448"
             style="stroke-width:0.48103464" />
          <use
             xlink:href="#textext-2d4a3231-1"
             x="231.04243"
             y="134.765"
             id="use42478"
             width="1052.3622"
             height="744.09448"
             style="stroke-width:0.48103464" />
          <use
             xlink:href="#textext-2d4a3231-2"
             x="233.81004"
             y="134.765"
             id="use42480"
             width="1052.3622"
             height="744.09448"
             style="stroke-width:0.48103464" />
          <use
             xlink:href="#textext-2d4a3231-3"
             x="239.62123"
             y="134.765"
             id="use42482"
             width="1052.3622"
             height="744.09448"
             style="stroke-width:0.48103464" />
          <use
             xlink:href="#textext-2d4a3231-4"
             x="245.15645"
             y="134.765"
             id="use42484"
             width="1052.3622"
             height="744.09448"
             style="stroke-width:0.48103464" />
          <use
             xlink:href="#textext-2d4a3231-5"
             x="249.08569"
             y="134.765"
             id="use42486"
             width="1052.3622"
             height="744.09448"
             style="stroke-width:0.48103464" />
        </g>
        <g
           style="fill:#000000;fill-opacity:1;stroke-width:0.48103464"
           id="g42488">
          <use
             xlink:href="#textext-2d4a3231-6"
             x="256.83063"
             y="134.765"
             id="use42490"
             width="1052.3622"
             height="744.09448"
             style="stroke-width:0.48103464" />
          <use
             xlink:href="#textext-2d4a3231-5"
             x="264.16409"
             y="134.765"
             id="use42492"
             width="1052.3622"
             height="744.09448"
             style="stroke-width:0.48103464" />
          <use
             xlink:href="#textext-2d4a3231-7"
             x="268.59146"
             y="134.765"
             id="use42494"
             width="1052.3622"
             height="744.09448"
             style="stroke-width:0.48103464" />
          <use
             xlink:href="#textext-2d4a3231-5"
             x="274.12668"
             y="134.765"
             id="use42496"
             width="1052.3622"
             height="744.09448"
             style="stroke-width:0.48103464" />
          <use
             xlink:href="#textext-2d4a3231-8"
             x="278.55408"
             y="134.765"
             id="use42498"
             width="1052.3622"
             height="744.09448"
             style="stroke-width:0.48103464" />
          <use
             xlink:href="#textext-2d4a3231-9"
             x="283.81232"
             y="134.765"
             id="use42500"
             width="1052.3622"
             height="744.09448"
             style="stroke-width:0.48103464" />
          <use
             xlink:href="#textext-2d4a3231-1"
             x="287.6868"
             y="134.765"
             id="use42502"
             width="1052.3622"
             height="744.09448"
             style="stroke-width:0.48103464" />
          <use
             xlink:href="#textext-2d4a3231-10"
             x="290.45441"
             y="134.765"
             id="use42504"
             width="1052.3622"
             height="744.09448"
             style="stroke-width:0.48103464" />
          <use
             xlink:href="#textext-2d4a3231-11"
             x="295.4357"
             y="134.765"
             id="use42506"
             width="1052.3622"
             height="744.09448"
             style="stroke-width:0.48103464" />
        </g>
      </g>
    </g>
    <g
       id="g42974"
       style="fill:#000000;stroke:#000000;stroke-width:0.48103464"
       transform="matrix(2.07923,0,0,2.078475,-295.43313,530.46411)"
       ns0:preamble=""
       ns0:text="Direkte Reflektion"
       inkscape:export-filename="/home/waldgeist/data/pics/physik/Own/optik/reflexion-direkt-diffus.png"
       inkscape:export-xdpi="150"
       inkscape:export-ydpi="150">
      <defs
         id="defs42976">
        <g
           id="g42978">
          <symbol
             id="textext-23b79386-0"
             overflow="visible"
             style="overflow:visible">
            <path
               id="path42981"
               d="m 0.34375,-6.8125 0,0.3125 0.25,0 c 0.765625,0 0.78125,0.109375 0.78125,0.46875 l 0,5.25 c 0,0.359375 -0.015625,0.46875 -0.78125,0.46875 l -0.25,0 0,0.3125 L 4,0 C 5.671875,0 7.046875,-1.46875 7.046875,-3.34375 7.046875,-5.25 5.703125,-6.8125 4,-6.8125 z m 2.375,6.5 C 2.25,-0.3125 2.234375,-0.375 2.234375,-0.703125 l 0,-5.390625 C 2.234375,-6.4375 2.25,-6.5 2.71875,-6.5 l 1,0 c 0.625,0 1.3125,0.21875 1.8125,0.921875 0.4375,0.59375 0.515625,1.453125 0.515625,2.234375 0,1.09375 -0.1875,1.703125 -0.546875,2.1875 -0.203125,0.265625 -0.765625,0.84375 -1.765625,0.84375 z m 0,0"
               style="stroke:none"
               inkscape:connector-curvature="0" />
          </symbol>
          <symbol
             id="textext-23b79386-1"
             overflow="visible"
             style="overflow:visible">
            <path
               id="path42984"
               d="M 1.765625,-4.40625 0.375,-4.296875 l 0,0.3125 c 0.640625,0 0.734375,0.0625 0.734375,0.546875 l 0,2.6875 c 0,0.4375 -0.109375,0.4375 -0.78125,0.4375 l 0,0.3125 C 0.640625,-0.015625 1.1875,-0.03125 1.421875,-0.03125 1.78125,-0.03125 2.125,-0.015625 2.46875,0 l 0,-0.3125 c -0.671875,0 -0.703125,-0.046875 -0.703125,-0.4375 z m 0.03125,-1.734375 c 0,-0.3125 -0.234375,-0.53125 -0.515625,-0.53125 -0.3125,0 -0.53125,0.265625 -0.53125,0.53125 0,0.265625 0.21875,0.53125 0.53125,0.53125 0.28125,0 0.515625,-0.21875 0.515625,-0.53125 z m 0,0"
               style="stroke:none"
               inkscape:connector-curvature="0" />
          </symbol>
          <symbol
             id="textext-23b79386-2"
             overflow="visible"
             style="overflow:visible">
            <path
               id="path42987"
               d="m 1.671875,-3.3125 0,-1.09375 -1.390625,0.109375 0,0.3125 c 0.703125,0 0.78125,0.0625 0.78125,0.5625 l 0,2.671875 c 0,0.4375 -0.109375,0.4375 -0.78125,0.4375 l 0,0.3125 c 0.390625,-0.015625 0.859375,-0.03125 1.140625,-0.03125 0.390625,0 0.859375,0 1.265625,0.03125 l 0,-0.3125 -0.21875,0 c -0.734375,0 -0.75,-0.109375 -0.75,-0.46875 l 0,-1.53125 c 0,-0.984375 0.421875,-1.875 1.171875,-1.875 0.0625,0 0.09375,0 0.109375,0.015625 -0.03125,0 -0.234375,0.125 -0.234375,0.390625 0,0.265625 0.21875,0.421875 0.4375,0.421875 0.171875,0 0.421875,-0.125 0.421875,-0.4375 0,-0.3125 -0.3125,-0.609375 -0.734375,-0.609375 -0.734375,0 -1.09375,0.671875 -1.21875,1.09375 z m 0,0"
               style="stroke:none"
               inkscape:connector-curvature="0" />
          </symbol>
          <symbol
             id="textext-23b79386-3"
             overflow="visible"
             style="overflow:visible">
            <path
               id="path42990"
               d="M 1.109375,-2.515625 C 1.171875,-4 2.015625,-4.25 2.359375,-4.25 c 1.015625,0 1.125,1.34375 1.125,1.734375 z m 0,0.21875 2.78125,0 c 0.21875,0 0.25,0 0.25,-0.21875 0,-0.984375 -0.546875,-1.953125 -1.78125,-1.953125 -1.15625,0 -2.078125,1.03125 -2.078125,2.28125 0,1.328125 1.046875,2.296875 2.1875,2.296875 C 3.6875,0.109375 4.140625,-1 4.140625,-1.1875 4.140625,-1.28125 4.0625,-1.3125 4,-1.3125 c -0.078125,0 -0.109375,0.0625 -0.125,0.140625 -0.34375,1.03125 -1.25,1.03125 -1.34375,1.03125 -0.5,0 -0.890625,-0.296875 -1.125,-0.671875 -0.296875,-0.46875 -0.296875,-1.125 -0.296875,-1.484375 z m 0,0"
               style="stroke:none"
               inkscape:connector-curvature="0" />
          </symbol>
          <symbol
             id="textext-23b79386-4"
             overflow="visible"
             style="overflow:visible">
            <path
               id="path42993"
               d="m 1.0625,-0.75 c 0,0.4375 -0.109375,0.4375 -0.78125,0.4375 l 0,0.3125 c 0.328125,-0.015625 0.796875,-0.03125 1.078125,-0.03125 0.3125,0 0.703125,0.015625 1.109375,0.03125 l 0,-0.3125 c -0.671875,0 -0.78125,0 -0.78125,-0.4375 l 0,-1.03125 0.640625,-0.546875 c 0.765625,1.046875 1.1875,1.609375 1.1875,1.796875 0,0.1875 -0.171875,0.21875 -0.359375,0.21875 l 0,0.3125 c 0.265625,-0.015625 0.859375,-0.03125 1.078125,-0.03125 0.28125,0 0.578125,0.015625 0.859375,0.03125 l 0,-0.3125 c -0.375,0 -0.59375,0 -0.96875,-0.53125 L 2.859375,-2.625 c -0.015625,-0.015625 -0.0625,-0.078125 -0.0625,-0.109375 0,-0.03125 0.71875,-0.640625 0.8125,-0.71875 0.625,-0.5 1.046875,-0.53125 1.25,-0.53125 l 0,-0.3125 c -0.28125,0.03125 -0.40625,0.03125 -0.6875,0.03125 -0.359375,0 -0.984375,-0.015625 -1.125,-0.03125 l 0,0.3125 c 0.1875,0 0.296875,0.109375 0.296875,0.25 0,0.203125 -0.140625,0.3125 -0.21875,0.390625 l -1.40625,1.203125 0,-4.78125 -1.4375,0.109375 0,0.3125 c 0.703125,0 0.78125,0.0625 0.78125,0.5625 z m 0,0"
               style="stroke:none"
               inkscape:connector-curvature="0" />
          </symbol>
          <symbol
             id="textext-23b79386-5"
             overflow="visible"
             style="overflow:visible">
            <path
               id="path42996"
               d="m 1.71875,-3.984375 1.4375,0 0,-0.3125 -1.4375,0 0,-1.828125 -0.25,0 c 0,0.8125 -0.296875,1.875 -1.28125,1.921875 l 0,0.21875 0.84375,0 0,2.75 c 0,1.21875 0.9375,1.34375 1.296875,1.34375 0.703125,0 0.984375,-0.703125 0.984375,-1.34375 l 0,-0.5625 -0.25,0 0,0.546875 c 0,0.734375 -0.296875,1.109375 -0.671875,1.109375 -0.671875,0 -0.671875,-0.90625 -0.671875,-1.078125 z m 0,0"
               style="stroke:none"
               inkscape:connector-curvature="0" />
          </symbol>
          <symbol
             id="textext-23b79386-6"
             overflow="visible"
             style="overflow:visible">
            <path
               id="path42999"
               d="m 2.234375,-3.515625 0,-2.578125 c 0,-0.234375 0,-0.359375 0.21875,-0.390625 C 2.546875,-6.5 2.84375,-6.5 3.046875,-6.5 c 0.890625,0 2,0.046875 2,1.484375 0,0.6875 -0.234375,1.5 -1.703125,1.5 z m 2.109375,0.125 c 0.953125,-0.234375 1.734375,-0.84375 1.734375,-1.625 0,-0.953125 -1.140625,-1.796875 -2.59375,-1.796875 l -3.140625,0 0,0.3125 0.25,0 c 0.765625,0 0.78125,0.109375 0.78125,0.46875 l 0,5.25 c 0,0.359375 -0.015625,0.46875 -0.78125,0.46875 l -0.25,0 0,0.3125 c 0.359375,-0.03125 1.078125,-0.03125 1.453125,-0.03125 0.390625,0 1.109375,0 1.46875,0.03125 l 0,-0.3125 -0.25,0 c -0.765625,0 -0.78125,-0.109375 -0.78125,-0.46875 l 0,-2.515625 1.140625,0 c 0.15625,0 0.578125,0 0.9375,0.34375 0.375,0.34375 0.375,0.65625 0.375,1.328125 0,0.640625 0,1.046875 0.40625,1.421875 0.40625,0.359375 0.953125,0.421875 1.25,0.421875 0.78125,0 0.953125,-0.8125 0.953125,-1.09375 0,-0.0625 0,-0.171875 -0.125,-0.171875 -0.109375,0 -0.109375,0.09375 -0.125,0.15625 C 6.984375,-0.171875 6.640625,0 6.390625,0 5.90625,0 5.828125,-0.515625 5.6875,-1.4375 L 5.546875,-2.234375 C 5.375,-2.875 4.890625,-3.203125 4.34375,-3.390625 z m 0,0"
               style="stroke:none"
               inkscape:connector-curvature="0" />
          </symbol>
          <symbol
             id="textext-23b79386-7"
             overflow="visible"
             style="overflow:visible">
            <path
               id="path43002"
               d="m 3.8125,-3.984375 0,3.234375 c 0,0.4375 -0.109375,0.4375 -0.765625,0.4375 l 0,0.3125 c 0.328125,-0.015625 0.84375,-0.03125 1.09375,-0.03125 0.25,0 0.75,0.015625 1.109375,0.03125 l 0,-0.3125 c -0.671875,0 -0.78125,0 -0.78125,-0.4375 l 0,-6.171875 -0.359375,0.0625 C 4.078125,-6.859375 4.0625,-6.875 4.03125,-6.890625 3.703125,-7.03125 3.296875,-7.03125 3.1875,-7.03125 c -1.046875,0 -2.125,0.5625 -2.125,1.59375 l 0,1.140625 -0.796875,0 0,0.3125 0.796875,0 0,3.234375 c 0,0.4375 -0.109375,0.4375 -0.78125,0.4375 l 0,0.3125 C 0.609375,-0.015625 1.140625,-0.03125 1.390625,-0.03125 1.640625,-0.03125 2.125,-0.015625 2.5,0 l 0,-0.3125 c -0.671875,0 -0.78125,0 -0.78125,-0.4375 l 0,-3.234375 z m 0,-0.3125 -2.125,0 0,-1.125 c 0,-0.921875 0.75,-1.390625 1.5,-1.390625 0.078125,0 0.34375,0 0.625,0.09375 -0.078125,0.046875 -0.25,0.140625 -0.25,0.40625 0,0.171875 0.09375,0.328125 0.25,0.375 z m 0,0"
               style="stroke:none"
               inkscape:connector-curvature="0" />
          </symbol>
          <symbol
             id="textext-23b79386-8"
             overflow="visible"
             style="overflow:visible">
            <path
               id="path43005"
               d="M 4.6875,-2.140625 C 4.6875,-3.40625 3.703125,-4.46875 2.5,-4.46875 c -1.25,0 -2.21875,1.09375 -2.21875,2.328125 0,1.296875 1.03125,2.25 2.203125,2.25 1.203125,0 2.203125,-0.984375 2.203125,-2.25 z m -2.1875,2 c -0.4375,0 -0.875,-0.203125 -1.140625,-0.671875 -0.25,-0.4375 -0.25,-1.046875 -0.25,-1.40625 0,-0.390625 0,-0.921875 0.234375,-1.359375 C 1.609375,-4.03125 2.078125,-4.25 2.484375,-4.25 c 0.4375,0 0.859375,0.21875 1.125,0.65625 0.265625,0.421875 0.265625,1 0.265625,1.375 0,0.359375 0,0.90625 -0.21875,1.34375 C 3.421875,-0.421875 2.984375,-0.140625 2.5,-0.140625 z m 0,0"
               style="stroke:none"
               inkscape:connector-curvature="0" />
          </symbol>
          <symbol
             id="textext-23b79386-9"
             overflow="visible"
             style="overflow:visible">
            <path
               id="path43008"
               d="m 1.09375,-3.421875 0,2.671875 c 0,0.4375 -0.109375,0.4375 -0.78125,0.4375 l 0,0.3125 c 0.359375,-0.015625 0.859375,-0.03125 1.140625,-0.03125 0.25,0 0.765625,0.015625 1.109375,0.03125 l 0,-0.3125 c -0.671875,0 -0.78125,0 -0.78125,-0.4375 l 0,-1.84375 C 1.78125,-3.625 2.5,-4.1875 3.125,-4.1875 c 0.640625,0 0.75,0.53125 0.75,1.109375 l 0,2.328125 c 0,0.4375 -0.109375,0.4375 -0.78125,0.4375 l 0,0.3125 c 0.34375,-0.015625 0.859375,-0.03125 1.125,-0.03125 0.25,0 0.78125,0.015625 1.109375,0.03125 l 0,-0.3125 c -0.515625,0 -0.765625,0 -0.765625,-0.296875 l 0,-1.90625 c 0,-0.859375 0,-1.15625 -0.3125,-1.515625 -0.140625,-0.171875 -0.46875,-0.375 -1.046875,-0.375 C 2.46875,-4.40625 2,-3.984375 1.71875,-3.359375 l 0,-1.046875 -1.40625,0.109375 0,0.3125 c 0.703125,0 0.78125,0.0625 0.78125,0.5625 z m 0,0"
               style="stroke:none"
               inkscape:connector-curvature="0" />
          </symbol>
        </g>
      </defs>
      <g
         id="textext-23b79386-10"
         style="stroke-width:0.48103464">
        <g
           id="g43011"
           style="fill:#000000;fill-opacity:1;stroke-width:0.48103464">
          <use
             id="use43013"
             y="134.765"
             x="223.43201"
             xlink:href="#textext-23b79386-0"
             width="1052.3622"
             height="744.09448"
             style="stroke-width:0.48103464" />
          <use
             id="use43015"
             y="134.765"
             x="231.04243"
             xlink:href="#textext-23b79386-1"
             width="1052.3622"
             height="744.09448"
             style="stroke-width:0.48103464" />
          <use
             id="use43017"
             y="134.765"
             x="233.81004"
             xlink:href="#textext-23b79386-2"
             width="1052.3622"
             height="744.09448"
             style="stroke-width:0.48103464" />
          <use
             id="use43019"
             y="134.765"
             x="237.71239"
             xlink:href="#textext-23b79386-3"
             width="1052.3622"
             height="744.09448"
             style="stroke-width:0.48103464" />
          <use
             id="use43021"
             y="134.765"
             x="242.13977"
             xlink:href="#textext-23b79386-4"
             width="1052.3622"
             height="744.09448"
             style="stroke-width:0.48103464" />
          <use
             id="use43023"
             y="134.765"
             x="247.39803"
             xlink:href="#textext-23b79386-5"
             width="1052.3622"
             height="744.09448"
             style="stroke-width:0.48103464" />
          <use
             id="use43025"
             y="134.765"
             x="251.27249"
             xlink:href="#textext-23b79386-3"
             width="1052.3622"
             height="744.09448"
             style="stroke-width:0.48103464" />
        </g>
        <g
           id="g43027"
           style="fill:#000000;fill-opacity:1;stroke-width:0.48103464">
          <use
             id="use43029"
             y="134.765"
             x="259.01743"
             xlink:href="#textext-23b79386-6"
             width="1052.3622"
             height="744.09448"
             style="stroke-width:0.48103464" />
          <use
             id="use43031"
             y="134.765"
             x="266.35089"
             xlink:href="#textext-23b79386-3"
             width="1052.3622"
             height="744.09448"
             style="stroke-width:0.48103464" />
          <use
             id="use43033"
             y="134.765"
             x="270.77826"
             xlink:href="#textext-23b79386-7"
             width="1052.3622"
             height="744.09448"
             style="stroke-width:0.48103464" />
          <use
             id="use43035"
             y="134.765"
             x="276.31348"
             xlink:href="#textext-23b79386-3"
             width="1052.3622"
             height="744.09448"
             style="stroke-width:0.48103464" />
          <use
             id="use43037"
             y="134.765"
             x="280.74088"
             xlink:href="#textext-23b79386-4"
             width="1052.3622"
             height="744.09448"
             style="stroke-width:0.48103464" />
          <use
             id="use43039"
             y="134.765"
             x="285.99911"
             xlink:href="#textext-23b79386-5"
             width="1052.3622"
             height="744.09448"
             style="stroke-width:0.48103464" />
          <use
             id="use43041"
             y="134.765"
             x="289.87357"
             xlink:href="#textext-23b79386-1"
             width="1052.3622"
             height="744.09448"
             style="stroke-width:0.48103464" />
          <use
             id="use43043"
             y="134.765"
             x="292.64117"
             xlink:href="#textext-23b79386-8"
             width="1052.3622"
             height="744.09448"
             style="stroke-width:0.48103464" />
          <use
             id="use43045"
             y="134.765"
             x="297.6225"
             xlink:href="#textext-23b79386-9"
             width="1052.3622"
             height="744.09448"
             style="stroke-width:0.48103464" />
        </g>
      </g>
    </g>
  </g>
</svg>
