<svg xmlns:ns0="http://www.iki.fi/pav/software/textext/" xmlns="http://www.w3.org/2000/svg" xmlns:xlink="http://www.w3.org/1999/xlink" width="1052.362" height="744.094"><title>Direkte und diffuse Reflektion</title><defs><marker orient="auto" id="a" overflow="visible"><path d="M-4 0l-2 2 7-2-7-2 2 2z" fill-rule="evenodd" stroke="#000" stroke-width=".4pt"/></marker></defs><path fill="#fff" stroke="#fff" stroke-linejoin="round" d="M13.163 171.021h1026.036v377.81H13.163z"/><path style="marker:none" color="#000" fill="#f9f9f9" stroke="#f9f9f9" stroke-width=".427" stroke-linecap="round" stroke-dasharray="1.28196478,2.56392958" overflow="visible" d="M1012.059 441.35H580.716V209.865h431.343z"/><path style="marker:none" color="#000" fill="#f9f9f9" stroke="#f9f9f9" stroke-width=".427" stroke-linecap="round" stroke-dasharray="1.28196478,2.56392961" overflow="visible" d="M469.435 441.33H40.304V209.865h429.131z"/><g stroke-width="1.245" stroke-linecap="square"><path fill="#b3b3b3" stroke="#000" stroke-linejoin="round" d="M40.304 412.915h429.13v28.417H40.305z" stroke-width="1.9996194000000003"/><g transform="matrix(1.60612 0 0 1.60612 -313.6 -792.233)" marker-end="url(#a)"><g fill="#ff7f2a" stroke="#ff7f2a"><path d="M337.046 642.51l61.237 106.075M275.163 642.51l61.252 106.101M306.105 642.51l61.252 106.101M247.371 642.51L308.5 748.397"/></g><g fill="red" stroke="#d40000"><path d="M399.046 749.24l61.237-106.077M337.163 749.24l61.252-106.103M368.105 749.24l61.252-106.103M309.371 749.24L370.5 643.35"/></g></g></g><g stroke-width="1.245"><path d="M679.19 397.684l-.35.803-13.402 24.644-31.971-20.177-.653-.401-.452.652-8.231 11.544-34.481-9.587-.452-.1-.351.351-7.88 8.583-.201.251V431.312h-.05v10.038h431.343V403.556l-.653-.1-5.722-1.154-.3-.05-.252.1-13.451 6.725-18.57-7.327-.452-.15-.352.3-14.555 12.297-29.964-14.154-.402-.15-.351.2-9.938 6.074-13.953-7.228-.602-.351-.402.552-15.007 20.026-20.579-16.162-.401-.3-.452.25-40.303 20.428-4.92-10.64-.2-.15h-.301l-35.435 1.153h-.1l-.15.05-18.02 6.224-35.334-15.408-.552-.201-.402.452-10.44 12.698-39.6-19.424z" fill="#b3b3b3" stroke="#000" stroke-linejoin="round" stroke-width="1.9996194000000003"/><g transform="matrix(1.60612 0 0 1.60612 -397.77 -792.233)" marker-end="url(#a)"><g fill="#ff7f2a" stroke="#f95"><path d="M726.1 642.51l58.246 100.925M664.218 642.11l63.207 109.468" stroke-linecap="square"/><path d="M695.16 642.51l61.14 105.91M636.426 642.51l60.933 105.519"/></g><g fill="#d40000" stroke="#d40000" stroke-linecap="square"><path d="M784.941 743.989l-50.843-113.664M728.235 752.576L705.96 630.068M757.557 749.568l62.259-107.835M697.769 749.715l-108.15-47.744"/></g></g></g><g transform="matrix(2.07923 0 0 2.07848 -280.758 194.019)" ns0:text="Glatter Spiegel" stroke="#000" stroke-width=".481"><defs><symbol overflow="visible" id="b"><path d="M5.906-.625c.14.219.532.61.64.61.095 0 .095-.079.095-.22v-1.734c0-.39.03-.437.687-.437v-.313c-.375 0-.922.031-1.219.031-.39 0-1.25 0-1.609-.03v.312h.328c.89 0 .922.11.922.469v.64c0 1.125-1.266 1.203-1.547 1.203-.64 0-2.625-.344-2.625-3.312 0-2.985 1.969-3.313 2.563-3.313 1.078 0 1.984.89 2.171 2.36.032.14.032.171.172.171.157 0 .157-.03.157-.234v-2.36c0-.171 0-.25-.11-.25-.047 0-.078 0-.156.126l-.5.734c-.328-.312-.86-.86-1.844-.86-1.86 0-3.468 1.579-3.468 3.626C.563-1.36 2.155.219 4.046.219c.734 0 1.531-.266 1.86-.844zm0 0" stroke="none"/></symbol><symbol overflow="visible" id="c"><path d="M1.766-6.922l-1.438.11v.312c.703 0 .781.063.781.563V-.75c0 .438-.109.438-.78.438V0c.327-.016.859-.031 1.109-.031s.734.015 1.109.031v-.313c-.672 0-.781 0-.781-.437zm0 0" stroke="none"/></symbol><symbol overflow="visible" id="d"><path d="M3.313-.75c.046.39.312.813.78.813.22 0 .829-.141.829-.954v-.562h-.25v.562c0 .579-.25.641-.36.641-.328 0-.375-.453-.375-.5v-1.984c0-.422 0-.813-.359-1.188-.39-.39-.89-.547-1.36-.547-.827 0-1.515.469-1.515 1.125 0 .297.203.469.469.469a.435.435 0 0 0 .453-.453c0-.125-.047-.453-.516-.453.282-.36.766-.469 1.079-.469.5 0 1.062.39 1.062 1.281v.36c-.516.03-1.203.062-1.828.359-.75.344-1 .86-1 1.297 0 .812.969 1.062 1.594 1.062.656 0 1.109-.406 1.296-.859zM3.25-2.39v1c0 .937-.719 1.28-1.172 1.28-.484 0-.89-.343-.89-.843 0-.547.421-1.375 2.062-1.438zm0 0" stroke="none"/></symbol><symbol overflow="visible" id="e"><path d="M1.719-3.984h1.437v-.313H1.72v-1.828h-.25c0 .813-.297 1.875-1.282 1.922v.219h.844v2.75c0 1.218.938 1.343 1.297 1.343.703 0 .985-.703.985-1.343v-.563h-.25v.547c0 .734-.297 1.11-.672 1.11-.672 0-.672-.907-.672-1.079zm0 0" stroke="none"/></symbol><symbol overflow="visible" id="f"><path d="M1.11-2.516C1.171-4 2.015-4.25 2.36-4.25c1.015 0 1.124 1.344 1.124 1.734zm0 .22h2.78c.22 0 .25 0 .25-.22 0-.984-.546-1.953-1.78-1.953C1.202-4.469.28-3.437.28-2.187.281-.86 1.328.108 2.47.108 3.688.11 4.14-1 4.14-1.187c0-.094-.079-.125-.141-.125-.078 0-.11.062-.125.14C3.531-.14 2.625-.14 2.531-.14c-.5 0-.89-.296-1.125-.671-.297-.47-.297-1.125-.297-1.485zm0 0" stroke="none"/></symbol><symbol overflow="visible" id="g"><path d="M1.672-3.313v-1.093l-1.39.11v.312c.702 0 .78.062.78.562V-.75c0 .438-.109.438-.78.438V0c.39-.016.859-.031 1.14-.031.39 0 .86 0 1.266.031v-.313h-.22c-.734 0-.75-.109-.75-.468v-1.531c0-.985.423-1.876 1.173-1.876.062 0 .093 0 .109.016-.031 0-.234.125-.234.39 0 .266.218.423.437.423a.421.421 0 0 0 .422-.438c0-.312-.313-.61-.734-.61-.735 0-1.094.673-1.22 1.095zm0 0" stroke="none"/></symbol><symbol overflow="visible" id="h"><path d="M3.484-3.875l-1.28-.297c-.626-.156-1-.687-1-1.266 0-.703.53-1.312 1.312-1.312 1.656 0 1.875 1.64 1.937 2.078.016.063.016.125.125.125.125 0 .125-.047.125-.234v-2c0-.172 0-.25-.11-.25-.062 0-.077.015-.14.14l-.36.563c-.296-.297-.702-.703-1.593-.703-1.11 0-1.938.875-1.938 1.937 0 .828.532 1.563 1.297 1.828.11.032.625.157 1.329.329.265.062.562.14.843.5.203.265.313.593.313.921 0 .704-.5 1.422-1.344 1.422-.281 0-1.047-.047-1.578-.531-.578-.547-.61-1.172-.61-1.531-.015-.11-.093-.11-.125-.11-.125 0-.125.079-.125.25v2c0 .172 0 .235.11.235.062 0 .078-.016.14-.125 0-.016.032-.047.36-.578.312.343.953.703 1.844.703 1.156 0 1.953-.969 1.953-2.078 0-.985-.657-1.813-1.485-2.016zm0 0" stroke="none"/></symbol><symbol overflow="visible" id="i"><path d="M1.719-3.75v-.656l-1.438.11v.312c.703 0 .781.062.781.5v4.656c0 .453-.109.453-.78.453v.313c.343-.016.859-.032 1.109-.032.28 0 .78.016 1.125.032v-.313c-.657 0-.766 0-.766-.453V-.594c.047.172.469.703 1.219.703 1.187 0 2.219-.984 2.219-2.265 0-1.266-.954-2.25-2.079-2.25-.78 0-1.203.437-1.39.656zm.031 2.61v-2.22c.281-.515.766-.796 1.281-.796.735 0 1.328.875 1.328 2C4.36-.953 3.672-.11 2.938-.11c-.407 0-.782-.204-1.047-.61-.141-.203-.141-.219-.141-.422zm0 0" stroke="none"/></symbol><symbol overflow="visible" id="j"><path d="M1.766-4.406l-1.391.11v.312c.64 0 .734.062.734.546V-.75c0 .438-.109.438-.78.438V0c.312-.016.859-.031 1.093-.031.36 0 .703.015 1.047.031v-.313c-.672 0-.703-.046-.703-.437zm.03-1.735a.514.514 0 0 0-.515-.53.537.537 0 0 0-.531.53c0 .266.219.532.531.532a.514.514 0 0 0 .516-.532zm0 0" stroke="none"/></symbol><symbol overflow="visible" id="k"><path d="M2.219-1.719c-.875 0-.875-1-.875-1.218 0-.266.015-.594.156-.844.078-.11.313-.39.719-.39.86 0 .86.984.86 1.218 0 .265 0 .594-.157.844-.078.109-.313.39-.703.39zm-1.156.39c0-.03 0-.265.156-.468.39.281.812.313 1 .313.922 0 1.61-.688 1.61-1.454 0-.374-.157-.734-.407-.968.36-.344.719-.39.89-.39.032 0 .079 0 .11.015-.11.031-.172.14-.172.265 0 .172.14.282.297.282a.28.28 0 0 0 .281-.297c0-.172-.11-.485-.5-.485-.203 0-.64.063-1.062.47a1.652 1.652 0 0 0-1.047-.36c-.938 0-1.625.687-1.625 1.453 0 .437.219.812.469 1.031-.125.14-.313.469-.313.828 0 .313.14.688.453.89-.61.157-.922.595-.922.985 0 .719.985 1.266 2.203 1.266 1.172 0 2.204-.5 2.204-1.281 0-.344-.125-.86-.641-1.141-.531-.266-1.11-.266-1.719-.266-.25 0-.672 0-.75-.015-.312-.047-.516-.344-.516-.672zM2.5 1.829C1.484 1.828.797 1.312.797.781c0-.453.375-.828.812-.844h.594c.86 0 1.969 0 1.969.844 0 .547-.703 1.047-1.672 1.047zm0 0" stroke="none"/></symbol></defs><use height="744.094" width="1052.362" xlink:href="#b" x="223.432" y="134.765"/><use height="744.094" width="1052.362" xlink:href="#c" x="231.25" y="134.765"/><use height="744.094" width="1052.362" xlink:href="#d" x="234.017" y="134.765"/><use height="744.094" width="1052.362" xlink:href="#e" x="238.999" y="134.765"/><use height="744.094" width="1052.362" xlink:href="#e" x="242.873" y="134.765"/><use height="744.094" width="1052.362" xlink:href="#f" x="246.747" y="134.765"/><use height="744.094" width="1052.362" xlink:href="#g" x="251.175" y="134.765"/><g><use height="744.094" width="1052.362" xlink:href="#h" x="258.395" y="134.765"/><use height="744.094" width="1052.362" xlink:href="#i" x="263.93" y="134.765"/><use height="744.094" width="1052.362" xlink:href="#j" x="269.465" y="134.765"/><use height="744.094" width="1052.362" xlink:href="#f" x="272.233" y="134.765"/><use height="744.094" width="1052.362" xlink:href="#k" x="276.66" y="134.765"/><use height="744.094" width="1052.362" xlink:href="#f" x="281.641" y="134.765"/><use height="744.094" width="1052.362" xlink:href="#c" x="286.069" y="134.765"/></g></g><g transform="matrix(2.07923 0 0 2.07848 263.625 194.019)" ns0:text="Rauher Spiegel" stroke="#000" stroke-width=".481"><defs><symbol id="l" overflow="visible"><path d="M2.234-3.516v-2.578c0-.234 0-.36.22-.39.093-.016.39-.016.593-.016.89 0 2 .047 2 1.484 0 .688-.234 1.5-1.703 1.5zm2.11.125c.953-.234 1.734-.843 1.734-1.625 0-.953-1.14-1.796-2.594-1.796H.344v.312h.25c.765 0 .781.11.781.469v5.25c0 .36-.016.469-.781.469h-.25V0c.36-.031 1.078-.031 1.453-.031.39 0 1.11 0 1.469.031v-.313h-.25c-.766 0-.782-.109-.782-.468v-2.516h1.141c.156 0 .578 0 .938.344.375.344.375.656.375 1.328 0 .64 0 1.047.406 1.422.406.36.953.422 1.25.422.781 0 .953-.813.953-1.094 0-.063 0-.172-.125-.172-.11 0-.11.094-.125.156C6.984-.17 6.64 0 6.39 0c-.485 0-.563-.516-.704-1.438l-.14-.796c-.172-.641-.656-.97-1.203-1.157zm0 0" stroke="none"/></symbol><symbol id="m" overflow="visible"><path d="M3.313-.75c.046.39.312.813.78.813.22 0 .829-.141.829-.954v-.562h-.25v.562c0 .579-.25.641-.36.641-.328 0-.375-.453-.375-.5v-1.984c0-.422 0-.813-.359-1.188-.39-.39-.89-.547-1.36-.547-.827 0-1.515.469-1.515 1.125 0 .297.203.469.469.469a.435.435 0 0 0 .453-.453c0-.125-.047-.453-.516-.453.282-.36.766-.469 1.079-.469.5 0 1.062.39 1.062 1.281v.36c-.516.03-1.203.062-1.828.359-.75.344-1 .86-1 1.297 0 .812.969 1.062 1.594 1.062.656 0 1.109-.406 1.296-.859zM3.25-2.39v1c0 .937-.719 1.28-1.172 1.28-.484 0-.89-.343-.89-.843 0-.547.421-1.375 2.062-1.438zm0 0" stroke="none"/></symbol><symbol id="n" overflow="visible"><path d="M3.89-.781v.89L5.329 0v-.313c-.687 0-.766-.062-.766-.562v-3.531l-1.468.11v.312c.687 0 .781.062.781.562v1.766c0 .875-.484 1.547-1.219 1.547-.828 0-.875-.47-.875-.985v-3.312l-1.468.11v.312c.78 0 .78.03.78.906v1.5c0 .781 0 1.687 1.516 1.687.563 0 1-.28 1.282-.89zm0 0" stroke="none"/></symbol><symbol id="o" overflow="visible"><path d="M1.094-.75c0 .438-.11.438-.782.438V0c.36-.016.86-.031 1.141-.031.25 0 .766.015 1.11.031v-.313c-.672 0-.782 0-.782-.437v-1.844c0-1.031.719-1.594 1.344-1.594.64 0 .75.532.75 1.11V-.75c0 .438-.11.438-.781.438V0c.344-.016.86-.031 1.125-.031.25 0 .781.015 1.11.031v-.313c-.516 0-.766 0-.766-.296v-1.907c0-.859 0-1.156-.313-1.515-.14-.172-.469-.375-1.047-.375-.844 0-1.281.593-1.453.984v-3.5l-1.438.11v.312c.704 0 .782.063.782.563zm0 0" stroke="none"/></symbol><symbol id="p" overflow="visible"><path d="M1.11-2.516C1.171-4 2.015-4.25 2.36-4.25c1.015 0 1.124 1.344 1.124 1.734zm0 .22h2.78c.22 0 .25 0 .25-.22 0-.984-.546-1.953-1.78-1.953C1.202-4.469.28-3.437.28-2.187.281-.86 1.328.108 2.47.108 3.688.11 4.14-1 4.14-1.187c0-.094-.079-.125-.141-.125-.078 0-.11.062-.125.14C3.531-.14 2.625-.14 2.531-.14c-.5 0-.89-.296-1.125-.671-.297-.47-.297-1.125-.297-1.485zm0 0" stroke="none"/></symbol><symbol id="q" overflow="visible"><path d="M1.672-3.313v-1.093l-1.39.11v.312c.702 0 .78.062.78.562V-.75c0 .438-.109.438-.78.438V0c.39-.016.859-.031 1.14-.031.39 0 .86 0 1.266.031v-.313h-.22c-.734 0-.75-.109-.75-.468v-1.531c0-.985.423-1.876 1.173-1.876.062 0 .093 0 .109.016-.031 0-.234.125-.234.39 0 .266.218.423.437.423a.421.421 0 0 0 .422-.438c0-.312-.313-.61-.734-.61-.735 0-1.094.673-1.22 1.095zm0 0" stroke="none"/></symbol><symbol id="r" overflow="visible"><path d="M3.484-3.875l-1.28-.297c-.626-.156-1-.687-1-1.266 0-.703.53-1.312 1.312-1.312 1.656 0 1.875 1.64 1.937 2.078.016.063.016.125.125.125.125 0 .125-.047.125-.234v-2c0-.172 0-.25-.11-.25-.062 0-.077.015-.14.14l-.36.563c-.296-.297-.702-.703-1.593-.703-1.11 0-1.938.875-1.938 1.937 0 .828.532 1.563 1.297 1.828.11.032.625.157 1.329.329.265.062.562.14.843.5.203.265.313.593.313.921 0 .704-.5 1.422-1.344 1.422-.281 0-1.047-.047-1.578-.531-.578-.547-.61-1.172-.61-1.531-.015-.11-.093-.11-.125-.11-.125 0-.125.079-.125.25v2c0 .172 0 .235.11.235.062 0 .078-.016.14-.125 0-.016.032-.047.36-.578.312.343.953.703 1.844.703 1.156 0 1.953-.969 1.953-2.078 0-.985-.657-1.813-1.485-2.016zm0 0" stroke="none"/></symbol><symbol id="s" overflow="visible"><path d="M1.719-3.75v-.656l-1.438.11v.312c.703 0 .781.062.781.5v4.656c0 .453-.109.453-.78.453v.313c.343-.016.859-.032 1.109-.032.28 0 .78.016 1.125.032v-.313c-.657 0-.766 0-.766-.453V-.594c.047.172.469.703 1.219.703 1.187 0 2.219-.984 2.219-2.265 0-1.266-.954-2.25-2.079-2.25-.78 0-1.203.437-1.39.656zm.031 2.61v-2.22c.281-.515.766-.796 1.281-.796.735 0 1.328.875 1.328 2C4.36-.953 3.672-.11 2.938-.11c-.407 0-.782-.204-1.047-.61-.141-.203-.141-.219-.141-.422zm0 0" stroke="none"/></symbol><symbol id="t" overflow="visible"><path d="M1.766-4.406l-1.391.11v.312c.64 0 .734.062.734.546V-.75c0 .438-.109.438-.78.438V0c.312-.016.859-.031 1.093-.031.36 0 .703.015 1.047.031v-.313c-.672 0-.703-.046-.703-.437zm.03-1.735a.514.514 0 0 0-.515-.53.537.537 0 0 0-.531.53c0 .266.219.532.531.532a.514.514 0 0 0 .516-.532zm0 0" stroke="none"/></symbol><symbol id="u" overflow="visible"><path d="M2.219-1.719c-.875 0-.875-1-.875-1.218 0-.266.015-.594.156-.844.078-.11.313-.39.719-.39.86 0 .86.984.86 1.218 0 .265 0 .594-.157.844-.078.109-.313.39-.703.39zm-1.156.39c0-.03 0-.265.156-.468.39.281.812.313 1 .313.922 0 1.61-.688 1.61-1.454 0-.374-.157-.734-.407-.968.36-.344.719-.39.89-.39.032 0 .079 0 .11.015-.11.031-.172.14-.172.265 0 .172.14.282.297.282a.28.28 0 0 0 .281-.297c0-.172-.11-.485-.5-.485-.203 0-.64.063-1.062.47a1.652 1.652 0 0 0-1.047-.36c-.938 0-1.625.687-1.625 1.453 0 .437.219.812.469 1.031-.125.14-.313.469-.313.828 0 .313.14.688.453.89-.61.157-.922.595-.922.985 0 .719.985 1.266 2.203 1.266 1.172 0 2.204-.5 2.204-1.281 0-.344-.125-.86-.641-1.141-.531-.266-1.11-.266-1.719-.266-.25 0-.672 0-.75-.015-.312-.047-.516-.344-.516-.672zM2.5 1.829C1.484 1.828.797 1.312.797.781c0-.453.375-.828.812-.844h.594c.86 0 1.969 0 1.969.844 0 .547-.703 1.047-1.672 1.047zm0 0" stroke="none"/></symbol><symbol id="v" overflow="visible"><path d="M1.766-6.922l-1.438.11v.312c.703 0 .781.063.781.563V-.75c0 .438-.109.438-.78.438V0c.327-.016.859-.031 1.109-.031s.734.015 1.109.031v-.313c-.672 0-.781 0-.781-.437zm0 0" stroke="none"/></symbol></defs><use y="134.765" x="223.432" xlink:href="#l" width="1052.362" height="744.094"/><use y="134.765" x="230.765" xlink:href="#m" width="1052.362" height="744.094"/><use y="134.765" x="235.747" xlink:href="#n" width="1052.362" height="744.094"/><use y="134.765" x="241.282" xlink:href="#o" width="1052.362" height="744.094"/><use y="134.765" x="246.817" xlink:href="#p" width="1052.362" height="744.094"/><use y="134.765" x="251.245" xlink:href="#q" width="1052.362" height="744.094"/><g><use y="134.765" x="258.464" xlink:href="#r" width="1052.362" height="744.094"/><use y="134.765" x="264" xlink:href="#s" width="1052.362" height="744.094"/><use y="134.765" x="269.535" xlink:href="#t" width="1052.362" height="744.094"/><use y="134.765" x="272.303" xlink:href="#p" width="1052.362" height="744.094"/><use y="134.765" x="276.73" xlink:href="#u" width="1052.362" height="744.094"/><use y="134.765" x="281.711" xlink:href="#p" width="1052.362" height="744.094"/><use y="134.765" x="286.139" xlink:href="#v" width="1052.362" height="744.094"/></g></g><g ns0:text="Diffuse Reflektion" transform="matrix(2.07923 0 0 2.07848 251.068 222.196)" stroke="#000" stroke-width=".481"><defs><symbol overflow="visible" id="w"><path d="M.344-6.813v.313h.25c.765 0 .781.11.781.469v5.25c0 .36-.016.469-.781.469h-.25V0H4c1.672 0 3.047-1.469 3.047-3.344C7.047-5.25 5.703-6.813 4-6.813zm2.375 6.5c-.469 0-.485-.062-.485-.39v-5.39c0-.345.016-.407.485-.407h1c.625 0 1.312.219 1.812.922.438.594.516 1.453.516 2.234 0 1.094-.188 1.703-.547 2.188a2.192 2.192 0 0 1-1.766.843zm0 0" stroke="none"/></symbol><symbol overflow="visible" id="x"><path d="M1.766-4.406l-1.391.11v.312c.64 0 .734.062.734.546V-.75c0 .438-.109.438-.78.438V0c.312-.016.859-.031 1.093-.031.36 0 .703.015 1.047.031v-.313c-.672 0-.703-.046-.703-.437zm.03-1.735a.514.514 0 0 0-.515-.53.537.537 0 0 0-.531.53c0 .266.219.532.531.532a.514.514 0 0 0 .516-.532zm0 0" stroke="none"/></symbol><symbol overflow="visible" id="y"><path d="M4.469-3.984h1.14v-.313H4.438v-1.156c0-.89.484-1.36.921-1.36.032 0 .188 0 .329.079a.443.443 0 0 0-.297.421c0 .22.156.422.437.422s.438-.203.438-.437c0-.36-.36-.703-.907-.703-.593 0-1.03.375-1.078.422-.297-.375-.86-.422-1.125-.422-.937 0-2.094.515-2.094 1.593v1.141H.266v.313h.796V-.75c0 .438-.109.438-.78.438V0c.327-.016.859-.031 1.109-.031S2.125-.016 2.5 0v-.313c-.672 0-.781 0-.781-.437v-3.234h2.093V-.75c0 .438-.109.438-.78.438V0c.39-.016.859-.031 1.14-.031.39 0 .86 0 1.266.031v-.313h-.22c-.734 0-.75-.109-.75-.468zm-2.782-.313v-1.125c0-.969.813-1.39 1.47-1.39.484 0 .765.187.765.187v.016a.413.413 0 0 0-.36.421c0 .063 0 .313.282.407-.031.125-.031.218-.031.343v1.141zm0 0" stroke="none"/></symbol><symbol overflow="visible" id="z"><path d="M3.89-.781v.89L5.329 0v-.313c-.687 0-.766-.062-.766-.562v-3.531l-1.468.11v.312c.687 0 .781.062.781.562v1.766c0 .875-.484 1.547-1.219 1.547-.828 0-.875-.47-.875-.985v-3.312l-1.468.11v.312c.78 0 .78.03.78.906v1.5c0 .781 0 1.687 1.516 1.687.563 0 1-.28 1.282-.89zm0 0" stroke="none"/></symbol><symbol overflow="visible" id="A"><path d="M2.078-1.938c.219.047 1.031.204 1.031.922 0 .5-.343.907-1.125.907-.843 0-1.203-.563-1.39-1.422-.031-.125-.031-.157-.14-.157-.126 0-.126.063-.126.235v1.328c0 .172 0 .234.11.234C.483.11.5.094.688-.094.703-.109.703-.125.89-.312c.437.406.89.421 1.093.421 1.141 0 1.61-.671 1.61-1.39 0-.516-.297-.828-.422-.938-.328-.328-.719-.406-1.14-.484-.563-.11-1.22-.235-1.22-.813 0-.359.25-.765 1.11-.765 1.094 0 1.156.906 1.172 1.203 0 .094.094.094.11.094.14 0 .14-.047.14-.235v-1.015c0-.157 0-.235-.11-.235-.046 0-.078 0-.203.125-.031.032-.125.125-.172.157-.375-.282-.78-.282-.937-.282-1.219 0-1.594.672-1.594 1.235 0 .343.156.625.422.843.328.25.61.313 1.328.454zm0 0" stroke="none"/></symbol><symbol overflow="visible" id="B"><path d="M1.11-2.516C1.171-4 2.015-4.25 2.36-4.25c1.015 0 1.124 1.344 1.124 1.734zm0 .22h2.78c.22 0 .25 0 .25-.22 0-.984-.546-1.953-1.78-1.953C1.202-4.469.28-3.437.28-2.187.281-.86 1.328.108 2.47.108 3.688.11 4.14-1 4.14-1.187c0-.094-.079-.125-.141-.125-.078 0-.11.062-.125.14C3.531-.14 2.625-.14 2.531-.14c-.5 0-.89-.296-1.125-.671-.297-.47-.297-1.125-.297-1.485zm0 0" stroke="none"/></symbol><symbol overflow="visible" id="C"><path d="M2.234-3.516v-2.578c0-.234 0-.36.22-.39.093-.016.39-.016.593-.016.89 0 2 .047 2 1.484 0 .688-.234 1.5-1.703 1.5zm2.11.125c.953-.234 1.734-.843 1.734-1.625 0-.953-1.14-1.796-2.594-1.796H.344v.312h.25c.765 0 .781.11.781.469v5.25c0 .36-.016.469-.781.469h-.25V0c.36-.031 1.078-.031 1.453-.031.39 0 1.11 0 1.469.031v-.313h-.25c-.766 0-.782-.109-.782-.468v-2.516h1.141c.156 0 .578 0 .938.344.375.344.375.656.375 1.328 0 .64 0 1.047.406 1.422.406.36.953.422 1.25.422.781 0 .953-.813.953-1.094 0-.063 0-.172-.125-.172-.11 0-.11.094-.125.156C6.984-.17 6.64 0 6.39 0c-.485 0-.563-.516-.704-1.438l-.14-.796c-.172-.641-.656-.97-1.203-1.157zm0 0" stroke="none"/></symbol><symbol overflow="visible" id="D"><path d="M3.813-3.984V-.75c0 .438-.11.438-.766.438V0c.328-.016.844-.031 1.094-.031.25 0 .75.015 1.109.031v-.313c-.672 0-.781 0-.781-.437v-6.172l-.36.063c-.03 0-.046-.016-.078-.032-.328-.14-.734-.14-.843-.14-1.047 0-2.126.562-2.126 1.593v1.141H.266v.313h.796V-.75c0 .438-.109.438-.78.438V0c.327-.016.859-.031 1.109-.031S2.125-.016 2.5 0v-.313c-.672 0-.781 0-.781-.437v-3.234zm0-.313H1.687v-1.125c0-.922.75-1.39 1.5-1.39.079 0 .344 0 .626.093-.079.047-.25.14-.25.407 0 .171.093.328.25.375zm0 0" stroke="none"/></symbol><symbol overflow="visible" id="E"><path d="M1.063-.75c0 .438-.11.438-.782.438V0c.328-.016.797-.031 1.078-.031.313 0 .704.015 1.11.031v-.313c-.672 0-.781 0-.781-.437v-1.031l.64-.547c.766 1.047 1.188 1.61 1.188 1.797 0 .187-.172.219-.36.219V0c.266-.016.86-.031 1.078-.031.282 0 .579.015.86.031v-.313c-.375 0-.594 0-.969-.53L2.859-2.626c-.015-.016-.062-.078-.062-.11 0-.03.719-.64.812-.718.625-.5 1.047-.531 1.25-.531v-.313c-.28.031-.406.031-.687.031-.36 0-.984-.015-1.125-.03v.312c.187 0 .297.109.297.25 0 .203-.14.312-.219.39L1.719-2.14v-4.78L.28-6.813v.312c.703 0 .781.063.781.563zm0 0" stroke="none"/></symbol><symbol overflow="visible" id="F"><path d="M1.719-3.984h1.437v-.313H1.72v-1.828h-.25c0 .813-.297 1.875-1.282 1.922v.219h.844v2.75c0 1.218.938 1.343 1.297 1.343.703 0 .985-.703.985-1.343v-.563h-.25v.547c0 .734-.297 1.11-.672 1.11-.672 0-.672-.907-.672-1.079zm0 0" stroke="none"/></symbol><symbol overflow="visible" id="G"><path d="M4.688-2.14c0-1.266-.985-2.329-2.188-2.329C1.25-4.469.281-3.375.281-2.14A2.22 2.22 0 0 0 2.484.11c1.204 0 2.204-.984 2.204-2.25zM2.5-.14c-.438 0-.875-.204-1.14-.672-.25-.438-.25-1.047-.25-1.407 0-.39 0-.922.234-1.36a1.347 1.347 0 0 1 1.14-.671c.438 0 .86.219 1.125.656.266.422.266 1 .266 1.375 0 .36 0 .906-.219 1.344-.234.453-.672.734-1.156.734zm0 0" stroke="none"/></symbol><symbol overflow="visible" id="H"><path d="M1.094-3.422V-.75c0 .438-.11.438-.782.438V0c.36-.016.86-.031 1.141-.031.25 0 .766.015 1.11.031v-.313c-.672 0-.782 0-.782-.437v-1.844c0-1.031.719-1.594 1.344-1.594.64 0 .75.532.75 1.11V-.75c0 .438-.11.438-.781.438V0c.344-.016.86-.031 1.125-.031.25 0 .781.015 1.11.031v-.313c-.516 0-.766 0-.766-.296v-1.907c0-.859 0-1.156-.313-1.515-.14-.172-.469-.375-1.047-.375-.734 0-1.203.422-1.484 1.047v-1.047l-1.407.11v.312c.704 0 .782.062.782.562zm0 0" stroke="none"/></symbol></defs><use xlink:href="#w" x="223.432" y="134.765" width="1052.362" height="744.094"/><use xlink:href="#x" x="231.042" y="134.765" width="1052.362" height="744.094"/><use xlink:href="#y" x="233.81" y="134.765" width="1052.362" height="744.094"/><use xlink:href="#z" x="239.621" y="134.765" width="1052.362" height="744.094"/><use xlink:href="#A" x="245.156" y="134.765" width="1052.362" height="744.094"/><use xlink:href="#B" x="249.086" y="134.765" width="1052.362" height="744.094"/><g><use xlink:href="#C" x="256.831" y="134.765" width="1052.362" height="744.094"/><use xlink:href="#B" x="264.164" y="134.765" width="1052.362" height="744.094"/><use xlink:href="#D" x="268.591" y="134.765" width="1052.362" height="744.094"/><use xlink:href="#B" x="274.127" y="134.765" width="1052.362" height="744.094"/><use xlink:href="#E" x="278.554" y="134.765" width="1052.362" height="744.094"/><use xlink:href="#F" x="283.812" y="134.765" width="1052.362" height="744.094"/><use xlink:href="#x" x="287.687" y="134.765" width="1052.362" height="744.094"/><use xlink:href="#G" x="290.454" y="134.765" width="1052.362" height="744.094"/><use xlink:href="#H" x="295.436" y="134.765" width="1052.362" height="744.094"/></g></g><g transform="matrix(2.07923 0 0 2.07848 -295.433 222.196)" ns0:text="Direkte Reflektion" stroke="#000" stroke-width=".481"><defs><symbol id="I" overflow="visible"><path d="M.344-6.813v.313h.25c.765 0 .781.11.781.469v5.25c0 .36-.016.469-.781.469h-.25V0H4c1.672 0 3.047-1.469 3.047-3.344C7.047-5.25 5.703-6.813 4-6.813zm2.375 6.5c-.469 0-.485-.062-.485-.39v-5.39c0-.345.016-.407.485-.407h1c.625 0 1.312.219 1.812.922.438.594.516 1.453.516 2.234 0 1.094-.188 1.703-.547 2.188a2.192 2.192 0 0 1-1.766.843zm0 0" stroke="none"/></symbol><symbol id="J" overflow="visible"><path d="M1.766-4.406l-1.391.11v.312c.64 0 .734.062.734.546V-.75c0 .438-.109.438-.78.438V0c.312-.016.859-.031 1.093-.031.36 0 .703.015 1.047.031v-.313c-.672 0-.703-.046-.703-.437zm.03-1.735a.514.514 0 0 0-.515-.53.537.537 0 0 0-.531.53c0 .266.219.532.531.532a.514.514 0 0 0 .516-.532zm0 0" stroke="none"/></symbol><symbol id="K" overflow="visible"><path d="M1.672-3.313v-1.093l-1.39.11v.312c.702 0 .78.062.78.562V-.75c0 .438-.109.438-.78.438V0c.39-.016.859-.031 1.14-.031.39 0 .86 0 1.266.031v-.313h-.22c-.734 0-.75-.109-.75-.468v-1.531c0-.985.423-1.876 1.173-1.876.062 0 .093 0 .109.016-.031 0-.234.125-.234.39 0 .266.218.423.437.423a.421.421 0 0 0 .422-.438c0-.312-.313-.61-.734-.61-.735 0-1.094.673-1.22 1.095zm0 0" stroke="none"/></symbol><symbol id="L" overflow="visible"><path d="M1.11-2.516C1.171-4 2.015-4.25 2.36-4.25c1.015 0 1.124 1.344 1.124 1.734zm0 .22h2.78c.22 0 .25 0 .25-.22 0-.984-.546-1.953-1.78-1.953C1.202-4.469.28-3.437.28-2.187.281-.86 1.328.108 2.47.108 3.688.11 4.14-1 4.14-1.187c0-.094-.079-.125-.141-.125-.078 0-.11.062-.125.14C3.531-.14 2.625-.14 2.531-.14c-.5 0-.89-.296-1.125-.671-.297-.47-.297-1.125-.297-1.485zm0 0" stroke="none"/></symbol><symbol id="M" overflow="visible"><path d="M1.063-.75c0 .438-.11.438-.782.438V0c.328-.016.797-.031 1.078-.031.313 0 .704.015 1.11.031v-.313c-.672 0-.781 0-.781-.437v-1.031l.64-.547c.766 1.047 1.188 1.61 1.188 1.797 0 .187-.172.219-.36.219V0c.266-.016.86-.031 1.078-.031.282 0 .579.015.86.031v-.313c-.375 0-.594 0-.969-.53L2.859-2.626c-.015-.016-.062-.078-.062-.11 0-.03.719-.64.812-.718.625-.5 1.047-.531 1.25-.531v-.313c-.28.031-.406.031-.687.031-.36 0-.984-.015-1.125-.03v.312c.187 0 .297.109.297.25 0 .203-.14.312-.219.39L1.719-2.14v-4.78L.28-6.813v.312c.703 0 .781.063.781.563zm0 0" stroke="none"/></symbol><symbol id="N" overflow="visible"><path d="M1.719-3.984h1.437v-.313H1.72v-1.828h-.25c0 .813-.297 1.875-1.282 1.922v.219h.844v2.75c0 1.218.938 1.343 1.297 1.343.703 0 .985-.703.985-1.343v-.563h-.25v.547c0 .734-.297 1.11-.672 1.11-.672 0-.672-.907-.672-1.079zm0 0" stroke="none"/></symbol><symbol id="O" overflow="visible"><path d="M2.234-3.516v-2.578c0-.234 0-.36.22-.39.093-.016.39-.016.593-.016.89 0 2 .047 2 1.484 0 .688-.234 1.5-1.703 1.5zm2.11.125c.953-.234 1.734-.843 1.734-1.625 0-.953-1.14-1.796-2.594-1.796H.344v.312h.25c.765 0 .781.11.781.469v5.25c0 .36-.016.469-.781.469h-.25V0c.36-.031 1.078-.031 1.453-.031.39 0 1.11 0 1.469.031v-.313h-.25c-.766 0-.782-.109-.782-.468v-2.516h1.141c.156 0 .578 0 .938.344.375.344.375.656.375 1.328 0 .64 0 1.047.406 1.422.406.36.953.422 1.25.422.781 0 .953-.813.953-1.094 0-.063 0-.172-.125-.172-.11 0-.11.094-.125.156C6.984-.17 6.64 0 6.39 0c-.485 0-.563-.516-.704-1.438l-.14-.796c-.172-.641-.656-.97-1.203-1.157zm0 0" stroke="none"/></symbol><symbol id="P" overflow="visible"><path d="M3.813-3.984V-.75c0 .438-.11.438-.766.438V0c.328-.016.844-.031 1.094-.031.25 0 .75.015 1.109.031v-.313c-.672 0-.781 0-.781-.437v-6.172l-.36.063c-.03 0-.046-.016-.078-.032-.328-.14-.734-.14-.843-.14-1.047 0-2.126.562-2.126 1.593v1.141H.266v.313h.796V-.75c0 .438-.109.438-.78.438V0c.327-.016.859-.031 1.109-.031S2.125-.016 2.5 0v-.313c-.672 0-.781 0-.781-.437v-3.234zm0-.313H1.687v-1.125c0-.922.75-1.39 1.5-1.39.079 0 .344 0 .626.093-.079.047-.25.14-.25.407 0 .171.093.328.25.375zm0 0" stroke="none"/></symbol><symbol id="Q" overflow="visible"><path d="M4.688-2.14c0-1.266-.985-2.329-2.188-2.329C1.25-4.469.281-3.375.281-2.14A2.22 2.22 0 0 0 2.484.11c1.204 0 2.204-.984 2.204-2.25zM2.5-.14c-.438 0-.875-.204-1.14-.672-.25-.438-.25-1.047-.25-1.407 0-.39 0-.922.234-1.36a1.347 1.347 0 0 1 1.14-.671c.438 0 .86.219 1.125.656.266.422.266 1 .266 1.375 0 .36 0 .906-.219 1.344-.234.453-.672.734-1.156.734zm0 0" stroke="none"/></symbol><symbol id="R" overflow="visible"><path d="M1.094-3.422V-.75c0 .438-.11.438-.782.438V0c.36-.016.86-.031 1.141-.031.25 0 .766.015 1.11.031v-.313c-.672 0-.782 0-.782-.437v-1.844c0-1.031.719-1.594 1.344-1.594.64 0 .75.532.75 1.11V-.75c0 .438-.11.438-.781.438V0c.344-.016.86-.031 1.125-.031.25 0 .781.015 1.11.031v-.313c-.516 0-.766 0-.766-.296v-1.907c0-.859 0-1.156-.313-1.515-.14-.172-.469-.375-1.047-.375-.734 0-1.203.422-1.484 1.047v-1.047l-1.407.11v.312c.704 0 .782.062.782.562zm0 0" stroke="none"/></symbol></defs><use y="134.765" x="223.432" xlink:href="#I" width="1052.362" height="744.094"/><use y="134.765" x="231.042" xlink:href="#J" width="1052.362" height="744.094"/><use y="134.765" x="233.81" xlink:href="#K" width="1052.362" height="744.094"/><use y="134.765" x="237.712" xlink:href="#L" width="1052.362" height="744.094"/><use y="134.765" x="242.14" xlink:href="#M" width="1052.362" height="744.094"/><use y="134.765" x="247.398" xlink:href="#N" width="1052.362" height="744.094"/><use y="134.765" x="251.272" xlink:href="#L" width="1052.362" height="744.094"/><g><use y="134.765" x="259.017" xlink:href="#O" width="1052.362" height="744.094"/><use y="134.765" x="266.351" xlink:href="#L" width="1052.362" height="744.094"/><use y="134.765" x="270.778" xlink:href="#P" width="1052.362" height="744.094"/><use y="134.765" x="276.313" xlink:href="#L" width="1052.362" height="744.094"/><use y="134.765" x="280.741" xlink:href="#M" width="1052.362" height="744.094"/><use y="134.765" x="285.999" xlink:href="#N" width="1052.362" height="744.094"/><use y="134.765" x="289.874" xlink:href="#J" width="1052.362" height="744.094"/><use y="134.765" x="292.641" xlink:href="#Q" width="1052.362" height="744.094"/><use y="134.765" x="297.623" xlink:href="#R" width="1052.362" height="744.094"/></g></g></svg>