<?xml version="1.0" encoding="UTF-8" standalone="no"?>
<!-- Created with Inkscape (http://www.inkscape.org/) -->

<svg
   xmlns:ns0="http://www.iki.fi/pav/software/textext/"
   xmlns:dc="http://purl.org/dc/elements/1.1/"
   xmlns:cc="http://creativecommons.org/ns#"
   xmlns:rdf="http://www.w3.org/1999/02/22-rdf-syntax-ns#"
   xmlns:svg="http://www.w3.org/2000/svg"
   xmlns="http://www.w3.org/2000/svg"
   xmlns:xlink="http://www.w3.org/1999/xlink"
   xmlns:sodipodi="http://sodipodi.sourceforge.net/DTD/sodipodi-0.dtd"
   xmlns:inkscape="http://www.inkscape.org/namespaces/inkscape"
   width="1052.3622"
   height="744.09448"
   id="svg5032"
   version="1.1"
   inkscape:version="0.48.3.1 r9886"
   sodipodi:docname="schatten-sonnenfinsternis.svg">
  <title
     id="title3455">Die Sonnenfinsternis</title>
  <sodipodi:namedview
     id="base"
     pagecolor="#ffffff"
     bordercolor="#666666"
     borderopacity="1.0"
     inkscape:pageopacity="0.0"
     inkscape:pageshadow="2"
     inkscape:zoom="0.75390625"
     inkscape:cx="580.40264"
     inkscape:cy="644.47641"
     inkscape:document-units="px"
     inkscape:current-layer="layer1"
     showgrid="false"
     inkscape:snap-object-midpoints="true"
     inkscape:snap-center="true"
     inkscape:snap-smooth-nodes="true"
     inkscape:object-nodes="true"
     inkscape:snap-midpoints="true"
     inkscape:object-paths="true"
     inkscape:snap-global="false"
     inkscape:window-width="1280"
     inkscape:window-height="974"
     inkscape:window-x="0"
     inkscape:window-y="0"
     inkscape:window-maximized="1"
     inkscape:snap-intersection-paths="false"
     showguides="true"
     inkscape:guide-bbox="true">
    <sodipodi:guide
       id="guide3203"
       position="275.71427,380.98041"
       orientation="0,1" />
    <sodipodi:guide
       orientation="1,0"
       position="888.57141,500.04354"
       id="guide4653" />
  </sodipodi:namedview>
  <defs
     id="defs5034">
    <linearGradient
       id="linearGradient4778">
      <stop
         style="stop-color:#000000;stop-opacity:1;"
         offset="0"
         id="stop4780" />
      <stop
         style="stop-color:#b4b4b4;stop-opacity:1;"
         offset="1"
         id="stop4782" />
    </linearGradient>
    <linearGradient
       id="linearGradient5570">
      <stop
         id="stop5572"
         offset="0"
         style="stop-color:#000000;stop-opacity:1;" />
      <stop
         id="stop5574"
         offset="1"
         style="stop-color:#ffffff;stop-opacity:1;" />
    </linearGradient>
    <linearGradient
       y2="352.66592"
       x2="894.28571"
       y1="352.66592"
       x1="794.28571"
       gradientUnits="userSpaceOnUse"
       id="linearGradient5586"
       xlink:href="#linearGradient5570"
       inkscape:collect="always" />
    <linearGradient
       y2="352.66592"
       x2="895.28571"
       y1="352.66592"
       x1="794.28571"
       gradientUnits="userSpaceOnUse"
       id="linearGradient5590"
       xlink:href="#linearGradient5570"
       inkscape:collect="always" />
    <linearGradient
       y2="370.36703"
       x2="892.72394"
       y1="339.56274"
       x1="780.02576"
       gradientUnits="userSpaceOnUse"
       id="linearGradient5594"
       xlink:href="#linearGradient5570"
       inkscape:collect="always" />
    <linearGradient
       y2="352.66592"
       x2="894.28571"
       y1="352.53818"
       x1="694.28577"
       gradientUnits="userSpaceOnUse"
       id="linearGradient6497"
       xlink:href="#linearGradient5570"
       inkscape:collect="always" />
    <linearGradient
       y2="352.66592"
       x2="894.28571"
       y1="352.53818"
       x1="694.28577"
       gradientUnits="userSpaceOnUse"
       id="linearGradient3994"
       xlink:href="#linearGradient5570"
       inkscape:collect="always" />
    <linearGradient
       y2="352.66592"
       x2="894.28571"
       y1="352.53818"
       x1="694.28577"
       gradientUnits="userSpaceOnUse"
       id="linearGradient4002"
       xlink:href="#linearGradient5570"
       inkscape:collect="always" />
    <linearGradient
       inkscape:collect="always"
       xlink:href="#linearGradient5570"
       id="linearGradient3101"
       gradientUnits="userSpaceOnUse"
       x1="694.28632"
       y1="353.01401"
       x2="898.39954"
       y2="352.66602" />
    <radialGradient
       inkscape:collect="always"
       xlink:href="#linearGradient4778"
       id="radialGradient4774"
       cx="165.55974"
       cy="668.10651"
       fx="165.55974"
       fy="668.10651"
       r="11.161625"
       gradientTransform="matrix(-1.2705563,-1.373948,1.3674742,-1.2645697,-515.56975,1743.7194)"
       gradientUnits="userSpaceOnUse" />
    <filter
       inkscape:collect="always"
       id="filter4888"
       x="-0.31396333"
       width="1.6279267"
       y="-0.19424084"
       height="1.3884817">
      <feGaussianBlur
         inkscape:collect="always"
         stdDeviation="2.8984375"
         id="feGaussianBlur4890" />
    </filter>
  </defs>
  <metadata
     id="metadata5037">
    <rdf:RDF>
      <cc:Work
         rdf:about="">
        <dc:format>image/svg+xml</dc:format>
        <dc:type
           rdf:resource="http://purl.org/dc/dcmitype/StillImage" />
        <dc:title>Die Sonnenfinsternis</dc:title>
        <dc:date>2013-05-24</dc:date>
        <dc:creator>
          <cc:Agent>
            <dc:title>Bernhard Grotz</dc:title>
          </cc:Agent>
        </dc:creator>
        <dc:rights>
          <cc:Agent>
            <dc:title>Bernhard Grotz</dc:title>
          </cc:Agent>
        </dc:rights>
        <dc:publisher>
          <cc:Agent>
            <dc:title>Bernhard Grotz</dc:title>
          </cc:Agent>
        </dc:publisher>
        <dc:language>de_DE</dc:language>
        <dc:subject>
          <rdf:Bag>
            <rdf:li>Physik</rdf:li>
            <rdf:li>Optik</rdf:li>
            <rdf:li>Schatten</rdf:li>
            <rdf:li>Kernschatten</rdf:li>
            <rdf:li>Mond</rdf:li>
            <rdf:li>Sonnenfinsternis</rdf:li>
            <rdf:li>Astronomie</rdf:li>
          </rdf:Bag>
        </dc:subject>
        <cc:license
           rdf:resource="http://creativecommons.org/licenses/by-nc-sa/3.0/" />
      </cc:Work>
      <cc:License
         rdf:about="http://creativecommons.org/licenses/by-nc-sa/3.0/">
        <cc:permits
           rdf:resource="http://creativecommons.org/ns#Reproduction" />
        <cc:permits
           rdf:resource="http://creativecommons.org/ns#Distribution" />
        <cc:requires
           rdf:resource="http://creativecommons.org/ns#Notice" />
        <cc:requires
           rdf:resource="http://creativecommons.org/ns#Attribution" />
        <cc:prohibits
           rdf:resource="http://creativecommons.org/ns#CommercialUse" />
        <cc:permits
           rdf:resource="http://creativecommons.org/ns#DerivativeWorks" />
        <cc:requires
           rdf:resource="http://creativecommons.org/ns#ShareAlike" />
      </cc:License>
    </rdf:RDF>
  </metadata>
  <g
     transform="translate(0,-308.2677)"
     id="layer1"
     inkscape:groupmode="layer"
     inkscape:label="Ebene 1">
    <rect
       style="fill:#ffffff;stroke:#ffffff;stroke-width:0.167;stroke-miterlimit:4;stroke-dasharray:none;stroke-dashoffset:0"
       id="rect4892"
       width="1019.5169"
       height="331.08023"
       x="16.422638"
       y="514.77484"
       inkscape:export-filename="/home/waldgeist/data/pics/physik/Own/optik/schatten-sonnenfinsternis.png"
       inkscape:export-xdpi="150"
       inkscape:export-ydpi="150" />
    <path
       style="fill:#b3b3b3;stroke:#b3b3b3;stroke-width:1px;stroke-linecap:butt;stroke-linejoin:miter;stroke-opacity:1"
       d="m 232.60402,371.47935 -49.12508,9.54304 0,-35.81667 49.12508,9.54306 0,16.73057"
       id="path4776"
       inkscape:connector-curvature="0"
       transform="translate(0,308.2677)"
       inkscape:export-filename="/home/waldgeist/data/pics/physik/Own/optik/schatten-sonnenfinsternis.png"
       inkscape:export-xdpi="150"
       inkscape:export-ydpi="150" />
    <path
       style="fill:#808080;stroke:#808080"
       d="m 232.60402,371.47935 -44.78396,-6.95674 -0.2487,-3.23159 45.03266,-6.54224 0,16.73057"
       id="path4756"
       inkscape:connector-curvature="0"
       transform="translate(0,308.2677)"
       inkscape:export-filename="/home/waldgeist/data/pics/physik/Own/optik/schatten-sonnenfinsternis.png"
       inkscape:export-xdpi="150"
       inkscape:export-ydpi="150"
       sodipodi:nodetypes="ccccc" />
    <path
       transform="matrix(1.1906313,0,0,1.1906313,-57.130017,251.48668)"
       d="m 894.28571,352.66592 c 0,55.22848 -44.77153,100 -100,100 -55.22848,0 -100,-44.77152 -100,-100 0,-55.22847 44.77152,-100 100,-100 55.22847,0 100,44.77153 100,100 z"
       sodipodi:ry="100"
       sodipodi:rx="100"
       sodipodi:cy="352.66592"
       sodipodi:cx="794.28571"
       id="path5040"
       style="color:#000000;fill:#ffcc00;fill-opacity:1;fill-rule:nonzero;stroke:#808080;stroke-width:0.83989057000000000;marker:none;visibility:visible;display:inline;overflow:visible;enable-background:accumulate"
       sodipodi:type="arc"
       inkscape:export-filename="/home/waldgeist/data/pics/physik/Own/optik/schatten-sonnenfinsternis.png"
       inkscape:export-xdpi="150"
       inkscape:export-ydpi="150" />
    <path
       transform="matrix(0.39989022,0,0,0.39989022,-169.91281,530.35411)"
       d="m 894.28571,352.66592 c 0,55.22848 -44.77153,100 -100,100 -55.22848,0 -100,-44.77152 -100,-100 0,-55.22847 44.77152,-100 100,-100 55.22847,0 100,44.77153 100,100 z"
       sodipodi:ry="100"
       sodipodi:rx="100"
       sodipodi:cy="352.66592"
       sodipodi:cx="794.28571"
       id="path6495"
       style="color:#000000;fill:url(#linearGradient6497);fill-opacity:1;fill-rule:nonzero;stroke:#808080;stroke-width:2.50068641;stroke-linecap:round;stroke-linejoin:bevel;stroke-miterlimit:4;stroke-opacity:1;stroke-dasharray:none;stroke-dashoffset:0;marker:none;visibility:visible;display:inline;overflow:visible;enable-background:accumulate"
       sodipodi:type="arc"
       inkscape:export-filename="/home/waldgeist/data/pics/physik/Own/optik/schatten-sonnenfinsternis.png"
       inkscape:export-xdpi="150"
       inkscape:export-ydpi="150" />
    <g
       ns0:text="Sonne\n"
       ns0:preamble="/home/waldgeist/data/sphinx/inkscape-preamble.tex"
       transform="matrix(1.5,0,0,1.5,533.70583,335.22796)"
       id="g3172"
       inkscape:export-filename="/home/waldgeist/data/pics/physik/Own/optik/schatten-sonnenfinsternis.png"
       inkscape:export-xdpi="150"
       inkscape:export-ydpi="150">
      <defs
         id="defs3174">
        <g
           id="g3176">
          <symbol
             style="overflow:visible"
             overflow="visible"
             id="textext-c5da5f79-0">
            <path
               inkscape:connector-curvature="0"
               style="stroke:none"
               d="m 3.484375,-3.875 -1.28125,-0.296875 c -0.625,-0.15625 -1,-0.6875 -1,-1.265625 0,-0.703125 0.53125,-1.3125 1.3125,-1.3125 1.65625,0 1.875,1.640625 1.9375,2.078125 0.015625,0.0625 0.015625,0.125 0.125,0.125 0.125,0 0.125,-0.046875 0.125,-0.234375 l 0,-2 c 0,-0.171875 0,-0.25 -0.109375,-0.25 -0.0625,0 -0.078125,0.015625 -0.140625,0.140625 l -0.359375,0.5625 C 3.796875,-6.625 3.390625,-7.03125 2.5,-7.03125 c -1.109375,0 -1.9375,0.875 -1.9375,1.9375 0,0.828125 0.53125,1.5625 1.296875,1.828125 0.109375,0.03125 0.625,0.15625 1.328125,0.328125 0.265625,0.0625 0.5625,0.140625 0.84375,0.5 0.203125,0.265625 0.3125,0.59375 0.3125,0.921875 0,0.703125 -0.5,1.421875 -1.34375,1.421875 -0.28125,0 -1.046875,-0.046875 -1.578125,-0.53125 C 0.84375,-1.171875 0.8125,-1.796875 0.8125,-2.15625 0.796875,-2.265625 0.71875,-2.265625 0.6875,-2.265625 c -0.125,0 -0.125,0.078125 -0.125,0.25 l 0,2 c 0,0.171875 0,0.234375 0.109375,0.234375 0.0625,0 0.078125,-0.015625 0.140625,-0.125 0,-0.015625 0.03125,-0.046875 0.359375,-0.578125 0.3125,0.34375 0.953125,0.703125 1.84375,0.703125 1.15625,0 1.953125,-0.96875 1.953125,-2.078125 0,-0.984375 -0.65625,-1.8125 -1.484375,-2.015625 z m 0,0"
               id="path3179" />
          </symbol>
          <symbol
             style="overflow:visible"
             overflow="visible"
             id="textext-c5da5f79-1">
            <path
               inkscape:connector-curvature="0"
               style="stroke:none"
               d="M 4.6875,-2.140625 C 4.6875,-3.40625 3.703125,-4.46875 2.5,-4.46875 c -1.25,0 -2.21875,1.09375 -2.21875,2.328125 0,1.296875 1.03125,2.25 2.203125,2.25 1.203125,0 2.203125,-0.984375 2.203125,-2.25 z m -2.1875,2 c -0.4375,0 -0.875,-0.203125 -1.140625,-0.671875 -0.25,-0.4375 -0.25,-1.046875 -0.25,-1.40625 0,-0.390625 0,-0.921875 0.234375,-1.359375 C 1.609375,-4.03125 2.078125,-4.25 2.484375,-4.25 c 0.4375,0 0.859375,0.21875 1.125,0.65625 0.265625,0.421875 0.265625,1 0.265625,1.375 0,0.359375 0,0.90625 -0.21875,1.34375 C 3.421875,-0.421875 2.984375,-0.140625 2.5,-0.140625 z m 0,0"
               id="path3182" />
          </symbol>
          <symbol
             style="overflow:visible"
             overflow="visible"
             id="textext-c5da5f79-2">
            <path
               inkscape:connector-curvature="0"
               style="stroke:none"
               d="m 1.09375,-3.421875 0,2.671875 c 0,0.4375 -0.109375,0.4375 -0.78125,0.4375 l 0,0.3125 c 0.359375,-0.015625 0.859375,-0.03125 1.140625,-0.03125 0.25,0 0.765625,0.015625 1.109375,0.03125 l 0,-0.3125 c -0.671875,0 -0.78125,0 -0.78125,-0.4375 l 0,-1.84375 C 1.78125,-3.625 2.5,-4.1875 3.125,-4.1875 c 0.640625,0 0.75,0.53125 0.75,1.109375 l 0,2.328125 c 0,0.4375 -0.109375,0.4375 -0.78125,0.4375 l 0,0.3125 c 0.34375,-0.015625 0.859375,-0.03125 1.125,-0.03125 0.25,0 0.78125,0.015625 1.109375,0.03125 l 0,-0.3125 c -0.515625,0 -0.765625,0 -0.765625,-0.296875 l 0,-1.90625 c 0,-0.859375 0,-1.15625 -0.3125,-1.515625 -0.140625,-0.171875 -0.46875,-0.375 -1.046875,-0.375 C 2.46875,-4.40625 2,-3.984375 1.71875,-3.359375 l 0,-1.046875 -1.40625,0.109375 0,0.3125 c 0.703125,0 0.78125,0.0625 0.78125,0.5625 z m 0,0"
               id="path3185" />
          </symbol>
          <symbol
             style="overflow:visible"
             overflow="visible"
             id="textext-c5da5f79-3">
            <path
               inkscape:connector-curvature="0"
               style="stroke:none"
               d="M 1.109375,-2.515625 C 1.171875,-4 2.015625,-4.25 2.359375,-4.25 c 1.015625,0 1.125,1.34375 1.125,1.734375 z m 0,0.21875 2.78125,0 c 0.21875,0 0.25,0 0.25,-0.21875 0,-0.984375 -0.546875,-1.953125 -1.78125,-1.953125 -1.15625,0 -2.078125,1.03125 -2.078125,2.28125 0,1.328125 1.046875,2.296875 2.1875,2.296875 C 3.6875,0.109375 4.140625,-1 4.140625,-1.1875 4.140625,-1.28125 4.0625,-1.3125 4,-1.3125 c -0.078125,0 -0.109375,0.0625 -0.125,0.140625 -0.34375,1.03125 -1.25,1.03125 -1.34375,1.03125 -0.5,0 -0.890625,-0.296875 -1.125,-0.671875 -0.296875,-0.46875 -0.296875,-1.125 -0.296875,-1.484375 z m 0,0"
               id="path3188" />
          </symbol>
        </g>
      </defs>
      <g
         id="textext-c5da5f79-4">
        <g
           style="fill:#000000;fill-opacity:1"
           id="g3191">
          <use
             height="744.09448"
             width="1052.3622"
             xlink:href="#textext-c5da5f79-0"
             x="223.43201"
             y="134.765"
             id="use3193" />
          <use
             height="744.09448"
             width="1052.3622"
             xlink:href="#textext-c5da5f79-1"
             x="228.96722"
             y="134.765"
             id="use3195" />
          <use
             height="744.09448"
             width="1052.3622"
             xlink:href="#textext-c5da5f79-2"
             x="233.94852"
             y="134.765"
             id="use3197" />
          <use
             height="744.09448"
             width="1052.3622"
             xlink:href="#textext-c5da5f79-2"
             x="239.48373"
             y="134.765"
             id="use3199" />
          <use
             height="744.09448"
             width="1052.3622"
             xlink:href="#textext-c5da5f79-3"
             x="245.01897"
             y="134.765"
             id="use3201" />
        </g>
      </g>
    </g>
    <g
       id="g3353"
       transform="matrix(1.5,0,0,1.5,-202.94888,411.93945)"
       ns0:preamble="/home/waldgeist/data/sphinx/inkscape-preamble.tex"
       ns0:text="Erde"
       inkscape:export-filename="/home/waldgeist/data/pics/physik/Own/optik/schatten-sonnenfinsternis.png"
       inkscape:export-xdpi="150"
       inkscape:export-ydpi="150">
      <defs
         id="defs3355">
        <g
           id="g3357">
          <symbol
             id="textext-8ca5b91e-0"
             overflow="visible"
             style="overflow:visible">
            <path
               id="path3360"
               d="m 1.359375,-0.78125 c 0,0.359375 -0.03125,0.46875 -0.796875,0.46875 l -0.234375,0 0,0.3125 5.75,0 L 6.5,-2.578125 l -0.25,0 C 6,-1.03125 5.765625,-0.3125 4.0625,-0.3125 l -1.328125,0 C 2.265625,-0.3125 2.25,-0.375 2.25,-0.703125 l 0,-2.671875 0.890625,0 c 0.96875,0 1.078125,0.328125 1.078125,1.171875 l 0.25,0 0,-2.640625 -0.25,0 c 0,0.859375 -0.109375,1.171875 -1.078125,1.171875 l -0.890625,0 0,-2.40625 c 0,-0.328125 0.015625,-0.390625 0.484375,-0.390625 l 1.28125,0 c 1.53125,0 1.796875,0.546875 1.953125,1.9375 l 0.25,0 -0.28125,-2.25 -5.609375,0 0,0.3125 0.234375,0 c 0.765625,0 0.796875,0.109375 0.796875,0.46875 z m 0,0"
               style="stroke:none"
               inkscape:connector-curvature="0" />
          </symbol>
          <symbol
             id="textext-8ca5b91e-1"
             overflow="visible"
             style="overflow:visible">
            <path
               id="path3363"
               d="m 1.671875,-3.3125 0,-1.09375 -1.390625,0.109375 0,0.3125 c 0.703125,0 0.78125,0.0625 0.78125,0.5625 l 0,2.671875 c 0,0.4375 -0.109375,0.4375 -0.78125,0.4375 l 0,0.3125 c 0.390625,-0.015625 0.859375,-0.03125 1.140625,-0.03125 0.390625,0 0.859375,0 1.265625,0.03125 l 0,-0.3125 -0.21875,0 c -0.734375,0 -0.75,-0.109375 -0.75,-0.46875 l 0,-1.53125 c 0,-0.984375 0.421875,-1.875 1.171875,-1.875 0.0625,0 0.09375,0 0.109375,0.015625 -0.03125,0 -0.234375,0.125 -0.234375,0.390625 0,0.265625 0.21875,0.421875 0.4375,0.421875 0.171875,0 0.421875,-0.125 0.421875,-0.4375 0,-0.3125 -0.3125,-0.609375 -0.734375,-0.609375 -0.734375,0 -1.09375,0.671875 -1.21875,1.09375 z m 0,0"
               style="stroke:none"
               inkscape:connector-curvature="0" />
          </symbol>
          <symbol
             id="textext-8ca5b91e-2"
             overflow="visible"
             style="overflow:visible">
            <path
               id="path3366"
               d="m 3.78125,-0.546875 0,0.65625 L 5.25,0 l 0,-0.3125 c -0.6875,0 -0.78125,-0.0625 -0.78125,-0.5625 l 0,-6.046875 -1.421875,0.109375 0,0.3125 c 0.6875,0 0.765625,0.0625 0.765625,0.5625 l 0,2.15625 c -0.28125,-0.359375 -0.71875,-0.625 -1.25,-0.625 -1.171875,0 -2.21875,0.984375 -2.21875,2.265625 0,1.265625 0.96875,2.25 2.109375,2.25 0.640625,0 1.078125,-0.34375 1.328125,-0.65625 z m 0,-2.671875 0,2.046875 c 0,0.171875 0,0.1875 -0.109375,0.359375 C 3.375,-0.328125 2.9375,-0.109375 2.5,-0.109375 2.046875,-0.109375 1.6875,-0.375 1.453125,-0.75 1.203125,-1.15625 1.171875,-1.71875 1.171875,-2.140625 1.171875,-2.5 1.1875,-3.09375 1.46875,-3.546875 1.6875,-3.859375 2.0625,-4.1875 2.609375,-4.1875 c 0.34375,0 0.765625,0.15625 1.0625,0.59375 0.109375,0.171875 0.109375,0.1875 0.109375,0.375 z m 0,0"
               style="stroke:none"
               inkscape:connector-curvature="0" />
          </symbol>
          <symbol
             id="textext-8ca5b91e-3"
             overflow="visible"
             style="overflow:visible">
            <path
               id="path3369"
               d="M 1.109375,-2.515625 C 1.171875,-4 2.015625,-4.25 2.359375,-4.25 c 1.015625,0 1.125,1.34375 1.125,1.734375 z m 0,0.21875 2.78125,0 c 0.21875,0 0.25,0 0.25,-0.21875 0,-0.984375 -0.546875,-1.953125 -1.78125,-1.953125 -1.15625,0 -2.078125,1.03125 -2.078125,2.28125 0,1.328125 1.046875,2.296875 2.1875,2.296875 C 3.6875,0.109375 4.140625,-1 4.140625,-1.1875 4.140625,-1.28125 4.0625,-1.3125 4,-1.3125 c -0.078125,0 -0.109375,0.0625 -0.125,0.140625 -0.34375,1.03125 -1.25,1.03125 -1.34375,1.03125 -0.5,0 -0.890625,-0.296875 -1.125,-0.671875 -0.296875,-0.46875 -0.296875,-1.125 -0.296875,-1.484375 z m 0,0"
               style="stroke:none"
               inkscape:connector-curvature="0" />
          </symbol>
        </g>
      </defs>
      <g
         id="textext-8ca5b91e-4">
        <g
           id="g3372"
           style="fill:#000000;fill-opacity:1">
          <use
             id="use3374"
             y="134.765"
             x="223.43201"
             xlink:href="#textext-8ca5b91e-0"
             width="1052.3622"
             height="744.09448" />
          <use
             id="use3376"
             y="134.765"
             x="230.21254"
             xlink:href="#textext-8ca5b91e-1"
             width="1052.3622"
             height="744.09448" />
          <use
             id="use3378"
             y="134.765"
             x="234.1149"
             xlink:href="#textext-8ca5b91e-2"
             width="1052.3622"
             height="744.09448" />
          <use
             id="use3380"
             y="134.765"
             x="239.65012"
             xlink:href="#textext-8ca5b91e-3"
             width="1052.3622"
             height="744.09448" />
        </g>
      </g>
    </g>
    <path
       transform="matrix(0.85759203,0,0,0.85759203,-533.45887,368.93826)"
       d="m 894.28571,352.66592 c 0,55.22848 -44.77153,100 -100,100 -55.22848,0 -100,-44.77152 -100,-100 0,-55.22847 44.77152,-100 100,-100 55.22847,0 100,44.77153 100,100 z"
       sodipodi:ry="100"
       sodipodi:rx="100"
       sodipodi:cy="352.66592"
       sodipodi:cx="794.28571"
       id="path5044"
       style="color:#000000;fill:none;stroke:#999999;stroke-width:1.16605544;stroke-linecap:round;stroke-linejoin:bevel;stroke-miterlimit:4;stroke-opacity:1;stroke-dasharray:1.16605554, 3.49816663;stroke-dashoffset:0;marker:none;visibility:visible;display:inline;overflow:visible;enable-background:accumulate"
       sodipodi:type="arc"
       inkscape:export-filename="/home/waldgeist/data/pics/physik/Own/optik/schatten-sonnenfinsternis.png"
       inkscape:export-xdpi="150"
       inkscape:export-ydpi="150" />
    <path
       transform="matrix(0.08365281,0,0,0.08365281,166.15979,641.88027)"
       d="m 894.28571,352.66592 c 0,55.22848 -44.77153,100 -100,100 -55.22848,0 -100,-44.77152 -100,-100 0,-55.22847 44.77152,-100 100,-100 55.22847,0 100,44.77153 100,100 z"
       sodipodi:ry="100"
       sodipodi:rx="100"
       sodipodi:cy="352.66592"
       sodipodi:cx="794.28571"
       id="path3099"
       style="color:#000000;fill:url(#linearGradient3101);fill-opacity:1;fill-rule:nonzero;stroke:#b2b2b2;stroke-width:2.98854276;stroke-linecap:round;stroke-linejoin:bevel;stroke-miterlimit:4;stroke-opacity:1;stroke-dasharray:none;stroke-dashoffset:0;marker:none;visibility:visible;display:inline;overflow:visible;enable-background:accumulate"
       sodipodi:type="arc"
       inkscape:export-filename="/home/waldgeist/data/pics/physik/Own/optik/schatten-sonnenfinsternis.png"
       inkscape:export-xdpi="150"
       inkscape:export-ydpi="150" />
    <path
       inkscape:connector-curvature="0"
       id="path3871"
       d="M 183.31314,690.45071 888.57136,552.3186"
       style="fill:none;stroke:#ff6600;stroke-width:1.5;stroke-linecap:round;stroke-linejoin:miter;stroke-opacity:1"
       sodipodi:nodetypes="cc"
       inkscape:export-filename="/home/waldgeist/data/pics/physik/Own/optik/schatten-sonnenfinsternis.png"
       inkscape:export-xdpi="150"
       inkscape:export-ydpi="150" />
    <path
       sodipodi:nodetypes="cc"
       style="fill:none;stroke:#ff6600;stroke-width:1.5;stroke-linecap:round;stroke-linejoin:miter;stroke-opacity:1"
       d="M 182.81573,652.147 888.57138,790.44488"
       id="path3889"
       inkscape:connector-curvature="0"
       inkscape:export-filename="/home/waldgeist/data/pics/physik/Own/optik/schatten-sonnenfinsternis.png"
       inkscape:export-xdpi="150"
       inkscape:export-ydpi="150" />
    <path
       inkscape:connector-curvature="0"
       id="path4229"
       d="M 187.86151,669.43437 888.57136,552.31862"
       style="fill:none;stroke:#ff6600;stroke-width:1.5;stroke-linecap:round;stroke-linejoin:miter;stroke-opacity:1"
       sodipodi:nodetypes="cc"
       inkscape:export-filename="/home/waldgeist/data/pics/physik/Own/optik/schatten-sonnenfinsternis.png"
       inkscape:export-xdpi="150"
       inkscape:export-ydpi="150" />
    <path
       style="fill:none;stroke:#ff6600;stroke-width:1.5;stroke-linecap:round;stroke-linejoin:miter;stroke-opacity:1"
       d="M 188.11022,673.57788 888.57136,790.44487"
       id="path4231"
       inkscape:connector-curvature="0"
       sodipodi:nodetypes="cc"
       inkscape:export-filename="/home/waldgeist/data/pics/physik/Own/optik/schatten-sonnenfinsternis.png"
       inkscape:export-xdpi="150"
       inkscape:export-ydpi="150" />
    <g
       id="g3031"
       ns0:preamble="/home/waldgeist/data/sphinx/inkscape-preamble.tex"
       ns0:text="Mond"
       transform="matrix(1.5,0,0,1.5,-121.49966,411.93945)"
       inkscape:export-filename="/home/waldgeist/data/pics/physik/Own/optik/schatten-sonnenfinsternis.png"
       inkscape:export-xdpi="150"
       inkscape:export-ydpi="150">
      <defs
         id="defs3033">
        <g
           id="g3035">
          <symbol
             id="textext-e91e8751-0"
             overflow="visible"
             style="overflow:visible">
            <path
               id="path3038"
               d="M 2.40625,-6.59375 C 2.3125,-6.8125 2.28125,-6.8125 2.046875,-6.8125 l -1.671875,0 0,0.3125 0.234375,0 c 0.765625,0 0.78125,0.109375 0.78125,0.46875 l 0,4.984375 c 0,0.265625 0,0.734375 -1.015625,0.734375 L 0.375,0 c 0.34375,-0.015625 0.828125,-0.03125 1.15625,-0.03125 0.328125,0 0.828125,0.015625 1.171875,0.03125 l 0,-0.3125 c -1.03125,0 -1.03125,-0.46875 -1.03125,-0.734375 l 0,-5.375 0.015625,0 2.40625,6.203125 C 4.140625,-0.09375 4.1875,0 4.28125,0 4.390625,0 4.421875,-0.078125 4.46875,-0.1875 L 6.921875,-6.5 l 0,5.71875 c 0,0.359375 -0.015625,0.46875 -0.78125,0.46875 l -0.234375,0 0,0.3125 c 0.359375,-0.03125 1.046875,-0.03125 1.4375,-0.03125 0.375,0 1.046875,0 1.421875,0.03125 l 0,-0.3125 -0.25,0 c -0.765625,0 -0.78125,-0.109375 -0.78125,-0.46875 l 0,-5.25 C 7.734375,-6.390625 7.75,-6.5 8.515625,-6.5 l 0.25,0 0,-0.3125 -1.6875,0 C 6.8125,-6.8125 6.8125,-6.796875 6.75,-6.625 L 4.5625,-1 z m 0,0"
               style="stroke:none"
               inkscape:connector-curvature="0" />
          </symbol>
          <symbol
             id="textext-e91e8751-1"
             overflow="visible"
             style="overflow:visible">
            <path
               id="path3041"
               d="M 4.6875,-2.140625 C 4.6875,-3.40625 3.703125,-4.46875 2.5,-4.46875 c -1.25,0 -2.21875,1.09375 -2.21875,2.328125 0,1.296875 1.03125,2.25 2.203125,2.25 1.203125,0 2.203125,-0.984375 2.203125,-2.25 z m -2.1875,2 c -0.4375,0 -0.875,-0.203125 -1.140625,-0.671875 -0.25,-0.4375 -0.25,-1.046875 -0.25,-1.40625 0,-0.390625 0,-0.921875 0.234375,-1.359375 C 1.609375,-4.03125 2.078125,-4.25 2.484375,-4.25 c 0.4375,0 0.859375,0.21875 1.125,0.65625 0.265625,0.421875 0.265625,1 0.265625,1.375 0,0.359375 0,0.90625 -0.21875,1.34375 C 3.421875,-0.421875 2.984375,-0.140625 2.5,-0.140625 z m 0,0"
               style="stroke:none"
               inkscape:connector-curvature="0" />
          </symbol>
          <symbol
             id="textext-e91e8751-2"
             overflow="visible"
             style="overflow:visible">
            <path
               id="path3044"
               d="m 1.09375,-3.421875 0,2.671875 c 0,0.4375 -0.109375,0.4375 -0.78125,0.4375 l 0,0.3125 c 0.359375,-0.015625 0.859375,-0.03125 1.140625,-0.03125 0.25,0 0.765625,0.015625 1.109375,0.03125 l 0,-0.3125 c -0.671875,0 -0.78125,0 -0.78125,-0.4375 l 0,-1.84375 C 1.78125,-3.625 2.5,-4.1875 3.125,-4.1875 c 0.640625,0 0.75,0.53125 0.75,1.109375 l 0,2.328125 c 0,0.4375 -0.109375,0.4375 -0.78125,0.4375 l 0,0.3125 c 0.34375,-0.015625 0.859375,-0.03125 1.125,-0.03125 0.25,0 0.78125,0.015625 1.109375,0.03125 l 0,-0.3125 c -0.515625,0 -0.765625,0 -0.765625,-0.296875 l 0,-1.90625 c 0,-0.859375 0,-1.15625 -0.3125,-1.515625 -0.140625,-0.171875 -0.46875,-0.375 -1.046875,-0.375 C 2.46875,-4.40625 2,-3.984375 1.71875,-3.359375 l 0,-1.046875 -1.40625,0.109375 0,0.3125 c 0.703125,0 0.78125,0.0625 0.78125,0.5625 z m 0,0"
               style="stroke:none"
               inkscape:connector-curvature="0" />
          </symbol>
          <symbol
             id="textext-e91e8751-3"
             overflow="visible"
             style="overflow:visible">
            <path
               id="path3047"
               d="m 3.78125,-0.546875 0,0.65625 L 5.25,0 l 0,-0.3125 c -0.6875,0 -0.78125,-0.0625 -0.78125,-0.5625 l 0,-6.046875 -1.421875,0.109375 0,0.3125 c 0.6875,0 0.765625,0.0625 0.765625,0.5625 l 0,2.15625 c -0.28125,-0.359375 -0.71875,-0.625 -1.25,-0.625 -1.171875,0 -2.21875,0.984375 -2.21875,2.265625 0,1.265625 0.96875,2.25 2.109375,2.25 0.640625,0 1.078125,-0.34375 1.328125,-0.65625 z m 0,-2.671875 0,2.046875 c 0,0.171875 0,0.1875 -0.109375,0.359375 C 3.375,-0.328125 2.9375,-0.109375 2.5,-0.109375 2.046875,-0.109375 1.6875,-0.375 1.453125,-0.75 1.203125,-1.15625 1.171875,-1.71875 1.171875,-2.140625 1.171875,-2.5 1.1875,-3.09375 1.46875,-3.546875 1.6875,-3.859375 2.0625,-4.1875 2.609375,-4.1875 c 0.34375,0 0.765625,0.15625 1.0625,0.59375 0.109375,0.171875 0.109375,0.1875 0.109375,0.375 z m 0,0"
               style="stroke:none"
               inkscape:connector-curvature="0" />
          </symbol>
        </g>
      </defs>
      <g
         id="textext-e91e8751-4">
        <g
           id="g3050"
           style="fill:#000000;fill-opacity:1">
          <use
             id="use3052"
             y="134.765"
             x="223.43201"
             xlink:href="#textext-e91e8751-0"
             width="1052.3622"
             height="744.09448" />
          <use
             id="use3054"
             y="134.765"
             x="232.56471"
             xlink:href="#textext-e91e8751-1"
             width="1052.3622"
             height="744.09448" />
          <use
             id="use3056"
             y="134.765"
             x="237.54602"
             xlink:href="#textext-e91e8751-2"
             width="1052.3622"
             height="744.09448" />
          <use
             id="use3058"
             y="134.765"
             x="243.08124"
             xlink:href="#textext-e91e8751-3"
             width="1052.3622"
             height="744.09448" />
        </g>
      </g>
    </g>
    <path
       style="fill:url(#radialGradient4774);stroke:#999999;stroke-width:0.16700000000000001;stroke-miterlimit:4;stroke-dasharray:none;stroke-dashoffset:0;fill-opacity:1;filter:url(#filter4888)"
       d="m 183.4533,653.47551 c -9.8905,0 -17.90625,8.01575 -17.90625,17.90625 0,9.8905 8.01575,17.90625 17.90625,17.90625 2.7017,-5.38651 4.25,-11.46971 4.25,-17.90625 0,-6.43654 -1.5483,-12.51974 -4.25,-17.90625 z"
       id="path4762"
       inkscape:connector-curvature="0"
       inkscape:export-filename="/home/waldgeist/data/pics/physik/Own/optik/schatten-sonnenfinsternis.png"
       inkscape:export-xdpi="150"
       inkscape:export-ydpi="150" />
  </g>
</svg>
