<svg xmlns:ns0="http://www.iki.fi/pav/software/textext/" xmlns="http://www.w3.org/2000/svg" xmlns:xlink="http://www.w3.org/1999/xlink" width="210mm" height="297mm"><title>Schlagschatten</title><defs><marker id="c" orient="auto" overflow="visible"><path transform="rotate(180) scale(.6)" d="M8.719 4.034L-2.207.016 8.719-4.002c-1.746 2.372-1.736 5.618 0 8.036z" font-size="12" fill-rule="evenodd" stroke-width=".625" stroke-linejoin="round"/></marker><linearGradient id="a"><stop offset="0" stop-color="#f95"/><stop offset="1" stop-color="#fffb36"/></linearGradient><linearGradient id="b"><stop offset="0" stop-color="#f95"/><stop offset="1" stop-color="#fffb36"/></linearGradient><radialGradient xlink:href="#b" id="n" gradientUnits="userSpaceOnUse" gradientTransform="matrix(1 0 0 2.43119 8036.729 7458.337)" cx="-7817.805" cy="-2897.761" fx="-7817.805" fy="-2897.761" r="29.799"/></defs><path fill="#fff" stroke="#fff" stroke-linecap="round" stroke-linejoin="round" d="M22.185 284.61h699.724v483.143H22.185z"/><path d="M407.162 329.709l171.676 171.705v221.24L407.96 550.877z" fill="#ccc" stroke="#000"/><path d="M77.756 550.977l330.204-.1 170.878 171.776H77.756z" fill="#ccc" stroke="#000"/><path d="M362.168 575.895v-24.482h44.291l15.119 15.144 17.153 15.624-39.152 9.53c-20.078 4.886-36.228 7.99-36.647 8.23-.42.24-.764-10.58-.764-24.046z" fill="#ccc" stroke="#ccc" stroke-linecap="round" stroke-linejoin="round"/><path d="M578.838 722.653H77.756M407.162 550.977H77.756" fill="#ccc" stroke="#000"/><path d="M407.162 550.977l171.676 171.676M407.162 329.709l171.676 171.676M578.838 722.653V501.414M407.162 550.977V329.738M318.598 611.42l42.668 42.668M318.598 477.184l42.668 42.668M361.266 654.088V519.852M318.598 611.42V477.184M520.522 664.428l-159.256-10.34" fill="none" stroke="#000"/><path d="M191.95 596.523l245.393-233.864" fill="#f60" stroke="#f60" stroke-width="3" marker-end="url(#c)"/><path d="M438.73 582.181l-120.132 29.24" fill="none" stroke="#000"/><path d="M339.645 631.442l-20.775-20.778v-66.286c0-36.458.122-66.287.27-66.287.15 0 9.62 9.35 21.047 20.778l20.776 20.778v66.286c0 36.458-.122 66.287-.271 66.287-.15 0-9.62-9.35-21.047-20.778z" fill="#fff" stroke="#fff" stroke-linecap="round" stroke-linejoin="round"/><path d="M77.756 722.653V550.977" fill="none" stroke="#000"/><path d="M318.598 611.42l42.668 42.668M318.598 477.184l42.668 42.668M361.266 654.088V519.852M318.598 611.42V477.184" fill="none" stroke="#000" stroke-linecap="round"/><path d="M438.73 582.181V361.278l81.792 81.79v221.27L438.73 582.18" fill="#666" stroke="#000"/><path d="M193.366 599.859L518.674 443.79" fill="#f60" stroke="#f60" stroke-width="3" marker-end="url(#c)"/><path d="M361.266 654.088v-53.053l77.465-18.854 81.79 82.156-159.255-10.249" fill="#666" stroke="#000"/><path fill="#666" stroke="#501616" stroke-width=".612" stroke-linejoin="round" d="M193.376 608.896h.961v9.982h-.961z"/><g ns0:text="Schlagschatten" transform="translate(-57.151 51.771) scale(2.49109)"><defs><symbol id="d" overflow="visible"><path d="M3.484-3.875l-1.28-.297c-.626-.156-1-.687-1-1.266 0-.703.53-1.312 1.312-1.312 1.656 0 1.875 1.64 1.937 2.078.016.063.016.125.125.125.125 0 .125-.047.125-.234v-2c0-.172 0-.25-.11-.25-.062 0-.077.015-.14.14l-.36.563c-.296-.297-.702-.703-1.593-.703-1.11 0-1.938.875-1.938 1.937 0 .828.532 1.563 1.297 1.828.11.032.625.157 1.329.329.265.062.562.14.843.5.203.265.313.593.313.921 0 .704-.5 1.422-1.344 1.422-.281 0-1.047-.047-1.578-.531-.578-.547-.61-1.172-.61-1.531-.015-.11-.093-.11-.125-.11-.125 0-.125.079-.125.25v2c0 .172 0 .235.11.235.062 0 .078-.016.14-.125 0-.016.032-.047.36-.578.312.343.953.703 1.844.703 1.156 0 1.953-.969 1.953-2.078 0-.985-.657-1.813-1.485-2.016zm0 0"/></symbol><symbol id="e" overflow="visible"><path d="M1.172-2.172c0-1.625.812-2.047 1.344-2.047.093 0 .718.016 1.062.375-.406.031-.469.328-.469.453 0 .266.188.454.454.454.265 0 .468-.157.468-.47 0-.671-.765-1.062-1.531-1.062C1.25-4.469.344-3.39.344-2.156c0 1.281.984 2.265 2.14 2.265 1.329 0 1.657-1.203 1.657-1.296 0-.094-.11-.094-.141-.094-.078 0-.11.031-.125.093C3.594-.265 2.937-.14 2.578-.14c-.531 0-1.406-.421-1.406-2.03zm0 0"/></symbol><symbol id="f" overflow="visible"><path d="M1.094-.75c0 .438-.11.438-.782.438V0c.36-.016.86-.031 1.141-.031.25 0 .766.015 1.11.031v-.313c-.672 0-.782 0-.782-.437v-1.844c0-1.031.719-1.594 1.344-1.594.64 0 .75.532.75 1.11V-.75c0 .438-.11.438-.781.438V0c.344-.016.86-.031 1.125-.031.25 0 .781.015 1.11.031v-.313c-.516 0-.766 0-.766-.296v-1.907c0-.859 0-1.156-.313-1.515-.14-.172-.469-.375-1.047-.375-.844 0-1.281.593-1.453.984v-3.5l-1.438.11v.312c.704 0 .782.063.782.563zm0 0"/></symbol><symbol id="g" overflow="visible"><path d="M1.766-6.922l-1.438.11v.312c.703 0 .781.063.781.563V-.75c0 .438-.109.438-.78.438V0c.327-.016.859-.031 1.109-.031s.734.015 1.109.031v-.313c-.672 0-.781 0-.781-.437zm0 0"/></symbol><symbol id="h" overflow="visible"><path d="M3.313-.75c.046.39.312.813.78.813.22 0 .829-.141.829-.954v-.562h-.25v.562c0 .579-.25.641-.36.641-.328 0-.375-.453-.375-.5v-1.984c0-.422 0-.813-.359-1.188-.39-.39-.89-.547-1.36-.547-.827 0-1.515.469-1.515 1.125 0 .297.203.469.469.469a.435.435 0 0 0 .453-.453c0-.125-.047-.453-.516-.453.282-.36.766-.469 1.079-.469.5 0 1.062.39 1.062 1.281v.36c-.516.03-1.203.062-1.828.359-.75.344-1 .86-1 1.297 0 .812.969 1.062 1.594 1.062.656 0 1.109-.406 1.296-.859zM3.25-2.39v1c0 .937-.719 1.28-1.172 1.28-.484 0-.89-.343-.89-.843 0-.547.421-1.375 2.062-1.438zm0 0"/></symbol><symbol id="i" overflow="visible"><path d="M2.219-1.719c-.875 0-.875-1-.875-1.218 0-.266.015-.594.156-.844.078-.11.313-.39.719-.39.86 0 .86.984.86 1.218 0 .265 0 .594-.157.844-.078.109-.313.39-.703.39zm-1.156.39c0-.03 0-.265.156-.468.39.281.812.313 1 .313.922 0 1.61-.688 1.61-1.454 0-.374-.157-.734-.407-.968.36-.344.719-.39.89-.39.032 0 .079 0 .11.015-.11.031-.172.14-.172.265 0 .172.14.282.297.282a.28.28 0 0 0 .281-.297c0-.172-.11-.485-.5-.485-.203 0-.64.063-1.062.47a1.652 1.652 0 0 0-1.047-.36c-.938 0-1.625.687-1.625 1.453 0 .437.219.812.469 1.031-.125.14-.313.469-.313.828 0 .313.14.688.453.89-.61.157-.922.595-.922.985 0 .719.985 1.266 2.203 1.266 1.172 0 2.204-.5 2.204-1.281 0-.344-.125-.86-.641-1.141-.531-.266-1.11-.266-1.719-.266-.25 0-.672 0-.75-.015-.312-.047-.516-.344-.516-.672zM2.5 1.829C1.484 1.828.797 1.312.797.781c0-.453.375-.828.812-.844h.594c.86 0 1.969 0 1.969.844 0 .547-.703 1.047-1.672 1.047zm0 0"/></symbol><symbol id="j" overflow="visible"><path d="M2.078-1.938c.219.047 1.031.204 1.031.922 0 .5-.343.907-1.125.907-.843 0-1.203-.563-1.39-1.422-.031-.125-.031-.157-.14-.157-.126 0-.126.063-.126.235v1.328c0 .172 0 .234.11.234C.483.11.5.094.688-.094.703-.109.703-.125.89-.312c.437.406.89.421 1.093.421 1.141 0 1.61-.671 1.61-1.39 0-.516-.297-.828-.422-.938-.328-.328-.719-.406-1.14-.484-.563-.11-1.22-.235-1.22-.813 0-.359.25-.765 1.11-.765 1.094 0 1.156.906 1.172 1.203 0 .094.094.094.11.094.14 0 .14-.047.14-.235v-1.015c0-.157 0-.235-.11-.235-.046 0-.078 0-.203.125-.031.032-.125.125-.172.157-.375-.282-.78-.282-.937-.282-1.219 0-1.594.672-1.594 1.235 0 .343.156.625.422.843.328.25.61.313 1.328.454zm0 0"/></symbol><symbol id="k" overflow="visible"><path d="M1.719-3.984h1.437v-.313H1.72v-1.828h-.25c0 .813-.297 1.875-1.282 1.922v.219h.844v2.75c0 1.218.938 1.343 1.297 1.343.703 0 .985-.703.985-1.343v-.563h-.25v.547c0 .734-.297 1.11-.672 1.11-.672 0-.672-.907-.672-1.079zm0 0"/></symbol><symbol id="l" overflow="visible"><path d="M1.11-2.516C1.171-4 2.015-4.25 2.36-4.25c1.015 0 1.124 1.344 1.124 1.734zm0 .22h2.78c.22 0 .25 0 .25-.22 0-.984-.546-1.953-1.78-1.953C1.202-4.469.28-3.437.28-2.187.281-.86 1.328.108 2.47.108 3.688.11 4.14-1 4.14-1.187c0-.094-.079-.125-.141-.125-.078 0-.11.062-.125.14C3.531-.14 2.625-.14 2.531-.14c-.5 0-.89-.296-1.125-.671-.297-.47-.297-1.125-.297-1.485zm0 0"/></symbol><symbol id="m" overflow="visible"><path d="M1.094-3.422V-.75c0 .438-.11.438-.782.438V0c.36-.016.86-.031 1.141-.031.25 0 .766.015 1.11.031v-.313c-.672 0-.782 0-.782-.437v-1.844c0-1.031.719-1.594 1.344-1.594.64 0 .75.532.75 1.11V-.75c0 .438-.11.438-.781.438V0c.344-.016.86-.031 1.125-.031.25 0 .781.015 1.11.031v-.313c-.516 0-.766 0-.766-.296v-1.907c0-.859 0-1.156-.313-1.515-.14-.172-.469-.375-1.047-.375-.734 0-1.203.422-1.484 1.047v-1.047l-1.407.11v.312c.704 0 .782.062.782.562zm0 0"/></symbol></defs><use y="134.765" x="223.432" xlink:href="#d" width="744.094" height="1052.362"/><use y="134.765" x="228.967" xlink:href="#e" width="744.094" height="1052.362"/><use y="134.765" x="233.116" xlink:href="#f" width="744.094" height="1052.362"/><use y="134.765" x="238.651" xlink:href="#g" width="744.094" height="1052.362"/><use y="134.765" x="241.418" xlink:href="#h" width="744.094" height="1052.362"/><use y="134.765" x="246.4" xlink:href="#i" width="744.094" height="1052.362"/><use y="134.765" x="251.381" xlink:href="#j" width="744.094" height="1052.362"/><use y="134.765" x="255.31" xlink:href="#e" width="744.094" height="1052.362"/><g><use y="134.765" x="259.459" xlink:href="#f" width="744.094" height="1052.362"/><use y="134.765" x="264.994" xlink:href="#h" width="744.094" height="1052.362"/><use y="134.765" x="269.975" xlink:href="#k" width="744.094" height="1052.362"/><use y="134.765" x="273.85" xlink:href="#k" width="744.094" height="1052.362"/><use y="134.765" x="277.724" xlink:href="#l" width="744.094" height="1052.362"/><use y="134.765" x="282.152" xlink:href="#m" width="744.094" height="1052.362"/></g></g><g fill="#782121"><path d="M57.219 431.844v161.625c0 11.91 16.26 21.562 36.343 21.562 20.085 0 36.376-9.652 36.376-21.562V431.844h-72.72z" stroke="#501616" stroke-width="3.232" stroke-linejoin="round" transform="matrix(.201 0 0 .17147 175.048 544.92)"/><path transform="matrix(.119 0 0 .1015 180.766 581.968)" d="M171.429 364.505c0 20.119-27.503 36.429-61.429 36.429s-61.429-16.31-61.429-36.429c0-20.119 27.503-36.429 61.429-36.429s61.429 16.31 61.429 36.429z" style="marker:none" color="#000" stroke="#500" stroke-width="4.549" overflow="visible"/></g><path fill="#666" stroke="#501616" stroke-width=".599985" stroke-linejoin="round" d="M193.35 609.278h1.014v10.355h-1.015z"/><path d="M227.078 453.1c-9.556 2.268-20.134-.306-27.58-6.71-7.447-6.405-11.573-16.479-10.76-26.267.516-6.203 2.875-12.12 5.81-17.609 2.937-5.488 6.463-10.639 9.558-16.04 13.162-22.974 18.147-50.526 13.867-76.655a4266.762 4266.762 0 0 0 23.88 85.526c2.368 8.15 4.776 16.388 5.172 24.865.397 8.478-1.413 17.355-6.704 23.991a26.673 26.673 0 0 1-13.243 8.899" fill="url(#n)" stroke="#501616" stroke-width="2.985" transform="matrix(.201 0 0 .201 150.067 520.66)"/></svg>