<svg xmlns:ns0="http://www.iki.fi/pav/software/textext/" xmlns="http://www.w3.org/2000/svg" xmlns:xlink="http://www.w3.org/1999/xlink" width="210mm" height="297mm"><title>Kernschatten und Halbschatten</title><defs><marker orient="auto" id="d" overflow="visible"><path d="M8.719 4.034L-2.207.016 8.719-4.002c-1.746 2.372-1.736 5.618 0 8.036z" transform="rotate(180) scale(.6)" font-size="12" fill-rule="evenodd" stroke-width=".625" stroke-linejoin="round"/></marker><linearGradient id="a"><stop offset="0" stop-color="#f95"/><stop offset="1" stop-color="#fffb36"/></linearGradient><linearGradient id="b"><stop offset="0" stop-color="#f95"/><stop offset="1" stop-color="#fffb36"/></linearGradient><linearGradient id="c"><stop offset="0" stop-color="#f95"/><stop offset="1" stop-color="#fffb36"/></linearGradient><radialGradient xlink:href="#a" id="e" gradientUnits="userSpaceOnUse" gradientTransform="matrix(1 0 0 2.43119 1.301 4179.676)" cx="-7817.805" cy="-2897.761" fx="-7817.805" fy="-2897.761" r="29.799"/><radialGradient xlink:href="#b" id="f" gradientUnits="userSpaceOnUse" gradientTransform="matrix(1 0 0 2.43119 1.301 4179.676)" cx="-7817.805" cy="-2897.761" fx="-7817.805" fy="-2897.761" r="29.799"/><radialGradient xlink:href="#c" id="z" gradientUnits="userSpaceOnUse" gradientTransform="matrix(1 0 0 2.43119 8036.729 7458.337)" cx="-7817.805" cy="-2897.761" fx="-7817.805" fy="-2897.761" r="29.799"/><radialGradient xlink:href="#c" id="A" gradientUnits="userSpaceOnUse" gradientTransform="matrix(1 0 0 2.43119 8036.729 7458.337)" cx="-7817.805" cy="-2897.761" fx="-7817.805" fy="-2897.761" r="29.799"/></defs><path fill="#fff" stroke="#fff" stroke-width="1.1" stroke-linecap="round" stroke-linejoin="round" d="M22.185 284.61h699.724v483.143H22.185z"/><path d="M428.137 670.147l.271-132.573 41.822 41.556s.288 133.96-.27 132.573z" fill="#fff" stroke="#fff" stroke-linecap="round" stroke-linejoin="round"/><path d="M357.497 591.354l-.253-38.512h44.68l11.237 11.237-55.664 27.275" fill="#ccc" stroke="#000"/><path d="M74.291 638.916v-84.853l61.872.021 64.834-.867s-7.058 17.718 50.97.484l6.808.063 10.398 32.08c24.386-16.51 43.903-30.719 44.096-30.525.194.193.028 13.197-.368 28.896l-.72 28.545 22.414 22.33c14.48 14.425 23.24 22.42 24.749 22.586 1.284.142 41.883 7.387 90.219 16.1l87.883 15.842 17.169 17.075 17.169 17.076H74.29v-84.853z" fill="#ccc" stroke="#ccc" stroke-linecap="round" stroke-linejoin="round"/><path d="M176.55 569.372l24.447-16.155 49.063-.223-66.856 20.086-2.42-1.866-4.234-1.842M260.534 553.165l53.231-.127-89.863 63.457a7.724 7.724 0 0 0-1.854-3.782 7.725 7.725 0 0 0-3.642-2.254l42.128-57.294" fill="#ccc"/><path d="M486.167 635.878l-.36-152.86 51.306-15.275.18 219.26z" fill="#999" stroke="#999" stroke-linecap="round" stroke-linejoin="round"/><path d="M485.978 415.525l51.849 51.97c.091.07-51.993 15.258-51.993 15.258z" fill="#999" stroke="#999" stroke-linecap="round" stroke-linejoin="round"/><path d="M538.44 688.449l-.57-220.115 35.678 35.171c-.085.5-.192 219.67-.192 219.67z" fill="#ccc" stroke="#ccc" stroke-linecap="round" stroke-linejoin="round"/><path d="M413.055 342.098l41.987 42.61.542 221.487-42.89-42.89.361-221.207" fill="#999" stroke="#000"/><g fill="none" stroke="#000" stroke-width="1.364"><path d="M402.266 552.906l171.676 171.676M402.266 331.637l171.676 171.676M573.942 724.582v-221.24M402.266 552.906v-221.24" stroke-width=".9997438000000001"/></g><g fill="none" stroke="#000" stroke-width="1.364"><path d="M573.942 724.582H72.861M402.266 552.906H72.861" stroke-width=".9997438000000001"/></g><path d="M402.266 331.666l10.79 10.432V564.08l-11.112-11.111.322-221.302" fill="#ccc" stroke="#000"/><path d="M214.795 615.584l197.79-271.22M175.57 568.8l277.859-183.175" fill="none" stroke="#f60" stroke-width="3" marker-end="url(#d)"/><path d="M494.753 646.484l-39.169-40.29V384.956l40.208 39.703-1.039 221.826" fill="#666" stroke="#000"/><path d="M537.867 688.795v-221.24M72.861 552.906v171.676" fill="none" stroke="#000"/><path d="M455.584 606.195l-141.594 6.878 99.065-48.994 42.53 42.116M356.37 656.017l138.383-9.533 43.114 42.311-181.496-32.778" fill="#999" stroke="#000"/><path d="M356.146 611.204l99.438-5.01 39.17 40.29-137.677 8.999-.931-44.279" fill="#666" stroke="#000"/><path d="M314.578 478.842l42.704 42.705v134.818l-43.292-43.292.588-134.23" fill="#fff" stroke="#000"/><path d="M412.873 563.894V343.788" fill="none" stroke="#000"/><path d="M215.826 622.05l279.39-197.137" fill="none" stroke="#f60" stroke-width="3" marker-end="url(#d)"/><g stroke="#501616" stroke-width="3.189"><path fill="#666" stroke-linejoin="round" d="M-7820.096-2837.776h5.051v51.518h-5.051z" transform="matrix(.1903 0 0 .19376 1660.898 1134.491)"/><path d="M-7808.35-2825.562c-9.556 2.268-20.133-.305-27.58-6.71-7.446-6.404-11.573-16.478-10.76-26.266.516-6.203 2.875-12.12 5.811-17.609 2.936-5.489 6.463-10.64 9.557-16.04 13.163-22.974 18.147-50.526 13.867-76.655a4267.026 4267.026 0 0 0 23.88 85.526c2.368 8.15 4.776 16.387 5.173 24.865.396 8.477-1.414 17.355-6.704 23.99a26.672 26.672 0 0 1-13.243 8.9" fill="url(#e)" transform="matrix(.1903 0 0 .19376 1660.898 1134.491)"/></g><g stroke="#501616" stroke-width="3.189"><path fill="#666" stroke-linejoin="round" d="M-7820.096-2837.776h5.051v51.518h-5.051z" transform="matrix(.1903 0 0 .19376 1699.858 1179.069)"/><path d="M-7808.35-2825.562c-9.556 2.268-20.133-.305-27.58-6.71-7.446-6.404-11.573-16.478-10.76-26.266.516-6.203 2.875-12.12 5.811-17.609 2.936-5.489 6.463-10.64 9.557-16.04 13.163-22.974 18.147-50.526 13.867-76.655a4267.026 4267.026 0 0 0 23.88 85.526c2.368 8.15 4.776 16.387 5.173 24.865.396 8.477-1.414 17.355-6.704 23.99a26.672 26.672 0 0 1-13.243 8.9" fill="url(#f)" transform="matrix(.1903 0 0 .19376 1699.858 1179.069)"/></g><path d="M177.937 575.121l359.187-107.382" fill="none" stroke="#f60" stroke-width="3" marker-end="url(#d)"/><g transform="translate(8.818 116.381) scale(2.32891)" ns0:text="Halbschatten"><defs><symbol overflow="visible" id="g"><path d="M6.11-6.031c0-.36.015-.469.78-.469h.25v-.313c-.359.032-1.093.032-1.468.032s-1.125 0-1.469-.032v.313h.234c.766 0 .782.11.782.469v2.328H2.25v-2.328c0-.36.016-.469.781-.469h.235v-.313c-.344.032-1.079.032-1.47.032-.374 0-1.124 0-1.468-.032v.313h.234c.766 0 .797.11.797.469v5.25c0 .36-.03.469-.796.469H.328V0c.344-.031 1.094-.031 1.469-.031s1.125 0 1.469.031v-.313H3.03c-.765 0-.781-.109-.781-.468v-2.61h2.969v2.61c0 .36-.016.469-.782.469h-.234V0c.344-.031 1.078-.031 1.453-.031.39 0 1.125 0 1.485.031v-.313h-.25c-.766 0-.782-.109-.782-.468zm0 0"/></symbol><symbol overflow="visible" id="h"><path d="M3.313-.75c.046.39.312.813.78.813.22 0 .829-.141.829-.954v-.562h-.25v.562c0 .579-.25.641-.36.641-.328 0-.375-.453-.375-.5v-1.984c0-.422 0-.813-.359-1.188-.39-.39-.89-.547-1.36-.547-.827 0-1.515.469-1.515 1.125 0 .297.203.469.469.469a.435.435 0 0 0 .453-.453c0-.125-.047-.453-.516-.453.282-.36.766-.469 1.079-.469.5 0 1.062.39 1.062 1.281v.36c-.516.03-1.203.062-1.828.359-.75.344-1 .86-1 1.297 0 .812.969 1.062 1.594 1.062.656 0 1.109-.406 1.296-.859zM3.25-2.39v1c0 .937-.719 1.28-1.172 1.28-.484 0-.89-.343-.89-.843 0-.547.421-1.375 2.062-1.438zm0 0"/></symbol><symbol overflow="visible" id="i"><path d="M1.766-6.922l-1.438.11v.312c.703 0 .781.063.781.563V-.75c0 .438-.109.438-.78.438V0c.327-.016.859-.031 1.109-.031s.734.015 1.109.031v-.313c-.672 0-.781 0-.781-.437zm0 0"/></symbol><symbol overflow="visible" id="j"><path d="M1.719-3.766v-3.156l-1.438.11v.312c.703 0 .781.063.781.563V0h.25c0-.016.079-.156.36-.625.14.234.562.734 1.297.734 1.187 0 2.219-.984 2.219-2.265 0-1.266-.97-2.25-2.11-2.25-.781 0-1.203.468-1.36.64zM1.75-1.14v-2.046c0-.188 0-.204.11-.36.39-.562.937-.64 1.171-.64.453 0 .813.265 1.047.64.266.406.281.969.281 1.39 0 .36-.015.954-.296 1.407-.22.313-.594.64-1.125.64-.454 0-.813-.234-1.047-.609-.141-.203-.141-.234-.141-.422zm0 0"/></symbol><symbol overflow="visible" id="k"><path d="M2.078-1.938c.219.047 1.031.204 1.031.922 0 .5-.343.907-1.125.907-.843 0-1.203-.563-1.39-1.422-.031-.125-.031-.157-.14-.157-.126 0-.126.063-.126.235v1.328c0 .172 0 .234.11.234C.483.11.5.094.688-.094.703-.109.703-.125.89-.312c.437.406.89.421 1.093.421 1.141 0 1.61-.671 1.61-1.39 0-.516-.297-.828-.422-.938-.328-.328-.719-.406-1.14-.484-.563-.11-1.22-.235-1.22-.813 0-.359.25-.765 1.11-.765 1.094 0 1.156.906 1.172 1.203 0 .094.094.094.11.094.14 0 .14-.047.14-.235v-1.015c0-.157 0-.235-.11-.235-.046 0-.078 0-.203.125-.031.032-.125.125-.172.157-.375-.282-.78-.282-.937-.282-1.219 0-1.594.672-1.594 1.235 0 .343.156.625.422.843.328.25.61.313 1.328.454zm0 0"/></symbol><symbol overflow="visible" id="l"><path d="M1.172-2.172c0-1.625.812-2.047 1.344-2.047.093 0 .718.016 1.062.375-.406.031-.469.328-.469.453 0 .266.188.454.454.454.265 0 .468-.157.468-.47 0-.671-.765-1.062-1.531-1.062C1.25-4.469.344-3.39.344-2.156c0 1.281.984 2.265 2.14 2.265 1.329 0 1.657-1.203 1.657-1.296 0-.094-.11-.094-.141-.094-.078 0-.11.031-.125.093C3.594-.265 2.937-.14 2.578-.14c-.531 0-1.406-.421-1.406-2.03zm0 0"/></symbol><symbol overflow="visible" id="m"><path d="M1.094-.75c0 .438-.11.438-.782.438V0c.36-.016.86-.031 1.141-.031.25 0 .766.015 1.11.031v-.313c-.672 0-.782 0-.782-.437v-1.844c0-1.031.719-1.594 1.344-1.594.64 0 .75.532.75 1.11V-.75c0 .438-.11.438-.781.438V0c.344-.016.86-.031 1.125-.031.25 0 .781.015 1.11.031v-.313c-.516 0-.766 0-.766-.296v-1.907c0-.859 0-1.156-.313-1.515-.14-.172-.469-.375-1.047-.375-.844 0-1.281.593-1.453.984v-3.5l-1.438.11v.312c.704 0 .782.063.782.563zm0 0"/></symbol><symbol overflow="visible" id="n"><path d="M1.719-3.984h1.437v-.313H1.72v-1.828h-.25c0 .813-.297 1.875-1.282 1.922v.219h.844v2.75c0 1.218.938 1.343 1.297 1.343.703 0 .985-.703.985-1.343v-.563h-.25v.547c0 .734-.297 1.11-.672 1.11-.672 0-.672-.907-.672-1.079zm0 0"/></symbol><symbol overflow="visible" id="o"><path d="M1.11-2.516C1.171-4 2.015-4.25 2.36-4.25c1.015 0 1.124 1.344 1.124 1.734zm0 .22h2.78c.22 0 .25 0 .25-.22 0-.984-.546-1.953-1.78-1.953C1.202-4.469.28-3.437.28-2.187.281-.86 1.328.108 2.47.108 3.688.11 4.14-1 4.14-1.187c0-.094-.079-.125-.141-.125-.078 0-.11.062-.125.14C3.531-.14 2.625-.14 2.531-.14c-.5 0-.89-.296-1.125-.671-.297-.47-.297-1.125-.297-1.485zm0 0"/></symbol><symbol overflow="visible" id="p"><path d="M1.094-3.422V-.75c0 .438-.11.438-.782.438V0c.36-.016.86-.031 1.141-.031.25 0 .766.015 1.11.031v-.313c-.672 0-.782 0-.782-.437v-1.844c0-1.031.719-1.594 1.344-1.594.64 0 .75.532.75 1.11V-.75c0 .438-.11.438-.781.438V0c.344-.016.86-.031 1.125-.031.25 0 .781.015 1.11.031v-.313c-.516 0-.766 0-.766-.296v-1.907c0-.859 0-1.156-.313-1.515-.14-.172-.469-.375-1.047-.375-.734 0-1.203.422-1.484 1.047v-1.047l-1.407.11v.312c.704 0 .782.062.782.562zm0 0"/></symbol></defs><use height="1052.362" width="744.094" xlink:href="#g" x="223.432" y="134.765"/><use height="1052.362" width="744.094" xlink:href="#h" x="230.904" y="134.765"/><use height="1052.362" width="744.094" xlink:href="#i" x="235.885" y="134.765"/><use height="1052.362" width="744.094" xlink:href="#j" x="238.653" y="134.765"/><use height="1052.362" width="744.094" xlink:href="#k" x="244.188" y="134.765"/><use height="1052.362" width="744.094" xlink:href="#l" x="248.117" y="134.765"/><g><use height="1052.362" width="744.094" xlink:href="#m" x="252.266" y="134.765"/><use height="1052.362" width="744.094" xlink:href="#h" x="257.801" y="134.765"/><use height="1052.362" width="744.094" xlink:href="#n" x="262.782" y="134.765"/><use height="1052.362" width="744.094" xlink:href="#n" x="266.657" y="134.765"/><use height="1052.362" width="744.094" xlink:href="#o" x="270.531" y="134.765"/><use height="1052.362" width="744.094" xlink:href="#p" x="274.959" y="134.765"/></g></g><g ns0:text="Halbschatten"><g transform="translate(-78.018 29.545) scale(2.32891)"><use y="134.765" x="223.432" xlink:href="#g" width="744.094" height="1052.362"/><use y="134.765" x="230.904" xlink:href="#h" width="744.094" height="1052.362"/><use y="134.765" x="235.885" xlink:href="#i" width="744.094" height="1052.362"/><use y="134.765" x="238.653" xlink:href="#j" width="744.094" height="1052.362"/><use y="134.765" x="244.188" xlink:href="#k" width="744.094" height="1052.362"/><use y="134.765" x="248.117" xlink:href="#l" width="744.094" height="1052.362"/></g><g transform="translate(-78.018 29.545) scale(2.32891)"><use y="134.765" x="252.266" xlink:href="#m" width="744.094" height="1052.362"/><use y="134.765" x="257.801" xlink:href="#h" width="744.094" height="1052.362"/><use y="134.765" x="262.782" xlink:href="#n" width="744.094" height="1052.362"/><use y="134.765" x="266.657" xlink:href="#n" width="744.094" height="1052.362"/><use y="134.765" x="270.531" xlink:href="#o" width="744.094" height="1052.362"/><use y="134.765" x="274.959" xlink:href="#p" width="744.094" height="1052.362"/></g></g><g transform="translate(-34.207 72.963) scale(2.32891)" ns0:text="Kernschatten"><defs><symbol id="q" overflow="visible"><path d="M3.984-4.172l1.797-1.734c.078-.078.61-.578 1.422-.594v-.313c-.266.032-.578.032-.86.032-.359 0-.921 0-1.265-.032v.313c.406.016.469.234.469.328 0 .156-.11.266-.188.328L2.25-2.859v-3.172c0-.36.016-.469.781-.469h.235v-.313c-.344.032-1.079.032-1.47.032-.374 0-1.124 0-1.468-.032v.313h.234c.766 0 .797.11.797.469v5.25c0 .36-.03.469-.796.469H.328V0c.344-.031 1.094-.031 1.469-.031s1.125 0 1.469.031v-.313H3.03c-.765 0-.781-.109-.781-.468v-1.735l1.156-1.109L5.203-.953c.063.094.156.219.156.344 0 .296-.39.296-.593.296V0c.343-.031 1.046-.031 1.421-.031.36 0 .735.015 1.157.031v-.313c-.547 0-.75-.03-1.047-.468zm0 0"/></symbol><symbol id="r" overflow="visible"><path d="M1.11-2.516C1.171-4 2.015-4.25 2.36-4.25c1.015 0 1.124 1.344 1.124 1.734zm0 .22h2.78c.22 0 .25 0 .25-.22 0-.984-.546-1.953-1.78-1.953C1.202-4.469.28-3.437.28-2.187.281-.86 1.328.108 2.47.108 3.688.11 4.14-1 4.14-1.187c0-.094-.079-.125-.141-.125-.078 0-.11.062-.125.14C3.531-.14 2.625-.14 2.531-.14c-.5 0-.89-.296-1.125-.671-.297-.47-.297-1.125-.297-1.485zm0 0"/></symbol><symbol id="s" overflow="visible"><path d="M1.672-3.313v-1.093l-1.39.11v.312c.702 0 .78.062.78.562V-.75c0 .438-.109.438-.78.438V0c.39-.016.859-.031 1.14-.031.39 0 .86 0 1.266.031v-.313h-.22c-.734 0-.75-.109-.75-.468v-1.531c0-.985.423-1.876 1.173-1.876.062 0 .093 0 .109.016-.031 0-.234.125-.234.39 0 .266.218.423.437.423a.421.421 0 0 0 .422-.438c0-.312-.313-.61-.734-.61-.735 0-1.094.673-1.22 1.095zm0 0"/></symbol><symbol id="t" overflow="visible"><path d="M1.094-3.422V-.75c0 .438-.11.438-.782.438V0c.36-.016.86-.031 1.141-.031.25 0 .766.015 1.11.031v-.313c-.672 0-.782 0-.782-.437v-1.844c0-1.031.719-1.594 1.344-1.594.64 0 .75.532.75 1.11V-.75c0 .438-.11.438-.781.438V0c.344-.016.86-.031 1.125-.031.25 0 .781.015 1.11.031v-.313c-.516 0-.766 0-.766-.296v-1.907c0-.859 0-1.156-.313-1.515-.14-.172-.469-.375-1.047-.375-.734 0-1.203.422-1.484 1.047v-1.047l-1.407.11v.312c.704 0 .782.062.782.562zm0 0"/></symbol><symbol id="u" overflow="visible"><path d="M2.078-1.938c.219.047 1.031.204 1.031.922 0 .5-.343.907-1.125.907-.843 0-1.203-.563-1.39-1.422-.031-.125-.031-.157-.14-.157-.126 0-.126.063-.126.235v1.328c0 .172 0 .234.11.234C.483.11.5.094.688-.094.703-.109.703-.125.89-.312c.437.406.89.421 1.093.421 1.141 0 1.61-.671 1.61-1.39 0-.516-.297-.828-.422-.938-.328-.328-.719-.406-1.14-.484-.563-.11-1.22-.235-1.22-.813 0-.359.25-.765 1.11-.765 1.094 0 1.156.906 1.172 1.203 0 .094.094.094.11.094.14 0 .14-.047.14-.235v-1.015c0-.157 0-.235-.11-.235-.046 0-.078 0-.203.125-.031.032-.125.125-.172.157-.375-.282-.78-.282-.937-.282-1.219 0-1.594.672-1.594 1.235 0 .343.156.625.422.843.328.25.61.313 1.328.454zm0 0"/></symbol><symbol id="v" overflow="visible"><path d="M1.172-2.172c0-1.625.812-2.047 1.344-2.047.093 0 .718.016 1.062.375-.406.031-.469.328-.469.453 0 .266.188.454.454.454.265 0 .468-.157.468-.47 0-.671-.765-1.062-1.531-1.062C1.25-4.469.344-3.39.344-2.156c0 1.281.984 2.265 2.14 2.265 1.329 0 1.657-1.203 1.657-1.296 0-.094-.11-.094-.141-.094-.078 0-.11.031-.125.093C3.594-.265 2.937-.14 2.578-.14c-.531 0-1.406-.421-1.406-2.03zm0 0"/></symbol><symbol id="w" overflow="visible"><path d="M1.094-.75c0 .438-.11.438-.782.438V0c.36-.016.86-.031 1.141-.031.25 0 .766.015 1.11.031v-.313c-.672 0-.782 0-.782-.437v-1.844c0-1.031.719-1.594 1.344-1.594.64 0 .75.532.75 1.11V-.75c0 .438-.11.438-.781.438V0c.344-.016.86-.031 1.125-.031.25 0 .781.015 1.11.031v-.313c-.516 0-.766 0-.766-.296v-1.907c0-.859 0-1.156-.313-1.515-.14-.172-.469-.375-1.047-.375-.844 0-1.281.593-1.453.984v-3.5l-1.438.11v.312c.704 0 .782.063.782.563zm0 0"/></symbol><symbol id="x" overflow="visible"><path d="M3.313-.75c.046.39.312.813.78.813.22 0 .829-.141.829-.954v-.562h-.25v.562c0 .579-.25.641-.36.641-.328 0-.375-.453-.375-.5v-1.984c0-.422 0-.813-.359-1.188-.39-.39-.89-.547-1.36-.547-.827 0-1.515.469-1.515 1.125 0 .297.203.469.469.469a.435.435 0 0 0 .453-.453c0-.125-.047-.453-.516-.453.282-.36.766-.469 1.079-.469.5 0 1.062.39 1.062 1.281v.36c-.516.03-1.203.062-1.828.359-.75.344-1 .86-1 1.297 0 .812.969 1.062 1.594 1.062.656 0 1.109-.406 1.296-.859zM3.25-2.39v1c0 .937-.719 1.28-1.172 1.28-.484 0-.89-.343-.89-.843 0-.547.421-1.375 2.062-1.438zm0 0"/></symbol><symbol id="y" overflow="visible"><path d="M1.719-3.984h1.437v-.313H1.72v-1.828h-.25c0 .813-.297 1.875-1.282 1.922v.219h.844v2.75c0 1.218.938 1.343 1.297 1.343.703 0 .985-.703.985-1.343v-.563h-.25v.547c0 .734-.297 1.11-.672 1.11-.672 0-.672-.907-.672-1.079zm0 0"/></symbol></defs><use y="134.765" x="223.432" xlink:href="#q" width="744.094" height="1052.362"/><use y="134.765" x="231.181" xlink:href="#r" width="744.094" height="1052.362"/><use y="134.765" x="235.608" xlink:href="#s" width="744.094" height="1052.362"/><use y="134.765" x="239.511" xlink:href="#t" width="744.094" height="1052.362"/><use y="134.765" x="245.046" xlink:href="#u" width="744.094" height="1052.362"/><use y="134.765" x="248.975" xlink:href="#v" width="744.094" height="1052.362"/><g><use y="134.765" x="253.124" xlink:href="#w" width="744.094" height="1052.362"/><use y="134.765" x="258.659" xlink:href="#x" width="744.094" height="1052.362"/><use y="134.765" x="263.64" xlink:href="#y" width="744.094" height="1052.362"/><use y="134.765" x="267.515" xlink:href="#y" width="744.094" height="1052.362"/><use y="134.765" x="271.389" xlink:href="#r" width="744.094" height="1052.362"/><use y="134.765" x="275.816" xlink:href="#t" width="744.094" height="1052.362"/></g></g><g fill="#782121"><path d="M57.219 431.844v161.625c0 11.91 16.26 21.562 36.343 21.562 20.085 0 36.376-9.652 36.376-21.562V431.844h-72.72z" stroke="#501616" stroke-width="3.232" stroke-linejoin="round" transform="matrix(.201 0 0 .17147 193.398 565.238)"/><path transform="matrix(.119 0 0 .1015 199.117 602.286)" d="M171.429 364.505c0 20.119-27.503 36.429-61.429 36.429s-61.429-16.31-61.429-36.429c0-20.119 27.503-36.429 61.429-36.429s61.429 16.31 61.429 36.429z" style="marker:none" color="#000" stroke="#500" stroke-width="4.549" overflow="visible"/></g><path fill="#666" stroke="#501616" stroke-width=".599985" stroke-linejoin="round" d="M211.7 629.596h1.015v10.355H211.7z"/><path d="M227.078 453.1c-9.556 2.268-20.134-.306-27.58-6.71-7.447-6.405-11.573-16.479-10.76-26.267.516-6.203 2.875-12.12 5.81-17.609 2.937-5.488 6.463-10.639 9.558-16.04 13.162-22.974 18.147-50.526 13.867-76.655a4266.762 4266.762 0 0 0 23.88 85.526c2.368 8.15 4.776 16.388 5.172 24.865.397 8.478-1.413 17.355-6.704 23.991a26.673 26.673 0 0 1-13.243 8.899" fill="url(#z)" stroke="#501616" stroke-width="2.985" transform="matrix(.201 0 0 .201 168.418 540.978)"/><g><g fill="#782121"><path d="M57.219 431.844v161.625c0 11.91 16.26 21.562 36.343 21.562 20.085 0 36.376-9.652 36.376-21.562V431.844h-72.72z" stroke="#501616" stroke-width="3.232" stroke-linejoin="round" transform="matrix(.201 0 0 .17147 154.438 520.66)"/><path style="marker:none" d="M171.429 364.505c0 20.119-27.503 36.429-61.429 36.429s-61.429-16.31-61.429-36.429c0-20.119 27.503-36.429 61.429-36.429s61.429 16.31 61.429 36.429z" transform="matrix(.119 0 0 .1015 160.157 557.708)" color="#000" stroke="#500" stroke-width="4.549" overflow="visible"/></g><path fill="#666" stroke="#501616" stroke-width=".599985" stroke-linejoin="round" d="M172.74 585.018h1.015v10.355h-1.015z"/><path d="M227.078 453.1c-9.556 2.268-20.134-.306-27.58-6.71-7.447-6.405-11.573-16.479-10.76-26.267.516-6.203 2.875-12.12 5.81-17.609 2.937-5.488 6.463-10.639 9.558-16.04 13.162-22.974 18.147-50.526 13.867-76.655a4266.762 4266.762 0 0 0 23.88 85.526c2.368 8.15 4.776 16.388 5.172 24.865.397 8.478-1.413 17.355-6.704 23.991a26.673 26.673 0 0 1-13.243 8.899" fill="url(#A)" stroke="#501616" stroke-width="2.985" transform="matrix(.201 0 0 .201 129.458 496.4)"/></g></svg>