<?xml version="1.0" encoding="UTF-8" standalone="no"?>
<!-- Created with Inkscape (http://www.inkscape.org/) -->

<svg
   xmlns:ns0="http://www.iki.fi/pav/software/textext/"
   xmlns:dc="http://purl.org/dc/elements/1.1/"
   xmlns:cc="http://creativecommons.org/ns#"
   xmlns:rdf="http://www.w3.org/1999/02/22-rdf-syntax-ns#"
   xmlns:svg="http://www.w3.org/2000/svg"
   xmlns="http://www.w3.org/2000/svg"
   xmlns:xlink="http://www.w3.org/1999/xlink"
   xmlns:sodipodi="http://sodipodi.sourceforge.net/DTD/sodipodi-0.dtd"
   xmlns:inkscape="http://www.inkscape.org/namespaces/inkscape"
   width="210mm"
   height="297mm"
   id="svg13883"
   version="1.1"
   inkscape:version="0.48.3.1 r9886"
   sodipodi:docname="schatten-schlagschatten.svg">
  <title
     id="title10524">Schlagschatten</title>
  <sodipodi:namedview
     id="base"
     pagecolor="#ffffff"
     bordercolor="#666666"
     borderopacity="1.0"
     inkscape:pageopacity="0.0"
     inkscape:pageshadow="2"
     inkscape:zoom="0.72028435"
     inkscape:cx="512.22722"
     inkscape:cy="562.97033"
     inkscape:document-units="px"
     inkscape:current-layer="layer1"
     showgrid="false"
     inkscape:object-nodes="true"
     inkscape:snap-smooth-nodes="true"
     inkscape:object-paths="true"
     showguides="false"
     inkscape:guide-bbox="true"
     inkscape:snap-global="true"
     inkscape:snap-intersection-paths="false"
     inkscape:snap-bbox="false"
     inkscape:bbox-paths="true"
     inkscape:window-width="1280"
     inkscape:window-height="974"
     inkscape:window-x="0"
     inkscape:window-y="0"
     inkscape:window-maximized="1"
     inkscape:snap-midpoints="true">
    <sodipodi:guide
       id="guide14204"
       position="49.497475,126.42341"
       orientation="1,0" />
    <sodipodi:guide
       id="guide14966"
       position="653.58361,1014.2766"
       orientation="1,0" />
  </sodipodi:namedview>
  <defs
     id="defs13885">
    <inkscape:path-effect
       is_visible="true"
       id="path-effect52475"
       effect="spiro" />
    <inkscape:path-effect
       effect="spiro"
       id="path-effect52472"
       is_visible="true" />
    <inkscape:path-effect
       is_visible="true"
       id="path-effect52469"
       effect="spiro" />
    <inkscape:path-effect
       effect="spiro"
       id="path-effect52466"
       is_visible="true" />
    <marker
       style="overflow:visible;"
       id="Arrow2Mend"
       refX="0.0"
       refY="0.0"
       orient="auto"
       inkscape:stockid="Arrow2Mend">
      <path
         transform="scale(0.6) rotate(180) translate(0,0)"
         d="M 8.7185878,4.0337352 L -2.2072895,0.016013256 L 8.7185884,-4.0017078 C 6.9730900,-1.6296469 6.9831476,1.6157441 8.7185878,4.0337352 z "
         style="font-size:12.0;fill-rule:evenodd;stroke-width:0.62500000;stroke-linejoin:round;"
         id="path30771" />
    </marker>
    <inkscape:path-effect
       is_visible="true"
       id="path-effect15195"
       effect="spiro" />
    <inkscape:path-effect
       is_visible="true"
       id="path-effect15191"
       effect="spiro" />
    <inkscape:path-effect
       is_visible="true"
       id="path-effect15187"
       effect="spiro" />
    <inkscape:path-effect
       is_visible="true"
       id="path-effect15183"
       effect="spiro" />
    <inkscape:path-effect
       is_visible="true"
       id="path-effect15179"
       effect="spiro" />
    <inkscape:path-effect
       is_visible="true"
       id="path-effect15175"
       effect="spiro" />
    <inkscape:path-effect
       is_visible="true"
       id="path-effect15171"
       effect="spiro" />
    <inkscape:path-effect
       is_visible="true"
       id="path-effect15129"
       effect="spiro" />
    <inkscape:path-effect
       effect="spiro"
       id="path-effect15125"
       is_visible="true" />
    <inkscape:path-effect
       is_visible="true"
       id="path-effect15121"
       effect="spiro" />
    <inkscape:path-effect
       is_visible="true"
       id="path-effect15048"
       effect="spiro" />
    <inkscape:path-effect
       effect="spiro"
       id="path-effect15009"
       is_visible="true" />
    <inkscape:path-effect
       is_visible="true"
       id="path-effect14974"
       effect="spiro" />
    <inkscape:path-effect
       is_visible="true"
       id="path-effect14970"
       effect="spiro" />
    <inkscape:path-effect
       is_visible="true"
       id="path-effect14394"
       effect="spiro" />
    <inkscape:path-effect
       is_visible="true"
       id="path-effect14388"
       effect="spiro" />
    <inkscape:path-effect
       is_visible="true"
       id="path-effect14380"
       effect="spiro" />
    <inkscape:path-effect
       effect="spiro"
       id="path-effect14376"
       is_visible="true" />
    <inkscape:path-effect
       is_visible="true"
       id="path-effect14346"
       effect="spiro" />
    <inkscape:path-effect
       is_visible="true"
       id="path-effect14342"
       effect="spiro" />
    <inkscape:path-effect
       effect="spiro"
       id="path-effect14311"
       is_visible="true" />
    <inkscape:path-effect
       is_visible="true"
       id="path-effect14265"
       effect="spiro" />
    <inkscape:path-effect
       effect="spiro"
       id="path-effect14240"
       is_visible="true" />
    <inkscape:path-effect
       is_visible="true"
       id="path-effect14238"
       effect="spiro" />
    <inkscape:path-effect
       effect="spiro"
       id="path-effect14236"
       is_visible="true" />
    <inkscape:path-effect
       is_visible="true"
       id="path-effect14232"
       effect="spiro" />
    <inkscape:path-effect
       effect="spiro"
       id="path-effect14208"
       is_visible="true" />
    <inkscape:path-effect
       is_visible="true"
       id="path-effect14202"
       effect="spiro" />
    <inkscape:path-effect
       effect="spiro"
       id="path-effect14192"
       is_visible="true" />
    <inkscape:path-effect
       is_visible="true"
       id="path-effect14188"
       effect="spiro" />
    <inkscape:path-effect
       effect="spiro"
       id="path-effect14184"
       is_visible="true" />
    <inkscape:path-effect
       effect="spiro"
       id="path-effect14180"
       is_visible="true" />
    <inkscape:path-effect
       is_visible="true"
       id="path-effect14176"
       effect="spiro" />
    <inkscape:path-effect
       effect="spiro"
       id="path-effect3775"
       is_visible="true" />
    <inkscape:path-effect
       effect="spiro"
       id="path-effect3779"
       is_visible="true" />
    <marker
       inkscape:stockid="Arrow1Mend"
       orient="auto"
       refY="0.0"
       refX="0.0"
       id="Arrow1Mend"
       style="overflow:visible;">
      <path
         id="path3911"
         d="M 0.0,0.0 L 5.0,-5.0 L -12.5,0.0 L 5.0,5.0 L 0.0,0.0 z "
         style="fill-rule:evenodd;stroke:#000000;stroke-width:1.0pt;marker-start:none;"
         transform="scale(0.4) rotate(180) translate(10,0)" />
    </marker>
    <marker
       inkscape:stockid="Arrow1Send"
       orient="auto"
       refY="0.0"
       refX="0.0"
       id="Arrow1Send"
       style="overflow:visible;">
      <path
         id="path3917"
         d="M 0.0,0.0 L 5.0,-5.0 L -12.5,0.0 L 5.0,5.0 L 0.0,0.0 z "
         style="fill-rule:evenodd;stroke:#000000;stroke-width:1.0pt;marker-start:none;"
         transform="scale(0.2) rotate(180) translate(6,0)" />
    </marker>
    <inkscape:path-effect
       effect="spiro"
       id="path-effect14184-5"
       is_visible="true" />
    <inkscape:path-effect
       effect="spiro"
       id="path-effect14236-7"
       is_visible="true" />
    <inkscape:path-effect
       effect="spiro"
       id="path-effect14236-5"
       is_visible="true" />
    <inkscape:path-effect
       is_visible="true"
       id="path-effect15048-9"
       effect="spiro" />
    <inkscape:path-effect
       effect="spiro"
       id="path-effect14236-74"
       is_visible="true" />
    <inkscape:path-effect
       effect="spiro"
       id="path-effect14192-2"
       is_visible="true" />
    <inkscape:path-effect
       effect="spiro"
       id="path-effect14184-7"
       is_visible="true" />
    <radialGradient
       r="29.799461"
       fy="-2897.7612"
       fx="-7817.8047"
       cy="-2897.7612"
       cx="-7817.8047"
       gradientTransform="matrix(1,0,0,2.4311881,1.3010286,4179.6755)"
       gradientUnits="userSpaceOnUse"
       id="radialGradient5253"
       xlink:href="#linearGradient35265"
       inkscape:collect="always" />
    <linearGradient
       id="linearGradient35265">
      <stop
         id="stop35267"
         offset="0"
         style="stop-color:#ff9955;stop-opacity:1;" />
      <stop
         id="stop35269"
         offset="1"
         style="stop-color:#fffb36;stop-opacity:1;" />
    </linearGradient>
    <inkscape:path-effect
       is_visible="true"
       id="path-effect34665"
       effect="spiro" />
    <radialGradient
       inkscape:collect="always"
       xlink:href="#linearGradient35265"
       id="radialGradient25934"
       gradientUnits="userSpaceOnUse"
       gradientTransform="matrix(1,0,0,2.4311881,1.3010286,4179.6755)"
       cx="-7817.8047"
       cy="-2897.7612"
       fx="-7817.8047"
       fy="-2897.7612"
       r="29.799461" />
    <radialGradient
       inkscape:collect="always"
       xlink:href="#linearGradient35265"
       id="radialGradient52453"
       gradientUnits="userSpaceOnUse"
       gradientTransform="matrix(1,0,0,2.4311881,1.3010286,4179.6755)"
       cx="-7817.8047"
       cy="-2897.7612"
       fx="-7817.8047"
       fy="-2897.7612"
       r="29.799461" />
    <radialGradient
       inkscape:collect="always"
       xlink:href="#linearGradient35265"
       id="radialGradient52456"
       gradientUnits="userSpaceOnUse"
       gradientTransform="matrix(0.19029573,0,0,0.47107391,1681.7547,1464.5804)"
       cx="-7817.8047"
       cy="-2897.7612"
       fx="-7817.8047"
       fy="-2897.7612"
       r="29.799461" />
    <radialGradient
       inkscape:collect="always"
       xlink:href="#linearGradient35265-6"
       id="radialGradient13625"
       gradientUnits="userSpaceOnUse"
       gradientTransform="matrix(1,0,0,2.4311881,8036.7287,7458.3368)"
       cx="-7817.8047"
       cy="-2897.7612"
       fx="-7817.8047"
       fy="-2897.7612"
       r="29.799461" />
    <linearGradient
       id="linearGradient35265-6">
      <stop
         style="stop-color:#ff9955;stop-opacity:1;"
         offset="0"
         id="stop35267-8" />
      <stop
         style="stop-color:#fffb36;stop-opacity:1;"
         offset="1"
         id="stop35269-5" />
    </linearGradient>
    <inkscape:path-effect
       is_visible="true"
       id="path-effect10735"
       effect="spiro" />
    <radialGradient
       r="29.799461"
       fy="-2897.7612"
       fx="-7817.8047"
       cy="-2897.7612"
       cx="-7817.8047"
       gradientTransform="matrix(1,0,0,2.4311881,8036.7287,7458.3368)"
       gradientUnits="userSpaceOnUse"
       id="radialGradient13810"
       xlink:href="#linearGradient35265-6"
       inkscape:collect="always" />
    <radialGradient
       inkscape:collect="always"
       xlink:href="#linearGradient35265"
       id="radialGradient13916"
       gradientUnits="userSpaceOnUse"
       gradientTransform="matrix(0.19029573,0,0,0.47107391,1681.7547,1464.5804)"
       cx="-7817.8047"
       cy="-2897.7612"
       fx="-7817.8047"
       fy="-2897.7612"
       r="29.799461" />
    <radialGradient
       inkscape:collect="always"
       xlink:href="#linearGradient35265"
       id="radialGradient13960"
       gradientUnits="userSpaceOnUse"
       gradientTransform="matrix(0.19029573,0,0,0.47107391,1681.7547,1716.5987)"
       cx="-7817.8047"
       cy="-2897.7612"
       fx="-7817.8047"
       fy="-2897.7612"
       r="29.799461" />
    <radialGradient
       inkscape:collect="always"
       xlink:href="#linearGradient35265-6"
       id="radialGradient122656"
       gradientUnits="userSpaceOnUse"
       gradientTransform="matrix(1,0,0,2.4311881,8036.7287,7458.3368)"
       cx="-7817.8047"
       cy="-2897.7612"
       fx="-7817.8047"
       fy="-2897.7612"
       r="29.799461" />
  </defs>
  <metadata
     id="metadata13888">
    <rdf:RDF>
      <cc:Work
         rdf:about="">
        <dc:format>image/svg+xml</dc:format>
        <dc:type
           rdf:resource="http://purl.org/dc/dcmitype/StillImage" />
        <dc:title>Schlagschatten</dc:title>
        <cc:license
           rdf:resource="http://creativecommons.org/licenses/by-nc-sa/3.0/" />
        <dc:date>2012-02-05</dc:date>
        <dc:creator>
          <cc:Agent>
            <dc:title>Bernhard Grotz</dc:title>
          </cc:Agent>
        </dc:creator>
        <dc:rights>
          <cc:Agent>
            <dc:title>Bernhard Grotz</dc:title>
          </cc:Agent>
        </dc:rights>
        <dc:publisher>
          <cc:Agent>
            <dc:title>Bernhard Grotz</dc:title>
          </cc:Agent>
        </dc:publisher>
        <dc:language>de-DE</dc:language>
        <dc:subject>
          <rdf:Bag>
            <rdf:li>Physik</rdf:li>
            <rdf:li>Optik</rdf:li>
            <rdf:li>Lichtausbreitung</rdf:li>
            <rdf:li>Schatten</rdf:li>
            <rdf:li>Schlagschatten</rdf:li>
          </rdf:Bag>
        </dc:subject>
      </cc:Work>
      <cc:License
         rdf:about="http://creativecommons.org/licenses/by-nc-sa/3.0/">
        <cc:permits
           rdf:resource="http://creativecommons.org/ns#Reproduction" />
        <cc:permits
           rdf:resource="http://creativecommons.org/ns#Distribution" />
        <cc:requires
           rdf:resource="http://creativecommons.org/ns#Notice" />
        <cc:requires
           rdf:resource="http://creativecommons.org/ns#Attribution" />
        <cc:prohibits
           rdf:resource="http://creativecommons.org/ns#CommercialUse" />
        <cc:permits
           rdf:resource="http://creativecommons.org/ns#DerivativeWorks" />
        <cc:requires
           rdf:resource="http://creativecommons.org/ns#ShareAlike" />
      </cc:License>
    </rdf:RDF>
  </metadata>
  <g
     id="layer1"
     inkscape:groupmode="layer"
     inkscape:label="Ebene 1">
    <rect
       y="284.60983"
       x="22.185394"
       height="483.14252"
       width="699.72369"
       id="rect15508"
       style="fill:#ffffff;stroke:#ffffff;stroke-width:1;stroke-linecap:round;stroke-linejoin:round;stroke-miterlimit:4;stroke-opacity:1;stroke-dasharray:none;stroke-dashoffset:0"
       inkscape:export-filename="/home/waldgeist/data/pics/physik/Own/optik/schatten-schlagschatten.png"
       inkscape:export-xdpi="150"
       inkscape:export-ydpi="150" />
    <path
       style="fill:#cccccc;fill-opacity:1;stroke:#000000;stroke-width:1px;stroke-linecap:butt;stroke-linejoin:miter;stroke-opacity:1"
       d="m 407.16179,329.70876 171.67603,171.70527 0,221.23941 -170.87806,-171.77562 z"
       id="path13999"
       inkscape:connector-curvature="0"
       inkscape:export-filename="/home/waldgeist/data/pics/physik/Own/optik/schatten-schlagschatten.png"
       inkscape:export-xdpi="150"
       inkscape:export-ydpi="150" />
    <path
       style="fill:#cccccc;fill-opacity:1;stroke:#000000;stroke-width:1px;stroke-linecap:butt;stroke-linejoin:miter;stroke-opacity:1"
       d="m 77.756453,550.97742 330.203307,-0.0996 170.87806,171.77559 -501.081367,0 z"
       id="path13997"
       inkscape:connector-curvature="0"
       inkscape:export-filename="/home/waldgeist/data/pics/physik/Own/optik/schatten-schlagschatten.png"
       inkscape:export-xdpi="150"
       inkscape:export-ydpi="150" />
    <path
       sodipodi:nodetypes="scccccscs"
       inkscape:connector-curvature="0"
       id="path14984"
       d="m 362.16845,575.89507 0,-24.48209 22.14519,0 22.14519,0 15.1191,15.14435 17.15296,15.62386 -39.15236,9.52922 c -20.07776,4.88669 -36.22714,7.98972 -36.64689,8.22996 -0.41976,0.24023 -0.76319,-10.58015 -0.76319,-24.0453 z"
       style="fill:#cccccc;fill-opacity:1;stroke:#cccccc;stroke-width:1;stroke-linecap:round;stroke-linejoin:round;stroke-miterlimit:4;stroke-opacity:1;stroke-dasharray:none;stroke-dashoffset:0"
       inkscape:export-filename="/home/waldgeist/data/pics/physik/Own/optik/schatten-schlagschatten.png"
       inkscape:export-xdpi="150"
       inkscape:export-ydpi="150" />
    <path
       style="fill:#cccccc;stroke:#000000;stroke-width:1px;stroke-linecap:butt;stroke-linejoin:miter;stroke-opacity:1"
       d="m 578.83782,722.65344 -501.081367,0"
       id="path14293"
       inkscape:path-effect="#path-effect14202"
       inkscape:original-d="m 578.83782,722.65344 -501.081367,0"
       inkscape:connector-curvature="0"
       inkscape:export-filename="/home/waldgeist/data/pics/physik/Own/optik/schatten-schlagschatten.png"
       inkscape:export-xdpi="150"
       inkscape:export-ydpi="150" />
    <path
       inkscape:connector-curvature="0"
       inkscape:original-d="m 407.1618,550.97742 -329.405347,0"
       inkscape:path-effect="#path-effect14208"
       id="path14295"
       d="m 407.1618,550.97742 -329.405347,0"
       style="fill:#cccccc;stroke:#000000;stroke-width:1px;stroke-linecap:butt;stroke-linejoin:miter;stroke-opacity:1"
       inkscape:export-filename="/home/waldgeist/data/pics/physik/Own/optik/schatten-schlagschatten.png"
       inkscape:export-xdpi="150"
       inkscape:export-ydpi="150" />
    <path
       style="fill:none;stroke:#000000;stroke-width:1px;stroke-linecap:butt;stroke-linejoin:miter;stroke-opacity:1"
       d="M 407.16179,550.97742 578.83782,722.65344"
       id="path14283"
       inkscape:path-effect="#path-effect14176"
       inkscape:original-d="M 407.16179,550.97742 578.83782,722.65344"
       inkscape:connector-curvature="0"
       inkscape:export-filename="/home/waldgeist/data/pics/physik/Own/optik/schatten-schlagschatten.png"
       inkscape:export-xdpi="150"
       inkscape:export-ydpi="150" />
    <path
       inkscape:connector-curvature="0"
       inkscape:original-d="M 407.16179,329.70876 578.83782,501.38477"
       inkscape:path-effect="#path-effect14184"
       id="path14285"
       d="M 407.16179,329.70876 578.83782,501.38477"
       style="fill:none;stroke:#000000;stroke-width:1px;stroke-linecap:butt;stroke-linejoin:miter;stroke-opacity:1"
       inkscape:export-filename="/home/waldgeist/data/pics/physik/Own/optik/schatten-schlagschatten.png"
       inkscape:export-xdpi="150"
       inkscape:export-ydpi="150" />
    <path
       sodipodi:nodetypes="cc"
       style="fill:none;stroke:#000000;stroke-width:1px;stroke-linecap:butt;stroke-linejoin:miter;stroke-opacity:1"
       d="m 578.83782,722.65344 0,-221.23941"
       id="path14287"
       inkscape:path-effect="#path-effect14188"
       inkscape:original-d="m 578.83782,722.65344 0,-221.23941"
       inkscape:connector-curvature="0"
       inkscape:export-filename="/home/waldgeist/data/pics/physik/Own/optik/schatten-schlagschatten.png"
       inkscape:export-xdpi="150"
       inkscape:export-ydpi="150" />
    <path
       sodipodi:nodetypes="cc"
       inkscape:connector-curvature="0"
       inkscape:original-d="m 407.16179,550.97742 0,-221.2394"
       inkscape:path-effect="#path-effect14192"
       id="path14289"
       d="m 407.16179,550.97742 0,-221.2394"
       style="fill:none;stroke:#000000;stroke-width:1px;stroke-linecap:butt;stroke-linejoin:miter;stroke-opacity:1"
       inkscape:export-filename="/home/waldgeist/data/pics/physik/Own/optik/schatten-schlagschatten.png"
       inkscape:export-xdpi="150"
       inkscape:export-ydpi="150" />
    <path
       inkscape:connector-curvature="0"
       inkscape:original-d="m 318.59769,611.4202 42.66826,42.66826"
       inkscape:path-effect="#path-effect52475"
       id="path14299"
       d="m 318.59769,611.4202 42.66826,42.66826"
       style="fill:none;stroke:#000000;stroke-width:1.00000012px;stroke-linecap:butt;stroke-linejoin:miter;stroke-opacity:1"
       inkscape:export-filename="/home/waldgeist/data/pics/physik/Own/optik/schatten-schlagschatten.png"
       inkscape:export-xdpi="150"
       inkscape:export-ydpi="150" />
    <path
       sodipodi:nodetypes="cc"
       style="fill:none;stroke:#000000;stroke-width:1.00000012px;stroke-linecap:butt;stroke-linejoin:miter;stroke-opacity:1"
       d="m 318.59769,477.18391 42.66826,42.66826"
       id="path14301"
       inkscape:path-effect="#path-effect52472"
       inkscape:original-d="m 318.59769,477.18391 42.66826,42.66826"
       inkscape:connector-curvature="0"
       inkscape:export-filename="/home/waldgeist/data/pics/physik/Own/optik/schatten-schlagschatten.png"
       inkscape:export-xdpi="150"
       inkscape:export-ydpi="150" />
    <path
       sodipodi:nodetypes="cc"
       inkscape:connector-curvature="0"
       inkscape:original-d="m 361.26595,654.08846 0,-134.23629"
       inkscape:path-effect="#path-effect52469"
       id="path14303"
       d="m 361.26595,654.08846 0,-134.23629"
       style="fill:none;stroke:#000000;stroke-width:1.00000012px;stroke-linecap:butt;stroke-linejoin:miter;stroke-opacity:1"
       inkscape:export-filename="/home/waldgeist/data/pics/physik/Own/optik/schatten-schlagschatten.png"
       inkscape:export-xdpi="150"
       inkscape:export-ydpi="150" />
    <path
       sodipodi:nodetypes="cc"
       style="fill:none;stroke:#000000;stroke-width:1.00000012px;stroke-linecap:butt;stroke-linejoin:miter;stroke-opacity:1"
       d="m 318.59769,611.4202 0,-134.23629"
       id="path14305"
       inkscape:path-effect="#path-effect52466"
       inkscape:original-d="m 318.59769,611.4202 0,-134.23629"
       inkscape:connector-curvature="0"
       inkscape:export-filename="/home/waldgeist/data/pics/physik/Own/optik/schatten-schlagschatten.png"
       inkscape:export-xdpi="150"
       inkscape:export-ydpi="150" />
    <path
       sodipodi:nodetypes="ccc"
       style="fill:none;stroke:#000000;stroke-width:1.00000083px;stroke-linecap:butt;stroke-linejoin:miter;stroke-opacity:1"
       d="m 520.52157,664.42803 -159.25561,-10.33957 0,0"
       id="path14307"
       inkscape:path-effect="#path-effect14311"
       inkscape:original-d="m 520.52157,664.42803 -159.25561,-10.33957 0,0"
       inkscape:connector-curvature="0"
       inkscape:export-filename="/home/waldgeist/data/pics/physik/Own/optik/schatten-schlagschatten.png"
       inkscape:export-xdpi="150"
       inkscape:export-ydpi="150" />
    <path
       inkscape:transform-center-y="1.2445183"
       inkscape:transform-center-x="3.184315"
       style="fill:#ff6600;stroke:#ff6600;stroke-width:3;stroke-linecap:butt;stroke-linejoin:miter;stroke-miterlimit:4;stroke-opacity:1;stroke-dasharray:none;marker-end:url(#Arrow2Mend)"
       d="M 191.95045,596.52297 437.3427,362.65864"
       id="path14374"
       inkscape:path-effect="#path-effect14376"
       inkscape:original-d="M 191.95045,596.52297 437.3427,362.65864"
       inkscape:connector-curvature="0"
       sodipodi:nodetypes="cc"
       inkscape:export-filename="/home/waldgeist/data/pics/physik/Own/optik/schatten-schlagschatten.png"
       inkscape:export-xdpi="150"
       inkscape:export-ydpi="150" />
    <path
       sodipodi:nodetypes="cc"
       inkscape:connector-curvature="0"
       inkscape:original-d="M 438.73089,582.18119 318.5977,611.4202"
       inkscape:path-effect="#path-effect14380"
       id="path14378"
       d="M 438.73089,582.18119 318.5977,611.4202"
       style="fill:none;stroke:#000000;stroke-width:1.00000083px;stroke-linecap:butt;stroke-linejoin:miter;stroke-opacity:1"
       inkscape:export-filename="/home/waldgeist/data/pics/physik/Own/optik/schatten-schlagschatten.png"
       inkscape:export-xdpi="150"
       inkscape:export-ydpi="150" />
    <path
       inkscape:connector-curvature="0"
       id="path14444"
       d="m 339.64538,631.44215 -20.77558,-20.7779 0,-66.28656 c 0,-36.45761 0.12194,-66.28651 0.27099,-66.28651 0.14904,0 9.62,9.35005 21.04657,20.77784 l 20.77559,20.7779 0,66.28657 c 0,36.45761 -0.12195,66.28656 -0.271,66.28656 -0.14904,0 -9.62,-9.35006 -21.04657,-20.7779 z"
       style="fill:#ffffff;fill-opacity:1;stroke:#ffffff;stroke-width:1;stroke-linecap:round;stroke-linejoin:round;stroke-miterlimit:4;stroke-opacity:1;stroke-dasharray:none;stroke-dashoffset:0"
       inkscape:export-filename="/home/waldgeist/data/pics/physik/Own/optik/schatten-schlagschatten.png"
       inkscape:export-xdpi="150"
       inkscape:export-ydpi="150" />
    <path
       inkscape:connector-curvature="0"
       inkscape:original-d="m 77.756453,722.65344 0,-171.67602"
       inkscape:path-effect="#path-effect14394"
       id="path14392"
       d="m 77.756453,722.65344 0,-171.67602"
       style="fill:none;stroke:#000000;stroke-width:1px;stroke-linecap:butt;stroke-linejoin:miter;stroke-opacity:1"
       inkscape:export-filename="/home/waldgeist/data/pics/physik/Own/optik/schatten-schlagschatten.png"
       inkscape:export-xdpi="150"
       inkscape:export-ydpi="150" />
    <path
       style="fill:none;stroke:#000000;stroke-width:1.00000012px;stroke-linecap:round;stroke-linejoin:miter;stroke-opacity:1"
       d="m 318.59769,611.4202 42.66826,42.66826"
       id="path14416"
       inkscape:path-effect="#path-effect14236"
       inkscape:original-d="m 318.59769,611.4202 42.66826,42.66826"
       inkscape:connector-curvature="0"
       inkscape:export-filename="/home/waldgeist/data/pics/physik/Own/optik/schatten-schlagschatten.png"
       inkscape:export-xdpi="150"
       inkscape:export-ydpi="150" />
    <path
       inkscape:connector-curvature="0"
       inkscape:original-d="m 318.59769,477.18391 42.66826,42.66826"
       inkscape:path-effect="#path-effect14232"
       id="path14418"
       d="m 318.59769,477.18391 42.66826,42.66826"
       style="fill:none;stroke:#000000;stroke-width:1.00000012px;stroke-linecap:round;stroke-linejoin:miter;stroke-opacity:1"
       sodipodi:nodetypes="cc"
       inkscape:export-filename="/home/waldgeist/data/pics/physik/Own/optik/schatten-schlagschatten.png"
       inkscape:export-xdpi="150"
       inkscape:export-ydpi="150" />
    <path
       style="fill:none;stroke:#000000;stroke-width:1.00000012px;stroke-linecap:round;stroke-linejoin:miter;stroke-opacity:1"
       d="m 361.26595,654.08846 0,-134.23629"
       id="path14420"
       inkscape:path-effect="#path-effect14240"
       inkscape:original-d="m 361.26595,654.08846 0,-134.23629"
       inkscape:connector-curvature="0"
       sodipodi:nodetypes="cc"
       inkscape:export-filename="/home/waldgeist/data/pics/physik/Own/optik/schatten-schlagschatten.png"
       inkscape:export-xdpi="150"
       inkscape:export-ydpi="150" />
    <path
       inkscape:connector-curvature="0"
       inkscape:original-d="m 318.59769,611.4202 0,-134.23629"
       inkscape:path-effect="#path-effect14238"
       id="path14422"
       d="m 318.59769,611.4202 0,-134.23629"
       style="fill:none;stroke:#000000;stroke-width:1.00000012px;stroke-linecap:round;stroke-linejoin:miter;stroke-opacity:1"
       sodipodi:nodetypes="cc"
       inkscape:export-filename="/home/waldgeist/data/pics/physik/Own/optik/schatten-schlagschatten.png"
       inkscape:export-xdpi="150"
       inkscape:export-ydpi="150" />
    <path
       inkscape:connector-curvature="0"
       inkscape:original-d="m 438.73089,582.18119 0,-220.90335 81.79068,81.79068 0,221.26866 z"
       inkscape:path-effect="#path-effect14970"
       id="path14968"
       d="m 438.73089,582.18119 0,-220.90335 81.79068,81.79068 0,221.26866 -81.79068,-82.15599"
       style="fill:#666666;stroke:#000000;stroke-width:1px;stroke-linecap:butt;stroke-linejoin:miter;stroke-opacity:1"
       inkscape:export-filename="/home/waldgeist/data/pics/physik/Own/optik/schatten-schlagschatten.png"
       inkscape:export-xdpi="150"
       inkscape:export-ydpi="150" />
    <path
       inkscape:connector-curvature="0"
       inkscape:original-d="M 193.36647,599.85867 518.67417,443.79086"
       inkscape:path-effect="#path-effect14342"
       id="path14340"
       d="M 193.36647,599.85867 518.67417,443.79086"
       style="fill:#ff6600;stroke:#ff6600;stroke-width:3;stroke-linecap:butt;stroke-linejoin:miter;stroke-miterlimit:4;stroke-opacity:1;stroke-dasharray:none;marker-end:url(#Arrow2Mend)"
       sodipodi:nodetypes="cc"
       inkscape:export-filename="/home/waldgeist/data/pics/physik/Own/optik/schatten-schlagschatten.png"
       inkscape:export-xdpi="150"
       inkscape:export-ydpi="150" />
    <path
       inkscape:connector-curvature="0"
       inkscape:original-d="m 361.26596,654.08846 0,-53.05321 77.46493,-18.85406 81.79068,82.15599 z"
       inkscape:path-effect="#path-effect14974"
       id="path14972"
       d="m 361.26596,654.08846 0,-53.05321 77.46493,-18.85406 81.79068,82.15599 -159.25561,-10.24872"
       style="fill:#666666;stroke:#000000;stroke-width:1px;stroke-linecap:butt;stroke-linejoin:miter;stroke-opacity:1"
       inkscape:export-filename="/home/waldgeist/data/pics/physik/Own/optik/schatten-schlagschatten.png"
       inkscape:export-xdpi="150"
       inkscape:export-ydpi="150" />
    <rect
       style="fill:#666666;stroke:#501616;stroke-width:0.61231041;stroke-linecap:butt;stroke-linejoin:round;stroke-miterlimit:4;stroke-opacity:1;stroke-dasharray:none;stroke-dashoffset:0"
       id="rect36129"
       width="0.96113855"
       height="9.9822311"
       x="193.37628"
       y="608.89563"
       inkscape:export-filename="/home/waldgeist/data/pics/physik/Own/optik/schatten-schlagschatten.png"
       inkscape:export-xdpi="150"
       inkscape:export-ydpi="150" />
    <g
       id="g52199"
       ns0:preamble=""
       ns0:text="Schlagschatten"
       transform="matrix(2.4910921,0,0,2.4910921,-57.151128,51.77121)"
       inkscape:export-filename="/home/waldgeist/data/pics/physik/Own/optik/schatten-schlagschatten.png"
       inkscape:export-xdpi="150"
       inkscape:export-ydpi="150">
      <defs
         id="defs52201">
        <g
           id="g52203">
          <symbol
             id="textext-db26bd1a-0"
             overflow="visible"
             style="overflow:visible">
            <path
               id="path52206"
               d="m 3.484375,-3.875 -1.28125,-0.296875 c -0.625,-0.15625 -1,-0.6875 -1,-1.265625 0,-0.703125 0.53125,-1.3125 1.3125,-1.3125 1.65625,0 1.875,1.640625 1.9375,2.078125 0.015625,0.0625 0.015625,0.125 0.125,0.125 0.125,0 0.125,-0.046875 0.125,-0.234375 l 0,-2 c 0,-0.171875 0,-0.25 -0.109375,-0.25 -0.0625,0 -0.078125,0.015625 -0.140625,0.140625 l -0.359375,0.5625 C 3.796875,-6.625 3.390625,-7.03125 2.5,-7.03125 c -1.109375,0 -1.9375,0.875 -1.9375,1.9375 0,0.828125 0.53125,1.5625 1.296875,1.828125 0.109375,0.03125 0.625,0.15625 1.328125,0.328125 0.265625,0.0625 0.5625,0.140625 0.84375,0.5 0.203125,0.265625 0.3125,0.59375 0.3125,0.921875 0,0.703125 -0.5,1.421875 -1.34375,1.421875 -0.28125,0 -1.046875,-0.046875 -1.578125,-0.53125 C 0.84375,-1.171875 0.8125,-1.796875 0.8125,-2.15625 0.796875,-2.265625 0.71875,-2.265625 0.6875,-2.265625 c -0.125,0 -0.125,0.078125 -0.125,0.25 l 0,2 c 0,0.171875 0,0.234375 0.109375,0.234375 0.0625,0 0.078125,-0.015625 0.140625,-0.125 0,-0.015625 0.03125,-0.046875 0.359375,-0.578125 0.3125,0.34375 0.953125,0.703125 1.84375,0.703125 1.15625,0 1.953125,-0.96875 1.953125,-2.078125 0,-0.984375 -0.65625,-1.8125 -1.484375,-2.015625 z m 0,0"
               style="stroke:none"
               inkscape:connector-curvature="0" />
          </symbol>
          <symbol
             id="textext-db26bd1a-1"
             overflow="visible"
             style="overflow:visible">
            <path
               id="path52209"
               d="m 1.171875,-2.171875 c 0,-1.625 0.8125,-2.046875 1.34375,-2.046875 0.09375,0 0.71875,0.015625 1.0625,0.375 -0.40625,0.03125 -0.46875,0.328125 -0.46875,0.453125 0,0.265625 0.1875,0.453125 0.453125,0.453125 0.265625,0 0.46875,-0.15625 0.46875,-0.46875 0,-0.671875 -0.765625,-1.0625 -1.53125,-1.0625 -1.25,0 -2.15625,1.078125 -2.15625,2.3125 0,1.28125 0.984375,2.265625 2.140625,2.265625 1.328125,0 1.65625,-1.203125 1.65625,-1.296875 0,-0.09375 -0.109375,-0.09375 -0.140625,-0.09375 -0.078125,0 -0.109375,0.03125 -0.125,0.09375 -0.28125,0.921875 -0.9375,1.046875 -1.296875,1.046875 -0.53125,0 -1.40625,-0.421875 -1.40625,-2.03125 z m 0,0"
               style="stroke:none"
               inkscape:connector-curvature="0" />
          </symbol>
          <symbol
             id="textext-db26bd1a-2"
             overflow="visible"
             style="overflow:visible">
            <path
               id="path52212"
               d="m 1.09375,-0.75 c 0,0.4375 -0.109375,0.4375 -0.78125,0.4375 l 0,0.3125 c 0.359375,-0.015625 0.859375,-0.03125 1.140625,-0.03125 0.25,0 0.765625,0.015625 1.109375,0.03125 l 0,-0.3125 c -0.671875,0 -0.78125,0 -0.78125,-0.4375 l 0,-1.84375 C 1.78125,-3.625 2.5,-4.1875 3.125,-4.1875 c 0.640625,0 0.75,0.53125 0.75,1.109375 l 0,2.328125 c 0,0.4375 -0.109375,0.4375 -0.78125,0.4375 l 0,0.3125 c 0.34375,-0.015625 0.859375,-0.03125 1.125,-0.03125 0.25,0 0.78125,0.015625 1.109375,0.03125 l 0,-0.3125 c -0.515625,0 -0.765625,0 -0.765625,-0.296875 l 0,-1.90625 c 0,-0.859375 0,-1.15625 -0.3125,-1.515625 -0.140625,-0.171875 -0.46875,-0.375 -1.046875,-0.375 -0.84375,0 -1.28125,0.59375 -1.453125,0.984375 l 0,-3.5 -1.4375,0.109375 0,0.3125 c 0.703125,0 0.78125,0.0625 0.78125,0.5625 z m 0,0"
               style="stroke:none"
               inkscape:connector-curvature="0" />
          </symbol>
          <symbol
             id="textext-db26bd1a-3"
             overflow="visible"
             style="overflow:visible">
            <path
               id="path52215"
               d="m 1.765625,-6.921875 -1.4375,0.109375 0,0.3125 c 0.703125,0 0.78125,0.0625 0.78125,0.5625 l 0,5.1875 c 0,0.4375 -0.109375,0.4375 -0.78125,0.4375 l 0,0.3125 C 0.65625,-0.015625 1.1875,-0.03125 1.4375,-0.03125 c 0.25,0 0.734375,0.015625 1.109375,0.03125 l 0,-0.3125 c -0.671875,0 -0.78125,0 -0.78125,-0.4375 z m 0,0"
               style="stroke:none"
               inkscape:connector-curvature="0" />
          </symbol>
          <symbol
             id="textext-db26bd1a-4"
             overflow="visible"
             style="overflow:visible">
            <path
               id="path52218"
               d="m 3.3125,-0.75 c 0.046875,0.390625 0.3125,0.8125 0.78125,0.8125 0.21875,0 0.828125,-0.140625 0.828125,-0.953125 l 0,-0.5625 -0.25,0 0,0.5625 c 0,0.578125 -0.25,0.640625 -0.359375,0.640625 -0.328125,0 -0.375,-0.453125 -0.375,-0.5 l 0,-1.984375 c 0,-0.421875 0,-0.8125 -0.359375,-1.1875 C 3.1875,-4.3125 2.6875,-4.46875 2.21875,-4.46875 c -0.828125,0 -1.515625,0.46875 -1.515625,1.125 0,0.296875 0.203125,0.46875 0.46875,0.46875 0.28125,0 0.453125,-0.203125 0.453125,-0.453125 0,-0.125 -0.046875,-0.453125 -0.515625,-0.453125 C 1.390625,-4.140625 1.875,-4.25 2.1875,-4.25 c 0.5,0 1.0625,0.390625 1.0625,1.28125 l 0,0.359375 c -0.515625,0.03125 -1.203125,0.0625 -1.828125,0.359375 -0.75,0.34375 -1,0.859375 -1,1.296875 0,0.8125 0.96875,1.0625 1.59375,1.0625 0.65625,0 1.109375,-0.40625 1.296875,-0.859375 z M 3.25,-2.390625 l 0,1 c 0,0.9375 -0.71875,1.28125 -1.171875,1.28125 -0.484375,0 -0.890625,-0.34375 -0.890625,-0.84375 0,-0.546875 0.421875,-1.375 2.0625,-1.4375 z m 0,0"
               style="stroke:none"
               inkscape:connector-curvature="0" />
          </symbol>
          <symbol
             id="textext-db26bd1a-5"
             overflow="visible"
             style="overflow:visible">
            <path
               id="path52221"
               d="m 2.21875,-1.71875 c -0.875,0 -0.875,-1 -0.875,-1.21875 0,-0.265625 0.015625,-0.59375 0.15625,-0.84375 0.078125,-0.109375 0.3125,-0.390625 0.71875,-0.390625 0.859375,0 0.859375,0.984375 0.859375,1.21875 0,0.265625 0,0.59375 -0.15625,0.84375 C 2.84375,-2 2.609375,-1.71875 2.21875,-1.71875 z M 1.0625,-1.328125 c 0,-0.03125 0,-0.265625 0.15625,-0.46875 0.390625,0.28125 0.8125,0.3125 1,0.3125 0.921875,0 1.609375,-0.6875 1.609375,-1.453125 0,-0.375 -0.15625,-0.734375 -0.40625,-0.96875 C 3.78125,-4.25 4.140625,-4.296875 4.3125,-4.296875 c 0.03125,0 0.078125,0 0.109375,0.015625 C 4.3125,-4.25 4.25,-4.140625 4.25,-4.015625 c 0,0.171875 0.140625,0.28125 0.296875,0.28125 0.09375,0 0.28125,-0.0625 0.28125,-0.296875 0,-0.171875 -0.109375,-0.484375 -0.5,-0.484375 -0.203125,0 -0.640625,0.0625 -1.0625,0.46875 C 2.84375,-4.375 2.4375,-4.40625 2.21875,-4.40625 c -0.9375,0 -1.625,0.6875 -1.625,1.453125 0,0.4375 0.21875,0.8125 0.46875,1.03125 -0.125,0.140625 -0.3125,0.46875 -0.3125,0.828125 0,0.3125 0.140625,0.6875 0.453125,0.890625 -0.609375,0.15625 -0.921875,0.59375 -0.921875,0.984375 0,0.71875 0.984375,1.265625 2.203125,1.265625 1.171875,0 2.203125,-0.5 2.203125,-1.28125 0,-0.34375 -0.125,-0.859375 -0.640625,-1.140625 -0.53125,-0.265625 -1.109375,-0.265625 -1.71875,-0.265625 -0.25,0 -0.671875,0 -0.75,-0.015625 C 1.265625,-0.703125 1.0625,-1 1.0625,-1.328125 z M 2.5,1.828125 c -1.015625,0 -1.703125,-0.515625 -1.703125,-1.046875 0,-0.453125 0.375,-0.828125 0.8125,-0.84375 l 0.59375,0 c 0.859375,0 1.96875,0 1.96875,0.84375 0,0.546875 -0.703125,1.046875 -1.671875,1.046875 z m 0,0"
               style="stroke:none"
               inkscape:connector-curvature="0" />
          </symbol>
          <symbol
             id="textext-db26bd1a-6"
             overflow="visible"
             style="overflow:visible">
            <path
               id="path52224"
               d="m 2.078125,-1.9375 c 0.21875,0.046875 1.03125,0.203125 1.03125,0.921875 0,0.5 -0.34375,0.90625 -1.125,0.90625 -0.84375,0 -1.203125,-0.5625 -1.390625,-1.421875 C 0.5625,-1.65625 0.5625,-1.6875 0.453125,-1.6875 c -0.125,0 -0.125,0.0625 -0.125,0.234375 l 0,1.328125 c 0,0.171875 0,0.234375 0.109375,0.234375 0.046875,0 0.0625,-0.015625 0.25,-0.203125 0.015625,-0.015625 0.015625,-0.03125 0.203125,-0.21875 0.4375,0.40625 0.890625,0.421875 1.09375,0.421875 1.140625,0 1.609375,-0.671875 1.609375,-1.390625 0,-0.515625 -0.296875,-0.828125 -0.421875,-0.9375 C 2.84375,-2.546875 2.453125,-2.625 2.03125,-2.703125 1.46875,-2.8125 0.8125,-2.9375 0.8125,-3.515625 c 0,-0.359375 0.25,-0.765625 1.109375,-0.765625 1.09375,0 1.15625,0.90625 1.171875,1.203125 0,0.09375 0.09375,0.09375 0.109375,0.09375 0.140625,0 0.140625,-0.046875 0.140625,-0.234375 l 0,-1.015625 c 0,-0.15625 0,-0.234375 -0.109375,-0.234375 -0.046875,0 -0.078125,0 -0.203125,0.125 -0.03125,0.03125 -0.125,0.125 -0.171875,0.15625 -0.375,-0.28125 -0.78125,-0.28125 -0.9375,-0.28125 -1.21875,0 -1.59375,0.671875 -1.59375,1.234375 0,0.34375 0.15625,0.625 0.421875,0.84375 0.328125,0.25 0.609375,0.3125 1.328125,0.453125 z m 0,0"
               style="stroke:none"
               inkscape:connector-curvature="0" />
          </symbol>
          <symbol
             id="textext-db26bd1a-7"
             overflow="visible"
             style="overflow:visible">
            <path
               id="path52227"
               d="m 1.71875,-3.984375 1.4375,0 0,-0.3125 -1.4375,0 0,-1.828125 -0.25,0 c 0,0.8125 -0.296875,1.875 -1.28125,1.921875 l 0,0.21875 0.84375,0 0,2.75 c 0,1.21875 0.9375,1.34375 1.296875,1.34375 0.703125,0 0.984375,-0.703125 0.984375,-1.34375 l 0,-0.5625 -0.25,0 0,0.546875 c 0,0.734375 -0.296875,1.109375 -0.671875,1.109375 -0.671875,0 -0.671875,-0.90625 -0.671875,-1.078125 z m 0,0"
               style="stroke:none"
               inkscape:connector-curvature="0" />
          </symbol>
          <symbol
             id="textext-db26bd1a-8"
             overflow="visible"
             style="overflow:visible">
            <path
               id="path52230"
               d="M 1.109375,-2.515625 C 1.171875,-4 2.015625,-4.25 2.359375,-4.25 c 1.015625,0 1.125,1.34375 1.125,1.734375 z m 0,0.21875 2.78125,0 c 0.21875,0 0.25,0 0.25,-0.21875 0,-0.984375 -0.546875,-1.953125 -1.78125,-1.953125 -1.15625,0 -2.078125,1.03125 -2.078125,2.28125 0,1.328125 1.046875,2.296875 2.1875,2.296875 C 3.6875,0.109375 4.140625,-1 4.140625,-1.1875 4.140625,-1.28125 4.0625,-1.3125 4,-1.3125 c -0.078125,0 -0.109375,0.0625 -0.125,0.140625 -0.34375,1.03125 -1.25,1.03125 -1.34375,1.03125 -0.5,0 -0.890625,-0.296875 -1.125,-0.671875 -0.296875,-0.46875 -0.296875,-1.125 -0.296875,-1.484375 z m 0,0"
               style="stroke:none"
               inkscape:connector-curvature="0" />
          </symbol>
          <symbol
             id="textext-db26bd1a-9"
             overflow="visible"
             style="overflow:visible">
            <path
               id="path52233"
               d="m 1.09375,-3.421875 0,2.671875 c 0,0.4375 -0.109375,0.4375 -0.78125,0.4375 l 0,0.3125 c 0.359375,-0.015625 0.859375,-0.03125 1.140625,-0.03125 0.25,0 0.765625,0.015625 1.109375,0.03125 l 0,-0.3125 c -0.671875,0 -0.78125,0 -0.78125,-0.4375 l 0,-1.84375 C 1.78125,-3.625 2.5,-4.1875 3.125,-4.1875 c 0.640625,0 0.75,0.53125 0.75,1.109375 l 0,2.328125 c 0,0.4375 -0.109375,0.4375 -0.78125,0.4375 l 0,0.3125 c 0.34375,-0.015625 0.859375,-0.03125 1.125,-0.03125 0.25,0 0.78125,0.015625 1.109375,0.03125 l 0,-0.3125 c -0.515625,0 -0.765625,0 -0.765625,-0.296875 l 0,-1.90625 c 0,-0.859375 0,-1.15625 -0.3125,-1.515625 -0.140625,-0.171875 -0.46875,-0.375 -1.046875,-0.375 C 2.46875,-4.40625 2,-3.984375 1.71875,-3.359375 l 0,-1.046875 -1.40625,0.109375 0,0.3125 c 0.703125,0 0.78125,0.0625 0.78125,0.5625 z m 0,0"
               style="stroke:none"
               inkscape:connector-curvature="0" />
          </symbol>
        </g>
      </defs>
      <g
         id="textext-db26bd1a-10">
        <g
           id="g52236"
           style="fill:#000000;fill-opacity:1">
          <use
             id="use52238"
             y="134.765"
             x="223.43201"
             xlink:href="#textext-db26bd1a-0"
             width="744.09448"
             height="1052.3622" />
          <use
             id="use52240"
             y="134.765"
             x="228.96722"
             xlink:href="#textext-db26bd1a-1"
             width="744.09448"
             height="1052.3622" />
        </g>
        <g
           id="g52242"
           style="fill:#000000;fill-opacity:1">
          <use
             id="use52244"
             y="134.765"
             x="233.11565"
             xlink:href="#textext-db26bd1a-2"
             width="744.09448"
             height="1052.3622" />
          <use
             id="use52246"
             y="134.765"
             x="238.65086"
             xlink:href="#textext-db26bd1a-3"
             width="744.09448"
             height="1052.3622" />
          <use
             id="use52248"
             y="134.765"
             x="241.41847"
             xlink:href="#textext-db26bd1a-4"
             width="744.09448"
             height="1052.3622" />
          <use
             id="use52250"
             y="134.765"
             x="246.39978"
             xlink:href="#textext-db26bd1a-5"
             width="744.09448"
             height="1052.3622" />
          <use
             id="use52252"
             y="134.765"
             x="251.38107"
             xlink:href="#textext-db26bd1a-6"
             width="744.09448"
             height="1052.3622" />
          <use
             id="use52254"
             y="134.765"
             x="255.31033"
             xlink:href="#textext-db26bd1a-1"
             width="744.09448"
             height="1052.3622" />
        </g>
        <g
           id="g52256"
           style="fill:#000000;fill-opacity:1">
          <use
             id="use52258"
             y="134.765"
             x="259.45874"
             xlink:href="#textext-db26bd1a-2"
             width="744.09448"
             height="1052.3622" />
          <use
             id="use52260"
             y="134.765"
             x="264.99399"
             xlink:href="#textext-db26bd1a-4"
             width="744.09448"
             height="1052.3622" />
          <use
             id="use52262"
             y="134.765"
             x="269.97528"
             xlink:href="#textext-db26bd1a-7"
             width="744.09448"
             height="1052.3622" />
          <use
             id="use52264"
             y="134.765"
             x="273.84973"
             xlink:href="#textext-db26bd1a-7"
             width="744.09448"
             height="1052.3622" />
          <use
             id="use52266"
             y="134.765"
             x="277.72418"
             xlink:href="#textext-db26bd1a-8"
             width="744.09448"
             height="1052.3622" />
          <use
             id="use52268"
             y="134.765"
             x="282.15155"
             xlink:href="#textext-db26bd1a-9"
             width="744.09448"
             height="1052.3622" />
        </g>
      </g>
    </g>
    <g
       transform="matrix(0.20100057,0,0,0.20100057,150.06735,520.65972)"
       id="g11261"
       inkscape:export-filename="/home/waldgeist/data/pics/physik/Own/optik/schatten-schlagschatten.png"
       inkscape:export-xdpi="150"
       inkscape:export-ydpi="150">
      <g
         transform="matrix(1,0,0,0.853065,124.27926,120.69817)"
         id="g10747">
        <path
           inkscape:connector-curvature="0"
           style="fill:#782121;stroke:#501616;stroke-width:3.23151207;stroke-linecap:butt;stroke-linejoin:round;stroke-miterlimit:4;stroke-opacity:1;stroke-dasharray:none;stroke-dashoffset:0"
           d="m 57.21875,431.84375 0,161.625 c 0,11.91034 16.259645,21.5625 36.34375,21.5625 20.08411,0 36.375,-9.65216 36.375,-21.5625 l 0,-161.625 -72.71875,0 z"
           id="rect10739" />
        <path
           transform="matrix(0.59199636,0,0,0.59199636,28.451846,216.0664)"
           d="m 171.42857,364.50504 c 0,20.11894 -27.50251,36.42857 -61.42857,36.42857 -33.926062,0 -61.42857,-16.30963 -61.42857,-36.42857 0,-20.11895 27.502508,-36.42857 61.42857,-36.42857 33.92606,0 61.42857,16.30962 61.42857,36.42857 z"
           sodipodi:ry="36.42857"
           sodipodi:rx="61.42857"
           sodipodi:cy="364.50504"
           sodipodi:cx="110"
           id="path10743"
           style="color:#000000;fill:#782121;fill-opacity:1;fill-rule:nonzero;stroke:#550000;stroke-width:4.54948902;stroke-linecap:butt;stroke-linejoin:miter;stroke-miterlimit:4;stroke-opacity:1;stroke-dasharray:none;stroke-dashoffset:0;marker:none;visibility:visible;display:inline;overflow:visible;enable-background:accumulate"
           sodipodi:type="arc" />
      </g>
      <rect
         style="fill:#666666;stroke:#501616;stroke-width:2.98467278;stroke-linecap:butt;stroke-linejoin:round;stroke-miterlimit:4;stroke-opacity:1;stroke-dasharray:none;stroke-dashoffset:0"
         id="rect10724"
         width="5.0507627"
         height="51.51778"
         x="215.332"
         y="440.88541" />
      <path
         style="fill:url(#radialGradient122656);fill-opacity:1;stroke:#501616;stroke-width:2.98467278px;stroke-linecap:butt;stroke-linejoin:miter;stroke-opacity:1"
         d="m 227.0783,453.0996 c -9.55633,2.26823 -20.13412,-0.30514 -27.58052,-6.70978 -7.44639,-6.40465 -11.57299,-16.47852 -10.75968,-26.26662 0.51545,-6.20332 2.87457,-12.12012 5.81058,-17.6089 2.93601,-5.48879 6.46253,-10.63928 9.55702,-16.0403 13.16276,-22.97385 18.14701,-50.52551 13.8673,-76.6548 7.66325,28.59044 15.62403,57.10113 23.8806,85.5259 2.36731,8.14989 4.77532,16.38745 5.17183,24.86492 0.3965,8.47748 -1.41355,17.35514 -6.70403,23.99108 -3.3677,4.22416 -8.05954,7.37677 -13.2431,8.8985"
         id="path10728"
         inkscape:path-effect="#path-effect10735"
         inkscape:original-d="m 227.0783,453.0996 c 0,0 -41.3481,-11.1222 -38.3402,-32.9764 1.5039,-10.927 0.7821,-23.2529 15.3676,-33.6492 14.5855,-10.3962 20.4245,-60.5575 13.8673,-76.6548 20.4237,-4.9901 17.6166,53.3136 23.8806,85.5259 6.264,32.2123 8.2369,37.2168 -1.5322,48.856 -19.3194,23.0178 34.3564,-27.1838 -13.2431,8.8985 z"
         inkscape:connector-curvature="0"
         sodipodi:nodetypes="ccccssc" />
    </g>
  </g>
</svg>
