<svg xmlns="http://www.w3.org/2000/svg" xmlns:xlink="http://www.w3.org/1999/xlink" width="210mm" height="297mm" viewBox="0 0 744.09449 1052.3622"><title>Schattenwurf</title><defs><filter id="h"><feBlend mode="multiply" in2="BackgroundImage"/></filter><linearGradient id="d"><stop offset="0" stop-color="#fff6d5"/><stop offset=".102" stop-color="#fff4cb"/><stop offset=".71" stop-color="#ffce0e"/><stop offset="1" stop-color="#d4aa00"/></linearGradient><linearGradient id="c"><stop offset="0" stop-color="#fff6d5"/><stop offset="1" stop-color="#fd5"/></linearGradient><linearGradient id="b"><stop offset="0" stop-color="#e3dbdb"/><stop offset=".492" stop-color="#c8b7b7"/><stop offset="1" stop-color="#e3dedb"/></linearGradient><linearGradient id="a"><stop offset="0" stop-color="#e3dbdb" stop-opacity="0"/><stop offset=".803" stop-color="#d7cecb" stop-opacity=".439"/><stop offset="1" stop-color="#c8b7b7"/></linearGradient><linearGradient xlink:href="#b" id="i" gradientUnits="userSpaceOnUse" gradientTransform="translate(0 3215.22)" x1="-36.158" y1="672.61" x2="42.25" y2="661.484"/><radialGradient xlink:href="#c" id="j" gradientUnits="userSpaceOnUse" gradientTransform="matrix(.52653 1.93287 -1.87006 .50942 1035.422 3510.745)" cx="-15.052" cy="562.422" fx="-15.052" fy="562.422" r="67.42"/><radialGradient xlink:href="#a" id="k" gradientUnits="userSpaceOnUse" gradientTransform="matrix(.163 1.9542 -1.79888 .15005 1153.95 3790.334)" cx="-28.422" cy="640.855" fx="-28.422" fy="640.855" r="39.344"/><linearGradient xlink:href="#b" id="e" gradientUnits="userSpaceOnUse" gradientTransform="translate(0 3215.22)" x1="-36.158" y1="672.61" x2="42.25" y2="661.484"/><radialGradient xlink:href="#c" id="f" gradientUnits="userSpaceOnUse" gradientTransform="matrix(.52653 1.93287 -1.87006 .50942 1035.422 3510.745)" cx="-15.052" cy="562.422" fx="-15.052" fy="562.422" r="67.42"/><radialGradient xlink:href="#a" id="g" gradientUnits="userSpaceOnUse" gradientTransform="matrix(.163 1.9542 -1.79888 .15005 1153.95 3790.334)" cx="-28.422" cy="640.855" fx="-28.422" fy="640.855" r="39.344"/></defs><path fill="#fff" d="M59.19 395.467h625.714v261.429H59.19z"/><path fill="#ccc" stroke="#ccc" stroke-linecap="square" stroke-linejoin="round" d="M416.835 628.475h251.429v10.215H416.835z"/><ellipse transform="matrix(2.66079 0 0 .82197 24.897 399.664)" cx="172.857" cy="284.148" rx="24.286" ry="5.357" fill="#666" stroke="#666" stroke-linecap="square" stroke-linejoin="round"/><path d="M542.55 517.214c-4.537 0-8.199 3.724-8.199 8.287 0 4.564 3.662 8.247 8.198 8.247 4.537 0 8.24-3.683 8.24-8.247 0-4.563-3.703-8.287-8.24-8.287zm-12.808 21.128c-4.252 0-7.627 3.274-7.627 7.303v33.436c0 5.111 7.342 5.111 7.342 0v-26.42h2.61v75.323c0 2.305 2.054 4.225 4.487 4.225 2.433 0 4.282-1.92 4.282-4.225v-41.477h3.427v41.477c0 2.305 1.89 4.225 4.323 4.225 2.433 0 4.486-1.92 4.486-4.225V552.66h2.57v26.421c0 5.111 7.342 5.111 7.342 0v-33.436c0-4.029-3.375-7.303-7.627-7.303z"/><g enable-background="new"><path style="marker:none" d="M42.25 627.063c-21.657 18.446-54.196 24.748-78.688 9.593 1.494 3.41 2.376 6.156 2.376 7.969 0 23.202-.513 51.281 34.593 51.281 35.107 0 34.594-28.079 34.594-51.281 0-3.293 2.993-9.688 7.125-17.563z" overflow="visible" fill="url(#e)" enable-background="accumulate" transform="matrix(.10924 0 0 -.10924 613.272 520.255)"/><path style="marker:none" d="M.531 477.001c-74.88 0-100.19 43.19-106.772 75.79-5.554 27.506 35.109 87.915 47.94 117.216 38.975 24.117 90.758 14.088 125.223-15.268 16.59-31.616 45.095-78.602 40.381-101.948-6.582-32.6-31.892-75.79-106.772-75.79z" overflow="visible" fill="url(#f)" enable-background="accumulate" transform="matrix(.10924 0 0 -.10924 613.272 520.255)"/><path d="M42.25 627.063c-21.657 18.446-54.196 24.748-78.688 9.593 1.494 3.41 2.376 6.156 2.376 7.969 0 23.202-.513 51.281 34.593 51.281 35.107 0 34.594-28.079 34.594-51.281 0-3.293 2.993-9.688 7.125-17.563z" style="marker:none" overflow="visible" fill="url(#g)" filter="url(#h)" enable-background="accumulate" transform="matrix(.10924 0 0 -.10924 613.272 520.255)"/></g><path d="M588.7 460.123l15.795-27.132h18.45l15.534 27.132c-16.46-3.864-33.048-4.004-49.779 0z" fill="#ccc" stroke="#000" stroke-width=".56976"/><path d="M613.59 432.779v-19.107" fill="none" stroke="#000"/><path d="M420.37 630.887L601.56 457.75M553.713 628.26l57.719-159.668" fill="none" stroke="#ff7f2a" stroke-dasharray="1,1"/><path fill="#ccc" stroke="#ccc" stroke-linecap="square" stroke-linejoin="round" d="M75.831 628.475H327.26v10.215H75.831z"/><g enable-background="new"><path style="marker:none" d="M42.25 627.063c-21.657 18.446-54.196 24.748-78.688 9.593 1.494 3.41 2.376 6.156 2.376 7.969 0 23.202-.513 51.281 34.593 51.281 35.107 0 34.594-28.079 34.594-51.281 0-3.293 2.993-9.688 7.125-17.563z" overflow="visible" fill="url(#i)" enable-background="accumulate" transform="matrix(.10924 0 0 -.10924 201.228 520.255)"/><path style="marker:none" d="M.531 477.001c-74.88 0-100.19 43.19-106.772 75.79-5.554 27.506 35.109 87.915 47.94 117.216 38.975 24.117 90.758 14.088 125.223-15.268 16.59-31.616 45.095-78.602 40.381-101.948-6.582-32.6-31.892-75.79-106.772-75.79z" overflow="visible" fill="url(#j)" enable-background="accumulate" transform="matrix(.10924 0 0 -.10924 201.228 520.255)"/><path d="M42.25 627.063c-21.657 18.446-54.196 24.748-78.688 9.593 1.494 3.41 2.376 6.156 2.376 7.969 0 23.202-.513 51.281 34.593 51.281 35.107 0 34.594-28.079 34.594-51.281 0-3.293 2.993-9.688 7.125-17.563z" style="marker:none" overflow="visible" fill="url(#k)" filter="url(#h)" enable-background="accumulate" transform="matrix(.10924 0 0 -.10924 201.228 520.255)"/></g><path d="M176.656 460.123l15.794-27.132h18.45l15.534 27.132c-16.46-3.864-33.047-4.004-49.778 0z" fill="#ccc" stroke="#000" stroke-width=".56976"/><ellipse transform="matrix(1.14712 0 0 .86693 2.544 386.89)" cx="172.857" cy="284.148" rx="24.286" ry="5.357" fill="#666" stroke="#666" stroke-linecap="square" stroke-linejoin="round"/><path d="M201.545 517.214c-4.537 0-8.198 3.724-8.198 8.287 0 4.564 3.661 8.247 8.198 8.247 4.537 0 8.239-3.683 8.239-8.247 0-4.563-3.702-8.287-8.239-8.287zm-12.807 21.128c-4.252 0-7.627 3.274-7.627 7.303v33.436c0 5.111 7.341 5.111 7.341 0v-26.42h2.61v75.323c0 2.305 2.054 4.225 4.487 4.225 2.433 0 4.283-1.92 4.283-4.225v-41.477h3.426v41.477c0 2.305 1.89 4.225 4.323 4.225 2.433 0 4.487-1.92 4.487-4.225V552.66h2.57v26.421c0 5.111 7.341 5.111 7.341 0v-33.436c0-4.029-3.375-7.303-7.627-7.303z"/><path d="M201.545 432.779v-19.107" fill="none" stroke="#000"/><path d="M172.847 633.247l17.064-175.315M230.625 633.247l-17.063-175.315" fill="none" stroke="#ff7f2a" stroke-dasharray="1,1"/></svg>