<svg xmlns:ns0="http://www.iki.fi/pav/software/textext/" xmlns="http://www.w3.org/2000/svg" xmlns:xlink="http://www.w3.org/1999/xlink" width="1052.362" height="744.094"><title>Die Mondfinsternis</title><defs><linearGradient id="a"><stop offset="0"/><stop offset="1" stop-color="#fff"/></linearGradient><linearGradient id="b"><stop offset="0"/><stop offset="1" stop-color="#fff"/></linearGradient><linearGradient xlink:href="#b" id="c" gradientUnits="userSpaceOnUse" x1="694.286" y1="352.538" x2="894.286" y2="352.666"/><linearGradient xlink:href="#a" id="p" gradientUnits="userSpaceOnUse" x1="894.286" y1="352.666" x2="895.286" y2="352.666"/></defs><path fill="#fff" stroke="#fff" stroke-width=".167" d="M16.423 206.507H1035.94v331.08H16.423z"/><path d="M1007.635 363.114c0 65.757-53.307 119.063-119.064 119.063-65.756 0-119.063-53.306-119.063-119.063s53.307-119.063 119.063-119.063c65.757 0 119.064 53.306 119.064 119.063z" style="marker:none" color="#000" fill="#fc0" stroke="gray" stroke-width="1.0001292" overflow="visible"/><path d="M140.585 324.223l-100.87 10.43v56.676l102.318 10.676v-.031c-14.913-3.885-26.097-19.883-26.097-39.063 0-18.555 10.464-34.174 24.649-38.687z" fill="#666" stroke="#000"/><path d="M39.715 334.652l848.856-90.601M39.715 391.329l845.48 90.801" fill="#f60" stroke="#f60" stroke-width="1.5" stroke-linecap="round"/><path transform="translate(-169.913 222.086) scale(.39989)" d="M894.286 352.666c0 55.228-44.772 100-100 100-55.229 0-100-44.772-100-100 0-55.229 44.771-100 100-100 55.228 0 100 44.771 100 100z" style="marker:none" color="#000" fill="url(#c)" stroke="gray" stroke-width="2.501" stroke-linecap="round" stroke-linejoin="bevel" overflow="visible"/><g ns0:text="Sonne\n" ns0:preamble="/home/waldgeist/data/sphinx/inkscape-preamble.tex" transform="matrix(1.5 0 0 1.5 533.706 26.96)"><defs><symbol overflow="visible" id="d"><path d="M3.484-3.875l-1.28-.297c-.626-.156-1-.687-1-1.266 0-.703.53-1.312 1.312-1.312 1.656 0 1.875 1.64 1.937 2.078.016.063.016.125.125.125.125 0 .125-.047.125-.234v-2c0-.172 0-.25-.11-.25-.062 0-.077.015-.14.14l-.36.563c-.296-.297-.702-.703-1.593-.703-1.11 0-1.938.875-1.938 1.937 0 .828.532 1.563 1.297 1.828.11.032.625.157 1.329.329.265.062.562.14.843.5.203.265.313.593.313.921 0 .704-.5 1.422-1.344 1.422-.281 0-1.047-.047-1.578-.531-.578-.547-.61-1.172-.61-1.531-.015-.11-.093-.11-.125-.11-.125 0-.125.079-.125.25v2c0 .172 0 .235.11.235.062 0 .078-.016.14-.125 0-.016.032-.047.36-.578.312.343.953.703 1.844.703 1.156 0 1.953-.969 1.953-2.078 0-.985-.657-1.813-1.485-2.016zm0 0"/></symbol><symbol overflow="visible" id="e"><path d="M4.688-2.14c0-1.266-.985-2.329-2.188-2.329C1.25-4.469.281-3.375.281-2.14A2.22 2.22 0 0 0 2.484.11c1.204 0 2.204-.984 2.204-2.25zM2.5-.14c-.438 0-.875-.204-1.14-.672-.25-.438-.25-1.047-.25-1.407 0-.39 0-.922.234-1.36a1.347 1.347 0 0 1 1.14-.671c.438 0 .86.219 1.125.656.266.422.266 1 .266 1.375 0 .36 0 .906-.219 1.344-.234.453-.672.734-1.156.734zm0 0"/></symbol><symbol overflow="visible" id="f"><path d="M1.094-3.422V-.75c0 .438-.11.438-.782.438V0c.36-.016.86-.031 1.141-.031.25 0 .766.015 1.11.031v-.313c-.672 0-.782 0-.782-.437v-1.844c0-1.031.719-1.594 1.344-1.594.64 0 .75.532.75 1.11V-.75c0 .438-.11.438-.781.438V0c.344-.016.86-.031 1.125-.031.25 0 .781.015 1.11.031v-.313c-.516 0-.766 0-.766-.296v-1.907c0-.859 0-1.156-.313-1.515-.14-.172-.469-.375-1.047-.375-.734 0-1.203.422-1.484 1.047v-1.047l-1.407.11v.312c.704 0 .782.062.782.562zm0 0"/></symbol><symbol overflow="visible" id="g"><path d="M1.11-2.516C1.171-4 2.015-4.25 2.36-4.25c1.015 0 1.124 1.344 1.124 1.734zm0 .22h2.78c.22 0 .25 0 .25-.22 0-.984-.546-1.953-1.78-1.953C1.202-4.469.28-3.437.28-2.187.281-.86 1.328.108 2.47.108 3.688.11 4.14-1 4.14-1.187c0-.094-.079-.125-.141-.125-.078 0-.11.062-.125.14C3.531-.14 2.625-.14 2.531-.14c-.5 0-.89-.296-1.125-.671-.297-.47-.297-1.125-.297-1.485zm0 0"/></symbol></defs><use height="744.094" width="1052.362" xlink:href="#d" x="223.432" y="134.765"/><use height="744.094" width="1052.362" xlink:href="#e" x="228.967" y="134.765"/><use height="744.094" width="1052.362" xlink:href="#f" x="233.949" y="134.765"/><use height="744.094" width="1052.362" xlink:href="#f" x="239.484" y="134.765"/><use height="744.094" width="1052.362" xlink:href="#g" x="245.019" y="134.765"/></g><g transform="matrix(1.5 0 0 1.5 -202.949 103.672)" ns0:preamble="/home/waldgeist/data/sphinx/inkscape-preamble.tex" ns0:text="Erde"><defs><symbol id="h" overflow="visible"><path d="M1.36-.781c0 .36-.032.469-.798.469H.329V0h5.75L6.5-2.578h-.25C6-1.031 5.766-.313 4.062-.313H2.734c-.468 0-.484-.062-.484-.39v-2.672h.89c.97 0 1.079.328 1.079 1.172h.25v-2.64h-.25c0 .859-.11 1.171-1.078 1.171H2.25v-2.406c0-.328.016-.39.484-.39h1.282c1.53 0 1.796.546 1.953 1.937h.25l-.282-2.25H.329v.312h.234c.766 0 .797.11.797.469zm0 0"/></symbol><symbol id="i" overflow="visible"><path d="M1.672-3.313v-1.093l-1.39.11v.312c.702 0 .78.062.78.562V-.75c0 .438-.109.438-.78.438V0c.39-.016.859-.031 1.14-.031.39 0 .86 0 1.266.031v-.313h-.22c-.734 0-.75-.109-.75-.468v-1.531c0-.985.423-1.876 1.173-1.876.062 0 .093 0 .109.016-.031 0-.234.125-.234.39 0 .266.218.423.437.423a.421.421 0 0 0 .422-.438c0-.312-.313-.61-.734-.61-.735 0-1.094.673-1.22 1.095zm0 0"/></symbol><symbol id="j" overflow="visible"><path d="M3.781-.547V.11L5.25 0v-.313c-.688 0-.781-.062-.781-.562v-6.047l-1.422.11v.312c.687 0 .765.063.765.563v2.156a1.582 1.582 0 0 0-1.25-.625c-1.171 0-2.218.984-2.218 2.265 0 1.266.969 2.25 2.11 2.25.64 0 1.077-.343 1.327-.656zm0-2.672v2.047c0 .172 0 .188-.11.36-.296.484-.733.703-1.171.703-.453 0-.813-.266-1.047-.641-.25-.406-.281-.969-.281-1.39 0-.36.016-.954.297-1.407.218-.312.593-.64 1.14-.64.344 0 .766.156 1.063.593.11.172.11.188.11.375zm0 0"/></symbol><symbol id="k" overflow="visible"><path d="M1.11-2.516C1.171-4 2.015-4.25 2.36-4.25c1.015 0 1.124 1.344 1.124 1.734zm0 .22h2.78c.22 0 .25 0 .25-.22 0-.984-.546-1.953-1.78-1.953C1.202-4.469.28-3.437.28-2.187.281-.86 1.328.108 2.47.108 3.688.11 4.14-1 4.14-1.187c0-.094-.079-.125-.141-.125-.078 0-.11.062-.125.14C3.531-.14 2.625-.14 2.531-.14c-.5 0-.89-.296-1.125-.671-.297-.47-.297-1.125-.297-1.485zm0 0"/></symbol></defs><use y="134.765" x="223.432" xlink:href="#h" width="1052.362" height="744.094"/><use y="134.765" x="230.213" xlink:href="#i" width="1052.362" height="744.094"/><use y="134.765" x="234.115" xlink:href="#j" width="1052.362" height="744.094"/><use y="134.765" x="239.65" xlink:href="#k" width="1052.362" height="744.094"/></g><path d="M233.473 363.114c0 47.364-38.395 85.76-85.759 85.76-47.363 0-85.759-38.396-85.759-85.76 0-47.363 38.396-85.76 85.76-85.76 47.363 0 85.758 38.397 85.758 85.76z" style="marker:none" color="#000" fill="none" stroke="#999" stroke-width=".9999499399999999" stroke-linecap="round" stroke-linejoin="bevel" stroke-dasharray="1.16605554,3.49816663" overflow="visible"/><g ns0:preamble="/home/waldgeist/data/sphinx/inkscape-preamble.tex" ns0:text="Mond" transform="matrix(1.5 0 0 1.5 -292.727 103.672)"><defs><symbol id="l" overflow="visible"><path d="M2.406-6.594c-.094-.218-.125-.218-.36-.218H.376v.312h.234c.766 0 .782.11.782.469v4.984c0 .266 0 .734-1.016.734V0c.344-.016.828-.031 1.156-.031.328 0 .828.015 1.172.031v-.313c-1.031 0-1.031-.468-1.031-.734v-5.375h.016L4.094-.219c.047.125.093.219.187.219.11 0 .14-.078.188-.188L6.922-6.5v5.719c0 .36-.016.469-.781.469h-.235V0c.36-.031 1.047-.031 1.438-.031.375 0 1.047 0 1.422.031v-.313h-.25c-.766 0-.782-.109-.782-.468v-5.25c0-.36.016-.469.782-.469h.25v-.313H7.078c-.266 0-.266.016-.328.188L4.562-1zm0 0"/></symbol><symbol id="m" overflow="visible"><path d="M4.688-2.14c0-1.266-.985-2.329-2.188-2.329C1.25-4.469.281-3.375.281-2.14A2.22 2.22 0 0 0 2.484.11c1.204 0 2.204-.984 2.204-2.25zM2.5-.14c-.438 0-.875-.204-1.14-.672-.25-.438-.25-1.047-.25-1.407 0-.39 0-.922.234-1.36a1.347 1.347 0 0 1 1.14-.671c.438 0 .86.219 1.125.656.266.422.266 1 .266 1.375 0 .36 0 .906-.219 1.344-.234.453-.672.734-1.156.734zm0 0"/></symbol><symbol id="n" overflow="visible"><path d="M1.094-3.422V-.75c0 .438-.11.438-.782.438V0c.36-.016.86-.031 1.141-.031.25 0 .766.015 1.11.031v-.313c-.672 0-.782 0-.782-.437v-1.844c0-1.031.719-1.594 1.344-1.594.64 0 .75.532.75 1.11V-.75c0 .438-.11.438-.781.438V0c.344-.016.86-.031 1.125-.031.25 0 .781.015 1.11.031v-.313c-.516 0-.766 0-.766-.296v-1.907c0-.859 0-1.156-.313-1.515-.14-.172-.469-.375-1.047-.375-.734 0-1.203.422-1.484 1.047v-1.047l-1.407.11v.312c.704 0 .782.062.782.562zm0 0"/></symbol><symbol id="o" overflow="visible"><path d="M3.781-.547V.11L5.25 0v-.313c-.688 0-.781-.062-.781-.562v-6.047l-1.422.11v.312c.687 0 .765.063.765.563v2.156a1.582 1.582 0 0 0-1.25-.625c-1.171 0-2.218.984-2.218 2.265 0 1.266.969 2.25 2.11 2.25.64 0 1.077-.343 1.327-.656zm0-2.672v2.047c0 .172 0 .188-.11.36-.296.484-.733.703-1.171.703-.453 0-.813-.266-1.047-.641-.25-.406-.281-.969-.281-1.39 0-.36.016-.954.297-1.407.218-.312.593-.64 1.14-.64.344 0 .766.156 1.063.593.11.172.11.188.11.375zm0 0"/></symbol></defs><use y="134.765" x="223.432" xlink:href="#l" width="1052.362" height="744.094"/><use y="134.765" x="232.565" xlink:href="#m" width="1052.362" height="744.094"/><use y="134.765" x="237.546" xlink:href="#n" width="1052.362" height="744.094"/><use y="134.765" x="243.081" xlink:href="#o" width="1052.362" height="744.094"/></g><path transform="matrix(.08365 0 0 .08365 -5.068 333.613)" d="M894.286 352.666c0 55.228-44.772 100-100 100-55.229 0-100-44.772-100-100 0-55.229 44.771-100 100-100 55.228 0 100 44.771 100 100z" style="marker:none" color="#000" fill="url(#p)" stroke="#b2b2b2" stroke-width="2" stroke-linecap="round" stroke-linejoin="bevel" overflow="visible"/></svg>