<svg xmlns:ns0="http://www.iki.fi/pav/software/textext/" xmlns="http://www.w3.org/2000/svg" xmlns:xlink="http://www.w3.org/1999/xlink" width="1052.362" height="744.094"><title>Spektrum elektromagnetischer Wellen</title><defs><marker id="i" orient="auto" overflow="visible"><path d="M-4 0l-2 2 7-2-7-2 2 2z" fill-rule="evenodd" stroke="#000" stroke-width=".4pt"/></marker><linearGradient id="d"><stop offset="0" stop-color="purple"/><stop offset="1"/></linearGradient><linearGradient id="a"><stop offset="0" stop-color="#00f"/><stop offset="1" stop-color="purple"/></linearGradient><linearGradient id="b"><stop offset="0" stop-color="#00f"/><stop offset="1" stop-color="green"/></linearGradient><linearGradient id="e"><stop offset="0" stop-color="#0f0"/><stop offset="1" stop-color="green"/></linearGradient><linearGradient id="f"><stop offset="0" stop-color="#ff0"/><stop offset="1" stop-color="#0f0"/></linearGradient><linearGradient id="g"><stop offset="0" stop-color="red"/><stop offset="1" stop-color="#ff0"/></linearGradient><linearGradient id="c"><stop offset="0"/><stop offset="1" stop-color="red"/></linearGradient><linearGradient y2="625.097" x2="-406.685" y1="625.097" x1="-316.26" gradientTransform="matrix(1.14417 0 0 1.0018 663.87 388.452)" gradientUnits="userSpaceOnUse" id="j" xlink:href="#a"/><linearGradient y2="567.744" x2="-333.278" y1="567.744" x1="-406.418" gradientTransform="matrix(.82967 0 0 1.0018 629.068 446.045)" gradientUnits="userSpaceOnUse" id="k" xlink:href="#b"/><linearGradient y2="717.745" x2="273.071" y1="717.745" x1="189.191" gradientTransform="matrix(.96161 0 0 1.0036 -1062.213 312.877)" gradientUnits="userSpaceOnUse" id="l" xlink:href="#c"/><linearGradient y2="704.236" x2="-307.703" y1="699.446" x1="-419.987" gradientTransform="translate(220.734 328.964)" gradientUnits="userSpaceOnUse" id="m" xlink:href="#d"/><linearGradient y2="456.716" x2="-433.262" y1="456.716" x1="-328.963" gradientTransform="matrix(.67252 0 0 1.0018 646.702 575.63)" gradientUnits="userSpaceOnUse" id="n" xlink:href="#e"/><linearGradient y2="392.839" x2="-427.971" y1="392.839" x1="-367.289" gradientTransform="matrix(1.57688 0 0 1.00358 1100.997 638.953)" gradientUnits="userSpaceOnUse" id="o" xlink:href="#f"/><linearGradient y2="320.978" x2="-429.568" y1="320.978" x1="-368.886" gradientTransform="matrix(1.65452 0 0 1.0036 1317.398 711.069)" gradientUnits="userSpaceOnUse" id="p" xlink:href="#g"/><linearGradient id="h"><stop offset="0" stop-color="#00121f"/><stop offset=".006" stop-color="#00121f"/><stop offset=".012" stop-color="#00121f"/><stop offset=".018" stop-color="#00121f"/><stop offset=".024" stop-color="#00121f"/><stop offset=".03" stop-color="#001930"/><stop offset=".036" stop-color="#001930"/><stop offset=".042" stop-color="#240036"/><stop offset=".048" stop-color="#24003e"/><stop offset=".054" stop-color="#1f0043"/><stop offset=".06" stop-color="#190048"/><stop offset=".066" stop-color="#330052"/><stop offset=".072" stop-color="#2c0059"/><stop offset=".078" stop-color="#240061"/><stop offset=".084" stop-color="#1f006a"/><stop offset=".09" stop-color="#2c0078"/><stop offset=".096" stop-color="#360087"/><stop offset=".102" stop-color="#390096"/><stop offset=".108" stop-color="#4c00a8"/><stop offset=".114" stop-color="#5500bc"/><stop offset=".12" stop-color="#5200cd"/><stop offset=".127" stop-color="#6100e2"/><stop offset=".133" stop-color="#6b00f8"/><stop offset=".139" stop-color="#6e00ff"/><stop offset=".145" stop-color="#7000ff"/><stop offset=".151" stop-color="#6e00ff"/><stop offset=".157" stop-color="#6c00ff"/><stop offset=".163" stop-color="#6e00ff"/><stop offset=".169" stop-color="#7000ff"/><stop offset=".175" stop-color="#6f00ff"/><stop offset=".181" stop-color="#6c00ff"/><stop offset=".187" stop-color="#6a00ff"/><stop offset=".193" stop-color="#6700ff"/><stop offset=".199" stop-color="#6700ff"/><stop offset=".205" stop-color="#6100ff"/><stop offset=".211" stop-color="#5c00ff"/><stop offset=".217" stop-color="#5700ff"/><stop offset=".223" stop-color="#5900ff"/><stop offset=".229" stop-color="#5400ff"/><stop offset=".235" stop-color="#4e00ff"/><stop offset=".241" stop-color="#4300ff"/><stop offset=".247" stop-color="#30f"/><stop offset=".253" stop-color="#1f00ff"/><stop offset=".259" stop-color="#0019ff"/><stop offset=".265" stop-color="#003cff"/><stop offset=".271" stop-color="#0050ff"/><stop offset=".277" stop-color="#0061ff"/><stop offset=".283" stop-color="#0070ff"/><stop offset=".289" stop-color="#007fff"/><stop offset=".295" stop-color="#008dff"/><stop offset=".301" stop-color="#009dff"/><stop offset=".307" stop-color="#00a3fa"/><stop offset=".313" stop-color="#00b1f5"/><stop offset=".319" stop-color="#00b6ed"/><stop offset=".325" stop-color="#00bbe6"/><stop offset=".331" stop-color="#00c4e1"/><stop offset=".337" stop-color="#00cddd"/><stop offset=".343" stop-color="#00d6da"/><stop offset=".349" stop-color="#00dfd8"/><stop offset=".355" stop-color="#00e3d5"/><stop offset=".361" stop-color="#00ebd4"/><stop offset=".367" stop-color="#00f6d5"/><stop offset=".373" stop-color="#00fdd4"/><stop offset=".38" stop-color="#00ffcf"/><stop offset=".386" stop-color="#00ffca"/><stop offset=".392" stop-color="#00ffc4"/><stop offset=".398" stop-color="#00ffbf"/><stop offset=".404" stop-color="#00ffba"/><stop offset=".41" stop-color="#00ffb5"/><stop offset=".416" stop-color="#00ffb2"/><stop offset=".422" stop-color="#00ffad"/><stop offset=".428" stop-color="#0fa"/><stop offset=".434" stop-color="#00ffa6"/><stop offset=".44" stop-color="#00ffa4"/><stop offset=".446" stop-color="#00ffa0"/><stop offset=".452" stop-color="#00ff9c"/><stop offset=".458" stop-color="#00ff97"/><stop offset=".464" stop-color="#00ff94"/><stop offset=".47" stop-color="#00ff8e"/><stop offset=".476" stop-color="#00ff8b"/><stop offset=".482" stop-color="#00ff82"/><stop offset=".488" stop-color="#00ff7e"/><stop offset=".494" stop-color="#00ff76"/><stop offset=".5" stop-color="#00ff6a"/><stop offset=".506" stop-color="#00ff5c"/><stop offset=".512" stop-color="#00ff46"/><stop offset=".518" stop-color="#00ff24"/><stop offset=".524" stop-color="#39ff00"/><stop offset=".53" stop-color="#59ff00"/><stop offset=".536" stop-color="#73ff00"/><stop offset=".542" stop-color="#8aff00"/><stop offset=".548" stop-color="#9dff00"/><stop offset=".554" stop-color="#abff00"/><stop offset=".56" stop-color="#bbfa00"/><stop offset=".566" stop-color="#c7f600"/><stop offset=".572" stop-color="#d5f100"/><stop offset=".578" stop-color="#dfec00"/><stop offset=".584" stop-color="#eae600"/><stop offset=".59" stop-color="#f3e100"/><stop offset=".596" stop-color="#fdda00"/><stop offset=".602" stop-color="#ffce00"/><stop offset=".608" stop-color="#ffc000"/><stop offset=".614" stop-color="#ffb300"/><stop offset=".62" stop-color="#ffa800"/><stop offset=".627" stop-color="#ff9c00"/><stop offset=".633" stop-color="#ff9100"/><stop offset=".639" stop-color="#ff8700"/><stop offset=".645" stop-color="#ff7c00"/><stop offset=".651" stop-color="#ff7000"/><stop offset=".657" stop-color="#ff6a00"/><stop offset=".663" stop-color="#ff5e00"/><stop offset=".669" stop-color="#f50"/><stop offset=".675" stop-color="#ff4800"/><stop offset=".681" stop-color="#ff4100"/><stop offset=".687" stop-color="#f30"/><stop offset=".693" stop-color="#ff2c00"/><stop offset=".699" stop-color="#ff1200"/><stop offset=".705" stop-color="#ff0012"/><stop offset=".711" stop-color="#ff0028"/><stop offset=".717" stop-color="#ff002c"/><stop offset=".723" stop-color="#ff0036"/><stop offset=".729" stop-color="#ff003c"/><stop offset=".735" stop-color="#ff0041"/><stop offset=".741" stop-color="#ff0041"/><stop offset=".747" stop-color="#ff0043"/><stop offset=".753" stop-color="#ff0043"/><stop offset=".759" stop-color="#ff004c"/><stop offset=".765" stop-color="#ff0048"/><stop offset=".771" stop-color="#ff004a"/><stop offset=".777" stop-color="#f7004a"/><stop offset=".783" stop-color="#f3004e"/><stop offset=".789" stop-color="#e80046"/><stop offset=".795" stop-color="#e00046"/><stop offset=".801" stop-color="#d70043"/><stop offset=".807" stop-color="#cf003e"/><stop offset=".813" stop-color="#c90043"/><stop offset=".819" stop-color="#bf003e"/><stop offset=".825" stop-color="#b50039"/><stop offset=".831" stop-color="#af0039"/><stop offset=".837" stop-color="#a9003c"/><stop offset=".843" stop-color="#9d0036"/><stop offset=".849" stop-color="#970030"/><stop offset=".855" stop-color="#8f0030"/><stop offset=".861" stop-color="#880030"/><stop offset=".867" stop-color="#800028"/><stop offset=".873" stop-color="#760028"/><stop offset=".88" stop-color="#6e001f"/><stop offset=".886" stop-color="#640019"/><stop offset=".892" stop-color="#620024"/><stop offset=".898" stop-color="#620024"/><stop offset=".904" stop-color="#570019"/><stop offset=".91" stop-color="#4a0000"/><stop offset=".916" stop-color="#550024"/><stop offset=".922" stop-color="#460019"/><stop offset=".928" stop-color="#460019"/><stop offset=".934" stop-color="#300"/><stop offset=".94" stop-color="#300"/><stop offset=".946" stop-color="#300"/><stop offset=".952" stop-color="#300"/><stop offset=".958" stop-color="#300019"/><stop offset=".964" stop-color="#300019"/><stop offset=".97" stop-color="#300019"/><stop offset=".976" stop-color="#300019"/><stop offset=".982" stop-color="#300019"/><stop offset=".988" stop-color="#300019"/><stop offset=".994" stop-color="#300019"/><stop offset="1" stop-color="#300019"/></linearGradient><linearGradient gradientTransform="matrix(1.55556 0 0 .61947 -84.444 -151.02)" gradientUnits="userSpaceOnUse" y2="405.219" x2="697.143" y1="405.219" x1="54.286" id="bf" xlink:href="#h"/></defs><path fill="#fff" stroke="#fff" stroke-width="1.89" stroke-linecap="round" stroke-linejoin="round" d="M20.962 115.223h1010.439v513.648H20.962z"/><path fill="#fff" stroke="#666" stroke-width="1.89" stroke-linecap="round" stroke-linejoin="round" d="M383.087 394.087h123.331v130.14H383.087zm123.331 0h119.211v130.14H506.418zm119.211 0H744.84v130.14H625.629z"/><path d="M51.983 832.495h947.158" style="isolation:auto;mix-blend-mode:normal" color="#000" overflow="visible" fill="none" stroke="#000" stroke-width="1.89" stroke-linecap="round" stroke-linejoin="round" marker-end="url(#i)" transform="translate(0 -308.268)"/><g stroke-width="2.661"><path fill="url(#j)" d="M170.543 1014.77h138.862v36.795H170.543z" transform="matrix(.03836 0 0 3.68071 347.94 -3346.52)"/><path fill="url(#k)" d="M272.667 1014.77H373.36v36.795H272.667z" transform="matrix(.03836 0 0 3.68071 347.94 -3346.52)"/><path transform="matrix(-.03836 0 0 3.68071 347.94 -3346.52)" fill="url(#l)" d="M-916.331 1014.77h116.706v36.861h-116.706z"/><path transform="matrix(-.03836 0 0 3.68071 347.94 -3346.52)" fill="url(#m)" d="M-208.835 1014.836H-87.47v36.729h-121.365z"/><path fill="url(#n)" d="M355.661 1014.77h81.62v36.795h-81.62z" transform="matrix(.03836 0 0 3.68071 347.94 -3346.52)"/><path fill="url(#o)" d="M426.14 1014.77h191.377v36.861H426.14z" transform="matrix(.03836 0 0 3.68071 347.94 -3346.52)"/><path fill="url(#p)" d="M606.67 1014.77h200.801v36.861H606.67z" transform="matrix(.03836 0 0 3.68071 347.94 -3346.52)"/></g><g ns0:text="Wellenl\xc3\xa4nge in $\\unit{m}$" ns0:preamble="/home/waldgeist/data/homepage/inkscape-preamble.tex" transform="matrix(2.42916 0 0 2.43 532.685 391.51)" stroke-width="1.235"><defs><symbol overflow="visible" id="q"><path d="M9.063-5.828c.171-.578.609-.672 1-.672v-.313c-.297.032-.61.032-.907.032-.297 0-.937-.016-1.187-.032v.313c.672.016.86.344.86.531 0 .063-.032.14-.048.203l-1.5 4.594-1.593-4.875c0-.047-.032-.11-.032-.156 0-.297.578-.297.844-.297v-.313c-.36.032-1.031.032-1.422.032-.375 0-.797-.016-1.203-.032v.313c.563 0 .766 0 .89.36l.22.702-1.391 4.266L2-6.078c-.016-.016-.031-.094-.031-.125 0-.297.578-.297.843-.297v-.313c-.359.032-1.03.032-1.421.032-.375 0-.797-.016-1.22-.032v.313c.75 0 .798.047.923.422L3.078.032c.031.093.063.187.188.187.14 0 .156-.063.203-.203l1.64-5.063L6.766.031c.03.094.062.188.187.188.14 0 .172-.063.203-.203zm0 0"/></symbol><symbol overflow="visible" id="r"><path d="M1.11-2.516C1.171-4 2.015-4.25 2.36-4.25c1.015 0 1.124 1.344 1.124 1.734zm0 .22h2.78c.22 0 .25 0 .25-.22 0-.984-.546-1.953-1.78-1.953-1.158 0-2.08 1.032-2.08 2.282C.281-.86 1.328.108 2.47.108 3.688.11 4.14-1 4.14-1.187c0-.094-.079-.125-.141-.125-.078 0-.11.062-.125.14C3.531-.14 2.625-.14 2.531-.14c-.5 0-.89-.296-1.125-.671-.297-.47-.297-1.125-.297-1.485zm0 0"/></symbol><symbol overflow="visible" id="s"><path d="M1.766-6.922l-1.438.11v.312c.703 0 .781.063.781.563V-.75c0 .438-.109.438-.78.438V0c.327-.016.859-.031 1.109-.031s.734.015 1.109.031v-.313c-.672 0-.781 0-.781-.437zm0 0"/></symbol><symbol overflow="visible" id="t"><path d="M1.094-3.422V-.75c0 .438-.11.438-.782.438V0c.36-.016.86-.031 1.141-.031.25 0 .766.015 1.11.031v-.313c-.672 0-.782 0-.782-.437v-1.844c0-1.031.719-1.594 1.344-1.594.64 0 .75.532.75 1.11V-.75c0 .438-.11.438-.781.438V0c.344-.016.86-.031 1.125-.031.25 0 .781.015 1.11.031v-.313c-.516 0-.766 0-.766-.296v-1.907c0-.859 0-1.156-.313-1.515-.14-.172-.469-.375-1.047-.375-.734 0-1.203.422-1.484 1.047v-1.047l-1.407.11v.312c.704 0 .782.062.782.562zm0 0"/></symbol><symbol overflow="visible" id="u"><path d="M2.031-6.172c0-.234-.203-.5-.5-.5-.281 0-.5.219-.5.5s.219.5.5.5c.297 0 .5-.266.5-.5zm1.922 0c0-.281-.219-.5-.5-.5-.297 0-.5.266-.5.5 0 .234.203.5.5.5.281 0 .5-.219.5-.5zm0 0"/></symbol><symbol overflow="visible" id="v"><path d="M3.313-.75c.046.39.312.813.78.813.22 0 .829-.141.829-.954v-.562h-.25v.562c0 .579-.25.641-.36.641-.328 0-.375-.453-.375-.5v-1.984c0-.422 0-.813-.359-1.188a1.9 1.9 0 0 0-1.36-.547C1.391-4.469.703-4 .703-3.344c0 .297.203.469.469.469a.435.435 0 0 0 .453-.453c0-.125-.047-.453-.516-.453.282-.36.766-.469 1.079-.469.5 0 1.062.39 1.062 1.281v.36c-.516.03-1.203.062-1.828.359-.75.344-1 .86-1 1.297 0 .812.969 1.062 1.594 1.062A1.38 1.38 0 0 0 3.312-.75zM3.25-2.39v1c0 .937-.719 1.28-1.172 1.28-.484 0-.89-.343-.89-.843 0-.547.421-1.375 2.062-1.438zm0 0"/></symbol><symbol overflow="visible" id="w"><path d="M2.219-1.719c-.875 0-.875-1-.875-1.218 0-.266.015-.594.156-.844.078-.11.313-.39.719-.39.86 0 .86.984.86 1.218 0 .265 0 .594-.157.844-.078.109-.313.39-.703.39zm-1.156.39a.8.8 0 0 1 .156-.468c.39.281.812.313 1 .313.922 0 1.61-.688 1.61-1.454 0-.374-.157-.734-.407-.968.36-.344.719-.39.89-.39.032 0 .079 0 .11.015-.11.031-.172.14-.172.265 0 .172.14.282.297.282a.28.28 0 0 0 .281-.297c0-.172-.11-.485-.5-.485-.203 0-.64.063-1.062.47a1.652 1.652 0 0 0-1.047-.36c-.938 0-1.625.687-1.625 1.453 0 .437.219.812.469 1.031-.125.14-.313.469-.313.828 0 .313.14.688.453.89-.61.157-.922.595-.922.985 0 .719.985 1.266 2.203 1.266 1.172 0 2.204-.5 2.204-1.281 0-.344-.125-.86-.641-1.141-.531-.266-1.11-.266-1.719-.266-.25 0-.672 0-.75-.015-.312-.047-.516-.344-.516-.672zM2.5 1.829C1.484 1.828.797 1.312.797.781c0-.453.375-.828.812-.844h.594c.86 0 1.969 0 1.969.844 0 .547-.703 1.047-1.672 1.047zm0 0"/></symbol><symbol overflow="visible" id="x"><path d="M1.766-4.406l-1.391.11v.312c.64 0 .734.062.734.546V-.75c0 .438-.109.438-.78.438V0c.312-.016.859-.031 1.093-.031.36 0 .703.015 1.047.031v-.313c-.672 0-.703-.046-.703-.437zm.03-1.735a.514.514 0 0 0-.515-.53.537.537 0 0 0-.531.53c0 .266.219.532.531.532a.514.514 0 0 0 .516-.532zm0 0"/></symbol><symbol overflow="visible" id="y"><path d="M1.094-3.422V-.75c0 .438-.11.438-.782.438V0c.36-.016.86-.031 1.141-.031.25 0 .766.015 1.11.031v-.313c-.672 0-.782 0-.782-.437v-1.844c0-1.031.719-1.594 1.344-1.594.64 0 .75.532.75 1.11V-.75c0 .438-.11.438-.781.438V0c.344-.016.86-.031 1.125-.031.25 0 .781.015 1.11.031v-.313c-.657 0-.766 0-.766-.437v-1.844c0-1.031.703-1.594 1.343-1.594.625 0 .735.532.735 1.11V-.75c0 .438-.11.438-.782.438V0c.344-.016.86-.031 1.125-.031.266 0 .782.015 1.125.031v-.313c-.515 0-.765 0-.78-.296v-1.907c0-.859 0-1.156-.313-1.515-.141-.172-.47-.375-1.047-.375-.828 0-1.282.593-1.438.984-.14-.875-.875-.984-1.328-.984-.734 0-1.203.422-1.484 1.047v-1.047l-1.407.11v.312c.704 0 .782.062.782.562zm0 0"/></symbol></defs><use height="100%" width="100%" xlink:href="#q" x="118.801" y="83.403"/><use height="100%" width="100%" xlink:href="#r" x="128.214" y="83.403"/><use height="100%" width="100%" xlink:href="#s" x="132.641" y="83.403"/><use height="100%" width="100%" xlink:href="#s" x="135.409" y="83.403"/><use height="100%" width="100%" xlink:href="#r" x="138.176" y="83.403"/><use height="100%" width="100%" xlink:href="#t" x="142.604" y="83.403"/><use height="100%" width="100%" xlink:href="#s" x="148.139" y="83.403"/><use height="100%" width="100%" xlink:href="#u" x="150.903" y="83.837"/><use height="100%" width="100%" xlink:href="#v" x="150.903" y="83.403"/><use height="100%" width="100%" xlink:href="#t" x="155.884" y="83.403"/><use height="100%" width="100%" xlink:href="#w" x="161.42" y="83.403"/><use height="100%" width="100%" xlink:href="#r" x="166.401" y="83.403"/><g><use height="100%" width="100%" xlink:href="#x" x="174.146" y="83.403"/><use height="100%" width="100%" xlink:href="#t" x="176.913" y="83.403"/></g><g><use height="100%" width="100%" xlink:href="#y" x="185.776" y="83.403"/></g></g><path d="M943.524 540.046V506.06" style="isolation:auto;mix-blend-mode:normal" color="#000" overflow="visible" fill="none" stroke="#000" stroke-width="1.89" stroke-linecap="round" stroke-linejoin="round"/><path fill="#fff" stroke="#666" stroke-width="1.89" stroke-linecap="round" stroke-linejoin="round" d="M744.839 394.087h198.684v130.14H744.839z"/><path style="isolation:auto;mix-blend-mode:normal" d="M784.576 540.046V506.06m-158.947 33.986V506.06" color="#000" overflow="visible" fill="none" stroke="#000" stroke-width="1.89" stroke-linecap="round" stroke-linejoin="round"/><path fill="#fff" stroke="#666" stroke-width="1.89" stroke-linecap="round" stroke-linejoin="round" d="M267.997 393.82h83.023v130.138h-83.023z"/><path style="isolation:auto;mix-blend-mode:normal" d="M307.734 540.046V506.06" color="#000" overflow="visible" fill="none" stroke="#000" stroke-width="1.89" stroke-linecap="round" stroke-linejoin="round"/><path fill="#fff" stroke="#666" stroke-width="1.89" stroke-linecap="round" stroke-linejoin="round" d="M188.523 393.82h79.474v130.138h-79.474z"/><path d="M228.26 540.046V506.06" style="isolation:auto;mix-blend-mode:normal" color="#000" overflow="visible" fill="none" stroke="#000" stroke-width="1.89" stroke-linecap="round" stroke-linejoin="round"/><path fill="#fff" stroke="#666" stroke-width="1.89" stroke-linecap="round" stroke-linejoin="round" d="M69.313 393.82h119.211v130.138H69.313z"/><path style="isolation:auto;mix-blend-mode:normal" d="M148.787 540.046V506.06m-79.474 33.986V506.06" color="#000" overflow="visible" fill="none" stroke="#000" stroke-width="1.89" stroke-linecap="round" stroke-linejoin="round"/><g ns0:text="$10^{0}$" ns0:preamble="/home/waldgeist/data/homepage/inkscape-preamble.tex" transform="matrix(3 0 0 3 251.671 223.958)"><use height="100%" width="100%" xlink:href="#textext-7d1b65a8-1" x="118.801" y="83.403"/><use height="100%" width="100%" xlink:href="#textext-7d1b65a8-2" x="123.782" y="83.403"/><use height="100%" width="100%" xlink:href="#textext-7d1b65a8-4" x="128.764" y="79.788"/></g><path d="M466.681 540.046V506.06m397.369 33.986V506.06m-158.947 33.986V506.06m-158.948 33.986V506.06m-158.947 33.986V506.06" style="isolation:auto;mix-blend-mode:normal" color="#000" overflow="visible" fill="none" stroke="#000" stroke-width="1.89" stroke-linecap="round" stroke-linejoin="round"/><g ns0:text="\\newcommand{\\minus}{\\scalebox{0.5}[1.0]{$-$}}\n$10^{\\minus 12}$" ns0:preamble="/home/waldgeist/data/homepage/inkscape-preamble.tex" transform="matrix(2.16184 0 0 2.16259 -127.048 384.637)" stroke-width="1.387"><defs><symbol overflow="visible" id="z"><path d="M2.938-6.375c0-.25 0-.266-.235-.266C2.078-6 1.203-6 .891-6v.313c.203 0 .78 0 1.296-.266v5.172c0 .36-.03.469-.921.469H.953V0c.344-.031 1.203-.031 1.61-.031.39 0 1.265 0 1.609.031v-.313h-.313c-.906 0-.921-.109-.921-.468zm0 0"/></symbol><symbol overflow="visible" id="A"><path d="M4.578-3.188c0-.796-.047-1.593-.39-2.328C3.733-6.484 2.905-6.64 2.5-6.64c-.61 0-1.328.266-1.75 1.188-.313.687-.36 1.469-.36 2.266 0 .75.032 1.64.454 2.406a1.83 1.83 0 0 0 1.64 1c.532 0 1.297-.203 1.735-1.157.312-.687.36-1.468.36-2.25zM2.484 0c-.39 0-.984-.25-1.156-1.203-.11-.594-.11-1.516-.11-2.11 0-.64 0-1.296.079-1.828.187-1.187.937-1.28 1.187-1.28.329 0 .985.187 1.172 1.171.11.563.11 1.313.11 1.938 0 .75 0 1.421-.11 2.062C3.5-.297 2.937 0 2.484 0zm0 0"/></symbol><symbol overflow="visible" id="B"><path d="M3.281-2.297c.094 0 .172 0 .172-.203 0-.188-.078-.188-.172-.188H.594c-.094 0-.188 0-.188.188 0 .203.094.203.188.203zm0 0"/></symbol><symbol overflow="visible" id="C"><path d="M2.328-4.438c0-.187 0-.187-.203-.187-.453.438-1.078.438-1.36.438v.25c.157 0 .626 0 1-.188v3.547c0 .234 0 .328-.687.328H.812V0c.125 0 .985-.031 1.235-.031.219 0 1.094.031 1.25.031v-.25H3.03c-.703 0-.703-.094-.703-.328zm0 0"/></symbol><symbol overflow="visible" id="D"><path d="M3.516-1.266H3.28c-.015.157-.094.563-.187.625-.047.047-.578.047-.688.047h-1.28c.734-.64.984-.844 1.39-1.172.516-.406 1-.843 1-1.5 0-.843-.734-1.359-1.624-1.359-.86 0-1.454.61-1.454 1.25 0 .344.297.39.376.39a.365.365 0 0 0 .359-.374c0-.125-.047-.375-.406-.375.218-.485.687-.641 1.015-.641.703 0 1.063.547 1.063 1.11 0 .609-.438 1.078-.656 1.328L.516-.266C.437-.203.437-.187.437 0h2.876zm0 0"/></symbol></defs><use height="100%" width="100%" xlink:href="#z" x="122.122" y="83.403"/><use height="100%" width="100%" xlink:href="#A" x="127.103" y="83.403"/><use height="100%" width="100%" xlink:href="#B" x="132.085" y="79.788"/><use height="100%" width="100%" xlink:href="#C" x="135.959" y="79.788"/><use height="100%" width="100%" xlink:href="#D" x="139.931" y="79.788"/></g><g transform="matrix(2.16184 0 0 2.16259 33.216 384.637)" ns0:preamble="/home/waldgeist/data/homepage/inkscape-preamble.tex" ns0:text="\\newcommand{\\minus}{\\scalebox{0.5}[1.0]{$-$}}\n$10^{\\minus 8}$" stroke-width="1.387"><defs><symbol id="E" overflow="visible"><path d="M2.938-6.375c0-.25 0-.266-.235-.266C2.078-6 1.203-6 .891-6v.313c.203 0 .78 0 1.296-.266v5.172c0 .36-.03.469-.921.469H.953V0c.344-.031 1.203-.031 1.61-.031.39 0 1.265 0 1.609.031v-.313h-.313c-.906 0-.921-.109-.921-.468zm0 0"/></symbol><symbol id="F" overflow="visible"><path d="M4.578-3.188c0-.796-.047-1.593-.39-2.328C3.733-6.484 2.905-6.64 2.5-6.64c-.61 0-1.328.266-1.75 1.188-.313.687-.36 1.469-.36 2.266 0 .75.032 1.64.454 2.406a1.83 1.83 0 0 0 1.64 1c.532 0 1.297-.203 1.735-1.157.312-.687.36-1.468.36-2.25zM2.484 0c-.39 0-.984-.25-1.156-1.203-.11-.594-.11-1.516-.11-2.11 0-.64 0-1.296.079-1.828.187-1.187.937-1.28 1.187-1.28.329 0 .985.187 1.172 1.171.11.563.11 1.313.11 1.938 0 .75 0 1.421-.11 2.062C3.5-.297 2.937 0 2.484 0zm0 0"/></symbol><symbol id="G" overflow="visible"><path d="M3.281-2.297c.094 0 .172 0 .172-.203 0-.188-.078-.188-.172-.188H.594c-.094 0-.188 0-.188.188 0 .203.094.203.188.203zm0 0"/></symbol><symbol id="H" overflow="visible"><path d="M2.469-2.516c.547-.265.89-.593.89-1.078 0-.672-.703-1.031-1.375-1.031-.765 0-1.39.5-1.39 1.156 0 .328.156.563.281.703.125.157.172.188.578.422-.39.172-1.078.547-1.078 1.281 0 .766.797 1.204 1.594 1.204.89 0 1.61-.563 1.61-1.313 0-.469-.267-.86-.673-1.094-.094-.062-.328-.187-.437-.25zm-1.125-.656c-.188-.11-.375-.297-.375-.562 0-.438.5-.688 1-.688.547 0 1.031.344 1.031.828 0 .625-.734.938-.734.938-.016 0-.032 0-.079-.031zm.328.969l.969.547c.171.11.515.312.515.718 0 .532-.578.86-1.172.86-.64 0-1.187-.422-1.187-.985 0-.515.375-.921.875-1.14zm0 0"/></symbol></defs><use height="100%" width="100%" y="83.403" x="122.122" xlink:href="#E"/><use height="100%" width="100%" y="83.403" x="127.103" xlink:href="#F"/><use height="100%" width="100%" y="79.788" x="132.085" xlink:href="#G"/><use height="100%" width="100%" y="79.788" x="135.959" xlink:href="#H"/></g><g ns0:text="\\newcommand{\\minus}{\\scalebox{0.5}[1.0]{$-$}}\n$10^{\\minus 4}$" ns0:preamble="/home/waldgeist/data/homepage/inkscape-preamble.tex" transform="matrix(2.16184 0 0 2.16259 191.046 384.722)" stroke-width="1.387"><defs><symbol overflow="visible" id="I"><path d="M2.938-6.375c0-.25 0-.266-.235-.266C2.078-6 1.203-6 .891-6v.313c.203 0 .78 0 1.296-.266v5.172c0 .36-.03.469-.921.469H.953V0c.344-.031 1.203-.031 1.61-.031.39 0 1.265 0 1.609.031v-.313h-.313c-.906 0-.921-.109-.921-.468zm0 0"/></symbol><symbol overflow="visible" id="J"><path d="M4.578-3.188c0-.796-.047-1.593-.39-2.328C3.733-6.484 2.905-6.64 2.5-6.64c-.61 0-1.328.266-1.75 1.188-.313.687-.36 1.469-.36 2.266 0 .75.032 1.64.454 2.406a1.83 1.83 0 0 0 1.64 1c.532 0 1.297-.203 1.735-1.157.312-.687.36-1.468.36-2.25zM2.484 0c-.39 0-.984-.25-1.156-1.203-.11-.594-.11-1.516-.11-2.11 0-.64 0-1.296.079-1.828.187-1.187.937-1.28 1.187-1.28.329 0 .985.187 1.172 1.171.11.563.11 1.313.11 1.938 0 .75 0 1.421-.11 2.062C3.5-.297 2.937 0 2.484 0zm0 0"/></symbol><symbol overflow="visible" id="K"><path d="M3.281-2.297c.094 0 .172 0 .172-.203 0-.188-.078-.188-.172-.188H.594c-.094 0-.188 0-.188.188 0 .203.094.203.188.203zm0 0"/></symbol><symbol overflow="visible" id="L"><path d="M3.688-1.14v-.25h-.782V-4.5c0-.14 0-.203-.14-.203-.094 0-.125 0-.188.11L.266-1.392v.25h2.062v.563c0 .25 0 .328-.578.328h-.188V0c.36-.016.797-.031 1.047-.031.266 0 .704.015 1.063.031v-.25h-.188c-.578 0-.578-.078-.578-.328v-.563zM2.375-3.939v2.547H.531zm0 0"/></symbol></defs><use xlink:href="#I" x="122.122" y="83.403" width="100%" height="100%"/><use xlink:href="#J" x="127.103" y="83.403" width="100%" height="100%"/><use xlink:href="#K" x="132.085" y="79.788" width="100%" height="100%"/><use xlink:href="#L" x="135.959" y="79.788" width="100%" height="100%"/></g><g transform="matrix(2.16184 0 0 2.16259 351.105 384.637)" ns0:preamble="/home/waldgeist/data/homepage/inkscape-preamble.tex" ns0:text="\\newcommand{\\minus}{\\scalebox{0.5}[1.0]{$-$}}\n$10^{ 0}$" stroke-width="1.387"><defs><symbol id="M" overflow="visible"><path d="M2.938-6.375c0-.25 0-.266-.235-.266C2.078-6 1.203-6 .891-6v.313c.203 0 .78 0 1.296-.266v5.172c0 .36-.03.469-.921.469H.953V0c.344-.031 1.203-.031 1.61-.031.39 0 1.265 0 1.609.031v-.313h-.313c-.906 0-.921-.109-.921-.468zm0 0"/></symbol><symbol id="N" overflow="visible"><path d="M4.578-3.188c0-.796-.047-1.593-.39-2.328C3.733-6.484 2.905-6.64 2.5-6.64c-.61 0-1.328.266-1.75 1.188-.313.687-.36 1.469-.36 2.266 0 .75.032 1.64.454 2.406a1.83 1.83 0 0 0 1.64 1c.532 0 1.297-.203 1.735-1.157.312-.687.36-1.468.36-2.25zM2.484 0c-.39 0-.984-.25-1.156-1.203-.11-.594-.11-1.516-.11-2.11 0-.64 0-1.296.079-1.828.187-1.187.937-1.28 1.187-1.28.329 0 .985.187 1.172 1.171.11.563.11 1.313.11 1.938 0 .75 0 1.421-.11 2.062C3.5-.297 2.937 0 2.484 0zm0 0"/></symbol><symbol id="O" overflow="visible"><path d="M3.594-2.219c0-.765-.094-1.328-.406-1.812-.22-.313-.657-.594-1.204-.594C.36-4.625.36-2.719.36-2.219c0 .5 0 2.36 1.625 2.36 1.61 0 1.61-1.86 1.61-2.36zM1.984-.063c-.328 0-.75-.187-.89-.75C1-1.219 1-1.796 1-2.313c0-.515 0-1.046.094-1.421.156-.547.593-.704.89-.704.375 0 .735.235.86.641.11.375.125.875.125 1.485 0 .515 0 1.03-.094 1.468-.14.64-.61.781-.89.781zm0 0"/></symbol></defs><use y="83.403" x="122.122" xlink:href="#M" width="100%" height="100%"/><use y="83.403" x="127.103" xlink:href="#N" width="100%" height="100%"/><use y="79.788" x="132.085" xlink:href="#O" width="100%" height="100%"/></g><g ns0:text="\\newcommand{\\minus}{\\scalebox{0.5}[1.0]{$-$}}\n$10^{ 4}$" ns0:preamble="/home/waldgeist/data/homepage/inkscape-preamble.tex" transform="matrix(2.16184 0 0 2.16259 510.255 384.722)" stroke-width="1.387"><defs><symbol overflow="visible" id="P"><path d="M2.938-6.375c0-.25 0-.266-.235-.266C2.078-6 1.203-6 .891-6v.313c.203 0 .78 0 1.296-.266v5.172c0 .36-.03.469-.921.469H.953V0c.344-.031 1.203-.031 1.61-.031.39 0 1.265 0 1.609.031v-.313h-.313c-.906 0-.921-.109-.921-.468zm0 0"/></symbol><symbol overflow="visible" id="Q"><path d="M4.578-3.188c0-.796-.047-1.593-.39-2.328C3.733-6.484 2.905-6.64 2.5-6.64c-.61 0-1.328.266-1.75 1.188-.313.687-.36 1.469-.36 2.266 0 .75.032 1.64.454 2.406a1.83 1.83 0 0 0 1.64 1c.532 0 1.297-.203 1.735-1.157.312-.687.36-1.468.36-2.25zM2.484 0c-.39 0-.984-.25-1.156-1.203-.11-.594-.11-1.516-.11-2.11 0-.64 0-1.296.079-1.828.187-1.187.937-1.28 1.187-1.28.329 0 .985.187 1.172 1.171.11.563.11 1.313.11 1.938 0 .75 0 1.421-.11 2.062C3.5-.297 2.937 0 2.484 0zm0 0"/></symbol><symbol overflow="visible" id="R"><path d="M3.688-1.14v-.25h-.782V-4.5c0-.14 0-.203-.14-.203-.094 0-.125 0-.188.11L.266-1.392v.25h2.062v.563c0 .25 0 .328-.578.328h-.188V0c.36-.016.797-.031 1.047-.031.266 0 .704.015 1.063.031v-.25h-.188c-.578 0-.578-.078-.578-.328v-.563zM2.375-3.939v2.547H.531zm0 0"/></symbol></defs><use xlink:href="#P" x="122.122" y="83.403" width="100%" height="100%"/><use xlink:href="#Q" x="127.103" y="83.403" width="100%" height="100%"/><use xlink:href="#R" x="132.085" y="79.788" width="100%" height="100%"/></g><g transform="matrix(2.16184 0 0 2.16259 667.31 384.637)" ns0:preamble="/home/waldgeist/data/homepage/inkscape-preamble.tex" ns0:text="\\newcommand{\\minus}{\\scalebox{0.5}[1.0]{$-$}}\n$10^{ 8}$" stroke-width="1.387"><defs><symbol id="S" overflow="visible"><path d="M2.938-6.375c0-.25 0-.266-.235-.266C2.078-6 1.203-6 .891-6v.313c.203 0 .78 0 1.296-.266v5.172c0 .36-.03.469-.921.469H.953V0c.344-.031 1.203-.031 1.61-.031.39 0 1.265 0 1.609.031v-.313h-.313c-.906 0-.921-.109-.921-.468zm0 0"/></symbol><symbol id="T" overflow="visible"><path d="M4.578-3.188c0-.796-.047-1.593-.39-2.328C3.733-6.484 2.905-6.64 2.5-6.64c-.61 0-1.328.266-1.75 1.188-.313.687-.36 1.469-.36 2.266 0 .75.032 1.64.454 2.406a1.83 1.83 0 0 0 1.64 1c.532 0 1.297-.203 1.735-1.157.312-.687.36-1.468.36-2.25zM2.484 0c-.39 0-.984-.25-1.156-1.203-.11-.594-.11-1.516-.11-2.11 0-.64 0-1.296.079-1.828.187-1.187.937-1.28 1.187-1.28.329 0 .985.187 1.172 1.171.11.563.11 1.313.11 1.938 0 .75 0 1.421-.11 2.062C3.5-.297 2.937 0 2.484 0zm0 0"/></symbol><symbol id="U" overflow="visible"><path d="M2.469-2.516c.547-.265.89-.593.89-1.078 0-.672-.703-1.031-1.375-1.031-.765 0-1.39.5-1.39 1.156 0 .328.156.563.281.703.125.157.172.188.578.422-.39.172-1.078.547-1.078 1.281 0 .766.797 1.204 1.594 1.204.89 0 1.61-.563 1.61-1.313 0-.469-.267-.86-.673-1.094-.094-.062-.328-.187-.437-.25zm-1.125-.656c-.188-.11-.375-.297-.375-.562 0-.438.5-.688 1-.688.547 0 1.031.344 1.031.828 0 .625-.734.938-.734.938-.016 0-.032 0-.079-.031zm.328.969l.969.547c.171.11.515.312.515.718 0 .532-.578.86-1.172.86-.64 0-1.187-.422-1.187-.985 0-.515.375-.921.875-1.14zm0 0"/></symbol></defs><use y="83.403" x="122.122" xlink:href="#S" width="100%" height="100%"/><use y="83.403" x="127.103" xlink:href="#T" width="100%" height="100%"/><use y="79.788" x="132.085" xlink:href="#U" width="100%" height="100%"/></g><g ns0:text="Radio-\\\\\nwellen" ns0:preamble="/home/waldgeist/data/homepage/inkscape-preamble.tex" transform="matrix(1.82187 0 0 1.8225 442.814 293.457)" stroke-width="1.646"><defs><symbol overflow="visible" id="V"><path d="M2.234-3.516v-2.578c0-.234 0-.36.22-.39.093-.016.39-.016.593-.016.89 0 2 .047 2 1.484 0 .688-.234 1.5-1.703 1.5zm2.11.125c.953-.234 1.734-.843 1.734-1.625 0-.953-1.14-1.796-2.594-1.796H.344v.312h.25c.765 0 .781.11.781.469v5.25c0 .36-.016.469-.781.469h-.25V0c.36-.031 1.078-.031 1.453-.031.39 0 1.11 0 1.469.031v-.313h-.25c-.766 0-.782-.109-.782-.468v-2.516h1.141c.156 0 .578 0 .938.344.375.344.375.656.375 1.328 0 .64 0 1.047.406 1.422.406.36.953.422 1.25.422.781 0 .953-.813.953-1.094 0-.063 0-.172-.125-.172-.11 0-.11.094-.125.156C6.984-.17 6.64 0 6.39 0c-.485 0-.563-.516-.704-1.438l-.14-.796c-.172-.641-.656-.97-1.203-1.157zm0 0"/></symbol><symbol overflow="visible" id="W"><path d="M3.313-.75c.046.39.312.813.78.813.22 0 .829-.141.829-.954v-.562h-.25v.562c0 .579-.25.641-.36.641-.328 0-.375-.453-.375-.5v-1.984c0-.422 0-.813-.359-1.188a1.9 1.9 0 0 0-1.36-.547C1.391-4.469.703-4 .703-3.344c0 .297.203.469.469.469a.435.435 0 0 0 .453-.453c0-.125-.047-.453-.516-.453.282-.36.766-.469 1.079-.469.5 0 1.062.39 1.062 1.281v.36c-.516.03-1.203.062-1.828.359-.75.344-1 .86-1 1.297 0 .812.969 1.062 1.594 1.062A1.38 1.38 0 0 0 3.312-.75zM3.25-2.39v1c0 .937-.719 1.28-1.172 1.28-.484 0-.89-.343-.89-.843 0-.547.421-1.375 2.062-1.438zm0 0"/></symbol><symbol overflow="visible" id="X"><path d="M3.781-.547V.11L5.25 0v-.313c-.688 0-.781-.062-.781-.562v-6.047l-1.422.11v.312c.687 0 .765.063.765.563v2.156a1.582 1.582 0 0 0-1.25-.625c-1.171 0-2.218.984-2.218 2.265 0 1.266.969 2.25 2.11 2.25.64 0 1.077-.343 1.327-.656zm0-2.672v2.047c0 .172 0 .188-.11.36-.296.484-.733.703-1.171.703-.453 0-.813-.266-1.047-.641-.25-.406-.281-.969-.281-1.39 0-.36.016-.954.297-1.407.218-.312.593-.64 1.14-.64.344 0 .766.156 1.063.593.11.172.11.188.11.375zm0 0"/></symbol><symbol overflow="visible" id="Y"><path d="M1.766-4.406l-1.391.11v.312c.64 0 .734.062.734.546V-.75c0 .438-.109.438-.78.438V0c.312-.016.859-.031 1.093-.031.36 0 .703.015 1.047.031v-.313c-.672 0-.703-.046-.703-.437zm.03-1.735a.514.514 0 0 0-.515-.53.537.537 0 0 0-.531.53c0 .266.219.532.531.532a.514.514 0 0 0 .516-.532zm0 0"/></symbol><symbol overflow="visible" id="Z"><path d="M4.688-2.14c0-1.266-.985-2.329-2.188-2.329C1.25-4.469.281-3.375.281-2.14A2.22 2.22 0 0 0 2.484.11c1.204 0 2.204-.984 2.204-2.25zM2.5-.14c-.438 0-.875-.204-1.14-.672-.25-.438-.25-1.047-.25-1.407 0-.39 0-.922.234-1.36a1.347 1.347 0 0 1 1.14-.671c.438 0 .86.219 1.125.656.266.422.266 1 .266 1.375 0 .36 0 .906-.219 1.344-.234.453-.672.734-1.156.734zm0 0"/></symbol><symbol overflow="visible" id="aa"><path d="M2.75-1.86v-.577H.11v.578zm0 0"/></symbol><symbol overflow="visible" id="ab"><path d="M6.172-3.344c.172-.5.484-.64.844-.64v-.313c-.235.016-.516.031-.735.031-.297 0-.734-.015-.922-.03v.312c.36 0 .579.187.579.468 0 .063 0 .094-.063.22L4.969-.75l-.985-2.781c-.03-.125-.046-.14-.046-.188 0-.265.39-.265.593-.265v-.313a25.02 25.02 0 0 1-1.047.031c-.296 0-.578-.015-.875-.03v.312c.36 0 .516.015.625.14.047.063.157.36.22.547L2.608-.875l-.953-2.656c-.047-.125-.047-.14-.047-.188 0-.265.391-.265.579-.265v-.313c-.297.016-.86.031-1.079.031-.046 0-.578-.015-.937-.03v.312c.5 0 .625.03.75.343l1.25 3.532c.047.14.078.218.203.218.14 0 .156-.062.203-.203l1.016-2.812L4.609-.078c.032.11.063.187.204.187.125 0 .156-.093.187-.187zm0 0"/></symbol><symbol overflow="visible" id="ac"><path d="M1.11-2.516C1.171-4 2.015-4.25 2.36-4.25c1.015 0 1.124 1.344 1.124 1.734zm0 .22h2.78c.22 0 .25 0 .25-.22 0-.984-.546-1.953-1.78-1.953-1.158 0-2.08 1.032-2.08 2.282C.281-.86 1.328.108 2.47.108 3.688.11 4.14-1 4.14-1.187c0-.094-.079-.125-.141-.125-.078 0-.11.062-.125.14C3.531-.14 2.625-.14 2.531-.14c-.5 0-.89-.296-1.125-.671-.297-.47-.297-1.125-.297-1.485zm0 0"/></symbol><symbol overflow="visible" id="ad"><path d="M1.766-6.922l-1.438.11v.312c.703 0 .781.063.781.563V-.75c0 .438-.109.438-.78.438V0c.327-.016.859-.031 1.109-.031s.734.015 1.109.031v-.313c-.672 0-.781 0-.781-.437zm0 0"/></symbol><symbol overflow="visible" id="ae"><path d="M1.094-3.422V-.75c0 .438-.11.438-.782.438V0c.36-.016.86-.031 1.141-.031.25 0 .766.015 1.11.031v-.313c-.672 0-.782 0-.782-.437v-1.844c0-1.031.719-1.594 1.344-1.594.64 0 .75.532.75 1.11V-.75c0 .438-.11.438-.781.438V0c.344-.016.86-.031 1.125-.031.25 0 .781.015 1.11.031v-.313c-.516 0-.766 0-.766-.296v-1.907c0-.859 0-1.156-.313-1.515-.14-.172-.469-.375-1.047-.375-.734 0-1.203.422-1.484 1.047v-1.047l-1.407.11v.312c.704 0 .782.062.782.562zm0 0"/></symbol></defs><use height="100%" width="100%" xlink:href="#V" x="118.801" y="83.403"/><use height="100%" width="100%" xlink:href="#W" x="126.134" y="83.403"/><use height="100%" width="100%" xlink:href="#X" x="131.116" y="83.403"/><use height="100%" width="100%" xlink:href="#Y" x="136.651" y="83.403"/><use height="100%" width="100%" xlink:href="#Z" x="139.419" y="83.403"/><use height="100%" width="100%" xlink:href="#aa" x="144.4" y="83.403"/><use height="100%" width="100%" xlink:href="#ab" x="118.801" y="95.359"/><use height="100%" width="100%" xlink:href="#ac" x="125.717" y="95.359"/><use height="100%" width="100%" xlink:href="#ad" x="130.144" y="95.359"/><use height="100%" width="100%" xlink:href="#ad" x="132.912" y="95.359"/><use height="100%" width="100%" xlink:href="#ac" x="135.68" y="95.359"/><use height="100%" width="100%" xlink:href="#ae" x="140.107" y="95.359"/></g><g transform="matrix(1.82187 0 0 1.8225 323.2 293.457)" ns0:preamble="/home/waldgeist/data/homepage/inkscape-preamble.tex" ns0:text="Mikro-\\\\\nwellen" stroke-width="1.646"><defs><symbol id="af" overflow="visible"><path d="M2.406-6.594c-.094-.218-.125-.218-.36-.218H.376v.312H.61c.766 0 .782.11.782.469v4.984c0 .266 0 .734-1.016.734V0c.344-.016.828-.031 1.156-.031.328 0 .828.015 1.172.031v-.313c-1.031 0-1.031-.468-1.031-.734v-5.375h.016L4.094-.219c.047.125.093.219.187.219.11 0 .14-.078.188-.188L6.922-6.5v5.719c0 .36-.016.469-.781.469h-.235V0c.36-.031 1.047-.031 1.438-.031.375 0 1.047 0 1.422.031v-.313h-.25c-.766 0-.782-.109-.782-.468v-5.25c0-.36.016-.469.782-.469h.25v-.313H7.078c-.266 0-.266.016-.328.188L4.562-1zm0 0"/></symbol><symbol id="ag" overflow="visible"><path d="M1.766-4.406l-1.391.11v.312c.64 0 .734.062.734.546V-.75c0 .438-.109.438-.78.438V0c.312-.016.859-.031 1.093-.031.36 0 .703.015 1.047.031v-.313c-.672 0-.703-.046-.703-.437zm.03-1.735a.514.514 0 0 0-.515-.53.537.537 0 0 0-.531.53c0 .266.219.532.531.532a.514.514 0 0 0 .516-.532zm0 0"/></symbol><symbol id="ah" overflow="visible"><path d="M1.063-.75c0 .438-.11.438-.782.438V0a26.45 26.45 0 0 1 1.078-.031c.313 0 .704.015 1.11.031v-.313c-.672 0-.781 0-.781-.437v-1.031l.64-.547c.766 1.047 1.188 1.61 1.188 1.797 0 .187-.172.219-.36.219V0c.266-.016.86-.031 1.078-.031.282 0 .579.015.86.031v-.313c-.375 0-.594 0-.969-.53L2.859-2.626c-.015-.016-.062-.078-.062-.11 0-.03.719-.64.812-.718.625-.5 1.047-.531 1.25-.531v-.313c-.28.031-.406.031-.687.031-.36 0-.984-.015-1.125-.03v.312c.187 0 .297.109.297.25 0 .203-.14.312-.219.39L1.719-2.14v-4.78L.28-6.813v.312c.703 0 .781.063.781.563zm0 0"/></symbol><symbol id="ai" overflow="visible"><path d="M1.672-3.313v-1.093l-1.39.11v.312c.702 0 .78.062.78.562V-.75c0 .438-.109.438-.78.438V0c.39-.016.859-.031 1.14-.031.39 0 .86 0 1.266.031v-.313h-.22c-.734 0-.75-.109-.75-.468v-1.531c0-.985.423-1.876 1.173-1.876.062 0 .093 0 .109.016-.031 0-.234.125-.234.39 0 .266.218.423.437.423a.421.421 0 0 0 .422-.438c0-.312-.313-.61-.734-.61-.735 0-1.094.673-1.22 1.095zm0 0"/></symbol><symbol id="aj" overflow="visible"><path d="M4.688-2.14c0-1.266-.985-2.329-2.188-2.329C1.25-4.469.281-3.375.281-2.14A2.22 2.22 0 0 0 2.484.11c1.204 0 2.204-.984 2.204-2.25zM2.5-.14c-.438 0-.875-.204-1.14-.672-.25-.438-.25-1.047-.25-1.407 0-.39 0-.922.234-1.36a1.347 1.347 0 0 1 1.14-.671c.438 0 .86.219 1.125.656.266.422.266 1 .266 1.375 0 .36 0 .906-.219 1.344-.234.453-.672.734-1.156.734zm0 0"/></symbol><symbol id="ak" overflow="visible"><path d="M2.75-1.86v-.577H.11v.578zm0 0"/></symbol><symbol id="al" overflow="visible"><path d="M6.172-3.344c.172-.5.484-.64.844-.64v-.313c-.235.016-.516.031-.735.031-.297 0-.734-.015-.922-.03v.312c.36 0 .579.187.579.468 0 .063 0 .094-.063.22L4.969-.75l-.985-2.781c-.03-.125-.046-.14-.046-.188 0-.265.39-.265.593-.265v-.313a25.02 25.02 0 0 1-1.047.031c-.296 0-.578-.015-.875-.03v.312c.36 0 .516.015.625.14.047.063.157.36.22.547L2.608-.875l-.953-2.656c-.047-.125-.047-.14-.047-.188 0-.265.391-.265.579-.265v-.313c-.297.016-.86.031-1.079.031-.046 0-.578-.015-.937-.03v.312c.5 0 .625.03.75.343l1.25 3.532c.047.14.078.218.203.218.14 0 .156-.062.203-.203l1.016-2.812L4.609-.078c.032.11.063.187.204.187.125 0 .156-.093.187-.187zm0 0"/></symbol><symbol id="am" overflow="visible"><path d="M1.11-2.516C1.171-4 2.015-4.25 2.36-4.25c1.015 0 1.124 1.344 1.124 1.734zm0 .22h2.78c.22 0 .25 0 .25-.22 0-.984-.546-1.953-1.78-1.953-1.158 0-2.08 1.032-2.08 2.282C.281-.86 1.328.108 2.47.108 3.688.11 4.14-1 4.14-1.187c0-.094-.079-.125-.141-.125-.078 0-.11.062-.125.14C3.531-.14 2.625-.14 2.531-.14c-.5 0-.89-.296-1.125-.671-.297-.47-.297-1.125-.297-1.485zm0 0"/></symbol><symbol id="an" overflow="visible"><path d="M1.766-6.922l-1.438.11v.312c.703 0 .781.063.781.563V-.75c0 .438-.109.438-.78.438V0c.327-.016.859-.031 1.109-.031s.734.015 1.109.031v-.313c-.672 0-.781 0-.781-.437zm0 0"/></symbol><symbol id="ao" overflow="visible"><path d="M1.094-3.422V-.75c0 .438-.11.438-.782.438V0c.36-.016.86-.031 1.141-.031.25 0 .766.015 1.11.031v-.313c-.672 0-.782 0-.782-.437v-1.844c0-1.031.719-1.594 1.344-1.594.64 0 .75.532.75 1.11V-.75c0 .438-.11.438-.781.438V0c.344-.016.86-.031 1.125-.031.25 0 .781.015 1.11.031v-.313c-.516 0-.766 0-.766-.296v-1.907c0-.859 0-1.156-.313-1.515-.14-.172-.469-.375-1.047-.375-.734 0-1.203.422-1.484 1.047v-1.047l-1.407.11v.312c.704 0 .782.062.782.562zm0 0"/></symbol></defs><use y="83.403" x="118.801" xlink:href="#af" width="100%" height="100%"/><use y="83.403" x="127.934" xlink:href="#ag" width="100%" height="100%"/><use y="83.403" x="130.701" xlink:href="#ah" width="100%" height="100%"/><use y="83.403" x="135.96" xlink:href="#ai" width="100%" height="100%"/><use y="83.403" x="139.862" xlink:href="#aj" width="100%" height="100%"/><use y="83.403" x="144.843" xlink:href="#ak" width="100%" height="100%"/><use y="95.359" x="118.801" xlink:href="#al" width="100%" height="100%"/><use y="95.359" x="125.717" xlink:href="#am" width="100%" height="100%"/><use y="95.359" x="130.144" xlink:href="#an" width="100%" height="100%"/><use y="95.359" x="132.912" xlink:href="#an" width="100%" height="100%"/><use y="95.359" x="135.68" xlink:href="#am" width="100%" height="100%"/><use y="95.359" x="140.107" xlink:href="#ao" width="100%" height="100%"/></g><g ns0:text="\\newcommand{\\minus}{\\scalebox{0.5}[1.0]{$-$}}\n$10^{\\minus 2}$" ns0:preamble="/home/waldgeist/data/homepage/inkscape-preamble.tex" transform="matrix(2.16184 0 0 2.16259 268.12 384.637)" stroke-width="1.387"><defs><symbol overflow="visible" id="ap"><path d="M2.938-6.375c0-.25 0-.266-.235-.266C2.078-6 1.203-6 .891-6v.313c.203 0 .78 0 1.296-.266v5.172c0 .36-.03.469-.921.469H.953V0c.344-.031 1.203-.031 1.61-.031.39 0 1.265 0 1.609.031v-.313h-.313c-.906 0-.921-.109-.921-.468zm0 0"/></symbol><symbol overflow="visible" id="aq"><path d="M4.578-3.188c0-.796-.047-1.593-.39-2.328C3.733-6.484 2.905-6.64 2.5-6.64c-.61 0-1.328.266-1.75 1.188-.313.687-.36 1.469-.36 2.266 0 .75.032 1.64.454 2.406a1.83 1.83 0 0 0 1.64 1c.532 0 1.297-.203 1.735-1.157.312-.687.36-1.468.36-2.25zM2.484 0c-.39 0-.984-.25-1.156-1.203-.11-.594-.11-1.516-.11-2.11 0-.64 0-1.296.079-1.828.187-1.187.937-1.28 1.187-1.28.329 0 .985.187 1.172 1.171.11.563.11 1.313.11 1.938 0 .75 0 1.421-.11 2.062C3.5-.297 2.937 0 2.484 0zm0 0"/></symbol><symbol overflow="visible" id="ar"><path d="M3.281-2.297c.094 0 .172 0 .172-.203 0-.188-.078-.188-.172-.188H.594c-.094 0-.188 0-.188.188 0 .203.094.203.188.203zm0 0"/></symbol><symbol overflow="visible" id="as"><path d="M3.516-1.266H3.28c-.015.157-.094.563-.187.625-.047.047-.578.047-.688.047h-1.28c.734-.64.984-.844 1.39-1.172.516-.406 1-.843 1-1.5 0-.843-.734-1.359-1.624-1.359-.86 0-1.454.61-1.454 1.25 0 .344.297.39.376.39a.365.365 0 0 0 .359-.374c0-.125-.047-.375-.406-.375.218-.485.687-.641 1.015-.641.703 0 1.063.547 1.063 1.11 0 .609-.438 1.078-.656 1.328L.516-.266C.437-.203.437-.187.437 0h2.876zm0 0"/></symbol></defs><use xlink:href="#ap" x="122.122" y="83.403" width="100%" height="100%"/><use xlink:href="#aq" x="127.103" y="83.403" width="100%" height="100%"/><use xlink:href="#ar" x="132.085" y="79.788" width="100%" height="100%"/><use xlink:href="#as" x="135.959" y="79.788" width="100%" height="100%"/></g><g transform="matrix(2.16184 0 0 2.16259 431.518 384.637)" ns0:preamble="/home/waldgeist/data/homepage/inkscape-preamble.tex" ns0:text="\\newcommand{\\minus}{\\scalebox{0.5}[1.0]{$-$}}\n$10^{2}$" stroke-width="1.387"><defs><symbol id="at" overflow="visible"><path d="M2.938-6.375c0-.25 0-.266-.235-.266C2.078-6 1.203-6 .891-6v.313c.203 0 .78 0 1.296-.266v5.172c0 .36-.03.469-.921.469H.953V0c.344-.031 1.203-.031 1.61-.031.39 0 1.265 0 1.609.031v-.313h-.313c-.906 0-.921-.109-.921-.468zm0 0"/></symbol><symbol id="au" overflow="visible"><path d="M4.578-3.188c0-.796-.047-1.593-.39-2.328C3.733-6.484 2.905-6.64 2.5-6.64c-.61 0-1.328.266-1.75 1.188-.313.687-.36 1.469-.36 2.266 0 .75.032 1.64.454 2.406a1.83 1.83 0 0 0 1.64 1c.532 0 1.297-.203 1.735-1.157.312-.687.36-1.468.36-2.25zM2.484 0c-.39 0-.984-.25-1.156-1.203-.11-.594-.11-1.516-.11-2.11 0-.64 0-1.296.079-1.828.187-1.187.937-1.28 1.187-1.28.329 0 .985.187 1.172 1.171.11.563.11 1.313.11 1.938 0 .75 0 1.421-.11 2.062C3.5-.297 2.937 0 2.484 0zm0 0"/></symbol><symbol id="av" overflow="visible"><path d="M3.516-1.266H3.28c-.015.157-.094.563-.187.625-.047.047-.578.047-.688.047h-1.28c.734-.64.984-.844 1.39-1.172.516-.406 1-.843 1-1.5 0-.843-.734-1.359-1.624-1.359-.86 0-1.454.61-1.454 1.25 0 .344.297.39.376.39a.365.365 0 0 0 .359-.374c0-.125-.047-.375-.406-.375.218-.485.687-.641 1.015-.641.703 0 1.063.547 1.063 1.11 0 .609-.438 1.078-.656 1.328L.516-.266C.437-.203.437-.187.437 0h2.876zm0 0"/></symbol></defs><use y="83.403" x="122.122" xlink:href="#at" width="100%" height="100%"/><use y="83.403" x="127.103" xlink:href="#au" width="100%" height="100%"/><use y="79.788" x="132.085" xlink:href="#av" width="100%" height="100%"/></g><g ns0:text="\\newcommand{\\minus}{\\scalebox{0.5}[1.0]{$-$}}\n$10^{ 6}$" ns0:preamble="/home/waldgeist/data/homepage/inkscape-preamble.tex" transform="matrix(2.16184 0 0 2.16259 590.076 384.637)" stroke-width="1.387"><defs><symbol overflow="visible" id="aw"><path d="M2.938-6.375c0-.25 0-.266-.235-.266C2.078-6 1.203-6 .891-6v.313c.203 0 .78 0 1.296-.266v5.172c0 .36-.03.469-.921.469H.953V0c.344-.031 1.203-.031 1.61-.031.39 0 1.265 0 1.609.031v-.313h-.313c-.906 0-.921-.109-.921-.468zm0 0"/></symbol><symbol overflow="visible" id="ax"><path d="M4.578-3.188c0-.796-.047-1.593-.39-2.328C3.733-6.484 2.905-6.64 2.5-6.64c-.61 0-1.328.266-1.75 1.188-.313.687-.36 1.469-.36 2.266 0 .75.032 1.64.454 2.406a1.83 1.83 0 0 0 1.64 1c.532 0 1.297-.203 1.735-1.157.312-.687.36-1.468.36-2.25zM2.484 0c-.39 0-.984-.25-1.156-1.203-.11-.594-.11-1.516-.11-2.11 0-.64 0-1.296.079-1.828.187-1.187.937-1.28 1.187-1.28.329 0 .985.187 1.172 1.171.11.563.11 1.313.11 1.938 0 .75 0 1.421-.11 2.062C3.5-.297 2.937 0 2.484 0zm0 0"/></symbol><symbol overflow="visible" id="ay"><path d="M1.047-2.281c0-.563.047-1.078.312-1.516.235-.375.61-.625 1.063-.625.203 0 .484.047.625.234-.172.016-.328.141-.328.344a.32.32 0 0 0 .328.328c.219 0 .344-.14.344-.343 0-.407-.297-.766-.985-.766-1 0-2.031.922-2.031 2.422C.375-.406 1.219.14 2 .14c.844 0 1.578-.657 1.578-1.563 0-.89-.703-1.547-1.515-1.547-.563 0-.86.375-1.016.688zM2-.078c-.36 0-.625-.203-.781-.516-.094-.203-.157-.562-.157-.969 0-.687.407-1.203.97-1.203a.79.79 0 0 1 .702.375c.172.266.172.563.172.97 0 .39 0 .687-.187.968A.815.815 0 0 1 2-.078zm0 0"/></symbol></defs><use xlink:href="#aw" x="122.122" y="83.403" width="100%" height="100%"/><use xlink:href="#ax" x="127.103" y="83.403" width="100%" height="100%"/><use xlink:href="#ay" x="132.085" y="79.788" width="100%" height="100%"/></g><g transform="matrix(1.82187 0 0 1.8225 197.752 293.423)" ns0:preamble="/home/waldgeist/data/homepage/inkscape-preamble.tex" ns0:text="Infrarot-\\\\\nwellen" stroke-width="1.646"><defs><symbol id="az" overflow="visible"><path d="M2.25-6.031c0-.36.016-.469.813-.469h.25v-.313c-.344.032-1.126.032-1.516.032-.375 0-1.172 0-1.516-.032v.313h.25c.797 0 .828.11.828.469v5.25c0 .36-.03.469-.828.469h-.25V0c.344-.031 1.14-.031 1.516-.031.39 0 1.172 0 1.516.031v-.313h-.25c-.797 0-.813-.109-.813-.468zm0 0"/></symbol><symbol id="aA" overflow="visible"><path d="M1.094-3.422V-.75c0 .438-.11.438-.782.438V0c.36-.016.86-.031 1.141-.031.25 0 .766.015 1.11.031v-.313c-.672 0-.782 0-.782-.437v-1.844c0-1.031.719-1.594 1.344-1.594.64 0 .75.532.75 1.11V-.75c0 .438-.11.438-.781.438V0c.344-.016.86-.031 1.125-.031.25 0 .781.015 1.11.031v-.313c-.516 0-.766 0-.766-.296v-1.907c0-.859 0-1.156-.313-1.515-.14-.172-.469-.375-1.047-.375-.734 0-1.203.422-1.484 1.047v-1.047l-1.407.11v.312c.704 0 .782.062.782.562zm0 0"/></symbol><symbol id="aB" overflow="visible"><path d="M1.75-4.297v-1.156c0-.875.469-1.36.906-1.36.031 0 .188 0 .328.079a.443.443 0 0 0-.296.421c0 .22.156.422.437.422s.438-.203.438-.437c0-.375-.376-.703-.907-.703-.687 0-1.547.531-1.547 1.593v1.141H.33v.313h.78V-.75c0 .438-.109.438-.765.438V0c.39-.016.86-.031 1.125-.031.406 0 .875 0 1.265.031v-.313h-.203c-.734 0-.75-.109-.75-.468v-3.203h1.125v-.313zm0 0"/></symbol><symbol id="aC" overflow="visible"><path d="M1.672-3.313v-1.093l-1.39.11v.312c.702 0 .78.062.78.562V-.75c0 .438-.109.438-.78.438V0c.39-.016.859-.031 1.14-.031.39 0 .86 0 1.266.031v-.313h-.22c-.734 0-.75-.109-.75-.468v-1.531c0-.985.423-1.876 1.173-1.876.062 0 .093 0 .109.016-.031 0-.234.125-.234.39 0 .266.218.423.437.423a.421.421 0 0 0 .422-.438c0-.312-.313-.61-.734-.61-.735 0-1.094.673-1.22 1.095zm0 0"/></symbol><symbol id="aD" overflow="visible"><path d="M3.313-.75c.046.39.312.813.78.813.22 0 .829-.141.829-.954v-.562h-.25v.562c0 .579-.25.641-.36.641-.328 0-.375-.453-.375-.5v-1.984c0-.422 0-.813-.359-1.188a1.9 1.9 0 0 0-1.36-.547C1.391-4.469.703-4 .703-3.344c0 .297.203.469.469.469a.435.435 0 0 0 .453-.453c0-.125-.047-.453-.516-.453.282-.36.766-.469 1.079-.469.5 0 1.062.39 1.062 1.281v.36c-.516.03-1.203.062-1.828.359-.75.344-1 .86-1 1.297 0 .812.969 1.062 1.594 1.062A1.38 1.38 0 0 0 3.312-.75zM3.25-2.39v1c0 .937-.719 1.28-1.172 1.28-.484 0-.89-.343-.89-.843 0-.547.421-1.375 2.062-1.438zm0 0"/></symbol><symbol id="aE" overflow="visible"><path d="M4.688-2.14c0-1.266-.985-2.329-2.188-2.329C1.25-4.469.281-3.375.281-2.14A2.22 2.22 0 0 0 2.484.11c1.204 0 2.204-.984 2.204-2.25zM2.5-.14c-.438 0-.875-.204-1.14-.672-.25-.438-.25-1.047-.25-1.407 0-.39 0-.922.234-1.36a1.347 1.347 0 0 1 1.14-.671c.438 0 .86.219 1.125.656.266.422.266 1 .266 1.375 0 .36 0 .906-.219 1.344-.234.453-.672.734-1.156.734zm0 0"/></symbol><symbol id="aF" overflow="visible"><path d="M1.719-3.984h1.437v-.313H1.72v-1.828h-.25c0 .813-.297 1.875-1.282 1.922v.219h.844v2.75c0 1.218.938 1.343 1.297 1.343.703 0 .985-.703.985-1.343v-.563h-.25v.547c0 .734-.297 1.11-.672 1.11-.672 0-.672-.907-.672-1.079zm0 0"/></symbol><symbol id="aG" overflow="visible"><path d="M2.75-1.86v-.577H.11v.578zm0 0"/></symbol><symbol id="aH" overflow="visible"><path d="M6.172-3.344c.172-.5.484-.64.844-.64v-.313c-.235.016-.516.031-.735.031-.297 0-.734-.015-.922-.03v.312c.36 0 .579.187.579.468 0 .063 0 .094-.063.22L4.969-.75l-.985-2.781c-.03-.125-.046-.14-.046-.188 0-.265.39-.265.593-.265v-.313a25.02 25.02 0 0 1-1.047.031c-.296 0-.578-.015-.875-.03v.312c.36 0 .516.015.625.14.047.063.157.36.22.547L2.608-.875l-.953-2.656c-.047-.125-.047-.14-.047-.188 0-.265.391-.265.579-.265v-.313c-.297.016-.86.031-1.079.031-.046 0-.578-.015-.937-.03v.312c.5 0 .625.03.75.343l1.25 3.532c.047.14.078.218.203.218.14 0 .156-.062.203-.203l1.016-2.812L4.609-.078c.032.11.063.187.204.187.125 0 .156-.093.187-.187zm0 0"/></symbol><symbol id="aI" overflow="visible"><path d="M1.11-2.516C1.171-4 2.015-4.25 2.36-4.25c1.015 0 1.124 1.344 1.124 1.734zm0 .22h2.78c.22 0 .25 0 .25-.22 0-.984-.546-1.953-1.78-1.953-1.158 0-2.08 1.032-2.08 2.282C.281-.86 1.328.108 2.47.108 3.688.11 4.14-1 4.14-1.187c0-.094-.079-.125-.141-.125-.078 0-.11.062-.125.14C3.531-.14 2.625-.14 2.531-.14c-.5 0-.89-.296-1.125-.671-.297-.47-.297-1.125-.297-1.485zm0 0"/></symbol><symbol id="aJ" overflow="visible"><path d="M1.766-6.922l-1.438.11v.312c.703 0 .781.063.781.563V-.75c0 .438-.109.438-.78.438V0c.327-.016.859-.031 1.109-.031s.734.015 1.109.031v-.313c-.672 0-.781 0-.781-.437zm0 0"/></symbol></defs><use y="83.403" x="118.801" xlink:href="#az" width="100%" height="100%"/><use y="83.403" x="122.398" xlink:href="#aA" width="100%" height="100%"/><use y="83.403" x="127.934" xlink:href="#aB" width="100%" height="100%"/><use y="83.403" x="130.978" xlink:href="#aC" width="100%" height="100%"/><use y="83.403" x="134.881" xlink:href="#aD" width="100%" height="100%"/><use y="83.403" x="139.862" xlink:href="#aC" width="100%" height="100%"/><use y="83.403" x="143.764" xlink:href="#aE" width="100%" height="100%"/><use y="83.403" x="148.746" xlink:href="#aF" width="100%" height="100%"/><use y="83.403" x="152.62" xlink:href="#aG" width="100%" height="100%"/><use y="95.359" x="118.801" xlink:href="#aH" width="100%" height="100%"/><use y="95.359" x="125.717" xlink:href="#aI" width="100%" height="100%"/><use y="95.359" x="130.144" xlink:href="#aJ" width="100%" height="100%"/><use y="95.359" x="132.912" xlink:href="#aJ" width="100%" height="100%"/><use y="95.359" x="135.68" xlink:href="#aI" width="100%" height="100%"/><use y="95.359" x="140.107" xlink:href="#aA" width="100%" height="100%"/></g><g ns0:text="\\newcommand{\\minus}{\\scalebox{0.5}[1.0]{$-$}}\n$10^{\\minus 6}$" ns0:preamble="/home/waldgeist/data/homepage/inkscape-preamble.tex" transform="matrix(2.16184 0 0 2.16259 111.353 384.722)" stroke-width="1.387"><defs><symbol overflow="visible" id="aK"><path d="M2.938-6.375c0-.25 0-.266-.235-.266C2.078-6 1.203-6 .891-6v.313c.203 0 .78 0 1.296-.266v5.172c0 .36-.03.469-.921.469H.953V0c.344-.031 1.203-.031 1.61-.031.39 0 1.265 0 1.609.031v-.313h-.313c-.906 0-.921-.109-.921-.468zm0 0"/></symbol><symbol overflow="visible" id="aL"><path d="M4.578-3.188c0-.796-.047-1.593-.39-2.328C3.733-6.484 2.905-6.64 2.5-6.64c-.61 0-1.328.266-1.75 1.188-.313.687-.36 1.469-.36 2.266 0 .75.032 1.64.454 2.406a1.83 1.83 0 0 0 1.64 1c.532 0 1.297-.203 1.735-1.157.312-.687.36-1.468.36-2.25zM2.484 0c-.39 0-.984-.25-1.156-1.203-.11-.594-.11-1.516-.11-2.11 0-.64 0-1.296.079-1.828.187-1.187.937-1.28 1.187-1.28.329 0 .985.187 1.172 1.171.11.563.11 1.313.11 1.938 0 .75 0 1.421-.11 2.062C3.5-.297 2.937 0 2.484 0zm0 0"/></symbol><symbol overflow="visible" id="aM"><path d="M3.281-2.297c.094 0 .172 0 .172-.203 0-.188-.078-.188-.172-.188H.594c-.094 0-.188 0-.188.188 0 .203.094.203.188.203zm0 0"/></symbol><symbol overflow="visible" id="aN"><path d="M1.047-2.281c0-.563.047-1.078.312-1.516.235-.375.61-.625 1.063-.625.203 0 .484.047.625.234-.172.016-.328.141-.328.344a.32.32 0 0 0 .328.328c.219 0 .344-.14.344-.343 0-.407-.297-.766-.985-.766-1 0-2.031.922-2.031 2.422C.375-.406 1.219.14 2 .14c.844 0 1.578-.657 1.578-1.563 0-.89-.703-1.547-1.515-1.547-.563 0-.86.375-1.016.688zM2-.078c-.36 0-.625-.203-.781-.516-.094-.203-.157-.562-.157-.969 0-.687.407-1.203.97-1.203a.79.79 0 0 1 .702.375c.172.266.172.563.172.97 0 .39 0 .687-.187.968A.815.815 0 0 1 2-.078zm0 0"/></symbol></defs><use height="100%" width="100%" xlink:href="#aK" x="122.122" y="83.403"/><use height="100%" width="100%" xlink:href="#aL" x="127.103" y="83.403"/><use height="100%" width="100%" xlink:href="#aM" x="132.085" y="79.788"/><use height="100%" width="100%" xlink:href="#aN" x="135.959" y="79.788"/></g><g transform="matrix(2.16184 0 0 2.16259 -48.035 384.722)" ns0:preamble="/home/waldgeist/data/homepage/inkscape-preamble.tex" ns0:text="\\newcommand{\\minus}{\\scalebox{0.5}[1.0]{$-$}}\n$10^{\\minus 10}$" stroke-width="1.387"><defs><symbol id="aO" overflow="visible"><path d="M2.938-6.375c0-.25 0-.266-.235-.266C2.078-6 1.203-6 .891-6v.313c.203 0 .78 0 1.296-.266v5.172c0 .36-.03.469-.921.469H.953V0c.344-.031 1.203-.031 1.61-.031.39 0 1.265 0 1.609.031v-.313h-.313c-.906 0-.921-.109-.921-.468zm0 0"/></symbol><symbol id="aP" overflow="visible"><path d="M4.578-3.188c0-.796-.047-1.593-.39-2.328C3.733-6.484 2.905-6.64 2.5-6.64c-.61 0-1.328.266-1.75 1.188-.313.687-.36 1.469-.36 2.266 0 .75.032 1.64.454 2.406a1.83 1.83 0 0 0 1.64 1c.532 0 1.297-.203 1.735-1.157.312-.687.36-1.468.36-2.25zM2.484 0c-.39 0-.984-.25-1.156-1.203-.11-.594-.11-1.516-.11-2.11 0-.64 0-1.296.079-1.828.187-1.187.937-1.28 1.187-1.28.329 0 .985.187 1.172 1.171.11.563.11 1.313.11 1.938 0 .75 0 1.421-.11 2.062C3.5-.297 2.937 0 2.484 0zm0 0"/></symbol><symbol id="aQ" overflow="visible"><path d="M3.281-2.297c.094 0 .172 0 .172-.203 0-.188-.078-.188-.172-.188H.594c-.094 0-.188 0-.188.188 0 .203.094.203.188.203zm0 0"/></symbol><symbol id="aR" overflow="visible"><path d="M2.328-4.438c0-.187 0-.187-.203-.187-.453.438-1.078.438-1.36.438v.25c.157 0 .626 0 1-.188v3.547c0 .234 0 .328-.687.328H.812V0c.125 0 .985-.031 1.235-.031.219 0 1.094.031 1.25.031v-.25H3.03c-.703 0-.703-.094-.703-.328zm0 0"/></symbol><symbol id="aS" overflow="visible"><path d="M3.594-2.219c0-.765-.094-1.328-.406-1.812-.22-.313-.657-.594-1.204-.594C.36-4.625.36-2.719.36-2.219c0 .5 0 2.36 1.625 2.36 1.61 0 1.61-1.86 1.61-2.36zM1.984-.063c-.328 0-.75-.187-.89-.75C1-1.219 1-1.796 1-2.313c0-.515 0-1.046.094-1.421.156-.547.593-.704.89-.704.375 0 .735.235.86.641.11.375.125.875.125 1.485 0 .515 0 1.03-.094 1.468-.14.64-.61.781-.89.781zm0 0"/></symbol></defs><use height="100%" width="100%" y="83.403" x="122.122" xlink:href="#aO"/><use height="100%" width="100%" y="83.403" x="127.103" xlink:href="#aP"/><use height="100%" width="100%" y="79.788" x="132.085" xlink:href="#aQ"/><use height="100%" width="100%" y="79.788" x="135.959" xlink:href="#aR"/><use height="100%" width="100%" y="79.788" x="139.931" xlink:href="#aS"/></g><g ns0:text="\\newcommand{\\minus}{\\scalebox{0.5}[1.0]{$-$}}\n$10^{\\minus 14}$" ns0:preamble="/home/waldgeist/data/homepage/inkscape-preamble.tex" transform="matrix(2.16184 0 0 2.16259 -207.727 384.722)" stroke-width="1.387"><defs><symbol overflow="visible" id="aT"><path d="M2.938-6.375c0-.25 0-.266-.235-.266C2.078-6 1.203-6 .891-6v.313c.203 0 .78 0 1.296-.266v5.172c0 .36-.03.469-.921.469H.953V0c.344-.031 1.203-.031 1.61-.031.39 0 1.265 0 1.609.031v-.313h-.313c-.906 0-.921-.109-.921-.468zm0 0"/></symbol><symbol overflow="visible" id="aU"><path d="M4.578-3.188c0-.796-.047-1.593-.39-2.328C3.733-6.484 2.905-6.64 2.5-6.64c-.61 0-1.328.266-1.75 1.188-.313.687-.36 1.469-.36 2.266 0 .75.032 1.64.454 2.406a1.83 1.83 0 0 0 1.64 1c.532 0 1.297-.203 1.735-1.157.312-.687.36-1.468.36-2.25zM2.484 0c-.39 0-.984-.25-1.156-1.203-.11-.594-.11-1.516-.11-2.11 0-.64 0-1.296.079-1.828.187-1.187.937-1.28 1.187-1.28.329 0 .985.187 1.172 1.171.11.563.11 1.313.11 1.938 0 .75 0 1.421-.11 2.062C3.5-.297 2.937 0 2.484 0zm0 0"/></symbol><symbol overflow="visible" id="aV"><path d="M3.281-2.297c.094 0 .172 0 .172-.203 0-.188-.078-.188-.172-.188H.594c-.094 0-.188 0-.188.188 0 .203.094.203.188.203zm0 0"/></symbol><symbol overflow="visible" id="aW"><path d="M2.328-4.438c0-.187 0-.187-.203-.187-.453.438-1.078.438-1.36.438v.25c.157 0 .626 0 1-.188v3.547c0 .234 0 .328-.687.328H.812V0c.125 0 .985-.031 1.235-.031.219 0 1.094.031 1.25.031v-.25H3.03c-.703 0-.703-.094-.703-.328zm0 0"/></symbol><symbol overflow="visible" id="aX"><path d="M3.688-1.14v-.25h-.782V-4.5c0-.14 0-.203-.14-.203-.094 0-.125 0-.188.11L.266-1.392v.25h2.062v.563c0 .25 0 .328-.578.328h-.188V0c.36-.016.797-.031 1.047-.031.266 0 .704.015 1.063.031v-.25h-.188c-.578 0-.578-.078-.578-.328v-.563zM2.375-3.939v2.547H.531zm0 0"/></symbol></defs><use height="100%" width="100%" xlink:href="#aT" x="122.122" y="83.403"/><use height="100%" width="100%" xlink:href="#aU" x="127.103" y="83.403"/><use height="100%" width="100%" xlink:href="#aV" x="132.085" y="79.788"/><use height="100%" width="100%" xlink:href="#aW" x="135.959" y="79.788"/><use height="100%" width="100%" xlink:href="#aX" x="139.931" y="79.788"/></g><g transform="matrix(1.82187 0 0 1.8225 64.835 293.49)" ns0:preamble="/home/waldgeist/data/homepage/inkscape-preamble.tex" ns0:text="UV-\\\\\nwellen" stroke-width="1.646"><defs><symbol id="aY" overflow="visible"><path d="M5.797-2.297c0 1.406-.969 2.203-1.906 2.203-.47 0-1.641-.25-1.641-2.14v-3.797c0-.36.016-.469.781-.469h.235v-.313c-.344.032-1.079.032-1.47.032-.374 0-1.124 0-1.468-.032v.313h.234c.766 0 .797.11.797.469v3.765C1.36-.875 2.516.22 3.875.22c1.14 0 2.031-.922 2.203-2.063.031-.203.031-.297.031-.687v-3.19c0-.328 0-.781 1.032-.781v-.313c-.36.016-.844.032-1.172.032-.36 0-.828-.016-1.188-.032v.313c1.016 0 1.016.469 1.016.734zm0 0"/></symbol><symbol id="aZ" overflow="visible"><path d="M6.188-5.828c.14-.375.406-.656 1.093-.672v-.313c-.312.032-.718.032-.968.032-.297 0-.875-.016-1.141-.032v.313c.516.016.734.266.734.5 0 .078-.031.14-.047.203L4.031-1 2.125-6.031c-.063-.14-.063-.157-.063-.172 0-.297.563-.297.813-.297v-.313c-.36.032-1.047.032-1.422.032-.469 0-.906-.016-1.266-.032v.313c.657 0 .844 0 .985.375L3.484 0c.063.188.11.219.25.219.157 0 .188-.047.235-.188zm0 0"/></symbol><symbol id="ba" overflow="visible"><path d="M2.75-1.86v-.577H.11v.578zm0 0"/></symbol><symbol id="bb" overflow="visible"><path d="M6.172-3.344c.172-.5.484-.64.844-.64v-.313c-.235.016-.516.031-.735.031-.297 0-.734-.015-.922-.03v.312c.36 0 .579.187.579.468 0 .063 0 .094-.063.22L4.969-.75l-.985-2.781c-.03-.125-.046-.14-.046-.188 0-.265.39-.265.593-.265v-.313a25.02 25.02 0 0 1-1.047.031c-.296 0-.578-.015-.875-.03v.312c.36 0 .516.015.625.14.047.063.157.36.22.547L2.608-.875l-.953-2.656c-.047-.125-.047-.14-.047-.188 0-.265.391-.265.579-.265v-.313c-.297.016-.86.031-1.079.031-.046 0-.578-.015-.937-.03v.312c.5 0 .625.03.75.343l1.25 3.532c.047.14.078.218.203.218.14 0 .156-.062.203-.203l1.016-2.812L4.609-.078c.032.11.063.187.204.187.125 0 .156-.093.187-.187zm0 0"/></symbol><symbol id="bc" overflow="visible"><path d="M1.11-2.516C1.171-4 2.015-4.25 2.36-4.25c1.015 0 1.124 1.344 1.124 1.734zm0 .22h2.78c.22 0 .25 0 .25-.22 0-.984-.546-1.953-1.78-1.953-1.158 0-2.08 1.032-2.08 2.282C.281-.86 1.328.108 2.47.108 3.688.11 4.14-1 4.14-1.187c0-.094-.079-.125-.141-.125-.078 0-.11.062-.125.14C3.531-.14 2.625-.14 2.531-.14c-.5 0-.89-.296-1.125-.671-.297-.47-.297-1.125-.297-1.485zm0 0"/></symbol><symbol id="bd" overflow="visible"><path d="M1.766-6.922l-1.438.11v.312c.703 0 .781.063.781.563V-.75c0 .438-.109.438-.78.438V0c.327-.016.859-.031 1.109-.031s.734.015 1.109.031v-.313c-.672 0-.781 0-.781-.437zm0 0"/></symbol><symbol id="be" overflow="visible"><path d="M1.094-3.422V-.75c0 .438-.11.438-.782.438V0c.36-.016.86-.031 1.141-.031.25 0 .766.015 1.11.031v-.313c-.672 0-.782 0-.782-.437v-1.844c0-1.031.719-1.594 1.344-1.594.64 0 .75.532.75 1.11V-.75c0 .438-.11.438-.781.438V0c.344-.016.86-.031 1.125-.031.25 0 .781.015 1.11.031v-.313c-.516 0-.766 0-.766-.296v-1.907c0-.859 0-1.156-.313-1.515-.14-.172-.469-.375-1.047-.375-.734 0-1.203.422-1.484 1.047v-1.047l-1.407.11v.312c.704 0 .782.062.782.562zm0 0"/></symbol></defs><use y="83.403" x="118.801" xlink:href="#aY" width="100%" height="100%"/><use y="83.403" x="126.273" xlink:href="#aZ" width="100%" height="100%"/><use y="83.403" x="133.745" xlink:href="#ba" width="100%" height="100%"/><use y="95.359" x="118.801" xlink:href="#bb" width="100%" height="100%"/><use y="95.359" x="125.717" xlink:href="#bc" width="100%" height="100%"/><use y="95.359" x="130.144" xlink:href="#bd" width="100%" height="100%"/><use y="95.359" x="132.912" xlink:href="#bd" width="100%" height="100%"/><use y="95.359" x="135.68" xlink:href="#bc" width="100%" height="100%"/><use y="95.359" x="140.107" xlink:href="#be" width="100%" height="100%"/></g><path fill="url(#bf)" d="M0 0h1000v200H0z" transform="translate(69.313 148.963) scale(.59728)"/><g ns0:text="R\xc3\xb6ntgen-\\\\\nstrahlen" ns0:preamble="/home/waldgeist/data/homepage/inkscape-preamble.tex" transform="matrix(1.82187 0 0 1.8225 -24.133 293.49)" stroke-width="1.646"><defs><symbol overflow="visible" id="bg"><path d="M2.234-3.516v-2.578c0-.234 0-.36.22-.39.093-.016.39-.016.593-.016.89 0 2 .047 2 1.484 0 .688-.234 1.5-1.703 1.5zm2.11.125c.953-.234 1.734-.843 1.734-1.625 0-.953-1.14-1.796-2.594-1.796H.344v.312h.25c.765 0 .781.11.781.469v5.25c0 .36-.016.469-.781.469h-.25V0c.36-.031 1.078-.031 1.453-.031.39 0 1.11 0 1.469.031v-.313h-.25c-.766 0-.782-.109-.782-.468v-2.516h1.141c.156 0 .578 0 .938.344.375.344.375.656.375 1.328 0 .64 0 1.047.406 1.422.406.36.953.422 1.25.422.781 0 .953-.813.953-1.094 0-.063 0-.172-.125-.172-.11 0-.11.094-.125.156C6.984-.17 6.64 0 6.39 0c-.485 0-.563-.516-.704-1.438l-.14-.796c-.172-.641-.656-.97-1.203-1.157zm0 0"/></symbol><symbol overflow="visible" id="bh"><path d="M2.031-6.172c0-.234-.203-.5-.5-.5-.281 0-.5.219-.5.5s.219.5.5.5c.297 0 .5-.266.5-.5zm1.922 0c0-.281-.219-.5-.5-.5-.297 0-.5.266-.5.5 0 .234.203.5.5.5.281 0 .5-.219.5-.5zm0 0"/></symbol><symbol overflow="visible" id="bi"><path d="M4.688-2.14c0-1.266-.985-2.329-2.188-2.329C1.25-4.469.281-3.375.281-2.14A2.22 2.22 0 0 0 2.484.11c1.204 0 2.204-.984 2.204-2.25zM2.5-.14c-.438 0-.875-.204-1.14-.672-.25-.438-.25-1.047-.25-1.407 0-.39 0-.922.234-1.36a1.347 1.347 0 0 1 1.14-.671c.438 0 .86.219 1.125.656.266.422.266 1 .266 1.375 0 .36 0 .906-.219 1.344-.234.453-.672.734-1.156.734zm0 0"/></symbol><symbol overflow="visible" id="bj"><path d="M1.094-3.422V-.75c0 .438-.11.438-.782.438V0c.36-.016.86-.031 1.141-.031.25 0 .766.015 1.11.031v-.313c-.672 0-.782 0-.782-.437v-1.844c0-1.031.719-1.594 1.344-1.594.64 0 .75.532.75 1.11V-.75c0 .438-.11.438-.781.438V0c.344-.016.86-.031 1.125-.031.25 0 .781.015 1.11.031v-.313c-.516 0-.766 0-.766-.296v-1.907c0-.859 0-1.156-.313-1.515-.14-.172-.469-.375-1.047-.375-.734 0-1.203.422-1.484 1.047v-1.047l-1.407.11v.312c.704 0 .782.062.782.562zm0 0"/></symbol><symbol overflow="visible" id="bk"><path d="M1.719-3.984h1.437v-.313H1.72v-1.828h-.25c0 .813-.297 1.875-1.282 1.922v.219h.844v2.75c0 1.218.938 1.343 1.297 1.343.703 0 .985-.703.985-1.343v-.563h-.25v.547c0 .734-.297 1.11-.672 1.11-.672 0-.672-.907-.672-1.079zm0 0"/></symbol><symbol overflow="visible" id="bl"><path d="M2.219-1.719c-.875 0-.875-1-.875-1.218 0-.266.015-.594.156-.844.078-.11.313-.39.719-.39.86 0 .86.984.86 1.218 0 .265 0 .594-.157.844-.078.109-.313.39-.703.39zm-1.156.39a.8.8 0 0 1 .156-.468c.39.281.812.313 1 .313.922 0 1.61-.688 1.61-1.454 0-.374-.157-.734-.407-.968.36-.344.719-.39.89-.39.032 0 .079 0 .11.015-.11.031-.172.14-.172.265 0 .172.14.282.297.282a.28.28 0 0 0 .281-.297c0-.172-.11-.485-.5-.485-.203 0-.64.063-1.062.47a1.652 1.652 0 0 0-1.047-.36c-.938 0-1.625.687-1.625 1.453 0 .437.219.812.469 1.031-.125.14-.313.469-.313.828 0 .313.14.688.453.89-.61.157-.922.595-.922.985 0 .719.985 1.266 2.203 1.266 1.172 0 2.204-.5 2.204-1.281 0-.344-.125-.86-.641-1.141-.531-.266-1.11-.266-1.719-.266-.25 0-.672 0-.75-.015-.312-.047-.516-.344-.516-.672zM2.5 1.829C1.484 1.828.797 1.312.797.781c0-.453.375-.828.812-.844h.594c.86 0 1.969 0 1.969.844 0 .547-.703 1.047-1.672 1.047zm0 0"/></symbol><symbol overflow="visible" id="bm"><path d="M1.11-2.516C1.171-4 2.015-4.25 2.36-4.25c1.015 0 1.124 1.344 1.124 1.734zm0 .22h2.78c.22 0 .25 0 .25-.22 0-.984-.546-1.953-1.78-1.953-1.158 0-2.08 1.032-2.08 2.282C.281-.86 1.328.108 2.47.108 3.688.11 4.14-1 4.14-1.187c0-.094-.079-.125-.141-.125-.078 0-.11.062-.125.14C3.531-.14 2.625-.14 2.531-.14c-.5 0-.89-.296-1.125-.671-.297-.47-.297-1.125-.297-1.485zm0 0"/></symbol><symbol overflow="visible" id="bn"><path d="M2.75-1.86v-.577H.11v.578zm0 0"/></symbol><symbol overflow="visible" id="bo"><path d="M2.078-1.938c.219.047 1.031.204 1.031.922 0 .5-.343.907-1.125.907-.843 0-1.203-.563-1.39-1.422-.031-.125-.031-.157-.14-.157-.126 0-.126.063-.126.235v1.328c0 .172 0 .234.11.234C.483.11.5.094.688-.094.703-.109.703-.125.89-.312c.437.406.89.421 1.093.421 1.141 0 1.61-.671 1.61-1.39 0-.516-.297-.828-.422-.938-.328-.328-.719-.406-1.14-.484-.563-.11-1.22-.235-1.22-.813 0-.359.25-.765 1.11-.765 1.094 0 1.156.906 1.172 1.203 0 .094.094.094.11.094.14 0 .14-.047.14-.235v-1.015c0-.157 0-.235-.11-.235-.046 0-.078 0-.203.125a1.676 1.676 0 0 1-.172.157c-.375-.282-.78-.282-.937-.282-1.219 0-1.594.672-1.594 1.235 0 .343.156.625.422.843.328.25.61.313 1.328.454zm0 0"/></symbol><symbol overflow="visible" id="bp"><path d="M1.672-3.313v-1.093l-1.39.11v.312c.702 0 .78.062.78.562V-.75c0 .438-.109.438-.78.438V0c.39-.016.859-.031 1.14-.031.39 0 .86 0 1.266.031v-.313h-.22c-.734 0-.75-.109-.75-.468v-1.531c0-.985.423-1.876 1.173-1.876.062 0 .093 0 .109.016-.031 0-.234.125-.234.39 0 .266.218.423.437.423a.421.421 0 0 0 .422-.438c0-.312-.313-.61-.734-.61-.735 0-1.094.673-1.22 1.095zm0 0"/></symbol><symbol overflow="visible" id="bq"><path d="M3.313-.75c.046.39.312.813.78.813.22 0 .829-.141.829-.954v-.562h-.25v.562c0 .579-.25.641-.36.641-.328 0-.375-.453-.375-.5v-1.984c0-.422 0-.813-.359-1.188a1.9 1.9 0 0 0-1.36-.547C1.391-4.469.703-4 .703-3.344c0 .297.203.469.469.469a.435.435 0 0 0 .453-.453c0-.125-.047-.453-.516-.453.282-.36.766-.469 1.079-.469.5 0 1.062.39 1.062 1.281v.36c-.516.03-1.203.062-1.828.359-.75.344-1 .86-1 1.297 0 .812.969 1.062 1.594 1.062A1.38 1.38 0 0 0 3.312-.75zM3.25-2.39v1c0 .937-.719 1.28-1.172 1.28-.484 0-.89-.343-.89-.843 0-.547.421-1.375 2.062-1.438zm0 0"/></symbol><symbol overflow="visible" id="br"><path d="M1.094-.75c0 .438-.11.438-.782.438V0c.36-.016.86-.031 1.141-.031.25 0 .766.015 1.11.031v-.313c-.672 0-.782 0-.782-.437v-1.844c0-1.031.719-1.594 1.344-1.594.64 0 .75.532.75 1.11V-.75c0 .438-.11.438-.781.438V0c.344-.016.86-.031 1.125-.031.25 0 .781.015 1.11.031v-.313c-.516 0-.766 0-.766-.296v-1.907c0-.859 0-1.156-.313-1.515-.14-.172-.469-.375-1.047-.375-.844 0-1.281.593-1.453.984v-3.5l-1.438.11v.312c.704 0 .782.063.782.563zm0 0"/></symbol><symbol overflow="visible" id="bs"><path d="M1.766-6.922l-1.438.11v.312c.703 0 .781.063.781.563V-.75c0 .438-.109.438-.78.438V0c.327-.016.859-.031 1.109-.031s.734.015 1.109.031v-.313c-.672 0-.781 0-.781-.437zm0 0"/></symbol></defs><use height="100%" width="100%" xlink:href="#bg" x="118.801" y="83.403"/><use height="100%" width="100%" xlink:href="#bh" x="126.135" y="83.837"/><use height="100%" width="100%" xlink:href="#bi" x="126.135" y="83.403"/><use height="100%" width="100%" xlink:href="#bj" x="131.116" y="83.403"/><use height="100%" width="100%" xlink:href="#bk" x="136.373" y="83.403"/><use height="100%" width="100%" xlink:href="#bl" x="140.247" y="83.403"/><use height="100%" width="100%" xlink:href="#bm" x="145.228" y="83.403"/><use height="100%" width="100%" xlink:href="#bj" x="149.656" y="83.403"/><use height="100%" width="100%" xlink:href="#bn" x="155.191" y="83.403"/><use height="100%" width="100%" xlink:href="#bo" x="118.801" y="95.359"/><use height="100%" width="100%" xlink:href="#bk" x="122.73" y="95.359"/><use height="100%" width="100%" xlink:href="#bp" x="126.605" y="95.359"/><use height="100%" width="100%" xlink:href="#bq" x="130.507" y="95.359"/><use height="100%" width="100%" xlink:href="#br" x="135.488" y="95.359"/><use height="100%" width="100%" xlink:href="#bs" x="141.024" y="95.359"/><use height="100%" width="100%" xlink:href="#bm" x="143.791" y="95.359"/><use height="100%" width="100%" xlink:href="#bj" x="148.219" y="95.359"/></g><g transform="matrix(1.82187 0 0 1.8225 565.788 293.423)" ns0:preamble="/home/waldgeist/data/homepage/inkscape-preamble.tex" ns0:text="Niederfrequenz-\\\\\nwellen" stroke-width="1.646"><defs><symbol id="bt" overflow="visible"><path d="M2.313-6.672c-.094-.125-.094-.14-.282-.14H.328v.312h.297c.14 0 .344.016.484.016.235.03.25.046.25.234v5.203c0 .266 0 .734-1.03.734V0c.343-.016.843-.031 1.171-.031.328 0 .813.015 1.156.031v-.313c-1.015 0-1.015-.468-1.015-.734v-5.187c.046.046.046.062.093.125L5.797-.125c.094.11.11.125.172.125.14 0 .14-.063.14-.266v-5.5c0-.265 0-.734 1.032-.734v-.313c-.36.016-.844.032-1.172.032-.328 0-.813-.016-1.157-.032v.313c1.016 0 1.016.469 1.016.734V-1.5zm0 0"/></symbol><symbol id="bu" overflow="visible"><path d="M1.766-4.406l-1.391.11v.312c.64 0 .734.062.734.546V-.75c0 .438-.109.438-.78.438V0c.312-.016.859-.031 1.093-.031.36 0 .703.015 1.047.031v-.313c-.672 0-.703-.046-.703-.437zm.03-1.735a.514.514 0 0 0-.515-.53.537.537 0 0 0-.531.53c0 .266.219.532.531.532a.514.514 0 0 0 .516-.532zm0 0"/></symbol><symbol id="bv" overflow="visible"><path d="M1.11-2.516C1.171-4 2.015-4.25 2.36-4.25c1.015 0 1.124 1.344 1.124 1.734zm0 .22h2.78c.22 0 .25 0 .25-.22 0-.984-.546-1.953-1.78-1.953-1.158 0-2.08 1.032-2.08 2.282C.281-.86 1.328.108 2.47.108 3.688.11 4.14-1 4.14-1.187c0-.094-.079-.125-.141-.125-.078 0-.11.062-.125.14C3.531-.14 2.625-.14 2.531-.14c-.5 0-.89-.296-1.125-.671-.297-.47-.297-1.125-.297-1.485zm0 0"/></symbol><symbol id="bw" overflow="visible"><path d="M3.781-.547V.11L5.25 0v-.313c-.688 0-.781-.062-.781-.562v-6.047l-1.422.11v.312c.687 0 .765.063.765.563v2.156a1.582 1.582 0 0 0-1.25-.625c-1.171 0-2.218.984-2.218 2.265 0 1.266.969 2.25 2.11 2.25.64 0 1.077-.343 1.327-.656zm0-2.672v2.047c0 .172 0 .188-.11.36-.296.484-.733.703-1.171.703-.453 0-.813-.266-1.047-.641-.25-.406-.281-.969-.281-1.39 0-.36.016-.954.297-1.407.218-.312.593-.64 1.14-.64.344 0 .766.156 1.063.593.11.172.11.188.11.375zm0 0"/></symbol><symbol id="bx" overflow="visible"><path d="M1.672-3.313v-1.093l-1.39.11v.312c.702 0 .78.062.78.562V-.75c0 .438-.109.438-.78.438V0c.39-.016.859-.031 1.14-.031.39 0 .86 0 1.266.031v-.313h-.22c-.734 0-.75-.109-.75-.468v-1.531c0-.985.423-1.876 1.173-1.876.062 0 .093 0 .109.016-.031 0-.234.125-.234.39 0 .266.218.423.437.423a.421.421 0 0 0 .422-.438c0-.312-.313-.61-.734-.61-.735 0-1.094.673-1.22 1.095zm0 0"/></symbol><symbol id="by" overflow="visible"><path d="M1.75-4.297v-1.156c0-.875.469-1.36.906-1.36.031 0 .188 0 .328.079a.443.443 0 0 0-.296.421c0 .22.156.422.437.422s.438-.203.438-.437c0-.375-.376-.703-.907-.703-.687 0-1.547.531-1.547 1.593v1.141H.33v.313h.78V-.75c0 .438-.109.438-.765.438V0c.39-.016.86-.031 1.125-.031.406 0 .875 0 1.265.031v-.313h-.203c-.734 0-.75-.109-.75-.468v-3.203h1.125v-.313zm0 0"/></symbol><symbol id="bz" overflow="visible"><path d="M3.781-.61v1.782c0 .453-.11.453-.765.453v.313c.328-.016.859-.032 1.109-.032.266 0 .781.016 1.125.032v-.313c-.672 0-.781 0-.781-.453v-5.578H4.25l-.375.906c-.125-.281-.531-.906-1.328-.906-1.156 0-2.203.968-2.203 2.265 0 1.25.969 2.25 2.125 2.25.687 0 1.094-.421 1.312-.718zm.031-2.156v1.407c0 .328-.171.609-.39.843a1.271 1.271 0 0 1-.922.407c-.719 0-1.328-.891-1.328-2.032 0-1.187.687-2.015 1.437-2.015.797 0 1.204.86 1.204 1.39zm0 0"/></symbol><symbol id="bA" overflow="visible"><path d="M3.89-.781v.89L5.329 0v-.313c-.687 0-.766-.062-.766-.562v-3.531l-1.468.11v.312c.687 0 .781.062.781.562v1.766c0 .875-.484 1.547-1.219 1.547-.828 0-.875-.47-.875-.985v-3.312l-1.468.11v.312c.78 0 .78.03.78.906v1.5c0 .781 0 1.687 1.516 1.687.563 0 1-.28 1.282-.89zm0 0"/></symbol><symbol id="bB" overflow="visible"><path d="M1.094-3.422V-.75c0 .438-.11.438-.782.438V0c.36-.016.86-.031 1.141-.031.25 0 .766.015 1.11.031v-.313c-.672 0-.782 0-.782-.437v-1.844c0-1.031.719-1.594 1.344-1.594.64 0 .75.532.75 1.11V-.75c0 .438-.11.438-.781.438V0c.344-.016.86-.031 1.125-.031.25 0 .781.015 1.11.031v-.313c-.516 0-.766 0-.766-.296v-1.907c0-.859 0-1.156-.313-1.515-.14-.172-.469-.375-1.047-.375-.734 0-1.203.422-1.484 1.047v-1.047l-1.407.11v.312c.704 0 .782.062.782.562zm0 0"/></symbol><symbol id="bC" overflow="visible"><path d="M3.89-4c.094-.11.094-.125.094-.172 0-.125-.093-.125-.265-.125H.53l-.11 1.61h.25c.063-1.016.25-1.391 1.345-1.391h1.14L.375-.312c-.094.109-.094.124-.094.171C.281 0 .344 0 .531 0h3.297L4-1.86h-.25C3.656-.686 3.453-.25 2.297-.25H1.109zm0 0"/></symbol><symbol id="bD" overflow="visible"><path d="M2.75-1.86v-.577H.11v.578zm0 0"/></symbol><symbol id="bE" overflow="visible"><path d="M6.172-3.344c.172-.5.484-.64.844-.64v-.313c-.235.016-.516.031-.735.031-.297 0-.734-.015-.922-.03v.312c.36 0 .579.187.579.468 0 .063 0 .094-.063.22L4.969-.75l-.985-2.781c-.03-.125-.046-.14-.046-.188 0-.265.39-.265.593-.265v-.313a25.02 25.02 0 0 1-1.047.031c-.296 0-.578-.015-.875-.03v.312c.36 0 .516.015.625.14.047.063.157.36.22.547L2.608-.875l-.953-2.656c-.047-.125-.047-.14-.047-.188 0-.265.391-.265.579-.265v-.313c-.297.016-.86.031-1.079.031-.046 0-.578-.015-.937-.03v.312c.5 0 .625.03.75.343l1.25 3.532c.047.14.078.218.203.218.14 0 .156-.062.203-.203l1.016-2.812L4.609-.078c.032.11.063.187.204.187.125 0 .156-.093.187-.187zm0 0"/></symbol><symbol id="bF" overflow="visible"><path d="M1.766-6.922l-1.438.11v.312c.703 0 .781.063.781.563V-.75c0 .438-.109.438-.78.438V0c.327-.016.859-.031 1.109-.031s.734.015 1.109.031v-.313c-.672 0-.781 0-.781-.437zm0 0"/></symbol></defs><use height="100%" width="100%" y="83.403" x="118.801" xlink:href="#bt"/><use height="100%" width="100%" y="83.403" x="126.273" xlink:href="#bu"/><use height="100%" width="100%" y="83.403" x="129.041" xlink:href="#bv"/><use height="100%" width="100%" y="83.403" x="133.468" xlink:href="#bw"/><use height="100%" width="100%" y="83.403" x="139.003" xlink:href="#bv"/><use height="100%" width="100%" y="83.403" x="143.431" xlink:href="#bx"/><use height="100%" width="100%" y="83.403" x="147.333" xlink:href="#by"/><use height="100%" width="100%" y="83.403" x="150.377" xlink:href="#bx"/><use height="100%" width="100%" y="83.403" x="154.28" xlink:href="#bv"/><use height="100%" width="100%" y="83.403" x="158.707" xlink:href="#bz"/><use height="100%" width="100%" y="83.403" x="163.965" xlink:href="#bA"/><use height="100%" width="100%" y="83.403" x="169.501" xlink:href="#bv"/><use height="100%" width="100%" y="83.403" x="173.928" xlink:href="#bB"/><use height="100%" width="100%" y="83.403" x="179.463" xlink:href="#bC"/><use height="100%" width="100%" y="83.403" x="183.891" xlink:href="#bD"/><use height="100%" width="100%" y="95.359" x="118.801" xlink:href="#bE"/><use height="100%" width="100%" y="95.359" x="125.717" xlink:href="#bv"/><use height="100%" width="100%" y="95.359" x="130.144" xlink:href="#bF"/><use height="100%" width="100%" y="95.359" x="132.912" xlink:href="#bF"/><use height="100%" width="100%" y="95.359" x="135.68" xlink:href="#bv"/><use height="100%" width="100%" y="95.359" x="140.107" xlink:href="#bB"/></g><g ns0:text="Gamma-\\\\\nstrahlen" ns0:preamble="/home/waldgeist/data/homepage/inkscape-preamble.tex" transform="matrix(1.82187 0 0 1.8225 -121.647 293.889)" stroke-width="1.646"><defs><symbol overflow="visible" id="bG"><path d="M5.906-.625c.14.219.532.61.64.61.095 0 .095-.079.095-.22v-1.734c0-.39.03-.437.687-.437v-.313c-.375 0-.922.031-1.219.031-.39 0-1.25 0-1.609-.03v.312h.328c.89 0 .922.11.922.469v.64c0 1.125-1.266 1.203-1.547 1.203-.64 0-2.625-.344-2.625-3.312 0-2.985 1.969-3.313 2.563-3.313 1.078 0 1.984.89 2.171 2.36.032.14.032.171.172.171.157 0 .157-.03.157-.234v-2.36c0-.171 0-.25-.11-.25-.047 0-.078 0-.156.126l-.5.734c-.328-.312-.86-.86-1.844-.86-1.86 0-3.468 1.579-3.468 3.626C.563-1.36 2.155.219 4.046.219c.734 0 1.531-.266 1.86-.844zm0 0"/></symbol><symbol overflow="visible" id="bH"><path d="M3.313-.75c.046.39.312.813.78.813.22 0 .829-.141.829-.954v-.562h-.25v.562c0 .579-.25.641-.36.641-.328 0-.375-.453-.375-.5v-1.984c0-.422 0-.813-.359-1.188a1.9 1.9 0 0 0-1.36-.547C1.391-4.469.703-4 .703-3.344c0 .297.203.469.469.469a.435.435 0 0 0 .453-.453c0-.125-.047-.453-.516-.453.282-.36.766-.469 1.079-.469.5 0 1.062.39 1.062 1.281v.36c-.516.03-1.203.062-1.828.359-.75.344-1 .86-1 1.297 0 .812.969 1.062 1.594 1.062A1.38 1.38 0 0 0 3.312-.75zM3.25-2.39v1c0 .937-.719 1.28-1.172 1.28-.484 0-.89-.343-.89-.843 0-.547.421-1.375 2.062-1.438zm0 0"/></symbol><symbol overflow="visible" id="bI"><path d="M1.094-3.422V-.75c0 .438-.11.438-.782.438V0c.36-.016.86-.031 1.141-.031.25 0 .766.015 1.11.031v-.313c-.672 0-.782 0-.782-.437v-1.844c0-1.031.719-1.594 1.344-1.594.64 0 .75.532.75 1.11V-.75c0 .438-.11.438-.781.438V0c.344-.016.86-.031 1.125-.031.25 0 .781.015 1.11.031v-.313c-.657 0-.766 0-.766-.437v-1.844c0-1.031.703-1.594 1.343-1.594.625 0 .735.532.735 1.11V-.75c0 .438-.11.438-.782.438V0c.344-.016.86-.031 1.125-.031.266 0 .782.015 1.125.031v-.313c-.515 0-.765 0-.78-.296v-1.907c0-.859 0-1.156-.313-1.515-.141-.172-.47-.375-1.047-.375-.828 0-1.282.593-1.438.984-.14-.875-.875-.984-1.328-.984-.734 0-1.203.422-1.484 1.047v-1.047l-1.407.11v.312c.704 0 .782.062.782.562zm0 0"/></symbol><symbol overflow="visible" id="bJ"><path d="M2.75-1.86v-.577H.11v.578zm0 0"/></symbol><symbol overflow="visible" id="bK"><path d="M2.078-1.938c.219.047 1.031.204 1.031.922 0 .5-.343.907-1.125.907-.843 0-1.203-.563-1.39-1.422-.031-.125-.031-.157-.14-.157-.126 0-.126.063-.126.235v1.328c0 .172 0 .234.11.234C.483.11.5.094.688-.094.703-.109.703-.125.89-.312c.437.406.89.421 1.093.421 1.141 0 1.61-.671 1.61-1.39 0-.516-.297-.828-.422-.938-.328-.328-.719-.406-1.14-.484-.563-.11-1.22-.235-1.22-.813 0-.359.25-.765 1.11-.765 1.094 0 1.156.906 1.172 1.203 0 .094.094.094.11.094.14 0 .14-.047.14-.235v-1.015c0-.157 0-.235-.11-.235-.046 0-.078 0-.203.125a1.676 1.676 0 0 1-.172.157c-.375-.282-.78-.282-.937-.282-1.219 0-1.594.672-1.594 1.235 0 .343.156.625.422.843.328.25.61.313 1.328.454zm0 0"/></symbol><symbol overflow="visible" id="bL"><path d="M1.719-3.984h1.437v-.313H1.72v-1.828h-.25c0 .813-.297 1.875-1.282 1.922v.219h.844v2.75c0 1.218.938 1.343 1.297 1.343.703 0 .985-.703.985-1.343v-.563h-.25v.547c0 .734-.297 1.11-.672 1.11-.672 0-.672-.907-.672-1.079zm0 0"/></symbol><symbol overflow="visible" id="bM"><path d="M1.672-3.313v-1.093l-1.39.11v.312c.702 0 .78.062.78.562V-.75c0 .438-.109.438-.78.438V0c.39-.016.859-.031 1.14-.031.39 0 .86 0 1.266.031v-.313h-.22c-.734 0-.75-.109-.75-.468v-1.531c0-.985.423-1.876 1.173-1.876.062 0 .093 0 .109.016-.031 0-.234.125-.234.39 0 .266.218.423.437.423a.421.421 0 0 0 .422-.438c0-.312-.313-.61-.734-.61-.735 0-1.094.673-1.22 1.095zm0 0"/></symbol><symbol overflow="visible" id="bN"><path d="M1.094-.75c0 .438-.11.438-.782.438V0c.36-.016.86-.031 1.141-.031.25 0 .766.015 1.11.031v-.313c-.672 0-.782 0-.782-.437v-1.844c0-1.031.719-1.594 1.344-1.594.64 0 .75.532.75 1.11V-.75c0 .438-.11.438-.781.438V0c.344-.016.86-.031 1.125-.031.25 0 .781.015 1.11.031v-.313c-.516 0-.766 0-.766-.296v-1.907c0-.859 0-1.156-.313-1.515-.14-.172-.469-.375-1.047-.375-.844 0-1.281.593-1.453.984v-3.5l-1.438.11v.312c.704 0 .782.063.782.563zm0 0"/></symbol><symbol overflow="visible" id="bO"><path d="M1.766-6.922l-1.438.11v.312c.703 0 .781.063.781.563V-.75c0 .438-.109.438-.78.438V0c.327-.016.859-.031 1.109-.031s.734.015 1.109.031v-.313c-.672 0-.781 0-.781-.437zm0 0"/></symbol><symbol overflow="visible" id="bP"><path d="M1.11-2.516C1.171-4 2.015-4.25 2.36-4.25c1.015 0 1.124 1.344 1.124 1.734zm0 .22h2.78c.22 0 .25 0 .25-.22 0-.984-.546-1.953-1.78-1.953-1.158 0-2.08 1.032-2.08 2.282C.281-.86 1.328.108 2.47.108 3.688.11 4.14-1 4.14-1.187c0-.094-.079-.125-.141-.125-.078 0-.11.062-.125.14C3.531-.14 2.625-.14 2.531-.14c-.5 0-.89-.296-1.125-.671-.297-.47-.297-1.125-.297-1.485zm0 0"/></symbol><symbol overflow="visible" id="bQ"><path d="M1.094-3.422V-.75c0 .438-.11.438-.782.438V0c.36-.016.86-.031 1.141-.031.25 0 .766.015 1.11.031v-.313c-.672 0-.782 0-.782-.437v-1.844c0-1.031.719-1.594 1.344-1.594.64 0 .75.532.75 1.11V-.75c0 .438-.11.438-.781.438V0c.344-.016.86-.031 1.125-.031.25 0 .781.015 1.11.031v-.313c-.516 0-.766 0-.766-.296v-1.907c0-.859 0-1.156-.313-1.515-.14-.172-.469-.375-1.047-.375-.734 0-1.203.422-1.484 1.047v-1.047l-1.407.11v.312c.704 0 .782.062.782.562zm0 0"/></symbol></defs><use height="100%" width="100%" xlink:href="#bG" x="118.801" y="83.403"/><use height="100%" width="100%" xlink:href="#bH" x="126.619" y="83.403"/><use height="100%" width="100%" xlink:href="#bI" x="131.6" y="83.403"/><use height="100%" width="100%" xlink:href="#bI" x="139.902" y="83.403"/><use height="100%" width="100%" xlink:href="#bH" x="148.204" y="83.403"/><use height="100%" width="100%" xlink:href="#bJ" x="153.185" y="83.403"/><use height="100%" width="100%" xlink:href="#bK" x="118.801" y="95.359"/><use height="100%" width="100%" xlink:href="#bL" x="122.73" y="95.359"/><use height="100%" width="100%" xlink:href="#bM" x="126.605" y="95.359"/><use height="100%" width="100%" xlink:href="#bH" x="130.507" y="95.359"/><use height="100%" width="100%" xlink:href="#bN" x="135.488" y="95.359"/><use height="100%" width="100%" xlink:href="#bO" x="141.024" y="95.359"/><use height="100%" width="100%" xlink:href="#bP" x="143.791" y="95.359"/><use height="100%" width="100%" xlink:href="#bQ" x="148.219" y="95.359"/></g><path d="M69.313 268.42l245.836 57.878m351.449-57.878L420.76 326.298" style="isolation:auto;mix-blend-mode:normal" color="#000" overflow="visible" fill="none" stroke="#666" stroke-linecap="round" stroke-linejoin="round"/><path fill="#fff" stroke="#666" stroke-width="1.89" stroke-linecap="round" stroke-linejoin="round" d="M315.149 326.298H420.76v62.026H315.149z"/><g ns0:text="\\centering \nSichtbares\\\\\nLicht" ns0:preamble="/home/waldgeist/data/homepage/inkscape-preamble.tex" transform="matrix(1.82187 0 0 1.8225 -353.708 197.253)" stroke-width="1.646"><defs><symbol overflow="visible" id="bR"><path d="M3.484-3.875l-1.28-.297c-.626-.156-1-.687-1-1.266 0-.703.53-1.312 1.312-1.312 1.656 0 1.875 1.64 1.937 2.078.016.063.016.125.125.125.125 0 .125-.047.125-.234v-2c0-.172 0-.25-.11-.25-.062 0-.077.015-.14.14l-.36.563c-.296-.297-.702-.703-1.593-.703-1.11 0-1.938.875-1.938 1.937 0 .828.532 1.563 1.297 1.828.11.032.625.157 1.329.329.265.062.562.14.843.5.203.265.313.593.313.921 0 .704-.5 1.422-1.344 1.422-.281 0-1.047-.047-1.578-.531-.578-.547-.61-1.172-.61-1.531-.015-.11-.093-.11-.125-.11-.125 0-.125.079-.125.25v2c0 .172 0 .235.11.235.062 0 .078-.016.14-.125 0-.016.032-.047.36-.578.312.343.953.703 1.844.703 1.156 0 1.953-.969 1.953-2.078 0-.985-.657-1.813-1.485-2.016zm0 0"/></symbol><symbol overflow="visible" id="bS"><path d="M1.766-4.406l-1.391.11v.312c.64 0 .734.062.734.546V-.75c0 .438-.109.438-.78.438V0c.312-.016.859-.031 1.093-.031.36 0 .703.015 1.047.031v-.313c-.672 0-.703-.046-.703-.437zm.03-1.735a.514.514 0 0 0-.515-.53.537.537 0 0 0-.531.53c0 .266.219.532.531.532a.514.514 0 0 0 .516-.532zm0 0"/></symbol><symbol overflow="visible" id="bT"><path d="M1.172-2.172c0-1.625.812-2.047 1.344-2.047.093 0 .718.016 1.062.375-.406.031-.469.328-.469.453 0 .266.188.454.454.454.265 0 .468-.157.468-.47 0-.671-.765-1.062-1.531-1.062C1.25-4.469.344-3.39.344-2.156c0 1.281.984 2.265 2.14 2.265 1.329 0 1.657-1.203 1.657-1.296 0-.094-.11-.094-.141-.094-.078 0-.11.031-.125.093C3.594-.265 2.937-.14 2.578-.14c-.531 0-1.406-.421-1.406-2.03zm0 0"/></symbol><symbol overflow="visible" id="bU"><path d="M1.094-.75c0 .438-.11.438-.782.438V0c.36-.016.86-.031 1.141-.031.25 0 .766.015 1.11.031v-.313c-.672 0-.782 0-.782-.437v-1.844c0-1.031.719-1.594 1.344-1.594.64 0 .75.532.75 1.11V-.75c0 .438-.11.438-.781.438V0c.344-.016.86-.031 1.125-.031.25 0 .781.015 1.11.031v-.313c-.516 0-.766 0-.766-.296v-1.907c0-.859 0-1.156-.313-1.515-.14-.172-.469-.375-1.047-.375-.844 0-1.281.593-1.453.984v-3.5l-1.438.11v.312c.704 0 .782.063.782.563zm0 0"/></symbol><symbol overflow="visible" id="bV"><path d="M1.719-3.984h1.437v-.313H1.72v-1.828h-.25c0 .813-.297 1.875-1.282 1.922v.219h.844v2.75c0 1.218.938 1.343 1.297 1.343.703 0 .985-.703.985-1.343v-.563h-.25v.547c0 .734-.297 1.11-.672 1.11-.672 0-.672-.907-.672-1.079zm0 0"/></symbol><symbol overflow="visible" id="bW"><path d="M1.719-3.766v-3.156l-1.438.11v.312c.703 0 .781.063.781.563V0h.25c0-.016.079-.156.36-.625.14.234.562.734 1.297.734 1.187 0 2.219-.984 2.219-2.265 0-1.266-.97-2.25-2.11-2.25-.781 0-1.203.468-1.36.64zM1.75-1.14v-2.046c0-.188 0-.204.11-.36.39-.562.937-.64 1.171-.64.453 0 .813.265 1.047.64.266.406.281.969.281 1.39 0 .36-.015.954-.296 1.407-.22.313-.594.64-1.125.64-.454 0-.813-.234-1.047-.609-.141-.203-.141-.234-.141-.422zm0 0"/></symbol><symbol overflow="visible" id="bX"><path d="M3.313-.75c.046.39.312.813.78.813.22 0 .829-.141.829-.954v-.562h-.25v.562c0 .579-.25.641-.36.641-.328 0-.375-.453-.375-.5v-1.984c0-.422 0-.813-.359-1.188a1.9 1.9 0 0 0-1.36-.547C1.391-4.469.703-4 .703-3.344c0 .297.203.469.469.469a.435.435 0 0 0 .453-.453c0-.125-.047-.453-.516-.453.282-.36.766-.469 1.079-.469.5 0 1.062.39 1.062 1.281v.36c-.516.03-1.203.062-1.828.359-.75.344-1 .86-1 1.297 0 .812.969 1.062 1.594 1.062A1.38 1.38 0 0 0 3.312-.75zM3.25-2.39v1c0 .937-.719 1.28-1.172 1.28-.484 0-.89-.343-.89-.843 0-.547.421-1.375 2.062-1.438zm0 0"/></symbol><symbol overflow="visible" id="bY"><path d="M1.672-3.313v-1.093l-1.39.11v.312c.702 0 .78.062.78.562V-.75c0 .438-.109.438-.78.438V0c.39-.016.859-.031 1.14-.031.39 0 .86 0 1.266.031v-.313h-.22c-.734 0-.75-.109-.75-.468v-1.531c0-.985.423-1.876 1.173-1.876.062 0 .093 0 .109.016-.031 0-.234.125-.234.39 0 .266.218.423.437.423a.421.421 0 0 0 .422-.438c0-.312-.313-.61-.734-.61-.735 0-1.094.673-1.22 1.095zm0 0"/></symbol><symbol overflow="visible" id="bZ"><path d="M1.11-2.516C1.171-4 2.015-4.25 2.36-4.25c1.015 0 1.124 1.344 1.124 1.734zm0 .22h2.78c.22 0 .25 0 .25-.22 0-.984-.546-1.953-1.78-1.953-1.158 0-2.08 1.032-2.08 2.282C.281-.86 1.328.108 2.47.108 3.688.11 4.14-1 4.14-1.187c0-.094-.079-.125-.141-.125-.078 0-.11.062-.125.14C3.531-.14 2.625-.14 2.531-.14c-.5 0-.89-.296-1.125-.671-.297-.47-.297-1.125-.297-1.485zm0 0"/></symbol><symbol overflow="visible" id="ca"><path d="M2.078-1.938c.219.047 1.031.204 1.031.922 0 .5-.343.907-1.125.907-.843 0-1.203-.563-1.39-1.422-.031-.125-.031-.157-.14-.157-.126 0-.126.063-.126.235v1.328c0 .172 0 .234.11.234C.483.11.5.094.688-.094.703-.109.703-.125.89-.312c.437.406.89.421 1.093.421 1.141 0 1.61-.671 1.61-1.39 0-.516-.297-.828-.422-.938-.328-.328-.719-.406-1.14-.484-.563-.11-1.22-.235-1.22-.813 0-.359.25-.765 1.11-.765 1.094 0 1.156.906 1.172 1.203 0 .094.094.094.11.094.14 0 .14-.047.14-.235v-1.015c0-.157 0-.235-.11-.235-.046 0-.078 0-.203.125a1.676 1.676 0 0 1-.172.157c-.375-.282-.78-.282-.937-.282-1.219 0-1.594.672-1.594 1.235 0 .343.156.625.422.843.328.25.61.313 1.328.454zm0 0"/></symbol><symbol overflow="visible" id="cb"><path d="M5.797-2.578h-.25c-.11 1.015-.25 2.265-2 2.265h-.813c-.468 0-.484-.062-.484-.39v-5.313c0-.343 0-.484.938-.484h.328v-.313c-.36.032-1.266.032-1.672.032-.39 0-1.172 0-1.516-.032v.313h.234c.766 0 .797.11.797.469v5.25c0 .36-.03.469-.796.469H.328V0h5.188zm0 0"/></symbol></defs><use height="100%" width="100%" xlink:href="#bR" x="373.819" y="83.403"/><use height="100%" width="100%" xlink:href="#bS" x="379.354" y="83.403"/><use height="100%" width="100%" xlink:href="#bT" x="382.122" y="83.403"/><use height="100%" width="100%" xlink:href="#bU" x="386.27" y="83.403"/><use height="100%" width="100%" xlink:href="#bV" x="391.527" y="83.403"/><use height="100%" width="100%" xlink:href="#bW" x="395.401" y="83.403"/><use height="100%" width="100%" xlink:href="#bX" x="400.936" y="83.403"/><use height="100%" width="100%" xlink:href="#bY" x="405.918" y="83.403"/><use height="100%" width="100%" xlink:href="#bZ" x="409.82" y="83.403"/><use height="100%" width="100%" xlink:href="#ca" x="414.247" y="83.403"/><use height="100%" width="100%" xlink:href="#cb" x="384.861" y="95.359"/><use height="100%" width="100%" xlink:href="#bS" x="391.088" y="95.359"/><use height="100%" width="100%" xlink:href="#bT" x="393.855" y="95.359"/><g><use height="100%" width="100%" xlink:href="#bU" x="398.004" y="95.359"/></g><g><use height="100%" width="100%" xlink:href="#bV" x="403.26" y="95.359"/></g></g></svg>