<svg xmlns="http://www.w3.org/2000/svg" xmlns:xlink="http://www.w3.org/1999/xlink" width="210mm" height="297mm"><title>Spiegelung einer Kerze (gegenueber stehende Spiegel)</title><defs><linearGradient id="a"><stop offset="0" stop-color="#f95"/><stop offset="1" stop-color="#fffb36"/></linearGradient><radialGradient xlink:href="#a" id="b" gradientUnits="userSpaceOnUse" gradientTransform="matrix(.2015 0 0 .5106 1968.41 2303.543)" cx="-7817.805" cy="-2897.761" fx="-7817.805" fy="-2897.761" r="29.799"/></defs><path style="marker:none" color="#000" fill="#fff" stroke="#fff" stroke-linecap="round" overflow="visible" d="M38.366 360.996h667.362v330.37H38.366z"/><g transform="translate(-922.36 -2235.925) scale(3.29426)" stroke="#501616"><path fill="#666" stroke-width=".152" stroke-linejoin="round" d="M392.419 829.717h1.018v10.82h-1.018z"/><rect y="840.121" x="385.6" height="33.945" width="14.655" ry="1.485" fill="#782121" stroke-width=".304" stroke-linecap="round" stroke-linejoin="round"/><path d="M394.786 832.282a6.677 6.677 0 0 1-5.556-1.574 6.677 6.677 0 0 1-2.17-5.352c.09-1.295.563-2.536 1.156-3.69.594-1.155 1.312-2.241 1.94-3.377a25.142 25.142 0 0 0 2.795-16.099 547.629 547.629 0 0 0 4.812 17.962c.49 1.712.991 3.44 1.076 5.22.085 1.778-.286 3.64-1.385 5.041a5.642 5.642 0 0 1-2.668 1.87" fill="url(#b)" stroke-width=".152"/></g><g stroke="#000" stroke-width=".228" stroke-linejoin="round"><path transform="matrix(.08611 2.07294 -2.31976 .07695 -359.809 -938.414)" fill="#b3b3b3" d="M661.278-180.409h106.794v3.58H661.278z"/><path transform="matrix(.08611 2.07294 -2.31976 .07695 -359.809 -938.414)" d="M661.278-176.828h106.794v3.58H661.278z"/></g><g stroke="#000" stroke-width=".228" stroke-linejoin="round"><path transform="matrix(-.08611 2.07294 2.31976 .07695 1103.903 -938.414)" fill="#b3b3b3" d="M661.278-180.409h106.794v3.58H661.278z"/><path transform="matrix(-.08611 2.07294 2.31976 .07695 1103.903 -938.414)" d="M661.278-176.828h106.794v3.58H661.278z"/></g><g stroke="#000" stroke-width=".34" stroke-linejoin="round"><path transform="matrix(.03947 .93308 -2.31425 .08286 -328.01 -183.627)" fill="#b3b3b3" d="M661.278-180.409h106.794v3.58H661.278z"/><path transform="matrix(.03947 .93308 -2.31425 .08286 -328.01 -183.627)" d="M661.278-176.828h106.794v3.58H661.278z"/></g><g stroke="#000" stroke-width=".338" stroke-linejoin="round"><path transform="matrix(-.03985 .93308 2.3369 .08286 1076.467 -183.595)" fill="#b3b3b3" d="M661.278-180.409h106.794v3.58H661.278z"/><path transform="matrix(-.03985 .93308 2.3369 .08286 1076.467 -183.595)" d="M661.278-176.828h106.794v3.58H661.278z"/></g><path style="marker:none" color="#000" fill="#e6e6e6" stroke="gray" stroke-width="3" stroke-linecap="round" stroke-linejoin="round" overflow="visible" opacity=".5" d="M100.91 519.066h542.274v124.41H100.91z"/><path style="marker:none" color="#000" fill="none" stroke="gray" stroke-width="3" stroke-linecap="round" stroke-linejoin="round" overflow="visible" d="M100.91 519.066h542.274v124.41H100.91z"/></svg>