<svg xmlns="http://www.w3.org/2000/svg" xmlns:xlink="http://www.w3.org/1999/xlink" width="210mm" height="297mm"><title>Spiegelung einer Kerze (zueinander senkrecht stehende Spiegel)</title><defs><linearGradient id="b"><stop offset="0" stop-color="#fff"/><stop offset="1" stop-color="#fffbff" stop-opacity=".549"/></linearGradient><linearGradient id="a"><stop offset="0" stop-color="#f95"/><stop offset="1" stop-color="#fffb36"/></linearGradient><radialGradient xlink:href="#a" id="e" cx="299.55" cy="417.452" fx="299.55" fy="417.452" r="24.454" gradientUnits="userSpaceOnUse"/><filter id="f" x="-.168" width="1.336" y="-.168" height="1.336"><feGaussianBlur stdDeviation="3.379"/></filter><radialGradient xlink:href="#b" id="c" gradientUnits="userSpaceOnUse" cx="301.861" cy="419.763" fx="301.861" fy="419.763" r="24.454" gradientTransform="matrix(1.41541 0 0 1.1901 -125.397 -79.797)"/><filter id="d" x="-.408" width="1.816" y="-.408" height="1.816"><feGaussianBlur stdDeviation="8.207"/></filter></defs><path style="marker:none" color="#000" fill="#fff" stroke="#fff" stroke-linecap="round" overflow="visible" enable-background="accumulate" d="M38.366 360.996h667.362v330.37H38.366z"/><rect style="marker:none" width="414.042" height="300.37" x="165.026" y="375.996" rx="9.446" ry="9.446" color="#000" fill="#e6e6e6" stroke="#4d4d4d" stroke-width=".5" stroke-linecap="round" stroke-linejoin="round" overflow="visible" enable-background="accumulate"/><g stroke="#000" stroke-width=".228" stroke-linejoin="round"><path transform="matrix(2.07473 .0009 -.01839 -2.32096 -1102.67 1.323)" fill="#b3b3b3" d="M661.278-180.409h106.794v3.58H661.278z"/><path transform="matrix(2.07473 .0009 -.01839 -2.32096 -1102.67 1.323)" d="M661.278-176.828h106.794v3.58H661.278z"/></g><path style="marker:none" d="M323.952 416.77a24.139 24.139 0 1 1-48.278 0 24.139 24.139 0 1 1 48.278 0z" transform="matrix(4.5966 0 0 4.5966 -994.78 -1378.234)" color="#000" fill="url(#c)" overflow="visible" enable-background="accumulate" filter="url(#d)"/><path style="marker:none" d="M407.544 537.425a24.139 24.139 0 1 1-48.278 0 24.139 24.139 0 1 1 48.278 0z" color="#000" fill="#782121" stroke="#501616" stroke-linecap="round" stroke-linejoin="round" overflow="visible" enable-background="accumulate"/><g stroke="#000" stroke-width=".228" stroke-linejoin="round"><path transform="matrix(.0009 -2.07473 -2.32096 .01839 -152.794 2023.5)" fill="#b3b3b3" d="M661.278-180.409h106.794v3.58H661.278z"/><path transform="matrix(.0009 -2.07473 -2.32096 .01839 -152.794 2023.5)" d="M661.278-176.828h106.794v3.58H661.278z"/></g><path style="marker:none" d="M385.081 537.425a1.676 1.676 0 1 1-3.352 0 1.676 1.676 0 1 1 3.352 0z" opacity=".2" color="#000" fill="#fffc87" stroke="#501616" stroke-width=".5" stroke-linecap="round" stroke-linejoin="round" overflow="visible" enable-background="accumulate"/><path transform="matrix(.765 0 0 .765 153.98 218.594)" d="M323.952 416.77a24.139 24.139 0 1 1-48.278 0 24.139 24.139 0 1 1 48.278 0z" style="marker:none" color="#000" fill="url(#e)" stroke="#501616" stroke-width=".654" stroke-linecap="round" stroke-linejoin="round" overflow="visible" filter="url(#f)" enable-background="accumulate"/></svg>