<svg xmlns:ns0="http://www.iki.fi/pav/software/textext/" xmlns="http://www.w3.org/2000/svg" xmlns:xlink="http://www.w3.org/1999/xlink" width="210mm" height="297mm"><title>Spiegelung einer Kerze</title><defs><marker id="d" orient="auto" overflow="visible"><path transform="rotate(180) scale(.6)" d="M8.719 4.034L-2.207.016 8.719-4.002c-1.746 2.372-1.736 5.618 0 8.036z" fill-rule="evenodd" stroke-width=".625" stroke-linejoin="round"/></marker><marker id="c" orient="auto" overflow="visible"><path transform="scale(.6)" d="M8.719 4.034L-2.207.016 8.719-4.002c-1.746 2.372-1.736 5.618 0 8.036z" fill-rule="evenodd" stroke-width=".625" stroke-linejoin="round"/></marker><linearGradient id="a"><stop offset="0" stop-color="#f95"/><stop offset="1" stop-color="#fffb36"/></linearGradient><radialGradient xlink:href="#a" id="b" gradientUnits="userSpaceOnUse" gradientTransform="matrix(.2015 0 0 .5106 1968.41 2303.543)" cx="-7817.805" cy="-2897.761" fx="-7817.805" fy="-2897.761" r="29.799"/></defs><path style="marker:none" color="#000" fill="#fff" stroke="#fff" stroke-linecap="round" overflow="visible" d="M38.366 360.996h667.362v330.37H38.366z"/><path d="M140.534 648.324l476.98-122.728M140.534 653.176l476.98-122.738M126.58 633.542l471.979-114.754" fill="none" stroke="#520" stroke-linecap="round"/><path d="M155.006 636.365l-7.83-7.83M589.558 526.788l-8.919-3.643" fill="none" stroke="#784421" stroke-linecap="round"/><g stroke="#784421" stroke-linecap="round" fill="none"><path d="M173.9 631.6l-7.878-7.647M192.793 626.836l-7.925-7.465M211.687 622.072l-7.972-7.284M230.58 617.308l-8.02-7.102M249.474 612.544l-8.067-6.92M268.367 607.78l-8.114-6.738M287.26 603.015l-8.16-6.555M306.154 598.251l-8.208-6.373M325.048 593.487l-8.256-6.192M343.941 588.723l-8.303-6.01M362.835 583.959l-8.35-5.828M381.729 579.194l-8.398-5.645M400.622 574.43l-8.445-5.463M419.516 569.666l-8.493-5.281M438.41 564.902l-8.54-5.1M457.303 560.137l-8.588-4.917M476.196 555.373l-8.634-4.735M495.09 550.61l-8.682-4.554M513.983 545.845l-8.729-4.371M532.877 541.08l-8.777-4.188M551.77 536.316l-8.823-4.006M570.664 531.552l-8.871-3.825"/></g><path d="M598.559 518.788l18.956 6.798M617.515 530.438v-4.852" fill="none" stroke="#520" stroke-linecap="round"/><path d="M140.534 653.176v-4.852" fill="none" stroke="#520"/><path d="M140.534 648.324l-13.954-14.782M140.534 653.176l-13.954-14.781" fill="none" stroke="#520" stroke-linecap="round"/><path d="M126.58 638.395v-4.853" fill="none" stroke="#520"/><path d="M302.83 400.186l187.919 66.919V637.56l-187.92-102.09z" style="marker:none" color="#000" fill="none" stroke="#999" stroke-width="3" stroke-linecap="round" stroke-linejoin="round" overflow="visible"/><g transform="matrix(1.88244 0 0 1.88244 -585.578 -1039.862)" stroke="#501616"><path fill="#666" stroke-width=".266" stroke-linejoin="round" d="M392.419 829.717h1.018v10.82h-1.018z"/><rect y="840.121" x="385.6" height="33.945" width="14.655" ry="1.485" fill="#782121" stroke-width=".531" stroke-linecap="round" stroke-linejoin="round"/><path d="M394.786 832.282a6.677 6.677 0 0 1-5.556-1.574 6.677 6.677 0 0 1-2.17-5.352c.09-1.295.563-2.536 1.156-3.69.594-1.155 1.312-2.241 1.94-3.377a25.142 25.142 0 0 0 2.795-16.099 547.629 547.629 0 0 0 4.812 17.962c.49 1.712.991 3.44 1.076 5.22.085 1.778-.286 3.64-1.385 5.041a5.642 5.642 0 0 1-2.668 1.87" fill="url(#b)" stroke-width=".266"/></g><g transform="matrix(1.45446 0 0 1.45446 -44.926 -752.879)" stroke="#501616" stroke-linejoin="round"><path fill="#666" stroke-width=".344" d="M392.419 829.717h1.018v10.82h-1.018z"/><rect ry="1.485" width="14.655" height="33.945" x="385.6" y="840.121" fill="#782121" stroke-width=".688" stroke-linecap="round"/></g><path style="marker:none" d="M302.83 400.186l187.919 66.919V637.56l-187.92-102.09z" opacity=".1" color="#000" fill="#b3b3b3" overflow="visible"/><path d="M175.947 621.54l-15.214-13.278M553.377 529.774l-21.131-9.406" fill="none" stroke="green" stroke-linecap="round"/><path d="M366.131 567.438l175.02-41.965M170.004 614.5l189.857-45.523" fill="none" stroke="green" marker-start="url(#c)" marker-end="url(#d)"/><g ns0:preamble="/home/waldgeist/data/sphinx/inkscape-preamble.tex" ns0:text="$s$" transform="matrix(3 0 0 3 -415.642 183.255)" fill="green"><defs><symbol id="e" overflow="visible"><path d="M3.89-3.734c-.265.015-.468.234-.468.453 0 .14.094.297.312.297.22 0 .454-.172.454-.563 0-.453-.422-.86-1.188-.86-1.313 0-1.688 1.016-1.688 1.454 0 .781.735.922 1.032.984.515.11 1.031.219 1.031.766 0 .25-.219 1.094-1.422 1.094-.14 0-.906 0-1.14-.532.39.047.64-.25.64-.53 0-.22-.172-.345-.375-.345-.266 0-.562.204-.562.657 0 .562.578.968 1.421.968 1.625 0 2.016-1.203 2.016-1.656a.97.97 0 0 0-.312-.719c-.266-.28-.563-.343-1-.421-.36-.079-.75-.157-.75-.61 0-.281.234-.89 1.109-.89.25 0 .75.078.89.453z"/></symbol></defs><use y="134.765" x="223.432" xlink:href="#e" width="744.094" height="1052.362"/></g><use height="1052.362" width="744.094" xlink:href="#e" x="223.432" y="134.765" transform="matrix(3 0 0 3 -208.474 132.974)" ns0:text="$s$" ns0:preamble="/home/waldgeist/data/sphinx/inkscape-preamble.tex" fill="green"/></svg>