<svg xmlns:ns0="http://www.iki.fi/pav/software/textext/" xmlns="http://www.w3.org/2000/svg" xmlns:xlink="http://www.w3.org/1999/xlink" height="1052.362" width="744.094"><title>Herleitung der Abbildungsgleichung</title><defs><linearGradient id="a"><stop offset="0" stop-color="#f95"/><stop offset="1" stop-color="#fffb36"/></linearGradient><linearGradient id="b"><stop offset="0" stop-color="#f95"/><stop offset="1" stop-color="#fffb36"/></linearGradient><linearGradient id="c"><stop offset="0" stop-color="#f95"/><stop offset="1" stop-color="#fffb36"/></linearGradient><linearGradient id="d"><stop offset="0" stop-color="#f95"/><stop offset="1" stop-color="#fffb36"/></linearGradient><marker orient="auto" id="g" overflow="visible"><path d="M8.719 4.034L-2.207.016 8.719-4.002c-1.746 2.372-1.736 5.618 0 8.036z" transform="scale(-.6)" font-size="12" fill-rule="evenodd" stroke-width=".625" stroke-linejoin="round"/></marker><radialGradient xlink:href="#d" id="f" gradientUnits="userSpaceOnUse" gradientTransform="matrix(1 0 0 2.43119 1.301 4179.676)" cx="-7817.805" cy="-2897.761" fx="-7817.805" fy="-2897.761" r="29.799"/><radialGradient xlink:href="#d" id="e" gradientUnits="userSpaceOnUse" gradientTransform="matrix(1 0 0 2.43119 1.301 4179.676)" cx="-7817.805" cy="-2897.761" fx="-7817.805" fy="-2897.761" r="29.799"/></defs><rect style="marker:none" width="446.255" height="243.562" x="-595.175" y="-647.962" ry="2.654" transform="scale(-1)" color="#000" fill="#fff" stroke="#fff" stroke-width="2.396" stroke-linecap="round" stroke-linejoin="bevel" overflow="visible"/><use height="744.094" width="1052.362" xlink:href="#textext-66d16391-0" x="223.432" y="134.765" transform="matrix(2.67713 0 0 2.67713 -176.213 349.012)"/><use height="744.094" width="1052.362" xlink:href="#textext-66d16391-0" x="223.432" y="134.765" transform="matrix(2.67713 0 0 2.67713 67.276 349.104)"/><path style="marker:none" color="#000" fill="#f9f9f9" stroke="#f9f9f9" stroke-width=".427" stroke-linecap="round" stroke-dasharray="1.28196476,2.56392956" overflow="visible" d="M568.421 642.877H175.674V409.358h392.747z"/><path d="M537.795 526.118H204.781" opacity=".5" fill="none" stroke="#000" stroke-width=".878" stroke-dasharray=".8783078,1.75661553"/><g transform="matrix(-.2015 0 0 -.21002 -1107.907 -24.592)" opacity=".35" stroke="#501616" stroke-width="4.861"><path fill="#666" stroke-width="2.431" stroke-linejoin="round" d="M-7820.096-2837.776h5.051v51.518h-5.051z"/><rect ry="7.071" width="72.731" height="161.624" x="-7853.936" y="-2788.238" fill="#782121" stroke-linecap="round" stroke-linejoin="round"/><path d="M-7808.35-2825.562c-9.556 2.268-20.133-.305-27.58-6.71-7.446-6.404-11.573-16.478-10.76-26.266.516-6.203 2.875-12.12 5.811-17.609 2.936-5.489 6.463-10.64 9.557-16.04 13.163-22.974 18.147-50.526 13.867-76.655a4267.026 4267.026 0 0 0 23.88 85.526c2.368 8.15 4.776 16.387 5.173 24.865.396 8.477-1.414 17.355-6.704 23.99a26.672 26.672 0 0 1-13.243 8.9" fill="url(#e)" stroke-width="2.431"/></g><g transform="matrix(-.31402 0 0 .31264 -2228.38 1345.421)" opacity=".5" stroke="#501616" stroke-width="3.192" stroke-dasharray="3.19152245999999984,6.38304491999999968"><path fill="#666" stroke-linejoin="round" d="M-7820.096-2837.776h5.051v51.518h-5.051z"/><rect y="-2788.238" x="-7853.936" height="161.624" width="72.731" ry="7.071" fill="#782121" stroke-linecap="round" stroke-linejoin="round"/><path d="M-7808.35-2825.562c-9.556 2.268-20.133-.305-27.58-6.71-7.446-6.404-11.573-16.478-10.76-26.266.516-6.203 2.875-12.12 5.811-17.609 2.936-5.489 6.463-10.64 9.557-16.04 13.163-22.974 18.147-50.526 13.867-76.655a4267.026 4267.026 0 0 0 23.88 85.526c2.368 8.15 4.776 16.387 5.173 24.865.396 8.477-1.414 17.355-6.704 23.99a26.672 26.672 0 0 1-13.243 8.9" fill="url(#f)"/></g><g stroke="gray" stroke-width="1.562" stroke-linecap="round" opacity=".5" fill="#ececec"><path transform="matrix(-.95139 0 0 -1.72213 1385.377 1895.398)" d="M1065.972 735.76c21.202 36.724 21.202 81.97 0 118.694"/><path d="M1065.972 735.76c21.202 36.724 21.202 81.97 0 118.694" transform="matrix(.95139 0 0 -1.72213 -642.782 1895.398)"/></g><path d="M467.04 598.084l-95.743-71.966" opacity=".5" fill="none" stroke="#f60" stroke-width="1.5"/><g opacity=".5" stroke="#000" stroke-width="90.232" stroke-linecap="round"><path d="M485.225 526.118a2.02 2.02 0 1 1 4.039 0 2.02 2.02 0 0 1-4.04 0zM257.37 526.118a2.02 2.02 0 1 0-4.04 0 2.02 2.02 0 0 0 4.04 0z" stroke-width="1.53574864"/></g><g opacity=".5" stroke="#000" stroke-width="90.232" stroke-linecap="round"><path d="M427.251 526.118a2.02 2.02 0 1 1 4.04 0 2.02 2.02 0 0 1-4.04 0zM315.343 526.118a2.02 2.02 0 1 0-4.039 0 2.02 2.02 0 0 0 4.04 0z" stroke-width="1.53574864"/></g><path d="M371.297 526.118l-144.78-108.826" opacity=".5" fill="none" stroke="#d40000" stroke-width="1.5"/><path d="M371.371 598.063l-143.07-178.651" opacity=".5" fill="none" stroke="#d40000" stroke-width="1.5" stroke-linecap="round" marker-end="url(#g)"/><path d="M467.04 598.084l-94.182.123" opacity=".5" fill="none" stroke="#f60" stroke-width="1.5" marker-end="url(#g)"/><path d="M466.75 527.057l1.124 67.89M375.849 526.181h90.236" fill="none" stroke="#00f" stroke-width="8" stroke-linecap="round"/><path d="M226.175 526.118h141.762M226.065 526.118V420.41" fill="none" stroke="green" stroke-width="8" stroke-linecap="round"/><g ns0:text="$b$" ns0:preamble="/home/waldgeist/data/sphinx/inkscape-preamble.tex" transform="matrix(2.76452 0 0 2.76452 -203.087 141.71)" fill="#00f"><defs><symbol overflow="visible" id="h"><path d="M2.375-6.813s0-.109-.125-.109c-.219 0-.953.078-1.219.11-.078 0-.187.015-.187.187 0 .125.094.125.25.125.468 0 .484.063.484.172 0 .062-.078.406-.125.61l-.828 3.25c-.11.5-.156.671-.156 1.015C.469-.516 1 .109 1.734.109c1.172 0 2.407-1.484 2.407-2.921 0-.907-.532-1.594-1.329-1.594-.453 0-.874.297-1.171.593zm-.922 3.766c.047-.219.047-.234.14-.344.485-.64.938-.796 1.204-.796.36 0 .625.296.625.937 0 .594-.328 1.734-.516 2.11-.328.671-.781 1.03-1.172 1.03-.343 0-.671-.265-.671-1 0-.202 0-.39.156-1.015z"/></symbol></defs><use height="1052.362" width="744.094" xlink:href="#h" x="223.432" y="134.765"/></g><g transform="matrix(2.76452 0 0 2.76452 -136.395 197.857)" ns0:preamble="/home/waldgeist/data/sphinx/inkscape-preamble.tex" ns0:text="$B$" fill="#00f"><defs><symbol id="i" overflow="visible"><path d="M1.594-.781c-.094.39-.125.469-.907.469-.171 0-.265 0-.265.203C.422 0 .516 0 .688 0H4.25C5.828 0 7-1.172 7-2.156c0-.719-.578-1.297-1.547-1.406 1.031-.188 2.078-.922 2.078-1.876 0-.734-.656-1.375-1.843-1.375h-3.36c-.187 0-.281 0-.281.204 0 .109.094.109.281.109.016 0 .203 0 .375.016.172.03.266.03.266.171 0 .032-.016.063-.031.188zm1.5-2.875l.625-2.469c.094-.344.11-.375.531-.375h1.297c.875 0 1.078.594 1.078 1.031 0 .875-.86 1.813-2.063 1.813zM2.656-.312h-.219c-.109-.016-.14-.032-.14-.11 0-.031 0-.047.062-.219l.688-2.78h1.875c.953 0 1.156.733 1.156 1.155 0 .985-.89 1.954-2.078 1.954z"/></symbol></defs><use y="134.765" x="223.432" xlink:href="#i" width="744.094" height="1052.362"/></g><g ns0:text="$G$" ns0:preamble="/home/waldgeist/data/sphinx/inkscape-preamble.tex" transform="matrix(2.76452 0 0 2.76452 -430.587 110.12)" fill="green"><defs><symbol overflow="visible" id="j"><path d="M7.578-6.922c0-.031-.016-.11-.11-.11-.03 0-.046.016-.155.126l-.688.765c-.094-.14-.547-.89-1.656-.89C2.734-7.031.5-4.828.5-2.516.5-.922 1.61.22 3.219.22c.437 0 .89-.094 1.25-.235.5-.203.687-.406.86-.609.093.25.359.61.452.61.047 0 .078-.032.078-.032.016-.015.11-.406.157-.61l.187-.765.14-.516c.11-.437.11-.468.688-.468.047 0 .157-.016.157-.203 0-.079-.047-.11-.125-.11-.235 0-.829.031-1.047.031-.313 0-1.094-.03-1.407-.03-.078 0-.203 0-.203.202 0 .11.078.11.297.11.016 0 .297 0 .531.015.266.032.313.063.313.188 0 .094-.11.531-.219.906C5.047-.203 3.766-.094 3.406-.094c-.953 0-2-.562-2-2.094 0-.312.094-1.953 1.14-3.25.548-.671 1.517-1.28 2.5-1.28 1.016 0 1.61.765 1.61 1.921 0 .406-.031.406-.031.516 0 .093.11.093.14.093.126 0 .126-.015.188-.203z"/></symbol></defs><use height="1052.362" width="744.094" xlink:href="#j" x="223.432" y="134.765"/></g><g transform="matrix(2.76452 0 0 2.76452 -327.365 180.359)" ns0:preamble="/home/waldgeist/data/sphinx/inkscape-preamble.tex" ns0:text="$g$" fill="green"><defs><symbol id="k" overflow="visible"><path d="M4.688-3.766a.562.562 0 0 0 .03-.171c0-.172-.109-.266-.28-.266-.094 0-.375.062-.407.422-.187-.36-.531-.625-.937-.625-1.125 0-2.36 1.39-2.36 2.828C.734-.594 1.328 0 2.047 0c.594 0 1.062-.469 1.156-.578l.016.015C3.016.313 2.89.734 2.89.75c-.047.094-.375 1.078-1.438 1.078a2.68 2.68 0 0 1-.797-.11.542.542 0 0 0 .406-.515C1.063 1.047.954.86.688.86a.546.546 0 0 0-.53.579c0 .406.359.609 1.312.609 1.25 0 1.968-.781 2.125-1.375zM3.405-1.28c-.062.265-.297.515-.515.703-.204.172-.516.36-.813.36-.5 0-.64-.516-.64-.923 0-.468.28-1.656.562-2.156.266-.484.688-.89 1.11-.89.656 0 .796.812.796.859 0 .047-.015.11-.031.14z"/></symbol></defs><use y="134.765" x="223.432" xlink:href="#k" width="744.094" height="1052.362"/></g></svg>