<svg xmlns="http://www.w3.org/2000/svg" width="210mm" height="297mm"><title>Fata Morgana (Totalreflexion)</title><defs><marker id="a" orient="auto" overflow="visible"><path transform="scale(-.6)" d="M8.719 4.034L-2.207.016 8.719-4.002c-1.746 2.372-1.736 5.618 0 8.036z" font-size="12" fill-rule="evenodd" stroke-width=".625" stroke-linejoin="round"/></marker></defs><path d="M372.063 423.656c-191.04 0-345.938 8.18-345.938 13.344v94.688h103.906c62.391 1.652 147.77 2.656 242.031 2.656s179.61-1.004 242-2.657H717.97V433c0-5.163-154.866-9.344-345.907-9.344z" fill="#ececec" stroke="#e6e6e6" stroke-width="1.5" stroke-linejoin="round"/><path d="M372.063 469.656c-191.04 0-345.938 8.18-345.938 13.344v48.688h103.906c62.391 1.652 147.77 2.656 242.031 2.656s179.61-1.004 242-2.657H717.97V479c0-5.163-154.866-9.344-345.907-9.344z" fill="#f9f9f9" fill-opacity=".498" stroke="#ccc" stroke-width="1.5" stroke-linejoin="round"/><path d="M372.063 511.656c-191.04 0-345.938 8.18-345.938 13.344v6.688h103.906c62.391 1.652 147.77 2.656 242.031 2.656s179.61-1.004 242-2.657H717.97V521c0-5.163-154.866-9.344-345.907-9.344z" fill="gray" stroke="#666" stroke-width="1.5" stroke-linejoin="round"/><path d="M73.632 498.6c-.856 0-1.547.702-1.547 1.563 0 .86.69 1.555 1.547 1.555.855 0 1.554-.694 1.554-1.555 0-.86-.699-1.563-1.554-1.563zm-2.416 3.382c-.802 0-1.439.618-1.439 1.378v6.307c0 .964 1.385.964 1.385 0v-4.984h.492v14.207c0 .435.388.798.847.798a.798.798 0 0 0 .807-.798v-7.823h.647v7.823c0 .435.356.798.815.798.459 0 .846-.363.846-.798v-14.207h.485v4.984c0 .964 1.385.964 1.385 0v-6.307c0-.76-.637-1.378-1.439-1.378z"/><path d="M381.12 345.454l-329.614-65.14" fill="none" stroke="#d40000" stroke-width="3" stroke-linecap="round" marker-end="url(#a)"/><path d="M498.35 253.812l-189.459-38.027" fill="#f60" stroke="#d40000" stroke-width="3" stroke-linecap="round" stroke-dasharray="2.00000006,6.00000021"/><path d="M629.9 271.346l-188.1 36.592" fill="#f60" stroke="#f60" stroke-width="3" stroke-linecap="round" marker-end="url(#a)"/><path style="marker:none" color="#000" fill="#f9f9f9" stroke="#f9f9f9" stroke-width=".5" stroke-linecap="round" stroke-dasharray="1.50000015,3.00000033" overflow="visible" d="M26.138 606.918h691.818v93.111H26.138z"/><path fill="#ececec" stroke="#ccc" stroke-width="1.5" stroke-linejoin="round" d="M26.138 699.652h691.818v9.726H26.138z"/><path fill="gray" stroke="#666" stroke-width="1.5" stroke-linejoin="round" d="M26.138 709.378h691.818v6.677H26.138z"/><path d="M61.78 626.211c-3.342 0-6.039 2.743-6.039 6.105 0 3.361 2.697 6.074 6.04 6.074a6.073 6.073 0 0 0 6.068-6.074c0-3.362-2.727-6.105-6.069-6.105zm-9.434 13.211c-3.132 0-5.618 2.411-5.618 5.38v24.63c0 3.764 5.408 3.764 5.408 0v-19.463h1.923v55.485c0 1.699 1.512 3.113 3.304 3.113 1.793 0 3.155-1.415 3.155-3.113v-30.553h2.524v30.553c0 1.698 1.393 3.113 3.185 3.113s3.305-1.414 3.305-3.113V649.97h1.892v19.462c0 3.765 5.408 3.765 5.408 0v-24.63c0-2.968-2.486-5.379-5.618-5.379z"/><path d="M606.422 652.856c.539 1.048.47 2.424.952 3.504l-16.293 15.332-4.938-.01 18.4-17.2 1.88-1.626zm32.663 20.442c.056.126-2.099 12.157-2.006 11.964l-53.33-.043c-1.01 0-2.008-.38-3.06-.381a13.215 13.215 0 0 0-3.062.369l-26.044-.055.018-8.748 35.464-3.392 23.648.048 28.372.238zm-58.402 13.935c5.916.013 10.702 4.847 10.69 10.763-.013 5.917-4.818 10.703-10.734 10.69-5.917-.013-10.703-4.818-10.69-10.734.013-5.916 4.818-10.731 10.734-10.719zm30.835 1.017a64.68 64.68 0 0 1-1.93 11.978l-16.025-.032c.124-.72.205-1.468.206-2.223.008-3.888-1.684-7.36-4.368-9.768l22.117.046v-.001zm-39.557-.083a13.099 13.099 0 0 0-4.409 9.78c-.001.442.012.867.055 1.299l-10.393-.744-5.031-10.376 19.778.04v.001zm8.71 4.956c-2.668-.005-4.827 2.173-4.832 4.84a4.817 4.817 0 0 0 4.812 4.832 4.817 4.817 0 0 0 4.832-4.812c.004-2.667-2.145-4.855-4.812-4.86z" fill-rule="evenodd"/><path d="M650.372 652.913l18.193 19.223-15.746-.034-7.382-14.618-39.544-.103c.727-1.568-.283-3.084.564-4.58l43.915.113zm43.986 20.512l3.009 11.43-.145.687-33.067-.075a12.907 12.907 0 0 0-3.034-.38c-1.044-.002-2.035.375-3.035.366l-25.238-.222c-.006-.384 3.968-.587 3.969-.972.008-3.742.374-7.398.998-10.963l56.543.127v.002zm-33.242 14.04c5.866.013 10.61 4.807 10.597 10.674-.013 5.866-4.779 10.61-10.645 10.597-5.866-.013-10.61-4.779-10.598-10.645.013-5.866 4.78-10.64 10.646-10.626zm35.441 1.024l-2.313 10.273-20.36 1.557a13.18 13.18 0 0 0 .206-2.204c.008-3.854-1.669-7.298-4.33-9.686l26.797.06zm-44.118-.1a13.014 13.014 0 0 0-4.374 9.696c0 .749.105 1.462.225 2.177l-41.6-.024c-.088.167.324-12.043.501-12.042l45.248.196v-.002zm8.664 4.916c-2.645-.006-4.786 2.154-4.792 4.799a4.775 4.775 0 0 0 4.77 4.792 4.775 4.775 0 0 0 4.792-4.77c.006-2.646-2.125-4.815-4.77-4.821z" fill-rule="evenodd"/><path d="M625.734 672.077l-.075-14.602" fill="none" stroke="#000" stroke-width="2.16835296"/><g opacity=".5"><path d="M606.422 745.763c.539-1.048.47-2.424.952-3.504l-16.293-15.332-4.938.01 18.4 17.2 1.88 1.626zm32.663-20.442c.056-.126-2.099-12.157-2.006-11.964l-53.33.043c-1.01 0-2.008.38-3.06.381a13.215 13.215 0 0 1-3.062-.369l-26.044.055.018 8.748 35.464 3.392 23.648-.048 28.372-.238zm-58.402-13.935c5.916-.013 10.702-4.847 10.69-10.763-.013-5.917-4.818-10.703-10.734-10.69-5.917.013-10.703 4.818-10.69 10.734.013 5.916 4.818 10.731 10.734 10.719zm30.835-1.017a64.68 64.68 0 0 0-1.93-11.978l-16.025.032c.124.72.205 1.468.206 2.223.008 3.888-1.684 7.36-4.368 9.768l22.117-.046v.001zm-39.557.083a13.099 13.099 0 0 1-4.409-9.78c-.001-.442.012-.867.055-1.299l-10.393.744-5.031 10.376 19.778-.04v-.001zm8.71-4.956c-2.668.005-4.827-2.173-4.832-4.84a4.817 4.817 0 0 1 4.812-4.832 4.817 4.817 0 0 1 4.832 4.812c.004 2.667-2.145 4.855-4.812 4.86z" fill-rule="evenodd"/><path d="M650.372 745.706l18.193-19.223-15.746.034-7.382 14.618-39.544.103c.727 1.568-.283 3.084.564 4.58l43.915-.113v.001zm43.986-20.512l3.009-11.43-.145-.687-33.067.075c-.978.238-1.984.377-3.034.38-1.044.002-2.035-.375-3.035-.366l-25.238.222c-.006.384 3.968.587 3.969.972.008 3.742.374 7.398.998 10.963l56.543-.127v-.002zm-33.242-14.04c5.866-.013 10.61-4.807 10.597-10.674-.013-5.866-4.779-10.61-10.645-10.597-5.866.013-10.61 4.779-10.598 10.645.013 5.866 4.78 10.64 10.646 10.626zm35.441-1.024l-2.313-10.273-20.36-1.557c.123.713.204 1.455.206 2.204.008 3.854-1.669 7.298-4.33 9.686l26.797-.06zm-44.118.1a13.014 13.014 0 0 1-4.374-9.696c0-.749.105-1.462.225-2.177l-41.6.024c-.088-.167.324 12.043.501 12.042l45.248-.196v.002zm8.664-4.916c-2.645.006-4.786-2.154-4.792-4.799a4.775 4.775 0 0 1 4.77-4.792 4.775 4.775 0 0 1 4.792 4.77c.006 2.646-2.125 4.815-4.77 4.821z" fill-rule="evenodd"/><path d="M625.734 726.542l-.075 14.602" fill="none" stroke="#000" stroke-width="2.16835296"/></g><path d="M404.75 698.081L75.136 632.94" fill="none" stroke="#d40000" stroke-width="3" stroke-linecap="round" marker-end="url(#a)"/><path d="M594.587 736.555l-189.46-38.027" fill="#f60" stroke="#d40000" stroke-width="3" stroke-linecap="round" stroke-dasharray="2.00000006,6.00000021"/><path d="M596.666 661.05l-188.1 36.594" fill="#f60" stroke="#f60" stroke-width="3" stroke-linecap="round" marker-end="url(#a)"/></svg>