<svg xmlns="http://www.w3.org/2000/svg" width="210mm" height="297mm"><title>Der Bandgenerator</title><defs><marker orient="auto" id="a" overflow="visible"><path d="M8.719 4.034L-2.207.016 8.719-4.002c-1.746 2.372-1.736 5.618 0 8.036z" transform="rotate(180) scale(.6)" font-size="12" fill-rule="evenodd" stroke-width=".625" stroke-linejoin="round"/></marker></defs><path fill="#fff" stroke="#fff" stroke-linecap="round" d="M43.684 199.999h656.727v690.893H43.684z"/><rect ry="32.115" rx="32.115" y="299.324" x="285.893" height="546.661" width="64.231" fill="#e6e6e6" stroke="#000" stroke-linecap="round"/><rect width="23.321" height="103.353" x="462.915" y="674.473" rx="11.66" ry="11.66" fill="#e6e6e6" stroke="#333" stroke-width="2" stroke-linecap="round"/><rect ry="0" rx="0" y="805.89" x="91.783" height="42.481" width="560.528" fill="#999" stroke="#000" stroke-width=".945" stroke-linecap="round"/><rect ry="22.5" rx="22.5" y="342.4" x="295.508" height="354.788" width="45" fill="none" stroke="#000" stroke-width="4" stroke-linecap="round"/><rect width="366.554" height="55.639" x="164.195" y="749.586" rx="0" ry="0" fill="#e6e6e6" stroke="#000" stroke-linecap="round"/><path style="text-indent:0;text-align:start;line-height:normal;text-transform:none;block-progression:tb;marker:none;-inkscape-font-specification:Sans" d="M266.799 583.103v23h-7.313c-6.553 0-12.844 5.45-12.844 12.875V758.07c0 6.553 5.42 12.844 12.844 12.844h204.625c7.425 0 12.844-6.29 12.844-12.844v-74.125h-5v74.125c0 3.697-3.342 7.844-7.844 7.844H259.486c-4.501 0-7.844-4.147-7.844-7.844V618.978c0-4.502 4.148-7.875 7.844-7.875h7.313v23.03h9.593v-51.03H266.8z" font-weight="400" color="#000" fill="#999" stroke="#333" stroke-width="2" overflow="visible" font-family="Sans"/><g fill="none" stroke="#333" stroke-width="2" stroke-linecap="round"><path d="M276.844 587.725h15.194M276.668 596.082h15.193M276.49 604.438h15.195M276.314 612.795h15.194M276.137 621.152h15.194M275.96 629.508h15.195"/></g><g stroke="#333" stroke-width="2" stroke-linecap="round"><path d="M339.761 367.455c0 11.876-9.627 21.503-21.503 21.503s-21.503-9.627-21.503-21.503 9.627-21.503 21.503-21.503 21.503 9.627 21.503 21.503z" fill="#ccc" stroke-width="2.9677"/><path d="M322.574 367.455a4.315 4.315 0 1 1-8.631 0 4.315 4.315 0 0 1 8.63 0z" fill="#fc0" stroke-width=".59556"/></g><path d="M339.512 674.099a21.503 21.503 0 1 1-43.007 0 21.503 21.503 0 1 1 43.007 0z" fill="#ccc" stroke="#333" stroke-width="2.9677" stroke-linecap="round"/><path d="M407.053 674.099a7.962 7.962 0 1 1-15.924 0 7.962 7.962 0 1 1 15.924 0z" stroke="#333" stroke-width="1.09884" stroke-linecap="round"/><path stroke="#000" stroke-width=".976" d="M320.313 670.544h73.342v7.108h-73.342z"/><path d="M322.324 674.099a4.315 4.315 0 1 1-8.63 0 4.315 4.315 0 1 1 8.63 0z" fill="#fc0" stroke="#333" stroke-width=".59556" stroke-linecap="round"/><path style="text-indent:0;text-align:start;line-height:normal;text-transform:none;block-progression:tb;marker:none;-inkscape-font-specification:Sans" d="M549.819 389.468s-.652 2.405-.976 3.609c-26.124 97.319-77.88 292.09-77.88 292.09l-.946 3.608 7.212 1.953.975-3.639L556.084 395l.976-3.609z" font-weight="400" color="#000" fill="#999" stroke="#333" stroke-width="2" stroke-linecap="round" overflow="visible" font-family="Sans"/><path d="M585.051 380.689c-3.957 14.825-19.183 23.636-34.008 19.68-14.825-3.958-23.636-19.183-19.68-34.009 3.957-14.825 19.183-23.636 34.009-19.68 14.825 3.958 23.636 19.183 19.68 34.009z" fill="none" stroke="#333" stroke-width="4" stroke-linecap="round"/><path d="M599.673 384.591a42.917 42.917 0 1 1-82.93-22.133 42.917 42.917 0 1 1 82.93 22.133z" fill="none"/><path d="M361.117 571.108a17.314 17.314 0 0 1 17.314 17.314" transform="translate(-488.652 -728.236) scale(2.34715)" fill="none" stroke="#000" stroke-width=".669" stroke-linecap="round" marker-end="url(#a)"/><path d="M480.844 686.442a6.269 6.269 0 1 1-12.538 0 6.269 6.269 0 1 1 12.538 0z" fill="#fc0" stroke="#333" stroke-width=".8652" stroke-linecap="round"/><path d="M361.117 571.108a17.314 17.314 0 0 1 17.314 17.314" transform="scale(1.74223 2.34715) rotate(-45 -251.545 587.207)" fill="none" stroke="#000" stroke-width=".777" stroke-linecap="round" marker-end="url(#a)"/><g stroke="navy"><path d="M278.608 609.117a8.62 8.62 0 1 1-17.24 0 8.62 8.62 0 0 1 17.24 0z" fill="#fff" stroke-width="2.586195" stroke-linecap="round"/><text y="391.566" x="185.36" style="line-height:125%" font-size="28.223" font-weight="400" letter-spacing="0" word-spacing="0" stroke-width=".706" font-family="Sans" transform="matrix(1.2218 0 0 1.2218 37.292 140.144)"><tspan y="391.566" x="185.36">-</tspan></text></g><path d="M280.068 472.386c-58.816-21.407-89.141-86.44-67.734-145.256 21.407-58.816 86.44-89.142 145.256-67.734 58.816 21.407 89.141 86.44 67.734 145.256a113.33 113.33 0 0 1-67.734 67.734" fill="none" stroke="#333" stroke-width="4.00021632" stroke-linecap="round"/><g stroke="#333" stroke-width="2" stroke-linecap="round"><g fill="none"><path d="M276.844 363.854h15.194M276.668 372.21h15.193M276.49 380.567h15.195M276.314 388.923h15.194M276.137 397.28h15.194M275.96 405.637h15.195"/></g><path d="M266.799 359.228v23.03h-7.313c-6.553 0-12.844 5.42-12.844 12.845v56.406l5 4v-60.406c0-4.502 4.148-7.844 7.844-7.844h7.313v23h9.593v-51.031H266.8z" fill="#999"/></g><g stroke="maroon"><path d="M212.638 365.97a8.62 8.62 0 1 1-17.241 0 8.62 8.62 0 0 1 17.241 0z" fill="#fff" stroke-width="2.586195" stroke-linecap="round"/><text style="line-height:125%" x="167.974" y="378.916" font-size="12.793" font-weight="400" letter-spacing="0" word-spacing="0" stroke-width=".32" font-family="Sans" transform="matrix(1.2218 0 0 1.2218 -7.763 -92.093)"><tspan x="167.974" y="378.916">+</tspan></text></g><g stroke="maroon"><path d="M219.352 404.131a8.62 8.62 0 1 1-17.242 0 8.62 8.62 0 0 1 17.242 0z" fill="#fff" stroke-width="2.586195" stroke-linecap="round"/><text y="378.916" x="167.974" style="line-height:125%" font-size="12.793" font-weight="400" letter-spacing="0" word-spacing="0" stroke-width=".32" font-family="Sans" transform="matrix(1.2218 0 0 1.2218 -1.05 -53.932)"><tspan y="378.916" x="167.974">+</tspan></text></g><g stroke="maroon"><path d="M238.432 438.229a8.62 8.62 0 1 1-17.241 0 8.62 8.62 0 0 1 17.241 0z" fill="#fff" stroke-width="2.586195" stroke-linecap="round"/><text y="378.916" x="167.974" style="line-height:125%" font-size="12.793" font-weight="400" letter-spacing="0" word-spacing="0" stroke-width=".32" font-family="Sans" transform="matrix(1.2218 0 0 1.2218 18.03 -19.834)"><tspan y="378.916" x="167.974">+</tspan></text></g><g stroke="maroon"><path d="M343.436 253.037a8.62 8.62 0 1 1-17.242 0 8.62 8.62 0 0 1 17.242 0z" fill="#fff" stroke-width="2.586195" stroke-linecap="round"/><text y="378.916" x="167.974" style="line-height:125%" font-size="12.793" font-weight="400" letter-spacing="0" word-spacing="0" stroke-width=".32" font-family="Sans" transform="matrix(1.2218 0 0 1.2218 123.034 -205.026)"><tspan y="378.916" x="167.974">+</tspan></text></g><g stroke="maroon"><path d="M304.584 254.036a8.62 8.62 0 1 1-17.242 0 8.62 8.62 0 0 1 17.242 0z" fill="#fff" stroke-width="2.586195" stroke-linecap="round"/><text style="line-height:125%" x="167.974" y="378.916" font-size="12.793" font-weight="400" letter-spacing="0" word-spacing="0" stroke-width=".32" font-family="Sans" transform="matrix(1.2218 0 0 1.2218 84.182 -204.026)"><tspan x="167.974" y="378.916">+</tspan></text></g><g stroke="maroon"><path d="M268.156 268.115a8.62 8.62 0 1 1-17.241 0 8.62 8.62 0 0 1 17.241 0z" fill="#fff" stroke-width="2.586195" stroke-linecap="round"/><text y="378.916" x="167.974" style="line-height:125%" font-size="12.793" font-weight="400" letter-spacing="0" word-spacing="0" stroke-width=".32" font-family="Sans" transform="matrix(1.2218 0 0 1.2218 47.755 -189.948)"><tspan y="378.916" x="167.974">+</tspan></text></g><g stroke="maroon"><path d="M238.432 293.711a8.62 8.62 0 1 1-17.241 0 8.62 8.62 0 0 1 17.241 0z" fill="#fff" stroke-width="2.586195" stroke-linecap="round"/><text style="line-height:125%" x="167.974" y="378.916" font-size="12.793" font-weight="400" letter-spacing="0" word-spacing="0" stroke-width=".32" font-family="Sans" transform="matrix(1.2218 0 0 1.2218 18.03 -164.352)"><tspan x="167.974" y="378.916">+</tspan></text></g><g stroke="maroon"><path d="M219.175 327.279a8.62 8.62 0 1 1-17.241 0 8.62 8.62 0 0 1 17.241 0z" fill="#fff" stroke-width="2.586195" stroke-linecap="round"/><text y="378.916" x="167.974" style="line-height:125%" font-size="12.793" font-weight="400" letter-spacing="0" word-spacing="0" stroke-width=".32" font-family="Sans" transform="matrix(1.2218 0 0 1.2218 -1.226 -130.784)"><tspan y="378.916" x="167.974">+</tspan></text></g><g stroke="maroon"><path d="M417.952 434.165a8.62 8.62 0 1 1-17.241 0 8.62 8.62 0 0 1 17.241 0z" fill="#fff" stroke-width="2.586195" stroke-linecap="round"/><text y="378.916" x="167.974" style="line-height:125%" font-size="12.793" font-weight="400" letter-spacing="0" word-spacing="0" stroke-width=".32" font-family="Sans" transform="matrix(1.2218 0 0 1.2218 197.55 -23.897)"><tspan y="378.916" x="167.974">+</tspan></text></g><g stroke="maroon"><path d="M435.641 398.87a8.62 8.62 0 1 1-17.241 0 8.62 8.62 0 0 1 17.241 0z" fill="#fff" stroke-width="2.586195" stroke-linecap="round"/><text style="line-height:125%" x="167.974" y="378.916" font-size="12.793" font-weight="400" letter-spacing="0" word-spacing="0" stroke-width=".32" font-family="Sans" transform="matrix(1.2218 0 0 1.2218 215.24 -59.193)"><tspan x="167.974" y="378.916">+</tspan></text></g><g stroke="maroon"><path d="M440.213 360.149a8.62 8.62 0 1 1-17.241 0 8.62 8.62 0 0 1 17.241 0z" fill="#fff" stroke-width="2.586195" stroke-linecap="round"/><text y="378.916" x="167.974" style="line-height:125%" font-size="12.793" font-weight="400" letter-spacing="0" word-spacing="0" stroke-width=".32" font-family="Sans" transform="matrix(1.2218 0 0 1.2218 219.812 -97.914)"><tspan y="378.916" x="167.974">+</tspan></text></g><g stroke="maroon"><path d="M431.836 322.552a8.62 8.62 0 1 1-17.241 0 8.62 8.62 0 0 1 17.241 0z" fill="#fff" stroke-width="2.586195" stroke-linecap="round"/><text style="line-height:125%" x="167.974" y="378.916" font-size="12.793" font-weight="400" letter-spacing="0" word-spacing="0" stroke-width=".32" font-family="Sans" transform="matrix(1.2218 0 0 1.2218 211.435 -135.511)"><tspan x="167.974" y="378.916">+</tspan></text></g><g stroke="maroon"><path d="M411.196 289.398a8.62 8.62 0 1 1-17.241 0 8.62 8.62 0 0 1 17.24 0z" fill="#fff" stroke-width="2.586195" stroke-linecap="round"/><text y="378.916" x="167.974" style="line-height:125%" font-size="12.793" font-weight="400" letter-spacing="0" word-spacing="0" stroke-width=".32" font-family="Sans" transform="matrix(1.2218 0 0 1.2218 190.795 -168.665)"><tspan y="378.916" x="167.974">+</tspan></text></g><g stroke="maroon"><path d="M380.196 265.273a8.62 8.62 0 1 1-17.241 0 8.62 8.62 0 0 1 17.241 0z" fill="#fff" stroke-width="2.586195" stroke-linecap="round"/><text style="line-height:125%" x="167.974" y="378.916" font-size="12.793" font-weight="400" letter-spacing="0" word-spacing="0" stroke-width=".32" font-family="Sans" transform="matrix(1.2218 0 0 1.2218 159.795 -192.79)"><tspan x="167.974" y="378.916">+</tspan></text></g><g stroke="maroon"><path d="M389.56 460.77a8.62 8.62 0 1 1-17.241 0 8.62 8.62 0 0 1 17.24 0z" fill="#fff" stroke-width="2.586195" stroke-linecap="round"/><text y="378.916" x="167.974" style="line-height:125%" font-size="12.793" font-weight="400" letter-spacing="0" word-spacing="0" stroke-width=".32" font-family="Sans" transform="matrix(1.2218 0 0 1.2218 169.158 2.707)"><tspan y="378.916" x="167.974">+</tspan></text></g><g stroke="maroon"><path d="M303.819 565.08a8.62 8.62 0 1 1-17.242 0 8.62 8.62 0 0 1 17.242 0z" fill="#fff" stroke-width="2.586195" stroke-linecap="round"/><text style="line-height:125%" x="167.974" y="378.916" font-size="12.793" font-weight="400" letter-spacing="0" word-spacing="0" stroke-width=".32" font-family="Sans" transform="matrix(1.2218 0 0 1.2218 83.417 107.016)"><tspan x="167.974" y="378.916">+</tspan></text></g><g stroke="maroon"><path d="M303.819 529.568a8.62 8.62 0 1 1-17.242 0 8.62 8.62 0 0 1 17.242 0z" fill="#fff" stroke-width="2.586195" stroke-linecap="round"/><text y="378.916" x="167.974" style="line-height:125%" font-size="12.793" font-weight="400" letter-spacing="0" word-spacing="0" stroke-width=".32" font-family="Sans" transform="matrix(1.2218 0 0 1.2218 83.417 71.505)"><tspan y="378.916" x="167.974">+</tspan></text></g><g stroke="maroon"><path d="M303.819 494.057a8.62 8.62 0 1 1-17.242 0 8.62 8.62 0 0 1 17.242 0z" fill="#fff" stroke-width="2.586195" stroke-linecap="round"/><text style="line-height:125%" x="167.974" y="378.916" font-size="12.793" font-weight="400" letter-spacing="0" word-spacing="0" stroke-width=".32" font-family="Sans" transform="matrix(1.2218 0 0 1.2218 83.417 35.994)"><tspan x="167.974" y="378.916">+</tspan></text></g><g stroke="maroon"><path d="M303.819 458.546a8.62 8.62 0 1 1-17.242 0 8.62 8.62 0 0 1 17.242 0z" fill="#fff" stroke-width="2.586195" stroke-linecap="round"/><text y="378.916" x="167.974" style="line-height:125%" font-size="12.793" font-weight="400" letter-spacing="0" word-spacing="0" stroke-width=".32" font-family="Sans" transform="matrix(1.2218 0 0 1.2218 83.417 .483)"><tspan y="378.916" x="167.974">+</tspan></text></g><g stroke="maroon"><path d="M303.819 423.035a8.62 8.62 0 1 1-17.242 0 8.62 8.62 0 0 1 17.242 0z" fill="#fff" stroke-width="2.586195" stroke-linecap="round"/><text style="line-height:125%" x="167.974" y="378.916" font-size="12.793" font-weight="400" letter-spacing="0" word-spacing="0" stroke-width=".32" font-family="Sans" transform="matrix(1.2218 0 0 1.2218 83.417 -35.028)"><tspan x="167.974" y="378.916">+</tspan></text></g><g stroke="navy"><path d="M257.71 657.699a8.62 8.62 0 1 1-17.24 0 8.62 8.62 0 0 1 17.24 0z" fill="#fff" stroke-width="2.586195" stroke-linecap="round"/><text style="line-height:125%" x="185.36" y="391.566" font-size="28.223" font-weight="400" letter-spacing="0" word-spacing="0" stroke-width=".706" font-family="Sans" transform="matrix(1.2218 0 0 1.2218 16.394 188.726)"><tspan x="185.36" y="391.566">-</tspan></text></g><g stroke="navy"><path d="M305.793 768.243a8.62 8.62 0 1 1-17.241 0 8.62 8.62 0 0 1 17.241 0z" fill="#fff" stroke-width="2.586195" stroke-linecap="round"/><text style="line-height:125%" x="185.36" y="391.566" font-size="28.223" font-weight="400" letter-spacing="0" word-spacing="0" stroke-width=".706" font-family="Sans" transform="matrix(1.2218 0 0 1.2218 64.477 299.27)"><tspan x="185.36" y="391.566">-</tspan></text></g><g stroke="navy"><path d="M257.71 726.158a8.62 8.62 0 1 1-17.24 0 8.62 8.62 0 0 1 17.24 0z" fill="#fff" stroke-width="2.586195" stroke-linecap="round"/><text y="391.566" x="185.36" style="line-height:125%" font-size="28.223" font-weight="400" letter-spacing="0" word-spacing="0" stroke-width=".706" font-family="Sans" transform="matrix(1.2218 0 0 1.2218 16.394 257.185)"><tspan y="391.566" x="185.36">-</tspan></text></g><g stroke="navy"><path d="M377.75 768.243a8.62 8.62 0 1 1-17.24 0 8.62 8.62 0 0 1 17.24 0z" fill="#fff" stroke-width="2.586195" stroke-linecap="round"/><text y="391.566" x="185.36" style="line-height:125%" font-size="28.223" font-weight="400" letter-spacing="0" word-spacing="0" stroke-width=".706" font-family="Sans" transform="matrix(1.2218 0 0 1.2218 136.434 299.27)"><tspan y="391.566" x="185.36">-</tspan></text></g><g stroke="navy"><path d="M453.706 768.243a8.62 8.62 0 1 1-17.242 0 8.62 8.62 0 0 1 17.242 0z" fill="#fff" stroke-width="2.586195" stroke-linecap="round"/><text style="line-height:125%" x="185.36" y="391.566" font-size="28.223" font-weight="400" letter-spacing="0" word-spacing="0" stroke-width=".706" font-family="Sans" transform="matrix(1.2218 0 0 1.2218 212.389 299.27)"><tspan x="185.36" y="391.566">-</tspan></text></g><g stroke="navy"><path d="M482.688 724.769a8.62 8.62 0 1 1-17.24 0 8.62 8.62 0 0 1 17.24 0z" fill="#fff" stroke-width="2.586195" stroke-linecap="round"/><text y="391.566" x="185.36" style="line-height:125%" font-size="28.223" font-weight="400" letter-spacing="0" word-spacing="0" stroke-width=".706" font-family="Sans" transform="matrix(1.2218 0 0 1.2218 241.372 255.796)"><tspan y="391.566" x="185.36">-</tspan></text></g><g stroke="navy"><path d="M504.675 606.839a8.62 8.62 0 1 1-17.241 0 8.62 8.62 0 0 1 17.241 0z" fill="#fff" stroke-width="2.586195" stroke-linecap="round"/><text style="line-height:125%" x="185.36" y="391.566" font-size="28.223" font-weight="400" letter-spacing="0" word-spacing="0" stroke-width=".706" font-family="Sans" transform="matrix(1.2218 0 0 1.2218 263.359 137.866)"><tspan x="185.36" y="391.566">-</tspan></text></g><g stroke="navy"><path d="M536.656 488.41a8.62 8.62 0 1 1-17.24 0 8.62 8.62 0 0 1 17.24 0z" fill="#fff" stroke-width="2.586195" stroke-linecap="round"/><text y="391.566" x="185.36" style="line-height:125%" font-size="28.223" font-weight="400" letter-spacing="0" word-spacing="0" stroke-width=".706" font-family="Sans" transform="matrix(1.2218 0 0 1.2218 295.34 19.436)"><tspan y="391.566" x="185.36">-</tspan></text></g><g stroke="navy"><path d="M540.783 397.36a8.62 8.62 0 1 1-17.241 0 8.62 8.62 0 0 1 17.241 0z" fill="#fff" stroke-width="2.586195" stroke-linecap="round"/><text style="line-height:125%" x="185.36" y="391.566" font-size="28.223" font-weight="400" letter-spacing="0" word-spacing="0" stroke-width=".706" font-family="Sans" transform="matrix(1.2218 0 0 1.2218 299.467 -71.613)"><tspan x="185.36" y="391.566">-</tspan></text></g><g stroke="navy"><path d="M534.246 371.982a8.62 8.62 0 1 1-17.24 0 8.62 8.62 0 0 1 17.24 0z" fill="#fff" stroke-width="2.586195" stroke-linecap="round"/><text style="line-height:125%" x="185.36" y="391.566" font-size="28.223" font-weight="400" letter-spacing="0" word-spacing="0" stroke-width=".706" font-family="Sans" transform="matrix(1.2218 0 0 1.2218 292.93 -96.99)"><tspan x="185.36" y="391.566">-</tspan></text></g><g stroke="navy"><path d="M542.903 348.548a8.62 8.62 0 1 1-17.241 0 8.62 8.62 0 0 1 17.241 0z" fill="#fff" stroke-width="2.586195" stroke-linecap="round"/><text y="391.566" x="185.36" style="line-height:125%" font-size="28.223" font-weight="400" letter-spacing="0" word-spacing="0" stroke-width=".706" font-family="Sans" transform="matrix(1.2218 0 0 1.2218 301.587 -120.425)"><tspan y="391.566" x="185.36">-</tspan></text></g><g stroke="navy"><path d="M567.75 339.305a8.62 8.62 0 1 1-17.24 0 8.62 8.62 0 0 1 17.24 0z" fill="#fff" stroke-width="2.586195" stroke-linecap="round"/><text y="391.566" x="185.36" style="line-height:125%" font-size="28.223" font-weight="400" letter-spacing="0" word-spacing="0" stroke-width=".706" font-family="Sans" transform="matrix(1.2218 0 0 1.2218 326.434 -129.668)"><tspan y="391.566" x="185.36">-</tspan></text></g><g stroke="navy"><path d="M591.891 348.902a8.62 8.62 0 1 1-17.241 0 8.62 8.62 0 0 1 17.241 0z" fill="#fff" stroke-width="2.586195" stroke-linecap="round"/><text y="391.566" x="185.36" style="line-height:125%" font-size="28.223" font-weight="400" letter-spacing="0" word-spacing="0" stroke-width=".706" font-family="Sans" transform="matrix(1.2218 0 0 1.2218 350.575 -120.071)"><tspan y="391.566" x="185.36">-</tspan></text></g><g stroke="navy"><path d="M598.605 373.042a8.62 8.62 0 1 1-17.242 0 8.62 8.62 0 0 1 17.242 0z" fill="#fff" stroke-width="2.586195" stroke-linecap="round"/><text y="391.566" x="185.36" style="line-height:125%" font-size="28.223" font-weight="400" letter-spacing="0" word-spacing="0" stroke-width=".706" font-family="Sans" transform="matrix(1.2218 0 0 1.2218 357.288 -95.93)"><tspan y="391.566" x="185.36">-</tspan></text></g><g stroke="navy"><path d="M588.888 398.243a8.62 8.62 0 1 1-17.241 0 8.62 8.62 0 0 1 17.24 0z" fill="#fff" stroke-width="2.586195" stroke-linecap="round"/><text style="line-height:125%" x="185.36" y="391.566" font-size="28.223" font-weight="400" letter-spacing="0" word-spacing="0" stroke-width=".706" font-family="Sans" transform="matrix(1.2218 0 0 1.2218 347.571 -70.73)"><tspan x="185.36" y="391.566">-</tspan></text></g><g stroke="navy"><path d="M566.57 406.37a8.62 8.62 0 1 1-17.24 0 8.62 8.62 0 0 1 17.24 0z" fill="#fff" stroke-width="2.586195" stroke-linecap="round"/><text y="391.566" x="185.36" style="line-height:125%" font-size="28.223" font-weight="400" letter-spacing="0" word-spacing="0" stroke-width=".706" font-family="Sans" transform="matrix(1.2218 0 0 1.2218 325.254 -62.603)"><tspan y="391.566" x="185.36">-</tspan></text></g></svg>