<svg xmlns:ns0="http://www.iki.fi/pav/software/textext/" xmlns="http://www.w3.org/2000/svg" xmlns:xlink="http://www.w3.org/1999/xlink" width="793.701" height="1122.52" viewBox="0 0 744.09448 1052.3622"><title>Ohmsches Gesetz (Diagramm)</title><defs><marker id="a" orient="auto" overflow="visible"><path d="M2.308 0l-3.46 2v-4z" fill-rule="evenodd" stroke="#000" stroke-width=".5332"/></marker></defs><use y="134.765" x="231.736" xlink:href="#textext-082fa4b4-3" width="744.094" height="1052.362" transform="translate(-793.559 319.853) scale(4.62289)" fill="green"/><use y="134.765" x="231.736" xlink:href="#textext-082fa4b4-3" width="744.094" height="1052.362" transform="translate(-793.559 319.853) scale(4.62289)" fill="green"/><g ns0:preamble="/home/waldgeist/data/sphinx/test.tex" ns0:text="$\\Delta \\vec{r} = \\vec{r}_{\\rm{2}} - \\vec{r}_{\\rm{1}} $" fill="green"><use y="134.765" x="223.432" xlink:href="#textext-082fa4b4-0" width="744.094" height="1052.362" transform="translate(-793.559 319.853) scale(4.62289)"/><use y="134.765" x="231.417" xlink:href="#textext-082fa4b4-2" width="744.094" height="1052.362" transform="translate(-793.559 319.853) scale(4.62289)"/><use y="134.765" x="231.736" xlink:href="#textext-082fa4b4-3" width="744.094" height="1052.362" transform="translate(-793.559 319.853) scale(4.62289)"/><use y="134.765" x="239.273" xlink:href="#textext-082fa4b4-1" width="744.094" height="1052.362" transform="translate(-793.559 319.853) scale(4.62289)"/><use y="134.765" x="249.472" xlink:href="#textext-082fa4b4-2" width="744.094" height="1052.362" transform="translate(-793.559 319.853) scale(4.62289)"/><use y="134.765" x="249.791" xlink:href="#textext-082fa4b4-3" width="744.094" height="1052.362" transform="translate(-793.559 319.853) scale(4.62289)"/><use y="136.259" x="254.284" xlink:href="#textext-082fa4b4-4" width="744.094" height="1052.362" transform="translate(-793.559 319.853) scale(4.62289)"/><use y="134.765" x="260.967" xlink:href="#textext-082fa4b4-6" width="744.094" height="1052.362" transform="translate(-793.559 319.853) scale(4.62289)"/><use y="134.765" x="270.612" xlink:href="#textext-082fa4b4-2" width="744.094" height="1052.362" transform="translate(-793.559 319.853) scale(4.62289)"/><use y="134.765" x="270.931" xlink:href="#textext-082fa4b4-3" width="744.094" height="1052.362" transform="translate(-793.559 319.853) scale(4.62289)"/><use y="136.259" x="275.425" xlink:href="#textext-082fa4b4-5" width="744.094" height="1052.362" transform="translate(-793.559 319.853) scale(4.62289)"/></g><g ns0:preamble="/home/waldgeist/data/sphinx/test.tex" ns0:text="$\\Delta \\vec{r} = \\vec{r}_{\\rm{2}} - \\vec{r}_{\\rm{1}} $" fill="green"><use y="134.765" x="223.432" xlink:href="#textext-082fa4b4-0" width="744.094" height="1052.362" transform="translate(-793.559 319.853) scale(4.62289)"/><use y="134.765" x="231.417" xlink:href="#textext-082fa4b4-2" width="744.094" height="1052.362" transform="translate(-793.559 319.853) scale(4.62289)"/><use y="134.765" x="231.736" xlink:href="#textext-082fa4b4-3" width="744.094" height="1052.362" transform="translate(-793.559 319.853) scale(4.62289)"/><use y="134.765" x="239.273" xlink:href="#textext-082fa4b4-1" width="744.094" height="1052.362" transform="translate(-793.559 319.853) scale(4.62289)"/><use y="134.765" x="249.472" xlink:href="#textext-082fa4b4-2" width="744.094" height="1052.362" transform="translate(-793.559 319.853) scale(4.62289)"/><use y="134.765" x="249.791" xlink:href="#textext-082fa4b4-3" width="744.094" height="1052.362" transform="translate(-793.559 319.853) scale(4.62289)"/><use y="136.259" x="254.284" xlink:href="#textext-082fa4b4-4" width="744.094" height="1052.362" transform="translate(-793.559 319.853) scale(4.62289)"/><use y="134.765" x="260.967" xlink:href="#textext-082fa4b4-6" width="744.094" height="1052.362" transform="translate(-793.559 319.853) scale(4.62289)"/><use y="134.765" x="270.612" xlink:href="#textext-082fa4b4-2" width="744.094" height="1052.362" transform="translate(-793.559 319.853) scale(4.62289)"/><use y="134.765" x="270.931" xlink:href="#textext-082fa4b4-3" width="744.094" height="1052.362" transform="translate(-793.559 319.853) scale(4.62289)"/><use y="136.259" x="275.425" xlink:href="#textext-082fa4b4-5" width="744.094" height="1052.362" transform="translate(-793.559 319.853) scale(4.62289)"/></g><g ns0:preamble="/home/waldgeist/data/sphinx/test.tex" ns0:text="$\\Delta \\vec{r} = \\vec{r}_{\\rm{2}} - \\vec{r}_{\\rm{1}} $" fill="green"><use y="134.765" x="223.432" xlink:href="#textext-082fa4b4-0" width="744.094" height="1052.362" transform="translate(-793.559 319.853) scale(4.62289)"/><use y="134.765" x="231.417" xlink:href="#textext-082fa4b4-2" width="744.094" height="1052.362" transform="translate(-793.559 319.853) scale(4.62289)"/><use y="134.765" x="231.736" xlink:href="#textext-082fa4b4-3" width="744.094" height="1052.362" transform="translate(-793.559 319.853) scale(4.62289)"/><use y="134.765" x="239.273" xlink:href="#textext-082fa4b4-1" width="744.094" height="1052.362" transform="translate(-793.559 319.853) scale(4.62289)"/><use y="134.765" x="249.472" xlink:href="#textext-082fa4b4-2" width="744.094" height="1052.362" transform="translate(-793.559 319.853) scale(4.62289)"/><use y="134.765" x="249.791" xlink:href="#textext-082fa4b4-3" width="744.094" height="1052.362" transform="translate(-793.559 319.853) scale(4.62289)"/><use y="136.259" x="254.284" xlink:href="#textext-082fa4b4-4" width="744.094" height="1052.362" transform="translate(-793.559 319.853) scale(4.62289)"/><use y="134.765" x="260.967" xlink:href="#textext-082fa4b4-6" width="744.094" height="1052.362" transform="translate(-793.559 319.853) scale(4.62289)"/><use y="134.765" x="270.612" xlink:href="#textext-082fa4b4-2" width="744.094" height="1052.362" transform="translate(-793.559 319.853) scale(4.62289)"/><use y="134.765" x="270.931" xlink:href="#textext-082fa4b4-3" width="744.094" height="1052.362" transform="translate(-793.559 319.853) scale(4.62289)"/><use y="136.259" x="275.425" xlink:href="#textext-082fa4b4-5" width="744.094" height="1052.362" transform="translate(-793.559 319.853) scale(4.62289)"/></g><use y="134.765" x="231.736" xlink:href="#textext-082fa4b4-3" width="744.094" height="1052.362" transform="translate(-179.38 1583.915) scale(4.62289)" fill="green"/><use y="134.765" x="231.736" xlink:href="#textext-082fa4b4-3" width="744.094" height="1052.362" transform="translate(-179.38 1583.915) scale(4.62289)" fill="green"/><g ns0:preamble="/home/waldgeist/data/sphinx/test.tex" ns0:text="$\\Delta \\vec{r} = \\vec{r}_{\\rm{2}} - \\vec{r}_{\\rm{1}} $" fill="green"><use y="134.765" x="223.432" xlink:href="#textext-082fa4b4-0" width="744.094" height="1052.362" transform="translate(-179.38 1583.915) scale(4.62289)"/><use y="134.765" x="231.417" xlink:href="#textext-082fa4b4-2" width="744.094" height="1052.362" transform="translate(-179.38 1583.915) scale(4.62289)"/><use y="134.765" x="231.736" xlink:href="#textext-082fa4b4-3" width="744.094" height="1052.362" transform="translate(-179.38 1583.915) scale(4.62289)"/><use y="134.765" x="239.273" xlink:href="#textext-082fa4b4-1" width="744.094" height="1052.362" transform="translate(-179.38 1583.915) scale(4.62289)"/><use y="134.765" x="249.472" xlink:href="#textext-082fa4b4-2" width="744.094" height="1052.362" transform="translate(-179.38 1583.915) scale(4.62289)"/><use y="134.765" x="249.791" xlink:href="#textext-082fa4b4-3" width="744.094" height="1052.362" transform="translate(-179.38 1583.915) scale(4.62289)"/><use y="136.259" x="254.284" xlink:href="#textext-082fa4b4-4" width="744.094" height="1052.362" transform="translate(-179.38 1583.915) scale(4.62289)"/><use y="134.765" x="260.967" xlink:href="#textext-082fa4b4-6" width="744.094" height="1052.362" transform="translate(-179.38 1583.915) scale(4.62289)"/><use y="134.765" x="270.612" xlink:href="#textext-082fa4b4-2" width="744.094" height="1052.362" transform="translate(-179.38 1583.915) scale(4.62289)"/><use y="134.765" x="270.931" xlink:href="#textext-082fa4b4-3" width="744.094" height="1052.362" transform="translate(-179.38 1583.915) scale(4.62289)"/><use y="136.259" x="275.425" xlink:href="#textext-082fa4b4-5" width="744.094" height="1052.362" transform="translate(-179.38 1583.915) scale(4.62289)"/></g><g ns0:preamble="/home/waldgeist/data/sphinx/test.tex" ns0:text="$\\Delta \\vec{r} = \\vec{r}_{\\rm{2}} - \\vec{r}_{\\rm{1}} $" fill="green"><use y="134.765" x="223.432" xlink:href="#textext-082fa4b4-0" width="744.094" height="1052.362" transform="translate(-179.38 1583.915) scale(4.62289)"/><use y="134.765" x="231.417" xlink:href="#textext-082fa4b4-2" width="744.094" height="1052.362" transform="translate(-179.38 1583.915) scale(4.62289)"/><use y="134.765" x="231.736" xlink:href="#textext-082fa4b4-3" width="744.094" height="1052.362" transform="translate(-179.38 1583.915) scale(4.62289)"/><use y="134.765" x="239.273" xlink:href="#textext-082fa4b4-1" width="744.094" height="1052.362" transform="translate(-179.38 1583.915) scale(4.62289)"/><use y="134.765" x="249.472" xlink:href="#textext-082fa4b4-2" width="744.094" height="1052.362" transform="translate(-179.38 1583.915) scale(4.62289)"/><use y="134.765" x="249.791" xlink:href="#textext-082fa4b4-3" width="744.094" height="1052.362" transform="translate(-179.38 1583.915) scale(4.62289)"/><use y="136.259" x="254.284" xlink:href="#textext-082fa4b4-4" width="744.094" height="1052.362" transform="translate(-179.38 1583.915) scale(4.62289)"/><use y="134.765" x="260.967" xlink:href="#textext-082fa4b4-6" width="744.094" height="1052.362" transform="translate(-179.38 1583.915) scale(4.62289)"/><use y="134.765" x="270.612" xlink:href="#textext-082fa4b4-2" width="744.094" height="1052.362" transform="translate(-179.38 1583.915) scale(4.62289)"/><use y="134.765" x="270.931" xlink:href="#textext-082fa4b4-3" width="744.094" height="1052.362" transform="translate(-179.38 1583.915) scale(4.62289)"/><use y="136.259" x="275.425" xlink:href="#textext-082fa4b4-5" width="744.094" height="1052.362" transform="translate(-179.38 1583.915) scale(4.62289)"/></g><g ns0:preamble="/home/waldgeist/data/sphinx/test.tex" ns0:text="$\\Delta \\vec{r} = \\vec{r}_{\\rm{2}} - \\vec{r}_{\\rm{1}} $" fill="green"><use y="134.765" x="223.432" xlink:href="#textext-082fa4b4-0" width="744.094" height="1052.362" transform="translate(-179.38 1583.915) scale(4.62289)"/><use y="134.765" x="231.417" xlink:href="#textext-082fa4b4-2" width="744.094" height="1052.362" transform="translate(-179.38 1583.915) scale(4.62289)"/><use y="134.765" x="231.736" xlink:href="#textext-082fa4b4-3" width="744.094" height="1052.362" transform="translate(-179.38 1583.915) scale(4.62289)"/><use y="134.765" x="239.273" xlink:href="#textext-082fa4b4-1" width="744.094" height="1052.362" transform="translate(-179.38 1583.915) scale(4.62289)"/><use y="134.765" x="249.472" xlink:href="#textext-082fa4b4-2" width="744.094" height="1052.362" transform="translate(-179.38 1583.915) scale(4.62289)"/><use y="134.765" x="249.791" xlink:href="#textext-082fa4b4-3" width="744.094" height="1052.362" transform="translate(-179.38 1583.915) scale(4.62289)"/><use y="136.259" x="254.284" xlink:href="#textext-082fa4b4-4" width="744.094" height="1052.362" transform="translate(-179.38 1583.915) scale(4.62289)"/><use y="134.765" x="260.967" xlink:href="#textext-082fa4b4-6" width="744.094" height="1052.362" transform="translate(-179.38 1583.915) scale(4.62289)"/><use y="134.765" x="270.612" xlink:href="#textext-082fa4b4-2" width="744.094" height="1052.362" transform="translate(-179.38 1583.915) scale(4.62289)"/><use y="134.765" x="270.931" xlink:href="#textext-082fa4b4-3" width="744.094" height="1052.362" transform="translate(-179.38 1583.915) scale(4.62289)"/><use y="136.259" x="275.425" xlink:href="#textext-082fa4b4-5" width="744.094" height="1052.362" transform="translate(-179.38 1583.915) scale(4.62289)"/></g><use y="134.765" x="231.736" xlink:href="#textext-082fa4b4-3" width="744.094" height="1052.362" transform="translate(-168.004 326.032) scale(4.62289)" fill="green"/><use y="134.765" x="231.736" xlink:href="#textext-082fa4b4-3" width="744.094" height="1052.362" transform="translate(-168.004 326.032) scale(4.62289)" fill="green"/><g ns0:preamble="/home/waldgeist/data/sphinx/test.tex" ns0:text="$\\Delta \\vec{r} = \\vec{r}_{\\rm{2}} - \\vec{r}_{\\rm{1}} $" fill="green"><use y="134.765" x="223.432" xlink:href="#textext-082fa4b4-0" width="744.094" height="1052.362" transform="translate(-168.004 326.032) scale(4.62289)"/><use y="134.765" x="231.417" xlink:href="#textext-082fa4b4-2" width="744.094" height="1052.362" transform="translate(-168.004 326.032) scale(4.62289)"/><use y="134.765" x="231.736" xlink:href="#textext-082fa4b4-3" width="744.094" height="1052.362" transform="translate(-168.004 326.032) scale(4.62289)"/><use y="134.765" x="239.273" xlink:href="#textext-082fa4b4-1" width="744.094" height="1052.362" transform="translate(-168.004 326.032) scale(4.62289)"/><use y="134.765" x="249.472" xlink:href="#textext-082fa4b4-2" width="744.094" height="1052.362" transform="translate(-168.004 326.032) scale(4.62289)"/><use y="134.765" x="249.791" xlink:href="#textext-082fa4b4-3" width="744.094" height="1052.362" transform="translate(-168.004 326.032) scale(4.62289)"/><use y="136.259" x="254.284" xlink:href="#textext-082fa4b4-4" width="744.094" height="1052.362" transform="translate(-168.004 326.032) scale(4.62289)"/><use y="134.765" x="260.967" xlink:href="#textext-082fa4b4-6" width="744.094" height="1052.362" transform="translate(-168.004 326.032) scale(4.62289)"/><use y="134.765" x="270.612" xlink:href="#textext-082fa4b4-2" width="744.094" height="1052.362" transform="translate(-168.004 326.032) scale(4.62289)"/><use y="134.765" x="270.931" xlink:href="#textext-082fa4b4-3" width="744.094" height="1052.362" transform="translate(-168.004 326.032) scale(4.62289)"/><use y="136.259" x="275.425" xlink:href="#textext-082fa4b4-5" width="744.094" height="1052.362" transform="translate(-168.004 326.032) scale(4.62289)"/></g><g ns0:preamble="/home/waldgeist/data/sphinx/test.tex" ns0:text="$\\Delta \\vec{r} = \\vec{r}_{\\rm{2}} - \\vec{r}_{\\rm{1}} $" fill="green"><use y="134.765" x="223.432" xlink:href="#textext-082fa4b4-0" width="744.094" height="1052.362" transform="translate(-168.004 326.032) scale(4.62289)"/><use y="134.765" x="231.417" xlink:href="#textext-082fa4b4-2" width="744.094" height="1052.362" transform="translate(-168.004 326.032) scale(4.62289)"/><use y="134.765" x="231.736" xlink:href="#textext-082fa4b4-3" width="744.094" height="1052.362" transform="translate(-168.004 326.032) scale(4.62289)"/><use y="134.765" x="239.273" xlink:href="#textext-082fa4b4-1" width="744.094" height="1052.362" transform="translate(-168.004 326.032) scale(4.62289)"/><use y="134.765" x="249.472" xlink:href="#textext-082fa4b4-2" width="744.094" height="1052.362" transform="translate(-168.004 326.032) scale(4.62289)"/><use y="134.765" x="249.791" xlink:href="#textext-082fa4b4-3" width="744.094" height="1052.362" transform="translate(-168.004 326.032) scale(4.62289)"/><use y="136.259" x="254.284" xlink:href="#textext-082fa4b4-4" width="744.094" height="1052.362" transform="translate(-168.004 326.032) scale(4.62289)"/><use y="134.765" x="260.967" xlink:href="#textext-082fa4b4-6" width="744.094" height="1052.362" transform="translate(-168.004 326.032) scale(4.62289)"/><use y="134.765" x="270.612" xlink:href="#textext-082fa4b4-2" width="744.094" height="1052.362" transform="translate(-168.004 326.032) scale(4.62289)"/><use y="134.765" x="270.931" xlink:href="#textext-082fa4b4-3" width="744.094" height="1052.362" transform="translate(-168.004 326.032) scale(4.62289)"/><use y="136.259" x="275.425" xlink:href="#textext-082fa4b4-5" width="744.094" height="1052.362" transform="translate(-168.004 326.032) scale(4.62289)"/></g><g ns0:preamble="/home/waldgeist/data/sphinx/test.tex" ns0:text="$\\Delta \\vec{r} = \\vec{r}_{\\rm{2}} - \\vec{r}_{\\rm{1}} $" fill="green"><use y="134.765" x="223.432" xlink:href="#textext-082fa4b4-0" width="744.094" height="1052.362" transform="translate(-168.004 326.032) scale(4.62289)"/><use y="134.765" x="231.417" xlink:href="#textext-082fa4b4-2" width="744.094" height="1052.362" transform="translate(-168.004 326.032) scale(4.62289)"/><use y="134.765" x="231.736" xlink:href="#textext-082fa4b4-3" width="744.094" height="1052.362" transform="translate(-168.004 326.032) scale(4.62289)"/><use y="134.765" x="239.273" xlink:href="#textext-082fa4b4-1" width="744.094" height="1052.362" transform="translate(-168.004 326.032) scale(4.62289)"/><use y="134.765" x="249.472" xlink:href="#textext-082fa4b4-2" width="744.094" height="1052.362" transform="translate(-168.004 326.032) scale(4.62289)"/><use y="134.765" x="249.791" xlink:href="#textext-082fa4b4-3" width="744.094" height="1052.362" transform="translate(-168.004 326.032) scale(4.62289)"/><use y="136.259" x="254.284" xlink:href="#textext-082fa4b4-4" width="744.094" height="1052.362" transform="translate(-168.004 326.032) scale(4.62289)"/><use y="134.765" x="260.967" xlink:href="#textext-082fa4b4-6" width="744.094" height="1052.362" transform="translate(-168.004 326.032) scale(4.62289)"/><use y="134.765" x="270.612" xlink:href="#textext-082fa4b4-2" width="744.094" height="1052.362" transform="translate(-168.004 326.032) scale(4.62289)"/><use y="134.765" x="270.931" xlink:href="#textext-082fa4b4-3" width="744.094" height="1052.362" transform="translate(-168.004 326.032) scale(4.62289)"/><use y="136.259" x="275.425" xlink:href="#textext-082fa4b4-5" width="744.094" height="1052.362" transform="translate(-168.004 326.032) scale(4.62289)"/></g><path style="marker:none" color="#000" overflow="visible" fill="#fff" stroke="#fff" stroke-linecap="round" stroke-linejoin="bevel" stroke-dasharray=".99999998,2.99999994" d="M13.994 250.761H730.1v550.841H13.994z"/><g stroke="#ccc" stroke-width="1.019" fill="none"><g stroke-width="2.509"><path d="M209.87 335.604v404.71M250.34 335.604v404.71M290.812 335.604v404.71M331.283 335.604v404.71M371.754 335.604v404.71M412.225 335.604v404.71M452.696 335.604v404.71M493.167 335.604v404.71M533.638 335.604v404.71" stroke-width="1.01541739"/></g><g stroke-width="2.509"><path d="M169.399 376.075h404.71M169.399 416.546h404.71M169.399 457.017h404.71M169.399 497.488h404.71M169.399 537.96h404.71M169.399 578.43h404.71M169.399 618.901h404.71M169.399 659.372h404.71M169.399 699.843h404.71" stroke-width="1.01541739"/></g><g stroke-width=".836"><path d="M173.446 335.604v404.71M177.493 335.604v404.71M181.54 335.604v404.71M185.587 335.604v404.71M189.634 335.604v404.71M193.681 335.604v404.71M197.728 335.604v404.71M201.776 335.604v404.71M205.823 335.604v404.71M213.917 335.604v404.71M217.964 335.604v404.71M222.011 335.604v404.71M226.058 335.604v404.71M230.105 335.604v404.71M234.152 335.604v404.71M238.2 335.604v404.71M242.247 335.604v404.71M246.294 335.604v404.71M254.388 335.604v404.71M258.435 335.604v404.71M262.482 335.604v404.71M266.53 335.604v404.71M270.576 335.604v404.71M274.623 335.604v404.71M278.67 335.604v404.71M282.718 335.604v404.71M286.765 335.604v404.71M294.859 335.604v404.71M298.906 335.604v404.71M302.953 335.604v404.71M307 335.604v404.71M311.047 335.604v404.71M315.094 335.604v404.71M319.141 335.604v404.71M323.188 335.604v404.71M327.236 335.604v404.71M335.33 335.604v404.71M339.377 335.604v404.71M343.424 335.604v404.71M347.471 335.604v404.71M351.518 335.604v404.71M355.565 335.604v404.71M359.612 335.604v404.71M363.66 335.604v404.71M367.707 335.604v404.71M375.8 335.604v404.71M379.848 335.604v404.71M383.895 335.604v404.71M387.942 335.604v404.71M391.99 335.604v404.71M396.036 335.604v404.71M400.083 335.604v404.71M404.13 335.604v404.71M408.178 335.604v404.71M416.272 335.604v404.71M420.319 335.604v404.71M424.366 335.604v404.71M428.413 335.604v404.71M432.46 335.604v404.71M436.507 335.604v404.71M440.554 335.604v404.71M444.601 335.604v404.71M448.649 335.604v404.71M456.743 335.604v404.71M460.79 335.604v404.71M464.837 335.604v404.71M468.884 335.604v404.71M472.931 335.604v404.71M476.978 335.604v404.71M481.025 335.604v404.71M485.072 335.604v404.71M489.12 335.604v404.71M497.214 335.604v404.71M501.26 335.604v404.71M505.308 335.604v404.71M509.355 335.604v404.71M513.402 335.604v404.71M517.45 335.604v404.71M521.496 335.604v404.71M525.543 335.604v404.71M529.59 335.604v404.71M537.685 335.604v404.71M541.732 335.604v404.71M545.779 335.604v404.71M549.826 335.604v404.71M553.873 335.604v404.71M557.92 335.604v404.71M561.967 335.604v404.71M566.014 335.604v404.71M570.061 335.604v404.71" stroke-width=".33833756"/></g><g stroke-width=".836"><path d="M169.399 339.651h404.71M169.399 343.698h404.71M169.399 347.746h404.71M169.399 351.793h404.71M169.399 355.84h404.71M169.399 359.887h404.71M169.399 363.934h404.71M169.399 367.981h404.71M169.399 372.028h404.71M169.399 380.122h404.71M169.399 384.17h404.71M169.399 388.216h404.71M169.399 392.264h404.71M169.399 396.31h404.71M169.399 400.358h404.71M169.399 404.405h404.71M169.399 408.452h404.71M169.399 412.5h404.71M169.399 420.593h404.71M169.399 424.64h404.71M169.399 428.687h404.71M169.399 432.735h404.71M169.399 436.782h404.71M169.399 440.829h404.71M169.399 444.876h404.71M169.399 448.923h404.71M169.399 452.97h404.71M169.399 461.064h404.71M169.399 465.111h404.71M169.399 469.158h404.71M169.399 473.206h404.71M169.399 477.253h404.71M169.399 481.3h404.71M169.399 485.347h404.71M169.399 489.394h404.71M169.399 493.441h404.71M169.399 501.535h404.71M169.399 505.582h404.71M169.399 509.63h404.71M169.399 513.677h404.71M169.399 517.724h404.71M169.399 521.77h404.71M169.399 525.818h404.71M169.399 529.865h404.71M169.399 533.912h404.71M169.399 542.006h404.71M169.399 546.053h404.71M169.399 550.1h404.71M169.399 554.147h404.71M169.399 558.195h404.71M169.399 562.242h404.71M169.399 566.289h404.71M169.399 570.336h404.71M169.399 574.383h404.71M169.399 582.477h404.71M169.399 586.524h404.71M169.399 590.571h404.71M169.399 594.618h404.71M169.399 598.666h404.71M169.399 602.713h404.71M169.399 606.76h404.71M169.399 610.807h404.71M169.399 614.854h404.71M169.399 622.948h404.71M169.399 626.995h404.71M169.399 631.042h404.71M169.399 635.09h404.71M169.399 639.137h404.71M169.399 643.184h404.71M169.399 647.23h404.71M169.399 651.278h404.71M169.399 655.325h404.71M169.399 663.42h404.71M169.399 667.466h404.71M169.399 671.513h404.71M169.399 675.56h404.71M169.399 679.608h404.71M169.399 683.655h404.71M169.399 687.702h404.71M169.399 691.749h404.71M169.399 695.796h404.71M169.399 703.89h404.71M169.399 707.937h404.71M169.399 711.984h404.71M169.399 716.031h404.71M169.399 720.078h404.71M169.399 724.126h404.71M169.399 728.173h404.71M169.399 732.22h404.71M169.399 736.267h404.71" stroke-width=".33833756"/></g><path stroke-width="1.01541739" d="M169.399 335.604h404.71v404.71h-404.71z"/></g><path d="M169.394 743.822V268.013M169.399 740.322h495.258" fill="none" stroke="#000" stroke-width="2" marker-end="url(#a)"/><path d="M172.604 699.85h-6.41M173.932 740.322h-6.41" fill="none" stroke="#000" stroke-width="1.558" stroke-linecap="round"/><path d="M371.754 737.17v6.303M574.014 737.17v6.303" fill="none" stroke="#000" stroke-width="2" stroke-linecap="round"/><g ns0:preamble="/home/waldgeist/data/sphinx/inkscape-preamble.tex" ns0:text="\\centering\nSpannung \\\\\nin Volt" transform="matrix(1.86584 0 0 1.86584 -107.32 515.301)" fill="#4d4d4d"><defs><symbol id="b" overflow="visible"><path d="M3.484-3.875l-1.28-.297c-.626-.156-1-.687-1-1.266 0-.703.53-1.312 1.312-1.312 1.656 0 1.875 1.64 1.937 2.078.016.063.016.125.125.125.125 0 .125-.047.125-.234v-2c0-.172 0-.25-.11-.25-.062 0-.077.015-.14.14l-.36.563c-.296-.297-.702-.703-1.593-.703-1.11 0-1.938.875-1.938 1.937 0 .828.532 1.563 1.297 1.828.11.032.625.157 1.329.329.265.062.562.14.843.5.203.265.313.593.313.921 0 .704-.5 1.422-1.344 1.422-.281 0-1.047-.047-1.578-.531-.578-.547-.61-1.172-.61-1.531-.015-.11-.093-.11-.125-.11-.125 0-.125.079-.125.25v2c0 .172 0 .235.11.235.062 0 .078-.016.14-.125 0-.016.032-.047.36-.578.312.343.953.703 1.844.703 1.156 0 1.953-.969 1.953-2.078 0-.985-.657-1.813-1.485-2.016zm0 0"/></symbol><symbol id="c" overflow="visible"><path d="M1.719-3.75v-.656l-1.438.11v.312c.703 0 .781.062.781.5v4.656c0 .453-.109.453-.78.453v.313c.343-.016.859-.032 1.109-.032.28 0 .78.016 1.125.032v-.313c-.657 0-.766 0-.766-.453V-.594c.047.172.469.703 1.219.703 1.187 0 2.219-.984 2.219-2.265 0-1.266-.954-2.25-2.079-2.25-.78 0-1.203.437-1.39.656zm.031 2.61v-2.22c.281-.515.766-.796 1.281-.796.735 0 1.328.875 1.328 2C4.36-.953 3.672-.11 2.938-.11c-.407 0-.782-.204-1.047-.61-.141-.203-.141-.219-.141-.422zm0 0"/></symbol><symbol id="d" overflow="visible"><path d="M3.313-.75c.046.39.312.813.78.813.22 0 .829-.141.829-.954v-.562h-.25v.562c0 .579-.25.641-.36.641-.328 0-.375-.453-.375-.5v-1.984c0-.422 0-.813-.359-1.188-.39-.39-.89-.547-1.36-.547-.827 0-1.515.469-1.515 1.125 0 .297.203.469.469.469a.435.435 0 0 0 .453-.453c0-.125-.047-.453-.516-.453.282-.36.766-.469 1.079-.469.5 0 1.062.39 1.062 1.281v.36c-.516.03-1.203.062-1.828.359-.75.344-1 .86-1 1.297 0 .812.969 1.062 1.594 1.062.656 0 1.109-.406 1.296-.859zM3.25-2.39v1c0 .937-.719 1.28-1.172 1.28-.484 0-.89-.343-.89-.843 0-.547.421-1.375 2.062-1.438zm0 0"/></symbol><symbol id="e" overflow="visible"><path d="M1.094-3.422V-.75c0 .438-.11.438-.782.438V0c.36-.016.86-.031 1.141-.031.25 0 .766.015 1.11.031v-.313c-.672 0-.782 0-.782-.437v-1.844c0-1.031.719-1.594 1.344-1.594.64 0 .75.532.75 1.11V-.75c0 .438-.11.438-.781.438V0c.344-.016.86-.031 1.125-.031.25 0 .781.015 1.11.031v-.313c-.516 0-.766 0-.766-.296v-1.907c0-.859 0-1.156-.313-1.515-.14-.172-.469-.375-1.047-.375-.734 0-1.203.422-1.484 1.047v-1.047l-1.407.11v.312c.704 0 .782.062.782.562zm0 0"/></symbol><symbol id="f" overflow="visible"><path d="M3.89-.781v.89L5.329 0v-.313c-.687 0-.766-.062-.766-.562v-3.531l-1.468.11v.312c.687 0 .781.062.781.562v1.766c0 .875-.484 1.547-1.219 1.547-.828 0-.875-.47-.875-.985v-3.312l-1.468.11v.312c.78 0 .78.03.78.906v1.5c0 .781 0 1.687 1.516 1.687.563 0 1-.28 1.282-.89zm0 0"/></symbol><symbol id="g" overflow="visible"><path d="M2.219-1.719c-.875 0-.875-1-.875-1.218 0-.266.015-.594.156-.844.078-.11.313-.39.719-.39.86 0 .86.984.86 1.218 0 .265 0 .594-.157.844-.078.109-.313.39-.703.39zm-1.156.39c0-.03 0-.265.156-.468.39.281.812.313 1 .313.922 0 1.61-.688 1.61-1.454 0-.374-.157-.734-.407-.968.36-.344.719-.39.89-.39.032 0 .079 0 .11.015-.11.031-.172.14-.172.265 0 .172.14.282.297.282a.28.28 0 0 0 .281-.297c0-.172-.11-.485-.5-.485-.203 0-.64.063-1.062.47a1.652 1.652 0 0 0-1.047-.36c-.938 0-1.625.687-1.625 1.453 0 .437.219.812.469 1.031-.125.14-.313.469-.313.828 0 .313.14.688.453.89-.61.157-.922.595-.922.985 0 .719.985 1.266 2.203 1.266 1.172 0 2.204-.5 2.204-1.281 0-.344-.125-.86-.641-1.141-.531-.266-1.11-.266-1.719-.266-.25 0-.672 0-.75-.015-.312-.047-.516-.344-.516-.672zM2.5 1.829C1.484 1.828.797 1.312.797.781c0-.453.375-.828.812-.844h.594c.86 0 1.969 0 1.969.844 0 .547-.703 1.047-1.672 1.047zm0 0"/></symbol><symbol id="h" overflow="visible"><path d="M1.766-4.406l-1.391.11v.312c.64 0 .734.062.734.546V-.75c0 .438-.109.438-.78.438V0c.312-.016.859-.031 1.093-.031.36 0 .703.015 1.047.031v-.313c-.672 0-.703-.046-.703-.437zm.03-1.735a.514.514 0 0 0-.515-.53.537.537 0 0 0-.531.53c0 .266.219.532.531.532a.514.514 0 0 0 .516-.532zm0 0"/></symbol><symbol id="i" overflow="visible"><path d="M6.188-5.828c.14-.375.406-.656 1.093-.672v-.313c-.312.032-.718.032-.968.032-.297 0-.875-.016-1.141-.032v.313c.516.016.734.266.734.5 0 .078-.031.14-.047.203L4.031-1 2.125-6.031c-.063-.14-.063-.157-.063-.172 0-.297.563-.297.813-.297v-.313c-.36.032-1.047.032-1.422.032-.469 0-.906-.016-1.266-.032v.313c.657 0 .844 0 .985.375L3.484 0c.063.188.11.219.25.219.157 0 .188-.047.235-.188zm0 0"/></symbol><symbol id="j" overflow="visible"><path d="M4.688-2.14c0-1.266-.985-2.329-2.188-2.329C1.25-4.469.281-3.375.281-2.14A2.22 2.22 0 0 0 2.484.11c1.204 0 2.204-.984 2.204-2.25zM2.5-.14c-.438 0-.875-.204-1.14-.672-.25-.438-.25-1.047-.25-1.407 0-.39 0-.922.234-1.36a1.347 1.347 0 0 1 1.14-.671c.438 0 .86.219 1.125.656.266.422.266 1 .266 1.375 0 .36 0 .906-.219 1.344-.234.453-.672.734-1.156.734zm0 0"/></symbol><symbol id="k" overflow="visible"><path d="M1.766-6.922l-1.438.11v.312c.703 0 .781.063.781.563V-.75c0 .438-.109.438-.78.438V0c.327-.016.859-.031 1.109-.031s.734.015 1.109.031v-.313c-.672 0-.781 0-.781-.437zm0 0"/></symbol><symbol id="l" overflow="visible"><path d="M1.719-3.984h1.437v-.313H1.72v-1.828h-.25c0 .813-.297 1.875-1.282 1.922v.219h.844v2.75c0 1.218.938 1.343 1.297 1.343.703 0 .985-.703.985-1.343v-.563h-.25v.547c0 .734-.297 1.11-.672 1.11-.672 0-.672-.907-.672-1.079zm0 0"/></symbol></defs><use y="134.765" x="373.84" xlink:href="#b" width="744.094" height="1052.362"/><use y="134.765" x="379.375" xlink:href="#c" width="744.094" height="1052.362"/><use y="134.765" x="384.91" xlink:href="#d" width="744.094" height="1052.362"/><use y="134.765" x="389.892" xlink:href="#e" width="744.094" height="1052.362"/><use y="134.765" x="395.427" xlink:href="#e" width="744.094" height="1052.362"/><g><use y="134.765" x="400.683" xlink:href="#f" width="744.094" height="1052.362"/><use y="134.765" x="406.218" xlink:href="#e" width="744.094" height="1052.362"/><use y="134.765" x="411.754" xlink:href="#g" width="744.094" height="1052.362"/></g><g><use y="146.72" x="380.344" xlink:href="#h" width="744.094" height="1052.362"/><use y="146.72" x="383.112" xlink:href="#e" width="744.094" height="1052.362"/></g><g><use y="146.72" x="391.964" xlink:href="#i" width="744.094" height="1052.362"/></g><g><use y="146.72" x="398.609" xlink:href="#j" width="744.094" height="1052.362"/><use y="146.72" x="403.591" xlink:href="#k" width="744.094" height="1052.362"/><use y="146.72" x="406.358" xlink:href="#l" width="744.094" height="1052.362"/></g></g><path d="M172.604 659.38h-6.41M172.604 618.909h-6.41" fill="none" stroke="#000" stroke-width="1.558" stroke-linecap="round"/><g transform="translate(-156.44 556.609) scale(1.39648)" ns0:preamble="/home/waldgeist/data/sphinx/inkscape-preamble.tex" ns0:text="0" fill="#4d4d4d"><defs><symbol id="m" overflow="visible"><path d="M4.578-3.188c0-.796-.047-1.593-.39-2.328C3.733-6.484 2.905-6.64 2.5-6.64c-.61 0-1.328.266-1.75 1.188-.313.687-.36 1.469-.36 2.266 0 .75.032 1.64.454 2.406a1.83 1.83 0 0 0 1.64 1c.532 0 1.297-.203 1.735-1.157.312-.687.36-1.468.36-2.25zM2.484 0c-.39 0-.984-.25-1.156-1.203-.11-.594-.11-1.516-.11-2.11 0-.64 0-1.296.079-1.828.187-1.187.937-1.28 1.187-1.28.329 0 .985.187 1.172 1.171.11.563.11 1.313.11 1.938 0 .75 0 1.421-.11 2.062C3.5-.297 2.937 0 2.484 0zm0 0"/></symbol></defs><use y="134.765" x="223.432" xlink:href="#m" width="744.094" height="1052.362"/></g><g ns0:text="1" ns0:preamble="/home/waldgeist/data/sphinx/inkscape-preamble.tex" transform="translate(-105.684 569.058) scale(1.39648)" fill="#4d4d4d"><defs><symbol overflow="visible" id="n"><path d="M2.938-6.375c0-.25 0-.266-.235-.266C2.078-6 1.203-6 .891-6v.313c.203 0 .78 0 1.296-.266v5.172c0 .36-.03.469-.921.469H.953V0c.344-.031 1.203-.031 1.61-.031.39 0 1.265 0 1.609.031v-.313h-.313c-.906 0-.921-.109-.921-.468zm0 0"/></symbol></defs><use height="1052.362" width="744.094" xlink:href="#n" x="223.432" y="134.765"/></g><g transform="translate(-65.147 569.058) scale(1.39648)" ns0:preamble="/home/waldgeist/data/sphinx/inkscape-preamble.tex" ns0:text="2" fill="#4d4d4d"><defs><symbol id="o" overflow="visible"><path d="M1.266-.766l1.062-1.03c1.547-1.376 2.14-1.907 2.14-2.907 0-1.14-.89-1.938-2.109-1.938C1.234-6.64.5-5.719.5-4.828c0 .547.5.547.531.547.172 0 .516-.11.516-.532a.513.513 0 0 0-.531-.515c-.079 0-.094 0-.125.016.218-.657.765-1.016 1.343-1.016.907 0 1.329.812 1.329 1.625 0 .797-.485 1.578-1.047 2.203L.609-.375C.5-.265.5-.235.5 0h3.703l.266-1.734h-.235C4.172-1.438 4.11-1 4-.844c-.063.078-.719.078-.938.078zm0 0"/></symbol></defs><use height="1052.362" width="744.094" y="134.765" x="223.432" xlink:href="#o"/></g><g ns0:text="3" ns0:preamble="/home/waldgeist/data/sphinx/inkscape-preamble.tex" transform="translate(-24.687 569.058) scale(1.39648)" fill="#4d4d4d"><defs><symbol overflow="visible" id="p"><path d="M2.89-3.516c.813-.265 1.391-.953 1.391-1.75 0-.812-.875-1.375-1.828-1.375-1 0-1.765.594-1.765 1.36 0 .328.218.515.515.515.297 0 .5-.218.5-.515 0-.485-.469-.485-.61-.485.298-.5.954-.625 1.313-.625.422 0 .969.22.969 1.11 0 .125-.031.703-.281 1.14-.297.485-.64.516-.89.516a3.29 3.29 0 0 1-.392.031c-.078.016-.14.031-.14.125 0 .11.062.11.234.11h.438c.812 0 1.187.671 1.187 1.656 0 1.36-.687 1.64-1.125 1.64-.437 0-1.187-.171-1.531-.75.344.047.656-.171.656-.546a.537.537 0 0 0-.547-.563c-.25 0-.562.14-.562.578C.422-.437 1.344.22 2.437.22c1.22 0 2.126-.906 2.126-1.922 0-.813-.641-1.594-1.672-1.813zm0 0"/></symbol></defs><use height="1052.362" width="744.094" xlink:href="#p" x="223.432" y="134.765"/></g><g transform="translate(15.795 569.21) scale(1.39648)" ns0:preamble="/home/waldgeist/data/sphinx/inkscape-preamble.tex" ns0:text="4" fill="#4d4d4d"><defs><symbol id="q" overflow="visible"><path d="M2.938-1.64v.859c0 .36-.032.469-.766.469h-.203V0c.406-.031.922-.031 1.343-.031.422 0 .938 0 1.36.031v-.313h-.219c-.734 0-.75-.109-.75-.468v-.86h.985v-.312h-.985v-4.531c0-.204 0-.266-.172-.266-.078 0-.11 0-.187.125L.28-1.953v.312zm.046-.313H.563l2.421-3.719zm0 0"/></symbol></defs><use height="1052.362" width="744.094" y="134.765" x="223.432" xlink:href="#q"/></g><g ns0:text="5" ns0:preamble="/home/waldgeist/data/sphinx/inkscape-preamble.tex" transform="translate(56.266 569.058) scale(1.39648)" fill="#4d4d4d"><defs><symbol overflow="visible" id="r"><path d="M4.469-2c0-1.188-.813-2.188-1.89-2.188-.47 0-.907.157-1.267.516v-1.953c.204.063.532.125.844.125 1.235 0 1.938-.906 1.938-1.031 0-.063-.032-.11-.11-.11 0 0-.03 0-.078.032a3.22 3.22 0 0 1-1.36.296c-.39 0-.858-.078-1.327-.28-.078-.032-.094-.032-.11-.032C1-6.625 1-6.547 1-6.391v2.954c0 .171 0 .25.14.25.079 0 .094-.016.141-.079.11-.156.469-.703 1.282-.703.515 0 .765.453.843.64.156.376.188.75.188 1.25 0 .36 0 .954-.25 1.376-.235.39-.61.64-1.063.64-.719 0-1.297-.53-1.469-1.109.032 0 .063.016.172.016.329 0 .5-.25.5-.485 0-.25-.171-.5-.5-.5-.14 0-.484.079-.484.532C.5-.75 1.188.219 2.297.219 3.453.219 4.469-.734 4.469-2zm0 0"/></symbol></defs><use height="1052.362" width="744.094" xlink:href="#r" x="223.432" y="134.765"/></g><g transform="translate(96.726 569.058) scale(1.39648)" ns0:preamble="/home/waldgeist/data/sphinx/inkscape-preamble.tex" ns0:text="6" fill="#4d4d4d"><defs><symbol id="s" overflow="visible"><path d="M1.313-3.266v-.25c0-2.515 1.234-2.875 1.75-2.875.234 0 .656.063.874.407-.156 0-.546 0-.546.437 0 .313.234.469.453.469.156 0 .469-.094.469-.484 0-.594-.438-1.079-1.266-1.079C1.766-6.64.422-5.359.422-3.156.422-.484 1.578.219 2.5.219c1.11 0 2.063-.938 2.063-2.25 0-1.266-.891-2.219-2-2.219-.672 0-1.047.5-1.25.984zM2.5-.062c-.625 0-.922-.594-.984-.75-.188-.47-.188-1.266-.188-1.438 0-.781.328-1.781 1.219-1.781.172 0 .625 0 .937.625.172.36.172.875.172 1.36 0 .483 0 .983-.172 1.343-.296.594-.75.64-.984.64zm0 0"/></symbol></defs><use height="1052.362" width="744.094" y="134.765" x="223.432" xlink:href="#s"/></g><g ns0:text="7" ns0:preamble="/home/waldgeist/data/sphinx/inkscape-preamble.tex" transform="translate(136.913 569.189) scale(1.39648)" fill="#4d4d4d"><defs><symbol overflow="visible" id="t"><path d="M4.75-6.078c.078-.11.078-.125.078-.344H2.406c-1.203 0-1.234-.125-1.265-.312H.89L.562-4.688h.25c.032-.156.11-.78.25-.906.063-.062.844-.062.97-.062h2.062c-.11.156-.89 1.25-1.11 1.578C2.078-2.734 1.75-1.344 1.75-.328c0 .094 0 .547.469.547.453 0 .453-.453.453-.547v-.516c0-.547.031-1.094.11-1.625.046-.234.171-1.094.624-1.703zm0 0"/></symbol></defs><use height="1052.362" width="744.094" xlink:href="#t" x="223.432" y="134.765"/></g><g transform="translate(177.668 569.058) scale(1.39648)" ns0:preamble="/home/waldgeist/data/sphinx/inkscape-preamble.tex" ns0:text="8" fill="#4d4d4d"><defs><symbol id="u" overflow="visible"><path d="M1.625-4.563c-.453-.296-.5-.625-.5-.796 0-.61.656-1.032 1.36-1.032.718 0 1.359.516 1.359 1.235 0 .578-.39 1.047-.985 1.39zm1.453.954c.719-.375 1.203-.891 1.203-1.547 0-.922-.875-1.485-1.781-1.485-1 0-1.813.735-1.813 1.672 0 .172.016.625.438 1.094.11.11.484.36.734.531C1.281-3.047.422-2.5.422-1.5.422-.453 1.438.219 2.484.219c1.125 0 2.079-.828 2.079-1.89 0-.36-.11-.813-.5-1.235-.188-.203-.344-.297-.985-.703zm-1 .421l1.235.782c.28.187.75.484.75 1.094 0 .734-.75 1.25-1.563 1.25C1.64-.063.922-.672.922-1.5c0-.578.312-1.219 1.156-1.688zm0 0"/></symbol></defs><use height="1052.362" width="744.094" y="134.765" x="223.432" xlink:href="#u"/></g><g ns0:text="9" ns0:preamble="/home/waldgeist/data/sphinx/inkscape-preamble.tex" transform="translate(218.139 569.058) scale(1.39648)" fill="#4d4d4d"><defs><symbol overflow="visible" id="v"><path d="M3.656-3.172v.328c0 2.328-1.031 2.781-1.61 2.781-.171 0-.718-.015-.983-.359.437 0 .515-.281.515-.453 0-.313-.234-.453-.453-.453-.156 0-.453.078-.453.469 0 .671.531 1.078 1.375 1.078 1.297 0 2.515-1.36 2.515-3.5 0-2.688-1.156-3.36-2.046-3.36-.547 0-1.032.188-1.454.625-.421.454-.64.875-.64 1.625 0 1.235.875 2.22 1.984 2.22.61 0 1.016-.423 1.25-1zm-1.234.766c-.156 0-.625 0-.922-.625-.188-.375-.188-.86-.188-1.36 0-.53 0-1 .22-1.375.265-.5.64-.625.984-.625.468 0 .796.344.968.782.11.328.157.953.157 1.406 0 .828-.344 1.797-1.22 1.797zm0 0"/></symbol></defs><use height="1052.362" width="744.094" xlink:href="#v" x="223.432" y="134.765"/></g><g transform="translate(254.7 569.058) scale(1.39648)" ns0:preamble="/home/waldgeist/data/sphinx/inkscape-preamble.tex" ns0:text="10" fill="#4d4d4d"><defs><symbol id="w" overflow="visible"><path d="M2.938-6.375c0-.25 0-.266-.235-.266C2.078-6 1.203-6 .891-6v.313c.203 0 .78 0 1.296-.266v5.172c0 .36-.03.469-.921.469H.953V0c.344-.031 1.203-.031 1.61-.031.39 0 1.265 0 1.609.031v-.313h-.313c-.906 0-.921-.109-.921-.468zm0 0"/></symbol><symbol id="x" overflow="visible"><path d="M4.578-3.188c0-.796-.047-1.593-.39-2.328C3.733-6.484 2.905-6.64 2.5-6.64c-.61 0-1.328.266-1.75 1.188-.313.687-.36 1.469-.36 2.266 0 .75.032 1.64.454 2.406a1.83 1.83 0 0 0 1.64 1c.532 0 1.297-.203 1.735-1.157.312-.687.36-1.468.36-2.25zM2.484 0c-.39 0-.984-.25-1.156-1.203-.11-.594-.11-1.516-.11-2.11 0-.64 0-1.296.079-1.828.187-1.187.937-1.28 1.187-1.28.329 0 .985.187 1.172 1.171.11.563.11 1.313.11 1.938 0 .75 0 1.421-.11 2.062C3.5-.297 2.937 0 2.484 0zm0 0"/></symbol></defs><use height="1052.362" width="744.094" y="134.765" x="223.432" xlink:href="#w"/><use height="1052.362" width="744.094" y="134.765" x="228.413" xlink:href="#x"/></g><g ns0:text="0,01" ns0:preamble="/home/waldgeist/data/sphinx/inkscape-preamble.tex" transform="translate(-173.65 514.949) scale(1.39648)" fill="#4d4d4d"><defs><symbol overflow="visible" id="y"><path d="M4.578-3.188c0-.796-.047-1.593-.39-2.328C3.733-6.484 2.905-6.64 2.5-6.64c-.61 0-1.328.266-1.75 1.188-.313.687-.36 1.469-.36 2.266 0 .75.032 1.64.454 2.406a1.83 1.83 0 0 0 1.64 1c.532 0 1.297-.203 1.735-1.157.312-.687.36-1.468.36-2.25zM2.484 0c-.39 0-.984-.25-1.156-1.203-.11-.594-.11-1.516-.11-2.11 0-.64 0-1.296.079-1.828.187-1.187.937-1.28 1.187-1.28.329 0 .985.187 1.172 1.171.11.563.11 1.313.11 1.938 0 .75 0 1.421-.11 2.062C3.5-.297 2.937 0 2.484 0zm0 0"/></symbol><symbol overflow="visible" id="z"><path d="M2.031-.016c0-.625-.25-1.046-.64-1.046-.36 0-.532.28-.532.53 0 .266.172.532.532.532a.578.578 0 0 0 .375-.14l.015-.016c.016 0 .016 0 .016.14 0 .641-.266 1.25-.703 1.72-.063.062-.078.077-.078.109 0 .078.046.109.093.109.125 0 .922-.781.922-1.938zm0 0"/></symbol><symbol overflow="visible" id="A"><path d="M2.938-6.375c0-.25 0-.266-.235-.266C2.078-6 1.203-6 .891-6v.313c.203 0 .78 0 1.296-.266v5.172c0 .36-.03.469-.921.469H.953V0c.344-.031 1.203-.031 1.61-.031.39 0 1.265 0 1.609.031v-.313h-.313c-.906 0-.921-.109-.921-.468zm0 0"/></symbol></defs><use height="1052.362" width="744.094" xlink:href="#y" x="223.432" y="134.765"/><use height="1052.362" width="744.094" xlink:href="#z" x="228.413" y="134.765"/><use height="1052.362" width="744.094" xlink:href="#y" x="231.181" y="134.765"/><use height="1052.362" width="744.094" xlink:href="#A" x="236.162" y="134.765"/></g><path d="M331.283 737.162v6.304M290.812 737.162v6.304M250.34 737.162v6.304M209.87 737.162v6.304M169.399 737.162v6.304M412.225 737.162v6.304M452.696 737.162v6.304M493.167 737.162v6.304M533.638 737.162v6.304" fill="none" stroke="#000" stroke-width="2" stroke-linecap="round"/><g transform="matrix(1.86584 0 0 1.86584 -631.295 24.87)" ns0:preamble="/home/waldgeist/data/sphinx/inkscape-preamble.tex" ns0:text="\\centering\nStromst\\&quot;arke \\\\\nin Ampere" fill="#4d4d4d"><defs><symbol id="B" overflow="visible"><path d="M3.484-3.875l-1.28-.297c-.626-.156-1-.687-1-1.266 0-.703.53-1.312 1.312-1.312 1.656 0 1.875 1.64 1.937 2.078.016.063.016.125.125.125.125 0 .125-.047.125-.234v-2c0-.172 0-.25-.11-.25-.062 0-.077.015-.14.14l-.36.563c-.296-.297-.702-.703-1.593-.703-1.11 0-1.938.875-1.938 1.937 0 .828.532 1.563 1.297 1.828.11.032.625.157 1.329.329.265.062.562.14.843.5.203.265.313.593.313.921 0 .704-.5 1.422-1.344 1.422-.281 0-1.047-.047-1.578-.531-.578-.547-.61-1.172-.61-1.531-.015-.11-.093-.11-.125-.11-.125 0-.125.079-.125.25v2c0 .172 0 .235.11.235.062 0 .078-.016.14-.125 0-.016.032-.047.36-.578.312.343.953.703 1.844.703 1.156 0 1.953-.969 1.953-2.078 0-.985-.657-1.813-1.485-2.016zm0 0"/></symbol><symbol id="C" overflow="visible"><path d="M1.719-3.984h1.437v-.313H1.72v-1.828h-.25c0 .813-.297 1.875-1.282 1.922v.219h.844v2.75c0 1.218.938 1.343 1.297 1.343.703 0 .985-.703.985-1.343v-.563h-.25v.547c0 .734-.297 1.11-.672 1.11-.672 0-.672-.907-.672-1.079zm0 0"/></symbol><symbol id="D" overflow="visible"><path d="M1.672-3.313v-1.093l-1.39.11v.312c.702 0 .78.062.78.562V-.75c0 .438-.109.438-.78.438V0c.39-.016.859-.031 1.14-.031.39 0 .86 0 1.266.031v-.313h-.22c-.734 0-.75-.109-.75-.468v-1.531c0-.985.423-1.876 1.173-1.876.062 0 .093 0 .109.016-.031 0-.234.125-.234.39 0 .266.218.423.437.423a.421.421 0 0 0 .422-.438c0-.312-.313-.61-.734-.61-.735 0-1.094.673-1.22 1.095zm0 0"/></symbol><symbol id="E" overflow="visible"><path d="M4.688-2.14c0-1.266-.985-2.329-2.188-2.329C1.25-4.469.281-3.375.281-2.14A2.22 2.22 0 0 0 2.484.11c1.204 0 2.204-.984 2.204-2.25zM2.5-.14c-.438 0-.875-.204-1.14-.672-.25-.438-.25-1.047-.25-1.407 0-.39 0-.922.234-1.36a1.347 1.347 0 0 1 1.14-.671c.438 0 .86.219 1.125.656.266.422.266 1 .266 1.375 0 .36 0 .906-.219 1.344-.234.453-.672.734-1.156.734zm0 0"/></symbol><symbol id="F" overflow="visible"><path d="M1.094-3.422V-.75c0 .438-.11.438-.782.438V0c.36-.016.86-.031 1.141-.031.25 0 .766.015 1.11.031v-.313c-.672 0-.782 0-.782-.437v-1.844c0-1.031.719-1.594 1.344-1.594.64 0 .75.532.75 1.11V-.75c0 .438-.11.438-.781.438V0c.344-.016.86-.031 1.125-.031.25 0 .781.015 1.11.031v-.313c-.657 0-.766 0-.766-.437v-1.844c0-1.031.703-1.594 1.343-1.594.625 0 .735.532.735 1.11V-.75c0 .438-.11.438-.782.438V0c.344-.016.86-.031 1.125-.031.266 0 .782.015 1.125.031v-.313c-.515 0-.765 0-.78-.296v-1.907c0-.859 0-1.156-.313-1.515-.141-.172-.47-.375-1.047-.375-.828 0-1.282.593-1.438.984-.14-.875-.875-.984-1.328-.984-.734 0-1.203.422-1.484 1.047v-1.047l-1.407.11v.312c.704 0 .782.062.782.562zm0 0"/></symbol><symbol id="G" overflow="visible"><path d="M2.078-1.938c.219.047 1.031.204 1.031.922 0 .5-.343.907-1.125.907-.843 0-1.203-.563-1.39-1.422-.031-.125-.031-.157-.14-.157-.126 0-.126.063-.126.235v1.328c0 .172 0 .234.11.234C.483.11.5.094.688-.094.703-.109.703-.125.89-.312c.437.406.89.421 1.093.421 1.141 0 1.61-.671 1.61-1.39 0-.516-.297-.828-.422-.938-.328-.328-.719-.406-1.14-.484-.563-.11-1.22-.235-1.22-.813 0-.359.25-.765 1.11-.765 1.094 0 1.156.906 1.172 1.203 0 .094.094.094.11.094.14 0 .14-.047.14-.235v-1.015c0-.157 0-.235-.11-.235-.046 0-.078 0-.203.125-.031.032-.125.125-.172.157-.375-.282-.78-.282-.937-.282-1.219 0-1.594.672-1.594 1.235 0 .343.156.625.422.843.328.25.61.313 1.328.454zm0 0"/></symbol><symbol id="H" overflow="visible"><path d="M2.031-6.172c0-.234-.203-.5-.5-.5-.281 0-.5.219-.5.5s.219.5.5.5c.297 0 .5-.266.5-.5zm1.922 0c0-.281-.219-.5-.5-.5-.297 0-.5.266-.5.5 0 .234.203.5.5.5.281 0 .5-.219.5-.5zm0 0"/></symbol><symbol id="I" overflow="visible"><path d="M3.313-.75c.046.39.312.813.78.813.22 0 .829-.141.829-.954v-.562h-.25v.562c0 .579-.25.641-.36.641-.328 0-.375-.453-.375-.5v-1.984c0-.422 0-.813-.359-1.188-.39-.39-.89-.547-1.36-.547-.827 0-1.515.469-1.515 1.125 0 .297.203.469.469.469a.435.435 0 0 0 .453-.453c0-.125-.047-.453-.516-.453.282-.36.766-.469 1.079-.469.5 0 1.062.39 1.062 1.281v.36c-.516.03-1.203.062-1.828.359-.75.344-1 .86-1 1.297 0 .812.969 1.062 1.594 1.062.656 0 1.109-.406 1.296-.859zM3.25-2.39v1c0 .937-.719 1.28-1.172 1.28-.484 0-.89-.343-.89-.843 0-.547.421-1.375 2.062-1.438zm0 0"/></symbol><symbol id="J" overflow="visible"><path d="M1.063-.75c0 .438-.11.438-.782.438V0c.328-.016.797-.031 1.078-.031.313 0 .704.015 1.11.031v-.313c-.672 0-.781 0-.781-.437v-1.031l.64-.547c.766 1.047 1.188 1.61 1.188 1.797 0 .187-.172.219-.36.219V0c.266-.016.86-.031 1.078-.031.282 0 .579.015.86.031v-.313c-.375 0-.594 0-.969-.53L2.859-2.626c-.015-.016-.062-.078-.062-.11 0-.03.719-.64.812-.718.625-.5 1.047-.531 1.25-.531v-.313c-.28.031-.406.031-.687.031-.36 0-.984-.015-1.125-.03v.312c.187 0 .297.109.297.25 0 .203-.14.312-.219.39L1.719-2.14v-4.78L.28-6.813v.312c.703 0 .781.063.781.563zm0 0"/></symbol><symbol id="K" overflow="visible"><path d="M1.11-2.516C1.171-4 2.015-4.25 2.36-4.25c1.015 0 1.124 1.344 1.124 1.734zm0 .22h2.78c.22 0 .25 0 .25-.22 0-.984-.546-1.953-1.78-1.953C1.202-4.469.28-3.437.28-2.187.281-.86 1.328.108 2.47.108 3.688.11 4.14-1 4.14-1.187c0-.094-.079-.125-.141-.125-.078 0-.11.062-.125.14C3.531-.14 2.625-.14 2.531-.14c-.5 0-.89-.296-1.125-.671-.297-.47-.297-1.125-.297-1.485zm0 0"/></symbol><symbol id="L" overflow="visible"><path d="M1.766-4.406l-1.391.11v.312c.64 0 .734.062.734.546V-.75c0 .438-.109.438-.78.438V0c.312-.016.859-.031 1.093-.031.36 0 .703.015 1.047.031v-.313c-.672 0-.703-.046-.703-.437zm.03-1.735a.514.514 0 0 0-.515-.53.537.537 0 0 0-.531.53c0 .266.219.532.531.532a.514.514 0 0 0 .516-.532zm0 0"/></symbol><symbol id="M" overflow="visible"><path d="M1.094-3.422V-.75c0 .438-.11.438-.782.438V0c.36-.016.86-.031 1.141-.031.25 0 .766.015 1.11.031v-.313c-.672 0-.782 0-.782-.437v-1.844c0-1.031.719-1.594 1.344-1.594.64 0 .75.532.75 1.11V-.75c0 .438-.11.438-.781.438V0c.344-.016.86-.031 1.125-.031.25 0 .781.015 1.11.031v-.313c-.516 0-.766 0-.766-.296v-1.907c0-.859 0-1.156-.313-1.515-.14-.172-.469-.375-1.047-.375-.734 0-1.203.422-1.484 1.047v-1.047l-1.407.11v.312c.704 0 .782.062.782.562zm0 0"/></symbol><symbol id="N" overflow="visible"><path d="M3.969-6.938c-.047-.125-.078-.203-.235-.203-.156 0-.187.063-.234.204L1.437-.984C1.25-.47.86-.313.313-.313V0c.235-.016.672-.031 1.016-.031.313 0 .828.015 1.156.031v-.313c-.5 0-.75-.25-.75-.5 0-.03.016-.14.016-.156l.469-1.297h2.453L5.203-.75a.58.58 0 0 1 .031.14c0 .297-.562.297-.828.297V0c.36-.031 1.063-.031 1.438-.031.422 0 .89.015 1.297.031v-.313h-.172c-.594 0-.735-.062-.844-.39zm-.531 1.11l1.124 3.25H2.329zm0 0"/></symbol><symbol id="O" overflow="visible"><path d="M1.719-3.75v-.656l-1.438.11v.312c.703 0 .781.062.781.5v4.656c0 .453-.109.453-.78.453v.313c.343-.016.859-.032 1.109-.032.28 0 .78.016 1.125.032v-.313c-.657 0-.766 0-.766-.453V-.594c.047.172.469.703 1.219.703 1.187 0 2.219-.984 2.219-2.265 0-1.266-.954-2.25-2.079-2.25-.78 0-1.203.437-1.39.656zm.031 2.61v-2.22c.281-.515.766-.796 1.281-.796.735 0 1.328.875 1.328 2C4.36-.953 3.672-.11 2.938-.11c-.407 0-.782-.204-1.047-.61-.141-.203-.141-.219-.141-.422zm0 0"/></symbol></defs><use y="134.765" x="368.942" xlink:href="#B" width="744.094" height="1052.362"/><use y="134.765" x="374.477" xlink:href="#C" width="744.094" height="1052.362"/><use y="134.765" x="378.352" xlink:href="#D" width="744.094" height="1052.362"/><use y="134.765" x="382.254" xlink:href="#E" width="744.094" height="1052.362"/><use y="134.765" x="387.235" xlink:href="#F" width="744.094" height="1052.362"/><use y="134.765" x="395.537" xlink:href="#G" width="744.094" height="1052.362"/><use y="134.765" x="399.466" xlink:href="#C" width="744.094" height="1052.362"/><use y="134.765" x="403.341" xlink:href="#H" width="744.094" height="1052.362"/><g><use y="134.765" x="403.341" xlink:href="#I" width="744.094" height="1052.362"/><use y="134.765" x="408.322" xlink:href="#D" width="744.094" height="1052.362"/><use y="134.765" x="412.225" xlink:href="#J" width="744.094" height="1052.362"/></g><g><use y="134.765" x="417.204" xlink:href="#K" width="744.094" height="1052.362"/></g><g><use y="146.72" x="372.304" xlink:href="#L" width="744.094" height="1052.362"/><use y="146.72" x="375.072" xlink:href="#M" width="744.094" height="1052.362"/></g><g><use y="146.72" x="383.924" xlink:href="#N" width="744.094" height="1052.362"/><use y="146.72" x="391.396" xlink:href="#F" width="744.094" height="1052.362"/><use y="146.72" x="399.698" xlink:href="#O" width="744.094" height="1052.362"/></g><g><use y="146.72" x="405.512" xlink:href="#K" width="744.094" height="1052.362"/><use y="146.72" x="409.94" xlink:href="#D" width="744.094" height="1052.362"/><use y="146.72" x="413.842" xlink:href="#K" width="744.094" height="1052.362"/></g></g><g ns0:text="0,02" ns0:preamble="/home/waldgeist/data/sphinx/inkscape-preamble.tex" transform="translate(-174.064 474.08) scale(1.39648)" fill="#4d4d4d"><defs><symbol overflow="visible" id="P"><path d="M4.578-3.188c0-.796-.047-1.593-.39-2.328C3.733-6.484 2.905-6.64 2.5-6.64c-.61 0-1.328.266-1.75 1.188-.313.687-.36 1.469-.36 2.266 0 .75.032 1.64.454 2.406a1.83 1.83 0 0 0 1.64 1c.532 0 1.297-.203 1.735-1.157.312-.687.36-1.468.36-2.25zM2.484 0c-.39 0-.984-.25-1.156-1.203-.11-.594-.11-1.516-.11-2.11 0-.64 0-1.296.079-1.828.187-1.187.937-1.28 1.187-1.28.329 0 .985.187 1.172 1.171.11.563.11 1.313.11 1.938 0 .75 0 1.421-.11 2.062C3.5-.297 2.937 0 2.484 0zm0 0"/></symbol><symbol overflow="visible" id="Q"><path d="M2.031-.016c0-.625-.25-1.046-.64-1.046-.36 0-.532.28-.532.53 0 .266.172.532.532.532a.578.578 0 0 0 .375-.14l.015-.016c.016 0 .016 0 .016.14 0 .641-.266 1.25-.703 1.72-.063.062-.078.077-.078.109 0 .078.046.109.093.109.125 0 .922-.781.922-1.938zm0 0"/></symbol><symbol overflow="visible" id="R"><path d="M1.266-.766l1.062-1.03c1.547-1.376 2.14-1.907 2.14-2.907 0-1.14-.89-1.938-2.109-1.938C1.234-6.64.5-5.719.5-4.828c0 .547.5.547.531.547.172 0 .516-.11.516-.532a.513.513 0 0 0-.531-.515c-.079 0-.094 0-.125.016.218-.657.765-1.016 1.343-1.016.907 0 1.329.812 1.329 1.625 0 .797-.485 1.578-1.047 2.203L.609-.375C.5-.265.5-.235.5 0h3.703l.266-1.734h-.235C4.172-1.438 4.11-1 4-.844c-.063.078-.719.078-.938.078zm0 0"/></symbol></defs><use height="1052.362" width="744.094" xlink:href="#P" x="223.432" y="134.765"/><use height="1052.362" width="744.094" xlink:href="#Q" x="228.413" y="134.765"/><use height="1052.362" width="744.094" xlink:href="#P" x="231.181" y="134.765"/><use height="1052.362" width="744.094" xlink:href="#R" x="236.162" y="134.765"/></g><g transform="translate(-174.195 434.62) scale(1.39648)" ns0:preamble="/home/waldgeist/data/sphinx/inkscape-preamble.tex" ns0:text="0,03" fill="#4d4d4d"><defs><symbol id="S" overflow="visible"><path d="M4.578-3.188c0-.796-.047-1.593-.39-2.328C3.733-6.484 2.905-6.64 2.5-6.64c-.61 0-1.328.266-1.75 1.188-.313.687-.36 1.469-.36 2.266 0 .75.032 1.64.454 2.406a1.83 1.83 0 0 0 1.64 1c.532 0 1.297-.203 1.735-1.157.312-.687.36-1.468.36-2.25zM2.484 0c-.39 0-.984-.25-1.156-1.203-.11-.594-.11-1.516-.11-2.11 0-.64 0-1.296.079-1.828.187-1.187.937-1.28 1.187-1.28.329 0 .985.187 1.172 1.171.11.563.11 1.313.11 1.938 0 .75 0 1.421-.11 2.062C3.5-.297 2.937 0 2.484 0zm0 0"/></symbol><symbol id="T" overflow="visible"><path d="M2.031-.016c0-.625-.25-1.046-.64-1.046-.36 0-.532.28-.532.53 0 .266.172.532.532.532a.578.578 0 0 0 .375-.14l.015-.016c.016 0 .016 0 .016.14 0 .641-.266 1.25-.703 1.72-.063.062-.078.077-.078.109 0 .078.046.109.093.109.125 0 .922-.781.922-1.938zm0 0"/></symbol><symbol id="U" overflow="visible"><path d="M2.89-3.516c.813-.265 1.391-.953 1.391-1.75 0-.812-.875-1.375-1.828-1.375-1 0-1.765.594-1.765 1.36 0 .328.218.515.515.515.297 0 .5-.218.5-.515 0-.485-.469-.485-.61-.485.298-.5.954-.625 1.313-.625.422 0 .969.22.969 1.11 0 .125-.031.703-.281 1.14-.297.485-.64.516-.89.516a3.29 3.29 0 0 1-.392.031c-.078.016-.14.031-.14.125 0 .11.062.11.234.11h.438c.812 0 1.187.671 1.187 1.656 0 1.36-.687 1.64-1.125 1.64-.437 0-1.187-.171-1.531-.75.344.047.656-.171.656-.546a.537.537 0 0 0-.547-.563c-.25 0-.562.14-.562.578C.422-.437 1.344.22 2.437.22c1.22 0 2.126-.906 2.126-1.922 0-.813-.641-1.594-1.672-1.813zm0 0"/></symbol></defs><use height="1052.362" width="744.094" y="134.765" x="223.432" xlink:href="#S"/><use height="1052.362" width="744.094" y="134.765" x="228.413" xlink:href="#T"/><use height="1052.362" width="744.094" y="134.765" x="231.181" xlink:href="#S"/><use height="1052.362" width="744.094" y="134.765" x="236.162" xlink:href="#U"/></g><g ns0:text="0,04" ns0:preamble="/home/waldgeist/data/sphinx/inkscape-preamble.tex" transform="translate(-174.37 394.22) scale(1.39648)" fill="#4d4d4d"><defs><symbol overflow="visible" id="V"><path d="M4.578-3.188c0-.796-.047-1.593-.39-2.328C3.733-6.484 2.905-6.64 2.5-6.64c-.61 0-1.328.266-1.75 1.188-.313.687-.36 1.469-.36 2.266 0 .75.032 1.64.454 2.406a1.83 1.83 0 0 0 1.64 1c.532 0 1.297-.203 1.735-1.157.312-.687.36-1.468.36-2.25zM2.484 0c-.39 0-.984-.25-1.156-1.203-.11-.594-.11-1.516-.11-2.11 0-.64 0-1.296.079-1.828.187-1.187.937-1.28 1.187-1.28.329 0 .985.187 1.172 1.171.11.563.11 1.313.11 1.938 0 .75 0 1.421-.11 2.062C3.5-.297 2.937 0 2.484 0zm0 0"/></symbol><symbol overflow="visible" id="W"><path d="M2.031-.016c0-.625-.25-1.046-.64-1.046-.36 0-.532.28-.532.53 0 .266.172.532.532.532a.578.578 0 0 0 .375-.14l.015-.016c.016 0 .016 0 .016.14 0 .641-.266 1.25-.703 1.72-.063.062-.078.077-.078.109 0 .078.046.109.093.109.125 0 .922-.781.922-1.938zm0 0"/></symbol><symbol overflow="visible" id="X"><path d="M2.938-1.64v.859c0 .36-.032.469-.766.469h-.203V0c.406-.031.922-.031 1.343-.031.422 0 .938 0 1.36.031v-.313h-.219c-.734 0-.75-.109-.75-.468v-.86h.985v-.312h-.985v-4.531c0-.204 0-.266-.172-.266-.078 0-.11 0-.187.125L.28-1.953v.312zm.046-.313H.563l2.421-3.719zm0 0"/></symbol></defs><use height="1052.362" width="744.094" xlink:href="#V" x="223.432" y="134.765"/><use height="1052.362" width="744.094" xlink:href="#W" x="228.413" y="134.765"/><use height="1052.362" width="744.094" xlink:href="#V" x="231.181" y="134.765"/><use height="1052.362" width="744.094" xlink:href="#X" x="236.162" y="134.765"/></g><g transform="translate(-174.064 355.7) scale(1.39648)" ns0:preamble="/home/waldgeist/data/sphinx/inkscape-preamble.tex" ns0:text="0,05" fill="#4d4d4d"><defs><symbol id="Y" overflow="visible"><path d="M4.578-3.188c0-.796-.047-1.593-.39-2.328C3.733-6.484 2.905-6.64 2.5-6.64c-.61 0-1.328.266-1.75 1.188-.313.687-.36 1.469-.36 2.266 0 .75.032 1.64.454 2.406a1.83 1.83 0 0 0 1.64 1c.532 0 1.297-.203 1.735-1.157.312-.687.36-1.468.36-2.25zM2.484 0c-.39 0-.984-.25-1.156-1.203-.11-.594-.11-1.516-.11-2.11 0-.64 0-1.296.079-1.828.187-1.187.937-1.28 1.187-1.28.329 0 .985.187 1.172 1.171.11.563.11 1.313.11 1.938 0 .75 0 1.421-.11 2.062C3.5-.297 2.937 0 2.484 0zm0 0"/></symbol><symbol id="Z" overflow="visible"><path d="M2.031-.016c0-.625-.25-1.046-.64-1.046-.36 0-.532.28-.532.53 0 .266.172.532.532.532a.578.578 0 0 0 .375-.14l.015-.016c.016 0 .016 0 .016.14 0 .641-.266 1.25-.703 1.72-.063.062-.078.077-.078.109 0 .078.046.109.093.109.125 0 .922-.781.922-1.938zm0 0"/></symbol><symbol id="aa" overflow="visible"><path d="M4.469-2c0-1.188-.813-2.188-1.89-2.188-.47 0-.907.157-1.267.516v-1.953c.204.063.532.125.844.125 1.235 0 1.938-.906 1.938-1.031 0-.063-.032-.11-.11-.11 0 0-.03 0-.078.032a3.22 3.22 0 0 1-1.36.296c-.39 0-.858-.078-1.327-.28-.078-.032-.094-.032-.11-.032C1-6.625 1-6.547 1-6.391v2.954c0 .171 0 .25.14.25.079 0 .094-.016.141-.079.11-.156.469-.703 1.282-.703.515 0 .765.453.843.64.156.376.188.75.188 1.25 0 .36 0 .954-.25 1.376-.235.39-.61.64-1.063.64-.719 0-1.297-.53-1.469-1.109.032 0 .063.016.172.016.329 0 .5-.25.5-.485 0-.25-.171-.5-.5-.5-.14 0-.484.079-.484.532C.5-.75 1.188.219 2.297.219 3.453.219 4.469-.734 4.469-2zm0 0"/></symbol></defs><use height="1052.362" width="744.094" y="134.765" x="223.432" xlink:href="#Y"/><use height="1052.362" width="744.094" y="134.765" x="228.413" xlink:href="#Z"/><use height="1052.362" width="744.094" y="134.765" x="231.181" xlink:href="#Y"/><use height="1052.362" width="744.094" y="134.765" x="236.162" xlink:href="#aa"/></g><g ns0:text="0,06" ns0:preamble="/home/waldgeist/data/sphinx/inkscape-preamble.tex" transform="translate(-174.195 314.596) scale(1.39648)" fill="#4d4d4d"><defs><symbol overflow="visible" id="ab"><path d="M4.578-3.188c0-.796-.047-1.593-.39-2.328C3.733-6.484 2.905-6.64 2.5-6.64c-.61 0-1.328.266-1.75 1.188-.313.687-.36 1.469-.36 2.266 0 .75.032 1.64.454 2.406a1.83 1.83 0 0 0 1.64 1c.532 0 1.297-.203 1.735-1.157.312-.687.36-1.468.36-2.25zM2.484 0c-.39 0-.984-.25-1.156-1.203-.11-.594-.11-1.516-.11-2.11 0-.64 0-1.296.079-1.828.187-1.187.937-1.28 1.187-1.28.329 0 .985.187 1.172 1.171.11.563.11 1.313.11 1.938 0 .75 0 1.421-.11 2.062C3.5-.297 2.937 0 2.484 0zm0 0"/></symbol><symbol overflow="visible" id="ac"><path d="M2.031-.016c0-.625-.25-1.046-.64-1.046-.36 0-.532.28-.532.53 0 .266.172.532.532.532a.578.578 0 0 0 .375-.14l.015-.016c.016 0 .016 0 .016.14 0 .641-.266 1.25-.703 1.72-.063.062-.078.077-.078.109 0 .078.046.109.093.109.125 0 .922-.781.922-1.938zm0 0"/></symbol><symbol overflow="visible" id="ad"><path d="M1.313-3.266v-.25c0-2.515 1.234-2.875 1.75-2.875.234 0 .656.063.874.407-.156 0-.546 0-.546.437 0 .313.234.469.453.469.156 0 .469-.094.469-.484 0-.594-.438-1.079-1.266-1.079C1.766-6.64.422-5.359.422-3.156.422-.484 1.578.219 2.5.219c1.11 0 2.063-.938 2.063-2.25 0-1.266-.891-2.219-2-2.219-.672 0-1.047.5-1.25.984zM2.5-.062c-.625 0-.922-.594-.984-.75-.188-.47-.188-1.266-.188-1.438 0-.781.328-1.781 1.219-1.781.172 0 .625 0 .937.625.172.36.172.875.172 1.36 0 .483 0 .983-.172 1.343-.296.594-.75.64-.984.64zm0 0"/></symbol></defs><use height="1052.362" width="744.094" xlink:href="#ab" x="223.432" y="134.765"/><use height="1052.362" width="744.094" xlink:href="#ac" x="228.413" y="134.765"/><use height="1052.362" width="744.094" xlink:href="#ab" x="231.181" y="134.765"/><use height="1052.362" width="744.094" xlink:href="#ad" x="236.162" y="134.765"/></g><g transform="translate(-174.566 273.726) scale(1.39648)" ns0:preamble="/home/waldgeist/data/sphinx/inkscape-preamble.tex" ns0:text="0,07" fill="#4d4d4d"><defs><symbol id="ae" overflow="visible"><path d="M4.578-3.188c0-.796-.047-1.593-.39-2.328C3.733-6.484 2.905-6.64 2.5-6.64c-.61 0-1.328.266-1.75 1.188-.313.687-.36 1.469-.36 2.266 0 .75.032 1.64.454 2.406a1.83 1.83 0 0 0 1.64 1c.532 0 1.297-.203 1.735-1.157.312-.687.36-1.468.36-2.25zM2.484 0c-.39 0-.984-.25-1.156-1.203-.11-.594-.11-1.516-.11-2.11 0-.64 0-1.296.079-1.828.187-1.187.937-1.28 1.187-1.28.329 0 .985.187 1.172 1.171.11.563.11 1.313.11 1.938 0 .75 0 1.421-.11 2.062C3.5-.297 2.937 0 2.484 0zm0 0"/></symbol><symbol id="af" overflow="visible"><path d="M2.031-.016c0-.625-.25-1.046-.64-1.046-.36 0-.532.28-.532.53 0 .266.172.532.532.532a.578.578 0 0 0 .375-.14l.015-.016c.016 0 .016 0 .016.14 0 .641-.266 1.25-.703 1.72-.063.062-.078.077-.078.109 0 .078.046.109.093.109.125 0 .922-.781.922-1.938zm0 0"/></symbol><symbol id="ag" overflow="visible"><path d="M4.75-6.078c.078-.11.078-.125.078-.344H2.406c-1.203 0-1.234-.125-1.265-.312H.89L.562-4.688h.25c.032-.156.11-.78.25-.906.063-.062.844-.062.97-.062h2.062c-.11.156-.89 1.25-1.11 1.578C2.078-2.734 1.75-1.344 1.75-.328c0 .094 0 .547.469.547.453 0 .453-.453.453-.547v-.516c0-.547.031-1.094.11-1.625.046-.234.171-1.094.624-1.703zm0 0"/></symbol></defs><use height="1052.362" width="744.094" y="134.765" x="223.432" xlink:href="#ae"/><use height="1052.362" width="744.094" y="134.765" x="228.413" xlink:href="#af"/><use height="1052.362" width="744.094" y="134.765" x="231.181" xlink:href="#ae"/><use height="1052.362" width="744.094" y="134.765" x="236.162" xlink:href="#ag"/></g><g ns0:text="0,08" ns0:preamble="/home/waldgeist/data/sphinx/inkscape-preamble.tex" transform="translate(-174.195 232.622) scale(1.39648)" fill="#4d4d4d"><defs><symbol overflow="visible" id="ah"><path d="M4.578-3.188c0-.796-.047-1.593-.39-2.328C3.733-6.484 2.905-6.64 2.5-6.64c-.61 0-1.328.266-1.75 1.188-.313.687-.36 1.469-.36 2.266 0 .75.032 1.64.454 2.406a1.83 1.83 0 0 0 1.64 1c.532 0 1.297-.203 1.735-1.157.312-.687.36-1.468.36-2.25zM2.484 0c-.39 0-.984-.25-1.156-1.203-.11-.594-.11-1.516-.11-2.11 0-.64 0-1.296.079-1.828.187-1.187.937-1.28 1.187-1.28.329 0 .985.187 1.172 1.171.11.563.11 1.313.11 1.938 0 .75 0 1.421-.11 2.062C3.5-.297 2.937 0 2.484 0zm0 0"/></symbol><symbol overflow="visible" id="ai"><path d="M2.031-.016c0-.625-.25-1.046-.64-1.046-.36 0-.532.28-.532.53 0 .266.172.532.532.532a.578.578 0 0 0 .375-.14l.015-.016c.016 0 .016 0 .016.14 0 .641-.266 1.25-.703 1.72-.063.062-.078.077-.078.109 0 .078.046.109.093.109.125 0 .922-.781.922-1.938zm0 0"/></symbol><symbol overflow="visible" id="aj"><path d="M1.625-4.563c-.453-.296-.5-.625-.5-.796 0-.61.656-1.032 1.36-1.032.718 0 1.359.516 1.359 1.235 0 .578-.39 1.047-.985 1.39zm1.453.954c.719-.375 1.203-.891 1.203-1.547 0-.922-.875-1.485-1.781-1.485-1 0-1.813.735-1.813 1.672 0 .172.016.625.438 1.094.11.11.484.36.734.531C1.281-3.047.422-2.5.422-1.5.422-.453 1.438.219 2.484.219c1.125 0 2.079-.828 2.079-1.89 0-.36-.11-.813-.5-1.235-.188-.203-.344-.297-.985-.703zm-1 .421l1.235.782c.28.187.75.484.75 1.094 0 .734-.75 1.25-1.563 1.25C1.64-.063.922-.672.922-1.5c0-.578.312-1.219 1.156-1.688zm0 0"/></symbol></defs><use height="1052.362" width="744.094" xlink:href="#ah" x="223.432" y="134.765"/><use height="1052.362" width="744.094" xlink:href="#ai" x="228.413" y="134.765"/><use height="1052.362" width="744.094" xlink:href="#ah" x="231.181" y="134.765"/><use height="1052.362" width="744.094" xlink:href="#aj" x="236.162" y="134.765"/></g><g transform="translate(-174.195 191.988) scale(1.39648)" ns0:preamble="/home/waldgeist/data/sphinx/inkscape-preamble.tex" ns0:text="0,09" fill="#4d4d4d"><defs><symbol id="ak" overflow="visible"><path d="M4.578-3.188c0-.796-.047-1.593-.39-2.328C3.733-6.484 2.905-6.64 2.5-6.64c-.61 0-1.328.266-1.75 1.188-.313.687-.36 1.469-.36 2.266 0 .75.032 1.64.454 2.406a1.83 1.83 0 0 0 1.64 1c.532 0 1.297-.203 1.735-1.157.312-.687.36-1.468.36-2.25zM2.484 0c-.39 0-.984-.25-1.156-1.203-.11-.594-.11-1.516-.11-2.11 0-.64 0-1.296.079-1.828.187-1.187.937-1.28 1.187-1.28.329 0 .985.187 1.172 1.171.11.563.11 1.313.11 1.938 0 .75 0 1.421-.11 2.062C3.5-.297 2.937 0 2.484 0zm0 0"/></symbol><symbol id="al" overflow="visible"><path d="M2.031-.016c0-.625-.25-1.046-.64-1.046-.36 0-.532.28-.532.53 0 .266.172.532.532.532a.578.578 0 0 0 .375-.14l.015-.016c.016 0 .016 0 .016.14 0 .641-.266 1.25-.703 1.72-.063.062-.078.077-.078.109 0 .078.046.109.093.109.125 0 .922-.781.922-1.938zm0 0"/></symbol><symbol id="am" overflow="visible"><path d="M3.656-3.172v.328c0 2.328-1.031 2.781-1.61 2.781-.171 0-.718-.015-.983-.359.437 0 .515-.281.515-.453 0-.313-.234-.453-.453-.453-.156 0-.453.078-.453.469 0 .671.531 1.078 1.375 1.078 1.297 0 2.515-1.36 2.515-3.5 0-2.688-1.156-3.36-2.046-3.36-.547 0-1.032.188-1.454.625-.421.454-.64.875-.64 1.625 0 1.235.875 2.22 1.984 2.22.61 0 1.016-.423 1.25-1zm-1.234.766c-.156 0-.625 0-.922-.625-.188-.375-.188-.86-.188-1.36 0-.53 0-1 .22-1.375.265-.5.64-.625.984-.625.468 0 .796.344.968.782.11.328.157.953.157 1.406 0 .828-.344 1.797-1.22 1.797zm0 0"/></symbol></defs><use height="1052.362" width="744.094" y="134.765" x="223.432" xlink:href="#ak"/><use height="1052.362" width="744.094" y="134.765" x="228.413" xlink:href="#al"/><use height="1052.362" width="744.094" y="134.765" x="231.181" xlink:href="#ak"/><use height="1052.362" width="744.094" y="134.765" x="236.162" xlink:href="#am"/></g><g ns0:text="0,10" ns0:preamble="/home/waldgeist/data/sphinx/inkscape-preamble.tex" transform="translate(-174.217 153.233) scale(1.39648)" fill="#4d4d4d"><defs><symbol overflow="visible" id="an"><path d="M4.578-3.188c0-.796-.047-1.593-.39-2.328C3.733-6.484 2.905-6.64 2.5-6.64c-.61 0-1.328.266-1.75 1.188-.313.687-.36 1.469-.36 2.266 0 .75.032 1.64.454 2.406a1.83 1.83 0 0 0 1.64 1c.532 0 1.297-.203 1.735-1.157.312-.687.36-1.468.36-2.25zM2.484 0c-.39 0-.984-.25-1.156-1.203-.11-.594-.11-1.516-.11-2.11 0-.64 0-1.296.079-1.828.187-1.187.937-1.28 1.187-1.28.329 0 .985.187 1.172 1.171.11.563.11 1.313.11 1.938 0 .75 0 1.421-.11 2.062C3.5-.297 2.937 0 2.484 0zm0 0"/></symbol><symbol overflow="visible" id="ao"><path d="M2.031-.016c0-.625-.25-1.046-.64-1.046-.36 0-.532.28-.532.53 0 .266.172.532.532.532a.578.578 0 0 0 .375-.14l.015-.016c.016 0 .016 0 .016.14 0 .641-.266 1.25-.703 1.72-.063.062-.078.077-.078.109 0 .078.046.109.093.109.125 0 .922-.781.922-1.938zm0 0"/></symbol><symbol overflow="visible" id="ap"><path d="M2.938-6.375c0-.25 0-.266-.235-.266C2.078-6 1.203-6 .891-6v.313c.203 0 .78 0 1.296-.266v5.172c0 .36-.03.469-.921.469H.953V0c.344-.031 1.203-.031 1.61-.031.39 0 1.265 0 1.609.031v-.313h-.313c-.906 0-.921-.109-.921-.468zm0 0"/></symbol></defs><use height="1052.362" width="744.094" xlink:href="#an" x="223.432" y="134.765"/><use height="1052.362" width="744.094" xlink:href="#ao" x="228.413" y="134.765"/><use height="1052.362" width="744.094" xlink:href="#ap" x="231.181" y="134.765"/><use height="1052.362" width="744.094" xlink:href="#an" x="236.162" y="134.765"/></g><path d="M172.604 578.43h-6.41M172.604 537.96h-6.41M172.604 497.488h-6.41M172.604 457.017h-6.41M172.604 416.546h-6.41M172.604 376.075h-6.41M172.604 335.604h-6.41" fill="none" stroke="#000" stroke-width="1.558" stroke-linecap="round"/><path d="M169.399 740.314l400.662-404.71M169.399 740.314l202.355-404.71M169.399 740.314l404.71-202.355" fill="none" stroke="teal" stroke-width="3" stroke-linecap="round"/><g transform="matrix(1.86584 0 0 1.86584 63.36 193.4)" ns0:preamble="/home/waldgeist/data/sphinx/inkscape-preamble.tex" ns0:text="$R = \\unit[100]{\\Omega}$" fill="teal"><defs><symbol id="aq" overflow="visible"><path d="M3.734-6.125c.063-.234.094-.328.282-.36.093-.015.406-.015.609-.015.703 0 1.813 0 1.813.984 0 .344-.157 1.032-.547 1.422-.266.25-.782.578-1.688.578h-1.11zm1.438 2.734c1.016-.218 2.187-.921 2.187-1.921 0-.86-.89-1.5-2.203-1.5H2.328c-.203 0-.297 0-.297.203 0 .109.094.109.281.109.016 0 .204 0 .376.016.187.03.265.03.265.171 0 .032 0 .063-.031.188L1.578-.781c-.094.39-.11.469-.906.469-.172 0-.266 0-.266.203C.406 0 .531 0 .546 0c.282 0 .985-.031 1.25-.031.282 0 1 .031 1.282.031.078 0 .188 0 .188-.203 0-.11-.079-.11-.282-.11-.359 0-.64 0-.64-.171 0-.063.015-.11.031-.172l.656-2.64H4.22c.906 0 1.078.562 1.078.905 0 .141-.078.454-.14.688-.063.281-.157.64-.157.844C5 .219 6.203.219 6.328.219c.844 0 1.203-1 1.203-1.14 0-.126-.11-.126-.125-.126-.093 0-.11.063-.125.14-.25.735-.687.907-.906.907-.328 0-.406-.219-.406-.61 0-.312.062-.812.11-1.14.015-.14.03-.328.03-.469 0-.765-.671-1.078-.937-1.172zm0 0"/></symbol><symbol id="ar" overflow="visible"><path d="M6.844-3.266c.156 0 .343 0 .343-.187 0-.203-.187-.203-.328-.203H.891c-.141 0-.329 0-.329.203 0 .187.188.187.329.187zm.015 1.938c.141 0 .329 0 .329-.203 0-.188-.188-.188-.344-.188H.89c-.141 0-.329 0-.329.188 0 .203.188.203.329.203zm0 0"/></symbol><symbol id="as" overflow="visible"><path d="M2.938-6.375c0-.25 0-.266-.235-.266C2.078-6 1.203-6 .891-6v.313c.203 0 .78 0 1.296-.266v5.172c0 .36-.03.469-.921.469H.953V0c.344-.031 1.203-.031 1.61-.031.39 0 1.265 0 1.609.031v-.313h-.313c-.906 0-.921-.109-.921-.468zm0 0"/></symbol><symbol id="at" overflow="visible"><path d="M4.578-3.188c0-.796-.047-1.593-.39-2.328C3.733-6.484 2.905-6.64 2.5-6.64c-.61 0-1.328.266-1.75 1.188-.313.687-.36 1.469-.36 2.266 0 .75.032 1.64.454 2.406a1.83 1.83 0 0 0 1.64 1c.532 0 1.297-.203 1.735-1.157.312-.687.36-1.468.36-2.25zM2.484 0c-.39 0-.984-.25-1.156-1.203-.11-.594-.11-1.516-.11-2.11 0-.64 0-1.296.079-1.828.187-1.187.937-1.28 1.187-1.28.329 0 .985.187 1.172 1.171.11.563.11 1.313.11 1.938 0 .75 0 1.421-.11 2.062C3.5-.297 2.937 0 2.484 0zm0 0"/></symbol><symbol id="au" overflow="visible"><path d="M6.75-1.61H6.5a3.74 3.74 0 0 1-.188.72c-.046.156-.078.25-.656.25H4.86c.141-.563.438-1.047.891-1.704.469-.703.875-1.39.875-2.187 0-1.375-1.344-2.5-3.031-2.5-1.703 0-3.031 1.14-3.031 2.5 0 .797.406 1.484.875 2.187.437.656.75 1.14.89 1.703h-.797c-.578 0-.61-.093-.656-.234-.094-.234-.14-.484-.188-.734h-.25L.766 0h1.593c.22 0 .25 0 .25-.203 0-.703-.312-1.578-.53-2.219-.22-.578-.5-1.36-.5-2.11 0-1.593 1.109-2.28 2.015-2.28.953 0 2.015.718 2.015 2.28 0 .75-.28 1.5-.562 2.313-.156.422-.469 1.328-.469 2.016 0 .203.031.203.25.203h1.594zm0 0"/></symbol></defs><use y="134.765" x="223.432" xlink:href="#aq" width="744.094" height="1052.362"/><use y="134.765" x="233.841" xlink:href="#ar" width="744.094" height="1052.362"/><use y="134.765" x="244.36" xlink:href="#as" width="744.094" height="1052.362"/><use y="134.765" x="249.341" xlink:href="#at" width="744.094" height="1052.362"/><use y="134.765" x="254.322" xlink:href="#at" width="744.094" height="1052.362"/><g><use y="134.765" x="260.957" xlink:href="#au" width="744.094" height="1052.362"/></g></g><g ns0:text="$R = \\unit[200]{\\Omega}$" ns0:preamble="/home/waldgeist/data/sphinx/inkscape-preamble.tex" transform="matrix(1.86584 0 0 1.86584 60.16 353.634)" fill="teal"><defs><symbol overflow="visible" id="av"><path d="M3.734-6.125c.063-.234.094-.328.282-.36.093-.015.406-.015.609-.015.703 0 1.813 0 1.813.984 0 .344-.157 1.032-.547 1.422-.266.25-.782.578-1.688.578h-1.11zm1.438 2.734c1.016-.218 2.187-.921 2.187-1.921 0-.86-.89-1.5-2.203-1.5H2.328c-.203 0-.297 0-.297.203 0 .109.094.109.281.109.016 0 .204 0 .376.016.187.03.265.03.265.171 0 .032 0 .063-.031.188L1.578-.781c-.094.39-.11.469-.906.469-.172 0-.266 0-.266.203C.406 0 .531 0 .546 0c.282 0 .985-.031 1.25-.031.282 0 1 .031 1.282.031.078 0 .188 0 .188-.203 0-.11-.079-.11-.282-.11-.359 0-.64 0-.64-.171 0-.063.015-.11.031-.172l.656-2.64H4.22c.906 0 1.078.562 1.078.905 0 .141-.078.454-.14.688-.063.281-.157.64-.157.844C5 .219 6.203.219 6.328.219c.844 0 1.203-1 1.203-1.14 0-.126-.11-.126-.125-.126-.093 0-.11.063-.125.14-.25.735-.687.907-.906.907-.328 0-.406-.219-.406-.61 0-.312.062-.812.11-1.14.015-.14.03-.328.03-.469 0-.765-.671-1.078-.937-1.172zm0 0"/></symbol><symbol overflow="visible" id="aw"><path d="M6.844-3.266c.156 0 .343 0 .343-.187 0-.203-.187-.203-.328-.203H.891c-.141 0-.329 0-.329.203 0 .187.188.187.329.187zm.015 1.938c.141 0 .329 0 .329-.203 0-.188-.188-.188-.344-.188H.89c-.141 0-.329 0-.329.188 0 .203.188.203.329.203zm0 0"/></symbol><symbol overflow="visible" id="ax"><path d="M1.266-.766l1.062-1.03c1.547-1.376 2.14-1.907 2.14-2.907 0-1.14-.89-1.938-2.109-1.938C1.234-6.64.5-5.719.5-4.828c0 .547.5.547.531.547.172 0 .516-.11.516-.532a.513.513 0 0 0-.531-.515c-.079 0-.094 0-.125.016.218-.657.765-1.016 1.343-1.016.907 0 1.329.812 1.329 1.625 0 .797-.485 1.578-1.047 2.203L.609-.375C.5-.265.5-.235.5 0h3.703l.266-1.734h-.235C4.172-1.438 4.11-1 4-.844c-.063.078-.719.078-.938.078zm0 0"/></symbol><symbol overflow="visible" id="ay"><path d="M4.578-3.188c0-.796-.047-1.593-.39-2.328C3.733-6.484 2.905-6.64 2.5-6.64c-.61 0-1.328.266-1.75 1.188-.313.687-.36 1.469-.36 2.266 0 .75.032 1.64.454 2.406a1.83 1.83 0 0 0 1.64 1c.532 0 1.297-.203 1.735-1.157.312-.687.36-1.468.36-2.25zM2.484 0c-.39 0-.984-.25-1.156-1.203-.11-.594-.11-1.516-.11-2.11 0-.64 0-1.296.079-1.828.187-1.187.937-1.28 1.187-1.28.329 0 .985.187 1.172 1.171.11.563.11 1.313.11 1.938 0 .75 0 1.421-.11 2.062C3.5-.297 2.937 0 2.484 0zm0 0"/></symbol><symbol overflow="visible" id="az"><path d="M6.75-1.61H6.5a3.74 3.74 0 0 1-.188.72c-.046.156-.078.25-.656.25H4.86c.141-.563.438-1.047.891-1.704.469-.703.875-1.39.875-2.187 0-1.375-1.344-2.5-3.031-2.5-1.703 0-3.031 1.14-3.031 2.5 0 .797.406 1.484.875 2.187.437.656.75 1.14.89 1.703h-.797c-.578 0-.61-.093-.656-.234-.094-.234-.14-.484-.188-.734h-.25L.766 0h1.593c.22 0 .25 0 .25-.203 0-.703-.312-1.578-.53-2.219-.22-.578-.5-1.36-.5-2.11 0-1.593 1.109-2.28 2.015-2.28.953 0 2.015.718 2.015 2.28 0 .75-.28 1.5-.562 2.313-.156.422-.469 1.328-.469 2.016 0 .203.031.203.25.203h1.594zm0 0"/></symbol></defs><use xlink:href="#av" x="223.432" y="134.765" width="744.094" height="1052.362"/><use xlink:href="#aw" x="233.841" y="134.765" width="744.094" height="1052.362"/><use xlink:href="#ax" x="244.36" y="134.765" width="744.094" height="1052.362"/><use xlink:href="#ay" x="249.341" y="134.765" width="744.094" height="1052.362"/><use xlink:href="#ay" x="254.322" y="134.765" width="744.094" height="1052.362"/><g><use xlink:href="#az" x="260.957" y="134.765" width="744.094" height="1052.362"/></g></g><g transform="matrix(1.86584 0 0 1.86584 -46.692 110.136)" ns0:preamble="/home/waldgeist/data/sphinx/inkscape-preamble.tex" ns0:text="$R = \\unit[50]{\\Omega}$" fill="teal"><defs><symbol id="aA" overflow="visible"><path d="M3.734-6.125c.063-.234.094-.328.282-.36.093-.015.406-.015.609-.015.703 0 1.813 0 1.813.984 0 .344-.157 1.032-.547 1.422-.266.25-.782.578-1.688.578h-1.11zm1.438 2.734c1.016-.218 2.187-.921 2.187-1.921 0-.86-.89-1.5-2.203-1.5H2.328c-.203 0-.297 0-.297.203 0 .109.094.109.281.109.016 0 .204 0 .376.016.187.03.265.03.265.171 0 .032 0 .063-.031.188L1.578-.781c-.094.39-.11.469-.906.469-.172 0-.266 0-.266.203C.406 0 .531 0 .546 0c.282 0 .985-.031 1.25-.031.282 0 1 .031 1.282.031.078 0 .188 0 .188-.203 0-.11-.079-.11-.282-.11-.359 0-.64 0-.64-.171 0-.063.015-.11.031-.172l.656-2.64H4.22c.906 0 1.078.562 1.078.905 0 .141-.078.454-.14.688-.063.281-.157.64-.157.844C5 .219 6.203.219 6.328.219c.844 0 1.203-1 1.203-1.14 0-.126-.11-.126-.125-.126-.093 0-.11.063-.125.14-.25.735-.687.907-.906.907-.328 0-.406-.219-.406-.61 0-.312.062-.812.11-1.14.015-.14.03-.328.03-.469 0-.765-.671-1.078-.937-1.172zm0 0"/></symbol><symbol id="aB" overflow="visible"><path d="M6.844-3.266c.156 0 .343 0 .343-.187 0-.203-.187-.203-.328-.203H.891c-.141 0-.329 0-.329.203 0 .187.188.187.329.187zm.015 1.938c.141 0 .329 0 .329-.203 0-.188-.188-.188-.344-.188H.89c-.141 0-.329 0-.329.188 0 .203.188.203.329.203zm0 0"/></symbol><symbol id="aC" overflow="visible"><path d="M4.469-2c0-1.188-.813-2.188-1.89-2.188-.47 0-.907.157-1.267.516v-1.953c.204.063.532.125.844.125 1.235 0 1.938-.906 1.938-1.031 0-.063-.032-.11-.11-.11 0 0-.03 0-.078.032a3.22 3.22 0 0 1-1.36.296c-.39 0-.858-.078-1.327-.28-.078-.032-.094-.032-.11-.032C1-6.625 1-6.547 1-6.391v2.954c0 .171 0 .25.14.25.079 0 .094-.016.141-.079.11-.156.469-.703 1.282-.703.515 0 .765.453.843.64.156.376.188.75.188 1.25 0 .36 0 .954-.25 1.376-.235.39-.61.64-1.063.64-.719 0-1.297-.53-1.469-1.109.032 0 .063.016.172.016.329 0 .5-.25.5-.485 0-.25-.171-.5-.5-.5-.14 0-.484.079-.484.532C.5-.75 1.188.219 2.297.219 3.453.219 4.469-.734 4.469-2zm0 0"/></symbol><symbol id="aD" overflow="visible"><path d="M4.578-3.188c0-.796-.047-1.593-.39-2.328C3.733-6.484 2.905-6.64 2.5-6.64c-.61 0-1.328.266-1.75 1.188-.313.687-.36 1.469-.36 2.266 0 .75.032 1.64.454 2.406a1.83 1.83 0 0 0 1.64 1c.532 0 1.297-.203 1.735-1.157.312-.687.36-1.468.36-2.25zM2.484 0c-.39 0-.984-.25-1.156-1.203-.11-.594-.11-1.516-.11-2.11 0-.64 0-1.296.079-1.828.187-1.187.937-1.28 1.187-1.28.329 0 .985.187 1.172 1.171.11.563.11 1.313.11 1.938 0 .75 0 1.421-.11 2.062C3.5-.297 2.937 0 2.484 0zm0 0"/></symbol><symbol id="aE" overflow="visible"><path d="M6.75-1.61H6.5a3.74 3.74 0 0 1-.188.72c-.046.156-.078.25-.656.25H4.86c.141-.563.438-1.047.891-1.704.469-.703.875-1.39.875-2.187 0-1.375-1.344-2.5-3.031-2.5-1.703 0-3.031 1.14-3.031 2.5 0 .797.406 1.484.875 2.187.437.656.75 1.14.89 1.703h-.797c-.578 0-.61-.093-.656-.234-.094-.234-.14-.484-.188-.734h-.25L.766 0h1.593c.22 0 .25 0 .25-.203 0-.703-.312-1.578-.53-2.219-.22-.578-.5-1.36-.5-2.11 0-1.593 1.109-2.28 2.015-2.28.953 0 2.015.718 2.015 2.28 0 .75-.28 1.5-.562 2.313-.156.422-.469 1.328-.469 2.016 0 .203.031.203.25.203h1.594zm0 0"/></symbol></defs><use y="134.765" x="223.432" xlink:href="#aA" width="744.094" height="1052.362"/><use y="134.765" x="233.841" xlink:href="#aB" width="744.094" height="1052.362"/><use y="134.765" x="244.36" xlink:href="#aC" width="744.094" height="1052.362"/><use y="134.765" x="249.341" xlink:href="#aD" width="744.094" height="1052.362"/><g><use y="134.765" x="255.976" xlink:href="#aE" width="744.094" height="1052.362"/></g></g></svg>