<svg xmlns:ns0="http://www.iki.fi/pav/software/textext/" xmlns="http://www.w3.org/2000/svg" xmlns:xlink="http://www.w3.org/1999/xlink" width="1052.362" height="744.094"><title>Gleichspannung (Diagramm)</title><defs><marker id="a" orient="auto" overflow="visible"><path d="M2.308 0l-3.46 2v-4l3.46 2z" fill-rule="evenodd" stroke="#000" stroke-width=".4pt"/></marker></defs><path style="marker:none" color="#000" fill="#fff" stroke="#fff" stroke-linecap="round" stroke-linejoin="bevel" stroke-dasharray=".99999999,2.99999995" overflow="visible" d="M11.274 151.12h1029.814v441.855H11.274z"/><g stroke="#ccc" stroke-width="1.127" fill="none"><g stroke-width="2.777"><path d="M132.13 210.072v324.351M164.566 210.072v324.351M197.001 210.072v324.351M229.436 210.072v324.351M261.871 210.072v324.351M294.306 210.072v324.351M326.742 210.072v324.351M359.177 210.072v324.351M391.612 210.072v324.351" stroke-width=".9007199500000002"/></g><g stroke-width="2.777"><path d="M99.696 242.507h324.351M99.696 274.942h324.351M99.696 307.377h324.351M99.696 339.812h324.351M99.696 372.247h324.351M99.696 404.683h324.351M99.696 437.118h324.351M99.696 469.553h324.351M99.696 501.988h324.351" stroke-width=".9007199500000002"/></g><g stroke-width=".926"><path d="M102.94 210.072v324.351M106.183 210.072v324.351M109.426 210.072v324.351M112.67 210.072v324.351M115.913 210.072v324.351M119.157 210.072v324.351M122.4 210.072v324.351M125.644 210.072v324.351M128.887 210.072v324.351M135.374 210.072v324.351M138.618 210.072v324.351M141.861 210.072v324.351M145.105 210.072v324.351M148.348 210.072v324.351M151.592 210.072v324.351M154.835 210.072v324.351M158.079 210.072v324.351M161.322 210.072v324.351M167.81 210.072v324.351M171.053 210.072v324.351M174.296 210.072v324.351M177.54 210.072v324.351M180.783 210.072v324.351M184.027 210.072v324.351M187.27 210.072v324.351M190.514 210.072v324.351M193.758 210.072v324.351M200.245 210.072v324.351M203.488 210.072v324.351M206.732 210.072v324.351M209.975 210.072v324.351M213.219 210.072v324.351M216.462 210.072v324.351M219.706 210.072v324.351M222.95 210.072v324.351M226.193 210.072v324.351M232.68 210.072v324.351M235.923 210.072v324.351M239.167 210.072v324.351M242.41 210.072v324.351M245.654 210.072v324.351M248.897 210.072v324.351M252.14 210.072v324.351M255.384 210.072v324.351M258.628 210.072v324.351M265.115 210.072v324.351M268.358 210.072v324.351M271.602 210.072v324.351M274.845 210.072v324.351M278.089 210.072v324.351M281.332 210.072v324.351M284.576 210.072v324.351M287.82 210.072v324.351M291.063 210.072v324.351M297.55 210.072v324.351M300.793 210.072v324.351M304.037 210.072v324.351M307.28 210.072v324.351M310.524 210.072v324.351M313.768 210.072v324.351M317.011 210.072v324.351M320.255 210.072v324.351M323.498 210.072v324.351M329.985 210.072v324.351M333.229 210.072v324.351M336.472 210.072v324.351M339.716 210.072v324.351M342.96 210.072v324.351M346.203 210.072v324.351M349.446 210.072v324.351M352.69 210.072v324.351M355.933 210.072v324.351M362.42 210.072v324.351M365.664 210.072v324.351M368.907 210.072v324.351M372.15 210.072v324.351M375.394 210.072v324.351M378.638 210.072v324.351M381.881 210.072v324.351M385.125 210.072v324.351M388.368 210.072v324.351M394.855 210.072v324.351M398.099 210.072v324.351M401.342 210.072v324.351M404.586 210.072v324.351M407.83 210.072v324.351M411.073 210.072v324.351M414.316 210.072v324.351M417.56 210.072v324.351M420.803 210.072v324.351" stroke-width=".30034810000000006"/></g><g stroke-width=".926"><path d="M99.696 213.315h324.351M99.696 216.559h324.351M99.696 219.802h324.351M99.696 223.046h324.351M99.696 226.29h324.351M99.696 229.533h324.351M99.696 232.776h324.351M99.696 236.02h324.351M99.696 239.263h324.351M99.696 245.75h324.351M99.696 248.994h324.351M99.696 252.237h324.351M99.696 255.48h324.351M99.696 258.724h324.351M99.696 261.968h324.351M99.696 265.211h324.351M99.696 268.455h324.351M99.696 271.698h324.351M99.696 278.186h324.351M99.696 281.429h324.351M99.696 284.673h324.351M99.696 287.916h324.351M99.696 291.16h324.351M99.696 294.403h324.351M99.696 297.647h324.351M99.696 300.89h324.351M99.696 304.134h324.351M99.696 310.62h324.351M99.696 313.864h324.351M99.696 317.108h324.351M99.696 320.351h324.351M99.696 323.595h324.351M99.696 326.838h324.351M99.696 330.082h324.351M99.696 333.325h324.351M99.696 336.569h324.351M99.696 343.056h324.351M99.696 346.3h324.351M99.696 349.543h324.351M99.696 352.786h324.351M99.696 356.03h324.351M99.696 359.273h324.351M99.696 362.517h324.351M99.696 365.76h324.351M99.696 369.004h324.351M99.696 375.49h324.351M99.696 378.734h324.351M99.696 381.978h324.351M99.696 385.221h324.351M99.696 388.465h324.351M99.696 391.708h324.351M99.696 394.952h324.351M99.696 398.196h324.351M99.696 401.439h324.351M99.696 407.926h324.351M99.696 411.17h324.351M99.696 414.413h324.351M99.696 417.657h324.351M99.696 420.9h324.351M99.696 424.144h324.351M99.696 427.387h324.351M99.696 430.63h324.351M99.696 433.874h324.351M99.696 440.361h324.351M99.696 443.605h324.351M99.696 446.848h324.351M99.696 450.092h324.351M99.696 453.335h324.351M99.696 456.579h324.351M99.696 459.822h324.351M99.696 463.066h324.351M99.696 466.31h324.351M99.696 472.796h324.351M99.696 476.04h324.351M99.696 479.283h324.351M99.696 482.527h324.351M99.696 485.77h324.351M99.696 489.014h324.351M99.696 492.257h324.351M99.696 495.5h324.351M99.696 498.744h324.351M99.696 505.231h324.351M99.696 508.475h324.351M99.696 511.719h324.351M99.696 514.962h324.351M99.696 518.206h324.351M99.696 521.45h324.351M99.696 524.693h324.351M99.696 527.936h324.351M99.696 531.18h324.351" stroke-width=".30034810000000006"/></g><path stroke-width=".9007199500000002" d="M99.696 210.072h324.351v324.351H99.696z"/></g><path d="M294.306 369.721v5.052M391.612 369.721v5.052" fill="none" stroke="#000" stroke-width="1.774" stroke-linecap="round"/><path d="M99.692 872.83V491.499" fill="none" stroke="#000" stroke-width="1.774" marker-end="url(#a)" transform="translate(0 -308.268)"/><path d="M102.264 307.377h-5.137M102.264 437.118h-5.137" fill="none" stroke="#000" stroke-width="1.382" stroke-linecap="round"/><path d="M132.13 369.721v5.052M197.001 369.721v5.052M229.436 369.721v5.052M359.177 369.721v5.052M261.871 369.721v5.052M424.047 369.721v5.052M164.566 369.721v5.052M326.742 369.722v5.051" fill="none" stroke="#000" stroke-width="1.774" stroke-linecap="round"/><g ns0:preamble="/home/waldgeist/data/sphinx/inkscape-preamble.tex" ns0:text="\\centering\nSpannung \\\\\nin Volt" fill="#4d4d4d"><g transform="matrix(1.53336 0 0 1.53336 -549.476 -17.218)"><use y="134.765" x="373.84" xlink:href="#b" width="744.094" height="1052.362"/><use y="134.765" x="379.375" xlink:href="#c" width="744.094" height="1052.362"/><use y="134.765" x="384.91" xlink:href="#d" width="744.094" height="1052.362"/><use y="134.765" x="389.892" xlink:href="#e" width="744.094" height="1052.362"/><use y="134.765" x="395.427" xlink:href="#e" width="744.094" height="1052.362"/></g><g transform="matrix(1.53336 0 0 1.53336 -549.476 -17.218)"><use y="134.765" x="400.683" xlink:href="#f" width="744.094" height="1052.362"/><use y="134.765" x="406.218" xlink:href="#e" width="744.094" height="1052.362"/><use y="134.765" x="411.754" xlink:href="#g" width="744.094" height="1052.362"/></g><g transform="matrix(1.53336 0 0 1.53336 -549.476 -17.218)"><use y="146.72" x="380.344" xlink:href="#h" width="744.094" height="1052.362"/><use y="146.72" x="383.112" xlink:href="#e" width="744.094" height="1052.362"/></g><use y="146.72" x="391.964" xlink:href="#i" width="744.094" height="1052.362" transform="matrix(1.53336 0 0 1.53336 -549.476 -17.218)"/><g transform="matrix(1.53336 0 0 1.53336 -549.476 -17.218)"><use y="146.72" x="398.609" xlink:href="#j" width="744.094" height="1052.362"/><use y="146.72" x="403.591" xlink:href="#k" width="744.094" height="1052.362"/><use y="146.72" x="406.358" xlink:href="#l" width="744.094" height="1052.362"/></g></g><path d="M102.264 242.507h-5.137M102.264 501.988h-5.137" fill="none" stroke="#000" stroke-width="1.382" stroke-linecap="round"/><g ns0:text="\\centering\nZeit \\\\\nin Sekunden\n" ns0:preamble="/home/waldgeist/data/sphinx/inkscape-preamble.tex" fill="#4d4d4d"><g transform="matrix(1.53336 0 0 1.53336 -129.182 186.838)"><use height="1052.362" width="744.094" xlink:href="#m" x="386.709" y="134.765"/><use height="1052.362" width="744.094" xlink:href="#n" x="392.797" y="134.765"/><use height="1052.362" width="744.094" xlink:href="#o" x="397.225" y="134.765"/><use height="1052.362" width="744.094" xlink:href="#p" x="399.992" y="134.765"/></g><g transform="matrix(1.53336 0 0 1.53336 -129.182 186.838)"><use height="1052.362" width="744.094" xlink:href="#o" x="368.582" y="146.72"/><use height="1052.362" width="744.094" xlink:href="#q" x="371.35" y="146.72"/></g><g transform="matrix(1.53336 0 0 1.53336 -129.182 186.838)"><use height="1052.362" width="744.094" xlink:href="#r" x="380.202" y="146.72"/><use height="1052.362" width="744.094" xlink:href="#n" x="385.738" y="146.72"/><use height="1052.362" width="744.094" xlink:href="#s" x="390.165" y="146.72"/><use height="1052.362" width="744.094" xlink:href="#t" x="395.423" y="146.72"/><use height="1052.362" width="744.094" xlink:href="#q" x="400.958" y="146.72"/><use height="1052.362" width="744.094" xlink:href="#u" x="406.494" y="146.72"/><use height="1052.362" width="744.094" xlink:href="#n" x="412.029" y="146.72"/><use height="1052.362" width="744.094" xlink:href="#q" x="416.456" y="146.72"/></g></g><path d="M99.696 300.89h324.351" fill="#f60" stroke="purple" stroke-width="3" stroke-linecap="round"/><path d="M99.692 680.515h383.723" fill="none" stroke="#000" stroke-width="1.774" marker-end="url(#a)" transform="translate(0 -308.268)"/><g ns0:text="10" ns0:preamble="/home/waldgeist/data/sphinx/inkscape-preamble.tex" transform="matrix(1.1192 0 0 1.1192 168.134 234.776)" fill="#4d4d4d"><defs><symbol overflow="visible" id="v"><path d="M2.938-6.375c0-.25 0-.266-.235-.266C2.078-6 1.203-6 .891-6v.313c.203 0 .78 0 1.296-.266v5.172c0 .36-.03.469-.921.469H.953V0c.344-.031 1.203-.031 1.61-.031.39 0 1.265 0 1.609.031v-.313h-.313c-.906 0-.921-.109-.921-.468zm0 0"/></symbol><symbol overflow="visible" id="w"><path d="M4.578-3.188c0-.796-.047-1.593-.39-2.328C3.733-6.484 2.905-6.64 2.5-6.64c-.61 0-1.328.266-1.75 1.188-.313.687-.36 1.469-.36 2.266 0 .75.032 1.64.454 2.406a1.83 1.83 0 0 0 1.64 1c.532 0 1.297-.203 1.735-1.157.312-.687.36-1.468.36-2.25zM2.484 0c-.39 0-.984-.25-1.156-1.203-.11-.594-.11-1.516-.11-2.11 0-.64 0-1.296.079-1.828.187-1.187.937-1.28 1.187-1.28.329 0 .985.187 1.172 1.171.11.563.11 1.313.11 1.938 0 .75 0 1.421-.11 2.062C3.5-.297 2.937 0 2.484 0zm0 0"/></symbol></defs><use height="744.094" width="1052.362" xlink:href="#v" x="223.432" y="134.765"/><use height="744.094" width="1052.362" xlink:href="#w" x="228.413" y="134.765"/></g><g transform="matrix(1.1192 0 0 1.1192 -167.02 160.142)" ns0:preamble="/home/waldgeist/data/sphinx/inkscape-preamble.tex" ns0:text="10" fill="#4d4d4d"><use height="744.094" width="1052.362" y="134.765" x="223.432" xlink:href="#v"/><use height="744.094" width="1052.362" y="134.765" x="228.413" xlink:href="#w"/></g><g transform="matrix(1.1192 0 0 1.1192 -167.02 96.137)" ns0:preamble="/home/waldgeist/data/sphinx/inkscape-preamble.tex" ns0:text="20" fill="#4d4d4d"><defs><symbol id="x" overflow="visible"><path d="M1.266-.766l1.062-1.03c1.547-1.376 2.14-1.907 2.14-2.907 0-1.14-.89-1.938-2.109-1.938C1.234-6.64.5-5.719.5-4.828c0 .547.5.547.531.547.172 0 .516-.11.516-.532a.513.513 0 0 0-.531-.515c-.079 0-.094 0-.125.016.218-.657.765-1.016 1.343-1.016.907 0 1.329.812 1.329 1.625 0 .797-.485 1.578-1.047 2.203L.609-.375C.5-.265.5-.235.5 0h3.703l.266-1.734h-.235C4.172-1.438 4.11-1 4-.844c-.063.078-.719.078-.938.078zm0 0"/></symbol><symbol id="y" overflow="visible"><path d="M4.578-3.188c0-.796-.047-1.593-.39-2.328C3.733-6.484 2.905-6.64 2.5-6.64c-.61 0-1.328.266-1.75 1.188-.313.687-.36 1.469-.36 2.266 0 .75.032 1.64.454 2.406a1.83 1.83 0 0 0 1.64 1c.532 0 1.297-.203 1.735-1.157.312-.687.36-1.468.36-2.25zM2.484 0c-.39 0-.984-.25-1.156-1.203-.11-.594-.11-1.516-.11-2.11 0-.64 0-1.296.079-1.828.187-1.187.937-1.28 1.187-1.28.329 0 .985.187 1.172 1.171.11.563.11 1.313.11 1.938 0 .75 0 1.421-.11 2.062C3.5-.297 2.937 0 2.484 0zm0 0"/></symbol></defs><use height="744.094" width="1052.362" y="134.765" x="223.432" xlink:href="#x"/><use height="744.094" width="1052.362" y="134.765" x="228.413" xlink:href="#y"/></g><g ns0:text="-20" ns0:preamble="/home/waldgeist/data/sphinx/inkscape-preamble.tex" transform="matrix(1.1192 0 0 1.1192 -170.736 354.753)" fill="#4d4d4d"><defs><symbol overflow="visible" id="z"><path d="M2.75-1.86v-.577H.11v.578zm0 0"/></symbol><symbol overflow="visible" id="A"><path d="M1.266-.766l1.062-1.03c1.547-1.376 2.14-1.907 2.14-2.907 0-1.14-.89-1.938-2.109-1.938C1.234-6.64.5-5.719.5-4.828c0 .547.5.547.531.547.172 0 .516-.11.516-.532a.513.513 0 0 0-.531-.515c-.079 0-.094 0-.125.016.218-.657.765-1.016 1.343-1.016.907 0 1.329.812 1.329 1.625 0 .797-.485 1.578-1.047 2.203L.609-.375C.5-.265.5-.235.5 0h3.703l.266-1.734h-.235C4.172-1.438 4.11-1 4-.844c-.063.078-.719.078-.938.078zm0 0"/></symbol><symbol overflow="visible" id="B"><path d="M4.578-3.188c0-.796-.047-1.593-.39-2.328C3.733-6.484 2.905-6.64 2.5-6.64c-.61 0-1.328.266-1.75 1.188-.313.687-.36 1.469-.36 2.266 0 .75.032 1.64.454 2.406a1.83 1.83 0 0 0 1.64 1c.532 0 1.297-.203 1.735-1.157.312-.687.36-1.468.36-2.25zM2.484 0c-.39 0-.984-.25-1.156-1.203-.11-.594-.11-1.516-.11-2.11 0-.64 0-1.296.079-1.828.187-1.187.937-1.28 1.187-1.28.329 0 .985.187 1.172 1.171.11.563.11 1.313.11 1.938 0 .75 0 1.421-.11 2.062C3.5-.297 2.937 0 2.484 0zm0 0"/></symbol></defs><use height="744.094" width="1052.362" xlink:href="#z" x="223.432" y="134.765"/><use height="744.094" width="1052.362" xlink:href="#A" x="226.753" y="134.765"/><use height="744.094" width="1052.362" xlink:href="#B" x="231.734" y="134.765"/></g><g transform="matrix(1.1192 0 0 1.1192 -170.736 289.883)" ns0:preamble="/home/waldgeist/data/sphinx/inkscape-preamble.tex" ns0:text="-10" fill="#4d4d4d"><defs><symbol id="C" overflow="visible"><path d="M2.75-1.86v-.577H.11v.578zm0 0"/></symbol><symbol id="D" overflow="visible"><path d="M2.938-6.375c0-.25 0-.266-.235-.266C2.078-6 1.203-6 .891-6v.313c.203 0 .78 0 1.296-.266v5.172c0 .36-.03.469-.921.469H.953V0c.344-.031 1.203-.031 1.61-.031.39 0 1.265 0 1.609.031v-.313h-.313c-.906 0-.921-.109-.921-.468zm0 0"/></symbol><symbol id="E" overflow="visible"><path d="M4.578-3.188c0-.796-.047-1.593-.39-2.328C3.733-6.484 2.905-6.64 2.5-6.64c-.61 0-1.328.266-1.75 1.188-.313.687-.36 1.469-.36 2.266 0 .75.032 1.64.454 2.406a1.83 1.83 0 0 0 1.64 1c.532 0 1.297-.203 1.735-1.157.312-.687.36-1.468.36-2.25zM2.484 0c-.39 0-.984-.25-1.156-1.203-.11-.594-.11-1.516-.11-2.11 0-.64 0-1.296.079-1.828.187-1.187.937-1.28 1.187-1.28.329 0 .985.187 1.172 1.171.11.563.11 1.313.11 1.938 0 .75 0 1.421-.11 2.062C3.5-.297 2.937 0 2.484 0zm0 0"/></symbol></defs><use height="744.094" width="1052.362" y="134.765" x="223.432" xlink:href="#C"/><use height="744.094" width="1052.362" y="134.765" x="226.753" xlink:href="#D"/><use height="744.094" width="1052.362" y="134.765" x="231.734" xlink:href="#E"/></g><use height="744.094" width="1052.362" xlink:href="#F" x="223.432" y="134.765" transform="matrix(1.1192 0 0 1.1192 -161.445 225.012)" ns0:text="0" ns0:preamble="/home/waldgeist/data/sphinx/inkscape-preamble.tex" fill="#4d4d4d"/><g transform="matrix(1.1192 0 0 1.1192 138.758 234.776)" ns0:preamble="/home/waldgeist/data/sphinx/inkscape-preamble.tex" ns0:text="9" fill="#4d4d4d"><defs><symbol id="G" overflow="visible"><path d="M3.656-3.172v.328c0 2.328-1.031 2.781-1.61 2.781-.171 0-.718-.015-.983-.359.437 0 .515-.281.515-.453 0-.313-.234-.453-.453-.453-.156 0-.453.078-.453.469 0 .671.531 1.078 1.375 1.078 1.297 0 2.515-1.36 2.515-3.5 0-2.688-1.156-3.36-2.046-3.36-.547 0-1.032.188-1.454.625-.421.454-.64.875-.64 1.625 0 1.235.875 2.22 1.984 2.22.61 0 1.016-.423 1.25-1zm-1.234.766c-.156 0-.625 0-.922-.625-.188-.375-.188-.86-.188-1.36 0-.53 0-1 .22-1.375.265-.5.64-.625.984-.625.468 0 .796.344.968.782.11.328.157.953.157 1.406 0 .828-.344 1.797-1.22 1.797zm0 0"/></symbol></defs><use y="134.765" x="223.432" xlink:href="#G" width="1052.362" height="744.094"/></g><g ns0:text="8" ns0:preamble="/home/waldgeist/data/sphinx/inkscape-preamble.tex" transform="matrix(1.1192 0 0 1.1192 106.323 234.776)" fill="#4d4d4d"><defs><symbol overflow="visible" id="H"><path d="M1.625-4.563c-.453-.296-.5-.625-.5-.796 0-.61.656-1.032 1.36-1.032.718 0 1.359.516 1.359 1.235 0 .578-.39 1.047-.985 1.39zm1.453.954c.719-.375 1.203-.891 1.203-1.547 0-.922-.875-1.485-1.781-1.485-1 0-1.813.735-1.813 1.672 0 .172.016.625.438 1.094.11.11.484.36.734.531C1.281-3.047.422-2.5.422-1.5.422-.453 1.438.219 2.484.219c1.125 0 2.079-.828 2.079-1.89 0-.36-.11-.813-.5-1.235-.188-.203-.344-.297-.985-.703zm-1 .421l1.235.782c.28.187.75.484.75 1.094 0 .734-.75 1.25-1.563 1.25C1.64-.063.922-.672.922-1.5c0-.578.312-1.219 1.156-1.688zm0 0"/></symbol></defs><use xlink:href="#H" x="223.432" y="134.765" width="1052.362" height="744.094"/></g><g transform="matrix(1.1192 0 0 1.1192 73.66 234.776)" ns0:preamble="/home/waldgeist/data/sphinx/inkscape-preamble.tex" ns0:text="7" fill="#4d4d4d"><defs><symbol id="I" overflow="visible"><path d="M4.75-6.078c.078-.11.078-.125.078-.344H2.406c-1.203 0-1.234-.125-1.265-.312H.89L.562-4.688h.25c.032-.156.11-.78.25-.906.063-.062.844-.062.97-.062h2.062c-.11.156-.89 1.25-1.11 1.578C2.078-2.734 1.75-1.344 1.75-.328c0 .094 0 .547.469.547.453 0 .453-.453.453-.547v-.516c0-.547.031-1.094.11-1.625.046-.234.171-1.094.624-1.703zm0 0"/></symbol></defs><use y="134.765" x="223.432" xlink:href="#I" width="1052.362" height="744.094"/></g><g ns0:text="6" ns0:preamble="/home/waldgeist/data/sphinx/inkscape-preamble.tex" transform="matrix(1.1192 0 0 1.1192 41.452 234.776)" fill="#4d4d4d"><defs><symbol overflow="visible" id="J"><path d="M1.313-3.266v-.25c0-2.515 1.234-2.875 1.75-2.875.234 0 .656.063.874.407-.156 0-.546 0-.546.437 0 .313.234.469.453.469.156 0 .469-.094.469-.484 0-.594-.438-1.079-1.266-1.079C1.766-6.64.422-5.359.422-3.156.422-.484 1.578.219 2.5.219c1.11 0 2.063-.938 2.063-2.25 0-1.266-.891-2.219-2-2.219-.672 0-1.047.5-1.25.984zM2.5-.062c-.625 0-.922-.594-.984-.75-.188-.47-.188-1.266-.188-1.438 0-.781.328-1.781 1.219-1.781.172 0 .625 0 .937.625.172.36.172.875.172 1.36 0 .483 0 .983-.172 1.343-.296.594-.75.64-.984.64zm0 0"/></symbol></defs><use xlink:href="#J" x="223.432" y="134.765" width="1052.362" height="744.094"/></g><g transform="matrix(1.1192 0 0 1.1192 9.026 234.776)" ns0:preamble="/home/waldgeist/data/sphinx/inkscape-preamble.tex" ns0:text="5" fill="#4d4d4d"><defs><symbol id="K" overflow="visible"><path d="M4.469-2c0-1.188-.813-2.188-1.89-2.188-.47 0-.907.157-1.267.516v-1.953c.204.063.532.125.844.125 1.235 0 1.938-.906 1.938-1.031 0-.063-.032-.11-.11-.11 0 0-.03 0-.078.032a3.22 3.22 0 0 1-1.36.296c-.39 0-.858-.078-1.327-.28-.078-.032-.094-.032-.11-.032C1-6.625 1-6.547 1-6.391v2.954c0 .171 0 .25.14.25.079 0 .094-.016.141-.079.11-.156.469-.703 1.282-.703.515 0 .765.453.843.64.156.376.188.75.188 1.25 0 .36 0 .954-.25 1.376-.235.39-.61.64-1.063.64-.719 0-1.297-.53-1.469-1.109.032 0 .063.016.172.016.329 0 .5-.25.5-.485 0-.25-.171-.5-.5-.5-.14 0-.484.079-.484.532C.5-.75 1.188.219 2.297.219 3.453.219 4.469-.734 4.469-2zm0 0"/></symbol></defs><use y="134.765" x="223.432" xlink:href="#K" width="1052.362" height="744.094"/></g><g ns0:text="4" ns0:preamble="/home/waldgeist/data/sphinx/inkscape-preamble.tex" transform="matrix(1.1192 0 0 1.1192 -23.41 234.776)" fill="#4d4d4d"><defs><symbol overflow="visible" id="L"><path d="M2.938-1.64v.859c0 .36-.032.469-.766.469h-.203V0c.406-.031.922-.031 1.343-.031.422 0 .938 0 1.36.031v-.313h-.219c-.734 0-.75-.109-.75-.468v-.86h.985v-.312h-.985v-4.531c0-.204 0-.266-.172-.266-.078 0-.11 0-.187.125L.28-1.953v.312zm.046-.313H.563l2.421-3.719zm0 0"/></symbol></defs><use xlink:href="#L" x="223.432" y="134.765" width="1052.362" height="744.094"/></g><g transform="matrix(1.1192 0 0 1.1192 -55.853 234.776)" ns0:preamble="/home/waldgeist/data/sphinx/inkscape-preamble.tex" ns0:text="3" fill="#4d4d4d"><defs><symbol id="M" overflow="visible"><path d="M2.89-3.516c.813-.265 1.391-.953 1.391-1.75 0-.812-.875-1.375-1.828-1.375-1 0-1.765.594-1.765 1.36 0 .328.218.515.515.515.297 0 .5-.218.5-.515 0-.485-.469-.485-.61-.485.298-.5.954-.625 1.313-.625.422 0 .969.22.969 1.11 0 .125-.031.703-.281 1.14-.297.485-.64.516-.89.516a3.29 3.29 0 0 1-.392.031c-.078.016-.14.031-.14.125 0 .11.062.11.234.11h.438c.812 0 1.187.671 1.187 1.656 0 1.36-.687 1.64-1.125 1.64-.437 0-1.187-.171-1.531-.75.344.047.656-.171.656-.546a.537.537 0 0 0-.547-.563c-.25 0-.562.14-.562.578C.422-.437 1.344.22 2.437.22c1.22 0 2.126-.906 2.126-1.922 0-.813-.641-1.594-1.672-1.813zm0 0"/></symbol></defs><use y="134.765" x="223.432" xlink:href="#M" width="1052.362" height="744.094"/></g><g ns0:text="2" ns0:preamble="/home/waldgeist/data/sphinx/inkscape-preamble.tex" transform="matrix(1.1192 0 0 1.1192 -88.28 234.776)" fill="#4d4d4d"><defs><symbol overflow="visible" id="N"><path d="M1.266-.766l1.062-1.03c1.547-1.376 2.14-1.907 2.14-2.907 0-1.14-.89-1.938-2.109-1.938C1.234-6.64.5-5.719.5-4.828c0 .547.5.547.531.547.172 0 .516-.11.516-.532a.513.513 0 0 0-.531-.515c-.079 0-.094 0-.125.016.218-.657.765-1.016 1.343-1.016.907 0 1.329.812 1.329 1.625 0 .797-.485 1.578-1.047 2.203L.609-.375C.5-.265.5-.235.5 0h3.703l.266-1.734h-.235C4.172-1.438 4.11-1 4-.844c-.063.078-.719.078-.938.078zm0 0"/></symbol></defs><use xlink:href="#N" x="223.432" y="134.765" width="1052.362" height="744.094"/></g><g transform="matrix(1.1192 0 0 1.1192 -120.767 234.776)" ns0:preamble="/home/waldgeist/data/sphinx/inkscape-preamble.tex" ns0:text="1" fill="#4d4d4d"><defs><symbol id="O" overflow="visible"><path d="M2.938-6.375c0-.25 0-.266-.235-.266C2.078-6 1.203-6 .891-6v.313c.203 0 .78 0 1.296-.266v5.172c0 .36-.03.469-.921.469H.953V0c.344-.031 1.203-.031 1.61-.031.39 0 1.265 0 1.609.031v-.313h-.313c-.906 0-.921-.109-.921-.468zm0 0"/></symbol></defs><use y="134.765" x="223.432" xlink:href="#O" width="1052.362" height="744.094"/></g><path d="M102.264 372.247h-5.137" fill="none" stroke="#000" stroke-width="1.382" stroke-linecap="round"/><g stroke="#ccc" stroke-width="1.127" fill="none"><g stroke-width="2.777"><path d="M650.44 210.315v324.351M682.875 210.315v324.351M715.31 210.315v324.351M747.746 210.315v324.351M780.18 210.315v324.351M812.616 210.315v324.351M845.051 210.315v324.351M877.486 210.315v324.351M909.921 210.315v324.351" stroke-width=".9007199500000002"/></g><g stroke-width="2.777"><path d="M618.005 242.75h324.351M618.005 275.185h324.351M618.005 307.62h324.351M618.005 340.055h324.351M618.005 372.49h324.351M618.005 404.925h324.351M618.005 437.36h324.351M618.005 469.796h324.351M618.005 502.23h324.351" stroke-width=".9007199500000002"/></g><g stroke-width=".926"><path d="M621.249 210.315v324.351M624.492 210.315v324.351M627.736 210.315v324.351M630.98 210.315v324.351M634.223 210.315v324.351M637.466 210.315v324.351M640.71 210.315v324.351M643.953 210.315v324.351M647.197 210.315v324.351M653.684 210.315v324.351M656.927 210.315v324.351M660.17 210.315v324.351M663.414 210.315v324.351M666.658 210.315v324.351M669.901 210.315v324.351M673.145 210.315v324.351M676.388 210.315v324.351M679.632 210.315v324.351M686.119 210.315v324.351M689.362 210.315v324.351M692.606 210.315v324.351M695.85 210.315v324.351M699.093 210.315v324.351M702.336 210.315v324.351M705.58 210.315v324.351M708.823 210.315v324.351M712.067 210.315v324.351M718.554 210.315v324.351M721.797 210.315v324.351M725.041 210.315v324.351M728.285 210.315v324.351M731.528 210.315v324.351M734.772 210.315v324.351M738.015 210.315v324.351M741.259 210.315v324.351M744.502 210.315v324.351M750.99 210.315v324.351M754.233 210.315v324.351M757.476 210.315v324.351M760.72 210.315v324.351M763.963 210.315v324.351M767.207 210.315v324.351M770.45 210.315v324.351M773.694 210.315v324.351M776.937 210.315v324.351M783.424 210.315v324.351M786.668 210.315v324.351M789.911 210.315v324.351M793.155 210.315v324.351M796.398 210.315v324.351M799.642 210.315v324.351M802.885 210.315v324.351M806.129 210.315v324.351M809.372 210.315v324.351M815.86 210.315v324.351M819.103 210.315v324.351M822.346 210.315v324.351M825.59 210.315v324.351M828.833 210.315v324.351M832.077 210.315v324.351M835.32 210.315v324.351M838.564 210.315v324.351M841.807 210.315v324.351M848.295 210.315v324.351M851.538 210.315v324.351M854.782 210.315v324.351M858.025 210.315v324.351M861.269 210.315v324.351M864.512 210.315v324.351M867.756 210.315v324.351M871 210.315v324.351M874.243 210.315v324.351M880.73 210.315v324.351M883.973 210.315v324.351M887.217 210.315v324.351M890.46 210.315v324.351M893.704 210.315v324.351M896.947 210.315v324.351M900.19 210.315v324.351M903.434 210.315v324.351M906.678 210.315v324.351M913.165 210.315v324.351M916.408 210.315v324.351M919.652 210.315v324.351M922.895 210.315v324.351M926.139 210.315v324.351M929.382 210.315v324.351M932.626 210.315v324.351M935.87 210.315v324.351M939.113 210.315v324.351" stroke-width=".30034810000000006"/></g><g stroke-width=".926"><path d="M618.005 213.558h324.351M618.005 216.802h324.351M618.005 220.045h324.351M618.005 223.289h324.351M618.005 226.532h324.351M618.005 229.776h324.351M618.005 233.02h324.351M618.005 236.263h324.351M618.005 239.506h324.351M618.005 245.993h324.351M618.005 249.237h324.351M618.005 252.48h324.351M618.005 255.724h324.351M618.005 258.967h324.351M618.005 262.21h324.351M618.005 265.454h324.351M618.005 268.698h324.351M618.005 271.941h324.351M618.005 278.428h324.351M618.005 281.672h324.351M618.005 284.915h324.351M618.005 288.159h324.351M618.005 291.403h324.351M618.005 294.646h324.351M618.005 297.89h324.351M618.005 301.133h324.351M618.005 304.377h324.351M618.005 310.864h324.351M618.005 314.107h324.351M618.005 317.35h324.351M618.005 320.594h324.351M618.005 323.838h324.351M618.005 327.081h324.351M618.005 330.325h324.351M618.005 333.568h324.351M618.005 336.812h324.351M618.005 343.299h324.351M618.005 346.542h324.351M618.005 349.786h324.351M618.005 353.03h324.351M618.005 356.273h324.351M618.005 359.516h324.351M618.005 362.76h324.351M618.005 366.003h324.351M618.005 369.247h324.351M618.005 375.734h324.351M618.005 378.977h324.351M618.005 382.22h324.351M618.005 385.464h324.351M618.005 388.708h324.351M618.005 391.951h324.351M618.005 395.195h324.351M618.005 398.438h324.351M618.005 401.682h324.351M618.005 408.169h324.351M618.005 411.413h324.351M618.005 414.656h324.351M618.005 417.9h324.351M618.005 421.143h324.351M618.005 424.387h324.351M618.005 427.63h324.351M618.005 430.874h324.351M618.005 434.117h324.351M618.005 440.604h324.351M618.005 443.848h324.351M618.005 447.091h324.351M618.005 450.335h324.351M618.005 453.578h324.351M618.005 456.822h324.351M618.005 460.065h324.351M618.005 463.309h324.351M618.005 466.552h324.351M618.005 473.04h324.351M618.005 476.283h324.351M618.005 479.526h324.351M618.005 482.77h324.351M618.005 486.013h324.351M618.005 489.257h324.351M618.005 492.5h324.351M618.005 495.744h324.351M618.005 498.987h324.351M618.005 505.474h324.351M618.005 508.718h324.351M618.005 511.961h324.351M618.005 515.205h324.351M618.005 518.448h324.351M618.005 521.692h324.351M618.005 524.936h324.351M618.005 528.179h324.351M618.005 531.423h324.351" stroke-width=".30034810000000006"/></g><path stroke-width=".9007199500000002" d="M618.005 210.315h324.351v324.351H618.005z"/></g><path d="M618.002 873.074V491.74" fill="none" stroke="#000" stroke-width="1.774" marker-end="url(#a)" transform="translate(0 -308.268)"/><path d="M942.28 369.964v5.052" fill="none" stroke="#000" stroke-width="1.774" stroke-linecap="round"/><path d="M619.062 680.758h383.722" fill="none" stroke="#000" stroke-width="1.774" marker-end="url(#a)" transform="translate(0 -308.268)"/><path d="M620.574 340.055h-5.138M621.638 372.49H616.5" fill="none" stroke="#000" stroke-width="1.382" stroke-linecap="round"/><path d="M780.18 369.964v5.052" fill="none" stroke="#000" stroke-width="1.774" stroke-linecap="round"/><g stroke="purple" fill="none" stroke-linecap="round"><path d="M780.15 372.658c1.866-4.264 3.733-8.532 5.6-12.783 18.639-42.432 37.278-81.201 55.917-97.02 18.638-15.82 37.277-7.897 55.916 19.716 14.9 22.073 29.799 56.018 44.698 90.044" stroke-width="2.66127008"/><path d="M618.002 372.658c18.638-42.68 37.277-84.414 55.916-104.426 18.639-20.012 37.277-17.335 55.916 6.598 16.772 21.535 33.544 59.516 50.315 97.824" stroke-width="2.99984368"/></g><g transform="matrix(1.53336 0 0 1.53336 -31.167 -17.46)" ns0:text="\\centering\nSpannung \\\\\nin Volt" ns0:preamble="/home/waldgeist/data/sphinx/inkscape-preamble.tex" fill="#4d4d4d"><defs><symbol overflow="visible" id="b"><path d="M3.484-3.875l-1.28-.297c-.626-.156-1-.687-1-1.266 0-.703.53-1.312 1.312-1.312 1.656 0 1.875 1.64 1.937 2.078.016.063.016.125.125.125.125 0 .125-.047.125-.234v-2c0-.172 0-.25-.11-.25-.062 0-.077.015-.14.14l-.36.563c-.296-.297-.702-.703-1.593-.703-1.11 0-1.938.875-1.938 1.937 0 .828.532 1.563 1.297 1.828.11.032.625.157 1.329.329.265.062.562.14.843.5.203.265.313.593.313.921 0 .704-.5 1.422-1.344 1.422-.281 0-1.047-.047-1.578-.531-.578-.547-.61-1.172-.61-1.531-.015-.11-.093-.11-.125-.11-.125 0-.125.079-.125.25v2c0 .172 0 .235.11.235.062 0 .078-.016.14-.125 0-.016.032-.047.36-.578.312.343.953.703 1.844.703 1.156 0 1.953-.969 1.953-2.078 0-.985-.657-1.813-1.485-2.016zm0 0"/></symbol><symbol overflow="visible" id="c"><path d="M1.719-3.75v-.656l-1.438.11v.312c.703 0 .781.062.781.5v4.656c0 .453-.109.453-.78.453v.313c.343-.016.859-.032 1.109-.032.28 0 .78.016 1.125.032v-.313c-.657 0-.766 0-.766-.453V-.594c.047.172.469.703 1.219.703 1.187 0 2.219-.984 2.219-2.265 0-1.266-.954-2.25-2.079-2.25-.78 0-1.203.437-1.39.656zm.031 2.61v-2.22c.281-.515.766-.796 1.281-.796.735 0 1.328.875 1.328 2C4.36-.953 3.672-.11 2.938-.11c-.407 0-.782-.204-1.047-.61-.141-.203-.141-.219-.141-.422zm0 0"/></symbol><symbol overflow="visible" id="d"><path d="M3.313-.75c.046.39.312.813.78.813.22 0 .829-.141.829-.954v-.562h-.25v.562c0 .579-.25.641-.36.641-.328 0-.375-.453-.375-.5v-1.984c0-.422 0-.813-.359-1.188-.39-.39-.89-.547-1.36-.547-.827 0-1.515.469-1.515 1.125 0 .297.203.469.469.469a.435.435 0 0 0 .453-.453c0-.125-.047-.453-.516-.453.282-.36.766-.469 1.079-.469.5 0 1.062.39 1.062 1.281v.36c-.516.03-1.203.062-1.828.359-.75.344-1 .86-1 1.297 0 .812.969 1.062 1.594 1.062.656 0 1.109-.406 1.296-.859zM3.25-2.39v1c0 .937-.719 1.28-1.172 1.28-.484 0-.89-.343-.89-.843 0-.547.421-1.375 2.062-1.438zm0 0"/></symbol><symbol overflow="visible" id="e"><path d="M1.094-3.422V-.75c0 .438-.11.438-.782.438V0c.36-.016.86-.031 1.141-.031.25 0 .766.015 1.11.031v-.313c-.672 0-.782 0-.782-.437v-1.844c0-1.031.719-1.594 1.344-1.594.64 0 .75.532.75 1.11V-.75c0 .438-.11.438-.781.438V0c.344-.016.86-.031 1.125-.031.25 0 .781.015 1.11.031v-.313c-.516 0-.766 0-.766-.296v-1.907c0-.859 0-1.156-.313-1.515-.14-.172-.469-.375-1.047-.375-.734 0-1.203.422-1.484 1.047v-1.047l-1.407.11v.312c.704 0 .782.062.782.562zm0 0"/></symbol><symbol overflow="visible" id="f"><path d="M3.89-.781v.89L5.329 0v-.313c-.687 0-.766-.062-.766-.562v-3.531l-1.468.11v.312c.687 0 .781.062.781.562v1.766c0 .875-.484 1.547-1.219 1.547-.828 0-.875-.47-.875-.985v-3.312l-1.468.11v.312c.78 0 .78.03.78.906v1.5c0 .781 0 1.687 1.516 1.687.563 0 1-.28 1.282-.89zm0 0"/></symbol><symbol overflow="visible" id="g"><path d="M2.219-1.719c-.875 0-.875-1-.875-1.218 0-.266.015-.594.156-.844.078-.11.313-.39.719-.39.86 0 .86.984.86 1.218 0 .265 0 .594-.157.844-.078.109-.313.39-.703.39zm-1.156.39c0-.03 0-.265.156-.468.39.281.812.313 1 .313.922 0 1.61-.688 1.61-1.454 0-.374-.157-.734-.407-.968.36-.344.719-.39.89-.39.032 0 .079 0 .11.015-.11.031-.172.14-.172.265 0 .172.14.282.297.282a.28.28 0 0 0 .281-.297c0-.172-.11-.485-.5-.485-.203 0-.64.063-1.062.47a1.652 1.652 0 0 0-1.047-.36c-.938 0-1.625.687-1.625 1.453 0 .437.219.812.469 1.031-.125.14-.313.469-.313.828 0 .313.14.688.453.89-.61.157-.922.595-.922.985 0 .719.985 1.266 2.203 1.266 1.172 0 2.204-.5 2.204-1.281 0-.344-.125-.86-.641-1.141-.531-.266-1.11-.266-1.719-.266-.25 0-.672 0-.75-.015-.312-.047-.516-.344-.516-.672zM2.5 1.829C1.484 1.828.797 1.312.797.781c0-.453.375-.828.812-.844h.594c.86 0 1.969 0 1.969.844 0 .547-.703 1.047-1.672 1.047zm0 0"/></symbol><symbol overflow="visible" id="h"><path d="M1.766-4.406l-1.391.11v.312c.64 0 .734.062.734.546V-.75c0 .438-.109.438-.78.438V0c.312-.016.859-.031 1.093-.031.36 0 .703.015 1.047.031v-.313c-.672 0-.703-.046-.703-.437zm.03-1.735a.514.514 0 0 0-.515-.53.537.537 0 0 0-.531.53c0 .266.219.532.531.532a.514.514 0 0 0 .516-.532zm0 0"/></symbol><symbol overflow="visible" id="i"><path d="M6.188-5.828c.14-.375.406-.656 1.093-.672v-.313c-.312.032-.718.032-.968.032-.297 0-.875-.016-1.141-.032v.313c.516.016.734.266.734.5 0 .078-.031.14-.047.203L4.031-1 2.125-6.031c-.063-.14-.063-.157-.063-.172 0-.297.563-.297.813-.297v-.313c-.36.032-1.047.032-1.422.032-.469 0-.906-.016-1.266-.032v.313c.657 0 .844 0 .985.375L3.484 0c.063.188.11.219.25.219.157 0 .188-.047.235-.188zm0 0"/></symbol><symbol overflow="visible" id="j"><path d="M4.688-2.14c0-1.266-.985-2.329-2.188-2.329C1.25-4.469.281-3.375.281-2.14A2.22 2.22 0 0 0 2.484.11c1.204 0 2.204-.984 2.204-2.25zM2.5-.14c-.438 0-.875-.204-1.14-.672-.25-.438-.25-1.047-.25-1.407 0-.39 0-.922.234-1.36a1.347 1.347 0 0 1 1.14-.671c.438 0 .86.219 1.125.656.266.422.266 1 .266 1.375 0 .36 0 .906-.219 1.344-.234.453-.672.734-1.156.734zm0 0"/></symbol><symbol overflow="visible" id="k"><path d="M1.766-6.922l-1.438.11v.312c.703 0 .781.063.781.563V-.75c0 .438-.109.438-.78.438V0c.327-.016.859-.031 1.109-.031s.734.015 1.109.031v-.313c-.672 0-.781 0-.781-.437zm0 0"/></symbol><symbol overflow="visible" id="l"><path d="M1.719-3.984h1.437v-.313H1.72v-1.828h-.25c0 .813-.297 1.875-1.282 1.922v.219h.844v2.75c0 1.218.938 1.343 1.297 1.343.703 0 .985-.703.985-1.343v-.563h-.25v.547c0 .734-.297 1.11-.672 1.11-.672 0-.672-.907-.672-1.079zm0 0"/></symbol></defs><use height="1052.362" width="744.094" xlink:href="#b" x="373.84" y="134.765"/><use height="1052.362" width="744.094" xlink:href="#c" x="379.375" y="134.765"/><use height="1052.362" width="744.094" xlink:href="#d" x="384.91" y="134.765"/><use height="1052.362" width="744.094" xlink:href="#e" x="389.892" y="134.765"/><use height="1052.362" width="744.094" xlink:href="#e" x="395.427" y="134.765"/><g><use height="1052.362" width="744.094" xlink:href="#f" x="400.683" y="134.765"/><use height="1052.362" width="744.094" xlink:href="#e" x="406.218" y="134.765"/><use height="1052.362" width="744.094" xlink:href="#g" x="411.754" y="134.765"/></g><g><use height="1052.362" width="744.094" xlink:href="#h" x="380.344" y="146.72"/><use height="1052.362" width="744.094" xlink:href="#e" x="383.112" y="146.72"/></g><g><use height="1052.362" width="744.094" xlink:href="#i" x="391.964" y="146.72"/></g><g><use height="1052.362" width="744.094" xlink:href="#j" x="398.609" y="146.72"/><use height="1052.362" width="744.094" xlink:href="#k" x="403.591" y="146.72"/><use height="1052.362" width="744.094" xlink:href="#l" x="406.358" y="146.72"/></g></g><g transform="matrix(1.53336 0 0 1.53336 388.867 186.595)" ns0:preamble="/home/waldgeist/data/sphinx/inkscape-preamble.tex" ns0:text="\\centering\nZeit \\\\\nin Sekunden\n" fill="#4d4d4d"><defs><symbol id="m" overflow="visible"><path d="M5.453-6.453c.063-.11.063-.125.063-.203 0-.157-.047-.157-.25-.157H.796l-.109 2.25h.25C1-5.688 1.313-6.5 2.938-6.5H4.5L.625-.375c-.063.11-.063.125-.063.203C.563 0 .61 0 .813 0h4.594l.172-2.656h-.25C5.25-1.281 5.062-.344 3.218-.344h-1.64zm0 0"/></symbol><symbol id="n" overflow="visible"><path d="M1.11-2.516C1.171-4 2.015-4.25 2.36-4.25c1.015 0 1.124 1.344 1.124 1.734zm0 .22h2.78c.22 0 .25 0 .25-.22 0-.984-.546-1.953-1.78-1.953C1.202-4.469.28-3.437.28-2.187.281-.86 1.328.108 2.47.108 3.688.11 4.14-1 4.14-1.187c0-.094-.079-.125-.141-.125-.078 0-.11.062-.125.14C3.531-.14 2.625-.14 2.531-.14c-.5 0-.89-.296-1.125-.671-.297-.47-.297-1.125-.297-1.485zm0 0"/></symbol><symbol id="o" overflow="visible"><path d="M1.766-4.406l-1.391.11v.312c.64 0 .734.062.734.546V-.75c0 .438-.109.438-.78.438V0c.312-.016.859-.031 1.093-.031.36 0 .703.015 1.047.031v-.313c-.672 0-.703-.046-.703-.437zm.03-1.735a.514.514 0 0 0-.515-.53.537.537 0 0 0-.531.53c0 .266.219.532.531.532a.514.514 0 0 0 .516-.532zm0 0"/></symbol><symbol id="p" overflow="visible"><path d="M1.719-3.984h1.437v-.313H1.72v-1.828h-.25c0 .813-.297 1.875-1.282 1.922v.219h.844v2.75c0 1.218.938 1.343 1.297 1.343.703 0 .985-.703.985-1.343v-.563h-.25v.547c0 .734-.297 1.11-.672 1.11-.672 0-.672-.907-.672-1.079zm0 0"/></symbol><symbol id="q" overflow="visible"><path d="M1.094-3.422V-.75c0 .438-.11.438-.782.438V0c.36-.016.86-.031 1.141-.031.25 0 .766.015 1.11.031v-.313c-.672 0-.782 0-.782-.437v-1.844c0-1.031.719-1.594 1.344-1.594.64 0 .75.532.75 1.11V-.75c0 .438-.11.438-.781.438V0c.344-.016.86-.031 1.125-.031.25 0 .781.015 1.11.031v-.313c-.516 0-.766 0-.766-.296v-1.907c0-.859 0-1.156-.313-1.515-.14-.172-.469-.375-1.047-.375-.734 0-1.203.422-1.484 1.047v-1.047l-1.407.11v.312c.704 0 .782.062.782.562zm0 0"/></symbol><symbol id="r" overflow="visible"><path d="M3.484-3.875l-1.28-.297c-.626-.156-1-.687-1-1.266 0-.703.53-1.312 1.312-1.312 1.656 0 1.875 1.64 1.937 2.078.016.063.016.125.125.125.125 0 .125-.047.125-.234v-2c0-.172 0-.25-.11-.25-.062 0-.077.015-.14.14l-.36.563c-.296-.297-.702-.703-1.593-.703-1.11 0-1.938.875-1.938 1.937 0 .828.532 1.563 1.297 1.828.11.032.625.157 1.329.329.265.062.562.14.843.5.203.265.313.593.313.921 0 .704-.5 1.422-1.344 1.422-.281 0-1.047-.047-1.578-.531-.578-.547-.61-1.172-.61-1.531-.015-.11-.093-.11-.125-.11-.125 0-.125.079-.125.25v2c0 .172 0 .235.11.235.062 0 .078-.016.14-.125 0-.016.032-.047.36-.578.312.343.953.703 1.844.703 1.156 0 1.953-.969 1.953-2.078 0-.985-.657-1.813-1.485-2.016zm0 0"/></symbol><symbol id="s" overflow="visible"><path d="M1.063-.75c0 .438-.11.438-.782.438V0c.328-.016.797-.031 1.078-.031.313 0 .704.015 1.11.031v-.313c-.672 0-.781 0-.781-.437v-1.031l.64-.547c.766 1.047 1.188 1.61 1.188 1.797 0 .187-.172.219-.36.219V0c.266-.016.86-.031 1.078-.031.282 0 .579.015.86.031v-.313c-.375 0-.594 0-.969-.53L2.859-2.626c-.015-.016-.062-.078-.062-.11 0-.03.719-.64.812-.718.625-.5 1.047-.531 1.25-.531v-.313c-.28.031-.406.031-.687.031-.36 0-.984-.015-1.125-.03v.312c.187 0 .297.109.297.25 0 .203-.14.312-.219.39L1.719-2.14v-4.78L.28-6.813v.312c.703 0 .781.063.781.563zm0 0"/></symbol><symbol id="t" overflow="visible"><path d="M3.89-.781v.89L5.329 0v-.313c-.687 0-.766-.062-.766-.562v-3.531l-1.468.11v.312c.687 0 .781.062.781.562v1.766c0 .875-.484 1.547-1.219 1.547-.828 0-.875-.47-.875-.985v-3.312l-1.468.11v.312c.78 0 .78.03.78.906v1.5c0 .781 0 1.687 1.516 1.687.563 0 1-.28 1.282-.89zm0 0"/></symbol><symbol id="u" overflow="visible"><path d="M3.781-.547V.11L5.25 0v-.313c-.688 0-.781-.062-.781-.562v-6.047l-1.422.11v.312c.687 0 .765.063.765.563v2.156a1.582 1.582 0 0 0-1.25-.625c-1.171 0-2.218.984-2.218 2.265 0 1.266.969 2.25 2.11 2.25.64 0 1.077-.343 1.327-.656zm0-2.672v2.047c0 .172 0 .188-.11.36-.296.484-.733.703-1.171.703-.453 0-.813-.266-1.047-.641-.25-.406-.281-.969-.281-1.39 0-.36.016-.954.297-1.407.218-.312.593-.64 1.14-.64.344 0 .766.156 1.063.593.11.172.11.188.11.375zm0 0"/></symbol></defs><use y="134.765" x="386.709" xlink:href="#m" width="744.094" height="1052.362"/><use y="134.765" x="392.797" xlink:href="#n" width="744.094" height="1052.362"/><use y="134.765" x="397.225" xlink:href="#o" width="744.094" height="1052.362"/><use y="134.765" x="399.992" xlink:href="#p" width="744.094" height="1052.362"/><g><use y="146.72" x="368.582" xlink:href="#o" width="744.094" height="1052.362"/><use y="146.72" x="371.35" xlink:href="#q" width="744.094" height="1052.362"/></g><g><use y="146.72" x="380.202" xlink:href="#r" width="744.094" height="1052.362"/><use y="146.72" x="385.738" xlink:href="#n" width="744.094" height="1052.362"/><use y="146.72" x="390.165" xlink:href="#s" width="744.094" height="1052.362"/><use y="146.72" x="395.423" xlink:href="#t" width="744.094" height="1052.362"/><use y="146.72" x="400.958" xlink:href="#q" width="744.094" height="1052.362"/><use y="146.72" x="406.494" xlink:href="#u" width="744.094" height="1052.362"/><use y="146.72" x="412.029" xlink:href="#n" width="744.094" height="1052.362"/><use y="146.72" x="416.456" xlink:href="#q" width="744.094" height="1052.362"/></g></g><g ns0:text="0,01" ns0:preamble="/home/waldgeist/data/sphinx/inkscape-preamble.tex" transform="matrix(1.1192 0 0 1.1192 520.439 234.533)" fill="#4d4d4d"><defs><symbol overflow="visible" id="P"><path d="M4.578-3.188c0-.796-.047-1.593-.39-2.328C3.733-6.484 2.905-6.64 2.5-6.64c-.61 0-1.328.266-1.75 1.188-.313.687-.36 1.469-.36 2.266 0 .75.032 1.64.454 2.406a1.83 1.83 0 0 0 1.64 1c.532 0 1.297-.203 1.735-1.157.312-.687.36-1.468.36-2.25zM2.484 0c-.39 0-.984-.25-1.156-1.203-.11-.594-.11-1.516-.11-2.11 0-.64 0-1.296.079-1.828.187-1.187.937-1.28 1.187-1.28.329 0 .985.187 1.172 1.171.11.563.11 1.313.11 1.938 0 .75 0 1.421-.11 2.062C3.5-.297 2.937 0 2.484 0zm0 0"/></symbol><symbol overflow="visible" id="Q"><path d="M2.031-.016c0-.625-.25-1.046-.64-1.046-.36 0-.532.28-.532.53 0 .266.172.532.532.532a.578.578 0 0 0 .375-.14l.015-.016c.016 0 .016 0 .016.14 0 .641-.266 1.25-.703 1.72-.063.062-.078.077-.078.109 0 .078.046.109.093.109.125 0 .922-.781.922-1.938zm0 0"/></symbol><symbol overflow="visible" id="R"><path d="M2.938-6.375c0-.25 0-.266-.235-.266C2.078-6 1.203-6 .891-6v.313c.203 0 .78 0 1.296-.266v5.172c0 .36-.03.469-.921.469H.953V0c.344-.031 1.203-.031 1.61-.031.39 0 1.265 0 1.609.031v-.313h-.313c-.906 0-.921-.109-.921-.468zm0 0"/></symbol></defs><use height="1052.362" width="744.094" xlink:href="#P" x="223.432" y="134.765"/><use height="1052.362" width="744.094" xlink:href="#Q" x="228.413" y="134.765"/><use height="1052.362" width="744.094" xlink:href="#P" x="231.181" y="134.765"/><use height="1052.362" width="744.094" xlink:href="#R" x="236.162" y="134.765"/></g><path d="M620.574 307.62h-5.138M620.574 275.185h-5.138" fill="none" stroke="#000" stroke-width="1.382" stroke-linecap="round"/><g transform="matrix(1.1192 0 0 1.1192 345.714 160.385)" ns0:preamble="/home/waldgeist/data/sphinx/inkscape-preamble.tex" ns0:text="200" fill="#4d4d4d"><defs><symbol id="S" overflow="visible"><path d="M1.266-.766l1.062-1.03c1.547-1.376 2.14-1.907 2.14-2.907 0-1.14-.89-1.938-2.109-1.938C1.234-6.64.5-5.719.5-4.828c0 .547.5.547.531.547.172 0 .516-.11.516-.532a.513.513 0 0 0-.531-.515c-.079 0-.094 0-.125.016.218-.657.765-1.016 1.343-1.016.907 0 1.329.812 1.329 1.625 0 .797-.485 1.578-1.047 2.203L.609-.375C.5-.265.5-.235.5 0h3.703l.266-1.734h-.235C4.172-1.438 4.11-1 4-.844c-.063.078-.719.078-.938.078zm0 0"/></symbol><symbol id="T" overflow="visible"><path d="M4.578-3.188c0-.796-.047-1.593-.39-2.328C3.733-6.484 2.905-6.64 2.5-6.64c-.61 0-1.328.266-1.75 1.188-.313.687-.36 1.469-.36 2.266 0 .75.032 1.64.454 2.406a1.83 1.83 0 0 0 1.64 1c.532 0 1.297-.203 1.735-1.157.312-.687.36-1.468.36-2.25zM2.484 0c-.39 0-.984-.25-1.156-1.203-.11-.594-.11-1.516-.11-2.11 0-.64 0-1.296.079-1.828.187-1.187.937-1.28 1.187-1.28.329 0 .985.187 1.172 1.171.11.563.11 1.313.11 1.938 0 .75 0 1.421-.11 2.062C3.5-.297 2.937 0 2.484 0zm0 0"/></symbol></defs><use height="1052.362" width="744.094" y="134.765" x="223.432" xlink:href="#S"/><use height="1052.362" width="744.094" y="134.765" x="228.413" xlink:href="#T"/><use height="1052.362" width="744.094" y="134.765" x="233.395" xlink:href="#T"/></g><g transform="matrix(1.1192 0 0 1.1192 341.998 257.69)" ns0:preamble="/home/waldgeist/data/sphinx/inkscape-preamble.tex" ns0:text="-100" fill="#4d4d4d"><defs><symbol id="U" overflow="visible"><path d="M2.75-1.86v-.577H.11v.578zm0 0"/></symbol><symbol id="V" overflow="visible"><path d="M2.938-6.375c0-.25 0-.266-.235-.266C2.078-6 1.203-6 .891-6v.313c.203 0 .78 0 1.296-.266v5.172c0 .36-.03.469-.921.469H.953V0c.344-.031 1.203-.031 1.61-.031.39 0 1.265 0 1.609.031v-.313h-.313c-.906 0-.921-.109-.921-.468zm0 0"/></symbol><symbol id="W" overflow="visible"><path d="M4.578-3.188c0-.796-.047-1.593-.39-2.328C3.733-6.484 2.905-6.64 2.5-6.64c-.61 0-1.328.266-1.75 1.188-.313.687-.36 1.469-.36 2.266 0 .75.032 1.64.454 2.406a1.83 1.83 0 0 0 1.64 1c.532 0 1.297-.203 1.735-1.157.312-.687.36-1.468.36-2.25zM2.484 0c-.39 0-.984-.25-1.156-1.203-.11-.594-.11-1.516-.11-2.11 0-.64 0-1.296.079-1.828.187-1.187.937-1.28 1.187-1.28.329 0 .985.187 1.172 1.171.11.563.11 1.313.11 1.938 0 .75 0 1.421-.11 2.062C3.5-.297 2.937 0 2.484 0zm0 0"/></symbol></defs><use height="1052.362" width="744.094" y="134.765" x="223.432" xlink:href="#U"/><use height="1052.362" width="744.094" y="134.765" x="226.753" xlink:href="#V"/><use height="1052.362" width="744.094" y="134.765" x="231.734" xlink:href="#W"/><use height="1052.362" width="744.094" y="134.765" x="236.715" xlink:href="#W"/></g><g ns0:text="100" ns0:preamble="/home/waldgeist/data/sphinx/inkscape-preamble.tex" transform="matrix(1.1192 0 0 1.1192 345.714 192.82)" fill="#4d4d4d"><defs><symbol overflow="visible" id="X"><path d="M2.938-6.375c0-.25 0-.266-.235-.266C2.078-6 1.203-6 .891-6v.313c.203 0 .78 0 1.296-.266v5.172c0 .36-.03.469-.921.469H.953V0c.344-.031 1.203-.031 1.61-.031.39 0 1.265 0 1.609.031v-.313h-.313c-.906 0-.921-.109-.921-.468zm0 0"/></symbol><symbol overflow="visible" id="Y"><path d="M4.578-3.188c0-.796-.047-1.593-.39-2.328C3.733-6.484 2.905-6.64 2.5-6.64c-.61 0-1.328.266-1.75 1.188-.313.687-.36 1.469-.36 2.266 0 .75.032 1.64.454 2.406a1.83 1.83 0 0 0 1.64 1c.532 0 1.297-.203 1.735-1.157.312-.687.36-1.468.36-2.25zM2.484 0c-.39 0-.984-.25-1.156-1.203-.11-.594-.11-1.516-.11-2.11 0-.64 0-1.296.079-1.828.187-1.187.937-1.28 1.187-1.28.329 0 .985.187 1.172 1.171.11.563.11 1.313.11 1.938 0 .75 0 1.421-.11 2.062C3.5-.297 2.937 0 2.484 0zm0 0"/></symbol></defs><use height="1052.362" width="744.094" xlink:href="#X" x="223.432" y="134.765"/><use height="1052.362" width="744.094" xlink:href="#Y" x="228.413" y="134.765"/><use height="1052.362" width="744.094" xlink:href="#Y" x="233.395" y="134.765"/></g><g transform="matrix(1.1192 0 0 1.1192 341.998 290.126)" ns0:preamble="/home/waldgeist/data/sphinx/inkscape-preamble.tex" ns0:text="-200" fill="#4d4d4d"><defs><symbol id="Z" overflow="visible"><path d="M2.75-1.86v-.577H.11v.578zm0 0"/></symbol><symbol id="aa" overflow="visible"><path d="M1.266-.766l1.062-1.03c1.547-1.376 2.14-1.907 2.14-2.907 0-1.14-.89-1.938-2.109-1.938C1.234-6.64.5-5.719.5-4.828c0 .547.5.547.531.547.172 0 .516-.11.516-.532a.513.513 0 0 0-.531-.515c-.079 0-.094 0-.125.016.218-.657.765-1.016 1.343-1.016.907 0 1.329.812 1.329 1.625 0 .797-.485 1.578-1.047 2.203L.609-.375C.5-.265.5-.235.5 0h3.703l.266-1.734h-.235C4.172-1.438 4.11-1 4-.844c-.063.078-.719.078-.938.078zm0 0"/></symbol><symbol id="ab" overflow="visible"><path d="M4.578-3.188c0-.796-.047-1.593-.39-2.328C3.733-6.484 2.905-6.64 2.5-6.64c-.61 0-1.328.266-1.75 1.188-.313.687-.36 1.469-.36 2.266 0 .75.032 1.64.454 2.406a1.83 1.83 0 0 0 1.64 1c.532 0 1.297-.203 1.735-1.157.312-.687.36-1.468.36-2.25zM2.484 0c-.39 0-.984-.25-1.156-1.203-.11-.594-.11-1.516-.11-2.11 0-.64 0-1.296.079-1.828.187-1.187.937-1.28 1.187-1.28.329 0 .985.187 1.172 1.171.11.563.11 1.313.11 1.938 0 .75 0 1.421-.11 2.062C3.5-.297 2.937 0 2.484 0zm0 0"/></symbol></defs><use height="1052.362" width="744.094" y="134.765" x="223.432" xlink:href="#Z"/><use height="1052.362" width="744.094" y="134.765" x="226.753" xlink:href="#aa"/><use height="1052.362" width="744.094" y="134.765" x="231.734" xlink:href="#ab"/><use height="1052.362" width="744.094" y="134.765" x="236.715" xlink:href="#ab"/></g><g ns0:text="300" ns0:preamble="/home/waldgeist/data/sphinx/inkscape-preamble.tex" transform="matrix(1.1192 0 0 1.1192 345.714 127.95)" fill="#4d4d4d"><defs><symbol overflow="visible" id="ac"><path d="M2.89-3.516c.813-.265 1.391-.953 1.391-1.75 0-.812-.875-1.375-1.828-1.375-1 0-1.765.594-1.765 1.36 0 .328.218.515.515.515.297 0 .5-.218.5-.515 0-.485-.469-.485-.61-.485.298-.5.954-.625 1.313-.625.422 0 .969.22.969 1.11 0 .125-.031.703-.281 1.14-.297.485-.64.516-.89.516a3.29 3.29 0 0 1-.392.031c-.078.016-.14.031-.14.125 0 .11.062.11.234.11h.438c.812 0 1.187.671 1.187 1.656 0 1.36-.687 1.64-1.125 1.64-.437 0-1.187-.171-1.531-.75.344.047.656-.171.656-.546a.537.537 0 0 0-.547-.563c-.25 0-.562.14-.562.578C.422-.437 1.344.22 2.437.22c1.22 0 2.126-.906 2.126-1.922 0-.813-.641-1.594-1.672-1.813zm0 0"/></symbol><symbol overflow="visible" id="ad"><path d="M4.578-3.188c0-.796-.047-1.593-.39-2.328C3.733-6.484 2.905-6.64 2.5-6.64c-.61 0-1.328.266-1.75 1.188-.313.687-.36 1.469-.36 2.266 0 .75.032 1.64.454 2.406a1.83 1.83 0 0 0 1.64 1c.532 0 1.297-.203 1.735-1.157.312-.687.36-1.468.36-2.25zM2.484 0c-.39 0-.984-.25-1.156-1.203-.11-.594-.11-1.516-.11-2.11 0-.64 0-1.296.079-1.828.187-1.187.937-1.28 1.187-1.28.329 0 .985.187 1.172 1.171.11.563.11 1.313.11 1.938 0 .75 0 1.421-.11 2.062C3.5-.297 2.937 0 2.484 0zm0 0"/></symbol></defs><use height="1052.362" width="744.094" xlink:href="#ac" x="223.432" y="134.765"/><use height="1052.362" width="744.094" xlink:href="#ad" x="228.413" y="134.765"/><use height="1052.362" width="744.094" xlink:href="#ad" x="233.395" y="134.765"/></g><g transform="matrix(1.1192 0 0 1.1192 341.998 322.56)" ns0:preamble="/home/waldgeist/data/sphinx/inkscape-preamble.tex" ns0:text="-300" fill="#4d4d4d"><defs><symbol id="ae" overflow="visible"><path d="M2.75-1.86v-.577H.11v.578zm0 0"/></symbol><symbol id="af" overflow="visible"><path d="M2.89-3.516c.813-.265 1.391-.953 1.391-1.75 0-.812-.875-1.375-1.828-1.375-1 0-1.765.594-1.765 1.36 0 .328.218.515.515.515.297 0 .5-.218.5-.515 0-.485-.469-.485-.61-.485.298-.5.954-.625 1.313-.625.422 0 .969.22.969 1.11 0 .125-.031.703-.281 1.14-.297.485-.64.516-.89.516a3.29 3.29 0 0 1-.392.031c-.078.016-.14.031-.14.125 0 .11.062.11.234.11h.438c.812 0 1.187.671 1.187 1.656 0 1.36-.687 1.64-1.125 1.64-.437 0-1.187-.171-1.531-.75.344.047.656-.171.656-.546a.537.537 0 0 0-.547-.563c-.25 0-.562.14-.562.578C.422-.437 1.344.22 2.437.22c1.22 0 2.126-.906 2.126-1.922 0-.813-.641-1.594-1.672-1.813zm0 0"/></symbol><symbol id="ag" overflow="visible"><path d="M4.578-3.188c0-.796-.047-1.593-.39-2.328C3.733-6.484 2.905-6.64 2.5-6.64c-.61 0-1.328.266-1.75 1.188-.313.687-.36 1.469-.36 2.266 0 .75.032 1.64.454 2.406a1.83 1.83 0 0 0 1.64 1c.532 0 1.297-.203 1.735-1.157.312-.687.36-1.468.36-2.25zM2.484 0c-.39 0-.984-.25-1.156-1.203-.11-.594-.11-1.516-.11-2.11 0-.64 0-1.296.079-1.828.187-1.187.937-1.28 1.187-1.28.329 0 .985.187 1.172 1.171.11.563.11 1.313.11 1.938 0 .75 0 1.421-.11 2.062C3.5-.297 2.937 0 2.484 0zm0 0"/></symbol></defs><use y="134.765" x="223.432" xlink:href="#ae" width="744.094" height="1052.362"/><use y="134.765" x="226.753" xlink:href="#af" width="744.094" height="1052.362"/><use y="134.765" x="231.734" xlink:href="#ag" width="744.094" height="1052.362"/><use y="134.765" x="236.715" xlink:href="#ag" width="744.094" height="1052.362"/></g><path d="M620.574 404.926h-5.138M620.574 437.36h-5.138M620.574 469.796h-5.138" fill="none" stroke="#000" stroke-width="1.382" stroke-linecap="round"/><g ns0:text="0" ns0:preamble="/home/waldgeist/data/sphinx/inkscape-preamble.tex" transform="matrix(1.1192 0 0 1.1192 356.864 225.255)" fill="#4d4d4d"><defs><symbol overflow="visible" id="F"><path d="M4.578-3.188c0-.796-.047-1.593-.39-2.328C3.733-6.484 2.905-6.64 2.5-6.64c-.61 0-1.328.266-1.75 1.188-.313.687-.36 1.469-.36 2.266 0 .75.032 1.64.454 2.406a1.83 1.83 0 0 0 1.64 1c.532 0 1.297-.203 1.735-1.157.312-.687.36-1.468.36-2.25zM2.484 0c-.39 0-.984-.25-1.156-1.203-.11-.594-.11-1.516-.11-2.11 0-.64 0-1.296.079-1.828.187-1.187.937-1.28 1.187-1.28.329 0 .985.187 1.172 1.171.11.563.11 1.313.11 1.938 0 .75 0 1.421-.11 2.062C3.5-.297 2.937 0 2.484 0zm0 0"/></symbol></defs><use height="1052.362" width="744.094" xlink:href="#F" x="223.432" y="134.765"/></g><path d="M618.005 297.89h324.351" opacity=".6" fill="none" stroke="purple" stroke-width="1.5" stroke-linecap="round" stroke-dasharray="1.5,4.5"/><g transform="matrix(1.1192 0 0 1.1192 345.714 150.785)" ns0:preamble="/home/waldgeist/data/sphinx/inkscape-preamble.tex" ns0:text="230" fill="purple" fill-opacity=".6"><defs><symbol id="ah" overflow="visible"><path d="M1.266-.766l1.062-1.03c1.547-1.376 2.14-1.907 2.14-2.907 0-1.14-.89-1.938-2.109-1.938C1.234-6.64.5-5.719.5-4.828c0 .547.5.547.531.547.172 0 .516-.11.516-.532a.513.513 0 0 0-.531-.515c-.079 0-.094 0-.125.016.218-.657.765-1.016 1.343-1.016.907 0 1.329.812 1.329 1.625 0 .797-.485 1.578-1.047 2.203L.609-.375C.5-.265.5-.235.5 0h3.703l.266-1.734h-.235C4.172-1.438 4.11-1 4-.844c-.063.078-.719.078-.938.078zm0 0"/></symbol><symbol id="ai" overflow="visible"><path d="M2.89-3.516c.813-.265 1.391-.953 1.391-1.75 0-.812-.875-1.375-1.828-1.375-1 0-1.765.594-1.765 1.36 0 .328.218.515.515.515.297 0 .5-.218.5-.515 0-.485-.469-.485-.61-.485.298-.5.954-.625 1.313-.625.422 0 .969.22.969 1.11 0 .125-.031.703-.281 1.14-.297.485-.64.516-.89.516a3.29 3.29 0 0 1-.392.031c-.078.016-.14.031-.14.125 0 .11.062.11.234.11h.438c.812 0 1.187.671 1.187 1.656 0 1.36-.687 1.64-1.125 1.64-.437 0-1.187-.171-1.531-.75.344.047.656-.171.656-.546a.537.537 0 0 0-.547-.563c-.25 0-.562.14-.562.578C.422-.437 1.344.22 2.437.22c1.22 0 2.126-.906 2.126-1.922 0-.813-.641-1.594-1.672-1.813zm0 0"/></symbol><symbol id="aj" overflow="visible"><path d="M4.578-3.188c0-.796-.047-1.593-.39-2.328C3.733-6.484 2.905-6.64 2.5-6.64c-.61 0-1.328.266-1.75 1.188-.313.687-.36 1.469-.36 2.266 0 .75.032 1.64.454 2.406a1.83 1.83 0 0 0 1.64 1c.532 0 1.297-.203 1.735-1.157.312-.687.36-1.468.36-2.25zM2.484 0c-.39 0-.984-.25-1.156-1.203-.11-.594-.11-1.516-.11-2.11 0-.64 0-1.296.079-1.828.187-1.187.937-1.28 1.187-1.28.329 0 .985.187 1.172 1.171.11.563.11 1.313.11 1.938 0 .75 0 1.421-.11 2.062C3.5-.297 2.937 0 2.484 0zm0 0"/></symbol></defs><use height="1052.362" width="744.094" y="134.765" x="223.432" xlink:href="#ah"/><use height="1052.362" width="744.094" y="134.765" x="228.413" xlink:href="#ai"/><use height="1052.362" width="744.094" y="134.765" x="233.395" xlink:href="#aj"/></g><g ns0:text="0,02" ns0:preamble="/home/waldgeist/data/sphinx/inkscape-preamble.tex" transform="matrix(1.1192 0 0 1.1192 682.373 234.533)" fill="#4d4d4d"><defs><symbol overflow="visible" id="ak"><path d="M4.578-3.188c0-.796-.047-1.593-.39-2.328C3.733-6.484 2.905-6.64 2.5-6.64c-.61 0-1.328.266-1.75 1.188-.313.687-.36 1.469-.36 2.266 0 .75.032 1.64.454 2.406a1.83 1.83 0 0 0 1.64 1c.532 0 1.297-.203 1.735-1.157.312-.687.36-1.468.36-2.25zM2.484 0c-.39 0-.984-.25-1.156-1.203-.11-.594-.11-1.516-.11-2.11 0-.64 0-1.296.079-1.828.187-1.187.937-1.28 1.187-1.28.329 0 .985.187 1.172 1.171.11.563.11 1.313.11 1.938 0 .75 0 1.421-.11 2.062C3.5-.297 2.937 0 2.484 0zm0 0"/></symbol><symbol overflow="visible" id="al"><path d="M2.031-.016c0-.625-.25-1.046-.64-1.046-.36 0-.532.28-.532.53 0 .266.172.532.532.532a.578.578 0 0 0 .375-.14l.015-.016c.016 0 .016 0 .016.14 0 .641-.266 1.25-.703 1.72-.063.062-.078.077-.078.109 0 .078.046.109.093.109.125 0 .922-.781.922-1.938zm0 0"/></symbol><symbol overflow="visible" id="am"><path d="M1.266-.766l1.062-1.03c1.547-1.376 2.14-1.907 2.14-2.907 0-1.14-.89-1.938-2.109-1.938C1.234-6.64.5-5.719.5-4.828c0 .547.5.547.531.547.172 0 .516-.11.516-.532a.513.513 0 0 0-.531-.515c-.079 0-.094 0-.125.016.218-.657.765-1.016 1.343-1.016.907 0 1.329.812 1.329 1.625 0 .797-.485 1.578-1.047 2.203L.609-.375C.5-.265.5-.235.5 0h3.703l.266-1.734h-.235C4.172-1.438 4.11-1 4-.844c-.063.078-.719.078-.938.078zm0 0"/></symbol></defs><use height="744.094" width="1052.362" xlink:href="#ak" x="223.432" y="134.765"/><use height="744.094" width="1052.362" xlink:href="#al" x="228.413" y="134.765"/><use height="744.094" width="1052.362" xlink:href="#ak" x="231.181" y="134.765"/><use height="744.094" width="1052.362" xlink:href="#am" x="236.162" y="134.765"/></g></svg>