<svg xmlns="http://www.w3.org/2000/svg" width="1052.362" height="744.094"><title>Diamagnetismus Paramagnetismus Ferromagnetismus</title><path style="marker:none" color="#000" fill="#fff" stroke="#fff" stroke-width="2" stroke-linecap="round" stroke-linejoin="round" overflow="visible" d="M13.849 189.365h1024.664V554.73H13.849z"/><path style="marker:none" color="#000" fill="gray" stroke="#333" stroke-width="2" stroke-linecap="round" stroke-linejoin="round" overflow="visible" d="M459.514 308.051h127.992v127.992H459.514zM818.477 308.051h127.992v127.992H818.477z"/><path d="M345.495 213.945V530.15M703.48 213.945v316.204" style="marker:none" color="#000" fill="none" stroke="gray" stroke-width="2" stroke-linecap="round" stroke-linejoin="round" overflow="visible"/><path d="M35.53 527.002h276.442" fill="none" stroke="#000"/><path style="marker:none" color="#000" fill="gray" stroke="#333" stroke-width="2" stroke-linecap="round" stroke-linejoin="round" overflow="visible" d="M109.755 308.051h127.992v127.992H109.755z"/><g stroke="#a0892c"><path d="M327.721 510.004v309.91" style="marker:none" color="#000" fill="none" stroke-width="2.068" stroke-linecap="round" stroke-linejoin="round" overflow="visible" transform="matrix(.93547 0 0 1 -271.043 -292.912)"/><path d="M-707.107 1620.068l-5.249-9.091-5.249-9.092h20.996l-5.249 9.091z" transform="scale(-.527 -.56336) rotate(-59.951 -2157.84 32.184)" fill="#a0892c" stroke-width="5.506"/><path transform="matrix(-.2639 .48764 -.45617 -.2821 582.426 1293.504)" d="M-707.107 1620.068l-5.249-9.091-5.249-9.092h20.996l-5.249 9.091z" fill="#a0892c" stroke-width="5.506"/></g><g stroke="#a0892c"><path d="M327.721 510.004v309.91" style="marker:none" color="#000" fill="none" stroke-width="2.068" stroke-linecap="round" stroke-linejoin="round" overflow="visible" transform="matrix(.93547 0 0 1 -234.185 -292.912)"/><path d="M-707.107 1620.068l-5.249-9.091-5.249-9.092h20.996l-5.249 9.091z" transform="scale(-.527 -.56336) rotate(-59.951 -2192.81 92.814)" fill="#a0892c" stroke-width="5.506"/><path transform="matrix(-.2639 .48764 -.45617 -.2821 619.285 1293.504)" d="M-707.107 1620.068l-5.249-9.091-5.249-9.092h20.996l-5.249 9.091z" fill="#a0892c" stroke-width="5.506"/></g><g stroke="#a0892c"><path d="M327.721 510.004v80.65c-9.847 47.902-9.847 100.709 0 148.786v80.474" style="marker:none" color="#000" fill="none" stroke-width="2.068" stroke-linecap="round" stroke-linejoin="round" overflow="visible" transform="matrix(.93547 0 0 1 -197.326 -292.912)"/><path d="M-707.107 1620.068l-5.249-9.091-5.249-9.092h20.996l-5.249 9.091z" transform="scale(-.527 -.56336) rotate(-59.951 -2227.78 153.445)" fill="#a0892c" stroke-width="5.506"/><path transform="scale(-.527 -.56336) rotate(-59.951 -2612.96 -68.716)" d="M-707.107 1620.068l-5.249-9.091-5.249-9.092h20.996l-5.249 9.091z" fill="#a0892c" stroke-width="5.506"/></g><g stroke="#a0892c"><path d="M327.721 510.004v70.913c-9.847 47.639-9.847 120.446 0 168v70.997" style="marker:none" color="#000" fill="none" stroke-width="2.068" stroke-linecap="round" stroke-linejoin="round" overflow="visible" transform="matrix(.93547 0 0 1 -160.467 -292.912)"/><path d="M-707.107 1620.068l-5.249-9.091-5.249-9.092h20.996l-5.249 9.091z" transform="scale(-.527 -.56336) rotate(-59.951 -2262.75 214.076)" fill="#a0892c" stroke-width="5.506"/><path transform="scale(-.527 -.56336) rotate(-59.951 -2647.93 -8.086)" d="M-707.107 1620.068l-5.249-9.091-5.249-9.092h20.996l-5.249 9.091z" fill="#a0892c" stroke-width="5.506"/></g><g stroke="#a0892c"><path d="M327.721 510.004v60.96c9.854 47.592 9.854 140.399 0 187.991v60.96" style="marker:none" color="#000" fill="none" stroke-width="2.068" stroke-linecap="round" stroke-linejoin="round" overflow="visible" transform="matrix(.93547 0 0 1 -123.116 -292.912)"/><path d="M-707.107 1620.068l-5.249-9.091-5.249-9.092h20.996l-5.249 9.091z" transform="matrix(-.2639 .48764 -.45617 -.2821 730.353 1043.192)" fill="#a0892c" stroke-width="5.506"/><path transform="scale(-.527 -.56336) rotate(-59.951 -2683.367 53.354)" d="M-707.107 1620.068l-5.249-9.091-5.249-9.092h20.996l-5.249 9.091z" fill="#a0892c" stroke-width="5.506"/></g><g stroke="#a0892c"><path d="M327.721 510.004v76.913c9.854 47.639 9.854 108.446 0 156v76.997" style="marker:none" color="#000" fill="none" stroke-width="2.068" stroke-linecap="round" stroke-linejoin="round" overflow="visible" transform="matrix(.93547 0 0 1 -86.75 -292.912)"/><path d="M-707.107 1620.068l-5.249-9.091-5.249-9.092h20.996l-5.249 9.091z" transform="matrix(-.2639 .48764 -.45617 -.2821 766.72 1043.192)" fill="#a0892c" stroke-width="5.506"/><path transform="matrix(-.2639 .48764 -.45617 -.2821 766.72 1293.504)" d="M-707.107 1620.068l-5.249-9.091-5.249-9.092h20.996l-5.249 9.091z" fill="#a0892c" stroke-width="5.506"/></g><g stroke="#a0892c"><path style="marker:none" d="M327.721 510.004v309.91" color="#000" fill="none" stroke-width="2.068" stroke-linecap="round" stroke-linejoin="round" overflow="visible" transform="matrix(.93547 0 0 1 -49.89 -292.912)"/><path transform="matrix(-.2639 .48764 -.45617 -.2821 803.579 1043.192)" d="M-707.107 1620.068l-5.249-9.091-5.249-9.092h20.996l-5.249 9.091z" fill="#a0892c" stroke-width="5.506"/><path d="M-707.107 1620.068l-5.249-9.091-5.249-9.092h20.996l-5.249 9.091z" transform="scale(-.527 -.56336) rotate(-59.951 -2752.84 173.806)" fill="#a0892c" stroke-width="5.506"/></g><g stroke="#a0892c"><path style="marker:none" d="M327.721 510.004v309.91" color="#000" fill="none" stroke-width="2.068" stroke-linecap="round" stroke-linejoin="round" overflow="visible" transform="matrix(.93547 0 0 1 -13.032 -292.912)"/><path transform="matrix(-.2639 .48764 -.45617 -.2821 840.438 1043.192)" d="M-707.107 1620.068l-5.249-9.091-5.249-9.092h20.996l-5.249 9.091z" fill="#a0892c" stroke-width="5.506"/><path d="M-707.107 1620.068l-5.249-9.091-5.249-9.092h20.996l-5.249 9.091z" transform="scale(-.527 -.56336) rotate(-59.951 -2787.81 234.436)" fill="#a0892c" stroke-width="5.506"/></g><g stroke="#a0892c"><path style="marker:none" d="M327.721 510.004v309.91" color="#000" fill="none" stroke-width="2.068" stroke-linecap="round" stroke-linejoin="round" overflow="visible" transform="matrix(.93547 0 0 1 -252.614 -292.912)"/><path transform="scale(-.527 -.56336) rotate(-59.951 -2175.326 62.5)" d="M-707.107 1620.068l-5.249-9.091-5.249-9.092h20.996l-5.249 9.091z" fill="#a0892c" stroke-width="5.506"/><path d="M-707.107 1620.068l-5.249-9.091-5.249-9.092h20.996l-5.249 9.091z" transform="matrix(-.2639 .48764 -.45617 -.2821 600.855 1293.504)" fill="#a0892c" stroke-width="5.506"/></g><g stroke="#a0892c"><path d="M327.721 510.004v309.91" style="marker:none" color="#000" fill="none" stroke-width="2.068" stroke-linecap="round" stroke-linejoin="round" overflow="visible" transform="matrix(.93547 0 0 1 -215.755 -292.912)"/><path d="M-707.107 1620.068l-5.249-9.091-5.249-9.092h20.996l-5.249 9.091z" transform="scale(-.527 -.56336) rotate(-59.951 -2210.296 123.13)" fill="#a0892c" stroke-width="5.506"/><path transform="matrix(-.2639 .48764 -.45617 -.2821 637.714 1293.504)" d="M-707.107 1620.068l-5.249-9.091-5.249-9.092h20.996l-5.249 9.091z" fill="#a0892c" stroke-width="5.506"/></g><g stroke="#a0892c"><path style="marker:none" d="M327.721 510.004v76.96c-9.85 47.592-9.85 108.399 0 155.991v76.96" color="#000" fill="none" stroke-width="2.068" stroke-linecap="round" stroke-linejoin="round" overflow="visible" transform="matrix(.93547 0 0 1 -178.896 -292.912)"/><path transform="scale(-.527 -.56336) rotate(-59.951 -2245.266 183.76)" d="M-707.107 1620.068l-5.249-9.091-5.249-9.092h20.996l-5.249 9.091z" fill="#a0892c" stroke-width="5.506"/><path d="M-707.107 1620.068l-5.249-9.091-5.249-9.092h20.996l-5.249 9.091z" transform="matrix(-.2639 .48764 -.45617 -.2821 674.573 1293.504)" fill="#a0892c" stroke-width="5.506"/></g><g stroke="#a0892c"><path d="M327.721 510.004v60.96c-9.847 47.592-9.847 140.399 0 187.953v60.997" style="marker:none" color="#000" fill="none" stroke-width="2.068" stroke-linecap="round" stroke-linejoin="round" overflow="visible" transform="matrix(.93547 0 0 1 -142.038 -292.912)"/><path d="M-707.107 1620.068l-5.249-9.091-5.249-9.092h20.996l-5.249 9.091z" transform="scale(-.527 -.56336) rotate(-59.951 -2280.236 244.39)" fill="#a0892c" stroke-width="5.506"/><path transform="scale(-.527 -.56336) rotate(-59.951 -2665.415 22.23)" d="M-707.107 1620.068l-5.249-9.091-5.249-9.092h20.996l-5.249 9.091z" fill="#a0892c" stroke-width="5.506"/></g><g stroke="#a0892c"><path style="marker:none" d="M327.721 502.46v78.503c9.59 47.593 9.59 120.4 0 167.992v63.415" color="#000" fill="none" stroke-width="2.068" stroke-linecap="round" stroke-linejoin="round" overflow="visible" transform="matrix(.93547 0 0 1 -104.687 -292.912)"/><path transform="matrix(-.2639 .48764 -.45617 -.2821 748.783 1043.192)" d="M-707.107 1620.068l-5.249-9.091-5.249-9.092h20.996l-5.249 9.091z" fill="#a0892c" stroke-width="5.506"/><path d="M-707.107 1620.068l-5.249-9.091-5.249-9.092h20.996l-5.249 9.091z" transform="scale(-.527 -.56336) rotate(-59.951 -2700.852 83.67)" fill="#a0892c" stroke-width="5.506"/></g><g stroke="#a0892c"><path d="M327.721 510.004v80.913c9.854 47.639 9.854 100.223 0 148.038v80.96" style="marker:none" color="#000" fill="none" stroke-width="2.068" stroke-linecap="round" stroke-linejoin="round" overflow="visible" transform="matrix(.93547 0 0 1 -68.32 -292.912)"/><path d="M-707.107 1620.068l-5.249-9.091-5.249-9.092h20.996l-5.249 9.091z" transform="matrix(-.2639 .48764 -.45617 -.2821 785.15 1043.192)" fill="#a0892c" stroke-width="5.506"/><path transform="matrix(-.2639 .48764 -.45617 -.2821 785.15 1293.504)" d="M-707.107 1620.068l-5.249-9.091-5.249-9.092h20.996l-5.249 9.091z" fill="#a0892c" stroke-width="5.506"/></g><g stroke="#a0892c"><path style="marker:none" d="M327.721 510.004v309.91" color="#000" fill="none" stroke-width="2.068" stroke-linecap="round" stroke-linejoin="round" overflow="visible" transform="matrix(.93547 0 0 1 -31.461 -292.912)"/><path transform="matrix(-.2639 .48764 -.45617 -.2821 822.008 1043.192)" d="M-707.107 1620.068l-5.249-9.091-5.249-9.092h20.996l-5.249 9.091z" fill="#a0892c" stroke-width="5.506"/><path d="M-707.107 1620.068l-5.249-9.091-5.249-9.092h20.996l-5.249 9.091z" transform="matrix(-.2639 .48764 -.45617 -.2821 822.008 1293.504)" fill="#a0892c" stroke-width="5.506"/></g><g stroke="#a0892c"><path d="M327.721 510.004v309.91" style="marker:none" color="#000" fill="none" stroke-width="2.068" stroke-linecap="round" stroke-linejoin="round" overflow="visible" transform="matrix(.93547 0 0 1 5.398 -292.912)"/><path d="M-707.107 1620.068l-5.249-9.091-5.249-9.092h20.996l-5.249 9.091z" transform="matrix(-.2639 .48764 -.45617 -.2821 858.867 1043.192)" fill="#a0892c" stroke-width="5.506"/><path transform="matrix(-.2639 .48764 -.45617 -.2821 858.867 1293.504)" d="M-707.107 1620.068l-5.249-9.091-5.249-9.092h20.996l-5.249 9.091z" fill="#a0892c" stroke-width="5.506"/></g><g stroke="#a0892c"><path style="marker:none" d="M327.721 510.004v309.91" color="#000" fill="none" stroke-width="2.068" stroke-linecap="round" stroke-linejoin="round" overflow="visible" transform="matrix(.93547 0 0 1 78.713 -292.912)"/><path transform="matrix(-.2639 .48764 -.45617 -.2821 932.182 1043.192)" d="M-707.107 1620.068l-5.249-9.091-5.249-9.092h20.996l-5.249 9.091z" fill="#a0892c" stroke-width="5.506"/><path d="M-707.107 1620.068l-5.249-9.091-5.249-9.092h20.996l-5.249 9.091z" transform="matrix(-.2639 .48764 -.45617 -.2821 932.182 1293.504)" fill="#a0892c" stroke-width="5.506"/></g><g stroke="#a0892c"><path style="marker:none" d="M327.721 510.004v309.91" color="#000" fill="none" stroke-width="2.068" stroke-linecap="round" stroke-linejoin="round" overflow="visible" transform="matrix(.93547 0 0 1 115.572 -292.912)"/><path transform="matrix(-.2639 .48764 -.45617 -.2821 969.041 1043.192)" d="M-707.107 1620.068l-5.249-9.091-5.249-9.092h20.996l-5.249 9.091z" fill="#a0892c" stroke-width="5.506"/><path d="M-707.107 1620.068l-5.249-9.091-5.249-9.092h20.996l-5.249 9.091z" transform="matrix(-.2639 .48764 -.45617 -.2821 969.041 1293.504)" fill="#a0892c" stroke-width="5.506"/></g><g stroke="#a0892c"><path style="marker:none" d="M327.721 510.004v80.913c9.854 47.639 9.854 100.446 0 148v80.997" color="#000" fill="none" stroke-width="2.068" stroke-linecap="round" stroke-linejoin="round" overflow="visible" transform="matrix(.93547 0 0 1 152.43 -292.912)"/><path transform="matrix(-.2639 .48764 -.45617 -.2821 1005.9 1043.192)" d="M-707.107 1620.068l-5.249-9.091-5.249-9.092h20.996l-5.249 9.091z" fill="#a0892c" stroke-width="5.506"/><path d="M-707.107 1620.068l-5.249-9.091-5.249-9.092h20.996l-5.249 9.091z" transform="matrix(-.2639 .48764 -.45617 -.2821 1005.9 1293.504)" fill="#a0892c" stroke-width="5.506"/></g><g stroke="#a0892c"><path style="marker:none" d="M327.721 510.004v70.913c9.15 47.639 9.15 120.446 0 168.261v70.736" color="#000" fill="none" stroke-width="2.068" stroke-linecap="round" stroke-linejoin="round" overflow="visible" transform="matrix(.93547 0 0 1 189.29 -292.912)"/><path transform="scale(-.527 -.56336) rotate(-59.951 -2594.586 789.404)" d="M-707.107 1620.068l-5.249-9.091-5.249-9.092h20.996l-5.249 9.091z" fill="#a0892c" stroke-width="5.506"/><path d="M-707.107 1620.068l-5.249-9.091-5.249-9.092h20.996l-5.249 9.091z" transform="scale(-.527 -.56336) rotate(-59.951 -2979.765 567.243)" fill="#a0892c" stroke-width="5.506"/></g><g stroke="#a0892c"><path style="marker:none" d="M327.721 510.004v60.96c-6.37 30-6.37 157.991 0 187.991v60.96" color="#000" fill="none" stroke-width="2.068" stroke-linecap="round" stroke-linejoin="round" overflow="visible" transform="matrix(.93547 0 0 1 226.64 -292.912)"/><path transform="matrix(-.2639 .48764 -.45617 -.2821 1080.11 1043.192)" d="M-707.107 1620.068l-5.249-9.091-5.249-9.092h20.996l-5.249 9.091z" fill="#a0892c" stroke-width="5.506"/><path d="M-707.107 1620.068l-5.249-9.091-5.249-9.092h20.996l-5.249 9.091z" transform="matrix(-.2639 .48764 -.45617 -.2821 1080.11 1293.504)" fill="#a0892c" stroke-width="5.506"/></g><g stroke="#a0892c"><path style="marker:none" d="M327.721 510.004v76.927c-9.586 47.625-9.586 108.432 0 156.269v76.714" color="#000" fill="none" stroke-width="2.068" stroke-linecap="round" stroke-linejoin="round" overflow="visible" transform="matrix(.93547 0 0 1 263.007 -292.912)"/><path transform="scale(-.527 -.56336) rotate(-59.951 -2664.526 910.665)" d="M-707.107 1620.068l-5.249-9.091-5.249-9.092h20.996l-5.249 9.091z" fill="#a0892c" stroke-width="5.506"/><path d="M-707.107 1620.068l-5.249-9.091-5.249-9.092h20.996l-5.249 9.091z" transform="scale(-.527 -.56336) rotate(-59.951 -3049.705 688.504)" fill="#a0892c" stroke-width="5.506"/></g><g stroke="#a0892c"><path d="M327.721 510.004v80.927c-9.847 47.625-9.847 100.432 0 147.898v81.085" style="marker:none" color="#000" fill="none" stroke-width="2.068" stroke-linecap="round" stroke-linejoin="round" overflow="visible" transform="matrix(.93547 0 0 1 299.866 -292.912)"/><path d="M-707.107 1620.068l-5.249-9.091-5.249-9.092h20.996l-5.249 9.091z" transform="scale(-.527 -.56336) rotate(-59.951 -2699.496 971.296)" fill="#a0892c" stroke-width="5.506"/><path transform="scale(-.527 -.56336) rotate(-59.951 -3084.675 749.134)" d="M-707.107 1620.068l-5.249-9.091-5.249-9.092h20.996l-5.249 9.091z" fill="#a0892c" stroke-width="5.506"/></g><g stroke="#a0892c"><path d="M327.721 510.004v309.91" style="marker:none" color="#000" fill="none" stroke-width="2.068" stroke-linecap="round" stroke-linejoin="round" overflow="visible" transform="matrix(.93547 0 0 1 336.725 -292.912)"/><path d="M-707.107 1620.068l-5.249-9.091-5.249-9.092h20.996l-5.249 9.091z" transform="matrix(-.2639 .48764 -.45617 -.2821 1190.194 1043.192)" fill="#a0892c" stroke-width="5.506"/><path transform="scale(-.527 -.56336) rotate(-59.951 -3119.645 809.765)" d="M-707.107 1620.068l-5.249-9.091-5.249-9.092h20.996l-5.249 9.091z" fill="#a0892c" stroke-width="5.506"/></g><g stroke="#a0892c"><path d="M327.721 510.004v309.91" style="marker:none" color="#000" fill="none" stroke-width="2.068" stroke-linecap="round" stroke-linejoin="round" overflow="visible" transform="matrix(.93547 0 0 1 97.143 -292.912)"/><path d="M-707.107 1620.068l-5.249-9.091-5.249-9.092h20.996l-5.249 9.091z" transform="scale(-.527 -.56336) rotate(-59.951 -2507.16 637.828)" fill="#a0892c" stroke-width="5.506"/><path transform="scale(-.527 -.56336) rotate(-59.951 -2892.34 415.666)" d="M-707.107 1620.068l-5.249-9.091-5.249-9.092h20.996l-5.249 9.091z" fill="#a0892c" stroke-width="5.506"/></g><g stroke="#a0892c"><path style="marker:none" d="M327.721 510.004v80.913c9.854 47.639 9.854 100.446 0 148.038v80.96" color="#000" fill="none" stroke-width="2.068" stroke-linecap="round" stroke-linejoin="round" overflow="visible" transform="matrix(.93547 0 0 1 134.001 -292.912)"/><path transform="matrix(-.2639 .48764 -.45617 -.2821 987.47 1043.192)" d="M-707.107 1620.068l-5.249-9.091-5.249-9.092h20.996l-5.249 9.091z" fill="#a0892c" stroke-width="5.506"/><path d="M-707.107 1620.068l-5.249-9.091-5.249-9.092h20.996l-5.249 9.091z" transform="matrix(-.2639 .48764 -.45617 -.2821 987.47 1293.504)" fill="#a0892c" stroke-width="5.506"/></g><g stroke="#a0892c"><path d="M327.721 510.004v76.913c9.853 47.639 9.853 108.446 0 156v76.997" style="marker:none" color="#000" fill="none" stroke-width="2.068" stroke-linecap="round" stroke-linejoin="round" overflow="visible" transform="matrix(.93547 0 0 1 170.86 -292.912)"/><path d="M-707.107 1620.068l-5.249-9.091-5.249-9.092h20.996l-5.249 9.091z" transform="scale(-.527 -.56336) rotate(-59.951 -2577.1 759.089)" fill="#a0892c" stroke-width="5.506"/><path transform="scale(-.527 -.56336) rotate(-59.951 -2962.28 536.928)" d="M-707.107 1620.068l-5.249-9.091-5.249-9.092h20.996l-5.249 9.091z" fill="#a0892c" stroke-width="5.506"/></g><g stroke="#a0892c"><path style="marker:none" d="M327.721 510.004v61.043c6.377 29.916 6.377 157.908 0 187.908v60.96" color="#000" fill="none" stroke-width="2.068" stroke-linecap="round" stroke-linejoin="round" overflow="visible" transform="matrix(.93547 0 0 1 207.719 -292.912)"/><path transform="scale(-.527 -.56336) rotate(-59.951 -2612.07 819.72)" d="M-707.107 1620.068l-5.249-9.091-5.249-9.092h20.996l-5.249 9.091z" fill="#a0892c" stroke-width="5.506"/><path d="M-707.107 1620.068l-5.249-9.091-5.249-9.092h20.996l-5.249 9.091z" transform="scale(-.527 -.56336) rotate(-59.951 -2997.25 597.558)" fill="#a0892c" stroke-width="5.506"/></g><path style="marker:none" d="M551.644 217.092v70.96c-9.214 47.592-9.214 120.399 0 167.991v70.96" color="#000" fill="none" stroke="#a0892c" stroke-width="2" stroke-linecap="round" stroke-linejoin="round" overflow="visible"/><path transform="matrix(-.2639 .48764 -.45617 -.2821 1098.54 1043.192)" d="M-707.107 1620.068l-5.249-9.091-5.249-9.092h20.996l-5.249 9.091z" fill="#a0892c" stroke="#a0892c" stroke-width="5.506"/><path d="M-707.107 1620.068l-5.249-9.091-5.249-9.092h20.996l-5.249 9.091z" transform="matrix(-.2639 .48764 -.45617 -.2821 1098.54 1293.504)" fill="#a0892c" stroke="#a0892c" stroke-width="5.506"/><g stroke="#a0892c"><path style="marker:none" d="M327.721 510.004v80.927c-9.847 47.625-9.847 100.432 0 148.084v80.9" color="#000" fill="none" stroke-width="2.068" stroke-linecap="round" stroke-linejoin="round" overflow="visible" transform="matrix(.93547 0 0 1 281.437 -292.912)"/><path transform="scale(-.527 -.56336) rotate(-59.951 -2682.011 940.98)" d="M-707.107 1620.068l-5.249-9.091-5.249-9.092h20.996l-5.249 9.091z" fill="#a0892c" stroke-width="5.506"/><path d="M-707.107 1620.068l-5.249-9.091-5.249-9.092h20.996l-5.249 9.091z" transform="scale(-.527 -.56336) rotate(-59.951 -3067.19 718.82)" fill="#a0892c" stroke-width="5.506"/></g><g stroke="#a0892c"><path d="M327.721 510.004v309.91" style="marker:none" color="#000" fill="none" stroke-width="2.068" stroke-linecap="round" stroke-linejoin="round" overflow="visible" transform="matrix(.93547 0 0 1 318.295 -292.912)"/><path d="M-707.107 1620.068l-5.249-9.091-5.249-9.092h20.996l-5.249 9.091z" transform="matrix(-.2639 .48764 -.45617 -.2821 1171.765 1043.192)" fill="#a0892c" stroke-width="5.506"/><path transform="scale(-.527 -.56336) rotate(-59.951 -3102.16 779.45)" d="M-707.107 1620.068l-5.249-9.091-5.249-9.092h20.996l-5.249 9.091z" fill="#a0892c" stroke-width="5.506"/></g><g stroke="#a0892c"><path style="marker:none" d="M327.721 510.004v309.91" color="#000" fill="none" stroke-width="2.068" stroke-linecap="round" stroke-linejoin="round" overflow="visible" transform="matrix(.93547 0 0 1 355.154 -292.912)"/><path transform="matrix(-.2639 .48764 -.45617 -.2821 1208.624 1043.192)" d="M-707.107 1620.068l-5.249-9.091-5.249-9.092h20.996l-5.249 9.091z" fill="#a0892c" stroke-width="5.506"/><path d="M-707.107 1620.068l-5.249-9.091-5.249-9.092h20.996l-5.249 9.091z" transform="scale(-.527 -.56336) rotate(-59.951 -3137.13 840.08)" fill="#a0892c" stroke-width="5.506"/></g><g stroke="#a0892c"><path style="marker:none" d="M327.721 510.004v309.91" color="#000" fill="none" stroke-width="2.068" stroke-linecap="round" stroke-linejoin="round" overflow="visible" transform="matrix(.93547 0 0 1 437.676 -292.912)"/><path transform="matrix(-.2639 .48764 -.45617 -.2821 1291.145 1043.192)" d="M-707.107 1620.068l-5.249-9.091-5.249-9.092h20.996l-5.249 9.091z" fill="#a0892c" stroke-width="5.506"/><path d="M-707.107 1620.068l-5.249-9.091-5.249-9.092h20.996l-5.249 9.091z" transform="scale(-.527 -.56336) rotate(-59.951 -3215.424 975.824)" fill="#a0892c" stroke-width="5.506"/><path style="marker:none" d="M327.721 510.004v75.128c39.402 47.424 39.402 112.23 0 160v74.782" color="#000" fill="none" stroke-width="2.068" stroke-linecap="round" stroke-linejoin="round" overflow="visible" transform="matrix(.93547 0 0 1 474.535 -292.912)"/><path transform="matrix(-.2639 .48764 -.45617 -.2821 1328.004 1043.192)" d="M-707.107 1620.068l-5.249-9.091-5.249-9.092h20.996l-5.249 9.091z" fill="#a0892c" stroke-width="5.506"/><path d="M-707.107 1620.068l-5.249-9.091-5.249-9.092h20.996l-5.249 9.091z" transform="matrix(-.2639 .48764 -.45617 -.2821 1328.004 1293.504)" fill="#a0892c" stroke-width="5.506"/><path style="marker:none" d="M327.721 510.004v64.878c39.402 57.215 39.402 122.94 0 180.073v64.96" color="#000" fill="none" stroke-width="2.068" stroke-linecap="round" stroke-linejoin="round" overflow="visible" transform="matrix(.93547 0 0 1 511.394 -292.912)"/><path transform="matrix(-.2639 .48764 -.45617 -.2821 1364.863 1043.192)" d="M-707.107 1620.068l-5.249-9.091-5.249-9.092h20.996l-5.249 9.091z" fill="#a0892c" stroke-width="5.506"/><path d="M-707.107 1620.068l-5.249-9.091-5.249-9.092h20.996l-5.249 9.091z" transform="matrix(-.2639 .48764 -.45617 -.2821 1364.863 1293.504)" fill="#a0892c" stroke-width="5.506"/><path style="marker:none" d="M327.721 510.004v61.071c19.7 37.022 19.7 150.746 0 187.81v61.03" color="#000" fill="none" stroke-width="2.068" stroke-linecap="round" stroke-linejoin="round" overflow="visible" transform="matrix(.93547 0 0 1 548.252 -292.912)"/><path transform="matrix(-.2639 .48764 -.45617 -.2821 1401.722 1043.192)" d="M-707.107 1620.068l-5.249-9.091-5.249-9.092h20.996l-5.249 9.091z" fill="#a0892c" stroke-width="5.506"/><path d="M-707.107 1620.068l-5.249-9.091-5.249-9.092h20.996l-5.249 9.091z" transform="matrix(-.2639 .48764 -.45617 -.2821 1401.722 1293.504)" fill="#a0892c" stroke-width="5.506"/><path style="marker:none" d="M327.721 510.004v50.96c-10.373 40-10.373 167.991 0 207.991v50.96" color="#000" fill="none" stroke-width="2.068" stroke-linecap="round" stroke-linejoin="round" overflow="visible" transform="matrix(.93547 0 0 1 585.603 -292.912)"/><path transform="matrix(-.2639 .48764 -.45617 -.2821 1439.073 1043.192)" d="M-707.107 1620.068l-5.249-9.091-5.249-9.092h20.996l-5.249 9.091z" fill="#a0892c" stroke-width="5.506"/><path d="M-707.107 1620.068l-5.249-9.091-5.249-9.092h20.996l-5.249 9.091z" transform="matrix(-.2639 .48764 -.45617 -.2821 1439.073 1293.504)" fill="#a0892c" stroke-width="5.506"/><path style="marker:none" d="M327.721 510.004v58.894c-29.025 37.509-29.025 152.614 0 190.164v60.852" color="#000" fill="none" stroke-width="2.068" stroke-linecap="round" stroke-linejoin="round" overflow="visible" transform="matrix(.93547 0 0 1 621.97 -292.912)"/><path transform="matrix(-.2639 .48764 -.45617 -.2821 1475.44 1043.192)" d="M-707.107 1620.068l-5.249-9.091-5.249-9.092h20.996l-5.249 9.091z" fill="#a0892c" stroke-width="5.506"/><path d="M-707.107 1620.068l-5.249-9.091-5.249-9.092h20.996l-5.249 9.091z" transform="matrix(-.2639 .48764 -.45617 -.2821 1475.44 1293.504)" fill="#a0892c" stroke-width="5.506"/><g><path d="M327.721 510.004v70.718c-39.401 47.834-39.401 120.64 0 168.163v71.03" style="marker:none" color="#000" fill="none" stroke-width="2.068" stroke-linecap="round" stroke-linejoin="round" overflow="visible" transform="matrix(.93547 0 0 1 658.829 -292.912)"/><path d="M-707.107 1620.068l-5.249-9.091-5.249-9.092h20.996l-5.249 9.091z" transform="matrix(-.2639 .48764 -.45617 -.2821 1512.298 1043.192)" fill="#a0892c" stroke-width="5.506"/><path transform="matrix(-.2639 .48764 -.45617 -.2821 1512.298 1293.504)" d="M-707.107 1620.068l-5.249-9.091-5.249-9.092h20.996l-5.249 9.091z" fill="#a0892c" stroke-width="5.506"/></g><g><path d="M327.721 510.004l.756 80.96c-20.456 47.592-20.456 100.399-.756 147.991v80.96" style="marker:none" color="#000" fill="none" stroke-width="2.068" stroke-linecap="round" stroke-linejoin="round" overflow="visible" transform="matrix(.93547 0 0 1 695.688 -292.912)"/><path d="M-707.107 1620.068l-5.249-9.091-5.249-9.092h20.996l-5.249 9.091z" transform="matrix(-.2639 .48764 -.45617 -.2821 1549.157 1043.192)" fill="#a0892c" stroke-width="5.506"/><path transform="matrix(-.2639 .48764 -.45617 -.2821 1549.157 1293.504)" d="M-707.107 1620.068l-5.249-9.091-5.249-9.092h20.996l-5.249 9.091z" fill="#a0892c" stroke-width="5.506"/></g><g><path d="M327.721 510.004v80.96c19.7 37.133 19.7 100.399 0 147.991v80.96" style="marker:none" color="#000" fill="none" stroke-width="2.068" stroke-linecap="round" stroke-linejoin="round" overflow="visible" transform="matrix(.93547 0 0 1 456.105 -292.912)"/><path d="M-707.107 1620.068l-5.249-9.091-5.249-9.092h20.996l-5.249 9.091z" transform="scale(-.527 -.56336) rotate(-59.951 -2847.73 1228.3)" fill="#a0892c" stroke-width="5.506"/><path transform="matrix(-.2639 .48764 -.45617 -.2821 1309.575 1293.504)" d="M-707.107 1620.068l-5.249-9.091-5.249-9.092h20.996l-5.249 9.091z" fill="#a0892c" stroke-width="5.506"/></g><g><path style="marker:none" d="M327.721 510.004v70.718c39.402 47.834 39.402 120.64 0 168.163v71.03" color="#000" fill="none" stroke-width="2.068" stroke-linecap="round" stroke-linejoin="round" overflow="visible" transform="matrix(.93547 0 0 1 492.964 -292.912)"/><path transform="scale(-.527 -.56336) rotate(-59.951 -2882.7 1288.93)" d="M-707.107 1620.068l-5.249-9.091-5.249-9.092h20.996l-5.249 9.091z" fill="#a0892c" stroke-width="5.506"/><path d="M-707.107 1620.068l-5.249-9.091-5.249-9.092h20.996l-5.249 9.091z" transform="scale(-.527 -.56336) rotate(-59.951 -3267.879 1066.77)" fill="#a0892c" stroke-width="5.506"/></g><g><path d="M327.721 510.004v65.071c29.551 37.022 29.551 144.746 0 181.81v63.03" style="marker:none" color="#000" fill="none" stroke-width="2.068" stroke-linecap="round" stroke-linejoin="round" overflow="visible" transform="matrix(.93547 0 0 1 529.823 -292.912)"/><path d="M-707.107 1620.068l-5.249-9.091-5.249-9.092h20.996l-5.249 9.091z" transform="scale(-.527 -.56336) rotate(-59.951 -2917.67 1349.561)" fill="#a0892c" stroke-width="5.506"/><path transform="scale(-.527 -.56336) rotate(-59.951 -3302.85 1127.4)" d="M-707.107 1620.068l-5.249-9.091-5.249-9.092h20.996l-5.249 9.091z" fill="#a0892c" stroke-width="5.506"/></g><g><path style="marker:none" d="M327.721 510.004v50.894c9.854 40.065 9.854 168.057 0 207.987v51.03" color="#000" fill="none" stroke-width="2.068" stroke-linecap="round" stroke-linejoin="round" overflow="visible" transform="matrix(.93547 0 0 1 566.682 -292.912)"/><path transform="scale(-.527 -.56336) rotate(-59.951 -2952.64 1410.192)" d="M-707.107 1620.068l-5.249-9.091-5.249-9.092h20.996l-5.249 9.091z" fill="#a0892c" stroke-width="5.506"/><path d="M-707.107 1620.068l-5.249-9.091-5.249-9.092h20.996l-5.249 9.091z" transform="scale(-.527 -.56336) rotate(-59.951 -3337.82 1188.03)" fill="#a0892c" stroke-width="5.506"/></g><g><path d="M327.721 510.004v58.96c-19.7 37.133-19.7 154.857 0 191.991v58.96" style="marker:none" color="#000" fill="none" stroke-width="2.068" stroke-linecap="round" stroke-linejoin="round" overflow="visible" transform="matrix(.93547 0 0 1 604.033 -292.912)"/><path d="M-707.107 1620.068l-5.249-9.091-5.249-9.092h20.996l-5.249 9.091z" transform="matrix(-.2639 .48764 -.45617 -.2821 1457.502 1043.192)" fill="#a0892c" stroke-width="5.506"/><path transform="scale(-.527 -.56336) rotate(-59.951 -3373.256 1249.47)" d="M-707.107 1620.068l-5.249-9.091-5.249-9.092h20.996l-5.249 9.091z" fill="#a0892c" stroke-width="5.506"/></g><g><path style="marker:none" d="M327.721 510.004v64.718c-29.55 47.834-29.55 132.64 0 180.516v70.676" color="#000" fill="none" stroke-width="2.068" stroke-linecap="round" stroke-linejoin="round" overflow="visible" transform="matrix(.93547 0 0 1 640.4 -292.912)"/><path transform="scale(-.527 -.56336) rotate(-59.951 -3022.58 1531.453)" d="M-707.107 1620.068l-5.249-9.091-5.249-9.092h20.996l-5.249 9.091z" fill="#a0892c" stroke-width="5.506"/><path d="M-707.107 1620.068l-5.249-9.091-5.249-9.092h20.996l-5.249 9.091z" transform="scale(-.527 -.56336) rotate(-59.951 -3407.76 1309.292)" fill="#a0892c" stroke-width="5.506"/></g><g><path d="M327.721 510.004v75.071c-29.548 47.48-29.548 112.288 0 159.987v74.852" style="marker:none" color="#000" fill="none" stroke-width="2.068" stroke-linecap="round" stroke-linejoin="round" overflow="visible" transform="matrix(.93547 0 0 1 677.258 -292.912)"/><path d="M-707.107 1620.068l-5.249-9.091-5.249-9.092h20.996l-5.249 9.091z" transform="scale(-.527 -.56336) rotate(-59.951 -3057.55 1592.084)" fill="#a0892c" stroke-width="5.506"/><path transform="scale(-.527 -.56336) rotate(-59.951 -3442.73 1369.922)" d="M-707.107 1620.068l-5.249-9.091-5.249-9.092h20.996l-5.249 9.091z" fill="#a0892c" stroke-width="5.506"/></g><g><path style="marker:none" d="M327.721 510.004v309.91" color="#000" fill="none" stroke-width="2.068" stroke-linecap="round" stroke-linejoin="round" overflow="visible" transform="matrix(.93547 0 0 1 714.117 -292.912)"/><path transform="matrix(-.2639 .48764 -.45617 -.2821 1567.586 1043.192)" d="M-707.107 1620.068l-5.249-9.091-5.249-9.092h20.996l-5.249 9.091z" fill="#a0892c" stroke-width="5.506"/><path d="M-707.107 1620.068l-5.249-9.091-5.249-9.092h20.996l-5.249 9.091z" transform="scale(-.527 -.56336) rotate(-59.951 -3477.7 1430.553)" fill="#a0892c" stroke-width="5.506"/></g></g></svg>