<svg xmlns:ns0="http://www.iki.fi/pav/software/textext/" xmlns="http://www.w3.org/2000/svg" xmlns:xlink="http://www.w3.org/1999/xlink" width="744.094" height="1052.362"><title>Elektrischer Dipol</title><defs><marker orient="auto" id="b" overflow="visible"><path d="M8.719 4.034L-2.207.016 8.719-4.002c-1.746 2.372-1.736 5.618 0 8.036z" transform="scale(.6)" fill-rule="evenodd" stroke-width=".625" stroke-linejoin="round"/></marker><marker orient="auto" id="a" overflow="visible"><path d="M8.719 4.034L-2.207.016 8.719-4.002c-1.746 2.372-1.736 5.618 0 8.036z" transform="scale(-.6)" fill-rule="evenodd" stroke-width=".625" stroke-linejoin="round"/></marker></defs><path style="marker:none" color="#000" fill="#fff" stroke="#fff" stroke-width="2" stroke-linecap="round" stroke-linejoin="round" overflow="visible" d="M81.458 431.771h581.178V620.59H81.458z"/><g stroke="maroon"><path style="marker:none" d="M310.108 514.165c0 12.9-10.457 23.356-23.356 23.356-12.899 0-23.356-10.457-23.356-23.356 0-12.9 10.457-23.356 23.356-23.356 12.9 0 23.356 10.457 23.356 23.356z" color="#000" fill="none" stroke-width="1.9999091300000003" stroke-linecap="round" stroke-linejoin="round" overflow="visible"/><text y="711.074" x="-191.494" style="line-height:125%" transform="matrix(-1.0001 0 0 .9999 111.21 -184.888)" font-size="38.121" font-weight="400" letter-spacing="0" word-spacing="0" fill="maroon" font-family="Sans"><tspan y="711.074" x="-191.494">+</tspan></text></g><path d="M435.95 514.165H310.108" style="marker:none" color="#000" fill="#f0f" stroke="#f0f" stroke-width="2" stroke-linecap="round" stroke-linejoin="round" marker-end="url(#a)" overflow="visible"/><g stroke="navy"><path style="marker:none" d="M482.662 514.165c0 12.9-10.456 23.356-23.356 23.356-12.899 0-23.356-10.457-23.356-23.356 0-12.9 10.457-23.356 23.356-23.356 12.9 0 23.356 10.457 23.356 23.356z" color="#000" fill="none" stroke-width="1.9999091300000003" stroke-linecap="round" stroke-linejoin="round" overflow="visible"/><text transform="matrix(-1.0001 0 0 .9999 111.21 -184.888)" style="line-height:125%" x="-361.815" y="720.2" font-size="76.233" font-weight="400" letter-spacing="0" word-spacing="0" fill="navy" stroke-width=".707" font-family="Sans"><tspan x="-361.815" y="720.2">-</tspan></text></g><path style="marker:none" d="M286.752 557.265h172.554" color="#000" fill="#f0f" stroke="green" stroke-width="2" stroke-linecap="round" stroke-linejoin="round" marker-start="url(#b)" marker-end="url(#a)" overflow="visible"/><g transform="matrix(3 0 0 3 -305.843 186.825)" ns0:text="$\\vec{l}$" ns0:preamble="/home/waldgeist/data/sphinx/inkscape-preamble.tex" fill="green"><defs><symbol overflow="visible" id="c"><path d="M5.36-5.938c-.141.141-.47.422-.47.594 0 .094.094.203.188.203s.14-.078.203-.14c.11-.14.344-.422.782-.64.062-.048.171-.095.171-.204 0-.11-.078-.156-.14-.203a1.034 1.034 0 0 1-.407-.563c-.03-.093-.062-.234-.203-.234-.14 0-.203.14-.203.219 0 .047.078.36.235.578h-3.36c-.156 0-.344 0-.344.203 0 .188.188.188.344.188zm0 0"/></symbol><symbol overflow="visible" id="d"><path d="M2.578-6.813s0-.109-.14-.109c-.22 0-.954.078-1.22.11-.077 0-.187.015-.187.203 0 .109.11.109.25.109.485 0 .5.094.5.172l-.031.203L.484-1.141a.973.973 0 0 0-.046.329.89.89 0 0 0 .906.921c.328 0 .578-.203.75-.562.172-.375.297-.953.297-.969 0-.11-.094-.11-.125-.11-.094 0-.11.048-.125.188-.172.64-.36 1.235-.766 1.235-.297 0-.297-.313-.297-.454 0-.25.016-.296.063-.484zm0 0"/></symbol></defs><use height="1052.362" width="744.094" xlink:href="#c" x="222.59" y="132.136"/><use height="1052.362" width="744.094" xlink:href="#d" x="223.432" y="134.765"/></g><g transform="matrix(3 0 0 3 -305.881 96.939)" ns0:preamble="/home/waldgeist/data/sphinx/inkscape-preamble.tex" ns0:text="$\\vec{p}$" fill="#f0f"><defs><symbol id="e" overflow="visible"><path d="M5.36-5.938c-.141.141-.47.422-.47.594 0 .094.094.203.188.203s.14-.078.203-.14c.11-.14.344-.422.782-.64.062-.048.171-.095.171-.204 0-.11-.078-.156-.14-.203a1.034 1.034 0 0 1-.407-.563c-.03-.093-.062-.234-.203-.234-.14 0-.203.14-.203.219 0 .047.078.36.235.578h-3.36c-.156 0-.344 0-.344.203 0 .188.188.188.344.188zm0 0"/></symbol><symbol id="f" overflow="visible"><path d="M.453 1.219c-.078.343-.11.406-.547.406-.11 0-.218 0-.218.188 0 .078.046.125.124.125.266 0 .563-.032.829-.032.343 0 .671.032 1 .032.046 0 .171 0 .171-.204 0-.109-.093-.109-.234-.109-.5 0-.5-.063-.5-.156 0-.125.422-1.75.484-2 .125.297.407.64.922.64 1.157 0 2.407-1.453 2.407-2.921 0-.938-.579-1.594-1.329-1.594-.5 0-.984.36-1.312.75-.094-.547-.531-.75-.89-.75-.47 0-.657.39-.735.562-.188.344-.313.938-.313.969 0 .11.094.11.11.11.11 0 .11-.016.172-.235.172-.703.375-1.188.734-1.188.172 0 .313.079.313.454 0 .234-.032.343-.079.515zm1.75-4.328c.063-.266.344-.547.516-.704.36-.296.64-.374.812-.374.39 0 .64.343.64.937 0 .594-.327 1.734-.515 2.11-.344.702-.812 1.03-1.187 1.03-.656 0-.781-.828-.781-.89 0-.016 0-.031.03-.156zm0 0"/></symbol></defs><use y="134.765" x="223.512" xlink:href="#e" width="744.094" height="1052.362"/><use y="134.765" x="223.432" xlink:href="#f" width="744.094" height="1052.362"/></g><g ns0:text="$+Q$" ns0:preamble="/home/waldgeist/data/sphinx/inkscape-preamble.tex" transform="matrix(3 0 0 3 -411.551 78.087)" fill="maroon"><defs><symbol overflow="visible" id="g"><path d="M4.078-2.297H6.86c.141 0 .329 0 .329-.203 0-.188-.188-.188-.329-.188H4.08v-2.796c0-.141 0-.329-.204-.329-.203 0-.203.188-.203.329v2.796H.89c-.141 0-.329 0-.329.188 0 .203.188.203.329.203h2.78V.5c0 .14 0 .328.204.328.203 0 .203-.187.203-.328zm0 0"/></symbol><symbol overflow="visible" id="h"><path d="M4.36-.063c1.546-.578 3.015-2.359 3.015-4.28 0-1.61-1.063-2.688-2.547-2.688-2.14 0-4.344 2.265-4.344 4.593C.484-.78 1.61.22 3.047.22c.25 0 .578-.047.969-.157-.032.625-.032.641-.032.782 0 .312 0 1.094.829 1.094C5.984 1.938 6.468.109 6.468 0c0-.063-.063-.094-.11-.094-.078 0-.093.047-.125.11C6 .719 5.422.969 5.078.969c-.469 0-.61-.266-.719-1.031zM2.483-.14C1.704-.453 1.36-1.219 1.36-2.125c0-.688.266-2.11 1.016-3.172.734-1.016 1.672-1.484 2.406-1.484.985 0 1.719.781 1.719 2.11 0 1-.516 3.343-2.188 4.265-.046-.344-.14-1.063-.875-1.063-.53 0-1.015.485-1.015 1.016 0 .187.062.297.062.312zm.61.11c-.14 0-.453 0-.453-.422 0-.406.375-.797.796-.797.422 0 .61.234.61.844 0 .14-.016.156-.11.203-.265.11-.562.172-.843.172zm0 0"/></symbol></defs><use height="1052.362" width="744.094" xlink:href="#g" x="223.432" y="134.765"/><use height="1052.362" width="744.094" xlink:href="#h" x="231.181" y="134.765"/></g><g transform="matrix(3 0 0 3 -238.787 77.713)" ns0:preamble="/home/waldgeist/data/sphinx/inkscape-preamble.tex" ns0:text="$-Q$" fill="navy"><defs><symbol id="i" overflow="visible"><path d="M6.563-2.297c.171 0 .359 0 .359-.203 0-.188-.188-.188-.36-.188h-5.39c-.172 0-.344 0-.344.188 0 .203.172.203.344.203zm0 0"/></symbol><symbol id="j" overflow="visible"><path d="M4.36-.063c1.546-.578 3.015-2.359 3.015-4.28 0-1.61-1.063-2.688-2.547-2.688-2.14 0-4.344 2.265-4.344 4.593C.484-.78 1.61.22 3.047.22c.25 0 .578-.047.969-.157-.032.625-.032.641-.032.782 0 .312 0 1.094.829 1.094C5.984 1.938 6.468.109 6.468 0c0-.063-.063-.094-.11-.094-.078 0-.093.047-.125.11C6 .719 5.422.969 5.078.969c-.469 0-.61-.266-.719-1.031zM2.483-.14C1.704-.453 1.36-1.219 1.36-2.125c0-.688.266-2.11 1.016-3.172.734-1.016 1.672-1.484 2.406-1.484.985 0 1.719.781 1.719 2.11 0 1-.516 3.343-2.188 4.265-.046-.344-.14-1.063-.875-1.063-.53 0-1.015.485-1.015 1.016 0 .187.062.297.062.312zm.61.11c-.14 0-.453 0-.453-.422 0-.406.375-.797.796-.797.422 0 .61.234.61.844 0 .14-.016.156-.11.203-.265.11-.562.172-.843.172zm0 0"/></symbol></defs><use y="134.765" x="223.432" xlink:href="#i" width="744.094" height="1052.362"/><use y="134.765" x="231.181" xlink:href="#j" width="744.094" height="1052.362"/></g></svg>