<?xml version="1.0" encoding="UTF-8" standalone="no"?>
<!-- Created with Inkscape (http://www.inkscape.org/) -->

<svg
   xmlns:ns0="http://www.iki.fi/pav/software/textext/"
   xmlns:dc="http://purl.org/dc/elements/1.1/"
   xmlns:cc="http://creativecommons.org/ns#"
   xmlns:rdf="http://www.w3.org/1999/02/22-rdf-syntax-ns#"
   xmlns:svg="http://www.w3.org/2000/svg"
   xmlns="http://www.w3.org/2000/svg"
   xmlns:xlink="http://www.w3.org/1999/xlink"
   xmlns:sodipodi="http://sodipodi.sourceforge.net/DTD/sodipodi-0.dtd"
   xmlns:inkscape="http://www.inkscape.org/namespaces/inkscape"
   width="744.09448"
   height="1052.3622"
   id="svg2"
   version="1.1"
   inkscape:version="0.48.4 r9939"
   sodipodi:docname="elektrischer-dipol.svg">
  <sodipodi:namedview
     id="base"
     pagecolor="#ffffff"
     bordercolor="#666666"
     borderopacity="1.0"
     inkscape:pageopacity="0.0"
     inkscape:pageshadow="2"
     inkscape:zoom="0.94547911"
     inkscape:cx="527.50745"
     inkscape:cy="602.8136"
     inkscape:document-units="px"
     inkscape:current-layer="layer1"
     showgrid="false"
     inkscape:window-width="1600"
     inkscape:window-height="1150"
     inkscape:window-x="0"
     inkscape:window-y="0"
     inkscape:window-maximized="1"
     inkscape:object-paths="true"
     inkscape:object-nodes="true"
     inkscape:snap-smooth-nodes="true"
     inkscape:snap-midpoints="true"
     inkscape:snap-page="true"
     inkscape:snap-object-midpoints="true"
     showguides="true"
     inkscape:guide-bbox="true"
     inkscape:snap-global="true">
    <sodipodi:guide
       orientation="0,1"
       position="-65.813614,-1579.5267"
       id="guide6001" />
    <sodipodi:guide
       orientation="1,0"
       position="458.42709,526.1811"
       id="guide6029" />
    <sodipodi:guide
       orientation="1,0"
       position="285.87284,526.1811"
       id="guide7403" />
  </sodipodi:namedview>
  <title
     id="title7401">Elektrischer Dipol</title>
  <defs
     id="defs4">
    <marker
       inkscape:stockid="Arrow2Mstart"
       orient="auto"
       refY="0.0"
       refX="0.0"
       id="Arrow2Mstart"
       style="overflow:visible">
      <path
         id="path5525"
         style="fill-rule:evenodd;stroke-width:0.62500000;stroke-linejoin:round"
         d="M 8.7185878,4.0337352 L -2.2072895,0.016013256 L 8.7185884,-4.0017078 C 6.9730900,-1.6296469 6.9831476,1.6157441 8.7185878,4.0337352 z "
         transform="scale(0.6) translate(0,0)" />
    </marker>
    <marker
       inkscape:stockid="Arrow2Mend"
       orient="auto"
       refY="0"
       refX="0"
       id="Arrow2Mend"
       style="overflow:visible">
      <path
         id="path5528"
         style="fill-rule:evenodd;stroke-width:0.625;stroke-linejoin:round"
         d="M 8.7185878,4.0337352 -2.2072895,0.01601326 8.7185884,-4.0017078 c -1.7454984,2.3720609 -1.7354408,5.6174519 -6e-7,8.035443 z"
         transform="scale(-0.6,-0.6)"
         inkscape:connector-curvature="0" />
    </marker>
    <inkscape:path-effect
       effect="spiro"
       id="path-effect5488"
       is_visible="true" />
    <inkscape:path-effect
       is_visible="true"
       id="path-effect4901-4"
       effect="spiro" />
    <marker
       style="overflow:visible"
       id="Arrow1Send-5"
       refX="0"
       refY="0"
       orient="auto"
       inkscape:stockid="Arrow1Send">
      <path
         transform="matrix(-0.2,0,0,-0.2,-1.2,0)"
         style="fill-rule:evenodd;stroke:#000000;stroke-width:1pt;marker-start:none"
         d="M 0,0 5,-5 -12.5,0 5,5 0,0 z"
         id="path3912-5"
         inkscape:connector-curvature="0" />
    </marker>
    <inkscape:path-effect
       is_visible="true"
       id="path-effect4901-6"
       effect="spiro" />
    <marker
       style="overflow:visible"
       id="Arrow1Send-2"
       refX="0"
       refY="0"
       orient="auto"
       inkscape:stockid="Arrow1Send">
      <path
         inkscape:connector-curvature="0"
         transform="matrix(-0.2,0,0,-0.2,-1.2,0)"
         style="fill-rule:evenodd;stroke:#000000;stroke-width:1pt;marker-start:none"
         d="M 0,0 5,-5 -12.5,0 5,5 0,0 z"
         id="path3912-0" />
    </marker>
    <inkscape:path-effect
       is_visible="true"
       id="path-effect3041"
       effect="spiro" />
    <inkscape:path-effect
       is_visible="true"
       id="path-effect3047"
       effect="spiro" />
    <inkscape:path-effect
       is_visible="true"
       id="path-effect3057"
       effect="spiro" />
    <inkscape:path-effect
       is_visible="true"
       id="path-effect3061"
       effect="spiro" />
    <inkscape:path-effect
       is_visible="true"
       id="path-effect3892"
       effect="spiro" />
    <marker
       style="overflow:visible"
       id="Arrow1Send"
       refX="0"
       refY="0"
       orient="auto"
       inkscape:stockid="Arrow1Send">
      <path
         inkscape:connector-curvature="0"
         transform="matrix(-0.2,0,0,-0.2,-1.2,0)"
         style="fill-rule:evenodd;stroke:#000000;stroke-width:1pt;marker-start:none"
         d="M 0,0 5,-5 -12.5,0 5,5 0,0 z"
         id="path3912" />
    </marker>
    <inkscape:path-effect
       is_visible="true"
       id="path-effect4901"
       effect="spiro" />
    <inkscape:path-effect
       effect="spiro"
       id="path-effect5171"
       is_visible="true" />
    <inkscape:path-effect
       effect="spiro"
       id="path-effect6420"
       is_visible="true" />
    <inkscape:path-effect
       effect="spiro"
       id="path-effect6422"
       is_visible="true" />
    <inkscape:path-effect
       effect="spiro"
       id="path-effect6424"
       is_visible="true" />
    <inkscape:path-effect
       effect="spiro"
       id="path-effect6426"
       is_visible="true" />
    <inkscape:path-effect
       effect="spiro"
       id="path-effect6428"
       is_visible="true" />
    <inkscape:path-effect
       effect="spiro"
       id="path-effect6430"
       is_visible="true" />
    <inkscape:path-effect
       effect="spiro"
       id="path-effect6432"
       is_visible="true" />
    <inkscape:path-effect
       effect="spiro"
       id="path-effect6434"
       is_visible="true" />
    <inkscape:path-effect
       effect="spiro"
       id="path-effect6436"
       is_visible="true" />
    <inkscape:path-effect
       effect="spiro"
       id="path-effect6438"
       is_visible="true" />
    <inkscape:path-effect
       effect="spiro"
       id="path-effect6440"
       is_visible="true" />
    <inkscape:path-effect
       effect="spiro"
       id="path-effect6442"
       is_visible="true" />
    <inkscape:path-effect
       effect="spiro"
       id="path-effect6444"
       is_visible="true" />
    <inkscape:path-effect
       effect="spiro"
       id="path-effect6446"
       is_visible="true" />
    <inkscape:path-effect
       effect="spiro"
       id="path-effect6448"
       is_visible="true" />
    <inkscape:path-effect
       effect="spiro"
       id="path-effect6450"
       is_visible="true" />
    <inkscape:path-effect
       effect="spiro"
       id="path-effect6452"
       is_visible="true" />
    <inkscape:path-effect
       effect="spiro"
       id="path-effect6454"
       is_visible="true" />
    <inkscape:path-effect
       effect="spiro"
       id="path-effect6456"
       is_visible="true" />
    <marker
       style="overflow:visible"
       id="Arrow2Mend-6"
       refX="0"
       refY="0"
       orient="auto"
       inkscape:stockid="Arrow2Mend">
      <path
         transform="scale(-0.6,-0.6)"
         d="M 8.7185878,4.0337352 -2.2072895,0.01601326 8.7185884,-4.0017078 c -1.7454984,2.3720609 -1.7354408,5.6174519 -6e-7,8.035443 z"
         style="font-size:12px;fill-rule:evenodd;stroke-width:0.625;stroke-linejoin:round"
         id="path3962-1"
         inkscape:connector-curvature="0" />
    </marker>
    <marker
       style="overflow:visible"
       id="Arrow2Mend-60"
       refX="0"
       refY="0"
       orient="auto"
       inkscape:stockid="Arrow2Mend">
      <path
         transform="scale(-0.6,-0.6)"
         d="M 8.7185878,4.0337352 -2.2072895,0.01601326 8.7185884,-4.0017078 c -1.7454984,2.3720609 -1.7354408,5.6174519 -6e-7,8.035443 z"
         style="font-size:12px;fill-rule:evenodd;stroke-width:0.625;stroke-linejoin:round"
         id="path3962"
         inkscape:connector-curvature="0" />
    </marker>
  </defs>
  <metadata
     id="metadata7">
    <rdf:RDF>
      <cc:Work
         rdf:about="">
        <dc:format>image/svg+xml</dc:format>
        <dc:type
           rdf:resource="http://purl.org/dc/dcmitype/StillImage" />
        <dc:title>Elektrischer Dipol</dc:title>
        <dc:date>2015-02-07</dc:date>
        <dc:creator>
          <cc:Agent>
            <dc:title>Berhnard Grotz</dc:title>
          </cc:Agent>
        </dc:creator>
        <dc:rights>
          <cc:Agent>
            <dc:title>Berhnard Grotz</dc:title>
          </cc:Agent>
        </dc:rights>
        <dc:publisher>
          <cc:Agent>
            <dc:title>Berhnard Grotz</dc:title>
          </cc:Agent>
        </dc:publisher>
        <dc:language>de-DE</dc:language>
        <dc:subject>
          <rdf:Bag>
            <rdf:li>Physik</rdf:li>
            <rdf:li>Elektrizität</rdf:li>
            <rdf:li>Elektrischer Dipol</rdf:li>
          </rdf:Bag>
        </dc:subject>
        <cc:license
           rdf:resource="http://creativecommons.org/licenses/by-nc-sa/3.0/" />
      </cc:Work>
      <cc:License
         rdf:about="http://creativecommons.org/licenses/by-nc-sa/3.0/">
        <cc:permits
           rdf:resource="http://creativecommons.org/ns#Reproduction" />
        <cc:permits
           rdf:resource="http://creativecommons.org/ns#Distribution" />
        <cc:requires
           rdf:resource="http://creativecommons.org/ns#Notice" />
        <cc:requires
           rdf:resource="http://creativecommons.org/ns#Attribution" />
        <cc:prohibits
           rdf:resource="http://creativecommons.org/ns#CommercialUse" />
        <cc:permits
           rdf:resource="http://creativecommons.org/ns#DerivativeWorks" />
        <cc:requires
           rdf:resource="http://creativecommons.org/ns#ShareAlike" />
      </cc:License>
    </rdf:RDF>
  </metadata>
  <g
     inkscape:label="Ebene 1"
     inkscape:groupmode="layer"
     id="layer1">
    <rect
       style="color:#000000;fill:#ffffff;stroke:#ffffff;stroke-width:1.99999988;stroke-linecap:round;stroke-linejoin:round;stroke-miterlimit:4;stroke-opacity:1;stroke-dasharray:none;stroke-dashoffset:0;marker:none;visibility:visible;display:inline;overflow:visible;enable-background:accumulate"
       id="rect6377"
       width="581.17792"
       height="188.81929"
       x="81.458282"
       y="431.77145"
       inkscape:export-filename="/home/waldgeist/data/homepage/pics/physik/elektrizitaet-magnetismus/elektrischer-dipol.png"
       inkscape:export-xdpi="150"
       inkscape:export-ydpi="150" />
    <g
       id="g6053"
       transform="translate(111.21019,-184.88809)"
       inkscape:export-filename="/home/waldgeist/data/homepage/pics/physik/elektrizitaet-magnetismus/elektrischer-dipol.png"
       inkscape:export-xdpi="150"
       inkscape:export-ydpi="150">
      <path
         sodipodi:type="arc"
         style="color:#000000;fill:none;stroke:#800000;stroke-width:2.08308959;stroke-linecap:round;stroke-linejoin:round;stroke-miterlimit:4;stroke-opacity:1;stroke-dasharray:none;stroke-dashoffset:0;marker:none;visibility:visible;display:inline;overflow:visible;enable-background:accumulate"
         id="path6055"
         sodipodi:cx="253.83955"
         sodipodi:cy="780.80676"
         sodipodi:rx="24.326292"
         sodipodi:ry="24.326292"
         d="m 278.16585,780.80676 c 0,13.43504 -10.89126,24.32629 -24.3263,24.32629 -13.43504,0 -24.32629,-10.89125 -24.32629,-24.32629 0,-13.43504 10.89125,-24.32629 24.32629,-24.32629 13.43504,0 24.3263,10.89125 24.3263,24.32629 z"
         transform="matrix(0.96011234,0,0,0.96011234,-68.172485,-50.609202)" />
      <text
         sodipodi:linespacing="125%"
         id="text6057"
         y="711.0744"
         x="-191.49446"
         style="font-size:38.12050247px;font-style:normal;font-weight:normal;line-height:125%;letter-spacing:0px;word-spacing:0px;fill:#800000;fill-opacity:1;stroke:#800000;stroke-width:1;stroke-opacity:1;font-family:Sans"
         xml:space="preserve"
         transform="scale(-1.0001023,0.99989772)"><tspan
           style="fill:#800000;fill-opacity:1;stroke:#800000;stroke-width:1;stroke-opacity:1"
           y="711.0744"
           x="-191.49446"
           id="tspan6059"
           sodipodi:role="line">+</tspan></text>
    </g>
    <path
       inkscape:transform-center-x="87.101475"
       inkscape:connector-curvature="0"
       id="path6303"
       d="m 435.95045,514.16492 -125.84229,10e-6"
       style="color:#000000;fill:#ff00ff;stroke:#ff00ff;stroke-width:1.99999988;stroke-linecap:round;stroke-linejoin:round;stroke-miterlimit:4;stroke-opacity:1;stroke-dasharray:none;stroke-dashoffset:0;marker:none;marker-end:url(#Arrow2Mend);visibility:visible;display:inline;overflow:visible;enable-background:accumulate"
       inkscape:export-filename="/home/waldgeist/data/homepage/pics/physik/elektrizitaet-magnetismus/elektrischer-dipol.png"
       inkscape:export-xdpi="150"
       inkscape:export-ydpi="150"
       inkscape:transform-center-y="0.038431999" />
    <g
       id="g6005"
       transform="translate(111.21018,-184.88809)"
       inkscape:export-filename="/home/waldgeist/data/homepage/pics/physik/elektrizitaet-magnetismus/elektrischer-dipol.png"
       inkscape:export-xdpi="150"
       inkscape:export-ydpi="150">
      <path
         sodipodi:type="arc"
         style="color:#000000;fill:none;stroke:#000080;stroke-width:2.08308959;stroke-linecap:round;stroke-linejoin:round;stroke-miterlimit:4;stroke-opacity:1;stroke-dasharray:none;stroke-dashoffset:0;marker:none;visibility:visible;display:inline;overflow:visible;enable-background:accumulate"
         id="path3173"
         sodipodi:cx="253.83955"
         sodipodi:cy="780.80676"
         sodipodi:rx="24.326292"
         sodipodi:ry="24.326292"
         d="m 278.16585,780.80676 c 0,13.43504 -10.89126,24.32629 -24.3263,24.32629 -13.43504,0 -24.32629,-10.89125 -24.32629,-24.32629 0,-13.43504 10.89125,-24.32629 24.32629,-24.32629 13.43504,0 24.3263,10.89125 24.3263,24.32629 z"
         transform="matrix(0.96011234,0,0,0.96011234,104.38177,-50.609202)" />
      <text
         transform="scale(-1.0001022,0.99989781)"
         xml:space="preserve"
         style="font-size:76.23279572px;font-style:normal;font-weight:normal;line-height:125%;letter-spacing:0px;word-spacing:0px;fill:#000080;fill-opacity:1;stroke:#000080;stroke-width:0.70745218;font-family:Sans"
         x="-361.81461"
         y="720.19989"
         id="text17774"
         sodipodi:linespacing="125%"><tspan
           style="stroke-width:0.70745218"
           sodipodi:role="line"
           id="tspan17776"
           x="-361.81461"
           y="720.19989">-</tspan></text>
    </g>
    <path
       inkscape:transform-center-y="0.038432225"
       inkscape:export-ydpi="150"
       inkscape:export-xdpi="150"
       inkscape:export-filename="/home/waldgeist/data/homepage/pics/physik/elektrizitaet-magnetismus/elektrischer-dipol.png"
       style="color:#000000;fill:#ff00ff;stroke:#008000;stroke-width:2;stroke-linecap:round;stroke-linejoin:round;stroke-miterlimit:4;stroke-opacity:1;stroke-dasharray:none;stroke-dashoffset:0;marker:none;marker-start:url(#Arrow2Mstart);marker-end:url(#Arrow2Mend);visibility:visible;display:inline;overflow:visible;enable-background:accumulate"
       d="m 286.75221,557.26476 172.55425,10e-6"
       id="path7399"
       inkscape:connector-curvature="0"
       inkscape:transform-center-x="-119.12704" />
    <g
       style="fill:#008000"
       transform="matrix(3,0,0,3,-305.84345,186.82482)"
       ns0:text="$\\vec{l}$"
       ns0:preamble="/home/waldgeist/data/sphinx/inkscape-preamble.tex"
       id="g7664"
       inkscape:export-filename="/home/waldgeist/data/homepage/pics/physik/elektrizitaet-magnetismus/elektrischer-dipol.png"
       inkscape:export-xdpi="150"
       inkscape:export-ydpi="150">
      <defs
         id="defs7666">
        <g
           id="g7668">
          <symbol
             style="overflow:visible"
             overflow="visible"
             id="textext-19711ac0-0">
            <path
               inkscape:connector-curvature="0"
               style="stroke:none"
               d=""
               id="path7671" />
          </symbol>
          <symbol
             style="overflow:visible"
             overflow="visible"
             id="textext-19711ac0-1">
            <path
               inkscape:connector-curvature="0"
               style="stroke:none"
               d="m 5.359375,-5.9375 c -0.140625,0.140625 -0.46875,0.421875 -0.46875,0.59375 0,0.09375 0.09375,0.203125 0.1875,0.203125 0.09375,0 0.140625,-0.078125 0.203125,-0.140625 C 5.390625,-5.421875 5.625,-5.703125 6.0625,-5.921875 6.125,-5.96875 6.234375,-6.015625 6.234375,-6.125 6.234375,-6.234375 6.15625,-6.28125 6.09375,-6.328125 5.875,-6.484375 5.765625,-6.65625 5.6875,-6.890625 5.65625,-6.984375 5.625,-7.125 5.484375,-7.125 c -0.140625,0 -0.203125,0.140625 -0.203125,0.21875 0,0.046875 0.078125,0.359375 0.234375,0.578125 l -3.359375,0 c -0.15625,0 -0.34375,0 -0.34375,0.203125 0,0.1875 0.1875,0.1875 0.34375,0.1875 z m 0,0"
               id="path7674" />
          </symbol>
          <symbol
             style="overflow:visible"
             overflow="visible"
             id="textext-19711ac0-2">
            <path
               inkscape:connector-curvature="0"
               style="stroke:none"
               d="m 2.578125,-6.8125 c 0,0 0,-0.109375 -0.140625,-0.109375 -0.21875,0 -0.953125,0.078125 -1.21875,0.109375 -0.078125,0 -0.1875,0.015625 -0.1875,0.203125 0,0.109375 0.109375,0.109375 0.25,0.109375 0.484375,0 0.5,0.09375 0.5,0.171875 L 1.75,-6.125 0.484375,-1.140625 C 0.453125,-1.03125 0.4375,-0.96875 0.4375,-0.8125 c 0,0.578125 0.4375,0.921875 0.90625,0.921875 0.328125,0 0.578125,-0.203125 0.75,-0.5625 0.171875,-0.375 0.296875,-0.953125 0.296875,-0.96875 0,-0.109375 -0.09375,-0.109375 -0.125,-0.109375 -0.09375,0 -0.109375,0.046875 -0.125,0.1875 C 1.96875,-0.703125 1.78125,-0.109375 1.375,-0.109375 c -0.296875,0 -0.296875,-0.3125 -0.296875,-0.453125 0,-0.25 0.015625,-0.296875 0.0625,-0.484375 z m 0,0"
               id="path7677" />
          </symbol>
        </g>
      </defs>
      <g
         style="fill:#008000"
         id="textext-19711ac0-3">
        <g
           style="fill:#008000;fill-opacity:1"
           id="g7680">
          <use
             style="fill:#008000"
             height="1052.3622"
             width="744.09448"
             xlink:href="#textext-19711ac0-1"
             x="222.59"
             y="132.136"
             id="use7682" />
        </g>
        <g
           style="fill:#008000;fill-opacity:1"
           id="g7684">
          <use
             style="fill:#008000"
             height="1052.3622"
             width="744.09448"
             xlink:href="#textext-19711ac0-2"
             x="223.43201"
             y="134.765"
             id="use7686" />
        </g>
      </g>
    </g>
    <g
       id="g7868"
       transform="matrix(3,0,0,3,-305.88103,96.938875)"
       ns0:preamble="/home/waldgeist/data/sphinx/inkscape-preamble.tex"
       ns0:text="$\\vec{p}$"
       style="fill:#ff00ff"
       inkscape:export-filename="/home/waldgeist/data/homepage/pics/physik/elektrizitaet-magnetismus/elektrischer-dipol.png"
       inkscape:export-xdpi="150"
       inkscape:export-ydpi="150">
      <defs
         id="defs7870">
        <g
           id="g7872">
          <symbol
             id="textext-23172cdb-0"
             overflow="visible"
             style="overflow:visible">
            <path
               id="path7875"
               d=""
               style="stroke:none"
               inkscape:connector-curvature="0" />
          </symbol>
          <symbol
             id="textext-23172cdb-1"
             overflow="visible"
             style="overflow:visible">
            <path
               id="path7878"
               d="m 5.359375,-5.9375 c -0.140625,0.140625 -0.46875,0.421875 -0.46875,0.59375 0,0.09375 0.09375,0.203125 0.1875,0.203125 0.09375,0 0.140625,-0.078125 0.203125,-0.140625 C 5.390625,-5.421875 5.625,-5.703125 6.0625,-5.921875 6.125,-5.96875 6.234375,-6.015625 6.234375,-6.125 6.234375,-6.234375 6.15625,-6.28125 6.09375,-6.328125 5.875,-6.484375 5.765625,-6.65625 5.6875,-6.890625 5.65625,-6.984375 5.625,-7.125 5.484375,-7.125 c -0.140625,0 -0.203125,0.140625 -0.203125,0.21875 0,0.046875 0.078125,0.359375 0.234375,0.578125 l -3.359375,0 c -0.15625,0 -0.34375,0 -0.34375,0.203125 0,0.1875 0.1875,0.1875 0.34375,0.1875 z m 0,0"
               style="stroke:none"
               inkscape:connector-curvature="0" />
          </symbol>
          <symbol
             id="textext-23172cdb-2"
             overflow="visible"
             style="overflow:visible">
            <path
               id="path7881"
               d="M 0.453125,1.21875 C 0.375,1.5625 0.34375,1.625 -0.09375,1.625 c -0.109375,0 -0.21875,0 -0.21875,0.1875 0,0.078125 0.046875,0.125 0.125,0.125 0.265625,0 0.5625,-0.03125 0.828125,-0.03125 0.34375,0 0.671875,0.03125 1,0.03125 0.046875,0 0.171875,0 0.171875,-0.203125 C 1.8125,1.625 1.71875,1.625 1.578125,1.625 c -0.5,0 -0.5,-0.0625 -0.5,-0.15625 0,-0.125 0.421875,-1.75 0.484375,-2 0.125,0.296875 0.40625,0.640625 0.921875,0.640625 1.15625,0 2.40625,-1.453125 2.40625,-2.921875 0,-0.9375 -0.578125,-1.59375 -1.328125,-1.59375 -0.5,0 -0.984375,0.359375 -1.3125,0.75 -0.09375,-0.546875 -0.53125,-0.75 -0.890625,-0.75 -0.46875,0 -0.65625,0.390625 -0.734375,0.5625 C 0.4375,-3.5 0.3125,-2.90625 0.3125,-2.875 c 0,0.109375 0.09375,0.109375 0.109375,0.109375 0.109375,0 0.109375,-0.015625 0.171875,-0.234375 0.171875,-0.703125 0.375,-1.1875 0.734375,-1.1875 0.171875,0 0.3125,0.078125 0.3125,0.453125 0,0.234375 -0.03125,0.34375 -0.078125,0.515625 z m 1.75,-4.328125 C 2.265625,-3.375 2.546875,-3.65625 2.71875,-3.8125 c 0.359375,-0.296875 0.640625,-0.375 0.8125,-0.375 0.390625,0 0.640625,0.34375 0.640625,0.9375 0,0.59375 -0.328125,1.734375 -0.515625,2.109375 -0.34375,0.703125 -0.8125,1.03125 -1.1875,1.03125 C 1.8125,-0.109375 1.6875,-0.9375 1.6875,-1 c 0,-0.015625 0,-0.03125 0.03125,-0.15625 z m 0,0"
               style="stroke:none"
               inkscape:connector-curvature="0" />
          </symbol>
        </g>
      </defs>
      <g
         id="textext-23172cdb-3"
         style="fill:#ff00ff">
        <g
           id="g7884"
           style="fill:#ff00ff;fill-opacity:1">
          <use
             id="use7886"
             y="134.765"
             x="223.51199"
             xlink:href="#textext-23172cdb-1"
             width="744.09448"
             height="1052.3622"
             style="fill:#ff00ff" />
        </g>
        <g
           id="g7888"
           style="fill:#ff00ff;fill-opacity:1">
          <use
             id="use7890"
             y="134.765"
             x="223.4323"
             xlink:href="#textext-23172cdb-2"
             width="744.09448"
             height="1052.3622"
             style="fill:#ff00ff" />
        </g>
      </g>
    </g>
    <g
       ns0:text="$+Q$"
       ns0:preamble="/home/waldgeist/data/sphinx/inkscape-preamble.tex"
       transform="matrix(3,0,0,3,-411.55144,78.086937)"
       id="g8100"
       style="fill:#800000;fill-opacity:1"
       inkscape:export-filename="/home/waldgeist/data/homepage/pics/physik/elektrizitaet-magnetismus/elektrischer-dipol.png"
       inkscape:export-xdpi="150"
       inkscape:export-ydpi="150">
      <defs
         id="defs8102">
        <g
           id="g8104">
          <symbol
             style="overflow:visible"
             overflow="visible"
             id="textext-bed89ffc-0">
            <path
               inkscape:connector-curvature="0"
               style="stroke:none"
               d=""
               id="path8107" />
          </symbol>
          <symbol
             style="overflow:visible"
             overflow="visible"
             id="textext-bed89ffc-1">
            <path
               inkscape:connector-curvature="0"
               style="stroke:none"
               d="m 4.078125,-2.296875 2.78125,0 C 7,-2.296875 7.1875,-2.296875 7.1875,-2.5 7.1875,-2.6875 7,-2.6875 6.859375,-2.6875 l -2.78125,0 0,-2.796875 c 0,-0.140625 0,-0.328125 -0.203125,-0.328125 -0.203125,0 -0.203125,0.1875 -0.203125,0.328125 l 0,2.796875 -2.78125,0 c -0.140625,0 -0.328125,0 -0.328125,0.1875 0,0.203125 0.1875,0.203125 0.328125,0.203125 l 2.78125,0 0,2.796875 c 0,0.140625 0,0.328125 0.203125,0.328125 0.203125,0 0.203125,-0.1875 0.203125,-0.328125 z m 0,0"
               id="path8110" />
          </symbol>
          <symbol
             style="overflow:visible"
             overflow="visible"
             id="textext-bed89ffc-2">
            <path
               inkscape:connector-curvature="0"
               style="stroke:none"
               d=""
               id="path8113" />
          </symbol>
          <symbol
             style="overflow:visible"
             overflow="visible"
             id="textext-bed89ffc-3">
            <path
               inkscape:connector-curvature="0"
               style="stroke:none"
               d="M 4.359375,-0.0625 C 5.90625,-0.640625 7.375,-2.421875 7.375,-4.34375 c 0,-1.609375 -1.0625,-2.6875 -2.546875,-2.6875 -2.140625,0 -4.34375,2.265625 -4.34375,4.59375 0,1.65625 1.125,2.65625 2.5625,2.65625 0.25,0 0.578125,-0.046875 0.96875,-0.15625 -0.03125,0.625 -0.03125,0.640625 -0.03125,0.78125 0,0.3125 0,1.09375 0.828125,1.09375 1.171875,0 1.65625,-1.828125 1.65625,-1.9375 0,-0.0625 -0.0625,-0.09375 -0.109375,-0.09375 -0.078125,0 -0.09375,0.046875 -0.125,0.109375 C 6,0.71875 5.421875,0.96875 5.078125,0.96875 c -0.46875,0 -0.609375,-0.265625 -0.71875,-1.03125 z m -1.875,-0.078125 c -0.78125,-0.3125 -1.125,-1.078125 -1.125,-1.984375 0,-0.6875 0.265625,-2.109375 1.015625,-3.171875 C 3.109375,-6.3125 4.046875,-6.78125 4.78125,-6.78125 5.765625,-6.78125 6.5,-6 6.5,-4.671875 c 0,1 -0.515625,3.34375 -2.1875,4.265625 -0.046875,-0.34375 -0.140625,-1.0625 -0.875,-1.0625 -0.53125,0 -1.015625,0.484375 -1.015625,1.015625 0,0.1875 0.0625,0.296875 0.0625,0.3125 z M 3.09375,-0.03125 c -0.140625,0 -0.453125,0 -0.453125,-0.421875 0,-0.40625 0.375,-0.796875 0.796875,-0.796875 0.421875,0 0.609375,0.234375 0.609375,0.84375 0,0.140625 -0.015625,0.15625 -0.109375,0.203125 C 3.671875,-0.09375 3.375,-0.03125 3.09375,-0.03125 z m 0,0"
               id="path8116" />
          </symbol>
        </g>
      </defs>
      <g
         id="textext-bed89ffc-4"
         style="fill:#800000;fill-opacity:1">
        <g
           style="fill:#800000;fill-opacity:1"
           id="g8119">
          <use
             height="1052.3622"
             width="744.09448"
             xlink:href="#textext-bed89ffc-1"
             x="223.43201"
             y="134.765"
             id="use8121"
             style="fill:#800000;fill-opacity:1" />
        </g>
        <g
           style="fill:#800000;fill-opacity:1"
           id="g8123">
          <use
             height="1052.3622"
             width="744.09448"
             xlink:href="#textext-bed89ffc-3"
             x="231.181"
             y="134.765"
             id="use8125"
             style="fill:#800000;fill-opacity:1" />
        </g>
      </g>
    </g>
    <g
       id="g8371"
       transform="matrix(3,0,0,3,-238.78746,77.712996)"
       ns0:preamble="/home/waldgeist/data/sphinx/inkscape-preamble.tex"
       ns0:text="$-Q$"
       style="fill:#000080;fill-opacity:1"
       inkscape:export-filename="/home/waldgeist/data/homepage/pics/physik/elektrizitaet-magnetismus/elektrischer-dipol.png"
       inkscape:export-xdpi="150"
       inkscape:export-ydpi="150">
      <defs
         id="defs8373">
        <g
           id="g8375">
          <symbol
             id="textext-3803c4d4-0"
             overflow="visible"
             style="overflow:visible">
            <path
               id="path8378"
               d=""
               style="stroke:none"
               inkscape:connector-curvature="0" />
          </symbol>
          <symbol
             id="textext-3803c4d4-1"
             overflow="visible"
             style="overflow:visible">
            <path
               id="path8381"
               d="m 6.5625,-2.296875 c 0.171875,0 0.359375,0 0.359375,-0.203125 0,-0.1875 -0.1875,-0.1875 -0.359375,-0.1875 l -5.390625,0 c -0.171875,0 -0.34375,0 -0.34375,0.1875 0,0.203125 0.171875,0.203125 0.34375,0.203125 z m 0,0"
               style="stroke:none"
               inkscape:connector-curvature="0" />
          </symbol>
          <symbol
             id="textext-3803c4d4-2"
             overflow="visible"
             style="overflow:visible">
            <path
               id="path8384"
               d=""
               style="stroke:none"
               inkscape:connector-curvature="0" />
          </symbol>
          <symbol
             id="textext-3803c4d4-3"
             overflow="visible"
             style="overflow:visible">
            <path
               id="path8387"
               d="M 4.359375,-0.0625 C 5.90625,-0.640625 7.375,-2.421875 7.375,-4.34375 c 0,-1.609375 -1.0625,-2.6875 -2.546875,-2.6875 -2.140625,0 -4.34375,2.265625 -4.34375,4.59375 0,1.65625 1.125,2.65625 2.5625,2.65625 0.25,0 0.578125,-0.046875 0.96875,-0.15625 -0.03125,0.625 -0.03125,0.640625 -0.03125,0.78125 0,0.3125 0,1.09375 0.828125,1.09375 1.171875,0 1.65625,-1.828125 1.65625,-1.9375 0,-0.0625 -0.0625,-0.09375 -0.109375,-0.09375 -0.078125,0 -0.09375,0.046875 -0.125,0.109375 C 6,0.71875 5.421875,0.96875 5.078125,0.96875 c -0.46875,0 -0.609375,-0.265625 -0.71875,-1.03125 z m -1.875,-0.078125 c -0.78125,-0.3125 -1.125,-1.078125 -1.125,-1.984375 0,-0.6875 0.265625,-2.109375 1.015625,-3.171875 C 3.109375,-6.3125 4.046875,-6.78125 4.78125,-6.78125 5.765625,-6.78125 6.5,-6 6.5,-4.671875 c 0,1 -0.515625,3.34375 -2.1875,4.265625 -0.046875,-0.34375 -0.140625,-1.0625 -0.875,-1.0625 -0.53125,0 -1.015625,0.484375 -1.015625,1.015625 0,0.1875 0.0625,0.296875 0.0625,0.3125 z M 3.09375,-0.03125 c -0.140625,0 -0.453125,0 -0.453125,-0.421875 0,-0.40625 0.375,-0.796875 0.796875,-0.796875 0.421875,0 0.609375,0.234375 0.609375,0.84375 0,0.140625 -0.015625,0.15625 -0.109375,0.203125 C 3.671875,-0.09375 3.375,-0.03125 3.09375,-0.03125 z m 0,0"
               style="stroke:none"
               inkscape:connector-curvature="0" />
          </symbol>
        </g>
      </defs>
      <g
         id="textext-3803c4d4-4"
         style="fill:#000080;fill-opacity:1">
        <g
           id="g8390"
           style="fill:#000080;fill-opacity:1">
          <use
             id="use8392"
             y="134.765"
             x="223.43201"
             xlink:href="#textext-3803c4d4-1"
             width="744.09448"
             height="1052.3622"
             style="fill:#000080;fill-opacity:1" />
        </g>
        <g
           id="g8394"
           style="fill:#000080;fill-opacity:1">
          <use
             id="use8396"
             y="134.765"
             x="231.181"
             xlink:href="#textext-3803c4d4-3"
             width="744.09448"
             height="1052.3622"
             style="fill:#000080;fill-opacity:1" />
        </g>
      </g>
    </g>
  </g>
</svg>
