<svg xmlns="http://www.w3.org/2000/svg" width="210mm" height="297mm"><title>Der Elektromotor</title><defs><marker id="a" orient="auto" overflow="visible"><path d="M2.308 0l-3.46 2v-4l3.46 2z" fill-rule="evenodd" stroke="#000" stroke-width=".4pt"/></marker></defs><path fill="#fff" stroke="#fff" stroke-width="3" stroke-linecap="round" d="M17.08 268.794h709.935v514.774H17.08z"/><path d="M179.707 505.057v2.469c0-.827.034-1.645.045-2.469zm0 2.469V719.86h384.68V517.894c-5.503 99.07-89.446 177.745-192.205 177.745-106.317 0-192.475-84.225-192.475-188.113z" fill="#b3b3b3" stroke="#000" stroke-width="3" stroke-linecap="round"/><path fill="gray" stroke="#000" stroke-width="3" stroke-linecap="round" d="M421.987 384.607l73.064 73.064L319.96 632.762l-73.064-73.064z"/><path d="M426.67 375.217c17.23 9.021 32.293 20.043 45.238 33.02 12.945 12.977 23.772 27.909 32.533 44.752l-13.09 13.09-77.773-77.771zM239.153 562.733c9.022 17.231 20.043 32.294 33.02 45.239 12.977 12.944 27.91 23.772 44.752 32.533l13.091-13.091-77.772-77.772z" fill="gray" stroke="#000" stroke-width="2.653"/><path d="M378.594 501.064l69.569-69.32M295.433 583.976L365 514.656" fill="none" stroke="#1a1a1a"/><path d="M257.968 542.981c1.708-7.037 87.592 76.177 79.777 76.308M255.24 545.962c1.71-7.037 87.466 76.05 79.651 76.18M291.847 509.102c1.709-7.037 87.592 76.176 79.777 76.307M294.7 506.248c1.71-7.037 87.593 76.177 79.778 76.307M297.555 503.394c1.708-7.037 87.592 76.177 79.777 76.308M300.408 500.54c1.709-7.036 87.592 76.177 79.777 76.308M303.262 497.687c1.708-7.037 87.592 76.177 79.777 76.307M260.64 540.31c1.708-7.037 87.591 76.177 79.776 76.307M263.31 537.639c1.709-7.037 87.592 76.176 79.778 76.307M266.164 534.785c1.709-7.037 87.592 76.177 79.777 76.307M269.018 531.931c1.708-7.037 87.592 76.177 79.777 76.308M271.871 529.077c1.709-7.037 87.592 76.177 79.778 76.308M274.725 526.224c1.709-7.037 87.592 76.177 79.777 76.307M277.579 523.37c1.708-7.037 87.592 76.177 79.777 76.308M280.432 520.516c1.709-7.037 87.593 76.177 79.778 76.308M283.286 517.663c1.709-7.037 87.592 76.176 79.777 76.307M286.14 514.81c1.708-7.038 87.592 76.176 79.777 76.306M288.994 511.955c1.708-7.037 87.592 76.177 79.777 76.308M306.116 494.833c1.708-7.037 87.592 76.177 79.777 76.308M308.97 491.98c1.708-7.037 87.591 76.176 79.776 76.307M311.823 489.126c1.708-7.037 87.592 76.177 79.777 76.307M347.566 453.383c1.708-7.037 87.592 76.177 79.777 76.308M344.839 456.364c1.708-7.037 87.465 76.05 79.65 76.18M381.445 419.504c1.709-7.037 87.592 76.177 79.777 76.307M384.299 416.65c1.708-7.037 87.592 76.177 79.777 76.308M387.152 413.796c1.709-7.037 87.593 76.177 79.778 76.308M390.006 410.943c1.709-7.037 87.592 76.177 79.777 76.307M392.86 408.09c1.708-7.038 87.592 76.176 79.777 76.307M350.237 450.712c1.708-7.037 87.592 76.177 79.777 76.307M352.908 448.04c1.709-7.036 87.592 76.177 79.777 76.308M355.762 445.187c1.708-7.037 87.592 76.177 79.777 76.307M358.616 442.333c1.708-7.037 87.592 76.177 79.777 76.308M361.47 439.48c1.708-7.037 87.591 76.176 79.776 76.307M364.323 436.626c1.708-7.037 87.592 76.177 79.777 76.307M367.177 433.772c1.708-7.037 87.592 76.177 79.777 76.308M370.03 430.919c1.709-7.037 87.592 76.176 79.777 76.307M372.884 428.065c1.708-7.037 87.592 76.177 79.777 76.307M375.738 425.211c1.708-7.037 87.592 76.177 79.777 76.308M378.591 422.358c1.709-7.037 87.592 76.176 79.778 76.307M395.713 405.235c1.709-7.037 87.593 76.177 79.778 76.308M398.567 402.382c1.709-7.037 87.592 76.176 79.777 76.307M401.42 399.528c1.71-7.037 87.593 76.177 79.778 76.307M404.687 396.262c.854-3.518 22.752 15.526 43.46 35.466" fill="none" stroke="#000" stroke-width="1.196" stroke-linecap="round"/><path d="M391.6 565.433l-46.761-109.07" opacity=".25" fill="none" stroke="#000" stroke-dasharray="2.00000002,2.00000002"/><path d="M361.78 517.877c-5.531-5.532-5.531-14.501 0-20.033 5.533-5.533 14.502-5.533 20.034 0 5.533 5.532 5.532 14.5 0 20.033-5.532 5.532-14.501 5.532-20.033 0z" fill="#4d4d4d" stroke="#1a1a1a" stroke-width="6.000527600000001"/><path fill="#e6e6e6" stroke="#000" stroke-width=".097" stroke-linecap="round" d="M362.038 493.802l23.817 23.818-4.298 4.298L357.74 498.1z"/><path d="M361.78 517.877c-5.531-5.532-5.531-14.501 0-20.033 5.533-5.533 14.502-5.533 20.034 0 5.533 5.532 5.532 14.5 0 20.033-5.532 5.532-14.501 5.532-20.033 0z" fill="#ccc"/><g fill="#f55" stroke="navy" stroke-width=".543"><g stroke="none"><path d="M425.28 443.534c.122-.86.183-.921-.553-1.658l-6.69-6.69-1.229 1.227 1.167 1.167c.552.552 1.289 1.411 1.841 1.964.798 1.043.798 1.166.062 1.903l-20.44 20.44c-1.044 1.043-2.886 2.885-6.937-1.166l-1.227 1.227c1.411 1.29 3.437 3.192 4.726 4.481 1.289 1.289 3.13 3.253 4.42 4.665l1.227-1.228c-3.99-3.99-2.148-5.83-1.105-6.874l20.379-20.38c0 .37-.061.43-.123.86l-7.55 39.469c-.061.798-.061.92.184 1.166.553.552.798.307 1.596-.491l21.607-21.606c1.043-1.044 2.885-2.885 6.936 1.166l1.228-1.228c-1.474-1.35-3.438-3.192-4.727-4.48-1.289-1.29-3.13-3.254-4.42-4.666l-1.227 1.228c3.99 3.99 2.148 5.831 1.105 6.875l-16.757 16.757zm0 0" fill="#59f"/><path d="M331.661 553.97l-3.867-6.2c-1.842-3.068-1.228-6.628 1.043-8.9 2.763-2.762 7.243-3.069 10.313 0 6.506 6.507.92 13.811-.553 15.776-.184.306-.43.552 0 .982.491.49.675.307 1.412-.43l7.857-7.857c.675-.675.982-.982.552-1.412-.245-.245-.368-.245-1.105 0l-3.621.798c0-2.332 0-5.524-3.499-9.023-4.358-4.358-11.049-4.174-15.223 0-3.253 3.253-4.05 8.225-2.087 12.277.307.552 1.842 3.069 3.929 6.506.798 1.289 1.657 2.762 1.35 5.279a8.48 8.48 0 0 1-2.394 4.849c-2.762 2.762-7.55 3.622-10.864.307-1.105-1.105-3.929-4.297-4.113-8.287-.123-4.42 2.21-6.997 3.622-8.409.368-.491.061-.798-.062-.92-.49-.492-.798-.185-1.473.49l-7.857 7.857c-.675.675-.92.921-.49 1.35.245.246.368.246 1.043.062.061-.061.307-.061 3.683-.86-.123 2.579.982 6.507 4.48 10.006 4.543 4.542 11.479 3.867 15.837-.491 3.867-3.867 4.542-9.698 2.087-13.75zm0 0"/></g></g><path transform="rotate(30 96.773 1394.288)" d="M-14.4 419.254C7.952 426.804 23 447.77 23 471.362" fill="none" stroke="#000" stroke-width="3" stroke-opacity=".498" marker-end="url(#a)"/><path d="M-14.4 419.254C7.952 426.804 23 447.77 23 471.362" transform="rotate(-150 133.578 435.92)" fill="none" stroke="#000" stroke-width="3" stroke-opacity=".498" marker-end="url(#a)"/><path d="M255.427 546.336l41.912 39.735" fill="#1a1a1a" stroke="#1a1a1a" stroke-width="1.002" stroke-linecap="round"/><path d="M372.07 319.397c-106.317 0-192.52 84.228-192.52 188.12 0 103.893 86.203 188.122 192.52 188.122 106.316 0 192.474-84.229 192.474-188.121 0-103.893-86.158-188.12-192.474-188.12zm0 19.885c95.072 0 172.14 75.332 172.14 168.236s-77.068 168.19-172.14 168.19c-95.072 0-172.141-75.286-172.141-168.19s77.069-168.236 172.14-168.236z" fill="#b3b3b3" stroke="#000" stroke-width="3.324"/><g fill="#e6e6e6" stroke-linecap="square"><path stroke="#000" stroke-width="3" d="M121.707 720.872h500.681v24.624H121.707z"/><path stroke="#333" stroke-width="2.864" d="M135.895 707.874H161.3v12.462h-25.405zM582.795 707.874H608.2v12.462h-25.405z"/></g><g stroke="#000" stroke-width="3"><path d="M428.07 675.476c-5.635 1.672-11.347 3.144-17.188 4.313a196.593 196.593 0 0 1-19.125 2.875c-6.471.642-13.043.968-19.687.968-6.645 0-13.216-.326-19.688-.968a195.97 195.97 0 0 1-19.094-2.875c-5.851-1.17-11.604-2.637-17.25-4.313v-24.469c17.732 5.264 36.54 8.094 56.032 8.094 19.475 0 38.283-2.807 56-8.062z" fill="#f55"/><path d="M428.07 700.007c-5.635 1.673-11.347 3.145-17.188 4.313a196.593 196.593 0 0 1-19.125 2.875c-6.471.642-13.043.969-19.687.969-6.645 0-13.216-.327-19.688-.97a195.97 195.97 0 0 1-19.094-2.874c-5.851-1.17-11.604-2.636-17.25-4.313V675.54c17.732 5.264 36.54 8.093 56.032 8.093 19.475 0 38.283-2.807 56-8.062z" fill="#59f"/><g><path d="M428.07 339.553c-5.635-1.672-11.347-3.144-17.188-4.312a196.593 196.593 0 0 0-19.125-2.875 199.357 199.357 0 0 0-19.687-.969c-6.645 0-13.216.327-19.688.969a195.97 195.97 0 0 0-19.094 2.875c-5.851 1.17-11.604 2.636-17.25 4.312v24.47c17.732-5.265 36.54-8.095 56.032-8.095 19.475 0 38.283 2.807 56 8.063z" fill="#59f"/><path d="M428.07 315.022c-5.635-1.672-11.347-3.144-17.188-4.312a196.593 196.593 0 0 0-19.125-2.875 199.357 199.357 0 0 0-19.687-.97c-6.645 0-13.216.327-19.688.97a195.97 195.97 0 0 0-19.094 2.875c-5.851 1.17-11.604 2.636-17.25 4.312v24.469c17.732-5.264 36.54-8.094 56.032-8.094 19.475 0 38.283 2.807 56 8.063z" fill="#f55"/></g></g></svg>