<svg xmlns:ns0="http://www.iki.fi/pav/software/textext/" xmlns="http://www.w3.org/2000/svg" xmlns:xlink="http://www.w3.org/1999/xlink" width="744.094" height="1052.362"><title>Elektromagnetische Induktion mit einer Leiterschaukel</title><defs><marker orient="auto" id="c" overflow="visible"><path d="M-5.231-2.42L1.324-.01-5.23 2.401c1.047-1.423 1.041-3.37 0-4.821z" fill-rule="evenodd" stroke-width=".375" stroke-linejoin="round" stroke="teal" fill="teal"/></marker><marker id="o" orient="auto" overflow="visible"><path d="M-5.231-2.42L1.324-.01-5.23 2.401c1.047-1.423 1.041-3.37 0-4.821z" fill-rule="evenodd" stroke-width=".375" stroke-linejoin="round" stroke="teal" fill="teal"/></marker><marker orient="auto" id="d" overflow="visible"><path d="M-5.231-2.42L1.324-.01-5.23 2.401c1.047-1.423 1.041-3.37 0-4.821z" fill-rule="evenodd" stroke-width=".375" stroke-linejoin="round" stroke="#d40000" fill="#d40000"/></marker><marker id="h" orient="auto" overflow="visible"><path d="M-5.231-2.42L1.324-.01-5.23 2.401c1.047-1.423 1.041-3.37 0-4.821z" fill-rule="evenodd" stroke-width=".375" stroke-linejoin="round" stroke="#d40000" fill="#d40000"/></marker><marker id="e" orient="auto" overflow="visible"><path d="M-4 0l-2 2 7-2-7-2 2 2z" fill-rule="evenodd" stroke="#a0892c" stroke-width=".4pt" fill="#a0892c"/></marker><marker orient="auto" id="g" overflow="visible"><path d="M-4 0l-2 2 7-2-7-2 2 2z" fill-rule="evenodd" stroke="#a0892c" stroke-width=".4pt" fill="#a0892c"/></marker><marker id="f" orient="auto" overflow="visible"><path d="M-4 0l-2 2 7-2-7-2 2 2z" fill-rule="evenodd" stroke="#a0892c" stroke-width=".4pt" fill="#a0892c"/></marker><marker orient="auto" id="a" overflow="visible"><path d="M-4 0l-2 2 7-2-7-2 2 2z" fill-rule="evenodd" stroke="#a0892c" stroke-width=".4pt" fill="#a0892c"/></marker><marker id="b" orient="auto" overflow="visible"><path d="M-4 0l-2 2 7-2-7-2 2 2z" fill-rule="evenodd" stroke="#a0892c" stroke-width=".4pt" fill="#a0892c"/></marker></defs><path fill="#fff" d="M16.401 221.929h711.292v608.505H16.401z"/><path d="M180.254 707.836l313.534 47.426 89.387-40.73-312.391-47.945z" style="isolation:auto;mix-blend-mode:normal" color="#000" overflow="visible" fill="#f55" fill-rule="evenodd" stroke="#000" stroke-linecap="round" stroke-linejoin="round"/><path d="M180.254 586.763v121.073l313.534 47.426v52.969l-390.103-59.008.152-174.019z" style="isolation:auto;mix-blend-mode:normal" color="#000" overflow="visible" fill="#f55" fill-rule="evenodd" stroke="#000" stroke-linecap="round" stroke-linejoin="round"/><path style="isolation:auto;mix-blend-mode:normal" d="M489.43 566.962V246.466l-75.07 34.205" color="#000" overflow="visible" fill="none" stroke="#000" stroke-width="5.669" stroke-linecap="round" stroke-linejoin="round"/><path d="M103.837 400.637l389.213 58.872 90.125-41.065-389.212-58.873zM180.254 586.763l90.53-41.25-.817-67.67-89.713-13.57z" style="isolation:auto;mix-blend-mode:normal" color="#000" overflow="visible" fill="#37c837" fill-rule="evenodd" stroke="#000" stroke-linecap="round" stroke-linejoin="round"/><path d="M270.784 545.514v121.073l-90.53 41.25V586.762zM493.788 755.262v52.969l89.387-40.73v-52.968z" style="isolation:auto;mix-blend-mode:normal" color="#000" overflow="visible" fill="#f55" fill-rule="evenodd" stroke="#000" stroke-linecap="round" stroke-linejoin="round"/><path style="isolation:auto;mix-blend-mode:normal" d="M317.155 701.073v-225.96" color="#000" overflow="visible" fill="none" stroke="#a0892c" stroke-width="5.669" stroke-linecap="round" stroke-linejoin="round" marker-mid="url(#a)"/><path d="M254.388 691.578V465.62" style="isolation:auto;mix-blend-mode:normal" color="#000" overflow="visible" fill="none" stroke="#a0892c" stroke-width="5.669" stroke-linecap="round" stroke-linejoin="round" marker-mid="url(#b)"/><ellipse style="marker:none" transform="matrix(-2.68373 0 0 3.5783 1511.351 -64.487)" cx="421.654" cy="100.866" rx="14.173" ry="10.63" color="#000" overflow="visible" fill="#fff" stroke="#000" stroke-width=".69" stroke-linecap="square"/><text y="706.065" x="119.253" style="line-height:125%;-inkscape-font-specification:Arial" font-weight="400" font-size="66.318" font-family="Arial" letter-spacing="0" word-spacing="0" transform="matrix(.71286 0 0 .71286 278.97 -190.619)"><tspan y="706.065" x="119.253">V</tspan></text><path d="M505.464 627.586l3.618 6.279 3.618 6.279-7.246-.006-7.247-.007 3.629-6.272zM442.697 618.092l3.618 6.279 3.618 6.279-7.247-.007-7.246-.006 3.628-6.273zM317.163 599.103l3.618 6.28 3.618 6.278-7.247-.006-7.247-.006 3.629-6.273zM254.395 589.61l3.618 6.278 3.618 6.28-7.246-.007-7.247-.006 3.629-6.273z" fill="#a0892c" stroke="#a0892c" stroke-width="4.6498608"/><path style="isolation:auto;mix-blend-mode:normal" d="M489.43 566.962l117.075-53.345" color="#000" overflow="visible" fill="teal" fill-rule="evenodd" stroke="teal" stroke-width="5.669" stroke-linecap="round" stroke-linejoin="round" stroke-dasharray="5.6692915,11.33858299" marker-end="url(#c)"/><g transform="translate(83.257 -1.302)" fill="#b3b3b3" stroke="#666" stroke-width="1.89" stroke-linecap="round" stroke-linejoin="round"><circle r="13.105" cy="568.602" cx="404.444"/><path style="isolation:auto;mix-blend-mode:normal" d="M409.679 580.93l-212.334 96.75-10.105-24.66 212.334-96.75" color="#000" overflow="visible" fill-rule="evenodd"/><circle cx="194.269" cy="664.081" r="13.105"/></g><path style="isolation:auto;mix-blend-mode:normal" d="M475.806 572.801l156.609 23.689" color="#000" overflow="visible" fill="none" stroke="#d40000" stroke-width="5.669" stroke-linecap="round" stroke-linejoin="round" marker-end="url(#d)"/><path d="M505.457 729.555V503.596" style="isolation:auto;mix-blend-mode:normal" color="#000" overflow="visible" fill="none" stroke="#a0892c" stroke-width="5.669" stroke-linecap="round" stroke-linejoin="round" marker-mid="url(#e)"/><path d="M379.923 710.567V494.475" style="isolation:auto;mix-blend-mode:normal" color="#000" overflow="visible" fill="none" stroke="#a0892c" stroke-width="5.544" stroke-linecap="round" stroke-linejoin="round" marker-mid="url(#f)"/><path d="M493.05 459.51v52.077l90.125-41.066v-52.077z" style="isolation:auto;mix-blend-mode:normal" color="#000" overflow="visible" fill="#37c837" fill-rule="evenodd" stroke="#000" stroke-linecap="round" stroke-linejoin="round"/><path style="isolation:auto;mix-blend-mode:normal" d="M442.69 720.061v-225.96" color="#000" overflow="visible" fill="none" stroke="#a0892c" stroke-width="5.669" stroke-linecap="round" stroke-linejoin="round" marker-mid="url(#g)"/><path d="M379.754 608.57l3.617 6.28 3.618 6.279-7.246-.006-7.247-.007 3.629-6.272z" fill="#a0892c" stroke="#a0892c" stroke-width="4.6498608"/><path d="M103.837 400.637v174.567l76.417 11.56v-122.49l312.796 47.313v-52.078z" style="isolation:auto;mix-blend-mode:normal" color="#000" overflow="visible" fill="#37c837" fill-rule="evenodd" stroke="#000" stroke-linecap="round" stroke-linejoin="round"/><path d="M275.55 664.047V343.92l69.583-31.705" style="isolation:auto;mix-blend-mode:normal" color="#000" overflow="visible" fill="none" stroke="#000" stroke-width="5.669" stroke-linecap="round" stroke-linejoin="round"/><path d="M300.421 652.715l156.609 23.688" style="isolation:auto;mix-blend-mode:normal" color="#000" overflow="visible" fill="none" stroke="#d40000" stroke-width="5.669" stroke-linecap="round" stroke-linejoin="round" marker-end="url(#h)"/><g ns0:text="$F_{\\mathrm{mech.}}$" ns0:preamble="/home/waldgeist/data/homepage/inkscape-preamble.tex" transform="matrix(3 0 0 3 229.072 385.915)" fill="#d40000"><defs><symbol overflow="visible" id="i"><path d="M3.016-3.234h.968c.75 0 .829.156.829.437 0 .078 0 .188-.063.5-.031.047-.031.078-.031.11 0 .078.062.109.11.109.109 0 .109-.031.155-.203l.547-2.172c.032-.11.032-.125.032-.156a.117.117 0 0 0-.125-.11c-.094 0-.11.047-.141.219-.219.766-.438.953-1.297.953h-.906l.64-2.531c.094-.36.11-.39.547-.39h1.313c1.218 0 1.453.327 1.453 1.093 0 .234 0 .266-.031.547C7-4.703 7-4.688 7-4.656c0 .047.031.125.125.125.11 0 .11-.063.125-.25l.203-1.735c.031-.265-.016-.265-.266-.265h-4.89c-.188 0-.297 0-.297.203 0 .11.094.11.281.11.375 0 .656 0 .656.171 0 .047 0 .063-.062.25L1.562-.78c-.093.39-.109.469-.906.469-.172 0-.281 0-.281.187C.375 0 .5 0 .531 0c.281 0 1.031-.031 1.313-.031C2.172-.031 3 0 3.328 0c.094 0 .203 0 .203-.188 0-.078-.047-.109-.047-.109-.03-.016-.062-.016-.28-.016-.22 0-.267 0-.517-.015-.296-.031-.328-.078-.328-.203 0-.016 0-.078.047-.219zm0 0"/></symbol><symbol overflow="visible" id="j"><path d="M5.734-2.11c0-.609-.312-.968-1.046-.968-.563 0-.938.297-1.125.656-.141-.5-.516-.656-1.016-.656-.578 0-.938.312-1.14.687v-.687L.374-3v.25c.469 0 .531.047.531.39v1.813c0 .297-.078.297-.531.297V0c.016 0 .5-.031.797-.031.25 0 .734.031.797.031v-.25c-.453 0-.516 0-.516-.297v-1.265c0-.72.578-1.063 1.031-1.063.485 0 .547.375.547.734v1.594c0 .297-.062.297-.515.297V0c.015 0 .5-.031.796-.031.25 0 .735.031.797.031v-.25c-.453 0-.515 0-.515-.297v-1.265c0-.72.578-1.063 1.031-1.063.484 0 .547.375.547.734v1.594c0 .297-.063.297-.516.297V0c.016 0 .5-.031.797-.031.25 0 .734.031.797.031v-.25c-.453 0-.516 0-.516-.297zm0 0"/></symbol><symbol overflow="visible" id="k"><path d="M3.063-1.594c.156 0 .203 0 .203-.14 0-.625-.344-1.375-1.391-1.375a1.59 1.59 0 0 0-1.61 1.578c0 .89.782 1.593 1.704 1.593.937 0 1.297-.75 1.297-.906 0-.015-.016-.094-.125-.094-.094 0-.11.047-.125.11-.22.562-.75.672-1 .672-.329 0-.641-.14-.844-.406-.266-.329-.266-.75-.266-1.032zM.905-1.766c.078-.984.703-1.14.969-1.14.86 0 .89.969.906 1.14zm0 0"/></symbol><symbol overflow="visible" id="l"><path d="M2.703-2.781a.328.328 0 0 0-.187.312c0 .188.125.328.328.328.187 0 .328-.125.328-.343 0-.625-.969-.625-1.156-.625C.969-3.11.328-2.313.328-1.5c0 .875.734 1.563 1.656 1.563 1.032 0 1.282-.813 1.282-.907 0-.078-.094-.078-.125-.078-.094 0-.094.016-.125.125-.157.422-.532.64-.954.64-.484 0-1.109-.359-1.109-1.359 0-.875.438-1.375 1.078-1.375.094 0 .422 0 .672.11zm0 0"/></symbol><symbol overflow="visible" id="m"><path d="M3.594-2.11c0-.609-.297-.968-1.047-.968-.625 0-.969.375-1.125.64v-2.406l-1.047.078v.25c.469 0 .531.063.531.391v3.578c0 .297-.078.297-.531.297V0c.016 0 .5-.031.797-.031.25 0 .734.031.797.031v-.25c-.453 0-.516 0-.516-.297v-1.265c0-.72.578-1.063 1.031-1.063.485 0 .547.375.547.734v1.594c0 .297-.062.297-.515.297V0c.015 0 .5-.031.796-.031.25 0 .735.031.797.031v-.25c-.453 0-.515 0-.515-.297zm0 0"/></symbol><symbol overflow="visible" id="n"><path d="M1.578-.39a.4.4 0 0 0-.39-.407.4.4 0 0 0-.407.39.4.4 0 0 0 .39.407.4.4 0 0 0 .407-.39zm0 0"/></symbol></defs><use height="100%" width="100%" xlink:href="#i" x="118.801" y="83.403"/><use height="100%" width="100%" xlink:href="#j" x="125.208" y="84.898"/><use height="100%" width="100%" xlink:href="#k" x="131.753" y="84.898"/><use height="100%" width="100%" xlink:href="#l" x="135.295" y="84.898"/><g><use height="100%" width="100%" xlink:href="#m" x="138.621" y="84.898"/></g><g><use height="100%" width="100%" xlink:href="#n" x="143.023" y="84.898"/></g></g><path d="M153.708 719.932l117.076-53.345" style="isolation:auto;mix-blend-mode:normal" color="#000" overflow="visible" fill="teal" fill-rule="evenodd" stroke="teal" stroke-width="5.669" stroke-linecap="round" stroke-linejoin="round" stroke-dasharray="5.6692915,11.33858299" marker-end="url(#o)"/><g transform="matrix(3 0 0 3 239.574 247.096)" ns0:preamble="/home/waldgeist/data/homepage/inkscape-preamble.tex" ns0:text="$I_{\\mathrm{techn.}}$" fill="teal"><defs><symbol id="p" overflow="visible"><path d="M3.734-6.047c.079-.36.11-.453.907-.453.234 0 .312 0 .312-.188 0-.125-.11-.125-.14-.125-.297 0-1.032.032-1.329.032-.296 0-1.015-.032-1.328-.032-.062 0-.187 0-.187.204 0 .109.078.109.281.109.406 0 .688 0 .688.188 0 .046 0 .078-.032.156L1.562-.781c-.093.375-.109.469-.906.469-.234 0-.312 0-.312.203 0 .109.11.109.14.109C.781 0 1.5-.031 1.797-.031c.297 0 1.031.031 1.328.031.078 0 .203 0 .203-.188 0-.124-.078-.124-.297-.124-.187 0-.234 0-.422-.016-.218-.016-.25-.063-.25-.172 0-.078.016-.156.032-.234zm0 0"/></symbol><symbol id="q" overflow="visible"><path d="M1.406-2.75h1.078V-3H1.406v-1.281h-.25c0 .625-.281 1.312-.953 1.328v.203h.64v1.875c0 .781.595.938.985.938.469 0 .781-.391.781-.938v-.39h-.234v.374c0 .485-.219.735-.5.735-.469 0-.469-.578-.469-.703zm0 0"/></symbol><symbol id="r" overflow="visible"><path d="M3.063-1.594c.156 0 .203 0 .203-.14 0-.625-.344-1.375-1.391-1.375a1.59 1.59 0 0 0-1.61 1.578c0 .89.782 1.593 1.704 1.593.937 0 1.297-.75 1.297-.906 0-.015-.016-.094-.125-.094-.094 0-.11.047-.125.11-.22.562-.75.672-1 .672-.329 0-.641-.14-.844-.406-.266-.329-.266-.75-.266-1.032zM.905-1.766c.078-.984.703-1.14.969-1.14.86 0 .89.969.906 1.14zm0 0"/></symbol><symbol id="s" overflow="visible"><path d="M2.703-2.781a.328.328 0 0 0-.187.312c0 .188.125.328.328.328.187 0 .328-.125.328-.343 0-.625-.969-.625-1.156-.625C.969-3.11.328-2.313.328-1.5c0 .875.734 1.563 1.656 1.563 1.032 0 1.282-.813 1.282-.907 0-.078-.094-.078-.125-.078-.094 0-.094.016-.125.125-.157.422-.532.64-.954.64-.484 0-1.109-.359-1.109-1.359 0-.875.438-1.375 1.078-1.375.094 0 .422 0 .672.11zm0 0"/></symbol><symbol id="t" overflow="visible"><path d="M3.594-2.11c0-.609-.297-.968-1.047-.968-.625 0-.969.375-1.125.64v-2.406l-1.047.078v.25c.469 0 .531.063.531.391v3.578c0 .297-.078.297-.531.297V0c.016 0 .5-.031.797-.031.25 0 .734.031.797.031v-.25c-.453 0-.516 0-.516-.297v-1.265c0-.72.578-1.063 1.031-1.063.485 0 .547.375.547.734v1.594c0 .297-.062.297-.515.297V0c.015 0 .5-.031.796-.031.25 0 .735.031.797.031v-.25c-.453 0-.515 0-.515-.297zm0 0"/></symbol><symbol id="u" overflow="visible"><path d="M3.594-2.11c0-.609-.297-.968-1.047-.968-.578 0-.938.312-1.14.687v-.687L.374-3v.25c.469 0 .531.047.531.39v1.813c0 .297-.078.297-.531.297V0c.016 0 .5-.031.797-.031.25 0 .734.031.797.031v-.25c-.453 0-.516 0-.516-.297v-1.265c0-.72.578-1.063 1.031-1.063.485 0 .547.375.547.734v1.594c0 .297-.062.297-.515.297V0c.015 0 .5-.031.796-.031.25 0 .735.031.797.031v-.25c-.453 0-.515 0-.515-.297zm0 0"/></symbol><symbol id="v" overflow="visible"><path d="M1.578-.39a.4.4 0 0 0-.39-.407.4.4 0 0 0-.407.39.4.4 0 0 0 .39.407.4.4 0 0 0 .407-.39zm0 0"/></symbol></defs><use y="83.403" x="118.801" xlink:href="#p" width="100%" height="100%"/><use y="84.898" x="123.181" xlink:href="#q" width="100%" height="100%"/><use y="84.898" x="126.294" xlink:href="#r" width="100%" height="100%"/><use y="84.898" x="129.836" xlink:href="#s" width="100%" height="100%"/><g><use y="84.898" x="133.162" xlink:href="#t" width="100%" height="100%"/><use y="84.898" x="137.562" xlink:href="#u" width="100%" height="100%"/></g><g><use y="84.898" x="141.964" xlink:href="#v" width="100%" height="100%"/></g></g></svg>