<svg xmlns="http://www.w3.org/2000/svg" width="1052.362" height="744.094"><title>Elektroskop (Funktionsweise)</title><path d="M167.606 538.996v32.439H70.032v18.834h228.025v-18.834h-97.573v-32.44z" fill="#333" stroke="#1a1a1a" stroke-width="2.341" stroke-linecap="round"/><path d="M288.01 435.664c0 57.418-46.547 103.965-103.965 103.965-57.418 0-103.965-46.547-103.965-103.965 0-57.418 46.547-103.964 103.965-103.964 57.418 0 103.964 46.546 103.964 103.964z" fill="none" stroke="gray" stroke-width="5.85189306" stroke-linecap="round"/><path d="M174.554 292.433v17.588l-7.314 7.246v24.255h33.609v-24.255l-7.314-7.246v-17.588h-9.309z" fill="#333" stroke="#1a1a1a" stroke-width="1.17"/><path d="M139.317 281.952v4.608h40.449v58.369c-3.825 3.977-10.021 7.925-13.824 11.922v74.607c7.462 4.526 19.621 9.028 26.843 13.934v76.764h9.363v-81.811c-7.308-4.846-19.298-9.684-26.844-14.153v-65.574c3.83-3.972 9.982-7.962 13.824-11.922V286.56h39.644v-4.608z" style="text-indent:0;text-align:start;line-height:normal;text-transform:none;block-progression:tb;marker:none;-inkscape-font-specification:Sans" font-weight="400" color="#000" fill="gray" stroke="#000" stroke-width="1.17" overflow="visible" font-family="Sans"/><path fill="#b3b3b3" stroke="#000" stroke-width=".966" stroke-linecap="round" d="M142.85 490.272l79.785-111.086 2.604 1.87-79.785 111.086z"/><path d="M187.443 435.664a3.399 3.399 0 1 1-6.797 0 3.399 3.399 0 0 1 6.797 0z" fill="#fc0" stroke="#000" stroke-linecap="round" stroke-width="1.1703"/><g stroke="navy"><path d="M152.092 474.597a7.056 7.056 0 1 1-14.111 0 7.056 7.056 0 0 1 14.111 0z" fill="#fff" stroke-width="2.1167100000000003" stroke-linecap="round"/><text y="790.596" x="139.945" style="line-height:125%" font-size="28.223" font-weight="400" letter-spacing="0" word-spacing="0" stroke-width=".706" font-family="Sans" transform="translate(0 -308.268)"><tspan y="790.596" x="139.945">-</tspan></text></g><g stroke="navy"><path d="M194.012 283.907a7.056 7.056 0 1 1-14.112 0 7.056 7.056 0 0 1 14.112 0z" fill="#fff" stroke-width="2.1167100000000003" stroke-linecap="round"/><text style="line-height:125%" x="181.864" y="599.906" font-size="28.223" font-weight="400" letter-spacing="0" word-spacing="0" stroke-width=".706" font-family="Sans" transform="translate(0 -308.268)"><tspan x="181.864" y="599.906">-</tspan></text></g><g stroke="navy"><path d="M173.832 473.702a7.056 7.056 0 1 1-14.112 0 7.056 7.056 0 0 1 14.112 0z" fill="#fff" stroke-width="2.1167100000000003" stroke-linecap="round"/><text y="789.7" x="161.684" style="line-height:125%" font-size="28.223" font-weight="400" letter-spacing="0" word-spacing="0" stroke-width=".706" font-family="Sans" transform="translate(0 -308.268)"><tspan y="789.7" x="161.684">-</tspan></text></g><g stroke="navy"><path d="M146.535 496.142a7.056 7.056 0 1 1-14.112 0 7.056 7.056 0 0 1 14.112 0z" fill="none" stroke-width="2.1167100000000003" stroke-linecap="round"/><text style="line-height:125%" x="134.387" y="812.141" font-size="28.223" font-weight="400" letter-spacing="0" word-spacing="0" stroke-width=".706" font-family="Sans" transform="translate(0 -308.268)"><tspan x="134.387" y="812.141">-</tspan></text></g><g stroke="navy"><path d="M225.04 403.98a7.056 7.056 0 1 1-14.111 0 7.056 7.056 0 0 1 14.111 0z" fill="none" stroke-width="2.1167100000000003" stroke-linecap="round"/><text y="719.979" x="212.893" style="line-height:125%" font-size="28.223" font-weight="400" letter-spacing="0" word-spacing="0" stroke-width=".706" font-family="Sans" transform="translate(0 -308.268)"><tspan y="719.979" x="212.893">-</tspan></text></g><g stroke="navy"><path d="M236.394 387.85a7.056 7.056 0 1 1-14.11 0 7.056 7.056 0 0 1 14.11 0z" fill="none" stroke-width="2.1167100000000003" stroke-linecap="round"/><text style="line-height:125%" x="224.247" y="703.848" font-size="28.223" font-weight="400" letter-spacing="0" word-spacing="0" stroke-width=".706" font-family="Sans" transform="translate(0 -308.268)"><tspan x="224.247" y="703.848">-</tspan></text></g><g stroke="navy"><path d="M235.371 372.947a7.056 7.056 0 1 1-14.111 0 7.056 7.056 0 0 1 14.111 0z" fill="none" stroke-width="2.1167100000000003" stroke-linecap="round"/><text y="688.946" x="223.224" style="line-height:125%" font-size="28.223" font-weight="400" letter-spacing="0" word-spacing="0" stroke-width=".706" font-family="Sans" transform="translate(0 -308.268)"><tspan y="688.946" x="223.224">-</tspan></text></g><g stroke="navy"><path d="M179.837 350.845a7.056 7.056 0 1 1-14.111 0 7.056 7.056 0 0 1 14.111 0z" fill="#fff" stroke-width="2.1167100000000003" stroke-linecap="round"/><text y="666.844" x="167.689" style="line-height:125%" font-size="28.223" font-weight="400" letter-spacing="0" word-spacing="0" stroke-width=".706" font-family="Sans" transform="translate(0 -308.268)"><tspan y="666.844" x="167.689">-</tspan></text></g><g stroke="navy"><path d="M184.633 387.949a7.056 7.056 0 1 1-14.112 0 7.056 7.056 0 0 1 14.112 0z" fill="#fff" stroke-width="2.1167100000000003" stroke-linecap="round"/><text style="line-height:125%" x="172.485" y="703.947" font-size="28.223" font-weight="400" letter-spacing="0" word-spacing="0" stroke-width=".706" font-family="Sans" transform="translate(0 -308.268)"><tspan x="172.485" y="703.947">-</tspan></text></g><g stroke="navy"><path d="M170.383 416.82a7.056 7.056 0 1 1-14.111 0 7.056 7.056 0 0 1 14.111 0z" fill="#fff" stroke-width="2.1167100000000003" stroke-linecap="round"/><text y="732.819" x="158.235" style="line-height:125%" font-size="28.223" font-weight="400" letter-spacing="0" word-spacing="0" stroke-width=".706" font-family="Sans" transform="translate(0 -308.268)"><tspan y="732.819" x="158.235">-</tspan></text></g><g stroke="navy"><path d="M213.615 473.106a7.056 7.056 0 1 1-14.111 0 7.056 7.056 0 0 1 14.111 0z" fill="#fff" stroke-width="2.1167100000000003" stroke-linecap="round"/><text style="line-height:125%" x="800.615" y="924.53" font-size="24.116" font-weight="400" letter-spacing="0" word-spacing="0" stroke-width=".603" font-family="Sans" transform="matrix(1.1703 0 0 1.1703 -735.49 -601.138)"><tspan x="800.615" y="924.53">-</tspan></text></g><g stroke="navy"><path d="M195.524 503.442a7.056 7.056 0 1 1-14.111 0 7.056 7.056 0 0 1 14.111 0z" fill="#fff" stroke-width="2.1167100000000003" stroke-linecap="round"/><text style="line-height:125%" x="800.651" y="976.715" font-size="24.116" font-weight="400" letter-spacing="0" word-spacing="0" stroke-width=".603" font-family="Sans" transform="matrix(1.1703 0 0 1.1703 -753.623 -631.874)"><tspan x="800.651" y="976.715">-</tspan></text></g><g stroke="navy"><path d="M207.784 525.913a7.056 7.056 0 1 1-14.112 0 7.056 7.056 0 0 1 14.112 0z" fill="#fff" stroke-width="2.1167100000000003" stroke-linecap="round"/><text y="959.078" x="800.627" style="line-height:125%" font-size="24.116" font-weight="400" letter-spacing="0" word-spacing="0" stroke-width=".603" font-family="Sans" transform="matrix(1.1703 0 0 1.1703 -741.335 -588.763)"><tspan y="959.078" x="800.627">-</tspan></text></g><g stroke="navy"><path d="M190.752 319.416a7.056 7.056 0 1 1-14.111 0 7.056 7.056 0 0 1 14.111 0z" fill="#fff" stroke-width="2.1167100000000003" stroke-linecap="round"/><text style="line-height:125%" x="178.605" y="635.415" font-size="28.223" font-weight="400" letter-spacing="0" word-spacing="0" stroke-width=".706" font-family="Sans" transform="translate(0 -308.268)"><tspan x="178.605" y="635.415">-</tspan></text></g><path d="M419.524 181.21L183.67 241.838l7.001 26.761 235.855-60.628" fill="#b3b3b3" stroke="#1a1a1a" stroke-width="1.5" stroke-linecap="round"/><path d="M530 32.362c0 5.523-2.239 10-5 10s-5-4.477-5-10 2.239-10 5-10 5 4.477 5 10z" transform="matrix(1.09822 -.43201 .35253 1.34584 -401.7 438.372)" fill="#b3b3b3" stroke="#1a1a1a" stroke-width="2.75" stroke-linecap="round"/><g stroke="navy"><path d="M206.818 228.676a7.056 7.056 0 1 1-14.11 0 7.056 7.056 0 0 1 14.11 0z" fill="none" stroke-width="2.1167100000000003" stroke-linecap="round"/><text y="544.674" x="194.671" style="line-height:125%" font-size="28.223" font-weight="400" letter-spacing="0" word-spacing="0" stroke-width=".706" font-family="Sans" transform="translate(0 -308.268)"><tspan y="544.674" x="194.671">-</tspan></text></g><g stroke="navy"><path d="M237.701 220.438a7.056 7.056 0 1 1-14.111 0 7.056 7.056 0 0 1 14.111 0z" fill="none" stroke-width="2.1167100000000003" stroke-linecap="round"/><text style="line-height:125%" x="225.553" y="536.437" font-size="28.223" font-weight="400" letter-spacing="0" word-spacing="0" stroke-width=".706" font-family="Sans" transform="translate(0 -308.268)"><tspan x="225.553" y="536.437">-</tspan></text></g><g stroke="navy"><path d="M266.22 212.791a7.056 7.056 0 1 1-14.112 0 7.056 7.056 0 0 1 14.111 0z" fill="none" stroke-width="2.1167100000000003" stroke-linecap="round"/><text y="528.79" x="254.072" style="line-height:125%" font-size="28.223" font-weight="400" letter-spacing="0" word-spacing="0" stroke-width=".706" font-family="Sans" transform="translate(0 -308.268)"><tspan y="528.79" x="254.072">-</tspan></text></g><g stroke="navy"><path d="M218.528 272.746a7.056 7.056 0 1 1-14.111 0 7.056 7.056 0 0 1 14.111 0z" fill="none" stroke-width="2.1167100000000003" stroke-linecap="round"/><text style="line-height:125%" x="206.38" y="588.744" font-size="28.223" font-weight="400" letter-spacing="0" word-spacing="0" stroke-width=".706" font-family="Sans" transform="translate(0 -308.268)"><tspan x="206.38" y="588.744">-</tspan></text></g><g stroke="navy"><path d="M181.551 238.058a7.056 7.056 0 1 1-14.111 0 7.056 7.056 0 0 1 14.111 0z" fill="none" stroke-width="2.1167100000000003" stroke-linecap="round"/><text y="554.057" x="169.404" style="line-height:125%" font-size="28.223" font-weight="400" letter-spacing="0" word-spacing="0" stroke-width=".706" font-family="Sans" transform="translate(0 -308.268)"><tspan y="554.057" x="169.404">-</tspan></text></g><g stroke="navy"><path d="M272.98 258.93a7.056 7.056 0 1 1-14.112 0 7.056 7.056 0 0 1 14.112 0z" fill="none" stroke-width="2.1167100000000003" stroke-linecap="round"/><text y="574.929" x="260.832" style="line-height:125%" font-size="28.223" font-weight="400" letter-spacing="0" word-spacing="0" stroke-width=".706" font-family="Sans" transform="translate(0 -308.268)"><tspan y="574.929" x="260.832">-</tspan></text></g><g stroke="navy"><path d="M181.673 263.77a7.056 7.056 0 1 1-14.112 0 7.056 7.056 0 0 1 14.112 0z" fill="none" stroke-width="2.1167100000000003" stroke-linecap="round"/><text style="line-height:125%" x="169.525" y="579.768" font-size="28.223" font-weight="400" letter-spacing="0" word-spacing="0" stroke-width=".706" font-family="Sans" transform="translate(0 -308.268)"><tspan x="169.525" y="579.768">-</tspan></text></g><g stroke="navy"><path d="M246.586 265.74a7.056 7.056 0 1 1-14.111 0 7.056 7.056 0 0 1 14.11 0z" fill="none" stroke-width="2.1167100000000003" stroke-linecap="round"/><text y="581.739" x="234.438" style="line-height:125%" font-size="28.223" font-weight="400" letter-spacing="0" word-spacing="0" stroke-width=".706" font-family="Sans" transform="translate(0 -308.268)"><tspan y="581.739" x="234.438">-</tspan></text></g><path d="M416.563 153.916c-5.129 4.919-54.158 10.336-47.047 21.28 3.512 5.035 2.727 7.47 17.183 9.462 7.827 1.078 33.238-4.312 33.238-4.312" fill="#ffb380" stroke="#000" stroke-width="2.522"/><path d="M404.405 158.446c-.884 5.3-33.23 12.739-36.319 8.465 3.864-2.766 37.036-12.76 36.32-8.465z" fill="#ccc" stroke="#000" stroke-width="1.681" stroke-linecap="round"/><path d="M428.942 209.798s-28.402 2.379-38.814 9.969c-3.1 2.26-7.68 6.988-8.764 10.667-1.802 8.885-.978 15.758 8.076 18.547 7.685 2.263 18.436 1.37 26.444 1.566 11.994 2.112 23.935 2.664 36.23-3.02 3.411-1.244 9.068-.317 9.068-.317" fill="#fca" stroke="#000" stroke-width="2.522"/><path d="M384.023 230.271c3.046-3.767 8.474-4.538 13.29-5.068 4.437-.49 9.266-.812 13.356.976 2.38 1.04 4.766 2.893 5.696 5.32 1.431 3.734.573 8.296-1.05 11.951-5.36 7.858-21.512 4.686-28.692 3.935-2.106-.354-3.62-2.724-4.307-4.746-1.426-4.195-1.078-8.923 1.707-12.368z" fill="#ccc" stroke="#000" stroke-width="2.522"/><g fill="#b3b3b3" stroke-width="1.282" stroke="#1a1a1a" stroke-linecap="round"><path d="M950.538 197.43l-243.503 3.096.47 27.658 243.503-3.097" stroke-width="1.5003246"/><path d="M530 32.362c0 5.523-2.239 10-5 10s-5-4.477-5-10 2.239-10 5-10 5 4.477 5 10z" transform="matrix(1.16926 -.15988 .02406 1.39104 91.784 252.966)" stroke-width="1.175"/></g><g stroke="maroon"><path d="M812.208 198.357a7.056 7.056 0 1 1-14.112 0 7.056 7.056 0 0 1 14.112 0z" fill="#fff" stroke-width="2.1167100000000003" stroke-linecap="round"/><text y="684.519" x="368.906" style="line-height:125%" font-size="10.932" font-weight="400" letter-spacing="0" word-spacing="0" stroke-width=".273" font-family="Sans" transform="matrix(1.1703 0 0 1.1703 368.063 -598.724)"><tspan y="684.519" x="368.906">+</tspan></text></g><g stroke="maroon"><path d="M791.25 227.413a7.056 7.056 0 1 1-14.11 0 7.056 7.056 0 0 1 14.11 0z" fill="#fff" stroke-width="2.1167100000000003" stroke-linecap="round"/><text y="684.519" x="368.906" style="line-height:125%" font-size="10.932" font-weight="400" letter-spacing="0" word-spacing="0" stroke-width=".273" font-family="Sans" transform="matrix(1.1703 0 0 1.1703 347.106 -569.668)"><tspan y="684.519" x="368.906">+</tspan></text></g><g stroke="maroon"><path d="M790.966 198.4a7.056 7.056 0 1 1-14.111 0 7.056 7.056 0 0 1 14.111 0z" fill="#fff" stroke-width="2.1167100000000003" stroke-linecap="round"/><text y="684.519" x="368.906" style="line-height:125%" font-size="10.932" font-weight="400" letter-spacing="0" word-spacing="0" stroke-width=".273" font-family="Sans" transform="matrix(1.1703 0 0 1.1703 346.821 -598.68)"><tspan y="684.519" x="368.906">+</tspan></text></g><g stroke="maroon"><path d="M768.988 199.034a7.056 7.056 0 1 1-14.112 0 7.056 7.056 0 0 1 14.112 0z" fill="#fff" stroke-width="2.1167100000000003" stroke-linecap="round"/><text style="line-height:125%" x="368.906" y="684.519" font-size="10.932" font-weight="400" letter-spacing="0" word-spacing="0" stroke-width=".273" font-family="Sans" transform="matrix(1.1703 0 0 1.1703 324.843 -598.046)"><tspan x="368.906" y="684.519">+</tspan></text></g><g stroke="maroon"><path d="M747.302 198.953a7.056 7.056 0 1 1-14.112 0 7.056 7.056 0 0 1 14.112 0z" fill="#fff" stroke-width="2.1167100000000003" stroke-linecap="round"/><text y="684.519" x="368.906" style="line-height:125%" font-size="10.932" font-weight="400" letter-spacing="0" word-spacing="0" stroke-width=".273" font-family="Sans" transform="matrix(1.1703 0 0 1.1703 303.157 -598.128)"><tspan y="684.519" x="368.906">+</tspan></text></g><g stroke="maroon"><path d="M726.976 199.211a7.056 7.056 0 1 1-14.111 0 7.056 7.056 0 0 1 14.111 0z" fill="#fff" stroke-width="2.1167100000000003" stroke-linecap="round"/><text style="line-height:125%" x="368.906" y="684.519" font-size="10.932" font-weight="400" letter-spacing="0" word-spacing="0" stroke-width=".273" font-family="Sans" transform="matrix(1.1703 0 0 1.1703 282.832 -597.869)"><tspan x="368.906" y="684.519">+</tspan></text></g><g stroke="maroon"><path d="M706.332 214.978a7.056 7.056 0 1 1-14.111 0 7.056 7.056 0 0 1 14.111 0z" fill="#fff" stroke-width="2.1167100000000003" stroke-linecap="round"/><text y="684.519" x="368.906" style="line-height:125%" font-size="10.932" font-weight="400" letter-spacing="0" word-spacing="0" stroke-width=".273" font-family="Sans" transform="matrix(1.1703 0 0 1.1703 262.188 -582.102)"><tspan y="684.519" x="368.906">+</tspan></text></g><g stroke="maroon"><path d="M726.181 227.875a7.056 7.056 0 1 1-14.111 0 7.056 7.056 0 0 1 14.111 0z" fill="#fff" stroke-width="2.1167100000000003" stroke-linecap="round"/><text style="line-height:125%" x="368.906" y="684.519" font-size="10.932" font-weight="400" letter-spacing="0" word-spacing="0" stroke-width=".273" font-family="Sans" transform="matrix(1.1703 0 0 1.1703 282.037 -569.206)"><tspan x="368.906" y="684.519">+</tspan></text></g><g stroke="maroon"><path d="M746.547 227.708a7.056 7.056 0 1 1-14.111 0 7.056 7.056 0 0 1 14.111 0z" fill="#fff" stroke-width="2.1167100000000003" stroke-linecap="round"/><text y="684.519" x="368.906" style="line-height:125%" font-size="10.932" font-weight="400" letter-spacing="0" word-spacing="0" stroke-width=".273" font-family="Sans" transform="matrix(1.1703 0 0 1.1703 302.403 -569.372)"><tspan y="684.519" x="368.906">+</tspan></text></g><g stroke="maroon"><path d="M768.397 228.047a7.056 7.056 0 1 1-14.112 0 7.056 7.056 0 0 1 14.112 0z" fill="#fff" stroke-width="2.1167100000000003" stroke-linecap="round"/><text style="line-height:125%" x="368.906" y="684.519" font-size="10.932" font-weight="400" letter-spacing="0" word-spacing="0" stroke-width=".273" font-family="Sans" transform="matrix(1.1703 0 0 1.1703 324.252 -569.034)"><tspan x="368.906" y="684.519">+</tspan></text></g><g stroke="#000"><path d="M951.427 167.806c-5.75 4.174-55.06 2.852-49.51 14.664 2.793 5.466 1.683 7.772 15.732 11.717 7.607 2.136 33.515.263 33.515.263" fill="#ffb380" stroke-width="2.52241478"/><path d="M938.766 170.635c-1.599 5.13-34.658 8.087-37.134 3.432 4.205-2.213 38.43-7.588 37.134-3.432z" fill="#ccc" stroke-width="1.6819681" stroke-linecap="round"/></g><path d="M952.32 227.13s-28.49-.874-39.699 5.48c-3.336 1.89-8.427 6.067-9.922 9.599-2.804 8.621-2.768 15.543 5.91 19.346 7.376 3.124 18.158 3.461 26.093 4.57 11.675 3.465 23.474 5.375 36.338 1.128 3.53-.846 9.044.72 9.044.72" fill="#fca" stroke="#000" stroke-width="2.522"/><path d="M905.359 242.35c3.455-3.396 8.936-3.543 13.78-3.521 4.465.02 9.299.25 13.159 2.492 2.246 1.305 4.405 3.418 5.052 5.934.997 3.873-.376 8.308-2.404 11.755-6.223 7.195-21.907 2.203-28.954.638-2.053-.592-3.286-3.118-3.739-5.206-.938-4.33-.054-8.987 3.106-12.092z" fill="#ccc" stroke="#000" stroke-width="2.522"/><path d="M690.818 525.105v32.44h-97.574v18.834H821.27v-18.834h-97.573v-32.44z" fill="#333" stroke="#1a1a1a" stroke-width="2.341" stroke-linecap="round"/><path d="M811.221 421.774c0 57.418-46.546 103.964-103.964 103.964s-103.965-46.546-103.965-103.964 46.547-103.965 103.965-103.965c57.418 0 103.964 46.547 103.964 103.965z" fill="none" stroke="gray" stroke-width="5.85189306" stroke-linecap="round"/><path d="M697.767 278.543v17.587l-7.315 7.247v24.255h33.609v-24.255l-7.314-7.247v-17.587h-9.309z" fill="#333" stroke="#1a1a1a" stroke-width="1.17"/><path style="text-indent:0;text-align:start;line-height:normal;text-transform:none;block-progression:tb;marker:none;-inkscape-font-specification:Sans" d="M662.53 268.062v4.608h40.448v58.369c-3.825 3.977-10.02 7.925-13.824 11.922v74.606c7.462 4.526 19.621 9.029 26.843 13.934v76.764h9.363v-81.81c-7.308-4.846-19.298-9.685-26.844-14.154v-65.573c3.83-3.972 9.982-7.962 13.824-11.922V272.67h39.644v-4.608z" font-weight="400" color="#000" fill="gray" stroke="#000" stroke-width="1.17" overflow="visible" font-family="Sans"/><path fill="#b3b3b3" stroke="#000" stroke-width=".966" stroke-linecap="round" d="M666.063 476.382l79.785-111.087 2.604 1.87-79.785 111.087z"/><path d="M710.656 421.774a3.399 3.399 0 1 1-6.798 0 3.399 3.399 0 0 1 6.798 0z" fill="#fc0" stroke="#000" stroke-linecap="round" stroke-width="1.1703"/><g stroke="navy"><path d="M714.94 314.494a7.056 7.056 0 1 1-14.112 0 7.056 7.056 0 0 1 14.112 0z" fill="#fff" stroke-width="2.1167100000000003" stroke-linecap="round"/><text y="812.313" x="777.923" style="line-height:125%" font-size="24.116" font-weight="400" letter-spacing="0" word-spacing="0" stroke-width=".603" font-family="Sans" transform="matrix(1.1703 0 0 1.1703 -207.61 -628.423)"><tspan y="812.313" x="777.923">-</tspan></text></g><g stroke="navy"><path d="M714.696 291.044a7.056 7.056 0 1 1-14.112 0 7.056 7.056 0 0 1 14.112 0z" fill="#fff" stroke-width="2.1167100000000003" stroke-linecap="round"/><text style="line-height:125%" x="787.059" y="783.689" font-size="24.116" font-weight="400" letter-spacing="0" word-spacing="0" stroke-width=".603" font-family="Sans" transform="matrix(1.1703 0 0 1.1703 -218.545 -618.374)"><tspan x="787.059" y="783.689">-</tspan></text></g><g stroke="navy"><path d="M715.574 262.118a7.056 7.056 0 1 1-14.112 0 7.056 7.056 0 0 1 14.112 0z" fill="#fff" stroke-width="2.1167100000000003" stroke-linecap="round"/><text y="833.956" x="829.731" style="line-height:125%" font-size="24.116" font-weight="400" letter-spacing="0" word-spacing="0" stroke-width=".603" font-family="Sans" transform="matrix(1.1703 0 0 1.1703 -267.605 -706.127)"><tspan y="833.956" x="829.731">-</tspan></text></g><g stroke="maroon"><path d="M701.14 404.354a7.056 7.056 0 1 1-14.112 0 7.056 7.056 0 0 1 14.111 0z" fill="#fff" stroke-width="2.1167100000000003" stroke-linecap="round"/><text y="684.519" x="368.906" style="line-height:125%" font-size="10.932" font-weight="400" letter-spacing="0" word-spacing="0" stroke-width=".273" font-family="Sans" transform="matrix(1.1703 0 0 1.1703 256.994 -392.726)"><tspan y="684.519" x="368.906">+</tspan></text></g><g stroke="maroon"><path d="M728.477 449.697a7.056 7.056 0 1 1-14.111 0 7.056 7.056 0 0 1 14.111 0z" fill="#fff" stroke-width="2.1167100000000003" stroke-linecap="round"/><text y="684.519" x="368.906" style="line-height:125%" font-size="10.932" font-weight="400" letter-spacing="0" word-spacing="0" stroke-width=".273" font-family="Sans" transform="matrix(1.1703 0 0 1.1703 284.332 -347.383)"><tspan y="684.519" x="368.906">+</tspan></text></g><g stroke="maroon"><path d="M727.59 486.344a7.056 7.056 0 1 1-14.111 0 7.056 7.056 0 0 1 14.111 0z" fill="#fff" stroke-width="2.1167100000000003" stroke-linecap="round"/><text y="684.519" x="368.906" style="line-height:125%" font-size="10.932" font-weight="400" letter-spacing="0" word-spacing="0" stroke-width=".273" font-family="Sans" transform="matrix(1.1703 0 0 1.1703 283.446 -310.736)"><tspan y="684.519" x="368.906">+</tspan></text></g><g stroke="maroon"><path d="M700.991 376.721a7.056 7.056 0 1 1-14.111 0 7.056 7.056 0 0 1 14.111 0z" fill="#fff" stroke-width="2.1167100000000003" stroke-linecap="round"/><text y="684.519" x="368.906" style="line-height:125%" font-size="10.932" font-weight="400" letter-spacing="0" word-spacing="0" stroke-width=".273" font-family="Sans" transform="matrix(1.1703 0 0 1.1703 256.847 -420.36)"><tspan y="684.519" x="368.906">+</tspan></text></g><g stroke="maroon"><path d="M734.388 393.272a7.056 7.056 0 1 1-14.112 0 7.056 7.056 0 0 1 14.112 0z" fill="#fff" stroke-width="2.1167100000000003" stroke-linecap="round"/><text y="684.519" x="368.906" style="line-height:125%" font-size="10.932" font-weight="400" letter-spacing="0" word-spacing="0" stroke-width=".273" font-family="Sans" transform="matrix(1.1703 0 0 1.1703 290.243 -403.809)"><tspan y="684.519" x="368.906">+</tspan></text></g><g stroke="maroon"><path d="M746.133 378.051a7.056 7.056 0 1 1-14.111 0 7.056 7.056 0 0 1 14.111 0z" fill="#fff" stroke-width="2.1167100000000003" stroke-linecap="round"/><text y="684.519" x="368.906" style="line-height:125%" font-size="10.932" font-weight="400" letter-spacing="0" word-spacing="0" stroke-width=".273" font-family="Sans" transform="matrix(1.1703 0 0 1.1703 301.989 -419.03)"><tspan y="684.519" x="368.906">+</tspan></text></g><g stroke="maroon"><path d="M756.282 363.102a7.056 7.056 0 1 1-14.111 0 7.056 7.056 0 0 1 14.111 0z" fill="#fff" stroke-width="2.1167100000000003" stroke-linecap="round"/><text y="684.519" x="368.906" style="line-height:125%" font-size="10.932" font-weight="400" letter-spacing="0" word-spacing="0" stroke-width=".273" font-family="Sans" transform="matrix(1.1703 0 0 1.1703 312.137 -433.978)"><tspan y="684.519" x="368.906">+</tspan></text></g><g stroke="maroon"><path d="M673.95 477.65a7.056 7.056 0 1 1-14.112 0 7.056 7.056 0 0 1 14.111 0z" fill="#fff" stroke-width="2.1167100000000003" stroke-linecap="round"/><text y="684.519" x="368.906" style="line-height:125%" font-size="10.932" font-weight="400" letter-spacing="0" word-spacing="0" stroke-width=".273" font-family="Sans" transform="matrix(1.1703 0 0 1.1703 229.804 -319.43)"><tspan y="684.519" x="368.906">+</tspan></text></g><g stroke="maroon"><path d="M684.364 463.954a7.056 7.056 0 1 1-14.11 0 7.056 7.056 0 0 1 14.11 0z" fill="#fff" stroke-width="2.1167100000000003" stroke-linecap="round"/><text y="684.519" x="368.906" style="line-height:125%" font-size="10.932" font-weight="400" letter-spacing="0" word-spacing="0" stroke-width=".273" font-family="Sans" transform="matrix(1.1703 0 0 1.1703 240.22 -333.126)"><tspan y="684.519" x="368.906">+</tspan></text></g><g stroke="maroon"><path d="M694.37 449.496a7.056 7.056 0 1 1-14.11 0 7.056 7.056 0 0 1 14.11 0z" fill="#fff" stroke-width="2.1167100000000003" stroke-linecap="round"/><text y="684.519" x="368.906" style="line-height:125%" font-size="10.932" font-weight="400" letter-spacing="0" word-spacing="0" stroke-width=".273" font-family="Sans" transform="matrix(1.1703 0 0 1.1703 250.226 -347.584)"><tspan y="684.519" x="368.906">+</tspan></text></g><g stroke="navy"><path d="M679.813 262.118a7.056 7.056 0 1 1-14.111 0 7.056 7.056 0 0 1 14.11 0z" fill="#fff" stroke-width="2.1167100000000003" stroke-linecap="round"/><text style="line-height:125%" x="829.731" y="833.956" font-size="24.116" font-weight="400" letter-spacing="0" word-spacing="0" stroke-width=".603" font-family="Sans" transform="matrix(1.1703 0 0 1.1703 -303.366 -706.127)"><tspan x="829.731" y="833.956">-</tspan></text></g><g stroke="navy"><path d="M750.744 262.118a7.056 7.056 0 1 1-14.112 0 7.056 7.056 0 0 1 14.112 0z" fill="#fff" stroke-width="2.1167100000000003" stroke-linecap="round"/><text style="line-height:125%" x="829.731" y="833.956" font-size="24.116" font-weight="400" letter-spacing="0" word-spacing="0" stroke-width=".603" font-family="Sans" transform="matrix(1.1703 0 0 1.1703 -232.435 -706.127)"><tspan x="829.731" y="833.956">-</tspan></text></g><g stroke="navy"><path d="M737 279.407a7.056 7.056 0 1 1-14.11 0 7.056 7.056 0 0 1 14.11 0z" fill="#fff" stroke-width="2.1167100000000003" stroke-linecap="round"/><text y="833.956" x="829.731" style="line-height:125%" font-size="24.116" font-weight="400" letter-spacing="0" word-spacing="0" stroke-width=".603" font-family="Sans" transform="matrix(1.1703 0 0 1.1703 -246.178 -688.838)"><tspan y="833.956" x="829.731">-</tspan></text></g><g stroke="navy"><path d="M692.817 279.407a7.056 7.056 0 1 1-14.112 0 7.056 7.056 0 0 1 14.112 0z" fill="#fff" stroke-width="2.1167100000000003" stroke-linecap="round"/><text style="line-height:125%" x="829.731" y="833.956" font-size="24.116" font-weight="400" letter-spacing="0" word-spacing="0" stroke-width=".603" font-family="Sans" transform="matrix(1.1703 0 0 1.1703 -290.362 -688.838)"><tspan x="829.731" y="833.956">-</tspan></text></g><path d="M526.181 139.566v464.963" fill="none" stroke="#4d4d4d" stroke-linecap="round"/></svg>