<svg xmlns="http://www.w3.org/2000/svg" width="1052.362" height="744.094"><title>Elektroskop</title><path fill="#fff" stroke="#fff" stroke-width="2.803" stroke-linecap="round" d="M294.758 201.313h462.847v324.325H294.758z"/><path d="M512.134 463.927v27.719H428.76v16.094h194.844v-16.094h-83.375v-27.719z" fill="#333" stroke="#1a1a1a" stroke-width="2" stroke-linecap="round"/><path d="M615.017 375.632c0 49.063-39.773 88.836-88.836 88.836-49.063 0-88.836-39.773-88.836-88.836 0-49.063 39.773-88.836 88.836-88.836 49.063 0 88.836 39.773 88.836 88.836z" fill="none" stroke="gray" stroke-width="5.00036679" stroke-linecap="round"/><path d="M518.072 253.244v15.028l-6.25 6.192v20.725H540.54v-20.725l-6.25-6.192v-15.028h-7.954z" fill="#333" stroke="#1a1a1a" stroke-width="2"/><path d="M487.962 244.288v3.937h34.563V298.1c-3.268 3.399-8.563 6.772-11.813 10.188v63.75c6.377 3.867 16.767 7.714 22.938 11.906v65.594h8v-69.906c-6.244-4.14-16.49-8.275-22.938-12.094v-56.031c3.273-3.395 8.53-6.804 11.813-10.188v-53.094H564.4v-3.937z" style="text-indent:0;text-align:start;line-height:normal;text-transform:none;block-progression:tb;marker:none;-inkscape-font-specification:Sans" font-weight="400" color="#000" fill="gray" stroke="#000" overflow="visible" font-family="Sans"/><path fill="#b3b3b3" stroke="#000" stroke-width=".825" stroke-linecap="round" d="M524.812 434.065V317.198h2.739v116.867z"/><path d="M529.085 375.632a2.904 2.904 0 1 1-5.808 0 2.904 2.904 0 0 1 5.808 0z" fill="#fc0" stroke="#000" stroke-linecap="round"/></svg>