<svg xmlns="http://www.w3.org/2000/svg" width="1052.362" height="744.094"><title>Elementarmagnete</title><path fill="#fff" stroke="#fff" stroke-width="3.03" stroke-linecap="round" d="M38.91 198.478h974.542v347.138H38.91z"/><g stroke="#1a1a1a" stroke-width="1.503" stroke-linecap="round"><path d="M241.29 293.374l-41.986 24.089.033 48.414 41.956-24.205z" fill="#f55" stroke-width=".9999458999999999"/><path d="M283.275 269.285l-41.986 24.089.007 48.298 41.985-24.089z" fill="#59f" stroke-width=".9999458999999999"/><path d="M283.246 269.17l-41.957 24.204-29.553-17.728 42.473-24.522z" fill="#37c837" stroke-width=".9999458999999999"/><path d="M241.29 293.374l-41.957 24.204-29.554-17.727 41.957-24.205z" fill="#f55" stroke-width=".9999458999999999"/><path d="M199.304 365.754v-48.291l-29.879-17.25v48.29z" fill="#f55" stroke-width=".9999458999999999"/></g><g stroke="#1a1a1a" stroke-width="1.634" stroke-linecap="round"><path d="M1697.955 1595.535l63.107 36.207-.049 72.77-63.064-36.38z" fill="#f55" transform="matrix(-.30597 -.5298 .52996 -.30588 -78.032 1708.405)"/><path d="M1634.848 1559.327l63.107 36.208-.01 72.596-63.107-36.207z" fill="#37c837" transform="matrix(-.30597 -.5298 .52996 -.30588 -78.032 1708.405)"/><path d="M959.435 1775.302l72.806-.025 25.147-45.286H983.67z" fill="#37c837" transform="matrix(0 -.61175 .61194 0 -838.362 952.279)"/><path d="M1032.24 1775.277l72.807-.025 25.146-45.286-72.805.025z" fill="#f55" transform="matrix(0 -.61175 .61194 0 -838.362 952.279)"/><path d="M1761.062 1704.328v-72.586l44.91-25.929v72.586z" fill="#f55" transform="matrix(-.30597 -.5298 .52996 -.30588 -78.032 1708.405)"/></g><g stroke="#1a1a1a" stroke-width="1.503" stroke-linecap="round"><path d="M169.765 344.957l41.985 24.089-.032 48.414-41.957-24.205z" fill="#f55" stroke-width=".9999458999999999"/><path d="M127.78 320.868l41.985 24.089-.007 48.298-41.985-24.088zM127.808 320.752l41.957 24.205 29.553-17.728-42.473-24.521z" fill="#37c837" stroke-width=".9999458999999999"/><path d="M169.765 344.957l41.957 24.204 29.553-17.727-41.957-24.205z" fill="#f55" stroke-width=".9999458999999999"/><path d="M211.75 417.337v-48.291l29.879-17.25v48.29z" fill="#f55" stroke-width=".9999458999999999"/></g><g stroke="#1a1a1a" stroke-width="1.709" stroke-linecap="round"><path d="M1697.955 1595.535l63.107 36.207-.049 72.77-63.064-36.38z" fill="#37c837" transform="matrix(-.29273 -.50655 .50702 -.29246 -184.394 1696.597)"/><path d="M1634.848 1559.327l63.107 36.208-.01 72.596-63.107-36.207z" fill="#f55" transform="matrix(-.29273 -.50655 .50702 -.29246 -184.394 1696.597)"/><g stroke-width="1.709"><path d="M959.435 1775.302l72.806-.025 25.147-45.286H983.67z" fill="#f55" transform="matrix(0 -.58492 .58545 0 -911.809 973.64)"/><path d="M1032.24 1775.277l72.807-.025 25.146-45.286-72.805.025z" fill="#37c837" transform="matrix(0 -.58492 .58545 0 -911.809 973.64)"/></g><path d="M1761.062 1704.328v-72.586l44.91-25.929v72.586z" fill="#37c837" transform="matrix(-.29273 -.50655 .50702 -.29246 -184.394 1696.597)"/></g><g stroke="#1a1a1a" stroke-width="1.503" stroke-linecap="round"><path d="M282.744 351.752l-41.985 24.089.032 48.414 41.957-24.205z" fill="#37c837" stroke-width=".9999458999999999"/><path d="M324.73 327.663l-41.986 24.089.007 48.298 41.985-24.089zM324.7 327.547l-41.956 24.205-29.553-17.728 42.473-24.521z" fill="#f55" stroke-width=".9999458999999999"/><path d="M282.744 351.752l-41.957 24.204-29.553-17.727 41.957-24.205z" fill="#37c837" stroke-width=".9999458999999999"/><path d="M240.759 424.132V375.84l-29.879-17.25v48.29z" fill="#37c837" stroke-width=".9999458999999999"/></g><g stroke="#1a1a1a" stroke-width="1.709" stroke-linecap="round"><path d="M1697.955 1595.535l63.107 36.207-.049 72.77-63.064-36.38z" fill="#37c837" transform="matrix(.29273 -.50655 -.50702 -.29246 660.994 1682.254)"/><path d="M1634.848 1559.327l63.107 36.208-.01 72.596-63.107-36.207z" fill="#f55" transform="matrix(.29273 -.50655 -.50702 -.29246 660.994 1682.254)"/><g stroke-width="1.709"><path d="M959.435 1775.302l72.806-.025 25.147-45.286H983.67z" fill="#f55" transform="matrix(0 -.58492 -.58545 0 1388.408 959.296)"/><path d="M1032.24 1775.277l72.807-.025 25.146-45.286-72.805.025z" fill="#37c837" transform="matrix(0 -.58492 -.58545 0 1388.408 959.296)"/></g><path d="M1761.062 1704.328v-72.586l44.91-25.929v72.586z" fill="#37c837" transform="matrix(.29273 -.50655 -.50702 -.29246 660.994 1682.254)"/></g><g stroke="#1a1a1a" stroke-width="1.76" stroke-linecap="round"><path d="M312.23 387.06l-35.75 20.77-35.798-20.7 35.823-20.7z" fill="#f55" stroke-width="1.0001552"/><path d="M347.98 366.291l-35.75 20.77-35.724-20.632 35.75-20.77z" fill="#37c837" stroke-width="1.0001552"/><path d="M348.054 366.362L312.23 387.06l.491 29.432 36.279-20.946z" fill="#37c837" stroke-width="1.0001552"/><path d="M312.23 387.06l-35.823 20.7.492 29.432 35.823-20.7z" fill="#f55" stroke-width="1.0001552"/><path d="M240.759 387.206l35.722 20.624v29.47l-35.722-20.625z" fill="#f55" stroke-width="1.0001552"/></g><g stroke="#1a1a1a" stroke-width="1.739" stroke-linecap="round"><path d="M1697.955 1595.535l63.107 36.207-.049 72.77-63.064-36.38z" fill="#37c837" transform="matrix(.28752 .49813 .498 -.2876 -937.945 29.462)"/><path d="M1634.848 1559.327l63.107 36.208-.01 72.596-63.107-36.207z" fill="#f55" transform="matrix(.28752 .49813 .498 -.2876 -937.945 29.462)"/><g stroke-width="1.739"><path d="M959.435 1775.302l72.806-.025 25.147-45.286H983.67z" fill="#f55" transform="matrix(.498 .2876 .28752 -.49813 -679.652 1003.842)"/><path d="M1032.24 1775.277l72.807-.025 25.146-45.286-72.805.025z" fill="#37c837" transform="matrix(.498 .2876 .28752 -.49813 -679.652 1003.842)"/></g><path d="M1761.062 1704.328v-72.586l44.91-25.929v72.586z" fill="#37c837" transform="matrix(.28752 .49813 .498 -.2876 -937.945 29.462)"/></g><g stroke="#1a1a1a" stroke-width="1.503" stroke-linecap="round"><path d="M168.792 405.45l-41.854 24.316-41.912-24.235 41.94-24.233z" fill="#f55" stroke-width=".9999458999999999"/><path d="M210.646 381.135l-41.854 24.315-41.824-24.155 41.854-24.315z" fill="#37c837" stroke-width=".9999458999999999"/><path d="M210.732 381.217l-41.94 24.233.576 34.458 42.473-24.522z" fill="#59f" stroke-width=".9999458999999999"/><path d="M168.792 405.45l-41.94 24.234.576 34.457 41.94-24.233z" fill="#f55" stroke-width=".9999458999999999"/><path d="M85.117 405.62l41.821 24.146v34.501l-41.821-24.145z" fill="#f55" stroke-width=".9999458999999999"/></g><g stroke="#1a1a1a" stroke-width="1.503" stroke-linecap="round"><path d="M198.802 408l-41.985 24.09.032 48.414 41.957-24.205z" fill="#37c837" stroke-width=".9999458999999999"/><path d="M240.787 383.912l-41.985 24.089.007 48.298 41.985-24.088zM240.759 383.796l-41.957 24.205-29.553-17.727 42.473-24.522z" fill="#f55" stroke-width=".9999458999999999"/><path d="M198.802 408l-41.957 24.205-29.553-17.727 41.957-24.204z" fill="#37c837" stroke-width=".9999458999999999"/><path d="M156.817 480.381V432.09l-29.879-17.25v48.29z" fill="#37c837" stroke-width=".9999458999999999"/></g><g stroke="#1a1a1a" stroke-width="1.658" stroke-linecap="round"><path d="M306.054 452.554l37.937 22.04 37.989-21.967-38.015-21.965z" fill="#f55" stroke-width=".9998237399999998"/><path d="M268.117 430.514l37.937 22.04 37.91-21.894-37.937-22.04z" fill="#37c837" stroke-width=".9998237399999998"/><path d="M268.04 430.589l38.014 21.965-.522 31.233-38.498-22.227z" fill="#59f" stroke-width=".9998237399999998"/><path d="M306.054 452.554l38.015 21.965-.522 31.233-38.015-21.965z" fill="#f55" stroke-width=".9998237399999998"/><path d="M381.898 452.708l-37.907 21.886v31.272l37.907-21.886z" fill="#f55" stroke-width=".9998237399999998"/></g><g stroke="#1a1a1a" stroke-width="1.503" stroke-linecap="round"><path d="M253.197 424.597l41.986 24.089-.033 48.414-41.957-24.205z" fill="#f55" stroke-width=".9999458999999999"/><path d="M211.212 400.508l41.985 24.089-.006 48.298-41.986-24.088zM211.24 400.392l41.957 24.205 29.554-17.727-42.474-24.522z" fill="#37c837" stroke-width=".9999458999999999"/><path d="M253.197 424.597l41.957 24.204 29.553-17.727-41.956-24.204z" fill="#f55" stroke-width=".9999458999999999"/><path d="M295.183 496.977v-48.291l29.878-17.25v48.29z" fill="#f55" stroke-width=".9999458999999999"/></g><g stroke="#1a1a1a" stroke-width="1.739" stroke-linecap="round"><path d="M1697.955 1595.535l63.107 36.207-.049 72.77-63.064-36.38z" fill="#37c837" transform="matrix(.28752 .49813 .498 -.2876 -1065.86 66.309)"/><path d="M1634.848 1559.327l63.107 36.208-.01 72.596-63.107-36.207z" fill="#f55" transform="matrix(.28752 .49813 .498 -.2876 -1065.86 66.309)"/><g stroke-width="1.739"><path d="M959.435 1775.302l72.806-.025 25.147-45.286H983.67z" fill="#f55" transform="matrix(.498 .2876 .28752 -.49813 -807.568 1040.688)"/><path d="M1032.24 1775.277l72.807-.025 25.146-45.286-72.805.025z" fill="#37c837" transform="matrix(.498 .2876 .28752 -.49813 -807.568 1040.688)"/></g><path d="M1761.062 1704.328v-72.586l44.91-25.929v72.586z" fill="#37c837" transform="matrix(.28752 .49813 .498 -.2876 -1065.86 66.309)"/></g><g stroke="#1a1a1a" stroke-width="1.704" stroke-linecap="round"><path d="M1697.955 1595.535l63.107 36.207-.049 72.77-63.064-36.38z" fill="#59f" transform="matrix(.58624 0 0 .58715 -129.574 -609.842)"/><path d="M1634.848 1559.327l63.107 36.208-.01 72.596-63.107-36.207z" fill="#f55" transform="matrix(.58624 0 0 .58715 -129.574 -609.842)"/><path d="M959.435 1775.302l72.806-.025 25.147-45.286H983.67z" fill="#f55" transform="scale(.58624 .58715) rotate(30 3528.115 1995.883)"/><path d="M1032.24 1775.277l72.807-.025 25.146-45.286-72.805.025z" fill="#37c837" transform="scale(.58624 .58715) rotate(30 3528.115 1995.883)"/><path d="M1761.062 1704.328v-72.586l44.91-25.929v72.586z" fill="#37c837" transform="matrix(.58624 0 0 .58715 -129.574 -609.842)"/></g><g stroke="#1a1a1a" stroke-width="1.739" stroke-linecap="round"><path d="M-894.46 1121.502l63.106 36.207-.049 72.77-63.064-36.38z" fill="#37c837" transform="matrix(.28752 .49813 .498 -.2876 441.952 1066.419)"/><path d="M-957.568 1085.294l63.107 36.208-.01 72.596-63.107-36.207z" fill="#f55" transform="matrix(.28752 .49813 .498 -.2876 441.952 1066.419)"/><g stroke-width="1.739"><path d="M959.435 1775.302l72.806-.025 25.147-45.286H983.67z" fill="#f55" transform="matrix(.498 .2876 .28752 -.49813 -281.211 885.774)"/><path d="M1032.24 1775.277l72.807-.025 25.146-45.286-72.805.025z" fill="#59f" transform="matrix(.498 .2876 .28752 -.49813 -281.211 885.774)"/></g><path d="M-831.354 1230.295v-72.586l44.91-25.929v72.586z" fill="#59f" transform="matrix(.28752 .49813 .498 -.2876 441.952 1066.419)"/></g><g stroke="#1a1a1a" stroke-width="1.503" stroke-linecap="round"><path d="M708.691 306.065l41.986 24.09-.033 48.413-41.957-24.204z" fill="#37c837" stroke-width=".9999458999999999"/><path d="M666.706 281.976l41.985 24.09-.006 48.298-41.986-24.089zM666.735 281.86l41.956 24.205 29.553-17.727-42.473-24.522z" fill="#f55" stroke-width=".9999458999999999"/><path d="M708.691 306.065l41.957 24.205 29.553-17.728-41.957-24.204z" fill="#37c837" stroke-width=".9999458999999999"/><path d="M750.676 378.446v-48.292l29.88-17.25v48.291z" fill="#59f" stroke-width=".9999458999999999"/></g><g stroke="#1a1a1a" stroke-width="1.658" stroke-linecap="round"><path d="M669.874 360.086l37.936 22.04 37.99-21.967-38.015-21.965z" fill="#37c837" stroke-width=".9998237399999998"/><path d="M631.937 338.046l37.937 22.04 37.91-21.894-37.937-22.04zM631.859 338.12l38.015 21.966-.522 31.232-38.498-22.226z" fill="#f55" stroke-width=".9998237399999998"/><path d="M669.874 360.086l38.014 21.965-.522 31.232-38.014-21.965z" fill="#37c837" stroke-width=".9998237399999998"/><path d="M745.718 360.24l-37.908 21.886v31.271l37.908-21.885z" fill="#59f" stroke-width=".9998237399999998"/></g><g stroke="#1a1a1a" stroke-width="1.503" stroke-linecap="round"><path d="M830.536 319.727l41.985 24.09-.033 48.413-41.956-24.204z" fill="#59f" stroke-width=".9999458999999999"/><path d="M788.55 295.638l41.986 24.09-.007 48.298-41.985-24.09zM788.58 295.523l41.956 24.204L860.089 302l-42.473-24.522z" fill="#f55" stroke-width=".9999458999999999"/><path d="M830.536 319.727l41.956 24.205 29.554-17.728L860.089 302z" fill="#37c837" stroke-width=".9999458999999999"/><path d="M872.521 392.107v-48.29l29.879-17.251v48.291z" fill="#37c837" stroke-width=".9999458999999999"/></g><g stroke="#1a1a1a" stroke-width="1.739" stroke-linecap="round"><path d="M1697.955 1595.535l63.107 36.207-.049 72.77-63.064-36.38z" fill="#37c837" transform="matrix(.28752 .49813 .498 -.2876 -383.6 -3.606)"/><path d="M1634.848 1559.327l63.107 36.208-.01 72.596-63.107-36.207z" fill="#f55" transform="matrix(.28752 .49813 .498 -.2876 -383.6 -3.606)"/><g stroke-width="1.739"><path d="M959.435 1775.302l72.806-.025 25.147-45.286H983.67z" fill="#f55" transform="matrix(.498 .2876 .28752 -.49813 -125.307 970.774)"/><path d="M1032.24 1775.277l72.807-.025 25.146-45.286-72.805.025z" fill="#59f" transform="matrix(.498 .2876 .28752 -.49813 -125.307 970.774)"/></g><path d="M1761.062 1704.328v-72.586l44.91-25.929v72.586z" fill="#37c837" transform="matrix(.28752 .49813 .498 -.2876 -383.6 -3.606)"/></g><g stroke="#1a1a1a" stroke-width="1.503" stroke-linecap="round"><path d="M801.499 329.816l41.985 24.09-.032 48.413-41.957-24.204z" fill="#37c837" stroke-width=".9999458999999999"/><path d="M759.514 305.727l41.985 24.09-.007 48.298-41.985-24.09zM759.542 305.612l41.957 24.204 29.553-17.727-42.473-24.522z" fill="#f55" stroke-width=".9999458999999999"/><path d="M801.499 329.816l41.957 24.205 29.553-17.728-41.957-24.204z" fill="#37c837" stroke-width=".9999458999999999"/><path d="M843.484 402.196v-48.29l29.879-17.251v48.29z" fill="#37c837" stroke-width=".9999458999999999"/></g><g stroke="#1a1a1a" stroke-width="1.503" stroke-linecap="round"><path d="M885.441 386.065l41.985 24.09-.032 48.413-41.957-24.204z" fill="#37c837" stroke-width=".9999458999999999"/><path d="M843.456 361.976l41.985 24.09-.007 48.298-41.985-24.089zM843.484 361.86l41.957 24.205 29.553-17.727-42.473-24.522z" fill="#f55" stroke-width=".9999458999999999"/><path d="M885.44 386.065l41.958 24.205 29.553-17.728-41.957-24.204z" fill="#37c837" stroke-width=".9999458999999999"/><path d="M927.426 458.445v-48.29l29.879-17.251v48.291z" fill="#37c837" stroke-width=".9999458999999999"/></g><g stroke="#1a1a1a" stroke-width="1.503" stroke-linecap="round"><path d="M772.204 362.477l41.985 24.089-.032 48.414-41.957-24.204z" fill="#37c837" stroke-width=".9999458999999999"/><path d="M730.219 338.388l41.985 24.09-.007 48.298-41.985-24.09zM730.247 338.273l41.957 24.204 29.553-17.727-42.473-24.522z" fill="#f55" stroke-width=".9999458999999999"/><path d="M772.204 362.477l41.957 24.205 29.553-17.728-41.957-24.204z" fill="#37c837" stroke-width=".9999458999999999"/><path d="M814.19 434.857v-48.291l29.878-17.25v48.29z" fill="#59f" stroke-width=".9999458999999999"/></g><g stroke="#1a1a1a" stroke-width="1.739" stroke-linecap="round"><path d="M1697.955 1595.535l63.107 36.207-.049 72.77-63.064-36.38z" fill="#37c837" transform="matrix(.28752 .49813 .498 -.2876 -549.662 22.241)"/><path d="M1634.848 1559.327l63.107 36.208-.01 72.596-63.107-36.207z" fill="#f55" transform="matrix(.28752 .49813 .498 -.2876 -549.662 22.241)"/><g stroke-width="1.739"><path d="M959.435 1775.302l72.806-.025 25.147-45.286H983.67z" fill="#f55" transform="matrix(.498 .2876 .28752 -.49813 -291.37 996.62)"/><path d="M1032.24 1775.277l72.807-.025 25.146-45.286-72.805.025z" fill="#37c837" transform="matrix(.498 .2876 .28752 -.49813 -291.37 996.62)"/></g><path d="M1761.062 1704.328v-72.586l44.91-25.929v72.586z" fill="#37c837" transform="matrix(.28752 .49813 .498 -.2876 -549.662 22.241)"/></g><g stroke="#1a1a1a" stroke-width="1.503" stroke-linecap="round"><path d="M856.376 411.045l41.985 24.089-.033 48.414-41.956-24.205z" fill="#37c837" stroke-width=".9999458999999999"/><path d="M814.39 386.956l41.986 24.089-.007 48.298-41.985-24.088zM814.419 386.84l41.957 24.205 29.553-17.727-42.473-24.522z" fill="#f55" stroke-width=".9999458999999999"/><path d="M856.376 411.045l41.956 24.204 29.554-17.727-41.957-24.204z" fill="#37c837" stroke-width=".9999458999999999"/><path d="M898.36 483.425v-48.291l29.88-17.25v48.29z" fill="#37c837" stroke-width=".9999458999999999"/></g><g stroke="#1a1a1a" stroke-width="1.739" stroke-linecap="round"><path d="M-894.46 1121.502l63.106 36.207-.049 72.77-63.064-36.38z" fill="#37c837" transform="matrix(.28752 .49813 .498 -.2876 515.915 1204.916)"/><path d="M-957.568 1085.294l63.107 36.208-.01 72.596-63.107-36.207z" fill="#f55" transform="matrix(.28752 .49813 .498 -.2876 515.915 1204.916)"/><g stroke-width="1.739"><path d="M959.435 1775.302l72.806-.025 25.147-45.286H983.67z" fill="#f55" transform="matrix(.498 .2876 .28752 -.49813 -207.248 1024.272)"/><path d="M1032.24 1775.277l72.807-.025 25.146-45.286-72.805.025z" fill="#37c837" transform="matrix(.498 .2876 .28752 -.49813 -207.248 1024.272)"/></g><path d="M-831.354 1230.295v-72.586l44.91-25.929v72.586z" fill="#37c837" transform="matrix(.28752 .49813 .498 -.2876 515.915 1204.916)"/></g><path d="M526.181 263.09v217.915" fill="none" stroke="gray"/></svg>