<svg xmlns="http://www.w3.org/2000/svg" width="1052.362" height="744.094"><title>Elektrische Feldlinien einzelner Ladungen</title><defs><marker orient="auto" id="a" overflow="visible"><path d="M8.719 4.034L-2.207.016 8.719-4.002c-1.746 2.372-1.736 5.618 0 8.036z" transform="rotate(180) scale(.6)" fill-rule="evenodd" stroke-width=".625" stroke-linejoin="round"/></marker></defs><path style="marker:none" color="#000" fill="#fff" stroke="#fff" stroke-width="2" stroke-linecap="round" stroke-linejoin="round" overflow="visible" d="M36.318 69.903h979.725v604.29H36.318z"/><path style="marker:none" d="M213.41 680.315h125.843" color="#000" fill="none" stroke="purple" stroke-width="2" stroke-linecap="round" stroke-linejoin="round" marker-end="url(#a)" overflow="visible" transform="translate(0 -308.268)"/><g stroke="navy"><path style="marker:none" d="M385.965 372.047c0 12.9-10.457 23.356-23.356 23.356-12.9 0-23.356-10.457-23.356-23.356 0-12.899 10.456-23.356 23.356-23.356 12.899 0 23.356 10.457 23.356 23.356z" color="#000" fill="none" stroke-width="1.9999091300000003" stroke-linecap="round" stroke-linejoin="round" overflow="visible"/><text transform="matrix(-1.0001 0 0 .9999 14.512 -327.006)" style="line-height:125%" x="-361.815" y="720.2" font-size="76.233" font-weight="400" letter-spacing="0" word-spacing="0" fill="navy" stroke-width=".707" font-family="Sans"><tspan x="-361.815" y="720.2">-</tspan></text></g><g stroke="maroon"><path d="M213.41 372.047c0 12.9-10.457 23.356-23.356 23.356-12.899 0-23.356-10.457-23.356-23.356 0-12.899 10.457-23.356 23.356-23.356 12.9 0 23.356 10.457 23.356 23.356z" style="marker:none" color="#000" fill="none" stroke-width="1.9999091300000003" stroke-linecap="round" stroke-linejoin="round" overflow="visible"/><text transform="matrix(-1.0001 0 0 .9999 14.512 -327.006)" style="line-height:125%" x="-191.494" y="711.074" font-size="38.121" font-weight="400" letter-spacing="0" word-spacing="0" fill="maroon" font-family="Sans"><tspan x="-191.494" y="711.074">+</tspan></text></g><path d="M210.29 668.634c54.492-31.46 77.614-31.46 132.105 0M201.749 660.078c31.46-54.49 117.73-54.49 149.19 0M190.054 656.959c.02-125.862 172.555-125.842 172.553 0M470.168 680.315h-82.555M178.34 700.513c-188.764 326.948 384.747 326.948 195.984 0M210.272 691.99c54.49 31.46 77.612 31.46 132.104 0M201.716 700.532c31.46 54.491 117.73 54.491 149.19 0M190.054 703.67c.02 125.862 172.555 125.843 172.553 0M178.34 660.078c-188.764-326.947 384.747-326.947 195.984 0M166.698 680.315H83.78" style="marker:none" color="#000" fill="none" stroke="purple" stroke-width="2" stroke-linecap="round" stroke-linejoin="round" marker-end="url(#a)" overflow="visible" transform="translate(0 -308.268)"/><g transform="translate(15.04 -327.006)" stroke="purple" color="#000" fill="none" stroke-width="2" stroke-linecap="round" stroke-linejoin="round" marker-end="url(#a)"><path d="M455.128 761.74a6098.719 6098.719 0 0 0-86.78-51.045M155.52 710.728a6098.718 6098.718 0 0 1-86.78 51.045" style="marker:none" overflow="visible"/></g><g transform="matrix(1 0 0 -1 15.04 1071.095)" stroke="purple" color="#000" fill="none" stroke-width="2" stroke-linecap="round" stroke-linejoin="round" marker-end="url(#a)"><path style="marker:none" d="M455.128 761.74a6098.719 6098.719 0 0 0-86.78-51.045M155.52 710.728a6098.718 6098.718 0 0 1-86.78 51.045" overflow="visible"/></g><g stroke="maroon"><path style="marker:none" d="M712.628 372.047c0 12.9-10.457 23.356-23.356 23.356-12.899 0-23.356-10.457-23.356-23.356 0-12.899 10.457-23.356 23.356-23.356 12.9 0 23.356 10.457 23.356 23.356z" color="#000" fill="none" stroke-width="1.9999091300000003" stroke-linecap="round" stroke-linejoin="round" overflow="visible"/><text y="711.074" x="-191.494" style="line-height:125%" transform="matrix(-1.0001 0 0 .9999 513.73 -327.006)" font-size="38.121" font-weight="400" letter-spacing="0" word-spacing="0" fill="maroon" font-family="Sans"><tspan y="711.074" x="-191.494">+</tspan></text></g><g stroke="maroon"><path d="M885.182 372.047c0 12.9-10.456 23.356-23.356 23.356-12.899 0-23.356-10.457-23.356-23.356 0-12.899 10.457-23.356 23.356-23.356 12.9 0 23.356 10.457 23.356 23.356z" style="marker:none" color="#000" fill="none" stroke-width="1.9999091300000003" stroke-linecap="round" stroke-linejoin="round" overflow="visible"/><text transform="matrix(-1.0001 0 0 .9999 686.284 -327.006)" style="line-height:125%" x="-191.494" y="711.074" font-size="38.121" font-weight="400" letter-spacing="0" word-spacing="0" fill="maroon" font-family="Sans"><tspan x="-191.494" y="711.074">+</tspan></text></g><path style="marker:none" d="M712.628 680.315c63.016.09 55.62-195.821 55.62-266.064M689.272 656.959V414.932M701.072 660.154c24.055-57 18.872-189.157 18.872-245.222M709.269 668.634c48.531-28.02 37.29-211.282 38.013-253.702M882.167 668.828a6098.719 6098.719 0 0 1 86.78-51.045M668.745 669.163a6098.719 6098.719 0 0 0-86.78-51.044M665.916 680.315h-82.919M885.182 680.315h82.92" color="#000" fill="none" stroke="purple" stroke-width="2" stroke-linecap="round" stroke-linejoin="round" marker-end="url(#a)" overflow="visible" transform="translate(0 -308.268)"/><path d="M155.52 710.728a6098.718 6098.718 0 0 1-86.78 51.045" style="marker:none" color="#000" fill="none" stroke-width="1.044" stroke-linecap="round" stroke-linejoin="round" marker-end="url(#a)" overflow="visible" transform="scale(1.91624 -1.91624) rotate(-30 -1414.71 -105.639)" stroke="purple"/><path style="marker:none" d="M145.865 725.957a6098.718 6098.718 0 0 1-86.78 51.045" color="#000" fill="none" stroke-width="1.052" stroke-linecap="round" stroke-linejoin="round" marker-end="url(#a)" overflow="visible" transform="rotate(-30 -1365.948 138.946) scale(1.90117)" stroke="purple"/><path d="M881.893 692.273a6098.719 6098.719 0 0 0 86.78 51.045M668.745 691.99a6098.719 6098.719 0 0 1-86.78 51.045" style="marker:none" color="#000" fill="none" stroke="purple" stroke-width="2" stroke-linecap="round" stroke-linejoin="round" marker-end="url(#a)" overflow="visible" transform="translate(0 -308.268)"/><path style="marker:none" d="M155.52 710.728a6098.718 6098.718 0 0 1-86.78 51.045" color="#000" fill="none" stroke-width="1.046" stroke-linecap="round" stroke-linejoin="round" marker-end="url(#a)" overflow="visible" transform="rotate(150 720.666 932.956) scale(1.91253)" stroke="purple"/><path style="marker:none" d="M689.272 703.67v242.028M861.826 703.67v242.028" color="#000" fill="none" stroke="purple" stroke-width="2" stroke-linecap="round" stroke-linejoin="round" marker-end="url(#a)" overflow="visible" transform="translate(0 -308.268)"/><path d="M155.52 710.728a6098.718 6098.718 0 0 1-86.78 51.045" style="marker:none" color="#000" fill="none" stroke-width="1.046" stroke-linecap="round" stroke-linejoin="round" marker-end="url(#a)" overflow="visible" transform="scale(-1.91253 1.91253) rotate(-30 -1094.12 1600.335)" stroke="purple"/><path style="marker:none" d="M861.826 656.959V414.932M841.83 668.634c-48.531-28.02-37.29-211.282-38.013-253.702M850.103 660.154c-24.055-57-18.872-189.157-18.872-245.222M712.628 680.315c63.016-.09 55.62 195.821 55.62 266.064M838.47 680.315c-63.015-.09-55.62 195.821-55.62 266.064M838.47 680.315c-63.015.09-55.62-195.821-55.62-266.064M709.269 692.162c48.531 28.02 37.29 211.282 38.013 253.702M701.072 700.358c24.055 57.001 18.872 189.157 18.872 245.222M849.785 700.358c-24.055 57.001-18.873 189.157-18.873 245.222M841.691 692.162c-48.531 28.02-37.29 211.282-38.013 253.702" color="#000" fill="none" stroke="purple" stroke-width="2" stroke-linecap="round" stroke-linejoin="round" marker-end="url(#a)" overflow="visible" transform="translate(0 -308.268)"/></svg>