<svg xmlns="http://www.w3.org/2000/svg" width="210mm" height="297mm"><title>Feldlinien Stabmagnet</title><path fill="#fff" stroke="#fff" stroke-width="2" stroke-linecap="round" d="M25.289 315.508H729.8v431.293H25.289z"/><path fill="#f55" stroke="gray" stroke-linecap="round" d="M230.09 492.571h146.596v67.221H230.09z"/><path fill="#37c837" stroke="gray" stroke-linecap="round" d="M376.686 492.571h146.596v67.221H376.686z"/><g fill="none" stroke-width="2.107" stroke="#a0892c"><path d="M389.142 370.02c281.834 0 302.463 204.54 145.244 204.54H243.897c-158.556 0-136.59-204.54 145.245-204.54z" transform="matrix(1.0992 0 0 -.81964 -50.743 1004.362)"/><path d="M389.57 405.306c251.85 0 276.339 158.112 143.376 161.04H246.194c-126.277 0-108.473-161.04 143.376-161.04z" transform="matrix(1.0992 0 0 -.81964 -50.743 1004.362)"/><path d="M389.57 441.735c238.635 0 234.304 115.449 141.234 115.449H246.55c-76.277 0-95.616-115.45 143.02-115.45z" transform="matrix(1.0992 0 0 -.81964 -50.743 1004.362)"/><path d="M389.57 479.592c219.205 0 175.244 69.556 139.805 69.556H248.824c-35.721 0-78.46-69.556 140.746-69.556z" transform="matrix(1.0992 0 0 -.81964 -50.743 1004.362)"/></g><g fill="none" stroke="#a0892c" stroke-width="2.107"><path d="M389.142 370.02c281.834 0 302.463 204.54 145.244 204.54H243.897c-158.556 0-136.59-204.54 145.245-204.54z" transform="matrix(1.0992 0 0 .81964 -50.743 48)"/><path d="M389.57 405.306c251.85 0 276.339 158.112 143.376 161.04H246.194c-126.277 0-108.473-161.04 143.376-161.04z" transform="matrix(1.0992 0 0 .81964 -50.743 48)"/><path d="M389.57 441.735c238.635 0 234.304 115.449 141.234 115.449H246.55c-76.277 0-95.616-115.45 143.02-115.45z" transform="matrix(1.0992 0 0 .81964 -50.743 48)"/><path d="M389.57 479.592c219.205 0 175.244 69.556 139.805 69.556H248.824c-35.721 0-78.46-69.556 140.746-69.556z" transform="matrix(1.0992 0 0 .81964 -50.743 48)"/></g><path d="M664.754 526.181H79.34" fill="none" stroke="#a0892c" stroke-width="2"/><path d="M570.673 388.413l4.64-.564 4.642-.564-2.809-3.738-2.809-3.737-1.832 4.301zM560.46 412.736l4.642-.564 4.641-.564-2.81-3.738-2.808-3.737-1.832 4.301zM547.987 435.6l4.642-.565 4.64-.564-2.808-3.737-2.81-3.738-1.831 4.302zM534.83 460.965l4.641-.564 4.642-.564-2.81-3.738-2.809-3.737-1.832 4.302zM181.368 383.88l-4.63-.657-4.628-.657 1.746 4.337 1.746 4.337 2.883-3.68zM194.525 409.245l-4.629-.657-4.63-.656 1.747 4.337 1.746 4.337 2.883-3.68zM207.078 432.27l-4.63-.657-4.629-.657 1.746 4.338 1.746 4.337 2.884-3.68zM219.002 456.439l-4.629-.657-4.629-.656 1.746 4.337 1.746 4.337 2.883-3.68zM544.154 592.625l-4.63-.657-4.628-.656 1.746 4.337 1.746 4.337 2.883-3.68zM557.311 617.99l-4.629-.656-4.63-.657 1.747 4.338 1.746 4.337 2.883-3.68zM569.933 640.58l-4.63-.657-4.628-.656 1.746 4.337 1.746 4.337 2.883-3.68zM581.24 664.71l-4.629-.657-4.63-.656 1.747 4.337 1.746 4.337 2.883-3.68zM209.496 596.887l4.642-.564 4.641-.564-2.81-3.738-2.808-3.737-1.832 4.301zM197.754 621.32l4.641-.564 4.641-.564-2.809-3.737-2.809-3.738-1.832 4.302zM185.201 644.345l4.642-.564 4.64-.564-2.808-3.738-2.81-3.737-1.831 4.301zM172.044 669.71l4.641-.563 4.642-.564-2.81-3.738-2.809-3.737-1.832 4.301zM119.295 521.46l.02 4.675.02 4.675-4.059-2.32-4.059-2.32 4.039-2.355zM643.35 521.494l.02 4.675.02 4.676-4.058-2.32-4.06-2.32 4.04-2.356z" fill="#a0892c" stroke="#a0892c" stroke-width="3.0000123199999997"/></svg>