<svg xmlns:ns0="http://www.iki.fi/pav/software/textext/" xmlns="http://www.w3.org/2000/svg" xmlns:xlink="http://www.w3.org/1999/xlink" width="1052.362" height="744.094"><title>p-Dotierung von Silicium</title><g transform="translate(0 -308.268)"><path fill="#fff" stroke="#fff" stroke-width="2" stroke-linecap="square" d="M897.435 516.705H154.928v327.22h742.507z"/><path style="marker:none" color="#000" fill="#ccc" stroke="gray" stroke-linecap="round" stroke-linejoin="round" overflow="visible" d="M202.32 548.775h647.721v263.08H202.32z"/><g id="c" stroke="#000"><path transform="matrix(-.65605 -.10348 -.1035 .65592 482.884 512.865)" d="M332.857 189.505c0 18.147-14.71 32.857-32.857 32.857-18.146 0-32.857-14.71-32.857-32.857 0-18.146 14.71-32.857 32.857-32.857 18.146 0 32.857 14.71 32.857 32.857z" fill="#fff" stroke-width="3.196" stroke-linecap="square"/><g ns0:text="$\\ce{Si}$" ns0:preamble="/home/waldgeist/data/sphinx/test.tex" transform="matrix(1.79533 0 0 1.79533 -143.447 370.353)"><defs><symbol overflow="visible" id="a"><path d="M3.484-3.875l-1.28-.297c-.626-.156-1-.687-1-1.266 0-.703.53-1.312 1.312-1.312 1.656 0 1.875 1.64 1.937 2.078.016.063.016.125.125.125.125 0 .125-.047.125-.234v-2c0-.172 0-.25-.11-.25-.062 0-.077.015-.14.14l-.36.563c-.296-.297-.702-.703-1.593-.703-1.11 0-1.938.875-1.938 1.937 0 .828.532 1.563 1.297 1.828.11.032.625.157 1.329.329.265.062.562.14.843.5.203.265.313.593.313.921 0 .704-.5 1.422-1.344 1.422-.281 0-1.047-.047-1.578-.531-.578-.547-.61-1.172-.61-1.531-.015-.11-.093-.11-.125-.11-.125 0-.125.079-.125.25v2c0 .172 0 .235.11.235.062 0 .078-.016.14-.125 0-.016.032-.047.36-.578.312.343.953.703 1.844.703 1.156 0 1.953-.969 1.953-2.078 0-.985-.657-1.813-1.485-2.016zm0 0" stroke="none"/></symbol><symbol overflow="visible" id="b"><path d="M1.766-4.406l-1.391.11v.312c.64 0 .734.062.734.546V-.75c0 .438-.109.438-.78.438V0c.312-.016.859-.031 1.093-.031.36 0 .703.015 1.047.031v-.313c-.672 0-.703-.046-.703-.437zm.03-1.735a.514.514 0 0 0-.515-.53.537.537 0 0 0-.531.53c0 .266.219.532.531.532a.514.514 0 0 0 .516-.532zm0 0" stroke="none"/></symbol></defs><use height="744.094" width="1052.362" xlink:href="#a" x="223.432" y="134.765"/><use height="744.094" width="1052.362" xlink:href="#b" x="228.967" y="134.765"/></g></g><use height="744.094" width="1052.362" xlink:href="#c" transform="translate(0 74.193)" stroke="#000"/><use height="744.094" width="1052.362" xlink:href="#c" transform="translate(0 148.385)" stroke="#000"/><use height="744.094" width="1052.362" xlink:href="#c" transform="translate(74.207)" stroke="#000"/><use height="744.094" width="1052.362" xlink:href="#c" transform="translate(74.207 74.193)" stroke="#000"/><use height="744.094" width="1052.362" xlink:href="#c" transform="translate(74.207 148.385)" stroke="#000"/><use height="744.094" width="1052.362" xlink:href="#c" transform="translate(148.414)" stroke="#000"/><use height="744.094" width="1052.362" xlink:href="#c" transform="translate(148.414 148.385)" stroke="#000"/><use height="744.094" width="1052.362" xlink:href="#c" transform="translate(222.621)" stroke="#000"/><use height="744.094" width="1052.362" xlink:href="#c" transform="translate(222.621 74.193)" stroke="#000"/><use height="744.094" width="1052.362" xlink:href="#c" transform="translate(222.621 148.385)" stroke="#000"/><use height="744.094" width="1052.362" xlink:href="#c" transform="translate(296.829)" stroke="#000"/><use height="744.094" width="1052.362" xlink:href="#c" transform="translate(296.829 74.193)" stroke="#000"/><use height="744.094" width="1052.362" xlink:href="#c" transform="translate(296.829 148.385)" stroke="#000"/><use height="744.094" width="1052.362" xlink:href="#c" transform="translate(371.036)" stroke="#000"/><use height="744.094" width="1052.362" xlink:href="#c" transform="translate(371.036 74.193)" stroke="#000"/><use height="744.094" width="1052.362" xlink:href="#c" transform="translate(371.036 148.385)" stroke="#000"/><use height="744.094" width="1052.362" xlink:href="#c" transform="translate(445.243 74.193)" stroke="#000"/><use height="744.094" width="1052.362" xlink:href="#c" transform="translate(445.243 148.385)" stroke="#000"/><use height="744.094" width="1052.362" xlink:href="#c" transform="translate(445.243)" stroke="#000"/><use height="744.094" width="1052.362" xlink:href="#c" transform="translate(519.45 74.193)" stroke="#000"/><use height="744.094" width="1052.362" xlink:href="#c" transform="translate(519.45 148.385)" stroke="#000"/><g id="d" stroke="navy" stroke-width="1.515"><path d="M221.307 214.047c0 6.969-5.649 12.618-12.618 12.618s-12.618-5.65-12.618-12.618c0-6.97 5.65-12.619 12.618-12.619 6.969 0 12.618 5.65 12.618 12.619z" transform="matrix(-.34304 -.0541 -.05412 .34297 349.629 574.124)" fill="#fff" stroke-width="4.075" stroke-linecap="square"/><text y="666.876" x="180.558" style="line-height:125%" font-size="30" font-weight="400" letter-spacing="0" word-spacing="0" fill="navy" font-family="Sans" transform="matrix(-.46704 0 0 .46694 353.312 328.689)"><tspan y="666.876" x="180.558">-</tspan></text><g><path transform="matrix(-.34304 -.0541 -.05412 .34297 349.629 587.63)" d="M221.307 214.047c0 6.969-5.649 12.618-12.618 12.618s-12.618-5.65-12.618-12.618c0-6.97 5.65-12.619 12.618-12.619 6.969 0 12.618 5.65 12.618 12.619z" fill="#fff" stroke-width="4.075" stroke-linecap="square"/><text style="line-height:125%" x="180.558" y="666.876" font-size="30" font-weight="400" letter-spacing="0" word-spacing="0" fill="navy" font-family="Sans" transform="matrix(-.46704 0 0 .46694 353.312 342.194)"><tspan x="180.558" y="666.876">-</tspan></text></g></g><use xlink:href="#d" transform="translate(519.45 148.615)" width="1052.362" height="744.094" stroke="#000"/><use xlink:href="#d" transform="translate(0 74.106)" width="1052.362" height="744.094" stroke="#000"/><use xlink:href="#d" transform="translate(222.621)" width="1052.362" height="744.094" stroke="#000"/><use xlink:href="#d" transform="translate(371.036 148.615)" width="1052.362" height="744.094" stroke="#000"/><use xlink:href="#d" transform="translate(296.829 148.615)" width="1052.362" height="744.094" stroke="#000"/><use xlink:href="#d" transform="translate(519.45)" width="1052.362" height="744.094" stroke="#000"/><use xlink:href="#d" transform="translate(445.243 74.106)" width="1052.362" height="744.094" stroke="#000"/><use xlink:href="#d" transform="translate(222.621 148.615)" width="1052.362" height="744.094" stroke="#000"/><use xlink:href="#d" transform="translate(445.243)" width="1052.362" height="744.094" stroke="#000"/><use xlink:href="#d" transform="translate(371.036)" width="1052.362" height="744.094" stroke="#000"/><use xlink:href="#d" transform="translate(371.036 74.106)" width="1052.362" height="744.094" stroke="#000"/><use xlink:href="#d" transform="translate(519.45 74.106)" width="1052.362" height="744.094" stroke="#000"/><use xlink:href="#d" transform="translate(0 148.615)" width="1052.362" height="744.094" stroke="#000"/><use xlink:href="#d" transform="translate(74.207 148.615)" width="1052.362" height="744.094" stroke="#000"/><use xlink:href="#d" transform="translate(73.365)" width="1052.362" height="744.094" stroke="#000"/><use xlink:href="#d" transform="translate(148.414 148.615)" width="1052.362" height="744.094" stroke="#000"/><use xlink:href="#d" transform="translate(73.365 74.106)" width="1052.362" height="744.094" stroke="#000"/><use xlink:href="#d" transform="translate(445.243 148.615)" width="1052.362" height="744.094" stroke="#000"/><use xlink:href="#d" transform="translate(222.621 74.106)" width="1052.362" height="744.094" stroke="#000"/><use xlink:href="#d" transform="translate(296.829)" width="1052.362" height="744.094" stroke="#000"/><use xlink:href="#d" transform="translate(148.414)" width="1052.362" height="744.094" stroke="#000"/><use xlink:href="#d" transform="translate(296.829 74.106)" width="1052.362" height="744.094" stroke="#000"/><use xlink:href="#d" transform="translate(0 -73.98)" width="1052.362" height="744.094"/><use xlink:href="#d" transform="translate(74.207 -73.98)" width="1052.362" height="744.094"/><use xlink:href="#d" transform="translate(148.414 -73.98)" width="1052.362" height="744.094"/><use xlink:href="#d" transform="translate(222.621 -73.98)" width="1052.362" height="744.094"/><use xlink:href="#d" transform="translate(296.829 -73.98)" width="1052.362" height="744.094"/><use xlink:href="#d" transform="translate(371.036 -73.98)" width="1052.362" height="744.094"/><use xlink:href="#d" transform="translate(445.243 -73.98)" width="1052.362" height="744.094"/><use xlink:href="#d" transform="translate(519.45 -73.98)" width="1052.362" height="744.094"/><g id="e" stroke="navy" stroke-width="1.515"><path transform="matrix(-.34304 -.0541 -.05412 .34297 379.98 544.001)" d="M221.307 214.047c0 6.969-5.649 12.618-12.618 12.618s-12.618-5.65-12.618-12.618c0-6.97 5.65-12.619 12.618-12.619 6.969 0 12.618 5.65 12.618 12.619z" fill="#fff" stroke-width="4.075" stroke-linecap="square"/><text style="line-height:125%" x="180.558" y="666.876" font-size="30" font-weight="400" letter-spacing="0" word-spacing="0" fill="navy" font-family="Sans" transform="matrix(-.46704 0 0 .46694 383.663 298.566)"><tspan x="180.558" y="666.876">-</tspan></text><g><path d="M221.307 214.047c0 6.969-5.649 12.618-12.618 12.618s-12.618-5.65-12.618-12.618c0-6.97 5.65-12.619 12.618-12.619 6.969 0 12.618 5.65 12.618 12.619z" transform="matrix(-.34304 -.0541 -.05412 .34297 393.484 544.001)" fill="#fff" stroke-width="4.075" stroke-linecap="square"/><text y="666.876" x="180.558" style="line-height:125%" font-size="30" font-weight="400" letter-spacing="0" word-spacing="0" fill="navy" font-family="Sans" transform="matrix(-.46704 0 0 .46694 397.167 298.566)"><tspan y="666.876" x="180.558">-</tspan></text></g></g><use xlink:href="#e" transform="translate(0 74.193)" width="1052.362" height="744.094" stroke="#000"/><use xlink:href="#e" transform="translate(0 148.385)" width="1052.362" height="744.094" stroke="#000"/><use xlink:href="#e" transform="translate(222.621 74.193)" width="1052.362" height="744.094" stroke="#000"/><use xlink:href="#e" transform="translate(74.207 74.193)" width="1052.362" height="744.094" stroke="#000"/><use xlink:href="#e" transform="translate(148.414 148.385)" width="1052.362" height="744.094" stroke="#000"/><use xlink:href="#e" transform="translate(74.207)" width="1052.362" height="744.094" stroke="#000"/><use xlink:href="#e" transform="translate(74.207 148.385)" width="1052.362" height="744.094" stroke="#000"/><use xlink:href="#e" transform="translate(148.414 74.193)" width="1052.362" height="744.094" stroke="#000"/><use xlink:href="#e" transform="translate(371.036 148.385)" width="1052.362" height="744.094" stroke="#000"/><use xlink:href="#e" transform="translate(222.621 148.385)" width="1052.362" height="744.094" stroke="#000"/><use xlink:href="#e" transform="translate(296.829 74.193)" width="1052.362" height="744.094" stroke="#000"/><use xlink:href="#e" transform="translate(148.414)" width="1052.362" height="744.094" stroke="#000"/><use xlink:href="#e" transform="translate(296.829 148.385)" width="1052.362" height="744.094" stroke="#000"/><use xlink:href="#e" transform="translate(296.829)" width="1052.362" height="744.094" stroke="#000"/><use xlink:href="#e" transform="translate(371.036)" width="1052.362" height="744.094" stroke="#000"/><use xlink:href="#e" transform="translate(371.036 74.193)" width="1052.362" height="744.094" stroke="#000"/><use xlink:href="#e" transform="translate(445.243 148.385)" width="1052.362" height="744.094" stroke="#000"/><use xlink:href="#e" transform="translate(222.621)" width="1052.362" height="744.094" stroke="#000"/><use xlink:href="#e" transform="translate(445.243 74.193)" width="1052.362" height="744.094" stroke="#000"/><use xlink:href="#e" transform="translate(519.45 148.385)" width="1052.362" height="744.094" stroke="#000"/><use xlink:href="#e" transform="translate(519.45)" width="1052.362" height="744.094" stroke="#000"/><use xlink:href="#e" transform="translate(519.45 74.193)" width="1052.362" height="744.094" stroke="#000"/><g stroke="navy" stroke-width="1.515"><path d="M221.307 214.047c0 6.969-5.649 12.618-12.618 12.618s-12.618-5.65-12.618-12.618c0-6.97 5.65-12.619 12.618-12.619 6.969 0 12.618 5.65 12.618 12.619z" transform="matrix(-.34304 -.0541 -.05412 .34297 305.774 544.001)" fill="#fff" stroke-width="4.075" stroke-linecap="square"/><text y="666.876" x="180.558" style="line-height:125%" font-size="30" font-weight="400" letter-spacing="0" word-spacing="0" fill="navy" font-family="Sans" transform="matrix(-.46704 0 0 .46694 309.456 298.566)"><tspan y="666.876" x="180.558">-</tspan></text><g><path transform="matrix(-.34304 -.0541 -.05412 .34297 319.277 544.001)" d="M221.307 214.047c0 6.969-5.649 12.618-12.618 12.618s-12.618-5.65-12.618-12.618c0-6.97 5.65-12.619 12.618-12.619 6.969 0 12.618 5.65 12.618 12.619z" fill="#fff" stroke-width="4.075" stroke-linecap="square"/><text style="line-height:125%" x="180.558" y="666.876" font-size="30" font-weight="400" letter-spacing="0" word-spacing="0" fill="navy" font-family="Sans" transform="matrix(-.46704 0 0 .46694 322.96 298.566)"><tspan x="180.558" y="666.876">-</tspan></text></g></g><g stroke="navy" stroke-width="1.515"><path d="M221.307 214.047c0 6.969-5.649 12.618-12.618 12.618s-12.618-5.65-12.618-12.618c0-6.97 5.65-12.619 12.618-12.619 6.969 0 12.618 5.65 12.618 12.619z" transform="matrix(-.34304 -.0541 -.05412 .34297 305.774 618.194)" fill="#fff" stroke-width="4.075" stroke-linecap="square"/><text y="666.876" x="180.558" style="line-height:125%" font-size="30" font-weight="400" letter-spacing="0" word-spacing="0" fill="navy" font-family="Sans" transform="matrix(-.46704 0 0 .46694 309.456 372.759)"><tspan y="666.876" x="180.558">-</tspan></text><g><path transform="matrix(-.34304 -.0541 -.05412 .34297 319.277 618.194)" d="M221.307 214.047c0 6.969-5.649 12.618-12.618 12.618s-12.618-5.65-12.618-12.618c0-6.97 5.65-12.619 12.618-12.619 6.969 0 12.618 5.65 12.618 12.619z" fill="#fff" stroke-width="4.075" stroke-linecap="square"/><text style="line-height:125%" x="180.558" y="666.876" font-size="30" font-weight="400" letter-spacing="0" word-spacing="0" fill="navy" font-family="Sans" transform="matrix(-.46704 0 0 .46694 322.96 372.759)"><tspan x="180.558" y="666.876">-</tspan></text></g></g><g stroke="navy" stroke-width="1.515"><path d="M221.307 214.047c0 6.969-5.649 12.618-12.618 12.618s-12.618-5.65-12.618-12.618c0-6.97 5.65-12.619 12.618-12.619 6.969 0 12.618 5.65 12.618 12.619z" transform="matrix(-.34304 -.0541 -.05412 .34297 305.774 692.387)" fill="#fff" stroke-width="4.075" stroke-linecap="square"/><text y="666.876" x="180.558" style="line-height:125%" font-size="30" font-weight="400" letter-spacing="0" word-spacing="0" fill="navy" font-family="Sans" transform="matrix(-.46704 0 0 .46694 309.456 446.952)"><tspan y="666.876" x="180.558">-</tspan></text><g><path transform="matrix(-.34304 -.0541 -.05412 .34297 319.277 692.387)" d="M221.307 214.047c0 6.969-5.649 12.618-12.618 12.618s-12.618-5.65-12.618-12.618c0-6.97 5.65-12.619 12.618-12.619 6.969 0 12.618 5.65 12.618 12.619z" fill="#fff" stroke-width="4.075" stroke-linecap="square"/><text style="line-height:125%" x="180.558" y="666.876" font-size="30" font-weight="400" letter-spacing="0" word-spacing="0" fill="navy" font-family="Sans" transform="matrix(-.46704 0 0 .46694 322.96 446.952)"><tspan x="180.558" y="666.876">-</tspan></text></g></g><path transform="matrix(-.65605 -.10348 -.1035 .65592 631.298 587.057)" d="M332.857 189.505a32.857 32.857 0 1 1-65.714 0 32.857 32.857 0 1 1 65.714 0z" fill="#fff" stroke="#d40000" stroke-width="3.196" stroke-linecap="square"/><path d="M332.857 189.505a32.857 32.857 0 1 1-65.714 0 32.857 32.857 0 1 1 65.714 0z" transform="matrix(-.65605 -.10348 -.1035 .65592 1002.334 512.865)" fill="#fff" stroke="#d40000" stroke-width="3.196" stroke-linecap="square"/><g ns0:text="$\\ce{B}$" ns0:preamble="/home/waldgeist/data/sphinx/test.tex" transform="matrix(1.79533 0 0 1.79533 378.629 370.353)" stroke="#000"><defs><symbol overflow="visible" id="f"><path d="M2.219-3.656v-2.438c0-.343.015-.406.484-.406h1.235c.968 0 1.312.844 1.312 1.375 0 .64-.484 1.469-1.594 1.469zm2.344.094c.968-.188 1.656-.829 1.656-1.563 0-.86-.922-1.688-2.219-1.688H.36v.313h.234c.765 0 .797.11.797.469v5.25c0 .36-.032.469-.797.469H.359V0h3.907c1.328 0 2.218-.89 2.218-1.828 0-.86-.812-1.61-1.921-1.734zm-.61 3.25h-1.25c-.469 0-.484-.063-.484-.391v-2.719h1.875c.984 0 1.406.922 1.406 1.594 0 .703-.531 1.516-1.547 1.516zm0 0" stroke="none"/></symbol></defs><use height="744.094" width="1052.362" xlink:href="#f" x="223.432" y="134.765" fill="#d40000" stroke="#d40000"/></g><use y="134.765" x="223.432" xlink:href="#f" width="1052.362" height="744.094" fill="#d40000" stroke="#d40000" transform="matrix(1.79533 0 0 1.79533 7.593 444.546)" ns0:preamble="/home/waldgeist/data/sphinx/test.tex" ns0:text="$\\ce{B}$"/><g stroke="navy" stroke-width="1.515"><g stroke-width="4.075" stroke-linecap="square"><path transform="matrix(-.34304 -.0541 -.05412 .34297 498.043 661.736)" d="M221.307 214.047c0 6.969-5.649 12.618-12.618 12.618s-12.618-5.65-12.618-12.618c0-6.97 5.65-12.619 12.618-12.619 6.969 0 12.618 5.65 12.618 12.619z" fill="#fff"/><path d="M221.307 214.047c0 6.969-5.649 12.618-12.618 12.618s-12.618-5.65-12.618-12.618c0-6.97 5.65-12.619 12.618-12.619 6.969 0 12.618 5.65 12.618 12.619z" transform="matrix(-.34304 -.0541 -.05412 .34297 498.043 648.23)" fill="none" stroke="#d40000" stroke-dasharray="4.07460032,12.22380092"/></g><text style="line-height:125%" x="180.558" y="666.876" font-size="30" font-weight="400" letter-spacing="0" word-spacing="0" fill="navy" font-family="Sans" transform="matrix(-.46704 0 0 .46694 501.726 416.3)"><tspan x="180.558" y="666.876">-</tspan></text></g><g stroke="navy" stroke-width="1.515"><g stroke-width="4.075" stroke-linecap="square"><path transform="matrix(-.34304 -.0541 -.05412 .34297 825.224 544.001)" d="M221.307 214.047c0 6.969-5.649 12.618-12.618 12.618s-12.618-5.65-12.618-12.618c0-6.97 5.65-12.619 12.618-12.619 6.969 0 12.618 5.65 12.618 12.619z" fill="#fff"/><path d="M221.307 214.047c0 6.969-5.649 12.618-12.618 12.618s-12.618-5.65-12.618-12.618c0-6.97 5.65-12.619 12.618-12.619 6.969 0 12.618 5.65 12.618 12.619z" transform="matrix(-.34304 -.0541 -.05412 .34297 838.727 544.001)" fill="none" stroke="#d40000" stroke-dasharray="4.07460032,12.22380092"/></g><text style="line-height:125%" x="180.558" y="666.876" font-size="30" font-weight="400" letter-spacing="0" word-spacing="0" fill="navy" font-family="Sans" transform="matrix(-.46704 0 0 .46694 828.906 298.566)"><tspan x="180.558" y="666.876">-</tspan></text></g></g></svg>