<svg xmlns:ns0="http://www.iki.fi/pav/software/textext/" xmlns="http://www.w3.org/2000/svg" xmlns:xlink="http://www.w3.org/1999/xlink" width="1052.362" height="744.094"><title>n-p-Uebergang (Sperrrichtung)</title><defs><marker id="c" orient="auto" overflow="visible"><path d="M-4 0l-2 2 7-2-7-2 2 2z" fill-rule="evenodd" stroke="#000" stroke-width=".4pt"/></marker></defs><g transform="translate(0 -308.268)"><path fill="#fff" stroke="#fff" stroke-width="2" stroke-linecap="square" d="M936.629 385.165H115.733v590.3h820.896z"/><path style="marker:none" color="#000" fill="#ccc" stroke="#ccc" stroke-linecap="round" stroke-linejoin="round" overflow="visible" d="M202.174 422.664h647.721v263.08H202.174z"/><path style="marker:none" color="#000" fill="none" stroke="#000" stroke-linecap="round" stroke-linejoin="round" overflow="visible" d="M202.028 422.664h323.861v263.08H202.028z"/><path style="marker:none" color="#000" fill="none" stroke="#000" stroke-linecap="round" stroke-linejoin="round" overflow="visible" d="M525.888 422.664h323.861v263.08H525.888z"/><path style="marker:none" opacity=".3" color="#000" fill="#999" stroke="gray" stroke-width="1.5" stroke-linecap="round" stroke-linejoin="round" overflow="visible" d="M494.007 422.663h64.054v263.08h-64.054z"/><use height="744.094" width="1052.362" transform="translate(0 55.55)" xlink:href="#a" stroke="#2a7fff"/><use height="744.094" width="1052.362" transform="translate(0 111.099)" xlink:href="#a" stroke="#2a7fff"/><use height="744.094" width="1052.362" transform="translate(0 166.648)" xlink:href="#a" stroke="#2a7fff"/><g id="a" stroke="navy" stroke-width="1.515"><path transform="matrix(-.34304 -.0541 -.05412 .34297 587.484 385.343)" d="M221.307 214.047c0 6.969-5.649 12.618-12.618 12.618s-12.618-5.65-12.618-12.618c0-6.97 5.65-12.619 12.618-12.619 6.969 0 12.618 5.65 12.618 12.619z" fill="#fff" stroke="#2a7fff" stroke-width="4.075" stroke-linecap="square"/><text style="line-height:125%" x="180.558" y="666.876" font-size="30" font-weight="400" letter-spacing="0" word-spacing="0" fill="navy" stroke="#2a7fff" font-family="Sans" transform="matrix(-.46704 0 0 .46694 591.167 139.908)"><tspan x="180.558" y="666.876">-</tspan></text></g><use height="744.094" width="1052.362" transform="translate(0 222.197)" xlink:href="#a" stroke="#2a7fff"/><path d="M550.385 447.464a4.329 4.329 0 1 1-8.657 0 4.329 4.329 0 0 1 8.657 0z" fill="none" stroke="maroon" stroke-width="1.29861" stroke-linecap="round" stroke-dasharray="4.49999984,13.49999957" id="b"/><use height="744.094" width="1052.362" transform="translate(0 55.55)" xlink:href="#b"/><use height="744.094" width="1052.362" transform="translate(0 111.099)" xlink:href="#b"/><use height="744.094" width="1052.362" transform="translate(0 166.648)" xlink:href="#b"/><use height="744.094" width="1052.362" transform="translate(0 222.197)" xlink:href="#b"/><path id="d" d="M512.962 447.464h24.497" fill="none" stroke="#000" stroke-width=".875" stroke-linecap="round" marker-end="url(#c)"/><use height="744.094" width="1052.362" transform="translate(0 222.197)" xlink:href="#d"/><use height="744.094" width="1052.362" transform="translate(0 55.55)" xlink:href="#d"/><use height="744.094" width="1052.362" transform="translate(0 111.099)" xlink:href="#d"/><use height="744.094" width="1052.362" transform="translate(0 166.648)" xlink:href="#d"/><g ns0:text="\\centering $n$-dotierte \\\\ Schicht" ns0:preamble="/home/waldgeist/data/sphinx/test.tex" transform="matrix(4.01063 0 0 4.01063 -1241.58 3.18)"><defs><symbol overflow="visible" id="e"><path d="M.875-.594c-.031.156-.094.39-.094.438 0 .172.14.265.297.265a.414.414 0 0 0 .375-.28c0-.016.125-.485.188-.735l.218-.89c.047-.235.11-.454.172-.673.031-.172.11-.469.125-.5.14-.312.672-1.219 1.625-1.219.453 0 .531.375.531.704 0 .609-.484 1.89-.64 2.312-.094.234-.11.36-.11.469 0 .469.36.812.829.812.937 0 1.296-1.453 1.296-1.53 0-.11-.078-.11-.109-.11-.11 0-.11.031-.156.187-.203.672-.531 1.235-1.016 1.235-.172 0-.234-.094-.234-.329 0-.25.078-.484.172-.703.187-.53.61-1.625.61-2.203 0-.656-.423-1.062-1.141-1.062-.907 0-1.391.64-1.563.875-.047-.563-.453-.875-.922-.875-.453 0-.64.39-.734.562-.172.344-.297.938-.297.969 0 .11.094.11.11.11.109 0 .109-.016.171-.235.172-.703.375-1.188.735-1.188.187 0 .296.125.296.454 0 .218-.03.328-.156.843zm0 0"/></symbol><symbol overflow="visible" id="f"><path d="M2.75-1.86v-.577H.11v.578zm0 0"/></symbol><symbol overflow="visible" id="g"><path d="M3.781-.547V.11L5.25 0v-.313c-.688 0-.781-.062-.781-.562v-6.047l-1.422.11v.312c.687 0 .765.063.765.563v2.156a1.582 1.582 0 0 0-1.25-.625c-1.171 0-2.218.984-2.218 2.265 0 1.266.969 2.25 2.11 2.25.64 0 1.077-.343 1.327-.656zm0-2.672v2.047c0 .172 0 .188-.11.36-.296.484-.733.703-1.171.703-.453 0-.813-.266-1.047-.641-.25-.406-.281-.969-.281-1.39 0-.36.016-.954.297-1.407.218-.312.593-.64 1.14-.64.344 0 .766.156 1.063.593.11.172.11.188.11.375zm0 0"/></symbol><symbol overflow="visible" id="h"><path d="M4.688-2.14c0-1.266-.985-2.329-2.188-2.329C1.25-4.469.281-3.375.281-2.14A2.22 2.22 0 0 0 2.484.11c1.204 0 2.204-.984 2.204-2.25zM2.5-.14c-.438 0-.875-.204-1.14-.672-.25-.438-.25-1.047-.25-1.407 0-.39 0-.922.234-1.36a1.347 1.347 0 0 1 1.14-.671c.438 0 .86.219 1.125.656.266.422.266 1 .266 1.375 0 .36 0 .906-.219 1.344-.234.453-.672.734-1.156.734zm0 0"/></symbol><symbol overflow="visible" id="i"><path d="M1.719-3.984h1.437v-.313H1.72v-1.828h-.25c0 .813-.297 1.875-1.282 1.922v.219h.844v2.75c0 1.218.938 1.343 1.297 1.343.703 0 .985-.703.985-1.343v-.563h-.25v.547c0 .734-.297 1.11-.672 1.11-.672 0-.672-.907-.672-1.079zm0 0"/></symbol><symbol overflow="visible" id="j"><path d="M1.766-4.406l-1.391.11v.312c.64 0 .734.062.734.546V-.75c0 .438-.109.438-.78.438V0c.312-.016.859-.031 1.093-.031.36 0 .703.015 1.047.031v-.313c-.672 0-.703-.046-.703-.437zm.03-1.735a.514.514 0 0 0-.515-.53.537.537 0 0 0-.531.53c0 .266.219.532.531.532a.514.514 0 0 0 .516-.532zm0 0"/></symbol><symbol overflow="visible" id="k"><path d="M1.11-2.516C1.171-4 2.015-4.25 2.36-4.25c1.015 0 1.124 1.344 1.124 1.734zm0 .22h2.78c.22 0 .25 0 .25-.22 0-.984-.546-1.953-1.78-1.953C1.202-4.469.28-3.437.28-2.187.281-.86 1.328.108 2.47.108 3.688.11 4.14-1 4.14-1.187c0-.094-.079-.125-.141-.125-.078 0-.11.062-.125.14C3.531-.14 2.625-.14 2.531-.14c-.5 0-.89-.296-1.125-.671-.297-.47-.297-1.125-.297-1.485zm0 0"/></symbol><symbol overflow="visible" id="l"><path d="M1.672-3.313v-1.093l-1.39.11v.312c.702 0 .78.062.78.562V-.75c0 .438-.109.438-.78.438V0c.39-.016.859-.031 1.14-.031.39 0 .86 0 1.266.031v-.313h-.22c-.734 0-.75-.109-.75-.468v-1.531c0-.985.423-1.876 1.173-1.876.062 0 .093 0 .109.016-.031 0-.234.125-.234.39 0 .266.218.423.437.423a.421.421 0 0 0 .422-.438c0-.312-.313-.61-.734-.61-.735 0-1.094.673-1.22 1.095zm0 0"/></symbol><symbol overflow="visible" id="m"><path d="M3.484-3.875l-1.28-.297c-.626-.156-1-.687-1-1.266 0-.703.53-1.312 1.312-1.312 1.656 0 1.875 1.64 1.937 2.078.016.063.016.125.125.125.125 0 .125-.047.125-.234v-2c0-.172 0-.25-.11-.25-.062 0-.077.015-.14.14l-.36.563c-.296-.297-.702-.703-1.593-.703-1.11 0-1.938.875-1.938 1.937 0 .828.532 1.563 1.297 1.828.11.032.625.157 1.329.329.265.062.562.14.843.5.203.265.313.593.313.921 0 .704-.5 1.422-1.344 1.422-.281 0-1.047-.047-1.578-.531-.578-.547-.61-1.172-.61-1.531-.015-.11-.093-.11-.125-.11-.125 0-.125.079-.125.25v2c0 .172 0 .235.11.235.062 0 .078-.016.14-.125 0-.016.032-.047.36-.578.312.343.953.703 1.844.703 1.156 0 1.953-.969 1.953-2.078 0-.985-.657-1.813-1.485-2.016zm0 0"/></symbol><symbol overflow="visible" id="n"><path d="M1.172-2.172c0-1.625.812-2.047 1.344-2.047.093 0 .718.016 1.062.375-.406.031-.469.328-.469.453 0 .266.188.454.454.454.265 0 .468-.157.468-.47 0-.671-.765-1.062-1.531-1.062C1.25-4.469.344-3.39.344-2.156c0 1.281.984 2.265 2.14 2.265 1.329 0 1.657-1.203 1.657-1.296 0-.094-.11-.094-.141-.094-.078 0-.11.031-.125.093C3.594-.265 2.937-.14 2.578-.14c-.531 0-1.406-.421-1.406-2.03zm0 0"/></symbol><symbol overflow="visible" id="o"><path d="M1.094-.75c0 .438-.11.438-.782.438V0c.36-.016.86-.031 1.141-.031.25 0 .766.015 1.11.031v-.313c-.672 0-.782 0-.782-.437v-1.844c0-1.031.719-1.594 1.344-1.594.64 0 .75.532.75 1.11V-.75c0 .438-.11.438-.781.438V0c.344-.016.86-.031 1.125-.031.25 0 .781.015 1.11.031v-.313c-.516 0-.766 0-.766-.296v-1.907c0-.859 0-1.156-.313-1.515-.14-.172-.469-.375-1.047-.375-.844 0-1.281.593-1.453.984v-3.5l-1.438.11v.312c.704 0 .782.063.782.563zm0 0"/></symbol></defs><use height="744.094" width="1052.362" xlink:href="#e" x="373.742" y="134.765"/><use height="744.094" width="1052.362" xlink:href="#f" x="379.722" y="134.765"/><use height="744.094" width="1052.362" xlink:href="#g" x="383.043" y="134.765"/><use height="744.094" width="1052.362" xlink:href="#h" x="388.578" y="134.765"/><use height="744.094" width="1052.362" xlink:href="#i" x="393.559" y="134.765"/><use height="744.094" width="1052.362" xlink:href="#j" x="397.433" y="134.765"/><use height="744.094" width="1052.362" xlink:href="#k" x="400.201" y="134.765"/><use height="744.094" width="1052.362" xlink:href="#l" x="404.629" y="134.765"/><use height="744.094" width="1052.362" xlink:href="#i" x="408.531" y="134.765"/><use height="744.094" width="1052.362" xlink:href="#k" x="412.405" y="134.765"/><g><use height="744.094" width="1052.362" xlink:href="#m" x="379.652" y="146.72"/><use height="744.094" width="1052.362" xlink:href="#n" x="385.187" y="146.72"/></g><g><use height="744.094" width="1052.362" xlink:href="#o" x="389.336" y="146.72"/><use height="744.094" width="1052.362" xlink:href="#j" x="394.871" y="146.72"/><use height="744.094" width="1052.362" xlink:href="#n" x="397.638" y="146.72"/></g><g><use height="744.094" width="1052.362" xlink:href="#o" x="401.787" y="146.72"/></g><g><use height="744.094" width="1052.362" xlink:href="#i" x="407.053" y="146.72"/></g></g><g transform="matrix(4.01063 0 0 4.01063 -891.138 3.18)" ns0:preamble="/home/waldgeist/data/sphinx/test.tex" ns0:text="\\centering $p$-dotierte \\\\ Schicht"><defs><symbol id="p" overflow="visible"><path d="M.453 1.219c-.078.343-.11.406-.547.406-.11 0-.218 0-.218.188 0 .078.046.125.124.125.266 0 .563-.032.829-.032.343 0 .671.032 1 .032.046 0 .171 0 .171-.204 0-.109-.093-.109-.234-.109-.5 0-.5-.063-.5-.156 0-.125.422-1.75.484-2 .125.297.407.64.922.64 1.157 0 2.407-1.453 2.407-2.921 0-.938-.579-1.594-1.329-1.594-.5 0-.984.36-1.312.75-.094-.547-.531-.75-.89-.75-.47 0-.657.39-.735.562-.188.344-.313.938-.313.969 0 .11.094.11.11.11.11 0 .11-.016.172-.235.172-.703.375-1.188.734-1.188.172 0 .313.079.313.454 0 .234-.032.343-.079.515zm1.75-4.328c.063-.266.344-.547.516-.704.36-.296.64-.374.812-.374.39 0 .64.343.64.937 0 .594-.327 1.734-.515 2.11-.344.702-.812 1.03-1.187 1.03-.656 0-.781-.828-.781-.89 0-.016 0-.031.03-.156zm0 0"/></symbol><symbol id="q" overflow="visible"><path d="M2.75-1.86v-.577H.11v.578zm0 0"/></symbol><symbol id="r" overflow="visible"><path d="M3.781-.547V.11L5.25 0v-.313c-.688 0-.781-.062-.781-.562v-6.047l-1.422.11v.312c.687 0 .765.063.765.563v2.156a1.582 1.582 0 0 0-1.25-.625c-1.171 0-2.218.984-2.218 2.265 0 1.266.969 2.25 2.11 2.25.64 0 1.077-.343 1.327-.656zm0-2.672v2.047c0 .172 0 .188-.11.36-.296.484-.733.703-1.171.703-.453 0-.813-.266-1.047-.641-.25-.406-.281-.969-.281-1.39 0-.36.016-.954.297-1.407.218-.312.593-.64 1.14-.64.344 0 .766.156 1.063.593.11.172.11.188.11.375zm0 0"/></symbol><symbol id="s" overflow="visible"><path d="M4.688-2.14c0-1.266-.985-2.329-2.188-2.329C1.25-4.469.281-3.375.281-2.14A2.22 2.22 0 0 0 2.484.11c1.204 0 2.204-.984 2.204-2.25zM2.5-.14c-.438 0-.875-.204-1.14-.672-.25-.438-.25-1.047-.25-1.407 0-.39 0-.922.234-1.36a1.347 1.347 0 0 1 1.14-.671c.438 0 .86.219 1.125.656.266.422.266 1 .266 1.375 0 .36 0 .906-.219 1.344-.234.453-.672.734-1.156.734zm0 0"/></symbol><symbol id="t" overflow="visible"><path d="M1.719-3.984h1.437v-.313H1.72v-1.828h-.25c0 .813-.297 1.875-1.282 1.922v.219h.844v2.75c0 1.218.938 1.343 1.297 1.343.703 0 .985-.703.985-1.343v-.563h-.25v.547c0 .734-.297 1.11-.672 1.11-.672 0-.672-.907-.672-1.079zm0 0"/></symbol><symbol id="u" overflow="visible"><path d="M1.766-4.406l-1.391.11v.312c.64 0 .734.062.734.546V-.75c0 .438-.109.438-.78.438V0c.312-.016.859-.031 1.093-.031.36 0 .703.015 1.047.031v-.313c-.672 0-.703-.046-.703-.437zm.03-1.735a.514.514 0 0 0-.515-.53.537.537 0 0 0-.531.53c0 .266.219.532.531.532a.514.514 0 0 0 .516-.532zm0 0"/></symbol><symbol id="v" overflow="visible"><path d="M1.11-2.516C1.171-4 2.015-4.25 2.36-4.25c1.015 0 1.124 1.344 1.124 1.734zm0 .22h2.78c.22 0 .25 0 .25-.22 0-.984-.546-1.953-1.78-1.953C1.202-4.469.28-3.437.28-2.187.281-.86 1.328.108 2.47.108 3.688.11 4.14-1 4.14-1.187c0-.094-.079-.125-.141-.125-.078 0-.11.062-.125.14C3.531-.14 2.625-.14 2.531-.14c-.5 0-.89-.296-1.125-.671-.297-.47-.297-1.125-.297-1.485zm0 0"/></symbol><symbol id="w" overflow="visible"><path d="M1.672-3.313v-1.093l-1.39.11v.312c.702 0 .78.062.78.562V-.75c0 .438-.109.438-.78.438V0c.39-.016.859-.031 1.14-.031.39 0 .86 0 1.266.031v-.313h-.22c-.734 0-.75-.109-.75-.468v-1.531c0-.985.423-1.876 1.173-1.876.062 0 .093 0 .109.016-.031 0-.234.125-.234.39 0 .266.218.423.437.423a.421.421 0 0 0 .422-.438c0-.312-.313-.61-.734-.61-.735 0-1.094.673-1.22 1.095zm0 0"/></symbol><symbol id="x" overflow="visible"><path d="M3.484-3.875l-1.28-.297c-.626-.156-1-.687-1-1.266 0-.703.53-1.312 1.312-1.312 1.656 0 1.875 1.64 1.937 2.078.016.063.016.125.125.125.125 0 .125-.047.125-.234v-2c0-.172 0-.25-.11-.25-.062 0-.077.015-.14.14l-.36.563c-.296-.297-.702-.703-1.593-.703-1.11 0-1.938.875-1.938 1.937 0 .828.532 1.563 1.297 1.828.11.032.625.157 1.329.329.265.062.562.14.843.5.203.265.313.593.313.921 0 .704-.5 1.422-1.344 1.422-.281 0-1.047-.047-1.578-.531-.578-.547-.61-1.172-.61-1.531-.015-.11-.093-.11-.125-.11-.125 0-.125.079-.125.25v2c0 .172 0 .235.11.235.062 0 .078-.016.14-.125 0-.016.032-.047.36-.578.312.343.953.703 1.844.703 1.156 0 1.953-.969 1.953-2.078 0-.985-.657-1.813-1.485-2.016zm0 0"/></symbol><symbol id="y" overflow="visible"><path d="M1.172-2.172c0-1.625.812-2.047 1.344-2.047.093 0 .718.016 1.062.375-.406.031-.469.328-.469.453 0 .266.188.454.454.454.265 0 .468-.157.468-.47 0-.671-.765-1.062-1.531-1.062C1.25-4.469.344-3.39.344-2.156c0 1.281.984 2.265 2.14 2.265 1.329 0 1.657-1.203 1.657-1.296 0-.094-.11-.094-.141-.094-.078 0-.11.031-.125.093C3.594-.265 2.937-.14 2.578-.14c-.531 0-1.406-.421-1.406-2.03zm0 0"/></symbol><symbol id="z" overflow="visible"><path d="M1.094-.75c0 .438-.11.438-.782.438V0c.36-.016.86-.031 1.141-.031.25 0 .766.015 1.11.031v-.313c-.672 0-.782 0-.782-.437v-1.844c0-1.031.719-1.594 1.344-1.594.64 0 .75.532.75 1.11V-.75c0 .438-.11.438-.781.438V0c.344-.016.86-.031 1.125-.031.25 0 .781.015 1.11.031v-.313c-.516 0-.766 0-.766-.296v-1.907c0-.859 0-1.156-.313-1.515-.14-.172-.469-.375-1.047-.375-.844 0-1.281.593-1.453.984v-3.5l-1.438.11v.312c.704 0 .782.063.782.563zm0 0"/></symbol></defs><use height="744.094" width="1052.362" y="134.765" x="374.226" xlink:href="#p"/><use height="744.094" width="1052.362" y="134.765" x="379.238" xlink:href="#q"/><use height="744.094" width="1052.362" y="134.765" x="382.559" xlink:href="#r"/><use height="744.094" width="1052.362" y="134.765" x="388.094" xlink:href="#s"/><use height="744.094" width="1052.362" y="134.765" x="393.075" xlink:href="#t"/><use height="744.094" width="1052.362" y="134.765" x="396.95" xlink:href="#u"/><use height="744.094" width="1052.362" y="134.765" x="399.717" xlink:href="#v"/><use height="744.094" width="1052.362" y="134.765" x="404.144" xlink:href="#w"/><use height="744.094" width="1052.362" y="134.765" x="408.047" xlink:href="#t"/><use height="744.094" width="1052.362" y="134.765" x="411.921" xlink:href="#v"/><g><use height="744.094" width="1052.362" y="146.72" x="379.652" xlink:href="#x"/><use height="744.094" width="1052.362" y="146.72" x="385.187" xlink:href="#y"/></g><g><use height="744.094" width="1052.362" y="146.72" x="389.336" xlink:href="#z"/><use height="744.094" width="1052.362" y="146.72" x="394.871" xlink:href="#u"/><use height="744.094" width="1052.362" y="146.72" x="397.638" xlink:href="#y"/></g><g><use height="744.094" width="1052.362" y="146.72" x="401.787" xlink:href="#z"/></g><g><use height="744.094" width="1052.362" y="146.72" x="407.053" xlink:href="#t"/></g></g><g stroke="navy" stroke-width="1.515"><path d="M221.307 214.047c0 6.969-5.649 12.618-12.618 12.618s-12.618-5.65-12.618-12.618c0-6.97 5.65-12.619 12.618-12.619 6.969 0 12.618 5.65 12.618 12.619z" transform="matrix(-.34304 -.0541 -.05412 .34297 366.045 379.525)" fill="#fff" stroke="#2a7fff" stroke-width="4.075" stroke-linecap="square"/><text y="666.876" x="180.558" style="line-height:125%" font-size="30" font-weight="400" letter-spacing="0" word-spacing="0" fill="navy" stroke="#2a7fff" font-family="Sans" transform="matrix(-.46704 0 0 .46694 369.728 134.09)"><tspan y="666.876" x="180.558">-</tspan></text></g><g stroke="navy" stroke-width="1.515"><path transform="matrix(-.34304 -.0541 -.05412 .34297 459.13 392.556)" d="M221.307 214.047c0 6.969-5.649 12.618-12.618 12.618s-12.618-5.65-12.618-12.618c0-6.97 5.65-12.619 12.618-12.619 6.969 0 12.618 5.65 12.618 12.619z" fill="#fff" stroke="#2a7fff" stroke-width="4.075" stroke-linecap="square"/><text style="line-height:125%" x="180.558" y="666.876" font-size="30" font-weight="400" letter-spacing="0" word-spacing="0" fill="navy" stroke="#2a7fff" font-family="Sans" transform="matrix(-.46704 0 0 .46694 462.813 147.121)"><tspan x="180.558" y="666.876">-</tspan></text></g><g stroke="navy" stroke-width="1.515"><path d="M221.307 214.047c0 6.969-5.649 12.618-12.618 12.618s-12.618-5.65-12.618-12.618c0-6.97 5.65-12.619 12.618-12.619 6.969 0 12.618 5.65 12.618 12.619z" transform="matrix(-.34304 -.0541 -.05412 .34297 346.047 434.985)" fill="#fff" stroke="#2a7fff" stroke-width="4.075" stroke-linecap="square"/><text y="666.876" x="180.558" style="line-height:125%" font-size="30" font-weight="400" letter-spacing="0" word-spacing="0" fill="navy" stroke="#2a7fff" font-family="Sans" transform="matrix(-.46704 0 0 .46694 349.73 189.55)"><tspan y="666.876" x="180.558">-</tspan></text></g><g stroke="navy" stroke-width="1.515"><path transform="matrix(-.34304 -.0541 -.05412 .34297 345.087 514.058)" d="M221.307 214.047c0 6.969-5.649 12.618-12.618 12.618s-12.618-5.65-12.618-12.618c0-6.97 5.65-12.619 12.618-12.619 6.969 0 12.618 5.65 12.618 12.619z" fill="#fff" stroke="#2a7fff" stroke-width="4.075" stroke-linecap="square"/><text style="line-height:125%" x="180.558" y="666.876" font-size="30" font-weight="400" letter-spacing="0" word-spacing="0" fill="navy" stroke="#2a7fff" font-family="Sans" transform="matrix(-.46704 0 0 .46694 348.77 268.622)"><tspan x="180.558" y="666.876">-</tspan></text></g><g stroke="navy" stroke-width="1.515"><path d="M221.307 214.047c0 6.969-5.649 12.618-12.618 12.618s-12.618-5.65-12.618-12.618c0-6.97 5.65-12.619 12.618-12.619 6.969 0 12.618 5.65 12.618 12.619z" transform="matrix(-.34304 -.0541 -.05412 .34297 315.022 535.667)" fill="#fff" stroke="#2a7fff" stroke-width="4.075" stroke-linecap="square"/><text y="666.876" x="180.558" style="line-height:125%" font-size="30" font-weight="400" letter-spacing="0" word-spacing="0" fill="navy" stroke="#2a7fff" font-family="Sans" transform="matrix(-.46704 0 0 .46694 318.705 290.231)"><tspan y="666.876" x="180.558">-</tspan></text></g><g stroke="navy" stroke-width="1.515"><path transform="matrix(-.34304 -.0541 -.05412 .34297 462.82 590.804)" d="M221.307 214.047c0 6.969-5.649 12.618-12.618 12.618s-12.618-5.65-12.618-12.618c0-6.97 5.65-12.619 12.618-12.619 6.969 0 12.618 5.65 12.618 12.619z" fill="#fff" stroke="#2a7fff" stroke-width="4.075" stroke-linecap="square"/><text style="line-height:125%" x="180.558" y="666.876" font-size="30" font-weight="400" letter-spacing="0" word-spacing="0" fill="navy" stroke="#2a7fff" font-family="Sans" transform="matrix(-.46704 0 0 .46694 466.502 345.369)"><tspan x="180.558" y="666.876">-</tspan></text></g><g stroke="navy" stroke-width="1.515"><path d="M221.307 214.047c0 6.969-5.649 12.618-12.618 12.618s-12.618-5.65-12.618-12.618c0-6.97 5.65-12.619 12.618-12.619 6.969 0 12.618 5.65 12.618 12.619z" transform="matrix(-.34304 -.0541 -.05412 .34297 425.886 551.638)" fill="#fff" stroke="#2a7fff" stroke-width="4.075" stroke-linecap="square"/><text y="666.876" x="180.558" style="line-height:125%" font-size="30" font-weight="400" letter-spacing="0" word-spacing="0" fill="navy" stroke="#2a7fff" font-family="Sans" transform="matrix(-.46704 0 0 .46694 429.569 306.203)"><tspan y="666.876" x="180.558">-</tspan></text></g><g stroke="navy" stroke-width="1.515"><path transform="matrix(-.34304 -.0541 -.05412 .34297 352.973 559.497)" d="M221.307 214.047c0 6.969-5.649 12.618-12.618 12.618s-12.618-5.65-12.618-12.618c0-6.97 5.65-12.619 12.618-12.619 6.969 0 12.618 5.65 12.618 12.619z" fill="#fff" stroke="#2a7fff" stroke-width="4.075" stroke-linecap="square"/><text style="line-height:125%" x="180.558" y="666.876" font-size="30" font-weight="400" letter-spacing="0" word-spacing="0" fill="navy" stroke="#2a7fff" font-family="Sans" transform="matrix(-.46704 0 0 .46694 356.656 314.062)"><tspan x="180.558" y="666.876">-</tspan></text></g><g stroke="navy" stroke-width="1.515"><path d="M221.307 214.047c0 6.969-5.649 12.618-12.618 12.618s-12.618-5.65-12.618-12.618c0-6.97 5.65-12.619 12.618-12.619 6.969 0 12.618 5.65 12.618 12.619z" transform="matrix(-.34304 -.0541 -.05412 .34297 304.218 463.323)" fill="#fff" stroke="#2a7fff" stroke-width="4.075" stroke-linecap="square"/><text y="666.876" x="180.558" style="line-height:125%" font-size="30" font-weight="400" letter-spacing="0" word-spacing="0" fill="navy" stroke="#2a7fff" font-family="Sans" transform="matrix(-.46704 0 0 .46694 307.9 217.888)"><tspan y="666.876" x="180.558">-</tspan></text></g><g stroke="navy" stroke-width="1.515"><path transform="matrix(-.34304 -.0541 -.05412 .34297 407.813 411.872)" d="M221.307 214.047c0 6.969-5.649 12.618-12.618 12.618s-12.618-5.65-12.618-12.618c0-6.97 5.65-12.619 12.618-12.619 6.969 0 12.618 5.65 12.618 12.619z" fill="#fff" stroke="#2a7fff" stroke-width="4.075" stroke-linecap="square"/><text style="line-height:125%" x="180.558" y="666.876" font-size="30" font-weight="400" letter-spacing="0" word-spacing="0" fill="navy" stroke="#2a7fff" font-family="Sans" transform="matrix(-.46704 0 0 .46694 411.496 166.437)"><tspan x="180.558" y="666.876">-</tspan></text></g><g stroke="navy" stroke-width="1.515"><path transform="matrix(-.34304 -.0541 -.05412 .34297 304.004 602.378)" d="M221.307 214.047c0 6.969-5.649 12.618-12.618 12.618s-12.618-5.65-12.618-12.618c0-6.97 5.65-12.619 12.618-12.619 6.969 0 12.618 5.65 12.618 12.619z" fill="#fff" stroke="#2a7fff" stroke-width="4.075" stroke-linecap="square"/><text style="line-height:125%" x="180.558" y="666.876" font-size="30" font-weight="400" letter-spacing="0" word-spacing="0" fill="navy" stroke="#2a7fff" font-family="Sans" transform="matrix(-.46704 0 0 .46694 307.686 356.943)"><tspan x="180.558" y="666.876">-</tspan></text></g><path d="M759.899 441.555a4.329 4.329 0 1 1-8.658 0 4.329 4.329 0 0 1 8.658 0zM710.574 497.728a4.329 4.329 0 1 1-8.658 0 4.329 4.329 0 0 1 8.658 0zM680.979 440.887a4.329 4.329 0 1 1-8.658 0 4.329 4.329 0 0 1 8.658 0zM765.066 485.984a4.329 4.329 0 1 1-8.657 0 4.329 4.329 0 0 1 8.657 0zM840.697 522.626a4.329 4.329 0 1 1-8.657 0 4.329 4.329 0 0 1 8.657 0zM828.014 468.133a4.329 4.329 0 1 1-8.657 0 4.329 4.329 0 0 1 8.657 0zM792.312 548.463a4.329 4.329 0 1 1-8.657 0 4.329 4.329 0 0 1 8.657 0zM840.228 664.963a4.329 4.329 0 1 1-8.658 0 4.329 4.329 0 0 1 8.658 0zM701.648 618.457a4.329 4.329 0 1 1-8.657 0 4.329 4.329 0 0 1 8.657 0zM669.201 656.474a4.329 4.329 0 1 1-8.657 0 4.329 4.329 0 0 1 8.657 0zM789.024 594.5a4.329 4.329 0 1 1-8.658 0 4.329 4.329 0 0 1 8.658 0zM757.55 619.397a4.329 4.329 0 1 1-8.658 0 4.329 4.329 0 0 1 8.658 0zM731.565 669.694a4.329 4.329 0 1 1-8.657 0 4.329 4.329 0 0 1 8.657 0zM831.302 612.35a4.329 4.329 0 1 1-8.657 0 4.329 4.329 0 0 1 8.657 0z" fill="none" stroke="maroon" stroke-width="1.29861" stroke-linecap="round" stroke-dasharray="4.49999984,13.49999957"/><g stroke="navy" stroke-width="1.515"><path transform="matrix(-.34304 -.0541 -.05412 .34297 443.737 437.956)" d="M221.307 214.047c0 6.969-5.649 12.618-12.618 12.618s-12.618-5.65-12.618-12.618c0-6.97 5.65-12.619 12.618-12.619 6.969 0 12.618 5.65 12.618 12.619z" fill="#fff" stroke="#2a7fff" stroke-width="4.075" stroke-linecap="square"/><text style="line-height:125%" x="180.558" y="666.876" font-size="30" font-weight="400" letter-spacing="0" word-spacing="0" fill="navy" stroke="#2a7fff" font-family="Sans" transform="matrix(-.46704 0 0 .46694 447.42 192.521)"><tspan x="180.558" y="666.876">-</tspan></text></g><g stroke="navy" stroke-width="1.515"><path transform="matrix(-.34304 -.0541 -.05412 .34297 306.567 385.813)" d="M221.307 214.047c0 6.969-5.649 12.618-12.618 12.618s-12.618-5.65-12.618-12.618c0-6.97 5.65-12.619 12.618-12.619 6.969 0 12.618 5.65 12.618 12.619z" fill="#fff" stroke="#2a7fff" stroke-width="4.075" stroke-linecap="square"/><text style="line-height:125%" x="180.558" y="666.876" font-size="30" font-weight="400" letter-spacing="0" word-spacing="0" fill="navy" stroke="#2a7fff" font-family="Sans" transform="matrix(-.46704 0 0 .46694 310.25 140.378)"><tspan x="180.558" y="666.876">-</tspan></text></g><g stroke="navy" stroke-width="1.515"><path d="M221.307 214.047c0 6.969-5.649 12.618-12.618 12.618s-12.618-5.65-12.618-12.618c0-6.97 5.65-12.619 12.618-12.619 6.969 0 12.618 5.65 12.618 12.619z" transform="matrix(-.34304 -.0541 -.05412 .34297 398.27 579.716)" fill="#fff" stroke="#2a7fff" stroke-width="4.075" stroke-linecap="square"/><text y="666.876" x="180.558" style="line-height:125%" font-size="30" font-weight="400" letter-spacing="0" word-spacing="0" fill="navy" stroke="#2a7fff" font-family="Sans" transform="matrix(-.46704 0 0 .46694 401.953 334.28)"><tspan y="666.876" x="180.558">-</tspan></text></g><path style="marker:none" opacity=".15" color="#000" fill="#999" stroke="gray" stroke-width="1.5" stroke-linecap="round" stroke-linejoin="round" overflow="visible" d="M406.314 422.663h239.44v263.08h-239.44z"/><path d="M536.645 867.3h88.793M426.924 867.3h88.255" fill="none" stroke="#000" stroke-width="3" stroke-linecap="round"/><g fill="none" stroke="#000" stroke-width="3.836" stroke-linecap="round"><path d="M893.302 1257.256v-200.939M869.468 1120.08v73.413" transform="matrix(-.87907 0 0 .6959 1300.67 62.294)"/></g><g fill="none" stroke="#000" stroke-width="1.014" stroke-linecap="round"><path d="M456.531 813.546h29.04M471.052 797.383v29.04" stroke-width="2.9993004599999997"/></g><path d="M566.521 813.546h29.04M158.163 867.3h268.761M158.163 543.75h44.011M158.163 543.75V867.3M894.199 867.3H625.438M894.199 543.75l-44.304.235M894.199 543.75V867.3" fill="none" stroke="#000" stroke-width="3" stroke-linecap="round"/></g></svg>