<svg xmlns:ns0="http://www.iki.fi/pav/software/textext/" xmlns="http://www.w3.org/2000/svg" xmlns:xlink="http://www.w3.org/1999/xlink" width="1052.362" height="744.094"><title>n-Dotierung von Silicium</title><g transform="translate(0 -308.268)"><path fill="#fff" stroke="#fff" stroke-width="2" stroke-linecap="square" d="M897.435 516.705H154.928v327.22h742.507z"/><path style="marker:none" color="#000" fill="#ccc" stroke="gray" stroke-linecap="round" stroke-linejoin="round" overflow="visible" d="M202.32 548.775h647.721v263.08H202.32z"/><g id="c" stroke="#000"><path d="M332.857 189.505c0 18.147-14.71 32.857-32.857 32.857-18.146 0-32.857-14.71-32.857-32.857 0-18.146 14.71-32.857 32.857-32.857 18.146 0 32.857 14.71 32.857 32.857z" transform="matrix(-.65605 -.10348 -.1035 .65592 482.884 512.865)" fill="#fff" stroke-width="3.196" stroke-linecap="square"/><g transform="matrix(1.79533 0 0 1.79533 -143.447 370.353)" ns0:preamble="/home/waldgeist/data/sphinx/test.tex" ns0:text="$\\ce{Si}$"><defs><symbol id="a" overflow="visible"><path d="M3.484-3.875l-1.28-.297c-.626-.156-1-.687-1-1.266 0-.703.53-1.312 1.312-1.312 1.656 0 1.875 1.64 1.937 2.078.016.063.016.125.125.125.125 0 .125-.047.125-.234v-2c0-.172 0-.25-.11-.25-.062 0-.077.015-.14.14l-.36.563c-.296-.297-.702-.703-1.593-.703-1.11 0-1.938.875-1.938 1.937 0 .828.532 1.563 1.297 1.828.11.032.625.157 1.329.329.265.062.562.14.843.5.203.265.313.593.313.921 0 .704-.5 1.422-1.344 1.422-.281 0-1.047-.047-1.578-.531-.578-.547-.61-1.172-.61-1.531-.015-.11-.093-.11-.125-.11-.125 0-.125.079-.125.25v2c0 .172 0 .235.11.235.062 0 .078-.016.14-.125 0-.016.032-.047.36-.578.312.343.953.703 1.844.703 1.156 0 1.953-.969 1.953-2.078 0-.985-.657-1.813-1.485-2.016zm0 0" stroke="none"/></symbol><symbol id="b" overflow="visible"><path d="M1.766-4.406l-1.391.11v.312c.64 0 .734.062.734.546V-.75c0 .438-.109.438-.78.438V0c.312-.016.859-.031 1.093-.031.36 0 .703.015 1.047.031v-.313c-.672 0-.703-.046-.703-.437zm.03-1.735a.514.514 0 0 0-.515-.53.537.537 0 0 0-.531.53c0 .266.219.532.531.532a.514.514 0 0 0 .516-.532zm0 0" stroke="none"/></symbol></defs><use y="134.765" x="223.432" xlink:href="#a" width="1052.362" height="744.094"/><use y="134.765" x="228.967" xlink:href="#b" width="1052.362" height="744.094"/></g></g><use transform="translate(0 74.193)" xlink:href="#c" width="1052.362" height="744.094" stroke="#000"/><use transform="translate(0 148.385)" xlink:href="#c" width="1052.362" height="744.094" stroke="#000"/><use transform="translate(74.207 74.193)" xlink:href="#c" width="1052.362" height="744.094" stroke="#000"/><use transform="translate(74.207 148.385)" xlink:href="#c" width="1052.362" height="744.094" stroke="#000"/><use transform="translate(148.414)" xlink:href="#c" width="1052.362" height="744.094" stroke="#000"/><use transform="translate(148.414 74.193)" xlink:href="#c" width="1052.362" height="744.094" stroke="#000"/><use transform="translate(148.414 148.385)" xlink:href="#c" width="1052.362" height="744.094" stroke="#000"/><use transform="translate(222.621)" xlink:href="#c" width="1052.362" height="744.094" stroke="#000"/><use transform="translate(222.621 74.193)" xlink:href="#c" width="1052.362" height="744.094" stroke="#000"/><use transform="translate(222.621 148.385)" xlink:href="#c" width="1052.362" height="744.094" stroke="#000"/><use transform="translate(296.829)" xlink:href="#c" width="1052.362" height="744.094" stroke="#000"/><use transform="translate(296.829 74.193)" xlink:href="#c" width="1052.362" height="744.094" stroke="#000"/><use transform="translate(296.829 148.385)" xlink:href="#c" width="1052.362" height="744.094" stroke="#000"/><use transform="translate(371.036)" xlink:href="#c" width="1052.362" height="744.094" stroke="#000"/><use transform="translate(371.036 74.193)" xlink:href="#c" width="1052.362" height="744.094" stroke="#000"/><use transform="translate(371.036 148.385)" xlink:href="#c" width="1052.362" height="744.094" stroke="#000"/><use transform="translate(445.243 148.385)" xlink:href="#c" width="1052.362" height="744.094" stroke="#000"/><use transform="translate(445.243)" xlink:href="#c" width="1052.362" height="744.094" stroke="#000"/><use transform="translate(519.45)" xlink:href="#c" width="1052.362" height="744.094" stroke="#000"/><use transform="translate(519.45 74.193)" xlink:href="#c" width="1052.362" height="744.094" stroke="#000"/><use transform="translate(519.45 148.385)" xlink:href="#c" width="1052.362" height="744.094" stroke="#000"/><g id="d" stroke="navy" stroke-width="1.515"><path transform="matrix(-.34304 -.0541 -.05412 .34297 349.629 574.124)" d="M221.307 214.047c0 6.969-5.649 12.618-12.618 12.618s-12.618-5.65-12.618-12.618c0-6.97 5.65-12.619 12.618-12.619 6.969 0 12.618 5.65 12.618 12.619z" fill="#fff" stroke-width="4.075" stroke-linecap="square"/><text style="line-height:125%" x="180.558" y="666.876" font-size="30" font-weight="400" letter-spacing="0" word-spacing="0" fill="navy" font-family="Sans" transform="matrix(-.46704 0 0 .46694 353.312 328.689)"><tspan x="180.558" y="666.876">-</tspan></text><g><path d="M221.307 214.047c0 6.969-5.649 12.618-12.618 12.618s-12.618-5.65-12.618-12.618c0-6.97 5.65-12.619 12.618-12.619 6.969 0 12.618 5.65 12.618 12.619z" transform="matrix(-.34304 -.0541 -.05412 .34297 349.629 587.63)" fill="#fff" stroke-width="4.075" stroke-linecap="square"/><text y="666.876" x="180.558" style="line-height:125%" font-size="30" font-weight="400" letter-spacing="0" word-spacing="0" fill="navy" font-family="Sans" transform="matrix(-.46704 0 0 .46694 353.312 342.194)"><tspan y="666.876" x="180.558">-</tspan></text></g></g><use height="744.094" width="1052.362" transform="translate(519.45 148.615)" xlink:href="#d" stroke="#000"/><use height="744.094" width="1052.362" transform="translate(0 74.106)" xlink:href="#d" stroke="#000"/><use height="744.094" width="1052.362" transform="translate(222.621)" xlink:href="#d" stroke="#000"/><use height="744.094" width="1052.362" transform="translate(371.036 148.615)" xlink:href="#d" stroke="#000"/><use height="744.094" width="1052.362" transform="translate(296.829 148.615)" xlink:href="#d" stroke="#000"/><use height="744.094" width="1052.362" transform="translate(519.45)" xlink:href="#d" stroke="#000"/><use height="744.094" width="1052.362" transform="translate(445.243 74.106)" xlink:href="#d" stroke="#000"/><use height="744.094" width="1052.362" transform="translate(222.621 148.615)" xlink:href="#d" stroke="#000"/><use height="744.094" width="1052.362" transform="translate(445.243)" xlink:href="#d" stroke="#000"/><use height="744.094" width="1052.362" transform="translate(371.036)" xlink:href="#d" stroke="#000"/><use height="744.094" width="1052.362" transform="translate(371.036 74.106)" xlink:href="#d" stroke="#000"/><use height="744.094" width="1052.362" transform="translate(519.45 74.106)" xlink:href="#d" stroke="#000"/><use height="744.094" width="1052.362" transform="translate(0 148.615)" xlink:href="#d" stroke="#000"/><use height="744.094" width="1052.362" transform="translate(74.207 148.615)" xlink:href="#d" stroke="#000"/><use height="744.094" width="1052.362" transform="translate(73.365)" xlink:href="#d" stroke="#000"/><use height="744.094" width="1052.362" transform="translate(148.414 148.615)" xlink:href="#d" stroke="#000"/><use height="744.094" width="1052.362" transform="translate(73.365 74.106)" xlink:href="#d" stroke="#000"/><use height="744.094" width="1052.362" transform="translate(445.243 148.615)" xlink:href="#d" stroke="#000"/><use height="744.094" width="1052.362" transform="translate(222.621 74.106)" xlink:href="#d" stroke="#000"/><use height="744.094" width="1052.362" transform="translate(296.829)" xlink:href="#d" stroke="#000"/><use height="744.094" width="1052.362" transform="translate(148.414)" xlink:href="#d" stroke="#000"/><use height="744.094" width="1052.362" transform="translate(148.414 74.106)" xlink:href="#d" stroke="#000"/><use height="744.094" width="1052.362" transform="translate(296.829 74.106)" xlink:href="#d" stroke="#000"/><use height="744.094" width="1052.362" transform="translate(0 -73.98)" xlink:href="#d"/><use height="744.094" width="1052.362" transform="translate(74.207 -73.98)" xlink:href="#d"/><use height="744.094" width="1052.362" transform="translate(148.414 -73.98)" xlink:href="#d"/><use height="744.094" width="1052.362" transform="translate(222.621 -73.98)" xlink:href="#d"/><use height="744.094" width="1052.362" transform="translate(296.829 -73.98)" xlink:href="#d"/><use height="744.094" width="1052.362" transform="translate(371.036 -73.98)" xlink:href="#d"/><use height="744.094" width="1052.362" transform="translate(445.243 -73.98)" xlink:href="#d"/><use height="744.094" width="1052.362" transform="translate(519.45 -73.98)" xlink:href="#d"/><g stroke="navy" stroke-width="1.515"><path transform="matrix(-.34304 -.0541 -.05412 .34297 379.98 544.001)" d="M221.307 214.047c0 6.969-5.649 12.618-12.618 12.618s-12.618-5.65-12.618-12.618c0-6.97 5.65-12.619 12.618-12.619 6.969 0 12.618 5.65 12.618 12.619z" fill="#fff" stroke-width="4.075" stroke-linecap="square"/><text style="line-height:125%" x="180.558" y="666.876" font-size="30" font-weight="400" letter-spacing="0" word-spacing="0" fill="navy" font-family="Sans" transform="matrix(-.46704 0 0 .46694 383.663 298.566)"><tspan x="180.558" y="666.876">-</tspan></text></g><g stroke="navy" stroke-width="1.515"><path d="M221.307 214.047c0 6.969-5.649 12.618-12.618 12.618s-12.618-5.65-12.618-12.618c0-6.97 5.65-12.619 12.618-12.619 6.969 0 12.618 5.65 12.618 12.619z" transform="matrix(-.34304 -.0541 -.05412 .34297 393.484 544.001)" fill="#fff" stroke-width="4.075" stroke-linecap="square"/><text y="666.876" x="180.558" style="line-height:125%" font-size="30" font-weight="400" letter-spacing="0" word-spacing="0" fill="navy" font-family="Sans" transform="matrix(-.46704 0 0 .46694 397.167 298.566)"><tspan y="666.876" x="180.558">-</tspan></text></g><g stroke="navy" stroke-width="1.515"><path transform="matrix(-.34304 -.0541 -.05412 .34297 379.98 618.194)" d="M221.307 214.047c0 6.969-5.649 12.618-12.618 12.618s-12.618-5.65-12.618-12.618c0-6.97 5.65-12.619 12.618-12.619 6.969 0 12.618 5.65 12.618 12.619z" fill="#fff" stroke-width="4.075" stroke-linecap="square"/><text style="line-height:125%" x="180.558" y="666.876" font-size="30" font-weight="400" letter-spacing="0" word-spacing="0" fill="navy" font-family="Sans" transform="matrix(-.46704 0 0 .46694 383.663 372.759)"><tspan x="180.558" y="666.876">-</tspan></text><g><path d="M221.307 214.047c0 6.969-5.649 12.618-12.618 12.618s-12.618-5.65-12.618-12.618c0-6.97 5.65-12.619 12.618-12.619 6.969 0 12.618 5.65 12.618 12.619z" transform="matrix(-.34304 -.0541 -.05412 .34297 393.484 618.194)" fill="#fff" stroke-width="4.075" stroke-linecap="square"/><text y="666.876" x="180.558" style="line-height:125%" font-size="30" font-weight="400" letter-spacing="0" word-spacing="0" fill="navy" font-family="Sans" transform="matrix(-.46704 0 0 .46694 397.167 372.759)"><tspan y="666.876" x="180.558">-</tspan></text></g></g><g stroke="navy" stroke-width="1.515"><path transform="matrix(-.34304 -.0541 -.05412 .34297 379.98 692.387)" d="M221.307 214.047c0 6.969-5.649 12.618-12.618 12.618s-12.618-5.65-12.618-12.618c0-6.97 5.65-12.619 12.618-12.619 6.969 0 12.618 5.65 12.618 12.619z" fill="#fff" stroke-width="4.075" stroke-linecap="square"/><text style="line-height:125%" x="180.558" y="666.876" font-size="30" font-weight="400" letter-spacing="0" word-spacing="0" fill="navy" font-family="Sans" transform="matrix(-.46704 0 0 .46694 383.663 446.952)"><tspan x="180.558" y="666.876">-</tspan></text><g><path d="M221.307 214.047c0 6.969-5.649 12.618-12.618 12.618s-12.618-5.65-12.618-12.618c0-6.97 5.65-12.619 12.618-12.619 6.969 0 12.618 5.65 12.618 12.619z" transform="matrix(-.34304 -.0541 -.05412 .34297 393.484 692.387)" fill="#fff" stroke-width="4.075" stroke-linecap="square"/><text y="666.876" x="180.558" style="line-height:125%" font-size="30" font-weight="400" letter-spacing="0" word-spacing="0" fill="navy" font-family="Sans" transform="matrix(-.46704 0 0 .46694 397.167 446.952)"><tspan y="666.876" x="180.558">-</tspan></text></g></g><g stroke="navy" stroke-width="1.515"><path transform="matrix(-.34304 -.0541 -.05412 .34297 602.602 618.194)" d="M221.307 214.047c0 6.969-5.649 12.618-12.618 12.618s-12.618-5.65-12.618-12.618c0-6.97 5.65-12.619 12.618-12.619 6.969 0 12.618 5.65 12.618 12.619z" fill="#fff" stroke-width="4.075" stroke-linecap="square"/><text style="line-height:125%" x="180.558" y="666.876" font-size="30" font-weight="400" letter-spacing="0" word-spacing="0" fill="navy" font-family="Sans" transform="matrix(-.46704 0 0 .46694 606.285 372.759)"><tspan x="180.558" y="666.876">-</tspan></text><g><path d="M221.307 214.047c0 6.969-5.649 12.618-12.618 12.618s-12.618-5.65-12.618-12.618c0-6.97 5.65-12.619 12.618-12.619 6.969 0 12.618 5.65 12.618 12.619z" transform="matrix(-.34304 -.0541 -.05412 .34297 616.106 618.194)" fill="#fff" stroke-width="4.075" stroke-linecap="square"/><text y="666.876" x="180.558" style="line-height:125%" font-size="30" font-weight="400" letter-spacing="0" word-spacing="0" fill="navy" font-family="Sans" transform="matrix(-.46704 0 0 .46694 619.789 372.759)"><tspan y="666.876" x="180.558">-</tspan></text></g></g><g stroke="navy" stroke-width="1.515"><path transform="matrix(-.34304 -.0541 -.05412 .34297 454.188 618.194)" d="M221.307 214.047c0 6.969-5.649 12.618-12.618 12.618s-12.618-5.65-12.618-12.618c0-6.97 5.65-12.619 12.618-12.619 6.969 0 12.618 5.65 12.618 12.619z" fill="#fff" stroke-width="4.075" stroke-linecap="square"/><text style="line-height:125%" x="180.558" y="666.876" font-size="30" font-weight="400" letter-spacing="0" word-spacing="0" fill="navy" font-family="Sans" transform="matrix(-.46704 0 0 .46694 457.87 372.759)"><tspan x="180.558" y="666.876">-</tspan></text><g><path d="M221.307 214.047c0 6.969-5.649 12.618-12.618 12.618s-12.618-5.65-12.618-12.618c0-6.97 5.65-12.619 12.618-12.619 6.969 0 12.618 5.65 12.618 12.619z" transform="matrix(-.34304 -.0541 -.05412 .34297 467.692 618.194)" fill="#fff" stroke-width="4.075" stroke-linecap="square"/><text y="666.876" x="180.558" style="line-height:125%" font-size="30" font-weight="400" letter-spacing="0" word-spacing="0" fill="navy" font-family="Sans" transform="matrix(-.46704 0 0 .46694 471.374 372.759)"><tspan y="666.876" x="180.558">-</tspan></text></g></g><g stroke="navy" stroke-width="1.515"><path transform="matrix(-.34304 -.0541 -.05412 .34297 528.395 692.387)" d="M221.307 214.047c0 6.969-5.649 12.618-12.618 12.618s-12.618-5.65-12.618-12.618c0-6.97 5.65-12.619 12.618-12.619 6.969 0 12.618 5.65 12.618 12.619z" fill="#fff" stroke-width="4.075" stroke-linecap="square"/><text style="line-height:125%" x="180.558" y="666.876" font-size="30" font-weight="400" letter-spacing="0" word-spacing="0" fill="navy" font-family="Sans" transform="matrix(-.46704 0 0 .46694 532.078 446.952)"><tspan x="180.558" y="666.876">-</tspan></text><g><path d="M221.307 214.047c0 6.969-5.649 12.618-12.618 12.618s-12.618-5.65-12.618-12.618c0-6.97 5.65-12.619 12.618-12.619 6.969 0 12.618 5.65 12.618 12.619z" transform="matrix(-.34304 -.0541 -.05412 .34297 541.899 692.387)" fill="#fff" stroke-width="4.075" stroke-linecap="square"/><text y="666.876" x="180.558" style="line-height:125%" font-size="30" font-weight="400" letter-spacing="0" word-spacing="0" fill="navy" font-family="Sans" transform="matrix(-.46704 0 0 .46694 545.582 446.952)"><tspan y="666.876" x="180.558">-</tspan></text></g></g><g stroke="navy" stroke-width="1.515"><path transform="matrix(-.34304 -.0541 -.05412 .34297 454.188 544.001)" d="M221.307 214.047c0 6.969-5.649 12.618-12.618 12.618s-12.618-5.65-12.618-12.618c0-6.97 5.65-12.619 12.618-12.619 6.969 0 12.618 5.65 12.618 12.619z" fill="#fff" stroke-width="4.075" stroke-linecap="square"/><text style="line-height:125%" x="180.558" y="666.876" font-size="30" font-weight="400" letter-spacing="0" word-spacing="0" fill="navy" font-family="Sans" transform="matrix(-.46704 0 0 .46694 457.87 298.566)"><tspan x="180.558" y="666.876">-</tspan></text><g><path d="M221.307 214.047c0 6.969-5.649 12.618-12.618 12.618s-12.618-5.65-12.618-12.618c0-6.97 5.65-12.619 12.618-12.619 6.969 0 12.618 5.65 12.618 12.619z" transform="matrix(-.34304 -.0541 -.05412 .34297 467.692 544.001)" fill="#fff" stroke-width="4.075" stroke-linecap="square"/><text y="666.876" x="180.558" style="line-height:125%" font-size="30" font-weight="400" letter-spacing="0" word-spacing="0" fill="navy" font-family="Sans" transform="matrix(-.46704 0 0 .46694 471.374 298.566)"><tspan y="666.876" x="180.558">-</tspan></text></g></g><g stroke="navy" stroke-width="1.515"><path transform="matrix(-.34304 -.0541 -.05412 .34297 454.188 692.387)" d="M221.307 214.047c0 6.969-5.649 12.618-12.618 12.618s-12.618-5.65-12.618-12.618c0-6.97 5.65-12.619 12.618-12.619 6.969 0 12.618 5.65 12.618 12.619z" fill="#fff" stroke-width="4.075" stroke-linecap="square"/><text style="line-height:125%" x="180.558" y="666.876" font-size="30" font-weight="400" letter-spacing="0" word-spacing="0" fill="navy" font-family="Sans" transform="matrix(-.46704 0 0 .46694 457.87 446.952)"><tspan x="180.558" y="666.876">-</tspan></text><g><path d="M221.307 214.047c0 6.969-5.649 12.618-12.618 12.618s-12.618-5.65-12.618-12.618c0-6.97 5.65-12.619 12.618-12.619 6.969 0 12.618 5.65 12.618 12.619z" transform="matrix(-.34304 -.0541 -.05412 .34297 467.692 692.387)" fill="#fff" stroke-width="4.075" stroke-linecap="square"/><text y="666.876" x="180.558" style="line-height:125%" font-size="30" font-weight="400" letter-spacing="0" word-spacing="0" fill="navy" font-family="Sans" transform="matrix(-.46704 0 0 .46694 471.374 446.952)"><tspan y="666.876" x="180.558">-</tspan></text></g></g><g stroke="navy" stroke-width="1.515"><path transform="matrix(-.34304 -.0541 -.05412 .34297 528.395 618.194)" d="M221.307 214.047c0 6.969-5.649 12.618-12.618 12.618s-12.618-5.65-12.618-12.618c0-6.97 5.65-12.619 12.618-12.619 6.969 0 12.618 5.65 12.618 12.619z" fill="#fff" stroke-width="4.075" stroke-linecap="square"/><text style="line-height:125%" x="180.558" y="666.876" font-size="30" font-weight="400" letter-spacing="0" word-spacing="0" fill="navy" font-family="Sans" transform="matrix(-.46704 0 0 .46694 532.078 372.759)"><tspan x="180.558" y="666.876">-</tspan></text><g><path d="M221.307 214.047c0 6.969-5.649 12.618-12.618 12.618s-12.618-5.65-12.618-12.618c0-6.97 5.65-12.619 12.618-12.619 6.969 0 12.618 5.65 12.618 12.619z" transform="matrix(-.34304 -.0541 -.05412 .34297 541.899 618.194)" fill="#fff" stroke-width="4.075" stroke-linecap="square"/><text y="666.876" x="180.558" style="line-height:125%" font-size="30" font-weight="400" letter-spacing="0" word-spacing="0" fill="navy" font-family="Sans" transform="matrix(-.46704 0 0 .46694 545.582 372.759)"><tspan y="666.876" x="180.558">-</tspan></text></g></g><g stroke="navy" stroke-width="1.515"><path transform="matrix(-.34304 -.0541 -.05412 .34297 751.016 692.387)" d="M221.307 214.047c0 6.969-5.649 12.618-12.618 12.618s-12.618-5.65-12.618-12.618c0-6.97 5.65-12.619 12.618-12.619 6.969 0 12.618 5.65 12.618 12.619z" fill="#fff" stroke-width="4.075" stroke-linecap="square"/><text style="line-height:125%" x="180.558" y="666.876" font-size="30" font-weight="400" letter-spacing="0" word-spacing="0" fill="navy" font-family="Sans" transform="matrix(-.46704 0 0 .46694 754.7 446.952)"><tspan x="180.558" y="666.876">-</tspan></text><g><path d="M221.307 214.047c0 6.969-5.649 12.618-12.618 12.618s-12.618-5.65-12.618-12.618c0-6.97 5.65-12.619 12.618-12.619 6.969 0 12.618 5.65 12.618 12.619z" transform="matrix(-.34304 -.0541 -.05412 .34297 764.52 692.387)" fill="#fff" stroke-width="4.075" stroke-linecap="square"/><text y="666.876" x="180.558" style="line-height:125%" font-size="30" font-weight="400" letter-spacing="0" word-spacing="0" fill="navy" font-family="Sans" transform="matrix(-.46704 0 0 .46694 768.203 446.952)"><tspan y="666.876" x="180.558">-</tspan></text></g></g><g stroke="navy" stroke-width="1.515"><path transform="matrix(-.34304 -.0541 -.05412 .34297 602.602 692.387)" d="M221.307 214.047c0 6.969-5.649 12.618-12.618 12.618s-12.618-5.65-12.618-12.618c0-6.97 5.65-12.619 12.618-12.619 6.969 0 12.618 5.65 12.618 12.619z" fill="#fff" stroke-width="4.075" stroke-linecap="square"/><text style="line-height:125%" x="180.558" y="666.876" font-size="30" font-weight="400" letter-spacing="0" word-spacing="0" fill="navy" font-family="Sans" transform="matrix(-.46704 0 0 .46694 606.285 446.952)"><tspan x="180.558" y="666.876">-</tspan></text><g><path d="M221.307 214.047c0 6.969-5.649 12.618-12.618 12.618s-12.618-5.65-12.618-12.618c0-6.97 5.65-12.619 12.618-12.619 6.969 0 12.618 5.65 12.618 12.619z" transform="matrix(-.34304 -.0541 -.05412 .34297 616.106 692.387)" fill="#fff" stroke-width="4.075" stroke-linecap="square"/><text y="666.876" x="180.558" style="line-height:125%" font-size="30" font-weight="400" letter-spacing="0" word-spacing="0" fill="navy" font-family="Sans" transform="matrix(-.46704 0 0 .46694 619.789 446.952)"><tspan y="666.876" x="180.558">-</tspan></text></g></g><g stroke="navy" stroke-width="1.515"><path transform="matrix(-.34304 -.0541 -.05412 .34297 676.81 618.194)" d="M221.307 214.047c0 6.969-5.649 12.618-12.618 12.618s-12.618-5.65-12.618-12.618c0-6.97 5.65-12.619 12.618-12.619 6.969 0 12.618 5.65 12.618 12.619z" fill="#fff" stroke-width="4.075" stroke-linecap="square"/><text style="line-height:125%" x="180.558" y="666.876" font-size="30" font-weight="400" letter-spacing="0" word-spacing="0" fill="navy" font-family="Sans" transform="matrix(-.46704 0 0 .46694 680.492 372.759)"><tspan x="180.558" y="666.876">-</tspan></text><g><path d="M221.307 214.047c0 6.969-5.649 12.618-12.618 12.618s-12.618-5.65-12.618-12.618c0-6.97 5.65-12.619 12.618-12.619 6.969 0 12.618 5.65 12.618 12.619z" transform="matrix(-.34304 -.0541 -.05412 .34297 690.313 618.194)" fill="#fff" stroke-width="4.075" stroke-linecap="square"/><text y="666.876" x="180.558" style="line-height:125%" font-size="30" font-weight="400" letter-spacing="0" word-spacing="0" fill="navy" font-family="Sans" transform="matrix(-.46704 0 0 .46694 693.996 372.759)"><tspan y="666.876" x="180.558">-</tspan></text></g></g><g stroke="navy" stroke-width="1.515"><path transform="matrix(-.34304 -.0541 -.05412 .34297 528.395 544.001)" d="M221.307 214.047c0 6.969-5.649 12.618-12.618 12.618s-12.618-5.65-12.618-12.618c0-6.97 5.65-12.619 12.618-12.619 6.969 0 12.618 5.65 12.618 12.619z" fill="#fff" stroke-width="4.075" stroke-linecap="square"/><text style="line-height:125%" x="180.558" y="666.876" font-size="30" font-weight="400" letter-spacing="0" word-spacing="0" fill="navy" font-family="Sans" transform="matrix(-.46704 0 0 .46694 532.078 298.566)"><tspan x="180.558" y="666.876">-</tspan></text><g><path d="M221.307 214.047c0 6.969-5.649 12.618-12.618 12.618s-12.618-5.65-12.618-12.618c0-6.97 5.65-12.619 12.618-12.619 6.969 0 12.618 5.65 12.618 12.619z" transform="matrix(-.34304 -.0541 -.05412 .34297 541.899 544.001)" fill="#fff" stroke-width="4.075" stroke-linecap="square"/><text y="666.876" x="180.558" style="line-height:125%" font-size="30" font-weight="400" letter-spacing="0" word-spacing="0" fill="navy" font-family="Sans" transform="matrix(-.46704 0 0 .46694 545.582 298.566)"><tspan y="666.876" x="180.558">-</tspan></text></g></g><g stroke="navy" stroke-width="1.515"><path transform="matrix(-.34304 -.0541 -.05412 .34297 676.81 692.387)" d="M221.307 214.047c0 6.969-5.649 12.618-12.618 12.618s-12.618-5.65-12.618-12.618c0-6.97 5.65-12.619 12.618-12.619 6.969 0 12.618 5.65 12.618 12.619z" fill="#fff" stroke-width="4.075" stroke-linecap="square"/><text style="line-height:125%" x="180.558" y="666.876" font-size="30" font-weight="400" letter-spacing="0" word-spacing="0" fill="navy" font-family="Sans" transform="matrix(-.46704 0 0 .46694 680.492 446.952)"><tspan x="180.558" y="666.876">-</tspan></text><g><path d="M221.307 214.047c0 6.969-5.649 12.618-12.618 12.618s-12.618-5.65-12.618-12.618c0-6.97 5.65-12.619 12.618-12.619 6.969 0 12.618 5.65 12.618 12.619z" transform="matrix(-.34304 -.0541 -.05412 .34297 690.313 692.387)" fill="#fff" stroke-width="4.075" stroke-linecap="square"/><text y="666.876" x="180.558" style="line-height:125%" font-size="30" font-weight="400" letter-spacing="0" word-spacing="0" fill="navy" font-family="Sans" transform="matrix(-.46704 0 0 .46694 693.996 446.952)"><tspan y="666.876" x="180.558">-</tspan></text></g></g><g stroke="navy" stroke-width="1.515"><path transform="matrix(-.34304 -.0541 -.05412 .34297 676.81 544.001)" d="M221.307 214.047c0 6.969-5.649 12.618-12.618 12.618s-12.618-5.65-12.618-12.618c0-6.97 5.65-12.619 12.618-12.619 6.969 0 12.618 5.65 12.618 12.619z" fill="#fff" stroke-width="4.075" stroke-linecap="square"/><text style="line-height:125%" x="180.558" y="666.876" font-size="30" font-weight="400" letter-spacing="0" word-spacing="0" fill="navy" font-family="Sans" transform="matrix(-.46704 0 0 .46694 680.492 298.566)"><tspan x="180.558" y="666.876">-</tspan></text><g><path d="M221.307 214.047c0 6.969-5.649 12.618-12.618 12.618s-12.618-5.65-12.618-12.618c0-6.97 5.65-12.619 12.618-12.619 6.969 0 12.618 5.65 12.618 12.619z" transform="matrix(-.34304 -.0541 -.05412 .34297 690.313 544.001)" fill="#fff" stroke-width="4.075" stroke-linecap="square"/><text y="666.876" x="180.558" style="line-height:125%" font-size="30" font-weight="400" letter-spacing="0" word-spacing="0" fill="navy" font-family="Sans" transform="matrix(-.46704 0 0 .46694 693.996 298.566)"><tspan y="666.876" x="180.558">-</tspan></text></g></g><g stroke="navy" stroke-width="1.515"><path transform="matrix(-.34304 -.0541 -.05412 .34297 751.016 544.001)" d="M221.307 214.047c0 6.969-5.649 12.618-12.618 12.618s-12.618-5.65-12.618-12.618c0-6.97 5.65-12.619 12.618-12.619 6.969 0 12.618 5.65 12.618 12.619z" fill="#fff" stroke-width="4.075" stroke-linecap="square"/><text style="line-height:125%" x="180.558" y="666.876" font-size="30" font-weight="400" letter-spacing="0" word-spacing="0" fill="navy" font-family="Sans" transform="matrix(-.46704 0 0 .46694 754.7 298.566)"><tspan x="180.558" y="666.876">-</tspan></text><g><path d="M221.307 214.047c0 6.969-5.649 12.618-12.618 12.618s-12.618-5.65-12.618-12.618c0-6.97 5.65-12.619 12.618-12.619 6.969 0 12.618 5.65 12.618 12.619z" transform="matrix(-.34304 -.0541 -.05412 .34297 764.52 544.001)" fill="#fff" stroke-width="4.075" stroke-linecap="square"/><text y="666.876" x="180.558" style="line-height:125%" font-size="30" font-weight="400" letter-spacing="0" word-spacing="0" fill="navy" font-family="Sans" transform="matrix(-.46704 0 0 .46694 768.203 298.566)"><tspan y="666.876" x="180.558">-</tspan></text></g></g><g stroke="navy" stroke-width="1.515"><path transform="matrix(-.34304 -.0541 -.05412 .34297 751.016 618.194)" d="M221.307 214.047c0 6.969-5.649 12.618-12.618 12.618s-12.618-5.65-12.618-12.618c0-6.97 5.65-12.619 12.618-12.619 6.969 0 12.618 5.65 12.618 12.619z" fill="#fff" stroke-width="4.075" stroke-linecap="square"/><text style="line-height:125%" x="180.558" y="666.876" font-size="30" font-weight="400" letter-spacing="0" word-spacing="0" fill="navy" font-family="Sans" transform="matrix(-.46704 0 0 .46694 754.7 372.759)"><tspan x="180.558" y="666.876">-</tspan></text><g><path d="M221.307 214.047c0 6.969-5.649 12.618-12.618 12.618s-12.618-5.65-12.618-12.618c0-6.97 5.65-12.619 12.618-12.619 6.969 0 12.618 5.65 12.618 12.619z" transform="matrix(-.34304 -.0541 -.05412 .34297 764.52 618.194)" fill="#fff" stroke-width="4.075" stroke-linecap="square"/><text y="666.876" x="180.558" style="line-height:125%" font-size="30" font-weight="400" letter-spacing="0" word-spacing="0" fill="navy" font-family="Sans" transform="matrix(-.46704 0 0 .46694 768.203 372.759)"><tspan y="666.876" x="180.558">-</tspan></text></g></g><g stroke="navy" stroke-width="1.515"><path transform="matrix(-.34304 -.0541 -.05412 .34297 825.224 692.387)" d="M221.307 214.047c0 6.969-5.649 12.618-12.618 12.618s-12.618-5.65-12.618-12.618c0-6.97 5.65-12.619 12.618-12.619 6.969 0 12.618 5.65 12.618 12.619z" fill="#fff" stroke-width="4.075" stroke-linecap="square"/><text style="line-height:125%" x="180.558" y="666.876" font-size="30" font-weight="400" letter-spacing="0" word-spacing="0" fill="navy" font-family="Sans" transform="matrix(-.46704 0 0 .46694 828.906 446.952)"><tspan x="180.558" y="666.876">-</tspan></text><g><path d="M221.307 214.047c0 6.969-5.649 12.618-12.618 12.618s-12.618-5.65-12.618-12.618c0-6.97 5.65-12.619 12.618-12.619 6.969 0 12.618 5.65 12.618 12.619z" transform="matrix(-.34304 -.0541 -.05412 .34297 838.727 692.387)" fill="#fff" stroke-width="4.075" stroke-linecap="square"/><text y="666.876" x="180.558" style="line-height:125%" font-size="30" font-weight="400" letter-spacing="0" word-spacing="0" fill="navy" font-family="Sans" transform="matrix(-.46704 0 0 .46694 842.41 446.952)"><tspan y="666.876" x="180.558">-</tspan></text></g></g><g stroke="navy" stroke-width="1.515"><path transform="matrix(-.34304 -.0541 -.05412 .34297 602.602 544.001)" d="M221.307 214.047c0 6.969-5.649 12.618-12.618 12.618s-12.618-5.65-12.618-12.618c0-6.97 5.65-12.619 12.618-12.619 6.969 0 12.618 5.65 12.618 12.619z" fill="#fff" stroke-width="4.075" stroke-linecap="square"/><text style="line-height:125%" x="180.558" y="666.876" font-size="30" font-weight="400" letter-spacing="0" word-spacing="0" fill="navy" font-family="Sans" transform="matrix(-.46704 0 0 .46694 606.285 298.566)"><tspan x="180.558" y="666.876">-</tspan></text><g><path d="M221.307 214.047c0 6.969-5.649 12.618-12.618 12.618s-12.618-5.65-12.618-12.618c0-6.97 5.65-12.619 12.618-12.619 6.969 0 12.618 5.65 12.618 12.619z" transform="matrix(-.34304 -.0541 -.05412 .34297 616.106 544.001)" fill="#fff" stroke-width="4.075" stroke-linecap="square"/><text y="666.876" x="180.558" style="line-height:125%" font-size="30" font-weight="400" letter-spacing="0" word-spacing="0" fill="navy" font-family="Sans" transform="matrix(-.46704 0 0 .46694 619.789 298.566)"><tspan y="666.876" x="180.558">-</tspan></text></g></g><g stroke="navy" stroke-width="1.515"><path transform="matrix(-.34304 -.0541 -.05412 .34297 825.224 544.001)" d="M221.307 214.047c0 6.969-5.649 12.618-12.618 12.618s-12.618-5.65-12.618-12.618c0-6.97 5.65-12.619 12.618-12.619 6.969 0 12.618 5.65 12.618 12.619z" fill="#fff" stroke-width="4.075" stroke-linecap="square"/><text style="line-height:125%" x="180.558" y="666.876" font-size="30" font-weight="400" letter-spacing="0" word-spacing="0" fill="navy" font-family="Sans" transform="matrix(-.46704 0 0 .46694 828.906 298.566)"><tspan x="180.558" y="666.876">-</tspan></text><g><path d="M221.307 214.047c0 6.969-5.649 12.618-12.618 12.618s-12.618-5.65-12.618-12.618c0-6.97 5.65-12.619 12.618-12.619 6.969 0 12.618 5.65 12.618 12.619z" transform="matrix(-.34304 -.0541 -.05412 .34297 838.727 544.001)" fill="#fff" stroke-width="4.075" stroke-linecap="square"/><text y="666.876" x="180.558" style="line-height:125%" font-size="30" font-weight="400" letter-spacing="0" word-spacing="0" fill="navy" font-family="Sans" transform="matrix(-.46704 0 0 .46694 842.41 298.566)"><tspan y="666.876" x="180.558">-</tspan></text></g></g><g stroke="navy" stroke-width="1.515"><path transform="matrix(-.34304 -.0541 -.05412 .34297 825.224 618.194)" d="M221.307 214.047c0 6.969-5.649 12.618-12.618 12.618s-12.618-5.65-12.618-12.618c0-6.97 5.65-12.619 12.618-12.619 6.969 0 12.618 5.65 12.618 12.619z" fill="#fff" stroke-width="4.075" stroke-linecap="square"/><text style="line-height:125%" x="180.558" y="666.876" font-size="30" font-weight="400" letter-spacing="0" word-spacing="0" fill="navy" font-family="Sans" transform="matrix(-.46704 0 0 .46694 828.906 372.759)"><tspan x="180.558" y="666.876">-</tspan></text><g><path d="M221.307 214.047c0 6.969-5.649 12.618-12.618 12.618s-12.618-5.65-12.618-12.618c0-6.97 5.65-12.619 12.618-12.619 6.969 0 12.618 5.65 12.618 12.619z" transform="matrix(-.34304 -.0541 -.05412 .34297 838.727 618.194)" fill="#fff" stroke-width="4.075" stroke-linecap="square"/><text y="666.876" x="180.558" style="line-height:125%" font-size="30" font-weight="400" letter-spacing="0" word-spacing="0" fill="navy" font-family="Sans" transform="matrix(-.46704 0 0 .46694 842.41 372.759)"><tspan y="666.876" x="180.558">-</tspan></text></g></g><g stroke="navy" stroke-width="1.515"><path transform="matrix(-.34304 -.0541 -.05412 .34297 899.43 692.387)" d="M221.307 214.047c0 6.969-5.649 12.618-12.618 12.618s-12.618-5.65-12.618-12.618c0-6.97 5.65-12.619 12.618-12.619 6.969 0 12.618 5.65 12.618 12.619z" fill="#fff" stroke-width="4.075" stroke-linecap="square"/><text style="line-height:125%" x="180.558" y="666.876" font-size="30" font-weight="400" letter-spacing="0" word-spacing="0" fill="navy" font-family="Sans" transform="matrix(-.46704 0 0 .46694 903.113 446.952)"><tspan x="180.558" y="666.876">-</tspan></text><g><path d="M221.307 214.047c0 6.969-5.649 12.618-12.618 12.618s-12.618-5.65-12.618-12.618c0-6.97 5.65-12.619 12.618-12.619 6.969 0 12.618 5.65 12.618 12.619z" transform="matrix(-.34304 -.0541 -.05412 .34297 912.935 692.387)" fill="#fff" stroke-width="4.075" stroke-linecap="square"/><text y="666.876" x="180.558" style="line-height:125%" font-size="30" font-weight="400" letter-spacing="0" word-spacing="0" fill="navy" font-family="Sans" transform="matrix(-.46704 0 0 .46694 916.617 446.952)"><tspan y="666.876" x="180.558">-</tspan></text></g></g><g stroke="navy" stroke-width="1.515"><path transform="matrix(-.34304 -.0541 -.05412 .34297 899.43 544.001)" d="M221.307 214.047c0 6.969-5.649 12.618-12.618 12.618s-12.618-5.65-12.618-12.618c0-6.97 5.65-12.619 12.618-12.619 6.969 0 12.618 5.65 12.618 12.619z" fill="#fff" stroke-width="4.075" stroke-linecap="square"/><text style="line-height:125%" x="180.558" y="666.876" font-size="30" font-weight="400" letter-spacing="0" word-spacing="0" fill="navy" font-family="Sans" transform="matrix(-.46704 0 0 .46694 903.113 298.566)"><tspan x="180.558" y="666.876">-</tspan></text><g><path d="M221.307 214.047c0 6.969-5.649 12.618-12.618 12.618s-12.618-5.65-12.618-12.618c0-6.97 5.65-12.619 12.618-12.619 6.969 0 12.618 5.65 12.618 12.619z" transform="matrix(-.34304 -.0541 -.05412 .34297 912.935 544.001)" fill="#fff" stroke-width="4.075" stroke-linecap="square"/><text y="666.876" x="180.558" style="line-height:125%" font-size="30" font-weight="400" letter-spacing="0" word-spacing="0" fill="navy" font-family="Sans" transform="matrix(-.46704 0 0 .46694 916.617 298.566)"><tspan y="666.876" x="180.558">-</tspan></text></g></g><g stroke="navy" stroke-width="1.515"><path transform="matrix(-.34304 -.0541 -.05412 .34297 899.43 618.194)" d="M221.307 214.047c0 6.969-5.649 12.618-12.618 12.618s-12.618-5.65-12.618-12.618c0-6.97 5.65-12.619 12.618-12.619 6.969 0 12.618 5.65 12.618 12.619z" fill="#fff" stroke-width="4.075" stroke-linecap="square"/><text style="line-height:125%" x="180.558" y="666.876" font-size="30" font-weight="400" letter-spacing="0" word-spacing="0" fill="navy" font-family="Sans" transform="matrix(-.46704 0 0 .46694 903.113 372.759)"><tspan x="180.558" y="666.876">-</tspan></text><g><path d="M221.307 214.047c0 6.969-5.649 12.618-12.618 12.618s-12.618-5.65-12.618-12.618c0-6.97 5.65-12.619 12.618-12.619 6.969 0 12.618 5.65 12.618 12.619z" transform="matrix(-.34304 -.0541 -.05412 .34297 912.935 618.194)" fill="#fff" stroke-width="4.075" stroke-linecap="square"/><text y="666.876" x="180.558" style="line-height:125%" font-size="30" font-weight="400" letter-spacing="0" word-spacing="0" fill="navy" font-family="Sans" transform="matrix(-.46704 0 0 .46694 916.617 372.759)"><tspan y="666.876" x="180.558">-</tspan></text></g></g><g stroke="navy" stroke-width="1.515"><path transform="matrix(-.34304 -.0541 -.05412 .34297 305.774 544.001)" d="M221.307 214.047c0 6.969-5.649 12.618-12.618 12.618s-12.618-5.65-12.618-12.618c0-6.97 5.65-12.619 12.618-12.619 6.969 0 12.618 5.65 12.618 12.619z" fill="#fff" stroke-width="4.075" stroke-linecap="square"/><text style="line-height:125%" x="180.558" y="666.876" font-size="30" font-weight="400" letter-spacing="0" word-spacing="0" fill="navy" font-family="Sans" transform="matrix(-.46704 0 0 .46694 309.456 298.566)"><tspan x="180.558" y="666.876">-</tspan></text><g><path d="M221.307 214.047c0 6.969-5.649 12.618-12.618 12.618s-12.618-5.65-12.618-12.618c0-6.97 5.65-12.619 12.618-12.619 6.969 0 12.618 5.65 12.618 12.619z" transform="matrix(-.34304 -.0541 -.05412 .34297 319.277 544.001)" fill="#fff" stroke-width="4.075" stroke-linecap="square"/><text y="666.876" x="180.558" style="line-height:125%" font-size="30" font-weight="400" letter-spacing="0" word-spacing="0" fill="navy" font-family="Sans" transform="matrix(-.46704 0 0 .46694 322.96 298.566)"><tspan y="666.876" x="180.558">-</tspan></text></g></g><g stroke="navy" stroke-width="1.515"><path transform="matrix(-.34304 -.0541 -.05412 .34297 305.774 618.194)" d="M221.307 214.047c0 6.969-5.649 12.618-12.618 12.618s-12.618-5.65-12.618-12.618c0-6.97 5.65-12.619 12.618-12.619 6.969 0 12.618 5.65 12.618 12.619z" fill="#fff" stroke-width="4.075" stroke-linecap="square"/><text style="line-height:125%" x="180.558" y="666.876" font-size="30" font-weight="400" letter-spacing="0" word-spacing="0" fill="navy" font-family="Sans" transform="matrix(-.46704 0 0 .46694 309.456 372.759)"><tspan x="180.558" y="666.876">-</tspan></text><g><path d="M221.307 214.047c0 6.969-5.649 12.618-12.618 12.618s-12.618-5.65-12.618-12.618c0-6.97 5.65-12.619 12.618-12.619 6.969 0 12.618 5.65 12.618 12.619z" transform="matrix(-.34304 -.0541 -.05412 .34297 319.277 618.194)" fill="#fff" stroke-width="4.075" stroke-linecap="square"/><text y="666.876" x="180.558" style="line-height:125%" font-size="30" font-weight="400" letter-spacing="0" word-spacing="0" fill="navy" font-family="Sans" transform="matrix(-.46704 0 0 .46694 322.96 372.759)"><tspan y="666.876" x="180.558">-</tspan></text></g></g><g stroke="navy" stroke-width="1.515"><path transform="matrix(-.34304 -.0541 -.05412 .34297 305.774 692.387)" d="M221.307 214.047c0 6.969-5.649 12.618-12.618 12.618s-12.618-5.65-12.618-12.618c0-6.97 5.65-12.619 12.618-12.619 6.969 0 12.618 5.65 12.618 12.619z" fill="#fff" stroke-width="4.075" stroke-linecap="square"/><text style="line-height:125%" x="180.558" y="666.876" font-size="30" font-weight="400" letter-spacing="0" word-spacing="0" fill="navy" font-family="Sans" transform="matrix(-.46704 0 0 .46694 309.456 446.952)"><tspan x="180.558" y="666.876">-</tspan></text><g><path d="M221.307 214.047c0 6.969-5.649 12.618-12.618 12.618s-12.618-5.65-12.618-12.618c0-6.97 5.65-12.619 12.618-12.619 6.969 0 12.618 5.65 12.618 12.619z" transform="matrix(-.34304 -.0541 -.05412 .34297 319.277 692.387)" fill="#fff" stroke-width="4.075" stroke-linecap="square"/><text y="666.876" x="180.558" style="line-height:125%" font-size="30" font-weight="400" letter-spacing="0" word-spacing="0" fill="navy" font-family="Sans" transform="matrix(-.46704 0 0 .46694 322.96 446.952)"><tspan y="666.876" x="180.558">-</tspan></text></g></g><path d="M332.857 189.505a32.857 32.857 0 1 1-65.714 0 32.857 32.857 0 1 1 65.714 0z" transform="matrix(-.65605 -.10348 -.1035 .65592 557.09 512.865)" fill="#fff" stroke="#2a7fff" stroke-width="3.196" stroke-linecap="square"/><g transform="matrix(1.79533 0 0 1.79533 -71.649 370.353)" ns0:preamble="/home/waldgeist/data/sphinx/test.tex" ns0:text="$\\ce{Ph}$" stroke="#000"><defs><symbol id="e" overflow="visible"><path d="M2.266-3.156h1.687c1.188 0 2.266-.797 2.266-1.797 0-.984-.985-1.86-2.344-1.86H.344v.313h.25c.765 0 .781.11.781.469v5.25c0 .36-.016.469-.781.469h-.25V0c.36-.031 1.094-.031 1.469-.031s1.125 0 1.484.031v-.313h-.25c-.766 0-.781-.109-.781-.468zm-.032-.25v-2.688c0-.343.016-.406.485-.406h.89c1.579 0 1.579 1.063 1.579 1.547 0 .469 0 1.547-1.579 1.547zm0 0" stroke="none"/></symbol><symbol id="f" overflow="visible"><path d="M1.094-.75c0 .438-.11.438-.782.438V0c.36-.016.86-.031 1.141-.031.25 0 .766.015 1.11.031v-.313c-.672 0-.782 0-.782-.437v-1.844c0-1.031.719-1.594 1.344-1.594.64 0 .75.532.75 1.11V-.75c0 .438-.11.438-.781.438V0c.344-.016.86-.031 1.125-.031.25 0 .781.015 1.11.031v-.313c-.516 0-.766 0-.766-.296v-1.907c0-.859 0-1.156-.313-1.515-.14-.172-.469-.375-1.047-.375-.844 0-1.281.593-1.453.984v-3.5l-1.438.11v.312c.704 0 .782.063.782.563zm0 0" stroke="none"/></symbol></defs><g fill="#2a7fff" stroke="#00f"><use y="134.765" x="223.432" xlink:href="#e" width="1052.362" height="744.094"/><use y="134.765" x="230.213" xlink:href="#f" width="1052.362" height="744.094"/></g></g><g stroke="navy" stroke-width="1.515"><path d="M221.307 214.047c0 6.969-5.649 12.618-12.618 12.618s-12.618-5.65-12.618-12.618c0-6.97 5.65-12.619 12.618-12.619 6.969 0 12.618 5.65 12.618 12.619z" transform="matrix(-.34304 -.0541 -.05412 .34297 447.391 566.315)" fill="#fff" stroke="#2a7fff" stroke-width="4.075" stroke-linecap="square"/><text y="666.876" x="180.558" style="line-height:125%" font-size="30" font-weight="400" letter-spacing="0" word-spacing="0" fill="navy" stroke="#2a7fff" font-family="Sans" transform="matrix(-.46704 0 0 .46694 451.074 320.88)"><tspan y="666.876" x="180.558">-</tspan></text></g><path transform="matrix(-.65605 -.10348 -.1035 .65592 928.126 587.057)" d="M332.857 189.505a32.857 32.857 0 1 1-65.714 0 32.857 32.857 0 1 1 65.714 0z" fill="#fff" stroke="#2a7fff" stroke-width="3.196" stroke-linecap="square"/><g fill="#2a7fff" transform="matrix(1.79533 0 0 1.79533 299.387 444.58)" ns0:text="$\\ce{Ph}$" ns0:preamble="/home/waldgeist/data/sphinx/test.tex" stroke="#000"><use height="744.094" width="1052.362" xlink:href="#e" x="223.432" y="134.765" stroke="#00f"/><use height="744.094" width="1052.362" xlink:href="#f" x="230.213" y="134.765"/></g><g stroke="navy" stroke-width="1.515"><path transform="matrix(-.34304 -.0541 -.05412 .34297 769.598 640.057)" d="M221.307 214.047c0 6.969-5.649 12.618-12.618 12.618s-12.618-5.65-12.618-12.618c0-6.97 5.65-12.619 12.618-12.619 6.969 0 12.618 5.65 12.618 12.619z" fill="#fff" stroke="#2a7fff" stroke-width="4.075" stroke-linecap="square"/><text style="line-height:125%" x="180.558" y="666.876" font-size="30" font-weight="400" letter-spacing="0" word-spacing="0" fill="navy" stroke="#2a7fff" font-family="Sans" transform="matrix(-.46704 0 0 .46694 773.28 394.622)"><tspan x="180.558" y="666.876">-</tspan></text></g></g></svg>