<svg xmlns:ns0="http://www.iki.fi/pav/software/textext/" xmlns="http://www.w3.org/2000/svg" xmlns:xlink="http://www.w3.org/1999/xlink" width="1052.362" height="744.094"><title>Ionenbindung im Natriumchlorid</title><path fill="#fff" stroke="#fff" stroke-width="2" stroke-linecap="square" d="M897.435 208.437H154.928v327.22h742.507z"/><path style="marker:none" color="#000" fill="#ccc" stroke="gray" stroke-linecap="round" stroke-linejoin="round" overflow="visible" d="M202.32 240.507h647.721v263.08H202.32z"/><path transform="matrix(-.65605 -.10348 -.1035 .65592 557.09 204.597)" d="M332.857 189.505a32.857 32.857 0 1 1-65.714 0 32.857 32.857 0 1 1 65.714 0z" fill="#fff" stroke="#000" stroke-width="3.196" stroke-linecap="square"/><g transform="matrix(1.79533 0 0 1.79533 -69.24 62.086)" ns0:text="$\\ce{Si}$" ns0:preamble="/home/waldgeist/data/sphinx/test.tex" stroke="#000"><use height="744.094" width="1052.362" xlink:href="#textext-f20efbdd-0" x="223.432" y="134.765"/><use height="744.094" width="1052.362" xlink:href="#textext-f20efbdd-1" x="228.967" y="134.765"/></g><g transform="matrix(2.34531 0 0 2.34531 -195.438 -10.223)" ns0:preamble="/home/waldgeist/data/sphinx/test.tex" ns0:text="$\\ce{Cl}$" stroke="#000" stroke-width=".765"><use height="744.094" width="1052.362" y="134.765" x="223.432" xlink:href="#a"/><use height="744.094" width="1052.362" y="134.765" x="230.627" xlink:href="#b"/></g><path d="M332.857 189.505a32.857 32.857 0 1 1-65.714 0 32.857 32.857 0 1 1 65.714 0z" transform="matrix(-.5467 -.08623 -.08625 .5466 446.812 220.14)" fill="#fff" stroke="#000" stroke-width="3.835" stroke-linecap="square"/><g transform="matrix(1.79533 0 0 1.79533 -146.098 61.924)" ns0:preamble="/home/waldgeist/data/sphinx/test.tex" ns0:text="$\\ce{Na}$" stroke="#000"><defs><symbol id="c" overflow="visible"><path d="M2.313-6.672c-.094-.125-.094-.14-.282-.14H.328v.312h.297c.14 0 .344.016.484.016.235.03.25.046.25.234v5.203c0 .266 0 .734-1.03.734V0c.343-.016.843-.031 1.171-.031.328 0 .813.015 1.156.031v-.313c-1.015 0-1.015-.468-1.015-.734v-5.187c.046.046.046.062.093.125L5.797-.125c.094.11.11.125.172.125.14 0 .14-.063.14-.266v-5.5c0-.265 0-.734 1.032-.734v-.313c-.36.016-.844.032-1.172.032-.328 0-.813-.016-1.157-.032v.313c1.016 0 1.016.469 1.016.734V-1.5zm0 0" stroke="none"/></symbol><symbol id="d" overflow="visible"><path d="M3.313-.75c.046.39.312.813.78.813.22 0 .829-.141.829-.954v-.562h-.25v.562c0 .579-.25.641-.36.641-.328 0-.375-.453-.375-.5v-1.984c0-.422 0-.813-.359-1.188-.39-.39-.89-.547-1.36-.547-.827 0-1.515.469-1.515 1.125 0 .297.203.469.469.469a.435.435 0 0 0 .453-.453c0-.125-.047-.453-.516-.453.282-.36.766-.469 1.079-.469.5 0 1.062.39 1.062 1.281v.36c-.516.03-1.203.062-1.828.359-.75.344-1 .86-1 1.297 0 .812.969 1.062 1.594 1.062.656 0 1.109-.406 1.296-.859zM3.25-2.39v1c0 .937-.719 1.28-1.172 1.28-.484 0-.89-.343-.89-.843 0-.547.421-1.375 2.062-1.438zm0 0" stroke="none"/></symbol></defs><use y="134.765" x="223.432" xlink:href="#c" width="1052.362" height="744.094"/><use y="134.765" x="230.904" xlink:href="#d" width="1052.362" height="744.094"/></g><g stroke="navy" stroke-width="1.515"><path d="M221.307 214.047c0 6.969-5.649 12.618-12.618 12.618s-12.618-5.65-12.618-12.618c0-6.97 5.65-12.619 12.618-12.619 6.969 0 12.618 5.65 12.618 12.619z" transform="matrix(-.34304 -.0541 -.05412 .34297 417.084 201.466)" fill="#fff" stroke-width="4.075" stroke-linecap="square"/><text y="666.876" x="180.558" style="line-height:125%" font-size="30" font-weight="400" letter-spacing="0" word-spacing="0" fill="navy" font-family="Sans" transform="matrix(-.46704 0 0 .46694 420.767 -43.97)"><tspan y="666.876" x="180.558">-</tspan></text><g><path transform="matrix(-.34304 -.0541 -.05412 .34297 430.588 201.466)" d="M221.307 214.047c0 6.969-5.649 12.618-12.618 12.618s-12.618-5.65-12.618-12.618c0-6.97 5.65-12.619 12.618-12.619 6.969 0 12.618 5.65 12.618 12.619z" fill="#fff" stroke-width="4.075" stroke-linecap="square"/><text style="line-height:125%" x="180.558" y="666.876" font-size="30" font-weight="400" letter-spacing="0" word-spacing="0" fill="navy" font-family="Sans" transform="matrix(-.46704 0 0 .46694 434.27 -43.97)"><tspan x="180.558" y="666.876">-</tspan></text></g></g><g stroke="#000"><path d="M332.857 189.505c0 18.147-14.71 32.857-32.857 32.857-18.146 0-32.857-14.71-32.857-32.857 0-18.146 14.71-32.857 32.857-32.857 18.146 0 32.857 14.71 32.857 32.857z" transform="matrix(-.78726 -.12417 -.1242 .7871 600.376 185.946)" fill="#fff" stroke-width="2.663" stroke-linecap="square"/><g transform="matrix(1.79533 0 0 1.79533 -69.72 62.022)" ns0:preamble="/home/waldgeist/data/sphinx/test.tex" ns0:text="$\\ce{Cl}$"><defs><symbol id="a" overflow="visible"><path d="M.563-3.406C.563-1.344 2.171.219 4.03.219c1.625 0 2.594-1.39 2.594-2.547 0-.094 0-.172-.125-.172-.11 0-.11.063-.125.172C6.297-.906 5.235-.094 4.141-.094c-.61 0-2.563-.328-2.563-3.312 0-2.969 1.953-3.313 2.563-3.313 1.078 0 1.968.907 2.171 2.36.016.14.016.171.157.171.156 0 .156-.03.156-.234v-2.36c0-.171 0-.25-.11-.25-.03 0-.077 0-.156.126l-.5.734c-.359-.36-.875-.86-1.828-.86-1.875 0-3.468 1.595-3.468 3.626zm0 0" stroke="none"/></symbol><symbol id="b" overflow="visible"><path d="M1.766-6.922l-1.438.11v.312c.703 0 .781.063.781.563V-.75c0 .438-.109.438-.78.438V0c.327-.016.859-.031 1.109-.031s.734.015 1.109.031v-.313c-.672 0-.781 0-.781-.437zm0 0" stroke="none"/></symbol></defs><use height="744.094" width="1052.362" y="134.765" x="223.432" xlink:href="#a"/><use height="744.094" width="1052.362" y="134.765" x="230.627" xlink:href="#b"/></g></g><g stroke="navy" stroke-width="1.515"><path d="M221.307 214.047c0 6.969-5.649 12.618-12.618 12.618s-12.618-5.65-12.618-12.618c0-6.97 5.65-12.619 12.618-12.619 6.969 0 12.618 5.65 12.618 12.619z" transform="matrix(-.34304 -.0541 -.05412 .34297 389.568 228.98)" fill="#fff" stroke-width="4.075" stroke-linecap="square"/><text y="666.876" x="180.558" style="line-height:125%" font-size="30" font-weight="400" letter-spacing="0" word-spacing="0" fill="navy" font-family="Sans" transform="matrix(-.46704 0 0 .46694 393.25 -16.454)"><tspan y="666.876" x="180.558">-</tspan></text><g><path transform="matrix(-.34304 -.0541 -.05412 .34297 389.568 242.487)" d="M221.307 214.047c0 6.969-5.649 12.618-12.618 12.618s-12.618-5.65-12.618-12.618c0-6.97 5.65-12.619 12.618-12.619 6.969 0 12.618 5.65 12.618 12.619z" fill="#fff" stroke-width="4.075" stroke-linecap="square"/><text style="line-height:125%" x="180.558" y="666.876" font-size="30" font-weight="400" letter-spacing="0" word-spacing="0" fill="navy" font-family="Sans" transform="matrix(-.46704 0 0 .46694 393.25 -2.949)"><tspan x="180.558" y="666.876">-</tspan></text></g><g><path transform="matrix(-.34304 -.0541 -.05412 .34297 458.104 228.98)" d="M221.307 214.047c0 6.969-5.649 12.618-12.618 12.618s-12.618-5.65-12.618-12.618c0-6.97 5.65-12.619 12.618-12.619 6.969 0 12.618 5.65 12.618 12.619z" fill="#fff" stroke-width="4.075" stroke-linecap="square"/><text style="line-height:125%" x="180.558" y="666.876" font-size="30" font-weight="400" letter-spacing="0" word-spacing="0" fill="navy" font-family="Sans" transform="matrix(-.46704 0 0 .46694 461.787 -16.454)"><tspan x="180.558" y="666.876">-</tspan></text><g><path d="M221.307 214.047c0 6.969-5.649 12.618-12.618 12.618s-12.618-5.65-12.618-12.618c0-6.97 5.65-12.619 12.618-12.619 6.969 0 12.618 5.65 12.618 12.619z" transform="matrix(-.34304 -.0541 -.05412 .34297 458.104 242.487)" fill="#fff" stroke-width="4.075" stroke-linecap="square"/><text y="666.876" x="180.558" style="line-height:125%" font-size="30" font-weight="400" letter-spacing="0" word-spacing="0" fill="navy" font-family="Sans" transform="matrix(-.46704 0 0 .46694 461.787 -2.949)"><tspan y="666.876" x="180.558">-</tspan></text></g></g></g><g stroke="navy" stroke-width="1.515"><path transform="matrix(-.34304 -.0541 -.05412 .34297 417.084 270.003)" d="M221.307 214.047c0 6.969-5.649 12.618-12.618 12.618s-12.618-5.65-12.618-12.618c0-6.97 5.65-12.619 12.618-12.619 6.969 0 12.618 5.65 12.618 12.619z" fill="#fff" stroke-width="4.075" stroke-linecap="square"/><text style="line-height:125%" x="180.558" y="666.876" font-size="30" font-weight="400" letter-spacing="0" word-spacing="0" fill="navy" font-family="Sans" transform="matrix(-.46704 0 0 .46694 420.767 24.568)"><tspan x="180.558" y="666.876">-</tspan></text><g><path d="M221.307 214.047c0 6.969-5.649 12.618-12.618 12.618s-12.618-5.65-12.618-12.618c0-6.97 5.65-12.619 12.618-12.619 6.969 0 12.618 5.65 12.618 12.619z" transform="matrix(-.34304 -.0541 -.05412 .34297 430.588 270.003)" fill="#fff" stroke-width="4.075" stroke-linecap="square"/><text y="666.876" x="180.558" style="line-height:125%" font-size="30" font-weight="400" letter-spacing="0" word-spacing="0" fill="navy" font-family="Sans" transform="matrix(-.46704 0 0 .46694 434.27 24.568)"><tspan y="666.876" x="180.558">-</tspan></text></g></g><g stroke="navy" stroke-width="1.515"><path transform="matrix(-.34304 -.0541 -.05412 .34297 342.877 275.658)" d="M221.307 214.047c0 6.969-5.649 12.618-12.618 12.618s-12.618-5.65-12.618-12.618c0-6.97 5.65-12.619 12.618-12.619 6.969 0 12.618 5.65 12.618 12.619z" fill="#fff" stroke-width="4.075" stroke-linecap="square"/><text style="line-height:125%" x="180.558" y="666.876" font-size="30" font-weight="400" letter-spacing="0" word-spacing="0" fill="navy" font-family="Sans" transform="matrix(-.46704 0 0 .46694 346.56 30.223)"><tspan x="180.558" y="666.876">-</tspan></text><g><path d="M221.307 214.047c0 6.969-5.649 12.618-12.618 12.618s-12.618-5.65-12.618-12.618c0-6.97 5.65-12.619 12.618-12.619 6.969 0 12.618 5.65 12.618 12.619z" transform="matrix(-.34304 -.0541 -.05412 .34297 356.38 275.658)" fill="#fff" stroke-width="4.075" stroke-linecap="square"/><text y="666.876" x="180.558" style="line-height:125%" font-size="30" font-weight="400" letter-spacing="0" word-spacing="0" fill="navy" font-family="Sans" transform="matrix(-.46704 0 0 .46694 360.064 30.223)"><tspan y="666.876" x="180.558">-</tspan></text></g></g><g stroke="#000"><path transform="matrix(-.78726 -.12417 -.1242 .7871 526.169 260.138)" d="M332.857 189.505c0 18.147-14.71 32.857-32.857 32.857-18.146 0-32.857-14.71-32.857-32.857 0-18.146 14.71-32.857 32.857-32.857 18.146 0 32.857 14.71 32.857 32.857z" fill="#fff" stroke-width="2.663" stroke-linecap="square"/><g transform="matrix(1.79533 0 0 1.79533 -143.928 136.215)" ns0:text="$\\ce{Cl}$" ns0:preamble="/home/waldgeist/data/sphinx/test.tex"><use xlink:href="#a" x="223.432" y="134.765" width="1052.362" height="744.094"/><use xlink:href="#b" x="230.627" y="134.765" width="1052.362" height="744.094"/></g></g><g stroke="navy" stroke-width="1.515"><path transform="matrix(-.34304 -.0541 -.05412 .34297 315.36 303.173)" d="M221.307 214.047c0 6.969-5.649 12.618-12.618 12.618s-12.618-5.65-12.618-12.618c0-6.97 5.65-12.619 12.618-12.619 6.969 0 12.618 5.65 12.618 12.619z" fill="#fff" stroke-width="4.075" stroke-linecap="square"/><text style="line-height:125%" x="180.558" y="666.876" font-size="30" font-weight="400" letter-spacing="0" word-spacing="0" fill="navy" font-family="Sans" transform="matrix(-.46704 0 0 .46694 319.044 57.738)"><tspan x="180.558" y="666.876">-</tspan></text><g><path d="M221.307 214.047c0 6.969-5.649 12.618-12.618 12.618s-12.618-5.65-12.618-12.618c0-6.97 5.65-12.619 12.618-12.619 6.969 0 12.618 5.65 12.618 12.619z" transform="matrix(-.34304 -.0541 -.05412 .34297 315.36 316.679)" fill="#fff" stroke-width="4.075" stroke-linecap="square"/><text y="666.876" x="180.558" style="line-height:125%" font-size="30" font-weight="400" letter-spacing="0" word-spacing="0" fill="navy" font-family="Sans" transform="matrix(-.46704 0 0 .46694 319.044 71.244)"><tspan y="666.876" x="180.558">-</tspan></text></g><g><path d="M221.307 214.047c0 6.969-5.649 12.618-12.618 12.618s-12.618-5.65-12.618-12.618c0-6.97 5.65-12.619 12.618-12.619 6.969 0 12.618 5.65 12.618 12.619z" transform="matrix(-.34304 -.0541 -.05412 .34297 383.897 303.173)" fill="#fff" stroke-width="4.075" stroke-linecap="square"/><text y="666.876" x="180.558" style="line-height:125%" font-size="30" font-weight="400" letter-spacing="0" word-spacing="0" fill="navy" font-family="Sans" transform="matrix(-.46704 0 0 .46694 387.58 57.738)"><tspan y="666.876" x="180.558">-</tspan></text><g><path transform="matrix(-.34304 -.0541 -.05412 .34297 383.897 316.679)" d="M221.307 214.047c0 6.969-5.649 12.618-12.618 12.618s-12.618-5.65-12.618-12.618c0-6.97 5.65-12.619 12.618-12.619 6.969 0 12.618 5.65 12.618 12.619z" fill="#fff" stroke-width="4.075" stroke-linecap="square"/><text style="line-height:125%" x="180.558" y="666.876" font-size="30" font-weight="400" letter-spacing="0" word-spacing="0" fill="navy" font-family="Sans" transform="matrix(-.46704 0 0 .46694 387.58 71.244)"><tspan x="180.558" y="666.876">-</tspan></text></g></g></g><g stroke="navy" stroke-width="1.515"><path d="M221.307 214.047c0 6.969-5.649 12.618-12.618 12.618s-12.618-5.65-12.618-12.618c0-6.97 5.65-12.619 12.618-12.619 6.969 0 12.618 5.65 12.618 12.619z" transform="matrix(-.34304 -.0541 -.05412 .34297 342.877 344.195)" fill="#fff" stroke-width="4.075" stroke-linecap="square"/><text y="666.876" x="180.558" style="line-height:125%" font-size="30" font-weight="400" letter-spacing="0" word-spacing="0" fill="navy" font-family="Sans" transform="matrix(-.46704 0 0 .46694 346.56 98.76)"><tspan y="666.876" x="180.558">-</tspan></text><g><path transform="matrix(-.34304 -.0541 -.05412 .34297 356.38 344.195)" d="M221.307 214.047c0 6.969-5.649 12.618-12.618 12.618s-12.618-5.65-12.618-12.618c0-6.97 5.65-12.619 12.618-12.619 6.969 0 12.618 5.65 12.618 12.619z" fill="#fff" stroke-width="4.075" stroke-linecap="square"/><text style="line-height:125%" x="180.558" y="666.876" font-size="30" font-weight="400" letter-spacing="0" word-spacing="0" fill="navy" font-family="Sans" transform="matrix(-.46704 0 0 .46694 360.064 98.76)"><tspan x="180.558" y="666.876">-</tspan></text></g></g><path transform="matrix(-.5467 -.08623 -.08625 .5466 446.812 368.526)" d="M332.857 189.505a32.857 32.857 0 1 1-65.714 0 32.857 32.857 0 1 1 65.714 0z" fill="#fff" stroke="#000" stroke-width="3.835" stroke-linecap="square"/><g transform="matrix(1.79533 0 0 1.79533 -146.098 210.31)" ns0:text="$\\ce{Na}$" ns0:preamble="/home/waldgeist/data/sphinx/test.tex" stroke="#000"><use height="744.094" width="1052.362" xlink:href="#c" x="223.432" y="134.765"/><use height="744.094" width="1052.362" xlink:href="#d" x="230.904" y="134.765"/></g><g stroke="navy" stroke-width="1.515"><path transform="matrix(-.34304 -.0541 -.05412 .34297 417.084 349.85)" d="M221.307 214.047c0 6.969-5.649 12.618-12.618 12.618s-12.618-5.65-12.618-12.618c0-6.97 5.65-12.619 12.618-12.619 6.969 0 12.618 5.65 12.618 12.619z" fill="#fff" stroke-width="4.075" stroke-linecap="square"/><text style="line-height:125%" x="180.558" y="666.876" font-size="30" font-weight="400" letter-spacing="0" word-spacing="0" fill="navy" font-family="Sans" transform="matrix(-.46704 0 0 .46694 420.767 104.416)"><tspan x="180.558" y="666.876">-</tspan></text><g><path d="M221.307 214.047c0 6.969-5.649 12.618-12.618 12.618s-12.618-5.65-12.618-12.618c0-6.97 5.65-12.619 12.618-12.619 6.969 0 12.618 5.65 12.618 12.619z" transform="matrix(-.34304 -.0541 -.05412 .34297 430.588 349.85)" fill="#fff" stroke-width="4.075" stroke-linecap="square"/><text y="666.876" x="180.558" style="line-height:125%" font-size="30" font-weight="400" letter-spacing="0" word-spacing="0" fill="navy" font-family="Sans" transform="matrix(-.46704 0 0 .46694 434.27 104.416)"><tspan y="666.876" x="180.558">-</tspan></text></g></g><g stroke="#000"><path transform="matrix(-.78726 -.12417 -.1242 .7871 600.376 334.33)" d="M332.857 189.505c0 18.147-14.71 32.857-32.857 32.857-18.146 0-32.857-14.71-32.857-32.857 0-18.146 14.71-32.857 32.857-32.857 18.146 0 32.857 14.71 32.857 32.857z" fill="#fff" stroke-width="2.663" stroke-linecap="square"/><g transform="matrix(1.79533 0 0 1.79533 -69.72 210.408)" ns0:text="$\\ce{Cl}$" ns0:preamble="/home/waldgeist/data/sphinx/test.tex"><use xlink:href="#a" x="223.432" y="134.765" width="1052.362" height="744.094"/><use xlink:href="#b" x="230.627" y="134.765" width="1052.362" height="744.094"/></g></g><g stroke="navy" stroke-width="1.515"><path transform="matrix(-.34304 -.0541 -.05412 .34297 389.568 377.366)" d="M221.307 214.047c0 6.969-5.649 12.618-12.618 12.618s-12.618-5.65-12.618-12.618c0-6.97 5.65-12.619 12.618-12.619 6.969 0 12.618 5.65 12.618 12.619z" fill="#fff" stroke-width="4.075" stroke-linecap="square"/><text style="line-height:125%" x="180.558" y="666.876" font-size="30" font-weight="400" letter-spacing="0" word-spacing="0" fill="navy" font-family="Sans" transform="matrix(-.46704 0 0 .46694 393.25 131.931)"><tspan x="180.558" y="666.876">-</tspan></text><g><path d="M221.307 214.047c0 6.969-5.649 12.618-12.618 12.618s-12.618-5.65-12.618-12.618c0-6.97 5.65-12.619 12.618-12.619 6.969 0 12.618 5.65 12.618 12.619z" transform="matrix(-.34304 -.0541 -.05412 .34297 389.568 390.872)" fill="#fff" stroke-width="4.075" stroke-linecap="square"/><text y="666.876" x="180.558" style="line-height:125%" font-size="30" font-weight="400" letter-spacing="0" word-spacing="0" fill="navy" font-family="Sans" transform="matrix(-.46704 0 0 .46694 393.25 145.437)"><tspan y="666.876" x="180.558">-</tspan></text></g><g><path d="M221.307 214.047c0 6.969-5.649 12.618-12.618 12.618s-12.618-5.65-12.618-12.618c0-6.97 5.65-12.619 12.618-12.619 6.969 0 12.618 5.65 12.618 12.619z" transform="matrix(-.34304 -.0541 -.05412 .34297 458.104 377.366)" fill="#fff" stroke-width="4.075" stroke-linecap="square"/><text y="666.876" x="180.558" style="line-height:125%" font-size="30" font-weight="400" letter-spacing="0" word-spacing="0" fill="navy" font-family="Sans" transform="matrix(-.46704 0 0 .46694 461.787 131.931)"><tspan y="666.876" x="180.558">-</tspan></text><g><path transform="matrix(-.34304 -.0541 -.05412 .34297 458.104 390.872)" d="M221.307 214.047c0 6.969-5.649 12.618-12.618 12.618s-12.618-5.65-12.618-12.618c0-6.97 5.65-12.619 12.618-12.619 6.969 0 12.618 5.65 12.618 12.619z" fill="#fff" stroke-width="4.075" stroke-linecap="square"/><text style="line-height:125%" x="180.558" y="666.876" font-size="30" font-weight="400" letter-spacing="0" word-spacing="0" fill="navy" font-family="Sans" transform="matrix(-.46704 0 0 .46694 461.787 145.437)"><tspan x="180.558" y="666.876">-</tspan></text></g></g></g><g stroke="navy" stroke-width="1.515"><path d="M221.307 214.047c0 6.969-5.649 12.618-12.618 12.618s-12.618-5.65-12.618-12.618c0-6.97 5.65-12.619 12.618-12.619 6.969 0 12.618 5.65 12.618 12.619z" transform="matrix(-.34304 -.0541 -.05412 .34297 417.084 418.388)" fill="#fff" stroke-width="4.075" stroke-linecap="square"/><text y="666.876" x="180.558" style="line-height:125%" font-size="30" font-weight="400" letter-spacing="0" word-spacing="0" fill="navy" font-family="Sans" transform="matrix(-.46704 0 0 .46694 420.767 172.953)"><tspan y="666.876" x="180.558">-</tspan></text><g><path transform="matrix(-.34304 -.0541 -.05412 .34297 430.588 418.388)" d="M221.307 214.047c0 6.969-5.649 12.618-12.618 12.618s-12.618-5.65-12.618-12.618c0-6.97 5.65-12.619 12.618-12.619 6.969 0 12.618 5.65 12.618 12.619z" fill="#fff" stroke-width="4.075" stroke-linecap="square"/><text style="line-height:125%" x="180.558" y="666.876" font-size="30" font-weight="400" letter-spacing="0" word-spacing="0" fill="navy" font-family="Sans" transform="matrix(-.46704 0 0 .46694 434.27 172.953)"><tspan x="180.558" y="666.876">-</tspan></text></g></g><g stroke="navy" stroke-width="1.515"><path d="M221.307 214.047c0 6.969-5.649 12.618-12.618 12.618s-12.618-5.65-12.618-12.618c0-6.97 5.65-12.619 12.618-12.619 6.969 0 12.618 5.65 12.618 12.619z" transform="matrix(-.34304 -.0541 -.05412 .34297 491.291 275.658)" fill="#fff" stroke-width="4.075" stroke-linecap="square"/><text y="666.876" x="180.558" style="line-height:125%" font-size="30" font-weight="400" letter-spacing="0" word-spacing="0" fill="navy" font-family="Sans" transform="matrix(-.46704 0 0 .46694 494.974 30.223)"><tspan y="666.876" x="180.558">-</tspan></text><g><path transform="matrix(-.34304 -.0541 -.05412 .34297 504.795 275.658)" d="M221.307 214.047c0 6.969-5.649 12.618-12.618 12.618s-12.618-5.65-12.618-12.618c0-6.97 5.65-12.619 12.618-12.619 6.969 0 12.618 5.65 12.618 12.619z" fill="#fff" stroke-width="4.075" stroke-linecap="square"/><text style="line-height:125%" x="180.558" y="666.876" font-size="30" font-weight="400" letter-spacing="0" word-spacing="0" fill="navy" font-family="Sans" transform="matrix(-.46704 0 0 .46694 508.478 30.223)"><tspan x="180.558" y="666.876">-</tspan></text></g></g><g stroke="#000"><path d="M332.857 189.505c0 18.147-14.71 32.857-32.857 32.857-18.146 0-32.857-14.71-32.857-32.857 0-18.146 14.71-32.857 32.857-32.857 18.146 0 32.857 14.71 32.857 32.857z" transform="matrix(-.78726 -.12417 -.1242 .7871 674.583 260.138)" fill="#fff" stroke-width="2.663" stroke-linecap="square"/><g transform="matrix(1.79533 0 0 1.79533 4.487 136.215)" ns0:preamble="/home/waldgeist/data/sphinx/test.tex" ns0:text="$\\ce{Cl}$"><use height="744.094" width="1052.362" y="134.765" x="223.432" xlink:href="#a"/><use height="744.094" width="1052.362" y="134.765" x="230.627" xlink:href="#b"/></g></g><g stroke="navy" stroke-width="1.515"><path d="M221.307 214.047c0 6.969-5.649 12.618-12.618 12.618s-12.618-5.65-12.618-12.618c0-6.97 5.65-12.619 12.618-12.619 6.969 0 12.618 5.65 12.618 12.619z" transform="matrix(-.34304 -.0541 -.05412 .34297 463.775 303.174)" fill="#fff" stroke-width="4.075" stroke-linecap="square"/><text y="666.876" x="180.558" style="line-height:125%" font-size="30" font-weight="400" letter-spacing="0" word-spacing="0" fill="navy" font-family="Sans" transform="matrix(-.46704 0 0 .46694 467.458 57.738)"><tspan y="666.876" x="180.558">-</tspan></text><g><path transform="matrix(-.34304 -.0541 -.05412 .34297 463.775 316.68)" d="M221.307 214.047c0 6.969-5.649 12.618-12.618 12.618s-12.618-5.65-12.618-12.618c0-6.97 5.65-12.619 12.618-12.619 6.969 0 12.618 5.65 12.618 12.619z" fill="#fff" stroke-width="4.075" stroke-linecap="square"/><text style="line-height:125%" x="180.558" y="666.876" font-size="30" font-weight="400" letter-spacing="0" word-spacing="0" fill="navy" font-family="Sans" transform="matrix(-.46704 0 0 .46694 467.458 71.244)"><tspan x="180.558" y="666.876">-</tspan></text></g><g><path transform="matrix(-.34304 -.0541 -.05412 .34297 532.311 303.174)" d="M221.307 214.047c0 6.969-5.649 12.618-12.618 12.618s-12.618-5.65-12.618-12.618c0-6.97 5.65-12.619 12.618-12.619 6.969 0 12.618 5.65 12.618 12.619z" fill="#fff" stroke-width="4.075" stroke-linecap="square"/><text style="line-height:125%" x="180.558" y="666.876" font-size="30" font-weight="400" letter-spacing="0" word-spacing="0" fill="navy" font-family="Sans" transform="matrix(-.46704 0 0 .46694 535.994 57.738)"><tspan x="180.558" y="666.876">-</tspan></text><g><path d="M221.307 214.047c0 6.969-5.649 12.618-12.618 12.618s-12.618-5.65-12.618-12.618c0-6.97 5.65-12.619 12.618-12.619 6.969 0 12.618 5.65 12.618 12.619z" transform="matrix(-.34304 -.0541 -.05412 .34297 532.311 316.68)" fill="#fff" stroke-width="4.075" stroke-linecap="square"/><text y="666.876" x="180.558" style="line-height:125%" font-size="30" font-weight="400" letter-spacing="0" word-spacing="0" fill="navy" font-family="Sans" transform="matrix(-.46704 0 0 .46694 535.994 71.244)"><tspan y="666.876" x="180.558">-</tspan></text></g></g></g><g stroke="navy" stroke-width="1.515"><path transform="matrix(-.34304 -.0541 -.05412 .34297 491.291 344.195)" d="M221.307 214.047c0 6.969-5.649 12.618-12.618 12.618s-12.618-5.65-12.618-12.618c0-6.97 5.65-12.619 12.618-12.619 6.969 0 12.618 5.65 12.618 12.619z" fill="#fff" stroke-width="4.075" stroke-linecap="square"/><text style="line-height:125%" x="180.558" y="666.876" font-size="30" font-weight="400" letter-spacing="0" word-spacing="0" fill="navy" font-family="Sans" transform="matrix(-.46704 0 0 .46694 494.974 98.76)"><tspan x="180.558" y="666.876">-</tspan></text><g><path d="M221.307 214.047c0 6.969-5.649 12.618-12.618 12.618s-12.618-5.65-12.618-12.618c0-6.97 5.65-12.619 12.618-12.619 6.969 0 12.618 5.65 12.618 12.619z" transform="matrix(-.34304 -.0541 -.05412 .34297 504.795 344.195)" fill="#fff" stroke-width="4.075" stroke-linecap="square"/><text y="666.876" x="180.558" style="line-height:125%" font-size="30" font-weight="400" letter-spacing="0" word-spacing="0" fill="navy" font-family="Sans" transform="matrix(-.46704 0 0 .46694 508.478 98.76)"><tspan y="666.876" x="180.558">-</tspan></text></g></g><g stroke="navy" stroke-width="1.515"><path transform="matrix(-.34304 -.0541 -.05412 .34297 565.499 201.466)" d="M221.307 214.047c0 6.969-5.649 12.618-12.618 12.618s-12.618-5.65-12.618-12.618c0-6.97 5.65-12.619 12.618-12.619 6.969 0 12.618 5.65 12.618 12.619z" fill="#fff" stroke-width="4.075" stroke-linecap="square"/><text style="line-height:125%" x="180.558" y="666.876" font-size="30" font-weight="400" letter-spacing="0" word-spacing="0" fill="navy" font-family="Sans" transform="matrix(-.46704 0 0 .46694 569.181 -43.97)"><tspan x="180.558" y="666.876">-</tspan></text><g><path d="M221.307 214.047c0 6.969-5.649 12.618-12.618 12.618s-12.618-5.65-12.618-12.618c0-6.97 5.65-12.619 12.618-12.619 6.969 0 12.618 5.65 12.618 12.619z" transform="matrix(-.34304 -.0541 -.05412 .34297 579.002 201.466)" fill="#fff" stroke-width="4.075" stroke-linecap="square"/><text y="666.876" x="180.558" style="line-height:125%" font-size="30" font-weight="400" letter-spacing="0" word-spacing="0" fill="navy" font-family="Sans" transform="matrix(-.46704 0 0 .46694 582.685 -43.97)"><tspan y="666.876" x="180.558">-</tspan></text></g></g><g stroke="#000"><path transform="matrix(-.78726 -.12417 -.1242 .7871 748.79 185.946)" d="M332.857 189.505c0 18.147-14.71 32.857-32.857 32.857-18.146 0-32.857-14.71-32.857-32.857 0-18.146 14.71-32.857 32.857-32.857 18.146 0 32.857 14.71 32.857 32.857z" fill="#fff" stroke-width="2.663" stroke-linecap="square"/><g transform="matrix(1.79533 0 0 1.79533 78.694 62.022)" ns0:text="$\\ce{Cl}$" ns0:preamble="/home/waldgeist/data/sphinx/test.tex"><use xlink:href="#a" x="223.432" y="134.765" width="1052.362" height="744.094"/><use xlink:href="#b" x="230.627" y="134.765" width="1052.362" height="744.094"/></g></g><g stroke="navy" stroke-width="1.515"><path transform="matrix(-.34304 -.0541 -.05412 .34297 537.982 228.98)" d="M221.307 214.047c0 6.969-5.649 12.618-12.618 12.618s-12.618-5.65-12.618-12.618c0-6.97 5.65-12.619 12.618-12.619 6.969 0 12.618 5.65 12.618 12.619z" fill="#fff" stroke-width="4.075" stroke-linecap="square"/><text style="line-height:125%" x="180.558" y="666.876" font-size="30" font-weight="400" letter-spacing="0" word-spacing="0" fill="navy" font-family="Sans" transform="matrix(-.46704 0 0 .46694 541.665 -16.454)"><tspan x="180.558" y="666.876">-</tspan></text><g><path d="M221.307 214.047c0 6.969-5.649 12.618-12.618 12.618s-12.618-5.65-12.618-12.618c0-6.97 5.65-12.619 12.618-12.619 6.969 0 12.618 5.65 12.618 12.619z" transform="matrix(-.34304 -.0541 -.05412 .34297 537.982 242.487)" fill="#fff" stroke-width="4.075" stroke-linecap="square"/><text y="666.876" x="180.558" style="line-height:125%" font-size="30" font-weight="400" letter-spacing="0" word-spacing="0" fill="navy" font-family="Sans" transform="matrix(-.46704 0 0 .46694 541.665 -2.949)"><tspan y="666.876" x="180.558">-</tspan></text></g><g><path d="M221.307 214.047c0 6.969-5.649 12.618-12.618 12.618s-12.618-5.65-12.618-12.618c0-6.97 5.65-12.619 12.618-12.619 6.969 0 12.618 5.65 12.618 12.619z" transform="matrix(-.34304 -.0541 -.05412 .34297 606.519 228.98)" fill="#fff" stroke-width="4.075" stroke-linecap="square"/><text y="666.876" x="180.558" style="line-height:125%" font-size="30" font-weight="400" letter-spacing="0" word-spacing="0" fill="navy" font-family="Sans" transform="matrix(-.46704 0 0 .46694 610.201 -16.454)"><tspan y="666.876" x="180.558">-</tspan></text><g><path transform="matrix(-.34304 -.0541 -.05412 .34297 606.519 242.487)" d="M221.307 214.047c0 6.969-5.649 12.618-12.618 12.618s-12.618-5.65-12.618-12.618c0-6.97 5.65-12.619 12.618-12.619 6.969 0 12.618 5.65 12.618 12.619z" fill="#fff" stroke-width="4.075" stroke-linecap="square"/><text style="line-height:125%" x="180.558" y="666.876" font-size="30" font-weight="400" letter-spacing="0" word-spacing="0" fill="navy" font-family="Sans" transform="matrix(-.46704 0 0 .46694 610.201 -2.949)"><tspan x="180.558" y="666.876">-</tspan></text></g></g></g><g stroke="navy" stroke-width="1.515"><path d="M221.307 214.047c0 6.969-5.649 12.618-12.618 12.618s-12.618-5.65-12.618-12.618c0-6.97 5.65-12.619 12.618-12.619 6.969 0 12.618 5.65 12.618 12.619z" transform="matrix(-.34304 -.0541 -.05412 .34297 565.499 270.003)" fill="#fff" stroke-width="4.075" stroke-linecap="square"/><text y="666.876" x="180.558" style="line-height:125%" font-size="30" font-weight="400" letter-spacing="0" word-spacing="0" fill="navy" font-family="Sans" transform="matrix(-.46704 0 0 .46694 569.181 24.568)"><tspan y="666.876" x="180.558">-</tspan></text><g><path transform="matrix(-.34304 -.0541 -.05412 .34297 579.002 270.003)" d="M221.307 214.047c0 6.969-5.649 12.618-12.618 12.618s-12.618-5.65-12.618-12.618c0-6.97 5.65-12.619 12.618-12.619 6.969 0 12.618 5.65 12.618 12.619z" fill="#fff" stroke-width="4.075" stroke-linecap="square"/><text style="line-height:125%" x="180.558" y="666.876" font-size="30" font-weight="400" letter-spacing="0" word-spacing="0" fill="navy" font-family="Sans" transform="matrix(-.46704 0 0 .46694 582.685 24.568)"><tspan x="180.558" y="666.876">-</tspan></text></g></g><g stroke="navy" stroke-width="1.515"><path d="M221.307 214.047c0 6.969-5.649 12.618-12.618 12.618s-12.618-5.65-12.618-12.618c0-6.97 5.65-12.619 12.618-12.619 6.969 0 12.618 5.65 12.618 12.619z" transform="matrix(-.34304 -.0541 -.05412 .34297 639.706 275.658)" fill="#fff" stroke-width="4.075" stroke-linecap="square"/><text y="666.876" x="180.558" style="line-height:125%" font-size="30" font-weight="400" letter-spacing="0" word-spacing="0" fill="navy" font-family="Sans" transform="matrix(-.46704 0 0 .46694 643.388 30.223)"><tspan y="666.876" x="180.558">-</tspan></text><g><path transform="matrix(-.34304 -.0541 -.05412 .34297 653.21 275.658)" d="M221.307 214.047c0 6.969-5.649 12.618-12.618 12.618s-12.618-5.65-12.618-12.618c0-6.97 5.65-12.619 12.618-12.619 6.969 0 12.618 5.65 12.618 12.619z" fill="#fff" stroke-width="4.075" stroke-linecap="square"/><text style="line-height:125%" x="180.558" y="666.876" font-size="30" font-weight="400" letter-spacing="0" word-spacing="0" fill="navy" font-family="Sans" transform="matrix(-.46704 0 0 .46694 656.892 30.223)"><tspan x="180.558" y="666.876">-</tspan></text></g></g><g stroke="#000"><path d="M332.857 189.505c0 18.147-14.71 32.857-32.857 32.857-18.146 0-32.857-14.71-32.857-32.857 0-18.146 14.71-32.857 32.857-32.857 18.146 0 32.857 14.71 32.857 32.857z" transform="matrix(-.78726 -.12417 -.1242 .7871 822.998 260.138)" fill="#fff" stroke-width="2.663" stroke-linecap="square"/><g transform="matrix(1.79533 0 0 1.79533 152.9 136.215)" ns0:preamble="/home/waldgeist/data/sphinx/test.tex" ns0:text="$\\ce{Cl}$"><use height="744.094" width="1052.362" y="134.765" x="223.432" xlink:href="#a"/><use height="744.094" width="1052.362" y="134.765" x="230.627" xlink:href="#b"/></g></g><g stroke="navy" stroke-width="1.515"><path d="M221.307 214.047c0 6.969-5.649 12.618-12.618 12.618s-12.618-5.65-12.618-12.618c0-6.97 5.65-12.619 12.618-12.619 6.969 0 12.618 5.65 12.618 12.619z" transform="matrix(-.34304 -.0541 -.05412 .34297 612.19 303.174)" fill="#fff" stroke-width="4.075" stroke-linecap="square"/><text y="666.876" x="180.558" style="line-height:125%" font-size="30" font-weight="400" letter-spacing="0" word-spacing="0" fill="navy" font-family="Sans" transform="matrix(-.46704 0 0 .46694 615.872 57.738)"><tspan y="666.876" x="180.558">-</tspan></text><g><path transform="matrix(-.34304 -.0541 -.05412 .34297 612.19 316.68)" d="M221.307 214.047c0 6.969-5.649 12.618-12.618 12.618s-12.618-5.65-12.618-12.618c0-6.97 5.65-12.619 12.618-12.619 6.969 0 12.618 5.65 12.618 12.619z" fill="#fff" stroke-width="4.075" stroke-linecap="square"/><text style="line-height:125%" x="180.558" y="666.876" font-size="30" font-weight="400" letter-spacing="0" word-spacing="0" fill="navy" font-family="Sans" transform="matrix(-.46704 0 0 .46694 615.872 71.244)"><tspan x="180.558" y="666.876">-</tspan></text></g><g><path transform="matrix(-.34304 -.0541 -.05412 .34297 680.726 303.174)" d="M221.307 214.047c0 6.969-5.649 12.618-12.618 12.618s-12.618-5.65-12.618-12.618c0-6.97 5.65-12.619 12.618-12.619 6.969 0 12.618 5.65 12.618 12.619z" fill="#fff" stroke-width="4.075" stroke-linecap="square"/><text style="line-height:125%" x="180.558" y="666.876" font-size="30" font-weight="400" letter-spacing="0" word-spacing="0" fill="navy" font-family="Sans" transform="matrix(-.46704 0 0 .46694 684.408 57.738)"><tspan x="180.558" y="666.876">-</tspan></text><g><path d="M221.307 214.047c0 6.969-5.649 12.618-12.618 12.618s-12.618-5.65-12.618-12.618c0-6.97 5.65-12.619 12.618-12.619 6.969 0 12.618 5.65 12.618 12.619z" transform="matrix(-.34304 -.0541 -.05412 .34297 680.726 316.68)" fill="#fff" stroke-width="4.075" stroke-linecap="square"/><text y="666.876" x="180.558" style="line-height:125%" font-size="30" font-weight="400" letter-spacing="0" word-spacing="0" fill="navy" font-family="Sans" transform="matrix(-.46704 0 0 .46694 684.408 71.244)"><tspan y="666.876" x="180.558">-</tspan></text></g></g></g><g stroke="navy" stroke-width="1.515"><path transform="matrix(-.34304 -.0541 -.05412 .34297 639.706 344.195)" d="M221.307 214.047c0 6.969-5.649 12.618-12.618 12.618s-12.618-5.65-12.618-12.618c0-6.97 5.65-12.619 12.618-12.619 6.969 0 12.618 5.65 12.618 12.619z" fill="#fff" stroke-width="4.075" stroke-linecap="square"/><text style="line-height:125%" x="180.558" y="666.876" font-size="30" font-weight="400" letter-spacing="0" word-spacing="0" fill="navy" font-family="Sans" transform="matrix(-.46704 0 0 .46694 643.388 98.76)"><tspan x="180.558" y="666.876">-</tspan></text><g><path d="M221.307 214.047c0 6.969-5.649 12.618-12.618 12.618s-12.618-5.65-12.618-12.618c0-6.97 5.65-12.619 12.618-12.619 6.969 0 12.618 5.65 12.618 12.619z" transform="matrix(-.34304 -.0541 -.05412 .34297 653.21 344.195)" fill="#fff" stroke-width="4.075" stroke-linecap="square"/><text y="666.876" x="180.558" style="line-height:125%" font-size="30" font-weight="400" letter-spacing="0" word-spacing="0" fill="navy" font-family="Sans" transform="matrix(-.46704 0 0 .46694 656.892 98.76)"><tspan y="666.876" x="180.558">-</tspan></text></g></g><g stroke="navy" stroke-width="1.515"><path transform="matrix(-.34304 -.0541 -.05412 .34297 713.913 201.465)" d="M221.307 214.047c0 6.969-5.649 12.618-12.618 12.618s-12.618-5.65-12.618-12.618c0-6.97 5.65-12.619 12.618-12.619 6.969 0 12.618 5.65 12.618 12.619z" fill="#fff" stroke-width="4.075" stroke-linecap="square"/><text style="line-height:125%" x="180.558" y="666.876" font-size="30" font-weight="400" letter-spacing="0" word-spacing="0" fill="navy" font-family="Sans" transform="matrix(-.46704 0 0 .46694 717.596 -43.97)"><tspan x="180.558" y="666.876">-</tspan></text><g><path d="M221.307 214.047c0 6.969-5.649 12.618-12.618 12.618s-12.618-5.65-12.618-12.618c0-6.97 5.65-12.619 12.618-12.619 6.969 0 12.618 5.65 12.618 12.619z" transform="matrix(-.34304 -.0541 -.05412 .34297 727.417 201.465)" fill="#fff" stroke-width="4.075" stroke-linecap="square"/><text y="666.876" x="180.558" style="line-height:125%" font-size="30" font-weight="400" letter-spacing="0" word-spacing="0" fill="navy" font-family="Sans" transform="matrix(-.46704 0 0 .46694 731.1 -43.97)"><tspan y="666.876" x="180.558">-</tspan></text></g></g><g stroke="#000"><path transform="matrix(-.78726 -.12417 -.1242 .7871 897.205 185.945)" d="M332.857 189.505c0 18.147-14.71 32.857-32.857 32.857-18.146 0-32.857-14.71-32.857-32.857 0-18.146 14.71-32.857 32.857-32.857 18.146 0 32.857 14.71 32.857 32.857z" fill="#fff" stroke-width="2.663" stroke-linecap="square"/><g transform="matrix(1.79533 0 0 1.79533 227.108 62.022)" ns0:text="$\\ce{Cl}$" ns0:preamble="/home/waldgeist/data/sphinx/test.tex"><use xlink:href="#a" x="223.432" y="134.765" width="1052.362" height="744.094"/><use xlink:href="#b" x="230.627" y="134.765" width="1052.362" height="744.094"/></g></g><g stroke="navy" stroke-width="1.515"><path transform="matrix(-.34304 -.0541 -.05412 .34297 686.397 228.98)" d="M221.307 214.047c0 6.969-5.649 12.618-12.618 12.618s-12.618-5.65-12.618-12.618c0-6.97 5.65-12.619 12.618-12.619 6.969 0 12.618 5.65 12.618 12.619z" fill="#fff" stroke-width="4.075" stroke-linecap="square"/><text style="line-height:125%" x="180.558" y="666.876" font-size="30" font-weight="400" letter-spacing="0" word-spacing="0" fill="navy" font-family="Sans" transform="matrix(-.46704 0 0 .46694 690.08 -16.455)"><tspan x="180.558" y="666.876">-</tspan></text><g><path d="M221.307 214.047c0 6.969-5.649 12.618-12.618 12.618s-12.618-5.65-12.618-12.618c0-6.97 5.65-12.619 12.618-12.619 6.969 0 12.618 5.65 12.618 12.619z" transform="matrix(-.34304 -.0541 -.05412 .34297 686.397 242.486)" fill="#fff" stroke-width="4.075" stroke-linecap="square"/><text y="666.876" x="180.558" style="line-height:125%" font-size="30" font-weight="400" letter-spacing="0" word-spacing="0" fill="navy" font-family="Sans" transform="matrix(-.46704 0 0 .46694 690.08 -2.949)"><tspan y="666.876" x="180.558">-</tspan></text></g><g><path d="M221.307 214.047c0 6.969-5.649 12.618-12.618 12.618s-12.618-5.65-12.618-12.618c0-6.97 5.65-12.619 12.618-12.619 6.969 0 12.618 5.65 12.618 12.619z" transform="matrix(-.34304 -.0541 -.05412 .34297 754.933 228.98)" fill="#fff" stroke-width="4.075" stroke-linecap="square"/><text y="666.876" x="180.558" style="line-height:125%" font-size="30" font-weight="400" letter-spacing="0" word-spacing="0" fill="navy" font-family="Sans" transform="matrix(-.46704 0 0 .46694 758.616 -16.455)"><tspan y="666.876" x="180.558">-</tspan></text><g><path transform="matrix(-.34304 -.0541 -.05412 .34297 754.933 242.486)" d="M221.307 214.047c0 6.969-5.649 12.618-12.618 12.618s-12.618-5.65-12.618-12.618c0-6.97 5.65-12.619 12.618-12.619 6.969 0 12.618 5.65 12.618 12.619z" fill="#fff" stroke-width="4.075" stroke-linecap="square"/><text style="line-height:125%" x="180.558" y="666.876" font-size="30" font-weight="400" letter-spacing="0" word-spacing="0" fill="navy" font-family="Sans" transform="matrix(-.46704 0 0 .46694 758.616 -2.949)"><tspan x="180.558" y="666.876">-</tspan></text></g></g></g><g stroke="navy" stroke-width="1.515"><path d="M221.307 214.047c0 6.969-5.649 12.618-12.618 12.618s-12.618-5.65-12.618-12.618c0-6.97 5.65-12.619 12.618-12.619 6.969 0 12.618 5.65 12.618 12.619z" transform="matrix(-.34304 -.0541 -.05412 .34297 713.913 270.002)" fill="#fff" stroke-width="4.075" stroke-linecap="square"/><text y="666.876" x="180.558" style="line-height:125%" font-size="30" font-weight="400" letter-spacing="0" word-spacing="0" fill="navy" font-family="Sans" transform="matrix(-.46704 0 0 .46694 717.596 24.567)"><tspan y="666.876" x="180.558">-</tspan></text><g><path transform="matrix(-.34304 -.0541 -.05412 .34297 727.417 270.002)" d="M221.307 214.047c0 6.969-5.649 12.618-12.618 12.618s-12.618-5.65-12.618-12.618c0-6.97 5.65-12.619 12.618-12.619 6.969 0 12.618 5.65 12.618 12.619z" fill="#fff" stroke-width="4.075" stroke-linecap="square"/><text style="line-height:125%" x="180.558" y="666.876" font-size="30" font-weight="400" letter-spacing="0" word-spacing="0" fill="navy" font-family="Sans" transform="matrix(-.46704 0 0 .46694 731.1 24.567)"><tspan x="180.558" y="666.876">-</tspan></text></g></g><g stroke="navy" stroke-width="1.515"><path d="M221.307 214.047c0 6.969-5.649 12.618-12.618 12.618s-12.618-5.65-12.618-12.618c0-6.97 5.65-12.619 12.618-12.619 6.969 0 12.618 5.65 12.618 12.619z" transform="matrix(-.34304 -.0541 -.05412 .34297 788.12 275.658)" fill="#fff" stroke-width="4.075" stroke-linecap="square"/><text y="666.876" x="180.558" style="line-height:125%" font-size="30" font-weight="400" letter-spacing="0" word-spacing="0" fill="navy" font-family="Sans" transform="matrix(-.46704 0 0 .46694 791.803 30.223)"><tspan y="666.876" x="180.558">-</tspan></text><g><path transform="matrix(-.34304 -.0541 -.05412 .34297 801.624 275.658)" d="M221.307 214.047c0 6.969-5.649 12.618-12.618 12.618s-12.618-5.65-12.618-12.618c0-6.97 5.65-12.619 12.618-12.619 6.969 0 12.618 5.65 12.618 12.619z" fill="#fff" stroke-width="4.075" stroke-linecap="square"/><text style="line-height:125%" x="180.558" y="666.876" font-size="30" font-weight="400" letter-spacing="0" word-spacing="0" fill="navy" font-family="Sans" transform="matrix(-.46704 0 0 .46694 805.307 30.223)"><tspan x="180.558" y="666.876">-</tspan></text></g></g><g stroke="#000"><path d="M332.857 189.505c0 18.147-14.71 32.857-32.857 32.857-18.146 0-32.857-14.71-32.857-32.857 0-18.146 14.71-32.857 32.857-32.857 18.146 0 32.857 14.71 32.857 32.857z" transform="matrix(-.78726 -.12417 -.1242 .7871 971.412 260.138)" fill="#fff" stroke-width="2.663" stroke-linecap="square"/><g transform="matrix(1.79533 0 0 1.79533 301.315 136.215)" ns0:preamble="/home/waldgeist/data/sphinx/test.tex" ns0:text="$\\ce{Cl}$"><use height="744.094" width="1052.362" y="134.765" x="223.432" xlink:href="#a"/><use height="744.094" width="1052.362" y="134.765" x="230.627" xlink:href="#b"/></g></g><g stroke="navy" stroke-width="1.515"><path d="M221.307 214.047c0 6.969-5.649 12.618-12.618 12.618s-12.618-5.65-12.618-12.618c0-6.97 5.65-12.619 12.618-12.619 6.969 0 12.618 5.65 12.618 12.619z" transform="matrix(-.34304 -.0541 -.05412 .34297 760.604 303.174)" fill="#fff" stroke-width="4.075" stroke-linecap="square"/><text y="666.876" x="180.558" style="line-height:125%" font-size="30" font-weight="400" letter-spacing="0" word-spacing="0" fill="navy" font-family="Sans" transform="matrix(-.46704 0 0 .46694 764.287 57.738)"><tspan y="666.876" x="180.558">-</tspan></text><g><path transform="matrix(-.34304 -.0541 -.05412 .34297 760.604 316.68)" d="M221.307 214.047c0 6.969-5.649 12.618-12.618 12.618s-12.618-5.65-12.618-12.618c0-6.97 5.65-12.619 12.618-12.619 6.969 0 12.618 5.65 12.618 12.619z" fill="#fff" stroke-width="4.075" stroke-linecap="square"/><text style="line-height:125%" x="180.558" y="666.876" font-size="30" font-weight="400" letter-spacing="0" word-spacing="0" fill="navy" font-family="Sans" transform="matrix(-.46704 0 0 .46694 764.287 71.244)"><tspan x="180.558" y="666.876">-</tspan></text></g><g><path transform="matrix(-.34304 -.0541 -.05412 .34297 829.14 303.174)" d="M221.307 214.047c0 6.969-5.649 12.618-12.618 12.618s-12.618-5.65-12.618-12.618c0-6.97 5.65-12.619 12.618-12.619 6.969 0 12.618 5.65 12.618 12.619z" fill="#fff" stroke-width="4.075" stroke-linecap="square"/><text style="line-height:125%" x="180.558" y="666.876" font-size="30" font-weight="400" letter-spacing="0" word-spacing="0" fill="navy" font-family="Sans" transform="matrix(-.46704 0 0 .46694 832.823 57.738)"><tspan x="180.558" y="666.876">-</tspan></text><g><path d="M221.307 214.047c0 6.969-5.649 12.618-12.618 12.618s-12.618-5.65-12.618-12.618c0-6.97 5.65-12.619 12.618-12.619 6.969 0 12.618 5.65 12.618 12.619z" transform="matrix(-.34304 -.0541 -.05412 .34297 829.14 316.68)" fill="#fff" stroke-width="4.075" stroke-linecap="square"/><text y="666.876" x="180.558" style="line-height:125%" font-size="30" font-weight="400" letter-spacing="0" word-spacing="0" fill="navy" font-family="Sans" transform="matrix(-.46704 0 0 .46694 832.823 71.244)"><tspan y="666.876" x="180.558">-</tspan></text></g></g></g><g stroke="navy" stroke-width="1.515"><path transform="matrix(-.34304 -.0541 -.05412 .34297 788.12 344.195)" d="M221.307 214.047c0 6.969-5.649 12.618-12.618 12.618s-12.618-5.65-12.618-12.618c0-6.97 5.65-12.619 12.618-12.619 6.969 0 12.618 5.65 12.618 12.619z" fill="#fff" stroke-width="4.075" stroke-linecap="square"/><text style="line-height:125%" x="180.558" y="666.876" font-size="30" font-weight="400" letter-spacing="0" word-spacing="0" fill="navy" font-family="Sans" transform="matrix(-.46704 0 0 .46694 791.803 98.76)"><tspan x="180.558" y="666.876">-</tspan></text><g><path d="M221.307 214.047c0 6.969-5.649 12.618-12.618 12.618s-12.618-5.65-12.618-12.618c0-6.97 5.65-12.619 12.618-12.619 6.969 0 12.618 5.65 12.618 12.619z" transform="matrix(-.34304 -.0541 -.05412 .34297 801.624 344.195)" fill="#fff" stroke-width="4.075" stroke-linecap="square"/><text y="666.876" x="180.558" style="line-height:125%" font-size="30" font-weight="400" letter-spacing="0" word-spacing="0" fill="navy" font-family="Sans" transform="matrix(-.46704 0 0 .46694 805.307 98.76)"><tspan y="666.876" x="180.558">-</tspan></text></g></g><g stroke="navy" stroke-width="1.515"><path d="M221.307 214.047c0 6.969-5.649 12.618-12.618 12.618s-12.618-5.65-12.618-12.618c0-6.97 5.65-12.619 12.618-12.619 6.969 0 12.618 5.65 12.618 12.619z" transform="matrix(-.34304 -.0541 -.05412 .34297 862.327 201.466)" fill="#fff" stroke-width="4.075" stroke-linecap="square"/><text y="666.876" x="180.558" style="line-height:125%" font-size="30" font-weight="400" letter-spacing="0" word-spacing="0" fill="navy" font-family="Sans" transform="matrix(-.46704 0 0 .46694 866.01 -43.97)"><tspan y="666.876" x="180.558">-</tspan></text><g><path transform="matrix(-.34304 -.0541 -.05412 .34297 875.831 201.466)" d="M221.307 214.047c0 6.969-5.649 12.618-12.618 12.618s-12.618-5.65-12.618-12.618c0-6.97 5.65-12.619 12.618-12.619 6.969 0 12.618 5.65 12.618 12.619z" fill="#fff" stroke-width="4.075" stroke-linecap="square"/><text style="line-height:125%" x="180.558" y="666.876" font-size="30" font-weight="400" letter-spacing="0" word-spacing="0" fill="navy" font-family="Sans" transform="matrix(-.46704 0 0 .46694 879.514 -43.97)"><tspan x="180.558" y="666.876">-</tspan></text></g></g><g stroke="#000"><path d="M332.857 189.505c0 18.147-14.71 32.857-32.857 32.857-18.146 0-32.857-14.71-32.857-32.857 0-18.146 14.71-32.857 32.857-32.857 18.146 0 32.857 14.71 32.857 32.857z" transform="matrix(-.78726 -.12417 -.1242 .7871 1045.62 185.946)" fill="#fff" stroke-width="2.663" stroke-linecap="square"/><g transform="matrix(1.79533 0 0 1.79533 375.522 62.022)" ns0:preamble="/home/waldgeist/data/sphinx/test.tex" ns0:text="$\\ce{Cl}$"><use height="744.094" width="1052.362" y="134.765" x="223.432" xlink:href="#a"/><use height="744.094" width="1052.362" y="134.765" x="230.627" xlink:href="#b"/></g></g><g stroke="navy" stroke-width="1.515"><path d="M221.307 214.047c0 6.969-5.649 12.618-12.618 12.618s-12.618-5.65-12.618-12.618c0-6.97 5.65-12.619 12.618-12.619 6.969 0 12.618 5.65 12.618 12.619z" transform="matrix(-.34304 -.0541 -.05412 .34297 834.81 228.98)" fill="#fff" stroke-width="4.075" stroke-linecap="square"/><text y="666.876" x="180.558" style="line-height:125%" font-size="30" font-weight="400" letter-spacing="0" word-spacing="0" fill="navy" font-family="Sans" transform="matrix(-.46704 0 0 .46694 838.494 -16.454)"><tspan y="666.876" x="180.558">-</tspan></text><g><path transform="matrix(-.34304 -.0541 -.05412 .34297 834.81 242.487)" d="M221.307 214.047c0 6.969-5.649 12.618-12.618 12.618s-12.618-5.65-12.618-12.618c0-6.97 5.65-12.619 12.618-12.619 6.969 0 12.618 5.65 12.618 12.619z" fill="#fff" stroke-width="4.075" stroke-linecap="square"/><text style="line-height:125%" x="180.558" y="666.876" font-size="30" font-weight="400" letter-spacing="0" word-spacing="0" fill="navy" font-family="Sans" transform="matrix(-.46704 0 0 .46694 838.494 -2.949)"><tspan x="180.558" y="666.876">-</tspan></text></g><g><path transform="matrix(-.34304 -.0541 -.05412 .34297 903.347 228.98)" d="M221.307 214.047c0 6.969-5.649 12.618-12.618 12.618s-12.618-5.65-12.618-12.618c0-6.97 5.65-12.619 12.618-12.619 6.969 0 12.618 5.65 12.618 12.619z" fill="#fff" stroke-width="4.075" stroke-linecap="square"/><text style="line-height:125%" x="180.558" y="666.876" font-size="30" font-weight="400" letter-spacing="0" word-spacing="0" fill="navy" font-family="Sans" transform="matrix(-.46704 0 0 .46694 907.03 -16.454)"><tspan x="180.558" y="666.876">-</tspan></text><g><path d="M221.307 214.047c0 6.969-5.649 12.618-12.618 12.618s-12.618-5.65-12.618-12.618c0-6.97 5.65-12.619 12.618-12.619 6.969 0 12.618 5.65 12.618 12.619z" transform="matrix(-.34304 -.0541 -.05412 .34297 903.347 242.487)" fill="#fff" stroke-width="4.075" stroke-linecap="square"/><text y="666.876" x="180.558" style="line-height:125%" font-size="30" font-weight="400" letter-spacing="0" word-spacing="0" fill="navy" font-family="Sans" transform="matrix(-.46704 0 0 .46694 907.03 -2.949)"><tspan y="666.876" x="180.558">-</tspan></text></g></g></g><g stroke="navy" stroke-width="1.515"><path transform="matrix(-.34304 -.0541 -.05412 .34297 862.327 270.003)" d="M221.307 214.047c0 6.969-5.649 12.618-12.618 12.618s-12.618-5.65-12.618-12.618c0-6.97 5.65-12.619 12.618-12.619 6.969 0 12.618 5.65 12.618 12.619z" fill="#fff" stroke-width="4.075" stroke-linecap="square"/><text style="line-height:125%" x="180.558" y="666.876" font-size="30" font-weight="400" letter-spacing="0" word-spacing="0" fill="navy" font-family="Sans" transform="matrix(-.46704 0 0 .46694 866.01 24.568)"><tspan x="180.558" y="666.876">-</tspan></text><g><path d="M221.307 214.047c0 6.969-5.649 12.618-12.618 12.618s-12.618-5.65-12.618-12.618c0-6.97 5.65-12.619 12.618-12.619 6.969 0 12.618 5.65 12.618 12.619z" transform="matrix(-.34304 -.0541 -.05412 .34297 875.831 270.003)" fill="#fff" stroke-width="4.075" stroke-linecap="square"/><text y="666.876" x="180.558" style="line-height:125%" font-size="30" font-weight="400" letter-spacing="0" word-spacing="0" fill="navy" font-family="Sans" transform="matrix(-.46704 0 0 .46694 879.514 24.568)"><tspan y="666.876" x="180.558">-</tspan></text></g></g><path transform="matrix(-.5467 -.08623 -.08625 .5466 521.019 294.333)" d="M332.857 189.505a32.857 32.857 0 1 1-65.714 0 32.857 32.857 0 1 1 65.714 0z" fill="#fff" stroke="#000" stroke-width="3.835" stroke-linecap="square"/><g transform="matrix(1.79533 0 0 1.79533 -71.89 136.117)" ns0:text="$\\ce{Na}$" ns0:preamble="/home/waldgeist/data/sphinx/test.tex" stroke="#000"><use height="744.094" width="1052.362" xlink:href="#c" x="223.432" y="134.765"/><use height="744.094" width="1052.362" xlink:href="#d" x="230.904" y="134.765"/></g><path d="M332.857 189.505a32.857 32.857 0 1 1-65.714 0 32.857 32.857 0 1 1 65.714 0z" transform="matrix(-.5467 -.08623 -.08625 .5466 595.226 220.14)" fill="#fff" stroke="#000" stroke-width="3.835" stroke-linecap="square"/><g transform="matrix(1.79533 0 0 1.79533 2.316 61.924)" ns0:preamble="/home/waldgeist/data/sphinx/test.tex" ns0:text="$\\ce{Na}$" stroke="#000"><use y="134.765" x="223.432" xlink:href="#c" width="1052.362" height="744.094"/><use y="134.765" x="230.904" xlink:href="#d" width="1052.362" height="744.094"/></g><path transform="matrix(-.5467 -.08623 -.08625 .5466 669.433 294.333)" d="M332.857 189.505a32.857 32.857 0 1 1-65.714 0 32.857 32.857 0 1 1 65.714 0z" fill="#fff" stroke="#000" stroke-width="3.835" stroke-linecap="square"/><g transform="matrix(1.79533 0 0 1.79533 76.523 136.117)" ns0:text="$\\ce{Na}$" ns0:preamble="/home/waldgeist/data/sphinx/test.tex" stroke="#000"><use height="744.094" width="1052.362" xlink:href="#c" x="223.432" y="134.765"/><use height="744.094" width="1052.362" xlink:href="#d" x="230.904" y="134.765"/></g><path d="M332.857 189.505a32.857 32.857 0 1 1-65.714 0 32.857 32.857 0 1 1 65.714 0z" transform="matrix(-.5467 -.08623 -.08625 .5466 595.226 368.526)" fill="#fff" stroke="#000" stroke-width="3.835" stroke-linecap="square"/><g transform="matrix(1.79533 0 0 1.79533 2.316 210.31)" ns0:preamble="/home/waldgeist/data/sphinx/test.tex" ns0:text="$\\ce{Na}$" stroke="#000"><use y="134.765" x="223.432" xlink:href="#c" width="1052.362" height="744.094"/><use y="134.765" x="230.904" xlink:href="#d" width="1052.362" height="744.094"/></g><path d="M332.857 189.505a32.857 32.857 0 1 1-65.714 0 32.857 32.857 0 1 1 65.714 0z" transform="matrix(-.5467 -.08623 -.08625 .5466 743.64 220.14)" fill="#fff" stroke="#000" stroke-width="3.835" stroke-linecap="square"/><g transform="matrix(1.79533 0 0 1.79533 150.73 61.924)" ns0:preamble="/home/waldgeist/data/sphinx/test.tex" ns0:text="$\\ce{Na}$" stroke="#000"><use y="134.765" x="223.432" xlink:href="#c" width="1052.362" height="744.094"/><use y="134.765" x="230.904" xlink:href="#d" width="1052.362" height="744.094"/></g><path transform="matrix(-.5467 -.08623 -.08625 .5466 817.847 294.333)" d="M332.857 189.505a32.857 32.857 0 1 1-65.714 0 32.857 32.857 0 1 1 65.714 0z" fill="#fff" stroke="#000" stroke-width="3.835" stroke-linecap="square"/><g transform="matrix(1.79533 0 0 1.79533 224.938 136.117)" ns0:text="$\\ce{Na}$" ns0:preamble="/home/waldgeist/data/sphinx/test.tex" stroke="#000"><use height="744.094" width="1052.362" xlink:href="#c" x="223.432" y="134.765"/><use height="744.094" width="1052.362" xlink:href="#d" x="230.904" y="134.765"/></g><path d="M332.857 189.505a32.857 32.857 0 1 1-65.714 0 32.857 32.857 0 1 1 65.714 0z" transform="matrix(-.5467 -.08623 -.08625 .5466 743.64 368.526)" fill="#fff" stroke="#000" stroke-width="3.835" stroke-linecap="square"/><g transform="matrix(1.79533 0 0 1.79533 150.73 210.31)" ns0:preamble="/home/waldgeist/data/sphinx/test.tex" ns0:text="$\\ce{Na}$" stroke="#000"><use y="134.765" x="223.432" xlink:href="#c" width="1052.362" height="744.094"/><use y="134.765" x="230.904" xlink:href="#d" width="1052.362" height="744.094"/></g><path transform="matrix(-.5467 -.08623 -.08625 .5466 892.054 220.14)" d="M332.857 189.505a32.857 32.857 0 1 1-65.714 0 32.857 32.857 0 1 1 65.714 0z" fill="#fff" stroke="#000" stroke-width="3.835" stroke-linecap="square"/><g transform="matrix(1.79533 0 0 1.79533 299.145 61.924)" ns0:text="$\\ce{Na}$" ns0:preamble="/home/waldgeist/data/sphinx/test.tex" stroke="#000"><use height="744.094" width="1052.362" xlink:href="#c" x="223.432" y="134.765"/><use height="744.094" width="1052.362" xlink:href="#d" x="230.904" y="134.765"/></g><path d="M332.857 189.505a32.857 32.857 0 1 1-65.714 0 32.857 32.857 0 1 1 65.714 0z" transform="matrix(-.5467 -.08623 -.08625 .5466 966.262 294.333)" fill="#fff" stroke="#000" stroke-width="3.835" stroke-linecap="square"/><g transform="matrix(1.79533 0 0 1.79533 373.352 136.117)" ns0:preamble="/home/waldgeist/data/sphinx/test.tex" ns0:text="$\\ce{Na}$" stroke="#000"><use y="134.765" x="223.432" xlink:href="#c" width="1052.362" height="744.094"/><use y="134.765" x="230.904" xlink:href="#d" width="1052.362" height="744.094"/></g><g stroke="navy" stroke-width="1.515"><path d="M221.307 214.047c0 6.969-5.649 12.618-12.618 12.618s-12.618-5.65-12.618-12.618c0-6.97 5.65-12.619 12.618-12.619 6.969 0 12.618 5.65 12.618 12.619z" transform="matrix(-.34304 -.0541 -.05412 .34297 565.499 349.85)" fill="#fff" stroke-width="4.075" stroke-linecap="square"/><text y="666.876" x="180.558" style="line-height:125%" font-size="30" font-weight="400" letter-spacing="0" word-spacing="0" fill="navy" font-family="Sans" transform="matrix(-.46704 0 0 .46694 569.181 104.416)"><tspan y="666.876" x="180.558">-</tspan></text><g><path transform="matrix(-.34304 -.0541 -.05412 .34297 579.002 349.85)" d="M221.307 214.047c0 6.969-5.649 12.618-12.618 12.618s-12.618-5.65-12.618-12.618c0-6.97 5.65-12.619 12.618-12.619 6.969 0 12.618 5.65 12.618 12.619z" fill="#fff" stroke-width="4.075" stroke-linecap="square"/><text style="line-height:125%" x="180.558" y="666.876" font-size="30" font-weight="400" letter-spacing="0" word-spacing="0" fill="navy" font-family="Sans" transform="matrix(-.46704 0 0 .46694 582.685 104.416)"><tspan x="180.558" y="666.876">-</tspan></text></g></g><g stroke="#000"><path d="M332.857 189.505c0 18.147-14.71 32.857-32.857 32.857-18.146 0-32.857-14.71-32.857-32.857 0-18.146 14.71-32.857 32.857-32.857 18.146 0 32.857 14.71 32.857 32.857z" transform="matrix(-.78726 -.12417 -.1242 .7871 748.79 334.33)" fill="#fff" stroke-width="2.663" stroke-linecap="square"/><g transform="matrix(1.79533 0 0 1.79533 78.694 210.408)" ns0:preamble="/home/waldgeist/data/sphinx/test.tex" ns0:text="$\\ce{Cl}$"><use height="744.094" width="1052.362" y="134.765" x="223.432" xlink:href="#a"/><use height="744.094" width="1052.362" y="134.765" x="230.627" xlink:href="#b"/></g></g><g stroke="navy" stroke-width="1.515"><path d="M221.307 214.047c0 6.969-5.649 12.618-12.618 12.618s-12.618-5.65-12.618-12.618c0-6.97 5.65-12.619 12.618-12.619 6.969 0 12.618 5.65 12.618 12.619z" transform="matrix(-.34304 -.0541 -.05412 .34297 537.982 377.366)" fill="#fff" stroke-width="4.075" stroke-linecap="square"/><text y="666.876" x="180.558" style="line-height:125%" font-size="30" font-weight="400" letter-spacing="0" word-spacing="0" fill="navy" font-family="Sans" transform="matrix(-.46704 0 0 .46694 541.665 131.931)"><tspan y="666.876" x="180.558">-</tspan></text><g><path transform="matrix(-.34304 -.0541 -.05412 .34297 537.982 390.872)" d="M221.307 214.047c0 6.969-5.649 12.618-12.618 12.618s-12.618-5.65-12.618-12.618c0-6.97 5.65-12.619 12.618-12.619 6.969 0 12.618 5.65 12.618 12.619z" fill="#fff" stroke-width="4.075" stroke-linecap="square"/><text style="line-height:125%" x="180.558" y="666.876" font-size="30" font-weight="400" letter-spacing="0" word-spacing="0" fill="navy" font-family="Sans" transform="matrix(-.46704 0 0 .46694 541.665 145.437)"><tspan x="180.558" y="666.876">-</tspan></text></g><g><path transform="matrix(-.34304 -.0541 -.05412 .34297 606.519 377.366)" d="M221.307 214.047c0 6.969-5.649 12.618-12.618 12.618s-12.618-5.65-12.618-12.618c0-6.97 5.65-12.619 12.618-12.619 6.969 0 12.618 5.65 12.618 12.619z" fill="#fff" stroke-width="4.075" stroke-linecap="square"/><text style="line-height:125%" x="180.558" y="666.876" font-size="30" font-weight="400" letter-spacing="0" word-spacing="0" fill="navy" font-family="Sans" transform="matrix(-.46704 0 0 .46694 610.201 131.931)"><tspan x="180.558" y="666.876">-</tspan></text><g><path d="M221.307 214.047c0 6.969-5.649 12.618-12.618 12.618s-12.618-5.65-12.618-12.618c0-6.97 5.65-12.619 12.618-12.619 6.969 0 12.618 5.65 12.618 12.619z" transform="matrix(-.34304 -.0541 -.05412 .34297 606.519 390.872)" fill="#fff" stroke-width="4.075" stroke-linecap="square"/><text y="666.876" x="180.558" style="line-height:125%" font-size="30" font-weight="400" letter-spacing="0" word-spacing="0" fill="navy" font-family="Sans" transform="matrix(-.46704 0 0 .46694 610.201 145.437)"><tspan y="666.876" x="180.558">-</tspan></text></g></g></g><g stroke="navy" stroke-width="1.515"><path transform="matrix(-.34304 -.0541 -.05412 .34297 565.499 418.388)" d="M221.307 214.047c0 6.969-5.649 12.618-12.618 12.618s-12.618-5.65-12.618-12.618c0-6.97 5.65-12.619 12.618-12.619 6.969 0 12.618 5.65 12.618 12.619z" fill="#fff" stroke-width="4.075" stroke-linecap="square"/><text style="line-height:125%" x="180.558" y="666.876" font-size="30" font-weight="400" letter-spacing="0" word-spacing="0" fill="navy" font-family="Sans" transform="matrix(-.46704 0 0 .46694 569.181 172.953)"><tspan x="180.558" y="666.876">-</tspan></text><g><path d="M221.307 214.047c0 6.969-5.649 12.618-12.618 12.618s-12.618-5.65-12.618-12.618c0-6.97 5.65-12.619 12.618-12.619 6.969 0 12.618 5.65 12.618 12.619z" transform="matrix(-.34304 -.0541 -.05412 .34297 579.002 418.388)" fill="#fff" stroke-width="4.075" stroke-linecap="square"/><text y="666.876" x="180.558" style="line-height:125%" font-size="30" font-weight="400" letter-spacing="0" word-spacing="0" fill="navy" font-family="Sans" transform="matrix(-.46704 0 0 .46694 582.685 172.953)"><tspan y="666.876" x="180.558">-</tspan></text></g></g><g stroke="navy" stroke-width="1.515"><path d="M221.307 214.047c0 6.969-5.649 12.618-12.618 12.618s-12.618-5.65-12.618-12.618c0-6.97 5.65-12.619 12.618-12.619 6.969 0 12.618 5.65 12.618 12.619z" transform="matrix(-.34304 -.0541 -.05412 .34297 713.913 349.85)" fill="#fff" stroke-width="4.075" stroke-linecap="square"/><text y="666.876" x="180.558" style="line-height:125%" font-size="30" font-weight="400" letter-spacing="0" word-spacing="0" fill="navy" font-family="Sans" transform="matrix(-.46704 0 0 .46694 717.596 104.416)"><tspan y="666.876" x="180.558">-</tspan></text><g><path transform="matrix(-.34304 -.0541 -.05412 .34297 727.417 349.85)" d="M221.307 214.047c0 6.969-5.649 12.618-12.618 12.618s-12.618-5.65-12.618-12.618c0-6.97 5.65-12.619 12.618-12.619 6.969 0 12.618 5.65 12.618 12.619z" fill="#fff" stroke-width="4.075" stroke-linecap="square"/><text style="line-height:125%" x="180.558" y="666.876" font-size="30" font-weight="400" letter-spacing="0" word-spacing="0" fill="navy" font-family="Sans" transform="matrix(-.46704 0 0 .46694 731.1 104.416)"><tspan x="180.558" y="666.876">-</tspan></text></g></g><g stroke="#000"><path d="M332.857 189.505c0 18.147-14.71 32.857-32.857 32.857-18.146 0-32.857-14.71-32.857-32.857 0-18.146 14.71-32.857 32.857-32.857 18.146 0 32.857 14.71 32.857 32.857z" transform="matrix(-.78726 -.12417 -.1242 .7871 897.205 334.33)" fill="#fff" stroke-width="2.663" stroke-linecap="square"/><g transform="matrix(1.79533 0 0 1.79533 227.108 210.408)" ns0:preamble="/home/waldgeist/data/sphinx/test.tex" ns0:text="$\\ce{Cl}$"><use height="744.094" width="1052.362" y="134.765" x="223.432" xlink:href="#a"/><use height="744.094" width="1052.362" y="134.765" x="230.627" xlink:href="#b"/></g></g><g stroke="navy" stroke-width="1.515"><path d="M221.307 214.047c0 6.969-5.649 12.618-12.618 12.618s-12.618-5.65-12.618-12.618c0-6.97 5.65-12.619 12.618-12.619 6.969 0 12.618 5.65 12.618 12.619z" transform="matrix(-.34304 -.0541 -.05412 .34297 686.397 377.366)" fill="#fff" stroke-width="4.075" stroke-linecap="square"/><text y="666.876" x="180.558" style="line-height:125%" font-size="30" font-weight="400" letter-spacing="0" word-spacing="0" fill="navy" font-family="Sans" transform="matrix(-.46704 0 0 .46694 690.08 131.931)"><tspan y="666.876" x="180.558">-</tspan></text><g><path transform="matrix(-.34304 -.0541 -.05412 .34297 686.397 390.872)" d="M221.307 214.047c0 6.969-5.649 12.618-12.618 12.618s-12.618-5.65-12.618-12.618c0-6.97 5.65-12.619 12.618-12.619 6.969 0 12.618 5.65 12.618 12.619z" fill="#fff" stroke-width="4.075" stroke-linecap="square"/><text style="line-height:125%" x="180.558" y="666.876" font-size="30" font-weight="400" letter-spacing="0" word-spacing="0" fill="navy" font-family="Sans" transform="matrix(-.46704 0 0 .46694 690.08 145.437)"><tspan x="180.558" y="666.876">-</tspan></text></g><g><path transform="matrix(-.34304 -.0541 -.05412 .34297 754.933 377.366)" d="M221.307 214.047c0 6.969-5.649 12.618-12.618 12.618s-12.618-5.65-12.618-12.618c0-6.97 5.65-12.619 12.618-12.619 6.969 0 12.618 5.65 12.618 12.619z" fill="#fff" stroke-width="4.075" stroke-linecap="square"/><text style="line-height:125%" x="180.558" y="666.876" font-size="30" font-weight="400" letter-spacing="0" word-spacing="0" fill="navy" font-family="Sans" transform="matrix(-.46704 0 0 .46694 758.616 131.931)"><tspan x="180.558" y="666.876">-</tspan></text><g><path d="M221.307 214.047c0 6.969-5.649 12.618-12.618 12.618s-12.618-5.65-12.618-12.618c0-6.97 5.65-12.619 12.618-12.619 6.969 0 12.618 5.65 12.618 12.619z" transform="matrix(-.34304 -.0541 -.05412 .34297 754.933 390.872)" fill="#fff" stroke-width="4.075" stroke-linecap="square"/><text y="666.876" x="180.558" style="line-height:125%" font-size="30" font-weight="400" letter-spacing="0" word-spacing="0" fill="navy" font-family="Sans" transform="matrix(-.46704 0 0 .46694 758.616 145.437)"><tspan y="666.876" x="180.558">-</tspan></text></g></g></g><g stroke="navy" stroke-width="1.515"><path transform="matrix(-.34304 -.0541 -.05412 .34297 713.913 418.388)" d="M221.307 214.047c0 6.969-5.649 12.618-12.618 12.618s-12.618-5.65-12.618-12.618c0-6.97 5.65-12.619 12.618-12.619 6.969 0 12.618 5.65 12.618 12.619z" fill="#fff" stroke-width="4.075" stroke-linecap="square"/><text style="line-height:125%" x="180.558" y="666.876" font-size="30" font-weight="400" letter-spacing="0" word-spacing="0" fill="navy" font-family="Sans" transform="matrix(-.46704 0 0 .46694 717.596 172.953)"><tspan x="180.558" y="666.876">-</tspan></text><g><path d="M221.307 214.047c0 6.969-5.649 12.618-12.618 12.618s-12.618-5.65-12.618-12.618c0-6.97 5.65-12.619 12.618-12.619 6.969 0 12.618 5.65 12.618 12.619z" transform="matrix(-.34304 -.0541 -.05412 .34297 727.417 418.388)" fill="#fff" stroke-width="4.075" stroke-linecap="square"/><text y="666.876" x="180.558" style="line-height:125%" font-size="30" font-weight="400" letter-spacing="0" word-spacing="0" fill="navy" font-family="Sans" transform="matrix(-.46704 0 0 .46694 731.1 172.953)"><tspan y="666.876" x="180.558">-</tspan></text></g></g><path d="M332.857 189.505a32.857 32.857 0 1 1-65.714 0 32.857 32.857 0 1 1 65.714 0z" transform="matrix(-.5467 -.08623 -.08625 .5466 892.054 368.526)" fill="#fff" stroke="#000" stroke-width="3.835" stroke-linecap="square"/><g transform="matrix(1.79533 0 0 1.79533 299.145 210.31)" ns0:preamble="/home/waldgeist/data/sphinx/test.tex" ns0:text="$\\ce{Na}$" stroke="#000"><use y="134.765" x="223.432" xlink:href="#c" width="1052.362" height="744.094"/><use y="134.765" x="230.904" xlink:href="#d" width="1052.362" height="744.094"/></g><g stroke="navy" stroke-width="1.515"><path transform="matrix(-.34304 -.0541 -.05412 .34297 862.327 349.85)" d="M221.307 214.047c0 6.969-5.649 12.618-12.618 12.618s-12.618-5.65-12.618-12.618c0-6.97 5.65-12.619 12.618-12.619 6.969 0 12.618 5.65 12.618 12.619z" fill="#fff" stroke-width="4.075" stroke-linecap="square"/><text style="line-height:125%" x="180.558" y="666.876" font-size="30" font-weight="400" letter-spacing="0" word-spacing="0" fill="navy" font-family="Sans" transform="matrix(-.46704 0 0 .46694 866.01 104.416)"><tspan x="180.558" y="666.876">-</tspan></text><g><path d="M221.307 214.047c0 6.969-5.649 12.618-12.618 12.618s-12.618-5.65-12.618-12.618c0-6.97 5.65-12.619 12.618-12.619 6.969 0 12.618 5.65 12.618 12.619z" transform="matrix(-.34304 -.0541 -.05412 .34297 875.831 349.85)" fill="#fff" stroke-width="4.075" stroke-linecap="square"/><text y="666.876" x="180.558" style="line-height:125%" font-size="30" font-weight="400" letter-spacing="0" word-spacing="0" fill="navy" font-family="Sans" transform="matrix(-.46704 0 0 .46694 879.514 104.416)"><tspan y="666.876" x="180.558">-</tspan></text></g></g><g stroke="#000"><path transform="matrix(-.78726 -.12417 -.1242 .7871 1045.62 334.33)" d="M332.857 189.505c0 18.147-14.71 32.857-32.857 32.857-18.146 0-32.857-14.71-32.857-32.857 0-18.146 14.71-32.857 32.857-32.857 18.146 0 32.857 14.71 32.857 32.857z" fill="#fff" stroke-width="2.663" stroke-linecap="square"/><g transform="matrix(1.79533 0 0 1.79533 375.522 210.408)" ns0:text="$\\ce{Cl}$" ns0:preamble="/home/waldgeist/data/sphinx/test.tex"><use xlink:href="#a" x="223.432" y="134.765" width="1052.362" height="744.094"/><use xlink:href="#b" x="230.627" y="134.765" width="1052.362" height="744.094"/></g></g><g stroke="navy" stroke-width="1.515"><path transform="matrix(-.34304 -.0541 -.05412 .34297 834.81 377.366)" d="M221.307 214.047c0 6.969-5.649 12.618-12.618 12.618s-12.618-5.65-12.618-12.618c0-6.97 5.65-12.619 12.618-12.619 6.969 0 12.618 5.65 12.618 12.619z" fill="#fff" stroke-width="4.075" stroke-linecap="square"/><text style="line-height:125%" x="180.558" y="666.876" font-size="30" font-weight="400" letter-spacing="0" word-spacing="0" fill="navy" font-family="Sans" transform="matrix(-.46704 0 0 .46694 838.494 131.931)"><tspan x="180.558" y="666.876">-</tspan></text><g><path d="M221.307 214.047c0 6.969-5.649 12.618-12.618 12.618s-12.618-5.65-12.618-12.618c0-6.97 5.65-12.619 12.618-12.619 6.969 0 12.618 5.65 12.618 12.619z" transform="matrix(-.34304 -.0541 -.05412 .34297 834.81 390.872)" fill="#fff" stroke-width="4.075" stroke-linecap="square"/><text y="666.876" x="180.558" style="line-height:125%" font-size="30" font-weight="400" letter-spacing="0" word-spacing="0" fill="navy" font-family="Sans" transform="matrix(-.46704 0 0 .46694 838.494 145.437)"><tspan y="666.876" x="180.558">-</tspan></text></g><g><path d="M221.307 214.047c0 6.969-5.649 12.618-12.618 12.618s-12.618-5.65-12.618-12.618c0-6.97 5.65-12.619 12.618-12.619 6.969 0 12.618 5.65 12.618 12.619z" transform="matrix(-.34304 -.0541 -.05412 .34297 903.347 377.366)" fill="#fff" stroke-width="4.075" stroke-linecap="square"/><text y="666.876" x="180.558" style="line-height:125%" font-size="30" font-weight="400" letter-spacing="0" word-spacing="0" fill="navy" font-family="Sans" transform="matrix(-.46704 0 0 .46694 907.03 131.931)"><tspan y="666.876" x="180.558">-</tspan></text><g><path transform="matrix(-.34304 -.0541 -.05412 .34297 903.347 390.872)" d="M221.307 214.047c0 6.969-5.649 12.618-12.618 12.618s-12.618-5.65-12.618-12.618c0-6.97 5.65-12.619 12.618-12.619 6.969 0 12.618 5.65 12.618 12.619z" fill="#fff" stroke-width="4.075" stroke-linecap="square"/><text style="line-height:125%" x="180.558" y="666.876" font-size="30" font-weight="400" letter-spacing="0" word-spacing="0" fill="navy" font-family="Sans" transform="matrix(-.46704 0 0 .46694 907.03 145.437)"><tspan x="180.558" y="666.876">-</tspan></text></g></g></g><g stroke="navy" stroke-width="1.515"><path d="M221.307 214.047c0 6.969-5.649 12.618-12.618 12.618s-12.618-5.65-12.618-12.618c0-6.97 5.65-12.619 12.618-12.619 6.969 0 12.618 5.65 12.618 12.619z" transform="matrix(-.34304 -.0541 -.05412 .34297 862.327 418.388)" fill="#fff" stroke-width="4.075" stroke-linecap="square"/><text y="666.876" x="180.558" style="line-height:125%" font-size="30" font-weight="400" letter-spacing="0" word-spacing="0" fill="navy" font-family="Sans" transform="matrix(-.46704 0 0 .46694 866.01 172.953)"><tspan y="666.876" x="180.558">-</tspan></text><g><path transform="matrix(-.34304 -.0541 -.05412 .34297 875.831 418.388)" d="M221.307 214.047c0 6.969-5.649 12.618-12.618 12.618s-12.618-5.65-12.618-12.618c0-6.97 5.65-12.619 12.618-12.619 6.969 0 12.618 5.65 12.618 12.619z" fill="#fff" stroke-width="4.075" stroke-linecap="square"/><text style="line-height:125%" x="180.558" y="666.876" font-size="30" font-weight="400" letter-spacing="0" word-spacing="0" fill="navy" font-family="Sans" transform="matrix(-.46704 0 0 .46694 879.514 172.953)"><tspan x="180.558" y="666.876">-</tspan></text></g></g></svg>