<svg xmlns="http://www.w3.org/2000/svg" xmlns:xlink="http://www.w3.org/1999/xlink" width="1052.362" height="744.094"><title>Funktionsweise einer Klingel</title><g transform="translate(0 -308.268)"><path id="a" fill="#4d4d4d" d="M552.598 535.06h88.236v17.295h-88.236z"/><use xlink:href="#a" transform="translate(0 258.763)" width="744.094" height="1052.362"/><g stroke="#666" stroke-width="1.168" transform="matrix(.85636 0 0 .85607 279.333 266.4)"><path d="M296.198 352.22H445.04c.832 0 1.502.67 1.502 1.503v242.688c0 .832-.67 1.502-1.502 1.502H296.198c-.832 0-1.502-.67-1.502-1.502V353.723c0-.832.67-1.502 1.502-1.502z" fill="#fff" stroke-width="1.137" stroke-linecap="round" stroke-linejoin="round"/><path id="b" d="M281.911 332.399h177.415c.585 0 1.055.47 1.055 1.055v20.424c0 .585-.47 1.056-1.055 1.056H281.911c-.584 0-1.055-.471-1.055-1.056v-20.424c0-.584.47-1.055 1.055-1.055z" fill="#fff" stroke-width=".852" stroke-linecap="round" stroke-linejoin="round"/><use height="1052.362" width="744.094" transform="translate(0 262.802)" xlink:href="#b"/></g><g fill="#4d4d4d" stroke="#000" stroke-width="1.168"><path d="M449.908 366.607l-158.58-2.13M449.908 371.13l-158.58-2.129M449.908 375.654l-158.58-2.129M449.908 380.178l-158.58-2.13M449.908 384.702l-158.58-2.13M449.908 389.226l-158.58-2.13M449.908 393.75l-158.58-2.13M449.908 398.273l-158.58-2.129M449.908 402.797l-158.58-2.129M449.908 407.321l-158.58-2.13M449.908 411.845l-158.58-2.13M449.908 416.369l-158.58-2.13M449.908 420.892l-158.58-2.129M449.908 425.416l-158.58-2.129M449.908 429.94l-158.58-2.13M449.908 434.464l-158.58-2.13M449.908 438.988l-158.58-2.13M449.908 443.512l-158.58-2.13M449.908 448.035l-158.58-2.129M449.908 452.56l-158.58-2.13M449.908 457.083l-158.58-2.13M449.908 461.607l-158.58-2.13M449.908 466.13l-158.58-2.129M449.908 470.654l-158.58-2.129M449.908 475.178l-158.58-2.13M449.908 479.702l-158.58-2.13M449.908 484.226l-158.58-2.13M449.908 488.75l-158.58-2.13M449.908 493.273l-158.58-2.129M449.908 497.797l-158.58-2.129M449.908 502.321l-158.58-2.13M449.908 506.845l-158.58-2.13M449.908 511.369l-158.58-2.13M449.908 515.892l-158.58-2.129M449.908 520.416l-158.58-2.129M449.908 524.94l-158.58-2.13M449.908 529.464l-158.58-2.13M449.908 533.988l-158.58-2.13M449.908 538.512l-158.58-2.13M449.908 543.035l-158.58-2.129M449.908 547.56l-158.58-2.13M449.908 552.083l-158.58-2.13M449.908 556.607l-158.58-2.13M449.908 561.13l-158.58-2.129M449.908 565.654l-158.58-2.129M449.908 570.178l-158.58-2.13M449.908 574.702l-158.58-2.13M449.908 579.226l-158.58-2.13M449.908 583.75l-158.58-2.13M449.908 588.273l-158.58-2.129" transform="matrix(.85636 0 0 .85607 279.333 265.28)"/></g><path d="M460.87 586.966h54.958v177.619H758.34c-.015-153.873.142-423.746 0-577.62H380.87v64.858" fill="none" stroke="#000" stroke-width="3.504" transform="matrix(.85636 0 0 .85607 279.333 266.4)"/><path d="M664.61 768.445l9.434-.851v2.575l-9.435-.85z"/><path fill="#fff" stroke="#fff" stroke-width="2" stroke-linecap="square" d="M860.21 655.982h137.095v190.806H860.21z"/><path d="M928.749 741.657v-86.47M928.749 848.507v-85.945" fill="none" stroke="#000" stroke-width="3"/><g fill="none" stroke="#000" stroke-width="3.938"><path d="M893.302 1257.256v-200.939M869.468 1120.08v73.413" transform="matrix(0 .85607 -.67792 0 1712.961 -2.381)"/></g><g fill="none" stroke="#000" stroke-width="1.041"><path d="M56.34 10.468v9.818M61.803 15.377h-9.818" transform="matrix(2.8815 0 0 -2.88051 818.774 849.828)"/></g><path d="M981.114 712.562v-28.28" fill="none" stroke="#000" stroke-width="3"/><path d="M661.33 575.637h7.953" fill="none" stroke="#000"/><path d="M664.61 575.2l9.434-.851v2.575l-9.435-.85z"/><path d="M673.616 575.64h130.289v-81.449" fill="none" stroke="#000" stroke-width="3"/><path d="M811.311 494.485a7.353 7.35 0 1 1-14.706 0 7.353 7.35 0 1 1 14.706 0zM612.781 482.548a7.353 7.35 0 1 1-14.706 0 7.353 7.35 0 1 1 14.706 0z"/><g stroke-width="3.504"><path transform="matrix(1.42247 0 0 1.42198 25.886 39.063)" d="M279.812 488.192c0 76.152-61.733 137.886-137.886 137.886-76.152 0-137.885-61.734-137.885-137.886 0-76.152 61.733-137.886 137.885-137.886 76.153 0 137.886 61.734 137.886 137.886z" fill="#e6e6e6" stroke="gray"/><path d="M148.492 481.626c0 7.253-5.879 13.132-13.132 13.132-7.252 0-13.132-5.88-13.132-13.132 0-7.253 5.88-13.132 13.132-13.132 7.253 0 13.132 5.88 13.132 13.132z" fill="#4d4d4d" stroke="#999" stroke-linecap="round" stroke-linejoin="round" transform="matrix(1.42247 0 0 1.42198 35.226 48.4)"/></g><g><path fill="#4d4d4d" d="M327.674 532.848l474.031-42.765.825 9.135L328.5 541.983z"/><path d="M365.65 534.027a29.514 29.504 0 1 1-58.79 5.304 29.514 29.504 0 1 1 58.79-5.304z" fill="#4d4d4d"/></g></g></svg>