<svg xmlns="http://www.w3.org/2000/svg" width="1052.362" height="744.094"><title>Kraftwirkung elektrischer Ladung</title><path fill="#fff" stroke="#fff" stroke-width="2" d="M16.181 209.19h1020v325.714h-1020z"/><path fill="#fff" stroke="#fff" stroke-width="3.561" stroke-linecap="square" d="M16.829 262.884h240.736v219.57H16.829z"/><g fill="none" stroke="#000" stroke-width="6.673"><path d="M87.241 317.84c0 6.182-5.011 11.193-11.193 11.193-6.182 0-11.193-5.011-11.193-11.193 0-6.182 5.011-11.193 11.193-11.193" stroke-linecap="square" stroke-width="4.06085415"/><path d="M76.048 306.864v-14.779" stroke-width="4.06085415"/></g><g stroke-width="3.392" stroke-linecap="square"><path d="M244.157 447.768c0 8.316-6.742 15.058-15.058 15.058-8.317 0-15.059-6.742-15.059-15.058 0-8.317 6.742-15.059 15.059-15.059 8.316 0 15.058 6.742 15.058 15.059z" fill="#e6e6e6" stroke="#000" stroke-width="2.0002624"/><path d="M225.311 430.856a3.16 3.16 0 1 1-6.318 0 3.16 3.16 0 0 1 6.318 0z" fill="#fff" stroke="#1a1a1a" stroke-width="2.0002624"/></g><text style="line-height:125%" x="349.656" y="819.02" font-size="40" font-weight="400" letter-spacing="0" word-spacing="0" fill="maroon" stroke="maroon" font-family="Sans" transform="matrix(-.60855 0 0 .60855 452.08 -43.016)"><tspan x="349.656" y="819.02">+</tspan></text><g fill="none" stroke="#000" stroke-width="6.673"><path d="M187.186 317.84c0 6.182 5.011 11.193 11.193 11.193 6.182 0 11.193-5.011 11.193-11.193 0-6.182-5.011-11.193-11.193-11.193" stroke-linecap="square" stroke-width="4.06085415"/><path d="M198.379 306.864v-14.779" stroke-width="4.06085415"/></g><path fill="#ccc" stroke="#000" d="M41.623 281.342h191.18v18.442H41.623z"/><path d="M76.048 329.033l-21.836 99.809M198.379 329.033l21.977 99.809" fill="none" stroke="#000" stroke-width="2"/><g stroke-width="3.392" stroke-linecap="square"><path d="M30.237 447.768c0 8.316 6.742 15.058 15.058 15.058 8.317 0 15.059-6.742 15.059-15.058 0-8.317-6.742-15.059-15.059-15.059-8.316 0-15.058 6.742-15.058 15.059z" fill="#e6e6e6" stroke="#000" stroke-width="2.0002624"/><path d="M49.083 430.856a3.16 3.16 0 1 0 6.318 0 3.16 3.16 0 0 0-6.318 0z" fill="#fff" stroke="#1a1a1a" stroke-width="2.0002624"/></g><text y="819.02" x="349.656" style="line-height:125%" font-size="40" font-weight="400" letter-spacing="0" word-spacing="0" fill="maroon" stroke="maroon" font-family="Sans" transform="matrix(.60855 0 0 .60855 -177.686 -43.016)"><tspan y="819.02" x="349.656">+</tspan></text><path fill="#fff" stroke="#fff" stroke-width="3.561" stroke-linecap="square" d="M405.813 261.641h240.736v219.57H405.813z"/><g stroke="#000" stroke-width="6.673" fill="none"><path d="M476.209 316.596c0 6.182-5.012 11.193-11.193 11.193-6.182 0-11.193-5.011-11.193-11.193 0-6.182 5.011-11.193 11.193-11.193" stroke-linecap="square" stroke-width="4.06085415"/><path d="M465.016 305.62v-14.778" stroke-width="4.06085415"/></g><g stroke="#000" stroke-width="1.335"><g stroke-width="3.392" stroke-linecap="square"><path d="M519.81 446.524c0 8.317-6.742 15.059-15.059 15.059s-15.058-6.742-15.058-15.059c0-8.316 6.741-15.058 15.058-15.058s15.058 6.742 15.058 15.058z" fill="#e6e6e6" stroke-width="2.0002624"/><path d="M500.963 429.612a3.16 3.16 0 1 1-6.318 0 3.16 3.16 0 0 1 6.318 0z" fill="#fff" stroke-width="2.0002624"/></g><text style="line-height:125%" x="261.779" y="889.127" transform="matrix(.65582 0 0 .56468 324.493 -44.26)" font-size="72.489" font-weight="400" letter-spacing="0" word-spacing="0" fill="navy" stroke="navy" font-family="Sans"><tspan x="261.779" y="889.127">-</tspan></text></g><g stroke="#000" stroke-width="1.335"><g stroke-width="3.392" stroke-linecap="square"><path d="M532.416 446.524c0 8.317 6.742 15.059 15.059 15.059 8.316 0 15.058-6.742 15.058-15.059 0-8.316-6.742-15.058-15.058-15.058-8.317 0-15.059 6.742-15.059 15.058z" fill="#e6e6e6" stroke-width="2.0002624"/><path d="M551.262 429.612a3.16 3.16 0 1 0 6.318 0 3.16 3.16 0 0 0-6.318 0z" fill="#fff" stroke-width="2.0002624"/></g><text style="line-height:125%" x="349.656" y="819.02" font-size="40" font-weight="400" letter-spacing="0" word-spacing="0" fill="maroon" stroke="maroon" font-family="Sans" transform="matrix(.60855 0 0 .60855 324.493 -44.26)"><tspan x="349.656" y="819.02">+</tspan></text></g><g stroke="#000" stroke-width="6.673" fill="none"><path d="M576.154 316.596c0 6.182 5.01 11.193 11.193 11.193 6.181 0 11.192-5.011 11.192-11.193 0-6.182-5.01-11.193-11.192-11.193" stroke-linecap="square" stroke-width="4.06085415"/><path d="M587.347 305.62v-14.778" stroke-width="4.06085415"/></g><path fill="#ccc" stroke="#000" d="M430.591 280.098h191.18v18.442h-191.18z"/><path d="M465.016 327.79l32.026 99.808M587.347 327.79l-32.404 99.808" fill="none" stroke="#000" stroke-width="2"/><path fill="#fff" stroke="#fff" stroke-width="3.561" stroke-linecap="square" d="M794.797 262.884h240.736v219.57H794.797z"/><g fill="none" stroke="#000" stroke-width="6.673"><path d="M861.576 317.84c0 6.182-5.01 11.193-11.193 11.193-6.181 0-11.192-5.011-11.192-11.193 0-6.182 5.01-11.193 11.192-11.193" stroke-linecap="square" stroke-width="4.06085415"/><path d="M850.383 306.864v-14.779" stroke-width="4.06085415"/></g><path d="M999.646 430.856a3.16 3.16 0 1 1-6.318 0 3.16 3.16 0 0 1 6.318 0z" fill="#fff" stroke="#1a1a1a" stroke-width="2.0002624" stroke-linecap="square"/><g fill="none" stroke="#000" stroke-width="6.673"><path d="M961.521 317.84c0 6.182 5.012 11.193 11.193 11.193 6.182 0 11.193-5.011 11.193-11.193 0-6.182-5.011-11.193-11.193-11.193" stroke-linecap="square" stroke-width="4.06085415"/><path d="M972.714 306.864v-14.779" stroke-width="4.06085415"/></g><path fill="#ccc" stroke="#000" stroke-width=".9998476500000001" d="M815.959 281.342h191.18v18.442h-191.18z"/><path d="M850.383 329.033l-21.836 99.809M972.714 329.033l21.977 99.809" fill="none" stroke="#000" stroke-width="2.00030385"/><path d="M823.418 430.856a3.16 3.16 0 1 0 6.318 0 3.16 3.16 0 0 0-6.318 0z" fill="#fff" stroke="#1a1a1a" stroke-width="2.0002624" stroke-linecap="square"/><g><path d="M1018.492 447.768c0 8.316-6.741 15.058-15.058 15.058-8.316 0-15.058-6.742-15.058-15.058 0-8.317 6.742-15.059 15.058-15.059 8.317 0 15.058 6.742 15.058 15.059z" fill="#e6e6e6" stroke="#000" stroke-width="2.0002624" stroke-linecap="square"/><text transform="matrix(.8075 0 0 .69529 786.676 -137.091)" y="857.299" x="257.808" style="line-height:125%" font-size="58.873" font-weight="400" letter-spacing="0" word-spacing="0" fill="navy" stroke="navy" stroke-width="1.084" font-family="Sans"><tspan y="857.299" x="257.808">-</tspan></text></g><g><path d="M804.572 447.768c0 8.316 6.742 15.058 15.059 15.058 8.316 0 15.058-6.742 15.058-15.058 0-8.317-6.742-15.059-15.058-15.059-8.317 0-15.059 6.742-15.059 15.059z" fill="#e6e6e6" stroke="#000" stroke-width="2.0002624" stroke-linecap="square"/><text style="line-height:125%" x="30.189" y="857.299" transform="matrix(.8075 0 0 .69529 786.676 -137.091)" font-size="58.873" font-weight="400" letter-spacing="0" word-spacing="0" fill="navy" stroke="navy" stroke-width="1.084" font-family="Sans"><tspan x="30.189" y="857.299">-</tspan></text></g><path d="M331.689 277.814v189.71M720.673 277.814v189.71" fill="none" stroke="gray"/></svg>