<svg xmlns:ns0="http://www.iki.fi/pav/software/textext/" xmlns="http://www.w3.org/2000/svg" xmlns:xlink="http://www.w3.org/1999/xlink" width="1052.362" height="744.094"><title>Metallischer Leiter</title><g transform="translate(0 -308.268)"><path fill="#fff" stroke="#fff" stroke-width="2" stroke-linecap="square" d="M897.435 516.705H154.928v327.22h742.507z"/><path style="marker:none" color="#000" fill="#ccc" stroke="gray" stroke-linecap="round" stroke-linejoin="round" overflow="visible" d="M202.32 548.775h647.721v263.08H202.32z"/><g id="f" stroke="navy" stroke-width="1.515"><path d="M221.307 214.047c0 6.969-5.649 12.618-12.618 12.618s-12.618-5.65-12.618-12.618c0-6.97 5.65-12.619 12.618-12.619 6.969 0 12.618 5.65 12.618 12.619z" transform="matrix(-.34304 -.0541 -.05412 .34297 376.451 513.062)" fill="#fff" stroke-width="4.075" stroke-linecap="square"/><text y="666.876" x="180.558" style="line-height:125%" font-size="30" font-weight="400" letter-spacing="0" word-spacing="0" fill="navy" font-family="Sans" transform="matrix(-.46704 0 0 .46694 380.134 267.627)"><tspan y="666.876" x="180.558">-</tspan></text></g><g transform="translate(69.081 -2.064)"><path id="a" d="M332.857 189.505c0 18.147-14.71 32.857-32.857 32.857-18.146 0-32.857-14.71-32.857-32.857 0-18.146 14.71-32.857 32.857-32.857 18.146 0 32.857 14.71 32.857 32.857z" transform="matrix(-.65605 -.10348 -.1035 .65592 408.676 512.865)" fill="#fff" stroke="#000" stroke-width="3.196" stroke-linecap="square"/><g id="e"><use xlink:href="#a" width="1052.362" height="744.094" stroke="#000"/><g ns0:preamble="/home/waldgeist/data/sphinx/test.tex" ns0:text="$\\rm{Me}^+$" transform="matrix(1.79533 0 0 1.79533 -222.523 370.795)"><defs><symbol id="b" overflow="visible"><path d="M2.406-6.594c-.094-.218-.125-.218-.36-.218H.376v.312h.234c.766 0 .782.11.782.469v4.984c0 .266 0 .734-1.016.734V0c.344-.016.828-.031 1.156-.031.328 0 .828.015 1.172.031v-.313c-1.031 0-1.031-.468-1.031-.734v-5.375h.016L4.094-.219c.047.125.093.219.187.219.11 0 .14-.078.188-.188L6.922-6.5v5.719c0 .36-.016.469-.781.469h-.235V0c.36-.031 1.047-.031 1.438-.031.375 0 1.047 0 1.422.031v-.313h-.25c-.766 0-.782-.109-.782-.468v-5.25c0-.36.016-.469.782-.469h.25v-.313H7.078c-.266 0-.266.016-.328.188L4.562-1zm0 0"/></symbol><symbol id="c" overflow="visible"><path d="M1.11-2.516C1.171-4 2.015-4.25 2.36-4.25c1.015 0 1.124 1.344 1.124 1.734zm0 .22h2.78c.22 0 .25 0 .25-.22 0-.984-.546-1.953-1.78-1.953C1.202-4.469.28-3.437.28-2.187.281-.86 1.328.108 2.47.108 3.688.11 4.14-1 4.14-1.187c0-.094-.079-.125-.141-.125-.078 0-.11.062-.125.14C3.531-.14 2.625-.14 2.531-.14c-.5 0-.89-.296-1.125-.671-.297-.47-.297-1.125-.297-1.485zm0 0"/></symbol><symbol id="d" overflow="visible"><path d="M3.219-1.578h2.14c.094 0 .25 0 .25-.156 0-.188-.156-.188-.25-.188H3.22v-2.14c0-.079 0-.25-.156-.25-.172 0-.172.156-.172.25v2.14H.75c-.094 0-.266 0-.266.172s.157.172.266.172h2.14v2.14c0 .094 0 .266.157.266.172 0 .172-.172.172-.265zm0 0"/></symbol></defs><use y="134.765" x="223.432" xlink:href="#b" width="1052.362" height="744.094"/><use y="134.765" x="232.565" xlink:href="#c" width="1052.362" height="744.094"/><g><use y="130.42" x="236.992" xlink:href="#d" width="1052.362" height="744.094" transform="translate(-1.997)"/></g></g></g><use xlink:href="#e" width="1052.362" height="744.094" stroke="#000"/><use transform="translate(0 74.193)" xlink:href="#e" width="1052.362" height="744.094" stroke="#000"/><use transform="translate(0 148.385)" xlink:href="#e" width="1052.362" height="744.094" stroke="#000"/><use transform="translate(74.207)" xlink:href="#e" width="1052.362" height="744.094" stroke="#000"/><use transform="translate(74.207 74.193)" xlink:href="#e" width="1052.362" height="744.094" stroke="#000"/><use transform="translate(74.207 148.385)" xlink:href="#e" width="1052.362" height="744.094" stroke="#000"/><use transform="translate(148.414)" xlink:href="#e" width="1052.362" height="744.094" stroke="#000"/><use transform="translate(148.414 74.193)" xlink:href="#e" width="1052.362" height="744.094" stroke="#000"/><use transform="translate(148.414 148.385)" xlink:href="#e" width="1052.362" height="744.094" stroke="#000"/><use transform="translate(222.621)" xlink:href="#e" width="1052.362" height="744.094" stroke="#000"/><use transform="translate(222.621 74.193)" xlink:href="#e" width="1052.362" height="744.094" stroke="#000"/><use transform="translate(222.621 148.385)" xlink:href="#e" width="1052.362" height="744.094" stroke="#000"/><use transform="translate(296.829)" xlink:href="#e" width="1052.362" height="744.094" stroke="#000"/><use transform="translate(296.829 74.193)" xlink:href="#e" width="1052.362" height="744.094" stroke="#000"/><use transform="translate(296.829 148.385)" xlink:href="#e" width="1052.362" height="744.094" stroke="#000"/><use transform="translate(371.036)" xlink:href="#e" width="1052.362" height="744.094" stroke="#000"/><use transform="translate(371.036 74.193)" xlink:href="#e" width="1052.362" height="744.094" stroke="#000"/><use transform="translate(371.036 148.385)" xlink:href="#e" width="1052.362" height="744.094" stroke="#000"/><use transform="translate(445.243)" xlink:href="#e" width="1052.362" height="744.094" stroke="#000"/><use transform="translate(445.243 74.193)" xlink:href="#e" width="1052.362" height="744.094" stroke="#000"/><use transform="translate(445.243 148.385)" xlink:href="#e" width="1052.362" height="744.094" stroke="#000"/><use transform="translate(519.45)" xlink:href="#e" width="1052.362" height="744.094" stroke="#000"/><use transform="translate(519.45 74.193)" xlink:href="#e" width="1052.362" height="744.094" stroke="#000"/><use transform="translate(519.45 148.385)" xlink:href="#e" width="1052.362" height="744.094" stroke="#000"/></g><use xlink:href="#f" transform="translate(109.284 -8.304)" width="1052.362" height="744.094" stroke="#000"/><use xlink:href="#f" transform="translate(-60.455 63.396)" width="1052.362" height="744.094" stroke="#000"/><use xlink:href="#f" transform="translate(-67.099 150.708)" width="1052.362" height="744.094" stroke="#000"/><use xlink:href="#f" transform="translate(222.84 -5.98)" width="1052.362" height="744.094" stroke="#000"/><use xlink:href="#f" transform="translate(4.272 207.558)" width="1052.362" height="744.094" stroke="#000"/><use xlink:href="#f" transform="translate(4.272 124.134)" width="1052.362" height="744.094" stroke="#000"/><use xlink:href="#f" transform="translate(131.448 215.911)" width="1052.362" height="744.094" stroke="#000"/><use xlink:href="#f" transform="translate(167.987 58.745)" width="1052.362" height="744.094" stroke="#000"/><use xlink:href="#f" transform="translate(23.824 71.65)" width="1052.362" height="744.094" stroke="#000"/><use xlink:href="#f" transform="translate(244.008 69.756)" width="1052.362" height="744.094" stroke="#000"/><use xlink:href="#f" transform="translate(239.357 215.53)" width="1052.362" height="744.094" stroke="#000"/><use xlink:href="#f" transform="translate(209.462 133.435)" width="1052.362" height="744.094" stroke="#000"/><use xlink:href="#f" transform="translate(527.304 160.107)" width="1052.362" height="744.094" stroke="#000"/><use xlink:href="#f" transform="translate(305.413 203.572)" width="1052.362" height="744.094" stroke="#000"/><use xlink:href="#f" transform="translate(82.858 69.658)" width="1052.362" height="744.094" stroke="#000"/><use xlink:href="#f" transform="translate(449.862 67.763)" width="1052.362" height="744.094" stroke="#000"/><use xlink:href="#f" transform="translate(537.555 -.381)" width="1052.362" height="744.094" stroke="#000"/><use xlink:href="#f" transform="translate(299.72 17.839)" width="1052.362" height="744.094" stroke="#000"/><use xlink:href="#f" transform="translate(364.78 67.763)" width="1052.362" height="744.094" stroke="#000"/><use xlink:href="#f" transform="translate(333.223 143.117)" width="1052.362" height="744.094" stroke="#000"/><use xlink:href="#f" transform="translate(86.752 137.42)" width="1052.362" height="744.094" stroke="#000"/><use xlink:href="#f" transform="translate(516.204 77.064)" width="1052.362" height="744.094" stroke="#000"/><use xlink:href="#f" transform="translate(407.916 137.138)" width="1052.362" height="744.094" stroke="#000"/><use xlink:href="#f" transform="translate(152.144 121.476)" width="1052.362" height="744.094" stroke="#000"/><use xlink:href="#f" transform="translate(456.404 205.946)" width="1052.362" height="744.094"/><use xlink:href="#f" transform="translate(449.76 1.993)" width="1052.362" height="744.094"/><use xlink:href="#f" transform="translate(-71.749 -.664)" width="1052.362" height="744.094"/><use xlink:href="#f" transform="translate(376.682 -1.329)" width="1052.362" height="744.094"/><use xlink:href="#f" transform="translate(302.94 100.98)" width="1052.362" height="744.094"/><use transform="translate(381.665 218.569)" xlink:href="#f" width="1052.362" height="744.094"/></g></svg>