<?xml version="1.0" encoding="UTF-8" standalone="no"?>
<!-- Created with Inkscape (http://www.inkscape.org/) -->

<svg
   xmlns:ns0="http://www.iki.fi/pav/software/textext/"
   xmlns:dc="http://purl.org/dc/elements/1.1/"
   xmlns:cc="http://creativecommons.org/ns#"
   xmlns:rdf="http://www.w3.org/1999/02/22-rdf-syntax-ns#"
   xmlns:svg="http://www.w3.org/2000/svg"
   xmlns="http://www.w3.org/2000/svg"
   xmlns:xlink="http://www.w3.org/1999/xlink"
   xmlns:sodipodi="http://sodipodi.sourceforge.net/DTD/sodipodi-0.dtd"
   xmlns:inkscape="http://www.inkscape.org/namespaces/inkscape"
   width="744.09448819"
   height="1052.3622047"
   id="svg2"
   version="1.1"
   inkscape:version="0.48.4 r9939"
   sodipodi:docname="lorentzkraft-drei-finger-regel.svg">
  <title
     id="title7521">Die Lorentzkraft (3-Finger-Regel)</title>
  <defs
     id="defs4">
    <inkscape:path-effect
       effect="skeletal"
       id="path-effect4496"
       is_visible="true"
       pattern="M 0,5 C 0,2.24 2.24,0 5,0 7.76,0 10,2.24 10,5 10,7.76 7.76,10 5,10 2.24,10 0,7.76 0,5 z"
       copytype="single_stretched"
       prop_scale="1"
       scale_y_rel="false"
       spacing="0"
       normal_offset="0"
       tang_offset="0"
       prop_units="false"
       vertical_pattern="false"
       fuse_tolerance="0" />
    <inkscape:path-effect
       effect="spiro"
       id="path-effect4494"
       is_visible="true" />
    <inkscape:path-effect
       effect="skeletal"
       id="path-effect4490"
       is_visible="true"
       pattern="M 0,5 C 0,2.24 2.24,0 5,0 7.76,0 10,2.24 10,5 10,7.76 7.76,10 5,10 2.24,10 0,7.76 0,5 z"
       copytype="single_stretched"
       prop_scale="1"
       scale_y_rel="false"
       spacing="0"
       normal_offset="0"
       tang_offset="0"
       prop_units="false"
       vertical_pattern="false"
       fuse_tolerance="0" />
    <inkscape:path-effect
       effect="skeletal"
       id="path-effect4486"
       is_visible="true"
       pattern="M 0,5 C 0,2.24 2.24,0 5,0 7.76,0 10,2.24 10,5 10,7.76 7.76,10 5,10 2.24,10 0,7.76 0,5 z"
       copytype="single_stretched"
       prop_scale="1"
       scale_y_rel="false"
       spacing="0"
       normal_offset="0"
       tang_offset="0"
       prop_units="false"
       vertical_pattern="false"
       fuse_tolerance="0" />
    <inkscape:path-effect
       effect="skeletal"
       id="path-effect4482"
       is_visible="true"
       pattern="M 0,0 0,10 10,5 z"
       copytype="single_stretched"
       prop_scale="1"
       scale_y_rel="false"
       spacing="0"
       normal_offset="0"
       tang_offset="0"
       prop_units="false"
       vertical_pattern="false"
       fuse_tolerance="0" />
    <inkscape:path-effect
       effect="skeletal"
       id="path-effect4397"
       is_visible="true"
       pattern="m 15.179798,104.9019 0,10 10,-5 z"
       copytype="single_stretched"
       prop_scale="1"
       scale_y_rel="false"
       spacing="0"
       normal_offset="0"
       tang_offset="0"
       prop_units="false"
       vertical_pattern="false"
       fuse_tolerance="0" />
    <inkscape:path-effect
       effect="skeletal"
       id="path-effect4393"
       is_visible="true"
       pattern="M 0,0 0,10 10,5 z"
       copytype="single_stretched"
       prop_scale="1"
       scale_y_rel="false"
       spacing="0"
       normal_offset="0"
       tang_offset="0"
       prop_units="false"
       vertical_pattern="false"
       fuse_tolerance="0" />
    <inkscape:path-effect
       effect="spiro"
       id="path-effect4391"
       is_visible="true" />
    <inkscape:path-effect
       effect="spiro"
       id="path-effect4387"
       is_visible="true" />
    <marker
       inkscape:stockid="Arrow2Mend"
       orient="auto"
       refY="0"
       refX="0"
       id="Arrow2Mend"
       style="overflow:visible">
      <path
         id="path33774"
         style="font-size:12px;fill-rule:evenodd;stroke-width:0.625;stroke-linejoin:round"
         d="M 8.7185878,4.0337352 -2.2072895,0.01601326 8.7185884,-4.0017078 c -1.7454984,2.3720609 -1.7354408,5.6174519 -6e-7,8.035443 z"
         transform="scale(-0.6,-0.6)"
         inkscape:connector-curvature="0" />
    </marker>
    <marker
       inkscape:stockid="TriangleOutM"
       orient="auto"
       refY="0"
       refX="0"
       id="TriangleOutM"
       style="overflow:visible">
      <path
         id="path33893"
         d="m 5.77,0 -8.65,5 0,-10 8.65,5 z"
         style="fill-rule:evenodd;stroke:#000000;stroke-width:1pt;marker-start:none"
         transform="scale(0.4,0.4)"
         inkscape:connector-curvature="0" />
    </marker>
  </defs>
  <sodipodi:namedview
     id="base"
     pagecolor="#ffffff"
     bordercolor="#666666"
     borderopacity="1.0"
     inkscape:pageopacity="0.0"
     inkscape:pageshadow="2"
     inkscape:zoom="0.47273956"
     inkscape:cx="75.011294"
     inkscape:cy="832.91669"
     inkscape:document-units="px"
     inkscape:current-layer="layer1"
     showgrid="false"
     inkscape:window-width="1600"
     inkscape:window-height="1150"
     inkscape:window-x="0"
     inkscape:window-y="0"
     inkscape:window-maximized="1"
     inkscape:snap-bbox="false"
     inkscape:bbox-nodes="true"
     inkscape:snap-bbox-edge-midpoints="true"
     showguides="true"
     inkscape:guide-bbox="true"
     inkscape:object-nodes="true"
     inkscape:snap-smooth-nodes="true"
     inkscape:object-paths="true">
    <sodipodi:guide
       orientation="0,1"
       position="-2348,-834.85715"
       id="guide3869" />
    <sodipodi:guide
       orientation="1,0"
       position="-2348,1469.1429"
       id="guide3871" />
  </sodipodi:namedview>
  <metadata
     id="metadata7">
    <rdf:RDF>
      <cc:Work
         rdf:about="">
        <dc:format>image/svg+xml</dc:format>
        <dc:type
           rdf:resource="http://purl.org/dc/dcmitype/StillImage" />
        <dc:title>Die Lorentzkraft (3-Finger-Regel)</dc:title>
        <dc:date>2012-08-28</dc:date>
        <dc:creator>
          <cc:Agent>
            <dc:title>Bernhard Grotz</dc:title>
          </cc:Agent>
        </dc:creator>
        <dc:rights>
          <cc:Agent>
            <dc:title>Bernhard Grotz</dc:title>
          </cc:Agent>
        </dc:rights>
        <dc:publisher>
          <cc:Agent>
            <dc:title>Bernhard Grotz</dc:title>
          </cc:Agent>
        </dc:publisher>
        <dc:language>de-DE</dc:language>
        <dc:subject>
          <rdf:Bag>
            <rdf:li>Physik</rdf:li>
            <rdf:li>Elektrizitaet und Magnetismus</rdf:li>
            <rdf:li>Lorentz-Kraft</rdf:li>
          </rdf:Bag>
        </dc:subject>
        <cc:license
           rdf:resource="http://creativecommons.org/licenses/by-nc-sa/3.0/" />
      </cc:Work>
      <cc:License
         rdf:about="http://creativecommons.org/licenses/by-nc-sa/3.0/">
        <cc:permits
           rdf:resource="http://creativecommons.org/ns#Reproduction" />
        <cc:permits
           rdf:resource="http://creativecommons.org/ns#Distribution" />
        <cc:requires
           rdf:resource="http://creativecommons.org/ns#Notice" />
        <cc:requires
           rdf:resource="http://creativecommons.org/ns#Attribution" />
        <cc:prohibits
           rdf:resource="http://creativecommons.org/ns#CommercialUse" />
        <cc:permits
           rdf:resource="http://creativecommons.org/ns#DerivativeWorks" />
        <cc:requires
           rdf:resource="http://creativecommons.org/ns#ShareAlike" />
      </cc:License>
    </rdf:RDF>
  </metadata>
  <g
     inkscape:label="Layer 1"
     inkscape:groupmode="layer"
     id="layer1">
    <rect
       style="color:#000000;fill:#ffffff;fill-opacity:1;fill-rule:nonzero;stroke:#ffffff;stroke-width:8;stroke-linecap:round;stroke-linejoin:round;stroke-miterlimit:4;stroke-opacity:1;stroke-dasharray:none;stroke-dashoffset:0;marker:none;visibility:visible;display:inline;overflow:visible;enable-background:accumulate"
       id="rect7444"
       width="723.26923"
       height="806.63501"
       x="10.412628"
       y="122.86359"
       inkscape:export-filename="/home/waldgeist/data/homepage/pics/physik/elektrizitaet-magnetismus/lorentzkraft-drei-finger-regel.png"
       inkscape:export-xdpi="150"
       inkscape:export-ydpi="150" />
    <g
       id="g4505"
       transform="matrix(0.28862279,0,0,0.28862279,559.17002,274.16697)"
       inkscape:export-filename="/home/waldgeist/data/homepage/pics/physik/elektrizitaet-magnetismus/lorentzkraft-drei-finger-regel.png"
       inkscape:export-xdpi="150"
       inkscape:export-ydpi="150">
      <path
         sodipodi:nodetypes="csssc"
         inkscape:connector-curvature="0"
         id="path3076"
         d="m -472.53042,951.25222 c 0,0 7.65912,-15.44939 9.62802,-22.88626 2.29825,-8.68094 3.20397,-17.91698 3.03046,-26.89531 -0.19416,-10.0462 -1.48314,-20.13867 -3.78808,-29.92577 -0.81779,-3.47246 -3.53553,-10.10153 -3.53553,-10.10153"
         style="fill:#ffccaa;fill-opacity:1;stroke:#000000;stroke-width:6.92946005;stroke-linecap:round;stroke-linejoin:miter;stroke-opacity:1" />
      <path
         sodipodi:nodetypes="ssssssscssasssssasscsccsssssscssssscccszsssssscsssscccsssccsssscssssssccssscs"
         inkscape:connector-curvature="0"
         id="path3050"
         d="m -1475.7143,1540.5765 c -13.1714,-26.2923 -3.6711,-55.8703 0.3572,-85.0001 6.9711,-50.411 26.8387,-93.1043 43.2142,-146.4285 8.3561,-27.2099 23.8665,-54.4082 25.7144,-81.4286 1.184,-17.3135 1.4093,-35.4066 -5.3572,-51.7856 -6.467,-15.6543 -18.5959,-25.8697 -28.5715,-41.7858 -5.4708,-8.7288 -10.8067,-24.8257 -13.9285,-34.6429 -5.197,-16.343 -1.4286,-51.4285 -1.4286,-51.4285 0,0 8.5172,-34.9126 12.5,-52.85717 4.903,-22.09024 13.2143,-60 13.2143,-67.14286 0,-7.14286 4.4297,-48.58037 6.7857,-72.85714 2.4041,-24.77141 -0.5302,-50.72901 7.5,-74.28572 9.4542,-27.7343 25.6934,-53.53983 46.4285,-74.64285 21.3831,-21.76245 49.9936,-38.64323 77.8572,-51.07143 41.6634,-18.58342 86.6583,-22.44307 130.7143,-34.28572 17.7187,-4.76293 37.3819,-8.80653 55,-13.92857 19.6438,-5.71094 41.918,-14.11369 63.7267,-16.63777 28.8717,-3.34154 57.2448,-1.04851 87.16617,2.17348 28.07209,3.02285 54.63665,7.22959 81.78572,11.78572 7.27726,1.22127 21.60713,4.82143 21.60713,4.82143 l 55.71429,-60.53572 c 15.305,-16.62947 100.40893,-18.71704 145.71429,-21.42857 l -1.42857,-99.10714 c 0,0 -12.50336,-51.05218 -14.28572,-77.14286 -3.47645,-50.88937 -4.10434,-103.10461 7.14286,-152.85714 5.802,-25.66543 13.21428,-52.72357 30.59174,-72.77049 12.14836,-14.01457 28.39489,-23.24804 46.29858,-26.637779 18.53885,-3.509993 37.2043,-0.05214 51.67367,12.020309 8.09374,6.75297 5.26724,1.37694 7.22208,11.05964 7.20156,35.67073 -1.57958,122.46103 -1.57958,122.46103 0,0 6.95563,10.54519 7.22208,18.39811 1.56165,46.02609 4.09304,66.38447 10.24511,96.41986 3.39147,16.55769 0.42648,39.73609 5.67628,61.18143 15.39708,62.89685 15.70703,89.54054 25.84638,134.12687 8.02098,35.27114 25.16028,68.9642 28.23223,105.04332 0.70396,8.26775 0,23.6977 0,23.6977 L -460.71429,753.43361 -475,992.71933 c 0,0 51.67494,-4.4188 79.02574,-2.94381 16.17092,0.87208 19.02719,5.48043 53.11712,0.44381 34.08993,-5.03662 114.58764,-6.91016 179.97004,-4.02214 29.96017,1.32338 60.16175,-6.52818 90.029957,-3.83501 48.886264,4.408 97.468859,17.0274 142.857143,35.71432 17.670936,7.2753 36.61216,14.9828 49.28571,29.2857 11.73585,13.2447 20.73649,30.8888 21.42858,48.5714 0.75981,19.4129 -5.0693,41.7587 -19.28572,55 -5.95952,5.5507 -23.571427,6.4286 -23.571427,6.4286 0,0 -113.882275,-6.5984 -171.964286,-13.2143 -22.051407,-2.5118 -46.202657,-7.9822 -68.392857,-8.3929 -26.18243,-0.4846 -49.51228,13.2076 -77.14286,15 -0.41202,0.027 -97.94106,4.6874 -141.07142,16.9643 -17.35865,4.9411 -50.35714,5 -50.35714,5 -27.97414,3.6279 -57.28513,6.9397 -88.92858,16.0715 -34.29967,8.4655 -76.00811,16.4674 -101.07143,19.2857 -9.52967,1.0387 -43.16955,14.9437 -52.5,17.1428 -35.81275,8.4409 -62.23649,37.0249 -96.42857,43.5715 -19.10288,3.6575 -38.96402,2.8048 -57.14286,-7.1429 -19.84579,-10.8598 -58.57143,-34.2857 -58.57143,-34.2857 l -58.57143,-26.4286 c 0,0 -75.99168,-16.502 -113.57138,-26.4286 -42.974,-11.3515 -88.7715,-27.4623 -127.8572,-37.8571 -6.5174,-1.7333 -30.5835,0.5886 -40.3571,12.1429 -11.0884,13.1084 -3.7764,32.71 -4.2857,49.2857 -0.6068,19.7492 1.9642,59.1071 1.9642,59.1071 0,0 -0.4237,12.8443 -0.5357,19.1071 -0.198,11.0681 -0.2703,26.4977 -1.6071,37.3215 -1.8673,15.1191 -5.2499,26.9614 -8.9286,40.1786 -4.0579,14.5796 -8.5776,29.0937 -14.4643,43.0357 -5.571,13.1945 -12.3908,25.8282 -18.9285,38.5714 -5.0672,9.877 -11.0926,20.4095 -15.8929,29.2857 -8.226,15.2105 -24.1071,42.5001 -24.1071,42.5001 l -13.0358,17.8571 c 0,0 -20.7093,23.4724 -32.9163,31.5101 -11.4512,7.5401 -23.1597,11.8451 -36.3043,15.744 -11.0938,3.2906 -23.5032,4.9304 -35.0595,4.3365 -10.9289,-0.5617 -31.8198,-8.0813 -31.8198,-8.0813 0,0 -27.6461,-15.8462 -33.7215,-27.9736 z"
         style="fill:#ffccaa;fill-opacity:1;stroke:#000000;stroke-width:6.92946005;stroke-linecap:round;stroke-linejoin:miter;stroke-opacity:1" />
      <path
         sodipodi:nodetypes="csc"
         inkscape:connector-curvature="0"
         id="path3052"
         d="m -1206.0714,1148.7908 c 0,0 3.4379,-44.8657 10.0508,-64.1037 10.6731,-31.0498 25.8287,-60.5646 42.4264,-88.89346"
         style="fill:none;stroke:#000000;stroke-width:3.46473002px;stroke-linecap:round;stroke-linejoin:miter;stroke-opacity:1" />
      <path
         sodipodi:nodetypes="csc"
         inkscape:connector-curvature="0"
         id="path3054"
         d="m -1155.6145,1137.215 c 0,0 41.6224,-15.1944 62.6294,-22.2234 29.7924,-9.9686 89.9036,-28.2842 89.9036,-28.2842"
         style="fill:none;stroke:#000000;stroke-width:3.46473002px;stroke-linecap:round;stroke-linejoin:miter;stroke-opacity:1" />
      <path
         sodipodi:nodetypes="ccc"
         inkscape:connector-curvature="0"
         id="path3056"
         d="m -1382.8989,1198.8343 c 22.6757,-20.6856 27.4719,-23.2294 56.9179,-20.9667 40.097,-2.9879 97.3918,47.3503 98.6913,54.8708"
         style="fill:none;stroke:#000000;stroke-width:3.46473002px;stroke-linecap:round;stroke-linejoin:miter;stroke-opacity:1" />
      <path
         sodipodi:nodetypes="csc"
         inkscape:connector-curvature="0"
         id="path3058"
         d="m -1078.8429,638.19964 c 0,0 55.0883,36.36243 79.29696,58.58885 12.38988,11.37537 33.33503,37.88072 33.33503,37.88072"
         style="fill:none;stroke:#000000;stroke-width:3.46473002px;stroke-linecap:round;stroke-linejoin:miter;stroke-opacity:1" />
      <path
         sodipodi:nodetypes="cscsccscsssc"
         inkscape:connector-curvature="0"
         d="m -844.9926,981.14643 c 0,0 9.455,-27.55631 18.68782,-38.3858 7.60605,-8.9214 28.78935,-20.20305 28.78935,-20.20305 0,0 29.44763,-15.64724 45.45686,-19.69797 3.76811,-0.95343 16.43818,0.59698 16.43818,0.59698 m 41.26678,37.78881 c 0,0 -17.30153,-5.52948 -24.26186,-11.05568 -9.33827,-7.41418 -15.11408,-14.34321 -17.00492,-26.73313 -1.89084,-12.38992 6.3018,-28.4104 11.34101,-42.01324 5.06764,-13.67958 10.49774,-27.29074 14.14214,-41.41625 3.8447,-14.90189 8.88459,-31.74422 11.11168,-46.9721 3.19975,-21.87854 4.54834,-64.38425 4.54834,-64.38425"
         style="fill:none;stroke:#000000;stroke-width:3.46473002px;stroke-linecap:round;stroke-linejoin:miter;stroke-opacity:1"
         id="path3064" />
      <path
         sodipodi:nodetypes="cac"
         inkscape:connector-curvature="0"
         id="path3068"
         d="m -181.32238,1058.4231 c 0,0 0.606,-27.4376 4.54568,-40.4061 3.08616,-10.1589 14.64722,-28.28428 14.64722,-28.28428"
         style="fill:none;stroke:#000000;stroke-width:3.46473002px;stroke-linecap:round;stroke-linejoin:miter;stroke-opacity:1" />
      <path
         sodipodi:nodetypes="csc"
         inkscape:connector-curvature="0"
         id="path3070"
         d="m -419.21331,1052.3622 c 0,0 6.82135,-28.7225 14.64722,-40.9112 5.21028,-8.1149 20.70812,-20.20305 20.70812,-20.20305"
         style="fill:none;stroke:#000000;stroke-width:3.46473002px;stroke-linecap:round;stroke-linejoin:miter;stroke-opacity:1" />
      <path
         sodipodi:nodetypes="cac"
         inkscape:connector-curvature="0"
         id="path3072"
         d="m -375.27167,1036.7048 c 0,0 1.62845,-15.9902 5.55584,-22.7284 5.93757,-10.187 25.75889,-24.24368 25.75889,-24.24368"
         style="fill:none;stroke:#000000;stroke-width:3.46473002px;stroke-linecap:round;stroke-linejoin:miter;stroke-opacity:1" />
      <path
         sodipodi:nodetypes="ccc"
         inkscape:connector-curvature="0"
         id="path3074"
         d="m -513.66257,995.79364 31.81981,-138.3909 20.8344,-103.79317"
         style="fill:none;stroke:#000000;stroke-width:6.92946005;stroke-linecap:round;stroke-linejoin:miter;stroke-opacity:1" />
      <path
         sodipodi:nodetypes="csssccccsscscssssssssscscssssccc"
         inkscape:connector-curvature="0"
         d="m -603.06107,988.72257 c 0,0 -16.99349,-22.35323 -24.24366,-34.34518 -8.41456,-13.91789 -15.82946,-28.48228 -22.22336,-43.43656 -6.23783,-14.58927 -9.78377,-26.31407 -13.32138,-41.47939 -3.72887,-15.98519 -1.49188,-34.49855 -1.32583,-50.94957 0,-2.02031 5.55584,-37.37565 5.55584,-37.37565 l 6.06092,-33.84011 6.56599,-52.02285 c 0,0 -20.54647,10.85848 -31.81981,12.6269 -12.50205,1.96116 -25.59875,0.52429 -37.88072,-2.52538 -8.41137,-2.08858 -23.73858,-10.6066 -23.73858,-10.6066 0,0 -6.36635,10.25567 -10.48034,14.14213 -5.63762,5.32585 -18.81409,11.11169 -18.81409,11.11169 0,0 -8.52527,11.78049 -13.70019,17.10945 -5.17493,5.32896 -11.13675,9.32738 -17.10946,14.20527 -5.99969,4.89993 -12.49953,9.47933 -17.17259,15.65737 -4.54209,6.00489 -5.45309,14.2801 -10.10153,20.20305 -6.74765,8.59772 -15.35636,15.7653 -25.00127,21.2132 -12.94733,7.31325 -27.34012,12.59952 -42.17387,13.63706 -14.91624,1.04331 -30.42973,-0.85448 -44.44672,-6.06091 -10.72502,-3.98367 -21.52642,-9.84783 -28.78934,-18.68783 -5.17996,-6.30474 -7.27362,-11.21997 -9.09138,-22.72843 -4.46139,-28.24554 49.77957,-75.16133 77.78175,-96.97464 0,0 6.64927,-14.89546 11.23795,-21.97082 9.43038,-14.54086 33.20876,-40.65864 33.20876,-40.65864 0,0 16.03661,-21.56225 26.76904,-29.29442 5.38141,-3.87703 11.37922,-5.84161 18.18275,-8.08123 17.39571,-5.7264 36.96421,-6.2301 55.05331,-9.09137 18.98054,-3.00227 37.58924,-8.29217 56.69482,-10.35406 15.90527,-1.7165 47.85597,-1.76777 47.85597,-1.76777 l 3.53554,0.50508 -4.04061,-32.32488"
         style="fill:none;stroke:#000000;stroke-width:6.92946005;stroke-linecap:round;stroke-linejoin:miter;stroke-opacity:1"
         id="path3078" />
      <path
         sodipodi:nodetypes="csscc"
         inkscape:connector-curvature="0"
         id="path4253"
         d="m -648.42484,1223.6974 c -0.67803,0.9323 27.27199,10.1684 43.0677,7.5934 10.99812,-1.7929 20.84626,-5.821 30.53571,-11.25 6.90142,-3.8669 23.63165,-19.0369 24.22274,-20.1452 -34.15711,3.6927 -67.51019,9.5877 -97.82615,23.8018 z"
         style="fill:#ffccaa;fill-opacity:1;stroke:#000000;stroke-width:6.92946005;stroke-linecap:round;stroke-linejoin:miter;stroke-opacity:1" />
      <path
         sodipodi:nodetypes="csccc"
         inkscape:connector-curvature="0"
         id="path4255"
         d="m -645.99255,695.27326 c 0,0 8.63,-13.71093 10.35406,-21.46574 1.53469,-6.90303 -0.25254,-21.21321 -0.25254,-21.21321 l -2.77792,-31.56726 -7.3236,-64.14469"
         style="fill:none;stroke:#000000;stroke-width:6.92946005;stroke-linecap:round;stroke-linejoin:miter;stroke-opacity:1" />
      <path
         sodipodi:nodetypes="cssc"
         inkscape:connector-curvature="0"
         id="path4257"
         d="m -739.43166,694.76818 c 0,0 -9.89,-5.90135 -12.16516,-10.86045 -1.5461,-3.36998 0.31192,-6.22602 -0.611,-9.81704 -1.32606,-5.15962 -7.93197,-13.86027 -7.93197,-13.86027"
         style="fill:none;stroke:#000000;stroke-width:3.46473002px;stroke-linecap:round;stroke-linejoin:miter;stroke-opacity:1" />
      <path
         sodipodi:nodetypes="scssss"
         inkscape:connector-curvature="0"
         id="path4259"
         d="m -974.29213,764.97378 c 7.56667,4.20918 23.23351,11.61676 23.23351,11.61676 0,0 15.16956,-16.85189 20.96066,-26.51651 13.54454,-22.60415 47.08545,-83.58994 31.56727,-72.47844 -23.89649,17.11062 -75.97958,55.93138 -79.80167,82.49161 -0.27575,1.91622 1.79444,3.63729 4.04023,4.88658 z"
         style="fill:#cccccc;fill-opacity:1;stroke:#000000;stroke-width:3.46473002px;stroke-linecap:round;stroke-linejoin:miter;stroke-opacity:1" />
      <path
         sodipodi:nodetypes="csssssccc"
         inkscape:connector-curvature="0"
         id="path4261"
         d="m -524.36494,244.20918 c 0,0 -4.52468,9.54318 -8.9956,11.39518 -3.99368,1.65431 -9.05428,0.49831 -12.87945,-1.51523 -7.12651,-3.75134 -11.80851,-11.25178 -15.9099,-18.18274 -6.5256,-11.02766 -10.14775,-23.57603 -13.17531,-36.11296 -3.33878,-13.82564 -3.43659,-28.32069 -5.25998,-42.4264 -0.72039,-5.57288 -2.52538,-16.66752 -2.52538,-16.66752 18.70381,-9.98115 37.56957,-19.71936 59.07696,-25.49512 9.13663,40.08147 2.56344,85.12393 -0.33134,129.00479 z"
         style="fill:#cccccc;fill-opacity:1;stroke:#000000;stroke-width:3.46473002px;stroke-linecap:round;stroke-linejoin:miter;stroke-opacity:1" />
      <path
         sodipodi:nodetypes="cssscc"
         inkscape:connector-curvature="0"
         id="path4264"
         d="m -649.9116,726.32419 c 0,0 -18.89602,16.60988 -24.8703,25.01253 -6.72654,9.46067 -11.11168,29.29443 -11.61675,32.82996 -0.50508,3.53554 -6.06092,26.76904 -7.57615,31.81981 -1.51523,5.05076 -15.12342,38.9706 -15.12342,38.9706 l -1.5441,3.96088"
         style="fill:none;stroke:#000000;stroke-width:3.46473002px;stroke-linecap:round;stroke-linejoin:miter;stroke-opacity:1" />
      <path
         sodipodi:nodetypes="cscc"
         inkscape:connector-curvature="0"
         id="path4266"
         d="m -658.61946,781.13622 c 0,0 -8.63167,16.03391 -14.14214,23.23351 -2.82281,3.68809 -9.59644,10.10153 -9.59644,10.10153 l -6.59819,10.18419"
         style="fill:none;stroke:#000000;stroke-width:3.46473002px;stroke-linecap:round;stroke-linejoin:miter;stroke-opacity:1" />
      <path
         sodipodi:nodetypes="cscsc"
         inkscape:connector-curvature="0"
         id="path4268"
         d="m -664.50452,829.73222 c 0,0 -16.98336,12.51492 -25.93475,18.07407 -6.52908,4.0548 -18.94036,17.42513 -18.94036,17.42513 -3.27768,2.29114 -10.89739,14.06596 -16.35334,22.70078 -0.6851,1.08426 0.60398,-0.96025 0,0"
         style="fill:none;stroke:#000000;stroke-width:3.46473002px;stroke-linecap:round;stroke-linejoin:miter;stroke-opacity:1" />
      <path
         inkscape:connector-curvature="0"
         id="path4272"
         d="m -543.21429,385.93361 c 2.14286,0.71429 12.21826,10.56007 25.35715,6.78571 13.13888,-3.77435 13.10981,-4.65107 13.10981,-4.65107"
         style="fill:none;stroke:#000000;stroke-width:3.46473002px;stroke-linecap:round;stroke-linejoin:miter;stroke-opacity:1" />
      <path
         sodipodi:nodetypes="cssc"
         inkscape:connector-curvature="0"
         id="path4274"
         d="m -475,992.71933 c 0,0 -40.14443,6.28567 -60.35714,8.21427 -12.93708,1.2344 -26.20185,4.7739 -38.92858,2.1429 -10.49695,-2.17 -28.77535,-14.35393 -28.77535,-14.35393"
         style="fill:none;stroke:#000000;stroke-width:6.92946005;stroke-linecap:round;stroke-linejoin:miter;stroke-opacity:1" />
      <path
         sodipodi:nodetypes="csc"
         inkscape:connector-curvature="0"
         id="path4498"
         d="m -1196.0206,1084.6871 c 0,0 -19.2393,-15.3597 -30.408,-20.1821 -6.7338,-2.9075 -21.4285,-5 -21.4285,-5"
         style="fill:none;stroke:#000000;stroke-width:3.46473002px;stroke-linecap:round;stroke-linejoin:miter;stroke-opacity:1" />
    </g>
    <g
       id="g4500"
       transform="matrix(0.38368893,0,0,0.38368893,601.92489,175.4796)"
       inkscape:export-filename="/home/waldgeist/data/homepage/pics/physik/elektrizitaet-magnetismus/lorentzkraft-drei-finger-regel.png"
       inkscape:export-xdpi="150"
       inkscape:export-ydpi="150">
      <path
         inkscape:connector-curvature="0"
         id="path36511"
         d="m -743.73028,1064.5797 809.698556,0"
         style="fill:#a0892c;stroke:#a0892c;stroke-width:20.85022354000000178;stroke-linecap:round;stroke-linejoin:miter;stroke-opacity:1" />
      <path
         style="fill:#d40000;stroke:#d40000;stroke-width:20.85022354;stroke-linecap:round;stroke-linejoin:miter;stroke-opacity:1"
         d="m -743.73028,1064.5797 0,-809.69857"
         id="path4381"
         inkscape:connector-curvature="0" />
      <path
         style="fill:#008080;stroke:#008080;stroke-width:20.85022354;stroke-linecap:round;stroke-linejoin:miter;stroke-opacity:1"
         d="m -1316.2736,1637.123 572.54332,-572.5433"
         id="path4383"
         inkscape:connector-curvature="0" />
    </g>
    <g
       id="g5776"
       ns0:preamble="/home/waldgeist/data/sphinx/test.tex"
       ns0:text="$\\vec{F}_{\\rm{L}}$"
       transform="matrix(6.0002207,0,0,6.0002207,-1058.0186,-587.38114)"
       style="fill:#d40000;fill-opacity:1"
       inkscape:export-filename="/home/waldgeist/data/homepage/pics/physik/elektrizitaet-magnetismus/lorentzkraft-drei-finger-regel.png"
       inkscape:export-xdpi="150"
       inkscape:export-ydpi="150">
      <defs
         id="defs5778">
        <g
           id="g5780">
          <symbol
             id="textext-9df91485-0"
             overflow="visible"
             style="overflow:visible">
            <path
               id="path5783"
               d="m 5.359375,-5.9375 c -0.140625,0.140625 -0.46875,0.421875 -0.46875,0.59375 0,0.09375 0.09375,0.203125 0.1875,0.203125 0.09375,0 0.140625,-0.078125 0.203125,-0.140625 C 5.390625,-5.421875 5.625,-5.703125 6.0625,-5.921875 6.125,-5.96875 6.234375,-6.015625 6.234375,-6.125 6.234375,-6.234375 6.15625,-6.28125 6.09375,-6.328125 5.875,-6.484375 5.765625,-6.65625 5.6875,-6.890625 5.65625,-6.984375 5.625,-7.125 5.484375,-7.125 c -0.140625,0 -0.203125,0.140625 -0.203125,0.21875 0,0.046875 0.078125,0.359375 0.234375,0.578125 l -3.359375,0 c -0.15625,0 -0.34375,0 -0.34375,0.203125 0,0.1875 0.1875,0.1875 0.34375,0.1875 z m 0,0"
               style="stroke:none"
               inkscape:connector-curvature="0" />
          </symbol>
          <symbol
             id="textext-9df91485-1"
             overflow="visible"
             style="overflow:visible">
            <path
               id="path5786"
               d="m 3.015625,-3.234375 0.96875,0 c 0.75,0 0.828125,0.15625 0.828125,0.4375 0,0.078125 0,0.1875 -0.0625,0.5 C 4.71875,-2.25 4.71875,-2.21875 4.71875,-2.1875 c 0,0.078125 0.0625,0.109375 0.109375,0.109375 0.109375,0 0.109375,-0.03125 0.15625,-0.203125 L 5.53125,-4.453125 C 5.5625,-4.5625 5.5625,-4.578125 5.5625,-4.609375 5.5625,-4.625 5.546875,-4.71875 5.4375,-4.71875 5.34375,-4.71875 5.328125,-4.671875 5.296875,-4.5 5.078125,-3.734375 4.859375,-3.546875 4,-3.546875 l -0.90625,0 0.640625,-2.53125 C 3.828125,-6.4375 3.84375,-6.46875 4.28125,-6.46875 l 1.3125,0 c 1.21875,0 1.453125,0.328125 1.453125,1.09375 0,0.234375 0,0.265625 -0.03125,0.546875 C 7,-4.703125 7,-4.6875 7,-4.65625 c 0,0.046875 0.03125,0.125 0.125,0.125 0.109375,0 0.109375,-0.0625 0.125,-0.25 L 7.453125,-6.515625 C 7.484375,-6.78125 7.4375,-6.78125 7.1875,-6.78125 l -4.890625,0 c -0.1875,0 -0.296875,0 -0.296875,0.203125 0,0.109375 0.09375,0.109375 0.28125,0.109375 0.375,0 0.65625,0 0.65625,0.171875 0,0.046875 0,0.0625 -0.0625,0.25 L 1.5625,-0.78125 c -0.09375,0.390625 -0.109375,0.46875 -0.90625,0.46875 -0.171875,0 -0.28125,0 -0.28125,0.1875 C 0.375,0 0.5,0 0.53125,0 0.8125,0 1.5625,-0.03125 1.84375,-0.03125 2.171875,-0.03125 3,0 3.328125,0 3.421875,0 3.53125,0 3.53125,-0.1875 3.53125,-0.265625 3.484375,-0.296875 3.484375,-0.296875 3.453125,-0.3125 3.421875,-0.3125 3.203125,-0.3125 c -0.21875,0 -0.265625,0 -0.515625,-0.015625 -0.296875,-0.03125 -0.328125,-0.078125 -0.328125,-0.203125 0,-0.015625 0,-0.078125 0.046875,-0.21875 z m 0,0"
               style="stroke:none"
               inkscape:connector-curvature="0" />
          </symbol>
          <symbol
             id="textext-9df91485-2"
             overflow="visible"
             style="overflow:visible">
            <path
               id="path5789"
               d="m 4.53125,-1.828125 -0.234375,0 C 4.21875,-1.15625 4.125,-0.25 2.796875,-0.25 l -0.6875,0 c -0.328125,0 -0.34375,-0.0625 -0.34375,-0.265625 l 0,-3.671875 c 0,-0.234375 0,-0.328125 0.65625,-0.328125 l 0.25,0 0,-0.25 C 2.515625,-4.75 1.625,-4.734375 1.453125,-4.734375 c -0.265625,0 -1.0625,-0.03125 -1.0625,-0.03125 l 0,0.25 0.171875,0 c 0.53125,0 0.546875,0.078125 0.546875,0.328125 l 0,3.625 c 0,0.234375 -0.015625,0.3125 -0.546875,0.3125 l -0.171875,0 0,0.25 3.9375,0 z m 0,0"
               style="stroke:none"
               inkscape:connector-curvature="0" />
          </symbol>
        </g>
      </defs>
      <g
         id="textext-9df91485-3"
         style="fill:#d40000;fill-opacity:1">
        <g
           id="g5792"
           style="fill:#d40000;fill-opacity:1">
          <use
             id="use5794"
             y="132.246"
             x="224.901"
             xlink:href="#textext-9df91485-0"
             width="744.09448"
             height="1052.3622"
             style="fill:#d40000;fill-opacity:1" />
        </g>
        <g
           id="g5796"
           style="fill:#d40000;fill-opacity:1">
          <use
             id="use5798"
             y="134.765"
             x="223.43201"
             xlink:href="#textext-9df91485-1"
             width="744.09448"
             height="1052.3622"
             style="fill:#d40000;fill-opacity:1" />
        </g>
        <g
           id="g5800"
           style="fill:#d40000;fill-opacity:1">
          <use
             id="use5802"
             y="136.259"
             x="229.839"
             xlink:href="#textext-9df91485-2"
             width="744.09448"
             height="1052.3622"
             style="fill:#d40000;fill-opacity:1" />
        </g>
      </g>
    </g>
    <g
       ns0:text="$\\vec{I}$"
       ns0:preamble="/home/waldgeist/data/sphinx/test.tex"
       transform="matrix(6.0002207,0,0,6.0002207,-1310.0787,80.369953)"
       id="g6340"
       style="fill:#008080;fill-opacity:1"
       inkscape:export-filename="/home/waldgeist/data/homepage/pics/physik/elektrizitaet-magnetismus/lorentzkraft-drei-finger-regel.png"
       inkscape:export-xdpi="150"
       inkscape:export-ydpi="150">
      <defs
         id="defs6342">
        <g
           id="g6344">
          <symbol
             style="overflow:visible"
             overflow="visible"
             id="textext-3dac0845-0">
            <path
               inkscape:connector-curvature="0"
               style="stroke:none"
               d="m 5.359375,-5.9375 c -0.140625,0.140625 -0.46875,0.421875 -0.46875,0.59375 0,0.09375 0.09375,0.203125 0.1875,0.203125 0.09375,0 0.140625,-0.078125 0.203125,-0.140625 C 5.390625,-5.421875 5.625,-5.703125 6.0625,-5.921875 6.125,-5.96875 6.234375,-6.015625 6.234375,-6.125 6.234375,-6.234375 6.15625,-6.28125 6.09375,-6.328125 5.875,-6.484375 5.765625,-6.65625 5.6875,-6.890625 5.65625,-6.984375 5.625,-7.125 5.484375,-7.125 c -0.140625,0 -0.203125,0.140625 -0.203125,0.21875 0,0.046875 0.078125,0.359375 0.234375,0.578125 l -3.359375,0 c -0.15625,0 -0.34375,0 -0.34375,0.203125 0,0.1875 0.1875,0.1875 0.34375,0.1875 z m 0,0"
               id="path6347" />
          </symbol>
          <symbol
             style="overflow:visible"
             overflow="visible"
             id="textext-3dac0845-1">
            <path
               inkscape:connector-curvature="0"
               style="stroke:none"
               d="M 3.734375,-6.046875 C 3.8125,-6.40625 3.84375,-6.5 4.640625,-6.5 c 0.234375,0 0.3125,0 0.3125,-0.1875 0,-0.125 -0.109375,-0.125 -0.140625,-0.125 -0.296875,0 -1.03125,0.03125 -1.328125,0.03125 -0.296875,0 -1.015625,-0.03125 -1.328125,-0.03125 -0.0625,0 -0.1875,0 -0.1875,0.203125 C 1.96875,-6.5 2.046875,-6.5 2.25,-6.5 c 0.40625,0 0.6875,0 0.6875,0.1875 0,0.046875 0,0.078125 -0.03125,0.15625 l -1.34375,5.375 c -0.09375,0.375 -0.109375,0.46875 -0.90625,0.46875 -0.234375,0 -0.3125,0 -0.3125,0.203125 C 0.34375,0 0.453125,0 0.484375,0 0.78125,0 1.5,-0.03125 1.796875,-0.03125 2.09375,-0.03125 2.828125,0 3.125,0 c 0.078125,0 0.203125,0 0.203125,-0.1875 0,-0.125 -0.078125,-0.125 -0.296875,-0.125 -0.1875,0 -0.234375,0 -0.421875,-0.015625 -0.21875,-0.015625 -0.25,-0.0625 -0.25,-0.171875 0,-0.078125 0.015625,-0.15625 0.03125,-0.234375 z m 0,0"
               id="path6350" />
          </symbol>
        </g>
      </defs>
      <g
         id="textext-3dac0845-2"
         style="fill:#008080;fill-opacity:1">
        <g
           style="fill:#008080;fill-opacity:1"
           id="g6353">
          <use
             height="1052.3622"
             width="744.09448"
             xlink:href="#textext-3dac0845-0"
             x="223.86301"
             y="132.246"
             id="use6355"
             style="fill:#008080;fill-opacity:1" />
        </g>
        <g
           style="fill:#008080;fill-opacity:1"
           id="g6357">
          <use
             height="1052.3622"
             width="744.09448"
             xlink:href="#textext-3dac0845-1"
             x="223.43201"
             y="134.765"
             id="use6359"
             style="fill:#008080;fill-opacity:1" />
        </g>
      </g>
    </g>
    <g
       id="g6916"
       transform="matrix(6.0002207,0,0,6.0002207,-676.19205,-203.30574)"
       ns0:preamble="/home/waldgeist/data/sphinx/test.tex"
       ns0:text="$\\vec{B}$"
       style="fill:#a0892c;fill-opacity:1"
       inkscape:export-filename="/home/waldgeist/data/homepage/pics/physik/elektrizitaet-magnetismus/lorentzkraft-drei-finger-regel.png"
       inkscape:export-xdpi="150"
       inkscape:export-ydpi="150">
      <defs
         id="defs6918">
        <g
           id="g6920">
          <symbol
             id="textext-6a722e5e-0"
             overflow="visible"
             style="overflow:visible">
            <path
               id="path6923"
               d="m 5.359375,-5.9375 c -0.140625,0.140625 -0.46875,0.421875 -0.46875,0.59375 0,0.09375 0.09375,0.203125 0.1875,0.203125 0.09375,0 0.140625,-0.078125 0.203125,-0.140625 C 5.390625,-5.421875 5.625,-5.703125 6.0625,-5.921875 6.125,-5.96875 6.234375,-6.015625 6.234375,-6.125 6.234375,-6.234375 6.15625,-6.28125 6.09375,-6.328125 5.875,-6.484375 5.765625,-6.65625 5.6875,-6.890625 5.65625,-6.984375 5.625,-7.125 5.484375,-7.125 c -0.140625,0 -0.203125,0.140625 -0.203125,0.21875 0,0.046875 0.078125,0.359375 0.234375,0.578125 l -3.359375,0 c -0.15625,0 -0.34375,0 -0.34375,0.203125 0,0.1875 0.1875,0.1875 0.34375,0.1875 z m 0,0"
               style="stroke:none"
               inkscape:connector-curvature="0" />
          </symbol>
          <symbol
             id="textext-6a722e5e-1"
             overflow="visible"
             style="overflow:visible">
            <path
               id="path6926"
               d="M 1.59375,-0.78125 C 1.5,-0.390625 1.46875,-0.3125 0.6875,-0.3125 c -0.171875,0 -0.265625,0 -0.265625,0.203125 C 0.421875,0 0.515625,0 0.6875,0 L 4.25,0 C 5.828125,0 7,-1.171875 7,-2.15625 7,-2.875 6.421875,-3.453125 5.453125,-3.5625 6.484375,-3.75 7.53125,-4.484375 7.53125,-5.4375 c 0,-0.734375 -0.65625,-1.375 -1.84375,-1.375 l -3.359375,0 c -0.1875,0 -0.28125,0 -0.28125,0.203125 0,0.109375 0.09375,0.109375 0.28125,0.109375 0.015625,0 0.203125,0 0.375,0.015625 0.171875,0.03125 0.265625,0.03125 0.265625,0.171875 0,0.03125 -0.015625,0.0625 -0.03125,0.1875 z m 1.5,-2.875 0.625,-2.46875 C 3.8125,-6.46875 3.828125,-6.5 4.25,-6.5 l 1.296875,0 c 0.875,0 1.078125,0.59375 1.078125,1.03125 0,0.875 -0.859375,1.8125 -2.0625,1.8125 z m -0.4375,3.34375 c -0.140625,0 -0.15625,0 -0.21875,0 -0.109375,-0.015625 -0.140625,-0.03125 -0.140625,-0.109375 0,-0.03125 0,-0.046875 0.0625,-0.21875 l 0.6875,-2.78125 1.875,0 c 0.953125,0 1.15625,0.734375 1.15625,1.15625 C 6.078125,-1.28125 5.1875,-0.3125 4,-0.3125 z m 0,0"
               style="stroke:none"
               inkscape:connector-curvature="0" />
          </symbol>
        </g>
      </defs>
      <g
         id="textext-6a722e5e-2"
         style="fill:#a0892c;fill-opacity:1">
        <g
           id="g6929"
           style="fill:#a0892c;fill-opacity:1">
          <use
             id="use6931"
             y="132.246"
             x="225.034"
             xlink:href="#textext-6a722e5e-0"
             width="744.09448"
             height="1052.3622"
             style="fill:#a0892c;fill-opacity:1" />
        </g>
        <g
           id="g6933"
           style="fill:#a0892c;fill-opacity:1">
          <use
             id="use6935"
             y="134.765"
             x="223.43201"
             xlink:href="#textext-6a722e5e-1"
             width="744.09448"
             height="1052.3622"
             style="fill:#a0892c;fill-opacity:1" />
        </g>
      </g>
    </g>
    <path
       sodipodi:type="star"
       style="fill:#a0892c;fill-opacity:1;stroke:#a0892c;stroke-width:33.57608032000000264;stroke-miterlimit:4;stroke-opacity:1;stroke-dasharray:none"
       id="path42818"
       sodipodi:sides="3"
       sodipodi:cx="-707.10675"
       sodipodi:cy="1607.946"
       sodipodi:r1="12.121831"
       sodipodi:r2="6.060915"
       sodipodi:arg1="1.5707963"
       sodipodi:arg2="2.6179939"
       inkscape:flatsided="false"
       inkscape:rounded="0"
       inkscape:randomized="0"
       d="m -707.10675,1620.0679 -5.24891,-9.0914 -5.2489,-9.0914 10.49781,0 10.49781,0 -5.2489,9.0914 z"
       inkscape:transform-center-y="-0.15364278"
       transform="matrix(1.4355412e-5,-0.44537348,0.44537348,1.4355412e-5,-80.110109,268.99745)"
       inkscape:transform-center-x="-4.3144802"
       inkscape:export-filename="/home/waldgeist/data/homepage/pics/physik/elektrizitaet-magnetismus/lorentzkraft-drei-finger-regel.png"
       inkscape:export-xdpi="150"
       inkscape:export-ydpi="150" />
    <path
       inkscape:transform-center-x="0.15364181"
       transform="matrix(-0.44537348,-1.4355412e-5,1.4355412e-5,-0.44537348,1.61423,980.2791)"
       inkscape:transform-center-y="-4.3145151"
       d="m -707.10675,1620.0679 -5.24891,-9.0914 -5.2489,-9.0914 10.49781,0 10.49781,0 -5.2489,9.0914 z"
       inkscape:randomized="0"
       inkscape:rounded="0"
       inkscape:flatsided="false"
       sodipodi:arg2="2.6179939"
       sodipodi:arg1="1.5707963"
       sodipodi:r2="6.060915"
       sodipodi:r1="12.121831"
       sodipodi:cy="1607.946"
       sodipodi:cx="-707.10675"
       sodipodi:sides="3"
       id="path7365"
       style="fill:#d40000;stroke:#d40000;stroke-width:33.57608032;stroke-miterlimit:4;stroke-dasharray:none"
       sodipodi:type="star"
       inkscape:export-filename="/home/waldgeist/data/homepage/pics/physik/elektrizitaet-magnetismus/lorentzkraft-drei-finger-regel.png"
       inkscape:export-xdpi="150"
       inkscape:export-ydpi="150" />
    <path
       inkscape:transform-center-x="1.2893461"
       transform="matrix(0.31491645,0.31493677,-0.31493677,0.31491645,819.37313,525.72095)"
       inkscape:transform-center-y="1.506309"
       d="m -707.10675,1620.0679 -5.24891,-9.0914 -5.2489,-9.0914 10.49781,0 10.49781,0 -5.2489,9.0914 z"
       inkscape:randomized="0"
       inkscape:rounded="0"
       inkscape:flatsided="false"
       sodipodi:arg2="2.6179939"
       sodipodi:arg1="1.5707963"
       sodipodi:r2="6.060915"
       sodipodi:r1="12.121831"
       sodipodi:cy="1607.946"
       sodipodi:cx="-707.10675"
       sodipodi:sides="3"
       id="path7367"
       style="fill:#008080;fill-opacity:1;stroke:#008080;stroke-width:33.57608032;stroke-miterlimit:4;stroke-opacity:1;stroke-dasharray:none"
       sodipodi:type="star"
       inkscape:export-filename="/home/waldgeist/data/homepage/pics/physik/elektrizitaet-magnetismus/lorentzkraft-drei-finger-regel.png"
       inkscape:export-xdpi="150"
       inkscape:export-ydpi="150" />
  </g>
</svg>
