<svg xmlns:ns0="http://www.iki.fi/pav/software/textext/" xmlns="http://www.w3.org/2000/svg" xmlns:xlink="http://www.w3.org/1999/xlink" width="744.094" height="1052.362"><title>Die Lorentzkraft (3-Finger-Regel)</title><path style="marker:none" color="#000" fill="#fff" stroke="#fff" stroke-width="8" stroke-linecap="round" stroke-linejoin="round" overflow="visible" d="M10.413 122.864h723.269v806.635H10.413z"/><g stroke="#000" stroke-linecap="round"><path d="M422.787 548.72s2.21-4.459 2.779-6.605c.663-2.506.925-5.172.874-7.763a41.279 41.279 0 0 0-1.093-8.637c-.236-1.003-1.02-2.916-1.02-2.916" fill="#fca" stroke-width="1.99984798"/><path d="M133.245 718.812c-3.801-7.588-1.06-16.125.103-24.533 2.012-14.55 7.747-26.872 12.473-42.262 2.412-7.854 6.888-15.704 7.422-23.502.341-4.997.406-10.22-1.547-14.947-1.866-4.518-5.367-7.466-8.246-12.06-1.579-2.52-3.119-7.165-4.02-9.999-1.5-4.717-.412-14.843-.412-14.843s2.458-10.077 3.607-15.256c1.416-6.376 3.814-17.317 3.814-19.379 0-2.062 1.279-14.021 1.959-21.028.694-7.15-.153-14.642 2.165-21.44 2.728-8.006 7.415-15.454 13.4-21.544 6.172-6.282 14.43-11.154 22.471-14.74 12.025-5.364 25.012-6.478 37.727-9.896 5.114-1.375 10.79-2.542 15.875-4.02 5.67-1.649 12.098-4.074 18.393-4.803 8.333-.964 16.522-.302 25.158.628 8.102.872 15.77 2.086 23.605 3.401 2.1.353 6.236 1.392 6.236 1.392l16.08-17.472c4.418-4.8 28.981-5.402 42.057-6.185l-.412-28.604s-3.609-14.735-4.123-22.266c-1.004-14.687-1.185-29.758 2.061-44.118 1.675-7.407 3.814-15.217 8.83-21.003a23.377 23.377 0 0 1 13.363-7.688c5.35-1.013 10.738-.015 14.914 3.47 2.336 1.948 1.52.397 2.084 3.191 2.079 10.296-.456 35.345-.456 35.345s2.008 3.044 2.085 5.31c.45 13.285 1.181 19.16 2.957 27.83.979 4.778.123 11.468 1.638 17.658 4.444 18.153 4.533 25.843 7.46 38.712 2.315 10.18 7.262 19.904 8.148 30.318.204 2.386 0 6.84 0 6.84l-3.917 20.306-4.123 69.063s14.915-1.275 22.809-.85c4.667.252 5.492 1.583 15.33.129 9.84-1.454 33.073-1.995 51.944-1.161 8.647.382 17.364-1.884 25.985-1.107 14.11 1.272 28.132 4.915 41.232 10.308 5.1 2.1 10.567 4.324 14.225 8.453 3.387 3.822 5.985 8.915 6.184 14.018.22 5.603-1.463 12.053-5.566 15.875-1.72 1.602-6.803 1.855-6.803 1.855s-32.87-1.904-49.633-3.814c-6.365-.725-13.335-2.304-19.74-2.422-7.557-.14-14.29 3.812-22.265 4.33-.119.007-28.268 1.352-40.716 4.895-5.01 1.426-14.535 1.443-14.535 1.443-8.074 1.048-16.533 2.003-25.666 4.64-9.9 2.442-21.938 4.752-29.172 5.565-2.75.3-12.46 4.313-15.153 4.948-10.336 2.436-17.962 10.686-27.831 12.576-5.514 1.056-11.246.81-16.493-2.062-5.728-3.134-16.905-9.895-16.905-9.895l-16.905-7.628s-21.933-4.763-32.78-7.628c-12.402-3.276-25.62-7.926-36.902-10.927-1.88-.5-8.827.17-11.648 3.505-3.2 3.784-1.09 9.441-1.237 14.225-.175 5.7.567 17.06.567 17.06s-.122 3.707-.154 5.515c-.057 3.194-.078 7.647-.464 10.771-.54 4.364-1.515 7.782-2.577 11.597-1.171 4.208-2.476 8.397-4.175 12.42-1.608 3.81-3.576 7.456-5.463 11.134-1.463 2.85-3.202 5.89-4.587 8.452-2.374 4.39-6.958 12.267-6.958 12.267l-3.762 5.154s-5.978 6.774-9.5 9.094c-3.306 2.176-6.685 3.419-10.48 4.544-3.201.95-6.783 1.423-10.118 1.252-3.154-.162-9.184-2.333-9.184-2.333s-7.98-4.573-9.733-8.074z" fill="#fca" stroke-width="1.99984798"/><path d="M211.07 605.734s.993-12.95 2.901-18.502c3.08-8.961 7.455-17.48 12.245-25.656M225.633 602.393s12.014-4.385 18.077-6.414c8.598-2.877 25.948-8.164 25.948-8.164M160.034 620.178c6.545-5.97 7.929-6.705 16.428-6.052 11.573-.862 28.11 13.667 28.484 15.837M247.791 458.366s15.9 10.495 22.887 16.91c3.576 3.283 9.622 10.933 9.622 10.933M315.286 557.348s2.729-7.953 5.394-11.079c2.195-2.575 8.309-5.83 8.309-5.83s8.5-4.517 13.12-5.686c1.087-.275 4.744.172 4.744.172m11.91 10.907s-4.993-1.596-7.002-3.191c-2.695-2.14-4.362-4.14-4.908-7.716-.546-3.576 1.82-8.2 3.273-12.126 1.463-3.948 3.03-7.877 4.082-11.954 1.11-4.3 2.565-9.162 3.207-13.557.924-6.314 1.313-18.583 1.313-18.583M506.836 579.652s.175-7.92 1.312-11.662c.891-2.932 4.228-8.164 4.228-8.164M438.176 577.903s1.968-8.29 4.227-11.808c1.504-2.342 5.977-5.831 5.977-5.831M450.858 573.384s.47-4.616 1.604-6.56c1.713-2.94 7.434-6.998 7.434-6.998" fill="none" stroke-width="1.0000683"/><path d="M410.915 561.576l9.184-39.943 6.014-29.957M385.113 559.535s-4.905-6.452-6.997-9.913a100.977 100.977 0 0 1-6.415-12.537c-1.8-4.21-2.823-7.595-3.844-11.972-1.077-4.613-.431-9.957-.383-14.705 0-.583 1.603-10.787 1.603-10.787l1.75-9.767 1.895-15.015s-5.93 3.134-9.184 3.644c-3.608.566-7.388.151-10.933-.729-2.428-.603-6.852-3.061-6.852-3.061s-1.837 2.96-3.025 4.082c-1.627 1.537-5.43 3.207-5.43 3.207s-2.46 3.4-3.954 4.938c-1.494 1.538-3.214 2.692-4.938 4.1-1.732 1.414-3.608 2.736-4.957 4.519-1.31 1.733-1.574 4.122-2.915 5.831-1.948 2.482-4.432 4.55-7.216 6.123-3.737 2.11-7.891 3.636-12.172 3.936-4.306.3-8.783-.247-12.829-1.75-3.095-1.15-6.213-2.842-8.309-5.393-1.495-1.82-2.1-3.239-2.624-6.56-1.288-8.153 14.368-21.694 22.45-27.99 0 0 1.919-4.299 3.243-6.34 2.722-4.198 9.585-11.736 9.585-11.736s4.628-6.223 7.726-8.455c1.553-1.119 3.284-1.686 5.248-2.332 5.02-1.653 10.669-1.798 15.89-2.624 5.478-.867 10.849-2.394 16.363-2.989 4.59-.495 13.812-.51 13.812-.51l1.02.146-1.165-9.33" fill="none" stroke-width="1.99984798"/><path d="M372.02 627.354c-.196.269 7.871 2.935 12.43 2.192 3.174-.518 6.017-1.68 8.813-3.247 1.992-1.117 6.821-5.495 6.992-5.815-9.859 1.066-19.485 2.767-28.235 6.87z" fill="#fca" stroke-width="1.99984798"/><path d="M372.722 474.839s2.49-3.958 2.988-6.196c.443-1.992-.073-6.122-.073-6.122l-.801-9.111-2.114-18.514" fill="none" stroke-width="1.99984798"/><path d="M345.753 474.693s-2.854-1.703-3.511-3.135c-.446-.972.09-1.797-.176-2.833-.383-1.49-2.29-4-2.29-4" fill="none" stroke-width="1.0000683"/><path d="M277.967 494.956c2.184 1.215 6.706 3.353 6.706 3.353s4.378-4.864 6.05-7.654c3.909-6.524 13.59-24.126 9.11-20.919-6.896 4.939-21.929 16.144-23.032 23.81-.08.553.518 1.05 1.166 1.41zM407.826 344.651s-1.306 2.755-2.596 3.29c-1.153.477-2.613.143-3.717-.438-2.057-1.083-3.408-3.248-4.592-5.248-1.884-3.183-2.93-6.805-3.803-10.423-.964-3.99-.992-8.174-1.518-12.245-.208-1.609-.729-4.81-.729-4.81 5.398-2.882 10.843-5.692 17.051-7.36 2.637 11.569.74 24.57-.096 37.234z" fill="#ccc" stroke-width="1.0000683"/><path d="M371.59 483.8s-5.453 4.795-7.177 7.22c-1.942 2.73-3.207 8.455-3.353 9.475-.146 1.02-1.75 7.727-2.187 9.184-.437 1.458-4.365 11.248-4.365 11.248l-.446 1.143M369.077 499.62s-2.49 4.628-4.081 6.706c-.815 1.065-2.77 2.916-2.77 2.916l-1.904 2.94M367.379 513.647s-4.902 3.612-7.485 5.216c-1.885 1.17-5.467 5.03-5.467 5.03-.946.66-3.145 4.06-4.72 6.551-.198.313.174-.277 0 0M402.386 385.556c.618.206 3.526 3.048 7.319 1.959 3.792-1.09 3.783-1.343 3.783-1.343" fill="none" stroke-width="1.0000683"/><path d="M422.074 560.688s-11.586 1.815-17.42 2.371c-3.734.356-7.563 1.378-11.236.619-3.03-.627-8.305-4.143-8.305-4.143" fill="none" stroke-width="1.99984798"/><path d="M213.971 587.232s-5.553-4.433-8.776-5.825c-1.944-.839-6.185-1.443-6.185-1.443" fill="none" stroke-width="1.0000683"/></g><g stroke-width="20.85" stroke-linecap="round"><path d="M316.564 583.947h310.672" fill="#a0892c" stroke="#a0892c" stroke-width="7.9999365000000004"/><path d="M316.564 583.947V273.275" fill="#d40000" stroke="#d40000" stroke-width="7.9999365000000004"/><path d="M96.885 803.626l219.679-219.679" fill="teal" stroke="teal" stroke-width="7.9999365000000004"/></g><g ns0:preamble="/home/waldgeist/data/sphinx/test.tex" ns0:text="$\\vec{F}_{\\rm{L}}$" transform="translate(-1058.019 -587.381) scale(6.00022)" fill="#d40000"><defs><symbol id="a" overflow="visible"><path d="M5.36-5.938c-.141.141-.47.422-.47.594 0 .094.094.203.188.203s.14-.078.203-.14c.11-.14.344-.422.782-.64.062-.048.171-.095.171-.204 0-.11-.078-.156-.14-.203a1.034 1.034 0 0 1-.407-.563c-.03-.093-.062-.234-.203-.234-.14 0-.203.14-.203.219 0 .047.078.36.235.578h-3.36c-.156 0-.344 0-.344.203 0 .188.188.188.344.188zm0 0"/></symbol><symbol id="b" overflow="visible"><path d="M3.016-3.234h.968c.75 0 .829.156.829.437 0 .078 0 .188-.063.5-.031.047-.031.078-.031.11 0 .078.062.109.11.109.109 0 .109-.031.155-.203l.547-2.172c.032-.11.032-.125.032-.156a.117.117 0 0 0-.125-.11c-.094 0-.11.047-.141.219-.219.766-.438.953-1.297.953h-.906l.64-2.531c.094-.36.11-.39.547-.39h1.313c1.218 0 1.453.327 1.453 1.093 0 .234 0 .266-.031.547C7-4.703 7-4.688 7-4.656c0 .047.031.125.125.125.11 0 .11-.063.125-.25l.203-1.735c.031-.265-.016-.265-.266-.265h-4.89c-.188 0-.297 0-.297.203 0 .11.094.11.281.11.375 0 .656 0 .656.171 0 .047 0 .063-.062.25L1.562-.78c-.093.39-.109.469-.906.469-.172 0-.281 0-.281.187C.375 0 .5 0 .531 0c.281 0 1.031-.031 1.313-.031C2.172-.031 3 0 3.328 0c.094 0 .203 0 .203-.188 0-.078-.047-.109-.047-.109-.03-.016-.062-.016-.28-.016-.22 0-.267 0-.517-.015-.296-.031-.328-.078-.328-.203 0-.016 0-.078.047-.219zm0 0"/></symbol><symbol id="c" overflow="visible"><path d="M4.531-1.828h-.234c-.078.672-.172 1.578-1.5 1.578h-.688c-.328 0-.343-.063-.343-.266v-3.671c0-.235 0-.329.656-.329h.25v-.25c-.156.016-1.047.032-1.219.032-.266 0-1.062-.032-1.062-.032v.25h.171c.532 0 .547.079.547.329v3.625c0 .234-.015.312-.546.312H.39V0h3.937zm0 0"/></symbol></defs><use y="132.246" x="224.901" xlink:href="#a" width="744.094" height="1052.362"/><use y="134.765" x="223.432" xlink:href="#b" width="744.094" height="1052.362"/><use y="136.259" x="229.839" xlink:href="#c" width="744.094" height="1052.362"/></g><g ns0:text="$\\vec{I}$" ns0:preamble="/home/waldgeist/data/sphinx/test.tex" transform="translate(-1310.079 80.37) scale(6.00022)" fill="teal"><defs><symbol overflow="visible" id="d"><path d="M5.36-5.938c-.141.141-.47.422-.47.594 0 .094.094.203.188.203s.14-.078.203-.14c.11-.14.344-.422.782-.64.062-.048.171-.095.171-.204 0-.11-.078-.156-.14-.203a1.034 1.034 0 0 1-.407-.563c-.03-.093-.062-.234-.203-.234-.14 0-.203.14-.203.219 0 .047.078.36.235.578h-3.36c-.156 0-.344 0-.344.203 0 .188.188.188.344.188zm0 0"/></symbol><symbol overflow="visible" id="e"><path d="M3.734-6.047c.079-.36.11-.453.907-.453.234 0 .312 0 .312-.188 0-.125-.11-.125-.14-.125-.297 0-1.032.032-1.329.032-.296 0-1.015-.032-1.328-.032-.062 0-.187 0-.187.204 0 .109.078.109.281.109.406 0 .688 0 .688.188 0 .046 0 .078-.032.156L1.562-.781c-.093.375-.109.469-.906.469-.234 0-.312 0-.312.203 0 .109.11.109.14.109C.781 0 1.5-.031 1.797-.031c.297 0 1.031.031 1.328.031.078 0 .203 0 .203-.188 0-.124-.078-.124-.297-.124-.187 0-.234 0-.422-.016-.218-.016-.25-.063-.25-.172 0-.078.016-.156.032-.234zm0 0"/></symbol></defs><use height="1052.362" width="744.094" xlink:href="#d" x="223.863" y="132.246"/><use height="1052.362" width="744.094" xlink:href="#e" x="223.432" y="134.765"/></g><g transform="translate(-676.192 -203.306) scale(6.00022)" ns0:preamble="/home/waldgeist/data/sphinx/test.tex" ns0:text="$\\vec{B}$" fill="#a0892c"><defs><symbol id="f" overflow="visible"><path d="M5.36-5.938c-.141.141-.47.422-.47.594 0 .094.094.203.188.203s.14-.078.203-.14c.11-.14.344-.422.782-.64.062-.048.171-.095.171-.204 0-.11-.078-.156-.14-.203a1.034 1.034 0 0 1-.407-.563c-.03-.093-.062-.234-.203-.234-.14 0-.203.14-.203.219 0 .047.078.36.235.578h-3.36c-.156 0-.344 0-.344.203 0 .188.188.188.344.188zm0 0"/></symbol><symbol id="g" overflow="visible"><path d="M1.594-.781c-.094.39-.125.469-.907.469-.171 0-.265 0-.265.203C.422 0 .516 0 .688 0H4.25C5.828 0 7-1.172 7-2.156c0-.719-.578-1.297-1.547-1.406 1.031-.188 2.078-.922 2.078-1.876 0-.734-.656-1.375-1.843-1.375h-3.36c-.187 0-.281 0-.281.204 0 .109.094.109.281.109.016 0 .203 0 .375.016.172.03.266.03.266.171 0 .032-.016.063-.031.188zm1.5-2.875l.625-2.469c.094-.344.11-.375.531-.375h1.297c.875 0 1.078.594 1.078 1.031 0 .875-.86 1.813-2.063 1.813zM2.656-.312h-.219c-.109-.016-.14-.032-.14-.11 0-.031 0-.047.062-.219l.688-2.78h1.875c.953 0 1.156.733 1.156 1.155 0 .985-.89 1.954-2.078 1.954zm0 0"/></symbol></defs><use y="132.246" x="225.034" xlink:href="#f" width="744.094" height="1052.362"/><use y="134.765" x="223.432" xlink:href="#g" width="744.094" height="1052.362"/></g><path d="M641.415 583.947l-4.05 2.338-4.048 2.337v-9.35l4.049 2.337z" fill="#a0892c" stroke="#a0892c" stroke-width="14.95374312"/><path d="M316.564 258.754l2.338 4.05 2.337 4.048H311.888l2.338-4.049z" fill="#d40000" stroke="#d40000" stroke-width="14.95374312"/><path d="M86.475 813.213l1.21-4.516 1.21-4.516 3.306 3.306 3.306 3.306-4.516 1.21z" fill="teal" stroke="teal" stroke-width="14.95374312"/></svg>