<svg xmlns="http://www.w3.org/2000/svg" xmlns:xlink="http://www.w3.org/1999/xlink" height="1052.362" width="1488.189"><title>Rechte-Hand-Regel (Spule)</title><defs><symbol overflow="visible" id="b"><path d="M3.484-3.875l-1.28-.297c-.626-.156-1-.687-1-1.266 0-.703.53-1.312 1.312-1.312 1.656 0 1.875 1.64 1.937 2.078.016.063.016.125.125.125.125 0 .125-.047.125-.234v-2c0-.172 0-.25-.11-.25-.062 0-.077.015-.14.14l-.36.563c-.296-.297-.702-.703-1.593-.703-1.11 0-1.938.875-1.938 1.937 0 .828.532 1.563 1.297 1.828.11.032.625.157 1.329.329.265.062.562.14.843.5.203.265.313.593.313.921 0 .704-.5 1.422-1.344 1.422-.281 0-1.047-.047-1.578-.531-.578-.547-.61-1.172-.61-1.531-.015-.11-.093-.11-.125-.11-.125 0-.125.079-.125.25v2c0 .172 0 .235.11.235.062 0 .078-.016.14-.125 0-.016.032-.047.36-.578.312.343.953.703 1.844.703 1.156 0 1.953-.969 1.953-2.078 0-.985-.657-1.813-1.485-2.016zm0 0"/></symbol><symbol id="a" overflow="visible"><path d="M2.313-6.672c-.094-.125-.094-.14-.282-.14H.328v.312h.297c.14 0 .344.016.484.016.235.03.25.046.25.234v5.203c0 .266 0 .734-1.03.734V0c.343-.016.843-.031 1.171-.031.328 0 .813.015 1.156.031v-.313c-1.015 0-1.015-.468-1.015-.734v-5.187c.046.046.046.062.093.125L5.797-.125c.094.11.11.125.172.125.14 0 .14-.063.14-.266v-5.5c0-.265 0-.734 1.032-.734v-.313c-.36.016-.844.032-1.172.032-.328 0-.813-.016-1.157-.032v.313c1.016 0 1.016.469 1.016.734V-1.5zm0 0"/></symbol></defs><path d="M744.094 101.239v849.885" fill="#b3b3b3" stroke="#b3b3b3" stroke-width="2"/><path fill="#fff" stroke="#fff" stroke-width="2" stroke-linecap="round" d="M844.232 8.835h574.007v1034.691H844.232z"/><text y="993.023" x="-1177.083" style="line-height:125%" transform="matrix(-1 0 0 1 0 0)" font-size="109.435" font-weight="400" letter-spacing="0" word-spacing="0" fill="maroon" stroke="maroon" font-family="Sans"><tspan y="993.023" x="-1177.083">+</tspan></text><path d="M1219.7 707.746c-2.37-3.257-6.54-9.049-9.268-12.87-7.36-10.316-31.528-28.332-44.451-33.137-11.077-4.118-21.82-6.639-32.752-7.686-15.487-1.483-37.53-8.653-59.742-19.433-13.8-6.697-18.077-7.678-27.496-6.3-12.814 1.875-28.032 1.535-31.446-.702-4.377-2.868-8.375-10.251-8.375-16.927 0-8.21 1.302-13.558 8.025-17.398 3.43-1.959 7.156-3.252 6.17-3.543-.89-.263-8.318-1.744-16.508-3.293-9.145-1.729-16.007-3.632-17.784-4.934-4.414-3.233-8.446-8.735-8.448-16.037-.003-7.989 2.786-15.834 8.175-19.164 2.159-1.334 4.448-2.842 5.677-1.583-.022-.409-2.606-2.494-5.743-4.633-3.136-2.14-8.077-5.812-9.963-8.161-2.862-3.567-4.39-6.328-4.343-11.115-.489-17.306 13.767-31.48 31.193-30.568l10.26 2.969-5.113-4.374c-11.537-9.869-12.778-24.818-3.145-35.762 7.153-8.126 20.362-12.531 50.62-19.063 25.4-5.482 35.108-4.525 64.637 3.513 16.864 4.59 27.555 5.008 38.016 1.484 9.792-3.299 15.272-6.854 16.755-9.626 1.985-3.71 2.644-17.625 1.174-27.954-.79-5.546-3.609-18.622-8-31.537-7.11-20.912-8.908-22.423-8.955-33.147-.061-14.155 1.428-25.807 6.748-38.224 6.318-14.75 12.601-21.03 21.364-19.705 2.518.381 9.336 1.567 9.542 2.437 1.293 5.443 3.99 18.384 5.935 36.31 1.958 16.343 7.282 30.524 9.907 45.995 2.691 15.246 4.473 17.179 13.846 30.926 13.897 20.384 20.002 35.044 22.647 54.386 3.109 22.733 6.158 42.676 7.659 50.092 3.355 16.579 12.015 47.487 14.489 51.708 1.464 2.499 6.433 8.944 11.04 14.322 4.608 5.378 8.658 10.661 9 11.74.392 1.236-11.72 26.753-32.734 68.966-18.346 36.853-33.57 67.217-33.83 67.477-.26.26-2.411-2.192-4.782-5.45z" fill="#fca" stroke="#fca" stroke-width="3.00006408" stroke-linecap="round"/><g stroke="#000" stroke-width="9.404" fill="none"><path d="M1222.975 714.546l-20.053-27.965-29.168-21.876c-30.776-12.89-34.806-9.333-51.15-12.226-17.866-3.163-31.63-10.777-38.176-12.384-4.426-1.086-14.716-7.82-25.673-12.01-9.83-3.384-16.711.73-30.84 1.984-12.636-.824-18.985-1.293-23.588-16.25 0 0-.975-8.966 1.823-14.58 5.053-8.825 13.728-9.92 13.728-9.92s-23.836-3.798-34.31-7.02c-8.784-6.528-9.88-13.36-8.047-25.462 1.427-5.939 5.594-10.105 11.855-13.305 0 0-.893-1.173-10.56-7.135-12.945-12.727-6.283-29.052-4.96-30.814 13.039-17.178 22.714-17.216 35.683-14.344-11.903-9.527-14.89-19.06-10.6-30.415 2.99-6.71 7.377-13.277 24.42-19.434 5.523-2.256 18.78-5.837 41.016-10.026 15.055-3.196 24.488-2.088 38.283.911l28.845 7.77c19.733 2.384 37.348-4.582 42.272-10.196 2.106-3.482 3.332-17.546.14-38.738-1.656-8.259-1.797-6.164-9.966-30.254-3.917-10.096-4.707-14.167-5.69-23.377-.172-10.298 1.786-20.749 3.49-29.167 4.396-12.212 4.857-14.727 9.27-20.965 5.032-7.11 8.547-12.571 24.717-7.236 4.815 13.39 6.922 29.218 6.546 32.869l2.246 18.975 4.719 14.644c3.468 8.14 1.722 15.473 5.948 29.656 0 0 8.848 16.185 12.493 19.831 9.358 12.419 12.424 21.73 18.654 38.283 1.493 10.092 3.977 25.25 3.977 28.896 0 3.646 5.47 35.548 6.38 39.194.912 3.646 6.381 23.699 6.381 23.699 5.314 31.272 15.299 29.656 28.425 50.353z" stroke-width="1.9999363800000003"/><path d="M1030.04 445.38c5.696 4.33 12.077 8.66 12.077 8.66 5.696 2.848 13.33 5.697 19.141 6.608l12.989 1.823c11.393 1.823 21.078 6.153 21.078 6.153 8.317 3.532 10.824 6.38 10.824 6.38 10.412 12.035 10.056 20.627 2.962 33.042 2.051 1.14 3.831 1.772 5.925 4.785 8.066 11.608 5.68 20.887-1.367 29.851 0 0 4.862 3.848 5.924 6.609 1.998 5.191 2.03 8.313 1.98 10.787-.125 6.189-1.9 10.74-5.398 14.507-2.362 2.543-9.57 4.101-9.57 4.101 9.815 4.956 10.756 13.059-.355 24.127-14.75 7.646-24.49 10.276-39.206 16.796l-21.403 6.986" stroke-width="1.9999363800000003" stroke-linecap="round"/><path d="M1004.992 490.739c12.46 6.033 25.124 11.05 38.108 14.467l22.488 2.384 19.824 1.367 15.04.912c5.81.456 9.343-1.595 9.343-1.595M985.832 543.555l54.69 9.382s8.517.528 12.76.228c8.135-.575 19.443-3.003 24.155-3.874 10.945-2.023 21.738-2.585 36.004-6.039M1015.911 589.624s18.38 1.797 27.573 1.367c11.192-.522 24.74-2.887 33.27-4.785 8.528-1.897 12.097-4.113 18.001-5.469 5.904-1.356 11.964-1.823 11.964-1.823" stroke-linecap="round" stroke-width="3.00006408"/></g><path d="M1104.31 506.906c-6.836-.227-13.33-.57-23.243-2.734-5.81-2.848-7.064-3.076-8.659-9.57 0-2.735.456-6.495 2.848-9.571 4.565-3.62 12.67-5.818 26.775-4.558 6.005 8.143 7.173 17.503 2.28 26.433zM1081.523 524.225c5.472-6.188 15.803-10.003 22.787-10.938 11.46 4.878 12.202 15.511 6.722 27.003-11.28 2.734-22.787 2.962-26.433 2.05-6.064-4.761-6.46-11.333-3.076-18.115zM1085.169 566.381c-.728-3.93.342-9.798 2.734-12.077 5.899-3.72 11.748-5.666 20.509-7.292 9.185 5.878 8.246 14.34 4.557 25.522-9.272 1.777-14.197 1.918-23.243 0-1.937-1.254-4.11-3.744-4.557-6.153zM1088.591 585.322c6.441-2.227 10.253-3.738 15.475-3.968 6.94 2.385 7.014 7.655 3.868 13.761-6.299 3.085-8.24 2.453-15.322 4.232-7.993 1.47-9.49-2.962-9.539-4.985-.06-2.497-1.145-5.036 5.518-9.04z" fill="#ccc" stroke="#000" stroke-width="1.9999363800000003"/><path d="M1263.05 529.102c-4.679 27.073-17.728 35.914-40.846 46.96M1164.491 573.392c-.506-.244-37.813-10.078-49.933-30.625M1156.188 456.66c11.815-7.43 14.17-14.306 17.784-26.953M1166.963 364.604c7.375-5.686 10.252-4.74 19.45-5.557M1073.888 636.653c.454-3.994.425-8.109-.599-12.472M1070.538 460.455c.639-2.817 2.112-11.645 3.537-20.827M1189.415 677.43c7.464-10.708 13.634-19.774 15.064-32.25.898-7.843 2.061-12.469 3.568-17.858" fill="none" stroke="#000" stroke-width="1.0001277"/><path d="M1131.026 94.36l1.061 254.395m-1.702 330.535l.641 218.513" fill="#333" stroke="#000" stroke-width="4"/><g stroke-width="6.195" stroke-linecap="round" fill="none"><g stroke="#b3b3b3"><path d="M1156.739 655.19c.261 17.1-104.813 13.798-109.742-5.259" stroke-width="4.00017345"/><path d="M1130.385 679.29s-78.106 3.112-83.035-15.945" stroke="#000" stroke-width="4.00017345"/><path d="M1156.739 641.692c.261 17.101-104.813 13.798-109.742-5.259M1156.739 629.136c.261 17.1-104.813 13.798-109.742-5.26M1156.739 616.663c.261 17.101-104.813 13.798-109.742-5.259M1156.739 603.25c.261 17.1-104.813 13.797-109.742-5.26M1156.739 589.836c.261 17.1-104.813 13.797-109.742-5.26M1156.739 576.422c.261 17.1-104.813 13.798-109.742-5.26M1156.739 563.008c.261 17.1-104.813 13.798-109.742-5.26M1156.739 549.594c.261 17.1-104.813 13.798-109.742-5.259M1156.739 536.18c.261 17.1-104.813 13.798-109.742-5.259M1156.739 522.766c.261 17.101-104.813 13.798-109.742-5.259M1156.739 509.352c.261 17.101-104.813 13.798-109.742-5.259M1156.739 455.697c.261 17.1-104.813 13.798-109.742-5.259M1156.739 373.277c.261 17.1-104.813 13.798-109.742-5.26M1156.739 415.455c.261 17.101-104.813 13.798-109.742-5.258M1156.739 386.69c.261 17.101-104.813 13.799-109.742-5.258M1156.739 442.283c.261 17.101-104.813 13.798-109.742-5.259M1156.739 469.11c.261 17.102-104.813 13.799-109.742-5.258M1156.739 428.87c.261 17.1-104.813 13.797-109.742-5.26M1156.739 402.042c.261 17.1-104.813 13.797-109.742-5.26M1156.739 482.525c.261 17.1-104.813 13.798-109.742-5.26M1156.739 495.939c.261 17.1-104.813 13.797-109.742-5.26" stroke-width="4.00017345"/></g><g stroke="#000"><path d="M1047.098 368.018c-1.485-24.07 84.99-19.263 84.99-19.263M1047.173 649.931c-3.735-20.554 114.773-26.83 109.388-8.155M1047.35 663.345c-3.734-20.554 114.596-26.83 109.211-8.155M1047.173 490.68c-3.735-20.555 114.773-26.83 109.388-8.155M1047.173 477.266c-3.735-20.554 114.773-26.83 109.388-8.155M1047.173 463.852c-3.735-20.554 114.773-26.83 109.388-8.155M1047.173 450.438c-3.735-20.554 114.773-26.83 109.388-8.155M1047.173 437.024c-3.735-20.554 114.773-26.829 109.388-8.155M1047.173 637.375c-3.735-20.555 114.773-26.83 109.388-8.155M1047.173 624.818c-3.735-20.554 114.773-26.83 109.388-8.155M1047.173 611.404c-3.735-20.554 114.773-26.829 109.388-8.155M1047.173 597.99c-3.735-20.554 114.773-26.829 109.388-8.154M1047.173 584.577c-3.735-20.555 114.773-26.83 109.388-8.155M1047.173 571.163c-3.735-20.555 114.773-26.83 109.388-8.155M1047.173 557.749c-3.735-20.554 114.773-26.83 109.388-8.155M1047.173 544.335c-3.735-20.554 114.773-26.83 109.388-8.155M1047.173 530.921c-3.735-20.554 114.773-26.829 109.388-8.155M1047.173 517.507c-3.735-20.554 114.773-26.829 109.388-8.155M1047.173 504.093c-3.735-20.554 114.773-26.829 109.388-8.154M1047.173 423.61c-3.735-20.554 114.773-26.829 109.388-8.155M1047.173 410.197c-3.735-20.555 114.773-26.83 109.388-8.155M1047.173 396.783c-3.735-20.555 114.773-26.83 109.388-8.155M1047.173 381.432c-3.735-20.555 114.773-26.83 109.388-8.155" stroke-width="4.00017345"/></g></g><path d="M1045.096 625.506c-12.814 1.875-27.137 4.349-30.55 2.112-4.378-2.868-8.376-10.251-8.376-16.927 0-8.21 1.302-13.558 8.025-17.398 3.43-1.959 7.156-3.252 6.17-3.543-.89-.263-8.318-1.744-16.508-3.293-9.145-1.729-16.007-3.632-17.784-4.933-4.414-3.234-8.446-8.736-8.448-16.038-.003-7.988 2.786-15.834 8.175-19.164 2.159-1.334 4.448-2.842 5.677-1.583-.022-.409-2.606-2.494-5.742-4.633-3.137-2.14-8.078-5.812-9.963-8.161-2.863-3.567-4.391-6.328-4.344-11.115-.489-17.306 13.767-31.48 31.193-30.568l10.26 2.969-5.113-4.374c-11.537-9.869-12.778-24.818-3.145-35.762.977-1.589 2.108-2.945 3.378-4.08a16.868 16.868 0 0 1 4.207-2.755c1.53-.705 3.182-1.201 4.94-1.5 1.758-.299 3.622-.4 5.577-.316 1.954.084 3.999.354 6.117.797 7.075 4.923 5.901 14.741 37.497 16.12 5.23 4.037 26.092 6.02 32.133 8.694 11.118 6.804 15.73 21.433 12.047 29.974-1.97 4.69-2.716 5.51-.724 8.245 8.606 17.632 2.55-5.18 10.205 16.683 1.041 2.99-7.054 14.732-6.331 17.726.723 2.994 1.984 3.868 5.32 10.166 1.27 25.6-6.02 19.685-12.27 26.065-1.35 2.663 12.765 6.499 4.676 14.56-2.221 2.215-3.983 4.976-6.386 7.34-16.575 8.905-22.766 8.373-39.38 17.38-4.896 1.484-14.933 6.107-20.533 7.312z" fill="#fca" stroke="#fca" stroke-width="3.00006408" stroke-linecap="round"/><g stroke="#000" stroke-width="9.404" fill="none" stroke-linecap="round"><path d="M1030.04 445.38c5.696 4.33 12.077 8.66 12.077 8.66 5.696 2.848 13.33 5.697 19.141 6.608l12.989 1.823c11.393 1.823 21.078 6.153 21.078 6.153 8.317 3.532 10.824 6.38 10.824 6.38 10.413 12.035 10.056 20.627 2.962 33.042 2.051 1.14 3.831 1.772 5.925 4.785 8.066 11.608 5.68 20.887-1.367 29.852 0 0 4.862 3.847 5.924 6.608 1.998 5.191 2.03 8.313 1.98 10.787-.125 6.189-1.9 10.74-5.398 14.507-2.362 2.543-9.57 4.101-9.57 4.101 9.815 4.956 10.756 13.059-.355 24.127-14.75 7.646-24.49 10.276-39.206 16.796l-21.403 6.986-17.725 3.474c-12.637-.824-18.986-1.293-23.589-16.25 0 0-.975-8.966 1.823-14.58 5.053-8.825 13.728-9.92 13.728-9.92s-23.836-3.798-34.31-7.02c-8.784-6.528-9.88-13.36-8.047-25.462 1.427-5.939 5.594-10.105 11.855-13.304 0 0-.893-1.174-10.56-7.136-12.945-12.727-6.283-29.052-4.96-30.814 13.039-17.178 22.714-17.216 35.683-14.343-11.903-9.528-14.89-19.061-10.6-30.416 2.99-6.71 12.113-19.482 23.385-18.345 3.266.49 5.647 1.704 7.715 2.902z" stroke-width="1.9999363800000003"/><path d="M1007.877 490.848c12.46 6.033 22.239 10.94 35.223 14.358l22.488 2.384 19.825 1.367 15.04.912c5.81.456 9.342-1.595 9.342-1.595M989.806 543.882l50.716 9.055s8.517.528 12.76.228c8.135-.575 19.443-3.003 24.155-3.874 10.945-2.023 21.738-2.585 36.004-6.039M1015.911 589.624s18.38 1.797 27.573 1.368c11.192-.523 24.74-2.888 33.27-4.786 8.529-1.897 12.097-4.113 18.001-5.469 5.904-1.356 11.964-1.823 11.964-1.823" stroke-width="3.00006408"/></g><path d="M1104.31 506.906c-6.836-.227-13.33-.57-23.243-2.734-5.81-2.848-7.064-3.076-8.659-9.57 0-2.735.456-6.495 2.848-9.571 4.565-3.62 12.67-5.818 26.775-4.558 6.005 8.143 7.173 17.503 2.28 26.433zM1081.523 524.225c5.472-6.188 15.803-10.003 22.787-10.938 11.46 4.878 12.202 15.512 6.722 27.003-11.28 2.734-22.787 2.962-26.433 2.05-6.064-4.761-6.46-11.333-3.076-18.115zM1085.169 566.381c-.728-3.93.342-9.798 2.734-12.077 5.899-3.72 11.748-5.666 20.509-7.292 9.185 5.878 8.246 14.34 4.557 25.522-9.272 1.777-14.197 1.918-23.243 0-1.937-1.253-4.11-3.744-4.557-6.153zM1088.592 585.322c6.44-2.227 10.252-3.738 15.474-3.968 6.94 2.385 7.014 7.655 3.868 13.761-6.299 3.085-8.24 2.453-15.322 4.232-7.993 1.47-9.49-2.962-9.539-4.985-.06-2.497-1.145-5.036 5.519-9.04z" fill="#ccc" stroke="#000" stroke-width="1.9999363800000003"/><text style="line-height:125%" x="-766.241" y="144.036" transform="matrix(-1.53724 0 0 .65052 0 0)" font-size="168.228" font-weight="400" letter-spacing="0" word-spacing="0" fill="navy" stroke="navy" font-family="Sans"><tspan x="-766.241" y="144.036">-</tspan></text><path fill="#fff" stroke="#fff" stroke-width="2" stroke-linecap="round" d="M69.949 8.835h574.007v1034.691H69.949z"/><text transform="matrix(-1 0 0 1 0 0)" style="line-height:125%" x="-432.168" y="993.023" font-size="109.435" font-weight="400" letter-spacing="0" word-spacing="0" fill="maroon" stroke="maroon" font-family="Sans"><tspan x="-432.168" y="993.023">+</tspan></text><path d="M386.11 94.36l1.062 254.395M385.47 679.29l.64 218.513" fill="#333" stroke="#000" stroke-width="4"/><text transform="matrix(-1.53724 0 0 .65052 0 0)" y="144.036" x="-281.66" style="line-height:125%" font-size="168.228" font-weight="400" letter-spacing="0" word-spacing="0" fill="navy" stroke="navy" font-family="Sans"><tspan y="144.036" x="-281.66">-</tspan></text><path d="M411.823 655.19c.262 17.1-104.813 13.798-109.741-5.259" fill="none" stroke="#b3b3b3" stroke-width="4" stroke-linecap="round"/><path d="M385.47 679.29s-78.106 3.112-83.035-15.945" fill="none" stroke="#000" stroke-width="4" stroke-linecap="round"/><path d="M411.823 641.692c.262 17.1-104.813 13.798-109.741-5.259M411.823 629.136c.262 17.1-104.813 13.798-109.741-5.26M411.823 616.663c.262 17.101-104.813 13.798-109.741-5.259M411.823 603.25c.262 17.1-104.813 13.797-109.741-5.26M411.823 589.836c.262 17.1-104.813 13.797-109.741-5.26M411.823 576.422c.262 17.1-104.813 13.798-109.741-5.26M411.823 563.008c.262 17.1-104.813 13.798-109.741-5.26M411.823 549.594c.262 17.1-104.813 13.798-109.741-5.259M411.823 536.18c.262 17.1-104.813 13.798-109.741-5.259M411.823 522.766c.262 17.101-104.813 13.798-109.741-5.259M411.823 509.352c.262 17.101-104.813 13.798-109.741-5.259M411.823 455.697c.262 17.1-104.813 13.798-109.741-5.259M411.823 373.277c.262 17.1-104.813 13.798-109.741-5.26M411.823 415.455c.262 17.101-104.813 13.798-109.741-5.258M411.823 386.69c.262 17.101-104.813 13.799-109.741-5.258M411.823 442.283c.262 17.1-104.813 13.798-109.741-5.259M411.823 469.11c.262 17.102-104.813 13.799-109.741-5.258M411.823 428.87c.262 17.1-104.813 13.797-109.741-5.26M411.823 402.042c.262 17.1-104.813 13.797-109.741-5.26M411.823 482.525c.262 17.1-104.813 13.798-109.741-5.26M411.823 495.939c.262 17.1-104.813 13.797-109.741-5.26" fill="none" stroke="#b3b3b3" stroke-width="4" stroke-linecap="round"/><g fill="none" stroke-width="3" stroke="#a0892c"><path d="M567.223 513.552c0 281.835-204.54 305.513-204.54 145.245v-290.49c0-158.555 204.54-136.59 204.54 145.245z"/><path d="M531.937 513.98c0 251.85-161.04 270.019-161.04 143.377V370.604c0-126.276 161.04-108.472 161.04 143.377z"/><path d="M495.508 513.98c0 238.636-115.448 217.963-115.448 141.234V370.962c0-76.277 115.448-95.616 115.448 143.019z"/><path d="M457.651 513.98c0 219.206-69.556 172.632-69.556 139.806V373.234c0-35.72 69.556-78.459 69.556 140.747z"/></g><g stroke="#a0892c"><g fill="none" stroke-width="3"><path d="M146.683 513.552c0 281.835 204.54 305.513 204.54 145.245v-290.49c0-158.555-204.54-136.59-204.54 145.245z"/><path d="M181.969 513.98c0 251.85 161.04 270.019 161.04 143.377V370.604c0-126.276-161.04-108.472-161.04 143.377z"/><path d="M218.397 513.98c0 238.636 115.45 217.963 115.45 141.234V370.962c0-76.277-115.45-95.616-115.45 143.019z"/><path d="M256.255 513.98c0 219.206 69.555 172.632 69.555 139.806V373.234c0-35.72-69.555-78.459-69.555 140.747z"/></g></g><path d="M356.953 806.628V221.214" fill="none" stroke="#a0892c" stroke-width="3"/><path d="M302.183 368.018c-1.485-24.07 84.989-19.263 84.989-19.263M302.257 649.931c-3.734-20.554 114.774-26.83 109.389-8.155M302.435 663.345c-3.735-20.554 114.596-26.83 109.21-8.155M302.257 490.68c-3.734-20.555 114.774-26.83 109.389-8.155M302.257 477.266c-3.734-20.555 114.774-26.83 109.389-8.155M302.257 463.852c-3.734-20.554 114.774-26.83 109.389-8.155M302.257 450.438c-3.734-20.554 114.774-26.83 109.389-8.155M302.257 437.024c-3.734-20.554 114.774-26.829 109.389-8.155M302.257 637.375c-3.734-20.555 114.774-26.83 109.389-8.155M302.257 624.818c-3.734-20.554 114.774-26.83 109.389-8.155M302.257 611.404c-3.734-20.554 114.774-26.829 109.389-8.155M302.257 597.99c-3.734-20.554 114.774-26.829 109.389-8.154M302.257 584.577c-3.734-20.555 114.774-26.83 109.389-8.155M302.257 571.163c-3.734-20.555 114.774-26.83 109.389-8.155M302.257 557.749c-3.734-20.554 114.774-26.83 109.389-8.155M302.257 544.335c-3.734-20.554 114.774-26.83 109.389-8.155M302.257 530.921c-3.734-20.554 114.774-26.829 109.389-8.155M302.257 517.507c-3.734-20.554 114.774-26.829 109.389-8.155M302.257 504.093c-3.734-20.554 114.774-26.829 109.389-8.154M302.257 423.61c-3.734-20.554 114.774-26.829 109.389-8.155M302.257 410.197c-3.734-20.555 114.774-26.83 109.389-8.155M302.257 381.432c-3.734-20.555 114.774-26.83 109.389-8.155M302.257 396.783c-3.734-20.555 114.774-26.83 109.389-8.155" fill="none" stroke="#000" stroke-width="4" stroke-linecap="round"/><use transform="matrix(7.18007 0 0 7.18007 -1274.119 -751.352)" y="134.765" x="223.432" xlink:href="#a" width="1488.189" height="1052.362" fill="#f55" stroke="navy"/><use height="1052.362" width="1488.189" transform="matrix(7.18007 0 0 7.18007 -1267.163 -104.299)" xlink:href="#b" x="223.432" y="134.765" fill="#37c837" stroke="navy"/><path d="M361.628 764.283l-4.675-.002-4.676-.002 2.34-4.048 2.34-4.048 2.335 4.05zM361.628 280.294l-4.675-.002-4.676-.002 2.34-4.048 2.34-4.048 2.335 4.05zM434.539 673.143l-4.517 1.209-4.516 1.208 1.212-4.516 1.212-4.516 3.304 3.308zM279.001 673.143l4.517 1.209 4.517 1.208-1.212-4.516-1.212-4.516-3.305 3.308zM456.362 694.6l-4.516 1.209-4.517 1.208 1.212-4.516 1.212-4.515 3.305 3.307zM476.608 714.766l-4.516 1.209-4.517 1.208 1.212-4.516 1.212-4.516 3.305 3.308zM497.786 735.73l-4.517 1.208-4.517 1.209 1.212-4.516 1.212-4.516 3.305 3.308zM216.237 735.73l4.517 1.208 4.517 1.209-1.212-4.516-1.212-4.516-3.305 3.308zM236.761 714.766l4.517 1.209 4.516 1.208-1.212-4.516-1.212-4.516-3.304 3.308zM257.452 694.6l4.517 1.209 4.516 1.208-1.212-4.516-1.212-4.515-3.304 3.307zM425.228 357.32l4.516 1.208 4.517 1.208-1.212-4.516-1.212-4.515-3.305 3.307zM446.405 336.356l4.517 1.208 4.516 1.208-1.212-4.515-1.212-4.516-3.304 3.307zM488.475 294.733l4.516 1.208 4.517 1.208-1.212-4.515-1.212-4.516-3.305 3.307zM466.65 316.19l4.518 1.208 4.516 1.209-1.212-4.516-1.212-4.516-3.304 3.308zM288.904 357.32l-4.516 1.208-4.517 1.208 1.212-4.516 1.212-4.515 3.305 3.307zM267.727 336.356l-4.517 1.208-4.516 1.208 1.212-4.515 1.212-4.516 3.304 3.307zM225.658 294.733l-4.517 1.208-4.517 1.208 1.212-4.515 1.212-4.516 3.305 3.307zM247.481 316.19l-4.517 1.208-4.516 1.209 1.212-4.516 1.212-4.516 3.304 3.308z" fill="#a0892c" stroke="#a0892c" stroke-width="3.0000123199999997"/></svg>