<svg xmlns:ns0="http://www.iki.fi/pav/software/textext/" xmlns="http://www.w3.org/2000/svg" xmlns:xlink="http://www.w3.org/1999/xlink" width="744.094" height="1052.362"><title>Magnetischer Fluss durch eine Leiterschleife</title><defs><marker orient="auto" id="g" overflow="visible"><path d="M-4 0l-2 2 7-2-7-2 2 2z" fill-rule="evenodd" stroke="#a0892c" stroke-width=".4pt" fill="#a0892c"/></marker><marker orient="auto" id="e" overflow="visible"><path d="M-4 0l-2 2 7-2-7-2 2 2z" fill-rule="evenodd" stroke="#a0892c" stroke-width=".4pt" fill="#a0892c"/></marker><marker orient="auto" id="f" overflow="visible"><path d="M-4 0l-2 2 7-2-7-2 2 2z" fill-rule="evenodd" stroke="#a0892c" stroke-width=".4pt" fill="#a0892c"/></marker><marker orient="auto" id="c" overflow="visible"><path d="M-4 0l-2 2 7-2-7-2 2 2z" fill-rule="evenodd" stroke="#a0892c" stroke-width=".4pt" fill="#a0892c"/></marker><marker id="d" orient="auto" overflow="visible"><path d="M-4 0l-2 2 7-2-7-2 2 2z" fill-rule="evenodd" stroke="#a0892c" stroke-width=".4pt" fill="#a0892c"/></marker></defs><path fill="#fff" d="M16.401 305.071h711.292v442.22H16.401z"/><g transform="matrix(3 0 0 3 -70.017 476.191)" ns0:preamble="/home/waldgeist/data/homepage/inkscape-preamble.tex" ns0:text="$U_{\\mathrm{i}}$" fill="#d40000"><defs><symbol id="a" overflow="visible"><path d="M6.328-5.766c.11-.406.281-.703 1.078-.734.047 0 .172-.016.172-.203 0 0 0-.11-.125-.11-.328 0-.687.032-1.016.032-.343 0-.718-.032-1.046-.032-.063 0-.172 0-.172.204 0 .109.093.109.172.109.578.016.687.219.687.438 0 .03-.031.187-.031.203L5.14-2.297C4.812-.953 3.656-.094 2.656-.094c-.672 0-1.203-.437-1.203-1.297 0-.015 0-.328.11-.765l.953-3.89c.093-.36.109-.454.843-.454.266 0 .344 0 .344-.203 0-.11-.11-.11-.14-.11-.282 0-1 .032-1.282.032-.281 0-1-.032-1.281-.032-.078 0-.188 0-.188.204 0 .109.079.109.282.109.015 0 .203 0 .375.016.172.03.265.03.265.171 0 .047-.109.47-.171.704l-.22.875C1.25-4.344.782-2.47.735-2.266c-.062.266-.062.422-.062.579 0 1.203.906 1.906 1.953 1.906 1.25 0 2.484-1.125 2.813-2.438zm0 0"/></symbol><symbol id="b" overflow="visible"><path d="M1.469-4.297a.413.413 0 0 0-.407-.406.4.4 0 0 0-.39.406.4.4 0 0 0 .39.406.394.394 0 0 0 .407-.406zM.406-3v.25c.438 0 .5.047.5.39v1.813c0 .297-.062.297-.515.297V0c.015 0 .5-.031.78-.031.25 0 .5.015.735.031v-.25c-.406 0-.468 0-.468-.297v-2.531zm0 0"/></symbol></defs><g fill="#000"><use y="83.403" x="118.801" xlink:href="#a" width="100%" height="100%"/><use y="84.898" x="125.603" xlink:href="#b" width="100%" height="100%"/></g></g><path d="M269.508 369.512l291.15 1.146M183.437 580.346l86.071-210.834" style="isolation:auto;mix-blend-mode:normal" color="#000" overflow="visible" fill="none" stroke="#000" stroke-width="5.669" stroke-linecap="round" stroke-linejoin="round"/><g stroke="#a0892c"><path d="M317.155 738.816V437.654" style="isolation:auto;mix-blend-mode:normal" color="#000" overflow="visible" fill="none" stroke-width="5.669" stroke-linecap="round" stroke-linejoin="round" marker-mid="url(#c)" transform="translate(169.798 -112.164)"/><path d="M486.96 470.81l3.619 6.28 3.617 6.278-7.246-.006-7.247-.006 3.629-6.273z" fill="#a0892c" stroke-width="4.6498608"/><path style="isolation:auto;mix-blend-mode:normal" d="M317.155 738.532V437.37" color="#000" overflow="visible" fill="none" stroke-width="5.669" stroke-linecap="round" stroke-linejoin="round" marker-mid="url(#d)" transform="translate(-60.003 -113.018)"/><path d="M257.16 469.957l3.617 6.279 3.618 6.279-7.246-.006-7.247-.007 3.629-6.272z" fill="#a0892c" stroke-width="4.6498608"/><path style="isolation:auto;mix-blend-mode:normal" d="M317.155 738.812V437.65" color="#000" overflow="visible" fill="none" stroke-width="5.669" stroke-linecap="round" stroke-linejoin="round" marker-mid="url(#e)" transform="translate(54.897 -112.177)"/><path d="M372.06 470.798l3.618 6.279 3.618 6.279-7.247-.006-7.246-.007 3.628-6.272z" fill="#a0892c" stroke-width="4.6498608"/><g><path d="M317.155 738.532V437.37" style="isolation:auto;mix-blend-mode:normal" color="#000" overflow="visible" fill="none" stroke-width="5.669" stroke-linecap="round" stroke-linejoin="round" marker-mid="url(#f)" transform="translate(112.348 -113.018)"/><path d="M429.51 469.957l3.618 6.279 3.618 6.279-7.246-.006-7.247-.007 3.629-6.272z" fill="#a0892c" stroke-width="4.6498608"/></g><g><path style="isolation:auto;mix-blend-mode:normal" d="M317.155 738.816V437.654" color="#000" overflow="visible" fill="none" stroke-width="5.669" stroke-linecap="round" stroke-linejoin="round" marker-mid="url(#g)" transform="translate(-2.553 -112.164)"/><path d="M314.61 470.81l3.618 6.28 3.618 6.278-7.247-.006-7.247-.006 3.63-6.273z" fill="#a0892c" stroke-width="4.6498608"/></g></g><path style="isolation:auto;mix-blend-mode:normal" d="M183.437 580.346l130.836.515m57.565.227l102.748.404M474.586 581.492l86.071-210.834M270.693 692.212l43.904-111.356M328.15 692.444l43.903-111.356" color="#000" overflow="visible" fill="none" stroke="#000" stroke-width="5.669" stroke-linecap="round" stroke-linejoin="round"/><circle r="15.418" cy="692.444" cx="328.15" fill="#fff" stroke="#000" stroke-width="2.835" stroke-linecap="round" stroke-linejoin="round"/><circle cx="270.693" cy="692.212" r="15.418" fill="#fff" stroke="#000" stroke-width="2.835" stroke-linecap="round" stroke-linejoin="round"/></svg>