<svg xmlns:ns0="http://www.iki.fi/pav/software/textext/" xmlns="http://www.w3.org/2000/svg" xmlns:xlink="http://www.w3.org/1999/xlink" width="1052.362" height="744.094"><title>Aenderung des magnetischen Flusses durch Rotation</title><defs><marker orient="auto" id="g" overflow="visible"><path d="M-4 0l-2 2 7-2-7-2z" fill="#a0892c" fill-rule="evenodd" stroke="#a0892c" stroke-width=".5332"/></marker><marker orient="auto" id="e" overflow="visible"><path d="M-4 0l-2 2 7-2-7-2z" fill="#a0892c" fill-rule="evenodd" stroke="#a0892c" stroke-width=".5332"/></marker><marker orient="auto" id="f" overflow="visible"><path d="M-4 0l-2 2 7-2-7-2z" fill="#a0892c" fill-rule="evenodd" stroke="#a0892c" stroke-width=".5332"/></marker><marker orient="auto" id="c" overflow="visible"><path d="M-4 0l-2 2 7-2-7-2z" fill="#a0892c" fill-rule="evenodd" stroke="#a0892c" stroke-width=".5332"/></marker><marker id="d" orient="auto" overflow="visible"><path d="M-4 0l-2 2 7-2-7-2z" fill="#a0892c" fill-rule="evenodd" stroke="#a0892c" stroke-width=".5332"/></marker></defs><g transform="translate(0 -308.268)"><path fill="#fff" d="M8.655 433.659h1035.053v452.609H8.655z"/><g transform="matrix(2.63658 0 0 2.63658 -133.009 636.381)" ns0:preamble="/home/waldgeist/data/homepage/inkscape-preamble.tex" ns0:text="$U_{\\mathrm{i}}$" fill="#d40000"><defs><symbol id="a" overflow="visible"><path d="M6.328-5.766c.11-.406.281-.703 1.078-.734.047 0 .172-.016.172-.203 0 0 0-.11-.125-.11-.328 0-.687.032-1.016.032-.343 0-.718-.032-1.046-.032-.063 0-.172 0-.172.204 0 .109.093.109.172.109.578.016.687.219.687.438 0 .03-.031.187-.031.203L5.14-2.297C4.812-.953 3.656-.094 2.656-.094c-.672 0-1.203-.437-1.203-1.297 0-.015 0-.328.11-.765l.953-3.89c.093-.36.109-.454.843-.454.266 0 .344 0 .344-.203 0-.11-.11-.11-.14-.11-.282 0-1 .032-1.282.032-.281 0-1-.032-1.281-.032-.078 0-.188 0-.188.204 0 .109.079.109.282.109.015 0 .203 0 .375.016.172.03.265.03.265.171 0 .047-.109.47-.171.704l-.22.875C1.25-4.344.782-2.47.735-2.266c-.062.266-.062.422-.062.579 0 1.203.906 1.906 1.953 1.906 1.25 0 2.484-1.125 2.813-2.438zm0 0"/></symbol><symbol id="b" overflow="visible"><path d="M1.469-4.297a.413.413 0 0 0-.407-.406.4.4 0 0 0-.39.406.4.4 0 0 0 .39.406.394.394 0 0 0 .407-.406zM.406-3v.25c.438 0 .5.047.5.39v1.813c0 .297-.062.297-.515.297V0c.015 0 .5-.031.78-.031.25 0 .5.015.735.031v-.25c-.406 0-.468 0-.468-.297v-2.531zm0 0"/></symbol></defs><g fill="#000"><use y="83.403" x="118.801" xlink:href="#a" width="100%" height="100%"/><use y="84.898" x="125.603" xlink:href="#b" width="100%" height="100%"/></g></g><path d="M165.386 542.625l255.88 1.007M89.742 727.918l75.644-185.293M345.621 728.926l75.644-185.294M166.428 826.233l38.585-97.866M216.924 826.436l38.585-97.865" style="isolation:auto;mix-blend-mode:normal" color="#000" overflow="visible" fill="none" stroke="#000" stroke-width="4.983" stroke-linecap="round" stroke-linejoin="round"/><circle r="13.55" cy="826.436" cx="216.924" fill="#fff" stroke="#000" stroke-width="2.491" stroke-linecap="round" stroke-linejoin="round"/><circle cx="166.428" cy="826.233" r="13.55" fill="#fff" stroke="#000" stroke-width="2.491" stroke-linecap="round" stroke-linejoin="round"/><path style="isolation:auto;mix-blend-mode:normal" d="M89.742 727.918l114.986.453m50.592.199l90.301.356" color="#000" overflow="visible" fill="none" stroke="#000" stroke-width="4.983" stroke-linecap="round" stroke-linejoin="round"/><g stroke="#a0892c"><path d="M317.155 738.816V437.654" style="isolation:auto;mix-blend-mode:normal" color="#000" overflow="visible" fill="none" stroke-width="5.669" stroke-linecap="round" stroke-linejoin="round" marker-mid="url(#c)" transform="matrix(.87886 0 0 .99892 77.755 48.743)"/><path d="M-707.107 1620.068l-5.249-9.091-5.249-9.092h20.996l-5.249 9.091z" transform="matrix(-.60668 -.0006 .00052 -.68956 -73.34 1747.797)" fill="#a0892c" stroke-width="6.736"/><path style="isolation:auto;mix-blend-mode:normal" d="M317.155 738.532V437.37" color="#000" overflow="visible" fill="none" stroke-width="5.669" stroke-linecap="round" stroke-linejoin="round" marker-mid="url(#d)" transform="matrix(.87886 0 0 .99892 -124.208 47.89)"/><path transform="matrix(-.60668 -.0006 .00052 -.68956 -275.302 1746.945)" d="M-707.107 1620.068l-5.249-9.091-5.249-9.092h20.996l-5.249 9.091z" fill="#a0892c" stroke-width="6.736"/><path style="isolation:auto;mix-blend-mode:normal" d="M317.155 738.812V437.65" color="#000" overflow="visible" fill="none" stroke-width="5.669" stroke-linecap="round" stroke-linejoin="round" marker-mid="url(#e)" transform="matrix(.87886 0 0 .99892 -23.227 48.73)"/><path transform="matrix(-.60668 -.0006 .00052 -.68956 -174.32 1747.785)" d="M-707.107 1620.068l-5.249-9.091-5.249-9.092h20.996l-5.249 9.091z" fill="#a0892c" stroke-width="6.736"/><path d="M317.155 738.532V437.37" style="isolation:auto;mix-blend-mode:normal" color="#000" overflow="visible" fill="none" stroke-width="5.669" stroke-linecap="round" stroke-linejoin="round" marker-mid="url(#f)" transform="matrix(.87886 0 0 .99892 27.264 47.89)"/><path d="M-707.107 1620.068l-5.249-9.091-5.249-9.092h20.996l-5.249 9.091z" transform="matrix(-.60668 -.0006 .00052 -.68956 -123.83 1746.945)" fill="#a0892c" stroke-width="6.736"/><path style="isolation:auto;mix-blend-mode:normal" d="M317.155 738.816V437.654" color="#000" overflow="visible" fill="none" stroke-width="5.669" stroke-linecap="round" stroke-linejoin="round" marker-mid="url(#g)" transform="matrix(.87886 0 0 .99892 -73.717 48.743)"/><path transform="matrix(-.60668 -.0006 .00052 -.68956 -224.811 1747.797)" d="M-707.107 1620.068l-5.249-9.091-5.249-9.092h20.996l-5.249 9.091z" fill="#a0892c" stroke-width="6.736"/><g><path d="M317.155 738.532V437.37" style="isolation:auto;mix-blend-mode:normal" color="#000" overflow="visible" fill="none" stroke-width="5.669" stroke-linecap="round" stroke-linejoin="round" marker-mid="url(#d)" transform="matrix(.87886 0 0 .99892 -174.699 47.038)"/><path d="M-707.107 1620.068l-5.249-9.091-5.249-9.092h20.996l-5.249 9.091z" transform="matrix(-.60668 -.0006 .00052 -.68956 -325.793 1746.092)" fill="#a0892c" stroke-width="6.736"/></g><g><path style="isolation:auto;mix-blend-mode:normal" d="M317.155 738.532V437.37" color="#000" overflow="visible" fill="none" stroke-width="5.669" stroke-linecap="round" stroke-linejoin="round" marker-mid="url(#d)" transform="matrix(.87886 0 0 .99892 -225.19 46.185)"/><path transform="matrix(-.60668 -.0006 .00052 -.68956 -376.284 1745.24)" d="M-707.107 1620.068l-5.249-9.091-5.249-9.092h20.996l-5.249 9.091z" fill="#a0892c" stroke-width="6.736"/></g><g><path d="M317.155 738.532V437.37" style="isolation:auto;mix-blend-mode:normal" color="#000" overflow="visible" fill="none" stroke-width="5.669" stroke-linecap="round" stroke-linejoin="round" marker-mid="url(#d)" transform="matrix(.87886 0 0 .99892 178.736 50.731)"/><path d="M-707.107 1620.068l-5.249-9.091-5.249-9.092h20.996l-5.249 9.091z" transform="matrix(-.60668 -.0006 .00052 -.68956 27.642 1749.786)" fill="#a0892c" stroke-width="6.736"/></g><g><path style="isolation:auto;mix-blend-mode:normal" d="M317.155 738.532V437.37" color="#000" overflow="visible" fill="none" stroke-width="5.669" stroke-linecap="round" stroke-linejoin="round" marker-mid="url(#d)" transform="matrix(.87886 0 0 .99892 128.246 49.879)"/><path transform="matrix(-.60668 -.0006 .00052 -.68956 -22.848 1748.934)" d="M-707.107 1620.068l-5.249-9.091-5.249-9.092h20.996l-5.249 9.091z" fill="#a0892c" stroke-width="6.736"/></g></g><g fill="#000" ns0:text="$U_{\\mathrm{i}}$" ns0:preamble="/home/waldgeist/data/homepage/inkscape-preamble.tex"><use height="100%" width="100%" xlink:href="#a" x="118.801" y="83.403" transform="matrix(2.63658 0 0 2.63658 370.411 616.381)"/><use height="100%" width="100%" xlink:href="#b" x="125.603" y="84.898" transform="matrix(2.63658 0 0 2.63658 370.411 616.381)"/></g><path style="isolation:auto;mix-blend-mode:normal" d="M826.615 451.01l-1.007 235.88M767.102 598.235l59.513-147.225M766.095 834.114l59.513-147.225" color="#000" overflow="visible" fill="none" stroke="#000" stroke-width="4.983" stroke-linecap="round" stroke-linejoin="round"/><g stroke="#a0892c"><path d="M317.155 738.816V437.654" style="isolation:auto;mix-blend-mode:normal" color="#000" overflow="visible" fill="none" stroke-width="5.669" stroke-linecap="round" stroke-linejoin="round" marker-mid="url(#c)" transform="matrix(.87886 0 0 .99892 619.11 48.743)"/><path d="M-707.107 1620.068l-5.249-9.091-5.249-9.092h20.996l-5.249 9.091z" transform="matrix(-.60668 -.0006 .00052 -.68956 468.016 1747.797)" fill="#a0892c" stroke-width="6.736"/></g><g stroke="#a0892c"><path style="isolation:auto;mix-blend-mode:normal" d="M317.155 738.532V437.37" color="#000" overflow="visible" fill="none" stroke-width="5.669" stroke-linecap="round" stroke-linejoin="round" marker-mid="url(#d)" transform="matrix(.87886 0 0 .99892 417.147 47.89)"/><path transform="matrix(-.60668 -.0006 .00052 -.68956 266.053 1746.945)" d="M-707.107 1620.068l-5.249-9.091-5.249-9.092h20.996l-5.249 9.091z" fill="#a0892c" stroke-width="6.736"/></g><g stroke="#a0892c"><path style="isolation:auto;mix-blend-mode:normal" d="M317.155 738.812V437.65" color="#000" overflow="visible" fill="none" stroke-width="5.669" stroke-linecap="round" stroke-linejoin="round" marker-mid="url(#e)" transform="matrix(.87886 0 0 .99892 518.128 48.73)"/><path transform="matrix(-.60668 -.0006 .00052 -.68956 367.034 1747.785)" d="M-707.107 1620.068l-5.249-9.091-5.249-9.092h20.996l-5.249 9.091z" fill="#a0892c" stroke-width="6.736"/></g><g stroke="#a0892c"><path d="M317.155 738.532V437.37" style="isolation:auto;mix-blend-mode:normal" color="#000" overflow="visible" fill="none" stroke-width="5.669" stroke-linecap="round" stroke-linejoin="round" marker-mid="url(#f)" transform="matrix(.87886 0 0 .99892 568.62 47.89)"/><path d="M-707.107 1620.068l-5.249-9.091-5.249-9.092h20.996l-5.249 9.091z" transform="matrix(-.60668 -.0006 .00052 -.68956 417.525 1746.945)" fill="#a0892c" stroke-width="6.736"/></g><g stroke="#a0892c"><path style="isolation:auto;mix-blend-mode:normal" d="M317.155 738.816V437.654" color="#000" overflow="visible" fill="none" stroke-width="5.669" stroke-linecap="round" stroke-linejoin="round" marker-mid="url(#g)" transform="matrix(.87886 0 0 .99892 467.638 48.743)"/><path transform="matrix(-.60668 -.0006 .00052 -.68956 316.544 1747.797)" d="M-707.107 1620.068l-5.249-9.091-5.249-9.092h20.996l-5.249 9.091z" fill="#a0892c" stroke-width="6.736"/></g><g stroke="#a0892c"><path d="M317.155 738.532V437.37" style="isolation:auto;mix-blend-mode:normal" color="#000" overflow="visible" fill="none" stroke-width="5.669" stroke-linecap="round" stroke-linejoin="round" marker-mid="url(#d)" transform="matrix(.87886 0 0 .99892 366.656 47.038)"/><path d="M-707.107 1620.068l-5.249-9.091-5.249-9.092h20.996l-5.249 9.091z" transform="matrix(-.60668 -.0006 .00052 -.68956 215.562 1746.092)" fill="#a0892c" stroke-width="6.736"/></g><g stroke="#a0892c"><path style="isolation:auto;mix-blend-mode:normal" d="M317.155 738.532V437.37" color="#000" overflow="visible" fill="none" stroke-width="5.669" stroke-linecap="round" stroke-linejoin="round" marker-mid="url(#d)" transform="matrix(.87886 0 0 .99892 316.165 46.185)"/><path transform="matrix(-.60668 -.0006 .00052 -.68956 165.071 1745.24)" d="M-707.107 1620.068l-5.249-9.091-5.249-9.092h20.996l-5.249 9.091z" fill="#a0892c" stroke-width="6.736"/></g><g stroke="#a0892c"><path d="M317.155 738.532V437.37" style="isolation:auto;mix-blend-mode:normal" color="#000" overflow="visible" fill="none" stroke-width="5.669" stroke-linecap="round" stroke-linejoin="round" marker-mid="url(#d)" transform="matrix(.87886 0 0 .99892 720.091 50.731)"/><path d="M-707.107 1620.068l-5.249-9.091-5.249-9.092h20.996l-5.249 9.091z" transform="matrix(-.60668 -.0006 .00052 -.68956 568.997 1749.786)" fill="#a0892c" stroke-width="6.736"/></g><g stroke="#a0892c"><path style="isolation:auto;mix-blend-mode:normal" d="M317.155 738.532V437.37" color="#000" overflow="visible" fill="none" stroke-width="5.669" stroke-linecap="round" stroke-linejoin="round" marker-mid="url(#d)" transform="matrix(.87886 0 0 .99892 669.6 49.879)"/><path transform="matrix(-.60668 -.0006 .00052 -.68956 518.507 1748.934)" d="M-707.107 1620.068l-5.249-9.091-5.249-9.092h20.996l-5.249 9.091z" fill="#a0892c" stroke-width="6.736"/></g><path d="M767.102 598.235l-.453 104.986m-.199 50.592l-.355 80.301M728.064 801.087l38.585-97.866M727.865 851.679l38.585-97.866" style="isolation:auto;mix-blend-mode:normal" color="#000" overflow="visible" fill="none" stroke="#000" stroke-width="4.983" stroke-linecap="round" stroke-linejoin="round"/><g transform="rotate(-90 731.734 830.106)" fill="#fff" stroke="#000" stroke-width="2.491" stroke-linecap="round" stroke-linejoin="round"><circle r="13.55" cy="826.436" cx="760.752"/><circle cx="710.257" cy="826.233" r="13.55"/></g></g></svg>