<svg xmlns="http://www.w3.org/2000/svg" width="1488.189" height="1052.362"><title>Rechte-Hand-Regel (Leiter)</title><path fill="#fff" stroke="#fff" stroke-width="2" stroke-linecap="round" d="M833.747 12.319h574.007V1047.01H833.747z"/><path d="M1209.216 711.23c-2.37-3.257-6.542-9.049-9.269-12.87-7.36-10.316-31.528-28.332-44.451-33.137-11.077-4.118-21.82-6.639-32.752-7.686-15.487-1.483-37.53-8.653-59.742-19.433-13.8-6.697-18.077-7.678-27.496-6.3-12.814 1.875-28.032 1.535-31.446-.702-4.377-2.868-8.375-10.251-8.375-16.927 0-8.21 1.302-13.558 8.025-17.398 3.43-1.959 7.156-3.252 6.17-3.543-.89-.263-8.318-1.744-16.508-3.293-9.145-1.729-16.007-3.633-17.784-4.934-4.414-3.233-8.446-8.735-8.448-16.037-.003-7.989 2.786-15.834 8.175-19.164 2.158-1.335 4.448-2.842 5.677-1.583-.022-.409-2.607-2.494-5.743-4.633-3.136-2.14-8.077-5.812-9.963-8.162-2.862-3.566-4.39-6.328-4.343-11.114-.489-17.306 13.767-31.48 31.193-30.568l10.26 2.969-5.114-4.375c-11.536-9.868-12.777-24.817-3.144-35.76 7.153-8.127 20.362-12.532 50.62-19.064 25.4-5.482 35.108-4.525 64.637 3.513 16.864 4.59 27.555 5.008 38.016 1.484 9.792-3.3 15.272-6.855 16.755-9.626 1.985-3.71 2.644-17.625 1.174-27.954-.79-5.546-3.609-18.622-8-31.537-7.11-20.912-8.908-22.423-8.955-33.147-.061-14.155 1.428-25.807 6.748-38.224 6.318-14.75 12.601-21.03 21.364-19.705 2.518.381 9.336 1.567 9.542 2.437 1.293 5.443 3.99 18.384 5.935 36.31 1.958 16.342 7.282 30.524 9.907 45.995 2.691 15.246 4.473 17.179 13.846 30.926 13.897 20.384 20.002 35.044 22.647 54.386 3.109 22.733 6.158 42.676 7.659 50.091 3.355 16.58 12.015 47.488 14.489 51.709 1.464 2.499 6.433 8.944 11.04 14.322 4.608 5.378 8.658 10.66 9 11.74.392 1.236-11.72 26.752-32.734 68.966-18.346 36.852-33.57 67.217-33.83 67.477-.26.26-2.411-2.192-4.782-5.45z" fill="#fca" stroke="#fca" stroke-width="3.00006408" stroke-linecap="round"/><g stroke="#000" stroke-width="9.404" fill="none"><path d="M1212.495 718.03l-20.052-27.965-29.168-21.876c-30.776-12.89-34.806-9.333-51.15-12.227-17.866-3.163-31.63-10.776-38.176-12.383-4.426-1.086-14.717-7.821-25.674-12.01-9.829-3.384-16.71.73-30.839 1.984-12.637-.824-18.985-1.293-23.588-16.25 0 0-.975-8.966 1.823-14.58 5.053-8.825 13.728-9.92 13.728-9.92s-23.836-3.798-34.31-7.02c-8.785-6.528-9.88-13.36-8.047-25.462 1.427-5.939 5.593-10.105 11.854-13.305 0 0-.892-1.173-10.56-7.135-12.944-12.727-6.282-29.052-4.96-30.814 13.04-17.178 22.715-17.216 35.684-14.344-11.903-9.527-14.891-19.06-10.6-30.415 2.99-6.71 7.377-13.277 24.419-19.434 5.524-2.256 18.781-5.837 41.017-10.026 15.055-3.196 24.487-2.088 38.283.911l28.845 7.77c19.733 2.384 37.348-4.582 42.271-10.196 2.107-3.482 3.333-17.546.141-38.738-1.657-8.26-1.797-6.165-9.966-30.254-3.918-10.097-4.707-14.167-5.69-23.377-.172-10.298 1.786-20.749 3.49-29.168 4.395-12.211 4.857-14.727 9.27-20.964 5.032-7.11 8.547-12.571 24.716-7.236 4.816 13.39 6.923 29.218 6.547 32.869l2.246 18.975 4.719 14.644c3.468 8.14 1.722 15.472 5.947 29.656 0 0 8.848 16.185 12.494 19.831 9.358 12.419 12.423 21.73 18.653 38.283 1.494 10.092 3.978 25.25 3.978 28.896 0 3.646 5.469 35.548 6.38 39.194.912 3.646 6.38 23.699 6.38 23.699 5.314 31.272 15.3 29.656 28.426 50.353z" stroke-width="1.9999363800000003"/><path d="M1023.248 448.865c5.697 4.33 12.078 8.659 12.078 8.659 5.696 2.848 13.33 5.697 19.14 6.608l12.99 1.823c11.393 1.823 21.078 6.153 21.078 6.153 8.317 3.532 10.824 6.38 10.824 6.38 10.412 12.035 10.056 20.627 2.962 33.042 2.051 1.14 3.831 1.772 5.925 4.785 8.066 11.608 5.68 20.887-1.367 29.851 0 0 4.862 3.848 5.924 6.609 1.998 5.19 2.03 8.313 1.98 10.787-.125 6.189-1.9 10.74-5.398 14.507-2.362 2.543-9.57 4.101-9.57 4.101 9.815 4.956 10.756 13.059-.355 24.127-14.751 7.646-24.49 10.276-39.206 16.796l-21.404 6.986" stroke-width="1.9999363800000003" stroke-linecap="round"/><path d="M998.2 494.223c12.46 6.033 25.125 11.05 38.108 14.466l22.488 2.385 19.825 1.367 15.04.912c5.81.455 9.343-1.595 9.343-1.595M979.041 547.039l54.69 9.382s8.517.528 12.76.228c8.134-.576 19.443-3.003 24.155-3.874 10.944-2.023 21.737-2.585 36.004-6.039M1009.12 593.108s18.38 1.797 27.573 1.367c11.191-.522 24.74-2.888 33.27-4.785 8.528-1.897 12.097-4.113 18.001-5.469 5.904-1.356 11.963-1.823 11.963-1.823" stroke-linecap="round" stroke-width="3.00006408"/></g><path d="M1097.519 510.39c-6.836-.228-13.33-.57-23.243-2.734-5.81-2.849-7.064-3.076-8.66-9.57 0-2.735.457-6.495 2.85-9.571 4.563-3.62 12.67-5.818 26.774-4.558 6.004 8.143 7.173 17.503 2.279 26.433zM1074.732 527.709c5.471-6.188 15.803-10.003 22.787-10.938 11.46 4.878 12.202 15.511 6.722 27.003-11.28 2.734-22.787 2.962-26.433 2.05-6.065-4.761-6.46-11.333-3.076-18.115zM1078.378 569.865c-.728-3.93.342-9.798 2.734-12.077 5.898-3.72 11.748-5.666 20.509-7.292 9.185 5.878 8.245 14.34 4.557 25.522-9.272 1.776-14.197 1.917-23.243 0-1.937-1.254-4.11-3.744-4.557-6.153zM1081.8 588.806c6.441-2.227 10.252-3.738 15.475-3.968 6.94 2.385 7.013 7.655 3.867 13.761-6.298 3.085-8.239 2.453-15.321 4.232-7.993 1.47-9.49-2.962-9.539-4.985-.06-2.497-1.145-5.036 5.518-9.04z" fill="#ccc" stroke="#000" stroke-width="1.9999363800000003"/><path d="M1254.26 536.586c-4.68 27.073-17.73 35.914-40.847 46.96M1157.7 576.876c-.506-.244-37.813-10.079-49.933-30.625M1145.397 460.144c11.815-7.43 14.17-14.306 17.783-26.953M1156.172 372.088c7.375-5.686 10.252-4.74 19.45-5.557M1067.097 640.136c.454-3.993.425-8.108-.6-12.47M1063.747 463.938c.639-2.816 2.112-11.644 3.537-20.827M1182.624 682.914c7.463-10.708 13.634-19.774 15.064-32.25.898-7.844 2.06-12.469 3.568-17.858" fill="none" stroke="#000" stroke-width="1.0001277"/><path d="M1120.757 94.892v809.699" fill="#333" stroke="#666" stroke-width="9.597"/><text y="996.507" x="-1166.604" style="line-height:125%" transform="matrix(-1 0 0 1 0 0)" font-size="109.435" font-weight="400" letter-spacing="0" word-spacing="0" fill="maroon" stroke="maroon" font-family="Sans"><tspan y="996.507" x="-1166.604">+</tspan></text><text transform="matrix(-1.53724 0 0 .65052 0 0)" y="149.391" x="-759.424" style="line-height:125%" font-size="168.228" font-weight="400" letter-spacing="0" word-spacing="0" fill="navy" stroke="navy" font-family="Sans"><tspan y="149.391" x="-759.424">-</tspan></text><path fill="#fff" stroke="#fff" stroke-width="2" stroke-linecap="round" d="M80.434 5.351h574.007v1034.691H80.434z"/><path d="M367.444 87.924v809.699" fill="#333" stroke="#666" stroke-width="9.597"/><text transform="matrix(-1 0 0 1 0 0)" style="line-height:125%" x="-413.291" y="989.539" font-size="109.435" font-weight="400" letter-spacing="0" word-spacing="0" fill="maroon" stroke="maroon" font-family="Sans"><tspan x="-413.291" y="989.539">+</tspan></text><text style="line-height:125%" x="-269.38" y="138.68" transform="matrix(-1.53724 0 0 .65052 0 0)" font-size="168.228" font-weight="400" letter-spacing="0" word-spacing="0" fill="navy" stroke="navy" font-family="Sans"><tspan x="-269.38" y="138.68">-</tspan></text><path d="M744.094 101.239v849.885" fill="#b3b3b3" stroke="#b3b3b3" stroke-width="2"/><g stroke="#a0892c"><g stroke-width="3" fill="none" stroke-linecap="round"><path d="M335.886 838.854c0 27.179 22.032 49.211 49.211 49.211s49.211-22.032 49.211-49.21M434.627 827.226c0-27.179-22.032-49.211-49.211-49.211s-49.211 22.032-49.211 49.211" transform="matrix(1.69056 -.17865 .86603 .5 -1005.29 -160.639)"/></g><path d="M285.992 197.498l-4.664-.331-4.664-.332 2.62-3.873 2.618-3.873 2.045 4.204zM448.142 177.004l4.663.331 4.664.332-2.619 3.873-2.619 3.873-2.045-4.205z" fill="purple" stroke-width="6.0000246399999995"/></g><g stroke="#a0892c"><g stroke-width="3" fill="none" stroke-linecap="round"><path d="M335.886 838.854c0 27.179 22.032 49.211 49.211 49.211s49.211-22.032 49.211-49.21M434.627 827.226c0-27.179-22.032-49.211-49.211-49.211s-49.211 22.032-49.211 49.211" transform="matrix(1.69056 -.17865 .86603 .5 -1005.29 450.8)"/></g><path d="M285.992 808.938l-4.664-.332-4.664-.331 2.62-3.874 2.618-3.873 2.045 4.205zM448.142 788.443l4.663.332 4.664.331-2.619 3.873-2.619 3.873-2.045-4.204z" fill="purple" stroke-width="6.0000246399999995"/></g><g stroke="#a0892c"><g stroke-width="3" fill="none" stroke-linecap="round"><path d="M335.886 838.854c0 27.179 22.032 49.211 49.211 49.211s49.211-22.032 49.211-49.21M434.627 827.226c0-27.179-22.032-49.211-49.211-49.211s-49.211 22.032-49.211 49.211" transform="matrix(1.69056 -.17865 .86603 .5 -1005.29 -7.78)"/></g><path d="M285.992 350.358l-4.664-.332-4.664-.331 2.62-3.873 2.618-3.873 2.045 4.204zM448.142 329.864l4.663.331 4.664.332-2.619 3.873-2.619 3.873-2.045-4.205z" fill="purple" stroke-width="6.0000246399999995"/></g><g stroke="#a0892c"><g stroke-width="3" fill="none" stroke-linecap="round"><path d="M335.886 838.854c0 27.179 22.032 49.211 49.211 49.211s49.211-22.032 49.211-49.21M434.627 827.226c0-27.179-22.032-49.211-49.211-49.211s-49.211 22.032-49.211 49.211" transform="matrix(1.69056 -.17865 .86603 .5 -1005.29 297.94)"/></g><path d="M285.992 656.078l-4.664-.332-4.664-.331 2.62-3.873 2.618-3.874 2.045 4.205zM448.142 635.583l4.663.332 4.664.331-2.619 3.873-2.619 3.874-2.045-4.205z" fill="purple" stroke-width="6.0000246399999995"/></g><g stroke="#a0892c"><g stroke-width="3" fill="none" stroke-linecap="round"><path d="M335.886 838.854c0 27.179 22.032 49.211 49.211 49.211s49.211-22.032 49.211-49.21M434.627 827.226c0-27.179-22.032-49.211-49.211-49.211s-49.211 22.032-49.211 49.211" transform="matrix(1.69056 -.17865 .86603 .5 -1005.29 145.08)"/></g><path d="M285.992 503.218l-4.664-.332-4.664-.331 2.62-3.873 2.618-3.873 2.045 4.204zM448.142 482.723l4.663.332 4.664.331-2.619 3.874-2.619 3.873-2.045-4.205z" fill="purple" stroke-width="6.0000246399999995"/></g></svg>