<svg xmlns="http://www.w3.org/2000/svg" width="1052.362" height="744.094"><title>Magnetfeld einer Leiterschleife</title><path style="marker:none" transform="matrix(.99194 -.12668 .49005 .8717 0 -308.268)" color="#000" fill="#fff" stroke="#fff" stroke-width="3.116" overflow="visible" d="M-275.551 598.459h819.456v407.351h-819.456z"/><path transform="matrix(1.69147 0 0 -1.02609 295.717 278.815)" d="M257.589-16.298c0 16.04-13.003 29.042-29.042 29.042-16.04 0-29.042-13.002-29.042-29.042s13.003-29.042 29.042-29.042c16.04 0 29.042 13.003 29.042 29.042z" style="marker:none" color="#000" fill="none" stroke="#a0892c" stroke-width="2.277" stroke-linecap="round" overflow="visible"/><path style="marker:none" d="M756.856-53.016c42.751 39.14 29.355 93.753-29.92 121.982-30.353 14.455-68.555 19.748-105.147 14.568" transform="matrix(1.58015 0 0 1.4104 -412.65 257.311)" color="#000" fill="none" stroke="#a0892c" stroke-width="2.01" stroke-linecap="round" overflow="visible"/><path transform="matrix(-1.58015 0 0 -1.4104 1985.149 463.707)" d="M756.856-53.016c42.751 39.14 29.355 93.753-29.92 121.982-30.353 14.455-68.555 19.748-105.147 14.568" style="marker:none" color="#000" fill="none" stroke="#a0892c" stroke-width="2.01" stroke-linecap="round" overflow="visible"/><path d="M1008.672 231.393L571.36 483.876" fill="none" stroke="#a0892c" stroke-width="3"/><path style="marker:none" d="M231.137 12.628a29.042 29.042 0 0 1-9.979-.84" transform="matrix(1.69147 0 0 -1.02609 295.724 278.815)" color="#000" fill="#a0892c" stroke="#a0892c" stroke-width="2.277" stroke-linecap="round" overflow="visible"/><path style="marker:none" d="M257.589-16.298a29.042 29.042 0 1 1-58.084 0 29.042 29.042 0 1 1 58.084 0z" transform="matrix(1.69147 0 0 1.02609 507.838 438.53)" color="#000" fill="none" stroke="#a0892c" stroke-width="2.277" stroke-linecap="round" overflow="visible"/><g stroke="#666" fill="none" stroke-linecap="round"><path style="marker:none" d="M225.453 316.508c-42.922-22.63-59.371-75.77-36.741-118.693 22.63-42.921 75.77-59.371 118.692-36.741 42.922 22.63 59.371 75.77 36.741 118.692-19.347 36.695-61.723 54.857-101.638 43.562" transform="matrix(1.12312 .1917 .44738 1.6362 382.566 -84.497)" color="#000" stroke-width="6.044" overflow="visible"/><path d="M777.376 476.588v68.797M799.58 491.017v68.798" stroke-width="8"/></g><path d="M782.228 532.417c-5.09-4.697-5.031-4.704-9.746-10.041" fill="#a0892c" stroke="#a0892c" stroke-width="3"/><path transform="matrix(1.58015 0 0 1.4104 -412.65 257.311)" d="M710.083 75.79a172.569 172.569 0 0 1-12.829 3.804" style="marker:none" color="#000" fill="#a0892c" stroke="#a0892c" stroke-width="2.01" stroke-linecap="round" overflow="visible"/><path style="marker:none" d="M781.726 1.994a59.56 59.56 0 0 1-2.651 13.93" transform="matrix(-1.58015 0 0 -1.4104 1985.149 463.707)" color="#000" fill="#a0892c" stroke="#a0892c" stroke-width="2.01" stroke-linecap="round" overflow="visible"/><path style="marker:none" d="M234.962 12.027c-2.52.57-5.104.802-7.685.69" transform="matrix(1.69147 0 0 1.02609 295.717 312.261)" color="#000" fill="#a0892c" stroke="#a0892c" stroke-width="2.277" stroke-linecap="round" overflow="visible"/><path d="M728.16 393.347l-26.644 15.383" fill="#a0892c" stroke="#a0892c" stroke-width="3"/><path transform="matrix(1.69147 0 0 1.02609 507.838 438.53)" d="M231.137 12.628a29.042 29.042 0 0 1-9.979-.84" style="marker:none" color="#000" fill="#a0892c" stroke="#a0892c" stroke-width="2.277" stroke-linecap="round" overflow="visible"/><path d="M846.096 427.144l-2.85-3.706-2.851-3.706 4.634-.616 4.635-.616-1.784 4.322zM942.615 416.491l2.908 3.662 2.907 3.661-4.625.687-4.624.687 1.717-4.348zM793.235 350.38l2.335 4.051 2.334 4.051-4.676-.004-4.675-.004 2.341-4.047zM809.447 374.678l2.334 4.052 2.334 4.05-4.675-.003-4.676-.004 2.342-4.047zM778.039 325.485l2.334 4.052 2.334 4.05-4.675-.003-4.675-.004 2.34-4.047zM633.982 290.202l-2.851 3.705-2.851 3.706 4.635.616 4.634.616-1.784-4.322zM730.5 300.854l2.908-3.661 2.908-3.662-4.625-.687-4.625-.687 1.717 4.349z" fill="#a0892c" stroke="#a0892c" stroke-width="3.0000123199999997"/><path style="marker:none" d="M257.589-16.298c0 16.04-13.003 29.042-29.042 29.042-16.04 0-29.042-13.002-29.042-29.042s13.003-29.042 29.042-29.042c16.04 0 29.042 13.003 29.042 29.042z" transform="matrix(1.01321 0 0 1.10435 77.883 524.352)" color="#000" fill="none" stroke="#a0892c" stroke-width="2.836" stroke-linecap="round" overflow="visible"/><path style="marker:none" d="M257.589-16.298c0 16.04-13.003 29.042-29.042 29.042-16.04 0-29.042-13.002-29.042-29.042s13.003-29.042 29.042-29.042c16.04 0 29.042 13.003 29.042 29.042z" transform="matrix(.45742 -.79227 .9564 .55217 273.258 661.076)" color="#000" fill="none" stroke="#a0892c" stroke-width="2.985" stroke-linecap="round" overflow="visible"/><path style="marker:none" d="M257.589-16.298c0 16.04-13.003 29.042-29.042 29.042-16.04 0-29.042-13.002-29.042-29.042s13.003-29.042 29.042-29.042c16.04 0 29.042 13.003 29.042 29.042z" transform="matrix(-.1222 -.45603 1.06672 -.28583 403.013 465.617)" color="#000" fill="none" stroke="#a0892c" stroke-width="4.155" stroke-linecap="round" overflow="visible"/><path style="marker:none" d="M245.467 38.25c0 8.508-13.116 15.405-29.294 15.405-16.18 0-29.295-6.897-29.295-15.405 0-8.507 13.116-15.404 29.295-15.404 16.178 0 29.294 6.897 29.294 15.404z" transform="matrix(.963 -.5217 .2067 .14693 126.127 435.81)" color="#000" fill="none" stroke="#a0892c" stroke-width="6.008" stroke-linecap="round" overflow="visible"/><path transform="matrix(-.21867 -.37875 .9564 -.55217 385.065 369.212)" d="M257.589-16.298c0 16.04-13.003 29.042-29.042 29.042-16.04 0-29.042-13.002-29.042-29.042s13.003-29.042 29.042-29.042c16.04 0 29.042 13.003 29.042 29.042z" style="marker:none" color="#000" fill="none" stroke="#a0892c" stroke-width="4.317" stroke-linecap="round" overflow="visible"/><path transform="matrix(.53533 .53533 -.7809 .7809 147.832 140.125)" d="M257.589-16.298c0 16.04-13.003 29.042-29.042 29.042-16.04 0-29.042-13.002-29.042-29.042s13.003-29.042 29.042-29.042c16.04 0 29.042 13.003 29.042 29.042z" style="marker:none" color="#000" fill="none" stroke="#a0892c" stroke-width="3.281" stroke-linecap="round" overflow="visible"/><path style="marker:none" d="M257.589-16.298c0 16.04-13.003 29.042-29.042 29.042-16.04 0-29.042-13.002-29.042-29.042s13.003-29.042 29.042-29.042c16.04 0 29.042 13.003 29.042 29.042z" transform="matrix(.45742 -.79227 .9564 .55217 74.91 441.244)" color="#000" fill="none" stroke="#a0892c" stroke-width="2.985" stroke-linecap="round" overflow="visible"/><path transform="matrix(1.01321 0 0 1.10435 -8.08 235.973)" d="M257.589-16.298c0 16.04-13.003 29.042-29.042 29.042-16.04 0-29.042-13.002-29.042-29.042s13.003-29.042 29.042-29.042c16.04 0 29.042 13.003 29.042 29.042z" style="marker:none" color="#000" fill="none" stroke="#a0892c" stroke-width="2.836" stroke-linecap="round" overflow="visible"/><path style="marker:none" d="M257.589-16.298c0 16.04-13.003 29.042-29.042 29.042-16.04 0-29.042-13.002-29.042-29.042s13.003-29.042 29.042-29.042c16.04 0 29.042 13.003 29.042 29.042z" transform="matrix(0 -.79186 1.10435 0 176.115 502.863)" color="#000" fill="none" stroke="#a0892c" stroke-width="3.208" stroke-linecap="round" overflow="visible"/><path style="marker:none" d="M257.589-16.298c0 16.04-13.003 29.042-29.042 29.042-16.04 0-29.042-13.002-29.042-29.042s13.003-29.042 29.042-29.042c16.04 0 29.042 13.003 29.042 29.042z" transform="matrix(-.1222 -.45603 1.06672 -.28583 222.347 481.365)" color="#000" fill="none" stroke="#a0892c" stroke-width="4.155" stroke-linecap="round" overflow="visible"/><path style="marker:none" d="M245.467 38.25c0 8.508-13.116 15.405-29.294 15.405-16.18 0-29.295-6.897-29.295-15.405 0-8.507 13.116-15.404 29.295-15.404 16.178 0 29.294 6.897 29.294 15.404z" transform="matrix(.963 -.5217 .2067 .14693 -19.743 525.147)" color="#000" fill="none" stroke="#a0892c" stroke-width="6.008" stroke-linecap="round" overflow="visible"/><path transform="matrix(-.33384 -.33384 .7809 -.7809 317.793 522.722)" d="M257.589-16.298c0 16.04-13.003 29.042-29.042 29.042-16.04 0-29.042-13.002-29.042-29.042s13.003-29.042 29.042-29.042c16.04 0 29.042 13.003 29.042 29.042z" style="marker:none" color="#000" fill="none" stroke="#a0892c" stroke-width="4.155" stroke-linecap="round" overflow="visible"/><g stroke="#666" fill="none" stroke-linecap="round"><path transform="matrix(1.12312 .1917 .44738 1.6362 -143.27 -80.055)" d="M225.453 316.508c-42.922-22.63-59.371-75.77-36.741-118.693 22.63-42.921 75.77-59.371 118.692-36.741 42.922 22.63 59.371 75.77 36.741 118.692-19.347 36.695-61.723 54.857-101.638 43.562" style="marker:none" color="#000" stroke-width="6.044" overflow="visible"/><path d="M251.54 481.03v68.797M273.744 495.46v68.797" stroke-width="8"/></g><path transform="matrix(1.01321 0 0 1.10435 77.883 524.352)" d="M199.507-16.632a29.042 29.042 0 0 1 2.42-11.275" style="marker:none" color="#000" fill="none" stroke="#a0892c" stroke-width="2.836" stroke-linecap="round" overflow="visible"/><path transform="matrix(.45742 -.79227 .9564 .55217 273.258 661.076)" d="M199.785-12.28c-.63-4.51-.191-9.104 1.282-13.413" style="marker:none" color="#000" fill="none" stroke="#a0892c" stroke-width="2.985" stroke-linecap="round" overflow="visible"/><path transform="matrix(0 .79186 -1.10435 0 350.049 231.682)" d="M256.803-23.01a29.042 29.042 0 0 1 .193 12.55" style="marker:none" color="#000" fill="none" stroke="purple" stroke-width="3.208" stroke-linecap="round" overflow="visible"/><g fill="#a0892c" stroke="#a0892c" stroke-width="6.736"><path d="M334.788 455.139l.331-4.664.332-4.664 3.873 2.62 3.873 2.618-4.205 2.045zM389.44 487.005l-.332 4.663-.331 4.664-3.873-2.619-3.873-2.619 4.204-2.045z" stroke-width="3.0000123199999997"/></g><path d="M309.45 474.282l4.155-2.144 4.155-2.144-.22 4.67-.222 4.67-3.934-2.526z" fill="#a0892c" stroke="#a0892c" stroke-width="3.0000123199999997"/><path style="marker:none" d="M257.589-16.298c0 16.04-13.003 29.042-29.042 29.042-16.04 0-29.042-13.002-29.042-29.042s13.003-29.042 29.042-29.042c16.04 0 29.042 13.003 29.042 29.042z" transform="matrix(0 .79186 -1.10435 0 350.066 231.681)" color="#000" fill="none" stroke="#a0892c" stroke-width="3.208" stroke-linecap="round" overflow="visible"/><path transform="matrix(-.1222 -.45603 1.06672 -.28583 403.013 465.617)" d="M200.369-9.267a29.042 29.042 0 0 1-.215-13.134" style="marker:none" color="#000" fill="none" stroke="#a0892c" stroke-width="4.155" stroke-linecap="round" overflow="visible"/><path transform="matrix(.963 -.5217 .2067 .14693 126.127 435.81)" d="M211.717 23.025c4.535-.367 9.17-.169 13.533.579" style="marker:none" color="#000" fill="none" stroke="#a0892c" stroke-width="6.008" stroke-linecap="round" overflow="visible"/><path style="marker:none" d="M256.757-23.199a29.042 29.042 0 0 1 .26 12.638" transform="matrix(-.21867 -.37875 .9564 -.55217 385.065 369.212)" color="#000" fill="none" stroke="#a0892c" stroke-width="4.317" stroke-linecap="round" overflow="visible"/><path style="marker:none" d="M200.97-7.193a29.042 29.042 0 0 1-1.194-13.06" transform="matrix(.53533 .53533 -.7809 .7809 147.832 140.125)" color="#000" fill="none" stroke="#a0892c" stroke-width="3.281" stroke-linecap="round" overflow="visible"/><path style="marker:none" d="M200.375-9.242a29.046 29.046 0 0 1 .003-14.125" transform="matrix(1.01321 0 0 1.10435 -8.08 235.973)" color="#000" fill="none" stroke="#a0892c" stroke-width="2.836" stroke-linecap="round" overflow="visible"/><path transform="matrix(.45742 -.79227 .9564 .55217 74.91 441.244)" d="M201.695-5.234a29.042 29.042 0 0 1-2.174-10.111" style="marker:none" color="#000" fill="none" stroke="#a0892c" stroke-width="2.985" stroke-linecap="round" overflow="visible"/><path transform="matrix(0 -.79186 1.10435 0 176.115 502.863)" d="M201.124-6.738a29.042 29.042 0 0 1-1.35-13.503" style="marker:none" color="#000" fill="none" stroke="#a0892c" stroke-width="3.208" stroke-linecap="round" overflow="visible"/><path transform="matrix(-.1222 -.45603 1.06672 -.28583 222.347 481.365)" d="M200.603-8.386a29.042 29.042 0 0 1-.733-12.502" style="marker:none" color="#000" fill="none" stroke="#a0892c" stroke-width="4.155" stroke-linecap="round" overflow="visible"/><path transform="matrix(.963 -.5217 .2067 .14693 -19.743 525.147)" d="M212.721 22.953a54.815 54.815 0 0 1 11.953.555" style="marker:none" color="#000" fill="none" stroke="#a0892c" stroke-width="6.008" stroke-linecap="round" overflow="visible"/><path style="marker:none" d="M256.993-22.149a29.042 29.042 0 0 1-.303 13.02" transform="matrix(-.33384 -.33384 .7809 -.7809 317.793 522.722)" color="#000" fill="none" stroke="#a0892c" stroke-width="4.155" stroke-linecap="round" overflow="visible"/><path d="M331.897 364.298l1.705-4.354 1.704-4.353 2.918 3.653 2.918 3.653-4.622.7zM315.986 312.29l-4.637-.599-4.636-.599 2.837-3.716 2.837-3.716 1.8 4.315zM396.686 422.58l-1.001 4.567-1.001 4.567-3.455-3.151-3.454-3.151 4.456-1.416zM386.18 366.295l-1.704 4.354-1.705 4.354-2.918-3.653-2.918-3.654 4.623-.7zM322.886 271.051l4.637.6 4.637.598-2.837 3.717-2.838 3.716-1.8-4.315zM330.462 338.244l2.773-3.764 2.774-3.764 1.873 4.283 1.873 4.284-4.647-.52zM355.342 318.524l-2.774 3.764-2.773 3.764-1.873-4.284-1.873-4.284 4.646.52zM286.164 218.201l4.324 1.779 4.324 1.778-3.702 2.856-3.702 2.855-.622-4.634zM254.896 454.396l-4.324-1.779-4.324-1.778 3.702-2.856 3.702-2.855.622 4.634zM340.153 401.615l1.001-4.567 1.002-4.567 3.454 3.15 3.455 3.151-4.456 1.416zM280.945 281.09l-4.324-1.778-4.324-1.778 3.703-2.856 3.702-2.855.622 4.634zM220.934 181.144l3.974 2.464 3.974 2.463-4.12 2.21-4.12 2.21.146-4.674zM226.037 254.804l-3.973-2.463-3.974-2.464 4.12-2.21 4.12-2.209-.146 4.673zM214.362 412.035l-2.506 3.947-2.507 3.947-2.165-4.144-2.165-4.144 4.672.197zM200.172 361.987l2.448 3.983 2.448 3.984-4.674.128-4.673.129 2.225-4.112zM198.783 249.679l-1.778 4.324-1.779 4.323-2.855-3.702-2.855-3.702 4.633-.622zM189.32 306.811l.178 4.672.178 4.672-4.135-2.18-4.136-2.182 3.957-2.491zM127.314 337.514l-.178-4.672-.179-4.672 4.136 2.182 4.135 2.181-3.957 2.49zM179.678 422.992l2.506-3.947 2.506-3.947 2.165 4.144 2.165 4.144-4.671-.197zM202.754 463.626l4.324 1.779 4.324 1.779-3.702 2.855-3.702 2.855-.622-4.634zM129.821 257.154l1.779-4.324 1.779-4.324 2.855 3.703 2.855 3.702-4.634.622zM152.565 401.175l-2.448-3.984-2.449-3.983 4.674-.128 4.674-.129-2.226 4.112zM313.043 538.19l-4.155 2.143-4.155 2.144.221-4.67.221-4.67 3.934 2.526z" fill="#a0892c" stroke="#a0892c" stroke-width="3.0000123199999997"/><path d="M526.181 156.134v435.633" fill="none" stroke="gray" stroke-linecap="round"/><text transform="matrix(-1 0 0 1 0 -308.268)" style="line-height:125%" x="-291.077" y="911.487" font-size="42.161" font-weight="400" letter-spacing="0" word-spacing="0" fill="maroon" stroke="maroon" font-family="Sans"><tspan x="-291.077" y="911.487">+</tspan></text><text transform="matrix(-1.53724 0 0 .65052 0 -308.268)" y="1367.071" x="-174.263" style="line-height:125%" font-size="64.812" font-weight="400" letter-spacing="0" word-spacing="0" fill="navy" stroke="navy" font-family="Sans"><tspan y="1367.071" x="-174.263">-</tspan></text><text y="911.487" x="-816.801" style="line-height:125%" transform="matrix(-1 0 0 1 0 -308.268)" font-size="42.161" font-weight="400" letter-spacing="0" word-spacing="0" fill="maroon" stroke="maroon" font-family="Sans"><tspan y="911.487" x="-816.801">+</tspan></text><text style="line-height:125%" x="-516.256" y="1367.071" transform="matrix(-1.53724 0 0 .65052 0 -308.268)" font-size="64.812" font-weight="400" letter-spacing="0" word-spacing="0" fill="navy" stroke="navy" font-family="Sans"><tspan x="-516.256" y="1367.071">-</tspan></text></svg>