<?xml version="1.0" encoding="UTF-8" standalone="no"?>
<!-- Created with Inkscape (http://www.inkscape.org/) -->

<svg
   xmlns:dc="http://purl.org/dc/elements/1.1/"
   xmlns:cc="http://creativecommons.org/ns#"
   xmlns:rdf="http://www.w3.org/1999/02/22-rdf-syntax-ns#"
   xmlns:svg="http://www.w3.org/2000/svg"
   xmlns="http://www.w3.org/2000/svg"
   xmlns:sodipodi="http://sodipodi.sourceforge.net/DTD/sodipodi-0.dtd"
   xmlns:inkscape="http://www.inkscape.org/namespaces/inkscape"
   width="1488.189"
   height="1052.3622"
   id="svg20453"
   version="1.1"
   inkscape:version="0.48.4 r9939"
   sodipodi:docname="magnetfeld-leiter-rechte-hand-regel.svg">
  <title
     id="title17615">Rechte-Hand-Regel (Leiter)</title>
  <sodipodi:namedview
     id="base"
     pagecolor="#ffffff"
     bordercolor="#666666"
     borderopacity="1.0"
     inkscape:pageopacity="0.0"
     inkscape:pageshadow="2"
     inkscape:zoom="0.38768366"
     inkscape:cx="44.065836"
     inkscape:cy="827.03252"
     inkscape:document-units="px"
     inkscape:current-layer="layer1"
     showgrid="false"
     inkscape:snap-smooth-nodes="false"
     inkscape:object-nodes="true"
     inkscape:window-width="1600"
     inkscape:window-height="1150"
     inkscape:window-x="0"
     inkscape:window-y="0"
     inkscape:window-maximized="1"
     inkscape:snap-global="false"
     showguides="false"
     inkscape:guide-bbox="true"
     inkscape:object-paths="true"
     inkscape:snap-bbox="true"
     inkscape:bbox-nodes="true">
    <sodipodi:guide
       id="guide36641"
       orientation="1052.3622,0"
       position="0.0,0" />
    <sodipodi:guide
       id="guide36643"
       orientation="1052.3622,0"
       position="744.0945,0" />
    <sodipodi:guide
       id="guide36645"
       orientation="1052.3622,0"
       position="1488.189,0" />
    <sodipodi:guide
       id="guide36647"
       orientation="0,1488.189"
       position="0,0.0" />
    <sodipodi:guide
       id="guide36649"
       orientation="0,1488.189"
       position="0,526.1811" />
    <sodipodi:guide
       id="guide36651"
       orientation="0,1488.189"
       position="0,1052.3622" />
  </sodipodi:namedview>
  <defs
     id="defs20455">
    <marker
       style="overflow:visible"
       id="TriangleOutM"
       refX="0"
       refY="0"
       orient="auto"
       inkscape:stockid="TriangleOutM">
      <path
         inkscape:connector-curvature="0"
         transform="scale(0.4,0.4)"
         style="fill-rule:evenodd;stroke:#000000;stroke-width:1pt;marker-start:none"
         d="m 5.77,0 -8.65,5 0,-10 8.65,5 z"
         id="path33893" />
    </marker>
    <marker
       style="overflow:visible"
       id="Arrow2Mend"
       refX="0"
       refY="0"
       orient="auto"
       inkscape:stockid="Arrow2Mend">
      <path
         inkscape:connector-curvature="0"
         transform="scale(-0.6,-0.6)"
         d="M 8.7185878,4.0337352 -2.2072895,0.01601326 8.7185884,-4.0017078 c -1.7454984,2.3720609 -1.7354408,5.6174519 -6e-7,8.035443 z"
         style="font-size:12px;fill-rule:evenodd;stroke-width:0.625;stroke-linejoin:round"
         id="path33774" />
    </marker>
  </defs>
  <metadata
     id="metadata20458">
    <rdf:RDF>
      <cc:Work
         rdf:about="">
        <dc:format>image/svg+xml</dc:format>
        <dc:type
           rdf:resource="http://purl.org/dc/dcmitype/StillImage" />
        <dc:title>Rechte-Hand-Regel (Leiter)</dc:title>
        <cc:license
           rdf:resource="http://creativecommons.org/licenses/by-nc-sa/3.0/" />
        <dc:date>2012-05-03</dc:date>
        <dc:creator>
          <cc:Agent>
            <dc:title>Bernhard Grotz</dc:title>
          </cc:Agent>
        </dc:creator>
        <dc:rights>
          <cc:Agent>
            <dc:title>Bernhard Grotz</dc:title>
          </cc:Agent>
        </dc:rights>
        <dc:publisher>
          <cc:Agent>
            <dc:title>Bernhard Grotz</dc:title>
          </cc:Agent>
        </dc:publisher>
        <dc:language>de-DE</dc:language>
        <dc:subject>
          <rdf:Bag>
            <rdf:li>Physik</rdf:li>
            <rdf:li>Elektrizitaetslehre</rdf:li>
            <rdf:li>Elektromagnetismus</rdf:li>
            <rdf:li>Rechte-Hand-Regel</rdf:li>
            <rdf:li>Magnetfeld</rdf:li>
          </rdf:Bag>
        </dc:subject>
      </cc:Work>
      <cc:License
         rdf:about="http://creativecommons.org/licenses/by-nc-sa/3.0/">
        <cc:permits
           rdf:resource="http://creativecommons.org/ns#Reproduction" />
        <cc:permits
           rdf:resource="http://creativecommons.org/ns#Distribution" />
        <cc:requires
           rdf:resource="http://creativecommons.org/ns#Notice" />
        <cc:requires
           rdf:resource="http://creativecommons.org/ns#Attribution" />
        <cc:prohibits
           rdf:resource="http://creativecommons.org/ns#CommercialUse" />
        <cc:permits
           rdf:resource="http://creativecommons.org/ns#DerivativeWorks" />
        <cc:requires
           rdf:resource="http://creativecommons.org/ns#ShareAlike" />
      </cc:License>
    </rdf:RDF>
  </metadata>
  <g
     transform="translate(0,2.988066e-5)"
     id="layer1"
     inkscape:groupmode="layer"
     inkscape:label="Ebene 1">
    <rect
       style="fill:#ffffff;fill-opacity:1;fill-rule:nonzero;stroke:#ffffff;stroke-width:2;stroke-linecap:round;stroke-linejoin:miter;stroke-miterlimit:4;stroke-opacity:1;stroke-dasharray:none;stroke-dashoffset:0"
       id="rect36467"
       width="574.0072"
       height="1034.6912"
       x="833.7475"
       y="12.319467"
       inkscape:export-filename="/home/waldgeist/data/homepage/pics/physik/elektrizitaet-magnetismus/magnetfeld-leiter-rechte-hand-regel.png"
       inkscape:export-xdpi="150"
       inkscape:export-ydpi="150" />
    <g
       id="g36471"
       transform="matrix(0.31902177,0,0,0.31902177,-384.32174,-1131.2346)"
       inkscape:export-filename="/home/waldgeist/data/homepage/pics/physik/elektrizitaet-magnetismus/magnetfeld-leiter-rechte-hand-regel.png"
       inkscape:export-xdpi="150"
       inkscape:export-ydpi="150">
      <g
         transform="translate(0,-98.855775)"
         id="g36473">
        <path
           style="fill:#ffccaa;fill-opacity:1;fill-rule:nonzero;stroke:#ffccaa;stroke-width:9.4037466;stroke-linecap:round;stroke-linejoin:miter;stroke-miterlimit:4;stroke-opacity:1;stroke-dasharray:none;stroke-dashoffset:0"
           d="m 4995.0748,5874.2121 c -7.4311,-10.209 -20.5049,-28.3639 -29.0528,-40.3443 -23.0698,-32.3336 -98.828,-88.8064 -139.3379,-103.8673 -34.7195,-12.9082 -68.3956,-20.8112 -102.663,-24.0926 -48.5454,-4.6488 -117.6424,-27.1252 -187.2647,-60.915 -43.2557,-20.9933 -56.6663,-24.0659 -86.1897,-19.7473 -40.1674,5.8755 -87.8677,4.8098 -98.5695,-2.2022 -13.7201,-8.9898 -26.2516,-32.1316 -26.2516,-53.0583 0,-25.7367 4.0811,-42.4993 25.154,-54.5345 10.7517,-6.1405 22.432,-10.1948 19.3411,-11.107 -2.7886,-0.8231 -26.0748,-5.4674 -51.7472,-10.3208 -28.6661,-5.4194 -50.1757,-11.3869 -55.7438,-15.4653 -13.8361,-10.1343 -26.4751,-27.3827 -26.4812,-50.2697 -0.01,-25.0418 8.7318,-49.6332 25.6245,-60.0734 6.7662,-4.1818 13.9437,-8.9063 17.7939,-4.9612 -0.069,-1.2808 -8.1689,-7.8161 -17.9991,-14.5228 -9.8302,-6.7066 -25.3208,-18.2187 -31.2298,-25.5823 -8.9719,-11.1802 -13.763,-19.8356 -13.6144,-34.8398 -1.5326,-54.2462 43.1541,-98.6767 97.7776,-95.8168 l 32.1606,9.3056 -16.0296,-13.7117 c -36.1623,-30.9332 -40.052,-77.7923 -9.8562,-112.0965 22.422,-25.4728 63.8264,-39.2813 158.674,-59.7544 79.619,-17.1858 110.0465,-14.1859 202.6093,11.011 52.8601,14.3893 86.3721,15.6973 119.1629,4.6508 30.6954,-10.3405 47.8706,-21.4854 52.5193,-30.1717 6.2241,-11.6297 8.2898,-55.2489 3.6802,-87.6241 -2.4753,-17.385 -11.3112,-58.3731 -25.0749,-98.8554 -22.2873,-65.5521 -27.9252,-70.2872 -28.0712,-103.9037 -0.1926,-44.3694 4.4759,-80.8922 21.1505,-119.8168 19.8048,-46.2317 39.5015,-65.9202 66.9698,-61.7651 7.8915,1.1937 29.2626,4.9125 29.9102,7.6386 4.0525,17.0598 12.5034,57.6269 18.603,113.8138 6.1374,51.2295 22.826,95.6825 31.0538,144.1773 8.4356,47.7909 14.0215,53.8488 43.4001,96.9391 43.5641,63.8965 62.6999,109.8493 70.991,170.4784 9.7447,71.2582 19.3025,133.7731 24.006,157.0162 10.5164,51.9693 37.6644,148.8547 45.4169,162.0834 4.5913,7.8343 20.1645,28.037 34.6071,44.8949 14.4427,16.8578 27.1376,33.4175 28.2109,36.7992 1.2295,3.8737 -36.7346,83.8585 -102.6079,216.1801 -57.5076,115.5173 -105.2258,210.6978 -106.0403,211.5124 -0.8145,0.8144 -7.5608,-6.8719 -14.9919,-17.0808 z"
           id="path36475"
           inkscape:connector-curvature="0"
           sodipodi:nodetypes="csssssssscsscscsscccssssssssssssccssssscscc" />
        <g
           id="g36477"
           transform="translate(1596.3805,423.73062)"
           style="stroke:#000000;stroke-width:9.4037466">
          <path
             style="fill:none;stroke:#000000;stroke-width:6.26916456;stroke-linecap:butt;stroke-linejoin:miter;stroke-miterlimit:4;stroke-opacity:1;stroke-dasharray:none"
             d="m 3408.9741,5471.798 -62.8571,-87.6589 -91.4286,-68.5714 c -96.4696,-40.4061 -109.103,-29.2572 -160.3317,-38.3264 -56.0036,-9.9145 -99.1483,-33.7806 -119.6683,-38.8165 -13.874,-3.4048 -46.1301,-24.516 -80.4753,-37.648 -30.8096,-10.6066 -52.3818,2.2908 -96.6675,6.2194 -39.612,-2.5831 -59.5124,-4.0513 -73.9391,-50.9383 0,0 -3.0567,-28.1016 5.7143,-45.6994 15.8388,-27.6644 43.0305,-31.0969 43.0305,-31.0969 0,0 -74.7165,-11.9039 -107.5465,-22.0054 -27.5366,-20.461 -30.9729,-41.8737 -25.2241,-79.8119 4.4731,-18.6151 17.5325,-31.6745 37.1578,-41.7034 0,0 -2.7977,-3.6791 -33.1023,-22.3669 -40.5748,-39.8945 -19.6909,-91.0649 -15.5451,-96.5896 40.8719,-53.8448 71.1989,-53.9641 111.8512,-44.9602 -37.31,-29.8651 -46.6759,-59.748 -33.2261,-95.3405 9.3745,-21.0317 23.124,-41.6157 76.5437,-60.916 17.3162,-7.0711 58.8709,-18.2966 128.5714,-31.4286 47.1915,-10.0187 76.758,-6.5433 120,2.8571 l 90.4184,24.3575 c 61.8552,7.4701 117.0688,-14.3651 132.5032,-31.9637 6.6019,-10.9147 10.4466,-54.9994 0.4406,-121.4257 -5.193,-25.8896 -5.6326,-19.3241 -31.2404,-94.8354 -12.2794,-31.6474 -14.7545,-44.4071 -17.8361,-73.2755 -0.5376,-32.2804 5.5992,-65.0398 10.9383,-91.4286 13.7807,-38.2787 15.2265,-46.1631 29.0617,-65.7143 15.772,-22.2881 26.7902,-39.4066 77.4746,-22.6838 15.0936,41.9722 21.698,91.5881 20.52,103.0304 l 7.0413,59.4801 14.7907,45.9025 c 10.8716,25.5162 5.3984,48.5002 18.6433,92.9586 0,0 27.7346,50.7354 39.1632,62.1639 29.3321,38.9261 38.9418,68.114 58.4699,120 4.682,31.6334 12.4684,79.1483 12.4684,90.5769 0,11.4286 17.1429,111.4286 20,122.8571 2.8572,11.4286 20,74.2857 20,74.2857 16.6554,98.026 47.9541,92.9595 89.1002,157.8361 z"
             id="path36479"
             inkscape:connector-curvature="0"
             sodipodi:nodetypes="cccsscccccccccccccccccccccscccccccssccc" />
          <path
             style="fill:none;stroke:#000000;stroke-width:6.26916456;stroke-linecap:round;stroke-linejoin:miter;stroke-miterlimit:4;stroke-opacity:1;stroke-dasharray:none"
             d="m 2815.7636,4628.0765 c 17.8571,13.5714 37.8571,27.1428 37.8571,27.1428 17.8571,8.9286 41.7857,17.8572 60,20.7143 l 40.7143,5.7143 c 35.7143,5.7143 66.0714,19.2858 66.0714,19.2858 26.0714,11.0714 33.9286,19.9999 33.9286,19.9999 32.6391,37.7246 31.5225,64.657 9.2857,103.5714 6.4286,3.5714 12.0085,5.5556 18.5714,15 25.2845,36.3858 17.8061,65.4706 -4.2857,93.5715 0,0 15.2416,12.0593 18.5715,20.7143 6.2606,16.2723 6.364,26.0592 6.2066,33.8127 -0.3939,19.4004 -5.9552,33.6666 -16.9209,45.473 -7.4041,7.9717 -30,12.8572 -30,12.8572 30.7671,15.5344 33.7175,40.9323 -1.1117,75.6276 -46.2379,23.9671 -76.7637,32.2109 -122.893,52.6479 l -67.0922,21.8978"
             id="path36481"
             inkscape:connector-curvature="0"
             sodipodi:nodetypes="cccccccscssscccc" />
          <path
             style="fill:none;stroke:#000000;stroke-width:9.4037466;stroke-linecap:round;stroke-linejoin:miter;stroke-opacity:1"
             d="m 2737.249,4770.2553 c 39.0583,18.9121 78.7541,34.6369 119.4529,45.3466 l 70.4902,7.4746 62.1429,4.2857 47.1429,2.8571 c 18.2143,1.4286 29.2857,-5 29.2857,-5"
             id="path36483"
             inkscape:connector-curvature="0"
             sodipodi:nodetypes="cccccc" />
          <path
             style="fill:none;stroke:#000000;stroke-width:9.4037466;stroke-linecap:round;stroke-linejoin:miter;stroke-opacity:1"
             d="m 2677.1921,4935.8111 171.4286,29.4082 c 0,0 26.6977,1.6548 40,0.7143 25.497,-1.8027 60.9433,-9.4126 75.7143,-12.1428 34.3068,-6.3411 68.1384,-8.1011 112.8572,-18.9286"
             id="path36485"
             inkscape:connector-curvature="0"
             sodipodi:nodetypes="ccssc" />
          <path
             style="fill:none;stroke:#000000;stroke-width:9.4037466;stroke-linecap:round;stroke-linejoin:miter;stroke-opacity:1"
             d="m 2771.4779,5080.2193 c 0,0 57.615,5.631 86.4285,4.2857 35.0814,-1.6379 77.5503,-9.0524 104.2857,-15 26.7354,-5.9476 37.9216,-12.892 56.4286,-17.1428 18.507,-4.2508 37.5,-5.7143 37.5,-5.7143"
             id="path36487"
             inkscape:connector-curvature="0"
             sodipodi:nodetypes="cszzc" />
        </g>
        <path
           sodipodi:nodetypes="cccccc"
           inkscape:connector-curvature="0"
           id="path36489"
           d="m 4644.9519,5244.6642 c -21.4286,-0.7143 -41.7857,-1.7857 -72.8571,-8.5714 -18.2143,-8.9286 -22.1429,-9.6429 -27.1429,-30 0,-8.5714 1.4286,-20.3572 8.9286,-30 14.3066,-11.3445 39.7149,-18.2363 83.9286,-14.2857 18.8205,25.5231 22.483,54.8644 7.1428,82.8571 z"
           style="fill:#cccccc;fill-opacity:1;stroke:#000000;stroke-width:6.26916456;stroke-linecap:butt;stroke-linejoin:miter;stroke-miterlimit:4;stroke-opacity:1;stroke-dasharray:none" />
        <path
           sodipodi:nodetypes="ccccc"
           inkscape:connector-curvature="0"
           id="path36491"
           d="m 4573.5233,5298.9499 c 17.1516,-19.3957 49.5367,-31.3535 71.4286,-34.2857 35.9243,15.29 38.2484,48.6224 21.0714,84.6428 -35.3571,8.5714 -71.4285,9.2858 -82.8571,6.4287 -19.0102,-14.9263 -20.2523,-35.527 -9.6429,-56.7858 z"
           style="fill:#cccccc;fill-opacity:1;stroke:#000000;stroke-width:6.26916456;stroke-linecap:butt;stroke-linejoin:miter;stroke-miterlimit:4;stroke-opacity:1;stroke-dasharray:none" />
        <path
           sodipodi:nodetypes="sccccs"
           inkscape:connector-curvature="0"
           id="path36493"
           d="m 4584.952,5431.0928 c -2.2827,-12.3169 1.0714,-30.7143 8.5714,-37.8572 18.4884,-11.6617 36.8246,-17.7612 64.2857,-22.8571 28.7926,18.4256 25.8468,44.9496 14.2857,80 -29.0649,5.5694 -44.5024,6.0113 -72.8572,0 -6.0714,-3.9286 -12.8865,-11.7359 -14.2856,-19.2857 z"
           style="fill:#cccccc;fill-opacity:1;stroke:#000000;stroke-width:6.26916456;stroke-linecap:butt;stroke-linejoin:miter;stroke-miterlimit:4;stroke-opacity:1;stroke-dasharray:none" />
        <path
           sodipodi:nodetypes="ccccsc"
           inkscape:connector-curvature="0"
           id="path36495"
           d="m 4595.6804,5490.4637 c 20.1886,-6.981 32.1361,-11.7168 48.5064,-12.4372 21.7538,7.4756 21.9842,23.9951 12.1231,43.1354 -19.7436,9.6686 -25.8266,7.6888 -48.027,13.2648 -25.0546,4.6053 -29.7463,-9.2835 -29.8994,-15.627 -0.1888,-7.8252 -3.5892,-15.7834 17.2969,-28.336 z"
           style="fill:#cccccc;fill-opacity:1;stroke:#000000;stroke-width:6.26916456;stroke-linecap:butt;stroke-linejoin:miter;stroke-miterlimit:4;stroke-opacity:1;stroke-dasharray:none" />
      </g>
      <path
         sodipodi:nodetypes="cc"
         inkscape:connector-curvature="0"
         id="path36497"
         d="m 5136.2664,5227.9195 c -14.6666,84.8652 -55.5713,112.576 -128.0365,147.1984"
         style="fill:none;stroke:#000000;stroke-width:3.13458228px;stroke-linecap:butt;stroke-linejoin:miter;stroke-opacity:1" />
      <path
         sodipodi:nodetypes="cc"
         inkscape:connector-curvature="0"
         id="path36499"
         d="m 4833.5951,5354.2139 c -1.588,-0.7644 -118.528,-31.5929 -156.5212,-95.9982"
         style="fill:none;stroke:#000000;stroke-width:3.13458228px;stroke-linecap:butt;stroke-linejoin:miter;stroke-opacity:1" />
      <path
         sodipodi:nodetypes="cc"
         inkscape:connector-curvature="0"
         id="path36501"
         d="m 4795.0289,4988.3079 c 37.0353,-23.291 44.4175,-44.845 55.7438,-84.4867"
         style="fill:none;stroke:#000000;stroke-width:3.13458228px;stroke-linecap:butt;stroke-linejoin:miter;stroke-opacity:1" />
      <path
         sodipodi:nodetypes="cc"
         inkscape:connector-curvature="0"
         id="path36503"
         d="m 4828.8046,4712.2895 c 23.1181,-17.8244 32.1347,-14.8568 60.9698,-17.4199"
         style="fill:none;stroke:#000000;stroke-width:3.13458228px;stroke-linecap:butt;stroke-linejoin:miter;stroke-opacity:1" />
      <path
         sodipodi:nodetypes="cc"
         inkscape:connector-curvature="0"
         id="path36505"
         d="m 4549.5921,5552.5083 c 1.4235,-12.5184 1.3303,-25.4159 -1.8786,-39.0923"
         style="fill:none;stroke:#000000;stroke-width:3.13458228px;stroke-linecap:butt;stroke-linejoin:miter;stroke-opacity:1" />
      <path
         sodipodi:nodetypes="cc"
         inkscape:connector-curvature="0"
         id="path36507"
         d="m 4539.0911,5000.2012 c 2.0017,-8.8293 6.6208,-36.501 11.086,-65.284"
         style="fill:none;stroke:#000000;stroke-width:3.13458228px;stroke-linecap:butt;stroke-linejoin:miter;stroke-opacity:1" />
      <path
         sodipodi:nodetypes="csc"
         inkscape:connector-curvature="0"
         id="path36509"
         d="m 4911.7212,5686.5989 c 23.3938,-33.5648 42.7364,-61.9835 47.2173,-101.0909 2.8171,-24.5866 6.4614,-39.085 11.1863,-55.9785"
         style="fill:none;stroke:#000000;stroke-width:3.13458228px;stroke-linecap:butt;stroke-linejoin:miter;stroke-opacity:1" />
    </g>
    <path
       style="fill:#333333;stroke:#666666;stroke-width:9.59723091;stroke-linecap:butt;stroke-linejoin:miter;stroke-opacity:1"
       d="m 1120.7568,94.89216 0,809.69854"
       id="path36511"
       inkscape:connector-curvature="0"
       inkscape:export-filename="/home/waldgeist/data/homepage/pics/physik/elektrizitaet-magnetismus/magnetfeld-leiter-rechte-hand-regel.png"
       inkscape:export-xdpi="150"
       inkscape:export-ydpi="150" />
    <text
       sodipodi:linespacing="125%"
       id="text36513"
       y="996.50714"
       x="-1166.6041"
       style="font-size:109.43502044999999612px;font-style:normal;font-weight:normal;line-height:125%;letter-spacing:0px;word-spacing:0px;fill:#800000;fill-opacity:1;stroke:#800000;font-family:Sans"
       xml:space="preserve"
       transform="scale(-1,1)"
       inkscape:export-filename="/home/waldgeist/data/homepage/pics/physik/elektrizitaet-magnetismus/magnetfeld-leiter-rechte-hand-regel.png"
       inkscape:export-xdpi="150"
       inkscape:export-ydpi="150"><tspan
         y="996.50714"
         x="-1166.6041"
         id="tspan36515"
         sodipodi:role="line"
         style="stroke:#800000;fill:#800000">+</tspan></text>
    <text
       transform="scale(-1.5372373,0.65051766)"
       sodipodi:linespacing="125%"
       id="text36517"
       y="149.39131"
       x="-759.42371"
       style="font-size:168.22758483999999157px;font-style:normal;font-weight:normal;line-height:125%;letter-spacing:0px;word-spacing:0px;fill:#000080;fill-opacity:1;stroke:#000080;font-family:Sans"
       xml:space="preserve"
       inkscape:export-filename="/home/waldgeist/data/homepage/pics/physik/elektrizitaet-magnetismus/magnetfeld-leiter-rechte-hand-regel.png"
       inkscape:export-xdpi="150"
       inkscape:export-ydpi="150"><tspan
         style="stroke:#000080;fill:#000080"
         y="149.39131"
         x="-759.42371"
         id="tspan36519"
         sodipodi:role="line">-</tspan></text>
    <rect
       y="5.3514943"
       x="80.434265"
       height="1034.6912"
       width="574.0072"
       id="rect32812"
       style="fill:#ffffff;fill-opacity:1;fill-rule:nonzero;stroke:#ffffff;stroke-width:2;stroke-linecap:round;stroke-linejoin:miter;stroke-miterlimit:4;stroke-opacity:1;stroke-dasharray:none;stroke-dashoffset:0"
       inkscape:export-filename="/home/waldgeist/data/homepage/pics/physik/elektrizitaet-magnetismus/magnetfeld-leiter-rechte-hand-regel.png"
       inkscape:export-xdpi="150"
       inkscape:export-ydpi="150" />
    <path
       inkscape:connector-curvature="0"
       id="path30189"
       d="m 367.44362,87.924188 0,809.698542"
       style="fill:#333333;stroke:#666666;stroke-width:9.59723091;stroke-linecap:butt;stroke-linejoin:miter;stroke-opacity:1"
       inkscape:export-filename="/home/waldgeist/data/homepage/pics/physik/elektrizitaet-magnetismus/magnetfeld-leiter-rechte-hand-regel.png"
       inkscape:export-xdpi="150"
       inkscape:export-ydpi="150" />
    <text
       transform="scale(-1,1)"
       xml:space="preserve"
       style="font-size:109.43502044999999612px;font-style:normal;font-weight:normal;line-height:125%;letter-spacing:0px;word-spacing:0px;fill:#800000;fill-opacity:1;stroke:#800000;font-family:Sans"
       x="-413.29095"
       y="989.53912"
       id="text5882"
       sodipodi:linespacing="125%"
       inkscape:export-filename="/home/waldgeist/data/homepage/pics/physik/elektrizitaet-magnetismus/magnetfeld-leiter-rechte-hand-regel.png"
       inkscape:export-xdpi="150"
       inkscape:export-ydpi="150"><tspan
         style="stroke:#800000;fill:#800000"
         sodipodi:role="line"
         id="tspan5884"
         x="-413.29095"
         y="989.53912">+</tspan></text>
    <text
       xml:space="preserve"
       style="font-size:168.22758483999999157px;font-style:normal;font-weight:normal;line-height:125%;letter-spacing:0px;word-spacing:0px;fill:#000080;fill-opacity:1;stroke:#000080;font-family:Sans"
       x="-269.38019"
       y="138.67992"
       id="text5874"
       sodipodi:linespacing="125%"
       transform="scale(-1.5372373,0.65051766)"
       inkscape:export-filename="/home/waldgeist/data/homepage/pics/physik/elektrizitaet-magnetismus/magnetfeld-leiter-rechte-hand-regel.png"
       inkscape:export-xdpi="150"
       inkscape:export-ydpi="150"><tspan
         sodipodi:role="line"
         id="tspan5876"
         x="-269.38019"
         y="138.67992"
         style="stroke:#000080;fill:#000080">-</tspan></text>
    <path
       style="fill:#b3b3b3;stroke:#b3b3b3;stroke-width:2;stroke-linecap:butt;stroke-linejoin:miter;stroke-miterlimit:4;stroke-opacity:1;stroke-dasharray:none"
       d="m 744.09448,101.23857 0,849.88498"
       id="path36768"
       inkscape:connector-curvature="0"
       inkscape:export-filename="/home/waldgeist/data/homepage/pics/physik/elektrizitaet-magnetismus/magnetfeld-leiter-rechte-hand-regel.png"
       inkscape:export-xdpi="150"
       inkscape:export-ydpi="150" />
    <g
       id="g6716"
       transform="translate(-0.43548853,0.09824149)"
       inkscape:export-filename="/home/waldgeist/data/homepage/pics/physik/elektrizitaet-magnetismus/magnetfeld-leiter-rechte-hand-regel.png"
       inkscape:export-xdpi="150"
       inkscape:export-ydpi="150"
       style="stroke:#a0892c">
      <g
         style="stroke:#a0892c;stroke-width:3;stroke-miterlimit:4;stroke-dasharray:none"
         transform="matrix(1.6905634,-0.1786533,0.86602541,0.50000001,-1004.8554,-160.7372)"
         id="g36461">
        <path
           style="fill:none;stroke:#a0892c;stroke-width:3;stroke-linecap:round;stroke-linejoin:miter;stroke-miterlimit:4;stroke-opacity:1;stroke-dasharray:none;stroke-dashoffset:0;marker-end:none"
           d="m 335.88585,838.85413 c 0,0 0,0 0,0 l 0,0 c 0,27.17865 22.03265,49.2113 49.2113,49.2113 27.17865,0 49.2113,-22.03265 49.2113,-49.2113"
           id="path36463"
           inkscape:connector-curvature="0" />
        <path
           style="fill:none;stroke:#a0892c;stroke-width:3;stroke-linecap:round;stroke-linejoin:miter;stroke-miterlimit:4;stroke-opacity:1;stroke-dasharray:none;stroke-dashoffset:0;marker-end:none"
           d="m 434.62725,827.22605 c 0,0 0,0 0,0 0,-27.17865 -22.03265,-49.2113 -49.2113,-49.2113 -27.17865,0 -49.2113,22.03265 -49.2113,49.2113"
           id="path36465"
           inkscape:connector-curvature="0" />
      </g>
      <path
         inkscape:transform-center-x="-2.3507742"
         transform="matrix(0.24947048,-0.36894717,0.36894717,0.24947048,-134.89011,-467.6444)"
         inkscape:transform-center-y="0.35289773"
         d="m -707.10675,1620.0679 -5.24891,-9.0914 -5.2489,-9.0914 10.49781,0 10.49781,0 -5.2489,9.0914 z"
         inkscape:randomized="0"
         inkscape:rounded="0"
         inkscape:flatsided="false"
         sodipodi:arg2="2.6179939"
         sodipodi:arg1="1.5707963"
         sodipodi:r2="6.060915"
         sodipodi:r1="12.121831"
         sodipodi:cy="1607.946"
         sodipodi:cx="-707.10675"
         sodipodi:sides="3"
         id="path42818-4"
         style="fill:#800080;fill-opacity:1;stroke:#a0892c;stroke-width:13.47183895000000042;stroke-miterlimit:4;stroke-opacity:1;stroke-dasharray:none"
         sodipodi:type="star" />
      <path
         sodipodi:type="star"
         style="fill:#800080;fill-opacity:1;stroke:#a0892c;stroke-width:13.47183895000000042;stroke-miterlimit:4;stroke-opacity:1;stroke-dasharray:none"
         id="path6714"
         sodipodi:sides="3"
         sodipodi:cx="-707.10675"
         sodipodi:cy="1607.946"
         sodipodi:r1="12.121831"
         sodipodi:r2="6.060915"
         sodipodi:arg1="1.5707963"
         sodipodi:arg2="2.6179939"
         inkscape:flatsided="false"
         inkscape:rounded="0"
         inkscape:randomized="0"
         d="m -707.10675,1620.0679 -5.24891,-9.0914 -5.2489,-9.0914 10.49781,0 10.49781,0 -5.2489,9.0914 z"
         inkscape:transform-center-y="-0.35290074"
         transform="matrix(-0.24947048,0.36894717,-0.36894717,-0.24947048,869.89435,841.94961)"
         inkscape:transform-center-x="2.350772" />
    </g>
    <g
       id="g6723"
       transform="translate(-0.43548853,611.53773)"
       inkscape:export-filename="/home/waldgeist/data/homepage/pics/physik/elektrizitaet-magnetismus/magnetfeld-leiter-rechte-hand-regel.png"
       inkscape:export-xdpi="150"
       inkscape:export-ydpi="150"
       style="stroke:#a0892c">
      <g
         id="g6725"
         transform="matrix(1.6905634,-0.1786533,0.86602541,0.50000001,-1004.8554,-160.7372)"
         style="stroke:#a0892c;stroke-width:3;stroke-miterlimit:4;stroke-dasharray:none">
        <path
           inkscape:connector-curvature="0"
           id="path6727"
           d="m 335.88585,838.85413 c 0,0 0,0 0,0 l 0,0 c 0,27.17865 22.03265,49.2113 49.2113,49.2113 27.17865,0 49.2113,-22.03265 49.2113,-49.2113"
           style="fill:none;stroke:#a0892c;stroke-width:3;stroke-linecap:round;stroke-linejoin:miter;stroke-miterlimit:4;stroke-opacity:1;stroke-dasharray:none;stroke-dashoffset:0;marker-end:none" />
        <path
           inkscape:connector-curvature="0"
           id="path6729"
           d="m 434.62725,827.22605 c 0,0 0,0 0,0 0,-27.17865 -22.03265,-49.2113 -49.2113,-49.2113 -27.17865,0 -49.2113,22.03265 -49.2113,49.2113"
           style="fill:none;stroke:#a0892c;stroke-width:3;stroke-linecap:round;stroke-linejoin:miter;stroke-miterlimit:4;stroke-opacity:1;stroke-dasharray:none;stroke-dashoffset:0;marker-end:none" />
      </g>
      <path
         sodipodi:type="star"
         style="fill:#800080;fill-opacity:1;stroke:#a0892c;stroke-width:13.47183895000000042;stroke-miterlimit:4;stroke-opacity:1;stroke-dasharray:none"
         id="path6731"
         sodipodi:sides="3"
         sodipodi:cx="-707.10675"
         sodipodi:cy="1607.946"
         sodipodi:r1="12.121831"
         sodipodi:r2="6.060915"
         sodipodi:arg1="1.5707963"
         sodipodi:arg2="2.6179939"
         inkscape:flatsided="false"
         inkscape:rounded="0"
         inkscape:randomized="0"
         d="m -707.10675,1620.0679 -5.24891,-9.0914 -5.2489,-9.0914 10.49781,0 10.49781,0 -5.2489,9.0914 z"
         inkscape:transform-center-y="0.35289773"
         transform="matrix(0.24947048,-0.36894717,0.36894717,0.24947048,-134.89011,-467.6444)"
         inkscape:transform-center-x="-2.3507742" />
      <path
         inkscape:transform-center-x="2.350772"
         transform="matrix(-0.24947048,0.36894717,-0.36894717,-0.24947048,869.89435,841.94961)"
         inkscape:transform-center-y="-0.35290074"
         d="m -707.10675,1620.0679 -5.24891,-9.0914 -5.2489,-9.0914 10.49781,0 10.49781,0 -5.2489,9.0914 z"
         inkscape:randomized="0"
         inkscape:rounded="0"
         inkscape:flatsided="false"
         sodipodi:arg2="2.6179939"
         sodipodi:arg1="1.5707963"
         sodipodi:r2="6.060915"
         sodipodi:r1="12.121831"
         sodipodi:cy="1607.946"
         sodipodi:cx="-707.10675"
         sodipodi:sides="3"
         id="path6733"
         style="fill:#800080;fill-opacity:1;stroke:#a0892c;stroke-width:13.47183895000000042;stroke-miterlimit:4;stroke-opacity:1;stroke-dasharray:none"
         sodipodi:type="star" />
    </g>
    <g
       transform="translate(-0.43548853,152.9581)"
       id="g6761"
       inkscape:export-filename="/home/waldgeist/data/homepage/pics/physik/elektrizitaet-magnetismus/magnetfeld-leiter-rechte-hand-regel.png"
       inkscape:export-xdpi="150"
       inkscape:export-ydpi="150"
       style="stroke:#a0892c">
      <g
         id="g6763"
         transform="matrix(1.6905634,-0.1786533,0.86602541,0.50000001,-1004.8554,-160.7372)"
         style="stroke:#a0892c;stroke-width:3;stroke-miterlimit:4;stroke-dasharray:none">
        <path
           inkscape:connector-curvature="0"
           id="path6765"
           d="m 335.88585,838.85413 c 0,0 0,0 0,0 l 0,0 c 0,27.17865 22.03265,49.2113 49.2113,49.2113 27.17865,0 49.2113,-22.03265 49.2113,-49.2113"
           style="fill:none;stroke:#a0892c;stroke-width:3;stroke-linecap:round;stroke-linejoin:miter;stroke-miterlimit:4;stroke-opacity:1;stroke-dasharray:none;stroke-dashoffset:0;marker-end:none" />
        <path
           inkscape:connector-curvature="0"
           id="path6767"
           d="m 434.62725,827.22605 c 0,0 0,0 0,0 0,-27.17865 -22.03265,-49.2113 -49.2113,-49.2113 -27.17865,0 -49.2113,22.03265 -49.2113,49.2113"
           style="fill:none;stroke:#a0892c;stroke-width:3;stroke-linecap:round;stroke-linejoin:miter;stroke-miterlimit:4;stroke-opacity:1;stroke-dasharray:none;stroke-dashoffset:0;marker-end:none" />
      </g>
      <path
         sodipodi:type="star"
         style="fill:#800080;fill-opacity:1;stroke:#a0892c;stroke-width:13.47183895000000042;stroke-miterlimit:4;stroke-opacity:1;stroke-dasharray:none"
         id="path6769"
         sodipodi:sides="3"
         sodipodi:cx="-707.10675"
         sodipodi:cy="1607.946"
         sodipodi:r1="12.121831"
         sodipodi:r2="6.060915"
         sodipodi:arg1="1.5707963"
         sodipodi:arg2="2.6179939"
         inkscape:flatsided="false"
         inkscape:rounded="0"
         inkscape:randomized="0"
         d="m -707.10675,1620.0679 -5.24891,-9.0914 -5.2489,-9.0914 10.49781,0 10.49781,0 -5.2489,9.0914 z"
         inkscape:transform-center-y="0.35289773"
         transform="matrix(0.24947048,-0.36894717,0.36894717,0.24947048,-134.89011,-467.6444)"
         inkscape:transform-center-x="-2.3507742" />
      <path
         inkscape:transform-center-x="2.350772"
         transform="matrix(-0.24947048,0.36894717,-0.36894717,-0.24947048,869.89435,841.94961)"
         inkscape:transform-center-y="-0.35290074"
         d="m -707.10675,1620.0679 -5.24891,-9.0914 -5.2489,-9.0914 10.49781,0 10.49781,0 -5.2489,9.0914 z"
         inkscape:randomized="0"
         inkscape:rounded="0"
         inkscape:flatsided="false"
         sodipodi:arg2="2.6179939"
         sodipodi:arg1="1.5707963"
         sodipodi:r2="6.060915"
         sodipodi:r1="12.121831"
         sodipodi:cy="1607.946"
         sodipodi:cx="-707.10675"
         sodipodi:sides="3"
         id="path6771"
         style="fill:#800080;fill-opacity:1;stroke:#a0892c;stroke-width:13.47183895000000042;stroke-miterlimit:4;stroke-opacity:1;stroke-dasharray:none"
         sodipodi:type="star" />
    </g>
    <g
       transform="translate(-0.43548853,458.67786)"
       id="g6773"
       inkscape:export-filename="/home/waldgeist/data/homepage/pics/physik/elektrizitaet-magnetismus/magnetfeld-leiter-rechte-hand-regel.png"
       inkscape:export-xdpi="150"
       inkscape:export-ydpi="150"
       style="stroke:#a0892c">
      <g
         style="stroke:#a0892c;stroke-width:3;stroke-miterlimit:4;stroke-dasharray:none"
         transform="matrix(1.6905634,-0.1786533,0.86602541,0.50000001,-1004.8554,-160.7372)"
         id="g6775">
        <path
           style="fill:none;stroke:#a0892c;stroke-width:3;stroke-linecap:round;stroke-linejoin:miter;stroke-miterlimit:4;stroke-opacity:1;stroke-dasharray:none;stroke-dashoffset:0;marker-end:none"
           d="m 335.88585,838.85413 c 0,0 0,0 0,0 l 0,0 c 0,27.17865 22.03265,49.2113 49.2113,49.2113 27.17865,0 49.2113,-22.03265 49.2113,-49.2113"
           id="path6777"
           inkscape:connector-curvature="0" />
        <path
           style="fill:none;stroke:#a0892c;stroke-width:3;stroke-linecap:round;stroke-linejoin:miter;stroke-miterlimit:4;stroke-opacity:1;stroke-dasharray:none;stroke-dashoffset:0;marker-end:none"
           d="m 434.62725,827.22605 c 0,0 0,0 0,0 0,-27.17865 -22.03265,-49.2113 -49.2113,-49.2113 -27.17865,0 -49.2113,22.03265 -49.2113,49.2113"
           id="path6779"
           inkscape:connector-curvature="0" />
      </g>
      <path
         inkscape:transform-center-x="-2.3507742"
         transform="matrix(0.24947048,-0.36894717,0.36894717,0.24947048,-134.89011,-467.6444)"
         inkscape:transform-center-y="0.35289773"
         d="m -707.10675,1620.0679 -5.24891,-9.0914 -5.2489,-9.0914 10.49781,0 10.49781,0 -5.2489,9.0914 z"
         inkscape:randomized="0"
         inkscape:rounded="0"
         inkscape:flatsided="false"
         sodipodi:arg2="2.6179939"
         sodipodi:arg1="1.5707963"
         sodipodi:r2="6.060915"
         sodipodi:r1="12.121831"
         sodipodi:cy="1607.946"
         sodipodi:cx="-707.10675"
         sodipodi:sides="3"
         id="path6781"
         style="fill:#800080;fill-opacity:1;stroke:#a0892c;stroke-width:13.47183895000000042;stroke-miterlimit:4;stroke-opacity:1;stroke-dasharray:none"
         sodipodi:type="star" />
      <path
         sodipodi:type="star"
         style="fill:#800080;fill-opacity:1;stroke:#a0892c;stroke-width:13.47183895000000042;stroke-miterlimit:4;stroke-opacity:1;stroke-dasharray:none"
         id="path6783"
         sodipodi:sides="3"
         sodipodi:cx="-707.10675"
         sodipodi:cy="1607.946"
         sodipodi:r1="12.121831"
         sodipodi:r2="6.060915"
         sodipodi:arg1="1.5707963"
         sodipodi:arg2="2.6179939"
         inkscape:flatsided="false"
         inkscape:rounded="0"
         inkscape:randomized="0"
         d="m -707.10675,1620.0679 -5.24891,-9.0914 -5.2489,-9.0914 10.49781,0 10.49781,0 -5.2489,9.0914 z"
         inkscape:transform-center-y="-0.35290074"
         transform="matrix(-0.24947048,0.36894717,-0.36894717,-0.24947048,869.89435,841.94961)"
         inkscape:transform-center-x="2.350772" />
    </g>
    <g
       id="g6785"
       transform="translate(-0.43548853,305.81797)"
       inkscape:export-filename="/home/waldgeist/data/homepage/pics/physik/elektrizitaet-magnetismus/magnetfeld-leiter-rechte-hand-regel.png"
       inkscape:export-xdpi="150"
       inkscape:export-ydpi="150"
       style="stroke:#a0892c">
      <g
         style="stroke:#a0892c;stroke-width:3;stroke-miterlimit:4;stroke-dasharray:none"
         transform="matrix(1.6905634,-0.1786533,0.86602541,0.50000001,-1004.8554,-160.7372)"
         id="g6787">
        <path
           style="fill:none;stroke:#a0892c;stroke-width:3;stroke-linecap:round;stroke-linejoin:miter;stroke-miterlimit:4;stroke-opacity:1;stroke-dasharray:none;stroke-dashoffset:0;marker-end:none"
           d="m 335.88585,838.85413 c 0,0 0,0 0,0 l 0,0 c 0,27.17865 22.03265,49.2113 49.2113,49.2113 27.17865,0 49.2113,-22.03265 49.2113,-49.2113"
           id="path6789"
           inkscape:connector-curvature="0" />
        <path
           style="fill:none;stroke:#a0892c;stroke-width:3;stroke-linecap:round;stroke-linejoin:miter;stroke-miterlimit:4;stroke-opacity:1;stroke-dasharray:none;stroke-dashoffset:0;marker-end:none"
           d="m 434.62725,827.22605 c 0,0 0,0 0,0 0,-27.17865 -22.03265,-49.2113 -49.2113,-49.2113 -27.17865,0 -49.2113,22.03265 -49.2113,49.2113"
           id="path6791"
           inkscape:connector-curvature="0" />
      </g>
      <path
         inkscape:transform-center-x="-2.3507742"
         transform="matrix(0.24947048,-0.36894717,0.36894717,0.24947048,-134.89011,-467.6444)"
         inkscape:transform-center-y="0.35289773"
         d="m -707.10675,1620.0679 -5.24891,-9.0914 -5.2489,-9.0914 10.49781,0 10.49781,0 -5.2489,9.0914 z"
         inkscape:randomized="0"
         inkscape:rounded="0"
         inkscape:flatsided="false"
         sodipodi:arg2="2.6179939"
         sodipodi:arg1="1.5707963"
         sodipodi:r2="6.060915"
         sodipodi:r1="12.121831"
         sodipodi:cy="1607.946"
         sodipodi:cx="-707.10675"
         sodipodi:sides="3"
         id="path6793"
         style="fill:#800080;fill-opacity:1;stroke:#a0892c;stroke-width:13.47183895000000042;stroke-miterlimit:4;stroke-opacity:1;stroke-dasharray:none"
         sodipodi:type="star" />
      <path
         sodipodi:type="star"
         style="fill:#800080;fill-opacity:1;stroke:#a0892c;stroke-width:13.47183895000000042;stroke-miterlimit:4;stroke-opacity:1;stroke-dasharray:none"
         id="path6795"
         sodipodi:sides="3"
         sodipodi:cx="-707.10675"
         sodipodi:cy="1607.946"
         sodipodi:r1="12.121831"
         sodipodi:r2="6.060915"
         sodipodi:arg1="1.5707963"
         sodipodi:arg2="2.6179939"
         inkscape:flatsided="false"
         inkscape:rounded="0"
         inkscape:randomized="0"
         d="m -707.10675,1620.0679 -5.24891,-9.0914 -5.2489,-9.0914 10.49781,0 10.49781,0 -5.2489,9.0914 z"
         inkscape:transform-center-y="-0.35290074"
         transform="matrix(-0.24947048,0.36894717,-0.36894717,-0.24947048,869.89435,841.94961)"
         inkscape:transform-center-x="2.350772" />
    </g>
  </g>
</svg>
