<svg xmlns:ns0="http://www.iki.fi/pav/software/textext/" xmlns="http://www.w3.org/2000/svg" xmlns:xlink="http://www.w3.org/1999/xlink" width="744.094" height="1052.362"><title>Millikan-Versuch</title><defs><marker id="a" orient="auto" overflow="visible"><path transform="scale(-.6)" d="M8.719 4.034L-2.207.016 8.719-4.002c-1.746 2.372-1.736 5.618 0 8.036z" fill-rule="evenodd" stroke-width=".625" stroke-linejoin="round"/></marker></defs><path style="marker:none" color="#000" fill="#fff" stroke="#fff" stroke-width="2" stroke-linecap="round" stroke-linejoin="round" overflow="visible" d="M81.458 353.624h581.178v345.113H81.458z"/><path style="marker:none" d="M529.343 405.194v238.531" color="#000" fill="purple" stroke="purple" stroke-width="2" stroke-linecap="round" stroke-linejoin="round" marker-end="url(#a)" overflow="visible"/><path style="marker:none" color="#000" fill="#b3b3b3" stroke="#333" stroke-linecap="round" stroke-linejoin="round" overflow="visible" d="M541.731 365.798v11.891H218.863v-11.891z"/><g stroke="maroon"><path d="M527.867 405.194c-7.657 0-13.864-6.207-13.864-13.864 0-7.657 6.207-13.864 13.864-13.864 7.657 0 13.864 6.207 13.864 13.864 0 7.657-6.207 13.864-13.864 13.864z" style="marker:none" color="#000" fill="none" stroke-width="1.99981419" stroke-linecap="round" stroke-linejoin="round" overflow="visible"/><text transform="matrix(0 -.59365 -.59353 0 942.819 287.13)" style="line-height:125%" x="-191.494" y="711.074" font-size="38.121" font-weight="400" letter-spacing="0" word-spacing="0" fill="maroon" stroke-width="1.685" font-family="Sans"><tspan x="-191.494" y="711.074">+</tspan></text></g><g stroke="maroon"><path style="marker:none" d="M495.073 405.194c-7.656 0-13.863-6.207-13.863-13.864 0-7.657 6.207-13.864 13.863-13.864 7.657 0 13.864 6.207 13.864 13.864 0 7.657-6.207 13.864-13.864 13.864z" color="#000" fill="none" stroke-width="1.99981419" stroke-linecap="round" stroke-linejoin="round" overflow="visible"/><text y="711.074" x="-191.494" style="line-height:125%" transform="matrix(0 -.59365 -.59353 0 910.025 287.13)" font-size="38.121" font-weight="400" letter-spacing="0" word-spacing="0" fill="maroon" stroke-width="1.685" font-family="Sans"><tspan y="711.074" x="-191.494">+</tspan></text></g><g stroke="maroon"><path d="M462.28 405.194c-7.657 0-13.864-6.207-13.864-13.864 0-7.657 6.207-13.864 13.864-13.864 7.657 0 13.864 6.207 13.864 13.864 0 7.657-6.207 13.864-13.864 13.864z" style="marker:none" color="#000" fill="none" stroke-width="1.99981419" stroke-linecap="round" stroke-linejoin="round" overflow="visible"/><text transform="matrix(0 -.59365 -.59353 0 877.232 287.13)" style="line-height:125%" x="-191.494" y="711.074" font-size="38.121" font-weight="400" letter-spacing="0" word-spacing="0" fill="maroon" stroke-width="1.685" font-family="Sans"><tspan x="-191.494" y="711.074">+</tspan></text></g><g stroke="maroon"><path style="marker:none" d="M429.487 405.194c-7.657 0-13.864-6.207-13.864-13.864 0-7.657 6.207-13.864 13.864-13.864 7.657 0 13.864 6.207 13.864 13.864 0 7.657-6.207 13.864-13.864 13.864z" color="#000" fill="none" stroke-width="1.99981419" stroke-linecap="round" stroke-linejoin="round" overflow="visible"/><text y="711.074" x="-191.494" style="line-height:125%" transform="matrix(0 -.59365 -.59353 0 844.439 287.13)" font-size="38.121" font-weight="400" letter-spacing="0" word-spacing="0" fill="maroon" stroke-width="1.685" font-family="Sans"><tspan y="711.074" x="-191.494">+</tspan></text></g><g stroke="maroon"><path d="M396.693 405.194c-7.656 0-13.863-6.207-13.863-13.864 0-7.657 6.207-13.864 13.863-13.864 7.657 0 13.864 6.207 13.864 13.864 0 7.657-6.207 13.864-13.864 13.864z" style="marker:none" color="#000" fill="none" stroke-width="1.99981419" stroke-linecap="round" stroke-linejoin="round" overflow="visible"/><text transform="matrix(0 -.59365 -.59353 0 811.645 287.13)" style="line-height:125%" x="-191.494" y="711.074" font-size="38.121" font-weight="400" letter-spacing="0" word-spacing="0" fill="maroon" stroke-width="1.685" font-family="Sans"><tspan x="-191.494" y="711.074">+</tspan></text></g><g stroke="maroon"><path style="marker:none" d="M363.9 405.194c-7.657 0-13.864-6.207-13.864-13.864 0-7.657 6.207-13.864 13.864-13.864 7.657 0 13.864 6.207 13.864 13.864 0 7.657-6.207 13.864-13.864 13.864z" color="#000" fill="none" stroke-width="1.99981419" stroke-linecap="round" stroke-linejoin="round" overflow="visible"/><text y="711.074" x="-191.494" style="line-height:125%" transform="matrix(0 -.59365 -.59353 0 778.852 287.13)" font-size="38.121" font-weight="400" letter-spacing="0" word-spacing="0" fill="maroon" stroke-width="1.685" font-family="Sans"><tspan y="711.074" x="-191.494">+</tspan></text></g><g stroke="maroon"><path d="M331.107 405.194c-7.657 0-13.864-6.207-13.864-13.864 0-7.657 6.207-13.864 13.864-13.864 7.656 0 13.864 6.207 13.864 13.864 0 7.657-6.208 13.864-13.864 13.864z" style="marker:none" color="#000" fill="none" stroke-width="1.99981419" stroke-linecap="round" stroke-linejoin="round" overflow="visible"/><text transform="matrix(0 -.59365 -.59353 0 746.059 287.13)" style="line-height:125%" x="-191.494" y="711.074" font-size="38.121" font-weight="400" letter-spacing="0" word-spacing="0" fill="maroon" stroke-width="1.685" font-family="Sans"><tspan x="-191.494" y="711.074">+</tspan></text></g><g stroke="maroon"><path style="marker:none" d="M298.313 405.194c-7.657 0-13.864-6.207-13.864-13.864 0-7.657 6.207-13.864 13.864-13.864 7.657 0 13.864 6.207 13.864 13.864 0 7.657-6.207 13.864-13.864 13.864z" color="#000" fill="none" stroke-width="1.99981419" stroke-linecap="round" stroke-linejoin="round" overflow="visible"/><text y="711.074" x="-191.494" style="line-height:125%" transform="matrix(0 -.59365 -.59353 0 713.265 287.13)" font-size="38.121" font-weight="400" letter-spacing="0" word-spacing="0" fill="maroon" stroke-width="1.685" font-family="Sans"><tspan y="711.074" x="-191.494">+</tspan></text></g><g stroke="maroon"><path d="M265.52 405.194c-7.657 0-13.864-6.207-13.864-13.864 0-7.657 6.207-13.864 13.864-13.864 7.657 0 13.864 6.207 13.864 13.864 0 7.657-6.207 13.864-13.864 13.864z" style="marker:none" color="#000" fill="none" stroke-width="1.99981419" stroke-linecap="round" stroke-linejoin="round" overflow="visible"/><text transform="matrix(0 -.59365 -.59353 0 680.472 287.13)" style="line-height:125%" x="-191.494" y="711.074" font-size="38.121" font-weight="400" letter-spacing="0" word-spacing="0" fill="maroon" stroke-width="1.685" font-family="Sans"><tspan x="-191.494" y="711.074">+</tspan></text></g><g stroke="maroon"><path style="marker:none" d="M232.727 405.194c-7.657 0-13.864-6.207-13.864-13.864 0-7.657 6.207-13.864 13.864-13.864 7.656 0 13.863 6.207 13.863 13.864 0 7.657-6.207 13.864-13.863 13.864z" color="#000" fill="none" stroke-width="1.99981419" stroke-linecap="round" stroke-linejoin="round" overflow="visible"/><text y="711.074" x="-191.494" style="line-height:125%" transform="matrix(0 -.59365 -.59353 0 647.678 287.13)" font-size="38.121" font-weight="400" letter-spacing="0" word-spacing="0" fill="maroon" stroke-width="1.685" font-family="Sans"><tspan y="711.074" x="-191.494">+</tspan></text></g><path style="marker:none" color="#000" fill="#b3b3b3" stroke="#333" stroke-linecap="round" stroke-linejoin="round" overflow="visible" d="M541.731 674.673v11.891H218.863v-11.891z"/><g stroke="navy"><path d="M543.227 660.81c0 7.656-6.208 13.863-13.864 13.863-7.657 0-13.864-6.207-13.864-13.864 0-7.656 6.207-13.864 13.864-13.864 7.656 0 13.864 6.208 13.864 13.864z" style="marker:none" color="#000" fill="none" stroke-width="1.99981419" stroke-linecap="round" stroke-linejoin="round" overflow="visible"/><text y="720.2" x="-361.815" style="line-height:125%" transform="matrix(-.59365 0 0 .59353 322.736 245.857)" font-size="76.233" font-weight="400" letter-spacing="0" word-spacing="0" fill="navy" stroke-width="1.192" font-family="Sans"><tspan y="720.2" x="-361.815">-</tspan></text></g><g stroke="navy"><path style="marker:none" d="M246.59 660.81c0 7.656-6.207 13.863-13.863 13.863-7.657 0-13.864-6.207-13.864-13.864 0-7.656 6.207-13.864 13.864-13.864 7.656 0 13.863 6.208 13.863 13.864z" color="#000" fill="none" stroke-width="1.99981419" stroke-linecap="round" stroke-linejoin="round" overflow="visible"/><text transform="matrix(-.59365 0 0 .59353 26.1 245.857)" style="line-height:125%" x="-361.815" y="720.2" font-size="76.233" font-weight="400" letter-spacing="0" word-spacing="0" fill="navy" stroke-width="1.192" font-family="Sans"><tspan x="-361.815" y="720.2">-</tspan></text></g><g stroke="navy"><path d="M279.55 660.81c0 7.656-6.207 13.863-13.864 13.863-7.657 0-13.864-6.207-13.864-13.864 0-7.656 6.207-13.864 13.864-13.864 7.657 0 13.864 6.208 13.864 13.864z" style="marker:none" color="#000" fill="none" stroke-width="1.99981419" stroke-linecap="round" stroke-linejoin="round" overflow="visible"/><text y="720.2" x="-361.815" style="line-height:125%" transform="matrix(-.59365 0 0 .59353 59.06 245.857)" font-size="76.233" font-weight="400" letter-spacing="0" word-spacing="0" fill="navy" stroke-width="1.192" font-family="Sans"><tspan y="720.2" x="-361.815">-</tspan></text></g><g stroke="navy"><path style="marker:none" d="M312.51 660.81c0 7.656-6.208 13.863-13.864 13.863-7.657 0-13.864-6.207-13.864-13.864 0-7.657 6.207-13.864 13.864-13.864 7.656 0 13.864 6.207 13.864 13.864z" color="#000" fill="none" stroke-width="1.99981419" stroke-linecap="round" stroke-linejoin="round" overflow="visible"/><text transform="matrix(-.59365 0 0 .59353 92.019 245.857)" style="line-height:125%" x="-361.815" y="720.2" font-size="76.233" font-weight="400" letter-spacing="0" word-spacing="0" fill="navy" stroke-width="1.192" font-family="Sans"><tspan x="-361.815" y="720.2">-</tspan></text></g><g stroke="navy"><path d="M345.47 660.81c0 7.656-6.208 13.863-13.865 13.863s-13.864-6.207-13.864-13.864c0-7.656 6.207-13.864 13.864-13.864 7.657 0 13.864 6.208 13.864 13.864z" style="marker:none" color="#000" fill="none" stroke-width="1.99981419" stroke-linecap="round" stroke-linejoin="round" overflow="visible"/><text y="720.2" x="-361.815" style="line-height:125%" transform="matrix(-.59365 0 0 .59353 124.978 245.857)" font-size="76.233" font-weight="400" letter-spacing="0" word-spacing="0" fill="navy" stroke-width="1.192" font-family="Sans"><tspan y="720.2" x="-361.815">-</tspan></text></g><g stroke="navy"><path style="marker:none" d="M378.429 660.81c0 7.656-6.207 13.863-13.864 13.863-7.657 0-13.864-6.207-13.864-13.864 0-7.656 6.207-13.864 13.864-13.864 7.657 0 13.864 6.208 13.864 13.864z" color="#000" fill="none" stroke-width="1.99981419" stroke-linecap="round" stroke-linejoin="round" overflow="visible"/><text transform="matrix(-.59365 0 0 .59353 157.938 245.857)" style="line-height:125%" x="-361.815" y="720.2" font-size="76.233" font-weight="400" letter-spacing="0" word-spacing="0" fill="navy" stroke-width="1.192" font-family="Sans"><tspan x="-361.815" y="720.2">-</tspan></text></g><g stroke="navy"><path d="M411.388 660.81c0 7.656-6.207 13.863-13.864 13.863-7.656 0-13.864-6.207-13.864-13.864 0-7.656 6.208-13.864 13.864-13.864 7.657 0 13.864 6.208 13.864 13.864z" style="marker:none" color="#000" fill="none" stroke-width="1.99981419" stroke-linecap="round" stroke-linejoin="round" overflow="visible"/><text y="720.2" x="-361.815" style="line-height:125%" transform="matrix(-.59365 0 0 .59353 190.897 245.857)" font-size="76.233" font-weight="400" letter-spacing="0" word-spacing="0" fill="navy" stroke-width="1.192" font-family="Sans"><tspan y="720.2" x="-361.815">-</tspan></text></g><g stroke="navy"><path style="marker:none" d="M444.348 660.81c0 7.656-6.207 13.863-13.864 13.863-7.657 0-13.864-6.207-13.864-13.864 0-7.657 6.207-13.864 13.864-13.864 7.657 0 13.864 6.207 13.864 13.864z" color="#000" fill="none" stroke-width="1.99981419" stroke-linecap="round" stroke-linejoin="round" overflow="visible"/><text transform="matrix(-.59365 0 0 .59353 223.857 245.857)" style="line-height:125%" x="-361.815" y="720.2" font-size="76.233" font-weight="400" letter-spacing="0" word-spacing="0" fill="navy" stroke-width="1.192" font-family="Sans"><tspan x="-361.815" y="720.2">-</tspan></text></g><g stroke="navy"><path d="M477.307 660.81c0 7.656-6.207 13.863-13.863 13.863-7.657 0-13.864-6.207-13.864-13.864 0-7.656 6.207-13.864 13.864-13.864 7.656 0 13.863 6.208 13.863 13.864z" style="marker:none" color="#000" fill="none" stroke-width="1.99981419" stroke-linecap="round" stroke-linejoin="round" overflow="visible"/><text y="720.2" x="-361.815" style="line-height:125%" transform="matrix(-.59365 0 0 .59353 256.817 245.857)" font-size="76.233" font-weight="400" letter-spacing="0" word-spacing="0" fill="navy" stroke-width="1.192" font-family="Sans"><tspan y="720.2" x="-361.815">-</tspan></text></g><g stroke="navy"><path style="marker:none" d="M510.267 660.81c0 7.656-6.207 13.863-13.864 13.863-7.657 0-13.864-6.207-13.864-13.864 0-7.657 6.207-13.864 13.864-13.864 7.657 0 13.864 6.207 13.864 13.864z" color="#000" fill="none" stroke-width="1.99981419" stroke-linecap="round" stroke-linejoin="round" overflow="visible"/><text transform="matrix(-.59365 0 0 .59353 289.776 245.857)" style="line-height:125%" x="-361.815" y="720.2" font-size="76.233" font-weight="400" letter-spacing="0" word-spacing="0" fill="navy" stroke-width="1.192" font-family="Sans"><tspan x="-361.815" y="720.2">-</tspan></text></g><path d="M496.384 405.194v238.531M463.424 405.194v238.531M429.487 405.194v238.531M396.693 405.194v238.531M363.9 405.194v238.531M331.107 405.194v238.531M298.313 405.194v238.531M265.667 405.194v238.531M232.707 405.194v238.531" style="marker:none" color="#000" fill="purple" stroke="purple" stroke-width="2" stroke-linecap="round" stroke-linejoin="round" marker-end="url(#a)" overflow="visible"/><g transform="matrix(3 0 0 3 -471.553 135.455)" ns0:preamble="/home/waldgeist/data/sphinx/inkscape-preamble.tex" ns0:text="$\\vec{E}$" fill="purple"><defs><symbol id="b" overflow="visible"><path d="M5.36-5.938c-.141.141-.47.422-.47.594 0 .094.094.203.188.203s.14-.078.203-.14c.11-.14.344-.422.782-.64.062-.048.171-.095.171-.204 0-.11-.078-.156-.14-.203a1.034 1.034 0 0 1-.407-.563c-.03-.093-.062-.234-.203-.234-.14 0-.203.14-.203.219 0 .047.078.36.235.578h-3.36c-.156 0-.344 0-.344.203 0 .188.188.188.344.188zm0 0"/></symbol><symbol id="c" overflow="visible"><path d="M7.063-2.328c.015-.047.046-.11.046-.14 0 0 0-.11-.125-.11-.093 0-.109.062-.125.125-.656 1.469-1.015 2.14-2.718 2.14H2.469c-.11-.015-.14-.03-.14-.109 0-.031 0-.047.046-.219l.688-2.734h.984c.844 0 .844.219.844.469 0 .062 0 .187-.063.484-.016.047-.031.078-.031.11 0 .046.031.109.125.109.078 0 .11-.047.156-.203l.563-2.328c0-.063-.047-.11-.125-.11-.079 0-.11.063-.125.172-.22.766-.391 1-1.313 1h-.937l.593-2.406c.094-.36.11-.39.547-.39h1.407c1.203 0 1.515.28 1.515 1.109 0 .234 0 .25-.047.53 0 .048-.015.126-.015.173 0 .047.03.125.125.125.109 0 .125-.063.14-.25l.203-1.735c.032-.265-.015-.265-.265-.265H2.297c-.188 0-.297 0-.297.203 0 .11.094.11.281.11.375 0 .656 0 .656.171 0 .047 0 .063-.062.25L1.562-.78c-.093.39-.109.469-.906.469-.172 0-.281 0-.281.187C.375 0 .469 0 .656 0h5.172c.234 0 .25-.016.313-.172zm0 0"/></symbol></defs><use y="132.246" x="224.97" xlink:href="#b" width="744.094" height="1052.362"/><use y="134.765" x="223.432" xlink:href="#c" width="744.094" height="1052.362"/></g><g stroke="navy"><path d="M396.967 525.284c0 9.207-7.463 16.67-16.67 16.67s-16.671-7.463-16.671-16.67 7.464-16.67 16.67-16.67c9.208 0 16.671 7.463 16.671 16.67z" style="marker:none" color="#000" fill="#fff" stroke-width="1.9997054" stroke-linecap="round" stroke-linejoin="round" overflow="visible"/><text y="720.2" x="-361.815" style="line-height:125%" transform="matrix(-.71384 0 0 .7137 131.837 26.324)" font-size="76.233" font-weight="400" letter-spacing="0" word-spacing="0" fill="navy" stroke-width=".991" font-family="Sans"><tspan y="720.2" x="-361.815">-</tspan></text></g><path style="marker:none" d="M380.297 542.901v62.217" color="#000" fill="purple" stroke="#d40000" stroke-width="3" stroke-linecap="round" stroke-linejoin="round" marker-end="url(#a)" overflow="visible"/><path style="marker:none" opacity=".7" color="#000" fill="#fff" fill-rule="evenodd" stroke="#fff" stroke-width="1.5" overflow="visible" d="M388.31 573.232h35.238v37.587H388.31z"/><g ns0:text="$\\vec{F}_{\\mathrm{G}}$" transform="matrix(3 0 0 3 -283.142 199.743)" fill="#d40000"><defs><symbol overflow="visible" id="d"><path d="M5.36-5.938c-.141.141-.47.422-.47.594 0 .094.094.203.188.203s.14-.078.203-.14c.11-.14.344-.422.782-.64.062-.048.171-.095.171-.204 0-.11-.078-.156-.14-.203a1.034 1.034 0 0 1-.407-.563c-.03-.093-.062-.234-.203-.234-.14 0-.203.14-.203.219 0 .047.078.36.235.578h-3.36c-.156 0-.344 0-.344.203 0 .188.188.188.344.188zm0 0"/></symbol><symbol overflow="visible" id="e"><path d="M3.016-3.234h.968c.75 0 .829.156.829.437 0 .078 0 .188-.063.5-.031.047-.031.078-.031.11 0 .078.062.109.11.109.109 0 .109-.031.155-.203l.547-2.172c.032-.11.032-.125.032-.156a.117.117 0 0 0-.125-.11c-.094 0-.11.047-.141.219-.219.766-.438.953-1.297.953h-.906l.64-2.531c.094-.36.11-.39.547-.39h1.313c1.218 0 1.453.327 1.453 1.093 0 .234 0 .266-.031.547C7-4.703 7-4.688 7-4.656c0 .047.031.125.125.125.11 0 .11-.063.125-.25l.203-1.735c.031-.265-.016-.265-.266-.265h-4.89c-.188 0-.297 0-.297.203 0 .11.094.11.281.11.375 0 .656 0 .656.171 0 .047 0 .063-.062.25L1.562-.78c-.093.39-.109.469-.906.469-.172 0-.281 0-.281.187C.375 0 .5 0 .531 0c.281 0 1.031-.031 1.313-.031C2.172-.031 3 0 3.328 0c.094 0 .203 0 .203-.188 0-.078-.047-.109-.047-.109-.03-.016-.062-.016-.28-.016-.22 0-.267 0-.517-.015-.296-.031-.328-.078-.328-.203 0-.016 0-.078.047-.219zm0 0"/></symbol><symbol overflow="visible" id="f"><path d="M5.188-1.36c0-.312.078-.312.546-.312v-.25c-.062 0-.562.031-.906.031-.375 0-.89 0-1.266-.03v.25h.266c.703 0 .703.093.703.312v.453c0 .156 0 .422-.406.625-.328.172-.719.172-.813.172-.796 0-2.078-.454-2.078-2.282 0-1.843 1.329-2.25 2.016-2.25.672 0 1.516.454 1.688 1.657.015.078.078.078.125.078.125 0 .125-.047.125-.188v-1.625c0-.125 0-.187-.094-.187-.032 0-.063 0-.125.093l-.36.532a1.994 1.994 0 0 0-1.453-.625C1.703-4.906.484-3.781.484-2.391.484-1 1.672.141 3.172.141c.39 0 1.156-.078 1.484-.563.125.188.375.422.453.422.079 0 .079-.078.079-.188zm0 0"/></symbol></defs><use height="1052.362" width="744.094" xlink:href="#d" x="224.901" y="132.247"/><use height="1052.362" width="744.094" xlink:href="#e" x="223.432" y="134.765"/><use height="1052.362" width="744.094" xlink:href="#f" x="229.839" y="136.259"/></g><path d="M380.297 507.667V445.45M380.297 507.667v-25.003" style="marker:none" color="#000" fill="purple" stroke="#d40000" stroke-width="3" stroke-linecap="round" stroke-linejoin="round" marker-end="url(#a)" overflow="visible"/><path style="marker:none" opacity=".7" color="#000" fill="#fff" fill-rule="evenodd" stroke="#fff" stroke-width="1.5" overflow="visible" d="M388.309 467.198h35.238v35.372h-35.238z"/><g ns0:text="$\\vec{F}_{\\mathrm{A}}$" ns0:preamble="/home/waldgeist/data/homepage/inkscape-preamble.tex" transform="matrix(3 0 0 3 31.032 248.897)" fill="#d40000"><defs><symbol overflow="visible" id="g"><path d="M5.36-5.938c-.141.141-.47.422-.47.594 0 .094.094.203.188.203s.14-.078.203-.14c.11-.14.344-.422.782-.64.062-.048.171-.095.171-.204 0-.11-.078-.156-.14-.203a1.034 1.034 0 0 1-.407-.563c-.03-.093-.062-.234-.203-.234-.14 0-.203.14-.203.219 0 .047.078.36.235.578h-3.36c-.156 0-.344 0-.344.203 0 .188.188.188.344.188zm0 0"/></symbol><symbol overflow="visible" id="h"><path d="M3.016-3.234h.968c.75 0 .829.156.829.437 0 .078 0 .188-.063.5-.031.047-.031.078-.031.11 0 .078.062.109.11.109.109 0 .109-.031.155-.203l.547-2.172c.032-.11.032-.125.032-.156a.117.117 0 0 0-.125-.11c-.094 0-.11.047-.141.219-.219.766-.438.953-1.297.953h-.906l.64-2.531c.094-.36.11-.39.547-.39h1.313c1.218 0 1.453.327 1.453 1.093 0 .234 0 .266-.031.547C7-4.703 7-4.688 7-4.656c0 .047.031.125.125.125.11 0 .11-.063.125-.25l.203-1.735c.031-.265-.016-.265-.266-.265h-4.89c-.188 0-.297 0-.297.203 0 .11.094.11.281.11.375 0 .656 0 .656.171 0 .047 0 .063-.062.25L1.562-.78c-.093.39-.109.469-.906.469-.172 0-.281 0-.281.187C.375 0 .5 0 .531 0c.281 0 1.031-.031 1.313-.031C2.172-.031 3 0 3.328 0c.094 0 .203 0 .203-.188 0-.078-.047-.109-.047-.109-.03-.016-.062-.016-.28-.016-.22 0-.267 0-.517-.015-.296-.031-.328-.078-.328-.203 0-.016 0-.078.047-.219zm0 0"/></symbol><symbol overflow="visible" id="i"><path d="M3.125-4.813c-.031-.109-.063-.156-.188-.156-.14 0-.156.047-.203.157L1.125-.734C1.062-.563.937-.25.312-.25V0c.235-.016.485-.031.72-.031.28 0 .796.031.843.031v-.25c-.313 0-.516-.14-.516-.328 0-.063.016-.078.047-.14l.328-.86H3.72l.406 1.016c0 .03.031.078.031.109 0 .203-.375.203-.562.203V0c.344-.016.797-.031 1.031-.031.328 0 .86.031.922.031v-.25h-.125c-.469 0-.516-.078-.594-.266zm-.406.72l.89 2.265H1.83zm0 0"/></symbol></defs><use height="1052.362" width="744.094" xlink:href="#g" x="120.27" y="80.885"/><use height="1052.362" width="744.094" xlink:href="#h" x="118.801" y="83.403"/><use height="1052.362" width="744.094" xlink:href="#i" x="125.208" y="84.898"/></g><path style="marker:none" opacity=".7" color="#000" fill="#fff" fill-rule="evenodd" stroke="#fff" stroke-width="1.5" overflow="visible" d="M388.309 430.283h35.238v35.372h-35.238z"/><g transform="matrix(3 0 0 3 31.032 211.982)" ns0:preamble="/home/waldgeist/data/homepage/inkscape-preamble.tex" ns0:text="$\\vec{F}_{\\mathrm{el}}$" fill="#d40000"><defs><symbol id="j" overflow="visible"><path d="M5.36-5.938c-.141.141-.47.422-.47.594 0 .094.094.203.188.203s.14-.078.203-.14c.11-.14.344-.422.782-.64.062-.048.171-.095.171-.204 0-.11-.078-.156-.14-.203a1.034 1.034 0 0 1-.407-.563c-.03-.093-.062-.234-.203-.234-.14 0-.203.14-.203.219 0 .047.078.36.235.578h-3.36c-.156 0-.344 0-.344.203 0 .188.188.188.344.188zm0 0"/></symbol><symbol id="k" overflow="visible"><path d="M3.016-3.234h.968c.75 0 .829.156.829.437 0 .078 0 .188-.063.5-.031.047-.031.078-.031.11 0 .078.062.109.11.109.109 0 .109-.031.155-.203l.547-2.172c.032-.11.032-.125.032-.156a.117.117 0 0 0-.125-.11c-.094 0-.11.047-.141.219-.219.766-.438.953-1.297.953h-.906l.64-2.531c.094-.36.11-.39.547-.39h1.313c1.218 0 1.453.327 1.453 1.093 0 .234 0 .266-.031.547C7-4.703 7-4.688 7-4.656c0 .047.031.125.125.125.11 0 .11-.063.125-.25l.203-1.735c.031-.265-.016-.265-.266-.265h-4.89c-.188 0-.297 0-.297.203 0 .11.094.11.281.11.375 0 .656 0 .656.171 0 .047 0 .063-.062.25L1.562-.78c-.093.39-.109.469-.906.469-.172 0-.281 0-.281.187C.375 0 .5 0 .531 0c.281 0 1.031-.031 1.313-.031C2.172-.031 3 0 3.328 0c.094 0 .203 0 .203-.188 0-.078-.047-.109-.047-.109-.03-.016-.062-.016-.28-.016-.22 0-.267 0-.517-.015-.296-.031-.328-.078-.328-.203 0-.016 0-.078.047-.219zm0 0"/></symbol><symbol id="l" overflow="visible"><path d="M3.063-1.594c.156 0 .203 0 .203-.14 0-.625-.344-1.375-1.391-1.375a1.59 1.59 0 0 0-1.61 1.578c0 .89.782 1.593 1.704 1.593.937 0 1.297-.75 1.297-.906 0-.015-.016-.094-.125-.094-.094 0-.11.047-.125.11-.22.562-.75.672-1 .672-.329 0-.641-.14-.844-.406-.266-.329-.266-.75-.266-1.032zM.905-1.766c.078-.984.703-1.14.969-1.14.86 0 .89.969.906 1.14zm0 0"/></symbol><symbol id="m" overflow="visible"><path d="M1.438-4.844L.39-4.766v.25c.468 0 .515.063.515.391v3.578c0 .297-.062.297-.515.297V0c.015 0 .5-.031.78-.031.266 0 .516.015.782.031v-.25c-.453 0-.516 0-.516-.297zm0 0"/></symbol></defs><use y="80.885" x="120.27" xlink:href="#j" width="744.094" height="1052.362"/><use y="83.403" x="118.801" xlink:href="#k" width="744.094" height="1052.362"/><use y="84.898" x="125.208" xlink:href="#l" width="744.094" height="1052.362"/><use y="84.898" x="128.75" xlink:href="#m" width="744.094" height="1052.362"/></g></svg>