<svg xmlns="http://www.w3.org/2000/svg" width="210mm" height="297mm"><title>Phasenpruefer</title><path d="M411.132 584.662a40.406 58.589 0 1 1-80.812 0 40.406 58.589 0 1 1 80.812 0z" transform="matrix(.68036 0 0 1.02436 -101.121 -73.482)" fill="#666" stroke="#000" stroke-width="5.076" stroke-linecap="round"/><path d="M101.806 465.448v.16c-.284-.01-.564-.027-.85-.027-20.868 0-37.775 27.226-37.775 60.806s16.907 60.806 37.775 60.806c.286 0 .566-.017.85-.027v.186h47.019v-1.142c-14.367-2.533-25.661-28.764-25.661-60.78 0-29.904 9.864-54.767 22.871-59.981z" fill="#999" stroke="#000" stroke-width="2.318" stroke-linecap="round"/><path d="M245.39 382.14a11.454 68.723 0 1 1-22.908 0 11.454 68.723 0 1 1 22.907 0z" transform="matrix(1.86416 0 0 .72115 -291.635 249.85)" fill="#fff" stroke="#000" stroke-width="1.61" stroke-linecap="round"/><g stroke="#000" stroke-width="2.353" stroke-linecap="round"><path d="M411.132 584.662c0 32.357-18.09 58.588-40.406 58.588s-40.406-26.23-40.406-58.588c0-32.358 18.09-58.59 40.406-58.59s40.406 26.232 40.406 58.59z" transform="matrix(.15893 0 0 .17638 96.024 417.674)"/><path transform="matrix(.15893 0 0 .17638 75.764 430.381)" d="M411.132 584.662c0 32.357-18.09 58.588-40.406 58.588s-40.406-26.23-40.406-58.588c0-32.358 18.09-58.59 40.406-58.59s40.406 26.232 40.406 58.59z"/></g><path fill="#ccc" stroke="gray" stroke-width="2" stroke-linecap="round" d="M154.621 522.71h14.806v-3.601h-14.806z"/><path fill="#f2f2f2" stroke="#333" stroke-width="1.5" stroke-linecap="round" d="M172.79 510.779h155.022v19.251H172.79z"/><path d="M606.335 490.599l-122.329.504-85.616 1.01-70.927 7.597v38.412l70.927 7.598 85.616 1.01 122.329.504V490.599z" stroke-width="2.0001911800000003" stroke-linecap="round" fill="#f9f9f9" stroke="#000"/><path fill="maroon" stroke="#000" stroke-width="2" stroke-linecap="round" d="M580.795 493.833h38.18v53.044h-38.18z"/><path fill="#ccc" stroke="#333" stroke-width="2" stroke-linecap="round" d="M162.721 515.96h246.926v8.889H162.721z"/><path d="M483.934 513.99l-.27-5.54" fill="#ffb380" stroke="#fc0" stroke-width="1.5"/><g stroke="#000" stroke-width="2.353" stroke-linecap="round"><path d="M528.92 507.06h-10.81v26.69h10.81c20.813-9.19 20.813-18.65 0-26.69zM433.984 507.06h10.811v26.69h-10.811c-20.812-9.19-20.812-18.65 0-26.69z" fill="#ccc" stroke-width="1.112969"/><path fill="none" d="M444.795 508.58h73.314v23.65h-73.314z" stroke-width="1.112969"/></g><path d="M444.795 519.931h31.218l8.987-4.73M518.38 519.931h-33.11l-8.987 4.73" fill="none" stroke="#1a1a1a" stroke-width="1.669217"/><path d="M410.934 539.257v-37.705h13.346v7.881h-7.256v21.317h8.063v8.507z" fill="#ccc" stroke="#333" stroke-width="2"/><g stroke="#333" stroke-width="11.665"><g fill="none" stroke-width="3.955"><path d="M-608.397 33.037c0-3.29 1.427-7.418 6.316-8.159 4.889-.741 11.636-.581 11.642 3 .007 3.581-6.753 3.72-11.642 3-4.89-.72-6.278-5.032-6.316-7.87" transform="matrix(0 .59093 .43269 0 547.292 874.612)"/><path d="M-608.378 43.005c0-3.29 1.426-7.418 6.315-8.159 4.89-.74 11.636-.58 11.643 3 .007 3.581-6.754 3.72-11.643 3-4.889-.72-6.278-5.032-6.315-7.87" transform="matrix(0 .59093 .43269 0 547.292 874.612)"/><path d="M-608.378 52.717c0-3.29 1.426-7.418 6.315-8.159 4.89-.74 11.636-.58 11.643 3 .007 3.581-6.754 3.72-11.643 3-4.889-.72-6.278-5.032-6.315-7.87" transform="matrix(0 .59093 .43269 0 547.292 874.612)"/><path d="M-608.378 62.692c0-3.29 1.426-7.418 6.315-8.159 4.89-.74 11.636-.58 11.643 3 .007 3.581-6.754 3.72-11.643 3-4.889-.72-6.278-5.032-6.315-7.87" transform="matrix(0 .59093 .43269 0 547.292 874.612)"/><path d="M-608.378 62.692c0-3.29 1.426-7.418 6.315-8.159 4.89-.74 11.636-.58 11.643 3 .007 3.581-6.754 3.72-11.643 3-4.889-.72-6.278-5.032-6.315-7.87" transform="matrix(0 .59093 .43269 0 547.292 874.612)"/></g><path d="M589.796 834.682c2.277 25.26 32.643 18.383 33.083 26.446.289 5.287 0 276.615 0 282.92M589.796 716.635c2.277-25.26 32.643-18.383 33.083-26.445.289-5.287 0-32.065 0-38.37" fill="none" stroke-linecap="round" transform="matrix(0 .20036 .1467 0 452.012 396.935)"/></g><path d="M631.912 188.462a11.589 34.767 0 1 1 0-69.534v34.767z" transform="matrix(-.72646 0 0 .76001 1080.037 403.545)" fill="#666" stroke="#333" stroke-width="2.692"/><path d="M551.189 539.257v-37.705h-13.346v7.881h7.256v21.317h-8.063v8.507z" fill="#ccc" stroke="#333" stroke-width="2"/><path d="M481.817 514.97l-2.253-5.068M485.371 513.972l3.184-4.542M486.093 515.15l4.923-2.555M485.977 516.162l5.52.546M479.134 516.26l-2.569-4.916M476.082 517.945l-2.998-4.666" fill="#ffb380" stroke="#fc0" stroke-width="1.5"/><g stroke="#000" stroke-width="2.347"><path d="M651.022 538.327s-33.783 2.829-46.167 11.857c-3.686 2.687-9.135 8.312-10.424 12.688-2.144 10.568-1.164 18.742 9.606 22.06 9.14 2.692 21.928 1.628 31.453 1.862 14.267 2.513 28.468 3.17 43.093-3.593 4.057-1.478 10.786-.376 10.786-.376" fill="#fca" stroke-width="3.00021704"/><path d="M597.594 562.678c3.622-4.48 10.08-5.398 15.806-6.029 5.278-.581 11.022-.966 15.887 1.161 2.831 1.238 5.67 3.442 6.775 6.327 1.703 4.442.681 9.868-1.248 14.216-6.377 9.346-25.587 5.574-34.127 4.68-2.506-.42-4.306-3.24-5.124-5.645-1.696-4.989-1.282-10.613 2.03-14.71z" fill="#ccc" stroke-width="3.00021704"/></g><path fill="none" stroke="#fff" stroke-width="1.5" stroke-linecap="round" d="M26.908 416.613h690.278v219.136H26.908z"/><g stroke="#000"><path d="M649.92 469.34c-7.722 3.435-64.927-10.243-61.226 4.833 1.74 7.09 8.712 13.565 15.41 17.518 11.443 6.754 38.93 8.583 38.93 8.583" fill="#ffb380" stroke-width="3.00021704"/><path d="M634.298 470.54c-3.128 5.574-42.322.85-44.054-5.179 5.44-1.536 46.587.663 44.054 5.179z" fill="#ccc" stroke-width="2.0005707999999998" stroke-linecap="round"/></g></svg>