<svg xmlns:ns0="http://www.iki.fi/pav/software/textext/" xmlns="http://www.w3.org/2000/svg" xmlns:xlink="http://www.w3.org/1999/xlink" width="744.094" height="1052.362"><title>Elektrisches Feld eines Plattenkondensators</title><defs><marker orient="auto" id="b" overflow="visible"><path d="M8.719 4.034L-2.207.016 8.719-4.002c-1.746 2.372-1.736 5.618 0 8.036z" transform="scale(.6)" fill-rule="evenodd" stroke-width=".625" stroke-linejoin="round"/></marker><marker orient="auto" id="a" overflow="visible"><path d="M8.719 4.034L-2.207.016 8.719-4.002c-1.746 2.372-1.736 5.618 0 8.036z" transform="scale(-.6)" fill-rule="evenodd" stroke-width=".625" stroke-linejoin="round"/></marker></defs><path style="marker:none" color="#000" fill="#fff" stroke="#fff" stroke-width="2" stroke-linecap="round" stroke-linejoin="round" overflow="visible" d="M81.458 281.583h581.178v489.196H81.458z"/><path d="M256.136 364.404h238.166" style="marker:none" color="#000" fill="purple" stroke="purple" stroke-width="2" stroke-linecap="round" stroke-linejoin="round" marker-end="url(#a)" overflow="visible"/><path style="marker:none" d="M228.63 706.654h296.985" color="#000" fill="#f0f" stroke="green" stroke-width="2" stroke-linecap="round" stroke-linejoin="round" marker-start="url(#b)" marker-end="url(#a)" overflow="visible"/><g ns0:text="$+Q$" ns0:preamble="/home/waldgeist/data/sphinx/inkscape-preamble.tex" transform="matrix(3 0 0 3 -476.218 -71.676)" fill="maroon"><defs><symbol overflow="visible" id="c"><path d="M4.078-2.297H6.86c.141 0 .329 0 .329-.203 0-.188-.188-.188-.329-.188H4.08v-2.796c0-.141 0-.329-.204-.329-.203 0-.203.188-.203.329v2.796H.89c-.141 0-.329 0-.329.188 0 .203.188.203.329.203h2.78V.5c0 .14 0 .328.204.328.203 0 .203-.187.203-.328zm0 0"/></symbol><symbol overflow="visible" id="d"><path d="M4.36-.063c1.546-.578 3.015-2.359 3.015-4.28 0-1.61-1.063-2.688-2.547-2.688-2.14 0-4.344 2.265-4.344 4.593C.484-.78 1.61.22 3.047.22c.25 0 .578-.047.969-.157-.032.625-.032.641-.032.782 0 .312 0 1.094.829 1.094C5.984 1.938 6.468.109 6.468 0c0-.063-.063-.094-.11-.094-.078 0-.093.047-.125.11C6 .719 5.422.969 5.078.969c-.469 0-.61-.266-.719-1.031zM2.483-.14C1.704-.453 1.36-1.219 1.36-2.125c0-.688.266-2.11 1.016-3.172.734-1.016 1.672-1.484 2.406-1.484.985 0 1.719.781 1.719 2.11 0 1-.516 3.343-2.188 4.265-.046-.344-.14-1.063-.875-1.063-.53 0-1.015.485-1.015 1.016 0 .187.062.297.062.312zm.61.11c-.14 0-.453 0-.453-.422 0-.406.375-.797.796-.797.422 0 .61.234.61.844 0 .14-.016.156-.11.203-.265.11-.562.172-.843.172zm0 0"/></symbol></defs><use height="1052.362" width="744.094" xlink:href="#c" x="223.432" y="134.765"/><use height="1052.362" width="744.094" xlink:href="#d" x="231.181" y="134.765"/></g><g transform="matrix(3 0 0 3 -167.34 -68.311)" ns0:preamble="/home/waldgeist/data/sphinx/inkscape-preamble.tex" ns0:text="$-Q$" fill="navy"><defs><symbol id="e" overflow="visible"><path d="M6.563-2.297c.171 0 .359 0 .359-.203 0-.188-.188-.188-.36-.188h-5.39c-.172 0-.344 0-.344.188 0 .203.172.203.344.203zm0 0"/></symbol><symbol id="f" overflow="visible"><path d="M4.36-.063c1.546-.578 3.015-2.359 3.015-4.28 0-1.61-1.063-2.688-2.547-2.688-2.14 0-4.344 2.265-4.344 4.593C.484-.78 1.61.22 3.047.22c.25 0 .578-.047.969-.157-.032.625-.032.641-.032.782 0 .312 0 1.094.829 1.094C5.984 1.938 6.468.109 6.468 0c0-.063-.063-.094-.11-.094-.078 0-.093.047-.125.11C6 .719 5.422.969 5.078.969c-.469 0-.61-.266-.719-1.031zM2.483-.14C1.704-.453 1.36-1.219 1.36-2.125c0-.688.266-2.11 1.016-3.172.734-1.016 1.672-1.484 2.406-1.484.985 0 1.719.781 1.719 2.11 0 1-.516 3.343-2.188 4.265-.046-.344-.14-1.063-.875-1.063-.53 0-1.015.485-1.015 1.016 0 .187.062.297.062.312zm.61.11c-.14 0-.453 0-.453-.422 0-.406.375-.797.796-.797.422 0 .61.234.61.844 0 .14-.016.156-.11.203-.265.11-.562.172-.843.172zm0 0"/></symbol></defs><use y="134.765" x="223.432" xlink:href="#e" width="744.094" height="1052.362"/><use y="134.765" x="231.181" xlink:href="#f" width="744.094" height="1052.362"/></g><path style="marker:none" color="#000" fill="#b3b3b3" stroke="#333" stroke-linecap="round" stroke-linejoin="round" overflow="visible" d="M216.74 352.016h11.891v322.868H216.74z"/><g stroke="maroon"><path style="marker:none" d="M256.136 365.88c0 7.657-6.207 13.864-13.864 13.864-7.657 0-13.864-6.207-13.864-13.864 0-7.656 6.207-13.864 13.864-13.864 7.657 0 13.864 6.208 13.864 13.864z" color="#000" fill="none" stroke-width="1.99981419" stroke-linecap="round" stroke-linejoin="round" overflow="visible"/><text y="711.074" x="-191.494" style="line-height:125%" transform="matrix(-.59365 0 0 .59353 138.071 -49.072)" font-size="38.121" font-weight="400" letter-spacing="0" word-spacing="0" fill="maroon" stroke-width="1.685" font-family="Sans"><tspan y="711.074" x="-191.494">+</tspan></text></g><g stroke="maroon"><path d="M256.136 398.674c0 7.657-6.207 13.864-13.864 13.864-7.657 0-13.864-6.207-13.864-13.864 0-7.657 6.207-13.864 13.864-13.864 7.657 0 13.864 6.207 13.864 13.864z" style="marker:none" color="#000" fill="none" stroke-width="1.99981419" stroke-linecap="round" stroke-linejoin="round" overflow="visible"/><text transform="matrix(-.59365 0 0 .59353 138.071 -16.278)" style="line-height:125%" x="-191.494" y="711.074" font-size="38.121" font-weight="400" letter-spacing="0" word-spacing="0" fill="maroon" stroke-width="1.685" font-family="Sans"><tspan x="-191.494" y="711.074">+</tspan></text></g><g stroke="maroon"><path style="marker:none" d="M256.136 431.467c0 7.657-6.207 13.864-13.864 13.864-7.657 0-13.864-6.207-13.864-13.864 0-7.657 6.207-13.864 13.864-13.864 7.657 0 13.864 6.207 13.864 13.864z" color="#000" fill="none" stroke-width="1.99981419" stroke-linecap="round" stroke-linejoin="round" overflow="visible"/><text y="711.074" x="-191.494" style="line-height:125%" transform="matrix(-.59365 0 0 .59353 138.071 16.515)" font-size="38.121" font-weight="400" letter-spacing="0" word-spacing="0" fill="maroon" stroke-width="1.685" font-family="Sans"><tspan y="711.074" x="-191.494">+</tspan></text></g><g stroke="maroon"><path d="M256.136 464.26c0 7.657-6.207 13.864-13.864 13.864-7.657 0-13.864-6.207-13.864-13.864 0-7.656 6.207-13.863 13.864-13.863 7.657 0 13.864 6.207 13.864 13.863z" style="marker:none" color="#000" fill="none" stroke-width="1.99981419" stroke-linecap="round" stroke-linejoin="round" overflow="visible"/><text transform="matrix(-.59365 0 0 .59353 138.071 49.309)" style="line-height:125%" x="-191.494" y="711.074" font-size="38.121" font-weight="400" letter-spacing="0" word-spacing="0" fill="maroon" stroke-width="1.685" font-family="Sans"><tspan x="-191.494" y="711.074">+</tspan></text></g><g stroke="maroon"><path style="marker:none" d="M256.136 497.054c0 7.657-6.207 13.864-13.864 13.864-7.657 0-13.864-6.207-13.864-13.864 0-7.657 6.207-13.864 13.864-13.864 7.657 0 13.864 6.207 13.864 13.864z" color="#000" fill="none" stroke-width="1.99981419" stroke-linecap="round" stroke-linejoin="round" overflow="visible"/><text y="711.074" x="-191.494" style="line-height:125%" transform="matrix(-.59365 0 0 .59353 138.071 82.102)" font-size="38.121" font-weight="400" letter-spacing="0" word-spacing="0" fill="maroon" stroke-width="1.685" font-family="Sans"><tspan y="711.074" x="-191.494">+</tspan></text></g><g stroke="maroon"><path d="M256.136 529.847c0 7.657-6.207 13.864-13.864 13.864-7.657 0-13.864-6.207-13.864-13.864 0-7.657 6.207-13.864 13.864-13.864 7.657 0 13.864 6.207 13.864 13.864z" style="marker:none" color="#000" fill="none" stroke-width="1.99981419" stroke-linecap="round" stroke-linejoin="round" overflow="visible"/><text transform="matrix(-.59365 0 0 .59353 138.071 114.895)" style="line-height:125%" x="-191.494" y="711.074" font-size="38.121" font-weight="400" letter-spacing="0" word-spacing="0" fill="maroon" stroke-width="1.685" font-family="Sans"><tspan x="-191.494" y="711.074">+</tspan></text></g><g stroke="maroon"><path style="marker:none" d="M256.136 562.64c0 7.657-6.207 13.865-13.864 13.865-7.657 0-13.864-6.208-13.864-13.864 0-7.657 6.207-13.864 13.864-13.864 7.657 0 13.864 6.207 13.864 13.864z" color="#000" fill="none" stroke-width="1.99981419" stroke-linecap="round" stroke-linejoin="round" overflow="visible"/><text y="711.074" x="-191.494" style="line-height:125%" transform="matrix(-.59365 0 0 .59353 138.071 147.689)" font-size="38.121" font-weight="400" letter-spacing="0" word-spacing="0" fill="maroon" stroke-width="1.685" font-family="Sans"><tspan y="711.074" x="-191.494">+</tspan></text></g><g stroke="maroon"><path d="M256.136 595.434c0 7.657-6.207 13.864-13.864 13.864-7.657 0-13.864-6.207-13.864-13.864 0-7.657 6.207-13.864 13.864-13.864 7.657 0 13.864 6.207 13.864 13.864z" style="marker:none" color="#000" fill="none" stroke-width="1.99981419" stroke-linecap="round" stroke-linejoin="round" overflow="visible"/><text transform="matrix(-.59365 0 0 .59353 138.071 180.482)" style="line-height:125%" x="-191.494" y="711.074" font-size="38.121" font-weight="400" letter-spacing="0" word-spacing="0" fill="maroon" stroke-width="1.685" font-family="Sans"><tspan x="-191.494" y="711.074">+</tspan></text></g><g stroke="maroon"><path style="marker:none" d="M256.136 628.227c0 7.657-6.207 13.864-13.864 13.864-7.657 0-13.864-6.207-13.864-13.864 0-7.656 6.207-13.864 13.864-13.864 7.657 0 13.864 6.208 13.864 13.864z" color="#000" fill="none" stroke-width="1.99981419" stroke-linecap="round" stroke-linejoin="round" overflow="visible"/><text y="711.074" x="-191.494" style="line-height:125%" transform="matrix(-.59365 0 0 .59353 138.071 213.275)" font-size="38.121" font-weight="400" letter-spacing="0" word-spacing="0" fill="maroon" stroke-width="1.685" font-family="Sans"><tspan y="711.074" x="-191.494">+</tspan></text></g><g stroke="maroon"><path d="M256.136 661.02c0 7.658-6.207 13.865-13.864 13.865-7.657 0-13.864-6.207-13.864-13.864 0-7.657 6.207-13.864 13.864-13.864 7.657 0 13.864 6.207 13.864 13.864z" style="marker:none" color="#000" fill="none" stroke-width="1.99981419" stroke-linecap="round" stroke-linejoin="round" overflow="visible"/><text transform="matrix(-.59365 0 0 .59353 138.071 246.069)" style="line-height:125%" x="-191.494" y="711.074" font-size="38.121" font-weight="400" letter-spacing="0" word-spacing="0" fill="maroon" stroke-width="1.685" font-family="Sans"><tspan x="-191.494" y="711.074">+</tspan></text></g><path style="marker:none" color="#000" fill="#b3b3b3" stroke="#333" stroke-linecap="round" stroke-linejoin="round" overflow="visible" d="M525.615 352.016h11.891v322.868h-11.891z"/><g stroke="navy"><path style="marker:none" d="M525.615 364.385c0 7.656-6.207 13.864-13.864 13.864-7.657 0-13.864-6.208-13.864-13.864 0-7.657 6.207-13.864 13.864-13.864 7.657 0 13.864 6.207 13.864 13.864z" color="#000" fill="none" stroke-width="1.99981419" stroke-linecap="round" stroke-linejoin="round" overflow="visible"/><text transform="matrix(-.59365 0 0 .59353 305.124 -50.567)" style="line-height:125%" x="-361.815" y="720.2" font-size="76.233" font-weight="400" letter-spacing="0" word-spacing="0" fill="navy" stroke-width="1.192" font-family="Sans"><tspan x="-361.815" y="720.2">-</tspan></text></g><g stroke="navy"><path d="M525.615 661.02c0 7.658-6.207 13.865-13.864 13.865-7.657 0-13.864-6.207-13.864-13.864 0-7.657 6.207-13.864 13.864-13.864 7.657 0 13.864 6.207 13.864 13.864z" style="marker:none" color="#000" fill="none" stroke-width="1.99981419" stroke-linecap="round" stroke-linejoin="round" overflow="visible"/><text y="720.2" x="-361.815" style="line-height:125%" transform="matrix(-.59365 0 0 .59353 305.124 246.069)" font-size="76.233" font-weight="400" letter-spacing="0" word-spacing="0" fill="navy" stroke-width="1.192" font-family="Sans"><tspan y="720.2" x="-361.815">-</tspan></text></g><g stroke="navy"><path style="marker:none" d="M525.615 628.061c0 7.657-6.207 13.864-13.864 13.864-7.657 0-13.864-6.207-13.864-13.864 0-7.657 6.207-13.864 13.864-13.864 7.657 0 13.864 6.207 13.864 13.864z" color="#000" fill="none" stroke-width="1.99981419" stroke-linecap="round" stroke-linejoin="round" overflow="visible"/><text transform="matrix(-.59365 0 0 .59353 305.124 213.11)" style="line-height:125%" x="-361.815" y="720.2" font-size="76.233" font-weight="400" letter-spacing="0" word-spacing="0" fill="navy" stroke-width="1.192" font-family="Sans"><tspan x="-361.815" y="720.2">-</tspan></text></g><g stroke="navy"><path d="M525.615 595.102c0 7.656-6.207 13.863-13.864 13.863-7.657 0-13.864-6.207-13.864-13.863 0-7.657 6.207-13.864 13.864-13.864 7.657 0 13.864 6.207 13.864 13.864z" style="marker:none" color="#000" fill="none" stroke-width="1.99981419" stroke-linecap="round" stroke-linejoin="round" overflow="visible"/><text y="720.2" x="-361.815" style="line-height:125%" transform="matrix(-.59365 0 0 .59353 305.124 180.15)" font-size="76.233" font-weight="400" letter-spacing="0" word-spacing="0" fill="navy" stroke-width="1.192" font-family="Sans"><tspan y="720.2" x="-361.815">-</tspan></text></g><g stroke="navy"><path style="marker:none" d="M525.615 562.142c0 7.657-6.207 13.864-13.864 13.864-7.657 0-13.864-6.207-13.864-13.864 0-7.657 6.207-13.864 13.864-13.864 7.657 0 13.864 6.207 13.864 13.864z" color="#000" fill="none" stroke-width="1.99981419" stroke-linecap="round" stroke-linejoin="round" overflow="visible"/><text transform="matrix(-.59365 0 0 .59353 305.124 147.19)" style="line-height:125%" x="-361.815" y="720.2" font-size="76.233" font-weight="400" letter-spacing="0" word-spacing="0" fill="navy" stroke-width="1.192" font-family="Sans"><tspan x="-361.815" y="720.2">-</tspan></text></g><g stroke="navy"><path d="M525.615 529.182c0 7.657-6.207 13.864-13.864 13.864-7.657 0-13.864-6.207-13.864-13.864 0-7.656 6.207-13.863 13.864-13.863 7.657 0 13.864 6.207 13.864 13.863z" style="marker:none" color="#000" fill="none" stroke-width="1.99981419" stroke-linecap="round" stroke-linejoin="round" overflow="visible"/><text y="720.2" x="-361.815" style="line-height:125%" transform="matrix(-.59365 0 0 .59353 305.124 114.23)" font-size="76.233" font-weight="400" letter-spacing="0" word-spacing="0" fill="navy" stroke-width="1.192" font-family="Sans"><tspan y="720.2" x="-361.815">-</tspan></text></g><g stroke="navy"><path style="marker:none" d="M525.615 496.223c0 7.657-6.207 13.864-13.864 13.864-7.657 0-13.864-6.207-13.864-13.864 0-7.657 6.207-13.864 13.864-13.864 7.657 0 13.864 6.207 13.864 13.864z" color="#000" fill="none" stroke-width="1.99981419" stroke-linecap="round" stroke-linejoin="round" overflow="visible"/><text transform="matrix(-.59365 0 0 .59353 305.124 81.271)" style="line-height:125%" x="-361.815" y="720.2" font-size="76.233" font-weight="400" letter-spacing="0" word-spacing="0" fill="navy" stroke-width="1.192" font-family="Sans"><tspan x="-361.815" y="720.2">-</tspan></text></g><g stroke="navy"><path d="M525.615 463.263c0 7.657-6.207 13.864-13.864 13.864-7.657 0-13.864-6.207-13.864-13.864 0-7.657 6.207-13.864 13.864-13.864 7.657 0 13.864 6.207 13.864 13.864z" style="marker:none" color="#000" fill="none" stroke-width="1.99981419" stroke-linecap="round" stroke-linejoin="round" overflow="visible"/><text y="720.2" x="-361.815" style="line-height:125%" transform="matrix(-.59365 0 0 .59353 305.124 48.311)" font-size="76.233" font-weight="400" letter-spacing="0" word-spacing="0" fill="navy" stroke-width="1.192" font-family="Sans"><tspan y="720.2" x="-361.815">-</tspan></text></g><g stroke="navy"><path style="marker:none" d="M525.615 430.304c0 7.657-6.207 13.864-13.864 13.864-7.657 0-13.864-6.207-13.864-13.864 0-7.657 6.207-13.864 13.864-13.864 7.657 0 13.864 6.207 13.864 13.864z" color="#000" fill="none" stroke-width="1.99981419" stroke-linecap="round" stroke-linejoin="round" overflow="visible"/><text transform="matrix(-.59365 0 0 .59353 305.124 15.352)" style="line-height:125%" x="-361.815" y="720.2" font-size="76.233" font-weight="400" letter-spacing="0" word-spacing="0" fill="navy" stroke-width="1.192" font-family="Sans"><tspan x="-361.815" y="720.2">-</tspan></text></g><g stroke="navy"><path d="M525.615 397.344c0 7.657-6.207 13.864-13.864 13.864-7.657 0-13.864-6.207-13.864-13.864 0-7.657 6.207-13.864 13.864-13.864 7.657 0 13.864 6.207 13.864 13.864z" style="marker:none" color="#000" fill="none" stroke-width="1.99981419" stroke-linecap="round" stroke-linejoin="round" overflow="visible"/><text y="720.2" x="-361.815" style="line-height:125%" transform="matrix(-.59365 0 0 .59353 305.124 -17.608)" font-size="76.233" font-weight="400" letter-spacing="0" word-spacing="0" fill="navy" stroke-width="1.192" font-family="Sans"><tspan y="720.2" x="-361.815">-</tspan></text></g><path style="marker:none" d="M256.136 397.361h238.166M256.136 430.319h238.166M256.136 463.276h238.166M256.136 496.234h238.166M256.136 529.19l238.166.001M256.136 562.148h238.166M256.136 595.106h238.166M256.136 628.063h238.166M256.136 661.02h238.166" color="#000" fill="purple" stroke="purple" stroke-width="2" stroke-linecap="round" stroke-linejoin="round" marker-end="url(#a)" overflow="visible"/><g ns0:text="$\\vec{E}$" ns0:preamble="/home/waldgeist/data/sphinx/inkscape-preamble.tex" transform="matrix(3 0 0 3 -306.641 -51.644)" fill="purple"><defs><symbol overflow="visible" id="g"><path d="M5.36-5.938c-.141.141-.47.422-.47.594 0 .094.094.203.188.203s.14-.078.203-.14c.11-.14.344-.422.782-.64.062-.048.171-.095.171-.204 0-.11-.078-.156-.14-.203a1.034 1.034 0 0 1-.407-.563c-.03-.093-.062-.234-.203-.234-.14 0-.203.14-.203.219 0 .047.078.36.235.578h-3.36c-.156 0-.344 0-.344.203 0 .188.188.188.344.188zm0 0"/></symbol><symbol overflow="visible" id="h"><path d="M7.063-2.328c.015-.047.046-.11.046-.14 0 0 0-.11-.125-.11-.093 0-.109.062-.125.125-.656 1.469-1.015 2.14-2.718 2.14H2.469c-.11-.015-.14-.03-.14-.109 0-.031 0-.047.046-.219l.688-2.734h.984c.844 0 .844.219.844.469 0 .062 0 .187-.063.484-.016.047-.031.078-.031.11 0 .046.031.109.125.109.078 0 .11-.047.156-.203l.563-2.328c0-.063-.047-.11-.125-.11-.079 0-.11.063-.125.172-.22.766-.391 1-1.313 1h-.937l.593-2.406c.094-.36.11-.39.547-.39h1.407c1.203 0 1.515.28 1.515 1.109 0 .234 0 .25-.047.53 0 .048-.015.126-.015.173 0 .047.03.125.125.125.109 0 .125-.063.14-.25l.203-1.735c.032-.265-.015-.265-.265-.265H2.297c-.188 0-.297 0-.297.203 0 .11.094.11.281.11.375 0 .656 0 .656.171 0 .047 0 .063-.062.25L1.562-.78c-.093.39-.109.469-.906.469-.172 0-.281 0-.281.187C.375 0 .469 0 .656 0h5.172c.234 0 .25-.016.313-.172zm0 0"/></symbol></defs><use height="1052.362" width="744.094" xlink:href="#g" x="224.97" y="132.246"/><use height="1052.362" width="744.094" xlink:href="#h" x="223.432" y="134.765"/></g><g transform="matrix(3 0 0 3 -305.875 336.214)" ns0:preamble="/home/waldgeist/data/sphinx/inkscape-preamble.tex" ns0:text="$\\vec{d}$" fill="green"><defs><symbol id="i" overflow="visible"><path d="M5.36-5.938c-.141.141-.47.422-.47.594 0 .094.094.203.188.203s.14-.078.203-.14c.11-.14.344-.422.782-.64.062-.048.171-.095.171-.204 0-.11-.078-.156-.14-.203a1.034 1.034 0 0 1-.407-.563c-.03-.093-.062-.234-.203-.234-.14 0-.203.14-.203.219 0 .047.078.36.235.578h-3.36c-.156 0-.344 0-.344.203 0 .188.188.188.344.188zm0 0"/></symbol><symbol id="j" overflow="visible"><path d="M5.14-6.813s0-.109-.124-.109c-.157 0-1.094.094-1.266.11-.078.015-.14.062-.14.187s.093.125.234.125c.484 0 .5.063.5.172l-.032.203-.593 2.36c-.188-.376-.469-.641-.922-.641-1.156 0-2.39 1.468-2.39 2.922C.406-.547.952.109 1.718.109c.203 0 .703-.046 1.297-.75a.91.91 0 0 0 .906.75c.36 0 .578-.234.75-.546a6.49 6.49 0 0 0 .297-.985c0-.11-.094-.11-.125-.11-.094 0-.11.048-.14.188-.173.64-.345 1.235-.75 1.235-.282 0-.298-.266-.298-.454 0-.25.016-.312.047-.484zM3.079-1.188c-.062.188-.062.204-.203.375-.438.547-.844.704-1.125.704-.5 0-.64-.547-.64-.938 0-.5.312-1.719.546-2.187.313-.579.75-.954 1.157-.954.64 0 .78.813.78.875a.562.562 0 0 1-.03.172zm0 0"/></symbol></defs><use y="132.136" x="224.428" xlink:href="#i" width="744.094" height="1052.362"/><use y="134.765" x="223.432" xlink:href="#j" width="744.094" height="1052.362"/></g></svg>