<svg xmlns:ns0="http://www.iki.fi/pav/software/textext/" xmlns="http://www.w3.org/2000/svg" xmlns:xlink="http://www.w3.org/1999/xlink" width="744.094" height="1052.362"><title>Elektrische Polarisation</title><defs><marker orient="auto" id="a" overflow="visible"><path d="M8.719 4.034L-2.207.016 8.719-4.002c-1.746 2.372-1.736 5.618 0 8.036z" transform="scale(-.6)" fill-rule="evenodd" stroke-width=".625" stroke-linejoin="round"/></marker></defs><path style="marker:none" color="#000" fill="#fff" stroke="#fff" stroke-width="2" stroke-linecap="round" stroke-linejoin="round" overflow="visible" d="M81.458 310.824h581.178v430.715H81.458z"/><path style="marker:none" color="#000" fill="#ccc" stroke="#333" stroke-width="1.5" stroke-linecap="round" stroke-linejoin="round" overflow="visible" d="M282.756 412.592H457.28v248.112H282.756z"/><path d="M256.136 396.88h238.331" style="marker:none" color="#000" fill="purple" stroke="purple" stroke-width="2" stroke-linecap="round" stroke-linejoin="round" marker-end="url(#a)" overflow="visible"/><g ns0:text="$+Q$" ns0:preamble="/home/waldgeist/data/sphinx/inkscape-preamble.tex" transform="matrix(3 0 0 3 -476.218 -39.2)" fill="maroon"><defs><symbol overflow="visible" id="b"><path d="M4.078-2.297H6.86c.141 0 .329 0 .329-.203 0-.188-.188-.188-.329-.188H4.08v-2.796c0-.141 0-.329-.204-.329-.203 0-.203.188-.203.329v2.796H.89c-.141 0-.329 0-.329.188 0 .203.188.203.329.203h2.78V.5c0 .14 0 .328.204.328.203 0 .203-.187.203-.328zm0 0"/></symbol><symbol overflow="visible" id="c"><path d="M4.36-.063c1.546-.578 3.015-2.359 3.015-4.28 0-1.61-1.063-2.688-2.547-2.688-2.14 0-4.344 2.265-4.344 4.593C.484-.78 1.61.22 3.047.22c.25 0 .578-.047.969-.157-.032.625-.032.641-.032.782 0 .312 0 1.094.829 1.094C5.984 1.938 6.468.109 6.468 0c0-.063-.063-.094-.11-.094-.078 0-.093.047-.125.11C6 .719 5.422.969 5.078.969c-.469 0-.61-.266-.719-1.031zM2.483-.14C1.704-.453 1.36-1.219 1.36-2.125c0-.688.266-2.11 1.016-3.172.734-1.016 1.672-1.484 2.406-1.484.985 0 1.719.781 1.719 2.11 0 1-.516 3.343-2.188 4.265-.046-.344-.14-1.063-.875-1.063-.53 0-1.015.485-1.015 1.016 0 .187.062.297.062.312zm.61.11c-.14 0-.453 0-.453-.422 0-.406.375-.797.796-.797.422 0 .61.234.61.844 0 .14-.016.156-.11.203-.265.11-.562.172-.843.172zm0 0"/></symbol></defs><use height="1052.362" width="744.094" xlink:href="#b" x="223.432" y="134.765"/><use height="1052.362" width="744.094" xlink:href="#c" x="231.181" y="134.765"/></g><g transform="matrix(3 0 0 3 -167.34 -35.835)" ns0:preamble="/home/waldgeist/data/sphinx/inkscape-preamble.tex" ns0:text="$-Q$" fill="navy"><defs><symbol id="d" overflow="visible"><path d="M6.563-2.297c.171 0 .359 0 .359-.203 0-.188-.188-.188-.36-.188h-5.39c-.172 0-.344 0-.344.188 0 .203.172.203.344.203zm0 0"/></symbol><symbol id="e" overflow="visible"><path d="M4.36-.063c1.546-.578 3.015-2.359 3.015-4.28 0-1.61-1.063-2.688-2.547-2.688-2.14 0-4.344 2.265-4.344 4.593C.484-.78 1.61.22 3.047.22c.25 0 .578-.047.969-.157-.032.625-.032.641-.032.782 0 .312 0 1.094.829 1.094C5.984 1.938 6.468.109 6.468 0c0-.063-.063-.094-.11-.094-.078 0-.093.047-.125.11C6 .719 5.422.969 5.078.969c-.469 0-.61-.266-.719-1.031zM2.483-.14C1.704-.453 1.36-1.219 1.36-2.125c0-.688.266-2.11 1.016-3.172.734-1.016 1.672-1.484 2.406-1.484.985 0 1.719.781 1.719 2.11 0 1-.516 3.343-2.188 4.265-.046-.344-.14-1.063-.875-1.063-.53 0-1.015.485-1.015 1.016 0 .187.062.297.062.312zm.61.11c-.14 0-.453 0-.453-.422 0-.406.375-.797.796-.797.422 0 .61.234.61.844 0 .14-.016.156-.11.203-.265.11-.562.172-.843.172zm0 0"/></symbol></defs><use y="134.765" x="223.432" xlink:href="#d" width="744.094" height="1052.362"/><use y="134.765" x="231.181" xlink:href="#e" width="744.094" height="1052.362"/></g><path style="marker:none" color="#000" fill="#b3b3b3" stroke="#333" stroke-linecap="round" stroke-linejoin="round" overflow="visible" d="M216.74 384.493h11.891v322.868H216.74z"/><g stroke="maroon"><path style="marker:none" d="M256.136 398.357c0 7.657-6.207 13.864-13.864 13.864-7.657 0-13.864-6.207-13.864-13.864 0-7.657 6.207-13.864 13.864-13.864 7.657 0 13.864 6.207 13.864 13.864z" color="#000" fill="none" stroke-width="1.99981419" stroke-linecap="round" stroke-linejoin="round" overflow="visible"/><text y="711.074" x="-191.494" style="line-height:125%" transform="matrix(-.59365 0 0 .59353 138.071 -16.595)" font-size="38.121" font-weight="400" letter-spacing="0" word-spacing="0" fill="maroon" stroke-width="1.685" font-family="Sans"><tspan y="711.074" x="-191.494">+</tspan></text></g><g stroke="maroon"><path d="M256.136 431.15c0 7.657-6.207 13.864-13.864 13.864-7.657 0-13.864-6.207-13.864-13.864 0-7.657 6.207-13.864 13.864-13.864 7.657 0 13.864 6.207 13.864 13.864z" style="marker:none" color="#000" fill="none" stroke-width="1.99981419" stroke-linecap="round" stroke-linejoin="round" overflow="visible"/><text transform="matrix(-.59365 0 0 .59353 138.071 16.198)" style="line-height:125%" x="-191.494" y="711.074" font-size="38.121" font-weight="400" letter-spacing="0" word-spacing="0" fill="maroon" stroke-width="1.685" font-family="Sans"><tspan x="-191.494" y="711.074">+</tspan></text></g><g stroke="maroon"><path style="marker:none" d="M256.136 463.944c0 7.656-6.207 13.863-13.864 13.863-7.657 0-13.864-6.207-13.864-13.863 0-7.657 6.207-13.864 13.864-13.864 7.657 0 13.864 6.207 13.864 13.864z" color="#000" fill="none" stroke-width="1.99981419" stroke-linecap="round" stroke-linejoin="round" overflow="visible"/><text y="711.074" x="-191.494" style="line-height:125%" transform="matrix(-.59365 0 0 .59353 138.071 48.992)" font-size="38.121" font-weight="400" letter-spacing="0" word-spacing="0" fill="maroon" stroke-width="1.685" font-family="Sans"><tspan y="711.074" x="-191.494">+</tspan></text></g><g stroke="maroon"><path d="M256.136 496.737c0 7.657-6.207 13.864-13.864 13.864-7.657 0-13.864-6.207-13.864-13.864 0-7.657 6.207-13.864 13.864-13.864 7.657 0 13.864 6.207 13.864 13.864z" style="marker:none" color="#000" fill="none" stroke-width="1.99981419" stroke-linecap="round" stroke-linejoin="round" overflow="visible"/><text transform="matrix(-.59365 0 0 .59353 138.071 81.785)" style="line-height:125%" x="-191.494" y="711.074" font-size="38.121" font-weight="400" letter-spacing="0" word-spacing="0" fill="maroon" stroke-width="1.685" font-family="Sans"><tspan x="-191.494" y="711.074">+</tspan></text></g><g stroke="maroon"><path style="marker:none" d="M256.136 529.53c0 7.657-6.207 13.864-13.864 13.864-7.657 0-13.864-6.207-13.864-13.864 0-7.657 6.207-13.864 13.864-13.864 7.657 0 13.864 6.207 13.864 13.864z" color="#000" fill="none" stroke-width="1.99981419" stroke-linecap="round" stroke-linejoin="round" overflow="visible"/><text y="711.074" x="-191.494" style="line-height:125%" transform="matrix(-.59365 0 0 .59353 138.071 114.578)" font-size="38.121" font-weight="400" letter-spacing="0" word-spacing="0" fill="maroon" stroke-width="1.685" font-family="Sans"><tspan y="711.074" x="-191.494">+</tspan></text></g><g stroke="maroon"><path d="M256.136 562.324c0 7.656-6.207 13.864-13.864 13.864-7.657 0-13.864-6.208-13.864-13.864 0-7.657 6.207-13.864 13.864-13.864 7.657 0 13.864 6.207 13.864 13.864z" style="marker:none" color="#000" fill="none" stroke-width="1.99981419" stroke-linecap="round" stroke-linejoin="round" overflow="visible"/><text transform="matrix(-.59365 0 0 .59353 138.071 147.372)" style="line-height:125%" x="-191.494" y="711.074" font-size="38.121" font-weight="400" letter-spacing="0" word-spacing="0" fill="maroon" stroke-width="1.685" font-family="Sans"><tspan x="-191.494" y="711.074">+</tspan></text></g><g stroke="maroon"><path style="marker:none" d="M256.136 595.117c0 7.657-6.207 13.864-13.864 13.864-7.657 0-13.864-6.207-13.864-13.864 0-7.657 6.207-13.864 13.864-13.864 7.657 0 13.864 6.207 13.864 13.864z" color="#000" fill="none" stroke-width="1.99981419" stroke-linecap="round" stroke-linejoin="round" overflow="visible"/><text y="711.074" x="-191.494" style="line-height:125%" transform="matrix(-.59365 0 0 .59353 138.071 180.165)" font-size="38.121" font-weight="400" letter-spacing="0" word-spacing="0" fill="maroon" stroke-width="1.685" font-family="Sans"><tspan y="711.074" x="-191.494">+</tspan></text></g><g stroke="maroon"><path d="M256.136 627.91c0 7.657-6.207 13.864-13.864 13.864-7.657 0-13.864-6.207-13.864-13.864 0-7.656 6.207-13.864 13.864-13.864 7.657 0 13.864 6.208 13.864 13.864z" style="marker:none" color="#000" fill="none" stroke-width="1.99981419" stroke-linecap="round" stroke-linejoin="round" overflow="visible"/><text transform="matrix(-.59365 0 0 .59353 138.071 212.958)" style="line-height:125%" x="-191.494" y="711.074" font-size="38.121" font-weight="400" letter-spacing="0" word-spacing="0" fill="maroon" stroke-width="1.685" font-family="Sans"><tspan x="-191.494" y="711.074">+</tspan></text></g><g stroke="maroon"><path style="marker:none" d="M256.136 660.704c0 7.657-6.207 13.864-13.864 13.864-7.657 0-13.864-6.207-13.864-13.864 0-7.657 6.207-13.864 13.864-13.864 7.657 0 13.864 6.207 13.864 13.864z" color="#000" fill="none" stroke-width="1.99981419" stroke-linecap="round" stroke-linejoin="round" overflow="visible"/><text y="711.074" x="-191.494" style="line-height:125%" transform="matrix(-.59365 0 0 .59353 138.071 245.752)" font-size="38.121" font-weight="400" letter-spacing="0" word-spacing="0" fill="maroon" stroke-width="1.685" font-family="Sans"><tspan y="711.074" x="-191.494">+</tspan></text></g><g stroke="maroon"><path d="M256.136 693.497c0 7.657-6.207 13.864-13.864 13.864-7.657 0-13.864-6.207-13.864-13.864 0-7.657 6.207-13.864 13.864-13.864 7.657 0 13.864 6.207 13.864 13.864z" style="marker:none" color="#000" fill="none" stroke-width="1.99981419" stroke-linecap="round" stroke-linejoin="round" overflow="visible"/><text transform="matrix(-.59365 0 0 .59353 138.071 278.545)" style="line-height:125%" x="-191.494" y="711.074" font-size="38.121" font-weight="400" letter-spacing="0" word-spacing="0" fill="maroon" stroke-width="1.685" font-family="Sans"><tspan x="-191.494" y="711.074">+</tspan></text></g><path style="marker:none" color="#000" fill="#b3b3b3" stroke="#333" stroke-linecap="round" stroke-linejoin="round" overflow="visible" d="M525.615 384.493h11.891v322.868h-11.891z"/><g stroke="navy"><path style="marker:none" d="M525.615 396.861c0 7.657-6.207 13.864-13.864 13.864-7.657 0-13.864-6.207-13.864-13.864 0-7.657 6.207-13.864 13.864-13.864 7.657 0 13.864 6.207 13.864 13.864z" color="#000" fill="none" stroke-width="1.99981419" stroke-linecap="round" stroke-linejoin="round" overflow="visible"/><text transform="matrix(-.59365 0 0 .59353 305.124 -18.09)" style="line-height:125%" x="-361.815" y="720.2" font-size="76.233" font-weight="400" letter-spacing="0" word-spacing="0" fill="navy" stroke-width="1.192" font-family="Sans"><tspan x="-361.815" y="720.2">-</tspan></text></g><g stroke="navy"><path d="M525.615 693.497c0 7.657-6.207 13.864-13.864 13.864-7.657 0-13.864-6.207-13.864-13.864 0-7.657 6.207-13.864 13.864-13.864 7.657 0 13.864 6.207 13.864 13.864z" style="marker:none" color="#000" fill="none" stroke-width="1.99981419" stroke-linecap="round" stroke-linejoin="round" overflow="visible"/><text y="720.2" x="-361.815" style="line-height:125%" transform="matrix(-.59365 0 0 .59353 305.124 278.545)" font-size="76.233" font-weight="400" letter-spacing="0" word-spacing="0" fill="navy" stroke-width="1.192" font-family="Sans"><tspan y="720.2" x="-361.815">-</tspan></text></g><g stroke="navy"><path style="marker:none" d="M525.615 660.538c0 7.656-6.207 13.863-13.864 13.863-7.657 0-13.864-6.207-13.864-13.863 0-7.657 6.207-13.864 13.864-13.864 7.657 0 13.864 6.207 13.864 13.864z" color="#000" fill="none" stroke-width="1.99981419" stroke-linecap="round" stroke-linejoin="round" overflow="visible"/><text transform="matrix(-.59365 0 0 .59353 305.124 245.586)" style="line-height:125%" x="-361.815" y="720.2" font-size="76.233" font-weight="400" letter-spacing="0" word-spacing="0" fill="navy" stroke-width="1.192" font-family="Sans"><tspan x="-361.815" y="720.2">-</tspan></text></g><g stroke="navy"><path d="M525.615 627.578c0 7.657-6.207 13.864-13.864 13.864-7.657 0-13.864-6.207-13.864-13.864 0-7.657 6.207-13.864 13.864-13.864 7.657 0 13.864 6.207 13.864 13.864z" style="marker:none" color="#000" fill="none" stroke-width="1.99981419" stroke-linecap="round" stroke-linejoin="round" overflow="visible"/><text y="720.2" x="-361.815" style="line-height:125%" transform="matrix(-.59365 0 0 .59353 305.124 212.626)" font-size="76.233" font-weight="400" letter-spacing="0" word-spacing="0" fill="navy" stroke-width="1.192" font-family="Sans"><tspan y="720.2" x="-361.815">-</tspan></text></g><g stroke="navy"><path style="marker:none" d="M525.615 594.618c0 7.657-6.207 13.864-13.864 13.864-7.657 0-13.864-6.207-13.864-13.864 0-7.656 6.207-13.864 13.864-13.864 7.657 0 13.864 6.208 13.864 13.864z" color="#000" fill="none" stroke-width="1.99981419" stroke-linecap="round" stroke-linejoin="round" overflow="visible"/><text transform="matrix(-.59365 0 0 .59353 305.124 179.666)" style="line-height:125%" x="-361.815" y="720.2" font-size="76.233" font-weight="400" letter-spacing="0" word-spacing="0" fill="navy" stroke-width="1.192" font-family="Sans"><tspan x="-361.815" y="720.2">-</tspan></text></g><g stroke="navy"><path d="M525.615 561.659c0 7.657-6.207 13.864-13.864 13.864-7.657 0-13.864-6.207-13.864-13.864 0-7.657 6.207-13.864 13.864-13.864 7.657 0 13.864 6.207 13.864 13.864z" style="marker:none" color="#000" fill="none" stroke-width="1.99981419" stroke-linecap="round" stroke-linejoin="round" overflow="visible"/><text y="720.2" x="-361.815" style="line-height:125%" transform="matrix(-.59365 0 0 .59353 305.124 146.707)" font-size="76.233" font-weight="400" letter-spacing="0" word-spacing="0" fill="navy" stroke-width="1.192" font-family="Sans"><tspan y="720.2" x="-361.815">-</tspan></text></g><g stroke="navy"><path style="marker:none" d="M525.615 528.7c0 7.656-6.207 13.863-13.864 13.863-7.657 0-13.864-6.207-13.864-13.864 0-7.657 6.207-13.864 13.864-13.864 7.657 0 13.864 6.207 13.864 13.864z" color="#000" fill="none" stroke-width="1.99981419" stroke-linecap="round" stroke-linejoin="round" overflow="visible"/><text transform="matrix(-.59365 0 0 .59353 305.124 113.747)" style="line-height:125%" x="-361.815" y="720.2" font-size="76.233" font-weight="400" letter-spacing="0" word-spacing="0" fill="navy" stroke-width="1.192" font-family="Sans"><tspan x="-361.815" y="720.2">-</tspan></text></g><g stroke="navy"><path d="M525.615 495.74c0 7.656-6.207 13.864-13.864 13.864-7.657 0-13.864-6.208-13.864-13.864 0-7.657 6.207-13.864 13.864-13.864 7.657 0 13.864 6.207 13.864 13.864z" style="marker:none" color="#000" fill="none" stroke-width="1.99981419" stroke-linecap="round" stroke-linejoin="round" overflow="visible"/><text y="720.2" x="-361.815" style="line-height:125%" transform="matrix(-.59365 0 0 .59353 305.124 80.788)" font-size="76.233" font-weight="400" letter-spacing="0" word-spacing="0" fill="navy" stroke-width="1.192" font-family="Sans"><tspan y="720.2" x="-361.815">-</tspan></text></g><g stroke="navy"><path style="marker:none" d="M525.615 462.78c0 7.657-6.207 13.864-13.864 13.864-7.657 0-13.864-6.207-13.864-13.864 0-7.657 6.207-13.864 13.864-13.864 7.657 0 13.864 6.207 13.864 13.864z" color="#000" fill="none" stroke-width="1.99981419" stroke-linecap="round" stroke-linejoin="round" overflow="visible"/><text transform="matrix(-.59365 0 0 .59353 305.124 47.828)" style="line-height:125%" x="-361.815" y="720.2" font-size="76.233" font-weight="400" letter-spacing="0" word-spacing="0" fill="navy" stroke-width="1.192" font-family="Sans"><tspan x="-361.815" y="720.2">-</tspan></text></g><g stroke="navy"><path d="M525.615 429.82c0 7.657-6.207 13.865-13.864 13.865-7.657 0-13.864-6.208-13.864-13.864 0-7.657 6.207-13.864 13.864-13.864 7.657 0 13.864 6.207 13.864 13.864z" style="marker:none" color="#000" fill="none" stroke-width="1.99981419" stroke-linecap="round" stroke-linejoin="round" overflow="visible"/><text y="720.2" x="-361.815" style="line-height:125%" transform="matrix(-.59365 0 0 .59353 305.124 14.869)" font-size="76.233" font-weight="400" letter-spacing="0" word-spacing="0" fill="navy" stroke-width="1.192" font-family="Sans"><tspan y="720.2" x="-361.815">-</tspan></text></g><path style="marker:none" d="M256.136 429.838h238.331M256.136 462.795h238.331M256.136 495.752h238.331M256.136 528.71h238.331M256.136 561.667h238.331M256.136 594.625h238.331M256.136 627.582h238.331M256.136 660.54h238.331M256.136 693.497h238.331" color="#000" fill="purple" stroke="purple" stroke-width="2" stroke-linecap="round" stroke-linejoin="round" marker-end="url(#a)" overflow="visible"/><g ns0:text="$\\vec{E}$" ns0:preamble="/home/waldgeist/data/sphinx/inkscape-preamble.tex" transform="matrix(3 0 0 3 -306.641 -19.168)" fill="purple"><defs><symbol overflow="visible" id="f"><path d="M5.36-5.938c-.141.141-.47.422-.47.594 0 .094.094.203.188.203s.14-.078.203-.14c.11-.14.344-.422.782-.64.062-.048.171-.095.171-.204 0-.11-.078-.156-.14-.203a1.034 1.034 0 0 1-.407-.563c-.03-.093-.062-.234-.203-.234-.14 0-.203.14-.203.219 0 .047.078.36.235.578h-3.36c-.156 0-.344 0-.344.203 0 .188.188.188.344.188zm0 0"/></symbol><symbol overflow="visible" id="g"><path d="M7.063-2.328c.015-.047.046-.11.046-.14 0 0 0-.11-.125-.11-.093 0-.109.062-.125.125-.656 1.469-1.015 2.14-2.718 2.14H2.469c-.11-.015-.14-.03-.14-.109 0-.031 0-.047.046-.219l.688-2.734h.984c.844 0 .844.219.844.469 0 .062 0 .187-.063.484-.016.047-.031.078-.031.11 0 .046.031.109.125.109.078 0 .11-.047.156-.203l.563-2.328c0-.063-.047-.11-.125-.11-.079 0-.11.063-.125.172-.22.766-.391 1-1.313 1h-.937l.593-2.406c.094-.36.11-.39.547-.39h1.407c1.203 0 1.515.28 1.515 1.109 0 .234 0 .25-.047.53 0 .048-.015.126-.015.173 0 .047.03.125.125.125.109 0 .125-.063.14-.25l.203-1.735c.032-.265-.015-.265-.265-.265H2.297c-.188 0-.297 0-.297.203 0 .11.094.11.281.11.375 0 .656 0 .656.171 0 .047 0 .063-.062.25L1.562-.78c-.093.39-.109.469-.906.469-.172 0-.281 0-.281.187C.375 0 .469 0 .656 0h5.172c.234 0 .25-.016.313-.172zm0 0"/></symbol></defs><use height="1052.362" width="744.094" xlink:href="#f" x="224.97" y="132.246"/><use height="1052.362" width="744.094" xlink:href="#g" x="223.432" y="134.765"/></g><g stroke="navy"><path style="marker:none" d="M303.244 447.547a9.252 9.252 0 1 1-18.505 0 9.252 9.252 0 0 1 18.505 0z" color="#000" fill="none" stroke-width="1.99982772" stroke-linecap="round" stroke-linejoin="round" overflow="visible"/><text transform="matrix(-.39618 0 0 .3961 156.096 170.624)" style="line-height:125%" x="-361.815" y="720.2" font-size="76.233" font-weight="400" letter-spacing="0" word-spacing="0" fill="navy" stroke-width="1.786" font-family="Sans"><tspan x="-361.815" y="720.2">-</tspan></text></g><g stroke="maroon"><path d="M321.748 447.547a9.252 9.252 0 1 1-18.504 0 9.252 9.252 0 0 1 18.504 0z" style="marker:none" color="#000" fill="none" stroke-width="1.99982772" stroke-linecap="round" stroke-linejoin="round" overflow="visible"/><text transform="matrix(-.39618 0 0 .3961 242.957 170.624)" style="line-height:125%" x="-191.494" y="711.074" font-size="38.121" font-weight="400" letter-spacing="0" word-spacing="0" fill="maroon" stroke-width="2.524" font-family="Sans"><tspan x="-191.494" y="711.074">+</tspan></text></g><g stroke="navy"><path d="M347.808 447.547a9.252 9.252 0 1 1-18.504 0 9.252 9.252 0 0 1 18.504 0z" style="marker:none" color="#000" fill="none" stroke-width="1.99982772" stroke-linecap="round" stroke-linejoin="round" overflow="visible"/><text y="720.2" x="-361.815" style="line-height:125%" transform="matrix(-.39618 0 0 .3961 200.661 170.624)" font-size="76.233" font-weight="400" letter-spacing="0" word-spacing="0" fill="navy" stroke-width="1.786" font-family="Sans"><tspan y="720.2" x="-361.815">-</tspan></text></g><g stroke="maroon"><path style="marker:none" d="M366.313 447.547a9.252 9.252 0 1 1-18.505 0 9.252 9.252 0 0 1 18.505 0z" color="#000" fill="none" stroke-width="1.99982772" stroke-linecap="round" stroke-linejoin="round" overflow="visible"/><text y="711.074" x="-191.494" style="line-height:125%" transform="matrix(-.39618 0 0 .3961 287.521 170.624)" font-size="38.121" font-weight="400" letter-spacing="0" word-spacing="0" fill="maroon" stroke-width="2.524" font-family="Sans"><tspan y="711.074" x="-191.494">+</tspan></text></g><g stroke="navy"><path style="marker:none" d="M436.938 447.547a9.252 9.252 0 1 1-18.505 0 9.252 9.252 0 0 1 18.505 0z" color="#000" fill="none" stroke-width="1.99982772" stroke-linecap="round" stroke-linejoin="round" overflow="visible"/><text transform="matrix(-.39618 0 0 .3961 289.79 170.624)" style="line-height:125%" x="-361.815" y="720.2" font-size="76.233" font-weight="400" letter-spacing="0" word-spacing="0" fill="navy" stroke-width="1.786" font-family="Sans"><tspan x="-361.815" y="720.2">-</tspan></text></g><g stroke="maroon"><path d="M455.442 447.547a9.252 9.252 0 1 1-18.504 0 9.252 9.252 0 0 1 18.504 0z" style="marker:none" color="#000" fill="none" stroke-width="1.99982772" stroke-linecap="round" stroke-linejoin="round" overflow="visible"/><text transform="matrix(-.39618 0 0 .3961 376.651 170.624)" style="line-height:125%" x="-191.494" y="711.074" font-size="38.121" font-weight="400" letter-spacing="0" word-spacing="0" fill="maroon" stroke-width="2.524" font-family="Sans"><tspan x="-191.494" y="711.074">+</tspan></text></g><g stroke="navy"><path d="M392.373 447.547a9.252 9.252 0 1 1-18.504 0 9.252 9.252 0 0 1 18.504 0z" style="marker:none" color="#000" fill="none" stroke-width="1.99982772" stroke-linecap="round" stroke-linejoin="round" overflow="visible"/><text y="720.2" x="-361.815" style="line-height:125%" transform="matrix(-.39618 0 0 .3961 245.226 170.624)" font-size="76.233" font-weight="400" letter-spacing="0" word-spacing="0" fill="navy" stroke-width="1.786" font-family="Sans"><tspan y="720.2" x="-361.815">-</tspan></text></g><g stroke="maroon"><path style="marker:none" d="M410.878 447.547a9.252 9.252 0 1 1-18.505 0 9.252 9.252 0 0 1 18.505 0z" color="#000" fill="none" stroke-width="1.99982772" stroke-linecap="round" stroke-linejoin="round" overflow="visible"/><text y="711.074" x="-191.494" style="line-height:125%" transform="matrix(-.39618 0 0 .3961 332.086 170.624)" font-size="38.121" font-weight="400" letter-spacing="0" word-spacing="0" fill="maroon" stroke-width="2.524" font-family="Sans"><tspan y="711.074" x="-191.494">+</tspan></text></g><g stroke="navy"><path d="M303.244 644.307a9.252 9.252 0 1 1-18.505 0 9.252 9.252 0 0 1 18.505 0z" style="marker:none" color="#000" fill="none" stroke-width="1.99982772" stroke-linecap="round" stroke-linejoin="round" overflow="visible"/><text y="720.2" x="-361.815" style="line-height:125%" transform="matrix(-.39618 0 0 .3961 156.096 367.384)" font-size="76.233" font-weight="400" letter-spacing="0" word-spacing="0" fill="navy" stroke-width="1.786" font-family="Sans"><tspan y="720.2" x="-361.815">-</tspan></text></g><g stroke="maroon"><path style="marker:none" d="M321.748 644.307a9.252 9.252 0 1 1-18.504 0 9.252 9.252 0 0 1 18.504 0z" color="#000" fill="none" stroke-width="1.99982772" stroke-linecap="round" stroke-linejoin="round" overflow="visible"/><text y="711.074" x="-191.494" style="line-height:125%" transform="matrix(-.39618 0 0 .3961 242.957 367.384)" font-size="38.121" font-weight="400" letter-spacing="0" word-spacing="0" fill="maroon" stroke-width="2.524" font-family="Sans"><tspan y="711.074" x="-191.494">+</tspan></text></g><g stroke="navy"><path style="marker:none" d="M303.244 611.514a9.252 9.252 0 1 1-18.505 0 9.252 9.252 0 0 1 18.505 0z" color="#000" fill="none" stroke-width="1.99982772" stroke-linecap="round" stroke-linejoin="round" overflow="visible"/><text transform="matrix(-.39618 0 0 .3961 156.096 334.59)" style="line-height:125%" x="-361.815" y="720.2" font-size="76.233" font-weight="400" letter-spacing="0" word-spacing="0" fill="navy" stroke-width="1.786" font-family="Sans"><tspan x="-361.815" y="720.2">-</tspan></text></g><g stroke="maroon"><path d="M321.748 611.514a9.252 9.252 0 1 1-18.504 0 9.252 9.252 0 0 1 18.504 0z" style="marker:none" color="#000" fill="none" stroke-width="1.99982772" stroke-linecap="round" stroke-linejoin="round" overflow="visible"/><text transform="matrix(-.39618 0 0 .3961 242.957 334.59)" style="line-height:125%" x="-191.494" y="711.074" font-size="38.121" font-weight="400" letter-spacing="0" word-spacing="0" fill="maroon" stroke-width="2.524" font-family="Sans"><tspan x="-191.494" y="711.074">+</tspan></text></g><g stroke="navy"><path d="M303.244 578.72a9.252 9.252 0 1 1-18.505 0 9.252 9.252 0 0 1 18.505 0z" style="marker:none" color="#000" fill="none" stroke-width="1.99982772" stroke-linecap="round" stroke-linejoin="round" overflow="visible"/><text y="720.2" x="-361.815" style="line-height:125%" transform="matrix(-.39618 0 0 .3961 156.096 301.797)" font-size="76.233" font-weight="400" letter-spacing="0" word-spacing="0" fill="navy" stroke-width="1.786" font-family="Sans"><tspan y="720.2" x="-361.815">-</tspan></text></g><g stroke="maroon"><path style="marker:none" d="M321.748 578.72a9.252 9.252 0 1 1-18.504 0 9.252 9.252 0 0 1 18.504 0z" color="#000" fill="none" stroke-width="1.99982772" stroke-linecap="round" stroke-linejoin="round" overflow="visible"/><text y="711.074" x="-191.494" style="line-height:125%" transform="matrix(-.39618 0 0 .3961 242.957 301.797)" font-size="38.121" font-weight="400" letter-spacing="0" word-spacing="0" fill="maroon" stroke-width="2.524" font-family="Sans"><tspan y="711.074" x="-191.494">+</tspan></text></g><g stroke="navy"><path style="marker:none" d="M303.244 545.927a9.252 9.252 0 1 1-18.505 0 9.252 9.252 0 0 1 18.505 0z" color="#000" fill="none" stroke-width="1.99982772" stroke-linecap="round" stroke-linejoin="round" overflow="visible"/><text transform="matrix(-.39618 0 0 .3961 156.096 269.004)" style="line-height:125%" x="-361.815" y="720.2" font-size="76.233" font-weight="400" letter-spacing="0" word-spacing="0" fill="navy" stroke-width="1.786" font-family="Sans"><tspan x="-361.815" y="720.2">-</tspan></text></g><g stroke="maroon"><path d="M321.748 545.927a9.252 9.252 0 1 1-18.504 0 9.252 9.252 0 0 1 18.504 0z" style="marker:none" color="#000" fill="none" stroke-width="1.99982772" stroke-linecap="round" stroke-linejoin="round" overflow="visible"/><text transform="matrix(-.39618 0 0 .3961 242.957 269.004)" style="line-height:125%" x="-191.494" y="711.074" font-size="38.121" font-weight="400" letter-spacing="0" word-spacing="0" fill="maroon" stroke-width="2.524" font-family="Sans"><tspan x="-191.494" y="711.074">+</tspan></text></g><g stroke="navy"><path d="M303.244 513.134a9.252 9.252 0 1 1-18.505 0 9.252 9.252 0 0 1 18.505 0z" style="marker:none" color="#000" fill="none" stroke-width="1.99982772" stroke-linecap="round" stroke-linejoin="round" overflow="visible"/><text y="720.2" x="-361.815" style="line-height:125%" transform="matrix(-.39618 0 0 .3961 156.096 236.21)" font-size="76.233" font-weight="400" letter-spacing="0" word-spacing="0" fill="navy" stroke-width="1.786" font-family="Sans"><tspan y="720.2" x="-361.815">-</tspan></text></g><g stroke="maroon"><path style="marker:none" d="M321.748 513.134a9.252 9.252 0 1 1-18.504 0 9.252 9.252 0 0 1 18.504 0z" color="#000" fill="none" stroke-width="1.99982772" stroke-linecap="round" stroke-linejoin="round" overflow="visible"/><text y="711.074" x="-191.494" style="line-height:125%" transform="matrix(-.39618 0 0 .3961 242.957 236.21)" font-size="38.121" font-weight="400" letter-spacing="0" word-spacing="0" fill="maroon" stroke-width="2.524" font-family="Sans"><tspan y="711.074" x="-191.494">+</tspan></text></g><g stroke="navy"><path style="marker:none" d="M303.244 480.34a9.252 9.252 0 1 1-18.505 0 9.252 9.252 0 0 1 18.505 0z" color="#000" fill="none" stroke-width="1.99982772" stroke-linecap="round" stroke-linejoin="round" overflow="visible"/><text transform="matrix(-.39618 0 0 .3961 156.096 203.417)" style="line-height:125%" x="-361.815" y="720.2" font-size="76.233" font-weight="400" letter-spacing="0" word-spacing="0" fill="navy" stroke-width="1.786" font-family="Sans"><tspan x="-361.815" y="720.2">-</tspan></text></g><g stroke="maroon"><path d="M321.748 480.34a9.252 9.252 0 1 1-18.504 0 9.252 9.252 0 0 1 18.504 0z" style="marker:none" color="#000" fill="none" stroke-width="1.99982772" stroke-linecap="round" stroke-linejoin="round" overflow="visible"/><text transform="matrix(-.39618 0 0 .3961 242.957 203.417)" style="line-height:125%" x="-191.494" y="711.074" font-size="38.121" font-weight="400" letter-spacing="0" word-spacing="0" fill="maroon" stroke-width="2.524" font-family="Sans"><tspan x="-191.494" y="711.074">+</tspan></text></g><g stroke="navy"><path style="marker:none" d="M347.808 644.307a9.252 9.252 0 1 1-18.504 0 9.252 9.252 0 0 1 18.504 0z" color="#000" fill="none" stroke-width="1.99982772" stroke-linecap="round" stroke-linejoin="round" overflow="visible"/><text transform="matrix(-.39618 0 0 .3961 200.661 367.384)" style="line-height:125%" x="-361.815" y="720.2" font-size="76.233" font-weight="400" letter-spacing="0" word-spacing="0" fill="navy" stroke-width="1.786" font-family="Sans"><tspan x="-361.815" y="720.2">-</tspan></text></g><g stroke="maroon"><path d="M366.313 644.307a9.252 9.252 0 1 1-18.505 0 9.252 9.252 0 0 1 18.505 0z" style="marker:none" color="#000" fill="none" stroke-width="1.99982772" stroke-linecap="round" stroke-linejoin="round" overflow="visible"/><text transform="matrix(-.39618 0 0 .3961 287.521 367.384)" style="line-height:125%" x="-191.494" y="711.074" font-size="38.121" font-weight="400" letter-spacing="0" word-spacing="0" fill="maroon" stroke-width="2.524" font-family="Sans"><tspan x="-191.494" y="711.074">+</tspan></text></g><g stroke="navy"><path d="M347.808 611.514a9.252 9.252 0 1 1-18.504 0 9.252 9.252 0 0 1 18.504 0z" style="marker:none" color="#000" fill="none" stroke-width="1.99982772" stroke-linecap="round" stroke-linejoin="round" overflow="visible"/><text y="720.2" x="-361.815" style="line-height:125%" transform="matrix(-.39618 0 0 .3961 200.661 334.59)" font-size="76.233" font-weight="400" letter-spacing="0" word-spacing="0" fill="navy" stroke-width="1.786" font-family="Sans"><tspan y="720.2" x="-361.815">-</tspan></text></g><g stroke="maroon"><path style="marker:none" d="M366.313 611.514a9.252 9.252 0 1 1-18.505 0 9.252 9.252 0 0 1 18.505 0z" color="#000" fill="none" stroke-width="1.99982772" stroke-linecap="round" stroke-linejoin="round" overflow="visible"/><text y="711.074" x="-191.494" style="line-height:125%" transform="matrix(-.39618 0 0 .3961 287.521 334.59)" font-size="38.121" font-weight="400" letter-spacing="0" word-spacing="0" fill="maroon" stroke-width="2.524" font-family="Sans"><tspan y="711.074" x="-191.494">+</tspan></text></g><g stroke="navy"><path style="marker:none" d="M347.808 578.72a9.252 9.252 0 1 1-18.504 0 9.252 9.252 0 0 1 18.504 0z" color="#000" fill="none" stroke-width="1.99982772" stroke-linecap="round" stroke-linejoin="round" overflow="visible"/><text transform="matrix(-.39618 0 0 .3961 200.661 301.797)" style="line-height:125%" x="-361.815" y="720.2" font-size="76.233" font-weight="400" letter-spacing="0" word-spacing="0" fill="navy" stroke-width="1.786" font-family="Sans"><tspan x="-361.815" y="720.2">-</tspan></text></g><g stroke="maroon"><path d="M366.313 578.72a9.252 9.252 0 1 1-18.505 0 9.252 9.252 0 0 1 18.505 0z" style="marker:none" color="#000" fill="none" stroke-width="1.99982772" stroke-linecap="round" stroke-linejoin="round" overflow="visible"/><text transform="matrix(-.39618 0 0 .3961 287.521 301.797)" style="line-height:125%" x="-191.494" y="711.074" font-size="38.121" font-weight="400" letter-spacing="0" word-spacing="0" fill="maroon" stroke-width="2.524" font-family="Sans"><tspan x="-191.494" y="711.074">+</tspan></text></g><g stroke="navy"><path d="M347.808 545.927a9.252 9.252 0 1 1-18.504 0 9.252 9.252 0 0 1 18.504 0z" style="marker:none" color="#000" fill="none" stroke-width="1.99982772" stroke-linecap="round" stroke-linejoin="round" overflow="visible"/><text y="720.2" x="-361.815" style="line-height:125%" transform="matrix(-.39618 0 0 .3961 200.661 269.004)" font-size="76.233" font-weight="400" letter-spacing="0" word-spacing="0" fill="navy" stroke-width="1.786" font-family="Sans"><tspan y="720.2" x="-361.815">-</tspan></text></g><g stroke="maroon"><path style="marker:none" d="M366.313 545.927a9.252 9.252 0 1 1-18.505 0 9.252 9.252 0 0 1 18.505 0z" color="#000" fill="none" stroke-width="1.99982772" stroke-linecap="round" stroke-linejoin="round" overflow="visible"/><text y="711.074" x="-191.494" style="line-height:125%" transform="matrix(-.39618 0 0 .3961 287.521 269.004)" font-size="38.121" font-weight="400" letter-spacing="0" word-spacing="0" fill="maroon" stroke-width="2.524" font-family="Sans"><tspan y="711.074" x="-191.494">+</tspan></text></g><g><g stroke="navy"><path style="marker:none" d="M347.808 513.134a9.252 9.252 0 1 1-18.504 0 9.252 9.252 0 0 1 18.504 0z" color="#000" fill="none" stroke-width="1.99982772" stroke-linecap="round" stroke-linejoin="round" overflow="visible"/><text transform="matrix(-.39618 0 0 .3961 200.661 236.21)" style="line-height:125%" x="-361.815" y="720.2" font-size="76.233" font-weight="400" letter-spacing="0" word-spacing="0" fill="navy" stroke-width="1.786" font-family="Sans"><tspan x="-361.815" y="720.2">-</tspan></text></g><g stroke="maroon"><path d="M366.313 513.134a9.252 9.252 0 1 1-18.505 0 9.252 9.252 0 0 1 18.505 0z" style="marker:none" color="#000" fill="none" stroke-width="1.99982772" stroke-linecap="round" stroke-linejoin="round" overflow="visible"/><text transform="matrix(-.39618 0 0 .3961 287.521 236.21)" style="line-height:125%" x="-191.494" y="711.074" font-size="38.121" font-weight="400" letter-spacing="0" word-spacing="0" fill="maroon" stroke-width="2.524" font-family="Sans"><tspan x="-191.494" y="711.074">+</tspan></text></g></g><g><g stroke="navy"><path d="M347.808 480.34a9.252 9.252 0 1 1-18.504 0 9.252 9.252 0 0 1 18.504 0z" style="marker:none" color="#000" fill="none" stroke-width="1.99982772" stroke-linecap="round" stroke-linejoin="round" overflow="visible"/><text y="720.2" x="-361.815" style="line-height:125%" transform="matrix(-.39618 0 0 .3961 200.661 203.417)" font-size="76.233" font-weight="400" letter-spacing="0" word-spacing="0" fill="navy" stroke-width="1.786" font-family="Sans"><tspan y="720.2" x="-361.815">-</tspan></text></g><g stroke="maroon"><path style="marker:none" d="M366.313 480.34a9.252 9.252 0 1 1-18.505 0 9.252 9.252 0 0 1 18.505 0z" color="#000" fill="none" stroke-width="1.99982772" stroke-linecap="round" stroke-linejoin="round" overflow="visible"/><text y="711.074" x="-191.494" style="line-height:125%" transform="matrix(-.39618 0 0 .3961 287.521 203.417)" font-size="38.121" font-weight="400" letter-spacing="0" word-spacing="0" fill="maroon" stroke-width="2.524" font-family="Sans"><tspan y="711.074" x="-191.494">+</tspan></text></g></g><g><g stroke="navy"><path d="M392.373 644.307a9.252 9.252 0 1 1-18.504 0 9.252 9.252 0 0 1 18.504 0z" style="marker:none" color="#000" fill="none" stroke-width="1.99982772" stroke-linecap="round" stroke-linejoin="round" overflow="visible"/><text y="720.2" x="-361.815" style="line-height:125%" transform="matrix(-.39618 0 0 .3961 245.226 367.384)" font-size="76.233" font-weight="400" letter-spacing="0" word-spacing="0" fill="navy" stroke-width="1.786" font-family="Sans"><tspan y="720.2" x="-361.815">-</tspan></text></g><g stroke="maroon"><path style="marker:none" d="M410.878 644.307a9.252 9.252 0 1 1-18.505 0 9.252 9.252 0 0 1 18.505 0z" color="#000" fill="none" stroke-width="1.99982772" stroke-linecap="round" stroke-linejoin="round" overflow="visible"/><text y="711.074" x="-191.494" style="line-height:125%" transform="matrix(-.39618 0 0 .3961 332.086 367.384)" font-size="38.121" font-weight="400" letter-spacing="0" word-spacing="0" fill="maroon" stroke-width="2.524" font-family="Sans"><tspan y="711.074" x="-191.494">+</tspan></text></g></g><g><g stroke="navy"><path style="marker:none" d="M392.373 611.514a9.252 9.252 0 1 1-18.504 0 9.252 9.252 0 0 1 18.504 0z" color="#000" fill="none" stroke-width="1.99982772" stroke-linecap="round" stroke-linejoin="round" overflow="visible"/><text transform="matrix(-.39618 0 0 .3961 245.226 334.59)" style="line-height:125%" x="-361.815" y="720.2" font-size="76.233" font-weight="400" letter-spacing="0" word-spacing="0" fill="navy" stroke-width="1.786" font-family="Sans"><tspan x="-361.815" y="720.2">-</tspan></text></g><g stroke="maroon"><path d="M410.878 611.514a9.252 9.252 0 1 1-18.505 0 9.252 9.252 0 0 1 18.505 0z" style="marker:none" color="#000" fill="none" stroke-width="1.99982772" stroke-linecap="round" stroke-linejoin="round" overflow="visible"/><text transform="matrix(-.39618 0 0 .3961 332.086 334.59)" style="line-height:125%" x="-191.494" y="711.074" font-size="38.121" font-weight="400" letter-spacing="0" word-spacing="0" fill="maroon" stroke-width="2.524" font-family="Sans"><tspan x="-191.494" y="711.074">+</tspan></text></g></g><g><g stroke="navy"><path d="M392.373 578.72a9.252 9.252 0 1 1-18.504 0 9.252 9.252 0 0 1 18.504 0z" style="marker:none" color="#000" fill="none" stroke-width="1.99982772" stroke-linecap="round" stroke-linejoin="round" overflow="visible"/><text y="720.2" x="-361.815" style="line-height:125%" transform="matrix(-.39618 0 0 .3961 245.226 301.797)" font-size="76.233" font-weight="400" letter-spacing="0" word-spacing="0" fill="navy" stroke-width="1.786" font-family="Sans"><tspan y="720.2" x="-361.815">-</tspan></text></g><g stroke="maroon"><path style="marker:none" d="M410.878 578.72a9.252 9.252 0 1 1-18.505 0 9.252 9.252 0 0 1 18.505 0z" color="#000" fill="none" stroke-width="1.99982772" stroke-linecap="round" stroke-linejoin="round" overflow="visible"/><text y="711.074" x="-191.494" style="line-height:125%" transform="matrix(-.39618 0 0 .3961 332.086 301.797)" font-size="38.121" font-weight="400" letter-spacing="0" word-spacing="0" fill="maroon" stroke-width="2.524" font-family="Sans"><tspan y="711.074" x="-191.494">+</tspan></text></g></g><g><g stroke="navy"><path style="marker:none" d="M392.373 545.927a9.252 9.252 0 1 1-18.504 0 9.252 9.252 0 0 1 18.504 0z" color="#000" fill="none" stroke-width="1.99982772" stroke-linecap="round" stroke-linejoin="round" overflow="visible"/><text transform="matrix(-.39618 0 0 .3961 245.226 269.004)" style="line-height:125%" x="-361.815" y="720.2" font-size="76.233" font-weight="400" letter-spacing="0" word-spacing="0" fill="navy" stroke-width="1.786" font-family="Sans"><tspan x="-361.815" y="720.2">-</tspan></text></g><g stroke="maroon"><path d="M410.878 545.927a9.252 9.252 0 1 1-18.505 0 9.252 9.252 0 0 1 18.505 0z" style="marker:none" color="#000" fill="none" stroke-width="1.99982772" stroke-linecap="round" stroke-linejoin="round" overflow="visible"/><text transform="matrix(-.39618 0 0 .3961 332.086 269.004)" style="line-height:125%" x="-191.494" y="711.074" font-size="38.121" font-weight="400" letter-spacing="0" word-spacing="0" fill="maroon" stroke-width="2.524" font-family="Sans"><tspan x="-191.494" y="711.074">+</tspan></text></g></g><g><g stroke="navy"><path d="M392.373 513.134a9.252 9.252 0 1 1-18.504 0 9.252 9.252 0 0 1 18.504 0z" style="marker:none" color="#000" fill="none" stroke-width="1.99982772" stroke-linecap="round" stroke-linejoin="round" overflow="visible"/><text y="720.2" x="-361.815" style="line-height:125%" transform="matrix(-.39618 0 0 .3961 245.226 236.21)" font-size="76.233" font-weight="400" letter-spacing="0" word-spacing="0" fill="navy" stroke-width="1.786" font-family="Sans"><tspan y="720.2" x="-361.815">-</tspan></text></g><g stroke="maroon"><path style="marker:none" d="M410.878 513.134a9.252 9.252 0 1 1-18.505 0 9.252 9.252 0 0 1 18.505 0z" color="#000" fill="none" stroke-width="1.99982772" stroke-linecap="round" stroke-linejoin="round" overflow="visible"/><text y="711.074" x="-191.494" style="line-height:125%" transform="matrix(-.39618 0 0 .3961 332.086 236.21)" font-size="38.121" font-weight="400" letter-spacing="0" word-spacing="0" fill="maroon" stroke-width="2.524" font-family="Sans"><tspan y="711.074" x="-191.494">+</tspan></text></g></g><g><g stroke="navy"><path style="marker:none" d="M392.373 480.34a9.252 9.252 0 1 1-18.504 0 9.252 9.252 0 0 1 18.504 0z" color="#000" fill="none" stroke-width="1.99982772" stroke-linecap="round" stroke-linejoin="round" overflow="visible"/><text transform="matrix(-.39618 0 0 .3961 245.226 203.417)" style="line-height:125%" x="-361.815" y="720.2" font-size="76.233" font-weight="400" letter-spacing="0" word-spacing="0" fill="navy" stroke-width="1.786" font-family="Sans"><tspan x="-361.815" y="720.2">-</tspan></text></g><g stroke="maroon"><path d="M410.878 480.34a9.252 9.252 0 1 1-18.505 0 9.252 9.252 0 0 1 18.505 0z" style="marker:none" color="#000" fill="none" stroke-width="1.99982772" stroke-linecap="round" stroke-linejoin="round" overflow="visible"/><text transform="matrix(-.39618 0 0 .3961 332.086 203.417)" style="line-height:125%" x="-191.494" y="711.074" font-size="38.121" font-weight="400" letter-spacing="0" word-spacing="0" fill="maroon" stroke-width="2.524" font-family="Sans"><tspan x="-191.494" y="711.074">+</tspan></text></g></g><g><g stroke="navy"><path style="marker:none" d="M436.938 644.307a9.252 9.252 0 1 1-18.505 0 9.252 9.252 0 0 1 18.505 0z" color="#000" fill="none" stroke-width="1.99982772" stroke-linecap="round" stroke-linejoin="round" overflow="visible"/><text transform="matrix(-.39618 0 0 .3961 289.79 367.384)" style="line-height:125%" x="-361.815" y="720.2" font-size="76.233" font-weight="400" letter-spacing="0" word-spacing="0" fill="navy" stroke-width="1.786" font-family="Sans"><tspan x="-361.815" y="720.2">-</tspan></text></g><g stroke="maroon"><path d="M455.442 644.307a9.252 9.252 0 1 1-18.504 0 9.252 9.252 0 0 1 18.504 0z" style="marker:none" color="#000" fill="none" stroke-width="1.99982772" stroke-linecap="round" stroke-linejoin="round" overflow="visible"/><text transform="matrix(-.39618 0 0 .3961 376.651 367.384)" style="line-height:125%" x="-191.494" y="711.074" font-size="38.121" font-weight="400" letter-spacing="0" word-spacing="0" fill="maroon" stroke-width="2.524" font-family="Sans"><tspan x="-191.494" y="711.074">+</tspan></text></g></g><g><g stroke="navy"><path d="M436.938 611.514a9.252 9.252 0 1 1-18.505 0 9.252 9.252 0 0 1 18.505 0z" style="marker:none" color="#000" fill="none" stroke-width="1.99982772" stroke-linecap="round" stroke-linejoin="round" overflow="visible"/><text y="720.2" x="-361.815" style="line-height:125%" transform="matrix(-.39618 0 0 .3961 289.79 334.59)" font-size="76.233" font-weight="400" letter-spacing="0" word-spacing="0" fill="navy" stroke-width="1.786" font-family="Sans"><tspan y="720.2" x="-361.815">-</tspan></text></g><g stroke="maroon"><path style="marker:none" d="M455.442 611.514a9.252 9.252 0 1 1-18.504 0 9.252 9.252 0 0 1 18.504 0z" color="#000" fill="none" stroke-width="1.99982772" stroke-linecap="round" stroke-linejoin="round" overflow="visible"/><text y="711.074" x="-191.494" style="line-height:125%" transform="matrix(-.39618 0 0 .3961 376.651 334.59)" font-size="38.121" font-weight="400" letter-spacing="0" word-spacing="0" fill="maroon" stroke-width="2.524" font-family="Sans"><tspan y="711.074" x="-191.494">+</tspan></text></g></g><g><g stroke="navy"><path style="marker:none" d="M436.938 578.72a9.252 9.252 0 1 1-18.505 0 9.252 9.252 0 0 1 18.505 0z" color="#000" fill="none" stroke-width="1.99982772" stroke-linecap="round" stroke-linejoin="round" overflow="visible"/><text transform="matrix(-.39618 0 0 .3961 289.79 301.797)" style="line-height:125%" x="-361.815" y="720.2" font-size="76.233" font-weight="400" letter-spacing="0" word-spacing="0" fill="navy" stroke-width="1.786" font-family="Sans"><tspan x="-361.815" y="720.2">-</tspan></text></g><g stroke="maroon"><path d="M455.442 578.72a9.252 9.252 0 1 1-18.504 0 9.252 9.252 0 0 1 18.504 0z" style="marker:none" color="#000" fill="none" stroke-width="1.99982772" stroke-linecap="round" stroke-linejoin="round" overflow="visible"/><text transform="matrix(-.39618 0 0 .3961 376.651 301.797)" style="line-height:125%" x="-191.494" y="711.074" font-size="38.121" font-weight="400" letter-spacing="0" word-spacing="0" fill="maroon" stroke-width="2.524" font-family="Sans"><tspan x="-191.494" y="711.074">+</tspan></text></g></g><g><g stroke="navy"><path d="M436.938 545.927a9.252 9.252 0 1 1-18.505 0 9.252 9.252 0 0 1 18.505 0z" style="marker:none" color="#000" fill="none" stroke-width="1.99982772" stroke-linecap="round" stroke-linejoin="round" overflow="visible"/><text y="720.2" x="-361.815" style="line-height:125%" transform="matrix(-.39618 0 0 .3961 289.79 269.004)" font-size="76.233" font-weight="400" letter-spacing="0" word-spacing="0" fill="navy" stroke-width="1.786" font-family="Sans"><tspan y="720.2" x="-361.815">-</tspan></text></g><g stroke="maroon"><path style="marker:none" d="M455.442 545.927a9.252 9.252 0 1 1-18.504 0 9.252 9.252 0 0 1 18.504 0z" color="#000" fill="none" stroke-width="1.99982772" stroke-linecap="round" stroke-linejoin="round" overflow="visible"/><text y="711.074" x="-191.494" style="line-height:125%" transform="matrix(-.39618 0 0 .3961 376.651 269.004)" font-size="38.121" font-weight="400" letter-spacing="0" word-spacing="0" fill="maroon" stroke-width="2.524" font-family="Sans"><tspan y="711.074" x="-191.494">+</tspan></text></g></g><g><g stroke="navy"><path style="marker:none" d="M436.938 513.134a9.252 9.252 0 1 1-18.505 0 9.252 9.252 0 0 1 18.505 0z" color="#000" fill="none" stroke-width="1.99982772" stroke-linecap="round" stroke-linejoin="round" overflow="visible"/><text transform="matrix(-.39618 0 0 .3961 289.79 236.21)" style="line-height:125%" x="-361.815" y="720.2" font-size="76.233" font-weight="400" letter-spacing="0" word-spacing="0" fill="navy" stroke-width="1.786" font-family="Sans"><tspan x="-361.815" y="720.2">-</tspan></text></g><g stroke="maroon"><path d="M455.442 513.134a9.252 9.252 0 1 1-18.504 0 9.252 9.252 0 0 1 18.504 0z" style="marker:none" color="#000" fill="none" stroke-width="1.99982772" stroke-linecap="round" stroke-linejoin="round" overflow="visible"/><text transform="matrix(-.39618 0 0 .3961 376.651 236.21)" style="line-height:125%" x="-191.494" y="711.074" font-size="38.121" font-weight="400" letter-spacing="0" word-spacing="0" fill="maroon" stroke-width="2.524" font-family="Sans"><tspan x="-191.494" y="711.074">+</tspan></text></g></g><g><g stroke="navy"><path d="M436.938 480.34a9.252 9.252 0 1 1-18.505 0 9.252 9.252 0 0 1 18.505 0z" style="marker:none" color="#000" fill="none" stroke-width="1.99982772" stroke-linecap="round" stroke-linejoin="round" overflow="visible"/><text y="720.2" x="-361.815" style="line-height:125%" transform="matrix(-.39618 0 0 .3961 289.79 203.417)" font-size="76.233" font-weight="400" letter-spacing="0" word-spacing="0" fill="navy" stroke-width="1.786" font-family="Sans"><tspan y="720.2" x="-361.815">-</tspan></text></g><g stroke="maroon"><path style="marker:none" d="M455.442 480.34a9.252 9.252 0 1 1-18.504 0 9.252 9.252 0 0 1 18.504 0z" color="#000" fill="none" stroke-width="1.99982772" stroke-linecap="round" stroke-linejoin="round" overflow="visible"/><text y="711.074" x="-191.494" style="line-height:125%" transform="matrix(-.39618 0 0 .3961 376.651 203.417)" font-size="38.121" font-weight="400" letter-spacing="0" word-spacing="0" fill="maroon" stroke-width="2.524" font-family="Sans"><tspan y="711.074" x="-191.494">+</tspan></text></g></g></svg>