<svg xmlns="http://www.w3.org/2000/svg" width="1052.362" height="744.094"><title>Spannung und Stromfluss</title><defs><marker orient="auto" id="a" overflow="visible"><path d="M-1.2 0l-1 1 3.5-1-3.5-1 1 1z" fill-rule="evenodd" stroke="#000" stroke-width=".2pt"/></marker></defs><path fill="#fff" stroke="#fff" stroke-width="2" stroke-linecap="square" d="M1030.847 208.437H21.515v327.22h1009.332z"/><g stroke="#000"><g fill="#fff" stroke-width="1.415" stroke-linecap="square"><path d="M140.719 120.219V293.78h460.719c.937.317 1.88.469 2.843.469 14.91 0 27-38.94 27-87s-12.09-87.031-27-87.031H140.72z" transform="matrix(-.46133 -.07276 -.07278 .46124 980.26 298.109)"/><path d="M194.707 207.239c0 48.059-12.087 87.019-26.996 87.019-14.91 0-26.997-38.96-26.997-87.02 0-48.059 12.087-87.019 26.997-87.019s26.996 38.96 26.996 87.02z" transform="matrix(-.46133 -.07276 -.07278 .46124 992.715 300.073)"/></g><g fill="none" stroke-width="7.575"><path d="M630.995 209.062l79.419-1.036M44.401 207.234h96.106" transform="matrix(-.46133 -.07276 -.07278 .46124 980.26 298.109)"/></g></g><path d="M332.857 189.505a32.857 32.857 0 1 1-65.714 0 32.857 32.857 0 1 1 65.714 0z" transform="matrix(-.33127 -.05225 -.05226 .3312 984.481 308.466)" fill="#fff" stroke="#000" stroke-width="6.329" stroke-linecap="square"/><path transform="matrix(-.33127 -.05225 -.05226 .3312 925.618 298.696)" d="M332.857 189.505a32.857 32.857 0 1 1-65.714 0 32.857 32.857 0 1 1 65.714 0z" fill="#fff" stroke="#000" stroke-width="6.329" stroke-linecap="square"/><path d="M332.857 189.505a32.857 32.857 0 1 1-65.714 0 32.857 32.857 0 1 1 65.714 0z" transform="matrix(-.33127 -.05225 -.05226 .3312 805.793 284.608)" fill="#fff" stroke="#000" stroke-width="6.329" stroke-linecap="square"/><path transform="matrix(-.33127 -.05225 -.05226 .3312 901.324 323.445)" d="M332.857 189.505a32.857 32.857 0 1 1-65.714 0 32.857 32.857 0 1 1 65.714 0z" fill="#fff" stroke="#000" stroke-width="6.329" stroke-linecap="square"/><path d="M332.857 189.505a32.857 32.857 0 1 1-65.714 0 32.857 32.857 0 1 1 65.714 0z" transform="matrix(-.33127 -.05225 -.05226 .3312 927.057 345.979)" fill="#fff" stroke="#000" stroke-width="6.329" stroke-linecap="square"/><path transform="matrix(-.33127 -.05225 -.05226 .3312 802.095 326.707)" d="M332.857 189.505a32.857 32.857 0 1 1-65.714 0 32.857 32.857 0 1 1 65.714 0z" fill="#fff" stroke="#000" stroke-width="6.329" stroke-linecap="square"/><path d="M332.857 189.505a32.857 32.857 0 1 1-65.714 0 32.857 32.857 0 1 1 65.714 0z" transform="matrix(-.33127 -.05225 -.05226 .3312 880.724 292.175)" fill="#fff" stroke="#000" stroke-width="6.329" stroke-linecap="square"/><path transform="matrix(-.33127 -.05225 -.05226 .3312 865.884 335.15)" d="M332.857 189.505a32.857 32.857 0 1 1-65.714 0 32.857 32.857 0 1 1 65.714 0z" fill="#fff" stroke="#000" stroke-width="6.329" stroke-linecap="square"/><path d="M332.857 189.505a32.857 32.857 0 1 1-65.714 0 32.857 32.857 0 1 1 65.714 0z" transform="matrix(-.33127 -.05225 -.05226 .3312 847.053 288.52)" fill="#fff" stroke="#000" stroke-width="6.329" stroke-linecap="square"/><path transform="matrix(-.33127 -.05225 -.05226 .3312 966.128 357.275)" d="M332.857 189.505a32.857 32.857 0 1 1-65.714 0 32.857 32.857 0 1 1 65.714 0z" fill="#fff" stroke="#000" stroke-width="6.329" stroke-linecap="square"/><path transform="matrix(-.33127 -.05225 -.05226 .3312 953.131 323.42)" d="M332.857 189.505a32.857 32.857 0 1 1-65.714 0 32.857 32.857 0 1 1 65.714 0z" fill="#fff" stroke="#000" stroke-width="6.329" stroke-linecap="square"/><path transform="matrix(-.33127 -.05225 -.05226 .3312 836.745 320.637)" d="M332.857 189.505a32.857 32.857 0 1 1-65.714 0 32.857 32.857 0 1 1 65.714 0z" fill="#fff" stroke="#000" stroke-width="6.329" stroke-linecap="square"/><g stroke="navy"><path d="M190.394 668.434l-17.407 3.18" fill="none" stroke-width="3.03" marker-end="url(#a)" transform="matrix(-.46704 0 0 .46694 945.038 29.578)"/><g stroke-width="1.515"><path d="M221.307 214.047c0 6.969-5.649 12.618-12.618 12.618s-12.618-5.65-12.618-12.618c0-6.97 5.65-12.619 12.618-12.619 6.969 0 12.618 5.65 12.618 12.619z" transform="matrix(-.34304 -.0541 -.05412 .34297 935.318 279.233)" fill="#fff" stroke-width="4.075" stroke-linecap="square"/><text y="666.876" x="180.558" style="line-height:125%" font-size="30" font-weight="400" letter-spacing="0" word-spacing="0" fill="navy" font-family="Sans" transform="matrix(-.46704 0 0 .46694 939 33.798)"><tspan y="666.876" x="180.558">-</tspan></text></g></g><g stroke="navy"><path d="M190.394 668.434l-17.407 3.18" fill="none" stroke-width="3.03" marker-end="url(#a)" transform="matrix(-.46704 0 0 .46694 963.042 80.835)"/><g stroke-width="1.515"><path d="M221.307 214.047c0 6.969-5.649 12.618-12.618 12.618s-12.618-5.65-12.618-12.618c0-6.97 5.65-12.619 12.618-12.619 6.969 0 12.618 5.65 12.618 12.619z" transform="matrix(-.34304 -.0541 -.05412 .34297 953.323 330.49)" fill="#fff" stroke-width="4.075" stroke-linecap="square"/><text y="666.876" x="180.558" style="line-height:125%" font-size="30" font-weight="400" letter-spacing="0" word-spacing="0" fill="navy" font-family="Sans" transform="matrix(-.46704 0 0 .46694 957.005 85.055)"><tspan y="666.876" x="180.558">-</tspan></text></g></g><g stroke="navy"><path d="M190.394 668.434l-17.407 3.18" fill="none" stroke-width="3.03" marker-end="url(#a)" transform="matrix(-.46704 0 0 .46694 824.445 77.503)"/><g stroke-width="1.515"><path d="M221.307 214.047c0 6.969-5.649 12.618-12.618 12.618s-12.618-5.65-12.618-12.618c0-6.97 5.65-12.619 12.618-12.619 6.969 0 12.618 5.65 12.618 12.619z" transform="matrix(-.34304 -.0541 -.05412 .34297 814.725 327.158)" fill="#fff" stroke-width="4.075" stroke-linecap="square"/><text y="666.876" x="180.558" style="line-height:125%" font-size="30" font-weight="400" letter-spacing="0" word-spacing="0" fill="navy" font-family="Sans" transform="matrix(-.46704 0 0 .46694 818.408 81.723)"><tspan y="666.876" x="180.558">-</tspan></text></g></g><g stroke="navy"><path d="M190.394 668.434l-17.407 3.18" fill="none" stroke-width="3.03" marker-end="url(#a)" transform="matrix(-.46704 0 0 .46694 857.071 52.905)"/><g stroke-width="1.515"><path transform="matrix(-.34304 -.0541 -.05412 .34297 847.352 302.56)" d="M221.307 214.047c0 6.969-5.649 12.618-12.618 12.618s-12.618-5.65-12.618-12.618c0-6.97 5.65-12.619 12.618-12.619 6.969 0 12.618 5.65 12.618 12.619z" fill="#fff" stroke-width="4.075" stroke-linecap="square"/><text style="line-height:125%" x="180.558" y="666.876" font-size="30" font-weight="400" letter-spacing="0" word-spacing="0" fill="navy" font-family="Sans" transform="matrix(-.46704 0 0 .46694 851.034 57.124)"><tspan x="180.558" y="666.876">-</tspan></text></g></g><g stroke="navy"><path d="M190.394 668.434l-17.407 3.18" fill="none" stroke-width="3.03" marker-end="url(#a)" transform="matrix(-.46704 0 0 .46694 836.406 42.858)"/><g stroke-width="1.515"><path d="M221.307 214.047c0 6.969-5.649 12.618-12.618 12.618s-12.618-5.65-12.618-12.618c0-6.97 5.65-12.619 12.618-12.619 6.969 0 12.618 5.65 12.618 12.619z" transform="matrix(-.34304 -.0541 -.05412 .34297 826.686 292.513)" fill="#fff" stroke-width="4.075" stroke-linecap="square"/><text y="666.876" x="180.558" style="line-height:125%" font-size="30" font-weight="400" letter-spacing="0" word-spacing="0" fill="navy" font-family="Sans" transform="matrix(-.46704 0 0 .46694 830.37 47.078)"><tspan y="666.876" x="180.558">-</tspan></text></g></g><g stroke="navy"><path d="M190.394 668.434l-17.407 3.18" fill="none" stroke-width="3.03" marker-end="url(#a)" transform="matrix(-.46704 0 0 .46694 885.362 40.107)"/><g stroke-width="1.515"><path transform="matrix(-.34304 -.0541 -.05412 .34297 875.642 289.762)" d="M221.307 214.047c0 6.969-5.649 12.618-12.618 12.618s-12.618-5.65-12.618-12.618c0-6.97 5.65-12.619 12.618-12.619 6.969 0 12.618 5.65 12.618 12.619z" fill="#fff" stroke-width="4.075" stroke-linecap="square"/><text style="line-height:125%" x="180.558" y="666.876" font-size="30" font-weight="400" letter-spacing="0" word-spacing="0" fill="navy" font-family="Sans" transform="matrix(-.46704 0 0 .46694 879.325 44.327)"><tspan x="180.558" y="666.876">-</tspan></text></g></g><g stroke="navy"><path d="M190.394 668.434l-17.407 3.18" fill="none" stroke-width="3.03" marker-end="url(#a)" transform="matrix(-.46704 0 0 .46694 884.923 22.559)"/><g stroke-width="1.515"><path d="M221.307 214.047c0 6.969-5.649 12.618-12.618 12.618s-12.618-5.65-12.618-12.618c0-6.97 5.65-12.619 12.618-12.619 6.969 0 12.618 5.65 12.618 12.619z" transform="matrix(-.34304 -.0541 -.05412 .34297 875.203 272.214)" fill="#fff" stroke-width="4.075" stroke-linecap="square"/><text y="666.876" x="180.558" style="line-height:125%" font-size="30" font-weight="400" letter-spacing="0" word-spacing="0" fill="navy" font-family="Sans" transform="matrix(-.46704 0 0 .46694 878.886 26.779)"><tspan y="666.876" x="180.558">-</tspan></text></g></g><g stroke="navy"><path d="M190.394 668.434l-17.407 3.18" fill="none" stroke-width="3.03" marker-end="url(#a)" transform="matrix(-.46704 0 0 .46694 869.352 74.53)"/><g stroke-width="1.515"><path transform="matrix(-.34304 -.0541 -.05412 .34297 859.633 324.184)" d="M221.307 214.047c0 6.969-5.649 12.618-12.618 12.618s-12.618-5.65-12.618-12.618c0-6.97 5.65-12.619 12.618-12.619 6.969 0 12.618 5.65 12.618 12.619z" fill="#fff" stroke-width="4.075" stroke-linecap="square"/><text style="line-height:125%" x="180.558" y="666.876" font-size="30" font-weight="400" letter-spacing="0" word-spacing="0" fill="navy" font-family="Sans" transform="matrix(-.46704 0 0 .46694 863.315 78.75)"><tspan x="180.558" y="666.876">-</tspan></text></g></g><g stroke="navy"><path d="M190.394 668.434l-17.407 3.18" fill="none" stroke-width="3.03" marker-end="url(#a)" transform="matrix(-.46704 0 0 .46694 883.363 86.268)"/><g stroke-width="1.515"><path d="M221.307 214.047c0 6.969-5.649 12.618-12.618 12.618s-12.618-5.65-12.618-12.618c0-6.97 5.65-12.619 12.618-12.619 6.969 0 12.618 5.65 12.618 12.619z" transform="matrix(-.34304 -.0541 -.05412 .34297 873.643 335.923)" fill="#fff" stroke-width="4.075" stroke-linecap="square"/><text y="666.876" x="180.558" style="line-height:125%" font-size="30" font-weight="400" letter-spacing="0" word-spacing="0" fill="navy" font-family="Sans" transform="matrix(-.46704 0 0 .46694 877.325 90.488)"><tspan y="666.876" x="180.558">-</tspan></text></g></g><g stroke="navy"><path d="M190.394 668.434l-17.407 3.18" fill="none" stroke-width="3.03" marker-end="url(#a)" transform="matrix(-.46704 0 0 .46694 923.976 94.506)"/><g stroke-width="1.515"><path transform="matrix(-.34304 -.0541 -.05412 .34297 914.256 344.161)" d="M221.307 214.047c0 6.969-5.649 12.618-12.618 12.618s-12.618-5.65-12.618-12.618c0-6.97 5.65-12.619 12.618-12.619 6.969 0 12.618 5.65 12.618 12.619z" fill="#fff" stroke-width="4.075" stroke-linecap="square"/><text style="line-height:125%" x="180.558" y="666.876" font-size="30" font-weight="400" letter-spacing="0" word-spacing="0" fill="navy" font-family="Sans" transform="matrix(-.46704 0 0 .46694 917.939 98.726)"><tspan x="180.558" y="666.876">-</tspan></text></g></g><g stroke="navy"><path d="M190.394 668.434l-17.407 3.18" fill="none" stroke-width="3.03" marker-end="url(#a)" transform="matrix(-.46704 0 0 .46694 929.68 76.52)"/><g stroke-width="1.515"><path d="M221.307 214.047c0 6.969-5.649 12.618-12.618 12.618s-12.618-5.65-12.618-12.618c0-6.97 5.65-12.619 12.618-12.619 6.969 0 12.618 5.65 12.618 12.619z" transform="matrix(-.34304 -.0541 -.05412 .34297 919.96 326.174)" fill="#fff" stroke-width="4.075" stroke-linecap="square"/><text y="666.876" x="180.558" style="line-height:125%" font-size="30" font-weight="400" letter-spacing="0" word-spacing="0" fill="navy" font-family="Sans" transform="matrix(-.46704 0 0 .46694 923.643 80.74)"><tspan y="666.876" x="180.558">-</tspan></text></g></g><g stroke="navy"><path d="M190.394 668.434l-17.407 3.18" fill="none" stroke-width="3.03" marker-end="url(#a)" transform="matrix(-.46704 0 0 .46694 909.934 54.145)"/><g stroke-width="1.515"><path transform="matrix(-.34304 -.0541 -.05412 .34297 900.214 303.8)" d="M221.307 214.047c0 6.969-5.649 12.618-12.618 12.618s-12.618-5.65-12.618-12.618c0-6.97 5.65-12.619 12.618-12.619 6.969 0 12.618 5.65 12.618 12.619z" fill="#fff" stroke-width="4.075" stroke-linecap="square"/><text style="line-height:125%" x="180.558" y="666.876" font-size="30" font-weight="400" letter-spacing="0" word-spacing="0" fill="navy" font-family="Sans" transform="matrix(-.46704 0 0 .46694 903.897 58.365)"><tspan x="180.558" y="666.876">-</tspan></text></g></g><g stroke="navy"><path d="M190.394 668.434l-17.407 3.18" fill="none" stroke-width="3.03" marker-end="url(#a)" transform="matrix(-.46704 0 0 .46694 929.68 38.352)"/><g stroke-width="1.515"><path d="M221.307 214.047c0 6.969-5.649 12.618-12.618 12.618s-12.618-5.65-12.618-12.618c0-6.97 5.65-12.619 12.618-12.619 6.969 0 12.618 5.65 12.618 12.619z" transform="matrix(-.34304 -.0541 -.05412 .34297 919.96 288.007)" fill="#fff" stroke-width="4.075" stroke-linecap="square"/><text y="666.876" x="180.558" style="line-height:125%" font-size="30" font-weight="400" letter-spacing="0" word-spacing="0" fill="navy" font-family="Sans" transform="matrix(-.46704 0 0 .46694 923.643 42.572)"><tspan y="666.876" x="180.558">-</tspan></text></g></g><g stroke="navy"><path d="M190.394 668.434l-17.407 3.18" fill="none" stroke-width="3.03" marker-end="url(#a)" transform="matrix(-.46704 0 0 .46694 965.661 101.087)"/><g stroke-width="1.515"><path d="M221.307 214.047c0 6.969-5.649 12.618-12.618 12.618s-12.618-5.65-12.618-12.618c0-6.97 5.65-12.619 12.618-12.619 6.969 0 12.618 5.65 12.618 12.619z" transform="matrix(-.34304 -.0541 -.05412 .34297 955.941 350.742)" fill="#fff" stroke-width="4.075" stroke-linecap="square"/><text y="666.876" x="180.558" style="line-height:125%" font-size="30" font-weight="400" letter-spacing="0" word-spacing="0" fill="navy" font-family="Sans" transform="matrix(-.46704 0 0 .46694 959.624 105.307)"><tspan y="666.876" x="180.558">-</tspan></text></g></g><g stroke="navy"><path d="M190.394 668.434l-17.407 3.18" fill="none" stroke-width="3.03" marker-end="url(#a)" transform="matrix(-.46704 0 0 .46694 958.202 61.603)"/><g stroke-width="1.515"><path d="M221.307 214.047c0 6.969-5.649 12.618-12.618 12.618s-12.618-5.65-12.618-12.618c0-6.97 5.65-12.619 12.618-12.619 6.969 0 12.618 5.65 12.618 12.619z" transform="matrix(-.34304 -.0541 -.05412 .34297 948.482 311.258)" fill="#fff" stroke-width="4.075" stroke-linecap="square"/><text y="666.876" x="180.558" style="line-height:125%" font-size="30" font-weight="400" letter-spacing="0" word-spacing="0" fill="navy" font-family="Sans" transform="matrix(-.46704 0 0 .46694 952.165 65.823)"><tspan y="666.876" x="180.558">-</tspan></text></g></g><g stroke="navy"><path d="M190.394 668.434l-17.407 3.18" fill="none" stroke-width="3.03" marker-end="url(#a)" transform="matrix(-.46704 0 0 .46694 804.292 68.933)"/><g stroke-width="1.515"><path d="M221.307 214.047c0 6.969-5.649 12.618-12.618 12.618s-12.618-5.65-12.618-12.618c0-6.97 5.65-12.619 12.618-12.619 6.969 0 12.618 5.65 12.618 12.619z" transform="matrix(-.34304 -.0541 -.05412 .34297 794.572 318.588)" fill="#fff" stroke-width="4.075" stroke-linecap="square"/><text y="666.876" x="180.558" style="line-height:125%" font-size="30" font-weight="400" letter-spacing="0" word-spacing="0" fill="navy" font-family="Sans" transform="matrix(-.46704 0 0 .46694 798.254 73.153)"><tspan y="666.876" x="180.558">-</tspan></text></g></g><g stroke="navy"><path d="M190.394 668.434l-17.407 3.18" fill="none" stroke-width="3.03" marker-end="url(#a)" transform="matrix(-.46704 0 0 .46694 787.36 42.203)"/><g stroke-width="1.515"><path transform="matrix(-.34304 -.0541 -.05412 .34297 777.64 291.858)" d="M221.307 214.047c0 6.969-5.649 12.618-12.618 12.618s-12.618-5.65-12.618-12.618c0-6.97 5.65-12.619 12.618-12.619 6.969 0 12.618 5.65 12.618 12.619z" fill="#fff" stroke-width="4.075" stroke-linecap="square"/><text style="line-height:125%" x="180.558" y="666.876" font-size="30" font-weight="400" letter-spacing="0" word-spacing="0" fill="navy" font-family="Sans" transform="matrix(-.46704 0 0 .46694 781.323 46.423)"><tspan x="180.558" y="666.876">-</tspan></text></g></g><g stroke="navy"><path d="M190.394 668.434l-17.407 3.18" fill="none" stroke-width="3.03" marker-end="url(#a)" transform="matrix(-.46704 0 0 .46694 805.94 35.44)"/><g stroke-width="1.515"><path d="M221.307 214.047c0 6.969-5.649 12.618-12.618 12.618s-12.618-5.65-12.618-12.618c0-6.97 5.65-12.619 12.618-12.619 6.969 0 12.618 5.65 12.618 12.619z" transform="matrix(-.34304 -.0541 -.05412 .34297 796.22 285.096)" fill="#fff" stroke-width="4.075" stroke-linecap="square"/><text y="666.876" x="180.558" style="line-height:125%" font-size="30" font-weight="400" letter-spacing="0" word-spacing="0" fill="navy" font-family="Sans" transform="matrix(-.46704 0 0 .46694 799.903 39.66)"><tspan y="666.876" x="180.558">-</tspan></text></g></g><g stroke="navy"><path d="M190.394 668.434l-17.407 3.18" fill="none" stroke-width="3.03" marker-end="url(#a)" transform="matrix(-.46704 0 0 .46694 808.808 10.949)"/><g stroke-width="1.515"><path transform="matrix(-.34304 -.0541 -.05412 .34297 799.088 260.604)" d="M221.307 214.047c0 6.969-5.649 12.618-12.618 12.618s-12.618-5.65-12.618-12.618c0-6.97 5.65-12.619 12.618-12.619 6.969 0 12.618 5.65 12.618 12.619z" fill="#fff" stroke-width="4.075" stroke-linecap="square"/><text style="line-height:125%" x="180.558" y="666.876" font-size="30" font-weight="400" letter-spacing="0" word-spacing="0" fill="navy" font-family="Sans" transform="matrix(-.46704 0 0 .46694 802.77 15.168)"><tspan x="180.558" y="666.876">-</tspan></text></g></g><g stroke="navy"><path d="M190.394 668.434l-17.407 3.18" fill="none" stroke-width="3.03" marker-end="url(#a)" transform="matrix(-.46704 0 0 .46694 845.432 13.785)"/><g stroke-width="1.515"><path d="M221.307 214.047c0 6.969-5.649 12.618-12.618 12.618s-12.618-5.65-12.618-12.618c0-6.97 5.65-12.619 12.618-12.619 6.969 0 12.618 5.65 12.618 12.619z" transform="matrix(-.34304 -.0541 -.05412 .34297 835.712 263.44)" fill="#fff" stroke-width="4.075" stroke-linecap="square"/><text y="666.876" x="180.558" style="line-height:125%" font-size="30" font-weight="400" letter-spacing="0" word-spacing="0" fill="navy" font-family="Sans" transform="matrix(-.46704 0 0 .46694 839.395 18.004)"><tspan y="666.876" x="180.558">-</tspan></text></g></g><g stroke="purple"><path d="M332.857 189.505c0 18.147-14.71 32.857-32.857 32.857-18.146 0-32.857-14.71-32.857-32.857 0-18.146 14.71-32.857 32.857-32.857 18.146 0 32.857 14.71 32.857 32.857z" transform="matrix(-.8722 -.13757 -.1376 .87203 896.49 210.818)" fill="#fff" stroke-width="2.404" stroke-linecap="square"/><text style="line-height:125%" x="438.803" y="748.404" transform="matrix(-.71795 0 0 .30375 943.703 120.26)" font-size="153.724" font-weight="400" letter-spacing="0" word-spacing="0" fill="purple" stroke-width="1.515" font-family="Sans"><tspan x="438.803" y="748.404">-</tspan></text></g><g stroke="purple"><path transform="scale(-.883 .88281) rotate(-8.965 1246.095 9233.334)" d="M332.857 189.505c0 18.147-14.71 32.857-32.857 32.857-18.146 0-32.857-14.71-32.857-32.857 0-18.146 14.71-32.857 32.857-32.857 18.146 0 32.857 14.71 32.857 32.857z" fill="#fff" stroke-width="2.404" stroke-linecap="square"/><text style="line-height:125%" x="-55.492" y="756.542" font-size="100" font-weight="400" letter-spacing="0" word-spacing="0" fill="purple" stroke-width="1.515" font-family="Sans" transform="matrix(-.46704 0 0 .46694 962.94 56.357)"><tspan x="-55.492" y="756.542">+</tspan></text></g><g stroke="#000" stroke-width="1.515"><g stroke-width="1.415" stroke-linecap="square"><path d="M140.719 120.219V293.78h460.719c.937.317 1.88.469 2.843.469 14.91 0 27-38.94 27-87s-12.09-87.031-27-87.031H140.72z" fill="none" transform="matrix(-.46133 -.07276 -.07278 .46124 452.562 296.41)"/><path d="M194.707 207.239c0 48.059-12.087 87.019-26.996 87.019-14.91 0-26.997-38.96-26.997-87.02 0-48.059 12.087-87.019 26.997-87.019s26.996 38.96 26.996 87.02z" transform="matrix(-.46133 -.07276 -.07278 .46124 465.017 298.373)" fill="#fff"/></g><g fill="none" stroke-width="7.575"><path d="M630.995 209.062l79.419-1.036M44.401 207.234h96.106" transform="matrix(-.46133 -.07276 -.07278 .46124 452.562 296.41)"/></g></g><path d="M332.857 189.505a32.857 32.857 0 1 1-65.714 0 32.857 32.857 0 1 1 65.714 0z" transform="matrix(-.33127 -.05225 -.05226 .3312 456.783 306.766)" fill="#fff" stroke="#000" stroke-width="6.329" stroke-linecap="square"/><path d="M332.857 189.505a32.857 32.857 0 1 1-65.714 0 32.857 32.857 0 1 1 65.714 0z" transform="matrix(-.33127 -.05225 -.05226 .3312 397.92 296.997)" fill="#fff" stroke="#000" stroke-width="6.329" stroke-linecap="square"/><path transform="matrix(-.33127 -.05225 -.05226 .3312 278.094 282.909)" d="M332.857 189.505a32.857 32.857 0 1 1-65.714 0 32.857 32.857 0 1 1 65.714 0z" fill="#fff" stroke="#000" stroke-width="6.329" stroke-linecap="square"/><path d="M332.857 189.505a32.857 32.857 0 1 1-65.714 0 32.857 32.857 0 1 1 65.714 0z" transform="matrix(-.33127 -.05225 -.05226 .3312 373.626 321.746)" fill="#fff" stroke="#000" stroke-width="6.329" stroke-linecap="square"/><path transform="matrix(-.33127 -.05225 -.05226 .3312 399.358 344.28)" d="M332.857 189.505a32.857 32.857 0 1 1-65.714 0 32.857 32.857 0 1 1 65.714 0z" fill="#fff" stroke="#000" stroke-width="6.329" stroke-linecap="square"/><path d="M332.857 189.505a32.857 32.857 0 1 1-65.714 0 32.857 32.857 0 1 1 65.714 0z" transform="matrix(-.33127 -.05225 -.05226 .3312 274.396 325.007)" fill="#fff" stroke="#000" stroke-width="6.329" stroke-linecap="square"/><path transform="matrix(-.33127 -.05225 -.05226 .3312 353.025 290.475)" d="M332.857 189.505a32.857 32.857 0 1 1-65.714 0 32.857 32.857 0 1 1 65.714 0z" fill="#fff" stroke="#000" stroke-width="6.329" stroke-linecap="square"/><path d="M332.857 189.505a32.857 32.857 0 1 1-65.714 0 32.857 32.857 0 1 1 65.714 0z" transform="matrix(-.33127 -.05225 -.05226 .3312 338.186 333.45)" fill="#fff" stroke="#000" stroke-width="6.329" stroke-linecap="square"/><path transform="matrix(-.33127 -.05225 -.05226 .3312 319.355 286.821)" d="M332.857 189.505a32.857 32.857 0 1 1-65.714 0 32.857 32.857 0 1 1 65.714 0z" fill="#fff" stroke="#000" stroke-width="6.329" stroke-linecap="square"/><path d="M332.857 189.505a32.857 32.857 0 1 1-65.714 0 32.857 32.857 0 1 1 65.714 0z" transform="matrix(-.33127 -.05225 -.05226 .3312 438.43 355.576)" fill="#fff" stroke="#000" stroke-width="6.329" stroke-linecap="square"/><path d="M332.857 189.505a32.857 32.857 0 1 1-65.714 0 32.857 32.857 0 1 1 65.714 0z" transform="matrix(-.33127 -.05225 -.05226 .3312 425.433 321.721)" fill="#fff" stroke="#000" stroke-width="6.329" stroke-linecap="square"/><path d="M332.857 189.505a32.857 32.857 0 1 1-65.714 0 32.857 32.857 0 1 1 65.714 0z" transform="matrix(-.33127 -.05225 -.05226 .3312 309.046 318.938)" fill="#fff" stroke="#000" stroke-width="6.329" stroke-linecap="square"/><g stroke="navy" stroke-width="1.515"><path d="M192.246 672.721l-12.907 12.106" fill="none" stroke-width="3.03" marker-end="url(#a)" transform="matrix(-.46704 0 0 .46694 417.5 27.84)"/><path transform="matrix(-.34304 -.0541 -.05412 .34297 407.78 277.495)" d="M221.307 214.047c0 6.969-5.649 12.618-12.618 12.618s-12.618-5.65-12.618-12.618c0-6.97 5.65-12.619 12.618-12.619 6.969 0 12.618 5.65 12.618 12.619z" fill="#fff" stroke-width="4.075" stroke-linecap="square"/><text style="line-height:125%" x="180.558" y="666.876" font-size="30" font-weight="400" letter-spacing="0" word-spacing="0" fill="navy" font-family="Sans" transform="matrix(-.46704 0 0 .46694 411.463 32.06)"><tspan x="180.558" y="666.876">-</tspan></text></g><g stroke="navy" stroke-width="1.515"><path d="M221.307 214.047c0 6.969-5.649 12.618-12.618 12.618s-12.618-5.65-12.618-12.618c0-6.97 5.65-12.619 12.618-12.619 6.969 0 12.618 5.65 12.618 12.619z" transform="matrix(-.34304 -.0541 -.05412 .34297 392.422 286.258)" fill="#fff" stroke-width="4.075" stroke-linecap="square"/><text y="666.876" x="180.558" style="line-height:125%" font-size="30" font-weight="400" letter-spacing="0" word-spacing="0" fill="navy" font-family="Sans" transform="matrix(-.46704 0 0 .46694 396.105 40.823)"><tspan y="666.876" x="180.558">-</tspan></text><path d="M200.105 658.68l1.435-17.638" fill="none" stroke-width="3.03" marker-end="url(#a)" transform="matrix(-.46704 0 0 .46694 402.142 36.603)"/></g><g stroke="navy" stroke-width="1.515"><path d="M190.775 670.199l-16.417 6.603" fill="none" stroke-width="3.03" marker-end="url(#a)" transform="matrix(-.46704 0 0 .46694 430.687 59.87)"/><path d="M221.307 214.047c0 6.969-5.649 12.618-12.618 12.618s-12.618-5.65-12.618-12.618c0-6.97 5.65-12.619 12.618-12.619 6.969 0 12.618 5.65 12.618 12.619z" transform="matrix(-.34304 -.0541 -.05412 .34297 420.967 309.524)" fill="#fff" stroke-width="4.075" stroke-linecap="square"/><text y="666.876" x="180.558" style="line-height:125%" font-size="30" font-weight="400" letter-spacing="0" word-spacing="0" fill="navy" font-family="Sans" transform="matrix(-.46704 0 0 .46694 424.65 64.089)"><tspan y="666.876" x="180.558">-</tspan></text></g><g stroke="navy" stroke-width="1.515"><path d="M190.88 664.42l-16.941-5.111" fill="none" stroke-width="3.03" marker-end="url(#a)" transform="matrix(-.46704 0 0 .46694 329.538 51.183)"/><path d="M221.307 214.047c0 6.969-5.649 12.618-12.618 12.618s-12.618-5.65-12.618-12.618c0-6.97 5.65-12.619 12.618-12.619 6.969 0 12.618 5.65 12.618 12.619z" transform="matrix(-.34304 -.0541 -.05412 .34297 319.818 300.838)" fill="#fff" stroke-width="4.075" stroke-linecap="square"/><text y="666.876" x="180.558" style="line-height:125%" font-size="30" font-weight="400" letter-spacing="0" word-spacing="0" fill="navy" font-family="Sans" transform="matrix(-.46704 0 0 .46694 323.5 55.403)"><tspan y="666.876" x="180.558">-</tspan></text></g><g stroke="navy" stroke-width="1.515"><path d="M190.973 670.828l-15.992 7.576" fill="none" stroke-width="3.03" marker-end="url(#a)" transform="matrix(-.46704 0 0 .46694 357.773 38.31)"/><path transform="matrix(-.34304 -.0541 -.05412 .34297 348.053 287.964)" d="M221.307 214.047c0 6.969-5.649 12.618-12.618 12.618s-12.618-5.65-12.618-12.618c0-6.97 5.65-12.619 12.618-12.619 6.969 0 12.618 5.65 12.618 12.619z" fill="#fff" stroke-width="4.075" stroke-linecap="square"/><text style="line-height:125%" x="180.558" y="666.876" font-size="30" font-weight="400" letter-spacing="0" word-spacing="0" fill="navy" font-family="Sans" transform="matrix(-.46704 0 0 .46694 351.736 42.53)"><tspan x="180.558" y="666.876">-</tspan></text></g><g stroke="navy" stroke-width="1.515"><path d="M203.304 674.892l9.866 14.69" fill="none" stroke-width="3.03" marker-end="url(#a)" transform="matrix(-.46704 0 0 .46694 357.385 20.783)"/><path d="M221.307 214.047c0 6.969-5.649 12.618-12.618 12.618s-12.618-5.65-12.618-12.618c0-6.97 5.65-12.619 12.618-12.619 6.969 0 12.618 5.65 12.618 12.619z" transform="matrix(-.34304 -.0541 -.05412 .34297 347.665 270.438)" fill="#fff" stroke-width="4.075" stroke-linecap="square"/><text y="666.876" x="180.558" style="line-height:125%" font-size="30" font-weight="400" letter-spacing="0" word-spacing="0" fill="navy" font-family="Sans" transform="matrix(-.46704 0 0 .46694 351.348 25.002)"><tspan y="666.876" x="180.558">-</tspan></text></g><g stroke="navy" stroke-width="1.515"><path d="M195.246 674.837l-5.95 16.665" fill="none" stroke-width="3.03" marker-end="url(#a)" transform="matrix(-.46704 0 0 .46694 382.362 52.347)"/><path transform="matrix(-.34304 -.0541 -.05412 .34297 372.642 302.002)" d="M221.307 214.047c0 6.969-5.649 12.618-12.618 12.618s-12.618-5.65-12.618-12.618c0-6.97 5.65-12.619 12.618-12.619 6.969 0 12.618 5.65 12.618 12.619z" fill="#fff" stroke-width="4.075" stroke-linecap="square"/><text style="line-height:125%" x="180.558" y="666.876" font-size="30" font-weight="400" letter-spacing="0" word-spacing="0" fill="navy" font-family="Sans" transform="matrix(-.46704 0 0 .46694 376.325 56.566)"><tspan x="180.558" y="666.876">-</tspan></text></g><g stroke="navy" stroke-width="1.515"><path d="M191.89 662.606l-14.952-9.464" fill="none" stroke-width="3.03" marker-end="url(#a)" transform="matrix(-.46704 0 0 .46694 355.834 84.531)"/><path d="M221.307 214.047c0 6.969-5.649 12.618-12.618 12.618s-12.618-5.65-12.618-12.618c0-6.97 5.65-12.619 12.618-12.619 6.969 0 12.618 5.65 12.618 12.619z" transform="matrix(-.34304 -.0541 -.05412 .34297 346.114 334.186)" fill="#fff" stroke-width="4.075" stroke-linecap="square"/><text y="666.876" x="180.558" style="line-height:125%" font-size="30" font-weight="400" letter-spacing="0" word-spacing="0" fill="navy" font-family="Sans" transform="matrix(-.46704 0 0 .46694 349.796 88.75)"><tspan y="666.876" x="180.558">-</tspan></text></g><g stroke="navy" stroke-width="1.515"><path d="M190.981 664.039l-16.906-5.227" fill="none" stroke-width="3.03" marker-end="url(#a)" transform="matrix(-.46704 0 0 .46694 402.142 74.76)"/><path transform="matrix(-.34304 -.0541 -.05412 .34297 392.422 324.414)" d="M221.307 214.047c0 6.969-5.649 12.618-12.618 12.618s-12.618-5.65-12.618-12.618c0-6.97 5.65-12.619 12.618-12.619 6.969 0 12.618 5.65 12.618 12.619z" fill="#fff" stroke-width="4.075" stroke-linecap="square"/><text style="line-height:125%" x="180.558" y="666.876" font-size="30" font-weight="400" letter-spacing="0" word-spacing="0" fill="navy" font-family="Sans" transform="matrix(-.46704 0 0 .46694 396.105 78.98)"><tspan x="180.558" y="666.876">-</tspan></text></g><g stroke="navy" stroke-width="1.515"><path d="M195.771 659.666l-7.033-16.238" fill="none" stroke-width="3.03" marker-end="url(#a)" transform="matrix(-.46704 0 0 .46694 438.134 99.344)"/><path d="M221.307 214.047c0 6.969-5.649 12.618-12.618 12.618s-12.618-5.65-12.618-12.618c0-6.97 5.65-12.619 12.618-12.619 6.969 0 12.618 5.65 12.618 12.619z" transform="matrix(-.34304 -.0541 -.05412 .34297 428.414 348.998)" fill="#fff" stroke-width="4.075" stroke-linecap="square"/><text y="666.876" x="180.558" style="line-height:125%" font-size="30" font-weight="400" letter-spacing="0" word-spacing="0" fill="navy" font-family="Sans" transform="matrix(-.46704 0 0 .46694 432.097 103.563)"><tspan y="666.876" x="180.558">-</tspan></text></g><g stroke="navy" stroke-width="1.515"><path d="M205.466 660.919l11.245-13.664" fill="none" stroke-width="3.03" marker-end="url(#a)" transform="matrix(-.46704 0 0 .46694 435.496 79.102)"/><path transform="matrix(-.34304 -.0541 -.05412 .34297 425.777 328.757)" d="M221.307 214.047c0 6.969-5.649 12.618-12.618 12.618s-12.618-5.65-12.618-12.618c0-6.97 5.65-12.619 12.618-12.619 6.969 0 12.618 5.65 12.618 12.619z" fill="#fff" stroke-width="4.075" stroke-linecap="square"/><text style="line-height:125%" x="180.558" y="666.876" font-size="30" font-weight="400" letter-spacing="0" word-spacing="0" fill="navy" font-family="Sans" transform="matrix(-.46704 0 0 .46694 429.46 83.322)"><tspan x="180.558" y="666.876">-</tspan></text></g><g stroke="navy" stroke-width="1.515"><path d="M206.56 669.666l17.292 3.759" fill="none" stroke-width="3.03" marker-end="url(#a)" transform="matrix(-.46704 0 0 .46694 259.794 40.478)"/><path d="M221.307 214.047c0 6.969-5.649 12.618-12.618 12.618s-12.618-5.65-12.618-12.618c0-6.97 5.65-12.619 12.618-12.619 6.969 0 12.618 5.65 12.618 12.619z" transform="matrix(-.34304 -.0541 -.05412 .34297 250.074 290.133)" fill="#fff" stroke-width="4.075" stroke-linecap="square"/><text y="666.876" x="180.558" style="line-height:125%" font-size="30" font-weight="400" letter-spacing="0" word-spacing="0" fill="navy" font-family="Sans" transform="matrix(-.46704 0 0 .46694 253.757 44.698)"><tspan y="666.876" x="180.558">-</tspan></text></g><g stroke="navy" stroke-width="1.515"><path d="M201.133 660.234l5.95-16.665" fill="none" stroke-width="3.03" marker-end="url(#a)" transform="matrix(-.46704 0 0 .46694 276.714 67.16)"/><path transform="matrix(-.34304 -.0541 -.05412 .34297 266.994 316.814)" d="M221.307 214.047c0 6.969-5.649 12.618-12.618 12.618s-12.618-5.65-12.618-12.618c0-6.97 5.65-12.619 12.618-12.619 6.969 0 12.618 5.65 12.618 12.619z" fill="#fff" stroke-width="4.075" stroke-linecap="square"/><text style="line-height:125%" x="180.558" y="666.876" font-size="30" font-weight="400" letter-spacing="0" word-spacing="0" fill="navy" font-family="Sans" transform="matrix(-.46704 0 0 .46694 270.677 71.379)"><tspan x="180.558" y="666.876">-</tspan></text></g><g stroke="navy" stroke-width="1.515"><path d="M190.394 668.434l-17.407 3.18" fill="none" stroke-width="3.03" marker-end="url(#a)" transform="matrix(-.46704 0 0 .46694 278.343 33.656)"/><path d="M221.307 214.047c0 6.969-5.649 12.618-12.618 12.618s-12.618-5.65-12.618-12.618c0-6.97 5.65-12.619 12.618-12.619 6.969 0 12.618 5.65 12.618 12.619z" transform="matrix(-.34304 -.0541 -.05412 .34297 268.623 283.311)" fill="#fff" stroke-width="4.075" stroke-linecap="square"/><text y="666.876" x="180.558" style="line-height:125%" font-size="30" font-weight="400" letter-spacing="0" word-spacing="0" fill="navy" font-family="Sans" transform="matrix(-.46704 0 0 .46694 272.306 37.876)"><tspan y="666.876" x="180.558">-</tspan></text></g><g stroke="navy" stroke-width="1.515"><path d="M196.377 675.665l-4.208 17.188" fill="none" stroke-width="3.03" marker-end="url(#a)" transform="matrix(-.46704 0 0 .46694 281.29 9.15)"/><path transform="matrix(-.34304 -.0541 -.05412 .34297 271.57 258.805)" d="M221.307 214.047c0 6.969-5.649 12.618-12.618 12.618s-12.618-5.65-12.618-12.618c0-6.97 5.65-12.619 12.618-12.619 6.969 0 12.618 5.65 12.618 12.619z" fill="#fff" stroke-width="4.075" stroke-linecap="square"/><text style="line-height:125%" x="180.558" y="666.876" font-size="30" font-weight="400" letter-spacing="0" word-spacing="0" fill="navy" font-family="Sans" transform="matrix(-.46704 0 0 .46694 275.253 13.37)"><tspan x="180.558" y="666.876">-</tspan></text></g><g stroke="navy" stroke-width="1.515"><path d="M191.375 671.45l-14.928 9.502" fill="none" stroke-width="3.03" marker-end="url(#a)" transform="matrix(-.46704 0 0 .46694 296.855 75.746)"/><path d="M221.307 214.047c0 6.969-5.649 12.618-12.618 12.618s-12.618-5.65-12.618-12.618c0-6.97 5.65-12.619 12.618-12.619 6.969 0 12.618 5.65 12.618 12.619z" transform="matrix(-.34304 -.0541 -.05412 .34297 287.135 325.4)" fill="#fff" stroke-width="4.075" stroke-linecap="square"/><text y="666.876" x="180.558" style="line-height:125%" font-size="30" font-weight="400" letter-spacing="0" word-spacing="0" fill="navy" font-family="Sans" transform="matrix(-.46704 0 0 .46694 290.818 79.965)"><tspan y="666.876" x="180.558">-</tspan></text></g><g stroke="navy" stroke-width="1.515"><path d="M193.808 660.522l-11.458-13.486" fill="none" stroke-width="3.03" marker-end="url(#a)" transform="matrix(-.46704 0 0 .46694 308.835 41.143)"/><path transform="matrix(-.34304 -.0541 -.05412 .34297 299.115 290.798)" d="M221.307 214.047c0 6.969-5.649 12.618-12.618 12.618s-12.618-5.65-12.618-12.618c0-6.97 5.65-12.619 12.618-12.619 6.969 0 12.618 5.65 12.618 12.619z" fill="#fff" stroke-width="4.075" stroke-linecap="square"/><text style="line-height:125%" x="180.558" y="666.876" font-size="30" font-weight="400" letter-spacing="0" word-spacing="0" fill="navy" font-family="Sans" transform="matrix(-.46704 0 0 .46694 302.798 45.363)"><tspan x="180.558" y="666.876">-</tspan></text></g><g stroke="navy" stroke-width="1.515"><path d="M207.957 663.814l15.586-8.38" fill="none" stroke-width="3.03" marker-end="url(#a)" transform="matrix(-.46704 0 0 .46694 317.894 11.97)"/><path d="M221.307 214.047c0 6.969-5.649 12.618-12.618 12.618s-12.618-5.65-12.618-12.618c0-6.97 5.65-12.619 12.618-12.619 6.969 0 12.618 5.65 12.618 12.619z" transform="matrix(-.34304 -.0541 -.05412 .34297 308.174 261.624)" fill="#fff" stroke-width="4.075" stroke-linecap="square"/><text y="666.876" x="180.558" style="line-height:125%" font-size="30" font-weight="400" letter-spacing="0" word-spacing="0" fill="navy" font-family="Sans" transform="matrix(-.46704 0 0 .46694 311.857 16.189)"><tspan y="666.876" x="180.558">-</tspan></text></g><g stroke="navy" stroke-width="1.515"><path d="M201.649 674.005l9.505 14.926" fill="none" stroke-width="3.03" marker-end="url(#a)" transform="matrix(-.46704 0 0 .46694 341.809 72.73)"/><path transform="matrix(-.34304 -.0541 -.05412 .34297 332.089 322.384)" d="M221.307 214.047c0 6.969-5.649 12.618-12.618 12.618s-12.618-5.65-12.618-12.618c0-6.97 5.65-12.619 12.618-12.619 6.969 0 12.618 5.65 12.618 12.619z" fill="#fff" stroke-width="4.075" stroke-linecap="square"/><text style="line-height:125%" x="180.558" y="666.876" font-size="30" font-weight="400" letter-spacing="0" word-spacing="0" fill="navy" font-family="Sans" transform="matrix(-.46704 0 0 .46694 335.771 76.95)"><tspan x="180.558" y="666.876">-</tspan></text></g><g stroke="navy" stroke-width="1.515"><path d="M208.09 669.228l17.54 2.34" fill="none" stroke-width="3.03" marker-end="url(#a)" transform="matrix(-.46704 0 0 .46694 396.402 92.752)"/><path d="M221.307 214.047c0 6.969-5.649 12.618-12.618 12.618s-12.618-5.65-12.618-12.618c0-6.97 5.65-12.619 12.618-12.619 6.969 0 12.618 5.65 12.618 12.619z" transform="matrix(-.34304 -.0541 -.05412 .34297 386.682 342.406)" fill="#fff" stroke-width="4.075" stroke-linecap="square"/><text y="666.876" x="180.558" style="line-height:125%" font-size="30" font-weight="400" letter-spacing="0" word-spacing="0" fill="navy" font-family="Sans" transform="matrix(-.46704 0 0 .46694 390.365 96.971)"><tspan y="666.876" x="180.558">-</tspan></text></g><path d="M526.181 472.178V257.605" fill="none" stroke="#999"/></svg>