<?xml version="1.0" encoding="UTF-8" standalone="no"?>
<!-- Created with Inkscape (http://www.inkscape.org/) -->

<svg
   xmlns:dc="http://purl.org/dc/elements/1.1/"
   xmlns:cc="http://creativecommons.org/ns#"
   xmlns:rdf="http://www.w3.org/1999/02/22-rdf-syntax-ns#"
   xmlns:svg="http://www.w3.org/2000/svg"
   xmlns="http://www.w3.org/2000/svg"
   xmlns:sodipodi="http://sodipodi.sourceforge.net/DTD/sodipodi-0.dtd"
   xmlns:inkscape="http://www.inkscape.org/namespaces/inkscape"
   width="210mm"
   height="297mm"
   id="svg2"
   version="1.1"
   inkscape:version="0.48.4 r9939"
   sodipodi:docname="wasserdruck-spannung.svg"
   inkscape:export-filename="/home/waldgeist/data/pics/physik/Own/elektrizitaet-magnetismus/wasserdruck-spannung.png"
   inkscape:export-xdpi="90"
   inkscape:export-ydpi="90">
  <title
     id="title19442">Spannung (Wassermodell)</title>
  <defs
     id="defs4">
    <inkscape:path-effect
       effect="spiro"
       id="path-effect4815"
       is_visible="true" />
    <inkscape:path-effect
       effect="spiro"
       id="path-effect4212"
       is_visible="true" />
    <inkscape:path-effect
       effect="spiro"
       id="path-effect3976"
       is_visible="true" />
    <inkscape:path-effect
       effect="spiro"
       id="path-effect3948"
       is_visible="true" />
    <inkscape:path-effect
       effect="spiro"
       id="path-effect3944"
       is_visible="true" />
    <inkscape:path-effect
       effect="spiro"
       id="path-effect3940"
       is_visible="true" />
    <inkscape:path-effect
       effect="spiro"
       id="path-effect3936"
       is_visible="true" />
    <inkscape:path-effect
       is_visible="true"
       id="path-effect3902"
       effect="spiro" />
    <inkscape:path-effect
       is_visible="true"
       id="path-effect3898"
       effect="spiro" />
    <inkscape:path-effect
       is_visible="true"
       id="path-effect3865"
       effect="spiro" />
    <inkscape:path-effect
       effect="spiro"
       id="path-effect3850"
       is_visible="true" />
    <inkscape:path-effect
       is_visible="true"
       id="path-effect3846"
       effect="spiro" />
    <inkscape:path-effect
       effect="spiro"
       id="path-effect3074"
       is_visible="true" />
    <inkscape:path-effect
       is_visible="true"
       id="path-effect3069"
       effect="spiro" />
    <inkscape:path-effect
       effect="spiro"
       id="path-effect3065"
       is_visible="true" />
    <inkscape:path-effect
       effect="spiro"
       id="path-effect3061"
       is_visible="true" />
    <inkscape:path-effect
       effect="spiro"
       id="path-effect3057"
       is_visible="true" />
    <inkscape:path-effect
       is_visible="true"
       id="path-effect3902-2"
       effect="spiro" />
  </defs>
  <sodipodi:namedview
     id="base"
     pagecolor="#ffffff"
     bordercolor="#666666"
     borderopacity="1.0"
     inkscape:pageopacity="0.0"
     inkscape:pageshadow="2"
     inkscape:zoom="0.47363283"
     inkscape:cx="446.82715"
     inkscape:cy="786.76452"
     inkscape:document-units="px"
     inkscape:current-layer="layer1"
     showgrid="false"
     inkscape:window-width="1600"
     inkscape:window-height="1150"
     inkscape:window-x="0"
     inkscape:window-y="0"
     inkscape:window-maximized="1"
     inkscape:snap-center="true"
     showguides="true"
     inkscape:guide-bbox="true"
     inkscape:snap-smooth-nodes="true"
     inkscape:object-nodes="false"
     inkscape:snap-global="false"
     inkscape:object-paths="true" />
  <metadata
     id="metadata7">
    <rdf:RDF>
      <cc:Work
         rdf:about="">
        <dc:format>image/svg+xml</dc:format>
        <dc:type
           rdf:resource="http://purl.org/dc/dcmitype/StillImage" />
        <dc:title>Spannung (Wassermodell)</dc:title>
        <cc:license
           rdf:resource="http://creativecommons.org/licenses/by-nc-sa/3.0/" />
        <dc:date>2012-04-24</dc:date>
        <dc:creator>
          <cc:Agent>
            <dc:title>Bernhard Grotz</dc:title>
          </cc:Agent>
        </dc:creator>
        <dc:rights>
          <cc:Agent>
            <dc:title>Bernhard Grotz</dc:title>
          </cc:Agent>
        </dc:rights>
        <dc:publisher>
          <cc:Agent>
            <dc:title>Bernhard Grotz</dc:title>
          </cc:Agent>
        </dc:publisher>
        <dc:language>de-DE</dc:language>
        <dc:subject>
          <rdf:Bag>
            <rdf:li>Physik</rdf:li>
            <rdf:li>Elektrizitaetslehre</rdf:li>
            <rdf:li>Spannung</rdf:li>
            <rdf:li>Wassermodell</rdf:li>
            <rdf:li>Fuellhoehe</rdf:li>
          </rdf:Bag>
        </dc:subject>
      </cc:Work>
      <cc:License
         rdf:about="http://creativecommons.org/licenses/by-nc-sa/3.0/">
        <cc:permits
           rdf:resource="http://creativecommons.org/ns#Reproduction" />
        <cc:permits
           rdf:resource="http://creativecommons.org/ns#Distribution" />
        <cc:requires
           rdf:resource="http://creativecommons.org/ns#Notice" />
        <cc:requires
           rdf:resource="http://creativecommons.org/ns#Attribution" />
        <cc:prohibits
           rdf:resource="http://creativecommons.org/ns#CommercialUse" />
        <cc:permits
           rdf:resource="http://creativecommons.org/ns#DerivativeWorks" />
        <cc:requires
           rdf:resource="http://creativecommons.org/ns#ShareAlike" />
      </cc:License>
    </rdf:RDF>
  </metadata>
  <g
     inkscape:label="Ebene 1"
     inkscape:groupmode="layer"
     id="layer1">
    <rect
       style="fill:#ffffff;stroke:#ffffff;stroke-width:0.76332246999999998;stroke-linecap:square;stroke-miterlimit:4;stroke-dasharray:none;stroke-dashoffset:0"
       id="rect4623"
       width="616.23669"
       height="496.23669"
       x="-680.16559"
       y="278.06274"
       rx="0"
       ry="0"
       transform="scale(-1,1)"
       inkscape:export-filename="/home/waldgeist/data/homepage/pics/physik/elektrizitaet-magnetismus/wasserdruck-spannung.png"
       inkscape:export-xdpi="150"
       inkscape:export-ydpi="150" />
    <g
       id="g4005">
      <g
         id="g3970" />
      <g
         transform="matrix(-1,0,0,1,704.04404,0)"
         id="g4001" />
    </g>
    <g
       transform="matrix(0,0.86610521,1,0,-236.06571,596.88914)"
       id="g3988" />
    <g
       id="g4246"
       transform="matrix(-1,0,0,1.0382097,705.6799,-26.531004)">
      <g
         transform="matrix(0,0.86610521,-1,0,942.74614,617.72103)"
         id="g4248">
        <g
           id="g4250" />
      </g>
      <g
         id="g4255"
         transform="matrix(0,0.86610521,-1,0,942.74614,606.14216)" />
    </g>
    <g
       id="g3196"
       transform="matrix(0,1,-1,0,942.60435,636.50407)" />
    <g
       id="g3980"
       transform="matrix(0,0.86610521,1,0,-232.62517,606.14216)" />
    <g
       id="g3984"
       transform="matrix(0,0.86610521,1,0,-236.06571,610.49571)" />
    <path
       inkscape:connector-curvature="0"
       style="color:#000000;fill:#5fbcd3;fill-opacity:1;stroke:none;stroke-width:3;marker:none;visibility:visible;display:inline;overflow:visible;enable-background:accumulate"
       d="m 171.59375,458.58093 0,199.25 c 0,11.75211 9.46663,21.21875 21.21875,21.21875 l 182.375,0 c 11.75212,0 21.21875,-9.46664 21.21875,-21.21875 l 0,-199.25 z"
       id="path5436"
       sodipodi:nodetypes="csssscc"
       inkscape:export-filename="/home/waldgeist/data/homepage/pics/physik/elektrizitaet-magnetismus/wasserdruck-spannung.png"
       inkscape:export-xdpi="150"
       inkscape:export-ydpi="150" />
    <path
       id="rect3686"
       d="m 263.84375,343.67468 0,29.6875 -71.03125,0 c -11.75212,0 -21.21875,9.46664 -21.21875,21.21875 l 0,263.25 c 0,11.75211 9.46663,21.21875 21.21875,21.21875 l 182.375,0 c 11.75212,0 21.21875,-9.46664 21.21875,-21.21875 l 0,-263.25 c 0,-11.75211 -9.46663,-21.21875 -21.21875,-21.21875 l -71.03125,0 0,-29.6875 -40.3125,0 z"
       style="color:#000000;fill:none;stroke:#000000;stroke-width:3;stroke-linecap:round;stroke-linejoin:round;stroke-miterlimit:4;stroke-opacity:1;stroke-dashoffset:0;marker:none;visibility:visible;display:inline;overflow:visible;enable-background:accumulate"
       inkscape:connector-curvature="0"
       inkscape:export-filename="/home/waldgeist/data/homepage/pics/physik/elektrizitaet-magnetismus/wasserdruck-spannung.png"
       inkscape:export-xdpi="150"
       inkscape:export-ydpi="150" />
    <path
       style="fill:#808080;stroke:#000000;stroke-width:2.70578146;stroke-linecap:butt;stroke-linejoin:miter;stroke-miterlimit:4;stroke-opacity:1;stroke-dasharray:none"
       d="m 495.42097,493.10191 0,18.31951 -6.4453,3.71844 -6.27176,0 -1.33864,0 -6.27176,0 -6.4453,-3.71844 0,-18.31951 c 4.46213,0 8.92425,-3.96633 13.38638,-3.96633 4.46213,0 8.92425,3.96633 13.38638,3.96633 z"
       id="path3063"
       inkscape:connector-curvature="0"
       sodipodi:nodetypes="ccccccccsc"
       inkscape:export-filename="/home/waldgeist/data/homepage/pics/physik/elektrizitaet-magnetismus/wasserdruck-spannung.png"
       inkscape:export-xdpi="150"
       inkscape:export-ydpi="150" />
    <path
       id="path3848"
       style="fill:#cccccc;stroke:#000000;stroke-width:2.70578146;stroke-linecap:butt;stroke-linejoin:miter;stroke-miterlimit:4;stroke-opacity:1;stroke-dasharray:none"
       inkscape:path-effect="#path-effect3850"
       inkscape:original-d="m 497.1694,494.2002 35.6524,-1.64189 c 0,0 4.24603,-0.40135 5.68131,0.86748 0.85835,0.75881 0.93158,3.30833 0.93158,3.30833 l 0,11.30998 c 0,0 -0.0732,2.54952 -0.93158,3.30832 -1.43528,1.26884 -5.68131,0.86748 -5.68131,0.86748 l -35.6524,-1.64188 z"
       d="m 497.1694,494.2002 35.6524,-1.64189 c 0.98454,-0.0453 1.96986,-0.12822 2.95457,-0.0868 0.49235,0.0207 0.98605,0.0803 1.4569,0.22567 0.47085,0.14541 0.92041,0.38109 1.26984,0.72857 0.41783,0.41549 0.67303,0.97387 0.80011,1.54925 0.12708,0.57538 0.13147,1.16983 0.13147,1.75908 l 0,11.30998 c 0,0.58925 -0.004,1.18369 -0.13147,1.75907 -0.12709,0.57538 -0.38228,1.13376 -0.80011,1.54925 -0.34943,0.34748 -0.79899,0.58316 -1.26984,0.72857 -0.47085,0.14541 -0.96455,0.20493 -1.4569,0.22567 -0.98471,0.0415 -1.97003,-0.0414 -2.95457,-0.0868 l -35.6524,-1.64188 0,-16.37782"
       inkscape:connector-curvature="0"
       sodipodi:nodetypes="ccsccsccc"
       inkscape:export-filename="/home/waldgeist/data/homepage/pics/physik/elektrizitaet-magnetismus/wasserdruck-spannung.png"
       inkscape:export-xdpi="150"
       inkscape:export-ydpi="150" />
    <path
       sodipodi:nodetypes="ccsccsccc"
       inkscape:connector-curvature="0"
       d="m 466.89978,494.2002 -35.6524,-1.64189 c -0.98454,-0.0453 -1.96986,-0.12822 -2.95457,-0.0868 -0.49235,0.0207 -0.98605,0.0803 -1.4569,0.22567 -0.47085,0.14541 -0.92041,0.38109 -1.26984,0.72857 -0.41783,0.41549 -0.67303,0.97387 -0.80011,1.54925 -0.12708,0.57538 -0.13147,1.16983 -0.13147,1.75908 l 0,11.30998 c 0,0.58925 0.004,1.18369 0.13147,1.75907 0.12709,0.57538 0.38228,1.13376 0.80011,1.54925 0.34943,0.34748 0.79899,0.58316 1.26984,0.72857 0.47085,0.14541 0.96455,0.20493 1.4569,0.22567 0.98471,0.0415 1.97003,-0.0414 2.95457,-0.0868 l 35.6524,-1.64188 0,-16.37782"
       inkscape:original-d="m 466.89978,494.2002 -35.6524,-1.64189 c 0,0 -4.24603,-0.40135 -5.68131,0.86748 -0.85835,0.75881 -0.93158,3.30833 -0.93158,3.30833 l 0,11.30998 c 0,0 0.0732,2.54952 0.93158,3.30832 1.43528,1.26884 5.68131,0.86748 5.68131,0.86748 l 35.6524,-1.64188 z"
       inkscape:path-effect="#path-effect3865"
       style="fill:#cccccc;stroke:#000000;stroke-width:2.70578146;stroke-linecap:butt;stroke-linejoin:miter;stroke-miterlimit:4;stroke-opacity:1;stroke-dasharray:none"
       id="path3863"
       inkscape:export-filename="/home/waldgeist/data/homepage/pics/physik/elektrizitaet-magnetismus/wasserdruck-spannung.png"
       inkscape:export-xdpi="150"
       inkscape:export-ydpi="150" />
    <path
       sodipodi:nodetypes="scccccccccccccs"
       inkscape:connector-curvature="0"
       id="path3896"
       d="m 514.87738,640.41647 c 33.45885,7.30391 38.95566,21.01058 39.8976,47.02518 l 0,52.02475 c -0.34969,-0.30309 -11.47564,0 -11.47564,0 l -0.29915,-57.2681 c -0.2949,-32.16023 -39.41458,-31.2006 -47.91858,-29.04614 0.1373,-0.0251 -3.31144,5.23672 -3.31144,5.23672 l -21.68039,-0.21573 -5.53827,-5.24348 c -19.61236,0.11896 -55.27124,-0.48095 -73.49534,-0.6596 0,-8.15937 -0.12361,-18.66777 -0.12361,-26.82714 10.44872,0 61.27267,-0.51167 61.27267,-0.51167 0,0 1.4448,0.0944 5.40721,-3.62308 19.16418,0.22964 36.97974,0.99378 36.97974,0.99378 8.29596,-1.7375 10.07686,15.88608 20.2852,18.11451 z"
       style="font-size:medium;font-style:normal;font-variant:normal;font-weight:normal;font-stretch:normal;text-indent:0;text-align:start;text-decoration:none;line-height:normal;letter-spacing:normal;word-spacing:normal;text-transform:none;direction:ltr;block-progression:tb;writing-mode:lr-tb;text-anchor:start;baseline-shift:baseline;color:#000000;fill:#5fbcd3;fill-opacity:1;stroke:none;stroke-width:70;marker:none;visibility:visible;display:inline;overflow:visible;enable-background:accumulate;font-family:Sans;-inkscape-font-specification:Sans"
       inkscape:export-filename="/home/waldgeist/data/homepage/pics/physik/elektrizitaet-magnetismus/wasserdruck-spannung.png"
       inkscape:export-xdpi="150"
       inkscape:export-ydpi="150" />
    <path
       sodipodi:nodetypes="ccccsccsscsccc"
       inkscape:connector-curvature="0"
       inkscape:original-d="m 394.7865,652.96094 70.20805,0 m 29.8419,0 23.09249,0 c 0,0 14.12331,1.39575 18.76819,10.83584 3.45897,7.02989 6.08337,19.54794 6.08337,19.54794 m 24.64763,0 c 0,0 -2.52154,-25.79433 -11.67522,-37.72362 -4.21996,-5.49956 -13.22495,-10.69859 -21.17496,-14.52272 -7.95,-3.82415 -14.84501,-6.27339 -14.84501,-6.27339 -7.80915,0 -15.57105,0 -15.57105,0 -0.10552,0.27106 -0.0514,-21.47881 0,-21.48417 m -50.86316,21.48417 -58.51223,0"
       inkscape:path-effect="#path-effect3902"
       id="path3900"
       d="m 394.7865,652.96094 70.20805,0 m 29.8419,0 23.09249,0 c 7.33223,1.03124 14.209,5.00155 18.76819,10.83584 4.29495,5.49614 6.50108,12.58521 6.08337,19.54794 m 24.64763,0 c 2.05626,-13.46537 -2.37214,-27.7739 -11.67522,-37.72362 -5.87921,-6.28787 -13.42823,-10.76898 -21.17496,-14.52272 -4.83652,-2.34357 -9.79357,-4.43839 -14.84501,-6.27339 l -15.57105,0 0,-21.48417 m -50.86316,21.48417 -58.51223,0"
       style="fill:none;stroke:#000000;stroke-width:2.7057817;stroke-linecap:butt;stroke-linejoin:miter;stroke-miterlimit:4;stroke-opacity:1;stroke-dasharray:none"
       inkscape:export-filename="/home/waldgeist/data/homepage/pics/physik/elektrizitaet-magnetismus/wasserdruck-spannung.png"
       inkscape:export-xdpi="150"
       inkscape:export-ydpi="150" />
    <path
       sodipodi:nodetypes="cscc"
       inkscape:connector-curvature="0"
       id="path4301"
       d="m 491.46042,598.24899 c -2.60521,-0.34412 -4.73881,-0.27355 -4.78388,0.15838 -0.0451,0.43193 2.01599,1.05674 4.62119,1.40092 0.009,0.0328 0.16269,-1.5593 0.16269,-1.5593 z"
       style="fill:#999999;stroke:#000000;stroke-width:0.9063257;stroke-linecap:round;stroke-miterlimit:4;stroke-dashoffset:0"
       inkscape:export-filename="/home/waldgeist/data/homepage/pics/physik/elektrizitaet-magnetismus/wasserdruck-spannung.png"
       inkscape:export-xdpi="150"
       inkscape:export-ydpi="150" />
    <path
       style="fill:#999999;stroke:#000000;stroke-width:0.9063257;stroke-linecap:round;stroke-miterlimit:4;stroke-dashoffset:0"
       d="m 491.45831,602.28865 c -2.60522,-0.34412 -4.73881,-0.27355 -4.78388,0.15838 -0.0451,0.43193 2.01599,1.05674 4.62118,1.40092 0.009,0.0328 0.1627,-1.5593 0.1627,-1.5593 z"
       id="path4303"
       inkscape:connector-curvature="0"
       sodipodi:nodetypes="cscc"
       inkscape:export-filename="/home/waldgeist/data/homepage/pics/physik/elektrizitaet-magnetismus/wasserdruck-spannung.png"
       inkscape:export-xdpi="150"
       inkscape:export-ydpi="150" />
    <path
       style="fill:#000000;stroke:#000000;stroke-width:1.14318907;stroke-linecap:square;stroke-miterlimit:4;stroke-dashoffset:0"
       d="m 486.42383,612.44291 17.50389,0 0,-7.98102 c 0,0 -17.52302,0.0228 -17.50389,0.0228 z"
       id="path4003"
       inkscape:connector-curvature="0"
       sodipodi:nodetypes="ccccc"
       inkscape:export-filename="/home/waldgeist/data/homepage/pics/physik/elektrizitaet-magnetismus/wasserdruck-spannung.png"
       inkscape:export-xdpi="150"
       inkscape:export-ydpi="150" />
    <rect
       ry="2.1742187"
       rx="2.1742187"
       y="599.53381"
       x="-505.29868"
       height="4.3484373"
       width="47.253017"
       id="rect3891"
       style="fill:#cccccc;stroke:#000000;stroke-width:2.7057817;stroke-linecap:round;stroke-miterlimit:4;stroke-dasharray:none;stroke-dashoffset:0"
       transform="scale(-1,1)"
       inkscape:export-filename="/home/waldgeist/data/homepage/pics/physik/elektrizitaet-magnetismus/wasserdruck-spannung.png"
       inkscape:export-xdpi="150"
       inkscape:export-ydpi="150" />
    <rect
       style="fill:#cccccc;stroke:#000000;stroke-width:2.7057817;stroke-linecap:round;stroke-miterlimit:4;stroke-dasharray:none;stroke-dashoffset:0"
       id="rect3049"
       width="57.577713"
       height="5.298563"
       x="-510.46103"
       y="593.27698"
       rx="2.6492815"
       ry="2.6492815"
       transform="scale(-1,1)"
       inkscape:export-filename="/home/waldgeist/data/homepage/pics/physik/elektrizitaet-magnetismus/wasserdruck-spannung.png"
       inkscape:export-xdpi="150"
       inkscape:export-ydpi="150" />
    <g
       id="g3950"
       transform="matrix(-0.3496873,0,0,0.3496873,745.40222,597.5635)"
       style="fill:#ececec"
       inkscape:export-filename="/home/waldgeist/data/homepage/pics/physik/elektrizitaet-magnetismus/wasserdruck-spannung.png"
       inkscape:export-xdpi="150"
       inkscape:export-ydpi="150">
      <path
         id="path3946"
         style="fill:#ececec;stroke:#000000;stroke-width:7.73771763;stroke-linecap:butt;stroke-linejoin:miter;stroke-miterlimit:4;stroke-opacity:1;stroke-dasharray:none"
         inkscape:path-effect="#path-effect3948"
         inkscape:original-d="m 774.19713,-17.573623 0,-32.02813 m -42.09058,31.90542 0,-31.90541 m -42.23211,-0.31541 126.55475,0 0,32.65892 -126.55475,0 z"
         d="m 774.19713,-17.573623 0,-32.02813 m -42.09058,31.90542 0,-31.90541 m -42.23211,-0.31541 126.55475,0 0,32.65892 -126.55475,0 0,-32.65892"
         inkscape:connector-curvature="0"
         sodipodi:nodetypes="ccccccccc" />
    </g>
    <rect
       style="fill:#b3b3b3;stroke:#000000;stroke-width:2.7057817;stroke-linecap:round;stroke-miterlimit:4;stroke-dasharray:none;stroke-dashoffset:0"
       id="rect3966"
       width="28.149763"
       height="15.104751"
       x="-496.10947"
       y="563.70056"
       transform="scale(-1,1)"
       inkscape:export-filename="/home/waldgeist/data/homepage/pics/physik/elektrizitaet-magnetismus/wasserdruck-spannung.png"
       inkscape:export-xdpi="150"
       inkscape:export-ydpi="150" />
    <path
       style="fill:#999999;stroke:#000000;stroke-width:2.7057817;stroke-linecap:round;stroke-miterlimit:4;stroke-dasharray:none;stroke-dashoffset:0"
       d="m 493.69125,550.71695 0,0.0983 c 2.5146,0 4.54594,1.1536 4.54594,2.57894 0,1.42534 -2.03134,1.18019 -4.54594,1.18019 l 0,9.01538 -23.30884,0 0,-9.01538 c -2.5146,0 -4.55687,0.24515 -4.55687,-1.18019 0,-1.42534 2.04227,-2.57894 4.55687,-2.57894 l 0,-0.0983 23.30884,0 z"
       id="rect4508"
       inkscape:connector-curvature="0"
       inkscape:export-filename="/home/waldgeist/data/homepage/pics/physik/elektrizitaet-magnetismus/wasserdruck-spannung.png"
       inkscape:export-xdpi="150"
       inkscape:export-ydpi="150" />
    <path
       sodipodi:nodetypes="ccccc"
       inkscape:connector-curvature="0"
       id="path3925"
       d="m 477.75832,612.87822 -16.16059,0 c 0,0 -0.10126,-7.54644 -1.05949,-8.31225 0.53302,-0.041 12.12503,-0.0654 17.22008,-0.0654 z"
       style="fill:#000000;stroke:#000000;stroke-width:1.08231258;stroke-linecap:square;stroke-miterlimit:4;stroke-dashoffset:0"
       inkscape:export-filename="/home/waldgeist/data/homepage/pics/physik/elektrizitaet-magnetismus/wasserdruck-spannung.png"
       inkscape:export-xdpi="150"
       inkscape:export-ydpi="150" />
    <rect
       style="fill:#cccccc;stroke:#333333;stroke-width:2.11761689;stroke-linecap:square;stroke-miterlimit:4;stroke-dasharray:none;stroke-dashoffset:0"
       id="rect3051"
       width="8.0116577"
       height="107.08537"
       x="-486.04044"
       y="515.40332"
       transform="scale(-1,1)"
       inkscape:export-filename="/home/waldgeist/data/homepage/pics/physik/elektrizitaet-magnetismus/wasserdruck-spannung.png"
       inkscape:export-xdpi="150"
       inkscape:export-ydpi="150" />
    <g
       style="stroke:#4d4d4d;stroke-width:1.54754353"
       id="g4167"
       transform="matrix(-0.24104922,0,0,0.35042094,471.91118,537.94415)"
       inkscape:export-filename="/home/waldgeist/data/homepage/pics/physik/elektrizitaet-magnetismus/wasserdruck-spannung.png"
       inkscape:export-xdpi="150"
       inkscape:export-ydpi="150">
      <rect
         style="fill:#cccccc;stroke:#4d4d4d;stroke-width:2.45139694;stroke-linecap:round;stroke-miterlimit:4;stroke-dasharray:none;stroke-dashoffset:0"
         id="rect4169"
         width="53.212124"
         height="4.4828558"
         x="-91.57164"
         y="222.67303"
         rx="12.131406"
         ry="2.2414279"
         transform="matrix(0.98827637,-0.1526755,0.09873384,0.99511388,0,0)" />
      <rect
         transform="matrix(0.98827637,-0.1526755,0.09873384,0.99511388,0,0)"
         ry="2.2414279"
         rx="12.131406"
         y="211.21637"
         x="-90.427071"
         height="4.4828558"
         width="53.212124"
         id="rect4171"
         style="fill:#cccccc;stroke:#4d4d4d;stroke-width:2.45139694;stroke-linecap:round;stroke-miterlimit:4;stroke-dasharray:none;stroke-dashoffset:0" />
      <rect
         style="fill:#cccccc;stroke:#4d4d4d;stroke-width:2.45139694;stroke-linecap:round;stroke-miterlimit:4;stroke-dasharray:none;stroke-dashoffset:0"
         id="rect4173"
         width="53.212124"
         height="4.4828558"
         x="-89.282494"
         y="199.75969"
         rx="12.131406"
         ry="2.2414279"
         transform="matrix(0.98827637,-0.1526755,0.09873384,0.99511388,0,0)" />
      <rect
         transform="matrix(0.98827637,-0.1526755,0.09873384,0.99511388,0,0)"
         ry="2.2414279"
         rx="12.131406"
         y="188.30302"
         x="-88.137917"
         height="4.4828558"
         width="53.212124"
         id="rect4177"
         style="fill:#cccccc;stroke:#4d4d4d;stroke-width:2.45139694;stroke-linecap:round;stroke-miterlimit:4;stroke-dasharray:none;stroke-dashoffset:0" />
    </g>
    <g
       style="stroke:#4d4d4d;stroke-width:1.54754353"
       transform="matrix(-0.24104922,0,0,0.35042094,471.91118,517.58181)"
       id="g4179"
       inkscape:export-filename="/home/waldgeist/data/homepage/pics/physik/elektrizitaet-magnetismus/wasserdruck-spannung.png"
       inkscape:export-xdpi="150"
       inkscape:export-ydpi="150">
      <rect
         transform="matrix(0.98827637,-0.1526755,0.09873384,0.99511388,0,0)"
         ry="2.2414279"
         rx="12.131406"
         y="222.67303"
         x="-91.57164"
         height="4.4828558"
         width="53.212124"
         id="rect4181"
         style="fill:#cccccc;stroke:#4d4d4d;stroke-width:2.45139694;stroke-linecap:round;stroke-miterlimit:4;stroke-dasharray:none;stroke-dashoffset:0" />
      <rect
         style="fill:#cccccc;stroke:#4d4d4d;stroke-width:2.45139694;stroke-linecap:round;stroke-miterlimit:4;stroke-dasharray:none;stroke-dashoffset:0"
         id="rect4187"
         width="53.212124"
         height="4.4828558"
         x="-92.716248"
         y="234.1297"
         rx="12.131406"
         ry="2.2414279"
         transform="matrix(0.98827637,-0.1526755,0.09873384,0.99511388,0,0)" />
    </g>
    <rect
       style="fill:#cccccc;stroke:#4d4d4d;stroke-width:2.7057817;stroke-linecap:square;stroke-miterlimit:4;stroke-dasharray:none;stroke-dashoffset:0"
       id="rect3053"
       width="29.318712"
       height="4.2388501"
       x="-496.69394"
       y="618.26465"
       transform="scale(-1,1)"
       inkscape:export-filename="/home/waldgeist/data/homepage/pics/physik/elektrizitaet-magnetismus/wasserdruck-spannung.png"
       inkscape:export-xdpi="150"
       inkscape:export-ydpi="150" />
    <path
       style="fill:none;stroke:#000000;stroke-width:2.7057817;stroke-linecap:butt;stroke-linejoin:miter;stroke-miterlimit:4;stroke-opacity:1;stroke-dasharray:none"
       d="m 464.28256,652.72666 5.52237,5.52239 22.63575,0 2.42595,-3.12531 0,-26.54996 -6.39737,0 m -12.69175,0 -6.39738,0 0,6.43268 -7.04244,0 -9.24503,-10.27491 c 2.93146,-1.93717 5.31661,-4.69173 6.81464,-7.8701 1.92722,-4.08898 2.35329,-8.86563 1.18019,-13.23115"
       id="path3974"
       inkscape:path-effect="#path-effect3976"
       inkscape:original-d="m 464.28256,652.72666 5.52237,5.52239 22.63575,0 2.42595,-3.12531 0,-26.54996 -6.39737,0 m -12.69175,0 -6.39738,0 0,6.43268 -7.04244,0 -9.24503,-10.27491 c 0,0 5.27102,-4.14349 6.81464,-7.8701 1.92754,-4.65349 1.18019,-13.23115 1.18019,-13.23115"
       inkscape:connector-curvature="0"
       sodipodi:nodetypes="cccccccccccsc"
       inkscape:export-filename="/home/waldgeist/data/homepage/pics/physik/elektrizitaet-magnetismus/wasserdruck-spannung.png"
       inkscape:export-xdpi="150"
       inkscape:export-ydpi="150" />
    <rect
       rx="1.6072308"
       style="fill:none;stroke:#000000;stroke-width:2.7057817;stroke-linecap:square;stroke-miterlimit:4;stroke-dasharray:none;stroke-dashoffset:0"
       id="rect4586"
       width="33.010048"
       height="10.385182"
       x="-571.60645"
       y="683.01404"
       ry="1.6072308"
       transform="scale(-1,1)"
       inkscape:export-filename="/home/waldgeist/data/homepage/pics/physik/elektrizitaet-magnetismus/wasserdruck-spannung.png"
       inkscape:export-xdpi="150"
       inkscape:export-ydpi="150" />
  </g>
</svg>
