<?xml version="1.0" encoding="UTF-8" standalone="no"?>
<!-- Created with Inkscape (http://www.inkscape.org/) -->

<svg
   xmlns:dc="http://purl.org/dc/elements/1.1/"
   xmlns:cc="http://creativecommons.org/ns#"
   xmlns:rdf="http://www.w3.org/1999/02/22-rdf-syntax-ns#"
   xmlns:svg="http://www.w3.org/2000/svg"
   xmlns="http://www.w3.org/2000/svg"
   xmlns:sodipodi="http://sodipodi.sourceforge.net/DTD/sodipodi-0.dtd"
   xmlns:inkscape="http://www.inkscape.org/namespaces/inkscape"
   width="210mm"
   height="297mm"
   id="svg2"
   version="1.1"
   inkscape:version="0.48.3.1 r9886"
   sodipodi:docname="wasserstromstaerke.svg">
  <title
     id="title19236">Stromstaerke (Wassermodell)</title>
  <defs
     id="defs4">
    <inkscape:path-effect
       effect="spiro"
       id="path-effect4212"
       is_visible="true" />
    <inkscape:path-effect
       effect="spiro"
       id="path-effect3976"
       is_visible="true" />
    <inkscape:path-effect
       effect="spiro"
       id="path-effect3948"
       is_visible="true" />
    <inkscape:path-effect
       effect="spiro"
       id="path-effect3944"
       is_visible="true" />
    <inkscape:path-effect
       effect="spiro"
       id="path-effect3940"
       is_visible="true" />
    <inkscape:path-effect
       effect="spiro"
       id="path-effect3936"
       is_visible="true" />
    <inkscape:path-effect
       is_visible="true"
       id="path-effect3902"
       effect="spiro" />
    <inkscape:path-effect
       is_visible="true"
       id="path-effect3898"
       effect="spiro" />
    <inkscape:path-effect
       is_visible="true"
       id="path-effect3865"
       effect="spiro" />
    <inkscape:path-effect
       effect="spiro"
       id="path-effect3850"
       is_visible="true" />
    <inkscape:path-effect
       is_visible="true"
       id="path-effect3846"
       effect="spiro" />
    <inkscape:path-effect
       effect="spiro"
       id="path-effect3074"
       is_visible="true" />
    <inkscape:path-effect
       is_visible="true"
       id="path-effect3069"
       effect="spiro" />
    <inkscape:path-effect
       effect="spiro"
       id="path-effect3065"
       is_visible="true" />
    <inkscape:path-effect
       effect="spiro"
       id="path-effect3061"
       is_visible="true" />
    <inkscape:path-effect
       effect="spiro"
       id="path-effect3057"
       is_visible="true" />
    <inkscape:path-effect
       is_visible="true"
       id="path-effect3902-2"
       effect="spiro" />
  </defs>
  <sodipodi:namedview
     id="base"
     pagecolor="#ffffff"
     bordercolor="#666666"
     borderopacity="1.0"
     inkscape:pageopacity="0.0"
     inkscape:pageshadow="2"
     inkscape:zoom="1"
     inkscape:cx="291.63172"
     inkscape:cy="632.92477"
     inkscape:document-units="px"
     inkscape:current-layer="layer1"
     showgrid="false"
     inkscape:window-width="1280"
     inkscape:window-height="974"
     inkscape:window-x="0"
     inkscape:window-y="0"
     inkscape:window-maximized="1"
     inkscape:snap-center="true"
     showguides="true"
     inkscape:guide-bbox="true"
     inkscape:snap-smooth-nodes="true"
     inkscape:object-nodes="false"
     inkscape:snap-global="false"
     inkscape:object-paths="true">
    <sodipodi:guide
       orientation="1,0"
       position="813.22052,948.14987"
       id="guide4513" />
  </sodipodi:namedview>
  <metadata
     id="metadata7">
    <rdf:RDF>
      <cc:Work
         rdf:about="">
        <dc:format>image/svg+xml</dc:format>
        <dc:type
           rdf:resource="http://purl.org/dc/dcmitype/StillImage" />
        <dc:title>Stromstaerke (Wassermodell)</dc:title>
        <cc:license
           rdf:resource="http://creativecommons.org/licenses/by-nc-sa/3.0/" />
        <dc:date>2012-04-24</dc:date>
        <dc:creator>
          <cc:Agent>
            <dc:title>Bernhard Grotz</dc:title>
          </cc:Agent>
        </dc:creator>
        <dc:rights>
          <cc:Agent>
            <dc:title>Bernhard Grotz</dc:title>
          </cc:Agent>
        </dc:rights>
        <dc:publisher>
          <cc:Agent>
            <dc:title>Bernhard Grotz</dc:title>
          </cc:Agent>
        </dc:publisher>
        <dc:language>de-DE</dc:language>
        <dc:subject>
          <rdf:Bag>
            <rdf:li>Physik</rdf:li>
            <rdf:li>Elektrizitaetslehre</rdf:li>
            <rdf:li>Stromstaerke</rdf:li>
            <rdf:li>Wasserhahn</rdf:li>
            <rdf:li>Modell</rdf:li>
          </rdf:Bag>
        </dc:subject>
      </cc:Work>
      <cc:License
         rdf:about="http://creativecommons.org/licenses/by-nc-sa/3.0/">
        <cc:permits
           rdf:resource="http://creativecommons.org/ns#Reproduction" />
        <cc:permits
           rdf:resource="http://creativecommons.org/ns#Distribution" />
        <cc:requires
           rdf:resource="http://creativecommons.org/ns#Notice" />
        <cc:requires
           rdf:resource="http://creativecommons.org/ns#Attribution" />
        <cc:prohibits
           rdf:resource="http://creativecommons.org/ns#CommercialUse" />
        <cc:permits
           rdf:resource="http://creativecommons.org/ns#DerivativeWorks" />
        <cc:requires
           rdf:resource="http://creativecommons.org/ns#ShareAlike" />
      </cc:License>
    </rdf:RDF>
  </metadata>
  <g
     inkscape:label="Ebene 1"
     inkscape:groupmode="layer"
     id="layer1">
    <g
       id="g4005">
      <g
         id="g3970" />
      <g
         transform="matrix(-1,0,0,1,704.04404,0)"
         id="g4001" />
    </g>
    <g
       transform="matrix(0,0.86610521,1,0,-236.06571,596.88914)"
       id="g3988" />
    <g
       id="g4246"
       transform="matrix(-1,0,0,1.0382097,705.6799,-26.531004)">
      <g
         transform="matrix(0,0.86610521,-1,0,942.74614,617.72103)"
         id="g4248">
        <g
           id="g4250" />
      </g>
      <g
         id="g4255"
         transform="matrix(0,0.86610521,-1,0,942.74614,606.14216)" />
    </g>
    <g
       id="g3196"
       transform="matrix(0,1,-1,0,942.60435,636.50407)" />
    <g
       id="g3980"
       transform="matrix(0,0.86610521,1,0,-232.62517,606.14216)" />
    <g
       id="g3984"
       transform="matrix(0,0.86610521,1,0,-236.06571,610.49571)" />
    <g
       id="g3867"
       transform="matrix(-1.173825,0,0,1.173825,997.41218,-60.384489)"
       style="stroke-width:5;stroke-miterlimit:4;stroke-dasharray:none"
       inkscape:export-filename="/home/waldgeist/data/pics/physik/Own/elektrizitaet-magnetismus/wasserstromstaerke.png"
       inkscape:export-xdpi="150"
       inkscape:export-ydpi="150">
      <path
         sodipodi:nodetypes="ccccccccsc"
         inkscape:connector-curvature="0"
         id="path3063"
         d="m 502.97662,205.50154 0,44.63037 15.70216,9.05894 15.27941,0 3.26122,0 15.27941,0 15.70216,-9.05894 0,-44.63037 c -10.87073,0 -21.74145,-9.66287 -32.61218,-9.66287 -10.87073,0 -21.74145,9.66287 -32.61218,9.66287 z"
         style="fill:#808080;stroke:#000000;stroke-width:4.2595787;stroke-linecap:butt;stroke-linejoin:miter;stroke-miterlimit:4;stroke-opacity:1;stroke-dasharray:none" />
      <path
         sodipodi:nodetypes="ccsccsccc"
         inkscape:connector-curvature="0"
         d="m 498.71704,208.1772 -86.85714,-4 c -2.39856,-0.11046 -4.79901,-0.31237 -7.19798,-0.21136 -1.19949,0.0505 -2.40226,0.19553 -3.54935,0.54978 -1.1471,0.35426 -2.24231,0.92843 -3.09361,1.77496 -1.01792,1.01222 -1.63963,2.37256 -1.94923,3.77431 -0.3096,1.40176 -0.32029,2.84996 -0.32029,4.2855 l 0,27.55362 c 0,1.43554 0.0107,2.88374 0.32029,4.2855 0.3096,1.40175 0.93131,2.76209 1.94923,3.77431 0.8513,0.84653 1.94651,1.4207 3.09361,1.77496 1.14709,0.35425 2.34986,0.49927 3.54935,0.54978 2.39897,0.10101 4.79942,-0.1009 7.19798,-0.21136 l 86.85714,-4 0,-39.9"
         inkscape:original-d="m 498.71704,208.1772 -86.85714,-4 c 0,0 -10.34426,-0.97778 -13.84094,2.11338 -2.09112,1.84861 -2.26952,8.05981 -2.26952,8.05981 l 0,27.55362 c 0,0 0.1784,6.2112 2.26952,8.05981 3.49668,3.09116 13.84094,2.11338 13.84094,2.11338 l 86.85714,-4 z"
         inkscape:path-effect="#path-effect3850"
         style="fill:#cccccc;stroke:#000000;stroke-width:4.2595787;stroke-linecap:butt;stroke-linejoin:miter;stroke-miterlimit:4;stroke-opacity:1;stroke-dasharray:none"
         id="path3848" />
      <path
         id="path3863"
         style="fill:#cccccc;stroke:#000000;stroke-width:4.2595787;stroke-linecap:butt;stroke-linejoin:miter;stroke-miterlimit:4;stroke-opacity:1;stroke-dasharray:none"
         inkscape:path-effect="#path-effect3865"
         inkscape:original-d="m 572.46056,208.1772 86.85714,-4 c 0,0 10.34426,-0.97778 13.84094,2.11338 2.09112,1.84861 2.26952,8.05981 2.26952,8.05981 l 0,27.55362 c 0,0 -0.1784,6.2112 -2.26952,8.05981 -3.49668,3.09116 -13.84094,2.11338 -13.84094,2.11338 l -86.85714,-4 z"
         d="m 572.46056,208.1772 86.85714,-4 c 2.39856,-0.11046 4.79901,-0.31237 7.19798,-0.21136 1.19949,0.0505 2.40226,0.19553 3.54935,0.54978 1.1471,0.35426 2.24231,0.92843 3.09361,1.77496 1.01792,1.01222 1.63963,2.37256 1.94923,3.77431 0.3096,1.40176 0.32029,2.84996 0.32029,4.2855 l 0,27.55362 c 0,1.43554 -0.0107,2.88374 -0.32029,4.2855 -0.3096,1.40175 -0.93131,2.76209 -1.94923,3.77431 -0.8513,0.84653 -1.94651,1.4207 -3.09361,1.77496 -1.14709,0.35425 -2.34986,0.49927 -3.54935,0.54978 -2.39897,0.10101 -4.79942,-0.1009 -7.19798,-0.21136 l -86.85714,-4 0,-39.9"
         inkscape:connector-curvature="0"
         sodipodi:nodetypes="ccsccsccc" />
    </g>
    <g
       id="g3911"
       transform="matrix(-1,0,0,1,1236.4956,23.506914)"
       inkscape:export-filename="/home/waldgeist/data/pics/physik/Own/elektrizitaet-magnetismus/wasserstromstaerke.png"
       inkscape:export-xdpi="150"
       inkscape:export-ydpi="150">
      <path
         style="font-size:medium;font-style:normal;font-variant:normal;font-weight:normal;font-stretch:normal;text-indent:0;text-align:start;text-decoration:none;line-height:normal;letter-spacing:normal;word-spacing:normal;text-transform:none;direction:ltr;block-progression:tb;writing-mode:lr-tb;text-anchor:start;baseline-shift:baseline;color:#000000;fill:#5fbcd3;fill-opacity:1;stroke:none;stroke-width:70;marker:none;visibility:visible;display:inline;overflow:visible;enable-background:accumulate;font-family:Sans;-inkscape-font-specification:Sans"
         d="m 773.85048,578.60657 c -95.68221,20.88698 -111.40144,60.08391 -114.09509,134.4778 l 0,148.77506 c 1,-0.86673 32.81686,0 32.81686,0 l 0.85547,-163.76944 c 0.84334,-91.96855 112.71379,-89.22429 137.03266,-83.06318 -0.39263,-0.0717 9.46973,14.97541 9.46973,14.97541 l 61.99935,-0.61692 15.83779,-14.99475 c 56.08542,0.34017 146.69145,-1.37538 198.80685,-1.88627 0,-23.33333 0.3535,-53.38418 0.3535,-76.71751 -29.8802,0 -163.85373,-1.46323 -163.85373,-1.46323 0,0 -4.1317,0.27003 -15.46299,-10.36089 -54.80375,0.6567 -105.75086,2.84191 -105.75086,2.84191 -23.72395,-4.96875 -28.8168,45.42937 -58.00954,51.80201 z"
         id="path3896"
         inkscape:connector-curvature="0"
         sodipodi:nodetypes="scccccccccccccs" />
      <path
         style="fill:none;stroke:#000000;stroke-width:5;stroke-linecap:butt;stroke-linejoin:miter;stroke-miterlimit:4;stroke-opacity:1;stroke-dasharray:none"
         d="m 1117.2741,614.47997 -200.77382,0 m -85.33881,0 -66.03754,0 c -20.96797,2.94903 -40.63346,14.30293 -53.67136,30.98723 -12.28224,15.7173 -18.59112,35.98987 -17.3966,55.90118 m -70.48476,0 c -5.88028,-38.50688 6.78359,-79.42493 33.38758,-107.87813 16.81277,-17.9814 38.40068,-30.79605 60.55399,-41.53061 13.83099,-6.70192 28.00666,-12.69245 42.45225,-17.94 l 44.5285,0 0,-61.43821 m 145.45327,61.43821 167.3273,0"
         id="path3900"
         inkscape:path-effect="#path-effect3902"
         inkscape:original-d="m 1117.2741,614.47997 -200.77382,0 m -85.33881,0 -66.03754,0 c 0,0 -40.38839,3.99143 -53.67136,30.98723 -9.89161,20.10335 -17.3966,55.90118 -17.3966,55.90118 m -70.48476,0 c 0,0 7.21084,-73.76397 33.38758,-107.87813 12.06782,-15.72708 37.81938,-30.59473 60.55399,-41.53061 22.7346,-10.93589 42.45225,-17.94 42.45225,-17.94 22.33182,0 44.5285,0 44.5285,0 0.30175,0.77515 0.14698,-61.42288 0,-61.43821 m 145.45327,61.43821 167.3273,0"
         inkscape:connector-curvature="0"
         sodipodi:nodetypes="ccccsccsscsccc" />
    </g>
    <path
       sodipodi:nodetypes="cscc"
       inkscape:connector-curvature="0"
       id="path4301"
       d="m 395.67968,481.52722 c -7.45012,-0.98407 -13.55156,-0.78226 -13.68044,0.45293 -0.12888,1.23518 5.76511,3.02194 13.21519,4.00619 0.0247,0.0939 0.46525,-4.45912 0.46525,-4.45912 z"
       style="fill:#999999;stroke:#000000;stroke-width:1.67479467;stroke-linecap:round;stroke-miterlimit:4;stroke-dashoffset:0"
       inkscape:export-filename="/home/waldgeist/data/pics/physik/Own/elektrizitaet-magnetismus/wasserstromstaerke.png"
       inkscape:export-xdpi="150"
       inkscape:export-ydpi="150" />
    <path
       style="fill:#999999;stroke:#000000;stroke-width:1.67479467;stroke-linecap:round;stroke-miterlimit:4;stroke-dashoffset:0"
       d="m 395.67364,493.07943 c -7.45013,-0.98407 -13.55156,-0.78226 -13.68044,0.45293 -0.12888,1.23518 5.76511,3.02194 13.21519,4.00619 0.0247,0.0939 0.46525,-4.45912 0.46525,-4.45912 z"
       id="path4303"
       inkscape:connector-curvature="0"
       sodipodi:nodetypes="cscc"
       inkscape:export-filename="/home/waldgeist/data/pics/physik/Own/elektrizitaet-magnetismus/wasserstromstaerke.png"
       inkscape:export-xdpi="150"
       inkscape:export-ydpi="150" />
    <g
       id="g4499"
       transform="matrix(-1,0,0,1.115657,721.74669,-42.426936)"
       inkscape:export-filename="/home/waldgeist/data/pics/physik/Own/elektrizitaet-magnetismus/wasserstromstaerke.png"
       inkscape:export-xdpi="150"
       inkscape:export-ydpi="150">
      <path
         sodipodi:nodetypes="ccccc"
         inkscape:connector-curvature="0"
         id="path4003"
         d="m 340.47014,506.01977 -50.05586,0 0,-20.45727 c 0,0 50.11056,0.0584 50.05586,0.0584 z"
         style="fill:#000000;stroke:#000000;stroke-width:2;stroke-linecap:square;stroke-miterlimit:4;stroke-dashoffset:0" />
    </g>
    <rect
       ry="6.217608"
       rx="6.217608"
       y="485.20145"
       x="-435.25293"
       height="12.435216"
       width="135.12935"
       id="rect3891"
       style="fill:#cccccc;stroke:#000000;stroke-width:5;stroke-linecap:round;stroke-miterlimit:4;stroke-dasharray:none;stroke-dashoffset:0"
       transform="scale(-1,1)"
       inkscape:export-filename="/home/waldgeist/data/pics/physik/Own/elektrizitaet-magnetismus/wasserstromstaerke.png"
       inkscape:export-xdpi="150"
       inkscape:export-ydpi="150" />
    <rect
       style="fill:#cccccc;stroke:#000000;stroke-width:5;stroke-linecap:round;stroke-miterlimit:4;stroke-dasharray:none;stroke-dashoffset:0"
       id="rect3049"
       width="164.65486"
       height="15.152288"
       x="-450.01569"
       y="467.30872"
       rx="7.5761442"
       ry="7.5761442"
       transform="scale(-1,1)"
       inkscape:export-filename="/home/waldgeist/data/pics/physik/Own/elektrizitaet-magnetismus/wasserstromstaerke.png"
       inkscape:export-xdpi="150"
       inkscape:export-ydpi="150" />
    <g
       id="g3968"
       transform="matrix(-1,0,0,1,721.74669,17.429252)"
       inkscape:export-filename="/home/waldgeist/data/pics/physik/Own/elektrizitaet-magnetismus/wasserstromstaerke.png"
       inkscape:export-xdpi="150"
       inkscape:export-ydpi="150">
      <g
         style="fill:#ececec"
         transform="translate(-400.12979,462.1377)"
         id="g3950">
        <path
           sodipodi:nodetypes="ccccccccc"
           inkscape:connector-curvature="0"
           d="m 774.19713,-17.573623 0,-32.02813 m -42.09058,31.90542 0,-31.90541 m -42.23211,-0.31541 126.55475,0 0,32.65892 -126.55475,0 0,-32.65892"
           inkscape:original-d="m 774.19713,-17.573623 0,-32.02813 m -42.09058,31.90542 0,-31.90541 m -42.23211,-0.31541 126.55475,0 0,32.65892 -126.55475,0 z"
           inkscape:path-effect="#path-effect3948"
           style="fill:#ececec;stroke:#000000;stroke-width:5;stroke-linecap:butt;stroke-linejoin:miter;stroke-miterlimit:4;stroke-opacity:1;stroke-dasharray:none"
           id="path3946" />
      </g>
      <rect
         y="365.29984"
         x="312.77213"
         height="43.195023"
         width="80.499817"
         id="rect3966"
         style="fill:#b3b3b3;stroke:#000000;stroke-width:5;stroke-linecap:round;stroke-miterlimit:4;stroke-dasharray:none;stroke-dashoffset:0" />
      <path
         inkscape:connector-curvature="0"
         id="rect4508"
         d="m 319.6875,328.1707 0,0.28125 c -7.19098,0 -13,3.29897 -13,7.375 0,4.07603 5.80902,3.375 13,3.375 l 0,25.78125 66.65625,0 0,-25.78125 c 7.191,0 13.03125,0.70103 13.03125,-3.375 0,-4.07603 -5.84025,-7.375 -13.03125,-7.375 l 0,-0.28125 -66.65625,0 z"
         style="fill:#999999;stroke:#000000;stroke-width:5;stroke-linecap:round;stroke-miterlimit:4;stroke-dasharray:none;stroke-dashoffset:0" />
    </g>
    <g
       id="g4495"
       transform="matrix(-1,0,0,1,721.74669,17.342624)"
       inkscape:export-filename="/home/waldgeist/data/pics/physik/Own/elektrizitaet-magnetismus/wasserstromstaerke.png"
       inkscape:export-xdpi="150"
       inkscape:export-ydpi="150">
      <path
         style="fill:#000000;stroke:#000000;stroke-width:2;stroke-linecap:square;stroke-miterlimit:4;stroke-dashoffset:0"
         d="m 365.25086,506.01977 46.21441,0 c 0,0 0.28958,-21.58052 3.02982,-23.77051 -1.52427,-0.11737 -34.67393,-0.18703 -49.24423,-0.18703 z"
         id="path3925"
         inkscape:connector-curvature="0"
         sodipodi:nodetypes="ccccc" />
    </g>
    <rect
       style="fill:#cccccc;stroke:#333333;stroke-width:3.91313362;stroke-linecap:square;stroke-miterlimit:4;stroke-dasharray:none;stroke-dashoffset:0"
       id="rect3051"
       width="22.910919"
       height="306.23178"
       x="-380.18018"
       y="244.61363"
       transform="scale(-1,1)"
       inkscape:export-filename="/home/waldgeist/data/pics/physik/Own/elektrizitaet-magnetismus/wasserstromstaerke.png"
       inkscape:export-xdpi="150"
       inkscape:export-ydpi="150" />
    <g
       id="g4191"
       transform="matrix(-0.68932793,0,0,1.002098,413.46547,166.67265)"
       style="stroke:#4d4d4d"
       inkscape:export-filename="/home/waldgeist/data/pics/physik/Own/elektrizitaet-magnetismus/wasserstromstaerke.png"
       inkscape:export-xdpi="150"
       inkscape:export-ydpi="150">
      <g
         transform="translate(106.90223,142.10284)"
         id="g4167"
         style="stroke:#4d4d4d">
        <rect
           transform="matrix(0.98827637,-0.1526755,0.09873384,0.99511388,0,0)"
           ry="2.2414279"
           rx="12.131406"
           y="222.67303"
           x="-91.57164"
           height="4.4828558"
           width="53.212124"
           id="rect4169"
           style="fill:#cccccc;stroke:#4d4d4d;stroke-width:1.58405685;stroke-linecap:round;stroke-miterlimit:4;stroke-dasharray:none;stroke-dashoffset:0" />
        <rect
           style="fill:#cccccc;stroke:#4d4d4d;stroke-width:1.58405685;stroke-linecap:round;stroke-miterlimit:4;stroke-dasharray:none;stroke-dashoffset:0"
           id="rect4171"
           width="53.212124"
           height="4.4828558"
           x="-90.427071"
           y="211.21637"
           rx="12.131406"
           ry="2.2414279"
           transform="matrix(0.98827637,-0.1526755,0.09873384,0.99511388,0,0)" />
        <rect
           transform="matrix(0.98827637,-0.1526755,0.09873384,0.99511388,0,0)"
           ry="2.2414279"
           rx="12.131406"
           y="199.75969"
           x="-89.282494"
           height="4.4828558"
           width="53.212124"
           id="rect4173"
           style="fill:#cccccc;stroke:#4d4d4d;stroke-width:1.58405685;stroke-linecap:round;stroke-miterlimit:4;stroke-dasharray:none;stroke-dashoffset:0" />
        <rect
           style="fill:#cccccc;stroke:#4d4d4d;stroke-width:1.58405685;stroke-linecap:round;stroke-miterlimit:4;stroke-dasharray:none;stroke-dashoffset:0"
           id="rect4177"
           width="53.212124"
           height="4.4828558"
           x="-88.137917"
           y="188.30302"
           rx="12.131406"
           ry="2.2414279"
           transform="matrix(0.98827637,-0.1526755,0.09873384,0.99511388,0,0)" />
      </g>
      <g
         id="g4179"
         transform="translate(106.90223,83.994607)"
         style="stroke:#4d4d4d">
        <rect
           style="fill:#cccccc;stroke:#4d4d4d;stroke-width:1.58405685;stroke-linecap:round;stroke-miterlimit:4;stroke-dasharray:none;stroke-dashoffset:0"
           id="rect4181"
           width="53.212124"
           height="4.4828558"
           x="-91.57164"
           y="222.67303"
           rx="12.131406"
           ry="2.2414279"
           transform="matrix(0.98827637,-0.1526755,0.09873384,0.99511388,0,0)" />
        <rect
           transform="matrix(0.98827637,-0.1526755,0.09873384,0.99511388,0,0)"
           ry="2.2414279"
           rx="12.131406"
           y="234.1297"
           x="-92.716248"
           height="4.4828558"
           width="53.212124"
           id="rect4187"
           style="fill:#cccccc;stroke:#4d4d4d;stroke-width:1.58405685;stroke-linecap:round;stroke-miterlimit:4;stroke-dasharray:none;stroke-dashoffset:0" />
      </g>
    </g>
    <rect
       style="fill:#cccccc;stroke:#4d4d4d;stroke-width:5;stroke-linecap:square;stroke-miterlimit:4;stroke-dasharray:none;stroke-dashoffset:0"
       id="rect3053"
       width="83.842659"
       height="12.121831"
       x="-410.64603"
       y="538.76593"
       transform="scale(-1,1)"
       inkscape:export-filename="/home/waldgeist/data/pics/physik/Own/elektrizitaet-magnetismus/wasserstromstaerke.png"
       inkscape:export-xdpi="150"
       inkscape:export-ydpi="150" />
    <path
       style="fill:none;stroke:#000000;stroke-width:5;stroke-linecap:butt;stroke-linejoin:miter;stroke-miterlimit:4;stroke-opacity:1;stroke-dasharray:none"
       d="m 317.95923,637.3169 15.7923,15.79237 64.7314,0 6.9375,-8.93744 0,-75.92488 -18.29457,0 m -36.29457,0 -18.29456,0 0,18.39552 -20.13924,0 -26.43799,-29.38314 c 8.38309,-5.53972 15.20388,-13.41693 19.48779,-22.50609 5.51128,-11.69326 6.7297,-25.35302 3.375,-37.83711"
       id="path3974"
       inkscape:path-effect="#path-effect3976"
       inkscape:original-d="m 317.95923,637.3169 15.7923,15.79237 64.7314,0 6.9375,-8.93744 0,-75.92488 -18.29457,0 m -36.29457,0 -18.29456,0 0,18.39552 -20.13924,0 -26.43799,-29.38314 c 0,0 15.07352,-11.84911 19.48779,-22.50609 5.51219,-13.30759 3.375,-37.83711 3.375,-37.83711"
       inkscape:connector-curvature="0"
       sodipodi:nodetypes="cccccccccccsc"
       inkscape:export-filename="/home/waldgeist/data/pics/physik/Own/elektrizitaet-magnetismus/wasserstromstaerke.png"
       inkscape:export-xdpi="150"
       inkscape:export-ydpi="150" />
    <rect
       style="fill:none;stroke:#000000;stroke-width:5;stroke-linecap:square;stroke-miterlimit:4;stroke-dasharray:none;stroke-dashoffset:0"
       id="rect4586"
       width="94.398758"
       height="29.698484"
       x="-624.87305"
       y="723.92963"
       ry="4.5961943"
       transform="scale(-1,1)"
       inkscape:export-filename="/home/waldgeist/data/pics/physik/Own/elektrizitaet-magnetismus/wasserstromstaerke.png"
       inkscape:export-xdpi="150"
       inkscape:export-ydpi="150" />
    <rect
       style="fill:none;stroke:#ffffff;stroke-width:0.98702288;stroke-linecap:square;stroke-miterlimit:4;stroke-dasharray:none;stroke-dashoffset:0"
       id="rect4623"
       width="616.013"
       height="830.013"
       x="-680.05377"
       y="100.17461"
       rx="0"
       ry="0"
       transform="scale(-1,1)"
       inkscape:export-filename="/home/waldgeist/data/pics/physik/Own/elektrizitaet-magnetismus/wasserstromstaerke.png"
       inkscape:export-xdpi="150"
       inkscape:export-ydpi="150" />
  </g>
</svg>
