<svg xmlns="http://www.w3.org/2000/svg" width="210mm" height="297mm"><rect width="709.207" height="560.732" x="17.444" y="245.815" rx="0" ry="0" fill="#fff" stroke="#fff" stroke-linecap="square"/><path d="M88.143 673.346v71.623c0 7.936 7.31 14.325 16.388 14.325h535.032c9.08 0 16.389-6.389 16.389-14.325v-71.623" fill="none" stroke="#000" stroke-width="4.213" stroke-linecap="round"/><path d="M88.143 695.182v54.771c0 6.069 7.31 10.954 16.388 10.954h535.032c9.08 0 16.389-4.885 16.389-10.954v-54.77" fill="#5fbcd3" stroke="#000" stroke-width="4.213" stroke-linecap="round"/><path d="M638.794 376.059v241.036c0 15.773-15.157 28.47-33.983 28.47H373.189c-18.826 0-33.983-12.697-33.983-28.47V376.059" fill="#5fbcd3" stroke="#5fbcd3" stroke-width="7.666" transform="matrix(-.61775 0 0 .28786 674.269 473.046)"/><path d="M642 285.073v328.579c0 19.23.888 34.71-18.342 34.71H357.07c-19.23 0-21.07-15.48-21.07-34.71v-328.58" fill="none" stroke="#000" stroke-width="9.991" stroke-linecap="round" transform="matrix(-.61775 0 0 .28786 674.269 473.046)"/><g fill="gray" stroke="#000" stroke-width="5"><path d="M423.38 659.792h-14.325v101.115h14.324zM335.325 659.792H321v101.115h14.325z" stroke-width="4.21315"/></g><path d="M457.991 627.503l29.05 17.805a60.084 60.084 0 0 1 17.375 16.773c8.68 12.686 12.197 28.796 9.596 43.945" fill="none" stroke="#5fbcd3" stroke-width="29.492" stroke-linecap="round"/><path d="M466.68 613.303l20.622 11.906M466.68 651.155l20.622 11.906" fill="none" stroke="#000" stroke-width="4.213" stroke-linecap="round"/><path d="M467.121 469.558A477.105 477.105 0 0 0 449.2 583.147" fill="none" stroke="#5fbcd3" stroke-width="17.943" stroke-linecap="round"/><path fill="#666" d="M544.23 596.129h26.005v160.13h-26.006z"/><g transform="translate(23.829 318.75) scale(.38061)"><path d="M1432.212 725.939l-.353-446.389-59.532.292c1.3 148.324.203 297.537-.361 446.448" fill="#999" stroke="#1a1a1a" stroke-width="11.069"/><path d="M1362.284 711.977c-.615 145.25 2.3 290.271 4.373 434.373v7.895h75.004v-11.793m0-37.046l-.02-396.882" fill="none" stroke="#000" stroke-width="12.182"/><path style="text-indent:0;text-align:start;line-height:normal;text-transform:none;block-progression:tb;marker:none;-inkscape-font-specification:Sans" d="M1199.784 341.369c-1.72.037-4.115.412-7.968 1.664-17.455 5.675-33.096 16.536-44.194 31.842-9.542 13.162-12.609 26.633-15.563 38.483-2.954 11.85-4.483 21.772-4.483 21.772l46.944 7.112s1.224-7.976 3.61-17.548c2.387-9.573 7.21-21.06 7.921-22.04 3.913-5.395 10.749-10.445 17.584-13.304l.562-.003 197.127-.97-.038-47.5-196.096.965c-.649-.066-.686-.102-1.531-.149-1.103-.06-2.155-.362-3.875-.324zm1.038 47.744l1.031.152c-.862.046-1.001-.15-1.031-.152z" font-weight="400" color="#000" fill="gray" stroke="#1a1a1a" stroke-width="11.069" overflow="visible" font-family="Sans"/><rect rx="6.469" width="87.118" height="12.938" x="1358.116" y="-715.212" ry="6.469" transform="matrix(.99999 -.00492 -.0008 -1 0 0)" fill="#b3b3b3" stroke="#1a1a1a" stroke-width="8.856" stroke-linecap="square"/><path d="M1355.299 725.323l93.877-.462a8.21 8.21 0 0 0 8.18-8.227 8.126 8.126 0 0 0-8.193-8.147l-93.877.462a8.21 8.21 0 0 0-8.18 8.227 8.126 8.126 0 0 0 8.192 8.147z" fill="#b3b3b3" stroke="#1a1a1a" stroke-width="8.856" stroke-linecap="square"/><rect rx="7" width="14" height="279.997" x="1394.675" y="15.919" ry="7" transform="matrix(.99999 -.00492 .0008 1 0 0)" fill="gray" stroke="#1a1a1a" stroke-width="11.069" stroke-linecap="square"/><rect width="90.095" height="226.536" x="1356.628" y="-481.072" ry="80.825" transform="matrix(.99999 -.00492 -.0008 -1 0 0)" rx="0" fill="#b3b3b3" stroke="#1a1a1a" stroke-width="10.475" stroke-linecap="square"/><path style="text-indent:0;text-align:start;line-height:normal;text-transform:none;block-progression:tb;marker:none;-inkscape-font-specification:Sans" d="M1450.139-71.684c-5.28.155-10.563.938-15.74 2.449-14.462 4.22-26.954 13.728-34.91 26.53-7.957 12.802-10.927 28.178-8.286 42.978a12.725 12.778 46.897 1 0 25.094-4.602c-1.5-8.407.296-17.731 4.816-25.003 4.52-7.272 12.121-13.025 20.336-15.422 5.968-1.742 12.624-1.918 18.996-.579 6.394 1.344 12.718 4.223 18.377 8.22 11.26 7.956 20.106 20.875 28.887 35.078l171.415 277.312c3.462 5.6 7.393 11.827 12.892 17.637 5.488 5.798 11.971 10.5 19.072 13.991 14.336 7.048 28.062 8.223 37.99 11.91 12.344 4.584 23.069 14.435 28.66 26.35 5.591 11.915 6.345 26.51 2.001 38.974a12.729 12.781 46.897 0 0 24.097 8.282c6.612-18.972 5.515-40.027-2.995-58.164-8.511-18.137-24.002-32.385-42.791-39.363-14.191-5.27-26.898-6.577-35.646-10.877-4.441-2.183-8.48-5.13-11.83-8.668-3.337-3.526-6.439-8.215-9.737-13.55L1529.422-15.513c-9.047-14.634-19.387-30.817-35.816-42.424-8.186-5.783-17.6-10.206-27.815-12.353a66.584 66.584 0 0 0-15.652-1.394z" font-weight="400" color="#000" fill="#999" stroke="#000" stroke-width="11.069" overflow="visible" font-family="Sans"/><path d="M1375.05 21.145l53.26-.262c2.574-.013 4.642-5.337 4.636-11.937-.01-6.6-2.08-11.904-4.654-11.891l-53.261.262c-2.574.012-4.641 5.336-4.636 11.937.01 6.6 2.081 11.904 4.654 11.891z" fill="#b3b3b3" stroke="#1a1a1a" stroke-width="6.402" stroke-linecap="square"/><path d="M1410.439 227.552L1557.238 62.81s26.114-10.516 35.685-1.995c9.57 8.52 2.13 35.66 2.13 35.66l-148.739 294.203 1.94-129.461z" fill="#b3b3b3" stroke="#000" stroke-width="11.069" stroke-linecap="round"/><path d="M1348.82 238.065c33.678-11.008 68.605-13.94 106.063-.521 4.8 1.719 9.218 4.064 9.222 9.169a9.243 9.243 0 0 1-9.207 9.26l-106.063.521a9.149 9.149 0 0 1-9.222-9.169c0-5.105 4.349-7.672 9.207-9.26z" fill="gray" stroke="#1a1a1a" stroke-width="11.069" stroke-linecap="square"/><path d="M1582.5 81.862a9 9 0 1 1-18 0 9 9 0 0 1 18 0z" stroke="#000" stroke-width="8.38" stroke-linecap="round"/></g><path d="M276.973 469.558a477.105 477.105 0 0 1 17.923 113.589" fill="none" stroke="#5fbcd3" stroke-width="17.943" stroke-linecap="round"/><g><path fill="#666" d="M199.865 596.129H173.86v160.13h26.005z"/><g transform="matrix(-.38061 0 0 .38061 720.265 318.75)"><path d="M1432.212 725.939l-.353-446.389-59.532.292c1.3 148.324.203 297.537-.361 446.448" fill="#999" stroke="#1a1a1a" stroke-width="11.069"/><path d="M1362.284 711.977c-.615 145.25 2.3 290.271 4.373 434.373v7.895h75.004v-11.793m0-37.046l-.02-396.882" fill="none" stroke="#000" stroke-width="12.182"/><path d="M1199.784 341.369c-1.72.037-4.115.412-7.968 1.664-17.455 5.675-33.096 16.536-44.194 31.842-9.542 13.162-12.609 26.633-15.563 38.483-2.954 11.85-4.483 21.772-4.483 21.772l46.944 7.112s1.224-7.976 3.61-17.548c2.387-9.573 7.21-21.06 7.921-22.04 3.913-5.395 10.749-10.445 17.584-13.304l.562-.003 197.127-.97-.038-47.5-196.096.965c-.649-.066-.686-.102-1.531-.149-1.103-.06-2.155-.362-3.875-.324zm1.038 47.744l1.031.152c-.862.046-1.001-.15-1.031-.152z" style="text-indent:0;text-align:start;line-height:normal;text-transform:none;block-progression:tb;marker:none;-inkscape-font-specification:Sans" font-weight="400" color="#000" fill="gray" stroke="#1a1a1a" stroke-width="11.069" overflow="visible" font-family="Sans"/><rect rx="6.469" transform="matrix(.99999 -.00492 -.0008 -1 0 0)" ry="6.469" y="-715.212" x="1358.116" height="12.938" width="87.118" fill="#b3b3b3" stroke="#1a1a1a" stroke-width="8.856" stroke-linecap="square"/><path d="M1355.299 725.323l93.877-.462a8.21 8.21 0 0 0 8.18-8.227 8.126 8.126 0 0 0-8.193-8.147l-93.877.462a8.21 8.21 0 0 0-8.18 8.227 8.126 8.126 0 0 0 8.192 8.147z" fill="#b3b3b3" stroke="#1a1a1a" stroke-width="8.856" stroke-linecap="square"/><rect rx="7" transform="matrix(.99999 -.00492 .0008 1 0 0)" ry="7" y="15.919" x="1394.675" height="279.997" width="14" fill="gray" stroke="#1a1a1a" stroke-width="11.069" stroke-linecap="square"/><rect rx="0" transform="matrix(.99999 -.00492 -.0008 -1 0 0)" ry="80.825" y="-481.072" x="1356.628" height="226.536" width="90.095" fill="#b3b3b3" stroke="#1a1a1a" stroke-width="10.475" stroke-linecap="square"/><path d="M1450.139-71.684c-5.28.155-10.563.938-15.74 2.449-14.462 4.22-26.954 13.728-34.91 26.53-7.957 12.802-10.927 28.178-8.286 42.978a12.725 12.778 46.897 1 0 25.094-4.602c-1.5-8.407.296-17.731 4.816-25.003 4.52-7.272 12.121-13.025 20.336-15.422 5.968-1.742 12.624-1.918 18.996-.579 6.394 1.344 12.718 4.223 18.377 8.22 11.26 7.956 20.106 20.875 28.887 35.078l171.415 277.312c3.462 5.6 7.393 11.827 12.892 17.637 5.488 5.798 11.971 10.5 19.072 13.991 14.336 7.048 28.062 8.223 37.99 11.91 12.344 4.584 23.069 14.435 28.66 26.35 5.591 11.915 6.345 26.51 2.001 38.974a12.729 12.781 46.897 0 0 24.097 8.282c6.612-18.972 5.515-40.027-2.995-58.164-8.511-18.137-24.002-32.385-42.791-39.363-14.191-5.27-26.898-6.577-35.646-10.877-4.441-2.183-8.48-5.13-11.83-8.668-3.337-3.526-6.439-8.215-9.737-13.55L1529.422-15.513c-9.047-14.634-19.387-30.817-35.816-42.424-8.186-5.783-17.6-10.206-27.815-12.353a66.584 66.584 0 0 0-15.652-1.394z" style="text-indent:0;text-align:start;line-height:normal;text-transform:none;block-progression:tb;marker:none;-inkscape-font-specification:Sans" font-weight="400" color="#000" fill="#999" stroke="#000" stroke-width="11.069" overflow="visible" font-family="Sans"/><path d="M1375.05 21.145l53.26-.262c2.574-.013 4.642-5.337 4.636-11.937-.01-6.6-2.08-11.904-4.654-11.891l-53.261.262c-2.574.012-4.641 5.336-4.636 11.937.01 6.6 2.081 11.904 4.654 11.891z" fill="#b3b3b3" stroke="#1a1a1a" stroke-width="6.402" stroke-linecap="square"/><path d="M1410.439 227.552L1557.238 62.81s26.114-10.516 35.685-1.995c9.57 8.52 2.13 35.66 2.13 35.66l-148.739 294.203 1.94-129.461z" fill="#b3b3b3" stroke="#000" stroke-width="11.069" stroke-linecap="round"/><path d="M1348.82 238.065c33.678-11.008 68.605-13.94 106.063-.521 4.8 1.719 9.218 4.064 9.222 9.169a9.243 9.243 0 0 1-9.207 9.26l-106.063.521a9.149 9.149 0 0 1-9.222-9.169c0-5.105 4.349-7.672 9.207-9.26z" fill="gray" stroke="#1a1a1a" stroke-width="11.069" stroke-linecap="square"/><path d="M1582.5 81.862a9 9 0 1 1-18 0 9 9 0 0 1 18 0z" stroke="#000" stroke-width="8.38" stroke-linecap="round"/></g></g></svg>