<svg xmlns="http://www.w3.org/2000/svg" width="210mm" height="297mm"><title>Stromstaerke (Wassermodell)</title><g stroke-width="4.26" stroke="#000"><path d="M407.006 180.838v52.389l-18.432 10.633h-39.699l-18.431-10.633v-52.389c12.76 0 25.52-11.342 38.28-11.342 12.761 0 25.521 11.342 38.282 11.342z" fill="gray" stroke-width="5.0004732"/><path d="M412.006 183.98l101.955-4.696c2.815-.13 5.633-.367 8.449-.248 1.408.059 2.82.23 4.166.645 1.347.416 2.632 1.09 3.632 2.084 1.194 1.188 1.924 2.785 2.288 4.43.363 1.645.376 3.345.376 5.03v32.343c0 1.686-.013 3.385-.376 5.03-.364 1.646-1.094 3.243-2.288 4.431-1 .994-2.285 1.668-3.632 2.084-1.346.416-2.758.586-4.166.645-2.816.119-5.634-.118-8.45-.248l-101.954-4.695v-46.836M325.444 183.98l-101.955-4.696c-2.816-.13-5.634-.367-8.45-.248-1.408.059-2.82.23-4.166.645-1.346.416-2.632 1.09-3.631 2.084-1.195 1.188-1.925 2.785-2.288 4.43-.364 1.645-.376 3.345-.376 5.03v32.343c0 1.686.012 3.385.376 5.03.363 1.646 1.093 3.243 2.288 4.431.999.994 2.285 1.668 3.631 2.084 1.347.416 2.758.586 4.166.645 2.816.119 5.634-.118 8.45-.248l101.955-4.695v-46.836" fill="#ccc" stroke-width="5.0004732"/></g><path style="text-indent:0;text-align:start;line-height:normal;text-transform:none;block-progression:tb;marker:none;-inkscape-font-specification:Sans" d="M462.645 602.113C558.327 623 574.047 662.197 576.74 736.591v148.775c-1-.866-32.817 0-32.817 0l-.855-163.77c-.843-91.968-112.714-89.223-137.033-83.062.393-.072-9.47 14.975-9.47 14.975l-61.999-.617-15.838-14.995c-56.085.34-146.691-1.375-198.806-1.886 0-23.333-.354-53.384-.354-76.717 29.88 0 163.854-1.464 163.854-1.464s4.131.27 15.463-10.36c54.803.656 105.75 2.841 105.75 2.841 23.725-4.968 28.817 45.43 58.01 51.802z" font-weight="400" color="#000" fill="#5fbcd3" overflow="visible" font-family="Sans"/><path d="M119.221 637.987h200.774m85.34 0h66.037c20.968 2.949 40.633 14.303 53.671 30.987 12.282 15.717 18.591 35.99 17.397 55.901m70.484 0c5.88-38.507-6.783-79.425-33.387-107.878-16.813-17.981-38.4-30.796-60.554-41.53a448.717 448.717 0 0 0-42.452-17.94h-44.529v-61.439M286.55 557.527H119.22" fill="none" stroke="#000" stroke-width="5"/><path d="M395.68 481.527c-7.45-.984-13.552-.782-13.68.453-.13 1.235 5.764 3.022 13.214 4.006.025.094.466-4.459.466-4.459zM395.674 493.08c-7.45-.985-13.552-.783-13.68.452-.13 1.236 5.764 3.022 13.214 4.007.025.093.466-4.46.466-4.46z" fill="#999" stroke="#000" stroke-width="1.675" stroke-linecap="round"/><path d="M340.47 506.02h-50.056v-20.457l50.056.058z" stroke="#000" stroke-width="2" stroke-linecap="square" transform="matrix(-1 0 0 1.11566 721.747 -42.427)"/><rect ry="6.218" rx="6.218" y="485.201" x="-435.253" height="12.435" width="135.129" transform="scale(-1 1)" fill="#ccc" stroke="#000" stroke-width="5" stroke-linecap="round"/><rect width="164.655" height="15.152" x="-450.016" y="467.309" rx="7.576" ry="7.576" transform="scale(-1 1)" fill="#ccc" stroke="#000" stroke-width="5" stroke-linecap="round"/><path d="M347.68 461.993v-32.028m42.09 31.906v-31.906m42.232-.315H305.447v32.659h126.555v-32.66" stroke="#000" stroke-width="5" fill="#ececec"/><path fill="#b3b3b3" stroke="#000" stroke-width="5" stroke-linecap="round" d="M408.975 382.73h-80.5v43.194h80.5z"/><path d="M402.06 345.6v.281c7.19 0 13 3.3 13 7.375 0 4.076-5.81 3.375-13 3.375v25.781h-66.657v-25.78c-7.191 0-13.031.7-13.031-3.376s5.84-7.375 13.03-7.375v-.281h66.657z" fill="#999" stroke="#000" stroke-width="5" stroke-linecap="round"/><path d="M356.496 523.362H310.28s-.29-21.58-3.03-23.77c1.525-.117 34.675-.187 49.245-.187z" stroke="#000" stroke-width="2" stroke-linecap="square"/><path fill="#ccc" stroke="#333" stroke-width="3.913" stroke-linecap="square" d="M380.18 244.614h-22.911v306.232h22.911z"/><g stroke="#4d4d4d" fill="#ccc" stroke-width="1.584" stroke-linecap="round"><g transform="matrix(-.68125 -.153 -.06806 .9972 339.775 309.074)"><rect ry="2.241" rx="12.131" y="222.673" x="-91.572" height="4.483" width="53.212"/><rect width="53.212" height="4.483" x="-90.427" y="211.216" rx="12.131" ry="2.241"/><rect ry="2.241" rx="12.131" y="199.76" x="-89.282" height="4.483" width="53.212"/><rect width="53.212" height="4.483" x="-88.138" y="188.303" rx="12.131" ry="2.241"/></g><g transform="matrix(-.68125 -.153 -.06806 .9972 339.775 250.843)"><rect width="53.212" height="4.483" x="-91.572" y="222.673" rx="12.131" ry="2.241"/><rect ry="2.241" rx="12.131" y="234.13" x="-92.716" height="4.483" width="53.212"/></g></g><path fill="#ccc" stroke="#4d4d4d" stroke-width="5" stroke-linecap="square" d="M410.646 538.766h-83.843v12.122h83.843z"/><path d="M317.96 637.317l15.792 15.792h64.73l6.938-8.937v-75.925h-18.294m-36.295 0h-18.294v18.395h-20.14L285.96 557.26a55.501 55.501 0 0 0 19.488-22.506c5.512-11.693 6.73-25.353 3.375-37.837" fill="none" stroke="#000" stroke-width="5"/><rect width="94.399" height="29.698" x="-624.873" y="723.93" ry="4.596" transform="scale(-1 1)" fill="none" stroke="#000" stroke-width="5" stroke-linecap="square"/><rect width="616.013" height="830.013" x="-680.054" y="100.175" rx="0" ry="0" transform="scale(-1 1)" fill="none" stroke="#fff" stroke-width=".987" stroke-linecap="square"/></svg>