<svg xmlns="http://www.w3.org/2000/svg" width="210mm" height="297mm"><title>Spannung (Wassermodell)</title><rect width="616.237" height="496.237" x="-680.166" y="278.063" rx="0" ry="0" transform="scale(-1 1)" fill="#fff" stroke="#fff" stroke-width=".763" stroke-linecap="square"/><path style="marker:none" d="M171.594 458.58v199.25a21.176 21.176 0 0 0 21.219 21.22h182.375a21.176 21.176 0 0 0 21.218-21.22V458.58z" color="#000" fill="#5fbcd3" overflow="visible"/><path d="M263.844 343.675v29.687h-71.031a21.176 21.176 0 0 0-21.22 21.219v263.25a21.176 21.176 0 0 0 21.22 21.219h182.375a21.176 21.176 0 0 0 21.218-21.22V394.58a21.176 21.176 0 0 0-21.219-21.218h-71.03v-29.687h-40.313z" style="marker:none" color="#000" fill="none" stroke="#000" stroke-width="3" stroke-linecap="round" stroke-linejoin="round" overflow="visible"/><path d="M495.421 493.102v18.32l-6.445 3.718H475.094l-6.446-3.719v-18.32c4.462 0 8.924-3.965 13.387-3.965 4.462 0 8.924 3.966 13.386 3.966z" fill="gray" stroke="#000" stroke-width="2.706"/><path d="M497.17 494.2l35.652-1.642c.984-.045 1.97-.128 2.954-.086.493.02.986.08 1.457.225.471.146.92.381 1.27.729.418.415.673.974.8 1.549s.132 1.17.132 1.76v11.31c0 .588-.004 1.183-.132 1.758-.127.576-.382 1.134-.8 1.55-.35.347-.799.583-1.27.728-.47.145-.964.205-1.457.226-.984.041-1.97-.042-2.954-.087l-35.653-1.642V494.2M466.9 494.2l-35.653-1.642c-.984-.045-1.97-.128-2.954-.086-.493.02-.986.08-1.457.225-.47.146-.92.381-1.27.729-.418.415-.673.974-.8 1.549s-.132 1.17-.132 1.76v11.31c0 .588.004 1.183.132 1.758.127.576.382 1.134.8 1.55.35.347.8.583 1.27.728.47.145.964.205 1.457.226.985.041 1.97-.042 2.954-.087l35.653-1.642V494.2" fill="#ccc" stroke="#000" stroke-width="2.706"/><path d="M514.877 640.416c33.46 7.304 38.956 21.011 39.898 47.026v52.024c-.35-.303-11.476 0-11.476 0L543 682.198c-.295-32.16-39.414-31.2-47.918-29.046.137-.025-3.312 5.237-3.312 5.237l-21.68-.216-5.538-5.243c-19.613.119-55.272-.481-73.496-.66 0-8.16-.123-18.668-.123-26.827 10.448 0 61.272-.512 61.272-.512s1.445.095 5.407-3.623c19.165.23 36.98.994 36.98.994 8.296-1.738 10.077 15.886 20.285 18.114z" style="text-indent:0;text-align:start;line-height:normal;text-transform:none;block-progression:tb;marker:none;-inkscape-font-specification:Sans" font-weight="400" color="#000" fill="#5fbcd3" overflow="visible" font-family="Sans"/><path d="M394.786 652.96h70.209m29.841 0h23.093c7.332 1.032 14.209 5.002 18.768 10.837 4.295 5.496 6.501 12.585 6.084 19.548m24.647 0c2.056-13.466-2.372-27.774-11.675-37.724-5.88-6.288-13.428-10.769-21.175-14.523a156.912 156.912 0 0 0-14.845-6.273h-15.571v-21.484m-50.863 21.484h-58.512" fill="none" stroke="#000" stroke-width="2.706"/><path d="M491.46 598.249c-2.605-.344-4.738-.274-4.783.158-.046.432 2.016 1.057 4.62 1.401.01.033.163-1.559.163-1.559zM491.458 602.289c-2.605-.344-4.739-.274-4.784.158-.045.432 2.016 1.057 4.622 1.4.009.034.162-1.558.162-1.558z" fill="#999" stroke="#000" stroke-width=".906" stroke-linecap="round"/><path d="M486.424 612.443h17.504v-7.981l-17.504.023z" stroke="#000" stroke-width="1.143" stroke-linecap="square"/><rect ry="2.174" rx="2.174" y="599.534" x="-505.299" height="4.348" width="47.253" transform="scale(-1 1)" fill="#ccc" stroke="#000" stroke-width="2.706" stroke-linecap="round"/><rect width="57.578" height="5.299" x="-510.461" y="593.277" rx="2.649" ry="2.649" transform="scale(-1 1)" fill="#ccc" stroke="#000" stroke-width="2.706" stroke-linecap="round"/><path d="M474.675 591.418v-11.2m14.719 11.157v-11.157m14.768-.11h-44.255v11.42h44.255v-11.42" stroke="#000" stroke-width="2.7059012200000003" fill="#ececec"/><path fill="#b3b3b3" stroke="#000" stroke-width="2.706" stroke-linecap="round" d="M496.109 563.701h-28.15v15.105h28.15z"/><path d="M493.691 550.717v.098c2.515 0 4.546 1.154 4.546 2.58 0 1.425-2.031 1.18-4.546 1.18v9.015h-23.309v-9.016c-2.514 0-4.556.246-4.556-1.18 0-1.425 2.042-2.579 4.556-2.579v-.098h23.31z" fill="#999" stroke="#000" stroke-width="2.706" stroke-linecap="round"/><path d="M477.758 612.878h-16.16s-.102-7.546-1.06-8.312c.533-.041 12.125-.065 17.22-.065z" stroke="#000" stroke-width="1.082" stroke-linecap="square"/><path fill="#ccc" stroke="#333" stroke-width="2.118" stroke-linecap="square" d="M486.04 515.403h-8.012v107.085h8.012z"/><g transform="matrix(-.23822 -.0535 -.0238 .3487 471.911 537.944)" stroke="#4d4d4d" stroke-width="2.451" fill="#ccc" stroke-linecap="round"><rect width="53.212" height="4.483" x="-91.572" y="222.673" rx="12.131" ry="2.241"/><rect ry="2.241" rx="12.131" y="211.216" x="-90.427" height="4.483" width="53.212"/><rect width="53.212" height="4.483" x="-89.282" y="199.76" rx="12.131" ry="2.241"/><rect ry="2.241" rx="12.131" y="188.303" x="-88.138" height="4.483" width="53.212"/></g><g transform="matrix(-.23822 -.0535 -.0238 .3487 471.911 517.582)" stroke="#4d4d4d" stroke-width="2.451" fill="#ccc" stroke-linecap="round"><rect ry="2.241" rx="12.131" y="222.673" x="-91.572" height="4.483" width="53.212"/><rect width="53.212" height="4.483" x="-92.716" y="234.13" rx="12.131" ry="2.241"/></g><path fill="#ccc" stroke="#4d4d4d" stroke-width="2.706" stroke-linecap="square" d="M496.694 618.265h-29.319v4.239h29.319z"/><path d="M464.283 652.727l5.522 5.522h22.636l2.426-3.125v-26.55h-6.398m-12.691 0h-6.398v6.432h-7.042l-9.245-10.274a19.408 19.408 0 0 0 6.814-7.87 19.48 19.48 0 0 0 1.18-13.232" fill="none" stroke="#000" stroke-width="2.706"/><rect rx="1.607" width="33.01" height="10.385" x="-571.606" y="683.014" ry="1.607" transform="scale(-1 1)" fill="none" stroke="#000" stroke-width="2.706" stroke-linecap="square"/></svg>