<svg xmlns="http://www.w3.org/2000/svg" width="210mm" height="297mm"><rect width="732.19" height="781.513" x="5.952" y="135.424" rx="0" ry="0" fill="#fff" stroke="#fff" stroke-linecap="square"/><path d="M371.185 382.079c5.46 18.356 6.04 86.152 4.5 177.5" fill="#5fbcd3" stroke="#5fbcd3" stroke-width="21" stroke-linecap="round"/><path d="M38.453 795.685v65c0 7.202 8.656 13 19.409 13h633.622c10.752 0 19.408-5.798 19.408-13v-65" fill="#5fbcd3"/><path d="M37.882 643.821v212.774c0 9.393 8.67 16.954 19.441 16.954h634.699c10.77 0 19.441-7.561 19.441-16.954V643.82" fill="none" stroke="#000" stroke-width="6" stroke-linecap="round"/><path fill="gray" stroke="#000" stroke-width="3" d="M435.423 753.685h-17v120h17zM330.923 753.685h-17v120h17z"/><path fill="#666" d="M231.897 539.388h-30.862v333.035h30.862z"/><g transform="matrix(-.4517 0 0 .4517 849.712 210.205)"><path d="M1432.212 725.939l-.353-446.389-59.532.292c1.3 148.324.203 297.537-.361 446.448" fill="#999" stroke="#1a1a1a" stroke-width="8.856"/><path d="M1363.936 716.007c-.589 245.174 2.204 489.963 4.191 733.2v13.325h71.878l-.019-752.352" fill="none" stroke="#000" stroke-width="8.856"/><path style="text-indent:0;text-align:start;line-height:normal;text-transform:none;block-progression:tb;marker:none;-inkscape-font-specification:Sans" d="M1108.267 281.882c-1.72.037-4.114.412-7.967 1.664-17.456 5.675-33.097 16.536-44.195 31.842-9.543 13.162-12.609 26.632-15.563 38.483-2.955 11.85-4.483 21.772-4.483 21.772l46.944 7.112s1.225-7.976 3.611-17.548c2.387-9.573 7.21-21.06 7.92-22.04 3.913-5.395 10.75-10.445 17.584-13.304l.562-.003 303.393-.97-.038-47.5-302.361.965c-.65-.066-.687-.102-1.532-.149-1.103-.06-2.155-.362-3.875-.324zm1.038 47.744l1.032.152c-.863.046-1.002-.15-1.032-.152z" font-weight="400" color="#000" fill="gray" stroke="#1a1a1a" stroke-width="8.856" overflow="visible" font-family="Sans"/><rect width="87.118" height="12.938" x="1358.116" y="-715.212" ry="6.469" transform="matrix(.99999 -.00492 -.0008 -1 0 0)" rx="6.469" fill="#b3b3b3" stroke="#1a1a1a" stroke-width="8.856" stroke-linecap="square"/><path d="M1355.299 725.323l93.877-.462a8.21 8.21 0 0 0 8.18-8.227 8.126 8.126 0 0 0-8.193-8.147l-93.877.462a8.21 8.21 0 0 0-8.18 8.227 8.126 8.126 0 0 0 8.192 8.147z" fill="#b3b3b3" stroke="#1a1a1a" stroke-width="8.856" stroke-linecap="square"/><rect width="14" height="279.997" x="1394.675" y="15.919" ry="7" transform="matrix(.99999 -.00492 .0008 1 0 0)" rx="7" fill="gray" stroke="#1a1a1a" stroke-width="8.856" stroke-linecap="square"/><rect width="90.095" height="226.536" x="1356.628" y="-481.072" ry="80.825" transform="matrix(.99999 -.00492 -.0008 -1 0 0)" rx="0" fill="#b3b3b3" stroke="#1a1a1a" stroke-width="10.475" stroke-linecap="square"/><path style="text-indent:0;text-align:start;line-height:normal;text-transform:none;block-progression:tb;marker:none;-inkscape-font-specification:Sans" d="M1450.139-71.684c-5.28.155-10.563.938-15.74 2.449-14.462 4.22-26.954 13.728-34.91 26.53-7.957 12.802-10.927 28.178-8.286 42.978a12.725 12.778 46.897 1 0 25.094-4.602c-1.5-8.407.296-17.731 4.816-25.003 4.52-7.272 12.121-13.025 20.336-15.422 5.968-1.742 12.624-1.918 18.996-.579 6.394 1.344 12.718 4.223 18.377 8.22 11.26 7.956 20.106 20.875 28.887 35.078l171.415 277.312c3.462 5.6 7.393 11.827 12.892 17.637 5.488 5.798 11.971 10.5 19.072 13.991 14.336 7.048 28.062 8.223 37.99 11.91 12.344 4.584 23.069 14.435 28.66 26.35 5.591 11.915 6.345 26.51 2.001 38.974a12.729 12.781 46.897 0 0 24.097 8.282c6.612-18.972 5.515-40.027-2.995-58.164-8.511-18.137-24.002-32.385-42.791-39.363-14.191-5.27-26.898-6.577-35.646-10.877-4.441-2.183-8.48-5.13-11.83-8.668-3.337-3.526-6.439-8.215-9.737-13.55L1529.422-15.513c-9.047-14.634-19.387-30.817-35.816-42.424-8.186-5.783-17.6-10.206-27.815-12.353a66.584 66.584 0 0 0-15.652-1.394z" font-weight="400" color="#000" fill="#999" stroke="#000" stroke-width="8.856" overflow="visible" font-family="Sans"/><path d="M1375.05 21.145l53.26-.262c2.574-.013 4.642-5.337 4.636-11.937-.01-6.6-2.08-11.904-4.654-11.891l-53.261.262c-2.574.012-4.641 5.336-4.636 11.937.01 6.6 2.081 11.904 4.654 11.891z" fill="#b3b3b3" stroke="#1a1a1a" stroke-width="6.402" stroke-linecap="square"/><path d="M1410.439 227.552L1557.238 62.81s26.114-10.516 35.685-1.995c9.57 8.52 2.13 35.66 2.13 35.66l-148.739 294.203 1.94-129.461z" fill="#b3b3b3" stroke="#000" stroke-width="8.856" stroke-linecap="round"/><path d="M1348.82 238.065c33.678-11.008 68.605-13.94 106.063-.521 4.8 1.719 9.218 4.064 9.222 9.169a9.243 9.243 0 0 1-9.207 9.26l-106.063.521a9.149 9.149 0 0 1-9.222-9.169c0-5.105 4.349-7.672 9.207-9.26z" fill="gray" stroke="#1a1a1a" stroke-width="8.856" stroke-linecap="square"/><path d="M1582.5 81.862a9 9 0 1 1-18 0 9 9 0 0 1 18 0z" stroke="#000" stroke-width="8.38" stroke-linecap="round"/></g><rect rx="21.213" ry="21.213" y="588.592" x="262.275" height="164.967" width="224.795" style="marker:none" color="#000" fill="#5fbcd3" overflow="visible"/><rect style="marker:none" width="224.795" height="164.967" x="262.275" y="552.529" ry="0" rx="0" color="#000" fill="#5fbcd3" overflow="visible"/><path style="marker:none" d="M354.516 418.185v29.688h-71.03a21.176 21.176 0 0 0-21.22 21.218v263.25a21.176 21.176 0 0 0 21.22 21.22H465.86a21.176 21.176 0 0 0 21.219-21.22v-263.25a21.176 21.176 0 0 0-21.219-21.218H394.83v-29.688h-40.313z" color="#000" fill="none" stroke="#000" stroke-width="4" stroke-linecap="round" stroke-linejoin="round" overflow="visible"/><path style="text-indent:0;text-align:start;line-height:normal;text-transform:none;block-progression:tb;marker:none;-inkscape-font-specification:Sans" d="M613.394 653.35c26.464 13.216 42.025 14.447 42.025 51.563l.045 96.92-21.437.53v-98.46c-.26-28.336-34.86-27.49-42.354-25.593.121-.022-2.917 4.615-2.917 4.615l-19.103-.19-4.88-4.62c-17.28.104-67.198-.424-83.255-.582 0-7.19-.11-16.448-.11-23.638 9.207 0 72.486-.45 72.486-.45s5.163-7.695 8.654-10.971c16.886.202 35.942-.185 35.942-.185 2.422 8.057 1.184 11.062 14.904 11.062z" font-weight="400" color="#000" fill="#5fbcd3" overflow="visible" font-family="Sans"/><path d="M487.302 678.142h77.861m26.294 0h20.348c6.46.909 12.52 4.407 16.536 9.548 3.785 4.842 5.729 11.089 5.36 17.223m21.718 0c1.812-11.864-2.09-24.471-10.287-33.238-5.18-5.54-11.832-9.489-18.658-12.797a138.256 138.256 0 0 0-13.08-5.527h-13.72v-18.93m-44.816 18.93h-67.556" fill="none" stroke="#000" stroke-width="3.9998840199999997" stroke-linecap="round" stroke-linejoin="bevel"/><path d="M588.483 629.934c-2.296-.303-4.176-.24-4.215.14-.04.38 1.776.931 4.071 1.234.008.03.144-1.374.144-1.374zM588.48 633.494c-2.295-.303-4.175-.241-4.214.14-.04.38 1.776.93 4.072 1.234.008.029.143-1.374.143-1.374z" fill="#999" stroke="#000" stroke-width=".516" stroke-linecap="round"/><path d="M340.47 506.02h-50.056v-20.457l50.056.058z" stroke="#000" stroke-width="2" stroke-linecap="square" transform="matrix(-.30811 0 0 .34375 688.949 468.497)"/><rect ry="6.218" rx="6.218" y="631.067" x="-600.676" height="3.831" width="41.635" transform="scale(-1 1)" fill="#ccc" stroke="#000" stroke-width="1.541" stroke-linecap="round"/><rect width="50.733" height="4.669" x="-605.224" y="625.554" rx="7.576" ry="7.576" transform="scale(-1 1)" fill="#ccc" stroke="#000" stroke-width="1.541" stroke-linecap="round"/><path d="M573.693 623.916v-9.869m12.969 9.83v-9.83m13.012-.097h-38.993v10.063h38.993V613.95" stroke="#000" stroke-width="3.00006707" fill="#ececec"/><path fill="#b3b3b3" stroke="#000" stroke-width="3.00006707" stroke-linecap="round" d="M592.58 599.493h-24.804v13.31h24.803z"/><path d="M590.448 588.053v.087c2.216 0 4.006 1.016 4.006 2.272 0 1.256-1.79 1.04-4.006 1.04v7.944h-20.537v-7.944c-2.216 0-4.015.216-4.015-1.04s1.799-2.272 4.015-2.272v-.087h20.537z" fill="#999" stroke="#000" stroke-width="3.00006707" stroke-linecap="round"/><path d="M576.41 642.824h-14.24s-.089-6.649-.933-7.324c.47-.036 10.683-.057 15.173-.057z" stroke="#000" stroke-width=".61622" stroke-linecap="square"/><g><g stroke-width="8.295" stroke="#000"><path d="M591.972 533.288v16.141l-5.679 3.277h-12.231l-5.68-3.277v-16.141c3.932 0 7.864-3.495 11.796-3.495 3.931 0 7.863 3.495 11.794 3.495z" fill="gray" stroke-width="3.0000526499999998"/><path d="M593.513 534.256l31.414-1.447c.867-.04 1.736-.113 2.603-.077.434.019.869.071 1.284.2.415.127.81.335 1.119.641.368.366.593.858.705 1.365.112.507.116 1.031.116 1.55v9.966c0 .519-.004 1.043-.116 1.55-.112.507-.337.999-.705 1.365-.308.306-.704.513-1.12.642-.414.128-.849.18-1.283.198-.867.037-1.736-.036-2.603-.076l-31.414-1.447v-14.43M566.842 534.256l-31.414-1.447c-.867-.04-1.735-.113-2.603-.077-.434.019-.869.071-1.284.2-.415.127-.81.335-1.119.641-.368.366-.593.858-.705 1.365-.112.507-.115 1.031-.115 1.55v9.966c0 .519.003 1.043.115 1.55.112.507.337.999.705 1.365.308.306.704.513 1.12.642.414.128.85.18 1.283.198.868.037 1.736-.036 2.603-.076l31.414-1.447v-14.43" fill="#ccc" stroke-width="3.0000526499999998"/></g><path fill="#ccc" stroke="#333" stroke-width="3" stroke-linecap="square" d="M583.707 552.938h-7.059v94.354h7.06z"/><g stroke="#4d4d4d" fill="#ccc" stroke-width="1.584" stroke-linecap="round"><g transform="matrix(-.2099 -.04714 -.02097 .30725 571.258 572.799)"><rect width="53.212" height="4.483" x="-91.572" y="222.673" rx="39.373" ry="7.275"/><rect ry="7.275" rx="39.373" y="211.216" x="-90.427" height="4.483" width="53.212"/><rect width="53.212" height="4.483" x="-89.282" y="199.76" rx="39.373" ry="7.275"/><rect ry="7.275" rx="39.373" y="188.303" x="-88.138" height="4.483" width="53.212"/></g><g transform="matrix(-.2099 -.04714 -.02097 .30725 571.258 554.857)"><rect ry="7.275" rx="39.373" y="222.673" x="-91.572" height="4.483" width="53.212"/><rect width="53.212" height="4.483" x="-92.716" y="234.13" rx="39.373" ry="7.275"/></g></g><path fill="#ccc" stroke="#4d4d4d" stroke-width="3" stroke-linecap="square" d="M593.094 643.57h-25.833v3.736h25.833z"/></g><path d="M564.536 677.935l4.866 4.866h19.944l2.138-2.753v-23.394h-5.637m-11.183 0h-5.636v5.668h-6.206l-8.146-9.053a17.1 17.1 0 0 0 6.005-6.935 17.165 17.165 0 0 0 1.04-11.658" fill="none" stroke="#000" stroke-width="3"/><rect rx="4.596" width="29.086" height="9.151" x="-659.101" y="704.622" ry="4.596" transform="scale(-1 1)" fill="none" stroke="#000" stroke-width="4" stroke-linecap="square"/><path style="marker:none" d="M224.468 851.956a9.067 9.067 0 1 1-18.135 0 9.067 9.067 0 1 1 18.135 0z" color="#000" fill="#5fbcd3" stroke="#000" stroke-width="1.9998156400000002" overflow="visible"/><path d="M207.557 856.767h14.816m-16.714-4.86h19.07m-18.121-4.859h16.93m-12.942 11.77v-14.703m4.86 16.615v-18.212m4.858 15.887v-14.96" fill="none" stroke="#000" stroke-width=".524"/></svg>