<svg xmlns:ns0="http://www.iki.fi/pav/software/textext/" xmlns="http://www.w3.org/2000/svg" xmlns:xlink="http://www.w3.org/1999/xlink" width="1052.362" height="744.094"><title>Anomalie des Wassers</title><defs><linearGradient id="b"><stop offset="0" stop-color="#e9db28"/><stop offset="1" stop-color="#2324d0"/></linearGradient><linearGradient id="a"><stop offset="0" stop-color="#aa8f72"/><stop offset="1" stop-color="#deaa87"/></linearGradient><filter id="O"><feGaussianBlur stdDeviation="1.454"/></filter><filter id="i" x="-.166" width="1.333" y="-.313" height="1.626"><feGaussianBlur stdDeviation="4.149"/></filter><filter id="N" x="-.137" width="1.274" y="-.263" height="1.525"><feGaussianBlur stdDeviation="4.271"/></filter><linearGradient id="c"><stop offset="0" stop-color="#e9db28"/><stop offset="1" stop-color="#1170ac" stop-opacity=".65"/></linearGradient><linearGradient xlink:href="#a" id="Q" gradientUnits="userSpaceOnUse" gradientTransform="matrix(.69824 0 0 .69824 10.757 454.332)" x1="364.691" y1="477.203" x2="364.691" y2="171.922"/><linearGradient xlink:href="#a" id="P" gradientUnits="userSpaceOnUse" gradientTransform="matrix(.69824 0 0 .69824 536.905 454.332)" x1="364.691" y1="477.203" x2="364.691" y2="171.922"/><radialGradient xlink:href="#b" id="g" gradientUnits="userSpaceOnUse" gradientTransform="matrix(1 0 0 .46505 104.701 509.147)" cx="648.712" cy="215.173" fx="648.712" fy="215.173" r="230.251"/><radialGradient xlink:href="#b" id="h" gradientUnits="userSpaceOnUse" gradientTransform="matrix(1 0 0 .2751 520.165 496.498)" cx="233.249" cy="409.729" fx="233.249" fy="409.729" r="230.251"/><radialGradient xlink:href="#c" id="d" gradientUnits="userSpaceOnUse" gradientTransform="matrix(1 0 0 .46505 -421.447 509.147)" cx="648.712" cy="215.173" fx="648.712" fy="215.173" r="230.251"/><radialGradient xlink:href="#c" id="e" gradientUnits="userSpaceOnUse" gradientTransform="matrix(1 0 0 .2751 -5.983 496.498)" cx="233.249" cy="409.729" fx="233.249" fy="409.729" r="230.251"/></defs><g transform="translate(0 -308.268)"><path style="marker:none" opacity=".5" color="#000" fill="#d5d5ff" stroke="#1a1a1a" stroke-linecap="round" stroke-linejoin="bevel" overflow="visible" enable-background="accumulate" d="M35.647 574.374h459.502v213.158H35.647z"/><path style="marker:none" color="#000" fill="#fff" stroke="#fff" stroke-linecap="round" stroke-linejoin="bevel" overflow="visible" enable-background="accumulate" d="M18.843 540.489h1022.255v286.959H18.843z"/><path style="marker:none" opacity=".4" color="#000" fill="url(#d)" stroke="url(#e)" stroke-linecap="round" stroke-linejoin="bevel" overflow="visible" enable-background="accumulate" d="M35.647 574.374h459.502v213.158H35.647z"/><use xlink:href="#f" transform="translate(-527.385)" width="1052.362" height="744.094"/><path d="M113.629 671.282h330.934l.498 20.154H113.388z" opacity=".8" fill="#d5e5ff"/><path d="M135.774 690.129h296.014l-1.288 19.154H136.21z" opacity=".8" fill="#acf" stroke="#2c2ca0"/><path d="M421.827 709.283H152.454l2.013 19.155h267.36z" opacity=".8" fill="#59f" stroke="#2c2ca0"/><path d="M170.697 728.438h238.738l.241 18.25H170.463z" opacity=".8" fill="#06f" stroke="#2c2ca0"/><path d="M192.005 746.687h198.479v30.953H190.583z" opacity=".8" fill="#0055d4" stroke="#2c2ca0"/><path d="M226.76 652.755a222.798 222.798 0 0 1 62.57-7.222c9.194.25 18.362 1.07 27.536 1.744a873.908 873.908 0 0 0 77.003 2.256l-39.305 20.452-110.706-.01z" fill="#d7eef4" stroke="#6f8a91"/><path d="M78.406 645.852a70.013 70.013 0 0 1 18.507-4.786c10.181-1.186 20.602-.132 30.634-2.234 2.576-.54 5.103-1.283 7.658-1.914 25.567-6.315 52.916-.978 76.903 9.892 7.078 3.207 13.974 6.899 21.38 9.254 4.378 1.392 8.893 2.302 13.402 3.19a1577.53 1577.53 0 0 0 60.628 10.72l-193.89 1.308zM344.834 669.984a1158.247 1158.247 0 0 1 34.162-14.559c9.884-4.026 19.831-7.918 29.996-11.168 7.548-2.414 15.212-4.472 22.975-6.063a198.165 198.165 0 0 1 63.828-2.553l-10.866 35.214z" fill="#d7eef4" stroke="#6f8a91"/><path style="marker:none" opacity=".2" color="#000" fill="#06f" stroke="#1a1a1a" stroke-linecap="round" stroke-linejoin="bevel" overflow="visible" enable-background="accumulate" d="M561.795 574.374h459.502v213.158H561.795z"/><path d="M870.982 669.984a1158.247 1158.247 0 0 1 34.163-14.559c9.883-4.026 19.83-7.918 29.995-11.168 7.548-2.414 15.212-4.472 22.975-6.063a198.165 198.165 0 0 1 63.828-2.553l-10.866 35.214z" fill="#32b332" stroke="green"/><path d="M752.908 652.755a222.798 222.798 0 0 1 62.57-7.222c9.195.25 18.363 1.07 27.536 1.744a873.908 873.908 0 0 0 77.004 2.256l-39.306 20.452-110.705-.01z" fill="#2a9a2a" stroke="green"/><path d="M604.554 645.852a70.013 70.013 0 0 1 18.508-4.786c10.18-1.186 20.601-.132 30.633-2.234 2.576-.54 5.104-1.283 7.658-1.914 25.567-6.315 52.916-.978 76.903 9.892 7.079 3.207 13.974 6.899 21.38 9.254 4.379 1.392 8.894 2.302 13.402 3.19a1577.53 1577.53 0 0 0 60.629 10.72l-193.89 1.308z" fill="#32b332" stroke="green"/><path style="marker:none" opacity=".4" color="#000" fill="url(#g)" stroke="url(#h)" stroke-linecap="round" stroke-linejoin="bevel" overflow="visible" enable-background="accumulate" d="M561.795 574.374h459.502v213.158H561.795z"/><path d="M639.04 669.974h330.935l.498 20.155H638.8z" opacity=".8" fill="#d5e5ff" stroke="navy"/><path d="M661.922 690.129h296.014l-1.288 19.154H662.357z" opacity=".8" fill="#acf" stroke="#04a"/><path d="M947.975 709.283H678.602l2.013 19.155h267.36z" opacity=".8" fill="#59f" stroke="#04a"/><path d="M696.846 728.438h238.737l.242 18.25H696.61z" opacity=".8" fill="#06f" stroke="#04a"/><path d="M718.153 746.687h198.48v30.953H716.73z" opacity=".8" fill="#0055d4" stroke="#04a"/><path d="M950.778 598c3.054-3.973 8-6.422 13.011-6.443 5.011-.021 9.977 2.386 13.065 6.333l-3.149 24.414a17.22 17.22 0 0 1-9.776 2.756 17.22 17.22 0 0 1-9.614-3.276c-3.61-2.632-6.117-6.737-6.783-11.153-.667-4.417.524-9.09 3.246-12.631z" transform="scale(-1.01446) rotate(45 1471.836 -2287.314)" opacity=".7" fill="#d7e3f4" stroke="#5f8dd3" stroke-width=".986" filter="url(#i)"/><g transform="translate(-99.533 545.196) scale(1.62019)" ns0:preamble="/home/waldgeist/data/sphinx/inkscape-preamble.tex" ns0:text="$\\unit[4]{^o C}$"><defs><symbol id="j" overflow="visible"><path d="M2.938-1.64v.859c0 .36-.032.469-.766.469h-.203V0c.406-.031.922-.031 1.343-.031.422 0 .938 0 1.36.031v-.313h-.219c-.734 0-.75-.109-.75-.468v-.86h.985v-.312h-.985v-4.531c0-.204 0-.266-.172-.266-.078 0-.11 0-.187.125L.28-1.953v.312zm.046-.313H.563l2.421-3.719zm0 0"/></symbol><symbol id="l" overflow="visible"><path d="M.563-3.406C.563-1.344 2.171.219 4.03.219c1.625 0 2.594-1.39 2.594-2.547 0-.094 0-.172-.125-.172-.11 0-.11.063-.125.172C6.297-.906 5.235-.094 4.141-.094c-.61 0-2.563-.328-2.563-3.312 0-2.969 1.953-3.313 2.563-3.313 1.078 0 1.968.907 2.171 2.36.016.14.016.171.157.171.156 0 .156-.03.156-.234v-2.36c0-.171 0-.25-.11-.25-.03 0-.077 0-.156.126l-.5.734c-.359-.36-.875-.86-1.828-.86-1.875 0-3.468 1.595-3.468 3.626zm0 0"/></symbol><symbol id="k" overflow="visible"><path d="M3.688-1.484c0-.875-.75-1.625-1.704-1.625-.968 0-1.718.75-1.718 1.625 0 .859.765 1.546 1.718 1.546.938 0 1.704-.687 1.704-1.546zM1.984-.156c-.265 0-.64-.078-.875-.422-.187-.281-.203-.64-.203-.969 0-.297 0-.719.25-1.016.172-.203.469-.343.828-.343.407 0 .704.187.86.406.187.266.203.625.203.953 0 .328-.016.703-.219.984-.187.266-.5.407-.844.407zm0 0"/></symbol></defs><use y="134.765" x="223.432" xlink:href="#j" width="1052.362" height="744.094"/><use y="131.149" x="230.074" xlink:href="#k" width="1052.362" height="744.094"/><use y="134.765" x="234.543" xlink:href="#l" width="1052.362" height="744.094"/></g><g ns0:text="$\\unit[3]{^o C}$" ns0:preamble="/home/waldgeist/data/sphinx/inkscape-preamble.tex" transform="translate(-99.533 525.659) scale(1.62019)"><defs><symbol overflow="visible" id="m"><path d="M2.89-3.516c.813-.265 1.391-.953 1.391-1.75 0-.812-.875-1.375-1.828-1.375-1 0-1.765.594-1.765 1.36 0 .328.218.515.515.515.297 0 .5-.218.5-.515 0-.485-.469-.485-.61-.485.298-.5.954-.625 1.313-.625.422 0 .969.22.969 1.11 0 .125-.031.703-.281 1.14-.297.485-.64.516-.89.516a3.29 3.29 0 0 1-.392.031c-.078.016-.14.031-.14.125 0 .11.062.11.234.11h.438c.812 0 1.187.671 1.187 1.656 0 1.36-.687 1.64-1.125 1.64-.437 0-1.187-.171-1.531-.75.344.047.656-.171.656-.546a.537.537 0 0 0-.547-.563c-.25 0-.562.14-.562.578C.422-.437 1.344.22 2.437.22c1.22 0 2.126-.906 2.126-1.922 0-.813-.641-1.594-1.672-1.813zm0 0"/></symbol><symbol overflow="visible" id="o"><path d="M.563-3.406C.563-1.344 2.171.219 4.03.219c1.625 0 2.594-1.39 2.594-2.547 0-.094 0-.172-.125-.172-.11 0-.11.063-.125.172C6.297-.906 5.235-.094 4.141-.094c-.61 0-2.563-.328-2.563-3.312 0-2.969 1.953-3.313 2.563-3.313 1.078 0 1.968.907 2.171 2.36.016.14.016.171.157.171.156 0 .156-.03.156-.234v-2.36c0-.171 0-.25-.11-.25-.03 0-.077 0-.156.126l-.5.734c-.359-.36-.875-.86-1.828-.86-1.875 0-3.468 1.595-3.468 3.626zm0 0"/></symbol><symbol overflow="visible" id="n"><path d="M3.688-1.484c0-.875-.75-1.625-1.704-1.625-.968 0-1.718.75-1.718 1.625 0 .859.765 1.546 1.718 1.546.938 0 1.704-.687 1.704-1.546zM1.984-.156c-.265 0-.64-.078-.875-.422-.187-.281-.203-.64-.203-.969 0-.297 0-.719.25-1.016.172-.203.469-.343.828-.343.407 0 .704.187.86.406.187.266.203.625.203.953 0 .328-.016.703-.219.984-.187.266-.5.407-.844.407zm0 0"/></symbol></defs><use height="744.094" width="1052.362" xlink:href="#m" x="223.432" y="134.765"/><use height="744.094" width="1052.362" xlink:href="#n" x="230.074" y="131.149"/><use height="744.094" width="1052.362" xlink:href="#o" x="234.543" y="134.765"/></g><g transform="translate(-99.533 506.122) scale(1.62019)" ns0:preamble="/home/waldgeist/data/sphinx/inkscape-preamble.tex" ns0:text="$\\unit[2]{^o C}$"><defs><symbol id="p" overflow="visible"><path d="M1.266-.766l1.062-1.03c1.547-1.376 2.14-1.907 2.14-2.907 0-1.14-.89-1.938-2.109-1.938C1.234-6.64.5-5.719.5-4.828c0 .547.5.547.531.547.172 0 .516-.11.516-.532a.513.513 0 0 0-.531-.515c-.079 0-.094 0-.125.016.218-.657.765-1.016 1.343-1.016.907 0 1.329.812 1.329 1.625 0 .797-.485 1.578-1.047 2.203L.609-.375C.5-.265.5-.235.5 0h3.703l.266-1.734h-.235C4.172-1.438 4.11-1 4-.844c-.063.078-.719.078-.938.078zm0 0"/></symbol><symbol id="r" overflow="visible"><path d="M.563-3.406C.563-1.344 2.171.219 4.03.219c1.625 0 2.594-1.39 2.594-2.547 0-.094 0-.172-.125-.172-.11 0-.11.063-.125.172C6.297-.906 5.235-.094 4.141-.094c-.61 0-2.563-.328-2.563-3.312 0-2.969 1.953-3.313 2.563-3.313 1.078 0 1.968.907 2.171 2.36.016.14.016.171.157.171.156 0 .156-.03.156-.234v-2.36c0-.171 0-.25-.11-.25-.03 0-.077 0-.156.126l-.5.734c-.359-.36-.875-.86-1.828-.86-1.875 0-3.468 1.595-3.468 3.626zm0 0"/></symbol><symbol id="q" overflow="visible"><path d="M3.688-1.484c0-.875-.75-1.625-1.704-1.625-.968 0-1.718.75-1.718 1.625 0 .859.765 1.546 1.718 1.546.938 0 1.704-.687 1.704-1.546zM1.984-.156c-.265 0-.64-.078-.875-.422-.187-.281-.203-.64-.203-.969 0-.297 0-.719.25-1.016.172-.203.469-.343.828-.343.407 0 .704.187.86.406.187.266.203.625.203.953 0 .328-.016.703-.219.984-.187.266-.5.407-.844.407zm0 0"/></symbol></defs><use height="744.094" width="1052.362" y="134.765" x="223.432" xlink:href="#p"/><use height="744.094" width="1052.362" y="131.149" x="230.074" xlink:href="#q"/><use height="744.094" width="1052.362" y="134.765" x="234.543" xlink:href="#r"/></g><g ns0:text="$\\unit[1]{^o C}$" ns0:preamble="/home/waldgeist/data/sphinx/inkscape-preamble.tex" transform="translate(-99.533 486.585) scale(1.62019)"><defs><symbol overflow="visible" id="s"><path d="M2.938-6.375c0-.25 0-.266-.235-.266C2.078-6 1.203-6 .891-6v.313c.203 0 .78 0 1.296-.266v5.172c0 .36-.03.469-.921.469H.953V0c.344-.031 1.203-.031 1.61-.031.39 0 1.265 0 1.609.031v-.313h-.313c-.906 0-.921-.109-.921-.468zm0 0"/></symbol><symbol overflow="visible" id="u"><path d="M.563-3.406C.563-1.344 2.171.219 4.03.219c1.625 0 2.594-1.39 2.594-2.547 0-.094 0-.172-.125-.172-.11 0-.11.063-.125.172C6.297-.906 5.235-.094 4.141-.094c-.61 0-2.563-.328-2.563-3.312 0-2.969 1.953-3.313 2.563-3.313 1.078 0 1.968.907 2.171 2.36.016.14.016.171.157.171.156 0 .156-.03.156-.234v-2.36c0-.171 0-.25-.11-.25-.03 0-.077 0-.156.126l-.5.734c-.359-.36-.875-.86-1.828-.86-1.875 0-3.468 1.595-3.468 3.626zm0 0"/></symbol><symbol overflow="visible" id="t"><path d="M3.688-1.484c0-.875-.75-1.625-1.704-1.625-.968 0-1.718.75-1.718 1.625 0 .859.765 1.546 1.718 1.546.938 0 1.704-.687 1.704-1.546zM1.984-.156c-.265 0-.64-.078-.875-.422-.187-.281-.203-.64-.203-.969 0-.297 0-.719.25-1.016.172-.203.469-.343.828-.343.407 0 .704.187.86.406.187.266.203.625.203.953 0 .328-.016.703-.219.984-.187.266-.5.407-.844.407zm0 0"/></symbol></defs><use height="744.094" width="1052.362" xlink:href="#s" x="223.432" y="134.765"/><use height="744.094" width="1052.362" xlink:href="#t" x="230.074" y="131.149"/><use height="744.094" width="1052.362" xlink:href="#u" x="234.543" y="134.765"/></g><g ns0:text="$\\unit[0]{^o C}$" ns0:preamble="/home/waldgeist/data/sphinx/inkscape-preamble.tex" transform="translate(-99.533 467.048) scale(1.62019)"><defs><symbol overflow="visible" id="v"><path d="M4.578-3.188c0-.796-.047-1.593-.39-2.328C3.733-6.484 2.905-6.64 2.5-6.64c-.61 0-1.328.266-1.75 1.188-.313.687-.36 1.469-.36 2.266 0 .75.032 1.64.454 2.406a1.83 1.83 0 0 0 1.64 1c.532 0 1.297-.203 1.735-1.157.312-.687.36-1.468.36-2.25zM2.484 0c-.39 0-.984-.25-1.156-1.203-.11-.594-.11-1.516-.11-2.11 0-.64 0-1.296.079-1.828.187-1.187.937-1.28 1.187-1.28.329 0 .985.187 1.172 1.171.11.563.11 1.313.11 1.938 0 .75 0 1.421-.11 2.062C3.5-.297 2.937 0 2.484 0zm0 0"/></symbol><symbol overflow="visible" id="x"><path d="M.563-3.406C.563-1.344 2.171.219 4.03.219c1.625 0 2.594-1.39 2.594-2.547 0-.094 0-.172-.125-.172-.11 0-.11.063-.125.172C6.297-.906 5.235-.094 4.141-.094c-.61 0-2.563-.328-2.563-3.312 0-2.969 1.953-3.313 2.563-3.313 1.078 0 1.968.907 2.171 2.36.016.14.016.171.157.171.156 0 .156-.03.156-.234v-2.36c0-.171 0-.25-.11-.25-.03 0-.077 0-.156.126l-.5.734c-.359-.36-.875-.86-1.828-.86-1.875 0-3.468 1.595-3.468 3.626zm0 0"/></symbol><symbol overflow="visible" id="w"><path d="M3.688-1.484c0-.875-.75-1.625-1.704-1.625-.968 0-1.718.75-1.718 1.625 0 .859.765 1.546 1.718 1.546.938 0 1.704-.687 1.704-1.546zM1.984-.156c-.265 0-.64-.078-.875-.422-.187-.281-.203-.64-.203-.969 0-.297 0-.719.25-1.016.172-.203.469-.343.828-.343.407 0 .704.187.86.406.187.266.203.625.203.953 0 .328-.016.703-.219.984-.187.266-.5.407-.844.407zm0 0"/></symbol></defs><use height="744.094" width="1052.362" xlink:href="#v" x="223.432" y="134.765"/><use height="744.094" width="1052.362" xlink:href="#w" x="230.074" y="131.149"/><use height="744.094" width="1052.362" xlink:href="#x" x="234.543" y="134.765"/></g><g ns0:text="$\\unit[4]{^o C}$" ns0:preamble="/home/waldgeist/data/sphinx/inkscape-preamble.tex"><use height="744.094" width="1052.362" xlink:href="#j" x="223.432" y="134.765" transform="translate(432.381 545.196) scale(1.62019)"/><use height="744.094" width="1052.362" xlink:href="#k" x="230.074" y="131.149" transform="translate(432.381 545.196) scale(1.62019)"/><use height="744.094" width="1052.362" xlink:href="#l" x="234.543" y="134.765" transform="translate(432.381 545.196) scale(1.62019)"/></g><g ns0:text="$\\unit[20]{^o C}$" ns0:preamble="/home/waldgeist/data/sphinx/inkscape-preamble.tex" transform="translate(428.168 467.048) scale(1.62019)"><defs><symbol overflow="visible" id="y"><path d="M1.266-.766l1.062-1.03c1.547-1.376 2.14-1.907 2.14-2.907 0-1.14-.89-1.938-2.109-1.938C1.234-6.64.5-5.719.5-4.828c0 .547.5.547.531.547.172 0 .516-.11.516-.532a.513.513 0 0 0-.531-.515c-.079 0-.094 0-.125.016.218-.657.765-1.016 1.343-1.016.907 0 1.329.812 1.329 1.625 0 .797-.485 1.578-1.047 2.203L.609-.375C.5-.265.5-.235.5 0h3.703l.266-1.734h-.235C4.172-1.438 4.11-1 4-.844c-.063.078-.719.078-.938.078zm0 0"/></symbol><symbol overflow="visible" id="z"><path d="M4.578-3.188c0-.796-.047-1.593-.39-2.328C3.733-6.484 2.905-6.64 2.5-6.64c-.61 0-1.328.266-1.75 1.188-.313.687-.36 1.469-.36 2.266 0 .75.032 1.64.454 2.406a1.83 1.83 0 0 0 1.64 1c.532 0 1.297-.203 1.735-1.157.312-.687.36-1.468.36-2.25zM2.484 0c-.39 0-.984-.25-1.156-1.203-.11-.594-.11-1.516-.11-2.11 0-.64 0-1.296.079-1.828.187-1.187.937-1.28 1.187-1.28.329 0 .985.187 1.172 1.171.11.563.11 1.313.11 1.938 0 .75 0 1.421-.11 2.062C3.5-.297 2.937 0 2.484 0zm0 0"/></symbol><symbol overflow="visible" id="B"><path d="M.563-3.406C.563-1.344 2.171.219 4.03.219c1.625 0 2.594-1.39 2.594-2.547 0-.094 0-.172-.125-.172-.11 0-.11.063-.125.172C6.297-.906 5.235-.094 4.141-.094c-.61 0-2.563-.328-2.563-3.312 0-2.969 1.953-3.313 2.563-3.313 1.078 0 1.968.907 2.171 2.36.016.14.016.171.157.171.156 0 .156-.03.156-.234v-2.36c0-.171 0-.25-.11-.25-.03 0-.077 0-.156.126l-.5.734c-.359-.36-.875-.86-1.828-.86-1.875 0-3.468 1.595-3.468 3.626zm0 0"/></symbol><symbol overflow="visible" id="A"><path d="M3.688-1.484c0-.875-.75-1.625-1.704-1.625-.968 0-1.718.75-1.718 1.625 0 .859.765 1.546 1.718 1.546.938 0 1.704-.687 1.704-1.546zM1.984-.156c-.265 0-.64-.078-.875-.422-.187-.281-.203-.64-.203-.969 0-.297 0-.719.25-1.016.172-.203.469-.343.828-.343.407 0 .704.187.86.406.187.266.203.625.203.953 0 .328-.016.703-.219.984-.187.266-.5.407-.844.407zm0 0"/></symbol></defs><use xlink:href="#y" x="223.432" y="134.765" width="1052.362" height="744.094"/><use xlink:href="#z" x="228.413" y="134.765" width="1052.362" height="744.094"/><use xlink:href="#A" x="235.055" y="131.149" width="1052.362" height="744.094"/><g><use xlink:href="#B" x="239.525" y="134.765" width="1052.362" height="744.094"/></g></g><g transform="translate(427.852 506.122) scale(1.62019)" ns0:preamble="/home/waldgeist/data/sphinx/inkscape-preamble.tex" ns0:text="$\\unit[12]{^o C}$"><defs><symbol id="C" overflow="visible"><path d="M2.938-6.375c0-.25 0-.266-.235-.266C2.078-6 1.203-6 .891-6v.313c.203 0 .78 0 1.296-.266v5.172c0 .36-.03.469-.921.469H.953V0c.344-.031 1.203-.031 1.61-.031.39 0 1.265 0 1.609.031v-.313h-.313c-.906 0-.921-.109-.921-.468zm0 0"/></symbol><symbol id="D" overflow="visible"><path d="M1.266-.766l1.062-1.03c1.547-1.376 2.14-1.907 2.14-2.907 0-1.14-.89-1.938-2.109-1.938C1.234-6.64.5-5.719.5-4.828c0 .547.5.547.531.547.172 0 .516-.11.516-.532a.513.513 0 0 0-.531-.515c-.079 0-.094 0-.125.016.218-.657.765-1.016 1.343-1.016.907 0 1.329.812 1.329 1.625 0 .797-.485 1.578-1.047 2.203L.609-.375C.5-.265.5-.235.5 0h3.703l.266-1.734h-.235C4.172-1.438 4.11-1 4-.844c-.063.078-.719.078-.938.078zm0 0"/></symbol><symbol id="F" overflow="visible"><path d="M.563-3.406C.563-1.344 2.171.219 4.03.219c1.625 0 2.594-1.39 2.594-2.547 0-.094 0-.172-.125-.172-.11 0-.11.063-.125.172C6.297-.906 5.235-.094 4.141-.094c-.61 0-2.563-.328-2.563-3.312 0-2.969 1.953-3.313 2.563-3.313 1.078 0 1.968.907 2.171 2.36.016.14.016.171.157.171.156 0 .156-.03.156-.234v-2.36c0-.171 0-.25-.11-.25-.03 0-.077 0-.156.126l-.5.734c-.359-.36-.875-.86-1.828-.86-1.875 0-3.468 1.595-3.468 3.626zm0 0"/></symbol><symbol id="E" overflow="visible"><path d="M3.688-1.484c0-.875-.75-1.625-1.704-1.625-.968 0-1.718.75-1.718 1.625 0 .859.765 1.546 1.718 1.546.938 0 1.704-.687 1.704-1.546zM1.984-.156c-.265 0-.64-.078-.875-.422-.187-.281-.203-.64-.203-.969 0-.297 0-.719.25-1.016.172-.203.469-.343.828-.343.407 0 .704.187.86.406.187.266.203.625.203.953 0 .328-.016.703-.219.984-.187.266-.5.407-.844.407zm0 0"/></symbol></defs><use y="134.765" x="223.432" xlink:href="#C" width="1052.362" height="744.094"/><use y="134.765" x="228.413" xlink:href="#D" width="1052.362" height="744.094"/><use y="131.149" x="235.055" xlink:href="#E" width="1052.362" height="744.094"/><g><use y="134.765" x="239.525" xlink:href="#F" width="1052.362" height="744.094"/></g></g><g ns0:text="$\\unit[16]{^o C}$" ns0:preamble="/home/waldgeist/data/sphinx/inkscape-preamble.tex" transform="translate(427.852 486.585) scale(1.62019)"><defs><symbol overflow="visible" id="G"><path d="M2.938-6.375c0-.25 0-.266-.235-.266C2.078-6 1.203-6 .891-6v.313c.203 0 .78 0 1.296-.266v5.172c0 .36-.03.469-.921.469H.953V0c.344-.031 1.203-.031 1.61-.031.39 0 1.265 0 1.609.031v-.313h-.313c-.906 0-.921-.109-.921-.468zm0 0"/></symbol><symbol overflow="visible" id="H"><path d="M1.313-3.266v-.25c0-2.515 1.234-2.875 1.75-2.875.234 0 .656.063.874.407-.156 0-.546 0-.546.437 0 .313.234.469.453.469.156 0 .469-.094.469-.484 0-.594-.438-1.079-1.266-1.079C1.766-6.64.422-5.359.422-3.156.422-.484 1.578.219 2.5.219c1.11 0 2.063-.938 2.063-2.25 0-1.266-.891-2.219-2-2.219-.672 0-1.047.5-1.25.984zM2.5-.062c-.625 0-.922-.594-.984-.75-.188-.47-.188-1.266-.188-1.438 0-.781.328-1.781 1.219-1.781.172 0 .625 0 .937.625.172.36.172.875.172 1.36 0 .483 0 .983-.172 1.343-.296.594-.75.64-.984.64zm0 0"/></symbol><symbol overflow="visible" id="J"><path d="M.563-3.406C.563-1.344 2.171.219 4.03.219c1.625 0 2.594-1.39 2.594-2.547 0-.094 0-.172-.125-.172-.11 0-.11.063-.125.172C6.297-.906 5.235-.094 4.141-.094c-.61 0-2.563-.328-2.563-3.312 0-2.969 1.953-3.313 2.563-3.313 1.078 0 1.968.907 2.171 2.36.016.14.016.171.157.171.156 0 .156-.03.156-.234v-2.36c0-.171 0-.25-.11-.25-.03 0-.077 0-.156.126l-.5.734c-.359-.36-.875-.86-1.828-.86-1.875 0-3.468 1.595-3.468 3.626zm0 0"/></symbol><symbol overflow="visible" id="I"><path d="M3.688-1.484c0-.875-.75-1.625-1.704-1.625-.968 0-1.718.75-1.718 1.625 0 .859.765 1.546 1.718 1.546.938 0 1.704-.687 1.704-1.546zM1.984-.156c-.265 0-.64-.078-.875-.422-.187-.281-.203-.64-.203-.969 0-.297 0-.719.25-1.016.172-.203.469-.343.828-.343.407 0 .704.187.86.406.187.266.203.625.203.953 0 .328-.016.703-.219.984-.187.266-.5.407-.844.407zm0 0"/></symbol></defs><use xlink:href="#G" x="223.432" y="134.765" width="1052.362" height="744.094"/><use xlink:href="#H" x="228.413" y="134.765" width="1052.362" height="744.094"/><use xlink:href="#I" x="235.055" y="131.149" width="1052.362" height="744.094"/><g><use xlink:href="#J" x="239.525" y="134.765" width="1052.362" height="744.094"/></g></g><g transform="translate(432.267 525.659) scale(1.62019)" ns0:preamble="/home/waldgeist/data/sphinx/inkscape-preamble.tex" ns0:text="$\\unit[8]{^o C}$"><defs><symbol id="K" overflow="visible"><path d="M1.625-4.563c-.453-.296-.5-.625-.5-.796 0-.61.656-1.032 1.36-1.032.718 0 1.359.516 1.359 1.235 0 .578-.39 1.047-.985 1.39zm1.453.954c.719-.375 1.203-.891 1.203-1.547 0-.922-.875-1.485-1.781-1.485-1 0-1.813.735-1.813 1.672 0 .172.016.625.438 1.094.11.11.484.36.734.531C1.281-3.047.422-2.5.422-1.5.422-.453 1.438.219 2.484.219c1.125 0 2.079-.828 2.079-1.89 0-.36-.11-.813-.5-1.235-.188-.203-.344-.297-.985-.703zm-1 .421l1.235.782c.28.187.75.484.75 1.094 0 .734-.75 1.25-1.563 1.25C1.64-.063.922-.672.922-1.5c0-.578.312-1.219 1.156-1.688zm0 0"/></symbol><symbol id="M" overflow="visible"><path d="M.563-3.406C.563-1.344 2.171.219 4.03.219c1.625 0 2.594-1.39 2.594-2.547 0-.094 0-.172-.125-.172-.11 0-.11.063-.125.172C6.297-.906 5.235-.094 4.141-.094c-.61 0-2.563-.328-2.563-3.312 0-2.969 1.953-3.313 2.563-3.313 1.078 0 1.968.907 2.171 2.36.016.14.016.171.157.171.156 0 .156-.03.156-.234v-2.36c0-.171 0-.25-.11-.25-.03 0-.077 0-.156.126l-.5.734c-.359-.36-.875-.86-1.828-.86-1.875 0-3.468 1.595-3.468 3.626zm0 0"/></symbol><symbol id="L" overflow="visible"><path d="M3.688-1.484c0-.875-.75-1.625-1.704-1.625-.968 0-1.718.75-1.718 1.625 0 .859.765 1.546 1.718 1.546.938 0 1.704-.687 1.704-1.546zM1.984-.156c-.265 0-.64-.078-.875-.422-.187-.281-.203-.64-.203-.969 0-.297 0-.719.25-1.016.172-.203.469-.343.828-.343.407 0 .704.187.86.406.187.266.203.625.203.953 0 .328-.016.703-.219.984-.187.266-.5.407-.844.407zm0 0"/></symbol></defs><use y="134.765" x="223.432" xlink:href="#K" width="1052.362" height="744.094"/><use y="131.149" x="230.074" xlink:href="#L" width="1052.362" height="744.094"/><use y="134.765" x="234.543" xlink:href="#M" width="1052.362" height="744.094"/></g><path d="M859.069 619.846c-1.614-.988-2.92-2.508-3.532-4.299-.612-1.79-.493-3.844.433-5.494.775-1.382 2.067-2.427 3.5-3.103 1.434-.676 3.007-1.006 4.58-1.192 3.148-.37 6.416-.2 9.387-1.301 2.99-1.11 5.372-3.397 7.601-5.68 2.23-2.281 4.467-4.668 7.33-6.073 3.71-1.818 8.01-1.779 12.115-2.238 5.539-.62 11.03-2.212 16.585-1.78 2.779.215 5.557.96 7.893 2.479 2.336 1.519 4.198 3.86 4.822 6.576.575 2.505.07 5.186-1.107 7.47s-2.989 4.196-5.023 5.766c-4.068 3.14-8.99 4.964-13.31 7.75-2.439 1.574-4.671 3.446-7.067 5.086-2.396 1.64-5.009 3.064-7.864 3.588-3.972.73-8.048-.34-11.847-1.706-3.8-1.366-7.538-3.049-11.537-3.61-2.192-.308-4.418-.27-6.623-.459-2.206-.188-4.448-.624-6.336-1.78z" opacity=".7" fill="#d7e3f4" stroke="#5f8dd3" filter="url(#N)"/><path style="marker:none" id="f" d="M829.209 174.7a29.084 29.084 0 0 1-29.084 29.084 29.084 29.084 0 0 1-29.083-29.084 29.084 29.084 0 0 1 29.083-29.084A29.084 29.084 0 0 1 829.21 174.7z" transform="matrix(.77778 0 0 .77778 131.918 469.242)" color="#000" fill="#fc0" stroke="#f60" stroke-width="1.286" stroke-linecap="round" stroke-linejoin="bevel" overflow="visible" filter="url(#O)" enable-background="accumulate"/><path d="M561.795 635.641c14.73.63 29.334 4.117 42.759 10.211 17.841 8.1 33.352 20.628 47.227 34.463 12.9 12.865 24.536 26.932 37.015 40.206 8.997 9.57 18.496 18.78 29.357 26.166 22.13 15.051 49.187 21.888 75.945 22.337 22.036.37 43.9-3.386 65.735-6.382 19.658-2.697 40.208-5.07 56.8-15.955 13.19-8.654 22.634-21.957 30.314-35.739 8.156-14.635 14.773-30.288 25.208-43.397 12.5-15.703 30.3-27.11 49.788-31.91l-.646 152.537-459.502-.646z" fill="url(#P)" stroke="#a05a2c"/><path d="M679.96 526.47c-1.357-1.144-2.224-2.79-2.669-4.507-.445-1.718-.495-3.513-.431-5.286.098-2.706.463-5.423 1.372-7.973s2.385-4.935 4.462-6.672c1.752-1.465 3.886-2.432 6.102-2.986 2.215-.553 4.515-.706 6.799-.66 4.566.094 9.097.973 13.664.942 7.587-.051 14.925-2.602 22.455-3.53 3.77-.466 7.69-.506 11.262.783 1.786.644 3.465 1.622 4.827 2.945 1.363 1.323 2.402 2.998 2.87 4.839.638 2.505.19 5.216-.954 7.535-1.143 2.32-2.944 4.269-4.982 5.859-4.078 3.18-9.05 4.962-13.503 7.592-2.838 1.676-5.462 3.695-8.29 5.388-2.829 1.692-5.938 3.072-9.227 3.286-3.594.234-7.121-.934-10.484-2.224-3.362-1.29-6.73-2.734-10.314-3.092-2.226-.223-4.473-.018-6.706-.15-2.233-.131-4.544-.647-6.254-2.089z" transform="scale(-1 1) rotate(15 -297.764 -4495.149)" opacity=".7" fill="#d7e3f4" stroke="#5f8dd3" filter="url(#N)"/><path d="M35.647 635.641c14.73.63 29.333 4.117 42.759 10.211 17.841 8.1 33.352 20.628 47.226 34.463 12.901 12.865 24.537 26.932 37.016 40.206 8.997 9.57 18.495 18.78 29.357 26.166 22.13 15.051 49.186 21.888 75.945 22.337 22.036.37 43.9-3.386 65.734-6.382 19.659-2.697 40.21-5.07 56.8-15.955 13.191-8.654 22.634-21.957 30.314-35.739 8.157-14.635 14.774-30.288 25.21-43.397 12.5-15.703 30.298-27.11 49.787-31.91l-.647 151.891H35.647z" fill="url(#Q)" stroke="#a05a2c"/></g></svg>