<svg xmlns:ns0="http://www.iki.fi/pav/software/textext/" xmlns="http://www.w3.org/2000/svg" xmlns:xlink="http://www.w3.org/1999/xlink" height="744.094" width="1052.362"><title>Das Bimetallthermometer</title><path d="M782.493 374.132c0 142.663-115.65 258.314-258.314 258.314-142.662 0-258.313-115.651-258.313-258.314s115.65-258.314 258.313-258.314c142.663 0 258.314 115.651 258.314 258.314" fill="#fff" stroke="#fff" stroke-width="1.538" stroke-linecap="round"/><path d="M697.61 372.047a171.429 171.429 0 1 1-342.857 0 171.429 171.429 0 1 1 342.857 0z" fill="none" stroke="#000" stroke-width="3.00097636" stroke-linecap="round"/><path d="M380.737 503.006a195.714 195.714 0 1 1 290.888 0" fill="none" stroke="#000" stroke-width="3.0006310800000002" stroke-linecap="round"/><g ns0:preamble="/home/waldgeist/data/sphinx/test.tex" ns0:text="$\\unit[]{^{\\rm{o}}C}$" transform="translate(-496.162 -9.35) scale(4.4622)"><defs><symbol id="a" overflow="visible"><path d="M3.688-1.484c0-.875-.75-1.625-1.704-1.625-.968 0-1.718.75-1.718 1.625 0 .859.765 1.546 1.718 1.546.938 0 1.704-.687 1.704-1.546zM1.984-.156c-.265 0-.64-.078-.875-.422-.187-.281-.203-.64-.203-.969 0-.297 0-.719.25-1.016.172-.203.469-.343.828-.343.407 0 .704.187.86.406.187.266.203.625.203.953 0 .328-.016.703-.219.984-.187.266-.5.407-.844.407zm0 0"/></symbol><symbol id="b" overflow="visible"><path d="M.563-3.406C.563-1.344 2.171.219 4.03.219c1.625 0 2.594-1.39 2.594-2.547 0-.094 0-.172-.125-.172-.11 0-.11.063-.125.172C6.297-.906 5.235-.094 4.141-.094c-.61 0-2.563-.328-2.563-3.312 0-2.969 1.953-3.313 2.563-3.313 1.078 0 1.968.907 2.171 2.36.016.14.016.171.157.171.156 0 .156-.03.156-.234v-2.36c0-.171 0-.25-.11-.25-.03 0-.077 0-.156.126l-.5.734c-.359-.36-.875-.86-1.828-.86-1.875 0-3.468 1.595-3.468 3.626zm0 0"/></symbol></defs><use y="131.149" x="223.432" xlink:href="#a" width="1052.362" height="744.094"/><use y="134.765" x="227.901" xlink:href="#b" width="1052.362" height="744.094"/></g><g transform="translate(-575.607 -457.96) scale(4.4622)" ns0:preamble="/home/waldgeist/data/sphinx/test.tex" ns0:text="10" fill="maroon"><defs><symbol id="c" overflow="visible"><path d="M2.938-6.375c0-.25 0-.266-.235-.266C2.078-6 1.203-6 .891-6v.313c.203 0 .78 0 1.296-.266v5.172c0 .36-.03.469-.921.469H.953V0c.344-.031 1.203-.031 1.61-.031.39 0 1.265 0 1.609.031v-.313h-.313c-.906 0-.921-.109-.921-.468zm0 0"/></symbol><symbol id="d" overflow="visible"><path d="M4.578-3.188c0-.796-.047-1.593-.39-2.328C3.733-6.484 2.905-6.64 2.5-6.64c-.61 0-1.328.266-1.75 1.188-.313.687-.36 1.469-.36 2.266 0 .75.032 1.64.454 2.406a1.83 1.83 0 0 0 1.64 1c.532 0 1.297-.203 1.735-1.157.312-.687.36-1.468.36-2.25zM2.484 0c-.39 0-.984-.25-1.156-1.203-.11-.594-.11-1.516-.11-2.11 0-.64 0-1.296.079-1.828.187-1.187.937-1.28 1.187-1.28.329 0 .985.187 1.172 1.171.11.563.11 1.313.11 1.938 0 .75 0 1.421-.11 2.062C3.5-.297 2.937 0 2.484 0zm0 0"/></symbol></defs><use y="134.765" x="223.432" xlink:href="#c" width="1052.362" height="744.094"/><use y="134.765" x="228.413" xlink:href="#d" width="1052.362" height="744.094"/></g><g ns0:text="20" ns0:preamble="/home/waldgeist/data/sphinx/test.tex" transform="translate(-412.657 -457.96) scale(4.4622)" fill="maroon"><defs><symbol overflow="visible" id="e"><path d="M1.266-.766l1.062-1.03c1.547-1.376 2.14-1.907 2.14-2.907 0-1.14-.89-1.938-2.109-1.938C1.234-6.64.5-5.719.5-4.828c0 .547.5.547.531.547.172 0 .516-.11.516-.532a.513.513 0 0 0-.531-.515c-.079 0-.094 0-.125.016.218-.657.765-1.016 1.343-1.016.907 0 1.329.812 1.329 1.625 0 .797-.485 1.578-1.047 2.203L.609-.375C.5-.265.5-.235.5 0h3.703l.266-1.734h-.235C4.172-1.438 4.11-1 4-.844c-.063.078-.719.078-.938.078zm0 0"/></symbol><symbol overflow="visible" id="f"><path d="M4.578-3.188c0-.796-.047-1.593-.39-2.328C3.733-6.484 2.905-6.64 2.5-6.64c-.61 0-1.328.266-1.75 1.188-.313.687-.36 1.469-.36 2.266 0 .75.032 1.64.454 2.406a1.83 1.83 0 0 0 1.64 1c.532 0 1.297-.203 1.735-1.157.312-.687.36-1.468.36-2.25zM2.484 0c-.39 0-.984-.25-1.156-1.203-.11-.594-.11-1.516-.11-2.11 0-.64 0-1.296.079-1.828.187-1.187.937-1.28 1.187-1.28.329 0 .985.187 1.172 1.171.11.563.11 1.313.11 1.938 0 .75 0 1.421-.11 2.062C3.5-.297 2.937 0 2.484 0zm0 0"/></symbol></defs><use height="744.094" width="1052.362" xlink:href="#e" x="223.432" y="134.765"/><use height="744.094" width="1052.362" xlink:href="#f" x="228.413" y="134.765"/></g><g transform="translate(-278.966 -352.945) scale(4.4622)" ns0:preamble="/home/waldgeist/data/sphinx/test.tex" ns0:text="30" fill="maroon"><defs><symbol id="g" overflow="visible"><path d="M2.89-3.516c.813-.265 1.391-.953 1.391-1.75 0-.812-.875-1.375-1.828-1.375-1 0-1.765.594-1.765 1.36 0 .328.218.515.515.515.297 0 .5-.218.5-.515 0-.485-.469-.485-.61-.485.298-.5.954-.625 1.313-.625.422 0 .969.22.969 1.11 0 .125-.031.703-.281 1.14-.297.485-.64.516-.89.516a3.29 3.29 0 0 1-.392.031c-.078.016-.14.031-.14.125 0 .11.062.11.234.11h.438c.812 0 1.187.671 1.187 1.656 0 1.36-.687 1.64-1.125 1.64-.437 0-1.187-.171-1.531-.75.344.047.656-.171.656-.546a.537.537 0 0 0-.547-.563c-.25 0-.562.14-.562.578C.422-.437 1.344.22 2.437.22c1.22 0 2.126-.906 2.126-1.922 0-.813-.641-1.594-1.672-1.813zm0 0"/></symbol><symbol id="h" overflow="visible"><path d="M4.578-3.188c0-.796-.047-1.593-.39-2.328C3.733-6.484 2.905-6.64 2.5-6.64c-.61 0-1.328.266-1.75 1.188-.313.687-.36 1.469-.36 2.266 0 .75.032 1.64.454 2.406a1.83 1.83 0 0 0 1.64 1c.532 0 1.297-.203 1.735-1.157.312-.687.36-1.468.36-2.25zM2.484 0c-.39 0-.984-.25-1.156-1.203-.11-.594-.11-1.516-.11-2.11 0-.64 0-1.296.079-1.828.187-1.187.937-1.28 1.187-1.28.329 0 .985.187 1.172 1.171.11.563.11 1.313.11 1.938 0 .75 0 1.421-.11 2.062C3.5-.297 2.937 0 2.484 0zm0 0"/></symbol></defs><use height="744.094" width="1052.362" y="134.765" x="223.432" xlink:href="#g"/><use height="744.094" width="1052.362" y="134.765" x="228.413" xlink:href="#h"/></g><g ns0:text="-10" ns0:preamble="/home/waldgeist/data/sphinx/test.tex" transform="translate(-765.359 -191.28) scale(4.4622)" fill="#00f" stroke="#00f"><defs><symbol overflow="visible" id="i"><path d="M2.75-1.86v-.577H.11v.578zm0 0" stroke="none"/></symbol><symbol overflow="visible" id="j"><path d="M2.938-6.375c0-.25 0-.266-.235-.266C2.078-6 1.203-6 .891-6v.313c.203 0 .78 0 1.296-.266v5.172c0 .36-.03.469-.921.469H.953V0c.344-.031 1.203-.031 1.61-.031.39 0 1.265 0 1.609.031v-.313h-.313c-.906 0-.921-.109-.921-.468zm0 0" stroke="none"/></symbol><symbol overflow="visible" id="k"><path d="M4.578-3.188c0-.796-.047-1.593-.39-2.328C3.733-6.484 2.905-6.64 2.5-6.64c-.61 0-1.328.266-1.75 1.188-.313.687-.36 1.469-.36 2.266 0 .75.032 1.64.454 2.406a1.83 1.83 0 0 0 1.64 1c.532 0 1.297-.203 1.735-1.157.312-.687.36-1.468.36-2.25zM2.484 0c-.39 0-.984-.25-1.156-1.203-.11-.594-.11-1.516-.11-2.11 0-.64 0-1.296.079-1.828.187-1.187.937-1.28 1.187-1.28.329 0 .985.187 1.172 1.171.11.563.11 1.313.11 1.938 0 .75 0 1.421-.11 2.062C3.5-.297 2.937 0 2.484 0zm0 0" stroke="none"/></symbol></defs><use xlink:href="#i" x="223.432" y="134.765" width="1052.362" height="744.094"/><use xlink:href="#j" x="226.753" y="134.765" width="1052.362" height="744.094"/><use xlink:href="#k" x="231.734" y="134.765" width="1052.362" height="744.094"/></g><g transform="translate(-703.345 -49.899) scale(4.4622)" ns0:preamble="/home/waldgeist/data/sphinx/test.tex" ns0:text="-20" fill="#00f"><defs><symbol id="l" overflow="visible"><path d="M2.75-1.86v-.577H.11v.578zm0 0"/></symbol><symbol id="m" overflow="visible"><path d="M1.266-.766l1.062-1.03c1.547-1.376 2.14-1.907 2.14-2.907 0-1.14-.89-1.938-2.109-1.938C1.234-6.64.5-5.719.5-4.828c0 .547.5.547.531.547.172 0 .516-.11.516-.532a.513.513 0 0 0-.531-.515c-.079 0-.094 0-.125.016.218-.657.765-1.016 1.343-1.016.907 0 1.329.812 1.329 1.625 0 .797-.485 1.578-1.047 2.203L.609-.375C.5-.265.5-.235.5 0h3.703l.266-1.734h-.235C4.172-1.438 4.11-1 4-.844c-.063.078-.719.078-.938.078zm0 0"/></symbol><symbol id="n" overflow="visible"><path d="M4.578-3.188c0-.796-.047-1.593-.39-2.328C3.733-6.484 2.905-6.64 2.5-6.64c-.61 0-1.328.266-1.75 1.188-.313.687-.36 1.469-.36 2.266 0 .75.032 1.64.454 2.406a1.83 1.83 0 0 0 1.64 1c.532 0 1.297-.203 1.735-1.157.312-.687.36-1.468.36-2.25zM2.484 0c-.39 0-.984-.25-1.156-1.203-.11-.594-.11-1.516-.11-2.11 0-.64 0-1.296.079-1.828.187-1.187.937-1.28 1.187-1.28.329 0 .985.187 1.172 1.171.11.563.11 1.313.11 1.938 0 .75 0 1.421-.11 2.062C3.5-.297 2.937 0 2.484 0zm0 0"/></symbol></defs><use y="134.765" x="223.432" xlink:href="#l" width="1052.362" height="744.094"/><use y="134.765" x="226.753" xlink:href="#m" width="1052.362" height="744.094"/><use y="134.765" x="231.734" xlink:href="#n" width="1052.362" height="744.094"/></g><g ns0:text="0" ns0:preamble="/home/waldgeist/data/sphinx/test.tex" transform="translate(-697.068 -352.945) scale(4.4622)"><defs><symbol overflow="visible" id="o"><path d="M4.578-3.188c0-.796-.047-1.593-.39-2.328C3.733-6.484 2.905-6.64 2.5-6.64c-.61 0-1.328.266-1.75 1.188-.313.687-.36 1.469-.36 2.266 0 .75.032 1.64.454 2.406a1.83 1.83 0 0 0 1.64 1c.532 0 1.297-.203 1.735-1.157.312-.687.36-1.468.36-2.25zM2.484 0c-.39 0-.984-.25-1.156-1.203-.11-.594-.11-1.516-.11-2.11 0-.64 0-1.296.079-1.828.187-1.187.937-1.28 1.187-1.28.329 0 .985.187 1.172 1.171.11.563.11 1.313.11 1.938 0 .75 0 1.421-.11 2.062C3.5-.297 2.937 0 2.484 0zm0 0"/></symbol></defs><use height="744.094" width="1052.362" xlink:href="#o" x="223.432" y="134.765"/></g><g fill="none" stroke="#000" stroke-linecap="round"><path d="M369.378 513.011l28.33-25.168M332.049 455.139l34.898-14.77" stroke-width="3.353"/><g stroke-width="4.102"><path d="M349.303 462.217l22.524-11.576M355.774 473.804l21.594-13.231M362.64 484.392l20.903-14.3M370.592 495.043l19.76-15.84"/></g><path d="M332.049 455.139l34.898-14.77M315.52 388.704l37.759-3.215" stroke-width="3.353"/><g stroke-width="4.102"><path d="M329.53 400.746l25.014-3.957M331.768 413.11l24.794-5.157M334.958 425.932l24.354-6.946M338.998 438.527l23.78-8.71"/></g><path d="M315.52 388.704l37.759-3.215M321.33 319.75l36.72 9.362" stroke-width="3.353"/><g stroke-width="4.102"><path d="M330.69 335.742l24.927 4.477M328.728 348.78l25.183 2.68M327.68 361.29l25.282 1.475M327.428 374.468l25.323-.336"/></g><g><path d="M321.33 319.75l36.72 9.362M348.817 256.95l31.955 20.37" stroke-width="3.353"/><g stroke-width="4.102"><path d="M352.882 274.485l22.005 12.536M346.767 286.233l22.871 10.876M341.456 298.347l23.606 9.172M337.18 310.173l24.023 8.015"/></g></g><g><path d="M348.817 256.95l31.955 20.37M395.384 206.126l23.703 29.568" stroke-width="3.353"/><g stroke-width="4.102"><path d="M393.569 224.049l16.82 18.933M383.94 233.22l18.208 17.601M375.387 242.508l19.073 16.66M367.046 252.847l20.275 15.175"/></g><g><path d="M395.384 206.126l23.703 29.568M456.634 172.753l12.16 35.892" stroke-width="3.353"/><g stroke-width="4.102"><path d="M448.305 189.394l9.87 23.322M436.27 194.95l11.576 22.524M425.197 200.984l12.686 21.92M413.98 208.093l14.299 20.902"/></g></g></g><g><path d="M456.634 172.753l12.16 35.892M524.053 161.308l.502 37.892" stroke-width="3.353"/><g stroke-width="4.102"><path d="M511.674 174.335l1.544 25.278M498.552 175.671l3.355 25.102M485.538 177.873l5.158 24.794M472.686 180.935l6.946 24.354"/></g><g><path d="M524.053 161.308l.502 37.892M592.4 172.3l-11.994 35.948" stroke-width="3.353"/><g stroke-width="4.102"><path d="M575.776 180.43l-6.257 24.54M563.534 177.616l-5.072 24.812M550.517 175.506l-3.28 25.112M537.395 174.258l-1.476 25.282"/></g></g></g><g><path d="M592.4 172.3l-11.994 35.948M653.784 205.138l-23.461 29.76" stroke-width="3.353"/><g stroke-width="4.102"><path d="M635.223 207.258l-14.14 21.01M623.966 200.25l-12.537 22.005M612.86 194.306l-11.436 22.597M600.8 188.856l-9.743 23.375"/></g><g><path d="M653.784 205.138l-23.461 29.76M700.725 255.662l-31.805 20.604" stroke-width="3.353"/><g stroke-width="4.102"><path d="M682.452 251.682l-20.154 15.336M674.031 241.393l-18.932 16.82M665.414 232.16l-18.058 17.757M655.733 223.05l-16.66 19.073"/></g></g></g><g><path d="M700.725 255.662l-31.805 20.604M728.738 318.374l-36.684 9.504" stroke-width="3.353"/><g stroke-width="4.102"><path d="M712.8 308.853l-23.986 8.126M708.19 296.443l-23.322 9.87M703.02 284.952l-22.805 11.013M696.8 273.234l-21.918 12.686"/></g><g><path d="M728.738 318.374l-36.684 9.504M734.99 387.33l-37.767-3.109" stroke-width="3.353"/><g stroke-width="4.102"><path d="M722.993 373.13l-25.324-.27M722.655 359.951l-25.278 1.544M721.448 346.817l-25.102 3.355M719.484 334.408l-24.911 4.558"/></g></g></g><g><path d="M734.99 387.331l-37.767-3.11M718.931 453.78l-34.978-14.582" stroke-width="3.353"/><g stroke-width="4.102"><path d="M711.868 437.212l-23.822-8.596M715.808 424.605l-24.383-6.845M718.901 411.778l-24.812-5.072M721.14 398.783l-25.112-3.28"/></g><g><path d="M718.931 453.78l-34.978-14.582M681.445 512.563l-27.902-25.642" stroke-width="3.353"/><g stroke-width="4.102"><path d="M680.75 493.894l-19.887-15.679M688.612 483.196l-21.01-14.141M695.39 472.565l-21.688-13.078M701.757 460.945l-22.596-11.435"/></g></g></g></g><g transform="translate(-239.42 -191.036) scale(4.4622)" ns0:preamble="/home/waldgeist/data/sphinx/test.tex" ns0:text="40" fill="maroon"><defs><symbol id="p" overflow="visible"><path d="M2.938-1.64v.859c0 .36-.032.469-.766.469h-.203V0c.406-.031.922-.031 1.343-.031.422 0 .938 0 1.36.031v-.313h-.219c-.734 0-.75-.109-.75-.468v-.86h.985v-.312h-.985v-4.531c0-.204 0-.266-.172-.266-.078 0-.11 0-.187.125L.28-1.953v.312zm.046-.313H.563l2.421-3.719zm0 0"/></symbol><symbol id="q" overflow="visible"><path d="M4.578-3.188c0-.796-.047-1.593-.39-2.328C3.733-6.484 2.905-6.64 2.5-6.64c-.61 0-1.328.266-1.75 1.188-.313.687-.36 1.469-.36 2.266 0 .75.032 1.64.454 2.406a1.83 1.83 0 0 0 1.64 1c.532 0 1.297-.203 1.735-1.157.312-.687.36-1.468.36-2.25zM2.484 0c-.39 0-.984-.25-1.156-1.203-.11-.594-.11-1.516-.11-2.11 0-.64 0-1.296.079-1.828.187-1.187.937-1.28 1.187-1.28.329 0 .985.187 1.172 1.171.11.563.11 1.313.11 1.938 0 .75 0 1.421-.11 2.062C3.5-.297 2.937 0 2.484 0zm0 0"/></symbol></defs><use y="134.765" x="223.432" xlink:href="#p" width="1052.362" height="744.094"/><use y="134.765" x="228.413" xlink:href="#q" width="1052.362" height="744.094"/></g><g ns0:text="50" ns0:preamble="/home/waldgeist/data/sphinx/test.tex" transform="translate(-301.434 -49.899) scale(4.4622)" fill="maroon"><defs><symbol overflow="visible" id="r"><path d="M4.469-2c0-1.188-.813-2.188-1.89-2.188-.47 0-.907.157-1.267.516v-1.953c.204.063.532.125.844.125 1.235 0 1.938-.906 1.938-1.031 0-.063-.032-.11-.11-.11 0 0-.03 0-.078.032a3.22 3.22 0 0 1-1.36.296c-.39 0-.858-.078-1.327-.28-.078-.032-.094-.032-.11-.032C1-6.625 1-6.547 1-6.391v2.954c0 .171 0 .25.14.25.079 0 .094-.016.141-.079.11-.156.469-.703 1.282-.703.515 0 .765.453.843.64.156.376.188.75.188 1.25 0 .36 0 .954-.25 1.376-.235.39-.61.64-1.063.64-.719 0-1.297-.53-1.469-1.109.032 0 .063.016.172.016.329 0 .5-.25.5-.485 0-.25-.171-.5-.5-.5-.14 0-.484.079-.484.532C.5-.75 1.188.219 2.297.219 3.453.219 4.469-.734 4.469-2zm0 0"/></symbol><symbol overflow="visible" id="s"><path d="M4.578-3.188c0-.796-.047-1.593-.39-2.328C3.733-6.484 2.905-6.64 2.5-6.64c-.61 0-1.328.266-1.75 1.188-.313.687-.36 1.469-.36 2.266 0 .75.032 1.64.454 2.406a1.83 1.83 0 0 0 1.64 1c.532 0 1.297-.203 1.735-1.157.312-.687.36-1.468.36-2.25zM2.484 0c-.39 0-.984-.25-1.156-1.203-.11-.594-.11-1.516-.11-2.11 0-.64 0-1.296.079-1.828.187-1.187.937-1.28 1.187-1.28.329 0 .985.187 1.172 1.171.11.563.11 1.313.11 1.938 0 .75 0 1.421-.11 2.062C3.5-.297 2.937 0 2.484 0zm0 0"/></symbol></defs><use xlink:href="#r" x="223.432" y="134.765" width="1052.362" height="744.094"/><use xlink:href="#s" x="228.413" y="134.765" width="1052.362" height="744.094"/></g><path transform="matrix(-.4148 .00975 -.00975 -.41506 753.215 537.672)" d="M516.905 430.852c-24.531-14.264-29.388-47.363-14.846-70.48 18.543-29.476 59.145-35.026 87.323-16.385 34.448 22.79 40.693 70.967 17.923 104.197-27.025 39.44-82.817 46.38-121.098 19.462-44.446-31.252-52.082-94.691-21.002-138.024 35.476-49.462 106.585-57.795 154.97-22.541 54.487 39.7 63.518 118.494 24.082 171.934-43.923 59.52-130.418 69.25-188.915 25.624-64.56-48.147-74.988-142.356-27.166-205.912 52.372-69.605 154.303-80.732 222.922-28.709 74.654 56.6 86.482 166.262 30.252 239.946-60.828 79.708-178.23 92.236-256.98 31.796-84.767-65.058-97.997-190.207-33.342-274.027 69.29-89.829 202.193-103.76 291.084-34.887 94.894 73.524 109.527 214.185 36.433 308.151-77.759 99.962-226.185 115.298-325.227 37.98-105.034-81.996-121.072-238.192-39.526-342.313 86.234-110.108 250.203-126.849 359.405-41.074 115.185 90.475 132.63 262.223 42.623 376.507C679.369 669.17 543.798 703 429.99 656" fill="none" stroke="#b3b3b3" stroke-width="14.456" stroke-linecap="round"/><path d="M857.214 372.047c0 182.825-148.209 331.033-331.033 331.033S195.148 554.872 195.148 372.047c0-182.824 148.209-331.032 331.033-331.032s331.033 148.208 331.033 331.032" fill="none" stroke="#000" stroke-width="6" stroke-linecap="round"/><path d="M545.858 372.047a19.677 19.677 0 1 1-39.354 0 19.677 19.677 0 1 1 39.354 0z" fill="gray" stroke="#4d4d4d" stroke-width="2.99979372" stroke-linecap="round"/><path d="M559.759 269.727c5.847-11.948 48.861-103.52 50.535-102.808 1.674.714-39.086 103.772-39.086 103.772s-.879 2.384-3.6 1.775c-2.404-.81-3.627-1.458-7.849-2.739z" fill="gray"/><rect width="4.145" height="21.523" x="370.331" y="-536.91" ry=".224" transform="rotate(90)" fill="#b3b3b3" stroke="#666" stroke-width="3" stroke-linecap="round" stroke-linejoin="round"/></svg>