<svg xmlns:ns0="http://www.iki.fi/pav/software/textext/" xmlns="http://www.w3.org/2000/svg" xmlns:xlink="http://www.w3.org/1999/xlink" width="1052.362" height="744.094"><title>Waermedaemmung</title><defs><pattern xlink:href="#a" id="r" patternTransform="matrix(.78822 0 0 .78822 234.88 127.375)"/><pattern xlink:href="#b" id="a" patternTransform="matrix(.78822 0 0 .78822 234.88 127.375)"/><pattern id="b" height="5.181" width="30.066" patternUnits="userSpaceOnUse"><path d="M7.597.061C5.079-.187 2.656.302-.01 1.788v1.273c2.783-1.63 5.183-2.009 7.482-1.781 2.298.228 4.497 1.081 6.781 1.938 4.567 1.713 9.551 3.458 15.813-.157l-.004-1.273c-6.44 3.709-10.816 1.982-15.371.273-2.278-.854-4.576-1.75-7.094-2z"/></pattern></defs><path style="marker:none" color="#000" fill="#fff" stroke="#fff" stroke-linecap="round" overflow="visible" d="M31.711 120.284h988.939v503.527H31.711z"/><g fill="#b3b3b3"><path d="M197.357 199.233h68.6v355.212h-68.6z"/><path d="M197.358 554.445V199.233M265.956 554.445V199.233M197.358 220.902h69.112M197.358 547.785h69.112" stroke="#000" stroke-width="3.00015053"/><g stroke="#000" stroke-width="3.847"><path d="M128.571 245.248h74.286M128.571 290.703h74.286M128.571 336.157h74.286M128.571 381.612h74.286M128.571 427.066h74.286M128.571 472.52h74.286M128.571 517.975h74.286M128.571 563.43h74.286M128.571 608.884h74.286M128.571 654.339h74.286" transform="matrix(.93036 0 0 .65377 77.74 90.284)"/></g><path d="M231.914 220.902v29.717M231.914 280.335v29.717M231.914 339.768v29.717M231.914 399.202v29.716M231.914 458.635v29.717M231.914 518.068v29.717" stroke="#000" stroke-width="3.00015053"/></g><g transform="translate(-805.94 58.057) scale(3.72817)" ns0:preamble="/home/waldgeist/data/sphinx/test.tex" ns0:text="$\\unit[-15]{^{\\rm{o}}C}$"><defs><symbol id="c" overflow="visible"><path d="M6.563-2.297c.171 0 .359 0 .359-.203 0-.188-.188-.188-.36-.188h-5.39c-.172 0-.344 0-.344.188 0 .203.172.203.344.203zm0 0"/></symbol><symbol id="d" overflow="visible"><path d="M2.938-6.375c0-.25 0-.266-.235-.266C2.078-6 1.203-6 .891-6v.313c.203 0 .78 0 1.296-.266v5.172c0 .36-.03.469-.921.469H.953V0c.344-.031 1.203-.031 1.61-.031.39 0 1.265 0 1.609.031v-.313h-.313c-.906 0-.921-.109-.921-.468zm0 0"/></symbol><symbol id="e" overflow="visible"><path d="M4.469-2c0-1.188-.813-2.188-1.89-2.188-.47 0-.907.157-1.267.516v-1.953c.204.063.532.125.844.125 1.235 0 1.938-.906 1.938-1.031 0-.063-.032-.11-.11-.11 0 0-.03 0-.078.032a3.22 3.22 0 0 1-1.36.296c-.39 0-.858-.078-1.327-.28-.078-.032-.094-.032-.11-.032C1-6.625 1-6.547 1-6.391v2.954c0 .171 0 .25.14.25.079 0 .094-.016.141-.079.11-.156.469-.703 1.282-.703.515 0 .765.453.843.64.156.376.188.75.188 1.25 0 .36 0 .954-.25 1.376-.235.39-.61.64-1.063.64-.719 0-1.297-.53-1.469-1.109.032 0 .063.016.172.016.329 0 .5-.25.5-.485 0-.25-.171-.5-.5-.5-.14 0-.484.079-.484.532C.5-.75 1.188.219 2.297.219 3.453.219 4.469-.734 4.469-2zm0 0"/></symbol><symbol id="g" overflow="visible"><path d="M.563-3.406C.563-1.344 2.171.219 4.03.219c1.625 0 2.594-1.39 2.594-2.547 0-.094 0-.172-.125-.172-.11 0-.11.063-.125.172C6.297-.906 5.235-.094 4.141-.094c-.61 0-2.563-.328-2.563-3.312 0-2.969 1.953-3.313 2.563-3.313 1.078 0 1.968.907 2.171 2.36.016.14.016.171.157.171.156 0 .156-.03.156-.234v-2.36c0-.171 0-.25-.11-.25-.03 0-.077 0-.156.126l-.5.734c-.359-.36-.875-.86-1.828-.86-1.875 0-3.468 1.595-3.468 3.626zm0 0"/></symbol><symbol id="f" overflow="visible"><path d="M3.688-1.484c0-.875-.75-1.625-1.704-1.625-.968 0-1.718.75-1.718 1.625 0 .859.765 1.546 1.718 1.546.938 0 1.704-.687 1.704-1.546zM1.984-.156c-.265 0-.64-.078-.875-.422-.187-.281-.203-.64-.203-.969 0-.297 0-.719.25-1.016.172-.203.469-.343.828-.343.407 0 .704.187.86.406.187.266.203.625.203.953 0 .328-.016.703-.219.984-.187.266-.5.407-.844.407zm0 0"/></symbol></defs><use y="134.765" x="223.432" xlink:href="#c" width="1052.362" height="744.094"/><use y="134.765" x="231.181" xlink:href="#d" width="1052.362" height="744.094"/><use y="134.765" x="236.162" xlink:href="#e" width="1052.362" height="744.094"/><use y="131.149" x="242.804" xlink:href="#f" width="1052.362" height="744.094"/><g><use y="134.765" x="247.273" xlink:href="#g" width="1052.362" height="744.094"/></g></g><g ns0:text="$\\unit[+20]{^{\\rm{o}}C}$" ns0:preamble="/home/waldgeist/data/sphinx/test.tex" transform="translate(-514.827 -293.418) scale(3.72817)"><defs><symbol overflow="visible" id="h"><path d="M4.078-2.297H6.86c.141 0 .329 0 .329-.203 0-.188-.188-.188-.329-.188H4.08v-2.796c0-.141 0-.329-.204-.329-.203 0-.203.188-.203.329v2.796H.89c-.141 0-.329 0-.329.188 0 .203.188.203.329.203h2.78V.5c0 .14 0 .328.204.328.203 0 .203-.187.203-.328zm0 0"/></symbol><symbol overflow="visible" id="i"><path d="M1.266-.766l1.062-1.03c1.547-1.376 2.14-1.907 2.14-2.907 0-1.14-.89-1.938-2.109-1.938C1.234-6.64.5-5.719.5-4.828c0 .547.5.547.531.547.172 0 .516-.11.516-.532a.513.513 0 0 0-.531-.515c-.079 0-.094 0-.125.016.218-.657.765-1.016 1.343-1.016.907 0 1.329.812 1.329 1.625 0 .797-.485 1.578-1.047 2.203L.609-.375C.5-.265.5-.235.5 0h3.703l.266-1.734h-.235C4.172-1.438 4.11-1 4-.844c-.063.078-.719.078-.938.078zm0 0"/></symbol><symbol overflow="visible" id="j"><path d="M4.578-3.188c0-.796-.047-1.593-.39-2.328C3.733-6.484 2.905-6.64 2.5-6.64c-.61 0-1.328.266-1.75 1.188-.313.687-.36 1.469-.36 2.266 0 .75.032 1.64.454 2.406a1.83 1.83 0 0 0 1.64 1c.532 0 1.297-.203 1.735-1.157.312-.687.36-1.468.36-2.25zM2.484 0c-.39 0-.984-.25-1.156-1.203-.11-.594-.11-1.516-.11-2.11 0-.64 0-1.296.079-1.828.187-1.187.937-1.28 1.187-1.28.329 0 .985.187 1.172 1.171.11.563.11 1.313.11 1.938 0 .75 0 1.421-.11 2.062C3.5-.297 2.937 0 2.484 0zm0 0"/></symbol><symbol overflow="visible" id="l"><path d="M.563-3.406C.563-1.344 2.171.219 4.03.219c1.625 0 2.594-1.39 2.594-2.547 0-.094 0-.172-.125-.172-.11 0-.11.063-.125.172C6.297-.906 5.235-.094 4.141-.094c-.61 0-2.563-.328-2.563-3.312 0-2.969 1.953-3.313 2.563-3.313 1.078 0 1.968.907 2.171 2.36.016.14.016.171.157.171.156 0 .156-.03.156-.234v-2.36c0-.171 0-.25-.11-.25-.03 0-.077 0-.156.126l-.5.734c-.359-.36-.875-.86-1.828-.86-1.875 0-3.468 1.595-3.468 3.626zm0 0"/></symbol><symbol overflow="visible" id="k"><path d="M3.688-1.484c0-.875-.75-1.625-1.704-1.625-.968 0-1.718.75-1.718 1.625 0 .859.765 1.546 1.718 1.546.938 0 1.704-.687 1.704-1.546zM1.984-.156c-.265 0-.64-.078-.875-.422-.187-.281-.203-.64-.203-.969 0-.297 0-.719.25-1.016.172-.203.469-.343.828-.343.407 0 .704.187.86.406.187.266.203.625.203.953 0 .328-.016.703-.219.984-.187.266-.5.407-.844.407zm0 0"/></symbol></defs><use height="744.094" width="1052.362" xlink:href="#h" x="223.432" y="134.765"/><use height="744.094" width="1052.362" xlink:href="#i" x="231.181" y="134.765"/><use height="744.094" width="1052.362" xlink:href="#j" x="236.162" y="134.765"/><g><use height="744.094" width="1052.362" xlink:href="#k" x="242.804" y="131.149"/></g><g><use height="744.094" width="1052.362" xlink:href="#l" x="247.273" y="134.765"/></g></g><path d="M197.358 547.785l69.112-267.309M150.89 547.785h46.468M266.47 280.505h2.803c11.307 0 12.96-80.857 25.887-80.857h17.777" fill="none" stroke="#d40000" stroke-width="6" stroke-linecap="round"/><g ns0:text="$\\unit[+12]{^{\\rm{o}}C}$" ns0:preamble="/home/waldgeist/data/sphinx/test.tex" transform="translate(-556.629 -214.147) scale(3.72817)"><defs><symbol overflow="visible" id="m"><path d="M4.078-2.297H6.86c.141 0 .329 0 .329-.203 0-.188-.188-.188-.329-.188H4.08v-2.796c0-.141 0-.329-.204-.329-.203 0-.203.188-.203.329v2.796H.89c-.141 0-.329 0-.329.188 0 .203.188.203.329.203h2.78V.5c0 .14 0 .328.204.328.203 0 .203-.187.203-.328zm0 0"/></symbol><symbol overflow="visible" id="n"><path d="M2.938-6.375c0-.25 0-.266-.235-.266C2.078-6 1.203-6 .891-6v.313c.203 0 .78 0 1.296-.266v5.172c0 .36-.03.469-.921.469H.953V0c.344-.031 1.203-.031 1.61-.031.39 0 1.265 0 1.609.031v-.313h-.313c-.906 0-.921-.109-.921-.468zm0 0"/></symbol><symbol overflow="visible" id="o"><path d="M1.266-.766l1.062-1.03c1.547-1.376 2.14-1.907 2.14-2.907 0-1.14-.89-1.938-2.109-1.938C1.234-6.64.5-5.719.5-4.828c0 .547.5.547.531.547.172 0 .516-.11.516-.532a.513.513 0 0 0-.531-.515c-.079 0-.094 0-.125.016.218-.657.765-1.016 1.343-1.016.907 0 1.329.812 1.329 1.625 0 .797-.485 1.578-1.047 2.203L.609-.375C.5-.265.5-.235.5 0h3.703l.266-1.734h-.235C4.172-1.438 4.11-1 4-.844c-.063.078-.719.078-.938.078zm0 0"/></symbol><symbol overflow="visible" id="q"><path d="M.563-3.406C.563-1.344 2.171.219 4.03.219c1.625 0 2.594-1.39 2.594-2.547 0-.094 0-.172-.125-.172-.11 0-.11.063-.125.172C6.297-.906 5.235-.094 4.141-.094c-.61 0-2.563-.328-2.563-3.312 0-2.969 1.953-3.313 2.563-3.313 1.078 0 1.968.907 2.171 2.36.016.14.016.171.157.171.156 0 .156-.03.156-.234v-2.36c0-.171 0-.25-.11-.25-.03 0-.077 0-.156.126l-.5.734c-.359-.36-.875-.86-1.828-.86-1.875 0-3.468 1.595-3.468 3.626zm0 0"/></symbol><symbol overflow="visible" id="p"><path d="M3.688-1.484c0-.875-.75-1.625-1.704-1.625-.968 0-1.718.75-1.718 1.625 0 .859.765 1.546 1.718 1.546.938 0 1.704-.687 1.704-1.546zM1.984-.156c-.265 0-.64-.078-.875-.422-.187-.281-.203-.64-.203-.969 0-.297 0-.719.25-1.016.172-.203.469-.343.828-.343.407 0 .704.187.86.406.187.266.203.625.203.953 0 .328-.016.703-.219.984-.187.266-.5.407-.844.407zm0 0"/></symbol></defs><use height="744.094" width="1052.362" xlink:href="#m" x="223.432" y="134.765"/><use height="744.094" width="1052.362" xlink:href="#n" x="231.181" y="134.765"/><use height="744.094" width="1052.362" xlink:href="#o" x="236.162" y="134.765"/><g><use height="744.094" width="1052.362" xlink:href="#p" x="242.804" y="131.149"/></g><g><use height="744.094" width="1052.362" xlink:href="#q" x="247.273" y="134.765"/></g></g><path fill="#e6e6e6" stroke="#000" d="M773.471 199.332h13.013v355.212h-13.013z"/><path fill="url(#r)" stroke="#000" d="M773.471 507.6h13.013v355.212h-13.013z" transform="translate(0 -308.268)"/><g fill="#b3b3b3"><path d="M786.483 199.332h68.6v355.213h-68.6z"/><path d="M786.483 554.544V199.332M855.082 554.544V199.332M786.483 221.002h69.113M786.483 547.884h69.113" stroke="#000" stroke-width="3.00015053"/><g stroke="#000" stroke-width="3.847"><path d="M128.571 245.248h74.286M128.571 290.703h74.286M128.571 336.157h74.286M128.571 381.612h74.286M128.571 427.066h74.286M128.571 472.52h74.286M128.571 517.975h74.286M128.571 563.43h74.286M128.571 608.884h74.286M128.571 654.339h74.286" transform="matrix(.93036 0 0 .65377 666.866 90.384)"/></g><path d="M821.04 221.002v29.716M821.04 280.435v29.716M821.04 339.868v29.717M821.04 399.301v29.717M821.04 458.734v29.717M821.04 518.168v29.716" stroke="#000" stroke-width="3.00015053"/></g><g ns0:text="$\\unit[-15]{^{\\rm{o}}C}$" ns0:preamble="/home/waldgeist/data/sphinx/test.tex"><use height="744.094" width="1052.362" xlink:href="#c" x="223.432" y="134.765" transform="translate(-232.805 58.156) scale(3.72817)"/><g transform="translate(-232.805 58.156) scale(3.72817)"><use height="744.094" width="1052.362" xlink:href="#d" x="231.181" y="134.765"/><use height="744.094" width="1052.362" xlink:href="#e" x="236.162" y="134.765"/></g><use height="744.094" width="1052.362" xlink:href="#f" x="242.804" y="131.149" transform="translate(-232.805 58.156) scale(3.72817)"/><use height="744.094" width="1052.362" xlink:href="#g" x="247.273" y="134.765" transform="translate(-232.805 58.156) scale(3.72817)"/></g><g ns0:preamble="/home/waldgeist/data/sphinx/test.tex" ns0:text="$\\unit[+20]{^{\\rm{o}}C}$"><g transform="translate(75.648 -293.518) scale(3.72817)"><use y="134.765" x="223.432" xlink:href="#h" width="1052.362" height="744.094"/><use y="134.765" x="231.181" xlink:href="#i" width="1052.362" height="744.094"/><use y="134.765" x="236.162" xlink:href="#j" width="1052.362" height="744.094"/></g><use y="131.149" x="242.804" xlink:href="#k" width="1052.362" height="744.094" transform="translate(75.648 -293.518) scale(3.72817)"/><use y="134.765" x="247.273" xlink:href="#l" width="1052.362" height="744.094" transform="translate(75.648 -293.518) scale(3.72817)"/></g><path d="M773.47 547.884l13.013-237.733M786.483 310.151L855 228.964M727.004 547.884h46.467M854.999 228.844h3.4c11.578 0 12.447-29.097 25.373-29.097h17.777" fill="none" stroke="#d40000" stroke-width="6" stroke-linecap="round"/><g transform="translate(36.082 -264.061) scale(3.72817)" ns0:preamble="/home/waldgeist/data/sphinx/test.tex" ns0:text="$\\unit[+17]{^{\\rm{o}}C}$"><defs><symbol id="s" overflow="visible"><path d="M4.078-2.297H6.86c.141 0 .329 0 .329-.203 0-.188-.188-.188-.329-.188H4.08v-2.796c0-.141 0-.329-.204-.329-.203 0-.203.188-.203.329v2.796H.89c-.141 0-.329 0-.329.188 0 .203.188.203.329.203h2.78V.5c0 .14 0 .328.204.328.203 0 .203-.187.203-.328zm0 0"/></symbol><symbol id="t" overflow="visible"><path d="M2.938-6.375c0-.25 0-.266-.235-.266C2.078-6 1.203-6 .891-6v.313c.203 0 .78 0 1.296-.266v5.172c0 .36-.03.469-.921.469H.953V0c.344-.031 1.203-.031 1.61-.031.39 0 1.265 0 1.609.031v-.313h-.313c-.906 0-.921-.109-.921-.468zm0 0"/></symbol><symbol id="u" overflow="visible"><path d="M4.75-6.078c.078-.11.078-.125.078-.344H2.406c-1.203 0-1.234-.125-1.265-.312H.89L.562-4.688h.25c.032-.156.11-.78.25-.906.063-.062.844-.062.97-.062h2.062c-.11.156-.89 1.25-1.11 1.578C2.078-2.734 1.75-1.344 1.75-.328c0 .094 0 .547.469.547.453 0 .453-.453.453-.547v-.516c0-.547.031-1.094.11-1.625.046-.234.171-1.094.624-1.703zm0 0"/></symbol><symbol id="w" overflow="visible"><path d="M.563-3.406C.563-1.344 2.171.219 4.03.219c1.625 0 2.594-1.39 2.594-2.547 0-.094 0-.172-.125-.172-.11 0-.11.063-.125.172C6.297-.906 5.235-.094 4.141-.094c-.61 0-2.563-.328-2.563-3.312 0-2.969 1.953-3.313 2.563-3.313 1.078 0 1.968.907 2.171 2.36.016.14.016.171.157.171.156 0 .156-.03.156-.234v-2.36c0-.171 0-.25-.11-.25-.03 0-.077 0-.156.126l-.5.734c-.359-.36-.875-.86-1.828-.86-1.875 0-3.468 1.595-3.468 3.626zm0 0"/></symbol><symbol id="v" overflow="visible"><path d="M3.688-1.484c0-.875-.75-1.625-1.704-1.625-.968 0-1.718.75-1.718 1.625 0 .859.765 1.546 1.718 1.546.938 0 1.704-.687 1.704-1.546zM1.984-.156c-.265 0-.64-.078-.875-.422-.187-.281-.203-.64-.203-.969 0-.297 0-.719.25-1.016.172-.203.469-.343.828-.343.407 0 .704.187.86.406.187.266.203.625.203.953 0 .328-.016.703-.219.984-.187.266-.5.407-.844.407zm0 0"/></symbol></defs><use y="134.765" x="223.432" xlink:href="#s" width="1052.362" height="744.094"/><use y="134.765" x="231.181" xlink:href="#t" width="1052.362" height="744.094"/><use y="134.765" x="236.162" xlink:href="#u" width="1052.362" height="744.094"/><g><use y="131.149" x="242.804" xlink:href="#v" width="1052.362" height="744.094"/></g><g><use y="134.765" x="247.273" xlink:href="#w" width="1052.362" height="744.094"/></g></g><path d="M526.181 194.19v355.714" fill="gray" stroke="gray" stroke-width="1.5"/></svg>