<svg xmlns="http://www.w3.org/2000/svg" width="744.094" height="1052.362"><title>Geschwindigkeitsverteilung von Gasteilchen in einem wuerfelfoermigen Behaelter</title><defs><marker orient="auto" id="m" overflow="visible"><path d="M-5.231-2.42L1.324-.01-5.23 2.401c1.047-1.423 1.041-3.37 0-4.821z" fill-rule="evenodd" stroke-width=".375" stroke-linejoin="round" stroke="#00f" fill="#00f"/></marker><marker id="l" orient="auto" overflow="visible"><path d="M-5.231-2.42L1.324-.01-5.23 2.401c1.047-1.423 1.041-3.37 0-4.821z" fill-rule="evenodd" stroke-width=".375" stroke-linejoin="round" stroke="#00f" fill="#00f"/></marker><marker id="k" orient="auto" overflow="visible"><path d="M-5.231-2.42L1.324-.01-5.23 2.401c1.047-1.423 1.041-3.37 0-4.821z" fill-rule="evenodd" stroke-width=".375" stroke-linejoin="round" stroke="#00f" fill="#00f"/></marker><marker id="j" orient="auto" overflow="visible"><path d="M-5.231-2.42L1.324-.01-5.23 2.401c1.047-1.423 1.041-3.37 0-4.821z" fill-rule="evenodd" stroke-width=".375" stroke-linejoin="round" stroke="#00f" fill="#00f"/></marker><marker id="i" orient="auto" overflow="visible"><path d="M-5.231-2.42L1.324-.01-5.23 2.401c1.047-1.423 1.041-3.37 0-4.821z" fill-rule="evenodd" stroke-width=".375" stroke-linejoin="round" stroke="#00f" fill="#00f"/></marker><marker orient="auto" id="g" overflow="visible"><path d="M-5.231-2.42L1.324-.01-5.23 2.401c1.047-1.423 1.041-3.37 0-4.821z" fill-rule="evenodd" stroke-width=".375" stroke-linejoin="round" stroke="#00f" fill="#00f"/></marker><marker id="h" orient="auto" overflow="visible"><path d="M-5.231-2.42L1.324-.01-5.23 2.401c1.047-1.423 1.041-3.37 0-4.821z" fill-rule="evenodd" stroke-width=".375" stroke-linejoin="round" stroke="#00f" fill="#00f"/></marker><marker id="c" orient="auto" overflow="visible"><path d="M-5.231-2.42L1.324-.01-5.23 2.401c1.047-1.423 1.041-3.37 0-4.821z" fill-rule="evenodd" stroke-width=".375" stroke-linejoin="round" stroke="#00f" fill="#00f"/></marker><marker orient="auto" id="f" overflow="visible"><path d="M-5.231-2.42L1.324-.01-5.23 2.401c1.047-1.423 1.041-3.37 0-4.821z" fill-rule="evenodd" stroke-width=".375" stroke-linejoin="round" stroke="#00f" fill="#00f"/></marker><marker id="e" orient="auto" overflow="visible"><path d="M-5.231-2.42L1.324-.01-5.23 2.401c1.047-1.423 1.041-3.37 0-4.821z" fill-rule="evenodd" stroke-width=".375" stroke-linejoin="round" stroke="#00f" fill="#00f"/></marker><marker orient="auto" id="d" overflow="visible"><path d="M-5.231-2.42L1.324-.01-5.23 2.401c1.047-1.423 1.041-3.37 0-4.821z" fill-rule="evenodd" stroke-width=".375" stroke-linejoin="round" stroke="#00f" fill="#00f"/></marker><marker orient="auto" id="b" overflow="visible"><path d="M-5.231-2.42L1.324-.01-5.23 2.401c1.047-1.423 1.041-3.37 0-4.821z" fill-rule="evenodd" stroke-width=".375" stroke-linejoin="round" stroke="#00f" fill="#00f"/></marker><linearGradient id="a"><stop offset="0" stop-color="#aa8f72"/><stop offset="1" stop-color="#deaa87"/></linearGradient></defs><path style="marker:none" color="#000" overflow="visible" fill="#fff" stroke="#fff" d="M26.55 696.263V356.099h690.994v340.164z"/><path style="isolation:auto;mix-blend-mode:normal" d="M218.935 459.047l109.016-62.94M416.144 459.047l109.016-62.94M416.144 656.256l109.016-62.94M218.935 459.047h197.209M218.935 459.047v197.209M416.144 459.047v197.209M218.935 656.256h197.209M327.951 396.106H525.16M525.16 396.106v197.21" color="#000" overflow="visible" fill="none" stroke="#333" stroke-width="2" stroke-linecap="round" stroke-linejoin="round"/><circle cx="295.847" cy="528.036" r="4.021" fill="#5fbcd3" stroke="#2c89a0" stroke-width=".667" stroke-linecap="round" stroke-linejoin="round"/><path style="isolation:auto;mix-blend-mode:normal" d="M291.826 528.036l-22.071.638" color="#000" overflow="visible" fill="#00f" fill-rule="evenodd" stroke="#00f" stroke-linecap="round" stroke-linejoin="round" marker-end="url(#b)"/><path d="M271.23 589.005l13.698-17.318" style="isolation:auto;mix-blend-mode:normal" color="#000" overflow="visible" fill="#00f" fill-rule="evenodd" stroke="#00f" stroke-linecap="round" stroke-linejoin="round" marker-end="url(#c)"/><circle r="4.021" cy="-608.277" cx="224.701" transform="rotate(135)" fill="#5fbcd3" stroke="#2c89a0" stroke-width=".667" stroke-linecap="round" stroke-linejoin="round"/><circle transform="rotate(60)" cx="704.997" cy="-12.723" r="4.021" fill="#5fbcd3" stroke="#2c89a0" stroke-width=".667" stroke-linecap="round" stroke-linejoin="round"/><circle r="4.021" cy="668.875" cx="154.497" transform="rotate(-15)" fill="#5fbcd3" stroke="#2c89a0" stroke-width=".667" stroke-linecap="round" stroke-linejoin="round"/><path style="isolation:auto;mix-blend-mode:normal" d="M374.27 476.664l10.966 16.283" color="#000" overflow="visible" fill="#00f" fill-rule="evenodd" stroke="#00f" stroke-width=".801" stroke-linecap="round" stroke-linejoin="round" marker-end="url(#d)"/><circle transform="rotate(135)" cx="72.404" cy="-597.68" r="4.021" fill="#5fbcd3" stroke="#2c89a0" stroke-width=".667" stroke-linecap="round" stroke-linejoin="round"/><circle r="4.021" cy="699.601" cx="207.576" transform="rotate(-15)" fill="#5fbcd3" stroke="#2c89a0" stroke-width=".667" stroke-linecap="round" stroke-linejoin="round"/><path d="M377.689 623.079l-20.522 8.148" style="isolation:auto;mix-blend-mode:normal" color="#000" overflow="visible" fill="#00f" fill-rule="evenodd" stroke="#00f" stroke-linecap="round" stroke-linejoin="round" marker-end="url(#e)"/><path style="isolation:auto;mix-blend-mode:normal" d="M361.506 600.702l-13.182-17.715" color="#000" overflow="visible" fill="#00f" fill-rule="evenodd" stroke="#00f" stroke-linecap="round" stroke-linejoin="round" marker-end="url(#f)"/><path d="M322.35 606.096l-13.698 17.318" style="isolation:auto;mix-blend-mode:normal" color="#000" overflow="visible" fill="#00f" fill-rule="evenodd" stroke="#00f" stroke-linecap="round" stroke-linejoin="round" marker-end="url(#g)"/><circle transform="scale(-1)" cx="-444.251" cy="-584.635" r="4.021" fill="#5fbcd3" stroke="#2c89a0" stroke-width=".667" stroke-linecap="round" stroke-linejoin="round"/><path style="isolation:auto;mix-blend-mode:normal" d="M444.25 584.635l17.715-13.182" color="#000" overflow="visible" fill="#00f" fill-rule="evenodd" stroke="#00f" stroke-linecap="round" stroke-linejoin="round" marker-end="url(#h)"/><path style="isolation:auto;mix-blend-mode:normal" d="M327.951 396.106v197.21M218.935 656.256l109.016-62.94M327.951 593.315H525.16" color="#000" overflow="visible" fill="none" stroke="#333" stroke-width="2" stroke-linecap="round" stroke-linejoin="round" stroke-dasharray="2,4"/><circle transform="rotate(-130)" cx="-637.771" cy="-82.289" r="4.021" fill="#5fbcd3" stroke="#2c89a0" stroke-width=".667" stroke-linecap="round" stroke-linejoin="round"/><path style="isolation:auto;mix-blend-mode:normal" d="M351.499 542.535l21.484 5.097" color="#000" overflow="visible" fill="#00f" fill-rule="evenodd" stroke="#00f" stroke-linecap="round" stroke-linejoin="round" marker-end="url(#i)"/><path d="M453.59 521.293l-9.504-17.177" style="isolation:auto;mix-blend-mode:normal" color="#000" overflow="visible" fill="#00f" fill-rule="evenodd" stroke="#00f" stroke-width=".801" stroke-linecap="round" stroke-linejoin="round" marker-end="url(#j)"/><circle r="4.021" cy="690.896" cx="12.39" transform="rotate(-40)" fill="#5fbcd3" stroke="#2c89a0" stroke-width=".667" stroke-linecap="round" stroke-linejoin="round"/><path d="M298.929 485.093l18.566-6.377" style="isolation:auto;mix-blend-mode:normal" color="#000" overflow="visible" fill="#00f" fill-rule="evenodd" stroke="#00f" stroke-width=".801" stroke-linecap="round" stroke-linejoin="round" marker-end="url(#k)"/><circle r="4.021" cy="-554.387" cx="135.659" transform="rotate(135)" fill="#5fbcd3" stroke="#2c89a0" stroke-width=".667" stroke-linecap="round" stroke-linejoin="round"/><path d="M462.274 472.325l11.55-15.873" style="isolation:auto;mix-blend-mode:normal" color="#000" overflow="visible" fill="#00f" fill-rule="evenodd" stroke="#00f" stroke-width=".801" stroke-linecap="round" stroke-linejoin="round" marker-end="url(#l)"/><circle r="4.021" cy="-50.517" cx="658.966" transform="rotate(50)" fill="#5fbcd3" stroke="#2c89a0" stroke-width=".667" stroke-linecap="round" stroke-linejoin="round"/><circle r="4.021" cy="-631.498" cx="-185.895" transform="rotate(160)" fill="#5fbcd3" stroke="#2c89a0" stroke-width=".667" stroke-linecap="round" stroke-linejoin="round"/><path d="M393.252 525.896l12.137-18.446" style="isolation:auto;mix-blend-mode:normal" color="#000" overflow="visible" fill="#00f" fill-rule="evenodd" stroke="#00f" stroke-linecap="round" stroke-linejoin="round" marker-end="url(#m)"/></svg>