<svg xmlns:ns0="http://www.iki.fi/pav/software/textext/" xmlns="http://www.w3.org/2000/svg" xmlns:xlink="http://www.w3.org/1999/xlink" width="210mm" height="297mm"><title>Maxwell-Verteilung der Molekuelgeschwindigkeiten von Stickstoff</title><defs><marker id="a" orient="auto" overflow="visible"><path transform="rotate(180) scale(.6)" d="M8.719 4.034L-2.207.016 8.719-4.002c-1.746 2.372-1.736 5.618 0 8.036z" fill-rule="evenodd" stroke-width=".625" stroke-linejoin="round"/></marker></defs><path style="marker:none" color="#000" fill="#fff" stroke="#fff" stroke-width="6" stroke-linecap="round" overflow="visible" d="M33.308 298.399h677.478v455.564H33.308z"/><path d="M185.822 672.76V324.39" fill="none" stroke="#000" stroke-width="2" stroke-linecap="round" marker-end="url(#a)"/><g transform="matrix(2.88106 0 0 2.88106 -152.54 230.59)" fill="green"><use y="134.765" x="231.736" xlink:href="#textext-082fa4b4-3" width="744.094" height="1052.362"/><use y="134.765" x="231.736" xlink:href="#textext-082fa4b4-3" width="744.094" height="1052.362"/><g ns0:preamble="/home/waldgeist/data/sphinx/test.tex" ns0:text="$\\Delta \\vec{r} = \\vec{r}_{\\rm{2}} - \\vec{r}_{\\rm{1}} $"><use y="134.765" x="223.432" xlink:href="#textext-082fa4b4-0" width="744.094" height="1052.362"/><use y="134.765" x="231.417" xlink:href="#textext-082fa4b4-2" width="744.094" height="1052.362"/><use y="134.765" x="231.736" xlink:href="#textext-082fa4b4-3" width="744.094" height="1052.362"/><use y="134.765" x="239.273" xlink:href="#textext-082fa4b4-1" width="744.094" height="1052.362"/><use y="134.765" x="249.472" xlink:href="#textext-082fa4b4-2" width="744.094" height="1052.362"/><use y="134.765" x="249.791" xlink:href="#textext-082fa4b4-3" width="744.094" height="1052.362"/><use y="136.259" x="254.284" xlink:href="#textext-082fa4b4-4" width="744.094" height="1052.362"/><use y="134.765" x="260.967" xlink:href="#textext-082fa4b4-6" width="744.094" height="1052.362"/><use y="134.765" x="270.612" xlink:href="#textext-082fa4b4-2" width="744.094" height="1052.362"/><use y="134.765" x="270.931" xlink:href="#textext-082fa4b4-3" width="744.094" height="1052.362"/><use y="136.259" x="275.425" xlink:href="#textext-082fa4b4-5" width="744.094" height="1052.362"/></g><g ns0:preamble="/home/waldgeist/data/sphinx/test.tex" ns0:text="$\\Delta \\vec{r} = \\vec{r}_{\\rm{2}} - \\vec{r}_{\\rm{1}} $"><use y="134.765" x="223.432" xlink:href="#textext-082fa4b4-0" width="744.094" height="1052.362"/><use y="134.765" x="231.417" xlink:href="#textext-082fa4b4-2" width="744.094" height="1052.362"/><use y="134.765" x="231.736" xlink:href="#textext-082fa4b4-3" width="744.094" height="1052.362"/><use y="134.765" x="239.273" xlink:href="#textext-082fa4b4-1" width="744.094" height="1052.362"/><use y="134.765" x="249.472" xlink:href="#textext-082fa4b4-2" width="744.094" height="1052.362"/><use y="134.765" x="249.791" xlink:href="#textext-082fa4b4-3" width="744.094" height="1052.362"/><use y="136.259" x="254.284" xlink:href="#textext-082fa4b4-4" width="744.094" height="1052.362"/><use y="134.765" x="260.967" xlink:href="#textext-082fa4b4-6" width="744.094" height="1052.362"/><use y="134.765" x="270.612" xlink:href="#textext-082fa4b4-2" width="744.094" height="1052.362"/><use y="134.765" x="270.931" xlink:href="#textext-082fa4b4-3" width="744.094" height="1052.362"/><use y="136.259" x="275.425" xlink:href="#textext-082fa4b4-5" width="744.094" height="1052.362"/></g><g ns0:preamble="/home/waldgeist/data/sphinx/test.tex" ns0:text="$\\Delta \\vec{r} = \\vec{r}_{\\rm{2}} - \\vec{r}_{\\rm{1}} $"><use y="134.765" x="223.432" xlink:href="#textext-082fa4b4-0" width="744.094" height="1052.362"/><use y="134.765" x="231.417" xlink:href="#textext-082fa4b4-2" width="744.094" height="1052.362"/><use y="134.765" x="231.736" xlink:href="#textext-082fa4b4-3" width="744.094" height="1052.362"/><use y="134.765" x="239.273" xlink:href="#textext-082fa4b4-1" width="744.094" height="1052.362"/><use y="134.765" x="249.472" xlink:href="#textext-082fa4b4-2" width="744.094" height="1052.362"/><use y="134.765" x="249.791" xlink:href="#textext-082fa4b4-3" width="744.094" height="1052.362"/><use y="136.259" x="254.284" xlink:href="#textext-082fa4b4-4" width="744.094" height="1052.362"/><use y="134.765" x="260.967" xlink:href="#textext-082fa4b4-6" width="744.094" height="1052.362"/><use y="134.765" x="270.612" xlink:href="#textext-082fa4b4-2" width="744.094" height="1052.362"/><use y="134.765" x="270.931" xlink:href="#textext-082fa4b4-3" width="744.094" height="1052.362"/><use y="136.259" x="275.425" xlink:href="#textext-082fa4b4-5" width="744.094" height="1052.362"/></g></g><g transform="matrix(2.88106 0 0 2.88106 230.226 1018.375)" fill="green"><use y="134.765" x="231.736" xlink:href="#textext-082fa4b4-3" width="744.094" height="1052.362"/><use y="134.765" x="231.736" xlink:href="#textext-082fa4b4-3" width="744.094" height="1052.362"/><g ns0:preamble="/home/waldgeist/data/sphinx/test.tex" ns0:text="$\\Delta \\vec{r} = \\vec{r}_{\\rm{2}} - \\vec{r}_{\\rm{1}} $"><use y="134.765" x="223.432" xlink:href="#textext-082fa4b4-0" width="744.094" height="1052.362"/><use y="134.765" x="231.417" xlink:href="#textext-082fa4b4-2" width="744.094" height="1052.362"/><use y="134.765" x="231.736" xlink:href="#textext-082fa4b4-3" width="744.094" height="1052.362"/><use y="134.765" x="239.273" xlink:href="#textext-082fa4b4-1" width="744.094" height="1052.362"/><use y="134.765" x="249.472" xlink:href="#textext-082fa4b4-2" width="744.094" height="1052.362"/><use y="134.765" x="249.791" xlink:href="#textext-082fa4b4-3" width="744.094" height="1052.362"/><use y="136.259" x="254.284" xlink:href="#textext-082fa4b4-4" width="744.094" height="1052.362"/><use y="134.765" x="260.967" xlink:href="#textext-082fa4b4-6" width="744.094" height="1052.362"/><use y="134.765" x="270.612" xlink:href="#textext-082fa4b4-2" width="744.094" height="1052.362"/><use y="134.765" x="270.931" xlink:href="#textext-082fa4b4-3" width="744.094" height="1052.362"/><use y="136.259" x="275.425" xlink:href="#textext-082fa4b4-5" width="744.094" height="1052.362"/></g><g ns0:preamble="/home/waldgeist/data/sphinx/test.tex" ns0:text="$\\Delta \\vec{r} = \\vec{r}_{\\rm{2}} - \\vec{r}_{\\rm{1}} $"><use y="134.765" x="223.432" xlink:href="#textext-082fa4b4-0" width="744.094" height="1052.362"/><use y="134.765" x="231.417" xlink:href="#textext-082fa4b4-2" width="744.094" height="1052.362"/><use y="134.765" x="231.736" xlink:href="#textext-082fa4b4-3" width="744.094" height="1052.362"/><use y="134.765" x="239.273" xlink:href="#textext-082fa4b4-1" width="744.094" height="1052.362"/><use y="134.765" x="249.472" xlink:href="#textext-082fa4b4-2" width="744.094" height="1052.362"/><use y="134.765" x="249.791" xlink:href="#textext-082fa4b4-3" width="744.094" height="1052.362"/><use y="136.259" x="254.284" xlink:href="#textext-082fa4b4-4" width="744.094" height="1052.362"/><use y="134.765" x="260.967" xlink:href="#textext-082fa4b4-6" width="744.094" height="1052.362"/><use y="134.765" x="270.612" xlink:href="#textext-082fa4b4-2" width="744.094" height="1052.362"/><use y="134.765" x="270.931" xlink:href="#textext-082fa4b4-3" width="744.094" height="1052.362"/><use y="136.259" x="275.425" xlink:href="#textext-082fa4b4-5" width="744.094" height="1052.362"/></g><g ns0:preamble="/home/waldgeist/data/sphinx/test.tex" ns0:text="$\\Delta \\vec{r} = \\vec{r}_{\\rm{2}} - \\vec{r}_{\\rm{1}} $"><use y="134.765" x="223.432" xlink:href="#textext-082fa4b4-0" width="744.094" height="1052.362"/><use y="134.765" x="231.417" xlink:href="#textext-082fa4b4-2" width="744.094" height="1052.362"/><use y="134.765" x="231.736" xlink:href="#textext-082fa4b4-3" width="744.094" height="1052.362"/><use y="134.765" x="239.273" xlink:href="#textext-082fa4b4-1" width="744.094" height="1052.362"/><use y="134.765" x="249.472" xlink:href="#textext-082fa4b4-2" width="744.094" height="1052.362"/><use y="134.765" x="249.791" xlink:href="#textext-082fa4b4-3" width="744.094" height="1052.362"/><use y="136.259" x="254.284" xlink:href="#textext-082fa4b4-4" width="744.094" height="1052.362"/><use y="134.765" x="260.967" xlink:href="#textext-082fa4b4-6" width="744.094" height="1052.362"/><use y="134.765" x="270.612" xlink:href="#textext-082fa4b4-2" width="744.094" height="1052.362"/><use y="134.765" x="270.931" xlink:href="#textext-082fa4b4-3" width="744.094" height="1052.362"/><use y="136.259" x="275.425" xlink:href="#textext-082fa4b4-5" width="744.094" height="1052.362"/></g></g><path d="M174.335 661.729h490.719" fill="none" stroke="#000" stroke-width="2" stroke-linecap="round" marker-end="url(#a)"/><g transform="matrix(2.88106 0 0 -2.88106 -152.54 190.122)" fill="green"><use height="1052.362" width="744.094" xlink:href="#textext-082fa4b4-3" x="231.736" y="134.765"/><use height="1052.362" width="744.094" xlink:href="#textext-082fa4b4-3" x="231.736" y="134.765"/><g ns0:text="$\\Delta \\vec{r} = \\vec{r}_{\\rm{2}} - \\vec{r}_{\\rm{1}} $" ns0:preamble="/home/waldgeist/data/sphinx/test.tex"><use height="1052.362" width="744.094" xlink:href="#textext-082fa4b4-0" x="223.432" y="134.765"/><use height="1052.362" width="744.094" xlink:href="#textext-082fa4b4-2" x="231.417" y="134.765"/><use height="1052.362" width="744.094" xlink:href="#textext-082fa4b4-3" x="231.736" y="134.765"/><use height="1052.362" width="744.094" xlink:href="#textext-082fa4b4-1" x="239.273" y="134.765"/><use height="1052.362" width="744.094" xlink:href="#textext-082fa4b4-2" x="249.472" y="134.765"/><use height="1052.362" width="744.094" xlink:href="#textext-082fa4b4-3" x="249.791" y="134.765"/><use height="1052.362" width="744.094" xlink:href="#textext-082fa4b4-4" x="254.284" y="136.259"/><use height="1052.362" width="744.094" xlink:href="#textext-082fa4b4-6" x="260.967" y="134.765"/><use height="1052.362" width="744.094" xlink:href="#textext-082fa4b4-2" x="270.612" y="134.765"/><use height="1052.362" width="744.094" xlink:href="#textext-082fa4b4-3" x="270.931" y="134.765"/><use height="1052.362" width="744.094" xlink:href="#textext-082fa4b4-5" x="275.425" y="136.259"/></g><g ns0:text="$\\Delta \\vec{r} = \\vec{r}_{\\rm{2}} - \\vec{r}_{\\rm{1}} $" ns0:preamble="/home/waldgeist/data/sphinx/test.tex"><use height="1052.362" width="744.094" xlink:href="#textext-082fa4b4-0" x="223.432" y="134.765"/><use height="1052.362" width="744.094" xlink:href="#textext-082fa4b4-2" x="231.417" y="134.765"/><use height="1052.362" width="744.094" xlink:href="#textext-082fa4b4-3" x="231.736" y="134.765"/><use height="1052.362" width="744.094" xlink:href="#textext-082fa4b4-1" x="239.273" y="134.765"/><use height="1052.362" width="744.094" xlink:href="#textext-082fa4b4-2" x="249.472" y="134.765"/><use height="1052.362" width="744.094" xlink:href="#textext-082fa4b4-3" x="249.791" y="134.765"/><use height="1052.362" width="744.094" xlink:href="#textext-082fa4b4-4" x="254.284" y="136.259"/><use height="1052.362" width="744.094" xlink:href="#textext-082fa4b4-6" x="260.967" y="134.765"/><use height="1052.362" width="744.094" xlink:href="#textext-082fa4b4-2" x="270.612" y="134.765"/><use height="1052.362" width="744.094" xlink:href="#textext-082fa4b4-3" x="270.931" y="134.765"/><use height="1052.362" width="744.094" xlink:href="#textext-082fa4b4-5" x="275.425" y="136.259"/></g><g ns0:text="$\\Delta \\vec{r} = \\vec{r}_{\\rm{2}} - \\vec{r}_{\\rm{1}} $" ns0:preamble="/home/waldgeist/data/sphinx/test.tex"><use height="1052.362" width="744.094" xlink:href="#textext-082fa4b4-0" x="223.432" y="134.765"/><use height="1052.362" width="744.094" xlink:href="#textext-082fa4b4-2" x="231.417" y="134.765"/><use height="1052.362" width="744.094" xlink:href="#textext-082fa4b4-3" x="231.736" y="134.765"/><use height="1052.362" width="744.094" xlink:href="#textext-082fa4b4-1" x="239.273" y="134.765"/><use height="1052.362" width="744.094" xlink:href="#textext-082fa4b4-2" x="249.472" y="134.765"/><use height="1052.362" width="744.094" xlink:href="#textext-082fa4b4-3" x="249.791" y="134.765"/><use height="1052.362" width="744.094" xlink:href="#textext-082fa4b4-4" x="254.284" y="136.259"/><use height="1052.362" width="744.094" xlink:href="#textext-082fa4b4-6" x="260.967" y="134.765"/><use height="1052.362" width="744.094" xlink:href="#textext-082fa4b4-2" x="270.612" y="134.765"/><use height="1052.362" width="744.094" xlink:href="#textext-082fa4b4-3" x="270.931" y="134.765"/><use height="1052.362" width="744.094" xlink:href="#textext-082fa4b4-5" x="275.425" y="136.259"/></g></g><g transform="matrix(2.88106 0 0 -2.88106 230.226 -597.663)" fill="green"><use height="1052.362" width="744.094" xlink:href="#textext-082fa4b4-3" x="231.736" y="134.765"/><use height="1052.362" width="744.094" xlink:href="#textext-082fa4b4-3" x="231.736" y="134.765"/><g ns0:text="$\\Delta \\vec{r} = \\vec{r}_{\\rm{2}} - \\vec{r}_{\\rm{1}} $" ns0:preamble="/home/waldgeist/data/sphinx/test.tex"><use height="1052.362" width="744.094" xlink:href="#textext-082fa4b4-0" x="223.432" y="134.765"/><use height="1052.362" width="744.094" xlink:href="#textext-082fa4b4-2" x="231.417" y="134.765"/><use height="1052.362" width="744.094" xlink:href="#textext-082fa4b4-3" x="231.736" y="134.765"/><use height="1052.362" width="744.094" xlink:href="#textext-082fa4b4-1" x="239.273" y="134.765"/><use height="1052.362" width="744.094" xlink:href="#textext-082fa4b4-2" x="249.472" y="134.765"/><use height="1052.362" width="744.094" xlink:href="#textext-082fa4b4-3" x="249.791" y="134.765"/><use height="1052.362" width="744.094" xlink:href="#textext-082fa4b4-4" x="254.284" y="136.259"/><use height="1052.362" width="744.094" xlink:href="#textext-082fa4b4-6" x="260.967" y="134.765"/><use height="1052.362" width="744.094" xlink:href="#textext-082fa4b4-2" x="270.612" y="134.765"/><use height="1052.362" width="744.094" xlink:href="#textext-082fa4b4-3" x="270.931" y="134.765"/><use height="1052.362" width="744.094" xlink:href="#textext-082fa4b4-5" x="275.425" y="136.259"/></g><g ns0:text="$\\Delta \\vec{r} = \\vec{r}_{\\rm{2}} - \\vec{r}_{\\rm{1}} $" ns0:preamble="/home/waldgeist/data/sphinx/test.tex"><use height="1052.362" width="744.094" xlink:href="#textext-082fa4b4-0" x="223.432" y="134.765"/><use height="1052.362" width="744.094" xlink:href="#textext-082fa4b4-2" x="231.417" y="134.765"/><use height="1052.362" width="744.094" xlink:href="#textext-082fa4b4-3" x="231.736" y="134.765"/><use height="1052.362" width="744.094" xlink:href="#textext-082fa4b4-1" x="239.273" y="134.765"/><use height="1052.362" width="744.094" xlink:href="#textext-082fa4b4-2" x="249.472" y="134.765"/><use height="1052.362" width="744.094" xlink:href="#textext-082fa4b4-3" x="249.791" y="134.765"/><use height="1052.362" width="744.094" xlink:href="#textext-082fa4b4-4" x="254.284" y="136.259"/><use height="1052.362" width="744.094" xlink:href="#textext-082fa4b4-6" x="260.967" y="134.765"/><use height="1052.362" width="744.094" xlink:href="#textext-082fa4b4-2" x="270.612" y="134.765"/><use height="1052.362" width="744.094" xlink:href="#textext-082fa4b4-3" x="270.931" y="134.765"/><use height="1052.362" width="744.094" xlink:href="#textext-082fa4b4-5" x="275.425" y="136.259"/></g><g ns0:text="$\\Delta \\vec{r} = \\vec{r}_{\\rm{2}} - \\vec{r}_{\\rm{1}} $" ns0:preamble="/home/waldgeist/data/sphinx/test.tex"><use height="1052.362" width="744.094" xlink:href="#textext-082fa4b4-0" x="223.432" y="134.765"/><use height="1052.362" width="744.094" xlink:href="#textext-082fa4b4-2" x="231.417" y="134.765"/><use height="1052.362" width="744.094" xlink:href="#textext-082fa4b4-3" x="231.736" y="134.765"/><use height="1052.362" width="744.094" xlink:href="#textext-082fa4b4-1" x="239.273" y="134.765"/><use height="1052.362" width="744.094" xlink:href="#textext-082fa4b4-2" x="249.472" y="134.765"/><use height="1052.362" width="744.094" xlink:href="#textext-082fa4b4-3" x="249.791" y="134.765"/><use height="1052.362" width="744.094" xlink:href="#textext-082fa4b4-4" x="254.284" y="136.259"/><use height="1052.362" width="744.094" xlink:href="#textext-082fa4b4-6" x="260.967" y="134.765"/><use height="1052.362" width="744.094" xlink:href="#textext-082fa4b4-2" x="270.612" y="134.765"/><use height="1052.362" width="744.094" xlink:href="#textext-082fa4b4-3" x="270.931" y="134.765"/><use height="1052.362" width="744.094" xlink:href="#textext-082fa4b4-5" x="275.425" y="136.259"/></g></g><path d="M186.707 660.341c17.885-54.577 57.44-276.451 81.833-276.142 27.479.348 44.249 257.348 146.829 276.048" fill="none" stroke="#06f" stroke-width="3" stroke-linecap="round"/><g ns0:text="$0$" ns0:preamble="/home/waldgeist/data/sphinx/inkscape-preamble.tex" transform="translate(-431.7 339.36) scale(2.62804)" fill="navy" stroke="#000" stroke-width="1.284"><defs><symbol overflow="visible" id="b"><path d="M4.578-3.188c0-.796-.047-1.593-.39-2.328C3.733-6.484 2.905-6.64 2.5-6.64c-.61 0-1.328.266-1.75 1.188-.313.687-.36 1.469-.36 2.266 0 .75.032 1.64.454 2.406a1.83 1.83 0 0 0 1.64 1c.532 0 1.297-.203 1.735-1.157.312-.687.36-1.468.36-2.25zM2.484 0c-.39 0-.984-.25-1.156-1.203-.11-.594-.11-1.516-.11-2.11 0-.64 0-1.296.079-1.828.187-1.187.937-1.28 1.187-1.28.329 0 .985.187 1.172 1.171.11.563.11 1.313.11 1.938 0 .75 0 1.421-.11 2.062C3.5-.297 2.937 0 2.484 0z" stroke="none"/></symbol></defs><use height="744.094" width="1052.362" xlink:href="#b" x="223.432" y="134.765" fill="#000"/></g><path d="M185.715 660.755c48.06 2.07 73.321-157.586 138.666-156.753 66.836.851 129.753 159.881 237.175 156.121" fill="none" stroke="#59f" stroke-width="3" stroke-linecap="round"/><path d="M177.655 589.6h16.296M177.655 521.813h16.296M177.655 454.025h16.296M177.655 386.237h16.296M287.034 653.562v16.296M383.943 653.562v16.296M480.853 653.562v16.296M577.762 653.562v16.296" fill="none" stroke="#000" stroke-linecap="round"/><g transform="translate(-444.346 -14.794) scale(2.62804)" ns0:preamble="/home/waldgeist/data/sphinx/inkscape-preamble.tex" ns0:text="$H$" fill="navy" stroke="#000" stroke-width="1.284"><defs><symbol id="c" overflow="visible"><path d="M7.61-6.047c.093-.36.109-.453.827-.453.266 0 .344 0 .344-.203 0-.11-.11-.11-.14-.11-.282 0-1 .032-1.282.032-.28 0-.984-.032-1.28-.032-.079 0-.188 0-.188.204 0 .109.093.109.28.109.016 0 .204 0 .376.016.187.03.266.03.266.171 0 .032 0 .047-.032.188l-.593 2.422H3.14l.593-2.344c.079-.36.11-.453.829-.453.265 0 .343 0 .343-.203 0-.11-.11-.11-.14-.11-.282 0-1 .032-1.282.032-.28 0-.984-.032-1.28-.032-.079 0-.188 0-.188.204 0 .109.093.109.28.109.017 0 .204 0 .376.016.172.03.265.03.265.171 0 .032 0 .063-.03.188L1.561-.781c-.093.39-.109.469-.906.469-.172 0-.265 0-.265.203C.39 0 .516 0 .53 0c.281 0 .985-.031 1.266-.031.203 0 .422.015.64.015.22 0 .438.016.641.016.078 0 .203 0 .203-.203 0-.11-.094-.11-.281-.11-.375 0-.64 0-.64-.171 0-.063.015-.11.015-.172l.688-2.735h3.03c-.405 1.657-.64 2.61-.687 2.75-.093.329-.281.329-.906.329-.14 0-.234 0-.234.203 0 .109.125.109.14.109.282 0 .985-.031 1.266-.031.203 0 .422.015.64.015.22 0 .438.016.641.016.078 0 .203 0 .203-.203 0-.11-.093-.11-.281-.11-.36 0-.64 0-.64-.171 0-.063.015-.11.03-.172z" stroke="none"/></symbol></defs><use y="134.765" x="223.432" xlink:href="#c" width="744.094" height="1052.362" fill="#000"/></g><g ns0:text="$0,5 \\cdot 10^{-3}$" ns0:preamble="/home/waldgeist/data/sphinx/inkscape-preamble.tex" transform="translate(-528.346 243.736) scale(2.62804)" fill="navy" stroke="#000" stroke-width="1.284"><defs><symbol overflow="visible" id="d"><path d="M4.578-3.188c0-.796-.047-1.593-.39-2.328C3.733-6.484 2.905-6.64 2.5-6.64c-.61 0-1.328.266-1.75 1.188-.313.687-.36 1.469-.36 2.266 0 .75.032 1.64.454 2.406a1.83 1.83 0 0 0 1.64 1c.532 0 1.297-.203 1.735-1.157.312-.687.36-1.468.36-2.25zM2.484 0c-.39 0-.984-.25-1.156-1.203-.11-.594-.11-1.516-.11-2.11 0-.64 0-1.296.079-1.828.187-1.187.937-1.28 1.187-1.28.329 0 .985.187 1.172 1.171.11.563.11 1.313.11 1.938 0 .75 0 1.421-.11 2.062C3.5-.297 2.937 0 2.484 0z" stroke="none"/></symbol><symbol overflow="visible" id="f"><path d="M4.469-2c0-1.188-.813-2.188-1.89-2.188-.47 0-.907.157-1.267.516v-1.953c.204.063.532.125.844.125 1.235 0 1.938-.906 1.938-1.031 0-.063-.032-.11-.11-.11 0 0-.03 0-.078.032a3.22 3.22 0 0 1-1.36.296c-.39 0-.858-.078-1.327-.28-.078-.032-.094-.032-.11-.032C1-6.625 1-6.547 1-6.391v2.954c0 .171 0 .25.14.25.079 0 .094-.016.141-.079.11-.156.469-.703 1.282-.703.515 0 .765.453.843.64.156.376.188.75.188 1.25 0 .36 0 .954-.25 1.376-.235.39-.61.64-1.063.64-.719 0-1.297-.53-1.469-1.109.032 0 .063.016.172.016.329 0 .5-.25.5-.485 0-.25-.171-.5-.5-.5-.14 0-.484.079-.484.532C.5-.75 1.188.219 2.297.219 3.453.219 4.469-.734 4.469-2z" stroke="none"/></symbol><symbol overflow="visible" id="h"><path d="M2.938-6.375c0-.25 0-.266-.235-.266C2.078-6 1.203-6 .891-6v.313c.203 0 .78 0 1.296-.266v5.172c0 .36-.03.469-.921.469H.953V0c.344-.031 1.203-.031 1.61-.031.39 0 1.265 0 1.609.031v-.313h-.313c-.906 0-.921-.109-.921-.468z" stroke="none"/></symbol><symbol overflow="visible" id="e"><path d="M2.031-.016c0-.656-.25-1.046-.64-1.046a.517.517 0 0 0-.532.53c0 .266.204.532.532.532a.58.58 0 0 0 .343-.125c.032-.031.047-.031.047-.031.016 0 .016 0 .016.14 0 .75-.344 1.344-.672 1.672-.11.11-.11.125-.11.157 0 .078.048.109.094.109.11 0 .922-.766.922-1.938z" stroke="none"/></symbol><symbol overflow="visible" id="g"><path d="M1.906-2.5a.524.524 0 1 0-.516.531.524.524 0 0 0 .516-.531z" stroke="none"/></symbol><symbol overflow="visible" id="i"><path d="M5.188-1.578c.109 0 .28 0 .28-.156 0-.188-.171-.188-.28-.188H1.03c-.11 0-.281 0-.281.172s.156.172.281.172z" stroke="none"/></symbol><symbol overflow="visible" id="j"><path d="M1.906-2.328c.547 0 .938.375.938 1.125 0 .86-.516 1.125-.906 1.125-.282 0-.907-.078-1.188-.5.328 0 .406-.235.406-.39 0-.22-.172-.376-.39-.376a.38.38 0 0 0-.391.407C.375-.281 1.094.14 1.938.14c.968 0 1.64-.657 1.64-1.344 0-.547-.437-1.094-1.203-1.25.719-.266.984-.781.984-1.219 0-.547-.625-.953-1.406-.953-.766 0-1.36.375-1.36.938 0 .234.157.359.36.359.219 0 .36-.156.36-.344 0-.203-.141-.36-.36-.375.25-.297.719-.375.985-.375.312 0 .75.156.75.75 0 .297-.094.625-.282.828-.219.266-.422.281-.765.313-.172.015-.188.015-.22.015-.015 0-.077.016-.077.094 0 .094.062.094.187.094z" stroke="none"/></symbol></defs><g fill="#000"><use height="1052.362" width="744.094" xlink:href="#d" x="223.432" y="134.765"/><use height="1052.362" width="744.094" xlink:href="#e" x="228.413" y="134.765"/><use height="1052.362" width="744.094" xlink:href="#f" x="232.841" y="134.765"/><use height="1052.362" width="744.094" xlink:href="#g" x="240.036" y="134.765"/><use height="1052.362" width="744.094" xlink:href="#h" x="245.018" y="134.765"/><use height="1052.362" width="744.094" xlink:href="#d" x="249.999" y="134.765"/><use height="1052.362" width="744.094" xlink:href="#i" x="254.98" y="131.149"/><g><use height="1052.362" width="744.094" xlink:href="#j" x="261.207" y="131.149"/></g></g></g><g transform="translate(-528.346 108.16) scale(2.62804)" ns0:preamble="/home/waldgeist/data/sphinx/inkscape-preamble.tex" ns0:text="$1,5 \\cdot 10^{-3}$" fill="navy" stroke="#000" stroke-width="1.284"><defs><symbol id="k" overflow="visible"><path d="M2.938-6.375c0-.25 0-.266-.235-.266C2.078-6 1.203-6 .891-6v.313c.203 0 .78 0 1.296-.266v5.172c0 .36-.03.469-.921.469H.953V0c.344-.031 1.203-.031 1.61-.031.39 0 1.265 0 1.609.031v-.313h-.313c-.906 0-.921-.109-.921-.468z" stroke="none"/></symbol><symbol id="m" overflow="visible"><path d="M4.469-2c0-1.188-.813-2.188-1.89-2.188-.47 0-.907.157-1.267.516v-1.953c.204.063.532.125.844.125 1.235 0 1.938-.906 1.938-1.031 0-.063-.032-.11-.11-.11 0 0-.03 0-.078.032a3.22 3.22 0 0 1-1.36.296c-.39 0-.858-.078-1.327-.28-.078-.032-.094-.032-.11-.032C1-6.625 1-6.547 1-6.391v2.954c0 .171 0 .25.14.25.079 0 .094-.016.141-.079.11-.156.469-.703 1.282-.703.515 0 .765.453.843.64.156.376.188.75.188 1.25 0 .36 0 .954-.25 1.376-.235.39-.61.64-1.063.64-.719 0-1.297-.53-1.469-1.109.032 0 .063.016.172.016.329 0 .5-.25.5-.485 0-.25-.171-.5-.5-.5-.14 0-.484.079-.484.532C.5-.75 1.188.219 2.297.219 3.453.219 4.469-.734 4.469-2z" stroke="none"/></symbol><symbol id="o" overflow="visible"><path d="M4.578-3.188c0-.796-.047-1.593-.39-2.328C3.733-6.484 2.905-6.64 2.5-6.64c-.61 0-1.328.266-1.75 1.188-.313.687-.36 1.469-.36 2.266 0 .75.032 1.64.454 2.406a1.83 1.83 0 0 0 1.64 1c.532 0 1.297-.203 1.735-1.157.312-.687.36-1.468.36-2.25zM2.484 0c-.39 0-.984-.25-1.156-1.203-.11-.594-.11-1.516-.11-2.11 0-.64 0-1.296.079-1.828.187-1.187.937-1.28 1.187-1.28.329 0 .985.187 1.172 1.171.11.563.11 1.313.11 1.938 0 .75 0 1.421-.11 2.062C3.5-.297 2.937 0 2.484 0z" stroke="none"/></symbol><symbol id="l" overflow="visible"><path d="M2.031-.016c0-.656-.25-1.046-.64-1.046a.517.517 0 0 0-.532.53c0 .266.204.532.532.532a.58.58 0 0 0 .343-.125c.032-.031.047-.031.047-.031.016 0 .016 0 .016.14 0 .75-.344 1.344-.672 1.672-.11.11-.11.125-.11.157 0 .078.048.109.094.109.11 0 .922-.766.922-1.938z" stroke="none"/></symbol><symbol id="n" overflow="visible"><path d="M1.906-2.5a.524.524 0 1 0-.516.531.524.524 0 0 0 .516-.531z" stroke="none"/></symbol><symbol id="p" overflow="visible"><path d="M5.188-1.578c.109 0 .28 0 .28-.156 0-.188-.171-.188-.28-.188H1.03c-.11 0-.281 0-.281.172s.156.172.281.172z" stroke="none"/></symbol><symbol id="q" overflow="visible"><path d="M1.906-2.328c.547 0 .938.375.938 1.125 0 .86-.516 1.125-.906 1.125-.282 0-.907-.078-1.188-.5.328 0 .406-.235.406-.39 0-.22-.172-.376-.39-.376a.38.38 0 0 0-.391.407C.375-.281 1.094.14 1.938.14c.968 0 1.64-.657 1.64-1.344 0-.547-.437-1.094-1.203-1.25.719-.266.984-.781.984-1.219 0-.547-.625-.953-1.406-.953-.766 0-1.36.375-1.36.938 0 .234.157.359.36.359.219 0 .36-.156.36-.344 0-.203-.141-.36-.36-.375.25-.297.719-.375.985-.375.312 0 .75.156.75.75 0 .297-.094.625-.282.828-.219.266-.422.281-.765.313-.172.015-.188.015-.22.015-.015 0-.077.016-.077.094 0 .094.062.094.187.094z" stroke="none"/></symbol></defs><g fill="#000"><use y="134.765" x="223.432" xlink:href="#k" width="744.094" height="1052.362"/><use y="134.765" x="228.413" xlink:href="#l" width="744.094" height="1052.362"/><use y="134.765" x="232.841" xlink:href="#m" width="744.094" height="1052.362"/><use y="134.765" x="240.036" xlink:href="#n" width="744.094" height="1052.362"/><use y="134.765" x="245.018" xlink:href="#k" width="744.094" height="1052.362"/><use y="134.765" x="249.999" xlink:href="#o" width="744.094" height="1052.362"/><use y="131.149" x="254.98" xlink:href="#p" width="744.094" height="1052.362"/><g><use y="131.149" x="261.207" xlink:href="#q" width="744.094" height="1052.362"/></g></g></g><g ns0:text="$1,0 \\cdot 10^{-3}$" ns0:preamble="/home/waldgeist/data/sphinx/inkscape-preamble.tex" transform="translate(-528.346 175.949) scale(2.62804)" fill="navy" stroke="#000" stroke-width="1.284"><defs><symbol overflow="visible" id="r"><path d="M2.938-6.375c0-.25 0-.266-.235-.266C2.078-6 1.203-6 .891-6v.313c.203 0 .78 0 1.296-.266v5.172c0 .36-.03.469-.921.469H.953V0c.344-.031 1.203-.031 1.61-.031.39 0 1.265 0 1.609.031v-.313h-.313c-.906 0-.921-.109-.921-.468z" stroke="none"/></symbol><symbol overflow="visible" id="t"><path d="M4.578-3.188c0-.796-.047-1.593-.39-2.328C3.733-6.484 2.905-6.64 2.5-6.64c-.61 0-1.328.266-1.75 1.188-.313.687-.36 1.469-.36 2.266 0 .75.032 1.64.454 2.406a1.83 1.83 0 0 0 1.64 1c.532 0 1.297-.203 1.735-1.157.312-.687.36-1.468.36-2.25zM2.484 0c-.39 0-.984-.25-1.156-1.203-.11-.594-.11-1.516-.11-2.11 0-.64 0-1.296.079-1.828.187-1.187.937-1.28 1.187-1.28.329 0 .985.187 1.172 1.171.11.563.11 1.313.11 1.938 0 .75 0 1.421-.11 2.062C3.5-.297 2.937 0 2.484 0z" stroke="none"/></symbol><symbol overflow="visible" id="s"><path d="M2.031-.016c0-.656-.25-1.046-.64-1.046a.517.517 0 0 0-.532.53c0 .266.204.532.532.532a.58.58 0 0 0 .343-.125c.032-.031.047-.031.047-.031.016 0 .016 0 .016.14 0 .75-.344 1.344-.672 1.672-.11.11-.11.125-.11.157 0 .078.048.109.094.109.11 0 .922-.766.922-1.938z" stroke="none"/></symbol><symbol overflow="visible" id="u"><path d="M1.906-2.5a.524.524 0 1 0-.516.531.524.524 0 0 0 .516-.531z" stroke="none"/></symbol><symbol overflow="visible" id="v"><path d="M5.188-1.578c.109 0 .28 0 .28-.156 0-.188-.171-.188-.28-.188H1.03c-.11 0-.281 0-.281.172s.156.172.281.172z" stroke="none"/></symbol><symbol overflow="visible" id="w"><path d="M1.906-2.328c.547 0 .938.375.938 1.125 0 .86-.516 1.125-.906 1.125-.282 0-.907-.078-1.188-.5.328 0 .406-.235.406-.39 0-.22-.172-.376-.39-.376a.38.38 0 0 0-.391.407C.375-.281 1.094.14 1.938.14c.968 0 1.64-.657 1.64-1.344 0-.547-.437-1.094-1.203-1.25.719-.266.984-.781.984-1.219 0-.547-.625-.953-1.406-.953-.766 0-1.36.375-1.36.938 0 .234.157.359.36.359.219 0 .36-.156.36-.344 0-.203-.141-.36-.36-.375.25-.297.719-.375.985-.375.312 0 .75.156.75.75 0 .297-.094.625-.282.828-.219.266-.422.281-.765.313-.172.015-.188.015-.22.015-.015 0-.077.016-.077.094 0 .094.062.094.187.094z" stroke="none"/></symbol></defs><g fill="#000"><use xlink:href="#r" x="223.432" y="134.765" width="744.094" height="1052.362"/><use xlink:href="#s" x="228.413" y="134.765" width="744.094" height="1052.362"/><use xlink:href="#t" x="232.841" y="134.765" width="744.094" height="1052.362"/><use xlink:href="#u" x="240.036" y="134.765" width="744.094" height="1052.362"/><use xlink:href="#r" x="245.018" y="134.765" width="744.094" height="1052.362"/><use xlink:href="#t" x="249.999" y="134.765" width="744.094" height="1052.362"/><use xlink:href="#v" x="254.98" y="131.149" width="744.094" height="1052.362"/><g><use xlink:href="#w" x="261.207" y="131.149" width="744.094" height="1052.362"/></g></g></g><g transform="translate(-528.346 40.373) scale(2.62804)" ns0:preamble="/home/waldgeist/data/sphinx/inkscape-preamble.tex" ns0:text="$2,0 \\cdot 10^{-3}$" fill="navy" stroke="#000" stroke-width="1.284"><defs><symbol id="x" overflow="visible"><path d="M1.266-.766l1.062-1.03c1.547-1.376 2.14-1.907 2.14-2.907 0-1.14-.89-1.938-2.109-1.938C1.234-6.64.5-5.719.5-4.828c0 .547.5.547.531.547.172 0 .516-.11.516-.532a.513.513 0 0 0-.531-.515c-.079 0-.094 0-.125.016.218-.657.765-1.016 1.343-1.016.907 0 1.329.812 1.329 1.625 0 .797-.485 1.578-1.047 2.203L.609-.375C.5-.265.5-.235.5 0h3.703l.266-1.734h-.235C4.172-1.438 4.11-1 4-.844c-.063.078-.719.078-.938.078z" stroke="none"/></symbol><symbol id="z" overflow="visible"><path d="M4.578-3.188c0-.796-.047-1.593-.39-2.328C3.733-6.484 2.905-6.64 2.5-6.64c-.61 0-1.328.266-1.75 1.188-.313.687-.36 1.469-.36 2.266 0 .75.032 1.64.454 2.406a1.83 1.83 0 0 0 1.64 1c.532 0 1.297-.203 1.735-1.157.312-.687.36-1.468.36-2.25zM2.484 0c-.39 0-.984-.25-1.156-1.203-.11-.594-.11-1.516-.11-2.11 0-.64 0-1.296.079-1.828.187-1.187.937-1.28 1.187-1.28.329 0 .985.187 1.172 1.171.11.563.11 1.313.11 1.938 0 .75 0 1.421-.11 2.062C3.5-.297 2.937 0 2.484 0z" stroke="none"/></symbol><symbol id="B" overflow="visible"><path d="M2.938-6.375c0-.25 0-.266-.235-.266C2.078-6 1.203-6 .891-6v.313c.203 0 .78 0 1.296-.266v5.172c0 .36-.03.469-.921.469H.953V0c.344-.031 1.203-.031 1.61-.031.39 0 1.265 0 1.609.031v-.313h-.313c-.906 0-.921-.109-.921-.468z" stroke="none"/></symbol><symbol id="y" overflow="visible"><path d="M2.031-.016c0-.656-.25-1.046-.64-1.046a.517.517 0 0 0-.532.53c0 .266.204.532.532.532a.58.58 0 0 0 .343-.125c.032-.031.047-.031.047-.031.016 0 .016 0 .016.14 0 .75-.344 1.344-.672 1.672-.11.11-.11.125-.11.157 0 .078.048.109.094.109.11 0 .922-.766.922-1.938z" stroke="none"/></symbol><symbol id="A" overflow="visible"><path d="M1.906-2.5a.524.524 0 1 0-.516.531.524.524 0 0 0 .516-.531z" stroke="none"/></symbol><symbol id="C" overflow="visible"><path d="M5.188-1.578c.109 0 .28 0 .28-.156 0-.188-.171-.188-.28-.188H1.03c-.11 0-.281 0-.281.172s.156.172.281.172z" stroke="none"/></symbol><symbol id="D" overflow="visible"><path d="M1.906-2.328c.547 0 .938.375.938 1.125 0 .86-.516 1.125-.906 1.125-.282 0-.907-.078-1.188-.5.328 0 .406-.235.406-.39 0-.22-.172-.376-.39-.376a.38.38 0 0 0-.391.407C.375-.281 1.094.14 1.938.14c.968 0 1.64-.657 1.64-1.344 0-.547-.437-1.094-1.203-1.25.719-.266.984-.781.984-1.219 0-.547-.625-.953-1.406-.953-.766 0-1.36.375-1.36.938 0 .234.157.359.36.359.219 0 .36-.156.36-.344 0-.203-.141-.36-.36-.375.25-.297.719-.375.985-.375.312 0 .75.156.75.75 0 .297-.094.625-.282.828-.219.266-.422.281-.765.313-.172.015-.188.015-.22.015-.015 0-.077.016-.077.094 0 .094.062.094.187.094z" stroke="none"/></symbol></defs><g fill="#000"><use y="134.765" x="223.432" xlink:href="#x" width="744.094" height="1052.362"/><use y="134.765" x="228.413" xlink:href="#y" width="744.094" height="1052.362"/><use y="134.765" x="232.841" xlink:href="#z" width="744.094" height="1052.362"/><use y="134.765" x="240.036" xlink:href="#A" width="744.094" height="1052.362"/><use y="134.765" x="245.018" xlink:href="#B" width="744.094" height="1052.362"/><use y="134.765" x="249.999" xlink:href="#z" width="744.094" height="1052.362"/><use y="131.149" x="254.98" xlink:href="#C" width="744.094" height="1052.362"/><g><use y="131.149" x="261.207" xlink:href="#D" width="744.094" height="1052.362"/></g></g></g><g ns0:text="$500$" ns0:preamble="/home/waldgeist/data/sphinx/inkscape-preamble.tex" transform="translate(-319.918 339.36) scale(2.62804)" fill="navy" stroke="#000" stroke-width="1.284"><defs><symbol overflow="visible" id="E"><path d="M4.469-2c0-1.188-.813-2.188-1.89-2.188-.47 0-.907.157-1.267.516v-1.953c.204.063.532.125.844.125 1.235 0 1.938-.906 1.938-1.031 0-.063-.032-.11-.11-.11 0 0-.03 0-.078.032a3.22 3.22 0 0 1-1.36.296c-.39 0-.858-.078-1.327-.28-.078-.032-.094-.032-.11-.032C1-6.625 1-6.547 1-6.391v2.954c0 .171 0 .25.14.25.079 0 .094-.016.141-.079.11-.156.469-.703 1.282-.703.515 0 .765.453.843.64.156.376.188.75.188 1.25 0 .36 0 .954-.25 1.376-.235.39-.61.64-1.063.64-.719 0-1.297-.53-1.469-1.109.032 0 .063.016.172.016.329 0 .5-.25.5-.485 0-.25-.171-.5-.5-.5-.14 0-.484.079-.484.532C.5-.75 1.188.219 2.297.219 3.453.219 4.469-.734 4.469-2z" stroke="none"/></symbol><symbol overflow="visible" id="F"><path d="M4.578-3.188c0-.796-.047-1.593-.39-2.328C3.733-6.484 2.905-6.64 2.5-6.64c-.61 0-1.328.266-1.75 1.188-.313.687-.36 1.469-.36 2.266 0 .75.032 1.64.454 2.406a1.83 1.83 0 0 0 1.64 1c.532 0 1.297-.203 1.735-1.157.312-.687.36-1.468.36-2.25zM2.484 0c-.39 0-.984-.25-1.156-1.203-.11-.594-.11-1.516-.11-2.11 0-.64 0-1.296.079-1.828.187-1.187.937-1.28 1.187-1.28.329 0 .985.187 1.172 1.171.11.563.11 1.313.11 1.938 0 .75 0 1.421-.11 2.062C3.5-.297 2.937 0 2.484 0z" stroke="none"/></symbol></defs><g fill="#000"><use height="1052.362" width="744.094" xlink:href="#E" x="223.432" y="134.765"/><use height="1052.362" width="744.094" xlink:href="#F" x="228.413" y="134.765"/><use height="1052.362" width="744.094" xlink:href="#F" x="233.395" y="134.765"/></g></g><g ns0:text="\\centering $v$ \\\\ in $\\unit[]{\\frac{m}{s}}$" ns0:preamble="/home/waldgeist/data/sphinx/inkscape-preamble.tex" transform="translate(-379.316 336.114) scale(2.62804)" fill="navy" stroke="#000" stroke-width="1.284"><defs><symbol overflow="visible" id="G"><path d="M4.672-3.703c0-.547-.266-.703-.438-.703-.25 0-.5.265-.5.484 0 .125.047.188.157.297.218.203.343.453.343.813 0 .421-.609 2.703-1.765 2.703-.516 0-.75-.344-.75-.875 0-.547.281-1.282.578-2.11.078-.172.125-.312.125-.5 0-.437-.313-.812-.813-.812-.937 0-1.312 1.453-1.312 1.531 0 .11.094.11.11.11.109 0 .109-.032.156-.188.296-1 .718-1.235 1.015-1.235.078 0 .25 0 .25.313 0 .25-.11.531-.172.703-.437 1.156-.562 1.61-.562 2.047 0 1.078.875 1.234 1.328 1.234 1.672 0 2.25-3.296 2.25-3.812z" stroke="none"/></symbol><symbol overflow="visible" id="H"><path d="M1.766-4.406l-1.391.11v.312c.64 0 .734.062.734.546V-.75c0 .438-.109.438-.78.438V0c.312-.016.859-.031 1.093-.031.36 0 .703.015 1.047.031v-.313c-.672 0-.703-.046-.703-.437zm.03-1.735a.514.514 0 0 0-.515-.53.537.537 0 0 0-.531.53c0 .266.219.532.531.532a.514.514 0 0 0 .516-.532z" stroke="none"/></symbol><symbol overflow="visible" id="I"><path d="M1.094-3.422V-.75c0 .438-.11.438-.782.438V0c.36-.016.86-.031 1.141-.031.25 0 .766.015 1.11.031v-.313c-.672 0-.782 0-.782-.437v-1.844c0-1.031.719-1.594 1.344-1.594.64 0 .75.532.75 1.11V-.75c0 .438-.11.438-.781.438V0c.344-.016.86-.031 1.125-.031.25 0 .781.015 1.11.031v-.313c-.516 0-.766 0-.766-.296v-1.907c0-.859 0-1.156-.313-1.515-.14-.172-.469-.375-1.047-.375-.734 0-1.203.422-1.484 1.047v-1.047l-1.407.11v.312c.704 0 .782.062.782.562z" stroke="none"/></symbol><symbol overflow="visible" id="J"><path d="M5.734-2.11c0-.609-.312-.968-1.046-.968-.563 0-.938.297-1.125.656-.141-.5-.516-.656-1.016-.656-.578 0-.938.312-1.14.687v-.687L.374-3v.25c.469 0 .531.047.531.39v1.813c0 .297-.078.297-.531.297V0c.016 0 .5-.031.797-.031.25 0 .734.031.797.031v-.25c-.453 0-.516 0-.516-.297v-1.265c0-.72.578-1.063 1.031-1.063.485 0 .547.375.547.734v1.594c0 .297-.062.297-.515.297V0c.015 0 .5-.031.796-.031.25 0 .735.031.797.031v-.25c-.453 0-.515 0-.515-.297v-1.265c0-.72.578-1.063 1.031-1.063.484 0 .547.375.547.734v1.594c0 .297-.063.297-.516.297V0c.016 0 .5-.031.797-.031.25 0 .734.031.797.031v-.25c-.453 0-.516 0-.516-.297z" stroke="none"/></symbol><symbol overflow="visible" id="K"><path d="M2.64-2.922c0-.125 0-.187-.093-.187-.031 0-.047 0-.14.078-.016.015-.079.078-.126.11-.219-.142-.469-.188-.734-.188-1 0-1.234.53-1.234.875 0 .218.093.406.265.546.266.22.531.266.969.344.344.063.906.157.906.625 0 .266-.187.594-.86.594-.671 0-.905-.438-1.03-.906C.53-1.125.53-1.156.438-1.156c-.126 0-.126.047-.126.187v.86c0 .109 0 .171.094.171.063 0 .203-.14.344-.296.297.296.672.296.844.296.906 0 1.25-.484 1.25-.968a.823.823 0 0 0-.313-.64c-.265-.25-.578-.313-.828-.345-.547-.109-1-.187-1-.562 0-.219.188-.485.844-.485.812 0 .844.563.86.766 0 .078.093.078.109.078.125 0 .125-.047.125-.187z" stroke="none"/></symbol></defs><use height="1052.362" width="744.094" xlink:href="#G" x="392.694" y="134.765" fill="#000"/><g fill="#000"><use height="1052.362" width="744.094" xlink:href="#H" x="385.008" y="146.72"/><use height="1052.362" width="744.094" xlink:href="#I" x="387.776" y="146.72"/></g><use height="1052.362" width="744.094" xlink:href="#J" x="397.827" y="142.797" fill="#000"/><path d="M397.5 144.5h7" fill="none" stroke-width=".381" stroke-miterlimit="10"/><use height="1052.362" width="744.094" xlink:href="#K" x="399.521" y="150.155" fill="#000"/></g><g transform="translate(-230.068 339.36) scale(2.62804)" ns0:preamble="/home/waldgeist/data/sphinx/inkscape-preamble.tex" ns0:text="$1000$" fill="navy" stroke="#000" stroke-width="1.284"><defs><symbol id="L" overflow="visible"><path d="M2.938-6.375c0-.25 0-.266-.235-.266C2.078-6 1.203-6 .891-6v.313c.203 0 .78 0 1.296-.266v5.172c0 .36-.03.469-.921.469H.953V0c.344-.031 1.203-.031 1.61-.031.39 0 1.265 0 1.609.031v-.313h-.313c-.906 0-.921-.109-.921-.468z" stroke="none"/></symbol><symbol id="M" overflow="visible"><path d="M4.578-3.188c0-.796-.047-1.593-.39-2.328C3.733-6.484 2.905-6.64 2.5-6.64c-.61 0-1.328.266-1.75 1.188-.313.687-.36 1.469-.36 2.266 0 .75.032 1.64.454 2.406a1.83 1.83 0 0 0 1.64 1c.532 0 1.297-.203 1.735-1.157.312-.687.36-1.468.36-2.25zM2.484 0c-.39 0-.984-.25-1.156-1.203-.11-.594-.11-1.516-.11-2.11 0-.64 0-1.296.079-1.828.187-1.187.937-1.28 1.187-1.28.329 0 .985.187 1.172 1.171.11.563.11 1.313.11 1.938 0 .75 0 1.421-.11 2.062C3.5-.297 2.937 0 2.484 0z" stroke="none"/></symbol></defs><g fill="#000"><use y="134.765" x="223.432" xlink:href="#L" width="744.094" height="1052.362"/><use y="134.765" x="228.413" xlink:href="#M" width="744.094" height="1052.362"/><use y="134.765" x="233.395" xlink:href="#M" width="744.094" height="1052.362"/><use y="134.765" x="238.376" xlink:href="#M" width="744.094" height="1052.362"/></g></g><g ns0:text="$1500$" ns0:preamble="/home/waldgeist/data/sphinx/inkscape-preamble.tex" transform="translate(-133.158 339.36) scale(2.62804)" fill="navy" stroke="#000" stroke-width="1.284"><defs><symbol overflow="visible" id="N"><path d="M2.938-6.375c0-.25 0-.266-.235-.266C2.078-6 1.203-6 .891-6v.313c.203 0 .78 0 1.296-.266v5.172c0 .36-.03.469-.921.469H.953V0c.344-.031 1.203-.031 1.61-.031.39 0 1.265 0 1.609.031v-.313h-.313c-.906 0-.921-.109-.921-.468z" stroke="none"/></symbol><symbol overflow="visible" id="O"><path d="M4.469-2c0-1.188-.813-2.188-1.89-2.188-.47 0-.907.157-1.267.516v-1.953c.204.063.532.125.844.125 1.235 0 1.938-.906 1.938-1.031 0-.063-.032-.11-.11-.11 0 0-.03 0-.078.032a3.22 3.22 0 0 1-1.36.296c-.39 0-.858-.078-1.327-.28-.078-.032-.094-.032-.11-.032C1-6.625 1-6.547 1-6.391v2.954c0 .171 0 .25.14.25.079 0 .094-.016.141-.079.11-.156.469-.703 1.282-.703.515 0 .765.453.843.64.156.376.188.75.188 1.25 0 .36 0 .954-.25 1.376-.235.39-.61.64-1.063.64-.719 0-1.297-.53-1.469-1.109.032 0 .063.016.172.016.329 0 .5-.25.5-.485 0-.25-.171-.5-.5-.5-.14 0-.484.079-.484.532C.5-.75 1.188.219 2.297.219 3.453.219 4.469-.734 4.469-2z" stroke="none"/></symbol><symbol overflow="visible" id="P"><path d="M4.578-3.188c0-.796-.047-1.593-.39-2.328C3.733-6.484 2.905-6.64 2.5-6.64c-.61 0-1.328.266-1.75 1.188-.313.687-.36 1.469-.36 2.266 0 .75.032 1.64.454 2.406a1.83 1.83 0 0 0 1.64 1c.532 0 1.297-.203 1.735-1.157.312-.687.36-1.468.36-2.25zM2.484 0c-.39 0-.984-.25-1.156-1.203-.11-.594-.11-1.516-.11-2.11 0-.64 0-1.296.079-1.828.187-1.187.937-1.28 1.187-1.28.329 0 .985.187 1.172 1.171.11.563.11 1.313.11 1.938 0 .75 0 1.421-.11 2.062C3.5-.297 2.937 0 2.484 0z" stroke="none"/></symbol></defs><g fill="#000"><use xlink:href="#N" x="223.432" y="134.765" width="744.094" height="1052.362"/><use xlink:href="#O" x="228.413" y="134.765" width="744.094" height="1052.362"/><use xlink:href="#P" x="233.395" y="134.765" width="744.094" height="1052.362"/><use xlink:href="#P" x="238.376" y="134.765" width="744.094" height="1052.362"/></g></g><g transform="translate(-35.736 339.36) scale(2.62804)" ns0:preamble="/home/waldgeist/data/sphinx/inkscape-preamble.tex" ns0:text="$2000$" fill="navy" stroke="#000" stroke-width="1.284"><defs><symbol id="Q" overflow="visible"><path d="M1.266-.766l1.062-1.03c1.547-1.376 2.14-1.907 2.14-2.907 0-1.14-.89-1.938-2.109-1.938C1.234-6.64.5-5.719.5-4.828c0 .547.5.547.531.547.172 0 .516-.11.516-.532a.513.513 0 0 0-.531-.515c-.079 0-.094 0-.125.016.218-.657.765-1.016 1.343-1.016.907 0 1.329.812 1.329 1.625 0 .797-.485 1.578-1.047 2.203L.609-.375C.5-.265.5-.235.5 0h3.703l.266-1.734h-.235C4.172-1.438 4.11-1 4-.844c-.063.078-.719.078-.938.078z" stroke="none"/></symbol><symbol id="R" overflow="visible"><path d="M4.578-3.188c0-.796-.047-1.593-.39-2.328C3.733-6.484 2.905-6.64 2.5-6.64c-.61 0-1.328.266-1.75 1.188-.313.687-.36 1.469-.36 2.266 0 .75.032 1.64.454 2.406a1.83 1.83 0 0 0 1.64 1c.532 0 1.297-.203 1.735-1.157.312-.687.36-1.468.36-2.25zM2.484 0c-.39 0-.984-.25-1.156-1.203-.11-.594-.11-1.516-.11-2.11 0-.64 0-1.296.079-1.828.187-1.187.937-1.28 1.187-1.28.329 0 .985.187 1.172 1.171.11.563.11 1.313.11 1.938 0 .75 0 1.421-.11 2.062C3.5-.297 2.937 0 2.484 0z" stroke="none"/></symbol></defs><g fill="#000"><use y="134.765" x="223.432" xlink:href="#Q" width="744.094" height="1052.362"/><use y="134.765" x="228.413" xlink:href="#R" width="744.094" height="1052.362"/><use y="134.765" x="233.395" xlink:href="#R" width="744.094" height="1052.362"/><use y="134.765" x="238.376" xlink:href="#R" width="744.094" height="1052.362"/></g></g><g ns0:text="$\\unit[20]{^{\\circ} C}$" ns0:preamble="/home/waldgeist/data/sphinx/inkscape-preamble.tex" transform="translate(-302.981 40.602) scale(2.62804)" fill="#06f" stroke="#000" stroke-width="1.284"><defs><symbol overflow="visible" id="S"><path d="M1.266-.766l1.062-1.03c1.547-1.376 2.14-1.907 2.14-2.907 0-1.14-.89-1.938-2.109-1.938C1.234-6.64.5-5.719.5-4.828c0 .547.5.547.531.547.172 0 .516-.11.516-.532a.513.513 0 0 0-.531-.515c-.079 0-.094 0-.125.016.218-.657.765-1.016 1.343-1.016.907 0 1.329.812 1.329 1.625 0 .797-.485 1.578-1.047 2.203L.609-.375C.5-.265.5-.235.5 0h3.703l.266-1.734h-.235C4.172-1.438 4.11-1 4-.844c-.063.078-.719.078-.938.078z" stroke="none"/></symbol><symbol overflow="visible" id="T"><path d="M4.578-3.188c0-.796-.047-1.593-.39-2.328C3.733-6.484 2.905-6.64 2.5-6.64c-.61 0-1.328.266-1.75 1.188-.313.687-.36 1.469-.36 2.266 0 .75.032 1.64.454 2.406a1.83 1.83 0 0 0 1.64 1c.532 0 1.297-.203 1.735-1.157.312-.687.36-1.468.36-2.25zM2.484 0c-.39 0-.984-.25-1.156-1.203-.11-.594-.11-1.516-.11-2.11 0-.64 0-1.296.079-1.828.187-1.187.937-1.28 1.187-1.28.329 0 .985.187 1.172 1.171.11.563.11 1.313.11 1.938 0 .75 0 1.421-.11 2.062C3.5-.297 2.937 0 2.484 0z" stroke="none"/></symbol><symbol overflow="visible" id="V"><path d="M.563-3.406C.563-1.344 2.171.219 4.03.219c1.625 0 2.594-1.39 2.594-2.547 0-.094 0-.172-.125-.172-.11 0-.11.063-.125.172C6.297-.906 5.235-.094 4.141-.094c-.61 0-2.563-.328-2.563-3.312 0-2.969 1.953-3.313 2.563-3.313 1.078 0 1.968.907 2.171 2.36.016.14.016.171.157.171.156 0 .156-.03.156-.234v-2.36c0-.171 0-.25-.11-.25-.03 0-.077 0-.156.126l-.5.734c-.359-.36-.875-.86-1.828-.86-1.875 0-3.468 1.595-3.468 3.626z" stroke="none"/></symbol><symbol overflow="visible" id="U"><path d="M3.531-1.734c0-.844-.672-1.5-1.5-1.5s-1.5.671-1.5 1.484a1.5 1.5 0 0 0 1.5 1.5c.844 0 1.5-.672 1.5-1.484zm-1.5 1.14A1.157 1.157 0 1 1 3.187-1.75c0 .656-.515 1.156-1.156 1.156z" stroke="none"/></symbol></defs><use xlink:href="#S" x="223.432" y="134.765" width="744.094" height="1052.362"/><use xlink:href="#T" x="228.413" y="134.765" width="744.094" height="1052.362"/><use xlink:href="#U" x="235.055" y="131.149" width="744.094" height="1052.362"/><g><use xlink:href="#V" x="239.635" y="134.765" width="744.094" height="1052.362"/></g></g><g transform="translate(-201.964 176.765) scale(2.62804)" ns0:preamble="/home/waldgeist/data/sphinx/inkscape-preamble.tex" ns0:text="$\\unit[500]{^{\\circ} C}$" fill="#59f" stroke="#000" stroke-width="1.284"><defs><symbol id="W" overflow="visible"><path d="M4.469-2c0-1.188-.813-2.188-1.89-2.188-.47 0-.907.157-1.267.516v-1.953c.204.063.532.125.844.125 1.235 0 1.938-.906 1.938-1.031 0-.063-.032-.11-.11-.11 0 0-.03 0-.078.032a3.22 3.22 0 0 1-1.36.296c-.39 0-.858-.078-1.327-.28-.078-.032-.094-.032-.11-.032C1-6.625 1-6.547 1-6.391v2.954c0 .171 0 .25.14.25.079 0 .094-.016.141-.079.11-.156.469-.703 1.282-.703.515 0 .765.453.843.64.156.376.188.75.188 1.25 0 .36 0 .954-.25 1.376-.235.39-.61.64-1.063.64-.719 0-1.297-.53-1.469-1.109.032 0 .063.016.172.016.329 0 .5-.25.5-.485 0-.25-.171-.5-.5-.5-.14 0-.484.079-.484.532C.5-.75 1.188.219 2.297.219 3.453.219 4.469-.734 4.469-2z" stroke="none"/></symbol><symbol id="X" overflow="visible"><path d="M4.578-3.188c0-.796-.047-1.593-.39-2.328C3.733-6.484 2.905-6.64 2.5-6.64c-.61 0-1.328.266-1.75 1.188-.313.687-.36 1.469-.36 2.266 0 .75.032 1.64.454 2.406a1.83 1.83 0 0 0 1.64 1c.532 0 1.297-.203 1.735-1.157.312-.687.36-1.468.36-2.25zM2.484 0c-.39 0-.984-.25-1.156-1.203-.11-.594-.11-1.516-.11-2.11 0-.64 0-1.296.079-1.828.187-1.187.937-1.28 1.187-1.28.329 0 .985.187 1.172 1.171.11.563.11 1.313.11 1.938 0 .75 0 1.421-.11 2.062C3.5-.297 2.937 0 2.484 0z" stroke="none"/></symbol><symbol id="Z" overflow="visible"><path d="M.563-3.406C.563-1.344 2.171.219 4.03.219c1.625 0 2.594-1.39 2.594-2.547 0-.094 0-.172-.125-.172-.11 0-.11.063-.125.172C6.297-.906 5.235-.094 4.141-.094c-.61 0-2.563-.328-2.563-3.312 0-2.969 1.953-3.313 2.563-3.313 1.078 0 1.968.907 2.171 2.36.016.14.016.171.157.171.156 0 .156-.03.156-.234v-2.36c0-.171 0-.25-.11-.25-.03 0-.077 0-.156.126l-.5.734c-.359-.36-.875-.86-1.828-.86-1.875 0-3.468 1.595-3.468 3.626z" stroke="none"/></symbol><symbol id="Y" overflow="visible"><path d="M3.531-1.734c0-.844-.672-1.5-1.5-1.5s-1.5.671-1.5 1.484a1.5 1.5 0 0 0 1.5 1.5c.844 0 1.5-.672 1.5-1.484zm-1.5 1.14A1.157 1.157 0 1 1 3.187-1.75c0 .656-.515 1.156-1.156 1.156z" stroke="none"/></symbol></defs><use y="134.765" x="223.432" xlink:href="#W" width="744.094" height="1052.362"/><use y="134.765" x="228.413" xlink:href="#X" width="744.094" height="1052.362"/><use y="134.765" x="233.395" xlink:href="#X" width="744.094" height="1052.362"/><g><use y="131.149" x="240.037" xlink:href="#Y" width="744.094" height="1052.362"/></g><g><use y="134.765" x="244.617" xlink:href="#Z" width="744.094" height="1052.362"/></g></g></svg>