<svg xmlns:ns0="http://www.iki.fi/pav/software/textext/" xmlns="http://www.w3.org/2000/svg" xmlns:xlink="http://www.w3.org/1999/xlink" width="1122.52" height="793.701" viewBox="0 0 1052.3622 744.09448"><title>Phasenuebergaenge</title><defs><marker orient="auto" id="i" overflow="visible"><path d="M-4 0l-2 2 7-2-7-2z" fill-rule="evenodd" stroke="#000" stroke-width=".5332"/></marker><marker orient="auto" id="h" overflow="visible"><path d="M4 0l2-2-7 2 7 2z" fill-rule="evenodd" stroke="#000" stroke-width=".5332"/></marker><filter height="1.96" y="-.48" width="1.96" x="-.48" id="bD"><feGaussianBlur stdDeviation="1.237"/></filter></defs><g transform="translate(0 -308.268)"><path fill="#fff" stroke="#fff" d="M18.904 338.474h1014.554v683.682H18.904z"/><g transform="matrix(.40277 0 0 .40277 137.658 561.402)" stroke-width="2" stroke-linecap="round" stroke-linejoin="round"><circle cx="125.714" cy="388.076" r="32.857" fill="gray" stroke="#000"/><circle transform="translate(.442 -1.768)" cx="112.064" cy="371.077" r="3.094" fill="#fff" stroke="#999"/></g><use xlink:href="#a" transform="translate(391.547 -420.519)" width="744.094" height="1052.362"/><use xlink:href="#b" transform="translate(367.895 -447.695)" width="744.094" height="1052.362"/><use xlink:href="#c" transform="translate(563.953 -271.84)" width="744.094" height="1052.362"/><use xlink:href="#d" transform="translate(131.748 -243.715)" width="744.094" height="1052.362"/><use xlink:href="#e" transform="translate(480.778 -146.163)" width="744.094" height="1052.362"/><use xlink:href="#f" transform="translate(560.63 -197.851)" width="744.094" height="1052.362"/><use xlink:href="#g" transform="translate(224.15 -419.518)" width="744.094" height="1052.362"/><path d="M398.213 814.455h255.936" fill="none" stroke="#000" marker-start="url(#h)" marker-end="url(#i)"/><g transform="translate(2.674 -89.604)"><rect ry="2.007" rx="0" y="890.323" x="466.521" height="27.473" width="112.693" fill="#fff" stroke="#fff" stroke-width=".76"/><g transform="matrix(2.10619 0 0 2.10619 6.34 627.393)" ns0:text="schmelzen"><defs><symbol overflow="visible" id="j"><path d="M2.078-1.938c.219.047 1.031.204 1.031.922 0 .5-.343.907-1.125.907-.843 0-1.203-.563-1.39-1.422-.031-.125-.031-.157-.14-.157-.126 0-.126.063-.126.235v1.328c0 .172 0 .234.11.234C.483.11.5.094.688-.094.703-.109.703-.125.89-.312c.437.406.89.421 1.093.421 1.141 0 1.61-.671 1.61-1.39 0-.516-.297-.828-.422-.938-.328-.328-.719-.406-1.14-.484-.563-.11-1.22-.235-1.22-.813 0-.359.25-.765 1.11-.765 1.094 0 1.156.906 1.172 1.203 0 .094.094.094.11.094.14 0 .14-.047.14-.235v-1.015c0-.157 0-.235-.11-.235-.046 0-.078 0-.203.125-.031.032-.125.125-.172.157-.375-.282-.78-.282-.937-.282-1.219 0-1.594.672-1.594 1.235 0 .343.156.625.422.843.328.25.61.313 1.328.454zm0 0"/></symbol><symbol overflow="visible" id="k"><path d="M1.172-2.172c0-1.625.812-2.047 1.344-2.047.093 0 .718.016 1.062.375-.406.031-.469.328-.469.453 0 .266.188.454.454.454.265 0 .468-.157.468-.47 0-.671-.765-1.062-1.531-1.062C1.25-4.469.344-3.39.344-2.156c0 1.281.984 2.265 2.14 2.265 1.329 0 1.657-1.203 1.657-1.296 0-.094-.11-.094-.141-.094-.078 0-.11.031-.125.093C3.594-.265 2.937-.14 2.578-.14c-.531 0-1.406-.421-1.406-2.03zm0 0"/></symbol><symbol overflow="visible" id="l"><path d="M1.094-.75c0 .438-.11.438-.782.438V0c.36-.016.86-.031 1.141-.031.25 0 .766.015 1.11.031v-.313c-.672 0-.782 0-.782-.437v-1.844c0-1.031.719-1.594 1.344-1.594.64 0 .75.532.75 1.11V-.75c0 .438-.11.438-.781.438V0c.344-.016.86-.031 1.125-.031.25 0 .781.015 1.11.031v-.313c-.516 0-.766 0-.766-.296v-1.907c0-.859 0-1.156-.313-1.515-.14-.172-.469-.375-1.047-.375-.844 0-1.281.593-1.453.984v-3.5l-1.438.11v.312c.704 0 .782.063.782.563zm0 0"/></symbol><symbol overflow="visible" id="m"><path d="M1.094-3.422V-.75c0 .438-.11.438-.782.438V0c.36-.016.86-.031 1.141-.031.25 0 .766.015 1.11.031v-.313c-.672 0-.782 0-.782-.437v-1.844c0-1.031.719-1.594 1.344-1.594.64 0 .75.532.75 1.11V-.75c0 .438-.11.438-.781.438V0c.344-.016.86-.031 1.125-.031.25 0 .781.015 1.11.031v-.313c-.657 0-.766 0-.766-.437v-1.844c0-1.031.703-1.594 1.343-1.594.625 0 .735.532.735 1.11V-.75c0 .438-.11.438-.782.438V0c.344-.016.86-.031 1.125-.031.266 0 .782.015 1.125.031v-.313c-.515 0-.765 0-.78-.296v-1.907c0-.859 0-1.156-.313-1.515-.141-.172-.47-.375-1.047-.375-.828 0-1.282.593-1.438.984-.14-.875-.875-.984-1.328-.984-.734 0-1.203.422-1.484 1.047v-1.047l-1.407.11v.312c.704 0 .782.062.782.562zm0 0"/></symbol><symbol overflow="visible" id="n"><path d="M1.11-2.516C1.171-4 2.015-4.25 2.36-4.25c1.015 0 1.124 1.344 1.124 1.734zm0 .22h2.78c.22 0 .25 0 .25-.22 0-.984-.546-1.953-1.78-1.953C1.202-4.469.28-3.437.28-2.187.281-.86 1.328.108 2.47.108 3.688.11 4.14-1 4.14-1.187c0-.094-.079-.125-.141-.125-.078 0-.11.062-.125.14C3.531-.14 2.625-.14 2.531-.14c-.5 0-.89-.296-1.125-.671-.297-.47-.297-1.125-.297-1.485zm0 0"/></symbol><symbol overflow="visible" id="o"><path d="M1.766-6.922l-1.438.11v.312c.703 0 .781.063.781.563V-.75c0 .438-.109.438-.78.438V0c.327-.016.859-.031 1.109-.031s.734.015 1.109.031v-.313c-.672 0-.781 0-.781-.437zm0 0"/></symbol><symbol overflow="visible" id="p"><path d="M3.89-4c.094-.11.094-.125.094-.172 0-.125-.093-.125-.265-.125H.53l-.11 1.61h.25c.063-1.016.25-1.391 1.345-1.391h1.14L.375-.312c-.094.109-.094.124-.094.171C.281 0 .344 0 .531 0h3.297L4-1.86h-.25C3.656-.686 3.453-.25 2.297-.25H1.109zm0 0"/></symbol><symbol overflow="visible" id="q"><path d="M1.094-3.422V-.75c0 .438-.11.438-.782.438V0c.36-.016.86-.031 1.141-.031.25 0 .766.015 1.11.031v-.313c-.672 0-.782 0-.782-.437v-1.844c0-1.031.719-1.594 1.344-1.594.64 0 .75.532.75 1.11V-.75c0 .438-.11.438-.781.438V0c.344-.016.86-.031 1.125-.031.25 0 .781.015 1.11.031v-.313c-.516 0-.766 0-.766-.296v-1.907c0-.859 0-1.156-.313-1.515-.14-.172-.469-.375-1.047-.375-.734 0-1.203.422-1.484 1.047v-1.047l-1.407.11v.312c.704 0 .782.062.782.562zm0 0"/></symbol></defs><use height="744.094" width="1052.362" xlink:href="#j" x="223.432" y="134.765"/><use height="744.094" width="1052.362" xlink:href="#k" x="227.361" y="134.765"/><g><use height="744.094" width="1052.362" xlink:href="#l" x="231.51" y="134.765"/><use height="744.094" width="1052.362" xlink:href="#m" x="237.045" y="134.765"/><use height="744.094" width="1052.362" xlink:href="#n" x="245.347" y="134.765"/><use height="744.094" width="1052.362" xlink:href="#o" x="249.774" y="134.765"/><use height="744.094" width="1052.362" xlink:href="#p" x="252.542" y="134.765"/><use height="744.094" width="1052.362" xlink:href="#n" x="256.969" y="134.765"/><use height="744.094" width="1052.362" xlink:href="#q" x="261.396" y="134.765"/></g></g></g><path d="M398.213 851.874h255.936" fill="none" stroke="#000" marker-start="url(#h)" marker-end="url(#i)"/><g transform="translate(-51.271 -40.784)"><rect width="112.693" height="27.473" x="520.466" y="878.921" rx="0" ry="2.007" fill="#fff" stroke="#fff" stroke-width=".76"/><g ns0:text="erstarren" transform="matrix(2.10619 0 0 2.10619 65.198 615.153)"><defs><symbol id="r" overflow="visible"><path d="M1.11-2.516C1.171-4 2.015-4.25 2.36-4.25c1.015 0 1.124 1.344 1.124 1.734zm0 .22h2.78c.22 0 .25 0 .25-.22 0-.984-.546-1.953-1.78-1.953C1.202-4.469.28-3.437.28-2.187.281-.86 1.328.108 2.47.108 3.688.11 4.14-1 4.14-1.187c0-.094-.079-.125-.141-.125-.078 0-.11.062-.125.14C3.531-.14 2.625-.14 2.531-.14c-.5 0-.89-.296-1.125-.671-.297-.47-.297-1.125-.297-1.485zm0 0"/></symbol><symbol id="s" overflow="visible"><path d="M1.672-3.313v-1.093l-1.39.11v.312c.702 0 .78.062.78.562V-.75c0 .438-.109.438-.78.438V0c.39-.016.859-.031 1.14-.031.39 0 .86 0 1.266.031v-.313h-.22c-.734 0-.75-.109-.75-.468v-1.531c0-.985.423-1.876 1.173-1.876.062 0 .093 0 .109.016-.031 0-.234.125-.234.39 0 .266.218.423.437.423a.421.421 0 0 0 .422-.438c0-.312-.313-.61-.734-.61-.735 0-1.094.673-1.22 1.095zm0 0"/></symbol><symbol id="t" overflow="visible"><path d="M2.078-1.938c.219.047 1.031.204 1.031.922 0 .5-.343.907-1.125.907-.843 0-1.203-.563-1.39-1.422-.031-.125-.031-.157-.14-.157-.126 0-.126.063-.126.235v1.328c0 .172 0 .234.11.234C.483.11.5.094.688-.094.703-.109.703-.125.89-.312c.437.406.89.421 1.093.421 1.141 0 1.61-.671 1.61-1.39 0-.516-.297-.828-.422-.938-.328-.328-.719-.406-1.14-.484-.563-.11-1.22-.235-1.22-.813 0-.359.25-.765 1.11-.765 1.094 0 1.156.906 1.172 1.203 0 .094.094.094.11.094.14 0 .14-.047.14-.235v-1.015c0-.157 0-.235-.11-.235-.046 0-.078 0-.203.125-.031.032-.125.125-.172.157-.375-.282-.78-.282-.937-.282-1.219 0-1.594.672-1.594 1.235 0 .343.156.625.422.843.328.25.61.313 1.328.454zm0 0"/></symbol><symbol id="u" overflow="visible"><path d="M1.719-3.984h1.437v-.313H1.72v-1.828h-.25c0 .813-.297 1.875-1.282 1.922v.219h.844v2.75c0 1.218.938 1.343 1.297 1.343.703 0 .985-.703.985-1.343v-.563h-.25v.547c0 .734-.297 1.11-.672 1.11-.672 0-.672-.907-.672-1.079zm0 0"/></symbol><symbol id="v" overflow="visible"><path d="M3.313-.75c.046.39.312.813.78.813.22 0 .829-.141.829-.954v-.562h-.25v.562c0 .579-.25.641-.36.641-.328 0-.375-.453-.375-.5v-1.984c0-.422 0-.813-.359-1.188-.39-.39-.89-.547-1.36-.547-.827 0-1.515.469-1.515 1.125 0 .297.203.469.469.469a.435.435 0 0 0 .453-.453c0-.125-.047-.453-.516-.453.282-.36.766-.469 1.079-.469.5 0 1.062.39 1.062 1.281v.36c-.516.03-1.203.062-1.828.359-.75.344-1 .86-1 1.297 0 .812.969 1.062 1.594 1.062.656 0 1.109-.406 1.296-.859zM3.25-2.39v1c0 .937-.719 1.28-1.172 1.28-.484 0-.89-.343-.89-.843 0-.547.421-1.375 2.062-1.438zm0 0"/></symbol><symbol id="w" overflow="visible"><path d="M1.094-3.422V-.75c0 .438-.11.438-.782.438V0c.36-.016.86-.031 1.141-.031.25 0 .766.015 1.11.031v-.313c-.672 0-.782 0-.782-.437v-1.844c0-1.031.719-1.594 1.344-1.594.64 0 .75.532.75 1.11V-.75c0 .438-.11.438-.781.438V0c.344-.016.86-.031 1.125-.031.25 0 .781.015 1.11.031v-.313c-.516 0-.766 0-.766-.296v-1.907c0-.859 0-1.156-.313-1.515-.14-.172-.469-.375-1.047-.375-.734 0-1.203.422-1.484 1.047v-1.047l-1.407.11v.312c.704 0 .782.062.782.562zm0 0"/></symbol></defs><use height="744.094" width="1052.362" y="134.765" x="223.432" xlink:href="#r"/><use height="744.094" width="1052.362" y="134.765" x="227.859" xlink:href="#s"/><use height="744.094" width="1052.362" y="134.765" x="231.762" xlink:href="#t"/><use height="744.094" width="1052.362" y="134.765" x="235.691" xlink:href="#u"/><use height="744.094" width="1052.362" y="134.765" x="239.565" xlink:href="#v"/><use height="744.094" width="1052.362" y="134.765" x="244.547" xlink:href="#s"/><use height="744.094" width="1052.362" y="134.765" x="248.449" xlink:href="#s"/><use height="744.094" width="1052.362" y="134.765" x="252.351" xlink:href="#r"/><use height="744.094" width="1052.362" y="134.765" x="256.779" xlink:href="#w"/></g></g><g ns0:text="\\centering\nFl\\&quot;{u}ssigkeit \\\\\n(Tropfen)" transform="matrix(2.10619 0 0 2.10619 -5.867 664.112)"><defs><symbol overflow="visible" id="x"><path d="M5.797-6.781H.328v.312h.234c.766 0 .797.11.797.469v5.219c0 .36-.03.469-.796.469H.328V0c.344-.031 1.125-.031 1.516-.031.406 0 1.312 0 1.672.031v-.313h-.329c-.937 0-.937-.124-.937-.468v-2.453h.844c.969 0 1.062.312 1.062 1.156h.25v-2.64h-.25c0 .843-.093 1.171-1.062 1.171H2.25v-2.531c0-.328.016-.39.484-.39h1.188c1.5 0 1.75.562 1.906 1.937h.25zm0 0"/></symbol><symbol overflow="visible" id="y"><path d="M1.766-6.922l-1.438.11v.312c.703 0 .781.063.781.563V-.75c0 .438-.109.438-.78.438V0c.327-.016.859-.031 1.109-.031s.734.015 1.109.031v-.313c-.672 0-.781 0-.781-.437zm0 0"/></symbol><symbol overflow="visible" id="z"><path d="M2.031-6.172c0-.234-.203-.5-.5-.5-.281 0-.5.219-.5.5s.219.5.5.5c.297 0 .5-.266.5-.5zm1.922 0c0-.281-.219-.5-.5-.5-.297 0-.5.266-.5.5 0 .234.203.5.5.5.281 0 .5-.219.5-.5zm0 0"/></symbol><symbol overflow="visible" id="A"><path d="M3.89-.781v.89L5.329 0v-.313c-.687 0-.766-.062-.766-.562v-3.531l-1.468.11v.312c.687 0 .781.062.781.562v1.766c0 .875-.484 1.547-1.219 1.547-.828 0-.875-.47-.875-.985v-3.312l-1.468.11v.312c.78 0 .78.03.78.906v1.5c0 .781 0 1.687 1.516 1.687.563 0 1-.28 1.282-.89zm0 0"/></symbol><symbol overflow="visible" id="B"><path d="M2.078-1.938c.219.047 1.031.204 1.031.922 0 .5-.343.907-1.125.907-.843 0-1.203-.563-1.39-1.422-.031-.125-.031-.157-.14-.157-.126 0-.126.063-.126.235v1.328c0 .172 0 .234.11.234C.483.11.5.094.688-.094.703-.109.703-.125.89-.312c.437.406.89.421 1.093.421 1.141 0 1.61-.671 1.61-1.39 0-.516-.297-.828-.422-.938-.328-.328-.719-.406-1.14-.484-.563-.11-1.22-.235-1.22-.813 0-.359.25-.765 1.11-.765 1.094 0 1.156.906 1.172 1.203 0 .094.094.094.11.094.14 0 .14-.047.14-.235v-1.015c0-.157 0-.235-.11-.235-.046 0-.078 0-.203.125-.031.032-.125.125-.172.157-.375-.282-.78-.282-.937-.282-1.219 0-1.594.672-1.594 1.235 0 .343.156.625.422.843.328.25.61.313 1.328.454zm0 0"/></symbol><symbol overflow="visible" id="C"><path d="M1.766-4.406l-1.391.11v.312c.64 0 .734.062.734.546V-.75c0 .438-.109.438-.78.438V0c.312-.016.859-.031 1.093-.031.36 0 .703.015 1.047.031v-.313c-.672 0-.703-.046-.703-.437zm.03-1.735a.514.514 0 0 0-.515-.53.537.537 0 0 0-.531.53c0 .266.219.532.531.532a.514.514 0 0 0 .516-.532zm0 0"/></symbol><symbol overflow="visible" id="D"><path d="M2.219-1.719c-.875 0-.875-1-.875-1.218 0-.266.015-.594.156-.844.078-.11.313-.39.719-.39.86 0 .86.984.86 1.218 0 .265 0 .594-.157.844-.078.109-.313.39-.703.39zm-1.156.39c0-.03 0-.265.156-.468.39.281.812.313 1 .313.922 0 1.61-.688 1.61-1.454 0-.374-.157-.734-.407-.968.36-.344.719-.39.89-.39.032 0 .079 0 .11.015-.11.031-.172.14-.172.265 0 .172.14.282.297.282a.28.28 0 0 0 .281-.297c0-.172-.11-.485-.5-.485-.203 0-.64.063-1.062.47a1.652 1.652 0 0 0-1.047-.36c-.938 0-1.625.687-1.625 1.453 0 .437.219.812.469 1.031-.125.14-.313.469-.313.828 0 .313.14.688.453.89-.61.157-.922.595-.922.985 0 .719.985 1.266 2.203 1.266 1.172 0 2.204-.5 2.204-1.281 0-.344-.125-.86-.641-1.141-.531-.266-1.11-.266-1.719-.266-.25 0-.672 0-.75-.015-.312-.047-.516-.344-.516-.672zM2.5 1.829C1.484 1.828.797 1.312.797.781c0-.453.375-.828.812-.844h.594c.86 0 1.969 0 1.969.844 0 .547-.703 1.047-1.672 1.047zm0 0"/></symbol><symbol overflow="visible" id="E"><path d="M1.063-.75c0 .438-.11.438-.782.438V0c.328-.016.797-.031 1.078-.031.313 0 .704.015 1.11.031v-.313c-.672 0-.781 0-.781-.437v-1.031l.64-.547c.766 1.047 1.188 1.61 1.188 1.797 0 .187-.172.219-.36.219V0c.266-.016.86-.031 1.078-.031.282 0 .579.015.86.031v-.313c-.375 0-.594 0-.969-.53L2.859-2.626c-.015-.016-.062-.078-.062-.11 0-.03.719-.64.812-.718.625-.5 1.047-.531 1.25-.531v-.313c-.28.031-.406.031-.687.031-.36 0-.984-.015-1.125-.03v.312c.187 0 .297.109.297.25 0 .203-.14.312-.219.39L1.719-2.14v-4.78L.28-6.813v.312c.703 0 .781.063.781.563zm0 0"/></symbol><symbol overflow="visible" id="F"><path d="M1.11-2.516C1.171-4 2.015-4.25 2.36-4.25c1.015 0 1.124 1.344 1.124 1.734zm0 .22h2.78c.22 0 .25 0 .25-.22 0-.984-.546-1.953-1.78-1.953C1.202-4.469.28-3.437.28-2.187.281-.86 1.328.108 2.47.108 3.688.11 4.14-1 4.14-1.187c0-.094-.079-.125-.141-.125-.078 0-.11.062-.125.14C3.531-.14 2.625-.14 2.531-.14c-.5 0-.89-.296-1.125-.671-.297-.47-.297-1.125-.297-1.485zm0 0"/></symbol><symbol overflow="visible" id="G"><path d="M1.719-3.984h1.437v-.313H1.72v-1.828h-.25c0 .813-.297 1.875-1.282 1.922v.219h.844v2.75c0 1.218.938 1.343 1.297 1.343.703 0 .985-.703.985-1.343v-.563h-.25v.547c0 .734-.297 1.11-.672 1.11-.672 0-.672-.907-.672-1.079zm0 0"/></symbol><symbol overflow="visible" id="H"><path d="M3.297 2.39c0-.03 0-.046-.172-.218C1.891.922 1.562-.968 1.562-2.5c0-1.734.375-3.469 1.61-4.703.125-.125.125-.14.125-.172 0-.078-.031-.11-.094-.11-.11 0-1 .688-1.594 1.954C1.11-4.438.984-3.328.984-2.5c0 .781.11 1.984.657 3.125C2.25 1.844 3.094 2.5 3.203 2.5c.063 0 .094-.031.094-.11zm0 0"/></symbol><symbol overflow="visible" id="I"><path d="M6.64-6.75H.548L.359-4.5h.25C.75-6.11.891-6.438 2.406-6.438c.172 0 .438 0 .531.016.22.047.22.156.22.375V-.78c0 .328 0 .469-1.048.469h-.406V0c.406-.031 1.422-.031 1.89-.031.454 0 1.485 0 1.891.031v-.313h-.406c-1.047 0-1.047-.14-1.047-.468v-5.266c0-.187 0-.328.188-.375.11-.016.375-.016.562-.016 1.516 0 1.657.329 1.797 1.938h.25zm0 0"/></symbol><symbol overflow="visible" id="J"><path d="M1.672-3.313v-1.093l-1.39.11v.312c.702 0 .78.062.78.562V-.75c0 .438-.109.438-.78.438V0c.39-.016.859-.031 1.14-.031.39 0 .86 0 1.266.031v-.313h-.22c-.734 0-.75-.109-.75-.468v-1.531c0-.985.423-1.876 1.173-1.876.062 0 .093 0 .109.016-.031 0-.234.125-.234.39 0 .266.218.423.437.423a.421.421 0 0 0 .422-.438c0-.312-.313-.61-.734-.61-.735 0-1.094.673-1.22 1.095zm0 0"/></symbol><symbol overflow="visible" id="K"><path d="M4.688-2.14c0-1.266-.985-2.329-2.188-2.329C1.25-4.469.281-3.375.281-2.14A2.22 2.22 0 0 0 2.484.11c1.204 0 2.204-.984 2.204-2.25zM2.5-.14c-.438 0-.875-.204-1.14-.672-.25-.438-.25-1.047-.25-1.407 0-.39 0-.922.234-1.36a1.347 1.347 0 0 1 1.14-.671c.438 0 .86.219 1.125.656.266.422.266 1 .266 1.375 0 .36 0 .906-.219 1.344-.234.453-.672.734-1.156.734zm0 0"/></symbol><symbol overflow="visible" id="L"><path d="M1.719-3.75v-.656l-1.438.11v.312c.703 0 .781.062.781.5v4.656c0 .453-.109.453-.78.453v.313c.343-.016.859-.032 1.109-.032.28 0 .78.016 1.125.032v-.313c-.657 0-.766 0-.766-.453V-.594c.047.172.469.703 1.219.703 1.187 0 2.219-.984 2.219-2.265 0-1.266-.954-2.25-2.079-2.25-.78 0-1.203.437-1.39.656zm.031 2.61v-2.22c.281-.515.766-.796 1.281-.796.735 0 1.328.875 1.328 2C4.36-.953 3.672-.11 2.938-.11c-.407 0-.782-.204-1.047-.61-.141-.203-.141-.219-.141-.422zm0 0"/></symbol><symbol overflow="visible" id="M"><path d="M1.75-4.297v-1.156c0-.875.469-1.36.906-1.36.031 0 .188 0 .328.079a.443.443 0 0 0-.296.421c0 .22.156.422.437.422s.438-.203.438-.437c0-.375-.376-.703-.907-.703-.687 0-1.547.531-1.547 1.593v1.141H.33v.313h.78V-.75c0 .438-.109.438-.765.438V0c.39-.016.86-.031 1.125-.031.406 0 .875 0 1.265.031v-.313h-.203c-.734 0-.75-.109-.75-.468v-3.203h1.125v-.313zm0 0"/></symbol><symbol overflow="visible" id="N"><path d="M1.094-3.422V-.75c0 .438-.11.438-.782.438V0c.36-.016.86-.031 1.141-.031.25 0 .766.015 1.11.031v-.313c-.672 0-.782 0-.782-.437v-1.844c0-1.031.719-1.594 1.344-1.594.64 0 .75.532.75 1.11V-.75c0 .438-.11.438-.781.438V0c.344-.016.86-.031 1.125-.031.25 0 .781.015 1.11.031v-.313c-.516 0-.766 0-.766-.296v-1.907c0-.859 0-1.156-.313-1.515-.14-.172-.469-.375-1.047-.375-.734 0-1.203.422-1.484 1.047v-1.047l-1.407.11v.312c.704 0 .782.062.782.562zm0 0"/></symbol><symbol overflow="visible" id="O"><path d="M2.875-2.5c0-.766-.11-1.969-.656-3.11C1.625-6.827.766-7.483.672-7.483a.107.107 0 0 0-.11.109c0 .031 0 .047.188.234.984.985 1.547 2.563 1.547 4.641 0 1.719-.36 3.469-1.594 4.719-.14.125-.14.14-.14.172 0 .062.046.109.109.109.094 0 1-.688 1.578-1.953.516-1.094.625-2.203.625-3.047zm0 0"/></symbol></defs><use height="744.094" width="1052.362" xlink:href="#x" x="372.055" y="134.765"/><use height="744.094" width="1052.362" xlink:href="#y" x="378.559" y="134.765"/><use height="744.094" width="1052.362" xlink:href="#z" x="381.605" y="134.765"/><use height="744.094" width="1052.362" xlink:href="#A" x="381.326" y="134.765"/><use height="744.094" width="1052.362" xlink:href="#B" x="386.861" y="134.765"/><use height="744.094" width="1052.362" xlink:href="#B" x="390.791" y="134.765"/><use height="744.094" width="1052.362" xlink:href="#C" x="394.72" y="134.765"/><use height="744.094" width="1052.362" xlink:href="#D" x="397.488" y="134.765"/><use height="744.094" width="1052.362" xlink:href="#E" x="402.469" y="134.765"/><g><use height="744.094" width="1052.362" xlink:href="#F" x="407.448" y="134.765"/><use height="744.094" width="1052.362" xlink:href="#C" x="411.876" y="134.765"/><use height="744.094" width="1052.362" xlink:href="#G" x="414.643" y="134.765"/></g><g><use height="744.094" width="1052.362" xlink:href="#H" x="374.518" y="146.72"/><use height="744.094" width="1052.362" xlink:href="#I" x="378.392" y="146.72"/></g><g><use height="744.094" width="1052.362" xlink:href="#J" x="384.761" y="146.72"/><use height="744.094" width="1052.362" xlink:href="#K" x="388.663" y="146.72"/><use height="744.094" width="1052.362" xlink:href="#L" x="393.644" y="146.72"/><use height="744.094" width="1052.362" xlink:href="#M" x="399.179" y="146.72"/><use height="744.094" width="1052.362" xlink:href="#F" x="402.224" y="146.72"/><use height="744.094" width="1052.362" xlink:href="#N" x="406.651" y="146.72"/><use height="744.094" width="1052.362" xlink:href="#O" x="412.187" y="146.72"/></g></g><g transform="translate(-36.559 -74.784)"><use height="744.094" width="1052.362" transform="translate(554.817 34.064)" xlink:href="#P"/><use height="744.094" width="1052.362" transform="translate(619.806 -4.293)" xlink:href="#Q"/><use xlink:href="#Q" transform="translate(606.553 4.847)" width="1052.362" height="744.094"/><use height="744.094" width="1052.362" transform="translate(593.3 14.444)" xlink:href="#Q"/><use xlink:href="#Q" transform="translate(573.648 26.327)" width="1052.362" height="744.094"/><use height="744.094" width="1052.362" transform="translate(559.938 44.15)" xlink:href="#Q"/><use xlink:href="#R" transform="translate(594.323 -30.772)" width="1052.362" height="744.094"/><use xlink:href="#P" transform="translate(543.61 9.973)" width="1052.362" height="744.094"/><use xlink:href="#S" transform="translate(774.664 28.49)" width="1052.362" height="744.094"/><use xlink:href="#T" transform="matrix(.92667 0 0 .92667 632.112 93.153)" width="1052.362" height="744.094"/><use height="1052.362" width="744.094" transform="translate(561.73 7.11)" xlink:href="#U"/><use xlink:href="#V" transform="translate(593.785 -18.29)" width="1052.362" height="744.094"/><use xlink:href="#W" transform="translate(617.342 -31.856)" width="1052.362" height="744.094"/><use xlink:href="#X" transform="translate(674.999 -47.838)" width="1052.362" height="744.094"/><use height="1052.362" width="744.094" transform="translate(583.389 29.535)" xlink:href="#Y"/><use xlink:href="#Z" transform="translate(579.348 -28.505)" width="1052.362" height="744.094"/><use xlink:href="#aa" transform="translate(587.71 -27.273)" width="1052.362" height="744.094"/><use xlink:href="#ab" transform="translate(562.376 62.948)" width="1052.362" height="744.094"/><use xlink:href="#ac" transform="translate(583.71 -29.273)" width="1052.362" height="744.094"/><use height="1052.362" width="744.094" transform="translate(592.655 1.316)" xlink:href="#ad"/><use xlink:href="#W" transform="translate(818.562 -5.62)" width="1052.362" height="744.094"/><use xlink:href="#ae" transform="translate(587.71 -27.273)" width="1052.362" height="744.094"/><use xlink:href="#af" transform="translate(565.121 60.716)" width="1052.362" height="744.094"/><use xlink:href="#ag" transform="translate(583.51 -22.426)" width="1052.362" height="744.094"/><use xlink:href="#ah" transform="translate(562.865 58.488)" width="1052.362" height="744.094"/><use xlink:href="#ai" transform="translate(587.596 -20.99)" width="1052.362" height="744.094"/><use xlink:href="#aj" transform="translate(558.61 57.745)" width="1052.362" height="744.094"/><use xlink:href="#ak" transform="translate(587.71 -27.273)" width="1052.362" height="744.094"/><use xlink:href="#al" transform="translate(564.643 63.502)" width="1052.362" height="744.094"/><use xlink:href="#am" transform="translate(596.85 -26.93)" width="1052.362" height="744.094"/><use xlink:href="#an" transform="translate(587.71 -27.273)" width="1052.362" height="744.094"/><use xlink:href="#ao" transform="translate(578.312 41.688)" width="1052.362" height="744.094"/><use xlink:href="#ap" transform="translate(594.256 4.113)" width="1052.362" height="744.094"/><use xlink:href="#aq" transform="translate(575.061 7.77)" width="1052.362" height="744.094"/><use height="744.094" width="1052.362" transform="translate(575.29 24.221)" xlink:href="#aq"/><use xlink:href="#ar" transform="translate(568.059 25.445)" width="1052.362" height="744.094"/><use xlink:href="#as" transform="translate(591.422 36.423)" width="1052.362" height="744.094"/><use xlink:href="#at" transform="translate(565.921 -2.742)" width="1052.362" height="744.094"/><use xlink:href="#au" transform="translate(564.093 4.92)" width="1052.362" height="744.094"/><use xlink:href="#av" transform="translate(615.44 -19.047)" width="1052.362" height="744.094"/><use xlink:href="#aw" transform="translate(673.856 -47.61)" width="1052.362" height="744.094"/><use xlink:href="#ax" transform="translate(561.351 24.907)" width="1052.362" height="744.094"/><use xlink:href="#ay" transform="translate(678.492 31.99)" width="1052.362" height="744.094"/><use xlink:href="#az" transform="translate(621.22 10.968)" width="1052.362" height="744.094"/><use xlink:href="#aA" transform="translate(713.077 -10.054)" width="1052.362" height="744.094"/><use xlink:href="#aB" transform="translate(548.702 16.224)" width="1052.362" height="744.094"/><use xlink:href="#aC" transform="translate(607.362 54.988)" width="1052.362" height="744.094"/><use xlink:href="#aD" transform="translate(876.522 54.277)" width="1052.362" height="744.094"/><use xlink:href="#aE" transform="translate(588.167 -14.02)" width="1052.362" height="744.094"/><use xlink:href="#aF" transform="translate(689 94.55)" width="1052.362" height="744.094"/><use xlink:href="#aG" transform="translate(660.75 18.28)" width="1052.362" height="744.094"/><use xlink:href="#aH" transform="translate(582.226 -17.219)" width="1052.362" height="744.094"/><use xlink:href="#aI" transform="translate(600.506 24.597)" width="1052.362" height="744.094"/><use height="1052.362" width="744.094" transform="translate(868.587 -12.126)" xlink:href="#W"/><use xlink:href="#aJ" transform="translate(838.08 128.041)" width="1052.362" height="744.094"/><use xlink:href="#aK" transform="translate(578.57 -23.16)" width="1052.362" height="744.094"/><use xlink:href="#aL" transform="translate(705.634 94.712)" width="1052.362" height="744.094"/><use height="744.094" width="1052.362" transform="translate(639.27 103.74)" xlink:href="#aM"/><use xlink:href="#aN" transform="translate(579.992 95.196)" width="1052.362" height="744.094"/><use xlink:href="#aO" transform="translate(397.476 25.666)" width="1052.362" height="744.094"/><use xlink:href="#aP" transform="translate(832.475 42.656)" width="1052.362" height="744.094"/><use xlink:href="#aQ" transform="translate(595.096 20.33)" width="1052.362" height="744.094"/><use xlink:href="#aR" transform="translate(529.079 16.946)" width="1052.362" height="744.094"/><use xlink:href="#aM" transform="translate(610.25 65.809)" width="1052.362" height="744.094"/><use xlink:href="#aS" transform="translate(553.354 13.653)" width="1052.362" height="744.094"/><use xlink:href="#aT" transform="translate(542.842 34.275)" width="1052.362" height="744.094"/><use xlink:href="#aU" transform="translate(588.32 29.965)" width="1052.362" height="744.094"/><use xlink:href="#aV" transform="translate(581.464 20.464)" width="1052.362" height="744.094"/><use xlink:href="#aW" transform="translate(560.437)" width="1052.362" height="744.094"/><use xlink:href="#aX" transform="translate(587.71 -27.273)" width="1052.362" height="744.094"/><use xlink:href="#aY" transform="translate(532.103 44.787)" width="1052.362" height="744.094"/><use xlink:href="#aZ" transform="translate(579.86 17.366)" width="1052.362" height="744.094"/><use xlink:href="#ba" transform="translate(578.723 38.792)" width="1052.362" height="744.094"/><use height="1052.362" width="744.094" transform="translate(559.98 -24.303)" xlink:href="#bb"/><use xlink:href="#Q" transform="translate(584.617 41.408)" width="1052.362" height="744.094"/><g transform="matrix(.40277 0 0 .40277 665.748 799.3)" stroke-width="3.228" stroke-linecap="round" stroke-linejoin="round"><circle cx="125.714" cy="388.076" r="32.857" fill="gray" stroke="#000"/><circle transform="translate(.442 -1.768)" cx="112.064" cy="371.077" r="3.094" fill="#fff" stroke="#999"/></g><use height="1052.362" width="744.094" transform="translate(699.711 -22.426)" xlink:href="#W"/><use height="1052.362" width="744.094" transform="translate(731.815 -56.212)" xlink:href="#bc"/><use height="744.094" width="1052.362" transform="translate(541.586 13.253)" xlink:href="#aW"/><use height="1052.362" width="744.094" transform="translate(718.333 -31.42)" xlink:href="#a"/><use height="1052.362" width="744.094" transform="translate(845.736 55.836)" xlink:href="#f"/><use height="1052.362" width="744.094" transform="translate(589.711 21.801)" xlink:href="#bd"/><use height="1052.362" width="744.094" transform="translate(829.088 42.285)" xlink:href="#be"/><use height="1052.362" width="744.094" transform="translate(578.46 44.201)" xlink:href="#bf"/><use height="1052.362" width="744.094" transform="translate(559.543 12.466)" xlink:href="#b"/><use height="1052.362" width="744.094" transform="translate(561.846 9.14)" xlink:href="#bg"/><use height="1052.362" width="744.094" transform="translate(585.72 23.914)" xlink:href="#bh"/><use height="1052.362" width="744.094" transform="translate(636.2 21.51)" xlink:href="#bi"/><use height="1052.362" width="744.094" transform="translate(560.059 6.398)" xlink:href="#bj"/><use height="1052.362" width="744.094" transform="translate(560.516 5.027)" xlink:href="#bk"/><use height="1052.362" width="744.094" transform="translate(588.642 30.246)" xlink:href="#bl"/><use height="1052.362" width="744.094" transform="translate(595.401 22.142)" xlink:href="#bm"/><use height="1052.362" width="744.094" transform="translate(604.042 7.428)" xlink:href="#e"/><use height="1052.362" width="744.094" transform="translate(708.861 33.508)" xlink:href="#bn"/><use xlink:href="#bo" transform="translate(588.841 -21.946)" width="1052.362" height="744.094"/><use height="1052.362" width="744.094" transform="translate(590.6 7.46)" xlink:href="#bp"/><use height="1052.362" width="744.094" transform="translate(568.105 40.402)" xlink:href="#bq"/><use height="1052.362" width="744.094" transform="translate(560.026 47.429)" xlink:href="#br"/><use height="1052.362" width="744.094" transform="translate(620.204 50.594)" xlink:href="#bs"/><use height="1052.362" width="744.094" transform="translate(572.412 15.46)" xlink:href="#bt"/><use height="1052.362" width="744.094" transform="translate(611.576 54.024)" xlink:href="#bu"/><use height="1052.362" width="744.094" transform="translate(653.723 43.769)" xlink:href="#bv"/><use height="1052.362" width="744.094" transform="translate(595.512 -7.965)" xlink:href="#bw"/><use height="1052.362" width="744.094" transform="translate(578.6 39.37)" xlink:href="#bx"/><use height="1052.362" width="744.094" transform="translate(570.1 67.153)" xlink:href="#by"/><use height="1052.362" width="744.094" transform="translate(597.912 41.588)" xlink:href="#g"/><use height="1052.362" width="744.094" transform="translate(565.007 43.416)" xlink:href="#bz"/><use height="1052.362" width="744.094" transform="translate(561.808 9.14)" xlink:href="#bA"/><use height="1052.362" width="744.094" transform="translate(560.894 10.511)" xlink:href="#bB"/><use height="1052.362" width="744.094" transform="translate(563.636 10.054)" xlink:href="#d"/><use height="1052.362" width="744.094" transform="translate(562.722 7.312)" xlink:href="#c"/></g><g transform="translate(-36.559 -62.544)"><use height="744.094" width="1052.362" transform="translate(13.637 -41.91)" id="X" xlink:href="#W"/><use height="744.094" width="1052.362" transform="translate(0 -27.273)" id="aD" xlink:href="#X"/><use height="744.094" width="1052.362" transform="translate(231.822 -14.637)" id="Z" xlink:href="#W"/><use height="744.094" width="1052.362" transform="translate(0 -27.273)" id="aa" xlink:href="#Z"/><use height="744.094" width="1052.362" transform="translate(0 -27.273)" id="ab" xlink:href="#aa"/><use height="744.094" width="1052.362" transform="translate(-27.273 54.546)" id="ac" xlink:href="#ab"/><use height="744.094" width="1052.362" transform="translate(0 -27.273)" id="ae" xlink:href="#ac"/><use height="744.094" width="1052.362" transform="translate(0 -27.273)" id="af" xlink:href="#ae"/><use height="744.094" width="1052.362" transform="translate(-27.273 54.546)" id="ag" xlink:href="#af"/><use height="744.094" width="1052.362" transform="translate(0 -27.273)" id="aX" xlink:href="#ag"/><use height="744.094" width="1052.362" transform="translate(0 -27.273)" id="ah" xlink:href="#aX"/><use height="744.094" width="1052.362" transform="translate(-27.273 54.546)" id="bo" xlink:href="#ah"/><use height="744.094" width="1052.362" transform="translate(0 -27.273)" id="ai" xlink:href="#bo"/><use height="744.094" width="1052.362" transform="translate(0 -27.273)" id="aj" xlink:href="#ai"/><use height="744.094" width="1052.362" transform="translate(-27.273 54.546)" id="R" xlink:href="#aj"/><use height="744.094" width="1052.362" transform="translate(0 -27.273)" id="ak" xlink:href="#R"/><use height="744.094" width="1052.362" transform="translate(0 -27.273)" id="al" xlink:href="#ak"/><use height="744.094" width="1052.362" transform="translate(-27.273 54.546)" id="am" xlink:href="#al"/><use height="744.094" width="1052.362" transform="translate(0 -27.273)" id="an" xlink:href="#am"/><use height="744.094" width="1052.362" transform="translate(0 -27.273)" id="ao" xlink:href="#an"/><use height="744.094" width="1052.362" transform="translate(-27.273)" id="ar" xlink:href="#ao"/><use height="744.094" width="1052.362" transform="translate(0 27.273)" id="as" xlink:href="#ar"/><use height="744.094" width="1052.362" transform="translate(0 27.273)" id="au" xlink:href="#as"/><use height="744.094" width="1052.362" transform="translate(-27.273)" id="at" xlink:href="#au"/><use height="744.094" width="1052.362" transform="translate(-27.273)" id="av" xlink:href="#at"/><use height="744.094" width="1052.362" transform="translate(27.273 -27.273)" id="aw" xlink:href="#av"/><use height="744.094" width="1052.362" transform="translate(0 -27.273)" xlink:href="#aw"/><use height="744.094" width="1052.362" transform="translate(-54.546)" id="aF" xlink:href="#ay"/><use height="744.094" width="1052.362" transform="translate(-27.273)" id="ax" xlink:href="#bC"/><use height="744.094" width="1052.362" transform="translate(-27.273)" id="aB" xlink:href="#ax"/><use height="744.094" width="1052.362" transform="translate(-54.546)" id="az" xlink:href="#aB"/><use height="744.094" width="1052.362" transform="translate(-27.273)" id="ay" xlink:href="#az"/><use height="744.094" width="1052.362" transform="translate(272.731 29.273)" id="aE" xlink:href="#aD"/><use height="744.094" width="1052.362" transform="translate(0 -27.273)" id="P" xlink:href="#aE"/><use height="744.094" width="1052.362" transform="translate(0 -27.273)" id="aC" xlink:href="#P"/><use xlink:href="#aC" id="bC" transform="translate(0 -27.273)" width="1052.362" height="744.094"/><use height="744.094" width="1052.362" transform="translate(-27.273)" id="aG" xlink:href="#aF"/><use height="744.094" width="1052.362" transform="translate(-27.273)" id="aJ" xlink:href="#aG"/><use height="744.094" width="1052.362" transform="matrix(.92667 0 0 .92667 53.77 62.077)" id="aR" xlink:href="#T"/><use height="744.094" width="1052.362" transform="translate(231.822 93.456)" id="aH" xlink:href="#aJ"/><use height="744.094" width="1052.362" transform="translate(0 -27.273)" id="aI" xlink:href="#aH"/><use height="744.094" width="1052.362" transform="translate(0 -27.273)" id="aN" xlink:href="#aI"/><use height="744.094" width="1052.362" transform="translate(-13.637 69.183)" id="V" xlink:href="#aN"/><use height="744.094" width="1052.362" transform="translate(0 -27.273)" id="aK" xlink:href="#V"/><use height="744.094" width="1052.362" transform="translate(0 -27.273)" id="aQ" xlink:href="#aK"/><use height="744.094" width="1052.362" transform="translate(-231.822 -13.637)" id="aP" xlink:href="#aO"/><use height="744.094" width="1052.362" transform="translate(-13.637 -40.91)" id="T" xlink:href="#aQ"/><use height="744.094" width="1052.362" transform="translate(204.548 13.637)" id="aO" xlink:href="#S"/><use height="744.094" width="1052.362" transform="translate(-54.546)" id="aM" xlink:href="#aR"/><use height="744.094" width="1052.362" transform="translate(-27.273)" id="aS" xlink:href="#aM"/><use height="744.094" width="1052.362" transform="translate(-27.273)" id="aT" xlink:href="#aS"/><use height="744.094" width="1052.362" transform="translate(-27.273)" id="aL" xlink:href="#aT"/><use height="744.094" width="1052.362" transform="translate(-27.273)" id="ap" xlink:href="#aL"/><use height="744.094" width="1052.362" transform="translate(-27.273)" id="aU" xlink:href="#ap"/><use height="744.094" width="1052.362" transform="translate(-27.273)" id="S" xlink:href="#aU"/><use height="744.094" width="1052.362" transform="translate(204.548 13.637)" id="aV" xlink:href="#aP"/><use height="744.094" width="1052.362" transform="translate(-27.273)" id="aW" xlink:href="#aV"/><use height="744.094" width="1052.362" transform="translate(-27.273)" id="aY" xlink:href="#aW"/><use height="744.094" width="1052.362" transform="translate(-27.273)" id="aZ" xlink:href="#aY"/><use height="744.094" width="1052.362" transform="translate(-27.273)" id="aq" xlink:href="#aZ"/><use height="744.094" width="1052.362" transform="translate(-27.273)" id="ba" xlink:href="#aq"/><use height="744.094" width="1052.362" transform="translate(-27.273)" id="Q" xlink:href="#ba"/><use height="744.094" width="1052.362" transform="translate(-27.273)" xlink:href="#aA"/><use height="744.094" width="1052.362" transform="translate(-27.273)" id="aA" xlink:href="#Q"/><g transform="matrix(.40277 0 0 .40277 65.241 799.3)" id="W" stroke-width="3.228"><circle cx="125.714" cy="388.076" r="32.857" fill="gray" stroke="#000" stroke-linecap="round" stroke-linejoin="round"/><circle transform="translate(.442 -1.768)" cx="112.064" cy="371.077" r="3.094" fill="#fff" filter="url(#bD)"/></g><use xlink:href="#W" id="U" transform="translate(109.093 -27.273)" width="744.094" height="1052.362"/><use xlink:href="#U" id="bt" transform="translate(-27.273)" width="744.094" height="1052.362"/><use xlink:href="#bt" id="bc" transform="translate(-27.273)" width="744.094" height="1052.362"/><use xlink:href="#bc" id="a" transform="translate(-27.273)" width="744.094" height="1052.362"/><use xlink:href="#a" id="be" transform="translate(-27.273)" width="744.094" height="1052.362"/><use xlink:href="#be" id="b" transform="translate(245.458 27.273)" width="744.094" height="1052.362"/><use xlink:href="#b" id="bg" transform="translate(-27.273)" width="744.094" height="1052.362"/><use xlink:href="#bg" id="c" transform="translate(-27.273)" width="744.094" height="1052.362"/><use xlink:href="#c" id="bj" transform="translate(-27.273)" width="744.094" height="1052.362"/><use xlink:href="#bj" id="bk" transform="translate(-27.273)" width="744.094" height="1052.362"/><use xlink:href="#bk" id="bB" transform="translate(-27.273)" width="744.094" height="1052.362"/><use xlink:href="#bB" id="bA" transform="translate(-27.273)" width="744.094" height="1052.362"/><use xlink:href="#bA" id="d" transform="translate(-27.273)" width="744.094" height="1052.362"/><use xlink:href="#d" transform="translate(-27.273)" width="744.094" height="1052.362"/><use xlink:href="#bl" id="bm" transform="translate(-27.273)" width="744.094" height="1052.362"/><use xlink:href="#bm" id="e" transform="translate(-27.273)" width="744.094" height="1052.362"/><use xlink:href="#e" id="bh" transform="translate(-27.273)" width="744.094" height="1052.362"/><use xlink:href="#bh" id="br" transform="translate(-27.273)" width="744.094" height="1052.362"/><use xlink:href="#br" id="bu" transform="translate(-27.273)" width="744.094" height="1052.362"/><use xlink:href="#bu" id="bn" transform="translate(-27.273)" width="744.094" height="1052.362"/><use xlink:href="#bn" id="bs" transform="translate(-27.273)" width="744.094" height="1052.362"/><use xlink:href="#bs" id="f" transform="translate(-27.273)" width="744.094" height="1052.362"/><use xlink:href="#f" id="Y" transform="translate(245.458 27.273)" width="744.094" height="1052.362"/><use xlink:href="#Y" id="bd" transform="translate(0 27.273)" width="744.094" height="1052.362"/><use xlink:href="#bd" id="bf" transform="translate(-27.273 -27.273)" width="744.094" height="1052.362"/><use xlink:href="#bf" id="ad" transform="translate(0 27.273)" width="744.094" height="1052.362"/><use xlink:href="#ad" id="bx" transform="translate(-27.273 -27.273)" width="744.094" height="1052.362"/><use xlink:href="#bx" id="bw" transform="translate(0 27.273)" width="744.094" height="1052.362"/><use xlink:href="#bw" id="bq" transform="translate(-27.273 -27.273)" width="744.094" height="1052.362"/><use xlink:href="#bq" id="bp" transform="translate(0 27.273)" width="744.094" height="1052.362"/><use xlink:href="#bp" id="by" transform="translate(-27.273 -27.273)" width="744.094" height="1052.362"/><use xlink:href="#by" id="bb" transform="translate(0 27.273)" width="744.094" height="1052.362"/><use xlink:href="#bb" id="g" transform="translate(-27.273 -27.273)" width="744.094" height="1052.362"/><use xlink:href="#g" id="bi" transform="translate(-27.273)" width="744.094" height="1052.362"/><use xlink:href="#bi" id="bz" transform="translate(-27.273)" width="744.094" height="1052.362"/><use xlink:href="#bz" id="bv" transform="translate(-27.273)" width="744.094" height="1052.362"/><use xlink:href="#bv" transform="translate(-27.273)" width="744.094" height="1052.362"/><use xlink:href="#W" id="bl" transform="translate(218.185 -81.82)" width="744.094" height="1052.362"/><use xlink:href="#W" transform="translate(245.458 -81.82)" width="744.094" height="1052.362"/></g><g ns0:text="\\centering\nFeststoff \\\\\n(Kristall)" transform="matrix(2.10619 0 0 2.10619 -610.035 664.343)"><defs><symbol id="bE" overflow="visible"><path d="M5.797-6.781H.328v.312h.234c.766 0 .797.11.797.469v5.219c0 .36-.03.469-.796.469H.328V0c.344-.031 1.125-.031 1.516-.031.406 0 1.312 0 1.672.031v-.313h-.329c-.937 0-.937-.124-.937-.468v-2.453h.844c.969 0 1.062.312 1.062 1.156h.25v-2.64h-.25c0 .843-.093 1.171-1.062 1.171H2.25v-2.531c0-.328.016-.39.484-.39h1.188c1.5 0 1.75.562 1.906 1.937h.25zm0 0"/></symbol><symbol id="bF" overflow="visible"><path d="M1.11-2.516C1.171-4 2.015-4.25 2.36-4.25c1.015 0 1.124 1.344 1.124 1.734zm0 .22h2.78c.22 0 .25 0 .25-.22 0-.984-.546-1.953-1.78-1.953C1.202-4.469.28-3.437.28-2.187.281-.86 1.328.108 2.47.108 3.688.11 4.14-1 4.14-1.187c0-.094-.079-.125-.141-.125-.078 0-.11.062-.125.14C3.531-.14 2.625-.14 2.531-.14c-.5 0-.89-.296-1.125-.671-.297-.47-.297-1.125-.297-1.485zm0 0"/></symbol><symbol id="bG" overflow="visible"><path d="M2.078-1.938c.219.047 1.031.204 1.031.922 0 .5-.343.907-1.125.907-.843 0-1.203-.563-1.39-1.422-.031-.125-.031-.157-.14-.157-.126 0-.126.063-.126.235v1.328c0 .172 0 .234.11.234C.483.11.5.094.688-.094.703-.109.703-.125.89-.312c.437.406.89.421 1.093.421 1.141 0 1.61-.671 1.61-1.39 0-.516-.297-.828-.422-.938-.328-.328-.719-.406-1.14-.484-.563-.11-1.22-.235-1.22-.813 0-.359.25-.765 1.11-.765 1.094 0 1.156.906 1.172 1.203 0 .094.094.094.11.094.14 0 .14-.047.14-.235v-1.015c0-.157 0-.235-.11-.235-.046 0-.078 0-.203.125-.031.032-.125.125-.172.157-.375-.282-.78-.282-.937-.282-1.219 0-1.594.672-1.594 1.235 0 .343.156.625.422.843.328.25.61.313 1.328.454zm0 0"/></symbol><symbol id="bH" overflow="visible"><path d="M1.719-3.984h1.437v-.313H1.72v-1.828h-.25c0 .813-.297 1.875-1.282 1.922v.219h.844v2.75c0 1.218.938 1.343 1.297 1.343.703 0 .985-.703.985-1.343v-.563h-.25v.547c0 .734-.297 1.11-.672 1.11-.672 0-.672-.907-.672-1.079zm0 0"/></symbol><symbol id="bI" overflow="visible"><path d="M4.688-2.14c0-1.266-.985-2.329-2.188-2.329C1.25-4.469.281-3.375.281-2.14A2.22 2.22 0 0 0 2.484.11c1.204 0 2.204-.984 2.204-2.25zM2.5-.14c-.438 0-.875-.204-1.14-.672-.25-.438-.25-1.047-.25-1.407 0-.39 0-.922.234-1.36a1.347 1.347 0 0 1 1.14-.671c.438 0 .86.219 1.125.656.266.422.266 1 .266 1.375 0 .36 0 .906-.219 1.344-.234.453-.672.734-1.156.734zm0 0"/></symbol><symbol id="bJ" overflow="visible"><path d="M4.469-3.984h1.14v-.313H4.438v-1.156c0-.89.484-1.36.921-1.36.032 0 .188 0 .329.079a.443.443 0 0 0-.297.421c0 .22.156.422.437.422s.438-.203.438-.437c0-.36-.36-.703-.907-.703-.593 0-1.03.375-1.078.422-.297-.375-.86-.422-1.125-.422-.937 0-2.094.515-2.094 1.593v1.141H.266v.313h.796V-.75c0 .438-.109.438-.78.438V0c.327-.016.859-.031 1.109-.031S2.125-.016 2.5 0v-.313c-.672 0-.781 0-.781-.437v-3.234h2.093V-.75c0 .438-.109.438-.78.438V0c.39-.016.859-.031 1.14-.031.39 0 .86 0 1.266.031v-.313h-.22c-.734 0-.75-.109-.75-.468zm-2.782-.313v-1.125c0-.969.813-1.39 1.47-1.39.484 0 .765.187.765.187v.016a.413.413 0 0 0-.36.421c0 .063 0 .313.282.407-.031.125-.031.218-.031.343v1.141zm0 0"/></symbol><symbol id="bK" overflow="visible"><path d="M3.297 2.39c0-.03 0-.046-.172-.218C1.891.922 1.562-.968 1.562-2.5c0-1.734.375-3.469 1.61-4.703.125-.125.125-.14.125-.172 0-.078-.031-.11-.094-.11-.11 0-1 .688-1.594 1.954C1.11-4.438.984-3.328.984-2.5c0 .781.11 1.984.657 3.125C2.25 1.844 3.094 2.5 3.203 2.5c.063 0 .094-.031.094-.11zm0 0"/></symbol><symbol id="bL" overflow="visible"><path d="M3.984-4.172l1.797-1.734c.078-.078.61-.578 1.422-.594v-.313c-.266.032-.578.032-.86.032-.359 0-.921 0-1.265-.032v.313c.406.016.469.234.469.328 0 .156-.11.266-.188.328L2.25-2.859v-3.172c0-.36.016-.469.781-.469h.235v-.313c-.344.032-1.079.032-1.47.032-.374 0-1.124 0-1.468-.032v.313h.234c.766 0 .797.11.797.469v5.25c0 .36-.03.469-.796.469H.328V0c.344-.031 1.094-.031 1.469-.031s1.125 0 1.469.031v-.313H3.03c-.765 0-.781-.109-.781-.468v-1.735l1.156-1.109L5.203-.953c.063.094.156.219.156.344 0 .296-.39.296-.593.296V0c.343-.031 1.046-.031 1.421-.031.36 0 .735.015 1.157.031v-.313c-.547 0-.75-.03-1.047-.468zm0 0"/></symbol><symbol id="bM" overflow="visible"><path d="M1.672-3.313v-1.093l-1.39.11v.312c.702 0 .78.062.78.562V-.75c0 .438-.109.438-.78.438V0c.39-.016.859-.031 1.14-.031.39 0 .86 0 1.266.031v-.313h-.22c-.734 0-.75-.109-.75-.468v-1.531c0-.985.423-1.876 1.173-1.876.062 0 .093 0 .109.016-.031 0-.234.125-.234.39 0 .266.218.423.437.423a.421.421 0 0 0 .422-.438c0-.312-.313-.61-.734-.61-.735 0-1.094.673-1.22 1.095zm0 0"/></symbol><symbol id="bN" overflow="visible"><path d="M1.766-4.406l-1.391.11v.312c.64 0 .734.062.734.546V-.75c0 .438-.109.438-.78.438V0c.312-.016.859-.031 1.093-.031.36 0 .703.015 1.047.031v-.313c-.672 0-.703-.046-.703-.437zm.03-1.735a.514.514 0 0 0-.515-.53.537.537 0 0 0-.531.53c0 .266.219.532.531.532a.514.514 0 0 0 .516-.532zm0 0"/></symbol><symbol id="bO" overflow="visible"><path d="M3.313-.75c.046.39.312.813.78.813.22 0 .829-.141.829-.954v-.562h-.25v.562c0 .579-.25.641-.36.641-.328 0-.375-.453-.375-.5v-1.984c0-.422 0-.813-.359-1.188-.39-.39-.89-.547-1.36-.547-.827 0-1.515.469-1.515 1.125 0 .297.203.469.469.469a.435.435 0 0 0 .453-.453c0-.125-.047-.453-.516-.453.282-.36.766-.469 1.079-.469.5 0 1.062.39 1.062 1.281v.36c-.516.03-1.203.062-1.828.359-.75.344-1 .86-1 1.297 0 .812.969 1.062 1.594 1.062.656 0 1.109-.406 1.296-.859zM3.25-2.39v1c0 .937-.719 1.28-1.172 1.28-.484 0-.89-.343-.89-.843 0-.547.421-1.375 2.062-1.438zm0 0"/></symbol><symbol id="bP" overflow="visible"><path d="M1.766-6.922l-1.438.11v.312c.703 0 .781.063.781.563V-.75c0 .438-.109.438-.78.438V0c.327-.016.859-.031 1.109-.031s.734.015 1.109.031v-.313c-.672 0-.781 0-.781-.437zm0 0"/></symbol><symbol id="bQ" overflow="visible"><path d="M2.875-2.5c0-.766-.11-1.969-.656-3.11C1.625-6.827.766-7.483.672-7.483a.107.107 0 0 0-.11.109c0 .031 0 .047.188.234.984.985 1.547 2.563 1.547 4.641 0 1.719-.36 3.469-1.594 4.719-.14.125-.14.14-.14.172 0 .062.046.109.109.109.094 0 1-.688 1.578-1.953.516-1.094.625-2.203.625-3.047zm0 0"/></symbol></defs><use y="134.765" x="377.037" xlink:href="#bE" width="1052.362" height="744.094"/><use y="134.765" x="382.714" xlink:href="#bF" width="1052.362" height="744.094"/><use y="134.765" x="387.141" xlink:href="#bG" width="1052.362" height="744.094"/><use y="134.765" x="391.07" xlink:href="#bH" width="1052.362" height="744.094"/><use y="134.765" x="394.945" xlink:href="#bG" width="1052.362" height="744.094"/><use y="134.765" x="398.874" xlink:href="#bH" width="1052.362" height="744.094"/><use y="134.765" x="402.748" xlink:href="#bI" width="1052.362" height="744.094"/><use y="134.765" x="407.73" xlink:href="#bJ" width="1052.362" height="744.094"/><g><use y="146.72" x="375.044" xlink:href="#bK" width="1052.362" height="744.094"/><use y="146.72" x="378.918" xlink:href="#bL" width="1052.362" height="744.094"/><use y="146.72" x="386.667" xlink:href="#bM" width="1052.362" height="744.094"/><use y="146.72" x="390.57" xlink:href="#bN" width="1052.362" height="744.094"/><use y="146.72" x="393.337" xlink:href="#bG" width="1052.362" height="744.094"/><use y="146.72" x="397.267" xlink:href="#bH" width="1052.362" height="744.094"/><use y="146.72" x="401.141" xlink:href="#bO" width="1052.362" height="744.094"/><use y="146.72" x="406.122" xlink:href="#bP" width="1052.362" height="744.094"/><use y="146.72" x="408.89" xlink:href="#bP" width="1052.362" height="744.094"/><use y="146.72" x="411.658" xlink:href="#bQ" width="1052.362" height="744.094"/></g></g><g transform="translate(-41.129 -75.58)"><rect ry="4.299" rx="0" y="487.604" x="506.393" height="58.845" width="112.693" fill="#fff" stroke="#fff" stroke-width="1.112"/><g transform="matrix(2.10619 0 0 2.10619 -269.796 225.369)" ns0:text="\\centering\nGas \\\\\n(Dampf)"><defs><symbol id="bR" overflow="visible"><path d="M5.906-.625c.14.219.532.61.64.61.095 0 .095-.079.095-.22v-1.734c0-.39.03-.437.687-.437v-.313c-.375 0-.922.031-1.219.031-.39 0-1.25 0-1.609-.03v.312h.328c.89 0 .922.11.922.469v.64c0 1.125-1.266 1.203-1.547 1.203-.64 0-2.625-.344-2.625-3.312 0-2.985 1.969-3.313 2.563-3.313 1.078 0 1.984.89 2.171 2.36.032.14.032.171.172.171.157 0 .157-.03.157-.234v-2.36c0-.171 0-.25-.11-.25-.047 0-.078 0-.156.126l-.5.734c-.328-.312-.86-.86-1.844-.86-1.86 0-3.468 1.579-3.468 3.626C.563-1.36 2.155.219 4.046.219c.734 0 1.531-.266 1.86-.844zm0 0"/></symbol><symbol id="bS" overflow="visible"><path d="M3.313-.75c.046.39.312.813.78.813.22 0 .829-.141.829-.954v-.562h-.25v.562c0 .579-.25.641-.36.641-.328 0-.375-.453-.375-.5v-1.984c0-.422 0-.813-.359-1.188-.39-.39-.89-.547-1.36-.547-.827 0-1.515.469-1.515 1.125 0 .297.203.469.469.469a.435.435 0 0 0 .453-.453c0-.125-.047-.453-.516-.453.282-.36.766-.469 1.079-.469.5 0 1.062.39 1.062 1.281v.36c-.516.03-1.203.062-1.828.359-.75.344-1 .86-1 1.297 0 .812.969 1.062 1.594 1.062.656 0 1.109-.406 1.296-.859zM3.25-2.39v1c0 .937-.719 1.28-1.172 1.28-.484 0-.89-.343-.89-.843 0-.547.421-1.375 2.062-1.438zm0 0"/></symbol><symbol id="bT" overflow="visible"><path d="M2.078-1.938c.219.047 1.031.204 1.031.922 0 .5-.343.907-1.125.907-.843 0-1.203-.563-1.39-1.422-.031-.125-.031-.157-.14-.157-.126 0-.126.063-.126.235v1.328c0 .172 0 .234.11.234C.483.11.5.094.688-.094.703-.109.703-.125.89-.312c.437.406.89.421 1.093.421 1.141 0 1.61-.671 1.61-1.39 0-.516-.297-.828-.422-.938-.328-.328-.719-.406-1.14-.484-.563-.11-1.22-.235-1.22-.813 0-.359.25-.765 1.11-.765 1.094 0 1.156.906 1.172 1.203 0 .094.094.094.11.094.14 0 .14-.047.14-.235v-1.015c0-.157 0-.235-.11-.235-.046 0-.078 0-.203.125-.031.032-.125.125-.172.157-.375-.282-.78-.282-.937-.282-1.219 0-1.594.672-1.594 1.235 0 .343.156.625.422.843.328.25.61.313 1.328.454zm0 0"/></symbol><symbol id="bU" overflow="visible"><path d="M3.297 2.39c0-.03 0-.046-.172-.218C1.891.922 1.562-.968 1.562-2.5c0-1.734.375-3.469 1.61-4.703.125-.125.125-.14.125-.172 0-.078-.031-.11-.094-.11-.11 0-1 .688-1.594 1.954C1.11-4.438.984-3.328.984-2.5c0 .781.11 1.984.657 3.125C2.25 1.844 3.094 2.5 3.203 2.5c.063 0 .094-.031.094-.11zm0 0"/></symbol><symbol id="bV" overflow="visible"><path d="M.344-6.813v.313h.25c.765 0 .781.11.781.469v5.25c0 .36-.016.469-.781.469h-.25V0H4c1.672 0 3.047-1.469 3.047-3.344C7.047-5.25 5.703-6.813 4-6.813zm2.375 6.5c-.469 0-.485-.062-.485-.39v-5.39c0-.345.016-.407.485-.407h1c.625 0 1.312.219 1.812.922.438.594.516 1.453.516 2.234 0 1.094-.188 1.703-.547 2.188a2.192 2.192 0 0 1-1.766.843zm0 0"/></symbol><symbol id="bW" overflow="visible"><path d="M1.094-3.422V-.75c0 .438-.11.438-.782.438V0c.36-.016.86-.031 1.141-.031.25 0 .766.015 1.11.031v-.313c-.672 0-.782 0-.782-.437v-1.844c0-1.031.719-1.594 1.344-1.594.64 0 .75.532.75 1.11V-.75c0 .438-.11.438-.781.438V0c.344-.016.86-.031 1.125-.031.25 0 .781.015 1.11.031v-.313c-.657 0-.766 0-.766-.437v-1.844c0-1.031.703-1.594 1.343-1.594.625 0 .735.532.735 1.11V-.75c0 .438-.11.438-.782.438V0c.344-.016.86-.031 1.125-.031.266 0 .782.015 1.125.031v-.313c-.515 0-.765 0-.78-.296v-1.907c0-.859 0-1.156-.313-1.515-.141-.172-.47-.375-1.047-.375-.828 0-1.282.593-1.438.984-.14-.875-.875-.984-1.328-.984-.734 0-1.203.422-1.484 1.047v-1.047l-1.407.11v.312c.704 0 .782.062.782.562zm0 0"/></symbol><symbol id="bX" overflow="visible"><path d="M1.719-3.75v-.656l-1.438.11v.312c.703 0 .781.062.781.5v4.656c0 .453-.109.453-.78.453v.313c.343-.016.859-.032 1.109-.032.28 0 .78.016 1.125.032v-.313c-.657 0-.766 0-.766-.453V-.594c.047.172.469.703 1.219.703 1.187 0 2.219-.984 2.219-2.265 0-1.266-.954-2.25-2.079-2.25-.78 0-1.203.437-1.39.656zm.031 2.61v-2.22c.281-.515.766-.796 1.281-.796.735 0 1.328.875 1.328 2C4.36-.953 3.672-.11 2.938-.11c-.407 0-.782-.204-1.047-.61-.141-.203-.141-.219-.141-.422zm0 0"/></symbol><symbol id="bY" overflow="visible"><path d="M1.75-4.297v-1.156c0-.875.469-1.36.906-1.36.031 0 .188 0 .328.079a.443.443 0 0 0-.296.421c0 .22.156.422.437.422s.438-.203.438-.437c0-.375-.376-.703-.907-.703-.687 0-1.547.531-1.547 1.593v1.141H.33v.313h.78V-.75c0 .438-.109.438-.765.438V0c.39-.016.86-.031 1.125-.031.406 0 .875 0 1.265.031v-.313h-.203c-.734 0-.75-.109-.75-.468v-3.203h1.125v-.313zm0 0"/></symbol><symbol id="bZ" overflow="visible"><path d="M2.875-2.5c0-.766-.11-1.969-.656-3.11C1.625-6.827.766-7.483.672-7.483a.107.107 0 0 0-.11.109c0 .031 0 .047.188.234.984.985 1.547 2.563 1.547 4.641 0 1.719-.36 3.469-1.594 4.719-.14.125-.14.14-.14.172 0 .062.046.109.109.109.094 0 1-.688 1.578-1.953.516-1.094.625-2.203.625-3.047zm0 0"/></symbol></defs><use y="134.765" x="386.923" xlink:href="#bR" width="1052.362" height="744.094"/><use y="134.765" x="394.741" xlink:href="#bS" width="1052.362" height="744.094"/><use y="134.765" x="399.722" xlink:href="#bT" width="1052.362" height="744.094"/><g><use y="146.72" x="376.289" xlink:href="#bU" width="1052.362" height="744.094"/><use y="146.72" x="380.163" xlink:href="#bV" width="1052.362" height="744.094"/><use y="146.72" x="387.774" xlink:href="#bS" width="1052.362" height="744.094"/><use y="146.72" x="392.755" xlink:href="#bW" width="1052.362" height="744.094"/><use y="146.72" x="401.057" xlink:href="#bX" width="1052.362" height="744.094"/><use y="146.72" x="406.592" xlink:href="#bY" width="1052.362" height="744.094"/></g><g><use y="146.72" x="410.414" xlink:href="#bZ" width="1052.362" height="744.094"/></g></g></g><use xlink:href="#W" transform="translate(458.472 -555.528)" width="744.094" height="1052.362"/><use xlink:href="#br" transform="translate(251.349 -477.9)" width="744.094" height="1052.362"/><path d="M218.028 683.876L399.002 502.9" fill="none" stroke="#000" marker-end="url(#i)"/><g transform="rotate(-45 256.749 977.308)"><rect ry="2.007" rx="0" y="728.703" x="501.911" height="27.473" width="125.828" fill="#fff" stroke="#fff" stroke-width=".803"/><g ns0:text="sublimieren" transform="matrix(2.10619 0 0 2.10619 41.562 465.774)"><defs><symbol id="ca" overflow="visible"><path d="M2.078-1.938c.219.047 1.031.204 1.031.922 0 .5-.343.907-1.125.907-.843 0-1.203-.563-1.39-1.422-.031-.125-.031-.157-.14-.157-.126 0-.126.063-.126.235v1.328c0 .172 0 .234.11.234C.483.11.5.094.688-.094.703-.109.703-.125.89-.312c.437.406.89.421 1.093.421 1.141 0 1.61-.671 1.61-1.39 0-.516-.297-.828-.422-.938-.328-.328-.719-.406-1.14-.484-.563-.11-1.22-.235-1.22-.813 0-.359.25-.765 1.11-.765 1.094 0 1.156.906 1.172 1.203 0 .094.094.094.11.094.14 0 .14-.047.14-.235v-1.015c0-.157 0-.235-.11-.235-.046 0-.078 0-.203.125-.031.032-.125.125-.172.157-.375-.282-.78-.282-.937-.282-1.219 0-1.594.672-1.594 1.235 0 .343.156.625.422.843.328.25.61.313 1.328.454zm0 0"/></symbol><symbol id="cb" overflow="visible"><path d="M3.89-.781v.89L5.329 0v-.313c-.687 0-.766-.062-.766-.562v-3.531l-1.468.11v.312c.687 0 .781.062.781.562v1.766c0 .875-.484 1.547-1.219 1.547-.828 0-.875-.47-.875-.985v-3.312l-1.468.11v.312c.78 0 .78.03.78.906v1.5c0 .781 0 1.687 1.516 1.687.563 0 1-.28 1.282-.89zm0 0"/></symbol><symbol id="cc" overflow="visible"><path d="M1.719-3.766v-3.156l-1.438.11v.312c.703 0 .781.063.781.563V0h.25c0-.016.079-.156.36-.625.14.234.562.734 1.297.734 1.187 0 2.219-.984 2.219-2.265 0-1.266-.97-2.25-2.11-2.25-.781 0-1.203.468-1.36.64zM1.75-1.14v-2.046c0-.188 0-.204.11-.36.39-.562.937-.64 1.171-.64.453 0 .813.265 1.047.64.266.406.281.969.281 1.39 0 .36-.015.954-.296 1.407-.22.313-.594.64-1.125.64-.454 0-.813-.234-1.047-.609-.141-.203-.141-.234-.141-.422zm0 0"/></symbol><symbol id="cd" overflow="visible"><path d="M1.766-6.922l-1.438.11v.312c.703 0 .781.063.781.563V-.75c0 .438-.109.438-.78.438V0c.327-.016.859-.031 1.109-.031s.734.015 1.109.031v-.313c-.672 0-.781 0-.781-.437zm0 0"/></symbol><symbol id="ce" overflow="visible"><path d="M1.766-4.406l-1.391.11v.312c.64 0 .734.062.734.546V-.75c0 .438-.109.438-.78.438V0c.312-.016.859-.031 1.093-.031.36 0 .703.015 1.047.031v-.313c-.672 0-.703-.046-.703-.437zm.03-1.735a.514.514 0 0 0-.515-.53.537.537 0 0 0-.531.53c0 .266.219.532.531.532a.514.514 0 0 0 .516-.532zm0 0"/></symbol><symbol id="cf" overflow="visible"><path d="M1.094-3.422V-.75c0 .438-.11.438-.782.438V0c.36-.016.86-.031 1.141-.031.25 0 .766.015 1.11.031v-.313c-.672 0-.782 0-.782-.437v-1.844c0-1.031.719-1.594 1.344-1.594.64 0 .75.532.75 1.11V-.75c0 .438-.11.438-.781.438V0c.344-.016.86-.031 1.125-.031.25 0 .781.015 1.11.031v-.313c-.657 0-.766 0-.766-.437v-1.844c0-1.031.703-1.594 1.343-1.594.625 0 .735.532.735 1.11V-.75c0 .438-.11.438-.782.438V0c.344-.016.86-.031 1.125-.031.266 0 .782.015 1.125.031v-.313c-.515 0-.765 0-.78-.296v-1.907c0-.859 0-1.156-.313-1.515-.141-.172-.47-.375-1.047-.375-.828 0-1.282.593-1.438.984-.14-.875-.875-.984-1.328-.984-.734 0-1.203.422-1.484 1.047v-1.047l-1.407.11v.312c.704 0 .782.062.782.562zm0 0"/></symbol><symbol id="cg" overflow="visible"><path d="M1.11-2.516C1.171-4 2.015-4.25 2.36-4.25c1.015 0 1.124 1.344 1.124 1.734zm0 .22h2.78c.22 0 .25 0 .25-.22 0-.984-.546-1.953-1.78-1.953C1.202-4.469.28-3.437.28-2.187.281-.86 1.328.108 2.47.108 3.688.11 4.14-1 4.14-1.187c0-.094-.079-.125-.141-.125-.078 0-.11.062-.125.14C3.531-.14 2.625-.14 2.531-.14c-.5 0-.89-.296-1.125-.671-.297-.47-.297-1.125-.297-1.485zm0 0"/></symbol><symbol id="ch" overflow="visible"><path d="M1.672-3.313v-1.093l-1.39.11v.312c.702 0 .78.062.78.562V-.75c0 .438-.109.438-.78.438V0c.39-.016.859-.031 1.14-.031.39 0 .86 0 1.266.031v-.313h-.22c-.734 0-.75-.109-.75-.468v-1.531c0-.985.423-1.876 1.173-1.876.062 0 .093 0 .109.016-.031 0-.234.125-.234.39 0 .266.218.423.437.423a.421.421 0 0 0 .422-.438c0-.312-.313-.61-.734-.61-.735 0-1.094.673-1.22 1.095zm0 0"/></symbol><symbol id="ci" overflow="visible"><path d="M1.094-3.422V-.75c0 .438-.11.438-.782.438V0c.36-.016.86-.031 1.141-.031.25 0 .766.015 1.11.031v-.313c-.672 0-.782 0-.782-.437v-1.844c0-1.031.719-1.594 1.344-1.594.64 0 .75.532.75 1.11V-.75c0 .438-.11.438-.781.438V0c.344-.016.86-.031 1.125-.031.25 0 .781.015 1.11.031v-.313c-.516 0-.766 0-.766-.296v-1.907c0-.859 0-1.156-.313-1.515-.14-.172-.469-.375-1.047-.375-.734 0-1.203.422-1.484 1.047v-1.047l-1.407.11v.312c.704 0 .782.062.782.562zm0 0"/></symbol></defs><use y="134.765" x="223.432" xlink:href="#ca" width="1052.362" height="744.094"/><use y="134.765" x="227.361" xlink:href="#cb" width="1052.362" height="744.094"/><use y="134.765" x="232.896" xlink:href="#cc" width="1052.362" height="744.094"/><use y="134.765" x="238.432" xlink:href="#cd" width="1052.362" height="744.094"/><use y="134.765" x="241.199" xlink:href="#ce" width="1052.362" height="744.094"/><use y="134.765" x="243.967" xlink:href="#cf" width="1052.362" height="744.094"/><use y="134.765" x="252.269" xlink:href="#ce" width="1052.362" height="744.094"/><use y="134.765" x="255.036" xlink:href="#cg" width="1052.362" height="744.094"/><use y="134.765" x="259.464" xlink:href="#ch" width="1052.362" height="744.094"/><use y="134.765" x="263.366" xlink:href="#cg" width="1052.362" height="744.094"/><use y="134.765" x="267.793" xlink:href="#ci" width="1052.362" height="744.094"/></g></g><path d="M425.918 528.903L244.944 709.878" fill="none" stroke="#000" marker-end="url(#i)"/><g transform="rotate(-45 243.583 973.367)"><rect ry="2.007" rx="0" y="774.278" x="485.967" height="27.473" width="144.431" fill="#fff" stroke="#fff" stroke-width=".86"/><g transform="matrix(2.10619 0 0 2.10619 26.196 511.348)" ns0:text="resublimieren\n"><defs><symbol overflow="visible" id="cj"><path d="M1.672-3.313v-1.093l-1.39.11v.312c.702 0 .78.062.78.562V-.75c0 .438-.109.438-.78.438V0c.39-.016.859-.031 1.14-.031.39 0 .86 0 1.266.031v-.313h-.22c-.734 0-.75-.109-.75-.468v-1.531c0-.985.423-1.876 1.173-1.876.062 0 .093 0 .109.016-.031 0-.234.125-.234.39 0 .266.218.423.437.423a.421.421 0 0 0 .422-.438c0-.312-.313-.61-.734-.61-.735 0-1.094.673-1.22 1.095zm0 0"/></symbol><symbol overflow="visible" id="ck"><path d="M1.11-2.516C1.171-4 2.015-4.25 2.36-4.25c1.015 0 1.124 1.344 1.124 1.734zm0 .22h2.78c.22 0 .25 0 .25-.22 0-.984-.546-1.953-1.78-1.953C1.202-4.469.28-3.437.28-2.187.281-.86 1.328.108 2.47.108 3.688.11 4.14-1 4.14-1.187c0-.094-.079-.125-.141-.125-.078 0-.11.062-.125.14C3.531-.14 2.625-.14 2.531-.14c-.5 0-.89-.296-1.125-.671-.297-.47-.297-1.125-.297-1.485zm0 0"/></symbol><symbol overflow="visible" id="cl"><path d="M2.078-1.938c.219.047 1.031.204 1.031.922 0 .5-.343.907-1.125.907-.843 0-1.203-.563-1.39-1.422-.031-.125-.031-.157-.14-.157-.126 0-.126.063-.126.235v1.328c0 .172 0 .234.11.234C.483.11.5.094.688-.094.703-.109.703-.125.89-.312c.437.406.89.421 1.093.421 1.141 0 1.61-.671 1.61-1.39 0-.516-.297-.828-.422-.938-.328-.328-.719-.406-1.14-.484-.563-.11-1.22-.235-1.22-.813 0-.359.25-.765 1.11-.765 1.094 0 1.156.906 1.172 1.203 0 .094.094.094.11.094.14 0 .14-.047.14-.235v-1.015c0-.157 0-.235-.11-.235-.046 0-.078 0-.203.125-.031.032-.125.125-.172.157-.375-.282-.78-.282-.937-.282-1.219 0-1.594.672-1.594 1.235 0 .343.156.625.422.843.328.25.61.313 1.328.454zm0 0"/></symbol><symbol overflow="visible" id="cm"><path d="M3.89-.781v.89L5.329 0v-.313c-.687 0-.766-.062-.766-.562v-3.531l-1.468.11v.312c.687 0 .781.062.781.562v1.766c0 .875-.484 1.547-1.219 1.547-.828 0-.875-.47-.875-.985v-3.312l-1.468.11v.312c.78 0 .78.03.78.906v1.5c0 .781 0 1.687 1.516 1.687.563 0 1-.28 1.282-.89zm0 0"/></symbol><symbol overflow="visible" id="cn"><path d="M1.719-3.766v-3.156l-1.438.11v.312c.703 0 .781.063.781.563V0h.25c0-.016.079-.156.36-.625.14.234.562.734 1.297.734 1.187 0 2.219-.984 2.219-2.265 0-1.266-.97-2.25-2.11-2.25-.781 0-1.203.468-1.36.64zM1.75-1.14v-2.046c0-.188 0-.204.11-.36.39-.562.937-.64 1.171-.64.453 0 .813.265 1.047.64.266.406.281.969.281 1.39 0 .36-.015.954-.296 1.407-.22.313-.594.64-1.125.64-.454 0-.813-.234-1.047-.609-.141-.203-.141-.234-.141-.422zm0 0"/></symbol><symbol overflow="visible" id="co"><path d="M1.766-6.922l-1.438.11v.312c.703 0 .781.063.781.563V-.75c0 .438-.109.438-.78.438V0c.327-.016.859-.031 1.109-.031s.734.015 1.109.031v-.313c-.672 0-.781 0-.781-.437zm0 0"/></symbol><symbol overflow="visible" id="cp"><path d="M1.766-4.406l-1.391.11v.312c.64 0 .734.062.734.546V-.75c0 .438-.109.438-.78.438V0c.312-.016.859-.031 1.093-.031.36 0 .703.015 1.047.031v-.313c-.672 0-.703-.046-.703-.437zm.03-1.735a.514.514 0 0 0-.515-.53.537.537 0 0 0-.531.53c0 .266.219.532.531.532a.514.514 0 0 0 .516-.532zm0 0"/></symbol><symbol overflow="visible" id="cq"><path d="M1.094-3.422V-.75c0 .438-.11.438-.782.438V0c.36-.016.86-.031 1.141-.031.25 0 .766.015 1.11.031v-.313c-.672 0-.782 0-.782-.437v-1.844c0-1.031.719-1.594 1.344-1.594.64 0 .75.532.75 1.11V-.75c0 .438-.11.438-.781.438V0c.344-.016.86-.031 1.125-.031.25 0 .781.015 1.11.031v-.313c-.657 0-.766 0-.766-.437v-1.844c0-1.031.703-1.594 1.343-1.594.625 0 .735.532.735 1.11V-.75c0 .438-.11.438-.782.438V0c.344-.016.86-.031 1.125-.031.266 0 .782.015 1.125.031v-.313c-.515 0-.765 0-.78-.296v-1.907c0-.859 0-1.156-.313-1.515-.141-.172-.47-.375-1.047-.375-.828 0-1.282.593-1.438.984-.14-.875-.875-.984-1.328-.984-.734 0-1.203.422-1.484 1.047v-1.047l-1.407.11v.312c.704 0 .782.062.782.562zm0 0"/></symbol><symbol overflow="visible" id="cr"><path d="M1.094-3.422V-.75c0 .438-.11.438-.782.438V0c.36-.016.86-.031 1.141-.031.25 0 .766.015 1.11.031v-.313c-.672 0-.782 0-.782-.437v-1.844c0-1.031.719-1.594 1.344-1.594.64 0 .75.532.75 1.11V-.75c0 .438-.11.438-.781.438V0c.344-.016.86-.031 1.125-.031.25 0 .781.015 1.11.031v-.313c-.516 0-.766 0-.766-.296v-1.907c0-.859 0-1.156-.313-1.515-.14-.172-.469-.375-1.047-.375-.734 0-1.203.422-1.484 1.047v-1.047l-1.407.11v.312c.704 0 .782.062.782.562zm0 0"/></symbol></defs><use height="744.094" width="1052.362" xlink:href="#cj" x="223.432" y="134.765"/><use height="744.094" width="1052.362" xlink:href="#ck" x="227.334" y="134.765"/><use height="744.094" width="1052.362" xlink:href="#cl" x="231.762" y="134.765"/><use height="744.094" width="1052.362" xlink:href="#cm" x="235.691" y="134.765"/><use height="744.094" width="1052.362" xlink:href="#cn" x="241.226" y="134.765"/><use height="744.094" width="1052.362" xlink:href="#co" x="246.761" y="134.765"/><use height="744.094" width="1052.362" xlink:href="#cp" x="249.529" y="134.765"/><use height="744.094" width="1052.362" xlink:href="#cq" x="252.297" y="134.765"/><use height="744.094" width="1052.362" xlink:href="#cp" x="260.598" y="134.765"/><use height="744.094" width="1052.362" xlink:href="#ck" x="263.366" y="134.765"/><use height="744.094" width="1052.362" xlink:href="#cj" x="267.793" y="134.765"/><use height="744.094" width="1052.362" xlink:href="#ck" x="271.696" y="134.765"/><use height="744.094" width="1052.362" xlink:href="#cr" x="276.123" y="134.765"/></g></g><use xlink:href="#bv" transform="translate(241.177 -255.33)" width="744.094" height="1052.362"/><use xlink:href="#W" transform="translate(166.304 -388.478)" width="744.094" height="1052.362"/><use xlink:href="#bs" transform="translate(220.629 -438.672)" width="744.094" height="1052.362"/><use xlink:href="#W" transform="translate(524.893 -514.158)" width="744.094" height="1052.362"/><path d="M606.443 512.223L820.55 726.33" fill="none" stroke="#000" stroke-width="1.088" marker-start="url(#h)" marker-end="url(#i)"/><g transform="rotate(45 922.016 518.161)"><rect ry="2.007" rx="0" y="723.37" x="773.481" height="27.473" width="145.177" fill="#fff" stroke="#fff" stroke-width=".862"/><g ns0:text="kondensieren\n" transform="matrix(2.10619 0 0 2.10619 316.447 460.44)"><defs><symbol id="cs" overflow="visible"><path d="M1.063-.75c0 .438-.11.438-.782.438V0c.328-.016.797-.031 1.078-.031.313 0 .704.015 1.11.031v-.313c-.672 0-.781 0-.781-.437v-1.031l.64-.547c.766 1.047 1.188 1.61 1.188 1.797 0 .187-.172.219-.36.219V0c.266-.016.86-.031 1.078-.031.282 0 .579.015.86.031v-.313c-.375 0-.594 0-.969-.53L2.859-2.626c-.015-.016-.062-.078-.062-.11 0-.03.719-.64.812-.718.625-.5 1.047-.531 1.25-.531v-.313c-.28.031-.406.031-.687.031-.36 0-.984-.015-1.125-.03v.312c.187 0 .297.109.297.25 0 .203-.14.312-.219.39L1.719-2.14v-4.78L.28-6.813v.312c.703 0 .781.063.781.563zm0 0"/></symbol><symbol id="ct" overflow="visible"><path d="M4.688-2.14c0-1.266-.985-2.329-2.188-2.329C1.25-4.469.281-3.375.281-2.14A2.22 2.22 0 0 0 2.484.11c1.204 0 2.204-.984 2.204-2.25zM2.5-.14c-.438 0-.875-.204-1.14-.672-.25-.438-.25-1.047-.25-1.407 0-.39 0-.922.234-1.36a1.347 1.347 0 0 1 1.14-.671c.438 0 .86.219 1.125.656.266.422.266 1 .266 1.375 0 .36 0 .906-.219 1.344-.234.453-.672.734-1.156.734zm0 0"/></symbol><symbol id="cu" overflow="visible"><path d="M1.094-3.422V-.75c0 .438-.11.438-.782.438V0c.36-.016.86-.031 1.141-.031.25 0 .766.015 1.11.031v-.313c-.672 0-.782 0-.782-.437v-1.844c0-1.031.719-1.594 1.344-1.594.64 0 .75.532.75 1.11V-.75c0 .438-.11.438-.781.438V0c.344-.016.86-.031 1.125-.031.25 0 .781.015 1.11.031v-.313c-.516 0-.766 0-.766-.296v-1.907c0-.859 0-1.156-.313-1.515-.14-.172-.469-.375-1.047-.375-.734 0-1.203.422-1.484 1.047v-1.047l-1.407.11v.312c.704 0 .782.062.782.562zm0 0"/></symbol><symbol id="cv" overflow="visible"><path d="M3.781-.547V.11L5.25 0v-.313c-.688 0-.781-.062-.781-.562v-6.047l-1.422.11v.312c.687 0 .765.063.765.563v2.156a1.582 1.582 0 0 0-1.25-.625c-1.171 0-2.218.984-2.218 2.265 0 1.266.969 2.25 2.11 2.25.64 0 1.077-.343 1.327-.656zm0-2.672v2.047c0 .172 0 .188-.11.36-.296.484-.733.703-1.171.703-.453 0-.813-.266-1.047-.641-.25-.406-.281-.969-.281-1.39 0-.36.016-.954.297-1.407.218-.312.593-.64 1.14-.64.344 0 .766.156 1.063.593.11.172.11.188.11.375zm0 0"/></symbol><symbol id="cw" overflow="visible"><path d="M1.11-2.516C1.171-4 2.015-4.25 2.36-4.25c1.015 0 1.124 1.344 1.124 1.734zm0 .22h2.78c.22 0 .25 0 .25-.22 0-.984-.546-1.953-1.78-1.953C1.202-4.469.28-3.437.28-2.187.281-.86 1.328.108 2.47.108 3.688.11 4.14-1 4.14-1.187c0-.094-.079-.125-.141-.125-.078 0-.11.062-.125.14C3.531-.14 2.625-.14 2.531-.14c-.5 0-.89-.296-1.125-.671-.297-.47-.297-1.125-.297-1.485zm0 0"/></symbol><symbol id="cx" overflow="visible"><path d="M2.078-1.938c.219.047 1.031.204 1.031.922 0 .5-.343.907-1.125.907-.843 0-1.203-.563-1.39-1.422-.031-.125-.031-.157-.14-.157-.126 0-.126.063-.126.235v1.328c0 .172 0 .234.11.234C.483.11.5.094.688-.094.703-.109.703-.125.89-.312c.437.406.89.421 1.093.421 1.141 0 1.61-.671 1.61-1.39 0-.516-.297-.828-.422-.938-.328-.328-.719-.406-1.14-.484-.563-.11-1.22-.235-1.22-.813 0-.359.25-.765 1.11-.765 1.094 0 1.156.906 1.172 1.203 0 .094.094.094.11.094.14 0 .14-.047.14-.235v-1.015c0-.157 0-.235-.11-.235-.046 0-.078 0-.203.125-.031.032-.125.125-.172.157-.375-.282-.78-.282-.937-.282-1.219 0-1.594.672-1.594 1.235 0 .343.156.625.422.843.328.25.61.313 1.328.454zm0 0"/></symbol><symbol id="cy" overflow="visible"><path d="M1.766-4.406l-1.391.11v.312c.64 0 .734.062.734.546V-.75c0 .438-.109.438-.78.438V0c.312-.016.859-.031 1.093-.031.36 0 .703.015 1.047.031v-.313c-.672 0-.703-.046-.703-.437zm.03-1.735a.514.514 0 0 0-.515-.53.537.537 0 0 0-.531.53c0 .266.219.532.531.532a.514.514 0 0 0 .516-.532zm0 0"/></symbol><symbol id="cz" overflow="visible"><path d="M1.672-3.313v-1.093l-1.39.11v.312c.702 0 .78.062.78.562V-.75c0 .438-.109.438-.78.438V0c.39-.016.859-.031 1.14-.031.39 0 .86 0 1.266.031v-.313h-.22c-.734 0-.75-.109-.75-.468v-1.531c0-.985.423-1.876 1.173-1.876.062 0 .093 0 .109.016-.031 0-.234.125-.234.39 0 .266.218.423.437.423a.421.421 0 0 0 .422-.438c0-.312-.313-.61-.734-.61-.735 0-1.094.673-1.22 1.095zm0 0"/></symbol></defs><use height="744.094" width="1052.362" y="134.765" x="223.432" xlink:href="#cs"/><use height="744.094" width="1052.362" y="134.765" x="228.411" xlink:href="#ct"/><use height="744.094" width="1052.362" y="134.765" x="233.393" xlink:href="#cu"/><use height="744.094" width="1052.362" y="134.765" x="238.928" xlink:href="#cv"/><use height="744.094" width="1052.362" y="134.765" x="244.463" xlink:href="#cw"/><use height="744.094" width="1052.362" y="134.765" x="248.89" xlink:href="#cu"/><use height="744.094" width="1052.362" y="134.765" x="254.426" xlink:href="#cx"/><use height="744.094" width="1052.362" y="134.765" x="258.355" xlink:href="#cy"/><use height="744.094" width="1052.362" y="134.765" x="261.123" xlink:href="#cw"/><use height="744.094" width="1052.362" y="134.765" x="265.55" xlink:href="#cz"/><use height="744.094" width="1052.362" y="134.765" x="269.452" xlink:href="#cw"/><use height="744.094" width="1052.362" y="134.765" x="273.88" xlink:href="#cu"/></g></g><path d="M632.463 486.203L846.57 700.31" fill="none" stroke="#000" stroke-width="1.088" marker-start="url(#h)" marker-end="url(#i)"/><g transform="rotate(45 726.587 606.126)"><rect ry="2.007" rx="0" y="573.527" x="627.561" height="27.473" width="198.434" fill="#fff" stroke="#fff" stroke-width="1.12"/><g ns0:text="\\centering\nsieden, verdunsten" transform="matrix(2.10619 0 0 2.10619 -105.905 308.787)"><defs><symbol overflow="visible" id="cA"><path d="M2.078-1.938c.219.047 1.031.204 1.031.922 0 .5-.343.907-1.125.907-.843 0-1.203-.563-1.39-1.422-.031-.125-.031-.157-.14-.157-.126 0-.126.063-.126.235v1.328c0 .172 0 .234.11.234C.483.11.5.094.688-.094.703-.109.703-.125.89-.312c.437.406.89.421 1.093.421 1.141 0 1.61-.671 1.61-1.39 0-.516-.297-.828-.422-.938-.328-.328-.719-.406-1.14-.484-.563-.11-1.22-.235-1.22-.813 0-.359.25-.765 1.11-.765 1.094 0 1.156.906 1.172 1.203 0 .094.094.094.11.094.14 0 .14-.047.14-.235v-1.015c0-.157 0-.235-.11-.235-.046 0-.078 0-.203.125-.031.032-.125.125-.172.157-.375-.282-.78-.282-.937-.282-1.219 0-1.594.672-1.594 1.235 0 .343.156.625.422.843.328.25.61.313 1.328.454zm0 0"/></symbol><symbol overflow="visible" id="cB"><path d="M1.766-4.406l-1.391.11v.312c.64 0 .734.062.734.546V-.75c0 .438-.109.438-.78.438V0c.312-.016.859-.031 1.093-.031.36 0 .703.015 1.047.031v-.313c-.672 0-.703-.046-.703-.437zm.03-1.735a.514.514 0 0 0-.515-.53.537.537 0 0 0-.531.53c0 .266.219.532.531.532a.514.514 0 0 0 .516-.532zm0 0"/></symbol><symbol overflow="visible" id="cC"><path d="M1.11-2.516C1.171-4 2.015-4.25 2.36-4.25c1.015 0 1.124 1.344 1.124 1.734zm0 .22h2.78c.22 0 .25 0 .25-.22 0-.984-.546-1.953-1.78-1.953C1.202-4.469.28-3.437.28-2.187.281-.86 1.328.108 2.47.108 3.688.11 4.14-1 4.14-1.187c0-.094-.079-.125-.141-.125-.078 0-.11.062-.125.14C3.531-.14 2.625-.14 2.531-.14c-.5 0-.89-.296-1.125-.671-.297-.47-.297-1.125-.297-1.485zm0 0"/></symbol><symbol overflow="visible" id="cD"><path d="M3.781-.547V.11L5.25 0v-.313c-.688 0-.781-.062-.781-.562v-6.047l-1.422.11v.312c.687 0 .765.063.765.563v2.156a1.582 1.582 0 0 0-1.25-.625c-1.171 0-2.218.984-2.218 2.265 0 1.266.969 2.25 2.11 2.25.64 0 1.077-.343 1.327-.656zm0-2.672v2.047c0 .172 0 .188-.11.36-.296.484-.733.703-1.171.703-.453 0-.813-.266-1.047-.641-.25-.406-.281-.969-.281-1.39 0-.36.016-.954.297-1.407.218-.312.593-.64 1.14-.64.344 0 .766.156 1.063.593.11.172.11.188.11.375zm0 0"/></symbol><symbol overflow="visible" id="cE"><path d="M1.094-3.422V-.75c0 .438-.11.438-.782.438V0c.36-.016.86-.031 1.141-.031.25 0 .766.015 1.11.031v-.313c-.672 0-.782 0-.782-.437v-1.844c0-1.031.719-1.594 1.344-1.594.64 0 .75.532.75 1.11V-.75c0 .438-.11.438-.781.438V0c.344-.016.86-.031 1.125-.031.25 0 .781.015 1.11.031v-.313c-.516 0-.766 0-.766-.296v-1.907c0-.859 0-1.156-.313-1.515-.14-.172-.469-.375-1.047-.375-.734 0-1.203.422-1.484 1.047v-1.047l-1.407.11v.312c.704 0 .782.062.782.562zm0 0"/></symbol><symbol overflow="visible" id="cF"><path d="M2.031-.016c0-.625-.25-1.046-.64-1.046-.36 0-.532.28-.532.53 0 .266.172.532.532.532a.578.578 0 0 0 .375-.14l.015-.016c.016 0 .016 0 .016.14 0 .641-.266 1.25-.703 1.72-.063.062-.078.077-.078.109 0 .078.046.109.093.109.125 0 .922-.781.922-1.938zm0 0"/></symbol><symbol overflow="visible" id="cG"><path d="M4.14-3.313c.094-.234.266-.671.923-.671v-.313c-.235.016-.516.031-.75.031-.235 0-.688-.015-.86-.03v.312c.36 0 .469.234.469.421 0 .094-.016.141-.047.25L2.844-.78l-1.11-2.781c-.062-.126-.062-.141-.062-.172 0-.25.39-.25.578-.25v-.313c-.313.016-.86.031-1.094.031-.265 0-.672-.015-.968-.03v.312c.625 0 .671.062.796.359L2.422-.078c.062.14.078.187.203.187.14 0 .172-.093.219-.187zm0 0"/></symbol><symbol overflow="visible" id="cH"><path d="M1.672-3.313v-1.093l-1.39.11v.312c.702 0 .78.062.78.562V-.75c0 .438-.109.438-.78.438V0c.39-.016.859-.031 1.14-.031.39 0 .86 0 1.266.031v-.313h-.22c-.734 0-.75-.109-.75-.468v-1.531c0-.985.423-1.876 1.173-1.876.062 0 .093 0 .109.016-.031 0-.234.125-.234.39 0 .266.218.423.437.423a.421.421 0 0 0 .422-.438c0-.312-.313-.61-.734-.61-.735 0-1.094.673-1.22 1.095zm0 0"/></symbol><symbol overflow="visible" id="cI"><path d="M3.89-.781v.89L5.329 0v-.313c-.687 0-.766-.062-.766-.562v-3.531l-1.468.11v.312c.687 0 .781.062.781.562v1.766c0 .875-.484 1.547-1.219 1.547-.828 0-.875-.47-.875-.985v-3.312l-1.468.11v.312c.78 0 .78.03.78.906v1.5c0 .781 0 1.687 1.516 1.687.563 0 1-.28 1.282-.89zm0 0"/></symbol><symbol overflow="visible" id="cJ"><path d="M1.719-3.984h1.437v-.313H1.72v-1.828h-.25c0 .813-.297 1.875-1.282 1.922v.219h.844v2.75c0 1.218.938 1.343 1.297 1.343.703 0 .985-.703.985-1.343v-.563h-.25v.547c0 .734-.297 1.11-.672 1.11-.672 0-.672-.907-.672-1.079zm0 0"/></symbol></defs><use xlink:href="#cA" x="355.091" y="134.765" width="1052.362" height="744.094"/><use xlink:href="#cB" x="359.02" y="134.765" width="1052.362" height="744.094"/><use xlink:href="#cC" x="361.788" y="134.765" width="1052.362" height="744.094"/><use xlink:href="#cD" x="366.215" y="134.765" width="1052.362" height="744.094"/><use xlink:href="#cC" x="371.75" y="134.765" width="1052.362" height="744.094"/><use xlink:href="#cE" x="376.178" y="134.765" width="1052.362" height="744.094"/><use xlink:href="#cF" x="381.713" y="134.765" width="1052.362" height="744.094"/><g><use xlink:href="#cG" x="387.798" y="134.765" width="1052.362" height="744.094"/></g><g><use xlink:href="#cC" x="392.787" y="134.765" width="1052.362" height="744.094"/><use xlink:href="#cH" x="397.215" y="134.765" width="1052.362" height="744.094"/><use xlink:href="#cD" x="401.117" y="134.765" width="1052.362" height="744.094"/><use xlink:href="#cI" x="406.652" y="134.765" width="1052.362" height="744.094"/></g><g><use xlink:href="#cE" x="412.178" y="134.765" width="1052.362" height="744.094"/><use xlink:href="#cA" x="417.713" y="134.765" width="1052.362" height="744.094"/></g><g><use xlink:href="#cJ" x="421.652" y="134.765" width="1052.362" height="744.094"/></g><g><use xlink:href="#cC" x="425.517" y="134.765" width="1052.362" height="744.094"/></g><g><use xlink:href="#cE" x="429.954" y="134.765" width="1052.362" height="744.094"/></g></g></g></g></svg>