<svg xmlns:ns0="http://www.iki.fi/pav/software/textext/" xmlns="http://www.w3.org/2000/svg" xmlns:xlink="http://www.w3.org/1999/xlink" width="793.701" height="1122.52" viewBox="0 0 744.09448 1052.3622"><title>Das Thermometer</title><defs><linearGradient id="a"><stop offset="0" stop-color="#aa8f72"/><stop offset="1" stop-color="#deaa87"/></linearGradient></defs><path style="marker:none" color="#000" overflow="visible" fill="#fff" stroke="#fff" d="M717.544 405.045v242.271H26.55V405.045z"/><path style="marker:none" d="M682.985 526.181c0-15.7-14.898-28.344-33.407-28.344h-447c-13.389 0-24.88 6.617-30.218 16.22H155.14a18.194 18.194 0 0 0-13.625-6.095H79.328a18.177 18.177 0 0 0-18.218 18.22A18.177 18.177 0 0 0 79.328 544.4h62.188a18.194 18.194 0 0 0 13.625-6.094h17.219c5.338 9.602 16.83 16.219 30.218 16.219h447c18.51 0 33.407-12.644 33.407-28.344z" color="#000" overflow="visible" fill="#fff" stroke="#000" stroke-linecap="round" stroke-linejoin="bevel"/><rect ry="2.091" rx="0" y="-371.767" x="520.669" height="297.395" width="11.023" style="marker:none" transform="rotate(90)" color="#000" overflow="visible" fill="#00f"/><rect ry="13.307" rx="13.153" y="-151.816" x="513.028" height="83.481" width="26.306" style="marker:none" transform="rotate(90)" color="#000" overflow="visible" fill="#00f"/><path style="marker:none" d="M661.953 525.603c-.281-2.786-2.634-4.94-5.5-4.938l-505.343.373a13.32 13.32 0 0 0-12.355-8.217H81.64c-7.407 0-13.375 5.939-13.375 13.345a13.35 13.35 0 0 0 13.375 13.376h57.114a13.354 13.354 0 0 0 12.355-8.218l505.343.373c3.057.002 5.5-2.478 5.5-5.532 0-.19.02-.376 0-.562z" color="#000" overflow="visible" fill="none" stroke="#000" stroke-linecap="round" stroke-linejoin="bevel"/><path d="M202.579 520.665v-19.808M623.808 520.665v-19.808M591.405 520.665v-19.808M559.003 520.665v-19.808M526.6 520.665v-19.808M494.199 520.665v-19.808M461.796 520.665v-19.808M429.394 520.665v-19.808M396.992 520.665v-19.808M364.59 520.665v-19.808M332.187 520.665v-19.808M299.785 520.665v-19.808M267.383 520.665v-19.808M234.98 520.665v-19.808" fill="none" stroke="#000" stroke-linecap="round"/><g fill="none" stroke="#000" stroke-linecap="round"><path d="M209.059 520.398V506.73M215.54 520.398V506.73M222.02 520.398V506.73M228.5 520.398V506.73"/></g><g fill="none" stroke="#000" stroke-linecap="round"><path d="M241.461 520.17V506.5M247.942 520.17V506.5M254.422 520.17V506.5M260.903 520.17V506.5"/></g><g fill="none" stroke="#000" stroke-linecap="round"><path d="M273.863 520.17V506.5M280.344 520.17V506.5M286.824 520.17V506.5M293.305 520.17V506.5"/></g><g fill="none" stroke="#000" stroke-linecap="round"><path d="M306.266 520.17V506.5M312.746 520.17V506.5M319.227 520.17V506.5M325.707 520.17V506.5"/></g><g fill="none" stroke="#000" stroke-linecap="round"><path d="M338.668 520.17V506.5M345.148 520.17V506.5M351.629 520.17V506.5M358.11 520.17V506.5"/></g><g fill="none" stroke="#000" stroke-linecap="round"><path d="M371.07 520.17V506.5M377.55 520.17V506.5M384.031 520.17V506.5M390.511 520.17V506.5"/></g><g fill="none" stroke="#000" stroke-linecap="round"><path d="M403.472 520.17V506.5M409.953 520.17V506.5M416.433 520.17V506.5M422.914 520.17V506.5"/></g><g fill="none" stroke="#000" stroke-linecap="round"><path d="M435.875 520.17V506.5M442.355 520.17V506.5M448.835 520.17V506.5M455.316 520.17V506.5"/></g><g fill="none" stroke="#000" stroke-linecap="round"><path d="M468.277 520.17V506.5M474.757 520.17V506.5M481.238 520.17V506.5M487.718 520.17V506.5"/></g><g fill="none" stroke="#000" stroke-linecap="round"><path d="M500.68 520.17V506.5M507.16 520.17V506.5M513.64 520.17V506.5M520.12 520.17V506.5"/></g><g fill="none" stroke="#000" stroke-linecap="round"><path d="M533.081 520.17V506.5M539.562 520.17V506.5M546.042 520.17V506.5M552.523 520.17V506.5"/></g><g fill="none" stroke="#000" stroke-linecap="round"><path d="M565.484 520.17V506.5M571.964 520.17V506.5M578.444 520.17V506.5M584.925 520.17V506.5"/></g><g fill="none" stroke="#000" stroke-linecap="round"><path d="M597.886 520.17V506.5M604.366 520.17V506.5M610.847 520.17V506.5M617.327 520.17V506.5"/></g><g ns0:text="100" ns0:preamble="/home/waldgeist/data/sphinx/inkscape-preamble.tex" transform="rotate(90 280.617 517.421) scale(1.3244)" fill="#a00" stroke="maroon"><defs><symbol overflow="visible" id="b"><path d="M2.938-6.375c0-.25 0-.266-.235-.266C2.078-6 1.203-6 .891-6v.313c.203 0 .78 0 1.296-.266v5.172c0 .36-.03.469-.921.469H.953V0c.344-.031 1.203-.031 1.61-.031.39 0 1.265 0 1.609.031v-.313h-.313c-.906 0-.921-.109-.921-.468zm0 0" stroke="none"/></symbol><symbol overflow="visible" id="c"><path d="M4.578-3.188c0-.796-.047-1.593-.39-2.328C3.733-6.484 2.905-6.64 2.5-6.64c-.61 0-1.328.266-1.75 1.188-.313.687-.36 1.469-.36 2.266 0 .75.032 1.64.454 2.406a1.83 1.83 0 0 0 1.64 1c.532 0 1.297-.203 1.735-1.157.312-.687.36-1.468.36-2.25zM2.484 0c-.39 0-.984-.25-1.156-1.203-.11-.594-.11-1.516-.11-2.11 0-.64 0-1.296.079-1.828.187-1.187.937-1.28 1.187-1.28.329 0 .985.187 1.172 1.171.11.563.11 1.313.11 1.938 0 .75 0 1.421-.11 2.062C3.5-.297 2.937 0 2.484 0zm0 0" stroke="none"/></symbol></defs><use height="1052.362" width="744.094" xlink:href="#b" x="223.432" y="134.765"/><use height="1052.362" width="744.094" xlink:href="#c" x="228.413" y="134.765"/><use height="1052.362" width="744.094" xlink:href="#c" x="233.395" y="134.765"/></g><g ns0:text="30" ns0:preamble="/home/waldgeist/data/sphinx/inkscape-preamble.tex" transform="rotate(90 68.198 308.611) scale(1.3244)" fill="navy"><defs><symbol overflow="visible" id="d"><path d="M2.89-3.516c.813-.265 1.391-.953 1.391-1.75 0-.812-.875-1.375-1.828-1.375-1 0-1.765.594-1.765 1.36 0 .328.218.515.515.515.297 0 .5-.218.5-.515 0-.485-.469-.485-.61-.485.298-.5.954-.625 1.313-.625.422 0 .969.22.969 1.11 0 .125-.031.703-.281 1.14-.297.485-.64.516-.89.516a3.29 3.29 0 0 1-.392.031c-.078.016-.14.031-.14.125 0 .11.062.11.234.11h.438c.812 0 1.187.671 1.187 1.656 0 1.36-.687 1.64-1.125 1.64-.437 0-1.187-.171-1.531-.75.344.047.656-.171.656-.546a.537.537 0 0 0-.547-.563c-.25 0-.562.14-.562.578C.422-.437 1.344.22 2.437.22c1.22 0 2.126-.906 2.126-1.922 0-.813-.641-1.594-1.672-1.813zm0 0"/></symbol><symbol overflow="visible" id="e"><path d="M4.578-3.188c0-.796-.047-1.593-.39-2.328C3.733-6.484 2.905-6.64 2.5-6.64c-.61 0-1.328.266-1.75 1.188-.313.687-.36 1.469-.36 2.266 0 .75.032 1.64.454 2.406a1.83 1.83 0 0 0 1.64 1c.532 0 1.297-.203 1.735-1.157.312-.687.36-1.468.36-2.25zM2.484 0c-.39 0-.984-.25-1.156-1.203-.11-.594-.11-1.516-.11-2.11 0-.64 0-1.296.079-1.828.187-1.187.937-1.28 1.187-1.28.329 0 .985.187 1.172 1.171.11.563.11 1.313.11 1.938 0 .75 0 1.421-.11 2.062C3.5-.297 2.937 0 2.484 0zm0 0"/></symbol></defs><use height="1052.362" width="744.094" xlink:href="#d" x="223.432" y="134.765"/><use height="1052.362" width="744.094" xlink:href="#e" x="228.413" y="134.765"/></g><g transform="rotate(90 165.405 405.818) scale(1.3244)" ns0:preamble="/home/waldgeist/data/sphinx/inkscape-preamble.tex" ns0:text="30" fill="#a00" stroke="maroon"><use y="134.765" x="223.432" xlink:href="#d" width="744.094" height="1052.362"/><use y="134.765" x="228.413" xlink:href="#e" width="744.094" height="1052.362"/></g><g transform="rotate(90 149.23 389.59) scale(1.3244)" ns0:preamble="/home/waldgeist/data/sphinx/inkscape-preamble.tex" ns0:text="20" fill="#a00" stroke="maroon"><defs><symbol id="f" overflow="visible"><path d="M1.266-.766l1.062-1.03c1.547-1.376 2.14-1.907 2.14-2.907 0-1.14-.89-1.938-2.109-1.938C1.234-6.64.5-5.719.5-4.828c0 .547.5.547.531.547.172 0 .516-.11.516-.532a.513.513 0 0 0-.531-.515c-.079 0-.094 0-.125.016.218-.657.765-1.016 1.343-1.016.907 0 1.329.812 1.329 1.625 0 .797-.485 1.578-1.047 2.203L.609-.375C.5-.265.5-.235.5 0h3.703l.266-1.734h-.235C4.172-1.438 4.11-1 4-.844c-.063.078-.719.078-.938.078zm0 0" stroke="none"/></symbol><symbol id="g" overflow="visible"><path d="M4.578-3.188c0-.796-.047-1.593-.39-2.328C3.733-6.484 2.905-6.64 2.5-6.64c-.61 0-1.328.266-1.75 1.188-.313.687-.36 1.469-.36 2.266 0 .75.032 1.64.454 2.406a1.83 1.83 0 0 0 1.64 1c.532 0 1.297-.203 1.735-1.157.312-.687.36-1.468.36-2.25zM2.484 0c-.39 0-.984-.25-1.156-1.203-.11-.594-.11-1.516-.11-2.11 0-.64 0-1.296.079-1.828.187-1.187.937-1.28 1.187-1.28.329 0 .985.187 1.172 1.171.11.563.11 1.313.11 1.938 0 .75 0 1.421-.11 2.062C3.5-.297 2.937 0 2.484 0zm0 0" stroke="none"/></symbol></defs><use y="134.765" x="223.432" xlink:href="#f" width="744.094" height="1052.362"/><use y="134.765" x="228.413" xlink:href="#g" width="744.094" height="1052.362"/></g><g transform="rotate(90 84.425 324.786) scale(1.3244)" ns0:text="20" ns0:preamble="/home/waldgeist/data/sphinx/inkscape-preamble.tex" fill="navy"><use height="1052.362" width="744.094" xlink:href="#f" x="223.432" y="134.765"/><use height="1052.362" width="744.094" xlink:href="#g" x="228.413" y="134.765"/></g><g ns0:text="10" ns0:preamble="/home/waldgeist/data/sphinx/inkscape-preamble.tex" transform="rotate(90 100.755 340.858) scale(1.3244)" fill="navy"><defs><symbol overflow="visible" id="h"><path d="M2.938-6.375c0-.25 0-.266-.235-.266C2.078-6 1.203-6 .891-6v.313c.203 0 .78 0 1.296-.266v5.172c0 .36-.03.469-.921.469H.953V0c.344-.031 1.203-.031 1.61-.031.39 0 1.265 0 1.609.031v-.313h-.313c-.906 0-.921-.109-.921-.468zm0 0"/></symbol><symbol overflow="visible" id="i"><path d="M4.578-3.188c0-.796-.047-1.593-.39-2.328C3.733-6.484 2.905-6.64 2.5-6.64c-.61 0-1.328.266-1.75 1.188-.313.687-.36 1.469-.36 2.266 0 .75.032 1.64.454 2.406a1.83 1.83 0 0 0 1.64 1c.532 0 1.297-.203 1.735-1.157.312-.687.36-1.468.36-2.25zM2.484 0c-.39 0-.984-.25-1.156-1.203-.11-.594-.11-1.516-.11-2.11 0-.64 0-1.296.079-1.828.187-1.187.937-1.28 1.187-1.28.329 0 .985.187 1.172 1.171.11.563.11 1.313.11 1.938 0 .75 0 1.421-.11 2.062C3.5-.297 2.937 0 2.484 0zm0 0"/></symbol></defs><use height="1052.362" width="744.094" xlink:href="#h" x="223.432" y="134.765"/><use height="1052.362" width="744.094" xlink:href="#i" x="228.413" y="134.765"/></g><g transform="rotate(90 133.157 373.26) scale(1.3244)" ns0:preamble="/home/waldgeist/data/sphinx/inkscape-preamble.tex" ns0:text="10" fill="#a00" stroke="maroon"><use height="1052.362" width="744.094" y="134.765" x="223.432" xlink:href="#h"/><use height="1052.362" width="744.094" y="134.765" x="228.413" xlink:href="#i"/></g><g transform="rotate(90 115.141 358.874) scale(1.3244)" ns0:preamble="/home/waldgeist/data/sphinx/inkscape-preamble.tex" ns0:text="0"><defs><symbol id="j" overflow="visible"><path d="M4.578-3.188c0-.796-.047-1.593-.39-2.328C3.733-6.484 2.905-6.64 2.5-6.64c-.61 0-1.328.266-1.75 1.188-.313.687-.36 1.469-.36 2.266 0 .75.032 1.64.454 2.406a1.83 1.83 0 0 0 1.64 1c.532 0 1.297-.203 1.735-1.157.312-.687.36-1.468.36-2.25zM2.484 0c-.39 0-.984-.25-1.156-1.203-.11-.594-.11-1.516-.11-2.11 0-.64 0-1.296.079-1.828.187-1.187.937-1.28 1.187-1.28.329 0 .985.187 1.172 1.171.11.563.11 1.313.11 1.938 0 .75 0 1.421-.11 2.062C3.5-.297 2.937 0 2.484 0zm0 0"/></symbol></defs><use y="134.765" x="223.432" xlink:href="#j" width="744.094" height="1052.362"/></g><g ns0:text="90" ns0:preamble="/home/waldgeist/data/sphinx/inkscape-preamble.tex" transform="rotate(90 262.611 503.024) scale(1.3244)" fill="#a00" stroke="maroon"><defs><symbol overflow="visible" id="k"><path d="M3.656-3.172v.328c0 2.328-1.031 2.781-1.61 2.781-.171 0-.718-.015-.983-.359.437 0 .515-.281.515-.453 0-.313-.234-.453-.453-.453-.156 0-.453.078-.453.469 0 .671.531 1.078 1.375 1.078 1.297 0 2.515-1.36 2.515-3.5 0-2.688-1.156-3.36-2.046-3.36-.547 0-1.032.188-1.454.625-.421.454-.64.875-.64 1.625 0 1.235.875 2.22 1.984 2.22.61 0 1.016-.423 1.25-1zm-1.234.766c-.156 0-.625 0-.922-.625-.188-.375-.188-.86-.188-1.36 0-.53 0-1 .22-1.375.265-.5.64-.625.984-.625.468 0 .796.344.968.782.11.328.157.953.157 1.406 0 .828-.344 1.797-1.22 1.797zm0 0" stroke="none"/></symbol><symbol overflow="visible" id="l"><path d="M4.578-3.188c0-.796-.047-1.593-.39-2.328C3.733-6.484 2.905-6.64 2.5-6.64c-.61 0-1.328.266-1.75 1.188-.313.687-.36 1.469-.36 2.266 0 .75.032 1.64.454 2.406a1.83 1.83 0 0 0 1.64 1c.532 0 1.297-.203 1.735-1.157.312-.687.36-1.468.36-2.25zM2.484 0c-.39 0-.984-.25-1.156-1.203-.11-.594-.11-1.516-.11-2.11 0-.64 0-1.296.079-1.828.187-1.187.937-1.28 1.187-1.28.329 0 .985.187 1.172 1.171.11.563.11 1.313.11 1.938 0 .75 0 1.421-.11 2.062C3.5-.297 2.937 0 2.484 0zm0 0" stroke="none"/></symbol></defs><use xlink:href="#k" x="223.432" y="134.765" width="744.094" height="1052.362"/><use xlink:href="#l" x="228.413" y="134.765" width="744.094" height="1052.362"/></g><g transform="rotate(90 246.41 486.823) scale(1.3244)" ns0:preamble="/home/waldgeist/data/sphinx/inkscape-preamble.tex" ns0:text="80" fill="#a00" stroke="maroon"><defs><symbol id="m" overflow="visible"><path d="M1.625-4.563c-.453-.296-.5-.625-.5-.796 0-.61.656-1.032 1.36-1.032.718 0 1.359.516 1.359 1.235 0 .578-.39 1.047-.985 1.39zm1.453.954c.719-.375 1.203-.891 1.203-1.547 0-.922-.875-1.485-1.781-1.485-1 0-1.813.735-1.813 1.672 0 .172.016.625.438 1.094.11.11.484.36.734.531C1.281-3.047.422-2.5.422-1.5.422-.453 1.438.219 2.484.219c1.125 0 2.079-.828 2.079-1.89 0-.36-.11-.813-.5-1.235-.188-.203-.344-.297-.985-.703zm-1 .421l1.235.782c.28.187.75.484.75 1.094 0 .734-.75 1.25-1.563 1.25C1.64-.063.922-.672.922-1.5c0-.578.312-1.219 1.156-1.688zm0 0" stroke="none"/></symbol><symbol id="n" overflow="visible"><path d="M4.578-3.188c0-.796-.047-1.593-.39-2.328C3.733-6.484 2.905-6.64 2.5-6.64c-.61 0-1.328.266-1.75 1.188-.313.687-.36 1.469-.36 2.266 0 .75.032 1.64.454 2.406a1.83 1.83 0 0 0 1.64 1c.532 0 1.297-.203 1.735-1.157.312-.687.36-1.468.36-2.25zM2.484 0c-.39 0-.984-.25-1.156-1.203-.11-.594-.11-1.516-.11-2.11 0-.64 0-1.296.079-1.828.187-1.187.937-1.28 1.187-1.28.329 0 .985.187 1.172 1.171.11.563.11 1.313.11 1.938 0 .75 0 1.421-.11 2.062C3.5-.297 2.937 0 2.484 0zm0 0" stroke="none"/></symbol></defs><use y="134.765" x="223.432" xlink:href="#m" width="744.094" height="1052.362"/><use y="134.765" x="228.413" xlink:href="#n" width="744.094" height="1052.362"/></g><g ns0:text="70" ns0:preamble="/home/waldgeist/data/sphinx/inkscape-preamble.tex" transform="rotate(90 230.225 470.545) scale(1.3244)" fill="#a00" stroke="maroon"><defs><symbol overflow="visible" id="o"><path d="M4.75-6.078c.078-.11.078-.125.078-.344H2.406c-1.203 0-1.234-.125-1.265-.312H.89L.562-4.688h.25c.032-.156.11-.78.25-.906.063-.062.844-.062.97-.062h2.062c-.11.156-.89 1.25-1.11 1.578C2.078-2.734 1.75-1.344 1.75-.328c0 .094 0 .547.469.547.453 0 .453-.453.453-.547v-.516c0-.547.031-1.094.11-1.625.046-.234.171-1.094.624-1.703zm0 0" stroke="none"/></symbol><symbol overflow="visible" id="p"><path d="M4.578-3.188c0-.796-.047-1.593-.39-2.328C3.733-6.484 2.905-6.64 2.5-6.64c-.61 0-1.328.266-1.75 1.188-.313.687-.36 1.469-.36 2.266 0 .75.032 1.64.454 2.406a1.83 1.83 0 0 0 1.64 1c.532 0 1.297-.203 1.735-1.157.312-.687.36-1.468.36-2.25zM2.484 0c-.39 0-.984-.25-1.156-1.203-.11-.594-.11-1.516-.11-2.11 0-.64 0-1.296.079-1.828.187-1.187.937-1.28 1.187-1.28.329 0 .985.187 1.172 1.171.11.563.11 1.313.11 1.938 0 .75 0 1.421-.11 2.062C3.5-.297 2.937 0 2.484 0zm0 0" stroke="none"/></symbol></defs><use xlink:href="#o" x="223.432" y="134.765" width="744.094" height="1052.362"/><use xlink:href="#p" x="228.413" y="134.765" width="744.094" height="1052.362"/></g><g transform="rotate(90 214.008 454.421) scale(1.3244)" ns0:preamble="/home/waldgeist/data/sphinx/inkscape-preamble.tex" ns0:text="60" fill="#a00" stroke="maroon"><defs><symbol id="q" overflow="visible"><path d="M1.313-3.266v-.25c0-2.515 1.234-2.875 1.75-2.875.234 0 .656.063.874.407-.156 0-.546 0-.546.437 0 .313.234.469.453.469.156 0 .469-.094.469-.484 0-.594-.438-1.079-1.266-1.079C1.766-6.64.422-5.359.422-3.156.422-.484 1.578.219 2.5.219c1.11 0 2.063-.938 2.063-2.25 0-1.266-.891-2.219-2-2.219-.672 0-1.047.5-1.25.984zM2.5-.062c-.625 0-.922-.594-.984-.75-.188-.47-.188-1.266-.188-1.438 0-.781.328-1.781 1.219-1.781.172 0 .625 0 .937.625.172.36.172.875.172 1.36 0 .483 0 .983-.172 1.343-.296.594-.75.64-.984.64zm0 0" stroke="none"/></symbol><symbol id="r" overflow="visible"><path d="M4.578-3.188c0-.796-.047-1.593-.39-2.328C3.733-6.484 2.905-6.64 2.5-6.64c-.61 0-1.328.266-1.75 1.188-.313.687-.36 1.469-.36 2.266 0 .75.032 1.64.454 2.406a1.83 1.83 0 0 0 1.64 1c.532 0 1.297-.203 1.735-1.157.312-.687.36-1.468.36-2.25zM2.484 0c-.39 0-.984-.25-1.156-1.203-.11-.594-.11-1.516-.11-2.11 0-.64 0-1.296.079-1.828.187-1.187.937-1.28 1.187-1.28.329 0 .985.187 1.172 1.171.11.563.11 1.313.11 1.938 0 .75 0 1.421-.11 2.062C3.5-.297 2.937 0 2.484 0zm0 0" stroke="none"/></symbol></defs><use y="134.765" x="223.432" xlink:href="#q" width="744.094" height="1052.362"/><use y="134.765" x="228.413" xlink:href="#r" width="744.094" height="1052.362"/></g><g ns0:text="50" ns0:preamble="/home/waldgeist/data/sphinx/inkscape-preamble.tex" transform="rotate(90 197.833 438.194) scale(1.3244)" fill="#a00" stroke="maroon"><defs><symbol overflow="visible" id="s"><path d="M4.469-2c0-1.188-.813-2.188-1.89-2.188-.47 0-.907.157-1.267.516v-1.953c.204.063.532.125.844.125 1.235 0 1.938-.906 1.938-1.031 0-.063-.032-.11-.11-.11 0 0-.03 0-.078.032a3.22 3.22 0 0 1-1.36.296c-.39 0-.858-.078-1.327-.28-.078-.032-.094-.032-.11-.032C1-6.625 1-6.547 1-6.391v2.954c0 .171 0 .25.14.25.079 0 .094-.016.141-.079.11-.156.469-.703 1.282-.703.515 0 .765.453.843.64.156.376.188.75.188 1.25 0 .36 0 .954-.25 1.376-.235.39-.61.64-1.063.64-.719 0-1.297-.53-1.469-1.109.032 0 .063.016.172.016.329 0 .5-.25.5-.485 0-.25-.171-.5-.5-.5-.14 0-.484.079-.484.532C.5-.75 1.188.219 2.297.219 3.453.219 4.469-.734 4.469-2zm0 0" stroke="none"/></symbol><symbol overflow="visible" id="t"><path d="M4.578-3.188c0-.796-.047-1.593-.39-2.328C3.733-6.484 2.905-6.64 2.5-6.64c-.61 0-1.328.266-1.75 1.188-.313.687-.36 1.469-.36 2.266 0 .75.032 1.64.454 2.406a1.83 1.83 0 0 0 1.64 1c.532 0 1.297-.203 1.735-1.157.312-.687.36-1.468.36-2.25zM2.484 0c-.39 0-.984-.25-1.156-1.203-.11-.594-.11-1.516-.11-2.11 0-.64 0-1.296.079-1.828.187-1.187.937-1.28 1.187-1.28.329 0 .985.187 1.172 1.171.11.563.11 1.313.11 1.938 0 .75 0 1.421-.11 2.062C3.5-.297 2.937 0 2.484 0zm0 0" stroke="none"/></symbol></defs><use xlink:href="#s" x="223.432" y="134.765" width="744.094" height="1052.362"/><use xlink:href="#t" x="228.413" y="134.765" width="744.094" height="1052.362"/></g><g transform="rotate(90 181.523 422.03) scale(1.3244)" ns0:preamble="/home/waldgeist/data/sphinx/inkscape-preamble.tex" ns0:text="40" fill="#a00" stroke="maroon"><defs><symbol id="u" overflow="visible"><path d="M2.938-1.64v.859c0 .36-.032.469-.766.469h-.203V0c.406-.031.922-.031 1.343-.031.422 0 .938 0 1.36.031v-.313h-.219c-.734 0-.75-.109-.75-.468v-.86h.985v-.312h-.985v-4.531c0-.204 0-.266-.172-.266-.078 0-.11 0-.187.125L.28-1.953v.312zm.046-.313H.563l2.421-3.719zm0 0" stroke="none"/></symbol><symbol id="v" overflow="visible"><path d="M4.578-3.188c0-.796-.047-1.593-.39-2.328C3.733-6.484 2.905-6.64 2.5-6.64c-.61 0-1.328.266-1.75 1.188-.313.687-.36 1.469-.36 2.266 0 .75.032 1.64.454 2.406a1.83 1.83 0 0 0 1.64 1c.532 0 1.297-.203 1.735-1.157.312-.687.36-1.468.36-2.25zM2.484 0c-.39 0-.984-.25-1.156-1.203-.11-.594-.11-1.516-.11-2.11 0-.64 0-1.296.079-1.828.187-1.187.937-1.28 1.187-1.28.329 0 .985.187 1.172 1.171.11.563.11 1.313.11 1.938 0 .75 0 1.421-.11 2.062C3.5-.297 2.937 0 2.484 0zm0 0" stroke="none"/></symbol></defs><use y="134.765" x="223.432" xlink:href="#u" width="744.094" height="1052.362"/><use y="134.765" x="228.413" xlink:href="#v" width="744.094" height="1052.362"/></g></svg>