<svg xmlns:ns0="http://www.iki.fi/pav/software/textext/" xmlns="http://www.w3.org/2000/svg" xmlns:xlink="http://www.w3.org/1999/xlink" width="210mm" height="297mm"><title>Waermestrahlung eines schwarzen Koerpers</title><defs><marker id="a" orient="auto" overflow="visible"><path transform="rotate(180) scale(.6)" d="M8.719 4.034L-2.207.016 8.719-4.002c-1.746 2.372-1.736 5.618 0 8.036z" fill-rule="evenodd" stroke-width=".625" stroke-linejoin="round"/></marker></defs><path style="marker:none" color="#000" fill="#fff" stroke="#fff" stroke-width="6" stroke-linecap="round" overflow="visible" d="M33.308 228.417h677.478v595.528H33.308z"/><path d="M148.509 754.363v-501.35" fill="none" stroke="#000" stroke-width="2" stroke-linecap="round" marker-end="url(#a)"/><g transform="matrix(2.88106 0 0 2.88106 -152.54 230.59)" fill="green"><use y="134.765" x="231.736" xlink:href="#textext-082fa4b4-3" width="744.094" height="1052.362"/><use y="134.765" x="231.736" xlink:href="#textext-082fa4b4-3" width="744.094" height="1052.362"/><g ns0:preamble="/home/waldgeist/data/sphinx/test.tex" ns0:text="$\\Delta \\vec{r} = \\vec{r}_{\\rm{2}} - \\vec{r}_{\\rm{1}} $"><use y="134.765" x="223.432" xlink:href="#textext-082fa4b4-0" width="744.094" height="1052.362"/><use y="134.765" x="231.417" xlink:href="#textext-082fa4b4-2" width="744.094" height="1052.362"/><use y="134.765" x="231.736" xlink:href="#textext-082fa4b4-3" width="744.094" height="1052.362"/><use y="134.765" x="239.273" xlink:href="#textext-082fa4b4-1" width="744.094" height="1052.362"/><use y="134.765" x="249.472" xlink:href="#textext-082fa4b4-2" width="744.094" height="1052.362"/><use y="134.765" x="249.791" xlink:href="#textext-082fa4b4-3" width="744.094" height="1052.362"/><use y="136.259" x="254.284" xlink:href="#textext-082fa4b4-4" width="744.094" height="1052.362"/><use y="134.765" x="260.967" xlink:href="#textext-082fa4b4-6" width="744.094" height="1052.362"/><use y="134.765" x="270.612" xlink:href="#textext-082fa4b4-2" width="744.094" height="1052.362"/><use y="134.765" x="270.931" xlink:href="#textext-082fa4b4-3" width="744.094" height="1052.362"/><use y="136.259" x="275.425" xlink:href="#textext-082fa4b4-5" width="744.094" height="1052.362"/></g><g ns0:preamble="/home/waldgeist/data/sphinx/test.tex" ns0:text="$\\Delta \\vec{r} = \\vec{r}_{\\rm{2}} - \\vec{r}_{\\rm{1}} $"><use y="134.765" x="223.432" xlink:href="#textext-082fa4b4-0" width="744.094" height="1052.362"/><use y="134.765" x="231.417" xlink:href="#textext-082fa4b4-2" width="744.094" height="1052.362"/><use y="134.765" x="231.736" xlink:href="#textext-082fa4b4-3" width="744.094" height="1052.362"/><use y="134.765" x="239.273" xlink:href="#textext-082fa4b4-1" width="744.094" height="1052.362"/><use y="134.765" x="249.472" xlink:href="#textext-082fa4b4-2" width="744.094" height="1052.362"/><use y="134.765" x="249.791" xlink:href="#textext-082fa4b4-3" width="744.094" height="1052.362"/><use y="136.259" x="254.284" xlink:href="#textext-082fa4b4-4" width="744.094" height="1052.362"/><use y="134.765" x="260.967" xlink:href="#textext-082fa4b4-6" width="744.094" height="1052.362"/><use y="134.765" x="270.612" xlink:href="#textext-082fa4b4-2" width="744.094" height="1052.362"/><use y="134.765" x="270.931" xlink:href="#textext-082fa4b4-3" width="744.094" height="1052.362"/><use y="136.259" x="275.425" xlink:href="#textext-082fa4b4-5" width="744.094" height="1052.362"/></g><g ns0:preamble="/home/waldgeist/data/sphinx/test.tex" ns0:text="$\\Delta \\vec{r} = \\vec{r}_{\\rm{2}} - \\vec{r}_{\\rm{1}} $"><use y="134.765" x="223.432" xlink:href="#textext-082fa4b4-0" width="744.094" height="1052.362"/><use y="134.765" x="231.417" xlink:href="#textext-082fa4b4-2" width="744.094" height="1052.362"/><use y="134.765" x="231.736" xlink:href="#textext-082fa4b4-3" width="744.094" height="1052.362"/><use y="134.765" x="239.273" xlink:href="#textext-082fa4b4-1" width="744.094" height="1052.362"/><use y="134.765" x="249.472" xlink:href="#textext-082fa4b4-2" width="744.094" height="1052.362"/><use y="134.765" x="249.791" xlink:href="#textext-082fa4b4-3" width="744.094" height="1052.362"/><use y="136.259" x="254.284" xlink:href="#textext-082fa4b4-4" width="744.094" height="1052.362"/><use y="134.765" x="260.967" xlink:href="#textext-082fa4b4-6" width="744.094" height="1052.362"/><use y="134.765" x="270.612" xlink:href="#textext-082fa4b4-2" width="744.094" height="1052.362"/><use y="134.765" x="270.931" xlink:href="#textext-082fa4b4-3" width="744.094" height="1052.362"/><use y="136.259" x="275.425" xlink:href="#textext-082fa4b4-5" width="744.094" height="1052.362"/></g></g><g transform="matrix(2.88106 0 0 2.88106 230.226 1018.375)" fill="green"><use y="134.765" x="231.736" xlink:href="#textext-082fa4b4-3" width="744.094" height="1052.362"/><use y="134.765" x="231.736" xlink:href="#textext-082fa4b4-3" width="744.094" height="1052.362"/><g ns0:preamble="/home/waldgeist/data/sphinx/test.tex" ns0:text="$\\Delta \\vec{r} = \\vec{r}_{\\rm{2}} - \\vec{r}_{\\rm{1}} $"><use y="134.765" x="223.432" xlink:href="#textext-082fa4b4-0" width="744.094" height="1052.362"/><use y="134.765" x="231.417" xlink:href="#textext-082fa4b4-2" width="744.094" height="1052.362"/><use y="134.765" x="231.736" xlink:href="#textext-082fa4b4-3" width="744.094" height="1052.362"/><use y="134.765" x="239.273" xlink:href="#textext-082fa4b4-1" width="744.094" height="1052.362"/><use y="134.765" x="249.472" xlink:href="#textext-082fa4b4-2" width="744.094" height="1052.362"/><use y="134.765" x="249.791" xlink:href="#textext-082fa4b4-3" width="744.094" height="1052.362"/><use y="136.259" x="254.284" xlink:href="#textext-082fa4b4-4" width="744.094" height="1052.362"/><use y="134.765" x="260.967" xlink:href="#textext-082fa4b4-6" width="744.094" height="1052.362"/><use y="134.765" x="270.612" xlink:href="#textext-082fa4b4-2" width="744.094" height="1052.362"/><use y="134.765" x="270.931" xlink:href="#textext-082fa4b4-3" width="744.094" height="1052.362"/><use y="136.259" x="275.425" xlink:href="#textext-082fa4b4-5" width="744.094" height="1052.362"/></g><g ns0:preamble="/home/waldgeist/data/sphinx/test.tex" ns0:text="$\\Delta \\vec{r} = \\vec{r}_{\\rm{2}} - \\vec{r}_{\\rm{1}} $"><use y="134.765" x="223.432" xlink:href="#textext-082fa4b4-0" width="744.094" height="1052.362"/><use y="134.765" x="231.417" xlink:href="#textext-082fa4b4-2" width="744.094" height="1052.362"/><use y="134.765" x="231.736" xlink:href="#textext-082fa4b4-3" width="744.094" height="1052.362"/><use y="134.765" x="239.273" xlink:href="#textext-082fa4b4-1" width="744.094" height="1052.362"/><use y="134.765" x="249.472" xlink:href="#textext-082fa4b4-2" width="744.094" height="1052.362"/><use y="134.765" x="249.791" xlink:href="#textext-082fa4b4-3" width="744.094" height="1052.362"/><use y="136.259" x="254.284" xlink:href="#textext-082fa4b4-4" width="744.094" height="1052.362"/><use y="134.765" x="260.967" xlink:href="#textext-082fa4b4-6" width="744.094" height="1052.362"/><use y="134.765" x="270.612" xlink:href="#textext-082fa4b4-2" width="744.094" height="1052.362"/><use y="134.765" x="270.931" xlink:href="#textext-082fa4b4-3" width="744.094" height="1052.362"/><use y="136.259" x="275.425" xlink:href="#textext-082fa4b4-5" width="744.094" height="1052.362"/></g><g ns0:preamble="/home/waldgeist/data/sphinx/test.tex" ns0:text="$\\Delta \\vec{r} = \\vec{r}_{\\rm{2}} - \\vec{r}_{\\rm{1}} $"><use y="134.765" x="223.432" xlink:href="#textext-082fa4b4-0" width="744.094" height="1052.362"/><use y="134.765" x="231.417" xlink:href="#textext-082fa4b4-2" width="744.094" height="1052.362"/><use y="134.765" x="231.736" xlink:href="#textext-082fa4b4-3" width="744.094" height="1052.362"/><use y="134.765" x="239.273" xlink:href="#textext-082fa4b4-1" width="744.094" height="1052.362"/><use y="134.765" x="249.472" xlink:href="#textext-082fa4b4-2" width="744.094" height="1052.362"/><use y="134.765" x="249.791" xlink:href="#textext-082fa4b4-3" width="744.094" height="1052.362"/><use y="136.259" x="254.284" xlink:href="#textext-082fa4b4-4" width="744.094" height="1052.362"/><use y="134.765" x="260.967" xlink:href="#textext-082fa4b4-6" width="744.094" height="1052.362"/><use y="134.765" x="270.612" xlink:href="#textext-082fa4b4-2" width="744.094" height="1052.362"/><use y="134.765" x="270.931" xlink:href="#textext-082fa4b4-3" width="744.094" height="1052.362"/><use y="136.259" x="275.425" xlink:href="#textext-082fa4b4-5" width="744.094" height="1052.362"/></g></g><path d="M137.021 743.332h511.643" fill="none" stroke="#000" stroke-width="2" stroke-linecap="round" marker-end="url(#a)"/><g transform="matrix(2.88106 0 0 -2.88106 -152.54 190.122)" fill="green"><use height="1052.362" width="744.094" xlink:href="#textext-082fa4b4-3" x="231.736" y="134.765"/><use height="1052.362" width="744.094" xlink:href="#textext-082fa4b4-3" x="231.736" y="134.765"/><g ns0:text="$\\Delta \\vec{r} = \\vec{r}_{\\rm{2}} - \\vec{r}_{\\rm{1}} $" ns0:preamble="/home/waldgeist/data/sphinx/test.tex"><use height="1052.362" width="744.094" xlink:href="#textext-082fa4b4-0" x="223.432" y="134.765"/><use height="1052.362" width="744.094" xlink:href="#textext-082fa4b4-2" x="231.417" y="134.765"/><use height="1052.362" width="744.094" xlink:href="#textext-082fa4b4-3" x="231.736" y="134.765"/><use height="1052.362" width="744.094" xlink:href="#textext-082fa4b4-1" x="239.273" y="134.765"/><use height="1052.362" width="744.094" xlink:href="#textext-082fa4b4-2" x="249.472" y="134.765"/><use height="1052.362" width="744.094" xlink:href="#textext-082fa4b4-3" x="249.791" y="134.765"/><use height="1052.362" width="744.094" xlink:href="#textext-082fa4b4-4" x="254.284" y="136.259"/><use height="1052.362" width="744.094" xlink:href="#textext-082fa4b4-6" x="260.967" y="134.765"/><use height="1052.362" width="744.094" xlink:href="#textext-082fa4b4-2" x="270.612" y="134.765"/><use height="1052.362" width="744.094" xlink:href="#textext-082fa4b4-3" x="270.931" y="134.765"/><use height="1052.362" width="744.094" xlink:href="#textext-082fa4b4-5" x="275.425" y="136.259"/></g><g ns0:text="$\\Delta \\vec{r} = \\vec{r}_{\\rm{2}} - \\vec{r}_{\\rm{1}} $" ns0:preamble="/home/waldgeist/data/sphinx/test.tex"><use height="1052.362" width="744.094" xlink:href="#textext-082fa4b4-0" x="223.432" y="134.765"/><use height="1052.362" width="744.094" xlink:href="#textext-082fa4b4-2" x="231.417" y="134.765"/><use height="1052.362" width="744.094" xlink:href="#textext-082fa4b4-3" x="231.736" y="134.765"/><use height="1052.362" width="744.094" xlink:href="#textext-082fa4b4-1" x="239.273" y="134.765"/><use height="1052.362" width="744.094" xlink:href="#textext-082fa4b4-2" x="249.472" y="134.765"/><use height="1052.362" width="744.094" xlink:href="#textext-082fa4b4-3" x="249.791" y="134.765"/><use height="1052.362" width="744.094" xlink:href="#textext-082fa4b4-4" x="254.284" y="136.259"/><use height="1052.362" width="744.094" xlink:href="#textext-082fa4b4-6" x="260.967" y="134.765"/><use height="1052.362" width="744.094" xlink:href="#textext-082fa4b4-2" x="270.612" y="134.765"/><use height="1052.362" width="744.094" xlink:href="#textext-082fa4b4-3" x="270.931" y="134.765"/><use height="1052.362" width="744.094" xlink:href="#textext-082fa4b4-5" x="275.425" y="136.259"/></g><g ns0:text="$\\Delta \\vec{r} = \\vec{r}_{\\rm{2}} - \\vec{r}_{\\rm{1}} $" ns0:preamble="/home/waldgeist/data/sphinx/test.tex"><use height="1052.362" width="744.094" xlink:href="#textext-082fa4b4-0" x="223.432" y="134.765"/><use height="1052.362" width="744.094" xlink:href="#textext-082fa4b4-2" x="231.417" y="134.765"/><use height="1052.362" width="744.094" xlink:href="#textext-082fa4b4-3" x="231.736" y="134.765"/><use height="1052.362" width="744.094" xlink:href="#textext-082fa4b4-1" x="239.273" y="134.765"/><use height="1052.362" width="744.094" xlink:href="#textext-082fa4b4-2" x="249.472" y="134.765"/><use height="1052.362" width="744.094" xlink:href="#textext-082fa4b4-3" x="249.791" y="134.765"/><use height="1052.362" width="744.094" xlink:href="#textext-082fa4b4-4" x="254.284" y="136.259"/><use height="1052.362" width="744.094" xlink:href="#textext-082fa4b4-6" x="260.967" y="134.765"/><use height="1052.362" width="744.094" xlink:href="#textext-082fa4b4-2" x="270.612" y="134.765"/><use height="1052.362" width="744.094" xlink:href="#textext-082fa4b4-3" x="270.931" y="134.765"/><use height="1052.362" width="744.094" xlink:href="#textext-082fa4b4-5" x="275.425" y="136.259"/></g></g><g transform="matrix(2.88106 0 0 -2.88106 230.226 -597.663)" fill="green"><use height="1052.362" width="744.094" xlink:href="#textext-082fa4b4-3" x="231.736" y="134.765"/><use height="1052.362" width="744.094" xlink:href="#textext-082fa4b4-3" x="231.736" y="134.765"/><g ns0:text="$\\Delta \\vec{r} = \\vec{r}_{\\rm{2}} - \\vec{r}_{\\rm{1}} $" ns0:preamble="/home/waldgeist/data/sphinx/test.tex"><use height="1052.362" width="744.094" xlink:href="#textext-082fa4b4-0" x="223.432" y="134.765"/><use height="1052.362" width="744.094" xlink:href="#textext-082fa4b4-2" x="231.417" y="134.765"/><use height="1052.362" width="744.094" xlink:href="#textext-082fa4b4-3" x="231.736" y="134.765"/><use height="1052.362" width="744.094" xlink:href="#textext-082fa4b4-1" x="239.273" y="134.765"/><use height="1052.362" width="744.094" xlink:href="#textext-082fa4b4-2" x="249.472" y="134.765"/><use height="1052.362" width="744.094" xlink:href="#textext-082fa4b4-3" x="249.791" y="134.765"/><use height="1052.362" width="744.094" xlink:href="#textext-082fa4b4-4" x="254.284" y="136.259"/><use height="1052.362" width="744.094" xlink:href="#textext-082fa4b4-6" x="260.967" y="134.765"/><use height="1052.362" width="744.094" xlink:href="#textext-082fa4b4-2" x="270.612" y="134.765"/><use height="1052.362" width="744.094" xlink:href="#textext-082fa4b4-3" x="270.931" y="134.765"/><use height="1052.362" width="744.094" xlink:href="#textext-082fa4b4-5" x="275.425" y="136.259"/></g><g ns0:text="$\\Delta \\vec{r} = \\vec{r}_{\\rm{2}} - \\vec{r}_{\\rm{1}} $" ns0:preamble="/home/waldgeist/data/sphinx/test.tex"><use height="1052.362" width="744.094" xlink:href="#textext-082fa4b4-0" x="223.432" y="134.765"/><use height="1052.362" width="744.094" xlink:href="#textext-082fa4b4-2" x="231.417" y="134.765"/><use height="1052.362" width="744.094" xlink:href="#textext-082fa4b4-3" x="231.736" y="134.765"/><use height="1052.362" width="744.094" xlink:href="#textext-082fa4b4-1" x="239.273" y="134.765"/><use height="1052.362" width="744.094" xlink:href="#textext-082fa4b4-2" x="249.472" y="134.765"/><use height="1052.362" width="744.094" xlink:href="#textext-082fa4b4-3" x="249.791" y="134.765"/><use height="1052.362" width="744.094" xlink:href="#textext-082fa4b4-4" x="254.284" y="136.259"/><use height="1052.362" width="744.094" xlink:href="#textext-082fa4b4-6" x="260.967" y="134.765"/><use height="1052.362" width="744.094" xlink:href="#textext-082fa4b4-2" x="270.612" y="134.765"/><use height="1052.362" width="744.094" xlink:href="#textext-082fa4b4-3" x="270.931" y="134.765"/><use height="1052.362" width="744.094" xlink:href="#textext-082fa4b4-5" x="275.425" y="136.259"/></g><g ns0:text="$\\Delta \\vec{r} = \\vec{r}_{\\rm{2}} - \\vec{r}_{\\rm{1}} $" ns0:preamble="/home/waldgeist/data/sphinx/test.tex"><use height="1052.362" width="744.094" xlink:href="#textext-082fa4b4-0" x="223.432" y="134.765"/><use height="1052.362" width="744.094" xlink:href="#textext-082fa4b4-2" x="231.417" y="134.765"/><use height="1052.362" width="744.094" xlink:href="#textext-082fa4b4-3" x="231.736" y="134.765"/><use height="1052.362" width="744.094" xlink:href="#textext-082fa4b4-1" x="239.273" y="134.765"/><use height="1052.362" width="744.094" xlink:href="#textext-082fa4b4-2" x="249.472" y="134.765"/><use height="1052.362" width="744.094" xlink:href="#textext-082fa4b4-3" x="249.791" y="134.765"/><use height="1052.362" width="744.094" xlink:href="#textext-082fa4b4-4" x="254.284" y="136.259"/><use height="1052.362" width="744.094" xlink:href="#textext-082fa4b4-6" x="260.967" y="134.765"/><use height="1052.362" width="744.094" xlink:href="#textext-082fa4b4-2" x="270.612" y="134.765"/><use height="1052.362" width="744.094" xlink:href="#textext-082fa4b4-3" x="270.931" y="134.765"/><use height="1052.362" width="744.094" xlink:href="#textext-082fa4b4-5" x="275.425" y="136.259"/></g></g><g ns0:text="$0$" ns0:preamble="/home/waldgeist/data/sphinx/inkscape-preamble.tex" transform="matrix(2.36524 0 0 2.36524 -409.642 455.535)" fill="navy" stroke="#000" stroke-width="1.426"><defs><symbol overflow="visible" id="b"><path d="M4.578-3.188c0-.796-.047-1.593-.39-2.328C3.733-6.484 2.905-6.64 2.5-6.64c-.61 0-1.328.266-1.75 1.188-.313.687-.36 1.469-.36 2.266 0 .75.032 1.64.454 2.406a1.83 1.83 0 0 0 1.64 1c.532 0 1.297-.203 1.735-1.157.312-.687.36-1.468.36-2.25zM2.484 0c-.39 0-.984-.25-1.156-1.203-.11-.594-.11-1.516-.11-2.11 0-.64 0-1.296.079-1.828.187-1.187.937-1.28 1.187-1.28.329 0 .985.187 1.172 1.171.11.563.11 1.313.11 1.938 0 .75 0 1.421-.11 2.062C3.5-.297 2.937 0 2.484 0z" stroke="none"/></symbol></defs><use height="744.094" width="1052.362" xlink:href="#b" x="223.432" y="134.765" fill="#000"/></g><path d="M148.568 743.332c39.466 0 65.912 4.845 88.814-8.983 57.333-34.617 76.234-30.384 96.696-31.219 41-1.672 71.639 17.915 244.84 30.798" fill="none" stroke="#59f" stroke-width="3" stroke-linecap="round"/><path d="M140.341 652.992h16.296M140.341 562.672h16.296M140.341 472.351h16.296M256.096 735.165v16.296M363.704 735.165v16.296M471.31 735.165v16.296M578.918 735.165v16.296" fill="none" stroke="#000" stroke-linecap="round"/><g ns0:text="$500$" ns0:preamble="/home/waldgeist/data/sphinx/inkscape-preamble.tex" transform="matrix(2.36524 0 0 2.36524 -289.939 455.535)" fill="navy" stroke="#000" stroke-width="1.426"><defs><symbol overflow="visible" id="c"><path d="M4.469-2c0-1.188-.813-2.188-1.89-2.188-.47 0-.907.157-1.267.516v-1.953c.204.063.532.125.844.125 1.235 0 1.938-.906 1.938-1.031 0-.063-.032-.11-.11-.11 0 0-.03 0-.078.032a3.22 3.22 0 0 1-1.36.296c-.39 0-.858-.078-1.327-.28-.078-.032-.094-.032-.11-.032C1-6.625 1-6.547 1-6.391v2.954c0 .171 0 .25.14.25.079 0 .094-.016.141-.079.11-.156.469-.703 1.282-.703.515 0 .765.453.843.64.156.376.188.75.188 1.25 0 .36 0 .954-.25 1.376-.235.39-.61.64-1.063.64-.719 0-1.297-.53-1.469-1.109.032 0 .063.016.172.016.329 0 .5-.25.5-.485 0-.25-.171-.5-.5-.5-.14 0-.484.079-.484.532C.5-.75 1.188.219 2.297.219 3.453.219 4.469-.734 4.469-2z" stroke="none"/></symbol><symbol overflow="visible" id="d"><path d="M4.578-3.188c0-.796-.047-1.593-.39-2.328C3.733-6.484 2.905-6.64 2.5-6.64c-.61 0-1.328.266-1.75 1.188-.313.687-.36 1.469-.36 2.266 0 .75.032 1.64.454 2.406a1.83 1.83 0 0 0 1.64 1c.532 0 1.297-.203 1.735-1.157.312-.687.36-1.468.36-2.25zM2.484 0c-.39 0-.984-.25-1.156-1.203-.11-.594-.11-1.516-.11-2.11 0-.64 0-1.296.079-1.828.187-1.187.937-1.28 1.187-1.28.329 0 .985.187 1.172 1.171.11.563.11 1.313.11 1.938 0 .75 0 1.421-.11 2.062C3.5-.297 2.937 0 2.484 0z" stroke="none"/></symbol></defs><g fill="#000"><use height="1052.362" width="744.094" xlink:href="#c" x="223.432" y="134.765"/><use height="1052.362" width="744.094" xlink:href="#d" x="228.413" y="134.765"/><use height="1052.362" width="744.094" xlink:href="#d" x="233.395" y="134.765"/></g></g><g transform="matrix(2.36524 0 0 2.36524 -188.66 455.535)" ns0:preamble="/home/waldgeist/data/sphinx/inkscape-preamble.tex" ns0:text="$1000$" fill="navy" stroke="#000" stroke-width="1.426"><defs><symbol id="e" overflow="visible"><path d="M2.938-6.375c0-.25 0-.266-.235-.266C2.078-6 1.203-6 .891-6v.313c.203 0 .78 0 1.296-.266v5.172c0 .36-.03.469-.921.469H.953V0c.344-.031 1.203-.031 1.61-.031.39 0 1.265 0 1.609.031v-.313h-.313c-.906 0-.921-.109-.921-.468z" stroke="none"/></symbol><symbol id="f" overflow="visible"><path d="M4.578-3.188c0-.796-.047-1.593-.39-2.328C3.733-6.484 2.905-6.64 2.5-6.64c-.61 0-1.328.266-1.75 1.188-.313.687-.36 1.469-.36 2.266 0 .75.032 1.64.454 2.406a1.83 1.83 0 0 0 1.64 1c.532 0 1.297-.203 1.735-1.157.312-.687.36-1.468.36-2.25zM2.484 0c-.39 0-.984-.25-1.156-1.203-.11-.594-.11-1.516-.11-2.11 0-.64 0-1.296.079-1.828.187-1.187.937-1.28 1.187-1.28.329 0 .985.187 1.172 1.171.11.563.11 1.313.11 1.938 0 .75 0 1.421-.11 2.062C3.5-.297 2.937 0 2.484 0z" stroke="none"/></symbol></defs><g fill="#000"><use y="134.765" x="223.432" xlink:href="#e" width="744.094" height="1052.362"/><use y="134.765" x="228.413" xlink:href="#f" width="744.094" height="1052.362"/><use y="134.765" x="233.395" xlink:href="#f" width="744.094" height="1052.362"/><use y="134.765" x="238.376" xlink:href="#f" width="744.094" height="1052.362"/></g></g><g ns0:text="$1500$" ns0:preamble="/home/waldgeist/data/sphinx/inkscape-preamble.tex" transform="matrix(2.36524 0 0 2.36524 -81.3 455.535)" fill="navy" stroke="#000" stroke-width="1.426"><defs><symbol overflow="visible" id="g"><path d="M2.938-6.375c0-.25 0-.266-.235-.266C2.078-6 1.203-6 .891-6v.313c.203 0 .78 0 1.296-.266v5.172c0 .36-.03.469-.921.469H.953V0c.344-.031 1.203-.031 1.61-.031.39 0 1.265 0 1.609.031v-.313h-.313c-.906 0-.921-.109-.921-.468z" stroke="none"/></symbol><symbol overflow="visible" id="h"><path d="M4.469-2c0-1.188-.813-2.188-1.89-2.188-.47 0-.907.157-1.267.516v-1.953c.204.063.532.125.844.125 1.235 0 1.938-.906 1.938-1.031 0-.063-.032-.11-.11-.11 0 0-.03 0-.078.032a3.22 3.22 0 0 1-1.36.296c-.39 0-.858-.078-1.327-.28-.078-.032-.094-.032-.11-.032C1-6.625 1-6.547 1-6.391v2.954c0 .171 0 .25.14.25.079 0 .094-.016.141-.079.11-.156.469-.703 1.282-.703.515 0 .765.453.843.64.156.376.188.75.188 1.25 0 .36 0 .954-.25 1.376-.235.39-.61.64-1.063.64-.719 0-1.297-.53-1.469-1.109.032 0 .063.016.172.016.329 0 .5-.25.5-.485 0-.25-.171-.5-.5-.5-.14 0-.484.079-.484.532C.5-.75 1.188.219 2.297.219 3.453.219 4.469-.734 4.469-2z" stroke="none"/></symbol><symbol overflow="visible" id="i"><path d="M4.578-3.188c0-.796-.047-1.593-.39-2.328C3.733-6.484 2.905-6.64 2.5-6.64c-.61 0-1.328.266-1.75 1.188-.313.687-.36 1.469-.36 2.266 0 .75.032 1.64.454 2.406a1.83 1.83 0 0 0 1.64 1c.532 0 1.297-.203 1.735-1.157.312-.687.36-1.468.36-2.25zM2.484 0c-.39 0-.984-.25-1.156-1.203-.11-.594-.11-1.516-.11-2.11 0-.64 0-1.296.079-1.828.187-1.187.937-1.28 1.187-1.28.329 0 .985.187 1.172 1.171.11.563.11 1.313.11 1.938 0 .75 0 1.421-.11 2.062C3.5-.297 2.937 0 2.484 0z" stroke="none"/></symbol></defs><g fill="#000"><use xlink:href="#g" x="223.432" y="134.765" width="744.094" height="1052.362"/><use xlink:href="#h" x="228.413" y="134.765" width="744.094" height="1052.362"/><use xlink:href="#i" x="233.395" y="134.765" width="744.094" height="1052.362"/><use xlink:href="#i" x="238.376" y="134.765" width="744.094" height="1052.362"/></g></g><g transform="matrix(2.36524 0 0 2.36524 26.77 455.535)" ns0:preamble="/home/waldgeist/data/sphinx/inkscape-preamble.tex" ns0:text="$2000$" fill="navy" stroke="#000" stroke-width="1.426"><defs><symbol id="j" overflow="visible"><path d="M1.266-.766l1.062-1.03c1.547-1.376 2.14-1.907 2.14-2.907 0-1.14-.89-1.938-2.109-1.938C1.234-6.64.5-5.719.5-4.828c0 .547.5.547.531.547.172 0 .516-.11.516-.532a.513.513 0 0 0-.531-.515c-.079 0-.094 0-.125.016.218-.657.765-1.016 1.343-1.016.907 0 1.329.812 1.329 1.625 0 .797-.485 1.578-1.047 2.203L.609-.375C.5-.265.5-.235.5 0h3.703l.266-1.734h-.235C4.172-1.438 4.11-1 4-.844c-.063.078-.719.078-.938.078z" stroke="none"/></symbol><symbol id="k" overflow="visible"><path d="M4.578-3.188c0-.796-.047-1.593-.39-2.328C3.733-6.484 2.905-6.64 2.5-6.64c-.61 0-1.328.266-1.75 1.188-.313.687-.36 1.469-.36 2.266 0 .75.032 1.64.454 2.406a1.83 1.83 0 0 0 1.64 1c.532 0 1.297-.203 1.735-1.157.312-.687.36-1.468.36-2.25zM2.484 0c-.39 0-.984-.25-1.156-1.203-.11-.594-.11-1.516-.11-2.11 0-.64 0-1.296.079-1.828.187-1.187.937-1.28 1.187-1.28.329 0 .985.187 1.172 1.171.11.563.11 1.313.11 1.938 0 .75 0 1.421-.11 2.062C3.5-.297 2.937 0 2.484 0z" stroke="none"/></symbol></defs><g fill="#000"><use y="134.765" x="223.432" xlink:href="#j" width="744.094" height="1052.362"/><use y="134.765" x="228.413" xlink:href="#k" width="744.094" height="1052.362"/><use y="134.765" x="233.395" xlink:href="#k" width="744.094" height="1052.362"/><use y="134.765" x="238.376" xlink:href="#k" width="744.094" height="1052.362"/></g></g><path d="M148.568 743.332c39.466 0 63.23 9.298 88.814-30.56 40.976-63.838 79.733-47.297 95.238-43.466 39.837 9.842 87.968 47.689 246.298 60.863" fill="none" stroke="#59f" stroke-width="3" stroke-linecap="round"/><g ns0:text="\\centering $\\lambda$ \\\\ in $\\unit[]{nm}$" ns0:preamble="/home/waldgeist/data/sphinx/inkscape-preamble.tex" transform="matrix(2.36524 0 0 2.36524 -292.73 454.97)" fill="navy" stroke="#000" stroke-width="1.426"><defs><symbol overflow="visible" id="l"><path d="M3.563-2.906c.406 1.047.89 2.562 1.046 2.797.157.218.25.218.532.218h.218c.094-.015.11-.062.11-.093 0-.032-.032-.063-.063-.094-.093-.11-.156-.266-.218-.453L3.155-6.203c-.219-.578-.75-.719-1.219-.719-.046 0-.187 0-.187.11 0 .078.078.109.094.109.328.047.406.11.656.797l.953 2.703L.703-.47c-.11.125-.172.172-.172.313 0 .172.14.281.297.281.156 0 .25-.11.328-.203z" stroke="none"/></symbol><symbol overflow="visible" id="m"><path d="M1.766-4.406l-1.391.11v.312c.64 0 .734.062.734.546V-.75c0 .438-.109.438-.78.438V0c.312-.016.859-.031 1.093-.031.36 0 .703.015 1.047.031v-.313c-.672 0-.703-.046-.703-.437zm.03-1.735a.514.514 0 0 0-.515-.53.537.537 0 0 0-.531.53c0 .266.219.532.531.532a.514.514 0 0 0 .516-.532z" stroke="none"/></symbol><symbol overflow="visible" id="n"><path d="M1.094-3.422V-.75c0 .438-.11.438-.782.438V0c.36-.016.86-.031 1.141-.031.25 0 .766.015 1.11.031v-.313c-.672 0-.782 0-.782-.437v-1.844c0-1.031.719-1.594 1.344-1.594.64 0 .75.532.75 1.11V-.75c0 .438-.11.438-.781.438V0c.344-.016.86-.031 1.125-.031.25 0 .781.015 1.11.031v-.313c-.516 0-.766 0-.766-.296v-1.907c0-.859 0-1.156-.313-1.515-.14-.172-.469-.375-1.047-.375-.734 0-1.203.422-1.484 1.047v-1.047l-1.407.11v.312c.704 0 .782.062.782.562z" stroke="none"/></symbol><symbol overflow="visible" id="o"><path d="M1.094-3.422V-.75c0 .438-.11.438-.782.438V0c.36-.016.86-.031 1.141-.031.25 0 .766.015 1.11.031v-.313c-.672 0-.782 0-.782-.437v-1.844c0-1.031.719-1.594 1.344-1.594.64 0 .75.532.75 1.11V-.75c0 .438-.11.438-.781.438V0c.344-.016.86-.031 1.125-.031.25 0 .781.015 1.11.031v-.313c-.657 0-.766 0-.766-.437v-1.844c0-1.031.703-1.594 1.343-1.594.625 0 .735.532.735 1.11V-.75c0 .438-.11.438-.782.438V0c.344-.016.86-.031 1.125-.031.266 0 .782.015 1.125.031v-.313c-.515 0-.765 0-.78-.296v-1.907c0-.859 0-1.156-.313-1.515-.141-.172-.47-.375-1.047-.375-.828 0-1.282.593-1.438.984-.14-.875-.875-.984-1.328-.984-.734 0-1.203.422-1.484 1.047v-1.047l-1.407.11v.312c.704 0 .782.062.782.562z" stroke="none"/></symbol></defs><g fill="#000"><use xlink:href="#l" x="392.382" y="134.765" width="744.094" height="1052.362"/><use xlink:href="#m" x="382.558" y="146.72" width="744.094" height="1052.362"/><use xlink:href="#n" x="385.326" y="146.72" width="744.094" height="1052.362"/><g><use xlink:href="#n" x="394.178" y="146.72" width="744.094" height="1052.362"/><use xlink:href="#o" x="399.714" y="146.72" width="744.094" height="1052.362"/></g></g></g><g ns0:text="\\centering \\large{$\\frac{E}{\\lambda}$} \\\\[4pt] in $\\unit[]{\\frac{kJ}{nm}}$" ns0:preamble="/home/waldgeist/data/sphinx/inkscape-preamble.tex" transform="matrix(2.36524 0 0 2.36524 -830.758 -43.538)" fill="navy" stroke="#000" stroke-width="1.426"><defs><symbol overflow="visible" id="p"><path d="M5.969-1.844A.29.29 0 0 0 6-1.954c0-.015 0-.124-.125-.124-.078 0-.094.031-.172.203-.5 1.172-.875 1.61-2.187 1.61H2.078c-.078-.016-.11-.016-.11-.063 0-.063.016-.14.048-.188l.546-2.171h.844c.594 0 .703.093.703.359 0 0 0 .125-.046.36a.29.29 0 0 0-.032.109s.016.109.125.109c.094 0 .11-.047.14-.188l.423-1.671c0-.016.031-.141.031-.157 0-.078-.063-.109-.125-.109-.094 0-.11.047-.14.188-.173.624-.376.734-1.063.734h-.797l.469-1.906c.078-.282.078-.297.406-.297h1.25c.953 0 1.266.187 1.266.89 0 .172-.047.375-.047.516 0 .094.062.14.125.14.11 0 .11-.078.125-.203l.14-1.359c.016-.047.016-.094.016-.14 0-.11-.094-.11-.234-.11H1.937c-.156 0-.25 0-.25.156 0 .11.11.11.235.11.031 0 .172 0 .312.015.172.016.188.047.188.11a.294.294 0 0 1-.031.125L1.328-.625c-.078.297-.094.36-.687.36-.141 0-.25 0-.25.156C.39 0 .5 0 .64 0h4.312c.188 0 .203 0 .266-.14z" stroke="none"/></symbol><symbol overflow="visible" id="q"><path d="M3-2.281c.297.719.781 2.015.86 2.156.14.203.296.203.484.203.234 0 .297 0 .297-.094 0-.046-.016-.062-.047-.093-.094-.11-.125-.188-.188-.344L2.61-5c-.046-.14-.203-.531-1.03-.531-.079 0-.188 0-.188.11 0 .093.078.109.109.109.172.03.313.046.5.5l.578 1.437.313.813L.609-.454c-.093.078-.171.172-.171.281 0 .156.14.266.265.266A.37.37 0 0 0 1-.078z" stroke="none"/></symbol><symbol overflow="visible" id="r"><path d="M2.078-7.36a.59.59 0 0 0-.578-.593.577.577 0 0 0-.578.578c0 .36.281.578.578.578.36 0 .578-.297.578-.562zM.438-5.14v.343c.75 0 .859.078.859.656v3.25c0 .547-.125.547-.906.547V0c.343-.031.906-.031 1.265-.031.125 0 .813 0 1.219.031v-.344c-.766 0-.813-.062-.813-.531v-4.39z" stroke="none"/></symbol><symbol overflow="visible" id="s"><path d="M5.313-2.906c0-1.11 0-1.438-.266-1.828-.344-.47-.906-.532-1.313-.532-1.171 0-1.625.985-1.718 1.22v-1.22L.375-5.14v.344c.813 0 .922.094.922.672v3.234c0 .547-.14.547-.922.547V0c.313-.031.969-.031 1.297-.031.344 0 1 0 1.297.031v-.344c-.75 0-.906 0-.906-.547v-2.218c0-1.25.828-1.922 1.578-1.922.734 0 .906.61.906 1.343V-.89c0 .547-.14.547-.906.547V0c.296-.031.953-.031 1.28-.031.345 0 1 0 1.313.031v-.344c-.609 0-.906 0-.921-.36z" stroke="none"/></symbol><symbol overflow="visible" id="t"><path d="M2.406-2.172l.672-.531c.531-.422.86-.453 1.063-.469v-.265c-.204.03-.313.03-.641.03-.39 0-.5-.015-.844-.03v.265c.156.016.188.11.188.156 0 .172-.172.313-.235.36l-1.14.922v-3.797L.28-5.438v.266c.547 0 .61.047.61.438v4.109c0 .36-.11.36-.61.36V0c.313-.031.735-.031.875-.031.157 0 .578 0 .89.031v-.266c-.515 0-.608 0-.608-.359v-.766l.53-.437c.032 0 .235.281.36.437.125.157.25.329.375.485.125.156.281.36.281.484 0 .14-.14.156-.25.156V0c.344-.031.704-.031.844-.031.297 0 .469 0 .735.031v-.266c-.329 0-.47-.03-.766-.406z" stroke="none"/></symbol><symbol overflow="visible" id="u"><path d="M3.281-4.828c0-.344.094-.344.61-.344v-.266c-.407.016-.625.016-1.079.016-.343 0-.953 0-1.28-.016v.266h.265c.75 0 .781.094.781.375v3.61c0 .734-.437 1.125-.86 1.125-.343 0-.702-.157-.89-.407.219 0 .469-.14.469-.437a.426.426 0 0 0-.438-.438c-.171 0-.437.11-.437.453C.422-.297 1 .172 1.75.172c.734 0 1.531-.484 1.531-1.36z" stroke="none"/></symbol><symbol overflow="visible" id="v"><path d="M3.875-2.422c0-.656-.313-1.094-1.14-1.094a1.38 1.38 0 0 0-1.25.766v-.766l-1.157.094v.266c.547 0 .61.047.61.437v2.094c0 .36-.094.36-.61.36V0c.344-.031.688-.031.906-.031.235 0 .563 0 .907.031v-.266c-.5 0-.61 0-.61-.359v-1.438c0-.843.64-1.234 1.125-1.234s.61.344.61.844v1.828c0 .36-.094.36-.61.36V0c.344-.031.703-.031.906-.031.235 0 .579 0 .922.031v-.266c-.515 0-.609 0-.609-.359z" stroke="none"/></symbol><symbol overflow="visible" id="w"><path d="M6.219-2.422c0-.64-.282-1.094-1.14-1.094-.735 0-1.11.5-1.235.735-.14-.578-.594-.735-1.11-.735a1.37 1.37 0 0 0-1.25.766v-.766l-1.156.094v.266c.547 0 .61.047.61.437v2.094c0 .36-.094.36-.61.36V0c.344-.031.688-.031.906-.031.235 0 .563 0 .907.031v-.266c-.5 0-.61 0-.61-.359v-1.438c0-.843.64-1.234 1.14-1.234.517 0 .61.406.61.844v1.828c0 .36-.11.36-.61.36V0c.345-.031.688-.031.907-.031.235 0 .563 0 .906.031v-.266c-.515 0-.609 0-.609-.359v-1.438c0-.843.64-1.234 1.14-1.234.516 0 .61.406.61.844v1.828c0 .36-.11.36-.61.36V0c.344-.031.688-.031.907-.031.234 0 .562 0 .906.031v-.266c-.516 0-.61 0-.61-.359z" stroke="none"/></symbol></defs><use height="1052.362" width="744.094" xlink:href="#p" x="391.961" y="130.248" fill="#000"/><path d="M391.96 131.969h6.653" fill="none" stroke-width=".531" stroke-miterlimit="10"/><use height="1052.362" width="744.094" xlink:href="#q" x="392.818" y="139.078" fill="#000"/><g fill="#000"><use height="1052.362" width="744.094" xlink:href="#r" x="381.383" y="154.301"/><use height="1052.362" width="744.094" xlink:href="#s" x="384.635" y="154.301"/></g><g fill="#000"><use height="1052.362" width="744.094" xlink:href="#t" x="397.708" y="149.594"/><use height="1052.362" width="744.094" xlink:href="#u" x="402.178" y="149.594"/></g><path d="M396.234 151.313h11.762" fill="none" stroke-width=".531" stroke-miterlimit="10"/><g fill="#000"><use height="1052.362" width="744.094" xlink:href="#v" x="396.235" y="158.424"/><use height="1052.362" width="744.094" xlink:href="#w" x="400.94" y="158.424"/></g></g><path d="M148.568 743.332c52.25 0 60.93.513 74.818-43.682 31.188-99.251 56.615-102.405 73.147-97.324 45.832 14.086 102.612 108.483 282.385 124.132" fill="none" stroke="#59f" stroke-width="3" stroke-linecap="round"/><g transform="matrix(2.36524 0 0 2.36524 -428.264 341.836)" ns0:preamble="/home/waldgeist/data/sphinx/inkscape-preamble.tex" ns0:text="$200$" fill="navy" stroke="#000" stroke-width="1.426"><defs><symbol id="x" overflow="visible"><path d="M1.266-.766l1.062-1.03c1.547-1.376 2.14-1.907 2.14-2.907 0-1.14-.89-1.938-2.109-1.938C1.234-6.64.5-5.719.5-4.828c0 .547.5.547.531.547.172 0 .516-.11.516-.532a.513.513 0 0 0-.531-.515c-.079 0-.094 0-.125.016.218-.657.765-1.016 1.343-1.016.907 0 1.329.812 1.329 1.625 0 .797-.485 1.578-1.047 2.203L.609-.375C.5-.265.5-.235.5 0h3.703l.266-1.734h-.235C4.172-1.438 4.11-1 4-.844c-.063.078-.719.078-.938.078z" stroke="none"/></symbol><symbol id="y" overflow="visible"><path d="M4.578-3.188c0-.796-.047-1.593-.39-2.328C3.733-6.484 2.905-6.64 2.5-6.64c-.61 0-1.328.266-1.75 1.188-.313.687-.36 1.469-.36 2.266 0 .75.032 1.64.454 2.406a1.83 1.83 0 0 0 1.64 1c.532 0 1.297-.203 1.735-1.157.312-.687.36-1.468.36-2.25zM2.484 0c-.39 0-.984-.25-1.156-1.203-.11-.594-.11-1.516-.11-2.11 0-.64 0-1.296.079-1.828.187-1.187.937-1.28 1.187-1.28.329 0 .985.187 1.172 1.171.11.563.11 1.313.11 1.938 0 .75 0 1.421-.11 2.062C3.5-.297 2.937 0 2.484 0z" stroke="none"/></symbol></defs><g fill="#000"><use y="134.765" x="223.432" xlink:href="#x" width="744.094" height="1052.362"/><use y="134.765" x="228.413" xlink:href="#y" width="744.094" height="1052.362"/><use y="134.765" x="233.395" xlink:href="#y" width="744.094" height="1052.362"/></g></g><path d="M140.341 382.03h16.296" fill="none" stroke="#000" stroke-linecap="round"/><g ns0:text="$400$" ns0:preamble="/home/waldgeist/data/sphinx/inkscape-preamble.tex" transform="matrix(2.36524 0 0 2.36524 -428.292 251.644)" fill="navy" stroke="#000" stroke-width="1.426"><defs><symbol overflow="visible" id="z"><path d="M2.938-1.64v.859c0 .36-.032.469-.766.469h-.203V0c.406-.031.922-.031 1.343-.031.422 0 .938 0 1.36.031v-.313h-.219c-.734 0-.75-.109-.75-.468v-.86h.985v-.312h-.985v-4.531c0-.204 0-.266-.172-.266-.078 0-.11 0-.187.125L.28-1.953v.312zm.046-.313H.563l2.421-3.719z" stroke="none"/></symbol><symbol overflow="visible" id="A"><path d="M4.578-3.188c0-.796-.047-1.593-.39-2.328C3.733-6.484 2.905-6.64 2.5-6.64c-.61 0-1.328.266-1.75 1.188-.313.687-.36 1.469-.36 2.266 0 .75.032 1.64.454 2.406a1.83 1.83 0 0 0 1.64 1c.532 0 1.297-.203 1.735-1.157.312-.687.36-1.468.36-2.25zM2.484 0c-.39 0-.984-.25-1.156-1.203-.11-.594-.11-1.516-.11-2.11 0-.64 0-1.296.079-1.828.187-1.187.937-1.28 1.187-1.28.329 0 .985.187 1.172 1.171.11.563.11 1.313.11 1.938 0 .75 0 1.421-.11 2.062C3.5-.297 2.937 0 2.484 0z" stroke="none"/></symbol></defs><g fill="#000"><use height="1052.362" width="744.094" xlink:href="#z" x="223.432" y="134.765"/><use height="1052.362" width="744.094" xlink:href="#A" x="228.413" y="134.765"/><use height="1052.362" width="744.094" xlink:href="#A" x="233.395" y="134.765"/></g></g><g transform="matrix(2.36524 0 0 2.36524 -428.274 161.195)" ns0:preamble="/home/waldgeist/data/sphinx/inkscape-preamble.tex" ns0:text="$600$" fill="navy" stroke="#000" stroke-width="1.426"><defs><symbol id="B" overflow="visible"><path d="M1.313-3.266v-.25c0-2.515 1.234-2.875 1.75-2.875.234 0 .656.063.874.407-.156 0-.546 0-.546.437 0 .313.234.469.453.469.156 0 .469-.094.469-.484 0-.594-.438-1.079-1.266-1.079C1.766-6.64.422-5.359.422-3.156.422-.484 1.578.219 2.5.219c1.11 0 2.063-.938 2.063-2.25 0-1.266-.891-2.219-2-2.219-.672 0-1.047.5-1.25.984zM2.5-.062c-.625 0-.922-.594-.984-.75-.188-.47-.188-1.266-.188-1.438 0-.781.328-1.781 1.219-1.781.172 0 .625 0 .937.625.172.36.172.875.172 1.36 0 .483 0 .983-.172 1.343-.296.594-.75.64-.984.64z" stroke="none"/></symbol><symbol id="C" overflow="visible"><path d="M4.578-3.188c0-.796-.047-1.593-.39-2.328C3.733-6.484 2.905-6.64 2.5-6.64c-.61 0-1.328.266-1.75 1.188-.313.687-.36 1.469-.36 2.266 0 .75.032 1.64.454 2.406a1.83 1.83 0 0 0 1.64 1c.532 0 1.297-.203 1.735-1.157.312-.687.36-1.468.36-2.25zM2.484 0c-.39 0-.984-.25-1.156-1.203-.11-.594-.11-1.516-.11-2.11 0-.64 0-1.296.079-1.828.187-1.187.937-1.28 1.187-1.28.329 0 .985.187 1.172 1.171.11.563.11 1.313.11 1.938 0 .75 0 1.421-.11 2.062C3.5-.297 2.937 0 2.484 0z" stroke="none"/></symbol></defs><g fill="#000"><use y="134.765" x="223.432" xlink:href="#B" width="744.094" height="1052.362"/><use y="134.765" x="228.413" xlink:href="#C" width="744.094" height="1052.362"/><use y="134.765" x="233.395" xlink:href="#C" width="744.094" height="1052.362"/></g></g><g ns0:text="$800$" ns0:preamble="/home/waldgeist/data/sphinx/inkscape-preamble.tex" transform="matrix(2.36524 0 0 2.36524 -428.274 70.874)" fill="navy" stroke="#000" stroke-width="1.426"><defs><symbol overflow="visible" id="D"><path d="M1.625-4.563c-.453-.296-.5-.625-.5-.796 0-.61.656-1.032 1.36-1.032.718 0 1.359.516 1.359 1.235 0 .578-.39 1.047-.985 1.39zm1.453.954c.719-.375 1.203-.891 1.203-1.547 0-.922-.875-1.485-1.781-1.485-1 0-1.813.735-1.813 1.672 0 .172.016.625.438 1.094.11.11.484.36.734.531C1.281-3.047.422-2.5.422-1.5.422-.453 1.438.219 2.484.219c1.125 0 2.079-.828 2.079-1.89 0-.36-.11-.813-.5-1.235-.188-.203-.344-.297-.985-.703zm-1 .421l1.235.782c.28.187.75.484.75 1.094 0 .734-.75 1.25-1.563 1.25C1.64-.063.922-.672.922-1.5c0-.578.312-1.219 1.156-1.688z" stroke="none"/></symbol><symbol overflow="visible" id="E"><path d="M4.578-3.188c0-.796-.047-1.593-.39-2.328C3.733-6.484 2.905-6.64 2.5-6.64c-.61 0-1.328.266-1.75 1.188-.313.687-.36 1.469-.36 2.266 0 .75.032 1.64.454 2.406a1.83 1.83 0 0 0 1.64 1c.532 0 1.297-.203 1.735-1.157.312-.687.36-1.468.36-2.25zM2.484 0c-.39 0-.984-.25-1.156-1.203-.11-.594-.11-1.516-.11-2.11 0-.64 0-1.296.079-1.828.187-1.187.937-1.28 1.187-1.28.329 0 .985.187 1.172 1.171.11.563.11 1.313.11 1.938 0 .75 0 1.421-.11 2.062C3.5-.297 2.937 0 2.484 0z" stroke="none"/></symbol></defs><g fill="#000"><use height="1052.362" width="744.094" xlink:href="#D" x="223.432" y="134.765"/><use height="1052.362" width="744.094" xlink:href="#E" x="228.413" y="134.765"/><use height="1052.362" width="744.094" xlink:href="#E" x="233.395" y="134.765"/></g></g><path d="M148.568 743.332c50.209 0 55.223-11.639 62.205-50.693 32.65-182.607 50.26-195.6 66.791-190.52 45.832 14.086 78.282 193.385 301.354 219.756" fill="none" stroke="#59f" stroke-width="3" stroke-linecap="round"/><path d="M148.568 743.332c52.25 0 48.464-24.994 54.612-64.3 20.694-132.312 27.31-337.044 61.188-324.954 52.744 18.822 58.38 333.901 314.55 362.38" fill="none" stroke="#59f" stroke-width="3" stroke-linecap="round"/><g transform="matrix(1.90188 0 0 1.90188 -124.511 439.842)" ns0:preamble="/home/waldgeist/data/sphinx/inkscape-preamble.tex" ns0:text="$\\unit[3500]{K}$" fill="#59f" stroke="#000" stroke-width="1.774"><defs><symbol id="F" overflow="visible"><path d="M2.89-3.516c.813-.265 1.391-.953 1.391-1.75 0-.812-.875-1.375-1.828-1.375-1 0-1.765.594-1.765 1.36 0 .328.218.515.515.515.297 0 .5-.218.5-.515 0-.485-.469-.485-.61-.485.298-.5.954-.625 1.313-.625.422 0 .969.22.969 1.11 0 .125-.031.703-.281 1.14-.297.485-.64.516-.89.516a3.29 3.29 0 0 1-.392.031c-.078.016-.14.031-.14.125 0 .11.062.11.234.11h.438c.812 0 1.187.671 1.187 1.656 0 1.36-.687 1.64-1.125 1.64-.437 0-1.187-.171-1.531-.75.344.047.656-.171.656-.546a.537.537 0 0 0-.547-.563c-.25 0-.562.14-.562.578C.422-.437 1.344.22 2.437.22c1.22 0 2.126-.906 2.126-1.922 0-.813-.641-1.594-1.672-1.813z" stroke="none"/></symbol><symbol id="G" overflow="visible"><path d="M4.469-2c0-1.188-.813-2.188-1.89-2.188-.47 0-.907.157-1.267.516v-1.953c.204.063.532.125.844.125 1.235 0 1.938-.906 1.938-1.031 0-.063-.032-.11-.11-.11 0 0-.03 0-.078.032a3.22 3.22 0 0 1-1.36.296c-.39 0-.858-.078-1.327-.28-.078-.032-.094-.032-.11-.032C1-6.625 1-6.547 1-6.391v2.954c0 .171 0 .25.14.25.079 0 .094-.016.141-.079.11-.156.469-.703 1.282-.703.515 0 .765.453.843.64.156.376.188.75.188 1.25 0 .36 0 .954-.25 1.376-.235.39-.61.64-1.063.64-.719 0-1.297-.53-1.469-1.109.032 0 .063.016.172.016.329 0 .5-.25.5-.485 0-.25-.171-.5-.5-.5-.14 0-.484.079-.484.532C.5-.75 1.188.219 2.297.219 3.453.219 4.469-.734 4.469-2z" stroke="none"/></symbol><symbol id="H" overflow="visible"><path d="M4.578-3.188c0-.796-.047-1.593-.39-2.328C3.733-6.484 2.905-6.64 2.5-6.64c-.61 0-1.328.266-1.75 1.188-.313.687-.36 1.469-.36 2.266 0 .75.032 1.64.454 2.406a1.83 1.83 0 0 0 1.64 1c.532 0 1.297-.203 1.735-1.157.312-.687.36-1.468.36-2.25zM2.484 0c-.39 0-.984-.25-1.156-1.203-.11-.594-.11-1.516-.11-2.11 0-.64 0-1.296.079-1.828.187-1.187.937-1.28 1.187-1.28.329 0 .985.187 1.172 1.171.11.563.11 1.313.11 1.938 0 .75 0 1.421-.11 2.062C3.5-.297 2.937 0 2.484 0z" stroke="none"/></symbol><symbol id="I" overflow="visible"><path d="M3.984-4.172l1.797-1.734c.078-.078.61-.578 1.422-.594v-.313c-.266.032-.578.032-.86.032-.359 0-.921 0-1.265-.032v.313c.406.016.469.234.469.328 0 .156-.11.266-.188.328L2.25-2.859v-3.172c0-.36.016-.469.781-.469h.235v-.313c-.344.032-1.079.032-1.47.032-.374 0-1.124 0-1.468-.032v.313h.234c.766 0 .797.11.797.469v5.25c0 .36-.03.469-.796.469H.328V0c.344-.031 1.094-.031 1.469-.031s1.125 0 1.469.031v-.313H3.03c-.765 0-.781-.109-.781-.468v-1.735l1.156-1.109L5.203-.953c.063.094.156.219.156.344 0 .296-.39.296-.593.296V0c.343-.031 1.046-.031 1.421-.031.36 0 .735.015 1.157.031v-.313c-.547 0-.75-.03-1.047-.468z" stroke="none"/></symbol></defs><g fill="#000"><use y="134.765" x="223.432" xlink:href="#F" width="744.094" height="1052.362"/><use y="134.765" x="228.413" xlink:href="#G" width="744.094" height="1052.362"/><use y="134.765" x="233.395" xlink:href="#H" width="744.094" height="1052.362"/><use y="134.765" x="238.376" xlink:href="#H" width="744.094" height="1052.362"/><g><use y="134.765" x="245.021" xlink:href="#I" width="744.094" height="1052.362"/></g></g></g><g ns0:text="$\\unit[4000]{K}$" ns0:preamble="/home/waldgeist/data/sphinx/inkscape-preamble.tex" transform="matrix(1.90188 0 0 1.90188 -149.005 400.186)" fill="#59f" stroke="#000" stroke-width="1.774"><defs><symbol overflow="visible" id="J"><path d="M2.938-1.64v.859c0 .36-.032.469-.766.469h-.203V0c.406-.031.922-.031 1.343-.031.422 0 .938 0 1.36.031v-.313h-.219c-.734 0-.75-.109-.75-.468v-.86h.985v-.312h-.985v-4.531c0-.204 0-.266-.172-.266-.078 0-.11 0-.187.125L.28-1.953v.312zm.046-.313H.563l2.421-3.719z" stroke="none"/></symbol><symbol overflow="visible" id="K"><path d="M4.578-3.188c0-.796-.047-1.593-.39-2.328C3.733-6.484 2.905-6.64 2.5-6.64c-.61 0-1.328.266-1.75 1.188-.313.687-.36 1.469-.36 2.266 0 .75.032 1.64.454 2.406a1.83 1.83 0 0 0 1.64 1c.532 0 1.297-.203 1.735-1.157.312-.687.36-1.468.36-2.25zM2.484 0c-.39 0-.984-.25-1.156-1.203-.11-.594-.11-1.516-.11-2.11 0-.64 0-1.296.079-1.828.187-1.187.937-1.28 1.187-1.28.329 0 .985.187 1.172 1.171.11.563.11 1.313.11 1.938 0 .75 0 1.421-.11 2.062C3.5-.297 2.937 0 2.484 0z" stroke="none"/></symbol><symbol overflow="visible" id="L"><path d="M3.984-4.172l1.797-1.734c.078-.078.61-.578 1.422-.594v-.313c-.266.032-.578.032-.86.032-.359 0-.921 0-1.265-.032v.313c.406.016.469.234.469.328 0 .156-.11.266-.188.328L2.25-2.859v-3.172c0-.36.016-.469.781-.469h.235v-.313c-.344.032-1.079.032-1.47.032-.374 0-1.124 0-1.468-.032v.313h.234c.766 0 .797.11.797.469v5.25c0 .36-.03.469-.796.469H.328V0c.344-.031 1.094-.031 1.469-.031s1.125 0 1.469.031v-.313H3.03c-.765 0-.781-.109-.781-.468v-1.735l1.156-1.109L5.203-.953c.063.094.156.219.156.344 0 .296-.39.296-.593.296V0c.343-.031 1.046-.031 1.421-.031.36 0 .735.015 1.157.031v-.313c-.547 0-.75-.03-1.047-.468z" stroke="none"/></symbol></defs><g fill="#000"><use xlink:href="#J" x="223.432" y="134.765" width="744.094" height="1052.362"/><use xlink:href="#K" x="228.413" y="134.765" width="744.094" height="1052.362"/><use xlink:href="#K" x="233.395" y="134.765" width="744.094" height="1052.362"/><use xlink:href="#K" x="238.376" y="134.765" width="744.094" height="1052.362"/><g><use xlink:href="#L" x="245.021" y="134.765" width="744.094" height="1052.362"/></g></g></g><g transform="matrix(1.90188 0 0 1.90188 -167.084 336.62)" ns0:preamble="/home/waldgeist/data/sphinx/inkscape-preamble.tex" ns0:text="$\\unit[4500]{K}$" fill="#59f" stroke="#000" stroke-width="1.774"><defs><symbol id="M" overflow="visible"><path d="M2.938-1.64v.859c0 .36-.032.469-.766.469h-.203V0c.406-.031.922-.031 1.343-.031.422 0 .938 0 1.36.031v-.313h-.219c-.734 0-.75-.109-.75-.468v-.86h.985v-.312h-.985v-4.531c0-.204 0-.266-.172-.266-.078 0-.11 0-.187.125L.28-1.953v.312zm.046-.313H.563l2.421-3.719z" stroke="none"/></symbol><symbol id="N" overflow="visible"><path d="M4.469-2c0-1.188-.813-2.188-1.89-2.188-.47 0-.907.157-1.267.516v-1.953c.204.063.532.125.844.125 1.235 0 1.938-.906 1.938-1.031 0-.063-.032-.11-.11-.11 0 0-.03 0-.078.032a3.22 3.22 0 0 1-1.36.296c-.39 0-.858-.078-1.327-.28-.078-.032-.094-.032-.11-.032C1-6.625 1-6.547 1-6.391v2.954c0 .171 0 .25.14.25.079 0 .094-.016.141-.079.11-.156.469-.703 1.282-.703.515 0 .765.453.843.64.156.376.188.75.188 1.25 0 .36 0 .954-.25 1.376-.235.39-.61.64-1.063.64-.719 0-1.297-.53-1.469-1.109.032 0 .063.016.172.016.329 0 .5-.25.5-.485 0-.25-.171-.5-.5-.5-.14 0-.484.079-.484.532C.5-.75 1.188.219 2.297.219 3.453.219 4.469-.734 4.469-2z" stroke="none"/></symbol><symbol id="O" overflow="visible"><path d="M4.578-3.188c0-.796-.047-1.593-.39-2.328C3.733-6.484 2.905-6.64 2.5-6.64c-.61 0-1.328.266-1.75 1.188-.313.687-.36 1.469-.36 2.266 0 .75.032 1.64.454 2.406a1.83 1.83 0 0 0 1.64 1c.532 0 1.297-.203 1.735-1.157.312-.687.36-1.468.36-2.25zM2.484 0c-.39 0-.984-.25-1.156-1.203-.11-.594-.11-1.516-.11-2.11 0-.64 0-1.296.079-1.828.187-1.187.937-1.28 1.187-1.28.329 0 .985.187 1.172 1.171.11.563.11 1.313.11 1.938 0 .75 0 1.421-.11 2.062C3.5-.297 2.937 0 2.484 0z" stroke="none"/></symbol><symbol id="P" overflow="visible"><path d="M3.984-4.172l1.797-1.734c.078-.078.61-.578 1.422-.594v-.313c-.266.032-.578.032-.86.032-.359 0-.921 0-1.265-.032v.313c.406.016.469.234.469.328 0 .156-.11.266-.188.328L2.25-2.859v-3.172c0-.36.016-.469.781-.469h.235v-.313c-.344.032-1.079.032-1.47.032-.374 0-1.124 0-1.468-.032v.313h.234c.766 0 .797.11.797.469v5.25c0 .36-.03.469-.796.469H.328V0c.344-.031 1.094-.031 1.469-.031s1.125 0 1.469.031v-.313H3.03c-.765 0-.781-.109-.781-.468v-1.735l1.156-1.109L5.203-.953c.063.094.156.219.156.344 0 .296-.39.296-.593.296V0c.343-.031 1.046-.031 1.421-.031.36 0 .735.015 1.157.031v-.313c-.547 0-.75-.03-1.047-.468z" stroke="none"/></symbol></defs><g fill="#000"><use y="134.765" x="223.432" xlink:href="#M" width="744.094" height="1052.362"/><use y="134.765" x="228.413" xlink:href="#N" width="744.094" height="1052.362"/><use y="134.765" x="233.395" xlink:href="#O" width="744.094" height="1052.362"/><use y="134.765" x="238.376" xlink:href="#O" width="744.094" height="1052.362"/><g><use y="134.765" x="245.021" xlink:href="#P" width="744.094" height="1052.362"/></g></g></g><g ns0:text="$\\unit[5000]{K}$" ns0:preamble="/home/waldgeist/data/sphinx/inkscape-preamble.tex" transform="matrix(1.90188 0 0 1.90188 -182.83 236.895)" fill="#59f" stroke="#000" stroke-width="1.774"><defs><symbol overflow="visible" id="Q"><path d="M4.469-2c0-1.188-.813-2.188-1.89-2.188-.47 0-.907.157-1.267.516v-1.953c.204.063.532.125.844.125 1.235 0 1.938-.906 1.938-1.031 0-.063-.032-.11-.11-.11 0 0-.03 0-.078.032a3.22 3.22 0 0 1-1.36.296c-.39 0-.858-.078-1.327-.28-.078-.032-.094-.032-.11-.032C1-6.625 1-6.547 1-6.391v2.954c0 .171 0 .25.14.25.079 0 .094-.016.141-.079.11-.156.469-.703 1.282-.703.515 0 .765.453.843.64.156.376.188.75.188 1.25 0 .36 0 .954-.25 1.376-.235.39-.61.64-1.063.64-.719 0-1.297-.53-1.469-1.109.032 0 .063.016.172.016.329 0 .5-.25.5-.485 0-.25-.171-.5-.5-.5-.14 0-.484.079-.484.532C.5-.75 1.188.219 2.297.219 3.453.219 4.469-.734 4.469-2z" stroke="none"/></symbol><symbol overflow="visible" id="R"><path d="M4.578-3.188c0-.796-.047-1.593-.39-2.328C3.733-6.484 2.905-6.64 2.5-6.64c-.61 0-1.328.266-1.75 1.188-.313.687-.36 1.469-.36 2.266 0 .75.032 1.64.454 2.406a1.83 1.83 0 0 0 1.64 1c.532 0 1.297-.203 1.735-1.157.312-.687.36-1.468.36-2.25zM2.484 0c-.39 0-.984-.25-1.156-1.203-.11-.594-.11-1.516-.11-2.11 0-.64 0-1.296.079-1.828.187-1.187.937-1.28 1.187-1.28.329 0 .985.187 1.172 1.171.11.563.11 1.313.11 1.938 0 .75 0 1.421-.11 2.062C3.5-.297 2.937 0 2.484 0z" stroke="none"/></symbol><symbol overflow="visible" id="S"><path d="M3.984-4.172l1.797-1.734c.078-.078.61-.578 1.422-.594v-.313c-.266.032-.578.032-.86.032-.359 0-.921 0-1.265-.032v.313c.406.016.469.234.469.328 0 .156-.11.266-.188.328L2.25-2.859v-3.172c0-.36.016-.469.781-.469h.235v-.313c-.344.032-1.079.032-1.47.032-.374 0-1.124 0-1.468-.032v.313h.234c.766 0 .797.11.797.469v5.25c0 .36-.03.469-.796.469H.328V0c.344-.031 1.094-.031 1.469-.031s1.125 0 1.469.031v-.313H3.03c-.765 0-.781-.109-.781-.468v-1.735l1.156-1.109L5.203-.953c.063.094.156.219.156.344 0 .296-.39.296-.593.296V0c.343-.031 1.046-.031 1.421-.031.36 0 .735.015 1.157.031v-.313c-.547 0-.75-.03-1.047-.468z" stroke="none"/></symbol></defs><g fill="#000"><use xlink:href="#Q" x="223.432" y="134.765" width="744.094" height="1052.362"/><use xlink:href="#R" x="228.413" y="134.765" width="744.094" height="1052.362"/><use xlink:href="#R" x="233.395" y="134.765" width="744.094" height="1052.362"/><use xlink:href="#R" x="238.376" y="134.765" width="744.094" height="1052.362"/><g><use xlink:href="#S" x="245.021" y="134.765" width="744.094" height="1052.362"/></g></g></g><g transform="matrix(1.90188 0 0 1.90188 -195.076 89.35)" ns0:preamble="/home/waldgeist/data/sphinx/inkscape-preamble.tex" ns0:text="$\\unit[5500]{K}$" fill="#59f" stroke="#000" stroke-width="1.774"><defs><symbol id="T" overflow="visible"><path d="M4.469-2c0-1.188-.813-2.188-1.89-2.188-.47 0-.907.157-1.267.516v-1.953c.204.063.532.125.844.125 1.235 0 1.938-.906 1.938-1.031 0-.063-.032-.11-.11-.11 0 0-.03 0-.078.032a3.22 3.22 0 0 1-1.36.296c-.39 0-.858-.078-1.327-.28-.078-.032-.094-.032-.11-.032C1-6.625 1-6.547 1-6.391v2.954c0 .171 0 .25.14.25.079 0 .094-.016.141-.079.11-.156.469-.703 1.282-.703.515 0 .765.453.843.64.156.376.188.75.188 1.25 0 .36 0 .954-.25 1.376-.235.39-.61.64-1.063.64-.719 0-1.297-.53-1.469-1.109.032 0 .063.016.172.016.329 0 .5-.25.5-.485 0-.25-.171-.5-.5-.5-.14 0-.484.079-.484.532C.5-.75 1.188.219 2.297.219 3.453.219 4.469-.734 4.469-2z" stroke="none"/></symbol><symbol id="U" overflow="visible"><path d="M4.578-3.188c0-.796-.047-1.593-.39-2.328C3.733-6.484 2.905-6.64 2.5-6.64c-.61 0-1.328.266-1.75 1.188-.313.687-.36 1.469-.36 2.266 0 .75.032 1.64.454 2.406a1.83 1.83 0 0 0 1.64 1c.532 0 1.297-.203 1.735-1.157.312-.687.36-1.468.36-2.25zM2.484 0c-.39 0-.984-.25-1.156-1.203-.11-.594-.11-1.516-.11-2.11 0-.64 0-1.296.079-1.828.187-1.187.937-1.28 1.187-1.28.329 0 .985.187 1.172 1.171.11.563.11 1.313.11 1.938 0 .75 0 1.421-.11 2.062C3.5-.297 2.937 0 2.484 0z" stroke="none"/></symbol><symbol id="V" overflow="visible"><path d="M3.984-4.172l1.797-1.734c.078-.078.61-.578 1.422-.594v-.313c-.266.032-.578.032-.86.032-.359 0-.921 0-1.265-.032v.313c.406.016.469.234.469.328 0 .156-.11.266-.188.328L2.25-2.859v-3.172c0-.36.016-.469.781-.469h.235v-.313c-.344.032-1.079.032-1.47.032-.374 0-1.124 0-1.468-.032v.313h.234c.766 0 .797.11.797.469v5.25c0 .36-.03.469-.796.469H.328V0c.344-.031 1.094-.031 1.469-.031s1.125 0 1.469.031v-.313H3.03c-.765 0-.781-.109-.781-.468v-1.735l1.156-1.109L5.203-.953c.063.094.156.219.156.344 0 .296-.39.296-.593.296V0c.343-.031 1.046-.031 1.421-.031.36 0 .735.015 1.157.031v-.313c-.547 0-.75-.03-1.047-.468z" stroke="none"/></symbol></defs><g fill="#000"><use y="134.765" x="223.432" xlink:href="#T" width="744.094" height="1052.362"/><use y="134.765" x="228.413" xlink:href="#T" width="744.094" height="1052.362"/><use y="134.765" x="233.395" xlink:href="#U" width="744.094" height="1052.362"/><use y="134.765" x="238.376" xlink:href="#U" width="744.094" height="1052.362"/><g><use y="134.765" x="245.021" xlink:href="#V" width="744.094" height="1052.362"/></g></g></g></svg>